<?xml version="1.0" encoding="UTF-8" standalone="no"?>
<!-- Created with Inkscape (http://www.inkscape.org/) -->

<svg
   xmlns:dc="http://purl.org/dc/elements/1.1/"
   xmlns:cc="http://creativecommons.org/ns#"
   xmlns:rdf="http://www.w3.org/1999/02/22-rdf-syntax-ns#"
   xmlns:svg="http://www.w3.org/2000/svg"
   xmlns="http://www.w3.org/2000/svg"
   xmlns:sodipodi="http://sodipodi.sourceforge.net/DTD/sodipodi-0.dtd"
   xmlns:inkscape="http://www.inkscape.org/namespaces/inkscape"
   version="1.0"
   width="1000"
   height="1000"
   id="svg5496"
   sodipodi:version="0.32"
   inkscape:version="0.48.0 r9654"
   sodipodi:docname="8thbar.svg"
   inkscape:output_extension="org.inkscape.output.svg.inkscape">
  <metadata
     id="metadata5594">
    <rdf:RDF>
      <cc:Work
         rdf:about="">
        <dc:format>image/svg+xml</dc:format>
        <dc:type
           rdf:resource="http://purl.org/dc/dcmitype/StillImage" />
        <dc:title></dc:title>
      </cc:Work>
    </rdf:RDF>
  </metadata>
  <sodipodi:namedview
     inkscape:window-height="618"
     inkscape:window-width="641"
     inkscape:pageshadow="2"
     inkscape:pageopacity="0.0"
     borderopacity="1.0"
     bordercolor="#666666"
     pagecolor="#ffffff"
     id="base"
     showgrid="false"
     showguides="true"
     inkscape:guide-bbox="true"
     inkscape:zoom="0.454"
     inkscape:cx="500"
     inkscape:cy="500"
     inkscape:window-x="597"
     inkscape:window-y="65"
     inkscape:current-layer="svg5496"
     inkscape:window-maximized="0">
    <sodipodi:guide
       orientation="horizontal"
       position="200"
       id="guide5596" />
  </sodipodi:namedview>
  <defs
     id="defs5498" />
  <path
     style="fill:#4d4d4d;fill-opacity:1;stroke:#f9f9f9;stroke-width:0.1;stroke-miterlimit:4;stroke-dasharray:none"
     d="M 356.0625 179.375 C 339.14675 180.20193 303.39501 227.83067 302.5 248.46875 C 276.46595 250.96322 247.28277 260.46791 249.03125 271.625 C 255.04525 319.25249 251.21075 367.55671 248.34375 415.28125 C 243.99324 473.72141 239.38421 532.12987 237.03125 590.6875 C 236.71965 590.64867 236.40499 590.60002 236.09375 590.5625 C 219.26475 589.39617 203.20225 592.98342 187.03125 596.9375 C 186.80573 596.99602 186.58875 597.10555 186.375 597.1875 C 187.26668 583.24067 185.24969 572.18175 178.8125 570.71875 C 144.7995 562.82075 113.73875 571.84851 83.46875 587.21875 C 51.27875 608.20858 22.8375 637.23364 8.3125 673.46875 C 5.2615 681.07928 3.54525 689.15656 1.15625 697 C -5.1272523 746.63664 15.943541 783.08941 59.875 799.46875 C 62.436771 802.05207 65.303186 804.53285 68.46875 806.875 C 86.45575 820.18307 100.0435 818.24214 120.4375 819.46875 C 151.70271 816.55901 180.52834 805.92322 207.71875 791.59375 C 227.65287 785.04031 247.14758 776.89403 266.1875 767.78125 C 301.09367 748.90549 339.43214 716.82589 322.1875 671.4375 C 322.43743 669.3452 322.69904 667.26129 323.03125 665.1875 C 321.7328 658.78604 321.299 652.13913 319.75 645.8125 C 325.52195 643.28792 329.05758 640.04797 328.9375 636.15625 C 327.8875 614.43107 328.236 626.04971 328.125 601.28125 C 329.12479 551.9736 332.2387 502.76344 335.90625 453.59375 C 380.49845 471.3733 430.41611 476.09513 477.5625 482.9375 C 546.08281 491.35096 613.68828 504.86687 678.5 528.34375 C 675.212 593.23019 671.40558 658.09973 668.375 723 C 651.29477 720.60471 634.59735 722.18572 617.84375 727.09375 C 616.67906 727.53551 615.71256 728.28253 614.9375 729.3125 C 613.82438 729.44949 612.7078 729.59643 611.59375 729.75 C 609.23677 727.69669 606.80919 726.77568 604.40625 727.3125 C 591.45647 730.66975 579.47549 735.6873 568.28125 742 C 562.11502 745.04401 556.2925 748.73011 550.96875 753.1875 C 538.90504 762.01073 527.8086 772.31011 517.4375 783.53125 C 493.0945 815.35767 481.716 859.88753 512.875 892.46875 C 519.362 899.25176 528.39825 903.02936 536.15625 908.3125 C 576.20371 922.37022 614.69133 912.72958 651.4375 896.40625 C 667.36909 894.43048 683.18644 890.02525 698.78125 883.78125 C 725.76025 869.67582 750.38125 847.33855 754.90625 815.5 C 755.89725 808.52947 754.99125 801.41546 755.03125 794.375 C 753.03238 784.51111 749.69937 775.91874 745.28125 768.40625 C 752.60689 766.26928 757.4469 763.05803 757.59375 758.6875 C 757.87675 748.34366 758.1535 738.00009 758.4375 727.65625 C 761.3065 651.59005 765.588 575.61548 770 499.625 C 771.38722 473.691 772.56014 447.72244 773.8125 421.78125 C 776.02301 422.28947 778.2271 422.80428 780.4375 423.3125 C 799.6525 427.4197 819.0265 336.82594 799.8125 332.71875 C 795.0065 331.76613 790.21125 330.82761 785.40625 329.875 C 735.90725 320.19762 686.72025 308.88467 637.90625 296.1875 C 577.08925 279.77042 516.58975 261.65182 459.34375 234.96875 C 425.42275 218.81009 391.11375 202.54919 360.46875 180.59375 C 359.21312 179.68057 357.742 179.2929 356.0625 179.375 z M 342.875 278.8125 C 368.22276 292.75491 394.45692 305.09655 420.6875 317.25 C 482.9105 345.63598 548.425 365.3935 614.25 383.375 C 637.19895 389.4258 660.18847 395.24508 683.25 400.84375 C 682.98016 412.19611 682.66253 423.5561 682.3125 434.90625 C 619.97179 415.55283 555.88992 402.87316 490.90625 394.5625 C 446.01425 387.5196 397.26925 383.59209 356.65625 361.625 C 353.48642 358.85569 348.21929 359.8515 342.03125 363.25 C 343.50136 335.10777 344.22844 306.93321 342.875 278.8125 z M 180.84375 628.0625 C 180.91259 628.572 180.98671 629.07932 181.0625 629.59375 C 180.83297 629.63205 180.6045 629.68006 180.375 629.71875 C 180.5379 629.16776 180.68604 628.61873 180.84375 628.0625 z "
     id="path4168" />
</svg>
