<?xml version="1.0" encoding="UTF-8" standalone="no"?>
<!-- Created with Inkscape (http://www.inkscape.org/) -->

<svg
   xmlns:dc="http://purl.org/dc/elements/1.1/"
   xmlns:cc="http://creativecommons.org/ns#"
   xmlns:rdf="http://www.w3.org/1999/02/22-rdf-syntax-ns#"
   xmlns:svg="http://www.w3.org/2000/svg"
   xmlns="http://www.w3.org/2000/svg"
   xmlns:sodipodi="http://sodipodi.sourceforge.net/DTD/sodipodi-0.dtd"
   xmlns:inkscape="http://www.inkscape.org/namespaces/inkscape"
   version="1.0"
   width="1000"
   height="1000"
   id="svg5496"
   sodipodi:version="0.32"
   inkscape:version="0.48.0 r9654"
   sodipodi:docname="T.svg"
   inkscape:output_extension="org.inkscape.output.svg.inkscape">
  <metadata
     id="metadata5594">
    <rdf:RDF>
      <cc:Work
         rdf:about="">
        <dc:format>image/svg+xml</dc:format>
        <dc:type
           rdf:resource="http://purl.org/dc/dcmitype/StillImage" />
        <dc:title></dc:title>
      </cc:Work>
    </rdf:RDF>
  </metadata>
  <sodipodi:namedview
     inkscape:window-height="618"
     inkscape:window-width="691"
     inkscape:pageshadow="2"
     inkscape:pageopacity="0.0"
     borderopacity="1.0"
     bordercolor="#666666"
     pagecolor="#ffffff"
     id="base"
     showgrid="false"
     showguides="true"
     inkscape:guide-bbox="true"
     inkscape:zoom="0.46987214"
     inkscape:cx="428.87479"
     inkscape:cy="426.1512"
     inkscape:window-x="6"
     inkscape:window-y="128"
     inkscape:current-layer="svg5496"
     inkscape:window-maximized="0">
    <sodipodi:guide
       orientation="horizontal"
       position="200"
       id="guide5596" />
  </sodipodi:namedview>
  <defs
     id="defs5498" />
  <path
     style="fill:#4d4d4d;fill-opacity:1;stroke:#f9f9f9;stroke-width:0.1;stroke-miterlimit:4;stroke-dasharray:none"
     d="m 140.34375,392.03125 c -19.09902,1.3864 -25.68009,91.85703 -6.1875,93.34375 36.472,1.73497 72.87625,4.44275 109.28125,7.21875 30.21071,2.17811 60.37544,5.00886 90.46875,8.375 -6.52812,3.60787 -13.07139,7.21132 -19.59375,10.8125 -29.62,16.651 -60.0715,31.83815 -89.1875,49.375 -21.888,14.92166 -35.5135,31.78604 -23.9375,66.0625 7.888,23.35767 29.51125,26.56265 48.15625,29.3125 17.476,3.15736 33.15675,11.93822 48.59375,20.28125 31.265,17.73252 60.52125,38.52438 84.78125,65.125 19.182,23.61821 17.46025,47.6129 7.03125,74.4375 -21.492,41.98225 -62.01175,60.9518 -104.96875,74.28125 -70.826,16.86151 -141.3045,2.56105 -209.5625,-17.875 C 62.47975,867.86912 49.739,862.97462 37,858.0625 19.376,851.31853 -12.40525,934.38104 5.21875,941.125 L 49.875,958.09375 c 87.04,25.72558 172.71375,41.27581 262.59375,18.53125 12.439,-4.11097 25.1765,-7.40909 37.3125,-12.34375 56.192,-22.84763 101.5285,-63.27767 126.6875,-118.71875 3.196,-10.21963 7.37275,-20.18143 9.59375,-30.65625 10.536,-49.70207 -4.39275,-97.28398 -36.34375,-135.75 -30.2942,-31.73776 -64.6777,-58.57629 -102.625,-80.625 3.80959,-2.10717 7.60714,-4.23516 11.375,-6.40625 34.06,-18.64098 68.57725,-36.70247 100.78125,-58.46875 34.29,-26.04739 54.4965,-57.61947 17.9375,-96.65625 -3.993,-4.26312 -10.15175,-5.81395 -15.21875,-8.71875 -23.944,-7.56962 -49.03275,-10.20506 -73.84375,-13.5625 -45.716,-5.19178 -91.508,-9.70002 -137.375,-13.34375 -36.495,-3.05764 -73.01675,-5.80595 -109.46875,-9.34375 -0.30941,-0.0236 -0.63434,-0.022 -0.9375,0 z"
     id="path3470"
     inkscape:connector-curvature="0"
     sodipodi:nodetypes="cccccccccccccccccccccccccccccc" />
</svg>
