<?xml version="1.0" encoding="UTF-8" standalone="no"?>
<!-- Created with Inkscape (http://www.inkscape.org/) -->

<svg
   xmlns:dc="http://purl.org/dc/elements/1.1/"
   xmlns:cc="http://creativecommons.org/ns#"
   xmlns:rdf="http://www.w3.org/1999/02/22-rdf-syntax-ns#"
   xmlns:svg="http://www.w3.org/2000/svg"
   xmlns="http://www.w3.org/2000/svg"
   xmlns:sodipodi="http://sodipodi.sourceforge.net/DTD/sodipodi-0.dtd"
   xmlns:inkscape="http://www.inkscape.org/namespaces/inkscape"
   version="1.0"
   width="1000"
   height="1000"
   id="svg5496"
   sodipodi:version="0.32"
   inkscape:version="0.48.0 r9654"
   sodipodi:docname="3.svg"
   inkscape:output_extension="org.inkscape.output.svg.inkscape">
  <metadata
     id="metadata5594">
    <rdf:RDF>
      <cc:Work
         rdf:about="">
        <dc:format>image/svg+xml</dc:format>
        <dc:type
           rdf:resource="http://purl.org/dc/dcmitype/StillImage" />
        <dc:title></dc:title>
      </cc:Work>
    </rdf:RDF>
  </metadata>
  <sodipodi:namedview
     inkscape:window-height="618"
     inkscape:window-width="691"
     inkscape:pageshadow="2"
     inkscape:pageopacity="0.0"
     borderopacity="1.0"
     bordercolor="#666666"
     pagecolor="#ffffff"
     id="base"
     showgrid="false"
     showguides="true"
     inkscape:guide-bbox="true"
     inkscape:zoom="0.46987214"
     inkscape:cx="447.27705"
     inkscape:cy="364.34105"
     inkscape:window-x="6"
     inkscape:window-y="128"
     inkscape:current-layer="svg5496"
     inkscape:window-maximized="0">
    <sodipodi:guide
       orientation="horizontal"
       position="200"
       id="guide5596" />
  </sodipodi:namedview>
  <defs
     id="defs5498" />
  <path
     style="fill:#4d4d4d;fill-opacity:1;stroke:#f9f9f9;stroke-width:0.1;stroke-miterlimit:4;stroke-dasharray:none"
     d="m 179.28125,431.8125 c -3.76597,-0.0149 -6.62411,1.01654 -8.125,3.375 -20.504,34.93807 -41.74975,69.43122 -62.96875,103.9375 -28.524999,46.00095 -57.231,91.88566 -85.875,137.8125 C 1.2525005,710.07627 -13.95925,748.35161 20.21875,781 c 7.132,6.81264 17.76525,8.5434 26.65625,12.8125 46.747,7.2007 94.5215,1.47398 141.4375,-1.8125 29.74911,-2.22634 59.49804,-4.53822 89.25,-6.6875 -4.79922,23.43242 -9.53086,46.90041 -14.125,70.375 -7.233,39.74141 -4,20.62438 -9.875,57.3125 -2.82,19.1536 87.4925,32.43486 90.3125,13.28125 4.552,-34.16789 1.91125,-16.1938 8.03125,-53.9375 5.6282,-31.05114 11.65229,-62.01129 17.90625,-92.9375 34.43897,-1.66059 68.96059,-2.5902 103.375,-0.0937 1.97,0.26123 3.93725,0.52003 5.90625,0.78125 0.124,0.1524 0.252,0.2851 0.375,0.4375 19.578,3.58883 36.5155,-88.69242 16.9375,-92.28125 -11.919,-1.65252 -5.81725,-1.02855 -18.40625,-1.875 -29.6514,-1.03084 -59.3085,-0.46323 -88.9375,0.90625 3.77995,-17.63563 7.57621,-35.28109 11.40625,-52.90625 9.843,-44.44011 18.5755,-89.6775 34.9375,-132.28125 8.154,-18.12143 -77.2835,-56.55893 -85.4375,-38.4375 -17.508,49.20626 -26.868,100.90545 -37.375,151.9375 -5.23321,25.84513 -10.5721,51.68254 -15.9375,77.5 -38.08269,2.70592 -76.15279,5.57063 -114.25,8.09375 -23.17521,1.3969 -46.38103,2.89223 -69.59375,3.5 23.63848,-39.48949 47.80144,-78.66226 72.5,-117.5 21.471,-33.99811 42.80925,-68.09297 64.90625,-101.6875 9.17211,-14.41284 -47.92327,-53.59654 -70.9375,-53.6875 z"
     id="path3474"
     inkscape:connector-curvature="0"
     sodipodi:nodetypes="scccscccccccccccccccccccccccs" />
</svg>
