<?xml version="1.0" encoding="UTF-8" standalone="no"?>
<!-- Created with Inkscape (http://www.inkscape.org/) -->

<svg
   xmlns:dc="http://purl.org/dc/elements/1.1/"
   xmlns:cc="http://creativecommons.org/ns#"
   xmlns:rdf="http://www.w3.org/1999/02/22-rdf-syntax-ns#"
   xmlns:svg="http://www.w3.org/2000/svg"
   xmlns="http://www.w3.org/2000/svg"
   xmlns:sodipodi="http://sodipodi.sourceforge.net/DTD/sodipodi-0.dtd"
   xmlns:inkscape="http://www.inkscape.org/namespaces/inkscape"
   version="1.0"
   width="1000"
   height="1000"
   id="svg5496"
   sodipodi:version="0.32"
   inkscape:version="0.48.0 r9654"
   sodipodi:docname="4.svg"
   inkscape:output_extension="org.inkscape.output.svg.inkscape">
  <metadata
     id="metadata5594">
    <rdf:RDF>
      <cc:Work
         rdf:about="">
        <dc:format>image/svg+xml</dc:format>
        <dc:type
           rdf:resource="http://purl.org/dc/dcmitype/StillImage" />
        <dc:title></dc:title>
      </cc:Work>
    </rdf:RDF>
  </metadata>
  <sodipodi:namedview
     inkscape:window-height="618"
     inkscape:window-width="691"
     inkscape:pageshadow="2"
     inkscape:pageopacity="0.0"
     borderopacity="1.0"
     bordercolor="#666666"
     pagecolor="#ffffff"
     id="base"
     showgrid="false"
     showguides="true"
     inkscape:guide-bbox="true"
     inkscape:zoom="0.33224977"
     inkscape:cx="405.46956"
     inkscape:cy="446.25129"
     inkscape:window-x="6"
     inkscape:window-y="128"
     inkscape:current-layer="svg5496"
     inkscape:window-maximized="0">
    <sodipodi:guide
       orientation="horizontal"
       position="200"
       id="guide5596" />
  </sodipodi:namedview>
  <defs
     id="defs5498" />
  <path
     style="fill:#4d4d4d;fill-opacity:1;stroke:#f9f9f9;stroke-width:0.1;stroke-miterlimit:4;stroke-dasharray:none"
     d="m 401.1875,390.34375 c -28.95307,0.0859 -57.88538,0.95215 -86.8125,2.28125 -43.459,2.58364 -86.8755,6.24094 -129.9375,12.8125 -10.80636,1.97262 -10.47174,31.06298 -4.71875,56.03125 -9.71792,25.0217 -18.76473,50.30052 -28.09375,75.46875 -7.286,20.27663 -14.72375,40.52885 -20.34375,61.34375 -14.843,36.02963 32.5155,70.78477 67.9375,59.59375 19.983,-3.53506 40.608,-0.22403 60.5,2.34375 46.211,6.05577 87.2225,24.66455 123.8125,52.90625 27.65,26.00759 47.83225,53.8017 40.28125,92.90625 -15.408,39.44092 -53.13525,60.37531 -89.53125,77.40625 -57.868,23.49947 -118.92175,20.65933 -179.34375,11.5 C 113.6985,887.49129 73.891,874.38583 34.25,861.125 c -18.285,-5.99581 -46.56525,80.19168 -28.28125,86.1875 44.657,14.36809 89.52075,28.55512 135.84375,36.625 79.682,11.50452 155.851,12.91355 231.625,-18.9375 69.621,-34.01176 121.64575,-70.8051 141.46875,-149.875 0.713,-11.11787 2.66825,-22.24611 2.15625,-33.375 -2.634,-57.23544 -37.64275,-104.78393 -78.96875,-141.3125 -9.13,-6.72614 -17.878,-13.96109 -27.375,-20.15625 -41.781,-27.25277 -89.80825,-42.76159 -138.65625,-51.15625 -10.70894,-1.50518 -21.53755,-2.99166 -32.375,-4.0625 9.45416,-26.06885 18.75561,-52.24033 30.15625,-77.53125 16.71826,-1.67938 33.46265,-2.97819 50.21875,-4.09375 47.752,-2.3974 95.662,-3.15537 143.375,0.28125 -0.439,-1.30882 22.662,2.83346 16,3.53125 18.404,7.44204 53.49775,-79.30796 35.09375,-86.75 -15.019,-4.90887 -29.80325,-8.62532 -45.78125,-8.8125 -22.50412,-1.02254 -45.04345,-1.41056 -67.5625,-1.34375 z"
     id="path3492"
     inkscape:connector-curvature="0"
     sodipodi:nodetypes="scccccccccccccccccccccccccccs" />
</svg>
