<?xml version="1.0" encoding="UTF-8" standalone="no"?>
<!-- Created with Inkscape (http://www.inkscape.org/) -->

<svg
   xmlns:dc="http://purl.org/dc/elements/1.1/"
   xmlns:cc="http://creativecommons.org/ns#"
   xmlns:rdf="http://www.w3.org/1999/02/22-rdf-syntax-ns#"
   xmlns:svg="http://www.w3.org/2000/svg"
   xmlns="http://www.w3.org/2000/svg"
   xmlns:sodipodi="http://sodipodi.sourceforge.net/DTD/sodipodi-0.dtd"
   xmlns:inkscape="http://www.inkscape.org/namespaces/inkscape"
   version="1.0"
   width="1000"
   height="1000"
   id="svg5496"
   sodipodi:version="0.32"
   inkscape:version="0.48.0 r9654"
   sodipodi:docname="8th.svg"
   inkscape:output_extension="org.inkscape.output.svg.inkscape">
  <metadata
     id="metadata5594">
    <rdf:RDF>
      <cc:Work
         rdf:about="">
        <dc:format>image/svg+xml</dc:format>
        <dc:type
           rdf:resource="http://purl.org/dc/dcmitype/StillImage" />
        <dc:title></dc:title>
      </cc:Work>
    </rdf:RDF>
  </metadata>
  <sodipodi:namedview
     inkscape:window-height="618"
     inkscape:window-width="641"
     inkscape:pageshadow="2"
     inkscape:pageopacity="0.0"
     borderopacity="1.0"
     bordercolor="#666666"
     pagecolor="#ffffff"
     id="base"
     showgrid="false"
     showguides="true"
     inkscape:guide-bbox="true"
     inkscape:zoom="0.454"
     inkscape:cx="500"
     inkscape:cy="500"
     inkscape:window-x="597"
     inkscape:window-y="65"
     inkscape:current-layer="svg5496"
     inkscape:window-maximized="0">
    <sodipodi:guide
       orientation="horizontal"
       position="200"
       id="guide5596" />
  </sodipodi:namedview>
  <defs
     id="defs5498" />
  <path
     style="fill:#4d4d4d;fill-opacity:1;stroke:#f9f9f9;stroke-width:0.1;stroke-miterlimit:4;stroke-dasharray:none"
     d="M 400.4375 136.125 C 392.70766 136.51186 381.71949 148.43153 372.40625 163.125 C 346.38193 152.39213 303.61437 147.19479 300.65625 160.3125 C 290.74325 212.36191 284.4725 264.99802 278.3125 317.59375 C 268.1535 402.97009 262.41275 488.72832 264.84375 574.6875 C 265.02607 581.12233 265.40402 587.52848 265.90625 593.90625 C 240.65625 578.22152 210.89703 571.66882 180.46875 568.09375 C 175.46901 567.68298 170.5121 567.47137 165.5625 567.40625 C 161.93994 554.77754 156.66545 545.78472 150.375 546.4375 C 113.807 551.15883 82.39675 567.87659 53.59375 590.03125 C 25.53875 616.39253 2.26925 650.74136 0.15625 690.46875 C -0.28875 698.83035 1.0915 707.17107 1.5625 715.53125 C 4.5225 724.06173 6.1225005 733.19323 10.4375 741.125 C 36.6435 789.29478 85.585251 792.7781 133.90625 789.1875 C 182.24025 781.89563 227.07575 763.007 267.59375 736.15625 C 282.63051 724.79782 295.51782 710.55735 303.09375 694.34375 C 330.17699 692.50195 376.48047 673.03415 371.90625 659.375 C 361.42525 631.12604 356.446 601.59838 354.75 571.5 C 351.23 490.29367 356.6495 409.23509 367.1875 328.65625 C 371.53879 295.60956 375.84518 262.4515 381.78125 229.625 C 427.22717 250.02483 475.01008 264.70544 522.75 278.78125 C 596.092 299.15686 670.3185 316.11185 744.4375 333.375 C 748.5719 334.33846 752.70965 335.28653 756.84375 336.25 C 757.05975 350.45549 757.13362 364.64943 757.15625 378.84375 C 755.35325 460.21153 752.51 541.53929 752.625 622.9375 C 752.84018 651.36517 753.35602 679.79541 753.875 708.21875 C 729.33593 692.58353 695.62272 697.27407 668.9375 703.28125 C 665.84223 695.697 661.90046 690.90799 657.28125 691.28125 C 648.79266 692.24163 640.6491 693.8938 632.8125 696.21875 C 627.38389 690.07773 622.08231 686.87148 617.84375 688.75 C 585.81375 704.50618 563.4065 731.09238 545.8125 761.375 C 528.4075 797.81227 530.0945 841.19402 566.8125 865.65625 C 573.9635 870.42056 582.62425 872.38581 590.53125 875.75 C 614.34302 880.40774 636.93557 877.7754 658.625 871.09375 C 677.55428 869.33784 696.59596 864.57984 715.375 858.59375 C 742.104 846.5806 778.3525 832.67363 791.1875 803.28125 C 794.8905 794.8023 795.92225 785.38366 798.28125 776.4375 C 797.6642 774.29114 797.13977 772.10852 796.65625 769.90625 C 820.59574 769.91099 845.83675 764.49591 845.59375 754.3125 C 844.23175 710.40777 842.7635 666.51808 842.1875 622.59375 C 841.6565 541.48237 844.42125 460.4582 847.28125 379.40625 C 847.90925 332.48169 848.091 285.54326 845 238.6875 C 843.32866 220.491 764.39643 226.23881 753 242.65625 C 684.47853 227.5287 616.00209 212.02648 548.5 192.78125 C 499.099 177.76684 449.16575 162.45576 403.96875 136.9375 C 402.88937 136.32929 401.71794 136.06092 400.4375 136.125 z "
     id="path4134" />
</svg>
