<?xml version="1.0" encoding="UTF-8" standalone="no"?>
<!-- Created with Inkscape (http://www.inkscape.org/) -->

<svg
   xmlns:dc="http://purl.org/dc/elements/1.1/"
   xmlns:cc="http://creativecommons.org/ns#"
   xmlns:rdf="http://www.w3.org/1999/02/22-rdf-syntax-ns#"
   xmlns:svg="http://www.w3.org/2000/svg"
   xmlns="http://www.w3.org/2000/svg"
   xmlns:sodipodi="http://sodipodi.sourceforge.net/DTD/sodipodi-0.dtd"
   xmlns:inkscape="http://www.inkscape.org/namespaces/inkscape"
   version="1.0"
   width="1000"
   height="1000"
   id="svg5496"
   sodipodi:version="0.32"
   inkscape:version="0.48.0 r9654"
   sodipodi:docname="8.svg"
   inkscape:output_extension="org.inkscape.output.svg.inkscape">
  <metadata
     id="metadata5594">
    <rdf:RDF>
      <cc:Work
         rdf:about="">
        <dc:format>image/svg+xml</dc:format>
        <dc:type
           rdf:resource="http://purl.org/dc/dcmitype/StillImage" />
        <dc:title></dc:title>
      </cc:Work>
    </rdf:RDF>
  </metadata>
  <sodipodi:namedview
     inkscape:window-height="618"
     inkscape:window-width="691"
     inkscape:pageshadow="2"
     inkscape:pageopacity="0.0"
     borderopacity="1.0"
     bordercolor="#666666"
     pagecolor="#ffffff"
     id="base"
     showgrid="false"
     showguides="true"
     inkscape:guide-bbox="true"
     inkscape:zoom="0.33224977"
     inkscape:cx="219.11433"
     inkscape:cy="429.12244"
     inkscape:window-x="6"
     inkscape:window-y="128"
     inkscape:current-layer="svg5496"
     inkscape:window-maximized="0">
    <sodipodi:guide
       orientation="horizontal"
       position="200"
       id="guide5596" />
  </sodipodi:namedview>
  <defs
     id="defs5498" />
  <path
     style="fill:#4d4d4d;fill-opacity:1;stroke:#f9f9f9;stroke-width:0.1;stroke-miterlimit:4;stroke-dasharray:none"
     id="path3584"
     d="m 313.45745,567.62578 c 0.613,-11.45136 -2.904,-21.2158 -9.499,-30.33447 -12.451,-15.02426 -29.521,-22.65608 -48.176,-26.65951 -37.357,-3.44033 -67.539,17.46038 -95.321,39.68971 -35.517,32.54611 -62.150997,72.59444 -69.805997,120.51147 -1.059,28.24546 16.362997,39.52753 39.877997,49.5689 38.147,12.74095 77.645,8.67445 115.889,-0.88421 22.885,-6.42521 42.48,-18.58884 60.724,-33.38447 15.429,-11.91013 71.574,60.82332 56.145,72.73344 l 0,0 c -29.205,21.88157 -59.949,40.44634 -95.776,49.54994 -59.201,13.52408 -119.422,17.24297 -177.102997,-5.633 -9.164,-4.72368 -18.833,-8.57404 -27.491,-14.17104 -47.379,-30.63015 -67.7609998,-80.37485 -61.8689998,-135.54998 2.28,-10.34657 3.794,-20.89201 6.84,-31.0397 C 24.781453,565.74443 61.810453,518.13628 104.44545,478.90454 c 54.403,-42.09305 103.208,-68.19624 174.035,-57.6112 41.488,11.29612 78.579,30.0783 103.974,66.15676 15.028,24.71548 24.957,50.81514 24.808,80.17568 0,19.8992 -93.805,19.8992 -93.805,0 z"
     inkscape:connector-curvature="0" />
  <path
     style="fill:#4d4d4d;fill-opacity:1;stroke:#f9f9f9;stroke-width:0.1;stroke-miterlimit:4;stroke-dasharray:none"
     id="path3590"
     d="m 393.55945,574.21038 c -9.065,42.80863 -14.445,86.35985 -20.908,129.62662 -10.079,61.6829 -17.327,123.68812 -19.245,186.16618 0.255,33.03362 -0.22,16.9673 1.317,48.20207 0.79,19.36885 -90.515,23.0965 -91.306,3.72764 l 0,0 c -1.208,-35.96186 -0.923,-17.57464 -0.763,-55.163 2.632,-65.7039 10.195,-130.93318 20.376,-195.89219 6.512,-46.58575 11.795,-93.3778 19.819,-139.72933 4.892,-19.24262 95.603,3.81939 90.71,23.06201 z"
     inkscape:connector-curvature="0" />
</svg>
