<?xml version="1.0" encoding="utf-8" ?>

<!DOCTYPE svg PUBLIC "-//W3C//DTD SVG 1.1//EN" 
  "http://www.w3.org/Graphics/SVG/1.1/DTD/svg11.dtd">
<svg 
	xmlns="http://www.w3.org/2000/svg"
	xmlns:xlink="http://www.w3.org/1999/xlink"
	width="1024" height="1024">
<path d="m 10445.682,5267.4838 c -3.603,36.0536 -4.064,72.3388 -4.724,108.5393 -0.678,42.7009 -0.677,85.4078 -0.817,128.1126 0.121,26.5718 -0.512,53.1593 0.139,79.7269 0.278,5.8771 0.144,6.7616 0.376,2.657 2.778,20.9553 -96.006,34.0515 -98.784,13.0963 l 0,0 c -0.869,-10.8403 -0.705,-5.803 -0.685,-15.1043 0.233,-27.0057 0.942,-54.0067 1.089,-81.0138 0.421,-43.0295 0.597,-86.0614 1.206,-129.0891 0.578,-38.7166 1.15,-77.4498 3.442,-116.1117 1.949,-20.9498 100.707,-11.763 98.758,9.1868 z" id="path5009" inkscape:connector-curvature="0" style="fill:#aa0000;fill-opacity:1;fill-rule:nonzero;stroke:#f9f9f9;stroke-width:0.1;stroke-miterlimit:4;stroke-dasharray:none" transform="translate(-10240, -5120)"/><path d="m 10418.492,5210.083 c 38.191,-4.1639 74.121,5.6694 108.388,21.6641 33.76,17.5945 58.973,43.4811 76.004,77.1838 16.281,46.1785 0.936,79.6485 -30.198,113.922 -21.886,21.2401 -47.712,37.4345 -75.749,49.1413 10.382,-4.4093 -14.266,5.5653 -10.779,3.9802 2.631,-1.196 8.144,-0.4408 8.006,-3.3274 -4.364,-90.816 -43.337,-96.5022 -4.344,-90.5031 24.585,3.6148 47.593,12.5417 69.663,23.6295 32.315,17.5041 53.324,44.5426 66.468,78.227 11.482,45.017 -3.303,76.6561 -34.376,108.6007 -30.912,26.9735 -69.086,40.8748 -108.221,50.8458 -31.985,7.5127 -64.712,8.4398 -97.293,5.6603 -3.856,-0.4995 -7.712,-0.9991 -11.568,-1.4986 -20.79,-2.9021 -7.109,-100.9045 13.68,-98.0024 l 0,0 c 2.398,0.3735 4.795,0.7469 7.193,1.1203 21.488,2.3422 43.131,2.1146 64.346,-2.5432 22.306,-5.3161 44.45,-12.308 63.057,-26.2268 3.263,-2.5277 6.774,-4.8234 9.773,-5.6109 -0.1,-10.1916 -10.797,-17.4457 -18.124,-22.7244 -12.176,-6.5101 -25.102,-11.2839 -38.857,-13.1462 -4.068,-0.5382 -11.098,2.3797 -12.209,-1.5703 -20.541,-73.0276 -46.741,-86.5809 -2.775,-99.157 15.071,-5.0875 28.443,-14.0804 40.39,-24.4688 6.05,-5.7834 6.743,-7.8865 12.073,-5.1887 -2.046,-13.7956 -19.148,-22.4838 -29.079,-29.8635 -15.846,-8.3207 -32.673,-13.7527 -50.827,-11.955 -20.829,3.1061 -35.471,-95.0826 -14.642,-98.1887 z" id="path5011" inkscape:connector-curvature="0" style="fill:#aa0000;fill-opacity:1;fill-rule:nonzero;stroke:#f9f9f9;stroke-width:0.1;stroke-miterlimit:4;stroke-dasharray:none" transform="translate(-10240, -5120)"/><path d="m 10651.93,5214.2343 c 29.981,7.443 60.415,12.8041 90.859,17.9349 34.185,4.9654 68.018,11.8094 101.669,19.5398 12.245,2.9681 6.46,1.4775 17.368,4.4228 20.205,5.954 -7.862,101.2033 -28.068,95.2493 l 0,0 c -7.1,-2.395 -2.947,-1.0826 -12.515,-3.7502 -31.169,-7.9535 -62.653,-14.465 -94.524,-18.9604 -32.279,-5.313 -64.477,-11.0498 -96.554,-17.4815 -20.567,-4.6172 1.198,-101.5719 21.765,-96.9547 z" id="path5013" inkscape:connector-curvature="0" style="fill:#aa0000;fill-opacity:1;fill-rule:nonzero;stroke:#f9f9f9;stroke-width:0.1;stroke-miterlimit:4;stroke-dasharray:none" transform="translate(-10240, -5120)"/><path d="m 10730.154,5282.6385 c -5.106,31.0724 -6.629,62.6131 -8.486,94.0077 -2.436,47.0894 -4.827,94.1789 -7.916,141.2309 -1.554,24.8069 -4.144,49.527 -6.305,74.2828 -2.067,20.8715 -100.456,11.1256 -98.389,-9.7459 l 0,0 c 2.613,-23.7615 5.557,-47.4909 7.269,-71.3431 3.454,-46.5269 5.968,-93.1094 7.954,-139.722 1.745,-35.0151 3.373,-70.0914 7.857,-104.888 3.431,-20.7924 101.448,-4.6149 98.016,16.1776 z" id="path5015" inkscape:connector-curvature="0" style="fill:#aa0000;fill-opacity:1;fill-rule:nonzero;stroke:#f9f9f9;stroke-width:0.1;stroke-miterlimit:4;stroke-dasharray:none" transform="translate(-10240, -5120)"/><path d="m 10696.887,5407.8151 c 33.44,-2.9166 66.977,-0.7666 100.323,2.1737 18.717,1.5825 37.26,4.3823 55.62,8.2928 20.458,4.6979 -1.689,101.1377 -22.147,96.4397 l 0,0 c -13.879,-3.6131 -28.114,-5.4497 -42.368,-6.913 -26.501,-2.4938 -53.29,-4.6517 -79.832,-1.4273 -20.909,2.4599 -32.505,-96.1061 -11.596,-98.5659 z" id="path5017" inkscape:connector-curvature="0" style="fill:#aa0000;fill-opacity:1;fill-rule:nonzero;stroke:#f9f9f9;stroke-width:0.1;stroke-miterlimit:4;stroke-dasharray:none" transform="translate(-10240, -5120)"/><path d="m 10683.986,5541.2979 c 32.165,7.4151 65.245,9.4805 98.096,11.4943 31.856,1.7327 63.761,1.8054 95.635,0.6919 11.287,-0.4938 5.944,-0.2397 16.029,-0.7501 21.026,-0.7541 24.58,98.3639 3.554,99.118 l 0,0 c -10.891,0.2417 -5.118,0.125 -17.318,0.3413 -34.616,0.4134 -69.239,-0.044 -103.814,-1.8992 -38.304,-2.3009 -76.693,-5.0153 -114.429,-12.3373 -20.504,-4.7193 1.743,-101.3782 22.247,-96.6589 z" id="path5021" inkscape:connector-curvature="0" style="fill:#aa0000;fill-opacity:1;fill-rule:nonzero;stroke:#f9f9f9;stroke-width:0.1;stroke-miterlimit:4;stroke-dasharray:none" transform="translate(-10240, -5120)"/><path d="m 11051.107,5226.0026 c -0.219,33.8802 -0.908,67.7448 -2.132,101.6033 -2.21,45.7606 -4.266,91.5134 -4.427,137.3323 2.546,21.7105 -2.671,47.1947 6.909,67.7315 3.24,-6.5541 -15.21,-13.2556 -5.031,-12.8673 20.635,0.6637 41.283,-0.5649 61.884,-1.6575 24.212,-1.4284 48.45,-1.6043 72.661,-0.2237 8.188,0.5916 16.323,1.6745 24.451,2.7965 20.849,3.1229 6.127,101.4064 -14.722,98.2835 l 0,0 c -5.359,-0.891 -10.724,-1.7624 -16.134,-2.2953 -20.294,-1.5388 -40.639,-1.2371 -60.953,-0.1 -25.403,1.3884 -50.881,3.0235 -76.323,1.7971 -36.235,-3.8972 -66.232,-18.9064 -79.876,-54.8861 -9.597,-32.3155 -10.96,-65.7635 -10.524,-99.3545 0.564,-46.5928 2.678,-93.1261 4.499,-139.6828 0.902,-32.519 1.567,-65.0674 0.427,-97.5907 -0.188,-21.0628 99.103,-21.9493 99.291,-0.8865 z" id="path5023" inkscape:connector-curvature="0" style="fill:#aa0000;fill-opacity:1;fill-rule:nonzero;stroke:#f9f9f9;stroke-width:0.1;stroke-miterlimit:4;stroke-dasharray:none" transform="translate(-10240, -5120)"/><path d="m 10691.658,5785.5171 c -14.69,-0.2436 -29.464,0.509 -43.775,3.9713 -4.992,0.8815 -7.37,3.7301 -10.642,7.1152 -6.016,6.5686 -10.456,14.366 -15.062,21.9382 -5.232,8.1189 -8.425,17.0581 -10.948,26.3035 -2.721,10.552 -3.993,21.3822 -5.173,32.1905 -1.108,12.1953 -3.035,24.2791 -5.481,36.2706 -2.724,13.182 -7.213,25.8904 -11.579,38.5926 -3.841,11.0701 -9.027,21.5897 -13.515,32.3958 -4.103,10.5717 -9.782,20.3466 -16.229,29.6336 -4.017,5.9495 -8.892,11.0039 -13.966,16.0393 -16.004,13.8829 -81.449,-61.5632 -65.445,-75.4462 l 0,0 c -8.748,9.1084 -3.379,3.6317 -1.586,1.3583 2.311,-3.1508 4.248,-6.4591 5.554,-10.2054 3.71,-8.7186 7.84,-17.2584 11.238,-26.105 2.983,-8.6572 6.154,-17.2911 8.142,-26.245 1.875,-9.0586 3.255,-18.2017 4.182,-27.4085 1.872,-16.1921 4.106,-32.3788 8.411,-48.136 5.152,-17.8137 11.719,-35.1328 21.665,-50.8942 9.347,-15.3023 19.027,-30.5502 32.141,-42.9763 16.547,-14.9702 35.05,-26.7536 57.254,-31.2898 21.048,-4.3251 42.385,-6.228 63.877,-6.4308 21.071,-0.1988 22.008,99.1295 0.937,99.3283 z" id="path5025" inkscape:connector-curvature="0" style="fill:#aa0000;fill-opacity:1;fill-rule:nonzero;stroke:#f9f9f9;stroke-width:0.1;stroke-miterlimit:4;stroke-dasharray:none" transform="translate(-10240, -5120)"/><path d="m 10681.237,5695.3084 c 19.845,0.4942 39.696,0.5126 59.541,1.0495 19.346,-0.2008 37.849,3.355 55.704,10.6495 18.91,8.7881 31.765,23.9881 41.288,42.0449 4.993,9.8956 7.973,20.577 11.498,31.0318 3.597,9.2038 6.868,18.4808 9.51,28.0064 4.227,15.8744 3.673,32.2609 2.807,48.4896 -0.619,10.4676 -1.273,20.9324 -1.809,31.4049 -0.471,11.6697 -2.011,23.2544 -3.499,34.8271 -1.044,7.421 -1.73,14.8699 -1.683,22.3646 -0.659,1.2869 1.735,10.7705 1.11,7.0437 1.437,2.587 3.32,5.2572 5.115,7.7565 1.074,2.9263 10.946,13.4982 3.354,5.4362 -6.628,-4.7328 -4.556,-3.485 1.575,-2.6314 5.888,0.7904 11.795,1.4267 17.699,2.0816 20.965,2.3126 10.063,101.141 -10.902,98.8284 l 0,0 c -7.368,-0.8083 -14.744,-1.5668 -22.084,-2.6117 -17.218,-2.7815 -34.162,-7.0868 -48.375,-17.7865 -8.332,-7.364 -15.906,-15.0885 -21.757,-24.6014 -6.711,-9.429 -12.834,-19.2897 -17.277,-30.0175 -5.039,-14.165 -8.162,-28.732 -7.95,-43.8583 0.1,-11.6366 0.864,-23.2375 2.575,-34.7574 1.179,-9.0553 2.412,-18.1208 2.831,-27.2506 0.563,-10.6016 1.104,-21.2038 1.854,-31.7943 0.335,-5.6527 0.982,-11.3995 0.352,-17.0456 -1.862,-7.6654 -5.432,-14.7712 -7.789,-22.2831 -1.969,-5.9031 -3.71,-11.8875 -5.991,-17.6812 0.51,0.3036 5.223,3.7413 7.544,4.0465 -4.471,-2.9282 -13.1,-2.1477 -18.87,-2.7198 -18.78,-0.7062 -37.578,-0.9616 -56.371,-0.6519 -21.08,0 -21.08,-99.3705 0,-99.3705 z" id="path5027" inkscape:connector-curvature="0" style="fill:#aa0000;fill-opacity:1;fill-rule:nonzero;stroke:#f9f9f9;stroke-width:0.1;stroke-miterlimit:4;stroke-dasharray:none" transform="translate(-10240, -5120)"/><path d="m 10530.13,5955.8378 c 33.216,5.65 66.893,7.8862 100.436,10.6737 39.069,3.1769 78.176,5.8277 117.116,10.3762 22.524,2.7198 44.935,6.2498 67.257,10.2892 4.334,0.8173 8.673,1.6099 13.015,2.3906 20.742,4.0342 1.725,101.8152 -19.018,97.781 l 0,0 c -4.296,-0.8949 -8.594,-1.7794 -12.879,-2.7244 -19.955,-4.1548 -40.045,-7.6152 -60.258,-10.2664 -37.584,-4.7973 -75.377,-7.4714 -113.134,-10.5202 -36.045,-2.8574 -72.136,-5.3743 -108.018,-9.9411 -20.801,-3.2844 -5.318,-101.3431 15.483,-98.0586 z" id="path5033" inkscape:connector-curvature="0" style="fill:#aa0000;fill-opacity:1;fill-rule:nonzero;stroke:#f9f9f9;stroke-width:0.1;stroke-miterlimit:4;stroke-dasharray:none" transform="translate(-10240, -5120)"/><path d="m 10717.441,6041.5906 c -0.259,18.7994 0.478,37.5911 2.523,56.2798 0.305,2.4961 0.609,4.9923 0.914,7.4884 2.389,20.8843 -96.06,32.147 -98.45,11.2627 l 0,0 c -0.317,-2.9453 -0.635,-5.8905 -0.953,-8.8358 -2.014,-21.3762 -2.809,-42.8074 -3.367,-64.2663 -0.409,-21.0717 98.923,-23.0005 99.333,-1.9288 z" id="path5045" inkscape:connector-curvature="0" style="fill:#aa0000;fill-opacity:1;fill-rule:nonzero;stroke:#f9f9f9;stroke-width:0.1;stroke-miterlimit:4;stroke-dasharray:none" transform="translate(-10240, -5120)"/></svg>