<?xml version="1.0" encoding="utf-8" ?>

<!DOCTYPE svg PUBLIC "-//W3C//DTD SVG 1.1//EN" 
  "http://www.w3.org/Graphics/SVG/1.1/DTD/svg11.dtd">
<svg 
	xmlns="http://www.w3.org/2000/svg"
	xmlns:xlink="http://www.w3.org/1999/xlink"
	width="1024" height="1024">
<path d="m 11368.509,5520.1752 c 19.513,-22.119 34.757,-47.4602 49.501,-72.8753 24.149,-43.9469 45.194,-89.5026 66.722,-134.7651 16.449,-34.1926 31.763,-68.9688 51.007,-101.714 19.412,-31.5597 51.408,-50.8355 89.006,-34.9412 7.486,3.1648 13.019,9.7333 19.529,14.6 27.105,32.5747 42.064,73.2029 57.494,112.18 20.404,52.9318 36.092,107.4819 50.948,162.1756 10.566,38.4384 19.773,77.2214 28.681,116.0703 -0.96,1.9342 11.455,38.7123 4.083,17.6966 9.261,19.0578 -80.578,62.7173 -89.839,43.6595 l 0,0 c -4.949,-13.0631 -7.769,-26.6167 -10.444,-40.3296 -7.787,-37.5215 -16.354,-74.8784 -26.245,-111.9069 -13.558,-51.0571 -28.059,-101.9626 -47.501,-151.1477 -10.495,-25.8005 -21.458,-51.8824 -35.036,-76.1097 15.783,7.7187 36.347,9.7028 48.533,-5.8002 0.242,-0.3081 -0.751,0.2227 -1.127,0.3341 -1.216,1.5216 -2.432,3.0432 -3.648,4.5648 -18.523,29.4429 -32.222,61.5588 -47.778,92.5956 -22.784,47.3725 -44.776,95.1725 -69.747,141.4508 -17.409,30.5734 -35.688,60.7156 -57.977,88.0474 -13.531,16.1562 -89.692,-47.6287 -76.162,-63.785 z" id="path5053" inkscape:connector-curvature="0" style="fill:#aa0000;fill-opacity:1;fill-rule:nonzero;stroke:#f9f9f9;stroke-width:0.1;stroke-miterlimit:4;stroke-dasharray:none" transform="translate(-11264, -5120)"/><path d="m 11483.513,5403.9425 c 37.722,3.1225 75.616,3.4709 113.435,4.6306 32.065,0.818 64.101,2.5727 95.91,6.7486 20.684,2.969 6.689,100.4761 -13.996,97.5072 l 0,0 c -28.064,-4.504 -56.495,-5.9069 -84.878,-6.8258 -39.437,-1.1896 -78.894,-1.602 -118.32,-3.1672 -20.978,-1.665 -13.13,-100.5583 7.849,-98.8934 z" id="path5055" inkscape:connector-curvature="0" style="fill:#aa0000;fill-opacity:1;fill-rule:nonzero;stroke:#f9f9f9;stroke-width:0.1;stroke-miterlimit:4;stroke-dasharray:none" transform="translate(-11264, -5120)"/><path d="m 11926.713,5367.7129 c -23.282,7.9317 -40.774,25.8318 -56.443,43.9936 -12.216,17.2768 -27.037,39.2919 -18.508,61.1425 8.523,12.8909 23.207,18.3869 37.326,22.8496 23.346,6.1172 47.329,4.1469 70.728,-0.3405 7.492,-1.4831 14.652,-3.9498 21.659,-6.9119 19.637,-7.4433 54.724,85.1244 35.088,92.5676 l 0,0 c -12.987,4.6747 -26.063,9.0236 -39.729,11.3321 -40.331,6.6595 -81.252,8.0873 -120.796,-4.25 -49.742,-18.7441 -85.142,-44.4023 -100.943,-97.6213 -1.184,-8.5309 -3.215,-16.9867 -3.551,-25.5927 -1.717,-44.0221 19.269,-84.0391 45.477,-117.8141 28.968,-32.3626 61.506,-61.641 103.715,-75.1992 20.332,-5.5104 46.308,90.3339 25.977,95.8443 z" id="path5057" inkscape:connector-curvature="0" style="fill:#aa0000;fill-opacity:1;fill-rule:nonzero;stroke:#f9f9f9;stroke-width:0.1;stroke-miterlimit:4;stroke-dasharray:none" transform="translate(-11264, -5120)"/><path d="m 12096.338,5255.1585 c -4.114,30.5896 -2.86,61.6203 -2.159,92.3863 0.955,43.9747 4.476,87.8207 9.099,131.5434 1.625,14.9354 3.605,29.8275 5.617,44.7146 2.573,20.7498 -95.243,32.8806 -97.816,12.1308 l 0,0 c -1.779,-15.6837 -3.566,-31.367 -5.115,-47.0756 -4.399,-46.1398 -7.925,-92.3695 -9.306,-138.7103 -1.1,-36.1912 -2.431,-72.5353 1.263,-108.6312 2.894,-20.8774 101.311,-7.2355 98.417,13.642 z" id="path5059" inkscape:connector-curvature="0" style="fill:#aa0000;fill-opacity:1;fill-rule:nonzero;stroke:#f9f9f9;stroke-width:0.1;stroke-miterlimit:4;stroke-dasharray:none" transform="translate(-11264, -5120)"/><path d="m 12260.041,5315.5361 c -25.535,24.1752 -51.279,48.128 -77.071,72.0285 -24.412,22.9174 -49.109,45.5572 -72.817,69.2095 -14.566,16.4243 -0.08,3.5085 0.852,-7.1516 2.047,-23.3961 -1.04,-22.6918 -12.169,-39.7532 -0.985,-0.8813 -4.206,-2.2127 -2.956,-2.6439 0.549,-0.1896 35.602,20.976 38.573,22.7749 23.599,13.9838 46.861,28.5075 69.572,43.8905 22.064,14.6276 41.835,32.1628 60.149,51.1899 14.446,15.2288 -57.344,83.3244 -71.789,68.0956 l 0,0 c -13.168,-14.1773 -27.602,-27.0644 -43.746,-37.8159 -21.077,-14.391 -42.791,-27.7923 -64.862,-40.6049 -16.884,-9.9694 -34.278,-19.1046 -50.563,-30.0058 -5.372,-6.9428 -12.826,-12.6895 -16.115,-20.8283 -12.594,-31.1689 2.535,-57.1922 24.174,-77.8841 24.78,-23.6252 50.315,-46.4481 75.215,-69.9468 24.829,-23.1826 49.713,-46.3497 73.321,-70.7866 14.899,-14.8985 85.131,55.3337 70.232,70.2322 z" id="path5063" inkscape:connector-curvature="0" style="fill:#aa0000;fill-opacity:1;fill-rule:nonzero;stroke:#f9f9f9;stroke-width:0.1;stroke-miterlimit:4;stroke-dasharray:none" transform="translate(-11264, -5120)"/><path d="m 11670.98,5879.3092 c 4.791,23.4309 18.819,42.5967 35.018,59.5035 18.831,17.0581 41.384,29.2088 64.969,38.2973 2.302,0.6358 4.559,1.4665 6.906,1.9073 8.275,1.5541 -0.564,-2.1315 -0.331,-2.5529 0.676,-1.2203 1.996,-1.9493 2.994,-2.9239 34.76,-35.7291 63.79,-76.6962 93.928,-116.2872 61.851,-82.4704 127.56,-161.8858 195.438,-239.4339 10.042,-11.1391 20.083,-22.2781 30.125,-33.4172 13.589,-14.9128 83.889,49.1486 70.299,64.0614 l 0,0 c -9.816,10.6521 -19.631,21.3041 -29.447,31.9562 -66.793,75.1382 -131.017,152.533 -190.005,234.009 -35.01,47.5942 -68.081,97.8781 -111.528,138.3084 -34.759,24.3523 -65.071,31.625 -105.545,15.68 -36.593,-15.3934 -71.419,-35.049 -99.809,-63.2507 -28.595,-31.7275 -52.116,-67.1448 -60.911,-109.6756 -3.433,-20.7676 94.467,-36.9494 97.899,-16.1817 z" id="path5069" inkscape:connector-curvature="0" style="fill:#aa0000;fill-opacity:1;fill-rule:nonzero;stroke:#f9f9f9;stroke-width:0.1;stroke-miterlimit:4;stroke-dasharray:none" transform="translate(-11264, -5120)"/></svg>