<?xml version="1.0" encoding="utf-8" ?>

<!DOCTYPE svg PUBLIC "-//W3C//DTD SVG 1.1//EN" 
  "http://www.w3.org/Graphics/SVG/1.1/DTD/svg11.dtd">
<svg 
	xmlns="http://www.w3.org/2000/svg"
	xmlns:xlink="http://www.w3.org/1999/xlink"
	width="1024" height="1024">
<path d="m 2812.509,5859.4329 c -34.154,31.537 -57.0754,71.1882 -76.3038,112.9557 -22.9935,59.8955 -29.7517,124.8341 -14.6719,187.6533 3.2837,13.6792 8.4702,26.8304 12.7053,40.2456 30.4369,72.7307 86.9936,124.8217 161.157,151.5639 17.2991,6.2378 35.4042,9.961 53.1063,14.9416 107.5017,20.2171 217.1868,7.3871 321.1502,-24.5631 21.3077,-6.5483 42.057,-14.7919 63.0855,-22.1879 85.4771,-35.6811 171.1841,-81.3389 228.1098,-156.938 8.5438,-11.3465 15.2688,-23.9547 22.9032,-35.9321 24.0992,-48.4809 34.9687,-103.4403 8.8326,-153.5626 -4.3198,-8.2844 -10.1648,-15.6794 -15.2473,-23.5191 -44.7892,-54.4502 -109.6888,-79.9551 -175.4322,-99.1989 -19.4214,-5.795 7.8963,-97.348 27.3176,-91.5531 l 0,0 c 88.7117,26.8862 173.3846,64.4853 230.2212,141.275 20.4165,35.4384 29.2924,44.6106 38.2787,85.2356 14.9529,67.5994 -2.9302,133.8494 -35.0973,193.4384 -10.5263,15.5078 -19.9435,31.8295 -31.579,46.5235 -68.5628,86.5858 -167.3969,140.6069 -268.0009,181.3133 -23.3553,8.0506 -46.4111,17.029 -70.0659,24.1517 -120.1291,36.1722 -246.5,49.4829 -370.2538,24.986 -56.1349,-16.4761 -76.2399,-18.6229 -126.8709,-48.0314 -71.1383,-41.3199 -121.8162,-104.4746 -152.0845,-180.2961 -5.2797,-17.7204 -11.7845,-35.121 -15.8389,-53.1611 -18.2968,-81.4108 -8.8353,-165.2732 21.133,-242.544 23.8162,-51.6364 51.8679,-100.6465 91.901,-141.6583 14.6078,-15.177 86.1529,53.6851 71.545,68.8621 z" id="path4753" inkscape:connector-curvature="0" style="fill:#aa0000;fill-opacity:1;fill-rule:nonzero;stroke:#f9f9f9;stroke-width:0.1;stroke-miterlimit:4;stroke-dasharray:none" transform="translate(-2048, -5120)"/><path d="m 3002.6676,6055.3478 c -33.3589,-3.9817 -62.505,14.9258 -89.4125,31.9266 -64.4847,48.378 -114.4997,114.0699 -149.347,186.5554 -8.8916,18.4953 -15.8254,37.8695 -23.7382,56.8043 -23.3418,71.8852 -36.5315,149.5516 -13.2362,223.4758 12.8841,40.8857 21.4037,46.6744 46.2056,80.0767 11.6497,9.9141 22.3297,21.096 34.949,29.7423 62.4747,42.8053 142.221,55.9634 216.4339,56.228 21.9108,0.078 43.7643,-2.2428 65.6465,-3.3642 96.8067,-13.3743 198.9561,-37.6529 275.129,-103.0869 10.9888,-9.4396 20.0796,-20.8865 30.1194,-31.3297 6.6446,-10.8166 14.5941,-20.9329 19.9337,-32.4497 21.3357,-46.0189 13.3808,-98.4346 -6.6303,-143.2849 -6.3311,-14.1895 -14.7404,-27.3573 -22.1106,-41.036 -52.3393,-78.2555 -125.3241,-140.5824 -211.1373,-179.6867 -17.4747,-7.9631 -35.8201,-13.8576 -53.7301,-20.7864 -68.9985,-23.766 -140.3653,-26.335 -212.3633,-23.3446 -19.9146,0.6863 -23.1499,-93.192 -3.2353,-93.8783 l 0,0 c 19.7398,-0.5614 39.4755,-2.0695 59.2196,-1.6843 64.8523,1.2651 128.8363,12.0772 190.4703,32.339 21.1374,8.4485 42.7947,15.6976 63.4123,25.3454 102.3784,47.9073 188.8707,123.4054 250.5295,217.9225 23.4457,45.3421 36.1895,62.2884 46.6869,112.6 11.9251,57.1544 5.535,115.7348 -21.9986,167.5946 -8.9575,16.8715 -21.6755,31.4598 -32.5132,47.1898 -14.273,13.7579 -27.417,28.7926 -42.8189,41.2738 -91.6031,74.2318 -210.1507,103.7316 -324.5288,118.3577 -25.3165,1.1522 -50.6081,3.7136 -75.9495,3.4564 -94.987,-0.9638 -195.3699,-20.6734 -273.1357,-78.5567 -17.9447,-13.3569 -32.79,-30.4383 -49.185,-45.6574 -33.6027,-49.8051 -44.7355,-57.709 -61.1872,-116.6074 -25.7483,-92.1812 -10.1833,-187.8342 19.5985,-276.7312 9.2337,-21.8862 17.3779,-44.2646 27.7012,-65.6584 41.9547,-86.9462 102.0969,-165.2622 179.549,-223.234 48.3893,-30.3921 95.669,-55.1193 154.5902,-48.8577 20.8624,2.9522 6.9455,101.2984 -13.9169,98.3462 z" id="path4759" inkscape:connector-curvature="0" style="fill:#aa0000;fill-opacity:1;fill-rule:nonzero;stroke:#f9f9f9;stroke-width:0.1;stroke-miterlimit:4;stroke-dasharray:none" transform="translate(-2048, -5120)"/></svg>