<?xml version="1.0" encoding="utf-8" ?>

<!DOCTYPE svg PUBLIC "-//W3C//DTD SVG 1.1//EN" 
  "http://www.w3.org/Graphics/SVG/1.1/DTD/svg11.dtd">
<svg 
	xmlns="http://www.w3.org/2000/svg"
	xmlns:xlink="http://www.w3.org/1999/xlink"
	width="1024" height="1024">
<path d="m 5692.8436,5332.952 c 48.0068,-11.5148 95.6776,-4.6115 142.6758,7.5503 62.5619,21.1554 119.0881,57.6188 164.0349,106.1361 9.3803,10.1254 17.6188,21.2516 26.4281,31.8774 37.9494,54.1275 64.0215,119.9396 43.0064,186.278 -4.1554,13.1173 -11.4242,25.0361 -17.1362,37.5542 -57.4114,82.9542 -144.1675,108.1504 -238.4957,125.9327 -95.5073,14.2816 -190.6249,1.2558 -283.6147,-21.1018 -49.6527,-13.8809 -99.9555,-28.6286 -144.0031,-56.0771 -47.3499,-37.6573 -39.8448,-88.8814 17.4201,-110.1276 25.1026,-6.8547 48.4071,-3.6833 71.4461,7.6161 18.0756,10.9358 -33.4765,96.1447 -51.552,85.2089 l 0,0 c 4.183,1.6204 18.0373,7.283 11.5819,2.9645 -0.6687,-0.4473 -1.8276,-0.1172 -2.404,-0.7787 24.5165,-14.2398 30.4498,-49.8105 8.186,-67.0568 31.835,24.8899 75.3384,31.7374 112.2686,45.3358 79.6021,20.2471 161.1636,32.4685 243.2898,20.6577 61.5106,-11.276 126.8378,-25.8983 169.2841,-75.7067 3.0487,-5.0699 6.7273,-9.8108 9.1461,-15.2098 16.2544,-36.2823 -3.1996,-74.519 -22.8473,-104.8271 -37.418,-46.9757 -82.656,-85.873 -140.6674,-104.9054 -30.3759,-8.1523 -61.5012,-13.6487 -92.5766,-5.3802 -20.352,5.4032 -45.8229,-90.5373 -25.4709,-95.9405 z" id="path4769" inkscape:connector-curvature="0" style="fill:#aa0000;fill-opacity:1;fill-rule:nonzero;stroke:#f9f9f9;stroke-width:0.1;stroke-miterlimit:4;stroke-dasharray:none" transform="translate(-5120, -5120)"/><path d="m 5501.8945,5760.0561 c -27.2345,21.3863 -49.3474,48.803 -71.8996,74.8814 -40.3956,47.3044 -79.1493,95.9769 -116.4016,145.7867 -10.6453,15.1904 -22.1826,29.9379 -31.1593,46.237 -5.6848,10.3218 -3.6761,7.4478 -1.0974,4.2887 -5.9691,20.1907 -101.149,-7.9479 -95.1799,-28.1386 l 0,0 c 11.3445,-30.105 30.6338,-55.5056 50.1589,-80.8914 38.9763,-50.8871 79.021,-100.9488 120.1386,-150.1248 29.8238,-35.2954 59.0459,-72.7557 97.5192,-99.0796 18.464,-10.1656 66.3852,76.8749 47.9211,87.0406 z" id="path4771" inkscape:connector-curvature="0" style="fill:#aa0000;fill-opacity:1;fill-rule:nonzero;stroke:#f9f9f9;stroke-width:0.1;stroke-miterlimit:4;stroke-dasharray:none" transform="translate(-5120, -5120)"/><path d="m 5537.84,5613.5544 c 23.4625,-34.6668 55.0851,-62.2378 87.634,-88.0326 36.2716,-27.766 76.6969,-49.0213 118.9014,-66.121 19.3963,-7.6266 55.3482,83.8081 35.952,91.4346 l 0,0 c -33.6317,12.6946 -65.6259,29.3346 -94.3381,51.1302 -23.5325,18.6036 -47.0523,38.232 -63.5564,63.646 -11.043,17.9449 -95.6359,-34.1123 -84.5929,-52.0572 z" id="path4773" inkscape:connector-curvature="0" style="fill:#aa0000;fill-opacity:1;fill-rule:nonzero;stroke:#f9f9f9;stroke-width:0.1;stroke-miterlimit:4;stroke-dasharray:none" transform="translate(-5120, -5120)"/><path d="m 5783.2716,5557.7599 c 13.924,36.9083 32.238,71.8165 52.1891,105.7605 35.9875,57.8373 81.2307,109.083 125.874,160.2651 43.6156,50.2014 89.4731,98.3443 138.1628,143.6328 13.6681,12.5031 27.8479,24.3945 42.3607,35.8938 16.1183,13.2178 -46.1909,89.2001 -62.3091,75.9823 l 0,0 c -15.8809,-13.3986 -31.5137,-27.0753 -46.6198,-41.3515 -50.2655,-48.095 -97.97,-98.7131 -143.6418,-151.1975 -48.6133,-55.5292 -97.8244,-111.1179 -137.1937,-173.7983 -22.6225,-37.8741 -43.235,-76.7981 -60.5409,-117.4207 -8.0115,-19.4565 83.7072,-57.223 91.7187,-37.7665 z" id="path4775" inkscape:connector-curvature="0" style="fill:#aa0000;fill-opacity:1;fill-rule:nonzero;stroke:#f9f9f9;stroke-width:0.1;stroke-miterlimit:4;stroke-dasharray:none" transform="translate(-5120, -5120)"/></svg>