<?xml version="1.0" encoding="utf-8" ?>

<!DOCTYPE svg PUBLIC "-//W3C//DTD SVG 1.1//EN" 
  "http://www.w3.org/Graphics/SVG/1.1/DTD/svg11.dtd">
<svg 
	xmlns="http://www.w3.org/2000/svg"
	xmlns:xlink="http://www.w3.org/1999/xlink"
	width="1024" height="1024">
<path d="m 8320.2094,5767.6927 c -44.8411,1.13 -88.8479,12.124 -132.3633,22.111 -34.55,7.91 -68.6048,17.72 -102.6429,27.544 -19.5508,5.649 -46.1792,-86.515 -26.6283,-92.163 l 0,0 c 35.6111,-10.299 71.2419,-20.559 107.3183,-29.139 51.2762,-12.231 102.9696,-25.076 155.8419,-27.523 21.0371,0.324 19.5114,99.494 -1.5257,99.17 z" id="path4833" inkscape:connector-curvature="0" style="fill:#aa0000;fill-opacity:1;fill-rule:nonzero;stroke:#f9f9f9;stroke-width:0.1;stroke-miterlimit:4;stroke-dasharray:none" transform="translate(-8192, -5120)"/><path d="m 8604.0521,5354.5943 c -19.3868,8.5093 -37.4056,19.6483 -54.8445,31.5657 -9.0685,6.929 -19.0429,12.9515 -27.1582,21.0666 -0.6343,0.6344 -2.5065,2.4895 -1.7086,2.0795 1.1762,-0.6042 1.9397,-1.7976 2.9095,-2.6964 10.4088,-14.7492 9.3398,-30.9833 1.727,-46.5477 -0.6933,-1.4176 -2.5718,-2.2851 -2.7507,-3.853 -0.023,-0.2051 1.9359,0.9851 9.5336,5.4458 26.7003,14.5847 53.1814,29.4917 78.6961,46.0753 29.6936,19.3486 53.8003,43.9846 70.9308,74.9033 16.1963,37.5673 10.119,67.7022 -12.6781,100.3395 -18.46,22.6085 -43.3285,36.7814 -69.8553,47.7944 -19.3415,7.4537 -39.6022,11.9242 -59.9155,15.7492 -7.0449,1.2908 -14.1103,2.4664 -21.1888,3.5567 -3.9885,0.088 -7.9769,0.1766 -11.9654,0.2649 -21.1139,-1.8702 -12.298,-101.4021 8.8159,-99.5319 l 0,0 c -3.5174,0.13 -7.0348,0.26 -10.5522,0.39 5.8272,-0.6955 11.6423,-1.4927 17.4378,-2.4169 13.6213,-2.2642 27.2287,-4.9332 40.2435,-9.6643 10.0709,-3.8778 19.9206,-8.3933 27.9427,-15.8069 0.2882,0.2783 3.147,8.5864 3.7626,4.4501 -5.4457,-16.8859 -23.851,-27.2339 -36.6974,-37.7876 -23.97,-15.7564 -49.2176,-29.3126 -74.5177,-42.7971 -38.7158,-22.2372 -64.2275,-49.2686 -41.0679,-96.6893 14.6176,-18.7076 32.9842,-32.95 52.7597,-46.0136 22.0622,-14.8236 44.8282,-28.5386 68.7526,-40.1784 19.156,-8.7798 60.5445,81.5223 41.3885,90.3021 z" id="path5071" inkscape:connector-curvature="0" style="fill:#aa0000;fill-opacity:1;fill-rule:nonzero;stroke:#f9f9f9;stroke-width:0.1;stroke-miterlimit:4;stroke-dasharray:none" transform="translate(-8192, -5120)"/><path d="m 8670.9355,5586.7697 c 30.4332,-1.2781 60.876,-2.2409 91.3329,-2.685 21.2711,0.066 42.6063,-0.624 63.8322,1.0753 3.0198,0.5585 6.0396,1.117 9.0593,1.6754 20.5027,5.2476 -4.2346,101.8984 -24.7374,96.6508 l 0,0 c 1.6546,0.209 3.3092,0.4181 4.9638,0.6271 -16.7669,-3.8623 -34.948,-0.075 -51.8943,-1.7722 -28.6173,0.2907 -57.2608,0.9995 -85.7851,3.4591 -21.0076,1.4364 -27.7789,-97.5941 -6.7714,-99.0305 z" id="path5073" inkscape:connector-curvature="0" style="fill:#aa0000;fill-opacity:1;fill-rule:nonzero;stroke:#f9f9f9;stroke-width:0.1;stroke-miterlimit:4;stroke-dasharray:none" transform="translate(-8192, -5120)"/><path d="m 8809.1011,5630.7874 c -11.0643,36.9033 -17.0948,75.0463 -22.6301,113.0929 -5.8668,39.168 -7.6849,78.7227 -5.8337,118.2473 -2.9815,0.9842 7.88,44.8246 2.9917,24.9078 9.2688,18.9556 -80.0887,62.6493 -89.3575,43.6937 l 0,0 c -8.2362,-20.9844 -11.5792,-42.4609 -11.7742,-65.0828 -1.2167,-45.378 1.0015,-90.7473 7.7646,-135.6839 6.1473,-42.7185 12.9644,-85.4004 23.6958,-127.2501 5.9556,-20.1829 101.099,7.8922 95.1434,28.0751 z" id="path5075" inkscape:connector-curvature="0" style="fill:#aa0000;fill-opacity:1;fill-rule:nonzero;stroke:#f9f9f9;stroke-width:0.1;stroke-miterlimit:4;stroke-dasharray:none" transform="translate(-8192, -5120)"/><path d="m 8919.2158,5815.1713 c 12.7377,27.3835 30.6521,51.4736 50.448,74.0725 19.6655,21.3876 42.0408,39.9721 65.0889,57.5601 1.8238,1.201 3.6476,2.402 5.4714,3.603 17.1858,12.0682 -39.7043,93.0832 -56.8901,81.015 l 0,0 c -3.1373,-2.2828 -6.2746,-4.5656 -9.4118,-6.8483 -27.5202,-21.991 -54.3578,-44.9695 -78.0551,-71.1268 -24.7615,-28.6111 -47.2111,-58.9358 -64.7468,-92.5964 -9.69,-18.6879 78.4055,-64.367 88.0955,-45.6791 z" id="path5077" inkscape:connector-curvature="0" style="fill:#aa0000;fill-opacity:1;fill-rule:nonzero;stroke:#f9f9f9;stroke-width:0.1;stroke-miterlimit:4;stroke-dasharray:none" transform="translate(-8192, -5120)"/><path d="m 9051.5239,5870.9325 c -20.1467,13.8377 -34.1882,34.4274 -47.9326,54.2032 -22.4763,33.4784 -40.6633,69.5087 -58.2543,105.7101 -10.8509,22.4916 -20.8532,45.3895 -29.7609,68.7185 -2.8454,7.7657 -1.511,4.0384 -4.0169,11.1771 -7.2075,19.7989 -100.5405,-14.1776 -93.333,-33.9765 l 0,0 c 3.2989,-8.8096 1.5585,-4.257 5.235,-13.6524 10.4133,-25.5408 21.9024,-50.6272 34.0701,-75.3793 20.0392,-40.418 40.6299,-80.679 65.6825,-118.2831 21.162,-30.6223 43.7188,-60.8638 74.7788,-82.2211 17.7562,-11.3557 71.2875,72.3478 53.5313,83.7035 z" id="path5079" inkscape:connector-curvature="0" style="fill:#aa0000;fill-opacity:1;fill-rule:nonzero;stroke:#f9f9f9;stroke-width:0.1;stroke-miterlimit:4;stroke-dasharray:none" transform="translate(-8192, -5120)"/></svg>