<?xml version="1.0" encoding="UTF-8" standalone="no"?>
<!-- Created with Inkscape (http://www.inkscape.org/) -->

<svg
   xmlns:dc="http://purl.org/dc/elements/1.1/"
   xmlns:cc="http://creativecommons.org/ns#"
   xmlns:rdf="http://www.w3.org/1999/02/22-rdf-syntax-ns#"
   xmlns:svg="http://www.w3.org/2000/svg"
   xmlns="http://www.w3.org/2000/svg"
   xmlns:sodipodi="http://sodipodi.sourceforge.net/DTD/sodipodi-0.dtd"
   xmlns:inkscape="http://www.inkscape.org/namespaces/inkscape"
   version="1.0"
   width="1000"
   height="1000"
   id="svg5496"
   sodipodi:version="0.32"
   inkscape:version="0.48.0 r9654"
   sodipodi:docname="l.svg"
   inkscape:output_extension="org.inkscape.output.svg.inkscape">
  <metadata
     id="metadata5594">
    <rdf:RDF>
      <cc:Work
         rdf:about="">
        <dc:format>image/svg+xml</dc:format>
        <dc:type
           rdf:resource="http://purl.org/dc/dcmitype/StillImage" />
        <dc:title></dc:title>
      </cc:Work>
    </rdf:RDF>
  </metadata>
  <sodipodi:namedview
     inkscape:window-height="618"
     inkscape:window-width="691"
     inkscape:pageshadow="2"
     inkscape:pageopacity="0.0"
     borderopacity="1.0"
     bordercolor="#666666"
     pagecolor="#ffffff"
     id="base"
     showgrid="false"
     showguides="true"
     inkscape:guide-bbox="true"
     inkscape:zoom="0.23493607"
     inkscape:cx="88.771185"
     inkscape:cy="442.48959"
     inkscape:window-x="92"
     inkscape:window-y="25"
     inkscape:current-layer="svg5496"
     inkscape:window-maximized="0">
    <sodipodi:guide
       orientation="horizontal"
       position="200"
       id="guide5596" />
  </sodipodi:namedview>
  <defs
     id="defs5498" />
  <path
     style="fill:#4d4d4d;fill-opacity:1;stroke:#f9f9f9;stroke-width:0.1;stroke-miterlimit:4;stroke-dasharray:none"
     id="path3380"
     d="m 295.59169,506.5334 c 11.101,-8.17739 20.019,-18.61674 24.805,-31.58733 1.968,-12.18782 -1.255,-4.2589 -5.125,-4.02901 -31.115,-10.30425 -61.559,1.234 -89.917,13.9498 -59.601,33.42643 -96.475,85.10193 -124.288,146.03026 -6.113999,19.07865 -26.703999,78.27939 8.304,83.6179 36.211,3.07758 68.754,-13.33284 99.238,-30.74017 27.17,-16.62233 49.644,-38.80616 70.758,-62.33007 13.073,-14.28267 80.402,47.34482 67.329,61.62749 l 0,0 c -28.115,30.25832 -57.909,58.80876 -93.725,80.01061 -48.839,26.91138 -104.656,52.47137 -162.121999,39.49521 -11.667,-2.63448 -22.43,-8.31382 -33.646,-12.47073 -9.409,-7.57245 -20.199,-13.69429 -28.227,-22.71733 -43.927,-49.36612 -30.0399998,-119.23059 -9.147,-174.82174 6.134,-12.68203 11.571,-25.72503 18.401,-38.0461 35.438,-63.93191 86.851999,-117.67321 151.128999,-152.75423 11.694,-4.95221 23.056,-10.77796 35.083,-14.85662 48.647,-16.498 100.969,-15.93703 146.138,9.61192 6.637,5.55022 14.082,10.25714 19.911,16.65064 25.541,28.01475 27.399,65.5979 14.857,99.63409 -12.474,26.4465 -29.115,49.7629 -52.39,67.90562 -15.736,12.16917 -73.102,-62.01104 -57.366,-74.18021 z"
     inkscape:connector-curvature="0" />
  <path
     style="fill:#4d4d4d;fill-opacity:1;stroke:#f9f9f9;stroke-width:0.1;stroke-miterlimit:4;stroke-dasharray:none"
     id="path3382"
     d="m 411.13269,489.06177 c -13.766,35.75285 -21.202,73.53103 -28.501,111.01451 -9.649,47.40685 -14.424,95.37937 -12.267,143.69474 0.708,15.4322 3.661,30.5173 7.068,45.52408 3.986,19.21433 -86.591,38.00619 -90.577,18.79186 l 0,0 c -3.909,-20.16778 -7.416,-40.40622 -8.065,-61.00703 -1.618,-55.18272 3.509,-109.97606 14.39,-164.14371 8.164,-43.25479 16.8,-86.57935 30.89,-128.37078 7.318,-18.46868 94.38,16.02766 87.062,34.49633 z"
     inkscape:connector-curvature="0" />
</svg>
