<?xml version="1.0" encoding="UTF-8" standalone="no"?>
<!-- Created with Inkscape (http://www.inkscape.org/) -->

<svg
   xmlns:dc="http://purl.org/dc/elements/1.1/"
   xmlns:cc="http://creativecommons.org/ns#"
   xmlns:rdf="http://www.w3.org/1999/02/22-rdf-syntax-ns#"
   xmlns:svg="http://www.w3.org/2000/svg"
   xmlns="http://www.w3.org/2000/svg"
   xmlns:sodipodi="http://sodipodi.sourceforge.net/DTD/sodipodi-0.dtd"
   xmlns:inkscape="http://www.inkscape.org/namespaces/inkscape"
   version="1.0"
   width="1000"
   height="1000"
   id="svg5496"
   sodipodi:version="0.32"
   inkscape:version="0.48.0 r9654"
   sodipodi:docname="at.svg"
   inkscape:output_extension="org.inkscape.output.svg.inkscape">
  <metadata
     id="metadata5594">
    <rdf:RDF>
      <cc:Work
         rdf:about="">
        <dc:format>image/svg+xml</dc:format>
        <dc:type
           rdf:resource="http://purl.org/dc/dcmitype/StillImage" />
        <dc:title></dc:title>
      </cc:Work>
    </rdf:RDF>
  </metadata>
  <sodipodi:namedview
     inkscape:window-height="618"
     inkscape:window-width="691"
     inkscape:pageshadow="2"
     inkscape:pageopacity="0.0"
     borderopacity="1.0"
     bordercolor="#666666"
     pagecolor="#ffffff"
     id="base"
     showgrid="false"
     showguides="true"
     inkscape:guide-bbox="true"
     inkscape:zoom="0.33224977"
     inkscape:cx="219.11433"
     inkscape:cy="429.12244"
     inkscape:window-x="6"
     inkscape:window-y="128"
     inkscape:current-layer="svg5496"
     inkscape:window-maximized="0">
    <sodipodi:guide
       orientation="horizontal"
       position="200"
       id="guide5596" />
  </sodipodi:namedview>
  <defs
     id="defs5498" />
  <path
     style="fill:#4d4d4d;fill-opacity:1;stroke:#f9f9f9;stroke-width:0.1;stroke-miterlimit:4;stroke-dasharray:none"
     d="M 363.1875 184.21875 C 293.6015 188.53741 227.36875 211.75847 168.84375 249.4375 C 156.65475 257.28488 145.2385 266.26881 133.4375 274.6875 C 75.101499 321.73099 29.678 382.55101 10.375 455.78125 C 6.5009999 470.47699 4.73325 485.63005 1.90625 500.5625 C -5.35375 577.32035 8.5514999 654.84815 48.0625 721.75 C 55.9105 735.03777 65.5565 747.16743 74.3125 759.875 C 125.5305 821.84592 194.94525 861.79076 271.90625 883.1875 C 287.74825 887.59193 303.99225 890.43771 320.03125 894.0625 C 407.59125 909.22388 496.45625 901.65227 581.78125 877.90625 C 599.32925 873.02242 616.518 866.8714 633.875 861.34375 C 650.514 854.80894 667.14225 848.25357 683.78125 841.71875 C 701.17425 834.83528 668.73675 752.86652 651.34375 759.75 L 606.96875 777.4375 C 517.88275 806.22007 433.203 823.84482 339.375 807.3125 C 265.175 791.02148 198.643 767.68711 147.5 708.40625 C 140.91 699.30271 133.669 690.64731 127.75 681.09375 C 97.169999 631.73436 85.8645 573.85336 90.0625 516.4375 C 91.8745 505.58356 92.943 494.57798 95.5 483.875 C 108.691 428.65216 142.462 383.07407 185.75 347.40625 C 239.092 308.60322 296.8185 278.2082 364.0625 274.375 C 424.3215 273.39385 483.76 281.55249 537 311.875 C 583.205 341.78805 618.25025 376.65877 638.15625 429.125 C 649.95625 466.40353 656.367 504.3953 641.625 542 C 632.926 561.24142 622.2895 579.52503 606.1875 593.59375 C 596.1445 602.01456 585.35075 609.48303 573.71875 615.5625 C 564.59275 619.83652 555.185 624.06142 544.875 623.59375 C 536.474 622.85744 533.31118 617.09144 531.21875 609.90625 C 537.6585 600.98475 543.71451 591.73852 549.40625 582.1875 C 552.08125 576.69989 554.7625 571.20636 557.4375 565.71875 C 561.43118 557.19346 544.26646 543.7222 524.375 533.96875 C 524.58065 533.49803 524.80763 533.01466 525.09375 532.53125 C 530.75575 521.32324 537.177 510.47763 544.375 500.1875 C 549.59019 492.36472 534.90815 476.62318 516.8125 463.9375 C 509.59342 445.37384 498.0619 428.55752 482.28125 414.90625 C 475.60825 409.13362 467.90875 404.67658 460.71875 399.5625 C 412.27175 374.54769 359.10125 378.59878 311.03125 402.90625 C 300.89625 408.03115 291.59 414.64942 281.875 420.53125 C 237.204 454.24767 200.8465 499.69845 187.8125 555.15625 C 185.4205 565.3365 184.78825 575.83907 183.28125 586.1875 C 182.28925 638.7936 203.63075 688.51594 252.84375 712.71875 C 262.10175 717.27147 272.3205 719.48133 282.0625 722.875 C 342.9775 735.12962 398.858 715.63848 451.25 685.96875 C 455.71775 683.2039 460.07245 680.3117 464.3125 677.3125 C 474.88606 689.56607 488.72436 699.48773 507.09375 708.59375 C 542.45675 721.71227 577.0205 714.99715 610.6875 700.96875 C 630.6875 691.78813 648.818 679.4015 665.75 665.46875 C 692.714 642.4312 710.464 612.2946 725.25 580.5625 C 749.623 517.53792 743.91875 465.90612 725.09375 402.59375 C 703.47675 345.50537 667.52025 295.132 618.78125 258 C 608.58125 250.22932 597.516 243.68596 586.875 236.53125 C 517.125 195.54458 442.7755 183.83388 363.1875 184.21875 z M 390.90625 473.46875 C 397.04062 473.42696 403.28278 474.33001 409.625 476.4375 C 421.634 482.76592 431.6145 491.70651 433.5625 505.84375 C 433.57643 508.58661 433.33671 511.27355 432.84375 513.90625 C 432.70453 514.5401 432.56561 515.17593 432.4375 515.8125 C 430.88847 522.26481 427.67938 528.16033 422.46875 532.8125 C 415.94101 537.66858 421.46057 553.1455 431.34375 568.90625 C 431.80288 574.13227 432.37695 579.35321 433 584.5625 C 424.66241 592.76721 415.52435 600.22754 405.46875 606.78125 C 375.92775 624.39457 344.15825 638.35646 308.90625 634.96875 C 287.11025 631.22812 275.3835 620.47409 274.1875 597.0625 C 276.9135 556.3115 297.953 522.86817 330 497.84375 C 348.49375 485.77793 368.99779 473.61799 390.90625 473.46875 z "
     id="path3788" />
</svg>
