<?xml version="1.0" encoding="UTF-8" standalone="no"?>
<!-- Created with Inkscape (http://www.inkscape.org/) -->

<svg
   xmlns:dc="http://purl.org/dc/elements/1.1/"
   xmlns:cc="http://creativecommons.org/ns#"
   xmlns:rdf="http://www.w3.org/1999/02/22-rdf-syntax-ns#"
   xmlns:svg="http://www.w3.org/2000/svg"
   xmlns="http://www.w3.org/2000/svg"
   xmlns:sodipodi="http://sodipodi.sourceforge.net/DTD/sodipodi-0.dtd"
   xmlns:inkscape="http://www.inkscape.org/namespaces/inkscape"
   version="1.0"
   width="1000"
   height="1000"
   id="svg5496"
   sodipodi:version="0.32"
   inkscape:version="0.48.0 r9654"
   sodipodi:docname="reverse_slash.svg"
   inkscape:output_extension="org.inkscape.output.svg.inkscape">
  <metadata
     id="metadata5594">
    <rdf:RDF>
      <cc:Work
         rdf:about="">
        <dc:format>image/svg+xml</dc:format>
        <dc:type
           rdf:resource="http://purl.org/dc/dcmitype/StillImage" />
        <dc:title></dc:title>
      </cc:Work>
    </rdf:RDF>
  </metadata>
  <sodipodi:namedview
     inkscape:window-height="618"
     inkscape:window-width="691"
     inkscape:pageshadow="2"
     inkscape:pageopacity="0.0"
     borderopacity="1.0"
     bordercolor="#666666"
     pagecolor="#ffffff"
     id="base"
     showgrid="false"
     showguides="true"
     inkscape:guide-bbox="true"
     inkscape:zoom="0.33224977"
     inkscape:cx="300.23671"
     inkscape:cy="469.28349"
     inkscape:window-x="92"
     inkscape:window-y="25"
     inkscape:current-layer="svg5496"
     inkscape:window-maximized="0">
    <sodipodi:guide
       orientation="horizontal"
       position="200"
       id="guide5596" />
  </sodipodi:namedview>
  <defs
     id="defs5498" />
  <path
     style="fill:#4d4d4d;fill-opacity:1;stroke:#f9f9f9;stroke-width:0.1;stroke-miterlimit:4;stroke-dasharray:none"
     id="path3974"
     d="m 58.934922,310.48939 c 21.216,15.43737 43.966998,28.54984 65.443998,43.62185 4.195,3.38944 8.39,6.77888 12.585,10.16832 15.174,12.55217 -43.996998,84.08299 -59.170998,71.53083 l 0,0 c -2.362,-2.03472 -4.724,-4.06943 -7.086,-6.10415 -21.911,-15.80108 -45.565,-28.91289 -67.8300001,-44.19798 C -13.037078,373.61655 43.020922,298.59768 58.934922,310.48939 z"
     inkscape:connector-curvature="0" />
  <path
     style="fill:#4d4d4d;fill-opacity:1;stroke:#f9f9f9;stroke-width:0.1;stroke-miterlimit:4;stroke-dasharray:none"
     id="path3980"
     d="m 81.791922,683.25789 c 22.585998,16.44454 45.420998,32.53399 67.834998,49.21483 15.731,11.71922 -39.514,85.87377 -55.244998,74.15455 l 0,0 c -21.762,-16.23153 -43.921,-31.92748 -66.633,-46.80878 -16.241,-11.46421 37.802,-88.02481 54.043,-76.5606 z"
     inkscape:connector-curvature="0" />
</svg>
