<?xml version="1.0" encoding="UTF-8" standalone="no"?>
<!-- Created with Inkscape (http://www.inkscape.org/) -->

<svg
   xmlns:dc="http://purl.org/dc/elements/1.1/"
   xmlns:cc="http://creativecommons.org/ns#"
   xmlns:rdf="http://www.w3.org/1999/02/22-rdf-syntax-ns#"
   xmlns:svg="http://www.w3.org/2000/svg"
   xmlns="http://www.w3.org/2000/svg"
   xmlns:sodipodi="http://sodipodi.sourceforge.net/DTD/sodipodi-0.dtd"
   xmlns:inkscape="http://www.inkscape.org/namespaces/inkscape"
   version="1.0"
   width="1000"
   height="1000"
   id="svg5496"
   sodipodi:version="0.32"
   inkscape:version="0.48.0 r9654"
   sodipodi:docname="cent.svg"
   inkscape:output_extension="org.inkscape.output.svg.inkscape">
  <metadata
     id="metadata5594">
    <rdf:RDF>
      <cc:Work
         rdf:about="">
        <dc:format>image/svg+xml</dc:format>
        <dc:type
           rdf:resource="http://purl.org/dc/dcmitype/StillImage" />
        <dc:title></dc:title>
      </cc:Work>
    </rdf:RDF>
  </metadata>
  <sodipodi:namedview
     inkscape:window-height="618"
     inkscape:window-width="641"
     inkscape:pageshadow="2"
     inkscape:pageopacity="0.0"
     borderopacity="1.0"
     bordercolor="#666666"
     pagecolor="#ffffff"
     id="base"
     showgrid="false"
     showguides="true"
     inkscape:guide-bbox="true"
     inkscape:zoom="0.454"
     inkscape:cx="529.83906"
     inkscape:cy="418.53965"
     inkscape:window-x="597"
     inkscape:window-y="65"
     inkscape:current-layer="svg5496"
     inkscape:window-maximized="0">
    <sodipodi:guide
       orientation="horizontal"
       position="200"
       id="guide5596" />
  </sodipodi:namedview>
  <defs
     id="defs5498" />
  <path
     style="fill:#4d4d4d;fill-opacity:1;stroke:#f9f9f9;stroke-width:0.1;stroke-miterlimit:4;stroke-dasharray:none"
     id="path4622"
     d="m 289.52012,481.50983 c -21.56,3.61764 -38.54,18.72889 -54.25,32.8298 -34.46,33.53257 -55.18,75.92354 -67.6,121.76991 -7.05,39.02543 -2.78,65.43885 29.54,89.4212 45.31,24.10456 96.44,16.78112 144.44,6.35229 56.34,-15.78446 106.84,-44.64686 145.44,-88.66703 22.8,-30.46435 17.97,-60.52844 5.35,-93.85219 -17.7,-39.40804 -47.98,-67.52467 -85.43,-87.65308 -35.72,-16.57658 -72.97,-15.19687 -110.32,-6.1903 -18.95,4.23167 -38.9,-85.09887 -19.95,-89.33054 l 0,0 c 61.44,-13.01442 117.46,-12.4224 175.05,15.96543 59.64,34.54961 98.55,72.92138 126.71,136.89618 3.46,10.24638 7.72,20.25496 10.36,30.73914 14.17,56.17206 1.09,109.93809 -34.84,154.93936 -7.86,8.29171 -15.21,17.09681 -23.58,24.87511 -47.75,44.38299 -108.14,72.54022 -170.22,90.32719 -80.55,16.59826 -150.72,21.42212 -222.77,-25.33862 -8.65,-7.97992 -18.27,-15.03389 -25.97,-23.93976 C 72.720116,725.82797 68.330116,666.88873 80.300116,611.25337 c 18.56,-63.06572 46.150004,-119.08881 93.940004,-165.44561 30.33,-26.87267 63.18,-51.08149 104.33,-57.37794 19.75,-2.32297 30.7,90.75704 10.95,93.08001 z"
     inkscape:connector-curvature="0" />
  <path
     style="fill:#4d4d4d;fill-opacity:1;stroke:#f9f9f9;stroke-width:0.1;stroke-miterlimit:4;stroke-dasharray:none"
     id="path4624"
     d="m 115.93012,308.37322 c 8.53,26.67584 25.94,49.79473 41.88,72.45046 16.91,23.73709 36.51,45.19971 57.12,65.71533 13.69,13.79303 -51.33,78.34473 -65.03,64.55171 l 0,0 c -23.92,-24.33203 -46.86,-49.58967 -66.770004,-77.39397 -24.44,-34.33809 -50.06,-69.61655 -59.85,-111.33971 -2.96,-19.65251 89.680004,-33.63634 92.650004,-13.98382 z"
     inkscape:connector-curvature="0" />
  <path
     style="fill:#4d4d4d;fill-opacity:1;stroke:#f9f9f9;stroke-width:0.1;stroke-miterlimit:4;stroke-dasharray:none"
     id="path4628"
     d="m 667.46012,347.99952 c -26.04,15.81064 -48.88,36.07506 -71.33,56.49309 -33.11,30.76846 -62.9,64.74231 -91.14,99.95396 -12.12,15.00871 -82.87,-42.12374 -70.75,-57.13245 l 0,0 c 31.26,-38.48328 63.98,-75.78677 99.9,-110.03978 26.1,-24.3633 52.8,-48.14837 82.49,-68.11234 16.73,-10.78256 67.56,68.05496 50.83,78.83752 z"
     inkscape:connector-curvature="0" />
  <path
     style="fill:#4d4d4d;fill-opacity:1;stroke:#f9f9f9;stroke-width:0.1;stroke-miterlimit:4;stroke-dasharray:none"
     id="path4630"
     d="m 164.34012,829.19173 c -22.57,28.34752 -46.63,55.46052 -70.680004,82.5525 -15.68,17.72656 -8.06,9.06906 -22.85,25.96617 -13,14.6637 -82.12,-46.60967 -69.1300001,-61.27337 l 0,0 c 15.1600001,-16.88703 7.41,-8.256 23.2500001,-25.89281 22.17,-24.81716 44.5,-49.64037 63.98,-76.66897 11.730004,-16.00145 87.160004,39.31503 75.430004,55.31648 z"
     inkscape:connector-curvature="0" />
  <path
     style="fill:#4d4d4d;fill-opacity:1;stroke:#f9f9f9;stroke-width:0.1;stroke-miterlimit:4;stroke-dasharray:none"
     id="path4632"
     d="m 455.22012,713.17592 c 22.65,27.01265 49.78,49.87482 75.8,73.51984 20.23,17.87201 39,37.22699 57.59,56.76651 13.31,14.06287 -52.98,76.80851 -66.29,62.74564 l 0,0 c -16.83,-17.88659 -33.9,-35.53471 -52.45,-51.68032 -30.01,-26.83827 -61,-52.84412 -87.85,-82.95033 -12.39,-15.52962 60.82,-73.93096 73.2,-58.40134 z"
     inkscape:connector-curvature="0" />
</svg>
