<?xml version="1.0" encoding="UTF-8" standalone="no"?>
<!-- Created with Inkscape (http://www.inkscape.org/) -->

<svg
   xmlns:dc="http://purl.org/dc/elements/1.1/"
   xmlns:cc="http://creativecommons.org/ns#"
   xmlns:rdf="http://www.w3.org/1999/02/22-rdf-syntax-ns#"
   xmlns:svg="http://www.w3.org/2000/svg"
   xmlns="http://www.w3.org/2000/svg"
   xmlns:sodipodi="http://sodipodi.sourceforge.net/DTD/sodipodi-0.dtd"
   xmlns:inkscape="http://www.inkscape.org/namespaces/inkscape"
   version="1.0"
   width="1000"
   height="1000"
   id="svg5496"
   sodipodi:version="0.32"
   inkscape:version="0.48.0 r9654"
   sodipodi:docname="y.svg"
   inkscape:output_extension="org.inkscape.output.svg.inkscape">
  <metadata
     id="metadata5594">
    <rdf:RDF>
      <cc:Work
         rdf:about="">
        <dc:format>image/svg+xml</dc:format>
        <dc:type
           rdf:resource="http://purl.org/dc/dcmitype/StillImage" />
        <dc:title></dc:title>
      </cc:Work>
    </rdf:RDF>
  </metadata>
  <sodipodi:namedview
     inkscape:window-height="618"
     inkscape:window-width="691"
     inkscape:pageshadow="2"
     inkscape:pageopacity="0.0"
     borderopacity="1.0"
     bordercolor="#666666"
     pagecolor="#ffffff"
     id="base"
     showgrid="false"
     showguides="true"
     inkscape:guide-bbox="true"
     inkscape:zoom="0.33224977"
     inkscape:cx="473.77867"
     inkscape:cy="492.95022"
     inkscape:window-x="92"
     inkscape:window-y="25"
     inkscape:current-layer="svg5496"
     inkscape:window-maximized="0">
    <sodipodi:guide
       orientation="horizontal"
       position="200"
       id="guide5596" />
  </sodipodi:namedview>
  <defs
     id="defs5498" />
  <path
     style="fill:#4d4d4d;fill-opacity:1;stroke:#f9f9f9;stroke-width:0.1;stroke-miterlimit:4;stroke-dasharray:none"
     id="path3426"
     d="m 322.28223,506.14574 c -5.155,-10.37449 -15.859,-13.97142 -26.195,-17.28136 -35.339,-8.37293 -68.67,4.93925 -99.917,20.34592 -52.678,31.93471 -81.828,66.86236 -102.214995,124.7271 -9.241,47.53468 -5.738,76.12276 34.240995,105.38219 40.802,23.2016 85.008,20.54125 128.23,6.84113 27.284,-13.34183 14.112,-5.75079 39.494,-22.81058 16.19,-10.43402 65.377,65.88897 49.186,76.32299 l 0,0 c -40.392,25.32387 -19.353,14.10765 -63.141,33.60078 -11.604,3.22903 -23.002,7.32226 -34.813,9.68709 -62.07,12.4281 -124.746,0.40663 -177.620995,-34.10914 -9.519,-8.55679 -20.103,-16.05951 -28.557,-25.67037 C -3.6667651,732.42693 -7.6367651,664.61591 9.3572349,602.07663 14.150235,589.87527 18.059235,577.28879 23.736235,565.47255 c 28.416,-59.15286 76.835995,-105.31703 132.976995,-137.97277 57.406,-27.32574 108.532,-43.14052 171.774,-25.25302 34.967,13.82331 65.181,33.39124 80.882,69.0642 7.389,18.47393 -79.698,53.30872 -87.087,34.83478 z"
     inkscape:connector-curvature="0" />
  <path
     style="fill:#4d4d4d;fill-opacity:1;stroke:#f9f9f9;stroke-width:0.1;stroke-miterlimit:4;stroke-dasharray:none"
     id="path3428"
     d="m 447.08923,229.84309 c -8.178,52.52218 -13.417,105.49453 -19.412,158.30535 -11.294,95.96647 -19.793,192.21331 -24.675,288.71488 -2.58,52.35592 -2.309,104.80866 3.532,156.91715 1.854,19.33247 -89.28,28.07506 -91.134,8.7426 l 0,0 c -4.672,-56.74149 -4.481,-113.67437 -1.066,-170.50957 5.745,-97.92279 14.62,-195.59696 24.625,-293.17233 5.252,-54.54231 9.836,-109.15476 15.684,-163.63543 3.105,-19.61084 95.551,-4.97349 92.446,14.63735 z"
     inkscape:connector-curvature="0" />
</svg>
