<?xml version="1.0" encoding="UTF-8" standalone="no"?>
<!-- Created with Inkscape (http://www.inkscape.org/) -->

<svg
   xmlns:dc="http://purl.org/dc/elements/1.1/"
   xmlns:cc="http://creativecommons.org/ns#"
   xmlns:rdf="http://www.w3.org/1999/02/22-rdf-syntax-ns#"
   xmlns:svg="http://www.w3.org/2000/svg"
   xmlns="http://www.w3.org/2000/svg"
   xmlns:sodipodi="http://sodipodi.sourceforge.net/DTD/sodipodi-0.dtd"
   xmlns:inkscape="http://www.inkscape.org/namespaces/inkscape"
   version="1.0"
   width="1000"
   height="1000"
   id="svg5496"
   sodipodi:version="0.32"
   inkscape:version="0.48.0 r9654"
   sodipodi:docname="double_quote.svg"
   inkscape:output_extension="org.inkscape.output.svg.inkscape">
  <metadata
     id="metadata5594">
    <rdf:RDF>
      <cc:Work
         rdf:about="">
        <dc:format>image/svg+xml</dc:format>
        <dc:type
           rdf:resource="http://purl.org/dc/dcmitype/StillImage" />
        <dc:title></dc:title>
      </cc:Work>
    </rdf:RDF>
  </metadata>
  <sodipodi:namedview
     inkscape:window-height="618"
     inkscape:window-width="691"
     inkscape:pageshadow="2"
     inkscape:pageopacity="0.0"
     borderopacity="1.0"
     bordercolor="#666666"
     pagecolor="#ffffff"
     id="base"
     showgrid="false"
     showguides="true"
     inkscape:guide-bbox="true"
     inkscape:zoom="0.33224977"
     inkscape:cx="219.11433"
     inkscape:cy="429.12244"
     inkscape:window-x="6"
     inkscape:window-y="128"
     inkscape:current-layer="svg5496"
     inkscape:window-maximized="0">
    <sodipodi:guide
       orientation="horizontal"
       position="200"
       id="guide5596" />
  </sodipodi:namedview>
  <defs
     id="defs5498" />
  <path
     style="fill:#4d4d4d;fill-opacity:1;stroke:#f9f9f9;stroke-width:0.1;stroke-miterlimit:4;stroke-dasharray:none"
     id="path3772"
     d="m 163.43738,258.75285 c -16.903,39.11007 -29.284,80.02517 -41.554,120.76907 -16.116,52.27014 -25.638995,105.91718 -24.655995,160.61811 0.716,18.74774 4.082995,37.19643 7.628995,55.56549 3.46,19.40691 -88.024995,35.71933 -91.484995,16.31242 l 0,0 C 9.4443848,588.35553 6.0403848,564.5654 5.6923848,540.5258 c 0.409,-63.50008 10.9170002,-125.83534 29.4530002,-186.62961 12.905,-44.49566 26.028,-89.00365 42.269,-132.42 7.908,-18.24824 93.930995,19.02841 86.022995,37.27666 z"
     inkscape:connector-curvature="0" />
  <path
     style="fill:#4d4d4d;fill-opacity:1;stroke:#f9f9f9;stroke-width:0.1;stroke-miterlimit:4;stroke-dasharray:none"
     id="path3774"
     d="m 87.244385,730.21812 c 6.48,17.2833 14.796995,33.78096 23.099995,50.23715 8.884,17.54796 -73.837995,59.42762 -82.721995,41.87966 l 0,0 C 18.167385,803.71741 8.8603848,785.02307 0.52938482,765.86782 -7.0336152,747.47269 79.682385,711.82299 87.244385,730.21812 z"
     inkscape:connector-curvature="0" />
</svg>
