<?xml version="1.0" encoding="UTF-8" standalone="no"?>
<!-- Created with Inkscape (http://www.inkscape.org/) -->

<svg
   xmlns:dc="http://purl.org/dc/elements/1.1/"
   xmlns:cc="http://creativecommons.org/ns#"
   xmlns:rdf="http://www.w3.org/1999/02/22-rdf-syntax-ns#"
   xmlns:svg="http://www.w3.org/2000/svg"
   xmlns="http://www.w3.org/2000/svg"
   xmlns:sodipodi="http://sodipodi.sourceforge.net/DTD/sodipodi-0.dtd"
   xmlns:inkscape="http://www.inkscape.org/namespaces/inkscape"
   version="1.0"
   width="1000"
   height="1000"
   id="svg5496"
   sodipodi:version="0.32"
   inkscape:version="0.48.0 r9654"
   sodipodi:docname="n.svg"
   inkscape:output_extension="org.inkscape.output.svg.inkscape">
  <metadata
     id="metadata5594">
    <rdf:RDF>
      <cc:Work
         rdf:about="">
        <dc:format>image/svg+xml</dc:format>
        <dc:type
           rdf:resource="http://purl.org/dc/dcmitype/StillImage" />
        <dc:title></dc:title>
      </cc:Work>
    </rdf:RDF>
  </metadata>
  <sodipodi:namedview
     inkscape:window-height="618"
     inkscape:window-width="641"
     inkscape:pageshadow="2"
     inkscape:pageopacity="0.0"
     borderopacity="1.0"
     bordercolor="#666666"
     pagecolor="#ffffff"
     id="base"
     showgrid="false"
     showguides="true"
     inkscape:guide-bbox="true"
     inkscape:zoom="0.454"
     inkscape:cx="500"
     inkscape:cy="591.63782"
     inkscape:window-x="92"
     inkscape:window-y="25"
     inkscape:current-layer="svg5496"
     inkscape:window-maximized="0">
    <sodipodi:guide
       orientation="horizontal"
       position="200"
       id="guide5596" />
  </sodipodi:namedview>
  <defs
     id="defs5498" />
  <path
     style="fill:#4d4d4d;fill-opacity:1;stroke:#f9f9f9;stroke-width:0.1;stroke-miterlimit:4;stroke-dasharray:none"
     d="M 603.96875 145.28125 C 556.92134 145.12315 514.87811 166.38352 482.34375 200.3125 C 473.63625 209.39324 466.3308 219.68028 458.3125 229.375 C 420.82785 283.86448 399.94809 345.36106 386.34375 408.875 C 383.801 408.81207 381.26166 408.74509 378.71875 408.6875 C 338.71719 407.72678 298.72101 407.31639 258.71875 406.46875 C 238.84472 406.46875 238.84472 500.15625 258.71875 500.15625 C 296.11625 498.86819 333.53144 499.13609 370.9375 499.8125 C 370.78344 500.93788 370.6211 502.06234 370.46875 503.1875 C 359.97472 603.45544 365.25405 704.34212 373.09375 804.5625 C 377.76725 857.89114 384.83655 910.963 393.28125 963.8125 C 396.63555 982.99023 487.0418 967.17773 483.6875 948 C 474.15 898.10223 466.69025 847.82671 461.78125 797.25 C 453.63385 703.43974 448.25342 608.94844 457.90625 515 C 458.4462 510.99302 458.99893 506.98131 459.5625 502.96875 C 474.81647 503.78345 490.07146 504.71796 505.3125 505.75 C 520.67183 506.96186 513.52737 506.35163 526.8125 507.59375 C 546.53373 509.03323 553.31498 416.06448 533.59375 414.625 C 519.17525 413.84241 526.86628 414.24832 510.46875 413.4375 C 499.07589 412.93279 487.67554 412.4123 476.28125 411.9375 C 487.12309 367.79105 502.91305 325.14678 528.5 286.65625 C 546.46833 264.17092 566.58247 239.78818 597.375 237.28125 C 613.12463 238.3535 627.69185 244.05532 640.28125 253.6875 C 656.06778 265.79763 713.1614 191.39138 697.375 179.28125 C 670.92007 159.71527 640.73298 149.90229 608.53125 145.34375 C 607.00329 145.29379 605.48641 145.28635 603.96875 145.28125 z "
     id="path3290" />
</svg>
