<?xml version="1.0" encoding="UTF-8" standalone="no"?>
<!-- Created with Inkscape (http://www.inkscape.org/) -->

<svg
   xmlns:dc="http://purl.org/dc/elements/1.1/"
   xmlns:cc="http://creativecommons.org/ns#"
   xmlns:rdf="http://www.w3.org/1999/02/22-rdf-syntax-ns#"
   xmlns:svg="http://www.w3.org/2000/svg"
   xmlns="http://www.w3.org/2000/svg"
   xmlns:sodipodi="http://sodipodi.sourceforge.net/DTD/sodipodi-0.dtd"
   xmlns:inkscape="http://www.inkscape.org/namespaces/inkscape"
   version="1.0"
   width="1000"
   height="1000"
   id="svg5496"
   sodipodi:version="0.32"
   inkscape:version="0.48.0 r9654"
   sodipodi:docname="less than or equal to.svg"
   inkscape:output_extension="org.inkscape.output.svg.inkscape">
  <metadata
     id="metadata5594">
    <rdf:RDF>
      <cc:Work
         rdf:about="">
        <dc:format>image/svg+xml</dc:format>
        <dc:type
           rdf:resource="http://purl.org/dc/dcmitype/StillImage" />
        <dc:title></dc:title>
      </cc:Work>
    </rdf:RDF>
  </metadata>
  <sodipodi:namedview
     inkscape:window-height="618"
     inkscape:window-width="641"
     inkscape:pageshadow="2"
     inkscape:pageopacity="0.0"
     borderopacity="1.0"
     bordercolor="#666666"
     pagecolor="#ffffff"
     id="base"
     showgrid="false"
     showguides="true"
     inkscape:guide-bbox="true"
     inkscape:zoom="0.454"
     inkscape:cx="434.5141"
     inkscape:cy="480.37808"
     inkscape:window-x="636"
     inkscape:window-y="103"
     inkscape:current-layer="svg5496"
     inkscape:window-maximized="0">
    <sodipodi:guide
       orientation="horizontal"
       position="200"
       id="guide5596" />
  </sodipodi:namedview>
  <defs
     id="defs5498" />
  <path
     style="fill:#4d4d4d;fill-opacity:1;stroke:#f9f9f9;stroke-width:0.1;stroke-miterlimit:4;stroke-dasharray:none"
     id="path5029"
     d="m 102.75058,249.95383 c 25.61,22.60372 52.29,43.97818 78.69,65.6534 36.71,29.94125 73.25,60.09251 108.06,92.24967 23.01,21.71748 44.12,45.42709 61.18,72.10928 20.33,35.69111 12.32,64.45087 -15.54,92.63862 -29.78,23.06866 -61.69,43.25004 -92.37,65.11084 -35.39,25.35922 -68.39,53.77108 -99.63,84.04487 -14.04,13.94502 -27.01,28.90101 -39.48,44.25471 -12.81,15.1942 -84.44,-45.19687 -71.63,-60.39106 l 0,0 c 15.2,-17.45032 30.87,-34.51103 47.59,-50.52656 34.78,-32.64456 71.13,-63.58469 109.73,-91.65444 27.1,-19.66712 54.76,-38.55815 81.58,-58.58843 -0.5,2.17247 -6.56,23.14785 0.8,26.03892 0.67,0.26227 -0.37,-1.38481 -0.56,-2.07722 -11.48,-20.33898 -28.09,-37.28225 -44.36,-53.79531 -32.95,-31.11133 -67.87,-59.98307 -103.16,-88.39087 -26.85,-21.64483 -53.85,-43.10321 -80.82,-64.58748 -15.29,-12.71054 44.62,-84.79949 59.92,-72.08894 z"
     inkscape:connector-curvature="0" />
  <path
     style="fill:#4d4d4d;fill-opacity:1;stroke:#f9f9f9;stroke-width:0.1;stroke-miterlimit:4;stroke-dasharray:none"
     id="path5035"
     d="m 386.57058,716.92041 c -35.46,19.90277 -70.44,40.66085 -105.5,61.25797 -49.31,29.06768 -98.43,58.45945 -147.23,88.39383 -14.03,12.57836 -50.51,26.08125 -61.78,40.8363 1.5,-1.33403 2.99,-2.66805 4.49,-4.00208 -11.93,15.95399 -87.14,-40.28 -75.2100004,-56.23398 l 0,0 c 3.1,-3.47709 6.2,-6.95417 9.3000004,-10.43126 23.4,-18.93635 50.52,-32.39548 75.93,-48.35312 49.36,-29.40931 98.78,-58.72121 148,-88.36324 35.05,-21.11243 70.13,-42.18084 104.77,-63.94914 17.15,-10.01817 64.38,70.82654 47.23,80.84472 z"
     inkscape:connector-curvature="0" />
</svg>
