<?xml version="1.0" encoding="UTF-8" standalone="no"?>
<!-- Created with Inkscape (http://www.inkscape.org/) -->

<svg
   xmlns:dc="http://purl.org/dc/elements/1.1/"
   xmlns:cc="http://creativecommons.org/ns#"
   xmlns:rdf="http://www.w3.org/1999/02/22-rdf-syntax-ns#"
   xmlns:svg="http://www.w3.org/2000/svg"
   xmlns="http://www.w3.org/2000/svg"
   xmlns:sodipodi="http://sodipodi.sourceforge.net/DTD/sodipodi-0.dtd"
   xmlns:inkscape="http://www.inkscape.org/namespaces/inkscape"
   version="1.0"
   width="1000"
   height="1000"
   id="svg5496"
   sodipodi:version="0.32"
   inkscape:version="0.48.0 r9654"
   sodipodi:docname="H.svg"
   inkscape:output_extension="org.inkscape.output.svg.inkscape">
  <metadata
     id="metadata5594">
    <rdf:RDF>
      <cc:Work
         rdf:about="">
        <dc:format>image/svg+xml</dc:format>
        <dc:type
           rdf:resource="http://purl.org/dc/dcmitype/StillImage" />
        <dc:title></dc:title>
      </cc:Work>
    </rdf:RDF>
  </metadata>
  <sodipodi:namedview
     inkscape:window-height="618"
     inkscape:window-width="691"
     inkscape:pageshadow="2"
     inkscape:pageopacity="0.0"
     borderopacity="1.0"
     bordercolor="#666666"
     pagecolor="#ffffff"
     id="base"
     showgrid="false"
     showguides="true"
     inkscape:guide-bbox="true"
     inkscape:zoom="0.16612489"
     inkscape:cx="672.29348"
     inkscape:cy="558.24038"
     inkscape:window-x="6"
     inkscape:window-y="128"
     inkscape:current-layer="svg5496"
     inkscape:window-maximized="0">
    <sodipodi:guide
       orientation="horizontal"
       position="200"
       id="guide5596" />
  </sodipodi:namedview>
  <defs
     id="defs5498" />
  <path
     style="fill:#4d4d4d;fill-opacity:1;stroke:#f9f9f9;stroke-width:0.1;stroke-miterlimit:4;stroke-dasharray:none"
     id="path4388"
     d="m 148.05828,185.29426 c 0.595,51.15558 -3.798,102.13757 -8.491,153.02084 -9.912,93.25827 -22.299,186.22613 -33.169,279.37448 -8.246999,70.27727 -14.235999,140.79388 -15.218999,211.56008 -0.467,19.3283 -91.58099958,17.12907 -91.11499958,-2.19923 l 0,0 C 2.5362814,753.5132 9.4102814,680.26991 18.378281,607.24781 c 11.104,-92.09743 23.332,-184.0882 31.73,-276.48549 3.626,-47.54468 7.368,-95.30939 4.335,-143.00451 -0.523,-19.85869 93.091999,-22.32224 93.614999,-2.46355 z"
     inkscape:connector-curvature="0" />
  <path
     style="fill:#4d4d4d;fill-opacity:1;stroke:#f9f9f9;stroke-width:0.1;stroke-miterlimit:4;stroke-dasharray:none"
     id="path4388-5"
     d="m 148.05828,185.29426 c 0.595,51.15558 -3.798,102.13757 -8.491,153.02084 -9.912,93.25827 -22.299,186.22613 -33.169,279.37448 -8.246999,70.27727 -14.235999,140.79388 -15.218999,211.56008 -0.467,19.3283 -91.58099958,17.12907 -91.11499958,-2.19923 l 0,0 C 2.5362814,753.5132 9.4102814,680.26991 18.378281,607.24781 c 11.104,-92.09743 23.332,-184.0882 31.73,-276.48549 3.626,-47.54468 7.368,-95.30939 4.335,-143.00451 -0.523,-19.85869 93.091999,-22.32224 93.614999,-2.46355 z"
     inkscape:connector-curvature="0" />
</svg>
