<?xml version="1.0" encoding="UTF-8" standalone="no"?>
<!-- Created with Inkscape (http://www.inkscape.org/) -->

<svg
   xmlns:dc="http://purl.org/dc/elements/1.1/"
   xmlns:cc="http://creativecommons.org/ns#"
   xmlns:rdf="http://www.w3.org/1999/02/22-rdf-syntax-ns#"
   xmlns:svg="http://www.w3.org/2000/svg"
   xmlns="http://www.w3.org/2000/svg"
   xmlns:sodipodi="http://sodipodi.sourceforge.net/DTD/sodipodi-0.dtd"
   xmlns:inkscape="http://www.inkscape.org/namespaces/inkscape"
   version="1.0"
   width="1000"
   height="1000"
   id="svg5496"
   sodipodi:version="0.32"
   inkscape:version="0.48.0 r9654"
   sodipodi:docname="E.svg"
   inkscape:output_extension="org.inkscape.output.svg.inkscape">
  <metadata
     id="metadata5594">
    <rdf:RDF>
      <cc:Work
         rdf:about="">
        <dc:format>image/svg+xml</dc:format>
        <dc:type
           rdf:resource="http://purl.org/dc/dcmitype/StillImage" />
        <dc:title></dc:title>
      </cc:Work>
    </rdf:RDF>
  </metadata>
  <sodipodi:namedview
     inkscape:window-height="618"
     inkscape:window-width="691"
     inkscape:pageshadow="2"
     inkscape:pageopacity="0.0"
     borderopacity="1.0"
     bordercolor="#666666"
     pagecolor="#ffffff"
     id="base"
     showgrid="false"
     showguides="true"
     inkscape:guide-bbox="true"
     inkscape:zoom="0.80521746"
     inkscape:cx="437.61896"
     inkscape:cy="663.95801"
     inkscape:window-x="6"
     inkscape:window-y="128"
     inkscape:current-layer="svg5496"
     inkscape:window-maximized="0">
    <sodipodi:guide
       orientation="horizontal"
       position="200"
       id="guide5596" />
  </sodipodi:namedview>
  <defs
     id="defs5498" />
  <path
     style="fill:#4d4d4d;fill-opacity:1;stroke:#f9f9f9;stroke-width:0.1;stroke-miterlimit:4;stroke-dasharray:none"
     d="m 564.25,102.5 c -12.89121,-0.15282 -27.00378,5.46477 -42.4375,18.625 -12.678,15.31601 -21.55925,32.59739 -28.15625,51.375 -13.355,35.09037 -26.2215,70.38494 -37.5625,106.1875 -16.16641,51.30398 -30.99899,102.99186 -43.5,155.3125 -16.82551,-57.03967 -31.63563,-114.64872 -44.9375,-172.625 -11.578,-50.47912 -22.3225,-101.17239 -35.3125,-151.3125 -4.76271,-14.901829 -61.04242,-0.42348 -81.875,15.65625 C 234.24657,117.70542 218.91603,113.94788 214.78125,120.75 188.41925,177.72222 172.124,238.87753 153.5,298.6875 122.299,398.71656 88.03725,497.7593 55.28125,597.28125 c -19.396,61.3587 -39.886,122.58579 -52.5,185.78125 -3.878,17.1051 -3.03075,33.70563 -0.96875,50.875 3.511,19.49869 95.41725,2.93619 91.90625,-16.5625 -0.506,-2.23371 -3.193,-13.5401 -0.375,-17.65625 9.827,-59.67291 28.789,-117.35508 46,-175.1875 31.892,-99.93335 66.08975,-199.11971 98.71875,-298.8125 10.08643,-30.73206 19.60553,-61.84803 30.53125,-92.40625 3.88472,16.20497 7.66721,32.44043 11.5625,48.625 16.867,71.02354 35.13225,141.69971 55.78125,211.71875 9.35,23.74464 22.508,82.59231 43.5,98.84375 8.93,6.91328 19.72275,10.98122 29.59375,16.46875 15.802,-5.08152 33.40125,-6.33802 47.40625,-15.25 C 478.7085,579.54598 491.32,497.80919 497,472.875 c 12.174,-56.32059 28.06375,-111.66305 45.84375,-166.4375 6.13445,-18.71184 12.81934,-37.22734 19.8125,-55.625 10.10584,29.76058 19.08336,59.9663 28.78125,89.8125 25.665,79.58294 56.38425,157.36499 88.40625,234.5625 24.05,57.77848 50.58775,114.43858 75.84375,171.6875 8.264,18.61957 16.06925,37.4487 21.40625,57.125 5.636,18.87233 94.5735,-7.69016 88.9375,-26.5625 -7.378,-23.3231 -16.43875,-45.99619 -26.96875,-68.09375 -25.768,-56.11252 -52.50375,-111.78694 -76.59375,-168.65625 -31.37,-74.67164 -61.3625,-149.98863 -85.5625,-227.34375 -17.366,-55.46621 -31.717,-112.27718 -55,-165.625 C 606.29806,121.3155 587.22998,102.77241 564.25,102.5 z"
     id="path4568"
     inkscape:connector-curvature="0"
     sodipodi:nodetypes="scccccccccccccccccccsccccccccccccccs" />
</svg>
