<?xml version="1.0" encoding="UTF-8" standalone="no"?>
<!-- Created with Inkscape (http://www.inkscape.org/) -->

<svg
   xmlns:dc="http://purl.org/dc/elements/1.1/"
   xmlns:cc="http://creativecommons.org/ns#"
   xmlns:rdf="http://www.w3.org/1999/02/22-rdf-syntax-ns#"
   xmlns:svg="http://www.w3.org/2000/svg"
   xmlns="http://www.w3.org/2000/svg"
   xmlns:sodipodi="http://sodipodi.sourceforge.net/DTD/sodipodi-0.dtd"
   xmlns:inkscape="http://www.inkscape.org/namespaces/inkscape"
   version="1.0"
   width="1000"
   height="1000"
   id="svg5496"
   sodipodi:version="0.32"
   inkscape:version="0.48.0 r9654"
   sodipodi:docname="belong to.svg"
   inkscape:output_extension="org.inkscape.output.svg.inkscape">
  <metadata
     id="metadata5594">
    <rdf:RDF>
      <cc:Work
         rdf:about="">
        <dc:format>image/svg+xml</dc:format>
        <dc:type
           rdf:resource="http://purl.org/dc/dcmitype/StillImage" />
        <dc:title></dc:title>
      </cc:Work>
    </rdf:RDF>
  </metadata>
  <sodipodi:namedview
     inkscape:window-height="618"
     inkscape:window-width="641"
     inkscape:pageshadow="2"
     inkscape:pageopacity="0.0"
     borderopacity="1.0"
     bordercolor="#666666"
     pagecolor="#ffffff"
     id="base"
     showgrid="false"
     showguides="true"
     inkscape:guide-bbox="true"
     inkscape:zoom="0.454"
     inkscape:cx="434.5141"
     inkscape:cy="480.37808"
     inkscape:window-x="636"
     inkscape:window-y="103"
     inkscape:current-layer="svg5496"
     inkscape:window-maximized="0">
    <sodipodi:guide
       orientation="horizontal"
       position="200"
       id="guide5596" />
  </sodipodi:namedview>
  <defs
     id="defs5498" />
  <path
     id="path4931"
     d="m 430.38587,260.625 c -11.49,-0.0383 -23.09,0.65846 -34.68,1.71875 -66.82,9.52793 -127.47,39.37137 -185.76,71.84375 -58.2,35.06018 -112.300002,78.21616 -153.930002,132.375 -7.75,10.09507 -14.47,20.93797 -21.72,31.40625 -29.13,49.46631 -45.68,107.189 -25,163.28125 3.76,10.20326 9.66,19.47897 14.5,29.21875 43.81,62.91992 105.280002,80.21251 177.620002,89.4375 68.03,5.50383 135.48,-5.09367 201.6,-20.09375 41.94,-10.04958 82.79,-24.14116 121.56,-43.03125 14.57,-7.7498 7.52,-3.74462 21.09,-12 16.7,-10.63116 -33.41,-89.34991 -50.12,-78.71875 -7.24,5.03783 -3.03,2.31481 -12.75,7.90625 -31.67,16.73962 -65.75,28.29063 -100.38,37.25 -55.63,13.28217 -112.47,22.97739 -169.9,18.8125 -39.44,-4.67212 -80.71,-11.09191 -108.03,-42.90625 -16.680002,-25.88169 -16.260002,-49.02117 -7.000002,-73.75 45.810002,4.77807 91.980002,5.21429 138.000002,6.15625 59.64,0.66763 119.23,2.09073 178.75,5.875 21.99,1.78746 44,3.53641 65.84,6.65625 19.71,2.26378 30.39,-90.61122 10.69,-92.875 -23.79,-2.19471 -47.65,-3.67193 -71.5,-5.0625 -60.5,-2.83619 -121.01,-3.96039 -181.56,-5.03125 -26.21,-0.74786 -52.55,-1.2049 -78.76,-2.875 27.71,-28.63145 59.38,-53.20978 94.69,-73.40625 47.35,-26.24863 96.54,-50.89537 150.72,-58.9375 20.04,-1.99048 40.51,-3.31791 59.09,5.96875 17.91,8.64714 58.67,-75.79036 40.76,-84.4375 -23.71,-11.06317 -48.54,-14.69692 -73.82,-14.78125 z"
     style="fill:#4d4d4d;fill-opacity:1;stroke:#f9f9f9;stroke-width:0.1;stroke-miterlimit:4;stroke-dasharray:none"
     inkscape:connector-curvature="0" />
  <path
     style="fill:#4d4d4d;fill-opacity:1;stroke:#f9f9f9;stroke-width:0.1;stroke-miterlimit:4;stroke-dasharray:none"
     id="path4943"
     d="m 384.15587,131.73544 c -7.27,53.10982 -16.22,105.95136 -25.6,158.72158 -20.06,112.85235 -47.89,224.06491 -76.51,334.98518 -20.87,79.37895 -42.06,158.67259 -62.7,238.11044 -4.94,18.35166 -91.45,-4.91691 -86.51,-23.26858 l 0,0 c 21.91,-78.81218 43.98,-157.5858 64.99,-236.64536 28.17,-108.41788 55.06,-217.28637 72.69,-328.00827 8.1,-50.99834 16.18,-102.07189 20.44,-153.56627 2.05,-19.76985 95.25,-10.09857 93.2,9.67128 z"
     inkscape:connector-curvature="0" />
</svg>
