<?xml version="1.0" encoding="UTF-8" standalone="no"?>
<!-- Created with Inkscape (http://www.inkscape.org/) -->

<svg
   xmlns:dc="http://purl.org/dc/elements/1.1/"
   xmlns:cc="http://creativecommons.org/ns#"
   xmlns:rdf="http://www.w3.org/1999/02/22-rdf-syntax-ns#"
   xmlns:svg="http://www.w3.org/2000/svg"
   xmlns="http://www.w3.org/2000/svg"
   xmlns:sodipodi="http://sodipodi.sourceforge.net/DTD/sodipodi-0.dtd"
   xmlns:inkscape="http://www.inkscape.org/namespaces/inkscape"
   version="1.0"
   width="1000"
   height="1000"
   id="svg5496"
   sodipodi:version="0.32"
   inkscape:version="0.48.0 r9654"
   sodipodi:docname="at.svg"
   inkscape:output_extension="org.inkscape.output.svg.inkscape">
  <metadata
     id="metadata5594">
    <rdf:RDF>
      <cc:Work
         rdf:about="">
        <dc:format>image/svg+xml</dc:format>
        <dc:type
           rdf:resource="http://purl.org/dc/dcmitype/StillImage" />
        <dc:title></dc:title>
      </cc:Work>
    </rdf:RDF>
  </metadata>
  <sodipodi:namedview
     inkscape:window-height="618"
     inkscape:window-width="691"
     inkscape:pageshadow="2"
     inkscape:pageopacity="0.0"
     borderopacity="1.0"
     bordercolor="#666666"
     pagecolor="#ffffff"
     id="base"
     showgrid="false"
     showguides="true"
     inkscape:guide-bbox="true"
     inkscape:zoom="0.33224977"
     inkscape:cx="219.11433"
     inkscape:cy="429.12244"
     inkscape:window-x="6"
     inkscape:window-y="128"
     inkscape:current-layer="svg5496"
     inkscape:window-maximized="0">
    <sodipodi:guide
       orientation="horizontal"
       position="200"
       id="guide5596" />
  </sodipodi:namedview>
  <defs
     id="defs5498" />
  <path
     style="fill:#4d4d4d;fill-opacity:1;stroke:#f9f9f9;stroke-width:0.1;stroke-miterlimit:4;stroke-dasharray:none"
     d="M 486.90625 153.8125 C 481.06395 153.86109 476.83469 155.3801 475.375 158.8125 C 459.221 211.9948 450.4055 267.18567 439.3125 321.59375 C 435.72602 338.53826 432.11836 355.50026 428.5 372.4375 C 382.08919 369.52833 335.60902 368.12311 289.125 368.5625 C 297.67982 326.24612 306.24121 283.90946 316.5625 242 C 321.4055 222.77015 230.74925 199.9264 225.90625 219.15625 C 216.10313 270.01067 206.90267 321.00402 197.1875 371.875 C 158.43481 374.12444 119.70883 377.37189 81.6875 385.5 C 62.4545 390.48637 85.954495 481.14262 105.1875 476.15625 C 129.23649 469.92348 153.81345 466.56216 178.53125 464.3125 C 169.366 509.07398 160.30413 553.851 151.6875 598.71875 C 150.95802 598.76457 150.22945 598.79733 149.5 598.84375 C 101.082 602.52136 51.80025 605.56035 5.28125 620.5625 C -13.16275 627.97809 21.806 714.94685 40.25 707.53125 C 70.910958 697.22731 103.32948 693.66982 135.53125 690.78125 C 128.55831 738.72691 117.57113 788.25357 126.0625 836.375 C 127.4205 844.0735 130.11725 851.45319 132.15625 859 C 138.30225 877.66981 226.3325 848.70106 220.1875 830.03125 C 213.1605 818.97678 214.31075 801.59804 214.59375 789.375 C 215.38075 755.42777 220.60275 721.76017 225.59375 688.25 C 225.79911 687.04167 226.01225 685.8331 226.21875 684.625 C 272.23247 682.45699 318.30819 681.49489 364.375 681.09375 C 350.39967 756.46184 339.55024 832.34103 332.84375 908.71875 C 332.24275 917.51217 331.63125 926.33157 331.03125 935.125 C 329.99125 954.46008 421.1475 959.33508 422.1875 940 C 422.4965 931.86318 422.78475 923.73056 423.09375 915.59375 C 428.09363 836.90602 438.81438 758.78119 453.375 681.3125 C 512.62365 682.51314 571.80899 686.01134 630.875 690.875 C 665.962 694.11565 649.11275 692.50759 681.34375 695.75 C 700.68075 697.46907 708.80675 606.31283 689.46875 604.59375 C 656.44375 602.03562 673.7075 603.35044 637.6875 600.65625 C 582.24442 596.84382 526.74009 593.88301 471.1875 592.59375 C 479.61781 551.97631 488.33218 511.41864 497.25 470.90625 C 509.26723 472.87433 521.23246 475.11177 533.15625 477.625 C 552.32225 481.34291 569.8545 390.9679 550.6875 387.25 C 539.53298 385.24245 528.36009 383.40123 517.15625 381.71875 C 520.2842 367.87249 523.4122 354.02924 526.5625 340.1875 C 537.3155 291.80571 546.3785 242.68301 561.6875 195.5 C 568.01281 180.62629 512.22289 153.60196 486.90625 153.8125 z M 308.3125 458.3125 C 342.04829 458.26521 375.75291 459.41851 409.4375 461.53125 C 400.15829 504.98617 390.96502 548.4716 382.03125 592 C 335.5649 592.24339 289.09753 592.86721 242.65625 594.40625 C 251.35432 549.13713 260.63407 503.97213 270.21875 458.875 C 282.91457 458.51045 295.61723 458.33029 308.3125 458.3125 z "
     id="path3792" />
</svg>
