<?xml version="1.0" encoding="UTF-8" standalone="no"?>
<!-- Created with Inkscape (http://www.inkscape.org/) -->

<svg
   xmlns:dc="http://purl.org/dc/elements/1.1/"
   xmlns:cc="http://creativecommons.org/ns#"
   xmlns:rdf="http://www.w3.org/1999/02/22-rdf-syntax-ns#"
   xmlns:svg="http://www.w3.org/2000/svg"
   xmlns="http://www.w3.org/2000/svg"
   xmlns:sodipodi="http://sodipodi.sourceforge.net/DTD/sodipodi-0.dtd"
   xmlns:inkscape="http://www.inkscape.org/namespaces/inkscape"
   version="1.0"
   width="1000"
   height="1000"
   id="svg5496"
   sodipodi:version="0.32"
   inkscape:version="0.48.0 r9654"
   sodipodi:docname="heart.svg"
   inkscape:output_extension="org.inkscape.output.svg.inkscape">
  <metadata
     id="metadata5594">
    <rdf:RDF>
      <cc:Work
         rdf:about="">
        <dc:format>image/svg+xml</dc:format>
        <dc:type
           rdf:resource="http://purl.org/dc/dcmitype/StillImage" />
        <dc:title></dc:title>
      </cc:Work>
    </rdf:RDF>
  </metadata>
  <sodipodi:namedview
     inkscape:window-height="618"
     inkscape:window-width="641"
     inkscape:pageshadow="2"
     inkscape:pageopacity="0.0"
     borderopacity="1.0"
     bordercolor="#666666"
     pagecolor="#ffffff"
     id="base"
     showgrid="false"
     showguides="true"
     inkscape:guide-bbox="true"
     inkscape:zoom="0.454"
     inkscape:cx="500"
     inkscape:cy="500"
     inkscape:window-x="597"
     inkscape:window-y="65"
     inkscape:current-layer="svg5496"
     inkscape:window-maximized="0">
    <sodipodi:guide
       orientation="horizontal"
       position="200"
       id="guide5596" />
  </sodipodi:namedview>
  <defs
     id="defs5498" />
  <path
     style="fill:#4d4d4d;fill-opacity:1;stroke:#f9f9f9;stroke-width:0.1;stroke-miterlimit:4;stroke-dasharray:none"
     id="path4214"
     d="m 224.82248,606.52241 c -27.29,8.74235 -50.375,25.94975 -72.295,43.8338 -29.313,25.12923 -51.182,55.56828 -60.818005,93.02009 -5.059,38.78054 10.896005,60.22264 40.343005,82.91603 67.236,39.18543 146.961,38.53079 222.389,37.35732 105.921,-4.30129 209.527,-26.72503 310.603,-57.45505 65.363,-22.85682 132.646,-48.54139 181.242,-99.64452 17.566,-26.68251 6.851,-27.29741 -14.352,-41.68773 -55.837,-31.38068 -120.349,-35.83791 -182.992,-37.02445 -18.957,-0.39536 -17.093,-89.75826 1.864,-89.3629 l 0,0 c 82.747,1.86174 166.946,9.87694 238.555,55.38603 22.226,19.1924 34.947,25.85232 47.292,53.65554 19.924,44.87198 3.122,88.59506 -26.462,123.77393 -8.256,7.82639 -16.002,16.22913 -24.769,23.47917 -56.359,46.60978 -127.058,71.99903 -195.082,95.81122 -108.965,32.23527 -220.465,55.98268 -334.36,60.92025 -97.259,1.87586 -197.848,0.0372 -281.977005,-55.36999 -9.654,-8.34609 -20.186,-15.77264 -28.961,-25.03826 C 5.4104751,829.24316 -7.0165249,773.44697 3.7764751,717.91305 c 2.934,-9.53651 5.208,-19.30188 8.8029999,-28.60952 16.77,-43.41912 47.871,-79.31245 82.057,-110.00707 31.484005,-25.62022 64.812005,-49.2537 103.579005,-62.57164 19.049,-5.64413 45.656,84.15346 26.607,89.79759 z"
     inkscape:connector-curvature="0" />
  <path
     style="fill:#4d4d4d;fill-opacity:1;stroke:#f9f9f9;stroke-width:0.1;stroke-miterlimit:4;stroke-dasharray:none"
     id="path4216"
     d="m 363.32848,267.44567 c -13.17,12.79405 -21.945,28.77318 -29.138,45.45387 -8.313,19.136 -7.012,38.32012 -3.566,58.30383 7.873,36.57445 20.221,71.99995 32.103,107.41706 15.212,40.85141 27.22,82.21046 31.393,125.6479 2.465,56.74939 -22.253,106.09375 -51.592,152.78667 -21.108,29.36495 -10.314,15.2097 -32.311,42.52034 -12.272,15.04911 -83.214,-42.80167 -70.942,-57.85078 l 0,0 c 17.842,-21.54507 9.128,-10.38537 26.09,-33.51776 18.711,-29.2664 36.79,-60.16973 37.029,-95.95889 -2.621,-36.20711 -14.819,-70.27608 -26.629,-104.38898 -13.524,-40.13789 -27.688,-80.25861 -36.361,-121.79275 -5.959,-37.88438 -5.815,-75.04764 10.059,-110.8063 12.297,-27.19305 27.211,-52.99748 48.056,-74.65133 14.178,-13.96017 79.987,52.87695 65.809,66.83712 z"
     inkscape:connector-curvature="0" />
  <path
     style="fill:#4d4d4d;fill-opacity:1;stroke:#f9f9f9;stroke-width:0.1;stroke-miterlimit:4;stroke-dasharray:none"
     id="path4218"
     d="m 561.47648,259.99635 c -20.161,18.85032 -38.082,39.94226 -55.148,61.58476 -18.628,24.27682 -31.703,51.31267 -34.752,81.84792 -0.269,26.32534 11.614,50.07174 22.19,73.49342 18.764,37.15874 31.082,76.75989 41.17,116.99435 12.838,49.30318 16.104,96.33223 6.636,146.36297 -8.57,35.51559 -29.394,63.57294 -52.873,90.52045 -12.941,14.55144 -81.537,-46.44887 -68.597,-61.00032 l 0,0 c 13.179,-14.33132 25.623,-29.03162 31.395,-48.0685 8.353,-35.21622 3.034,-70.607 -5.523,-105.42184 -8.839,-34.95307 -19.858,-69.21253 -36.317,-101.43007 -17.741,-39.33049 -33.617,-79.47376 -29.478,-123.62375 7.018,-46.66749 24.375,-89.16078 53.737,-126.5349 19.921,-25.4594 40.822,-50.158 63.561,-73.16818 14.519,-13.5763 78.518,54.86739 63.999,68.44369 z"
     inkscape:connector-curvature="0" />
  <path
     style="fill:#4d4d4d;fill-opacity:1;stroke:#f9f9f9;stroke-width:0.1;stroke-miterlimit:4;stroke-dasharray:none"
     id="path4222"
     d="m 723.97948,281.24439 c -19.061,16.99511 -31.68,38.62203 -42.075,61.61009 -14.686,34.94873 -17.211,71.99055 -14.113,109.29252 5.12,38.93522 18.493,76.08384 30.287,113.35147 14.084,41.78441 23.716,84.5119 25.509,128.58264 0.677,29.97926 -9.646,56.3182 -23.081,82.40101 -9.256,17.28539 -90.74,-26.34706 -81.484,-43.63245 l 0,0 c 6.619,-11.37816 12.052,-22.64364 12.313,-36.15432 -0.292,-35.54823 -9.932,-69.7959 -20.722,-103.46726 -14.001,-44.08275 -29.495,-88.13273 -34.26,-134.42881 -3.452,-52.73985 0.922,-105.02962 21.932,-154.21468 15.364,-33.3011 33.895,-64.56804 60.317,-90.43735 14.233,-13.8685 79.61,53.22865 65.377,67.09714 z"
     inkscape:connector-curvature="0" />
</svg>
