<?xml version="1.0" encoding="UTF-8" standalone="no"?>
<!-- Created with Inkscape (http://www.inkscape.org/) -->

<svg
   xmlns:dc="http://purl.org/dc/elements/1.1/"
   xmlns:cc="http://creativecommons.org/ns#"
   xmlns:rdf="http://www.w3.org/1999/02/22-rdf-syntax-ns#"
   xmlns:svg="http://www.w3.org/2000/svg"
   xmlns="http://www.w3.org/2000/svg"
   xmlns:sodipodi="http://sodipodi.sourceforge.net/DTD/sodipodi-0.dtd"
   xmlns:inkscape="http://www.inkscape.org/namespaces/inkscape"
   version="1.0"
   width="1000"
   height="1000"
   id="svg5496"
   sodipodi:version="0.32"
   inkscape:version="0.48.0 r9654"
   sodipodi:docname="dollar_sign.svg"
   inkscape:output_extension="org.inkscape.output.svg.inkscape">
  <metadata
     id="metadata5594">
    <rdf:RDF>
      <cc:Work
         rdf:about="">
        <dc:format>image/svg+xml</dc:format>
        <dc:type
           rdf:resource="http://purl.org/dc/dcmitype/StillImage" />
        <dc:title></dc:title>
      </cc:Work>
    </rdf:RDF>
  </metadata>
  <sodipodi:namedview
     inkscape:window-height="618"
     inkscape:window-width="691"
     inkscape:pageshadow="2"
     inkscape:pageopacity="0.0"
     borderopacity="1.0"
     bordercolor="#666666"
     pagecolor="#ffffff"
     id="base"
     showgrid="false"
     showguides="true"
     inkscape:guide-bbox="true"
     inkscape:zoom="0.33224977"
     inkscape:cx="351.46971"
     inkscape:cy="365.09766"
     inkscape:window-x="6"
     inkscape:window-y="128"
     inkscape:current-layer="svg5496"
     inkscape:window-maximized="0">
    <sodipodi:guide
       orientation="horizontal"
       position="200"
       id="guide5596" />
  </sodipodi:namedview>
  <defs
     id="defs5498" />
  <path
     style="fill:#4d4d4d;fill-opacity:1;stroke:#f9f9f9;stroke-width:0.1;stroke-miterlimit:4;stroke-dasharray:none"
     d="m 476.53125,248.90625 c -1.6807,0.0928 -3.12602,0.61657 -4.28125,1.65625 -35.54,33.60664 -63.9105,73.67608 -92.0625,113.40625 -60.988,89.77965 -118.321,181.97226 -175.375,274.28125 -50.396,82.02138 -98.96375,165.24472 -140.84375,251.96875 -3.847,8.99259 -7.7155,17.97617 -11.5625,26.96875 -7.319,17.87957 76.96225,52.37956 84.28125,34.5 2.997,-7.73067 6.002,-15.45682 9,-23.1875 38.326,-84.64307 84.835,-165.2095 133.25,-244.4375 C 334.8885,593.59049 391.519,503.44617 453,416.59375 c 25.02,-33.86951 49.92,-68.63573 82,-96.3125 13.63084,-12.26828 -38.63652,-72.47028 -58.46875,-71.375 z m -356.5,3.0625 c -0.30445,0.003 -0.59931,0.0448 -0.90625,0.0937 -45.752997,10.41845 -74.2245,45.03514 -97.3125,83.375 -19.406,40.9202 -32.22575,90.6376 -10.09375,133.59375 4.683,9.08965 11.85125,16.66966 17.78125,25 8.649,6.27488 16.4095,13.97546 25.9375,18.8125 51.606,26.19895 107.684,4.99661 155.375,-18.03125 40.035,-24.58917 82.84075,-55.38465 100.59375,-101.09375 3.28,-8.44674 4.60725,-17.51631 6.90625,-26.28125 -0.443,-9.68805 0.82025,-19.60875 -1.34375,-29.0625 -11.364,-49.65736 -57.2175,-69.00391 -101.3125,-80.1875 -20.571,-4.42495 -41.49325,-4.7189 -62.40625,-4.75 -7.90405,0.075 -12.47943,15.1199 -13.84375,33.0625 -4.13775,-18.66974 -11.28698,-34.60933 -19.375,-34.53125 z m 22.4375,77.75 c 2.53228,9.64398 6.41778,16.23721 11.65625,16.1875 13.43,-0.34511 26.86925,-0.57777 40.15625,1.90625 2.808,0.58615 28.52625,7.79063 29.40625,6.65625 4.851,-6.25209 -1.896,-1.7059 3.875,-5.03125 5.12,23.44632 -41.48375,53.14978 -57.09375,63.6875 -22.391,11.45534 -44.5805,20.25053 -69.8125,22 -19.782997,-2.79286 -3.845747,-44.09255 0.40625,-53.21875 8.02,-14.38222 16.9065,-30.3802 32.8125,-37.25 4.67236,-0.7456 7.41849,-6.5606 8.59375,-14.9375 z M 498.09375,580 c -19.445,-0.48621 -21.7575,91.2013 -2.3125,91.6875 19.412,0.28206 38.86725,1.0023 57.40625,7.5 7.246,-1.12032 0.2955,-7.47532 5.9375,-11.9375 2.876,-2.27391 0.898,7.72879 -0.875,10.9375 -2.588,4.68343 -6.168,8.75051 -9.25,13.125 -28.811,29.16407 -63.28575,53.03721 -104.21875,61.0625 -2.427,0.43491 -5.00825,0.3252 -7.28125,1.28125 -4.09306,-0.35986 -4.13312,-0.16188 -6.375,-6.15625 5.558,-25.28315 16.16025,-49.54254 33.78125,-68.875 13.869,-14.23345 -53.22475,-79.60845 -67.09375,-65.375 -28.398,32.07534 -45.1025,71.12515 -55.9375,112.0625 -6.123,39.63997 1.28475,80.56807 37.59375,104.09375 23.323,15.11106 36.26025,12.86245 62.53125,14.90625 67.087,-6.17582 122.678,-42.41744 170.5,-87.5 26,-29.53184 48.79475,-67.59813 33.46875,-108.46875 -10.033,-26.75397 -21.2885,-30.73764 -42.4375,-46.625 C 570.59925,584.16448 534.58575,581.17034 498.09375,580 z"
     id="path3810"
     inkscape:connector-curvature="0"
     sodipodi:nodetypes="sccccccccccssccccscccccccscccccccccccccccccccccccccccc" />
</svg>
