<?xml version="1.0" encoding="UTF-8" standalone="no"?>
<!-- Created with Inkscape (http://www.inkscape.org/) -->

<svg
   xmlns:dc="http://purl.org/dc/elements/1.1/"
   xmlns:cc="http://creativecommons.org/ns#"
   xmlns:rdf="http://www.w3.org/1999/02/22-rdf-syntax-ns#"
   xmlns:svg="http://www.w3.org/2000/svg"
   xmlns="http://www.w3.org/2000/svg"
   xmlns:sodipodi="http://sodipodi.sourceforge.net/DTD/sodipodi-0.dtd"
   xmlns:inkscape="http://www.inkscape.org/namespaces/inkscape"
   version="1.0"
   width="1000"
   height="1000"
   id="svg5496"
   sodipodi:version="0.32"
   inkscape:version="0.48.0 r9654"
   sodipodi:docname="closing_bracket.svg"
   inkscape:output_extension="org.inkscape.output.svg.inkscape">
  <metadata
     id="metadata5594">
    <rdf:RDF>
      <cc:Work
         rdf:about="">
        <dc:format>image/svg+xml</dc:format>
        <dc:type
           rdf:resource="http://purl.org/dc/dcmitype/StillImage" />
        <dc:title></dc:title>
      </cc:Work>
    </rdf:RDF>
  </metadata>
  <sodipodi:namedview
     inkscape:window-height="618"
     inkscape:window-width="691"
     inkscape:pageshadow="2"
     inkscape:pageopacity="0.0"
     borderopacity="1.0"
     bordercolor="#666666"
     pagecolor="#ffffff"
     id="base"
     showgrid="false"
     showguides="true"
     inkscape:guide-bbox="true"
     inkscape:zoom="0.33224977"
     inkscape:cx="300.23671"
     inkscape:cy="469.28349"
     inkscape:window-x="92"
     inkscape:window-y="25"
     inkscape:current-layer="svg5496"
     inkscape:window-maximized="0">
    <sodipodi:guide
       orientation="horizontal"
       position="200"
       id="guide5596" />
  </sodipodi:namedview>
  <defs
     id="defs5498" />
  <path
     style="fill:#4d4d4d;fill-opacity:1;stroke:#f9f9f9;stroke-width:0.1;stroke-miterlimit:4;stroke-dasharray:none"
     id="path3962"
     d="m 110.32479,78.006841 c 2.118,54.650879 1.476,109.302749 -0.202,163.951369 -4.228,89.80967 -10.763,179.48438 -15.421,269.27264 -3.789,73.81075 -4.665,147.71625 -4.258,221.60889 0.131,42.897 1.951,85.74899 5.188,128.51626 1.303,5.48324 0.283,15.83824 3.84,20.00533 7.657,18.37271 -78.953,54.46971 -86.61,36.097 l 0,0 C 6.6827903,901.19513 3.4587903,884.39046 3.0347903,866.94194 0.99379028,822.31713 -0.09420972,777.65908 0.08079028,732.98348 0.24879028,657.42585 1.4577903,581.86085 5.7567903,506.40911 10.77879,417.54068 17.41679,328.75155 20.60179,239.7904 c 0.913,-52.44243 1.109,-104.97564 -3.748,-157.260761 -0.96,-19.828229 92.511,-24.351028 93.471,-4.522798 z"
     inkscape:connector-curvature="0" />
</svg>
