<?xml version="1.0" encoding="UTF-8" standalone="no"?>
<!-- Created with Inkscape (http://www.inkscape.org/) -->

<svg
   xmlns:dc="http://purl.org/dc/elements/1.1/"
   xmlns:cc="http://creativecommons.org/ns#"
   xmlns:rdf="http://www.w3.org/1999/02/22-rdf-syntax-ns#"
   xmlns:svg="http://www.w3.org/2000/svg"
   xmlns="http://www.w3.org/2000/svg"
   xmlns:sodipodi="http://sodipodi.sourceforge.net/DTD/sodipodi-0.dtd"
   xmlns:inkscape="http://www.inkscape.org/namespaces/inkscape"
   version="1.0"
   width="1000"
   height="1000"
   id="svg5496"
   sodipodi:version="0.32"
   inkscape:version="0.48.0 r9654"
   sodipodi:docname="paragraph.svg"
   inkscape:output_extension="org.inkscape.output.svg.inkscape">
  <metadata
     id="metadata5594">
    <rdf:RDF>
      <cc:Work
         rdf:about="">
        <dc:format>image/svg+xml</dc:format>
        <dc:type
           rdf:resource="http://purl.org/dc/dcmitype/StillImage" />
        <dc:title></dc:title>
      </cc:Work>
    </rdf:RDF>
  </metadata>
  <sodipodi:namedview
     inkscape:window-height="618"
     inkscape:window-width="641"
     inkscape:pageshadow="2"
     inkscape:pageopacity="0.0"
     borderopacity="1.0"
     bordercolor="#666666"
     pagecolor="#ffffff"
     id="base"
     showgrid="false"
     showguides="true"
     inkscape:guide-bbox="true"
     inkscape:zoom="0.454"
     inkscape:cx="500"
     inkscape:cy="500"
     inkscape:window-x="597"
     inkscape:window-y="65"
     inkscape:current-layer="svg5496"
     inkscape:window-maximized="0">
    <sodipodi:guide
       orientation="horizontal"
       position="200"
       id="guide5596" />
  </sodipodi:namedview>
  <defs
     id="defs5498" />
  <path
     style="fill:#4d4d4d;fill-opacity:1;stroke:#f9f9f9;stroke-width:0.1;stroke-miterlimit:4;stroke-dasharray:none"
     id="path4608"
     d="m 308.74849,153.05452 c -16.15,-2.17341 -31.96,1.14283 -47.55,5.045 -23.37,6.45438 -45.08,17.1615 -65.96,29.2693 -18.91,12.03079 -39.32,24.54825 -49.92,45.01988 -1.7,9.10489 1.42,0.777 3.66,1.41613 3.1,0.8844 5.06,3.99749 7.55,6.05093 25.52,18.60829 54.98,31.0133 83.3,44.67052 40.86,18.70033 78.69,42.37664 113.11,71.17197 31.46,27.65524 53.17,62.82483 70.27,100.58023 16.54,38.41686 19.27,73.04269 8.65,113.26248 -14.7,40.44432 -46.43,65.48692 -83.3,84.71003 -34.33,15.63679 -71.23,23.65505 -108.4,28.7824 -5.85,0.47306 -11.7,0.94612 -17.55,1.41918 -19.58,1.43909 -26.36,-90.88487 -6.78,-92.32395 l 0,0 c 4.05,-0.25402 8.1,-0.50803 12.14,-0.76205 26.94,-3.40057 53.68,-8.96884 78.77,-19.65711 14.08,-6.73967 28.2,-14.6049 36.15,-28.64282 7.1,-16.2889 1.88,-33.31699 -4.14,-49.24791 -10.93,-25.31412 -24.87,-49.03521 -45.36,-67.91593 -28.02,-24.22915 -59.64,-43.11121 -93.31,-58.54978 -37.61,-17.9643 -76.89,-34.25741 -108.800003,-61.72972 -36.79,-38.49804 -48.99,-71.81177 -24.77,-122.18622 21.15,-32.10493 48.960003,-57.08874 82.460003,-76.15267 28.48,-16.416495 58.1,-30.87614 90.03,-39.342726 26.28,-6.401353 52.97,-10.7312 80.11,-8.115529 19.78,2.197414 9.42,95.425775 -10.36,93.228365 z"
     inkscape:connector-curvature="0" />
  <path
     style="fill:#4d4d4d;fill-opacity:1;stroke:#f9f9f9;stroke-width:0.1;stroke-miterlimit:4;stroke-dasharray:none"
     id="path4610"
     d="m 260.12849,442.48799 c -17.3,-3.91468 -34.33,0.19435 -50.77,5.61918 -29.56,11.49266 -53.58,32.27046 -76.17,53.92407 -15.78,18.54732 -38.010003,37.95082 -41.850003,63.38439 0.35,0.57636 0.42,1.48192 1.04,1.72909 3.38,1.33304 -2.44,-6.61756 10.780003,-0.2168 25.75,11.51438 53.43,17.8152 80.73,24.48119 38.01,8.13776 74.37,21.26176 109.43,37.85106 33.35,16.09054 61.78,39.36855 87.33,65.83839 24.59,26.23414 40.32,56.95177 47.35,91.98549 3.43,50.30469 -22.97,78.66897 -61.88,105.33607 -39.09,23.287 -82.69,36.75329 -126.41,48.22233 -46.38,12.26606 -93.87,14.16357 -141.420003,10.47716 -19.43,-1.60054 -11.88,-93.15791 7.540003,-91.55738 l 0,0 c 37.19,3.30725 74.34,1.80405 110.66,-7.6874 33.86,-8.82387 67.74,-18.91903 98.33,-36.33077 6.89,-4.33657 14.11,-11.07865 21.39,-13.26099 0,-16.66228 -13.13,-30.90351 -22.61,-43.33282 -17.44,-18.68641 -37.14,-34.94193 -60.15,-46.40989 -29.15,-14.15968 -59.56,-24.85503 -91.33,-31.54381 -36.13,-8.73907 -72.820003,-17.17927 -106.160003,-34.14502 -41.21,-25.68405 -62.57,-55.82343 -54.04,-106.28737 12.89,-40.9819 37.2,-75.13937 67.95,-105.06379 32.960003,-31.19587 68.380003,-60.14648 111.730003,-75.59468 32.22,-9.87316 65.18,-15.69803 98.77,-8.96531 19.42,4.29288 -0.82,95.84049 -20.24,91.54761 z"
     inkscape:connector-curvature="0" />
</svg>
