<?xml version="1.0" encoding="UTF-8" standalone="no"?>
<!-- Created with Inkscape (http://www.inkscape.org/) -->

<svg
   xmlns:dc="http://purl.org/dc/elements/1.1/"
   xmlns:cc="http://creativecommons.org/ns#"
   xmlns:rdf="http://www.w3.org/1999/02/22-rdf-syntax-ns#"
   xmlns:svg="http://www.w3.org/2000/svg"
   xmlns="http://www.w3.org/2000/svg"
   xmlns:sodipodi="http://sodipodi.sourceforge.net/DTD/sodipodi-0.dtd"
   xmlns:inkscape="http://www.inkscape.org/namespaces/inkscape"
   version="1.0"
   width="1000"
   height="1000"
   id="svg5496"
   sodipodi:version="0.32"
   inkscape:version="0.48.0 r9654"
   sodipodi:docname="subset of.svg"
   inkscape:output_extension="org.inkscape.output.svg.inkscape">
  <metadata
     id="metadata5594">
    <rdf:RDF>
      <cc:Work
         rdf:about="">
        <dc:format>image/svg+xml</dc:format>
        <dc:type
           rdf:resource="http://purl.org/dc/dcmitype/StillImage" />
        <dc:title></dc:title>
      </cc:Work>
    </rdf:RDF>
  </metadata>
  <sodipodi:namedview
     inkscape:window-height="618"
     inkscape:window-width="641"
     inkscape:pageshadow="2"
     inkscape:pageopacity="0.0"
     borderopacity="1.0"
     bordercolor="#666666"
     pagecolor="#ffffff"
     id="base"
     showgrid="false"
     showguides="true"
     inkscape:guide-bbox="true"
     inkscape:zoom="0.454"
     inkscape:cx="434.5141"
     inkscape:cy="480.37808"
     inkscape:window-x="636"
     inkscape:window-y="103"
     inkscape:current-layer="svg5496"
     inkscape:window-maximized="0">
    <sodipodi:guide
       orientation="horizontal"
       position="200"
       id="guide5596" />
  </sodipodi:namedview>
  <defs
     id="defs5498" />
  <path
     inkscape:connector-curvature="0"
     d="m 517.42384,400.85501 c -6.02,-9.93761 -16.39,-14.37098 -26.77,-18.35109 -27.87,-8.57461 -57.28,-8.385 -86.13,-7.77871 -44.07,1.48697 -87.27,10.14593 -129.83,21.06328 -40.7,10.78857 -79.11,27.71415 -114.66,50.11628 -19.68,12.38782 -33.5,28.6457 -41.76,50.1351 -5.99,17.48274 -4.72,34.62854 1.43,51.7352 12.45,24.64429 37.59,36.99079 61.44,48.29311 48.38,19.89038 100.56,26.67034 152.2,31.96954 47.18,4.62346 94.47,2.4684 141.17,-5.0753 22.4,-4.13642 44.51,-10.36231 64.64,-21.16893 0,-0.003 7.93,-6.41697 2.77,-2.44641 13.47,-14.70688 82.8,48.77536 69.33,63.48224 l 0,0 c -9,8.9705 -18.78,16.88655 -30.35,22.40493 -29.3,14.0834 -60.45,23.48903 -92.6,28.49293 -54.46,7.84629 -109.49,10.18045 -164.36,4.6082 -62.04,-6.53916 -124.51,-15.36299 -182.4,-39.88989 -47.439998,-23.02924 -90.639998,-51.578 -110.159998,-103.06693 -11.35,-38.71103 -13.54,-77.21685 1.56,-115.50013 17.1,-38.62769 42.33,-70.03434 78.889998,-92.22142 43.79,-26.51259 90.52,-47.36191 140.19,-60.34864 49.32,-12.62036 99.38,-22.53418 150.42,-24.39216 41.75,-1.00165 84.09,-0.36084 123.89,13.95663 29.87,12.88203 56.49,30.07427 73.3,58.86366 9.57,17.44064 -72.64,62.55914 -82.21,45.11851 z"
     id="path4953"
     style="fill:#4d4d4d;fill-opacity:1;stroke:#f9f9f9;stroke-width:0.1;stroke-miterlimit:4;stroke-dasharray:none" />
  <path
     style="fill:#4d4d4d;fill-opacity:1;stroke:#f9f9f9;stroke-width:0.1;stroke-miterlimit:4;stroke-dasharray:none"
     id="path4955"
     d="m 24.333842,769.02387 c 42.55,4.35168 85.559998,1.92204 128.219998,0.65272 82.72,-3.49911 165.47,-4.75579 248.25,-4.39621 62.64,0.50742 125.23,2.98777 187.87,2.86876 24.48,0.21565 49.01,-1.75344 73.46,-0.0426 19.79,1.92073 10.74,95.22198 -9.05,93.30125 l 0,0 c -21.29,-3.98273 -43.81,0.81607 -65.23,-1.62696 -62.55,-1.20585 -125.05,-4.28864 -187.62,-5.10971 -81.48,-0.69407 -162.94,0.51785 -244.32,5.1218 -48.81,2.18216 -97.889998,5.54929 -146.6899977,1.70792 -19.6200003,-3.20667 -4.5,-95.68364 15.1099997,-92.47696 z"
     inkscape:connector-curvature="0" />
</svg>
