<?xml version="1.0" encoding="utf-8" ?>

<!DOCTYPE svg PUBLIC "-//W3C//DTD SVG 1.1//EN" 
  "http://www.w3.org/Graphics/SVG/1.1/DTD/svg11.dtd">
<svg 
    xmlns="http://www.w3.org/2000/svg"
    xmlns:xlink="http://www.w3.org/1999/xlink"
    xmlns:sodipodi="http://sodipodi.sourceforge.net/DTD/sodipodi-0.dtd"
    xmlns:inkscape="http://www.inkscape.org/namespaces/inkscape"
    width="1024" height="1024" id="U4E22">
<path d="m 10819.448,9419.8669 c -28.273,18.9291 -52.577,43.201 -77.077,66.6384 -39.572,38.4897 -77.474,78.6292 -114.23,119.801 -15.39,17.257 -29.937,35.223 -44.365,53.2805 -11.485,14.1859 -78.358,-39.956 -66.873,-54.1419 l 0,0 c 15.557,-18.9812 31.207,-37.889 47.608,-56.1545 38.29,-42.5813 77.633,-84.2034 118.42,-124.4107 29.191,-28.3766 58.233,-57.4716 91.983,-80.4949 16.012,-9.4472 60.546,66.0349 44.534,75.4821 z" id="path22203" inkscape:connector-curvature="0" style="fill:#550000;fill-opacity:1;fill-rule:nonzero;stroke:#f9f9f9;stroke-width:0.1;stroke-miterlimit:4;stroke-dasharray:none" transform="translate(-10240, -9216)"/><path d="m 10573.681,9638.4693 c 42.22,-1.606 84.178,-7.3576 126.139,-12.0461 43.123,-4.67 86.534,-8.1435 129.869,-4.9002 4.985,0.9939 9.97,1.9878 14.956,2.9816 17.993,4.4122 -2.806,89.232 -20.799,84.8198 l 0,0 c -0.747,-0.4116 -1.493,-0.8231 -2.239,-1.2347 -37.279,-4.5891 -75.028,0.043 -112.215,3.3411 -44.635,5.0658 -89.185,11.1693 -133.997,14.4732 -18.548,0.3637 -20.262,-87.071 -1.714,-87.4347 z" id="path22205" inkscape:connector-curvature="0" style="fill:#550000;fill-opacity:1;fill-rule:nonzero;stroke:#f9f9f9;stroke-width:0.1;stroke-miterlimit:4;stroke-dasharray:none" transform="translate(-10240, -9216)"/><path d="m 10498.726,9795.8719 c 40.528,-2.0771 80.658,-8.3315 120.636,-14.9913 69.99,-13.2136 139.745,-27.5629 209.91,-39.8384 55.248,-9.7557 110.991,-16.1641 166.775,-21.8848 10.675,-1.086 21.354,-2.0868 31.918,-3.9812 18.386,-2.5329 30.327,84.141 11.94,86.6739 l 0,0 c -11.941,1.3194 -23.907,2.3269 -35.89,3.2026 -53.648,4.4346 -107.216,10.1426 -160.285,19.3289 -70.246,12.0802 -140.014,26.5441 -209.916,40.4454 -42.599,7.5588 -85.324,14.3866 -128.424,18.4202 -18.535,1.4137 -25.199,-85.9616 -6.664,-87.3753 z" id="path22207" inkscape:connector-curvature="0" style="fill:#550000;fill-opacity:1;fill-rule:nonzero;stroke:#f9f9f9;stroke-width:0.1;stroke-miterlimit:4;stroke-dasharray:none" transform="translate(-10240, -9216)"/><path d="m 10743.673,9454.9472 c -5.66,49.3861 -8.375,99.0405 -10.41,148.6873 -2.377,57.9546 -1.569,115.9548 0.99,173.8806 0.999,20.7712 2.374,41.5206 3.775,62.2675 1.115,18.2769 -85.043,23.5329 -86.158,5.256 l 0,0 c -1.167,-21.3667 -2.33,-42.7341 -3.201,-64.1155 -2.146,-60.1793 -2.617,-120.4109 -0.285,-180.5988 1.888,-50.9399 4.628,-101.8314 8.156,-152.685 1.55,-18.4837 88.683,-11.1758 87.133,7.3079 z" id="path22209" inkscape:connector-curvature="0" style="fill:#550000;fill-opacity:1;fill-rule:nonzero;stroke:#f9f9f9;stroke-width:0.1;stroke-miterlimit:4;stroke-dasharray:none" transform="translate(-10240, -9216)"/><path d="m 10731.709,9856.8497 c -15.242,39.0971 -34.655,76.3403 -54.861,113.0499 -22.504,39.7104 -46.654,78.4504 -69.731,117.8244 -5.486,10.513 -12.279,20.625 -16.04,31.978 -0.357,1.076 -1.439,4.06 -0.548,3.358 5.947,-4.69 -0.01,-15.201 -1.113,-22.695 -45.645,-48.382 1.242,-4.3 -26.767,-21.566 -0.832,-0.513 1.859,-0.614 2.812,-0.832 3.196,-0.731 6.429,-1.291 9.626,-2.014 10.829,-2.449 20.608,-4.994 31.45,-7.725 50.351,-13.498 101.378,-24.032 152.799,-32.473 45.477,-7.498 91.493,-8.864 137.447,-7.063 16.892,0.964 9.149,0.602 23.225,1.158 18.473,1.023 13.654,88.101 -4.818,87.079 l 0,0 c -14.561,-1.013 -7.032,-0.454 -22.586,-1.693 -39.924,-2.351 -79.934,-1.554 -119.509,4.862 -48.82,7.91 -97.2,18.155 -144.798,31.683 -22.866,6.142 -68.191,22.504 -90.649,10.989 -10.169,-5.214 -17.474,-14.731 -26.211,-22.096 -2.267,-8.804 -5.837,-17.371 -6.799,-26.41 -2.688,-25.256 18.179,-49.571 28.262,-70.636 23.034,-38.264 46.834,-76.0784 68.775,-114.9888 17.795,-32.5215 35.205,-65.506 47.383,-100.6212 6.116,-17.5329 88.767,11.2988 82.651,28.8317 z" id="path22211" inkscape:connector-curvature="0" style="fill:#550000;fill-opacity:1;fill-rule:nonzero;stroke:#f9f9f9;stroke-width:0.1;stroke-miterlimit:4;stroke-dasharray:none" transform="translate(-10240, -9216)"/><path d="m 10943.984,9946.7498 c -0.686,24.6578 10.025,47.2522 20.869,68.7282 17.977,32.667 40.994,62.14 63.662,91.615 3.299,4.366 6.598,8.732 9.897,13.099 10.995,14.718 -58.385,66.548 -69.38,51.831 l 0,0 c -3.089,-4.184 -6.177,-8.368 -9.266,-12.551 -25.652,-33.979 -51.751,-67.894 -72.027,-105.471 -17.699,-35.704 -32.538,-73.0695 -31.126,-113.6966 1.367,-18.5343 88.739,-12.0888 87.371,6.4454 z" id="path22213" inkscape:connector-curvature="0" style="fill:#550000;fill-opacity:1;fill-rule:nonzero;stroke:#f9f9f9;stroke-width:0.1;stroke-miterlimit:4;stroke-dasharray:none" transform="translate(-10240, -9216)"/></svg>