<?xml version="1.0" encoding="UTF-8" standalone="no"?>
<svg
   xmlns:dc="http://purl.org/dc/elements/1.1/"
   xmlns:cc="http://creativecommons.org/ns#"
   xmlns:rdf="http://www.w3.org/1999/02/22-rdf-syntax-ns#"
   xmlns:svg="http://www.w3.org/2000/svg"
   xmlns="http://www.w3.org/2000/svg"
   xmlns:sodipodi="http://sodipodi.sourceforge.net/DTD/sodipodi-0.dtd"
   xmlns:inkscape="http://www.inkscape.org/namespaces/inkscape"
   width="1024"
   height="1024"
   id="U4EC0"
   version="1.1"
   inkscape:version="0.48.0 r9654"
   sodipodi:docname="U+4EC0.svg">
  <metadata
     id="metadata11">
    <rdf:RDF>
      <cc:Work
         rdf:about="">
        <dc:format>image/svg+xml</dc:format>
        <dc:type
           rdf:resource="http://purl.org/dc/dcmitype/StillImage" />
      </cc:Work>
    </rdf:RDF>
  </metadata>
  <defs
     id="defs9" />
  <sodipodi:namedview
     pagecolor="#ffffff"
     bordercolor="#666666"
     borderopacity="1"
     objecttolerance="10"
     gridtolerance="10"
     guidetolerance="10"
     inkscape:pageopacity="0"
     inkscape:pageshadow="2"
     inkscape:window-width="640"
     inkscape:window-height="480"
     id="namedview7"
     showgrid="false"
     inkscape:zoom="0.27441406"
     inkscape:cx="512"
     inkscape:cy="512"
     inkscape:window-x="0"
     inkscape:window-y="25"
     inkscape:window-maximized="0"
     inkscape:current-layer="U4EC0" />
  <path
     style="fill:#a02c2c;fill-opacity:1;fill-rule:nonzero;stroke:#f9f9f9;stroke-width:0.1;stroke-miterlimit:4;stroke-dasharray:none"
     d="M 613.34375 213.8125 C 588.80607 213.77079 561.07476 219.85994 561.625 230.40625 C 566.1234 284.15825 567.4002 338.097 568.625 392 C 569.3222 428.35046 569.40284 464.71153 569.15625 501.0625 C 567.06313 501.25349 564.96783 501.43074 562.875 501.625 C 518.5665 505.843 474.42895 511.454 430.21875 516.5 C 411.58935 518.436 420.71435 606.2485 439.34375 604.3125 C 482.08509 597.61582 524.95746 592.12531 568 587.8125 C 567.51786 613.36219 566.96845 638.92372 566.375 664.46875 C 564.4755 724.73075 563.77835 784.99625 564.53125 845.28125 C 564.76635 857.91625 565.01775 870.5495 564.96875 883.1875 C 565.27615 901.8815 653.40115 900.445 653.09375 881.75 C 652.65425 868.928 652.04285 856.10025 651.53125 843.28125 C 649.53265 784.25225 649.62915 725.20225 651.03125 666.15625 C 651.51125 637.61124 652.01773 609.07837 652.4375 580.53125 C 676.18026 578.65168 699.92307 576.83832 723.65625 574.84375 C 743.42415 573.16075 763.16425 571.1525 782.78125 568.1875 C 801.21545 565.0695 786.4967 478.16325 768.0625 481.28125 C 750.809 484.62925 733.3472 486.45925 715.875 488.28125 C 695.06702 490.28149 674.23612 492.08826 653.40625 493.84375 C 653.6553 459.42891 653.70418 425.01037 653.40625 390.59375 C 652.82485 335.64575 651.97645 280.70025 650.03125 225.78125 C 649.60329 217.57856 632.42861 213.84494 613.34375 213.8125 z M 360.28125 216.25 C 358.69608 216.21322 357.31778 216.60883 356.15625 217.5 C 320.64865 246.826 288.75275 280.05875 257.84375 314.09375 C 215.18965 361.84275 179.1202 414.785 145.3125 469 C 128.4292 496.576 112.0957 524.58075 102.9375 555.71875 C 98.4274 573.88175 184.0524 595.13275 188.5625 576.96875 C 188.75908 563.77759 198.13127 549.35046 206.71875 535.84375 C 206.30438 549.70292 205.99319 563.56961 205.78125 577.4375 C 205.10085 638.5465 207.07295 699.617 210.40625 760.625 C 212.47195 795.606 215.763 830.51 222 865 C 225.5361 883.253 311.56745 866.5655 308.03125 848.3125 C 301.59505 817.7925 298.7763 786.702 296.5 755.625 C 292.8762 696.857 290.7932 637.98375 291.9375 579.09375 C 292.898 538.63275 294.4449 498.15525 298.9375 457.90625 C 299.6197 450.03031 284.3418 444.11886 266.34375 441.3125 C 283.39484 417.28845 301.576 394.09026 321.40625 372.1875 C 349.06595 342.1525 377.42015 312.51375 409.90625 287.59375 C 423.61223 277.07792 378.98624 216.68396 360.28125 216.25 z "
     id="path12161" />
</svg>
