<?xml version="1.0" encoding="utf-8" ?>

<!DOCTYPE svg PUBLIC "-//W3C//DTD SVG 1.1//EN" 
  "http://www.w3.org/Graphics/SVG/1.1/DTD/svg11.dtd">
<svg 
    xmlns="http://www.w3.org/2000/svg"
    xmlns:xlink="http://www.w3.org/1999/xlink"
    xmlns:sodipodi="http://sodipodi.sourceforge.net/DTD/sodipodi-0.dtd"
    xmlns:inkscape="http://www.inkscape.org/namespaces/inkscape"
    width="1024" height="1024" id="U4EA7">
<path d="m 8699.3906,4145.6802 c 4.8419,22.1332 18.1242,40.9465 31.0827,59.0446 13.0427,17.06 6.4422,8.6284 19.7983,25.2972 11.4363,14.353 -56.2245,68.2643 -67.6608,53.9113 l 0,0 c -14.9954,-18.9146 -7.4711,-9.2341 -22.5548,-29.0555 -20.5439,-28.9621 -39.6852,-59.3963 -47.13,-94.6522 -3.0856,-18.3419 83.3791,-32.8874 86.4646,-14.5454 z" id="path20673" inkscape:connector-curvature="0" style="fill:#800000;fill-opacity:1;fill-rule:nonzero;stroke:#f9f9f9;stroke-width:0.1;stroke-miterlimit:4;stroke-dasharray:none" transform="translate(-8192, -4096)"/><path d="m 8407.3906,4353.1156 c 40.9943,-15.298 83.4196,-26.3234 125.7315,-37.2719 69.5231,-17.9906 140.3465,-29.9575 211.3432,-40.3072 43.8911,-6.0729 87.8693,-11.7318 132.1163,-14.3357 18.309,-0.8439 22.287,85.4655 3.978,86.3093 l 0,0 c -41.5524,1.2801 -82.8438,6.5059 -124.0377,11.8693 -67.8021,9.6106 -135.4306,20.9724 -201.6322,38.7981 -38.0511,10.2858 -76.3614,20.453 -112.8858,35.4518 -17.0795,7.3426 -51.6929,-73.1711 -34.6133,-80.5137 z" id="path20675" inkscape:connector-curvature="0" style="fill:#800000;fill-opacity:1;fill-rule:nonzero;stroke:#f9f9f9;stroke-width:0.1;stroke-miterlimit:4;stroke-dasharray:none" transform="translate(-8192, -4096)"/><path d="m 8563.3054,4406.4029 c 19.4369,23.9927 44.5018,42.1412 70.0904,58.9684 15.2501,10.0538 -32.144,81.9434 -47.3941,71.8896 l 0,0 c -32.6611,-21.5763 -64.1142,-45.1177 -89.9581,-74.8066 -11.8903,-14.2683 55.3714,-70.3198 67.2618,-56.0514 z" id="path20677" inkscape:connector-curvature="0" style="fill:#800000;fill-opacity:1;fill-rule:nonzero;stroke:#f9f9f9;stroke-width:0.1;stroke-miterlimit:4;stroke-dasharray:none" transform="translate(-8192, -4096)"/><path d="m 8869.3701,4464.879 c -26.1364,11.5216 -48.4407,29.8434 -70.2908,47.8796 -21.5796,18.3312 -41.0826,38.8764 -60.4907,59.4351 -12.526,13.2433 -74.9553,-45.8047 -62.4294,-59.048 l 0,0 c 21.8339,-23.0433 43.8026,-46.033 67.967,-66.6842 28.8209,-23.975 58.5289,-47.4747 92.9538,-62.9803 17.2671,-6.8497 49.5572,74.5481 32.2901,81.3978 z" id="path20679" inkscape:connector-curvature="0" style="fill:#800000;fill-opacity:1;fill-rule:nonzero;stroke:#f9f9f9;stroke-width:0.1;stroke-miterlimit:4;stroke-dasharray:none" transform="translate(-8192, -4096)"/><path d="m 8357.1166,4607.1484 c 53.2796,-12.1815 106.9801,-22.3663 160.6729,-32.5245 82.9625,-15.2299 165.9853,-30.149 249.2238,-43.7973 29.1157,-5.0151 58.4133,-8.7054 87.7637,-11.9841 18.1189,-1.8101 26.6517,83.6036 8.5327,85.4137 l 0,0 c -27.7728,2.413 -55.4856,5.3781 -83.0136,9.8839 -82.4211,12.759 -164.5343,27.4069 -246.4241,43.2172 -52.131,10.4091 -104.3944,20.5991 -155.6765,34.7269 -18.0176,4.4715 -39.0965,-80.4643 -21.0789,-84.9358 z" id="path20687" inkscape:connector-curvature="0" style="fill:#800000;fill-opacity:1;fill-rule:nonzero;stroke:#f9f9f9;stroke-width:0.1;stroke-miterlimit:4;stroke-dasharray:none" transform="translate(-8192, -4096)"/><path d="m 8442.448,4640.9674 c -10.9138,48.6636 -19.7924,97.7664 -29.0103,146.7734 -12.1829,61.8037 -22.0659,123.9914 -27.8341,186.723 -0.4317,8.1147 -0.8635,16.2294 -1.2952,24.3441 -1.0874,18.1243 -86.5261,12.9982 -85.4387,-5.1261 l 0,0 c 0.6032,-9.1344 1.2063,-18.2689 1.8094,-27.4033 6.5442,-65.1247 16.8706,-129.7261 29.266,-193.9914 9.0737,-49.8281 18.0662,-99.6704 26.9958,-149.5244 3.8618,-18.1388 89.3689,0.066 85.5071,18.2047 z" id="path20689" inkscape:connector-curvature="0" style="fill:#800000;fill-opacity:1;fill-rule:nonzero;stroke:#f9f9f9;stroke-width:0.1;stroke-miterlimit:4;stroke-dasharray:none" transform="translate(-8192, -4096)"/></svg>