<?xml version="1.0" encoding="UTF-8" standalone="no"?>
<svg
   xmlns:dc="http://purl.org/dc/elements/1.1/"
   xmlns:cc="http://creativecommons.org/ns#"
   xmlns:rdf="http://www.w3.org/1999/02/22-rdf-syntax-ns#"
   xmlns:svg="http://www.w3.org/2000/svg"
   xmlns="http://www.w3.org/2000/svg"
   xmlns:sodipodi="http://sodipodi.sourceforge.net/DTD/sodipodi-0.dtd"
   xmlns:inkscape="http://www.inkscape.org/namespaces/inkscape"
   width="1024"
   height="1024"
   id="U4E3A"
   version="1.1"
   inkscape:version="0.48.0 r9654"
   sodipodi:docname="U+4E3A.svg">
  <metadata
     id="metadata11">
    <rdf:RDF>
      <cc:Work
         rdf:about="">
        <dc:format>image/svg+xml</dc:format>
        <dc:type
           rdf:resource="http://purl.org/dc/dcmitype/StillImage" />
      </cc:Work>
    </rdf:RDF>
  </metadata>
  <defs
     id="defs9" />
  <sodipodi:namedview
     pagecolor="#ffffff"
     bordercolor="#666666"
     borderopacity="1"
     objecttolerance="10"
     gridtolerance="10"
     guidetolerance="10"
     inkscape:pageopacity="0"
     inkscape:pageshadow="2"
     inkscape:window-width="640"
     inkscape:window-height="480"
     id="namedview7"
     showgrid="false"
     inkscape:zoom="0.27441406"
     inkscape:cx="512"
     inkscape:cy="512"
     inkscape:window-x="0"
     inkscape:window-y="25"
     inkscape:window-maximized="0"
     inkscape:current-layer="U4E3A" />
  <path
     style="fill:#501616;fill-opacity:1;fill-rule:nonzero;stroke:#f9f9f9;stroke-width:0.1;stroke-miterlimit:4;stroke-dasharray:none"
     d="M 313.9375 123.15625 C 293.00538 124.08739 241.31599 167.96575 251.5625 180.8125 C 271.5395 208.9585 288.8023 238.96725 307.625 267.90625 C 321.1853 288.48225 335.82925 308.28475 350.46875 328.09375 C 361.41835 342.85475 431.0121 291.262 420.0625 276.5 C 406.448 258.219 392.82625 239.93075 380.34375 220.84375 C 360.06325 189.35775 341.82515 156.602 320.78125 125.625 C 319.31745 123.78975 316.9278 123.02323 313.9375 123.15625 z M 633.3125 136.78125 C 632.09839 136.76658 630.96842 137.04187 629.96875 137.65625 C 589.19805 168.15125 561.588 212.221 533.9375 254.125 C 506.92247 296.36363 481.94893 339.7969 458.25 383.9375 C 419.31461 386.03791 380.52526 390.60053 342.125 398.46875 C 293.0536 409.16775 243.3674 421.23175 200.5 448.59375 C 185.3113 459.57875 237.09255 531.1725 252.28125 520.1875 C 284.90085 499.2385 323.384 490.63375 360.6875 482.21875 C 377.72098 478.60667 394.84688 475.75234 412.03125 473.5625 C 409.29474 479.05618 406.59026 484.55911 403.875 490.0625 C 365.8539 567.6285 335.16385 648.395 308.59375 730.5 C 294.05945 775.983 282.1851 822.24175 271.875 868.84375 C 270.9874 872.98375 270.10625 877.14125 269.21875 881.28125 C 265.52745 899.53625 351.58995 916.91125 355.28125 898.65625 C 356.02495 894.72925 356.7563 890.802 357.5 886.875 C 366.2772 842.888 376.73085 799.24075 389.90625 756.34375 C 414.34175 678.00075 443.1163 601.06425 479.25 527.28125 C 489.09267 507.34068 499.0947 487.44513 509.3125 467.6875 C 526.58417 467.68462 543.85065 468.19453 561.125 469.09375 C 610.279 472.54375 658.59375 482.529 704.03125 501.625 C 725.04955 511.605 745.12455 524.054 755.28125 545.625 C 765.59955 576.583 759.9999 609.52025 754.9375 640.90625 C 744.6508 693.92325 728.00435 745.40275 710.34375 796.34375 C 698.70725 826.63475 688.6183 858.825 668.0625 884.5 C 656.9998 899.453 727.46855 951.60925 738.53125 936.65625 C 762.80645 902.49625 778.8802 863.95125 792.0625 824.28125 C 810.8463 768.60825 828.7474 712.45075 840.125 654.71875 C 848.4381 603.68675 854.1876 551.4195 831.6875 502.9375 C 807.4285 461.9645 780.1878 440.48925 736.6875 421.15625 C 681.8301 399.46525 624.2416 387.101 565.25 383.75 C 561.85925 383.59862 558.45377 383.46851 555.0625 383.34375 C 570.917 355.64804 587.46804 328.36359 605 301.65625 C 626.1498 270.48025 646.9387 237.2715 676.3125 213.0625 C 691.30744 203.84687 651.52412 137.00127 633.3125 136.78125 z M 612.53125 572.25 C 591.61186 573.29798 540.18524 617.43413 550.5 630.21875 C 570.488 652.48275 592.88025 672.40175 613.96875 693.59375 C 624.47905 704.05275 633.81285 715.545 643.03125 727.125 C 654.65605 741.576 722.78105 686.7645 711.15625 672.3125 C 699.91345 658.4515 688.56975 644.6785 675.90625 632.0625 C 656.99825 613.0025 636.9641 594.96425 619.375 574.65625 C 617.90146 572.82988 615.51973 572.10029 612.53125 572.25 z "
     id="path12830" />
</svg>
