<?xml version="1.0" encoding="UTF-8" standalone="no"?>
<svg
   xmlns:dc="http://purl.org/dc/elements/1.1/"
   xmlns:cc="http://creativecommons.org/ns#"
   xmlns:rdf="http://www.w3.org/1999/02/22-rdf-syntax-ns#"
   xmlns:svg="http://www.w3.org/2000/svg"
   xmlns="http://www.w3.org/2000/svg"
   xmlns:sodipodi="http://sodipodi.sourceforge.net/DTD/sodipodi-0.dtd"
   xmlns:inkscape="http://www.inkscape.org/namespaces/inkscape"
   width="1024"
   height="1024"
   id="U4E66"
   version="1.1"
   inkscape:version="0.48.0 r9654"
   sodipodi:docname="U+4E66.svg">
  <metadata
     id="metadata11">
    <rdf:RDF>
      <cc:Work
         rdf:about="">
        <dc:format>image/svg+xml</dc:format>
        <dc:type
           rdf:resource="http://purl.org/dc/dcmitype/StillImage" />
      </cc:Work>
    </rdf:RDF>
  </metadata>
  <defs
     id="defs9" />
  <sodipodi:namedview
     pagecolor="#ffffff"
     bordercolor="#666666"
     borderopacity="1"
     objecttolerance="10"
     gridtolerance="10"
     guidetolerance="10"
     inkscape:pageopacity="0"
     inkscape:pageshadow="2"
     inkscape:window-width="640"
     inkscape:window-height="480"
     id="namedview7"
     showgrid="false"
     inkscape:zoom="0.27441406"
     inkscape:cx="512"
     inkscape:cy="512"
     inkscape:window-x="0"
     inkscape:window-y="25"
     inkscape:window-maximized="0"
     inkscape:current-layer="U4E66" />
  <path
     style="fill:#782121;fill-opacity:1;fill-rule:nonzero;stroke:#f9f9f9;stroke-width:0.1;stroke-miterlimit:4;stroke-dasharray:none"
     d="M 407.21875 94.0625 C 395.12993 94.081752 385.90284 96.477813 384.84375 102.25 C 378.81415 145.9 378.5715 190.0875 377.5625 234.0625 C 377.22176 256.49576 376.73487 278.94998 376.125 301.375 C 365.58226 302.37886 355.07142 303.57452 344.5625 305 C 311.9982 309.476 279.33115 314.1355 247.65625 323.1875 C 229.78535 328.9695 257.03535 413.2195 274.90625 407.4375 C 301.49075 399.0015 329.26935 395.18625 356.78125 391.15625 C 362.24092 390.36424 367.68444 389.61527 373.15625 388.96875 C 370.9988 444.68714 368.37923 500.39815 365.71875 556.09375 C 365.66864 557.05243 365.61228 558.01005 365.5625 558.96875 C 355.26686 560.16992 344.96817 561.337 334.65625 562.40625 C 290.58605 567.10925 246.5006 572.04275 202.25 574.71875 C 183.5527 576.03575 189.77135 664.16075 208.46875 662.84375 C 253.72425 658.19375 298.89645 653.056 344.09375 647.875 C 349.91573 647.23578 355.74543 646.58503 361.5625 645.90625 C 358.55003 720.52038 356.76403 795.15731 356.90625 869.84375 C 357.13375 908.95675 358.689 948.0325 361.125 987.0625 C 362.5342 1005.4615 449.25295 998.8365 447.84375 980.4375 C 444.43795 943.4365 442.3913 906.31425 441.6875 869.15625 C 440.56414 791.21716 441.93051 713.31203 444.96875 635.4375 C 474.49962 631.64597 504.03355 627.96417 533.65625 624.9375 C 572.49535 621.1485 611.65425 621.26225 649.59375 630.90625 C 662.68585 636.05225 669.45475 634.954 670.53125 648.625 C 674.44735 683.514 669.8318 718.7375 666.0625 753.4375 C 661.0924 794.2605 656.33185 835.12925 649.28125 875.65625 C 646.52045 888.23625 648.1591 882.83975 645 891.96875 C 639.7724 909.91175 724.3349 934.568 729.5625 916.625 C 734.2396 899.124 732.20145 908.06325 735.65625 889.78125 C 742.15625 847.63025 746.8483 805.22925 752.0625 762.90625 C 757.3491 715.60425 764.29045 667.0875 753.53125 620.0625 C 750.81025 613.1145 748.82685 605.81775 745.34375 599.21875 C 729.72935 569.63575 700.62555 554.3255 669.59375 545.8125 C 621.87225 535.1965 573.2266 533.806 524.625 539.375 C 499.37199 542.12867 474.16314 545.29964 448.96875 548.53125 C 451.65077 493.67163 454.39965 438.83533 456.9375 383.96875 C 465.56521 383.88704 474.2131 383.93389 482.84375 384.0625 C 497.21034 386.61156 514.31521 384.47626 529.625 387.03125 C 529.64806 387.85897 529.70698 388.75661 529.75 389.8125 C 529.8757 410.7675 529.03375 431.7325 528.96875 452.6875 C 528.91885 473.9425 532.42115 494.90875 535.65625 515.84375 C 535.96435 517.97775 536.28565 520.117 536.59375 522.25 C 539.43105 540.786 626.80605 527.411 623.96875 508.875 C 623.58745 506.504 623.1939 504.121 622.8125 501.75 C 620.0675 485.531 617.14125 469.249 616.96875 452.75 C 616.93325 430.26 617.9888 407.8035 617.75 385.3125 C 615.8731 352.0655 606.65 321.7195 572.875 308.0625 C 543.9796 299.3695 513.76055 297.7785 483.71875 297.0625 C 476.04945 297.01568 468.3861 297.04057 460.71875 297.125 C 461.53555 277.03943 462.32635 256.93415 463.03125 236.84375 C 464.70535 197.26775 465.45485 157.37875 471.90625 118.21875 C 474.23626 105.52062 433.81416 94.020146 407.21875 94.0625 z M 689.9375 151.1875 C 663.34913 150.97773 622.84418 162.22769 625.09375 174.9375 C 633.44355 212.1515 653.04105 245.10625 672.90625 277.15625 C 683.45765 293.80325 695.19185 309.6555 706.96875 325.4375 C 718.12955 340.2285 787.87955 287.6035 776.71875 272.8125 C 766.37595 259.2785 756.06755 245.6935 746.90625 231.3125 C 732.93955 208.7755 718.1813 185.685 712.25 159.5 C 711.2275 153.72281 702.02312 151.28285 689.9375 151.1875 z M 537.75 388.9375 C 540.19802 389.70859 542.56775 390.663 544.84375 391.84375 C 542.00422 391.44507 539.67516 390.30386 537.75 388.9375 z "
     id="path10726" />
</svg>
