<?xml version="1.0" encoding="UTF-8" standalone="no"?>
<svg
   xmlns:dc="http://purl.org/dc/elements/1.1/"
   xmlns:cc="http://creativecommons.org/ns#"
   xmlns:rdf="http://www.w3.org/1999/02/22-rdf-syntax-ns#"
   xmlns:svg="http://www.w3.org/2000/svg"
   xmlns="http://www.w3.org/2000/svg"
   xmlns:sodipodi="http://sodipodi.sourceforge.net/DTD/sodipodi-0.dtd"
   xmlns:inkscape="http://www.inkscape.org/namespaces/inkscape"
   width="1024"
   height="1024"
   id="U4E0D"
   version="1.1"
   inkscape:version="0.48.0 r9654"
   sodipodi:docname="U+4E0D.svg">
  <metadata
     id="metadata11">
    <rdf:RDF>
      <cc:Work
         rdf:about="">
        <dc:format>image/svg+xml</dc:format>
        <dc:type
           rdf:resource="http://purl.org/dc/dcmitype/StillImage" />
      </cc:Work>
    </rdf:RDF>
  </metadata>
  <defs
     id="defs9" />
  <sodipodi:namedview
     pagecolor="#ffffff"
     bordercolor="#666666"
     borderopacity="1"
     objecttolerance="10"
     gridtolerance="10"
     guidetolerance="10"
     inkscape:pageopacity="0"
     inkscape:pageshadow="2"
     inkscape:window-width="640"
     inkscape:window-height="480"
     id="namedview7"
     showgrid="false"
     inkscape:zoom="0.27441406"
     inkscape:cx="512"
     inkscape:cy="512"
     inkscape:window-x="0"
     inkscape:window-y="25"
     inkscape:window-maximized="0"
     inkscape:current-layer="U4E0D" />
  <path
     style="fill:#aa0000;fill-opacity:1;fill-rule:nonzero;stroke:#f9f9f9;stroke-width:0.1;stroke-miterlimit:4;stroke-dasharray:none"
     d="M 591.0625 244.75 C 584.67564 244.75482 578.29306 244.76488 571.90625 244.8125 C 496.75295 245.8778 421.41415 248.729 347.09375 260.8125 C 296.15055 270.0509 244.05165 279.85525 198.28125 305.28125 C 182.77305 315.48755 230.8668 388.5813 246.375 378.375 C 282.0841 358.9862 323.0025 351.8074 362.5 344.375 C 372.99423 342.60697 383.52558 341.06384 394.0625 339.6875 C 385.97194 352.39276 377.90962 365.10287 369.875 377.84375 C 329.7468 440.54475 292.84945 505.1694 259.21875 571.5625 C 234.03425 621.5996 213.9332 673.87245 195.75 726.78125 C 191.4153 738.77155 187.82775 750.9745 184.65625 763.3125 C 180.47115 781.3814 265.6273 801.1315 269.8125 783.0625 C 271.6339 773.1801 274.61975 763.58615 277.71875 754.03125 C 293.52045 704.69435 311.5539 656.0626 334.6875 609.625 C 366.7998 545.6279 402.4253 483.51645 441.5625 423.53125 C 461.56824 392.47324 481.63604 361.42944 502.59375 331 C 526.02524 330.08258 549.50393 329.60996 572.9375 329.375 C 621.9375 329.2778 670.91705 330.72285 719.78125 334.40625 C 733.37065 335.62455 727.2367 335.00555 738.25 336.21875 C 756.734 337.75725 763.984 250.601 745.5 249.0625 C 733.1592 248.3269 739.9523 248.72545 725.125 247.90625 C 680.47025 245.72208 635.77051 244.71626 591.0625 244.75 z M 455.5 496.75 C 431.19971 496.70879 403.7363 502.74351 404.28125 513.1875 C 407.96405 549.7796 411.16275 586.40125 413.65625 623.09375 C 416.76255 674.77845 419.7419 726.4534 424.6875 778 C 427.6748 809.7933 433.8539 841.1323 441.625 872.0625 C 446.2982 889.8919 530.3607 867.86065 525.6875 850.03125 C 518.4176 823.64745 512.87105 796.79075 510.09375 769.53125 C 504.91875 719.00275 501.922 668.30685 499.1875 617.59375 C 496.9945 581.24125 494.0451 544.9707 491.8125 508.625 C 491.38869 500.50189 474.40023 496.78205 455.5 496.75 z M 569.375 541 C 550.86624 542.00199 508.51249 603.16257 522.40625 613.15625 C 554.68045 635.10135 588.55685 654.49325 622.59375 673.53125 C 655.29785 691.68975 688.2813 709.45855 719.75 729.71875 C 722.3596 731.59875 724.9529 733.4949 727.5625 735.375 C 742.7353 745.9013 792.3602 674.37005 777.1875 663.84375 C 773.4426 661.31525 769.6824 658.7786 765.9375 656.25 C 732.8527 635.8487 698.63995 617.43755 664.65625 598.59375 C 633.51355 581.06625 602.32515 563.3885 573.53125 542.125 C 572.35382 541.27808 570.94354 540.91509 569.375 541 z "
     id="path20323" />
</svg>
