<?xml version="1.0" encoding="UTF-8" standalone="no"?>
<svg
   xmlns:dc="http://purl.org/dc/elements/1.1/"
   xmlns:cc="http://creativecommons.org/ns#"
   xmlns:rdf="http://www.w3.org/1999/02/22-rdf-syntax-ns#"
   xmlns:svg="http://www.w3.org/2000/svg"
   xmlns="http://www.w3.org/2000/svg"
   xmlns:sodipodi="http://sodipodi.sourceforge.net/DTD/sodipodi-0.dtd"
   xmlns:inkscape="http://www.inkscape.org/namespaces/inkscape"
   width="1024"
   height="1024"
   id="U4E16"
   version="1.1"
   inkscape:version="0.48.0 r9654"
   sodipodi:docname="U+4E16.svg">
  <metadata
     id="metadata12">
    <rdf:RDF>
      <cc:Work
         rdf:about="">
        <dc:format>image/svg+xml</dc:format>
        <dc:type
           rdf:resource="http://purl.org/dc/dcmitype/StillImage" />
      </cc:Work>
    </rdf:RDF>
  </metadata>
  <defs
     id="defs10" />
  <sodipodi:namedview
     pagecolor="#ffffff"
     bordercolor="#666666"
     borderopacity="1"
     objecttolerance="10"
     gridtolerance="10"
     guidetolerance="10"
     inkscape:pageopacity="0"
     inkscape:pageshadow="2"
     inkscape:window-width="640"
     inkscape:window-height="480"
     id="namedview8"
     showgrid="false"
     inkscape:zoom="0.27441406"
     inkscape:cx="512"
     inkscape:cy="512"
     inkscape:window-x="0"
     inkscape:window-y="25"
     inkscape:window-maximized="0"
     inkscape:current-layer="U4E16" />
  <path
     style="fill:#a02c2c;fill-opacity:1;fill-rule:nonzero;stroke:#f9f9f9;stroke-width:0.1;stroke-miterlimit:4;stroke-dasharray:none"
     d="M 404.75 252.3125 C 399.23925 252.37813 395.27157 253.78862 393.90625 257.03125 C 379.88345 296.52325 376.5611 338.5465 374.25 380.0625 C 374.00347 387.3632 373.83664 394.66338 373.75 401.96875 C 356.06782 404.25488 338.41683 406.71275 320.78125 409.375 C 319.82232 409.51596 318.86517 409.67063 317.90625 409.8125 C 321.10108 379.14521 324.29409 348.37346 330.9375 318.25 C 335.2924 300.014 249.32365 279.514 244.96875 297.75 C 237.72155 335.852 234.25705 374.53775 230.40625 413.09375 C 230.06309 416.20712 229.76713 419.3233 229.4375 422.4375 C 215.19303 424.13324 200.91275 425.53328 186.59375 426.46875 C 167.88625 427.45975 172.57375 515.64725 191.28125 514.65625 C 201.58486 513.606 211.85498 512.40843 222.125 511.09375 C 220.95137 532.02855 220.18606 552.97782 219.9375 573.96875 C 219.69 625.68375 226.07205 676.8255 243.09375 725.6875 C 266.57255 779.0075 301.0557 795.65925 355.375 807.65625 C 413.6556 816.50725 472.77865 812.8 531.21875 807.875 C 592.25205 801.482 652.93905 792.37825 713.84375 784.90625 C 751.61625 780.24525 789.5443 776.148 827.625 778.25 C 838.1535 779.754 849.446 779.8815 859.5625 783.5625 C 877.7436 788.3395 900.27485 702.652 882.09375 697.875 C 865.41245 693.92 848.3785 691.58475 831.25 690.71875 C 788.3074 689.38875 745.5907 693.50475 703.0625 699.34375 C 643.407 707.04875 583.9052 716.11025 524.0625 722.28125 C 474.0248 726.39625 423.4465 729.6245 373.5 722.5625 C 353.5181 718.5675 334.4216 715.96875 325 695.84375 C 310.0155 657.37075 306.77635 615.9465 306.21875 574.9375 C 306.48928 549.27797 307.65079 523.69002 309.46875 498.125 C 317.51681 496.85077 325.57516 495.56114 333.625 494.3125 C 348.36887 491.97926 363.12299 489.80836 377.90625 487.78125 C 379.12044 497.72427 380.64238 507.63007 382.5 517.5 C 386.186 535.672 471.84225 518.297 468.15625 500.125 C 466.46228 492.61571 465.11743 485.07073 464.0625 477.46875 C 489.493 474.82745 514.95447 472.51468 540.4375 470.40625 C 546.57296 469.92837 552.70509 469.48657 558.84375 469.0625 C 557.03893 485.67841 555.03468 502.26527 552.96875 518.84375 C 552.71915 521.00219 552.43638 523.15918 552.15625 525.3125 C 526.02654 530.09869 499.98374 535.41322 473.90625 540.5 C 438.12615 547.248 402.2314 553.28425 366.125 558.03125 C 347.6325 561.21425 362.6326 648.40175 381.125 645.21875 C 417.5451 638.93075 453.94065 632.6445 490.21875 625.5625 C 531.54585 617.3785 572.8442 608.6855 614.6875 603.5625 C 618.3514 603.3085 621.99225 603.0655 625.65625 602.8125 C 634.96853 601.9945 637.68606 579.53922 635.71875 557.59375 C 637.14878 548.19966 638.44907 538.76779 639.46875 529.3125 C 642.01081 507.73334 644.53372 486.15851 646.6875 464.53125 C 669.43799 463.69298 692.17892 463.05039 714.9375 462.53125 C 731.7003 462.14525 748.4832 461.98075 765.25 462.09375 C 783.9899 461.72775 782.24 373.384 763.5 373.75 C 746.4059 374.531 729.31515 375.019 712.21875 375.75 C 692.19991 376.5486 672.17166 377.36991 652.15625 378.28125 C 652.53692 353.63028 652.25503 328.96528 651.3125 304.3125 C 650.6598 285.5495 562.19115 288.64325 562.84375 307.40625 C 564.79261 332.60218 565.28707 357.84411 564.9375 383.09375 C 554.40764 383.79826 543.86592 384.51748 533.34375 385.34375 C 509.09235 387.3743 484.86756 389.58872 460.65625 392.03125 C 460.69662 389.67687 460.73643 387.31896 460.78125 384.96875 C 462.59195 353.47675 464.6341 321.307 475.4375 291.375 C 481.35388 277.32362 428.62993 252.02809 404.75 252.3125 z "
     id="path12359" />
</svg>
