<?xml version="1.0" encoding="UTF-8" standalone="no"?>
<svg
   xmlns:dc="http://purl.org/dc/elements/1.1/"
   xmlns:cc="http://creativecommons.org/ns#"
   xmlns:rdf="http://www.w3.org/1999/02/22-rdf-syntax-ns#"
   xmlns:svg="http://www.w3.org/2000/svg"
   xmlns="http://www.w3.org/2000/svg"
   xmlns:sodipodi="http://sodipodi.sourceforge.net/DTD/sodipodi-0.dtd"
   xmlns:inkscape="http://www.inkscape.org/namespaces/inkscape"
   width="1024"
   height="1024"
   id="U4EE3"
   version="1.1"
   inkscape:version="0.48.0 r9654"
   sodipodi:docname="U+4EE3.svg">
  <metadata
     id="metadata12">
    <rdf:RDF>
      <cc:Work
         rdf:about="">
        <dc:format>image/svg+xml</dc:format>
        <dc:type
           rdf:resource="http://purl.org/dc/dcmitype/StillImage" />
      </cc:Work>
    </rdf:RDF>
  </metadata>
  <defs
     id="defs10" />
  <sodipodi:namedview
     pagecolor="#ffffff"
     bordercolor="#666666"
     borderopacity="1"
     objecttolerance="10"
     gridtolerance="10"
     guidetolerance="10"
     inkscape:pageopacity="0"
     inkscape:pageshadow="2"
     inkscape:window-width="640"
     inkscape:window-height="480"
     id="namedview8"
     showgrid="false"
     inkscape:zoom="0.27441406"
     inkscape:cx="512"
     inkscape:cy="512"
     inkscape:window-x="0"
     inkscape:window-y="25"
     inkscape:window-maximized="0"
     inkscape:current-layer="U4EE3" />
  <path
     style="fill:#800000;fill-opacity:1;fill-rule:nonzero;stroke:#f9f9f9;stroke-width:0.1;stroke-miterlimit:4;stroke-dasharray:none"
     d="M 673.1875 201.71875 C 651.67123 201.57248 597.91405 237.62098 606.34375 251.1875 C 628.12865 283.8547 651.6133 315.35 675 346.875 C 693.6945 372.142 684.43355 359.5644 702.78125 384.5625 C 713.57625 399.2347 782.7325 348.3596 771.9375 333.6875 C 753.3996 308.5519 762.7353 321.17365 744 295.84375 C 722.0986 266.15385 699.8977 236.54635 680.75 204.96875 C 679.3706 202.74879 676.70834 201.74269 673.1875 201.71875 z M 278.9375 223.6875 C 268.73035 223.55888 261.13821 225.55218 259.90625 230.625 C 249.68115 278.2373 232.5711 323.8924 214.5625 369 C 186.3014 436.3999 151.9431 500.96925 118.3125 565.78125 C 102.542 595.63955 87.6231 625.87285 75.0625 657.21875 C 68.5391 674.37485 149.4142 705.156 155.9375 688 C 166.1286 659.1481 179.88765 631.79055 193.71875 604.53125 C 196.80852 598.46594 199.89722 592.40397 203 586.34375 C 202.50229 593.36908 202.03693 600.40653 201.625 607.4375 C 198.8952 675.2972 203.93215 743.1092 210.28125 810.625 C 215.63495 860.7538 220.84315 911.57745 240.78125 958.28125 C 248.54005 974.98345 327.29005 938.42095 319.53125 921.71875 C 300.02165 887.11845 301.9501 840.5258 294.875 802.5 C 288.6977 739.4276 283.8342 676.0429 286.5625 612.625 C 289.3431 569.2075 293.36175 525.6636 304.96875 483.5625 C 307.15146 474.63329 287.42914 465.01309 266.40625 459.78125 C 275.66129 440.25673 284.59179 420.57956 293.0625 400.6875 C 312.995 351.8288 331.6266 302.42095 344.9375 251.28125 C 348.08584 238.31737 305.02244 224.01619 278.9375 223.6875 z M 498.46875 293.90625 C 483.00387 294.16606 470.3532 297.32671 469.6875 304.25 C 467.36469 358.58346 472.41083 412.84617 478.125 466.84375 C 477.70924 467.00114 477.29071 467.15497 476.875 467.3125 C 434.5591 483.8072 391.83165 500.3533 353.09375 524.375 C 338.06335 535.3211 389.6571 606.1961 404.6875 595.25 C 431.23542 578.2469 460.34788 565.82294 489.59375 554.125 C 500.34517 619.29587 515.9388 683.50605 536.09375 746.53125 C 559.31055 815.20205 591.60515 873.302 642.46875 924.875 C 667.40485 946.6685 696.36915 965.01435 729.96875 969.09375 C 737.46885 970.00435 745.0713 969.37805 752.625 969.53125 C 771.0412 969.07095 768.8536 882.25845 750.4375 882.71875 C 732.5234 887.10735 716.03775 874.02405 702.71875 863.84375 C 661.31155 824.49795 634.835 774.3174 616 720.6875 C 594.90852 656.44884 579.41469 590.71479 569.6875 523.90625 C 596.92264 514.07494 624.26446 504.50441 651.625 495.03125 C 668.8584 488.89115 639.9209 407.64115 622.6875 413.78125 C 601.78955 421.4378 580.85367 429.01772 559.9375 436.625 C 556.2045 395.37527 553.60861 353.90894 556.71875 312.59375 C 557.82825 301.05494 524.24355 293.47323 498.46875 293.90625 z "
     id="path21545" />
</svg>
