<?xml version="1.0" encoding="utf-8" ?>

<!DOCTYPE svg PUBLIC "-//W3C//DTD SVG 1.1//EN" 
  "http://www.w3.org/Graphics/SVG/1.1/DTD/svg11.dtd">
<svg 
    xmlns="http://www.w3.org/2000/svg"
    xmlns:xlink="http://www.w3.org/1999/xlink"
    xmlns:sodipodi="http://sodipodi.sourceforge.net/DTD/sodipodi-0.dtd"
    xmlns:inkscape="http://www.inkscape.org/namespaces/inkscape"
    width="1024" height="1024" id="U4E91">
<path d="m 11574.009,61730.469 c 34.938,-4.216 69.883,-8.365 104.825,-12.544 46.993,-6.255 94.027,-11.727 141.365,-14.419 37.074,-1.756 74.188,-1.369 111.215,1.028 19.662,0.658 38.231,4.051 56.288,11.728 16.719,8.612 -23.878,87.427 -40.597,78.815 l 0,0 c 14.227,3.755 -20.228,-5.265 -22.01,-3.063 -33.324,-2.696 -66.763,-3.227 -100.173,-1.824 -45.405,2.355 -90.495,7.696 -135.531,13.866 -34.848,4.376 -69.74,8.525 -104.408,14.201 -18.623,2.328 -29.596,-85.46 -10.974,-87.788 z" id="path13645" inkscape:connector-curvature="0" style="fill:#2b1100;fill-opacity:1;fill-rule:nonzero;stroke:none" transform="translate(-11264, -61440)"/><path d="m 11388.829,61984.678 c 43.49,-3.265 86.442,-11.718 129.356,-19.208 65.381,-12.249 131.1,-22.189 197.334,-28.337 53.02,-4.14 106.211,-5.638 159.375,-6.348 36.204,-0.814 72.263,2.045 107.923,8.141 10.485,1.514 20.556,4.366 30.585,7.654 17.622,6.486 -12.957,89.556 -30.579,83.069 l 0,0 c -3.609,-3.233 -11.689,-2.31 -15.6,-4.28 -30.148,-5.81 -60.742,-8.248 -91.457,-7.816 -50.87,0.334 -101.773,1.47 -152.524,5.127 -63.79,5.584 -127.062,15.139 -189.922,27.357 -46.308,8.492 -92.58,17.739 -139.413,22.87 -18.716,1.077 -23.794,-87.152 -5.078,-88.229 z" id="path13647" inkscape:connector-curvature="0" style="fill:#2b1100;fill-opacity:1;fill-rule:nonzero;stroke:none" transform="translate(-11264, -61440)"/><path d="m 11675.376,62062.118 c -12.153,31.789 -27.953,61.964 -44.265,91.768 -15.815,29.062 -34.565,56.594 -47.373,87.193 -5.424,17.261 1.474,12.956 -2.595,0.991 15.287,5.581 35.676,5.375 52.074,5.786 38.895,-0.517 77.635,-4.883 116.194,-9.714 36.975,-4.858 73.549,-12.219 109.844,-20.702 27.131,-6.563 54.142,-13.6 80.466,-22.923 15.792,-6.029 31.269,-12.84 46.591,-19.968 0.777,-0.438 1.555,-0.876 2.332,-1.313 16.756,-8.522 56.925,70.466 40.169,78.987 l 0,0 c -2.045,0.998 -4.09,1.996 -6.136,2.994 -17.866,7.82 -35.817,15.473 -54.122,22.218 -29.398,10.071 -59.418,18.003 -89.677,25.054 -39.245,8.946 -78.776,16.71 -118.711,21.902 -42.882,5.326 -85.957,10.186 -129.211,10.674 -38.674,-1.026 -78.055,-3.987 -109.915,-28.411 -4.475,-4.799 -9.645,-9.033 -13.425,-14.397 -18.531,-26.302 -15.602,-57.954 -4.197,-86.289 14.655,-32.586 33.592,-62.799 51.224,-93.821 13.816,-25.387 27.448,-51.064 36.951,-78.442 6.027,-17.773 89.809,10.64 83.782,28.413 z" id="path13651" inkscape:connector-curvature="0" style="fill:#2b1100;fill-opacity:1;fill-rule:nonzero;stroke:none" transform="translate(-11264, -61440)"/><path d="m 11964.282,62086.668 c 13.634,22.699 30.661,43.143 46.891,63.996 22.848,28.053 42.111,58.53 58.093,90.929 10.803,22.234 17.794,45.745 21.633,70.083 2.58,18.52 -84.723,30.683 -87.303,12.163 l 0,0 c -1.479,-15.354 -6.765,-29.915 -13.036,-43.933 -12.942,-27.073 -29.203,-52.218 -48.194,-75.484 -18.572,-23.681 -37.779,-46.973 -54.083,-72.32 -9.638,-16.122 66.361,-61.556 75.999,-45.434 z" id="path13653" inkscape:connector-curvature="0" style="fill:#2b1100;fill-opacity:1;fill-rule:nonzero;stroke:none" transform="translate(-11264, -61440)"/></svg>