<?xml version="1.0" encoding="UTF-8" standalone="no"?>
<svg
   xmlns:dc="http://purl.org/dc/elements/1.1/"
   xmlns:cc="http://creativecommons.org/ns#"
   xmlns:rdf="http://www.w3.org/1999/02/22-rdf-syntax-ns#"
   xmlns:svg="http://www.w3.org/2000/svg"
   xmlns="http://www.w3.org/2000/svg"
   xmlns:sodipodi="http://sodipodi.sourceforge.net/DTD/sodipodi-0.dtd"
   xmlns:inkscape="http://www.inkscape.org/namespaces/inkscape"
   width="1024"
   height="1024"
   id="U4E4B"
   version="1.1"
   inkscape:version="0.48.0 r9654"
   sodipodi:docname="U+4E4B.svg">
  <metadata
     id="metadata11">
    <rdf:RDF>
      <cc:Work
         rdf:about="">
        <dc:format>image/svg+xml</dc:format>
        <dc:type
           rdf:resource="http://purl.org/dc/dcmitype/StillImage" />
      </cc:Work>
    </rdf:RDF>
  </metadata>
  <defs
     id="defs9" />
  <sodipodi:namedview
     pagecolor="#ffffff"
     bordercolor="#666666"
     borderopacity="1"
     objecttolerance="10"
     gridtolerance="10"
     guidetolerance="10"
     inkscape:pageopacity="0"
     inkscape:pageshadow="2"
     inkscape:window-width="640"
     inkscape:window-height="480"
     id="namedview7"
     showgrid="false"
     inkscape:zoom="0.27441406"
     inkscape:cx="512"
     inkscape:cy="512"
     inkscape:window-x="0"
     inkscape:window-y="25"
     inkscape:window-maximized="0"
     inkscape:current-layer="U4E4B" />
  <path
     style="fill:#2b1100;fill-opacity:1;fill-rule:nonzero;stroke:none"
     d="M 405.625 174.28125 C 387.43528 173.62824 344.50431 238.45719 359.03125 248.375 C 383.15895 263.705 405.0632 282.0195 425.125 302.3125 C 435.50172 314.28983 432.82355 310.93269 439.28125 319.5 C 407.64747 318.64367 375.97936 318.64078 344.34375 320.09375 C 308.98775 321.67175 273.679 323.95225 238.3125 325.28125 C 219.5693 326.51825 225.41305 414.89425 244.15625 413.65625 C 278.93475 410.89125 313.7231 408.43875 348.5625 406.59375 C 398.3978 403.97175 448.295 405.61725 498.0625 408.65625 C 524.11219 410.53711 550.15913 412.50626 576.15625 415.03125 C 569.87911 420.55292 563.61443 426.09053 557.375 431.65625 C 508.8408 475.48925 464.6222 523.71575 421.5625 572.84375 C 386.6121 614.18375 351.881 655.683 315.75 696 C 294.1165 719.868 271.4358 742.74325 248.1875 765.03125 C 244.95466 768.0785 241.75414 771.1513 238.53125 774.21875 C 220.15592 776.01742 201.90669 778.82776 184.03125 783.71875 C 166.09465 789.29075 192.376 873.85425 210.3125 868.28125 C 225.80644 863.68639 241.77276 861.42975 257.84375 860.09375 C 264.02467 863.87836 269.33749 865.22 272.5625 862.53125 C 273.96382 861.32372 275.36372 860.09907 276.75 858.875 C 280.15039 858.6943 283.54613 858.50886 286.9375 858.34375 C 331.0903 857.65475 375.24955 858.145 419.40625 858.25 C 464.61935 857.687 509.6483 861.0485 554.5625 865.8125 C 595.5225 871.0385 636.6927 874.3095 677.9375 876.0625 C 711.7072 877.1895 745.4798 875.9115 779.25 875.5625 C 800.3263 875.2835 821.39235 875.04925 842.46875 875.40625 C 857.03975 875.91325 871.62745 875.871 886.15625 874.625 C 904.85925 872.832 896.3905 784.67575 877.6875 786.46875 C 866.3384 787.81175 854.899 787.2675 843.5 787.1875 C 821.6645 787.0435 799.8306 787.5345 778 787.9375 C 745.8322 788.5205 713.64485 789.88 681.46875 789 C 642.04455 787.472 602.7219 784.3055 563.5625 779.4375 C 515.744 774.5445 467.799 771.13925 419.6875 771.65625 C 401.29963 771.57962 382.91978 771.41442 364.53125 771.28125 C 369.92741 765.4355 375.27374 759.57048 380.5625 753.625 C 416.5274 712.833 451.2048 670.96725 486.125 629.28125 C 526.598 582.82325 568.32575 537.3235 614.53125 496.4375 C 641.83482 472.61822 669.36562 449.02759 698.125 426.96875 C 702.56066 429.61845 706.46184 430.43841 709.25 428.53125 C 735.8969 408.72525 717.0442 425.9485 718.3125 352.4375 C 705.0624 345.1035 693.47655 339.8645 678.28125 338.6875 C 659.26975 336.0315 640.13555 334.2365 621.09375 331.8125 C 581.86115 327.6215 542.4928 324.79475 503.125 322.21875 C 489.87752 321.47475 476.63356 320.84192 463.375 320.3125 C 486.91855 308.7408 518.70067 279.12304 510.6875 268.8125 C 495.627 249.7505 503.5541 259.1875 486.875 240.5625 C 462.7423 216.6295 436.83665 194.7345 408.90625 175.3125 C 407.93779 174.65131 406.83765 174.32478 405.625 174.28125 z "
     id="path14741" />
</svg>
