<?xml version="1.0" encoding="utf-8" ?>

<!DOCTYPE svg PUBLIC "-//W3C//DTD SVG 1.1//EN" 
  "http://www.w3.org/Graphics/SVG/1.1/DTD/svg11.dtd">
<svg 
    xmlns="http://www.w3.org/2000/svg"
    xmlns:xlink="http://www.w3.org/1999/xlink"
    xmlns:sodipodi="http://sodipodi.sourceforge.net/DTD/sodipodi-0.dtd"
    xmlns:inkscape="http://www.inkscape.org/namespaces/inkscape"
    width="1024" height="1024" id="U4E14">
<path d="m 8610.1674,39170.658 c -2.5368,51.248 -1.4184,102.579 -0,153.839 2.4414,81.245 10.3051,162.179 23.1193,242.416 3.2729,21.317 8.3313,42.14 15.286,62.512 5.4674,17.684 -77.8988,43.458 -83.3663,25.773 l 0,0 c -7.1161,-24.786 -13.0543,-49.806 -16.464,-75.424 -12.1362,-83.681 -20.0613,-167.907 -23.4889,-252.413 -2.1003,-52.981 -3.7331,-105.98 -3.5571,-159.011 0.4896,-18.768 88.9619,-16.46 88.4723,2.308 z" id="path11081" inkscape:connector-curvature="0" style="fill:#c83737;fill-opacity:1;fill-rule:nonzero;stroke:#f9f9f9;stroke-width:0.1;stroke-miterlimit:4;stroke-dasharray:none" transform="translate(-8192, -38912)"/><path d="m 8560.5352,39152.858 c 36.2139,-13.341 73.6062,-23.148 110.959,-32.7 45.056,-11.925 90.8857,-19.939 137.4065,-22.571 30.1734,0.301 64.0665,0.796 89.9074,18.974 6.0379,4.248 11.0255,9.82 16.5383,14.73 4.2726,6.902 9.4772,13.308 12.8178,20.706 18.5347,41.047 8.7239,92.709 4.1332,135.505 -9.1563,71.12 -19.3929,142.088 -27.9854,213.282 -5.7443,46.867 -9.2478,93.951 -12.6213,141.033 -0.557,12.296 -2.3491,24.382 -4.7524,36.424 -4.3056,18.256 -90.366,-2.04 -86.0605,-20.296 l 0,0 c 2.8891,-7.303 2.3545,-15.558 3.7124,-23.163 4.3389,-48.236 8.5073,-96.497 14.778,-144.533 8.9744,-70.5 19.2021,-140.838 27.4299,-211.431 1.9939,-20.931 3.4182,-32.223 4.1523,-52.654 0.032,-0.878 -1.7767,-30.87 -0.6864,-33.464 0.256,-0.609 1.3213,-0.02 1.982,-0.03 12.8812,-1.191 -42.8109,-13.328 -39.039,-8.048 -40.7028,1.64 -80.7086,9.157 -120.0749,19.517 -32.912,8.548 -65.9945,17.178 -97.5619,29.973 -17.236,7.432 -52.2711,-73.819 -35.035,-81.252 z" id="path11083" inkscape:connector-curvature="0" style="fill:#c83737;fill-opacity:1;fill-rule:nonzero;stroke:#f9f9f9;stroke-width:0.1;stroke-miterlimit:4;stroke-dasharray:none" transform="translate(-8192, -38912)"/><path d="m 8607.4635,39354.167 c 41.4605,-6.532 82.8673,-13.393 124.3602,-19.722 32.396,-5.164 64.7655,-9.918 97.582,-7.807 18.5643,1.799 10.0856,89.312 -8.4787,87.514 l 0,0 c -24.9727,-4.904 -51.2191,4.491 -76.0873,5.946 -40.6275,6.15 -81.2093,12.727 -121.4827,20.916 -18.4229,3.371 -34.3164,-83.475 -15.8935,-86.847 z" id="path11085" inkscape:connector-curvature="0" style="fill:#c83737;fill-opacity:1;fill-rule:nonzero;stroke:#f9f9f9;stroke-width:0.1;stroke-miterlimit:4;stroke-dasharray:none" transform="translate(-8192, -38912)"/><path d="m 8660.8636,39488.683 c 29.804,1.56 59.612,-1.145 89.2252,-4.264 15.9888,-2.312 32.0365,-3.33 48.1626,-3.787 18.6338,-0.215 19.646,87.626 1.0122,87.841 l 0,0 c -13.4621,-0.224 -26.814,0.909 -40.1723,2.671 -34.3175,3.515 -68.7599,6.461 -103.2952,5.858 -18.7353,-1.075 -13.6678,-89.394 5.0675,-88.319 z" id="path11087" inkscape:connector-curvature="0" style="fill:#c83737;fill-opacity:1;fill-rule:nonzero;stroke:#f9f9f9;stroke-width:0.1;stroke-miterlimit:4;stroke-dasharray:none" transform="translate(-8192, -38912)"/><path d="m 8421.7218,39691.063 c 46.0758,-2.603 91.8929,-8.579 137.7033,-13.975 81.6182,-10.211 163.5224,-17.486 245.6796,-21.322 70.5115,-3.722 140.4605,3.645 209.2216,18.797 33.9652,7.986 67.0242,19.184 99.7662,31.124 2.7263,1.073 5.4527,2.146 8.1791,3.22 17.3316,7.116 -16.2153,88.818 -33.5469,81.702 l 0,0 c -1.949,-0.847 -3.8979,-1.693 -5.8469,-2.54 -28.6897,-11.32 -57.7517,-21.802 -87.7111,-29.294 -61.082,-14.407 -123.3666,-21.316 -186.2258,-18.277 -79.9776,3.501 -159.6838,10.784 -239.0249,21.537 -47.2354,6.103 -94.4443,12.511 -141.8423,17.248 -18.7143,1.348 -25.0661,-86.872 -6.3519,-88.22 z" id="path11089" inkscape:connector-curvature="0" style="fill:#c83737;fill-opacity:1;fill-rule:nonzero;stroke:#f9f9f9;stroke-width:0.1;stroke-miterlimit:4;stroke-dasharray:none" transform="translate(-8192, -38912)"/></svg>