<?xml version="1.0" encoding="utf-8" ?>

<!DOCTYPE svg PUBLIC "-//W3C//DTD SVG 1.1//EN" 
  "http://www.w3.org/Graphics/SVG/1.1/DTD/svg11.dtd">
<svg 
    xmlns="http://www.w3.org/2000/svg"
    xmlns:xlink="http://www.w3.org/1999/xlink"
    xmlns:sodipodi="http://sodipodi.sourceforge.net/DTD/sodipodi-0.dtd"
    xmlns:inkscape="http://www.inkscape.org/namespaces/inkscape"
    width="1024" height="1024" id="U4E86">
<path d="m 8495.9122,28923.437 c 34.4158,-8.942 69.5236,-14.506 104.7392,-19.116 45.6728,-5.745 91.7065,-6.322 137.6616,-5.747 34.8687,0.47 69.5779,3.525 103.8372,9.996 15.2741,2.94 30.0688,7.754 45.0429,11.86 24.7377,6.163 33.9726,17.48 42.7828,41.349 3.0648,19.973 -3.5569,36.96 -14.0568,53.484 -11.7012,15.841 -25.8479,29.658 -39.6493,43.636 -22.6367,22.137 -43.4955,45.974 -64.5509,69.592 -20.8863,23.133 -41.3672,46.638 -60.5999,71.17 -1.9429,2.632 -3.8859,5.263 -5.8288,7.895 -11.245,14.898 -81.4764,-38.111 -70.2315,-53.009 l 0,0 c 2.4597,-3.201 4.9193,-6.403 7.379,-9.604 20.5878,-25.478 42.166,-50.126 64.0934,-74.457 21.8976,-24.657 43.5301,-49.584 66.8083,-72.967 9.7139,-10.089 19.4723,-20.155 28.4945,-30.875 1.3164,-1.587 -0.6642,13.108 1.2741,14.001 5.0665,11.911 10.8846,22.084 23.8329,26.362 0.2089,0.07 -0.3932,-0.197 -0.5897,-0.296 -1.2142,-0.357 -2.4283,-0.715 -3.6424,-1.072 -12.5219,-3.743 -24.9067,-7.986 -37.6691,-10.872 -28.9523,-6.128 -58.443,-8.52 -88.0076,-9.211 -41.6957,-0.712 -83.4776,-0.414 -124.9117,4.957 -31.1102,4.215 -62.2515,9.05 -92.3795,18.13 -18.0748,5.055 -41.9036,-80.151 -23.8287,-85.206 z" id="path9428" inkscape:connector-curvature="0" style="fill:#2b0000;fill-opacity:1;fill-rule:nonzero;stroke:#f9f9f9;stroke-width:0.1;stroke-miterlimit:4;stroke-dasharray:none" transform="translate(-8192, -28672)"/><path d="m 8721.4275,29154.957 c 4.8543,27.406 7.7502,55.061 10.0326,82.781 3.6269,43.235 4.6872,86.588 4.1968,129.953 -0.8684,43.417 -4.5028,86.716 -10.4534,129.718 -3.4614,22.317 -7.5376,44.589 -14.0542,66.233 -4.9362,16.472 -14.6527,30.122 -26.8798,41.913 -10.176,9.258 -22.4024,15.196 -35.3276,19.501 -1.996,0.519 -3.9919,1.038 -5.9879,1.558 -18.3002,4.448 -39.2697,-81.82 -20.9695,-86.268 l 0,0 c 0.094,0.01 0.1876,0.02 0.2814,0.03 2.0624,-0.423 0.6468,0.246 1.7689,0.03 1.223,-0.541 1.705,0.4 2.7014,-3.178 5.6706,-17.017 8.753,-34.783 11.9424,-52.393 5.9795,-39.08 9.5443,-78.5 10.2695,-118.045 0.3732,-40.59 -0.8679,-81.159 -4.582,-121.599 -2.233,-25.011 -4.7606,-50.041 -10.1013,-74.618 -3.3142,-18.49 83.8485,-34.114 87.1627,-15.624 z" id="path9430" inkscape:connector-curvature="0" style="fill:#2b0000;fill-opacity:1;fill-rule:nonzero;stroke:#f9f9f9;stroke-width:0.1;stroke-miterlimit:4;stroke-dasharray:none" transform="translate(-8192, -28672)"/></svg>