<?xml version="1.0" encoding="UTF-8" standalone="no"?>
<svg
   xmlns:dc="http://purl.org/dc/elements/1.1/"
   xmlns:cc="http://creativecommons.org/ns#"
   xmlns:rdf="http://www.w3.org/1999/02/22-rdf-syntax-ns#"
   xmlns:svg="http://www.w3.org/2000/svg"
   xmlns="http://www.w3.org/2000/svg"
   xmlns:sodipodi="http://sodipodi.sourceforge.net/DTD/sodipodi-0.dtd"
   xmlns:inkscape="http://www.inkscape.org/namespaces/inkscape"
   width="1024"
   height="1024"
   id="U4ED6"
   version="1.1"
   inkscape:version="0.48.0 r9654"
   sodipodi:docname="U+4ED6.svg">
  <metadata
     id="metadata12">
    <rdf:RDF>
      <cc:Work
         rdf:about="">
        <dc:format>image/svg+xml</dc:format>
        <dc:type
           rdf:resource="http://purl.org/dc/dcmitype/StillImage" />
      </cc:Work>
    </rdf:RDF>
  </metadata>
  <defs
     id="defs10" />
  <sodipodi:namedview
     pagecolor="#ffffff"
     bordercolor="#666666"
     borderopacity="1"
     objecttolerance="10"
     gridtolerance="10"
     guidetolerance="10"
     inkscape:pageopacity="0"
     inkscape:pageshadow="2"
     inkscape:window-width="640"
     inkscape:window-height="480"
     id="namedview8"
     showgrid="false"
     inkscape:zoom="0.27441406"
     inkscape:cx="512"
     inkscape:cy="512"
     inkscape:window-x="0"
     inkscape:window-y="25"
     inkscape:window-maximized="0"
     inkscape:current-layer="U4ED6" />
  <path
     style="fill:#782121;fill-opacity:1;fill-rule:nonzero;stroke:#f9f9f9;stroke-width:0.1;stroke-miterlimit:4;stroke-dasharray:none"
     d="M 293.5 154.21875 C 290.50949 154.32638 288.21749 155.27237 286.90625 157.21875 C 263.12765 193.81675 238.85365 230.08725 214.28125 266.15625 C 175.92765 323.37725 132.8157 377.0555 87.3125 428.6875 C 60.4791 456.6625 35.1193 486.83725 4.3125 510.65625 C -10.0835 522.53625 45.9165 590.41125 60.3125 578.53125 C 93.3971 550.07325 122.48415 517.33575 151.78125 485.09375 C 159.79963 475.8677 167.74306 466.58953 175.625 457.25 C 175.29363 485.08698 175.42441 512.95903 175.34375 540.78125 C 175.25255 613.18325 173.76055 685.5465 172.65625 757.9375 C 172.09335 800.6335 171.4152 843.33625 172.375 886.03125 C 173.3319 901.34925 172.5793 893.913 174.5625 908.375 C 177.6746 926.868 264.83085 912.21075 261.71875 893.71875 C 260.18855 888.30275 261.02405 891.81375 260.09375 882.96875 C 258.07695 841.65375 258.29125 800.2895 258.40625 758.9375 C 258.95975 686.4065 260.1172 613.87475 260.6875 541.34375 C 261.2309 490.36075 260.78655 439.131 266.15625 388.375 C 266.95292 381.91349 256.88204 376.39312 243.3125 372.71875 C 257.61013 353.75576 271.50865 334.46651 284.9375 314.84375 C 310.0835 278.79175 334.7656 242.42725 360.3125 206.65625 C 369.49116 193.03163 314.4336 153.46532 293.5 154.21875 z M 480.875 259.9375 C 477.8837 259.94304 475.56386 260.78775 474.1875 262.6875 C 447.0437 303.9445 430.5482 350.639 415.6875 397.375 C 408.35107 421.5408 402.71782 445.99965 398.5625 470.625 C 375.4491 478.56276 352.53255 487.00297 330 496.5 C 312.9981 504.481 350.59185 584.63725 367.59375 576.65625 C 374.76054 573.28243 382.01612 570.09516 389.3125 567.03125 C 388.57533 591.54592 388.91968 616.14486 390.1875 640.75 C 396.6834 704.09 412.97385 768.00025 453.15625 818.90625 C 460.41625 828.10325 469.03085 836.131 476.96875 844.75 C 533.16915 895.33 597.8203 906.9665 670.8125 908.8125 C 728.5314 908.1595 784.7992 894.68625 840.4375 880.65625 C 873.0042 872.67125 905.26695 863.6135 937.71875 855.1875 C 954.53495 851.2855 971.32 847.7365 987.125 840.6875 C 1003.9475 832.2545 964.16625 752.942 947.34375 761.375 C 953.55655 759.872 926.46715 767.371 925.96875 767.5 C 922.31975 768.447 918.67745 769.38675 915.03125 770.34375 C 882.98865 779.15075 851.0822 788.45525 818.875 796.65625 C 770.8889 809.18025 722.4291 821.57875 672.5625 822.84375 C 624.9707 822.21175 577.3726 817.00925 539.375 785.40625 C 495.1712 741.21225 482.3997 697.5185 475.125 636.0625 C 473.12021 602.53064 473.15688 568.99253 475.96875 535.75 C 476.98004 535.41794 477.98877 535.08161 479 534.75 C 508.60053 525.13483 538.60826 516.94094 568.84375 509.75 C 567.04969 536.87069 564.90141 563.98614 562.5 591.0625 C 560.1529 615.2465 561.3586 603.9605 559 624.8125 C 557.2299 643.3015 644.38625 651.64525 646.15625 633.15625 C 647.89335 611.26425 646.96855 622.9815 648.84375 598.0625 C 651.46643 562.57394 653.96152 527.08792 656 491.5625 C 657.08374 491.36361 658.16599 491.16605 659.25 490.96875 C 698.9471 484.18475 738.94455 478.425 779.28125 478.375 C 780.14899 478.42338 780.90709 478.49924 781.6875 478.5625 C 780.58869 505.82067 776.30898 532.84595 772.125 559.78125 C 766.9212 592.79925 761.43065 625.784 755.90625 658.75 C 754.23205 667.077 755.35875 663.834 753.46875 668.625 C 748.53625 686.728 833.84875 709.978 838.78125 691.875 C 841.94405 678.826 840.6099 685.36725 842.8125 672.28125 C 847.5832 639.21725 852.6589 606.20475 857.9375 573.21875 C 864.4005 532.27675 873.33735 490.2925 865.84375 448.9375 C 863.11235 442.0705 861.41035 434.70975 857.65625 428.34375 C 840.62155 399.46075 809.3533 390.8625 778 390.8125 C 738.44534 391.81201 699.18597 396.74911 660.21875 403.4375 C 661.70907 371.18349 663.42152 338.88389 668.59375 307 C 671.75645 288.498 584.5377 273.59175 581.375 292.09375 C 576.0057 334.46975 574.82005 377.235 573.21875 419.875 C 573.2097 420.18757 573.19669 420.49993 573.1875 420.8125 C 546.06621 426.85947 519.07133 433.56407 492.3125 441.0625 C 493.87753 435.24046 495.52398 429.44305 497.3125 423.65625 C 509.6537 385.82225 522.9077 347.55875 545.8125 314.59375 C 555.44704 301.2955 501.81407 259.89875 480.875 259.9375 z M 788.21875 479.375 C 795.95757 480.78031 794.49253 482.56377 788.21875 479.375 z "
     id="path11568" />
</svg>
