<?xml version="1.0" encoding="utf-8" ?>

<!DOCTYPE svg PUBLIC "-//W3C//DTD SVG 1.1//EN" 
  "http://www.w3.org/Graphics/SVG/1.1/DTD/svg11.dtd">
<svg 
    xmlns="http://www.w3.org/2000/svg"
    xmlns:xlink="http://www.w3.org/1999/xlink"
    xmlns:sodipodi="http://sodipodi.sourceforge.net/DTD/sodipodi-0.dtd"
    xmlns:inkscape="http://www.inkscape.org/namespaces/inkscape"
    width="1024" height="1024" id="U4E1C">
<path d="m 11528.61,9531.5926 c 43.941,0.4535 87.614,-6.7092 130.989,-12.9425 70.641,-10.644 141.071,-22.6311 211.479,-34.7006 44.31,-8.0241 88.828,-14.973 132.984,-23.8333 18.137,-3.3244 33.808,82.1742 15.671,85.4985 l 0,0 c -44.821,7.4896 -89.774,14.1803 -134.559,21.9026 -71.026,11.7866 -142.013,23.8187 -213.115,35.1392 -48.662,7.4349 -97.519,15.5113 -146.841,16.4445 -18.563,-0.7195 -15.172,-88.2279 3.392,-87.5084 z" id="path22231" inkscape:connector-curvature="0" style="fill:#550000;fill-opacity:1;fill-rule:nonzero;stroke:#f9f9f9;stroke-width:0.1;stroke-miterlimit:4;stroke-dasharray:none" transform="translate(-11264, -9216)"/><path d="m 11800.84,9392.6713 c -15.991,49.5411 -39.044,96.3652 -62.331,142.7846 -30.252,58.6146 -63.576,115.5599 -95.65,173.1789 -8.385,15.8815 -17.773,31.3294 -25.025,47.7963 -1.162,2.6394 -2.278,5.3196 -3.034,8.1028 -0.175,0.6456 0.07,2.6142 0.294,1.9855 0.878,-2.4136 1.145,-5.0077 1.718,-7.5116 10.275,-1.4274 -12.983,-24.3084 -10.336,-24.6107 11.255,-1.2856 26.826,0.7012 38.31,0.4141 52.907,-3.3538 105.359,-11.5456 157.839,-18.761 48.93,-7.1533 98.019,-13.0147 147.434,-15.202 5.891,-0.1089 11.781,-0.2926 17.673,-0.3266 11.887,-0.069 23.764,0.3868 35.646,0.5727 6.341,0.099 6.922,0.2716 3.7,-0.2282 18.626,-1.1683 24.133,86.6342 5.507,87.8024 l 0,0 c -19.773,0.2023 -39.516,-2.5582 -59.318,-1.5885 -46.625,1.3559 -92.919,6.9403 -139.077,13.4832 -55.501,7.5596 -110.923,16.3437 -166.827,20.3729 -34.841,1.1767 -82.097,5.1129 -106.218,-26.7932 -5.66,-7.4877 -7.567,-17.1804 -11.35,-25.7706 0.07,-7.1588 -0.659,-14.3708 0.215,-21.4765 3.636,-29.5658 26.452,-54.2927 38.371,-80.4144 32.124,-55.8427 65.058,-111.279 94.251,-168.7402 20.436,-41.5236 41.015,-83.4452 53.758,-128.1018 4.886,-17.9145 89.336,5.1173 84.45,23.0319 z" id="path22233" inkscape:connector-curvature="0" style="fill:#550000;fill-opacity:1;fill-rule:nonzero;stroke:#f9f9f9;stroke-width:0.1;stroke-miterlimit:4;stroke-dasharray:none" transform="translate(-11264, -9216)"/><path d="m 11858.827,9618.7978 c -13.426,42.0314 -17.953,86.2935 -23.19,129.9115 -8.755,77.9166 -14.649,156.1129 -18.885,234.3939 -3.078,51.9818 -2.522,104.0478 -2.687,156.0858 -0.531,16.502 0.122,8.406 -1.89,24.295 -3.152,18.303 -89.436,3.445 -86.284,-14.858 l 0,0 c 2.304,-4.235 0.739,-0.894 1.536,-10.963 1.753,-53.102 1.657,-106.275 5.179,-159.3173 4.705,-79.8726 10.692,-159.6721 18.779,-239.2794 5.426,-49.7396 10.573,-99.8889 24.47,-148.1371 5.912,-17.601 88.884,10.2675 82.972,27.8686 z" id="path22235" inkscape:connector-curvature="0" style="fill:#550000;fill-opacity:1;fill-rule:nonzero;stroke:#f9f9f9;stroke-width:0.1;stroke-miterlimit:4;stroke-dasharray:none" transform="translate(-11264, -9216)"/><path d="m 11701.407,9947.877 c -27.878,23.522 -53.121,49.9299 -77.77,76.751 -12.45,17.521 -33.438,32.137 -40.473,53.179 -8.156,16.599 -86.402,-21.847 -78.246,-38.445 l 0,0 c 14.58,-27.197 34.515,-50.4302 55.471,-72.9928 26.877,-29.1164 54.345,-57.7077 83.57,-84.4954 14.002,-12.1863 71.449,53.8168 57.448,66.0032 z" id="path22237" inkscape:connector-curvature="0" style="fill:#550000;fill-opacity:1;fill-rule:nonzero;stroke:#f9f9f9;stroke-width:0.1;stroke-miterlimit:4;stroke-dasharray:none" transform="translate(-11264, -9216)"/><path d="m 11952.866,9922.1179 c 28.967,15.3551 55.254,34.8315 80.364,55.7679 28.342,24.0842 52.012,52.6652 72.339,83.6622 9.974,15.49 -63.046,62.504 -73.019,47.015 l 0,0 c -15.055,-24.004 -33.128,-45.856 -54.721,-64.324 -20.148,-16.851 -41.249,-32.701 -64.998,-44.196 -16.531,-8.4928 23.504,-86.4178 40.035,-77.9251 z" id="path22239" inkscape:connector-curvature="0" style="fill:#550000;fill-opacity:1;fill-rule:nonzero;stroke:#f9f9f9;stroke-width:0.1;stroke-miterlimit:4;stroke-dasharray:none" transform="translate(-11264, -9216)"/></svg>