<?xml version="1.0" encoding="UTF-8" standalone="no"?>
<svg
   xmlns:dc="http://purl.org/dc/elements/1.1/"
   xmlns:cc="http://creativecommons.org/ns#"
   xmlns:rdf="http://www.w3.org/1999/02/22-rdf-syntax-ns#"
   xmlns:svg="http://www.w3.org/2000/svg"
   xmlns="http://www.w3.org/2000/svg"
   xmlns:sodipodi="http://sodipodi.sourceforge.net/DTD/sodipodi-0.dtd"
   xmlns:inkscape="http://www.inkscape.org/namespaces/inkscape"
   width="1024"
   height="1024"
   id="U4EFB"
   version="1.1"
   inkscape:version="0.48.0 r9654"
   sodipodi:docname="U+4EFB.svg">
  <metadata
     id="metadata13">
    <rdf:RDF>
      <cc:Work
         rdf:about="">
        <dc:format>image/svg+xml</dc:format>
        <dc:type
           rdf:resource="http://purl.org/dc/dcmitype/StillImage" />
      </cc:Work>
    </rdf:RDF>
  </metadata>
  <defs
     id="defs11" />
  <sodipodi:namedview
     pagecolor="#ffffff"
     bordercolor="#666666"
     borderopacity="1"
     objecttolerance="10"
     gridtolerance="10"
     guidetolerance="10"
     inkscape:pageopacity="0"
     inkscape:pageshadow="2"
     inkscape:window-width="640"
     inkscape:window-height="480"
     id="namedview9"
     showgrid="false"
     inkscape:zoom="0.27441406"
     inkscape:cx="512"
     inkscape:cy="512"
     inkscape:window-x="0"
     inkscape:window-y="25"
     inkscape:window-maximized="0"
     inkscape:current-layer="U4EFB" />
  <path
     style="fill:#a02c2c;fill-opacity:1;fill-rule:nonzero;stroke:#f9f9f9;stroke-width:0.1;stroke-miterlimit:4;stroke-dasharray:none"
     d="M 724.28125 134.78125 C 722.27411 134.80713 720.58057 135.37381 719.34375 136.625 C 688.45615 169.416 656.45295 201.158 624.71875 233.125 C 575.85465 282.877 527.0939 332.70525 476.8125 381.03125 C 446.3389 409.98125 414.92975 437.9265 381.90625 463.9375 C 367.43885 475.6355 422.56385 543.823 437.03125 532.125 C 471.38575 503.679 504.31665 473.601 536.40625 442.625 C 561.7891 417.89825 586.86243 392.84453 611.84375 367.71875 C 609.69908 386.77679 608.27498 405.93427 606.84375 424.96875 C 604.33586 471.4518 603.3197 517.9857 602.8125 564.53125 C 578.13966 567.0252 553.47573 569.62862 528.8125 572.25 C 483.2562 576.439 437.51975 580.504 391.71875 578.75 C 372.97965 578.622 372.3859 666.96575 391.125 667.09375 C 439.9242 666.90475 488.52205 662.496 537.03125 657.625 C 558.76394 655.15971 580.49927 652.76108 602.25 650.5 C 602.23963 653.41788 602.22932 656.33227 602.21875 659.25 C 601.99727 696.14213 602.45019 733.04662 602.5 769.9375 C 568.90867 771.11483 535.33197 772.71212 501.78125 774.84375 C 449.69065 778.39575 397.6577 782.63225 345.6875 787.65625 C 327.1095 789.97825 338.0471 877.54075 356.625 875.21875 C 406.8104 868.14875 457.354 864.021 507.875 860.25 C 577.3384 855.428 646.9448 853.4105 716.5625 853.1875 C 766.5403 853.0925 816.3634 856.91825 866 862.40625 C 885.7643 864.71425 905.35105 868.232 924.71875 872.75 C 943.02095 876.699 961.6147 790.449 943.3125 786.5 C 920.714 781.955 897.97275 778.238 875.03125 775.875 C 822.19625 770.677 769.189 767.11125 716.0625 767.53125 C 707.01281 767.6062 697.95513 767.68428 688.90625 767.8125 C 688.19042 731.67608 687.39485 695.52067 687.4375 659.375 C 687.43265 653.73597 687.43846 648.10851 687.4375 642.46875 C 704.80057 641.02377 722.17182 639.70921 739.5625 638.5625 C 782.5057 635.9675 825.52375 635.4345 868.53125 635.0625 C 872.34985 634.9225 876.15015 634.765 879.96875 634.625 C 898.62255 633.595 893.7787 545.6575 875.125 546.6875 C 872.2802 546.9145 869.43855 547.148 866.59375 547.375 C 822.26825 548.953 777.91625 549.8825 733.65625 552.9375 C 718.38616 554.03503 703.126 555.26658 687.875 556.5625 C 688.42629 514.94286 689.62584 473.3283 692.21875 431.78125 C 695.70545 390.76225 698.5249 348.64575 713 309.71875 C 715.79859 303.28183 706.19226 294.3302 692.6875 286.53125 C 722.44457 257.19061 752.3249 227.9804 782.28125 198.84375 C 794.23713 186.74894 743.68364 134.53111 724.28125 134.78125 z M 350 137.15625 C 348.78634 137.2049 347.68538 137.55287 346.71875 138.21875 C 312.15395 165.00375 282.54035 197.41925 253.34375 229.78125 C 212.36565 275.62725 177.0331 325.97275 143.8125 377.59375 C 130.5179 398.51275 118.1172 419.958 105.875 441.5 C 96.884 457.596 172.759 499.971 181.75 483.875 C 192.833 463.657 204.12755 443.55825 216.40625 424.03125 C 217.99688 421.53019 219.58473 419.02489 221.1875 416.53125 C 219.63958 442.22054 217.71324 467.90338 216.21875 493.59375 C 211.72585 570.10275 211.4612 646.75475 213.375 723.34375 C 215.1746 777.64375 218.9868 831.8705 227.375 885.5625 C 230.4348 903.7025 315.9348 889.29625 312.875 871.15625 C 303.7828 821.66625 300.29825 771.39425 298.34375 721.15625 C 296.37305 647.12125 296.8491 573.00675 302.0625 499.09375 C 305.0119 457.09475 309.0521 415.1985 311.75 373.1875 C 311.75 362.72453 284.27232 358.10947 259.9375 359.3125 C 277.78231 334.5049 296.69759 310.48591 317.21875 287.75 C 342.05885 260.565 367.1138 232.99 396.9375 211.125 C 411.43687 201.13594 368.20484 136.42645 350 137.15625 z "
     id="path11535" />
</svg>
