<?xml version="1.0" encoding="UTF-8" standalone="no"?>
<svg
   xmlns:dc="http://purl.org/dc/elements/1.1/"
   xmlns:cc="http://creativecommons.org/ns#"
   xmlns:rdf="http://www.w3.org/1999/02/22-rdf-syntax-ns#"
   xmlns:svg="http://www.w3.org/2000/svg"
   xmlns="http://www.w3.org/2000/svg"
   xmlns:sodipodi="http://sodipodi.sourceforge.net/DTD/sodipodi-0.dtd"
   xmlns:inkscape="http://www.inkscape.org/namespaces/inkscape"
   width="1024"
   height="1024"
   id="U4E60"
   version="1.1"
   inkscape:version="0.48.0 r9654"
   sodipodi:docname="U+4E60.svg">
  <metadata
     id="metadata10">
    <rdf:RDF>
      <cc:Work
         rdf:about="">
        <dc:format>image/svg+xml</dc:format>
        <dc:type
           rdf:resource="http://purl.org/dc/dcmitype/StillImage" />
      </cc:Work>
    </rdf:RDF>
  </metadata>
  <defs
     id="defs8" />
  <sodipodi:namedview
     pagecolor="#ffffff"
     bordercolor="#666666"
     borderopacity="1"
     objecttolerance="10"
     gridtolerance="10"
     guidetolerance="10"
     inkscape:pageopacity="0"
     inkscape:pageshadow="2"
     inkscape:window-width="640"
     inkscape:window-height="480"
     id="namedview6"
     showgrid="false"
     inkscape:zoom="0.27441406"
     inkscape:cx="512"
     inkscape:cy="512"
     inkscape:window-x="0"
     inkscape:window-y="25"
     inkscape:window-maximized="0"
     inkscape:current-layer="U4E60" />
  <path
     style="fill:#501616;fill-opacity:1;fill-rule:nonzero;stroke:#f9f9f9;stroke-width:0.1;stroke-miterlimit:4;stroke-dasharray:none"
     d="M 483.90625 172.65625 C 439.56972 172.99047 395.4709 177.913 352 188.125 C 313.4746 197.015 275.196 207.01575 238.1875 221.09375 C 220.8025 228.17675 254.1775 310.1455 271.5625 303.0625 C 303.7809 289.2915 337.757 280.4135 371.75 272.3125 C 421.3755 260.4625 471.98495 256.39075 522.78125 259.96875 C 561.15915 263.62175 595.8017 276.70225 624.875 301.90625 C 652.0645 330.63325 660.46805 369.34825 667.90625 406.90625 C 677.74925 471.49225 677.7778 537.0195 677.3125 602.1875 C 675.6886 665.3265 675.5696 728.472 675.8125 791.625 C 675.462 817.77 676.737 844.30675 671.625 870.09375 C 668.6119 888.50375 755.39315 902.69125 758.40625 884.28125 C 762.88575 853.32225 762.9356 822.08075 762.1875 790.84375 C 761.3087 728.14975 761.1275 665.47025 762.6875 602.78125 C 763.1746 531.82425 763.17105 460.47625 752.40625 390.15625 C 740.98545 332.51625 724.71675 276.17175 680.15625 234.84375 C 632.31745 196.56875 589.5317 180.0465 528.3125 173.8125 C 513.49275 172.9305 498.68509 172.54484 483.90625 172.65625 z M 402.25 394.8125 C 383.51154 394.57254 336.66001 453.41741 350 464.4375 C 375.2963 485.4745 395.3069 511.7855 414.4375 538.3125 C 418.2135 544.0505 422.00525 549.79225 425.78125 555.53125 C 435.93565 570.88725 508.31065 523.01225 498.15625 507.65625 C 493.70305 500.95025 489.2658 494.23725 484.8125 487.53125 C 461.2891 454.94825 436.47905 423.05075 406.34375 396.21875 C 405.21324 395.28484 403.83801 394.83284 402.25 394.8125 z M 606.5625 591.625 C 605.70362 591.66288 604.88837 591.85339 604.125 592.25 C 572.9353 608.723 588.8711 600.14525 556.375 618.03125 C 496.766 651.32125 436.90735 684.153 377.96875 718.625 C 336.69615 742.982 295.84075 768.043 254.78125 792.75 C 238.87485 802.675 285.6561 877.64275 301.5625 867.71875 C 340.9713 841.51775 381.2395 816.68875 421.8125 792.34375 C 479.7598 757.95675 538.8487 725.5565 597.9375 693.1875 C 629.5892 676.2235 614.22615 684.24525 644.03125 669.03125 C 659.55318 660.96591 624.02631 590.85483 606.5625 591.625 z "
     id="path13218" />
</svg>
