<?xml version="1.0" encoding="UTF-8" standalone="no"?>
<svg
   xmlns:dc="http://purl.org/dc/elements/1.1/"
   xmlns:cc="http://creativecommons.org/ns#"
   xmlns:rdf="http://www.w3.org/1999/02/22-rdf-syntax-ns#"
   xmlns:svg="http://www.w3.org/2000/svg"
   xmlns="http://www.w3.org/2000/svg"
   xmlns:sodipodi="http://sodipodi.sourceforge.net/DTD/sodipodi-0.dtd"
   xmlns:inkscape="http://www.inkscape.org/namespaces/inkscape"
   width="1024"
   height="1024"
   id="U4EBF"
   version="1.1"
   inkscape:version="0.48.0 r9654"
   sodipodi:docname="U+4EBF.svg">
  <metadata
     id="metadata10">
    <rdf:RDF>
      <cc:Work
         rdf:about="">
        <dc:format>image/svg+xml</dc:format>
        <dc:type
           rdf:resource="http://purl.org/dc/dcmitype/StillImage" />
      </cc:Work>
    </rdf:RDF>
  </metadata>
  <defs
     id="defs8" />
  <sodipodi:namedview
     pagecolor="#ffffff"
     bordercolor="#666666"
     borderopacity="1"
     objecttolerance="10"
     gridtolerance="10"
     guidetolerance="10"
     inkscape:pageopacity="0"
     inkscape:pageshadow="2"
     inkscape:window-width="640"
     inkscape:window-height="480"
     id="namedview6"
     showgrid="false"
     inkscape:zoom="0.27441406"
     inkscape:cx="512"
     inkscape:cy="512"
     inkscape:window-x="0"
     inkscape:window-y="25"
     inkscape:window-maximized="0"
     inkscape:current-layer="U4EBF" />
  <path
     style="fill:#2b1100;fill-opacity:1;fill-rule:nonzero;stroke:none"
     d="M 285.34375 236.46875 C 283.75557 236.43389 282.35009 236.82445 281.1875 237.71875 C 243.2286 272.36075 214.19405 315.40625 185.28125 357.53125 C 146.85665 415.25125 110.5562 474.40275 77.25 535.21875 C 60.2234 565.80875 46.1038 597.05525 42.625 632.03125 C 41.8622 650.71425 129.95595 654.307 130.71875 635.625 C 127.59305 633.545 128.89845 634.86975 131.09375 627.09375 C 136.13895 609.22375 145.1529 592.73375 153.125 576.09375 C 172.51328 539.52118 193.23211 503.68519 215.125 468.5625 C 215.08243 511.86804 215.20373 555.19469 215.3125 598.5 C 215.2862 663.228 216.5471 727.933 218.625 792.625 C 219.2112 820.079 220.9667 847.43675 225 874.59375 C 228.061 892.94275 314.5611 878.50525 311.5 860.15625 C 306.9571 836.85325 305.885 813.1195 304.8125 789.4375 C 302.1445 725.8345 300.5799 662.19625 300.875 598.53125 C 301.0449 547.30225 300.97405 496.02575 303.40625 444.84375 C 303.79955 432.57354 265.99592 427.14632 239.75 430.125 C 244.99298 422.14029 250.29957 414.191 255.65625 406.28125 C 279.76685 371.81025 303.81145 336.293 335.15625 307.875 C 348.87476 297.3223 304.08429 236.8801 285.34375 236.46875 z M 526.84375 320.875 C 518.04796 320.94072 509.2389 321.26525 500.4375 321.90625 C 466.3001 324.13725 432.2751 327.5815 398.3125 331.6875 C 379.7321 334.2405 391.76335 421.803 410.34375 419.25 C 442.06345 414.083 474.0698 410.9075 506.125 408.8125 C 527.00073 407.25044 547.83342 408.00608 568.59375 409.9375 C 554.38326 435.41562 540.68199 461.16844 527.125 487 C 501.6317 536.049 477.6601 585.8595 454 635.8125 C 438.8565 668.0795 423.97005 700.47475 410.46875 733.46875 C 402.55635 753.77075 395.2126 775.8365 401 797.8125 C 402.5729 803.7845 405.61005 809.267 407.90625 815 C 426.11665 843.861 456.50175 856.02375 487.65625 865.84375 C 529.45245 877.40975 572.8676 877.29025 615.8125 875.40625 C 665.5302 872.49625 714.7848 864.949 763.8125 856.5 C 806.3475 849.793 847.98025 839.59475 887.71875 822.96875 C 924.40205 805.59875 946.94515 787.6075 965.59375 751.3125 C 967.31015 744.6905 969.0336 738.0595 970.75 731.4375 C 974.3861 713.1205 888.04235 695.9955 884.40625 714.3125 C 884.77865 714.4625 885.15885 714.6 885.53125 714.75 C 885.99975 728.258 861.7115 736.70525 853.3125 742.65625 C 820.1182 757.37625 784.65795 764.97975 748.96875 771.09375 C 703.63275 779.03575 658.0732 786.1415 612.0625 788.6875 C 579.1932 790.0745 545.904 790.60525 513.8125 782.15625 C 504.7161 779.35325 503.9007 779.364 495.5625 775.875 C 494.63739 775.48761 492.07018 773.77391 489.8125 772.59375 C 490.6945 770.38768 491.55478 768.20923 492.03125 766.0625 C 504.32505 734.4045 518.2501 703.40625 532.375 672.53125 C 555.0035 623.68625 578.18295 575.0665 603.53125 527.5625 C 621.09275 494.8915 638.9298 462.3835 658 430.5625 C 668.6908 412.6655 687.04775 389.70375 679.84375 367.09375 C 676.27515 355.89375 666.4026 347.80425 659.6875 338.15625 C 642.2286 330.26925 624.9499 327.13925 605.8125 325.78125 C 579.57788 322.80675 553.23111 320.67784 526.84375 320.875 z M 487.03125 780.8125 C 486.97612 784.03584 486.73492 786.83479 486.65625 784.875 C 486.60168 783.51582 486.75501 782.15511 487.03125 780.8125 z "
     id="path12077" />
</svg>
