<?xml version="1.0" encoding="UTF-8" standalone="no"?>
<svg
   xmlns:dc="http://purl.org/dc/elements/1.1/"
   xmlns:cc="http://creativecommons.org/ns#"
   xmlns:rdf="http://www.w3.org/1999/02/22-rdf-syntax-ns#"
   xmlns:svg="http://www.w3.org/2000/svg"
   xmlns="http://www.w3.org/2000/svg"
   xmlns:sodipodi="http://sodipodi.sourceforge.net/DTD/sodipodi-0.dtd"
   xmlns:inkscape="http://www.inkscape.org/namespaces/inkscape"
   width="1024"
   height="1024"
   id="U4E45"
   version="1.1"
   inkscape:version="0.48.0 r9654"
   sodipodi:docname="U+4E45.svg">
  <metadata
     id="metadata10">
    <rdf:RDF>
      <cc:Work
         rdf:about="">
        <dc:format>image/svg+xml</dc:format>
        <dc:type
           rdf:resource="http://purl.org/dc/dcmitype/StillImage" />
      </cc:Work>
    </rdf:RDF>
  </metadata>
  <defs
     id="defs8" />
  <sodipodi:namedview
     pagecolor="#ffffff"
     bordercolor="#666666"
     borderopacity="1"
     objecttolerance="10"
     gridtolerance="10"
     guidetolerance="10"
     inkscape:pageopacity="0"
     inkscape:pageshadow="2"
     inkscape:window-width="640"
     inkscape:window-height="480"
     id="namedview6"
     showgrid="false"
     inkscape:zoom="0.27441406"
     inkscape:cx="512"
     inkscape:cy="512"
     inkscape:window-x="0"
     inkscape:window-y="25"
     inkscape:window-maximized="0"
     inkscape:current-layer="U4E45" />
  <path
     style="fill:#2b0000;fill-opacity:1;fill-rule:nonzero;stroke:#f9f9f9;stroke-width:0.1;stroke-miterlimit:4;stroke-dasharray:none"
     d="M 321.3125 226.6875 C 314.23547 226.69561 309.14358 228.36453 307.78125 232.28125 C 297.42305 264.16825 287.3302 296.1265 277.9375 328.3125 C 269.6734 356.9455 261.74135 385.6635 253.53125 414.3125 C 248.52375 432.5125 334.33625 456.10625 339.34375 437.90625 C 344.3614 418.8843 349.38055 399.87604 354.59375 380.90625 C 376.82614 375.15158 399.4954 371.11546 422.0625 366.9375 C 461.261 359.8015 500.6119 353.692 540.3125 350.25 C 552.48683 350.53793 566.01514 348.56084 578.9375 349.15625 C 571.29997 365.87687 561.38916 381.54871 551.75 397.15625 C 523.4864 441.26225 491.19895 482.55125 458.96875 523.78125 C 421.80555 570.67125 385.53195 618.27025 348.84375 665.53125 C 323.47715 697.56325 298.91915 730.25 272.28125 761.25 C 275.49715 758.91621 267.81649 766.44404 262.53125 771.4375 C 270.16963 769.19673 278.05032 767.97005 285.875 766.46875 C 269.32805 775.84394 258.35809 851.38306 275.6875 854.21875 C 286.2452 852.49175 297.1102 852.04525 307.375 849.03125 C 321.241 844.96025 330.1778 827.1195 340.125 818.1875 C 366.802 785.7035 391.8538 751.9145 417.75 718.8125 C 432.12628 700.15637 446.45371 681.48294 460.8125 662.8125 C 478.1358 674.88378 496.94401 684.92539 516.03125 694.25 C 559.04665 713.238 604.1915 726.6635 648.25 742.9375 C 677.7676 753.8035 705.45475 768.5365 731.96875 785.3125 C 737.75625 788.8815 743.32765 792.756 748.53125 797.125 C 763.52875 808.716 818.1849 737.99725 803.1875 726.40625 C 795.2634 720.51125 787.19895 714.82775 778.65625 709.84375 C 746.76395 690.49675 713.60015 673.3375 678.46875 660.5625 C 637.14565 645.4855 594.92785 632.71475 554.53125 615.21875 C 540.96349 608.62445 527.33385 601.74444 514.96875 593.125 C 519.09892 587.88883 523.21928 582.65372 527.375 577.4375 C 561.6407 533.8565 595.9813 490.18475 626.3125 443.71875 C 645.0948 413.95975 664.6471 383.67225 672.9375 349.03125 C 677.5297 309.70825 664.6633 283.06625 626.625 268.53125 C 595.82 259.98025 564.09295 259.6015 532.34375 262.5625 C 490.09135 266.5715 448.13745 272.9465 406.34375 280.3125 C 398.91529 281.63306 391.4883 282.95666 384.0625 284.3125 C 386.67889 276.71853 389.39094 269.1569 392.1875 261.625 C 397.05297 247.63672 346.5876 226.65852 321.3125 226.6875 z M 262.53125 771.4375 C 260.86085 771.9275 259.79195 773.613 258.59375 774.875 C 256.90236 776.65752 259.26287 774.52545 262.53125 771.4375 z M 594.65625 351.59375 C 596.58967 352.1671 598.48862 352.85958 600.34375 353.6875 C 598.12295 353.77908 596.2633 352.95789 594.65625 351.59375 z "
     id="path9589" />
</svg>
