<?xml version="1.0" encoding="UTF-8" standalone="no"?>
<svg
   xmlns:dc="http://purl.org/dc/elements/1.1/"
   xmlns:cc="http://creativecommons.org/ns#"
   xmlns:rdf="http://www.w3.org/1999/02/22-rdf-syntax-ns#"
   xmlns:svg="http://www.w3.org/2000/svg"
   xmlns="http://www.w3.org/2000/svg"
   xmlns:sodipodi="http://sodipodi.sourceforge.net/DTD/sodipodi-0.dtd"
   xmlns:inkscape="http://www.inkscape.org/namespaces/inkscape"
   width="1024"
   height="1024"
   id="U4EF6"
   version="1.1"
   inkscape:version="0.48.0 r9654"
   sodipodi:docname="U+4EF6.svg">
  <metadata
     id="metadata13">
    <rdf:RDF>
      <cc:Work
         rdf:about="">
        <dc:format>image/svg+xml</dc:format>
        <dc:type
           rdf:resource="http://purl.org/dc/dcmitype/StillImage" />
      </cc:Work>
    </rdf:RDF>
  </metadata>
  <defs
     id="defs11" />
  <sodipodi:namedview
     pagecolor="#ffffff"
     bordercolor="#666666"
     borderopacity="1"
     objecttolerance="10"
     gridtolerance="10"
     guidetolerance="10"
     inkscape:pageopacity="0"
     inkscape:pageshadow="2"
     inkscape:window-width="640"
     inkscape:window-height="480"
     id="namedview9"
     showgrid="false"
     inkscape:zoom="0.27441406"
     inkscape:cx="512"
     inkscape:cy="512"
     inkscape:window-x="0"
     inkscape:window-y="25"
     inkscape:window-maximized="0"
     inkscape:current-layer="U4EF6" />
  <path
     style="fill:#550000;fill-opacity:1;fill-rule:nonzero;stroke:#f9f9f9;stroke-width:0.1;stroke-miterlimit:4;stroke-dasharray:none"
     d="M 594.46875 95.03125 C 584.04141 95.084967 576.29129 97.265344 575.125 102.46875 C 567.2364 151.88775 566.22625 202.10525 564.90625 252.03125 C 564.57367 275.15086 564.31301 298.25392 564.125 321.375 C 545.60209 324.25199 527.03487 327.26911 508.375 328.9375 C 514.44898 312.69063 520.31334 296.33466 525.8125 279.875 C 531.5827 261.825 446.48885 234.6375 440.71875 252.6875 C 430.58665 287.5345 417.60535 321.45 404.15625 355.125 C 388.82805 392.757 371.87355 429.6935 354.28125 466.3125 C 346.32155 483.1435 425.6653 520.67475 433.625 503.84375 C 447.69533 473.63691 461.55865 443.32136 474.75 412.71875 C 476.7521 416.91911 479.30534 419.48206 482.46875 419.5625 C 509.72125 418.81784 536.71184 414.72124 563.625 410.4375 C 563.44746 451.11992 563.28399 491.78776 563 532.46875 C 562.91847 546.17537 562.80568 559.88739 562.6875 573.59375 C 535.01756 579.19104 507.43077 585.2383 479.96875 591.84375 C 439.09685 601.36175 398.12375 610.458 357.46875 620.875 C 339.27965 626.174 364.2484 711.925 382.4375 706.625 C 421.2098 695.032 460.76805 686.1805 500.09375 676.6875 C 520.6117 671.5777 541.2095 666.84965 561.875 662.4375 C 561.52613 703.27487 561.30803 744.09796 561.5 784.9375 C 561.5981 828.0595 563.5201 871.13925 566.375 914.15625 C 567.0193 925.76625 566.97545 920.7025 566.84375 929.4375 C 567.18825 948.3585 656.37565 946.7335 656.03125 927.8125 C 655.53905 914.2645 655.93245 921.10825 654.78125 907.28125 C 651.07865 866.30025 648.6424 825.18425 648.0625 784.03125 C 647.31234 738.01739 647.20316 692.01769 647.34375 646 C 657.28599 644.28679 667.25492 642.6565 677.21875 641.0625 C 723.24815 633.7235 769.71845 630.056 816.28125 628.875 C 831.34145 628.534 846.3783 628.87975 861.4375 628.59375 C 880.3656 627.84375 876.83425 538.624 857.90625 539.375 C 843.06645 540.414 828.1676 540.0425 813.3125 540.8125 C 763.0956 542.8705 712.98015 547.145 663.34375 555.25 C 658.16256 556.09421 652.98858 556.97149 647.8125 557.84375 C 647.86448 549.58397 647.91983 541.32218 647.96875 533.0625 C 648.26862 488.47641 648.46505 443.90028 648.84375 399.3125 C 666.29055 398.05485 683.78301 397.49352 701.3125 397.625 C 711.6583 397.687 721.91215 398.4715 732.03125 400.5625 C 750.66235 403.5835 764.8811 315.73975 746.25 312.71875 C 731.3639 310.61875 716.48085 309.06975 701.40625 309.34375 C 684.23181 309.42339 667.07848 310.00755 649.96875 311.125 C 650.30171 292.37019 650.68068 273.62645 651.1875 254.875 C 652.9547 210.514 654.21575 165.78625 662.34375 122.03125 C 665.32426 108.73366 621.11639 94.893974 594.46875 95.03125 z M 341.78125 171.0625 C 339.75843 171.16935 338.10303 171.84487 336.90625 173.15625 C 307.21715 209.03325 282.6246 248.7085 258.3125 288.3125 C 228.3847 337.9605 201.09015 389.12675 172.59375 439.59375 C 164.51815 454.12075 155.9645 468.35875 147.1875 482.46875 C 137.5197 498.59875 213.5821 544.1935 223.25 528.0625 C 232.0484 512.8785 240.69355 497.60025 249.03125 482.15625 C 249.64204 481.04457 250.23365 479.92459 250.84375 478.8125 C 250.8217 481.73145 250.79001 484.64334 250.78125 487.5625 C 250.94855 551.0465 254.5886 614.463 259.3125 677.75 C 261.5361 712.721 266.73355 747.51975 267.15625 782.59375 C 267.05225 784.23075 266.94785 785.863 266.84375 787.5 C 266.40205 806.428 355.65205 808.52175 356.09375 789.59375 C 356.10475 786.33475 356.115 783.0715 356.125 779.8125 C 354.4621 743.3835 349.00005 707.2665 346.03125 670.9375 C 341.04325 610.1555 337.5728 549.23275 338 488.21875 C 338.5008 446.84375 340.27705 405.51425 341.40625 364.15625 C 341.28754 358.37929 332.87796 354.54419 321.28125 352.53125 C 324.93341 346.35092 328.63501 340.22344 332.375 334.09375 C 354.0134 299.32075 375.72335 264.1605 402.84375 233.3125 C 414.41257 220.63587 361.33513 170.02965 341.78125 171.0625 z "
     id="path8795" />
</svg>
