<?xml version="1.0" encoding="UTF-8" standalone="no"?>
<svg
   xmlns:dc="http://purl.org/dc/elements/1.1/"
   xmlns:cc="http://creativecommons.org/ns#"
   xmlns:rdf="http://www.w3.org/1999/02/22-rdf-syntax-ns#"
   xmlns:svg="http://www.w3.org/2000/svg"
   xmlns="http://www.w3.org/2000/svg"
   xmlns:sodipodi="http://sodipodi.sourceforge.net/DTD/sodipodi-0.dtd"
   xmlns:inkscape="http://www.inkscape.org/namespaces/inkscape"
   width="1024"
   height="1024"
   id="U4E03"
   version="1.1"
   inkscape:version="0.48.0 r9654"
   sodipodi:docname="U+4E03.svg">
  <metadata
     id="metadata10">
    <rdf:RDF>
      <cc:Work
         rdf:about="">
        <dc:format>image/svg+xml</dc:format>
        <dc:type
           rdf:resource="http://purl.org/dc/dcmitype/StillImage" />
      </cc:Work>
    </rdf:RDF>
  </metadata>
  <defs
     id="defs8" />
  <sodipodi:namedview
     pagecolor="#ffffff"
     bordercolor="#666666"
     borderopacity="1"
     objecttolerance="10"
     gridtolerance="10"
     guidetolerance="10"
     inkscape:pageopacity="0"
     inkscape:pageshadow="2"
     inkscape:window-width="640"
     inkscape:window-height="480"
     id="namedview6"
     showgrid="false"
     inkscape:zoom="0.27441406"
     inkscape:cx="512"
     inkscape:cy="512"
     inkscape:window-x="0"
     inkscape:window-y="25"
     inkscape:window-maximized="0"
     inkscape:current-layer="U4E03" />
  <path
     style="fill:#c83737;fill-opacity:1;fill-rule:nonzero;stroke:#f9f9f9;stroke-width:0.1;stroke-miterlimit:4;stroke-dasharray:none"
     d="M 405.09375 279.90625 C 384.41422 280.0666 364.88483 284.38391 364.71875 293.1875 C 365.51805 331.2875 367.74655 369.33425 369.34375 407.40625 C 370.64618 445.96975 372.50159 484.52119 374.8125 523.03125 C 327.68166 551.62878 281.14984 581.15789 235.46875 612.03125 C 228.31065 616.96725 221.1426 621.88575 214 626.84375 C 199.2622 637.07475 184.829 648.1465 169.375 657.3125 C 159.0445 663.4405 162.09895 661.24275 165.34375 658.59375 C 147.41765 664.13175 173.5115 748.63075 191.4375 743.09375 C 225.9731 729.38775 253.2891 703.59875 284 683.21875 C 315.99334 661.21654 348.52755 640.04681 381.4375 619.46875 C 385.68658 679.82867 396.00884 739.20302 414.96875 796.6875 C 430.49455 838.1505 455.04985 875.95575 494.96875 897.46875 C 502.85855 901.72075 511.42775 904.572 519.65625 908.125 C 570.08235 924.267 623.129 920.79525 675.0625 916.40625 C 721.3089 912.53925 766.61175 902.656 811.15625 890 C 834.30355 883.094 857.21455 875.40825 879.53125 866.15625 C 896.71095 858.75125 861.8047 777.75125 844.625 785.15625 C 825.9803 793.63925 806.5355 800.2055 787 806.3125 C 748.0007 817.7635 708.31355 826.64775 667.71875 830.09375 C 629.41685 833.39875 590.1098 836.8405 552.375 827.4375 C 522.1044 816.8785 508.52415 798.99825 496.96875 769.03125 C 478.75255 716.59125 470.16435 661.90775 466.21875 606.59375 C 465.23849 594.15074 464.31703 581.69994 463.4375 569.25 C 511.47932 539.45476 559.00284 508.89148 605.09375 476.125 C 635.78665 454.521 665.95535 431.929 698.09375 412.5 C 714.51085 403.428 671.7296 326.02075 655.3125 335.09375 C 620.8831 357.13075 588.2622 381.89875 555.0625 405.71875 C 523.2946 428.67074 490.76025 450.45363 457.78125 471.59375 C 456.79413 449.19217 456.00948 426.76817 455.53125 404.34375 C 454.46725 367.86075 452.6513 331.34675 453.25 294.84375 C 453.43822 284.86634 428.53055 279.72452 405.09375 279.90625 z M 1473.4688 563.53125 C 1437.6382 563.51218 1402.3715 572.37212 1367.125 579.71875 C 1299.5733 593.83275 1232.1647 608.62 1164.2188 620.75 C 1116.405 629.006 1068.5226 637.13725 1020.4375 643.65625 C 1001.8919 646.23925 1014.0795 733.67575 1032.625 731.09375 C 1081.4503 722.39675 1130.3212 713.97325 1179.125 705.15625 C 1247.7496 692.41125 1315.9203 677.47875 1384.3438 663.71875 C 1403.6938 662.44052 1451.0672 646.77077 1475.4375 649.8125 C 1474.4621 649.08389 1473.1035 648.11973 1470.9062 646.71875 C 1488.2619 652.02098 1545.7115 598.77419 1533.875 585.65625 C 1510.8233 567.37725 1522.9059 573.73475 1498.375 565.09375 C 1490.0399 564.01788 1481.7373 563.53565 1473.4688 563.53125 z M 1475.4375 649.8125 C 1478.3287 651.97211 1477.6362 651.72034 1483.25 651.8125 C 1481.0559 650.82587 1478.4073 650.18317 1475.4375 649.8125 z "
     id="path10595" />
</svg>
