<?xml version="1.0" encoding="UTF-8" standalone="no"?>
<svg
   xmlns:dc="http://purl.org/dc/elements/1.1/"
   xmlns:cc="http://creativecommons.org/ns#"
   xmlns:rdf="http://www.w3.org/1999/02/22-rdf-syntax-ns#"
   xmlns:svg="http://www.w3.org/2000/svg"
   xmlns="http://www.w3.org/2000/svg"
   xmlns:sodipodi="http://sodipodi.sourceforge.net/DTD/sodipodi-0.dtd"
   xmlns:inkscape="http://www.inkscape.org/namespaces/inkscape"
   width="1024"
   height="1024"
   id="U4E07"
   version="1.1"
   inkscape:version="0.48.0 r9654"
   sodipodi:docname="U+4E07.svg">
  <metadata
     id="metadata10">
    <rdf:RDF>
      <cc:Work
         rdf:about="">
        <dc:format>image/svg+xml</dc:format>
        <dc:type
           rdf:resource="http://purl.org/dc/dcmitype/StillImage" />
      </cc:Work>
    </rdf:RDF>
  </metadata>
  <defs
     id="defs8" />
  <sodipodi:namedview
     pagecolor="#ffffff"
     bordercolor="#666666"
     borderopacity="1"
     objecttolerance="10"
     gridtolerance="10"
     guidetolerance="10"
     inkscape:pageopacity="0"
     inkscape:pageshadow="2"
     inkscape:window-width="640"
     inkscape:window-height="480"
     id="namedview6"
     showgrid="false"
     inkscape:zoom="0.27441406"
     inkscape:cx="512"
     inkscape:cy="512"
     inkscape:window-x="0"
     inkscape:window-y="25"
     inkscape:window-maximized="0"
     inkscape:current-layer="U4E07" />
  <path
     style="fill:#501616;fill-opacity:1;fill-rule:nonzero;stroke:#f9f9f9;stroke-width:0.1;stroke-miterlimit:4;stroke-dasharray:none"
     d="M 420.25 266.21875 C 393.08055 266.26474 365.89621 267.225 338.75 269.34375 C 290.61865 273.52075 242.56576 278.80075 195.15625 288.34375 C 176.952 292.89475 198.3895 378.70725 216.59375 374.15625 C 259.24843 363.82825 302.95622 358.90175 346.5625 354.71875 C 352.42824 354.21783 358.28787 353.78263 364.15625 353.40625 C 348.05503 391.97173 335.76541 432.09751 322.78125 471.78125 C 297.15586 548.92325 276.20498 627.38575 259.21875 706.84375 C 249.76391 757.53675 241.41132 808.487 234.71875 859.625 C 232.79064 872.234 232.55721 884.8585 232.875 897.5625 C 233.83905 916.2715 322.02656 911.74025 321.0625 893.03125 C 320.00168 885.36225 320.92374 877.684 321.53125 870 C 326.69623 821.24 334.12621 772.657 342.59375 724.375 C 347.79576 699.18557 353.48633 674.13005 359.65625 649.1875 C 369.83329 668.94841 384.28194 686.64935 392.65625 682.3125 C 420.91572 666.2395 451.91707 656.9125 483.375 649.5625 C 529.93629 639.8855 577.43516 639.26925 624.40625 645.65625 C 650.83416 650.01625 672.77105 660.42825 687.5625 682.90625 C 700.30965 707.90225 698.65964 735.87775 696.28125 762.96875 C 691.39113 800.88075 680.65158 837.65225 668.125 873.65625 C 662.134 891.13925 744.5715 919.39025 750.5625 901.90625 C 765.06881 859.00025 777.55435 815.235 782.90625 770.125 C 786.73457 721.471 785.0731 673.10075 757.6875 630.71875 C 723.31547 586.71875 690.36976 569.239 635.21875 559.75 C 578.04577 552.994 520.37813 553.35825 463.78125 565.15625 C 433.22392 572.20581 403.15451 580.87596 374.40625 593.21875 C 383.30745 561.49891 393.07551 530.02828 403.78125 498.8125 C 418.37874 455.8735 431.93833 412.16575 452.46875 371.59375 C 455.26708 366.66111 450.16744 359.23363 441.46875 351.71875 C 477.06385 352.31061 512.62677 354.62036 548.09375 358 C 592.52192 362.833 636.34852 372.1235 678.59375 386.6875 C 691.04545 392.0735 685.73138 389.18875 694.8125 394.71875 C 711.25915 403.51375 752.72789 325.9815 736.28125 317.1875 C 716.86354 307.3935 726.95452 311.922 706 303.75 C 657.19558 288.19 606.97074 277.584 555.9375 272.625 C 510.80223 268.61938 465.53241 266.1421 420.25 266.21875 z "
     id="path12732" />
</svg>
