<?xml version="1.0" encoding="utf-8" ?>

<!DOCTYPE svg PUBLIC "-//W3C//DTD SVG 1.1//EN" 
  "http://www.w3.org/Graphics/SVG/1.1/DTD/svg11.dtd">
<svg 
    xmlns="http://www.w3.org/2000/svg"
    xmlns:xlink="http://www.w3.org/1999/xlink"
    xmlns:sodipodi="http://sodipodi.sourceforge.net/DTD/sodipodi-0.dtd"
    xmlns:inkscape="http://www.inkscape.org/namespaces/inkscape"
    width="1024" height="1024" id="U4E00">
<path d="m 10484.245,57885.314 c 53.701,-6.31 107.18,-14.327 160.892,-20.629 70.778,-7.769 141.802,-13.018 212.911,-16.503 35.706,-1.352 71.443,-2.979 107.171,-1.646 14.226,0.434 28.33,2.224 42.307,4.818 1.822,0.434 3.645,0.868 5.467,1.302 18.217,4.812 -4.463,90.685 -22.679,85.873 l 0,0 c 0.01,-0.04 0.03,-0.09 0.04,-0.129 -9.69,-2.083 -19.499,-3.449 -29.409,-3.935 -33.027,-2.076 -66.144,-0.94 -99.199,-0.258 -68.953,2.54 -137.832,7.197 -206.392,15.115 -54.275,6.748 -108.271,15.202 -162.267,23.867 -18.641,1.877 -27.488,-85.998 -8.846,-87.875 z" id="path13225" inkscape:connector-curvature="0" style="fill:#916f6f;fill-opacity:1;fill-rule:nonzero;stroke:#f9f9f9;stroke-width:0.1;stroke-miterlimit:4;stroke-dasharray:none" transform="translate(-10240, -57344)"/></svg>