<?xml version="1.0" encoding="utf-8" ?>

<!DOCTYPE svg PUBLIC "-//W3C//DTD SVG 1.1//EN" 
  "http://www.w3.org/Graphics/SVG/1.1/DTD/svg11.dtd">
<svg 
    xmlns="http://www.w3.org/2000/svg"
    xmlns:xlink="http://www.w3.org/1999/xlink"
    xmlns:sodipodi="http://sodipodi.sourceforge.net/DTD/sodipodi-0.dtd"
    xmlns:inkscape="http://www.inkscape.org/namespaces/inkscape"
    width="1024" height="1024" id="U4E9B">
<path d="m 9517.8412,54466.146 c -1.3135,41.895 -1.1806,83.821 -0.7969,125.73 0.3722,56.193 4.1798,112.264 8.9265,168.23 3.0194,33.447 6.2198,66.876 8.7869,100.362 0.63,9.452 1.4272,18.887 2.402,28.309 1.7648,18.628 -86.0451,26.947 -87.8099,8.319 l 0,0 c -0.8875,-10.133 -1.6731,-20.272 -2.2287,-30.431 -2.1478,-33.243 -4.7385,-66.452 -7.4231,-99.656 -4.3642,-57.922 -7.9471,-115.918 -8.7259,-174.017 -0.7107,-42.534 -1.0449,-85.073 -1.6249,-127.608 0.1618,-18.773 88.6558,-18.01 88.494,0.762 z" id="path11940" inkscape:connector-curvature="0" style="fill:#916f6f;fill-opacity:1;fill-rule:nonzero;stroke:#f9f9f9;stroke-width:0.1;stroke-miterlimit:4;stroke-dasharray:none" transform="translate(-9216, -54272)"/><path d="m 9477.0852,54654.082 c 29.5338,-12.542 60.6011,-20.501 91.972,-26.801 23.9582,-4.067 47.9725,-7.829 71.9908,-11.529 -10.8524,1.224 9.4317,-1.206 7.0454,-1.415 -0.8646,-0.08 -1.7102,0.297 -2.5653,0.446 18.028,-5.547 44.179,79.437 26.151,84.985 l 0,0 c -6.0009,1.508 -12.0142,2.848 -18.1934,3.424 -22.54,2.891 -45.0393,6.226 -67.4684,9.865 -25.1108,4.867 -50.1227,11.037 -73.3435,22.046 -17.1871,7.55 -52.7758,-73.471 -35.5886,-81.021 z" id="path11978" inkscape:connector-curvature="0" style="fill:#916f6f;fill-opacity:1;fill-rule:nonzero;stroke:#f9f9f9;stroke-width:0.1;stroke-miterlimit:4;stroke-dasharray:none" transform="translate(-9216, -54272)"/><path d="m 9379.8119,54730.92 c -2.4895,29.739 -0.5784,59.614 1.6416,89.302 2.7395,32.736 6.7842,65.343 10.4243,97.986 1.9245,18.525 -85.4008,27.597 -87.3254,9.073 l 0,0 c -3.2199,-33.51 -7.0767,-66.957 -9.9071,-100.503 -2.5941,-34.04 -4.6432,-68.189 -3.1285,-102.338 1.3747,-18.73 89.6698,-12.25 88.2951,6.48 z" id="path11980" inkscape:connector-curvature="0" style="fill:#916f6f;fill-opacity:1;fill-rule:nonzero;stroke:#f9f9f9;stroke-width:0.1;stroke-miterlimit:4;stroke-dasharray:none" transform="translate(-9216, -54272)"/><path d="m 9270.2389,54944.489 c 38.112,-13.046 74.0709,-31.519 109.9415,-49.654 52.4219,-27.104 103.7782,-56.193 155.4183,-84.741 26.6449,-14.202 52.5691,-30.254 81.1235,-40.413 17.8561,-5.796 45.1796,78.378 27.3236,84.174 l 0,0 c -24.1159,5.323 -44.558,22.946 -67.0669,32.088 -52.6498,28.337 -104.705,57.771 -157.6163,85.624 -39.4047,20.314 -78.9445,40.608 -120.3882,56.517 -17.733,6.095 -46.4686,-77.499 -28.7355,-83.595 z" id="path11982" inkscape:connector-curvature="0" style="fill:#916f6f;fill-opacity:1;fill-rule:nonzero;stroke:#f9f9f9;stroke-width:0.1;stroke-miterlimit:4;stroke-dasharray:none" transform="translate(-9216, -54272)"/><path d="m 9985.4759,54596.947 c -23.1086,23.282 -47.8095,44.91 -72.3593,66.642 -29.6233,26.691 -60.7597,51.577 -94.8515,72.299 -4.9523,2.535 -9.9045,5.069 -14.8567,7.604 -16.6801,8.25 -55.5747,-70.381 -38.8946,-78.631 l 0,0 c 3.0075,-1.403 6.015,-2.806 9.0225,-4.209 29.7751,-17.139 56.156,-39.263 81.7261,-62.084 22.1794,-19.84 44.6303,-39.534 64.8923,-61.366 12.6738,-13.856 77.995,45.889 65.3212,59.745 z" id="path11987" inkscape:connector-curvature="0" style="fill:#916f6f;fill-opacity:1;fill-rule:nonzero;stroke:#f9f9f9;stroke-width:0.1;stroke-miterlimit:4;stroke-dasharray:none" transform="translate(-9216, -54272)"/><path d="m 9772.8903,54445.165 c 1.4628,41.97 -0.1042,83.969 -1.4955,125.917 -2.934,55.556 -2.8424,111.125 1.4507,166.584 3.5474,38.103 8.9511,76.582 26.7973,110.841 11.853,19.104 31.2384,23.383 52.0239,26.828 35.6212,4.107 71.5813,3.428 107.3597,2.521 34.0501,-0.997 67.8266,-5.474 101.5906,-9.636 13.959,-1.686 27.938,-3.193 41.902,-4.841 18.715,-1.817 27.283,86.409 8.567,88.226 l 0,0 c -13.462,1.009 -26.903,2.296 -40.334,3.662 -36.429,3.989 -72.8411,8.546 -109.516,9.579 -41.8269,1.065 -83.9016,1.836 -125.475,-3.717 -50.422,-9.912 -88.2236,-27.754 -114.4787,-74.305 -21.1863,-45.004 -31.2365,-93.158 -34.4981,-142.771 -4.1681,-58.444 -4.3828,-116.974 -1.6675,-175.512 0.9975,-38.887 2.3853,-77.904 -0.3833,-116.748 -1.4061,-18.7 86.7508,-25.329 88.1569,-6.628 z" id="path11989" inkscape:connector-curvature="0" style="fill:#916f6f;fill-opacity:1;fill-rule:nonzero;stroke:#f9f9f9;stroke-width:0.1;stroke-miterlimit:4;stroke-dasharray:none" transform="translate(-9216, -54272)"/><path d="m 9503.8966,55020.632 c 38.8105,-7.98 78.2234,-11.993 117.636,-15.537 47.6886,-3.925 95.4995,-6.035 143.3088,-7.798 24.4515,-0.976 48.3827,-2.496 72.071,3.969 17.4128,7.222 -16.6323,89.307 -34.0451,82.085 l 0,0 c 32.1779,6.792 -32.1,-3.068 -35.4124,1.019 -46.0265,1.054 -92.0511,2.894 -137.9254,6.921 -35.8339,3.433 -71.8075,6.998 -106.8168,15.756 -18.3314,3.991 -37.1475,-82.424 -18.8161,-86.415 z" id="path11999" inkscape:connector-curvature="0" style="fill:#916f6f;fill-opacity:1;fill-rule:nonzero;stroke:#f9f9f9;stroke-width:0.1;stroke-miterlimit:4;stroke-dasharray:none" transform="translate(-9216, -54272)"/><path d="m 9427.9257,55157.191 c 46.959,-2.012 93.786,-6.652 140.6351,-10.396 72.6892,-5.879 145.4158,-11.252 218.2597,-14.774 53.1422,-2.355 106.3475,-2.394 159.5069,-0.773 21.1165,0.649 42.2248,2.401 63.3606,1.929 18.702,-0.107 19.206,88.053 0.504,88.16 l 0,0 c -22.3934,-0.129 -44.719,-1.862 -67.0716,-3.097 -50.7691,-2.215 -101.6093,-2.695 -152.4012,-0.757 -71.7625,3.071 -143.401,8.27 -214.943,14.665 -48.2093,4.301 -96.3499,9.326 -144.5788,13.379 -18.7389,0.694 -22.0106,-87.642 -3.2717,-88.336 z" id="path12001" inkscape:connector-curvature="0" style="fill:#916f6f;fill-opacity:1;fill-rule:nonzero;stroke:#f9f9f9;stroke-width:0.1;stroke-miterlimit:4;stroke-dasharray:none" transform="translate(-9216, -54272)"/></svg>