<?xml version="1.0" encoding="UTF-8" standalone="no"?>
<svg
   xmlns:dc="http://purl.org/dc/elements/1.1/"
   xmlns:cc="http://creativecommons.org/ns#"
   xmlns:rdf="http://www.w3.org/1999/02/22-rdf-syntax-ns#"
   xmlns:svg="http://www.w3.org/2000/svg"
   xmlns="http://www.w3.org/2000/svg"
   xmlns:sodipodi="http://sodipodi.sourceforge.net/DTD/sodipodi-0.dtd"
   xmlns:inkscape="http://www.inkscape.org/namespaces/inkscape"
   width="1024"
   height="1024"
   id="U4E70"
   version="1.1"
   inkscape:version="0.48.0 r9654"
   sodipodi:docname="U+4E70.svg">
  <metadata
     id="metadata13">
    <rdf:RDF>
      <cc:Work
         rdf:about="">
        <dc:format>image/svg+xml</dc:format>
        <dc:type
           rdf:resource="http://purl.org/dc/dcmitype/StillImage" />
      </cc:Work>
    </rdf:RDF>
  </metadata>
  <defs
     id="defs11" />
  <sodipodi:namedview
     pagecolor="#ffffff"
     bordercolor="#666666"
     borderopacity="1"
     objecttolerance="10"
     gridtolerance="10"
     guidetolerance="10"
     inkscape:pageopacity="0"
     inkscape:pageshadow="2"
     inkscape:window-width="640"
     inkscape:window-height="480"
     id="namedview9"
     showgrid="false"
     inkscape:zoom="0.27441406"
     inkscape:cx="512"
     inkscape:cy="512"
     inkscape:window-x="0"
     inkscape:window-y="25"
     inkscape:window-maximized="0"
     inkscape:current-layer="U4E70" />
  <path
     style="fill:#c83737;fill-opacity:1;fill-rule:nonzero;stroke:#f9f9f9;stroke-width:0.1;stroke-miterlimit:4;stroke-dasharray:none"
     d="M 486.15625 164.09375 C 455.32882 164.1635 424.50134 165.19525 393.75 167.875 C 358.74999 171.142 323.91821 175.87125 288.90625 178.90625 C 270.14282 179.54725 273.17407 267.98575 291.9375 267.34375 C 328.69648 263.29475 365.25233 257.779 402.0625 254.125 C 452.98187 249.519 504.12096 249.88125 555.15625 251.65625 C 599.36393 253.36325 643.32512 258.25375 687.3125 262.71875 C 697.40031 263.57688 707.4778 264.55194 717.53125 265.6875 C 710.60993 275.11149 703.24373 284.20425 696.1875 293.53125 C 694.65689 296.02406 693.02617 298.18411 691.9375 299.53125 C 692.40704 299.00045 693.05335 298.26968 693.875 297.375 C 683.90577 312.21827 736.50187 376.73371 750.71875 365.3125 C 757.08922 359.4505 763.19973 353.65125 767.46875 346.03125 C 777.40129 331.94225 788.62176 318.752 798 304.25 C 807.35555 291.12 817.19274 278.3835 827.125 265.6875 C 848.20469 230.7365 838.71486 194.40475 795.5625 186.59375 C 786.97112 185.67175 778.46385 183.8005 769.78125 183.5625 C 745.14897 180.2975 720.43322 177.773 695.65625 175.875 C 649.85031 171.725 604.08481 166.985 558.09375 165.375 C 534.12631 164.5735 510.13314 164.0395 486.15625 164.09375 z M 607.28125 275.25 C 603.72345 275.21375 601.02558 276.18691 599.59375 278.40625 C 578.63018 313.11425 559.15948 348.7075 539.3125 384.0625 C 510.13023 435.24966 482.59744 487.30593 456.34375 540.03125 C 453.34018 535.29417 450.08723 530.7311 446.125 526.65625 C 433.42372 512.55925 421.90495 497.57525 410.84375 482.15625 C 393.92365 461.32425 375.34564 442.0585 355.78125 423.6875 C 341.783 411.1715 282.783 477.14025 296.78125 489.65625 C 313.36443 504.14725 328.72647 519.9345 342.40625 537.1875 C 353.9929 553.8825 366.56439 569.783 379.875 585.125 C 381.15156 586.283 381.79722 588.0005 382.75 589.4375 C 388.09386 599.35092 418.19247 588.24933 439.59375 574.1875 C 436.02276 581.54511 432.46324 588.90127 428.9375 596.28125 C 424.8738 605.37402 420.83918 614.48436 416.8125 623.59375 C 413.91319 623.89644 411.02533 624.20626 408.125 624.5 C 363.78334 628.842 319.4273 633.1435 274.9375 635.6875 C 240.22646 638.2135 205.58902 641.5855 170.875 644.0625 C 152.22111 645.9975 161.34612 733.935 180 732 C 213.749 728.3 247.5211 724.97925 281.375 722.40625 C 313.33923 720.47059 345.25116 717.71689 377.125 714.6875 C 368.62545 734.43181 360.15578 754.16742 351.71875 773.9375 C 337.8937 807.0015 324.51189 840.2315 313.40625 874.3125 C 311.23909 882.4635 306.9196 889.6985 303.71875 897.4375 L 307 898.03125 C 303.92302 899.60752 302.01064 901.67129 301.75 904.25 L 387.15625 928.25 C 387.37411 927.59961 388.19766 925.54086 388.5625 924.6875 C 391.50818 917.7935 392.18992 916.6395 394.78125 909.0625 C 395.73792 906.2655 396.5295 903.41675 397.40625 900.59375 C 406.88955 868.90875 418.88389 838.15925 431.34375 807.53125 C 445.68865 773.08959 460.15252 738.68536 474.8125 704.375 C 502.15363 701.2453 529.49655 698.08136 556.875 695.28125 C 592.15719 691.20425 627.5822 689.7945 663.0625 690.6875 C 688.72063 692.0195 714.33907 692.22075 740 691.09375 C 750.6698 690.36275 761.43841 690.36075 772.09375 691.34375 C 777.01678 692.02716 781.88591 692.9539 786.78125 693.8125 C 788.43887 694.29891 790.76467 694.919 791.1875 695.03125 C 790.19779 694.76508 789.24209 694.43903 788.3125 694.0625 C 788.47993 694.09124 788.64502 694.12776 788.8125 694.15625 L 790.59375 694.4375 C 789.25506 694.11811 788.3074 693.9025 787.5 693.71875 C 785.45851 692.80105 783.60449 691.5869 781.9375 690.09375 C 797.03673 699.78086 864.67789 655.87725 855.0625 640.71875 C 845.62167 626.98075 833.97693 615.5195 817.75 610.1875 C 811.07107 608.1615 812.72351 608.53475 802.59375 606.34375 C 794.58667 605.20875 786.66159 603.59625 778.59375 602.90625 C 764.32033 601.97925 749.98262 601.87475 735.71875 603.09375 C 712.11323 604.37775 688.52898 604.26375 664.90625 603.21875 C 625.80404 602.52975 586.76992 604.3865 547.90625 608.9375 C 537.09227 610.0726 526.30418 611.27962 515.5 612.5 C 545.89204 549.31307 578.28435 487.11287 613.96875 426.71875 C 633.55376 393.04675 652.66683 359.00825 674 326.40625 C 682.75007 312.84359 629.02335 275.47152 607.28125 275.25 z M 387.15625 928.25 C 387.07439 928.49438 387.06482 928.59424 387.21875 928.28125 L 387.15625 928.25 z M 373.71875 282.75 C 355.52209 282.33738 313.46876 347.71281 328.125 357.4375 C 346.90703 369.3475 363.62008 384.10675 379.96875 399.09375 C 391.10856 409.33675 401.32401 420.509 411.96875 431.25 C 412.06847 431.462 412.18155 431.663 412.28125 431.875 C 424.51573 446.162 491.85948 388.4735 479.625 374.1875 C 477.85389 372.2145 476.08361 370.25325 474.3125 368.28125 C 462.52193 356.88525 451.25462 344.94625 439 334.03125 C 419.20767 316.22725 399.02937 298.774 377 283.75 C 376.02292 283.10169 374.93186 282.77751 373.71875 282.75 z M 691.8125 299.6875 C 690.28013 301.42771 690.56898 301.21553 691.8125 299.6875 z M 543.25 719.09375 C 525.37664 719.91634 495.65328 794.64553 512.21875 801.4375 C 536.60998 811.6495 558.9194 826.01025 581.15625 840.15625 C 607.98641 857.53625 633.85344 876.355 659.53125 895.375 C 667.86728 904.074 682.65072 908.73775 689.3125 918.71875 C 701.81949 932.76475 768.03823 873.796 755.53125 859.75 C 742.45922 845.959 726.81731 835.4395 711.3125 824.5625 C 683.91607 804.7805 656.48236 785.03675 628.15625 766.59375 C 601.52577 749.53175 574.67687 732.62725 545.8125 719.53125 C 544.9978 719.19722 544.12902 719.05329 543.25 719.09375 z "
     id="path10688" />
</svg>
