<?xml version="1.0" encoding="UTF-8" standalone="no"?>
<svg
   xmlns:dc="http://purl.org/dc/elements/1.1/"
   xmlns:cc="http://creativecommons.org/ns#"
   xmlns:rdf="http://www.w3.org/1999/02/22-rdf-syntax-ns#"
   xmlns:svg="http://www.w3.org/2000/svg"
   xmlns="http://www.w3.org/2000/svg"
   xmlns:sodipodi="http://sodipodi.sourceforge.net/DTD/sodipodi-0.dtd"
   xmlns:inkscape="http://www.inkscape.org/namespaces/inkscape"
   width="1024"
   height="1024"
   id="U4EE5"
   version="1.1"
   inkscape:version="0.48.0 r9654"
   sodipodi:docname="U+4EE5.svg">
  <metadata
     id="metadata11">
    <rdf:RDF>
      <cc:Work
         rdf:about="">
        <dc:format>image/svg+xml</dc:format>
        <dc:type
           rdf:resource="http://purl.org/dc/dcmitype/StillImage" />
      </cc:Work>
    </rdf:RDF>
  </metadata>
  <defs
     id="defs9" />
  <sodipodi:namedview
     pagecolor="#ffffff"
     bordercolor="#666666"
     borderopacity="1"
     objecttolerance="10"
     gridtolerance="10"
     guidetolerance="10"
     inkscape:pageopacity="0"
     inkscape:pageshadow="2"
     inkscape:window-width="640"
     inkscape:window-height="480"
     id="namedview7"
     showgrid="false"
     inkscape:zoom="0.27441406"
     inkscape:cx="512"
     inkscape:cy="512"
     inkscape:window-x="0"
     inkscape:window-y="25"
     inkscape:window-maximized="0"
     inkscape:current-layer="U4EE5" />
  <path
     style="fill:#2b1100;fill-opacity:1;fill-rule:nonzero;stroke:none"
     d="M 212.84375 284.71875 C 193.78413 284.63287 176.63444 288.27962 176.15625 296.46875 C 174.98145 341.39875 174.02095 386.308 173.40625 431.25 C 171.79975 506.399 169.6857 581.5265 171.5 656.6875 C 173.1951 707.8655 178.13565 758.815 193.65625 807.75 C 203.29575 833.603 217.40895 860.18475 245.28125 869.96875 C 251.60595 872.18875 258.44775 872.489 265.03125 873.75 C 282.84465 874.397 296.88015 867.86 312.03125 859.75 C 325.38499 852.11807 298.19228 799.01878 279.0625 785.5 C 278.29631 783.91882 277.50614 782.16553 276.65625 780.0625 C 262.17155 739.7525 259.4606 696.73025 256.9375 654.28125 C 254.5625 580.48225 256.69585 506.7145 259.15625 432.9375 C 260.29265 389.1385 261.5639 345.32275 264.375 301.59375 C 264.98981 291.06544 237.34897 284.82917 212.84375 284.71875 z M 636.71875 287.40625 C 613.28132 287.44559 588.43644 292.83722 588.71875 302.8125 C 590.96755 338.5975 589.2927 374.42325 587.0625 410.15625 C 582.7518 477.80425 567.1516 543.766 549.625 609 C 532.2387 670.787 511.34355 731.514 487.90625 791.25 C 481.58515 806.091 475.757 821.323 467.5 835.25 C 462.9957 842.848 463.35985 842.3025 464.15625 838.8125 C 451.55175 852.7125 517.083 912.151 529.6875 898.25 C 547.6615 875.643 558.61015 849.1395 568.65625 822.1875 C 579.21997 793.98405 589.35988 765.63587 598.96875 737.09375 C 617.67708 756.48133 637.67227 774.54391 658.59375 791.59375 C 694.89265 819.89875 734.9078 842.79025 774.375 866.28125 C 794.3244 877.84325 813.2577 890.911 831.1875 905.375 C 845.7512 916.856 899.8761 848.19975 885.3125 836.71875 C 864.0825 820.27075 842.05185 804.988 818.71875 791.625 C 782.90295 770.413 746.52055 749.77425 713.59375 724.15625 C 690.09945 704.96425 667.93525 684.2525 648.71875 660.6875 C 644.34048 655.6909 633.17655 659.79734 621.125 667.78125 C 624.80456 655.59005 628.35493 643.35221 631.8125 631.09375 C 650.8104 560.50075 667.72995 489.16425 673.15625 416.03125 C 675.99185 377.51225 678.00545 338.9535 677.21875 300.3125 C 676.96961 291.51078 657.39883 287.37154 636.71875 287.40625 z M 426.375 533.6875 C 403.90022 534.44805 351.12334 568.88184 359.25 582.46875 C 375.1937 608.30575 389.84215 634.90025 405.71875 660.78125 C 414.33885 674.72825 423.8078 688.12175 433.3125 701.46875 C 444.1925 716.55075 515.28635 665.2685 504.40625 650.1875 C 496.00125 638.7085 487.6391 627.18675 480.125 615.09375 C 464.3926 589.51775 449.90935 563.2095 435.15625 537.0625 C 433.65133 534.54656 430.537 533.54666 426.375 533.6875 z M 282.03125 790.90625 C 286.57965 794.53093 285.55761 796.38063 282.03125 790.90625 z "
     id="path11926" />
</svg>
