<?xml version="1.0" encoding="UTF-8" standalone="no"?>
<svg
   xmlns:dc="http://purl.org/dc/elements/1.1/"
   xmlns:cc="http://creativecommons.org/ns#"
   xmlns:rdf="http://www.w3.org/1999/02/22-rdf-syntax-ns#"
   xmlns:svg="http://www.w3.org/2000/svg"
   xmlns="http://www.w3.org/2000/svg"
   xmlns:sodipodi="http://sodipodi.sourceforge.net/DTD/sodipodi-0.dtd"
   xmlns:inkscape="http://www.inkscape.org/namespaces/inkscape"
   width="1024"
   height="1024"
   id="U4E50"
   version="1.1"
   inkscape:version="0.48.0 r9654"
   sodipodi:docname="U+4E50.svg">
  <metadata
     id="metadata13">
    <rdf:RDF>
      <cc:Work
         rdf:about="">
        <dc:format>image/svg+xml</dc:format>
        <dc:type
           rdf:resource="http://purl.org/dc/dcmitype/StillImage" />
      </cc:Work>
    </rdf:RDF>
  </metadata>
  <defs
     id="defs11" />
  <sodipodi:namedview
     pagecolor="#ffffff"
     bordercolor="#666666"
     borderopacity="1"
     objecttolerance="10"
     gridtolerance="10"
     guidetolerance="10"
     inkscape:pageopacity="0"
     inkscape:pageshadow="2"
     inkscape:window-width="640"
     inkscape:window-height="480"
     id="namedview9"
     showgrid="false"
     inkscape:zoom="0.27441406"
     inkscape:cx="512"
     inkscape:cy="512"
     inkscape:window-x="0"
     inkscape:window-y="25"
     inkscape:window-maximized="0"
     inkscape:current-layer="U4E50" />
  <path
     style="fill:#2b0000;fill-opacity:1;fill-rule:nonzero;stroke:#f9f9f9;stroke-width:0.1;stroke-miterlimit:4;stroke-dasharray:none"
     d="M 543.75 132.03125 C 543.17655 132.07617 542.64019 132.19197 542.09375 132.40625 C 515.77495 143.41925 491.02065 157.6715 466.90625 172.8125 C 431.86665 195.6865 398.9791 221.588 365.875 247.125 C 337.7286 268.671 310.0511 290.8345 282.75 313.4375 C 273.4224 321.6055 262.9382 328.2475 253.25 335.9375 C 250.9068 337.8635 252.0143 336.96225 250 338.65625 C 245.49365 342.59421 248.29622 352.04672 254.6875 362.6875 C 242.62512 363.88875 233.64454 367.17172 233.15625 373.03125 C 230.55965 405.74325 226.7617 438.34725 223.8125 471.03125 C 221.30234 498.35539 220.23193 525.76998 220.125 553.1875 C 218.48568 553.26676 216.8601 553.31982 215.21875 553.375 C 196.46085 553.985 199.33585 642.4225 218.09375 641.8125 C 254.69355 639.4405 290.8 632.70625 326.9375 626.78125 C 374.75864 618.91955 423.1344 615.5654 471.5 613.40625 C 471.45246 615.51226 471.39288 617.61303 471.34375 619.71875 C 470.42275 661.69075 468.3577 703.622 463.9375 745.375 C 461.1888 772.204 455.78195 798.641 449.15625 824.75 C 445.48775 839.618 441.0469 854.33075 433.75 867.84375 C 430.7891 872.78075 432.26755 870.5195 429.34375 874.6875 C 419.02885 890.3685 492.9352 938.9925 503.25 923.3125 C 509.6188 913.3715 506.57195 918.4145 512.40625 908.0625 C 522.24425 888.2955 529.5094 867.51275 534.4375 845.96875 C 541.8372 815.75075 547.74225 785.15725 550.71875 754.15625 C 554.99755 710.14225 557.0196 665.99025 557.9375 621.78125 C 557.99631 619.35449 558.03648 616.92709 558.09375 614.5 C 570.15746 614.93723 582.22028 615.38938 594.28125 615.78125 C 621.00945 616.55525 647.7005 617.8015 674.3125 620.4375 C 692.5903 622.3035 710.85475 624.4125 729.21875 625.1875 C 732.90065 625.3875 736.59645 625.34625 740.28125 625.40625 C 759.14485 625.05325 757.4886 536.147 738.625 536.5 C 736.3607 536.666 734.0866 536.8015 731.8125 536.6875 C 715.375 536.5625 699.0442 534.3255 682.6875 532.9375 C 654.113 530.2965 625.47205 529.01675 596.78125 528.46875 C 584.15354 528.16342 571.50535 527.79551 558.875 527.4375 C 558.62484 512.29327 558.08445 497.15951 557.15625 482.03125 C 555.25245 452.23125 552.5344 422.48725 549.5 392.78125 C 547.3154 374.12825 459.3779 384.44075 461.5625 403.09375 C 465.5465 431.22975 468.1182 459.537 470.125 487.875 C 471.01673 500.83298 471.58355 513.80677 471.90625 526.78125 C 470.95654 526.80909 470.0122 526.84386 469.0625 526.875 C 416.9411 529.328 364.80705 532.9265 313.21875 541.0625 C 311.26302 541.36813 309.29977 541.68822 307.34375 542 C 307.43694 520.99696 308.37569 499.99501 310.375 479.0625 C 312.99931 451.60987 316.17824 424.22453 319.4375 396.84375 C 326.11684 391.64078 333.30805 385.99288 339.34375 380.5625 C 365.27475 358.2865 391.8347 336.7755 418.9375 315.9375 C 449.7693 292.1545 480.4932 268.118 513.25 247 C 532.821 234.852 552.83075 223.10875 574.40625 214.84375 C 591.34591 208.20103 561.52707 130.63862 543.75 132.03125 z M 328.09375 680.90625 C 326.88088 680.95272 325.77961 681.30506 324.8125 681.96875 C 301.3098 699.48275 279.50465 719.06725 257.96875 738.90625 C 240.56025 755.12325 223.5469 771.799 207.375 789.25 C 195.5555 800.15 189.46015 812.11025 184.03125 827.15625 C 180.5271 844.88542 260.45714 861.46378 270.34375 846.53125 C 263.40899 862.68466 261.8731 860.6128 272.6875 848.65625 C 286.8196 832.78125 301.94665 817.85925 317.40625 803.28125 C 335.76845 786.26725 354.3167 769.26925 374.875 754.90625 C 389.38169 744.95094 346.28673 680.20922 328.09375 680.90625 z M 637.25 724 C 619.16746 723.31773 603.5651 807.60858 621.71875 811.03125 C 648.67245 815.61825 674.78505 823.846 700.78125 832.125 C 727.47365 840.57 753.0107 851.986 777.8125 864.875 C 786.3612 869.516 794.868 874.2785 802.875 879.8125 C 818.6845 889.9665 866.52835 815.43525 850.71875 805.28125 C 839.96615 798.68425 828.99695 792.4695 817.78125 786.6875 C 788.57315 771.9655 758.62845 758.781 727.40625 748.875 C 697.98095 739.443 668.37155 730.42375 638.09375 724.09375 C 637.8056 724.03944 637.53702 724.01083 637.25 724 z "
     id="path9406" />
</svg>
