<?xml version="1.0" encoding="utf-8" ?>

<!DOCTYPE svg PUBLIC "-//W3C//DTD SVG 1.1//EN" 
  "http://www.w3.org/Graphics/SVG/1.1/DTD/svg11.dtd">
<svg 
    xmlns="http://www.w3.org/2000/svg"
    xmlns:xlink="http://www.w3.org/1999/xlink"
    xmlns:sodipodi="http://sodipodi.sourceforge.net/DTD/sodipodi-0.dtd"
    xmlns:inkscape="http://www.inkscape.org/namespaces/inkscape"
    width="1024" height="1024" id="U4E3E">
<path d="m 9516.2308,25779.764 c 9.5975,29.733 24.1328,57.535 39.0492,84.875 15.8999,28.347 33.8492,55.514 54.2297,80.832 11.52,14.604 -57.3244,68.91 -68.8444,54.306 l 0,0 c -22.9296,-29.542 -43.6276,-60.751 -61.8293,-93.437 -17.669,-32.394 -34.5542,-65.344 -46.9687,-100.172 -5.6011,-17.896 78.7624,-44.3 84.3635,-26.404 z" id="path9791" inkscape:connector-curvature="0" style="fill:#2b0000;fill-opacity:1;fill-rule:nonzero;stroke:#f9f9f9;stroke-width:0.1;stroke-miterlimit:4;stroke-dasharray:none" transform="translate(-9216, -25600)"/><path d="m 9725.4441,25802.316 c 14.7348,19.943 32.6925,37.16 50.7202,54.067 13.5235,12.777 -46.7078,76.528 -60.2313,63.751 l 0,0 c -21.4404,-20.39 -42.5344,-41.237 -60.9942,-64.425 -11.3262,-14.957 59.179,-68.349 70.5053,-53.393 z" id="path9793" inkscape:connector-curvature="0" style="fill:#2b0000;fill-opacity:1;fill-rule:nonzero;stroke:#f9f9f9;stroke-width:0.1;stroke-miterlimit:4;stroke-dasharray:none" transform="translate(-9216, -25600)"/><path d="m 9960.3356,25808.494 c -18.0494,30.254 -39.4052,58.262 -61.4147,85.696 -14.467,17.664 -29.7161,34.657 -44.9293,51.673 -12.2744,13.735 -77.0219,-44.127 -64.7475,-57.862 l 0,0 c 14.1356,-15.825 28.3085,-31.627 41.7047,-48.091 19.1076,-24.051 37.9456,-48.504 52.7018,-75.546 9.3614,-16.268 86.0464,27.863 76.685,44.13 z" id="path9795" inkscape:connector-curvature="0" style="fill:#2b0000;fill-opacity:1;fill-rule:nonzero;stroke:#f9f9f9;stroke-width:0.1;stroke-miterlimit:4;stroke-dasharray:none" transform="translate(-9216, -25600)"/><path d="m 9401.8249,25972.339 c 45.6136,-3.426 91.1714,-7.607 136.7202,-11.803 72.3829,-7.161 144.6926,-14.981 217.1671,-21.178 53.8647,-5.083 107.8934,-6.057 161.7997,-1.629 29.231,3.161 58.248,7.926 87.4391,11.415 18.519,2.355 7.415,89.651 -11.1032,87.296 l 0,0 c -28.0358,-3.769 -55.9419,-8.408 -84.0049,-11.965 -48.9466,-4.686 -98.073,-4.072 -147.0659,0.19 -72.1038,5.773 -144.0172,13.451 -215.9265,21.254 -45.6269,4.672 -91.2805,9.124 -136.8341,14.479 -18.68,1.738 -26.8715,-86.321 -8.1915,-88.059 z" id="path9797" inkscape:connector-curvature="0" style="fill:#2b0000;fill-opacity:1;fill-rule:nonzero;stroke:#f9f9f9;stroke-width:0.1;stroke-miterlimit:4;stroke-dasharray:none" transform="translate(-9216, -25600)"/><path d="m 9614.9737,26032.764 c -18.9279,30.186 -38.2109,60.144 -57.4244,90.148 -23.3062,36.253 -45.7026,73.151 -63.6975,112.358 3.0181,4.316 -7.191,11.208 -5.0695,16.585 0.5036,1.277 1.0765,-2.524 1.6147,-3.787 -0.054,18.745 -88.4189,18.489 -88.3646,-0.256 l 0,0 c 1.5984,-17.729 4.2608,-33.871 12.8888,-49.826 20.3399,-42.07 44.2904,-82.184 69.4272,-121.554 18.7276,-29.744 37.707,-59.351 55.1356,-89.886 9.8044,-16.014 85.2941,30.204 75.4897,46.218 z" id="path9799" inkscape:connector-curvature="0" style="fill:#2b0000;fill-opacity:1;fill-rule:nonzero;stroke:#f9f9f9;stroke-width:0.1;stroke-miterlimit:4;stroke-dasharray:none" transform="translate(-9216, -25600)"/><path d="m 9873.5645,26005.77 c 11.7128,21.925 30.1454,39.062 48.1237,55.794 27.3862,23.75 54.9436,47.127 78.9918,74.325 12.169,14.033 -53.9821,71.397 -66.1508,57.364 l 0,0 c -21.374,-25.387 -47.7525,-45.622 -72.2839,-67.803 -25.6222,-23.836 -50.6891,-48.818 -67.6944,-79.79 -8.462,-16.761 70.5516,-56.651 79.0136,-39.89 z" id="path9801" inkscape:connector-curvature="0" style="fill:#2b0000;fill-opacity:1;fill-rule:nonzero;stroke:#f9f9f9;stroke-width:0.1;stroke-miterlimit:4;stroke-dasharray:none" transform="translate(-9216, -25600)"/><path d="m 9588.3305,26161.901 c 36.7844,1.145 73.5705,-0.822 110.3303,-1.982 40.1135,-1.512 80.2964,0.284 119.3346,9.956 18.0135,4.839 -4.7957,89.755 -22.8093,84.917 l 0,0 c -30.2069,-9.319 -62.4149,-8.535 -93.6904,-8.153 -37.9494,1.285 -75.8759,3.288 -113.8508,3.701 -18.7607,-0.146 -18.0752,-88.585 0.6856,-88.439 z" id="path9809" inkscape:connector-curvature="0" style="fill:#2b0000;fill-opacity:1;fill-rule:nonzero;stroke:#f9f9f9;stroke-width:0.1;stroke-miterlimit:4;stroke-dasharray:none" transform="translate(-9216, -25600)"/><path d="m 9498.1111,26341.098 c 42.7274,-3.575 85.4299,-7.43 128.1673,-10.886 57.7943,-4.843 115.7545,-6.568 173.7306,-6.232 36.3504,0.218 72.6228,3.143 108.9661,3.433 18.648,0.393 16.7952,88.3 -1.8528,87.907 l 0,0 c -35.9815,-1.163 -71.8741,-4.316 -107.8815,-4.901 -55.3133,-0.674 -110.6229,0.861 -165.7457,5.779 -41.9752,3.654 -83.9578,7.485 -125.7631,12.771 -18.6402,2.041 -28.2611,-85.83 -9.6209,-87.871 z" id="path9811" inkscape:connector-curvature="0" style="fill:#2b0000;fill-opacity:1;fill-rule:nonzero;stroke:#f9f9f9;stroke-width:0.1;stroke-miterlimit:4;stroke-dasharray:none" transform="translate(-9216, -25600)"/><path d="m 9746.4201,26011.413 c -2.4795,49.113 -0.6742,98.353 0.2191,147.491 1.326,77.785 2.6015,155.571 4.66,233.34 1.0668,40.247 2.6372,80.476 4.5101,120.693 0.6476,18.532 -86.7134,21.584 -87.3609,3.052 l 0,0 c -0.9511,-40.607 -1.9236,-81.214 -2.6626,-121.826 -1.4337,-77.753 -2.4502,-155.516 -4.5067,-233.257 -1.476,-51.365 -3.7274,-102.745 -3.1567,-154.141 0.9858,-18.73 89.2836,-14.083 88.2977,4.648 z" id="path9813" inkscape:connector-curvature="0" style="fill:#2b0000;fill-opacity:1;fill-rule:nonzero;stroke:#f9f9f9;stroke-width:0.1;stroke-miterlimit:4;stroke-dasharray:none" transform="translate(-9216, -25600)"/></svg>