<?xml version="1.0" encoding="utf-8" ?>

<!DOCTYPE svg PUBLIC "-//W3C//DTD SVG 1.1//EN" 
  "http://www.w3.org/Graphics/SVG/1.1/DTD/svg11.dtd">
<svg 
    xmlns="http://www.w3.org/2000/svg"
    xmlns:xlink="http://www.w3.org/1999/xlink"
    xmlns:sodipodi="http://sodipodi.sourceforge.net/DTD/sodipodi-0.dtd"
    xmlns:inkscape="http://www.inkscape.org/namespaces/inkscape"
    width="1024" height="1024" id="U4F60">
<path d="m 9554.3459,35101.558 c -24.2957,31.283 -46.358,64.194 -67.7583,97.496 -22.5044,35.353 -43.2407,71.78 -61.255,109.619 -7.2134,15.496 -13.6761,31.322 -20.2363,47.1 -0.4067,0.971 -0.8134,1.941 -1.2201,2.912 -7.6007,17.234 -88.8445,-18.596 -81.2439,-35.83 l 0,0 c 0.4088,-0.879 0.8177,-1.757 1.2265,-2.636 7.6489,-16.578 14.8822,-33.347 22.8916,-49.758 20.0949,-40.58 42.7965,-79.759 67.0675,-117.987 22.3523,-35.048 45.4059,-69.626 69.46,-103.534 11.1619,-15.076 82.2299,37.542 71.068,52.618 z" id="path10429" inkscape:connector-curvature="0" style="fill:#c83737;fill-opacity:1;fill-rule:nonzero;stroke:#f9f9f9;stroke-width:0.1;stroke-miterlimit:4;stroke-dasharray:none" transform="translate(-9216, -34816)"/><path d="m 9514.8325,35234.512 c -1.4551,38.636 -1.491,77.307 -1.3827,115.964 0.1129,59.736 2.7414,119.411 6.4233,179.02 2.7458,40.032 5.4157,80.074 8.6272,120.072 0.76,6.036 0.8413,12.272 2.7398,18.105 3.8125,18.392 -82.8878,36.364 -86.7004,17.972 l 0,0 c -1.759,-9.915 -3.131,-19.866 -3.5232,-29.949 -2.43,-40.377 -4.6422,-80.769 -7.1494,-121.142 -3.4162,-61.08 -5.9853,-122.206 -6.6305,-183.385 -0.5154,-39.159 -0.7253,-78.317 -0.9398,-117.477 0.1739,-18.781 88.7096,-17.961 88.5357,0.82 z" id="path10431" inkscape:connector-curvature="0" style="fill:#c83737;fill-opacity:1;fill-rule:nonzero;stroke:#f9f9f9;stroke-width:0.1;stroke-miterlimit:4;stroke-dasharray:none" transform="translate(-9216, -34816)"/><path d="m 9738.9609,35100.778 c -12.9201,32.468 -25.3826,65.108 -38.626,97.45 -15.6392,37.576 -32.0529,74.821 -48.1698,112.192 -3.2187,7.786 -6.6796,15.471 -8.8958,23.611 -5.8684,17.803 -89.7934,-9.86 -83.925,-27.663 l 0,0 c 3.7802,-10.644 7.969,-21.097 12.7663,-31.333 16.428,-36.272 32.6998,-72.623 47.8178,-109.465 12.9505,-32.16 25.2299,-64.571 36.7484,-97.273 6.8902,-17.455 89.1743,15.026 82.2841,32.481 z" id="path10433" inkscape:connector-curvature="0" style="fill:#c83737;fill-opacity:1;fill-rule:nonzero;stroke:#f9f9f9;stroke-width:0.1;stroke-miterlimit:4;stroke-dasharray:none" transform="translate(-9216, -34816)"/><path d="m 9675.6588,35145.534 c 30.8353,-19.028 65.7253,-28.8 100.6679,-37.024 41.1014,-8.7 82.9274,-13.181 124.7435,-16.684 33.0946,-2.855 66.3191,-3.358 99.5108,-2.729 17.758,0.417 35.536,0.819 53.189,2.898 10.706,1.38 21.12,4.156 31.233,7.86 37.817,20 34.021,51.08 21.506,84.9 -9.5,24.356 -19.35,48.571 -28.728,72.975 -7.396,20.427 -15.205,40.687 -23.893,60.6 -1.211,2.468 -2.422,4.935 -3.633,7.403 -8.489,16.738 -87.394,-23.28 -78.9049,-40.018 l 0,0 c 0.6349,-1.172 1.2698,-2.344 1.9047,-3.516 8.4501,-18.286 15.7767,-37.035 22.6961,-55.951 9.2121,-23.917 18.8161,-47.683 27.7671,-71.699 0.815,-2.287 1.634,-4.574 2.447,-6.863 0.337,-0.95 0.403,-3.666 1.001,-2.854 0.855,1.16 -0.222,2.913 0.08,4.321 3.261,15.223 9.898,27.396 25.137,33.344 -3.21,-1.325 -6.669,-1.962 -10.063,-2.698 -14.492,-2.298 -29.283,-2.055 -43.891,-2.944 -30.0913,-0.925 -60.2263,-0.715 -90.2478,1.796 -37.4948,2.993 -75.0095,6.88 -111.8593,14.652 -24.7784,5.857 -50.0087,12.146 -71.7631,25.936 -15.635,10.373 -64.5351,-63.331 -48.9,-73.705 z" id="path10435" inkscape:connector-curvature="0" style="fill:#c83737;fill-opacity:1;fill-rule:nonzero;stroke:#f9f9f9;stroke-width:0.1;stroke-miterlimit:4;stroke-dasharray:none" transform="translate(-9216, -34816)"/><path d="m 9873.5461,35242.13 c 4.5266,40.822 4.3658,81.901 3.7182,122.903 -1.3811,58.069 -4.5957,116.062 -10.1362,173.88 -4.5282,43.09 -11.135,85.919 -16.7358,128.874 -2.7613,21.346 -4.7725,42.778 -7.2802,64.153 -0.2921,1.851 -0.5842,3.702 -0.8764,5.552 -3.5795,18.49 -90.7402,1.616 -87.1607,-16.874 l 0,0 c 0.11,-0.226 0.2199,-0.453 0.3299,-0.679 3.4278,-21.205 5.3144,-42.638 8.4736,-63.883 5.8881,-41.854 12.6296,-83.597 17.3382,-125.609 5.6122,-55.316 8.7767,-110.834 9.7256,-166.432 0.2749,-36.707 0.4066,-73.6 -5.0749,-109.997 -2.522,-18.599 85.1568,-30.488 87.6787,-11.888 z" id="path10437" inkscape:connector-curvature="0" style="fill:#c83737;fill-opacity:1;fill-rule:nonzero;stroke:#f9f9f9;stroke-width:0.1;stroke-miterlimit:4;stroke-dasharray:none" transform="translate(-9216, -34816)"/><path d="m 9784.186,35476.948 c -16.5402,20.313 -29.4425,43.254 -42.2283,66.024 -14.8117,27.093 -29.7061,54.138 -44.6739,81.144 -4.3446,7.599 -9.0259,15.711 -12.47,23.487 -7.4631,17.27 -88.8742,-17.911 -81.4111,-35.181 l 0,0 c 5.1616,-10.776 11.287,-20.991 17.349,-31.284 15.2518,-26.801 30.2402,-53.748 45.0077,-80.819 15.106,-27.063 30.5909,-54.034 49.3986,-78.745 11.7467,-14.643 80.7747,40.731 69.028,55.374 z" id="path10439" inkscape:connector-curvature="0" style="fill:#c83737;fill-opacity:1;fill-rule:nonzero;stroke:#f9f9f9;stroke-width:0.1;stroke-miterlimit:4;stroke-dasharray:none" transform="translate(-9216, -34816)"/><path d="m 10023.379,35453.245 c 11.934,18.413 29.289,32.524 45.385,47.143 20.86,18.675 40.949,38.206 59.55,59.138 12.265,14.107 -54.235,71.925 -66.5,57.818 l 0,0 c -15.817,-18.741 -33.557,-35.731 -51.778,-52.114 -23.4318,-21.167 -47.6776,-42.175 -64.2504,-69.458 -9.0214,-16.46 68.5724,-58.987 77.5934,-42.527 z" id="path10441" inkscape:connector-curvature="0" style="fill:#c83737;fill-opacity:1;fill-rule:nonzero;stroke:#f9f9f9;stroke-width:0.1;stroke-miterlimit:4;stroke-dasharray:none" transform="translate(-9216, -34816)"/></svg>