<?xml version="1.0" encoding="UTF-8" standalone="no"?>
<svg
   xmlns:dc="http://purl.org/dc/elements/1.1/"
   xmlns:cc="http://creativecommons.org/ns#"
   xmlns:rdf="http://www.w3.org/1999/02/22-rdf-syntax-ns#"
   xmlns:svg="http://www.w3.org/2000/svg"
   xmlns="http://www.w3.org/2000/svg"
   xmlns:sodipodi="http://sodipodi.sourceforge.net/DTD/sodipodi-0.dtd"
   xmlns:inkscape="http://www.inkscape.org/namespaces/inkscape"
   width="1024"
   height="1024"
   id="U4F5C"
   version="1.1"
   inkscape:version="0.48.0 r9654"
   sodipodi:docname="U+4F5C.svg">
  <metadata
     id="metadata14">
    <rdf:RDF>
      <cc:Work
         rdf:about="">
        <dc:format>image/svg+xml</dc:format>
        <dc:type
           rdf:resource="http://purl.org/dc/dcmitype/StillImage" />
      </cc:Work>
    </rdf:RDF>
  </metadata>
  <defs
     id="defs12" />
  <sodipodi:namedview
     pagecolor="#ffffff"
     bordercolor="#666666"
     borderopacity="1"
     objecttolerance="10"
     gridtolerance="10"
     guidetolerance="10"
     inkscape:pageopacity="0"
     inkscape:pageshadow="2"
     inkscape:window-width="640"
     inkscape:window-height="480"
     id="namedview10"
     showgrid="false"
     inkscape:zoom="0.27441406"
     inkscape:cx="512"
     inkscape:cy="512"
     inkscape:window-x="0"
     inkscape:window-y="25"
     inkscape:window-maximized="0"
     inkscape:current-layer="U4F5C" />
  <path
     style="fill:#2b1100;fill-opacity:1;fill-rule:nonzero;stroke:none"
     d="M 456.9375 164.03125 C 453.3821 163.99908 450.67834 164.96802 449.25 167.1875 C 430.1182 199.3305 414.53495 233.40425 399.34375 267.53125 C 376.59895 318.66025 358.1244 371.496 341.875 425 C 335.3196 447.129 329.8053 469.545 324.5 492 C 320.4667 510.205 406.2792 529.205 410.3125 511 C 414.5411 490.433 419.12785 469.93275 424.84375 449.71875 C 433.38463 420.4585 442.79844 391.46164 453.5 362.9375 C 460.18725 378.08205 468.65482 389.55162 475.625 387.25 C 476.03008 387.1131 476.43808 386.97844 476.84375 386.84375 C 477.96746 426.427 478.39316 466.02884 478.78125 505.625 C 479.03001 557.84529 478.65789 610.06278 478.6875 662.28125 C 478.42746 662.32415 478.16631 662.36344 477.90625 662.40625 C 464.94409 664.83026 469.12539 708.45775 479.15625 733 C 480.07039 780.64388 481.82111 828.26225 484.40625 875.84375 C 485.04285 894.72175 486.64565 913.45975 492.03125 931.59375 C 498.30375 949.33475 581.92885 919.742 575.65625 902 C 575.71125 902.648 576.1665 904.51375 575.8125 903.96875 C 569.9592 894.95775 575.01695 879.7765 571.53125 870.3125 C 568.24395 825.45577 566.02629 780.52205 564.78125 735.5625 C 574.04316 733.84076 583.29098 732.13592 592.5625 730.46875 C 632.5306 723.17175 672.92805 718.85875 713.46875 716.59375 C 729.06625 715.87875 744.69685 715.8755 760.28125 716.8125 C 778.96995 717.5505 782.4387 629.45675 763.75 628.71875 C 745.1977 628.26675 726.6552 628.4375 708.125 629.5625 C 664.3414 632.4855 620.69745 637.23225 577.46875 644.90625 C 572.94886 645.69005 568.42351 646.51366 563.90625 647.3125 C 563.89535 612.59125 564.13801 577.87897 564.34375 543.15625 C 583.66898 540.27839 603.04988 537.79081 622.5 535.84375 C 648.4808 533.37375 674.5239 531.73825 700.625 532.03125 C 703.6578 531.47983 707.04534 531.85466 709.53125 532.34375 C 709.00627 532.17389 708.25718 531.91298 707.59375 531.6875 C 725.23117 534.49983 764.78583 462.40859 748.96875 453.5625 C 733.44375 446.3615 717.8703 442.7685 700.625 443.9375 C 671.5946 444.2145 642.6414 446.156 613.75 449 C 597.28139 450.66954 580.84515 452.68899 564.4375 454.8125 C 564.347 426.24737 564.26705 397.68896 564.375 369.125 C 602.04147 364.16424 639.9032 360.76248 677.78125 357.90625 C 712.10405 355.49425 746.3534 352.3095 780.6875 350.0625 C 794.3371 349.4745 787.9703 349.5825 799.75 349.5625 C 818.4375 349.2055 816.75 261.11075 798.0625 261.46875 C 782.7551 261.95275 790.66335 261.58975 774.34375 262.59375 C 739.92625 265.31275 705.5613 268.66325 671.125 271.15625 C 629.0425 274.41525 587.01145 278.3005 545.15625 283.8125 C 524.10089 286.79025 503.04147 290.0158 482.25 294.46875 C 494.70237 267.32952 507.56362 240.25071 523.65625 215.0625 C 532.38509 201.49898 478.66492 164.22785 456.9375 164.03125 z M 709.53125 532.34375 C 714.90363 534.08198 713.38143 533.10126 709.53125 532.34375 z M 316.9375 201.375 C 315.34814 201.36569 313.92988 201.77414 312.78125 202.6875 C 288.06715 222.6075 266.589 245.94475 245.6875 269.71875 C 211.5257 309.69575 181.748 353.1125 152.4375 396.6875 C 132.3324 427.7945 110.588 458.3165 96.625 492.8125 C 90.159 510.3825 173.00275 540.8825 179.46875 523.3125 C 186.79134 494.5518 210.33222 471.35651 223.78125 445.59375 C 224.22776 462.88761 224.33897 480.18133 224.375 497.46875 C 223.5196 554.07675 222.0047 610.66525 222.9375 667.28125 C 223.6317 704.38725 226.85045 741.35925 232.46875 778.03125 C 235.03895 792.22425 233.69915 785.453 236.40625 798.375 C 240.47855 816.651 326.6348 797.43225 322.5625 779.15625 C 320.275 769.68425 321.4154 774.78225 319.1875 763.90625 C 313.5188 731.38125 310.32885 698.48075 309.40625 665.46875 C 308.00005 609.51575 309.43135 553.60025 310.71875 497.65625 C 310.97805 457.49825 310.7583 417.32175 308.375 377.21875 C 307.73491 370.17781 294.83829 366.94393 279.09375 366.625 C 289.25165 353.25082 299.77526 340.15714 310.8125 327.46875 C 328.524 307.68775 346.55405 287.967 367.90625 272 C 381.46012 261.22236 335.69197 201.48488 316.9375 201.375 z "
     id="path16141" />
</svg>
