<?xml version="1.0" encoding="utf-8" ?>

<!DOCTYPE svg PUBLIC "-//W3C//DTD SVG 1.1//EN" 
  "http://www.w3.org/Graphics/SVG/1.1/DTD/svg11.dtd">
<svg 
    xmlns="http://www.w3.org/2000/svg"
    xmlns:xlink="http://www.w3.org/1999/xlink"
    xmlns:sodipodi="http://sodipodi.sourceforge.net/DTD/sodipodi-0.dtd"
    xmlns:inkscape="http://www.inkscape.org/namespaces/inkscape"
    width="1024" height="1024" id="U4F1A">
<path d="m 8687.7971,19693.506 c -34.4993,25.458 -63.4519,57.506 -92.2499,89.023 -42.7395,47.818 -82.5596,98.114 -119.7667,150.327 -18.6966,26.454 -35.6687,54.055 -51.3133,82.405 -2.3144,3.803 -4.4337,8.08 -6.4662,12.025 -8.7411,16.9 -88.4099,-24.306 -79.6689,-41.206 l 0,0 c 2.8209,-5.054 5.8241,-9.986 8.8168,-14.941 17.9806,-30.587 37.1591,-60.458 57.9726,-89.208 39.6431,-54.427 81.6522,-107.081 126.1984,-157.593 33.1911,-36.926 66.7133,-74.066 106.0689,-104.618 15.6524,-10.693 66.0607,63.093 50.4083,73.786 z" id="path8223" inkscape:connector-curvature="0" style="fill:#550000;fill-opacity:1;fill-rule:nonzero;stroke:#f9f9f9;stroke-width:0.1;stroke-miterlimit:4;stroke-dasharray:none" transform="translate(-8192, -19456)"/><path d="m 8640.165,19640.405 c 47.5663,23.781 93.512,50.531 139.0906,77.876 60.244,36.521 118.4234,76.262 174.9372,118.289 30.9171,23.211 60.1492,48.548 87.5391,75.811 2.4217,2.665 4.8435,5.329 7.2652,7.993 12.4652,14.222 -54.5809,72.984 -67.046,58.761 l 0,0 c -1.233,-1.506 -2.4659,-3.012 -3.6988,-4.517 -23.6147,-24.792 -49.1928,-47.61 -76.3304,-68.502 -53.6024,-40.742 -109.0483,-79.008 -166.8551,-113.585 -43.4667,-25.651 -87.2448,-50.991 -133.3721,-71.635 -17.0749,-8.16 21.3954,-88.652 38.4703,-80.491 z" id="path8227" inkscape:connector-curvature="0" style="fill:#550000;fill-opacity:1;fill-rule:nonzero;stroke:#f9f9f9;stroke-width:0.1;stroke-miterlimit:4;stroke-dasharray:none" transform="translate(-8192, -19456)"/><path d="m 8527.1521,19963.848 c 42.3667,-4.858 84.6507,-10.411 127.0214,-15.266 45.1346,-4.82 90.3136,-9.21 135.4616,-13.903 17.3835,-1.717 34.705,-3.691 52.1644,-2.613 18.8875,2.136 8.8194,91.172 -10.0681,89.037 l 0,0 c 12.9862,-1.794 -51.6366,2.288 -33.7924,1.503 -44.5995,3.788 -89.1817,7.829 -133.6787,12.688 -42.2413,4.988 -84.4083,10.52 -126.424,17.17 -18.7983,2.267 -29.4825,-86.349 -10.6842,-88.616 z" id="path8235" inkscape:connector-curvature="0" style="fill:#550000;fill-opacity:1;fill-rule:nonzero;stroke:#f9f9f9;stroke-width:0.1;stroke-miterlimit:4;stroke-dasharray:none" transform="translate(-8192, -19456)"/><path d="m 8427.1723,20103.523 c 50.3318,-2.313 100.5167,-7.084 150.6632,-11.853 69.596,-6.598 138.8892,-15.906 208.1032,-25.64 38.2821,-5.029 76.3445,-12.218 114.9052,-14.829 16.4923,0.285 7.5322,-0.591 26.7737,3.55 18.0263,6.026 -10.3823,91.003 -28.4086,84.976 l 0,0 c 8.8704,0.943 10.8073,1.496 6.0318,0.365 -36.1073,0.788 -71.7652,8.226 -107.6004,11.969 -70.3369,9.245 -140.689,18.459 -211.2674,25.697 -50.9292,5.255 -101.8859,10.222 -152.8871,14.73 -18.8722,1.339 -25.1858,-87.625 -6.3136,-88.965 z" id="path8237" inkscape:connector-curvature="0" style="fill:#550000;fill-opacity:1;fill-rule:nonzero;stroke:#f9f9f9;stroke-width:0.1;stroke-miterlimit:4;stroke-dasharray:none" transform="translate(-8192, -19456)"/><path d="m 8666.2678,20187.836 c -22.7392,27.39 -43.542,56.334 -64.6055,85.016 -22.6528,30.589 -45.1292,61.308 -66.2299,92.993 -3.8411,9.576 -14.3506,17.663 -16.442,28.12 -0.1334,0.666 0.997,-1.008 1.1838,-1.661 0.9148,-3.202 1.3882,-6.514 2.0824,-9.771 -3.7739,-18.327 -0.8591,-17.622 -14.9971,-31.245 -2.0826,-2.007 -5.0788,-2.773 -7.5487,-4.278 -0.2708,-0.165 -0.9448,-0.64 -0.6351,-0.708 4.6805,-1.037 9.5668,-0.643 14.3441,-1.042 39.4444,-4.941 78.3207,-13.637 117.3392,-21.118 51.4907,-10.037 103.1554,-19.102 155.1041,-26.413 28.7915,-3.921 57.7204,-6.807 86.7498,-8.106 6.6568,-0.27 13.3178,-0.393 19.9793,-0.45 19.0272,0.109 18.5149,89.804 -0.5123,89.695 l 0,0 c -5.5172,-0.129 -11.0361,-0.192 -16.5548,-0.118 -26.0438,0.476 -52.0161,2.684 -77.8618,5.898 -50.3586,6.571 -100.3994,15.205 -150.1854,25.234 -42.0124,8.333 -83.8096,18.17 -126.2976,23.803 -29.9628,2.708 -63.4514,3.874 -81.5277,-26.14 -4.2372,-7.036 -4.6485,-15.755 -6.9727,-23.632 0.6526,-5.955 0.7275,-12.002 1.9577,-17.865 3.9182,-18.673 18.3331,-33.782 27.5516,-49.792 22.1764,-32.258 45.4144,-63.751 68.663,-95.241 22.0462,-30.211 43.9415,-60.543 66.7225,-90.207 12.0975,-14.572 80.7906,42.456 68.6931,57.028 z" id="path8241" inkscape:connector-curvature="0" style="fill:#550000;fill-opacity:1;fill-rule:nonzero;stroke:#f9f9f9;stroke-width:0.1;stroke-miterlimit:4;stroke-dasharray:none" transform="translate(-8192, -19456)"/><path d="m 8868.0616,20175.936 c 11.827,27.103 28.0894,51.912 44.5286,76.376 19.826,29.257 41.6944,57.039 64.6656,83.871 8.5339,9.888 17.3279,19.567 26.7648,28.601 13.3957,13.367 -49.6194,76.515 -63.015,63.148 l 0,0 c -10.8618,-11.145 -21.2898,-22.702 -31.2661,-34.65 -24.7096,-29.544 -48.3926,-59.952 -70.083,-91.8 -19.279,-28.514 -38.0064,-57.49 -53.0107,-88.539 -7.8504,-17.27 73.5654,-54.278 81.4158,-37.007 z" id="path8243" inkscape:connector-curvature="0" style="fill:#550000;fill-opacity:1;fill-rule:nonzero;stroke:#f9f9f9;stroke-width:0.1;stroke-miterlimit:4;stroke-dasharray:none" transform="translate(-8192, -19456)"/></svg>