<?xml version="1.0" encoding="utf-8" ?>

<!DOCTYPE svg PUBLIC "-//W3C//DTD SVG 1.1//EN" 
  "http://www.w3.org/Graphics/SVG/1.1/DTD/svg11.dtd">
<svg 
    xmlns="http://www.w3.org/2000/svg"
    xmlns:xlink="http://www.w3.org/1999/xlink"
    xmlns:sodipodi="http://sodipodi.sourceforge.net/DTD/sodipodi-0.dtd"
    xmlns:inkscape="http://www.inkscape.org/namespaces/inkscape"
    width="1024" height="1024" id="U4FBF">
<path d="m 10569.976,2317.1151 c -23.442,27.3819 -39.281,60.2498 -55.457,92.1805 -30.749,63.9489 -60.332,128.4408 -91.186,192.3418 -22.859,47.5591 -47.49,94.243 -70.523,141.7134 -8.303,16.3985 -85.606,-22.7413 -77.303,-39.1398 l 0,0 c 24.366,-46.2376 48.836,-92.4269 71.752,-139.409 31.152,-64.1506 60.748,-129.0133 90.962,-193.6059 19.111,-38.7875 38.31,-78.0834 65.802,-111.7899 12.242,-13.9908 78.195,43.7182 65.953,57.7089 z" id="path20103" inkscape:connector-curvature="0" style="fill:#aa0000;fill-opacity:1;fill-rule:nonzero;stroke:#f9f9f9;stroke-width:0.1;stroke-miterlimit:4;stroke-dasharray:none" transform="translate(-10240, -2048)"/><path d="m 10499.477,2553.3736 c -1.76,43.5675 0.802,87.133 3.328,130.6131 3.989,65.2954 9.847,130.4418 17.407,195.4153 6.747,35.7798 6.154,74.0329 18.467,108.6494 5.305,17.7106 -78.184,42.7156 -83.488,25.005 l 0,0 c -11.045,-40.4929 -14.033,-82.6173 -19.579,-124.0925 -7.293,-66.428 -13.083,-132.9984 -17.662,-199.67 -3.027,-45.2589 -5.872,-90.5424 -6.119,-135.9203 0,-18.5926 87.646,-18.5926 87.646,0 z" id="path20105" inkscape:connector-curvature="0" style="fill:#aa0000;fill-opacity:1;fill-rule:nonzero;stroke:#f9f9f9;stroke-width:0.1;stroke-miterlimit:4;stroke-dasharray:none" transform="translate(-10240, -2048)"/><path d="m 10666.172,2334.7481 c 41.804,-11.018 84.897,-15.8699 127.722,-21.0237 43.051,-5.0686 86.209,-9.1458 129.297,-13.8741 3.457,-0.4057 6.913,-0.8114 10.369,-1.2171 18.399,-1.8276 27.014,84.9056 8.616,86.7332 l 0,0 c -3.54,0.2892 -7.079,0.5783 -10.618,0.8675 -42.468,3.5722 -84.934,7.2913 -127.253,12.3767 -37.576,4.6997 -75.603,8.8659 -111.994,19.7827 -17.744,5.5449 -43.883,-78.1002 -26.139,-83.6452 z" id="path20107" inkscape:connector-curvature="0" style="fill:#aa0000;fill-opacity:1;fill-rule:nonzero;stroke:#f9f9f9;stroke-width:0.1;stroke-miterlimit:4;stroke-dasharray:none" transform="translate(-10240, -2048)"/><path d="m 10699.715,2458.9616 c -10.889,36.3807 -11.063,74.69 -10.196,112.305 2.003,39.4199 8.052,78.654 20.103,116.2725 5.318,17.5967 -77.633,42.6659 -82.951,25.0692 l 0,0 c -13.113,-45.3933 -20.678,-92.1772 -22.685,-139.4189 -1.038,-47.1652 -0.137,-94.8051 12.344,-140.6528 5.605,-17.6887 88.991,8.7363 83.385,26.425 z" id="path20109" inkscape:connector-curvature="0" style="fill:#aa0000;fill-opacity:1;fill-rule:nonzero;stroke:#f9f9f9;stroke-width:0.1;stroke-miterlimit:4;stroke-dasharray:none" transform="translate(-10240, -2048)"/><path d="m 10681.669,2471.7946 c 36.067,-22.4815 77.725,-32.5719 118.718,-41.7936 45.512,-9.5428 91.683,-15.3748 138.027,-18.8147 27.861,-1.1376 59.923,-2.2762 82.538,17.4023 5.541,4.8215 9.493,11.2111 14.239,16.8167 15.081,29.5599 10.619,61.7365 6.577,93.341 -4.611,33.6656 -13.687,66.4155 -25.182,98.3187 -2.163,5.0423 -4.327,10.0847 -6.49,15.127 -7.403,16.8669 -86.915,-18.0348 -79.511,-34.9017 l 0,0 c 1.518,-3.3447 3.037,-6.6895 4.555,-10.0342 9.585,-25.6587 16.808,-52.154 20.469,-79.3459 1.334,-10.8303 1.677,-12.46 2.45,-23.0152 0.161,-2.1968 -2.04,-21.8087 4.175,-11.1657 8.392,6.5149 12.051,5.7263 11.387,5.4491 -9.058,-3.7814 -20.093,-1.11 -29.404,-1.8095 -41.961,2.4967 -83.746,7.6527 -124.896,16.3767 -29.702,6.7543 -60.444,13.4227 -86.802,29.3797 -15.132,10.7868 -65.982,-60.5439 -50.85,-71.3307 z" id="path20111" inkscape:connector-curvature="0" style="fill:#aa0000;fill-opacity:1;fill-rule:nonzero;stroke:#f9f9f9;stroke-width:0.1;stroke-miterlimit:4;stroke-dasharray:none" transform="translate(-10240, -2048)"/><path d="m 10744.62,2565.6372 c 40.022,-9.9772 81.395,-9.8654 122.311,-8.1172 24.726,1.0429 48.991,4.8603 72.843,11.2564 17.719,5.1725 -6.664,88.7017 -24.383,83.5292 l 0,0 c -16.856,-5.7743 -34.655,-7.3648 -52.345,-8.7198 -31.29,-1.5021 -63.226,-2.3111 -93.734,6.0047 -17.809,5.238 -42.502,-78.7153 -24.692,-83.9533 z" id="path20113" inkscape:connector-curvature="0" style="fill:#aa0000;fill-opacity:1;fill-rule:nonzero;stroke:#f9f9f9;stroke-width:0.1;stroke-miterlimit:4;stroke-dasharray:none" transform="translate(-10240, -2048)"/><path d="m 10728.76,2719.9258 c -13.747,7.3231 -30.555,12.4853 -41.885,23.6225 13.257,-11.8648 19.454,-14.8317 12.726,-44.1649 -2.262,-9.8628 -13.249,-15.2983 -19.932,-22.8962 -0.437,-0.4974 -2.083,-1.3029 -1.425,-1.3849 8.375,-1.0447 16.876,0.3694 25.316,0.3976 45.49,-0.438 90.957,-2.0041 136.385,-4.3532 23.948,-2.7649 49.21,-1.4148 72.364,-9.0387 17.872,-4.7274 40.157,79.5233 22.284,84.2506 l 0,0 c -29.643,7.0562 -60.012,8.9357 -90.388,10.5316 -46.669,2.2265 -93.362,3.8554 -140.068,5.0906 -12.547,0.1876 -45.634,2.658 -56.312,-3.8053 -37.01,-22.4006 -47.289,-50.3736 -14.823,-83.6288 18.796,-13.8359 39.533,-24.7103 60.513,-34.8581 17.021,-7.4765 52.266,72.7608 35.245,80.2372 z" id="path20115" inkscape:connector-curvature="0" style="fill:#aa0000;fill-opacity:1;fill-rule:nonzero;stroke:#f9f9f9;stroke-width:0.1;stroke-miterlimit:4;stroke-dasharray:none" transform="translate(-10240, -2048)"/><path d="m 10838.319,2380.6504 c -3.096,47.4672 -9.767,94.5796 -16.968,141.5657 -13.143,78.1156 -28.839,155.7825 -44.479,233.4296 -11.857,61.0951 -25.793,121.8455 -55.315,176.9841 -17.347,27.3043 -30.35,34.5439 -58.751,47.6035 -17.237,6.4762 -47.765,-74.7756 -30.529,-81.2517 l 0,0 c 5.97,3.4238 10.677,-4.7336 14.065,-8.3042 27.425,-46.1354 36.094,-100.1994 47.943,-151.8296 15.627,-76.0864 31.045,-152.2665 43.096,-229.0149 6.181,-43.7046 12.213,-87.5754 13.438,-131.7561 0.546,-18.5616 88.046,-15.9881 87.5,2.5736 z" id="path20117" inkscape:connector-curvature="0" style="fill:#aa0000;fill-opacity:1;fill-rule:nonzero;stroke:#f9f9f9;stroke-width:0.1;stroke-miterlimit:4;stroke-dasharray:none" transform="translate(-10240, -2048)"/><path d="m 10539.868,2779.3719 c 36.015,4.7864 71.192,14.2046 106.459,22.6802 56.77,13.6016 114.244,23.9421 171.547,34.9856 55.937,10.6078 111.366,23.6274 166.779,36.6397 30.091,7.5169 60.608,13.0545 91.01,19.1096 12.728,2.4299 25.146,6.1064 37.638,9.4742 17.894,5.1405 -6.338,89.4928 -24.232,84.3523 l 0,0 c -10.276,-3.0908 -20.512,-6.3449 -31.038,-8.5245 -31.203,-6.6957 -62.527,-12.8718 -93.425,-20.9173 -54.021,-13.257 -108.099,-26.3754 -162.77,-36.7261 -58.461,-11.2149 -117.128,-21.477 -175.174,-34.7382 -31.364,-7.2104 -62.668,-15.6285 -94.721,-19.1387 -18.497,-1.6816 -10.57,-88.8784 7.927,-87.1968 z" id="path20119" inkscape:connector-curvature="0" style="fill:#aa0000;fill-opacity:1;fill-rule:nonzero;stroke:#f9f9f9;stroke-width:0.1;stroke-miterlimit:4;stroke-dasharray:none" transform="translate(-10240, -2048)"/></svg>