<?xml version="1.0" encoding="UTF-8" standalone="no"?>
<svg
   xmlns:dc="http://purl.org/dc/elements/1.1/"
   xmlns:cc="http://creativecommons.org/ns#"
   xmlns:rdf="http://www.w3.org/1999/02/22-rdf-syntax-ns#"
   xmlns:svg="http://www.w3.org/2000/svg"
   xmlns="http://www.w3.org/2000/svg"
   xmlns:sodipodi="http://sodipodi.sourceforge.net/DTD/sodipodi-0.dtd"
   xmlns:inkscape="http://www.inkscape.org/namespaces/inkscape"
   width="1024"
   height="1024"
   id="U4FE9"
   version="1.1"
   inkscape:version="0.48.0 r9654"
   sodipodi:docname="U+4FE9.svg">
  <metadata
     id="metadata16">
    <rdf:RDF>
      <cc:Work
         rdf:about="">
        <dc:format>image/svg+xml</dc:format>
        <dc:type
           rdf:resource="http://purl.org/dc/dcmitype/StillImage" />
      </cc:Work>
    </rdf:RDF>
  </metadata>
  <defs
     id="defs14" />
  <sodipodi:namedview
     pagecolor="#ffffff"
     bordercolor="#666666"
     borderopacity="1"
     objecttolerance="10"
     gridtolerance="10"
     guidetolerance="10"
     inkscape:pageopacity="0"
     inkscape:pageshadow="2"
     inkscape:window-width="640"
     inkscape:window-height="480"
     id="namedview12"
     showgrid="false"
     inkscape:zoom="0.27441406"
     inkscape:cx="512"
     inkscape:cy="512"
     inkscape:window-x="0"
     inkscape:window-y="25"
     inkscape:window-maximized="0"
     inkscape:current-layer="U4FE9" />
  <path
     style="fill:#2b0000;fill-opacity:1;fill-rule:nonzero;stroke:#f9f9f9;stroke-width:0.1;stroke-miterlimit:4;stroke-dasharray:none"
     d="M 194.875 201.6875 C 191.32395 201.70752 188.64379 202.70016 187.25 204.9375 C 168.0387 236.5425 147.95935 267.63625 128.40625 299.03125 C 107.87455 331.57725 87.34145 364.10525 67.21875 396.90625 C 59.12245 410.31525 50.6489 423.5065 42.1875 436.6875 C 41.861 437.1385 41.514 437.58025 41.1875 438.03125 C 30.8105 453.75625 104.9355 502.6625 115.3125 486.9375 C 116.0538 485.7705 116.78995 484.6045 117.53125 483.4375 C 123.67427 473.1954 129.88885 463.01097 136 452.75 C 136.32854 459.09 136.61588 465.44113 136.90625 471.78125 C 138.47115 520.11325 141.78205 568.35075 144.96875 616.59375 C 147.41905 652.40675 148.8399 688.27275 151.125 724.09375 C 152.4866 746.55375 154.9863 768.9145 158.125 791.1875 C 161.274 814.2115 163.5902 823.56725 177.5 843.15625 C 190.30257 855.89049 248.28668 798.70354 241.53125 782.09375 C 255.46107 803.61654 247.43366 796.79564 245.40625 778.40625 C 242.34015 758.37425 240.12495 738.23925 238.59375 718.03125 C 235.88765 682.28125 234.13225 646.4465 231.53125 610.6875 C 228.19815 563.2095 224.8481 515.72 223.6875 468.125 C 222.381 433.995 220.56605 399.907 217.59375 365.875 C 216.98223 359.92659 207.61087 356.78509 195.21875 355.875 C 197.49217 352.26889 199.74931 348.6633 202.03125 345.0625 C 221.71095 313.6895 241.7697 282.5455 262.25 251.6875 C 270.76761 238.01484 216.57586 201.56513 194.875 201.6875 z M 569.96875 221.5 C 560.39762 221.50948 550.82158 221.64 541.25 222 C 496.1456 224.512 451.51235 230.62825 407.53125 241.15625 C 377.63725 247.54225 347.73995 254.16425 317.53125 258.90625 C 299.00405 261.99325 313.56655 349.338 332.09375 346.25 C 363.49175 340.039 394.747 333.147 426 326.25 C 447.67235 320.9214 469.51983 316.80119 491.53125 313.84375 C 490.60867 340.46698 482.60747 366.00039 474.21875 391.0625 C 468.72327 406.00727 462.77329 420.74947 456.5 435.375 C 454.0622 435.92265 451.62107 436.45992 449.1875 437.03125 C 412.9168 445.27525 376.84055 454.45975 340.28125 461.34375 C 337.20872 461.91692 335.11023 464.81326 333.8125 469.21875 C 309.06497 464.32053 256.96786 474.16201 258.78125 488.5625 C 264.22875 528.3435 270.67055 567.91875 278.90625 607.21875 C 289.42715 652.51775 300.70445 697.6625 313.71875 742.3125 C 319.35265 759.8205 324.6139 777.519 332.3125 794.25 C 340.8413 811.016 419.87255 770.79725 411.34375 754.03125 C 405.93525 742.92025 401.53265 729.468 397.34375 717.25 C 394.18379 707.02708 391.17063 696.76141 388.25 686.46875 C 404.78181 695.34483 421.26047 700.08442 425.5 693.1875 C 431.311 683.3855 437.11205 673.583 442.65625 663.625 C 451.83202 647.01104 460.56615 630.17382 469 613.1875 C 485.6606 635.02769 505.04188 654.43393 525.59375 672.625 C 546.22725 690.501 569.1059 705.41525 592.625 719.15625 C 595.0808 720.50225 597.5442 721.8415 600 723.1875 C 616.5576 731.9865 658.02645 653.923 641.46875 645.125 C 641.05912 644.91693 640.65963 644.70797 640.25 644.5 C 646.17117 634.31278 652.09095 624.13182 658 613.9375 C 681.18369 635.59769 707.81133 653.03686 734.625 669.84375 C 762.0662 686.49175 790.03715 702.1945 817.71875 718.4375 C 821.11043 720.45637 821.4557 720.66193 822.8125 721.46875 C 820.63949 729.08437 818.45849 736.69847 816.28125 744.3125 C 812.32135 757.7825 809.06545 771.469 803.78125 784.5 C 797.27445 802.063 880.0557 832.71825 886.5625 815.15625 C 892.0266 799.61025 896.32615 783.7765 900.40625 767.8125 C 911.58665 726.7535 923.1417 685.7755 933.75 644.5625 C 943.4837 606.5505 952.91805 568.4395 959.28125 529.6875 C 962.91895 505.3675 965.3707 480.6085 953.25 458.0625 C 947.5646 447.4475 941.38675 436.98975 932.59375 428.59375 C 917.48195 415.81375 900.32115 407.9895 880.46875 405.8125 C 858.38705 403.0705 836.1881 402.2015 813.9375 402.6875 C 795.1907 402.7783 776.45632 403.04627 757.71875 403.5625 C 764.11688 382.87628 769.06511 361.80028 771.125 340.09375 C 772.3531 321.36575 684.07185 315.5845 682.84375 334.3125 C 681.03374 359.75826 673.20164 384.06275 664.375 407.84375 C 643.69381 409.17134 623.05581 410.85322 602.4375 413.03125 C 587.24059 414.66418 572.03664 416.37778 556.875 418.3125 C 568.33369 384.59862 578.28509 350.28018 580 314.46875 C 580.05169 312.29737 578.89941 310.3436 576.84375 308.625 C 602.88722 308.83505 628.92581 309.91662 654.96875 310.3125 C 680.99305 310.2965 706.9807 311.13975 732.9375 312.96875 C 740.4091 313.56275 748.7993 313.6735 755.375 316.9375 C 772.5248 324.6815 809.05605 243.83775 791.90625 236.09375 C 774.92305 228.91275 757.0001 225.61075 738.5625 225.09375 C 711.1027 223.50175 683.60145 222.84975 656.09375 222.96875 C 627.38022 222.659 598.68213 221.47155 569.96875 221.5 z M 821 490.4375 C 837.06732 490.44175 853.10406 491.11163 869.03125 493.34375 C 869.83461 493.332 870.61413 493.40114 871.34375 493.53125 C 871.6509 494.77677 874.58403 499.06794 874.90625 499.6875 C 874.57565 503.0055 873.012 511.99475 872.3125 516.96875 C 866.9867 552.84275 858.4329 588.107 849.625 623.25 C 848.71434 626.84475 847.77383 630.44172 846.84375 634.03125 C 824.78067 621.51138 802.68983 608.9992 781 595.84375 C 758.4901 581.73675 735.70165 567.3765 717.09375 548.1875 C 712.58606 543.4818 701.93429 547.80143 690.5 556 C 701.77796 535.02146 712.60821 513.80821 722.71875 492.25 C 724.13413 492.19744 725.55332 492.14486 726.96875 492.09375 C 756.00405 490.91875 785.03705 490.43875 814.09375 490.46875 C 816.39019 490.44425 818.70467 490.43689 821 490.4375 z M 872.40625 493.78125 C 876.78609 494.94276 878.74199 497.77685 872.5 493.875 C 872.4599 493.84053 872.44407 493.81293 872.40625 493.78125 z M 623.28125 498.125 C 614.63326 514.67685 605.57546 531.05205 596.34375 547.28125 C 587.35337 562.79245 578.16688 578.16851 568.875 593.5 C 557.14583 582.22523 546.24846 570.11319 537.09375 556.5625 C 531.18518 548.15759 506.85329 559.65126 487.78125 574.25 C 490.76894 567.88831 493.71259 561.50911 496.65625 555.125 C 503.54407 540.6367 510.42528 526.12017 517.1875 511.5625 C 548.42194 506.1842 579.95985 502.48263 611.5 499.25 C 615.42482 498.85552 619.3536 498.48016 623.28125 498.125 z M 410.0625 535.53125 C 397.31061 562.39627 384.17836 589.06014 369.625 615 C 367.59661 606.54943 365.62906 598.09458 363.6875 589.625 C 360.86191 575.89479 358.26985 562.12585 355.9375 548.3125 C 356.12227 548.296 356.31475 548.28457 356.5 548.25 C 374.39537 544.19162 392.23107 539.85665 410.0625 535.53125 z "
     id="path9912" />
</svg>
