<?xml version="1.0" encoding="UTF-8" standalone="no"?>
<svg
   xmlns:dc="http://purl.org/dc/elements/1.1/"
   xmlns:cc="http://creativecommons.org/ns#"
   xmlns:rdf="http://www.w3.org/1999/02/22-rdf-syntax-ns#"
   xmlns:svg="http://www.w3.org/2000/svg"
   xmlns="http://www.w3.org/2000/svg"
   xmlns:sodipodi="http://sodipodi.sourceforge.net/DTD/sodipodi-0.dtd"
   xmlns:inkscape="http://www.inkscape.org/namespaces/inkscape"
   width="1024"
   height="1024"
   id="U4FE1"
   version="1.1"
   inkscape:version="0.48.0 r9654"
   sodipodi:docname="U+4FE1.svg">
  <metadata
     id="metadata16">
    <rdf:RDF>
      <cc:Work
         rdf:about="">
        <dc:format>image/svg+xml</dc:format>
        <dc:type
           rdf:resource="http://purl.org/dc/dcmitype/StillImage" />
      </cc:Work>
    </rdf:RDF>
  </metadata>
  <defs
     id="defs14" />
  <sodipodi:namedview
     pagecolor="#ffffff"
     bordercolor="#666666"
     borderopacity="1"
     objecttolerance="10"
     gridtolerance="10"
     guidetolerance="10"
     inkscape:pageopacity="0"
     inkscape:pageshadow="2"
     inkscape:window-width="640"
     inkscape:window-height="480"
     id="namedview12"
     showgrid="false"
     inkscape:zoom="0.27441406"
     inkscape:cx="512"
     inkscape:cy="512"
     inkscape:window-x="0"
     inkscape:window-y="25"
     inkscape:window-maximized="0"
     inkscape:current-layer="U4FE1" />
  <path
     style="fill:#916f6f;fill-opacity:1;fill-rule:nonzero;stroke:#f9f9f9;stroke-width:0.1;stroke-miterlimit:4;stroke-dasharray:none"
     d="M 628.0625 28.8125 C 601.48818 28.688855 561.05438 40.085188 563.34375 52.78125 C 569.68185 83.92325 581.59725 113.30075 595.78125 141.59375 C 603.1737 156.00311 612.29386 169.35295 621.09375 182.90625 C 589.5274 186.53388 558.07049 191.00173 526.75 196.53125 C 479.3337 205.10125 432.235 215.5655 384.625 222.9375 C 365.9984 224.9925 375.6858 312.805 394.3125 310.75 C 443.837 301.564 492.8942 290.05575 542.375 280.59375 C 616.5455 266.80775 691.708 260.07125 767 256.78125 C 815.0625 254.95625 863.10995 257.84475 910.65625 264.84375 C 919.38105 266.01075 927.98405 267.75625 936.40625 270.28125 C 954.55485 274.92625 976.4611 189.36375 958.3125 184.71875 C 946.4202 181.93775 934.44605 179.548 922.28125 178.25 C 869.45145 171.754 816.2187 169.1015 763 171.5625 C 737.03604 172.86524 711.09741 174.53944 685.1875 176.65625 C 698.53803 166.48035 707.93367 155.34376 704 149.0625 C 693.9637 133.3895 682.8458 118.4015 673.875 102.0625 C 663.3183 81.4935 654.2814 60.02675 650.375 37.09375 C 649.33438 31.323125 640.14174 28.868702 628.0625 28.8125 z M 357.4375 117.03125 C 355.8504 117.03802 354.45018 117.48266 353.3125 118.40625 C 322.3081 145.71025 294.6524 176.4425 267.4375 207.4375 C 226.7147 254.9025 187.3758 303.55025 148.5 352.53125 C 124.204 383.33525 100.63365 414.6825 79.40625 447.6875 C 69.58925 463.4555 143.90175 509.73575 153.71875 493.96875 C 172.19375 463.06275 193.79105 434.2405 215.84375 405.8125 C 221.56183 398.56052 227.30813 391.31738 233.0625 384.09375 C 234.43473 424.37868 236.82419 464.61266 238.75 504.875 C 242.2152 577.389 243.58125 649.9785 244.34375 722.5625 C 245.06305 781.5705 244.2951 840.58875 245.1875 899.59375 C 245.6762 918.04975 332.6761 915.7685 332.1875 897.3125 C 329.9284 838.7905 330.342 780.176 329.5 721.625 C 328.6618 648.127 327.46365 574.6395 324.59375 501.1875 C 322.90975 457.2955 320.38655 413.3705 320.90625 369.4375 C 321.08359 356.93239 281.83273 352.22109 255.59375 356.03125 C 280.58232 325.16394 306.00062 294.63701 332.125 264.71875 C 356.3886 237.55075 380.8808 210.2805 409.0625 187.0625 C 422.48712 176.16317 376.16533 116.95133 357.4375 117.03125 z M 770.75 313.625 C 721.2671 314.139 671.9524 318.243 622.8125 324 C 580.1397 328.813 537.4819 334.70825 494.5625 336.78125 C 475.8434 337.52525 479.3435 425.77525 498.0625 425.03125 C 543.0464 421.15625 587.7888 414.9245 632.625 409.6875 C 678.5243 404.2415 724.6369 400.469 770.875 400.875 C 780.9893 401.188 785.82855 401.10475 795.40625 402.09375 C 796.79372 402.23687 797.974 402.41047 799.0625 402.5625 C 796.04407 401.16325 793.50776 398.93503 790.25 396.5625 C 806.77314 403.55029 866.13321 349.16246 854.15625 335.8125 C 848.61585 331.4505 843.58815 326.32975 837.53125 322.71875 C 818.08465 311.12375 792.0576 315.164 770.75 313.625 z M 799.0625 402.5625 C 800.85651 403.39415 802.80787 403.93603 805.21875 404.03125 C 806.2779 404.07283 804.43862 403.31337 799.0625 402.5625 z M 665.125 442.15625 C 638.39579 442.26247 611.69074 443.333 585.0625 446.09375 C 548.356 450.00875 511.849 455.2735 475.1875 459.5625 C 456.5852 462.1465 468.74145 549.834 487.34375 547.25 C 522.93395 541.477 558.6017 536.20375 594.4375 532.21875 C 637.5577 527.63675 680.9474 528.42825 724.1875 530.28125 C 747.8239 531.15525 771.3683 533.1455 794.75 536.6875 C 797.902 537.0605 800.99875 537.76475 804.09375 538.46875 C 822.35455 543.02875 843.85455 456.935 825.59375 452.375 C 819.33845 451.009 813.10435 449.7965 806.71875 449.1875 C 780.41855 445.9105 753.9989 444.00225 727.5 443.28125 C 706.72369 442.57687 685.91438 442.07363 665.125 442.15625 z M 674.125 609.65625 C 642.4959 609.70509 610.87072 610.96369 579.46875 615 C 542.16445 620.64 504.7558 627.5705 469.625 641.8125 C 469.59051 641.82844 469.56529 641.85847 469.53125 641.875 C 443.78055 641.06989 411.41524 647.63926 412.15625 659.03125 C 415.55165 695.60025 422.3936 731.72575 429.5 767.71875 C 436.758 804.79075 447.8208 840.95225 463.5625 875.28125 C 468.1576 885.79725 474.6786 894.9645 481.6875 903.9375 C 485.93367 908.90028 496.8448 905.16027 508.75 897.59375 C 512.6208 919.19896 521.01577 939.86426 530.1875 938.25 C 572.1815 928.621 614.48585 920.53225 656.96875 913.40625 C 694.04101 907.26284 731.44659 903.18789 768.9375 903.78125 C 782.53631 919.52962 849.58322 932.22694 853.125 916.125 C 856.04448 901.3801 857.6748 886.40109 860.28125 871.59375 C 865.83109 858.22581 869.00556 845.00839 867.03125 837.8125 C 872.29213 812.44594 877.9101 787.14258 883.5 761.84375 C 890.056 728.46575 897.3037 694.2655 880.9375 662.4375 C 860.7327 635.9265 845.4458 628.76375 813.625 621.59375 C 781.8716 615.01075 749.67825 610.8955 717.21875 610.1875 C 702.85806 609.84688 688.50187 609.63405 674.125 609.65625 z M 668.9375 696.46875 C 684.25788 696.41273 699.57545 696.72137 714.875 697.1875 C 741.9408 698.0015 768.76415 701.6445 795.15625 707.5625 C 797.74592 707.61511 800.32708 708.28528 802.65625 709.15625 C 801.88946 712.14858 802.27279 718.25534 802.09375 719.5625 C 800.67675 729.9065 799.6314 734.6635 797.625 745.3125 C 792.52613 769.3418 787.21553 793.32681 782.0625 817.34375 C 735.45436 816.32916 689.00606 820.72271 642.9375 828.40625 C 611.22727 833.55572 579.62261 839.24104 548.03125 845.03125 C 546.69731 843.22822 543.46685 838.76544 542.96875 837.625 C 529.36155 810.286 520.7815 780.85275 514.75 750.96875 C 512.81371 741.06097 510.88943 731.13742 509.09375 721.1875 C 535.66812 710.22252 564.25659 705.24077 592.53125 700.90625 C 617.88737 697.68438 643.40353 696.56211 668.9375 696.46875 z M 809.28125 712.46875 C 812.09796 714.25667 812.73148 715.21111 809.28125 712.46875 z "
     id="path12348" />
</svg>
