<?xml version="1.0" encoding="utf-8" ?>

<!DOCTYPE svg PUBLIC "-//W3C//DTD SVG 1.1//EN" 
  "http://www.w3.org/Graphics/SVG/1.1/DTD/svg11.dtd">
<svg 
    xmlns="http://www.w3.org/2000/svg"
    xmlns:xlink="http://www.w3.org/1999/xlink"
    xmlns:sodipodi="http://sodipodi.sourceforge.net/DTD/sodipodi-0.dtd"
    xmlns:inkscape="http://www.inkscape.org/namespaces/inkscape"
    width="1024" height="1024" id="U4F4F">
<path d="m 8528.5307,65813.118 c -30.5194,31.872 -57.7953,66.694 -85.3332,101.124 -36.6156,45.556 -71.0234,92.789 -103.0128,141.692 -12.7522,19.816 -24.6892,40.136 -35.2212,61.215 -8.6363,16.484 -86.3414,-24.228 -77.7051,-40.712 l 0,0 c 12.6549,-23.278 26.2747,-46.005 40.8845,-68.117 33.8225,-50.685 69.774,-99.875 107.7195,-147.563 28.9484,-36.694 57.7348,-73.582 88.734,-108.585 12.9287,-13.563 76.863,47.384 63.9343,60.946 z" id="path15289" inkscape:connector-curvature="0" style="fill:#2b1100;fill-opacity:1;fill-rule:nonzero;stroke:none" transform="translate(-8192, -65536)"/><path d="m 8454.5001,65957.949 c 4.0653,39.587 4.7503,79.415 5.5102,119.171 0.8674,58.367 0.3118,116.742 -10e-5,175.111 2.218,33.935 -3.9709,69.048 2.1364,102.725 2.402,18.528 -84.938,29.851 -87.34,11.324 l 0,0 c -4.0363,-38.108 -0.6149,-76.495 -0.9712,-114.729 0.6004,-57.47 1.0752,-114.954 -0.2562,-172.418 -0.9979,-36.162 -1.6687,-72.488 -6.6004,-108.376 -2.7169,-18.566 84.8044,-31.374 87.5213,-12.808 z" id="path15291" inkscape:connector-curvature="0" style="fill:#2b1100;fill-opacity:1;fill-rule:nonzero;stroke:none" transform="translate(-8192, -65536)"/><path d="m 8772.0245,65751.161 c 12.9793,26.11 28.1226,50.977 44.8182,74.853 13.5085,18.846 29.1212,36.015 43.7961,53.929 11.6835,14.548 -56.8997,69.625 -68.5832,55.077 l 0,0 c -15.5103,-19.784 -32.3814,-38.501 -46.8069,-59.134 -18.2302,-26.255 -34.9687,-53.416 -50.415,-81.404 -9.1899,-16.374 68.0009,-59.696 77.1908,-43.321 z" id="path15293" inkscape:connector-curvature="0" style="fill:#2b1100;fill-opacity:1;fill-rule:nonzero;stroke:none" transform="translate(-8192, -65536)"/><path d="m 8450.7966,65954.007 c 45.739,-9.599 92.0488,-16.031 138.3519,-22.175 71.103,-9.054 142.5477,-15.005 213.9388,-21.233 54.6264,-5.075 109.3471,-9.026 164.0027,-13.754 17.8436,-1.774 35.5607,-3.755 53.4905,-3.151 18.7059,1.633 11.0089,89.814 -7.697,88.181 l 0,0 c -10.5779,-0.49 -26.8923,0.555 -39.0022,1.681 -54.523,3.831 -109.0671,7.407 -163.5155,12.223 -69.9561,5.852 -139.9606,11.638 -209.5423,21.103 -43.3122,6.152 -86.7836,12.27 -129.231,23.082 -18.2341,4.411 -39.03,-81.545 -20.7959,-85.957 z" id="path15295" inkscape:connector-curvature="0" style="fill:#2b1100;fill-opacity:1;fill-rule:nonzero;stroke:none" transform="translate(-8192, -65536)"/><path d="m 8577.9792,66126.681 c 43.4875,-1.921 86.768,-6.842 130.05,-11.277 61.4391,-6.953 123.0149,-12.569 184.5668,-18.4 24.4884,-3.298 49.3541,-3.73 73.7856,-7.445 18.6581,-1.961 27.905,85.994 9.2469,87.956 l 0,0 c -25.123,1.821 -50.2997,2.941 -75.369,5.493 -61.1126,5.102 -122.2076,10.505 -183.097,17.874 -44.6218,4.963 -89.2168,10.198 -133.9542,14.04 -18.7188,1.11 -23.9479,-87.132 -5.2291,-88.241 z" id="path15303" inkscape:connector-curvature="0" style="fill:#2b1100;fill-opacity:1;fill-rule:nonzero;stroke:none" transform="translate(-8192, -65536)"/><path d="m 8811.9218,65991.383 c -14.0659,39.823 -19.0475,82.17 -24.5337,123.831 -7.8176,63.801 -11.6007,127.997 -11.0961,192.257 0.2369,26.334 3.0082,52.487 7.3381,78.426 2.7523,18.354 -83.7683,31.328 -86.5206,12.974 l 0,0 c -4.1189,-30.224 -6.8587,-60.612 -6.8106,-91.155 0.118,-67.957 4.1049,-135.829 11.9196,-203.352 6.031,-48.891 11.9957,-98.255 27.435,-145.256 6.8464,-17.451 89.1148,14.823 82.2683,32.275 z" id="path15305" inkscape:connector-curvature="0" style="fill:#2b1100;fill-opacity:1;fill-rule:nonzero;stroke:none" transform="translate(-8192, -65536)"/><path d="m 8491.5038,66378.451 c 42.6043,3.421 85.4754,1.608 128.1481,0.559 78.0302,-2.21 155.9995,-6.035 233.9902,-9.272 60.3766,-2.499 120.8072,-4.246 181.2361,-3.232 23.3869,0.886 12.1641,0.236 33.6741,1.847 18.5266,1.65 10.7486,88.985 -7.778,87.335 l 0,0 c -17.3217,-1.861 -7.9332,-1.037 -28.1822,-2.273 -58.503,-2.142 -117.0612,-0.906 -175.5482,1.28 -78.2725,3.018 -156.5085,6.892 -234.7779,9.992 -46.7479,1.7 -93.6048,4.008 -140.3707,1.719 -18.6579,-2.038 -9.0495,-89.993 9.6085,-87.955 z" id="path15307" inkscape:connector-curvature="0" style="fill:#2b1100;fill-opacity:1;fill-rule:nonzero;stroke:none" transform="translate(-8192, -65536)"/></svg>