<?xml version="1.0" encoding="utf-8" ?>

<!DOCTYPE svg PUBLIC "-//W3C//DTD SVG 1.1//EN" 
  "http://www.w3.org/Graphics/SVG/1.1/DTD/svg11.dtd">
<svg 
    xmlns="http://www.w3.org/2000/svg"
    xmlns:xlink="http://www.w3.org/1999/xlink"
    xmlns:sodipodi="http://sodipodi.sourceforge.net/DTD/sodipodi-0.dtd"
    xmlns:inkscape="http://www.inkscape.org/namespaces/inkscape"
    width="1024" height="1024" id="U4F46">
<path d="m 11627.174,7408.2458 c -26.822,29.8675 -51.071,61.9351 -75.247,93.946 -34.45,45.8976 -66.428,93.5445 -96.735,142.2553 -11.619,18.6714 -22.277,37.8895 -32.621,57.2842 -8.768,16.0533 -84.444,-25.2802 -75.676,-41.3335 l 0,0 c 11.536,-20.6793 23.299,-41.227 35.913,-61.2754 31.842,-50.5456 65.18,-100.127 100.707,-148.1706 25.196,-33.9103 50.678,-67.6284 77.656,-100.1531 12.186,-14.0014 78.189,43.4458 66.003,57.4471 z" id="path21669" inkscape:connector-curvature="0" style="fill:#800000;fill-opacity:1;fill-rule:nonzero;stroke:#f9f9f9;stroke-width:0.1;stroke-miterlimit:4;stroke-dasharray:none" transform="translate(-11264, -7168)"/><path d="m 11569.719,7581.2536 c -8.151,40.2449 -11.438,81.2277 -14.034,122.137 -3.87,62.1044 -0.142,124.1906 7.145,185.8733 6.024,40.9883 13.221,82.1664 27.143,121.3063 5.816,17.471 -76.543,44.8903 -82.359,27.4193 l 0,0 c -14.313,-45.2279 -23.109,-91.9762 -29.272,-138.973 -7.525,-66.6203 -11.449,-133.6299 -7.755,-200.6778 2.448,-44.0652 5.87,-88.0844 12.77,-131.7108 3.103,-18.32 89.464,-3.6943 86.362,14.6257 z" id="path21671" inkscape:connector-curvature="0" style="fill:#800000;fill-opacity:1;fill-rule:nonzero;stroke:#f9f9f9;stroke-width:0.1;stroke-miterlimit:4;stroke-dasharray:none" transform="translate(-11264, -7168)"/><path d="m 11774.537,7491.4751 c -2.894,37.4847 -0.525,75.1993 1.59,112.6681 2.906,41.7774 6.956,83.6743 17.157,124.3727 0.983,2.712 1.966,5.424 2.949,8.136 5.623,17.5783 -77.242,44.0852 -82.865,26.5069 l 0,0 c -1.475,-4.9722 -2.95,-9.9444 -4.425,-14.9166 -10.115,-45.7445 -15.166,-92.3688 -18.247,-139.0857 -2.576,-42.3727 -5.276,-84.9049 -3.255,-127.3588 2.053,-18.4759 89.149,-8.7986 87.096,9.6774 z" id="path21673" inkscape:connector-curvature="0" style="fill:#800000;fill-opacity:1;fill-rule:nonzero;stroke:#f9f9f9;stroke-width:0.1;stroke-miterlimit:4;stroke-dasharray:none" transform="translate(-11264, -7168)"/><path d="m 11742.398,7415.759 c 37.494,-6.6404 75.343,-10.8317 113.222,-14.5108 50.119,-4.8397 100.44,-6.9017 150.768,-5.5492 34.413,2.1769 73.364,5.7243 98.671,32.4875 5.914,6.2542 9.952,14.0471 14.928,21.0706 20.541,50.9083 6.689,105.1302 -4.316,156.6744 -12.022,51.7311 -25.253,103.17 -37.889,154.7531 -3.745,16.4134 -7.934,32.702 -12.498,48.9033 -5.227,17.6778 -88.561,-6.9652 -83.333,-24.643 l 0,0 c 4.677,-14.9222 8.747,-30.0033 12.441,-45.2026 12.965,-50.3833 26.109,-100.7348 37.655,-151.4667 6.497,-31.1547 12.879,-62.6213 13.262,-94.4731 14.341,-3.4257 -43.209,-17.2782 -41.686,-12.1023 -46.549,-1.7799 -93.117,0.2447 -139.466,4.8999 -35.228,3.6319 -70.533,7.5309 -105.152,15.2117 -18.255,3.5228 -34.862,-82.53 -16.607,-86.0528 z" id="path21675" inkscape:connector-curvature="0" style="fill:#800000;fill-opacity:1;fill-rule:nonzero;stroke:#f9f9f9;stroke-width:0.1;stroke-miterlimit:4;stroke-dasharray:none" transform="translate(-11264, -7168)"/><path d="m 11800.193,7588.5296 c 37.963,-1.6476 75.873,-4.3282 113.81,-6.4771 32.474,-1.9924 64.986,-2.9457 97.285,1.3101 18.244,2.8303 4.902,88.8325 -13.342,86.0021 l 0,0 c -25.935,-5.2783 -52.799,-2.1344 -79.02,-1.5812 -37.778,2.1988 -75.528,4.848 -113.227,8.1564 -18.542,1.168 -24.048,-86.2422 -5.506,-87.4103 z" id="path21677" inkscape:connector-curvature="0" style="fill:#800000;fill-opacity:1;fill-rule:nonzero;stroke:#f9f9f9;stroke-width:0.1;stroke-miterlimit:4;stroke-dasharray:none" transform="translate(-11264, -7168)"/><path d="m 11782.274,7720.7286 c 35.004,3.0388 70.2,2.9205 105.306,3.7416 17.978,0.2609 35.853,1.9008 53.705,3.8703 18.274,2.196 7.922,88.3415 -10.352,86.1455 l 0,0 c -15.099,-2.0081 -30.239,-3.5524 -45.488,-3.8421 -36.976,-0.9691 -73.98,-0.9643 -110.93,-2.7756 -18.485,-1.6459 -10.726,-88.7857 7.759,-87.1397 z" id="path21679" inkscape:connector-curvature="0" style="fill:#800000;fill-opacity:1;fill-rule:nonzero;stroke:#f9f9f9;stroke-width:0.1;stroke-miterlimit:4;stroke-dasharray:none" transform="translate(-11264, -7168)"/><path d="m 11600.809,7894.2147 c 40.951,6.9433 82.447,9.7326 123.856,12.2747 73.626,3.8864 147.375,3.9662 221.08,4.5271 59.729,0.5046 119.655,0.9994 178.741,10.484 18.034,3.1358 3.251,88.1471 -14.782,85.0113 l 0,0 c -54.205,-10.3742 -109.679,-10.1102 -164.666,-11.1928 -75.05,-0.6881 -150.132,-0.634 -225.133,-3.8024 -44.386,-2.2556 -88.756,-5.1015 -132.852,-10.8385 -18.341,-2.918 -4.586,-89.3813 13.756,-86.4634 z" id="path21681" inkscape:connector-curvature="0" style="fill:#800000;fill-opacity:1;fill-rule:nonzero;stroke:#f9f9f9;stroke-width:0.1;stroke-miterlimit:4;stroke-dasharray:none" transform="translate(-11264, -7168)"/></svg>