<?xml version="1.0" encoding="UTF-8" standalone="no"?>
<svg
   xmlns:dc="http://purl.org/dc/elements/1.1/"
   xmlns:cc="http://creativecommons.org/ns#"
   xmlns:rdf="http://www.w3.org/1999/02/22-rdf-syntax-ns#"
   xmlns:svg="http://www.w3.org/2000/svg"
   xmlns="http://www.w3.org/2000/svg"
   xmlns:sodipodi="http://sodipodi.sourceforge.net/DTD/sodipodi-0.dtd"
   xmlns:inkscape="http://www.inkscape.org/namespaces/inkscape"
   width="1024"
   height="1024"
   id="U5065"
   version="1.1"
   inkscape:version="0.48.0 r9654"
   sodipodi:docname="U+5065.svg">
  <metadata
     id="metadata17">
    <rdf:RDF>
      <cc:Work
         rdf:about="">
        <dc:format>image/svg+xml</dc:format>
        <dc:type
           rdf:resource="http://purl.org/dc/dcmitype/StillImage" />
      </cc:Work>
    </rdf:RDF>
  </metadata>
  <defs
     id="defs15" />
  <sodipodi:namedview
     pagecolor="#ffffff"
     bordercolor="#666666"
     borderopacity="1"
     objecttolerance="10"
     gridtolerance="10"
     guidetolerance="10"
     inkscape:pageopacity="0"
     inkscape:pageshadow="2"
     inkscape:window-width="640"
     inkscape:window-height="480"
     id="namedview13"
     showgrid="false"
     inkscape:zoom="0.27441406"
     inkscape:cx="512"
     inkscape:cy="512"
     inkscape:window-x="0"
     inkscape:window-y="25"
     inkscape:window-maximized="0"
     inkscape:current-layer="U5065" />
  <path
     style="fill:#550000;fill-opacity:1;fill-rule:nonzero;stroke:#f9f9f9;stroke-width:0.1;stroke-miterlimit:4;stroke-dasharray:none"
     d="M 699.6875 68.4375 C 687.49896 68.655925 678.22287 71.225312 677.25 77.0625 C 672.43951 114.20444 671.23601 151.64444 670.8125 189.0625 C 638.73308 190.92426 606.67927 193.98798 575.125 200.25 C 556.6787 204.573 577.08495 291.5115 595.53125 287.1875 C 620.28 281.39838 645.628 278.88858 670.96875 277.375 C 671.0485 288.84397 671.10918 300.31231 671.1875 311.78125 C 657.42162 312.67745 643.65066 313.68202 629.90625 314.875 C 611.08445 317.207 622.08445 405.92575 640.90625 403.59375 C 651.15268 402.31377 661.42806 401.31654 671.71875 400.46875 C 671.80437 419.36532 671.87655 438.25908 671.90625 457.15625 C 660.58399 458.4717 649.26761 459.88528 637.96875 461.40625 C 600.43265 466.41825 562.9636 471.88775 525.6875 478.59375 C 525.31596 478.66584 524.96838 478.76844 524.625 478.90625 C 529.35853 471.22233 533.90531 463.41741 538.1875 455.46875 C 552.3185 421.22675 552.43105 393.02 525.34375 365 C 499.53745 344.516 469.86745 334.962 436.84375 334 C 405.62825 333.198 374.57915 335.1665 343.59375 339.0625 C 324.79485 341.4695 336.1387 430.0935 354.9375 427.6875 C 381.1325 423.3895 407.57445 421.37025 434.09375 422.40625 C 439.48787 423.34223 446.89882 423.50868 453.53125 424.9375 C 439.89849 448.03624 424.73444 470.22043 410 492.625 C 392.6479 519.802 373.5478 545.99225 359.375 575.03125 C 341.6884 627.39625 370.15275 652.59325 419.46875 657.78125 C 446.35525 658.92325 473.20615 656.50575 500.09375 656.96875 C 500.92633 655.84165 504.51042 656.10788 508.78125 656.9375 C 496.78129 677.28149 482.62994 696.31054 468.8125 715.4375 C 465.17951 720.42452 461.53631 725.40225 457.84375 730.34375 C 448.4618 726.34501 439.14822 722.11125 429.96875 717.59375 C 400.95645 703.75075 372.07335 689.591 344.15625 673.625 C 327.41925 664.738 285.54425 743.64425 302.28125 752.53125 C 331.98195 768.06225 362.06865 782.8225 392.40625 797.0625 C 395.53619 798.57539 398.66125 800.04153 401.8125 801.5 C 398.85441 805.09173 395.88398 808.67443 392.90625 812.25 C 372.61945 836.656 351.0379 859.89175 328.625 882.34375 C 325.9948 884.92075 323.36365 887.53275 320.71875 890.09375 C 314.91375 895.71575 309.0869 901.32975 303.0625 906.71875 C 302.6185 907.11592 302.65382 907.06676 302.3125 907.375 C 328.29 891.98014 357.33572 906.0556 365.90625 933.78125 C 357.80541 917.63472 275.92381 923.83946 277.125 942 C 278.0337 947.294 277.1254 953.261 279.875 957.875 C 298.6111 989.317 319.04985 999.65175 352.53125 981.46875 C 366.77555 970.49075 379.00185 957.234 391.78125 944.625 C 415.67555 920.109 438.73155 894.784 460.53125 868.375 C 469.7197 857.27624 478.82441 846.11037 487.84375 834.875 C 503.34798 839.94009 518.98206 844.63546 534.6875 849.09375 C 584.7418 862.28975 635.046 874.39 685.1875 887.25 C 727.8614 898.447 770.49625 909.912 813.03125 921.625 C 837.96735 928.402 862.7224 935.72875 887.375 943.46875 C 889.6273 944.18675 891.8727 944.907 894.125 945.625 C 912.2316 951.167 938.3567 865.82225 920.25 860.28125 C 917.9012 859.59125 915.56755 858.90875 913.21875 858.21875 C 887.57655 850.71975 861.86445 843.41075 836.03125 836.59375 C 809.4914 829.52879 782.93901 822.53573 756.375 815.5625 C 758.46604 814.00711 759.6791 812.16406 759.78125 810.03125 C 759.85655 806.94725 759.925 803.86625 760 800.78125 C 759.88332 790.46587 759.70807 780.15816 759.5 769.84375 C 789.83579 768.41446 820.19833 767.63918 850.53125 769.71875 C 869.16145 770.81975 874.34895 682.976 855.71875 681.875 C 823.1918 680.19652 790.6878 680.93974 758.1875 682.34375 C 758.15226 676.25012 758.12265 670.15616 758.09375 664.0625 C 787.88176 663.43169 817.60522 661.62996 847.34375 659.8125 L 853.25 659.8125 C 872.1634 659.1125 868.88215 569.95625 849.96875 570.65625 L 840.5625 571.21875 C 813.02123 573.74385 785.45533 575.64913 757.8125 576.34375 C 757.78906 563.05217 757.77006 549.76035 757.75 536.46875 C 766.56694 535.66502 775.40166 534.88652 784.21875 534.09375 C 814.01235 531.05975 843.8716 529.3205 873.8125 529.0625 C 892.6677 528.6975 890.94905 439.79125 872.09375 440.15625 C 840.01755 441.08925 808.00685 443.15875 776.09375 446.59375 C 769.92514 447.1831 763.76285 447.78714 757.59375 448.375 C 757.54879 431.2444 757.46849 414.0994 757.40625 396.96875 C 760.39974 397.05323 763.3832 397.17533 766.375 397.3125 C 765.89548 400.46897 765.28486 403.59226 764.25 406.625 C 759.7266 425.032 846.4766 446.3445 851 427.9375 C 853.1147 418.3235 854.91445 408.692 855.84375 398.875 C 859.94515 368.035 864.92185 337.23675 865.96875 306.09375 C 865.55735 273.86675 861.77015 242.28325 836.28125 219.53125 C 817.00685 205.74525 795.92875 197.89875 772.28125 195.21875 C 767.44219 194.50335 762.60165 193.86002 757.75 193.21875 C 758.44312 159.26707 759.84917 125.28695 765.3125 91.75 C 767.45282 78.908187 726.50229 67.956964 699.6875 68.4375 z M 302.3125 907.375 C 301.77445 907.69386 301.25396 908.03071 300.71875 908.375 C 299.5276 909.97381 299.83419 909.61314 302.3125 907.375 z M 271.84375 175.1875 C 269.34219 175.14823 267.30656 175.81586 265.9375 177.375 C 242.7506 205.587 225.07345 237.72725 207.40625 269.53125 C 182.21335 315.81325 157.13795 362.13125 131.03125 407.90625 C 118.56335 429.52525 105.8341 451.01425 92.375 472.03125 C 82.4756 488.00025 157.75675 534.6555 167.65625 518.6875 C 179.42301 499.13408 190.84964 479.3841 202.15625 459.5625 C 201.827 463.08115 201.46683 466.60482 201.15625 470.125 C 196.47855 533.758 195.3242 597.594 194.875 661.375 C 194.3859 719.43 196.63775 777.4255 200.90625 835.3125 C 202.09915 850.9415 203.65225 866.551 205.40625 882.125 C 207.83545 900.819 295.9292 889.34925 293.5 870.65625 C 291.3755 856.55825 289.6505 842.42175 288.375 828.21875 C 283.4462 772.94275 281.02475 717.47475 281.46875 661.96875 C 281.90525 600.67175 283.183 539.33375 288.25 478.21875 C 291.4908 445.17675 295.26185 412.038 303.84375 379.875 C 306.26011 370.20956 283.47076 359.66178 260.625 354.46875 C 268.35814 340.44955 276.09602 326.43232 283.875 312.4375 C 298.7468 286.2045 313.34375 259.292 333.15625 236.375 C 344.30429 223.67914 292.2136 175.5073 271.84375 175.1875 z M 759.71875 282.6875 C 762.72405 282.55349 770.95177 285.30619 776.375 287.40625 C 776.21714 288.19037 776.71987 289.91032 776.78125 290.8125 C 777.47575 300.9555 777.24925 294.96725 777.28125 306.90625 C 777.24855 307.72134 777.19495 308.52916 777.15625 309.34375 C 770.48832 309.01889 763.82943 308.78834 757.15625 308.65625 C 757.14268 300.03558 757.12555 291.43314 757.125 282.8125 C 757.63614 282.89528 758.14532 282.97888 758.65625 283.0625 C 758.81729 282.84772 759.19667 282.71078 759.71875 282.6875 z M 778.59375 288.28125 C 780.8588 289.231 782.12517 289.91659 780.96875 289.71875 C 779.92566 289.68961 779.25538 288.9767 778.59375 288.28125 z M 462.09375 428.03125 C 464.00792 429.15689 465.6286 430.55344 466.84375 432.375 C 464.63516 431.56487 463.16061 429.92705 462.09375 428.03125 z M 518.75 488.3125 C 513.51806 511.84369 527.58004 569.1815 542.6875 566.25 C 578.0361 558.401 613.9031 553.19 649.75 548.25 C 657.10967 547.22783 664.47127 546.2852 671.84375 545.375 C 671.81532 556.5198 671.78827 567.66773 671.75 578.8125 C 652.39293 580.10617 633.15079 582.34045 614.15625 586.5 C 595.92835 591.648 620.17835 677.5855 638.40625 672.4375 C 649.3012 669.95887 660.33903 668.33387 671.4375 667.21875 C 671.41887 672.51114 671.39188 677.80135 671.375 683.09375 C 671.36032 684.20822 671.35579 685.323 671.34375 686.4375 C 648.16277 687.46296 624.9803 688.49112 601.8125 689.78125 C 584.80843 691.29966 589.54459 763.60701 604.4375 776.8125 C 589.11833 772.93365 573.81496 769.01875 558.53125 765 C 553.90732 763.68893 549.29492 762.36298 544.6875 761 C 562.92099 736.27677 581.39071 711.4714 595.09375 683.90625 C 608.82345 648.48725 609.42545 618.45125 579.53125 590.90625 C 555.75875 575.07125 529.82835 568.15625 501.15625 568.28125 C 489.25685 568.19344 477.35959 568.51677 465.46875 568.8125 C 471.72536 559.69705 478.0365 550.61127 483.4375 541.15625 C 495.14936 523.52726 507.33805 506.16167 518.75 488.3125 z M 443.3125 605.25 C 442.99273 607.97455 442.07614 610.42087 440.28125 612.28125 C 441.22153 609.90862 442.22993 607.55495 443.3125 605.25 z M 523.4375 660.96875 C 526.45112 662.01687 528.05767 662.75554 525.9375 662.34375 C 525.0201 662.01929 524.17814 661.53272 523.4375 660.96875 z M 671.4375 774.40625 C 671.41022 780.80221 671.32807 787.19891 671.21875 793.59375 C 651.41893 788.62827 631.60508 783.64904 611.8125 778.65625 C 631.65794 776.78842 651.53202 775.50435 671.4375 774.40625 z "
     id="path8807" />
</svg>
