<?xml version="1.0" encoding="UTF-8" standalone="no"?>
<svg
   xmlns:dc="http://purl.org/dc/elements/1.1/"
   xmlns:cc="http://creativecommons.org/ns#"
   xmlns:rdf="http://www.w3.org/1999/02/22-rdf-syntax-ns#"
   xmlns:svg="http://www.w3.org/2000/svg"
   xmlns="http://www.w3.org/2000/svg"
   xmlns:sodipodi="http://sodipodi.sourceforge.net/DTD/sodipodi-0.dtd"
   xmlns:inkscape="http://www.inkscape.org/namespaces/inkscape"
   width="1024"
   height="1024"
   id="U50CF"
   version="1.1"
   inkscape:version="0.48.0 r9654"
   sodipodi:docname="U+50CF.svg">
  <metadata
     id="metadata20">
    <rdf:RDF>
      <cc:Work
         rdf:about="">
        <dc:format>image/svg+xml</dc:format>
        <dc:type
           rdf:resource="http://purl.org/dc/dcmitype/StillImage" />
      </cc:Work>
    </rdf:RDF>
  </metadata>
  <defs
     id="defs18" />
  <sodipodi:namedview
     pagecolor="#ffffff"
     bordercolor="#666666"
     borderopacity="1"
     objecttolerance="10"
     gridtolerance="10"
     guidetolerance="10"
     inkscape:pageopacity="0"
     inkscape:pageshadow="2"
     inkscape:window-width="640"
     inkscape:window-height="480"
     id="namedview16"
     showgrid="false"
     inkscape:zoom="0.27441406"
     inkscape:cx="512"
     inkscape:cy="512"
     inkscape:window-x="0"
     inkscape:window-y="25"
     inkscape:window-maximized="0"
     inkscape:current-layer="U50CF" />
  <path
     style="fill:#916f6f;fill-opacity:1;fill-rule:nonzero;stroke:#f9f9f9;stroke-width:0.1;stroke-miterlimit:4;stroke-dasharray:none"
     d="M 458.53125 150.90625 C 454.36421 151.02722 451.28287 152.23547 449.9375 154.84375 C 436.3301 184.19275 425.0778 214.55275 414.125 244.96875 C 403.1327 275.67275 394.74005 307.27075 392.34375 339.84375 C 392.42195 343.74375 392.51575 347.6625 392.59375 351.5625 C 393.49385 370.2845 481.74385 366.0345 480.84375 347.3125 C 480.69115 346.4115 480.5276 345.49475 480.375 344.59375 C 480.62589 322.9376 487.21923 301.9301 493.875 281.4375 C 517.34234 275.61543 541.11435 271.03894 564.90625 266.71875 C 599.45078 260.62008 634.17243 255.6264 668.96875 251.21875 C 663.58667 263.06479 658.10386 274.88353 652.90625 286.8125 C 643.36585 308.8375 634.66925 331.2025 626.28125 353.6875 C 624.00778 358.15795 623.367 363.33921 621 367.75 C 573.67188 370.56912 526.16441 374.49035 480.09375 386.28125 C 442.83435 397.70525 407.13335 412.75625 380.15625 442.03125 C 378.43713 443.96807 378.19804 446.76371 379.125 450.09375 C 359.74434 454.96203 342.76862 463.26873 344.53125 471.625 C 351.88305 503.889 361.5141 535.4475 373.0625 566.4375 C 382.9461 592.0585 395.2764 616.5825 409.25 640.1875 C 413.7875 647.6315 418.62955 654.8775 423.90625 661.8125 C 425.55523 663.86512 428.32878 664.54691 431.84375 664.15625 C 440.4131 679.08716 451.99687 693.406 461 698.125 C 448.17861 716.90648 434.2254 734.95062 419.65625 752.46875 C 402.19515 772.22975 385.50425 792.653 367.71875 812.125 C 363.35245 816.712 359.309 821.64575 354.4375 825.71875 C 340.7173 838.60975 401.4673 903.29725 415.1875 890.40625 C 421.546 884.16125 427.614 877.624 433.4375 870.875 C 451.6409 850.147 468.89965 828.61775 486.90625 807.71875 C 504.74785 785.76666 521.76999 763.15855 537.28125 739.5625 C 537.70493 742.24756 538.77282 744.24088 540.6875 745.3125 C 550.44192 750.43825 559.32242 756.73621 567.5 763.84375 C 552.04828 757.30149 537.73045 754.71942 534.21875 761.25 C 521.91685 785.75 508.3092 809.541 495 833.5 C 483.0256 854.761 471.95995 876.5105 460.53125 898.0625 C 459.70375 899.6255 458.89 901.187 458.0625 902.75 C 449.6395 919.548 528.827 959.26675 537.25 942.46875 L 539.25 938.15625 C 549.4963 917.20225 560.03395 896.371 571.40625 876 C 583.08864 855.02929 594.93859 834.17317 606.59375 813.1875 C 612.62156 824.58956 617.56163 836.57256 621.6875 848.875 C 623.2698 854.16487 624.61425 859.497 625.75 864.875 C 610.47564 855.83913 595.50398 850.93634 591.0625 857.28125 C 576.2718 879.19225 562.4526 901.69775 549.25 924.59375 C 536.4102 946.42475 525.922 969.4665 514.8125 992.1875 L 511.875 997.625 C 503.2358 1014.248 581.57955 1054.998 590.21875 1038.375 C 591.58995 1035.659 592.97255 1032.9357 594.34375 1030.2188 C 604.11395 1009.3527 613.4943 988.273 625.1875 968.375 C 627.77252 963.89006 630.39078 959.42184 633.03125 954.96875 C 632.93863 963.39688 632.51439 971.79132 631.46875 980.15625 C 631.16515 981.40825 630.8662 982.6855 630.5625 983.9375 C 627.1574 1002.3665 714.0325 1018.3967 717.4375 999.96875 C 718.0273 996.38475 718.5978 992.80175 719.1875 989.21875 C 721.4512 964.34775 721.1157 939.3635 719.8125 914.4375 C 718.5602 895.97946 716.90115 877.47932 713.8125 859.25 C 731.53026 866.10793 749.29855 872.80789 766.9375 879.875 C 790.7263 889.061 813.8982 899.59 836.6875 911 C 849.1564 917.724 862.1988 923.43025 874.25 930.90625 C 890.4272 940.40225 935.20835 864.121 919.03125 854.625 C 904.93125 846.602 890.25915 839.683 875.78125 832.375 C 850.82335 820.043 825.51915 808.522 799.53125 798.5 C 795.45933 796.86988 791.36795 795.28278 787.28125 793.6875 C 797.63022 783.05477 807.32777 771.80824 816.6875 760.21875 C 833.4114 740.84775 850.38345 721.51475 870.21875 705.21875 C 884.57155 693.13275 827.6027 625.4755 813.25 637.5625 C 790.6099 657.6045 770.393 680.08375 750.5625 702.84375 C 738.0042 717.82775 725.2137 732.6145 710.3125 745.3125 C 702.6128 751.3975 706.6216 748.27425 698.3125 754.65625 C 692.20784 759.3523 697.72972 773.98052 707.375 788.75 C 704.3167 793.72476 701.41648 799.30093 698.84375 805.0625 C 688.04194 777.7867 674.28479 751.88092 655.5625 728.96875 C 634.8039 705.10775 611.53075 683.92825 583.90625 668.15625 C 582.031 667.10682 579.79287 667.17234 577.34375 668.15625 C 578.42298 665.89447 579.49902 663.64383 580.5625 661.375 C 607.41315 655.16877 634.53392 650.18646 661.6875 645.46875 C 688.461 640.90775 715.31225 636.4925 742.46875 635.1875 C 753.06995 634.9495 763.74325 635.41625 774.21875 636.78125 C 783.88744 638.1825 791.94812 615.18451 794.875 592.375 C 802.76549 577.66263 810.04699 562.63125 816.4375 547.15625 C 831.1304 509.61625 844.39885 470.884 831.28125 430.75 C 828.01695 424.576 825.4979 417.975 821.5 412.25 C 803.3355 386.236 772.751 375.555 742.9375 370.125 C 733.68031 368.93654 724.40764 368.0244 715.125 367.375 C 720.82081 352.06134 726.82414 336.8579 733.34375 321.875 C 743.33615 298.994 754.55375 276.6675 764.03125 253.5625 C 777.88305 215.8815 778.6205 182.81975 736.5625 162.96875 C 711.65 157.33675 687.2163 159.68525 662.125 163.90625 C 624.4981 169.06925 586.9261 174.5845 549.5 181.0625 C 541.75022 182.44305 534.01443 183.8542 526.28125 185.3125 C 515.20821 170.16365 476.52422 150.38389 458.53125 150.90625 z M 308.34375 161.9375 C 306.33475 161.93861 304.65943 162.51316 303.40625 163.75 C 283.98585 184.187 265.2136 205.22925 246.75 226.53125 C 216.0535 261.99125 189.57735 300.7425 164.34375 340.1875 C 144.64065 371.7505 125.9104 403.88625 108.0625 436.53125 C 106.3756 439.67725 104.6869 442.82375 103 445.96875 C 94.3559 462.52475 172.38715 503.27375 181.03125 486.71875 C 182.51675 483.78875 184.0145 480.8675 185.5 477.9375 C 193.4548 462.6788 201.68556 447.55372 210.1875 432.59375 C 211.64833 450.11887 213.17528 467.64038 214.75 485.15625 C 219.5762 538.11725 223.7483 591.142 228.3125 644.125 C 232.2025 688.601 236.57345 733.04425 241.59375 777.40625 C 244.05935 799.80625 247.00315 822.13025 250.40625 844.40625 C 251.57195 853.48825 253.26495 862.49425 254.71875 871.53125 C 257.74185 890.04325 344.99185 875.79325 341.96875 857.28125 C 340.49465 848.36325 338.8637 839.48725 337.625 830.53125 C 334.1135 809.43325 330.8471 788.26525 328.25 767.03125 C 322.7928 723.65225 318.18185 680.173 314.28125 636.625 C 309.62195 583.667 305.55215 530.6635 301.09375 477.6875 C 298.11965 441.8095 295.1511 405.9275 293.9375 369.9375 C 293.48077 361.58627 275.65941 357.93429 256.15625 358.09375 C 273.47489 332.32736 291.84508 307.30499 312.4375 284 C 329.6624 264.489 347.03285 245.007 365.59375 226.75 C 377.70787 214.79384 327.76409 161.92676 308.34375 161.9375 z M 711 247.28125 C 714.74205 247.31219 717.0027 247.603 715.03125 247.84375 C 713.55875 248.02275 712.0444 247.695 710.5625 247.625 C 710.20515 247.52542 709.87985 247.41981 709.53125 247.3125 C 710.01294 247.30877 710.55583 247.27758 711 247.28125 z M 667.84375 453.0625 C 688.99448 452.87685 710.09763 453.68688 731.0625 456.8125 C 732.7461 452.1045 762.6655 469.85825 750.875 466.65625 C 748.0869 482.21925 741.14975 500.05175 735.15625 515.34375 C 730.42816 526.81778 725.07063 537.96802 719.25 548.875 C 694.87632 551.32995 670.68521 555.34675 646.5625 559.71875 C 637.32827 561.3706 628.09606 563.04902 618.875 564.78125 C 623.11645 551.32553 626.93833 537.72918 630.1875 523.9375 C 635.68016 500.67204 640.65708 477.25873 644.125 453.625 C 652.02118 453.3508 659.94618 453.13182 667.84375 453.0625 z M 554.625 460.4375 C 552.12859 475.14556 548.9453 489.74431 545.625 504.28125 C 539.10807 532.79226 529.8968 560.41678 518.9375 587.375 C 508.05545 590.44169 497.15417 593.57431 486.375 597.03125 C 485.80656 596.18289 485.22822 595.32545 484.6875 594.46875 C 473.0302 575.77475 462.9625 556.2075 454.875 535.6875 C 450.71736 524.75857 446.85725 513.7076 443.375 502.5625 C 444.55349 502.2265 445.55865 501.63446 446.34375 500.75 C 461.88495 483.373 483.59195 476.0015 505.28125 469.5625 C 521.5511 465.51324 538.04161 462.61589 554.625 460.4375 z "
     id="path11573" />
</svg>
