<?xml version="1.0" encoding="UTF-8" standalone="no"?>
<svg
   xmlns:dc="http://purl.org/dc/elements/1.1/"
   xmlns:cc="http://creativecommons.org/ns#"
   xmlns:rdf="http://www.w3.org/1999/02/22-rdf-syntax-ns#"
   xmlns:svg="http://www.w3.org/2000/svg"
   xmlns="http://www.w3.org/2000/svg"
   xmlns:sodipodi="http://sodipodi.sourceforge.net/DTD/sodipodi-0.dtd"
   xmlns:inkscape="http://www.inkscape.org/namespaces/inkscape"
   width="1024"
   height="1024"
   id="U500D"
   version="1.1"
   inkscape:version="0.48.0 r9654"
   sodipodi:docname="U+500D.svg">
  <metadata
     id="metadata17">
    <rdf:RDF>
      <cc:Work
         rdf:about="">
        <dc:format>image/svg+xml</dc:format>
        <dc:type
           rdf:resource="http://purl.org/dc/dcmitype/StillImage" />
      </cc:Work>
    </rdf:RDF>
  </metadata>
  <defs
     id="defs15" />
  <sodipodi:namedview
     pagecolor="#ffffff"
     bordercolor="#666666"
     borderopacity="1"
     objecttolerance="10"
     gridtolerance="10"
     guidetolerance="10"
     inkscape:pageopacity="0"
     inkscape:pageshadow="2"
     inkscape:window-width="640"
     inkscape:window-height="480"
     id="namedview13"
     showgrid="false"
     inkscape:zoom="0.27441406"
     inkscape:cx="512"
     inkscape:cy="512"
     inkscape:window-x="0"
     inkscape:window-y="25"
     inkscape:window-maximized="0"
     inkscape:current-layer="U500D" />
  <path
     style="fill:#aa0000;fill-opacity:1;fill-rule:nonzero;stroke:#f9f9f9;stroke-width:0.1;stroke-miterlimit:4;stroke-dasharray:none"
     d="M 606.34375 94.9375 C 580.02209 94.716685 539.90431 105.85391 542.125 118.4375 C 549.9381 155.2373 571.1275 186.072 593.875 215.1875 L 605.53125 229.21875 C 617.30575 243.29395 683.68085 187.79395 671.90625 173.71875 C 668.55055 169.73285 665.19945 165.76705 661.84375 161.78125 C 647.86535 144.13285 633.3313 125.6859 628.4375 103.1875 C 627.42813 97.467656 618.30814 95.03787 606.34375 94.9375 z M 337 138.4375 C 335.01544 138.42367 333.34091 138.97498 332.09375 140.1875 C 296.64335 178.2957 266.4855 220.87745 236.75 263.46875 C 197.3818 320.34455 162.0646 379.8334 129.375 440.75 C 116.599 464.443 105.6077 488.9525 97 514.4375 C 91.4583 532.0414 174.4584 558.1664 180 540.5625 C 185.7875 519.6452 195.17365 500.03085 204.84375 480.65625 C 219.70765 452.08481 235.28693 423.89214 251.78125 396.25 C 252.45272 428.41676 253.73027 460.57406 254.96875 492.71875 C 257.87925 563.38915 259.41515 634.0967 260.65625 704.8125 C 261.59795 739.7959 261.6783 774.8319 264.1875 809.75 C 265.8701 828.1355 352.5575 820.1981 350.875 801.8125 C 347.0384 769.023 347.1135 735.91195 345.625 702.96875 C 345.05749 680.96087 344.50786 658.94533 343.9375 636.9375 C 357.85149 638.25026 371.71945 637.76585 385.875 637.4375 C 391.31463 637.33859 395.02965 629.74869 397.09375 619.09375 C 412.88185 614.16164 428.9168 610.16187 444.96875 606.125 C 507.75765 591.3179 571.4358 580.86855 635.25 571.65625 C 684.9189 564.80215 735.02835 559.84615 785.15625 563.28125 C 778.39855 564.56045 808.0941 563.71235 802.125 567.71875 C 818.8758 575.66215 856.34455 496.6934 839.59375 488.75 C 823.35885 482.2707 807.54385 477.262 789.78125 477.0625 C 755.71021 475.63597 721.70419 476.92435 687.8125 480 C 691.51415 476.21895 695.2231 472.45673 698.90625 468.65625 C 720.30965 447.45905 741.81375 426.077 766.53125 408.6875 C 776.30552 401.7188 758.50413 369.49516 740.625 350.46875 C 745.21805 350.42946 749.81062 350.39116 754.40625 350.40625 C 771.89262 353.24336 792.67426 349.11369 810.28125 354.28125 C 806.07931 351.13498 802.08567 347.71967 798.03125 344.375 C 815.462 351.04443 879.43822 313.12455 870.96875 298.21875 C 863.39805 290.89775 856.8072 282.389 848.25 276.25 C 829.8346 263.0387 775.6725 266.80955 754.0625 265.03125 C 685.2894 265.76265 616.7902 271.4349 548.625 280.625 C 499.6275 286.5946 450.66065 292.8159 401.53125 297.625 C 383.11655 299.9592 394.11665 386.7717 412.53125 384.4375 C 461.38175 377.5115 510.29365 371.1306 559.21875 364.75 C 605.24053 358.21151 651.4765 353.62366 697.84375 351.59375 C 676.89622 369.09899 657.38394 388.28056 638.09375 407.59375 C 623.68301 422.58826 609.12503 437.41252 594.3125 452 C 594.053 451.72782 593.78415 451.47036 593.46875 451.25 C 578.11695 440.8234 585.666 446.4277 570.875 434.3125 C 553.0983 417.2263 536.63755 398.5558 526.21875 375.9375 C 518.48885 359.0285 438.7702 395.466 446.5 412.375 C 462.2524 444.4132 485.30905 471.4265 510.59375 496.25 C 515.12385 500.07668 517.67647 502.22123 519.9375 504.15625 C 488.04668 509.71868 456.26421 515.86989 424.65625 522.90625 C 397.03585 529.45655 368.6468 535.41385 342.25 546.15625 C 341.99562 546.25977 341.71214 546.34692 341.4375 546.4375 C 340.87046 527.54552 340.28409 508.63933 339.625 489.75 C 338.0525 439.3241 336.0515 388.7945 338.75 338.375 C 339.25693 329.58822 319.84974 323.82693 299.21875 322.1875 C 301.5013 318.87394 303.80914 315.57337 306.125 312.28125 C 333.0656 274.32335 360.177 236.03635 393.0625 202.90625 C 405.11834 191.18527 356.18411 138.57119 337 138.4375 z M 810.3125 354.28125 C 811.29959 355.02003 812.26761 355.76567 813.28125 356.46875 C 813.93095 356.91945 816.38255 356.4997 815.65625 356.1875 C 813.91942 355.43953 812.12401 354.81406 810.3125 354.28125 z M 583.59375 489.125 C 584.48494 490.5026 585.44629 491.90094 586.46875 493.3125 C 584.36498 493.63573 582.25956 493.95487 580.15625 494.28125 C 581.33709 492.5831 582.49378 490.85403 583.59375 489.125 z M 735.9375 628.25 C 694.63793 628.37041 653.54109 632.48409 612.75 639.09375 C 580.72455 644.66815 548.30831 650.50812 517.84375 662 C 505.72429 648.48351 430.18245 660.23728 432.59375 677.4375 C 438.86095 711.0543 443.0025 744.9922 447 778.9375 C 451.3555 817.5791 454.2515 856.39845 460.625 894.78125 C 461.6286 898.77825 462.65255 902.78425 463.65625 906.78125 C 466.51972 916.70107 493.80746 913.56946 516.5625 905.78125 C 509.93605 930.84065 513.15662 978.127 526.8125 978.25 C 562.2422 977.7369 597.56795 975.28085 632.84375 972.09375 C 678.28075 967.37305 723.6111 961.65055 769.25 959.28125 C 787.2451 959.23255 778.93565 958.84105 794.15625 960.03125 C 807.52716 960.74697 813.62613 915.17812 808.90625 889.8125 C 823.02327 853.76661 837.05924 817.62752 848.375 780.59375 C 858.9495 740.56925 867.0815 700.0213 839.875 664.4375 C 835.2479 660.1393 831.0295 655.35065 826 651.53125 C 802.7067 633.84215 772.44445 629.98825 744.21875 628.28125 C 741.46376 628.25335 738.6908 628.24197 735.9375 628.25 z M 742.9375 714.34375 C 747.47349 714.03804 785.24167 722.4071 776.71875 724.6875 C 776.84265 726.6535 773.58795 721.61225 772.65625 722.78125 C 771.98355 723.62525 765.21105 756.9804 764.78125 758.625 C 753.44045 796.0778 738.99595 832.5043 724.46875 868.8125 C 722.26783 874.03073 722.10315 874.46904 721.1875 876.65625 C 689.2508 879.66811 657.37123 883.37879 625.4375 886.53125 C 598.53915 888.74181 571.58817 890.58858 544.59375 890.71875 C 547.18769 887.95997 548.38547 885.16572 547.625 882.53125 C 547.1529 881.41575 546.69095 880.303 546.21875 879.1875 C 538.82665 842.9175 536.6879 805.8295 532.375 769.125 C 531.49268 761.24656 530.57292 753.37403 529.65625 745.5 C 533.53131 748.01018 537.02218 748.86199 539.71875 747.28125 C 567.23125 734.09545 597.79935 729.04575 627.59375 723.78125 C 665.67915 717.68165 704.1005 713.6947 742.6875 714.75 C 742.35759 714.51639 742.46826 714.37538 742.9375 714.34375 z "
     id="path19935" />
</svg>
