<?xml version="1.0" encoding="UTF-8" standalone="no"?>
<svg
   xmlns:dc="http://purl.org/dc/elements/1.1/"
   xmlns:cc="http://creativecommons.org/ns#"
   xmlns:rdf="http://www.w3.org/1999/02/22-rdf-syntax-ns#"
   xmlns:svg="http://www.w3.org/2000/svg"
   xmlns="http://www.w3.org/2000/svg"
   xmlns:sodipodi="http://sodipodi.sourceforge.net/DTD/sodipodi-0.dtd"
   xmlns:inkscape="http://www.inkscape.org/namespaces/inkscape"
   width="1024"
   height="1024"
   id="U5019"
   version="1.1"
   inkscape:version="0.48.0 r9654"
   sodipodi:docname="U+5019.svg">
  <metadata
     id="metadata17">
    <rdf:RDF>
      <cc:Work
         rdf:about="">
        <dc:format>image/svg+xml</dc:format>
        <dc:type
           rdf:resource="http://purl.org/dc/dcmitype/StillImage" />
      </cc:Work>
    </rdf:RDF>
  </metadata>
  <defs
     id="defs15" />
  <sodipodi:namedview
     pagecolor="#ffffff"
     bordercolor="#666666"
     borderopacity="1"
     objecttolerance="10"
     gridtolerance="10"
     guidetolerance="10"
     inkscape:pageopacity="0"
     inkscape:pageshadow="2"
     inkscape:window-width="640"
     inkscape:window-height="480"
     id="namedview13"
     showgrid="false"
     inkscape:zoom="0.27441406"
     inkscape:cx="512"
     inkscape:cy="512"
     inkscape:window-x="0"
     inkscape:window-y="25"
     inkscape:window-maximized="0"
     inkscape:current-layer="U5019" />
  <path
     style="fill:#550000;fill-opacity:1;fill-rule:nonzero;stroke:#f9f9f9;stroke-width:0.1;stroke-miterlimit:4;stroke-dasharray:none"
     d="M 601.34375 170.25 C 597.26414 170.24787 593.16898 170.37837 589.0625 170.625 C 557.5707 173.27 526.485 179.15125 497.75 192.90625 C 481.1853 201.35125 520.9978 279.445 537.5625 271 C 555.6852 261.852 575.66855 258.448 595.71875 257.125 C 615.99885 256.344 635.84285 260.124 654.65625 267.5 C 664.21875 271.894 664.1372 271.886 664.3125 279.875 C 666.6917 302.577 663.3951 325.36625 660 347.78125 C 658.42353 357.84812 656.27915 367.79587 654 377.71875 C 622.71035 382.23821 591.45926 387.10545 560.21875 391.96875 C 526.66885 397.03775 492.9283 401.44225 459.9375 409.53125 C 442.1543 414.96425 467.74815 498.77775 485.53125 493.34375 C 514.34495 485.67975 544.0309 481.72825 573.4375 477.03125 C 619.4349 469.52525 665.48425 462.35475 711.71875 456.46875 C 744.40135 452.66975 777.15505 449.1325 810.03125 447.5625 C 815.97819 447.20889 826.88156 449.83844 809.75 446.40625 C 827.55511 445.90634 860.4711 373.94858 844.46875 366.40625 C 830.60125 362.19925 819.28565 358.716 804.78125 360.625 C 784.73321 362.0577 764.73195 363.95625 744.75 366.125 C 745.05792 364.29518 745.37277 362.45956 745.65625 360.625 C 750.73145 326.531 755.2668 291.723 748.5625 257.5 C 737.6693 221.678 720.0878 199.80025 684.75 185.78125 C 657.79947 176.22013 629.90102 170.26493 601.34375 170.25 z M 289.59375 189.96875 C 287.60645 190.04389 285.94413 190.66775 284.75 191.9375 C 262.6854 217.9665 244.65445 247.07025 226.15625 275.65625 C 199.85545 316.92825 172.14145 357.2615 143.15625 396.6875 C 127.92945 417.3755 111.6029 437.17725 94.875 456.65625 C 83.0329 470.86125 149.9704 526.705 161.8125 512.5 C 173.0714 498.59712 184.29566 484.65707 195.1875 470.46875 C 194.78936 477.21258 194.38688 483.94102 194.03125 490.6875 C 191.44195 545.2105 191.3372 599.812 192.25 654.375 C 193.1662 682.844 193.0465 711.37275 196.0625 739.71875 C 198.377 758.07475 284.90835 747.1685 282.59375 728.8125 C 278.56605 703.6655 279.6289 677.973 278 652.625 C 276.7195 600.248 276.6962 547.80575 279.5 495.46875 C 281.8032 456.74075 284.4362 417.9735 291 379.6875 C 291.89827 373.61381 282.99791 368.14894 270.625 364.21875 C 279.91115 350.48366 289.10007 336.67222 298.15625 322.78125 C 314.13455 298.64625 329.55245 273.881 348.59375 252 C 360.13711 239.72575 308.80429 189.24235 289.59375 189.96875 z M 357.59375 414.21875 C 349.06623 414.19616 342.86895 416.03675 341.59375 420.5 C 331.59115 460.152 328.9836 501.02975 327.1875 541.71875 C 325.9799 584.69875 326.28855 627.6965 326.53125 670.6875 C 326.79025 689.0515 413.35275 687.83275 413.09375 669.46875 C 412.15575 628.20375 411.69615 586.92025 412.96875 545.65625 C 414.58805 511.72625 416.362 477.4115 425.75 444.5625 C 429.5756 431.17275 383.1763 414.28653 357.59375 414.21875 z M 517.25 492.25 C 511.06995 492.29153 506.62606 493.8173 505.28125 497.34375 C 494.18985 529.08475 484.4665 561.245 475 593.5 C 470.3743 609.366 466.14585 625.355 462.09375 641.375 C 457.70835 659.258 542.02085 679.91425 546.40625 662.03125 C 549.91445 647.19425 553.6504 632.43325 557.875 617.78125 C 558.92954 614.17095 559.96775 610.54673 561.03125 606.9375 C 566.0499 619.35062 572.39493 628.16016 578.5 626.71875 C 597.54072 621.11603 616.62329 615.67492 635.78125 610.53125 C 630.90849 622.79457 625.68219 634.9434 620.1875 646.96875 C 613.25391 661.77322 605.62585 676.17605 597.46875 690.28125 C 578.08428 694.65522 558.74594 699.17131 539.4375 703.875 C 520.2062 708.655 501.0231 713.64 481.8125 718.5 C 479.07424 719.19271 476.28452 719.70518 473.5 720.25 C 467.31569 714.2294 461.48573 711.18069 457.4375 713.53125 C 440.2696 724.31125 402.13295 743.69325 413.84375 771.78125 C 421.65205 790.50925 444.38195 798.48675 459.65625 811.84375 C 481.35437 808.84169 502.61205 803.27544 523.78125 797.375 C 512.02537 811.87868 499.71102 825.9124 486.5625 839.1875 C 473.8307 852.5535 536.8306 912.5535 549.5625 899.1875 C 564.04277 883.49805 577.90903 867.2992 591.1875 850.59375 C 612.77681 871.60719 637.56194 887.96453 664.5625 901.5625 C 708.7999 920.9415 757.05 926.3705 804.375 933.1875 C 825.6092 935.9065 846.4145 940.378 866.5 947.75 C 883.9053 953.71 911.99905 871.6485 894.59375 865.6875 C 869.12705 857.3565 843.1763 851.1675 816.5 848.0625 C 778.2031 842.6505 739.0474 838.681 702.875 824.125 C 680.7267 813.469 661.5005 799.32125 645.3125 780.65625 C 644.58439 779.93724 643.68798 779.43916 642.6875 779.15625 C 645.60786 774.76554 648.49032 770.37047 651.34375 765.9375 C 671.47653 761.54075 691.64749 757.31191 711.84375 753.21875 C 749.38865 745.73075 787.2923 739.5595 825.625 738.8125 C 828.75695 737.09368 849.19941 742.26137 836.25 739.0625 C 853.91657 740.19835 887.03498 666.00728 870.71875 658.5625 C 854.95215 653.3545 839.45995 650.8965 822.71875 652.0625 C 783.15426 653.82064 743.97488 659.62901 705.15625 667.34375 C 716.65317 641.36777 727.02711 614.97069 735.90625 587.96875 C 755.40921 584.78796 775.01587 582.50614 794.78125 581.875 C 797.23005 582.038 799.70745 582.211 802.15625 582.375 C 820.63475 582.913 823.1659 495.81825 804.6875 495.28125 C 800.0116 495.23825 795.33215 495.165 790.65625 495.125 C 750.55815 497.508 710.865 504.1485 671.6875 512.9375 C 642.5524 519.71664 613.63466 527.31893 584.6875 534.8125 C 585.48976 532.71365 586.29684 530.62075 587.125 528.53125 C 592.40079 514.6967 541.49481 492.08707 517.25 492.25 z M 497.21875 755.25 C 499.0276 757.89839 500.52021 760.72908 501.5625 763.84375 C 502.15837 765.62442 502.53584 767.36388 502.71875 769.0625 C 501.37626 764.73498 499.48655 760.02257 497.21875 755.25 z M 489.40625 796.65625 C 485.80728 799.72108 484.29832 800.04022 489.40625 796.65625 z "
     id="path24751" />
</svg>
