<?xml version="1.0" encoding="UTF-8" standalone="no"?>
<svg
   xmlns:dc="http://purl.org/dc/elements/1.1/"
   xmlns:cc="http://creativecommons.org/ns#"
   xmlns:rdf="http://www.w3.org/1999/02/22-rdf-syntax-ns#"
   xmlns:svg="http://www.w3.org/2000/svg"
   xmlns="http://www.w3.org/2000/svg"
   xmlns:sodipodi="http://sodipodi.sourceforge.net/DTD/sodipodi-0.dtd"
   xmlns:inkscape="http://www.inkscape.org/namespaces/inkscape"
   width="1024"
   height="1024"
   id="U505C"
   version="1.1"
   inkscape:version="0.48.0 r9654"
   sodipodi:docname="U+505C.svg">
  <metadata
     id="metadata18">
    <rdf:RDF>
      <cc:Work
         rdf:about="">
        <dc:format>image/svg+xml</dc:format>
        <dc:type
           rdf:resource="http://purl.org/dc/dcmitype/StillImage" />
      </cc:Work>
    </rdf:RDF>
  </metadata>
  <defs
     id="defs16" />
  <sodipodi:namedview
     pagecolor="#ffffff"
     bordercolor="#666666"
     borderopacity="1"
     objecttolerance="10"
     gridtolerance="10"
     guidetolerance="10"
     inkscape:pageopacity="0"
     inkscape:pageshadow="2"
     inkscape:window-width="640"
     inkscape:window-height="480"
     id="namedview14"
     showgrid="false"
     inkscape:zoom="0.27441406"
     inkscape:cx="512"
     inkscape:cy="512"
     inkscape:window-x="0"
     inkscape:window-y="25"
     inkscape:window-maximized="0"
     inkscape:current-layer="U505C" />
  <path
     style="fill:#782121;fill-opacity:1;fill-rule:nonzero;stroke:#f9f9f9;stroke-width:0.1;stroke-miterlimit:4;stroke-dasharray:none"
     d="M 606.0625 -1.75 C 583.61555 -1.0384139 530.81916 33.257688 538.90625 46.84375 C 559.31485 80.81175 580.79145 114.087 603.40625 146.625 C 614.19635 161.853 625.23645 176.89525 636.15625 192.03125 C 647.12655 206.98825 717.6578 155.2695 706.6875 140.3125 C 695.9466 125.9025 685.0659 111.5685 674.625 96.9375 C 653.1059 66.1955 632.7015 34.67525 614.8125 1.65625 C 613.31491 -0.8596875 610.21934 -1.8817752 606.0625 -1.75 z M 336.5 50.21875 C 335.28671 50.248893 334.16337 50.599438 333.1875 51.25 C 294.1391 80.635 260.3862 116.249 226.75 151.5 C 179.8811 201.156 135.17925 252.77075 91.78125 305.46875 C 70.09715 331.89675 48.7693 358.66475 30.3125 387.46875 C 20.547 403.35475 95.45325 449.386 105.21875 433.5 C 120.41015 407.222 139.692 383.67275 158.375 359.84375 C 174.27422 340.17787 190.41752 320.69186 206.84375 301.46875 C 201.52778 340.62333 202.52722 380.61982 202.875 420.03125 C 204.7717 501.89325 208.25475 583.69675 212.46875 665.46875 C 216.52445 721.56775 218.0814 778.534 233.25 833 C 238.6935 850.768 322.47475 825.11075 317.03125 807.34375 C 310.58184 789.40628 307.0535 770.70398 304.8125 751.71875 C 312.92227 767.63673 392.3705 766.34601 392.28125 748.59375 C 391.77295 738.28175 392.6532 728.02825 393.9375 717.78125 C 397.5811 686.81325 401.64295 655.8965 406.28125 625.0625 C 408.91365 606.4965 321.3825 594.09125 318.75 612.65625 C 315.3553 644.26725 311.05875 675.7625 307.15625 707.3125 C 305.244 720.19767 304.47231 733.13192 304.1875 746.125 C 301.19503 717.70728 300.71421 688.79135 297.3125 660.9375 C 292.8249 580.6155 289.36925 500.2 288.40625 419.75 C 288.52285 377.998 287.2478 335.179 297.4375 294.375 C 301.24336 282.77154 266.97081 267.08306 240.96875 262.4375 C 256.53739 245.01851 272.35805 227.8435 288.53125 210.96875 C 318.04545 180.56375 347.5569 149.45775 382.25 124.84375 C 396.88812 115.08531 354.69937 49.766604 336.5 50.21875 z M 746.15625 193.71875 C 717.93085 193.81625 689.70995 194.59075 661.53125 196.46875 C 589.14585 201.99975 517.2316 211.73025 446.3125 227.53125 C 401.9504 236.85925 357.70685 246.77575 313.34375 256.09375 C 294.98905 260.01575 313.48905 346.51575 331.84375 342.59375 C 375.80045 331.28375 420.02155 321.137 464.34375 311.375 C 531.30775 295.874 599.35225 286.66225 667.84375 281.78125 C 721.20525 278.55125 774.6821 279.7055 828.0625 281.6875 C 847.3144 285.2045 883.76025 280.39275 901.53125 287.96875 C 919.75595 292.34575 940.4122 206.4395 922.1875 202.0625 C 892.1687 195.9265 861.3146 196.3215 830.8125 194.9375 C 802.6023 194.1875 774.38165 193.62125 746.15625 193.71875 z M 707 304.71875 C 679.66964 304.89614 652.56339 309.53406 625.34375 312.8125 C 590.91935 317.6375 556.5018 323.2945 523.3125 333.9375 C 505.6074 340.1205 534.76365 423.557 552.46875 417.375 C 579.88075 407.562 608.791 403.176 637.5 399.125 C 652.58952 399.20455 673.61343 393.61244 692.1875 391.84375 C 692.0703 392.7139 691.97583 393.47917 691.84375 394.46875 C 687.21706 420.59575 681.57355 446.50643 676.09375 472.46875 C 635.74174 471.49545 595.32988 471.49791 555.125 475.625 C 541.75482 477.0512 528.38912 478.61413 515.0625 480.40625 C 511.73241 470.83547 510.56054 458.89144 509.6875 449 C 507.8622 422.045 506.7841 394.7765 510.625 367.9375 C 513.3014 349.3595 425.70775 336.7345 423.03125 355.3125 C 419.39475 388.3275 420.43785 421.6145 422.53125 454.6875 C 423.81113 481.64643 429.67976 507.0094 441.71875 530.84375 C 446.9527 554.89266 458.93623 580.89695 469.15625 578.0625 C 500.31095 569.5525 532.4073 565.499 564.4375 562 C 600.7811 558.22 637.32555 558.47625 673.78125 559.90625 C 689.06985 560.77325 681.95575 560.257 695.15625 561.375 C 697.80404 561.55473 700.21057 559.9454 702.3125 557.03125 C 722.56291 563.46324 743.51442 565.52819 746.375 556.96875 C 751.5731 540.32775 755.26145 523.38275 758.34375 506.21875 C 765.03745 472.59275 772.82165 439.1915 778.84375 405.4375 C 784.56685 358.5845 779.26625 318.673 725.96875 305.375 C 719.63448 304.871 713.30701 304.67781 707 304.71875 z M 706.625 391.4375 C 709.92583 391.63914 713.04731 392.09261 715.90625 392.875 C 712.18316 393.07609 709.12606 392.47383 706.625 391.4375 z M 746.5625 571.4375 C 735.96984 571.48075 725.3742 571.6185 714.78125 571.8125 C 658.50865 572.6695 602.1908 573.7485 546 577.0625 C 506.5213 579.7465 467.16795 583.53025 427.84375 587.90625 C 409.18655 589.96225 418.87405 677.931 437.53125 675.875 C 475.54595 669.971 513.80785 666.127 552.15625 663.25 C 606.65575 659.7 661.2767 658.73725 715.875 658.15625 C 756.6477 657.64525 797.43065 658.38675 838.15625 660.34375 C 852.03821 661.17325 865.92679 661.87763 879.8125 662.65625 C 900.31411 679.30221 934.64242 694.9652 940.9375 684.5 C 942.4098 682.064 943.87145 679.6225 945.34375 677.1875 C 953.36945 662.8625 961.81805 648.661 963.28125 631.875 C 962.71245 625.941 963.43065 619.76575 961.59375 614.09375 C 953.45365 588.95975 931.6843 576.53375 906.6875 575.71875 C 885.0757 574.82375 863.4837 574.00325 841.875 573.03125 C 810.11535 571.84925 778.34049 571.30775 746.5625 571.4375 z M 901.96875 664 C 903.09145 664.149 904.23805 664.1915 905.34375 664.4375 C 906.84986 664.77167 904.47954 664.51598 901.96875 664 z M 748.5625 683.59375 C 702.05521 683.5693 655.62207 687.15188 609.59375 694.15625 C 564.46915 701.14225 519.3605 708.74975 475.0625 719.96875 C 457.0845 725.30675 482.24075 810.05675 500.21875 804.71875 C 540.32395 792.81375 581.72035 785.86125 622.96875 779.28125 C 632.46762 777.82718 641.99573 776.55343 651.53125 775.4375 C 647.03832 798.09593 642.47683 820.73621 637.71875 843.34375 C 629.01305 883.18775 620.44795 923.0705 613.78125 963.3125 C 609.24725 980.9705 611.41765 1002.6425 604.46875 1018.8125 C 597.34445 1036.1525 679.0632 1069.7462 686.1875 1052.4062 C 694.958 1028.0932 696.8538 1002.6952 700 977.15625 C 706.0359 938.27725 714.2589 899.82925 722.6875 861.40625 C 729.19031 831.05502 735.25847 800.5832 742.125 770.3125 C 750.01631 770.35914 757.91906 770.49282 765.8125 770.8125 C 780.1727 772.7235 796.44345 772.327 809.71875 779.125 C 827.31475 785.622 857.93975 702.6845 840.34375 696.1875 C 817.13515 688.3985 792.9923 684.5315 768.5 683.8125 C 761.85354 683.66088 755.2064 683.59724 748.5625 683.59375 z "
     id="path12170" />
</svg>
