<?xml version="1.0" encoding="utf-8" ?>

<!DOCTYPE svg PUBLIC "-//W3C//DTD SVG 1.1//EN" 
  "http://www.w3.org/Graphics/SVG/1.1/DTD/svg11.dtd">
<svg 
    xmlns="http://www.w3.org/2000/svg"
    xmlns:xlink="http://www.w3.org/1999/xlink"
    xmlns:sodipodi="http://sodipodi.sourceforge.net/DTD/sodipodi-0.dtd"
    xmlns:inkscape="http://www.inkscape.org/namespaces/inkscape"
    width="1024" height="1024" id="U5199">
<path d="m 11507.708,54570.961 c -7.477,33.606 -10.733,67.965 -13.905,102.189 -2.131,29.93 -5.668,60.349 -0.564,90.155 0.441,1.269 0.882,2.539 1.323,3.809 4.509,18.162 -81.11,39.418 -85.619,21.256 l 0,0 c -0.937,-4.28 -1.874,-8.559 -2.811,-12.839 -4.524,-36.715 -2.304,-73.607 1.202,-110.349 3.457,-37.714 7.13,-75.458 13.907,-112.75 3.931,-18.342 90.397,0.186 86.467,18.529 z" id="path12148" inkscape:connector-curvature="0" style="fill:#916f6f;fill-opacity:1;fill-rule:nonzero;stroke:#f9f9f9;stroke-width:0.1;stroke-miterlimit:4;stroke-dasharray:none" transform="translate(-11264, -54272)"/><path d="m 11471.865,54544.833 c 38.741,-13.883 78.708,-23.667 118.85,-32.474 60.157,-13.304 121.52,-18.51 182.958,-20.654 50.763,-0.854 101.518,1.309 152.223,3.522 34.599,1.329 68.883,6.152 103.092,11.189 23.613,3.12 46.907,7.284 69.301,15.502 28.784,12.043 42.835,36.652 51.57,65.082 6.082,24.089 8.166,48.92 9.643,73.645 1.701,21.302 -1.471,42.164 -5.799,62.923 -3.954,18.179 -89.655,-0.461 -85.7,-18.64 l 0,0 c 3.003,-12.841 4.915,-25.744 3.774,-38.995 -1.102,-18.071 -2.551,-36.21 -6.482,-53.921 -0.888,-3.33 -4.337,-8.58 0.34,-7.009 2.122,0.713 1.315,0.07 0.701,-0.788 -15.788,-7.158 -33.722,-7.597 -50.472,-11.093 -31.21,-4.855 -62.479,-9.629 -94.076,-11.101 -48.379,-2.471 -96.814,-4.825 -145.271,-4.255 -56.096,1.742 -112.148,6.318 -167.003,18.851 -35.618,8.092 -71.24,16.836 -105.184,30.567 -17.469,6.887 -49.935,-75.464 -32.465,-82.351 z" id="path12162" inkscape:connector-curvature="0" style="fill:#916f6f;fill-opacity:1;fill-rule:nonzero;stroke:#f9f9f9;stroke-width:0.1;stroke-miterlimit:4;stroke-dasharray:none" transform="translate(-11264, -54272)"/><path d="m 11662.77,54728.897 c 30.769,4.132 61.879,1.68 92.698,-0.433 41.154,-3.29 82.148,-8.247 123.265,-11.944 23.709,-1.942 47.43,-3.727 71.13,-5.772 7.199,-0.801 14.43,-1.046 21.665,-1.209 18.782,-0.227 19.852,88.312 1.07,88.539 l 0,0 c -5.294,-0.04 -10.579,0.131 -15.851,0.662 -23.533,1.661 -47.084,3.043 -70.616,4.716 -41.553,3.324 -82.956,8.216 -124.501,11.636 -36.941,2.716 -74.082,5.282 -111.055,1.457 -18.594,-2.587 -6.399,-90.239 12.195,-87.652 z" id="path12166" inkscape:connector-curvature="0" style="fill:#916f6f;fill-opacity:1;fill-rule:nonzero;stroke:#f9f9f9;stroke-width:0.1;stroke-miterlimit:4;stroke-dasharray:none" transform="translate(-11264, -54272)"/><path d="m 11669.684,54678.628 c -2.638,38.247 -9.541,76.022 -16.057,113.751 -6.622,36.117 -11.82,72.47 -13.81,109.146 0.691,10.677 -2.267,26.232 3.982,35.1 -4.789,-13.695 -17.776,-10.897 4.51,-12.129 36.382,-3.424 72.679,-7.7 109.037,-11.378 44.393,-4.357 88.9,-7.286 133.261,-11.979 32.38,-3.679 64.653,-8.323 97.218,-9.99 19.165,-0.904 38.17,1.36 56.696,6.144 10.294,2.653 20.044,6.774 29.405,11.752 19.014,10.37 27.61,28.867 29.275,49.606 0.596,15.876 -2.596,31.53 -5.594,47.028 -6.641,34.206 -16.01,67.773 -25.779,101.191 -8.574,29.344 -18.126,58.348 -30.781,86.191 -7.937,16.844 -87.34,-20.574 -79.403,-37.418 l 0,0 c 11.586,-23.287 19.085,-48.232 26.604,-73.069 8.85,-30.631 17.291,-61.423 22.762,-92.871 1.504,-8.655 3.265,-17.36 3.516,-26.168 1.994,9.736 7.876,18.975 16.948,23.523 -3.181,-1.849 -6.51,-3.308 -10.091,-4.254 -9.668,-2.917 -19.712,-4.06 -29.811,-3.838 -30.83,0.97 -61.377,5.534 -92.035,8.629 -44.384,4.479 -88.894,7.425 -133.278,11.894 -37.919,3.992 -75.741,8.815 -113.664,12.733 -35.528,1.615 -69.344,-3.447 -88.483,-37.334 -10.844,-25.188 -13.874,-51.498 -11.682,-78.857 2.785,-39.736 8.502,-79.138 15.683,-118.313 5.753,-33.817 12.106,-67.771 13.127,-102.14 0.647,-18.762 89.091,-15.712 88.444,3.05 z" id="path12184" inkscape:connector-curvature="0" style="fill:#916f6f;fill-opacity:1;fill-rule:nonzero;stroke:#f9f9f9;stroke-width:0.1;stroke-miterlimit:4;stroke-dasharray:none" transform="translate(-11264, -54272)"/><path d="m 11419.805,55066.278 c 38.76,4.76 78.15,0.97 116.949,-1.617 63.288,-5.194 126.572,-10.372 189.917,-14.82 40.361,-2.204 80.578,-6.214 120.833,-9.741 4.139,-0.285 8.277,-0.57 12.416,-0.855 18.615,-1.095 23.777,86.658 5.161,87.753 l 0,0 c -3.573,0.169 -7.147,0.337 -10.721,0.506 -40.646,2.798 -81.245,6.303 -121.949,8.224 -63.261,4.011 -126.441,9.048 -189.579,14.674 -47.646,3.569 -96.014,8.576 -143.593,1.95 -18.259,-4.363 2.307,-90.437 20.566,-86.074 z" id="path12186" inkscape:connector-curvature="0" style="fill:#916f6f;fill-opacity:1;fill-rule:nonzero;stroke:#f9f9f9;stroke-width:0.1;stroke-miterlimit:4;stroke-dasharray:none" transform="translate(-11264, -54272)"/></svg>