<?xml version="1.0" encoding="UTF-8" standalone="no"?>
<svg
   xmlns:dc="http://purl.org/dc/elements/1.1/"
   xmlns:cc="http://creativecommons.org/ns#"
   xmlns:rdf="http://www.w3.org/1999/02/22-rdf-syntax-ns#"
   xmlns:svg="http://www.w3.org/2000/svg"
   xmlns="http://www.w3.org/2000/svg"
   xmlns:sodipodi="http://sodipodi.sourceforge.net/DTD/sodipodi-0.dtd"
   xmlns:inkscape="http://www.inkscape.org/namespaces/inkscape"
   width="1024"
   height="1024"
   id="U51AC"
   version="1.1"
   inkscape:version="0.48.0 r9654"
   sodipodi:docname="U+51AC.svg">
  <metadata
     id="metadata12">
    <rdf:RDF>
      <cc:Work
         rdf:about="">
        <dc:format>image/svg+xml</dc:format>
        <dc:type
           rdf:resource="http://purl.org/dc/dcmitype/StillImage" />
      </cc:Work>
    </rdf:RDF>
  </metadata>
  <defs
     id="defs10" />
  <sodipodi:namedview
     pagecolor="#ffffff"
     bordercolor="#666666"
     borderopacity="1"
     objecttolerance="10"
     gridtolerance="10"
     guidetolerance="10"
     inkscape:pageopacity="0"
     inkscape:pageshadow="2"
     inkscape:window-width="640"
     inkscape:window-height="480"
     id="namedview8"
     showgrid="false"
     inkscape:zoom="0.27441406"
     inkscape:cx="512"
     inkscape:cy="512"
     inkscape:window-x="0"
     inkscape:window-y="25"
     inkscape:window-maximized="0"
     inkscape:current-layer="U51AC" />
  <path
     style="fill:#550000;fill-opacity:1;fill-rule:nonzero;stroke:#f9f9f9;stroke-width:0.1;stroke-miterlimit:4;stroke-dasharray:none"
     d="M 321.71875 142.0625 C 311.5138 142.01482 303.91015 144.07519 302.71875 149.15625 C 292.33133 193.08025 278.46692 236.13175 264.71875 279.09375 C 246.89981 333.98775 228.32611 388.60875 210.03125 443.34375 C 203.03179 465.58775 206.06449 455.00725 200.71875 475.03125 C 196.36253 492.96225 280.89377 513.4925 285.25 495.5625 C 286.35049 490.27999 286.81207 487.94261 287.1875 486.25 C 317.83342 506.29233 349.21971 525.10867 381.09375 543.15625 C 390.6092 548.49748 400.21859 553.68767 409.875 558.75 C 393.71155 575.94429 377.27246 592.86604 360.5625 609.53125 C 334.50862 633.52825 309.59537 659.63675 279.6875 678.96875 C 264.46334 689.40475 313.65083 761.15475 328.875 750.71875 C 362.313 726.98375 391.79954 698.29175 421.09375 669.71875 C 444.41702 646.10121 467.30862 622.07573 489.6875 597.5625 C 514.89016 609.07388 540.26878 620.15459 565.6875 631.15625 C 618.75032 653.79425 671.97532 676.1 723.96875 701.125 C 730.34682 706.64902 749.75796 712.33707 760 719.71875 C 759.12846 718.21889 758.28378 716.70399 757.4375 715.1875 C 770.32614 727.82671 845.10477 709.03969 841.09375 692.0625 C 837.85986 684.6615 835.63105 676.72675 831.40625 669.84375 C 816.55828 645.65275 783.51992 636.8035 760.65625 623.4375 C 707.46147 598.7625 653.31796 576.30825 599.34375 553.40625 C 582.24305 546.01743 565.14489 538.56339 548.125 530.96875 C 549.31072 529.56078 550.50548 528.16115 551.6875 526.75 C 587.20193 482.61 621.22324 437.13675 649.96875 388.21875 C 671.04263 350.30275 690.22659 311.059 666.3125 269.375 C 661.39428 264.208 657.12391 258.343 651.5625 253.875 C 626.68526 233.888 592.24487 234.247 562.21875 234.875 C 512.69587 238.692 463.82594 247.6825 415.96875 261.0625 C 394.92803 267.14074 374.05881 273.6961 353.53125 281.21875 C 365.61934 244.05736 377.41621 206.78149 387.875 169.125 C 390.9197 156.14006 347.79806 142.18435 321.71875 142.0625 z M 760 719.71875 C 760.96826 721.38505 761.95391 723.04133 763.09375 724.59375 C 763.68951 725.40475 766.23247 726.8525 765.8125 725.9375 C 764.79707 723.72568 762.70323 721.66703 760 719.71875 z M 568.21875 320.84375 C 570.20259 320.87895 578.96918 320.71677 587.40625 321.28125 C 587.24886 321.65104 587.11286 322.01794 586.9375 322.40625 C 582.6576 331.88225 579.61655 336.90075 574.375 346.46875 C 548.55126 391.43275 517.70919 433.13975 485.40625 473.59375 C 479.87037 480.23833 474.25581 486.84391 468.625 493.40625 C 453.36665 485.65245 438.26566 477.57224 423.375 469.09375 C 386.08255 447.62975 349.33006 425.179 314.75 399.5 C 314.66792 399.44573 314.5839 399.39337 314.5 399.34375 C 317.83538 389.18139 321.19938 379.0283 324.5625 368.875 C 331.17672 377.55523 337.91351 382.77938 342.84375 380.4375 C 373.63738 364.1755 406.63668 353.22975 439.9375 343.46875 C 481.89136 331.77475 524.7296 323.47175 568.21875 320.84375 z M 594.9375 322.03125 C 599.82725 322.75404 603.6649 323.93151 604.40625 325.78125 C 605.31984 328.06025 602.07386 325.84825 597.40625 323.15625 C 596.30117 323.01958 595.52384 322.60023 594.9375 322.03125 z M 500.28125 676.46875 C 482.26185 676.71204 442.96245 742.93375 457.8125 752.03125 C 486.39078 769.73225 516.718 784.0525 547.4375 797.5625 C 563.99056 804.7615 580.47424 812.16325 596.40625 820.65625 C 612.82007 829.12225 652.72632 751.74825 636.3125 743.28125 C 618.55536 734.34825 600.4231 726.17525 582.125 718.40625 C 554.99454 706.55625 528.10188 694.09375 503.5625 677.34375 C 502.5725 676.73725 501.48254 676.45253 500.28125 676.46875 z M 437.25 829.03125 C 419.60213 829.08893 396.44279 907.99888 413.6875 913.1875 C 446.744 921.3705 480.34936 927.01775 513.625 934.21875 C 541.44394 940.83075 569.87716 947.83025 594.0625 963.65625 C 609.83371 973.22425 654.92746 898.8805 639.15625 889.3125 C 605.90438 869.9185 569.59029 857.92375 531.96875 849.96875 C 500.94313 843.18075 469.52967 837.86925 438.9375 829.28125 C 438.38122 829.11388 437.81929 829.02939 437.25 829.03125 z "
     id="path22241" />
</svg>
