<?xml version="1.0" encoding="utf-8" ?>

<!DOCTYPE svg PUBLIC "-//W3C//DTD SVG 1.1//EN" 
  "http://www.w3.org/Graphics/SVG/1.1/DTD/svg11.dtd">
<svg 
    xmlns="http://www.w3.org/2000/svg"
    xmlns:xlink="http://www.w3.org/1999/xlink"
    xmlns:sodipodi="http://sodipodi.sourceforge.net/DTD/sodipodi-0.dtd"
    xmlns:inkscape="http://www.inkscape.org/namespaces/inkscape"
    width="1024" height="1024" id="U51FA">
<path d="m 10601.968,5432.8663 c -2.415,30.3552 -6.177,60.565 -7.774,90.9818 0,4.8265 0.02,53.0308 10.812,45.6207 25.709,0.9297 51.992,-2.7266 77.577,-6.4756 46.688,-7.8194 93.427,-15.1857 140.383,-21.2053 17.079,-1.9574 34.161,-3.8704 51.229,-5.9228 18.28,-2.0555 27.97,84.1201 9.69,86.1756 l 0,0 c -16.769,1.7592 -33.548,3.4131 -50.315,5.188 -46.323,5.5511 -92.388,12.7512 -138.364,20.6735 -49.306,7.4227 -100.514,16.1331 -145.455,-11.3347 -6.113,-5.8127 -13.026,-10.8859 -18.339,-17.4381 -22.603,-27.8777 -24.031,-65.8201 -23.508,-99.8849 1.617,-29.9128 5.09,-59.6703 6.446,-89.5935 0.682,-18.5865 88.3,-15.3712 87.618,3.2153 z" id="path21039" inkscape:connector-curvature="0" style="fill:#800000;fill-opacity:1;fill-rule:nonzero;stroke:#f9f9f9;stroke-width:0.1;stroke-miterlimit:4;stroke-dasharray:none" transform="translate(-10240, -5120)"/><path d="m 11000.613,5443.4724 c -13.516,33.7366 -20.272,69.7039 -27.197,105.2377 -5.708,29.9034 -9.564,60.1008 -13.688,90.2479 -2.687,18.2246 -88.599,5.5567 -85.912,-12.6679 l 0,0 c 4.971,-31.3427 9.347,-62.7859 15.324,-93.9624 7.991,-41.2079 16.124,-82.6352 30.581,-122.164 7.065,-17.1599 87.958,16.1488 80.892,33.3087 z" id="path21041" inkscape:connector-curvature="0" style="fill:#800000;fill-opacity:1;fill-rule:nonzero;stroke:#f9f9f9;stroke-width:0.1;stroke-miterlimit:4;stroke-dasharray:none" transform="translate(-10240, -5120)"/><path d="m 10810.387,5302.0448 c -5.698,52.376 -8.059,105.0618 -10.97,157.6483 -4.71,88.9832 -10.9,177.8765 -17.369,266.746 -4.651,64.3134 -9,128.65 -12.425,193.0413 -0.264,5.2264 -0.529,10.4528 -0.794,15.6791 -1.231,18.3379 -87.676,12.5359 -86.446,-5.802 l 0,0 c 0.434,-5.1792 0.868,-10.3583 1.301,-15.5374 5.062,-64.5159 9.962,-129.0442 14.887,-193.5707 6.659,-88.1831 12.776,-176.4159 16.61,-264.7743 2.42,-54.0387 4.529,-108.1016 8.177,-162.0756 1.834,-18.4618 88.863,-9.8165 87.029,8.6453 z" id="path21043" inkscape:connector-curvature="0" style="fill:#800000;fill-opacity:1;fill-rule:nonzero;stroke:#f9f9f9;stroke-width:0.1;stroke-miterlimit:4;stroke-dasharray:none" transform="translate(-10240, -5120)"/><path d="m 10585.106,5806.1565 c -6.541,24.8134 -9.469,50.389 -11.745,75.8901 0.361,14.5502 -5.574,37.9224 7.699,48.7872 16.938,8.5813 36.65,9.1604 55.189,10.4266 61.757,1.9721 123.342,-5.1691 184.635,-11.7878 53.318,-5.9817 106.525,-12.9641 159.584,-20.9227 16.078,-2.6277 8.914,-1.199 21.547,-4.0066 18.152,-3.5329 34.807,82.0377 16.655,85.5706 l 0,0 c -16.859,2.9649 -8.069,1.5862 -26.384,4.0551 -54.06,6.8341 -108.162,13.3469 -162.321,19.3498 -66.232,7.1603 -132.715,15.194 -199.455,13.6027 -45.43,-2.9883 -90.152,-9.6205 -121,-46.7771 -3.7,-5.885 -7.977,-11.4445 -11.101,-17.6548 -13.761,-27.36 -13.417,-58.7077 -11.337,-88.4354 2.775,-30.4275 6.527,-60.8096 13.402,-90.6208 4.777,-17.9533 89.41,4.5698 84.632,22.5231 z" id="path21045" inkscape:connector-curvature="0" style="fill:#800000;fill-opacity:1;fill-rule:nonzero;stroke:#f9f9f9;stroke-width:0.1;stroke-miterlimit:4;stroke-dasharray:none" transform="translate(-10240, -5120)"/><path d="m 11052.415,5751.8169 c -10.704,40.336 -15.678,81.9468 -21,123.2573 -5.955,48.3491 -10.427,96.8842 -12.088,145.5764 -0.78,18.285 -86.976,14.6119 -86.197,-3.6731 l 0,0 c 2.568,-51.0201 7.52,-101.8742 13.611,-152.5901 5.64,-45.6051 11.129,-91.3675 21.432,-136.207 5.014,-17.8706 89.256,5.7659 84.242,23.6365 z" id="path21047" inkscape:connector-curvature="0" style="fill:#800000;fill-opacity:1;fill-rule:nonzero;stroke:#f9f9f9;stroke-width:0.1;stroke-miterlimit:4;stroke-dasharray:none" transform="translate(-10240, -5120)"/></svg>