<?xml version="1.0" encoding="UTF-8" standalone="no"?>
<svg
   xmlns:dc="http://purl.org/dc/elements/1.1/"
   xmlns:cc="http://creativecommons.org/ns#"
   xmlns:rdf="http://www.w3.org/1999/02/22-rdf-syntax-ns#"
   xmlns:svg="http://www.w3.org/2000/svg"
   xmlns="http://www.w3.org/2000/svg"
   xmlns:sodipodi="http://sodipodi.sourceforge.net/DTD/sodipodi-0.dtd"
   xmlns:inkscape="http://www.inkscape.org/namespaces/inkscape"
   width="1024"
   height="1024"
   id="U5143"
   version="1.1"
   inkscape:version="0.48.0 r9654"
   sodipodi:docname="U+5143.svg">
  <metadata
     id="metadata11">
    <rdf:RDF>
      <cc:Work
         rdf:about="">
        <dc:format>image/svg+xml</dc:format>
        <dc:type
           rdf:resource="http://purl.org/dc/dcmitype/StillImage" />
      </cc:Work>
    </rdf:RDF>
  </metadata>
  <defs
     id="defs9" />
  <sodipodi:namedview
     pagecolor="#ffffff"
     bordercolor="#666666"
     borderopacity="1"
     objecttolerance="10"
     gridtolerance="10"
     guidetolerance="10"
     inkscape:pageopacity="0"
     inkscape:pageshadow="2"
     inkscape:window-width="640"
     inkscape:window-height="480"
     id="namedview7"
     showgrid="false"
     inkscape:zoom="0.27441406"
     inkscape:cx="512"
     inkscape:cy="512"
     inkscape:window-x="0"
     inkscape:window-y="25"
     inkscape:window-maximized="0"
     inkscape:current-layer="U5143" />
  <path
     style="fill:#2b1100;fill-opacity:1;fill-rule:nonzero;stroke:none"
     d="M 643.46875 232.9375 C 620.51423 232.96356 597.60895 235.03725 574.75 237.5625 C 521.5626 243.2135 468.47115 249.76075 415.59375 257.84375 C 373.74965 264.51475 331.97895 271.7545 290.90625 282.3125 C 272.81435 287.1785 295.75175 372.45975 313.84375 367.59375 C 351.62845 356.22275 390.5761 349.546 429.4375 343.125 C 480.6259 335.083 532.0695 328.8185 583.625 323.6875 C 608.505 322.0875 633.8438 317.9335 658.75 321.3125 C 677.3459 322.9475 685.0334 235.29125 666.4375 233.65625 C 658.7784 233.158 651.12026 232.92881 643.46875 232.9375 z M 755.59375 432.625 C 754.03589 432.63734 751.80045 432.64375 748.25 432.65625 C 711.5317 433.49325 674.8245 435.08525 638.3125 439.28125 C 581.5118 445.58225 524.8381 453.11875 468.25 461.09375 C 404.7571 469.90575 341.1995 478.182 277.5 485.375 C 234.6607 490.093 191.7853 495.1315 148.6875 496.6875 C 129.9625 497.6445 134.4625 585.92475 153.1875 584.96875 C 197.9891 581.46575 242.6276 576.08875 287.25 570.84375 C 291.77132 570.30613 296.29206 569.76311 300.8125 569.21875 C 293.46413 588.1274 285.88376 606.95897 278.25 625.75 C 260.3381 669.564 239.7737 712.18125 219.1875 754.78125 C 205.5382 783.13325 190.2123 810.65475 177.8125 839.59375 C 171.69 852.32975 171.7487 862.96625 171.375 877.15625 C 173.96516 894.87565 253.45868 884.14141 259.03125 867.03125 C 257.27407 886.1933 257.1386 879.93466 259.25 873.1875 C 270.1049 845.3835 285.08495 819.46375 297.46875 792.34375 C 318.53355 748.06175 339.70555 703.78325 358.34375 658.40625 C 372.16915 624.65315 385.65052 590.75688 399.15625 556.875 C 426.12045 553.35533 453.06 549.74053 480 546.03125 C 483.56124 545.53474 487.12547 545.05362 490.6875 544.5625 C 490.52014 575.09527 488.77388 605.57898 487.78125 636.09375 C 486.26525 676.96075 487.1157 717.84475 490.4375 758.59375 C 492.9152 793.10375 502.3037 825.696 518.25 856.25 C 534.8046 885.458 559.90335 903.38425 590.90625 914.53125 C 621.93075 923.23525 653.9949 921.112 685.5625 917.375 C 717.4659 912.922 749.2043 907.519 780.9375 902 C 810.6232 896.585 840.54 892.81375 870.625 890.59375 C 896.1182 889.39175 921.59415 888.13325 947.03125 886.03125 C 958.19885 885.05425 969.3839 884.00125 980.5625 883.15625 C 999.2505 881.57325 991.78175 793.4795 973.09375 795.0625 C 961.89035 796.1005 950.702 797.35125 939.5 798.40625 C 914.3648 800.66325 889.16405 801.89725 863.96875 803.28125 C 831.10205 805.85825 798.41355 809.968 765.96875 815.875 C 735.76705 821.125 705.52265 826.164 675.15625 830.375 C 656.39975 832.64 637.32645 834.61275 618.59375 830.96875 C 608.41655 828.66775 601.2201 823.32925 595.5 814.40625 C 584.2017 795.04525 579.6023 773.312 577.4375 751.125 C 574.0593 713.89 573.2081 676.52325 574.6875 639.15625 C 575.9227 606.26025 577.89855 573.395 579.15625 540.5 C 579.19951 537.86131 577.50661 535.57084 574.53125 533.625 C 598.84329 530.65494 623.16757 527.86136 647.53125 525.34375 C 681.37615 521.74875 715.39275 520.59 749.40625 520.5 C 759.87075 520.76 755.3478 520.369 762.9375 521.25 C 781.6328 522.559 787.8202 434.434 769.125 433.125 C 758.9067 432.6285 760.26732 432.58797 755.59375 432.625 z "
     id="path13453" />
</svg>
