<?xml version="1.0" encoding="utf-8" ?>

<!DOCTYPE svg PUBLIC "-//W3C//DTD SVG 1.1//EN" 
  "http://www.w3.org/Graphics/SVG/1.1/DTD/svg11.dtd">
<svg 
    xmlns="http://www.w3.org/2000/svg"
    xmlns:xlink="http://www.w3.org/1999/xlink"
    xmlns:sodipodi="http://sodipodi.sourceforge.net/DTD/sodipodi-0.dtd"
    xmlns:inkscape="http://www.inkscape.org/namespaces/inkscape"
    width="1024" height="1024" id="U5148">
<path d="m 8574.193,53498.437 c -17.5186,26.191 -30.5998,54.85 -42.6957,83.836 -16.8389,42.097 -28.9058,85.84 -38.359,130.12 -4.2769,24.183 -2.5423,12.546 -5.3544,34.888 -2.5115,18.333 -88.9331,6.494 -86.4217,-11.839 l 0,0 c 3.9593,-27.127 1.6541,-13.279 6.9986,-41.53 10.9269,-49.221 24.3808,-97.916 42.9509,-144.862 13.8517,-33.642 29.0311,-66.701 47.9868,-97.829 10.0161,-15.888 84.9105,31.329 74.8945,47.216 z" id="path13390" inkscape:connector-curvature="0" style="fill:#501616;fill-opacity:1;fill-rule:nonzero;stroke:#f9f9f9;stroke-width:0.1;stroke-miterlimit:4;stroke-dasharray:none" transform="translate(-8192, -53248)"/><path d="m 8501.9554,53599.995 c 37.1017,-6.142 74.2995,-11.326 111.691,-15.355 58.0398,-6.008 116.362,-7.647 174.6702,-7.612 22.0917,-0.03 44.1259,1.296 66.1397,2.957 18.4497,1.604 10.888,88.577 -7.5617,86.973 l 0,0 c -19.5978,-1.971 -39.23,-3.478 -58.9452,-3.594 -54.9805,-0.447 -109.9834,1.076 -164.6718,7.205 -36.2736,4.234 -72.3831,9.51 -108.1553,16.948 -18.5661,2.793 -31.733,-84.729 -13.1669,-87.522 z" id="path13392" inkscape:connector-curvature="0" style="fill:#501616;fill-opacity:1;fill-rule:nonzero;stroke:#f9f9f9;stroke-width:0.1;stroke-miterlimit:4;stroke-dasharray:none" transform="translate(-8192, -53248)"/><path d="m 8787.3783,53451.599 c -16.0828,39.606 -20.4971,82.766 -25.3596,124.876 -6.1692,61.026 -8.1798,122.359 -10.3299,183.627 -1.3947,33.789 -0.6024,17.276 -2.3478,49.541 -1.0991,18.361 -87.6549,13.18 -86.5558,-5.181 l 0,0 c 2.0338,-30.849 1.0968,-14.951 2.7694,-47.7 2.6874,-63.348 5.0111,-126.76 11.1609,-189.892 5.6626,-51.485 11.4991,-103.758 30.4974,-152.363 7.8683,-17.006 88.0337,20.086 80.1654,37.092 z" id="path13394" inkscape:connector-curvature="0" style="fill:#501616;fill-opacity:1;fill-rule:nonzero;stroke:#f9f9f9;stroke-width:0.1;stroke-miterlimit:4;stroke-dasharray:none" transform="translate(-8192, -53248)"/><path d="m 8420.4185,53878.549 c 50.9512,-10.49 101.9219,-20.867 153.0073,-30.685 69.2494,-13.588 139.2548,-22.464 209.5006,-28.8 43.039,-3.223 86.2758,-6.095 129.4162,-3.402 18.5904,1.496 11.5361,89.132 -7.0543,87.636 l 0,0 c -38.1777,-4.091 -76.7528,-0.733 -114.9484,1.286 -67.2631,5.581 -134.2877,13.895 -200.4943,27.252 -49.8556,9.919 -99.6852,20.137 -148.9722,32.624 -18.2244,4.339 -38.6793,-81.571 -20.4549,-85.911 z" id="path13396" inkscape:connector-curvature="0" style="fill:#501616;fill-opacity:1;fill-rule:nonzero;stroke:#f9f9f9;stroke-width:0.1;stroke-miterlimit:4;stroke-dasharray:none" transform="translate(-8192, -53248)"/><path d="m 8703.4664,53879.349 c -23.6908,27.841 -45.0512,57.559 -66.5311,87.108 -32.0022,44.385 -62.5179,89.8 -91.4029,136.268 -15.2139,25.351 -30.103,51.043 -41.1207,78.536 -7.3499,17.12 -88.056,-17.527 -80.7062,-34.648 l 0,0 c 13.9703,-31.053 30.6875,-60.734 48.6155,-89.673 30.1314,-47.907 61.7092,-94.87 94.484,-141.012 22.2699,-31.18 44.5677,-62.352 68.0897,-92.607 11.8854,-14.546 80.457,41.482 68.5717,56.028 z" id="path13398" inkscape:connector-curvature="0" style="fill:#501616;fill-opacity:1;fill-rule:nonzero;stroke:#f9f9f9;stroke-width:0.1;stroke-miterlimit:4;stroke-dasharray:none" transform="translate(-8192, -53248)"/><path d="m 8759.0245,53922.346 c -9.236,27.244 -14.2615,55.52 -16.2504,84.148 -1.1123,26.953 4.5941,51.219 24.6989,69.722 31.3896,21.303 70.4981,22.973 107.1408,25.488 55.9063,2.318 111.8846,1.606 167.8206,1.096 25.2653,-0.156 50.5071,-1.088 75.7027,-2.926 18.5266,-1.153 23.9596,86.183 5.433,87.335 l 0,0 c -26.8666,1.418 -53.758,2.063 -80.6647,2.01 -58.0546,0.105 -116.1427,0.726 -174.1662,-1.533 -58.9958,-4.015 -118.5753,-10.909 -164.7484,-51.754 -5.9909,-6.74 -12.6276,-12.956 -17.9726,-20.219 -24.6116,-33.439 -31.2699,-75.108 -30.1433,-115.627 2.718,-35.36 8.6007,-70.236 18.7996,-104.27 5.6278,-17.893 89.9777,8.636 84.35,26.53 z" id="path13404" inkscape:connector-curvature="0" style="fill:#501616;fill-opacity:1;fill-rule:nonzero;stroke:#f9f9f9;stroke-width:0.1;stroke-miterlimit:4;stroke-dasharray:none" transform="translate(-8192, -53248)"/></svg>