<?xml version="1.0" encoding="utf-8" ?>

<!DOCTYPE svg PUBLIC "-//W3C//DTD SVG 1.1//EN" 
  "http://www.w3.org/Graphics/SVG/1.1/DTD/svg11.dtd">
<svg 
    xmlns="http://www.w3.org/2000/svg"
    xmlns:xlink="http://www.w3.org/1999/xlink"
    xmlns:sodipodi="http://sodipodi.sourceforge.net/DTD/sodipodi-0.dtd"
    xmlns:inkscape="http://www.inkscape.org/namespaces/inkscape"
    width="1024" height="1024" id="U51B7">
<path d="m 10515.554,28991.486 c 7.301,25.752 19.931,49.436 34.087,71.987 13.342,20.075 29.52,38.002 44.982,56.423 11.888,14.331 -55.669,70.373 -67.558,56.042 l 0,0 c -17.754,-21.666 -36.327,-42.766 -51.53,-66.377 -18.463,-29.897 -34.858,-61.109 -45.324,-94.8 -4.938,-18.104 80.405,-41.379 85.343,-23.275 z" id="path9514" inkscape:connector-curvature="0" style="fill:#2b0000;fill-opacity:1;fill-rule:nonzero;stroke:#f9f9f9;stroke-width:0.1;stroke-miterlimit:4;stroke-dasharray:none" transform="translate(-10240, -28672)"/><path d="m 10429.104,29446.901 c 25.108,-40.708 57.059,-76.48 89.16,-111.703 26.251,-27.945 13.319,-14.255 38.791,-41.079 12.656,-13.247 75.101,46.416 62.445,59.663 l 0,0 c -24.834,25.828 -12.343,12.708 -37.466,39.369 -27.561,30.421 -55.347,61.27 -75.873,97.054 -9.186,16.347 -86.243,-26.958 -77.057,-43.304 z" id="path9516" inkscape:connector-curvature="0" style="fill:#2b0000;fill-opacity:1;fill-rule:nonzero;stroke:#f9f9f9;stroke-width:0.1;stroke-miterlimit:4;stroke-dasharray:none" transform="translate(-10240, -28672)"/><path d="m 10851.26,28895.972 c -7.541,32.312 -23.037,61.688 -39.469,90.215 -24.929,40.82 -55.144,78.028 -85.307,115.026 -26.437,31.596 -52.153,63.779 -77.711,96.087 -5.974,7.725 -12.138,15.323 -17.8,23.286 -2.773,3.899 -2.629,3.649 -1.182,2.201 -9.896,16.051 -85.562,-30.596 -75.666,-46.647 l 0,0 c 8.087,-11.82 17.554,-22.609 26.485,-33.786 26.239,-31.946 52.213,-64.109 78.724,-95.832 27.15,-33.37 54.362,-66.932 76.803,-103.735 11.642,-20.398 23.299,-41.323 28.366,-64.488 3.749,-18.404 90.506,-0.731 86.757,17.673 z" id="path9520" inkscape:connector-curvature="0" style="fill:#2b0000;fill-opacity:1;fill-rule:nonzero;stroke:#f9f9f9;stroke-width:0.1;stroke-miterlimit:4;stroke-dasharray:none" transform="translate(-10240, -28672)"/><path d="m 10877.625,28871.235 c 15.718,19.927 33.451,38.181 50.698,56.775 22.646,24.617 44.93,49.563 67.373,74.365 18.959,21.201 38.622,41.75 58.053,62.515 14.622,15.456 28.087,31.909 41.376,48.504 0.834,3.175 16.203,14.808 5.488,6.702 16.367,9.362 -27.765,86.519 -44.132,77.157 l 0,0 c -11.88,-7.974 -22.209,-17.476 -30.675,-29.128 -11.589,-14.892 -23.385,-29.617 -36.319,-43.381 -19.628,-21.176 -39.437,-42.184 -58.657,-63.734 -22.126,-24.502 -44.074,-49.167 -66.522,-73.375 -19.328,-20.665 -39.011,-41.047 -57.122,-62.805 -11.369,-14.943 59.07,-68.538 70.439,-53.595 z" id="path9522" inkscape:connector-curvature="0" style="fill:#2b0000;fill-opacity:1;fill-rule:nonzero;stroke:#f9f9f9;stroke-width:0.1;stroke-miterlimit:4;stroke-dasharray:none" transform="translate(-10240, -28672)"/><path d="m 10836.554,29085.742 c 6.686,20 18.516,37.605 30.421,54.801 12.486,17.286 25.363,34.284 38.164,51.336 1.497,2.161 2.994,4.322 4.491,6.484 10.481,15.573 -62.931,64.98 -73.411,49.407 l 0,0 c -0.766,-1.201 -1.531,-2.401 -2.296,-3.601 -12.944,-18.033 -26.21,-35.831 -39.143,-53.872 -16.763,-24.413 -32.648,-49.626 -42.571,-77.718 -5.693,-17.892 78.652,-44.729 84.345,-26.837 z" id="path9530" inkscape:connector-curvature="0" style="fill:#2b0000;fill-opacity:1;fill-rule:nonzero;stroke:#f9f9f9;stroke-width:0.1;stroke-miterlimit:4;stroke-dasharray:none" transform="translate(-10240, -28672)"/><path d="m 10659.049,29272.62 c 31.285,-5.624 61.711,-15.187 92.202,-24.007 43.474,-13.084 87.674,-23.251 132.575,-29.879 28.241,-3.999 56.74,-4.457 85.158,-2.74 11.785,0.572 23.434,2.124 34.87,5.012 35.521,11.588 43.792,43.156 29.446,75.04 -10.622,19.036 -19.997,38.706 -29.268,58.423 -17.974,39.052 -35.955,78.102 -53.522,117.339 -4.182,15.871 -23.185,43.617 -22.672,60.174 2.886,-9.991 -2.51,-17.573 -6.332,-26.796 10.88,15.434 -61.877,66.724 -72.757,51.29 l 0,0 c -6.262,-14.281 -11.082,-24.554 -8.002,-40.2 6.03,-28.152 18.907,-54.04 30.531,-80.221 17.894,-39.35 35.907,-78.644 53.367,-118.19 9.137,-20.196 18.301,-40.391 28.643,-60.008 -3.361,21.012 5.483,43.143 27.647,48.979 -5.91,-1.872 -12.109,-2.146 -18.252,-2.778 -22.175,-1.906 -44.448,-1.933 -66.565,0.948 -40.864,5.574 -80.998,14.957 -120.447,26.999 -33.692,9.985 -67.291,20.528 -101.686,27.872 -18.51,3.169 -33.446,-84.089 -14.936,-87.257 z" id="path9534" inkscape:connector-curvature="0" style="fill:#2b0000;fill-opacity:1;fill-rule:nonzero;stroke:#f9f9f9;stroke-width:0.1;stroke-miterlimit:4;stroke-dasharray:none" transform="translate(-10240, -28672)"/><path d="m 10754.245,29451.15 c 32.144,7.9 62.395,21.243 91.99,35.786 31.565,15.821 61.756,34.141 90.824,54.14 8.715,6.129 17.19,12.586 25.656,19.051 14.734,11.573 -39.824,81.029 -54.557,69.455 l 0,0 c -6.987,-5.67 -14.016,-11.29 -21.296,-16.582 -25.15,-17.853 -51.516,-33.906 -79.127,-47.694 -23.504,-11.542 -47.5,-22.528 -73.278,-27.936 -18.29,-4.198 1.498,-90.417 19.788,-86.22 z" id="path9536" inkscape:connector-curvature="0" style="fill:#2b0000;fill-opacity:1;fill-rule:nonzero;stroke:#f9f9f9;stroke-width:0.1;stroke-miterlimit:4;stroke-dasharray:none" transform="translate(-10240, -28672)"/></svg>