<?xml version="1.0" encoding="UTF-8" standalone="no"?>
<svg
   xmlns:dc="http://purl.org/dc/elements/1.1/"
   xmlns:cc="http://creativecommons.org/ns#"
   xmlns:rdf="http://www.w3.org/1999/02/22-rdf-syntax-ns#"
   xmlns:svg="http://www.w3.org/2000/svg"
   xmlns="http://www.w3.org/2000/svg"
   xmlns:sodipodi="http://sodipodi.sourceforge.net/DTD/sodipodi-0.dtd"
   xmlns:inkscape="http://www.inkscape.org/namespaces/inkscape"
   width="1024"
   height="1024"
   id="U5178"
   version="1.1"
   inkscape:version="0.48.0 r9654"
   sodipodi:docname="U+5178.svg">
  <metadata
     id="metadata15">
    <rdf:RDF>
      <cc:Work
         rdf:about="">
        <dc:format>image/svg+xml</dc:format>
        <dc:type
           rdf:resource="http://purl.org/dc/dcmitype/StillImage" />
      </cc:Work>
    </rdf:RDF>
  </metadata>
  <defs
     id="defs13" />
  <sodipodi:namedview
     pagecolor="#ffffff"
     bordercolor="#666666"
     borderopacity="1"
     objecttolerance="10"
     gridtolerance="10"
     guidetolerance="10"
     inkscape:pageopacity="0"
     inkscape:pageshadow="2"
     inkscape:window-width="640"
     inkscape:window-height="480"
     id="namedview11"
     showgrid="false"
     inkscape:zoom="0.27441406"
     inkscape:cx="512"
     inkscape:cy="512"
     inkscape:window-x="0"
     inkscape:window-y="25"
     inkscape:window-maximized="0"
     inkscape:current-layer="U5178" />
  <path
     style="fill:#550000;fill-opacity:1;fill-rule:nonzero;stroke:#f9f9f9;stroke-width:0.1;stroke-miterlimit:4;stroke-dasharray:none"
     d="M 509.65625 132.15625 C 501.14033 132.25018 494.96243 134.18185 493.75 138.65625 C 485.16911 180.24407 479.95633 222.40815 475.375 264.625 C 463.40105 266.04089 451.48432 267.78281 439.59375 269.8125 C 441.74875 236.43341 444.5247 203.1121 449 169.96875 C 451.6651 151.63275 365.2276 139.07025 362.5625 157.40625 C 358.44672 201.54588 355.87531 245.81865 353.65625 290.09375 C 324.30364 298.67839 295.59765 309.24209 269.3125 325.15625 C 253.9897 335.66335 303.52095 407.91335 318.84375 397.40625 C 328.606 391.40334 338.86333 386.45108 349.4375 382.1875 C 349.16372 388.9675 348.8885 395.75018 348.65625 402.53125 C 323.64464 406.29093 298.66306 410.24636 273.71875 414.4375 C 270.81101 390.49785 268.39382 366.48142 266.90625 342.40625 C 265.44615 323.91195 178.25875 330.8182 179.71875 349.3125 C 184.68045 396.0075 190.88515 442.5371 197.65625 489 C 203.22703 525.81398 208.99555 562.66567 218.46875 598.625 C 214.45555 598.866 210.45513 599.07677 206.4375 599.25 C 187.8613 599.5403 189.20505 687.1028 207.78125 686.8125 C 255.13235 683.2058 302.1635 676.2206 349.1875 669.75 C 417.0104 660.1192 484.90085 650.8634 553.03125 643.6875 C 598.10435 638.9357 643.37275 636.72715 688.65625 635.34375 C 714.67035 634.42655 740.70005 635.1089 766.71875 634.5625 C 770.67605 634.3295 774.62965 634.31025 778.59375 634.28125 C 797.26745 633.95055 795.7362 545.9193 777.0625 546.25 C 772.6483 546.5164 768.25755 546.962 763.84375 547.25 C 741.61457 548.31732 719.33656 547.95302 697.09375 548.625 C 700.59712 537.66794 703.82118 526.6225 706.46875 515.40625 C 716.75535 473.21945 725.80355 430.289 725.03125 386.625 C 721.31775 343.49 710.807 309.42735 673.0625 284.21875 C 638.23649 265.66881 600.60584 258.69891 561.34375 259.0625 C 565.39199 226.27044 570.35828 193.59636 578.125 161.5 C 581.76228 148.0768 535.20401 131.87447 509.65625 132.15625 z M 557.25 345.03125 C 581.6214 346.12335 609.0756 345.46965 630.0625 359.84375 C 638.3529 368.46715 638.07435 381.8535 638.65625 393.0625 C 638.47995 427.578 631.05745 461.4766 622.78125 494.8125 C 618.99575 510.6815 613.7599 526.10015 608.1875 541.40625 C 606.95396 544.89343 609.29356 548.8594 613.84375 552.8125 C 590.63645 554.38882 567.46402 556.38506 544.34375 559.03125 C 543.49538 545.53721 542.89807 532.02984 542.75 518.5 C 542.65329 500.09187 542.94618 481.69112 543.5625 463.3125 C 555.79275 462.07325 568.0154 460.87334 580.25 459.6875 C 601.1062 457.7148 591.26155 458.66605 609.78125 456.90625 C 628.10985 454.89985 618.67235 368.4936 600.34375 370.5 C 582.19465 372.7558 591.89695 371.5753 571.21875 374 C 563.75445 374.85233 556.27729 375.71234 548.8125 376.5625 C 549.70644 366.08707 550.65868 355.62022 551.71875 345.15625 C 553.56106 345.1199 555.40718 345.05455 557.25 345.03125 z M 466.28125 352.09375 C 465.20069 363.58851 464.18901 375.08764 463.28125 386.59375 C 453.33512 387.82963 443.37382 389.12402 433.4375 390.4375 C 433.85387 379.5264 434.35476 368.62117 434.84375 357.71875 C 445.26852 355.54007 455.76609 353.67051 466.28125 352.09375 z M 458.34375 472.875 C 457.82609 488.04795 457.50491 503.24364 457.40625 518.4375 C 457.38853 535.49429 457.93035 552.50479 458.78125 569.53125 C 443.50893 571.51382 428.23392 573.55397 412.96875 575.59375 C 429.64182 568.83803 443.03356 559.69035 440.59375 552.28125 C 435.84215 542.66465 438.3404 548.96735 435.3125 532.71875 C 433.58313 513.96078 432.6703 495.14519 432.28125 476.34375 C 440.96186 475.13947 449.65033 473.97627 458.34375 472.875 z M 347.625 489.25 C 347.92191 505.98594 348.5658 522.71383 349.6875 539.4375 C 353.5537 567.0691 350.6983 553.7402 358 579.5 C 358.4164 580.7645 359.25148 581.77475 360.40625 582.59375 C 352.94835 583.59007 345.49058 584.60799 338.03125 585.59375 C 327.19089 586.9733 316.35208 588.3984 305.5 589.78125 C 295.91965 560.92191 290.91403 530.79786 286.0625 500.75 C 306.48995 496.44878 327.03619 492.69345 347.625 489.25 z M 373.40625 680.125 C 371.83479 680.15034 370.45946 680.60333 369.34375 681.53125 C 341.96685 706.57385 316.6833 733.77315 291.6875 761.15625 C 269.4544 786.41705 246.5536 811.452 228.75 840.125 C 219.4212 856.143 294.95245 900.11175 304.28125 884.09375 C 316.27505 859.38575 338.75685 840.695 355.28125 819.25 C 377.61565 794.825 400.13815 770.36645 425.34375 748.84375 C 438.50914 737.89427 391.9495 679.82603 373.40625 680.125 z M 632.9375 722.8125 C 612.97503 722.61017 560.74424 768.49938 571.34375 781.21875 C 592.70435 804.36055 619.0859 821.86375 644.875 839.59375 C 662.9552 852.75575 683.5094 864.1555 696.75 882.6875 C 708.2997 897.1215 776.3621 842.684 764.8125 828.25 C 744.7121 804.183 720.29485 785.16765 693.96875 768.21875 C 674.75235 754.99205 654.71995 742.229 638.65625 725.125 C 637.35456 723.56297 635.38903 722.83735 632.9375 722.8125 z "
     id="path22079" />
</svg>
