<?xml version="1.0" encoding="UTF-8" standalone="no"?>
<svg
   xmlns:dc="http://purl.org/dc/elements/1.1/"
   xmlns:cc="http://creativecommons.org/ns#"
   xmlns:rdf="http://www.w3.org/1999/02/22-rdf-syntax-ns#"
   xmlns:svg="http://www.w3.org/2000/svg"
   xmlns="http://www.w3.org/2000/svg"
   xmlns:sodipodi="http://sodipodi.sourceforge.net/DTD/sodipodi-0.dtd"
   xmlns:inkscape="http://www.inkscape.org/namespaces/inkscape"
   width="1024"
   height="1024"
   id="U5171"
   version="1.1"
   inkscape:version="0.48.0 r9654"
   sodipodi:docname="U+5171.svg">
  <metadata
     id="metadata13">
    <rdf:RDF>
      <cc:Work
         rdf:about="">
        <dc:format>image/svg+xml</dc:format>
        <dc:type
           rdf:resource="http://purl.org/dc/dcmitype/StillImage" />
      </cc:Work>
    </rdf:RDF>
  </metadata>
  <defs
     id="defs11" />
  <sodipodi:namedview
     pagecolor="#ffffff"
     bordercolor="#666666"
     borderopacity="1"
     objecttolerance="10"
     gridtolerance="10"
     guidetolerance="10"
     inkscape:pageopacity="0"
     inkscape:pageshadow="2"
     inkscape:window-width="640"
     inkscape:window-height="480"
     id="namedview9"
     showgrid="false"
     inkscape:zoom="0.27441406"
     inkscape:cx="512"
     inkscape:cy="512"
     inkscape:window-x="0"
     inkscape:window-y="25"
     inkscape:window-maximized="0"
     inkscape:current-layer="U5171" />
  <path
     style="fill:#550000;fill-opacity:1;fill-rule:nonzero;stroke:#f9f9f9;stroke-width:0.1;stroke-miterlimit:4;stroke-dasharray:none"
     d="M 560.0625 172.375 C 535.75739 172.16093 508.24805 177.98738 508.71875 188.4375 C 511.19442 227.07482 512.76568 265.77511 514.03125 304.46875 C 486.09402 307.34347 458.1417 310.07971 430.15625 312.4375 C 428.57265 271.0215 426.6841 229.54775 427.25 188.09375 C 427.5358 169.51975 339.9732 168.176 339.6875 186.75 C 340.9024 229.818 342.91955 272.86225 344.78125 315.90625 C 344.81708 316.89684 344.86871 317.88446 344.90625 318.875 C 311.9549 321.29619 279.01149 323.73397 246.0625 326.1875 C 227.6019 328.0965 236.6019 415.12875 255.0625 413.21875 C 287.0625 409.3852 319.16308 406.45755 351.28125 403.78125 C 353.86762 424.58192 357.37085 445.25001 362.21875 465.71875 C 364.30915 471.65375 366.4097 477.59625 368.5 483.53125 C 375.0687 500.74025 456.1937 469.7715 449.625 452.5625 C 448.4476 449.9365 447.27115 447.3135 446.09375 444.6875 C 441.82019 428.90013 438.79709 412.89279 436.59375 396.75 C 462.85456 394.43474 489.11152 391.86898 515.34375 389.25 C 515.45013 421.2667 515.20976 453.29886 514.8125 485.3125 C 514.4325 500.47461 514.27602 515.64302 514.0625 530.8125 C 461.91435 532.00252 409.75543 532.47384 357.59375 533.21875 C 308.42115 534.58275 259.13395 536.1915 210.34375 542.9375 C 192.03605 546.0345 206.6298 632.346 224.9375 629.25 C 269.5614 621.217 315.0393 619.711 360.25 618.125 C 428.1509 616.74 496.0474 616.3785 563.9375 614.4375 C 611.9835 612.6145 660.0419 610.27275 708.125 611.71875 C 720.6267 613.01075 733.61845 611.86825 745.90625 614.90625 C 764.22665 617.91225 778.41415 531.53725 760.09375 528.53125 C 743.45275 526.25225 726.69985 525.5835 709.90625 525.3125 C 673.22527 524.85598 636.60004 526.16656 599.96875 527.78125 C 599.96251 513.87312 599.96916 499.96832 600.1875 486.0625 C 600.37797 450.99226 600.52045 415.91517 600.375 380.84375 C 606.18778 380.28721 611.99808 379.72686 617.8125 379.1875 C 640.7346 377.2045 663.6513 375.20625 686.625 373.90625 C 694.7352 373.44725 704.45325 372.25225 712.65625 373.78125 C 731.21275 374.78425 735.9315 287.28425 717.375 286.28125 C 681.2937 285.67925 645.43525 291.883 609.53125 294.5 C 606.10144 294.85149 602.67947 295.20708 599.25 295.5625 C 598.31082 258.54255 597.00237 221.52479 596.28125 184.5 C 595.91511 176.37213 578.96647 172.5415 560.0625 172.375 z M 368.8125 647.15625 C 366.36141 647.24053 364.38895 648.00005 363.125 649.59375 C 346.2744 672.56875 328.5081 694.854 310.4375 716.875 C 290.9067 740.406 271.2706 763.85675 254.6875 789.59375 C 245.8158 807.06475 249.65375 797.4595 243.78125 818.6875 C 240.75456 835.58043 314.07304 850.0344 327.90625 837.75 C 328.07923 837.22233 328.26886 836.69581 328.5625 835.78125 C 342.3158 812.67925 360.606 792.72825 377.3125 771.78125 C 395.7227 749.39825 413.713 726.6945 431.8125 704.0625 C 442.10456 691.0852 388.7714 646.46998 368.8125 647.15625 z M 327.90625 837.75 C 327.35275 839.43841 327.44805 839.27549 328.5 837.15625 C 328.31658 837.35696 328.11804 837.56192 327.90625 837.75 z M 611.59375 708.5 C 593.0324 707.9439 545.62711 765.44828 558.65625 776.59375 C 580.95625 795.45575 605.02215 811.9315 629.40625 827.9375 C 656.62805 845.7005 684.764 862.045 712.5625 878.875 C 725.1823 886.797 719.1549 882.9425 730.625 890.4375 C 746.1969 900.4065 793.1969 827.00125 777.625 817.03125 C 764.492 808.77425 771.31245 812.988 757.15625 804.375 C 730.25845 788.449 703.1492 772.80425 677 755.65625 C 655.7084 741.59125 634.4809 727.26275 615.625 709.96875 C 614.52084 709.0243 613.16675 708.54713 611.59375 708.5 z M 330.03125 834.125 C 329.37753 835.39224 328.91997 836.31098 328.53125 837.09375 C 329.31526 836.21911 329.83042 835.24588 330.03125 834.125 z "
     id="path23873" />
</svg>
