<?xml version="1.0" encoding="UTF-8" standalone="no"?>
<svg
   xmlns:dc="http://purl.org/dc/elements/1.1/"
   xmlns:cc="http://creativecommons.org/ns#"
   xmlns:rdf="http://www.w3.org/1999/02/22-rdf-syntax-ns#"
   xmlns:svg="http://www.w3.org/2000/svg"
   xmlns="http://www.w3.org/2000/svg"
   xmlns:sodipodi="http://sodipodi.sourceforge.net/DTD/sodipodi-0.dtd"
   xmlns:inkscape="http://www.inkscape.org/namespaces/inkscape"
   width="1024"
   height="1024"
   id="U5174"
   version="1.1"
   inkscape:version="0.48.0 r9654"
   sodipodi:docname="U+5174.svg">
  <metadata
     id="metadata13">
    <rdf:RDF>
      <cc:Work
         rdf:about="">
        <dc:format>image/svg+xml</dc:format>
        <dc:type
           rdf:resource="http://purl.org/dc/dcmitype/StillImage" />
      </cc:Work>
    </rdf:RDF>
  </metadata>
  <defs
     id="defs11" />
  <sodipodi:namedview
     pagecolor="#ffffff"
     bordercolor="#666666"
     borderopacity="1"
     objecttolerance="10"
     gridtolerance="10"
     guidetolerance="10"
     inkscape:pageopacity="0"
     inkscape:pageshadow="2"
     inkscape:window-width="640"
     inkscape:window-height="480"
     id="namedview9"
     showgrid="false"
     inkscape:zoom="0.27441406"
     inkscape:cx="512"
     inkscape:cy="512"
     inkscape:window-x="0"
     inkscape:window-y="25"
     inkscape:window-maximized="0"
     inkscape:current-layer="U5174" />
  <path
     style="fill:#916f6f;fill-opacity:1;fill-rule:nonzero;stroke:#f9f9f9;stroke-width:0.1;stroke-miterlimit:4;stroke-dasharray:none"
     d="M 771.5625 236.53125 C 768.57549 236.61727 766.29211 237.5345 764.96875 239.46875 C 744.99595 269.43975 722.75885 297.83175 700.15625 325.84375 C 681.32715 349.44575 660.8291 371.57675 639.8125 393.21875 C 627.0261 406.44175 689.36995 466.69175 702.15625 453.46875 C 724.84065 429.91875 747.0354 405.9185 767.5625 380.4375 C 791.7738 350.6735 815.35725 320.423 837.90625 289.375 C 847.16979 275.83613 792.47155 235.92913 771.5625 236.53125 z M 286.9375 277.59375 C 262.44367 277.63309 211.21041 300.91278 216.65625 314.84375 C 229.74665 346.76275 247.10725 376.548 265.90625 405.375 C 279.99185 426.866 297.0126 445.92825 315.125 464.03125 C 328.3837 477.03925 389.72745 414.53925 376.46875 401.53125 C 362.49385 388.18025 349.5864 373.8545 338.875 357.6875 C 323.3298 333.9575 308.7942 309.398 299.0625 282.625 C 297.67434 279.07397 293.18102 277.58372 286.9375 277.59375 z M 493.96875 290 C 472.26454 290.54769 419.18527 328.65281 428.125 342.0625 C 446.8126 367.8355 466.13 393.133 485.6875 418.25 C 500.4297 436.479 492.9529 427.4995 508.125 445.1875 C 520.2449 459.2285 586.4324 402.1025 574.3125 388.0625 C 561.1436 372.9205 567.7088 380.73275 554.5625 364.59375 C 536.3302 341.19575 518.1863 317.666 501.6875 293 C 500.22462 290.80569 497.52035 289.91038 493.96875 290 z M 844.25 495.71875 C 829.2984 496.15275 837.1581 495.9265 820.6875 496.4375 C 774.3319 497.1815 727.9733 497.41175 681.625 498.59375 C 606.9494 500.86775 532.3831 505.743 458.1875 514.75 C 385.3665 522.797 312.5953 531.5945 239.5 536.8125 C 201.7141 539.1965 163.84795 542.04075 125.96875 541.34375 C 107.21485 540.54875 103.46485 628.955 122.21875 629.75 C 163.36045 629.179 204.4209 625.8695 245.4375 622.8125 C 319.6651 616.6685 393.58655 607.38375 467.59375 599.09375 C 539.41115 590.28175 611.575 585.991 683.875 584.375 C 729.6717 583.605 775.48035 583.74375 821.28125 583.84375 C 838.67005 583.70375 830.5927 583.74 845.5 583.75 C 864.1706 583.482 862.9206 495.45075 844.25 495.71875 z M 323.1875 673.34375 C 321.18298 673.43558 319.53836 674.053 318.34375 675.34375 C 294.57125 702.95075 276.5449 734.70375 259.5 766.71875 C 244.4054 796.13675 231.0374 826.3955 217.25 856.4375 C 215.8647 859.6485 214.47895 862.88275 213.09375 866.09375 C 205.90795 883.35475 287.2518 917.22975 294.4375 899.96875 C 295.4455 897.43075 296.46085 894.88275 297.46875 892.34375 C 309.87755 863.86175 322.2471 835.309 336.375 807.625 C 349.8446 782.285 363.82765 756.8305 383.21875 735.4375 C 394.76664 722.96116 342.5645 672.4561 323.1875 673.34375 z M 633.53125 700.875 C 612.59469 701.47075 560.18303 744.49663 570.21875 757.5 C 596.19195 790.332 628.23795 817.30925 660.90625 843.15625 C 694.86025 869.23325 730.948 892.45825 762.8125 921.15625 C 765.3458 923.79925 767.9043 926.45075 770.4375 929.09375 C 783.5945 942.23875 845.56315 880.2085 832.40625 867.0625 C 828.42875 863.2005 824.44635 859.33175 820.46875 855.46875 C 786.86445 826.57075 750.03745 801.995 714.65625 775.375 C 687.63205 753.877 660.67185 731.6285 640.28125 703.4375 C 638.84758 701.57975 636.52219 700.78989 633.53125 700.875 z "
     id="path12393" />
</svg>
