<?xml version="1.0" encoding="utf-8" ?>

<!DOCTYPE svg PUBLIC "-//W3C//DTD SVG 1.1//EN" 
  "http://www.w3.org/Graphics/SVG/1.1/DTD/svg11.dtd">
<svg 
    xmlns="http://www.w3.org/2000/svg"
    xmlns:xlink="http://www.w3.org/1999/xlink"
    xmlns:sodipodi="http://sodipodi.sourceforge.net/DTD/sodipodi-0.dtd"
    xmlns:inkscape="http://www.inkscape.org/namespaces/inkscape"
    width="1024" height="1024" id="U514B">
<path d="m 11517.992,26871.716 c 26.436,1.197 52.905,-0.463 79.286,-2.098 32.564,-2.181 65.113,-4.557 97.69,-6.556 26.247,-1.658 52.515,-2.804 78.804,-3.485 18.456,-0.01 36.801,-1.952 55.125,-3.906 17.222,-1.753 34.427,-3.652 51.66,-5.295 5.131,-0.311 10.232,-0.934 15.329,-1.577 18.689,-2.097 28.576,86 9.887,88.097 l 0,0 c -5.752,0.586 -11.507,1.167 -17.281,1.49 -16.79,1.424 -33.539,3.24 -50.3,4.96 -20.732,2.186 -41.5,4.206 -62.374,4.165 -25.238,0.517 -50.457,1.475 -75.659,2.94 -32.47,1.864 -64.907,4.175 -97.352,6.434 -28.99,1.874 -58.02,3.529 -87.084,3.306 -18.768,-0.481 -16.5,-88.956 2.269,-88.475 z" id="path8816" inkscape:connector-curvature="0" style="fill:#2b0000;fill-opacity:1;fill-rule:nonzero;stroke:#f9f9f9;stroke-width:0.1;stroke-miterlimit:4;stroke-dasharray:none" transform="translate(-11264, -26624)"/><path d="m 11759.942,26819.723 c -5.201,23.288 -7.759,47.03 -9.901,70.758 -1.814,23.289 -2.477,46.645 -3.788,69.964 -0.968,17.843 -3.348,35.584 -3.836,53.452 -0.289,7.95 1.33,15.619 3.519,23.195 1.237,4.395 2.273,8.841 3.318,13.284 4.178,18.357 -82.358,38.053 -86.536,19.696 l 0,0 c -0.721,-3.322 -1.444,-6.645 -2.356,-9.922 -4.193,-16.124 -6.853,-32.573 -6.153,-49.306 0.734,-18.576 2.774,-37.041 4.158,-55.575 1.501,-24.267 2.291,-48.58 4.351,-72.811 2.499,-26.767 5.577,-53.475 10.362,-79.943 3.651,-18.426 90.513,-1.218 86.862,17.208 z" id="path8818" inkscape:connector-curvature="0" style="fill:#2b0000;fill-opacity:1;fill-rule:nonzero;stroke:#f9f9f9;stroke-width:0.1;stroke-miterlimit:4;stroke-dasharray:none" transform="translate(-11264, -26624)"/><path d="m 11622.828,27114.803 c 3.641,22.845 9.533,45.264 15.424,67.611 4.867,18.957 10.394,37.727 16.427,56.343 3.228,8.625 5.148,17.728 8.432,26.328 -0.04,-0.208 -0.08,-0.417 -0.12,-0.625 -1.405,-2.704 -2.811,-5.407 -4.217,-8.111 10.89,15.421 -61.802,66.756 -72.691,51.336 l 0,0 c -6.309,-11.365 -4.219,-6.427 -7.188,-14.39 -2.956,-9.274 -5.445,-18.693 -8.489,-27.942 -6.181,-20.071 -11.786,-40.308 -17.005,-60.651 -6.537,-24.974 -12.95,-50 -17.911,-75.343 -3.088,-18.527 84.25,-33.083 87.338,-14.556 z" id="path8820" inkscape:connector-curvature="0" style="fill:#2b0000;fill-opacity:1;fill-rule:nonzero;stroke:#f9f9f9;stroke-width:0.1;stroke-miterlimit:4;stroke-dasharray:none" transform="translate(-11264, -26624)"/><path d="m 11586.365,27033.639 c 23.507,-7.693 47.269,-14.545 71.135,-21.023 30.033,-7.731 60.647,-12.907 91.174,-18.248 25.362,-4.621 51.086,-6.288 76.826,-6.25 27.459,0.18 43.442,5.771 63.165,25.399 11.992,16.333 13.488,35.015 12.966,54.455 -0.368,18.081 -3.202,35.919 -6.724,53.613 -5.212,23.113 -10.705,46.162 -15.97,69.265 -3.778,16.707 -8.349,33.218 -12.394,49.86 -1.11,6.561 -3.533,13.082 -3.723,19.785 0.122,1.205 0.308,0.392 1.1,5.969 1.509,8.711 0.9,17.264 -0.292,25.961 -3.813,18.478 -90.92,0.503 -87.107,-17.975 l 0,0 c -0.322,3.334 -0.399,10.677 -0.614,4.135 -1.12,-8.822 -2.728,-17.649 -1.449,-26.58 1.198,-11.04 3.528,-21.881 6.278,-32.638 4.094,-16.124 8.63,-32.133 12.498,-48.314 5.183,-22.133 10.406,-44.261 15.219,-66.477 2.492,-12.869 4.567,-25.828 4.636,-38.977 0.363,-13.567 0.319,-2.753 6.614,3.769 9.849,8.187 23.612,9.636 5.015,6.96 -20.442,-0.378 -40.887,0.735 -61.048,4.355 -27.811,4.796 -55.698,9.497 -83.048,16.533 -22.121,6.09 -44.241,12.322 -65.787,20.25 -17.782,6.039 -46.252,-77.788 -28.47,-83.827 z" id="path8822" inkscape:connector-curvature="0" style="fill:#2b0000;fill-opacity:1;fill-rule:nonzero;stroke:#f9f9f9;stroke-width:0.1;stroke-miterlimit:4;stroke-dasharray:none" transform="translate(-11264, -26624)"/><path d="m 11558.459,27250.274 c 27.619,-7.001 55.983,-10.051 84.239,-13.148 26.84,-3.076 53.864,-2.681 80.823,-3.216 16.794,-0.04 33.391,-2.182 49.884,-5.128 13.031,-2.708 26.162,-4.464 39.478,-4.221 11.519,1.131 4.523,-0 20.67,4.995 17.052,8.096 -21.111,88.482 -38.163,80.386 l 0,0 c 12.576,3.51 7.734,3.215 14.162,3.35 -6.686,-1.835 -14.479,2.635 -21.144,2.511 -20.976,3.507 -42.093,5.985 -63.399,6.033 -24.273,0.345 -48.607,-0.195 -72.784,2.42 -23.627,2.576 -47.503,4.751 -70.423,11.365 -18.105,4.952 -41.447,-80.395 -23.343,-85.347 z" id="path8824" inkscape:connector-curvature="0" style="fill:#2b0000;fill-opacity:1;fill-rule:nonzero;stroke:#f9f9f9;stroke-width:0.1;stroke-miterlimit:4;stroke-dasharray:none" transform="translate(-11264, -26624)"/><path d="m 11684.055,27349.346 c -19.332,20.462 -37.089,42.351 -54.069,64.782 -16.945,22.433 -29.907,47.358 -42.589,72.332 -8.709,18.212 -19.518,35.251 -30.68,52.025 -4.938,4 -13.63,26.201 -6.022,6.101 -4.048,18.424 -90.9,-0.661 -86.851,-19.084 l 0,0 c 4.424,-13.459 10.741,-25.153 19.538,-36.292 9.399,-13.841 18.587,-27.86 25.94,-42.929 15.274,-29.31 31.013,-58.465 51.002,-84.915 18.828,-24.847 38.561,-48.979 59.11,-72.426 12.814,-13.708 77.435,46.698 64.621,60.406 z" id="path8834" inkscape:connector-curvature="0" style="fill:#2b0000;fill-opacity:1;fill-rule:nonzero;stroke:#f9f9f9;stroke-width:0.1;stroke-miterlimit:4;stroke-dasharray:none" transform="translate(-11264, -26624)"/><path d="m 11810.242,27314.498 c -3.448,20.343 -4.864,40.948 -5.589,61.544 -0.433,21.405 0.446,42.805 1.14,64.194 0.868,12.138 0.156,24.949 4.822,36.429 1.046,1.585 1.854,1.157 2.762,0.341 9.513,0.726 18.837,-0.795 28.202,-2.301 26.74,-5.737 53.82,-9.093 81.022,-11.624 22.023,-1.416 43.845,-4.394 65.499,-8.559 17.463,-3.326 34.504,-8.372 51.436,-13.704 8.992,-3.045 18.317,-6.044 25.522,-12.468 8.672,-9.94 1.936,-2.537 -0.552,5.11 0.208,15.358 -3.094,1.989 -5.949,-4.358 -7.753,-17.071 72.717,-53.616 80.47,-36.546 l 0,0 c 7.435,16.241 14.859,32.342 13.599,50.77 -4.602,22.964 -14.894,41.032 -33.819,55.263 -16.119,11.874 -33.689,20.941 -53.023,26.451 -20.171,6.227 -40.486,12.042 -61.259,15.935 -24.443,4.595 -49.062,7.949 -73.9,9.528 -25.336,2.29 -50.514,5.469 -75.379,10.996 -28.266,4.39 -56.856,6.4 -83.436,-6.402 -20.767,-11.832 -37.081,-27.574 -45.162,-50.647 -6.225,-20.007 -8.734,-40.578 -8.845,-61.536 -0.663,-23.375 -1.593,-46.76 -1.03,-70.147 0.932,-23.891 2.839,-47.723 5.936,-71.437 2.793,-18.569 90.326,-5.4 87.533,13.168 z" id="path8836" inkscape:connector-curvature="0" style="fill:#2b0000;fill-opacity:1;fill-rule:nonzero;stroke:#f9f9f9;stroke-width:0.1;stroke-miterlimit:4;stroke-dasharray:none" transform="translate(-11264, -26624)"/></svg>