<?xml version="1.0" encoding="utf-8" ?>

<!DOCTYPE svg PUBLIC "-//W3C//DTD SVG 1.1//EN" 
  "http://www.w3.org/Graphics/SVG/1.1/DTD/svg11.dtd">
<svg 
    xmlns="http://www.w3.org/2000/svg"
    xmlns:xlink="http://www.w3.org/1999/xlink"
    xmlns:sodipodi="http://sodipodi.sourceforge.net/DTD/sodipodi-0.dtd"
    xmlns:inkscape="http://www.inkscape.org/namespaces/inkscape"
    width="1024" height="1024" id="U516D">
<path d="m 11762.872,30959.242 c 18.222,16.4 36.063,33.215 53.989,49.935 14.616,13.26 28.887,26.257 39.751,42.799 9.206,16.41 -68.153,59.808 -77.359,43.397 l 0,0 c 10.808,12.631 -20.911,-22.579 -22.542,-22.105 -16.835,-15.9 -33.562,-31.964 -51.37,-46.782 -14.264,-12.204 43.267,-79.448 57.531,-67.244 z" id="path10246" inkscape:connector-curvature="0" style="fill:#2b0000;fill-opacity:1;fill-rule:nonzero;stroke:#f9f9f9;stroke-width:0.1;stroke-miterlimit:4;stroke-dasharray:none" transform="translate(-11264, -30720)"/><path d="m 11486.666,31154.725 c 37.521,4.201 75.36,0.575 112.817,-2.504 66.541,-6.65 133.205,-11.563 200.008,-14.522 54.528,-1.988 109.098,-1.807 163.652,-1.654 31.169,-0.37 62.331,0.419 93.496,0.706 14.793,-0.954 27.752,2.065 41.674,6.709 17.026,8.053 -20.936,88.316 -37.962,80.263 l 0,0 c 21.84,5.399 -0.887,-0.357 -5.342,1.032 -30.822,-0.842 -61.641,-1.974 -92.482,-1.868 -53.121,-0.605 -106.262,-1.22 -159.371,0.484 -65.553,2.7 -130.957,7.574 -196.187,14.698 -43.422,3.99 -87.117,8.088 -130.729,4.534 -18.642,-2.211 -8.215,-90.089 10.426,-87.878 z" id="path10248" inkscape:connector-curvature="0" style="fill:#2b0000;fill-opacity:1;fill-rule:nonzero;stroke:#f9f9f9;stroke-width:0.1;stroke-miterlimit:4;stroke-dasharray:none" transform="translate(-11264, -30720)"/><path d="m 11730.536,31311.655 c -18.792,26.87 -33.116,56.458 -46.661,86.211 -16.633,37.386 -28.835,76.449 -39.116,115.986 -4.577,17.961 -8.335,36.112 -12.388,54.195 -4.357,18.237 -90.326,-2.303 -85.969,-20.54 l 0,0 c 4.781,-18.694 8.997,-37.531 14.058,-56.155 12.015,-43.988 25.896,-87.497 44.333,-129.274 15.618,-34.695 32.34,-68.954 53.122,-100.911 10.71,-15.406 83.331,35.083 72.621,50.488 z" id="path10250" inkscape:connector-curvature="0" style="fill:#2b0000;fill-opacity:1;fill-rule:nonzero;stroke:#f9f9f9;stroke-width:0.1;stroke-miterlimit:4;stroke-dasharray:none" transform="translate(-11264, -30720)"/><path d="m 11886.775,31263.558 c 29.178,20.741 53.442,47.204 76.856,74.039 26.962,32.769 53.348,66.005 80.194,98.872 19.315,23.627 38.998,47.102 51.702,75.021 7.067,17.355 -74.746,50.669 -81.813,33.314 l 0,0 c 0.09,-11.916 -31.52,-42.632 -37.509,-53.415 -25.988,-32.181 -51.687,-64.602 -78.093,-96.441 -18.153,-20.66 -36.702,-41.527 -59.547,-57.161 -15.746,-10.227 32.464,-84.456 48.21,-74.229 z" id="path10252" inkscape:connector-curvature="0" style="fill:#2b0000;fill-opacity:1;fill-rule:nonzero;stroke:#f9f9f9;stroke-width:0.1;stroke-miterlimit:4;stroke-dasharray:none" transform="translate(-11264, -30720)"/></svg>