<?xml version="1.0" encoding="utf-8" ?>

<!DOCTYPE svg PUBLIC "-//W3C//DTD SVG 1.1//EN" 
  "http://www.w3.org/Graphics/SVG/1.1/DTD/svg11.dtd">
<svg 
    xmlns="http://www.w3.org/2000/svg"
    xmlns:xlink="http://www.w3.org/1999/xlink"
    xmlns:sodipodi="http://sodipodi.sourceforge.net/DTD/sodipodi-0.dtd"
    xmlns:inkscape="http://www.inkscape.org/namespaces/inkscape"
    width="1024" height="1024" id="U5168">
<path d="m 9709.6931,40213.852 c -31.8561,16.949 -57.431,42.839 -82.1201,68.639 -41.1391,45.136 -76.2606,95.225 -110.2467,145.827 -22.8105,35.116 -45.7998,70.359 -63.3677,108.461 -0.2706,0.27 -8.2666,26.249 -4.812,16.667 0.4508,18.756 -87.9672,20.881 -88.4179,2.125 l 0,0 c 0.8987,-20.006 4.8066,-38.589 14.2441,-56.537 20.3739,-41.513 45.5515,-80.347 71.1856,-118.774 36.9092,-54.376 74.8182,-108.316 118.9123,-157.198 31.1501,-32.94 63.7768,-65.022 103.5942,-87.479 16.6034,-8.704 57.6317,69.565 41.0282,78.269 z" id="path11409" inkscape:connector-curvature="0" style="fill:#a02c2c;fill-opacity:1;fill-rule:nonzero;stroke:#f9f9f9;stroke-width:0.1;stroke-miterlimit:4;stroke-dasharray:none" transform="translate(-9216, -39936)"/><path d="m 9703.7568,40130.475 c 34.8368,20.017 68.8049,41.419 102.3729,63.485 52.6273,35.612 105.3085,71.15 157.6602,107.166 42.5801,28.646 83.0501,60.147 116.2061,99.47 13.042,15.423 19.018,32.801 24.112,51.874 3.799,18.29 -82.42,36.202 -86.22,17.912 l 0,0 c 3.014,-3.645 -4.713,-12.106 -5.466,-14.456 -26.6762,-34.117 -62.317,-59.344 -97.4151,-84.147 -51.5809,-35.747 -103.6235,-70.827 -155.9193,-105.518 -32.6785,-21.033 -65.677,-41.597 -100.1944,-59.518 -16.179,-9.517 28.6847,-85.785 44.8636,-76.268 z" id="path11411" inkscape:connector-curvature="0" style="fill:#a02c2c;fill-opacity:1;fill-rule:nonzero;stroke:#f9f9f9;stroke-width:0.1;stroke-miterlimit:4;stroke-dasharray:none" transform="translate(-9216, -39936)"/><path d="m 9531.2935,40432.294 c 37.1749,-4.877 73.9313,-12.466 110.8335,-19.026 45.8222,-8.305 92.009,-14.221 138.5189,-16.556 14.8221,-0.955 29.5026,0.144 44.195,1.888 18.5083,2.673 5.9086,89.922 -12.5997,87.249 l 0,0 c -9.1961,-1.936 -18.5292,-2.128 -27.921,-1.935 -42.6051,1.388 -84.8931,6.809 -126.8021,14.559 -38.1792,7.009 -76.188,14.911 -114.4562,21.43 -18.5847,2.496 -30.3531,-85.113 -11.7684,-87.609 z" id="path11429" inkscape:connector-curvature="0" style="fill:#a02c2c;fill-opacity:1;fill-rule:nonzero;stroke:#f9f9f9;stroke-width:0.1;stroke-miterlimit:4;stroke-dasharray:none" transform="translate(-9216, -39936)"/><path d="m 9597.3757,40616.921 c 39.8077,-2.864 79.5025,-6.823 119.3513,-9.174 42.8514,-1.902 85.844,-1.698 128.5077,2.956 17.5948,3.052 9.2331,1.253 25.1192,5.238 18.044,4.993 -5.4949,90.053 -23.5389,85.06 l 0,0 c -6.9229,-2.378 -2.902,-1.177 -12.1598,-3.258 -37.3137,-5.155 -75.126,-5.151 -112.7067,-3.674 -40.083,2.489 -79.9799,6.718 -119.8909,11.14 -18.7287,0.993 -23.4106,-87.295 -4.6819,-88.288 z" id="path11431" inkscape:connector-curvature="0" style="fill:#a02c2c;fill-opacity:1;fill-rule:nonzero;stroke:#f9f9f9;stroke-width:0.1;stroke-miterlimit:4;stroke-dasharray:none" transform="translate(-9216, -39936)"/><path d="m 9760.7154,40447.972 c -5.9639,37.676 -7.65,75.881 -9.6303,113.925 -2.5086,58.515 -4.0417,117.067 -5.4428,175.617 -0.4856,21.979 -1.002,43.957 -1.5376,65.934 -0.5804,18.467 -87.6329,15.731 -87.0526,-2.736 l 0,0 c 0.843,-21.855 1.6294,-43.712 2.2849,-65.574 1.8385,-59.099 3.6213,-118.2 5.6561,-177.292 1.7247,-40.847 3.3356,-81.759 8.0995,-122.391 2.6554,-18.588 90.2782,-6.07 87.6228,12.517 z" id="path11433" inkscape:connector-curvature="0" style="fill:#a02c2c;fill-opacity:1;fill-rule:nonzero;stroke:#f9f9f9;stroke-width:0.1;stroke-miterlimit:4;stroke-dasharray:none" transform="translate(-9216, -39936)"/><path d="m 9497.0722,40803.036 c 52.7482,-11.417 106.5489,-16.922 160.189,-22.174 80.0775,-7.771 160.493,-8.975 240.8094,-5.432 48.5055,2.51 96.6451,8.675 144.0134,19.322 17.961,4.244 -2.042,88.913 -20.003,84.67 l 0,0 c -41.9696,-10.512 -84.8685,-16.141 -128.0459,-18.827 -76.0689,-3.872 -152.2645,-2.732 -228.0827,5.21 -48.7053,5.208 -97.7388,10.357 -145.3306,22.372 -18.0611,4.995 -41.6107,-80.145 -23.5496,-85.141 z" id="path11435" inkscape:connector-curvature="0" style="fill:#a02c2c;fill-opacity:1;fill-rule:nonzero;stroke:#f9f9f9;stroke-width:0.1;stroke-miterlimit:4;stroke-dasharray:none" transform="translate(-9216, -39936)"/></svg>