<?xml version="1.0" encoding="UTF-8" standalone="no"?>
<svg
   xmlns:dc="http://purl.org/dc/elements/1.1/"
   xmlns:cc="http://creativecommons.org/ns#"
   xmlns:rdf="http://www.w3.org/1999/02/22-rdf-syntax-ns#"
   xmlns:svg="http://www.w3.org/2000/svg"
   xmlns="http://www.w3.org/2000/svg"
   xmlns:sodipodi="http://sodipodi.sourceforge.net/DTD/sodipodi-0.dtd"
   xmlns:inkscape="http://www.inkscape.org/namespaces/inkscape"
   width="1024"
   height="1024"
   id="U51C6"
   version="1.1"
   inkscape:version="0.48.0 r9654"
   sodipodi:docname="U+51C6.svg">
  <metadata
     id="metadata17">
    <rdf:RDF>
      <cc:Work
         rdf:about="">
        <dc:format>image/svg+xml</dc:format>
        <dc:type
           rdf:resource="http://purl.org/dc/dcmitype/StillImage" />
      </cc:Work>
    </rdf:RDF>
  </metadata>
  <defs
     id="defs15" />
  <sodipodi:namedview
     pagecolor="#ffffff"
     bordercolor="#666666"
     borderopacity="1"
     objecttolerance="10"
     gridtolerance="10"
     guidetolerance="10"
     inkscape:pageopacity="0"
     inkscape:pageshadow="2"
     inkscape:window-width="640"
     inkscape:window-height="480"
     id="namedview13"
     showgrid="false"
     inkscape:zoom="0.27441406"
     inkscape:cx="512"
     inkscape:cy="512"
     inkscape:window-x="0"
     inkscape:window-y="25"
     inkscape:window-maximized="0"
     inkscape:current-layer="U51C6" />
  <path
     style="fill:#2b1100;fill-opacity:1;fill-rule:nonzero;stroke:none"
     d="M 521.75 185.71875 C 519.74218 185.72099 518.06427 186.29441 516.8125 187.53125 C 489.4036 216.71825 466.17695 249.47325 442.65625 281.78125 C 409.21845 327.64525 378.65545 375.42425 350.03125 424.40625 C 341.03615 440.00625 332.27695 455.74725 323.84375 471.65625 C 315.37305 488.22125 393.4668 528.15975 401.9375 511.59375 C 404.98651 505.36433 408.13841 499.17779 411.34375 493.03125 C 413.43875 507.54664 415.77458 522.03421 418.09375 536.5 C 428.16565 598.017 440.50355 659.11975 453.40625 720.09375 C 460.07755 752.03175 468.22185 783.63475 477.28125 814.96875 C 479.63551 822.81895 497.34278 822.24223 515.875 817.65625 C 510.11949 840.5182 523.50939 898.22887 538.59375 895.46875 C 588.67765 884.85975 638.6948 873.9615 688.875 863.8125 C 751.7458 850.6785 815.31765 841.40175 879.15625 834.59375 C 910.48135 832.32875 941.8523 828.0795 973.3125 828.1875 C 973.2448 828.3665 973.193 828.53975 973.125 828.71875 C 991.7718 830.87575 1001.928 742.9695 983.28125 740.8125 L 971.21875 740 C 937.22535 741.42 903.37545 745.6715 869.53125 748.9375 C 803.37275 756.6995 737.4808 766.579 672.1875 779.875 C 631.74252 787.7793 591.41687 796.28811 550.875 803.6875 C 557.94208 799.15502 562.09933 794.30159 560.78125 789.90625 C 551.75235 760.98725 543.825 731.752 537.4375 702.125 C 524.61 642.812 512.66645 583.29225 503.53125 523.28125 C 498.52175 489.63925 492.947 455.81875 492.875 421.71875 C 492.80276 414.06114 478.04145 409.65555 460.59375 408.40625 C 476.89695 382.65277 494.07285 357.45126 512.3125 332.96875 C 533.36 304.60575 553.9273 275.47375 579 250.46875 C 591.10043 238.51259 541.15888 185.69707 521.75 185.71875 z M 708.65625 187.5625 C 685.48187 188.43556 633.34717 219.4452 640.6875 233.125 C 657.8725 263.656 680.65365 290.35975 702.90625 317.21875 C 706.08795 321.20975 709.2557 325.1965 712.4375 329.1875 C 724.0596 343.6445 792.21585 288.86225 780.59375 274.40625 C 777.07165 270.05825 773.55325 265.69175 770.03125 261.34375 C 751.46325 239.12575 732.0224 217.19175 718.5625 191.34375 C 717.03903 188.50455 713.46603 187.3813 708.65625 187.5625 z M 233.03125 284.875 C 209.15083 284.94452 156.81401 311.00756 162.9375 324.96875 C 179.9923 359.78475 195.0645 395.5075 208.625 431.8125 C 211.2096 439.6885 213.7905 447.5615 216.375 455.4375 C 222.0801 472.8445 304.1426 445.9695 298.4375 428.5625 C 295.5146 419.6355 292.57915 410.70925 289.65625 401.78125 C 275.67865 363.82425 260.135 326.5005 243.9375 289.4375 C 242.52437 286.21569 238.54212 284.85896 233.03125 284.875 z M 815.03125 317.59375 C 806.00768 317.69553 797.03569 318.49525 787.96875 320.5 C 741.80255 328.87 696.30625 340.401 651.15625 353.125 C 613.11435 363.449 574.9479 374.067 535.75 379 C 517.1893 381.596 529.40805 469.096 547.96875 466.5 C 588.045 459.82047 627.32999 449.31749 666.46875 438.5625 C 666.74279 456.21484 667.23824 473.88245 667.8125 491.53125 C 643.42699 495.37486 619.21142 500.23824 595.53125 507.375 C 577.68825 513.174 605.00075 597.26775 622.84375 591.46875 C 638.45937 586.15838 654.51857 582.43761 670.71875 579.5 C 671.3003 598.1324 671.79974 616.76958 672.125 635.40625 C 642.98394 642.22762 613.75901 648.75284 584.25 653.75 C 565.6948 656.644 579.3198 744.11275 597.875 741.21875 C 622.76692 736.01055 647.57359 730.32884 672.3125 724.4375 L 671.84375 741 C 671.47745 759.409 758.2586 761.12775 758.625 742.71875 C 758.7213 735.09275 758.81025 727.47075 758.90625 719.84375 C 758.90758 714.24917 758.86924 708.65663 758.84375 703.0625 C 789.18466 695.45657 819.55886 687.98278 850.125 681.3125 C 861.5361 678.7235 873.05705 676.70575 884.65625 675.21875 C 903.13375 672.34975 889.6025 585.256 871.125 588.125 C 857.6345 590.484 844.1839 593.119 830.875 596.375 C 806.35829 602.12083 781.95025 608.20608 757.53125 614.34375 C 757.17413 599.43407 756.79002 584.53304 756.34375 569.625 C 764.48958 569.31663 772.65491 569.29904 780.8125 569.625 C 799.4368 570.016 801.2493 482.2035 782.625 481.8125 C 773.05682 481.73323 763.51577 481.94193 753.96875 482.375 C 753.52461 460.21739 753.39602 438.07065 754.15625 415.9375 C 770.28376 412.35889 786.48882 409.15622 802.8125 406.5 C 808.6908 406.947 819.73565 402.4075 825.65625 405.9375 C 844.22395 408.1795 854.78635 320.64825 836.21875 318.40625 C 829.08995 317.87994 822.04958 317.51458 815.03125 317.59375 z M 301.65625 584.15625 C 299.70237 584.16852 298.08695 584.72756 296.875 585.9375 C 268.1161 614.9075 238.5527 643.068 207.75 669.875 C 174.9495 698.685 142.82945 728.4515 108.40625 755.3125 C 93.41115 766.5975 146.59865 837.285 161.59375 826 C 196.80575 796.367 230.33785 764.788 264.65625 734.125 C 296.55835 705.996 327.49935 676.82325 357.71875 646.90625 C 369.4343 635.21019 320.54379 584.03761 301.65625 584.15625 z "
     id="path15585" />
</svg>
