<?xml version="1.0" encoding="UTF-8" standalone="no"?>
<svg
   xmlns:dc="http://purl.org/dc/elements/1.1/"
   xmlns:cc="http://creativecommons.org/ns#"
   xmlns:rdf="http://www.w3.org/1999/02/22-rdf-syntax-ns#"
   xmlns:svg="http://www.w3.org/2000/svg"
   xmlns="http://www.w3.org/2000/svg"
   xmlns:sodipodi="http://sodipodi.sourceforge.net/DTD/sodipodi-0.dtd"
   xmlns:inkscape="http://www.inkscape.org/namespaces/inkscape"
   width="1024"
   height="1024"
   id="U516C"
   version="1.1"
   inkscape:version="0.48.0 r9654"
   sodipodi:docname="U+516C.svg">
  <metadata
     id="metadata11">
    <rdf:RDF>
      <cc:Work
         rdf:about="">
        <dc:format>image/svg+xml</dc:format>
        <dc:type
           rdf:resource="http://purl.org/dc/dcmitype/StillImage" />
      </cc:Work>
    </rdf:RDF>
  </metadata>
  <defs
     id="defs9" />
  <sodipodi:namedview
     pagecolor="#ffffff"
     bordercolor="#666666"
     borderopacity="1"
     objecttolerance="10"
     gridtolerance="10"
     guidetolerance="10"
     inkscape:pageopacity="0"
     inkscape:pageshadow="2"
     inkscape:window-width="640"
     inkscape:window-height="480"
     id="namedview7"
     showgrid="false"
     inkscape:zoom="0.27441406"
     inkscape:cx="512"
     inkscape:cy="512"
     inkscape:window-x="0"
     inkscape:window-y="25"
     inkscape:window-maximized="0"
     inkscape:current-layer="U516C" />
  <path
     style="fill:#550000;fill-opacity:1;fill-rule:nonzero;stroke:#f9f9f9;stroke-width:0.1;stroke-miterlimit:4;stroke-dasharray:none"
     d="M 287.375 200.5625 C 284.92532 200.63018 282.99239 201.38489 281.71875 202.96875 C 257.24815 236.06775 235.87275 271.31525 214.84375 306.65625 C 186.61265 354.20925 161.44985 403.466 139.03125 454 C 126.10615 482.538 116.62695 511.53525 115.96875 542.90625 C 116.64795 561.42325 203.9291 558.23475 203.25 539.71875 C 197.503 539.07775 216.275 492.25825 217.6875 488.40625 C 238.0841 440.97225 261.57535 394.90625 288.21875 350.65625 C 307.44805 318.87925 326.81185 286.95975 349.96875 257.84375 C 360.33981 244.94661 307.32238 200.01139 287.375 200.5625 z M 587.28125 285.0625 C 564.29085 285.81042 512.41394 316.30016 519.625 329.90625 C 537.7242 360.47625 561.00825 387.52425 583.90625 414.53125 C 609.90765 444.52225 635.64865 474.7495 659.40625 506.5625 C 654.02015 504.3935 674.08615 522.5125 666.84375 522.3125 C 671.15475 540.3125 756.02965 519.96875 751.71875 501.96875 C 746.31095 484.46575 740.38935 468.54025 728.34375 454.28125 C 703.23425 421.65025 676.5823 390.25125 649.75 359.03125 C 630.9962 336.64325 611.58155 314.363 597.09375 288.875 C 595.59711 286.05109 592.05284 284.90727 587.28125 285.0625 z M 307.53125 430.75 C 298.99553 430.82394 292.7883 432.737 291.5625 437.21875 C 281.6055 475.85675 265.75795 512.6335 250.03125 549.1875 C 223.42285 609.0085 196.9623 668.89975 171.5 729.21875 C 156.2948 766.83475 139.95135 804.0185 126.15625 842.1875 C 115.14305 877.8255 125.29155 905.57525 163.84375 918.03125 C 175.07445 921.65925 191.8144 917.19625 203 915.03125 C 247.916 901.97725 293.0769 890.33075 338.9375 881.09375 C 398.5787 869.85375 459.09985 864.70175 519.59375 860.84375 C 557.61035 858.45475 595.7502 857.32075 633.6875 861.21875 C 640.60576 862.15057 647.55091 862.93839 654.4375 864.09375 C 665.77927 880.05261 677.327 895.84111 688.84375 911.65625 C 699.63405 926.32325 709.8434 941.42625 719.8125 956.65625 C 730.0347 971.92125 801.9722 923.73275 791.75 908.46875 C 780.7848 892.42175 769.66475 876.48025 758.03125 860.90625 C 728.49375 820.96025 698.6412 781.02075 674.3125 737.59375 C 659.608 710.01475 644.644 681.87725 638.125 651.03125 C 634.9397 632.71525 548.59585 647.71625 551.78125 666.03125 C 560.26612 703.92621 577.62012 738.78972 595.875 772.78125 C 568.53338 772.52079 541.18402 773.71075 513.875 775.71875 C 449.7666 780.21575 385.6456 785.9175 322.375 797.5625 C 290.4791 803.78909 258.8286 810.94147 227.34375 818.84375 C 234.80403 799.87658 242.58431 781.02541 250 762.0625 C 274.9422 701.9655 301.16755 642.456 328.15625 583.25 C 345.90125 543.012 363.3836 502.52675 376.0625 460.34375 C 379.7399 446.8985 333.13842 430.52819 307.53125 430.75 z M 208.625 870.09375 C 208.63806 874.29994 208.13794 875.68572 208.4375 870.65625 C 208.49886 870.46852 208.56346 870.28142 208.625 870.09375 z "
     id="path23859" />
</svg>
