<?xml version="1.0" encoding="utf-8" ?>

<!DOCTYPE svg PUBLIC "-//W3C//DTD SVG 1.1//EN" 
  "http://www.w3.org/Graphics/SVG/1.1/DTD/svg11.dtd">
<svg 
    xmlns="http://www.w3.org/2000/svg"
    xmlns:xlink="http://www.w3.org/1999/xlink"
    xmlns:sodipodi="http://sodipodi.sourceforge.net/DTD/sodipodi-0.dtd"
    xmlns:inkscape="http://www.inkscape.org/namespaces/inkscape"
    width="1024" height="1024" id="U51B3">
<path d="m 11462.551,25932.998 c 7.878,36.365 20.557,71.307 34.98,105.514 12.428,27.088 6.069,13.496 19.086,40.773 7.917,16.604 -70.355,53.925 -78.272,37.321 l 0,0 c -13.946,-29.273 -7.029,-14.474 -20.74,-44.404 -16.107,-38.218 -30.118,-77.193 -40.664,-117.346 -4.637,-18.16 80.973,-40.018 85.61,-21.858 z" id="path9825" inkscape:connector-curvature="0" style="fill:#2b0000;fill-opacity:1;fill-rule:nonzero;stroke:#f9f9f9;stroke-width:0.1;stroke-miterlimit:4;stroke-dasharray:none" transform="translate(-11264, -25600)"/><path d="m 11417.437,26364.099 c 28.746,-33.831 60.895,-64.488 92.934,-95.137 27.658,-26.244 13.944,-13.16 41.143,-39.249 13.205,-12.656 72.867,49.597 59.661,62.253 l 0,0 c -27.346,26.185 -13.679,13.13 -41.002,39.165 -29.226,28.274 -58.872,56.417 -83.94,88.561 -11.793,14.594 -80.589,-40.999 -68.796,-55.593 z" id="path9827" inkscape:connector-curvature="0" style="fill:#2b0000;fill-opacity:1;fill-rule:nonzero;stroke:#f9f9f9;stroke-width:0.1;stroke-miterlimit:4;stroke-dasharray:none" transform="translate(-11264, -25600)"/><path d="m 11662.536,26001.532 c 34.418,-5.378 68.871,-10.417 103.464,-14.538 36.541,-4.097 73.246,-6.953 110.028,-6.435 35.432,0.627 60.895,10.661 85.886,35.691 22.372,28.306 26.862,63.162 27.754,98.062 0.278,24.651 -5.782,48.092 -13.578,71.215 -6.154,17.55 -88.884,-11.46 -82.73,-29.01 l 0,0 c 4.923,-13.082 8.535,-26.438 8.664,-40.552 -0.103,-13.675 -1.052,-27.224 -5.316,-40.32 2.008,-7.195 -19.732,-6.806 -22.6,-7.446 -32.668,-1.056 -65.304,1.83 -97.769,5.264 -33.213,3.987 -66.344,8.707 -99.159,15.27 -18.498,3.107 -33.142,-84.094 -14.644,-87.201 z" id="path9829" inkscape:connector-curvature="0" style="fill:#2b0000;fill-opacity:1;fill-rule:nonzero;stroke:#f9f9f9;stroke-width:0.1;stroke-miterlimit:4;stroke-dasharray:none" transform="translate(-11264, -25600)"/><path d="m 11642.911,26244.04 c 43.51,-10.397 87.879,-16.575 132.145,-22.712 54.186,-7.54 108.68,-12.327 163.264,-15.738 34.824,-2.226 69.7,-2.808 104.581,-2.377 3.095,0 6.19,0 9.286,0 18.691,0.219 17.657,88.333 -1.034,88.114 l 0,0 c -3.371,-0.07 -6.741,-0.148 -10.111,-0.222 -32.549,-0.994 -65.107,-0.824 -97.631,1.007 -52.264,2.874 -104.447,7.234 -156.281,14.679 -40.521,5.835 -81.312,11.436 -120.821,22.435 -18.072,4.964 -41.47,-80.229 -23.398,-85.192 z" id="path9831" inkscape:connector-curvature="0" style="fill:#2b0000;fill-opacity:1;fill-rule:nonzero;stroke:#f9f9f9;stroke-width:0.1;stroke-miterlimit:4;stroke-dasharray:none" transform="translate(-11264, -25600)"/><path d="m 11895.078,25807.073 c -13.649,40.628 -22.236,82.795 -31.879,124.502 -19.253,83.194 -38.848,166.304 -57.094,249.726 -16.328,75.536 -30.236,151.563 -46.792,227.049 -6.361,29.284 -14.558,58.068 -24.461,86.332 -6.393,17.441 -88.606,-12.695 -82.214,-30.135 l 0,0 c 9.481,-24.448 16.828,-49.597 22.796,-75.137 17.459,-75.08 31.848,-150.816 48.164,-226.147 18.264,-83.571 37.699,-166.878 55.965,-250.449 9.795,-45.044 18.669,-90.403 31.866,-134.611 6.124,-17.744 89.773,11.126 83.649,28.87 z" id="path9833" inkscape:connector-curvature="0" style="fill:#2b0000;fill-opacity:1;fill-rule:nonzero;stroke:#f9f9f9;stroke-width:0.1;stroke-miterlimit:4;stroke-dasharray:none" transform="translate(-11264, -25600)"/><path d="m 11863.833,26275.851 c 1.961,25.038 17.716,45.116 33.312,63.566 31.206,32.43 67.163,59.783 101.462,88.798 15.754,13.172 30.391,27.541 44.827,42.114 12.936,13.275 -49.646,74.258 -62.582,60.983 l 0,0 c -12.293,-12.872 -24.854,-25.472 -38.466,-36.977 -37.953,-32.444 -78.043,-62.728 -112.1,-99.418 -28.223,-34.413 -52.2,-71.949 -54.874,-117.716 -0.286,-18.756 88.135,-20.106 88.421,-1.35 z" id="path9835" inkscape:connector-curvature="0" style="fill:#2b0000;fill-opacity:1;fill-rule:nonzero;stroke:#f9f9f9;stroke-width:0.1;stroke-miterlimit:4;stroke-dasharray:none" transform="translate(-11264, -25600)"/></svg>