<?xml version="1.0" encoding="UTF-8" standalone="no"?>
<svg
   xmlns:dc="http://purl.org/dc/elements/1.1/"
   xmlns:cc="http://creativecommons.org/ns#"
   xmlns:rdf="http://www.w3.org/1999/02/22-rdf-syntax-ns#"
   xmlns:svg="http://www.w3.org/2000/svg"
   xmlns="http://www.w3.org/2000/svg"
   xmlns:sodipodi="http://sodipodi.sourceforge.net/DTD/sodipodi-0.dtd"
   xmlns:inkscape="http://www.inkscape.org/namespaces/inkscape"
   width="1024"
   height="1024"
   id="U52A0"
   version="1.1"
   inkscape:version="0.48.0 r9654"
   sodipodi:docname="U+52A0.svg">
  <metadata
     id="metadata12">
    <rdf:RDF>
      <cc:Work
         rdf:about="">
        <dc:format>image/svg+xml</dc:format>
        <dc:type
           rdf:resource="http://purl.org/dc/dcmitype/StillImage" />
      </cc:Work>
    </rdf:RDF>
  </metadata>
  <defs
     id="defs10" />
  <sodipodi:namedview
     pagecolor="#ffffff"
     bordercolor="#666666"
     borderopacity="1"
     objecttolerance="10"
     gridtolerance="10"
     guidetolerance="10"
     inkscape:pageopacity="0"
     inkscape:pageshadow="2"
     inkscape:window-width="640"
     inkscape:window-height="480"
     id="namedview8"
     showgrid="false"
     inkscape:zoom="0.27441406"
     inkscape:cx="512"
     inkscape:cy="512"
     inkscape:window-x="0"
     inkscape:window-y="25"
     inkscape:window-maximized="0"
     inkscape:current-layer="U52A0" />
  <path
     style="fill:#550000;fill-opacity:1;fill-rule:nonzero;stroke:#f9f9f9;stroke-width:0.1;stroke-miterlimit:4;stroke-dasharray:none"
     d="M 325.15625 258.46875 C 321.56558 258.59799 318.87221 259.69445 317.53125 262 C 297.99865 300.658 285.5794 342.43925 272.3125 383.53125 C 269.80966 391.51258 267.30718 399.47439 264.75 407.4375 C 232.20858 413.18388 199.44146 419.26816 166.28125 419.21875 C 147.31565 419.21875 147.31565 508.625 166.28125 508.625 C 188.79342 507.9506 211.09898 505.28715 233.3125 501.78125 C 225.55153 524.40684 217.66596 546.98923 209.75 569.5625 C 194.404 613.3455 179.1904 657.1875 163.75 700.9375 C 157.5867 716.4725 152.6158 731.99475 150.6875 748.59375 C 149.8494 766.94145 233.34451 771.36074 239.84375 754.53125 C 239.72244 755.08554 239.54653 755.92048 239.53125 756.03125 C 240.02062 754.54737 246.28273 729.36563 247.5625 729.40625 C 261.8985 685.53325 276.44105 641.724 291.59375 598.125 C 304.79602 560.11561 317.96158 522.09651 330.8125 483.96875 C 360.62567 478.56093 390.53622 473.75286 420.6875 470.5625 C 420.99153 470.55057 424.05497 470.35829 427.90625 470.21875 C 428.0636 472.28525 428.28005 474.36578 428.09375 476.34375 C 426.55035 492.72775 423.41515 508.841 420.40625 525 C 411.83475 569.061 400.60025 612.55125 388.59375 655.78125 C 381.89239 676.59604 377.08879 698.16885 369.6875 718.78125 C 372.04553 717.08161 377.32336 716.52722 393.25 705.1875 C 382.23374 722.06679 395.49951 793.13552 412.375 790.40625 C 449.0457 764.80425 440.5431 779.25425 450.5 757.53125 C 459.3006 731.69825 465.7766 705.12025 473.3125 678.90625 C 485.546 633.37725 497.283 587.697 506.75 541.5 C 514.1891 503.405 523.46755 463.89925 511.53125 425.78125 C 507.56625 419.21825 504.69885 411.87075 499.65625 406.09375 C 476.99435 380.13375 441.93035 380.05375 410.59375 383.09375 C 394.29843 385.10167 378.07672 387.4398 361.875 390.03125 C 371.24288 361.70126 380.93608 333.3337 394.8125 306.9375 C 403.00724 292.84805 347.09923 257.67895 325.15625 258.46875 z M 369.6875 718.78125 C 368.13859 719.89769 367.8085 721.541 366.53125 727.0625 C 367.63474 724.32356 368.69003 721.55919 369.6875 718.78125 z M 735.90625 359.40625 C 717.33818 359.42068 698.74819 359.87063 680.1875 360.625 C 650.1976 362.009 620.1456 363.63525 590.5 368.65625 C 584.07442 369.95221 581.99935 381.27098 582.78125 395.375 C 556.16556 393.93872 519.24806 401.30753 520.25 413.53125 C 523.8807 451.03925 527.57095 488.5505 531.15625 526.0625 C 534.97355 562.5775 537.82225 599.47975 549.53125 634.46875 C 550.99753 638.42206 556.29024 639.92529 563.5625 639.71875 C 562.8588 664.60412 568.33077 693.15947 579.0625 692.84375 C 615.9088 690.06575 652.47055 684.50275 689.15625 680.21875 C 718.27925 676.92675 747.61625 675.24925 776.84375 677.90625 C 779.44395 678.22725 782.05605 678.554 784.65625 678.875 C 785.22178 678.93542 785.76439 678.91141 786.3125 678.8125 C 805.22975 686.9348 824.6034 690.79765 828.3125 682.84375 C 835.7011 665.18275 840.55975 647.0195 843.53125 628.0625 C 851.31955 590.2385 860.10555 552.6525 869.96875 515.3125 C 877.87355 484.2205 888.6255 452.48125 882.0625 420.15625 C 871.0774 391.83425 858.0266 377.443 828.9375 368.125 C 809.4343 363.009 789.4535 360.71525 769.3125 359.90625 C 758.172 359.55713 747.04709 359.39759 735.90625 359.40625 z M 735.4375 447.90625 C 745.66603 447.94718 755.89973 448.17112 766.125 448.59375 C 775.38875 449.47263 784.85886 449.90402 794.0625 451.5625 C 793.95892 452.17325 793.7826 453.27308 793.75 453.4375 C 791.0472 467.0765 787.5735 480.5505 784.3125 494.0625 C 776.43684 525.41914 768.97263 556.88359 761.9375 588.4375 C 734.21554 587.89423 706.5105 589.57943 678.9375 592.90625 C 662.94604 594.77881 646.97215 596.94378 630.96875 598.84375 C 620.60392 573.86365 623.84107 543.68557 618.375 517.8125 C 616.43079 497.00744 614.43988 476.20171 612.71875 455.375 C 636.31881 451.08239 660.39243 450.06124 684.3125 448.9375 C 701.354 448.26188 718.38996 447.83803 735.4375 447.90625 z M 803.6875 453.84375 C 804.11762 453.97521 804.54064 454.10992 804.96875 454.25 C 806.45971 456.35571 805.44134 455.54294 803.6875 453.84375 z M 439.28125 470.15625 C 443.46176 470.32198 446.64953 470.79307 446.4375 471.875 C 446.01098 474.05152 442.74215 472.5021 439.28125 470.15625 z "
     id="path8615" />
</svg>
