<?xml version="1.0" encoding="UTF-8" standalone="no"?>
<svg
   xmlns:dc="http://purl.org/dc/elements/1.1/"
   xmlns:cc="http://creativecommons.org/ns#"
   xmlns:rdf="http://www.w3.org/1999/02/22-rdf-syntax-ns#"
   xmlns:svg="http://www.w3.org/2000/svg"
   xmlns="http://www.w3.org/2000/svg"
   xmlns:sodipodi="http://sodipodi.sourceforge.net/DTD/sodipodi-0.dtd"
   xmlns:inkscape="http://www.inkscape.org/namespaces/inkscape"
   width="1024"
   height="1024"
   id="U523B"
   version="1.1"
   inkscape:version="0.48.0 r9654"
   sodipodi:docname="U+523B.svg">
  <metadata
     id="metadata15">
    <rdf:RDF>
      <cc:Work
         rdf:about="">
        <dc:format>image/svg+xml</dc:format>
        <dc:type
           rdf:resource="http://purl.org/dc/dcmitype/StillImage" />
      </cc:Work>
    </rdf:RDF>
  </metadata>
  <defs
     id="defs13" />
  <sodipodi:namedview
     pagecolor="#ffffff"
     bordercolor="#666666"
     borderopacity="1"
     objecttolerance="10"
     gridtolerance="10"
     guidetolerance="10"
     inkscape:pageopacity="0"
     inkscape:pageshadow="2"
     inkscape:window-width="640"
     inkscape:window-height="480"
     id="namedview11"
     showgrid="false"
     inkscape:zoom="0.27441406"
     inkscape:cx="512"
     inkscape:cy="512"
     inkscape:window-x="0"
     inkscape:window-y="25"
     inkscape:window-maximized="0"
     inkscape:current-layer="U523B" />
  <path
     style="fill:#2b0000;fill-opacity:1;fill-rule:nonzero;stroke:#f9f9f9;stroke-width:0.1;stroke-miterlimit:4;stroke-dasharray:none"
     d="M 282.53125 171.4375 C 261.57832 171.01055 207.10519 211.45112 216.5 224.9375 C 228.03138 238.7765 238.2341 253.4005 247.5 268.8125 C 255.48494 281.5895 265.12318 293.18875 274.46875 304.96875 C 279.38993 312.38194 286.88228 317.55048 293 323.8125 C 291.56756 321.87243 290.5174 319.66356 289.5625 317.4375 C 299.00206 332.62085 379.37649 310.92257 374.75 293.28125 C 371.49313 283.35025 367.96237 273.67525 360.4375 266.03125 C 354.99541 260.38025 348.88117 255.5235 343.65625 249.6875 C 336.59185 240.9295 329.27959 232.3415 322.90625 223.0625 C 312.56794 206.1525 301.33449 189.9495 289.15625 174.3125 C 287.81414 172.38588 285.52453 171.49849 282.53125 171.4375 z M 293 323.8125 C 293.69376 324.75212 294.4546 325.63464 295.375 326.40625 C 294.60776 325.51122 293.82675 324.65875 293 323.8125 z M 680.9375 247.46875 C 654.34448 247.80392 614.08376 259.89806 616.59375 272.5625 C 621.25779 295.0615 623.57918 317.95825 627 340.65625 C 631.97542 367.80825 636.32824 394.9775 639.15625 422.4375 C 641.82249 451.5195 644.8456 480.53575 646.15625 509.71875 C 646.78478 537.25275 646.68199 564.7855 645.84375 592.3125 C 645.05844 617.2495 644.11344 642.178 644.78125 667.125 C 646.74382 689.062 646.78209 710.99275 645.84375 732.96875 C 644.89856 751.51175 643.9042 770.02275 643.875 788.59375 C 645.23566 799.31475 643.07917 809.14275 640.40625 819.34375 C 637.13461 829.55775 635.60095 840.507 630.65625 850.125 C 628.62545 855.394 625.38682 859.80225 621.90625 864.15625 C 610.51909 879.06125 680.76909 932.74975 692.15625 917.84375 C 699.56789 907.95675 706.55976 897.75325 711.34375 886.28125 C 717.57533 871.82025 722.23226 856.93 725.9375 841.625 C 730.45994 824.193 733.64999 806.57775 732.1875 788.46875 C 732.09461 771.12875 733.05995 753.821 733.78125 736.5 C 734.69297 712.502 734.73967 688.5155 732.6875 664.5625 C 731.94502 641.3065 733.0173 618.0645 733.5625 594.8125 C 734.35436 565.1155 734.36434 535.41875 733.625 505.71875 C 732.18917 474.89575 729.12541 444.221 726.3125 413.5 C 723.37462 384.678 719.00263 356.115 713.75 327.625 C 710.15895 303.557 707.70648 279.347 703.4375 255.375 C 702.2966 249.61875 693.02524 247.3164 680.9375 247.46875 z M 93 358.0625 C 74.236003 358.2115 74.923502 446.68025 93.6875 446.53125 C 120.90021 445.94025 148.12748 446.71875 175.34375 446.71875 C 177.19769 446.71892 179.05237 446.71425 180.90625 446.71875 C 176.00339 458.72422 169.94864 470.23988 163.28125 481.5 C 150.7427 499.267 143.4472 519.5755 135.15625 539.4375 C 129.02512 552.1655 124.20783 565.36975 120.4375 578.96875 C 118.1199 586.57875 120.58248 578.5965 113.78125 592.3125 C 98.734549 630.8345 121.51335 658.1765 159.6875 662.3125 C 171.20885 662.24509 182.64771 660.69784 194.0625 659.1875 C 179.02591 673.45683 165.09162 688.85673 151.375 704.40625 C 146.04815 712.02825 139.4591 717.639 132.03125 722.75 C 123.51049 729.806 127.74805 725.78425 119.53125 735.03125 C 108.4595 749.84437 176.66097 801.26362 190.03125 789.09375 C 188.21906 791.02206 187.3693 791.98903 186.875 792.5 C 198.37533 783.64871 208.98257 773.96824 217.75 762.21875 C 233.8014 743.50775 250.1815 724.953 269.28125 709.25 C 297.64828 686.519 326.88238 664.894 354.71875 641.5 C 378.84519 620.804 402.10329 599.1615 425.1875 577.3125 C 438.59628 564.1915 376.75252 501.005 363.34375 514.125 C 347.23835 530.55186 330.55873 546.3725 313.40625 561.6875 C 309.38196 561.85714 305.18089 561.918 301.25 562.0625 C 283.04708 562.4785 264.84517 562.5605 246.6875 564.0625 C 237.51933 564.87314 228.35307 565.88221 219.21875 566.96875 C 224.79377 552.73955 229.95823 538.42188 239.03125 525.84375 C 252.8515 502.04675 264.87666 477.4285 272.6875 450.9375 C 273.07413 449.81936 273.09687 448.66118 272.8125 447.46875 C 298.12873 447.4401 323.45702 446.18003 348.75 447.625 C 359.67873 447.888 369.76221 451.45 379.90625 455 C 388.12779 458.37 396.94274 460.00375 405.25 463.09375 C 407.90462 463.91375 410.54964 464.729 413.21875 465.5 C 431.46001 470.36 454.36626 384.39125 436.125 379.53125 C 435.09183 379.29925 434.05041 379.07425 433.03125 378.78125 C 424.95277 376.24325 416.73475 374.14775 408.78125 371.21875 C 390.72473 365.08275 372.25285 360.60525 353.09375 359.78125 C 325.73489 358.58925 298.37084 359.6465 271 359.9375 C 239.15244 359.8695 207.316 359.30875 175.46875 359.21875 C 147.96799 359.13375 120.49779 358.4315 93 358.0625 z M 186.875 792.5 C 185.75085 793.36521 184.64088 794.24363 183.5 795.09375 C 185.8328 793.43998 186.23181 793.16488 186.875 792.5 z M 548.09375 454.25 C 529.009 454.13673 511.83429 457.73875 511.34375 465.9375 C 510.78297 497.7835 513.30961 529.60125 514.625 561.40625 C 516.64195 593.75725 513.217 626.06525 513.90625 658.40625 C 514.40395 673.79825 519.0867 688.24825 524.34375 702.53125 C 531 720.08625 613.75 688.71225 607.09375 671.15625 C 605.05758 665.98325 602.40477 661.0435 601.75 655.4375 C 600.07332 622.9905 604.22281 590.44075 601.75 557.96875 C 600.67248 529.08375 598.42308 500.11575 599.6875 471.21875 C 600.3182 460.67694 572.63128 454.39563 548.09375 454.25 z M 195.46875 627 C 195.21634 627.63041 194.94846 628.28071 194.65625 628.90625 C 194.42787 629.24 193.90115 630.07744 193.75 630.28125 C 193.75669 630.26485 193.73165 630.25482 193.75 630.21875 C 194.30378 629.13026 194.88817 628.07605 195.46875 627 z M 406.5625 627.625 C 404.97473 627.68647 403.60654 628.16164 402.5 629.125 C 380.82539 648.333 361.1 669.568 341.8125 691.125 C 321.85641 714.436 299.44917 735.3935 277.78125 757.0625 C 262.10196 772.1925 246.67882 787.48875 232.5625 804.09375 C 223.83028 815.00075 213.45704 824.401 203.59375 834.25 C 197.26625 839.412 192.72723 845.991 188.5 852.875 C 179.88666 869.15533 254.57718 909.15702 266.375 895.5625 C 263.32395 899.82393 258.95705 904.47037 266.78125 896.25 C 277.90658 884.605 289.88226 873.75175 299.90625 861.09375 C 306.56633 853.18075 313.59553 845.61685 320.78125 838.21875 C 323.04143 845.00759 326.24497 849.37189 330.40625 849.40625 C 350.08361 849.16325 368.77744 855.82075 387.0625 862.34375 C 408.20602 869.79875 428.35172 879.72775 447.78125 890.84375 C 459.7787 898.81375 472.08141 905.94225 485 912.28125 C 485.72905 912.65025 486.45845 913.03725 487.1875 913.40625 C 504.18025 921.54125 542.524 841.41625 525.53125 833.28125 C 524.501 832.80825 523.46776 832.349 522.4375 831.875 C 511.38003 826.934 501.31996 820.386 490.90625 814.125 C 466.92745 800.839 442.2669 788.71525 416.34375 779.65625 C 406.94356 776.34792 397.47215 773.18762 387.90625 770.40625 C 394.38107 763.59436 400.75314 756.6807 406.90625 749.5625 C 423.84563 730.7605 441.00176 711.98125 460.625 695.90625 C 473.68216 684.53861 425.29824 626.89965 406.5625 627.625 z "
     id="path8838" />
</svg>
