<?xml version="1.0" encoding="utf-8" ?>

<!DOCTYPE svg PUBLIC "-//W3C//DTD SVG 1.1//EN" 
  "http://www.w3.org/Graphics/SVG/1.1/DTD/svg11.dtd">
<svg 
    xmlns="http://www.w3.org/2000/svg"
    xmlns:xlink="http://www.w3.org/1999/xlink"
    xmlns:sodipodi="http://sodipodi.sourceforge.net/DTD/sodipodi-0.dtd"
    xmlns:inkscape="http://www.inkscape.org/namespaces/inkscape"
    width="1024" height="1024" id="U52A1">
<path d="m 7560.1256,52402.682 c -24.9895,20.206 -43.3836,47.021 -61.024,73.527 -14.6893,27.051 -35.8917,54.528 -39.1321,86.127 0.3221,0.634 0.4383,2.381 0.9663,1.904 2.0989,-1.897 -0.6022,-8.861 -0.795,-9.635 10.4933,15.522 -62.6784,64.988 -73.1716,49.466 l 0,0 c -10.7679,-20.128 -16.7854,-33.975 -13.36,-57.464 9.1147,-42.961 29.8088,-81.56 53.3279,-118.401 23.16,-34.833 47.6874,-69.349 80.1186,-96.284 15.0104,-11.258 68.0803,59.502 53.0699,70.76 z" id="path13110" inkscape:connector-curvature="0" style="fill:#501616;fill-opacity:1;fill-rule:nonzero;stroke:#f9f9f9;stroke-width:0.1;stroke-miterlimit:4;stroke-dasharray:none" transform="translate(-7168, -52224)"/><path d="m 7536.5054,52398.402 c 42.3426,-15.558 86.8497,-23.505 131.2667,-30.388 50.5579,-7.528 101.6065,-10.201 152.6464,-8.232 29.4992,2.72 62.6501,4.88 86.8169,24.403 5.2965,4.279 9.5338,9.724 14.3007,14.585 24.4759,37.959 11.1021,74.806 -10.5758,109.931 -28.9113,41.329 -65.5983,76.294 -102.3223,110.543 -48.9704,45.678 -102.5953,85.627 -159.5196,120.735 -55.868,33.891 -114.6243,52.096 -179.2244,58.775 -38.1967,0.169 -19.4248,1.048 -56.3233,-2.468 -18.2915,-1.952 -9.0914,-88.179 9.2001,-86.227 l 0,0 c 25.2853,3.123 12.3057,2.166 38.9517,2.688 50.8293,-4.246 98.5806,-19.62 142.5143,-45.951 52.1445,-31.773 101.0356,-68.351 145.5002,-110.319 31.0736,-29.356 62.2035,-59.221 86.9829,-94.265 11.3048,-17.562 5.8025,-20.068 16.87,-7.148 7.361,3.393 2.4567,-0.723 -0.4502,-1.857 -11.6404,-4.541 -24.4369,-5.022 -36.6681,-6.496 -45.2394,-2.427 -90.5316,-0 -135.3638,6.646 -37.4918,5.913 -75.3197,12.395 -110.7043,26.651 -17.3113,7.191 -51.2094,-74.415 -33.8981,-81.606 z" id="path13112" inkscape:connector-curvature="0" style="fill:#501616;fill-opacity:1;fill-rule:nonzero;stroke:#f9f9f9;stroke-width:0.1;stroke-miterlimit:4;stroke-dasharray:none" transform="translate(-7168, -52224)"/><path d="m 7543.6914,52454.688 c 32.5798,30.032 67.5628,57.035 104.0021,82.169 54.4228,36.276 113.9543,63.635 173.4065,90.437 43.2369,18.669 85.7625,39.157 130.2083,54.857 4.1785,1.177 8.357,2.354 12.5356,3.531 17.7861,5.298 -7.1894,89.143 -24.9756,83.845 l 0,0 c -5.8023,-1.796 -11.6047,-3.592 -17.4071,-5.388 -46.2474,-17.254 -90.7061,-38.748 -135.7929,-58.766 -63.8532,-29.16 -127.7524,-58.896 -186.4956,-97.657 -38.9247,-26.48 -76.2945,-54.888 -112.2552,-85.286 -14.3701,-12.044 42.4038,-79.785 56.7739,-67.742 z" id="path13114" inkscape:connector-curvature="0" style="fill:#501616;fill-opacity:1;fill-rule:nonzero;stroke:#f9f9f9;stroke-width:0.1;stroke-miterlimit:4;stroke-dasharray:none" transform="translate(-7168, -52224)"/><path d="m 7427.5295,52896.84 c 36.6116,-24.803 78.5913,-38.629 120.8412,-50.241 57.9904,-15.022 117.5755,-19.316 177.2361,-18.478 55.622,1.344 109.5721,13.304 161.1847,33.52 30.2924,13.727 61.6423,30.795 78.5423,60.916 3.5003,6.239 5.6672,13.137 8.5009,19.705 11.7696,42.906 -1.585,84.293 -16.9196,124.306 -16.3842,40.951 -39.9593,78.086 -67.3929,112.406 -10.7639,13.646 -23.552,25.222 -36.6904,36.472 -14.3253,11.902 -70.4322,-55.628 -56.1069,-67.53 l 0,0 c 9.1017,-7.163 17.6661,-14.85 24.9882,-23.902 22.1641,-26.851 40.8953,-56.238 53.9136,-88.667 7.7128,-20.025 15.4964,-40.502 15.9296,-62.243 0.7774,-16.488 -26.845,-24.07 -37.1883,-30.781 -41.4461,-17.225 -85.1698,-26.677 -130.1432,-28.074 -51.4699,-0.948 -102.8696,2.786 -152.8944,15.763 -32.1785,8.874 -64.7262,18.867 -92.158,38.592 -15.2233,10.955 -66.8663,-60.809 -51.6429,-71.764 z" id="path13116" inkscape:connector-curvature="0" style="fill:#501616;fill-opacity:1;fill-rule:nonzero;stroke:#f9f9f9;stroke-width:0.1;stroke-miterlimit:4;stroke-dasharray:none" transform="translate(-7168, -52224)"/><path d="m 7774.213,52784.761 c -24.2217,32.496 -43.3192,68.442 -62.4446,104.064 -30.5165,57.437 -57.4865,116.63 -82.0211,176.837 -14.8665,36.574 -26.6318,74.253 -36.1123,112.544 -4.5761,17.884 -88.8818,-3.688 -84.3057,-21.572 l 0,0 c 11.0578,-42.027 24.3768,-83.42 41.0283,-123.6 25.9515,-62.642 54.1651,-124.325 85.4453,-184.505 20.7705,-39.609 41.7482,-79.269 67.1572,-116.16 11.114,-15.115 82.3669,37.277 71.2529,52.392 z" id="path13122" inkscape:connector-curvature="0" style="fill:#501616;fill-opacity:1;fill-rule:nonzero;stroke:#f9f9f9;stroke-width:0.1;stroke-miterlimit:4;stroke-dasharray:none" transform="translate(-7168, -52224)"/></svg>