<?xml version="1.0" encoding="UTF-8" standalone="no"?>
<svg
   xmlns:dc="http://purl.org/dc/elements/1.1/"
   xmlns:cc="http://creativecommons.org/ns#"
   xmlns:rdf="http://www.w3.org/1999/02/22-rdf-syntax-ns#"
   xmlns:svg="http://www.w3.org/2000/svg"
   xmlns="http://www.w3.org/2000/svg"
   xmlns:sodipodi="http://sodipodi.sourceforge.net/DTD/sodipodi-0.dtd"
   xmlns:inkscape="http://www.inkscape.org/namespaces/inkscape"
   width="1024"
   height="1024"
   id="U521A"
   version="1.1"
   inkscape:version="0.48.0 r9654"
   sodipodi:docname="U+521A.svg">
  <metadata
     id="metadata13">
    <rdf:RDF>
      <cc:Work
         rdf:about="">
        <dc:format>image/svg+xml</dc:format>
        <dc:type
           rdf:resource="http://purl.org/dc/dcmitype/StillImage" />
      </cc:Work>
    </rdf:RDF>
  </metadata>
  <defs
     id="defs11" />
  <sodipodi:namedview
     pagecolor="#ffffff"
     bordercolor="#666666"
     borderopacity="1"
     objecttolerance="10"
     gridtolerance="10"
     guidetolerance="10"
     inkscape:pageopacity="0"
     inkscape:pageshadow="2"
     inkscape:window-width="640"
     inkscape:window-height="480"
     id="namedview9"
     showgrid="false"
     inkscape:zoom="0.27441406"
     inkscape:cx="512"
     inkscape:cy="512"
     inkscape:window-x="0"
     inkscape:window-y="25"
     inkscape:window-maximized="0"
     inkscape:current-layer="U521A" />
  <path
     style="fill:#550000;fill-opacity:1;fill-rule:nonzero;stroke:#f9f9f9;stroke-width:0.1;stroke-miterlimit:4;stroke-dasharray:none"
     d="M 448.78125 196.5625 C 408.87486 196.93978 369.37489 203.66238 330.5625 213.78125 C 290.19303 225.89027 249.8502 240.60416 220.59375 272.03125 C 221.5978 255.17274 223.13219 238.36524 225.5625 221.65625 C 228.6765 203.31825 142.20775 188.63075 139.09375 206.96875 C 133.43795 258.17775 133.98595 309.89275 133.84375 361.34375 C 134.25845 450.28875 136.9105 539.1995 140.625 628.0625 C 143.1205 688.1175 147.3506 748.084 156.5625 807.5 C 159.5544 825.41 243.9919 811.31625 241 793.40625 C 233.21644 750.42095 229.11866 706.97054 226.40625 663.40625 C 229.58207 682.35297 286.12906 723.28451 296.09375 710.1875 C 300.65575 704.0185 305.21925 697.8575 309.78125 691.6875 C 328.03994 662.92919 344.52119 633.17654 359.78125 602.78125 C 387.72803 624.82145 415.31742 647.33642 442.8125 669.9375 C 447.6764 673.9365 452.54225 677.9385 457.40625 681.9375 C 464.44914 687.67293 481.39553 674.08537 494.96875 657.53125 C 494.94569 674.33525 494.89933 691.13414 494.84375 707.9375 C 493.27735 759.9605 496.68285 812.3265 491.34375 864.1875 C 489.88005 882.5085 576.25505 889.41375 577.71875 871.09375 C 581.09535 816.83575 578.42445 762.41475 579.28125 708.09375 C 579.32345 632.29075 579.45575 556.4835 578.28125 480.6875 C 577.28175 419.6405 577.3807 358.25525 569.125 297.65625 C 556.6193 240.61125 537.62585 208.201 476.46875 197.375 C 467.21994 196.75063 457.99042 196.47544 448.78125 196.5625 z M 824.65625 200.5625 C 801.4889 200.97497 777.03068 206.70675 777.46875 216.5625 C 780.00485 265.5665 781.25225 314.6335 782.34375 363.6875 C 783.56885 452.8195 784.0772 541.96175 785.375 631.09375 C 786.8622 714.24775 787.5962 797.3965 787.9375 880.5625 C 786.1651 919.76401 791.2264 959.19203 789.75 998.375 C 780.69822 1022.8807 777.05885 1060.8335 789 1063.3125 C 836.8389 1072.8455 869.756 1061.8383 876.4375 1007.9062 C 876.9379 965.20125 871.9598 922.5485 872.625 879.8125 C 871.4738 796.5015 870.2529 713.181 868.8125 629.875 C 867.5398 540.684 867.1638 451.5105 866.875 362.3125 C 866.3497 312.4345 865.40935 262.5655 864.90625 212.6875 C 864.51972 203.99125 845.09803 200.19856 824.65625 200.5625 z M 447.625 282.28125 C 454.81667 282.29589 462.01811 282.68344 469.21875 283.5 C 472.88955 284.738 478.0582 285.23025 480.3125 289.15625 C 481.2201 290.73725 480.07895 292.832 480.40625 294.625 C 481.66835 301.54 483.35505 308.342 484.65625 315.25 C 492.02025 370.572 492.45385 426.56425 493.65625 482.28125 C 494.4588 521.94573 494.81684 561.64047 494.9375 601.3125 C 462.4485 574.9816 429.90241 548.68034 396.96875 522.90625 C 412.62742 487.45165 427.92135 451.75731 446 417.46875 C 454.6257 401.02575 377.1257 360.3695 368.5 376.8125 C 353.95181 407.32174 340.57224 438.3509 327.15625 469.375 C 316.79486 461.90074 306.25588 454.68098 295.4375 447.875 C 279.0384 439.118 237.75715 516.4305 254.15625 525.1875 C 266.80627 532.82925 278.99413 541.19242 290.9375 549.90625 C 275.10001 582.67498 257.77443 614.67662 237.6875 645.09375 C 234.2832 649.39475 230.87295 653.7 227.46875 658 C 226.77653 658.90975 226.38436 659.94656 226.28125 661.125 C 225.53475 648.91941 224.86659 636.68294 224.28125 624.46875 C 220.43355 537.05575 217.7764 449.5705 218.25 362.0625 C 218.59702 338.40078 218.73469 314.64801 219.65625 290.9375 C 233.69244 311.50166 277.85468 340.6885 286.53125 329.15625 C 304.78955 310.58725 330.93345 303.29675 355.15625 296.09375 C 385.43544 288.94944 416.46109 282.21781 447.625 282.28125 z M 672.0625 350.96875 C 647.80655 351.34514 620.49543 357.83475 621.21875 368.25 C 624.97565 412.188 626.2188 456.28675 627.75 500.34375 C 628.1575 526.53875 630.13335 552.6175 632.53125 578.6875 C 634.34525 596.8265 719.84535 588.29525 718.03125 570.15625 C 715.39145 546.00825 713.39615 521.814 713.09375 497.5 C 711.65755 452.391 710.40525 407.2825 708.53125 362.1875 C 707.96871 354.08675 690.92824 350.676 672.0625 350.96875 z M 789.65625 1000.375 C 789.58476 1002.0205 789.50252 1003.6679 789.40625 1005.3125 C 789.07495 1005.6695 788.33225 1006.857 788.40625 1006.375 C 788.76166 1004.0697 789.17726 1002.1133 789.65625 1000.375 z "
     id="path23505" />
</svg>
