<?xml version="1.0" encoding="utf-8" ?>

<!DOCTYPE svg PUBLIC "-//W3C//DTD SVG 1.1//EN" 
  "http://www.w3.org/Graphics/SVG/1.1/DTD/svg11.dtd">
<svg 
    xmlns="http://www.w3.org/2000/svg"
    xmlns:xlink="http://www.w3.org/1999/xlink"
    xmlns:sodipodi="http://sodipodi.sourceforge.net/DTD/sodipodi-0.dtd"
    xmlns:inkscape="http://www.inkscape.org/namespaces/inkscape"
    width="1024" height="1024" id="U521D">
<path d="m 11566.335,5315.6153 c -2.842,25.245 -2.165,50.4194 2.541,75.3483 3.989,15.3798 1.809,7.8318 6.513,22.6516 5.394,17.6097 -77.619,43.0368 -83.012,25.4271 l 0,0 c -6.341,-21.2457 -3.378,-10.2921 -8.806,-32.8831 -5.415,-31.6495 -7.062,-63.4505 -4.698,-95.5215 1.055,-18.5536 88.518,-13.5761 87.462,4.9776 z" id="path21049" inkscape:connector-curvature="0" style="fill:#800000;fill-opacity:1;fill-rule:nonzero;stroke:#f9f9f9;stroke-width:0.1;stroke-miterlimit:4;stroke-dasharray:none" transform="translate(-11264, -5120)"/><path d="m 11383.818,5495.3499 c 35.172,-1.4297 70.29,-3.907 105.457,-5.5039 34.054,-0.98 68.421,-3.1827 101.981,3.6808 5.759,2.6582 12.505,3.7954 17.276,7.9746 39.678,34.7542 18.942,66.8906 -3.148,101.5503 -27.576,41.9381 -48.803,87.4762 -69.156,133.2163 -25.542,58.456 -47.142,118.503 -66.812,179.1531 -7.691,24.0605 -14.761,48.3099 -21.128,72.7521 -4.951,17.7511 -88.631,-5.587 -83.68,-23.3382 l 0,0 c 7.547,-25.5014 15.411,-50.9084 23.777,-76.1546 21.151,-63.0486 43.839,-125.6071 70.164,-186.7065 21.719,-49.5627 44.364,-98.8781 73.274,-144.7565 2.503,-4.1215 5.015,-8.2379 7.509,-12.3646 1.36,-2.2484 2.084,-5.0207 4.053,-6.7605 0.782,-0.6916 -0.13,2.1044 0.05,3.1326 1.163,6.5397 0.746,13.7223 3.977,19.526 8.377,15.047 11.648,14.5945 23.056,17.6623 -15.594,-7.7248 -59.493,-1.0463 -77.243,-2.5998 -35.095,1.6349 -70.129,4.1392 -105.142,7.037 -18.562,0.9054 -22.83,-86.5951 -4.268,-87.5005 z" id="path21051" inkscape:connector-curvature="0" style="fill:#800000;fill-opacity:1;fill-rule:nonzero;stroke:#f9f9f9;stroke-width:0.1;stroke-miterlimit:4;stroke-dasharray:none" transform="translate(-11264, -5120)"/><path d="m 11589.283,5687.6308 c -3.506,36.0101 -1.68,72.1544 1.68,108.0814 4.345,41.4438 13.9,82.0425 25.319,122.0368 5.298,17.4239 2.64,9.4528 7.791,23.9736 5.845,17.5053 -76.676,45.0622 -82.521,27.5568 l 0,0 c -5.776,-18.1514 -2.913,-8.6719 -8.519,-28.4597 -12.139,-45.0254 -22.62,-90.5889 -27.534,-137.044 -3.863,-40.634 -5.796,-81.3981 -3.501,-122.2064 1.286,-18.5161 88.571,-12.4546 87.285,6.0615 z" id="path21053" inkscape:connector-curvature="0" style="fill:#800000;fill-opacity:1;fill-rule:nonzero;stroke:#f9f9f9;stroke-width:0.1;stroke-miterlimit:4;stroke-dasharray:none" transform="translate(-11264, -5120)"/><path d="m 11622.767,5708.6475 c 22.748,13.6578 47.593,23.098 72.465,32.0484 4.354,1.4792 8.709,2.9584 13.063,4.4376 17.402,5.9892 -10.831,88.0228 -28.233,82.0336 l 0,0 c -4.791,-1.668 -9.581,-3.336 -14.371,-5.0039 -29.51,-10.7729 -58.771,-22.3497 -86.373,-37.4797 -16.13,-9.2169 27.319,-85.2529 43.449,-76.036 z" id="path21055" inkscape:connector-curvature="0" style="fill:#800000;fill-opacity:1;fill-rule:nonzero;stroke:#f9f9f9;stroke-width:0.1;stroke-miterlimit:4;stroke-dasharray:none" transform="translate(-11264, -5120)"/><path d="m 11684.9,5430.9154 c 36.004,-2.2488 71.994,-4.7099 108.006,-6.8344 51.804,-2.9104 103.707,-3.0429 155.572,-2.4807 39.184,0.1997 78.268,2.7017 116.485,11.5688 47.69,14.6805 64.296,34.6723 80.76,81.0087 14.367,65.1775 4.436,132.3803 -3.823,197.7109 -9.197,68.6972 -22.076,136.8241 -39.957,203.7846 -7.08,27.7389 -17.902,53.6832 -32.841,77.9861 -10.145,15.4079 -82.779,-32.4163 -72.634,-47.8242 l 0,0 c 12.024,-15.2729 16.87,-34.6918 23.017,-52.7938 17.75,-62.7824 30.148,-126.8849 38.687,-191.567 6.463,-52.8747 14.372,-107.1369 5.328,-160.1673 -3.361,-12.8843 -4.928,-19.9055 -19.124,-23.771 -31.632,-8.3239 -64.501,-9.2564 -97.047,-10.1444 -49.691,-0.7974 -99.434,-0.8033 -149.057,2.3102 -35.443,2.3553 -70.894,4.8598 -106.223,8.5915 -18.536,1.5166 -25.685,-85.8614 -7.149,-87.378 z" id="path21057" inkscape:connector-curvature="0" style="fill:#800000;fill-opacity:1;fill-rule:nonzero;stroke:#f9f9f9;stroke-width:0.1;stroke-miterlimit:4;stroke-dasharray:none" transform="translate(-11264, -5120)"/><path d="m 11962.573,5538.0745 c -24.635,48.9434 -44.141,100.3063 -64.236,151.226 -32.104,82.2923 -62.72,165.1518 -93.386,247.9872 -21.801,58.7911 -43.547,117.6203 -67.511,175.5724 -7.168,16.8081 -86.403,-16.9846 -79.234,-33.7927 l 0,0 c 24.751,-56.1845 46.504,-113.6173 68.129,-171.0614 31.136,-83.0877 62.025,-166.2683 93.617,-249.1844 20.645,-53.8843 40.85,-108.0246 64.735,-160.5819 8.451,-16.5221 86.337,23.3127 77.886,39.8348 z" id="path21059" inkscape:connector-curvature="0" style="fill:#800000;fill-opacity:1;fill-rule:nonzero;stroke:#f9f9f9;stroke-width:0.1;stroke-miterlimit:4;stroke-dasharray:none" transform="translate(-11264, -5120)"/></svg>