<?xml version="1.0" encoding="UTF-8" standalone="no"?>
<svg
   xmlns:dc="http://purl.org/dc/elements/1.1/"
   xmlns:cc="http://creativecommons.org/ns#"
   xmlns:rdf="http://www.w3.org/1999/02/22-rdf-syntax-ns#"
   xmlns:svg="http://www.w3.org/2000/svg"
   xmlns="http://www.w3.org/2000/svg"
   xmlns:sodipodi="http://sodipodi.sourceforge.net/DTD/sodipodi-0.dtd"
   xmlns:inkscape="http://www.inkscape.org/namespaces/inkscape"
   width="1024"
   height="1024"
   id="U52AA"
   version="1.1"
   inkscape:version="0.48.0 r9654"
   sodipodi:docname="U+52AA.svg">
  <metadata
     id="metadata14">
    <rdf:RDF>
      <cc:Work
         rdf:about="">
        <dc:format>image/svg+xml</dc:format>
        <dc:type
           rdf:resource="http://purl.org/dc/dcmitype/StillImage" />
      </cc:Work>
    </rdf:RDF>
  </metadata>
  <defs
     id="defs12" />
  <sodipodi:namedview
     pagecolor="#ffffff"
     bordercolor="#666666"
     borderopacity="1"
     objecttolerance="10"
     gridtolerance="10"
     guidetolerance="10"
     inkscape:pageopacity="0"
     inkscape:pageshadow="2"
     inkscape:window-width="640"
     inkscape:window-height="480"
     id="namedview10"
     showgrid="false"
     inkscape:zoom="0.27441406"
     inkscape:cx="512"
     inkscape:cy="512"
     inkscape:window-x="0"
     inkscape:window-y="25"
     inkscape:window-maximized="0"
     inkscape:current-layer="U52AA" />
  <path
     style="fill:#c83737;fill-opacity:1;fill-rule:nonzero;stroke:#f9f9f9;stroke-width:0.1;stroke-miterlimit:4;stroke-dasharray:none"
     d="M 215.4375 112.59375 C 208.44211 112.61737 203.40046 114.2505 202.0625 118.125 C 197.2638 132.40801 191.82318 146.45971 186.0625 160.375 C 176.85139 162.01261 167.65395 163.79921 158.5 165.8125 C 117.6618 175.4555 76.2702 186.09275 41 209.84375 C 25.9095 221.00375 78.50325 292.161 93.59375 281 C 110.30953 269.76016 129.26814 262.9043 148.625 257.53125 C 147.81431 264.82081 147.78548 272.65311 148.6875 281.5625 C 154.3362 305.4255 172.68865 316.89425 190.78125 330.40625 C 205.00897 341.83408 216.79035 355.84039 228.09375 370.09375 C 225.10124 374.66067 222.08422 379.22115 219.03125 383.75 C 206.66196 397.48474 198.61499 417.03185 184.5625 429.625 C 186.56781 428.74778 188.74594 428.2216 190.75 427.6875 C 174.39458 434.86053 183.20591 517.30688 201.3125 515.5 C 215.3775 512.594 227.67065 509.4735 238.59375 499.4375 C 255.34322 483.64371 268.7666 465.04967 281.6875 446.09375 C 289.16254 457.52985 296.7352 468.89774 303.75 480.625 C 309.7027 490.173 315.36355 499.86625 320.90625 509.65625 C 326.10185 521.10025 334.37525 527.91775 343.90625 535.96875 C 359.2534 545.22408 401.4741 476.95957 391.8125 461.75 C 396.36746 466.44689 404.73678 475.61801 397.8125 465.6875 C 391.8369 455.3375 385.811 445.026 379.5 434.875 C 371.0137 420.926 361.70455 407.51275 352.59375 393.96875 C 346.00628 384.22974 339.41268 374.511 332.71875 364.84375 C 348.127 338.49549 362.81263 311.74027 376.8125 284.59375 C 385.41056 268.1517 393.91929 251.65571 402.46875 235.1875 C 412.33628 235.8924 422.18268 236.72752 432.03125 237.65625 C 444.68744 239.07336 457.37828 240.21806 470.0625 241.34375 C 465.18647 252.78561 463.64596 262.54253 468.65625 265.8125 C 495.81425 282.4865 522.88675 299.26025 549.34375 317.03125 C 561.17733 325.21736 572.92548 333.53095 584.625 341.90625 C 557.8434 361.8606 529.54388 379.67372 500.65625 396.40625 C 486.46135 404.99925 471.89555 412.39925 455.53125 415.40625 C 449.99625 416.23125 444.3912 416.64025 438.8125 417.03125 C 420.0697 418.58225 427.3822 506.926 446.125 505.375 C 455.3848 504.519 464.6808 503.6355 473.8125 501.8125 C 460.39683 533.32404 446.21422 564.485 432.09375 595.6875 C 400.28879 600.80004 368.6071 606.55845 337.15625 613.5625 C 303.44145 621.5205 269.78505 630.20325 237.71875 643.53125 C 220.54775 651.12625 256.36025 732.06375 273.53125 724.46875 C 300.28225 712.22875 328.92905 705.02375 357.40625 698.09375 C 368.29323 695.59148 379.20921 693.26363 390.15625 691.0625 C 376.66776 722.67501 363.42034 754.4005 350.125 786.09375 C 337.3393 816.23575 324.611 846.39575 311.375 876.34375 C 308.6989 882.72675 305.6883 888.96175 302.25 894.96875 C 293.5163 911.67675 372.2663 952.86425 381 936.15625 C 385.0991 927.88925 389.05685 919.5425 392.40625 910.9375 C 405.00125 880.3645 417.36975 849.696 429.96875 819.125 C 449.8077 770.46799 469.7987 721.85982 491.21875 673.875 C 496.34122 673.12268 501.46923 672.38885 506.59375 671.65625 C 553.62865 664.80225 601.0058 661.292 648.4375 658.75 C 669.06192 657.85919 689.67465 656.43577 710.3125 655.84375 C 708.59549 675.96803 704.80632 695.88401 701.03125 715.71875 C 693.30475 753.38975 684.299 790.86475 672.875 827.59375 C 667.84477 842.54528 662.21831 857.67346 652.5625 870.28125 C 660.24471 866.49357 661.55968 866.98729 668.84375 867.1875 C 651.25251 871.37364 629.75989 947.00771 646.71875 952.0625 C 654.07715 953.1775 661.34055 955.56325 668.78125 955.40625 C 690.69625 954.94725 708.1663 941.23675 721.5 925.34375 C 737.4655 903.37175 749.08275 879.036 756.59375 852.875 C 768.27625 813.155 777.7609 772.8145 786.3125 732.3125 C 793.604 695.4595 802.29205 657.538 796.71875 619.875 C 794.79695 614.119 793.69885 608.045 790.96875 602.625 C 778.43535 577.742 753.6651 566.97525 727 567.40625 C 699.0762 568.05725 671.22235 570.29825 643.34375 571.90625 C 606.80319 574.22355 570.30876 577.01014 533.9375 581.1875 C 541.15378 565.78494 548.4045 550.40253 555.6875 535.03125 C 561.18018 522.85571 521.86971 500.92083 496.03125 495.5 C 513.182 489.64151 529.447 481.69779 544.96875 471.84375 C 579.94345 451.03775 614.1572 428.876 646.3125 403.875 C 650.05542 400.87473 653.80038 397.86442 657.5 394.8125 C 658.86281 395.80353 660.23033 396.7911 661.59375 397.78125 C 689.68095 417.79825 716.83095 439.02675 743.53125 460.84375 C 756.70455 471.87075 769.77465 483.01675 782.90625 494.09375 C 784.23295 495.16675 785.57955 496.2385 786.90625 497.3125 C 801.71475 508.9165 856.40225 439.104 841.59375 427.5 C 840.79355 426.907 839.9877 426.31275 839.1875 425.71875 C 825.5624 414.78075 812.14325 403.62475 798.59375 392.59375 C 773.5695 372.66074 748.22083 353.15312 722.25 334.46875 C 733.01875 322.84166 743.26273 310.71412 752.8125 297.9375 C 773.5024 270.3465 794.0551 242.19475 809.4375 211.21875 C 811.1771 204.97775 814.42345 198.975 814.65625 192.5 C 815.98885 155.442 789.8854 134.029 755.75 130.5 C 723.7371 127.517 691.64255 128.93225 659.59375 130.90625 C 625.87175 132.86125 592.13425 135.35175 558.34375 135.59375 C 543.62389 135.91805 541.68074 190.46749 550.59375 213.6875 C 539.37768 206.39846 528.15917 199.11753 517.03125 191.6875 C 513.1073 189.12654 507.14343 191.82303 500.65625 197.46875 C 501.98692 175.89052 498.84125 154.54198 489.6875 153.875 C 486.4068 153.69 488.16595 153.7785 484.40625 153.5625 C 469.42535 152.6825 454.47185 151.7465 439.53125 150.3125 C 436.95297 150.11246 434.36049 149.90925 431.78125 149.71875 C 412.92005 132.06609 367.13953 112.38075 360.6875 124.875 C 357.24179 131.99245 353.7367 139.09024 350.25 146.1875 C 340.92836 146.15365 331.60616 146.25057 322.28125 146.5625 C 309.81759 147.10862 297.35274 147.79602 284.90625 148.65625 C 285.12364 148.09385 285.34593 147.53149 285.5625 146.96875 C 290.34094 133.13125 240.42105 112.5094 215.4375 112.59375 z M 652.5625 870.28125 C 652.41523 870.35386 652.30835 870.39293 652.15625 870.46875 C 650.71705 871.18575 647.43835 874.68825 648.90625 874.03125 C 649.72175 873.66625 650.28155 872.8835 650.96875 872.3125 C 651.51651 871.64441 652.03909 870.96467 652.5625 870.28125 z M 184.5625 429.625 C 182.59459 430.48586 180.82648 431.67489 179.71875 433.5 C 181.41558 432.3049 183.02344 431.00423 184.5625 429.625 z M 704.21875 216.21875 C 697.40369 226.29261 690.32548 236.21002 683.09375 246 C 673.35694 259.18926 662.7245 271.53179 651.4375 283.25 C 633.72761 270.41892 615.99204 257.63016 598.09375 245.0625 C 587.45385 237.79844 576.68801 230.72725 565.90625 223.6875 C 598.82338 222.01418 631.68874 219.69951 664.59375 217.8125 C 677.77535 217.23555 691.00142 216.47608 704.21875 216.21875 z M 746.15625 218 C 746.26022 218.01304 746.36478 218.01805 746.46875 218.03125 C 748.06285 218.40525 749.7154 218.58525 751.25 219.15625 C 753.18669 219.87693 749.37293 219.14874 746.15625 218 z M 306.125 233.9375 C 304.2366 237.62293 302.36202 241.31709 300.46875 245 C 292.61209 260.44524 284.46383 275.72059 276.03125 290.84375 C 266.18087 279.78466 255.7033 269.32196 244.0625 260.0625 C 243.12353 259.34472 241.59278 258.05577 239.875 256.625 C 242.68283 249.6275 245.62217 242.81648 246.0625 241.78125 C 246.51171 240.74056 246.95694 239.69692 247.40625 238.65625 C 266.91586 236.44473 286.50217 234.95241 306.125 233.9375 z M 235.78125 267.46875 C 236.00417 270.70925 236.27072 274.45846 234.625 273.09375 C 234.21041 272.75024 234.75068 270.54769 235.78125 267.46875 z "
     id="path9697" />
</svg>
