<?xml version="1.0" encoding="UTF-8" standalone="no"?>
<svg
   xmlns:dc="http://purl.org/dc/elements/1.1/"
   xmlns:cc="http://creativecommons.org/ns#"
   xmlns:rdf="http://www.w3.org/1999/02/22-rdf-syntax-ns#"
   xmlns:svg="http://www.w3.org/2000/svg"
   xmlns="http://www.w3.org/2000/svg"
   xmlns:sodipodi="http://sodipodi.sourceforge.net/DTD/sodipodi-0.dtd"
   xmlns:inkscape="http://www.inkscape.org/namespaces/inkscape"
   width="1024"
   height="1024"
   id="U522B"
   version="1.1"
   inkscape:version="0.48.0 r9654"
   sodipodi:docname="U+522B.svg">
  <metadata
     id="metadata14">
    <rdf:RDF>
      <cc:Work
         rdf:about="">
        <dc:format>image/svg+xml</dc:format>
        <dc:type
           rdf:resource="http://purl.org/dc/dcmitype/StillImage" />
      </cc:Work>
    </rdf:RDF>
  </metadata>
  <defs
     id="defs12" />
  <sodipodi:namedview
     pagecolor="#ffffff"
     bordercolor="#666666"
     borderopacity="1"
     objecttolerance="10"
     gridtolerance="10"
     guidetolerance="10"
     inkscape:pageopacity="0"
     inkscape:pageshadow="2"
     inkscape:window-width="640"
     inkscape:window-height="480"
     id="namedview10"
     showgrid="false"
     inkscape:zoom="0.27441406"
     inkscape:cx="512"
     inkscape:cy="512"
     inkscape:window-x="0"
     inkscape:window-y="25"
     inkscape:window-maximized="0"
     inkscape:current-layer="U522B" />
  <path
     style="fill:#aa0000;fill-opacity:1;fill-rule:nonzero;stroke:#f9f9f9;stroke-width:0.1;stroke-miterlimit:4;stroke-dasharray:none"
     d="M 407.84375 151.6875 C 377.17003 151.55781 346.56658 155.10415 316.21875 160.78125 C 275.08265 168.87815 233.2042 177.9486 196.9375 200 C 192.9484 202.79612 193.48393 209.80017 196.6875 218.40625 C 186.45696 203.8059 108.89476 213.02905 110.75 230.46875 C 115.4621 268.59445 122.28805 306.3754 130.84375 343.8125 C 140.10975 383.64 155.64955 421.2016 181.15625 453.25 C 185.78385 457.2645 190.40365 461.298 195.03125 465.3125 C 200.96043 469.8346 213.09056 461.28148 224.5 448.71875 C 228.55439 472.01381 238.43108 496.38833 248.3125 494.28125 C 275.66702 488.17319 303.2596 483.30305 330.9375 478.90625 C 313.87476 521.31183 301.48562 565.54372 287.9375 609.15625 C 286.63225 613.30942 285.32836 617.46938 284.03125 621.625 C 263.07626 624.67357 242.21845 628.42062 221.5 633.03125 C 179.4536 642.79825 137.543 653.6492 97.75 670.6875 C 80.8582 678.4176 117.2957 758.0427 134.1875 750.3125 C 168.1572 734.2516 204.69955 724.9317 241.09375 716.25 C 246.31236 715.06434 251.54278 713.93713 256.78125 712.875 C 247.59659 745.64152 239.1542 778.61079 231.96875 811.90625 C 223.86795 850.95205 221.15275 890.71115 229.03125 929.90625 C 230.58445 934.34365 232.16555 938.78145 233.71875 943.21875 C 240.74515 960.40645 321.74515 927.28135 314.71875 910.09375 C 314.53305 910.27775 314.3731 910.47225 314.1875 910.65625 C 306.5007 884.25715 311.64915 855.9268 315.53125 829.375 C 324.32406 785.68889 335.70065 742.6508 348.375 699.96875 C 365.76836 698.46096 383.23002 697.39339 400.6875 696.71875 C 433.2866 696.45155 466.26845 697.37035 497.96875 705.59375 C 499.92935 706.39685 501.88325 707.1969 503.84375 708 C 509.88735 713.3024 499.484 706.50275 499.3125 706.59375 C 498.6052 706.96995 499.16875 708.17115 499.09375 708.96875 C 499.63095 736.82285 494.2 764.3463 488.9375 791.5625 C 481.8724 821.9043 475.93485 853.0125 463.53125 881.75 C 463.14665 882.21085 462.99507 882.38374 462.71875 882.71875 C 461.00415 901.43367 512.71183 953.6115 525.03125 941.875 C 540.62475 923.5779 534.4281 933.00485 544.3125 914.09375 C 557.4277 879.77835 565.7623 843.9201 573.5 808.0625 C 580.8875 770.5291 588.58445 732.33695 584.96875 693.90625 C 576.16265 652.43535 559.0538 632.7905 518 621 C 478.2926 612.1444 437.6278 609.90495 397 611.21875 C 389.90905 611.54904 382.83424 611.90769 375.75 612.34375 C 387.28217 575.80384 398.86073 539.13335 414.71875 504.28125 C 419.11855 496.30665 402.92332 482.0827 384.21875 471.5625 C 403.37615 468.42191 426.47981 463.89897 439.625 466.71875 C 439.71898 466.69223 439.8117 466.65501 439.90625 466.625 C 448.49157 469.25766 455.36797 469.34958 457.90625 465.28125 C 467.56975 448.93925 463.22045 457.2417 470.96875 440.4375 C 483.00845 409.405 492.0109 377.34205 501.3125 345.40625 C 511.4614 309.61955 522.8788 273.54415 524.125 236.09375 C 523.3947 229.39275 523.525 222.51975 521.9375 215.96875 C 513.2845 180.25915 484.1172 160.70265 449.6875 154.28125 C 435.74025 152.55734 421.78635 151.74645 407.84375 151.6875 z M 439.625 466.71875 C 439.24514 466.82595 438.8699 466.88875 438.5 466.9375 C 439.77898 467.10121 441.06477 467.27376 442.34375 467.4375 C 441.50248 467.15235 440.57743 466.92306 439.625 466.71875 z M 438.5 466.9375 C 437.41928 466.79916 436.33072 466.66961 435.25 466.53125 C 436.26828 466.9742 437.36883 467.08659 438.5 466.9375 z M 462.71875 882.71875 C 462.75741 882.29682 462.84347 881.88678 462.9375 881.5 C 461.24318 884.47738 461.04816 884.74415 462.71875 882.71875 z M 814.53125 180.625 C 788.26412 180.90244 748.48388 192.76772 750.9375 205.28125 C 761.8886 256.75245 765.91335 309.31745 769.34375 361.71875 C 773.49245 449.98415 773.20935 538.39495 775.40625 626.71875 C 776.99965 697.28615 781.7065 767.7078 787.9375 838 C 790.8768 873.2718 795.6612 908.3873 797.4375 943.75 C 797.91234 960.01167 796.8686 958.96486 798.1875 952.53125 C 798.95378 978.32371 808.02984 1011.4048 819.5 1009.7812 C 829.4289 1008.2412 839.53195 1009.5021 849.34375 1006.7188 C 856.56575 1002.5164 865.0073 999.9477 871 994.125 C 886.887 978.6886 885.96495 957.8302 884.40625 938.0625 C 881.57695 901.9523 876.48655 866.06885 872.90625 830.03125 C 866.14505 761.66865 861.1385 693.1254 859.25 624.4375 C 856.6667 535.1872 856.77345 445.9143 853.40625 356.6875 C 850.30935 300.4005 846.2799 244.09835 836.75 188.46875 C 835.63472 182.78078 826.47085 180.49889 814.53125 180.625 z M 197.75 221.09375 C 207.87551 245.24386 236.40523 279.29831 247.21875 271.71875 C 273.36415 256.68155 303.59915 250.83515 332.84375 245.03125 C 367.38915 239.29405 402.7941 234.24535 437.625 240.15625 C 437.65587 240.16712 437.68783 240.17673 437.71875 240.1875 C 437.48255 240.42822 437.3462 240.99446 437.125 241.28125 C 433.6643 268.74175 425.7384 295.34335 418.25 321.90625 C 412.2237 342.04178 406.55412 362.34064 399.8125 382.25 C 382.88154 384.15596 365.97459 386.9505 349.09375 389.21875 C 316.10652 394.17421 283.18122 399.44219 250.3125 405.125 C 250.97424 400.94112 250.31584 397.6651 247.96875 395.875 L 247.65625 397.09375 C 228.61495 378.09885 222.20225 349.42005 214.71875 324.59375 C 206.90185 290.52665 200.64985 256.09225 197.78125 221.21875 C 197.77665 221.17552 197.75553 221.13667 197.75 221.09375 z M 438.53125 240.4375 C 440.46612 241.0639 442.4605 241.57106 444.28125 242.46875 C 445.12375 242.88415 446.3125 243.46685 446.3125 244.40625 C 446.30416 246.55418 439.88189 241.41543 438.53125 240.4375 z M 659.90625 375.5 C 647.95243 375.71415 638.86041 378.24391 637.90625 383.96875 C 633.68145 427.51715 633.84775 471.38475 632.78125 515.09375 C 631.76755 558.03355 630.2525 601.0663 635.1875 643.8125 L 638.6875 659.03125 C 643.4892 676.90155 727.7392 654.2453 722.9375 636.375 C 722.4015 635.092 721.87975 633.81425 721.34375 632.53125 C 715.47615 594.43635 717.9633 555.66045 718.3125 517.28125 C 719.3866 477.63625 719.40225 437.7749 724.28125 398.375 C 726.38033 385.78034 686.20464 375.02887 659.90625 375.5 z M 464.625 878.46875 C 463.78426 879.26971 463.23068 880.27222 462.9375 881.4375 C 463.41729 880.59396 463.93127 879.74271 464.625 878.46875 z "
     id="path20245" />
</svg>
