<?xml version="1.0" encoding="utf-8" ?>

<!DOCTYPE svg PUBLIC "-//W3C//DTD SVG 1.1//EN" 
  "http://www.w3.org/Graphics/SVG/1.1/DTD/svg11.dtd">
<svg 
    xmlns="http://www.w3.org/2000/svg"
    xmlns:xlink="http://www.w3.org/1999/xlink"
    xmlns:sodipodi="http://sodipodi.sourceforge.net/DTD/sodipodi-0.dtd"
    xmlns:inkscape="http://www.inkscape.org/namespaces/inkscape"
    width="1024" height="1024" id="U52A9">
<path d="m 9406.7776,65870.989 c -8.1513,32.548 -6.734,66.68 -6.3598,99.955 1.4037,62.996 6.0708,125.85 11.5269,188.605 3.8788,38.965 7.3676,78.027 13.3714,116.738 2.4907,18.499 -84.7149,30.241 -87.2056,11.742 l 0,0 c -4.7059,-40.336 -8.1748,-80.808 -11.7264,-121.258 -5.3015,-64.709 -10.123,-129.484 -12.2057,-194.391 -0.9127,-42.172 -2.3148,-85.045 7.649,-126.376 5.3002,-18.021 90.2504,6.965 84.9502,24.985 z" id="path15359" inkscape:connector-curvature="0" style="fill:#2b1100;fill-opacity:1;fill-rule:nonzero;stroke:none" transform="translate(-9216, -65536)"/><path d="m 9385.2862,65809.869 c 25.9401,-24.431 58.6337,-36.607 92.6892,-44.606 32.4535,-6.573 64.4906,-6.339 95.9624,3.878 42.2881,19.878 48.8055,61.598 52.4938,103.549 2.9421,55.619 2.6143,111.355 2.7779,167.034 0.1927,61.581 -0.366,123.16 -0.9095,184.737 -0.9434,37.439 0.6758,74.943 -1.1993,112.356 -0.428,3.427 -0.8561,6.853 -1.2842,10.28 -2.9714,18.525 -90.3008,4.517 -87.3293,-14.008 l 0,0 c 0.2457,-0.774 0.4915,-1.549 0.7373,-2.323 3.4024,-35.623 1.3227,-71.595 2.904,-107.306 0.8805,-61.105 1.5777,-122.216 1.2326,-183.33 -0.3469,-53.171 -0.299,-106.414 -3.7409,-159.495 -0.2601,-2.699 -4.5823,-26.878 -3.6152,-30.607 0.1929,-0.743 6.3231,3.311 7.3261,1.788 -9.604,-8.106 -34.77,-1.578 -46.068,-1.136 -17.7058,3.731 -35.4075,8.75 -49.0144,21.384 -13.1934,13.356 -76.156,-48.839 -62.9625,-62.195 z" id="path15361" inkscape:connector-curvature="0" style="fill:#2b1100;fill-opacity:1;fill-rule:nonzero;stroke:none" transform="translate(-9216, -65536)"/><path d="m 9380.8839,65944.751 c 33.1111,-7.23 66.2616,-14.221 99.6556,-20.019 22.6834,-4.09 45.5505,-5.941 68.5632,-5.981 18.636,0.256 17.4278,88.107 -1.2083,87.851 l 0,0 c -17.635,-0.711 -35.1451,1.135 -52.5533,3.998 -31.2647,5.346 -62.3216,11.894 -92.998,19.988 -18.2087,4.552 -39.6679,-81.285 -21.4592,-85.837 z" id="path15363" inkscape:connector-curvature="0" style="fill:#2b1100;fill-opacity:1;fill-rule:nonzero;stroke:none" transform="translate(-9216, -65536)"/><path d="m 9380.9365,66084.536 c 29.7224,-7.206 59.5925,-13.441 89.9009,-17.569 24.3722,-3.354 48.4769,-2.463 72.2567,3.55 17.9643,5.357 -7.2864,90.041 -25.2507,84.685 l 0,0 c -11.0479,-3.56 -23.7847,-2.612 -35.578,-1.486 -27.7396,3.499 -55.0175,9.468 -81.9108,17.123 -18.3076,4.119 -37.7257,-82.184 -19.4181,-86.303 z" id="path15365" inkscape:connector-curvature="0" style="fill:#2b1100;fill-opacity:1;fill-rule:nonzero;stroke:none" transform="translate(-9216, -65536)"/><path d="m 9331.1571,66365.352 c 40.1922,-10.665 77.2508,-30.794 113.9878,-49.795 41.4105,-21.467 81.6657,-45.091 123.0227,-66.649 13.6577,-8.137 26.5435,-9.926 42.1062,-11.549 18.8037,0.724 15.3897,89.366 -3.414,88.641 l 0,0 c 22.5678,-4.656 5.689,-1.738 0.7088,1.107 -41.6623,20.153 -81.6645,43.586 -122.8025,64.765 -45.1019,23.5 -90.5754,48.265 -140.1647,60.868 -18.5377,2.852 -31.9819,-84.536 -13.4443,-87.388 z" id="path15367" inkscape:connector-curvature="0" style="fill:#2b1100;fill-opacity:1;fill-rule:nonzero;stroke:none" transform="translate(-9216, -65536)"/><path d="m 9702.6227,65942.574 c 39.0706,-10.927 79.3553,-16.144 119.6118,-20.287 44.0064,-4.336 88.1825,-4.183 131.954,2 36.8144,5.455 66.9845,22.548 92.5935,48.889 26.981,31.827 32.991,70.72 32.813,111.052 -3.016,45.45 -14.608,89.731 -24.547,134.022 -8.364,35.914 -14.688,72.227 -20.569,108.611 -1.314,12.233 -4.78,23.715 -8.821,35.25 -7.063,17.384 -89.0096,-15.909 -81.9473,-33.292 l 0,0 c 0.3066,-0.815 6.1319,-15.342 4.3524,-16.682 6.7644,-37.751 13.683,-75.477 22.3596,-112.849 8.5921,-38.403 18.4867,-76.802 21.829,-116.111 0.4376,-17.374 0.2637,-35.359 -9.9175,-50.267 -10.388,-13.039 -24.9058,-19.18 -41.1455,-22.21 -36.4008,-5.945 -73.3295,-5.534 -110.0066,-2.137 -34.1448,3.571 -68.4961,7.774 -101.3736,18.098 -17.8374,5.767 -45.0233,-78.32 -27.1858,-84.087 z" id="path15369" inkscape:connector-curvature="0" style="fill:#2b1100;fill-opacity:1;fill-rule:nonzero;stroke:none" transform="translate(-9216, -65536)"/><path d="m 9989.2581,65813.007 c -25.2931,41.665 -44.8807,86.504 -64.7581,130.913 -33.2243,74.386 -63.4023,150.046 -91.1412,226.632 -18.9763,52.863 -35.4209,106.577 -47.9896,161.319 -3.1128,14.165 -5.7697,28.423 -8.404,42.682 -3.62,18.28 -89.7924,1.215 -86.1724,-17.065 l 0,0 c 3.2218,-15.287 6.4195,-30.58 10.0214,-45.784 14.2434,-57.753 32.2148,-114.459 52.6924,-170.308 28.7635,-78.17 59.743,-155.483 92.9218,-231.89 21.1124,-48.617 42.1545,-97.433 68.1625,-143.688 10.0104,-15.84 84.6777,31.35 74.6672,47.189 z" id="path15371" inkscape:connector-curvature="0" style="fill:#2b1100;fill-opacity:1;fill-rule:nonzero;stroke:none" transform="translate(-9216, -65536)"/></svg>