<?xml version="1.0" encoding="UTF-8" standalone="no"?>
<svg
   xmlns:dc="http://purl.org/dc/elements/1.1/"
   xmlns:cc="http://creativecommons.org/ns#"
   xmlns:rdf="http://www.w3.org/1999/02/22-rdf-syntax-ns#"
   xmlns:svg="http://www.w3.org/2000/svg"
   xmlns="http://www.w3.org/2000/svg"
   xmlns:sodipodi="http://sodipodi.sourceforge.net/DTD/sodipodi-0.dtd"
   xmlns:inkscape="http://www.inkscape.org/namespaces/inkscape"
   width="1024"
   height="1024"
   id="U529B"
   version="1.1"
   inkscape:version="0.48.0 r9654"
   sodipodi:docname="U+529B.svg">
  <metadata
     id="metadata9">
    <rdf:RDF>
      <cc:Work
         rdf:about="">
        <dc:format>image/svg+xml</dc:format>
        <dc:type
           rdf:resource="http://purl.org/dc/dcmitype/StillImage" />
      </cc:Work>
    </rdf:RDF>
  </metadata>
  <defs
     id="defs7" />
  <sodipodi:namedview
     pagecolor="#ffffff"
     bordercolor="#666666"
     borderopacity="1"
     objecttolerance="10"
     gridtolerance="10"
     guidetolerance="10"
     inkscape:pageopacity="0"
     inkscape:pageshadow="2"
     inkscape:window-width="640"
     inkscape:window-height="480"
     id="namedview5"
     showgrid="false"
     inkscape:zoom="0.27441406"
     inkscape:cx="512"
     inkscape:cy="512"
     inkscape:window-x="0"
     inkscape:window-y="25"
     inkscape:window-maximized="0"
     inkscape:current-layer="U529B" />
  <path
     style="fill:#2b0000;fill-opacity:1;fill-rule:nonzero;stroke:#f9f9f9;stroke-width:0.1;stroke-miterlimit:4;stroke-dasharray:none"
     d="M 593.5625 174.53125 C 591.09077 174.66287 589.15139 175.4928 587.90625 177.125 C 562.49615 213.646 542.152 253.3455 521.3125 292.5625 C 500.65484 330.94894 480.77927 369.74263 461.625 408.875 C 435.9641 412.49377 410.38508 416.60285 384.90625 421.40625 C 344.84225 429.02625 304.9094 437.3125 265.1875 446.5625 C 247.0052 451.1415 268.59885 536.86125 286.78125 532.28125 C 324.56545 521.88925 362.9518 513.88925 401.375 506.28125 C 406.62384 505.2525 411.86519 504.24252 417.125 503.28125 C 387.74617 569.04739 362.43877 636.49524 338.78125 704.5 C 326.12035 741.68 314.37835 779.1635 302.78125 816.6875 C 299.88695 826.0635 296.9953 835.46075 294.125 844.84375 C 288.8985 862.93675 374.17975 887.56175 379.40625 869.46875 C 381.92735 860.18575 384.48805 850.91625 387.09375 841.65625 C 397.44745 805.03725 408.11925 768.502 420.09375 732.375 C 442.97755 664.516 467.7924 597.267 497.375 532 C 504.05575 517.42627 510.86438 502.91049 517.75 488.4375 C 534.37702 486.47201 551.02554 484.7001 567.6875 483.0625 C 606.4957 479.3545 645.4826 479.856 684.25 483.5 C 697.81126 485.25754 711.57039 487.65851 724.21875 493 C 724.08987 493.31201 724.02043 493.74236 724 494.34375 C 722.7396 518.74475 716.9867 542.71725 711.875 566.53125 C 700.3312 617.53025 687.92365 668.32975 675.90625 719.21875 C 666.95375 757.42975 658.85345 795.842 650.21875 834.125 C 647.24185 846.128 648.80855 840.82775 645.84375 850.09375 C 640.66155 868.07975 725.4429 892.51725 730.625 874.53125 C 734.4599 860.31525 732.64295 867.62675 735.96875 852.59375 C 743.74945 814.65875 751.4509 776.6955 760.0625 738.9375 C 771.9627 687.6675 784.4773 636.556 796.75 585.375 C 804.405 551.854 813.43995 517.789 811.53125 483.125 C 806.99375 453.722 794.99955 428.64575 766.78125 415.34375 C 742.91745 404.85675 717.68465 398.4905 691.65625 396.3125 C 648.8831 392.98702 605.93268 392.69072 563.1875 396.78125 C 574.20011 375.49678 585.46276 354.34705 597.03125 333.34375 C 616.08185 298.43275 634.5074 262.80525 658.25 230.78125 C 668.38896 217.49045 613.68947 173.45951 593.5625 174.53125 z M 728.25 494.8125 C 728.80559 495.08173 729.35589 495.34263 729.90625 495.625 C 730.69442 497.6339 729.65709 496.32605 728.25 494.8125 z "
     id="path9690" />
</svg>
