<?xml version="1.0" encoding="UTF-8" standalone="no"?>
<svg
   xmlns:dc="http://purl.org/dc/elements/1.1/"
   xmlns:cc="http://creativecommons.org/ns#"
   xmlns:rdf="http://www.w3.org/1999/02/22-rdf-syntax-ns#"
   xmlns:svg="http://www.w3.org/2000/svg"
   xmlns="http://www.w3.org/2000/svg"
   xmlns:sodipodi="http://sodipodi.sourceforge.net/DTD/sodipodi-0.dtd"
   xmlns:inkscape="http://www.inkscape.org/namespaces/inkscape"
   width="1024"
   height="1024"
   id="U529E"
   version="1.1"
   inkscape:version="0.48.0 r9654"
   sodipodi:docname="U+529E.svg">
  <metadata
     id="metadata11">
    <rdf:RDF>
      <cc:Work
         rdf:about="">
        <dc:format>image/svg+xml</dc:format>
        <dc:type
           rdf:resource="http://purl.org/dc/dcmitype/StillImage" />
      </cc:Work>
    </rdf:RDF>
  </metadata>
  <defs
     id="defs9" />
  <sodipodi:namedview
     pagecolor="#ffffff"
     bordercolor="#666666"
     borderopacity="1"
     objecttolerance="10"
     gridtolerance="10"
     guidetolerance="10"
     inkscape:pageopacity="0"
     inkscape:pageshadow="2"
     inkscape:window-width="640"
     inkscape:window-height="480"
     id="namedview7"
     showgrid="false"
     inkscape:zoom="0.27441406"
     inkscape:cx="512"
     inkscape:cy="512"
     inkscape:window-x="0"
     inkscape:window-y="25"
     inkscape:window-maximized="0"
     inkscape:current-layer="U529E" />
  <path
     style="fill:#aa0000;fill-opacity:1;fill-rule:nonzero;stroke:#f9f9f9;stroke-width:0.1;stroke-miterlimit:4;stroke-dasharray:none"
     d="M 403.125 112.34375 C 399.61269 112.45748 397.00715 113.49983 395.6875 115.75 C 369.116 171.8281 350.1956 231.22225 329.5625 289.65625 C 320.61502 315.12326 311.50299 340.52707 302.3125 365.90625 C 276.7642 368.77657 251.2821 372.34798 225.875 376.5625 C 183.3124 383.647 140.66035 391.08055 99.53125 404.46875 C 81.95645 410.55235 110.6127 493.3961 128.1875 487.3125 C 164.3065 473.8645 202.47285 467.2992 240.28125 460.625 C 249.98215 458.9383 259.67938 457.34766 269.40625 455.875 C 256.18812 491.79545 242.937 527.70217 229.8125 563.65625 C 204.7982 630.94145 183.02745 699.34595 160.65625 767.53125 C 158.87805 772.39795 157.0907 777.2583 155.3125 782.125 C 149.3601 799.4903 231.235 827.5529 237.1875 810.1875 L 242.65625 793.28125 C 262.92655 725.74485 283.6407 658.3294 308 592.125 C 325.74936 543.20403 343.81439 494.38038 361.84375 445.5625 C 383.40794 444.07025 405.02383 443.2569 426.6875 443.21875 C 462.6989 444.44485 499.71145 448.8212 529.46875 470.5625 C 546.83145 486.5599 547.3183 509.5952 547.875 531.6875 C 545.0869 583.8997 531.4565 634.7997 519.3125 685.4375 C 508.3075 727.9777 500.38525 771.15435 492.15625 814.28125 C 490.16515 822.41155 490.35625 824.3574 490.28125 819.8125 C 483.71065 837.2295 565.8045 868.19835 572.375 850.78125 C 576.7331 836.51315 574.99505 843.65995 577.71875 829.34375 C 584.44875 787.70055 591.72065 746.1633 602.15625 705.25 C 616.02025 647.1039 631.8052 588.6731 633.875 528.625 C 631.6267 475.3639 621.3816 432.53145 577.125 398.40625 C 528.7175 367.96575 483.1733 358.78635 426.125 358.09375 C 415.31459 358.21114 404.50839 358.48371 393.71875 358.90625 C 398.68772 345.27804 403.64663 331.61648 408.5625 317.96875 C 427.9171 264.80875 445.6886 210.6358 471.125 160 C 479.18955 146.24888 424.5891 111.64876 403.125 112.34375 z M 146.1875 502.5 C 145.3187 502.55705 144.48305 502.7693 143.71875 503.1875 C 108.31075 525.617 79.71875 556.81835 51.65625 587.53125 C 32.61575 612.91015 0.2386 639.8981 -8.0625 671.8125 C -10.1973 680.0199 -10.1831 688.6493 -11.25 697.0625 C -11.007729 713.48777 57.594022 714.32169 73.03125 701.40625 C 73.182362 700.90576 73.359636 700.45451 73.5 700.15625 C 75.1722 696.60235 77.2721 693.2768 79.4375 690 C 89.9282 674.1249 102.62795 659.8628 115.03125 645.5 C 136.66655 621.8724 158.51795 597.3532 185.78125 580.0625 C 201.32195 571.5591 163.85312 501.33995 146.1875 502.5 z M 73.03125 701.40625 C 72.526511 703.07798 72.091445 705.32014 72.65625 704.375 C 73.533009 702.9078 74.155025 701.30964 74.71875 699.6875 C 74.26429 700.28579 73.687095 700.85754 73.03125 701.40625 z M 74.71875 699.6875 C 75.638721 698.47637 76.145836 697.16261 76.125 695.75 C 75.611279 697.03408 75.174896 698.37492 74.71875 699.6875 z M 746.46875 548.09375 C 724.19415 548.15318 670.87326 580.61034 678.5 594.3125 C 693.8931 621.1252 714.05145 644.5663 734.71875 667.375 C 747.08485 680.9877 811.2411 622.70635 798.875 609.09375 C 782.648 591.28215 766.3597 573.20125 755.0625 551.71875 C 753.65016 549.18131 750.59368 548.08274 746.46875 548.09375 z "
     id="path19719" />
</svg>
