<?xml version="1.0" encoding="utf-8" ?>

<!DOCTYPE svg PUBLIC "-//W3C//DTD SVG 1.1//EN" 
  "http://www.w3.org/Graphics/SVG/1.1/DTD/svg11.dtd">
<svg 
    xmlns="http://www.w3.org/2000/svg"
    xmlns:xlink="http://www.w3.org/1999/xlink"
    xmlns:sodipodi="http://sodipodi.sourceforge.net/DTD/sodipodi-0.dtd"
    xmlns:inkscape="http://www.inkscape.org/namespaces/inkscape"
    width="1024" height="1024" id="U5212">
<path d="m 11349.462,18815.09 c 35.249,-1.018 70.248,-6.078 105.069,-11.332 40.022,-6.123 79.539,-14.965 118.666,-25.287 8.132,-2.166 16.184,-4.514 23.808,-8.086 17.184,-6.975 50.063,74.031 32.879,81.006 l 0,0 c -11.58,4.408 -23.275,8.379 -35.399,11.079 -41.979,10.232 -84.23,19.376 -126.929,26.104 -38.514,6.011 -77.159,11.585 -116.09,14.057 -18.57,0.425 -20.575,-87.116 -2.004,-87.541 z" id="path24853" inkscape:connector-curvature="0" style="fill:#550000;fill-opacity:1;fill-rule:nonzero;stroke:#f9f9f9;stroke-width:0.1;stroke-miterlimit:4;stroke-dasharray:none" transform="translate(-11264, -18432)"/><path d="m 11501.302,18663.337 c 8.935,48.107 18.045,96.182 27.026,144.281 13.678,76.829 29.95,153.113 49.673,228.612 16.878,63.995 40.456,125.791 70.803,184.546 16.702,24.756 31.076,60.252 59.741,74.085 -2.581,-5.16 -0.291,-1.858 -11.045,-4.834 18.434,-2.013 27.925,84.884 9.492,86.898 l 0,0 c -33.086,-1.301 -17.979,2.252 -45.672,-9.033 -39.216,-27.415 -66.353,-66.393 -88.482,-108.456 -32.417,-64.537 -58.123,-132.031 -76.272,-202.016 -20.039,-77.298 -36.79,-155.339 -51.515,-233.825 -9.35,-47.457 -18.567,-94.961 -29.294,-142.129 -3.846,-18.147 81.699,-36.276 85.545,-18.129 z" id="path24855" inkscape:connector-curvature="0" style="fill:#550000;fill-opacity:1;fill-rule:nonzero;stroke:#f9f9f9;stroke-width:0.1;stroke-miterlimit:4;stroke-dasharray:none" transform="translate(-11264, -18432)"/><path d="m 11708.77,19014.625 c -22.101,3.937 -39.277,21.844 -54.879,36.518 -41.74,44.028 -76.019,94.407 -109.665,144.694 -28.069,42.954 -54.408,86.998 -81.866,130.339 -7.717,12.555 -16.13,24.624 -24.852,36.489 -11.154,14.737 -80.622,-37.846 -69.468,-52.582 l 0,0 c 7.766,-9.845 15.02,-20.051 21.783,-30.62 28.402,-43.367 55.39,-87.637 83.936,-130.911 37.384,-55.559 75.319,-111.308 121.573,-159.987 34.186,-31.874 71.716,-61.901 120.965,-61.255 18.522,1.597 10.995,88.912 -7.527,87.315 z" id="path24857" inkscape:connector-curvature="0" style="fill:#550000;fill-opacity:1;fill-rule:nonzero;stroke:#f9f9f9;stroke-width:0.1;stroke-miterlimit:4;stroke-dasharray:none" transform="translate(-11264, -18432)"/><path d="m 11620.68,18592.516 c 25.25,13.079 47.926,29.891 68.324,49.595 3.353,3.871 6.707,7.743 10.061,11.614 11.901,14.127 -54.694,70.228 -66.594,56.101 l 0,0 c -1.532,-1.928 -3.064,-3.855 -4.596,-5.783 -13.377,-13.742 -29.115,-24.775 -46.369,-33.181 -16.619,-8.31 22.554,-86.656 39.174,-78.346 z" id="path24859" inkscape:connector-curvature="0" style="fill:#550000;fill-opacity:1;fill-rule:nonzero;stroke:#f9f9f9;stroke-width:0.1;stroke-miterlimit:4;stroke-dasharray:none" transform="translate(-11264, -18432)"/><path d="m 11896.957,18777.42 c -2.79,39.697 -5.346,79.411 -7.897,119.125 -3.873,53.178 -5.869,106.448 -5.609,159.762 -0.06,14.287 0.525,28.543 1.755,42.77 1.137,18.442 -85.8,23.799 -86.936,5.357 l 0,0 c -0.685,-16.09 -1.045,-32.185 -0.763,-48.292 0.459,-54.962 2.688,-109.873 6.26,-164.723 2.196,-39.25 4.543,-78.507 5.627,-117.806 0.808,-18.575 88.371,-14.768 87.563,3.807 z" id="path24861" inkscape:connector-curvature="0" style="fill:#550000;fill-opacity:1;fill-rule:nonzero;stroke:#f9f9f9;stroke-width:0.1;stroke-miterlimit:4;stroke-dasharray:none" transform="translate(-11264, -18432)"/><path d="m 12078.839,18671.406 c -5.874,41.966 -7.325,84.421 -9.342,126.705 -2.454,68.974 -6.334,137.863 -11.666,206.672 -5.177,64.995 -12.582,129.779 -19.5,194.603 -4.122,35.256 -5.748,70.818 -11.636,105.847 -5.477,30.852 -25.429,52.717 -47.876,72.888 -13.723,12.328 -71.837,-52.364 -58.114,-64.692 l 0,0 c 7.644,-6.863 17.237,-13.487 20.246,-23.721 6.588,-32.89 7.772,-66.635 12.453,-99.806 7.441,-63.795 15.055,-127.587 20.119,-191.626 5.217,-67.87 8.882,-135.825 10.824,-203.872 1.783,-45.245 3.228,-90.562 7.918,-135.623 2.678,-18.365 89.253,-5.74 86.574,12.625 z" id="path24863" inkscape:connector-curvature="0" style="fill:#550000;fill-opacity:1;fill-rule:nonzero;stroke:#f9f9f9;stroke-width:0.1;stroke-miterlimit:4;stroke-dasharray:none" transform="translate(-11264, -18432)"/></svg>