<?xml version="1.0" encoding="UTF-8" standalone="no"?>
<svg
   xmlns:dc="http://purl.org/dc/elements/1.1/"
   xmlns:cc="http://creativecommons.org/ns#"
   xmlns:rdf="http://www.w3.org/1999/02/22-rdf-syntax-ns#"
   xmlns:svg="http://www.w3.org/2000/svg"
   xmlns="http://www.w3.org/2000/svg"
   xmlns:sodipodi="http://sodipodi.sourceforge.net/DTD/sodipodi-0.dtd"
   xmlns:inkscape="http://www.inkscape.org/namespaces/inkscape"
   width="1024"
   height="1024"
   id="U52B3"
   version="1.1"
   inkscape:version="0.48.0 r9654"
   sodipodi:docname="U+52B3.svg">
  <metadata
     id="metadata14">
    <rdf:RDF>
      <cc:Work
         rdf:about="">
        <dc:format>image/svg+xml</dc:format>
        <dc:type
           rdf:resource="http://purl.org/dc/dcmitype/StillImage" />
      </cc:Work>
    </rdf:RDF>
  </metadata>
  <defs
     id="defs12" />
  <sodipodi:namedview
     pagecolor="#ffffff"
     bordercolor="#666666"
     borderopacity="1"
     objecttolerance="10"
     gridtolerance="10"
     guidetolerance="10"
     inkscape:pageopacity="0"
     inkscape:pageshadow="2"
     inkscape:window-width="640"
     inkscape:window-height="480"
     id="namedview10"
     showgrid="false"
     inkscape:zoom="0.27441406"
     inkscape:cx="512"
     inkscape:cy="512"
     inkscape:window-x="0"
     inkscape:window-y="25"
     inkscape:window-maximized="0"
     inkscape:current-layer="U52B3" />
  <path
     style="fill:#2b0000;fill-opacity:1;fill-rule:nonzero;stroke:#f9f9f9;stroke-width:0.1;stroke-miterlimit:4;stroke-dasharray:none"
     d="M 587.9375 131.4375 C 583.77227 131.42976 580.70534 132.56156 579.28125 135.125 C 565.65687 161.98673 552.40307 189.02625 539.0625 216.03125 C 531.20338 216.57449 523.35304 217.14169 515.5 217.78125 C 485.62968 220.45103 455.80009 223.60554 426.0625 227.4375 C 426.97682 217.15516 428.22336 206.89338 429.90625 196.6875 C 432.94455 178.1815 345.69455 163.868 342.65625 182.375 C 340.19091 201.84997 338.69094 221.38378 337.8125 240.96875 C 303.05812 247.14123 268.48297 254.05824 234.03125 261.78125 C 215.76145 266.08025 236.01145 352.20425 254.28125 347.90625 C 281.90789 340.452 309.85539 334.41745 337.9375 329.03125 C 340.09685 353.90138 345.55895 378.00288 357.4375 400.625 C 371.8367 418.405 363.28945 410.225 383.65625 424.625 C 399.3285 433.11092 438.07453 363.46537 427.90625 348.65625 C 428.45985 349.15468 428.90826 349.52949 429.3125 349.875 C 426.25973 341.48478 425.18772 326.72962 424.625 314.6875 C 449.19237 311.326 473.81246 308.51294 498.5 306.15625 C 494.0481 317.68531 489.82482 329.31019 485.875 341.03125 C 482.2459 351.88325 479.43355 362.92075 477.03125 374.09375 C 473.53405 392.52275 560.40915 409.02375 563.90625 390.59375 C 564.90805 382.98975 566.99305 375.618 569.09375 368.25 C 576.44927 344.91148 585.25632 322.07688 595.21875 299.75 C 611.88145 298.96147 628.55782 298.22005 645.21875 297.40625 C 671.21805 296.14725 697.05355 293.0865 722.90625 290.1875 C 728.0829 288.67807 733.46245 288.87576 735.75 289.09375 C 734.52628 288.91102 732.29504 288.53555 728.4375 287.71875 C 717.26832 282.1932 721.56029 285.1585 713.1875 277.25 C 727.91572 287.40055 793.92328 237.33578 783.03125 222.75 C 768.94595 208.269 776.736 214.206 759.875 204.625 C 743.9407 200.1 728.54135 199.05975 712.21875 202.59375 C 688.42875 205.74675 664.5996 208.8325 640.625 210.1875 C 640.21863 210.21037 639.81263 210.22723 639.40625 210.25 C 644.9872 199.44159 650.69513 188.69805 656.59375 178.0625 C 664.28386 164.22078 610.42974 131.47928 587.9375 131.4375 z M 429.3125 349.875 C 430.45547 353.01634 431.84695 355.23495 433.625 356.0625 C 431.62032 351.40371 432.39023 352.50562 429.3125 349.875 z M 736 289.125 C 737.2663 289.30801 737.12468 289.24089 736 289.125 z M 746.625 392.875 C 735.14533 392.94982 723.678 393.45125 712.21875 394.34375 C 688.37635 396.36075 664.45645 397.2305 640.59375 398.9375 C 608.07445 401.9505 575.9649 407.65575 543.625 412.09375 C 504.4449 417.06875 465.17425 421.1745 425.96875 425.9375 C 385.33455 431.3475 344.80925 437.90375 305.03125 447.96875 C 279.37108 454.44731 253.73748 461.03551 228.1875 467.9375 C 210.41694 455.33655 190.27218 446.58838 184.875 454.09375 C 169.9243 477.51675 157.2494 502.3065 144.9375 527.1875 C 134.0219 549.2015 126.0231 572.38975 119.75 596.09375 C 116.6648 607.34475 115.95855 618.7375 116.40625 630.3125 C 117.9383 648.33079 199.51973 642.10149 204.625 624.96875 C 204.61595 625.00031 204.60135 624.99341 204.59375 625 C 204.44593 624.6047 204.69123 617.82525 205.28125 617.90625 C 209.63635 599.98625 215.54245 582.5455 223.65625 565.9375 C 227.68384 557.71325 231.75648 549.50532 236 541.375 C 241.09436 549.68901 246.56131 554.79366 251.40625 553.25 C 276.28585 545.653 301.54205 539.19225 326.71875 532.65625 C 363.08835 523.14125 400.18005 517.1265 437.40625 512.1875 C 446.95217 511.0302 456.50888 509.90377 466.0625 508.8125 C 459.05545 520.87635 452.25691 533.07786 445.59375 545.34375 C 433.71391 567.8763 421.91678 590.45234 410.125 613.03125 C 406.80282 613.39235 403.47582 613.7657 400.15625 614.15625 C 370.78545 617.60125 341.37975 621.2955 312.65625 628.5625 C 294.51745 633.4465 317.5487 718.9465 335.6875 714.0625 C 344.09323 711.59649 352.60721 709.63988 361.1875 708 C 348.21858 735.02104 336.39864 762.57999 325.6875 790.59375 C 315.6057 817.70275 308.2803 845.75225 303.625 874.28125 C 301.997 883.35925 301.8547 892.31275 302.4375 901.46875 C 304.77121 919.7236 388.76021 909.45232 390.625 891.5625 C 390.63394 892.48395 390.6554 893.24118 390.65625 893.65625 C 390.65538 892.96652 390.66869 892.00332 390.6875 891.09375 C 390.68838 891.05272 390.68749 891.00985 390.6875 890.96875 C 390.72338 889.34778 390.80161 887.78072 390.96875 887.21875 C 393.76725 864.72775 399.7248 842.75225 407.25 821.40625 C 421.4706 783.21125 438.24785 746.052 457.28125 710 C 459.75705 705.24886 462.24246 700.501 464.71875 695.75 C 480.20065 694.62994 495.7083 693.78374 511.21875 693.09375 C 537.38555 692.15775 563.5751 691.57525 589.75 692.40625 C 596.59042 693.06321 603.4754 693.24922 610.375 693.4375 C 608.00842 708.09472 604.58274 722.5771 601.125 737 C 593.987 765.162 586.39625 793.2245 578.96875 821.3125 C 574.13655 838.9345 569.3713 856.555 564.8125 874.25 C 564.55236 875.15906 564.54526 875.18036 564.375 875.75 C 564.95375 874.1309 565.80521 872.11887 566.625 871.0625 C 569.8505 866.9065 573.10315 862.491 577.59375 859.75 C 582.19715 856.93945 587.61557 855.81458 592.8125 854.25 C 577.41941 863.73606 582.37531 942.89602 600.15625 942 C 608.23125 939.754 616.9546 939.147 624.375 935.25 C 639.7028 927.2 646.95445 911.20075 650.71875 895.46875 C 654.80995 878.07375 659.32385 860.771 663.90625 843.5 C 671.30375 814.865 678.8287 786.253 686.25 757.625 C 693.0108 730.003 699.95145 702.055 700.78125 673.5 C 697.98875 637.799 683.2967 613.03575 645.625 607.21875 C 627.8222 605.44875 609.89185 605.417 592.03125 604.5 C 565.38851 603.93342 538.74965 604.48847 512.125 605.5625 C 515.38403 599.44911 518.65559 593.31989 521.9375 587.21875 C 536.2037 561.48875 550.75895 535.85625 568.28125 512.15625 C 570.66394 508.60008 568.63769 503.29509 564.03125 497.40625 C 592.12793 493.55844 620.06007 488.62432 648.34375 486.25 C 671.96775 484.823 695.61575 483.916 719.21875 482.125 C 728.34756 481.49766 737.4872 481.13846 746.625 481.125 C 744.54738 487.80836 742.43254 494.48649 740.3125 501.15625 C 731.4001 526.86625 722.1048 552.455 713.8125 578.375 C 708.9235 590.054 707.29905 606.5565 702.09375 616.5625 C 694.03845 633.5505 774.1321 671.51825 782.1875 654.53125 C 789.1209 638.46225 792.76545 621.48375 797.65625 604.71875 C 805.61725 578.91375 814.9239 553.598 823.875 528.125 C 830.4461 508.036 837.33815 487.98275 842.90625 467.59375 C 847.04815 438.48075 838.1337 412.1655 809.25 399.9375 C 795.5989 395.5835 781.60665 393.6485 767.28125 393.1875 C 760.39153 392.931 753.5128 392.83011 746.625 392.875 z M 204.625 624.96875 C 204.83742 624.25589 204.93875 623.53096 204.875 622.78125 C 204.76681 624.11044 204.67931 624.77937 204.625 624.96875 z M 779.09375 483.40625 C 780.38919 483.6285 780.77481 483.67261 779.09375 483.40625 z M 632.5 694.71875 C 633.55459 694.84394 634.60505 694.97116 635.65625 695.125 C 634.57041 695.0753 633.5204 694.94991 632.5 694.71875 z M 563.90625 877.1875 C 563.59407 878.1729 563.61721 878.08782 563.90625 877.1875 z "
     id="path9380" />
</svg>
