<?xml version="1.0" encoding="UTF-8" standalone="no"?>
<svg
   xmlns:dc="http://purl.org/dc/elements/1.1/"
   xmlns:cc="http://creativecommons.org/ns#"
   xmlns:rdf="http://www.w3.org/1999/02/22-rdf-syntax-ns#"
   xmlns:svg="http://www.w3.org/2000/svg"
   xmlns="http://www.w3.org/2000/svg"
   xmlns:sodipodi="http://sodipodi.sourceforge.net/DTD/sodipodi-0.dtd"
   xmlns:inkscape="http://www.inkscape.org/namespaces/inkscape"
   width="1024"
   height="1024"
   id="U5206"
   version="1.1"
   inkscape:version="0.48.0 r9654"
   sodipodi:docname="U+5206.svg">
  <metadata
     id="metadata11">
    <rdf:RDF>
      <cc:Work
         rdf:about="">
        <dc:format>image/svg+xml</dc:format>
        <dc:type
           rdf:resource="http://purl.org/dc/dcmitype/StillImage" />
      </cc:Work>
    </rdf:RDF>
  </metadata>
  <defs
     id="defs9" />
  <sodipodi:namedview
     pagecolor="#ffffff"
     bordercolor="#666666"
     borderopacity="1"
     objecttolerance="10"
     gridtolerance="10"
     guidetolerance="10"
     inkscape:pageopacity="0"
     inkscape:pageshadow="2"
     inkscape:window-width="640"
     inkscape:window-height="480"
     id="namedview7"
     showgrid="false"
     inkscape:zoom="0.27441406"
     inkscape:cx="512"
     inkscape:cy="512"
     inkscape:window-x="0"
     inkscape:window-y="25"
     inkscape:window-maximized="0"
     inkscape:current-layer="U5206" />
  <path
     style="fill:#550000;fill-opacity:1;fill-rule:nonzero;stroke:#f9f9f9;stroke-width:0.1;stroke-miterlimit:4;stroke-dasharray:none"
     d="M 370.3125 195.03125 C 367.86608 194.99406 365.86938 195.66205 364.53125 197.1875 C 330.54485 237.6285 299.4529 280.3005 269.375 323.6875 C 232.6228 376.8745 200.47585 432.9905 174.53125 492.1875 C 165.88995 517.0185 153.22575 544.1235 156.59375 571.3125 C 157.50505 578.6695 160.2009 585.683 162 592.875 C 167.8409 608.36974 233.65802 585.47546 243.0625 568.03125 C 242.89947 567.44401 242.75 566.78911 242.75 566.40625 C 242.7582 563.33825 243.1617 560.261 243.75 557.25 C 246.1675 544.877 249.04875 538.31475 253.34375 525.96875 C 276.02545 471.64675 305.36925 420.52625 338.90625 372.15625 C 367.38255 331.56425 396.71195 291.468 430.28125 254.875 C 441.17751 242.45256 390.23338 195.33408 370.3125 195.03125 z M 243.0625 568.03125 C 243.29932 568.88427 243.58662 569.60265 243.71875 569.0625 C 243.97935 567.99766 244.00723 566.8841 243.96875 565.78125 C 243.78283 566.51642 243.47198 567.27171 243.0625 568.03125 z M 243.96875 565.78125 C 244.29602 564.48714 244.26018 563.21885 243.8125 562.03125 C 243.79605 563.27097 243.92523 564.5341 243.96875 565.78125 z M 593.84375 227.46875 C 572.34528 227.39551 518.75004 263.59844 527.21875 277.125 C 550.51705 312.406 577.7554 344.74925 605.8125 376.28125 C 637.3556 411.05925 671.75515 443.041 706.09375 475 C 709.58065 478.362 713.0755 481.73175 716.5625 485.09375 C 729.9292 497.72375 789.46045 434.6915 776.09375 422.0625 L 764.5 411.34375 C 731.8882 381.84875 699.39615 352.1215 669.90625 319.4375 C 645.14705 291.4235 620.80045 262.7825 601.40625 230.6875 C 600.02048 228.47406 597.36168 227.48074 593.84375 227.46875 z M 598.5 532.125 C 583.55093 532.23363 568.60444 532.83875 553.65625 533.90625 C 526.00583 535.93535 498.40873 538.55079 470.90625 541.90625 C 466.35039 541.07917 462.66678 541.39906 460.4375 543.21875 C 431.86317 546.90143 403.39461 551.39333 375.0625 556.8125 C 336.0286 564.1455 297.13205 572.204 258.09375 579.5 C 239.85425 583.008 256.3855 669.008 274.625 665.5 C 313.3489 656.686 352.18445 648.42225 391.15625 640.78125 C 398.19753 639.3887 405.25164 638.07493 412.3125 636.8125 C 408.43434 645.28215 404.5818 653.76779 400.75 662.25 C 371.5188 728.207 343.3983 794.6535 315.8125 861.3125 C 302.981 892.1125 290.8659 923.1795 278.875 954.3125 C 272.4774 971.4715 353.3524 1001.658 359.75 984.5 C 370.7506 953.967 382.02965 923.52675 394.28125 893.46875 C 420.95515 827.69875 448.5349 762.268 478.125 697.75 C 489.88059 672.54841 501.58693 647.21088 514.875 622.75 C 529.80146 621.28083 544.74717 620.03145 559.71875 619 C 601.37735 616.342 643.137 617.6275 684.375 624.0625 C 682.4796 621.6495 725.57965 634.2045 715.03125 637.1875 C 713.23085 659.9905 707.1317 683.66225 701.3125 706.03125 C 688.7854 749.23325 675.74975 792.27725 662.15625 835.15625 C 658.30695 848.11125 653.26935 860.5445 647.15625 872.5625 C 639.22835 889.2035 717.6971 926.5795 725.625 909.9375 C 732.9375 893.9555 739.69905 877.81175 744.46875 860.84375 C 758.03945 816.60975 771.2593 772.245 784.375 727.875 C 796.2873 683.065 809.5502 636.3225 789.4375 591.8125 C 785.2615 585.8715 781.75205 579.408 776.90625 574 C 756.49355 551.218 725.668 543.682 696.875 538.5 C 664.23986 533.98794 631.38795 531.88601 598.5 532.125 z "
     id="path23019" />
</svg>
