<?xml version="1.0" encoding="UTF-8" standalone="no"?>
<svg
   xmlns:dc="http://purl.org/dc/elements/1.1/"
   xmlns:cc="http://creativecommons.org/ns#"
   xmlns:rdf="http://www.w3.org/1999/02/22-rdf-syntax-ns#"
   xmlns:svg="http://www.w3.org/2000/svg"
   xmlns="http://www.w3.org/2000/svg"
   xmlns:sodipodi="http://sodipodi.sourceforge.net/DTD/sodipodi-0.dtd"
   xmlns:inkscape="http://www.inkscape.org/namespaces/inkscape"
   width="1024"
   height="1024"
   id="U5230"
   version="1.1"
   inkscape:version="0.48.0 r9654"
   sodipodi:docname="U+5230.svg">
  <metadata
     id="metadata15">
    <rdf:RDF>
      <cc:Work
         rdf:about="">
        <dc:format>image/svg+xml</dc:format>
        <dc:type
           rdf:resource="http://purl.org/dc/dcmitype/StillImage" />
      </cc:Work>
    </rdf:RDF>
  </metadata>
  <defs
     id="defs13" />
  <sodipodi:namedview
     pagecolor="#ffffff"
     bordercolor="#666666"
     borderopacity="1"
     objecttolerance="10"
     gridtolerance="10"
     guidetolerance="10"
     inkscape:pageopacity="0"
     inkscape:pageshadow="2"
     inkscape:window-width="640"
     inkscape:window-height="480"
     id="namedview11"
     showgrid="false"
     inkscape:zoom="0.27441406"
     inkscape:cx="512"
     inkscape:cy="512"
     inkscape:window-x="0"
     inkscape:window-y="25"
     inkscape:window-maximized="0"
     inkscape:current-layer="U5230" />
  <path
     style="fill:#800000;fill-opacity:1;fill-rule:nonzero;stroke:#f9f9f9;stroke-width:0.1;stroke-miterlimit:4;stroke-dasharray:none"
     d="M 830.75 141.03125 C 804.95456 140.80254 771.42319 148.64975 772.625 160.1875 C 778.7159 204.8529 784.91435 249.5216 790.53125 294.25 C 801.06275 379.4208 805.8461 465.1122 809.375 550.8125 C 812.8845 631.0502 810.49945 711.31185 802.15625 791.15625 C 797.27285 833.60075 788.99725 875.6173 774.40625 915.8125 C 768.11825 932.7051 759.6557 948.49935 748.125 962.34375 C 736.6755 976.81845 804.9254 1030.7872 816.375 1016.3125 C 833.2351 994.426 847.02665 970.73955 856.03125 944.46875 C 872.08955 897.53215 881.66745 848.84495 886.53125 799.46875 C 894.34345 715.66675 896.4232 631.52335 892.6875 547.40625 C 889.1213 459.52895 884.5164 371.6419 874.875 284.1875 C 869.8784 239.8231 864.0074 195.5532 859.625 151.125 C 858.90388 144.20235 846.22726 141.16847 830.75 141.03125 z M 456.09375 146.125 C 455.81208 146.13559 455.53278 146.19674 455.25 146.25 C 410.8059 155.3298 366.6894 166.01525 322.0625 174.21875 C 277.478 182.39095 232.72615 189.6109 187.71875 195.0625 C 169.39735 197.9745 183.1161 284.31825 201.4375 281.40625 C 207.31076 280.44355 213.19002 279.49561 219.0625 278.53125 C 216.77306 283.35553 214.47172 288.19157 212.21875 293.03125 C 192.36045 336.54965 174.191 380.81025 156.75 425.34375 C 149.4667 450.76145 132.1961 478.4783 136 506.125 C 137.0101 513.4659 139.8372 520.466 141.75 527.625 C 149.0344 535.0797 154.77665 544.41065 163.59375 549.96875 C 187.30805 564.91775 225.70585 553.1658 250.96875 549.25 C 259.43499 547.98733 267.89624 546.65459 276.34375 545.28125 C 274.77667 556.39041 273.54763 567.56242 272.46875 578.71875 C 270.96219 602.91798 270.14293 627.14097 269.625 651.375 C 244.42929 657.38821 219.26521 663.45771 193.96875 669.03125 C 175.82925 673.11675 195.07925 758.61675 213.21875 754.53125 C 231.64901 749.63807 250.10859 744.86197 268.59375 740.1875 C 268.52372 748.7605 268.44546 757.33536 268.34375 765.90625 C 267.48105 803.96615 268.0844 785.3194 266.5625 821.8125 C 266.1342 833.18318 299.62474 838.6842 324.78125 836.71875 C 309.36851 845.28814 294.20771 854.30738 279.40625 863.96875 C 238.79915 891.92125 197.91305 921.84065 173.09375 965.59375 C 165.06265 982.33645 244.00015 1020.2115 252.03125 1003.4688 C 270.16615 973.75775 299.87445 953.60725 327.90625 934.15625 C 377.43955 901.63375 431.519 877.183 485.625 853.4375 C 523.7714 836.9474 562.47385 821.72635 600.53125 805.03125 C 617.32015 797.47615 581.69515 718.3199 564.90625 725.875 C 527.35145 743.2459 488.9733 758.7267 451.125 775.4375 C 417.80171 790.3098 384.4562 805.40876 352 822.125 C 353.12276 789.22614 352.72226 804.74501 353.40625 766.8125 C 353.5509 751.19953 353.66855 735.58793 353.78125 719.96875 C 387.37644 712.89556 421.21549 707.02095 455.125 701.65625 C 473.593 698.77955 464.73735 700.2548 481.71875 697.25 C 499.86065 693.773 483.48565 608.24185 465.34375 611.71875 C 450.50755 614.82605 458.62015 613.25445 440.90625 616.40625 C 412.32959 621.40991 383.78878 626.57534 355.34375 632.28125 C 355.88884 617.20593 356.63401 602.15 357.65625 587.09375 C 359.59256 567.7578 361.52908 547.92839 366.6875 529.125 C 380.88479 526.41981 395.09111 523.6718 409.28125 520.9375 C 414.14639 519.98874 419.00497 519.04758 423.875 518.125 C 424.85469 523.39646 425.78809 528.67471 426.65625 533.96875 C 429.72365 552.06695 515.03625 537.5981 511.96875 519.5 C 509.44893 505.02376 506.59832 490.62928 503.46875 476.28125 C 502.53544 461.29628 498.62509 443.87524 493.28125 432.46875 C 486.88824 404.86781 480.58528 377.24525 475.3125 349.40625 C 471.6447 331.20315 385.8322 348.4844 389.5 366.6875 C 394.73661 389.38691 400.00689 412.0907 405.28125 434.78125 C 401.20925 435.58371 397.13354 436.38019 393.0625 437.1875 C 372.19892 441.24684 351.3202 445.25727 330.40625 449.0625 C 319.67809 444.52686 310.61012 443.19975 307.4375 447.9375 C 306.28205 449.84449 305.16999 451.7846 304.09375 453.71875 C 282.28706 457.45115 260.44566 460.88476 238.5 463.75 C 237.1971 463.92824 235.96967 464.1048 234.6875 464.28125 C 235.61575 461.62355 236.43771 458.99744 236.96875 456.375 C 253.32695 413.5708 270.7606 371.1676 290.125 329.625 C 301.35732 305.96617 312.75156 282.26737 326.6875 260.0625 C 330.32691 259.39313 333.95641 258.71382 337.59375 258.03125 C 382.29035 249.88695 426.5236 239.1947 471.3125 231.5625 C 489.12762 228.20726 473.83869 145.45811 456.09375 146.125 z M 646.875 270.8125 C 621.04409 270.66705 587.47788 278.63813 588.71875 290.1875 C 594.82155 341.6656 596.15535 393.57535 597.78125 445.34375 C 599.55825 515.14505 600.0596 585.0063 606.625 654.5625 C 608.51 672.6297 693.6976 663.7547 691.8125 645.6875 C 684.0398 578.428 683.58645 510.6865 682.09375 443.0625 C 680.84495 388.9648 679.7172 334.83065 675.8125 280.84375 C 675.06801 273.91413 662.37354 270.89977 646.875 270.8125 z M 222.84375 498.25 C 223.13898 500.20486 223.37371 502.15219 223.46875 504.125 C 223.49425 504.6555 222.56325 505.93645 222.53125 505.40625 C 222.38693 503.01514 222.51394 500.62706 222.84375 498.25 z "
     id="path21779" />
</svg>
