<?xml version="1.0" encoding="UTF-8" standalone="no"?>
<svg
   xmlns:dc="http://purl.org/dc/elements/1.1/"
   xmlns:cc="http://creativecommons.org/ns#"
   xmlns:rdf="http://www.w3.org/1999/02/22-rdf-syntax-ns#"
   xmlns:svg="http://www.w3.org/2000/svg"
   xmlns="http://www.w3.org/2000/svg"
   xmlns:sodipodi="http://sodipodi.sourceforge.net/DTD/sodipodi-0.dtd"
   xmlns:inkscape="http://www.inkscape.org/namespaces/inkscape"
   width="1024"
   height="1024"
   id="U53F7"
   version="1.1"
   inkscape:version="0.48.0 r9654"
   sodipodi:docname="U+53F7.svg">
  <metadata
     id="metadata12">
    <rdf:RDF>
      <cc:Work
         rdf:about="">
        <dc:format>image/svg+xml</dc:format>
        <dc:type
           rdf:resource="http://purl.org/dc/dcmitype/StillImage" />
      </cc:Work>
    </rdf:RDF>
  </metadata>
  <defs
     id="defs10" />
  <sodipodi:namedview
     pagecolor="#ffffff"
     bordercolor="#666666"
     borderopacity="1"
     objecttolerance="10"
     gridtolerance="10"
     guidetolerance="10"
     inkscape:pageopacity="0"
     inkscape:pageshadow="2"
     inkscape:window-width="640"
     inkscape:window-height="480"
     id="namedview8"
     showgrid="false"
     inkscape:zoom="0.27441406"
     inkscape:cx="512"
     inkscape:cy="512"
     inkscape:window-x="0"
     inkscape:window-y="25"
     inkscape:window-maximized="0"
     inkscape:current-layer="U53F7" />
  <path
     style="fill:#550000;fill-opacity:1;fill-rule:nonzero;stroke:#f9f9f9;stroke-width:0.1;stroke-miterlimit:4;stroke-dasharray:none"
     d="M 557.84375 150.40625 C 521.55187 150.64798 485.23506 153.546 449.875 162.1875 C 413.9036 172.4905 378.627 185.931 350.1875 211.125 C 336.739 223.955 397.20785 287.36125 410.65625 274.53125 C 428.31165 258.91425 451.0103 251.413 473.3125 245.25 C 505.5464 237.778 538.74835 236.11325 571.71875 237.03125 C 571.48726 237.16103 576.26954 237.66911 581.90625 238.40625 C 580.76855 241.85767 580.05468 243.60455 577.6875 250.0625 C 566.0563 278.8645 553.34565 307.2265 540.90625 335.6875 C 536.3324 344.54265 532.58704 353.92016 528.65625 363.21875 C 500.24533 367.39191 471.94142 372.22904 443.40625 375.53125 C 424.3002 377.99476 405.13388 380.14412 386.03125 382.65625 C 391.42239 372.51621 394.57325 363.04124 393.25 357.40625 C 384.27039 350.77949 374.26037 311.71222 370.28125 303.78125 C 360.26895 271.10625 351.6619 238.0375 344.1875 204.6875 C 339.3702 186.7565 254.83895 209.47525 259.65625 227.40625 C 268.75715 261.31125 277.57475 295.29325 287.71875 328.90625 C 297.14895 359.07125 308.1749 388.71525 327.375 414.03125 C 331.7348 417.75925 336.10895 421.49175 340.46875 425.21875 C 341.8133 426.15948 343.42924 426.43257 345.25 426.1875 C 349.23988 450.01144 359.58382 475.69117 369.71875 473.46875 C 397.79945 467.91675 426.3314 464.942 454.6875 461.125 C 487.2044 457.31 519.4614 451.44975 552 447.84375 L 557.34375 447.8125 C 560.72051 447.62731 563.33464 444.55384 565.21875 439.6875 C 575.66076 443.55782 584.32814 444.38203 587.25 439.6875 C 600.4198 417.6055 609.91865 393.69975 620.28125 370.21875 C 633.28025 340.21775 646.80205 310.43875 659.28125 280.21875 C 671.01145 248.68075 680.38405 217.4565 661.71875 186.1875 C 657.41445 181.4885 653.6543 176.23675 648.8125 172.09375 C 628.1234 154.39175 599.25345 152.09275 573.40625 150.46875 C 568.22558 150.40387 563.0283 150.37172 557.84375 150.40625 z M 393.25 357.40625 C 393.75161 357.77643 394.25599 358.0935 394.75 358.25 C 394.06591 357.42558 393.37159 356.60541 392.6875 355.78125 C 392.92425 356.28099 393.11233 356.82 393.25 357.40625 z M 392.6875 355.78125 C 392.22616 354.80741 391.5842 354.01178 390.71875 353.40625 C 391.37476 354.19683 392.03149 354.99091 392.6875 355.78125 z M 593.34375 240.1875 C 597.4069 241.00396 600.16427 241.89679 599.21875 242.8125 C 597.63176 244.34954 595.35622 242.04268 593.34375 240.1875 z M 655.96875 483.09375 C 651.18885 483.19975 646.4048 483.3315 641.625 483.4375 C 593.2565 485.8495 544.97945 489.66525 496.59375 491.78125 C 437.98395 494.08525 379.3021 495.4365 320.8125 500.0625 C 280.634 503.4485 240.3672 507.17525 200.8125 515.28125 C 182.7949 519.75225 203.8574 604.69075 221.875 600.21875 C 256.7745 591.94375 292.63845 588.72375 328.28125 585.46875 C 338.28847 584.61231 348.32503 583.89017 358.34375 583.21875 C 350.18029 600.7272 342.47194 618.44221 335.125 636.3125 C 328.6941 655.6695 316.7546 676.34575 319.4375 697.59375 C 320.334 704.69275 322.95905 711.47025 324.71875 718.40625 C 329.96335 724.98325 334.0168 732.72125 340.4375 738.15625 C 363.0222 757.27325 397.1122 752.972 424.125 751.125 C 455.1833 748.344 486.1975 745.0895 517.375 744.0625 C 538.1166 743.4305 558.714 745.89425 578.625 751.65625 C 583.0263 752.76125 590.1478 756.1015 590.9375 758.8125 C 586.9741 754.8615 588.538 760.0815 588.625 763.6875 C 588.8878 777.4895 587.11045 791.19 584.71875 804.75 C 581.56785 818.521 578.9576 832.9145 572.125 845.4375 C 570.4432 847.8035 570.9088 847.24925 569.5 846.78125 C 555.1493 858.55625 610.6492 926.2125 625 914.4375 C 635.2455 905.2965 644.8508 896.21825 650.8125 883.53125 C 660.2216 863.21225 666.6579 841.795 670.6875 819.75 C 674.049 800.324 676.55765 780.6995 676.15625 760.9375 C 675.43145 740.0565 671.89035 719.94625 658.59375 703.03125 C 643.06945 685.55025 624.2599 673.47 601.4375 667.5 C 572.9376 660.089 543.73275 656.2375 514.21875 657.4375 C 482.23675 658.6925 450.3855 661.84325 418.5 664.53125 C 418.12054 664.55402 417.7288 664.54473 417.34375 664.5625 C 426.31618 642.49452 436.01575 620.6876 447.46875 599.78125 C 450.28536 594.62539 444.5046 586.91833 435.03125 579.28125 C 456.66549 578.41913 478.30727 577.66318 499.9375 576.8125 C 548.31 574.7745 596.5991 571.208 645 569.875 C 648.8687 569.921 652.72505 569.96 656.59375 570 C 675.03015 569.864 674.40515 482.95775 655.96875 483.09375 z M 406.84375 693.6875 C 407.17879 696.91232 407.16361 699.31252 406.0625 699.0625 C 405.53644 698.94292 405.95971 696.76592 406.84375 693.6875 z "
     id="path24537" />
</svg>
