<?xml version="1.0" encoding="UTF-8" standalone="no"?>
<svg
   xmlns:dc="http://purl.org/dc/elements/1.1/"
   xmlns:cc="http://creativecommons.org/ns#"
   xmlns:rdf="http://www.w3.org/1999/02/22-rdf-syntax-ns#"
   xmlns:svg="http://www.w3.org/2000/svg"
   xmlns="http://www.w3.org/2000/svg"
   xmlns:sodipodi="http://sodipodi.sourceforge.net/DTD/sodipodi-0.dtd"
   xmlns:inkscape="http://www.inkscape.org/namespaces/inkscape"
   width="1024"
   height="1024"
   id="U5348"
   version="1.1"
   inkscape:version="0.48.0 r9654"
   sodipodi:docname="U+5348.svg">
  <metadata
     id="metadata11">
    <rdf:RDF>
      <cc:Work
         rdf:about="">
        <dc:format>image/svg+xml</dc:format>
        <dc:type
           rdf:resource="http://purl.org/dc/dcmitype/StillImage" />
      </cc:Work>
    </rdf:RDF>
  </metadata>
  <defs
     id="defs9" />
  <sodipodi:namedview
     pagecolor="#ffffff"
     bordercolor="#666666"
     borderopacity="1"
     objecttolerance="10"
     gridtolerance="10"
     guidetolerance="10"
     inkscape:pageopacity="0"
     inkscape:pageshadow="2"
     inkscape:window-width="640"
     inkscape:window-height="480"
     id="namedview7"
     showgrid="false"
     inkscape:zoom="0.27441406"
     inkscape:cx="512"
     inkscape:cy="512"
     inkscape:window-x="0"
     inkscape:window-y="25"
     inkscape:window-maximized="0"
     inkscape:current-layer="U5348" />
  <path
     style="fill:#501616;fill-opacity:1;fill-rule:nonzero;stroke:#f9f9f9;stroke-width:0.1;stroke-miterlimit:4;stroke-dasharray:none"
     d="M 325.46875 232.28125 C 321.91024 232.25683 319.20591 233.24434 317.78125 235.46875 C 296.94105 274.77475 282.58495 317.16925 267.84375 359.03125 C 251.25145 409.43725 233.5695 459.678 222.375 511.625 C 218.7844 529.816 304.5343 546.7535 308.125 528.5625 C 316.4509 480.4045 333.8547 434.30475 348.875 387.96875 C 350.55417 383.33409 352.25662 378.67652 353.9375 374.03125 C 362.94099 397.3045 379.53451 422.07747 389.34375 417.5 C 416.52693 404.50509 445.40044 396.37272 474.75 390.28125 C 469.79407 422.42333 467.40845 455.04549 464.8125 487.375 C 461.18443 534.81681 459.26978 582.33585 458.59375 629.875 C 406.74782 633.55874 354.91827 637.68582 303.125 642.09375 C 260.014 645.37175 216.80815 649.28025 173.53125 648.53125 C 154.76215 648.37325 154.01215 736.843 172.78125 737 C 218.68805 735.927 264.44015 731.535 310.15625 727.5 C 359.5982 722.73276 409.09443 718.54889 458.625 714.90625 C 458.74293 723.53842 458.88299 732.18099 459.0625 740.8125 C 460.2171 801.6055 465.91475 862.111 474.59375 922.25 C 478.51725 944.719 476.44315 934.06025 480.78125 954.28125 C 484.96675 972.42325 570.46675 952.7045 566.28125 934.5625 C 562.33515 918.9265 564.2978 927.43775 560.5625 908.96875 C 551.2308 852.69075 545.3764 795.91175 544 738.84375 C 543.74843 728.96511 543.56664 719.09903 543.40625 709.21875 C 545.18887 709.10931 546.96728 708.98312 548.75 708.875 C 616.0482 704.853 683.4658 702.7335 750.875 704.0625 C 772.572 704.6495 794.2302 705.928 815.875 707.5 C 834.5056 708.52 839.3181 620.7075 820.6875 619.6875 C 797.768 618.8235 774.84285 617.96975 751.90625 617.71875 C 682.40855 617.38875 612.95845 619.97 543.59375 624.25 C 543.51012 624.25516 543.42738 624.27609 543.34375 624.28125 C 544.06202 581.02037 546.00542 537.77697 549.6875 494.625 C 553.23506 455.72489 556.06797 416.07078 565.78125 378.09375 C 600.7374 376.78931 635.65264 379.81294 669.75 388.71875 C 666.4093 394.07975 691.6204 390.9835 687.5 398.6875 C 701.5146 411.0185 759.6396 344.956 745.625 332.625 C 728.468 319.45 711.7636 308.7905 690.125 304.1875 C 629.9972 290.5225 568.54835 288.60475 507.40625 297.34375 C 460.99361 304.60702 414.62659 313.56284 370.5625 330.03125 C 377.04791 314.05898 384.13839 298.35006 392.375 283.21875 C 401.08133 269.6243 347.21519 232.43049 325.46875 232.28125 z "
     id="path13066" />
</svg>
