<?xml version="1.0" encoding="utf-8" ?>

<!DOCTYPE svg PUBLIC "-//W3C//DTD SVG 1.1//EN" 
  "http://www.w3.org/Graphics/SVG/1.1/DTD/svg11.dtd">
<svg 
    xmlns="http://www.w3.org/2000/svg"
    xmlns:xlink="http://www.w3.org/1999/xlink"
    xmlns:sodipodi="http://sodipodi.sourceforge.net/DTD/sodipodi-0.dtd"
    xmlns:inkscape="http://www.inkscape.org/namespaces/inkscape"
    width="1024" height="1024" id="U5382">
<path d="m 11577.618,4387.9121 c 49.172,-6.7743 98.589,-11.278 148.049,-15.3133 85.716,-6.1921 171.425,-12.4292 257.026,-20.0762 38.441,-3.408 76.801,-7.6244 115.128,-12.1108 18.167,-1.872 26.992,83.7673 8.825,85.6393 l 0,0 c -38.921,3.4715 -77.828,7.093 -116.777,10.2399 -85.587,7.0223 -171.237,13.2634 -256.804,20.5412 -47.632,4.4913 -95.307,9.1607 -142.429,17.653 -18.365,2.7616 -31.383,-83.8114 -13.018,-86.5731 z" id="path20801" inkscape:connector-curvature="0" style="fill:#800000;fill-opacity:1;fill-rule:nonzero;stroke:#f9f9f9;stroke-width:0.1;stroke-miterlimit:4;stroke-dasharray:none" transform="translate(-11264, -4096)"/><path d="m 11687.635,4443.1419 c -10.106,47.849 -19.528,95.8455 -29.266,143.7723 -17.087,87.8664 -36.507,175.2016 -59.457,261.7196 -14.072,52.3052 -31.461,103.6024 -49.538,154.6288 -6.069,16.8887 -85.683,-11.7239 -79.614,-28.6126 l 0,0 c 17.741,-48.6324 34.708,-97.5747 48.286,-147.5654 22.672,-84.6798 41.694,-170.2196 57.477,-256.4602 9.168,-48.2432 18.202,-96.5143 26.229,-144.9633 3.708,-18.2187 89.591,-0.7379 85.883,17.4808 z" id="path20803" inkscape:connector-curvature="0" style="fill:#800000;fill-opacity:1;fill-rule:nonzero;stroke:#f9f9f9;stroke-width:0.1;stroke-miterlimit:4;stroke-dasharray:none" transform="translate(-11264, -4096)"/></svg>