<?xml version="1.0" encoding="UTF-8" standalone="no"?>
<svg
   xmlns:dc="http://purl.org/dc/elements/1.1/"
   xmlns:cc="http://creativecommons.org/ns#"
   xmlns:rdf="http://www.w3.org/1999/02/22-rdf-syntax-ns#"
   xmlns:svg="http://www.w3.org/2000/svg"
   xmlns="http://www.w3.org/2000/svg"
   xmlns:sodipodi="http://sodipodi.sourceforge.net/DTD/sodipodi-0.dtd"
   xmlns:inkscape="http://www.inkscape.org/namespaces/inkscape"
   width="1024"
   height="1024"
   id="U534A"
   version="1.1"
   inkscape:version="0.48.0 r9654"
   sodipodi:docname="U+534A.svg">
  <metadata
     id="metadata12">
    <rdf:RDF>
      <cc:Work
         rdf:about="">
        <dc:format>image/svg+xml</dc:format>
        <dc:type
           rdf:resource="http://purl.org/dc/dcmitype/StillImage" />
      </cc:Work>
    </rdf:RDF>
  </metadata>
  <defs
     id="defs10" />
  <sodipodi:namedview
     pagecolor="#ffffff"
     bordercolor="#666666"
     borderopacity="1"
     objecttolerance="10"
     gridtolerance="10"
     guidetolerance="10"
     inkscape:pageopacity="0"
     inkscape:pageshadow="2"
     inkscape:window-width="640"
     inkscape:window-height="480"
     id="namedview8"
     showgrid="false"
     inkscape:zoom="0.27441406"
     inkscape:cx="512"
     inkscape:cy="512"
     inkscape:window-x="0"
     inkscape:window-y="25"
     inkscape:window-maximized="0"
     inkscape:current-layer="U534A" />
  <path
     style="fill:#aa0000;fill-opacity:1;fill-rule:nonzero;stroke:#f9f9f9;stroke-width:0.1;stroke-miterlimit:4;stroke-dasharray:none"
     d="M 396.90625 126.15625 C 386.67856 126.2276 379.1034 128.39405 377.96875 133.5 C 371.70532 185.60417 374.03643 238.37516 374.65625 290.78125 C 351.72714 275.70611 330.2775 258.56188 315.53125 234.96875 C 305.23115 219.51875 232.41875 268.0499 242.71875 283.5 C 264.83835 316.1664 294.8132 341.0343 327.25 362.8125 C 333.9109 366.5966 340.55785 370.37215 347.21875 374.15625 C 353.87153 377.89188 365.08441 366.9749 374.75 352.34375 C 374.47734 385.61266 373.75576 418.86924 372.75 452.125 C 357.57425 453.58086 342.41087 455.2172 327.28125 457.15625 C 281.72455 463.76235 235.4449 470.7434 193.125 489.8125 C 176.6632 498.4677 217.44445 576.06135 233.90625 567.40625 C 267.11915 552.09055 303.9823 546.98725 339.8125 541.53125 C 349.74294 540.18678 359.70088 539.00143 369.65625 537.90625 C 368.89312 557.01457 368.10786 576.11412 367.3125 595.21875 C 366.55504 610.60162 365.89545 625.98791 365.34375 641.375 C 350.49953 644.21334 335.6504 647.0605 320.8125 649.9375 C 266.6749 659.8498 212.47785 669.9463 157.71875 675.8125 C 139.29315 677.9117 149.1994 764.7866 167.625 762.6875 C 224.1756 754.2996 280.3306 743.5301 336.4375 732.625 C 345.44393 730.78033 354.45624 728.96679 363.46875 727.15625 C 363.21674 763.92579 363.71424 800.70165 365.125 837.46875 C 366.6681 870.24365 369.55065 902.9606 374.21875 935.4375 C 377.10585 953.6748 463.0746 940.0498 460.1875 921.8125 C 455.0418 892.65 452.1083 863.1659 450.1875 833.625 C 448.02783 792.72293 447.20878 751.77341 447.40625 710.84375 C 499.34596 701.10474 551.3821 691.99481 603.59375 683.75 C 658.14465 675.4095 712.9271 668.8013 767.75 662.5625 C 783.2909 660.3808 775.58705 661.90485 790.84375 658.03125 C 808.56835 652.39935 782.0371 568.83695 764.3125 574.46875 C 767.8962 576.19765 765.5551 574.8382 756.5 576.625 C 701.1062 584.8632 645.5317 591.96765 590.25 600.96875 C 543.14443 608.70791 496.16114 616.99901 449.21875 625.625 C 449.54671 616.61174 449.90729 607.57424 450.3125 598.5625 C 451.18934 576.07214 452.06768 553.58615 452.9375 531.09375 C 478.61332 529.61147 504.33524 528.56266 530.03125 527.71875 C 566.59525 527.06735 548.8836 527.25375 583.1875 527.21875 C 601.353 527.07255 600.6656 441.4163 582.5 441.5625 C 546.5961 442.0925 565.0916 441.7242 527 442.75 C 503.3335 443.66106 479.65625 444.66365 456 445.96875 C 457.57648 396.60697 458.70669 347.23665 458.875 297.84375 C 459.1171 249.46315 457.4629 200.5769 463.5625 152.5 C 466.46223 139.45145 423.04369 125.97392 396.90625 126.15625 z M 668.5 243.40625 C 667.63155 243.35762 666.80855 243.49034 666 243.8125 C 631.2463 258.8135 598.7199 278.24325 566.9375 298.65625 C 540.1349 316.14005 515.1508 336.1094 490.4375 356.375 C 476.3543 367.9376 530.8543 434.34385 544.9375 422.78125 C 567.0198 404.62715 589.33715 386.7177 613.34375 371.125 C 640.51225 353.7759 668.29985 336.9418 698.40625 325.125 C 714.8468 318.57446 686.15849 244.39499 668.5 243.40625 z "
     id="path19727" />
</svg>
