<?xml version="1.0" encoding="utf-8" ?>

<!DOCTYPE svg PUBLIC "-//W3C//DTD SVG 1.1//EN" 
  "http://www.w3.org/Graphics/SVG/1.1/DTD/svg11.dtd">
<svg 
    xmlns="http://www.w3.org/2000/svg"
    xmlns:xlink="http://www.w3.org/1999/xlink"
    xmlns:sodipodi="http://sodipodi.sourceforge.net/DTD/sodipodi-0.dtd"
    xmlns:inkscape="http://www.inkscape.org/namespaces/inkscape"
    width="1024" height="1024" id="U53EA">
<path d="m 8526.3644,64776.907 c 1.4924,35.386 5.9134,70.565 10.9979,105.588 4.5892,31.189 12.6564,61.669 27.6348,89.49 1.4605,2.158 2.9211,4.317 4.3817,6.476 9.9105,15.795 -64.5471,62.513 -74.4576,46.718 l 0,0 c -2.6579,-4.405 -5.3158,-8.81 -7.9736,-13.215 -18.2809,-36.848 -29.8683,-76.127 -35.5037,-116.928 -5.4763,-37.328 -10.1186,-74.774 -13.2719,-112.377 -1.2202,-18.709 86.9723,-24.46 88.1924,-5.752 z" id="path14897" inkscape:connector-curvature="0" style="fill:#2b1100;fill-opacity:1;fill-rule:nonzero;stroke:none" transform="translate(-8192, -64512)"/><path d="m 8537.0323,64731.624 c 32.7879,-7.742 66.4968,-10.201 100.0119,-12.522 40.3603,-2.896 80.8197,-2.891 121.173,-0.161 33.0186,1.953 64.4676,10.118 93.7206,25.386 26.2145,14.656 41.8844,36.466 50.2689,64.806 5.7951,33.466 -5.9249,65.324 -17.2214,96.282 -14.0135,35.751 -28.3706,71.337 -40.2557,107.866 -4.362,13.534 -7.6817,27.359 -10.9711,41.18 -4.4991,18.063 -89.6469,-3.146 -85.1478,-21.209 l 0,0 c 4.102,-15.843 8.2295,-31.689 13.3493,-47.244 12.3946,-37.201 26.7782,-73.639 40.8154,-110.241 5.3047,-14.92 10.5214,-30 13.6846,-45.5 4.8696,0.964 -5.3077,-9.046 -6.7245,-8.683 -17.4108,-10.607 -37.7833,-13.606 -57.798,-15.556 -36.1758,-2.801 -72.4801,-2.767 -108.6764,-0.06 -27.4366,2.033 -55.1779,3.862 -81.9069,10.781 -18.0581,5.159 -42.38,-79.967 -24.3219,-85.127 z" id="path14899" inkscape:connector-curvature="0" style="fill:#2b1100;fill-opacity:1;fill-rule:nonzero;stroke:none" transform="translate(-8192, -64512)"/><path d="m 8500.5068,64996.857 c 41.3531,0.293 82.6346,-3.937 123.8416,-7.026 52.3404,-4.348 104.8388,-5.72 157.3363,-6.057 23.8619,-0.02 47.7405,-0.374 71.3741,3.228 18.4381,3.416 2.3357,90.334 -16.1024,86.918 l 0,0 c -17.4532,-5.635 -37.3788,-0.84 -55.2304,-3.24 -50.2818,-0.288 -100.5796,0.732 -150.7007,5.102 -44.1541,3.55 -88.2818,8.161 -132.5744,9.479 -18.7535,-0.436 -16.6976,-88.841 2.0559,-88.404 z" id="path14901" inkscape:connector-curvature="0" style="fill:#2b1100;fill-opacity:1;fill-rule:nonzero;stroke:none" transform="translate(-8192, -64512)"/><path d="m 8592.1656,65178.371 c -17.4481,31.442 -32.7679,63.965 -47.0193,96.958 -15.5784,36.937 -27.91,75.219 -32.6442,115.102 -0.2158,13.595 -0.8243,7.64 0.9482,17.933 1.671,18.553 -85.7903,26.431 -87.4613,7.878 l 0,0 c -1.4913,-24.631 -1.4685,-12.159 0.045,-37.418 6.9032,-47.52 20.6197,-93.488 39.4596,-137.679 14.8095,-34.714 30.814,-68.856 47.7078,-102.606 8.4495,-16.75 87.4139,23.081 78.9643,39.832 z" id="path14907" inkscape:connector-curvature="0" style="fill:#2b1100;fill-opacity:1;fill-rule:nonzero;stroke:none" transform="translate(-8192, -64512)"/><path d="m 8746.5721,65202.715 c 25.5543,17.325 53.5451,30.784 81.0642,44.657 39.5474,18.627 77.0788,40.629 111.3023,67.823 15.0364,11.802 25.8513,26.658 36.1552,42.455 9.6816,15.934 -65.4326,61.574 -75.1142,45.64 l 0,0 c -3.722,-8.01 -9.2776,-14.355 -15.9255,-20.23 -28.8525,-23.912 -61.5702,-41.914 -95.3466,-57.975 -32.1254,-15.994 -64.623,-31.628 -94.7476,-51.232 -15.0905,-11.161 37.5216,-82.299 52.6122,-71.138 z" id="path14909" inkscape:connector-curvature="0" style="fill:#2b1100;fill-opacity:1;fill-rule:nonzero;stroke:none" transform="translate(-8192, -64512)"/></svg>