<?xml version="1.0" encoding="UTF-8" standalone="no"?>
<svg
   xmlns:dc="http://purl.org/dc/elements/1.1/"
   xmlns:cc="http://creativecommons.org/ns#"
   xmlns:rdf="http://www.w3.org/1999/02/22-rdf-syntax-ns#"
   xmlns:svg="http://www.w3.org/2000/svg"
   xmlns="http://www.w3.org/2000/svg"
   xmlns:sodipodi="http://sodipodi.sourceforge.net/DTD/sodipodi-0.dtd"
   xmlns:inkscape="http://www.inkscape.org/namespaces/inkscape"
   width="1024"
   height="1024"
   id="U53C2"
   version="1.1"
   inkscape:version="0.48.0 r9654"
   sodipodi:docname="U+53C2.svg">
  <metadata
     id="metadata15">
    <rdf:RDF>
      <cc:Work
         rdf:about="">
        <dc:format>image/svg+xml</dc:format>
        <dc:type
           rdf:resource="http://purl.org/dc/dcmitype/StillImage" />
      </cc:Work>
    </rdf:RDF>
  </metadata>
  <defs
     id="defs13" />
  <sodipodi:namedview
     pagecolor="#ffffff"
     bordercolor="#666666"
     borderopacity="1"
     objecttolerance="10"
     gridtolerance="10"
     guidetolerance="10"
     inkscape:pageopacity="0"
     inkscape:pageshadow="2"
     inkscape:window-width="640"
     inkscape:window-height="480"
     id="namedview11"
     showgrid="false"
     inkscape:zoom="0.27441406"
     inkscape:cx="512"
     inkscape:cy="512"
     inkscape:window-x="0"
     inkscape:window-y="25"
     inkscape:window-maximized="0"
     inkscape:current-layer="U53C2" />
  <path
     style="fill:#800000;fill-opacity:1;fill-rule:nonzero;stroke:#f9f9f9;stroke-width:0.1;stroke-miterlimit:4;stroke-dasharray:none"
     d="M 387.625 142.3125 C 386.05405 142.36249 384.69482 142.83589 383.59375 143.78125 C 355.26985 170.25715 331.38215 200.96945 307.78125 231.59375 C 285.03545 261.72125 261.0196 291.3159 247.8125 327 C 241.923 361.9106 253.76095 382.5428 287.96875 394.3125 C 304.95635 400.1573 328.9632 393.82475 346 391.21875 C 371.08278 386.60701 396.19989 382.18803 421.34375 377.9375 C 419.04286 381.98514 416.75011 386.05589 414.4375 390.09375 C 399.77387 415.14306 384.53827 439.82538 368.875 464.25 C 353.7021 466.56368 338.49714 468.76686 323.28125 470.8125 C 268.18095 478.2819 212.85525 484.62025 158.15625 494.71875 C 140.09245 498.91425 159.8737 584.0704 177.9375 579.875 C 220.04111 570.45779 262.86181 564.50708 305.59375 558.5 C 305.31887 558.89327 305.05629 559.29435 304.78125 559.6875 C 279.68435 591.9141 258.75535 628.0048 230.46875 657.6875 C 218.22245 671.5494 283.5661 729.26825 295.8125 715.40625 C 324.3782 681.48635 348.1612 643.83795 374.3125 608.09375 C 389.61499 586.00763 404.73489 563.79462 419.59375 541.40625 C 457.73378 561.42594 498.63528 575.59576 539.34375 589.46875 C 603.75725 610.19475 668.59145 629.61115 732.53125 651.78125 C 770.79695 665.29625 808.3278 680.7916 844.75 698.6875 C 847.2486 700.0312 849.7515 701.37505 852.25 702.71875 C 868.7303 711.13665 908.4177 633.44915 891.9375 625.03125 C 888.6212 623.40475 885.3163 621.7514 882 620.125 C 842.2025 601.8651 801.50685 585.58655 760.09375 571.34375 C 699.81481 550.88718 638.8973 532.51767 578.375 512.8125 C 583.74037 511.84247 589.10249 510.83905 594.46875 509.875 C 658.81315 498.2415 723.5489 489.1345 788.625 482.8125 C 803.0546 481.353 817.54345 480.50185 832.03125 479.96875 C 850.47755 478.90515 845.4462 391.96775 827 393.03125 C 811.1456 394.22995 795.32185 395.58215 779.53125 397.46875 C 712.55165 405.23245 645.85195 415.20695 579.53125 427.40625 C 546.58346 433.41327 513.65572 439.52019 480.6875 445.4375 C 483.22991 441.25545 485.79547 437.07284 488.3125 432.875 C 502.24982 409.08772 515.89165 385.14822 528.65625 360.71875 C 568.49951 354.90346 608.52503 350.57882 648.8125 349.59375 C 653.9105 349.59775 658.99585 349.59375 664.09375 349.59375 C 671.49334 349.51574 675.77197 335.42401 677.03125 318.625 C 685.56901 331.25916 694.21844 343.82072 702.25 356.78125 C 712.1372 372.33745 785.48095 325.7436 775.59375 310.1875 C 760.75825 287.3003 744.3438 265.4395 730.25 242.0625 C 714.876 216.199 700.066 189.72645 691.4375 160.71875 C 685.6924 143.05245 602.41105 170.1462 608.15625 187.8125 C 617.18065 214.24962 629.47271 239.23672 643.0625 263.53125 C 590.90053 265.9286 539.13306 272.58135 487.59375 280.90625 C 487.34337 280.9449 487.09413 280.99259 486.84375 281.03125 C 478.60507 279.81543 472.07151 280.40983 469.375 283.75 C 434.16611 289.2349 398.97551 294.82336 363.8125 300.59375 C 369.22865 293.62137 373.81723 287.60874 375.8125 284.125 C 395.8653 258.2404 416.0426 232.03065 440.625 210.21875 C 453.61763 199.06351 406.16225 141.7226 387.625 142.3125 z M 333.6875 343.625 C 333.18505 346.32973 332.20164 349.32213 331.0625 353.375 C 330.78146 350.9586 331.7976 347.57679 333.6875 343.625 z M 464.46875 583.125 C 462.89817 583.1968 461.55692 583.66417 460.46875 584.625 C 436.85005 606.7789 413.5381 629.2644 389.9375 651.4375 C 368.0163 671.7688 346.02865 692.061 323.09375 711.25 C 318.12655 715.3192 313.00835 719.18055 307.78125 722.90625 C 292.91565 734.09135 345.6343 804.15395 360.5 792.96875 C 366.9582 787.91775 373.3779 782.8124 379.625 777.5 C 403.2333 757.009 426.0859 735.66575 449 714.40625 C 471.9994 692.87635 494.6147 670.90635 518.4375 650.28125 C 531.27793 638.94339 483.00154 582.27773 464.46875 583.125 z M 572.09375 671.5 C 570.89383 671.42577 569.76881 671.66036 568.75 672.21875 C 541.1986 688.81675 517.2626 710.4273 493.9375 732.375 C 473.7601 752.0907 453.9568 772.1912 432.75 790.8125 L 428.53125 794.125 C 414.32975 806.0884 470.736 873.05715 484.9375 861.09375 C 487.0408 859.24595 489.1467 857.37915 491.25 855.53125 C 512.3603 835.95505 532.67865 815.57525 553.21875 795.40625 C 571.17085 778.52315 589.4567 761.5133 610.875 749.0625 C 626.15709 740.68678 590.09258 672.61342 572.09375 671.5 z M 695.34375 700.4375 C 693.35484 700.41413 691.66199 700.94702 690.40625 702.15625 C 666.53005 727.38155 640.8254 750.71775 615 773.90625 C 570.5342 812.81235 526.3785 852.0655 482.4375 891.5625 C 456.6296 914.0515 432.1003 938.6031 402.625 956.375 C 387.0485 966.3315 433.9861 1039.7691 449.5625 1029.8125 C 482.2508 1008.1581 510.8707 981.36885 539.625 954.84375 C 583.1807 915.27075 627.2165 876.2547 671.9375 838 C 698.8697 814.3118 725.53705 790.362 751.21875 765.3125 C 763.35761 753.62323 714.56991 700.66344 695.34375 700.4375 z "
     id="path20515" />
</svg>
