<?xml version="1.0" encoding="UTF-8" standalone="no"?>
<svg
   xmlns:dc="http://purl.org/dc/elements/1.1/"
   xmlns:cc="http://creativecommons.org/ns#"
   xmlns:rdf="http://www.w3.org/1999/02/22-rdf-syntax-ns#"
   xmlns:svg="http://www.w3.org/2000/svg"
   xmlns="http://www.w3.org/2000/svg"
   xmlns:sodipodi="http://sodipodi.sourceforge.net/DTD/sodipodi-0.dtd"
   xmlns:inkscape="http://www.inkscape.org/namespaces/inkscape"
   width="1024"
   height="1024"
   id="U53E3"
   version="1.1"
   inkscape:version="0.48.0 r9654"
   sodipodi:docname="U+53E3.svg">
  <metadata
     id="metadata10">
    <rdf:RDF>
      <cc:Work
         rdf:about="">
        <dc:format>image/svg+xml</dc:format>
        <dc:type
           rdf:resource="http://purl.org/dc/dcmitype/StillImage" />
      </cc:Work>
    </rdf:RDF>
  </metadata>
  <defs
     id="defs8" />
  <sodipodi:namedview
     pagecolor="#ffffff"
     bordercolor="#666666"
     borderopacity="1"
     objecttolerance="10"
     gridtolerance="10"
     guidetolerance="10"
     inkscape:pageopacity="0"
     inkscape:pageshadow="2"
     inkscape:window-width="640"
     inkscape:window-height="480"
     id="namedview6"
     showgrid="false"
     inkscape:zoom="0.27441406"
     inkscape:cx="512"
     inkscape:cy="512"
     inkscape:window-x="0"
     inkscape:window-y="25"
     inkscape:window-maximized="0"
     inkscape:current-layer="U53E3" />
  <path
     style="fill:#2b0000;fill-opacity:1;fill-rule:nonzero;stroke:#f9f9f9;stroke-width:0.1;stroke-miterlimit:4;stroke-dasharray:none"
     d="M 650.6875 299.40625 C 642.34404 299.43976 633.9624 299.97512 625.5 300.8125 C 601.2029 301.9755 576.9314 301.66925 552.625 300.78125 C 519.0672 300.82525 485.7615 303.804 452.9375 311.125 C 418.5284 317.811 383.88595 324.29875 350.96875 336.71875 C 322.74189 347.5606 295.10742 360.00109 271.09375 378.71875 C 245.30284 378.52896 213.004 385.88789 214.03125 397.28125 C 217.89775 432.33925 222.19955 467.37175 226.78125 502.34375 C 232.15825 547.88275 241.88265 592.60025 255.28125 636.40625 C 263.29965 661.41725 273.98615 685.392 286.15625 708.625 C 290.70249 716.23914 289.91843 715.19267 292.5 718.71875 C 297.80046 734.21346 305.16019 746.18763 312.25 744.53125 C 335.5658 738.98425 359.21725 735.0145 382.84375 731.0625 C 416.40275 725.6795 449.7471 719.05075 483.25 713.34375 C 517.0098 707.31175 551.14965 705.13475 585.34375 707.34375 C 610.64165 709.90075 635.5061 715.42825 660.4375 720.28125 C 672.6483 723.62025 686.5306 724.23 697.8125 730.5 C 701.02221 731.9053 704.85239 730.20962 708.875 726.5 C 712.89632 726.55355 715.88685 725.53448 717.34375 723.0625 C 721.64295 714.9845 719.90445 718.72225 722.84375 711.90625 C 725.46763 705.2653 727.81412 698.51572 730.09375 691.75 C 732.43748 685.98391 734.37873 680.1901 735.75 674.78125 C 736.43075 672.73121 737.08624 670.6697 737.78125 668.625 C 744.65835 647.035 750.3856 625.121 755.8125 603.125 C 761.6081 579.364 766.95235 555.47125 770.65625 531.28125 C 773.82755 507.93825 775.81275 484.42275 775.71875 460.84375 C 775.21395 438.32175 773.8325 415.629 766.5 394.125 C 760.7874 377.984 753.82485 362.39625 744.40625 348.03125 C 731.32695 328.19625 715.3882 311.6095 692.1875 303.9375 C 678.38987 300.62875 664.59326 299.3504 650.6875 299.40625 z M 654.1875 387.28125 C 659.12527 387.20088 663.87595 387.56938 668.125 389 C 664.0565 389.155 669.46955 395.02675 670.21875 396.21875 C 675.78115 404.65475 679.8021 413.7945 683.0625 423.3125 C 687.0289 436.0505 687.45585 449.48675 687.71875 462.71875 C 687.67555 481.68875 686.0109 500.597 683.4375 519.375 C 680.2012 540.539 675.4782 561.43975 670.375 582.21875 C 666.37805 598.29276 662.2746 614.33302 657.5 630.1875 C 635.23963 625.96732 612.91344 621.94719 590.3125 620.15625 C 549.6011 618.05625 508.9487 620.18475 468.75 627.34375 C 435.3261 632.90875 402.07115 639.375 368.59375 644.625 C 363.63084 645.43148 358.6778 646.23321 353.71875 647.0625 C 347.94837 635.15881 342.8384 622.97637 338.59375 610.40625 C 326.18895 571.61025 317.40885 531.86475 312.84375 491.34375 C 310.85636 475.35925 308.91616 459.35681 307.15625 443.34375 C 314.63666 449.08666 321.36778 451.75951 325.28125 448.6875 C 341.98765 434.5905 362.1222 426.1665 382.3125 418.4375 C 410.4885 407.9245 440.18055 402.67475 469.59375 396.96875 C 496.88105 390.81575 524.50165 388.2505 552.40625 388.4375 C 578.08785 389.5815 603.7561 389.74525 629.4375 388.65625 C 637.19525 388.82 645.95788 387.41521 654.1875 387.28125 z "
     id="path9014" />
</svg>
