<?xml version="1.0" encoding="UTF-8" standalone="no"?>
<svg
   xmlns:dc="http://purl.org/dc/elements/1.1/"
   xmlns:cc="http://creativecommons.org/ns#"
   xmlns:rdf="http://www.w3.org/1999/02/22-rdf-syntax-ns#"
   xmlns:svg="http://www.w3.org/2000/svg"
   xmlns="http://www.w3.org/2000/svg"
   xmlns:sodipodi="http://sodipodi.sourceforge.net/DTD/sodipodi-0.dtd"
   xmlns:inkscape="http://www.inkscape.org/namespaces/inkscape"
   width="1024"
   height="1024"
   id="U5356"
   version="1.1"
   inkscape:version="0.48.0 r9654"
   sodipodi:docname="U+5356.svg">
  <metadata
     id="metadata15">
    <rdf:RDF>
      <cc:Work
         rdf:about="">
        <dc:format>image/svg+xml</dc:format>
        <dc:type
           rdf:resource="http://purl.org/dc/dcmitype/StillImage" />
      </cc:Work>
    </rdf:RDF>
  </metadata>
  <defs
     id="defs13" />
  <sodipodi:namedview
     pagecolor="#ffffff"
     bordercolor="#666666"
     borderopacity="1"
     objecttolerance="10"
     gridtolerance="10"
     guidetolerance="10"
     inkscape:pageopacity="0"
     inkscape:pageshadow="2"
     inkscape:window-width="640"
     inkscape:window-height="480"
     id="namedview11"
     showgrid="false"
     inkscape:zoom="0.27441406"
     inkscape:cx="512"
     inkscape:cy="512"
     inkscape:window-x="0"
     inkscape:window-y="25"
     inkscape:window-maximized="0"
     inkscape:current-layer="U5356" />
  <path
     style="fill:#c83737;fill-opacity:1;fill-rule:nonzero;stroke:#f9f9f9;stroke-width:0.1;stroke-miterlimit:4;stroke-dasharray:none"
     d="M 511.3125 44.0625 C 492.22741 44.111874 475.07691 47.859375 474.65625 56.0625 C 473.70505 76.195402 472.33831 96.294403 470.96875 116.40625 C 467.64668 116.73704 464.31944 117.0986 461 117.5 C 428.9031 121.18 396.9678 125.99925 365.9375 135.28125 C 347.9482 140.64625 373.22955 225.45875 391.21875 220.09375 C 414.65714 212.02655 439.06281 208.0898 463.5625 205.09375 C 463.12309 211.30354 462.7681 217.51961 462.5625 223.75 C 462.70561 233.40584 463.30511 243.07099 464.25 252.6875 C 437.2001 254.21991 410.20074 256.23459 383.28125 259.375 C 348.67705 263.81 314.1072 268.9585 280.0625 276.6875 C 261.8719 281.3125 283.6844 367.0625 301.875 362.4375 C 332.2152 354.3255 363.3436 349.7655 394.4375 345.6875 C 437.114 340.5945 480.0768 338.501 523 336.875 C 538.99367 336.22618 554.97638 335.9873 570.96875 336.03125 C 556.66862 359.09433 542.54041 382.21821 529 405.75 C 494.2562 467.546 463.98385 531.7155 435.15625 596.4375 C 430.96004 605.97908 426.80675 615.53711 422.71875 625.125 C 412.32535 626.61444 401.93972 628.15179 391.5625 629.75 C 413.34858 615.02821 437.31813 588.40425 429.5 579.40625 C 425.6739 575.10325 427.6951 577.36475 423.375 572.59375 C 411.9548 560.28575 399.82245 548.74375 387.15625 537.71875 C 372.56585 523.38875 359.01965 508.09875 348.46875 490.46875 C 338.01735 474.87175 264.486 524.153 274.9375 539.75 C 289.4316 561.728 306.66765 581.4665 325.21875 600.0625 C 336.54245 610.3735 347.73215 620.76075 357.90625 632.21875 C 359.45019 634.00852 359.72218 634.3476 360.09375 634.78125 C 346.00212 637.10923 331.93255 639.52013 317.875 642.0625 C 283.4647 648.0575 249.01455 654.85925 214.09375 657.03125 C 195.37465 658.50925 202.3434 746.75925 221.0625 745.28125 C 258.7363 741.49525 295.9223 734.088 333.125 727.25 C 350.44379 723.9705 367.80197 720.93121 385.1875 718.0625 C 375.31175 744.01012 365.89585 770.14311 356.96875 796.4375 C 345.13355 832.9035 334.7005 869.8545 327.0625 907.4375 C 323.726 922.7065 321.6732 938.026 323.125 953.625 C 324.02729 964.57531 323.47404 953.15038 323.53125 948.1875 C 325.39718 966.01217 407.49288 981.32884 410.96875 963.375 C 411.96785 956.849 412.7112 948.1555 411.3125 943.0625 C 410.3569 946.5235 412.67375 924.59175 413.46875 923.96875 C 419.45035 889.99275 428.49005 856.59825 438.65625 823.65625 C 451.8497 783.28782 466.48355 743.42738 482.25 704 C 488.02385 703.27202 493.78401 702.56833 499.5625 701.875 C 548.6764 695.707 598.15415 693.9085 647.59375 693.0625 C 682.68865 692.4785 717.7764 692.36875 752.875 692.21875 C 769.7721 693.33975 786.7051 689.488 803.5625 690.375 C 803.71687 690.42719 803.93389 690.48171 804.125 690.53125 C 821.92179 688.7204 841.99173 608.95061 824.4375 604.375 C 817.7125 602.976 811.07385 601.7015 804.15625 601.8125 C 786.72535 601.9835 769.4453 604.49125 752 604.53125 C 716.6131 605.09625 681.1956 605.458 645.8125 606.25 C 604.18729 607.21435 562.57336 608.84196 521.125 612.78125 C 546.34977 557.19989 573.14075 502.29883 603.84375 449.5 C 620.07475 422.192 636.98985 395.33275 654.71875 368.96875 C 659.22009 361.94967 647.01885 348.63849 631.1875 337.375 C 633.7911 337.47753 636.39663 337.57637 639 337.6875 C 663.86656 339.01103 688.71081 340.65839 713.46875 343.3125 C 702.14603 357.42812 690.5106 371.30816 679.125 385.375 C 674.5943 391.333 669.6923 396.9345 664.375 402.1875 C 651.3401 415.6335 714.715 477.071 727.75 463.625 C 734.7237 456.273 741.58295 448.8215 747.65625 440.6875 C 759.73985 425.6835 772.20755 411.034 784.40625 396.125 C 793.21995 385.058 801.9598 373.76625 807.3125 360.53125 C 813.1744 348.85025 820.49875 337.85 821.03125 324.25 C 822.82285 296.21 808.40925 272.21975 780.53125 264.59375 C 764.07835 260.54875 747.2505 258.64975 730.4375 256.71875 C 701.1919 253.63475 671.84405 251.832 642.46875 250.5 C 612.57121 249.40367 582.65936 248.7405 552.75 249.15625 C 551.70947 241.41945 551.07725 233.59931 550.4375 225.84375 C 550.51807 217.91475 550.95922 210.01975 551.5625 202.125 C 554.30891 202.2794 557.03518 202.46501 559.78125 202.65625 C 581.27385 204.29225 602.7746 206.00075 624.25 207.84375 C 624.5344 207.30984 649.52064 209.74584 649.6875 209.46875 C 649.51814 209.38963 647.85811 209.14763 645.09375 208.78125 C 663.18937 210.30846 683.59843 126.78338 665.59375 122.3125 C 654.21005 120.3335 642.8508 120.271 631.3125 119.875 C 609.3855 118.239 587.4343 116.7265 565.5 115.1875 C 563.28948 115.05101 561.08567 114.9292 558.875 114.8125 C 560.1795 96.732728 561.51664 78.65791 563.03125 60.59375 C 563.57209 50.047438 535.85047 43.999019 511.3125 44.0625 z M 804.125 690.53125 C 803.87757 690.55643 803.62144 690.56788 803.375 690.5625 C 805.52865 690.86304 805.27621 690.8297 804.125 690.53125 z M 803.375 690.5625 C 802.80352 690.48275 803.18983 690.53536 802.03125 690.375 C 802.47926 690.49178 802.92262 690.55262 803.375 690.5625 z M 387.28125 362.75 C 366.33024 362.61304 312.45332 403.77338 322.03125 417.125 C 336.09235 435.993 351.13205 454.0075 367.46875 470.9375 C 369.78555 473.2995 372.1178 475.67225 374.4375 478.03125 C 378.8639 482.53325 391.4942 496.65175 387.125 492.09375 C 396.9818 508.12975 472.57565 461.661 462.71875 445.625 C 453.62395 432.151 442.29895 420.682 430.53125 409.5 C 417.10825 395.887 404.85025 381.27325 393.96875 365.53125 C 392.60047 363.62388 390.27425 362.76957 387.28125 362.75 z M 538.5625 734 C 520.36058 733.54731 478.14106 798.86469 492.78125 808.625 C 516.82345 824.067 540.05075 840.66775 562.78125 857.96875 C 584.28735 874.94575 605.09275 892.80175 626.34375 910.09375 C 634.92265 917.03175 644.0605 924.38725 651.5625 932.03125 C 650.06547 930.18181 648.59073 928.31845 647.09375 926.46875 C 660.5515 938.26623 731.83234 895.78801 722.625 880.0625 C 720.14 876.7125 717.6725 873.38125 715.1875 870.03125 C 704.6174 859.81325 693.01385 850.7215 681.53125 841.5625 C 659.48825 823.9975 637.9493 805.83775 615.75 788.46875 C 591.5624 770.03075 566.75975 752.438 541.84375 735 C 540.86774 734.34931 539.77596 734.03018 538.5625 734 z "
     id="path10722" />
</svg>
