<?xml version="1.0" encoding="UTF-8" standalone="no"?>
<svg
   xmlns:dc="http://purl.org/dc/elements/1.1/"
   xmlns:cc="http://creativecommons.org/ns#"
   xmlns:rdf="http://www.w3.org/1999/02/22-rdf-syntax-ns#"
   xmlns:svg="http://www.w3.org/2000/svg"
   xmlns="http://www.w3.org/2000/svg"
   xmlns:sodipodi="http://sodipodi.sourceforge.net/DTD/sodipodi-0.dtd"
   xmlns:inkscape="http://www.inkscape.org/namespaces/inkscape"
   width="1024"
   height="1024"
   id="U5357"
   version="1.1"
   inkscape:version="0.48.0 r9654"
   sodipodi:docname="U+5357.svg">
  <metadata
     id="metadata16">
    <rdf:RDF>
      <cc:Work
         rdf:about="">
        <dc:format>image/svg+xml</dc:format>
        <dc:type
           rdf:resource="http://purl.org/dc/dcmitype/StillImage" />
      </cc:Work>
    </rdf:RDF>
  </metadata>
  <defs
     id="defs14" />
  <sodipodi:namedview
     pagecolor="#ffffff"
     bordercolor="#666666"
     borderopacity="1"
     objecttolerance="10"
     gridtolerance="10"
     guidetolerance="10"
     inkscape:pageopacity="0"
     inkscape:pageshadow="2"
     inkscape:window-width="640"
     inkscape:window-height="480"
     id="namedview12"
     showgrid="false"
     inkscape:zoom="0.27441406"
     inkscape:cx="512"
     inkscape:cy="512"
     inkscape:window-x="0"
     inkscape:window-y="25"
     inkscape:window-maximized="0"
     inkscape:current-layer="U5357" />
  <path
     style="fill:#c83737;fill-opacity:1;fill-rule:nonzero;stroke:#f9f9f9;stroke-width:0.1;stroke-miterlimit:4;stroke-dasharray:none"
     d="M 479.46875 128.90625 C 475.30922 129.07937 472.24823 130.31594 470.9375 132.9375 C 456.13152 165.57674 444.61958 199.58989 433.59375 233.65625 C 395.76656 237.04723 357.92671 240.25034 320.03125 242.8125 C 284.94475 245.5805 249.86235 249.31975 214.65625 249.96875 C 195.90485 250.55875 198.6861 338.966 217.4375 338.375 C 254.1271 336.373 290.6576 332.34575 327.25 329.09375 C 354.59811 326.96954 381.9277 324.64076 409.25 322.21875 C 406.85248 333.31326 404.68172 344.47277 402.8125 355.6875 C 400.89148 368.56412 399.7131 381.51558 398.96875 394.5 C 375.6797 397.44774 352.44923 400.66125 329.21875 404.0625 C 298.07665 408.6555 266.8149 414.039 235.3125 415.125 C 223.89402 415.31847 220.02737 448.112 222.9375 473.71875 C 205.52139 474.23092 190.67939 478.00325 190.28125 485.625 C 189.77405 526.325 193.1327 566.91825 196.875 607.40625 C 201.926 656.99125 209.94375 706.18875 218.78125 755.21875 C 224.52415 785.06175 229.9728 814.96975 237.3125 844.46875 C 239.08216 846.39238 244.5841 870.77535 244.96875 871.25 C 244.98093 871.11858 244.78808 870.01842 244.5625 868.75 C 249.05729 886.25435 334.25802 880.51074 333.09375 862.0625 C 331.45595 848.3765 327.2301 835.46925 322.5625 822.53125 C 320.38689 814.40802 318.40364 806.22518 316.53125 798.03125 C 318.4246 798.81609 320.2249 798.93634 321.875 798.25 C 348.1794 786.361 376.6282 781.16375 405 777.09375 C 414.41331 775.90759 423.84267 775.1858 433.28125 774.84375 C 433.97655 795.26228 434.64825 815.67508 435.34375 836.09375 C 435.62465 861.43075 438.29115 886.00275 449.03125 909.09375 L 458.96875 921.875 C 471.683 934.6231 529.70394 877.88227 523.15625 861.21875 C 524.08638 862.63314 525.00734 864.0541 525.9375 865.46875 C 525.88958 865.24558 525.81627 864.95245 525.78125 864.78125 C 523.61185 854.17325 523.62555 843.236 522.65625 832.5 C 521.7904 814.52267 520.99342 796.54475 520.25 778.5625 C 555.89286 782.43421 591.58752 784.63243 627.4375 784 C 651.1383 783.31 674.8289 782.06275 698.5 780.71875 C 700.6287 780.59475 702.7435 780.40375 704.875 780.34375 C 705.262 780.33275 706.04776 780.30263 706.625 780.3125 C 709.54502 779.35213 712.26138 776.24335 714.6875 771.71875 C 714.08849 775.35436 713.46672 778.99822 712.8125 782.625 C 711.3941 790.101 710.444 797.6905 707.6875 804.8125 C 706.5231 808.0705 704.41245 810.85 702.46875 813.625 C 691.29795 828.773 762.7042 881.42925 773.875 866.28125 C 780.8491 856.45925 787.15145 846.12375 791.21875 834.71875 C 795.46505 822.53975 798.0307 809.9665 799.75 797.1875 C 804.0954 769.5905 807.0805 741.8115 811.25 714.1875 C 817.1372 673.6765 822.99175 633.159 828.71875 592.625 C 833.39605 561.832 839.7611 530.94225 839 499.65625 C 837.7036 477.13125 833.71735 455.47975 816.65625 439.09375 C 801.83235 425.39075 785.25985 414.0875 765.71875 408.1875 C 743.14005 401.8855 719.97945 398.08425 696.65625 395.78125 C 665.29035 393.06325 633.827 391.32175 602.5625 387.46875 C 564.3369 383.98825 525.93913 382.44744 487.625 385.03125 C 488.02018 379.86109 488.50807 374.67872 489.1875 369.53125 C 492.04569 350.79463 495.92392 332.27727 500.5625 313.9375 C 548.35708 309.18763 596.32049 307.97122 644.3125 308.4375 C 669.3941 308.6575 694.4043 310.676 719.4375 312 C 727.59203 312.23258 735.70853 313.0826 743.78125 314.21875 C 761.77523 314.08431 779.87361 231.33852 761.90625 227.3125 L 756.09375 226.25 C 745.25505 225.029 734.3488 224.08825 723.4375 223.90625 C 697.1772 222.92225 670.94925 221.226 644.65625 221.375 C 605.76931 221.4485 566.90416 222.49634 528.125 225.25 C 534.53448 207.29482 541.57218 189.58445 550.03125 172.5 C 557.1093 158.34356 501.93023 127.9714 479.46875 128.90625 z M 743.78125 314.21875 C 743.71952 314.21921 743.65548 314.22024 743.59375 314.21875 C 744.05587 314.27557 744.50658 314.31834 744.96875 314.375 C 744.57271 314.31787 744.17751 314.27452 743.78125 314.21875 z M 743.59375 314.21875 C 743.21575 314.17227 742.84674 314.14054 742.46875 314.09375 C 742.84885 314.17892 743.21311 314.20956 743.59375 314.21875 z M 706.625 780.3125 C 706.19813 780.45289 705.74728 780.54799 705.3125 780.59375 C 705.95357 780.60912 706.56991 780.62088 707.1875 780.46875 C 707.56345 780.37625 707.20224 780.32237 706.625 780.3125 z M 705.3125 780.59375 C 704.83687 780.58235 704.3465 780.57671 703.875 780.59375 C 704.3603 780.66326 704.83586 780.64391 705.3125 780.59375 z M 525.9375 865.46875 C 526.37805 867.52032 527.27885 871.28592 527.75 869.75 C 527.9851 868.984 527.39645 868.18725 527.21875 867.40625 C 526.79336 866.75928 526.36288 866.11571 525.9375 865.46875 z M 523.3125 470.59375 C 528.6535 470.57696 533.97271 470.61767 539.3125 470.75 C 528.51989 487.363 518.52472 504.48403 508.8125 521.75 C 503.66528 531.17788 498.35417 540.50594 492.9375 549.78125 C 489.38035 550.11248 485.83589 550.45826 482.28125 550.8125 C 482.33505 547.35725 481.57896 544.6775 479.78125 543.0625 C 482.64857 545.22327 482.04032 544.73836 479.59375 542.875 C 479.5539 542.84236 479.50954 542.81288 479.46875 542.78125 C 476.49223 540.51462 472.09245 537.15825 471.4375 536.65625 C 452.7227 522.26525 433.6367 508.36375 413.9375 495.34375 C 407.46942 491.02977 400.97908 486.73497 394.5 482.4375 C 423.13266 478.60349 451.82421 475.23351 480.59375 472.5625 C 494.8211 471.23425 509.06946 470.63853 523.3125 470.59375 z M 617.65625 476.875 C 641.29676 479.22791 665.00944 480.83966 688.65625 483.125 C 706.34635 485.291 724.13795 487.7115 741.21875 492.9375 C 744.40587 494.34006 747.49783 496.09319 750.28125 498.21875 C 750.36141 499.27577 750.63426 501.31457 750.84375 504.8125 C 750.94865 530.0395 746.1088 555.0335 742.5625 579.9375 C 737.1267 620.4895 731.18385 660.9795 725.09375 701.4375 C 724.89745 702.68446 724.72311 703.93984 724.53125 705.1875 C 723.19533 698.12525 720.60445 693.34232 716.46875 692.75 C 708.45045 692.071 700.54615 691.413 692.53125 692.625 C 670.24565 694.386 647.93765 695.76325 625.59375 696.53125 C 592.25505 697.38025 559.06705 695.1615 525.90625 691.6875 C 522.83397 691.44766 519.76247 691.20178 516.6875 690.96875 C 515.75933 672.21207 514.65893 653.48263 513.375 634.75 C 521.19482 634.1284 529.01036 633.54836 536.84375 633.0625 C 570.71355 631.0375 604.61685 631.89425 638.15625 637.03125 C 656.35255 640.17925 674.3817 644.192 692.5 647.75 C 696.5235 648.526 700.5637 649.26025 704.5625 650.15625 C 723.0617 653.71625 739.84305 566.4975 721.34375 562.9375 C 717.17465 562.2195 712.9871 561.561 708.8125 560.875 C 689.373 557.407 670.05705 553.25625 650.53125 550.28125 C 632.39385 547.83741 614.20713 546.27979 595.96875 545.59375 C 605.19927 529.59568 615.09929 513.99113 626.65625 499.5625 L 626.6875 499.5625 C 630.38271 494.8853 625.86938 486.13231 617.65625 476.875 z M 296.84375 496.9375 C 291.63689 508.72442 289.87911 518.88366 295 522.25 C 318.07862 536.60863 340.71415 551.66203 363.28125 566.8125 C 335.89961 571.29248 308.44991 575.85548 281.5625 582.6875 C 279.29201 555.01275 277.50945 527.25978 278.21875 499.5 C 284.432 498.69799 290.64292 497.84578 296.84375 496.9375 z M 753.875 501.34375 C 754.38782 501.85787 754.86642 502.38912 755.34375 502.9375 C 754.78704 502.36382 754.32285 501.84399 753.875 501.34375 z M 426.78125 644.34375 C 427.97242 658.89311 428.93941 673.45356 429.75 688.03125 C 417.37455 688.45331 405.02516 689.32855 392.6875 690.9375 C 360.98203 695.46817 329.42945 701.43323 299.25 712.25 C 296.77888 698.50349 294.4184 684.73367 292.25 670.9375 C 321.89879 661.26612 352.89094 656.41531 383.5625 651.15625 C 397.93706 648.67371 412.35126 646.39697 426.78125 644.34375 z "
     id="path10213" />
</svg>
