<?xml version="1.0" encoding="UTF-8" standalone="no"?>
<svg
   xmlns:dc="http://purl.org/dc/elements/1.1/"
   xmlns:cc="http://creativecommons.org/ns#"
   xmlns:rdf="http://www.w3.org/1999/02/22-rdf-syntax-ns#"
   xmlns:svg="http://www.w3.org/2000/svg"
   xmlns="http://www.w3.org/2000/svg"
   xmlns:sodipodi="http://sodipodi.sourceforge.net/DTD/sodipodi-0.dtd"
   xmlns:inkscape="http://www.inkscape.org/namespaces/inkscape"
   width="1024"
   height="1024"
   id="U5317"
   version="1.1"
   inkscape:version="0.48.0 r9654"
   sodipodi:docname="U+5317.svg">
  <metadata
     id="metadata12">
    <rdf:RDF>
      <cc:Work
         rdf:about="">
        <dc:format>image/svg+xml</dc:format>
        <dc:type
           rdf:resource="http://purl.org/dc/dcmitype/StillImage" />
      </cc:Work>
    </rdf:RDF>
  </metadata>
  <defs
     id="defs10" />
  <sodipodi:namedview
     pagecolor="#ffffff"
     bordercolor="#666666"
     borderopacity="1"
     objecttolerance="10"
     gridtolerance="10"
     guidetolerance="10"
     inkscape:pageopacity="0"
     inkscape:pageshadow="2"
     inkscape:window-width="640"
     inkscape:window-height="480"
     id="namedview8"
     showgrid="false"
     inkscape:zoom="0.27441406"
     inkscape:cx="512"
     inkscape:cy="512"
     inkscape:window-x="0"
     inkscape:window-y="25"
     inkscape:window-maximized="0"
     inkscape:current-layer="U5317" />
  <path
     style="fill:#aa0000;fill-opacity:1;fill-rule:nonzero;stroke:#f9f9f9;stroke-width:0.1;stroke-miterlimit:4;stroke-dasharray:none"
     d="M 383.875 146.625 C 366.68658 146.54807 351.93381 149.74563 351.28125 157.25 C 348.36855 218.1283 349.52965 279.1024 351.03125 340 C 353.71225 431.9886 359.51895 523.84195 366.46875 615.59375 C 367.37459 626.84554 368.30142 638.0929 369.21875 649.34375 C 365.06415 651.58306 361.04725 653.77483 344.71875 662.65625 C 303.67483 685.39967 262.9231 708.64338 222.03125 731.65625 C 204.17039 719.96065 184.29637 712.2218 179.25 719.75 C 168.1592 736.8736 156.99395 753.996 148.46875 772.5625 C 135.77215 820.7602 160.2407 838.33305 204.6875 836.96875 C 216.279 836.61295 241.39815 820.0751 251.59375 814.3125 C 293.16674 789.97713 334.8546 765.86503 376.875 742.3125 C 378.99148 767.82289 381.11154 793.33259 383.21875 818.84375 C 383.57315 824.91945 383.92685 830.9867 384.28125 837.0625 C 385.61085 855.3188 471.67335 849.0688 470.34375 830.8125 L 468.625 810.9375 C 461.7599 743.7158 455.6748 676.42595 450 609.09375 C 442.8365 518.96445 436.887 428.7263 434.9375 338.3125 C 434.047 280.4934 433.2362 222.4759 438.375 164.8125 C 439.32874 153.84463 408.99653 146.73744 383.875 146.625 z M 582.46875 185.46875 C 558.20851 185.34961 530.80197 191.25886 531.3125 201.6875 C 533.9389 246.2203 536.0684 290.78325 538.1875 335.34375 C 540.7029 412.21685 540.61575 489.0797 545.21875 565.875 C 549.41195 634.393 562.2377 701.72615 585.25 766.34375 C 601.6624 806.46555 626.3365 843.7727 664.0625 866.75 C 671.3209 871.1708 679.2249 874.4217 686.8125 878.25 C 736.5734 897.9001 787.9658 890.59575 838.375 878.34375 C 879.7357 866.43605 919.2192 849.04425 958.5 831.65625 C 975.7804 823.49835 967.48715 827.6185 983.34375 819.3125 C 999.59675 810.5197 958.15925 733.92595 941.90625 742.71875 C 930.40865 749.22605 936.68775 745.83605 922.90625 752.71875 C 888.60885 768.45895 854.0852 784.03845 817.875 794.90625 C 787.1842 802.55965 755.14855 809.6052 723.96875 800.3125 C 695.28565 788.3259 677.26585 765.64115 665.65625 736.96875 C 644.36485 680.42705 633.3925 620.9992 629.25 560.75 C 627.26835 528.94393 626.21303 497.14134 625.5 465.3125 C 643.13318 483.13897 670.35559 500.15646 677.46875 491.625 C 697.68415 466.9864 687.92815 479.7089 706.71875 453.5 C 728.63105 420.0327 749.38725 385.63015 764.78125 348.59375 C 771.41215 331.22695 689.53715 299.9458 682.90625 317.3125 C 671.10735 349.0804 653.42265 378.19005 634.90625 406.40625 C 628.91443 414.63837 626.41689 418.2081 624.6875 420.5625 C 624.23068 390.97574 623.85924 361.37861 623.15625 331.78125 C 621.51815 286.99885 619.5707 242.21215 618.6875 197.40625 C 618.29043 189.29509 601.33782 185.56141 582.46875 185.46875 z M 326.75 454.25 C 326.1854 454.26672 325.63993 454.37838 325.09375 454.5625 C 308.04045 460.7511 291.42955 467.5671 276.21875 477.6875 C 245.68985 497.058 215.6946 518.0284 193.0625 546.6875 C 182.1213 561.6966 252.8713 613.29025 263.8125 598.28125 C 279.4436 578.21615 301.05135 564.13165 322.34375 550.78125 C 331.92695 544.69015 341.983 539.9692 352.875 536.9375 C 369.80672 531.22962 344.25262 453.73153 326.75 454.25 z "
     id="path19921" />
</svg>
