<?xml version="1.0" encoding="UTF-8" standalone="no"?>
<svg
   xmlns:dc="http://purl.org/dc/elements/1.1/"
   xmlns:cc="http://creativecommons.org/ns#"
   xmlns:rdf="http://www.w3.org/1999/02/22-rdf-syntax-ns#"
   xmlns:svg="http://www.w3.org/2000/svg"
   xmlns="http://www.w3.org/2000/svg"
   xmlns:sodipodi="http://sodipodi.sourceforge.net/DTD/sodipodi-0.dtd"
   xmlns:inkscape="http://www.inkscape.org/namespaces/inkscape"
   width="1024"
   height="1024"
   id="U539F"
   version="1.1"
   inkscape:version="0.48.0 r9654"
   sodipodi:docname="U+539F.svg">
  <metadata
     id="metadata17">
    <rdf:RDF>
      <cc:Work
         rdf:about="">
        <dc:format>image/svg+xml</dc:format>
        <dc:type
           rdf:resource="http://purl.org/dc/dcmitype/StillImage" />
      </cc:Work>
    </rdf:RDF>
  </metadata>
  <defs
     id="defs15" />
  <sodipodi:namedview
     pagecolor="#ffffff"
     bordercolor="#666666"
     borderopacity="1"
     objecttolerance="10"
     gridtolerance="10"
     guidetolerance="10"
     inkscape:pageopacity="0"
     inkscape:pageshadow="2"
     inkscape:window-width="640"
     inkscape:window-height="480"
     id="namedview13"
     showgrid="false"
     inkscape:zoom="0.27441406"
     inkscape:cx="512"
     inkscape:cy="512"
     inkscape:window-x="0"
     inkscape:window-y="25"
     inkscape:window-maximized="0"
     inkscape:current-layer="U539F" />
  <path
     style="fill:#2b1100;fill-opacity:1;fill-rule:nonzero;stroke:none"
     d="M 694.625 121.25 C 677.46373 121.30311 660.29236 122.4055 643.15625 123.90625 C 598.56415 127.50625 553.93865 130.63625 509.21875 132.15625 C 457.62185 134.54925 406.07065 137.67775 354.59375 141.96875 C 317.59125 145.17475 280.66475 149.24975 243.65625 152.34375 C 233.47112 153.22935 231.13145 179.80218 234.125 203.53125 C 211.77694 190.10531 178.65744 179.7582 173.78125 190.40625 C 158.23215 226.97625 145.84665 264.78025 133.15625 302.40625 C 111.08585 366.43225 92.68985 431.6205 75.84375 497.1875 C 59.54155 559.8255 48.55355 623.58375 40.28125 687.71875 C 35.03305 731.66075 30.8171 775.71475 27.5 819.84375 C 25.5215 845.76475 23.88515 871.7315 27.34375 897.5625 C 28.54685 901.8505 29.7343 906.1485 30.9375 910.4375 C 36.9034 928.2315 120.80965 900.1075 114.84375 882.3125 C 114.74935 882.7315 114.62525 883.1445 114.53125 883.5625 C 109.49695 865.1165 115.54315 844.60725 114.65625 825.90625 C 117.35955 783.35225 121.0059 740.87 125.8125 698.5 C 133.25 637.884 143.3084 577.6065 158.6875 518.4375 C 174.917 455.0755 192.7484 392.10475 214.75 330.46875 C 225.39594 300.09961 235.63177 269.45928 248.5 239.9375 C 249.40296 240.30701 250.34875 240.4588 251.3125 240.375 C 288.2689 235.831 325.26995 231.7685 362.34375 228.3125 C 379.78944 226.75124 397.24907 225.35687 414.71875 224.125 C 414.26634 224.5487 413.8968 225.03991 413.59375 225.59375 C 399.90445 251.64275 386.1484 277.674 372.75 303.875 C 362.76116 324.36194 351.68836 344.25391 339.8125 363.6875 C 321.63613 373.72753 304.40195 385.31335 288.90625 399.46875 C 286.43318 401.79959 286.41261 405.80588 288.09375 410.75 C 263.61222 410.5649 235.95928 416.44749 236.4375 426.96875 C 238.2922 458.54475 243.1837 489.77425 248.5625 520.90625 C 253.6618 550.78525 261.0648 580.22125 270.4375 609.03125 C 274.6684 623.54325 282.0886 635.94375 291.3125 647.71875 C 296.18862 653.14674 309.10033 647.5406 322.34375 637.84375 C 323.74381 639.14451 325.30508 639.8582 327 639.84375 C 352.32398 638.05197 377.41217 634.02799 402.4375 629.75 C 405.79233 658.08853 405.99008 686.78341 406.40625 715.28125 C 406.80925 755.68225 405.16815 796.0525 404.34375 836.4375 C 403.00159 856.16212 405.37377 875.88987 405.5625 895.59375 C 405.98716 894.23665 407.1179 892.28024 409.46875 885.53125 C 407.61835 903.44331 475.49839 945.90209 485.15625 930.84375 C 494.47825 907.60575 492.4958 918.16875 494.0625 899.84375 C 493.312 879.18175 490.8465 858.56275 491.625 837.84375 C 492.1107 796.60975 493.55675 755.39825 493.21875 714.15625 C 492.84569 681.39222 492.53129 648.49929 489.25 615.875 C 511.77099 612.89333 534.39191 610.56955 557.09375 609.25 C 562.20385 609.107 567.29445 608.8625 572.40625 608.8125 C 575.43974 608.78239 582.33803 608.4471 589.375 608.5 C 607.39716 626.52764 634.27945 643.31981 641.5 634.78125 C 659.3327 609.13325 661.8209 589.51775 665.5 559.09375 C 669.896 526.78575 674.71495 494.51175 678.21875 462.09375 C 680.33705 429.46675 679.64395 396.90925 660.59375 368.78125 C 640.87365 344.65525 616.4301 328.18175 585.6875 321.09375 C 553.4833 314.72575 520.9552 314.3975 488.375 318.6875 C 479.34401 319.87126 470.32636 321.19174 461.34375 322.71875 C 470.96737 304.3191 480.79896 286.04525 491.1875 268.0625 C 497.92222 255.75434 456.26397 228.9185 431.03125 223.03125 C 458.38539 221.24388 485.77009 219.78303 513.15625 218.5625 C 558.78865 217.0605 604.31765 214.0475 649.84375 210.6875 C 674.27265 209.3685 699.08805 206.86 723.40625 210.75 C 723.97749 211.01438 724.27059 211.13379 724.59375 211.28125 C 742.76005 208.89016 775.84527 138.9979 760.09375 131.25 C 742.76295 124.306 751.2838 126.83425 734.625 123.28125 C 721.31013 121.78763 707.97266 121.20869 694.625 121.25 z M 724.59375 211.28125 C 724.30038 211.31986 724.00407 211.34088 723.71875 211.34375 C 725.45551 211.74142 725.65438 211.76523 724.59375 211.28125 z M 723.71875 211.34375 C 723.02643 211.18523 722.15813 210.98427 721 210.75 C 721.85381 211.16992 722.76107 211.35337 723.71875 211.34375 z M 533.5625 403.3125 C 544.94867 403.35437 556.2897 404.3795 567.46875 407.0625 C 575.37005 410.1195 587.0285 413.226 590.375 422.125 C 590.94188 425.69855 591.2645 429.28548 591.40625 432.875 C 582.02813 431.745 572.62455 431.0617 563.125 431.46875 C 527.2285 432.35775 491.3488 434.7365 455.75 439.5625 C 422.10817 444.3869 388.51574 449.84023 355.59375 458.375 C 371.76416 444.45893 390.87519 434.70191 410.375 426.1875 C 438.8687 414.8385 469.08675 409.073 499.40625 405.375 C 510.7667 404.1925 522.17633 403.27063 533.5625 403.3125 z M 327.25 457.59375 C 333.09401 461.80571 338.59222 464.68709 342.9375 465.375 C 335.35754 484.37738 357.06553 549.96064 372.9375 545.1875 C 403.8661 535.3115 436.04135 530.322 468.09375 525.75 C 500.14845 521.489 532.4301 519.506 564.75 519.125 C 570.7589 519.05246 576.72107 519.37937 582.59375 520.40625 C 582.55842 520.65703 582.50412 520.90547 582.46875 521.15625 C 572.17319 521.14346 561.83962 521.62818 551.5 522.21875 C 507.8652 525.24675 464.5569 531.1175 421.4375 538.4375 C 395.81416 542.52679 370.15372 547.39047 344.3125 549.96875 C 340.40965 535.50097 337.20759 520.84176 334.65625 506.0625 C 331.88453 489.97177 329.1439 473.82083 327.25 457.59375 z M 603.78125 664.875 C 585.05912 664.31045 537.20325 722.31839 550.34375 733.5625 C 576.75485 754.3095 607.61425 767.9545 637.78125 782.1875 C 662.63655 793.0025 685.90305 806.7645 707.78125 822.6875 C 716.50825 829.3655 712.7661 826.194 719.25 832 C 733.5682 844.062 790.41195 776.561 776.09375 764.5 C 764.86645 755.343 770.62365 759.806 758.78125 751.125 C 732.38835 732.618 704.65305 716.21375 675.09375 703.21875 C 652.03325 692.31075 628.02115 682.23675 607.84375 666.34375 C 606.73016 665.39086 605.36787 664.92284 603.78125 664.875 z M 314.5625 698 C 312.5563 697.95889 310.87122 698.50994 309.59375 699.71875 C 286.93405 722.88775 267.46895 748.898 248.71875 775.25 C 236.67545 791.848 226.4774 809.41125 218.25 828.15625 C 211.2462 845.50125 293.02745 878.5325 300.03125 861.1875 C 303.90925 848.1115 312.9365 837.2505 320 825.8125 C 335.3466 804.1075 351.2336 782.4955 370.375 763.9375 C 382.72383 752.25231 333.95579 698.39744 314.5625 698 z M 405.5625 895.65625 C 405.21235 896.82031 405.33659 897.7517 405.5625 901.5 C 405.59263 899.55227 405.58071 897.60471 405.5625 895.65625 z "
     id="path13461" />
</svg>
