<?xml version="1.0" encoding="utf-8" ?>

<!DOCTYPE svg PUBLIC "-//W3C//DTD SVG 1.1//EN" 
  "http://www.w3.org/Graphics/SVG/1.1/DTD/svg11.dtd">
<svg 
    xmlns="http://www.w3.org/2000/svg"
    xmlns:xlink="http://www.w3.org/1999/xlink"
    xmlns:sodipodi="http://sodipodi.sourceforge.net/DTD/sodipodi-0.dtd"
    xmlns:inkscape="http://www.inkscape.org/namespaces/inkscape"
    width="1024" height="1024" id="U533B">
<path d="m 11398.681,57674.552 c 37.043,-13.446 74.808,-24.51 112.882,-34.595 71.343,-18.273 144.089,-29.95 216.953,-40.117 64.811,-8.903 130.001,-14.561 195.39,-16.279 33.143,-0.145 66.621,-0.356 99.202,6.366 4.419,1.632 8.839,3.265 13.258,4.897 17.163,7.608 -18.702,88.514 -35.865,80.906 l 0,0 c 0.842,0.05 1.685,0.09 2.527,0.14 -24.58,-7.854 -52.182,-3.63 -77.423,-5.818 -62.025,0.767 -123.882,5.751 -185.351,14.113 -69.301,9.621 -138.483,20.857 -206.148,38.991 -35.698,9.908 -71.187,20.614 -105.494,34.716 -17.675,6.349 -47.605,-76.97 -29.931,-83.32 z" id="path13227" inkscape:connector-curvature="0" style="fill:#916f6f;fill-opacity:1;fill-rule:nonzero;stroke:#f9f9f9;stroke-width:0.1;stroke-miterlimit:4;stroke-dasharray:none" transform="translate(-11264, -57344)"/><path d="m 11478.65,57766.929 c 8.68,40.045 14.634,80.598 20.438,121.137 8.105,56.11 13.74,112.529 19.904,168.873 4.473,41.626 9.811,83.208 19.798,123.906 5.046,14.701 7.778,32.461 18.517,44.498 0.339,0.139 0.852,0.743 1.017,0.416 1.213,-2.405 -5.126,-3.441 1.559,-2.792 1.833,0.178 3.663,0.381 5.495,0.571 24.78,2.483 49.668,1.072 74.439,-0.64 54.171,-5.962 108.104,-13.652 162.339,-19.101 63.078,-5.922 126.376,-8.861 189.653,-11.651 36.018,-1.718 72.082,-2.677 108.049,-5.335 1.746,-0.265 3.547,-0.285 5.238,-0.795 0.719,-0.217 -1.575,-0.432 -2.252,-0.105 -6.322,3.052 -12.316,6.74 -18.474,10.111 12.966,-13.671 77.41,47.451 64.444,61.122 l 0,0 c -16.492,10.462 -24.964,17.511 -43.863,17.541 -36.534,1.588 -73.101,2.174 -109.642,3.578 -61.538,2.286 -123.101,4.915 -184.415,10.871 -54.995,5.743 -109.619,14.096 -164.517,20.614 -30.245,2.455 -60.656,4.43 -90.953,1.468 -27.403,-3.241 -52.556,-11.324 -69.866,-34.385 -15.672,-23.018 -25.555,-48.786 -31.758,-75.931 -10.127,-44.363 -16.065,-89.461 -20.589,-134.72 -5.862,-55.264 -11.319,-110.596 -19.591,-165.568 -5.663,-37.615 -11.228,-75.362 -20.765,-112.234 -4.55,-18.2 81.245,-39.649 85.795,-21.449 z" id="path13229" inkscape:connector-curvature="0" style="fill:#916f6f;fill-opacity:1;fill-rule:nonzero;stroke:#f9f9f9;stroke-width:0.1;stroke-miterlimit:4;stroke-dasharray:none" transform="translate(-11264, -57344)"/><path d="m 11647.072,57767.349 c -11.44,35.334 -21.764,71.009 -31.428,106.865 -10.715,40.102 -19.041,80.799 -23.323,122.093 -1.247,11.732 -1.026,23.439 0,35.152 1.099,18.615 -86.649,23.797 -87.749,5.183 l 0,0 c -0.702,-16.67 -0.92,-33.329 1.096,-49.946 5.329,-45.561 14.429,-90.53 26.255,-134.857 9.66,-36.436 20.12,-72.645 30.139,-108.983 5.196,-18.031 90.199,6.461 85.004,24.493 z" id="path13231" inkscape:connector-curvature="0" style="fill:#916f6f;fill-opacity:1;fill-rule:nonzero;stroke:#f9f9f9;stroke-width:0.1;stroke-miterlimit:4;stroke-dasharray:none" transform="translate(-11264, -57344)"/><path d="m 11587.568,57841.106 c 36.334,-25.372 78.63,-39.233 120.72,-51.631 47.378,-13.1 95.792,-21.87 144.639,-27.039 31.26,-2.939 62.668,-2.235 93.83,1.261 3.334,0.545 6.667,1.09 10.001,1.635 18.437,3.312 2.824,90.227 -15.614,86.915 l 0,0 c -1.731,-0.365 -3.461,-0.73 -5.192,-1.095 -24.621,-3.437 -49.529,-4.089 -74.322,-2.132 -43.519,4.102 -86.641,11.809 -128.801,23.458 -31.543,9.367 -63.832,19.169 -90.996,38.397 -14.8,11.511 -69.065,-58.258 -54.265,-69.769 z" id="path13233" inkscape:connector-curvature="0" style="fill:#916f6f;fill-opacity:1;fill-rule:nonzero;stroke:#f9f9f9;stroke-width:0.1;stroke-miterlimit:4;stroke-dasharray:none" transform="translate(-11264, -57344)"/><path d="m 11562.435,58053.09 c 39.829,-0.155 79.172,-7.908 118.152,-15.318 58.023,-11.848 115.77,-24.994 173.641,-37.554 44.627,-9.739 89.632,-17.52 134.776,-24.407 15.219,-3.291 31.283,-2.967 46.294,-7.26 18.342,-4.027 37.326,82.437 18.984,86.464 l 0,0 c -17.43,3.408 -35.13,4.798 -52.712,7.232 -43.309,5.973 -86.463,13.036 -129.228,22.183 -58.505,12.469 -116.848,25.676 -175.393,37.955 -45.821,9.001 -91.997,17.984 -138.833,18.953 -18.721,-0.916 -14.401,-89.165 4.319,-88.248 z" id="path13235" inkscape:connector-curvature="0" style="fill:#916f6f;fill-opacity:1;fill-rule:nonzero;stroke:#f9f9f9;stroke-width:0.1;stroke-miterlimit:4;stroke-dasharray:none" transform="translate(-11264, -57344)"/><path d="m 11841.319,57862.332 c -6.389,39.477 -14.813,78.56 -23.615,117.556 -13.278,56.788 -27.579,113.332 -42.255,169.773 -7.057,27.632 -15.208,54.953 -24.089,82.048 -5.928,17.561 -88.716,-10.383 -82.788,-27.945 l 0,0 c 8.742,-25.072 16.61,-50.43 23.394,-76.109 14.758,-55.223 28.92,-110.616 41.445,-166.393 7.967,-36.873 15.858,-73.837 20.275,-111.339 2.632,-18.589 90.265,-6.181 87.633,12.409 z" id="path13237" inkscape:connector-curvature="0" style="fill:#916f6f;fill-opacity:1;fill-rule:nonzero;stroke:#f9f9f9;stroke-width:0.1;stroke-miterlimit:4;stroke-dasharray:none" transform="translate(-11264, -57344)"/><path d="m 11843.562,58074.352 c 25.548,13.301 49.556,29.271 73.576,45.098 21.846,14.911 44.641,28.241 68.519,39.597 16.767,8.177 -21.777,87.219 -38.545,79.042 l 0,0 c -27.005,-13.434 -53.053,-28.596 -78.026,-45.536 -20.961,-13.743 -41.827,-27.902 -64.489,-38.742 -16.856,-8.266 22.11,-87.725 38.965,-79.459 z" id="path13239" inkscape:connector-curvature="0" style="fill:#916f6f;fill-opacity:1;fill-rule:nonzero;stroke:#f9f9f9;stroke-width:0.1;stroke-miterlimit:4;stroke-dasharray:none" transform="translate(-11264, -57344)"/></svg>