<?xml version="1.0" encoding="UTF-8" standalone="no"?>
<svg
   xmlns:dc="http://purl.org/dc/elements/1.1/"
   xmlns:cc="http://creativecommons.org/ns#"
   xmlns:rdf="http://www.w3.org/1999/02/22-rdf-syntax-ns#"
   xmlns:svg="http://www.w3.org/2000/svg"
   xmlns="http://www.w3.org/2000/svg"
   xmlns:sodipodi="http://sodipodi.sourceforge.net/DTD/sodipodi-0.dtd"
   xmlns:inkscape="http://www.inkscape.org/namespaces/inkscape"
   width="1024"
   height="1024"
   id="U5371"
   version="1.1"
   inkscape:version="0.48.0 r9654"
   sodipodi:docname="U+5371.svg">
  <metadata
     id="metadata13">
    <rdf:RDF>
      <cc:Work
         rdf:about="">
        <dc:format>image/svg+xml</dc:format>
        <dc:type
           rdf:resource="http://purl.org/dc/dcmitype/StillImage" />
      </cc:Work>
    </rdf:RDF>
  </metadata>
  <defs
     id="defs11" />
  <sodipodi:namedview
     pagecolor="#ffffff"
     bordercolor="#666666"
     borderopacity="1"
     objecttolerance="10"
     gridtolerance="10"
     guidetolerance="10"
     inkscape:pageopacity="0"
     inkscape:pageshadow="2"
     inkscape:window-width="640"
     inkscape:window-height="480"
     id="namedview9"
     showgrid="false"
     inkscape:zoom="0.27441406"
     inkscape:cx="512"
     inkscape:cy="512"
     inkscape:window-x="0"
     inkscape:window-y="25"
     inkscape:window-maximized="0"
     inkscape:current-layer="U5371" />
  <path
     style="fill:#501616;fill-opacity:1;fill-rule:nonzero;stroke:#f9f9f9;stroke-width:0.1;stroke-miterlimit:4;stroke-dasharray:none"
     d="M 346.625 118.71875 C 342.45996 118.85815 339.42712 120.07406 338.09375 122.6875 C 325.40275 151.5285 315.26385 181.432 305.15625 211.25 C 297.60945 233.229 291.426 255.59925 286.4375 278.28125 C 282.6752 296.50525 368.58145 314.224 372.34375 296 C 375.95385 276.737 381.3486 257.921 387.6875 239.375 C 391.05046 229.56409 394.43614 219.71552 397.9375 209.9375 C 403.46136 223.47299 410.4597 233.29016 416.9375 231.59375 C 446.8965 223.03775 477.83005 218.55175 508.65625 214.46875 C 537.74515 211.35275 567.0422 208.887 596.3125 210.125 C 596.4458 210.09294 596.58193 210.0885 596.71875 210.0625 C 596.1713 212.19337 595.47259 214.67074 594.5 217.59375 C 584.0533 245.16675 571.4447 271.86425 560 299.03125 C 553.0553 316.00325 556.35525 307.82925 550.03125 323.53125 C 549.9209 323.8121 549.84585 324.08667 549.78125 324.375 C 542.04412 324.98663 534.32315 325.6432 526.59375 326.375 C 455.04895 333.47 383.6174 342.2335 313.0625 356.3125 C 271.2917 364.6355 229.6821 373.6935 188 382.4375 C 173.52957 385.60337 182.28237 440.13024 195.625 460.9375 C 179.49882 508.1707 165.92461 556.25419 152.84375 604.40625 C 133.45775 674.48025 121.197 746.09425 114.4375 818.40625 C 111.4877 860.97225 110.79375 903.77825 114.90625 946.28125 C 116.98185 964.80525 204.29425 954.99275 202.21875 936.46875 C 197.34305 899.86575 198.06875 862.76775 199.90625 825.96875 C 205.51765 758.66875 216.84465 692.084 235.15625 627 C 248.96415 577.252 263.14075 527.40675 282.46875 479.46875 C 285.26904 472.79474 274.81611 463.58763 260.53125 455.8125 C 283.72094 450.46151 306.98829 445.41941 330.28125 440.53125 C 397.82225 426.39525 466.3188 417.92275 534.9375 411.21875 C 592.9489 405.86375 651.2157 404.60525 709.4375 404.90625 C 738.9254 405.12525 768.3889 406.03825 797.875 406.40625 C 816.592 406.32725 816.2169 318.07625 797.5 318.15625 C 768.1144 318.83425 738.73255 318.0565 709.34375 318.3125 C 688.35649 318.45908 667.35497 318.78452 646.375 319.375 C 657.03775 294.61693 668.46285 270.1527 677.9375 244.90625 C 688.6932 211.74525 694.775 178.3555 671 148.9375 C 648.3371 129.4165 628.55935 123.3015 598.78125 122.3125 C 564.83545 121.6875 530.92975 124.218 497.21875 128.125 C 466.3603 132.20453 435.54862 136.85351 405.15625 143.625 C 388.99259 130.82385 361.09353 118.2345 346.625 118.71875 z M 565.5625 447.5 C 541.0936 447.61963 516.60715 449.7195 492.21875 453.5 C 450.67825 460.188 409.0674 468.20375 370.125 484.71875 C 364.00756 487.52656 364.88275 499.68587 369.25 513.75 C 365.74015 514.32109 363.21901 515.72653 362.1875 518.15625 C 349.2888 553.51825 343.79965 590.94225 338.46875 628.03125 C 331.32795 677.43625 328.5593 727.22425 331.625 777.03125 C 335.6227 816.22525 346.9854 855.081 374.3125 884.625 C 379.6281 890.372 385.8589 895.205 391.625 900.5 C 436.0167 934.252 490.12495 940.01225 544.03125 941.78125 C 609.82695 941.91925 675.0738 932.4625 739.6875 920.9375 C 791.1443 911.3505 842.1087 899.34375 892.5 885.21875 C 910.2488 880.07875 886.02995 796.4215 868.28125 801.5625 C 821.01495 815.7365 773.02385 827.3865 724.53125 836.5625 C 665.87815 847.1855 606.60525 855.897 546.84375 855.625 C 513.37475 854.539 478.3422 853.066 449.125 834.75 C 428.5761 818.916 420.5491 796.8135 418.1875 771.1875 C 414.9241 727.5565 417.96985 683.92425 424.28125 640.65625 C 428.73165 611.03325 432.92635 580.884 443.65625 552.75 C 443.80446 552.40088 443.89169 552.01892 443.96875 551.65625 C 464.30243 545.96896 485.25674 542.32843 506.0625 538.9375 C 545.0193 533.2675 584.54695 531.302 623.28125 539.125 C 628.19805 541.373 639.4865 542.3585 642.3125 548.6875 C 642.5906 549.3105 639.8691 551.04325 639.5 552.15625 C 639.0064 577.01925 632.39585 601.08775 624.84375 624.59375 C 617.4517 640.32959 613.00891 661.91243 600.125 674.96875 C 601.40442 674.47929 602.80857 674.1426 604.25 673.90625 C 583.47139 684.17541 548.57905 733.67875 560.84375 743.15625 C 594.05285 766.97125 624.62515 768.931 657.03125 741.875 C 681.45595 716.026 696.97455 684.69675 707.96875 650.96875 C 720.01455 612.59775 730.4889 572.778 725.0625 532.25 C 723.0525 525.233 721.90155 517.92875 719.03125 511.21875 C 704.63665 477.56375 672.8522 460.8915 638.8125 453.3125 C 614.4851 449.2415 590.0314 447.38037 565.5625 447.5 z M 600.125 674.96875 C 597.85772 675.83613 595.99801 677.1768 595.125 679.25 C 596.9233 677.95769 598.58642 676.52792 600.125 674.96875 z "
     id="path12810" />
</svg>
