<?xml version="1.0" encoding="UTF-8" standalone="no"?>
<svg
   xmlns:dc="http://purl.org/dc/elements/1.1/"
   xmlns:cc="http://creativecommons.org/ns#"
   xmlns:rdf="http://www.w3.org/1999/02/22-rdf-syntax-ns#"
   xmlns:svg="http://www.w3.org/2000/svg"
   xmlns="http://www.w3.org/2000/svg"
   xmlns:sodipodi="http://sodipodi.sourceforge.net/DTD/sodipodi-0.dtd"
   xmlns:inkscape="http://www.inkscape.org/namespaces/inkscape"
   width="1024"
   height="1024"
   id="U53EB"
   version="1.1"
   inkscape:version="0.48.0 r9654"
   sodipodi:docname="U+53EB.svg">
  <metadata
     id="metadata12">
    <rdf:RDF>
      <cc:Work
         rdf:about="">
        <dc:format>image/svg+xml</dc:format>
        <dc:type
           rdf:resource="http://purl.org/dc/dcmitype/StillImage" />
      </cc:Work>
    </rdf:RDF>
  </metadata>
  <defs
     id="defs10" />
  <sodipodi:namedview
     pagecolor="#ffffff"
     bordercolor="#666666"
     borderopacity="1"
     objecttolerance="10"
     gridtolerance="10"
     guidetolerance="10"
     inkscape:pageopacity="0"
     inkscape:pageshadow="2"
     inkscape:window-width="640"
     inkscape:window-height="480"
     id="namedview8"
     showgrid="false"
     inkscape:zoom="0.27441406"
     inkscape:cx="512"
     inkscape:cy="512"
     inkscape:window-x="0"
     inkscape:window-y="25"
     inkscape:window-maximized="0"
     inkscape:current-layer="U53EB" />
  <path
     style="fill:#550000;fill-opacity:1;fill-rule:nonzero;stroke:#f9f9f9;stroke-width:0.1;stroke-miterlimit:4;stroke-dasharray:none"
     d="M 747.0625 126.375 C 720.7661 126.47244 686.65844 134.91125 688.03125 146.65625 C 695.31615 198.29325 697.64 250.46625 699.3125 302.53125 C 701.07788 386.50378 697.41504 470.44038 694.40625 554.34375 C 676.9412 556.47772 659.51803 558.87766 642.125 561.5625 C 611.7902 565.9195 581.3403 571.01225 550.625 571.28125 C 548.9299 571.26125 547.19565 570.929 545.53125 571.25 C 543.99945 571.546 545.01 573.74275 544.5 574.34375 C 541.5449 577.82675 536.02755 561.29875 537.28125 563.09375 C 529.95855 525.10375 534.63135 486.21525 536.59375 447.90625 C 539.21995 405.18725 542.85865 361.88625 535.71875 319.40625 C 531.41155 300.94625 444.3803 321.2285 448.6875 339.6875 C 454.4363 373.6595 451.24555 408.5035 449.28125 442.6875 C 445.82145 487.7345 443.3548 532.79475 450.125 577.59375 C 463.7127 630.13675 484.6973 649.60825 538 659.03125 C 577.1535 661.27525 616.04245 654.27375 654.65625 648.71875 C 667.06363 646.80505 679.4802 645.11111 691.9375 643.59375 C 691.48946 686.81128 692.20136 730.02336 694.125 773.21875 C 695.7276 805.03075 698.47585 836.78525 702.28125 868.40625 C 702.58995 870.77625 702.91015 873.16025 703.21875 875.53125 C 705.93375 894.28325 794.34 881.47175 791.625 862.71875 C 791.2991 860.70675 790.9509 858.6995 790.625 856.6875 C 786.3502 827.5185 783.14875 798.20725 781.28125 768.78125 C 777.91618 710.97987 777.16397 653.08827 778.65625 595.21875 C 789.69145 583.85647 796.58027 572.45314 792.0625 566.9375 C 787.90448 564.14592 783.93475 561.06275 779.84375 558.15625 C 782.69895 472.19564 786.49152 386.21546 785.4375 300.1875 C 784.2185 245.4795 782.0338 190.7905 776.625 136.3125 C 775.80131 129.2655 762.84034 126.31654 747.0625 126.375 z M 366.59375 299.75 C 364.04309 299.7504 361.41387 299.8235 358.6875 299.96875 C 329.6851 302.81275 300.7666 306.7935 272.125 312.1875 C 239.5488 318.8845 206.82065 326.08375 176.03125 338.96875 C 170.85845 341.46101 170.82746 350.59472 173.75 361.875 C 147.88352 355.60035 110.45775 356.02964 109.1875 368.1875 C 107.2417 409.3325 111.4563 450.46175 115.625 491.34375 C 120.0541 531.14275 124.82065 570.8915 129.28125 610.6875 C 130.22875 620.6285 131.5096 630.513 133.0625 640.375 C 134.22398 646.79162 145.39198 649.12532 159.40625 648.65625 C 156.91521 671.30131 183.36684 728.95197 198.125 722.875 C 225.052 712.4 253.55175 706.82875 281.84375 701.46875 C 313.52485 695.92675 345.5121 692.14325 377.625 690.40625 C 390.175 690.22225 384.2851 690.12625 395.3125 690.53125 C 412.2447 690.84787 415.32254 619.32101 402.15625 604.3125 C 404.15098 595.62885 405.75971 586.84297 407.125 577.9375 C 414.2295 536.8405 420.6181 495.5705 424.8125 454.0625 C 427.8709 422.0835 431.0469 389.93725 430.25 357.78125 C 423.60275 316.30531 404.85364 299.74403 366.59375 299.75 z M 368.8125 388.65625 C 369.60837 388.64875 370.3986 388.655 371.1875 388.75 C 372.98533 388.96578 370.00122 389.00372 367 388.6875 C 367.60719 388.68626 368.20509 388.66197 368.8125 388.65625 z M 341 391.03125 C 340.24377 409.38809 338.73369 427.73679 337.125 446.03125 C 333.4745 485.11825 327.39935 523.899 320.34375 562.5 C 315.28675 576.601 317.3973 596.07775 307.8125 608.46875 C 293.67663 610.33495 279.58162 612.45969 265.53125 614.90625 C 250.62404 617.70056 235.70458 620.61948 220.90625 624 C 219.16145 616.08296 218.15793 608.04365 217.15625 600 C 212.02705 560.901 207.0448 521.79475 202.75 482.59375 C 200.34448 458.27915 197.83845 433.81121 197.34375 409.34375 C 203.74132 417.22324 210.12484 421.74231 214.84375 419.46875 C 238.77045 409.16175 264.4608 403.837 289.875 398.625 C 306.81333 395.48822 323.87535 392.94096 341 391.03125 z "
     id="path9059" />
</svg>
