<?xml version="1.0" encoding="utf-8" ?>

<!DOCTYPE svg PUBLIC "-//W3C//DTD SVG 1.1//EN" 
  "http://www.w3.org/Graphics/SVG/1.1/DTD/svg11.dtd">
<svg 
    xmlns="http://www.w3.org/2000/svg"
    xmlns:xlink="http://www.w3.org/1999/xlink"
    xmlns:sodipodi="http://sodipodi.sourceforge.net/DTD/sodipodi-0.dtd"
    xmlns:inkscape="http://www.inkscape.org/namespaces/inkscape"
    width="1024" height="1024" id="U548C">
<path d="m 11596.431,17649.941 c -11.561,36.374 -26.362,71.577 -41.465,106.588 -16.587,38.525 -35.39,76.011 -55.233,112.943 -8.649,16.02 -84.169,-24.75 -75.521,-40.77 l 0,0 c 18.761,-34.573 36.441,-69.727 51.818,-105.955 13.427,-31.638 26.878,-63.428 36.119,-96.595 5.046,-17.879 89.329,5.91 84.282,23.789 z" id="path24633" inkscape:connector-curvature="0" style="fill:#550000;fill-opacity:1;fill-rule:nonzero;stroke:#f9f9f9;stroke-width:0.1;stroke-miterlimit:4;stroke-dasharray:none" transform="translate(-11264, -17408)"/><path d="m 11357.43,17984.558 c 39.111,4.847 78.672,1.095 117.79,-1.762 57.283,-4.989 114.666,-8.295 172.149,-9.514 34.697,-0.675 69.49,0.971 104.081,-2.385 6.897,0.02 19.049,-7.034 1.674,1.439 14.411,-11.802 70.044,56.132 55.633,67.933 l 0,0 c -15.943,10.076 -30.963,16.694 -50.172,17.358 -36.526,2.602 -73.116,1.178 -109.703,1.261 -55.83,0.779 -111.563,3.873 -167.166,9.04 -45.981,3.652 -92.31,7.834 -138.373,2.992 -18.32,-2.989 -4.233,-89.351 14.087,-86.362 z" id="path24635" inkscape:connector-curvature="0" style="fill:#550000;fill-opacity:1;fill-rule:nonzero;stroke:#f9f9f9;stroke-width:0.1;stroke-miterlimit:4;stroke-dasharray:none" transform="translate(-11264, -17408)"/><path d="m 11631.485,17735.954 c -8.388,45.03 -16.248,90.152 -23.712,135.344 -12.698,75.64 -20.665,151.908 -24.535,228.479 -2.739,54.995 1.773,109.833 10.071,164.147 -0.703,14.779 9.518,31.143 6.918,46.016 -1.525,8.724 -4.508,17.129 -6.762,25.694 -9.674,15.994 -85.067,-29.608 -75.393,-45.601 l 0,0 c -11.523,49.447 -2.897,7.283 -10.126,-14.038 -7.849,-59.887 -12.174,-120.225 -8.897,-180.655 4.352,-79.505 12.555,-158.708 25.001,-237.376 6.929,-45.151 14.404,-90.224 20.837,-135.448 2.851,-18.37 89.449,-4.932 86.598,13.438 z" id="path24637" inkscape:connector-curvature="0" style="fill:#550000;fill-opacity:1;fill-rule:nonzero;stroke:#f9f9f9;stroke-width:0.1;stroke-miterlimit:4;stroke-dasharray:none" transform="translate(-11264, -17408)"/><path d="m 11565.547,18120.684 c -25.729,22.233 -47.981,48.173 -70.528,73.535 -24.906,28.537 -50.762,56.209 -76.658,83.842 -2.204,2.391 -4.408,4.783 -6.612,7.174 -12.768,13.394 -75.907,-46.794 -63.139,-60.187 l 0,0 c 2.332,-2.367 4.664,-4.734 6.996,-7.1 25.727,-26.265 50.973,-52.996 75.128,-80.724 25.695,-29.058 51.069,-58.611 79.807,-84.747 14.469,-11.669 69.475,56.538 55.006,68.207 z" id="path24639" inkscape:connector-curvature="0" style="fill:#550000;fill-opacity:1;fill-rule:nonzero;stroke:#f9f9f9;stroke-width:0.1;stroke-miterlimit:4;stroke-dasharray:none" transform="translate(-11264, -17408)"/><path d="m 11498.297,18126.158 c 36.759,-6.615 70.986,2.697 104.041,18.238 33.109,18.846 63.222,42.314 95.274,62.848 20.366,10.997 40.987,26.85 64.785,29.119 0.08,-0.292 0.155,-0.583 0.233,-0.875 18.533,-0.183 19.399,87.184 0.865,87.368 l 0,0 c -5.568,-0.236 -11.136,-0.472 -16.704,-0.708 -34.701,-7.295 -66.087,-23.126 -95.81,-42.283 -29.071,-18.705 -56.825,-39.362 -86.294,-57.423 -15.915,-8.042 -31.906,-14.146 -50.031,-10.221 -18.257,3.471 -34.616,-82.593 -16.359,-86.063 z" id="path24641" inkscape:connector-curvature="0" style="fill:#550000;fill-opacity:1;fill-rule:nonzero;stroke:#f9f9f9;stroke-width:0.1;stroke-miterlimit:4;stroke-dasharray:none" transform="translate(-11264, -17408)"/><path d="m 11790.819,17834.983 c 1.498,39.853 7.079,79.411 13.099,118.788 7.138,43.591 17.044,86.903 34.909,127.421 6.059,10.749 2.852,6.712 8.531,12.903 10.733,15.051 -60.218,65.648 -70.951,50.597 l 0,0 c -12.472,-18.874 -6.684,-8.918 -17.223,-29.951 -19.319,-47.469 -31.657,-97.231 -39.73,-147.818 -6.707,-42.348 -12.772,-84.826 -16.04,-127.601 -0.921,-18.541 86.484,-22.88 87.405,-4.339 z" id="path24649" inkscape:connector-curvature="0" style="fill:#550000;fill-opacity:1;fill-rule:nonzero;stroke:#f9f9f9;stroke-width:0.1;stroke-miterlimit:4;stroke-dasharray:none" transform="translate(-11264, -17408)"/><path d="m 11770.471,17836.815 c 36.885,-15.617 76.451,-23.144 115.673,-30.213 45.755,-7.731 91.99,-12.2 138.394,-11.973 28.359,1.584 61.181,4.358 82.408,26.035 5.189,5.298 8.756,11.971 13.133,17.957 15.308,37.515 2.046,75.259 -8.477,112.155 -11.54,40.48 -25.601,80.127 -42.502,118.665 -11.822,28.291 -29.123,51.882 -52.199,71.771 -14.338,11.643 -69.227,-55.947 -54.889,-67.59 l 0,0 c 13.931,-9.084 20.844,-24.905 28.169,-39.254 15.607,-34.567 28.119,-70.365 38.284,-106.909 3.875,-14.081 7.788,-28.109 10.68,-42.432 0.483,-2.392 0.37,-8.651 2.162,-6.994 1.256,1.162 1.984,2.79 2.975,4.185 0.676,0.56 6.096,6.303 8.913,5.408 0.144,-0.05 -0.2,-1.807 -7.424,-3.674 -8.525,-2.204 -13.161,-2.133 -22.362,-2.918 -40.861,-0.959 -81.598,3.267 -121.876,10.037 -31.309,5.772 -63.151,11.532 -92.467,24.417 -16.689,8.188 -55.284,-70.486 -38.595,-78.673 z" id="path24651" inkscape:connector-curvature="0" style="fill:#550000;fill-opacity:1;fill-rule:nonzero;stroke:#f9f9f9;stroke-width:0.1;stroke-miterlimit:4;stroke-dasharray:none" transform="translate(-11264, -17408)"/><path d="m 11765.601,18064.561 c 39.644,3.984 79.603,2.592 119.383,2.351 40.98,-0.705 81.989,-0.39 121.223,12.378 17.375,6.27 -12.181,88.174 -29.556,81.904 l 0,0 c -27.571,-13.252 -61.848,-5.928 -91.139,-8.546 -43.248,0.27 -86.567,1.673 -129.761,-1.182 -18.435,-2.089 -8.586,-88.995 9.85,-86.905 z" id="path24653" inkscape:connector-curvature="0" style="fill:#550000;fill-opacity:1;fill-rule:nonzero;stroke:#f9f9f9;stroke-width:0.1;stroke-miterlimit:4;stroke-dasharray:none" transform="translate(-11264, -17408)"/></svg>