<?xml version="1.0" encoding="UTF-8" standalone="no"?>
<svg
   xmlns:dc="http://purl.org/dc/elements/1.1/"
   xmlns:cc="http://creativecommons.org/ns#"
   xmlns:rdf="http://www.w3.org/1999/02/22-rdf-syntax-ns#"
   xmlns:svg="http://www.w3.org/2000/svg"
   xmlns="http://www.w3.org/2000/svg"
   xmlns:sodipodi="http://sodipodi.sourceforge.net/DTD/sodipodi-0.dtd"
   xmlns:inkscape="http://www.inkscape.org/namespaces/inkscape"
   width="1024"
   height="1024"
   id="U540E"
   version="1.1"
   inkscape:version="0.48.0 r9654"
   sodipodi:docname="U+540E.svg">
  <metadata
     id="metadata13">
    <rdf:RDF>
      <cc:Work
         rdf:about="">
        <dc:format>image/svg+xml</dc:format>
        <dc:type
           rdf:resource="http://purl.org/dc/dcmitype/StillImage" />
      </cc:Work>
    </rdf:RDF>
  </metadata>
  <defs
     id="defs11" />
  <sodipodi:namedview
     pagecolor="#ffffff"
     bordercolor="#666666"
     borderopacity="1"
     objecttolerance="10"
     gridtolerance="10"
     guidetolerance="10"
     inkscape:pageopacity="0"
     inkscape:pageshadow="2"
     inkscape:window-width="640"
     inkscape:window-height="480"
     id="namedview9"
     showgrid="false"
     inkscape:zoom="0.27441406"
     inkscape:cx="512"
     inkscape:cy="512"
     inkscape:window-x="0"
     inkscape:window-y="25"
     inkscape:window-maximized="0"
     inkscape:current-layer="U540E" />
  <path
     style="fill:#550000;fill-opacity:1;fill-rule:nonzero;stroke:#f9f9f9;stroke-width:0.1;stroke-miterlimit:4;stroke-dasharray:none"
     d="M 540.96875 172.03125 C 539.39851 172.1114 538.05185 172.62711 536.96875 173.59375 C 511.59735 197.01475 483.48225 217.181 455.28125 237 C 415.06275 264.78 373.57575 290.66775 331.03125 314.71875 C 306.07465 328.55875 280.35785 340.92225 254.53125 353.03125 C 248.5525 355.89221 249.61915 367.86982 254.15625 381.65625 C 229.3665 389.52466 199.03867 408.20118 203.96875 418.9375 C 212.26395 442.8855 211.59375 468.90125 211.59375 493.90625 C 210.52345 547.37125 204.9072 600.58425 197.75 653.53125 C 191.3774 698.78625 182.31915 743.64725 167.46875 786.90625 C 161.73355 803.57725 153.3761 818.88575 142.0625 832.34375 C 139.1797 835.41575 140.49505 834.13775 138.21875 836.21875 C 125.35995 849.70875 188.9537 910.33375 201.8125 896.84375 C 207.2407 890.87575 204.3507 894.14225 210.375 887.03125 C 227.4921 865.04725 240.79875 840.69675 249.40625 814.09375 C 265.07855 765.49975 275.363 715.49125 282.25 664.90625 C 289.8309 608.27825 295.92965 551.4 297.59375 494.25 C 297.7455 472.82316 297.73371 451.10384 295.125 429.8125 C 321.5607 416.89735 347.93441 403.78678 373.5625 389.3125 C 418.1961 363.6875 461.81275 336.366 504.34375 307.375 C 535.54955 285.779 566.40835 263.6195 595.28125 238.9375 C 608.06185 227.53114 559.49759 171.08547 540.96875 172.03125 z M 651.65625 418.0625 C 631.60694 417.92321 611.44027 420.14762 591.375 422.21875 C 538.7433 429.10275 486.55595 439.27575 435.84375 455.21875 C 400.08445 466.36175 364.60135 478.3465 328.90625 489.6875 C 311.25145 495.5185 338.75135 578.73725 356.40625 572.90625 C 391.22125 560.19125 426.28105 548.1915 461.59375 536.9375 C 507.36515 522.3045 554.53855 513.2695 602.15625 507.4375 C 608.75595 506.8635 615.35975 506.17375 621.96875 505.71875 C 632.38435 505.00175 662.26335 501.23 672.03125 506.125 C 672.09305 506.15584 672.08954 506.16271 672.125 506.1875 C 689.70092 500.79087 714.22782 429.76559 698.0625 423.875 C 682.77594 419.70388 667.25016 418.17084 651.65625 418.0625 z M 672.125 506.1875 C 671.82652 506.27915 671.51299 506.32184 671.21875 506.375 C 671.96105 506.41671 672.39994 506.37976 672.125 506.1875 z M 671.21875 506.375 C 670.22873 506.31937 668.77738 506.15083 668.0625 506.15625 C 669.07615 506.52568 670.13232 506.57128 671.21875 506.375 z M 578.75 538.78125 C 541.54136 538.66579 504.66041 542.90969 469.4375 555.90625 C 434.54966 569.3645 400.53542 585.87172 374.75 613.625 C 351.90763 609.03529 326.48151 609.36974 324.8125 619.15625 C 319.9512 654.27425 320.09765 689.78725 320.34375 725.15625 C 320.96045 757.97525 322.17755 790.859 325.78125 823.5 C 326.68719 830.64122 340.32791 833.31959 356.53125 832.875 C 358.83957 854.95235 365.91874 876.78062 375.28125 875.75 C 413.20845 869.337 450.91925 861.86225 488.90625 855.78125 C 531.5419 848.52101 574.61558 846.43301 617.71875 847.34375 C 636.4244 861.91762 660.44695 873.47894 666.34375 865.21875 C 669.5024 860.62077 672.52002 855.95123 675.4375 851.21875 C 693.3038 853.36914 711.03377 856.49878 728.4375 861.1875 C 730.196 861.7955 731.96015 862.392 733.71875 863 C 751.43935 868.467 777.18935 784.93575 759.46875 779.46875 L 749.5 776.59375 C 737.44573 773.76454 725.29722 771.39773 713.09375 769.4375 C 721.08362 748.31062 728.06709 726.82861 733.0625 704.75 C 739.6512 671.727 744.0399 638.11425 729.0625 606.53125 C 715.0329 582.90525 696.4438 564.992 670.3125 555.125 C 643.2424 545.355 615.0116 539.82775 586.1875 538.84375 C 583.70459 538.79838 581.23058 538.78895 578.75 538.78125 z M 573.4375 625.3125 C 576.99533 625.31933 580.52936 625.3855 584.09375 625.5 C 603.01045 626.719 621.97265 629.6265 639.59375 636.8125 C 643.46665 639.1145 652.62595 642.4195 652.28125 648.3125 C 653.46965 661.6305 650.62975 674.774 648.03125 687.75 C 642.27226 713.2617 633.2306 737.79435 623.09375 761.84375 C 573.77666 760.93395 524.49431 763.19199 475.6875 771.15625 C 453.4082 774.56052 431.21006 778.45868 408.96875 782.09375 C 407.53026 762.98057 407.12321 743.7893 406.59375 724.65625 C 406.48874 703.76973 406.26949 682.76423 407.8125 661.90625 C 422.03979 671.4486 436.02293 676.90113 440.71875 671.03125 C 456.65395 653.84625 478.64545 644.651 500.15625 636.625 C 523.84609 628.05787 548.53271 625.26472 573.4375 625.3125 z "
     id="path24771" />
</svg>
