<?xml version="1.0" encoding="UTF-8" standalone="no"?>
<svg
   xmlns:dc="http://purl.org/dc/elements/1.1/"
   xmlns:cc="http://creativecommons.org/ns#"
   xmlns:rdf="http://www.w3.org/1999/02/22-rdf-syntax-ns#"
   xmlns:svg="http://www.w3.org/2000/svg"
   xmlns="http://www.w3.org/2000/svg"
   xmlns:sodipodi="http://sodipodi.sourceforge.net/DTD/sodipodi-0.dtd"
   xmlns:inkscape="http://www.inkscape.org/namespaces/inkscape"
   width="1024"
   height="1024"
   id="U54CD"
   version="1.1"
   inkscape:version="0.48.0 r9654"
   sodipodi:docname="U+54CD.svg">
  <metadata
     id="metadata16">
    <rdf:RDF>
      <cc:Work
         rdf:about="">
        <dc:format>image/svg+xml</dc:format>
        <dc:type
           rdf:resource="http://purl.org/dc/dcmitype/StillImage" />
      </cc:Work>
    </rdf:RDF>
  </metadata>
  <defs
     id="defs14" />
  <sodipodi:namedview
     pagecolor="#ffffff"
     bordercolor="#666666"
     borderopacity="1"
     objecttolerance="10"
     gridtolerance="10"
     guidetolerance="10"
     inkscape:pageopacity="0"
     inkscape:pageshadow="2"
     inkscape:window-width="640"
     inkscape:window-height="480"
     id="namedview12"
     showgrid="false"
     inkscape:zoom="0.27441406"
     inkscape:cx="512"
     inkscape:cy="512"
     inkscape:window-x="0"
     inkscape:window-y="25"
     inkscape:window-maximized="0"
     inkscape:current-layer="U54CD" />
  <path
     style="fill:#916f6f;fill-opacity:1;fill-rule:nonzero;stroke:#f9f9f9;stroke-width:0.1;stroke-miterlimit:4;stroke-dasharray:none"
     d="M 617.84375 168.40625 C 616.25783 168.45284 614.8638 168.92344 613.75 169.875 C 581.143 199.305 554.66695 234.421 529.59375 270.25 C 509.57445 299.257 492.86635 330.27 476.90625 361.625 C 470.38494 374.6417 517.50824 401.65667 541.625 404.28125 C 532.23483 405.77232 522.85603 407.36526 513.5 409.09375 C 479.2378 415.67575 444.65555 422.8895 414.03125 440.4375 C 401.71132 448.07635 426.68798 494.63441 446.0625 510.90625 C 426.42166 508.05026 399.0972 510.11314 386.65625 516.625 C 387.3243 502.31531 387.05958 487.99777 384.90625 473.75 C 377.98135 443.5 363.8601 418.26825 335.0625 403.90625 C 314.1211 394.16225 292.07345 387.65525 269.28125 383.78125 C 241.34975 378.89825 213.02835 374.7165 184.78125 380.0625 C 154.78365 386.6575 125.60085 396.721 100.84375 415.5 C 99.586904 416.54986 98.874757 418.03376 98.625 419.84375 C 81.372685 418.23897 66.298746 420.11257 64.96875 427.59375 C 59.83555 465.98975 61.5485 504.766 64.4375 543.25 C 66.5337 578.107 75.0456 611.7395 87.875 644.0625 C 95.1886 658.5625 90.9304 651.39925 100.875 665.40625 C 104.20611 669.52289 112.06523 668.06114 121.375 663.5 C 128.95675 678.33928 138.1448 689.4067 145 686.6875 C 169.9948 676.2565 196.6664 671.2465 223.375 667.6875 C 249.7014 664.5015 276.045 666.576 302 671.375 C 309.9419 672.774 317.5796 675.1045 325 678.1875 C 331.62131 680.64723 340.11834 670.38539 347.1875 656.3125 C 362.49101 656.41438 374.97488 653.62013 375.84375 646.75 C 376.96305 636.112 376.6068 641.0935 377 631.8125 C 378.1083 609.1725 379.76105 586.55525 382.34375 564.03125 C 382.35054 563.9685 382.3682 563.9065 382.375 563.84375 C 384.59873 589.54782 387.98585 615.14188 391.625 640.6875 C 398.4316 690.9195 407.99265 740.6775 420.40625 789.8125 C 426.01595 812.1935 433.195 834.10125 440.6875 855.90625 C 446.9149 873.45625 529.6649 844.1125 523.4375 826.5625 C 516.3754 807.3475 509.6619 787.98625 504.5 768.15625 C 492.4493 722.30525 483.5017 675.785 477.4375 628.75 C 472.6616 593.614 468.01845 558.288 468.40625 522.75 C 468.33677 519.62337 465.79903 517.08642 461.65625 515.09375 C 482.6967 503.37932 506.83756 499.25598 530.1875 494.625 C 570.187 486.982 610.5728 481.90225 651.1875 479.15625 C 684.0416 477.58725 716.88075 479.40625 749.53125 483.03125 C 770.50455 485.77325 791.1764 490.4555 810.875 498.1875 C 817.4177 501.2895 824.84845 504.69025 827.96875 511.65625 C 832.41245 523.32425 832.16105 536.05575 832.34375 548.34375 C 831.75135 583.34375 824.3401 617.6475 816.875 651.6875 C 806.4095 696.8165 794.6307 741.65075 781.5625 786.09375 C 777.6141 800.04975 772.0121 813.3445 765.875 826.4375 C 758.2577 843.3925 838.16395 879.29775 845.78125 862.34375 C 853.20125 845.32375 860.23015 828.1575 865.09375 810.1875 C 878.20525 763.8925 890.36675 717.302 901.53125 670.5 C 910.68395 629.865 919.47465 588.87425 920.03125 547.03125 C 919.58525 516.90725 917.0921 486.7905 900.1875 460.8125 C 884.9307 440.3575 866.0888 424.725 841.875 415.75 C 815.0423 405.93 787.27635 399.24325 758.84375 396.03125 C 721.06465 392.12925 683.06285 390.2445 645.09375 392.4375 C 614.20582 394.67985 583.42955 398.00692 552.8125 402.5625 C 553.54542 402.00826 554.12153 401.31778 554.53125 400.5 C 568.18705 372.744 582.59505 345.336 600.28125 319.875 C 621.22565 290.154 643.2235 260.6455 671.1875 237.0625 C 684.3303 225.83314 636.55764 167.85652 617.84375 168.40625 z M 212.40625 465.40625 C 226.38328 465.21591 240.32832 467.97606 254.0625 470.40625 C 268.6705 473.34525 283.48305 476.4965 296.78125 483.4375 C 301.05585 486.2255 298.26025 486.58275 298.46875 491.09375 C 300.37825 512.30275 297.52605 533.58425 295.28125 554.65625 C 294.28766 563.57536 293.36475 572.50309 292.53125 581.4375 C 265.6878 578.33624 238.63691 577.72242 211.65625 581.1875 C 194.82693 583.4953 178.07643 586.30202 161.53125 590.03125 C 155.84439 572.80313 152.25605 555.00343 151.1875 536.65625 C 149.83521 519.16441 148.68262 501.53701 148.8125 483.96875 C 152.41957 485.23971 155.46646 485.21446 157.59375 483.4375 C 170.92675 473.8725 186.77585 469.03025 202.71875 466.03125 C 205.94733 465.63075 209.18078 465.45018 212.40625 465.40625 z M 673.09375 517.0625 C 671.80991 517.06023 670.51248 517.086 669.21875 517.125 C 647.28925 517.812 625.5019 520.52425 604.25 526.15625 C 578.9612 532.90225 554.003 541.05425 531.25 554.28125 C 528.81123 555.71433 527.75646 558.68173 527.78125 562.625 C 509.34949 564.26949 493.35897 569.27604 493.5625 577.28125 C 495.4889 610.83525 501.03375 643.94625 507.96875 676.78125 C 513.01985 700.52625 520.41105 723.46575 531.65625 744.96875 C 533.06606 747.50581 536.11243 748.61605 540.21875 748.625 C 547.33591 766.77905 557.3615 781.9357 565.28125 779.25 C 589.95835 770.611 615.5411 764.96225 641.125 759.78125 C 664.158 755.11525 687.52195 752.299 711.03125 752.875 C 718.03395 753.544 714.96575 753.042 720.28125 754.125 C 721.81221 754.342 723.28544 753.94197 724.71875 753.03125 C 743.80452 754.73707 761.33432 752.59697 762.5 744.4375 C 764.9101 724.7695 764.9528 704.93825 765.625 685.15625 C 766.8654 657.89425 767.6033 630.621 765.4375 603.375 C 763.018 573.576 755.39825 546.183 727.96875 529.875 C 710.51391 521.7375 692.35136 517.09648 673.09375 517.0625 z M 672.59375 605.15625 C 673.70545 605.14513 675.41449 605.35216 677.21875 605.65625 C 677.31334 606.92095 677.41684 608.38011 677.5625 610.3125 C 679.35043 628.90453 679.31279 647.53506 678.65625 666.15625 C 660.21404 667.60991 641.88022 670.28134 623.71875 674.09375 C 615.48097 675.77125 607.2397 677.49516 599.03125 679.3125 C 597.0418 672.34694 595.44045 665.24028 593.40625 658.46875 C 590.95901 647.26847 588.70527 636.0038 586.84375 624.6875 C 599.44029 618.58136 612.99629 614.66439 626.5625 611.1875 C 641.215 607.5285 656.19335 605.55625 671.28125 605.40625 C 671.48367 605.23025 671.93591 605.16283 672.59375 605.15625 z M 684.53125 607.1875 C 687.17747 607.87542 688.68251 608.4612 686.9375 608.3125 C 686.06716 607.98619 685.26448 607.59645 684.53125 607.1875 z "
     id="path11448" />
</svg>
