<?xml version="1.0" encoding="UTF-8" standalone="no"?>
<svg
   xmlns:dc="http://purl.org/dc/elements/1.1/"
   xmlns:cc="http://creativecommons.org/ns#"
   xmlns:rdf="http://www.w3.org/1999/02/22-rdf-syntax-ns#"
   xmlns:svg="http://www.w3.org/2000/svg"
   xmlns="http://www.w3.org/2000/svg"
   xmlns:sodipodi="http://sodipodi.sourceforge.net/DTD/sodipodi-0.dtd"
   xmlns:inkscape="http://www.inkscape.org/namespaces/inkscape"
   width="1024"
   height="1024"
   id="U5468"
   version="1.1"
   inkscape:version="0.48.0 r9654"
   sodipodi:docname="U+5468.svg">
  <metadata
     id="metadata15">
    <rdf:RDF>
      <cc:Work
         rdf:about="">
        <dc:format>image/svg+xml</dc:format>
        <dc:type
           rdf:resource="http://purl.org/dc/dcmitype/StillImage" />
      </cc:Work>
    </rdf:RDF>
  </metadata>
  <defs
     id="defs13" />
  <sodipodi:namedview
     pagecolor="#ffffff"
     bordercolor="#666666"
     borderopacity="1"
     objecttolerance="10"
     gridtolerance="10"
     guidetolerance="10"
     inkscape:pageopacity="0"
     inkscape:pageshadow="2"
     inkscape:window-width="640"
     inkscape:window-height="480"
     id="namedview11"
     showgrid="false"
     inkscape:zoom="0.27441406"
     inkscape:cx="512"
     inkscape:cy="512"
     inkscape:window-x="0"
     inkscape:window-y="25"
     inkscape:window-maximized="0"
     inkscape:current-layer="U5468" />
  <path
     style="fill:#2b1100;fill-opacity:1;fill-rule:nonzero;stroke:none"
     d="M 699.84375 132.21875 C 648.21435 132.88575 596.74485 136.62025 545.28125 140.65625 C 489.49455 144.97325 433.59915 149.0875 378.21875 157.3125 C 336.52715 164.2565 294.9633 172.61775 255.375 187.84375 C 249.01248 190.52008 249.65242 203.24688 253.84375 217.90625 C 237.93982 260.16773 229.06292 304.91054 219.5625 348.9375 C 200.3052 441.0525 188.4324 534.4655 177.0625 627.8125 C 168.7235 696.3875 162.2016 765.18625 158.3125 834.15625 C 157.2121 850.67025 157.20425 867.1645 157.78125 883.6875 C 158.80445 902.3175 246.61705 897.505 245.59375 878.875 C 244.42605 865.33 244.37845 851.74725 244.90625 838.15625 C 247.31595 771.18625 252.9696 704.40275 260.75 637.84375 C 271.4279 547.24775 282.952 456.5915 302.6875 367.4375 C 311.37516 329.60961 319.2906 290.89028 333.59375 254.65625 C 353.01177 249.6281 372.83262 246.01864 392.59375 242.65625 C 445.40035 234.66225 498.69075 230.69875 551.90625 226.59375 C 601.42615 222.83675 650.97825 219.22975 700.65625 218.96875 C 733.92245 218.87275 766.8494 223.6275 799.375 230.1875 C 814.0505 234.3355 831.38155 236.32275 843.15625 246.96875 C 848.54675 256.65575 850.90435 267.5725 853.15625 278.3125 C 859.00105 312.8065 857.9959 347.95225 857.125 382.78125 C 854.7371 439.88525 850.05205 496.87425 846.40625 553.90625 C 843.32525 613.69425 837.5513 673.268 830.9375 732.75 C 826.0628 775.996 820.11785 819.07875 813.53125 862.09375 C 809.86325 875.75175 811.0233 891.06975 805.8125 904.34375 C 800.7857 922.43875 886.0982 946.12525 891.125 928.03125 C 895.5233 910.49825 897.4351 892.5605 900 874.6875 C 906.0908 830.5515 911.873 786.3665 916.625 742.0625 C 923.1038 681.3045 928.89785 620.4735 932.09375 559.4375 C 935.89785 501.3725 940.9333 443.40625 943.75 385.28125 C 945.0917 343.42325 946.2872 301.20125 938.875 259.78125 C 931.8131 227.75925 921.45705 196.981 894.96875 175.625 C 871.15055 159.245 844.6823 149.364 816.1875 144.25 C 777.8167 136.936 738.99845 131.82275 699.84375 132.21875 z M 537.03125 229.28125 C 521.38885 229.23275 508.53119 232.16925 507.71875 239.15625 C 504.84445 272.52954 503.21556 305.97309 501.875 339.4375 C 498.36446 339.65723 494.85395 339.86814 491.34375 340.09375 C 457.27435 341.90475 423.1904 343.42175 389.0625 343.21875 C 370.3049 343.66875 372.4299 432.075 391.1875 431.625 C 426.2059 430.4 461.2058 428.8465 496.1875 426.8125 C 497.41823 426.72937 498.6442 426.64428 499.875 426.5625 C 499.92529 446.50157 500.2785 466.44427 501 486.375 C 501.42744 495.24296 501.54514 497.51571 501.65625 499.59375 C 484.2 500.91179 466.7895 502.61518 449.40625 504.875 C 406.37315 510.699 363.53025 517.842 321.28125 528 C 303.10175 532.578 324.6955 618.2655 342.875 613.6875 C 381.6013 602.5975 421.3594 595.968 461.1875 590.375 C 513.8307 583.3 566.92955 581.935 619.96875 581.875 C 651.79695 581.631 683.5949 582.642 715.3125 585.25 C 722.6835 586.123 719.6054 585.59 724.625 586.625 C 743.2249 589.298 755.81865 501.6105 737.21875 498.9375 C 727.19675 497.7535 732.4776 498.27925 721.375 497.40625 C 687.4604 495.47425 653.50095 494.842 619.53125 495.375 C 609.49104 495.46228 599.44752 495.59486 589.40625 495.78125 C 589.21003 493.51272 589.0664 491.54273 588.40625 482.46875 C 587.31539 462.26697 586.67315 442.03624 586.53125 421.8125 C 596.24148 421.37542 605.94365 420.94856 615.65625 420.5625 C 628.66195 420.0695 641.6706 419.5555 654.6875 419.6875 C 673.4591 419.3285 671.7716 330.85875 653 331.21875 C 639.2092 331.81775 625.4096 332.522 611.625 333.25 C 604.0268 333.6471 596.44149 334.06356 588.84375 334.46875 C 590.17555 306.02848 591.91983 277.593 595.53125 249.34375 C 596.88531 237.69875 563.10191 229.36209 537.03125 229.28125 z M 616.28125 609.4375 C 581.35376 609.50151 546.52825 611.55719 511.84375 615.90625 C 483.99105 618.95425 456.11385 622.017 428.34375 625.75 C 420.54266 627.03837 418.61508 643.27412 420.34375 661.40625 C 394.19304 656.51131 353.05719 660.19726 352.9375 673 C 353.7198 704.835 360.2768 736.071 367.3125 767 C 371.20806 782.99788 375.40164 798.96746 381.03125 814.40625 C 378.75712 814.9561 376.49064 815.50044 374.21875 816.0625 C 355.96425 820.3745 376.27675 906.40575 394.53125 902.09375 C 428.70105 892.06375 463.55245 884.95125 498.65625 879.15625 C 536.32155 873.05625 574.33515 872.30475 612.03125 877.96875 C 623.76655 879.94875 634.76695 883.93275 645.03125 889.84375 C 650.6294 892.72271 658.89097 885.72354 666.78125 874.875 C 672.39155 875.50362 676.61067 874.58214 678.375 871.46875 C 682.073 863.01175 685.7922 855.266 686.625 846 C 689.8829 827.831 693.8925 809.79625 699.8125 792.28125 C 708.0646 766.96525 717.1025 741.87625 724.0625 716.15625 C 731.924 684.28925 733.3843 653.954 706.5625 630 C 680.1988 612.854 654.43425 609.05375 623.28125 609.46875 C 620.95211 609.45537 618.60975 609.43323 616.28125 609.4375 z M 609.71875 696.8125 C 613.92765 696.80306 618.13216 696.83825 622.34375 696.90625 C 627.01096 697.78663 632.41946 697.61234 637.84375 697.625 C 631.72536 720.39672 623.78512 742.60858 616.4375 765 C 613.66408 773.20393 611.20742 781.49272 608.96875 789.84375 C 567.51683 785.75512 525.91612 786.79142 484.625 793.53125 C 479.26442 794.40181 473.90973 795.31964 468.5625 796.25 C 460.22779 786.4529 457.07203 758.17792 452.5 747.53125 C 449.85485 736.00332 447.21966 724.40434 445.1875 712.71875 C 470.5387 708.49696 496.10173 705.66059 521.625 702.6875 C 550.87231 698.8375 580.25647 696.87859 609.71875 696.8125 z M 650.71875 698.71875 C 652.9758 699.24837 655.12108 700.00963 657.09375 701.15625 C 658.11645 701.75125 654.6939 701.1575 653.5625 700.8125 C 652.50853 700.1653 651.57986 699.45751 650.71875 698.71875 z "
     id="path15201" />
</svg>
