<?xml version="1.0" encoding="UTF-8" standalone="no"?>
<svg
   xmlns:dc="http://purl.org/dc/elements/1.1/"
   xmlns:cc="http://creativecommons.org/ns#"
   xmlns:rdf="http://www.w3.org/1999/02/22-rdf-syntax-ns#"
   xmlns:svg="http://www.w3.org/2000/svg"
   xmlns="http://www.w3.org/2000/svg"
   xmlns:sodipodi="http://sodipodi.sourceforge.net/DTD/sodipodi-0.dtd"
   xmlns:inkscape="http://www.inkscape.org/namespaces/inkscape"
   width="1024"
   height="1024"
   id="U5427"
   version="1.1"
   inkscape:version="0.48.0 r9654"
   sodipodi:docname="U+5427.svg">
  <metadata
     id="metadata14">
    <rdf:RDF>
      <cc:Work
         rdf:about="">
        <dc:format>image/svg+xml</dc:format>
        <dc:type
           rdf:resource="http://purl.org/dc/dcmitype/StillImage" />
      </cc:Work>
    </rdf:RDF>
  </metadata>
  <defs
     id="defs12" />
  <sodipodi:namedview
     pagecolor="#ffffff"
     bordercolor="#666666"
     borderopacity="1"
     objecttolerance="10"
     gridtolerance="10"
     guidetolerance="10"
     inkscape:pageopacity="0"
     inkscape:pageshadow="2"
     inkscape:window-width="640"
     inkscape:window-height="480"
     id="namedview10"
     showgrid="false"
     inkscape:zoom="0.27441406"
     inkscape:cx="512"
     inkscape:cy="512"
     inkscape:window-x="0"
     inkscape:window-y="25"
     inkscape:window-maximized="0"
     inkscape:current-layer="U5427" />
  <path
     style="fill:#aa0000;fill-opacity:1;fill-rule:nonzero;stroke:#f9f9f9;stroke-width:0.1;stroke-miterlimit:4;stroke-dasharray:none"
     d="M 706.125 280.71875 C 652.7822 280.57431 599.4667 282.30031 546.125 282.03125 C 537.2314 282.20736 532.93334 302.14991 532.875 323.0625 C 506.75934 328.29388 468.47405 348.47221 473.5 360.59375 C 488.8369 395.8157 487.57325 432.85759 482.28125 470 C 470.37155 526.91059 457.39195 583.45102 449.90625 641.15625 C 444.18145 696.58013 447.52775 736.27823 477.34375 783.9375 C 503.09985 818.77081 540.1459 835.93461 580.6875 847.28125 C 621.5956 857.24371 663.7003 859.342 705.625 859.25 C 744.7483 858.58083 783.83085 856.64623 822.46875 850.3125 C 853.42075 845.50098 881.5041 834.39329 905.25 813.96875 C 910.9859 808.84949 915.73485 802.99396 920.40625 796.9375 C 931.32475 781.3705 857.9185 729.90175 847 745.46875 C 851.4688 741.13325 844.731 748.10833 844.625 748.625 C 840.7591 758.31182 815.4969 761.07281 807.5625 763.625 C 773.8345 769.81322 739.49885 770.85352 705.28125 771.71875 C 671.30955 771.93478 637.1376 770.39729 603.9375 762.5625 C 584.1532 757.29479 564.8361 750.91161 550.75 735.15625 C 532.1842 711.20622 533.2654 680.93869 535.6875 651.90625 C 536.55381 644.68301 537.55406 637.4624 538.625 630.28125 C 540.55269 631.87664 542.55586 632.61636 544.59375 632.25 C 589.80525 623.24048 635.98915 622.2328 681.90625 623.5 C 699.47925 624.51244 717.13675 625.41995 734.46875 628.71875 C 736.30781 629.06878 738.15712 629.46147 739.96875 629.9375 C 737.20674 628.51297 734.46029 627.02765 731.71875 625.5625 C 745.56752 629.37586 781.91041 592.49263 790.03125 570.8125 C 799.16634 584.91331 809.53478 595.09287 816.125 591.65625 C 822.3709 587.47967 829.146 583.98647 834.875 579.125 C 853.7423 563.11452 862.56375 537.70248 873.09375 516.28125 C 888.85985 476.1414 901.8742 434.47546 898 390.75 C 891.3781 349.79097 876.67545 322.63837 838.90625 302.8125 C 796.78675 284.47264 751.8042 280.61332 706.125 280.71875 z M 739.96875 629.9375 C 741.11429 630.52832 742.24643 631.09377 743.40625 631.65625 C 743.78615 631.84047 742.99485 630.85037 742.59375 630.71875 C 741.72951 630.43515 740.84896 630.16879 739.96875 629.9375 z M 321.375 358.15625 C 289.66338 358.63254 258.67792 365.5649 228.59375 379.15625 C 211.68775 387.33658 250.25025 467.05534 267.15625 458.875 C 292.83725 446.614 320.7147 440.9213 348.5625 447.90625 C 362.451 453.40535 359.7432 452.62429 360.3125 462.25 C 361.2329 488.13384 359.85765 514.06756 358.34375 539.90625 C 357.74325 565.46349 348.48255 587.42134 335.40625 608.8125 C 332.18422 614.27575 338.87674 623.06186 349.4375 631.625 C 309.64073 631.21694 269.8765 633.15676 230.1875 636.71875 C 228.37393 628.73236 227.59475 621.30576 226.15625 611.6875 C 221.74595 552.07765 224.2934 492.33357 227.75 432.71875 C 228.1882 414.01996 140.03205 411.95747 139.59375 430.65625 C 139.31055 492.87471 136.50665 554.98522 139.90625 617.15625 C 142.76175 646.16499 151.0968 711.08242 185.8125 721.84375 C 198.9256 725.90861 213.25575 723.15675 226.96875 723.8125 C 227.53281 723.63291 228.0537 723.36061 228.53125 723.03125 C 230.20132 724.4452 231.94936 725.14956 233.8125 724.9375 C 282.0868 717.78801 330.9326 716.22704 379.5625 719.71875 C 391.5369 720.40168 403.33835 722.25117 414.96875 725.0625 C 433.43265 728.72515 450.68265 641.69391 432.21875 638.03125 C 428.21879 637.33769 424.22928 636.66601 420.21875 636.0625 C 434.71029 607.67976 444.78935 577.99359 445.90625 545.25 C 448.10215 510.45809 451.3411 475.14779 446.25 440.5 C 433.1122 395.06724 410.7304 374.29913 365.0625 361.5 C 350.35884 359.07095 335.78937 357.93976 321.375 358.15625 z M 626.75 367.75 C 626.86458 367.74743 626.97917 367.75255 627.09375 367.75 C 622.10675 399.96368 619.15432 432.48978 616.4375 464.96875 C 614.45912 489.23908 612.29627 513.53492 608.625 537.59375 C 590.85272 538.39464 573.10835 539.6846 555.40625 541.59375 C 559.66563 521.69336 564.01243 501.81002 568.09375 481.84375 C 573.1975 444.04039 574.5573 406.49314 567.6875 369.6875 C 587.37069 368.84953 607.0554 368.19121 626.75 367.75 z M 716.21875 367.78125 C 744.99787 369.16698 775.9132 368.40579 801.40625 382.78125 C 810.99205 388.52579 809.5503 393.39153 810.5 403.34375 C 811.6488 431.51095 802.09955 458.20705 791.71875 483.90625 C 787.04825 493.77501 784.45 500.09871 778.6875 509.125 C 774.85632 515.12617 772.56518 517.14872 771.53125 517.65625 C 769.72087 524.89828 773.35925 538.0648 779.40625 551.34375 C 776.93507 549.80674 774.41139 548.36453 771.78125 547.125 C 751.36275 537.50218 721.24267 539.33459 696.84375 537.9375 C 699.66703 516.06648 701.66617 494.09261 703.1875 472.0625 C 705.96816 437.175 708.84737 402.04288 716.21875 367.78125 z M 771.53125 517.65625 C 771.72453 516.88308 771.99148 516.19364 772.3125 515.5625 C 771.75023 516.19416 771.21869 516.8567 770.875 517.625 C 770.79086 517.81315 771.03878 517.89799 771.53125 517.65625 z M 772.3125 515.5625 C 773.17094 514.59813 774.14422 513.73557 774.96875 512.75 C 773.79762 513.36071 772.9451 514.31878 772.3125 515.5625 z M 205.6875 639.6875 C 211.21883 640.49933 215.26285 640.82407 218.5625 641.125 C 217.11014 643.41413 216.03499 646.61462 215.28125 650.4375 C 212.15387 645.38203 208.87028 641.53518 205.6875 639.6875 z "
     id="path19495" />
</svg>
