<?xml version="1.0" encoding="UTF-8" standalone="no"?>
<svg
   xmlns:dc="http://purl.org/dc/elements/1.1/"
   xmlns:cc="http://creativecommons.org/ns#"
   xmlns:rdf="http://www.w3.org/1999/02/22-rdf-syntax-ns#"
   xmlns:svg="http://www.w3.org/2000/svg"
   xmlns="http://www.w3.org/2000/svg"
   xmlns:sodipodi="http://sodipodi.sourceforge.net/DTD/sodipodi-0.dtd"
   xmlns:inkscape="http://www.inkscape.org/namespaces/inkscape"
   width="1024"
   height="1024"
   id="U54E5"
   version="1.1"
   inkscape:version="0.48.0 r9654"
   sodipodi:docname="U+54E5.svg">
  <metadata
     id="metadata16">
    <rdf:RDF>
      <cc:Work
         rdf:about="">
        <dc:format>image/svg+xml</dc:format>
        <dc:type
           rdf:resource="http://purl.org/dc/dcmitype/StillImage" />
      </cc:Work>
    </rdf:RDF>
  </metadata>
  <defs
     id="defs14" />
  <sodipodi:namedview
     pagecolor="#ffffff"
     bordercolor="#666666"
     borderopacity="1"
     objecttolerance="10"
     gridtolerance="10"
     guidetolerance="10"
     inkscape:pageopacity="0"
     inkscape:pageshadow="2"
     inkscape:window-width="640"
     inkscape:window-height="480"
     id="namedview12"
     showgrid="false"
     inkscape:zoom="0.27441406"
     inkscape:cx="512"
     inkscape:cy="512"
     inkscape:window-x="0"
     inkscape:window-y="25"
     inkscape:window-maximized="0"
     inkscape:current-layer="U54E5" />
  <path
     style="fill:#550000;fill-opacity:1;fill-rule:nonzero;stroke:#f9f9f9;stroke-width:0.1;stroke-miterlimit:4;stroke-dasharray:none"
     d="M 536.46875 120.46875 C 530.80883 120.51197 525.16359 120.61125 519.5 120.8125 C 462.6297 122.8405 405.9155 127.898 350.0625 139.25 C 313.9098 146.569 277.7818 154.59325 243.0625 167.28125 C 225.7411 174.04525 257.6162 255.7015 274.9375 248.9375 C 304.6629 236.8535 336.11325 229.9205 367.40625 223.3125 C 418.42475 212.4685 470.3392 207.883 522.375 206.25 C 547.14641 205.49453 571.85336 206.57611 596.53125 208.375 C 597.72871 250.90337 597.75168 293.45635 597.34375 336 C 596.09967 404.06343 594.46947 472.10499 592.65625 540.15625 C 586.70901 540.53987 580.75903 540.91359 574.8125 541.3125 C 487.4173 546.3625 399.9894 550.06875 312.4375 550.84375 C 257.7547 552.19475 202.86505 553.0665 148.53125 559.9375 C 130.28865 563.2975 146.1324 649.2985 164.375 645.9375 C 214.1128 638.0305 264.6945 637.02425 314.9375 635.28125 C 403.2302 633.67025 491.403 629.7685 579.5625 624.8125 C 583.15315 624.58172 586.75278 624.38067 590.34375 624.15625 C 588.11801 702.12305 585.00913 780.06656 580.53125 857.9375 C 577.01948 897.54944 576.65868 937.83178 568.4375 976.875 C 569.32717 975.90766 570.3071 974.98719 571.28125 974.09375 C 561.56967 989.06967 599.09662 1057.6125 614.59375 1049.375 C 639.45385 1031.967 646.75325 1023.2517 653.78125 993.34375 C 661.35305 950.09175 662.56005 906.0645 665.21875 862.3125 C 668.94716 781.48901 671.59896 700.62964 673.78125 619.75 C 716.28755 618.0122 758.81361 617.16083 801.375 617.96875 C 841.572 619.34275 881.71155 622.36925 921.78125 625.78125 C 930.92555 626.57225 940.0574 627.435 949.1875 628.375 C 967.6797 629.987 975.27335 542.83075 956.78125 541.21875 C 947.29815 540.53275 937.799 539.85675 928.3125 539.21875 C 886.4123 536.42775 844.4896 533.76675 802.5 532.84375 C 760.34511 532.51261 718.24445 533.60741 676.15625 535.5 C 678.04824 469.44678 679.96838 403.39421 681.96875 337.34375 C 682.87321 296.64838 683.17935 255.94866 683.4375 215.25 C 691.64001 215.48223 699.79811 215.96017 707.6875 217.71875 C 704.11161 216.76117 700.54459 215.80055 696.96875 214.84375 C 714.73551 215.63581 750.88141 144.30587 735.09375 136.09375 C 729.42465 134.25575 723.76285 132.43275 718.09375 130.59375 C 697.14675 128.68575 676.03205 128.795 655.09375 126.625 C 615.62206 123.46012 576.0882 120.16621 536.46875 120.46875 z M 568.4375 976.875 C 568.02743 977.32087 567.64845 977.76667 567.28125 978.25 C 564.88925 981.397 565.2906 987.71425 568.375 977.15625 C 568.39482 977.06257 568.41777 976.96869 568.4375 976.875 z M 484.09375 258.75 C 457.84771 258.68746 431.57577 260.61019 405.78125 265.6875 C 375.14256 272.8448 345.41888 282.89221 322.125 304.375 C 300.08319 294.52833 243.96276 295.14383 243.34375 310 C 243.19915 341.672 248.25345 373.0015 253.90625 404.0625 C 259.24845 430.8485 263.8016 457.8205 270.5 484.3125 C 271.5743 487.5425 272.64445 490.769 273.71875 494 C 275.8216 499.7416 286.14206 500.32061 298.8125 497.90625 C 301.8022 515.77685 307.83815 530.93198 315.65625 530.15625 C 348.52765 525.88025 381.47095 522.23775 414.46875 519.09375 C 436.70625 518.15775 459.58065 514.0355 481.78125 517.6875 C 487.49504 518.32614 492.35242 510.40225 495.8125 499.125 C 510.8669 505.05121 524.59155 507.17602 527.875 500.78125 C 529.837 496.80225 531.788 492.82175 533.75 488.84375 C 544.0458 463.18375 551.8063 436.6535 558.875 409.9375 C 566.2884 381.6655 574.2371 352.98225 574 323.53125 C 572.926 317.31125 572.87135 310.831 570.78125 304.875 C 560.03255 274.248 532.9814 260.45775 502.25 259.09375 C 496.1999 258.88262 490.15053 258.76443 484.09375 258.75 z M 332.03125 342.46875 C 349.605 360.09871 374.96076 376.17208 382.0625 368 C 393.645 356.795 409.9333 353.57175 425.125 350.21875 C 444.77424 346.60426 464.78694 345.18396 484.75 345.5625 C 482.02503 359.82043 478.5396 373.91593 474.875 387.96875 C 471.04109 401.89937 467.29985 415.90388 462.84375 429.65625 C 443.93811 429.78062 425.03241 431.3861 406.1875 433.15625 C 387.16372 435.0074 368.17048 437.02294 349.15625 438.96875 C 345.4699 422.23741 342.59313 405.31022 339.0625 388.5625 C 336.28295 373.30677 333.55439 357.9265 332.03125 342.46875 z M 502.53125 346.84375 C 507.34138 347.78631 505.84835 347.92272 502.53125 346.84375 z M 486 657.03125 C 459.27677 656.92781 432.70382 660.59881 406.375 665.6875 C 374.1483 671.7735 341.8687 678.3595 311 689.6875 C 304.41446 692.35887 305.16631 705.86598 309.5625 721.15625 C 289.59053 711.10698 227.60793 715.64035 228.125 731.28125 C 230.8748 764.62325 239.3582 797.09225 248.5 829.15625 C 255.6812 853.98525 264.50155 878.28075 275.65625 901.59375 C 279.56332 909.4386 299.1363 904.83489 317.78125 896.0625 C 320.24636 903.46014 323.6831 908.27742 328.0625 908.1875 C 367.3769 906.0695 406.52835 902.034 445.71875 898.375 C 452.79386 898.40355 460.13208 897.75808 467.5625 897 C 490.3643 910.04996 530.82612 919.93559 535.03125 907.875 C 536.11515 904.602 537.19735 901.3355 538.28125 898.0625 C 538.84545 895.98362 539.39046 893.8958 539.9375 891.8125 C 550.7999 876.42205 559.61308 840.04024 556.1875 823.09375 C 556.31795 822.52212 556.43175 821.94654 556.5625 821.375 C 562.9558 790.882 569.67495 760.068 569.34375 728.75 C 564.44755 686.735 547.52595 664.49575 504.53125 657.71875 C 498.34713 657.26256 492.1669 657.05512 486 657.03125 z M 316.9375 741.125 C 325.07078 759.09034 336.12305 774.07657 343.9375 770.90625 C 369.1114 760.81725 395.8924 755.6005 422.4375 750.5625 C 441.97326 747.46913 461.89887 743.37702 481.78125 743.5625 C 480.0687 763.80264 475.88963 783.76711 471.75 803.625 C 471.27044 805.69525 470.7883 807.77192 470.3125 809.84375 C 459.44547 810.53669 448.56921 811.55327 437.6875 812.71875 C 403.98671 815.90092 370.25885 819.51279 336.40625 820.5 C 334.75199 815.46639 333.18362 810.4272 331.625 805.375 C 325.56012 784.291 319.70814 762.92886 316.9375 741.125 z M 493.28125 744.1875 C 494.35814 744.29794 495.42388 744.41994 496.5 744.5625 C 497.4138 744.9135 499.22 744.647 499.25 745.625 C 499.2779 746.528 497.39385 745.86175 496.53125 745.59375 C 495.29114 745.20875 494.22876 744.72121 493.28125 744.1875 z "
     id="path23621" />
</svg>
