<?xml version="1.0" encoding="UTF-8" standalone="no"?>
<svg
   xmlns:dc="http://purl.org/dc/elements/1.1/"
   xmlns:cc="http://creativecommons.org/ns#"
   xmlns:rdf="http://www.w3.org/1999/02/22-rdf-syntax-ns#"
   xmlns:svg="http://www.w3.org/2000/svg"
   xmlns="http://www.w3.org/2000/svg"
   xmlns:sodipodi="http://sodipodi.sourceforge.net/DTD/sodipodi-0.dtd"
   xmlns:inkscape="http://www.inkscape.org/namespaces/inkscape"
   width="1024"
   height="1024"
   id="U540D"
   version="1.1"
   inkscape:version="0.48.0 r9654"
   sodipodi:docname="U+540D.svg">
  <metadata
     id="metadata13">
    <rdf:RDF>
      <cc:Work
         rdf:about="">
        <dc:format>image/svg+xml</dc:format>
        <dc:type
           rdf:resource="http://purl.org/dc/dcmitype/StillImage" />
      </cc:Work>
    </rdf:RDF>
  </metadata>
  <defs
     id="defs11" />
  <sodipodi:namedview
     pagecolor="#ffffff"
     bordercolor="#666666"
     borderopacity="1"
     objecttolerance="10"
     gridtolerance="10"
     guidetolerance="10"
     inkscape:pageopacity="0"
     inkscape:pageshadow="2"
     inkscape:window-width="640"
     inkscape:window-height="480"
     id="namedview9"
     showgrid="false"
     inkscape:zoom="0.27441406"
     inkscape:cx="512"
     inkscape:cy="512"
     inkscape:window-x="0"
     inkscape:window-y="25"
     inkscape:window-maximized="0"
     inkscape:current-layer="U540D" />
  <path
     style="fill:#c83737;fill-opacity:1;fill-rule:nonzero;stroke:#f9f9f9;stroke-width:0.1;stroke-miterlimit:4;stroke-dasharray:none"
     d="M 361.8125 126.53125 C 359.34102 126.45689 357.31256 127.1037 355.9375 128.625 C 329.2989 161.078 308.362 197.61775 288.0625 234.21875 C 267.7316 270.97275 249.9437 309.002 233.5 347.625 C 225.3556 365.488 220.02895 383.42575 218.90625 402.96875 C 219.49668 421.11558 301.99249 419.07827 307.3125 402.03125 C 305.374 414.76199 311.21304 382.82133 314.40625 381.21875 C 325.95699 352.57246 338.59611 324.36758 352.78125 296.9375 C 357.81751 308.50808 363.97439 316.46272 369.84375 315.03125 C 402.36975 306.54825 435.4834 300.6465 468.6875 295.5625 C 507.1311 290.2775 545.94635 288.326 584.71875 289.25 C 589.09256 289.6849 593.64378 289.94214 598.21875 290.25 C 565.47878 318.6472 534.186 348.63331 503.0625 378.78125 C 493.1597 388.51485 483.25479 398.24334 473.375 408 C 462.04332 396.60007 450.34429 385.57179 437.75 375.53125 C 415.8558 358.10525 393.21735 341.72775 370.09375 325.96875 C 354.46765 315.55175 305.34265 389.208 320.96875 399.625 C 342.59855 413.108 363.2366 428.082 383.125 444 C 392.99306 451.94189 402.12988 460.6624 410.90625 469.75 C 398.55321 481.9398 386.17882 494.1362 373.78125 506.28125 C 342.40565 537.05625 310.88695 567.68225 277.71875 596.53125 C 263.12032 608.65166 248.52449 621.05996 232.34375 631.0625 C 230.24667 630.7346 227.13879 630.44725 225.0625 630.21875 C 206.3149 628.27575 197.15865 716.65075 215.90625 718.59375 C 220.55985 719.04175 225.18765 719.60525 229.84375 720.03125 C 247.45835 720.18725 263.9063 716.15825 278.75 706.28125 C 298.7926 693.04925 317.47145 677.91325 335.46875 662.03125 C 369.44255 631.70325 401.932 599.79375 434.25 567.71875 C 477.0688 525.39875 519.61315 482.7755 562.78125 440.8125 C 596.05245 409.0015 629.58905 377.438 665.21875 348.25 C 688.91845 327.668 712.26445 308.44175 713.65625 274.59375 C 712.17565 268.43675 711.51865 262.026 709.21875 256.125 C 702.47815 238.832 685.59125 227.92 670.34375 219.125 C 643.76435 206.83 615.49505 202.07375 586.21875 201.96875 C 542.59235 201.48375 498.9386 203.655 455.6875 209.625 C 436.34183 212.52761 417.04753 215.74226 397.8125 219.28125 C 405.12117 208.39438 412.94207 197.85598 421.53125 187.90625 C 432.7281 175.51855 381.93742 127.13674 361.8125 126.53125 z M 632.15625 299 C 637.54063 303.01909 635.15858 302.48504 632.15625 299 z M 615.375 566.09375 C 584.68271 566.14579 554.13003 569.009 523.90625 575.03125 C 490.55695 581.76725 457.53175 589.98125 425.78125 602.40625 C 419.15059 605.14265 419.99577 618.81013 424.53125 634.21875 C 398.41413 631.93557 363.13205 637.46843 363.53125 649.34375 C 365.82505 681.76575 369.6447 714.044 372.9375 746.375 C 376.5154 783.222 380.1901 820.0495 386.375 856.5625 C 388.2366 868.8745 392.0096 880.56425 396.375 892.15625 C 403.17267 908.25269 474.26998 879.55406 478.15625 861.5625 C 493.97963 861.18631 509.79872 860.86994 525.625 860.625 C 557.3302 860.09887 588.99068 861.58586 620.5 864.90625 C 637.19639 884.42391 663.11811 903.53551 671.03125 895.46875 C 683.09275 877.44075 686.117 870.3385 688.9375 849.9375 C 694.6608 822.6815 701.9966 795.79425 711.3125 769.53125 C 721.0879 741.31925 731.72345 713.41625 744.21875 686.28125 C 753.80195 663.39325 763.0797 641.4615 754.25 616.4375 C 740.8161 594.3865 730.4341 586.63075 706.5625 578.46875 C 683.8423 571.49575 660.37475 567.935 636.65625 566.5 C 629.56194 566.21875 622.45784 566.08174 615.375 566.09375 z M 609.59375 653.46875 C 617.24046 653.40159 624.8973 653.57125 632.5625 654 C 641.93289 654.92424 651.36124 655.90025 660.625 657.65625 C 648.84338 685.00203 638.51536 712.9082 628.84375 741.0625 C 624.67386 752.88348 620.80158 764.81221 617.21875 776.8125 C 586.34561 774.32153 555.40326 773.20871 524.40625 773.71875 C 504.04876 773.98179 483.67105 774.41507 463.3125 774.6875 C 461.99578 762.3878 460.81562 750.06276 459.625 737.75 C 457.88078 719.83058 455.91668 701.91603 454.375 683.96875 C 456.18735 684.68037 457.9111 684.78081 459.5 684.125 C 485.6531 672.805 513.3608 666.17025 541.1875 660.53125 C 563.80878 656.068 586.65361 653.67022 609.59375 653.46875 z M 681.25 663.3125 C 687.31161 665.76265 685.64198 667.39728 681.25 663.3125 z "
     id="path11166" />
</svg>
