<?xml version="1.0" encoding="UTF-8" standalone="no"?>
<svg
   xmlns:dc="http://purl.org/dc/elements/1.1/"
   xmlns:cc="http://creativecommons.org/ns#"
   xmlns:rdf="http://www.w3.org/1999/02/22-rdf-syntax-ns#"
   xmlns:svg="http://www.w3.org/2000/svg"
   xmlns="http://www.w3.org/2000/svg"
   xmlns:sodipodi="http://sodipodi.sourceforge.net/DTD/sodipodi-0.dtd"
   xmlns:inkscape="http://www.inkscape.org/namespaces/inkscape"
   width="1024"
   height="1024"
   id="U54B1"
   version="1.1"
   inkscape:version="0.48.0 r9654"
   sodipodi:docname="U+54B1.svg">
  <metadata
     id="metadata16">
    <rdf:RDF>
      <cc:Work
         rdf:about="">
        <dc:format>image/svg+xml</dc:format>
        <dc:type
           rdf:resource="http://purl.org/dc/dcmitype/StillImage" />
      </cc:Work>
    </rdf:RDF>
  </metadata>
  <defs
     id="defs14" />
  <sodipodi:namedview
     pagecolor="#ffffff"
     bordercolor="#666666"
     borderopacity="1"
     objecttolerance="10"
     gridtolerance="10"
     guidetolerance="10"
     inkscape:pageopacity="0"
     inkscape:pageshadow="2"
     inkscape:window-width="640"
     inkscape:window-height="480"
     id="namedview12"
     showgrid="false"
     inkscape:zoom="0.27441406"
     inkscape:cx="512"
     inkscape:cy="512"
     inkscape:window-x="0"
     inkscape:window-y="25"
     inkscape:window-maximized="0"
     inkscape:current-layer="U54B1" />
  <path
     style="fill:#2b1100;fill-opacity:1;fill-rule:nonzero;stroke:none"
     d="M 646.09375 166.09375 C 630.44291 166.16804 617.57049 169.222 616.8125 176.21875 C 612.903 206.53075 599.949 234.5445 587.125 261.9375 C 569.5956 298.6015 547.7683 332.872 524.1875 365.875 C 521.79613 369.2586 523.58323 374.42298 527.84375 380.21875 C 508.82071 383.71422 489.83142 387.32893 470.8125 390.875 C 452.4426 394.743 470.66135 481.33575 489.03125 477.46875 C 521.59635 469.95975 554.3751 463.5675 587.3125 457.9375 C 625.8878 451.5825 664.8392 447.151 703.9375 449.5 C 714.1434 451.579 741.88865 452.63425 747.40625 463.90625 C 749.50845 480.33925 750.03125 497.513 750.03125 514.25 C 747.8122 566.44126 740.66702 618.26914 733.90625 670.03125 C 704.56202 665.86439 674.7874 667.17447 645.3125 670.375 C 609.357 674.712 573.65345 680.60575 538.09375 687.46875 C 519.70085 691.09375 536.7947 777.8125 555.1875 774.1875 C 588.2828 766.3085 621.8564 760.7895 655.625 756.8125 C 677.40239 756.52227 701.80306 750.87721 723.28125 757.3125 C 721.67993 772.50536 720.21852 787.71546 718.90625 802.9375 C 712.59285 803.26876 706.27715 803.67459 699.96875 804.125 C 650.31425 807.479 600.63275 811.35625 551.40625 818.90625 C 537.621 821.08616 523.86668 823.3647 510.125 825.78125 C 510.92784 824.31087 511.24897 822.80704 510.9375 821.3125 C 506.9543 803.9765 508.80115 813.368 505.59375 793.125 C 499.64937 739.99162 499.83883 686.54872 501.40625 633.15625 C 504.54979 640.25615 508.42391 644.70649 512.78125 644.21875 C 547.66345 640.60375 582.57485 637.24375 617.46875 633.71875 C 655.17715 630.22875 692.81035 624.98575 730.71875 624.46875 C 749.29925 623.94775 746.8304 536.354 728.25 536.875 C 688.3346 538.453 648.6888 543.53825 608.9375 547.28125 C 573.632 550.67125 538.3381 554.105 502.9375 556.375 C 503.33725 537.11259 503.81824 517.84098 504.59375 498.59375 C 505.33185 479.84775 416.95675 476.379 416.21875 495.125 C 416.28605 539.334 416.2429 583.544 415.5625 627.75 C 414.0732 685.853 413.8522 743.965 419.1875 801.875 C 422.6368 827.659 420.58005 815.2315 425.21875 839.1875 C 425.47525 840.41836 426.10834 841.49467 427.0625 842.40625 C 410.44448 849.33602 429.54825 932.34319 447.5 928.28125 C 486.1476 917.81525 525.5708 910.66425 565.0625 904.28125 C 611.5613 897.07425 658.5018 893.622 705.4375 890.875 C 714.74269 890.34772 724.06072 889.89981 733.375 889.65625 C 759.11417 895.96258 801.09425 894.30478 801.8125 881.4375 C 802.4882 865.0105 802.93805 848.57125 803.90625 832.15625 C 806.87225 784.05125 811.87635 736.11375 818.28125 688.34375 C 825.68535 630.59975 834.00405 572.84725 836.90625 514.65625 C 837.24505 472.82125 836.54385 429.961 805.78125 397.875 C 777.45125 374.893 744.6532 364.39025 708.1875 362.40625 C 681.61389 361.33759 655.10648 362.355 628.71875 364.875 C 642.01558 343.50636 654.41636 321.61049 665.46875 298.9375 C 682.66165 262.7655 698.93695 225.68875 704.78125 185.71875 C 706.04462 174.05688 672.17849 165.96993 646.09375 166.09375 z M 165.59375 363.03125 C 158.4507 363.19741 152.51603 376.55179 149.0625 392.8125 C 123.63509 385.04888 82.074428 384.19465 80.5625 396.9375 C 76.8445 439.6265 76.0157 482.4945 75.0625 525.3125 C 73.937 574.8495 73.9749 624.44775 79.625 673.71875 C 80.4519 678.69875 81.2981 683.67525 82.125 688.65625 C 83.784575 697.67695 105.56095 698.40151 126.84375 694.625 C 126.0613 710.18585 128.36227 723.10523 135.28125 724.25 C 178.01175 728.399 221.00565 724.037 263.65625 720.875 C 301.86345 718.177 340.1027 714.886 378.4375 715.625 C 397.0542 715.682 397.33555 627.935 378.71875 627.875 C 366.03909 628.00297 353.37921 628.42969 340.71875 629.03125 C 344.52801 606.56005 348.32958 584.08621 352.375 561.65625 C 358.5375 529.67025 365.3942 497.78325 370.0625 465.53125 C 373.7686 430.44225 369.1516 402.1195 334.6875 384.3125 C 309.4989 374.8495 282.87305 371.775 256.15625 369.5 C 226.26995 367.218 196.27435 366.2725 166.46875 363.0625 C 166.17793 363.02586 165.8808 363.02457 165.59375 363.03125 z M 164.25 451.4375 C 192.58835 453.32977 220.96622 454.29972 249.28125 456.59375 C 259.85914 458.02321 271.05846 458.7755 281.78125 460.6875 C 277.79446 489.09874 272.07425 517.24365 266.8125 545.4375 C 261.57554 575.29488 256.56687 605.18124 251.125 635 C 221.98267 637.15237 192.63284 639.76858 163.4375 638.125 C 160.04183 601.39073 160.4782 564.38303 161.25 527.5 C 161.9674 502.15521 162.58491 476.7565 164.25 451.4375 z M 296.59375 464.40625 C 297.84508 464.83202 299.09362 465.2892 300.3125 465.78125 C 298.95768 465.44938 297.7253 464.96796 296.59375 464.40625 z "
     id="path13811" />
</svg>
