<?xml version="1.0" encoding="UTF-8" standalone="no"?>
<svg
   xmlns:dc="http://purl.org/dc/elements/1.1/"
   xmlns:cc="http://creativecommons.org/ns#"
   xmlns:rdf="http://www.w3.org/1999/02/22-rdf-syntax-ns#"
   xmlns:svg="http://www.w3.org/2000/svg"
   xmlns="http://www.w3.org/2000/svg"
   xmlns:sodipodi="http://sodipodi.sourceforge.net/DTD/sodipodi-0.dtd"
   xmlns:inkscape="http://www.inkscape.org/namespaces/inkscape"
   width="1024"
   height="1024"
   id="U5458"
   version="1.1"
   inkscape:version="0.48.0 r9654"
   sodipodi:docname="U+5458.svg">
  <metadata
     id="metadata14">
    <rdf:RDF>
      <cc:Work
         rdf:about="">
        <dc:format>image/svg+xml</dc:format>
        <dc:type
           rdf:resource="http://purl.org/dc/dcmitype/StillImage" />
      </cc:Work>
    </rdf:RDF>
  </metadata>
  <defs
     id="defs12" />
  <sodipodi:namedview
     pagecolor="#ffffff"
     bordercolor="#666666"
     borderopacity="1"
     objecttolerance="10"
     gridtolerance="10"
     guidetolerance="10"
     inkscape:pageopacity="0"
     inkscape:pageshadow="2"
     inkscape:window-width="640"
     inkscape:window-height="480"
     id="namedview10"
     showgrid="false"
     inkscape:zoom="0.27441406"
     inkscape:cx="512"
     inkscape:cy="512"
     inkscape:window-x="0"
     inkscape:window-y="25"
     inkscape:window-maximized="0"
     inkscape:current-layer="U5458" />
  <path
     style="fill:#2b1100;fill-opacity:1;fill-rule:nonzero;stroke:none"
     d="M 534.8125 119.25 C 500.72193 119.35877 467.19445 124.65113 434.6875 135.90625 C 405.59695 145.94379 376.86823 157.37846 350.1875 172.8125 C 324.86853 168.33472 292.1402 170.13443 291.21875 181.46875 C 289.68625 215.30975 292.72305 249.1265 295.59375 282.8125 C 297.99965 316.1175 301.1482 349.37725 311.375 381.28125 C 317.45777 394.78629 315.54629 391.83346 321.28125 399.34375 C 326.97203 422.93916 339.0358 447.79054 349.03125 444.875 C 382.04305 435.427 415.96835 429.64525 449.78125 423.90625 C 491.38265 416.49425 533.54185 414.176 575.71875 414.5 C 588.94715 414.881 602.2756 415.41625 615.3125 417.90625 C 617.6068 418.34425 619.89125 418.847 622.09375 419.625 C 622.25442 419.68167 622.50065 419.83185 622.71875 420 C 641.6165 417.91508 683.00487 356.40004 668.9375 346.53125 C 667.67211 345.80209 666.43278 345.01826 665.1875 344.25 C 670.80162 330.15956 675.87252 315.84402 680.5 301.375 C 689.7014 272.357 698.55775 242.58875 693.53125 211.84375 C 684.27375 179.19475 668.3733 158.7715 637.375 144.0625 C 609.4433 131.4525 580.24625 121.82125 549.46875 119.53125 C 544.57785 119.33713 539.68258 119.23446 534.8125 119.25 z M 622.71875 420 C 622.05297 420.07345 621.41904 420.07898 620.8125 420 C 621.59114 420.29522 622.36857 420.58425 623.1875 420.71875 C 623.52377 420.77208 623.15496 420.3363 622.71875 420 z M 620.8125 420 C 619.91231 419.6587 619.03327 419.2776 618.125 418.96875 C 618.93113 419.53428 619.82594 419.87153 620.8125 420 z M 534.53125 206.5 C 538.00726 206.5461 541.50779 206.69225 545 206.9375 C 564.4384 209.0645 582.93295 215.55575 600.46875 223.96875 C 601.54545 224.86475 614.7307 231.1065 607.625 231.9375 C 605.5897 246.5875 601.31635 260.7445 596.84375 274.8125 C 591.07745 292.66472 584.81789 310.38777 577.09375 327.46875 C 576.70073 327.44554 576.29803 327.43107 575.90625 327.40625 C 528.88285 327.52625 481.9059 330.332 435.5 338.375 C 421.041 340.75256 406.58315 343.1822 392.15625 345.78125 C 384.76001 323.36344 385.50313 298.64117 382.4375 275.5 C 381.6863 266.44182 380.91777 257.37041 380.25 248.28125 C 385.03348 251.41551 389.29217 252.48001 392.28125 250.46875 C 414.13945 236.30475 438.57255 226.903 463.09375 218.5 C 486.31056 210.66 510.19919 206.17729 534.53125 206.5 z M 489.375 460.71875 C 456.72592 460.73746 424.12202 462.57456 391.90625 468.71875 C 353.12032 476.64753 314.32039 486.45439 280.28125 507.5 C 256.91555 504.49027 231.22847 506.63082 230.25 516.625 C 228.0075 557.523 231.2558 598.439 235.1875 639.125 C 238.7707 676.104 245.90545 712.56475 255.78125 748.34375 C 258.24025 758.35475 261.95795 767.8795 266.03125 777.3125 C 273.98225 794.3225 354.16965 756.85375 346.21875 739.84375 C 343.11025 735.16275 342.13515 729.3675 340.21875 724.1875 C 331.10935 693.6835 324.7054 662.462 321.5625 630.75 C 319.88686 613.54399 318.28227 596.27365 317.46875 578.96875 C 322.18814 582.00903 326.36295 583.02418 329.3125 581.03125 C 353.4472 565.69725 381.6803 559.49475 409.3125 553.84375 C 449.4075 546.26575 490.1804 546.87325 530.75 548.40625 C 565.4996 549.99525 600.2909 551.8055 634.6875 557.1875 C 642.4712 560.1795 664.42875 560.4785 667.71875 571.0625 C 661.76705 568.9935 663.78375 581.35325 663.40625 584.90625 C 658.39495 619.06125 651.77565 652.97275 645.78125 686.96875 C 639.01425 725.89775 632.9813 764.94975 628.5625 804.21875 C 626.7135 815.48775 627.34465 827.26775 624.34375 838.34375 C 620.76185 856.75575 707.57435 873.663 711.15625 855.25 C 713.52255 841.379 714.70275 827.414 715.65625 813.375 C 719.24235 776.128 724.7695 739.089 731.3125 702.25 C 737.8597 666.102 745.2927 630.1235 750.875 593.8125 C 753.9563 562.6755 752.1527 533.0055 730.0625 508.5625 C 706.7189 487.0655 679.1389 474.928 647.5625 470.625 C 609.8877 465.271 571.8858 463.0115 533.875 461.5625 C 519.04578 461.05375 504.21549 460.71025 489.375 460.71875 z M 454.59375 580.1875 C 444.27265 580.11173 436.59363 582.17687 435.375 587.3125 C 428.3914 622.0025 419.1904 656.17825 409.375 690.15625 C 396.6544 734.17425 379.2332 776.55625 360.75 818.40625 C 346.4477 850.31025 331.62305 881.969 316.78125 913.625 C 314.21555 919.111 311.7871 924.699 308.625 929.875 C 299.9832 946.592 378.7957 987.31075 387.4375 970.59375 C 390.6466 963.80375 393.79955 956.9835 396.71875 950.0625 C 411.04475 917.7275 425.77985 885.59425 440.15625 853.28125 C 459.97205 807.92125 478.6685 761.9965 492.625 714.4375 C 503.044 679.0825 512.6018 643.534 521.4375 607.75 C 524.55177 594.62562 480.96989 580.38114 454.59375 580.1875 z M 530.625 798.5625 C 511.88843 798.49748 465.59151 857.76245 479.03125 868.65625 C 501.78845 887.34525 524.3043 906.27725 547.8125 924.03125 C 574.3544 943.26325 601.8538 961.12125 629.375 978.90625 C 641.5104 986.92525 635.69735 983.03325 646.84375 990.53125 C 662.44755 1000.8083 710.9162 927.24675 695.3125 916.96875 C 683.3838 909.26875 689.5945 913.2865 676.5625 904.9375 C 650.7896 888.7095 625.1957 872.215 600.5 854.375 C 577.7914 837.187 556.11 818.7695 534.75 799.9375 C 533.61104 799.01438 532.21285 798.56801 530.625 798.5625 z "
     id="path13481" />
</svg>
