<?xml version="1.0" encoding="UTF-8" standalone="no"?>
<svg
   xmlns:dc="http://purl.org/dc/elements/1.1/"
   xmlns:cc="http://creativecommons.org/ns#"
   xmlns:rdf="http://www.w3.org/1999/02/22-rdf-syntax-ns#"
   xmlns:svg="http://www.w3.org/2000/svg"
   xmlns="http://www.w3.org/2000/svg"
   xmlns:sodipodi="http://sodipodi.sourceforge.net/DTD/sodipodi-0.dtd"
   xmlns:inkscape="http://www.inkscape.org/namespaces/inkscape"
   width="1024"
   height="1024"
   id="U5403"
   version="1.1"
   inkscape:version="0.48.0 r9654"
   sodipodi:docname="U+5403.svg">
  <metadata
     id="metadata13">
    <rdf:RDF>
      <cc:Work
         rdf:about="">
        <dc:format>image/svg+xml</dc:format>
        <dc:type
           rdf:resource="http://purl.org/dc/dcmitype/StillImage" />
      </cc:Work>
    </rdf:RDF>
  </metadata>
  <defs
     id="defs11" />
  <sodipodi:namedview
     pagecolor="#ffffff"
     bordercolor="#666666"
     borderopacity="1"
     objecttolerance="10"
     gridtolerance="10"
     guidetolerance="10"
     inkscape:pageopacity="0"
     inkscape:pageshadow="2"
     inkscape:window-width="640"
     inkscape:window-height="480"
     id="namedview9"
     showgrid="false"
     inkscape:zoom="0.27441406"
     inkscape:cx="512"
     inkscape:cy="512"
     inkscape:window-x="0"
     inkscape:window-y="25"
     inkscape:window-maximized="0"
     inkscape:current-layer="U5403" />
  <path
     style="fill:#800000;fill-opacity:1;fill-rule:nonzero;stroke:#f9f9f9;stroke-width:0.1;stroke-miterlimit:4;stroke-dasharray:none"
     d="M 413.625 159.40625 C 410.66625 159.38789 408.34525 160.22565 406.96875 162.09375 C 381.81145 201.17395 363.0102 243.88155 344.125 286.21875 C 333.60664 310.73611 323.11574 335.34236 314 360.40625 C 298.03915 354.60479 280.1354 353.87033 262.34375 356.8125 C 229.06685 364.6623 197.9679 378.28575 172.5625 401.78125 C 170.47779 403.86596 170.26738 407.20267 171.46875 411.25 C 147.34134 400.76143 106.02346 395.32359 103.15625 407.78125 C 95.60145 447.93485 95.75355 488.9493 96.78125 529.625 C 97.70375 568.9533 103.6907 607.72005 113.5625 645.71875 C 115.83105 654.10365 135.76587 653.45863 155.59375 648.5625 C 153.95332 649.49323 152.33668 650.41524 150.71875 651.40625 C 135.27995 661.74875 184.03005 734.53 199.46875 724.1875 C 219.87925 711.6665 243.8001 708.0321 267.1875 705.5625 C 282.6977 704.3017 298.23895 704.548 313.78125 704.625 C 326.07844 704.65213 330.2452 665.83771 326.125 640.1875 C 344.33065 640.64376 360.60802 637.5569 361.28125 629.71875 C 364.16195 594.99505 366.2461 560.20805 367.9375 525.40625 C 368.91083 500.70669 370.33782 475.55806 368.15625 450.875 C 374.34432 449.81667 378.55109 447.57051 379.28125 443.84375 C 386.35335 400.92205 405.84895 361.1934 422.03125 321.1875 C 426.71016 310.82481 431.39706 300.4163 436.1875 290.0625 C 446.8875 313.88445 469.75108 342.64194 479.9375 336.3125 C 507.7883 320.278 539.67775 313.3808 570.71875 306.4375 C 619.22185 296.5085 668.43905 290.826 717.65625 285.875 C 730.79625 284.5141 743.95895 283.63865 757.15625 284.09375 C 775.63245 284.12565 775.75745 197.032 757.28125 197 C 740.95225 197.2935 724.68785 198.243 708.46875 200.3125 C 656.20785 206.272 603.91145 212.5158 552.28125 222.75 C 519.38054 229.903 486.18551 237.57863 455.3125 251.125 C 462.08273 238.40091 469.36498 225.95621 477.4375 214 C 487.073 200.9233 434.33627 159.53478 413.625 159.40625 z M 538.75 421.84375 C 505.0375 422.86655 471.69315 427.6607 441.03125 442.625 C 424.46735 451.0662 464.2486 529.15995 480.8125 520.71875 C 499.4142 510.98925 520.1025 508.72235 540.75 508.46875 C 549.267 509.24305 558.98975 509.1041 566.65625 513.6875 C 572.48655 517.1732 563.03945 514.15145 562.71875 513.96875 C 562.02535 513.53405 561.3664 512.30965 560.625 512.65625 C 557.0954 514.30615 558.36345 520.10085 557.28125 523.84375 C 552.54295 540.23065 546.2471 556.02865 540.0625 571.90625 C 523.2409 612.07615 508.18245 652.7993 500.53125 695.75 C 497.10845 727.4487 500.6714 760.98365 521.375 786.71875 C 525.5014 791.84795 530.6159 796.0744 535.25 800.75 C 569.3665 826.6075 611.1569 826.94505 652.0625 826.34375 C 698.1178 824.36585 744.0839 821.21995 790.1875 820.59375 C 821.5421 820.17935 852.76655 822.99765 883.71875 827.78125 L 893.375 829.53125 C 911.5905 832.65905 926.30925 746.78405 908.09375 743.65625 C 904.15275 743.01145 900.22215 742.36355 896.28125 741.71875 C 860.66385 736.78255 824.77065 733.97855 788.78125 734.65625 C 742.81065 735.52235 696.9431 738.4873 651 740.125 C 631.8579 740.2965 612.67235 740.47605 593.90625 736.21875 C 584.09005 737.30085 585.784 714.28255 585.875 709.84375 C 591.2893 672.66665 606.2556 638.05835 620.1875 603.40625 C 636.5969 561.99315 655.8646 519.39675 640.5625 474.65625 C 636.4154 467.98745 633.15285 460.66275 628.09375 454.65625 C 606.11345 428.55965 570.7817 422.84025 538.75 421.84375 z M 186.9375 435.4375 C 203.20728 453.9883 226.91006 471.27744 234.46875 463.71875 C 247.20651 452.12924 262.97643 445.04934 279.78125 442 C 284.3027 468.46748 282.79323 495.49444 281.84375 522.1875 C 280.37967 554.34052 278.41217 586.46661 275.625 618.53125 C 269.60512 618.76961 263.60043 619.13566 257.59375 619.6875 C 235.41144 622.26265 213.27617 625.95182 192.15625 632.71875 C 195.89482 629.53837 197.81424 626.28132 196.96875 623.15625 C 188.07685 592.01145 183.4598 559.93955 182.625 527.53125 C 181.92371 496.83844 181.48281 465.75513 186.9375 435.4375 z M 285.28125 441.59375 C 285.78768 441.59324 286.2763 441.6118 286.78125 441.65625 C 287.76435 441.74285 288.9702 441.85525 289.625 442.59375 C 290.39526 443.4623 281.26048 442.06717 280.125 441.9375 C 280.32343 441.90217 280.52003 441.8467 280.71875 441.8125 C 282.23908 441.77943 283.76195 441.59528 285.28125 441.59375 z "
     id="path20939" />
</svg>
