<?xml version="1.0" encoding="UTF-8" standalone="no"?>
<svg
   xmlns:dc="http://purl.org/dc/elements/1.1/"
   xmlns:cc="http://creativecommons.org/ns#"
   xmlns:rdf="http://www.w3.org/1999/02/22-rdf-syntax-ns#"
   xmlns:svg="http://www.w3.org/2000/svg"
   xmlns="http://www.w3.org/2000/svg"
   xmlns:sodipodi="http://sodipodi.sourceforge.net/DTD/sodipodi-0.dtd"
   xmlns:inkscape="http://www.inkscape.org/namespaces/inkscape"
   width="1024"
   height="1024"
   id="U542C"
   version="1.1"
   inkscape:version="0.48.0 r9654"
   sodipodi:docname="U+542C.svg">
  <metadata
     id="metadata13">
    <rdf:RDF>
      <cc:Work
         rdf:about="">
        <dc:format>image/svg+xml</dc:format>
        <dc:type
           rdf:resource="http://purl.org/dc/dcmitype/StillImage" />
      </cc:Work>
    </rdf:RDF>
  </metadata>
  <defs
     id="defs11" />
  <sodipodi:namedview
     pagecolor="#ffffff"
     bordercolor="#666666"
     borderopacity="1"
     objecttolerance="10"
     gridtolerance="10"
     guidetolerance="10"
     inkscape:pageopacity="0"
     inkscape:pageshadow="2"
     inkscape:window-width="640"
     inkscape:window-height="480"
     id="namedview9"
     showgrid="false"
     inkscape:zoom="0.27441406"
     inkscape:cx="512"
     inkscape:cy="512"
     inkscape:window-x="0"
     inkscape:window-y="25"
     inkscape:window-maximized="0"
     inkscape:current-layer="U542C" />
  <path
     style="fill:#782121;fill-opacity:1;fill-rule:nonzero;stroke:#f9f9f9;stroke-width:0.1;stroke-miterlimit:4;stroke-dasharray:none"
     d="M 789.8125 139.84375 C 789.52504 139.84675 789.22728 139.89103 788.9375 139.9375 C 760.5147 145.1495 732.9354 153.82375 705.625 163.09375 C 661.8707 177.65875 621.15255 198.94325 582.15625 223.28125 C 547.86055 245.49425 516.283 271.52625 486.375 299.28125 C 467.117 317.25225 458.39815 324.5035 451.90625 351.0625 C 454.29399 361.30467 455.05593 366.54592 455.53125 369.84375 C 455.11023 368.55562 454.73503 367.44008 454.5625 366.8125 C 452.20184 380.73543 450.09665 394.67995 448.1875 408.65625 C 437.83173 385.96715 421.06539 370.91716 392.40625 358.65625 C 355.59145 346.29425 317.3576 341.51975 278.5 343.71875 C 241.9367 345.89175 205.04325 349.75075 171.15625 364.71875 C 169.26291 365.65642 168.08414 367.4904 167.5 370 C 144.69736 367.74354 120.6208 370.42512 119.8125 380.125 C 118.2372 417.181 121.5804 454.19125 125.1875 491.03125 C 129.4137 526.23125 133.03025 561.68125 142.09375 596.03125 C 144.02595 600.58125 145.9428 605.1385 147.875 609.6875 C 148.436 610.80708 149.32499 611.67197 150.46875 612.3125 C 154.91606 627.54967 161.4654 639.302 168.46875 638.0625 C 201.71085 630.5335 235.488 627.10375 269.5 626.21875 C 288.284 626.18602 306.87607 628.17042 325.25 631.40625 C 336.28418 647.51662 349.51613 660.10156 356.625 655.6875 C 370.16141 646.81128 368.05369 648.55586 374.75 642.8125 C 375.07215 642.90127 375.39672 642.97334 375.71875 643.0625 C 382.0108 644.73867 388.86805 635.41776 394.34375 622.40625 C 411.14302 601.98435 424.83193 579.3713 435.1875 554.75 C 435.90117 552.98931 436.61059 551.20533 437.3125 549.4375 C 436.05781 582.87131 435.31924 616.34207 434.59375 649.78125 C 433.56305 712.07625 432.3793 774.3845 433.1875 836.6875 C 433.8099 860.3385 433.41925 849.2045 434.34375 870.0625 C 435.47725 888.6305 522.97725 883.28675 521.84375 864.71875 C 520.36565 846.34175 521.07315 856.341 519.96875 834.75 C 518.00245 773.747 518.7293 712.7035 519.75 651.6875 C 521.2437 586.6635 522.90445 521.5355 529.78125 456.8125 C 533.37725 428.2365 538.5541 399.9945 543 371.5625 C 543.06964 369.53977 543.14955 367.90866 543.21875 366.3125 C 544.28243 365.2429 545.42227 364.14081 546.6875 362.9375 C 571.8317 338.5275 598.807 315.96625 628.1875 296.78125 C 661.3156 275.95425 696.05235 257.974 733.40625 245.875 C 756.19095 238.344 779.18345 230.99675 802.96875 227.34375 C 821.22477 224.41523 807.9226 139.65503 789.8125 139.84375 z M 459.53125 380 C 460.09065 380.84137 460.63591 381.67991 461.40625 382.8125 C 462.08341 383.80883 460.44005 381.48117 459.53125 380 z M 852.65625 406.1875 C 848.8849 406.1863 845.10829 406.29406 841.3125 406.53125 C 785.9366 409.78825 731.3835 419.16575 677.3125 431.46875 C 640.1653 439.17175 602.88625 446.19675 565.40625 452.09375 C 547.01035 455.87675 564.8542 542.5955 583.25 538.8125 C 620.5943 531.3015 657.98095 524.01875 695.21875 515.96875 C 696.18561 515.74561 697.15781 515.53391 698.125 515.3125 C 692.27547 545.21663 689.38536 575.72853 686.53125 606.03125 C 680.49575 673.92225 677.1093 741.98 678.8125 810.125 C 680.3104 848.422 685.69875 886.37675 693.53125 923.84375 C 697.55635 941.97775 783.05635 923.009 779.03125 904.875 C 771.43095 872.926 766.4791 840.42175 764.75 807.59375 C 762.5033 743.12175 765.76375 678.692 772.09375 614.5 C 776.08785 576.15 779.49085 536.994 792.78125 500.5 C 793.12277 499.61349 793.21996 498.70153 793.125 497.75 C 810.58079 495.50999 828.10208 493.89636 845.75 493.15625 C 858.9026 492.72625 871.74935 494.01325 884.46875 497.15625 C 902.73875 500.72325 919.55125 414.59725 901.28125 411.03125 C 885.13704 408.27931 868.99876 406.19269 852.65625 406.1875 z M 293.6875 430.53125 C 317.33583 430.3465 340.97859 432.704 363.15625 441.34375 C 372.71025 445.54875 371.61225 448.2455 371.65625 456.5625 C 371.29335 479.3175 362.9304 500.86975 354.3125 521.59375 C 350.51769 530.00539 346.33857 538.23226 341.59375 546.09375 C 317.04616 541.84629 292.24622 539.30119 267.1875 539.5 C 251.28822 539.93933 235.43055 540.8344 219.625 542.1875 C 216.18488 522.47221 214.61065 502.3061 211.625 482.65625 C 210.4126 469.98936 209.23432 457.29299 208.375 444.5625 C 209.08434 444.4924 209.75892 444.32059 210.40625 444 C 233.38025 433.859 258.8208 432.142 283.5625 430.75 C 286.93779 430.62962 290.30917 430.55764 293.6875 430.53125 z "
     id="path12150" />
</svg>
