<?xml version="1.0" encoding="UTF-8" standalone="no"?>
<svg
   xmlns:dc="http://purl.org/dc/elements/1.1/"
   xmlns:cc="http://creativecommons.org/ns#"
   xmlns:rdf="http://www.w3.org/1999/02/22-rdf-syntax-ns#"
   xmlns:svg="http://www.w3.org/2000/svg"
   xmlns="http://www.w3.org/2000/svg"
   xmlns:sodipodi="http://sodipodi.sourceforge.net/DTD/sodipodi-0.dtd"
   xmlns:inkscape="http://www.inkscape.org/namespaces/inkscape"
   width="1024"
   height="1024"
   id="U5496"
   version="1.1"
   inkscape:version="0.48.0 r9654"
   sodipodi:docname="U+5496.svg">
  <metadata
     id="metadata15">
    <rdf:RDF>
      <cc:Work
         rdf:about="">
        <dc:format>image/svg+xml</dc:format>
        <dc:type
           rdf:resource="http://purl.org/dc/dcmitype/StillImage" />
      </cc:Work>
    </rdf:RDF>
  </metadata>
  <defs
     id="defs13" />
  <sodipodi:namedview
     pagecolor="#ffffff"
     bordercolor="#666666"
     borderopacity="1"
     objecttolerance="10"
     gridtolerance="10"
     guidetolerance="10"
     inkscape:pageopacity="0"
     inkscape:pageshadow="2"
     inkscape:window-width="640"
     inkscape:window-height="480"
     id="namedview11"
     showgrid="false"
     inkscape:zoom="0.27441406"
     inkscape:cx="512"
     inkscape:cy="512"
     inkscape:window-x="0"
     inkscape:window-y="25"
     inkscape:window-maximized="0"
     inkscape:current-layer="U5496" />
  <path
     style="fill:#2b0000;fill-opacity:1;fill-rule:nonzero;stroke:#f9f9f9;stroke-width:0.1;stroke-miterlimit:4;stroke-dasharray:none"
     d="M 550.125 224.625 C 543.13192 224.63854 538.09308 226.28503 536.75 230.15625 C 521.615 280.46825 508.5409 331.3715 494.75 382.0625 C 492.19485 391.28639 489.6878 400.51168 487.1875 409.75 C 462.24367 415.44657 437.45768 421.8102 413.0625 429.5625 C 395.4218 436.0085 425.7969 519.196 443.4375 512.75 C 449.49672 510.5939 455.60414 508.56556 461.75 506.6875 C 453.02741 540.73524 444.42898 574.80832 435.78125 608.875 C 423.07535 659.117 408.23425 708.769 393.28125 758.375 C 386.20385 780.616 379.84425 802.96775 378.59375 826.34375 C 378.21165 845.11975 466.71165 846.93225 467.09375 828.15625 C 467.38045 812.81225 473.6581 797.72925 477.125 782.78125 C 491.4132 731.87425 505.8702 680.99225 518.5625 629.65625 C 530.51484 581.54666 542.44492 533.43924 555.0625 485.5 C 568.70968 483.38871 582.4334 482.17123 596.1875 483.59375 C 605.6772 485.86875 599.157 485.0205 599.5625 489.1875 C 604.9362 510.4685 603.50365 532.483 601.84375 554.125 C 597.37935 595.814 586.46705 636.40425 575.15625 676.65625 C 568.07645 700.13825 560.7644 723.99125 546.8125 744.40625 C 536.933 760.20325 611.40165 806.796 621.28125 791 C 638.25495 762.604 650.28845 731.96875 658.78125 699.96875 C 668.80184 663.77799 678.54199 627.37539 684.6875 590.3125 C 710.67177 586.34622 745.22565 571.52163 741.71875 559.875 C 738.04515 548.24 734.77595 536.50375 732.09375 524.59375 C 725.22545 495.83375 719.06905 466.88375 710.84375 438.46875 C 708.10297 430.535 689.87446 431.92077 671.09375 437.46875 C 655.01584 413.01922 634.33124 399.38749 601.84375 395.8125 C 594.43532 395.46718 587.05281 395.4465 579.6875 395.6875 C 592.47955 349.95637 604.74455 304.01732 620.15625 259.09375 C 624.95305 245.26719 575.10027 224.57665 550.125 224.625 z M 252.65625 350.75 C 229.89133 350.70075 207.14294 351.3675 184.375 351.4375 C 165.5991 351.7695 167.1616 440.30175 185.9375 439.96875 C 211.0045 438.92875 236.0987 438.098 261.1875 438.5 C 267.6849 439.252 296.11515 439.20725 298.96875 447.28125 C 296.68125 452.42525 297.38895 458.54775 297.03125 464.21875 C 294.75025 491.15375 289.49795 517.69225 283.59375 544.03125 C 279.69454 559.98824 275.56117 575.88927 271.40625 591.78125 C 267.1747 592.2816 262.94428 592.82956 258.71875 593.375 C 228.16315 597.113 197.6517 601.716 166.875 603.125 C 148.1199 603.72 150.90115 692.12725 169.65625 691.53125 C 202.97505 688.89925 236.0785 683.991 269.25 680 C 289.6489 678.812 310.8806 673.429 331.3125 677.25 C 340.24708 678.31215 347.29886 658.63876 350.15625 637.65625 C 350.1937 637.53971 350.25087 637.43253 350.28125 637.3125 C 356.37155 612.5725 362.83985 587.9335 368.90625 563.1875 C 375.99195 531.7005 382.3647 499.95075 384.875 467.71875 C 385.9284 432.17175 379.42175 399.21475 350.34375 375.59375 C 323.59035 358.13875 294.483 350.6245 262.4375 350.8125 C 259.18472 350.7715 255.90838 350.75704 252.65625 350.75 z M 833.40625 361.59375 C 824.73035 361.65472 816.05074 362.12513 807.375 363 C 781.4429 365.812 755.65835 369.81475 730.34375 376.21875 C 712.27025 381.31275 736.27035 466.5315 754.34375 461.4375 C 774.65225 455.5535 795.6378 452.521 816.625 450.375 C 829.16366 449.78438 842.1117 448.66371 854.59375 450.75 C 858.88119 462.06691 859.97838 474.1684 861 486.125 C 862.5759 513.093 860.2755 540.04475 857.4375 566.84375 C 857.22042 568.37148 857.01129 569.90558 856.8125 571.4375 C 840.67875 571.74087 824.57197 572.93766 808.53125 575.0625 C 777.95365 579.3415 747.663 585.119 717.5625 592 C 699.3012 596.363 719.8637 682.45675 738.125 678.09375 C 765.1994 670.67775 792.7756 665.457 820.5625 661.625 C 843.9565 658.699 867.5357 658.17075 891 660.34375 C 892.7087 660.64975 894.4163 660.943 896.125 661.25 C 901.16744 661.97574 905.78289 656.02077 909.4375 646.9375 C 923.22608 647.86141 934.29629 645.94135 935.65625 639.65625 C 939.85785 618.61225 942.01705 597.27475 944.46875 575.96875 C 947.80675 543.67575 950.5015 511.1725 948.625 478.6875 C 946.6154 454.8575 943.38475 430.95375 932.71875 409.21875 C 920.10705 386.79675 902.5452 370.4245 876.625 365.0625 C 862.31519 362.57438 847.86608 361.49213 833.40625 361.59375 z M 133.90625 408.75 C 109.37847 409.02317 81.752319 415.4655 82.4375 426 C 85.0547 455.017 87.38855 484.04175 89.59375 513.09375 C 91.10475 535.29875 94.6345 557.266 99.3125 579 C 103.4438 597.253 189.47505 577.78325 185.34375 559.53125 C 181.13655 542.05825 178.0683 524.36225 176.8125 506.40625 C 174.5737 477.71025 172.13795 449.001 170.71875 420.25 C 170.18583 412.0565 152.98341 408.53754 133.90625 408.75 z M 855.8125 450.96875 C 857.18366 451.22207 858.54864 451.50472 859.90625 451.84375 C 860.56482 453.17738 857.84832 451.69114 855.8125 450.96875 z "
     id="path9855" />
</svg>
