<?xml version="1.0" encoding="utf-8" ?>

<!DOCTYPE svg PUBLIC "-//W3C//DTD SVG 1.1//EN" 
  "http://www.w3.org/Graphics/SVG/1.1/DTD/svg11.dtd">
<svg 
    xmlns="http://www.w3.org/2000/svg"
    xmlns:xlink="http://www.w3.org/1999/xlink"
    xmlns:sodipodi="http://sodipodi.sourceforge.net/DTD/sodipodi-0.dtd"
    xmlns:inkscape="http://www.inkscape.org/namespaces/inkscape"
    width="1024" height="1024" id="U54EA">
<path d="m 10368.608,34176.128 c -2.901,31.004 -1.574,62.146 0.97,93.112 2.819,28.377 8.691,56.308 16.656,83.656 -1.326,4.604 18.273,40.006 5.348,18.612 12.111,14.46 -56.054,71.553 -68.166,57.092 l 0,0 c -10.658,-15.895 -16.738,-33.454 -21.764,-51.915 -8.994,-32.91 -15.807,-66.402 -18.956,-100.417 -2.85,-35.706 -4.173,-71.516 -2.204,-107.319 1.523,-18.693 89.639,-11.513 88.116,7.179 z" id="path11332" inkscape:connector-curvature="0" style="fill:#c83737;fill-opacity:1;fill-rule:nonzero;stroke:#f9f9f9;stroke-width:0.1;stroke-miterlimit:4;stroke-dasharray:none" transform="translate(-10240, -33792)"/><path d="m 10336.447,34133.021 c 27.74,-6.251 55.62,-11.828 83.645,-16.642 26.168,-4.91 52.603,-6.986 79.155,-5.199 24.029,1.564 43.164,10.875 59.982,27.779 18.344,24.514 15.785,53.268 12.81,81.944 -4.281,32.75 -10.739,65.154 -15.792,97.786 -3.105,20.27 -5.304,40.68 -5.562,61.193 -0.689,1.536 1.309,19.71 0.05,7.966 3.611,18.536 -83.771,35.559 -87.383,17.023 l 0,0 c -1.184,-9.06 -1.356,-18.156 -0.976,-27.293 0.874,-24.312 3.561,-48.497 7.441,-72.513 4.955,-30.927 11.015,-61.691 14.838,-92.788 0.887,-9.618 1.056,-10.159 1.483,-18.791 0.448,-9.061 2.036,0.842 5.866,3.25 8.132,6.228 13.159,4.999 0.391,2.436 -19.296,-1.848 -38.523,0.122 -57.577,3.536 -25.658,4.343 -51.229,9.356 -76.395,16.024 -18.182,4.662 -40.159,-81.049 -21.977,-85.711 z" id="path11334" inkscape:connector-curvature="0" style="fill:#c83737;fill-opacity:1;fill-rule:nonzero;stroke:#f9f9f9;stroke-width:0.1;stroke-miterlimit:4;stroke-dasharray:none" transform="translate(-10240, -33792)"/><path d="m 10309.112,34366.255 c 28.195,-13.725 57.365,-25.161 87.079,-35.109 27.151,-9.375 55.379,-12.349 83.908,-11.738 15.117,1.177 30.203,1.811 45.345,1.021 1.75,-0.119 3.5,-0.239 5.249,-0.358 18.744,-1.09 23.883,87.27 5.139,88.36 l 0,0 c -2.162,0.108 -4.324,0.217 -6.486,0.325 -17.263,0.658 -34.502,0.309 -51.719,-1.226 -18.332,-0.698 -36.403,0.639 -53.914,6.718 -25.489,8.33 -50.566,18.017 -74.25,30.692 -16.692,8.56 -57.043,-70.126 -40.351,-78.685 z" id="path11338" inkscape:connector-curvature="0" style="fill:#c83737;fill-opacity:1;fill-rule:nonzero;stroke:#f9f9f9;stroke-width:0.1;stroke-miterlimit:4;stroke-dasharray:none" transform="translate(-10240, -33792)"/><path d="m 10562.912,33988.205 c 30.603,-7.999 62.079,-11.791 93.43,-15.474 35.774,-4.177 71.773,-5.602 107.724,-3.625 29.58,1.985 57.435,11.49 84.065,23.943 17.186,7.976 32.953,18.261 47.178,30.719 23.675,22.095 26.799,52.363 26.736,82.929 -2.89,45.276 -11.311,89.99 -18.38,134.749 -7.67,47.608 -13.3,95.504 -19.285,143.343 -5.173,42.184 -12.061,84.107 -20.595,125.735 -4.678,22.549 -10.193,44.944 -13.521,67.747 -1.022,9.159 -1.693,18.225 -3.222,27.315 -2.576,5.46 -5.152,10.92 -7.729,16.38 -10.873,15.421 -83.572,-35.838 -72.698,-51.259 l 0,0 c -1.987,4.623 -3.973,9.247 -5.96,13.871 -2.195,18.893 1.71,-19.79 2.376,-20.175 4.078,-24.136 10.029,-47.879 15.361,-71.76 8.415,-39.276 14.892,-78.902 19.873,-118.763 6.24,-48.65 12.201,-97.344 19.937,-145.787 6.257,-40.485 13.504,-80.971 16.105,-121.897 0.01,-0.782 -1.214,-15.218 -0.05,-17.064 0.459,-0.728 1.415,1.528 2.239,1.281 0.437,-0.13 -0.47,-0.78 -0.705,-1.17 -6.993,-7.46 -16.853,-11.695 -25.593,-16.648 -16.269,-7.995 -33.203,-14.531 -51.446,-16.085 -30.725,-2.11 -61.538,-0.517 -92.121,2.957 -26.033,3.12 -52.3,6.078 -77.579,13.304 -17.94,5.545 -44.078,-79.021 -26.139,-84.566 z" id="path11342" inkscape:connector-curvature="0" style="fill:#c83737;fill-opacity:1;fill-rule:nonzero;stroke:#f9f9f9;stroke-width:0.1;stroke-miterlimit:4;stroke-dasharray:none" transform="translate(-10240, -33792)"/><path d="m 10582.153,34193.413 c 30.916,-9.98 62.64,-17.004 94.605,-22.604 29.81,-5.308 59.981,-6.186 89.983,-2.478 15.229,1.769 28.423,7.435 41.522,14.994 15.55,10.591 -34.377,83.894 -49.927,73.303 l 0,0 c 11.173,4.71 -1.354,-1.206 -3.541,-0.957 -20.967,-3.367 -42.209,-2.156 -63.123,1.267 -26.759,4.569 -53.399,10.325 -79.002,19.509 -17.614,6.474 -48.131,-76.56 -30.517,-83.034 z" id="path11344" inkscape:connector-curvature="0" style="fill:#c83737;fill-opacity:1;fill-rule:nonzero;stroke:#f9f9f9;stroke-width:0.1;stroke-miterlimit:4;stroke-dasharray:none" transform="translate(-10240, -33792)"/><path d="m 10519.304,34413.137 c 32.59,-4.297 65.022,-9.717 97.436,-15.162 43.897,-7.485 87.732,-15.32 131.623,-22.842 29.266,-4.903 58.636,-9.35 88.236,-11.612 10.792,-1.375 20.699,0.869 31.078,3.459 17.744,6.361 -12.24,90.009 -29.985,83.648 l 0,0 c 2.509,0.459 4.994,1.076 7.526,1.377 0.439,0.05 1.72,-0.265 1.283,-0.328 -1.429,-0.209 -2.888,-0.08 -4.331,-0.117 -26.641,1.223 -53.05,5.309 -79.379,9.361 -43.853,7.234 -87.611,15.025 -131.378,22.759 -33.082,5.769 -66.2,11.325 -99.299,16.99 -18.569,2.718 -31.379,-84.816 -12.81,-87.533 z" id="path11346" inkscape:connector-curvature="0" style="fill:#c83737;fill-opacity:1;fill-rule:nonzero;stroke:#f9f9f9;stroke-width:0.1;stroke-miterlimit:4;stroke-dasharray:none" transform="translate(-10240, -33792)"/><path d="m 10777.722,34014.751 c -11.247,42.749 -21.094,85.859 -31.736,128.763 -18.144,73.239 -39.386,145.649 -59.823,218.265 -15.902,55.568 -29.891,111.644 -41.7,168.219 -4.492,25.085 -10.413,50.354 -9.707,75.997 0.173,3.941 0.641,7.857 1.312,11.741 2.549,18.667 -85.448,30.682 -87.997,12.015 l 0,0 c -0.97,-8 -1.634,-16.036 -1.595,-24.103 0.658,-31.71 6.552,-62.883 13.227,-93.822 12.807,-58.267 27.6,-116.06 44.315,-173.334 20.406,-71.47 41.473,-142.791 58.556,-215.153 10.293,-43.689 19.951,-87.517 29.678,-131.334 4.825,-18.131 90.296,4.615 85.47,22.746 z" id="path11348" inkscape:connector-curvature="0" style="fill:#c83737;fill-opacity:1;fill-rule:nonzero;stroke:#f9f9f9;stroke-width:0.1;stroke-miterlimit:4;stroke-dasharray:none" transform="translate(-10240, -33792)"/><path d="m 10963.12,34022.054 c 30.446,-4.881 61.035,-7.91 91.849,-8.752 28.582,-0.571 56.936,2.854 84.868,8.62 12.107,2.647 24.059,5.909 35.94,9.416 -0.831,-0.238 5.747,0.239 18.075,5.41 26.104,15.819 29.378,42.672 18.294,68.161 -7.867,15.444 -17.961,29.622 -28.016,43.692 -14.879,20.975 -32.192,39.952 -50.464,57.978 -11.422,11.416 -23.422,22.217 -35.299,33.148 -17.861,15.713 1.151,0.02 3.734,-11.064 1.732,-7.434 0.374,-15.262 0.561,-22.893 -14.042,-25.495 -15.461,-24.217 5.184,-5.503 16.899,15.602 28.56,35.144 38.399,55.679 10.6,24.245 16.47,50.105 21.765,75.917 4.187,19.834 7.03,39.806 6.975,60.084 -0.748,23.925 -10.35,44.555 -24.75,63.144 -16.972,19.402 -39.945,26.835 -64.686,29.928 -19.572,1.973 -39.127,0.01 -58.489,-2.86 -19.566,-2.828 -37.97,-9.307 -55.775,-17.664 -16.829,-8.158 21.63,-87.488 38.458,-79.33 l 0,0 c 9.518,4.977 19.678,8.008 30.296,9.711 11.774,1.758 23.648,3.268 35.579,2.323 2.394,-0.188 7.309,-2.082 6.361,1.608 2.781,-2.065 4.228,-4.958 4.649,-8.503 0.929,-13.814 -2.923,-27.494 -4.915,-41.058 -3.726,-18.896 -7.653,-37.902 -15.097,-55.752 -4.703,-10.293 -10.26,-20.164 -18.596,-28.004 -11.962,-11.345 -26.55,-17.469 -31.018,-35.765 -0.343,-29.945 -1.422,-37.767 22.116,-55.859 11.17,-9.86 22.419,-19.636 32.978,-30.164 14.638,-14.2 28.494,-29.186 40.178,-45.962 6.75,-9.647 13.47,-19.347 19.104,-29.705 -4.633,19.459 4.83,38.311 22.237,48.105 23.952,9.387 9.997,1.593 -3.731,0.07 -9.443,-2.99 -18.958,-5.747 -28.584,-8.096 -21.076,-4.771 -42.502,-7.688 -64.172,-7.365 -27.2,0.581 -54.219,3.445 -80.921,8.774 -18.556,2.776 -31.642,-84.695 -13.087,-87.471 z" id="path11352" inkscape:connector-curvature="0" style="fill:#c83737;fill-opacity:1;fill-rule:nonzero;stroke:#f9f9f9;stroke-width:0.1;stroke-miterlimit:4;stroke-dasharray:none" transform="translate(-10240, -33792)"/><path d="m 11001.344,34087.697 c 7.366,43.878 6.557,88.528 5.759,132.842 -2.177,61.371 -5.421,122.69 -7.078,184.079 -0.958,43.449 -0.754,86.912 -0.153,130.363 0.474,20.205 0.492,40.568 4.582,60.437 1.774,8.304 4.752,16.274 7.426,24.312 5.863,17.868 -78.368,45.507 -84.231,27.639 l 0,0 c -3.834,-11.896 -8.05,-23.711 -10.099,-36.093 -4.232,-24.971 -5.131,-50.239 -5.024,-75.542 -0.158,-44.564 0.112,-89.133 1.36,-133.682 1.983,-60.924 5.275,-121.793 7.017,-182.724 0.372,-37.826 1.223,-76.146 -6.149,-113.44 -3.858,-18.368 82.731,-36.56 86.59,-18.191 z" id="path11354" inkscape:connector-curvature="0" style="fill:#c83737;fill-opacity:1;fill-rule:nonzero;stroke:#f9f9f9;stroke-width:0.1;stroke-miterlimit:4;stroke-dasharray:none" transform="translate(-10240, -33792)"/></svg>