<?xml version="1.0" encoding="UTF-8" standalone="no"?>
<svg
   xmlns:dc="http://purl.org/dc/elements/1.1/"
   xmlns:cc="http://creativecommons.org/ns#"
   xmlns:rdf="http://www.w3.org/1999/02/22-rdf-syntax-ns#"
   xmlns:svg="http://www.w3.org/2000/svg"
   xmlns="http://www.w3.org/2000/svg"
   xmlns:sodipodi="http://sodipodi.sourceforge.net/DTD/sodipodi-0.dtd"
   xmlns:inkscape="http://www.inkscape.org/namespaces/inkscape"
   width="1024"
   height="1024"
   id="U5561"
   version="1.1"
   inkscape:version="0.48.0 r9654"
   sodipodi:docname="U+5561.svg">
  <metadata
     id="metadata18">
    <rdf:RDF>
      <cc:Work
         rdf:about="">
        <dc:format>image/svg+xml</dc:format>
        <dc:type
           rdf:resource="http://purl.org/dc/dcmitype/StillImage" />
      </cc:Work>
    </rdf:RDF>
  </metadata>
  <defs
     id="defs16" />
  <sodipodi:namedview
     pagecolor="#ffffff"
     bordercolor="#666666"
     borderopacity="1"
     objecttolerance="10"
     gridtolerance="10"
     guidetolerance="10"
     inkscape:pageopacity="0"
     inkscape:pageshadow="2"
     inkscape:window-width="640"
     inkscape:window-height="480"
     id="namedview14"
     showgrid="false"
     inkscape:zoom="0.27441406"
     inkscape:cx="512"
     inkscape:cy="512"
     inkscape:window-x="0"
     inkscape:window-y="25"
     inkscape:window-maximized="0"
     inkscape:current-layer="U5561" />
  <path
     style="fill:#550000;fill-opacity:1;fill-rule:nonzero;stroke:#f9f9f9;stroke-width:0.1;stroke-miterlimit:4;stroke-dasharray:none"
     d="M 677.4375 100.59375 C 665.47073 100.64127 656.34734 103.03375 655.3125 108.75 C 649.6535 152.903 649.8878 197.5165 650.4375 241.9375 C 652.6986 325.8395 658.79045 409.575 663.28125 493.375 C 667.79195 581.181 668.4526 669.107 667.3125 757 C 665.8133 810.143 665.19185 863.3075 667.34375 916.4375 C 668.30415 934.7725 754.74165 930.24125 753.78125 911.90625 C 750.42025 860.58625 750.633 809.152 751.5625 757.75 C 751.61415 747.44599 751.6464 737.14788 751.65625 726.84375 C 770.10516 725.38409 788.59909 724.5456 807.09375 723.9375 C 846.74785 723.2575 886.4368 724.088 926.0625 725.625 C 944.4814 726.978 935.80855 726.01525 952.03125 728.28125 C 970.30495 730.55225 981.0237 644.396 962.75 642.125 C 940.5811 639.605 951.8139 640.599 929 639.25 C 887.4669 638.011 845.9252 637.2495 804.375 637.9375 C 786.62166 638.48596 768.87801 639.24959 751.15625 640.34375 C 750.79553 613.30674 750.23616 586.27703 749.40625 559.25 C 751.91335 561.357 754.42184 562.28582 756.8125 561.59375 C 776.8686 555.49575 797.7853 553.0075 818.6875 552.9375 C 837.1399 552.6315 835.67115 465.66175 817.21875 465.96875 C 793.20477 466.57651 769.2955 469.00339 745.84375 474.15625 C 744.31887 445.18203 742.69857 416.19535 741.15625 387.21875 C 756.83125 385.39611 772.62031 384.41548 788.34375 383.4375 C 805.89755 382.4435 823.4582 382.3095 841 383.4375 C 859.4426 384.3515 863.7552 297.413 845.3125 296.5 C 824.5222 295.694 803.7136 295.833 782.9375 297.125 C 767.65848 298.08183 752.3788 299.08028 737.125 300.53125 C 736.40205 280.82418 735.83946 261.09647 735.53125 241.375 C 735.52485 202.337 735.45555 163.045 741.53125 124.375 C 743.80791 111.79925 703.7644 100.4892 677.4375 100.59375 z M 560.375 119.5 C 534.53451 119.74635 501.08356 128.2475 502.5 139.78125 C 508.2475 184.47725 508.57625 229.66725 509.34375 274.65625 C 509.75528 332.80995 508.80997 390.95531 507.5625 449.09375 C 507.26231 449.03308 506.93765 448.98086 506.625 448.96875 C 503.2904 448.86475 499.9596 448.76025 496.625 448.65625 C 475.6907 448.32225 454.69425 448.4145 433.84375 446.3125 C 415.35445 444.3315 406.0106 531.48775 424.5 533.46875 C 447.8962 535.07775 471.3776 535.16825 494.8125 535.78125 C 497.6308 535.91525 500.4316 536.0535 503.25 536.1875 C 504.06345 536.21902 504.83933 536.07483 505.59375 535.78125 C 505.32828 547.29772 505.05844 558.82745 504.8125 570.34375 C 503.97136 608.45185 503.64696 646.54696 503.75 684.65625 C 478.27554 690.50964 452.98542 697.1028 427.84375 704.3125 C 387.18895 716.0905 345.7588 727.22625 308.0625 746.90625 C 292.2909 756.74425 338.666 831.088 354.4375 821.25 C 385.1123 805.352 418.8781 796.27525 451.875 786.53125 C 469.40991 781.4429 487.04705 776.7251 504.78125 772.4375 C 505.10044 787.91781 505.47761 803.397 505.9375 818.875 C 506.828 854.919 509.7867 890.8545 512.1875 926.8125 C 513.6369 945.1655 600.1368 938.32075 598.6875 919.96875 C 595.5428 885.30575 592.0877 850.677 590.8125 815.875 C 587.4486 734.632 586.3193 653.308 587.8125 572 C 589.689 472.628 592.93775 373.29625 593.78125 273.90625 C 593.71965 225.62325 593.8462 177.22675 589.5 129.09375 C 588.65014 122.1735 575.87929 119.35219 560.375 119.5 z M 303.59375 292.78125 C 282.97919 292.80602 262.00993 297.78569 242.375 301.59375 C 205.41487 311.62832 168.5732 324.07331 138 347.9375 C 112.81471 344.10893 80.416536 346.71461 79.78125 357.96875 C 78.19785 396.37775 81.384 434.6665 85.5 472.8125 C 90.7349 519.2495 100.1586 565.02525 110.5625 610.53125 C 116.2702 634.10325 113.4089 622.6675 119.125 644.8125 C 123.8422 662.5695 207.56095 640.35075 202.84375 622.59375 C 197.28955 602.31575 200.0529 612.82175 194.5 590.96875 C 184.5344 548.97975 175.61845 506.73525 170.90625 463.78125 C 168.74823 443.01057 166.79965 422.13304 166.28125 401.25 C 178.05601 412.085 189.90071 418.91094 195.25 414.1875 C 215.5085 398.7115 240.35915 391.38725 264.65625 385.03125 C 276.13135 382.75925 281.3105 381.422 292.75 380.375 C 294.92384 380.17603 297.14661 380.06216 299.34375 380 C 299.34585 380.33258 299.36434 380.62166 299.375 381 C 299.7089 392.846 299.5503 391.0195 299.3125 404.3125 C 297.2278 445.7655 293.023 487.05425 289.5625 528.40625 C 286.47716 565.50284 284.09494 602.66156 282.34375 639.84375 C 242.94705 648.93241 203.65095 658.50639 164.875 670 C 147.2516 675.875 174.9392 758.96875 192.5625 753.09375 C 228.8194 740.64975 266.1406 731.65575 303.4375 722.96875 C 340.5072 715.03675 377.61285 706.43225 415.34375 702.28125 C 418.28965 702.13125 421.21025 701.99375 424.15625 701.84375 C 442.58555 700.50175 436.27305 613.62675 417.84375 614.96875 C 413.42935 615.35375 409.00815 615.74 404.59375 616.125 C 392.88054 617.71575 381.22137 619.62499 369.59375 621.71875 C 370.85291 592.98896 372.68273 564.284 375.09375 535.625 C 378.68786 493.3948 383.21025 451.24623 385.78125 408.9375 C 393.65606 423.43104 403.03404 434.14355 409.75 431.28125 C 433.7512 422.01925 459.3724 417.95525 484.75 414.53125 C 488.8214 414.12825 492.89735 413.74675 496.96875 413.34375 C 515.28525 411.37875 506.004 325.034 487.6875 327 C 482.692 327.57 477.71435 328.1175 472.71875 328.6875 C 441.9447 333.14057 411.08091 338.47552 381.59375 348.5625 C 376.84576 331.13125 367.46086 315.6023 349.375 303.71875 C 343.3514 301.28675 337.554 298.20825 331.3125 296.40625 C 322.25919 293.79375 312.96401 292.76999 303.59375 292.78125 z M 306.1875 380.03125 C 310.71239 380.24147 313.93167 380.837 313.59375 381.8125 C 313.25845 382.7805 311.523 381.91875 310.5 381.96875 C 308.89652 381.70537 307.4666 380.93718 306.1875 380.03125 z "
     id="path22899" />
</svg>
