<?xml version="1.0" encoding="utf-8" ?>

<!DOCTYPE svg PUBLIC "-//W3C//DTD SVG 1.1//EN" 
  "http://www.w3.org/Graphics/SVG/1.1/DTD/svg11.dtd">
<svg 
    xmlns="http://www.w3.org/2000/svg"
    xmlns:xlink="http://www.w3.org/1999/xlink"
    xmlns:sodipodi="http://sodipodi.sourceforge.net/DTD/sodipodi-0.dtd"
    xmlns:inkscape="http://www.inkscape.org/namespaces/inkscape"
    width="1024" height="1024" id="U5582">
<path d="m 9369.9039,51644.631 c -1.7499,31.088 -1.4526,62.194 0.091,93.277 2.4045,25.132 2.8383,51.883 14.371,74.916 0.6979,0.839 1.3957,1.677 2.0936,2.516 9.6477,16.017 -65.858,61.497 -75.5057,45.48 l 0,0 c -2.4186,-4.336 -4.8373,-8.671 -7.2559,-13.007 -13.7264,-33.671 -18.998,-69.329 -20.6343,-105.576 -1.6371,-32.797 -2.0448,-65.592 -1.6822,-98.426 0.1738,-18.778 88.6959,-17.959 88.5221,0.82 z" id="path12912" inkscape:connector-curvature="0" style="fill:#501616;fill-opacity:1;fill-rule:nonzero;stroke:#f9f9f9;stroke-width:0.1;stroke-miterlimit:4;stroke-dasharray:none" transform="translate(-9216, -51200)"/><path d="m 9292.8305,51592.263 c 26.3476,-23.515 58.9604,-35.07 92.8129,-42.692 39.1822,-7.175 78.3124,-3.688 116.5356,6.358 39.1278,12.637 62.9195,30.845 82.9908,66.628 15.3957,37.402 6.8742,76.179 -1.6379,114.051 -8.0274,33.538 -16.6861,66.922 -26.2395,100.058 -3.6025,12.266 -7.3571,24.487 -11.1077,36.709 -5.7084,17.856 -89.885,-9.053 -84.1766,-26.91 l 0,0 c 3.8305,-11.504 7.6324,-23.018 11.2104,-34.604 9.4103,-31.124 17.8042,-62.547 25.1862,-94.216 4.0101,-18.197 8.2813,-36.509 8.3476,-55.249 -2.2991,-12.598 -17.6171,-17.728 -27.8211,-22.097 -24.3239,-7.244 -49.5421,-9.217 -74.7218,-5.314 -18.1383,3.708 -36.2742,8.811 -50.4154,21.45 -13.6129,12.932 -74.5764,-51.24 -60.9635,-64.172 z" id="path12918" inkscape:connector-curvature="0" style="fill:#501616;fill-opacity:1;fill-rule:nonzero;stroke:#f9f9f9;stroke-width:0.1;stroke-miterlimit:4;stroke-dasharray:none" transform="translate(-9216, -51200)"/><path d="m 9313.944,51825.008 c 34.316,-15.899 71.8916,-22.54 108.908,-28.838 33.5824,-5.367 67.4875,-8.157 101.406,-10.257 18.5067,-1.02 23.3138,86.222 4.8071,87.241 l 0,0 c -30.6267,1.458 -61.2444,3.729 -91.5395,8.639 -27.4334,4.74 -55.5118,9.379 -81.077,20.868 -16.4726,9.016 -58.9772,-68.636 -42.5046,-77.653 z" id="path12920" inkscape:connector-curvature="0" style="fill:#501616;fill-opacity:1;fill-rule:nonzero;stroke:#f9f9f9;stroke-width:0.1;stroke-miterlimit:4;stroke-dasharray:none" transform="translate(-9216, -51200)"/><path d="m 9704.5154,51415.145 c 9.5847,36.501 15.0369,73.909 20.8238,111.15 5.675,38.417 12.3294,76.7 23.4797,113.938 4.0846,2.487 1.995,11.191 6.1746,14.24 1.0746,0.784 -0.8211,-2.531 -1.2317,-3.796 11.6644,14.685 -57.56,69.671 -69.2243,54.986 l 0,0 c -8.7575,-13.104 -16.1864,-25.747 -19.8122,-41.337 -11.287,-40.877 -18.7564,-82.582 -24.9605,-124.514 -5.3273,-33.169 -10.1569,-66.64 -19.9209,-98.863 -5.474,-17.961 79.1975,-43.766 84.6715,-25.804 z" id="path12922" inkscape:connector-curvature="0" style="fill:#501616;fill-opacity:1;fill-rule:nonzero;stroke:#f9f9f9;stroke-width:0.1;stroke-miterlimit:4;stroke-dasharray:none" transform="translate(-9216, -51200)"/><path d="m 9688.9618,51403.597 c 30.7308,-25.133 67.7908,-39.435 105.2986,-50.957 45.0581,-12.549 91.5755,-13.975 137.8041,-9.215 39.9514,5.357 71.0205,19.523 99.5035,47.816 23.467,27.955 31.911,62.754 37.149,97.982 4.649,39.658 -1.023,79.16 -9.009,117.956 -7.681,33.126 -17.178,65.878 -30.4,97.231 -7.451,17.085 -87.9906,-18.037 -80.54,-35.122 l 0,0 c 11.681,-25.458 18.91,-52.706 25.6026,-79.826 6.0451,-28.815 10.7281,-58.185 7.7457,-87.708 -2.3836,-17.196 -5.4852,-34.727 -14.2609,-49.982 -10.8192,-14.194 -28.6432,-18.486 -45.443,-21.738 -34.4152,-4.25 -69.1696,-3.183 -102.8446,5.813 -24.927,7.479 -50.0673,16.362 -70.669,32.803 -13.7999,12.715 -73.7369,-52.339 -59.937,-65.053 z" id="path12924" inkscape:connector-curvature="0" style="fill:#501616;fill-opacity:1;fill-rule:nonzero;stroke:#f9f9f9;stroke-width:0.1;stroke-miterlimit:4;stroke-dasharray:none" transform="translate(-9216, -51200)"/><path d="m 9718.856,51547.724 c 35.6264,-23.181 77.7772,-31.223 118.9393,-38.508 38.0674,-5.909 76.3889,-10.077 114.7854,-13.121 18.5791,-1.237 24.4105,86.346 5.8314,87.583 l 0,0 c -35.305,1.845 -70.5126,5.53 -105.4503,10.942 -27.3876,4.884 -55.9721,9.434 -80.4573,23.427 -14.9178,11.38 -68.5662,-58.943 -53.6485,-70.323 z" id="path12926" inkscape:connector-curvature="0" style="fill:#501616;fill-opacity:1;fill-rule:nonzero;stroke:#f9f9f9;stroke-width:0.1;stroke-miterlimit:4;stroke-dasharray:none" transform="translate(-9216, -51200)"/><path d="m 9888.3352,51428.356 c -9.3444,33.18 -9.8116,68.051 -10.6195,102.267 -0.613,45.261 2.7407,90.414 7.3007,135.405 0.654,5.657 1.308,11.314 1.962,16.971 1.9871,18.398 -84.7433,27.765 -86.7304,9.367 l 0,0 c -0.6069,-6.018 -1.2138,-12.036 -1.8207,-18.053 -4.3718,-48.394 -7.6747,-96.922 -7.1798,-145.547 0.8387,-42.886 1.9369,-86.273 13.1111,-127.965 5.8452,-17.814 89.8218,9.741 83.9766,27.555 z" id="path12928" inkscape:connector-curvature="0" style="fill:#501616;fill-opacity:1;fill-rule:nonzero;stroke:#f9f9f9;stroke-width:0.1;stroke-miterlimit:4;stroke-dasharray:none" transform="translate(-9216, -51200)"/><path d="m 9724.7218,51674.366 c 36.3893,-3.055 72.3719,-9.701 108.3422,-15.807 36.6275,-6.343 73.3187,-12.29 110.1022,-17.653 13.6931,-1.958 7.0853,-1.088 19.8193,-2.641 18.6123,-1.987 27.9775,85.753 9.3652,87.739 l 0,0 c -10.5496,0.919 -4.7455,0.339 -17.4018,1.842 -35.8941,4.481 -71.6495,9.95 -107.2916,16.127 -38.6555,6.647 -77.2654,13.738 -116.207,18.537 -18.698,1.427 -25.4265,-86.716 -6.7285,-88.144 z" id="path12930" inkscape:connector-curvature="0" style="fill:#501616;fill-opacity:1;fill-rule:nonzero;stroke:#f9f9f9;stroke-width:0.1;stroke-miterlimit:4;stroke-dasharray:none" transform="translate(-9216, -51200)"/><path d="m 9563.3062,51809.56 c 38.0744,-3.539 75.7318,-10.583 113.3677,-17.171 63.9507,-11.951 128.2466,-21.706 192.871,-29.143 51.2219,-5.858 102.751,-8.063 154.2651,-6.493 23.144,0.89 46.077,4.246 68.855,8.258 5.072,0.946 10.07,2.22 15.053,3.541 18.139,5.073 -5.778,90.579 -23.916,85.506 l 0,0 c -2.517,-0.778 -5.041,-1.529 -7.61,-2.121 -18.413,-3.781 -36.985,-6.974 -55.776,-8.101 -47.1301,-2.299 -94.3249,-0.487 -141.2407,4.616 -62.7759,6.958 -125.1985,16.477 -187.1735,28.718 -39.8507,7.429 -79.6947,15.074 -119.8937,20.409 -18.6716,1.867 -27.4735,-86.152 -8.8019,-88.019 z" id="path12932" inkscape:connector-curvature="0" style="fill:#501616;fill-opacity:1;fill-rule:nonzero;stroke:#f9f9f9;stroke-width:0.1;stroke-miterlimit:4;stroke-dasharray:none" transform="translate(-9216, -51200)"/><path d="m 9741.782,51878.487 c 0.241,35.357 -1.3864,70.666 -3.4201,105.952 -2.1567,35.433 -4.7724,70.862 -3.9781,106.378 0.9736,7.295 0.2331,15.803 3.7979,22.61 1.9871,3.795 -1.4063,-4.782 -2.5332,-6.409 3.7136,3.761 -6.0492,-3.903 -4.1536,-4.897 5.8853,-3.086 12.7787,-3.721 18.9592,-6.162 15.1439,-5.982 21.8487,-9.629 37.0206,-16.989 34.6654,-18.054 68.1166,-38.296 101.5687,-58.473 15.8532,-9.42 60.2602,65.312 44.407,74.732 l 0,0 c -35.7198,20.911 -71.3256,42.057 -107.9231,61.415 -34.8297,17.204 -76.1486,40.51 -116.7264,32.077 -7.6865,-1.598 -14.7044,-5.507 -22.0565,-8.26 -5.6591,-4.629 -11.9625,-8.567 -16.9774,-13.887 -18.7241,-19.864 -21.7355,-48.759 -22.9111,-74.572 -0.2346,-37.556 2.3719,-75.003 4.7085,-112.471 1.8258,-32.96 3.4816,-65.997 1.8341,-99.004 -0.4327,-18.749 87.9508,-20.789 88.3835,-2.04 z" id="path12934" inkscape:connector-curvature="0" style="fill:#501616;fill-opacity:1;fill-rule:nonzero;stroke:#f9f9f9;stroke-width:0.1;stroke-miterlimit:4;stroke-dasharray:none" transform="translate(-9216, -51200)"/><path d="m 10106.689,51941.385 c -27.048,20.466 -52.941,42.423 -79.11,63.992 -36.4212,31.405 -71.9683,56.603 -117.9228,71.639 -17.729,5.364 -43.0155,-78.211 -25.2865,-83.575 l 0,0 c 34.2197,-8.574 60.9316,-33.346 87.9061,-54.802 27.1995,-22.662 54.0992,-45.682 81.4202,-68.196 15.05,-11.242 68.043,59.7 52.993,70.942 z" id="path12936" inkscape:connector-curvature="0" style="fill:#501616;fill-opacity:1;fill-rule:nonzero;stroke:#f9f9f9;stroke-width:0.1;stroke-miterlimit:4;stroke-dasharray:none" transform="translate(-9216, -51200)"/><path d="m 9759.5111,51872.504 c 26.3787,19.459 53.1294,38.403 80.2086,56.872 41.126,28.014 84.0667,53.146 127.5917,77.202 43.1386,22.791 86.3576,45.429 129.4696,68.273 29.316,15.287 58.251,31.68 89.555,42.601 2.155,0.453 4.309,0.907 6.463,1.361 18.053,4.715 -4.173,89.817 -22.226,85.102 l 0,0 c -4.827,-1.37 -9.654,-2.739 -14.481,-4.109 -34.731,-13.203 -67.463,-30.73 -100.084,-48.426 -43.407,-23.253 -86.9672,-46.21 -130.4587,-69.302 -45.7656,-25.334 -90.9812,-51.683 -134.4589,-80.817 -27.8834,-18.716 -55.3337,-38.057 -83.1653,-56.849 -15.2539,-10.943 36.3321,-82.851 51.586,-71.908 z" id="path12938" inkscape:connector-curvature="0" style="fill:#501616;fill-opacity:1;fill-rule:nonzero;stroke:#f9f9f9;stroke-width:0.1;stroke-miterlimit:4;stroke-dasharray:none" transform="translate(-9216, -51200)"/></svg>