<?xml version="1.0" encoding="UTF-8" standalone="no"?>
<svg
   xmlns:dc="http://purl.org/dc/elements/1.1/"
   xmlns:cc="http://creativecommons.org/ns#"
   xmlns:rdf="http://www.w3.org/1999/02/22-rdf-syntax-ns#"
   xmlns:svg="http://www.w3.org/2000/svg"
   xmlns="http://www.w3.org/2000/svg"
   xmlns:sodipodi="http://sodipodi.sourceforge.net/DTD/sodipodi-0.dtd"
   xmlns:inkscape="http://www.inkscape.org/namespaces/inkscape"
   width="1024"
   height="1024"
   id="U5546"
   version="1.1"
   inkscape:version="0.48.0 r9654"
   sodipodi:docname="U+5546.svg">
  <metadata
     id="metadata18">
    <rdf:RDF>
      <cc:Work
         rdf:about="">
        <dc:format>image/svg+xml</dc:format>
        <dc:type
           rdf:resource="http://purl.org/dc/dcmitype/StillImage" />
      </cc:Work>
    </rdf:RDF>
  </metadata>
  <defs
     id="defs16" />
  <sodipodi:namedview
     pagecolor="#ffffff"
     bordercolor="#666666"
     borderopacity="1"
     objecttolerance="10"
     gridtolerance="10"
     guidetolerance="10"
     inkscape:pageopacity="0"
     inkscape:pageshadow="2"
     inkscape:window-width="640"
     inkscape:window-height="480"
     id="namedview14"
     showgrid="false"
     inkscape:zoom="0.27441406"
     inkscape:cx="512"
     inkscape:cy="512"
     inkscape:window-x="0"
     inkscape:window-y="25"
     inkscape:window-maximized="0"
     inkscape:current-layer="U5546" />
  <path
     style="fill:#a02c2c;fill-opacity:1;fill-rule:nonzero;stroke:#f9f9f9;stroke-width:0.1;stroke-miterlimit:4;stroke-dasharray:none"
     d="M 455.46875 137.625 C 429.10063 138.13461 385.69765 152.91588 388.96875 166 C 398.07025 197.235 414.8864 224.9285 433.8125 251.0625 C 434.96044 252.52854 436.1236 253.97955 437.28125 255.4375 C 385.88927 264.89208 334.55747 274.5634 283.09375 283.625 C 241.65085 290.461 200.08635 297.01125 158.21875 300.65625 C 139.55665 302.58125 148.6504 390.55 167.3125 388.625 C 210.9067 383.027 254.2852 375.9465 297.5625 368.3125 C 368.676 355.0285 439.6885 341.3575 510.9375 328.8125 C 539.10876 323.87407 567.40791 319.55354 595.8125 316.5625 C 579.55611 333.37017 563.53375 350.38548 547.5 367.40625 C 532.319 383.15525 540.00795 375.33575 524.40625 390.96875 C 511.30555 404.05875 573.0244 465.80875 586.125 452.71875 C 603.0582 435.84475 594.7502 444.25 611 427.5 C 629.6966 407.819 648.1725 387.90625 667.9375 369.28125 C 676.88321 360.44153 651.93627 329.26825 630.46875 313.625 C 644.9118 312.71811 659.39853 312.19756 673.90625 312.21875 C 687.47025 313.14575 701.66645 313.35225 714.21875 319.15625 C 731.87675 325.27025 760.68925 242.01925 743.03125 235.90625 C 720.27635 228.79025 697.0915 224.985 673.125 225.375 C 623.17149 226.24939 573.59683 231.80022 524.34375 239.875 C 527.81353 234.19627 528.96974 229.25647 526.5 226.15625 C 519.2306 217.13525 511.84475 208.235 504.53125 199.25 C 492.06195 182.522 480.45855 164.85125 474.78125 144.53125 C 473.50128 139.41109 465.78671 137.42559 455.46875 137.625 z M 356.03125 366.25 C 333.55487 366.71348 280.33684 400.46809 288.28125 414.15625 C 306.73345 444.00325 333.17045 466.82675 361.15625 487.34375 L 375.84375 496.9375 C 359.92839 500.45901 344.13583 504.54687 328.5625 509.53125 C 303.9948 518.17604 279.45211 527.6747 256.6875 540.21875 C 249.47626 523.77032 166.68108 541.90728 170.53125 559.875 C 176.95805 594.138 178.0095 629.16625 179.75 663.90625 C 181.9956 721.57025 188.44975 778.911 196.59375 836 C 200.37695 862.843 205.4491 889.39625 213.0625 915.40625 C 218.6614 933.16325 302.3489 906.757 296.75 889 C 289.2493 867.818 285.809 845.56275 282.0625 823.46875 C 273.9115 769.27875 267.7485 714.824 266.125 660 C 265.77969 651.55109 265.45089 643.08407 265.09375 634.625 C 269.48889 636.00925 273.08981 635.86307 275.28125 633.625 C 285.62926 624.16105 297.3464 616.72053 309.75 610.46875 C 304.28935 620.22468 298.97869 630.06143 293.84375 640 C 286.91945 653.879 281.0343 668.22 275.3125 682.625 C 269.67565 697.14389 325.68037 721.70114 348.53125 719.46875 C 344.5577 721.45933 342.14989 723.97101 342.09375 727.03125 C 342.24445 759.20925 348.67235 790.73475 356.28125 821.84375 C 363.85925 850.31275 373.0827 878.41775 387.4375 904.21875 C 390.1442 907.76975 392.8559 911.29175 395.5625 914.84375 C 396.99183 916.49003 399.18508 917.18094 401.875 917.0625 C 408.79321 941.81863 424.63253 970.58376 435.25 966.5 C 464.0607 954.087 493.603 943.704 523.9375 935.75 C 541.4923 933.005 561.49455 925.757 579.15625 931.875 C 589.48271 934.09083 599.85663 907.56268 603.65625 883.34375 C 621.05954 890.18045 637.85591 892.91818 641.25 885.59375 C 648.426 868.65975 645.51305 877.1385 650.21875 860.1875 C 654.57055 834.7745 654.3109 809.175 652.25 783.5 C 650.0979 755.674 647.6347 727.29875 635.875 701.59375 C 631.32508 694.42151 626.74391 688.31313 621.9375 683.125 C 625.24295 685.54616 628.50822 688.00831 631.71875 690.5625 C 646.50815 701.9865 700.3519 632.26775 685.5625 620.84375 C 672.3546 610.84675 658.69365 601.55575 644.84375 592.46875 C 626.7503 580.05397 608.60585 567.47837 592.21875 552.84375 C 609.70555 550.9553 627.21847 549.3644 644.78125 548.25 C 652.63655 548.391 695.06485 545.08125 698.78125 554.78125 C 696.46155 563.49725 701.63645 588.317 702.40625 598.375 C 704.46085 650.243 704.2605 702.1735 705.6875 754.0625 C 707.2944 806.8305 711.8647 859.42175 715.1875 912.09375 C 714.6303 927.30575 719.1267 943.32875 716.1875 958.46875 C 714.8785 977.16675 803.0036 983.322 804.3125 964.625 C 804.9912 945.072 803.4285 925.612 801.8125 906.125 C 797.9788 854.691 793.3241 803.28975 791.75 751.71875 C 790.3407 698.50475 790.9032 645.2665 789.25 592.0625 C 786.3039 549.6155 781.54555 507.0175 744.78125 479.6875 C 708.23485 459.7335 679.69955 458.8035 638.71875 461.4375 C 589.40735 465.1665 540.4542 472.068 491.4375 478.5 C 456.97064 482.97608 422.34533 487.39904 388.25 494.28125 C 407.89877 480.42925 435.94403 431.5465 423.4375 423.46875 C 419.8085 421.15875 416.1914 418.8725 412.5625 416.5625 C 394.3501 403.5085 376.3723 389.313 364.75 369.75 C 363.27883 367.215 360.19354 366.16417 356.03125 366.25 z M 558.84375 556.75 C 538.22022 573.14596 515.90902 602.43085 524.59375 610.8125 C 546.63919 630.56213 570.78632 647.75203 595.09375 664.5625 C 585.0527 660.72385 573.4884 658.9213 559.53125 658.75 C 530.28645 660.065 501.72005 666.01125 473.34375 673.03125 C 441.64315 680.74425 410.09755 689.18925 379.46875 700.53125 C 375.69778 702.05223 374.29528 707.10241 374.59375 714 C 367.75358 714.42234 361.34432 715.34212 356.03125 716.75 C 356.69375 716.12985 357.20352 715.40664 357.53125 714.5625 C 361.92955 702.9165 366.4909 691.29975 371.9375 680.09375 C 382.3597 659.66175 393.5485 639.622 406.4375 620.625 C 411.45244 612.89737 396.11426 597.36749 378 585.40625 C 418.7791 574.76554 460.78967 569.46057 502.53125 564.03125 C 521.29404 561.59139 540.06514 559.08333 558.84375 556.75 z M 559.09375 746.875 C 562.13895 761.15748 563.59759 775.68946 564.71875 790.25 C 565.13713 807.59473 567.7098 825.51186 563.8125 842.625 C 542.89704 842.61812 522.08867 845.88747 501.4375 851.375 C 488.78945 854.79189 476.28296 858.57356 463.84375 862.59375 C 464.14352 860.26848 463.73186 858.30332 462.4375 856.8125 C 462.7865 857.6485 463.11975 858.4765 463.46875 859.3125 C 451.45705 842.2585 447.7907 820.30375 441.125 800.96875 C 438.92818 792.08762 436.79785 783.15427 435.03125 774.15625 C 454.33857 767.68618 474.11781 762.68096 493.90625 757.90625 C 515.41499 753.23699 537.0029 747.50292 559.09375 746.875 z M 564.875 747.375 C 566.6183 747.76685 567.48907 748.02965 567.5625 748.09375 C 567.34355 748.08937 566.26757 747.83569 564.875 747.375 z "
     id="path11743" />
</svg>
