<?xml version="1.0" encoding="UTF-8" standalone="no"?>
<svg
   xmlns:dc="http://purl.org/dc/elements/1.1/"
   xmlns:cc="http://creativecommons.org/ns#"
   xmlns:rdf="http://www.w3.org/1999/02/22-rdf-syntax-ns#"
   xmlns:svg="http://www.w3.org/2000/svg"
   xmlns="http://www.w3.org/2000/svg"
   xmlns:sodipodi="http://sodipodi.sourceforge.net/DTD/sodipodi-0.dtd"
   xmlns:inkscape="http://www.inkscape.org/namespaces/inkscape"
   width="1024"
   height="1024"
   id="U558A"
   version="1.1"
   inkscape:version="0.48.0 r9654"
   sodipodi:docname="U+558A.svg">
  <metadata
     id="metadata19">
    <rdf:RDF>
      <cc:Work
         rdf:about="">
        <dc:format>image/svg+xml</dc:format>
        <dc:type
           rdf:resource="http://purl.org/dc/dcmitype/StillImage" />
      </cc:Work>
    </rdf:RDF>
  </metadata>
  <defs
     id="defs17" />
  <sodipodi:namedview
     pagecolor="#ffffff"
     bordercolor="#666666"
     borderopacity="1"
     objecttolerance="10"
     gridtolerance="10"
     guidetolerance="10"
     inkscape:pageopacity="0"
     inkscape:pageshadow="2"
     inkscape:window-width="640"
     inkscape:window-height="480"
     id="namedview15"
     showgrid="false"
     inkscape:zoom="0.27441406"
     inkscape:cx="512"
     inkscape:cy="512"
     inkscape:window-x="0"
     inkscape:window-y="25"
     inkscape:window-maximized="0"
     inkscape:current-layer="U558A" />
  <path
     style="fill:#550000;fill-opacity:1;fill-rule:nonzero;stroke:#f9f9f9;stroke-width:0.1;stroke-miterlimit:4;stroke-dasharray:none"
     d="M 791.5625 81.53125 C 769.3008 82.014807 716.64776 115.51356 724.53125 129.0625 C 738.21225 152.5655 752.76585 175.46875 768.03125 197.96875 C 778.28925 213.13375 849.78915 164.791 839.53125 149.625 C 825.42935 128.705 811.92935 107.374 800.21875 85 C 798.75884 82.490781 795.68504 81.441702 791.5625 81.53125 z M 625.125 145.625 C 607.92269 145.86366 593.23396 149.35328 592.71875 156.875 C 590.88152 199.74253 598.89013 241.78349 608.90625 283.21875 C 578.69533 285.47367 548.46007 287.4507 518.1875 288.71875 C 477.5551 290.49975 436.83015 292.75475 396.15625 291.09375 C 387.73724 290.82039 382.56812 308.69241 381.15625 328.34375 C 362.9066 327.34346 346.59426 329.9567 345.65625 337.8125 C 341.31055 380.4125 335.263 422.83225 328.8125 465.15625 C 328.59468 466.53425 328.37596 467.90358 328.15625 469.28125 C 328.19199 464.99253 328.23074 460.69521 328.25 456.40625 C 327.0903 421.98125 322.02525 389.4725 289.71875 370.1875 C 256.23945 356.9985 231.30285 359.4555 196.78125 367.9375 C 163.89715 376.9645 131.43985 388.1725 102.53125 406.6875 C 100.19479 408.31661 99.37561 411.38544 99.75 415.375 C 74.530271 411.66747 42.077727 414.42061 41.5 425.6875 C 41.3381 462.0905 44.9321 498.395 48.0625 534.625 C 51.2541 574.137 56.0712 613.4975 63.5 652.4375 C 67.1533 668.7615 65.1315 660.8905 69.5 676.0625 C 72.379547 685.3014 96.487089 682.6206 118.09375 675.4375 C 120.58929 689.96704 125.37962 701.22956 132.09375 700.9375 C 160.03205 698.8205 187.89575 695.95375 215.90625 694.96875 C 236.22635 694.29175 256.38665 696.39 276.34375 700 C 280.04089 700.62989 283.59357 697.61183 286.75 692.34375 C 274.68761 751.30168 263.20759 810.36884 252.53125 869.59375 C 249.36665 889.68075 244.40725 909.535 243.28125 929.875 C 243.36315 948.515 331.23825 948.141 331.15625 929.5 C 330.27415 932.957 330.1495 933.8265 331.125 925.8125 C 332.8226 911.8685 335.30875 898.02 337.34375 884.125 C 346.88375 825.217 357.76785 766.53625 369.53125 708.03125 C 374.13788 684.66655 378.75935 661.31383 383.3125 637.9375 C 386.55188 661.50338 390.82098 684.93856 394.84375 708.375 C 398.26395 728.258 401.2429 748.2115 404.0625 768.1875 C 405.42994 777.27802 427.47578 778.6296 448.90625 775.4375 C 458.70804 796.53129 473.98075 816.77501 482.84375 812.34375 C 508.68135 800.00075 537.0118 794.27575 564.9375 788.84375 C 587.34675 784.72375 610.00151 782.2799 632.59375 779.4375 C 618.64337 807.46842 604.81702 835.57983 592.53125 864.375 C 585.65475 881.535 666.52975 913.94125 673.40625 896.78125 C 687.97945 857.14325 708.145 819.752 726.125 781.625 C 738.38155 757.31664 750.83962 733.11565 763.46875 709 C 768.5561 720.54172 773.67839 732.06883 778.875 743.5625 C 799.6589 788.7225 821.3807 833.8725 854.6875 871.1875 C 873.4215 886.7735 863.26815 879.9445 885.28125 891.5625 C 902.25415 899.0075 937.3479 818.97625 920.375 811.53125 C 922.1234 814.62125 922.15125 813.86175 918.03125 811.84375 C 888.85725 783.70675 874.71785 743.32275 855.96875 708.34375 C 841.61501 677.25724 827.76105 645.95982 814.40625 614.4375 C 816.10758 611.36907 817.79079 608.2829 819.5 605.21875 C 836.8453 574.50575 853.639 543.1955 874.875 514.9375 C 886.2904 500.2605 817.1029 446.448 805.6875 461.125 C 794.02244 477.57621 783.44677 494.72978 773.375 512.1875 C 771.43644 507.04995 769.53046 501.90062 767.625 496.75 C 751.02776 451.71685 734.64791 406.54218 719.84375 360.875 C 730.98614 359.93058 742.13197 359.25168 753.28125 359.5625 C 771.84805 359.2975 770.59805 271.76625 752.03125 272.03125 C 732.95354 272.73267 713.95315 274.69605 694.9375 276.4375 C 685.82845 239.26142 677.19861 201.35265 680 162.84375 C 680.75299 151.84988 650.26684 145.27618 625.125 145.625 z M 633.0625 367.3125 C 650.12388 420.67081 669.38706 473.32332 688.84375 525.84375 C 699.11269 553.48312 709.79079 580.9553 720.84375 608.28125 C 696.96562 653.06494 673.51981 698.08176 650.5 743.3125 C 649.03288 746.29264 647.5693 749.27315 646.09375 752.25 C 646.06678 740.26666 644.10148 726.32106 640.84375 714.90625 C 642.86949 708.40212 642.24719 710.2629 645.6875 695.40625 C 650.3732 666.69025 652.33835 637.46025 644.53125 609.03125 C 634.37705 579.98625 617.34015 556.9345 586.15625 548.6875 C 558.33005 543.7505 530.75625 546.06375 503.78125 554.84375 C 478.53837 563.39935 453.91877 573.78783 431.375 587.96875 C 417.39418 587.6597 402.29966 589.36286 392 592.84375 C 398.64605 557.97112 405.07665 523.04453 411.125 488.0625 C 415.33414 514.00664 433.53227 552.19058 445.625 547.75 C 474.4486 537.395 504.6206 531.4705 534.5 525.0625 C 552.8728 521.2415 571.17855 516.9415 589.96875 516.0625 C 608.37295 514.6155 601.56035 427.8655 583.15625 429.3125 C 560.64185 431.4915 538.4875 435.6185 516.4375 440.6875 C 482.534 447.9295 448.4484 454.8085 415.4375 465.5625 C 415.23101 465.63831 415.03698 465.74695 414.84375 465.84375 C 419.58485 436.61837 424.06219 407.36133 428.3125 378.0625 C 459.58716 377.3241 490.84796 375.73666 522.09375 374.25 C 559.11946 372.5715 596.09882 369.99237 633.0625 367.3125 z M 247.5 447.6875 C 248.06746 447.69232 248.6505 447.69784 249.21875 447.71875 C 251.22705 447.79275 256.86105 448.45025 255.03125 449.28125 C 254.13045 449.68825 253.0514 449.18625 252.0625 449.15625 C 250.60358 449.89043 249.03916 449.06378 247.5 447.6875 z M 240.53125 448 C 240.78463 451.72899 241.13535 456.21157 241.25 459.40625 C 241.3753 490.71125 240.9306 522.03975 240.8125 553.34375 C 240.72857 571.78561 240.60096 590.21527 240.4375 608.65625 C 231.2296 608.20947 221.99933 608.09717 212.75 608.4375 C 189.87004 609.29432 167.06113 611.23706 144.21875 612.5625 C 139.26313 584.39752 135.9739 555.96509 133.71875 527.4375 C 132.07624 507.27635 130.2374 487.04602 129.34375 466.8125 C 138.49963 476.35284 147.4914 482.05765 152.59375 478.5 C 172.82275 465.106 196.1207 457.73075 219.375 451.59375 C 226.34806 450.16734 233.40992 448.64011 240.53125 448 z M 559.25 632.1875 C 562.37678 632.28978 565.34722 632.90325 568.03125 634.28125 C 564.10665 635.79725 560.1336 629.46675 561.375 635.96875 C 564.2008 650.93075 562.57135 666.041 559.90625 680.875 C 556.91205 692.953 558.6235 687.03025 554.8125 698.65625 C 554.38343 700.02255 554.50286 701.43119 555.0625 702.875 C 552.82174 703.27025 550.58025 703.67074 548.34375 704.09375 C 526.82197 708.33756 505.25226 712.92572 484.21875 719.1875 C 482.81757 710.68992 481.40679 702.20489 479.9375 693.71875 C 478.22122 683.79671 476.44107 673.85171 474.75 663.90625 C 491.74232 651.61355 511.24835 643.64231 531.125 637.25 C 539.1725 636.0845 549.86967 631.88066 559.25 632.1875 z "
     id="path24437" />
</svg>
