<?xml version="1.0" encoding="UTF-8" standalone="no"?>
<svg
   xmlns:dc="http://purl.org/dc/elements/1.1/"
   xmlns:cc="http://creativecommons.org/ns#"
   xmlns:rdf="http://www.w3.org/1999/02/22-rdf-syntax-ns#"
   xmlns:svg="http://www.w3.org/2000/svg"
   xmlns="http://www.w3.org/2000/svg"
   xmlns:sodipodi="http://sodipodi.sourceforge.net/DTD/sodipodi-0.dtd"
   xmlns:inkscape="http://www.inkscape.org/namespaces/inkscape"
   width="1024"
   height="1024"
   id="U56FD"
   version="1.1"
   inkscape:version="0.48.0 r9654"
   sodipodi:docname="U+56FD.svg">
  <metadata
     id="metadata15">
    <rdf:RDF>
      <cc:Work
         rdf:about="">
        <dc:format>image/svg+xml</dc:format>
        <dc:type
           rdf:resource="http://purl.org/dc/dcmitype/StillImage" />
      </cc:Work>
    </rdf:RDF>
  </metadata>
  <defs
     id="defs13" />
  <sodipodi:namedview
     pagecolor="#ffffff"
     bordercolor="#666666"
     borderopacity="1"
     objecttolerance="10"
     gridtolerance="10"
     guidetolerance="10"
     inkscape:pageopacity="0"
     inkscape:pageshadow="2"
     inkscape:window-width="640"
     inkscape:window-height="480"
     id="namedview11"
     showgrid="false"
     inkscape:zoom="0.27441406"
     inkscape:cx="512"
     inkscape:cy="512"
     inkscape:window-x="0"
     inkscape:window-y="25"
     inkscape:window-maximized="0"
     inkscape:current-layer="U56FD" />
  <path
     style="fill:#550000;fill-opacity:1;fill-rule:nonzero;stroke:#f9f9f9;stroke-width:0.1;stroke-miterlimit:4;stroke-dasharray:none"
     d="M 490.09375 258.34375 C 464.394 258.35725 438.72945 259.2315 413.125 261.625 C 372.9129 266.883 331.9703 274.1735 298.6875 299.0625 C 284.5674 311.1655 341.6299 377.728 355.75 365.625 C 376.1776 352.87 400.8793 349.9835 424.25 346.9375 C 470.5574 342.6285 517.1691 343.863 563.5625 345.875 C 599.8827 347.921 636.21495 351.0695 672.09375 357.1875 C 675.73655 358.18767 679.72003 358.73013 683.5625 359.6875 C 683.16006 362.82855 684.68094 370.46347 684.6875 370.71875 C 684.9315 381.03175 684.5855 385.20575 684.1875 396.09375 C 680.9859 447.45475 672.94305 498.35075 665.46875 549.21875 C 655.77725 613.40275 648.28615 677.88225 641.28125 742.40625 C 637.42212 773.84772 635.30547 805.55198 630.71875 836.90625 C 629.05834 834.61218 627.11391 833.27859 624.875 833.25 C 599.2742 833.119 573.6501 833.255 548.0625 834.25 C 480.5767 836.666 413.154 840.28325 345.6875 843.15625 C 301.8407 844.54125 257.4415 846.65075 213.9375 839.71875 C 195.6773 836.39875 180.0522 922.4925 198.3125 925.8125 C 248.1793 932.3725 298.62945 930.0545 348.71875 928.0625 C 416.06655 924.6875 483.4056 921.2555 550.8125 919.3125 C 575.1254 918.5565 599.4381 918.76925 623.75 919.28125 C 632.41269 919.39188 637.24116 900.04829 637.9375 879.6875 C 659.68851 894.3642 701.62519 907.26043 706.5625 895.09375 C 712.0209 879.29175 709.8355 887.17975 713.1875 871.46875 C 719.3775 831.65175 721.74375 791.38175 726.09375 751.34375 C 732.55135 688.00775 739.66385 624.69925 749.46875 561.78125 C 757.68045 507.96125 766.5976 454.1455 770.6875 399.8125 C 772.2126 368.3965 773.87665 336.12775 756.84375 308.21875 C 736.23695 284.03675 716.74995 276.1905 685.78125 271.4375 C 646.49245 265.5145 606.82615 262.25075 567.15625 260.21875 C 541.5 259.16525 515.7935 258.33025 490.09375 258.34375 z M 226.09375 271.25 C 202.88813 271.05828 178.22499 276.15212 178.40625 286.03125 C 179.98845 325.96225 182.03155 365.85925 183.84375 405.78125 C 187.25195 478.69425 189.1097 551.673 191.4375 624.625 C 193.1798 678.165 196.4147 731.6875 204.375 784.6875 C 205.9904 801.3625 212.2609 814.89475 220.125 829.34375 C 229.05678 842.39733 282.71062 808.53427 292.0625 788.6875 C 294.19764 808.1141 299.96509 825.5296 308.3125 824.96875 C 347.4538 821.54375 386.2919 815.5605 425.0625 809.3125 C 469.4344 801.5455 513.9646 794.88875 559 792.96875 C 578.7294 792.95075 569.29795 792.7495 587.28125 793.4375 C 605.68035 793.9025 607.86795 707.18475 589.46875 706.71875 C 568.04452 706.39793 577.19753 706.37638 556.625 706.8125 C 579.98276 695.18423 611.19864 666.03503 603.28125 655.84375 C 596.02075 646.55575 588.8601 637.13075 583.6875 626.46875 C 582.8296 624.78732 581.22324 623.69623 579.09375 623.09375 C 582.32107 597.11715 575.62869 555.61855 562.84375 556.46875 L 552.9375 557.28125 C 533.30231 558.54969 513.67274 559.952 494.0625 561.5625 C 494.53491 557.02324 495.0467 552.49958 495.625 547.96875 C 497.9274 532.04099 500.23647 515.85964 504.3125 500.21875 C 512.52076 499.09334 520.76864 498.20421 529.0625 497.75 C 547.4599 496.364 540.92875 409.64525 522.53125 411.03125 C 493.53575 413.61725 464.97535 419.13225 436.34375 424.28125 C 405.27005 429.49625 374.1133 434.136 342.75 437.25 C 324.3304 439.748 336.11165 526.59175 354.53125 524.09375 C 374.17494 521.34047 393.78126 518.46861 413.375 515.40625 C 412.29206 522.20666 411.3016 529.01212 410.34375 535.8125 C 408.91746 547.25304 407.79928 558.7057 406.90625 570.1875 C 384.21068 572.59185 361.5049 574.81431 338.71875 576.03125 C 320.16255 576.70925 323.35005 664.178 341.90625 663.5 C 362.42945 661.67109 382.92521 659.50151 403.40625 657.25 C 403.33903 661.62959 403.2746 666.02789 403.21875 670.40625 C 402.83225 695.59025 403.14335 683.292 402.34375 707.25 C 402.13073 714.44836 415.35567 719.19976 431.5 721.21875 C 424.87004 722.30038 418.24773 723.41875 411.625 724.5625 C 375.419 730.2125 339.0867 735.911 302.4375 737.625 C 293.85856 738.20094 290.5033 757.2225 291.21875 777.375 C 289.17161 769.42678 287.26057 760.45419 289.75 770.84375 C 281.0764 721.61075 277.93545 671.651 275.90625 621.75 C 273.27665 548.668 271.46325 475.55475 268.96875 402.46875 C 267.69725 363.12575 266.0375 323.77525 266.0625 284.40625 C 265.90256 275.68937 246.56929 271.41917 226.09375 271.25 z M 687.21875 360.78125 C 688.80523 361.34579 690.35349 362.01851 691.78125 362.90625 C 693.26856 363.8301 689.3926 362.08548 687.21875 360.78125 z M 518.53125 646.1875 C 508.87111 653.54655 502.92675 661.08527 505.59375 666.3125 C 513.55415 681.27013 523.55302 694.90806 533.875 708.28125 C 518.39229 709.52681 502.96588 711.17348 487.5625 713.09375 C 488.2634 712.08575 488.65259 710.99235 488.6875 709.8125 C 489.3522 684.3345 489.116 697.1535 489.375 671.3125 C 489.44072 663.65976 489.5414 656.0002 489.65625 648.34375 C 499.28277 647.54895 508.89213 646.81369 518.53125 646.1875 z "
     id="path24231" />
</svg>
