<?xml version="1.0" encoding="utf-8" ?>

<!DOCTYPE svg PUBLIC "-//W3C//DTD SVG 1.1//EN" 
  "http://www.w3.org/Graphics/SVG/1.1/DTD/svg11.dtd">
<svg 
    xmlns="http://www.w3.org/2000/svg"
    xmlns:xlink="http://www.w3.org/1999/xlink"
    xmlns:sodipodi="http://sodipodi.sourceforge.net/DTD/sodipodi-0.dtd"
    xmlns:inkscape="http://www.inkscape.org/namespaces/inkscape"
    width="1024" height="1024" id="U56F0">
<path d="m 10502.862,28000.546 c 6.177,37.57 11.3,75.302 16.792,112.975 7.552,52.293 15.857,104.477 25.395,156.444 7.02,39.649 17.225,78.594 29.416,116.937 5.525,11.123 6.345,25.605 13.803,35.832 8.52,16.76 -70.486,56.924 -79.006,40.164 l 0,0 c -7.621,-16.12 -12.966,-33.137 -18.343,-50.114 -12.655,-41.84 -23.384,-84.237 -30.893,-127.331 -9.567,-52.902 -18.07,-105.988 -25.998,-159.161 -5.528,-36.247 -10.545,-72.621 -18,-108.536 -3.651,-18.42 83.183,-35.631 86.834,-17.21 z" id="path9160" inkscape:connector-curvature="0" style="fill:#2b0000;fill-opacity:1;fill-rule:nonzero;stroke:#f9f9f9;stroke-width:0.1;stroke-miterlimit:4;stroke-dasharray:none" transform="translate(-10240, -27648)"/><path d="m 10497.731,27952.923 c 29.709,-11.328 61.018,-17.443 92.228,-22.936 41.416,-7.107 83.48,-8.356 125.404,-8.124 37.07,1.261 74.064,3.472 111.169,2.853 31.868,-1.235 63.681,-2.547 95.575,-1.825 24.007,0.414 47.802,2.393 70.989,8.76 10.818,3.584 21.358,7.98 31.829,12.469 13.929,5.85 25.125,15.037 34.86,26.446 13.643,19.191 16.005,41.739 16.242,64.576 -1.501,34.835 -6.996,69.362 -12.632,103.723 -9.133,50.078 -18.872,100.026 -26.816,150.311 -6.402,40.378 -9.758,81.118 -11.762,121.922 -1.12,26.787 -1.56,53.594 -2.085,80.398 -0.187,9.697 -0.01,4.882 -0.526,14.445 -1.393,18.738 -89.724,12.173 -88.331,-6.565 l 0,0 c 0.674,-5.712 0.343,-2.207 0.705,-10.54 1.121,-27.41 1.879,-54.834 3.177,-82.236 2.373,-43.891 6.205,-87.705 13.354,-131.107 8.144,-50.224 17.809,-100.166 26.493,-150.296 4.575,-29.662 8.929,-59.448 10.23,-89.467 0,-3.532 -3.169,-19.5 2.386,-10.123 4.901,4.091 3.624,2.081 -0.658,-0.11 -7.039,-3.13 -14.184,-6.032 -21.281,-9.028 -15.54,-5.291 -32.275,-4.766 -48.468,-5.912 -30.709,-0.927 -61.34,0.474 -92.034,1.452 -37.715,0.46 -75.324,-1.489 -112.993,-3.081 -36.615,-0.287 -73.376,0.669 -109.529,7.051 -24.374,4.39 -49.004,8.938 -72.135,18.047 -17.205,7.507 -52.595,-73.596 -35.391,-81.103 z" id="path9162" inkscape:connector-curvature="0" style="fill:#2b0000;fill-opacity:1;fill-rule:nonzero;stroke:#f9f9f9;stroke-width:0.1;stroke-miterlimit:4;stroke-dasharray:none" transform="translate(-10240, -27648)"/><path d="m 10559.273,28182.394 c 30.356,-11.092 61.322,-20.212 92.653,-28.075 40.54,-9.567 81.954,-14.492 123.312,-18.89 31.141,-2.945 62.254,-6.193 93.406,-9.007 14.266,-1.475 28.586,-1.298 42.896,-1.079 18.832,1.199 13.18,89.974 -5.652,88.775 l 0,0 c -9.929,-1.07 -19.949,-0.804 -29.91,-0.111 -30.577,2.346 -61.105,5.297 -91.644,8.078 -37.251,3.856 -74.566,8.169 -111.076,16.767 -28.277,7.182 -56.308,15.433 -83.321,26.557 -17.611,6.504 -48.274,-76.51 -30.664,-83.015 z" id="path9164" inkscape:connector-curvature="0" style="fill:#2b0000;fill-opacity:1;fill-rule:nonzero;stroke:#f9f9f9;stroke-width:0.1;stroke-miterlimit:4;stroke-dasharray:none" transform="translate(-10240, -27648)"/><path d="m 10785.761,28018.969 c -3.535,33.253 -4.617,66.709 -5.403,100.12 -0.796,49.309 1.926,98.574 3.134,147.854 1.021,45.608 -0.886,91.199 -2.218,136.778 0,17.832 -1.178,36.128 2.045,53.679 3.283,18.523 -84.039,34.002 -87.322,15.478 l 0,0 c -3.366,-23.89 -2.562,-48.11 -1.896,-72.16 1.739,-43.863 3.867,-87.746 2.921,-131.658 -1.236,-50.565 -4.075,-101.106 -3.464,-151.702 0.587,-35.449 1.689,-70.89 4.084,-106.27 1.672,-18.692 89.79,-10.812 88.119,7.881 z" id="path9166" inkscape:connector-curvature="0" style="fill:#2b0000;fill-opacity:1;fill-rule:nonzero;stroke:#f9f9f9;stroke-width:0.1;stroke-miterlimit:4;stroke-dasharray:none" transform="translate(-10240, -27648)"/><path d="m 10745.845,28277.882 c -17.047,20.445 -31.565,42.847 -46.083,65.114 -13.28,21.296 -26.489,42.77 -37.157,65.524 -0.412,1.208 -0.824,2.416 -1.236,3.625 0.142,-0.03 0.283,-0.06 0.425,-0.09 -5.139,18.088 -90.404,-6.139 -85.265,-24.226 l 0,0 c 3.994,-12.151 1.696,-6.059 6.957,-18.255 12.983,-25.509 27.707,-50.085 43.011,-74.261 16.249,-25.006 32.625,-49.98 50.911,-73.563 11.908,-14.517 80.345,41.616 68.437,56.134 z" id="path9168" inkscape:connector-curvature="0" style="fill:#2b0000;fill-opacity:1;fill-rule:nonzero;stroke:#f9f9f9;stroke-width:0.1;stroke-miterlimit:4;stroke-dasharray:none" transform="translate(-10240, -27648)"/><path d="m 10813.73,28247.301 c 16.446,17.469 34.193,33.645 52.032,49.666 14.961,13.245 30.203,26.178 45.029,39.574 13.731,12.802 -46.619,77.529 -60.35,64.727 l 0,0 c -13.937,-13.593 -28.982,-26.026 -43.385,-39.113 -19.362,-17.482 -38.514,-35.194 -57.134,-53.469 -13.022,-13.535 50.786,-74.921 63.808,-61.385 z" id="path9170" inkscape:connector-curvature="0" style="fill:#2b0000;fill-opacity:1;fill-rule:nonzero;stroke:#f9f9f9;stroke-width:0.1;stroke-miterlimit:4;stroke-dasharray:none" transform="translate(-10240, -27648)"/><path d="m 10486.09,28474.558 c 43.764,-4.57 87.117,-12.292 130.405,-20.039 63.256,-12.073 126.549,-23.918 190.076,-34.482 43.603,-7.748 87.614,-12.211 131.744,-15.441 13.52,-0.768 26.999,-2.15 40.412,-4.002 4.93,-0.657 1.829,-0.319 9.33,-0.711 18.875,0.1 18.416,89.073 -0.459,88.976 l 0,0 c 4.747,-0.426 5.32,-0.48 1.72,-0.15 -15.103,1.595 -30.251,2.772 -45.429,3.34 -41.348,2.231 -82.583,5.823 -123.43,12.902 -63.053,10.136 -125.835,21.786 -188.484,34.173 -44.857,8.383 -89.763,16.526 -134.921,23.151 -18.607,2.326 -29.572,-85.391 -10.964,-87.717 z" id="path9172" inkscape:connector-curvature="0" style="fill:#2b0000;fill-opacity:1;fill-rule:nonzero;stroke:#f9f9f9;stroke-width:0.1;stroke-miterlimit:4;stroke-dasharray:none" transform="translate(-10240, -27648)"/></svg>