<?xml version="1.0" encoding="utf-8" ?>

<!DOCTYPE svg PUBLIC "-//W3C//DTD SVG 1.1//EN" 
  "http://www.w3.org/Graphics/SVG/1.1/DTD/svg11.dtd">
<svg 
    xmlns="http://www.w3.org/2000/svg"
    xmlns:xlink="http://www.w3.org/1999/xlink"
    xmlns:sodipodi="http://sodipodi.sourceforge.net/DTD/sodipodi-0.dtd"
    xmlns:inkscape="http://www.inkscape.org/namespaces/inkscape"
    width="1024" height="1024" id="U56DB">
<path d="m 8431.9599,46412.071 c -7.1165,46.149 -5.9875,93.018 -4.194,139.513 2.3924,58.942 13.7375,116.788 27.9702,173.855 8.565,29.345 15.3063,59.525 27.7013,87.579 6.9696,17.284 -74.5068,50.139 -81.4765,32.855 l 0,0 c -12.3345,-32.544 -21.0824,-66.271 -29.9415,-99.896 -15.1555,-62.73 -27.2387,-126.262 -30.006,-190.91 -2.1939,-51.63 -3.2761,-103.459 2.4666,-154.925 2.5305,-18.558 90.0104,-6.629 87.4799,11.929 z" id="path11218" inkscape:connector-curvature="0" style="fill:#782121;fill-opacity:1;fill-rule:nonzero;stroke:#f9f9f9;stroke-width:0.1;stroke-miterlimit:4;stroke-dasharray:none" transform="translate(-8192, -46080)"/><path d="m 8434.2597,46331.502 c 46.9405,-13.609 95.632,-19.637 144.0003,-25.648 71.1695,-8.893 142.8541,-10.332 214.4681,-9.17 55.2687,1.69 110.561,5.012 165.323,12.839 39.4319,6.286 72.8796,25.495 90.7217,62.465 3.6782,7.622 5.8071,15.899 8.7106,23.848 14.7567,60.73 10.3733,123.789 6.7499,185.564 -4.744,65.166 -10.035,130.287 -14.1994,195.494 -3.2034,32.494 -0.4355,65.711 -8.5684,97.501 -6.0691,17.784 -89.906,-10.826 -83.8369,-28.61 l 0,0 c -0.065,1.319 -0.6633,5.191 -0.1959,3.956 4.0827,-10.787 3.9233,-43.077 4.7857,-54.875 0.5832,-7.979 1.168,-15.958 1.752,-23.937 4.8387,-64.789 10.4566,-129.518 14.896,-194.336 2.7307,-50.741 6.2054,-102.427 -3.981,-152.595 -5.7801,-20.556 -5.9391,-23.728 -29.8884,-28.405 -50.8478,-8.238 -102.3615,-11.477 -153.7976,-13.376 -67.4619,-1.324 -135.01,-0.08 -202.0102,8.796 -42.0777,5.582 -84.6459,10.857 -125.2427,23.742 -17.6605,6.297 -47.3473,-76.955 -29.6868,-83.253 z" id="path11220" inkscape:connector-curvature="0" style="fill:#782121;fill-opacity:1;fill-rule:nonzero;stroke:#f9f9f9;stroke-width:0.1;stroke-miterlimit:4;stroke-dasharray:none" transform="translate(-8192, -46080)"/><path d="m 8662.8828,46409.751 c -23.9573,40.373 -42.1686,83.831 -60.3342,127.018 -22.0858,53.131 -41.4113,107.35 -59.2163,162.049 -5.8932,17.465 -88.2255,-10.316 -82.3324,-27.781 l 0,0 c 19.6045,-56.178 39.8961,-112.136 62.4327,-167.216 19.3923,-47.016 39.0595,-94.054 63.3198,-138.819 9.4926,-16.149 85.623,28.599 76.1304,44.749 z" id="path11222" inkscape:connector-curvature="0" style="fill:#782121;fill-opacity:1;fill-rule:nonzero;stroke:#f9f9f9;stroke-width:0.1;stroke-miterlimit:4;stroke-dasharray:none" transform="translate(-8192, -46080)"/><path d="m 8892.8855,46445.081 c -7.2891,33.133 -17.2222,65.59 -25.1321,98.57 -4.671,22.707 -8.8038,47.039 0.7564,68.986 7.7467,10.47 22.6755,12.741 34.5719,15.73 23.7834,5.256 48.1949,5.748 72.4407,5.614 18.6917,0.18 17.8433,88.294 -0.8483,88.114 l 0,0 c -31.5387,-0.734 -63.2525,-1.887 -94.0976,-9.185 -41.3378,-11.357 -77.7306,-29.697 -94.9801,-71.608 -12.3116,-38.985 -12.739,-78.309 -2.5865,-118.083 7.5702,-31.252 16.9365,-62.097 22.8689,-93.721 3.3058,-18.457 90.3124,-2.873 87.0067,15.583 z" id="path11230" inkscape:connector-curvature="0" style="fill:#782121;fill-opacity:1;fill-rule:nonzero;stroke:#f9f9f9;stroke-width:0.1;stroke-miterlimit:4;stroke-dasharray:none" transform="translate(-8192, -46080)"/><path d="m 8466.9767,46869.549 c 39.4786,-7.066 78.5497,-16.21 117.6798,-24.955 75.6985,-17.503 152.6405,-28.125 229.8464,-36.096 61.8858,-6.21 124.0354,-8.684 186.2038,-9.056 23.97,0.07 47.9658,-0.05 71.867,1.954 18.6332,1.912 9.6194,89.749 -9.0137,87.837 l 0,0 c -20.8468,-2.807 -41.9928,-2.295 -62.9685,-3.045 -59.2375,-0.535 -118.4862,1.223 -177.4806,6.949 -73.6932,7.375 -147.1159,17.593 -219.15,35.212 -39.9475,9.489 -79.8486,19.178 -119.9337,28.077 -18.4293,3.617 -35.4798,-83.26 -17.0505,-86.877 z" id="path11232" inkscape:connector-curvature="0" style="fill:#782121;fill-opacity:1;fill-rule:nonzero;stroke:#f9f9f9;stroke-width:0.1;stroke-miterlimit:4;stroke-dasharray:none" transform="translate(-8192, -46080)"/></svg>