<?xml version="1.0" encoding="UTF-8" standalone="no"?>
<svg
   xmlns:dc="http://purl.org/dc/elements/1.1/"
   xmlns:cc="http://creativecommons.org/ns#"
   xmlns:rdf="http://www.w3.org/1999/02/22-rdf-syntax-ns#"
   xmlns:svg="http://www.w3.org/2000/svg"
   xmlns="http://www.w3.org/2000/svg"
   xmlns:sodipodi="http://sodipodi.sourceforge.net/DTD/sodipodi-0.dtd"
   xmlns:inkscape="http://www.inkscape.org/namespaces/inkscape"
   width="1024"
   height="1024"
   id="U5634"
   version="1.1"
   inkscape:version="0.48.0 r9654"
   sodipodi:docname="U+5634.svg">
  <metadata
     id="metadata23">
    <rdf:RDF>
      <cc:Work
         rdf:about="">
        <dc:format>image/svg+xml</dc:format>
        <dc:type
           rdf:resource="http://purl.org/dc/dcmitype/StillImage" />
      </cc:Work>
    </rdf:RDF>
  </metadata>
  <defs
     id="defs21" />
  <sodipodi:namedview
     pagecolor="#ffffff"
     bordercolor="#666666"
     borderopacity="1"
     objecttolerance="10"
     gridtolerance="10"
     guidetolerance="10"
     inkscape:pageopacity="0"
     inkscape:pageshadow="2"
     inkscape:window-width="640"
     inkscape:window-height="480"
     id="namedview19"
     showgrid="false"
     inkscape:zoom="0.27441406"
     inkscape:cx="512"
     inkscape:cy="512"
     inkscape:window-x="0"
     inkscape:window-y="25"
     inkscape:window-maximized="0"
     inkscape:current-layer="U5634" />
  <path
     style="fill:#2b1100;fill-opacity:1;fill-rule:nonzero;stroke:none"
     d="M 425.71875 188.40625 C 410.06298 188.25686 397.17065 191.106 396.3125 198.09375 C 393.7035 234.12875 394.3984 270.31625 395.125 306.40625 C 396.33398 349.03975 398.33755 391.65605 402.65625 434.09375 C 394.11767 438.59437 385.58353 443.09779 377.09375 447.6875 C 374.24901 434.56776 371.58766 421.42039 369.90625 408.09375 C 367.82595 384.39375 367.0197 360.35 371.6875 336.875 C 376.2385 318.671 290.4261 297.2335 285.875 315.4375 C 285.00553 319.90127 284.27764 324.35824 283.65625 328.84375 C 268.79461 317.76252 252.51591 311.2058 233.625 308.96875 C 209.0035 305.97775 184.1941 305.848 159.5 308.375 C 134.0721 311.093 108.7572 314.671 83.4375 318.25 C 79.021511 319.00685 76.512958 324.57334 75.5 332.53125 C 49.098072 329.68751 6.2562628 337.59283 7.46875 350.6875 C 9.69395 380.6795 14.86925 410.35075 19.15625 440.09375 C 21.92725 472.53875 28.70825 504.3455 35.15625 536.1875 C 38.50145 556.6375 43.60445 576.0955 53.71875 594.1875 C 56.345352 598.11246 62.954884 597.91815 71.21875 595.21875 C 76.245289 602.89358 81.552501 607.4825 86.1875 605.9375 C 112.4218 595.9295 139.92345 590.25325 167.53125 585.65625 C 186.64005 584.78725 209.95975 576.405 228.46875 584.875 C 230.40547 585.41813 232.39453 584.92169 234.40625 583.59375 C 250.66298 589.64546 265.72395 591.72964 268.96875 584.84375 C 273.18675 574.00475 276.33185 563.264 277.40625 551.625 C 281.12795 527.952 285.598 504.39475 291.75 481.21875 C 292.2705 479.24194 292.81306 477.25866 293.34375 475.28125 C 294.31772 479.94141 295.2867 484.61549 296.21875 489.28125 C 296.61276 491.19617 297.93126 492.67921 299.9375 493.84375 C 293.27218 511.06096 335.81184 574.44845 350.4375 564.96875 C 380.3815 544.45275 412.32795 527.10175 444.34375 510.09375 C 454.80852 504.46415 465.41611 499.14887 476.15625 494.125 C 467.84378 513.05702 461.51452 532.82777 455.96875 552.78125 C 450.21335 574.99325 446.481 597.61925 444 620.40625 C 443.26451 627.95253 457.23819 633.80797 474.25 636.90625 C 453.58685 645.8845 433.49956 656.13795 415.3125 669.34375 C 393.79329 665.35928 371.63421 665.93844 369.90625 675.0625 C 364.08515 711.4475 360.3133 748.12525 356.6875 784.78125 C 352.6931 824.86225 351.092 865.109 347.875 905.25 C 345.6535 930.603 342.69235 955.912 342.15625 981.375 C 342.32835 989.813 341.9842 998.22025 342.1875 1006.6562 C 343.1474 1025.4913 431.92855 1020.9922 430.96875 1002.1562 C 430.5143 997.73156 430.62204 993.26461 430.59375 988.8125 C 452.6184 984.94413 475.06434 983.49632 497.34375 981.78125 C 498.78744 1001.0871 501.2965 1020.3158 505.65625 1039.1875 C 506.26505 1041.4245 506.85995 1043.6693 507.46875 1045.9062 C 512.66555 1063.9602 597.79055 1039.4592 592.59375 1021.4062 C 592.23055 1020.2663 591.8631 1019.14 591.5 1018 C 587.81229 1004.7966 586.00191 991.13454 584.71875 977.46875 C 594.93315 977.24577 605.12857 977.10161 615.34375 976.96875 C 636.05408 977.51032 656.92363 975.41084 677.625 976.53125 C 673.0552 975.63636 666.65269 971.4816 661.46875 968.40625 C 669.32069 970.71893 684.87287 960.06362 698.34375 946.5625 C 697.97323 955.7495 697.61693 964.93762 697.28125 974.125 C 694.68095 1000.928 698.4696 1028.127 695.6875 1054.875 C 697.50306 1042.4606 697.66009 1046.0864 709.03125 1033.375 C 701.23386 1050.0266 742.23994 1115.774 757.3125 1106.6875 C 774.5447 1088.9605 781.4164 1084.6825 783.75 1060.6875 C 785.0613 1032.8495 782.65885 1004.9478 784.28125 977.09375 C 785.62945 935.08375 787.17225 893.06475 791.34375 851.21875 C 795.27475 810.45975 799.70885 769.64825 799.90625 728.65625 C 799.36045 700.98825 798.6002 672.69575 786.875 647.09375 C 766.65801 617.60234 749.50703 610.05422 716.71875 606.09375 C 727.27953 585.68446 736.28254 564.61101 731.84375 541.0625 C 726.46524 522.07198 716.39153 507.20651 700.53125 497.9375 C 706.13936 498.34677 711.82253 498.55818 717.53125 498.65625 C 748.64595 498.09125 779.62095 494.99075 810.53125 491.59375 C 833.14595 488.77575 855.78665 486.09 878.46875 483.875 C 889.86605 483.668 900.07575 480.3365 910.53125 476.1875 C 926.72609 467.7438 888.70951 393.57507 871.09375 396.78125 C 883.08347 392.67555 874.01016 396.16272 869.03125 396.125 C 846.29265 398.771 823.587 401.66725 800.875 404.53125 C 773.6119 407.58125 746.29175 410.36325 718.84375 410.90625 C 714.84125 410.86025 697.69675 407.43675 697.34375 412.59375 C 695.32584 411.30114 693.80189 409.49041 692.625 407.375 C 698.00421 403.84822 703.17603 400.00176 708 395.65625 C 728.1 377.35225 748.10165 358.939 768.53125 341 C 789.62245 321.914 810.25935 302.3855 830.65625 282.5625 C 844.19935 269.5475 782.8556 205.70375 769.3125 218.71875 C 750.2789 238.74275 730.26135 257.74775 709.84375 276.34375 C 702.4779 282.83855 695.12252 289.35237 687.78125 295.875 C 687.84604 293.15444 687.90054 290.43881 687.96875 287.71875 C 689.27095 264.77875 691.6477 241.91625 695.6875 219.28125 C 697.6027 200.60725 609.57145 191.577 607.65625 210.25 C 604.10325 234.326 601.74515 258.5195 600.40625 282.8125 C 599.65255 314.2695 599.254 345.75675 599.9375 377.21875 C 599.95901 379.87704 600.02646 382.50494 600.15625 385.125 C 595.65652 372.14077 589.6109 362.75576 583.3125 363.9375 C 563.452 368.0365 544.0199 373.85225 524.875 380.53125 C 511.9864 385.18518 499.20126 390.03733 486.5 395.15625 C 485.85471 387.86653 485.27414 380.58284 484.78125 373.28125 C 500.31181 370.85282 515.91092 368.86219 531.53125 367.125 C 538.40495 366.213 547.88815 365.74375 553.84375 366.46875 C 572.52785 368.50775 582.15285 280.44425 563.46875 278.40625 C 549.42075 277.44525 535.4773 278.00625 521.5 279.90625 C 508.2138 281.48142 494.93659 283.21428 481.6875 285.0625 C 481.42646 259.63473 481.55292 234.16824 484.15625 208.875 C 485.58656 197.22875 451.8117 188.65523 425.71875 188.40625 z M 677.625 976.53125 C 678.47068 976.69686 679.26902 976.77263 679.96875 976.6875 C 679.18837 976.63578 678.40583 976.57351 677.625 976.53125 z M 195.40625 394.4375 C 203.80675 394.51932 212.19149 395.08957 220.53125 396.28125 C 220.52329 396.54064 220.50799 396.68847 220.5 396.96875 C 218.7126 418.11775 212.34695 438.6045 207.03125 459.0625 C 203.94939 470.85721 201.18857 482.70781 198.65625 494.625 C 183.48643 494.99868 168.27589 496.769 153.03125 499.53125 C 141.45602 501.49567 129.91859 503.62632 118.4375 506.03125 C 112.90296 480.16568 107.67513 454.24695 105.5 427.8125 C 104.42386 420.15866 103.28014 412.50086 102.15625 404.84375 C 124.2153 400.92055 146.43796 397.92045 168.71875 395.59375 C 177.59785 394.79725 186.5123 394.35088 195.40625 394.4375 z M 230.96875 399.0625 C 231.71455 399.43204 232.31093 399.76596 232.46875 399.875 C 232.33602 399.82073 231.77805 399.53588 230.96875 399.0625 z M 607.6875 427.34375 C 612.06788 440.76752 618.40026 453.55768 626.875 465.71875 C 634.13891 474.34978 642.34084 480.7438 651.21875 485.46875 C 634.17721 483.97822 617.0037 484.55902 599.8125 487.1875 C 583.90969 489.45737 568.07579 492.12745 552.34375 495.34375 C 543.56956 487.95032 531.39075 480.56786 519.84375 475.4375 C 531.13158 471.01999 542.49747 466.85844 553.96875 462.90625 C 568.98785 458.28625 584.0379 453.19475 599.625 450.84375 C 605.55533 449.73139 607.86282 439.94219 607.6875 427.34375 z M 633.625 572.34375 C 633.98973 572.34049 634.3542 572.34381 634.71875 572.34375 C 628.34173 583.59814 621.96566 594.85372 615.5625 606.09375 C 614.37465 606.17543 613.18754 606.22598 612 606.3125 C 585.4472 608.52585 558.84764 611.48908 532.90625 617.34375 C 534.01426 607.84632 535.49554 598.39582 537.4375 589.03125 C 538.4595 589.23668 539.45731 589.21201 540.4375 588.90625 C 563.7517 581.62525 587.8438 577.23325 612 573.90625 C 619.14989 573.09031 626.40271 572.40829 633.625 572.34375 z M 657.15625 575.03125 C 658.45611 575.378 659.74439 575.72768 661.03125 576.15625 C 659.72223 576.04526 658.41955 575.66154 657.15625 575.03125 z M 667.90625 691.5625 C 680.26023 691.61851 692.61176 692.08791 704.9375 693.09375 C 706.49637 693.21762 707.84801 693.40318 709.125 693.59375 C 709.66777 699.92599 712.2111 728.337 712.28125 730.75 C 712.35725 768.289 708.4289 805.668 704.9375 843 C 703.33632 859.26216 702.07859 875.57337 701.0625 891.875 C 695.72071 889.61951 690.03053 888.28125 682.6875 888.28125 C 659.712 887.98425 636.75555 889.4995 613.78125 889.6875 C 603.48745 889.92526 593.19982 890.15172 582.90625 890.4375 C 583.49958 870.1498 584.63308 849.87608 586.1875 829.625 C 603.54308 828.77173 620.93004 828.98556 638.3125 829.375 C 638.91505 828.35612 661.96747 830.45649 663.09375 830.375 C 662.97868 830.33838 661.99116 830.18996 661 830.0625 C 679.02697 830.69649 698.77657 747.89477 680.84375 743.53125 C 667.16735 741.06525 653.3763 741.0935 639.5 741.3125 C 624.22707 741.24246 608.94316 741.30752 593.6875 741.90625 C 594.878 730.9992 596.28837 720.1218 597.96875 709.28125 C 618.61371 722.467 645.3597 732.26652 650.53125 723.0625 C 656.34284 712.57494 662.11705 702.06206 667.90625 691.5625 z M 714.5625 694.75 C 720.72081 696.56464 719.78795 698.47533 714.5625 694.75 z M 508.46875 717.09375 C 507.30881 728.64274 506.29712 740.20846 505.375 751.78125 C 485.84309 754.71625 466.29685 757.61757 446.65625 759.65625 C 447.12457 755.49784 447.61938 751.3413 448.125 747.1875 C 453.08373 749.10467 457.18082 749.26078 459.625 746.84375 C 473.71623 733.61975 490.84202 724.67264 508.46875 717.09375 z M 498.875 840.78125 C 497.75242 858.65874 496.88963 876.57079 496.375 894.46875 C 495.44785 894.53619 494.52079 894.58675 493.59375 894.65625 C 474.33343 896.05436 454.99273 897.34152 435.78125 899.46875 C 436.98727 881.00732 437.97706 862.52743 439.125 844.0625 C 441.21532 846.97493 443.60248 848.60536 446.25 848.4375 C 463.84224 846.198 481.3577 843.49924 498.875 840.78125 z "
     id="path16005" />
</svg>
