<?xml version="1.0" encoding="UTF-8" standalone="no"?>
<svg
   xmlns:dc="http://purl.org/dc/elements/1.1/"
   xmlns:cc="http://creativecommons.org/ns#"
   xmlns:rdf="http://www.w3.org/1999/02/22-rdf-syntax-ns#"
   xmlns:svg="http://www.w3.org/2000/svg"
   xmlns="http://www.w3.org/2000/svg"
   xmlns:sodipodi="http://sodipodi.sourceforge.net/DTD/sodipodi-0.dtd"
   xmlns:inkscape="http://www.inkscape.org/namespaces/inkscape"
   width="1024"
   height="1024"
   id="U5728"
   version="1.1"
   inkscape:version="0.48.0 r9654"
   sodipodi:docname="U+5728.svg">
  <metadata
     id="metadata13">
    <rdf:RDF>
      <cc:Work
         rdf:about="">
        <dc:format>image/svg+xml</dc:format>
        <dc:type
           rdf:resource="http://purl.org/dc/dcmitype/StillImage" />
      </cc:Work>
    </rdf:RDF>
  </metadata>
  <defs
     id="defs11" />
  <sodipodi:namedview
     pagecolor="#ffffff"
     bordercolor="#666666"
     borderopacity="1"
     objecttolerance="10"
     gridtolerance="10"
     guidetolerance="10"
     inkscape:pageopacity="0"
     inkscape:pageshadow="2"
     inkscape:window-width="640"
     inkscape:window-height="480"
     id="namedview9"
     showgrid="false"
     inkscape:zoom="0.27441406"
     inkscape:cx="512"
     inkscape:cy="512"
     inkscape:window-x="0"
     inkscape:window-y="25"
     inkscape:window-maximized="0"
     inkscape:current-layer="U5728" />
  <path
     style="fill:#2b1100;fill-opacity:1;fill-rule:nonzero;stroke:none"
     d="M 471.53125 160.8125 C 468.54376 160.88616 466.26887 161.79 464.9375 163.71875 C 439.4745 204.96875 418.85585 248.9475 397.84375 292.5625 C 392.8818 302.71682 387.98234 312.90964 383.15625 323.125 C 368.60112 324.14435 354.02802 325.15995 339.46875 326.125 C 291.96515 329.677 244.5463 334.16825 197 337.03125 C 178.2713 338.02425 182.92755 426.3055 201.65625 425.3125 C 248.79083 420.47623 295.94449 415.74471 343.15625 411.71875 C 327.9682 446.87292 313.42371 482.31186 299.34375 517.9375 C 278.76055 571.4095 259.17405 625.277 241.03125 679.625 C 237.44385 690.659 234.14035 701.76525 230.90625 712.90625 C 226.05995 731.00425 311.37245 753.848 316.21875 735.75 C 316.97453 732.61882 317.76502 729.49547 318.5625 726.375 C 319.58403 763.35661 321.72755 800.27706 324.8125 837.15625 C 325.8904 854.13125 328.9938 870.75825 332.8125 887.28125 C 335.57818 898.13638 367.4063 894.65371 391.40625 886.21875 C 389.59411 911.96262 395.05224 945.0102 406.53125 944.65625 C 461.67115 938.78125 516.3295 929.317 571.3125 922.125 C 636.7779 913.671 702.69205 910.17125 768.65625 909.90625 C 808.58755 910.47125 848.61915 911.85 888.09375 918.25 C 894.59595 919.534 901.1545 920.72225 907.1875 923.53125 C 924.8455 929.81325 954.43925 846.56325 936.78125 840.28125 C 925.03235 836.44725 913.23045 833.10275 900.90625 831.59375 C 856.85865 825.58775 812.40055 823.88625 767.96875 823.90625 C 734.05026 824.31066 700.14945 825.49841 666.3125 827.59375 C 667.13851 809.29912 668.00037 791.00871 668.9375 772.71875 C 670.23182 748.16901 671.59816 723.62884 673.125 699.09375 C 689.77113 697.21453 706.44095 695.43096 723.09375 693.65625 C 767.51375 688.87625 812.0704 685.67625 856.75 685.28125 C 860.8041 685.39525 864.8833 685.511 868.9375 685.625 C 887.5387 685.884 888.75745 598.1965 870.15625 597.9375 C 865.14435 597.9275 860.1369 597.91625 855.125 597.90625 C 807.914 599.22725 760.82 602.94075 713.875 608.09375 C 702.33874 609.35061 690.78567 610.59205 679.25 611.875 C 680.15294 600.41731 681.09827 588.9825 682.09375 577.53125 C 685.08165 541.57625 686.8173 505.112 695 469.875 C 700.1594 451.817 615.0345 427.47325 609.875 445.53125 C 600.9402 486.67225 599.15955 528.996 596.15625 570.875 C 594.85651 588.0594 593.6331 605.24621 592.4375 622.4375 C 573.20436 625.06475 554.01998 627.94474 534.875 631.1875 C 496.0998 637.8785 457.60505 645.953 418.90625 653 C 400.31725 655.549 412.31725 743.174 430.90625 740.625 C 470.48365 732.084 509.98795 723.40275 549.84375 716.21875 C 562.09873 714.05525 574.3857 712.06599 586.6875 710.21875 C 585.49913 729.46014 584.34282 748.7232 583.21875 767.96875 C 581.93817 790.36816 580.60919 812.76113 579.25 835.15625 C 572.98555 835.86565 566.72678 836.59029 560.46875 837.375 C 512.13581 843.44248 463.93778 851.28918 415.40625 855.5 C 413.42096 846.88387 412.11534 838.14416 411.3125 829.28125 C 406.0613 776.31525 403.4194 723.14925 403.9375 669.90625 C 403.7955 627.61225 402.7006 585.31525 403.5 543.03125 C 403.6845 537.54265 396.19655 533.41817 385.5625 530.78125 C 402.46166 488.23333 420.21994 446.04429 439.21875 404.40625 C 485.44608 400.86026 531.68263 397.25419 577.90625 393.65625 C 635.28405 388.78725 692.81885 386.07175 750.34375 389.34375 C 758.54785 392.02775 782.4732 389.5625 789.375 396.3125 C 789.9255 396.8515 787.8287 396.17375 787.0625 396.09375 C 803.5764 405.01675 845.6389 327.14175 829.125 318.21875 C 805.4484 307.28775 780.3713 303.335 754.3125 302.5 C 693.18 300.298 632.12945 303.434 571.21875 308.875 C 541.43693 311.25531 511.63282 313.59633 481.84375 315.875 C 499.03228 281.12732 516.311 246.28728 537.65625 213.90625 C 546.97588 200.405 492.44365 160.29688 471.53125 160.8125 z "
     id="path13797" />
</svg>
