<?xml version="1.0" encoding="UTF-8" standalone="no"?>
<svg
   xmlns:dc="http://purl.org/dc/elements/1.1/"
   xmlns:cc="http://creativecommons.org/ns#"
   xmlns:rdf="http://www.w3.org/1999/02/22-rdf-syntax-ns#"
   xmlns:svg="http://www.w3.org/2000/svg"
   xmlns="http://www.w3.org/2000/svg"
   xmlns:sodipodi="http://sodipodi.sourceforge.net/DTD/sodipodi-0.dtd"
   xmlns:inkscape="http://www.inkscape.org/namespaces/inkscape"
   width="1024"
   height="1024"
   id="U5757"
   version="1.1"
   inkscape:version="0.48.0 r9654"
   sodipodi:docname="U+5757.svg">
  <metadata
     id="metadata14">
    <rdf:RDF>
      <cc:Work
         rdf:about="">
        <dc:format>image/svg+xml</dc:format>
        <dc:type
           rdf:resource="http://purl.org/dc/dcmitype/StillImage" />
      </cc:Work>
    </rdf:RDF>
  </metadata>
  <defs
     id="defs12" />
  <sodipodi:namedview
     pagecolor="#ffffff"
     bordercolor="#666666"
     borderopacity="1"
     objecttolerance="10"
     gridtolerance="10"
     guidetolerance="10"
     inkscape:pageopacity="0"
     inkscape:pageshadow="2"
     inkscape:window-width="640"
     inkscape:window-height="480"
     id="namedview10"
     showgrid="false"
     inkscape:zoom="0.27441406"
     inkscape:cx="512"
     inkscape:cy="512"
     inkscape:window-x="0"
     inkscape:window-y="25"
     inkscape:window-maximized="0"
     inkscape:current-layer="U5757" />
  <path
     style="fill:#2b0000;fill-opacity:1;fill-rule:nonzero;stroke:#f9f9f9;stroke-width:0.1;stroke-miterlimit:4;stroke-dasharray:none"
     d="M 662.59375 237.3125 C 653.97942 237.10567 647.66575 238.8625 646.28125 243.34375 C 637.53755 274.15375 629.87625 305.23675 622.28125 336.34375 C 617.81734 355.1734 613.28949 373.97492 608.625 392.75 C 599.44072 391.7227 590.26433 390.72454 581.0625 389.84375 C 552.7776 388.37575 524.52365 388.845 496.28125 391.125 C 477.59175 392.96 486.2481 481.05375 504.9375 479.21875 C 528.6865 476.42775 552.55685 476.0015 576.40625 477.3125 C 579.59723 477.64528 582.77964 477.96492 585.96875 478.3125 C 572.66715 524.25792 556.3949 569.24688 539.09375 613.8125 C 522.32947 615.06308 505.59526 616.617 488.90625 618.75 C 456.63985 622.715 424.376 626.91425 392 629.90625 C 382.95316 631.02773 380.89879 652.31804 383.28125 673.65625 C 369.81985 676.02891 356.13728 677.29285 342.875 680.75 C 323.6965 685.29806 304.68576 690.44192 285.875 696.28125 C 285.60419 681.61362 285.05053 666.9488 284.59375 652.28125 C 283.75999 621.05578 283.34957 589.81727 284.25 558.59375 C 294.49158 558.32321 304.73154 557.95953 314.96875 557.40625 C 340.76875 555.98825 366.43825 553.21925 391.96875 549.28125 C 392.46675 549.15225 419.0963 544.647 414.0625 545.75 C 432.8603 544.136 425.26655 455.511 406.46875 457.125 C 396.88865 458.358 387.5073 460.6295 378 462.3125 C 355.5081 466.1195 332.80445 468.50375 310.03125 469.84375 C 303.29193 470.24118 296.55475 470.53706 289.8125 470.78125 C 292.34358 441.61354 295.48889 412.51377 299.46875 383.5 C 303.58895 353.369 307.5508 323.13225 314.0625 293.40625 C 317.8398 275.01325 231.1522 257.20075 227.375 275.59375 C 221.5447 307.59575 217.37355 339.89525 213.28125 372.15625 C 208.98085 405.66859 205.56726 439.26935 202.8125 472.9375 C 179.92534 473.90302 157.04491 475.10793 134.15625 476.0625 C 115.42825 477.2815 121.17825 565.56175 139.90625 564.34375 C 159.0791 562.78149 178.28426 561.64696 197.5 560.75 C 196.59317 591.90712 196.76727 623.0837 197.34375 654.25 C 197.72976 679.67048 199.09766 705.12645 197.6875 730.53125 C 169.12481 743.86315 141.2896 758.61496 115.25 776.5625 C 99.9987 787.4565 151.34245 859.36275 166.59375 848.46875 C 194.84845 827.28575 226.8007 812.16375 259 798.09375 C 292.3661 784.13475 327.03875 773.8405 362.34375 766.1875 C 376.07335 763.2815 390.0827 762.1435 403.9375 760.0625 C 414.0719 757.8315 407.92615 759.5565 421.90625 753.6875 C 428.97325 749.60083 424.65756 732.8739 416.15625 715.96875 C 444.00391 712.30406 471.85848 708.6618 499.71875 705.09375 C 500.33319 705.01326 500.94791 704.95381 501.5625 704.875 C 491.70764 727.62782 481.64194 750.28146 471.5 772.90625 C 458.3363 802.91825 445.26085 832.9405 431.78125 862.8125 C 424.61905 874.5875 422.2157 889.4335 414.625 900.9375 C 406.2321 917.7825 485.63835 957.345 494.03125 940.5 C 500.51995 926.694 505.74815 912.3115 512.09375 898.4375 C 525.18195 868.3985 537.93485 838.214 550.90625 808.125 C 567.07448 771.31639 583.12099 734.47174 598.46875 697.3125 C 607.2828 696.88589 616.09557 696.48886 624.90625 696.0625 C 664.85705 694.3785 704.6827 690.82225 744.5625 688.03125 C 772.5788 685.95025 800.64345 685.1735 828.71875 684.4375 C 847.45545 684.1195 866.1984 682.60225 884.9375 683.40625 C 885.97925 682.2775 897.00693 685.36594 899.34375 686.0625 C 899.08392 685.99046 898.8023 685.92675 898.09375 685.71875 C 898.59949 685.94849 899.11837 686.07644 899.65625 686.15625 C 899.66469 686.15848 899.7114 686.18559 899.71875 686.1875 C 917.44966 688.61314 951.47638 612.36724 934.84375 604.8125 C 919.83445 598.7755 903.98105 595.66925 887.78125 595.15625 C 867.20675 594.62925 846.6833 595.87175 826.125 596.59375 C 817.95638 596.86297 809.79236 597.16393 801.625 597.46875 C 803.34379 577.35271 805.04191 557.23874 805.875 537.0625 C 806.4984 514.3585 806.76625 491.3755 801.15625 469.1875 C 792.41715 442.7335 776.68265 422.7825 749.78125 413.0625 C 732.14247 407.3095 714.06235 403.99187 695.75 401.875 C 699.50503 387.02182 703.21637 372.16148 706.875 357.28125 C 714.262 327.85125 721.42375 298.3195 730.78125 269.4375 C 734.93475 255.993 688.43674 237.93298 662.59375 237.3125 z M 672.9375 487.9375 C 687.5802 489.3767 702.52485 490.18683 716.46875 494.84375 C 718.54502 508.0306 718.21151 521.42091 717.875 534.71875 C 717.0419 555.33975 715.139 575.8865 713.3125 596.4375 C 713.12186 598.61558 712.94054 600.79035 712.75 602.96875 C 686.25738 605.10005 659.76036 607.25778 633.21875 608.65625 C 646.30414 573.39849 658.51774 537.81737 669.03125 501.6875 C 670.34771 497.103 671.64811 492.52897 672.9375 487.9375 z M 717.9375 495.375 C 718.9121 495.72187 719.91123 496.04923 720.875 496.4375 C 722.1079 496.7065 724.1823 499.792 720.625 497.375 C 719.70712 496.75143 718.84564 496.01416 717.9375 495.375 z M 383.3125 674.1875 C 383.39916 674.94026 383.49613 675.68592 383.59375 676.4375 C 381.92932 675.85005 380.39946 675.67423 379 676 C 381.03961 675.18653 382.37598 674.61418 383.3125 674.1875 z M 619.21875 746.84375 C 601.01517 746.12248 557.80956 810.86312 572.3125 820.84375 C 596.5935 836.28075 623.24715 847.395 649.03125 860 C 672.51065 871.524 695.1607 884.6 715.375 901.25 C 722.6001 908.384 731.84075 915.246 736.84375 923.875 C 736.58285 923.618 736.3234 923.382 736.0625 923.125 C 743.9833 940.178 824.38955 902.83425 816.46875 885.78125 C 814.90635 882.72325 813.34375 879.65275 811.78125 876.59375 C 800.41605 859.75175 785.9683 845.6105 770.3125 832.6875 C 744.7011 812.5375 716.9003 795.68775 687.5625 781.46875 C 665.6943 770.69775 642.9751 761.22325 622.5 747.90625 C 621.53314 747.24087 620.43232 746.89183 619.21875 746.84375 z "
     id="path9100" />
</svg>
