<?xml version="1.0" encoding="utf-8" ?>

<!DOCTYPE svg PUBLIC "-//W3C//DTD SVG 1.1//EN" 
  "http://www.w3.org/Graphics/SVG/1.1/DTD/svg11.dtd">
<svg 
    xmlns="http://www.w3.org/2000/svg"
    xmlns:xlink="http://www.w3.org/1999/xlink"
    xmlns:sodipodi="http://sodipodi.sourceforge.net/DTD/sodipodi-0.dtd"
    xmlns:inkscape="http://www.inkscape.org/namespaces/inkscape"
    width="1024" height="1024" id="U5750">
<path d="m 7521.6482,67846.47 c -23.5134,26.131 -41.854,56.318 -59.5378,86.541 -20.4501,35.364 -36.3108,73.022 -51.0735,111.025 -7.2239,19.451 -14.2219,39.008 -20.094,58.915 -5.5827,17.917 -90.0432,-8.4 -84.4605,-26.317 l 0,0 c 7.0926,-21.794 15.1981,-43.243 23.4407,-64.625 16.8064,-41.93 34.6835,-83.514 57.3239,-122.697 20.672,-35.492 42.3423,-70.58 68.8419,-102.097 12.57,-13.907 78.1292,45.348 65.5593,59.255 z" id="path16193" inkscape:connector-curvature="0" style="fill:#2b1100;fill-opacity:1;fill-rule:nonzero;stroke:none" transform="translate(-7168, -67584)"/><path d="m 7469.9271,67930.702 c 23.7324,18.38 48.7117,35.083 73.6075,51.829 22.9046,15.338 46.2343,30.042 70.4639,43.2 2.3555,1.229 4.711,2.458 7.0666,3.687 16.4809,8.862 -25.2954,86.554 -41.7763,77.692 l 0,0 c -2.7137,-1.496 -5.4275,-2.993 -8.1412,-4.49 -26.0663,-14.84 -51.3752,-30.94 -76.2765,-47.658 -26.2196,-17.596 -52.4111,-35.242 -78.1012,-53.608 -14.9876,-11.276 38.1697,-81.928 53.1572,-70.652 z" id="path16195" inkscape:connector-curvature="0" style="fill:#2b1100;fill-opacity:1;fill-rule:nonzero;stroke:none" transform="translate(-7168, -67584)"/><path d="m 7856.6095,67847.511 c -16.7703,33.447 -33.7637,66.78 -50.7851,100.1 -20.207,38.846 -39.0225,78.38 -56.6053,118.476 -5.4394,12.685 -10.6779,25.44 -16.6836,37.869 -8.4515,16.748 -87.4047,-23.093 -78.9531,-39.841 l 0,0 c 5.9626,-10.987 10.5751,-22.628 15.9426,-33.908 18.9003,-40.95 38.5536,-81.543 59.1071,-121.691 16.4616,-32.788 33.0316,-65.545 48.0531,-99.027 8.0657,-16.954 87.99,21.068 79.9243,38.022 z" id="path16201" inkscape:connector-curvature="0" style="fill:#2b1100;fill-opacity:1;fill-rule:nonzero;stroke:none" transform="translate(-7168, -67584)"/><path d="m 7807.0003,67948.077 c 25.3828,14.686 50.1613,30.302 74.4092,46.787 23.9327,16.319 46.4562,34.547 69.4181,52.169 6.2721,4.628 12.4205,9.402 18.4614,14.325 14.3589,12.108 -42.7202,79.796 -57.079,67.688 l 0,0 c -4.9747,-4.459 -10.2547,-8.542 -15.5202,-12.652 -21.1803,-16.795 -42.1003,-33.968 -64.42,-49.259 -22.8038,-15.507 -46.1444,-30.199 -70.577,-43.034 -16.1272,-9.611 29.1803,-85.635 45.3075,-76.024 z" id="path16203" inkscape:connector-curvature="0" style="fill:#2b1100;fill-opacity:1;fill-rule:nonzero;stroke:none" transform="translate(-7168, -67584)"/><path d="m 7315.0407,68118.237 c 39.0427,-3.001 78.1867,-4.19 117.3193,-5.281 69.6944,-1.977 139.3893,-3.795 209.1123,-4.207 63.1977,-0.416 126.3589,1.911 189.5333,3.146 31.3728,0.127 63.0416,1.008 94.1238,-3.994 18.4785,-2.591 30.6915,84.518 12.213,87.109 l 0,0 c -35.9715,4.564 -72.2674,4.324 -108.4647,3.274 -62.2966,-1.845 -124.5842,-4.571 -186.9244,-4.22 -68.9273,0.37 -137.8218,2.336 -206.6955,5.056 -37.3182,1.476 -74.7112,2.832 -111.8215,7.271 -18.7002,1.781 -27.0958,-86.373 -8.3956,-88.154 z" id="path16217" inkscape:connector-curvature="0" style="fill:#2b1100;fill-opacity:1;fill-rule:nonzero;stroke:none" transform="translate(-7168, -67584)"/><path d="m 7685.4245,67799.731 c -5.5446,48.115 -8.5049,96.498 -12.1348,144.787 -6.0819,79.841 -12.9572,159.617 -19.0675,239.456 -4.1808,59.331 -8.5621,118.736 -7.4589,178.246 1.4127,18.662 1.2592,38.911 10.0597,55.998 1.6917,2.861 0.8522,1.471 2.515,4.171 9.1225,16.454 -68.4419,59.458 -77.5645,43.004 l 0,0 c -4.0112,-7.558 -1.8767,-3.367 -6.3094,-12.62 -11.3938,-28.634 -15.4487,-58.999 -15.4654,-89.768 -0.041,-62.015 4.7011,-123.868 9.4377,-185.672 6.3746,-79.572 13.3387,-159.099 18.5908,-238.756 3.1791,-49.558 5.8852,-99.148 9.5949,-148.67 2.084,-18.626 89.8864,-8.802 87.8024,9.824 z" id="path16219" inkscape:connector-curvature="0" style="fill:#2b1100;fill-opacity:1;fill-rule:nonzero;stroke:none" transform="translate(-7168, -67584)"/><path d="m 7305.8388,68377.11 c 54.881,-13.001 111.5795,-14.065 167.6826,-15.088 78.4269,0.09 156.815,2.465 235.2445,2.548 62.0522,-0.303 124.0866,-1.745 186.0542,-4.992 33.8131,-1.884 67.5118,-5.249 100.9814,-10.386 16.3844,-3.364 32.2742,-5.756 48.9656,-4.433 18.5813,3.148 3.7408,90.742 -14.8405,87.593 l 0,0 c 22.71,0.286 -20.7143,1.532 -21.6805,3.833 -36.2774,4.851 -72.7446,8.014 -109.3111,9.685 -63.4307,2.735 -126.9086,3.827 -190.3984,3.92 -77.7203,-0.333 -155.4069,-2.866 -233.1276,-2.52 -48.6222,1.279 -98.1174,2.044 -145.3783,14.821 -18.0273,5.132 -42.2192,-79.849 -24.1919,-84.981 z" id="path16225" inkscape:connector-curvature="0" style="fill:#2b1100;fill-opacity:1;fill-rule:nonzero;stroke:none" transform="translate(-7168, -67584)"/></svg>