<?xml version="1.0" encoding="UTF-8" standalone="no"?>
<svg
   xmlns:dc="http://purl.org/dc/elements/1.1/"
   xmlns:cc="http://creativecommons.org/ns#"
   xmlns:rdf="http://www.w3.org/1999/02/22-rdf-syntax-ns#"
   xmlns:svg="http://www.w3.org/2000/svg"
   xmlns="http://www.w3.org/2000/svg"
   xmlns:sodipodi="http://sodipodi.sourceforge.net/DTD/sodipodi-0.dtd"
   xmlns:inkscape="http://www.inkscape.org/namespaces/inkscape"
   width="1024"
   height="1024"
   id="U57CE"
   version="1.1"
   inkscape:version="0.48.0 r9654"
   sodipodi:docname="U+57CE.svg">
  <metadata
     id="metadata16">
    <rdf:RDF>
      <cc:Work
         rdf:about="">
        <dc:format>image/svg+xml</dc:format>
        <dc:type
           rdf:resource="http://purl.org/dc/dcmitype/StillImage" />
      </cc:Work>
    </rdf:RDF>
  </metadata>
  <defs
     id="defs14" />
  <sodipodi:namedview
     pagecolor="#ffffff"
     bordercolor="#666666"
     borderopacity="1"
     objecttolerance="10"
     gridtolerance="10"
     guidetolerance="10"
     inkscape:pageopacity="0"
     inkscape:pageshadow="2"
     inkscape:window-width="640"
     inkscape:window-height="480"
     id="namedview12"
     showgrid="false"
     inkscape:zoom="0.27441406"
     inkscape:cx="512"
     inkscape:cy="512"
     inkscape:window-x="0"
     inkscape:window-y="25"
     inkscape:window-maximized="0"
     inkscape:current-layer="U57CE" />
  <path
     style="fill:#800000;fill-opacity:1;fill-rule:nonzero;stroke:#f9f9f9;stroke-width:0.1;stroke-miterlimit:4;stroke-dasharray:none"
     d="M 819.75 35.03125 C 796.78787 35.378999 744.47545 64.887288 751.4375 78.59375 C 758.6772 92.21295 765.4373 106.1027 772.25 119.9375 C 780.2228 136.424 857.9103 98.83025 849.9375 82.34375 C 843.0774 67.89945 836.20775 53.47025 829.46875 38.96875 C 828.0238 36.124013 824.51573 34.959076 819.75 35.03125 z M 650.25 175.625 C 625.49883 176.25567 576.62086 198.11664 581.75 211.6875 C 588.81386 230.11771 595.10497 248.83838 600.9375 267.6875 C 596.95729 268.38306 592.97335 269.10516 589 269.84375 C 545.7418 278.42535 502.18545 287.4639 461.40625 304.75 C 454.7593 307.98676 456.82675 322.41881 462.78125 338.09375 C 449.05229 369.85576 443.44322 404.9263 437.46875 438.90625 C 426.17935 513.50375 416.1465 588.3106 405.9375 663.0625 C 405.85976 663.64577 405.7964 664.22921 405.71875 664.8125 C 403.99613 666.19559 402.26796 667.57097 400.53125 668.9375 C 351.13505 708.21 300.64835 746.0749 249.65625 783.25 C 215.35345 808.7909 180.666 834.1211 149.4375 863.4375 C 136.6284 876.9208 200.1909 937.2957 213 923.8125 C 239.9515 897.0136 270.7344 874.3797 300.9375 851.4375 C 331.23173 828.88809 361.49367 806.27989 391.5625 783.4375 C 389.76616 802.08491 388.23488 820.76161 387.09375 839.46875 C 386.74435 863.10205 386.46795 851.7266 387.78125 873.625 C 389.29265 892.0158 475.98015 884.8908 474.46875 866.5 C 472.84065 853.2564 473.45685 860.7849 473.15625 843.875 C 474.94852 799.10347 479.61176 754.52896 485.03125 710.0625 C 493.95087 702.52444 502.77478 694.88191 511.5625 687.1875 C 518.37437 681.14245 507.54896 662.0974 493.3125 646.03125 C 495.63576 628.81355 497.95573 611.61564 500.34375 594.40625 C 513.11759 609.88109 528.12257 621.7867 534.90625 616.5625 C 553.90815 603.4253 575.8105 595.3843 597.75 588.6875 C 600.93923 588.15171 604.34 587.23637 607.8125 586.5 C 608.04081 588.20461 608.29675 590.09873 608.5 592.25 C 609.9089 607.1636 610.0163 622.06575 610.1875 637.03125 C 610.185 673.35535 609.02215 709.6913 608.09375 746 C 607.65535 762.3614 607.903 754.6739 607.375 769 C 607.19095 777.14416 624.00487 782.10179 642.90625 783.5 C 637.06439 794.59022 631.15007 805.63671 625.0625 816.59375 C 616.3786 832.78145 692.6911 873.71885 701.375 857.53125 C 719.7189 822.21915 737.0584 786.38665 755.6875 751.21875 C 761.17002 740.75713 766.6845 730.31026 772.21875 719.875 C 777.73232 728.70276 783.32058 737.48073 788.96875 746.21875 C 800.90195 764.39305 813.13395 782.3864 825.34375 800.375 C 835.73905 815.4505 906.80155 766.4506 896.40625 751.375 C 884.34945 734.1682 872.2926 716.94365 860.625 699.46875 C 846.31022 677.74808 832.34613 655.76885 819.28125 633.28125 C 830.26607 613.67091 841.45951 594.16106 852.90625 574.8125 C 873.47475 540.8498 894.05725 506.50065 920.46875 476.65625 C 932.80835 462.77415 867.37085 404.58665 855.03125 418.46875 C 826.15905 453.31685 802.79895 492.20685 779.78125 531.03125 C 777.74704 534.5395 775.73996 538.04692 773.71875 541.5625 C 747.64074 475.75433 726.73819 408.22658 709.21875 339.65625 C 720.27074 338.65799 731.3346 337.80458 742.40625 337.0625 C 760.32515 336.4331 752.0874 336.43635 767.125 336.78125 C 785.5775 336.79515 785.6396 249.8265 767.1875 249.8125 C 747.2017 250.1126 757.6159 249.7535 735.9375 251 C 719.47518 252.35903 703.01547 253.89185 686.59375 255.6875 C 679.49326 230.5443 672.01909 205.50928 663.65625 180.75 C 662.22009 176.95014 657.18033 175.44841 650.25 175.625 z M 274.9375 250.78125 C 271.97867 250.9223 269.71293 251.87081 268.4375 253.8125 C 245.3055 292.5162 238.87505 337.2118 233.65625 381.1875 C 232.17058 398.73733 231.02277 416.32291 230.125 433.90625 C 200.12296 438.59687 170.0813 443.10174 140.0625 447.6875 C 121.7862 451.0663 137.7237 537.22255 156 533.84375 C 179.67611 529.17709 203.49019 525.20745 227.3125 521.34375 C 226.85809 546.12729 226.5671 570.9152 226.25 595.6875 C 225.6743 643.9977 226.01495 620.1375 225.34375 667.3125 C 225.12925 685.2715 309.7855 686.2715 310 668.3125 C 310.4564 621.0944 310.2229 644.95285 310.6875 596.78125 C 311.06992 567.02771 311.39042 537.23254 312.15625 507.46875 C 319.47709 506.27306 326.80448 505.07263 334.125 503.875 C 352.1484 500.8153 337.711 415.84665 319.6875 418.90625 C 318.53214 419.1096 317.37417 419.29702 316.21875 419.5 C 316.88665 410.18337 317.63173 400.86621 318.5 391.5625 C 322.369 361.0189 325.73225 328.97585 341.65625 301.90625 C 350.58423 288.31444 295.64934 249.7939 274.9375 250.78125 z M 624.65625 350.375 C 640.53889 411.85149 658.63145 472.64559 680.125 532.3125 C 678.66636 529.68473 677.07473 527.11267 675.34375 524.5625 C 669.59815 519.5037 664.5816 513.4879 658.125 509.375 C 632.0906 492.7911 599.63575 498.75575 571.84375 505.96875 C 550.54587 512.76613 529.41219 520.5041 509.46875 530.59375 C 513.23389 505.08937 517.16288 479.59632 521.34375 454.15625 C 526.83828 425.0033 531.10236 393.97573 545.1875 367.4375 C 565.1559 361.92644 585.5789 357.81956 605.8125 353.71875 C 612.08538 352.53633 618.36327 351.42921 624.65625 350.375 z M 691.6875 563.46875 C 693.17061 567.33927 694.67348 571.20211 696.1875 575.0625 C 704.13784 594.85816 713.06799 614.16794 722.6875 633.125 C 713.69091 649.68903 704.74711 666.27525 695.875 682.90625 C 696.16509 667.39164 696.42773 651.86143 696.53125 636.34375 C 696.40924 611.96813 696.97306 586.97057 691.6875 563.46875 z M 615.8125 585.375 C 617.8513 585.31261 619.85577 585.47393 621.8125 585.96875 C 622.4699 586.13502 620.21446 586.70444 615.8125 585.375 z "
     id="path20909" />
</svg>
