<?xml version="1.0" encoding="UTF-8" standalone="no"?>
<svg
   xmlns:dc="http://purl.org/dc/elements/1.1/"
   xmlns:cc="http://creativecommons.org/ns#"
   xmlns:rdf="http://www.w3.org/1999/02/22-rdf-syntax-ns#"
   xmlns:svg="http://www.w3.org/2000/svg"
   xmlns="http://www.w3.org/2000/svg"
   xmlns:sodipodi="http://sodipodi.sourceforge.net/DTD/sodipodi-0.dtd"
   xmlns:inkscape="http://www.inkscape.org/namespaces/inkscape"
   width="1024"
   height="1024"
   id="U57FA"
   version="1.1"
   inkscape:version="0.48.0 r9654"
   sodipodi:docname="U+57FA.svg">
  <metadata
     id="metadata18">
    <rdf:RDF>
      <cc:Work
         rdf:about="">
        <dc:format>image/svg+xml</dc:format>
        <dc:type
           rdf:resource="http://purl.org/dc/dcmitype/StillImage" />
      </cc:Work>
    </rdf:RDF>
  </metadata>
  <defs
     id="defs16" />
  <sodipodi:namedview
     pagecolor="#ffffff"
     bordercolor="#666666"
     borderopacity="1"
     objecttolerance="10"
     gridtolerance="10"
     guidetolerance="10"
     inkscape:pageopacity="0"
     inkscape:pageshadow="2"
     inkscape:window-width="640"
     inkscape:window-height="480"
     id="namedview14"
     showgrid="false"
     inkscape:zoom="0.27441406"
     inkscape:cx="512"
     inkscape:cy="512"
     inkscape:window-x="0"
     inkscape:window-y="25"
     inkscape:window-maximized="0"
     inkscape:current-layer="U57FA" />
  <path
     style="fill:#550000;fill-opacity:1;fill-rule:nonzero;stroke:#f9f9f9;stroke-width:0.1;stroke-miterlimit:4;stroke-dasharray:none"
     d="M 588.6875 97.5625 C 566.76902 97.64901 512.38978 134.9607 521.125 148.6875 C 532.61814 173.12455 539.61244 199.20981 544.875 225.71875 C 501.26018 231.87086 457.789 239.00443 414.375 246.4375 C 412.74896 203.48047 410.8633 160.51278 410.375 117.53125 C 410.2101 98.56725 320.80384 99.3485 320.96875 118.3125 C 323.63025 165.92125 326.26665 213.52516 328.5 261.15625 C 291.19514 267.36691 253.86226 273.4003 216.40625 278.625 C 197.69718 281.716 212.25967 369.93475 230.96875 366.84375 C 264.7542 360.55179 298.62015 354.60319 332.46875 348.65625 C 335.25534 404.95029 338.67003 461.21423 343.1875 517.40625 C 348.04798 561.80388 349.8773 607.56852 363.59375 650.1875 C 352.1967 651.66283 340.80082 653.25888 329.4375 655.03125 C 283.3757 662.64825 237.42467 671.17275 192.375 683.59375 C 174.21799 689.05675 199.99923 774.6505 218.15625 769.1875 C 254.28334 757.54187 291.4967 749.96568 328.8125 743.25 C 321.47953 754.43922 314.4604 765.82745 307.53125 777.1875 C 284.98928 814.8995 267.39688 855.20275 247.09375 894.09375 C 238.02664 909.99475 229.16894 925.7655 224.625 943.5625 C 221.46681 961.92365 306.05371 976.87427 312.8125 959.96875 C 307.88891 976.14423 323.05883 933.47182 325.9375 934.21875 C 338.4717 909.00631 350.02983 883.27553 362.75 858.15625 C 374.47958 881.74714 397.08625 908.6038 407.03125 902.1875 C 430.67887 889.0525 457.1504 881.88175 483 874.46875 C 486.47962 873.50759 489.94607 872.59974 493.4375 871.6875 C 498.06926 891.36824 503.03241 910.98141 508.1875 930.53125 C 476.54727 936.20612 444.98508 942.38708 413.53125 949.0625 C 395.00988 953.0115 413.63488 1040.325 432.15625 1036.375 C 472.43427 1026.046 513.27353 1018.2228 554.21875 1011.0938 C 605.78103 1002.3077 657.69835 996.13875 709.8125 991.84375 C 740.90441 989.36575 772.10198 988.548 803.28125 988.875 C 822.13919 988.866 822.10794 899.95875 803.25 899.96875 C 769.54991 900.32675 735.85795 901.54775 702.28125 904.59375 C 666.85282 907.80178 631.49096 911.72127 596.25 916.53125 C 590.27697 895.64728 584.64725 874.65886 579.59375 853.53125 C 584.97791 852.62163 590.38742 851.72283 595.78125 850.875 C 612.22549 848.41 628.74454 846.60725 645.34375 845.65625 C 664.23446 844.29325 657.79696 755.23075 638.90625 756.59375 C 619.67773 758.20975 600.54376 760.624 581.5 763.75 C 575.45443 764.7767 569.41101 765.85317 563.375 766.9375 C 561.98783 756.83889 560.76432 746.70931 559.75 736.5625 C 557.62359 717.7285 468.81108 727.75975 470.9375 746.59375 C 472.7124 759.50587 474.62404 772.4135 476.65625 785.28125 C 470.75739 786.76094 464.8726 788.31683 459 789.90625 C 435.1016 796.61628 410.98624 803.41292 388 812.875 C 404.944 785.26892 422.95429 757.65321 448.0625 736.84375 C 450.51191 735.14471 451.3209 731.88291 450.875 727.65625 C 487.78656 724.5613 524.813 722.595 561.8125 720.96875 C 590.35277 720.05851 618.8654 719.09193 647.375 717.75 C 667.65426 732.83804 687.37405 748.66524 707.09375 764.46875 C 730.43371 783.07475 753.86417 801.548 776.1875 821.375 C 784.93192 829.751 780.87126 825.66825 788.5 833.65625 C 801.7178 847.13925 865.2803 784.82775 852.0625 771.34375 C 840.9648 760.22275 846.71406 765.7905 834.71875 754.6875 C 815.77601 738.24336 796.18673 722.59766 776.5 707.0625 C 786.15056 705.75259 795.81653 704.38846 805.46875 703.09375 C 824.11115 700.30375 810.9549 612.42875 792.3125 615.21875 C 772.15907 618.54475 751.98688 621.914 731.6875 624.25 C 708.45971 626.71762 685.19879 628.56713 661.90625 630.03125 C 661.43949 592.44493 659.23935 554.89135 658.25 517.3125 C 655.72234 445.8193 652.83815 374.23799 644.25 303.1875 C 667.79488 302.29009 691.36039 302.47292 714.875 304.125 C 724.35652 305.397 720.68569 304.30925 726.15625 306.28125 C 744.67998 310.18325 763.08623 222.8385 744.5625 218.9375 C 728.37005 216.0955 736.69484 217.20875 719.53125 215.71875 C 690.11888 214.58006 660.68568 214.92922 631.3125 216.65625 C 624.26414 176.67477 614.71943 137.15098 596.4375 100.78125 C 595.0081 98.535047 592.27416 97.548344 588.6875 97.5625 z M 558.53125 311 C 567.47174 380.32185 570.05522 450.23867 572.0625 520.0625 C 572.10254 522.93797 572.16226 525.81161 572.21875 528.6875 C 570.93307 526.02713 569.16527 524.30571 566.875 523.875 C 546.57637 520.614 526.32151 519.5655 505.875 522.8125 C 481.04052 525.96552 456.07451 530.11244 430.96875 529.15625 C 430.28971 522.83771 429.61191 516.53602 428.96875 510.21875 C 428.67273 506.83549 428.41134 503.44637 428.125 500.0625 C 454.19773 492.30761 481.05152 487.21866 507.71875 481.96875 C 526.35695 478.91975 517.51297 480.0035 534.21875 478.4375 C 552.88919 476.4165 543.35795 388.4165 524.6875 390.4375 C 501.93174 393.1295 513.32494 391.4565 490.5 395.4375 C 467.49828 400.05815 444.42618 404.58177 421.59375 410.03125 C 420.03798 384.52535 418.70604 359.00052 417.59375 333.46875 C 464.44812 325.17504 511.38034 317.39813 558.53125 311 z M 573.21875 566.5 C 573.88215 589.07367 574.47285 611.65224 574.125 634.21875 C 568.70223 634.42527 563.26708 634.64258 557.84375 634.84375 C 521.39485 636.57825 484.94502 638.57499 448.5625 641.46875 C 451.33549 637.77887 452.41289 634.35225 451.03125 631.53125 C 448.12781 627.94289 446.16062 623.11432 444.6875 618 C 468.83273 616.96493 492.83396 613.52199 516.8125 610.59375 C 528.0259 609.37575 539.46278 608.22775 550.4375 611.34375 C 560.24325 613.18782 569.44305 589.64268 573.21875 566.5 z "
     id="path8291" />
</svg>
