<?xml version="1.0" encoding="UTF-8" standalone="no"?>
<svg
   xmlns:dc="http://purl.org/dc/elements/1.1/"
   xmlns:cc="http://creativecommons.org/ns#"
   xmlns:rdf="http://www.w3.org/1999/02/22-rdf-syntax-ns#"
   xmlns:svg="http://www.w3.org/2000/svg"
   xmlns="http://www.w3.org/2000/svg"
   xmlns:sodipodi="http://sodipodi.sourceforge.net/DTD/sodipodi-0.dtd"
   xmlns:inkscape="http://www.inkscape.org/namespaces/inkscape"
   width="1024"
   height="1024"
   id="U5730"
   version="1.1"
   inkscape:version="0.48.0 r9654"
   sodipodi:docname="U+5730.svg">
  <metadata
     id="metadata13">
    <rdf:RDF>
      <cc:Work
         rdf:about="">
        <dc:format>image/svg+xml</dc:format>
        <dc:type
           rdf:resource="http://purl.org/dc/dcmitype/StillImage" />
      </cc:Work>
    </rdf:RDF>
  </metadata>
  <defs
     id="defs11" />
  <sodipodi:namedview
     pagecolor="#ffffff"
     bordercolor="#666666"
     borderopacity="1"
     objecttolerance="10"
     gridtolerance="10"
     guidetolerance="10"
     inkscape:pageopacity="0"
     inkscape:pageshadow="2"
     inkscape:window-width="640"
     inkscape:window-height="480"
     id="namedview9"
     showgrid="false"
     inkscape:zoom="0.27441406"
     inkscape:cx="512"
     inkscape:cy="512"
     inkscape:window-x="0"
     inkscape:window-y="25"
     inkscape:window-maximized="0"
     inkscape:current-layer="U5730" />
  <path
     style="fill:#550000;fill-opacity:1;fill-rule:nonzero;stroke:#f9f9f9;stroke-width:0.1;stroke-miterlimit:4;stroke-dasharray:none"
     d="M 654.25 147.375 C 642.28757 147.3358 633.13833 149.66844 632.0625 155.375 C 625.72573 208.445 624.5837 262.0213 622.15625 315.375 C 621.82538 321.72023 621.48723 328.06117 621.15625 334.40625 C 596.51515 345.25235 572.30065 357.06835 548.625 370.03125 C 544.70559 372.23458 540.73073 374.46365 536.78125 376.6875 C 536.95183 370.07269 537.18234 363.45986 537.4375 356.84375 C 539.06281 305.33635 538.61613 253.0905 547.78125 202.25 C 553.30275 184.5299 469.74025 158.49865 464.21875 176.21875 C 452.99406 234.83685 454.61526 295.228 453.40625 354.6875 C 452.63242 381.01331 452.5018 407.30412 452.90625 433.59375 C 442.82602 442.95617 433.58809 453.21228 425.625 464.71875 C 421.47829 472.52429 436.79042 485.89443 454.9375 496.03125 C 457.45873 545.48676 462.0766 594.82214 468.78125 643.96875 C 480.65707 713.16405 498.87154 783.7111 540.59375 841.5625 C 547.77975 851.5265 556.32502 860.436 564.1875 869.875 C 608.0692 913.677 663.99954 934.8835 725.71875 934.6875 C 737.75198 934.6485 749.71014 933.145 761.71875 932.375 C 823.58609 924.911 882.12127 902.9765 940.25 881.6875 C 961.1643 875.7715 982.76936 863.48175 1004.6562 863.59375 C 1023.2263 863.35675 1022.1013 775.8257 1003.5312 776.0625 C 970.94203 777.8626 940.54095 789.7665 910.28125 801.3125 C 859.99835 820.4085 809.36676 840.119 755.75 847.5 C 706.85332 851.388 666.78715 849.10075 628.75 814.46875 C 623.18953 808.26175 617.12348 802.46375 612.0625 795.84375 C 576.10331 748.80405 561.98988 689.50605 551.5 632.46875 C 544.12988 580.59269 539.45727 528.4531 537.4375 476.1875 C 554.37328 464.29829 572.65833 454.13941 590.46875 443.96875 C 598.98947 439.25165 607.60292 434.72691 616.28125 430.34375 C 613.81397 480.49444 611.53221 530.65541 609.8125 580.84375 C 608.95484 614.14405 607.52867 647.4145 605.96875 680.6875 C 605.32107 698.793 690.66482 701.8555 691.3125 683.75 C 692.14144 650.3294 693.02361 616.9237 693.71875 583.5 C 695.54055 519.95165 698.44945 456.43372 702 392.96875 C 721.20244 385.80123 740.64136 379.26166 760.28125 373.3125 C 777.82356 369.1575 795.73913 363.50625 814.03125 364.28125 C 815.38154 364.33845 828.16366 364.9783 823.8125 369.8125 C 823.48801 370.4947 822.7374 371.09205 822.8125 371.84375 C 823.47738 378.50195 826.35057 384.7944 827.5625 391.375 C 831.33659 411.8681 832.36106 432.38415 833.21875 453.15625 C 833.80467 501.12015 829.37124 549.02115 821.8125 596.34375 C 817.06125 617.75665 819.89124 608.0662 813.875 625.5 C 808.40641 643.025 891.0314 668.80635 896.5 651.28125 C 904.40869 624.22885 900.94197 638.1758 906.75 609.375 C 914.59876 556.521 919.52023 503.14305 918.8125 449.65625 C 917.13012 407.82095 916.87617 358.49735 893.65625 321.71875 C 888.7732 313.98445 882.02751 307.59685 876.21875 300.53125 C 868.74227 295.76575 861.87114 289.91545 853.8125 286.21875 C 816.09655 268.91745 772.55255 282.0403 734.96875 291.75 C 725.73375 294.67326 716.56612 297.70648 707.40625 300.84375 C 709.69802 257.66902 711.68428 214.34033 718.15625 171.59375 C 720.52306 159.03938 680.56735 147.46123 654.25 147.375 z M 238.0625 234.15625 C 231.12109 234.23489 226.1096 235.92598 224.8125 239.78125 C 211.99942 285.24485 208.38269 332.61105 204.28125 379.46875 C 201.89744 411.09323 200.56296 442.75132 199.9375 474.4375 C 176.21254 479.98967 152.50887 485.6328 128.90625 491.6875 C 111.1175 497.0876 136.555 580.93145 154.34375 575.53125 C 169.38653 571.00943 184.55908 566.93305 199.78125 563.0625 C 200.10948 588.18662 200.67537 613.33264 201.34375 638.4375 L 203.4375 683.125 C 204.2965 700.8732 287.95276 696.84185 287.09375 679.09375 L 284.96875 636.1875 C 284.12803 605.1339 283.453 574.0508 283.3125 542.96875 C 306.36723 537.47717 329.36299 531.85711 352.34375 526.0625 C 370.03144 521.5076 348.56269 438.1326 330.875 442.6875 C 315.50382 446.73214 300.11885 450.66622 284.6875 454.46875 C 285.56035 432.08758 286.87807 409.7095 288.8125 387.375 C 292.8288 347.2626 295.97596 306.43155 307.90625 267.71875 C 312.53876 253.94992 262.85325 233.87538 238.0625 234.15625 z M 372.90625 704.4375 C 371.7499 704.50573 370.69096 704.84768 369.78125 705.5 C 311.14335 747.5433 252.601 790.3125 201.40625 841.4375 C 167.97372 877.3375 135.78119 915.28475 119.375 962.34375 C 114.45424 980.24975 198.8605 1003.4373 203.78125 985.53125 C 215.9916 951.98525 240.1005 925.252 263.9375 899.5 C 311.09381 852.383 364.94063 812.83845 418.96875 774.09375 C 432.61438 764.30906 390.25154 703.41404 372.90625 704.4375 z "
     id="path21987" />
</svg>
