<?xml version="1.0" encoding="UTF-8" standalone="no"?>
<svg
   xmlns:dc="http://purl.org/dc/elements/1.1/"
   xmlns:cc="http://creativecommons.org/ns#"
   xmlns:rdf="http://www.w3.org/1999/02/22-rdf-syntax-ns#"
   xmlns:svg="http://www.w3.org/2000/svg"
   xmlns="http://www.w3.org/2000/svg"
   xmlns:sodipodi="http://sodipodi.sourceforge.net/DTD/sodipodi-0.dtd"
   xmlns:inkscape="http://www.inkscape.org/namespaces/inkscape"
   width="1024"
   height="1024"
   id="U573A"
   version="1.1"
   inkscape:version="0.48.0 r9654"
   sodipodi:docname="U+573A.svg">
  <metadata
     id="metadata13">
    <rdf:RDF>
      <cc:Work
         rdf:about="">
        <dc:format>image/svg+xml</dc:format>
        <dc:type
           rdf:resource="http://purl.org/dc/dcmitype/StillImage" />
      </cc:Work>
    </rdf:RDF>
  </metadata>
  <defs
     id="defs11" />
  <sodipodi:namedview
     pagecolor="#ffffff"
     bordercolor="#666666"
     borderopacity="1"
     objecttolerance="10"
     gridtolerance="10"
     guidetolerance="10"
     inkscape:pageopacity="0"
     inkscape:pageshadow="2"
     inkscape:window-width="640"
     inkscape:window-height="480"
     id="namedview9"
     showgrid="false"
     inkscape:zoom="0.27441406"
     inkscape:cx="512"
     inkscape:cy="512"
     inkscape:window-x="0"
     inkscape:window-y="25"
     inkscape:window-maximized="0"
     inkscape:current-layer="U573A" />
  <path
     style="fill:#800000;fill-opacity:1;fill-rule:nonzero;stroke:#f9f9f9;stroke-width:0.1;stroke-miterlimit:4;stroke-dasharray:none"
     d="M 645.46875 224.625 C 633.44035 224.80403 620.50914 230.83936 609.09375 230.6875 C 576.90071 235.6744 544.69966 240.63695 512.53125 245.78125 C 479.06515 250.90455 445.57985 255.91565 412.09375 260.90625 C 393.83582 264.28735 409.77332 350.34985 428.03125 346.96875 C 460.41109 340.84505 493.0564 336.0613 525.625 331.0625 C 543.24809 328.26256 560.88151 325.55901 578.53125 322.9375 C 566.59113 345.49901 555.53008 368.52365 545.6875 392.09375 C 539.97733 412.53015 526.14237 436.423 530.4375 458.625 C 531.979 466.5932 535.51573 474.044 538.0625 481.75 C 545.62864 488.3662 552.00377 496.64165 560.75 501.59375 C 563.93652 503.39795 567.33695 504.70975 570.875 505.625 C 564.33139 536.16116 557.82631 566.72404 551.375 597.28125 C 538.06347 659.29205 523.58112 721.02315 509.96875 782.96875 C 504.03694 809.81055 506.77322 797.08375 501.71875 821.15625 C 498.21115 839.17395 583.1174 855.7052 586.625 837.6875 C 590.70529 814.7964 588.42049 827.1323 593.6875 800.75 C 606.37986 738.7083 620.66567 677.01195 634.5 615.21875 C 643.30173 575.38359 652.02592 535.53711 661.96875 495.96875 C 678.6628 494.1911 695.46758 493.44643 712.28125 493.46875 C 733.93726 493.65945 754.92482 497.38125 774.3125 507.09375 C 784.15356 512.41805 786.66287 520.519 789.0625 530.75 C 793.94072 569.0964 789.54253 608.0614 786.875 646.4375 C 783.54878 699.01 777.35749 751.26335 766.34375 802.78125 C 762.08825 820.67385 757.27389 838.53585 747.34375 854.15625 C 738.359 870.26235 814.2965 912.6061 823.28125 896.5 C 835.96364 872.3678 845.24975 847.11795 850.375 820.21875 C 861.537 764.90385 868.27598 708.93 872.0625 652.625 C 875.74129 604.1263 881.96099 554.6248 872.53125 506.4375 C 861.43023 470.7829 845.24398 445.56515 811.03125 428.21875 C 779.68994 414.16195 746.74256 406.6367 712.21875 406.8125 C 685.05319 406.8658 657.93737 408.39419 631.0625 412.34375 C 642.30142 386.30547 655.63186 361.21765 670 336.75 C 679.11636 321.0237 701.95119 286.89665 696.21875 267.96875 C 692.64633 256.17295 684.42442 246.3247 678.53125 235.5 C 670.23257 232.1951 662.23667 227.96655 653.625 225.59375 C 650.97601 224.86389 648.24453 224.58369 645.46875 224.625 z M 221.375 244.0625 C 209.40715 244.17489 200.2852 246.62122 199.28125 252.34375 C 192.39453 294.16655 192.52103 336.5171 193.34375 378.75 C 194.29585 403.1572 195.16932 427.55693 195.96875 451.96875 C 170.00209 458.22748 144.14638 464.93905 118.75 473.21875 C 101.49617 480.12035 134.02741 561.464 151.28125 554.5625 C 166.78685 548.98419 182.58807 544.27203 198.5 540 C 198.85016 554.54743 199.15665 569.1069 199.4375 583.65625 C 199.52853 595.66315 199.62775 607.64935 199.71875 619.65625 C 199.86608 637.58435 284.36608 636.89685 284.21875 618.96875 L 283.90625 582.0625 C 283.52577 561.28862 283.07028 540.52148 282.59375 519.75 C 297.06197 516.38721 311.51619 512.93788 325.9375 509.375 C 343.67021 504.8436 322.29521 421.24985 304.5625 425.78125 C 296.50388 427.91438 288.42627 429.96462 280.34375 432 C 279.83227 413.81427 279.30578 395.62218 278.75 377.4375 C 278.35567 340.6814 278.0771 303.6824 285.59375 267.5 C 287.80245 254.91043 247.70426 243.81525 221.375 244.0625 z M 651.90625 312.71875 C 652.08834 312.71596 652.09765 312.72715 651.8125 312.78125 C 649.81396 313.16037 648.10729 313.28352 646.53125 313.21875 C 647.1315 313.14799 647.74282 313.09645 648.34375 313.03125 C 649.20937 312.93728 651.35999 312.72713 651.90625 312.71875 z M 617.625 451.96875 C 617.75466 452.71787 617.87123 453.49537 617.96875 454.25 C 618.11489 455.381 617.87286 458.36395 617.09375 457.53125 C 616.67791 457.08679 616.95238 454.96151 617.625 451.96875 z M 719.25 499.59375 C 705.51121 499.56429 694.66138 502.21003 693.71875 508.53125 C 687.83757 549.83435 681.45523 591.03705 674.78125 632.21875 C 663.62417 698.87755 649.51608 765.0061 635.875 831.1875 C 628.58582 865.6218 632.23729 849.0433 625.0625 880.9375 C 621.20344 898.721 705.01594 916.9085 708.875 899.125 C 715.78956 866.1007 712.30135 883.1503 719.3125 848 C 732.53637 780.8012 746.65327 713.77105 758.6875 646.34375 C 765.93673 604.71485 772.73838 562.9911 780.40625 521.4375 C 782.20583 509.36972 745.4786 499.64998 719.25 499.59375 z M 363.21875 649.84375 C 362.03712 649.88185 360.94591 650.20301 360 650.84375 C 315.23717 681.68225 271.1359 713.54885 230.09375 749.28125 C 192.63575 781.61195 155.56198 814.67515 122.84375 851.90625 C 111.13003 866.31275 179.03628 921.5316 190.75 907.125 C 218.7764 872.4919 252.31725 842.80055 285.84375 813.65625 C 324.28296 780.04275 365.88973 750.438 408.34375 722.1875 C 422.53236 712.57653 380.94318 649.27225 363.21875 649.84375 z "
     id="path20805" />
</svg>
