<?xml version="1.0" encoding="UTF-8" standalone="no"?>
<svg
   xmlns:dc="http://purl.org/dc/elements/1.1/"
   xmlns:cc="http://creativecommons.org/ns#"
   xmlns:rdf="http://www.w3.org/1999/02/22-rdf-syntax-ns#"
   xmlns:svg="http://www.w3.org/2000/svg"
   xmlns="http://www.w3.org/2000/svg"
   xmlns:sodipodi="http://sodipodi.sourceforge.net/DTD/sodipodi-0.dtd"
   xmlns:inkscape="http://www.inkscape.org/namespaces/inkscape"
   width="1024"
   height="1024"
   id="U574F"
   version="1.1"
   inkscape:version="0.48.0 r9654"
   sodipodi:docname="U+574F.svg">
  <metadata
     id="metadata14">
    <rdf:RDF>
      <cc:Work
         rdf:about="">
        <dc:format>image/svg+xml</dc:format>
        <dc:type
           rdf:resource="http://purl.org/dc/dcmitype/StillImage" />
      </cc:Work>
    </rdf:RDF>
  </metadata>
  <defs
     id="defs12" />
  <sodipodi:namedview
     pagecolor="#ffffff"
     bordercolor="#666666"
     borderopacity="1"
     objecttolerance="10"
     gridtolerance="10"
     guidetolerance="10"
     inkscape:pageopacity="0"
     inkscape:pageshadow="2"
     inkscape:window-width="640"
     inkscape:window-height="480"
     id="namedview10"
     showgrid="false"
     inkscape:zoom="0.27441406"
     inkscape:cx="512"
     inkscape:cy="512"
     inkscape:window-x="0"
     inkscape:window-y="25"
     inkscape:window-maximized="0"
     inkscape:current-layer="U574F" />
  <path
     style="fill:#550000;fill-opacity:1;fill-rule:nonzero;stroke:#f9f9f9;stroke-width:0.1;stroke-miterlimit:4;stroke-dasharray:none"
     d="M 470.53125 231.46875 C 452.30989 233.04195 447.17769 319.52298 465.8125 320.6875 C 499.9085 321.09776 534.0276 321.0796 568.125 321.375 C 561.94558 332.16885 555.79328 342.982 549.625 353.78125 C 519.1837 407.59525 488.18875 461.069 456.03125 513.875 C 428.95625 558.316 399.8657 601.503 373.5 646.375 C 369.05701 653.28026 365.71262 660.44938 362.96875 667.875 C 351.24255 675.0795 339.5328 682.32732 327.84375 689.59375 C 329.34466 673.43801 330.50357 657.23731 330.96875 641 C 332.12654 610.5324 333.12213 580.06997 334.03125 549.59375 C 349.31185 549.39934 364.59223 549.2272 379.875 549.1875 C 401.0724 549.2575 390.90435 549.26875 410.34375 549.21875 C 429.14125 548.94475 427.86 460.31975 409.0625 460.59375 C 390.3365 461.09675 400.31235 460.8875 379.09375 461.1875 C 364.90554 461.39808 350.7186 461.66643 336.53125 461.9375 C 336.74277 454.46926 336.9402 446.9993 337.15625 439.53125 C 338.22155 394.17725 337.76025 348.5355 343.03125 303.4375 C 346.25305 284.7775 258.2842 269.591 255.0625 288.25 C 250.3108 337.93 251.29705 387.98375 250.53125 437.84375 C 250.35406 446.31241 250.16486 454.78158 249.96875 463.25 C 246.24882 463.27665 242.5326 463.33031 238.8125 463.34375 C 201.7411 463.32775 164.55175 463.57775 127.59375 460.34375 C 108.77105 458.18875 98.6148 546.93875 117.4375 549.09375 C 157.9063 551.37575 198.4827 550.9935 239 550.8125 C 241.83597 550.79191 244.66412 550.7761 247.5 550.75 C 246.53402 579.60547 245.40699 608.44262 244.03125 637.28125 C 243.15365 659.36025 240.85945 681.31375 238.09375 703.21875 C 237.06271 712.02724 256.24495 718.95572 276.90625 721.8125 C 261.46322 731.78529 246.1226 741.88129 230.9375 752.25 C 193.4301 778.471 156.11195 805.13125 121.71875 835.40625 C 108.03685 848.51225 169.8181 913.01125 183.5 899.90625 C 213.5357 871.44225 247.2942 847.32375 281 823.46875 C 323.9989 793.83375 368.5393 766.529 413.5 740 C 428.0224 731.35 443.05935 723.589 457.46875 714.75 C 463.31528 710.88212 460.26341 698.28284 453.3125 684.4375 C 477.32725 641.68356 504.6642 600.88783 530.03125 558.9375 C 539.86543 542.78695 549.60722 526.58892 559.28125 510.34375 C 558.99314 542.16009 558.02263 573.9769 557.125 605.78125 C 555.3527 659.93825 553.9053 714.1255 553.625 768.3125 C 553.3888 803.5525 555.9492 838.6655 560.6875 873.5625 C 561.0682 876.0155 561.4318 878.4845 561.8125 880.9375 C 565.1185 899.6015 653.1186 884.00775 649.8125 865.34375 L 648.71875 860.21875 C 643.54725 829.91175 641.052 799.256 641 768.5 C 640.9633 715.192 642.43715 661.888 644.59375 608.625 C 645.07852 595.52007 645.55699 582.41813 646.03125 569.3125 C 669.13958 589.5862 692.60299 609.37856 717 628.09375 C 746.2754 650.13175 778.1761 668.23925 809.625 686.90625 C 819.4384 692.71025 828.971 698.94825 838 705.90625 C 853.3352 717.05125 905.86645 644.77 890.53125 633.625 C 878.80445 625.436 866.8003 617.63025 854.375 610.53125 C 825.8834 594.03925 797.0503 577.96475 770.625 558.21875 C 746.3865 539.61175 723.18375 519.7445 701.03125 498.6875 C 691.07339 490.18396 660.33625 519.97885 647 543.28125 C 647.54107 528.96002 648.08717 514.62988 648.71875 500.3125 C 649.09837 485.88631 597.47292 481.0919 572.53125 487.96875 C 590.28052 457.90985 607.85956 427.73497 625.3125 397.5 C 639.9531 372.45734 654.40004 347.27343 669.90625 322.75 C 687.45814 323.00979 705.01005 323.24964 722.5625 323.46875 C 750.1079 323.80675 777.6431 323.86925 805.1875 323.53125 C 824.1157 322.92025 821.2408 233.7025 802.3125 234.3125 C 776.0058 235.7135 749.6494 235.54375 723.3125 235.59375 C 676.2036 235.36575 629.1036 234.68475 582 233.96875 C 545.134 233.35175 508.22955 233.40975 471.40625 231.46875 C 471.11046 231.45025 470.82048 231.44378 470.53125 231.46875 z "
     id="path8061" />
</svg>
