<?xml version="1.0" encoding="UTF-8" standalone="no"?>
<svg
   xmlns:dc="http://purl.org/dc/elements/1.1/"
   xmlns:cc="http://creativecommons.org/ns#"
   xmlns:rdf="http://www.w3.org/1999/02/22-rdf-syntax-ns#"
   xmlns:svg="http://www.w3.org/2000/svg"
   xmlns="http://www.w3.org/2000/svg"
   xmlns:sodipodi="http://sodipodi.sourceforge.net/DTD/sodipodi-0.dtd"
   xmlns:inkscape="http://www.inkscape.org/namespaces/inkscape"
   width="1024"
   height="1024"
   id="U5899"
   version="1.1"
   inkscape:version="0.48.0 r9654"
   sodipodi:docname="U+5899.svg">
  <metadata
     id="metadata21">
    <rdf:RDF>
      <cc:Work
         rdf:about="">
        <dc:format>image/svg+xml</dc:format>
        <dc:type
           rdf:resource="http://purl.org/dc/dcmitype/StillImage" />
      </cc:Work>
    </rdf:RDF>
  </metadata>
  <defs
     id="defs19" />
  <sodipodi:namedview
     pagecolor="#ffffff"
     bordercolor="#666666"
     borderopacity="1"
     objecttolerance="10"
     gridtolerance="10"
     guidetolerance="10"
     inkscape:pageopacity="0"
     inkscape:pageshadow="2"
     inkscape:window-width="640"
     inkscape:window-height="480"
     id="namedview17"
     showgrid="false"
     inkscape:zoom="0.27441406"
     inkscape:cx="512"
     inkscape:cy="512"
     inkscape:window-x="0"
     inkscape:window-y="25"
     inkscape:window-maximized="0"
     inkscape:current-layer="U5899" />
  <path
     style="fill:#c83737;fill-opacity:1;fill-rule:nonzero;stroke:#f9f9f9;stroke-width:0.1;stroke-miterlimit:4;stroke-dasharray:none"
     d="M 671.84375 21.21875 C 654.44341 21.179144 639.51891 24.43275 638.875 32.03125 C 637.38126 56.206851 635.42176 80.359057 633.4375 104.5 C 613.42392 105.17111 593.41604 105.94218 573.40625 106.8125 C 535.78225 108.0325 497.7727 110.27525 460.3125 105.53125 C 441.802 102.55925 427.802 189.80825 446.3125 192.78125 C 489.5326 197.21525 533.09555 194.855 576.40625 193.25 C 593.20801 192.45979 610.00701 191.72658 626.8125 191.125 C 624.70363 224.33724 623.28215 257.59248 622.8125 290.875 C 622.6774 304.171 622.802 317.454 622.9375 330.75 C 623.10228 338.00657 636.5203 342.12789 652.8125 343.375 C 634.50519 346.29885 616.21023 349.37664 597.9375 352.5 C 609.43895 334.26846 616.94381 313.98265 609.25 309.03125 C 593.34 299.01325 577.6199 288.65775 563.0625 276.71875 C 546.1517 262.25175 529.17455 246.96275 518.90625 226.84375 C 510.94535 209.84975 430.8516 247.34975 438.8125 264.34375 C 454.887 295.49975 479.7367 320.15625 505.875 342.90625 C 514.63026 350.19357 523.67881 357.06792 532.9375 363.6875 C 509.43832 367.70707 485.90575 371.62858 462.34375 375.28125 C 424.02835 380.50825 385.5827 385.579 346.875 386.5 C 339.34857 386.56734 334.96556 400.85089 333.625 417.90625 C 326.07811 418.28151 318.53845 418.91121 311 419.59375 C 289.00922 421.51079 267.02262 423.46154 245.03125 425.375 C 243.89869 407.5118 242.85737 389.62923 241.9375 371.75 C 238.508 313.864 234.57795 255.9985 232.09375 198.0625 C 231.12205 179.3575 142.9658 183.95125 143.9375 202.65625 C 149.0558 260.77225 153.2796 318.95325 157.25 377.15625 C 158.34436 395.4967 159.49951 413.82564 160.71875 432.15625 C 127.62214 434.27755 94.487769 435.89749 61.3125 435.65625 C 42.5476 435.96625 43.985 524.435 62.75 524.125 C 97.513632 522.85583 132.23978 520.92242 166.9375 518.5 C 169.68676 553.7965 172.69358 589.05602 175.96875 624.3125 C 176.82213 635.30457 177.94916 646.28638 179.15625 657.25 C 167.49614 663.41019 155.92207 669.71941 144.40625 676.15625 C 108.36585 696.33725 72.7857 717.3445 36.5625 737.1875 C 19.9029 745.8435 60.7155 824.37475 77.375 815.71875 C 113.6379 793.86275 149.9475 772.1255 186.75 751.1875 C 192.37258 748.00717 198.02114 744.87807 203.6875 741.78125 C 229.473 745.92572 274.68552 739.00628 273.75 725.625 C 273.21564 719.31572 272.58758 713.01169 271.90625 706.71875 C 291.98032 696.98704 312.22753 687.6116 332.59375 678.5 C 357.94325 666.934 384.04665 657.19325 409.96875 647.03125 C 427.26955 639.75225 392.95705 558.18975 375.65625 565.46875 C 349.65335 577.40875 322.6834 587.26025 296.875 599.65625 C 284.89896 605.14336 272.9634 610.69615 261.0625 616.34375 C 261.04926 616.20874 261.04443 616.07252 261.03125 615.9375 C 257.41058 581.21294 254.17286 546.47504 251.3125 511.6875 C 273.46035 509.90115 295.61216 508.18075 317.78125 506.65625 C 326.34715 505.93825 338.2685 505.426 345.875 506.125 C 353.67311 506.72421 359.40363 491.78581 362.09375 474.03125 C 399.70253 471.13914 437.12577 466.02025 474.4375 460.5625 C 541.7824 449.5545 608.77315 436.62675 676.21875 426.21875 C 731.63745 417.64575 787.49175 413.018 843.53125 412 C 875.09105 412.208 906.6333 412.94575 938.1875 413.59375 C 950.1596 413.76575 962.0386 415.34775 974 415.71875 C 992.8482 415.83175 993.37945 326.95675 974.53125 326.84375 C 962.77715 327.00075 951.05815 325.32025 939.28125 325.65625 C 906.67885 325.52025 874.07055 325.19625 841.46875 325.40625 C 827.83368 325.80214 814.20405 326.38555 800.59375 327.15625 C 813.37591 317.14551 826.41217 307.49016 840.09375 298.75 C 856.10035 288.976 810.03785 213.5385 794.03125 223.3125 C 766.88085 241.8495 741.3316 262.562 715.8125 283.25 C 713.87989 284.84195 711.93261 286.43954 710 288.03125 C 710.02389 255.04859 711.32174 222.08922 713.53125 189.1875 C 718.36307 189.15084 723.19862 189.10235 728.03125 189.09375 C 761.00635 189.32875 793.9306 190.92975 826.875 192.21875 C 830.79927 191.00991 861.78212 195.44583 842.84375 192.09375 C 860.73581 192.22919 887.29787 113.71524 870.09375 107.75 C 856.50925 104.738 843.34665 103.7755 829.40625 104.3125 C 795.47475 103.7075 761.53545 102.3975 727.59375 102.4375 C 725.32221 102.45521 723.05262 102.47712 720.78125 102.5 C 722.73485 81.489102 724.78522 60.513928 727.03125 39.53125 C 727.97234 28.426344 697.27501 21.276635 671.84375 21.21875 z M 710.78125 322.75 C 713.23729 326.5339 716.03332 330.35582 719.03125 334.09375 C 714.81048 334.57946 710.59175 335.09969 706.375 335.625 C 709.3239 333.6698 711.02837 331.37575 710.96875 328.75 C 710.89673 326.74991 710.8503 324.75021 710.78125 322.75 z M 754.90625 467.5625 C 747.25575 467.56755 739.58014 467.77488 731.90625 468.25 C 680.00385 471.472 628.2482 477.88175 577.8125 490.96875 C 536.2689 502.18875 494.7761 514.90775 457.6875 537.34375 C 453.29449 540.17302 453.8621 547.98353 457.28125 557.5625 C 433.86957 558.33771 409.1757 564.51048 409.78125 574.46875 C 414.04685 620.34475 421.65365 665.80125 429.59375 711.15625 C 437.38105 754.61425 447.09295 797.725 459.40625 840.125 C 460.76865 844.107 462.1375 848.11275 463.5 852.09375 C 469.9106 869.63675 552.5981 839.418 546.1875 821.875 C 545.2136 819.462 544.25515 817.038 543.28125 814.625 C 530.87485 775.961 521.82845 736.314 514.59375 696.375 C 509.77064 668.53797 504.99888 640.60635 501.6875 612.53125 C 503.11643 612.61905 504.42964 612.35467 505.5625 611.625 C 534.4218 593.014 567.6901 583.47925 600.5 574.53125 C 645.1416 562.85125 690.99105 557.371 736.96875 554.875 C 769.84035 553.14 802.4581 556.77325 834.4375 564.15625 C 846.7535 568.64425 866.57455 569.645 874.71875 580.25 C 873.45105 580.029 872.59375 579.31925 872.59375 581.28125 C 872.62235 598.60425 874.19665 615.3695 873.78125 633.0625 C 871.30735 683.9725 866.03725 734.693 860.78125 785.375 C 860.00694 790.27967 859.35327 795.20808 858.8125 800.15625 C 829.39125 802.76017 800.09213 806.6059 770.84375 810.78125 C 761.5397 812.15874 752.23217 813.59466 742.9375 815.03125 C 744.21621 810.77931 745.13226 805.69837 745.71875 800.1875 C 761.51607 808.47652 776.82341 812.65924 780.9375 806.0625 C 789.1005 791.9175 795.713 777.2245 799.75 761.3125 C 806.6889 735.8215 813.2446 709.901 814.1875 683.375 C 811.5688 646.045 797.2287 621.58475 760.375 609.34375 C 730.5892 602.05375 700.0057 600.9275 669.4375 602.8125 C 640.0147 604.7625 610.5595 607.492 581.8125 614.375 C 578.62256 615.23384 576.70665 618.58391 575.8125 623.5 C 555.88706 619.9654 536.61131 620.58421 534.8125 629.03125 C 529.313 659.99225 534.3771 690.92875 541.625 721.09375 C 544.9356 734.40675 550.0264 747.07 555.4375 759.625 C 559.46562 768.58986 583.60082 762.86755 604.46875 752.9375 C 594.1563 772.30713 600.13978 836.71617 616.15625 835.8125 C 618.19021 835.66469 620.21648 835.49681 622.25 835.34375 C 611.23609 837.34775 600.2189 839.38722 589.21875 841.46875 C 548.88645 849.33275 508.68585 857.75075 468.84375 867.84375 C 450.74055 872.82675 474.24045 958.1695 492.34375 953.1875 C 529.69975 941.9245 567.8617 933.80425 606.0625 926.03125 C 664.8657 914.45725 723.96555 904.44725 783.28125 895.90625 C 812.28762 891.99878 841.35527 888.39802 870.5625 886.5625 C 895.59294 895.28303 935.7148 897.98664 937.84375 885.5625 C 942.45715 855.2195 943.27225 824.43475 946.90625 793.96875 C 951.94615 741.22875 957.42185 688.48775 960.59375 635.59375 C 962.02045 593.73075 964.40575 549.91825 935.28125 516.15625 C 911.54165 495.78525 884.06955 484.818 853.40625 478.75 C 820.94834 471.74381 788.05842 467.54062 754.90625 467.5625 z M 698.78125 689.625 C 707.69395 689.59614 716.61895 689.96111 725.3125 691.46875 C 723.11536 707.21001 719.23826 722.67459 714.96875 737.96875 C 714.65871 738.58784 714.38552 739.25386 714.125 739.9375 C 707.64828 740.29618 701.17708 740.77347 694.71875 741.46875 C 668.18969 743.82448 641.65699 746.42599 615.03125 747.375 C 628.83556 739.32407 638.77016 730.01294 635.84375 723.5 C 632.18555 715.955 628.9871 708.253 626.8125 700.125 C 626.40609 698.53206 625.98933 696.91648 625.59375 695.3125 C 641.98988 692.483 658.66683 691.19759 675.25 690.09375 C 682.98632 690.0015 690.87725 689.65059 698.78125 689.625 z M 732.46875 693.03125 C 734.19173 693.47534 735.89598 693.93875 737.59375 694.5 C 737.90095 694.839 738.97475 695.41925 738.53125 695.53125 C 736.68779 695.99629 734.50213 694.74653 732.46875 693.03125 z "
     id="path10973" />
</svg>
