<?xml version="1.0" encoding="UTF-8" standalone="no"?>
<svg
   xmlns:dc="http://purl.org/dc/elements/1.1/"
   xmlns:cc="http://creativecommons.org/ns#"
   xmlns:rdf="http://www.w3.org/1999/02/22-rdf-syntax-ns#"
   xmlns:svg="http://www.w3.org/2000/svg"
   xmlns="http://www.w3.org/2000/svg"
   xmlns:sodipodi="http://sodipodi.sourceforge.net/DTD/sodipodi-0.dtd"
   xmlns:inkscape="http://www.inkscape.org/namespaces/inkscape"
   width="1024"
   height="1024"
   id="U58F0"
   version="1.1"
   inkscape:version="0.48.0 r9654"
   sodipodi:docname="U+58F0.svg">
  <metadata
     id="metadata14">
    <rdf:RDF>
      <cc:Work
         rdf:about="">
        <dc:format>image/svg+xml</dc:format>
        <dc:type
           rdf:resource="http://purl.org/dc/dcmitype/StillImage" />
      </cc:Work>
    </rdf:RDF>
  </metadata>
  <defs
     id="defs12" />
  <sodipodi:namedview
     pagecolor="#ffffff"
     bordercolor="#666666"
     borderopacity="1"
     objecttolerance="10"
     gridtolerance="10"
     guidetolerance="10"
     inkscape:pageopacity="0"
     inkscape:pageshadow="2"
     inkscape:window-width="640"
     inkscape:window-height="480"
     id="namedview10"
     showgrid="false"
     inkscape:zoom="0.27441406"
     inkscape:cx="512"
     inkscape:cy="512"
     inkscape:window-x="0"
     inkscape:window-y="25"
     inkscape:window-maximized="0"
     inkscape:current-layer="U58F0" />
  <path
     style="fill:#a02c2c;fill-opacity:1;fill-rule:nonzero;stroke:#f9f9f9;stroke-width:0.1;stroke-miterlimit:4;stroke-dasharray:none"
     d="M 461.15625 50.96875 C 456.33369 51.007313 452.80134 52.307187 451.40625 55.21875 C 436.43575 94.54775 436.0369 137.27125 434.5 178.78125 C 434.491 179.07315 434.47772 179.36435 434.46875 179.65625 C 428.28457 180.66859 422.10986 181.71604 415.9375 182.8125 C 370.271 190.7355 324.78445 199.71075 278.96875 206.71875 C 260.45565 209.59575 274.01805 296.878 292.53125 294 C 338.62495 284.985 384.67975 275.7555 430.90625 267.4375 C 431.28049 267.36851 431.65695 267.31861 432.03125 267.25 C 431.52579 285.53855 430.98103 303.83933 430.375 322.125 C 429.58032 342.87201 429.61555 342.40565 429.25 352.75 C 393.51385 363.02513 357.99827 374.24258 321.75 382.59375 C 303.4441 386.69375 322.78785 472.975 341.09375 468.875 C 378.99575 458.581 416.428 446.72675 454.125 435.71875 C 494.3709 423.92075 535.21965 414.19175 576.90625 409.34375 C 585.02895 409.10975 593.57435 407.1415 601.59375 409.3125 C 620.21775 411.1965 629.124 323.41425 610.5 321.53125 C 595.5721 320.56825 580.76505 320.394 565.90625 322.75 C 549.52174 324.98258 533.22619 327.77824 517.03125 331 C 517.1072 328.49151 517.09374 328.9086 517.21875 324.71875 C 517.84362 301.34477 518.3555 277.96912 518.9375 254.59375 C 546.67839 251.51073 574.49964 249.22612 602.375 247.5625 C 619.4766 246.6195 636.59755 246.10575 653.71875 245.71875 C 672.30025 245.04475 669.11285 157.451 650.53125 158.125 C 632.55325 159.009 614.5835 159.9555 596.625 161.1875 C 571.58492 163.01551 546.57913 165.2374 521.625 167.9375 C 522.5751 142.85629 523.78701 117.46258 531.28125 93.46875 C 538.00306 79.441141 484.3922 50.782944 461.15625 50.96875 z M 555.8125 458.8125 C 540.64515 458.8099 525.35889 460.28838 510.03125 462.5625 C 459.63125 470.1225 409.8511 481.14075 361.0625 495.96875 C 330.9687 504.94703 301.06367 514.54456 270.9375 523.40625 C 263.59359 520.32271 257.57753 519.67139 254.71875 523.09375 C 253.34165 525.09455 252.00747 527.14388 250.71875 529.1875 C 250.58229 529.22571 250.44897 529.27433 250.3125 529.3125 C 246.70827 530.3191 244.74655 534.53393 244.09375 540.5625 C 224.35629 577.17645 216.18518 619.23166 207.1875 659.5625 C 194.2236 722.0955 185.0882 785.35675 177.3125 848.71875 C 173.0343 881.71875 171.00705 914.8605 174.96875 947.9375 C 177.61265 966.4035 264.6439 953.93575 262 935.46875 C 257.0826 910.20675 261.0507 884.1775 263 858.8125 C 263.6769 852.79299 264.38093 846.76642 265.09375 840.75 C 271.00391 849.28864 277.17789 854.41131 282.09375 852.4375 C 318.91995 836.5365 357.32785 824.7425 395.53125 812.6875 C 447.45835 795.8565 499.8988 780.8225 553 768.1875 C 577.5953 763.7115 602.63395 756.40175 627.90625 757.46875 C 634.63519 757.2839 638.61804 745.7625 640.125 731.125 C 644.08776 730.32485 646.83137 728.63474 647.71875 725.90625 C 654.09035 705.02325 658.37685 683.807 660.21875 662 C 663.65365 625.436 666.6479 588.609 664.4375 551.875 C 659.8803 516.008 648.6391 484.10825 613.625 467.65625 C 594.62701 461.291 575.31338 458.81585 555.8125 458.8125 z M 562.1875 545.40625 C 570.94337 545.31948 578.52922 546.36687 582 549.96875 C 571.579 548.40175 575.9206 550.35075 577.25 562.46875 C 578.7065 592.90575 576.33395 623.352 573.34375 653.625 C 572.46243 661.15629 571.47365 668.67106 570.09375 676.09375 C 557.54156 678.46255 545.04686 681.20757 532.625 684.15625 C 512.63292 689.08896 492.72819 694.31088 472.875 699.75 C 472.95579 686.76999 472.93806 673.79368 472.65625 660.8125 C 472.18505 628.9485 471.004 596.9415 474.375 565.1875 C 474.65469 562.39064 472.91342 559.79455 469.75 557.5 C 487.20775 554.00333 504.77684 551.05297 522.4375 548.625 C 529.77131 548.83375 547.59439 545.55087 562.1875 545.40625 z M 385.28125 578.96875 C 384.41122 606.66512 385.15097 634.39062 385.5625 662.09375 C 385.9455 679.65075 385.77485 697.22725 385.40625 714.78125 C 385.35023 718.1055 388.13977 720.85357 392.71875 723.0625 C 385.06153 725.42107 377.41968 727.82697 369.78125 730.25 C 338.37178 739.94526 306.96605 749.65063 275.96875 760.59375 C 280.25472 733.14987 285.17837 705.82606 291 678.65625 C 296.91891 653.21228 302.14762 626.69433 311.9375 602.21875 C 336.32793 594.28753 360.74399 586.44454 385.28125 578.96875 z "
     id="path11963" />
</svg>
