<?xml version="1.0" encoding="utf-8" ?>

<!DOCTYPE svg PUBLIC "-//W3C//DTD SVG 1.1//EN" 
  "http://www.w3.org/Graphics/SVG/1.1/DTD/svg11.dtd">
<svg 
    xmlns="http://www.w3.org/2000/svg"
    xmlns:xlink="http://www.w3.org/1999/xlink"
    xmlns:sodipodi="http://sodipodi.sourceforge.net/DTD/sodipodi-0.dtd"
    xmlns:inkscape="http://www.inkscape.org/namespaces/inkscape"
    width="1024" height="1024" id="U589E">
<path d="m 10326.354,62881.098 c 37.824,-2.939 75.613,-6.296 113.39,-9.773 33.54,-3.242 67.095,-6.332 100.645,-9.473 18.508,-1.541 25.775,85.707 7.267,87.248 l 0,0 c -33.297,2.427 -66.577,5.101 -99.795,8.451 -37.4,3.599 -74.834,6.976 -112.133,11.511 -18.66,1.988 -28.034,-85.976 -9.374,-87.964 z" id="path14013" inkscape:connector-curvature="0" style="fill:#2b1100;fill-opacity:1;fill-rule:nonzero;stroke:none" transform="translate(-10240, -62464)"/><path d="m 10519.359,62735.004 c -9.261,37.41 -11.471,76.279 -14.988,114.552 -5.674,62.922 -10.043,125.955 -11.634,189.117 0.113,34.342 -0.221,17.599 0.922,50.232 0.53,18.341 -85.927,20.842 -86.458,2.502 l 0,0 c -0.845,-36.049 -0.672,-17.643 -0.454,-55.219 2.099,-64.792 6.651,-129.455 11.906,-194.063 3.681,-45.1 5.902,-90.792 16.738,-134.879 5.888,-17.813 89.856,9.945 83.968,27.758 z" id="path14015" inkscape:connector-curvature="0" style="fill:#2b1100;fill-opacity:1;fill-rule:nonzero;stroke:none" transform="translate(-10240, -62464)"/><path d="m 10323.732,63257.676 c 26.674,-41.738 65.726,-73.124 103.587,-104.177 52.087,-41.325 105.928,-80.356 158.097,-121.576 14.432,-11.237 67.402,56.796 52.97,68.033 l 0,0 c -52.053,39.956 -105.272,78.404 -156.314,119.665 -29.08,24.332 -59.904,48.526 -80.831,80.65 -9.036,16.442 -86.544,-26.153 -77.509,-42.595 z" id="path14017" inkscape:connector-curvature="0" style="fill:#2b1100;fill-opacity:1;fill-rule:nonzero;stroke:none" transform="translate(-10240, -62464)"/><path d="m 10718.025,62538.398 c 29.954,18.693 56.109,42.511 82.158,66.147 4.595,4.082 9.19,8.163 13.786,12.245 13.812,12.289 -44.118,77.401 -57.93,65.112 l 0,0 c -4.786,-4.265 -9.572,-8.529 -14.358,-12.794 -21.631,-19.571 -43.165,-39.768 -68.536,-54.487 -16.169,-9.52 28.71,-85.743 44.88,-76.223 z" id="path14037" inkscape:connector-curvature="0" style="fill:#2b1100;fill-opacity:1;fill-rule:nonzero;stroke:none" transform="translate(-10240, -62464)"/><path d="m 11031.262,62589.685 c -24.666,16.924 -45.009,39.027 -64.79,61.233 -12.225,13.792 -77.238,-43.837 -65.013,-57.628 l 0,0 c 24.244,-27.467 49.423,-54.3 79.072,-76.079 15.374,-10.762 66.105,61.712 50.731,72.474 z" id="path14039" inkscape:connector-curvature="0" style="fill:#2b1100;fill-opacity:1;fill-rule:nonzero;stroke:none" transform="translate(-10240, -62464)"/><path d="m 10662.146,62762.719 c 7.308,39.35 12.668,79.024 18.498,118.61 6.144,35.102 9.859,71.756 25.377,104.29 7.377,17.078 -73.132,51.854 -80.509,34.776 l 0,0 c -16.49,-40.393 -24.368,-83.254 -30.492,-126.325 -5.638,-37.502 -10.754,-75.168 -19.197,-112.168 -4.069,-18.312 82.254,-37.495 86.323,-19.183 z" id="path14041" inkscape:connector-curvature="0" style="fill:#2b1100;fill-opacity:1;fill-rule:nonzero;stroke:none" transform="translate(-10240, -62464)"/><path d="m 10675.653,62748.931 c 39.958,-17.808 82.898,-26.747 125.703,-34.557 47.743,-8.002 96.011,-11.89 144.281,-14.933 32.634,-2.34 65.206,-3.27 97.153,4.4 44.883,16.673 53.001,50.375 50.312,93.961 -6.07,42.784 -18.491,84.347 -29.03,126.176 -8.813,33.438 -14.745,67.491 -20.831,101.494 -0.809,3.674 -1.618,7.349 -2.428,11.023 -4.307,18.194 -90.073,-2.113 -85.765,-20.307 l 0,0 c 0.627,-2.393 1.254,-4.785 1.882,-7.178 7.212,-35.492 13.743,-71.141 23.036,-106.177 9.262,-36.921 19.843,-73.671 25.642,-111.34 0.537,-5.569 0.882,-10.533 1.336,-10.565 3.182,-0.224 7.475,11.521 12.696,7.964 -21.15,-8.734 -46.91,-1.189 -68.855,-2.659 -44.772,2.481 -89.545,5.877 -133.811,13.31 -34.565,6.374 -69.563,13.17 -101.567,28.285 -16.736,8.433 -56.491,-70.464 -39.754,-78.897 z" id="path14043" inkscape:connector-curvature="0" style="fill:#2b1100;fill-opacity:1;fill-rule:nonzero;stroke:none" transform="translate(-10240, -62464)"/><path d="m 10702.033,62816.527 c 30.881,7.659 59.85,20.693 88.064,35.122 16.501,8.476 -23.456,86.26 -39.956,77.784 l 0,0 c -21.603,-11.158 -43.767,-21.588 -67.725,-26.593 -18.309,-4.161 1.307,-90.474 19.617,-86.313 z" id="path14045" inkscape:connector-curvature="0" style="fill:#2b1100;fill-opacity:1;fill-rule:nonzero;stroke:none" transform="translate(-10240, -62464)"/><path d="m 10982.253,62869.323 c -16.334,10.342 -29.821,24.372 -43.016,38.33 -11.487,12.875 -5.678,6.246 -17.409,19.903 -12.078,14.119 -78.633,-42.819 -66.555,-56.938 l 0,0 c 13.355,-15.666 6.624,-7.932 20.19,-23.206 18.688,-19.795 38.201,-39.002 61.119,-53.936 16.089,-9.689 61.761,66.159 45.671,75.847 z" id="path14047" inkscape:connector-curvature="0" style="fill:#2b1100;fill-opacity:1;fill-rule:nonzero;stroke:none" transform="translate(-10240, -62464)"/><path d="m 10641.699,62975.88 c 47.277,-8.937 95.097,-14.54 142.861,-20.111 58.944,-6.444 117.886,-12.948 176.93,-18.41 25.304,-2.426 50.679,-3.917 76.062,-5.202 18.577,-0.74 22.065,86.834 3.488,87.574 l 0,0 c -24.023,0.682 -48.041,1.67 -71.991,3.749 -58.199,4.823 -116.271,11.032 -174.293,17.634 -44.545,5.452 -89.277,10.721 -133.06,20.813 -18.254,4.242 -38.25,-81.805 -19.997,-86.047 z" id="path14049" inkscape:connector-curvature="0" style="fill:#2b1100;fill-opacity:1;fill-rule:nonzero;stroke:none" transform="translate(-10240, -62464)"/><path d="m 10878.388,62751.903 c -0.161,37.932 -0.949,75.843 -2.196,113.756 -1.932,40.348 -2.302,80.716 -1.526,121.093 0.294,18.241 -85.699,19.624 -85.992,1.382 l 0,0 c -0.546,-41.602 -0.166,-83.194 1.315,-124.778 0.762,-37.424 1.213,-74.855 -0.136,-112.273 0.174,-18.781 88.709,-17.962 88.535,0.82 z" id="path14065" inkscape:connector-curvature="0" style="fill:#2b1100;fill-opacity:1;fill-rule:nonzero;stroke:none" transform="translate(-10240, -62464)"/><path d="m 10770.436,63142.939 c 1.269,36.306 5.486,72.395 10.013,108.41 5.432,42.493 12.984,84.683 23.838,126.129 4.521,17.952 -80.106,39.267 -84.628,21.315 l 0,0 c -10.933,-44.959 -19.096,-90.511 -25.114,-136.389 -4.942,-37.563 -9.365,-75.179 -12.333,-112.956 -1.38,-18.716 86.844,-25.224 88.224,-6.509 z" id="path14067" inkscape:connector-curvature="0" style="fill:#2b1100;fill-opacity:1;fill-rule:nonzero;stroke:none" transform="translate(-10240, -62464)"/><path d="m 10719.756,63099.032 c 30.74,-8.396 61.402,-17.07 92.139,-25.472 39.913,-11.586 80.877,-17.758 122.264,-20.386 27.568,-1.807 54.016,-0.01 79.489,10.875 37.138,24.047 34.903,64.52 32.256,103.641 -5.066,52.865 -12.712,105.434 -18.899,158.174 -5.369,47.849 -8.967,95.882 -10.748,143.996 -0.123,16.07 -0.546,32.017 -2.949,47.91 -3.502,18.442 -90.44,1.938 -86.939,-16.504 l 0,0 c 5.286,-10.142 -0.603,-24.874 2.754,-35.428 2.74,-50.08 6.907,-100.075 12.433,-149.927 5.921,-51.196 13.05,-102.278 17.228,-153.657 0.02,-0.292 0.394,-29.815 0.963,-30.754 1.318,-2.174 9.728,15.497 14.247,11.648 0.884,0.112 1.911,0.831 2.652,0.336 0.07,-0.05 -1.014,-1.094 -6.696,-1.881 -10.203,-1.412 -20.553,-1.101 -30.818,-1.133 -35.261,1.729 -70.12,6.873 -104.053,16.93 -29.892,8.364 -59.758,16.879 -89.34,26.286 -17.958,5.512 -43.941,-79.142 -25.983,-84.654 z" id="path14069" inkscape:connector-curvature="0" style="fill:#2b1100;fill-opacity:1;fill-rule:nonzero;stroke:none" transform="translate(-10240, -62464)"/><path d="m 10752.888,63198.635 c 31.348,-9.734 64.136,-13.075 96.673,-16.113 15.106,-1.257 30.212,-2.505 45.311,-3.841 18.535,-1.539 25.793,85.836 7.257,87.376 l 0,0 c -14.829,1.153 -29.662,2.253 -44.485,3.483 -25.373,2.344 -51.19,4.475 -75.503,12.573 -17.709,6.205 -46.962,-77.273 -29.253,-83.478 z" id="path14071" inkscape:connector-curvature="0" style="fill:#2b1100;fill-opacity:1;fill-rule:nonzero;stroke:none" transform="translate(-10240, -62464)"/><path d="m 10787.392,63285.202 c 26.893,-0.781 53.789,-0.09 80.676,0.555 18.609,0.501 16.246,88.228 -2.364,87.726 l 0,0 c -24.665,-0.743 -49.39,-1.65 -74.037,0.07 -18.742,0.907 -23.017,-87.444 -4.275,-88.351 z" id="path14073" inkscape:connector-curvature="0" style="fill:#2b1100;fill-opacity:1;fill-rule:nonzero;stroke:none" transform="translate(-10240, -62464)"/><path d="m 10692.128,63410.961 c 39.837,1.933 79.766,-3.13 119.391,-6.824 44.754,-4.165 89.434,-9.1 134.208,-13.043 4.903,-0.329 9.805,-0.658 14.708,-0.987 18.571,-1.046 23.501,86.496 4.931,87.542 l 0,0 c -4.242,0.186 -8.483,0.372 -12.724,0.558 -44.4,3.115 -88.68,7.692 -132.988,11.88 -46.161,4.435 -92.56,10.512 -139.003,8.463 -18.58,-2.434 -7.103,-90.023 11.477,-87.589 z" id="path14075" inkscape:connector-curvature="0" style="fill:#2b1100;fill-opacity:1;fill-rule:nonzero;stroke:none" transform="translate(-10240, -62464)"/></svg>