<?xml version="1.0" encoding="UTF-8" standalone="no"?>
<svg
   xmlns:dc="http://purl.org/dc/elements/1.1/"
   xmlns:cc="http://creativecommons.org/ns#"
   xmlns:rdf="http://www.w3.org/1999/02/22-rdf-syntax-ns#"
   xmlns:svg="http://www.w3.org/2000/svg"
   xmlns="http://www.w3.org/2000/svg"
   xmlns:sodipodi="http://sodipodi.sourceforge.net/DTD/sodipodi-0.dtd"
   xmlns:inkscape="http://www.inkscape.org/namespaces/inkscape"
   width="1024"
   height="1024"
   id="U5802"
   version="1.1"
   inkscape:version="0.48.0 r9654"
   sodipodi:docname="U+5802.svg">
  <metadata
     id="metadata18">
    <rdf:RDF>
      <cc:Work
         rdf:about="">
        <dc:format>image/svg+xml</dc:format>
        <dc:type
           rdf:resource="http://purl.org/dc/dcmitype/StillImage" />
      </cc:Work>
    </rdf:RDF>
  </metadata>
  <defs
     id="defs16" />
  <sodipodi:namedview
     pagecolor="#ffffff"
     bordercolor="#666666"
     borderopacity="1"
     objecttolerance="10"
     gridtolerance="10"
     guidetolerance="10"
     inkscape:pageopacity="0"
     inkscape:pageshadow="2"
     inkscape:window-width="640"
     inkscape:window-height="480"
     id="namedview14"
     showgrid="false"
     inkscape:zoom="0.27441406"
     inkscape:cx="512"
     inkscape:cy="512"
     inkscape:window-x="0"
     inkscape:window-y="25"
     inkscape:window-maximized="0"
     inkscape:current-layer="U5802" />
  <path
     style="fill:#782121;fill-opacity:1;fill-rule:nonzero;stroke:#f9f9f9;stroke-width:0.1;stroke-miterlimit:4;stroke-dasharray:none"
     d="M 462.5625 66.625 C 441.88802 66.799471 422.34753 71.135781 422.1875 79.9375 C 423.5765 112.0345 425.5368 144.09575 426.3125 176.21875 C 426.7661 193.62275 426.88055 210.99925 426.71875 228.40625 C 426.70796 231.48998 429.10099 234.08418 433.125 236.15625 C 393.39522 242.70777 353.69569 249.39756 313.96875 255.96875 C 334.86571 242.99465 365.91186 198.95773 354.53125 189.90625 C 350.34145 186.58325 346.1272 183.2605 341.9375 179.9375 C 318.5973 160.6145 296.44705 139.964 273.03125 120.75 C 257.51125 110.176 207.6676 183.33225 223.1875 193.90625 C 244.5582 211.26325 265.05245 229.66975 286.28125 247.21875 L 300.0625 258.21875 C 273.79299 262.07094 247.45996 265.47559 221.03125 268 C 201.00009 260.72481 180.08907 257.75703 176.875 266.21875 C 165.4106 297.61975 154.14865 329.092 143.78125 360.875 C 131.95015 393.901 124.82675 427.86625 123.84375 462.90625 C 123.60045 481.53625 211.41295 482.6925 211.65625 464.0625 C 211.27045 437.7775 218.498 412.5685 226.8125 387.8125 C 230.40835 376.67761 234.09566 365.58305 237.9375 354.53125 C 264.22371 351.19309 290.47683 347.58845 316.65625 343.4375 C 373.61005 333.4315 430.57405 323.53125 487.65625 314.28125 C 541.43675 305.60625 595.29135 297.4795 649.53125 292.3125 C 683.50025 289.1015 717.567 290.52025 751.4375 293.90625 C 764.09159 295.73776 776.92933 296.79726 789.59375 298.78125 C 788.14202 313.7834 785.01685 328.51141 781.0625 343.0625 C 779.7774 346.7945 778.4726 350.55025 777.1875 354.28125 C 771.1866 371.86525 854.09285 400.1455 860.09375 382.5625 C 861.96745 377.0375 863.84495 371.525 865.71875 366 C 873.07815 338.721 878.7778 310.788 878.0625 282.375 C 873.378 247.801 859.44815 224.89025 824.21875 215.53125 C 802.89055 211.15825 781.22265 209.04375 759.59375 206.71875 C 738.94565 204.90304 718.23405 203.73852 697.53125 203.59375 C 702.82851 199.09265 708.2033 194.6757 713.71875 190.4375 C 728.69475 179.1735 675.6009 108.58075 660.625 119.84375 C 635.5754 140.56575 612.26225 163.298 588.78125 185.75 C 584.21456 190.09518 588.24653 200.31092 596.03125 211.375 C 568.66218 214.87654 541.36204 218.87858 514.09375 223.125 C 514.02907 206.80751 513.80244 190.50154 513.40625 174.1875 C 512.71305 143.2995 511.00675 112.42025 510.71875 81.53125 C 510.90012 71.555969 485.99358 66.427266 462.5625 66.625 z M 801.21875 300.9375 C 802.5852 301.23587 803.95369 301.53895 805.3125 301.875 C 804.00665 302.05875 802.6215 301.67825 801.21875 300.9375 z M 581.0625 368.75 C 575.72655 368.77567 570.38226 369.02656 565.09375 369.40625 C 528.99045 372.90525 493.32235 379.3705 458.15625 388.3125 C 428.36435 395.6075 398.5699 403.06175 369.4375 412.71875 C 366.07232 413.97303 364.49794 418.03576 364.25 423.71875 C 339.44787 423.75825 310.9144 430.17493 311.59375 440.875 C 315.08175 472.964 321.41055 504.62325 328.15625 536.15625 C 333.34062 559.16087 337.70777 582.42469 345.53125 604.6875 C 334.30079 619.97037 352.00779 692.08634 368.78125 688.3125 C 406.51825 679.4215 444.2545 670.52525 481.9375 661.40625 C 483.21106 661.08057 484.47544 660.75842 485.75 660.4375 C 477.55984 681.63706 472.72589 704.16748 468.75 726.75 C 467.93675 732.4923 467.24568 738.24306 466.59375 744 C 454.70423 746.5364 442.83778 749.24092 431 752.0625 C 397.1472 759.2525 363.23195 766.2375 328.78125 769.9375 C 310.19825 772.6405 322.9171 860.23425 341.5 857.53125 C 377.7633 852.09225 413.63025 844.56375 449.40625 836.59375 C 453.35815 835.61736 457.32246 834.68982 461.28125 833.75 C 461.04612 845.57865 460.89596 857.42914 460.8125 869.25 C 460.78386 882.94071 460.75413 896.62203 460.71875 910.3125 C 415.76575 908.41815 370.8488 905.68113 325.96875 902.0625 C 268.50285 898.1565 208.74985 889.776 152.09375 903.5 C 134.56725 910.241 166.3484 992.866 183.875 986.125 C 228.9115 979.106 275.4808 984.35575 320.75 986.84375 C 419.0739 993.65275 517.5129 997.27475 616.0625 997.46875 C 698.9177 997.13475 781.6342 991.82475 864.375 988.09375 C 882.5491 987.14775 878.08035 901.4915 859.90625 902.4375 C 778.70985 907.2225 697.52925 913.0115 616.15625 913.5625 C 593.51451 913.56344 570.87899 913.3784 548.25 912.96875 C 548.0514 898.47193 547.85986 883.96644 547.78125 869.46875 C 547.75221 851.78566 547.85919 834.09384 548.40625 816.40625 C 565.50937 813.70809 582.68419 811.45035 599.9375 809.65625 C 620.5924 807.70325 641.3379 807.42925 662.0625 807.03125 C 680.6989 806.40225 677.73015 718.5595 659.09375 719.1875 C 636.19795 720.2925 613.27845 721.08 590.46875 723.5 C 579.26426 724.79061 568.08976 726.24497 556.9375 727.84375 C 560.62275 708.95111 565.70817 690.18442 577.25 674.4375 C 581.86272 668.63859 573.87001 656.54904 561.78125 644.9375 C 575.73802 642.86931 589.76027 641.26151 603.875 640.25 C 604.71444 640.23114 604.91921 640.23642 605.625 640.21875 C 617.6258 644.39284 627.72544 645.28284 630.65625 639.96875 C 636.92325 628.23175 642.4917 616.15825 647.6875 603.90625 C 661.1496 572.86825 673.46275 541.17475 679.96875 507.84375 C 685.97635 469.52575 686.7561 431.358 660.8125 399.625 C 656.0682 395.285 651.7593 390.37975 646.5625 386.59375 C 627.29715 372.55862 604.18494 368.63876 581.0625 368.75 z M 578.0625 455.46875 C 586.93961 455.59105 603.9533 458.99575 597.59375 461.03125 C 595.55695 471.00625 595.42 483.084 593.5625 493.75 C 589.1613 515.18221 581.59463 535.6978 573 555.75 C 535.50334 560.44015 498.4595 567.90686 461.78125 577.25 C 450.25159 579.97934 438.73226 582.70638 427.1875 585.375 C 429.55821 582.24306 430.49604 579.25816 429.40625 576.65625 C 419.49765 559.06325 420.04 536.54725 413.5625 517.78125 C 411.76581 509.48902 410.00439 501.17235 408.34375 492.84375 C 431.52464 484.89305 455.36582 478.93708 479.125 473 C 509.9994 465.065 541.3026 459.305 573.0625 456.625 C 573.0473 455.76125 575.10346 455.42798 578.0625 455.46875 z "
     id="path11740" />
</svg>
