<?xml version="1.0" encoding="utf-8" ?>

<!DOCTYPE svg PUBLIC "-//W3C//DTD SVG 1.1//EN" 
  "http://www.w3.org/Graphics/SVG/1.1/DTD/svg11.dtd">
<svg 
    xmlns="http://www.w3.org/2000/svg"
    xmlns:xlink="http://www.w3.org/1999/xlink"
    xmlns:sodipodi="http://sodipodi.sourceforge.net/DTD/sodipodi-0.dtd"
    xmlns:inkscape="http://www.inkscape.org/namespaces/inkscape"
    width="1024" height="1024" id="U59B9">
<path d="m 11583.617,33004.654 c -7.394,31.707 -14.206,63.543 -21.545,95.264 -12.43,50.889 -25.644,101.579 -37.973,152.494 -6.522,28.65 -14.243,57.254 -16.244,86.672 -2.954,1.484 3.17,15.062 1.541,9.432 -5.126,-7.628 -5.386,-6.332 3.399,-1.452 15.812,8.737 28.746,21.17 40.845,34.383 19.443,22.782 36.868,47.187 54.612,71.288 25.15,33.216 47.534,68.284 68.392,104.309 14.955,26.505 28.78,53.618 42.485,80.782 4.351,8.589 8.918,17.065 13.425,25.572 8.464,16.83 -70.871,56.727 -79.335,39.897 l 0,0 c -4.19,-8.92 -8.817,-17.629 -13.044,-26.533 -12.386,-25.725 -25.162,-51.271 -39.029,-76.237 -19.014,-33.211 -39.605,-65.432 -62.965,-95.793 -16.145,-21.587 -32.091,-43.38 -49.687,-63.823 -5.576,-6.145 -11.32,-12.137 -18.627,-16.253 -13.443,-7.392 -26.688,-14.929 -35.146,-28.369 -11.668,-20.024 -16.771,-41.557 -14.564,-64.842 3.361,-33.839 11.423,-66.852 19.783,-99.763 12.585,-50.255 25.791,-100.36 37.497,-150.831 6.95,-31.725 13.503,-63.532 19.751,-95.403 4.075,-18.334 90.503,0.872 86.429,19.206 z" id="path11018" inkscape:connector-curvature="0" style="fill:#c83737;fill-opacity:1;fill-rule:nonzero;stroke:#f9f9f9;stroke-width:0.1;stroke-miterlimit:4;stroke-dasharray:none" transform="translate(-11264, -32768)"/><path d="m 11323.518,33165.958 c 30.162,-7.284 60.683,-12.9 91.247,-18.181 40.306,-6.852 80.99,-10.961 121.73,-14.11 34.577,-3.046 69.195,-2.16 103.62,1.874 21.139,2.63 41.796,7.681 61.483,15.791 23.083,9.976 35.291,28.693 41.413,52.278 3.862,24.484 -2.398,48.394 -8.998,71.789 -11.167,36.777 -26.777,71.965 -42.389,107.015 -19.601,43.747 -41.607,86.336 -63.641,128.889 -17.788,33.563 -34.309,67.757 -48.537,102.978 -8.448,21.096 -14.656,42.962 -19.98,65.022 -1.937,8.04 -3.492,16.159 -5.414,24.202 -4.635,18.227 -90.559,-3.626 -85.924,-21.853 l 0,0 c 2.245,-7.834 3.588,-15.905 5.795,-23.753 6.714,-26.029 14.446,-51.815 24.641,-76.722 15.537,-37.533 33.286,-74.051 52.44,-109.875 21.317,-40.875 42.506,-81.842 61.159,-124.024 13.709,-31.243 27.479,-62.593 37.193,-95.363 2.665,-9.828 5.436,-20.846 6.875,-30.458 2.059,4.404 6.794,11.096 10.41,11.205 -11.698,-5.592 -24.611,-7.879 -37.311,-9.991 -28.625,-3.784 -57.445,-4.547 -86.255,-2.112 -37.907,2.807 -75.763,6.581 -113.23,13.132 -27.897,4.978 -55.84,10.078 -83.169,17.659 -18.115,4.912 -41.272,-80.48 -23.158,-85.392 z" id="path11022" inkscape:connector-curvature="0" style="fill:#c83737;fill-opacity:1;fill-rule:nonzero;stroke:#f9f9f9;stroke-width:0.1;stroke-miterlimit:4;stroke-dasharray:none" transform="translate(-11264, -32768)"/><path d="m 11820.566,33115.041 c 32.601,0.452 65.194,-0.487 97.759,-1.92 36.823,-2.305 73.647,-4.125 110.545,-4.321 22.691,0.04 45.381,-0.225 68.068,0.306 10.832,-0.498 20.621,1.922 30.938,4.892 17.45,7.16 -16.305,89.42 -33.755,82.26 l 0,0 c 18.69,4.455 4.06,0.682 -0.146,1.159 -21.635,-0.974 -43.293,-0.907 -64.945,-1.143 -35.647,-0.07 -71.224,1.627 -106.796,3.885 -33.437,1.531 -66.889,2.424 -100.349,3.288 -18.753,0.28 -20.073,-88.126 -1.319,-88.406 z" id="path11024" inkscape:connector-curvature="0" style="fill:#c83737;fill-opacity:1;fill-rule:nonzero;stroke:#f9f9f9;stroke-width:0.1;stroke-miterlimit:4;stroke-dasharray:none" transform="translate(-11264, -32768)"/><path d="m 11684.893,33360.218 c 34.399,-7.788 69.158,-13.64 104.059,-18.622 46.876,-6.082 94.022,-9.717 141.133,-13.404 45.346,-3.077 90.648,-6.75 135.969,-10.176 33.895,-2.362 67.835,-4.024 101.765,-5.787 19.172,-1.164 38.274,-2.399 57.276,0.831 4.671,1.846 9.341,3.691 14.012,5.537 16.475,9.174 -26.772,86.84 -43.247,77.666 l 0,0 c 3.449,1.166 6.898,2.331 10.347,3.497 6.844,-0.117 -13.304,-0.575 -22.775,-0.29 -3.855,0.117 -7.707,0.284 -11.561,0.426 -33.16,1.34 -66.325,2.688 -99.444,4.834 -45.196,3.226 -90.366,6.808 -135.571,9.904 -45.202,3.543 -90.446,6.997 -135.403,12.996 -31.782,4.707 -63.524,10.008 -94.605,18.283 -18.178,4.657 -40.133,-81.038 -21.955,-85.695 z" id="path11026" inkscape:connector-curvature="0" style="fill:#c83737;fill-opacity:1;fill-rule:nonzero;stroke:#f9f9f9;stroke-width:0.1;stroke-miterlimit:4;stroke-dasharray:none" transform="translate(-11264, -32768)"/><path d="m 11972.083,33016.528 c -3.679,42.061 -4.6,84.312 -5.87,126.497 -2.593,73.951 -2.604,147.934 -1.118,221.904 1.46,62.539 4.748,125.012 8.033,187.476 2.083,37.264 3.527,74.558 4.873,111.854 0.305,9.346 0.729,18.688 1.188,28.028 0.02,18.874 -88.948,18.993 -88.973,0.119 l 0,0 c 0.412,-8.61 -0.07,-17.259 -0.02,-25.88 -0.563,-36.659 -1.643,-73.306 -3.383,-109.929 -2.821,-63.336 -5.688,-126.677 -6.931,-190.069 -1.315,-75.197 -1.403,-150.402 0.355,-225.596 0.817,-43.786 1.516,-87.584 3.74,-131.327 1.469,-18.691 89.58,-11.768 88.111,6.923 z" id="path11028" inkscape:connector-curvature="0" style="fill:#c83737;fill-opacity:1;fill-rule:nonzero;stroke:#f9f9f9;stroke-width:0.1;stroke-miterlimit:4;stroke-dasharray:none" transform="translate(-11264, -32768)"/><path d="m 11935.393,33475.042 c -23.566,22.738 -43.884,48.457 -63.405,74.66 -20.608,28.115 -38.474,58.045 -53.919,89.263 -4.094,0.709 -8.429,31.424 -6.908,18.536 0.08,18.859 -88.818,19.249 -88.901,0.39 l 0,0 c 1.089,-20.729 8.321,-40.037 17.616,-58.488 18.223,-35.36 38.843,-69.407 62.342,-101.541 21.919,-29.571 44.801,-58.421 70.316,-85.01 13.192,-13.335 76.051,48.856 62.859,62.19 z" id="path11034" inkscape:connector-curvature="0" style="fill:#c83737;fill-opacity:1;fill-rule:nonzero;stroke:#f9f9f9;stroke-width:0.1;stroke-miterlimit:4;stroke-dasharray:none" transform="translate(-11264, -32768)"/><path d="m 11970.669,33429.488 c 30.215,9.101 58.014,24.155 85.122,40.004 29.082,18.045 56.941,37.999 84.604,58.13 18.286,13.624 35.981,28.209 51.407,45.044 2.627,4.111 5.253,8.221 7.88,12.332 8.574,16.752 -70.399,57.172 -78.973,40.42 l 0,0 c 1.455,1.821 2.91,3.643 4.365,5.464 -9.486,-13.188 -24.484,-22.053 -36.471,-32.615 -25.085,-18.538 -50.444,-36.795 -76.93,-53.292 -20.276,-11.845 -40.999,-23.584 -63.765,-29.938 -18.148,-4.828 4.613,-90.378 22.761,-85.549 z" id="path11036" inkscape:connector-curvature="0" style="fill:#c83737;fill-opacity:1;fill-rule:nonzero;stroke:#f9f9f9;stroke-width:0.1;stroke-miterlimit:4;stroke-dasharray:none" transform="translate(-11264, -32768)"/></svg>