<?xml version="1.0" encoding="UTF-8" standalone="no"?>
<svg
   xmlns:dc="http://purl.org/dc/elements/1.1/"
   xmlns:cc="http://creativecommons.org/ns#"
   xmlns:rdf="http://www.w3.org/1999/02/22-rdf-syntax-ns#"
   xmlns:svg="http://www.w3.org/2000/svg"
   xmlns="http://www.w3.org/2000/svg"
   xmlns:sodipodi="http://sodipodi.sourceforge.net/DTD/sodipodi-0.dtd"
   xmlns:inkscape="http://www.inkscape.org/namespaces/inkscape"
   width="1024"
   height="1024"
   id="U597D"
   version="1.1"
   inkscape:version="0.48.0 r9654"
   sodipodi:docname="U+597D.svg">
  <metadata
     id="metadata12">
    <rdf:RDF>
      <cc:Work
         rdf:about="">
        <dc:format>image/svg+xml</dc:format>
        <dc:type
           rdf:resource="http://purl.org/dc/dcmitype/StillImage" />
      </cc:Work>
    </rdf:RDF>
  </metadata>
  <defs
     id="defs10" />
  <sodipodi:namedview
     pagecolor="#ffffff"
     bordercolor="#666666"
     borderopacity="1"
     objecttolerance="10"
     gridtolerance="10"
     guidetolerance="10"
     inkscape:pageopacity="0"
     inkscape:pageshadow="2"
     inkscape:window-width="640"
     inkscape:window-height="480"
     id="namedview8"
     showgrid="false"
     inkscape:zoom="0.27441406"
     inkscape:cx="512"
     inkscape:cy="512"
     inkscape:window-x="0"
     inkscape:window-y="25"
     inkscape:window-maximized="0"
     inkscape:current-layer="U597D" />
  <path
     style="fill:#550000;fill-opacity:1;fill-rule:nonzero;stroke:#f9f9f9;stroke-width:0.1;stroke-miterlimit:4;stroke-dasharray:none"
     d="M 432.0625 294.875 C 414.2183 296.27472 408.52233 380.87262 426.75 382.15625 C 462.6252 384.32825 498.53205 385.5775 534.46875 385.9375 C 567.93261 385.94462 601.3914 384.90769 634.84375 385.15625 C 616.1661 395.35726 597.38748 405.33599 578.3125 414.78125 C 563.4887 422.04625 547.77285 430.1665 540.84375 446.4375 C 538.12045 452.8325 537.71865 459.977 536.15625 466.75 C 536.51294 471.75185 537.3236 476.66207 538.40625 481.5 C 523.72708 481.86275 509.05234 482.34913 494.375 482.90625 C 447.70931 484.65731 400.75451 485.91653 354.59375 493.5 C 359.25583 484.30625 363.92445 475.11738 368.625 465.9375 C 370.21623 464.31011 371.45302 461.74912 372.40625 458.5625 C 383.56623 436.92884 395.04658 415.44951 407.53125 394.5625 C 417.29875 378.7485 342.7675 332.71725 333 348.53125 C 325.98451 361.2639 319.18298 374.10551 312.53125 387.03125 C 305.26349 388.13784 298.01194 389.36703 290.78125 390.71875 C 277.68114 393.24763 264.61631 395.97228 251.625 398.96875 C 262.99013 379.97539 274.26647 360.93515 285.25 341.71875 C 293.846 325.27375 216.31475 284.7435 207.71875 301.1875 C 189.24015 336.7845 168.30885 371.06775 147.71875 405.46875 C 141.54122 415.77576 135.3073 426.039 129.125 436.34375 C 95.00867 449.24071 61.43411 463.86176 32.09375 485.875 C 18.978511 496.86375 65.691305 554.74044 84.21875 554.375 C 87.358775 563.48275 93.122505 572.63354 101.78125 582.46875 C 121.86465 598.66075 141.254 615.54975 159.9375 633.34375 C 167.31263 640.39068 174.46429 647.65559 181.40625 655.09375 C 180.25167 657.49031 179.09229 659.88479 177.9375 662.28125 C 156.8864 704.93425 137.8457 748.63075 114.9375 790.34375 C 117.4565 789.44675 105.76345 805.3935 107.03125 800.3125 C 93.15245 812.6475 151.3086 878.084 165.1875 865.75 C 175.643 855.276 185.0969 844.6795 191.4375 831.0625 C 209.04876 797.04749 224.69107 762.06984 240.84375 727.34375 C 241.72647 728.5213 242.62034 729.6953 243.5 730.875 C 266.5419 762.489 287.79655 795.3345 307.59375 829.0625 C 313.74985 839.8295 319.9242 850.6095 325 861.9375 C 333.0858 878.6575 411.8984 840.5325 403.8125 823.8125 C 397.0532 810.4675 389.6594 797.46925 381.9375 784.65625 C 360.1229 748.70325 337.04975 713.5165 312.21875 679.5625 C 302.38449 666.3989 292.40411 653.34635 282.125 640.53125 C 301.63862 599.88339 321.38692 559.34012 341.65625 519.0625 C 343.56779 545.29159 356.72418 582.62346 368.84375 579.71875 C 411.24015 570.99175 454.8243 569.747 497.9375 567.75 C 521.428 566.67407 544.90827 565.92195 568.40625 565.53125 C 575.82201 589.44146 581.34374 613.92242 586.15625 638.53125 C 595.60465 690.94025 598.99905 744.12975 601.96875 797.21875 C 603.18381 820.78102 604.18672 844.36516 605.1875 867.9375 C 585.70683 881.352 557.5547 930.20054 570 938.25 C 590.9714 951.981 612.02635 966.672 637.34375 970.625 C 645.69655 969.469 654.76065 970.71325 662.40625 967.15625 C 691.41285 953.66225 695.89715 926.277 693.65625 898.5 C 691.31385 863.072 689.4912 827.60225 687.4375 792.15625 C 683.8964 735.36525 680.03505 678.47575 670.28125 622.34375 C 666.69761 603.4285 662.73219 584.57955 658.03125 565.9375 C 671.76778 566.30369 685.5177 566.79708 699.25 567.46875 C 732.7032 569.79675 766.48605 572.313 798.34375 583.375 C 815.85015 588.922 842.0065 506.39075 824.5 500.84375 C 784.9862 489.04075 744.21955 484.137 703.03125 482.5 C 681.98687 481.63817 660.95513 481.11209 639.90625 480.84375 C 657.8528 471.20898 675.71229 461.41357 693.59375 451.65625 C 719.38515 437.64625 746.5879 424.67875 767.6875 403.84375 C 770.8457 399.44175 774.77305 395.491 777.15625 390.625 C 792.17815 359.957 778.5863 328.61575 749.0625 314.21875 C 721.8153 303.56875 692.79945 300.2255 663.65625 299.4375 C 620.92375 298.4645 578.20535 299.935 535.46875 299.875 C 501.23415 299.415 466.99085 298.295 432.90625 294.875 C 432.61692 294.85462 432.34574 294.85278 432.0625 294.875 z M 708.09375 391.4375 C 710.4153 392.32416 712.63717 393.40005 714.71875 394.75 C 712.2376 393.93149 710.03807 392.81097 708.09375 391.4375 z M 264.1875 484.25 C 249.77357 513.61244 235.48418 543.0189 221.25 572.46875 C 220.79252 572.02002 220.33403 571.57233 219.875 571.125 C 205.31374 556.9517 190.59144 542.94951 175.0625 529.84375 C 179.28857 521.87108 183.63044 513.95231 188.0625 506.09375 C 213.03973 497.41691 238.47455 490.23859 264.1875 484.25 z M 169.46875 539.78125 C 169.37519 542.7571 168.60725 545.55544 166.875 547.90625 C 166.00537 549.08663 167.94635 543.69569 169.46875 539.78125 z M 606.875 909.71875 C 606.84559 919.41125 605.3793 915.63301 606.875 909.71875 z "
     id="path24483" />
</svg>
