<?xml version="1.0" encoding="utf-8" ?>

<!DOCTYPE svg PUBLIC "-//W3C//DTD SVG 1.1//EN" 
  "http://www.w3.org/Graphics/SVG/1.1/DTD/svg11.dtd">
<svg 
    xmlns="http://www.w3.org/2000/svg"
    xmlns:xlink="http://www.w3.org/1999/xlink"
    xmlns:sodipodi="http://sodipodi.sourceforge.net/DTD/sodipodi-0.dtd"
    xmlns:inkscape="http://www.inkscape.org/namespaces/inkscape"
    width="1024" height="1024" id="U59D3">
<path d="m 7447.335,55617.594 c -22.8014,33.773 -42.1267,69.709 -61.0533,105.743 -20.5882,40.491 -39.7758,81.818 -54.0312,124.995 -5.8633,2.484 -1.5108,26.89 -2.3066,14.908 -0.69,-10.389 -1.4004,-2.613 -1.0061,-6.362 21.0802,19.225 39.7259,40.826 57.9876,62.681 32.9068,40.502 62.6935,83.399 92.6195,126.112 31.0506,44.304 60.7807,89.504 88.7175,135.833 13.4982,23.591 7.1347,12.111 19.152,34.404 8.6416,16.387 -68.6061,57.124 -77.2477,40.737 l 0,0 c -10.161,-19.767 -4.7105,-9.512 -16.431,-30.722 -26.3488,-44.771 -54.7831,-88.251 -84.6781,-130.737 -28.5626,-40.553 -57.077,-81.234 -88.7306,-119.467 -18.233,-21.402 -37.2651,-41.963 -58.0552,-60.923 -25.5542,-32.403 -25.041,-56.979 -12.596,-94.919 16.7075,-46.872 37.6841,-92.052 60.2132,-136.393 19.8682,-38.332 40.247,-76.412 62.692,-113.314 10.0603,-15.858 84.8142,31.566 74.754,47.424 z" id="path12467" inkscape:connector-curvature="0" style="fill:#916f6f;fill-opacity:1;fill-rule:nonzero;stroke:#f9f9f9;stroke-width:0.1;stroke-miterlimit:4;stroke-dasharray:none" transform="translate(-7168, -55296)"/><path d="m 7612.2527,55702.235 c -28.3982,52.797 -51.8308,108.081 -75.9419,162.914 -36.0303,83.526 -75.1709,165.631 -115.8492,246.977 -29.7947,60.271 -63.0609,118.686 -97.5435,176.368 -15.2126,24.87 -30.0096,50.049 -47.5837,73.347 -11.5961,14.666 -80.7338,-39.999 -69.1377,-54.665 l 0,0 c 16.6255,-19.402 28.7087,-42.248 42.8043,-63.441 33.9774,-55.381 66.6754,-111.554 95.8029,-169.671 40.3586,-79.736 79.0395,-160.323 113.8379,-242.666 24.4512,-56.938 48.4561,-114.102 75.3372,-169.954 8.653,-16.604 86.9267,24.186 78.2737,40.791 z" id="path12473" inkscape:connector-curvature="0" style="fill:#916f6f;fill-opacity:1;fill-rule:nonzero;stroke:#f9f9f9;stroke-width:0.1;stroke-miterlimit:4;stroke-dasharray:none" transform="translate(-7168, -55296)"/><path d="m 7796.4233,55592.956 c -12.1132,41.253 -24.0327,82.563 -35.7738,123.924 -14.6364,50.233 -26.7076,101.123 -35.4825,152.697 -3.4671,24.233 -1.987,12.589 -4.5263,34.922 -2.2838,18.381 -88.9335,7.615 -86.6498,-10.766 l 0,0 c 3.3717,-25.258 1.4753,-12.179 5.7578,-39.226 9.8833,-54.256 22.7184,-107.872 37.9168,-160.892 11.364,-41.045 23.1211,-81.999 33.3102,-123.356 4.8148,-18.126 90.2624,4.571 85.4476,22.697 z" id="path12493" inkscape:connector-curvature="0" style="fill:#916f6f;fill-opacity:1;fill-rule:nonzero;stroke:#f9f9f9;stroke-width:0.1;stroke-miterlimit:4;stroke-dasharray:none" transform="translate(-7168, -55296)"/><path d="m 7744.9586,55717.852 c 40.6664,-10.799 82.2495,-17.566 123.6777,-24.667 49.6403,-8.716 99.5258,-15.852 149.5493,-21.945 28.9431,-3.536 58.04,-5.484 87.1553,-6.853 1.9859,-0.112 3.9718,-0.224 5.9577,-0.337 18.754,-0.714 22.1234,87.693 3.3694,88.408 l 0,0 c -2.1012,0.04 -4.2024,0.09 -6.3037,0.13 -26.7235,0.547 -53.4377,1.852 -80.0065,4.905 -48.4957,5.525 -96.8538,12.184 -144.9081,20.793 -37.5254,6.634 -75.338,12.778 -111.8474,23.938 -17.898,5.652 -44.5417,-78.72 -26.6437,-84.372 z" id="path12496" inkscape:connector-curvature="0" style="fill:#916f6f;fill-opacity:1;fill-rule:nonzero;stroke:#f9f9f9;stroke-width:0.1;stroke-miterlimit:4;stroke-dasharray:none" transform="translate(-7168, -55296)"/><path d="m 7977.8364,55580.343 c -9.154,48.911 -10.9557,98.869 -13.456,148.458 -3.8699,81.858 -5.7594,163.79 -7.0782,245.723 -0.9823,57.175 -0.4376,114.355 -0.3865,171.533 -0.1892,18.482 -87.3147,17.59 -87.1255,-0.892 l 0,0 c 1.2469,-57.393 1.2191,-114.808 2.5644,-172.2 1.7038,-82.69 3.6479,-165.377 6.8114,-248.026 2.1696,-53.742 4.0009,-107.671 11.8297,-160.957 3.4708,-18.422 90.3115,-2.061 86.8407,16.361 z" id="path12498" inkscape:connector-curvature="0" style="fill:#916f6f;fill-opacity:1;fill-rule:nonzero;stroke:#f9f9f9;stroke-width:0.1;stroke-miterlimit:4;stroke-dasharray:none" transform="translate(-7168, -55296)"/><path d="m 7767.6976,55935.243 c 38.1472,-0.517 76.2456,-2.683 114.271,-5.671 39.6466,-3.252 79.0462,-8.902 118.1263,-16.259 16.9168,-3.437 8.7203,-1.811 24.5868,-4.891 18.3547,-3.334 34.0735,83.191 15.7188,86.525 l 0,0 c -15.355,2.583 -7.0863,1.139 -24.797,4.385 -42.0003,7.27 -84.2541,13.112 -126.7453,16.642 -39.3313,3.18 -78.7193,5.373 -118.1161,7.56 -18.7294,0.646 -21.774,-87.646 -3.0445,-88.291 z" id="path12500" inkscape:connector-curvature="0" style="fill:#916f6f;fill-opacity:1;fill-rule:nonzero;stroke:#f9f9f9;stroke-width:0.1;stroke-miterlimit:4;stroke-dasharray:none" transform="translate(-7168, -55296)"/><path d="m 7619.9887,56121.356 c 39.9539,10.476 81.7862,8.509 122.6603,7.231 81.959,-4.989 163.6889,-12.997 245.6182,-18.47 58.7423,-3.959 117.6132,-4.873 176.4678,-4.597 18.4813,0.28 17.1642,87.402 -1.3172,87.122 l 0,0 c -56.5645,-1.466 -113.1788,-1.37 -169.6789,2.143 -82.7379,5.162 -165.212,13.401 -247.889,19.349 -49.753,2.14 -100.1931,4.076 -149.0698,-7.452 -18.1004,-4.923 5.1083,-90.249 23.2086,-85.326 z" id="path12510" inkscape:connector-curvature="0" style="fill:#916f6f;fill-opacity:1;fill-rule:nonzero;stroke:#f9f9f9;stroke-width:0.1;stroke-miterlimit:4;stroke-dasharray:none" transform="translate(-7168, -55296)"/></svg>