<?xml version="1.0" encoding="utf-8" ?>

<!DOCTYPE svg PUBLIC "-//W3C//DTD SVG 1.1//EN" 
  "http://www.w3.org/Graphics/SVG/1.1/DTD/svg11.dtd">
<svg 
    xmlns="http://www.w3.org/2000/svg"
    xmlns:xlink="http://www.w3.org/1999/xlink"
    xmlns:sodipodi="http://sodipodi.sourceforge.net/DTD/sodipodi-0.dtd"
    xmlns:inkscape="http://www.inkscape.org/namespaces/inkscape"
    width="1024" height="1024" id="U592B">
<path d="m 9501.722,12677.271 c 48.1106,-6.7 96.3735,-12.211 144.6959,-17.121 65.4986,-6.084 131.0611,-11.473 196.6085,-17.006 41.1393,-2.732 82.2775,-8.158 123.5674,-6.819 18.4568,1.004 13.7244,88.01 -4.7324,87.006 l 0,0 c -37.1978,-3.499 -74.7821,3.709 -111.9298,4.691 -64.9165,5.081 -129.8348,10.272 -194.6384,16.648 -46.3485,5.029 -92.7202,10.445 -138.6064,18.798 -18.2852,3.175 -33.25,-83.022 -14.9648,-86.197 z" id="path23079" inkscape:connector-curvature="0" style="fill:#550000;fill-opacity:1;fill-rule:nonzero;stroke:#f9f9f9;stroke-width:0.1;stroke-miterlimit:4;stroke-dasharray:none" transform="translate(-9216, -12288)"/><path d="m 9424.1866,12894.487 c 47.1424,-3.599 93.7398,-12.706 140.3796,-20.222 83.0399,-13.747 166.7582,-22.492 250.5403,-30.152 63.7807,-5.613 127.618,-10.538 191.4755,-15.18 12.532,-0.935 25.079,-1.509 37.463,-3.7 18.363,-2.414 29.744,84.151 11.381,86.565 l 0,0 c -14.442,1.522 -28.91,2.413 -43.428,2.923 -63.1813,3.378 -126.3089,7.677 -189.3542,13.043 -81.7021,7.251 -163.3393,15.775 -244.1812,29.938 -50.5977,8.703 -101.0388,19.091 -152.14,24.364 -18.5783,0.454 -20.7144,-87.125 -2.136,-87.579 z" id="path23081" inkscape:connector-curvature="0" style="fill:#550000;fill-opacity:1;fill-rule:nonzero;stroke:#f9f9f9;stroke-width:0.1;stroke-miterlimit:4;stroke-dasharray:none" transform="translate(-9216, -12288)"/><path d="m 9802.9377,12540.193 c -15.7784,40.747 -27.2371,83.037 -39.409,124.959 -23.3533,82.812 -49.5448,164.751 -77.951,245.957 -24.1003,67.431 -50.8959,133.847 -76.6416,200.656 -8.946,22.997 -17.0733,46.298 -25.8631,69.353 -6.7614,17.139 -87.5582,-14.734 -80.7968,-31.874 l 0,0 c 9.3371,-22.805 17.8774,-45.925 27.1399,-68.761 26.2806,-65.475 53.2127,-130.715 77.1195,-197.109 27.9928,-79.524 53.562,-159.863 75.4577,-241.299 12.2901,-44.559 24.0376,-89.338 39.0274,-133.088 6.6199,-17.378 88.5369,13.829 81.917,31.206 z" id="path23083" inkscape:connector-curvature="0" style="fill:#550000;fill-opacity:1;fill-rule:nonzero;stroke:#f9f9f9;stroke-width:0.1;stroke-miterlimit:4;stroke-dasharray:none" transform="translate(-9216, -12288)"/><path d="m 9724.7165,12999.192 c 19.4353,20.452 43.6353,33.969 68.946,45.703 47.3098,19.387 97.4375,30.365 146.5201,44.192 28.4564,7.47 55.3279,18.849 81.1884,32.672 16.085,8.909 -25.9121,84.735 -41.9973,75.826 l 0,0 c -19.6818,-11.509 -40.6476,-20.089 -62.6664,-26.175 -53.2791,-15.389 -107.8092,-27.199 -159.1851,-48.512 -33.3827,-15.461 -65.2679,-33.359 -92.0037,-59.056 -13.7144,-12.558 45.4836,-77.208 59.198,-64.65 z" id="path23085" inkscape:connector-curvature="0" style="fill:#550000;fill-opacity:1;fill-rule:nonzero;stroke:#f9f9f9;stroke-width:0.1;stroke-miterlimit:4;stroke-dasharray:none" transform="translate(-9216, -12288)"/></svg>