<?xml version="1.0" encoding="utf-8" ?>

<!DOCTYPE svg PUBLIC "-//W3C//DTD SVG 1.1//EN" 
  "http://www.w3.org/Graphics/SVG/1.1/DTD/svg11.dtd">
<svg 
    xmlns="http://www.w3.org/2000/svg"
    xmlns:xlink="http://www.w3.org/1999/xlink"
    xmlns:sodipodi="http://sodipodi.sourceforge.net/DTD/sodipodi-0.dtd"
    xmlns:inkscape="http://www.inkscape.org/namespaces/inkscape"
    width="1024" height="1024" id="U591A">
<path d="m 11697.855,10423.071 c -22.32,31.428 -43.552,63.621 -64.835,95.757 -27.145,41.219 -54.15,82.537 -80.424,124.318 -10.315,16.44 -20.144,33.171 -28.763,50.562 -8.526,16.393 -85.801,-23.799 -77.275,-40.191 l 0,0 c 10.391,-19.268 21.544,-38.099 33.413,-56.498 26.888,-41.93 54.332,-83.5 81.486,-125.257 21.387,-32.742 42.885,-65.411 64.165,-98.222 10.507,-15.323 82.74,34.208 72.233,49.531 z" id="path22583" inkscape:connector-curvature="0" style="fill:#550000;fill-opacity:1;fill-rule:nonzero;stroke:#f9f9f9;stroke-width:0.1;stroke-miterlimit:4;stroke-dasharray:none" transform="translate(-11264, -10240)"/><path d="m 11581.726,10461.91 c 38.603,-14.403 79.365,-20.583 120.13,-24.868 45.352,-3.829 90.913,-3.115 136.242,0.441 22.645,4.062 51.283,2.302 70.91,16.762 6.247,4.603 11.236,10.704 16.854,16.055 3.024,9.592 8.317,18.746 9.072,28.774 2.587,34.391 -33.339,65.718 -53.998,88.344 -37.888,40.217 -75.228,80.938 -112.25,121.953 -30.301,33.369 -59.611,67.608 -88.648,102.075 -14.378,18.218 -29.6,35.267 -48.121,49.278 -15.183,10.646 -65.369,-60.927 -50.186,-71.573 l 0,0 c 14.161,-5.316 21.111,-25.094 32.564,-33.824 30.02,-34.711 60.15,-69.328 91.103,-103.215 37.062,-40.87 74.335,-81.546 111.564,-122.263 9.907,-11.192 14.244,-15.805 23.197,-26.864 2.017,-2.492 3.776,-5.192 5.862,-7.627 0.379,-0.443 1.39,-1.516 1.475,-0.939 3.77,25.517 -8.619,-7.805 8.289,28.612 3.515,2.558 6.831,5.417 10.547,7.674 0.694,0.421 3.037,0.739 2.425,0.205 -7.585,-6.614 -29.082,-4.193 -37.975,-7.311 -39.867,-3.691 -79.996,-4.466 -119.935,-1.154 -32.443,3.422 -65.133,8.026 -95.586,20.342 -17.157,7.113 -50.691,-73.763 -33.535,-80.877 z" id="path22585" inkscape:connector-curvature="0" style="fill:#550000;fill-opacity:1;fill-rule:nonzero;stroke:#f9f9f9;stroke-width:0.1;stroke-miterlimit:4;stroke-dasharray:none" transform="translate(-11264, -10240)"/><path d="m 11606.431,10587.191 c 29.927,11.099 56.405,29.2 82.62,47.033 18.881,13.106 37.799,26.154 57.484,38.029 15.728,9.668 -29.848,83.811 -45.576,74.143 l 0,0 c -20.622,-12.873 -40.632,-26.659 -60.581,-40.548 -19.207,-13.038 -38.449,-26.797 -60.302,-35.075 -17.731,-5.59 8.624,-89.173 26.355,-83.582 z" id="path22587" inkscape:connector-curvature="0" style="fill:#550000;fill-opacity:1;fill-rule:nonzero;stroke:#f9f9f9;stroke-width:0.1;stroke-miterlimit:4;stroke-dasharray:none" transform="translate(-11264, -10240)"/><path d="m 11973.939,10671 c -26.112,33.202 -53.869,65.047 -81.787,96.727 -40.379,44.327 -79.142,90.023 -115.461,137.731 -14.035,18.674 -27.292,37.904 -39.996,57.501 -10.308,15.301 -82.438,-33.291 -72.13,-48.592 l 0,0 c 14.394,-20.642 29.031,-41.118 44.383,-61.063 37.889,-48.697 77.797,-95.711 118.945,-141.688 26.243,-30.341 52.59,-60.717 76.025,-93.319 11.18,-14.854 81.201,37.85 70.021,52.703 z" id="path22589" inkscape:connector-curvature="0" style="fill:#550000;fill-opacity:1;fill-rule:nonzero;stroke:#f9f9f9;stroke-width:0.1;stroke-miterlimit:4;stroke-dasharray:none" transform="translate(-11264, -10240)"/><path d="m 11806.772,10754.946 c 29.414,-18.468 63.473,-24.005 97.402,-27.308 37.03,-2.468 74.173,-0.95 111.127,1.915 21.029,3.237 45.64,2.198 64.43,14.003 5.604,3.52 10.382,8.209 15.574,12.314 4.081,8.167 10.23,15.597 12.242,24.503 6.973,30.876 -17.223,57.249 -34.374,79.393 -25.426,32.632 -49.719,66.12 -74.736,99.065 -39.945,52.567 -83.025,102.608 -127.102,151.721 -39.797,43.965 -81.38,86.276 -125.071,126.37 -23.162,21.492 -44.045,36.457 -74.54,44.98 -18.16,3.771 -35.936,-81.836 -17.776,-85.607 l 0,0 c -10.76,11.096 49.3,-29.93 34.667,-23.163 42.111,-37.427 81.838,-77.424 119.688,-119.157 42.446,-47.282 83.767,-95.606 121.728,-146.604 24.85,-33.354 49.001,-67.224 74.217,-100.305 0.05,-0.07 16.771,-23.035 16.913,-23.078 1.06,-0.327 -0.323,2.213 -0.246,3.321 0.33,4.758 -0.253,9.784 1.464,14.233 2.207,5.717 6.659,10.29 9.988,15.435 2.858,1.702 5.598,3.618 8.574,5.104 0.389,0.194 1.651,0.07 1.293,-0.178 -9.162,-6.349 -24.088,-2.653 -34.071,-5.972 -31.817,-2.814 -63.825,-4.244 -95.74,-2.161 -19.127,1.791 -39.141,3.595 -56.079,13.501 -15.343,10.516 -64.914,-61.809 -49.572,-72.325 z" id="path22591" inkscape:connector-curvature="0" style="fill:#550000;fill-opacity:1;fill-rule:nonzero;stroke:#f9f9f9;stroke-width:0.1;stroke-miterlimit:4;stroke-dasharray:none" transform="translate(-11264, -10240)"/><path d="m 11752.639,10905.295 c 28.984,13.021 57.732,26.509 86.009,41.003 21.391,12.057 10.909,5.739 31.453,18.943 15.389,10.05 -31.989,82.593 -47.378,72.543 l 0,0 c -14.868,-9.931 -7.025,-5.04 -23.595,-14.567 -26.265,-13.531 -52.991,-26.153 -80.412,-37.185 -17.127,-7.196 16.796,-87.933 33.923,-80.737 z" id="path22593" inkscape:connector-curvature="0" style="fill:#550000;fill-opacity:1;fill-rule:nonzero;stroke:#f9f9f9;stroke-width:0.1;stroke-miterlimit:4;stroke-dasharray:none" transform="translate(-11264, -10240)"/></svg>