<?xml version="1.0" encoding="utf-8" ?>

<!DOCTYPE svg PUBLIC "-//W3C//DTD SVG 1.1//EN" 
  "http://www.w3.org/Graphics/SVG/1.1/DTD/svg11.dtd">
<svg 
    xmlns="http://www.w3.org/2000/svg"
    xmlns:xlink="http://www.w3.org/1999/xlink"
    xmlns:sodipodi="http://sodipodi.sourceforge.net/DTD/sodipodi-0.dtd"
    xmlns:inkscape="http://www.inkscape.org/namespaces/inkscape"
    width="1024" height="1024" id="U5916">
<path d="m 7501.1975,50446.273 c -19.4227,45.162 -35.5084,91.693 -51.8673,138.029 -18.9065,54.225 -37.6559,108.585 -51.674,164.311 -0.9349,4.903 -1.8697,9.806 -2.8046,14.71 -3.8478,18.123 -89.2795,-0.02 -85.4317,-18.139 l 0,0 c 1.4269,-6.22 2.8538,-12.441 4.2808,-18.661 15.7549,-57.615 35.2041,-114.107 54.7444,-170.529 16.7719,-48.342 33.3945,-96.755 51.6269,-144.57 7.3928,-17.21 88.5182,17.64 81.1255,34.849 z" id="path12608" inkscape:connector-curvature="0" style="fill:#501616;fill-opacity:1;fill-rule:nonzero;stroke:#f9f9f9;stroke-width:0.1;stroke-miterlimit:4;stroke-dasharray:none" transform="translate(-7168, -50176)"/><path d="m 7425.4415,50547.031 c 36.289,-9.694 73.4,-14.271 110.8778,-14.881 52.4421,2.771 81.8502,14.813 116.9713,53.902 28.1608,38.559 32.151,84.035 30.0619,130.168 -3.8166,49.117 -20.3833,95.402 -39.5623,140.322 -19.2723,43.37 -43.3339,84.296 -69.7744,123.624 -16.8584,24.14 -35.1752,47.265 -54.8162,69.197 -9.5389,11.059 -20.9507,19.924 -33.0357,27.967 -15.8312,10.059 -63.2519,-64.57 -47.4207,-74.629 l 0,0 c 5.9076,-3.097 10.7543,-7.668 15.2685,-12.539 17.2059,-18.607 33.1637,-38.378 47.9837,-58.932 23.7037,-34.463 45.0677,-70.511 62.1069,-108.779 15.2055,-35.459 28.7771,-71.918 32.2807,-110.67 1.4057,-23.57 1.7261,-47.928 -10.0221,-69.233 -11.5236,-16.829 -29.1676,-22.348 -49.1749,-23.249 -29.6645,0.03 -59.1128,4.064 -87.5466,12.752 -18.0354,5.133 -42.2334,-79.887 -24.1979,-85.02 z" id="path12614" inkscape:connector-curvature="0" style="fill:#501616;fill-opacity:1;fill-rule:nonzero;stroke:#f9f9f9;stroke-width:0.1;stroke-miterlimit:4;stroke-dasharray:none" transform="translate(-7168, -50176)"/><path d="m 7453.969,50739.098 c 14.3535,20.787 34.3569,36.517 54.785,50.928 13.6792,9.559 28.5942,16.962 43.5301,24.278 16.5666,8.227 -22.2136,86.323 -38.7802,78.096 l 0,0 c -18.93,-9.501 -37.8268,-19.123 -55.2185,-31.325 -29.2141,-20.857 -57.1672,-43.812 -78.2303,-73.242 -10.3382,-15.68 63.5757,-64.414 73.9139,-48.735 z" id="path12616" inkscape:connector-curvature="0" style="fill:#501616;fill-opacity:1;fill-rule:nonzero;stroke:#f9f9f9;stroke-width:0.1;stroke-miterlimit:4;stroke-dasharray:none" transform="translate(-7168, -50176)"/><path d="m 7835.5289,50459.322 c -1.8176,51.67 0.9123,103.395 2.5461,155.04 3.0467,85.458 2.5371,170.971 1.6477,256.459 -1.0767,60.025 -0.9712,120.052 1.2876,180.045 1.2745,21.835 0.4813,11.639 2.2359,30.597 1.4126,18.53 -85.9384,25.189 -87.351,6.659 l 0,0 c -1.3787,-22.036 -0.7887,-10.464 -1.6861,-34.721 -1.2911,-61.218 -0.7735,-122.44 0.6614,-183.654 1.2556,-84.079 1.8859,-168.2 -1.9228,-252.231 -2.2744,-53.55 -5.3728,-107.092 -5.7485,-160.7 0.5316,-18.738 88.8612,-16.232 88.3297,2.506 z" id="path12622" inkscape:connector-curvature="0" style="fill:#501616;fill-opacity:1;fill-rule:nonzero;stroke:#f9f9f9;stroke-width:0.1;stroke-miterlimit:4;stroke-dasharray:none" transform="translate(-7168, -50176)"/><path d="m 7840.5204,50697.446 c 31.2787,12.637 62.5652,25.268 94.0507,37.383 28.4987,10.735 57.2846,20.653 85.5261,32.058 17.175,7.104 -16.3152,88.068 -33.4902,80.963 l 0,0 c -27.3265,-11.618 -55.3714,-21.348 -83.146,-31.826 -31.5683,-12.047 -62.9033,-24.72 -94.7585,-36.003 -17.5168,-6.749 14.3011,-89.324 31.8179,-82.575 z" id="path12624" inkscape:connector-curvature="0" style="fill:#501616;fill-opacity:1;fill-rule:nonzero;stroke:#f9f9f9;stroke-width:0.1;stroke-miterlimit:4;stroke-dasharray:none" transform="translate(-7168, -50176)"/></svg>