<?xml version="1.0" encoding="utf-8" ?>

<!DOCTYPE svg PUBLIC "-//W3C//DTD SVG 1.1//EN" 
  "http://www.w3.org/Graphics/SVG/1.1/DTD/svg11.dtd">
<svg 
    xmlns="http://www.w3.org/2000/svg"
    xmlns:xlink="http://www.w3.org/1999/xlink"
    xmlns:sodipodi="http://sodipodi.sourceforge.net/DTD/sodipodi-0.dtd"
    xmlns:inkscape="http://www.inkscape.org/namespaces/inkscape"
    width="1024" height="1024" id="U590F">
<path d="m 7408.5496,53374.52 c 43.3745,-12.552 88.5734,-14.779 133.4217,-16.049 59.4836,-0.738 118.8535,3.604 178.1686,7.456 39.8098,2.43 79.6548,4.318 119.3909,7.805 11.0651,0.608 21.9058,2.403 32.7258,4.661 18.2371,4.408 -2.5438,90.378 -20.7809,85.97 l 0,0 c -6.4151,-2.594 -13.6999,-2.068 -20.3845,-3.377 -38.8328,-4.141 -77.832,-6.287 -116.7856,-8.952 -56.4652,-3.987 -113.0092,-8.347 -169.6624,-7.371 -36.7423,1.251 -74.103,2.696 -109.3666,14.149 -17.8812,5.67 -44.6082,-78.623 -26.727,-84.292 z" id="path13354" inkscape:connector-curvature="0" style="fill:#501616;fill-opacity:1;fill-rule:nonzero;stroke:#f9f9f9;stroke-width:0.1;stroke-miterlimit:4;stroke-dasharray:none" transform="translate(-7168, -53248)"/><path d="m 7682.6888,53426.833 c -22.7322,31.268 -39.5823,66.394 -57.1328,100.713 -21.5257,42.496 -42.442,85.317 -65.7475,126.877 -9.2144,16.063 -84.9362,-27.374 -75.7218,-43.437 l 0,0 c 23.4237,-39.806 43.7284,-81.319 64.4789,-122.556 19.85,-39.32 39.0817,-79.263 64.1865,-115.583 11.4522,-14.836 81.3889,39.15 69.9367,53.986 z" id="path13356" inkscape:connector-curvature="0" style="fill:#501616;fill-opacity:1;fill-rule:nonzero;stroke:#f9f9f9;stroke-width:0.1;stroke-miterlimit:4;stroke-dasharray:none" transform="translate(-7168, -53248)"/><path d="m 7492.7557,53613.719 c -2.9371,36.237 -2.4344,72.621 -1.431,108.925 1.2085,42.412 6.3976,84.511 13.5926,126.278 3.166,18.047 7.6938,35.797 12.5803,53.44 4.7972,18.013 -80.1169,40.628 -84.9142,22.615 l 0,0 c -5.2436,-20.391 -10.1336,-40.883 -13.5641,-61.671 -7.4544,-45.714 -12.8791,-91.744 -14.3258,-138.082 -1.2371,-38.892 -1.718,-77.801 -0.1759,-116.696 1.101,-18.718 89.3391,-13.528 88.2381,5.191 z" id="path13358" inkscape:connector-curvature="0" style="fill:#501616;fill-opacity:1;fill-rule:nonzero;stroke:#f9f9f9;stroke-width:0.1;stroke-miterlimit:4;stroke-dasharray:none" transform="translate(-7168, -53248)"/><path d="m 7461.3384,53588.105 c 30.6518,-26.227 68.9049,-39.751 106.7082,-51.96 39.7766,-12.702 80.7535,-20.033 122.4019,-21.974 29.1628,-0.08 59.9136,2.957 84.2627,20.753 5.2752,3.855 9.699,8.757 14.5484,13.136 27.2334,32.707 30.0766,74.291 31.2701,115.034 -0.1327,43.418 -4.9078,86.63 -8.3721,129.863 -1.9337,25.339 -3.2191,50.748 -1.8948,76.145 0.708,10.407 0.382,5.153 0.9743,15.762 0.9185,18.713 -87.2968,23.043 -88.2152,4.33 l 0,0 c -0.4243,-10.234 -0.1697,-4.738 -0.7896,-16.485 -0.949,-29.048 0.6023,-58.067 3.1321,-87.011 3.4775,-39.941 7.9757,-79.891 8.0821,-120.028 -0.5601,-18.692 -1.5134,-37.338 -6.5374,-55.433 1.6673,-9.544 -29.1259,-8.203 -33.0939,-8.699 -33.7402,0.916 -66.8796,7.285 -99.0947,17.352 -25.2035,8.105 -51.607,16.251 -72.3782,33.348 -13.6045,12.94 -74.6084,-51.192 -61.0039,-64.133 z" id="path13360" inkscape:connector-curvature="0" style="fill:#501616;fill-opacity:1;fill-rule:nonzero;stroke:#f9f9f9;stroke-width:0.1;stroke-miterlimit:4;stroke-dasharray:none" transform="translate(-7168, -53248)"/><path d="m 7512.9452,53687.203 c 36.7734,-8.147 74.4117,-11.359 111.8926,-14.268 24.7371,-1.877 49.5303,-2.577 74.3301,-2.601 18.5857,0.156 17.8507,87.77 -0.735,87.614 l 0,0 c -22.302,-0.433 -44.6094,-0.02 -66.8651,1.617 -31.6413,2.461 -63.5407,5.051 -94.4064,12.812 -18.0682,5.137 -42.2844,-80.037 -24.2162,-85.174 z" id="path13362" inkscape:connector-curvature="0" style="fill:#501616;fill-opacity:1;fill-rule:nonzero;stroke:#f9f9f9;stroke-width:0.1;stroke-miterlimit:4;stroke-dasharray:none" transform="translate(-7168, -53248)"/><path d="m 7528.1764,53776.822 c 32.8017,-6.229 66.0515,-8.119 99.3663,-8.193 18.1528,-0.04 36.1482,2.045 54.1137,4.345 18.404,2.477 6.7233,89.235 -11.6807,86.757 l 0,0 c -14.0586,-2.017 -28.1484,-3.798 -42.3878,-3.817 -27.8872,-0.04 -55.8166,1.388 -83.0606,7.865 -18.4464,3.469 -34.7973,-83.489 -16.3509,-86.957 z" id="path13364" inkscape:connector-curvature="0" style="fill:#501616;fill-opacity:1;fill-rule:nonzero;stroke:#f9f9f9;stroke-width:0.1;stroke-miterlimit:4;stroke-dasharray:none" transform="translate(-7168, -53248)"/><path d="m 7473.6296,53893.974 c 40.9893,-9.355 82.16,-17.748 123.5579,-25.077 46.0831,-7.627 92.404,-14.143 139.0654,-16.723 18.5248,-0.822 22.3962,86.505 3.8713,87.327 l 0,0 c -42.8852,1.323 -85.4353,7.506 -127.7285,14.446 -39.471,7.133 -78.7858,15.189 -117.4805,25.835 -18.2025,4.515 -39.4881,-81.292 -21.2856,-85.808 z" id="path13366" inkscape:connector-curvature="0" style="fill:#501616;fill-opacity:1;fill-rule:nonzero;stroke:#f9f9f9;stroke-width:0.1;stroke-miterlimit:4;stroke-dasharray:none" transform="translate(-7168, -53248)"/><path d="m 7540.2505,54047.874 c -10.6161,28.017 -18.6034,56.936 -26.5091,85.806 -8.1634,31.108 -15.2108,62.512 -20.7108,94.201 -3.3622,18.313 -89.693,2.463 -86.3307,-15.85 l 0,0 c 6.5406,-33.992 14.1944,-67.766 22.9772,-101.25 8.4551,-31.199 17.1358,-62.348 27.3365,-93.03 6.3903,-17.658 89.6271,12.466 83.2369,30.123 z" id="path13374" inkscape:connector-curvature="0" style="fill:#501616;fill-opacity:1;fill-rule:nonzero;stroke:#f9f9f9;stroke-width:0.1;stroke-miterlimit:4;stroke-dasharray:none" transform="translate(-7168, -53248)"/><path d="m 7488.7358,54016.958 c 40.4079,-9.461 81.4409,-15.651 122.6364,-20.394 46.9489,-5.147 94.0421,-4.507 140.1422,5.911 34.72,10.34 66.5546,32.324 72.0648,70.943 1.1214,7.86 -0.2797,15.876 -0.4195,23.814 -9.2256,44.184 -40.2243,76.592 -70.7894,107.719 -34.3354,33.903 -72.1996,63.864 -110.6685,92.875 -32.0158,24.374 -65.8416,46.105 -100.8524,65.877 -10.6638,6.045 -21.6889,11.343 -32.8581,16.365 -17.1799,7.413 -52.1256,-73.574 -34.9456,-80.987 l 0,0 c 8.6579,-3.479 17.0495,-7.512 25.2724,-11.933 31.7879,-17.33 62.395,-36.651 91.2474,-58.576 35.0345,-26.326 69.5219,-53.525 100.6682,-84.451 16.6992,-17.12 33.3869,-34.37 45.3546,-55.244 11.2164,13.323 10.2034,2.732 -4.6675,-1.459 -35.6972,-9.668 -73.0295,-8.11 -109.5691,-4.832 -36.8573,4.312 -73.6948,9.778 -109.5238,19.684 -18.0975,4.899 -41.1896,-80.413 -23.0921,-85.312 z" id="path13384" inkscape:connector-curvature="0" style="fill:#501616;fill-opacity:1;fill-rule:nonzero;stroke:#f9f9f9;stroke-width:0.1;stroke-miterlimit:4;stroke-dasharray:none" transform="translate(-7168, -53248)"/><path d="m 7546.3939,54086.41 c 26.767,25.192 56.356,46.999 86.772,67.521 43.9839,28.633 90.8611,52.41 138.415,74.452 32.0195,14.763 65.4053,25.973 99.4771,34.837 17.8531,4.792 -4.7396,88.953 -22.5927,84.16 l 0,0 c -38.777,-10.68 -76.843,-23.726 -113.3348,-40.784 -51.5155,-24.128 -102.3989,-49.899 -150.2086,-80.859 -33.4644,-22.399 -65.9137,-46.196 -96.4769,-72.463 -14.184,-12.293 43.7649,-79.157 57.9489,-66.864 z" id="path13388" inkscape:connector-curvature="0" style="fill:#501616;fill-opacity:1;fill-rule:nonzero;stroke:#f9f9f9;stroke-width:0.1;stroke-miterlimit:4;stroke-dasharray:none" transform="translate(-7168, -53248)"/></svg>