<?xml version="1.0" encoding="utf-8" ?>

<!DOCTYPE svg PUBLIC "-//W3C//DTD SVG 1.1//EN" 
  "http://www.w3.org/Graphics/SVG/1.1/DTD/svg11.dtd">
<svg 
    xmlns="http://www.w3.org/2000/svg"
    xmlns:xlink="http://www.w3.org/1999/xlink"
    xmlns:sodipodi="http://sodipodi.sourceforge.net/DTD/sodipodi-0.dtd"
    xmlns:inkscape="http://www.inkscape.org/namespaces/inkscape"
    width="1024" height="1024" id="U592A">
<path d="m 10424.773,47581.284 c 39.297,7.246 79.762,4.557 119.442,2.819 77.093,-4.408 154.02,-11.291 230.969,-17.664 64.603,-5.615 129.347,-9.321 194.198,-9.415 20.321,0.106 40.625,0.954 60.93,1.677 18.669,1.03 13.813,89.035 -4.856,88.005 l 0,0 c -18.858,-1.422 -37.734,-2.621 -56.647,-3.037 -62.326,-0.955 -124.583,2.217 -186.689,7.444 -77.882,6.31 -155.707,13.394 -233.667,18.686 -48.473,2.654 -97.695,5.905 -145.752,-2.903 -18.162,-4.682 3.91,-90.294 22.072,-85.612 z" id="path11640" inkscape:connector-curvature="0" style="fill:#782121;fill-opacity:1;fill-rule:nonzero;stroke:#f9f9f9;stroke-width:0.1;stroke-miterlimit:4;stroke-dasharray:none" transform="translate(-10240, -47104)"/><path d="m 10744.504,47412.725 c -19.869,43.201 -32.807,89.305 -46.99,134.59 -26.01,86.807 -54.976,172.629 -87.608,257.162 -24.553,62.06 -53.002,122.465 -82.443,182.325 -6.159,12.696 -12.781,25.135 -19.903,37.31 -9.965,15.861 -84.734,-31.111 -74.769,-46.972 l 0,0 c 6.62,-9.287 11.827,-19.435 17.221,-29.467 29.473,-56.758 57.172,-114.478 81.071,-173.831 32.272,-82.453 60.593,-166.317 85.026,-251.441 14.998,-50.156 28.747,-100.986 49.242,-149.252 8.396,-16.791 87.549,22.785 79.153,39.576 z" id="path11642" inkscape:connector-curvature="0" style="fill:#782121;fill-opacity:1;fill-rule:nonzero;stroke:#f9f9f9;stroke-width:0.1;stroke-miterlimit:4;stroke-dasharray:none" transform="translate(-10240, -47104)"/><path d="m 10763.195,47693.446 c 28.428,20.01 56.512,40.507 84.677,60.885 38.361,27.332 75.51,56.24 111.43,86.695 27.772,23.978 54.793,48.82 79.851,75.634 2.834,3.363 5.668,6.725 8.503,10.088 11.823,14.445 -56.274,70.179 -68.097,55.733 l 0,0 c -1.684,-2.158 -3.368,-4.316 -5.052,-6.474 -22.141,-24.655 -46.581,-47.063 -71.491,-68.884 -33.975,-29.07 -69.256,-56.507 -105.822,-82.26 -26.991,-19.259 -53.844,-38.763 -81.611,-56.894 -15.809,-10.1 31.803,-84.623 47.612,-74.523 z" id="path11644" inkscape:connector-curvature="0" style="fill:#782121;fill-opacity:1;fill-rule:nonzero;stroke:#f9f9f9;stroke-width:0.1;stroke-miterlimit:4;stroke-dasharray:none" transform="translate(-10240, -47104)"/><path d="m 10720.09,47888.398 c 28.228,21.339 54.308,45.263 80.112,69.421 15.877,14.697 8.138,7.859 23.133,20.606 14.047,12.126 -43.117,78.345 -57.164,66.218 l 0,0 c -17.391,-15.201 -8.832,-7.454 -25.678,-23.242 -22.832,-21.511 -45.817,-43.067 -71.656,-60.989 -15.277,-10.873 35.976,-82.887 51.253,-72.014 z" id="path11646" inkscape:connector-curvature="0" style="fill:#782121;fill-opacity:1;fill-rule:nonzero;stroke:#f9f9f9;stroke-width:0.1;stroke-miterlimit:4;stroke-dasharray:none" transform="translate(-10240, -47104)"/></svg>