<?xml version="1.0" encoding="UTF-8" standalone="no"?>
<svg
   xmlns:dc="http://purl.org/dc/elements/1.1/"
   xmlns:cc="http://creativecommons.org/ns#"
   xmlns:rdf="http://www.w3.org/1999/02/22-rdf-syntax-ns#"
   xmlns:svg="http://www.w3.org/2000/svg"
   xmlns="http://www.w3.org/2000/svg"
   xmlns:sodipodi="http://sodipodi.sourceforge.net/DTD/sodipodi-0.dtd"
   xmlns:inkscape="http://www.inkscape.org/namespaces/inkscape"
   width="1024"
   height="1024"
   id="U5976"
   version="1.1"
   inkscape:version="0.48.0 r9654"
   sodipodi:docname="U+5976.svg">
  <metadata
     id="metadata11">
    <rdf:RDF>
      <cc:Work
         rdf:about="">
        <dc:format>image/svg+xml</dc:format>
        <dc:type
           rdf:resource="http://purl.org/dc/dcmitype/StillImage" />
      </cc:Work>
    </rdf:RDF>
  </metadata>
  <defs
     id="defs9" />
  <sodipodi:namedview
     pagecolor="#ffffff"
     bordercolor="#666666"
     borderopacity="1"
     objecttolerance="10"
     gridtolerance="10"
     guidetolerance="10"
     inkscape:pageopacity="0"
     inkscape:pageshadow="2"
     inkscape:window-width="640"
     inkscape:window-height="480"
     id="namedview7"
     showgrid="false"
     inkscape:zoom="0.27441406"
     inkscape:cx="512"
     inkscape:cy="512"
     inkscape:window-x="0"
     inkscape:window-y="25"
     inkscape:window-maximized="0"
     inkscape:current-layer="U5976" />
  <path
     style="fill:#c83737;fill-opacity:1;fill-rule:nonzero;stroke:#f9f9f9;stroke-width:0.1;stroke-miterlimit:4;stroke-dasharray:none"
     d="M 703.40625 303.75 C 701.07357 303.74081 698.73937 303.75462 696.40625 303.78125 C 667.41365 304.40325 638.5499 307.067 609.9375 311.875 C 583.531 315.905 557.0939 319.74975 530.5 322.34375 C 513.76965 324.47315 521.09206 395.51012 536.25 408.25 C 531.24818 427.88881 525.69902 447.4173 520.15625 466.90625 C 500.79265 531.48925 484.3501 596.8465 471.0625 662.9375 C 462.45489 708.89654 455.43847 755.147 449.8125 801.5625 C 442.49558 790.57256 434.90373 779.77803 426.65625 769.4375 C 404.57339 742.11445 381.70149 715.44966 358.125 689.40625 C 361.95509 683.99582 365.81346 678.59872 369.6875 673.21875 C 395.7889 636.21775 422.8247 599.75375 446.0625 560.84375 C 458.0798 539.01375 469.75785 516.26925 470.28125 490.78125 C 469.06465 473.43825 464.71535 457.0445 453.65625 443.1875 C 445.37275 432.7595 435.7566 423.71075 422.6875 419.71875 C 415.3948 417.49575 408.0347 415.43325 400.5625 413.90625 C 385.7093 410.90925 370.85315 407.708 355.71875 406.5 C 332.50348 405.14735 309.36233 406.29053 286.3125 408.78125 C 298.11249 384.08971 309.18821 359.06864 317.59375 333.03125 C 322.10885 314.83825 236.3276 293.557 231.8125 311.75 C 220.7537 347.755 203.254 381.5025 186.875 415.3125 C 185.81883 417.58381 184.73726 419.83556 183.65625 422.09375 C 166.64774 424.04822 149.62357 425.73573 132.53125 426.875 C 103.78755 428.706 75.03225 430.166 46.28125 431.875 C 27.55295 433.167 33.6467 521.4785 52.375 520.1875 C 79.996157 517.57582 107.70243 516.00355 135.375 514.03125 C 123.92339 537.77784 122.32246 558.08939 131.3125 584.125 C 145.4546 608.501 169.4628 624.7915 190.5625 642.8125 C 210.45625 660.12383 229.15589 678.65998 247.375 697.6875 C 236.16962 714.02303 225.0096 730.37575 213.90625 746.78125 C 199.40865 768.52725 182.42835 788.39875 166.53125 809.09375 C 161.79175 815.43275 157.18515 821.89775 152.59375 828.34375 C 141.86705 843.80175 214.74205 894.36425 225.46875 878.90625 C 229.27265 873.26225 233.1239 867.64475 237.0625 862.09375 C 253.4226 839.76175 271.18375 818.45125 286.21875 795.15625 C 293.29904 784.44411 300.38679 773.7319 307.53125 763.0625 C 325.07901 782.98228 342.20273 803.29316 358.78125 824.03125 C 375.30645 845.30425 388.8501 868.601 402.9375 891.5 C 405.9443 896.501 409.10345 901.56075 411.46875 906.84375 C 418.17185 921.06506 475.26641 897.01692 489.25 878.78125 C 512.37077 877.43465 536.12981 870.87655 535.375 861.0625 C 535.3386 860.9955 535.31825 860.945 535.28125 860.875 C 535.22675 860.241 535.14775 859.60275 535.09375 858.96875 C 534.56515 843.33475 535.3726 827.714 536.625 812.125 C 541.1843 767.742 547.40045 723.51075 555.28125 679.59375 C 567.68045 615.86175 583.5106 552.91425 602.8125 490.90625 C 611.99435 459.91968 621.00841 428.8689 628.625 397.46875 C 651.45899 393.86504 674.47389 391.84613 697.59375 391.78125 C 700.84041 391.8014 704.09696 391.86401 707.34375 391.9375 C 700.40966 403.25143 693.44344 414.55426 686.46875 425.84375 C 672.93195 447.70375 659.882 469.855 647.25 492.25 C 637.3867 509.111 628.13825 527.70975 635.53125 548.09375 C 638.54475 556.40275 645.4661 562.72325 650.4375 570.03125 C 669.6722 583.68325 691.24115 583.55825 713.59375 585.40625 C 738.64785 587.08225 763.76105 587.6385 788.78125 589.8125 C 806.51805 591.1495 823.57155 595.1015 839.34375 603.3125 C 846.67895 607.9045 854.8092 612.31025 859.875 619.40625 C 858.2195 619.08025 858.4782 624.03725 858.25 625.53125 C 854.5978 646.63625 846.57935 666.70275 838.59375 686.46875 C 822.71385 724.15675 803.12725 760.13475 783.28125 795.84375 C 768.31875 822.53875 752.40315 848.9795 730.21875 870.3125 C 727.43205 872.1675 724.05905 876.3525 720.21875 876.3125 C 703.28875 884.3385 741.1326 964.152 758.0625 956.125 C 770.6519 949.55 782.6467 942.59925 792.5625 932.15625 C 819.4731 904.24025 840.8602 872.0725 859.1875 837.9375 C 880.6495 799.1855 901.9537 760.21675 919.4375 719.46875 C 931.2485 690.81675 942.92455 661.57125 946.40625 630.53125 C 947.30315 606.41425 943.6797 583.62075 928.75 563.84375 C 914.5825 547.27875 897.5344 534.14675 878.0625 524.21875 C 852.1974 511.94975 824.96545 504.35725 796.28125 502.40625 C 779.04254 500.94892 761.76467 500.09583 744.5 499.09375 C 749.83433 489.94881 755.26792 480.86213 760.8125 471.84375 C 775.1464 448.72175 789.62075 425.6825 804.15625 402.6875 C 822.14265 373.1445 828.5817 349.957 801.75 321.25 C 784.3531 311.519 771.8041 308.22375 752.3125 306.46875 C 736.07434 304.759 719.73498 303.81433 703.40625 303.75 z M 758.28125 397 C 758.812 397.09915 760.625 397.4375 760.625 397.4375 C 760.43173 397.7154 759.52879 397.47704 758.28125 397 z M 329.25 493.4375 C 335.99637 493.40366 342.75 493.66125 349.5 494.28125 C 359.23141 495.48299 368.80928 497.64399 378.375 499.78125 C 375.6787 506.28354 372.58916 512.35915 369.15625 518.65625 C 347.92975 555.01525 323.0872 589.11075 299 623.59375 C 298.63661 624.10487 298.26942 624.61373 297.90625 625.125 C 281.72297 608.51834 265.1656 592.29397 247.875 576.8125 C 240.68578 570.47088 224.92048 555.31638 216.46875 548.5 C 224.1857 533.07007 232.21149 517.78894 240.15625 502.46875 C 249.67914 501.20838 259.19596 499.96576 268.71875 498.71875 C 288.80203 496.17175 309.0109 493.53903 329.25 493.4375 z M 392.28125 503.25 C 393.454 503.60475 394.5987 503.99434 395.75 504.40625 C 394.92143 504.52132 393.67678 504.01919 392.28125 503.25 z M 719.34375 545.03125 C 718.9851 545.98383 718.89779 546.07765 719.34375 545.03125 z M 213.25 556.78125 C 213.13813 560.91018 212.10594 560.98278 213.25 556.78125 z "
     id="path10203" />
</svg>
