<?xml version="1.0" encoding="UTF-8" standalone="no"?>
<svg
   xmlns:dc="http://purl.org/dc/elements/1.1/"
   xmlns:cc="http://creativecommons.org/ns#"
   xmlns:rdf="http://www.w3.org/1999/02/22-rdf-syntax-ns#"
   xmlns:svg="http://www.w3.org/2000/svg"
   xmlns="http://www.w3.org/2000/svg"
   xmlns:sodipodi="http://sodipodi.sourceforge.net/DTD/sodipodi-0.dtd"
   xmlns:inkscape="http://www.inkscape.org/namespaces/inkscape"
   width="1024"
   height="1024"
   id="U590D"
   version="1.1"
   inkscape:version="0.48.0 r9654"
   sodipodi:docname="U+590D.svg">
  <metadata
     id="metadata16">
    <rdf:RDF>
      <cc:Work
         rdf:about="">
        <dc:format>image/svg+xml</dc:format>
        <dc:type
           rdf:resource="http://purl.org/dc/dcmitype/StillImage" />
      </cc:Work>
    </rdf:RDF>
  </metadata>
  <defs
     id="defs14" />
  <sodipodi:namedview
     pagecolor="#ffffff"
     bordercolor="#666666"
     borderopacity="1"
     objecttolerance="10"
     gridtolerance="10"
     guidetolerance="10"
     inkscape:pageopacity="0"
     inkscape:pageshadow="2"
     inkscape:window-width="640"
     inkscape:window-height="480"
     id="namedview12"
     showgrid="false"
     inkscape:zoom="0.27441406"
     inkscape:cx="512"
     inkscape:cy="512"
     inkscape:window-x="0"
     inkscape:window-y="25"
     inkscape:window-maximized="0"
     inkscape:current-layer="U590D" />
  <path
     style="fill:#550000;fill-opacity:1;fill-rule:nonzero;stroke:#f9f9f9;stroke-width:0.1;stroke-miterlimit:4;stroke-dasharray:none"
     d="M 306.71875 84.59375 C 298.18881 84.544797 291.94562 86.35175 290.65625 90.8125 C 280.10655 131.5765 270.35975 172.55375 259.90625 213.34375 C 244.99365 268.94475 228.2649 324.04175 213.625 379.71875 C 206.9236 404.75875 201.22335 429.9555 198.09375 455.6875 C 196.27495 474.0565 282.8686 482.619 284.6875 464.25 C 285.9454 442.795 291.6858 421.991 296.5 401.125 C 310.6498 345.368 327.30095 290.30775 342.53125 234.84375 C 353.09225 194.89375 362.79075 154.677 374.78125 115.125 C 378.64945 101.7435 332.30858 84.740609 306.71875 84.59375 z M 682 90.375 C 677.12972 90.438594 672.19405 90.79025 667.1875 91.5 C 608.7394 98.272 551.465 111.99225 495.9375 131.53125 C 448.8093 148.39525 401.72585 166.033 357.46875 189.625 C 341.55985 199.171 386.5286 274.17 402.4375 264.625 C 441.0341 242.392 482.9987 226.762 524.75 211.625 C 573.8061 194.429 624.42495 181.8575 676.21875 177.0625 C 679.09215 178.0645 697.1032 174.32275 700.0625 179.59375 C 717.777 184.93775 742.99585 101.43875 725.28125 96.09375 C 710.76403 92.6235 696.61084 90.184219 682 90.375 z M 605.75 258.53125 C 603.82244 258.54444 601.91523 258.602 600 258.65625 C 553.6709 262.14125 507.98 271.01975 463.625 284.96875 C 422.7401 298.79875 381.36285 314.36225 349.71875 344.90625 C 344.40389 350.79756 353.21821 364.84826 366.03125 377.96875 C 341.6649 374.60409 312.6612 377.01161 311.875 387.625 C 309.3071 427.95 312.55125 468.0415 319.09375 507.8125 C 323.63077 533.10552 331.14063 557.53259 340.9375 581.125 C 340.20612 581.56835 339.57584 582.13521 339.09375 582.84375 C 319.75275 614.79975 303.9027 648.69975 288.3125 682.59375 C 270.5817 721.46475 255.474 761.46675 241.9375 801.96875 C 240.6857 806.07475 239.4393 810.17425 238.1875 814.28125 C 233.0967 832.03525 316.81545 856.03625 321.90625 838.28125 C 322.75775 835.05225 323.586 831.82375 324.4375 828.59375 C 331.90604 804.5024 340.26785 780.6862 349.65625 757.28125 C 379.57605 785.53656 415.62595 806.1364 452.5625 824.78125 C 458.18735 827.32119 463.82331 829.78226 469.5 832.1875 C 443.33679 849.80523 416.83208 866.90412 390.0625 883.59375 C 372.0355 895.03475 353.16285 905.0115 334.15625 914.6875 C 317.93115 923.1165 357.68115 999.6165 373.90625 991.1875 C 394.84125 980.1195 415.6465 968.7905 435.5625 955.9375 C 480.05886 927.70452 523.95462 898.55825 566.84375 867.9375 C 599.24666 878.54986 631.89756 888.46598 664.3125 898.90625 C 713.7936 914.82825 762.34805 933.50625 809.59375 955.15625 C 813.89065 957.28925 818.17185 959.4305 822.46875 961.5625 C 839.03605 969.5225 876.5673 891.42875 860 883.46875 C 854.9263 881.09875 849.85495 878.71375 844.78125 876.34375 C 794.27545 854.32875 742.63095 835.004 690.09375 818.375 C 676.95924 814.1936 663.8026 810.0742 650.625 805.96875 C 680.25211 783.43229 709.39928 760.28637 737.375 735.71875 C 765.3898 709.63175 803.2223 677.6125 784.8125 633.9375 C 781.1694 625.2945 772.3976 619.87275 766.1875 612.84375 C 760.975 610.31875 755.94195 607.34725 750.53125 605.28125 C 723.77525 595.06325 693.29315 597.85825 665.40625 595.28125 C 614.52335 594.54625 563.57005 595.83025 512.96875 601.65625 C 477.86229 606.05102 443.03802 611.91715 408.3125 618.625 C 404.03547 612.70882 396.93851 606.09792 388.84375 600.03125 C 394.35133 597.61613 399.86835 594.75855 405 591.71875 C 409.42399 597.88286 414.03182 601.39018 418.125 600.0625 C 456.4987 586.2465 496.2609 577.0915 536.25 569.4375 C 563.9354 566.7265 593.2008 557.5825 621.1875 562.5625 C 630.04116 563.4433 636.61332 543.83337 639.03125 523.03125 C 663.56821 531.58344 702.14771 534.39755 704.3125 522.34375 C 710.766 485.34375 715.21155 448.00475 716.96875 410.46875 C 718.24305 372.40875 719.6117 333.22225 699.5 299.28125 C 695.195 294.12725 691.4472 288.4215 686.5625 283.8125 C 664.65312 263.13969 634.66334 258.33339 605.75 258.53125 z M 608.75 343.96875 C 617.0069 343.71499 637.57195 350.55016 629.125 350.875 C 631.4989 369.473 631.16925 388.8285 630.59375 407.6875 C 629.5387 430.34759 627.39398 452.92873 624.21875 475.375 C 589.21596 473.65798 554.40363 479.1753 519.96875 485.25 C 482.33281 492.59293 444.95187 501.10083 408.125 511.78125 C 406.53194 505.77632 405.1248 499.71495 403.9375 493.59375 C 400.66031 474.45351 398.4101 455.18026 397.78125 435.84375 C 406.86525 459.21781 424.12743 484.69731 434 479.9375 C 465.3837 465.9115 499.4502 459.45925 533.1875 454.03125 C 553.7766 451.02925 574.46815 449.741 595.15625 452 C 613.51055 453.449 620.3543 366.91775 602 365.46875 C 574.3442 363.77275 546.75795 364.70775 519.34375 369.21875 C 493.56343 373.4742 467.77559 378.33756 442.5625 385.25 C 458.06681 377.44539 474.8259 371.85468 491.125 366.34375 C 528.3825 354.80875 566.7304 347.01925 605.6875 344.90625 C 606.11067 344.28609 607.22094 344.01574 608.75 343.96875 z M 394.8125 660.625 C 395.98917 668.86403 397.86715 677.22673 400.25 684.5 C 398.58398 682.47626 396.94794 680.41236 395.375 678.28125 C 393.67829 676.07371 390.65475 675.41067 386.8125 675.90625 C 389.40996 670.77753 392.07677 665.67781 394.8125 660.625 z M 628.75 680.875 C 640.43329 680.84503 652.1325 680.98 663.8125 681.25 C 665.46082 681.32121 667.10064 681.42498 668.75 681.5 C 631.55651 714.20296 591.99576 744.10037 552.25 773.625 C 531.52824 766.1026 511.05894 757.98866 490.9375 748.90625 C 466.32109 736.42811 441.68045 723.14707 420.8125 705.3125 C 454.83703 697.34336 489.16402 691.23361 523.8125 686.71875 C 558.6542 682.58025 593.70012 680.96491 628.75 680.875 z M 720.09375 686.9375 C 723.06855 687.63271 725.5536 688.3699 725.65625 688.9375 C 725.90345 690.3045 722.9294 688.4355 721.5625 688.1875 C 721.04097 687.7298 720.58022 687.3565 720.09375 686.9375 z "
     id="path23191" />
</svg>
