<?xml version="1.0" encoding="UTF-8" standalone="no"?>
<svg
   xmlns:dc="http://purl.org/dc/elements/1.1/"
   xmlns:cc="http://creativecommons.org/ns#"
   xmlns:rdf="http://www.w3.org/1999/02/22-rdf-syntax-ns#"
   xmlns:svg="http://www.w3.org/2000/svg"
   xmlns="http://www.w3.org/2000/svg"
   xmlns:sodipodi="http://sodipodi.sourceforge.net/DTD/sodipodi-0.dtd"
   xmlns:inkscape="http://www.inkscape.org/namespaces/inkscape"
   width="1024"
   height="1024"
   id="U5929"
   version="1.1"
   inkscape:version="0.48.0 r9654"
   sodipodi:docname="U+5929.svg">
  <metadata
     id="metadata11">
    <rdf:RDF>
      <cc:Work
         rdf:about="">
        <dc:format>image/svg+xml</dc:format>
        <dc:type
           rdf:resource="http://purl.org/dc/dcmitype/StillImage" />
      </cc:Work>
    </rdf:RDF>
  </metadata>
  <defs
     id="defs9" />
  <sodipodi:namedview
     pagecolor="#ffffff"
     bordercolor="#666666"
     borderopacity="1"
     objecttolerance="10"
     gridtolerance="10"
     guidetolerance="10"
     inkscape:pageopacity="0"
     inkscape:pageshadow="2"
     inkscape:window-width="640"
     inkscape:window-height="480"
     id="namedview7"
     showgrid="false"
     inkscape:zoom="0.27441406"
     inkscape:cx="512"
     inkscape:cy="-584.88256"
     inkscape:window-x="0"
     inkscape:window-y="25"
     inkscape:window-maximized="0"
     inkscape:current-layer="U5929" />
  <path
     style="fill:#782121;fill-opacity:1;fill-rule:nonzero;stroke:#f9f9f9;stroke-width:0.1;stroke-miterlimit:4;stroke-dasharray:none"
     d="M 507.3125 256.125 C 474.65036 256.16473 441.97142 256.99412 409.3125 258.5 C 355.17902 260.783 301.08372 263.82725 247 267.03125 C 228.29 268.27925 234.19625 356.46575 252.90625 355.21875 C 306.21133 349.50775 359.72212 346.306 413.25 343.625 C 465.29876 340.89555 517.3867 340.35051 569.40625 342.4375 C 538.60492 364.91683 514.59593 394.40189 491.5 424.40625 C 456.99992 469.68343 427.67688 518.39028 400.09375 568.0625 C 372.40117 567.99607 344.69769 567.97026 317 568.25 C 270.52795 570.117 223.3215 572.19925 178.59375 586.15625 C 161.03551 592.82825 192.47302 675.57825 210.03125 668.90625 C 245.66987 657.33625 283.72171 655.94775 320.84375 654.09375 C 331.95151 653.9084 343.08013 653.78221 354.1875 653.6875 C 327.86685 704.01634 302.00288 754.61487 279.5625 806.8125 C 270.3711 831.2125 274.44329 819.48775 267.1875 841.84375 C 261.71614 859.60175 345.4349 885.41425 350.90625 867.65625 C 355.85069 850.39625 352.99429 859.55625 359.625 840.15625 C 384.21886 778.98625 414.76486 720.50125 445.34375 662.15625 C 446.92249 659.21691 448.51039 656.2819 450.09375 653.34375 C 468.88692 653.2917 487.67493 653.188 506.46875 652.96875 C 486.50189 664.64938 455.26929 716.98042 468.28125 725.53125 C 503.89981 749.10025 537.95741 774.94025 572.875 799.53125 C 620.48663 833.29625 670.45469 863.459 720.96875 892.625 C 747.89996 908.362 776.07018 921.90275 802.4375 938.59375 C 818.30302 948.29775 864.05301 873.5165 848.1875 863.8125 C 820.65803 847.4155 791.87074 833.312 763.9375 817.625 C 715.63958 790.163 667.886 761.67725 622.6875 729.28125 C 587.61989 704.22867 553.3675 678.09274 518.46875 652.8125 C 526.36852 652.69611 534.25625 652.58004 542.15625 652.40625 C 611.06463 650.09125 679.85847 645.07925 748.78125 643.15625 C 772.91578 643.60425 797.40189 641.23075 821.4375 644.34375 C 840.11315 645.81575 847.05065 557.75325 828.375 556.28125 C 800.8534 554.86125 773.275 556.14125 745.75 556.90625 C 677.24845 559.77725 608.87368 565.1785 540.34375 567.4375 C 526.26881 567.72919 512.19841 567.88852 498.125 568 C 516.9328 536.73528 537.10766 506.30757 559.75 477.5625 C 578.6372 453.6465 597.72085 429.36375 623.53125 412.46875 C 635.66124 403.68136 605.05083 356.27996 584.46875 343.09375 C 598.62834 343.80339 612.76127 344.72105 626.90625 345.84375 C 652.80981 348.36375 678.6973 351.7405 703.53125 359.6875 C 721.37641 364.7955 745.43892 280.6705 727.59375 275.5625 C 696.67635 267.3585 665.1614 262.4265 633.21875 260.1875 C 591.2838 257.32325 549.30668 256.07392 507.3125 256.125 z "
     id="path12066" />
</svg>
