<?xml version="1.0" encoding="utf-8" ?>

<!DOCTYPE svg PUBLIC "-//W3C//DTD SVG 1.1//EN" 
  "http://www.w3.org/Graphics/SVG/1.1/DTD/svg11.dtd">
<svg 
    xmlns="http://www.w3.org/2000/svg"
    xmlns:xlink="http://www.w3.org/1999/xlink"
    xmlns:sodipodi="http://sodipodi.sourceforge.net/DTD/sodipodi-0.dtd"
    xmlns:inkscape="http://www.inkscape.org/namespaces/inkscape"
    width="1024" height="1024" id="U5934">
<path d="m 10582.427,49384.666 c 14.864,27.543 35.624,51.242 56.44,74.378 13.923,14.559 27.227,29.625 40.176,45.046 11.805,14.252 -55.38,69.902 -67.185,55.65 l 0,0 c -11.974,-14.702 -24.531,-28.852 -37.601,-42.6 -25.529,-28.407 -50.548,-57.579 -69.867,-90.696 -8.863,-16.554 69.175,-58.332 78.037,-41.778 z" id="path12378" inkscape:connector-curvature="0" style="fill:#782121;fill-opacity:1;fill-rule:nonzero;stroke:#f9f9f9;stroke-width:0.1;stroke-miterlimit:4;stroke-dasharray:none" transform="translate(-10240, -49152)"/><path d="m 10542.874,49585.428 c 11.418,32.174 26.034,63.042 41.895,93.226 8.844,16.43 18.91,32.139 28.935,47.857 9.876,15.634 -63.82,62.191 -73.697,46.558 l 0,0 c -11.125,-17.765 -22.285,-35.525 -32.193,-54.013 -17.405,-33.181 -33.399,-67.042 -47.406,-101.811 -6.75,-17.493 75.716,-49.311 82.466,-31.817 z" id="path12380" inkscape:connector-curvature="0" style="fill:#782121;fill-opacity:1;fill-rule:nonzero;stroke:#f9f9f9;stroke-width:0.1;stroke-miterlimit:4;stroke-dasharray:none" transform="translate(-10240, -49152)"/><path d="m 10359.8,49854.366 c 48.51,-1.73 96.817,-7.438 145.121,-12.03 87.025,-8.188 174.203,-14.583 261.289,-22.073 82.439,-7.466 164.756,-16.153 247.272,-22.762 45.432,-3.993 91.022,-4.883 136.576,-6.327 18.636,-0.245 19.79,87.608 1.153,87.853 l 0,0 c -43.79,-0.217 -87.589,0.328 -131.281,3.63 -82.281,5.861 -164.333,14.229 -246.477,21.697 -86.674,7.477 -173.449,13.873 -259.992,22.809 -50.655,5.387 -101.228,11.79 -152.022,15.727 -18.779,0.347 -20.418,-88.177 -1.639,-88.524 z" id="path12382" inkscape:connector-curvature="0" style="fill:#782121;fill-opacity:1;fill-rule:nonzero;stroke:#f9f9f9;stroke-width:0.1;stroke-miterlimit:4;stroke-dasharray:none" transform="translate(-10240, -49152)"/><path d="m 10900.989,49382.323 c -26.106,52.827 -46.846,108.201 -68.86,162.821 -43.818,107.968 -86.413,216.415 -127.213,325.559 -32.345,85.639 -60.724,172.663 -82.561,261.568 -2.117,9.96 -4.233,19.92 -6.35,29.88 -3.929,17.772 -87.707,-0.751 -83.777,-18.523 l 0,0 c 2.464,-10.759 4.928,-21.519 7.393,-32.278 23.797,-91.631 53.738,-181.42 87.578,-269.837 41.296,-109.444 84.101,-218.3 126.63,-327.269 22.516,-58.288 43.696,-117.228 69.543,-174.145 8.957,-16.465 86.574,25.759 77.617,42.224 z" id="path12388" inkscape:connector-curvature="0" style="fill:#782121;fill-opacity:1;fill-rule:nonzero;stroke:#f9f9f9;stroke-width:0.1;stroke-miterlimit:4;stroke-dasharray:none" transform="translate(-10240, -49152)"/><path d="m 10828.339,49915.781 c 36.233,15.823 71.263,34.174 106.424,52.203 46.184,23.064 92.777,45.279 137.99,70.22 16.068,8.96 -26.171,84.707 -42.239,75.747 l 0,0 c -44.012,-24.837 -89.674,-46.46 -134.95,-68.867 -33.593,-16.934 -67.016,-34.444 -102.134,-48.072 -17.232,-7.405 17.678,-88.636 34.909,-81.231 z" id="path12390" inkscape:connector-curvature="0" style="fill:#782121;fill-opacity:1;fill-rule:nonzero;stroke:#f9f9f9;stroke-width:0.1;stroke-miterlimit:4;stroke-dasharray:none" transform="translate(-10240, -49152)"/></svg>