<?xml version="1.0" encoding="utf-8" ?>

<!DOCTYPE svg PUBLIC "-//W3C//DTD SVG 1.1//EN" 
  "http://www.w3.org/Graphics/SVG/1.1/DTD/svg11.dtd">
<svg 
	xmlns="http://www.w3.org/2000/svg"
	xmlns:xlink="http://www.w3.org/1999/xlink"
	width="1024" height="1024">
<path d="m 6371.3899,2213.0664 c 44.3301,2.9387 88.8645,0.8311 133.2199,-0.6098 74.8127,-3.0092 149.6087,-6.4268 224.4113,-9.6785 54.4349,-2.8407 108.9066,-4.3787 163.371,-1.8293 12.1054,0.6471 24.1839,1.6661 36.2787,2.4683 20.9322,1.7946 12.4722,100.4695 -8.4599,98.6749 l 0,0 c -11.1439,-1.165 -22.2809,-2.4105 -33.4535,-3.2783 -51.2101,-3.5788 -102.5148,-2.5213 -153.7729,-0.1984 -74.9305,2.9397 -149.8357,6.4116 -224.7297,10.1656 -48.6207,2.0941 -97.3265,4.6647 -146.0001,3.1118 -20.9642,-1.9378 -11.829,-100.7642 9.1352,-98.8263 z" id="path3823" inkscape:connector-curvature="0" style="fill:#aa0000;fill-opacity:1;fill-rule:nonzero;stroke:#f9f9f9;stroke-width:0.1;stroke-miterlimit:4;stroke-dasharray:none" transform="translate(-6144, -2048)"/><path d="m 6718.2545,2156.8829 c -26.0489,41.1276 -52.2442,82.1542 -77.8632,123.5529 -41.8104,68.0422 -81.2861,137.4614 -118.7257,207.993 -17.5707,35.1554 -36.9316,69.5929 -51.8873,105.9964 -1.6471,4.6815 -2.1988,5.4312 -0.6314,2.7203 -6.5995,20.1101 -101.3992,-11.0002 -94.7998,-31.1102 l 0,0 c 2.9825,-7.5367 1.3223,-3.584 5.0416,-11.8323 17.8164,-37.8074 38.1653,-74.3585 57.6965,-111.2895 39.0415,-71.6012 79.5735,-142.3661 121.3555,-212.4054 24.603,-41.0127 49.9829,-81.5855 73.6601,-123.1388 10.5034,-18.2759 96.6571,31.2377 86.1537,49.5136 z" id="path3825" inkscape:connector-curvature="0" style="fill:#aa0000;fill-opacity:1;fill-rule:nonzero;stroke:#f9f9f9;stroke-width:0.1;stroke-miterlimit:4;stroke-dasharray:none" transform="translate(-6144, -2048)"/><path d="m 6665.8898,2303.3044 c 31.8814,23.3095 64.9795,44.833 98.3355,65.949 45.5051,28.4977 92.2031,54.9991 139.1512,81.0249 25.2739,14.7633 52.2846,26.9405 75.8081,44.5046 16.2973,13.3987 -46.8649,90.2251 -63.1622,76.8264 l 0,0 c -15.8929,-13.2836 -41.3314,-24.2991 -60.2899,-36.4388 -48.0426,-27.2887 -96.0223,-54.7052 -143.0632,-83.7012 -34.0276,-21.1433 -67.7035,-42.8076 -101.0428,-65.0194 -17.6378,-11.511 36.6255,-94.6565 54.2633,-83.1455 z" id="path3827" inkscape:connector-curvature="0" style="fill:#aa0000;fill-opacity:1;fill-rule:nonzero;stroke:#f9f9f9;stroke-width:0.1;stroke-miterlimit:4;stroke-dasharray:none" transform="translate(-6144, -2048)"/><path d="m 6428.1759,2521.2602 c 44.0094,-3.0829 88.1077,-4.6378 132.1708,-6.7415 62.0678,-2.9484 124.0674,-7.1319 186.0897,-10.884 34.8573,-1.4553 69.9604,-6.4741 104.4751,0.2356 20.3746,5.4083 -5.1202,101.4554 -25.4949,96.0471 l 0,0 c 1.0523,-0.055 4.1287,0.2423 3.1568,-0.1647 -9.3193,-3.9018 -43.3136,-0.6376 -53.0967,-0.2662 -7.9011,0.2999 -15.7996,0.666 -23.6995,0.999 -62.1408,3.0905 -124.2311,7.0525 -186.3497,10.5475 -42.4221,2.4405 -84.9583,4.1609 -127.1881,9.0326 -20.9597,2.1348 -31.0233,-96.6706 -10.0635,-98.8054 z" id="path3829" inkscape:connector-curvature="0" style="fill:#aa0000;fill-opacity:1;fill-rule:nonzero;stroke:#f9f9f9;stroke-width:0.1;stroke-miterlimit:4;stroke-dasharray:none" transform="translate(-6144, -2048)"/><path d="m 6493.9874,2684.5555 c -3.2333,21.065 -5.4156,42.2785 -7.0406,63.5232 -0.5178,6.699 -0.7614,13.4013 -0.674,20.1167 -0.1737,21.0538 -99.4224,20.2352 -99.2488,-0.8187 l 0,0 c 0.1837,-9.1669 0.5199,-18.3226 1.4061,-27.455 2.0078,-22.7175 4.5497,-45.3785 7.0114,-68.0503 2.6907,-20.9048 101.2366,-8.2206 98.5459,12.6841 z" id="path3831" inkscape:connector-curvature="0" style="fill:#aa0000;fill-opacity:1;fill-rule:nonzero;stroke:#f9f9f9;stroke-width:0.1;stroke-miterlimit:4;stroke-dasharray:none" transform="translate(-6144, -2048)"/><path d="m 6469.7731,2647.9978 c 33.7819,-4.4921 67.7328,-7.2038 101.7628,-8.8116 35.7646,-1.4849 71.5695,-0.8113 106.9903,4.4961 31.4518,5.8983 59.6055,21.6631 71.9765,52.814 2.4932,6.2781 3.1897,13.1282 4.7846,19.6922 2.9875,29.5722 -5.3645,58.1994 -13.5662,86.2602 -4.7734,16.8137 -10.3968,33.2374 -17.9471,48.9974 -9.496,18.7887 -98.0668,-25.9759 -88.5708,-44.7646 l 0,0 c 6.1416,-9.6236 7.5763,-21.7117 11.8123,-32.153 4.0889,-13.7273 7.7316,-27.63 10.6251,-41.6058 6.6029,10.5875 22.7239,14.8804 5.0447,8.0748 -28.4931,-5.2655 -57.6439,-4.7285 -86.5021,-4.014 -30.6524,1.4662 -61.3089,3.8258 -91.5675,9.1404 -20.8157,3.1486 -35.6583,-94.9775 -14.8426,-98.1261 z" id="path3833" inkscape:connector-curvature="0" style="fill:#aa0000;fill-opacity:1;fill-rule:nonzero;stroke:#f9f9f9;stroke-width:0.1;stroke-miterlimit:4;stroke-dasharray:none" transform="translate(-6144, -2048)"/><path d="m 6464.1547,2800.2177 c 30.7819,2.5975 61.6842,3.3123 92.5622,3.5942 37.8837,0.1703 75.7489,-1.0956 113.5238,-3.9166 9.2558,-2.5306 21.4577,0.6433 30.2448,-4.0449 20.4291,-5.1279 44.6026,91.1759 24.1735,96.3038 l 0,0 c -15.7823,3.4256 -31.7198,5.2108 -47.8803,5.7592 -40.1814,2.385 -80.4197,3.594 -120.6746,3.6222 -33.6041,-0.1205 -67.1957,-0.8581 -100.7684,-2.3484 -20.9946,-1.8708 -12.1756,-100.8403 8.819,-98.9695 z" id="path3835" inkscape:connector-curvature="0" style="fill:#aa0000;fill-opacity:1;fill-rule:nonzero;stroke:#f9f9f9;stroke-width:0.1;stroke-miterlimit:4;stroke-dasharray:none" transform="translate(-6144, -2048)"/><path d="m 6860.7683,2624.4974 c 5.6597,37.3379 7.6005,74.9387 7.4835,112.6564 -1.1028,52.5239 -8.6164,104.5891 -17.8955,156.205 -7.5469,41.6649 -19.479,82.2722 -36.4335,121.0464 -6.1974,14.501 -15.3902,26.8718 -25.1445,39.072 -13.5629,16.02 -89.0823,-47.9164 -75.5193,-63.9365 l 0,0 c 4.7472,-4.3931 8.0011,-9.796 10.9373,-15.559 14.6388,-31.1397 23.9388,-64.3277 30.4084,-98.0813 8.493,-45.8682 15.3098,-92.1714 16.1479,-138.9015 -0.01,-32.6316 -1.7894,-65.2407 -8.1186,-97.3353 -3.2172,-20.8174 94.9171,-35.9836 98.1343,-15.1662 z" id="path3843" inkscape:connector-curvature="0" style="fill:#aa0000;fill-opacity:1;fill-rule:nonzero;stroke:#f9f9f9;stroke-width:0.1;stroke-miterlimit:4;stroke-dasharray:none" transform="translate(-6144, -2048)"/></svg>