<?xml version="1.0" encoding="UTF-8" standalone="no"?>
<svg
   xmlns:dc="http://purl.org/dc/elements/1.1/"
   xmlns:cc="http://creativecommons.org/ns#"
   xmlns:rdf="http://www.w3.org/1999/02/22-rdf-syntax-ns#"
   xmlns:svg="http://www.w3.org/2000/svg"
   xmlns="http://www.w3.org/2000/svg"
   xmlns:sodipodi="http://sodipodi.sourceforge.net/DTD/sodipodi-0.dtd"
   xmlns:inkscape="http://www.inkscape.org/namespaces/inkscape"
   width="1024"
   height="1024"
   id="U5988"
   version="1.1"
   inkscape:version="0.48.0 r9654"
   sodipodi:docname="U+5988.svg">
  <metadata
     id="metadata12">
    <rdf:RDF>
      <cc:Work
         rdf:about="">
        <dc:format>image/svg+xml</dc:format>
        <dc:type
           rdf:resource="http://purl.org/dc/dcmitype/StillImage" />
      </cc:Work>
    </rdf:RDF>
  </metadata>
  <defs
     id="defs10" />
  <sodipodi:namedview
     pagecolor="#ffffff"
     bordercolor="#666666"
     borderopacity="1"
     objecttolerance="10"
     gridtolerance="10"
     guidetolerance="10"
     inkscape:pageopacity="0"
     inkscape:pageshadow="2"
     inkscape:window-width="640"
     inkscape:window-height="480"
     id="namedview8"
     showgrid="false"
     inkscape:zoom="0.27441406"
     inkscape:cx="512"
     inkscape:cy="512"
     inkscape:window-x="0"
     inkscape:window-y="25"
     inkscape:window-maximized="0"
     inkscape:current-layer="U5988" />
  <path
     style="fill:#2b0000;fill-opacity:1;fill-rule:nonzero;stroke:#f9f9f9;stroke-width:0.1;stroke-miterlimit:4;stroke-dasharray:none"
     d="M 726.375 196.8125 C 724.55288 196.81163 722.73161 196.84131 720.90625 196.875 C 684.95025 197.004 649.0609 198.8585 613.125 199.9375 C 583.2844 201.0415 553.4059 202.456 523.75 206.125 C 512.34973 207.90286 513.10908 241.56546 519.6875 266.625 C 517.97027 268.07521 516.95752 269.74457 516.875 271.65625 C 515.6251 306.71025 509.68445 341.37725 503.90625 375.90625 C 498.61345 407.71525 491.94155 439.31225 487.65625 471.28125 C 484.01815 507.00625 489.69405 523.68075 518.03125 546.96875 C 547.53175 563.53575 581.22345 562.05925 613.90625 560.40625 C 651.65135 557.36125 688.80005 549.81525 726.21875 544.28125 C 751.18115 540.08925 776.3706 538.797 801.625 539.375 C 812.9827 539.779 824.41155 539.942 835.59375 542.125 C 836.76298 542.53367 837.92721 542.95752 839.09375 543.375 C 831.21332 568.59011 824.73575 594.21803 818.59375 619.90625 C 810.17435 656.28725 802.49515 692.822 794.28125 729.25 C 787.53595 758.22 780.32705 787.08875 772.71875 815.84375 C 769.10855 828.67675 766.00315 841.65075 762.34375 854.46875 C 762.19795 855.48875 761.49 856.34425 761.0625 857.28125 C 760.9999 857.25125 760.938 857.2175 760.875 857.1875 C 748.7576 871.5695 816.53895 928.6945 828.65625 914.3125 C 830.51305 912.0085 832.36185 909.71025 834.21875 907.40625 C 840.32385 898.11325 845.7344 888.40125 848.0625 877.40625 C 851.4108 864.19725 854.37815 850.89975 857.84375 837.71875 C 865.26915 807.98475 872.54235 778.21275 879.40625 748.34375 C 887.42445 712.38375 894.9987 676.32075 903.5 640.46875 C 909.929 614.29675 916.7584 588.23275 925.5 562.71875 C 932.8439 539.18175 939.43995 517.23325 926.65625 493.78125 C 914.21435 479.88125 904.4857 471.89525 886.8125 466.40625 C 875.0238 462.25725 863.39605 457.3925 851.09375 454.9375 C 846.55283 454.16637 842.00272 453.56198 837.4375 453.0625 C 838.55484 448.62023 839.70007 444.19451 840.9375 439.78125 C 849.2574 409.08925 858.1443 378.538 865.625 347.625 C 870.7044 326.6 876.5732 305.53625 878.3125 283.90625 C 878.3385 261.89125 871.88785 241.721 852.90625 228.75 C 838.80305 219.274 823.33045 212.734 806.96875 208.125 C 780.66287 200.73281 753.70683 196.8255 726.375 196.8125 z M 260.75 209.40625 C 252.13853 209.45994 245.87265 211.38775 244.625 215.90625 C 231.9681 260.58425 215.4599 304.04375 199.4375 347.59375 C 198.09823 351.20883 196.7529 354.82511 195.40625 358.4375 C 162.17605 358.68279 128.72617 359.4885 95.6875 355.40625 C 77.1232 352.64525 64.1232 440.14525 82.6875 442.90625 C 109.29581 445.48351 136.02162 445.80395 162.75 445.59375 C 157.57007 459.55062 152.41889 473.54447 147.40625 487.5625 C 136.05155 517.6025 133.7429 542.895 143.375 573.625 C 155.8396 602.197 177.70605 624.9485 198.03125 648.0625 C 211.47732 663.38576 225.13179 678.50698 238.875 693.5625 C 234.06678 704.8949 229.27462 716.2292 224.46875 727.5625 C 207.16665 767.9405 191.1509 808.83375 176.4375 850.21875 C 170.3636 867.63975 252.4887 896.26475 258.5625 878.84375 C 271.85154 839.91183 286.48194 801.49718 302.40625 763.5625 C 317.66593 780.79211 332.77195 798.17343 347.59375 815.78125 C 356.35715 826.89225 366.1721 837.35925 374.4375 848.78125 C 373.71606 847.67471 373.00273 846.57529 372.28125 845.46875 C 384.25878 858.7672 459.58367 822.91641 451.84375 806.375 C 450.14205 803.362 448.42055 800.3255 446.71875 797.3125 C 436.63125 783.9225 424.899 771.868 414.3125 758.875 C 391.1779 732.071 367.62145 705.64025 343.84375 679.40625 C 342.47132 677.90493 341.0922 676.40668 339.71875 674.90625 C 354.3249 640.55064 369.12794 606.27915 384.34375 572.1875 C 401.67165 533.9065 418.72085 495.2395 440.65625 459.3125 C 445.01835 452.8445 449.0733 446.973 455.6875 442.625 C 469.4549 429.633 478.2795 414.0235 478.3125 394.5625 C 473.6843 359.9595 453.4418 340.77825 417.75 341.15625 C 389.6633 342.74525 361.8047 347.174 333.75 349.25 C 318.85681 350.61675 303.96942 352.00542 289.0625 353.28125 C 303.19356 315.52052 317.27788 277.71919 329.84375 239.40625 C 333.5867 225.85075 286.5844 209.24519 260.75 209.40625 z M 720.9375 284.3125 C 741.6861 284.2125 762.3236 286.4005 782.125 292.6875 C 783.60882 293.41019 785.47154 294.04197 787.4375 294.65625 C 785.33867 305.70962 782.72649 316.69381 780.25 327.65625 C 773.5246 357.47325 764.8226 386.766 756.375 416.125 C 752.64021 428.54791 749.40774 441.11918 746.21875 453.6875 C 735.21556 454.74098 724.24769 456.15978 713.3125 458 C 678.7919 463.23 644.4465 470.059 609.625 473 C 598.38829 473.52299 587.31982 473.90273 576.09375 473.28125 C 579.57419 445.47181 585.14401 417.94068 589.59375 390.28125 C 595.3259 356.23144 600.99676 322.14848 604.15625 287.75 C 608.2809 287.56527 612.40966 287.3907 616.53125 287.21875 C 651.32655 286.08375 686.1167 284.1885 720.9375 284.3125 z M 798.5 298.6875 C 799.66266 299.34177 800.66241 300.08268 801.375 300.9375 C 800.37374 300.3545 799.39849 299.58721 798.5 298.6875 z M 421.25 429.375 C 421.565 429.47925 422.36866 429.69992 422.5625 429.78125 C 422.5485 429.78402 422.53866 429.81425 422.5 429.8125 C 421.18655 429.76191 419.92366 429.61893 418.6875 429.4375 C 419.54205 429.41943 420.39511 429.38368 421.25 429.375 z M 353.53125 435.0625 C 335.89306 468.20699 321.03232 502.82557 305.90625 537.15625 C 296.05818 559.77719 286.2801 582.44791 276.5625 605.125 C 272.3405 600.32556 268.13846 595.53355 263.96875 590.6875 C 251.01745 575.6525 237.6124 560.827 226.625 544.25 C 220.2935 537.541 229.1061 523.793 230 516.125 C 238.22052 491.49895 246.92768 467.03898 255.84375 442.65625 C 284.39008 440.81134 312.87444 438.25435 341.375 435.84375 C 345.42441 435.66002 349.48674 435.39079 353.53125 435.0625 z M 749.71875 449.25 C 749.2648 450.45802 749.18584 451.852 749.4375 453.375 C 748.70705 453.44012 747.9802 453.52539 747.25 453.59375 C 747.7853 452.68499 748.62658 451.20628 749.71875 449.25 z M 730.90625 628.59375 C 716.65239 628.58325 702.405 629.473 688.15625 631.0625 C 640.80195 635.5815 593.4993 640.88025 546.3125 646.90625 C 509.7974 651.18225 473.2433 655.171 436.5 656.875 C 417.807 658.469 425.3071 746.594 444 745 C 481.6357 741.732 519.1965 737.5625 556.6875 732.9375 C 602.9849 726.7485 649.3963 721.71425 695.9375 717.78125 C 717.3995 715.79625 738.93885 715.07525 760.21875 718.78125 C 766.99445 720.02125 773.5981 721.996 780.3125 723.5 C 798.8054 727.151 816.02415 639.9635 797.53125 636.3125 C 789.82905 634.6795 781.59035 632.70425 773.59375 631.53125 C 759.39775 629.52675 745.16011 628.60425 730.90625 628.59375 z "
     id="path10528" />
</svg>
