<?xml version="1.0" encoding="UTF-8" standalone="no"?>
<svg
   xmlns:dc="http://purl.org/dc/elements/1.1/"
   xmlns:cc="http://creativecommons.org/ns#"
   xmlns:rdf="http://www.w3.org/1999/02/22-rdf-syntax-ns#"
   xmlns:svg="http://www.w3.org/2000/svg"
   xmlns="http://www.w3.org/2000/svg"
   xmlns:sodipodi="http://sodipodi.sourceforge.net/DTD/sodipodi-0.dtd"
   xmlns:inkscape="http://www.inkscape.org/namespaces/inkscape"
   width="1024"
   height="1024"
   id="U59CB"
   version="1.1"
   inkscape:version="0.48.0 r9654"
   sodipodi:docname="U+59CB.svg">
  <metadata
     id="metadata14">
    <rdf:RDF>
      <cc:Work
         rdf:about="">
        <dc:format>image/svg+xml</dc:format>
        <dc:type
           rdf:resource="http://purl.org/dc/dcmitype/StillImage" />
      </cc:Work>
    </rdf:RDF>
  </metadata>
  <defs
     id="defs12" />
  <sodipodi:namedview
     pagecolor="#ffffff"
     bordercolor="#666666"
     borderopacity="1"
     objecttolerance="10"
     gridtolerance="10"
     guidetolerance="10"
     inkscape:pageopacity="0"
     inkscape:pageshadow="2"
     inkscape:window-width="640"
     inkscape:window-height="480"
     id="namedview10"
     showgrid="false"
     inkscape:zoom="0.27441406"
     inkscape:cx="512"
     inkscape:cy="512"
     inkscape:window-x="0"
     inkscape:window-y="25"
     inkscape:window-maximized="0"
     inkscape:current-layer="U59CB" />
  <path
     style="fill:#a02c2c;fill-opacity:1;fill-rule:nonzero;stroke:#f9f9f9;stroke-width:0.1;stroke-miterlimit:4;stroke-dasharray:none"
     d="M 289.625 184.90625 C 281.01065 184.88336 274.7257 186.74125 273.4375 191.25 C 260.9899 236.626 246.77035 281.4995 232.84375 326.4375 C 227.45983 343.98599 222.00678 361.51122 216.53125 379.03125 C 182.90796 384.86921 149.29504 390.93477 115.4375 395.25 C 96.8638 397.883 109.3012 485.4455 127.875 482.8125 C 147.71335 479.42205 167.5025 475.89492 187.3125 472.34375 C 183.54403 484.46208 179.77939 496.58444 176.0625 508.71875 C 165.805 541.18175 154.6697 573.1095 157.5 607.4375 C 168.6563 646.6545 190.21585 646.54275 220.96875 658.71875 C 241.03459 669.07444 258.10683 684.16436 274.53125 699.625 C 257.09292 744.24138 239.38237 788.74804 221.5 833.1875 L 215.71875 847.40625 C 208.89635 864.67025 290.27145 896.8255 297.09375 879.5625 C 298.95005 874.7295 300.79995 869.8945 302.65625 865.0625 C 315.04737 832.72803 327.48088 800.41535 339.90625 768.09375 C 354.58114 785.6486 368.55405 803.81309 382.125 822.25 C 404.391 853.257 424.1789 886.06925 439.5625 921.03125 C 444.51428 932.18603 443.20271 940.37341 442.59375 920.9375 C 447.02425 938.34908 526.55164 952.44933 529.875 934.78125 C 530.2562 916.36825 528.0298 900.9485 519.1875 884.4375 C 500.2702 844.5825 477.6025 806.6175 451.625 770.9375 C 427.5757 738.42844 402.43945 706.6911 374.90625 677.09375 C 394.37268 626.63921 413.97714 576.24273 434.0625 526.03125 C 447.4508 492.52225 461.9252 459.28425 472.9375 424.90625 C 473.5424 419.63025 475.5169 414.34975 474.75 409.09375 C 470.33 378.80575 452.0404 361.70575 422.1875 361.34375 C 400.2704 360.56875 378.32625 359.5895 356.40625 360.8125 C 341.04802 361.86477 325.72015 363.34431 310.4375 365.09375 C 311.79551 360.77263 313.14141 356.4459 314.5 352.125 C 329.0675 306.564 343.8142 261.07425 358.4375 215.53125 C 362.30203 202.00575 315.46805 184.97492 289.625 184.90625 z M 608.8125 196.8125 C 605.25661 196.87621 602.58706 197.89852 601.21875 200.15625 C 581.32025 236.91025 563.6699 274.83725 546.1875 312.78125 C 527.0071 355.76825 507.79795 398.7635 490.84375 442.6875 C 481.89555 469.0565 469.8913 503.93075 490.125 528.96875 C 496.2551 536.55475 505.43785 541.05075 513.09375 547.09375 C 546.83865 557.33475 579.7808 545.591 612.5 536.875 C 649.6226 526.641 687.34035 518.854 725.09375 511.375 C 752.85585 505.766 780.9618 502.52525 809.1875 500.53125 C 817.6758 500.14825 813.74515 500.28875 820.96875 500.09375 C 821.24132 500.07993 821.51847 500.01897 821.78125 499.96875 C 825.31687 508.33791 828.30097 516.92055 830.40625 525.84375 C 835.15835 543.88275 920.22085 521.4765 915.46875 503.4375 C 908.59345 478.7345 898.8449 455.23025 886.375 432.78125 C 876.3867 413.21425 865.75265 393.4875 861.15625 371.8125 C 857.88425 353.3245 770.728 368.763 774 387.25 C 776.0322 396.64672 778.76607 405.80389 782 414.78125 C 757.22026 417.50541 732.54065 421.03971 708.09375 426.03125 C 668.68875 433.92325 629.3015 442.0225 590.4375 452.3125 C 586.94214 453.20408 583.1811 454.17126 579.4375 455.125 C 593.3064 419.30223 608.89063 384.15788 624.5625 349.09375 C 640.8303 314.18175 657.18905 279.16325 676.90625 246.03125 C 685.26814 232.23398 630.54291 196.42318 608.8125 196.8125 z M 368.75 447.8125 C 369.66475 447.80195 370.58526 447.81564 371.5 447.8125 C 365.66281 463.48623 359.68411 479.11574 353.75 494.75 C 338.67061 534.19051 323.49788 573.59323 308.25 612.96875 C 291.29675 598.62653 273.22924 585.76781 252.8125 576.59375 C 250.62738 575.7559 249.16201 575.1708 247.6875 574.59375 C 249.55921 567.11957 251.84217 558.6234 253.0625 554.1875 C 254.9677 547.2615 256.95035 540.38075 258.90625 533.46875 C 266.41726 507.65939 274.18457 481.9176 282.0625 456.21875 C 308.51651 452.39159 335.07549 449.4099 361.78125 447.96875 C 364.10956 447.88938 366.42155 447.83936 368.75 447.8125 z M 419.53125 449.875 C 420.16723 449.91425 420.8057 449.982 421.4375 450.0625 C 422.90312 450.24986 421.54194 450.13602 419.53125 449.875 z M 567.5 490.90625 C 567.66387 491.79275 567.82939 492.75306 568 493.78125 C 568.2233 495.12725 568.29185 497.02625 567.15625 497.78125 C 566.25165 498.38325 566.7371 495.60925 566.875 494.53125 C 567.03074 493.31456 567.25999 492.11052 567.5 490.90625 z M 788.21875 577.65625 C 747.35605 577.66225 706.44485 579.3425 665.96875 585.3125 C 627.84915 591.8765 589.01335 600.2535 557.71875 624.4375 C 553.62881 628.08403 555.7862 636.29429 561.1875 645.78125 C 538.51856 637.93536 480.75969 644.94868 481.84375 660.125 C 484.07035 689.769 485.7226 719.44675 487.9375 749.09375 C 489.4103 781.54275 494.58215 813.04025 507.15625 843.03125 C 517.87025 861.47825 511.689 852.623 525.8125 869.5 C 528.32116 872.20695 532.84679 872.04224 538.40625 869.9375 C 541.44726 885.61156 546.94509 898.00941 554.0625 897.40625 C 592.2035 892.04625 629.9944 884.5435 668 878.3125 C 717.0854 870.6845 766.5308 865.535 816.1875 864.125 C 816.62654 864.11977 817.06095 864.12854 817.5 864.125 C 833.06503 873.29562 848.42857 878.37363 852.875 871.90625 C 854.54766 869.34077 855.38555 868.11887 856.375 866.625 C 864.52614 867.86601 872.56643 869.6229 880.5 872.0625 C 898.513 876.9695 921.66915 792.06325 903.65625 787.15625 C 899.33927 786.06125 895.00136 785.07209 890.65625 784.15625 C 893.00723 776.7753 895.27223 769.36839 897.46875 761.9375 C 905.94725 732.3735 915.1816 702.5585 917.0625 671.6875 C 916.4421 638.8885 907.1324 609.75325 876.6875 592.78125 C 848.5609 580.65825 818.74975 577.42225 788.21875 577.65625 z M 244.15625 591.21875 C 244.3828 592.14671 244.61055 593.03006 244.90625 594.15625 C 244.67635 595.05825 244.97825 597.38175 244.21875 596.84375 C 243.64165 596.43475 243.78874 593.91512 244.15625 591.21875 z M 570.34375 659.28125 C 585.69035 678.92685 608.56599 697.71655 616.625 690.53125 C 635.7386 678.54125 658.79675 674.8895 680.65625 671.1875 C 716.15785 666.0055 752.0436 664.6215 787.875 664.9375 C 795.34242 666.35742 816.48351 664.85829 829.375 667.84375 C 829.17954 668.60895 829.01492 669.81319 828.875 671.6875 C 826.1312 694.2295 819.5615 716.1495 813.375 737.9375 C 809.26859 751.36635 805.12636 764.81644 800.4375 778.0625 C 751.51549 780.46743 702.76366 785.62738 654.3125 792.90625 C 631.52174 796.4661 608.80922 800.51011 586 804 C 577.48249 784.82393 577.11334 763.20122 575.03125 742.5625 C 572.93632 714.83902 571.33815 687.0673 570.34375 659.28125 z M 832.0625 668.5625 C 834.95398 669.48123 837.24399 670.71378 838.5625 672.375 C 835.47154 672.09011 833.45648 670.10146 832.0625 668.5625 z "
     id="path12337" />
</svg>
