<?xml version="1.0" encoding="UTF-8" standalone="no"?>
<svg
   xmlns:dc="http://purl.org/dc/elements/1.1/"
   xmlns:cc="http://creativecommons.org/ns#"
   xmlns:rdf="http://www.w3.org/1999/02/22-rdf-syntax-ns#"
   xmlns:svg="http://www.w3.org/2000/svg"
   xmlns="http://www.w3.org/2000/svg"
   xmlns:sodipodi="http://sodipodi.sourceforge.net/DTD/sodipodi-0.dtd"
   xmlns:inkscape="http://www.inkscape.org/namespaces/inkscape"
   width="1024"
   height="1024"
   id="U5A18"
   version="1.1"
   inkscape:version="0.48.0 r9654"
   sodipodi:docname="U+5A18.svg">
  <metadata
     id="metadata16">
    <rdf:RDF>
      <cc:Work
         rdf:about="">
        <dc:format>image/svg+xml</dc:format>
        <dc:type
           rdf:resource="http://purl.org/dc/dcmitype/StillImage" />
      </cc:Work>
    </rdf:RDF>
  </metadata>
  <defs
     id="defs14" />
  <sodipodi:namedview
     pagecolor="#ffffff"
     bordercolor="#666666"
     borderopacity="1"
     objecttolerance="10"
     gridtolerance="10"
     guidetolerance="10"
     inkscape:pageopacity="0"
     inkscape:pageshadow="2"
     inkscape:window-width="640"
     inkscape:window-height="480"
     id="namedview12"
     showgrid="false"
     inkscape:zoom="0.27441406"
     inkscape:cx="512"
     inkscape:cy="512"
     inkscape:window-x="0"
     inkscape:window-y="25"
     inkscape:window-maximized="0"
     inkscape:current-layer="U5A18" />
  <path
     style="fill:#c83737;fill-opacity:1;fill-rule:nonzero;stroke:#f9f9f9;stroke-width:0.1;stroke-miterlimit:4;stroke-dasharray:none"
     d="M 609.4375 165.125 C 589.27859 164.89808 536.46654 211.17508 547.15625 224.03125 C 562.10092 242.72125 575.80303 262.3995 589.96875 281.6875 C 590.77594 282.78622 591.56441 283.91435 592.34375 285.03125 C 576.81007 287.37081 561.33285 290.12693 545.9375 293.28125 C 509.75006 301.60025 473.82677 311.53325 440.21875 327.65625 C 431.62565 332.1462 438.45344 355.2314 449.3125 375.3125 C 447.67776 381.11764 446.12422 386.9579 444.6875 392.8125 C 437.3777 387.92743 427.98102 385.43226 420 383.46875 C 397.1321 379.76775 373.91377 380.655 350.84375 381.5 C 333.93011 382.29188 317.06479 383.46551 300.21875 385 C 301.01298 382.17929 301.80724 379.35444 302.59375 376.53125 C 313.55434 338.95725 325.66843 301.6405 333.78125 263.3125 C 336.08976 244.6795 248.24602 233.77325 245.9375 252.40625 C 239.22191 286.28525 228.8659 319.328 219.375 352.5 C 215.26638 367.35336 211.04461 382.17185 206.5625 396.90625 C 175.79646 401.67477 145.141 407.03291 114.375 411.78125 C 95.752323 414.10925 106.72108 501.8905 125.34375 499.5625 C 141.15892 496.58171 156.98021 493.63945 172.8125 490.78125 C 166.15507 509.57273 163.90086 525.71527 169.84375 549.65625 C 179.40073 573.85025 200.52741 589.2195 218.40625 606.9375 C 234.60786 625.22122 247.24215 646.1309 258.9375 667.5625 C 245.19834 698.70755 231.37728 729.81596 218.59375 761.375 C 211.26446 779.619 203.59906 797.72025 197.09375 816.28125 C 199.24056 817.50425 195.26931 820.919 193.9375 823 C 184.51557 839.27 261.20308 883.67625 270.625 867.40625 C 274.53205 860.13725 278.32449 852.8825 280.71875 844.9375 C 286.49337 827.5545 293.6291 810.667 300 793.5 C 303.69339 783.86301 307.51276 774.27109 311.40625 764.71875 C 321.03624 781.81859 330.79245 798.84067 340.59375 815.84375 C 348.35845 833.28675 363.57166 848.31125 370.125 865.78125 C 369.40863 863.34978 368.68512 860.93108 367.96875 858.5 C 372.58934 866.76062 396.9516 869.33704 418.84375 867.34375 C 423.46281 891.24112 435.13417 913.0262 460.125 921.6875 C 466.48126 923.8905 473.43953 923.66825 480.09375 924.65625 C 511.74855 922.36425 537.98602 904.59775 563.4375 887.21875 C 594.56961 864.85275 624.67311 841.1335 655.5625 818.4375 C 659.12295 815.77787 662.72912 813.17372 666.34375 810.59375 C 696.74531 837.97266 728.12442 864.14078 761.78125 887.4375 C 783.9429 902.4065 807.72712 914.5695 831.875 925.9375 C 833.52074 926.7985 835.16675 927.67025 836.8125 928.53125 C 853.58571 936.90725 893.08571 857.84475 876.3125 849.46875 L 868.71875 845.78125 C 848.84147 836.90325 829.3052 827.24975 811.03125 815.34375 C 786.18651 798.64757 762.91358 779.88169 740.34375 760.28125 C 758.68945 743.77832 775.64128 725.83188 791.09375 706.46875 C 810.1932 682.71675 828.25884 658.2505 845.0625 632.8125 C 855.36001 617.1045 781.29751 568.542 771 584.25 C 756.67943 607.964 740.34993 630.29625 723.0625 651.90625 C 709.06772 669.25805 693.91575 685.59855 676.875 699.90625 C 675.90695 699.97837 675.00748 700.24648 674.1875 700.75 C 673.84135 700.96495 673.50222 701.19102 673.15625 701.40625 C 654.4811 685.38342 635.5351 669.71614 615.71875 655.09375 C 599.2001 642.88983 582.41582 630.95032 566.3125 618.1875 C 583.84846 614.00253 601.47043 610.23314 619.09375 606.46875 C 649.75394 599.95575 680.61729 594.431 711.625 589.875 C 722.36756 588.339 717.3458 589.051 726.625 587.75 C 738.39687 585.86997 737.04304 549.954 729.75 524.75 C 755.28694 527.62079 787.83047 523.71126 788.03125 512.34375 C 788.08395 501.99675 788.10075 507.47825 788.09375 495.90625 C 787.83619 468.47525 789.40439 441.07375 792.78125 413.84375 C 796.29631 385.01975 802.39402 355.742 797.5 326.75 C 795.24816 320.766 793.95429 314.31425 790.75 308.78125 C 778.51004 287.64525 756.34898 278.62275 733.15625 276.84375 C 713.88358 275.75855 694.54113 275.61474 675.25 276.375 C 680.77607 270.31032 683.47118 264.69624 681.125 260.8125 C 674.61886 250.2135 668.03685 239.63725 660.59375 229.65625 C 645.33758 209.01425 630.61146 188.00575 615.21875 167.46875 C 613.90598 165.88981 611.91316 165.15287 609.4375 165.125 z M 691.375 363.6875 C 697.70411 363.67401 704.02022 363.78966 710.34375 364.03125 C 709.2269 374.37091 708.05045 384.84666 706.875 395.21875 C 705.06581 394.70664 703.25445 394.25317 701.40625 393.90625 C 676.96855 389.31825 651.47339 397.7425 627.375 400.1875 C 593.84648 406.28014 560.5079 413.20994 527.375 421.1875 C 530.53293 408.82386 534.25119 396.60153 538.75 384.625 C 547.60279 382.23126 556.5481 380.08934 565.46875 378.03125 C 599.88241 371.06825 634.734 366.5865 669.75 364.1875 C 676.94503 363.886 684.16856 363.70286 691.375 363.6875 z M 519.78125 456.21875 C 524.08638 481.21152 536.1829 510.10903 546.9375 507.34375 C 578.43054 498.29175 610.53879 491.709 642.78125 486 C 656.16571 483.981 669.5798 481.678 683.125 481 C 683.75735 480.96832 684.69243 480.96103 685.6875 481 C 686.57538 481.34756 687.51098 481.46629 688.46875 481.375 C 687.5647 481.24779 686.65547 481.09906 685.75 481 C 686.93801 481.04769 688.20036 481.1553 689.375 481.25 C 692.91137 480.4518 696.82536 477.0059 700.6875 471.9375 C 700.38552 479.86568 700.18686 487.81467 700.09375 495.75 C 699.98597 500.35739 699.96654 501.47807 699.9375 502.65625 C 699.02282 502.81233 699.26381 502.76752 697.90625 503 C 665.44114 508.47 633.0783 514.5825 600.875 521.4375 C 570.05267 528.06612 539.23868 534.77308 508.65625 542.4375 C 509.60028 527.87594 510.95563 513.33555 512.90625 498.84375 C 514.98883 484.63146 517.16535 470.38656 519.78125 456.21875 z M 689.375 481.25 C 689.06808 481.31928 688.76988 481.3463 688.46875 481.375 C 689.69456 481.54748 690.92141 481.69431 692.15625 481.6875 C 693.77474 481.67677 691.90043 481.45361 689.375 481.25 z M 347.3125 468.90625 C 344.38675 474.59188 341.52484 480.29781 338.6875 486.03125 C 325.59793 513.90481 313.27646 542.12649 301.09375 570.40625 C 294.73594 561.59787 287.91649 553.11032 280.5 545.0625 C 274.18474 538.65603 261.4625 524.71884 255.78125 520.15625 C 257.76683 514.0274 260.25337 508.03587 262.4375 502.03125 C 265.86337 493.11469 269.10016 484.13212 272.25 475.125 C 297.18608 472.12654 322.20676 469.99705 347.3125 468.90625 z M 399.3125 469.40625 C 400.70611 469.72887 402.08145 470.12229 403.4375 470.59375 C 401.95803 470.31301 400.60308 469.90878 399.3125 469.40625 z M 425.15625 508.65625 C 420.06888 560.03389 420.44537 611.78663 420.125 663.375 C 419.30035 702.65543 422.2893 741.88937 421.5625 781.15625 C 419.64394 778.08038 417.74763 774.9924 415.9375 771.84375 C 394.78646 736.08676 373.91509 700.16895 354.71875 663.3125 C 374.80233 617.0562 394.39561 570.54043 416.46875 525.1875 C 419.31461 519.64132 422.19957 514.13919 425.15625 508.65625 z M 254.15625 525.6875 C 254.24844 527.5825 254.08502 529.00321 253.09375 532.1875 C 252.84254 532.9945 253.05637 530.48525 253.21875 529.65625 C 253.47954 528.3241 253.819 527.00116 254.15625 525.6875 z M 506.5625 625.84375 C 507.07914 626.46539 507.60595 627.03058 508.125 627.5625 C 507.59543 628.16072 507.08186 628.76984 506.5625 629.375 C 506.56169 628.19906 506.56237 627.01975 506.5625 625.84375 z M 506.6875 683.09375 C 525.50239 697.62782 544.94181 711.37834 564.15625 725.375 C 575.9191 733.9807 587.36435 742.95867 598.625 752.1875 C 570.5386 773.07042 542.9396 794.59199 514.34375 814.78125 C 511.00171 817.02398 508.58652 818.65142 506.34375 820.15625 C 507.35845 808.66725 508.68395 797.17925 508.84375 785.59375 C 509.25037 751.40243 507.17829 717.27134 506.6875 683.09375 z M 505.375 848.6875 C 507.2297 851.00168 508.10836 853.5538 507.25 856.28125 C 507.03517 856.96425 506.49921 854.14475 505.78125 854.71875 C 505.58148 852.70647 505.47164 850.69505 505.375 848.6875 z "
     id="path10491" />
</svg>
