<?xml version="1.0" encoding="utf-8" ?>

<!DOCTYPE svg PUBLIC "-//W3C//DTD SVG 1.1//EN" 
  "http://www.w3.org/Graphics/SVG/1.1/DTD/svg11.dtd">
<svg 
    xmlns="http://www.w3.org/2000/svg"
    xmlns:xlink="http://www.w3.org/1999/xlink"
    xmlns:sodipodi="http://sodipodi.sourceforge.net/DTD/sodipodi-0.dtd"
    xmlns:inkscape="http://www.inkscape.org/namespaces/inkscape"
    width="1024" height="1024" id="U5B9A">
<path d="m 9711.1296,9357.7693 c 14.9112,24.1363 30.7399,47.687 46.0831,71.5478 2.6594,4.3573 5.3188,8.7146 7.9782,13.072 9.5162,15.7608 -64.781,60.6206 -74.2972,44.8598 l 0,0 c -2.2252,-3.7325 -4.4504,-7.465 -6.6755,-11.1976 -15.0681,-23.6431 -30.6212,-46.9727 -46.3397,-70.1878 -10.2023,-15.5389 63.0488,-63.6331 73.2511,-48.0942 z" id="path22187" inkscape:connector-curvature="0" style="fill:#550000;fill-opacity:1;fill-rule:nonzero;stroke:#f9f9f9;stroke-width:0.1;stroke-miterlimit:4;stroke-dasharray:none" transform="translate(-9216, -9216)"/><path d="m 9538.0566,9550.8294 c -19.5963,14.1677 -31.1386,35.3457 -41.1846,56.7436 -13.3284,31.6916 -20.6323,65.4504 -25.3004,99.3902 -0.282,3.9892 -0.5641,7.9784 -0.8461,11.9677 -1.5971,18.3341 -88.025,10.8056 -86.4279,-7.5286 l 0,0 c 0.5577,-5.6513 1.1154,-11.3025 1.6731,-16.9538 6.4919,-42.3922 15.8797,-84.5549 33.0368,-124.0483 16.5405,-34.2586 36.3783,-66.7806 67.1758,-90.1761 14.9776,-11.004 66.8509,59.6013 51.8733,70.6053 z" id="path22189" inkscape:connector-curvature="0" style="fill:#550000;fill-opacity:1;fill-rule:nonzero;stroke:#f9f9f9;stroke-width:0.1;stroke-miterlimit:4;stroke-dasharray:none" transform="translate(-9216, -9216)"/><path d="m 9472.1812,9561.3565 c 31.3548,-25.5711 69.7565,-39.3137 107.6131,-52.0267 56.0167,-17.6041 114.5643,-23.3241 172.8151,-27.7547 52.1152,-3.94 104.3725,-3.4842 156.581,-2.7175 27.8073,0.5497 55.6959,-0.506 83.2137,4.0679 41.7239,11.236 52.8479,38.2931 47.3269,78.7631 -7.511,32.5851 -20.981,63.3866 -34.117,94.0087 -11.0184,24.6015 -5.348,12.2824 -17.0203,36.9528 -7.8197,16.5371 -85.7762,-20.3251 -77.9565,-36.8621 l 0,0 c 10.6335,-22.5022 5.4561,-11.2036 15.5341,-33.8949 10.251,-24.3034 20.7559,-48.6883 27.339,-74.2993 0.2367,-0.6214 0.3261,-2.4071 0.71,-1.8642 0.9729,1.3756 0.6757,3.3366 1.4054,4.8553 4.2251,8.7932 10.4163,17.0829 20.4525,18.2895 -22.1222,-5.8893 -46.1098,-1.3471 -68.5952,-3.946 -49.4785,-1.24 -99.0169,-2.045 -148.4263,1.6772 -51.1282,3.8636 -102.586,8.6252 -151.7595,24.079 -26.461,9.0164 -54.0644,18.0435 -76.2719,35.6297 -13.7796,12.4827 -72.6238,-52.475 -58.8441,-64.9578 z" id="path22191" inkscape:connector-curvature="0" style="fill:#550000;fill-opacity:1;fill-rule:nonzero;stroke:#f9f9f9;stroke-width:0.1;stroke-miterlimit:4;stroke-dasharray:none" transform="translate(-9216, -9216)"/><path d="m 9521.4254,9724.4861 c 46.4199,-15.6609 93.9008,-27.9004 141.4853,-39.4282 51.0182,-11.8629 102.7219,-20.9763 154.9472,-25.2071 17.2679,-1.9957 33.1599,1.0303 49.6552,5.5058 17.5311,6.0852 -11.1545,88.7276 -28.6856,82.6425 l 0,0 c 8.7162,-2.2205 -14.2438,-1.6928 -14.939,-1.9853 -47.5008,2.6807 -94.4723,11.2125 -140.7865,21.8702 -43.8301,10.7554 -87.7313,21.9905 -129.9665,38.0643 -17.2807,6.7267 -48.9908,-74.7354 -31.7101,-81.4622 z" id="path22193" inkscape:connector-curvature="0" style="fill:#550000;fill-opacity:1;fill-rule:nonzero;stroke:#f9f9f9;stroke-width:0.1;stroke-miterlimit:4;stroke-dasharray:none" transform="translate(-9216, -9216)"/><path d="m 9763.6614,9735.888 c -7.0189,36.3393 -9.4756,73.2933 -10.5387,110.2196 -0.6359,41.3083 3.1775,82.4751 8.106,123.4347 2.1016,18.1946 -83.6683,28.1017 -85.7699,9.9071 l 0,0 c -5.0054,-45.0855 -8.8751,-90.3709 -8.0999,-135.7847 1.1564,-40.9859 3.9141,-81.8967 10.012,-122.478 3.1187,-18.305 89.4091,-3.6037 86.2905,14.7013 z" id="path22195" inkscape:connector-curvature="0" style="fill:#550000;fill-opacity:1;fill-rule:nonzero;stroke:#f9f9f9;stroke-width:0.1;stroke-miterlimit:4;stroke-dasharray:none" transform="translate(-9216, -9216)"/><path d="m 9697.0038,9855.842 c 34.04,-11.7537 70.0606,-15.0611 105.8172,-16.1855 22.626,-0.7466 44.821,2.3945 66.706,7.7555 17.8584,4.8041 -4.7882,88.989 -22.6465,84.185 l 0,0 c -13.4653,-4.3938 -27.5652,-5.5825 -41.6981,-5.5241 -25.2627,0.5528 -50.9313,2.4596 -74.9598,10.8848 -17.2072,7.0467 -50.426,-74.0689 -33.2188,-81.1157 z" id="path22197" inkscape:connector-curvature="0" style="fill:#550000;fill-opacity:1;fill-rule:nonzero;stroke:#f9f9f9;stroke-width:0.1;stroke-miterlimit:4;stroke-dasharray:none" transform="translate(-9216, -9216)"/><path d="m 9638.8674,9832.3561 c -16.3938,26.6473 -27.0659,56.4365 -38.9479,85.2659 -19.6517,49.9293 -45.3267,96.959 -73.7809,142.328 -19.726,30.939 -41.7633,60.254 -66.6315,87.215 -12.6451,13.358 -75.6117,-46.252 -62.9665,-59.609 l 0,0 c 21.7653,-22.173 40.1962,-47.237 57.1541,-73.235 25.976,-41.0431 49.1855,-83.7371 66.6713,-129.1629 14.4124,-35.6729 27.441,-72.3977 48.1788,-105.0217 11.0775,-14.9177 81.4001,37.3021 70.3226,52.2197 z" id="path22199" inkscape:connector-curvature="0" style="fill:#550000;fill-opacity:1;fill-rule:nonzero;stroke:#f9f9f9;stroke-width:0.1;stroke-miterlimit:4;stroke-dasharray:none" transform="translate(-9216, -9216)"/><path d="m 9514.0953,9979.1198 c 36.3141,15.4263 75.6593,21.7002 114.2013,28.9542 64.3016,11.123 128.5434,22.508 192.4539,35.711 57.1185,12.282 113.648,27.068 170.6597,39.816 30.2938,6.575 60.7668,12.272 91.0608,18.845 17.967,4.075 -1.244,88.772 -19.21,84.696 l 0,0 c -30.171,-7.166 -60.59,-13.199 -90.8377,-20.027 -56.395,-13.025 -112.3499,-27.878 -168.9029,-40.224 -63.2693,-13.167 -126.8992,-24.354 -190.6583,-34.88 -45.1912,-8.123 -90.8823,-15.788 -133.7995,-32.732 -17.0045,-7.431 18.0283,-87.5908 35.0327,-80.1592 z" id="path22201" inkscape:connector-curvature="0" style="fill:#550000;fill-opacity:1;fill-rule:nonzero;stroke:#f9f9f9;stroke-width:0.1;stroke-miterlimit:4;stroke-dasharray:none" transform="translate(-9216, -9216)"/></svg>