<?xml version="1.0" encoding="UTF-8" standalone="no"?>
<svg
   xmlns:dc="http://purl.org/dc/elements/1.1/"
   xmlns:cc="http://creativecommons.org/ns#"
   xmlns:rdf="http://www.w3.org/1999/02/22-rdf-syntax-ns#"
   xmlns:svg="http://www.w3.org/2000/svg"
   xmlns="http://www.w3.org/2000/svg"
   xmlns:sodipodi="http://sodipodi.sourceforge.net/DTD/sodipodi-0.dtd"
   xmlns:inkscape="http://www.inkscape.org/namespaces/inkscape"
   width="1024"
   height="1024"
   id="U5BA4"
   version="1.1"
   inkscape:version="0.48.0 r9654"
   sodipodi:docname="U+5BA4.svg">
  <metadata
     id="metadata16">
    <rdf:RDF>
      <cc:Work
         rdf:about="">
        <dc:format>image/svg+xml</dc:format>
        <dc:type
           rdf:resource="http://purl.org/dc/dcmitype/StillImage" />
      </cc:Work>
    </rdf:RDF>
  </metadata>
  <defs
     id="defs14" />
  <sodipodi:namedview
     pagecolor="#ffffff"
     bordercolor="#666666"
     borderopacity="1"
     objecttolerance="10"
     gridtolerance="10"
     guidetolerance="10"
     inkscape:pageopacity="0"
     inkscape:pageshadow="2"
     inkscape:window-width="640"
     inkscape:window-height="480"
     id="namedview12"
     showgrid="false"
     inkscape:zoom="0.27441406"
     inkscape:cx="512"
     inkscape:cy="512"
     inkscape:window-x="0"
     inkscape:window-y="25"
     inkscape:window-maximized="0"
     inkscape:current-layer="U5BA4" />
  <path
     style="fill:#a02c2c;fill-opacity:1;fill-rule:nonzero;stroke:#f9f9f9;stroke-width:0.1;stroke-miterlimit:4;stroke-dasharray:none"
     d="M 472.34375 119.625 C 451.38932 119.46829 397.46479 160.60662 407.03125 173.96875 C 421.54285 194.71675 433.47025 217.1465 445.15625 239.5625 C 447.39498 243.71972 449.42371 247.93114 451.34375 252.21875 C 411.7851 256.66889 372.53139 263.5422 334.375 275.375 C 301.93429 286.77519 269.87431 299.97466 243.4375 321.71875 C 220.62062 311.38793 191.23306 305.31167 187.4375 315.5 C 177.4778 344.161 169.69065 373.52425 161.71875 402.78125 C 154.19485 431.10125 145.79835 459.2035 139.96875 487.9375 C 138.00025 503.6975 138.4462 495.3195 139 513.0625 C 140.83646 530.60577 218.59315 523.57622 226.5 507.1875 C 226.50749 506.66552 226.5387 505.83177 226.5625 504.3125 C 231.0438 477.7195 239.25465 451.9035 245.90625 425.8125 C 249.80514 411.62597 253.6406 397.38778 257.875 383.28125 C 273.08757 394.33566 288.79188 401.27353 293.9375 395 C 312.2435 375.076 338.23475 365.847 363.09375 357.125 C 413.04785 341.658 465.1676 336.20175 517.125 332.96875 C 564.7501 330.36275 612.3755 332.59275 659.75 337.59375 C 692.844 341.49675 725.5527 347.964 758.125 354.875 C 763.49364 356.12104 768.90881 357.24423 774.28125 358.53125 C 769.07055 376.16318 760.57036 392.52123 751.4375 408.40625 C 744.3746 419.78125 747.9733 414.27675 740.6875 424.96875 C 730.276 440.44575 803.24475 489.50925 813.65625 474.03125 C 823.36825 459.45725 818.6366 466.86475 827.8125 451.84375 C 841.4448 427.68275 853.86965 402.69975 860.90625 375.71875 C 867.94515 343.95075 867.1984 312.97475 839.6875 290.84375 C 820.0404 278.65675 798.5694 272.754 775.8125 269 C 740.2591 261.89 704.60575 255.1115 668.53125 251.1875 C 626.36504 247.06869 584.0348 244.88951 541.6875 245.8125 C 542.10088 244.42196 542.09535 243.05805 541.625 241.78125 C 536.0644 227.19525 530.1712 212.77125 522.6875 199.03125 C 509.0539 172.98625 495.08805 147.05925 479.03125 122.40625 C 477.66461 120.49737 475.33724 119.64739 472.34375 119.625 z M 226.5 507.1875 C 226.48978 507.89929 226.52067 507.84864 226.6875 506.71875 C 226.62657 506.87149 226.57293 507.03634 226.5 507.1875 z M 226.6875 506.71875 C 227.05801 505.78999 227.228 504.82767 227.125 503.84375 C 226.92493 505.1075 226.78389 506.06592 226.6875 506.71875 z M 786.65625 361.9375 C 788.693 362.55761 792.85205 363.6967 791.1875 364.1875 C 790.545 364.3765 789.92505 363.81 789.28125 363.625 C 788.32631 363.09797 787.44947 362.54433 786.65625 361.9375 z M 608.46875 395.90625 L 592.09375 396.3125 C 543.08245 399.7655 494.3987 406.80725 445.75 413.53125 C 401.0875 420.25125 356.48965 427.54075 312.28125 436.84375 C 294.12095 441.44575 315.8397 527.0395 334 522.4375 C 352.24543 517.83422 370.6376 513.95102 389.125 510.46875 C 386.10368 513.99617 383.08707 517.51076 380.09375 521.0625 C 359.18835 546.8735 339.22535 573.54925 322.09375 602.03125 C 304.75415 632.19125 307.947 667.6565 339.875 687.1875 C 345.3764 690.5535 352.02535 691.567 358.09375 693.75 C 393.73615 699.553 429.88365 693.1135 465.15625 687.5625 C 469.37538 686.80168 473.59362 686.04247 477.8125 685.28125 C 476.27135 699.76147 475.2915 714.29234 474.4375 728.8125 C 474.39789 730.00881 474.38066 731.20991 474.34375 732.40625 C 472.09605 732.8436 469.83969 733.27067 467.59375 733.71875 C 428.48725 741.03975 389.39055 748.8405 349.78125 752.9375 C 331.15505 755.0065 340.90505 842.78875 359.53125 840.71875 C 397.30281 835.29048 434.75641 828.05641 472.21875 820.84375 C 471.80212 832.60551 471.2556 844.3738 470.4375 856.125 C 469.8536 861.316 469.2713 866.4965 468.6875 871.6875 C 468.30562 875.33865 471.41575 878.63042 476.65625 881.40625 C 459.43665 883.38945 442.21319 885.44146 425 887.5 C 379.1388 892.596 333.23 898.5005 287.0625 899.6875 C 268.3258 900.0755 270.1383 988.388 288.875 988 C 337.6804 984.799 386.22595 978.51625 434.78125 972.78125 C 502.14435 964.31525 569.5689 956.394 637.3125 951.75 C 685.6974 949.07 734.24265 949.022 782.46875 954 C 795.39945 955.541 808.23545 957.95675 820.28125 962.96875 C 837.85315 969.34775 867.91555 886.504 850.34375 880.125 C 830.92385 873.505 811.06675 868.7965 790.53125 867.1875 C 737.55285 862.7495 684.33415 862.9815 631.28125 866.3125 C 606.25925 868.13225 581.26915 870.34872 556.3125 872.8125 C 556.67428 869.12631 557.01324 865.43619 557.375 861.75 C 558.49943 843.13267 559.0951 824.50678 559.53125 805.875 C 578.24861 803.38922 597.02766 801.3791 615.875 799.9375 C 633.682 798.5815 651.563 798.8995 669.25 796.3125 C 687.732 792.8265 671.2944 705.7015 652.8125 709.1875 C 639.1898 711.6755 622.9115 711.27425 608.5 713.03125 C 593.02622 714.46258 577.5892 716.20687 562.1875 718.1875 C 563.36102 701.83113 565.01932 685.46697 568.3125 669.4375 C 576.51675 668.07571 584.72103 666.73151 592.9375 665.4375 C 611.1934 662.4475 597.09955 576.384 578.84375 579.375 C 536.52625 586.57 494.312 594.404 452 601.625 C 443.0265 602.95515 434.03855 604.23049 425.03125 605.34375 C 432.07044 595.82183 439.37016 586.48138 446.6875 577.21875 C 466.8094 553.36475 487.50285 529.89525 510.78125 509.03125 C 514.17436 505.84584 513.01971 499.47958 509.125 491.90625 C 538.4379 488.09534 567.81497 484.86891 597.34375 483.4375 C 601.39835 483.4675 605.4453 483.50125 609.5 483.53125 C 628.0869 483.30825 627.05565 395.68325 608.46875 395.90625 z M 651.71875 541.8125 C 625.63012 542.25728 591.91994 551.11563 593.4375 562.75 C 598.0288 590.618 607.59065 617.22875 616.71875 643.84375 C 621.73175 657.97875 625.89995 672.38525 629.09375 687.03125 C 633.27235 705.21825 718.9911 685.52975 714.8125 667.34375 C 710.6336 649.77675 705.7298 632.41425 699.625 615.40625 C 692.4041 594.39725 684.4289 573.36325 681.1875 551.28125 C 680.27696 544.30025 667.37193 541.54563 651.71875 541.8125 z M 398.9375 644.9375 C 398.6175 646.19451 398.28772 647.45235 397.96875 648.6875 C 397.79205 649.3715 396.571 651.04775 396.625 650.34375 C 396.7329 648.93375 397.6239 647.697 398.125 646.375 C 398.39192 645.8939 398.66775 645.4169 398.9375 644.9375 z "
     id="path12429" />
</svg>
