<?xml version="1.0" encoding="UTF-8" standalone="no"?>
<svg
   xmlns:dc="http://purl.org/dc/elements/1.1/"
   xmlns:cc="http://creativecommons.org/ns#"
   xmlns:rdf="http://www.w3.org/1999/02/22-rdf-syntax-ns#"
   xmlns:svg="http://www.w3.org/2000/svg"
   xmlns="http://www.w3.org/2000/svg"
   xmlns:sodipodi="http://sodipodi.sourceforge.net/DTD/sodipodi-0.dtd"
   xmlns:inkscape="http://www.inkscape.org/namespaces/inkscape"
   width="1024"
   height="1024"
   id="U5B9C"
   version="1.1"
   inkscape:version="0.48.0 r9654"
   sodipodi:docname="U+5B9C.svg">
  <metadata
     id="metadata15">
    <rdf:RDF>
      <cc:Work
         rdf:about="">
        <dc:format>image/svg+xml</dc:format>
        <dc:type
           rdf:resource="http://purl.org/dc/dcmitype/StillImage" />
      </cc:Work>
    </rdf:RDF>
  </metadata>
  <defs
     id="defs13" />
  <sodipodi:namedview
     pagecolor="#ffffff"
     bordercolor="#666666"
     borderopacity="1"
     objecttolerance="10"
     gridtolerance="10"
     guidetolerance="10"
     inkscape:pageopacity="0"
     inkscape:pageshadow="2"
     inkscape:window-width="640"
     inkscape:window-height="480"
     id="namedview11"
     showgrid="false"
     inkscape:zoom="0.27441406"
     inkscape:cx="512"
     inkscape:cy="512"
     inkscape:window-x="0"
     inkscape:window-y="25"
     inkscape:window-maximized="0"
     inkscape:current-layer="U5B9C" />
  <path
     style="fill:#2b1100;fill-opacity:1;fill-rule:nonzero;stroke:none"
     d="M 470.3125 45 C 450.16094 45.111463 398.1633 92.267469 409.0625 104.9375 C 426.5151 125.0375 443.872 145.19975 461.5625 165.09375 C 472.88 177.52375 467.42985 171.559 477.96875 183 C 490.72175 196.628 554.9405 136.53425 542.1875 122.90625 C 532.2712 112.48625 537.3825 117.89225 526.9375 106.65625 C 509.5089 87.28225 492.3995 67.611 476.125 47.25 C 474.7865 45.694031 472.78725 44.986312 470.3125 45 z M 554.40625 207.03125 C 542.78172 207.04792 531.15802 207.2705 519.53125 207.75 C 471.47935 209.959 423.46705 213.64875 375.90625 221.09375 C 343.25045 226.55175 310.61885 232.7665 279.46875 244.3125 C 274.83768 246.18374 273.78698 253.38216 275.0625 262.78125 C 255.18472 250.11053 195.80013 244.79895 193.71875 260.0625 C 191.00955 291.3635 186.47535 322.389 180.65625 353.25 C 172.97885 388.171 167.07825 423.435 162.40625 458.875 C 160.97315 468.442 160.31195 478.105 159.71875 487.75 C 158.90155 506.498 247.27665 510.34175 248.09375 491.59375 C 248.22775 484.24775 248.4188 476.88075 249.5 469.59375 C 253.3156 435.97875 258.7035 402.56125 266.0625 369.53125 C 271.62154 340.70304 276.15842 311.77155 280.03125 282.6875 C 287.97229 305.97728 302.79819 330.3769 312.625 326.40625 C 337.5801 316.32425 364.1748 311.484 390.5625 306.875 C 434.5339 299.691 478.9661 296.29375 523.4375 294.34375 C 566.4156 292.66575 609.38275 294.731 652.21875 298.125 C 684.19285 300.557 715.90665 305.201 747.09375 312.625 C 747.87346 312.67178 750.51892 313.47455 753.8125 314.59375 C 749.351 324.79102 745.00177 335.05094 740.6875 345.3125 C 733.4107 362.3755 813.8482 396.65775 821.125 379.59375 C 826.7082 366.70275 832.37465 353.87425 838.34375 341.15625 C 851.67085 310.51225 857.50805 283.011 831.21875 256.5 C 812.20415 241.492 790.43035 232.30825 766.71875 227.15625 C 731.21315 219.23425 695.19885 214.11875 658.90625 211.46875 C 624.1286 208.8355 589.27985 206.98123 554.40625 207.03125 z M 770.34375 321.0625 C 773.03414 322.32684 774.83816 323.41343 774.78125 323.96875 C 774.70025 324.75975 773.345 323.30575 772.625 322.96875 C 771.79293 322.37625 771.04442 321.72205 770.34375 321.0625 z M 528.28125 364.96875 C 507.93063 365.17502 487.61041 367.23769 467.46875 371.53125 C 435.81105 378.58125 404.4989 387.53875 376.25 403.96875 C 370.78843 407.19877 372.30289 418.05859 377.34375 430.625 C 351.55962 435.12334 319.09824 449.4106 322.5 460.75 C 334.4005 496.033 340.65405 532.79775 346.46875 569.46875 C 354.61785 626.04475 362.00375 682.73225 370.34375 739.28125 C 375.74975 775.49825 382.14665 811.61575 394.34375 846.21875 C 395.87955 849.60675 397.4017 853.01825 398.9375 856.40625 C 399.486 857.50744 400.35596 858.36015 401.46875 859 C 349.97827 865.97189 298.45224 872.52991 246.84375 878.59375 C 210.54385 884.69175 174.5593 892.91625 144.3125 915.15625 C 129.3919 926.56625 183.2044 996.87875 198.125 985.46875 C 216.5418 971.67375 239.32175 968.1155 261.40625 964.3125 C 320.27635 956.7125 379.08415 948.668 437.84375 940.25 C 506.84835 929.611 576.38535 923.756 646.09375 920.625 C 695.02035 918.84 744.01465 918.744 792.90625 921.375 C 805.60955 922.004 818.2221 923.6005 830.8125 925.3125 C 849.3343 927.5545 859.8968 840.242 841.375 838 C 826.5889 836.393 811.77985 834.88375 796.90625 834.34375 C 745.28895 832.32475 693.6085 832.81925 642 835.03125 C 571.91128 838.56159 502.00379 844.64124 432.53125 854.71875 C 456.40837 845.41508 483.13298 827.08576 478.09375 816.96875 C 477.68875 816.46075 477.28 815.9455 476.875 815.4375 C 465.2935 787.0305 461.1424 756.35175 455.75 726.34375 C 446.939 669.78575 439.4715 613.0355 431.8125 556.3125 C 428.02319 531.10056 423.93459 505.92496 418.625 481 C 419.58311 480.93684 420.49163 480.67297 421.3125 480.1875 C 441.0634 467.7045 463.7351 461.77675 486.3125 456.84375 C 512.1412 451.56875 538.3496 450.856 564.375 454.625 C 578.5789 457.441 592.8157 461.7855 602.375 473.1875 C 613.4241 490.5835 616.3597 511.86675 620.25 531.71875 C 626.94624 567.7757 629.25568 604.37303 630.15625 640.96875 C 628.68871 639.50148 627.05204 638.70294 625.25 638.71875 C 605.6762 639.33175 586.43735 641.8725 567.40625 646.6875 C 536.98495 654.0125 506.8616 662.4955 477.5625 673.5625 C 460.127 680.4795 492.72075 762.666 510.15625 755.75 C 535.12955 745.137 561.3334 737.98625 587.6875 731.78125 C 600.3418 729.24725 613.05335 726.1365 626.03125 726.8125 C 628.33767 726.79226 630.34588 725.42984 632.0625 723.0625 C 632.9144 738.41816 633.97931 753.77513 635.03125 769.125 C 637.5053 775.31397 631.36626 803.15232 636.78125 780.90625 C 635.92507 798.7851 710.59769 832.16547 718.125 815.71875 C 723.4653 797.79475 724.72165 781.0205 722.46875 762.3125 C 719.36275 726.5735 716.50955 690.83325 717.21875 654.90625 C 716.38685 608.18725 714.07945 561.37025 705.84375 515.28125 C 698.72705 477.51325 690.64795 439.23775 663.65625 410.09375 C 638.62855 387.06975 609.81775 372.39275 575.78125 367.71875 C 559.94725 365.77756 544.10951 364.80832 528.28125 364.96875 z M 600.15625 504.3125 C 599.87073 504.31184 599.60087 504.33252 599.3125 504.375 C 582.9878 507.202 566.9493 510.7095 551.5 516.9375 C 518.88 529.0365 486.77985 542.74175 457.84375 562.34375 C 442.44075 573.05275 492.94075 645.67775 508.34375 634.96875 C 530.45635 618.64975 555.93835 608.2235 581.59375 598.9375 C 591.55945 595.3095 601.5546 592.236 612.125 591.375 C 630.29233 588.69848 618.14414 504.35411 600.15625 504.3125 z "
     id="path11878" />
</svg>
