<?xml version="1.0" encoding="utf-8" ?>

<!DOCTYPE svg PUBLIC "-//W3C//DTD SVG 1.1//EN" 
  "http://www.w3.org/Graphics/SVG/1.1/DTD/svg11.dtd">
<svg 
    xmlns="http://www.w3.org/2000/svg"
    xmlns:xlink="http://www.w3.org/1999/xlink"
    xmlns:sodipodi="http://sodipodi.sourceforge.net/DTD/sodipodi-0.dtd"
    xmlns:inkscape="http://www.inkscape.org/namespaces/inkscape"
    width="1024" height="1024" id="U5B83">
<path d="m 8655.7455,47320.905 c 5.0614,23.619 16.7846,45.076 28.6237,65.884 6.5212,10.674 13.0077,21.309 19.0693,32.25 8.8128,16.471 -68.8325,58.016 -77.6453,41.545 l 0,0 c -5.3523,-10.613 -11.8011,-20.553 -17.6691,-30.888 -16.3217,-29.264 -31.7233,-59.426 -39.3153,-92.303 -3.4976,-18.442 83.4391,-34.93 86.9367,-16.488 z" id="path11614" inkscape:connector-curvature="0" style="fill:#782121;fill-opacity:1;fill-rule:nonzero;stroke:#f9f9f9;stroke-width:0.1;stroke-miterlimit:4;stroke-dasharray:none" transform="translate(-8192, -47104)"/><path d="m 8480.3244,47518.323 c -13.6699,30.568 -25.1417,62.03 -35.6975,93.787 -5.7865,25.944 -18.9762,51.71 -20.1064,78.609 -2.3046,18.58 -89.8926,7.716 -87.588,-10.864 l 0,0 c 4.9664,-32.473 15.7656,-63.73 25.1761,-95.111 11.1883,-33.807 23.3747,-67.247 36.5424,-100.336 7.1945,-17.326 88.8679,16.589 81.6734,33.915 z" id="path11616" inkscape:connector-curvature="0" style="fill:#782121;fill-opacity:1;fill-rule:nonzero;stroke:#f9f9f9;stroke-width:0.1;stroke-miterlimit:4;stroke-dasharray:none" transform="translate(-8192, -47104)"/><path d="m 8467.1673,47466.881 c 41.3461,-11.155 84.1488,-14.609 126.6763,-17.965 57.9225,-3.68 115.6986,-9.158 173.472,-14.63 52.9482,-5.465 106.138,-6.9 159.3203,-5.833 32.0976,0.801 64.1479,2.188 94.4853,13.27 44.8915,26.425 38.43,63.914 23.6481,105.762 -11.3871,28.336 -22.3859,56.802 -32.2866,85.693 -4.7234,13.956 -8.607,28.173 -12.7775,42.298 -5.3924,17.892 -89.7353,-7.528 -84.3428,-25.42 l 0,0 c 4.6891,-15.227 9.0776,-30.553 14.3552,-45.592 10.1559,-28.944 21.0925,-57.586 32.3064,-86.135 11.6517,-33.189 0.2733,-3.413 25.0349,4.84 -2.2319,-5.363 -55.6717,-7.316 -62.6299,-7.849 -49.7339,-1.556 -99.4957,-0.471 -149.0338,4.578 -58.1198,5.465 -116.2278,11.079 -174.4636,15.196 -35.9483,3.084 -72.3675,5.71 -107.1276,16.033 -17.8713,5.651 -44.508,-78.596 -26.6367,-84.246 z" id="path11618" inkscape:connector-curvature="0" style="fill:#782121;fill-opacity:1;fill-rule:nonzero;stroke:#f9f9f9;stroke-width:0.1;stroke-miterlimit:4;stroke-dasharray:none" transform="translate(-8192, -47104)"/><path d="m 8785.3529,47617.694 c -20.7185,37.221 -49.1301,69.219 -77.9311,100.292 -29.3186,31.7 -62.8418,58.656 -98.4875,82.804 -15.2984,10.244 -63.5895,-61.873 -48.2912,-72.117 l 0,0 c 30.2909,-19.988 58.4856,-42.77 83.1813,-69.495 22.9138,-24.847 45.995,-50.283 62.1054,-80.242 8.2219,-16.848 87.645,21.91 79.4231,38.758 z" id="path11620" inkscape:connector-curvature="0" style="fill:#782121;fill-opacity:1;fill-rule:nonzero;stroke:#f9f9f9;stroke-width:0.1;stroke-miterlimit:4;stroke-dasharray:none" transform="translate(-8192, -47104)"/><path d="m 8581.6358,47601.411 c -13.5892,25.979 -19.2841,54.679 -23.5836,83.391 -6.0612,50.063 -2.7748,100.444 4.5421,150.141 5.7475,33.707 14.7339,66.863 37.6327,92.933 24.6289,21.781 57.8332,27.539 89.1725,33.105 50.7446,8.159 101.7901,3.389 152.2364,-4.058 43.1404,-6.734 85.3626,-17.775 126.435,-32.463 12.8459,-6.463 29.6168,-9.312 40.0409,-19.981 14.8539,-11.406 68.6231,58.616 53.7692,70.022 l 0,0 c -19.8727,14.336 -41.8828,24.462 -65.1081,32.3 -46.4943,15.848 -94.107,28.047 -142.7242,35.42 -59.6332,8.568 -119.9539,13.584 -179.8651,3.907 -52.3373,-9.398 -104.1215,-22.704 -141.6188,-63.19 -33.0617,-42.225 -47.3741,-82.931 -55.4933,-135.839 -7.987,-57.97 -11.6346,-116.655 -4.8077,-174.988 5.5081,-37.593 13.2658,-74.839 29.7714,-109.363 8.2017,-16.886 87.8023,21.777 79.6006,38.663 z" id="path11622" inkscape:connector-curvature="0" style="fill:#782121;fill-opacity:1;fill-rule:nonzero;stroke:#f9f9f9;stroke-width:0.1;stroke-miterlimit:4;stroke-dasharray:none" transform="translate(-8192, -47104)"/></svg>