<?xml version="1.0" encoding="UTF-8" standalone="no"?>
<svg
   xmlns:dc="http://purl.org/dc/elements/1.1/"
   xmlns:cc="http://creativecommons.org/ns#"
   xmlns:rdf="http://www.w3.org/1999/02/22-rdf-syntax-ns#"
   xmlns:svg="http://www.w3.org/2000/svg"
   xmlns="http://www.w3.org/2000/svg"
   xmlns:sodipodi="http://sodipodi.sourceforge.net/DTD/sodipodi-0.dtd"
   xmlns:inkscape="http://www.inkscape.org/namespaces/inkscape"
   width="1024"
   height="1024"
   id="U5BFC"
   version="1.1"
   inkscape:version="0.48.0 r9654"
   sodipodi:docname="U+5BFC.svg">
  <metadata
     id="metadata13">
    <rdf:RDF>
      <cc:Work
         rdf:about="">
        <dc:format>image/svg+xml</dc:format>
        <dc:type
           rdf:resource="http://purl.org/dc/dcmitype/StillImage" />
      </cc:Work>
    </rdf:RDF>
  </metadata>
  <defs
     id="defs11" />
  <sodipodi:namedview
     pagecolor="#ffffff"
     bordercolor="#666666"
     borderopacity="1"
     objecttolerance="10"
     gridtolerance="10"
     guidetolerance="10"
     inkscape:pageopacity="0"
     inkscape:pageshadow="2"
     inkscape:window-width="640"
     inkscape:window-height="480"
     id="namedview9"
     showgrid="false"
     inkscape:zoom="0.27441406"
     inkscape:cx="512"
     inkscape:cy="512"
     inkscape:window-x="0"
     inkscape:window-y="25"
     inkscape:window-maximized="0"
     inkscape:current-layer="U5BFC" />
  <path
     style="fill:#800000;fill-opacity:1;fill-rule:nonzero;stroke:#f9f9f9;stroke-width:0.1;stroke-miterlimit:4;stroke-dasharray:none"
     d="M 514.375 94.625 C 492.54847 94.460113 470.6147 96.41625 448.71875 99.125 C 412.23079 103.57414 375.81873 108.72642 339.4375 113.96875 C 319.94993 107.17034 299.98915 104.62267 296.90625 112.84375 C 283.80005 150.32885 272.6866 188.4125 262.625 226.8125 C 247.7963 283.2426 240.1125 334.2628 246.25 392.5 C 255.4038 439.9575 282.54355 478.62075 325.03125 502.15625 C 333.52335 506.86035 342.70175 510.24605 351.53125 514.28125 C 409.817 534.71112 471.58382 532.56118 532.21875 527.75 C 528.54855 550.43232 526.61041 573.50129 524.4375 596.21875 C 523.53327 608.15743 522.66485 620.09134 521.78125 632.03125 C 455.9788 640.88675 390.29747 650.5617 324.4375 659 C 274.3285 665.5475 224.2237 672.38505 173.875 676.84375 C 155.4503 678.96965 165.4503 765.8134 183.875 763.6875 C 234.5368 757.0545 285.1444 749.9841 335.75 742.9375 C 395.63385 734.82155 455.43972 726.04708 515.34375 718.09375 C 512.73532 752.21785 509.99414 786.35231 506.875 820.4375 C 500.1201 868.0285 499.28825 917.7159 483.96875 963.6875 C 478.74085 981.3248 561.8971 1005.9498 567.125 988.3125 C 581.4558 936.0539 585.0689 881.64875 590.9375 827.96875 C 594.44474 788.06242 597.58318 748.12305 600.71875 708.1875 C 630.59855 705.69845 660.58139 704.68539 690.53125 706.71875 C 708.92385 707.63775 713.23635 620.9191 694.84375 620 C 665.72824 618.95425 636.66028 619.90876 607.65625 622.1875 C 608.14574 616.38227 608.62136 610.58536 609.125 604.78125 C 612.31118 575.04898 614.41587 544.15059 623.40625 515.40625 C 651.39882 510.69268 679.3059 505.47054 707.25 500.53125 C 717.1218 498.80935 727.7547 496.84675 737.75 495.46875 C 740.7612 495.05355 743.781 494.6615 746.8125 494.4375 C 747.01392 494.42264 747.421 494.41699 747.71875 494.40625 C 764.48076 487.80385 776.57038 411.18537 759.3125 408.21875 C 736.2716 406.47785 714.11065 410.9164 691.59375 415.875 C 639.22365 426.0057 586.8433 436.6725 533.75 442.3125 C 484.6132 446.4042 434.0207 450.0097 386.125 435.625 C 360.0595 424.9553 338.41765 411.47985 331.59375 382.28125 C 331.03718 378.37714 330.61506 374.45962 330.28125 370.5625 C 370.42804 370.79234 410.54265 368.31289 450.625 366.3125 C 482.65314 365.12997 514.71981 362.78011 546.78125 362.375 C 557.35613 364.69668 566.66013 365.12795 571.5 362.5 C 574.51074 362.5745 577.52053 362.6561 580.53125 362.78125 C 592.66188 363.07492 597.71655 325.49536 594.46875 299.71875 C 603.68365 272.18029 613.18504 244.72164 621.53125 216.90625 C 633.58305 166.10525 632.51235 127.99565 579.34375 102.90625 C 557.9179 97.08905 536.20153 94.789887 514.375 94.625 z M 747.71875 494.40625 C 747.33505 494.55739 746.95079 494.67398 746.5625 494.75 C 747.93925 494.73556 749.32677 494.69049 750.6875 494.5 C 751.76998 494.34849 749.33018 494.34814 747.71875 494.40625 z M 746.5625 494.75 C 745.85338 494.75744 745.14456 494.75133 744.4375 494.78125 C 745.14876 494.90352 745.86342 494.88687 746.5625 494.75 z M 519 179.6875 C 526.55492 179.67931 533.99538 180.26724 541.15625 181.875 C 540.77928 182.81685 540.39092 184.0769 539.96875 185.75 C 539.06665 189.3254 538.18115 192.89285 537.28125 196.46875 C 529.05252 223.78083 519.76524 250.78166 510.65625 277.8125 C 489.3023 278.81581 467.95022 280.02528 446.59375 280.875 C 410.20073 282.48359 373.71398 284.68512 337.28125 283.40625 C 339.68794 271.80989 342.48118 260.25948 345.4375 248.78125 C 349.91199 232.15273 354.58842 215.5861 359.65625 199.125 C 392.6871 193.20524 425.92491 188.47448 459.21875 184.3125 C 477.96981 183.93613 498.8957 179.70929 519 179.6875 z M 546 183.125 C 548.59559 183.89861 551.1542 184.83695 553.65625 185.9375 C 550.06718 189.50521 547.81417 186.1523 546 183.125 z M 321.125 774.8125 C 303.18679 776.37846 268.90897 845.244 284.375 853.21875 C 318.3595 870.17995 352.36765 887.0951 386.65625 903.4375 C 412.46745 915.5419 399.76515 909.5495 424.65625 921.375 C 441.18095 929.1785 477.99335 851.27225 461.46875 843.46875 C 436.41945 831.70975 448.99155 837.6152 423.65625 825.8125 C 390.18485 809.8342 356.92845 793.4037 324.46875 775.4375 C 323.43768 774.90585 322.32088 774.7081 321.125 774.8125 z "
     id="path21767" />
</svg>
