<?xml version="1.0" encoding="utf-8" ?>

<!DOCTYPE svg PUBLIC "-//W3C//DTD SVG 1.1//EN" 
  "http://www.w3.org/Graphics/SVG/1.1/DTD/svg11.dtd">
<svg 
    xmlns="http://www.w3.org/2000/svg"
    xmlns:xlink="http://www.w3.org/1999/xlink"
    xmlns:sodipodi="http://sodipodi.sourceforge.net/DTD/sodipodi-0.dtd"
    xmlns:inkscape="http://www.inkscape.org/namespaces/inkscape"
    width="1024" height="1024" id="U5B69">
<path d="m 11434.258,16687.09 c 31.423,3.481 62.996,4.981 94.418,8.534 32.421,3.741 63.241,12.916 90.526,30.894 37.002,32.132 31.942,67.962 -4.72,97.196 -17.161,11.093 -36.258,18.672 -53.005,30.43 -11.351,10.751 -1.41,4.686 0.244,-6.701 9.107,10.817 20.811,27.202 30.37,39.918 24.554,31.048 39.062,66.667 47.663,104.938 7.274,42.265 2.616,85.029 -3.557,127.081 -5.22,35.28 -15.615,69.255 -30.427,101.614 -13.446,28.715 -34.129,49.639 -62.028,64.079 -5.278,1.66 -10.555,3.319 -15.833,4.979 -17.889,4.819 -40.605,-79.508 -22.716,-84.327 l 0,0 c 0.42,0.125 0.84,0.25 1.26,0.375 10.371,-1.431 15.612,-14.392 20.611,-21.943 11.85,-24.503 19.487,-50.607 23.753,-77.502 4.813,-31.733 8.937,-64.045 4.402,-96.078 -5.29,-26.137 -15.467,-49.901 -32.303,-70.875 -17.823,-23.392 -38.203,-45.868 -46.888,-74.574 -0.776,-6.084 -2.39,-12.119 -2.327,-18.252 0.284,-27.798 17.22,-49.456 38.839,-64.914 16.043,-10.663 32.881,-19.848 50.002,-28.662 -6.133,12.863 -10.704,36.567 6.196,44.603 -12.291,-12.483 -34.204,-12.49 -49.935,-16.419 -31.463,-3.688 -63.086,-4.979 -94.659,-7.41 -18.453,-2.146 -8.338,-89.13 10.114,-86.984 z" id="path24347" inkscape:connector-curvature="0" style="fill:#550000;fill-opacity:1;fill-rule:nonzero;stroke:#f9f9f9;stroke-width:0.1;stroke-miterlimit:4;stroke-dasharray:none" transform="translate(-11264, -16384)"/><path d="m 11306.641,17096.255 c 42.535,-16.706 85.547,-32.156 128.535,-47.647 63.968,-22.895 127.802,-46.163 191.602,-69.525 38.347,-13.962 76.617,-28.14 115.009,-41.98 11.576,-4.136 6.115,-2.193 16.38,-5.834 17.572,-5.961 45.671,76.873 28.099,82.834 l 0,0 c -9.998,3.232 -4.679,1.502 -15.954,5.197 -38.343,12.777 -76.499,26.11 -114.56,39.703 -63.879,22.928 -127.686,46.056 -191.384,69.483 -41.471,15.371 -83.102,30.487 -123.558,48.407 -17.106,7.248 -51.275,-73.39 -34.169,-80.638 z" id="path24349" inkscape:connector-curvature="0" style="fill:#550000;fill-opacity:1;fill-rule:nonzero;stroke:#f9f9f9;stroke-width:0.1;stroke-miterlimit:4;stroke-dasharray:none" transform="translate(-11264, -16384)"/><path d="m 11903.227,16622.066 c 12.564,18.989 30.138,33.507 47.87,47.411 13.456,10.479 6.789,5.112 19.998,16.105 14.099,11.935 -42.16,78.398 -56.259,66.464 l 0,0 c -10.676,-9.242 -4.833,-4.37 -17.622,-14.505 -24.643,-19.661 -48.357,-40.646 -66.644,-66.585 -10.372,-15.412 62.285,-64.303 72.657,-48.89 z" id="path24351" inkscape:connector-curvature="0" style="fill:#550000;fill-opacity:1;fill-rule:nonzero;stroke:#f9f9f9;stroke-width:0.1;stroke-miterlimit:4;stroke-dasharray:none" transform="translate(-11264, -16384)"/><path d="m 11735.411,16768.229 c 33.139,8.505 67.337,11.28 101.391,13.01 37.241,1.529 74.318,-2.149 111.121,-7.427 11.932,-2.084 24.039,-3.464 35.775,-6.531 18.139,-4.015 37.062,81.492 18.923,85.506 l 0,0 c -14.263,2.861 -28.665,4.889 -43.076,6.868 -42.132,5.4 -84.529,9.168 -127.061,7.428 -40.086,-1.999 -80.172,-5.502 -119.429,-14.265 -17.944,-4.742 4.412,-89.331 22.356,-84.589 z" id="path24353" inkscape:connector-curvature="0" style="fill:#550000;fill-opacity:1;fill-rule:nonzero;stroke:#f9f9f9;stroke-width:0.1;stroke-miterlimit:4;stroke-dasharray:none" transform="translate(-11264, -16384)"/><path d="m 11903.37,16851.442 c -20.382,26.486 -40.111,53.468 -59.808,80.465 -22.496,30.934 -45.257,61.692 -65.197,94.36 -0.147,4.311 -12.648,16.815 -9.781,22.276 0.436,0.83 1.358,-1.468 1.466,-2.4 1.413,-12.17 -0.393,-11.253 -6.033,-23.184 -14.592,-10.999 3.953,-6.939 11.597,-7.465 10.249,-0.705 20.804,-1.975 30.992,-3.088 31.505,-4.115 63.163,-7.707 94.261,-14.349 2.527,-0.762 5.055,-1.525 7.582,-2.287 17.823,-4.89 40.875,79.128 23.052,84.018 l 0,0 c -4.481,1.161 -8.963,2.321 -13.444,3.482 -33.678,6.483 -67.766,10.494 -101.75,15.009 -29.166,3.394 -65.031,10.757 -93.283,-1.013 -7.424,-3.093 -13.856,-8.171 -20.784,-12.257 -5.15,-7.386 -11.871,-13.896 -15.451,-22.158 -12.346,-28.486 4.189,-58.285 18.014,-82.286 21.513,-34.116 45.444,-66.552 69.097,-99.2 19.742,-27.362 39.624,-54.625 59.148,-82.142 11.077,-14.918 81.4,37.302 70.322,52.219 z" id="path24355" inkscape:connector-curvature="0" style="fill:#550000;fill-opacity:1;fill-rule:nonzero;stroke:#f9f9f9;stroke-width:0.1;stroke-miterlimit:4;stroke-dasharray:none" transform="translate(-11264, -16384)"/><path d="m 12028.699,16945.285 c -20.479,36.127 -45.276,69.515 -70.311,102.557 -30.38,38.766 -61.138,77.214 -89.819,117.267 -8.546,12.389 -17.078,24.805 -24.84,37.707 -1.522,2.53 -3.023,5.075 -4.411,7.682 -0.662,1.242 -2.629,4.933 -1.73,3.85 1.128,-1.359 1.626,-3.136 2.439,-4.704 -5.17,17.911 -89.604,-6.462 -84.434,-24.373 l 0,0 c 9.978,-26.007 27.566,-47.929 43.298,-70.69 29.448,-40.136 60.536,-78.992 91.055,-118.309 21.898,-29.234 43.918,-58.683 60.985,-91.087 8.507,-16.497 86.275,23.603 77.768,40.1 z" id="path24357" inkscape:connector-curvature="0" style="fill:#550000;fill-opacity:1;fill-rule:nonzero;stroke:#f9f9f9;stroke-width:0.1;stroke-miterlimit:4;stroke-dasharray:none" transform="translate(-11264, -16384)"/><path d="m 12061.1,17065.025 c -20.242,32.959 -42.299,64.704 -65.231,95.832 -26.478,35.194 -54.224,69.408 -81.742,103.788 -4.73,4.744 -30.541,39.559 -20.3,25.824 -8.743,16.492 -86.489,-24.724 -77.746,-41.216 l 0,0 c 8.911,-14.153 20.354,-26.302 30.937,-39.217 27.154,-32.821 54.185,-65.774 79.639,-99.944 21.04,-28.824 41.436,-58.183 58.917,-89.341 9.391,-16.021 84.918,28.253 75.526,44.274 z" id="path24359" inkscape:connector-curvature="0" style="fill:#550000;fill-opacity:1;fill-rule:nonzero;stroke:#f9f9f9;stroke-width:0.1;stroke-miterlimit:4;stroke-dasharray:none" transform="translate(-11264, -16384)"/><path d="m 12031.82,17153.125 c 10.359,18.381 25.505,32.754 41.74,45.863 22.562,16.658 46.68,30.979 69.267,47.607 13.937,11.686 7.295,5.596 19.952,18.241 12.82,13.366 -50.186,73.8 -63.006,60.434 l 0,0 c -4.919,-5.752 -1.999,-2.67 -9.023,-8.988 -23.289,-17.753 -48.9,-32.14 -72.018,-50.144 -23.814,-19.593 -45.713,-41.198 -61.942,-67.682 -9.616,-15.916 65.414,-61.247 75.03,-45.331 z" id="path24361" inkscape:connector-curvature="0" style="fill:#550000;fill-opacity:1;fill-rule:nonzero;stroke:#f9f9f9;stroke-width:0.1;stroke-miterlimit:4;stroke-dasharray:none" transform="translate(-11264, -16384)"/></svg>