<?xml version="1.0" encoding="utf-8" ?>

<!DOCTYPE svg PUBLIC "-//W3C//DTD SVG 1.1//EN" 
  "http://www.w3.org/Graphics/SVG/1.1/DTD/svg11.dtd">
<svg 
    xmlns="http://www.w3.org/2000/svg"
    xmlns:xlink="http://www.w3.org/1999/xlink"
    xmlns:sodipodi="http://sodipodi.sourceforge.net/DTD/sodipodi-0.dtd"
    xmlns:inkscape="http://www.inkscape.org/namespaces/inkscape"
    width="1024" height="1024" id="U5B8C">
<path d="m 8651.0419,50317.246 c 15.2291,24.032 29.9811,48.312 42.4702,73.89 1.9171,4.884 3.8342,9.768 5.7512,14.652 6.546,17.454 -75.7325,48.311 -82.2784,30.858 l 0,0 c -0.8631,-2.53 -1.7262,-5.059 -2.5893,-7.588 -10.3948,-22.285 -23.5254,-43.124 -37.3868,-63.406 -10.2686,-15.705 63.7646,-64.111 74.0331,-48.406 z" id="path12626" inkscape:connector-curvature="0" style="fill:#501616;fill-opacity:1;fill-rule:nonzero;stroke:#f9f9f9;stroke-width:0.1;stroke-miterlimit:4;stroke-dasharray:none" transform="translate(-8192, -50176)"/><path d="m 8471.2535,50504.311 c -16.9341,18.776 -27.7459,41.893 -37.8291,64.808 -10.4475,25.673 -18.9175,52.266 -22.1914,79.853 -2.5825,18.458 -89.5981,6.285 -87.0157,-12.174 l 0,0 c 5.4357,-35.427 15.4853,-69.877 29.4203,-102.923 14.2477,-32.157 30.1214,-63.911 53.4836,-90.567 12.9409,-13.605 77.0732,47.399 64.1323,61.003 z" id="path12628" inkscape:connector-curvature="0" style="fill:#501616;fill-opacity:1;fill-rule:nonzero;stroke:#f9f9f9;stroke-width:0.1;stroke-miterlimit:4;stroke-dasharray:none" transform="translate(-8192, -50176)"/><path d="m 8420.7805,50497.394 c 32.5554,-20.404 70.0694,-29.562 107.1727,-37.634 54.9464,-10.955 111.0043,-13.21 166.8612,-14.027 52.8534,-0.41 105.6942,1.745 158.1925,7.901 33.548,4.25 66.0352,13.076 95.9397,28.892 24.8217,14.151 38.4695,36.202 45.2719,63.241 4.9186,32.721 -8.1241,62.985 -20.9712,92.27 -10.0292,21.433 -20.1997,42.791 -29.8317,64.406 -7.5883,16.901 -87.2578,-18.871 -79.6695,-35.771 l 0,0 c 9.6091,-21.252 19.6233,-42.312 29.3225,-63.523 5.4815,-12.729 10.6832,-25.855 14.6875,-38.981 3.1739,-0.916 0.4906,-3.151 -1.4603,-4.526 -19.2703,-11.792 -41.9862,-15.913 -63.9396,-19.748 -48.4858,-6.337 -97.3838,-8.348 -146.2678,-8.041 -50.0531,0.749 -100.3021,2.755 -149.5102,12.752 -25.7931,5.724 -52.4605,11.44 -75.2482,25.454 -15.4146,10.723 -65.9641,-61.942 -50.5495,-72.665 z" id="path12630" inkscape:connector-curvature="0" style="fill:#501616;fill-opacity:1;fill-rule:nonzero;stroke:#f9f9f9;stroke-width:0.1;stroke-miterlimit:4;stroke-dasharray:none" transform="translate(-8192, -50176)"/><path d="m 8494.9664,50623.944 c 42.2784,-7.855 84.8946,-13.392 127.6327,-17.994 44.1439,-4.808 88.4955,-7.562 132.8341,-4.483 4.8484,0.635 9.6969,1.27 14.5454,1.905 18.4425,2.722 5.6111,89.661 -12.8314,86.939 l 0,0 c -2.9469,-0.516 -5.8939,-1.032 -8.8409,-1.547 -38.7654,-3.81 -77.6892,-0.861 -116.3428,3.114 -40.1854,4.435 -80.3544,9.584 -119.7882,18.725 -18.3831,3.65 -35.592,-83.008 -17.2089,-86.659 z" id="path12632" inkscape:connector-curvature="0" style="fill:#501616;fill-opacity:1;fill-rule:nonzero;stroke:#f9f9f9;stroke-width:0.1;stroke-miterlimit:4;stroke-dasharray:none" transform="translate(-8192, -50176)"/><path d="m 8364.803,50816.67 c 43.527,-9.006 86.93,-18.56 130.6055,-26.871 68.3885,-12.803 137.6615,-19.767 206.9244,-25.713 55.4939,-4.308 111.0033,-8.566 166.6353,-10.568 18.8256,-0.553 37.658,-0.338 56.4876,-0.359 18.6928,0.261 17.4612,88.38 -1.2315,88.118 l 0,0 c -17.5819,-0.506 -35.1664,-1.097 -52.7594,-0.868 -54.0584,1.133 -108.0032,4.924 -161.912,8.968 -66.2174,5.524 -132.4583,12.103 -197.7578,24.757 -44.1317,8.761 -87.9681,18.753 -131.617,29.662 -18.4821,3.262 -33.8572,-83.864 -15.3751,-87.126 z" id="path12634" inkscape:connector-curvature="0" style="fill:#501616;fill-opacity:1;fill-rule:nonzero;stroke:#f9f9f9;stroke-width:0.1;stroke-miterlimit:4;stroke-dasharray:none" transform="translate(-8192, -50176)"/><path d="m 8615.4551,50812.052 c -11.5974,32.461 -23.625,64.762 -35.9317,96.959 -17.3605,44.908 -36.5326,89.081 -54.7165,133.655 -7.8033,19.508 -15.6644,39.006 -21.8894,59.083 -5.8744,17.69 -89.2635,-10.003 -83.3891,-27.692 l 0,0 c 7.5926,-21.758 16.2177,-43.119 25.0468,-64.403 18.1279,-43.693 36.9563,-87.111 53.7491,-131.343 11.6891,-31.267 23.3077,-62.591 33.2655,-94.461 5.9827,-17.791 89.848,10.412 83.8653,28.202 z" id="path12636" inkscape:connector-curvature="0" style="fill:#501616;fill-opacity:1;fill-rule:nonzero;stroke:#f9f9f9;stroke-width:0.1;stroke-miterlimit:4;stroke-dasharray:none" transform="translate(-8192, -50176)"/><path d="m 8745.3743,50856.218 c 3.6147,28.978 6.1903,58.04 8.1271,87.174 2.0522,27.717 1.8189,56.665 14.1887,82.146 9.3869,14.68 25.9549,18.071 41.9752,21.262 38.3062,5.333 77.0355,1.345 115.2317,-2.9 32.5816,-3.984 65.0181,-9.027 97.5493,-13.39 7.2167,-0.95 14.4481,-1.727 21.6341,-2.888 18.5864,-2.625 30.9604,84.992 12.374,87.617 l 0,0 c -7.7363,0.991 -15.4862,1.783 -23.2467,2.566 -33.0194,3.699 -65.8968,8.491 -98.8931,12.384 -47.6246,5.111 -95.9063,9.596 -143.5253,1.841 -46.202,-10.777 -81.0754,-27.972 -103.6095,-71.995 -14.3387,-35.469 -19.7554,-72.471 -20.7816,-110.67 -1.9599,-27.676 -4.4074,-55.32 -8.89,-82.722 -2.2114,-18.639 85.6547,-29.064 87.8661,-10.425 z" id="path12638" inkscape:connector-curvature="0" style="fill:#501616;fill-opacity:1;fill-rule:nonzero;stroke:#f9f9f9;stroke-width:0.1;stroke-miterlimit:4;stroke-dasharray:none" transform="translate(-8192, -50176)"/></svg>