<?xml version="1.0" encoding="UTF-8" standalone="no"?>
<svg
   xmlns:dc="http://purl.org/dc/elements/1.1/"
   xmlns:cc="http://creativecommons.org/ns#"
   xmlns:rdf="http://www.w3.org/1999/02/22-rdf-syntax-ns#"
   xmlns:svg="http://www.w3.org/2000/svg"
   xmlns="http://www.w3.org/2000/svg"
   xmlns:sodipodi="http://sodipodi.sourceforge.net/DTD/sodipodi-0.dtd"
   xmlns:inkscape="http://www.inkscape.org/namespaces/inkscape"
   width="1024"
   height="1024"
   id="U5C06"
   version="1.1"
   inkscape:version="0.48.0 r9654"
   sodipodi:docname="U+5C06.svg">
  <metadata
     id="metadata16">
    <rdf:RDF>
      <cc:Work
         rdf:about="">
        <dc:format>image/svg+xml</dc:format>
        <dc:type
           rdf:resource="http://purl.org/dc/dcmitype/StillImage" />
      </cc:Work>
    </rdf:RDF>
  </metadata>
  <defs
     id="defs14" />
  <sodipodi:namedview
     pagecolor="#ffffff"
     bordercolor="#666666"
     borderopacity="1"
     objecttolerance="10"
     gridtolerance="10"
     guidetolerance="10"
     inkscape:pageopacity="0"
     inkscape:pageshadow="2"
     inkscape:window-width="640"
     inkscape:window-height="480"
     id="namedview12"
     showgrid="false"
     inkscape:zoom="0.27441406"
     inkscape:cx="512"
     inkscape:cy="512"
     inkscape:window-x="0"
     inkscape:window-y="25"
     inkscape:window-maximized="0"
     inkscape:current-layer="U5C06" />
  <path
     style="fill:#550000;fill-opacity:1;fill-rule:nonzero;stroke:#f9f9f9;stroke-width:0.1;stroke-miterlimit:4;stroke-dasharray:none"
     d="M 284.09375 160.59375 C 277.01555 160.65587 271.89515 162.35359 270.5625 166.28125 C 259.4652 207.45125 256.1695 250.20875 251.6875 292.46875 C 243.9439 364.62375 234.59715 436.5835 226.40625 508.6875 C 225.35833 517.99353 224.34793 527.30892 223.40625 536.625 C 213.74348 542.79341 204.07571 548.95902 194.3125 554.96875 C 165.1846 572.83075 136.11805 590.89425 105.78125 606.65625 C 88.98135 615.38125 130.10635 694.56875 146.90625 685.84375 C 169.69071 672.87937 192.1472 659.36146 214.53125 645.71875 C 213.51714 661.52838 212.60405 677.36684 211.78125 693.1875 C 210.92635 709.4875 210.5848 725.807 210.375 742.125 C 210.4073 760.956 299.157 760.79975 299.125 741.96875 C 298.8531 726.99975 298.77655 712.0285 299.34375 697.0625 C 301.50175 637.3695 305.48265 577.73275 311.96875 518.34375 C 320.04255 446.20175 329.64495 374.2635 338.28125 302.1875 C 342.52255 266.3295 345.48225 229.887 355.21875 195 C 359.97812 180.97266 309.37304 160.3719 284.09375 160.59375 z M 476.96875 179.78125 C 472.10778 179.81432 468.5659 181.12963 467.15625 184.0625 C 457.79648 204.53628 447.35462 224.45067 436.4375 244.125 C 434.2189 244.98987 432.01603 245.86852 429.8125 246.78125 C 425.50085 248.63499 424.42266 255.05549 425.5 263.5625 C 420.35963 272.53886 415.15265 281.48015 409.9375 290.40625 C 393.8147 317.81525 377.0242 344.81 359.9375 371.625 C 350.0247 387.408 424.43105 434.12675 434.34375 418.34375 C 435.22088 416.92742 436.09263 415.5107 436.96875 414.09375 C 459.11569 428.05597 481.46865 441.69201 503.375 456.03125 C 504.84192 457.03578 506.30711 458.03387 507.78125 459.03125 C 503.75477 463.49446 499.7214 467.95037 495.6875 472.40625 C 466.9506 503.77425 438.4493 535.359 409.875 566.875 C 408.2898 570.279 389.65065 586.42275 395.96875 579.71875 C 384.38893 585.66571 400.02008 625.00577 416.40625 646.28125 C 386.66402 653.54967 356.94777 660.95995 327.28125 668.53125 C 309.13505 674.06125 335.2288 759.62375 353.375 754.09375 C 387.308 743.98375 421.6521 735.2635 456 726.6875 C 506.814 714.2785 558.24755 704.724 609.78125 695.875 C 611.38598 695.57717 612.98737 695.28293 614.59375 695 C 612.94501 718.2617 611.2763 741.54447 609.71875 764.8125 C 606.37445 813.9845 604.1512 863.21175 602.5625 912.46875 C 601.8129 928.74775 602.3899 921.38675 601.125 934.59375 C 599.7561 953.40775 688.4436 959.84525 689.8125 941.03125 C 690.7719 923.99225 690.4175 932.87175 690.8125 914.46875 C 691.4142 866.44775 693.1959 818.426 696.3125 770.5 C 698.14476 742.29179 700.16447 714.10081 702.1875 685.90625 C 711.58204 685.48904 720.9975 685.19367 730.40625 685.03125 C 755.87185 685.08825 781.32075 685.399 806.78125 684.75 L 815.9375 684.1875 C 834.8151 682.7035 827.8151 593.7025 808.9375 595.1875 C 807.1901 595.3675 805.435 595.53775 803.6875 595.71875 C 778.6153 596.84875 753.5284 596.57775 728.4375 596.84375 C 721.74576 597.02273 715.06048 597.27425 708.375 597.5625 C 708.72726 592.29087 709.06543 587.02244 709.40625 581.75 C 711.81965 540.875 713.64805 499.959 716.65625 459.125 C 717.67555 443.83551 659.56298 437.03729 636.65625 445 C 648.4904 431.38883 660.22955 417.67109 671.8125 403.84375 C 696.1827 374.05375 721.7879 344.04525 736.9375 308.28125 C 738.3022 302.10925 740.75395 296.065 741.03125 289.75 C 742.32245 260.346 724.39795 238.8 698.53125 228 C 675.72725 219.799 651.9125 215.607 627.6875 214.5 C 600.82469 212.9909 573.91626 213.06591 547.25 216.3125 C 540.40834 201.32048 497.24053 179.64335 476.96875 179.78125 z M 591.3125 301.90625 C 601.628 301.84433 611.96279 302.23925 622.28125 302.9375 C 627.30716 303.44842 632.42459 303.86337 637.53125 304.4375 C 626.98573 319.7012 615.29107 334.21254 603.6875 348.6875 C 591.68951 363.31175 579.48541 377.71556 567.125 392.03125 C 561.99469 388.52332 556.82009 385.08808 551.59375 381.71875 C 528.84179 367.07884 505.61596 353.13883 483.3125 337.8125 C 483.94583 336.74887 484.58633 335.68917 485.21875 334.625 C 488.56921 328.95074 491.89231 323.25107 495.21875 317.5625 C 509.89149 313.07928 524.9256 309.75253 540 306.8125 C 556.97569 303.39188 574.12 302.00944 591.3125 301.90625 z M 660.84375 309.125 C 662.82697 309.79471 664.76773 310.54151 666.6875 311.40625 C 666.9228 311.65825 667.74785 312.11625 667.40625 312.15625 C 664.94456 312.45615 662.76213 311.23749 660.84375 309.125 z M 166 374.3125 C 143.30054 374.73344 89.505806 408.69038 97.5 422.53125 C 109.6362 442.35425 119.3563 463.4835 128.1875 484.9375 C 135.3447 502.2435 216.9071 468.4935 209.75 451.1875 C 199.3598 426.1585 187.98705 401.596 174.84375 377.875 C 173.36334 375.31188 170.2036 374.23455 166 374.3125 z M 627.46875 455.5 C 626.05254 496.01173 624.40557 536.5133 622.375 577 C 621.83019 586.50856 621.28541 596.02622 620.6875 605.53125 C 612.05712 606.80197 603.43321 608.19143 594.84375 609.8125 C 552.69785 617.18681 510.62178 624.96198 468.8125 634.0625 C 471.32026 631.39645 473.74493 628.61156 476.0625 625.65625 C 503.8258 593.73825 531.8958 562.0955 560.375 530.8125 C 582.86927 505.82822 605.31594 480.79079 627.46875 455.5 z M 421.4375 754.25 C 402.5125 753.864 400.7 843.0515 419.625 843.4375 C 453.6759 842.6745 487.6617 844.2545 521.4375 848.5625 C 540.7957 852.1155 531.64775 850.02475 548.96875 854.59375 C 567.17045 859.09375 588.35795 773.28125 570.15625 768.78125 C 545.34185 762.92325 557.99 765.49625 532.1875 761.15625 C 495.3955 756.75625 458.4809 754.919 421.4375 754.25 z "
     id="path8885" />
</svg>
