<?xml version="1.0" encoding="UTF-8" standalone="no"?>
<svg
   xmlns:dc="http://purl.org/dc/elements/1.1/"
   xmlns:cc="http://creativecommons.org/ns#"
   xmlns:rdf="http://www.w3.org/1999/02/22-rdf-syntax-ns#"
   xmlns:svg="http://www.w3.org/2000/svg"
   xmlns="http://www.w3.org/2000/svg"
   xmlns:sodipodi="http://sodipodi.sourceforge.net/DTD/sodipodi-0.dtd"
   xmlns:inkscape="http://www.inkscape.org/namespaces/inkscape"
   width="1024"
   height="1024"
   id="U5C71"
   version="1.1"
   inkscape:version="0.48.0 r9654"
   sodipodi:docname="U+5C71.svg">
  <metadata
     id="metadata10">
    <rdf:RDF>
      <cc:Work
         rdf:about="">
        <dc:format>image/svg+xml</dc:format>
        <dc:type
           rdf:resource="http://purl.org/dc/dcmitype/StillImage" />
      </cc:Work>
    </rdf:RDF>
  </metadata>
  <defs
     id="defs8" />
  <sodipodi:namedview
     pagecolor="#ffffff"
     bordercolor="#666666"
     borderopacity="1"
     objecttolerance="10"
     gridtolerance="10"
     guidetolerance="10"
     inkscape:pageopacity="0"
     inkscape:pageshadow="2"
     inkscape:window-width="640"
     inkscape:window-height="480"
     id="namedview6"
     showgrid="false"
     inkscape:zoom="0.27441406"
     inkscape:cx="512"
     inkscape:cy="512"
     inkscape:window-x="0"
     inkscape:window-y="25"
     inkscape:window-maximized="0"
     inkscape:current-layer="U5C71" />
  <path
     style="fill:#a02c2c;fill-opacity:1;fill-rule:nonzero;stroke:#f9f9f9;stroke-width:0.1;stroke-miterlimit:4;stroke-dasharray:none"
     d="M 462 219.875 C 436.59511 220.03756 405.95176 227.28494 406.9375 238.375 C 413.1338 293.407 420.5379 348.31825 427.3125 403.28125 C 439.4023 503.92125 447.4617 604.966 456.875 705.875 C 458.99285 730.41648 461.43966 754.93203 464.1875 779.40625 C 426.26681 786.58413 387.93862 791.52681 349.21875 789.625 C 325.25895 787.514 297.705 786.476 280.625 767.25 C 260.9974 735.058 257.2626 696.37575 252.25 659.71875 C 248.3851 621.80275 246.771 583.80475 245.5625 545.71875 C 244.1127 527.01675 155.9253 533.82925 157.375 552.53125 C 160.1157 591.27025 162.0609 630.02025 166.125 668.65625 C 171.161 718.37025 180.8716 765.25975 204.3125 809.59375 C 237.7895 859.37175 284.92155 870.48525 341.21875 875.90625 C 404.36785 879.34325 466.63615 867.33575 527.96875 853.84375 C 586.08765 840.32675 643.36225 823.591 700.65625 807 C 711.67537 803.78188 722.7288 800.70198 733.8125 797.71875 C 734.23149 803.28809 734.66553 808.86949 735.09375 814.4375 C 736.85945 835.5075 738.4053 856.5835 739.6875 877.6875 C 741.0225 896.1525 828.0849 889.84 826.75 871.375 C 824.9751 850.055 823.02665 828.77475 821.09375 807.46875 C 815.99715 747.64275 811.51025 687.708 811.53125 627.625 C 812.08365 585.206 813.1781 542.65325 818.625 500.53125 C 821.4223 481.98025 733.95355 468.79275 731.15625 487.34375 C 726.86995 533.70075 725.87265 580.2855 725.59375 626.8125 C 725.73605 654.24576 726.63823 681.64491 728.03125 709.03125 C 710.74433 713.9311 693.49162 718.89895 676.28125 724.0625 C 633.56694 736.80774 590.81982 749.51715 547.65625 760.65625 C 545.033 739.71134 542.70673 718.73658 540.6875 697.71875 C 530.3944 596.38375 522.05415 494.8565 511.34375 393.5625 C 505.49235 339.2765 498.8689 285.0345 495 230.5625 C 494.32554 222.97456 479.38229 219.76377 462 219.875 z "
     id="path11737" />
</svg>
