<?xml version="1.0" encoding="UTF-8" standalone="no"?>
<svg
   xmlns:dc="http://purl.org/dc/elements/1.1/"
   xmlns:cc="http://creativecommons.org/ns#"
   xmlns:rdf="http://www.w3.org/1999/02/22-rdf-syntax-ns#"
   xmlns:svg="http://www.w3.org/2000/svg"
   xmlns="http://www.w3.org/2000/svg"
   xmlns:sodipodi="http://sodipodi.sourceforge.net/DTD/sodipodi-0.dtd"
   xmlns:inkscape="http://www.inkscape.org/namespaces/inkscape"
   width="1024"
   height="1024"
   id="U5C01"
   version="1.1"
   inkscape:version="0.48.0 r9654"
   sodipodi:docname="U+5C01.svg">
  <metadata
     id="metadata16">
    <rdf:RDF>
      <cc:Work
         rdf:about="">
        <dc:format>image/svg+xml</dc:format>
        <dc:type
           rdf:resource="http://purl.org/dc/dcmitype/StillImage" />
      </cc:Work>
    </rdf:RDF>
  </metadata>
  <defs
     id="defs14" />
  <sodipodi:namedview
     pagecolor="#ffffff"
     bordercolor="#666666"
     borderopacity="1"
     objecttolerance="10"
     gridtolerance="10"
     guidetolerance="10"
     inkscape:pageopacity="0"
     inkscape:pageshadow="2"
     inkscape:window-width="640"
     inkscape:window-height="480"
     id="namedview12"
     showgrid="false"
     inkscape:zoom="0.27441406"
     inkscape:cx="512"
     inkscape:cy="512"
     inkscape:window-x="0"
     inkscape:window-y="25"
     inkscape:window-maximized="0"
     inkscape:current-layer="U5C01" />
  <path
     style="fill:#550000;fill-opacity:1;fill-rule:nonzero;stroke:#f9f9f9;stroke-width:0.1;stroke-miterlimit:4;stroke-dasharray:none"
     d="M 301.03125 216.96875 C 297.50912 216.94783 294.84561 217.92197 293.4375 220.125 C 276.21781 251.494 265.56568 285.75028 256.09375 320.125 C 221.19447 325.92005 186.37955 332.26997 151.75 339.53125 C 133.6196 343.53025 152.4947 429 170.625 425 C 192.24225 419.49953 214.04874 414.93608 235.96875 410.84375 C 231.14391 437.334 226.88436 463.93285 222.375 490.46875 C 220.65091 500.72143 247.55504 509.77845 271.46875 512.28125 C 254.3449 514.57546 237.30133 517.57749 220.375 521.21875 C 180.2185 530.61575 140.1566 541.72425 103.875 561.90625 C 88.0252 571.57725 133.61895 646.296 149.46875 636.625 C 177.31905 620.321 208.7833 612.18225 239.9375 604.90625 C 241.24794 604.6327 242.56294 604.35981 243.875 604.09375 C 237.18162 626.53006 232.43413 649.57619 228 672.53125 C 225.78324 684.76811 224.01582 697.05637 222.59375 709.375 C 201.58519 713.84227 180.68335 718.84644 160.03125 724.8125 C 142.37465 730.5285 169.3434 813.74725 187 808.03125 C 196.93775 804.73395 206.9792 801.8341 217.09375 799.1875 C 216.87614 809.03945 216.73301 818.90269 216.625 828.75 C 216.5458 835.877 216.48525 842.998 216.40625 850.125 C 216.26015 868.379 302.2914 869.0675 302.4375 850.8125 C 302.4722 843.6915 302.5275 836.5585 302.5625 829.4375 C 302.64843 813.36213 302.80658 797.26654 303.3125 781.1875 C 337.13225 775.11042 371.12914 770.04975 405 764.28125 C 423.1601 760.96525 407.50375 675.3715 389.34375 678.6875 C 363.47616 683.76576 337.47572 688.09384 311.5 692.59375 C 311.71173 691.37769 311.90291 690.15249 312.125 688.9375 C 318.2952 657.6355 324.72055 625.66825 339.65625 597.15625 C 340.2789 596.08078 340.53033 594.89155 340.4375 593.59375 C 342.65741 593.6043 344.87227 593.63548 347.09375 593.6875 C 353.37425 594.4915 360.1939 594.2855 365.9375 597.3125 C 383.6946 602.6575 408.8822 518.93875 391.125 513.59375 C 376.9206 509.86275 362.7504 506.92225 347.9375 507.03125 C 333.29768 507.03534 318.68786 507.6651 304.125 508.8125 C 305.62712 507.69074 306.60013 506.32224 306.875 504.6875 C 312.87758 468.6096 318.45815 432.41499 325.875 396.59375 C 347.18563 393.99577 368.55931 391.86772 389.90625 389.59375 C 408.24635 387.38475 397.8401 300.916 379.5 303.125 C 369.67008 304.45374 359.81273 305.71027 349.96875 306.9375 C 354.74834 293.31629 360.29648 279.98249 367.28125 267.3125 C 375.88634 253.84953 322.55538 217.09658 301.03125 216.96875 z M 708.96875 236.40625 C 695.24629 236.25919 684.37064 238.788 683.375 245.09375 C 677.4425 296.40675 674.44625 347.99425 671.21875 399.53125 C 670.36622 412.78764 669.58271 426.05079 668.84375 439.3125 C 647.03185 439.48446 625.21337 439.81749 603.40625 440.375 C 558.66625 441.423 513.92355 442.393 469.21875 444.5 C 450.72135 446.132 458.40895 533.3195 476.90625 531.6875 C 519.71085 527.9235 562.71855 526.889 605.65625 525.625 C 625.37217 525.0311 645.09093 524.68007 664.8125 524.53125 C 662.97368 571.74547 661.75205 619.00158 661 666.25 C 660.80171 677.59759 660.7372 688.93758 660.75 700.28125 C 646.35665 694.12067 631.78399 688.36108 617 683.09375 C 580.5445 669.34675 544.14845 655.45825 507.90625 641.15625 C 490.40355 634.97825 461.27855 717.47925 478.78125 723.65625 C 515.02085 736.28725 550.8647 750.03075 586.8125 763.46875 C 612.7936 772.73975 638.13385 783.4595 662.65625 796.0625 C 662.83935 796.15469 663.03012 796.21026 663.21875 796.28125 C 664.76897 827.62659 667.00149 858.95028 669.84375 890.21875 C 671.73325 918.57175 677.84165 946.7105 677.65625 975.1875 C 678.13475 993.6615 765.2285 991.4115 764.75 972.9375 C 763.3766 942.4075 758.1425 912.26025 754.8125 881.90625 C 747.3627 810.68025 743.4652 739.146 744.5625 667.5 C 745.24931 619.98964 746.53801 572.49625 748.59375 525.03125 C 755.7082 525.15677 762.8239 525.27534 769.9375 525.4375 C 801.6894 526.0675 833.39885 528.64175 865.15625 527.21875 C 883.64575 526.09375 878.33325 438.9375 859.84375 440.0625 C 830.46105 442.5985 800.89505 439.37725 771.46875 439.65625 C 765.37254 439.5729 759.28398 439.5008 753.1875 439.4375 C 753.92561 428.04235 754.71714 416.63946 755.5625 405.25 C 759.1505 356.326 762.26035 307.253 769.84375 258.75 C 771.74451 246.71175 735.16618 236.68699 708.96875 236.40625 z M 432.625 798.375 C 431.77477 798.41529 430.97327 798.63609 430.21875 799.03125 C 372.69595 829.72225 314.9274 859.96375 258.1875 892.09375 C 213.7732 917.79975 168.4673 943.257 129.625 977.125 C 116.6465 990.449 179.459 1051.6063 192.4375 1038.2812 C 224.9934 1009.1322 263.4646 987.37625 300.9375 965.28125 C 356.3293 933.40825 413.14165 904.11025 469.96875 874.90625 C 485.31063 866.87141 449.91294 797.5558 432.625 798.375 z "
     id="path23053" />
</svg>
