<?xml version="1.0" encoding="UTF-8" standalone="no"?>
<svg
   xmlns:dc="http://purl.org/dc/elements/1.1/"
   xmlns:cc="http://creativecommons.org/ns#"
   xmlns:rdf="http://www.w3.org/1999/02/22-rdf-syntax-ns#"
   xmlns:svg="http://www.w3.org/2000/svg"
   xmlns="http://www.w3.org/2000/svg"
   xmlns:sodipodi="http://sodipodi.sourceforge.net/DTD/sodipodi-0.dtd"
   xmlns:inkscape="http://www.inkscape.org/namespaces/inkscape"
   width="1024"
   height="1024"
   id="U5C31"
   version="1.1"
   inkscape:version="0.48.0 r9654"
   sodipodi:docname="U+5C31.svg">
  <metadata
     id="metadata19">
    <rdf:RDF>
      <cc:Work
         rdf:about="">
        <dc:format>image/svg+xml</dc:format>
        <dc:type
           rdf:resource="http://purl.org/dc/dcmitype/StillImage" />
      </cc:Work>
    </rdf:RDF>
  </metadata>
  <defs
     id="defs17" />
  <sodipodi:namedview
     pagecolor="#ffffff"
     bordercolor="#666666"
     borderopacity="1"
     objecttolerance="10"
     gridtolerance="10"
     guidetolerance="10"
     inkscape:pageopacity="0"
     inkscape:pageshadow="2"
     inkscape:window-width="640"
     inkscape:window-height="480"
     id="namedview15"
     showgrid="false"
     inkscape:zoom="0.27441406"
     inkscape:cx="512"
     inkscape:cy="512"
     inkscape:window-x="0"
     inkscape:window-y="25"
     inkscape:window-maximized="0"
     inkscape:current-layer="U5C31" />
  <path
     style="fill:#2b0000;fill-opacity:1;fill-rule:nonzero;stroke:#f9f9f9;stroke-width:0.1;stroke-miterlimit:4;stroke-dasharray:none"
     d="M 259.65625 132.09375 C 240.05717 132.06654 189.62804 185.39206 201.84375 197.46875 C 222.18645 216.95175 242.1268 236.83525 262.625 256.15625 C 278.64206 272.01615 296.71308 285.58455 313.53125 300.53125 C 276.01304 305.0564 238.62111 310.5066 201.375 316.96875 C 158.3774 324.51375 115.5063 332.90425 72.375 339.65625 C 53.7332 343.10225 69.9831 430.97825 88.625 427.53125 C 131.2594 418.90525 173.93015 410.42375 216.71875 402.59375 C 274.10785 392.29375 331.9638 384.96875 390.0625 380.21875 C 423.4958 377.64975 457.0413 377.43725 490.375 381.15625 C 497.602 382.09225 504.78105 383.40675 511.96875 384.59375 C 530.72155 387.38875 543.90905 299.01275 525.15625 296.21875 C 516.45775 295.07575 507.7959 293.6855 499.0625 292.8125 C 460.2994 289.4245 421.36385 289.89325 382.59375 293.28125 C 368.1605 294.57614 353.74766 295.99348 339.34375 297.5625 C 360.63304 281.3617 386.46428 246.02343 376.53125 237.28125 C 358.79905 222.07525 340.0811 208.03725 323.25 191.78125 C 303.2544 172.97725 283.73235 153.64425 264.65625 133.90625 C 263.39256 132.65694 261.68374 132.09657 259.65625 132.09375 z M 837.78125 205.15625 C 813.67758 205.41559 761.08333 232.14344 767.375 246.1875 C 776.6691 265.1315 787.14885 283.4545 797.53125 301.8125 C 806.72265 318.1295 883.66015 274.78575 874.46875 258.46875 C 865.48475 242.45375 856.25155 226.5175 848.84375 209.6875 C 847.39183 206.44656 843.34363 205.0964 837.78125 205.15625 z M 678.90625 205.625 C 659.66046 205.97868 642.41856 210.03325 642.125 218.3125 C 641.5774 260.5545 635.8891 302.49375 629.75 344.21875 C 626.05408 368.2824 621.52897 392.18802 616.4375 415.96875 C 587.5479 420.55509 558.62464 425.06033 529.5 427.71875 C 510.645 429.42075 518.67625 518.29575 537.53125 516.59375 C 556.41547 514.16651 575.23606 511.3087 594.03125 508.28125 C 591.53298 517.65404 588.98987 526.99617 586.40625 536.34375 C 571.42505 590.10075 553.2345 642.8895 533.5 695.0625 C 523.3582 720.9435 513.19225 746.79675 503.15625 772.71875 C 496.52965 790.34075 579.59215 821.59075 586.21875 803.96875 C 595.77945 777.75975 605.7298 751.67875 615.625 725.59375 C 634.39742 674.31886 651.8931 622.56939 666.8125 570.03125 C 667.13397 588.62534 668.06204 607.21821 669.125 625.78125 C 671.6162 665.70025 676.53285 705.392 684.90625 744.5 C 692.81895 782.127 711.40445 812.70275 740.59375 837.21875 C 770.91605 858.46775 806.0515 861.18125 841.8125 859.03125 C 864.0768 856.91925 885.99565 852.34425 908.21875 849.90625 C 914.94125 849.30525 921.6686 848.85775 928.375 848.09375 C 947.2316 845.65575 935.7317 756.78075 916.875 759.21875 C 910.4605 760.36875 903.8693 760.27875 897.4375 761.34375 C 876.8497 764.03575 856.497 768.17175 835.875 770.59375 C 822.4203 771.66475 808.2797 772.62725 795.5 767.40625 C 780.6565 758.67525 775.5152 741.25775 771.125 725.59375 C 763.3463 691.20175 759.24525 656.14475 757.03125 620.96875 C 755.55215 592.60975 754.09965 564.108 756.40625 535.75 C 757.70883 521.29155 705.89263 513.22083 680.71875 518.6875 C 682.90485 510.31346 685.05492 501.9266 687.15625 493.53125 C 726.0683 488.23288 765.19489 484.81246 804.4375 483.15625 C 823.6236 482.68125 842.8353 482.627 862 483.75 C 880.9415 484.36 883.8165 395.07875 864.875 394.46875 C 843.3023 394.24475 821.7442 394.40075 800.1875 395.34375 C 769.22917 397.03136 738.32731 399.57602 707.53125 403.0625 C 710.5219 387.83918 713.28683 372.58028 715.75 357.25 C 722.7444 312.221 728.8988 267.01375 731.3125 221.46875 C 731.68999 210.82456 703.65084 205.17027 678.90625 205.625 z M 423.21875 401.84375 C 392.95365 403.11475 362.71 405.08475 332.4375 406.21875 C 301.1367 407.76375 269.8549 409.53225 238.6875 412.90625 C 219.9067 415.44025 231.8442 503.9715 250.625 501.4375 C 279.192 497.2685 308.0707 495.80975 336.875 494.34375 C 360.35215 493.45206 383.8045 492.13462 407.28125 491.21875 C 401.64311 506.10967 395.75405 520.88735 389.375 535.46875 C 358.16891 540.87896 327.05968 546.85886 296.0625 553.375 C 283.64785 555.91287 271.24388 558.52594 258.8125 561.03125 C 253.63305 548.72662 250.01725 535.83788 245.5 523.28125 C 236.0355 496.05325 225.79955 469.13375 214.84375 442.46875 C 207.31915 425.06775 125.2879 460.5365 132.8125 477.9375 C 143.9247 502.0975 153.23895 527.01225 161.84375 552.15625 C 166.61475 566.66425 171.1415 581.22 176.5625 595.5 C 177.5006 597.85277 179.8036 599.30268 183.0625 600 C 182.68251 626.61012 191.29906 662.79925 203.40625 661.375 C 221.47413 658.18926 239.45727 654.65525 257.4375 651 C 260.77071 674.59529 260.15383 698.6557 259.46875 722.4375 C 258.05575 753.8375 255.60665 785.172 253.09375 816.5 C 251.72255 824.51 252.63295 833.0045 250.78125 840.9375 C 248.26055 859.7645 337.0418 871.6405 339.5625 852.8125 C 340.6693 842.8335 341.0977 832.80425 341.6875 822.78125 C 342.85025 803.91385 344.07286 785.05808 345.1875 766.1875 C 359.87612 782.13655 376.18166 796.46864 393.0625 810.0625 C 403.6113 818.1325 414.478 825.80425 425.1875 833.65625 C 440.5169 844.74225 492.7669 772.46 477.4375 761.375 C 467.7946 754.491 458.0755 747.72025 448.5625 740.65625 C 433.8622 729.01225 419.5024 716.7175 407.6875 702.0625 C 399.52285 691.97672 364.45636 715.11893 346.90625 735.46875 C 347.07847 731.96199 347.21953 728.44515 347.375 724.9375 C 348.23147 694.32226 348.51778 663.50825 344.375 633.15625 C 364.00225 629.36306 383.68194 625.87649 403.4375 622.8125 C 419.4226 631.98181 435.22796 636.99391 439.65625 630.34375 C 446.81395 619.27775 453.7328 608.10125 459.125 596.03125 C 471.5906 569.55725 482.6739 542.46225 493.1875 515.15625 C 504.3145 485.75625 514.93505 458.45925 499.03125 428.15625 C 493.40845 422.73325 488.49695 416.46925 482.15625 411.90625 C 465.55875 399.96325 442.33435 402.09875 423.21875 401.84375 z M 440.09375 490.71875 C 441.95403 490.84371 443.79725 491.12233 445.5625 491.6875 C 447.45354 492.29211 442.99976 491.66069 440.09375 490.71875 z M 184.46875 716.3125 C 181.44815 716.3876 179.12704 717.2995 177.78125 719.25 C 162.87205 742.31 149.19415 766.119 135.65625 790 C 127.53165 804.634 131.40835 797.4295 123.96875 811.6875 C 115.40465 828.4975 194.65465 868.8725 203.21875 852.0625 C 208.98675 840.3785 205.8068 846.547 212.875 833.5 C 224.9593 811.905 237.14185 790.294 251.34375 770 C 260.76426 756.34738 205.61296 715.7868 184.46875 716.3125 z "
     id="path9619" />
</svg>
