<?xml version="1.0" encoding="UTF-8" standalone="no"?>
<svg
   xmlns:dc="http://purl.org/dc/elements/1.1/"
   xmlns:cc="http://creativecommons.org/ns#"
   xmlns:rdf="http://www.w3.org/1999/02/22-rdf-syntax-ns#"
   xmlns:svg="http://www.w3.org/2000/svg"
   xmlns="http://www.w3.org/2000/svg"
   xmlns:sodipodi="http://sodipodi.sourceforge.net/DTD/sodipodi-0.dtd"
   xmlns:inkscape="http://www.inkscape.org/namespaces/inkscape"
   width="1024"
   height="1024"
   id="U5C4B"
   version="1.1"
   inkscape:version="0.48.0 r9654"
   sodipodi:docname="U+5C4B.svg">
  <metadata
     id="metadata16">
    <rdf:RDF>
      <cc:Work
         rdf:about="">
        <dc:format>image/svg+xml</dc:format>
        <dc:type
           rdf:resource="http://purl.org/dc/dcmitype/StillImage" />
      </cc:Work>
    </rdf:RDF>
  </metadata>
  <defs
     id="defs14" />
  <sodipodi:namedview
     pagecolor="#ffffff"
     bordercolor="#666666"
     borderopacity="1"
     objecttolerance="10"
     gridtolerance="10"
     guidetolerance="10"
     inkscape:pageopacity="0"
     inkscape:pageshadow="2"
     inkscape:window-width="640"
     inkscape:window-height="480"
     id="namedview12"
     showgrid="false"
     inkscape:zoom="0.27441406"
     inkscape:cx="512"
     inkscape:cy="512"
     inkscape:window-x="0"
     inkscape:window-y="25"
     inkscape:window-maximized="0"
     inkscape:current-layer="U5C4B" />
  <path
     style="fill:#501616;fill-opacity:1;fill-rule:nonzero;stroke:#f9f9f9;stroke-width:0.1;stroke-miterlimit:4;stroke-dasharray:none"
     d="M 505.96875 163.5 C 465.79057 163.50497 425.63525 164.98975 385.625 169 C 342.9308 173.707 299.8697 179.054 259.25 193.75 C 248.48021 198.25846 257.65103 231.59756 270.28125 254.34375 C 261.28102 283.47463 253.88896 313.14237 246.375 342.65625 C 224.8212 428.54625 205.068 514.846 188.0625 601.75 C 175.4958 665.537 168.03695 730.11925 163.28125 794.90625 C 160.58765 824.38425 162.22255 854.2275 157.96875 883.5625 C 155.71175 902.1125 243.1804 912.76875 245.4375 894.21875 C 248.7604 863.14275 248.1035 831.8715 249.75 800.6875 C 253.4191 739.3645 259.6567 678.18325 271.1875 617.78125 C 280.05965 571.10997 289.91196 524.64396 300.625 478.375 C 331.1688 475.25061 361.68226 471.92717 392.1875 468.4375 C 452.1236 460.5735 512.2813 455.2255 572.75 456.1875 C 595.4173 459.3805 633.49545 456.64875 652.09375 473.34375 C 667.53797 482.75331 710.98472 412.57222 699.28125 399.25 C 703.88259 388.24751 708.18824 377.13285 711.71875 365.71875 C 722.11135 332.47675 731.4332 298.325 728.25 263.125 C 721.0337 223.562 704.36035 198.74275 666.71875 182.34375 C 627.93675 168.29575 587.28735 164.2905 546.15625 163.9375 C 532.76695 163.65125 519.36148 163.49834 505.96875 163.5 z M 497.53125 249.90625 C 513.04848 249.85437 528.55047 250.08375 544.0625 250.5 C 574.6368 252.195 606.64575 251.852 635.21875 264.25 C 644.30405 268.56 641.46225 269.37375 641.21875 276.09375 C 641.23495 297.89775 634.7436 318.94525 628.25 339.53125 C 624.71749 350.90751 620.12603 361.86233 615.28125 372.71875 C 601.54336 371.03049 587.61903 370.22366 573.625 370 C 509.7113 369.669 446.12175 374.9665 382.71875 382.9375 C 362.64088 385.0928 342.54456 387.21098 322.4375 389.125 C 324.57627 380.82481 326.74232 372.53655 328.9375 364.25 C 338.40266 329.02702 347.42694 293.37989 360.53125 259.28125 C 372.10588 257.63436 383.72995 256.32432 395.28125 255 C 429.26864 251.46212 463.39334 250.02038 497.53125 249.90625 z M 595.875 464.09375 C 584.11903 464.04398 572.31592 464.81069 560.53125 466.1875 C 511.38035 472.6315 463.0042 483.29275 414.9375 495.34375 C 377.6727 504.80075 340.0455 514.089 304.75 529.625 C 288.0909 538.288 328.93465 616.81825 345.59375 608.15625 C 351.80338 605.34383 358.11851 602.80944 364.5 600.4375 C 347.09462 622.85094 330.4291 645.82349 315.25 669.8125 C 297.2164 699.1055 292.7223 734.48025 323.6875 758.40625 C 330.077 763.34325 338.6916 764.4355 346.1875 767.4375 C 380.6541 771.1575 415.3195 764.77425 449.4375 760.15625 C 464.35429 758.03108 479.26745 755.91481 494.1875 753.8125 C 491.97661 765.70439 490.21979 777.6747 488.6875 789.6875 C 486.28354 790.04132 483.87257 790.39481 481.46875 790.75 C 440.61995 796.537 399.6849 801.98925 359.25 810.28125 C 341.0204 814.66725 361.7078 900.60475 379.9375 896.21875 C 413.03914 888.12077 446.7924 883.19424 480.5 878.25 C 479.47701 890.88712 478.42435 903.52633 477.3125 916.15625 C 451.76516 917.43924 426.22887 919.71074 400.78125 923.1875 C 355.61505 928.8275 310.59775 935.31125 265.65625 942.53125 C 247.22415 946.01425 263.6304 1032.8902 282.0625 1029.4062 C 325.0167 1020.6263 368.40865 1014.1615 411.84375 1008.3125 C 481.16565 998.1415 551.0569 998.4245 620.75 1003.3125 C 682.0625 1008.7755 742.56425 1020.55 802.46875 1034.375 C 822.94915 1039.047 843.03085 1045.135 863.03125 1051.5 C 880.68955 1056.94 906.3458 973.69 888.6875 968.25 C 866.4579 961.599 844.14605 955.20575 821.46875 950.21875 C 757.16115 936.00175 692.30035 923.77575 626.59375 918.21875 C 605.97946 916.83722 585.35031 915.82601 564.71875 915.28125 C 566.01036 898.79951 567.25161 882.32365 568.5625 865.84375 C 592.20151 863.0496 615.91309 860.98741 639.75 860.34375 C 659.4435 861.14175 650.24605 860.31075 667.40625 862.46875 C 685.87435 864.35475 694.74925 777.29225 676.28125 775.40625 C 650.69345 773.18125 663.8991 773.88375 636.625 773.46875 C 617.14901 774.30909 597.76134 775.88 578.40625 777.90625 C 580.63269 765.53307 583.48511 753.28985 587.4375 741.34375 C 597.27138 740.17668 607.11657 739.09256 616.96875 738.09375 C 618.92091 743.56109 620.90839 749.01821 622.90625 754.46875 C 629.38245 771.93875 711.7262 741.4075 705.25 723.9375 C 699.1864 707.7795 693.2706 691.57375 688.125 675.09375 C 680.8934 652.06975 673.6455 628.88425 669.6875 605.03125 C 666.7132 586.48525 579.2757 600.5165 582.25 619.0625 C 584.54194 630.56883 587.33407 641.95868 590.375 653.28125 C 583.71719 654.09646 577.05688 654.93942 570.40625 655.8125 C 526.31295 661.6665 482.2793 668.011 438.1875 673.875 C 430.96561 674.77908 423.64065 675.66045 416.28125 676.5 C 425.35482 663.99257 434.84026 651.77094 444.46875 639.6875 C 463.48025 616.2345 482.78475 592.89925 504.28125 571.65625 C 506.20083 569.73662 506.53208 566.79146 505.65625 563.1875 C 527.38706 558.77869 549.25426 555.06309 571.3125 552.46875 C 586.9491 552.61975 604.9615 548.461 620.0625 554.5 C 638.2608 558.936 659.16705 473.15575 640.96875 468.71875 C 626.04135 465.58112 610.98982 464.15775 595.875 464.09375 z M 389.34375 714.6875 C 389.26769 718.14099 388.39713 721.56065 386.40625 724.84375 C 385.5052 726.32969 387.73105 719.12423 389.34375 714.6875 z "
     id="path13040" />
</svg>
