<?xml version="1.0" encoding="UTF-8" standalone="no"?>
<svg
   xmlns:dc="http://purl.org/dc/elements/1.1/"
   xmlns:cc="http://creativecommons.org/ns#"
   xmlns:rdf="http://www.w3.org/1999/02/22-rdf-syntax-ns#"
   xmlns:svg="http://www.w3.org/2000/svg"
   xmlns="http://www.w3.org/2000/svg"
   xmlns:sodipodi="http://sodipodi.sourceforge.net/DTD/sodipodi-0.dtd"
   xmlns:inkscape="http://www.inkscape.org/namespaces/inkscape"
   width="1024"
   height="1024"
   id="U5C81"
   version="1.1"
   inkscape:version="0.48.0 r9654"
   sodipodi:docname="U+5C81.svg">
  <metadata
     id="metadata13">
    <rdf:RDF>
      <cc:Work
         rdf:about="">
        <dc:format>image/svg+xml</dc:format>
        <dc:type
           rdf:resource="http://purl.org/dc/dcmitype/StillImage" />
      </cc:Work>
    </rdf:RDF>
  </metadata>
  <defs
     id="defs11" />
  <sodipodi:namedview
     pagecolor="#ffffff"
     bordercolor="#666666"
     borderopacity="1"
     objecttolerance="10"
     gridtolerance="10"
     guidetolerance="10"
     inkscape:pageopacity="0"
     inkscape:pageshadow="2"
     inkscape:window-width="640"
     inkscape:window-height="480"
     id="namedview9"
     showgrid="false"
     inkscape:zoom="0.27441406"
     inkscape:cx="512"
     inkscape:cy="512"
     inkscape:window-x="0"
     inkscape:window-y="25"
     inkscape:window-maximized="0"
     inkscape:current-layer="U5C81" />
  <path
     style="fill:#782121;fill-opacity:1;fill-rule:nonzero;stroke:#f9f9f9;stroke-width:0.1;stroke-miterlimit:4;stroke-dasharray:none"
     d="M 481.59375 70.0625 C 464.18919 70.264171 449.28869 73.765937 448.75 81.375 C 447.0061 118.451 443.75345 155.42425 440.65625 192.40625 C 437.59755 227.38625 439.16005 209.8325 435.96875 245.0625 C 434.30345 263.3005 520.30345 271.1755 521.96875 252.9375 C 525.22875 217.5115 523.60955 235.16575 526.84375 199.96875 C 530.26175 162.52375 533.64415 125.073 537.03125 87.625 C 537.81856 76.504656 507.03118 69.76775 481.59375 70.0625 z M 334.53125 190.03125 C 307.94617 190.18972 267.63755 202.01206 270.0625 214.6875 C 274.045 237.2425 270.5526 260.166 267.625 282.625 C 264.5275 308.501 258.1219 337.15725 269.375 362.15625 C 272.4243 368.93025 277.1603 374.804 281.0625 381.125 C 287.6902 386.214 293.5437 392.51325 300.9375 396.40625 C 330.4936 411.96525 368.3951 402.41875 399.5625 398.59375 C 441.1932 393.21475 483.18695 392.626 525.09375 393.125 C 553.44716 393.71227 581.76872 394.99848 610.09375 396.375 C 609.82846 399.88877 609.56697 403.39396 609.28125 406.90625 C 608.04105 425.51825 695.79105 431.363 697.03125 412.75 C 698.13445 391.82 699.19355 370.91075 700.03125 349.96875 C 701.40055 312.06175 702.5981 274.1135 701.1875 236.1875 C 700.0266 217.4825 611.839 222.95225 613 241.65625 C 614.75964 263.89433 614.87698 286.17703 614.375 308.46875 C 584.87877 307.68451 555.3787 306.66655 525.875 306.21875 C 480.3319 305.90775 434.7232 306.7115 389.4375 312.0625 C 376.66743 313.4763 363.89981 314.75723 351.125 316.09375 C 352.52408 307.65265 354.80471 298.87351 354.375 293.875 C 358.4726 262.111 362.21995 229.9575 356.96875 198.0625 C 355.8665 192.30062 346.61538 189.95922 334.53125 190.03125 z M 350.34375 321.84375 C 352.13489 322.80713 352.93063 324.26977 350.8125 327.03125 C 351.4411 329.13325 352.40955 331.17175 352.71875 333.34375 C 352.79585 333.88475 352.2296 335.24325 351.9375 334.78125 C 350.02782 331.7592 349.83022 327.06319 350.34375 321.84375 z M 380.96875 448.65625 C 377.41586 448.6484 374.72457 449.61625 373.3125 451.84375 C 352.4198 487.98675 331.4127 524.05075 310.5625 560.21875 C 284.2921 605.80375 258.78085 651.823 234.03125 698.25 C 231.48285 703.093 228.95465 707.93825 226.40625 712.78125 C 218.00555 729.32125 295.9743 768.916 304.375 752.375 C 306.6374 747.746 308.89395 743.129 311.15625 738.5 C 334.47525 692.801 359.27715 647.8625 385.15625 603.5625 C 385.66893 602.68787 386.17479 601.81215 386.6875 600.9375 C 393.05661 613.12983 400.44042 621.50564 406.5 619.40625 C 437.9751 608.17425 471.0135 602.4775 503.9375 597.4375 C 545.6024 591.2375 587.7179 591.56575 629.625 594.34375 C 646.20395 596.65999 664.0094 597.40898 680.5 601.9375 C 663.86234 641.72258 638.83857 677.26991 614.46875 712.59375 C 609.32574 720.10242 604.07139 727.53285 598.71875 734.875 C 557.04722 719.33846 514.73039 705.58795 473.28125 689.4375 C 441.83505 676.7335 410.79585 663.1555 380.59375 647.6875 C 363.45885 639.9945 327.1776 720.77575 344.3125 728.46875 C 376.2237 743.17475 408.47385 757.0345 441.15625 769.9375 C 474.27993 782.66087 507.91419 793.94092 541.25 806.0625 C 526.15049 823.00271 510.44081 839.43011 494.125 855.28125 C 466.1954 879.44525 437.49795 906.47675 401.46875 917.71875 C 400.00015 917.67675 398.5311 917.63375 397.0625 917.59375 C 378.6931 920.71075 393.3807 1007.3045 411.75 1004.1875 L 431.59375 999.9375 C 478.32965 981.5845 518.0941 951.192 554.25 916.625 C 602.4927 869.008 646.39385 817.43225 685.03125 761.65625 C 714.57285 719.46925 744.80545 676.89025 764.03125 628.78125 C 777.52155 585.27325 777.17645 551.62175 732.59375 527.59375 C 701.47175 515.03975 668.38265 509.72225 634.96875 507.53125 C 586.92935 504.75125 538.70875 504.631 490.96875 511.625 C 471.94164 514.47074 452.94103 517.58022 434.09375 521.4375 C 438.68027 513.98858 443.31253 506.57347 448 499.1875 C 456.62924 485.575 402.68083 448.70423 380.96875 448.65625 z M 693 606.3125 C 694.55695 606.99491 696.11038 607.70959 697.625 608.5 C 695.8136 608.00725 694.28083 607.24953 693 606.3125 z "
     id="path11528" />
</svg>
