<?xml version="1.0" encoding="utf-8" ?>

<!DOCTYPE svg PUBLIC "-//W3C//DTD SVG 1.1//EN" 
  "http://www.w3.org/Graphics/SVG/1.1/DTD/svg11.dtd">
<svg 
    xmlns="http://www.w3.org/2000/svg"
    xmlns:xlink="http://www.w3.org/1999/xlink"
    xmlns:sodipodi="http://sodipodi.sourceforge.net/DTD/sodipodi-0.dtd"
    xmlns:inkscape="http://www.inkscape.org/namespaces/inkscape"
    width="1024" height="1024" id="U5DF1">
<path d="m 9455.3758,20707.93 c 36.3387,-6.769 72.9858,-11.583 109.6847,-15.886 48.3583,-5.869 97.0418,-7.361 145.571,-3.303 35.4143,3.014 66.1767,15.287 92.2894,39.171 23.9851,26.137 29.7692,59.682 32.7955,93.718 2.0212,38.756 -1.2819,77.508 -3.9635,116.147 -2.114,23.955 -2.0438,48.16 -7.4288,71.666 -5.001,18.303 -91.2805,-5.272 -86.2795,-23.575 l 0,0 c 4.1201,-15.555 3.3002,-37.113 5.7367,-54.485 2.579,-33.919 5.5411,-67.963 3.8163,-102.003 -1.1064,-12.794 -2.0713,-25.891 -7.0538,-37.886 -7.3875,-12.088 -26.0229,-12.203 -38.0063,-15.034 -42.2873,-4.378 -84.8265,-2.662 -126.997,2.503 -34.2337,4.248 -68.4996,8.838 -102.1541,16.564 -18.5821,3.821 -36.5927,-83.776 -18.0106,-87.597 z" id="path8457" inkscape:connector-curvature="0" style="fill:#550000;fill-opacity:1;fill-rule:nonzero;stroke:#f9f9f9;stroke-width:0.1;stroke-miterlimit:4;stroke-dasharray:none" transform="translate(-9216, -20480)"/><path d="m 9435.6314,20960.899 c 39.8827,-2.74 79.7293,-6.001 119.6012,-8.912 56.4752,-4.239 113.02,-7.466 169.6406,-8.772 15.1664,0.952 58.2578,-2.107 69.4439,11.038 10.0769,11.842 15.4031,27.015 23.1047,40.523 0.7277,19.008 -88.8798,22.439 -89.6075,3.43 l 0,0 c 14.8385,22.146 11.4186,33.825 30.7884,35.967 1.4365,0.159 -2.6705,-1.179 -4.0944,-1.427 -9.2805,-1.613 -18.9562,-1.522 -28.2926,-1.847 -54.8388,0.387 -109.6002,3.436 -164.2476,7.996 -39.7656,3.263 -79.5201,6.689 -119.1748,11.13 -18.9064,1.519 -26.0683,-87.607 -7.1619,-89.126 z" id="path8459" inkscape:connector-curvature="0" style="fill:#550000;fill-opacity:1;fill-rule:nonzero;stroke:#f9f9f9;stroke-width:0.1;stroke-miterlimit:4;stroke-dasharray:none" transform="translate(-9216, -20480)"/><path d="m 9551.8583,21000.17 c -10.0404,32.088 -16.0467,65.222 -20.9951,98.417 -5.5562,38.026 -5.988,76.208 3.6082,113.506 8.4548,28.073 27.6415,45.478 52.409,59.332 40.6185,19.152 85.8233,22.718 129.9856,25.744 49.8946,3.051 99.878,1.896 149.4157,-4.711 34.8946,-5.182 68.1887,-16.727 99.8473,-31.992 4.3861,-3.595 32.333,-14.399 27.2965,-23.942 -1.4421,-5.971 -2.7654,-11.96 -4.419,-17.896 -4.6132,-18.28 81.5565,-40.027 86.1705,-21.747 l 0,0 c 5.428,22.608 8.959,45.003 2.554,67.977 -2.427,6.159 -4.23,12.602 -7.281,18.476 -14.046,27.039 -40.491,43.494 -66.664,56.999 -40.2139,18.637 -82.2718,32.93 -126.3693,38.966 -55.2678,6.849 -110.9407,8.338 -166.5527,4.795 -57.7643,-4.014 -116.3473,-9.977 -168.6379,-36.97 -47.8836,-29.078 -76.9958,-59.725 -93.272,-114.555 -11.0525,-48.465 -12.4985,-97.53 -4.8901,-146.784 5.457,-37.352 12.2573,-74.502 22.1486,-110.966 5.3778,-18.169 91.0235,7.182 85.6457,25.351 z" id="path8461" inkscape:connector-curvature="0" style="fill:#550000;fill-opacity:1;fill-rule:nonzero;stroke:#f9f9f9;stroke-width:0.1;stroke-miterlimit:4;stroke-dasharray:none" transform="translate(-9216, -20480)"/></svg>