<?xml version="1.0" encoding="utf-8" ?>

<!DOCTYPE svg PUBLIC "-//W3C//DTD SVG 1.1//EN" 
  "http://www.w3.org/Graphics/SVG/1.1/DTD/svg11.dtd">
<svg 
    xmlns="http://www.w3.org/2000/svg"
    xmlns:xlink="http://www.w3.org/1999/xlink"
    xmlns:sodipodi="http://sodipodi.sourceforge.net/DTD/sodipodi-0.dtd"
    xmlns:inkscape="http://www.inkscape.org/namespaces/inkscape"
    width="1024" height="1024" id="U5E73">
<path d="m 10477.77,37119.537 c 35.49,-0.255 70.881,-3.614 106.192,-6.891 61.153,-6.439 122.409,-11.735 183.772,-15.68 51.064,-3.396 102.247,-3.617 153.398,-3.876 11.981,-0.23 23.962,-0.339 35.945,-0.297 18.714,0.449 16.599,88.671 -2.116,88.222 l 0,0 c -11.392,-0.56 -22.792,-0.732 -34.199,-0.718 -49.201,-0.676 -98.444,-0.81 -147.575,2.351 -60.391,3.802 -120.665,9.114 -180.786,15.997 -37.861,3.909 -75.763,7.662 -113.795,9.438 -18.784,0.177 -19.619,-88.369 -0.836,-88.546 z" id="path10502" inkscape:connector-curvature="0" style="fill:#c83737;fill-opacity:1;fill-rule:nonzero;stroke:#f9f9f9;stroke-width:0.1;stroke-miterlimit:4;stroke-dasharray:none" transform="translate(-10240, -36864)"/><path d="m 10592.675,37260.733 c 19.355,22.349 42.394,41.024 66.019,58.624 17.68,11.854 8.801,6.285 26.607,16.752 15.898,9.483 -28.805,84.429 -44.703,74.946 l 0,0 c -23.11,-13.936 -11.744,-6.646 -34.096,-21.875 -28.687,-21.503 -56.399,-44.386 -80.81,-70.75 -12.239,-14.209 54.743,-71.906 66.983,-57.697 z" id="path10504" inkscape:connector-curvature="0" style="fill:#c83737;fill-opacity:1;fill-rule:nonzero;stroke:#f9f9f9;stroke-width:0.1;stroke-miterlimit:4;stroke-dasharray:none" transform="translate(-10240, -36864)"/><path d="m 10937.342,37306.997 c -24.843,11.962 -47.785,27.475 -70.509,42.986 -22.819,15.763 -44.839,32.63 -66.915,49.404 -14.662,11.149 -67.218,-57.969 -52.555,-69.118 l 0,0 c 23.167,-17.628 46.263,-35.367 70.114,-52.071 26.567,-18.387 53.489,-36.419 82.21,-51.319 16.995,-7.988 54.651,72.13 37.655,80.118 z" id="path10506" inkscape:connector-curvature="0" style="fill:#c83737;fill-opacity:1;fill-rule:nonzero;stroke:#f9f9f9;stroke-width:0.1;stroke-miterlimit:4;stroke-dasharray:none" transform="translate(-10240, -36864)"/><path d="m 10367.038,37469.937 c 41.579,-5.772 83.204,-11.196 124.866,-16.332 72.53,-9.208 145.258,-16.62 218.142,-22.334 70.865,-5.782 141.972,-5.604 212.984,-3.701 47.625,1.518 95.238,3.408 142.857,5.129 12.618,0.375 25.238,1.046 37.866,0.904 18.796,0.634 15.809,89.238 -2.987,88.605 l 0,0 c -12.899,-0.95 -25.82,-1.585 -38.733,-2.313 -47.168,-2.468 -94.351,-4.697 -141.55,-6.464 -67.927,-2.217 -135.968,-2.826 -203.777,2.693 -71.476,5.616 -142.783,13.114 -213.83,22.792 -40.609,5.445 -81.236,10.972 -121.543,18.38 -18.532,3.033 -32.827,-84.327 -14.295,-87.359 z" id="path10508" inkscape:connector-curvature="0" style="fill:#c83737;fill-opacity:1;fill-rule:nonzero;stroke:#f9f9f9;stroke-width:0.1;stroke-miterlimit:4;stroke-dasharray:none" transform="translate(-10240, -36864)"/><path d="m 10764.95,37176.097 c -2.146,44.577 -0.516,89.28 -0.643,133.906 -1.042,78.354 -5.943,156.584 -9.117,234.866 -2.808,60.593 -1.25,121.213 3.638,181.639 1.833,20.872 4.173,41.695 6.993,62.455 2.119,18.634 -85.721,28.622 -87.84,9.989 l 0,0 c -2.045,-22.044 -4.097,-44.09 -5.602,-66.179 -4.119,-63.738 -5.317,-127.613 -2.124,-191.44 3.291,-77.018 8.03,-154.015 8.353,-231.124 -0.372,-47.554 -2.695,-95.102 -1.644,-142.648 1.81,-18.664 89.796,-10.129 87.986,8.536 z" id="path10510" inkscape:connector-curvature="0" style="fill:#c83737;fill-opacity:1;fill-rule:nonzero;stroke:#f9f9f9;stroke-width:0.1;stroke-miterlimit:4;stroke-dasharray:none" transform="translate(-10240, -36864)"/></svg>