<?xml version="1.0" encoding="UTF-8" standalone="no"?>
<svg
   xmlns:dc="http://purl.org/dc/elements/1.1/"
   xmlns:cc="http://creativecommons.org/ns#"
   xmlns:rdf="http://www.w3.org/1999/02/22-rdf-syntax-ns#"
   xmlns:svg="http://www.w3.org/2000/svg"
   xmlns="http://www.w3.org/2000/svg"
   xmlns:sodipodi="http://sodipodi.sourceforge.net/DTD/sodipodi-0.dtd"
   xmlns:inkscape="http://www.inkscape.org/namespaces/inkscape"
   width="1024"
   height="1024"
   id="U5E2E"
   version="1.1"
   inkscape:version="0.48.0 r9654"
   sodipodi:docname="U+5E2E.svg">
  <metadata
     id="metadata16">
    <rdf:RDF>
      <cc:Work
         rdf:about="">
        <dc:format>image/svg+xml</dc:format>
        <dc:type
           rdf:resource="http://purl.org/dc/dcmitype/StillImage" />
      </cc:Work>
    </rdf:RDF>
  </metadata>
  <defs
     id="defs14" />
  <sodipodi:namedview
     pagecolor="#ffffff"
     bordercolor="#666666"
     borderopacity="1"
     objecttolerance="10"
     gridtolerance="10"
     guidetolerance="10"
     inkscape:pageopacity="0"
     inkscape:pageshadow="2"
     inkscape:window-width="640"
     inkscape:window-height="480"
     id="namedview12"
     showgrid="false"
     inkscape:zoom="0.27441406"
     inkscape:cx="512"
     inkscape:cy="512"
     inkscape:window-x="0"
     inkscape:window-y="25"
     inkscape:window-maximized="0"
     inkscape:current-layer="U5E2E" />
  <path
     style="fill:#aa0000;fill-opacity:1;fill-rule:nonzero;stroke:#f9f9f9;stroke-width:0.1;stroke-miterlimit:4;stroke-dasharray:none"
     d="M 332.125 96.71875 C 320.18242 96.778086 311.08956 99.200469 310.0625 104.90625 C 305.87137 135.16738 302.03816 165.46282 298.28125 195.78125 C 272.92794 196.09047 247.5734 196.54587 222.21875 196.75 C 203.63395 197.4197 206.7902 285.01345 225.375 284.34375 C 246.03379 283.29663 266.72318 282.79326 287.40625 282.4375 C 286.86789 286.56389 286.33098 290.68769 285.78125 294.8125 C 273.26988 294.98246 260.76287 295.58899 248.28125 296.8125 C 229.83995 299.1371 240.8087 386.0745 259.25 383.75 C 263.90942 383.13631 268.57556 382.67778 273.25 382.3125 C 270.47883 400.4556 267.60447 418.57705 264.625 436.6875 C 226.80107 438.65593 188.90315 440.59537 151.0625 438.84375 C 132.5551 437.41015 125.8052 524.6288 144.3125 526.0625 C 179.36733 526.55646 214.4006 524.91511 249.40625 522.96875 C 243.30542 553.96805 236.51356 584.83664 229.84375 615.71875 C 226.19165 633.76875 311.2854 650.9875 314.9375 632.9375 C 322.12567 594.73814 330.0537 556.66067 336.78125 518.375 C 372.28662 516.86704 407.81242 515.86401 443.34375 515.15625 C 458.67735 515.35145 473.8485 514.01815 489 511.90625 C 489.75733 511.78059 490.44636 511.52416 491.09375 511.125 C 493.38748 547.62871 497.93028 583.9416 502.25 620.25 C 504.6959 638.5368 590.8834 627.00555 588.4375 608.71875 C 582.7219 570.22265 577.59295 531.61605 575.53125 492.71875 C 572.95145 435.24695 573.2798 377.6314 581 320.5 C 583.61443 301.70552 586.32027 282.8498 589.90625 264.1875 C 604.75652 264.10339 619.31177 266.96806 633.15625 271.9375 C 630.12297 273.6464 627.49962 275.11021 626.53125 275.59375 C 588.71485 295.31525 588.0746 326.7545 606.75 360.75 C 620.5488 382.2758 634.3373 403.7631 646.1875 426.4375 C 647.39369 431.24956 654.59314 442.41293 657.5 450.8125 C 657.51449 449.60829 657.53831 448.42775 657.5625 447.65625 C 658.60173 443.2596 660.38055 440.12678 662.625 437.28125 C 655.35739 458.1701 668.60157 519.09489 684 516.375 C 711.2666 509.4592 725.2955 504.16885 739.6875 477.96875 C 741.3717 470.69855 744.0275 463.58395 744.75 456.15625 C 747.1684 431.29115 732.6286 407.70535 723 386.03125 C 714.23678 369.45721 704.77237 353.31554 695 337.34375 C 707.45329 329.26755 718.7796 319.785 727.4375 306.96875 C 730.4549 300.03045 734.8243 293.5032 736.5 286.125 C 745.1985 247.8237 719.50485 218.42215 688.28125 201.34375 C 654.83445 186.11445 619.32135 176.0097 582.21875 176.875 C 578.91318 177.13735 576.45055 180.16821 574.6875 184.90625 C 551.94887 176.17894 523.99172 171.98077 520.78125 181.96875 C 508.43655 223.43315 502.05335 266.24465 496.40625 309.03125 C 490.72767 353.14981 488.79695 397.52229 489.03125 441.90625 C 485.07977 431.79325 480.07847 424.95443 474.71875 425.84375 C 463.63255 428.38455 452.2752 428.56215 440.9375 429.03125 C 410.90009 430.11158 380.87327 431.25244 350.84375 432.53125 C 353.3609 416.45549 355.8192 400.37493 358.21875 384.28125 C 362.8972 384.74671 363.54661 384.9294 377.625 387.03125 C 395.7659 389.63605 408.04705 304.1048 389.90625 301.5 C 377.06548 299.71501 373.65211 299.16972 370.40625 298.78125 C 371.08281 293.82102 371.77136 288.86795 372.4375 283.90625 C 378.87183 284.3931 385.32755 284.96438 391.75 285.625 C 410.0834 287.351 418.2085 200.94475 399.875 199.21875 C 394.57594 198.75913 389.27284 198.34978 383.96875 197.96875 C 387.57661 172.03878 391.45496 146.13028 396.125 120.375 C 398.38447 107.82228 358.39867 96.588211 332.125 96.71875 z M 657.5 450.8125 C 657.44619 455.28329 657.55844 461.24847 658.46875 458.53125 C 659.09741 456.65474 658.57341 453.9142 657.5 450.8125 z M 653.03125 281.8125 C 655.60927 283.15935 659.1716 284.92874 658.3125 286.625 C 657.18393 288.85336 654.59383 284.9893 653.03125 281.8125 z M 380.4375 520.34375 C 373.51288 520.51451 368.55539 522.26124 367.3125 526.125 C 353.99084 573.97799 346.4113 623.15452 338.9375 672.1875 C 312.31959 675.3563 285.81848 679.44425 259.71875 685.53125 C 237.04881 674.5387 185.82963 670.31287 183.75 684.375 C 179.5932 723.0115 181.18005 761.8333 185.28125 800.375 C 187.15405 819.7765 192.8178 838.1258 199.25 856.375 C 205.7276 873.6251 287.0401 843.09395 280.5625 825.84375 C 275.8078 814.61925 272.40005 803.10535 271.03125 790.90625 C 270.2729 784.32441 269.63169 777.73496 269.09375 771.125 C 270.90582 772.07368 272.67961 772.3218 274.375 771.78125 C 291.71498 766.78564 309.37931 763.20304 327.1875 760.375 C 322.57345 797.71229 318.26283 835.09445 313.96875 872.46875 C 311.48915 894.49165 308.80865 916.47395 306.09375 938.46875 C 304.03005 956.66565 389.8114 966.41565 391.875 948.21875 C 394.1648 926.08935 396.49645 903.9425 398.78125 881.8125 C 403.4066 838.10365 408.15688 794.4134 413.71875 750.8125 C 460.51822 747.72833 507.48348 747.97171 554.25 751.59375 C 574.166 755.66745 611.1214 754.3327 625.0625 772.375 C 627.4794 788.8542 627.17545 805.49165 626.53125 822.09375 C 624.38125 853.57265 618.7092 884.7373 609.625 914.9375 C 606.1189 923.1967 608.5656 920.83915 604.6875 923.84375 C 595.163 939.71695 670.00665 984.6232 679.53125 968.75 C 690.12785 949.1032 685.6662 959.08375 693 938.90625 C 703.2952 901.81015 710.42965 863.851 712.84375 825.375 C 714.46135 782.0004 713.52525 738.56425 680.90625 705.71875 C 675.43645 701.51855 670.29305 696.78645 664.46875 693.09375 C 633.63055 673.54235 595.6575 670.1954 560.375 666.125 C 515.67847 663.14821 470.856 662.62638 426.125 664.71875 C 432.25084 627.02864 439.05247 589.33387 450.59375 552.90625 C 455.03266 539.10703 405.16827 519.73389 380.4375 520.34375 z "
     id="path19737" />
</svg>
