<?xml version="1.0" encoding="UTF-8" standalone="no"?>
<svg
   xmlns:dc="http://purl.org/dc/elements/1.1/"
   xmlns:cc="http://creativecommons.org/ns#"
   xmlns:rdf="http://www.w3.org/1999/02/22-rdf-syntax-ns#"
   xmlns:svg="http://www.w3.org/2000/svg"
   xmlns="http://www.w3.org/2000/svg"
   xmlns:sodipodi="http://sodipodi.sourceforge.net/DTD/sodipodi-0.dtd"
   xmlns:inkscape="http://www.inkscape.org/namespaces/inkscape"
   width="1024"
   height="1024"
   id="U5E3D"
   version="1.1"
   inkscape:version="0.48.0 r9654"
   sodipodi:docname="U+5E3D.svg">
  <metadata
     id="metadata19">
    <rdf:RDF>
      <cc:Work
         rdf:about="">
        <dc:format>image/svg+xml</dc:format>
        <dc:type
           rdf:resource="http://purl.org/dc/dcmitype/StillImage" />
      </cc:Work>
    </rdf:RDF>
  </metadata>
  <defs
     id="defs17" />
  <sodipodi:namedview
     pagecolor="#ffffff"
     bordercolor="#666666"
     borderopacity="1"
     objecttolerance="10"
     gridtolerance="10"
     guidetolerance="10"
     inkscape:pageopacity="0"
     inkscape:pageshadow="2"
     inkscape:window-width="640"
     inkscape:window-height="480"
     id="namedview15"
     showgrid="false"
     inkscape:zoom="0.27441406"
     inkscape:cx="512"
     inkscape:cy="512"
     inkscape:window-x="0"
     inkscape:window-y="25"
     inkscape:window-maximized="0"
     inkscape:current-layer="U5E3D" />
  <path
     style="fill:#c83737;fill-opacity:1;fill-rule:nonzero;stroke:#f9f9f9;stroke-width:0.1;stroke-miterlimit:4;stroke-dasharray:none"
     d="M 849.28125 88.46875 C 845.15917 88.473328 841.0253 88.702 836.8125 89.15625 C 817.208 90.81925 797.60985 92.95125 777.90625 93.03125 C 746.36385 93.68525 714.89565 92.07575 683.40625 90.34375 C 643.02735 89.00875 602.65715 89.899 562.65625 96.25 C 531.55005 100.725 500.58055 106.0735 470.15625 114.0625 C 464.71788 115.49625 462.96965 124.19895 463.625 135.53125 C 437.85649 137.94098 406.09558 148.70397 408.3125 160 C 414.5198 191.414 421.076 222.725 428.5 253.875 C 436.9226 288.932 447.13985 323.55775 460.71875 356.96875 C 467.21495 372.72975 475.37075 387.58825 486.15625 400.78125 C 498.73095 414.80025 564.8246 355.518 552.25 341.5 C 555.8219 347.79 539.75745 323.54925 541.71875 323.15625 C 529.28345 294.39425 520.7517 264.17925 513.3125 233.78125 C 510.36699 221.28319 507.55853 208.75309 504.9375 196.1875 C 528.01369 190.01338 551.59633 186.04532 575.21875 182.5625 C 610.05285 176.8125 645.202 176.25325 680.375 177.53125 C 713.3166 179.49325 746.2443 181.08275 779.25 180.71875 C 798.7563 180.80838 818.19834 179.11187 837.625 177.65625 C 834.25274 194.18266 830.46258 210.60934 826.75 227.0625 C 819.4824 257.6285 813.1953 288.39225 808.1875 319.40625 C 804.9708 338.88125 803.9063 358.58925 803.125 378.28125 C 803.29023 381.56113 803.08339 384.10662 802.84375 385.84375 C 803.1941 384.46405 803.74127 382.56474 804.6875 379.75 C 806.82773 375.60087 806.12536 376.68964 808 374.0625 C 798.7469 389.58106 862.93665 445.92911 875.1875 432.09375 C 882.2916 423.23875 879.04485 427.898 884.84375 418.125 C 889.68165 406.084 892.25945 393.9735 891.59375 380.9375 C 891.90065 364.9165 892.4674 348.87 894.875 333 C 899.2633 304.05 905.06545 275.38475 912.15625 246.96875 C 916.84795 227.42775 921.8797 207.92875 925.8125 188.21875 C 927.0855 178.36775 927.646 168.4755 925.5 158.6875 C 924.0668 149.9985 922.7967 141.21825 919.75 132.90625 C 912.9179 116.15825 902.74815 102.1185 885.65625 94.4375 C 873.66 90.479 861.64748 88.455016 849.28125 88.46875 z M 802.84375 385.84375 C 802.02891 389.0526 802.45359 388.67203 802.84375 385.84375 z M 233.9375 187.59375 C 218.29768 187.49702 205.4276 190.39175 204.59375 197.375 C 200.75395 243.281 198.71845 289.2855 197.09375 335.3125 C 196.5417 355.13774 196.07304 374.98494 195.625 394.8125 C 182.77484 396.11031 169.9681 397.6029 157.15625 399.3125 C 152.84148 399.99874 150.30449 405.30228 149.15625 412.9375 C 124.13089 404.93979 88.035185 402.65159 85.84375 414.40625 C 80.48505 450.48525 81.4947 486.99725 83.5625 523.28125 C 85.6607 558.09725 91.30975 592.5625 97.65625 626.8125 C 100.69085 648.0155 104.92175 664.714 116.46875 682.875 C 128.15381 696.79467 191.83723 644.21695 185.5625 627.46875 C 186.22617 628.61299 186.87092 629.76021 187.53125 630.90625 C 185.99082 624.11619 186.96826 615.62364 183.90625 610.15625 C 177.78735 579.82725 172.41955 549.27375 170.53125 518.34375 C 169.93024 507.80566 169.38437 497.21065 169.1875 486.625 C 169.79798 486.72299 170.40927 486.72396 171.03125 486.625 C 178.59539 485.31777 186.17752 484.18726 193.78125 483.1875 C 193.305 507.00388 192.81557 530.80988 192.28125 554.625 C 191.62096 581.62695 190.84205 608.62793 190.0625 635.625 C 190.02296 635.51645 189.97426 635.38541 189.9375 635.3125 C 189.198 633.84428 188.38251 632.42492 187.5625 631 C 188.05533 633.13441 188.82968 635.07872 190.03125 636.71875 C 188.82684 678.45951 187.66781 720.20958 187.15625 761.96875 C 186.40275 812.84175 188.64335 863.65625 193.53125 914.28125 C 195.67785 934.58625 198.4597 954.80875 201.6875 974.96875 C 202.3313 979.08075 202.083 977.32975 202.4375 980.21875 C 205.5573 998.81675 293.2448 984.098 290.125 965.5 C 289.4187 961.961 289.79725 963.8945 288.96875 959.6875 C 285.50695 941.6215 282.52215 923.47875 280.28125 905.21875 C 274.93385 857.93475 272.6107 810.4085 273.0625 762.8125 C 273.5776 694.0255 275.95755 625.29725 277.59375 556.53125 C 278.17135 530.14991 278.70163 503.75786 279.25 477.375 C 299.62859 477.55566 319.9816 478.86462 340.28125 480.65625 C 352.17968 481.72804 363.85475 484.07489 374.875 488.5 C 372.6489 506.18817 368.27534 523.50791 363.96875 540.78125 C 356.83495 567.08425 349.49735 593.30375 342.78125 619.71875 C 343.14323 623.12119 333.2142 651.182 339.34375 635.3125 C 334.12515 652.54436 408.18826 693.88523 417.25 677.84375 C 422.5418 665.84075 425.93385 653.684 428.28125 640.75 C 434.52625 614.405 441.6648 588.31375 448.875 562.21875 C 456.1797 533.61875 464.2972 504.546 462.8125 474.75 C 457.6246 444.057 445.48175 423.71175 416.65625 410.34375 C 394.65125 400.87675 371.57005 394.839 347.59375 393.125 C 325.54185 391.36822 303.43326 390.13249 281.3125 389.96875 C 281.79332 372.8991 282.31123 355.84673 282.9375 338.78125 C 284.9164 295.07625 287.0194 251.29175 292.375 207.84375 C 293.76475 196.205 260.00387 187.75496 233.9375 187.59375 z M 649.21875 201.5 C 624.49242 201.5198 599.75648 202.06537 575.03125 202.46875 C 556.26825 202.61675 556.9871 291.05425 575.75 290.90625 C 603.5201 289.36325 631.28725 288.841 659.09375 289.125 C 678.95975 289.661 698.87275 290.3245 718.65625 292.3125 C 725.33675 293.1135 731.9911 294.089 738.6875 294.75 C 757.5102 296.06 763.6977 207.31 744.875 206 C 738.7183 205.924 732.6007 204.55725 726.4375 204.28125 C 704.2738 202.51825 682.0368 201.92825 659.8125 201.53125 C 656.27944 201.51037 652.75108 201.49717 649.21875 201.5 z M 731.34375 319.8125 C 730.42506 319.81158 729.50214 319.82022 728.5625 319.84375 C 704.9837 320.38575 681.3945 321.015 657.875 322.875 C 629.339 325.335 600.798 328.04375 572.4375 332.09375 C 554.0087 335.65575 570.78995 422.53075 589.21875 418.96875 C 614.37675 414.54775 639.8772 412.3315 665.3125 410.1875 C 686.7577 408.5965 708.2544 408.205 729.75 408.125 C 742.0885 410.469 723.4096 405.47575 721.8125 404.46875 C 717.13137 401.51728 716.02837 399.53461 713.21875 395.6875 C 725.64745 408.6557 801.7595 383.96445 796.4375 366.90625 C 795.2106 363.49925 793.9769 360.0955 792.75 356.6875 C 778.32415 331.62787 759.82327 319.84117 731.34375 319.8125 z M 657.75 473.25 C 636.89521 473.3254 616.08045 474.60644 595.5 478.40625 C 568.1618 483.95025 541.18085 491.115 515.71875 502.75 C 512.82499 504.08111 511.48859 507.52819 511.34375 512.25 C 497.71676 513.78921 487.26603 517.63315 487.03125 524.03125 C 486.64275 557.49525 486.1039 590.9755 485.5625 624.4375 C 484.5968 669.2545 484.3947 714.065 485.625 758.875 C 486.5095 788.463 489.0341 817.987 492.5 847.375 C 493.7794 863.725 497.30285 878.976 504.59375 893.625 C 509.58715 901.69579 531.22631 893.84991 550.21875 882.03125 C 553.85936 890.17233 558.26255 895.36418 563 894.625 C 594.9733 889.128 627.4281 887.5695 659.8125 887.4375 C 688.3314 887.6435 716.57835 891.77725 744.34375 898.03125 C 756.65085 900.65125 768.10725 905.61475 779.03125 911.71875 C 782.31885 913.65475 780.9557 912.75225 783.1875 914.28125 C 791.00256 919.06133 805.96685 903.58921 817.4375 885.3125 C 834.96914 884.07606 849.79241 879.69548 849.875 872 C 849.7499 866.779 849.8882 867.82475 849.6875 869.34375 C 850.1028 861.48575 851.04925 853.052 851.71875 845 C 854.04525 822.149 856.9284 799.363 861 776.75 C 867.3226 740.37 874.07845 704.07875 879.78125 667.59375 C 884.23855 638.25575 888.60505 608.862 890.78125 579.25 C 891.74885 562.108 892.4994 544.63525 886.75 528.15625 C 880.0145 512.09125 869.82655 498.645 853.53125 491.25 C 840.36855 485.611 826.60895 482.131 812.34375 480.625 C 793.66625 478.54 774.91 478.08 756.125 478 C 732.7699 477.181 709.498 475.38225 686.1875 473.78125 C 676.71688 473.43469 667.22945 473.21573 657.75 473.25 z M 656.4375 560.9375 C 665.21023 560.90718 673.99 561.15887 682.75 561.53125 C 706.1187 563.30525 729.48475 565.00425 752.90625 565.90625 C 769.27295 566.25625 785.6217 566.27725 801.875 568.40625 C 802.125 568.42904 802.39518 568.47074 802.65625 568.5 C 802.6728 571.089 802.67806 573.48745 802.625 574.65625 C 801.97718 585.53299 800.96265 596.39566 799.75 607.21875 C 785.29897 597.45364 769.28146 591.69566 751.375 588.96875 C 719.7097 585.15575 688.1694 587.2875 656.625 591.6875 C 628.73384 594.84373 600.85389 598.11002 572.96875 601.3125 C 573.17966 592.34467 573.39468 583.40388 573.65625 574.4375 C 586.37292 570.06118 599.53477 566.99467 612.75 564.375 C 627.20356 561.85625 641.81629 560.98804 656.4375 560.9375 z M 793.09375 657.125 C 789.22778 682.50726 784.72076 707.77334 780.125 733.03125 C 777.64775 728.89684 775.2719 724.69177 772 721.1875 C 757.7269 705.9005 737.16515 703.03475 717.53125 702.34375 C 692.45485 701.94675 667.36105 702.74675 642.28125 702.34375 C 618.73018 702.62338 595.15517 702.81003 571.625 703.90625 C 571.56541 695.31649 571.55034 686.71519 571.59375 678.125 C 574.79554 685.26767 578.68417 689.76929 583.0625 689.25 C 610.7947 684.984 638.6948 681.7875 666.5625 678.5625 C 690.7908 675.9165 715.2458 672.09425 739.5 676.15625 C 746.6976 676.45925 760.54345 687.4855 745.34375 676.1875 C 742.22465 670.73367 739.11918 665.26633 736 659.8125 C 743.42273 667.14514 771.2557 664.20547 793.09375 657.125 z M 776.9375 750.5625 C 776.27389 754.21875 775.59512 757.87405 774.9375 761.53125 C 771.72249 778.63238 769.11269 795.8214 766.8125 813.0625 C 765.52125 812.76599 764.20647 812.45574 762.90625 812.1875 C 728.80645 805.0355 694.19555 800.3225 659.28125 800.3125 C 631.50195 800.51812 603.76874 801.65959 576.125 804.28125 C 575.71639 800.2477 575.3195 796.19514 574.96875 792.15625 C 597.69548 790.35577 620.55632 790.22239 643.34375 789.9375 C 667.30345 790.4045 691.3014 789.572 715.25 790.5 C 735.806 792.769 718.3641 792.369 710.1875 784.875 C 707.71126 782.60591 705.8622 779.75663 703.875 777.03125 C 714.108 786.27691 760.00553 767.2365 776.9375 750.5625 z "
     id="path10920" />
</svg>
