<?xml version="1.0" encoding="UTF-8" standalone="no"?>
<svg
   xmlns:dc="http://purl.org/dc/elements/1.1/"
   xmlns:cc="http://creativecommons.org/ns#"
   xmlns:rdf="http://www.w3.org/1999/02/22-rdf-syntax-ns#"
   xmlns:svg="http://www.w3.org/2000/svg"
   xmlns="http://www.w3.org/2000/svg"
   xmlns:sodipodi="http://sodipodi.sourceforge.net/DTD/sodipodi-0.dtd"
   xmlns:inkscape="http://www.inkscape.org/namespaces/inkscape"
   width="1024"
   height="1024"
   id="U5E8A"
   version="1.1"
   inkscape:version="0.48.0 r9654"
   sodipodi:docname="U+5E8A.svg">
  <metadata
     id="metadata14">
    <rdf:RDF>
      <cc:Work
         rdf:about="">
        <dc:format>image/svg+xml</dc:format>
        <dc:type
           rdf:resource="http://purl.org/dc/dcmitype/StillImage" />
      </cc:Work>
    </rdf:RDF>
  </metadata>
  <defs
     id="defs12" />
  <sodipodi:namedview
     pagecolor="#ffffff"
     bordercolor="#666666"
     borderopacity="1"
     objecttolerance="10"
     gridtolerance="10"
     guidetolerance="10"
     inkscape:pageopacity="0"
     inkscape:pageshadow="2"
     inkscape:window-width="640"
     inkscape:window-height="480"
     id="namedview10"
     showgrid="false"
     inkscape:zoom="0.27441406"
     inkscape:cx="512"
     inkscape:cy="512"
     inkscape:window-x="0"
     inkscape:window-y="25"
     inkscape:window-maximized="0"
     inkscape:current-layer="U5E8A" />
  <path
     style="fill:#800000;fill-opacity:1;fill-rule:nonzero;stroke:#f9f9f9;stroke-width:0.1;stroke-miterlimit:4;stroke-dasharray:none"
     d="M 414.9375 118.1875 C 391.95323 118.06524 339.00155 146.54824 345.6875 160.40625 C 363.4722 192.24775 389.4117 218.3044 414.4375 244.4375 C 426.8136 257.2569 439.3621 269.956 449.875 284.375 C 461.0997 299.0313 530.19345 246.0938 518.96875 231.4375 C 505.93305 214.8993 491.72205 199.4757 476.78125 184.625 C 458.05625 165.1614 438.19275 145.90255 424.59375 122.34375 C 423.2061 119.46756 419.70782 118.21288 414.9375 118.1875 z M 559.1875 332 C 535.62252 331.95616 512.03719 332.78721 488.5 334.5625 C 415.6204 340.0671 343.0359 348.36675 270.625 358.28125 C 229.1305 363.50745 187.4136 369.8517 145.5 369.4375 C 126.9539 368.1907 121.0789 455.6282 139.625 456.875 C 144.72479 456.83245 149.81466 456.69535 154.90625 456.5 C 148.74979 492.63128 141.86684 528.65044 135.1875 564.6875 C 123.1342 630.1846 111.2609 695.7258 100.8125 761.5 C 93.9886 806.6512 88.5428 852.021 86 897.625 C 85.216 916.0319 171.99725 919.7194 172.78125 901.3125 C 173.92265 858.8714 178.79995 816.6298 184.78125 774.625 C 194.79785 709.7058 206.50295 645.0783 218.84375 580.5625 C 227.20325 537.5493 235.63795 494.5439 244.46875 451.625 C 244.72005 450.31612 244.51273 449.02886 243.90625 447.75 C 256.51361 446.03623 269.10731 444.24675 281.6875 442.53125 C 352.4162 432.21205 423.391 424.0531 494.6875 419 C 543.5255 415.615 592.5173 416.76705 641.125 422.34375 C 651.77061 421.63939 669.76652 432.96418 650.15625 421.125 C 667.58068 425.99972 724.36881 374.03037 712.78125 361 C 706.53905 356.1782 700.8383 350.56895 694.0625 346.53125 C 681.1209 338.81935 664.22025 339.01595 649.96875 336.34375 C 619.7724 333.54897 589.48533 332.05637 559.1875 332 z M 427.90625 456.3125 C 420.97329 456.37776 415.99038 458.05824 414.6875 461.90625 C 405.79871 496.27569 402.27294 531.66219 399.625 567.0625 C 394.93592 568.05332 390.27318 569.08182 385.59375 570.125 C 338.50705 580.7127 291.55595 592.10085 245.53125 606.71875 C 228.01535 612.85565 256.9217 695.41815 274.4375 689.28125 C 303.47422 678.72592 333.24728 670.40486 363.21875 662.9375 C 333.1765 680.63641 308.034 705.25803 283.8125 730.15625 C 252.9896 763.01045 226.2907 799.40565 200.8125 836.46875 C 190.1466 852.91705 195.0297 844.66695 186.0625 861.09375 C 177.6433 877.57375 255.3309 917.26125 263.75 900.78125 C 267.7075 891.63515 265.05815 897.06735 272.46875 884.90625 C 294.51155 851.68855 317.98595 819.2833 345.34375 790.1875 C 358.43161 776.80988 371.77192 763.20174 386.71875 751.8125 C 385.25078 775.065 383.86584 798.3268 382.625 821.59375 C 380.4818 866.51535 379.28675 911.51585 381.09375 956.46875 C 382.18145 974.90335 469.0877 969.77835 468 951.34375 C 464.5778 909.61125 465.92955 867.63535 467.34375 825.84375 C 470.29568 763.41349 474.44869 701.05166 479.40625 638.75 C 510.29882 633.89165 541.39778 630.25356 572.59375 627.75 C 596.86955 626.8083 621.3641 624.65655 645.625 627.15625 C 664.2188 628.13025 668.81265 540.474 650.21875 539.5 C 621.84315 538.9838 593.4775 540.0959 565.1875 542.375 C 538.97871 544.79351 512.84546 547.85686 486.8125 551.625 C 489.09232 530.83135 492.28788 510.15863 497.625 489.96875 C 502.27813 476.22586 452.66681 456.07941 427.90625 456.3125 z M 393.21875 655.6875 C 392.90703 660.04203 392.62073 664.39524 392.3125 668.75 C 388.89572 664.11171 385.42785 660.41011 382.1875 658.3125 C 385.86646 657.43662 389.5373 656.54751 393.21875 655.6875 z M 567.28125 720.78125 C 547.32214 721.28763 496.7359 769.00735 507.78125 781.34375 C 529.40515 805.03865 554.12995 825.3968 579.65625 844.6875 C 608.86495 865.3645 638.72425 885.07435 667.78125 905.96875 C 681.81675 916.19425 675.0949 911.27035 688 920.78125 C 702.9644 931.59975 753.9645 861.0684 739 850.25 C 725.6073 840.7493 732.58815 845.6907 718.03125 835.375 C 689.47075 815.2514 660.3304 795.9946 631.8125 775.8125 C 610.7823 759.8625 590.19335 743.16545 573.09375 722.90625 C 571.73729 721.39125 569.73237 720.71906 567.28125 720.78125 z "
     id="path21295" />
</svg>
