<?xml version="1.0" encoding="utf-8" ?>

<!DOCTYPE svg PUBLIC "-//W3C//DTD SVG 1.1//EN" 
  "http://www.w3.org/Graphics/SVG/1.1/DTD/svg11.dtd">
<svg 
    xmlns="http://www.w3.org/2000/svg"
    xmlns:xlink="http://www.w3.org/1999/xlink"
    xmlns:sodipodi="http://sodipodi.sourceforge.net/DTD/sodipodi-0.dtd"
    xmlns:inkscape="http://www.inkscape.org/namespaces/inkscape"
    width="1024" height="1024" id="U5E02">
<path d="m 8658.0641,44222.06 c 11.3763,22.36 24.2878,43.887 37.7383,65.047 9.9007,15.132 4.9737,7.59 14.7813,22.625 10.1173,15.619 -63.5117,63.312 -73.629,47.693 l 0,0 c -9.7798,-15.206 -4.7451,-7.408 -15.1088,-23.39 -14.446,-22.803 -28.2472,-45.992 -41.4679,-69.528 -9.0043,-16.479 68.6817,-58.926 77.6861,-42.447 z" id="path12447" inkscape:connector-curvature="0" style="fill:#a02c2c;fill-opacity:1;fill-rule:nonzero;stroke:#f9f9f9;stroke-width:0.1;stroke-miterlimit:4;stroke-dasharray:none" transform="translate(-8192, -44032)"/><path d="m 8351.461,44442.101 c 40.0889,1.835 80.1111,-5.37 119.6085,-11.339 69.3741,-11.879 138.8353,-23.028 208.7613,-31.108 58.7463,-6.805 117.8635,-7.288 176.851,-4.444 31.936,1.823 63.7638,5.067 95.5256,8.798 2.7243,0.33 5.4485,0.661 8.1728,0.992 18.5607,2.485 6.8439,89.982 -11.7169,87.496 l 0,0 c -2.5639,-0.377 -5.1279,-0.755 -7.6918,-1.132 -29.5256,-4.149 -59.1612,-7.548 -88.9138,-9.589 -54.1889,-3.204 -108.5294,-3.169 -162.5557,2.9 -68.787,7.695 -137.084,18.694 -205.2115,30.886 -48.4012,7.768 -97.4502,16.973 -146.6647,13.92 -18.536,-2.935 -4.7009,-90.315 13.8352,-87.38 z" id="path12449" inkscape:connector-curvature="0" style="fill:#a02c2c;fill-opacity:1;fill-rule:nonzero;stroke:#f9f9f9;stroke-width:0.1;stroke-miterlimit:4;stroke-dasharray:none" transform="translate(-8192, -44032)"/><path d="m 8515.4217,44620.983 c 2.9516,31.043 9.2867,61.605 16.7523,91.836 4.3091,17.193 9.9688,33.974 17.0755,50.198 7.1448,17.224 -74.0539,50.905 -81.1987,33.68 l 0,0 c -8.2132,-20.573 -15.2835,-41.562 -20.5066,-63.116 -8.2807,-33.952 -15.2837,-68.189 -20.0221,-102.831 -2.0718,-18.647 85.8278,-28.413 87.8996,-9.767 z" id="path12451" inkscape:connector-curvature="0" style="fill:#a02c2c;fill-opacity:1;fill-rule:nonzero;stroke:#f9f9f9;stroke-width:0.1;stroke-miterlimit:4;stroke-dasharray:none" transform="translate(-8192, -44032)"/><path d="m 8515.8118,44593.026 c 40.5754,-13.543 82.7129,-21.101 124.8358,-27.894 50.0905,-7.599 100.5375,-12.488 151.0248,-16.505 34.6857,-2.62 69.5472,-3.902 104.0623,0.958 45.8196,10.306 60.9358,35.796 66.0969,80.381 0.6478,39.013 -7.8295,77.406 -16.4365,115.234 -8.1121,35.68 -19.2283,70.326 -39.1215,101.175 -10.5897,15.358 -82.9867,-34.563 -72.3969,-49.92 l 0,0 c 16.4119,-19.184 18.8865,-47.545 26.5387,-70.644 6.6294,-28.965 13.2018,-58.292 13.8901,-88.118 0.2064,-7.403 0.5188,-3.976 5.3712,-1.085 1.0255,0.611 10.8263,3.271 2.3852,-0.1 -27.5673,-5.216 -55.9857,-2.458 -83.7981,-1.355 -48.0463,3.489 -96.0553,7.973 -143.6794,15.353 -36.7032,6.07 -73.6624,12.43 -108.6284,25.565 -17.6177,6.395 -47.7618,-76.655 -30.1442,-83.05 z" id="path12453" inkscape:connector-curvature="0" style="fill:#a02c2c;fill-opacity:1;fill-rule:nonzero;stroke:#f9f9f9;stroke-width:0.1;stroke-miterlimit:4;stroke-dasharray:none" transform="translate(-8192, -44032)"/><path d="m 8745.4029,44509.375 c -7.4043,52.316 -10.0688,105.216 -13.5751,157.906 -4.5865,67.746 -9.438,135.486 -11.1109,203.378 -0.4494,35.304 0.159,70.721 3.9324,105.853 0.3279,1.994 0.6558,3.987 0.9836,5.981 0.1827,0.256 0.3654,0.511 0.548,0.767 4.3053,18.287 -81.9018,38.582 -86.207,20.295 l 0,0 c -2.4885,-12.662 -1.4946,-6.256 -2.9643,-19.221 -2.8987,-38.662 -3.3533,-77.486 -2.3268,-116.234 2.3801,-68.831 7.5922,-137.503 11.9561,-206.229 3.3649,-55.636 5.963,-111.372 11.6706,-166.828 3.0403,-18.475 90.1336,-4.144 87.0934,14.332 z" id="path12455" inkscape:connector-curvature="0" style="fill:#a02c2c;fill-opacity:1;fill-rule:nonzero;stroke:#f9f9f9;stroke-width:0.1;stroke-miterlimit:4;stroke-dasharray:none" transform="translate(-8192, -44032)"/></svg>