<?xml version="1.0" encoding="UTF-8" standalone="no"?>
<svg
   xmlns:dc="http://purl.org/dc/elements/1.1/"
   xmlns:cc="http://creativecommons.org/ns#"
   xmlns:rdf="http://www.w3.org/1999/02/22-rdf-syntax-ns#"
   xmlns:svg="http://www.w3.org/2000/svg"
   xmlns="http://www.w3.org/2000/svg"
   xmlns:sodipodi="http://sodipodi.sourceforge.net/DTD/sodipodi-0.dtd"
   xmlns:inkscape="http://www.inkscape.org/namespaces/inkscape"
   width="1024"
   height="1024"
   id="U5EFA"
   version="1.1"
   inkscape:version="0.48.0 r9654"
   sodipodi:docname="U+5EFA.svg">
  <metadata
     id="metadata15">
    <rdf:RDF>
      <cc:Work
         rdf:about="">
        <dc:format>image/svg+xml</dc:format>
        <dc:type
           rdf:resource="http://purl.org/dc/dcmitype/StillImage" />
      </cc:Work>
    </rdf:RDF>
  </metadata>
  <defs
     id="defs13" />
  <sodipodi:namedview
     pagecolor="#ffffff"
     bordercolor="#666666"
     borderopacity="1"
     objecttolerance="10"
     gridtolerance="10"
     guidetolerance="10"
     inkscape:pageopacity="0"
     inkscape:pageshadow="2"
     inkscape:window-width="640"
     inkscape:window-height="480"
     id="namedview11"
     showgrid="false"
     inkscape:zoom="0.27441406"
     inkscape:cx="512"
     inkscape:cy="512"
     inkscape:window-x="0"
     inkscape:window-y="25"
     inkscape:window-maximized="0"
     inkscape:current-layer="U5EFA" />
  <path
     style="fill:#550000;fill-opacity:1;fill-rule:nonzero;stroke:#f9f9f9;stroke-width:0.1;stroke-miterlimit:4;stroke-dasharray:none"
     d="M 578.375 29.03125 C 567.9635 29.127277 560.26834 31.330937 559.125 36.53125 C 553.65137 79.991949 554.05244 123.93359 554.6875 167.75 C 523.12882 169.74652 491.55802 172.2268 460.375 177.6875 L 460.375 177.65625 C 441.779 181.28825 458.904 268.97575 477.5 265.34375 C 503.01349 259.88848 529.03773 257.70092 555.03125 255.96875 C 554.94414 266.2711 554.80856 276.57344 554.65625 286.875 C 527.20022 289.32038 499.84574 292.81611 472.8125 298.375 C 454.4043 302.838 475.43555 389.61925 493.84375 385.15625 C 513.22539 380.45636 532.94382 377.46996 552.75 375.375 C 552.33861 390.58138 551.89344 405.76376 551.4375 420.96875 C 548.27598 421.18943 545.09786 421.41703 541.9375 421.65625 C 505.4199 424.72725 468.92125 428.49725 433.03125 436.15625 C 414.64865 440.71725 436.14865 527.3735 454.53125 522.8125 C 485.39654 515.05425 517.14696 512.01017 548.78125 509.375 C 548.47408 519.66281 548.1686 529.96184 547.875 540.25 C 542.98694 540.6956 538.10259 541.1787 533.21875 541.6875 C 502.75938 544.85226 472.36681 548.56963 442.09375 553.15625 C 442.69816 527.53675 433.01618 506.92603 409.40625 487.875 C 382.63585 468.874 352.8553 456.191 320.3125 450.75 C 311.70131 449.20602 303.07149 447.77221 294.4375 446.34375 C 305.12831 438.86475 315.81321 431.3691 326.40625 423.75 C 346.47115 408.925 367.50985 394.6045 377.40625 370.6875 C 378.36945 363.3895 380.86915 356.1495 380.28125 348.8125 C 377.95175 319.7415 353.98995 303.2835 328.71875 295.5625 C 297.99655 287.5495 266.45185 283.60875 234.84375 280.96875 C 201.73305 278.36175 168.57855 276.91975 135.40625 275.34375 C 116.47335 274.78675 113.84825 364.03675 132.78125 364.59375 C 164.53745 364.86575 196.25215 366.3035 227.90625 368.8125 C 234.44731 369.47005 241.00749 370.12511 247.5625 370.84375 C 236.45882 378.61874 225.28981 386.33381 214.21875 394.15625 C 196.48055 406.29625 180.3044 419.727 167.625 437.125 C 145.3302 486.274 174.76675 510.47875 217.96875 522.34375 C 246.62785 528.86675 275.81135 532.58625 304.71875 537.78125 C 321.60537 540.94848 338.02172 546.17288 352.03125 556.03125 C 343.01871 573.25809 330.8552 588.57462 318.9375 603.84375 C 295.61996 632.91616 271.35882 661.18118 246.21875 688.6875 C 225.89874 682.73048 205.67266 676.51967 185.59375 669.78125 C 151.97885 657.43625 118.65005 644.023 87.46875 626.25 C 70.81365 617.181 28.0324 695.71225 44.6875 704.78125 C 80.479 723.32125 117.89595 738.256 155.78125 751.875 C 162.18643 753.98977 168.5985 756.06999 175.03125 758.09375 C 170.7016 761.99981 166.34786 765.89769 162 769.78125 C 145.14357 781.63576 131.71945 800.65261 113.46875 810.90625 C 114.49958 810.82537 115.97008 810.67684 118.1875 810.34375 C 101.44953 817.78551 92.862648 896.35802 110.5625 898.53125 C 139.7957 897.68325 126.66855 900.53375 150.28125 891.96875 C 176.47085 876.52675 198.4633 855.65875 220.9375 835.34375 C 238.66777 819.31185 256.32331 803.15709 273.46875 786.5 C 297.11294 792.93753 320.77426 799.24974 344.375 805.8125 C 412.337 825.9705 480.56815 844.98 549.65625 860.875 C 608.62005 873.845 668.21315 883.6175 727.78125 893.3125 C 768.30905 900.1015 808.8791 906.67775 849.5625 912.46875 C 868.0822 914.87675 886.475 918.2445 905.125 919.4375 C 924.0741 920.1745 927.54285 830.83075 908.59375 830.09375 C 892.87555 830.76975 877.2104 825.63775 861.5625 824.96875 C 821.4507 819.69275 781.47315 813.39675 741.53125 806.96875 C 690.52596 799.02738 639.48987 791.08399 588.90625 780.75 C 610.18019 780.61005 630.84033 776.09736 630.90625 767.0625 C 630.89054 757.81988 630.87174 748.5863 630.875 739.34375 C 663.90886 738.12368 697.01286 738.15086 730.0625 738.75 C 775.7782 739.991 821.3436 744.24675 866.5625 750.96875 C 884.1975 753.78975 901.65165 757.47325 919.09375 761.28125 C 937.56515 765.09625 955.56525 678.03375 937.09375 674.21875 C 917.78425 670.44475 898.43625 666.72675 878.96875 663.84375 C 830.05185 657.12775 780.8213 652.7855 731.4375 651.6875 C 698.12352 651.21934 664.79929 651.27628 631.5 652.40625 C 631.62585 642.52939 631.78471 632.65772 631.9375 622.78125 C 650.76533 622.28215 669.59737 622.17186 688.4375 622.40625 C 714.4078 624.97525 742.6147 621.70275 767.625 630.71875 C 785.7944 635.86875 810.07565 550.2125 791.90625 545.0625 C 758.34585 536.4435 723.67355 535.35975 689.15625 534.71875 C 670.64389 534.64266 652.12602 534.8454 633.625 535.34375 C 633.85813 525.32308 634.08468 515.30132 634.34375 505.28125 C 638.36746 505.16387 642.38241 505.04244 646.40625 504.9375 C 661.81825 504.5805 677.24605 504.429 692.65625 504 C 701.89163 503.65719 705.82871 482.26309 705.25 460.5 C 720.45938 463.1487 733.37359 462.40588 735.375 455.71875 C 741.7332 433.29575 746.4641 410.4615 751.9375 387.8125 C 759.8936 352.8265 767.92635 317.79775 773.53125 282.34375 C 777.02455 251.26775 777.11655 220.92325 753.65625 197.03125 C 730.83615 178.90525 704.45685 169.98925 675.40625 167.28125 C 663.98594 166.25978 652.58619 165.62996 641.15625 165.3125 C 641.07047 128.67375 641.40969 91.973874 646.28125 55.71875 C 649.20311 42.429062 604.98216 28.785847 578.375 29.03125 z M 113.46875 810.90625 C 110.48789 811.14014 110.99521 810.96673 107.25 813.96875 C 109.38232 813.07501 111.46349 812.03285 113.46875 810.90625 z M 640.6875 253.46875 C 649.41878 253.79776 658.12848 254.37264 666.84375 255.3125 C 670.43315 255.9425 674.06 256.4315 677.625 257.1875 C 680.43323 257.7825 683.31376 258.51126 686.125 259.40625 C 685.79334 263.33889 685.65922 269.33175 685.3125 272.375 C 684.52121 277.63936 683.6242 282.88036 682.71875 288.125 C 668.59108 286.26613 654.40941 284.99502 640.1875 284.3125 C 640.38366 274.02974 640.53788 263.75228 640.6875 253.46875 z M 690.90625 261.15625 C 691.22745 261.29109 691.55844 261.42132 691.875 261.5625 C 693.4811 262.2795 697.4438 263.3315 696.1875 264.5625 C 695.747 264.9945 695.0229 264.194 694.4375 264 C 693.6336 264.4578 692.26707 262.96837 690.90625 261.15625 z M 638.125 372.28125 C 646.89687 372.77531 655.66205 373.5591 664.375 374.6875 C 660.98347 388.45294 657.95763 402.35377 654.21875 416.03125 C 650.68969 416.14522 647.15383 416.25413 643.625 416.375 C 641.37482 416.45773 639.12516 416.57141 636.875 416.65625 C 637.30125 401.86542 637.72114 387.07276 638.125 372.28125 z M 304.03125 381.03125 C 304.38436 381.13502 304.7411 381.23797 305.09375 381.34375 C 306.31995 381.90575 307.6066 382.31525 308.75 383.03125 C 310.0974 383.87325 305.513 382.32225 304.3125 381.28125 C 304.21779 381.19909 304.12629 381.1135 304.03125 381.03125 z M 243.65625 484.21875 C 243.34271 484.77971 242.99731 485.33313 242.65625 485.90625 C 242.04995 486.44425 241.64985 487.62125 240.84375 487.53125 C 240.71801 487.51736 241.19386 486.59034 243.65625 484.21875 z M 355.78125 558.84375 C 356.04857 559.05516 356.32847 559.25355 356.59375 559.46875 C 360.51357 565.4485 358.16659 562.23028 355.78125 558.84375 z M 419.15625 616.9375 C 423.46679 632.97827 430.1279 645.60829 437.40625 644.40625 C 472.12795 637.15225 507.3341 632.5995 542.5625 628.6875 C 543.55438 628.57743 544.53915 628.48184 545.53125 628.375 C 545.29223 638.31176 545.06534 648.25034 544.84375 658.1875 C 501.89931 663.10457 459.07933 669.17798 417.1875 680.125 C 406.53117 683.07422 410.18791 713.56635 418.71875 737.5 C 401.65871 732.6209 384.64003 727.62348 367.625 722.5625 C 358.61769 720.03863 349.58428 717.57533 340.5625 715.09375 C 356.8758 696.50947 372.84357 677.60563 388.4375 658.40625 C 399.06797 644.95168 409.82245 631.36959 419.15625 616.9375 z M 543.15625 746.1875 C 543.04665 752.93491 542.95328 759.68993 542.84375 766.4375 C 542.83203 768.04273 543.47711 769.50574 544.65625 770.84375 C 524.34234 765.97705 504.09005 760.85065 483.90625 755.5 C 503.49863 751.55413 523.31494 748.70172 543.15625 746.1875 z "
     id="path8831" />
</svg>
