<?xml version="1.0" encoding="UTF-8" standalone="no"?>
<svg
   xmlns:dc="http://purl.org/dc/elements/1.1/"
   xmlns:cc="http://creativecommons.org/ns#"
   xmlns:rdf="http://www.w3.org/1999/02/22-rdf-syntax-ns#"
   xmlns:svg="http://www.w3.org/2000/svg"
   xmlns="http://www.w3.org/2000/svg"
   xmlns:sodipodi="http://sodipodi.sourceforge.net/DTD/sodipodi-0.dtd"
   xmlns:inkscape="http://www.inkscape.org/namespaces/inkscape"
   width="1024"
   height="1024"
   id="U5E08"
   version="1.1"
   inkscape:version="0.48.0 r9654"
   sodipodi:docname="U+5E08.svg">
  <metadata
     id="metadata13">
    <rdf:RDF>
      <cc:Work
         rdf:about="">
        <dc:format>image/svg+xml</dc:format>
        <dc:type
           rdf:resource="http://purl.org/dc/dcmitype/StillImage" />
      </cc:Work>
    </rdf:RDF>
  </metadata>
  <defs
     id="defs11" />
  <sodipodi:namedview
     pagecolor="#ffffff"
     bordercolor="#666666"
     borderopacity="1"
     objecttolerance="10"
     gridtolerance="10"
     guidetolerance="10"
     inkscape:pageopacity="0"
     inkscape:pageshadow="2"
     inkscape:window-width="640"
     inkscape:window-height="480"
     id="namedview9"
     showgrid="false"
     inkscape:zoom="0.27441406"
     inkscape:cx="512"
     inkscape:cy="512"
     inkscape:window-x="0"
     inkscape:window-y="25"
     inkscape:window-maximized="0"
     inkscape:current-layer="U5E08" />
  <path
     style="fill:#a02c2c;fill-opacity:1;fill-rule:nonzero;stroke:#f9f9f9;stroke-width:0.1;stroke-miterlimit:4;stroke-dasharray:none"
     d="M 355.625 219.1875 C 332.43617 219.54107 279.62406 249.34705 286.65625 263.1875 C 303.64565 303.8025 307.4085 348.44075 311.0625 391.84375 C 316.3867 469.98175 305.1978 547.48575 290.4375 623.96875 C 276.7071 691.25075 257.05605 757.074 236.03125 822.375 C 227.61325 848.253 219.28095 874.15875 209.59375 899.59375 C 203.24155 917.03675 285.4603 946.97425 291.8125 929.53125 C 301.21 902.67025 309.61005 875.50575 318.09375 848.34375 C 339.43735 779.65475 359.6122 710.50025 373.75 639.90625 C 389.6971 555.88425 401.57365 470.78 396.21875 385 C 392.01825 330.211 386.8627 274.4095 365.4375 223.1875 C 363.97799 220.31478 360.43778 219.11412 355.625 219.1875 z M 743.15625 248 C 728.76315 248.827 714.37515 249.8345 700.03125 251.3125 C 652.29795 255.9945 604.6202 261.66075 557.625 271.46875 C 518.5991 279.93575 479.80265 289.52075 441.90625 302.21875 C 424.26605 308.64775 454.57845 391.804 472.21875 385.375 C 504.23292 373.0529 537.51761 364.63382 570.9375 357.15625 C 573.72955 389.1628 576.54936 421.16006 579.125 453.1875 C 579.6544 459.57354 580.15045 465.95479 580.625 472.34375 C 577.67025 473.34742 574.71972 474.34251 571.78125 475.40625 C 552.02821 483.01347 532.18438 491.12803 513.875 501.59375 C 499.67316 486.74743 431.04296 478.98189 428.71875 495.40625 C 424.15895 534.39725 423.16025 573.62875 423.40625 612.84375 C 423.97175 661.10175 431.35575 708.8165 441.21875 755.9375 C 442.51275 761.3545 443.831 766.7705 445.125 772.1875 C 449.6323 790.1975 534.5073 768.9465 530 750.9375 C 528.8141 746.4455 527.65465 741.96075 526.46875 737.46875 C 517.21585 696.38075 510.3959 654.70375 510 612.46875 C 509.97698 603.90561 510.04132 595.32011 510.1875 586.75 C 522.83225 594.01305 534.37204 597.43291 538.4375 592.125 C 551.37663 578.51206 568.43111 570.18549 585.78125 563.15625 C 587.60341 607.51528 588.55534 651.91738 589.21875 696.3125 C 589.63265 759.0635 590.9125 821.78275 596 884.34375 C 596.3871 908.70875 603.5742 932.60875 604.8125 956.84375 C 606.9539 975.51275 694.98515 965.419 692.84375 946.75 C 689.54385 923.365 684.27345 900.25325 682.40625 876.65625 C 676.49095 816.24325 674.8606 755.551 674.125 694.875 C 673.16381 642.72428 671.90756 590.57376 669.59375 538.46875 C 687.50288 535.08124 705.6249 532.69306 723.8125 531.0625 C 743.9619 531.8525 772.3479 526.3245 789.375 540.5625 C 794.9858 555.9625 795.685 572.884 796.375 589.125 C 796.2244 629.912 789.36965 670.269 779.59375 709.75 C 776.66685 721.215 772.9636 732.02225 765.9375 741.53125 C 756.3706 757.48925 831.6206 802.583 841.1875 786.625 C 851.2106 768.611 859.9779 750.52875 864.125 730.09375 C 875.277 682.53875 883.4354 634.0605 883.3125 585.0625 C 880.9889 538.3125 873.62305 492.28675 832.15625 463.84375 C 792.61305 443.79275 759.44145 441.346 715.53125 444.5 C 698.47063 446.21948 681.47024 448.47636 664.59375 451.375 C 664.4841 449.84565 664.39348 448.31047 664.28125 446.78125 C 661.86912 412.22802 659.0662 377.6992 656.90625 343.125 C 673.91418 341.14006 690.9731 339.52639 708.03125 338.0625 C 720.94785 336.8615 733.9116 336.2405 746.875 335.9375 C 765.5282 335.1515 761.80935 247.214 743.15625 248 z M 176.6875 373.46875 C 168.07446 373.28161 161.78028 375.04775 160.40625 379.53125 C 149.00635 425.97725 142.75775 473.494 136.71875 520.875 C 131.48155 565.758 126.6539 611.21575 136.4375 655.71875 C 141.1312 673.78075 226.28735 651.65575 221.59375 633.59375 C 210.39905 606.31575 221.4571 560.33725 222.1875 531.78125 C 227.6276 489.35525 233.1673 446.6585 244.9375 405.4375 C 249.05958 391.98625 202.52662 374.03017 176.6875 373.46875 z "
     id="path12149" />
</svg>
