<?xml version="1.0" encoding="utf-8" ?>

<!DOCTYPE svg PUBLIC "-//W3C//DTD SVG 1.1//EN" 
  "http://www.w3.org/Graphics/SVG/1.1/DTD/svg11.dtd">
<svg 
    xmlns="http://www.w3.org/2000/svg"
    xmlns:xlink="http://www.w3.org/1999/xlink"
    xmlns:sodipodi="http://sodipodi.sourceforge.net/DTD/sodipodi-0.dtd"
    xmlns:inkscape="http://www.inkscape.org/namespaces/inkscape"
    width="1024" height="1024" id="U5FD7">
<path d="m 11499.637,64785.998 c 36.479,-4.773 73.249,-5.964 109.991,-6.456 57.719,0.816 115.382,-0.06 173.036,-2.809 48.353,-2.642 96.614,-6.67 145.003,-8.632 20.062,-0.776 40.155,-0.514 60.116,1.668 18.611,2.433 7.142,90.164 -11.468,87.731 l 0,0 c -15.063,-2.709 -30.556,-2.08 -45.781,-2.221 -48.004,1.182 -95.882,4.874 -143.83,7.334 -58.487,2.713 -116.986,3.805 -175.538,3.517 -32.86,0.741 -65.85,1.834 -98.314,7.42 -18.572,2.803 -31.788,-84.749 -13.215,-87.552 z" id="path14961" inkscape:connector-curvature="0" style="fill:#2b1100;fill-opacity:1;fill-rule:nonzero;stroke:none" transform="translate(-11264, -64512)"/><path d="m 11783.05,64664.437 c -5.86,36.86 -9.562,74.032 -13.603,111.125 -5.991,53.218 -10.594,106.577 -13.167,160.069 -1.107,22.364 -0.777,44.737 1.132,67.036 1.258,18.568 -86.276,24.496 -87.533,5.927 l 0,0 c -1.393,-25.8 -1.521,-51.637 0.03,-77.445 3.051,-54.98 7.754,-109.842 13.539,-164.602 3.884,-38.555 7.615,-77.131 12.181,-115.613 2.864,-18.544 90.28,-5.04 87.416,13.503 z" id="path14963" inkscape:connector-curvature="0" style="fill:#2b1100;fill-opacity:1;fill-rule:nonzero;stroke:none" transform="translate(-11264, -64512)"/><path d="m 11547.504,64992.889 c 37.234,-7.644 74.932,-12.52 112.644,-17.065 54.394,-5.989 108.835,-11.571 163.365,-16.171 39.576,-3.854 79.186,-3.573 118.313,3.58 11.888,1.761 22.284,6.328 32.947,11.551 16.196,9.567 -28.906,85.916 -45.102,76.349 l 0,0 c 1.496,0.491 2.925,1.283 4.488,1.473 3.256,0.397 -19.834,-6.771 -9.327,-3.139 -31.03,-6.803 -62.74,-6.222 -94.293,-3.651 -53.327,4.195 -106.554,9.586 -159.675,15.874 -34.406,4.447 -68.91,8.946 -102.641,17.264 -18.257,4.395 -38.976,-81.669 -20.719,-86.065 z" id="path14965" inkscape:connector-curvature="0" style="fill:#2b1100;fill-opacity:1;fill-rule:nonzero;stroke:none" transform="translate(-11264, -64512)"/><path d="m 11538.401,65210.024 c -10.825,28.455 -23.093,56.322 -35.645,84.048 -12.877,27.267 -25.011,54.841 -34.184,83.586 -2.42,7.983 -4.351,16.09 -6.132,24.233 -4.262,18.233 -90.217,-1.857 -85.955,-20.091 l 0,0 c 2.593,-10.602 5.336,-21.165 8.693,-31.558 10.603,-31.518 23.84,-61.962 38.036,-92.023 11.481,-25.59 22.895,-51.292 31.783,-77.923 6.307,-17.693 89.71,12.035 83.404,29.728 z" id="path14967" inkscape:connector-curvature="0" style="fill:#2b1100;fill-opacity:1;fill-rule:nonzero;stroke:none" transform="translate(-11264, -64512)"/><path d="m 11634.124,65238.786 c -1.078,24.537 -3.552,48.97 -4.455,73.517 0.387,17.804 -1.355,37.254 6.668,53.732 0.573,0.416 1.039,1.051 1.719,1.249 0.715,0.207 3.145,-1.705 4.517,-1.646 21.641,0.933 -14.456,0.214 16.074,0.641 35.811,-1.364 71.431,-5.871 107.126,-8.974 38.502,-3.01 76.79,-8.004 115.037,-13.251 32.08,-4.732 64.287,-8.485 96.464,-12.471 22.006,-2.761 43.756,-7.16 65.518,-11.369 12.825,-2.973 26.444,-4.501 38.307,-10.568 -0.324,-0.01 -0.648,-0.03 -0.972,-0.04 15.823,-10.102 63.443,64.489 47.62,74.59 l 0,0 c -3.644,2.105 -7.288,4.21 -10.933,6.315 -18.497,7.782 -37.804,12.88 -57.595,16.222 -23.738,4.424 -47.459,9.082 -71.456,11.898 -31.768,3.724 -63.57,7.176 -95.227,11.789 -39.637,5.328 -79.312,10.422 -119.194,13.579 -39.346,3.451 -78.588,8.803 -118.098,9.757 -45.026,-2.288 -79.815,-12.691 -100.998,-55.996 -10.253,-28.658 -13.762,-58.293 -12.231,-88.734 0.89,-23.434 3.136,-46.792 3.564,-70.236 0,-18.783 88.545,-18.783 88.545,0 z" id="path14969" inkscape:connector-curvature="0" style="fill:#2b1100;fill-opacity:1;fill-rule:nonzero;stroke:none" transform="translate(-11264, -64512)"/><path d="m 11813.566,65181.151 c 19.609,19.025 39.714,37.533 59.706,56.153 8.509,8.14 17.388,15.841 26.535,23.244 14.377,11.881 -41.631,79.654 -56.008,67.773 l 0,0 c -10.372,-8.705 -20.574,-17.588 -30.317,-27.003 -19.915,-18.653 -39.85,-37.293 -60.232,-55.438 -13.731,-12.795 46.585,-77.524 60.316,-64.729 z" id="path14971" inkscape:connector-curvature="0" style="fill:#2b1100;fill-opacity:1;fill-rule:nonzero;stroke:none" transform="translate(-11264, -64512)"/><path d="m 12137.238,65114.983 c 18.389,24.135 31.728,51.3 43.231,79.223 6.372,15.406 10.243,31.559 13.93,47.751 4.009,18.166 -81.626,37.061 -85.634,18.895 l 0,0 c -2.389,-11.369 -4.945,-22.697 -9.364,-33.498 -8.312,-20.533 -17.812,-40.748 -31.96,-58.002 -11.534,-14.807 58.264,-69.175 69.797,-54.369 z" id="path14973" inkscape:connector-curvature="0" style="fill:#2b1100;fill-opacity:1;fill-rule:nonzero;stroke:none" transform="translate(-11264, -64512)"/></svg>