<?xml version="1.0" encoding="utf-8" ?>

<!DOCTYPE svg PUBLIC "-//W3C//DTD SVG 1.1//EN" 
  "http://www.w3.org/Graphics/SVG/1.1/DTD/svg11.dtd">
<svg 
    xmlns="http://www.w3.org/2000/svg"
    xmlns:xlink="http://www.w3.org/1999/xlink"
    xmlns:sodipodi="http://sodipodi.sourceforge.net/DTD/sodipodi-0.dtd"
    xmlns:inkscape="http://www.inkscape.org/namespaces/inkscape"
    width="1024" height="1024" id="U5FF5">
<path d="m 11736.37,35051.046 c -29.291,30.418 -56.052,63.167 -82.53,96.026 -28.228,34.955 -53.531,72.097 -78.74,109.242 -7.246,11.501 -15.891,22.167 -22.531,34.051 -9.951,15.966 -85.216,-30.943 -75.265,-46.909 l 0,0 c 8.263,-12.576 17.327,-24.595 25.958,-36.917 27.098,-38.304 53.918,-76.847 83.324,-113.445 28.084,-35.125 56.517,-69.998 86.422,-103.6 13.057,-13.441 76.42,48.111 63.362,61.552 z" id="path10455" inkscape:connector-curvature="0" style="fill:#c83737;fill-opacity:1;fill-rule:nonzero;stroke:#f9f9f9;stroke-width:0.1;stroke-miterlimit:4;stroke-dasharray:none" transform="translate(-11264, -34816)"/><path d="m 11747.434,34971.051 c 15.033,21.036 34.965,37.876 54.572,54.466 31.805,25.609 64.163,50.506 95.749,76.39 25.343,20.623 48.656,43.505 71.771,66.543 8.609,8.626 17.634,16.821 25.964,25.719 12.592,13.971 -53.271,73.329 -65.863,59.358 l 0,0 c -6.682,-8.481 -15.635,-15.079 -22.634,-23.288 -20.664,-21.243 -41.555,-42.31 -64.511,-61.122 -31.76,-26.217 -64.455,-51.236 -96.624,-76.942 -25.425,-21.332 -50.629,-43.316 -70.686,-69.973 -10.85,-15.329 61.411,-66.48 72.262,-51.151 z" id="path10457" inkscape:connector-curvature="0" style="fill:#c83737;fill-opacity:1;fill-rule:nonzero;stroke:#f9f9f9;stroke-width:0.1;stroke-miterlimit:4;stroke-dasharray:none" transform="translate(-11264, -34816)"/><path d="m 11720.868,35187.725 c 7.028,20 20.68,36.318 35.145,51.39 8.225,8.102 17.202,15.346 26.231,22.512 14.487,11.719 -40.758,80.009 -55.245,68.29 l 0,0 c -11.951,-9.813 -23.855,-19.705 -34.685,-30.78 -22.791,-24.486 -43.384,-51.048 -55.167,-82.751 -6.079,-17.76 77.641,-46.421 83.721,-28.661 z" id="path10459" inkscape:connector-curvature="0" style="fill:#c83737;fill-opacity:1;fill-rule:nonzero;stroke:#f9f9f9;stroke-width:0.1;stroke-miterlimit:4;stroke-dasharray:none" transform="translate(-11264, -34816)"/><path d="m 11554.953,35317.373 c 30.675,-14.842 63.551,-24.141 96.309,-33.08 45.044,-11.751 90.548,-21.609 136.255,-30.39 32.827,-5.714 65.74,-11.664 99.088,-12.988 27.12,0.183 55.521,10.229 65.441,38.402 2.439,6.927 1.853,14.57 2.78,21.856 -3.977,27.217 -22.016,48.241 -37.304,70.088 -23.173,33.576 -45.556,67.688 -67.099,102.331 -14.045,22.769 -27.361,45.993 -39.601,69.782 -3.229,6.477 -1.824,3.545 -4.265,8.771 -8.412,16.817 -87.688,-22.839 -79.275,-39.655 l 0,0 c 3.474,-6.625 1.604,-3.11 5.628,-10.535 13.817,-25.263 28.549,-50.016 43.825,-74.422 22.363,-35.601 45.354,-70.801 68.6,-105.832 4.963,-7.371 9.95,-14.748 14.87,-22.151 2.922,-4.397 9.182,-18.023 5.998,-2.295 3.043,13.829 1.477,15.822 12.11,26.432 3.639,3.632 19.12,7.555 14.27,5.849 -1.221,-0.43 -2.56,-0.386 -3.84,-0.579 -28.606,-0.06 -56.879,6.109 -85.058,10.259 -43.403,8.106 -86.575,17.467 -129.23,28.913 -26.73,7.505 -53.85,14.905 -78.603,27.77 -16.658,8.676 -57.557,-69.85 -40.899,-78.526 z" id="path10475" inkscape:connector-curvature="0" style="fill:#c83737;fill-opacity:1;fill-rule:nonzero;stroke:#f9f9f9;stroke-width:0.1;stroke-miterlimit:4;stroke-dasharray:none" transform="translate(-11264, -34816)"/><path d="m 11562.823,35539.67 c -7.176,27.57 -14.728,55.032 -22.766,82.364 -7.388,25.257 -15.659,50.239 -25.364,74.7 -7.222,19.121 -18.35,36.102 -30.882,52.091 -1.304,1.609 -2.609,3.217 -3.913,4.826 -12.036,14.424 -80.035,-42.318 -67.998,-56.743 l 0,0 c 0.936,-1.076 1.872,-2.152 2.808,-3.228 7.495,-9.13 14.117,-18.777 18.292,-29.941 8.952,-21.69 16.474,-43.919 23.135,-66.417 7.697,-26.105 15.033,-52.33 20.813,-78.938 4.516,-18.216 90.391,3.069 85.875,21.286 z" id="path10477" inkscape:connector-curvature="0" style="fill:#c83737;fill-opacity:1;fill-rule:nonzero;stroke:#f9f9f9;stroke-width:0.1;stroke-miterlimit:4;stroke-dasharray:none" transform="translate(-11264, -34816)"/><path d="m 11628.383,35565.275 c -1.928,25.269 -3.396,50.581 -3.191,75.929 0.713,13.733 1.511,29.323 12.635,38.933 12.507,7.955 27.401,10.623 41.78,13.005 31.327,3.546 62.756,-0.883 93.698,-5.637 37.415,-6.008 73.83,-16.656 110.216,-26.994 28.876,-8.325 57.627,-17.095 86.754,-24.512 10.369,-2.927 24.644,-5.128 33.477,-7.712 18.08,-5.293 43.032,79.938 24.951,85.231 l 0,0 c -12.323,3.221 -24.982,4.865 -37.363,7.866 -28.303,6.723 -56.163,15.123 -84.157,23.004 -39.846,11.161 -79.724,22.611 -120.656,29.153 -40.272,6.191 -81.151,11.404 -121.848,5.907 -35.126,-6.236 -69.188,-16.111 -94.434,-42.983 -21.74,-27.939 -33.094,-58.987 -32.679,-94.777 -0.09,-27.151 1.39,-54.238 2.507,-81.359 1.049,-18.733 89.359,-13.788 88.31,4.946 z" id="path10479" inkscape:connector-curvature="0" style="fill:#c83737;fill-opacity:1;fill-rule:nonzero;stroke:#f9f9f9;stroke-width:0.1;stroke-miterlimit:4;stroke-dasharray:none" transform="translate(-11264, -34816)"/><path d="m 11705.673,35536.068 c 21.393,15.326 44.271,28.139 68.185,39.029 17.166,6.787 8.537,3.664 25.883,9.386 17.585,5.9 -10.227,88.797 -27.812,82.898 l 0,0 c -23.291,-7.91 -11.809,-3.654 -34.452,-12.754 -27.478,-12.615 -53.843,-27.192 -79.102,-43.843 -15.85,-10.033 31.448,-84.75 47.298,-74.716 z" id="path10485" inkscape:connector-curvature="0" style="fill:#c83737;fill-opacity:1;fill-rule:nonzero;stroke:#f9f9f9;stroke-width:0.1;stroke-miterlimit:4;stroke-dasharray:none" transform="translate(-11264, -34816)"/><path d="m 12126.159,35478.2 c 13.019,23.904 28.972,46.01 44.321,68.433 2.997,4.546 5.995,9.092 8.992,13.638 10.186,15.516 -62.958,63.536 -73.145,48.02 l 0,0 c -2.671,-4.087 -5.341,-8.174 -8.011,-12.261 -16.833,-24.591 -34.079,-48.925 -49.316,-74.563 -9.179,-16.368 67.98,-59.635 77.159,-43.267 z" id="path10487" inkscape:connector-curvature="0" style="fill:#c83737;fill-opacity:1;fill-rule:nonzero;stroke:#f9f9f9;stroke-width:0.1;stroke-miterlimit:4;stroke-dasharray:none" transform="translate(-11264, -34816)"/><path d="m 11715.27,35419.583 c 15.87,18.721 38.159,30.406 59.157,42.381 22.245,12.321 44.746,24.169 67.188,36.123 16.301,8.746 -24.925,85.593 -41.226,76.847 l 0,0 c -22.98,-12.416 -46.049,-24.665 -68.962,-37.203 -31.381,-17.734 -63.096,-36.164 -86.403,-64.342 -11.414,-14.902 58.832,-68.707 70.246,-53.806 z" id="path10489" inkscape:connector-curvature="0" style="fill:#c83737;fill-opacity:1;fill-rule:nonzero;stroke:#f9f9f9;stroke-width:0.1;stroke-miterlimit:4;stroke-dasharray:none" transform="translate(-11264, -34816)"/><path d="m 11790.848,35394.768 c 50.189,46.454 97.931,95.527 146.425,143.743 12.472,12.278 -45.408,71.068 -57.879,58.79 l 0,0 c -47.218,-46.028 -93.415,-93.604 -144.7,-135.147 -14.295,-11.913 41.86,-79.298 56.154,-67.386 z" id="path10013" inkscape:connector-curvature="0" style="fill:#c83737;fill-opacity:1;fill-rule:nonzero;stroke:#f9f9f9;stroke-width:0.1;stroke-miterlimit:4;stroke-dasharray:none" transform="translate(-11264, -34816)"/></svg>