<?xml version="1.0" encoding="UTF-8" standalone="no"?>
<svg
   xmlns:dc="http://purl.org/dc/elements/1.1/"
   xmlns:cc="http://creativecommons.org/ns#"
   xmlns:rdf="http://www.w3.org/1999/02/22-rdf-syntax-ns#"
   xmlns:svg="http://www.w3.org/2000/svg"
   xmlns="http://www.w3.org/2000/svg"
   xmlns:sodipodi="http://sodipodi.sourceforge.net/DTD/sodipodi-0.dtd"
   xmlns:inkscape="http://www.inkscape.org/namespaces/inkscape"
   width="1024"
   height="1024"
   id="U5F80"
   version="1.1"
   inkscape:version="0.48.0 r9654"
   sodipodi:docname="U+5F80.svg">
  <metadata
     id="metadata15">
    <rdf:RDF>
      <cc:Work
         rdf:about="">
        <dc:format>image/svg+xml</dc:format>
        <dc:type
           rdf:resource="http://purl.org/dc/dcmitype/StillImage" />
      </cc:Work>
    </rdf:RDF>
  </metadata>
  <defs
     id="defs13" />
  <sodipodi:namedview
     pagecolor="#ffffff"
     bordercolor="#666666"
     borderopacity="1"
     objecttolerance="10"
     gridtolerance="10"
     guidetolerance="10"
     inkscape:pageopacity="0"
     inkscape:pageshadow="2"
     inkscape:window-width="640"
     inkscape:window-height="480"
     id="namedview11"
     showgrid="false"
     inkscape:zoom="0.27441406"
     inkscape:cx="512"
     inkscape:cy="512"
     inkscape:window-x="0"
     inkscape:window-y="25"
     inkscape:window-maximized="0"
     inkscape:current-layer="U5F80" />
  <path
     style="fill:#501616;fill-opacity:1;fill-rule:nonzero;stroke:#f9f9f9;stroke-width:0.1;stroke-miterlimit:4;stroke-dasharray:none"
     d="M 329.3125 175.25 C 328.0986 175.28313 326.97483 175.62794 326 176.28125 C 293.1832 201.51925 267.5503 234.5645 241.5625 266.4375 C 206.5761 309.6335 173.7488 354.4755 143.25 400.9375 C 129.0612 423.6715 135.66755 412.588 123.28125 434.125 C 114.23175 450.313 190.54425 492.96925 199.59375 476.78125 C 209.41565 458.57225 204.0137 468.1995 216.0625 448.0625 C 244.1608 403.9525 275.03445 361.72775 308.28125 321.34375 C 329.10385 296.29775 349.46115 269.9735 375.28125 249.8125 C 389.90362 240.01281 347.52093 174.75308 329.3125 175.25 z M 575.90625 212.3125 C 556.52174 212.07521 506.07863 264.26797 518.03125 276.34375 C 543.87405 301.43675 570.3033 325.92225 596.25 350.90625 C 611.5792 365.18525 625.39535 380.69625 637.46875 397.78125 C 648.40465 412.78025 719.1235 361.249 708.1875 346.25 C 692.6658 325.397 675.71515 305.8155 656.53125 288.1875 C 631.08155 263.7365 605.09765 239.81325 580.84375 214.15625 C 579.60727 212.90703 577.91154 212.33705 575.90625 212.3125 z M 381.9375 330.46875 C 379.92918 330.47059 378.25236 331.04431 377 332.28125 C 347.6899 366.24425 325.47605 405.63225 301.96875 443.65625 C 264.91405 502.68925 226.00595 560.47275 191.34375 620.96875 C 172.71545 654.10075 157.93695 688.8305 152.71875 726.5625 C 150.82915 745.1275 238.32905 754.03375 240.21875 735.46875 C 239.69415 709.77175 256.466 685.883 266.0625 663.25 C 275.61437 646.14169 285.59218 629.31511 295.8125 612.625 C 293.78293 632.09472 292.23645 651.62265 291.0625 671.1875 C 288.2583 734.9305 292.07015 798.679 298.03125 862.125 C 302.32835 897.301 300.02415 880.30075 304.90625 913.21875 C 306.44239 923.06721 332.29632 923.63785 355.21875 919.21875 C 353.89927 945.72557 362.59308 984.98412 375.125 983.53125 C 426.4927 974.01025 476.67435 959.13325 527.34375 946.53125 C 594.54205 929.48225 663.07625 919.54375 732.15625 914.84375 C 780.03035 912.31575 827.9878 913.836 875.5625 919.625 C 886.4565 920.911 897.16075 923.232 907.71875 926.125 C 925.85185 930.604 946.9455 845.13525 928.8125 840.65625 C 914.4078 837.33625 899.9286 834.40875 885.1875 832.96875 C 832.3137 827.57375 779.11295 826.1745 726.03125 829.4375 C 695.99592 831.6783 666.0714 834.81005 636.28125 838.90625 C 636.69278 828.15999 637.12663 817.39842 637.65625 806.65625 C 638.76277 782.26319 639.78152 757.86587 640.78125 733.46875 C 673.27318 727.01797 705.66544 719.95172 738.125 713.34375 C 757.8088 709.53075 777.55205 705.66625 797.59375 704.40625 C 816.25735 702.69925 808.19485 614.7305 789.53125 616.4375 C 766.22495 619.0075 743.19865 623.3935 720.28125 628.3125 C 694.94536 633.77742 669.6505 639.46104 644.28125 644.78125 C 644.57781 636.94637 644.89428 629.11631 645.1875 621.28125 C 646.621 583.88125 647.0642 546.19375 652.25 509.09375 C 652.79636 506.3164 651.28518 503.56799 648.3125 500.96875 C 657.12806 499.57381 665.96883 498.23631 674.8125 497 C 692.8392 494.766 710.91375 492.613 729.09375 493.375 C 747.74095 493.608 748.8348 405.733 730.1875 405.5 C 707.4399 405.603 684.84535 407.556 662.34375 411 C 613.18375 418.363 564.4213 427.89925 515.8125 438.28125 C 481.298 445.22725 446.78015 452.69425 411.78125 456.78125 C 393.15975 459.24025 404.7534 547.0215 423.375 544.5625 C 460.2296 538.6685 496.70325 530.7225 533.21875 523.0625 C 543.1207 520.87386 553.04308 518.77937 562.96875 516.71875 C 560.23266 550.51844 559.95413 584.53117 559 618.40625 C 558.60978 632.52478 558.15689 646.63472 557.6875 660.75 C 522.57774 666.42895 487.37307 671.96277 451.90625 674.65625 C 433.17415 675.68925 438.04905 764.00175 456.78125 762.96875 C 489.40618 759.29396 521.8563 754.23333 554.25 748.875 C 553.45219 766.75593 552.60496 784.6239 551.6875 802.5 C 550.72696 819.62843 549.85502 836.77165 549.03125 853.90625 C 534.98529 856.83985 520.98593 860.0184 507.03125 863.46875 C 467.81426 872.90308 428.80261 883.78466 389.1875 891.46875 C 386.46322 875.08685 387.45019 881.17824 383.78125 853.75 C 377.80025 794.933 374.11385 735.78825 377.09375 676.65625 C 379.73605 637.37825 383.7537 598.1585 392.4375 559.6875 C 394.38751 549.42882 368.34171 539.78505 344.25 536.40625 C 354.4412 520.71315 364.66856 505.03136 374.78125 489.28125 C 395.12925 457.27825 414.3767 424.07 439.1875 395.25 C 451.29364 383.29294 401.35128 330.45096 381.9375 330.46875 z "
     id="path12742" />
</svg>
