<?xml version="1.0" encoding="UTF-8" standalone="no"?>
<svg
   xmlns:dc="http://purl.org/dc/elements/1.1/"
   xmlns:cc="http://creativecommons.org/ns#"
   xmlns:rdf="http://www.w3.org/1999/02/22-rdf-syntax-ns#"
   xmlns:svg="http://www.w3.org/2000/svg"
   xmlns="http://www.w3.org/2000/svg"
   xmlns:sodipodi="http://sodipodi.sourceforge.net/DTD/sodipodi-0.dtd"
   xmlns:inkscape="http://www.inkscape.org/namespaces/inkscape"
   width="1024"
   height="1024"
   id="U5F00"
   version="1.1"
   inkscape:version="0.48.0 r9654"
   sodipodi:docname="U+5F00.svg">
  <metadata
     id="metadata11">
    <rdf:RDF>
      <cc:Work
         rdf:about="">
        <dc:format>image/svg+xml</dc:format>
        <dc:type
           rdf:resource="http://purl.org/dc/dcmitype/StillImage" />
      </cc:Work>
    </rdf:RDF>
  </metadata>
  <defs
     id="defs9" />
  <sodipodi:namedview
     pagecolor="#ffffff"
     bordercolor="#666666"
     borderopacity="1"
     objecttolerance="10"
     gridtolerance="10"
     guidetolerance="10"
     inkscape:pageopacity="0"
     inkscape:pageshadow="2"
     inkscape:window-width="640"
     inkscape:window-height="480"
     id="namedview7"
     showgrid="false"
     inkscape:zoom="0.27441406"
     inkscape:cx="512"
     inkscape:cy="512"
     inkscape:window-x="0"
     inkscape:window-y="25"
     inkscape:window-maximized="0"
     inkscape:current-layer="U5F00" />
  <path
     style="fill:#2b0000;fill-opacity:1;fill-rule:nonzero;stroke:#f9f9f9;stroke-width:0.1;stroke-miterlimit:4;stroke-dasharray:none"
     d="M 590.53125 303.78125 C 530.95765 303.80425 471.42065 306.09 412.09375 311.75 C 366.56855 316.035 321.1673 321.3825 275.625 325.4375 C 256.932 327.0435 264.4946 415.1685 283.1875 413.5625 C 314.24333 409.3995 345.33717 405.52035 376.46875 402.03125 C 371.01848 419.78358 366.40797 437.82095 361.96875 455.8125 C 353.02654 496.11369 346.61275 536.86712 341.78125 577.8125 C 325.20639 580.8113 308.65898 583.8536 292.09375 586.90625 C 243.18925 595.95025 194.39355 605.654 145.34375 613.875 C 126.84215 616.893 141.0609 704.11175 159.5625 701.09375 C 208.9908 690.71675 258.45845 680.57025 308.03125 670.90625 C 316.53026 669.2663 325.02682 667.67316 333.53125 666.0625 C 333.20038 670.57997 332.87186 675.10694 332.5625 679.625 C 330.2862 730.629 328.17545 782.2265 336.40625 832.8125 C 339.83115 851.1255 426.14355 834.96925 422.71875 816.65625 C 412.85025 773.82725 417.42645 728.74725 417.78125 685.28125 C 418.52806 673.57219 419.37716 661.85654 420.3125 650.15625 C 460.46398 643.05432 500.69496 636.29096 540.96875 629.90625 C 555.00249 627.53963 569.062 625.47727 583.15625 623.65625 C 584.6877 653.15413 586.399 682.64009 588.125 712.125 C 591.3053 762.947 594.6258 813.777 597.375 864.625 C 598.5822 883.12 685.7697 877.4325 684.5625 858.9375 C 680.6929 808.2895 676.9599 757.6165 673.5 706.9375 C 671.58382 676.58608 669.74593 646.21718 668.15625 615.84375 C 686.99181 614.8186 705.86536 614.27001 724.75 614.125 C 757.4665 613.893 789.93715 617.9175 822.46875 620.6875 C 841.12835 621.9505 847.0971 533.98175 828.4375 532.71875 C 793.5021 531.05975 758.6688 526.8395 723.625 527.6875 C 703.91441 528.04423 684.21892 528.79983 664.5625 530 C 664.18606 516.8893 663.89651 503.77344 663.71875 490.65625 C 663.67376 458.37374 663.42292 425.8606 666.28125 393.65625 C 678.26873 394.55834 690.25404 395.57817 702.21875 396.75 C 720.75325 398.379 728.44075 311.004 709.90625 309.375 C 670.19355 306.258 630.38255 303.88125 590.53125 303.78125 z M 579.25 390.1875 C 577.26022 423.78621 577.64223 457.55317 578 491.1875 C 578.3432 506.82391 578.7921 522.43359 579.34375 538.0625 C 562.02019 540.28961 544.73718 542.85889 527.5 545.84375 C 494.88911 551.11685 462.33024 556.61503 429.78125 562.25 C 433.81445 533.56923 438.87347 505.02481 445.375 476.75 C 452.60492 448.49847 459.8473 419.65004 472.375 393.21875 C 507.95245 391.0389 543.59604 390.14316 579.25 390.1875 z "
     id="path9897" />
</svg>
