<?xml version="1.0" encoding="UTF-8" standalone="no"?>
<svg
   xmlns:dc="http://purl.org/dc/elements/1.1/"
   xmlns:cc="http://creativecommons.org/ns#"
   xmlns:rdf="http://www.w3.org/1999/02/22-rdf-syntax-ns#"
   xmlns:svg="http://www.w3.org/2000/svg"
   xmlns="http://www.w3.org/2000/svg"
   xmlns:sodipodi="http://sodipodi.sourceforge.net/DTD/sodipodi-0.dtd"
   xmlns:inkscape="http://www.inkscape.org/namespaces/inkscape"
   width="1024"
   height="1024"
   id="U5F97"
   version="1.1"
   inkscape:version="0.48.0 r9654"
   sodipodi:docname="U+5F97.svg">
  <metadata
     id="metadata18">
    <rdf:RDF>
      <cc:Work
         rdf:about="">
        <dc:format>image/svg+xml</dc:format>
        <dc:type
           rdf:resource="http://purl.org/dc/dcmitype/StillImage" />
      </cc:Work>
    </rdf:RDF>
  </metadata>
  <defs
     id="defs16" />
  <sodipodi:namedview
     pagecolor="#ffffff"
     bordercolor="#666666"
     borderopacity="1"
     objecttolerance="10"
     gridtolerance="10"
     guidetolerance="10"
     inkscape:pageopacity="0"
     inkscape:pageshadow="2"
     inkscape:window-width="640"
     inkscape:window-height="480"
     id="namedview14"
     showgrid="false"
     inkscape:zoom="0.27441406"
     inkscape:cx="512"
     inkscape:cy="512"
     inkscape:window-x="0"
     inkscape:window-y="25"
     inkscape:window-maximized="0"
     inkscape:current-layer="U5F97" />
  <path
     style="fill:#800000;fill-opacity:1;fill-rule:nonzero;stroke:#f9f9f9;stroke-width:0.1;stroke-miterlimit:4;stroke-dasharray:none"
     d="M 758.65625 130.8125 C 753.6867 130.86516 748.75731 131.02591 743.90625 131.21875 C 702.33115 133.37955 660.83305 137.51805 619.96875 145.71875 C 580.84865 153.99855 541.77115 163.4361 504.78125 178.9375 C 500.33347 181.04906 499.71779 188.15654 501.5 197.3125 C 478.28128 194.44313 452.69124 196.72222 451.78125 206.65625 C 448.67025 244.06635 449.4287 281.5101 452.5 318.875 C 455.5818 351.9542 462.9197 384.25495 473.9375 415.53125 C 476.42005 422.27403 490.33029 421.80335 506 417.71875 C 501.69505 443.12023 509.62065 490.57486 523.3125 489.3125 C 560.7657 485.2114 598.09125 479.96065 635.40625 474.78125 C 665.20555 470.52175 695.06465 466.83975 724.96875 463.40625 C 743.25425 461.11345 732.44185 374.8947 714.15625 377.1875 C 683.98715 381.2857 653.8369 385.3837 623.6875 389.625 C 598.17589 393.10584 572.64288 396.68881 547.03125 399.375 C 553.39631 394.5809 556.96829 389.68897 555.4375 385.53125 C 546.1269 361.88175 540.9926 336.97675 538.3125 311.71875 C 536.7845 293.78076 535.93355 275.78742 536.15625 257.8125 C 538.41638 258.84326 540.52054 259.00541 542.375 258.125 C 572.6666 244.2376 605.2972 236.59855 637.75 229.71875 C 674.0142 222.49965 710.87795 219.1614 747.78125 217.8125 C 751.77792 218.25835 756.08107 217.84804 760.40625 217.625 C 760.52451 221.01452 760.79362 224.42106 760.8125 227.8125 C 760.9048 244.6429 759.4609 261.39705 758.125 278.15625 C 754.5817 315.34405 750.6321 352.48825 746.3125 389.59375 C 745.2467 399.74555 743.91685 409.82655 741.40625 419.71875 C 737.47225 437.80835 822.7535 456.3396 826.6875 438.25 C 829.2664 425.2944 831.37845 412.3155 832.40625 399.125 C 836.39165 361.1662 840.26535 323.1687 844.03125 285.1875 C 847.43985 244.7729 853.10465 202.47165 834.40625 164.84375 C 829.40935 159.01955 825.26195 152.3351 819.40625 147.375 C 802.21732 132.81508 780.19095 130.58432 758.65625 130.8125 z M 310.3125 164.90625 C 309.11147 164.92364 308.03494 165.20992 307.0625 165.84375 C 271.0872 192.98345 243.0159 228.75305 215.5 264.03125 C 184.3992 304.06025 158.40265 347.55 135.53125 392.6875 C 127.71155 407.9612 121.4588 423.8969 115.625 440 C 109.5859 457.4295 191.7733 485.89825 197.8125 468.46875 C 201.9343 455.72195 206.69955 443.216 212.65625 431.1875 C 232.43685 390.9097 255.2757 352.2572 282.9375 316.8125 C 304.6646 289.1339 326.56625 260.59045 354.84375 239.21875 C 369.43041 229.71137 328.32796 164.64535 310.3125 164.90625 z M 767.03125 217.5625 C 769.58837 217.69924 772.10028 218.10025 774.46875 218.96875 C 776.51725 219.71995 769.93695 219.03545 767.96875 218.09375 C 767.64211 217.93746 767.34257 217.74541 767.03125 217.5625 z M 652.875 270.3125 C 651.06456 270.31239 649.24952 270.33824 647.4375 270.375 C 614.4785 270.9662 581.48485 272.78845 548.90625 278.09375 C 530.71185 281.81525 548.27435 367.5966 566.46875 363.875 C 593.54415 358.5537 621.19395 357.27035 648.71875 356.96875 C 660.03555 356.82765 671.30145 357.71105 682.53125 358.96875 C 700.92685 360.72745 709.2081 274.0087 690.8125 272.25 C 678.18721 271.18626 665.54807 270.3133 652.875 270.3125 z M 351.875 311.84375 C 347.75574 311.76843 344.66878 312.83172 343.21875 315.34375 C 322.67425 354.44785 305.09805 395.02205 287.40625 435.46875 C 264.35365 488.84245 242.4113 542.6741 220.75 596.625 C 209.3403 624.949 198.35825 653.4311 186.78125 681.6875 C 180.05895 698.8866 261.12135 730.5741 267.84375 713.375 C 270.1537 707.17073 272.45876 700.98096 274.78125 694.78125 C 274.90425 742.72425 276.67902 790.6586 279.21875 838.53125 C 280.74745 874.16855 285.2564 909.42215 292.625 944.28125 C 296.6451 962.11925 380.73885 943.1505 376.71875 925.3125 C 369.38835 895.3374 365.84215 864.7609 364.28125 833.9375 C 361.15465 776.6379 359.3737 719.23265 360.5625 661.84375 C 361.8052 626.39995 363.2344 590.51055 372.875 556.15625 C 375.23806 547.85186 358.30946 538.22154 339 532.09375 C 347.6381 511.29267 356.45162 490.56435 365.5 469.9375 C 382.1973 432.4777 398.64195 394.73165 419.03125 359.09375 C 426.8615 345.52878 374.11899 312.25046 351.875 311.84375 z M 777.71875 482.0625 C 752.26055 482.4519 765.48255 481.90385 738.03125 483.90625 C 681.67635 489.93365 625.73775 498.9378 569.96875 509 C 530.25225 516.0717 490.26495 522.4103 451.28125 532.9375 C 433.65435 538.8696 461.6232 621.96335 479.25 616.03125 C 513.9385 605.68905 549.8433 599.76645 585.375 593.09375 C 609.54947 588.53143 633.76747 584.24517 658.0625 580.46875 C 656.94244 602.64669 657.43098 624.92181 658.125 647.15625 C 611.20487 653.23455 564.34728 659.79723 517.53125 666.65625 C 475.69765 672.56875 433.88655 679.1749 391.78125 682.8125 C 373.25965 684.2595 380.07225 771.572 398.59375 770.125 C 442.45675 764.6009 486.13055 757.55335 529.84375 750.96875 C 573.17803 744.23469 616.55511 737.98422 660.03125 732.28125 C 660.27783 774.75613 659.36527 817.24046 657.65625 859.6875 C 655.72105 890.6822 655.2894 921.8998 650.4375 952.625 C 647.9727 970.9058 734.1601 982.5308 736.625 964.25 C 740.6123 930.5936 741.449 896.68165 742.9375 862.84375 C 744.53549 815.91398 745.35699 768.95256 745.09375 722 C 787.12809 717.61086 829.34625 714.0974 871.625 715.5 C 874.5126 715.7607 877.39355 716.02045 880.28125 716.28125 C 898.73465 717.39685 903.98465 630.4281 885.53125 629.3125 C 881.33095 629.1447 877.1378 628.94895 872.9375 628.78125 C 829.73168 628.76117 786.65853 632.17483 743.71875 636.78125 C 743.42047 615.2291 743.68902 593.67313 746.1875 572.3125 C 746.3731 571.32879 746.27541 570.34193 745.96875 569.375 C 746.18741 569.35451 746.40633 569.33287 746.625 569.3125 C 769.0782 568.172 758.72255 568.2119 777.59375 568.6875 C 795.97465 568.7126 796.09965 482.0875 777.71875 482.0625 z M 514.5 779.75 C 496.86747 779.50013 472.36165 857.92196 489.5 863.40625 C 520.9485 873.50335 551.8186 885.33715 582.9375 896.40625 L 600.71875 902.65625 C 618.00455 908.70815 646.5359 827.2394 629.25 821.1875 C 623.4546 819.1725 617.6704 817.1399 611.875 815.125 C 579.8661 803.7335 548.1041 791.67155 516.1875 780.03125 C 515.63465 779.85434 515.06879 779.75806 514.5 779.75 z "
     id="path21851" />
</svg>
