<?xml version="1.0" encoding="UTF-8" standalone="no"?>
<svg
   xmlns:dc="http://purl.org/dc/elements/1.1/"
   xmlns:cc="http://creativecommons.org/ns#"
   xmlns:rdf="http://www.w3.org/1999/02/22-rdf-syntax-ns#"
   xmlns:svg="http://www.w3.org/2000/svg"
   xmlns="http://www.w3.org/2000/svg"
   xmlns:sodipodi="http://sodipodi.sourceforge.net/DTD/sodipodi-0.dtd"
   xmlns:inkscape="http://www.inkscape.org/namespaces/inkscape"
   width="1024"
   height="1024"
   id="U5FFD"
   version="1.1"
   inkscape:version="0.48.0 r9654"
   sodipodi:docname="U+5FFD.svg">
  <metadata
     id="metadata15">
    <rdf:RDF>
      <cc:Work
         rdf:about="">
        <dc:format>image/svg+xml</dc:format>
        <dc:type
           rdf:resource="http://purl.org/dc/dcmitype/StillImage" />
      </cc:Work>
    </rdf:RDF>
  </metadata>
  <defs
     id="defs13" />
  <sodipodi:namedview
     pagecolor="#ffffff"
     bordercolor="#666666"
     borderopacity="1"
     objecttolerance="10"
     gridtolerance="10"
     guidetolerance="10"
     inkscape:pageopacity="0"
     inkscape:pageshadow="2"
     inkscape:window-width="640"
     inkscape:window-height="480"
     id="namedview11"
     showgrid="false"
     inkscape:zoom="0.27441406"
     inkscape:cx="512"
     inkscape:cy="512"
     inkscape:window-x="0"
     inkscape:window-y="25"
     inkscape:window-maximized="0"
     inkscape:current-layer="U5FFD" />
  <path
     style="fill:#550000;fill-opacity:1;fill-rule:nonzero;stroke:#f9f9f9;stroke-width:0.1;stroke-miterlimit:4;stroke-dasharray:none"
     d="M 308.65625 176.03125 C 296.69335 175.84047 287.52325 178.05656 286.375 183.75 C 280.1412 216.799 270.0046 248.941 259.625 280.875 C 247.0295 319.235 232.09895 356.76075 217.71875 394.46875 C 216.25045 398.59675 214.7808 402.71575 213.3125 406.84375 C 207.3765 424.32175 289.7515 452.2915 295.6875 434.8125 C 296.7805 431.3985 297.87565 428.00875 298.96875 424.59375 C 309.78715 394.5011 321.26846 364.63631 331.96875 334.5 C 338.25974 342.09276 344.51201 346.40601 349.09375 344.15625 C 365.58991 336.37017 382.95879 331.07611 400.65625 326.96875 C 389.2755 345.8596 379.36264 365.64448 369.5625 385.375 C 354.8526 415.771 341.12195 446.61575 327.40625 477.46875 C 325.91365 481.26275 324.39885 485.081 322.90625 488.875 C 316.39445 506.191 398.01945 536.8785 404.53125 519.5625 C 405.39715 517.0835 406.29035 514.603 407.15625 512.125 C 419.75265 482.417 432.7372 452.88375 446.8125 423.84375 C 459.1983 399.00775 471.59105 373.76225 488.90625 351.90625 C 494.63009 345.31317 483.07508 329.12192 467.9375 315.28125 C 509.67046 310.00676 551.7159 307.66929 593.78125 307.25 C 623.81061 308.07926 654.45791 308.10828 683.8125 315.1875 C 683.8049 315.24765 683.79405 315.32015 683.78125 315.375 C 681.10985 343.313 673.82015 370.54675 666.65625 397.59375 C 659.97345 421.59175 653.9524 445.8415 644.1875 468.8125 C 637.2783 485.9165 717.9033 518.51025 724.8125 501.40625 C 735.1875 474.82725 742.72005 447.34325 750.03125 419.78125 C 759.42235 384.67525 769.2413 349.241 770.9375 312.75 C 768.0404 268.588 752.4967 245.2885 709.375 231.9375 C 671.077 223.2585 631.78535 221.4475 592.59375 221.5625 C 537.43725 222.4895 482.3373 226.14625 427.75 234.40625 C 404.98264 238.20662 382.17187 242.37534 359.875 248.34375 C 364.419 232.7034 368.64412 216.98344 372.28125 201.09375 C 374.8074 188.56819 334.97462 176.45096 308.65625 176.03125 z M 688.59375 311.875 C 690.03306 311.86361 694.57241 319.73247 693.28125 319.59375 C 691.94034 319.44914 690.20825 317.94642 688.59375 316.40625 C 688.68649 316.43125 688.78229 316.4436 688.875 316.46875 C 687.95278 313.09262 688.03054 311.87946 688.59375 311.875 z M 538.78125 325.6875 C 533.31976 325.72412 529.36974 327.13731 528 330.34375 C 516.7481 356.79475 504.51035 382.8305 492.21875 408.8125 C 481.53195 431.4985 469.3563 453.4035 456.75 475.0625 C 447.5636 490.8715 522.09495 534.15375 531.28125 518.34375 C 545.03585 494.63575 558.41715 470.72575 570.21875 445.96875 C 583.16965 418.97675 595.8617 391.86225 608.625 364.78125 C 614.56047 350.8875 562.44769 325.52879 538.78125 325.6875 z M 886.28125 571.4375 C 864.00028 571.72388 811.01276 604.74591 818.78125 618.375 C 828.25085 634.084 838.7559 649.09025 849.375 664.03125 C 860.1458 679.07925 931.0834 628.32925 920.3125 613.28125 C 911.3512 600.85425 902.29855 588.42275 894.90625 574.96875 C 893.46764 572.445 890.40735 571.38447 886.28125 571.4375 z M 218.34375 601.78125 C 214.22355 601.83379 211.18409 602.975 209.8125 605.53125 C 195.4362 634.15825 179.8576 662.157 163.8125 689.875 C 147.6572 717.087 130.96055 743.97425 114.34375 770.90625 C 112.91095 773.19825 111.46405 775.49025 110.03125 777.78125 C 100.52835 793.70725 175.6221 838.4885 185.125 822.5625 C 186.4089 820.3015 187.68495 818.04225 188.96875 815.78125 C 205.19645 788.08325 222.06805 760.7815 238.46875 733.1875 C 246.31546 719.69473 253.99436 706.1121 261.625 692.5 C 261.87479 708.03417 263.66348 723.52199 266.96875 739.03125 C 280.19465 783.55025 314.36805 810.06725 353.46875 831.28125 C 400.81975 854.62825 452.7687 859.80825 504.75 860.65625 C 561.1916 860.10525 616.68045 849.51975 671.34375 836.34375 C 709.55865 826.61975 747.0303 814.25875 783.8125 800.09375 C 797.3499 793.37575 818.7268 788.26175 826.6875 773.71875 C 831.8772 764.23675 833.8484 753.32 837.4375 743.125 C 837.88518 725.95018 763.35697 722.65276 751.21875 736.8125 C 753.97511 729.89556 756.38769 722.8072 760.15625 716.40625 C 760.3659 716.05009 760.59526 715.72201 760.8125 715.40625 C 758.66856 716.52605 755.76376 717.84948 751.875 719.3125 C 719.0075 732.6915 685.37425 744.135 651.03125 753.125 C 603.49295 764.893 555.19465 774.378 506.03125 775 C 467.78685 774.481 429.2662 771.6495 394.125 755.0625 C 377.5145 746.4515 359.68485 737.065 351.53125 719.25 C 346.09775 700.27 348.3404 680.6615 351.6875 661.4375 C 353.44745 648.78762 313.0237 639.11915 286.71875 640.28125 C 280.02704 624.96036 237.50818 601.53687 218.34375 601.78125 z M 760.8125 715.40625 C 770.02413 710.59496 764.95081 709.39108 760.8125 715.40625 z M 553.84375 620.125 C 530.17247 620.30981 478.42479 646.40869 484.5625 660.21875 C 496.6298 684.62875 515.57085 703.824 535.71875 721.625 C 549.59545 733.719 606.6267 668.31275 592.75 656.21875 C 581.9796 647.03875 571.3623 637.30475 564.6875 624.59375 C 563.27111 621.407 559.30635 620.08235 553.84375 620.125 z "
     id="path24783" />
</svg>
