<?xml version="1.0" encoding="UTF-8" standalone="no"?>
<svg
   xmlns:dc="http://purl.org/dc/elements/1.1/"
   xmlns:cc="http://creativecommons.org/ns#"
   xmlns:rdf="http://www.w3.org/1999/02/22-rdf-syntax-ns#"
   xmlns:svg="http://www.w3.org/2000/svg"
   xmlns="http://www.w3.org/2000/svg"
   xmlns:sodipodi="http://sodipodi.sourceforge.net/DTD/sodipodi-0.dtd"
   xmlns:inkscape="http://www.inkscape.org/namespaces/inkscape"
   width="1024"
   height="1024"
   id="U5F53"
   version="1.1"
   inkscape:version="0.48.0 r9654"
   sodipodi:docname="U+5F53.svg">
  <metadata
     id="metadata13">
    <rdf:RDF>
      <cc:Work
         rdf:about="">
        <dc:format>image/svg+xml</dc:format>
        <dc:type
           rdf:resource="http://purl.org/dc/dcmitype/StillImage" />
      </cc:Work>
    </rdf:RDF>
  </metadata>
  <defs
     id="defs11" />
  <sodipodi:namedview
     pagecolor="#ffffff"
     bordercolor="#666666"
     borderopacity="1"
     objecttolerance="10"
     gridtolerance="10"
     guidetolerance="10"
     inkscape:pageopacity="0"
     inkscape:pageshadow="2"
     inkscape:window-width="640"
     inkscape:window-height="480"
     id="namedview9"
     showgrid="false"
     inkscape:zoom="0.27441406"
     inkscape:cx="512"
     inkscape:cy="512"
     inkscape:window-x="0"
     inkscape:window-y="25"
     inkscape:window-maximized="0"
     inkscape:current-layer="U5F53" />
  <path
     style="fill:#800000;fill-opacity:1;fill-rule:nonzero;stroke:#f9f9f9;stroke-width:0.1;stroke-miterlimit:4;stroke-dasharray:none"
     d="M 443.71875 134.3125 C 435.18091 134.37989 428.97958 136.2993 427.75 140.78125 C 420.0826 177.46165 415.33335 214.7006 410.78125 251.875 C 405.87257 292.48593 404.44999 333.36815 402.34375 374.1875 C 394.64511 369.54452 396.88161 370.81987 380.125 359.21875 C 356.1186 340.67655 332.403 321.1585 314.4375 296.4375 C 303.7504 281.2346 232.09405 331.6097 242.78125 346.8125 C 266.64255 378.0276 296.6278 403.4439 327.5625 427.3125 C 346.73522 440.63919 345.62761 440.13798 353.21875 444.78125 C 332.99246 449.10515 312.90434 454.11707 293.03125 460.03125 C 252.16775 472.77075 211.33125 486.4734 173.78125 507.375 C 157.91065 517.056 203.53565 591.8686 219.40625 582.1875 C 250.27635 563.7626 284.64995 552.4192 318.71875 541.5625 C 374.71495 524.6571 432.61135 515.8563 490.59375 509.3125 C 537.34295 504.3836 584.41065 503.5556 631.28125 506.875 C 642.17085 508.3678 653.4828 508.9276 663.9375 512.6875 C 671.0211 515.235 666.60285 515.15375 663.46875 513.84375 C 662.61205 513.28515 661.92875 512.1635 660.90625 512.1875 C 660.29525 512.2021 660.365 513.3266 660.375 513.9375 C 660.4154 516.6475 660.8318 519.33085 661.0625 522.03125 C 661.1309 526.13195 661.289 530.24265 661.25 534.34375 C 661.1207 547.92275 660.42025 557.58665 659.65625 571.40625 C 655.73315 623.99895 655.1793 676.7291 654.625 729.4375 C 653.3356 766.7946 655.76295 804.806 648.96875 841.75 C 646.08085 859.948 731.8622 873.54175 734.75 855.34375 C 740.6828 813.91965 739.74925 772.0071 740.15625 730.25 C 740.57595 679.0117 741.12365 627.74395 745.53125 576.65625 C 748.25615 535.42285 753.31735 492.0816 728.96875 456 C 724.16335 451.3558 719.8691 446.15575 714.5625 442.09375 C 692.5278 425.22655 662.9512 423.5151 636.5625 420.6875 C 584.6587 417.9132 532.6355 419.09235 480.9375 424.78125 C 452.39871 428.0843 423.88748 431.86854 395.5625 436.6875 C 406.40816 422.34458 416.1704 403.09733 417.3125 391.21875 C 441.9479 398.46368 487.83789 396.98938 488.46875 383.65625 C 490.14745 343.22615 491.10075 302.7078 496.03125 262.5 C 500.22505 229.4959 504.5332 196.36205 512.25 163.96875 C 515.93865 150.5229 469.33226 134.11033 443.71875 134.3125 z M 697.4375 172.1875 C 696.23671 172.16325 695.11873 172.43158 694.125 173.03125 C 662.7482 192.26335 635.6966 217.05055 609.9375 243.09375 C 574.2352 281.42085 540.63125 321.6683 506.78125 361.625 C 495.06425 375.4604 560.283 430.67915 572 416.84375 C 604.3725 378.60565 636.69975 340.2563 671.03125 303.75 C 691.84665 282.8791 713.51545 262.58765 739.34375 247.96875 C 754.24972 238.97381 715.44929 172.55131 697.4375 172.1875 z M 590.96875 651.71875 C 541.13779 651.76579 491.81778 658.94334 442.8125 667.96875 C 404.6192 674.54725 366.2475 682.02885 327.375 682.59375 C 308.7987 682.59375 308.7987 770.15625 327.375 770.15625 C 371.236 768.17395 414.46845 759.85405 457.59375 752.15625 C 504.07775 743.84365 550.9518 735.80825 598.3125 738.03125 C 616.6012 738.58865 619.25745 652.3698 600.96875 651.8125 C 597.6421 651.75061 594.29081 651.71561 590.96875 651.71875 z M 629.53125 877.15625 C 611.66052 877.07705 593.73856 877.67406 575.84375 878.9375 C 509.72405 883.4105 443.8692 890.71625 377.8125 895.96875 C 337.0247 898.62275 296.17105 901.135 255.28125 901.125 C 236.70065 901.125 236.70065 988.71875 255.28125 988.71875 C 298.14065 987.01465 340.94505 984.2153 383.71875 981.0625 C 449.65455 975.3886 515.41835 967.87045 581.46875 963.59375 C 631.04115 960.54045 680.7991 962.18315 729.375 972.84375 C 747.2755 976.52695 764.6505 892.1207 746.75 888.4375 C 708.03124 880.87466 668.84687 877.33049 629.53125 877.15625 z "
     id="path21713" />
</svg>
