<?xml version="1.0" encoding="utf-8" ?>

<!DOCTYPE svg PUBLIC "-//W3C//DTD SVG 1.1//EN" 
  "http://www.w3.org/Graphics/SVG/1.1/DTD/svg11.dtd">
<svg 
    xmlns="http://www.w3.org/2000/svg"
    xmlns:xlink="http://www.w3.org/1999/xlink"
    xmlns:sodipodi="http://sodipodi.sourceforge.net/DTD/sodipodi-0.dtd"
    xmlns:inkscape="http://www.inkscape.org/namespaces/inkscape"
    width="1024" height="1024" id="U5FC5">
<path d="m 8468.5243,2497.3663 c -19.4119,34.1081 -38.7597,68.2522 -58.2861,102.2954 -22.1542,38.6986 -45.3238,77.047 -61.5555,118.6993 -0.8465,3.3711 -1.6929,6.7423 -2.5394,10.1134 -5.1968,17.6506 -88.4023,-6.8473 -83.2055,-24.4979 l 0,0 c 1.9203,-6.026 3.8407,-12.052 5.761,-18.0781 18.7142,-44.7434 42.7484,-86.8278 67.1143,-128.7014 18.9111,-33.3219 37.8049,-66.6749 55.2443,-100.7987 8.6907,-16.4332 86.1575,24.5348 77.4669,40.968 z" id="path20085" inkscape:connector-curvature="0" style="fill:#aa0000;fill-opacity:1;fill-rule:nonzero;stroke:#f9f9f9;stroke-width:0.1;stroke-miterlimit:4;stroke-dasharray:none" transform="translate(-8192, -2048)"/><path d="m 8583.8946,2435.212 c -8.2683,37.0227 -9.9329,74.9225 -10.1424,112.712 0.643,49.5781 6.8905,98.7647 22.408,145.8944 15.6819,39.8206 42.3061,56.9198 80.5942,71.963 51.6653,16.542 106.1932,19.5595 160.0239,21.4484 46.8408,1.4842 93.4955,-2.5866 139.7041,-9.9175 18.8352,-4.1667 38.623,-5.9087 56.6882,-13.0628 0.3735,-0.2673 0.747,-0.5346 1.1205,-0.8018 16.8565,-7.852 53.871,71.61 37.0145,79.462 l 0,0 c -3.0356,1.3208 -6.0712,2.6415 -9.1068,3.9623 -23.6538,7.8823 -48.3276,11.7037 -72.8732,15.7483 -51.5473,7.3924 -103.512,11.5212 -155.6366,9.7355 -63.8551,-2.3874 -128.425,-6.5669 -189.3561,-27.4566 -9.9671,-4.1952 -20.2413,-7.7249 -29.9013,-12.5857 -47.3593,-23.8303 -81.422,-62.9472 -99.8647,-112.4693 -17.3992,-55.8932 -25.8734,-113.6269 -26.3508,-172.2387 0.092,-43.2617 2.0837,-86.4876 9.7064,-129.1686 3.5585,-18.2374 89.5306,-1.4624 85.9721,16.7751 z" id="path20087" inkscape:connector-curvature="0" style="fill:#aa0000;fill-opacity:1;fill-rule:nonzero;stroke:#f9f9f9;stroke-width:0.1;stroke-miterlimit:4;stroke-dasharray:none" transform="translate(-8192, -2048)"/><path d="m 8939.5817,2449.5428 c -24.4999,44.0633 -49.6649,87.7095 -75.873,130.7819 -41.8447,68.0885 -88.0391,133.3339 -134.9053,198.0179 -36.5572,49.9328 -73.4082,99.6509 -110.4925,149.1935 -10.7533,12.3257 -19.1249,28.1047 -32.5541,38.0318 -5.5671,4.1154 -11.9208,7.0432 -17.8813,10.5648 -17.1074,7.2711 -51.3836,-73.3741 -34.2762,-80.6451 l 0,0 c -22.3969,19.1416 19.1221,-16.2476 16.3561,-20.0542 37.5486,-48.366 74.3643,-97.2974 110.6927,-146.586 45.5873,-62.6266 90.4301,-125.8876 130.5499,-192.2076 25.4117,-42.6197 49.9128,-85.7524 72.1814,-130.1145 9.1254,-16.1649 85.3277,26.8525 76.2023,43.0175 z" id="path20089" inkscape:connector-curvature="0" style="fill:#aa0000;fill-opacity:1;fill-rule:nonzero;stroke:#f9f9f9;stroke-width:0.1;stroke-miterlimit:4;stroke-dasharray:none" transform="translate(-8192, -2048)"/><path d="m 8655.9159,2450.7329 c 26.9519,18.0914 53.0071,37.4828 79.2139,56.6274 4.9635,3.6126 9.927,7.2252 14.8904,10.8378 14.8124,10.7779 -35.9952,80.6043 -50.8076,69.8264 l 0,0 c -4.9783,-3.6213 -9.9566,-7.2426 -14.9349,-10.8639 -24.1822,-17.5693 -48.1717,-35.5263 -73.5284,-51.3816 -15.9197,-9.5813 29.2469,-84.6274 45.1666,-75.0461 z" id="path20091" inkscape:connector-curvature="0" style="fill:#aa0000;fill-opacity:1;fill-rule:nonzero;stroke:#f9f9f9;stroke-width:0.1;stroke-miterlimit:4;stroke-dasharray:none" transform="translate(-8192, -2048)"/><path d="m 9005.7733,2577.5915 c 24.6412,8.6954 48.5595,18.911 71.6635,31.106 17.8414,10.6114 9.0788,5.0709 26.2893,16.6192 15.2574,10.3436 -33.503,82.2676 -48.7604,71.924 l 0,0 c -11.91,-8.1945 -5.806,-4.2369 -18.3208,-11.8591 -19.8571,-10.6762 -40.6652,-19.1411 -62.1839,-25.8962 -17.3724,-6.6424 13.94,-88.5363 31.3123,-81.8939 z" id="path20093" inkscape:connector-curvature="0" style="fill:#aa0000;fill-opacity:1;fill-rule:nonzero;stroke:#f9f9f9;stroke-width:0.1;stroke-miterlimit:4;stroke-dasharray:none" transform="translate(-8192, -2048)"/></svg>