<?xml version="1.0" encoding="UTF-8" standalone="no"?>
<svg
   xmlns:dc="http://purl.org/dc/elements/1.1/"
   xmlns:cc="http://creativecommons.org/ns#"
   xmlns:rdf="http://www.w3.org/1999/02/22-rdf-syntax-ns#"
   xmlns:svg="http://www.w3.org/2000/svg"
   xmlns="http://www.w3.org/2000/svg"
   xmlns:sodipodi="http://sodipodi.sourceforge.net/DTD/sodipodi-0.dtd"
   xmlns:inkscape="http://www.inkscape.org/namespaces/inkscape"
   width="1024"
   height="1024"
   id="U5F88"
   version="1.1"
   inkscape:version="0.48.0 r9654"
   sodipodi:docname="U+5F88.svg">
  <metadata
     id="metadata16">
    <rdf:RDF>
      <cc:Work
         rdf:about="">
        <dc:format>image/svg+xml</dc:format>
        <dc:type
           rdf:resource="http://purl.org/dc/dcmitype/StillImage" />
      </cc:Work>
    </rdf:RDF>
  </metadata>
  <defs
     id="defs14" />
  <sodipodi:namedview
     pagecolor="#ffffff"
     bordercolor="#666666"
     borderopacity="1"
     objecttolerance="10"
     gridtolerance="10"
     guidetolerance="10"
     inkscape:pageopacity="0"
     inkscape:pageshadow="2"
     inkscape:window-width="640"
     inkscape:window-height="480"
     id="namedview12"
     showgrid="false"
     inkscape:zoom="0.27441406"
     inkscape:cx="512"
     inkscape:cy="512"
     inkscape:window-x="0"
     inkscape:window-y="25"
     inkscape:window-maximized="0"
     inkscape:current-layer="U5F88" />
  <path
     style="fill:#550000;fill-opacity:1;fill-rule:nonzero;stroke:#f9f9f9;stroke-width:0.1;stroke-miterlimit:4;stroke-dasharray:none"
     d="M 352.3125 135.125 C 351.11081 135.17599 350.01816 135.52588 349.0625 136.1875 C 318.3048 159.3255 291.4105 186.915 265.25 215 C 227.3201 257.599 192.09805 302.5235 156.65625 347.1875 C 142.85285 364.2865 129.57075 381.76925 116.46875 399.40625 C 105.68025 414.21825 175.49275 465.09225 186.28125 450.28125 C 198.39785 433.27925 210.75435 416.448 223.78125 400.125 C 257.44315 357.169 291.21125 314.19825 327.78125 273.65625 C 349.91825 250.23625 372.55335 226.928 398.96875 208.25 C 413.30369 198.32562 370.33786 134.36012 352.3125 135.125 z M 681.125 166.15625 C 676.88113 166.16967 672.62859 166.25538 668.375 166.40625 C 620.9032 168.23725 573.72325 173.837 527.46875 185 C 490.36925 193.875 453.4549 203.6575 417.4375 216.3125 C 406.69956 220.55536 415.07169 253.62765 427.09375 276.40625 C 423.41003 294.87389 419.54942 313.31042 415.71875 331.75 C 400.8694 310.27669 373.2683 286.22472 364.40625 294.28125 C 336.95965 321.00225 311.8248 349.95425 286.5 378.65625 C 247.5844 423.00025 209.5663 468.10625 172.6875 514.15625 C 145.19 549.49825 118.9735 585.86225 94.5625 623.40625 C 87.0195 634.45225 81.5841 646.4725 76.625 658.8125 C 70.2226 676.2245 152.2851 706.412 158.6875 689 C 160.33 682.103 164.17905 676.07875 167.65625 669.96875 C 182.65048 645.88025 198.68317 622.45112 215.375 599.5 C 215.26921 604.92351 215.16194 610.33134 215.0625 615.75 C 213.6709 674.138 215.46415 732.50575 219.96875 790.71875 C 222.01905 816.84975 226.1273 842.66325 232.625 868.03125 C 237.5464 885.81425 321.3589 862.5955 316.4375 844.8125 C 310.2465 824.9605 307.4847 804.36475 305.3125 783.71875 C 300.4877 728.51575 298.7557 673.12375 300.5625 617.71875 C 301.5394 582.10475 301.98575 546.1455 308.84375 511.0625 C 309.69149 506.31492 304.50238 501.75772 296.3125 497.9375 C 314.07525 476.92238 332.12049 456.14043 350.46875 435.625 C 369.00304 415.02531 387.33298 394.13974 407.03125 374.625 C 393.73063 441.89839 384.5516 509.88373 377.4375 578.0625 C 371.0138 636.9775 370.1963 696.16675 376.25 755.09375 C 380.6186 792.70975 388.1265 823.662 411.3125 854 C 444.5235 884.756 477.565 878.2705 516 863.6875 C 545.4193 850.6045 574.91985 837.769 604.84375 825.875 C 611.80849 823.11287 610.6134 808.05976 605.59375 791.6875 C 612.27301 789.29701 618.91298 786.81379 625.5 784.1875 C 646.9884 795.3388 668.92622 805.63682 691.03125 815.53125 C 749.35605 841.20225 810.8827 857.95375 872.25 874.46875 C 902.3848 882.46275 932.2218 891.56525 961.125 903.28125 C 978.3095 909.93825 1009.6845 828.93925 992.5 822.28125 C 960.3277 810.28025 927.4584 800.46175 894.1875 791.96875 C 837.1518 777.02375 779.95395 761.75725 725.84375 737.90625 C 724.43469 737.27322 723.03261 736.63684 721.625 736 C 750.06153 719.88416 777.93895 702.79353 805.3125 684.84375 C 832.8562 667.75775 860.4402 649.936 890.875 638.375 C 908.3804 632.123 878.91165 549.623 861.40625 555.875 C 825.41525 570.485 792.51825 591.484 759.78125 612.125 C 717.71909 640.02651 674.37171 665.71484 629.34375 688.5 C 615.52879 680.11285 602.06266 671.13689 589.0625 661.40625 C 564.2488 642.09625 540.03115 621.6445 521.53125 595.9375 C 513.64803 585.25999 475.4599 608.75907 458.3125 628.5 C 459.0499 614.57356 460.15108 600.6504 461.59375 586.75 C 462.3234 579.62018 463.05921 572.49873 463.84375 565.375 C 499.24624 557.41826 534.97939 551.01131 570.75 544.96875 C 616.6599 537.22675 662.8427 531.2965 709.125 526.3125 C 730.9299 524.1425 720.4468 525.22275 740.5 523.09375 C 750.58575 521.90465 752.00036 495.14724 748.1875 471.75 C 772.49649 480.58143 807.64768 484.25099 810.28125 472.8125 C 813.74955 456.5955 812.1868 464.88375 814.9375 447.96875 C 819.8962 413.81575 825.03085 379.71375 831.71875 345.84375 C 837.82165 310.26375 845.6864 273.63425 836.4375 237.90625 C 822.1407 203.81025 804.54675 187.60875 769.09375 176.84375 C 740.27099 169.401 710.83206 166.06228 681.125 166.15625 z M 676.0625 252.5 C 699.78684 252.40809 723.50287 254.22938 746.34375 260.90625 C 747.84385 260.70825 761.8888 267.09575 754.375 267.71875 C 753.6294 289.17175 750.02785 310.32975 746.53125 331.46875 C 739.96705 365.83775 734.62495 400.41475 729.15625 434.96875 C 728.96988 435.98869 728.92737 436.28025 728.78125 437.09375 C 713.35437 439.11158 720.16217 438.26653 699.40625 440.6875 C 651.73475 446.3685 604.11035 452.63775 556.71875 460.34375 C 529.68493 464.73312 502.71268 469.39386 475.75 474.1875 C 478.00974 459.45106 480.4477 444.73731 483.09375 430.0625 C 487.85387 434.60902 492.37926 436.76419 495.90625 435.03125 C 523.84105 422.32225 553.91925 415.41425 583.71875 408.65625 C 619.73075 400.58725 656.2547 395.21525 693.125 393.65625 C 697.0387 393.69425 700.9613 393.74125 704.875 393.78125 C 723.2939 393.70225 722.9189 306.8575 704.5 306.9375 C 699.2159 307.0165 693.94035 307.1075 688.65625 307.1875 C 646.97035 309.6755 605.62115 315.56725 564.84375 324.65625 C 543.63929 329.39049 522.39179 334.33443 501.5625 340.5625 C 506.30881 319.20459 511.16842 297.85801 516.0625 276.53125 C 526.54936 273.73805 537.09102 271.09772 547.625 268.53125 C 588.2001 258.59325 629.65625 253.7685 671.34375 252.5625 C 672.92526 252.54037 674.48088 252.50613 676.0625 252.5 z M 457.34375 655.71875 C 480.36742 683.63249 507.80666 707.2108 536.375 729.3125 C 538.6296 730.99291 540.90881 732.67131 543.1875 734.3125 C 543.14816 740.63451 544.25463 748.38721 546.15625 756.375 C 525.64786 764.8063 505.26194 773.51371 484.96875 782.46875 C 480.04733 784.37411 474.53118 786.36089 471.25 787.65625 C 466.40504 773.53773 462.14398 748.82355 461.78125 745.625 C 458.18036 715.73717 456.83847 685.72707 457.34375 655.71875 z M 472.96875 792.09375 C 475.4476 793.2814 477.91418 794.672 477.75 797.375 C 476.20954 797.91245 474.58447 795.7644 472.96875 792.09375 z "
     id="path24705" />
</svg>
