<?xml version="1.0" encoding="UTF-8" standalone="no"?>
<svg
   xmlns:dc="http://purl.org/dc/elements/1.1/"
   xmlns:cc="http://creativecommons.org/ns#"
   xmlns:rdf="http://www.w3.org/1999/02/22-rdf-syntax-ns#"
   xmlns:svg="http://www.w3.org/2000/svg"
   xmlns="http://www.w3.org/2000/svg"
   xmlns:sodipodi="http://sodipodi.sourceforge.net/DTD/sodipodi-0.dtd"
   xmlns:inkscape="http://www.inkscape.org/namespaces/inkscape"
   width="1024"
   height="1024"
   id="U5F55"
   version="1.1"
   inkscape:version="0.48.0 r9654"
   sodipodi:docname="U+5F55.svg">
  <metadata
     id="metadata14">
    <rdf:RDF>
      <cc:Work
         rdf:about="">
        <dc:format>image/svg+xml</dc:format>
        <dc:type
           rdf:resource="http://purl.org/dc/dcmitype/StillImage" />
      </cc:Work>
    </rdf:RDF>
  </metadata>
  <defs
     id="defs12" />
  <sodipodi:namedview
     pagecolor="#ffffff"
     bordercolor="#666666"
     borderopacity="1"
     objecttolerance="10"
     gridtolerance="10"
     guidetolerance="10"
     inkscape:pageopacity="0"
     inkscape:pageshadow="2"
     inkscape:window-width="640"
     inkscape:window-height="480"
     id="namedview10"
     showgrid="false"
     inkscape:zoom="0.27441406"
     inkscape:cx="512"
     inkscape:cy="512"
     inkscape:window-x="0"
     inkscape:window-y="25"
     inkscape:window-maximized="0"
     inkscape:current-layer="U5F55" />
  <path
     style="fill:#2b0000;fill-opacity:1;fill-rule:nonzero;stroke:#f9f9f9;stroke-width:0.1;stroke-miterlimit:4;stroke-dasharray:none"
     d="M 651.09375 176.90625 C 643.78481 176.89487 636.43785 177.27825 629 177.84375 C 599.1349 178.81275 569.28475 178.78125 539.40625 178.78125 C 493.67235 179.12025 447.9037 180.26475 402.375 184.96875 C 366.7253 188.61475 331.21595 193.26825 295.84375 199.03125 C 277.32085 202.04325 291.50835 289.35575 310.03125 286.34375 C 343.54385 279.49775 377.4508 274.9795 411.4375 271.3125 C 454.0541 266.6955 496.9276 265.895 539.75 265.875 C 566.19505 266.12508 592.61915 266.19335 619.0625 265.90625 C 615.65417 285.34878 612.43584 304.81309 609.8125 324.375 C 606.85416 323.69566 603.81401 323.15191 600.6875 322.75 C 563.7585 318.371 527.1241 322.46125 490.625 329.03125 C 455.2685 334.80925 419.99035 341.00625 384.71875 347.28125 C 366.36165 351.20425 384.8303 437.7355 403.1875 433.8125 C 436.7639 426.3175 470.70935 420.42 504.65625 414.875 C 532.37755 411.121 560.7435 404.79275 588.6875 409.84375 C 590.1282 409.40911 596.1217 412.32826 597.9375 413.40625 C 599.08125 413.49481 600.33285 413.34661 601.6875 413 C 601.54394 415.58721 601.41311 418.16208 601.28125 420.75 C 603.30072 424.76261 598.53744 459.86676 602.125 437.09375 C 601.91042 441.68527 607.03664 446.6452 614.90625 451.1875 C 590.19837 452.27681 565.54217 454.21192 540.90625 456.96875 C 473.97825 464.04575 407.14255 472.17075 340.46875 481.34375 C 294.25475 488.01375 247.8799 494.4235 202.375 505.0625 C 184.4083 510.4675 209.9083 595.154 227.875 589.75 C 268.9436 578.807 311.13605 572.81925 353.09375 566.40625 C 392.83077 560.65053 432.65372 555.48355 472.53125 550.8125 C 474.36633 570.51641 475.61447 590.26807 476.6875 610.03125 C 478.9919 644.95525 479.40925 679.9565 480.03125 714.9375 C 480.68585 745.7475 480.05825 776.564 479.90625 807.375 C 480.17665 827.095 478.59555 846.736 477.09375 866.375 C 475.92585 876.078 474.53775 885.7595 471.90625 895.1875 C 471.33526 896.77556 470.86781 897.97964 470.5 898.90625 C 471.65762 896.62825 473.76399 893.14728 476.75 890.21875 C 477.67616 889.31072 478.69788 888.50896 479.75 887.75 C 468.42958 909.29648 465.57687 966.05105 480.53125 967.59375 C 495.07395 969.07175 509.06905 969.977 523.03125 964.25 C 545.12765 950.29 551.0838 941.078 557.6875 917.25 C 561.3262 902.569 563.9366 887.68175 565.1875 872.59375 C 566.5887 850.93075 568.0117 829.25925 567.625 807.53125 C 567.61704 800.42678 567.66252 793.32365 567.6875 786.21875 C 576.99571 788.81256 586.21379 791.77399 595.40625 794.75 C 631.54385 806.163 666.68305 820.22525 701.15625 835.90625 C 733.98925 851.17125 765.2252 869.4755 796.25 888.0625 C 810.6523 897.0435 803.7532 892.6865 817 901.1875 C 832.7896 911.1075 879.57095 836.67 863.78125 826.75 C 849.19095 817.762 856.83145 822.417 840.84375 812.75 C 806.91305 792.909 772.81955 773.27025 737.09375 756.78125 C 707.55591 743.39804 677.60537 730.97469 647.125 719.9375 C 653.89285 715.51076 660.64186 711.0423 667.375 706.5625 C 695.3369 687.8565 722.6751 668.24875 750.75 649.71875 C 766.4167 639.41175 717.8542 565.568 702.1875 575.875 C 674.635 595.61 647.05835 615.3135 618.90625 634.1875 C 601.60296 645.6683 584.10817 656.86704 566.40625 667.71875 C 565.9309 646.95846 565.29682 626.20204 564.03125 605.46875 C 562.9601 584.07035 561.58672 562.70281 559.96875 541.34375 C 607.79983 536.74557 655.79351 535.18012 703.78125 537.9375 C 735.59135 540.3885 767.17355 545.22275 798.46875 551.34375 C 804.21385 552.65675 810.0432 553.686 815.4375 556.125 C 833.1656 562.295 862.25935 478.7325 844.53125 472.5625 C 834.67525 469.4055 824.748 466.5735 814.5 464.9375 C 779.3501 458.7095 743.9569 453.6375 708.3125 451.3125 C 701.94812 451.0065 695.58194 450.77582 689.21875 450.59375 C 690.21864 441.94296 690.20972 433.34298 689.40625 424.4375 C 690.20525 400.0705 691.65085 375.729 694.46875 351.5 C 697.86675 320.753 703.90115 290.52975 709.28125 260.09375 C 711.78085 235.92375 713.99615 207.97425 693.78125 189.65625 C 687.94815 184.37025 679.971 182.11775 673.0625 178.34375 C 665.6833 177.34275 658.40269 176.91763 651.09375 176.90625 z M 597.9375 413.40625 C 597.68477 413.38668 597.42862 413.35483 597.1875 413.3125 C 598.70891 413.97821 598.72418 413.87328 597.9375 413.40625 z M 597.1875 413.3125 C 596.50836 413.01534 595.56503 412.5838 594.21875 411.9375 C 595.06123 412.66292 596.06391 413.11522 597.1875 413.3125 z M 328.46875 593.71875 C 310.2758 594.06226 270.98784 661.11375 286.03125 670.21875 C 310.05405 684.60975 333.53195 699.916 357.28125 714.75 C 357.38153 714.82818 357.49303 714.89109 357.59375 714.96875 C 340.98278 723.72476 324.54048 732.85712 308.28125 742.28125 C 273.41945 762.68325 238.7753 783.42825 203.8125 803.65625 C 187.938 813.62725 234.9381 888.43875 250.8125 878.46875 C 284.239 857.31175 318.19745 836.9955 352.21875 816.8125 C 384.72705 797.7945 418.06985 780.299 452.59375 765.25 C 460.44755 761.75032 456.94686 742.66509 449.28125 724 C 465.19707 709.92444 477.67697 693.11329 471.8125 686.25 C 468.7931 683.189 465.80065 680.1225 462.78125 677.0625 C 444.16925 663.0985 423.32325 652.6945 403.59375 640.4375 C 379.48775 625.4355 355.5912 610.10875 331.8125 594.59375 C 330.80961 593.98675 329.68161 593.69585 328.46875 593.71875 z M 470.46875 899 C 469.2146 901.48748 469.10851 902.4168 470.46875 899 z "
     id="path10314" />
</svg>
