<?xml version="1.0" encoding="UTF-8" standalone="no"?>
<svg
   xmlns:dc="http://purl.org/dc/elements/1.1/"
   xmlns:cc="http://creativecommons.org/ns#"
   xmlns:rdf="http://www.w3.org/1999/02/22-rdf-syntax-ns#"
   xmlns:svg="http://www.w3.org/2000/svg"
   xmlns="http://www.w3.org/2000/svg"
   xmlns:sodipodi="http://sodipodi.sourceforge.net/DTD/sodipodi-0.dtd"
   xmlns:inkscape="http://www.inkscape.org/namespaces/inkscape"
   width="1024"
   height="1024"
   id="U5F1F"
   version="1.1"
   inkscape:version="0.48.0 r9654"
   sodipodi:docname="U+5F1F.svg">
  <metadata
     id="metadata14">
    <rdf:RDF>
      <cc:Work
         rdf:about="">
        <dc:format>image/svg+xml</dc:format>
        <dc:type
           rdf:resource="http://purl.org/dc/dcmitype/StillImage" />
      </cc:Work>
    </rdf:RDF>
  </metadata>
  <defs
     id="defs12" />
  <sodipodi:namedview
     pagecolor="#ffffff"
     bordercolor="#666666"
     borderopacity="1"
     objecttolerance="10"
     gridtolerance="10"
     guidetolerance="10"
     inkscape:pageopacity="0"
     inkscape:pageshadow="2"
     inkscape:window-width="640"
     inkscape:window-height="480"
     id="namedview10"
     showgrid="false"
     inkscape:zoom="0.27441406"
     inkscape:cx="512"
     inkscape:cy="512"
     inkscape:window-x="0"
     inkscape:window-y="25"
     inkscape:window-maximized="0"
     inkscape:current-layer="U5F1F" />
  <path
     style="fill:#c83737;fill-opacity:1;fill-rule:nonzero;stroke:#f9f9f9;stroke-width:0.1;stroke-miterlimit:4;stroke-dasharray:none"
     d="M 595.375 71.53125 C 593.78925 71.611155 592.4069 72.087055 591.3125 73.0625 C 568.44 94.3998 549.7511 119.61475 531.375 144.78125 C 520.10787 160.85528 508.96588 177.02802 498.1875 193.4375 C 493.05319 193.82591 487.91509 194.19536 482.78125 194.59375 C 462.93431 196.15423 443.07791 197.8603 423.28125 200 C 421.88549 192.77349 419.54332 187.36391 416.09375 185.4375 C 439.11808 192.08475 428.79594 190.25797 419.65625 183 C 404.70105 172.3532 390.20145 161.04555 374.59375 151.34375 C 353.84225 138.92985 332.2743 128.0522 310.3125 117.9375 C 293.0313 110.6011 258.43745 192.0386 275.71875 199.375 C 289.13837 205.04168 302.28877 211.37745 315.03125 218.4375 C 285.17191 225.87887 255.76575 234.93208 227.65625 247.71875 C 210.73665 255.81695 248.8929 335.56695 265.8125 327.46875 C 294.2308 313.25295 324.96295 305.0584 355.78125 298 C 394.07246 289.78898 432.99719 285.63716 471.96875 282.40625 C 473.80573 312.02649 475.19524 341.69226 476.4375 371.34375 C 449.42736 377.23228 422.59856 383.88042 396 391.5 C 363.9063 400.4065 331.83935 409.4711 299.90625 418.9375 C 293.44514 421.19576 293.25782 433.74697 296.4375 448.46875 C 296.06717 448.80817 295.74577 449.19246 295.46875 449.625 C 282.43185 470.3867 273.6783 493.22995 266.0625 516.40625 C 256.8001 542.62645 254.5132 569.9937 255.5625 597.5625 C 256.7074 625.2944 266.2611 649.4462 283.8125 670.625 C 301.4223 688.4421 324.14835 696.0414 348.21875 700.1875 C 361.29323 701.79564 374.17772 701.20869 386.9375 699.375 C 356.77903 726.03741 328.39733 754.62898 300.84375 783.96875 C 277.44235 809.07975 255.41455 835.48575 235.53125 863.46875 C 229.79485 871.89475 224.13915 880.37175 218.65625 888.96875 C 213.36875 900.08075 215.27045 894.93425 212.40625 904.28125 C 207.72357 922.22963 290.81982 944.23287 298.15625 927.625 C 296.93559 931.13577 297.58641 929.41378 294.28125 935.65625 C 298.68865 928.19025 303.3291 920.87025 307.9375 913.53125 C 324.6275 888.50625 343.9764 865.3755 364.25 843.1875 C 394.8628 810.1765 426.8011 778.32925 461.625 749.71875 C 472.67604 740.74083 483.74026 731.73358 495.0625 723.0625 C 497.80628 747.76021 501.05278 772.41057 504.65625 797 C 507.46599 818.10041 510.98531 839.18678 512.15625 860.46875 C 512.37921 858.09922 512.55085 855.68651 513.5 853.53125 C 515.65685 848.63221 518.73386 844.19776 521.53125 839.625 C 515.2554 856.43332 575.27637 911.74595 587.65625 898.5625 C 596.40125 884.0785 602.88485 872.59525 600.46875 855.40625 C 598.30015 831.41025 594.42645 807.5978 590.65625 783.8125 C 583.8392 741.308 578.31808 698.59654 574.84375 655.6875 C 597.41786 653.57377 620.11999 652.71511 642.75 651.40625 C 664.9233 650.04865 687.04385 647.54775 709.28125 648.21875 C 715.95425 648.5743 722.4817 649.86698 728.875 651.6875 C 728.44865 672.95808 726.56876 694.16409 724.0625 715.28125 C 720.0145 740.97115 712.2154 765.85935 704 790.46875 C 698.6382 806.10875 692.87675 821.61025 685.21875 836.28125 C 684.04045 837.46225 684.28235 837.40025 685.09375 835.53125 C 672.94225 849.87525 740.56725 907.1565 752.71875 892.8125 C 761.40325 881.5985 757.565 887.30325 764.3125 875.90625 C 773.4227 857.18625 780.8007 837.73875 787.3125 817.96875 C 797.162 787.78875 806.41065 757.2397 811.03125 725.75 C 814.16915 699.9975 816.7212 674.10855 817.25 648.15625 C 816.7879 626.27315 814.99 605.3169 798.375 588.9375 C 787.7392 580.3453 776.3649 573.4895 763.125 569.625 C 746.1549 564.2878 728.78585 560.4701 710.90625 560.1875 C 686.34695 559.9363 661.8975 561.82805 637.4375 563.90625 C 614.84454 565.34435 592.20174 566.39875 569.65625 568.5 C 567.62398 526.76506 566.05475 485.01262 564.65625 443.25 C 587.5267 440.09995 610.55794 438.31628 633.65625 439.15625 C 641.15044 439.52956 646.0073 441.01114 648.125 441.84375 C 646.52677 440.98866 643.35367 439.06028 638.5 435.3125 C 636.22427 431.48709 633.96315 427.6691 631.6875 423.84375 C 635.3414 427.63345 644.43497 428.31549 655.34375 426.96875 C 672.5619 446.81506 701.4754 467.25612 709.46875 458.5 C 711.94825 455.1448 714.42675 451.7928 716.90625 448.4375 C 721.39345 438.9186 724.33785 429.11025 727.09375 418.96875 C 733.27045 400.80115 739.1965 382.5505 743.1875 363.75 C 748.5443 341.0512 754.8477 318.51865 758.5625 295.46875 C 760.7426 278.37065 761.8227 261.20045 758.9375 244.09375 C 754.9053 223.21855 745.5378 204.9554 724.4375 196.875 C 713.932 193.299 703.282 189.8236 692.125 188.8125 C 665.831 186.0752 639.4106 186.0009 613 186.75 C 611.64656 186.79336 610.29075 186.85964 608.9375 186.90625 C 621.38162 169.88297 634.31159 153.04248 650.1875 139.09375 C 663.1014 127.5835 614.08685 70.588367 595.375 71.53125 z M 648.125 441.84375 C 649.75048 442.71342 649.7188 442.47038 648.125 441.84375 z M 512.15625 860.46875 C 512.10693 860.99289 512.06354 861.51412 512 862.03125 C 511.905 862.80125 511.4275 864.49875 512.1875 864.34375 C 512.9621 864.18575 512.227 862.75975 512.25 861.96875 C 512.22518 861.4697 512.1837 860.96759 512.15625 860.46875 z M 632.0625 273.84375 C 645.40933 273.86291 658.74775 274.16004 672.03125 275.375 C 671.81496 278.23494 671.46399 281.08674 671.0625 283.9375 C 667.7553 303.9909 662.39325 323.6275 657.65625 343.375 C 656.96818 346.61241 656.17159 349.83554 655.34375 353.03125 C 649.31965 352.20378 642.80789 351.70798 635.5625 351.375 C 610.90665 351.09201 586.33069 352.66639 561.90625 355.75 C 561.06901 329.22998 560.21489 302.70939 559.46875 276.1875 C 578.07442 275.13036 596.70261 274.30531 615.34375 273.90625 C 620.91377 273.86507 626.48912 273.83575 632.0625 273.84375 z M 479.9375 459.5 C 481.5376 500.71579 483.13354 541.92429 485.0625 583.125 C 463.17336 588.35797 441.48538 594.48744 420 601.375 C 401.2141 606.8335 381.94805 613.425 362.15625 613.0625 C 358.15675 612.5589 352.4185 610.5658 349.125 611 C 349.8985 615.0054 340.31825 595.88975 343.46875 593.53125 C 342.47075 576.58425 343.78755 559.88775 349.65625 543.78125 C 354.90965 527.68205 360.41375 511.4984 370.03125 497.375 C 371.38543 495.26059 371.22255 492.59011 369.90625 489.5625 C 386.3875 484.61039 402.95158 479.88828 419.5 475.1875 C 439.50144 469.35144 459.65377 464.16808 479.9375 459.5 z "
     id="path10153" />
</svg>
