<?xml version="1.0" encoding="utf-8" ?>

<!DOCTYPE svg PUBLIC "-//W3C//DTD SVG 1.1//EN" 
  "http://www.w3.org/Graphics/SVG/1.1/DTD/svg11.dtd">
<svg 
    xmlns="http://www.w3.org/2000/svg"
    xmlns:xlink="http://www.w3.org/1999/xlink"
    xmlns:sodipodi="http://sodipodi.sourceforge.net/DTD/sodipodi-0.dtd"
    xmlns:inkscape="http://www.inkscape.org/namespaces/inkscape"
    width="1024" height="1024" id="U5F71">
<path d="m 8377.188,59563.716 c 4.953,32.02 9.664,64.077 14.5236,96.112 4.1351,27.643 9.1643,55.137 14.5571,82.559 -3.6862,-11.548 2.7385,11.263 2.2751,8.399 -0.2292,-1.416 -0.7651,-2.766 -1.1477,-4.148 7.9864,17.058 -72.4257,54.706 -80.4121,37.648 l 0,0 c -3.2686,-8.458 -6.2474,-16.788 -7.3486,-25.861 -4.9502,-28.462 -9.8737,-56.93 -14.1409,-85.504 -4.7291,-31.105 -9.2011,-62.27 -15.2492,-93.154 -3.405,-18.443 83.5378,-34.494 86.9427,-16.051 z" id="path12915" inkscape:connector-curvature="0" style="fill:#2b1100;fill-opacity:1;fill-rule:nonzero;stroke:none" transform="translate(-8192, -59392)"/><path d="m 8336.6251,59514.442 c 29.691,-7.099 59.9182,-11.445 90.1465,-15.477 33.2526,-4.681 66.7075,-6.892 100.2682,-6.367 22.8502,0.499 45.5168,1.735 67.5689,7.922 34.199,13.374 44.9574,43.683 48.1598,77.484 0.7664,32.701 -3.4784,65.275 -6.9192,97.736 -2.7261,28.737 -7.1851,57.253 -12.8873,85.538 -3.105,13.534 -5.6414,27.232 -9.4934,40.578 -5.7671,17.934 -90.3085,-9.252 -84.5414,-27.186 l 0,0 c 2.4769,-8.254 5.6467,-21.334 7.902,-31.312 5.4657,-25.361 9.6465,-50.977 12.0948,-76.818 2.8525,-26.998 6.2195,-54.082 6.1569,-81.265 -0.8266,-16.178 1.6181,-1.746 12.3994,-0.585 -12.8323,-4.167 -28.4871,-3.017 -42.2894,-4.403 -29.0451,-0.81 -57.9993,1.164 -86.7761,5.25 -26.3755,3.578 -52.8596,7.207 -78.5708,14.29 -18.113,4.926 -41.3319,-80.46 -23.2189,-85.385 z" id="path12917" inkscape:connector-curvature="0" style="fill:#2b1100;fill-opacity:1;fill-rule:nonzero;stroke:none" transform="translate(-8192, -59392)"/><path d="m 8350.5009,59605.895 c 32.7242,-4.553 65.4082,-9.232 98.3038,-12.37 30.4208,-2.867 60.9575,-2.598 91.2757,1.011 9.0234,1.071 17.7907,3.353 26.5057,5.823 17.976,5.469 -7.8053,90.209 -25.7813,84.739 l 0,0 c -3.9195,-1.432 -7.9086,-2.589 -12.0569,-3.188 -23.7946,-3.445 -47.8424,-3.614 -71.7957,-1.501 -31.0691,2.856 -61.9626,7.236 -92.6644,12.803 -18.5228,2.925 -32.3097,-84.392 -13.7869,-87.317 z" id="path12921" inkscape:connector-curvature="0" style="fill:#2b1100;fill-opacity:1;fill-rule:nonzero;stroke:none" transform="translate(-8192, -59392)"/><path d="m 8324.5682,59734.284 c 28.7853,-11.405 58.4159,-20.326 88.3464,-28.143 35.0257,-8.978 70.7696,-14.308 106.7995,-16.826 18.307,-0.896 36.6658,-1.08 54.9458,0.316 18.6783,1.77 10.3337,89.82 -8.3446,88.05 l 0,0 c -13.5501,-1.894 -27.4026,-0.934 -41.0286,-0.91 -30.4566,1.704 -60.6534,6.179 -90.2306,13.761 -25.5607,6.742 -50.948,14.362 -75.2148,24.962 -17.2273,7.483 -52.5004,-73.727 -35.2731,-81.21 z" id="path12923" inkscape:connector-curvature="0" style="fill:#2b1100;fill-opacity:1;fill-rule:nonzero;stroke:none" transform="translate(-8192, -59392)"/><path d="m 8486.8009,59815.516 c 10.2752,15.051 19.8786,30.522 28.7707,46.425 9.0099,16.382 -68.2151,58.855 -77.2251,42.473 l 0,0 c -7.0727,-13.165 -14.9531,-25.884 -23.865,-37.894 -10.8197,-15.341 61.4998,-66.346 72.3194,-51.004 z" id="path12925" inkscape:connector-curvature="0" style="fill:#2b1100;fill-opacity:1;fill-rule:nonzero;stroke:none" transform="translate(-8192, -59392)"/><path d="m 8251.0728,59948.004 c 35.1849,-7.038 70.2941,-14.416 105.5555,-21.068 52.503,-10.117 105.8078,-14.512 159.1117,-17.562 44.8541,-2.402 89.7778,-1.608 134.6404,-0.03 26.6083,1.034 53.1339,3.398 79.6206,6.057 2.6459,0.377 5.2918,0.754 7.9376,1.131 18.5293,3.018 4.3057,90.366 -14.2236,87.348 l 0,0 c -1.2193,-0.252 -2.4386,-0.505 -3.6579,-0.757 -24.2671,-3.094 -48.6229,-5.525 -73.0675,-6.665 -42.1104,-1.808 -84.2904,-2.87 -126.416,-0.767 -49.4534,2.705 -98.9252,6.671 -147.5816,16.356 -34.5232,6.769 -68.9365,14.106 -103.1216,22.429 -18.3428,3.987 -37.1404,-82.481 -18.7976,-86.469 z" id="path12927" inkscape:connector-curvature="0" style="fill:#2b1100;fill-opacity:1;fill-rule:nonzero;stroke:none" transform="translate(-8192, -59392)"/><path d="m 8420.4524,60060.22 c 2.1928,22.749 5.6317,45.347 9.934,67.786 2.3177,6.858 2.0614,15.431 6.3012,21.593 7.458,17.227 -73.7487,52.384 -81.2067,35.158 l 0,0 c -5.2526,-13.159 -9.2429,-26.633 -11.5151,-40.66 -4.4012,-24.268 -7.9611,-48.662 -11.3568,-73.089 -2.2884,-18.635 85.555,-29.423 87.8434,-10.788 z" id="path12929" inkscape:connector-curvature="0" style="fill:#2b1100;fill-opacity:1;fill-rule:nonzero;stroke:none" transform="translate(-8192, -59392)"/><path d="m 8384.9314,60013.777 c 27.8406,-9.26 56.5383,-14.821 85.6887,-17.628 27.762,-2.261 55.1748,0.844 81.7638,8.82 19.7935,6.446 36.654,16.996 51.1384,31.792 16.1691,19.496 18.7997,42.735 17.7371,67.064 -1.57,23.04 -5.1905,45.855 -9.3632,68.545 -2.116,12.041 -4.5874,23.982 -7.7654,35.785 -5.1408,18.046 -90.2139,-6.188 -85.0731,-24.234 l 0,0 c 2.8799,-9.035 4.44,-18.4 6.3467,-27.675 3.5273,-18.63 6.5036,-37.375 7.6551,-56.325 0.3607,-7.952 -0.6465,-9.364 4.5788,-3.977 3.3286,1.727 -9.4281,-7.031 -12.0294,-6.916 -15.0752,-5.525 -31.24,-6.24 -47.1623,-5.541 -21.9939,1.748 -43.658,6.14 -64.3815,13.858 -17.7274,6.18 -46.861,-77.387 -29.1337,-83.568 z" id="path12935" inkscape:connector-curvature="0" style="fill:#2b1100;fill-opacity:1;fill-rule:nonzero;stroke:none" transform="translate(-8192, -59392)"/><path d="m 8371.9032,60187.858 c 30.5709,-6.265 61.2457,-11.94 92.0283,-17.063 33.4203,-5.873 67.1136,-9.907 100.9835,-11.865 24.7823,-1.703 48.6199,0.412 71.3634,10.429 16.4735,9.103 -26.4383,86.76 -42.9118,77.657 l 0,0 c 20.1548,6.483 -20.0949,-4.876 -23.9033,-0.549 -30.5886,1.366 -60.9881,5.174 -91.1477,10.428 -29.7303,4.986 -59.4159,10.341 -88.6976,17.569 -18.3718,3.758 -36.0865,-82.848 -17.7148,-86.606 z" id="path12945" inkscape:connector-curvature="0" style="fill:#2b1100;fill-opacity:1;fill-rule:nonzero;stroke:none" transform="translate(-8192, -59392)"/><path d="m 8512.2802,60228.423 c 1.453,29.935 1.5231,59.901 1.2719,89.862 -0.3662,27.105 -0.9866,54.205 -1.4238,81.308 -0.094,5.897 -0.178,11.795 -0.2611,17.693 -0.5348,18.795 -89.1363,16.274 -88.6015,-2.521 l 0,0 c 0.2515,-5.857 0.4999,-11.715 0.7284,-17.573 1.0188,-26.515 1.9002,-53.038 2.2138,-79.572 0.1886,-27.729 0.2364,-55.513 -2.2122,-83.161 -1.2805,-18.728 87.004,-24.764 88.2845,-6.036 z" id="path12947" inkscape:connector-curvature="0" style="fill:#2b1100;fill-opacity:1;fill-rule:nonzero;stroke:none" transform="translate(-8192, -59392)"/><path d="m 8422.8257,60353.206 c -13.659,11.143 -25.6632,24.151 -36.079,38.34 -0.9488,1.525 -1.8975,3.05 -2.8463,4.575 -10.3373,15.611 -83.9286,-33.12 -73.5912,-48.731 l 0,0 c 2.0473,-3 4.0946,-5.999 6.1419,-8.999 14.5949,-18.948 30.7755,-36.59 48.7945,-52.361 14.2503,-12.215 71.8304,54.962 57.5801,67.176 z" id="path12949" inkscape:connector-curvature="0" style="fill:#2b1100;fill-opacity:1;fill-rule:nonzero;stroke:none" transform="translate(-8192, -59392)"/><path d="m 8568.3641,60268.026 c 20.0971,12.313 40.052,24.825 59.5212,38.111 7.5532,5.215 14.913,10.7 22.271,16.184 14.9246,11.339 -38.5277,81.694 -53.4522,70.355 l 0,0 c -6.172,-4.792 -12.3559,-9.572 -18.7409,-14.081 -17.8608,-12.44 -36.21,-24.161 -55.2274,-34.767 -16.0799,-9.679 29.5483,-85.481 45.6283,-75.802 z" id="path12951" inkscape:connector-curvature="0" style="fill:#2b1100;fill-opacity:1;fill-rule:nonzero;stroke:none" transform="translate(-8192, -59392)"/><path d="m 8964.1457,59663.199 c -16.7433,37.375 -44.808,68 -71.419,98.565 -25.6755,29.046 -51.5013,57.956 -77.5279,86.687 -2.4143,2.628 -4.8285,5.255 -7.2427,7.883 -12.8146,13.585 -76.8574,-46.823 -64.0428,-60.409 l 0,0 c 2.2995,-2.37 4.5991,-4.74 6.8987,-7.109 26.0013,-27.444 51.4967,-55.36 76.4067,-83.8 19.4048,-22.521 40.2521,-44.932 53.6079,-71.748 6.3491,-17.674 89.6683,12.256 83.3191,29.931 z" id="path12957" inkscape:connector-curvature="0" style="fill:#2b1100;fill-opacity:1;fill-rule:nonzero;stroke:none" transform="translate(-8192, -59392)"/><path d="m 9055.7535,59864.686 c -17.5817,31.357 -39.4242,59.95 -61.5777,88.152 -34.8458,42.892 -70.8293,84.843 -106.1444,127.348 -20.2644,24.969 -41.231,49.427 -60.4368,75.236 -11.5225,14.753 -81.065,-39.565 -69.5425,-54.317 l 0,0 c 20.9112,-25.718 42.4593,-50.913 63.7253,-76.336 34.9327,-41.489 70.2104,-82.71 103.9825,-125.157 18.7848,-24.403 37.6689,-49.031 51.8174,-76.509 8.8211,-16.584 86.9973,24.999 78.1762,41.583 z" id="path12959" inkscape:connector-curvature="0" style="fill:#2b1100;fill-opacity:1;fill-rule:nonzero;stroke:none" transform="translate(-8192, -59392)"/><path d="m 9051.138,60113.806 c -20.8694,37.213 -48.6807,69.648 -77.0239,101.27 -37.7939,41.487 -78.1749,80.483 -119.185,118.753 -28.392,26.076 -57.0564,51.855 -84.5035,78.932 -8.8966,8.929 -4.876,4.742 -12.1294,12.496 -13.0218,13.446 -76.4046,-47.939 -63.3828,-61.385 l 0,0 c 9.3039,-9.358 4.4489,-4.592 14.5875,-14.277 28.4223,-26.839 57.7248,-52.706 86.6436,-79.005 39.19,-36.283 77.6752,-73.384 113.4338,-113.096 23.4294,-26.393 46.9958,-53.276 63.3025,-84.84 8.7298,-16.601 86.987,24.552 78.2572,41.152 z" id="path12961" inkscape:connector-curvature="0" style="fill:#2b1100;fill-opacity:1;fill-rule:nonzero;stroke:none" transform="translate(-8192, -59392)"/></svg>