<?xml version="1.0" encoding="utf-8" ?>

<!DOCTYPE svg PUBLIC "-//W3C//DTD SVG 1.1//EN" 
  "http://www.w3.org/Graphics/SVG/1.1/DTD/svg11.dtd">
<svg 
    xmlns="http://www.w3.org/2000/svg"
    xmlns:xlink="http://www.w3.org/1999/xlink"
    xmlns:sodipodi="http://sodipodi.sourceforge.net/DTD/sodipodi-0.dtd"
    xmlns:inkscape="http://www.inkscape.org/namespaces/inkscape"
    width="1024" height="1024" id="U600E">
<path d="m 9640.6912,62596.261 c -19.1865,39.359 -36.4189,79.644 -53.1431,120.099 -15.0271,40.244 -32.9916,81.137 -34.9637,124.632 0.3386,1.804 0.6771,3.608 1.0156,5.411 1.1978,18.604 -86.4995,24.25 -87.6973,5.647 l 0,0 c -0.1684,-6.071 -0.3368,-12.142 -0.5053,-18.212 5.378,-52.21 22.9694,-101.682 42.5526,-150.146 17.3053,-42.463 35.171,-84.694 53.5589,-126.7 8.3302,-16.797 87.5126,22.472 79.1823,39.269 z" id="path13995" inkscape:connector-curvature="0" style="fill:#2b1100;fill-opacity:1;fill-rule:nonzero;stroke:none" transform="translate(-9216, -62464)"/><path d="m 9551.6704,62658.572 c 39.7879,-10.828 80.003,-19.93 120.2703,-28.766 64.5638,-14.31 129.5933,-26.129 195.2092,-34.339 49.6881,-5.68 99.7774,-6.595 149.3221,0.445 20.303,4.553 10.314,1.577 29.956,8.962 17.172,7.445 -17.924,88.392 -35.095,80.947 l 0,0 c -2.227,-3.422 -0.319,-1.055 -8.453,-3.428 -41.371,-7.417 -83.6074,-5.842 -125.2824,-1.769 -62.858,7.547 -125.087,19.031 -186.777,33.276 -38.2056,8.778 -76.4724,17.589 -113.8617,29.463 -17.9868,5.365 -43.2753,-79.426 -25.2885,-84.791 z" id="path13997" inkscape:connector-curvature="0" style="fill:#2b1100;fill-opacity:1;fill-rule:nonzero;stroke:none" transform="translate(-9216, -62464)"/><path d="m 9739.1551,62691.03 c -3.411,44.881 -5.0842,89.879 -6.8374,134.849 -2.6933,55.001 -1.6615,110.017 4.163,164.764 1.4299,13.631 3.6165,27.148 6.2109,40.596 3.0949,18.41 -83.6874,32.999 -86.7822,14.59 l 0,0 c -2.3074,-15.555 -4.4032,-31.14 -5.8135,-46.808 -5.1925,-58.594 -6.1806,-117.382 -3.6887,-176.165 1.4399,-45.808 3.0518,-91.61 4.5661,-137.415 1.1856,-18.706 89.3674,-13.117 88.1818,5.589 z" id="path13999" inkscape:connector-curvature="0" style="fill:#2b1100;fill-opacity:1;fill-rule:nonzero;stroke:none" transform="translate(-9216, -62464)"/><path d="m 9713.517,62778.748 c 33.6223,-5.978 67.295,-11.588 101.1155,-16.323 39.1576,-4.866 78.2683,-10.2 117.5412,-14.065 14.6888,-1.895 29.1143,-0.876 43.6997,0.936 18.4723,3.073 3.9879,90.152 -14.4844,87.079 l 0,0 c -6.1301,-3.089 -14.911,-0.338 -21.232,-0.937 -37.8915,3.188 -75.5873,8.318 -113.3046,13.084 -31.9728,4.604 -63.8561,9.902 -95.408,16.875 -18.381,3.803 -36.3085,-82.846 -17.9274,-86.649 z" id="path14001" inkscape:connector-curvature="0" style="fill:#2b1100;fill-opacity:1;fill-rule:nonzero;stroke:none" transform="translate(-9216, -62464)"/><path d="m 9747.4058,62884.123 c 32.7861,-2.291 65.5733,-1.818 98.3476,0.224 33.4471,3.248 66.8263,6.363 100.41,3.981 13.9429,-1.857 7.4008,-0.778 19.6475,-3.105 18.4061,-3.082 32.9316,83.686 14.5255,86.767 l 0,0 c -18.2066,2.774 -8.5961,1.512 -28.8486,3.653 -37.1836,1.991 -74.1678,-0.338 -111.1792,-4.243 -29.0374,-1.824 -58.1445,-2.301 -87.1143,0.998 -18.7259,1.228 -24.5144,-87.047 -5.7885,-88.275 z" id="path14003" inkscape:connector-curvature="0" style="fill:#2b1100;fill-opacity:1;fill-rule:nonzero;stroke:none" transform="translate(-9216, -62464)"/><path d="m 9546.5147,63187.242 c -16.4196,25.617 -32.9981,51.132 -49.6254,76.615 -8.2221,18.392 -30.9537,38.961 -37.0104,57.847 -8.5508,16.72 -87.3701,-23.589 -78.8194,-40.309 l 0,0 c 12.6269,-22.731 28.9934,-43.094 42.7276,-65.147 16.0879,-24.75 32.2102,-49.51 47.1071,-75.002 9.7572,-16.041 85.3777,29.955 75.6205,45.996 z" id="path14005" inkscape:connector-curvature="0" style="fill:#2b1100;fill-opacity:1;fill-rule:nonzero;stroke:none" transform="translate(-9216, -62464)"/><path d="m 9675.5091,63175.628 c -6.6218,21.612 -10.0353,43.89 -10.3347,66.453 0.5264,13.9 2.1364,28.016 13.8385,36.763 17.762,11.221 38.9094,11.885 59.2594,12.08 43.4967,-2.528 86.5489,-9.802 129.7361,-15.299 45.9061,-5.646 91.9607,-9.944 137.8616,-15.633 26.98,-4.005 54.337,-6.614 80.915,-12.953 18.327,-3.842 36.438,82.553 18.111,86.395 l 0,0 c -29.317,5.588 -59.002,9.027 -88.588,12.839 -45.7434,5.405 -91.6169,9.619 -137.3332,15.26 -47.3082,6.057 -94.4519,14.35 -142.1583,16.499 -43.9885,-0.939 -86.7704,-7.627 -120.8269,-38.045 -28.5648,-31.576 -37.7979,-57.494 -38.4636,-99.976 0.9051,-29.833 5.0044,-59.261 12.7885,-88.126 5.0366,-18.073 90.2312,5.67 85.1946,23.743 z" id="path14007" inkscape:connector-curvature="0" style="fill:#2b1100;fill-opacity:1;fill-rule:nonzero;stroke:none" transform="translate(-9216, -62464)"/><path d="m 9834.8548,63123.67 c 25.2178,17.554 52.437,32.03 79.3767,46.724 16.2289,8.858 -25.5296,85.362 -41.7585,76.504 l 0,0 c -30.1912,-16.491 -60.5597,-32.794 -89.4318,-51.54 -15.2072,-10.991 36.6065,-82.679 51.8136,-71.688 z" id="path14009" inkscape:connector-curvature="0" style="fill:#2b1100;fill-opacity:1;fill-rule:nonzero;stroke:none" transform="translate(-9216, -62464)"/><path d="m 10174.232,63063.195 c 12.61,22.844 29.816,42.615 46.922,62.145 12.041,13.336 6.166,6.906 17.611,19.302 12.526,13.785 -52.455,72.83 -64.98,59.046 l 0,0 c -11.966,-13.371 -5.769,-6.415 -18.584,-20.874 -21.224,-24.466 -42.153,-49.372 -58.648,-77.372 -8.962,-16.479 68.718,-58.726 77.679,-42.247 z" id="path14011" inkscape:connector-curvature="0" style="fill:#2b1100;fill-opacity:1;fill-rule:nonzero;stroke:none" transform="translate(-9216, -62464)"/></svg>