<?xml version="1.0" encoding="UTF-8" standalone="no"?>
<svg
   xmlns:dc="http://purl.org/dc/elements/1.1/"
   xmlns:cc="http://creativecommons.org/ns#"
   xmlns:rdf="http://www.w3.org/1999/02/22-rdf-syntax-ns#"
   xmlns:svg="http://www.w3.org/2000/svg"
   xmlns="http://www.w3.org/2000/svg"
   xmlns:sodipodi="http://sodipodi.sourceforge.net/DTD/sodipodi-0.dtd"
   xmlns:inkscape="http://www.inkscape.org/namespaces/inkscape"
   width="1024"
   height="1024"
   id="U6025"
   version="1.1"
   inkscape:version="0.48.0 r9654"
   sodipodi:docname="U+6025.svg">
  <metadata
     id="metadata16">
    <rdf:RDF>
      <cc:Work
         rdf:about="">
        <dc:format>image/svg+xml</dc:format>
        <dc:type
           rdf:resource="http://purl.org/dc/dcmitype/StillImage" />
      </cc:Work>
    </rdf:RDF>
  </metadata>
  <defs
     id="defs14" />
  <sodipodi:namedview
     pagecolor="#ffffff"
     bordercolor="#666666"
     borderopacity="1"
     objecttolerance="10"
     gridtolerance="10"
     guidetolerance="10"
     inkscape:pageopacity="0"
     inkscape:pageshadow="2"
     inkscape:window-width="640"
     inkscape:window-height="480"
     id="namedview12"
     showgrid="false"
     inkscape:zoom="0.27441406"
     inkscape:cx="512"
     inkscape:cy="512"
     inkscape:window-x="0"
     inkscape:window-y="25"
     inkscape:window-maximized="0"
     inkscape:current-layer="U6025" />
  <path
     style="fill:#550000;fill-opacity:1;fill-rule:nonzero;stroke:#f9f9f9;stroke-width:0.1;stroke-miterlimit:4;stroke-dasharray:none"
     d="M 422.46875 106.25 C 418.87926 106.22098 416.15862 107.19538 414.71875 109.4375 C 395.06425 144.0755 380.597 181.30425 366.375 218.40625 C 353.8219 251.67725 342.8749 285.529 332 319.375 C 326.4309 337.265 410.7434 363.515 416.3125 345.625 C 424.19302 319.44687 432.39844 293.36088 441.625 267.625 C 463.39592 263.11739 485.35493 259.45417 507.3125 256 C 538.371 251.401 569.6649 248.39225 601.0625 247.90625 C 601.46703 247.92522 601.87513 247.92314 602.28125 247.9375 C 600.85729 256.58808 599.80147 261.55641 597.75 272.09375 C 593.00391 294.94186 587.97054 317.72492 583.03125 340.53125 C 565.15458 341.30397 547.29235 342.27275 529.4375 343.46875 C 464.2689 348.30475 399.30085 355.32375 334.65625 364.96875 C 288.39385 371.50975 242.12665 378.18425 195.59375 382.53125 C 176.83065 384.95225 188.2369 473.38975 207 470.96875 C 253.7664 464.66675 300.4515 457.85825 347.125 450.90625 C 409.6186 441.14725 472.50545 434.519 535.59375 430.25 C 554.83383 429.10032 574.08002 428.26571 593.34375 427.6875 C 616.37951 439.16302 647.58486 446.65944 651.75 436.15625 C 652.87154 433.00511 653.9052 429.83492 654.875 426.65625 C 657.90482 426.63998 660.93897 426.60083 663.96875 426.59375 C 683.07585 427.19575 702.74685 426.076 721.40625 431 C 729.64745 435.712 719.74045 430.22475 718.84375 430.46875 C 718.33965 430.60675 718.68675 431.51725 718.59375 432.03125 C 720.10525 457.65025 716.54185 483.2625 713.78125 508.6875 C 710.27615 535.5525 707.85075 562.61775 703.34375 589.34375 C 703.18571 589.85516 703.03302 590.36382 702.875 590.875 C 704.25011 575.84911 702.49461 563.45212 695.78125 561.96875 C 691.75185 561.35475 687.7169 560.74 683.6875 560.125 C 657.2085 559.873 631.26335 565.238 605.21875 569.5 C 557.17265 577.538 509.2415 586.22125 461.625 596.53125 C 421.6982 605.38925 381.7982 614.61325 342.6875 626.65625 C 324.7249 632.76025 353.50615 717.44775 371.46875 711.34375 C 407.07295 698.67075 443.98445 690.09975 480.78125 681.71875 C 526.63175 671.61575 572.90055 663.597 619.28125 656.375 C 637.66654 656.67381 661.13254 645.61635 679.53125 649.28125 C 689.62181 646.29761 699.31397 619.00522 702.34375 595.6875 C 706.90949 613.24302 785.0273 630.73365 789.15625 613.28125 C 789.90515 609.77025 790.65735 606.261 791.40625 602.75 C 795.33735 574.675 797.84415 546.40525 801.40625 518.28125 C 805.44875 481.61625 811.277 444.23475 804.1875 407.59375 C 793.1242 373.85275 776.2573 352.949 740.8125 344 C 718.69029 339.43211 696.22796 338.0653 673.6875 338.15625 C 677.19163 321.90952 680.78099 305.67892 684.3125 289.4375 C 689.9371 262.0765 699.9783 228.718 688.875 201.375 C 686.0583 194.439 681.161 188.51575 677.3125 182.09375 C 672.1758 177.96675 667.51765 173.17275 661.90625 169.71875 C 643.29485 158.26375 619.7827 159.65725 598.9375 159.28125 C 563.7065 160.36825 528.6163 163.78575 493.75 168.96875 C 490.01543 169.54689 486.26337 170.1567 482.53125 170.75 C 484.8826 166.35448 487.31699 162.00604 489.875 157.71875 C 498.67414 144.01688 444.40451 106.42733 422.46875 106.25 z M 679.53125 649.28125 C 679.40841 649.31757 679.2792 649.34594 679.15625 649.375 C 679.47853 649.37254 679.80273 649.37765 680.125 649.375 C 679.92972 649.33248 679.7277 649.32038 679.53125 649.28125 z M 679.15625 649.375 C 678.26209 649.38183 677.36288 649.40625 676.46875 649.40625 C 677.36978 649.60534 678.25601 649.58781 679.15625 649.375 z M 619.9375 248.71875 C 621.43551 248.9157 622.93461 249.14875 624.40625 249.5 C 624.47375 249.516 633.6648 254.94575 621.25 249.34375 C 620.80069 249.14094 620.3724 248.9493 619.9375 248.71875 z M 650.78125 458.1875 C 623.88345 458.3605 596.99675 459.8865 570.15625 461.5625 C 517.13625 465.3565 464.1372 470.0665 411.6875 478.9375 C 371.1419 486.2185 330.65815 494.2395 291.21875 506.3125 C 273.25675 512.3495 301.69425 597.036 319.65625 591 C 354.60405 578.812 391.03245 571.6605 427.34375 564.9375 C 476.52105 556.4075 526.2939 552.142 576.0625 549 C 600.6956 547.842 625.36385 546.47925 650.03125 547.15625 C 668.90665 547.31025 669.65665 458.3415 650.78125 458.1875 z M 899.21875 655.5 C 877.27372 655.85182 823.27527 693.86172 832.1875 707.5 C 846.3625 728.374 862.59255 747.709 878.65625 767.125 C 886.99075 777.475 883.0841 772.454 890.5 782.125 C 902.1153 797.014 972.3027 742.264 960.6875 727.375 C 951.8018 716.146 956.3772 721.84575 946.9375 710.34375 C 932.9651 693.64675 918.6389 677.085 907 658.625 C 905.54163 656.39328 902.80976 655.44243 899.21875 655.5 z M 628.28125 683.625 C 607.16314 684.54542 554.95599 728.7495 565.28125 741.71875 C 582.95065 762.27975 604.227 779.098 625.75 795.375 C 640.7455 806.661 693.933 735.9725 678.9375 724.6875 C 663.3477 713.0225 647.62625 701.21575 635.15625 686.09375 C 633.68121 684.241 631.29812 683.49351 628.28125 683.625 z M 318.78125 697.65625 C 314.57466 697.58488 311.44609 698.65156 309.96875 701.21875 C 293.89485 730.98675 278.0535 760.91125 261.9375 790.65625 C 244.2502 823.48125 226.09085 856.05375 209.53125 889.46875 C 202.70185 901.51975 199.63195 914.072 197.03125 927.5 C 195.24582 944.80892 269.8422 953.94535 283.8125 940.8125 C 285.32509 936.21224 295.87238 918.24691 289.21875 928.09375 C 304.57705 895.61475 322.08595 864.25425 339.15625 832.65625 C 355.02825 803.59325 370.49445 774.2895 387.40625 745.8125 C 395.38391 731.94969 341.49683 698.04164 318.78125 697.65625 z M 283.8125 940.8125 C 283.50863 941.73666 283.54816 942.18066 284.1875 941.6875 C 285.14168 940.95122 285.35322 939.66741 285.59375 938.40625 C 285.21613 939.28663 284.59686 940.07516 283.8125 940.8125 z M 390.71875 778.25 C 380.29201 778.23796 372.54272 780.39822 371.34375 785.59375 C 365.96555 815.27075 369.7004 846.015 387.8125 871 C 392.1031 876.918 397.6058 881.85125 402.5 887.28125 C 436.1286 916.38025 478.92805 923.71225 521.65625 928.53125 C 567.24905 932.78025 613.0579 930.79275 658.625 927.46875 C 695.8972 924.41575 732.9903 919.50625 769.75 912.65625 C 799.1943 907.52625 827.09435 898.7815 852.09375 882.3125 C 856.45205 877.8495 860.8292 873.4005 865.1875 868.9375 C 877.2968 854.3855 808.70305 797.29275 796.59375 811.84375 C 797.77665 811.19575 798.9421 810.55425 800.125 809.90625 C 793.9763 819.97125 763.38825 821.93925 753.21875 825.78125 C 719.79605 832.31525 685.9866 836.886 652.0625 839.875 C 611.957 842.957 571.6415 844.88975 531.5 841.09375 C 509.0833 838.58275 485.77555 836.23725 465.71875 825.03125 C 457.70755 820.71825 456.38005 814.7155 458.40625 805.6875 C 461.47035 792.41003 417.36486 778.28077 390.71875 778.25 z M 286.03125 936.6875 C 285.83572 937.21499 285.73743 937.78629 285.625 938.375 C 285.85052 937.83908 285.97037 937.27769 286.03125 936.6875 z "
     id="path8379" />
</svg>
