<?xml version="1.0" encoding="UTF-8" standalone="no"?>
<svg
   xmlns:dc="http://purl.org/dc/elements/1.1/"
   xmlns:cc="http://creativecommons.org/ns#"
   xmlns:rdf="http://www.w3.org/1999/02/22-rdf-syntax-ns#"
   xmlns:svg="http://www.w3.org/2000/svg"
   xmlns="http://www.w3.org/2000/svg"
   xmlns:sodipodi="http://sodipodi.sourceforge.net/DTD/sodipodi-0.dtd"
   xmlns:inkscape="http://www.inkscape.org/namespaces/inkscape"
   width="1024"
   height="1024"
   id="U61C2"
   version="1.1"
   inkscape:version="0.48.0 r9654"
   sodipodi:docname="U+61C2.svg">
  <metadata
     id="metadata22">
    <rdf:RDF>
      <cc:Work
         rdf:about="">
        <dc:format>image/svg+xml</dc:format>
        <dc:type
           rdf:resource="http://purl.org/dc/dcmitype/StillImage" />
      </cc:Work>
    </rdf:RDF>
  </metadata>
  <defs
     id="defs20" />
  <sodipodi:namedview
     pagecolor="#ffffff"
     bordercolor="#666666"
     borderopacity="1"
     objecttolerance="10"
     gridtolerance="10"
     guidetolerance="10"
     inkscape:pageopacity="0"
     inkscape:pageshadow="2"
     inkscape:window-width="640"
     inkscape:window-height="480"
     id="namedview18"
     showgrid="false"
     inkscape:zoom="0.27441406"
     inkscape:cx="512"
     inkscape:cy="512"
     inkscape:window-x="0"
     inkscape:window-y="25"
     inkscape:window-maximized="0"
     inkscape:current-layer="U61C2" />
  <path
     style="fill:#550000;fill-opacity:1;fill-rule:nonzero;stroke:#f9f9f9;stroke-width:0.1;stroke-miterlimit:4;stroke-dasharray:none"
     d="M 691.6875 33.75 C 679.71926 33.760601 670.58378 36.13 669.53125 41.84375 C 666.51599 65.642137 665.40801 89.617151 664.53125 113.59375 C 624.46287 119.84989 584.33644 125.79833 544.28125 132.15625 C 539.48283 112.1085 535.34933 91.908111 533.40625 71.40625 C 532.40745 52.85725 444.96995 57.576 445.96875 76.125 C 448.68624 99.914696 453.63551 123.33025 459.28125 146.59375 C 456.52267 147.10415 453.7569 147.63604 451 148.15625 C 410.157 156.51325 369.533 165.8065 329.0625 175.8125 C 311.1056 180.6115 333.7306 265.26775 351.6875 260.46875 C 390.2319 249.25275 429.30735 240.0405 468.53125 231.5625 C 472.68684 230.73574 476.83977 229.89466 481 229.09375 C 486.54185 246.3641 493.15422 263.23279 500.78125 279.78125 C 508.71425 296.33225 586.71435 258.95625 578.78125 242.40625 C 574.10037 233.22146 570.15776 223.7623 566.6875 214.125 C 597.48879 209.14818 628.34841 204.47817 659.1875 199.75 C 658.29793 208.61741 657.32899 217.48934 656.3125 226.34375 C 615.57713 244.52596 574.59387 262.06363 534.09375 280.78125 C 493.80405 299.75425 454.05955 319.882 414.65625 340.625 C 410.08355 343.058 405.5103 345.5045 400.9375 347.9375 C 389.21922 354.2881 407.69629 396.04107 424.90625 415.21875 C 413.66415 418.0683 402.49748 421.17989 391.40625 424.625 C 373.75255 430.376 400.8464 513.59375 418.5 507.84375 C 453.6448 495.52975 490.2953 488.33775 526.6875 480.84375 C 540.66055 478.03236 554.62724 475.18684 568.59375 472.34375 C 568.81135 481.26782 569.04806 490.17215 569.34375 499.09375 C 552.24846 504.05053 535.29049 509.51098 518.6875 515.96875 C 518.57368 516.01766 518.48424 516.10088 518.375 516.15625 C 492.95609 514.32791 444.79679 528.2718 447.78125 542 C 455.37675 573.509 465.2596 604.403 474.75 635.375 C 483.6605 666.699 494.02695 697.5465 510.59375 725.6875 C 513.96989 731.13451 525.08906 729.15139 537.75 723.625 C 536.43844 744.82732 539.53656 765.77163 548.53125 766.4375 C 559.51863 766.93842 570.50592 767.29341 581.5 767.5625 C 581.59567 770.8022 581.66274 774.04133 581.75 777.28125 C 544.70716 781.26261 507.6976 785.94241 471.3125 794.125 C 453.3043 798.662 474.6793 883.536 492.6875 879 C 522.30745 871.18743 552.6679 866.90692 583.0625 863.34375 C 583.06443 864.15679 583.06117 864.96819 583.0625 865.78125 C 582.92511 881.90529 583.09798 898.03726 583.40625 914.15625 C 564.30351 916.5264 545.19552 918.93924 526.09375 921.34375 C 485.55285 926.01575 444.9891 930.94925 404.1875 932.65625 C 385.6286 933.80625 391.03485 1021.3052 409.59375 1020.1562 C 451.96695 1016.5853 494.16785 1011.226 536.34375 1005.875 C 607.05685 996.232 677.78475 986.8825 748.96875 981.5625 C 802.36275 977.9725 855.8797 980.0885 909.125 984.6875 C 914.8248 985.2505 920.51895 985.812 926.21875 986.375 C 944.48065 988.012 952.1994 901.91825 933.9375 900.28125 C 927.8987 899.79225 921.8512 899.3005 915.8125 898.8125 C 858.1332 894.7545 800.242 893.076 742.5 897.25 C 718.0088 899.17886 693.57114 901.51422 669.15625 904.125 C 668.79079 891.15725 668.55085 878.19459 668.53125 865.21875 C 668.49598 862.20709 668.44882 859.19894 668.40625 856.1875 C 697.17414 855.06295 725.99353 855.26746 754.78125 856.71875 C 761.62305 857.30275 768.4707 857.88475 775.3125 858.46875 C 793.4955 859.91575 800.308 774.196 782.125 772.75 C 774.3085 772.168 766.47275 771.582 758.65625 771 C 727.85475 769.73614 697.05546 769.64639 666.28125 770.8125 C 666.23868 769.60451 666.19981 768.39546 666.15625 767.1875 C 693.20837 765.80649 720.16022 762.94269 747.0625 759.8125 C 756.447 758.6185 765.8291 757.4235 775.25 756.5625 C 787.50204 755.20211 787.35473 716.40851 780.46875 691.09375 C 802.38093 695.73544 825.85447 695.73097 827.71875 686.40625 C 829.63175 676.33625 831.5545 666.263 833.75 656.25 C 840.1267 628.422 848.9857 601.1825 853.4375 572.9375 C 856.895 537.9905 852.5079 505.10475 822.75 482.21875 C 792.9355 464.85575 764.2883 460.8905 730.0625 464.8125 C 704.17104 467.86332 678.51944 472.37222 653.0625 477.875 C 652.90072 470.3407 652.77322 462.78633 652.6875 455.25 C 672.13912 451.323 691.61865 447.40486 711.09375 443.59375 C 763.32495 433.56675 815.5151 423.45925 867.8125 413.78125 C 887.6832 410.15825 907.54125 406.43525 927.40625 402.78125 C 945.53065 399.26025 928.937 313.82275 910.8125 317.34375 C 891.1088 321.37475 871.39735 325.37475 851.65625 329.21875 C 799.34565 339.53175 747.0949 350.1735 694.75 360.3125 C 680.77042 363.05493 666.81548 365.84311 652.84375 368.625 C 653.09176 352.69713 653.56549 336.7696 654.5 320.875 C 672.20356 313.1619 689.91609 305.47864 707.5625 297.625 C 739.7212 282.486 771.39535 266.424 802.71875 249.625 C 814.59243 242.98403 794.85205 200.21553 777.0625 181.375 C 802.81553 177.5197 828.61834 174.07165 854.5625 171.6875 C 863.8006 171.4375 873.38305 169.94875 882.40625 172.59375 C 900.73755 175.21775 913.0813 88.78025 894.75 86.15625 C 878.373 84.41425 862.14345 83.68675 845.71875 85.96875 C 814.20652 89.536754 782.88328 94.371032 751.59375 99.46875 C 752.4849 85.496473 753.69724 71.560794 755.71875 57.71875 C 758.03432 45.1485 718.01762 33.726679 691.6875 33.75 z M 226.15625 175.125 C 200.31576 175.37135 166.86481 183.8725 168.28125 195.40625 C 176.29315 245.93325 182.7688 296.68175 188.875 347.46875 C 199.8258 438.02975 207.4944 528.90875 214.5 619.84375 C 219.3356 688.52575 226.03285 757.0475 238.34375 824.8125 C 243.85545 852.3225 250.57195 879.58425 259.59375 906.15625 C 265.85765 923.58225 348.0138 894.052 341.75 876.625 C 333.2314 854.702 327.7667 831.774 322.5625 808.875 C 309.7851 744.304 302.95025 678.848 297.90625 613.25 C 290.43725 521.392 282.57605 429.5575 272.53125 337.9375 C 267.03855 286.8315 261.03755 235.79375 255.28125 184.71875 C 254.43139 177.7985 241.66054 174.97719 226.15625 175.125 z M 567.625 359.65625 C 567.57703 368.3117 567.55698 376.96859 567.59375 385.625 C 548.34183 389.4478 529.08398 393.24463 509.8125 396.96875 C 500.71025 398.75507 491.62763 400.53901 482.53125 402.375 C 510.59947 387.55745 538.93693 373.24527 567.625 359.65625 z M 133.875 481.40625 C 125.34226 481.45711 119.14375 483.3355 117.90625 487.8125 C 109.28435 525.0945 101.1234 562.50675 93.9375 600.09375 C 89.3806 621.88475 87.64685 643.958 86.46875 666.125 C 85.67345 684.428 171.9547 688.178 172.75 669.875 C 173.2892 651.847 174.6998 633.93475 178.375 616.21875 C 185.1106 580.93875 192.7785 545.79425 202.3125 511.15625 C 206.025 497.726 159.47322 481.25367 133.875 481.40625 z M 357.84375 484.5 C 337.10466 484.24017 283.53545 524.66463 292.9375 537.9375 C 310.6698 562.7415 331.4523 584.9665 353.25 606.1875 C 367.7757 619.9485 383.0125 632.9085 397.75 646.4375 C 411.3766 658.8405 469.84545 594.5905 456.21875 582.1875 C 442.07145 569.4075 427.5467 557.0905 413.625 544.0625 C 395.6107 526.6015 378.2196 508.37225 364.4375 487.28125 C 363.09435 485.385 360.80648 484.53712 357.84375 484.5 z M 754.1875 550.34375 C 759.02946 550.38088 763.8408 550.7415 768.59375 551.75 C 770.90085 552.239 776.7789 554.047 774.75 555.25 C 765.1005 551.678 768.88485 548.46525 766.84375 563.40625 C 762.22315 588.07525 754.899 612.11625 749.125 636.53125 C 746.6616 647.42525 744.38245 658.3815 742.09375 669.3125 C 741.86078 670.47779 741.98088 671.63361 742.4375 672.78125 C 740.49051 673.06219 738.5408 673.3426 736.59375 673.625 C 711.87963 676.7636 687.10137 679.55382 662.21875 680.84375 C 661.91678 675.23839 661.63166 669.63592 661.3125 664.03125 C 661.30442 663.87486 661.28933 663.71889 661.28125 663.5625 C 677.09562 662.48015 692.8728 663.03631 708.53125 665.5 C 726.81285 667.936 738.31285 581.7485 720.03125 579.3125 C 699.01083 576.80646 677.91183 575.74935 656.78125 577.1875 C 656.59043 573.32189 656.40236 569.45964 656.21875 565.59375 C 683.75372 559.14731 711.53817 553.83572 739.6875 550.90625 C 744.4929 550.60025 749.34554 550.30662 754.1875 550.34375 z "
     id="path22277" />
</svg>
