<?xml version="1.0" encoding="UTF-8" standalone="no"?>
<svg
   xmlns:dc="http://purl.org/dc/elements/1.1/"
   xmlns:cc="http://creativecommons.org/ns#"
   xmlns:rdf="http://www.w3.org/1999/02/22-rdf-syntax-ns#"
   xmlns:svg="http://www.w3.org/2000/svg"
   xmlns="http://www.w3.org/2000/svg"
   xmlns:sodipodi="http://sodipodi.sourceforge.net/DTD/sodipodi-0.dtd"
   xmlns:inkscape="http://www.inkscape.org/namespaces/inkscape"
   width="1024"
   height="1024"
   id="U611F"
   version="1.1"
   inkscape:version="0.48.0 r9654"
   sodipodi:docname="U+611F.svg">
  <metadata
     id="metadata20">
    <rdf:RDF>
      <cc:Work
         rdf:about="">
        <dc:format>image/svg+xml</dc:format>
        <dc:type
           rdf:resource="http://purl.org/dc/dcmitype/StillImage" />
      </cc:Work>
    </rdf:RDF>
  </metadata>
  <defs
     id="defs18" />
  <sodipodi:namedview
     pagecolor="#ffffff"
     bordercolor="#666666"
     borderopacity="1"
     objecttolerance="10"
     gridtolerance="10"
     guidetolerance="10"
     inkscape:pageopacity="0"
     inkscape:pageshadow="2"
     inkscape:window-width="640"
     inkscape:window-height="480"
     id="namedview16"
     showgrid="false"
     inkscape:zoom="0.27441406"
     inkscape:cx="512"
     inkscape:cy="512"
     inkscape:window-x="0"
     inkscape:window-y="25"
     inkscape:window-maximized="0"
     inkscape:current-layer="U611F" />
  <path
     style="fill:#550000;fill-opacity:1;fill-rule:nonzero;stroke:#f9f9f9;stroke-width:0.1;stroke-miterlimit:4;stroke-dasharray:none"
     d="M 514.25 -3.0625 C 492.74559 -3.2047152 439.00991 32.8175 447.4375 46.375 C 468.42514 80.757463 481.96082 118.9354 494.625 157.125 C 454.66749 160.24961 414.85527 165.26432 375.375 172.5625 C 334.4637 179.9895 293.81031 188.56725 253.03125 196.65625 C 241.46001 198.97078 244.1879 234.44469 252.375 259.09375 C 234.78823 257.30983 219.15826 259.10232 217.8125 266.6875 C 210.64608 308.1525 204.54832 349.791 199 391.5 C 191.16874 450.829 183.79365 510.21475 176.34375 569.59375 C 172.87807 596.69475 169.56915 623.80875 166.59375 650.96875 C 164.79835 669.26775 251.04835 677.7365 252.84375 659.4375 C 255.12427 632.8925 257.98402 606.3905 261.15625 579.9375 C 268.16485 520.9265 275.35064 461.95075 283.5625 403.09375 C 284.62124 395.59757 285.6834 388.08586 286.78125 380.59375 C 298.6303 402.37607 318.26297 424.76156 327.34375 418.96875 C 356.05471 401.28075 387.92412 389.49775 419.6875 378.59375 C 433.97856 375.45775 449.6564 366.67575 464.71875 369.71875 C 483.19469 369.97375 484.38219 282.88 465.90625 282.625 C 440.22876 283.315 415.69817 288.04075 391.5625 297.21875 C 358.11525 308.85777 324.81379 321.45641 293.4375 337.96875 C 296.5734 319.23863 300.0283 300.56437 304.0625 282 C 304.47603 279.66921 303.44727 277.38907 301.3125 275.21875 C 331.07565 268.44438 360.93671 262.20676 390.9375 256.53125 C 434.02978 248.34793 477.55968 243.38827 521.28125 240.90625 C 543.47024 309.40095 568.57025 376.82454 597 443.03125 C 586.04426 457.26344 575.10496 471.50745 564.125 485.71875 C 563.42307 446.4065 533.62182 422.20121 498.5 411.3125 C 457.80234 402.2575 416.84715 402.83125 376.875 415.90625 C 347.86629 426.45288 320.32946 439.88563 298.84375 461.375 C 285.04083 463.7641 274.51798 468.30663 274.71875 474.78125 C 275.5307 506.51825 278.59184 537.98 284 569.25 C 288.30773 590.591 286.21885 580.28925 290.21875 600.15625 C 291.77996 607.76314 307.82595 609.02863 325.5625 606.625 C 339.41335 627.4328 361.50067 648.39155 370.09375 641.6875 C 392.00193 626.4715 418.07158 619.40575 443.625 613.09375 C 462.73451 608.93565 482.05403 606.08175 501.4375 603.59375 C 518.24626 622.64702 546.40372 642.19625 554.0625 633.65625 C 559.37703 627.57925 564.68546 621.5145 570 615.4375 C 593.06514 586.93372 615.42316 557.866 637.78125 528.8125 C 650.92424 554.0726 664.90607 578.88736 679.75 603.21875 C 689.333 618.63075 761.98925 573.44325 752.40625 558.03125 C 731.35368 524.89332 712.38643 490.55879 695.09375 455.34375 C 720.62412 424.11998 746.37845 392.53663 777.5 366.6875 C 792.18106 355.2865 738.43106 286.06775 723.75 297.46875 C 699.16446 318.99818 677.32953 343.30286 656.40625 368.375 C 639.13939 326.14376 623.34545 283.38176 608.96875 240.09375 C 626.07318 240.75386 643.13411 241.95924 660.125 244.0625 C 669.40677 245.8995 665.97913 244.40425 670.96875 247.03125 C 688.67027 252.53025 714.60777 169.09275 696.90625 163.59375 C 681.94494 159.53512 684.8406 160.02962 676.0625 158.71875 C 697.24101 152.35209 738.67951 107.163 727.71875 96.28125 C 713.25224 81.90825 698.43164 67.92375 681.75 56.09375 C 666.61011 45.30175 615.73511 116.67675 630.875 127.46875 C 644.06315 135.8659 655.41798 146.48656 666.46875 157.4375 C 638.42486 154.75372 610.26497 153.64024 582.09375 153.59375 C 565.4193 101.22532 549.10527 48.153478 521.8125 0.15625 C 520.43344 -2.06225 517.7689 -3.0392284 514.25 -3.0625 z M 446.40625 491.28125 C 457.02283 491.32183 467.65272 492.73787 478.125 495.6875 C 478.23907 495.72796 478.32631 495.77168 478.4375 495.8125 C 479.16493 496.61041 480.0132 497.39646 480.96875 498.1875 C 480.76268 497.93001 480.5575 497.69829 480.34375 497.40625 C 480.07072 497.03331 479.80149 496.64349 479.5625 496.25 C 484.91129 498.46563 486.37818 500.99204 485.625 501.5 C 494.11288 506.78987 506.77242 511.59068 519.25 514.625 C 487.02196 518.80162 454.67671 522.5082 422.90625 529.5 C 404.30908 534.11507 385.74813 539.24727 367.84375 546 C 366.39143 537.0176 365.2225 527.99891 364.3125 518.96875 C 375.70523 508.22282 390.8167 502.41172 405.71875 497.375 C 419.11341 493.4195 432.75636 491.22907 446.40625 491.28125 z M 485.625 501.5 C 483.87837 500.41145 482.32261 499.30827 480.96875 498.1875 C 483.28008 501.07561 485.061 501.88037 485.625 501.5 z M 902.625 634.25 C 880.3649 634.07867 826.77044 665.97831 834.25 679.75 C 850.76698 708.571 871.78785 734.3275 893.65625 759.1875 C 897.45279 763.3575 901.26596 767.54875 905.0625 771.71875 C 917.45234 785.27875 981.35859 726.8725 968.96875 713.3125 C 965.50039 709.5315 962.03085 705.74975 958.5625 701.96875 C 940.972 682.07775 923.66979 661.56075 911.1875 637.96875 C 909.8024 635.41844 906.74724 634.28173 902.625 634.25 z M 559.21875 711.53125 C 533.64109 711.14673 486.94348 727.202 490.53125 740.65625 C 503.84636 783.17425 533.43364 814.39775 567.90625 840.96875 C 582.50055 851.99275 634.46931 783.2115 619.875 772.1875 C 600.51989 758.0495 582.6234 741.65675 575.125 718.09375 C 573.92908 713.60925 567.74464 711.65942 559.21875 711.53125 z M 227.03125 723.625 C 225.45891 723.55984 224.04376 723.94914 222.875 724.8125 C 193.32801 751.2465 170.95107 784.50175 148.4375 816.84375 C 129.76027 844.30175 111.32067 871.9025 93.71875 900.0625 C 84.176136 915.8195 158.45738 960.78925 168 945.03125 C 183.80382 917.97725 201.1737 891.9295 218.84375 866.0625 C 234.06648 844.38844 249.20263 822.26809 267.4375 802.96875 C 269.8517 826.97759 272.8147 850.8314 277.75 874.53125 C 287.66616 913.68225 308.75098 948.99425 344.53125 969.65625 C 352.28941 974.13725 360.82138 977.11775 368.96875 980.84375 C 428.84891 999.18875 491.59437 988.923 552.21875 980.125 C 615.14246 969.595 677.90744 958.0825 740.9375 948.1875 C 777.31197 941.8695 814.11472 938.99575 850.6875 934.21875 C 854.39954 933.48475 858.13172 932.734 861.84375 932 C 879.93449 927.92 860.68449 842.63875 842.59375 846.71875 C 841.12373 847.15275 839.65752 847.59625 838.1875 848.03125 C 801.34357 854.04225 764.0278 856.93 727.3125 863.875 C 664.88134 874.245 602.6771 885.89075 540.21875 896.09375 C 494.97919 902.46375 448.11069 910.576 402.71875 901.375 C 380.52878 893.748 367.78975 879.95675 362.3125 856.59375 C 356.36853 829.22575 354.60343 801.47775 352.59375 773.59375 C 350.56368 758.97661 295.48963 763.53541 274.09375 775.25 C 264.87188 753.87012 239.96965 724.16119 227.03125 723.625 z "
     id="path23457" />
</svg>
