<?xml version="1.0" encoding="utf-8" ?>

<!DOCTYPE svg PUBLIC "-//W3C//DTD SVG 1.1//EN" 
  "http://www.w3.org/Graphics/SVG/1.1/DTD/svg11.dtd">
<svg 
    xmlns="http://www.w3.org/2000/svg"
    xmlns:xlink="http://www.w3.org/1999/xlink"
    xmlns:sodipodi="http://sodipodi.sourceforge.net/DTD/sodipodi-0.dtd"
    xmlns:inkscape="http://www.inkscape.org/namespaces/inkscape"
    width="1024" height="1024" id="U613F">
<path d="m 8465.8179,61516.819 c 37.6078,-4.096 75.1193,-8.986 112.7536,-12.889 57.4257,-6.237 115.187,-6.659 172.8716,-6.065 48.3036,1.133 96.6059,1.802 144.906,0.331 27.524,-0.881 54.7545,-5.353 82.0126,-0.385 18.1452,4.953 -5.2037,90.49 -23.3488,85.537 l 0,0 c 1.7917,0.08 3.6001,0.491 5.3752,0.235 1.2243,-0.177 -2.4433,-0.445 -3.6797,-0.479 -3.0764,-0.09 -6.1558,0.03 -9.232,0.12 -16.3153,0.484 -32.6083,1.63 -48.9322,1.885 -49.3689,1.006 -98.7281,0.282 -148.0874,-1.021 -54.2753,-0.685 -108.6432,-0.445 -162.6478,5.806 -37.8103,4.211 -75.4881,9.337 -113.114,14.957 -18.6743,1.883 -27.5515,-86.148 -8.8771,-88.032 z" id="path13541" inkscape:connector-curvature="0" style="fill:#2b1100;fill-opacity:1;fill-rule:nonzero;stroke:none" transform="translate(-8192, -61440)"/><path d="m 8519.5781,61584.692 c -12.4354,49.882 -24.331,99.897 -36.0557,149.95 -19.248,82.685 -35.3237,166.056 -50.6646,249.539 -14.7187,79.635 -27.4059,159.616 -35.104,240.244 -4.5124,48.366 -3.1198,96.813 3.364,144.874 2.2707,18.208 -83.5625,28.912 -85.8332,10.704 l 0,0 c -6.3295,-54.456 -7.7532,-109.236 -2.2895,-163.895 8.3471,-82.954 21.4675,-165.267 36.7026,-247.227 15.5966,-84.664 31.9421,-169.2 50.664,-253.236 11.1812,-50.211 22.7858,-100.337 33.1501,-150.725 4.1942,-18.257 90.2606,1.515 86.0663,19.772 z" id="path13543" inkscape:connector-curvature="0" style="fill:#2b1100;fill-opacity:1;fill-rule:nonzero;stroke:none" transform="translate(-8192, -61440)"/><path d="m 8777.4728,61633.885 c -12.5837,16.328 -23.2467,33.993 -33.9429,51.579 -7.9221,13.095 -3.9014,6.531 -12.0647,19.688 -9.8604,15.838 -84.5203,-30.645 -74.6599,-46.483 l 0,0 c 7.6912,-12.307 3.8067,-6.012 11.6449,-18.89 12.2929,-20.194 24.773,-40.282 38.5922,-59.482 11.3678,-14.941 81.7982,38.648 70.4304,53.588 z" id="path13569" inkscape:connector-curvature="0" style="fill:#2b1100;fill-opacity:1;fill-rule:nonzero;stroke:none" transform="translate(-8192, -61440)"/><path d="m 8620.6406,61713.928 c 2.86,29.496 6.2898,58.939 9.7474,88.37 3.9267,25.718 6.1386,52.315 15.4692,76.816 0.5072,0.751 1.0145,1.503 1.5218,2.255 8.0386,16.919 -71.7201,54.813 -79.7587,37.894 l 0,0 c -1.7112,-3.918 -3.4224,-7.836 -5.1336,-11.754 -9.8825,-30.807 -14.7578,-62.81 -18.6653,-94.87 -3.6496,-30.059 -7.19,-60.131 -11.2747,-90.135 -1.8191,-18.688 86.2748,-27.263 88.0939,-8.576 z" id="path13579" inkscape:connector-curvature="0" style="fill:#2b1100;fill-opacity:1;fill-rule:nonzero;stroke:none" transform="translate(-8192, -61440)"/><path d="m 8577.0616,61655.235 c 29.7334,-6.795 59.9517,-10.373 90.3525,-12.212 35.6488,-1.191 71.3156,0.645 106.8825,2.947 27.9496,1.979 55.8781,4.583 83.3959,9.955 27.5539,5.257 47.1558,20.13 61.1386,44.032 10.762,24.717 8.4858,51.404 5.8312,77.489 -3.2969,29.591 -10.3989,58.522 -18.4786,87.115 -6.6345,22.572 -14.2632,44.873 -23.9727,66.315 -7.9374,16.98 -87.9812,-20.438 -80.0438,-37.417 l 0,0 c 8.3264,-16.898 14.1602,-34.902 19.7194,-52.86 6.7556,-23.6 12.6589,-47.498 15.2852,-71.96 0.758,-7.64 1.1578,-10.54 1.495,-17.972 0.2764,-6.09 -0.2321,-11.414 0.3923,-11.403 0.438,0 0.6178,0.621 0.9266,0.932 6.6596,7.106 12.5055,5.946 -0.04,2.02 -23.4714,-5.196 -47.5088,-7.037 -71.4223,-9.029 -31.8983,-2.162 -63.8907,-3.885 -95.8714,-2.938 -25.1669,1.497 -50.2603,4.419 -74.6712,10.985 -18.2432,4.438 -39.1619,-81.561 -20.9187,-85.999 z" id="path13587" inkscape:connector-curvature="0" style="fill:#2b1100;fill-opacity:1;fill-rule:nonzero;stroke:none" transform="translate(-8192, -61440)"/><path d="m 8599.1196,61755.271 c 28.1323,-9.055 57.3573,-12.741 86.7689,-13.824 13.9555,-0.413 27.7721,1.233 41.5599,3.086 18.4828,2.686 5.8211,89.815 -12.6618,87.129 l 0,0 c -8.6756,-1.419 -17.3767,-2.632 -26.2018,-2.501 -20.4993,0.444 -40.9862,2.804 -60.4349,9.661 -17.7238,6.158 -46.7541,-77.393 -29.0303,-83.551 z" id="path13589" inkscape:connector-curvature="0" style="fill:#2b1100;fill-opacity:1;fill-rule:nonzero;stroke:none" transform="translate(-8192, -61440)"/><path d="m 8581.3861,61874.504 c 31.9328,-12.282 64.6192,-21.925 98.0416,-29.132 38.0012,-7.301 76.6988,-8.607 115.2767,-8.854 19.8673,0.245 10.1606,0.01 29.1208,0.674 18.6034,0.773 14.9635,88.47 -3.6399,87.698 l 0,0 c -16.2895,-0.801 -7.8675,-0.486 -25.2676,-0.904 -32.5094,-0.06 -65.1368,0.671 -97.2049,6.615 -28.4736,6.071 -56.3313,14.383 -83.138,25.859 -17.3854,7.04 -50.5741,-74.916 -33.1887,-81.956 z" id="path13591" inkscape:connector-curvature="0" style="fill:#2b1100;fill-opacity:1;fill-rule:nonzero;stroke:none" transform="translate(-8192, -61440)"/><path d="m 8775.0829,61905.689 c 1.0696,31.686 1.5584,63.382 1.6154,95.084 -0.1197,34.11 -1.0794,68.209 -1.8688,102.308 -0.5535,18.997 -0.889,37.999 -1.2995,57 -0.1087,26.029 -15.2797,44.866 -38.9482,54.134 -12.4651,3.43 -25.2398,5.59 -37.9691,7.777 -2.6078,0.457 -5.2155,0.914 -7.8233,1.371 -18.4338,3.293 -33.9568,-83.605 -15.523,-86.898 l 0,0 c 2.6682,-0.485 5.3364,-0.971 8.0046,-1.456 7.9751,-1.452 18.4326,-3.596 25.1166,-5.023 -9.5142,4.547 -23.9861,16.895 -21.6174,29.193 0.1407,0.73 0.2231,-1.471 0.3347,-2.206 0.9489,-18.772 1.2515,-37.572 2.0877,-56.349 1.0914,-33.171 2.3381,-66.346 2.3776,-99.54 -0.1644,-30.276 -0.5975,-60.579 -2.8689,-90.783 -0.9782,-18.749 87.4034,-23.36 88.3816,-4.612 z" id="path13593" inkscape:connector-curvature="0" style="fill:#2b1100;fill-opacity:1;fill-rule:nonzero;stroke:none" transform="translate(-8192, -61440)"/><path d="m 8626.396,62059.918 c -18.7335,14.527 -35.1188,31.803 -51.3724,48.983 -14.4383,14.997 -27.0926,31.518 -39.8649,47.911 -1.0662,1.434 -2.1324,2.867 -3.1986,4.301 -11.4425,14.878 -81.577,-39.062 -70.1345,-53.94 l 0,0 c 1.3999,-1.773 2.7999,-3.546 4.1998,-5.318 14.7062,-18.105 29.1829,-36.428 45.4094,-53.228 19.2704,-20.295 38.794,-40.452 60.342,-58.369 14.7769,-11.586 69.3961,58.073 54.6192,69.66 z" id="path13599" inkscape:connector-curvature="0" style="fill:#2b1100;fill-opacity:1;fill-rule:nonzero;stroke:none" transform="translate(-8192, -61440)"/><path d="m 8857.1714,61987.808 c 22.8209,13.267 46.4543,25.053 69.9513,37.057 10.7746,5.223 21.2214,11.049 31.5818,17.037 16.0874,9.521 -28.7925,85.358 -44.8799,75.837 l 0,0 c -8.7331,-5.338 -17.6254,-10.391 -26.811,-14.924 -24.3632,-12.628 -48.8358,-25.045 -73.1091,-37.848 -16.3679,-9.178 26.8989,-86.337 43.2669,-77.159 z" id="path13601" inkscape:connector-curvature="0" style="fill:#2b1100;fill-opacity:1;fill-rule:nonzero;stroke:none" transform="translate(-8192, -61440)"/><path d="m 8549.8938,62288.143 c -12.9532,19.151 -24.5752,39.167 -36.01,59.25 -5.6044,9.884 -10.8695,19.953 -16.4874,29.828 -9.5462,16.167 -85.7552,-28.834 -76.209,-45.001 l 0,0 c 5.8285,-9.334 10.8933,-19.122 16.5016,-28.588 12.4639,-21.525 25.1295,-42.934 38.2642,-64.057 10.303,-15.686 84.2436,32.883 73.9406,48.568 z" id="path13611" inkscape:connector-curvature="0" style="fill:#2b1100;fill-opacity:1;fill-rule:nonzero;stroke:none" transform="translate(-8192, -61440)"/><path d="m 8629.3694,62257.036 c 0.9457,18.227 2.7118,36.536 9.2005,53.701 3.9879,8.409 10.7255,8.51 19.0488,9.943 30.1688,2.847 60.5618,0.444 90.7445,-1.085 36.0444,-1.35 71.7756,-6.07 107.3022,-12.054 25.8472,-4.467 51.3677,-10.595 76.467,-18.187 13.8745,-4.191 27.3446,-9.556 40.7387,-15.06 0.6688,-0.339 1.3375,-0.678 2.0063,-1.017 -0.2435,0.04 -0.4871,0.09 -0.7306,0.131 -1.6227,1.033 -3.2454,2.066 -4.8682,3.098 14.1657,-12.419 72.7112,54.359 58.5456,66.778 l 0,0 c -7.058,5.293 -13.8034,10.441 -22.2578,13.32 -16.0125,6.162 -32.058,12.288 -48.5491,17.074 -28.6372,8.279 -57.6719,15.133 -87.098,19.987 -38.7738,6.314 -77.7544,11.329 -117.0479,12.897 -38.706,2.051 -77.8795,5.604 -116.3684,-0.679 -39.0033,-10.62 -65.5789,-27.78 -81.1041,-66.537 -8.1062,-24.68 -12.5591,-50.015 -14.3226,-75.947 -1.3499,-18.729 86.9432,-25.093 88.2931,-6.363 z" id="path13613" inkscape:connector-curvature="0" style="fill:#2b1100;fill-opacity:1;fill-rule:nonzero;stroke:none" transform="translate(-8192, -61440)"/><path d="m 8751.3486,62208.91 c 16.6329,15.885 35.7297,28.342 56.4952,38.031 16.7558,8.02 -21.052,87.007 -37.8078,78.987 l 0,0 c -28.17,-13.706 -54.4145,-30.44 -77.9059,-51.3 -13.9409,-12.562 45.2776,-78.28 59.2185,-65.718 z" id="path13615" inkscape:connector-curvature="0" style="fill:#2b1100;fill-opacity:1;fill-rule:nonzero;stroke:none" transform="translate(-8192, -61440)"/><path d="m 9061.9389,62164.228 c 6.2358,15.958 14.8984,30.787 23.4127,45.599 9.2724,16.155 -66.8822,59.865 -76.1546,43.71 l 0,0 c -10.649,-18.578 -21.1945,-37.259 -29.6416,-56.971 -6.8598,-17.476 75.5237,-49.814 82.3835,-32.338 z" id="path13617" inkscape:connector-curvature="0" style="fill:#2b1100;fill-opacity:1;fill-rule:nonzero;stroke:none" transform="translate(-8192, -61440)"/></svg>