<?xml version="1.0" encoding="UTF-8" standalone="no"?>
<svg
   xmlns:dc="http://purl.org/dc/elements/1.1/"
   xmlns:cc="http://creativecommons.org/ns#"
   xmlns:rdf="http://www.w3.org/1999/02/22-rdf-syntax-ns#"
   xmlns:svg="http://www.w3.org/2000/svg"
   xmlns="http://www.w3.org/2000/svg"
   xmlns:sodipodi="http://sodipodi.sourceforge.net/DTD/sodipodi-0.dtd"
   xmlns:inkscape="http://www.inkscape.org/namespaces/inkscape"
   width="1024"
   height="1024"
   id="U6210"
   version="1.1"
   inkscape:version="0.48.0 r9654"
   sodipodi:docname="U+6210.svg">
  <metadata
     id="metadata13">
    <rdf:RDF>
      <cc:Work
         rdf:about="">
        <dc:format>image/svg+xml</dc:format>
        <dc:type
           rdf:resource="http://purl.org/dc/dcmitype/StillImage" />
      </cc:Work>
    </rdf:RDF>
  </metadata>
  <defs
     id="defs11" />
  <sodipodi:namedview
     pagecolor="#ffffff"
     bordercolor="#666666"
     borderopacity="1"
     objecttolerance="10"
     gridtolerance="10"
     guidetolerance="10"
     inkscape:pageopacity="0"
     inkscape:pageshadow="2"
     inkscape:window-width="640"
     inkscape:window-height="480"
     id="namedview9"
     showgrid="false"
     inkscape:zoom="0.27441406"
     inkscape:cx="512"
     inkscape:cy="512"
     inkscape:window-x="0"
     inkscape:window-y="25"
     inkscape:window-maximized="0"
     inkscape:current-layer="U6210" />
  <path
     style="fill:#800000;fill-opacity:1;fill-rule:nonzero;stroke:#f9f9f9;stroke-width:0.1;stroke-miterlimit:4;stroke-dasharray:none"
     d="M 758.84375 40.40625 C 740.31035 40.173363 693.99095 98.384964 707.1875 109.28125 C 723.0699 122.18565 737.0369 137.1681 751 152.0625 C 763.4638 165.4404 826.5263 106.6904 814.0625 93.3125 C 797.6091 75.5547 781.04945 57.85095 762.90625 41.78125 C 761.7879 40.857844 760.41438 40.425986 758.84375 40.40625 z M 532.78125 122.6875 C 506.52329 122.74756 466.65095 134.28412 469 146.8125 C 478.2532 186.12328 490.41118 224.66178 503.1875 262.96875 C 480.13834 265.10337 457.10348 267.35621 434.0625 269.5625 C 392.56929 273.83252 350.79201 277.39223 309.78125 285.21875 C 297.0082 284.18511 286.88209 285.87784 285.40625 291.78125 C 275.44265 340.04295 267.6093 388.7151 259.5 437.3125 C 246.6954 515.5024 231.25985 593.21385 215.46875 670.84375 C 204.23075 726.43115 191.40595 781.8499 185.90625 838.375 C 184.38865 856.6548 270.57625 863.81105 272.09375 845.53125 C 275.54955 792.15055 288.2321 739.90825 298.0625 687.46875 C 301.38662 670.77946 304.69726 654.06881 308 637.375 C 309.81392 637.543 311.41964 637.17209 312.71875 636.1875 C 334.76475 619.9104 360.9263 611.11205 387 603.71875 C 404.7583 601.11935 436.99635 589.5371 450.59375 607.625 C 459.10815 628.7651 458.9655 651.8466 459.0625 674.25 C 457.7894 713.5543 454.1184 752.7332 452.0625 792 L 451.625 807.0625 C 451.27012 825.31508 536.54186 827.12481 538.375 809.21875 C 547.97267 816.839 556.84305 820.84383 561.25 816.9375 C 590.9121 789.0587 614.4355 755.78095 638.0625 722.78125 C 650.83946 704.68774 663.50267 686.50947 676.1875 668.34375 C 695.64032 702.67405 716.48224 736.21515 738.8125 768.8125 C 759.3964 796.5313 749.122 783.4015 769.5 808.25 C 781.2385 822.2399 847.20735 766.89625 835.46875 752.90625 C 818.03085 732.69755 826.9771 743.59615 808.8125 720.09375 C 779.85786 679.21378 753.74684 636.49819 730.09375 592.40625 C 741.72328 576.47649 753.54053 560.69649 765.65625 545.125 C 789.12145 516.439 812.8099 486.18385 844.875 466.59375 C 861.1839 457.68425 819.1839 380.80925 802.875 389.71875 C 761.0589 415.41325 729.8617 453.84995 699.5625 491.65625 C 695.67066 496.76638 691.81227 501.88601 687.96875 507.03125 C 662.76772 452.1143 639.19569 396.47401 618.5 339.71875 C 622.22905 339.56746 625.95669 339.43481 629.6875 339.3125 C 652.4859 339.6179 642.11575 338.9713 660.84375 340.75 C 679.18325 341.9864 684.99575 255.549 666.65625 254.3125 C 640.82145 253.0547 654.36405 253.3153 626.09375 253.6875 C 614.06328 254.29601 602.0467 255.03025 590.03125 255.84375 C 576.51672 214.64828 563.34557 173.21761 554.90625 130.6875 C 553.8385 124.99278 544.71668 122.6602 532.78125 122.6875 z M 531.375 345.46875 C 558.13795 420.30937 589.44472 493.40377 623.03125 565.4375 C 626.01473 571.78699 629.02729 578.09984 632.09375 584.40625 C 611.09145 614.16737 590.29802 644.0642 569.0625 673.65625 C 560.22838 684.47046 552.08008 696.14752 543.65625 707.625 C 544.28755 696.32396 544.83317 685.00623 545.15625 673.6875 C 544.74415 623.1196 540.53505 572.53655 500.40625 536.59375 C 493.31815 532.16245 486.6724 526.9062 479.125 523.3125 C 442.6836 505.9608 400.95865 512.1385 363.28125 520.875 C 351.56665 524.25361 339.91185 527.89183 328.4375 532 C 333.46838 505.26599 338.35002 478.48696 343.03125 451.6875 C 348.20971 422.60539 353.17564 393.45366 358.9375 364.46875 C 386.86286 359.95496 415.09991 357.20019 443.15625 354.03125 C 472.53347 350.97337 501.94601 347.99955 531.375 345.46875 z "
     id="path20927" />
</svg>
