<?xml version="1.0" encoding="UTF-8" standalone="no"?>
<svg
   xmlns:dc="http://purl.org/dc/elements/1.1/"
   xmlns:cc="http://creativecommons.org/ns#"
   xmlns:rdf="http://www.w3.org/1999/02/22-rdf-syntax-ns#"
   xmlns:svg="http://www.w3.org/2000/svg"
   xmlns="http://www.w3.org/2000/svg"
   xmlns:sodipodi="http://sodipodi.sourceforge.net/DTD/sodipodi-0.dtd"
   xmlns:inkscape="http://www.inkscape.org/namespaces/inkscape"
   width="1024"
   height="1024"
   id="U626C"
   version="1.1"
   inkscape:version="0.48.0 r9654"
   sodipodi:docname="U+626C.svg">
  <metadata
     id="metadata13">
    <rdf:RDF>
      <cc:Work
         rdf:about="">
        <dc:format>image/svg+xml</dc:format>
        <dc:type
           rdf:resource="http://purl.org/dc/dcmitype/StillImage" />
      </cc:Work>
    </rdf:RDF>
  </metadata>
  <defs
     id="defs11" />
  <sodipodi:namedview
     pagecolor="#ffffff"
     bordercolor="#666666"
     borderopacity="1"
     objecttolerance="10"
     gridtolerance="10"
     guidetolerance="10"
     inkscape:pageopacity="0"
     inkscape:pageshadow="2"
     inkscape:window-width="640"
     inkscape:window-height="480"
     id="namedview9"
     showgrid="false"
     inkscape:zoom="0.27441406"
     inkscape:cx="512"
     inkscape:cy="512"
     inkscape:window-x="0"
     inkscape:window-y="25"
     inkscape:window-maximized="0"
     inkscape:current-layer="U626C" />
  <path
     style="fill:#916f6f;fill-opacity:1;fill-rule:nonzero;stroke:#f9f9f9;stroke-width:0.1;stroke-miterlimit:4;stroke-dasharray:none"
     d="M 309.46875 172.84375 C 299.13911 172.73764 291.45348 174.80103 290.21875 179.9375 C 282.54634 217.7585 278.2287 256.08725 273.96875 294.40625 C 272.44876 311.6087 270.68331 328.78336 268.75 345.9375 C 260.35072 345.91899 251.96267 345.9113 243.5625 345.96875 C 210.6322 345.78875 177.5549 345.63175 144.875 341.09375 C 126.28437 338.56575 114.34687 426.19075 132.9375 428.71875 C 169.57658 432.41775 206.42961 432.795 243.21875 432.875 C 248.01825 432.81845 252.82611 432.76375 257.625 432.75 C 253.41305 462.61005 248.87876 492.44533 244.3125 522.25 C 241.01515 541.40062 238.16574 560.58237 235.65625 579.8125 C 226.90457 582.5021 218.1631 585.20404 209.40625 587.875 C 165.95528 600.932 122.53731 614.1615 79.71875 629.1875 C 62.194684 635.8045 93.382188 718.4305 110.90625 711.8125 C 148.57196 696.72087 187.39431 684.73159 226.1875 672.90625 C 224.25713 698.37532 222.79297 723.88915 221.71875 749.4375 C 220.39214 779.9965 220.94549 811.58 211.3125 841 C 211.23138 840.673 211.1436 840.35825 211.0625 840.03125 C 203.49477 857.22125 284.55727 892.90975 292.125 875.71875 C 293.50942 872.06275 294.86558 868.407 296.25 864.75 C 305.60722 828.08 307.78955 790.251 307.71875 752.5 C 308.7683 716.87451 310.61049 681.32504 313.6875 645.875 C 335.69157 638.96617 357.65668 631.93649 379.53125 624.625 C 401.50817 616.667 391.06912 620.5365 410.90625 613.0625 C 428.23391 606.3495 396.57766 524.663 379.25 531.375 C 361.31667 538.529 370.61952 534.8915 351.375 542.3125 C 342.6783 545.3614 333.95355 548.31588 325.21875 551.25 C 326.08031 545.87401 326.96677 540.4936 327.90625 535.125 C 333.08418 501.76867 338.21363 468.40872 343.0625 435 C 344.97878 435.10807 346.89651 435.19605 348.8125 435.3125 C 358.4998 436.4065 368.15982 436.377 377.875 436 C 396.60575 434.626 390.137 346.3135 371.40625 347.6875 C 366.46725 349.57858 360.05609 347.08449 354.84375 347.40625 C 356.55903 333.13826 358.15653 318.83037 359.625 304.53125 C 363.99586 269.72225 368.10429 234.79 376.3125 200.625 C 379.46791 187.49847 335.86672 173.11491 309.46875 172.84375 z M 703.75 246.78125 C 702.01646 246.86035 700.20605 247.14716 698.34375 247.625 C 682.10044 248.295 665.8553 249.02975 649.625 249.96875 C 620.03107 251.86675 590.36854 253.13725 560.90625 256.65625 C 530.62547 260.84225 499.95982 265.5745 472.03125 278.6875 C 455.27212 287.1485 495.14712 366.1485 511.90625 357.6875 C 530.9208 348.7765 552.24012 346.16075 572.84375 343.34375 C 578.53492 342.69764 584.23328 342.18353 589.9375 341.6875 C 575.52598 359.94399 561.56277 378.55687 547.96875 397.4375 C 534.75719 416.9985 519.51146 435.21275 509.5625 456.71875 C 509.06795 466.06275 504.64032 476.054 508.09375 484.75 C 519.09785 512.46002 534.49748 519.37973 554.03125 519.4375 C 541.32152 548.79401 532.17274 579.75415 522.59375 610.1875 C 504.89236 666.0485 489.46544 722.63725 475.46875 779.53125 C 469.37895 804.53825 462.63038 829.46025 461.75 855.28125 C 462.23282 874.06725 550.79532 871.786 550.3125 853 C 548.72615 856.286 549.23806 855.67625 550.25 847.28125 C 552.18974 831.18825 556.37584 815.49225 559.6875 799.65625 C 572.43471 744.66725 587.14398 690.1105 604.65625 636.4375 C 615.64267 602.6325 625.75201 567.6905 643.46875 536.6875 C 646.64334 531.87456 641.86792 523.94437 633.4375 515.71875 C 655.1272 517.05463 676.73026 519.271 698.4375 520.46875 C 722.56592 521.26175 746.69024 522.18925 770.6875 524.90625 C 776.31336 525.18439 785.37753 526.62258 791.6875 528.3125 C 791.75664 529.2604 792.11239 530.99158 792.59375 533.8125 C 795.54799 568.0205 789.58159 602.43025 785.21875 636.28125 C 778.01955 689.82925 771.42028 743.47325 766.5 797.28125 C 761.95573 817.8354 766.09687 843.55394 760.59375 864.625 C 768.69613 848.29179 788.8827 847.54115 806.34375 847.84375 C 809.11994 847.89186 811.48067 849.70826 813.90625 851.25 C 796.79119 846.05225 743.42235 905.87319 756.625 917.90625 C 763.02929 922.31125 768.22613 929.577 775.84375 931.125 C 810.01606 938.068 831.25939 927.47425 842.9375 896.53125 C 850.37508 866.47825 850.68122 835.47175 852.96875 804.71875 C 857.19312 752.21075 863.30436 699.87175 870.71875 647.71875 C 876.69527 604.56875 884.67644 560.6745 879.15625 517.0625 C 874.03289 491.6845 865.14086 468.78875 842.40625 454.09375 C 822.87373 443.64175 802.11477 438.87525 780.03125 437.40625 C 754.52637 434.81425 728.93154 433.677 703.3125 432.875 C 680.06373 431.56993 656.92845 428.97604 633.6875 427.65625 C 650.7662 404.46206 668.70011 381.92708 687.84375 360.375 C 693.5636 353.87 705.54939 341.6335 709.71875 336.8125 C 747.16765 322.51562 738.99861 245.17286 703.75 246.78125 z M 702.46875 336.21875 C 702.82251 336.22339 703.17749 336.246 703.53125 336.25 C 703.55185 336.282 703.63615 336.34375 703.59375 336.34375 C 703.16862 336.3002 702.87557 336.26104 702.46875 336.21875 z M 592.59375 486 C 592.49052 486.89786 592.37985 487.75877 592.28125 488.71875 C 592.00863 488.60787 591.73903 488.48165 591.46875 488.375 C 591.78948 487.60797 592.1705 486.80897 592.59375 486 z M 693 542.8125 C 685.99698 543.06144 681.02735 544.89009 679.8125 548.8125 C 669.56471 585.2415 660.22233 621.899 651.625 658.75 C 640.54508 709.977 629.85253 761.2705 619.6875 812.6875 C 618.46416 818.8805 617.15132 825.07425 616 831.28125 C 611.80424 853.90325 614.49017 841.16875 610.96875 860.96875 C 610.85825 861.59073 609.74258 867.63508 608.84375 871.6875 L 616.59375 858.84375 C 611.04147 876.03157 668.1827 932.10328 680.875 919.46875 C 684.57764 913.61175 688.29735 907.76325 692 901.90625 C 698.8028 878.09925 699.63606 853.147 704.96875 829 C 714.23683 778.728 724.46368 728.63925 735.75 678.78125 C 744.22534 643.91025 753.20011 609.10775 764.3125 574.96875 C 768.65124 560.96094 718.01079 541.92344 693 542.8125 z M 608.84375 871.6875 L 608.21875 872.71875 C 608.15295 873.46375 607.75611 875.67575 608 874.96875 C 608.20336 874.3795 608.51857 873.15359 608.84375 871.6875 z M 760.59375 864.65625 C 759.43743 866.993 758.52595 869.6395 757.90625 872.65625 C 758.99647 870.08734 759.87414 867.40659 760.59375 864.65625 z "
     id="path13007" />
</svg>
