<?xml version="1.0" encoding="utf-8" ?>

<!DOCTYPE svg PUBLIC "-//W3C//DTD SVG 1.1//EN" 
  "http://www.w3.org/Graphics/SVG/1.1/DTD/svg11.dtd">
<svg 
    xmlns="http://www.w3.org/2000/svg"
    xmlns:xlink="http://www.w3.org/1999/xlink"
    xmlns:sodipodi="http://sodipodi.sourceforge.net/DTD/sodipodi-0.dtd"
    xmlns:inkscape="http://www.inkscape.org/namespaces/inkscape"
    width="1024" height="1024" id="U62FE">
<path d="m 10316.405,43443.325 c 42.576,-12.091 86.455,-18.221 130.35,-23.031 42.517,-4.201 85.246,-3.565 127.877,-2.168 18.465,0.769 14.838,87.815 -3.627,87.045 l 0,0 c -38.22,-1.958 -76.564,-2.987 -114.723,0.84 -38.225,4.315 -76.638,9.613 -113.298,21.741 -17.91,5.638 -44.489,-78.789 -26.579,-84.427 z" id="path12193" inkscape:connector-curvature="0" style="fill:#a02c2c;fill-opacity:1;fill-rule:nonzero;stroke:#f9f9f9;stroke-width:0.1;stroke-miterlimit:4;stroke-dasharray:none" transform="translate(-10240, -43008)"/><path d="m 10559.218,43276.211 c -19.714,30.817 -22.836,68.87 -27.061,104.259 -6.867,82.961 -3.925,166.324 -0.958,249.392 3.232,76.239 6.865,152.459 8.945,228.74 1.192,39.906 1.267,79.839 -3.932,119.462 -2.735,18.369 -89.327,5.476 -86.592,-12.893 l 0,0 c 6.06,-34.501 4.947,-69.698 4.793,-104.597 -1.415,-75.956 -4.648,-151.851 -7.669,-227.757 -2.992,-87.291 -6.08,-174.843 0.339,-262.059 5.689,-51.844 12.268,-105.35 42.74,-149.369 11.63,-14.721 81.025,40.101 69.395,54.822 z" id="path12195" inkscape:connector-curvature="0" style="fill:#a02c2c;fill-opacity:1;fill-rule:nonzero;stroke:#f9f9f9;stroke-width:0.1;stroke-miterlimit:4;stroke-dasharray:none" transform="translate(-10240, -43008)"/><path d="m 10263.847,43773.909 c 26.313,-36.934 64.967,-60.936 103.367,-83.502 55.631,-30.464 113.666,-56.229 171.841,-81.38 24.54,-10.459 49.197,-20.643 73.843,-30.851 17.003,-6.948 49.755,73.206 32.752,80.153 l 0,0 c -24.265,9.779 -48.536,19.546 -72.652,29.691 -54.904,23.444 -109.608,47.675 -161.834,76.706 -26.422,15.743 -54.428,31.668 -72.877,57.037 -10.151,15.791 -84.591,-32.063 -74.44,-47.854 z" id="path12197" inkscape:connector-curvature="0" style="fill:#a02c2c;fill-opacity:1;fill-rule:nonzero;stroke:#f9f9f9;stroke-width:0.1;stroke-miterlimit:4;stroke-dasharray:none" transform="translate(-10240, -43008)"/><path d="m 10933.658,43221.555 c -28.364,37.864 -58.696,74.196 -88.959,110.542 -43.797,52.576 -87.587,105.157 -131.931,157.273 -27.531,31.37 -54.361,63.462 -83.503,93.372 -11.749,13.044 -22.983,16.29 -39.723,21.949 -18.716,2.176 -28.974,-86.052 -10.258,-88.228 l 0,0 c -16.906,6.972 -21.064,10.777 -12.039,3.987 28.518,-27.27 53.933,-57.658 80.368,-86.889 44.349,-51.425 87.832,-103.583 130.879,-156.102 28.331,-34.643 56.966,-69.183 82.418,-106.033 10.634,-15.432 83.382,34.697 72.748,50.129 z" id="path12209" inkscape:connector-curvature="0" style="fill:#a02c2c;fill-opacity:1;fill-rule:nonzero;stroke:#f9f9f9;stroke-width:0.1;stroke-miterlimit:4;stroke-dasharray:none" transform="translate(-10240, -43008)"/><path d="m 10901.757,43219.624 c 27.316,25.576 53.684,52.136 80.814,77.913 38.656,35.925 78.492,70.538 117.12,106.495 30.276,28.562 59.079,58.641 89.88,86.644 8.995,6.939 17.111,16.429 28.095,20.323 16.655,8.543 -23.621,87.057 -40.276,78.513 l 0,0 c -17.168,-9.496 -32.866,-20.865 -46.999,-34.574 -30.615,-28.516 -59.486,-58.806 -89.705,-87.737 -38.604,-36.191 -78.556,-70.88 -117.508,-106.69 -25.961,-24.31 -51.209,-49.433 -78.022,-72.801 -14.444,-12.007 42.158,-80.093 56.601,-68.086 z" id="path12213" inkscape:connector-curvature="0" style="fill:#a02c2c;fill-opacity:1;fill-rule:nonzero;stroke:#f9f9f9;stroke-width:0.1;stroke-miterlimit:4;stroke-dasharray:none" transform="translate(-10240, -43008)"/><path d="m 10734.981,43484.207 c 39.228,-7.292 78.912,-11.373 118.652,-14.545 45.962,-3.505 92.064,-2.452 137.883,2.192 13.61,1.377 26.905,4.363 40.117,7.76 18.03,5.013 -5.603,90.003 -23.632,84.99 l 0,0 c -8.516,-2.718 -17.188,-4.766 -26.076,-5.908 -40.232,-4.888 -80.813,-5.86 -121.248,-2.736 -36.165,3.023 -72.387,6.731 -107.825,14.853 -18.371,3.791 -36.242,-82.815 -17.871,-86.606 z" id="path12215" inkscape:connector-curvature="0" style="fill:#a02c2c;fill-opacity:1;fill-rule:nonzero;stroke:#f9f9f9;stroke-width:0.1;stroke-miterlimit:4;stroke-dasharray:none" transform="translate(-10240, -43008)"/><path d="m 10739.819,43704.094 c 4.146,26.457 9.462,52.645 16.636,78.444 5.472,19.524 14.324,37.652 25.132,54.711 1.123,1.521 2.246,3.042 3.369,4.563 10.723,15.347 -61.622,65.896 -72.345,50.549 l 0,0 c -2.012,-2.964 -4.023,-5.929 -6.034,-8.893 -14.743,-24.394 -27.028,-50.128 -34.541,-77.739 -7.456,-27.419 -13.239,-55.168 -18.772,-83.03 -3.947,-18.361 82.608,-36.966 86.555,-18.605 z" id="path12217" inkscape:connector-curvature="0" style="fill:#a02c2c;fill-opacity:1;fill-rule:nonzero;stroke:#f9f9f9;stroke-width:0.1;stroke-miterlimit:4;stroke-dasharray:none" transform="translate(-10240, -43008)"/><path d="m 10735.851,43697.968 c 32.104,-25.184 71.781,-35.017 111.076,-42.424 39.025,-6.454 78.592,-6.625 117.908,-3.486 25.33,2.093 49.872,8.491 73.572,17.433 31.708,12.498 44.381,33.948 48.22,67.004 -0.204,27.77 -9.763,53.979 -19.021,79.777 -8.245,22.36 -16.213,44.814 -26.726,66.224 -2.138,3.577 -4.276,7.153 -6.414,10.729 -9.874,15.897 -84.812,-30.648 -74.938,-46.544 l 0,0 c 0.882,-1.287 1.765,-2.574 2.647,-3.861 9.453,-17.899 15.355,-37.399 22.731,-56.192 5.225,-14.596 10.431,-29.255 13.576,-44.45 1.344,1.857 2.266,4.009 3.706,5.792 0.745,0.921 12.859,9.598 4.184,3.832 -15.714,-6.423 -32.098,-10.892 -49.052,-12.51 -31.465,-2.965 -63.184,-3.121 -94.486,1.846 -23.395,4.264 -47.905,8.953 -67.872,22.675 -13.968,12.539 -73.079,-53.306 -59.111,-65.845 z" id="path12219" inkscape:connector-curvature="0" style="fill:#a02c2c;fill-opacity:1;fill-rule:nonzero;stroke:#f9f9f9;stroke-width:0.1;stroke-miterlimit:4;stroke-dasharray:none" transform="translate(-10240, -43008)"/><path d="m 10734.785,43852.831 c 35.338,-10.171 71.819,-15.402 108.177,-20.351 41.592,-5.599 83.49,-8.147 125.424,-8.971 19.09,-0.244 38.169,0.55 57.222,1.652 18.706,1.323 12.471,89.503 -6.235,88.181 l 0,0 c -16.552,-1.411 -33.143,-2.488 -49.764,-2.491 -38.379,0.298 -76.737,2.466 -114.789,7.677 -30.788,4.298 -61.844,8.586 -91.53,18.142 -17.785,6.047 -46.29,-77.792 -28.505,-83.839 z" id="path12221" inkscape:connector-curvature="0" style="fill:#a02c2c;fill-opacity:1;fill-rule:nonzero;stroke:#f9f9f9;stroke-width:0.1;stroke-miterlimit:4;stroke-dasharray:none" transform="translate(-10240, -43008)"/></svg>