<?xml version="1.0" encoding="UTF-8" standalone="no"?>
<svg
   xmlns:dc="http://purl.org/dc/elements/1.1/"
   xmlns:cc="http://creativecommons.org/ns#"
   xmlns:rdf="http://www.w3.org/1999/02/22-rdf-syntax-ns#"
   xmlns:svg="http://www.w3.org/2000/svg"
   xmlns="http://www.w3.org/2000/svg"
   xmlns:sodipodi="http://sodipodi.sourceforge.net/DTD/sodipodi-0.dtd"
   xmlns:inkscape="http://www.inkscape.org/namespaces/inkscape"
   width="1024"
   height="1024"
   id="U6211"
   version="1.1"
   inkscape:version="0.48.0 r9654"
   sodipodi:docname="U+6211.svg">
  <metadata
     id="metadata14">
    <rdf:RDF>
      <cc:Work
         rdf:about="">
        <dc:format>image/svg+xml</dc:format>
        <dc:type
           rdf:resource="http://purl.org/dc/dcmitype/StillImage" />
      </cc:Work>
    </rdf:RDF>
  </metadata>
  <defs
     id="defs12" />
  <sodipodi:namedview
     pagecolor="#ffffff"
     bordercolor="#666666"
     borderopacity="1"
     objecttolerance="10"
     gridtolerance="10"
     guidetolerance="10"
     inkscape:pageopacity="0"
     inkscape:pageshadow="2"
     inkscape:window-width="640"
     inkscape:window-height="480"
     id="namedview10"
     showgrid="false"
     inkscape:zoom="0.27441406"
     inkscape:cx="512"
     inkscape:cy="512"
     inkscape:window-x="0"
     inkscape:window-y="25"
     inkscape:window-maximized="0"
     inkscape:current-layer="U6211" />
  <path
     style="fill:#501616;fill-opacity:1;fill-rule:nonzero;stroke:#f9f9f9;stroke-width:0.1;stroke-miterlimit:4;stroke-dasharray:none"
     d="M 722.40625 183.5625 C 703.03778 184.18454 654.96632 238.56353 667.4375 250.09375 C 697.9703 276.13875 725.51505 305.2745 751.46875 335.8125 C 763.36515 349.7895 829.2715 293.69475 817.375 279.71875 C 789.1239 246.57175 759.24025 214.96975 727.40625 185.21875 C 726.11614 184.02606 724.40988 183.49815 722.40625 183.5625 z M 494.1875 242.1875 C 478.52418 242.04063 465.63869 244.8835 464.78125 251.875 C 460.50705 299.142 466.5625 346.29975 473.5625 392.96875 C 480.13529 434.11128 490.57378 474.17013 503.84375 513.28125 C 486.19756 516.43764 468.6098 519.8701 451.0625 523.625 C 429.59081 528.32601 408.14737 533.20296 386.78125 538.34375 C 384.98102 526.24868 383.10934 514.16709 381.15625 502.09375 C 373.47095 454.05975 364.2688 406.0085 360.9375 357.4375 C 361.02595 345.49699 325.21842 340.89492 299.15625 343.96875 C 307.10071 332.00836 315.80009 320.56796 325.84375 310.1875 C 338.88855 296.7085 275.32605 235.2075 262.28125 248.6875 C 234.05305 279.5035 213.6399 316.06825 194 352.65625 C 167.8258 401.69525 144.6658 452.1575 127.1875 504.9375 C 119.4663 533.9015 122.70725 519.627 117.40625 547.75 C 114.21415 565.988 200.1828 581.0505 203.375 562.8125 C 206.4597 542.9475 204.43425 553.35975 209.71875 531.59375 C 224.75135 483.55175 246.1664 438.03925 270.0625 393.78125 C 271.83263 390.53382 273.62153 387.2823 275.40625 384.03125 C 280.81166 428.22843 289.49493 472.05167 296.90625 515.9375 C 299.37217 530.54817 301.6874 545.19282 303.875 559.84375 C 275.14709 567.87287 246.575 576.51179 218.25 585.96875 C 175.9661 599.86775 133.9319 614.473 92.125 629.75 C 74.7094 636.787 107.86565 718.88075 125.28125 711.84375 C 164.74105 695.40275 205.062 681.09825 245.5 667.28125 C 268.5916 659.34505 291.84199 652.00482 315.25 645.15625 C 317.57578 664.69161 319.71757 684.24368 321.75 703.8125 C 320.39348 704.55977 319.04239 705.31208 317.6875 706.0625 C 267.2955 734.0785 216.64555 762.306 170.71875 797.375 C 156.44005 809.493 213.56505 876.8065 227.84375 864.6875 C 259.24961 838.86482 294.06836 817.65597 329.34375 797.46875 C 330.71911 826.12094 330.81878 854.81162 327.8125 883.375 C 326.4782 888.43 326.3336 894.9695 322.6875 899.1875 C 315.1103 916.3195 395.8602 952.03825 403.4375 934.90625 C 409.0768 920.67225 413.76465 906.41975 414.84375 890.96875 C 418.26809 844.70665 416.09429 798.3654 412.21875 752.1875 C 452.87541 731.33593 494.31575 712.12109 536.46875 694.4375 C 563.41495 683.6145 550.50855 688.713 575.15625 679.125 C 576.21414 678.69968 577.08605 677.98153 577.78125 677.03125 C 590.20792 698.02324 603.5683 718.42084 617.65625 738.3125 C 597.00878 769.01692 576.7256 799.95648 556.40625 830.875 C 539.24455 856.686 522.18525 882.61 502.09375 906.25 C 490.40165 920.595 558.02675 975.72 569.71875 961.375 C 590.82835 934.645 609.73935 906.36575 628.15625 877.71875 C 642.93875 854.90867 657.7579 832.12572 672.78125 809.46875 C 674.35982 811.34657 675.94143 813.22507 677.53125 815.09375 C 703.54795 844.93675 732.93875 871.25425 766.03125 892.90625 C 781.73795 902.81125 828.42545 828.78 812.71875 818.875 C 786.11795 803.11 763.674 781.675 742.8125 759 C 736.13595 751.32268 729.56958 743.55151 723.125 735.6875 C 730.05284 725.89629 737.05392 716.16941 744.15625 706.5 C 769.28215 672.999 794.65115 638.6965 827.78125 612.5625 C 834.24769 607.75417 828.17487 591.89725 817.96875 576.28125 C 819.0404 576.42061 820.11664 576.53765 821.1875 576.6875 C 839.6732 578.8495 849.8607 491.7235 831.375 489.5625 C 784.4039 484.8385 737.1599 486.44125 690.125 489.65625 C 656.34324 492.39905 622.6246 495.87247 589.03125 500.21875 C 575.20429 461.49877 564.51483 421.73165 558.34375 380.6875 C 552.90865 341.6655 547.75235 302.04525 552.65625 262.65625 C 554.08531 251.00375 520.29303 242.43229 494.1875 242.1875 z M 741.5 573.21875 C 717.34202 598.71293 696.16473 627.02071 675.3125 655.25 C 673.37545 657.93017 671.45652 660.62416 669.53125 663.3125 C 655.26669 641.74171 642.0597 619.4423 630.125 596.375 C 627.7225 591.48743 625.3602 586.6068 623.03125 581.6875 C 647.51318 578.97656 672.04249 576.75674 696.625 575 C 711.546 574.29056 726.52308 573.59067 741.5 573.21875 z M 535.375 593.78125 C 536.31133 595.90113 537.26929 598.0103 538.21875 600.125 C 522.74668 606.53318 527.29621 604.65824 502.5625 615.125 C 468.93774 629.76594 435.66282 645.16971 402.8125 661.4375 C 401.33788 648.57863 399.84003 635.71974 398.25 622.875 C 421.82396 617.04659 445.50002 611.57213 469.21875 606.34375 C 491.18322 601.61088 513.24097 597.46466 535.375 593.78125 z "
     id="path12986" />
</svg>
