<?xml version="1.0" encoding="utf-8" ?>

<!DOCTYPE svg PUBLIC "-//W3C//DTD SVG 1.1//EN" 
  "http://www.w3.org/Graphics/SVG/1.1/DTD/svg11.dtd">
<svg 
    xmlns="http://www.w3.org/2000/svg"
    xmlns:xlink="http://www.w3.org/1999/xlink"
    xmlns:sodipodi="http://sodipodi.sourceforge.net/DTD/sodipodi-0.dtd"
    xmlns:inkscape="http://www.inkscape.org/namespaces/inkscape"
    width="1024" height="1024" id="U62CD">
<path d="m 9333.1177,36220.314 c 40.6363,-0.48 81.2706,-1.121 121.9091,-1.481 37.3513,-0.565 74.6765,0.721 111.9519,2.969 4.5941,0.65 9.3189,0.429 13.9186,-0.18 18.575,-2.687 31.2385,84.877 12.6635,87.563 l 0,0 c -11.0103,1.079 -21.8106,1.853 -32.8428,0.275 -34.8859,-2.907 -69.8618,-4.594 -104.8829,-4.065 -40.2746,0.396 -80.5624,1.001 -120.7824,3.284 -18.7451,0.41 -20.6801,-87.955 -1.935,-88.365 z" id="path9940" inkscape:connector-curvature="0" style="fill:#c83737;fill-opacity:1;fill-rule:nonzero;stroke:#f9f9f9;stroke-width:0.1;stroke-miterlimit:4;stroke-dasharray:none" transform="translate(-9216, -35840)"/><path d="m 9552.3015,36061.743 c -6.347,44.817 -7.1552,90.275 -9.1783,135.444 -3.8404,78.922 -6.8944,157.865 -7.7516,236.879 -0.4932,62.683 2.9622,125.288 6.9421,187.816 1.5612,22.508 3.2209,45.008 3.535,67.572 -0.1047,18.67 -88.1149,18.177 -88.0103,-0.493 l 0,0 c 0.6981,-20.727 -0.9407,-41.432 -1.8953,-62.13 -3.2954,-64.55 -6.324,-129.152 -5.5609,-193.809 1.0905,-79.77 4.1526,-159.476 7.2737,-239.19 1.6566,-49.088 2.1173,-98.355 7.4871,-147.215 3.2088,-18.49 90.3673,-3.363 87.1585,15.126 z" id="path9942" inkscape:connector-curvature="0" style="fill:#c83737;fill-opacity:1;fill-rule:nonzero;stroke:#f9f9f9;stroke-width:0.1;stroke-miterlimit:4;stroke-dasharray:none" transform="translate(-9216, -35840)"/><path d="m 9316.1285,36509.124 c 32.1847,-25.701 70.1205,-42.739 107.2277,-59.983 49.4003,-22.234 99.635,-42.532 149.4221,-63.871 20.7119,-8.931 41.3317,-18.084 61.6083,-27.967 16.8538,-7.922 54.2011,71.527 37.3473,79.45 l 0,0 c -21.5495,9.809 -43.3482,19.053 -65.1871,28.198 -48.9522,20.515 -98.1834,40.411 -146.4481,62.519 -28.9396,13.713 -58.8438,26.983 -84.1631,46.898 -13.8403,12.687 -73.6474,-52.557 -59.8071,-65.244 z" id="path9944" inkscape:connector-curvature="0" style="fill:#c83737;fill-opacity:1;fill-rule:nonzero;stroke:#f9f9f9;stroke-width:0.1;stroke-miterlimit:4;stroke-dasharray:none" transform="translate(-9216, -35840)"/><path d="m 9841.4067,36006.705 c -3.6335,30.574 -6.1334,61.208 -10.8717,91.651 -3.5243,23.737 -11.9072,45.994 -20.5437,68.205 -6.7713,17.147 -87.6045,-14.773 -80.8333,-31.92 l 0,0 c 6.5055,-16.122 12.7279,-32.286 15.2655,-49.622 4.6339,-30.096 6.6599,-60.41 9.3501,-90.723 2.6321,-18.589 90.2652,-6.181 87.6331,12.409 z" id="path9946" inkscape:connector-curvature="0" style="fill:#c83737;fill-opacity:1;fill-rule:nonzero;stroke:#f9f9f9;stroke-width:0.1;stroke-miterlimit:4;stroke-dasharray:none" transform="translate(-9216, -35840)"/><path d="m 9714.6036,36251.022 c 6.8293,32.337 14.3348,64.513 20.79,96.931 10.3679,54.85 15.7397,110.463 21.5332,165.932 4.4687,44.465 10.6734,88.727 18.6809,132.688 4.4552,3.472 0.3672,12.232 4.1084,16.481 1.0586,1.203 -0.7007,-3.126 -1.051,-4.689 8.4786,16.782 -70.6367,56.751 -79.1153,39.968 l 0,0 c -4.8679,-12.109 -8.8314,-23.972 -10.1525,-37.084 -7.3155,-45.973 -13.5564,-92.109 -18.1276,-138.442 -5.4723,-52.69 -10.6961,-105.515 -20.9402,-157.543 -6.6204,-31.796 -14.1541,-63.378 -22.1103,-94.866 -4.1103,-18.325 82.2741,-37.701 86.3844,-19.376 z" id="path9950" inkscape:connector-curvature="0" style="fill:#c83737;fill-opacity:1;fill-rule:nonzero;stroke:#f9f9f9;stroke-width:0.1;stroke-miterlimit:4;stroke-dasharray:none" transform="translate(-9216, -35840)"/><path d="m 9666.6166,36223.831 c 32.2611,-6.603 64.7697,-11.939 97.2139,-17.554 37.111,-5.986 73.9159,-13.602 110.7284,-21.159 26.8861,-5.731 54.0686,-9.502 81.5739,-8.822 28.383,1.272 50.2742,14.496 68.6922,35.251 20.016,27.206 24.224,60.407 27.243,93.077 3.142,50.145 -2.298,100.255 -6.97,150.124 -4.158,42.858 -7.726,85.779 -9.323,128.814 -0.686,18.359 0.589,36.692 -0.423,55.033 -1.488,18.703 -89.6564,11.69 -88.1686,-7.014 l 0,0 c 2.602,-17.061 -0.8701,-34.754 1.3521,-51.888 2.2658,-44.423 6.2077,-88.729 10.5519,-132.992 4.153,-44.446 8.9929,-89.144 6.0271,-133.827 -1.4999,-15.269 -2.8292,-30.822 -8.5348,-45.226 3.1982,-2.293 -1.591,-2.625 -3.9694,-3.22 -20.4479,-1.507 -40.7613,2.899 -60.8066,6.336 -37.5845,7.418 -75.1374,15.008 -112.9388,21.268 -30.05,5.337 -60.2154,10.335 -89.9134,17.416 -18.1621,4.738 -40.497,-80.879 -22.3349,-85.617 z" id="path9952" inkscape:connector-curvature="0" style="fill:#c83737;fill-opacity:1;fill-rule:nonzero;stroke:#f9f9f9;stroke-width:0.1;stroke-miterlimit:4;stroke-dasharray:none" transform="translate(-9216, -35840)"/><path d="m 9774.9716,36384.086 c 31.311,-0.798 62.6157,-0.601 93.9149,0.475 28.5186,1.456 57.084,2.6 85.5101,5.4 18.5746,2.024 9.0337,89.586 -9.5409,87.562 l 0,0 c -26.221,-3.215 -52.6709,-4.186 -79.0298,-5.661 -28.8398,-1.033 -57.7301,-1.375 -86.5443,0.578 -18.7428,0.915 -23.0528,-87.44 -4.31,-88.354 z" id="path9954" inkscape:connector-curvature="0" style="fill:#c83737;fill-opacity:1;fill-rule:nonzero;stroke:#f9f9f9;stroke-width:0.1;stroke-miterlimit:4;stroke-dasharray:none" transform="translate(-9216, -35840)"/><path d="m 9772.7347,36604.913 c 29.0701,8.088 59.5543,8.568 89.5156,8.564 32.6505,-0.492 64.9428,-5.395 97.0204,-11.086 11.3574,-2.246 22.751,-4.397 33.9326,-7.418 18.2117,-4.481 39.3327,81.372 21.1207,85.853 l 0,0 c -13.362,3.083 -26.8409,5.597 -40.3483,7.958 -37.022,6.058 -74.2574,11.315 -111.8493,11.715 -39.637,-0.11 -79.7027,-1.481 -118.1764,-11.973 -17.7369,-6.106 11.0477,-89.719 28.7847,-83.613 z" id="path9957" inkscape:connector-curvature="0" style="fill:#c83737;fill-opacity:1;fill-rule:nonzero;stroke:#f9f9f9;stroke-width:0.1;stroke-miterlimit:4;stroke-dasharray:none" transform="translate(-9216, -35840)"/></svg>