<?xml version="1.0" encoding="utf-8" ?>

<!DOCTYPE svg PUBLIC "-//W3C//DTD SVG 1.1//EN" 
  "http://www.w3.org/Graphics/SVG/1.1/DTD/svg11.dtd">
<svg 
    xmlns="http://www.w3.org/2000/svg"
    xmlns:xlink="http://www.w3.org/1999/xlink"
    xmlns:sodipodi="http://sodipodi.sourceforge.net/DTD/sodipodi-0.dtd"
    xmlns:inkscape="http://www.inkscape.org/namespaces/inkscape"
    width="1024" height="1024" id="U623F">
<path d="m 11779.32,11305.877 c 19.08,15.505 40.221,28.204 60.965,41.31 15.547,9.913 -31.183,83.201 -46.729,73.288 l 0,0 c -23.295,-14.992 -46.921,-29.548 -69.05,-46.259 -14.496,-11.628 40.317,-79.966 54.814,-68.339 z" id="path22851" inkscape:connector-curvature="0" style="fill:#550000;fill-opacity:1;fill-rule:nonzero;stroke:#f9f9f9;stroke-width:0.1;stroke-miterlimit:4;stroke-dasharray:none" transform="translate(-11264, -11264)"/><path d="m 11523.783,11469.952 c 36.071,-11.608 72.879,-20.536 109.798,-28.953 48.981,-11.22 98.579,-19.189 148.596,-23.824 35.388,-2.866 70.891,-1.633 105.794,4.789 34.311,7.764 54.292,25.778 70.172,56.392 13.122,31.948 9.281,65.317 2.37,98.136 -6.138,26.779 -16.478,52.199 -28.051,77.013 -7.832,16.659 -86.363,-20.26 -78.531,-36.919 l 0,0 c 8.913,-18.765 16.901,-37.996 21.697,-58.282 3.054,-13.89 6.253,-28.255 3.631,-42.498 -0.712,-5.486 -1.033,-6.692 -8.072,-8.399 -26.717,-5.802 -54.225,-6.15 -81.437,-4.574 -46.101,3.85 -91.777,11.247 -136.832,21.806 -34.124,8.005 -68.285,16.232 -101.247,28.313 -17.607,5.916 -45.495,-77.084 -27.888,-83 z" id="path22853" inkscape:connector-curvature="0" style="fill:#550000;fill-opacity:1;fill-rule:nonzero;stroke:#f9f9f9;stroke-width:0.1;stroke-miterlimit:4;stroke-dasharray:none" transform="translate(-11264, -11264)"/><path d="m 11595.309,11626.205 c 41.695,2.283 83.474,2.743 125.213,3.93 48.371,1.864 96.739,3.323 145.149,3.119 9.265,-0.3 18.598,0.148 27.782,-1.315 18.521,-1.512 25.646,85.798 7.125,87.31 l 0,0 c -11.769,0.563 -23.537,0.65 -35.319,0.348 -49.007,-0.66 -97.978,-2.324 -146.958,-4.027 -42.72,-1.005 -85.444,-1.391 -128.171,-1.976 -18.538,-1.099 -13.359,-88.488 5.179,-87.389 z" id="path22855" inkscape:connector-curvature="0" style="fill:#550000;fill-opacity:1;fill-rule:nonzero;stroke:#f9f9f9;stroke-width:0.1;stroke-miterlimit:4;stroke-dasharray:none" transform="translate(-11264, -11264)"/><path d="m 11626.303,11531.377 c -14.819,42.63 -27.353,86.026 -40.792,129.105 -21.933,69.159 -45.521,137.778 -69.086,206.393 -20.503,59.495 -41.325,118.88 -62.371,178.184 -9.506,27.976 -20.465,55.486 -29.296,83.69 -0.179,0.972 -0.358,1.943 -0.537,2.915 -4.712,17.984 -89.49,-4.225 -84.779,-22.209 l 0,0 c 0.809,-2.799 1.617,-5.597 2.426,-8.396 10.005,-28.56 21.386,-56.627 31.628,-85.103 21.569,-58.653 42.631,-117.49 63.067,-176.548 23.32,-67.706 46.525,-135.47 67.605,-203.915 13.439,-44.444 26.161,-89.1 39.76,-133.495 6.232,-17.474 88.607,11.904 82.375,29.379 z" id="path22857" inkscape:connector-curvature="0" style="fill:#550000;fill-opacity:1;fill-rule:nonzero;stroke:#f9f9f9;stroke-width:0.1;stroke-miterlimit:4;stroke-dasharray:none" transform="translate(-11264, -11264)"/><path d="m 11732.237,11755.668 c 14.472,19.493 32.12,36.105 50.512,51.805 12.814,10.435 6.472,5.36 19.018,15.238 14.434,11.49 -39.731,79.531 -54.165,68.041 l 0,0 c -13.975,-11.236 -6.838,-5.42 -21.399,-17.464 -22.255,-19.222 -43.461,-39.575 -62.026,-62.456 -11.702,-14.437 56.358,-69.602 68.06,-55.164 z" id="path22859" inkscape:connector-curvature="0" style="fill:#550000;fill-opacity:1;fill-rule:nonzero;stroke:#f9f9f9;stroke-width:0.1;stroke-miterlimit:4;stroke-dasharray:none" transform="translate(-11264, -11264)"/><path d="m 11548.258,11900.534 c 44.534,-0.291 88.662,-7.716 132.608,-14.215 55.724,-8.95 111.637,-16.494 167.9,-20.995 31.623,-2.012 63.47,-3.8 94.905,1.007 18.27,3.246 2.97,89.372 -15.3,86.126 l 0,0 c -23.754,-5.84 -49.128,-1.311 -73.196,-1.516 -54.196,3.753 -108.04,10.844 -161.649,19.601 -48.202,7.36 -96.472,15.416 -145.268,17.459 -18.555,0 -18.555,-87.467 0,-87.467 z" id="path22861" inkscape:connector-curvature="0" style="fill:#550000;fill-opacity:1;fill-rule:nonzero;stroke:#f9f9f9;stroke-width:0.1;stroke-miterlimit:4;stroke-dasharray:none" transform="translate(-11264, -11264)"/><path d="m 11626.439,11999.181 c 34.287,-3.069 68.62,-5.384 103.001,-7.077 40.355,-1.847 80.746,-3.086 121.121,-1.398 33.75,1.037 64.185,9.811 91.4,29.715 28.733,26.134 32.025,60.703 27.62,97.065 -6.293,34.583 -20.698,66.793 -35.522,98.409 -7.203,15.978 -15.858,31.054 -25.92,45.367 -10.977,14.931 -81.363,-36.816 -70.386,-51.747 l 0,0 c 7.615,-9.179 12.453,-20.207 17.903,-30.729 11.206,-23.424 22.329,-47.218 27.752,-72.765 0.768,-4.799 -0.02,-14.695 4.085,-17.357 -4.839,-10.018 -32.277,-9.862 -41.032,-11.53 -37.53,-2.035 -75.113,-0.734 -112.636,0.975 -32.824,1.734 -65.644,3.922 -98.252,8.192 -18.481,1.937 -27.614,-85.182 -9.134,-87.12 z" id="path22863" inkscape:connector-curvature="0" style="fill:#550000;fill-opacity:1;fill-rule:nonzero;stroke:#f9f9f9;stroke-width:0.1;stroke-miterlimit:4;stroke-dasharray:none" transform="translate(-11264, -11264)"/><path d="m 11739.634,11994.166 c -24.416,25.189 -44.919,53.766 -64.88,82.507 -25.752,38.05 -48.471,78.011 -70.536,118.272 -11.74,22.105 -24.319,43.734 -36.954,65.332 -9.432,15.882 -84.296,-28.581 -74.864,-44.463 l 0,0 c 12.476,-20.696 24.937,-41.401 36.473,-62.646 23.824,-42.493 48.167,-84.744 75.297,-125.238 22.342,-32.523 45.453,-64.589 71.873,-93.973 12.773,-13.489 76.364,46.719 63.591,60.209 z" id="path22865" inkscape:connector-curvature="0" style="fill:#550000;fill-opacity:1;fill-rule:nonzero;stroke:#f9f9f9;stroke-width:0.1;stroke-miterlimit:4;stroke-dasharray:none" transform="translate(-11264, -11264)"/></svg>