<?xml version="1.0" encoding="UTF-8" standalone="no"?>
<svg
   xmlns:dc="http://purl.org/dc/elements/1.1/"
   xmlns:cc="http://creativecommons.org/ns#"
   xmlns:rdf="http://www.w3.org/1999/02/22-rdf-syntax-ns#"
   xmlns:svg="http://www.w3.org/2000/svg"
   xmlns="http://www.w3.org/2000/svg"
   xmlns:sodipodi="http://sodipodi.sourceforge.net/DTD/sodipodi-0.dtd"
   xmlns:inkscape="http://www.inkscape.org/namespaces/inkscape"
   width="1024"
   height="1024"
   id="U624B"
   version="1.1"
   inkscape:version="0.48.0 r9654"
   sodipodi:docname="U+624B.svg">
  <metadata
     id="metadata11">
    <rdf:RDF>
      <cc:Work
         rdf:about="">
        <dc:format>image/svg+xml</dc:format>
        <dc:type
           rdf:resource="http://purl.org/dc/dcmitype/StillImage" />
      </cc:Work>
    </rdf:RDF>
  </metadata>
  <defs
     id="defs9" />
  <sodipodi:namedview
     pagecolor="#ffffff"
     bordercolor="#666666"
     borderopacity="1"
     objecttolerance="10"
     gridtolerance="10"
     guidetolerance="10"
     inkscape:pageopacity="0"
     inkscape:pageshadow="2"
     inkscape:window-width="640"
     inkscape:window-height="480"
     id="namedview7"
     showgrid="false"
     inkscape:zoom="0.27441406"
     inkscape:cx="512"
     inkscape:cy="512"
     inkscape:window-x="0"
     inkscape:window-y="25"
     inkscape:window-maximized="0"
     inkscape:current-layer="U624B" />
  <path
     style="fill:#782121;fill-opacity:1;fill-rule:nonzero;stroke:#f9f9f9;stroke-width:0.1;stroke-miterlimit:4;stroke-dasharray:none"
     d="M 649.71875 99 C 648.84124 99.033449 648.0009 99.255797 647.21875 99.65625 C 612.03155 118.42525 576.1164 135.7785 540.125 152.9375 C 489.0321 177.1175 436.4731 197.9455 384.375 219.8125 C 339.4282 239.2375 294.4852 258.74075 250.0625 279.34375 C 242.1364 283.37775 227.7245 289.83775 221.375 292.09375 C 203.5237 298.01875 231.4612 382.14375 249.3125 376.21875 C 262.4896 371.12575 274.93055 364.53325 287.53125 358.15625 C 330.35265 337.27325 374.00665 318.1155 417.71875 299.1875 C 428.89169 294.49318 440.08214 289.85417 451.28125 285.21875 C 465.48778 320.0327 473.38668 356.64582 479.3125 393.59375 C 451.32527 395.70979 423.43805 399.05624 395.65625 403.65625 C 351.92215 410.64725 308.40795 418.8355 264.78125 426.4375 C 246.33555 429.7785 262.08545 516.74825 280.53125 513.40625 C 323.33745 504.10025 366.33005 495.8005 409.53125 488.5625 C 435.70258 484.07193 462.02346 480.90319 488.40625 479 C 490.17319 513.42976 489.94082 547.92856 488.6875 582.40625 C 474.35684 583.6459 460.02671 584.85758 445.6875 586 C 363.0758 591.974 280.40635 596.5275 197.59375 598.5625 C 155.76675 600.0485 113.8993 601.57325 72.1875 605.15625 C 53.4856 606.87125 61.57935 695.0285 80.28125 693.3125 C 120.37775 688.0995 160.8339 686.3965 201.1875 684.4375 C 284.8633 681.3645 368.41925 676.2505 451.90625 669.9375 C 462.59355 669.05536 473.28434 668.13367 483.96875 667.21875 C 479.31264 729.00935 471.37359 790.45253 462.4375 851.75 C 458.4493 873.75 457.0408 896.3735 450.875 917.9375 C 446.3409 936.0855 531.9034 957.4605 536.4375 939.3125 C 542.1905 914.3785 544.8425 888.92875 548.25 863.59375 C 556.7193 798.65575 564.44205 733.608 568.90625 668.25 C 569.09011 665.3836 569.2583 662.52363 569.4375 659.65625 C 617.04049 655.36207 664.62882 651.03009 712.25 646.9375 C 754.2616 643.9535 796.4474 639.062 838.625 641.125 C 839.34731 641.27404 839.65849 641.33038 840.1875 641.4375 C 858.00558 637.30893 883.44888 563.94104 866.90625 557.9375 C 848.73675 553.2265 857.4547 554.61 840.75 553.25 C 795.1853 552.962 749.8155 557.6825 704.5 561.9375 C 660.862 566.16088 617.23895 570.52646 573.59375 574.6875 C 574.57458 542.23238 574.66405 509.76334 573.28125 477.34375 C 575.26026 477.40852 577.23942 477.45203 579.21875 477.53125 C 607.79605 479.47825 636.2868 482.919 664.3125 488.875 C 665.7968 489.278 667.2657 489.69075 668.75 490.09375 C 668.6468 490.16875 668.5408 490.2325 668.4375 490.3125 C 686.2977 496.2455 714.26645 412.059 696.40625 406.125 C 686.41985 403.246 691.50105 404.5075 681.21875 402.3125 C 648.46125 396.3625 615.3114 392.85625 582.0625 391.15625 C 576.53253 391.00807 570.99614 390.9346 565.46875 390.875 C 558.84047 344.49107 549.99083 298.47601 533.9375 254.25 C 533.52629 253.10033 532.7991 252.16996 531.78125 251.40625 C 546.95595 244.82314 562.07425 238.0741 577.0625 231.0625 C 614.0061 213.7505 650.7326 195.9925 687.5 178.3125 C 703.40375 170.16995 667.56136 98.319877 649.71875 99 z M 840.1875 641.4375 C 839.87961 641.50884 839.58434 641.56446 839.28125 641.59375 C 842.16036 641.94357 843.06117 642.01938 840.1875 641.4375 z M 836.65625 641.28125 C 837.48483 641.58195 838.34119 641.67026 839.21875 641.59375 C 838.26501 641.47795 838.22767 641.45934 836.65625 641.28125 z "
     id="path10682" />
</svg>
