<?xml version="1.0" encoding="utf-8" ?>

<!DOCTYPE svg PUBLIC "-//W3C//DTD SVG 1.1//EN" 
  "http://www.w3.org/Graphics/SVG/1.1/DTD/svg11.dtd">
<svg 
    xmlns="http://www.w3.org/2000/svg"
    xmlns:xlink="http://www.w3.org/1999/xlink"
    xmlns:sodipodi="http://sodipodi.sourceforge.net/DTD/sodipodi-0.dtd"
    xmlns:inkscape="http://www.inkscape.org/namespaces/inkscape"
    width="1024" height="1024" id="U62FF">
<path d="m 9783.7482,33883.85 c -33.2464,15.666 -62.4411,38.663 -91.4607,60.902 -45.5744,35.412 -88.0601,74.512 -128.2998,115.826 -21.751,22.899 -42.1504,47.023 -61.3392,72.097 -5.6521,6.321 -12.2826,23.135 0.2201,-5.783 -3.808,18.502 -91.0243,0.551 -87.2163,-17.951 l 0,0 c 5.0481,-12.161 8.9621,-21.329 17.8282,-30.854 21.8816,-26.979 44.641,-53.24 68.9055,-78.118 43.3641,-43.665 88.8341,-85.211 137.144,-123.386 34.5868,-27.011 69.4868,-54.387 109.021,-73.902 17.2185,-7.467 52.4157,73.702 35.1972,81.169 z" id="path11282" inkscape:connector-curvature="0" style="fill:#c83737;fill-opacity:1;fill-rule:nonzero;stroke:#f9f9f9;stroke-width:0.1;stroke-miterlimit:4;stroke-dasharray:none" transform="translate(-9216, -33792)"/><path d="m 9745.6856,33819.705 c 34.4753,8.033 67.5431,20.792 100.0968,34.485 43.3774,18.858 84.6009,42.125 125.2018,66.271 34.4098,20.798 67.5238,43.634 100.2378,66.982 10.748,7.351 20.694,15.695 30.436,24.301 13.819,12.603 -45.593,77.747 -59.413,65.144 l 0,0 c -6.974,-6.733 -14.416,-12.899 -22.327,-18.524 -30.3237,-22.249 -61.1672,-43.836 -93.3386,-63.354 -37.0671,-22.116 -74.7123,-43.434 -114.3984,-60.56 -27.2472,-11.344 -54.9482,-22.193 -83.9881,-28.011 -18.3992,-3.71 -0.9065,-90.445 17.4927,-86.734 z" id="path11284" inkscape:connector-curvature="0" style="fill:#c83737;fill-opacity:1;fill-rule:nonzero;stroke:#f9f9f9;stroke-width:0.1;stroke-miterlimit:4;stroke-dasharray:none" transform="translate(-9216, -33792)"/><path d="m 9631.5748,33997.08 c 35.1908,-9.537 71.6605,-12.832 107.8528,-16.115 34.3984,-3.227 68.9181,-4.999 103.4028,-2.484 17.6178,1.445 34.4169,6.424 50.5291,13.456 17.0989,7.796 -19.6497,88.401 -36.7486,80.606 l 0,0 c -6.623,-3.393 -13.6292,-5.649 -21.0802,-6.445 -29.3611,-2.891 -58.8736,-0.939 -88.2061,1.542 -29.7522,2.724 -59.9166,5.218 -88.6879,13.718 -17.8782,5.741 -44.9401,-78.538 -27.0619,-84.278 z" id="path11302" inkscape:connector-curvature="0" style="fill:#c83737;fill-opacity:1;fill-rule:nonzero;stroke:#f9f9f9;stroke-width:0.1;stroke-miterlimit:4;stroke-dasharray:none" transform="translate(-9216, -33792)"/><path d="m 9655.9021,34125.766 c 5.785,21.095 13.0281,41.693 21.6501,61.783 5.6062,12.85 12.3733,25.136 20.0802,36.834 4.9367,6.298 7.9627,13.379 10.9391,20.739 5.6406,18.006 -79.2397,44.596 -84.8804,26.591 l 0,0 c 5.5061,12.226 2.0599,3.716 -0.6996,0.304 -10.0134,-16.052 -18.9912,-32.734 -26.3845,-50.167 -9.4491,-22.529 -17.5357,-45.528 -24.937,-68.809 -5.7859,-17.868 78.4461,-45.143 84.2321,-27.275 z" id="path11304" inkscape:connector-curvature="0" style="fill:#c83737;fill-opacity:1;fill-rule:nonzero;stroke:#f9f9f9;stroke-width:0.1;stroke-miterlimit:4;stroke-dasharray:none" transform="translate(-9216, -33792)"/><path d="m 9626.2288,34119.898 c 29.1182,-11.111 59.4918,-17.678 90.1768,-22.584 31.6389,-4.497 63.5982,-5.296 95.4965,-5.77 21.072,-0.419 42.1007,-0.04 62.8587,3.779 18.5061,3.916 33.5354,13.526 46.1539,27.3 14.4333,17.908 15.5869,38.728 9.8087,60.167 -5.6312,16.216 -13.6766,31.428 -21.7143,46.546 -5.5901,10.207 -10.4609,20.765 -14.885,31.52 -1.6021,4.506 -3.7836,8.739 -5.9423,12.993 -8.8326,16.633 -87.244,-25.004 -78.4114,-41.638 l 0,0 c 0.8516,-1.601 2.2768,-4.28 2.7324,-5.925 5.6577,-13.063 11.7887,-25.908 18.5829,-38.423 5.3669,-10.071 10.7165,-20.191 14.8096,-30.864 -0.3249,8.238 1.1318,16.47 6.973,22.649 0.4878,0.429 7.4608,5.444 4.2693,2.385 -14.3323,-3.838 -29.6378,-1.922 -44.2685,-2.719 -27.6256,0.194 -55.3107,0.635 -82.7316,4.394 -24.3175,3.836 -48.5155,8.779 -71.2988,18.423 -17.4444,6.918 -50.0543,-75.316 -32.6099,-82.233 z" id="path11310" inkscape:connector-curvature="0" style="fill:#c83737;fill-opacity:1;fill-rule:nonzero;stroke:#f9f9f9;stroke-width:0.1;stroke-miterlimit:4;stroke-dasharray:none" transform="translate(-9216, -33792)"/><path d="m 9656.5013,34222.913 c 25.6416,-2.975 51.2099,-6.524 76.7829,-10.028 23.9801,-3.763 48.1071,-5.459 72.2872,-3.183 15.5077,1.742 29.8387,7.376 43.1868,15.207 1.5467,1.034 3.0933,2.067 4.64,3.101 15.5174,10.674 -34.8002,83.824 -50.3177,73.15 l 0,0 c -0.1972,-0.166 -0.3944,-0.332 -0.5915,-0.498 -1.9321,-1.466 -3.9782,-2.677 -6.4409,-3.088 -16.9682,-2.363 -34.0439,-0.04 -50.9195,2.183 -25.2472,3.425 -50.5077,6.802 -75.6842,10.712 -18.5735,2.746 -31.5166,-84.81 -12.9431,-87.556 z" id="path11314" inkscape:connector-curvature="0" style="fill:#c83737;fill-opacity:1;fill-rule:nonzero;stroke:#f9f9f9;stroke-width:0.1;stroke-miterlimit:4;stroke-dasharray:none" transform="translate(-9216, -33792)"/><path d="m 9968.1914,34312.811 c -36.8009,4.001 -72.7118,13.492 -108.3982,22.978 -57.9771,15.613 -114.487,35.93 -170.1431,58.328 -37.3885,15.369 -73.7361,33.084 -109.6332,51.628 -3.2108,0.534 -32.2916,18.678 -20.4221,11.175 -15.0934,11.353 -68.6103,-59.798 -53.5169,-71.151 l 0,0 c 10.9067,-7.246 22.9578,-12.552 34.6024,-18.482 38.5239,-18.76 77.3194,-37.01 117.0507,-53.099 58.8441,-23.328 118.4706,-44.714 179.4815,-61.731 39.6776,-10.944 79.559,-21.539 120.3552,-27.468 18.63,-2.254 29.2537,85.569 10.6237,87.822 z" id="path11318" inkscape:connector-curvature="0" style="fill:#c83737;fill-opacity:1;fill-rule:nonzero;stroke:#f9f9f9;stroke-width:0.1;stroke-miterlimit:4;stroke-dasharray:none" transform="translate(-9216, -33792)"/><path d="m 9638.7171,34424.965 c 36.4912,-7.944 73.2542,-14.395 110.1831,-19.911 39.7462,-5.611 79.6877,-9.68 119.6763,-13.087 18.7751,-1.639 37.5943,-2.599 56.4375,-2.121 6.7893,0 13.2787,1.236 19.9237,2.491 18.3101,4.427 -2.5623,90.742 -20.8725,86.315 l 0,0 c 8.1571,0.743 -1.1949,-0.185 -2.2414,-0.295 -15.5054,-0.797 -31.0225,-0.05 -46.5056,0.94 -37.9347,2.61 -75.8116,6.185 -113.455,11.627 -34.4203,5.256 -68.7623,11.232 -102.4854,20.016 -18.2381,4.383 -38.8987,-81.592 -20.6607,-85.975 z" id="path11320" inkscape:connector-curvature="0" style="fill:#c83737;fill-opacity:1;fill-rule:nonzero;stroke:#f9f9f9;stroke-width:0.1;stroke-miterlimit:4;stroke-dasharray:none" transform="translate(-9216, -33792)"/><path d="m 9545.7638,34550.836 c 39.4255,-9.439 79.1394,-17.562 118.9261,-25.309 53.7872,-10.484 108.0776,-17.807 162.7024,-21.967 39.2433,-2.648 78.5536,-0.996 117.7225,1.867 20.3449,1.834 40.6844,3.583 61.1222,3.215 12.52,-1.192 23.166,1.57 35.166,5.099 17.195,7.736 -19.277,88.795 -36.472,81.058 l 0,0 c 22.067,5.255 8.375,1.434 1.795,2.173 -22.8695,-0.09 -45.6377,-1.859 -68.3794,-4.233 -34.8163,-2.868 -69.7685,-4.761 -104.6995,-2.758 -51.1128,3.485 -101.8956,10.277 -152.1413,20.374 -38.0654,7.684 -76.1612,15.503 -113.5601,26.04 -18.1497,4.706 -40.3317,-80.853 -22.1819,-85.559 z" id="path11326" inkscape:connector-curvature="0" style="fill:#c83737;fill-opacity:1;fill-rule:nonzero;stroke:#f9f9f9;stroke-width:0.1;stroke-miterlimit:4;stroke-dasharray:none" transform="translate(-9216, -33792)"/><path d="m 9855.7394,34350.797 c 3.5469,37.928 0.024,75.994 -3.7247,113.753 -4.3096,41.364 -9.9925,82.566 -17.127,123.533 -5.4144,31.006 -12.6533,61.625 -21.6829,91.767 -5.8315,19.127 -13.3177,37.67 -21.4792,55.904 -3.9538,10.797 -11.1246,18.817 -19.0691,26.851 -14.3745,12.19 -71.8392,-55.572 -57.4647,-67.762 l 0,0 c -0.293,0.337 -10.3658,14.277 -3.8607,3.865 6.8802,-14.421 13.104,-29.154 17.8883,-44.419 8.2878,-26.723 14.6626,-53.959 19.7104,-81.479 7.0203,-38.675 12.615,-77.591 16.6196,-116.699 2.951,-30.813 6.1377,-62.002 2.5456,-92.904 -2.6325,-18.592 85.0118,-31.002 87.6444,-12.41 z" id="path11330" inkscape:connector-curvature="0" style="fill:#c83737;fill-opacity:1;fill-rule:nonzero;stroke:#f9f9f9;stroke-width:0.1;stroke-miterlimit:4;stroke-dasharray:none" transform="translate(-9216, -33792)"/></svg>