<?xml version="1.0" encoding="utf-8" ?>

<!DOCTYPE svg PUBLIC "-//W3C//DTD SVG 1.1//EN" 
  "http://www.w3.org/Graphics/SVG/1.1/DTD/svg11.dtd">
<svg 
    xmlns="http://www.w3.org/2000/svg"
    xmlns:xlink="http://www.w3.org/1999/xlink"
    xmlns:sodipodi="http://sodipodi.sourceforge.net/DTD/sodipodi-0.dtd"
    xmlns:inkscape="http://www.inkscape.org/namespaces/inkscape"
    width="1024" height="1024" id="U62B1">
<path d="m 11366.964,1390.335 c 44.345,-3.5107 88.581,-8.2857 132.824,-12.8749 44.781,-5.2365 89.777,-9.0354 134.344,-15.9579 2.679,-0.6474 5.358,-1.2949 8.036,-1.9423 -0.1,-0.2599 -0.199,-0.5198 -0.299,-0.7797 17.249,-6.8349 49.469,74.4804 32.22,81.3152 l 0,0 c -18.699,6.2368 -9.378,3.8621 -27.919,7.2963 -45.701,5.8034 -91.646,9.5188 -137.395,14.9247 -44.335,4.7919 -88.665,9.6478 -132.93,15.0451 -18.461,1.8838 -27.342,-85.1427 -8.881,-87.0265 z" id="path19845" inkscape:connector-curvature="0" style="fill:#aa0000;fill-opacity:1;fill-rule:nonzero;stroke:#f9f9f9;stroke-width:0.1;stroke-miterlimit:4;stroke-dasharray:none" transform="translate(-11264, -1024)"/><path d="m 11610.391,1224.7943 c -17.117,38.8112 -26.109,80.5196 -34.797,121.8395 -14.388,73.345 -20.441,147.9195 -25.355,222.3876 -4.57,72.7152 -5.563,145.5718 -5.863,218.4072 -0.126,36.1359 -0,18.7065 -0.349,52.2884 -0.35,18.1986 -86.139,16.5505 -85.789,-1.6481 l 0,0 c 0.929,-32.754 0.535,-15.623 1.129,-51.3942 1.009,-74.4275 2.278,-148.8756 6.937,-223.1839 5.153,-78.3247 11.469,-156.7369 26.062,-233.971 9.493,-47.1399 19.716,-94.3909 37.533,-139.2219 7.318,-17.0748 87.81,17.4215 80.492,34.4964 z" id="path19847" inkscape:connector-curvature="0" style="fill:#aa0000;fill-opacity:1;fill-rule:nonzero;stroke:#f9f9f9;stroke-width:0.1;stroke-miterlimit:4;stroke-dasharray:none" transform="translate(-11264, -1024)"/><path d="m 11333.263,1715.7533 c 37.609,-35.1863 83.634,-58.7781 129.694,-80.7719 43.118,-19.231 87.311,-35.8386 129.901,-56.2423 16.458,-7.742 52.954,69.839 36.497,77.5811 l 0,0 c -42.668,19.7493 -86.598,36.4463 -129.562,55.5268 -36.559,17.5917 -73.787,35.9003 -103.339,64.3255 -12.817,13.4048 -76.008,-47.0144 -63.191,-60.4192 z" id="path19849" inkscape:connector-curvature="0" style="fill:#aa0000;fill-opacity:1;fill-rule:nonzero;stroke:#f9f9f9;stroke-width:0.1;stroke-miterlimit:4;stroke-dasharray:none" transform="translate(-11264, -1024)"/><path d="m 11848.631,1202.3784 c -16.163,29.593 -27.839,61.3593 -39.575,92.8876 -13.506,37.4803 -26.625,75.1655 -36.817,113.6997 -2.521,11.7352 -1.858,6.6411 -2.615,15.1877 -2.753,18.3237 -89.132,5.3433 -86.379,-12.9804 l 0,0 c 2.923,-16.5587 1.138,-8.1042 5.456,-25.3423 11.683,-40.6087 25.551,-80.5485 39.801,-120.3189 12.956,-35.3348 26.053,-70.717 42.835,-104.4593 8.766,-16.3967 86.061,24.9292 77.294,41.3259 z" id="path19875" inkscape:connector-curvature="0" style="fill:#aa0000;fill-opacity:1;fill-rule:nonzero;stroke:#f9f9f9;stroke-width:0.1;stroke-miterlimit:4;stroke-dasharray:none" transform="translate(-11264, -1024)"/><path d="m 11754.638,1293.21 c 31.046,-26.1598 69.979,-34.9169 109.084,-40.7601 50.791,-5.9529 101.807,-2.3736 152.099,5.6996 37.507,6.231 72.993,18.6999 105.046,39.0711 27.781,18.8609 42.472,45.7569 50.128,77.6694 5.857,37.6321 -4.643,74.0509 -16.306,109.445 -11.809,33.6368 -26.089,66.3273 -40.912,98.7243 -9.306,20.1537 -19.5,39.8748 -30.522,59.1389 -9.317,15.9859 -84.675,-27.9351 -75.358,-43.921 l 0,0 c 9.947,-16.6715 18.91,-33.9041 27.184,-51.4667 13.621,-29.3618 26.757,-58.9953 37.492,-89.5558 6.829,-20.6864 14.121,-41.9732 13.239,-64.0633 -1.222,-9.7268 -4.75,-17.2847 -12.872,-23.3295 -21.009,-14.9731 -46.183,-21.7954 -71.198,-26.8687 -41.414,-7.1475 -83.508,-10.2236 -125.417,-5.3426 -21.748,3.1717 -44.907,6.3099 -62.712,20.3592 -13.746,12.5105 -72.721,-52.2893 -58.975,-64.7998 z" id="path19877" inkscape:connector-curvature="0" style="fill:#aa0000;fill-opacity:1;fill-rule:nonzero;stroke:#f9f9f9;stroke-width:0.1;stroke-miterlimit:4;stroke-dasharray:none" transform="translate(-11264, -1024)"/><path d="m 11768.23,1419.6104 c 27.326,-13.7318 56.698,-21.9316 86.642,-27.4299 35.211,-6.0238 68.053,-0.2625 99.072,16.8127 33.615,23.6886 41.807,59.3787 41.071,98.2366 -2.645,34.0226 -13.529,66.4946 -25.238,98.2965 -6.593,18.8534 -16.1,36.1575 -27.093,52.7261 -10.482,15.231 -82.281,-34.1774 -71.8,-49.4084 l 0,0 c 7.607,-10.1993 13.084,-21.5855 17.552,-33.4966 8.609,-22.996 16.936,-46.4069 19.705,-70.9487 0.439,-6.8605 0.364,-14.0462 0.795,-20.7177 -9.412,-9.8009 -26.899,-6.6382 -38.841,-6.0405 -21.145,3.5965 -42.02,9.2001 -61.008,19.4566 -16.438,8.6671 -57.295,-68.8197 -40.857,-77.4867 z" id="path19891" inkscape:connector-curvature="0" style="fill:#aa0000;fill-opacity:1;fill-rule:nonzero;stroke:#f9f9f9;stroke-width:0.1;stroke-miterlimit:4;stroke-dasharray:none" transform="translate(-11264, -1024)"/><path d="m 11755.252,1594.0783 c 33.511,-0.482 67.018,-0.576 100.525,0.1524 18.641,0.4819 37.197,1.7809 55.633,4.5553 18.269,3.137 3.481,89.2596 -14.788,86.1226 l 0,0 c -14.115,-3.0051 -28.558,-3.4701 -42.931,-4.2669 -31.73,-0.8482 -63.498,-0.8784 -95.199,0.92 -18.558,0.6873 -21.798,-86.7961 -3.24,-87.4834 z" id="path19893" inkscape:connector-curvature="0" style="fill:#aa0000;fill-opacity:1;fill-rule:nonzero;stroke:#f9f9f9;stroke-width:0.1;stroke-miterlimit:4;stroke-dasharray:none" transform="translate(-11264, -1024)"/><path d="m 11817.262,1483.0633 c -13.474,33.7352 -24.86,68.2656 -36.158,102.7761 -16.472,49.9722 -29.75,100.8615 -35.734,153.176 -1.809,28.0482 -0.928,57.3176 21.12,77.1229 26.584,17.9697 59.134,21.6118 90.283,24.4517 44.208,3.0247 87.846,-3.9999 130.732,-13.9632 31.797,-8.0869 63.005,-18.2662 94.988,-25.6273 3.631,-0.69 7.263,-1.3799 10.895,-2.0698 18.231,-3.2363 33.487,82.7047 15.256,85.941 l 0,0 c -2.488,0.3964 -4.976,0.7929 -7.464,1.1893 -31.912,6.5863 -62.892,16.8646 -94.596,24.3355 -51.835,11.6035 -104.562,19.5097 -157.862,15.6087 -52.741,-5.0957 -105.386,-14.6383 -146.022,-51.5106 -5.646,-6.6025 -11.968,-12.6819 -16.937,-19.8073 -25.696,-36.8426 -28.664,-82.6506 -25.383,-125.9657 7.299,-57.631 21.292,-113.9051 39.217,-169.1565 11.522,-36.2866 23.354,-72.4759 36.012,-108.3847 6.763,-17.3213 88.417,14.5625 81.653,31.8839 z" id="path19895" inkscape:connector-curvature="0" style="fill:#aa0000;fill-opacity:1;fill-rule:nonzero;stroke:#f9f9f9;stroke-width:0.1;stroke-miterlimit:4;stroke-dasharray:none" transform="translate(-11264, -1024)"/></svg>