<?xml version="1.0" encoding="UTF-8" standalone="no"?>
<svg
   xmlns:dc="http://purl.org/dc/elements/1.1/"
   xmlns:cc="http://creativecommons.org/ns#"
   xmlns:rdf="http://www.w3.org/1999/02/22-rdf-syntax-ns#"
   xmlns:svg="http://www.w3.org/2000/svg"
   xmlns="http://www.w3.org/2000/svg"
   xmlns:sodipodi="http://sodipodi.sourceforge.net/DTD/sodipodi-0.dtd"
   xmlns:inkscape="http://www.inkscape.org/namespaces/inkscape"
   width="1024"
   height="1024"
   id="U6240"
   version="1.1"
   inkscape:version="0.48.0 r9654"
   sodipodi:docname="U+6240.svg">
  <metadata
     id="metadata15">
    <rdf:RDF>
      <cc:Work
         rdf:about="">
        <dc:format>image/svg+xml</dc:format>
        <dc:type
           rdf:resource="http://purl.org/dc/dcmitype/StillImage" />
      </cc:Work>
    </rdf:RDF>
  </metadata>
  <defs
     id="defs13" />
  <sodipodi:namedview
     pagecolor="#ffffff"
     bordercolor="#666666"
     borderopacity="1"
     objecttolerance="10"
     gridtolerance="10"
     guidetolerance="10"
     inkscape:pageopacity="0"
     inkscape:pageshadow="2"
     inkscape:window-width="640"
     inkscape:window-height="480"
     id="namedview11"
     showgrid="false"
     inkscape:zoom="0.27441406"
     inkscape:cx="512"
     inkscape:cy="512"
     inkscape:window-x="0"
     inkscape:window-y="25"
     inkscape:window-maximized="0"
     inkscape:current-layer="U6240" />
  <path
     style="fill:#782121;fill-opacity:1;fill-rule:nonzero;stroke:#f9f9f9;stroke-width:0.1;stroke-miterlimit:4;stroke-dasharray:none"
     d="M 392.6875 146.90625 C 391.81127 146.96518 390.98901 147.20195 390.21875 147.625 C 354.44415 168.388 321.45935 193.32075 289.40625 219.34375 C 245.40925 255.57175 208.60965 299.078 173.90625 344 C 153.89425 371.01 163.5535 357.8395 144.875 383.5625 C 134.141 398.5115 204.60965 449.10425 215.34375 434.15625 C 232.82085 409.53025 223.80925 422.035 242.34375 396.625 C 272.71015 356.904 305.0441 318.48725 343.875 286.65625 C 371.9599 264.02225 400.7606 242.01375 432.75 225.09375 C 448.41204 216.49275 410.50421 145.70801 392.6875 146.90625 z M 822.46875 181.15625 C 821.89473 181.19079 821.33133 181.29569 820.78125 181.5 C 789.69775 193.996 760.6263 210.6865 732 227.9375 C 687.1112 255.4925 644.9257 287.06925 603.8125 319.90625 C 580.7811 338.85625 591.8448 329.599 570.625 347.625 C 556.6425 359.703 613.58 425.60825 627.5625 413.53125 C 646.9087 396.51525 636.7617 405.28375 658.0625 387.34375 C 695.8258 356.74475 734.81275 327.6175 776.53125 302.5625 C 800.69495 288.3005 825.2103 274.23 851.625 264.5 C 868.67752 258.16631 840.26328 180.08559 822.46875 181.15625 z M 559.96875 384.40625 C 556.97703 384.35713 554.66117 385.18775 553.25 387.0625 C 531.2019 418.6065 525.69735 456.451 521.46875 493.75 C 517.16725 552.156 515.30625 610.6965 512.46875 669.1875 C 508.96135 730.9935 506.92685 792.86075 504.65625 854.71875 C 504.00995 880.85575 501.5758 906.858 497.25 932.625 C 494.4318 950.948 580.8069 964.22925 583.625 945.90625 C 587.806 916.62325 590.4273 887.19675 590.875 857.59375 C 592.683 796.20075 594.45565 734.78875 598.09375 673.46875 C 598.76696 660.34786 599.40147 647.21917 600.03125 634.09375 C 631.13084 626.17525 662.41928 618.98015 693.625 611.5 C 704.69884 608.81304 715.7916 606.14447 726.875 603.5 C 723.5554 641.769 724.86469 680.34519 726.4375 718.6875 C 729.8889 781.0805 737.6165 843.13125 744.9375 905.15625 C 747.5264 926.21325 749.6381 947.3175 751.625 968.4375 C 753.5078 986.8325 840.1953 977.9575 838.3125 959.5625 C 835.9249 937.9105 833.45985 916.25125 830.59375 894.65625 C 823.04815 835.08325 815.3008 775.4535 812.3125 715.4375 C 810.9463 675.3775 809.52495 634.8245 816.71875 595.1875 C 817.41336 591.43659 814.37428 587.78712 809.0625 584.5 C 824.83778 580.98561 840.64957 577.54048 856.46875 574.21875 C 871.95405 571.43875 887.25705 567.4325 902.90625 565.5625 C 903.76085 565.4565 905.38689 565.13713 906.625 564.96875 C 905.7413 565.51414 904.8371 565.87746 903.90625 566 C 905.42515 566.08283 907.0253 566.311 908.09375 565.375 C 908.73508 564.81269 907.87614 564.805 906.65625 564.96875 C 922.60416 555.05528 930.39762 480.10095 913.1875 478 C 887.539 477.259 863.0498 483.88325 838.125 489.53125 C 783.2634 501.77125 728.5754 514.7495 673.875 527.6875 C 650.90814 533.01296 627.90848 538.20681 604.90625 543.375 C 605.76254 530.18164 606.71763 516.98887 607.8125 503.8125 C 610.4113 482.3015 612.0298 459.05125 623.9375 440.28125 C 633.81572 427.15713 580.91076 384.75008 559.96875 384.40625 z M 119.1875 424.375 C 112.94439 424.49567 108.46994 426.07658 107.15625 429.65625 C 93.84055 469.22025 92.43695 511.01775 91.90625 552.34375 C 92.84365 622.32275 98.8403 692.12 105.5 761.75 C 111.1655 820.109 120.02975 878.07075 129.90625 935.84375 L 132.90625 952.8125 C 136.35725 971.0195 222.16975 954.73825 218.71875 936.53125 C 217.62845 931.14525 216.55905 925.762 215.46875 920.375 C 210.04835 891.96586 205.07114 863.4679 200.75 834.875 C 231.83711 825.13667 264.23598 820.12451 296.34375 815 C 341.24705 808.26 386.2109 801.889 431.25 796.125 C 442.12395 794.63424 442.40624 763.66432 437 739.1875 C 441.81042 716.53428 446.63467 693.87477 452.40625 671.4375 C 463.16685 629.1215 476.0847 587.0535 481.8125 543.6875 C 481.6612 536.5905 482.65705 529.38325 481.34375 522.40625 C 474.18765 484.39225 443.9888 466.25525 407.6875 464.78125 C 368.405 464.44225 329.5881 470.23575 291.5625 480.09375 C 252.61078 490.56419 213.74615 502.69975 179.1875 524.0625 C 180.29111 502.35434 182.8534 480.72384 190.25 460.15625 C 195.40371 446.11213 143.67971 423.90162 119.1875 424.375 z M 178.5 543.6875 C 187.77124 568.17788 217.70226 604.87788 228.96875 597.0625 C 254.87055 580.5055 284.60465 571.88225 314.03125 564.03125 C 339.589 557.74898 365.61667 552.92661 391.90625 552.40625 C 385.61103 585.3376 376.62096 617.74394 368.46875 650.25 C 362.54701 673.181 357.56127 696.3205 352.4375 719.4375 C 329.26906 722.83754 306.11223 726.23689 282.9375 729.59375 C 251.75454 734.42124 220.49234 739.40987 189.84375 746.96875 C 183.68933 682.76448 178.44019 618.37815 178.25 553.84375 C 178.32744 550.46998 178.41523 547.07484 178.5 543.6875 z M 403.3125 550.15625 C 406.80886 551.17905 415.39356 554.8375 413.6875 554.8125 C 409.02638 554.7535 405.90155 552.80004 403.3125 550.15625 z M 903.15625 565.96875 C 902.90936 565.9691 902.67278 565.97337 902.4375 566 C 902.89116 566.05538 903.33725 566.04872 903.78125 566 C 903.57078 565.98975 903.36207 565.96846 903.15625 565.96875 z "
     id="path11540" />
</svg>
