<?xml version="1.0" encoding="utf-8" ?>

<!DOCTYPE svg PUBLIC "-//W3C//DTD SVG 1.1//EN" 
  "http://www.w3.org/Graphics/SVG/1.1/DTD/svg11.dtd">
<svg 
    xmlns="http://www.w3.org/2000/svg"
    xmlns:xlink="http://www.w3.org/1999/xlink"
    xmlns:sodipodi="http://sodipodi.sourceforge.net/DTD/sodipodi-0.dtd"
    xmlns:inkscape="http://www.inkscape.org/namespaces/inkscape"
    width="1024" height="1024" id="U628A">
<path d="m 8383.1323,389.93072 c 60.3119,-1.69845 120.3585,-8.08873 180.1794,-15.62759 32.0033,-5.27504 64.6087,-7.6197 96.4104,-14.13131 18.7474,-2.51094 30.5841,85.8654 11.8366,88.37634 l 0,0 c -32.6949,2.51011 -65.2084,6.68769 -97.734,10.80796 -61.7449,7.48786 -123.6163,13.71646 -185.5938,18.95023 -18.7473,1.08157 -23.8459,-87.29406 -5.0986,-88.37563 z" id="path19509" inkscape:connector-curvature="0" style="fill:#aa0000;fill-opacity:1;fill-rule:nonzero;stroke:#f9f9f9;stroke-width:0.1;stroke-miterlimit:4;stroke-dasharray:none" transform="translate(-8192, 0)"/><path d="m 8562.8667,217.18378 c -14.0664,77.38908 -19.4366,156.10825 -26.9896,234.33132 -8.3977,90.3867 -20.8243,180.34079 -28.8606,270.75832 -1.5422,35.5388 -5.6455,71.85024 -0.1602,107.27816 0.1983,0.50758 0.3967,1.01515 0.595,1.52272 3.1428,18.71818 -85.0955,33.53341 -88.2383,14.81523 l 0,0 c -0.3012,-2.46756 -0.6023,-4.93512 -0.9035,-7.40269 -2.8751,-41.50755 -0.097,-83.16147 3.6374,-124.52784 9.5772,-90.14119 22.9586,-179.85332 30.7769,-270.19073 7.2798,-81.11475 12.7241,-162.4656 23.5425,-243.21177 3.5272,-18.37072 90.1276,-1.74344 86.6004,16.62728 z" id="path19511" inkscape:connector-curvature="0" style="fill:#aa0000;fill-opacity:1;fill-rule:nonzero;stroke:#f9f9f9;stroke-width:0.1;stroke-miterlimit:4;stroke-dasharray:none" transform="translate(-8192, 0)"/><path d="m 8326.001,633.80755 c 53.7628,-59.3079 132.4841,-80.44921 207.5093,-99.01969 45.3741,-10.94074 92.126,-15.59237 136.8566,-29.12186 17.9072,-4.95766 41.2778,79.4577 23.3706,84.41535 l 0,0 c -46.1206,11.90564 -93.4772,17.20053 -140.0087,27.26914 -54.0659,13.0785 -113.2734,26.50143 -154.6434,66.25088 -10.5628,15.50356 -83.6473,-34.29026 -73.0844,-49.79382 z" id="path19513" inkscape:connector-curvature="0" style="fill:#aa0000;fill-opacity:1;fill-rule:nonzero;stroke:#f9f9f9;stroke-width:0.1;stroke-miterlimit:4;stroke-dasharray:none" transform="translate(-8192, 0)"/><path d="m 8738.864,231.96019 c 47.1767,-7.83317 95.1864,-8.32574 142.8872,-9.12489 47.0279,-1.0288 94.0384,-0.0333 140.9256,3.699 35.5488,3.56904 72.1197,12.66599 91.8992,45.60269 4.1534,6.91609 6.1092,14.93343 9.1638,22.40014 9.9683,45.9761 -0.894,91.98557 -13.2722,136.32596 -14.6118,48.48384 -37.1988,89.81426 -74.1059,124.5318 -6.3935,4.0564 -12.787,8.11281 -19.1805,12.16921 -16.3024,9.23332 -59.8287,-67.61708 -43.5263,-76.85039 l 0,0 c 1.4175,-0.36755 2.835,-0.7351 4.2524,-1.10265 25.935,-20.05153 38.3201,-52.07542 48.6561,-82.17762 7.7366,-27.69572 14.653,-55.96486 13.1929,-84.97022 4.9748,-1.40506 -3.9199,0.80276 5.0033,0.59824 10.3279,-0.23672 -35.7967,-14.68554 -29.55,-9.29462 -43.8617,-4.05175 -87.8897,-5.12751 -131.9285,-4.12685 -41.0036,0.75975 -82.4609,0.80776 -122.8844,8.45103 -18.2711,4.56778 -39.8038,-81.56306 -21.5327,-86.13083 z" id="path19515" inkscape:connector-curvature="0" style="fill:#aa0000;fill-opacity:1;fill-rule:nonzero;stroke:#f9f9f9;stroke-width:0.1;stroke-miterlimit:4;stroke-dasharray:none" transform="translate(-8192, 0)"/><path d="m 8940.6429,308.60235 c -17.403,39.5389 -21.5376,83.6559 -28.8275,125.89078 -5.4789,33.03396 -13.7119,65.43281 -23.2727,97.48449 -5.4707,17.72642 -89.0339,-8.06305 -83.5631,-25.78947 l 0,0 c 9.0915,-28.32488 16.6643,-57.06192 21.5864,-86.44096 9.2208,-53.19027 14.7201,-108.34552 38.4137,-157.55165 9.8443,-16.0506 85.5076,30.35621 75.6632,46.40681 z" id="path19517" inkscape:connector-curvature="0" style="fill:#aa0000;fill-opacity:1;fill-rule:nonzero;stroke:#f9f9f9;stroke-width:0.1;stroke-miterlimit:4;stroke-dasharray:none" transform="translate(-8192, 0)"/><path d="m 8720.735,501.30184 c 60.4943,-17.95471 123.2851,-15.65313 185.1408,-8.05818 32.2983,4.48839 63.9662,12.37505 96.0232,18.17088 18.4164,3.86149 0.2132,90.67728 -18.2032,86.81579 l 0,0 c -29.4962,-6.95171 -58.8437,-14.70296 -88.8065,-19.4665 -47.9181,-6.48349 -97.1865,-9.7419 -143.8492,5.87679 -17.6789,6.42866 -47.9839,-76.91011 -30.3051,-83.33878 z" id="path19519" inkscape:connector-curvature="0" style="fill:#aa0000;fill-opacity:1;fill-rule:nonzero;stroke:#f9f9f9;stroke-width:0.1;stroke-miterlimit:4;stroke-dasharray:none" transform="translate(-8192, 0)"/><path d="m 8835.7156,296.80979 c -11.4809,62.44828 -31.8763,122.72025 -51.9162,182.81305 -20.2418,57.89331 -37.3736,116.67521 -40.2839,178.14688 0.1185,39.85805 8.8844,79.02584 34.8931,109.92175 23.4953,19.96904 54.9914,20.09146 84.2872,20.58933 44.4942,-0.89991 88.6456,-6.46387 132.4175,-14.1598 21.6896,-4.80193 44.4217,-6.5985 64.8476,-15.84157 2.0417,-0.74304 3.4573,-2.0215 5.069,-3.31964 16.1095,-10.12122 63.8214,65.81945 47.7119,75.94067 l 0,0 c -6.2248,3.65727 -12.5693,7.0991 -19.274,9.82216 -27.0051,10.40496 -55.3729,15.12725 -83.8713,19.66123 -49.2075,7.90691 -98.7733,13.85095 -148.6622,14.81992 -57.0152,-1.29314 -111.8707,-9.62164 -151.9236,-54.50443 -5.4999,-7.57264 -11.5991,-14.74434 -16.4996,-22.71791 -26.6817,-43.41319 -35.374,-94.99612 -35.2831,-145.18245 4.5157,-68.94595 22.3387,-135.05399 45.6019,-200.01844 18.0924,-54.91148 37.1198,-110.12647 45.0543,-167.62186 2.4715,-18.63186 90.303,-6.98075 87.8314,11.65111 z" id="path19521" inkscape:connector-curvature="0" style="fill:#aa0000;fill-opacity:1;fill-rule:nonzero;stroke:#f9f9f9;stroke-width:0.1;stroke-miterlimit:4;stroke-dasharray:none" transform="translate(-8192, 0)"/></svg>