<?xml version="1.0" encoding="UTF-8" standalone="no"?>
<svg
   xmlns:dc="http://purl.org/dc/elements/1.1/"
   xmlns:cc="http://creativecommons.org/ns#"
   xmlns:rdf="http://www.w3.org/1999/02/22-rdf-syntax-ns#"
   xmlns:svg="http://www.w3.org/2000/svg"
   xmlns="http://www.w3.org/2000/svg"
   xmlns:sodipodi="http://sodipodi.sourceforge.net/DTD/sodipodi-0.dtd"
   xmlns:inkscape="http://www.inkscape.org/namespaces/inkscape"
   width="1024"
   height="1024"
   id="U6301"
   version="1.1"
   inkscape:version="0.48.0 r9654"
   sodipodi:docname="U+6301.svg">
  <metadata
     id="metadata16">
    <rdf:RDF>
      <cc:Work
         rdf:about="">
        <dc:format>image/svg+xml</dc:format>
        <dc:type
           rdf:resource="http://purl.org/dc/dcmitype/StillImage" />
      </cc:Work>
    </rdf:RDF>
  </metadata>
  <defs
     id="defs14" />
  <sodipodi:namedview
     pagecolor="#ffffff"
     bordercolor="#666666"
     borderopacity="1"
     objecttolerance="10"
     gridtolerance="10"
     guidetolerance="10"
     inkscape:pageopacity="0"
     inkscape:pageshadow="2"
     inkscape:window-width="640"
     inkscape:window-height="480"
     id="namedview12"
     showgrid="false"
     inkscape:zoom="0.27441406"
     inkscape:cx="512"
     inkscape:cy="512"
     inkscape:window-x="0"
     inkscape:window-y="25"
     inkscape:window-maximized="0"
     inkscape:current-layer="U6301" />
  <path
     style="fill:#800000;fill-opacity:1;fill-rule:nonzero;stroke:#f9f9f9;stroke-width:0.1;stroke-miterlimit:4;stroke-dasharray:none"
     d="M 605.5 125.59375 C 595.28896 125.37797 587.65086 127.34144 586.375 132.40625 C 577.35471 173.13573 570.26043 214.23744 563.40625 255.375 C 544.08745 255.40477 524.78782 255.39499 505.46875 255.40625 C 486.88755 256.05255 489.9188 343.6463 508.5 343 C 522.45563 342.37151 536.4386 342.01598 550.40625 341.78125 C 546.64214 369.02201 543.17088 396.27984 539.96875 423.59375 C 539.66359 426.42708 539.36767 429.26041 539.0625 432.09375 C 493.24473 440.21109 447.26699 450.11939 405.46875 471.1875 C 389.58715 480.7631 434.7435 555.60685 450.625 546.03125 C 486.8925 527.80495 527.4723 520.6083 567.125 513.8125 C 579.78196 511.95289 592.50248 510.37955 605.25 509.15625 C 601.42128 537.5788 597.61337 565.98562 594 594.4375 C 560.8957 597.19212 527.8358 600.51242 494.875 604.75 C 473.96795 607.44698 453.03955 610.18458 432.1875 613.34375 C 427.96668 588.30035 413.89213 556.18477 402.8125 559.53125 C 368.6025 570.06755 386.28885 564.855 349.71875 575.125 C 330.21837 580.44263 310.66553 585.64341 291.15625 591.0625 C 294.4071 546.44806 298.3757 501.75205 305.15625 457.53125 C 320.17765 456.79448 335.18432 455.8094 350.1875 454.71875 C 368.3849 453.28795 361.6348 367.5067 343.4375 368.9375 C 336.59307 369.52062 329.75538 370.06168 322.90625 370.5625 C 323.56398 368.07025 324.22021 365.58033 324.90625 363.09375 C 335.30875 329.64615 345.97465 295.16145 366.90625 266.53125 C 379.19875 252.57765 313.4175 194.6089 301.125 208.5625 C 272.1092 246.7738 257.19035 292.86305 243.53125 338.21875 C 240.3417 350.16091 237.48265 362.17102 234.84375 374.21875 C 204.73962 374.99114 174.6467 375.48406 144.53125 375.5 C 125.99035 375.9724 128.2091 463.37855 146.75 462.90625 C 171.13723 461.84251 195.53764 461.09971 219.9375 460.375 C 213.88387 505.79128 210.15258 551.55986 206.90625 597.21875 C 206.43729 603.9759 206.06007 610.74049 205.6875 617.5 C 193.28078 621.91186 180.97412 626.61812 168.8125 631.71875 C 124.9457 653.72315 87.7975 677.61225 80.3125 729.96875 C 79.5049 748.54365 167.0674 752.35615 167.875 733.78125 C 177.28543 722.89435 190.59482 716.6008 203.375 710.4375 C 203.55026 749.89409 205.09211 789.35516 207.71875 828.75 C 208.42915 837.4005 209.1646 846.0371 209.875 854.6875 C 211.504 872.7839 296.78515 865.0964 295.15625 847 C 294.35255 838.8301 293.5537 830.6699 292.75 822.5 C 288.949 775.27099 286.96742 727.94017 287.375 680.59375 C 309.6769 673.93449 332.15522 667.86918 354.625 661.84375 C 359.26929 686.37211 371.39337 714.26181 381.90625 711.4375 C 422.56065 700.4272 464.475 694.93555 506.125 689.21875 C 532.12923 685.68139 558.19194 682.84858 584.3125 680.46875 C 581.58148 711.0132 579.66238 741.62686 578.65625 772.28125 C 554.52596 760.96627 530.26251 749.91676 506.375 738.09375 C 489.5608 730.22035 452.46695 809.47035 469.28125 817.34375 C 499.22625 830.68335 529.09235 844.17725 558.65625 858.34375 C 563.98895 860.89552 571.47584 854.49063 578.625 844.40625 C 579.83407 869.79694 582.14206 895.13598 583.25 920.53125 C 584.3019 938.89765 670.89555 933.96015 669.84375 915.59375 C 667.45385 881.05785 663.3048 846.6017 663.0625 811.9375 C 663.01573 765.85951 665.42608 719.90278 670 674.09375 C 678.72916 673.55726 687.45648 673.0235 696.1875 672.53125 C 734.994 670.47835 773.8427 669.30445 812.6875 668.28125 C 831.0319 667.58175 827.7194 581.113 809.375 581.8125 C 769.9891 583.7795 730.58975 585.3626 691.21875 587.625 C 687.70814 587.83733 684.19793 588.06388 680.6875 588.28125 C 684.38165 561.61168 688.34311 534.96698 692.75 508.40625 C 694.03116 508.53101 695.3132 508.64235 696.59375 508.78125 C 714.85175 510.47135 722.8205 424.40885 704.5625 422.71875 C 678.47394 420.60415 652.35021 420.44293 626.28125 421.84375 C 629.41229 394.85442 632.87601 367.90049 636.6875 341 C 653.43492 340.83222 670.20249 340.55181 686.9375 339.78125 C 705.3253 338.73715 700.3879 252.04965 682 253.09375 C 671.45503 253.82928 660.90427 254.29068 650.34375 254.59375 C 656.25134 220.77765 662.5047 186.98477 671.28125 153.78125 C 674.54179 140.83786 631.59488 126.14519 605.5 125.59375 z "
     id="path20959" />
</svg>
