<?xml version="1.0" encoding="UTF-8" standalone="no"?>
<svg
   xmlns:dc="http://purl.org/dc/elements/1.1/"
   xmlns:cc="http://creativecommons.org/ns#"
   xmlns:rdf="http://www.w3.org/1999/02/22-rdf-syntax-ns#"
   xmlns:svg="http://www.w3.org/2000/svg"
   xmlns="http://www.w3.org/2000/svg"
   xmlns:sodipodi="http://sodipodi.sourceforge.net/DTD/sodipodi-0.dtd"
   xmlns:inkscape="http://www.inkscape.org/namespaces/inkscape"
   width="1024"
   height="1024"
   id="U6389"
   version="1.1"
   inkscape:version="0.48.0 r9654"
   sodipodi:docname="U+6389.svg">
  <metadata
     id="metadata18">
    <rdf:RDF>
      <cc:Work
         rdf:about="">
        <dc:format>image/svg+xml</dc:format>
        <dc:type
           rdf:resource="http://purl.org/dc/dcmitype/StillImage" />
      </cc:Work>
    </rdf:RDF>
  </metadata>
  <defs
     id="defs16" />
  <sodipodi:namedview
     pagecolor="#ffffff"
     bordercolor="#666666"
     borderopacity="1"
     objecttolerance="10"
     gridtolerance="10"
     guidetolerance="10"
     inkscape:pageopacity="0"
     inkscape:pageshadow="2"
     inkscape:window-width="640"
     inkscape:window-height="480"
     id="namedview14"
     showgrid="false"
     inkscape:zoom="0.27441406"
     inkscape:cx="512"
     inkscape:cy="512"
     inkscape:window-x="0"
     inkscape:window-y="25"
     inkscape:window-maximized="0"
     inkscape:current-layer="U6389" />
  <path
     style="fill:#550000;fill-opacity:1;fill-rule:nonzero;stroke:#f9f9f9;stroke-width:0.1;stroke-miterlimit:4;stroke-dasharray:none"
     d="M 304.53125 172.75 C 299.76505 172.83058 296.29074 174.14129 294.9375 177.03125 C 275.7255 223.97755 269.1827 274.63145 263 324.59375 C 261.21472 341.49333 259.72925 358.40679 258.4375 375.34375 C 233.51309 380.95611 208.59798 386.60824 183.6875 392.28125 C 165.761 397.17035 188.8235 481.67025 206.75 476.78125 C 222.19322 472.58438 237.69344 468.69955 253.25 464.9375 C 251.88397 496.74153 250.89233 528.57157 249.84375 560.375 C 249.30062 576.87489 248.79394 593.37283 248.34375 609.875 C 228.41488 621.85825 209.04009 634.79611 190.5 649 C 154.0536 677.9028 117.04395 708.26525 94.21875 749.65625 C 86.44655 766.55235 166.1028 803.17725 173.875 786.28125 C 190.9503 757.52115 217.93625 736.31155 243.65625 715.71875 C 244.45069 715.10555 245.26441 714.5137 246.0625 713.90625 C 245.66238 736.91411 245.31398 759.9276 245.03125 782.9375 C 242.72395 821.5634 247.36585 861.34025 239.65625 899.53125 C 236.70475 917.75425 322.611 931.6605 325.5625 913.4375 C 331.5973 870.4515 329.40675 826.91 330.03125 783.625 C 330.19574 742.74101 330.61099 701.87672 331.34375 661 C 348.4363 652.15489 365.85071 643.89763 383.375 635.9375 C 387.01136 634.28989 390.64487 632.64761 394.28125 631 C 398.4635 650.69527 404.24851 669.98887 412.3125 688.53125 C 416.29328 697.05879 438.69199 691.71138 458.71875 682.1875 C 464.28534 707.02788 478.41971 736.22693 489.125 732.75 C 517.61813 722.99637 546.97515 716.27473 576.40625 710.03125 C 575.9677 730.28125 575.58996 750.53135 575.15625 770.78125 C 558.93038 774.17311 542.74757 777.67605 526.5625 781.28125 C 488.9234 789.17185 451.1893 796.95225 412.9375 801.28125 C 394.542 804.03225 407.51085 890.751 425.90625 888 C 465.75445 881.762 505.2029 873.39725 544.5625 864.65625 C 553.99582 862.44623 563.42255 860.27177 572.875 858.15625 C 572.08542 887.89522 571.46749 917.61851 571.65625 947.375 C 571.97265 954.811 572.27735 962.2525 572.59375 969.6875 C 573.53115 987.9345 659.53125 983.52825 658.59375 965.28125 C 658.20365 958.96425 657.8276 952.6305 657.4375 946.3125 C 656.76673 911.05981 657.46028 875.82931 658.4375 840.59375 C 685.97542 835.49895 713.6085 830.97821 741.375 827.15625 C 771.1315 823.05425 801.09775 821.38025 831.03125 823.78125 C 849.31315 824.84825 854.3444 738.66035 836.0625 737.59375 C 800.4234 736.06345 764.85545 737.69835 729.53125 743.09375 C 706.59004 746.40569 683.71642 750.11953 660.90625 754.15625 C 661.45171 735.02847 662.06268 715.8977 662.90625 696.78125 C 666.75052 696.56306 670.57951 696.39852 674.4375 696.34375 C 692.8538 695.67145 689.69745 608.85895 671.28125 609.53125 C 637.97795 611.24585 605.0663 616.5601 572.375 623.0625 C 543.77721 628.93802 515.20226 635.03836 486.96875 642.46875 C 478.51035 622.24802 476.63565 599.18698 473.09375 577.9375 C 471.05499 554.28423 469.94499 530.32689 473.46875 506.84375 C 479.34416 514.87862 485.35993 519.61818 490.09375 517.625 C 518.17035 506.7912 548.12785 501.91135 577.71875 497.21875 C 616.85255 491.47045 656.4425 490.6491 695.875 492.75 C 706.6257 494.5826 743.1422 495.22295 748.375 507.84375 C 742.1483 510.96215 743.1055 524.4206 741.8125 531 C 736.6829 552.9968 730.56995 575.216 718.71875 594.625 C 709.60435 610.6792 785.29185 653.64795 794.40625 637.59375 C 809.93075 609.21875 820.5824 578.72135 827.1875 547.03125 C 834.1847 508.74685 834.45415 471.6667 805.34375 441.875 C 771.38865 415.3305 742.4745 409.3623 700 406.5625 C 655.00148 404.60468 609.87022 405.59532 565.21875 412.03125 C 564.34868 399.41128 563.50743 386.78147 562.71875 374.15625 C 586.97542 368.40952 612.11499 367.27625 636.90625 365.5 C 656.97145 363.7812 677.07065 363.634 697.15625 364.8125 C 715.54655 365.6812 719.6403 278.96245 701.25 278.09375 C 677.7887 277.18805 654.32675 277.33255 630.90625 279.28125 C 606.52713 280.92995 581.95609 282.24625 557.8125 286.1875 C 556.31118 259.87133 554.54734 233.58676 551.75 207.375 C 548.9661 189.0268 462.4661 202.12055 465.25 220.46875 C 471.3979 262.48435 473.0752 305.0224 475.5 347.375 C 477.02592 374.6289 478.70494 401.8795 480.375 429.125 C 472.21022 431.43763 464.12061 433.96146 456.125 436.875 C 449.06618 439.84712 450.70115 455.32241 456.25 471.96875 C 432.03832 462.06569 394.8954 457.06781 391.9375 468.8125 C 385.10564 499.28614 384.15121 530.30739 385.625 561.28125 C 379.02154 552.141 372.19443 546.52352 367.15625 548.84375 C 360.58115 551.92075 353.98135 554.9855 347.40625 558.0625 C 342.85013 560.19686 338.32072 562.35781 333.78125 564.53125 C 333.79606 564.08318 333.79759 563.63557 333.8125 563.1875 C 335.12952 524.04835 336.40358 484.86906 338.5 445.75 C 364.82183 440.6331 391.34473 436.61956 417.90625 432.9375 C 436.16285 430.183 423.16285 344.1204 404.90625 346.875 C 384.92076 350.1341 364.95142 353.43012 345.03125 357.0625 C 345.73719 349.82186 346.47035 342.57576 347.28125 335.34375 C 352.68065 294.38975 357.73035 252.3946 374.21875 214.125 C 380.73891 200.20074 327.49569 172.36176 304.53125 172.75 z M 683.8125 521.84375 C 670.48457 521.84519 657.1335 522.1315 643.8125 522.65625 C 605.9098 524.69295 567.74355 527.24925 531.15625 538.15625 C 513.60655 544.24195 542.29405 626.99205 559.84375 620.90625 C 588.41655 611.74775 618.60575 610.3293 648.34375 608.8125 C 666.97125 608.2495 685.61155 608.05495 704.21875 609.15625 C 722.67775 609.91175 726.24015 522.91175 707.78125 522.15625 C 699.78606 521.93927 691.80926 521.84289 683.8125 521.84375 z "
     id="path22139" />
</svg>
