<?xml version="1.0" encoding="utf-8" ?>

<!DOCTYPE svg PUBLIC "-//W3C//DTD SVG 1.1//EN" 
  "http://www.w3.org/Graphics/SVG/1.1/DTD/svg11.dtd">
<svg 
    xmlns="http://www.w3.org/2000/svg"
    xmlns:xlink="http://www.w3.org/1999/xlink"
    xmlns:sodipodi="http://sodipodi.sourceforge.net/DTD/sodipodi-0.dtd"
    xmlns:inkscape="http://www.inkscape.org/namespaces/inkscape"
    width="1024" height="1024" id="U6324">
<path d="m 10381.21,20854.049 c 44.368,-0.838 88.593,-4.959 132.806,-8.479 30.109,-2.549 60.297,-3.8 90.468,-5.308 18.7,-0.743 22.202,87.408 3.503,88.151 l 0,0 c -29.026,0.856 -58.064,1.618 -87.014,4.06 -45.549,3.666 -91.054,7.919 -136.666,10.769 -18.92,0.657 -22.017,-88.536 -3.097,-89.193 z" id="path8463" inkscape:connector-curvature="0" style="fill:#550000;fill-opacity:1;fill-rule:nonzero;stroke:#f9f9f9;stroke-width:0.1;stroke-miterlimit:4;stroke-dasharray:none" transform="translate(-10240, -20480)"/><path d="m 10599.313,20710.305 c -10.534,35.547 -9.4,73.439 -9.731,110.137 0.948,81.795 2.509,163.577 2.874,245.379 0.15,69.785 -0.849,139.574 -4.249,209.279 -0.551,7.915 -1.101,15.83 -1.651,23.745 -1.445,18.542 -88.851,11.732 -87.407,-6.81 l 0,0 c 0.632,-7.261 1.265,-14.523 1.897,-21.784 4.269,-67.951 5.737,-136.033 5.753,-204.114 -0.238,-81.979 -1.939,-163.929 -3.957,-245.882 -0.197,-46.932 -1.233,-94.879 12.385,-140.314 6.441,-17.838 90.527,12.527 84.086,30.364 z" id="path8465" inkscape:connector-curvature="0" style="fill:#550000;fill-opacity:1;fill-rule:nonzero;stroke:#f9f9f9;stroke-width:0.1;stroke-miterlimit:4;stroke-dasharray:none" transform="translate(-10240, -20480)"/><path d="m 10362.333,21220.844 c 41.698,-38.277 93.399,-63.429 143.376,-88.989 55.873,-27.705 112.751,-53.308 168.758,-80.737 13.351,-7.043 27.334,-13.087 39.797,-21.686 16.107,-9.962 63.069,65.966 46.962,75.928 l 0,0 c -15.831,9.247 -32.341,17.175 -48.961,24.906 -55.736,25.968 -112.021,50.795 -166.984,78.391 -40.198,20.877 -81.876,41.308 -116.111,71.444 -12.57,14.178 -79.407,-45.079 -66.837,-59.257 z" id="path8467" inkscape:connector-curvature="0" style="fill:#550000;fill-opacity:1;fill-rule:nonzero;stroke:#f9f9f9;stroke-width:0.1;stroke-miterlimit:4;stroke-dasharray:none" transform="translate(-10240, -20480)"/><path d="m 10864.222,20633.489 c 7.823,26.119 22.874,48.833 39.439,70.14 9.874,12.27 21.212,23.2 32.458,34.176 13.334,13.156 -48.684,76.011 -62.018,62.856 l 0,0 c -13.981,-13.923 -28.006,-27.85 -40.276,-43.354 -23.083,-30.284 -43.571,-62.513 -55.394,-99.019 -5.261,-18.199 80.531,-42.998 85.791,-24.799 z" id="path8469" inkscape:connector-curvature="0" style="fill:#550000;fill-opacity:1;fill-rule:nonzero;stroke:#f9f9f9;stroke-width:0.1;stroke-miterlimit:4;stroke-dasharray:none" transform="translate(-10240, -20480)"/><path d="m 10649.665,20809.427 c 44.02,6.678 88.808,5.685 133.2,5.298 61.504,-1.026 122.923,-4.596 184.327,-8.042 42.094,-2.716 84.216,-4.667 126.384,-3.028 19.336,0.811 38.454,3.336 57.125,8.395 18.176,5.395 -7.254,91.076 -25.43,85.681 l 0,0 c -11.259,-4.518 -24.01,-4.047 -35.831,-5.676 -39.217,-2.205 -78.445,-0.508 -117.639,1.618 -62.619,3.123 -125.236,6.559 -187.926,7.896 -49.728,0.718 -99.7,1.722 -149.187,-4.155 -18.665,-3.177 -3.688,-91.164 14.977,-87.987 z" id="path8471" inkscape:connector-curvature="0" style="fill:#550000;fill-opacity:1;fill-rule:nonzero;stroke:#f9f9f9;stroke-width:0.1;stroke-miterlimit:4;stroke-dasharray:none" transform="translate(-10240, -20480)"/><path d="m 11035.082,20899.081 c -31.296,28.558 -61.545,58.245 -92.266,87.419 -45.649,43.336 -92.923,84.903 -140.115,126.536 -30.392,26.29 -59.793,53.654 -88.107,82.161 -12.751,15.101 -23.236,21.043 -41.478,29.183 -18.534,4.333 -38.959,-83.036 -20.425,-87.369 l 0,0 c -30.1,15.785 -5.717,3.224 -0.283,-4.935 30.126,-29.078 61.046,-57.29 92.932,-84.436 46.484,-40.537 92.845,-81.252 137.27,-124.059 30.961,-29.855 61.57,-60.063 92.116,-90.342 13.967,-12.803 74.323,53.039 60.356,65.842 z" id="path8473" inkscape:connector-curvature="0" style="fill:#550000;fill-opacity:1;fill-rule:nonzero;stroke:#f9f9f9;stroke-width:0.1;stroke-miterlimit:4;stroke-dasharray:none" transform="translate(-10240, -20480)"/><path d="m 10721.857,20896.066 c 32.68,24.515 65.341,49.028 98.547,72.83 48.752,33.951 98.072,67.075 147.574,99.919 33.531,22.268 67.437,43.964 102.479,63.784 5.674,3.308 11.531,6.269 17.498,9.001 16.886,8.716 -24.201,88.314 -41.086,79.598 l 0,0 c -7.028,-3.944 -14.103,-7.81 -20.988,-12.004 -36.097,-21.551 -71.337,-44.464 -106.213,-67.935 -50.061,-33.553 -100.066,-67.193 -149.774,-101.267 -32.723,-23.048 -64.86,-46.915 -97.767,-69.691 -15.747,-10.549 33.983,-84.784 49.73,-74.235 z" id="path8475" inkscape:connector-curvature="0" style="fill:#550000;fill-opacity:1;fill-rule:nonzero;stroke:#f9f9f9;stroke-width:0.1;stroke-miterlimit:4;stroke-dasharray:none" transform="translate(-10240, -20480)"/><path d="m 10807.278,21160.075 c -3.904,34.534 -8.439,68.991 -12.323,103.529 -2.112,24.986 -6.081,50.284 -2.65,75.313 1.816,18.737 -86.511,27.295 -88.327,8.558 l 0,0 c -2.4,-31.289 -0.06,-62.462 3.641,-93.598 3.717,-33.697 8.167,-67.342 10.597,-101.162 1.561,-18.893 90.623,-11.533 89.062,7.36 z" id="path8477" inkscape:connector-curvature="0" style="fill:#550000;fill-opacity:1;fill-rule:nonzero;stroke:#f9f9f9;stroke-width:0.1;stroke-miterlimit:4;stroke-dasharray:none" transform="translate(-10240, -20480)"/><path d="m 11013.884,21160.959 c -8.222,32.772 -7.268,66.985 -7.303,100.52 0.457,41.528 0.644,83.064 1.7,124.582 0.316,12.384 1.275,24.726 2.469,37.05 1.585,18.783 -86.958,26.254 -88.543,7.472 l 0,0 c -1.057,-14.236 -1.934,-28.481 -2.139,-42.76 -0.622,-42.098 -0.568,-84.205 -1.121,-126.305 -0.08,-42.155 -0.615,-84.843 9.397,-126.093 5.417,-18.146 90.956,7.388 85.54,25.534 z" id="path8479" inkscape:connector-curvature="0" style="fill:#550000;fill-opacity:1;fill-rule:nonzero;stroke:#f9f9f9;stroke-width:0.1;stroke-miterlimit:4;stroke-dasharray:none" transform="translate(-10240, -20480)"/></svg>