<?xml version="1.0" encoding="UTF-8" standalone="no"?>
<svg
   xmlns:dc="http://purl.org/dc/elements/1.1/"
   xmlns:cc="http://creativecommons.org/ns#"
   xmlns:rdf="http://www.w3.org/1999/02/22-rdf-syntax-ns#"
   xmlns:svg="http://www.w3.org/2000/svg"
   xmlns="http://www.w3.org/2000/svg"
   xmlns:sodipodi="http://sodipodi.sourceforge.net/DTD/sodipodi-0.dtd"
   xmlns:inkscape="http://www.inkscape.org/namespaces/inkscape"
   width="1024"
   height="1024"
   id="U63E1"
   version="1.1"
   inkscape:version="0.48.0 r9654"
   sodipodi:docname="U+63E1.svg">
  <metadata
     id="metadata19">
    <rdf:RDF>
      <cc:Work
         rdf:about="">
        <dc:format>image/svg+xml</dc:format>
        <dc:type
           rdf:resource="http://purl.org/dc/dcmitype/StillImage" />
      </cc:Work>
    </rdf:RDF>
  </metadata>
  <defs
     id="defs17" />
  <sodipodi:namedview
     pagecolor="#ffffff"
     bordercolor="#666666"
     borderopacity="1"
     objecttolerance="10"
     gridtolerance="10"
     guidetolerance="10"
     inkscape:pageopacity="0"
     inkscape:pageshadow="2"
     inkscape:window-width="640"
     inkscape:window-height="480"
     id="namedview15"
     showgrid="false"
     inkscape:zoom="0.27441406"
     inkscape:cx="512"
     inkscape:cy="512"
     inkscape:window-x="0"
     inkscape:window-y="25"
     inkscape:window-maximized="0"
     inkscape:current-layer="U63E1" />
  <path
     style="fill:#501616;fill-opacity:1;fill-rule:nonzero;stroke:#f9f9f9;stroke-width:0.1;stroke-miterlimit:4;stroke-dasharray:none"
     d="M 665.625 160.46875 C 632.14706 160.81877 598.83468 164.95825 565.84375 171.625 C 525.14889 180.12856 483.79039 189.4671 447.21875 209.875 C 434.93757 207.70505 425.05263 208.43097 423 214.0625 C 409.2777 258.6325 402.88535 305.01025 396.21875 351.03125 C 390.83872 392.63553 385.69221 434.2822 380.71875 475.9375 C 380.35524 476.25274 379.98655 476.55665 379.625 476.875 C 377.32849 479.28223 377.45371 483.19476 379.28125 487.90625 C 377.66233 501.5515 376.08786 515.22607 374.5 528.875 C 370.02544 522.85994 365.41452 519.50136 361.375 520.875 C 340.8564 528.054 320.3282 535.266 300.25 543.625 C 295.7203 545.53917 291.2007 547.48285 286.6875 549.4375 C 284.96724 503.5705 282.59209 457.7222 279.6875 411.90625 C 306.42426 404.35534 333.57668 398.42365 361.375 397 C 363.9599 397.241 366.5401 397.47675 369.125 397.71875 C 387.7404 398.35175 390.7405 310.60175 372.125 309.96875 C 366.3498 309.92975 360.55645 309.88375 354.78125 309.84375 C 327.47203 312.35019 300.6606 317.54546 274.1875 324.28125 C 272.01076 287.55348 270.23064 250.80472 270.25 214.03125 C 271.0582 195.32725 182.90195 191.51375 182.09375 210.21875 C 183.69588 256.85846 186.98698 303.41415 190.34375 349.96875 C 149.46433 364.10379 108.49049 378.77182 70.5625 399.71875 C 54.8604 410.01875 103.4229 484.049 119.125 473.75 C 143.66458 459.59698 169.97142 448.86055 196.59375 439.125 C 199.7693 489.18181 202.07724 539.27375 203.5 589.40625 C 181.87689 601.1107 160.76558 613.79284 140.46875 627.84375 C 102.20105 654.83175 64.55705 682.898 31.15625 715.875 C 18.31135 729.531 82.68645 790.06225 95.53125 776.40625 C 123.70945 746.44325 156.8529 721.873 190.25 698.125 C 195.01326 694.81678 199.85886 691.63992 204.71875 688.5 C 204.30692 740.6014 202.54802 792.71521 198.03125 844.625 C 195.35255 864.752 197.04055 855.67175 193.46875 871.84375 C 190.00865 890.11175 276.13375 906.42425 279.59375 888.15625 C 283.58305 864.60925 281.85085 876.9325 284.53125 851.1875 C 288.92385 784.7235 289.8882 718.06275 289.4375 651.46875 C 289.38778 648.51569 289.33641 645.57785 289.28125 642.625 C 303.89028 635.87648 318.68169 629.48079 333.5625 623.34375 C 343.93893 619.12762 354.44933 615.30479 365.03125 611.65625 C 364.22795 618.77111 363.42395 625.88473 362.625 633 C 353.525 715 344.0427 796.957 338 879.25 C 335.9647 902.875 335.76825 926.54075 336.28125 950.21875 C 336.95675 968.71975 424.1755 965.53225 423.5 947.03125 C 422.3459 926.32825 422.2356 905.61825 423.6875 884.90625 C 428.4278 803.81025 437.12805 723.0505 445.96875 642.3125 C 448.42199 620.27595 450.91517 598.24517 453.46875 576.21875 C 457.69698 600.59102 488.06555 646.71484 500.875 639.28125 C 512.43351 633.73122 524.32492 628.965 536.40625 624.6875 C 535.86464 626.17873 535.31477 627.6622 534.78125 629.15625 C 523.26845 662.16525 517.24265 690.19 524.34375 724.75 C 537.99515 762.469 570.86665 775.11075 607.59375 780.09375 C 630.06626 781.85365 652.22949 779.49837 674.09375 775.1875 C 673.54656 782.52621 673.04871 789.85309 672.59375 797.1875 C 664.957 798.46721 657.31285 799.79596 649.6875 801.15625 C 614.1263 807.07625 578.40585 811.90725 542.90625 818.15625 C 524.65755 822.59025 545.5638 908.6215 563.8125 904.1875 C 597.074 897.2595 630.74045 892.40975 664.21875 886.59375 C 664.8636 886.4774 665.51131 886.36598 666.15625 886.25 C 665.60841 892.98965 665.07848 899.72907 664.53125 906.46875 C 650.40289 908.19416 636.30198 910.12285 622.21875 912.3125 C 571.72095 920.0775 521.29405 928.7595 472.03125 942.5625 C 454.15335 948.1065 480.3097 1032.3878 498.1875 1026.8438 C 542.835 1012.3277 589.21785 1004.5195 635.46875 997.1875 C 694.72275 987.8415 754.43155 982.65175 814.40625 983.96875 C 847.96365 984.72275 880.3889 991.8195 911.75 1003.3125 C 929.1995 1009.4435 958.10575 927.16325 940.65625 921.03125 C 900.27525 907.28425 858.7525 898.38875 815.875 897.84375 C 794.68626 897.57438 773.53206 897.97953 752.40625 898.96875 C 753.05114 890.48565 753.7208 881.98243 754.375 873.5 C 764.93945 872.56395 775.52826 871.93822 786.15625 871.65625 L 797.8125 872.03125 C 816.4029 872.34825 817.9028 784.72225 799.3125 784.40625 C 793.8272 784.37625 788.32905 784.37375 782.84375 784.34375 C 775.4537 784.69211 768.08222 785.16072 760.71875 785.75 C 761.62014 773.83736 762.7585 761.9205 764.8125 750.1875 C 774.95146 747.08222 785.11979 744.02411 795.3125 741.09375 C 799.77917 739.77808 801.5477 733.51305 801.4375 724.9375 C 820.43543 730.74429 883.49519 700.7215 876.75 685.5625 C 868.3158 666.8795 872.69495 676.34825 863.65625 657.28125 C 851.07625 631.27125 837.4456 605.54325 828.0625 578.15625 C 822.3827 560.28625 738.1327 587.0665 743.8125 604.9375 C 750.55084 623.16467 758.62259 640.83656 767.03125 658.34375 C 744.54523 665.16395 722.18429 672.3992 699.6875 679.1875 C 673.1994 686.6065 646.1427 693.932 618.375 692.875 C 613.65984 692.4265 610.70189 691.96333 608.90625 691.71875 C 609.89793 685.31706 611.52103 677.48653 613.125 671.6875 C 614.3552 667.2395 615.81145 662.8525 617.15625 658.4375 C 625.07095 636.0575 633.886 613.848 647.75 594.375 C 648.22677 593.65986 648.54887 592.87725 648.6875 592.03125 C 685.88128 582.08196 723.20537 572.69264 760.875 564.71875 C 778.9809 561.72275 770.7473 562.67475 785.5625 561.46875 C 804.0664 559.38275 794.22255 472.164 775.71875 474.25 C 754.03965 477.12 765.2655 475.2845 742.0625 479.8125 C 689.9195 491.8425 638.2185 505.63775 586.5625 519.59375 C 542.5757 531.76375 497.83135 543.10325 456.46875 562.78125 C 455.84161 563.14523 455.32614 563.63193 454.875 564.1875 C 456.32495 551.79508 457.81664 539.4182 459.3125 527.03125 C 483.78044 512.01137 511.85771 502.98762 538.84375 493.8125 C 591.92015 476.3625 647.07405 467.839 702.59375 463.5 C 730.20845 464.807 762.28595 456.5475 788.90625 467.3125 C 806.91465 472.3175 830.5084 387.41225 812.5 382.40625 C 807.2061 381.11957 801.89702 380.05069 796.5625 379.15625 C 803.82063 355.41408 808.77129 331.02858 810.03125 306.03125 C 810.50725 273.36325 807.95055 240.58475 791.34375 211.59375 C 766.44855 177.85075 740.49705 166.1615 699.15625 161.4375 C 687.96102 160.6635 676.78431 160.35208 665.625 160.46875 z M 664.90625 247.375 C 673.99781 247.32889 683.11245 247.69275 692.21875 248.5625 C 698.22075 250.3745 718.79025 250.483 718.09375 260.625 C 722.05215 274.926 722.82315 289.5525 722.40625 304.3125 C 720.82766 329.4285 714.13756 353.63653 704.75 376.84375 C 701.63143 377.03991 698.52068 377.22335 695.40625 377.4375 C 633.04485 382.9645 571.06815 392.84075 511.34375 412.21875 C 498.30377 416.57929 485.16292 421.02068 472.15625 425.84375 C 474.93301 405.19524 477.81422 384.58699 480.8125 363.96875 C 485.10538 337.27257 489.1456 310.32374 495.1875 283.90625 C 522.45402 269.09902 553.48553 262.7706 583.59375 256.46875 C 610.4673 251.36875 637.63158 247.51333 664.90625 247.375 z M 608.28125 696.125 C 608.81044 697.58674 609.31589 699.46449 609.59375 701.875 C 607.78395 705.24351 607.59668 701.94399 608.28125 696.125 z "
     id="path13006" />
</svg>
