<?xml version="1.0" encoding="UTF-8" standalone="no"?>
<svg
   xmlns:dc="http://purl.org/dc/elements/1.1/"
   xmlns:cc="http://creativecommons.org/ns#"
   xmlns:rdf="http://www.w3.org/1999/02/22-rdf-syntax-ns#"
   xmlns:svg="http://www.w3.org/2000/svg"
   xmlns="http://www.w3.org/2000/svg"
   xmlns:sodipodi="http://sodipodi.sourceforge.net/DTD/sodipodi-0.dtd"
   xmlns:inkscape="http://www.inkscape.org/namespaces/inkscape"
   width="1024"
   height="1024"
   id="U633A"
   version="1.1"
   inkscape:version="0.48.0 r9654"
   sodipodi:docname="U+633A.svg">
  <metadata
     id="metadata16">
    <rdf:RDF>
      <cc:Work
         rdf:about="">
        <dc:format>image/svg+xml</dc:format>
        <dc:type
           rdf:resource="http://purl.org/dc/dcmitype/StillImage" />
      </cc:Work>
    </rdf:RDF>
  </metadata>
  <defs
     id="defs14" />
  <sodipodi:namedview
     pagecolor="#ffffff"
     bordercolor="#666666"
     borderopacity="1"
     objecttolerance="10"
     gridtolerance="10"
     guidetolerance="10"
     inkscape:pageopacity="0"
     inkscape:pageshadow="2"
     inkscape:window-width="640"
     inkscape:window-height="480"
     id="namedview12"
     showgrid="false"
     inkscape:zoom="0.27441406"
     inkscape:cx="512"
     inkscape:cy="512"
     inkscape:window-x="0"
     inkscape:window-y="25"
     inkscape:window-maximized="0"
     inkscape:current-layer="U633A" />
  <path
     style="fill:#782121;fill-opacity:1;fill-rule:nonzero;stroke:#f9f9f9;stroke-width:0.1;stroke-miterlimit:4;stroke-dasharray:none"
     d="M 870.78125 223.5 C 870.20655 223.4972 869.62434 223.58194 869.0625 223.75 C 834.0943 235.509 800.4919 250.7905 767.3125 266.8125 C 724.8946 287.9345 685.67875 314.61275 648.40625 343.71875 C 634.15585 354.85175 620.93625 367.14775 608.46875 380.21875 C 595.77145 393.97675 660.6152 453.85175 673.3125 440.09375 C 682.2191 429.88975 692.1434 420.6445 702.625 412.0625 C 713.66843 403.13398 724.95717 394.49974 736.53125 386.28125 C 732.79264 410.72531 729.37008 435.21341 725.875 459.6875 C 722.41773 483.24805 719.05003 506.83856 715.9375 530.4375 C 712.31677 530.54069 708.68378 530.66101 705.0625 530.75 C 668.5316 531.002 631.3487 531.83075 595.5 523.71875 C 584.97627 520.49377 571.70204 548.28893 566.15625 572.90625 C 564.9768 558.1477 560.82563 543.77323 552.6875 529.90625 C 536.37173 506.12898 515.48739 488.86713 486.96875 482.3125 C 502.90759 468.93699 519.06116 455.79439 536.15625 443.90625 C 568.01115 420.09425 581.626 391.5585 555.5625 355.4375 C 536.2741 338.9315 514.375 331.1815 489.375 327.1875 C 462.7205 322.3605 435.83305 319.008 408.71875 318.375 C 389.93975 318.546 390.75225 407.07625 409.53125 406.90625 C 419.30569 406.777 429.03063 407.31919 438.71875 408.3125 C 433.99089 412.25499 429.26417 416.21547 424.5625 420.1875 C 408.0005 434.9405 391.03465 449.3875 376.21875 465.9375 C 349.43445 504.9855 367.12185 535.69025 405.21875 553.90625 C 424.81275 561.29325 445.7536 563.3705 466.0625 567.9375 C 471.7199 569.3405 476.97755 571.16 478.21875 577.25 C 480.10685 582.634 479.13395 587.682 477.28125 592.875 C 467.35505 618.119 453.0138 641.4075 439.25 664.6875 C 423.61702 690.63476 408.03059 716.58982 391.9375 742.25 C 355.77773 729.48263 319.64358 716.58676 282.9375 705.46875 C 264.8673 700.49275 241.39855 785.68025 259.46875 790.65625 C 286.74683 797.76299 313.56318 806.53313 340.25 815.625 C 331.28418 825.56703 321.50958 834.71689 310.5 842.625 C 305.964 844.562 298.1563 851.11725 292.6875 848.28125 C 274.0513 849.87525 281.5513 937.72 300.1875 936.125 C 323.2073 933.101 344.28955 926.82925 363.21875 912.65625 C 388.20667 893.32585 409.73868 870.63738 428.25 845.28125 C 482.19022 861.73036 537.31715 873.73406 592.9375 883.34375 C 658.8465 893.25575 725.2304 899.31725 791.25 908.40625 C 835.7671 914.90725 879.9745 923.6175 925 925.4375 C 931.2177 925.1675 937.4073 924.895 943.625 924.625 C 962.1699 923.563 957.1699 836.15775 938.625 837.21875 C 934.9528 837.51475 931.2973 837.79875 927.625 838.09375 C 885.5806 837.44275 844.3211 828.10975 802.6875 823.09375 C 758.79696 817.36701 714.75604 812.86739 670.8125 807.625 C 697.00032 801.79636 723.79305 798.74784 750.40625 795.625 C 799.38305 790.361 848.579 787.49425 897.75 784.78125 C 904.1548 784.45725 910.56405 784.1375 916.96875 783.8125 C 935.41415 782.7445 930.35165 695.77575 911.90625 696.84375 L 892.5 698.125 C 857.63654 700.41261 822.76804 702.58135 787.9375 705.34375 C 787.47537 692.85864 787.5071 680.33738 788.15625 667.8125 C 789.18288 649.66407 790.62004 631.57656 792.34375 613.5 C 824.10704 612.11859 855.86998 610.75901 887.65625 609.90625 C 929.09705 609.53525 970.49035 609.0305 1011.8438 606.1875 C 1022.7625 605.3895 1033.6755 604.3305 1044.5625 603.1875 C 1063.1554 600.9875 1052.7805 513.33125 1034.1875 515.53125 C 1024.5303 516.82925 1014.8624 518 1005.1562 518.875 C 965.19815 522.303 925.11635 522.97575 885.03125 523.71875 C 857.55315 524.64382 830.09073 525.87726 802.625 527.09375 C 805.16151 508.77924 807.84674 490.46836 810.65625 472.1875 C 817.59835 426.5255 824.01255 380.6695 834.65625 335.6875 C 834.99194 334.28552 834.81086 332.87976 834.15625 331.46875 C 853.80817 322.69469 873.79905 314.65804 894.4375 308.5 C 911.85466 303.29006 888.59696 223.58691 870.78125 223.5 z M 192.125 255.53125 C 174.78004 255.44037 159.88297 258.64666 159.21875 266.21875 C 157.63115 297.71762 156.05433 329.21993 154.46875 360.71875 C 132.95681 362.46197 111.41786 363.92334 89.84375 364.5625 C 71.09725 365.1305 73.78465 453.5055 92.53125 452.9375 C 111.71382 451.56053 130.87823 449.91599 150.03125 448.1875 C 149.72101 454.23925 149.40587 460.29211 149.09375 466.34375 C 146.15544 520.98834 143.0117 575.61377 140.75 630.28125 C 111.69037 640.90335 82.590156 651.42411 53.59375 662.21875 C 36.32575 669.59475 71.107 751.001 88.375 743.625 C 104.77796 736.6983 121.32016 730.15156 137.9375 723.75 C 137.91535 725.04983 137.89548 726.35635 137.875 727.65625 C 137.355 775.33225 140.07 822.92275 144.75 870.34375 C 146.7475 888.69375 233.2476 879.2875 231.25 860.9375 C 225.9759 817.0375 222.9755 772.89725 223.0625 728.65625 C 223.15718 716.19 223.3747 703.71106 223.625 691.25 C 253.72556 679.6349 283.60673 667.49272 313.40625 655.125 C 330.29255 648.031 296.85495 568.405 279.96875 575.5 C 262.26102 583.0342 244.49977 590.45356 226.65625 597.65625 C 228.50431 555.41646 230.87983 513.21471 233.34375 471 C 233.94002 460.80647 234.53308 450.6018 235.125 440.40625 C 266.72051 437.82785 298.43621 436.174 330.125 437.3125 C 348.7668 437.6315 350.2668 349.7565 331.625 349.4375 C 301.23262 349.37389 270.86149 350.83518 240.5625 353.1875 C 242.40951 326.74414 244.52267 300.31896 247.09375 273.9375 C 248.06453 262.87059 217.47532 255.66407 192.125 255.53125 z M 492.125 417.34375 C 495.36129 418.10165 498.1099 419.24184 499.4375 421.28125 C 500.714 423.24225 497.5666 420.95025 492.1875 417.40625 C 492.16678 417.38451 492.14565 417.3655 492.125 417.34375 z M 447.0625 518.90625 C 446.06886 520.43128 444.91957 521.91003 443.59375 523.34375 C 444.6831 521.80952 445.85173 520.34572 447.0625 518.90625 z M 564.875 602.96875 C 565.85081 605.72081 567.35714 607.6053 569.5625 608.28125 C 614.24881 618.45993 660.46029 617.61342 706 616.9375 C 704.56378 632.10384 703.29949 647.2877 702.28125 662.5 C 701.1713 679.67078 701.02698 696.83112 701.625 713.96875 C 678.17849 716.91809 654.83426 720.57752 631.84375 726.09375 C 617.49378 730.29023 630.32903 784.99667 645.25 804.46875 C 632.62742 802.85594 620.00024 801.1606 607.40625 799.3125 C 563.30568 791.7416 519.56533 782.44392 476.59375 770.25 C 489.08477 749.96238 501.40924 729.58636 513.875 709.28125 C 532.4765 678.45425 552.23755 647.55375 563.09375 612.96875 C 563.79016 609.62474 564.37905 606.28553 564.875 602.96875 z "
     id="path12238" />
</svg>
