<?xml version="1.0" encoding="utf-8" ?>

<!DOCTYPE svg PUBLIC "-//W3C//DTD SVG 1.1//EN" 
  "http://www.w3.org/Graphics/SVG/1.1/DTD/svg11.dtd">
<svg 
    xmlns="http://www.w3.org/2000/svg"
    xmlns:xlink="http://www.w3.org/1999/xlink"
    xmlns:sodipodi="http://sodipodi.sourceforge.net/DTD/sodipodi-0.dtd"
    xmlns:inkscape="http://www.inkscape.org/namespaces/inkscape"
    width="1024" height="1024" id="U6307">
<path d="m 9375.3303,64907.286 c 41.7918,-15.116 85.6819,-22.412 129.4614,-28.943 53.1101,-7.288 106.4416,-12.808 159.8099,-17.798 17.5321,-1.872 35.0654,-3.145 52.6686,-2.01 18.677,2.091 8.816,90.136 -9.861,88.044 l 0,0 c -11.1812,-1.32 -23.8735,-0.382 -35.4379,0.594 -51.5508,3.938 -103.0169,9.107 -154.2029,16.456 -37.1322,5.771 -74.6422,11.731 -109.7127,25.819 -17.4291,6.942 -50.1545,-75.22 -32.7254,-82.162 z" id="path14911" inkscape:connector-curvature="0" style="fill:#2b1100;fill-opacity:1;fill-rule:nonzero;stroke:none" transform="translate(-9216, -64512)"/><path d="m 9588.3836,64760.283 c 4.555,42.775 4.5714,85.846 4.3256,128.806 -1.5134,71.106 -4.6025,142.157 -5.8724,213.271 -0.5803,59.964 -0.039,119.931 -0.067,179.896 -0.01,26.529 -0.3494,53.053 -1.3963,79.561 -0.939,18.551 -88.3891,14.125 -87.4502,-4.426 l 0,0 c 1.5901,-25.142 2.2205,-50.323 2.4068,-75.514 0.5039,-60.386 0.2863,-120.775 1.0895,-181.158 1.4494,-70.557 4.5417,-141.069 5.2916,-211.638 -0.2265,-38.718 -0.4099,-77.653 -5.9285,-116.056 -2.703,-18.583 84.8981,-31.325 87.601,-12.742 z" id="path14913" inkscape:connector-curvature="0" style="fill:#2b1100;fill-opacity:1;fill-rule:nonzero;stroke:none" transform="translate(-9216, -64512)"/><path d="m 9373.1711,65160.23 c 43.8471,-21.495 87.9051,-42.53 132.2331,-63.019 54.1051,-24.774 108.8497,-48.092 163.8921,-70.693 14.2158,-5.936 28.5592,-11.551 42.9642,-17.008 17.563,-6.305 47.288,76.487 29.725,82.793 l 0,0 c -13.5948,4.574 -27.0965,9.412 -40.4166,14.744 -53.9624,21.082 -107.385,43.503 -159.9308,67.926 -43.3963,20.389 -86.6378,41.143 -128.7304,64.137 -16.733,8.43 -56.4696,-70.45 -39.7366,-78.88 z" id="path14915" inkscape:connector-curvature="0" style="fill:#2b1100;fill-opacity:1;fill-rule:nonzero;stroke:none" transform="translate(-9216, -64512)"/><path d="m 10020.588,64747.183 c -21.0552,27.534 -42.4109,54.834 -63.8571,82.064 -28.5572,35.516 -56.3594,71.628 -84.6294,107.37 -3.6052,4.277 -7.2105,8.554 -10.8157,12.831 -12.1344,14.054 -78.3821,-43.148 -66.2478,-57.202 l 0,0 c 3.03,-3.407 6.0601,-6.814 9.0901,-10.222 28.5646,-35 56.2131,-70.741 84.2454,-106.166 20.5822,-26.577 41.2459,-53.121 60.5597,-80.645 11.0243,-15.2 82.6788,36.769 71.6548,51.97 z" id="path14917" inkscape:connector-curvature="0" style="fill:#2b1100;fill-opacity:1;fill-rule:nonzero;stroke:none" transform="translate(-9216, -64512)"/><path d="m 9835.9093,64733.465 c -4.1424,35.141 -8.2889,70.28 -11.7315,105.497 -2.4404,34.73 -6.3343,71.414 8.2065,104.049 11.2794,16.035 31.7319,17.6 49.7165,20.072 34.3836,2.997 68.9427,1.126 103.3589,-0.267 19.9403,-0.523 39.8533,-1.574 59.7613,-2.701 4.171,0.393 8.342,0.785 12.513,1.178 18.479,3.734 0.876,90.848 -17.604,87.114 l 0,0 c 2.697,0.09 5.394,0.189 8.092,0.284 -19.848,-0.104 -39.726,1.471 -59.5806,1.435 -39.8259,1.293 -79.8235,3.305 -119.5551,-0.831 -52.7704,-8.401 -93.0903,-24.34 -118.1932,-74.992 -2.6911,-7.542 -5.9213,-14.914 -8.0731,-22.627 -10.9516,-39.259 -7.6425,-80.824 -5.0121,-120.895 3.2452,-35.34 7.3176,-70.602 10.1175,-105.981 1.8381,-18.665 89.822,-9.999 87.9839,8.665 z" id="path14919" inkscape:connector-curvature="0" style="fill:#2b1100;fill-opacity:1;fill-rule:nonzero;stroke:none" transform="translate(-9216, -64512)"/><path d="m 9795.0664,65147.508 c 3.7219,33.961 5.6147,68.091 7.97,102.165 2.8504,36.252 4.9408,72.773 13.6943,108.18 3.0002,8.474 1.0938,5.448 4.3274,9.818 7.924,16.956 -72.0035,54.31 -79.9275,37.355 l 0,0 c -7.5155,-17.819 -4.2207,-8.615 -9.8058,-27.642 -8.6234,-39.981 -11.9765,-80.715 -14.9619,-121.455 -2.3998,-31.899 -4.2174,-63.919 -8.852,-95.589 -2.722,-18.574 84.8336,-31.405 87.5555,-12.832 z" id="path14921" inkscape:connector-curvature="0" style="fill:#2b1100;fill-opacity:1;fill-rule:nonzero;stroke:none" transform="translate(-9216, -64512)"/><path d="m 9765.8462,65100.669 c 33.2422,-13.419 67.6099,-23.323 102.4056,-31.74 43.7772,-10.985 87.5263,-13.606 131.0866,-1.43 44.5486,18.529 59.1816,50.533 64.3816,95.971 1.35,37.65 -3.375,75.185 -6.431,112.655 -2.454,32.645 -3.922,65.353 -5.317,98.057 -0.562,14.081 -0.26,7.299 -0.895,20.344 -1.132,18.673 -89.1546,13.332 -88.0217,-5.34 l 0,0 c 0.8936,-12.049 0.4583,-5.576 1.2631,-19.42 1.948,-33.56 3.6192,-67.138 6.1605,-100.66 2.5815,-32.198 6.2241,-64.431 5.9761,-96.766 -0.4777,-6.506 1.2936,-16.594 -3.2749,-21.16 -26.8235,-11.056 -57.15,-2.867 -84.4162,2.21 -30.8311,7.522 -61.3816,16.305 -90.3146,29.563 -17.4551,6.916 -50.0582,-75.368 -32.6031,-82.284 z" id="path14923" inkscape:connector-curvature="0" style="fill:#2b1100;fill-opacity:1;fill-rule:nonzero;stroke:none" transform="translate(-9216, -64512)"/><path d="m 9804.8413,65225.758 c 33.1846,-2.775 66.3562,-5.692 99.5204,-8.701 28.4672,-2.579 56.9349,-5.133 85.4704,-6.822 18.6009,-0.909 22.8879,86.778 4.2861,87.687 l 0,0 c -27.3242,1.017 -54.5679,3.313 -81.7943,5.793 -32.6244,3.036 -65.2839,5.875 -97.7931,9.994 -18.6572,2.055 -28.3467,-85.895 -9.6895,-87.951 z" id="path14925" inkscape:connector-curvature="0" style="fill:#2b1100;fill-opacity:1;fill-rule:nonzero;stroke:none" transform="translate(-9216, -64512)"/><path d="m 9774.2482,65358.728 c 38.7013,-9.743 78.0335,-16.09 117.6162,-20.877 37.5988,-4.331 75.4232,-6.047 113.2446,-5 3.803,0.223 7.606,0.445 11.408,0.667 18.636,1.336 12.337,89.184 -6.298,87.847 l 0,0 c -2.827,-0.253 -5.654,-0.506 -8.481,-0.759 -33.1954,-1.715 -66.4394,-0.317 -99.4713,3.403 -35.6173,4.292 -71.1077,9.897 -105.5616,20.18 -18.129,4.763 -40.5859,-80.697 -22.4569,-85.461 z" id="path14927" inkscape:connector-curvature="0" style="fill:#2b1100;fill-opacity:1;fill-rule:nonzero;stroke:none" transform="translate(-9216, -64512)"/></svg>