<?xml version="1.0" encoding="utf-8" ?>

<!DOCTYPE svg PUBLIC "-//W3C//DTD SVG 1.1//EN" 
  "http://www.w3.org/Graphics/SVG/1.1/DTD/svg11.dtd">
<svg 
    xmlns="http://www.w3.org/2000/svg"
    xmlns:xlink="http://www.w3.org/1999/xlink"
    xmlns:sodipodi="http://sodipodi.sourceforge.net/DTD/sodipodi-0.dtd"
    xmlns:inkscape="http://www.inkscape.org/namespaces/inkscape"
    width="1024" height="1024" id="U6302">
<path d="m 11435.936,15738.592 c 34.942,-1.241 69.757,-4.888 104.546,-8.246 40.988,-4.32 82.024,-8.14 123.084,-11.704 15.04,-1.505 8.151,-0.672 20.682,-2.37 18.384,-2.127 28.411,84.537 10.027,86.664 l 0,0 c -15.238,1.528 -7.249,0.812 -23.971,2.096 -40.52,2.797 -80.977,6.372 -121.355,10.785 -36.388,3.696 -72.769,7.529 -109.239,10.334 -18.574,0.801 -22.348,-86.758 -3.774,-87.559 z" id="path23991" inkscape:connector-curvature="0" style="fill:#550000;fill-opacity:1;fill-rule:nonzero;stroke:#f9f9f9;stroke-width:0.1;stroke-miterlimit:4;stroke-dasharray:none" transform="translate(-11264, -15360)"/><path d="m 11635.38,15620.506 c -14.858,33.116 -18.896,70.221 -24.281,105.778 -9.993,73.985 -17.529,148.277 -25.509,222.498 -6.832,61.042 -13.256,122.167 -13.911,183.628 0.328,26.346 2.138,52.812 7.593,78.632 2.505,7.708 2.214,14.3 2.545,22.734 -1.991,18.583 -89.595,9.2 -87.605,-9.383 l 0,0 c 1.81,25.904 0.718,7.512 -0.862,2.756 -5.438,-31.781 -7.692,-64.046 -7.399,-96.285 1.574,-63.991 8.485,-127.607 15.836,-191.161 8.214,-75.24 15.761,-150.56 25.095,-225.671 6.532,-46.669 12.002,-94.883 32.877,-137.757 9.383,-16.042 85.004,28.189 75.621,44.231 z" id="path23993" inkscape:connector-curvature="0" style="fill:#550000;fill-opacity:1;fill-rule:nonzero;stroke:#f9f9f9;stroke-width:0.1;stroke-miterlimit:4;stroke-dasharray:none" transform="translate(-11264, -15360)"/><path d="m 11357.801,16062.132 c 38.91,-18.793 79.999,-32.444 120.765,-46.538 40.973,-13.194 80.775,-29.436 119.621,-47.905 16.45,-7.741 52.939,69.809 36.489,77.549 l 0,0 c -41.667,19.423 -84.217,36.767 -127.929,51.1 -36.244,12.772 -73,24.915 -107.158,42.738 -16.322,8.864 -58.111,-68.08 -41.788,-76.944 z" id="path23995" inkscape:connector-curvature="0" style="fill:#550000;fill-opacity:1;fill-rule:nonzero;stroke:#f9f9f9;stroke-width:0.1;stroke-miterlimit:4;stroke-dasharray:none" transform="translate(-11264, -15360)"/><path d="m 11762.717,15663.205 c 32.443,3.368 65.119,0.869 97.502,-1.876 44.242,-4.383 88.315,-10.287 132.396,-16.028 18.558,-2.517 9.896,-1.29 25.992,-3.643 18.315,-2.375 29.514,83.966 11.198,86.341 l 0,0 c -16.631,1.894 -7.745,0.881 -26.657,3.04 -45.148,5.213 -90.219,11.081 -135.421,15.81 -38.054,3.444 -76.321,6.243 -114.525,3.46 -18.478,-2.018 -8.962,-89.122 9.515,-87.104 z" id="path23997" inkscape:connector-curvature="0" style="fill:#550000;fill-opacity:1;fill-rule:nonzero;stroke:#f9f9f9;stroke-width:0.1;stroke-miterlimit:4;stroke-dasharray:none" transform="translate(-11264, -15360)"/><path d="m 11957.464,15560.391 c -6.425,34.768 -7.267,70.377 -8.426,105.635 -1.801,48.774 1.518,97.444 7.667,145.798 1.937,14.577 4.343,29.079 6.956,43.548 3.019,18.204 -82.796,32.435 -85.815,14.231 l 0,0 c -2.414,-15.804 -4.692,-31.628 -6.591,-47.504 -5.999,-52.638 -9.366,-105.551 -7.762,-158.563 1.046,-40.881 1.9,-82.031 8.497,-122.47 4.099,-18.131 89.573,1.193 85.474,19.325 z" id="path23999" inkscape:connector-curvature="0" style="fill:#550000;fill-opacity:1;fill-rule:nonzero;stroke:#f9f9f9;stroke-width:0.1;stroke-miterlimit:4;stroke-dasharray:none" transform="translate(-11264, -15360)"/><path d="m 11759.411,15829.872 c 32.901,8.184 67.062,9.004 100.782,9.803 39.967,0.52 79.917,-0.954 119.851,-2.353 11.474,-0.586 22.951,-0.811 34.438,-0.771 18.538,0.383 16.734,87.774 -1.804,87.391 l 0,0 c -10.078,-0.461 -20.154,-0.367 -30.239,-0.05 -41.388,0.841 -82.777,2.134 -124.179,1.642 -41.004,-0.88 -82.314,-2.268 -122.474,-11.381 -17.88,-5.011 5.746,-89.296 23.625,-84.284 z" id="path24001" inkscape:connector-curvature="0" style="fill:#550000;fill-opacity:1;fill-rule:nonzero;stroke:#f9f9f9;stroke-width:0.1;stroke-miterlimit:4;stroke-dasharray:none" transform="translate(-11264, -15360)"/><path d="m 11714.084,16007.246 c 32.233,0.634 64.443,-1.39 96.602,-3.309 42.77,-2.857 85.601,-4.567 128.416,-6.554 24.025,-2.19 48.706,-0.782 72.484,-5.373 18.342,-2.805 31.568,83.659 13.226,86.465 l 0,0 c -27.157,3.632 -54.645,3.66 -81.974,5.072 -42.281,1.706 -84.572,3.283 -126.787,6.289 -34.214,2.23 -68.442,4.365 -102.73,5.053 -18.591,-0.162 -17.829,-87.805 0.763,-87.643 z" id="path24003" inkscape:connector-curvature="0" style="fill:#550000;fill-opacity:1;fill-rule:nonzero;stroke:#f9f9f9;stroke-width:0.1;stroke-miterlimit:4;stroke-dasharray:none" transform="translate(-11264, -15360)"/><path d="m 11942.971,15924.818 c -8.973,33.534 -13.801,67.997 -18.309,102.359 -5.56,45.132 -8.521,90.519 -10.133,135.946 -0.281,16.761 -0.832,33.5 -1.732,50.238 -1.15,18.374 -87.767,12.952 -86.617,-5.422 l 0,0 c 1.176,-16.073 1.82,-32.159 2.276,-48.27 2.134,-47.912 5.429,-95.778 11.094,-143.416 4.776,-37.996 10.097,-75.973 18.605,-113.346 4.648,-17.992 89.464,3.919 84.816,21.911 z" id="path24005" inkscape:connector-curvature="0" style="fill:#550000;fill-opacity:1;fill-rule:nonzero;stroke:#f9f9f9;stroke-width:0.1;stroke-miterlimit:4;stroke-dasharray:none" transform="translate(-11264, -15360)"/><path d="m 11654.316,16164.546 c 43.938,1.618 87.902,2.507 131.852,3.821 64.92,2.171 129.845,4.2 194.778,5.97 50.527,0.621 100.94,3.61 151.197,8.728 16.116,1.394 31.895,4.588 47.604,8.275 17.91,4.485 -3.233,88.914 -21.143,84.429 l 0,0 c -11.736,-3.249 -23.629,-5.641 -35.766,-6.912 -47.95,-5.54 -96.096,-8.732 -144.373,-9.518 -64.833,-2.016 -129.664,-4.1 -194.506,-5.821 -44.113,-0.968 -88.231,-1.723 -132.357,-1.439 -18.568,-0.576 -15.854,-88.108 2.714,-87.533 z" id="path24007" inkscape:connector-curvature="0" style="fill:#550000;fill-opacity:1;fill-rule:nonzero;stroke:#f9f9f9;stroke-width:0.1;stroke-miterlimit:4;stroke-dasharray:none" transform="translate(-11264, -15360)"/></svg>