<?xml version="1.0" encoding="UTF-8" standalone="no"?>
<svg
   xmlns:dc="http://purl.org/dc/elements/1.1/"
   xmlns:cc="http://creativecommons.org/ns#"
   xmlns:rdf="http://www.w3.org/1999/02/22-rdf-syntax-ns#"
   xmlns:svg="http://www.w3.org/2000/svg"
   xmlns="http://www.w3.org/2000/svg"
   xmlns:sodipodi="http://sodipodi.sourceforge.net/DTD/sodipodi-0.dtd"
   xmlns:inkscape="http://www.inkscape.org/namespaces/inkscape"
   width="1024"
   height="1024"
   id="U6362"
   version="1.1"
   inkscape:version="0.48.0 r9654"
   sodipodi:docname="U+6362.svg">
  <metadata
     id="metadata17">
    <rdf:RDF>
      <cc:Work
         rdf:about="">
        <dc:format>image/svg+xml</dc:format>
        <dc:type
           rdf:resource="http://purl.org/dc/dcmitype/StillImage" />
      </cc:Work>
    </rdf:RDF>
  </metadata>
  <defs
     id="defs15" />
  <sodipodi:namedview
     pagecolor="#ffffff"
     bordercolor="#666666"
     borderopacity="1"
     objecttolerance="10"
     gridtolerance="10"
     guidetolerance="10"
     inkscape:pageopacity="0"
     inkscape:pageshadow="2"
     inkscape:window-width="640"
     inkscape:window-height="480"
     id="namedview13"
     showgrid="false"
     inkscape:zoom="0.27441406"
     inkscape:cx="512"
     inkscape:cy="512"
     inkscape:window-x="0"
     inkscape:window-y="25"
     inkscape:window-maximized="0"
     inkscape:current-layer="U6362" />
  <path
     style="fill:#550000;fill-opacity:1;fill-rule:nonzero;stroke:#f9f9f9;stroke-width:0.1;stroke-miterlimit:4;stroke-dasharray:none"
     d="M 493.9375 179.8125 C 490.91967 179.8063 488.58351 180.65137 487.1875 182.5625 C 463.1147 219.2285 442.6068 258.102 422.1875 296.875 C 402.9952 333.127 385.37755 370.17125 369.90625 408.15625 C 364.83709 420.96998 408.03946 441.9188 433.84375 445.09375 C 412.99646 448.93515 392.35617 453.78527 372.1875 460.46875 C 346.17485 454.68035 308.44214 455.88624 307.4375 468.125 C 305.3853 502.915 306.5675 537.6955 310.3125 572.3125 C 312.8848 594.2575 318.5815 615.45 325.8125 636.25 C 332.2405 653.966 415.77175 623.6525 409.34375 605.9375 C 403.87855 591.8955 400.0284 577.4035 398 562.4375 C 397.28191 556.33662 396.67699 550.24294 396.1875 544.125 C 398.14034 545.01837 400.02359 545.2091 401.75 544.53125 C 434.1619 532.54625 468.6095 527.8325 502.6875 523.3125 C 505.52034 522.99614 508.35452 522.68999 511.1875 522.375 C 506.28718 550.47858 499.72621 578.29883 493.0625 606.03125 C 490.51741 616.07659 487.85916 626.07994 485.09375 636.0625 C 456.08778 639.28881 427.07721 642.3315 398 644.875 C 371.95236 647.25118 345.90689 649.74488 319.84375 651.96875 C 325.92086 629.64946 310.86402 569.72627 295.46875 572.90625 C 282.99607 575.66065 284.2275 575.39358 275.75 577.375 C 278.06768 535.36899 280.54422 493.36811 283.09375 451.375 C 295.1222 450.81911 307.15822 450.33609 319.1875 449.84375 C 323.5672 449.65875 327.9328 449.46525 332.3125 449.28125 C 351.0966 448.27425 346.3465 359.71175 327.5625 360.71875 C 323.2964 360.99675 319.04735 361.2835 314.78125 361.5625 C 305.96144 362.08096 297.13415 362.56437 288.3125 363.0625 C 290.98393 314.59007 293.3454 266.06423 291.71875 217.53125 C 290.18045 198.65225 201.18045 205.90125 202.71875 224.78125 C 206.18531 272.62646 204.09456 320.66751 201.90625 368.5625 C 197.09679 368.93599 192.27552 369.30771 187.46875 369.71875 C 148.76065 373.79275 110.19485 379.3235 72.71875 390.1875 C 54.65605 395.9145 81.65605 481.07175 99.71875 475.34375 C 131.16915 464.97375 163.99355 460.4995 196.78125 456.9375 C 196.93711 456.92353 197.09413 456.92016 197.25 456.90625 C 194.49437 505.87209 191.61871 554.81815 188.8125 603.78125 C 172.34192 609.78892 156.06528 616.34052 140 623.4375 C 101.7782 640.7825 62.5793 658.48325 31.3125 687.15625 C 18.4364 701.09025 84.1239 761.77875 97 747.84375 C 120.4014 728.23775 148.83065 715.651 176.34375 703 C 178.69319 701.95237 181.04544 700.9246 183.40625 699.90625 C 180.91821 745.71109 178.54886 791.53085 175.65625 837.3125 C 172.87665 854.5155 175.46255 873.651 169.21875 890.25 C 164.45565 908.568 250.7994 931.0055 255.5625 912.6875 C 260.8966 889.4895 262.487 865.8175 263.4375 842.0625 C 264.98666 807.71246 266.38979 773.35384 267.84375 739 C 270.20236 742.84523 272.93944 745.06 276.03125 744.84375 C 319.38845 740.14175 362.7832 735.865 406.1875 731.625 C 423.19214 730.03304 440.17568 728.31633 457.15625 726.5 C 450.57181 746.00089 443.72167 765.4003 436.625 784.71875 C 421.9073 823.07075 405.48575 860.76225 388.21875 898.03125 C 388.46926 900.601 375.23063 920.12408 383.4375 908.0625 C 374.75592 924.00172 437.92089 981.2787 450.46875 967.59375 C 458.19785 957.24975 464.3703 946.327 469.125 934.25 C 486.2888 894.638 503.14955 854.8765 518.28125 814.4375 C 530.0618 781.7658 541.31517 748.89779 551.78125 715.78125 C 565.31819 714.20648 578.83509 712.63957 592.375 711.09375 C 640.1364 705.07675 688.1595 703.0685 736.1875 705.9375 C 760.1189 707.8605 783.94335 710.92925 807.65625 714.65625 C 809.19085 714.93625 810.7154 715.219 812.25 715.5 C 830.99 718.475 845.02135 630.13225 826.28125 627.15625 C 824.25285 626.87125 822.2159 626.56625 820.1875 626.28125 C 794.12305 622.93768 768.00836 619.89765 741.78125 618.15625 C 744.96128 600.40839 748.10829 582.62939 752.0625 565.03125 C 758.6578 533.26525 766.9704 501.1135 765.1875 468.4375 C 756.8519 429.5685 740.51415 414.666 701.15625 412.875 C 690.73434 413.09155 680.37589 413.82596 670.03125 414.84375 C 670.90222 413.15731 671.44945 412.11075 674.28125 406.625 C 686.19185 383.789 699.4227 361.42725 708.25 337.15625 C 714.2336 314.05225 714.8771 291.57625 702.1875 270.40625 C 685.6707 248.66525 664.18505 237.71875 636.59375 237.96875 C 607.76563 238.13403 579.0898 241.61608 550.875 247.5 C 553.60681 243.35674 556.39295 239.28024 559.25 235.21875 C 569.022 221.84 515.06234 179.85588 493.9375 179.8125 z M 615.5 327.375 C 609.17841 340.28192 602.28503 352.94129 595.65625 365.6875 C 587.78725 380.8405 591.65515 373.45125 584.03125 387.78125 C 579.54924 396.27997 597.82177 411.2093 617.9375 421.59375 C 575.77814 427.17033 533.52473 431.79173 491.25 436.40625 C 477.78906 438.16623 464.29637 439.99907 450.875 442.15625 C 451.27106 441.68107 451.61198 441.14835 451.84375 440.5625 C 462.7755 411.93435 475.54517 384.08242 489.4375 356.78125 C 492.5986 358.55815 495.45647 359.00381 497.8125 357.71875 C 519.0878 346.16975 542.60895 339.97725 566.03125 334.53125 C 582.34203 331.19369 598.87826 328.45146 615.5 327.375 z M 699.0625 502.125 C 699.98928 502.12337 700.91609 502.1142 701.84375 502.125 C 702.38345 502.264 703.00195 502.2575 703.46875 502.5625 C 704.97018 503.54219 701.89155 502.95892 699.0625 502.125 z M 674.03125 503.4375 C 671.69219 518.15568 668.59756 532.77275 665.65625 547.375 C 660.36665 570.94362 656.48492 594.79393 651.71875 618.46875 C 628.5849 619.71667 605.47855 621.83827 582.4375 624.8125 C 580.92678 624.98844 579.41694 625.16743 577.90625 625.34375 C 587.23086 587.82586 596.06752 550.17211 602.59375 512.0625 C 613.00605 510.83586 623.40861 509.5824 633.8125 508.28125 C 647.2127 506.60424 660.59734 504.68988 674.03125 503.4375 z M 603.6875 746.90625 C 584.79859 747.82929 541.25344 810.01064 555.375 820.28125 C 586.4946 841.54825 620.82295 857.115 655.40625 871.75 C 694.05765 887.831 733.50495 901.84125 773.34375 914.65625 C 797.55525 921.85025 821.53445 929.80225 845.65625 937.28125 C 863.81665 942.63425 889.06675 857.00925 870.90625 851.65625 C 847.17705 845.10125 823.7219 837.51975 800.0625 830.71875 C 762.7506 818.98275 725.88055 805.94075 689.78125 790.84375 C 661.43605 778.76775 632.94615 766.3035 607.90625 748.0625 C 606.7095 747.19211 605.28825 746.82803 603.6875 746.90625 z "
     id="path8107" />
</svg>
