<?xml version="1.0" encoding="UTF-8" standalone="no"?>
<svg
   xmlns:dc="http://purl.org/dc/elements/1.1/"
   xmlns:cc="http://creativecommons.org/ns#"
   xmlns:rdf="http://www.w3.org/1999/02/22-rdf-syntax-ns#"
   xmlns:svg="http://www.w3.org/2000/svg"
   xmlns="http://www.w3.org/2000/svg"
   xmlns:sodipodi="http://sodipodi.sourceforge.net/DTD/sodipodi-0.dtd"
   xmlns:inkscape="http://www.inkscape.org/namespaces/inkscape"
   width="1024"
   height="1024"
   id="U642C"
   version="1.1"
   inkscape:version="0.48.0 r9654"
   sodipodi:docname="U+642C.svg">
  <metadata
     id="metadata20">
    <rdf:RDF>
      <cc:Work
         rdf:about="">
        <dc:format>image/svg+xml</dc:format>
        <dc:type
           rdf:resource="http://purl.org/dc/dcmitype/StillImage" />
      </cc:Work>
    </rdf:RDF>
  </metadata>
  <defs
     id="defs18" />
  <sodipodi:namedview
     pagecolor="#ffffff"
     bordercolor="#666666"
     borderopacity="1"
     objecttolerance="10"
     gridtolerance="10"
     guidetolerance="10"
     inkscape:pageopacity="0"
     inkscape:pageshadow="2"
     inkscape:window-width="640"
     inkscape:window-height="480"
     id="namedview16"
     showgrid="false"
     inkscape:zoom="0.27441406"
     inkscape:cx="512"
     inkscape:cy="512"
     inkscape:window-x="0"
     inkscape:window-y="25"
     inkscape:window-maximized="0"
     inkscape:current-layer="U642C" />
  <path
     style="fill:#aa0000;fill-opacity:1;fill-rule:nonzero;stroke:#f9f9f9;stroke-width:0.1;stroke-miterlimit:4;stroke-dasharray:none"
     d="M 465.46875 100.875 C 458.61504 100.95717 453.71572 102.63007 452.4375 106.4375 C 439.2249 148.4535 423.65055 189.66425 407.90625 230.78125 C 401.48755 247.51085 480.36255 277.792 486.78125 261.0625 C 503.01635 218.8292 518.82865 176.42615 534.46875 133.96875 C 539.03383 120.37078 489.94629 100.58153 465.46875 100.875 z M 814.0625 131.8125 C 806.3366 132.9963 798.46495 133.35465 790.90625 135.34375 C 760.379 143.3771 734.80492 162.54913 713.75 185.5625 C 694.12119 174.67635 633.27716 175.61647 632.875 191.03125 C 630.75216 227.37166 628.1894 263.65139 626.59375 299.96875 C 623.63897 294.77989 620.52407 289.72084 616.3125 285.5625 C 593.0569 262.601 557.30025 268.4627 528.65625 272.625 C 487.65635 279.7647 447.0352 289.28965 415.9375 319.09375 C 405.48712 330.05957 396.0636 341.62285 387.65625 353.78125 C 384.91104 327.81872 367.78382 287.54654 355.34375 291.59375 C 335.73505 298.89355 315.0313 302.5935 294.5625 306.625 C 292.93899 306.90493 291.31294 307.18987 289.6875 307.46875 C 291.98563 263.92271 297.37947 220.70002 311.03125 179.28125 C 318.21285 162.33265 238.33785 128.489 231.15625 145.4375 C 213.13401 201.66895 207.73364 260.32273 205.9375 319.15625 C 182.70301 321.16147 159.41061 321.73041 136.125 319.75 C 117.8242 317.3777 106.6367 403.65895 124.9375 406.03125 C 151.62436 407.62961 178.271 406.81946 204.84375 404.59375 C 204.82537 407.02916 204.80305 409.47421 204.78125 411.90625 C 204.71427 480.8948 204.66408 549.88598 204.90625 618.875 C 159.15436 647.67577 118.03212 682.46687 88.4375 729.53125 C 79.9246 745.84755 156.83085 785.97265 165.34375 769.65625 C 176.57274 751.6987 190.22307 736.29454 205.46875 722.6875 C 205.64451 764.5985 207.25411 806.41272 211.09375 848.15625 C 212.93785 866.21225 298.06275 857.52475 296.21875 839.46875 C 291.36295 796.77245 289.5671 753.913 289.25 710.9375 C 289.02232 696.60035 288.80759 682.27543 288.625 667.9375 C 291.97811 666.18659 295.35039 664.46016 298.71875 662.75 C 316.84757 654.0573 335.48857 646.60726 354.15625 639.21875 C 359.94909 637.70887 365.75401 636.27357 371.59375 634.9375 C 370.30636 667.17325 368.64543 699.40797 367.84375 731.65625 C 368.04075 756.34175 367.7534 745.1011 368.5625 765.375 C 369.8156 783.796 456.6281 777.88975 455.375 759.46875 C 453.7309 744.05335 454.5045 752.8951 453.5625 732.875 C 453.68052 695.31463 455.51849 657.8062 456.8125 620.28125 C 484.449 616.89383 512.11893 613.77969 539.84375 611.21875 C 539.75485 618.57654 539.67346 625.92315 539.625 633.28125 C 527.4471 628.0453 515.21326 622.91625 502.90625 617.96875 C 485.84545 610.94375 452.7517 691.38125 469.8125 698.40625 C 487.6497 704.60175 504.9867 712.0008 522.1875 719.75 C 527.0891 721.93983 533.56945 716.67631 539.875 708 C 539.99455 717.12252 540.12334 726.25307 540.3125 735.375 C 542.4239 775.0052 542.6911 814.7783 545.4375 854.375 L 632.625 842.0625 C 632.59881 841.41276 632.44952 840.78355 632.21875 840.1875 C 627.4614 806.10748 627.14305 768.39413 624.65625 733.1875 C 623.3304 690.74509 623.01371 648.29536 623.59375 605.84375 C 625.72131 605.83421 627.79957 605.83956 629.8125 605.90625 C 627.66331 605.09191 625.61435 603.85743 623.65625 602.34375 C 623.74 596.70003 623.82183 591.04951 623.9375 585.40625 C 639.30507 584.7359 659.98733 579.3444 673.875 572.40625 C 675.92326 592.56267 681.92771 611.20244 690.53125 610.5625 C 741.3242 604.72062 792.17266 598.82739 843.3125 599.53125 C 821.83327 623.4828 803.61832 650.33313 785.625 677.03125 C 784.77536 678.35714 783.91343 679.675 783.0625 681 C 778.28004 671.43119 774.30252 661.38686 771.34375 650.71875 C 766.87425 632.84085 682.5931 653.90335 687.0625 671.78125 C 696.55617 704.17381 712.32239 732.64424 731.59375 758.78125 C 715.6262 782.01109 699.22268 804.94116 682.15625 827.40625 C 670.84515 841.47065 659.25165 855.3091 645.96875 867.5625 C 640.03875 873.0329 633.69235 878.79535 636.59375 875.03125 C 621.32325 885.74925 671.82325 957.74935 687.09375 947.03125 C 711.65125 927.81635 731.052 902.8968 750.375 878.6875 C 763.73014 860.72972 776.80868 842.55006 789.625 824.21875 C 793.74783 828.30321 797.88713 832.37405 802.0625 836.40625 C 845.913 876.67545 891.318 915.31545 931.375 959.46875 C 927.2894 950.64975 948.38835 979.6509 941.84375 974 C 950.77005 990.3586 1027.8638 948.2961 1018.9375 931.9375 C 1011.7674 920.7152 1003.7348 910.20415 994.3125 900.71875 C 952.0915 856.60385 905.9407 816.67115 860.875 775.53125 C 853.19312 768.10316 845.47299 760.62426 837.9375 752.96875 C 844.06668 743.69359 850.15083 734.38029 856.21875 725.0625 C 877.76245 693.734 899.1165 661.5352 928.875 637.25 C 949.7604 620.5517 975.20305 606.28175 972.28125 573.84375 C 971.32125 563.18475 963.0973 554.50825 958.5 544.84375 C 928.7912 521.71505 894.29325 516.34205 857.28125 514.09375 C 799.30695 513.22035 741.84535 519.72335 684.09375 523.96875 C 679.40123 524.31778 676.32601 530.22822 674.65625 538.8125 C 670.25876 533.34333 665.64043 528.07618 660.25 523.625 C 653.89616 518.37827 639.7376 518.2018 626 519 C 626.511 506.84107 627.10085 494.68453 627.75 482.53125 C 629.76394 450.4439 629.97288 444.93533 632.3125 417 C 652.64645 426.57533 711.89101 422.74436 711.5625 407.59375 C 710.6514 378.00925 711.03595 393.4317 710.46875 361.3125 C 710.15367 320.51315 712.35117 279.90394 715.65625 239.3125 C 735.89795 253.14871 762.96756 263.95597 768.375 254.8125 C 776.89317 244.01655 789.91712 227.3934 804.875 220.6875 C 804.7847 221.03554 804.68027 221.38817 804.59375 221.78125 C 803.62295 226.19205 802.7446 230.61205 801.8125 235.03125 C 788.8046 279.37715 776.1138 323.46325 773.5625 369.78125 C 774.6886 409.17905 792.26335 443.69725 830.84375 457.96875 C 837.23465 460.33285 844.09415 461.1535 850.71875 462.75 C 873.59325 467.3746 896.1721 460.48455 918.875 459.71875 C 937.3549 458.33185 930.82355 371.20685 912.34375 372.59375 C 897.44145 374.00185 882.70645 377.00765 867.71875 377.40625 C 861.60155 377.71035 865.37195 378.07425 865.03125 382.53125 C 864.73875 386.35775 853.9513 372.1711 859.9375 373 C 860.2236 330.7823 876.4909 291.3167 886.5625 250.8125 C 888.0749 242.0923 890.39975 233.47935 891.09375 224.65625 C 894.20525 185.10075 879.20155 147.1008 838.40625 134.5625 C 830.60705 132.1654 822.1695 132.7346 814.0625 131.8125 z M 629.8125 605.90625 C 632.25848 606.83304 634.82248 607.23627 637.5 606.84375 C 639.1832 606.59705 634.1359 606.12735 632.4375 606.03125 C 631.58251 605.98284 630.70268 605.93574 629.8125 605.90625 z M 818.5625 217.71875 C 819.93398 217.76569 821.33124 217.94383 822.71875 218.21875 C 819.06222 222.95807 815.63377 220.47892 812.65625 218.1875 C 814.60763 217.82665 816.5687 217.65051 818.5625 217.71875 z M 565.6875 355.1875 C 568.20027 355.15398 570.64745 355.3887 573 356.125 C 573.5423 356.2947 572.1231 357.1545 571.5625 357.0625 C 569.06562 356.65091 566.48196 356.23675 564.15625 355.25 C 564.66477 355.22155 565.18275 355.19423 565.6875 355.1875 z M 550.1875 357.3125 C 549.84934 364.16543 550.04252 371.09561 549.5625 377.9375 C 547.2276 411.2157 545.20665 444.46115 543.53125 477.78125 C 542.86172 493.6319 542.25887 509.48768 541.75 525.34375 C 532.75283 526.19615 523.7701 527.09257 514.78125 528.03125 C 530.05617 517.49475 541.76674 505.0607 537.59375 498.25 C 521.64345 472.6589 505.10695 447.3925 491.03125 420.6875 C 486.56367 412.83538 466.1123 419.20612 447.53125 429.59375 C 447.17302 427.17508 446.78412 424.75951 446.40625 422.34375 C 454.25155 406.60608 464.52654 392.23727 477.59375 379.6875 C 496.11835 364.7652 520.38165 361.7962 543.15625 358.0625 C 545.4138 358.03528 547.76512 357.71017 550.1875 357.3125 z M 350.3125 382.78125 C 352.91794 392.24039 355.24307 401.77332 357.3125 411.34375 C 354.08406 419.79192 351.22541 428.44407 348.78125 437.34375 C 347.17179 442.90367 354.30597 449.13223 365 454.46875 C 368.9815 482.03902 371.36022 509.86132 372.9375 537.65625 C 358.06697 545.46454 342.64402 552.07118 327.09375 558.4375 C 313.86148 561.87467 300.73147 565.64086 287.71875 569.875 C 287.40352 517.53117 287.35342 465.18674 287.53125 412.84375 C 287.61574 406.61976 287.66066 400.34939 287.71875 394.09375 C 294.68393 393.00903 301.64812 391.93234 308.59375 390.8125 C 322.5749 388.49263 336.50182 385.87966 350.3125 382.78125 z M 457.59375 532.46875 C 457.98742 533.11522 458.3881 533.75946 458.78125 534.40625 C 458.42676 534.44947 458.07322 534.48793 457.71875 534.53125 C 457.68156 533.84278 457.63191 533.15717 457.59375 532.46875 z M 897.96875 608.28125 C 899.67136 608.93941 901.32088 609.69429 902.90625 610.59375 C 903.29615 610.81495 904.06855 611.89495 903.65625 611.71875 C 901.70505 610.88475 899.9647 609.62 898.125 608.5625 C 898.06792 608.46189 898.02545 608.38086 897.96875 608.28125 z "
     id="path19619" />
</svg>
