<?xml version="1.0" encoding="UTF-8" standalone="no"?>
<svg
   xmlns:dc="http://purl.org/dc/elements/1.1/"
   xmlns:cc="http://creativecommons.org/ns#"
   xmlns:rdf="http://www.w3.org/1999/02/22-rdf-syntax-ns#"
   xmlns:svg="http://www.w3.org/2000/svg"
   xmlns="http://www.w3.org/2000/svg"
   xmlns:sodipodi="http://sodipodi.sourceforge.net/DTD/sodipodi-0.dtd"
   xmlns:inkscape="http://www.inkscape.org/namespaces/inkscape"
   width="1024"
   height="1024"
   id="U641E"
   version="1.1"
   inkscape:version="0.48.0 r9654"
   sodipodi:docname="U+641E.svg">
  <metadata
     id="metadata20">
    <rdf:RDF>
      <cc:Work
         rdf:about="">
        <dc:format>image/svg+xml</dc:format>
        <dc:type
           rdf:resource="http://purl.org/dc/dcmitype/StillImage" />
      </cc:Work>
    </rdf:RDF>
  </metadata>
  <defs
     id="defs18" />
  <sodipodi:namedview
     pagecolor="#ffffff"
     bordercolor="#666666"
     borderopacity="1"
     objecttolerance="10"
     gridtolerance="10"
     guidetolerance="10"
     inkscape:pageopacity="0"
     inkscape:pageshadow="2"
     inkscape:window-width="640"
     inkscape:window-height="480"
     id="namedview16"
     showgrid="false"
     inkscape:zoom="0.27441406"
     inkscape:cx="512"
     inkscape:cy="512"
     inkscape:window-x="0"
     inkscape:window-y="25"
     inkscape:window-maximized="0"
     inkscape:current-layer="U641E" />
  <path
     style="fill:#550000;fill-opacity:1;fill-rule:nonzero;stroke:#f9f9f9;stroke-width:0.1;stroke-miterlimit:4;stroke-dasharray:none"
     d="M 597.84375 71.875 C 577.11012 71.414066 523.13414 111.3245 532.40625 124.6875 C 554.34385 154.7115 579.88305 181.75975 606.28125 207.84375 C 624.76387 226.41674 645.60999 242.60565 664.3125 260.9375 C 617.21747 265.1536 570.23258 270.54159 523.40625 277.21875 C 472.69265 284.82975 422.02925 293.336 372.53125 307 C 363.70706 309.78035 365.81339 331.91302 372.34375 352.71875 C 360.95828 353.69987 349.57022 354.67534 338.1875 355.6875 C 341.97628 309.51712 345.04615 262.4259 359.78125 218.21875 C 366.25495 200.83575 284.31745 170.3045 277.84375 187.6875 C 261.17205 241.0945 257.71605 297.39075 253.65625 352.84375 C 253.43496 356.48162 253.24207 360.11162 253.03125 363.75 C 211.62369 367.98064 170.22913 372.48552 129.125 379.125 C 110.8617 382.423 126.39295 468.51575 144.65625 465.21875 C 179.05438 458.19137 213.95409 454.03377 248.84375 450.28125 C 246.69614 503.76921 245.18552 557.27817 243.53125 610.78125 C 243.0435 627.32961 242.54091 643.89202 241.96875 660.4375 C 215.43491 672.61371 189.21918 685.4643 163.71875 699.75 C 119.26725 725.729 75.00705 753.04825 37.90625 789.15625 C 25.42935 802.89325 90.17945 861.70575 102.65625 847.96875 C 132.87135 817.34475 169.97745 794.835 206.78125 773.125 C 216.98801 767.3773 227.31849 761.88544 237.75 756.59375 C 236.40225 780.83599 234.78045 805.07456 232.8125 829.28125 C 229.0525 865.01925 231.25125 847.79325 226.40625 881.03125 C 223.91825 899.01725 308.6995 910.735 311.1875 892.75 C 316.0806 855.619 313.9304 874.5835 317.625 835.8125 C 320.5158 796.26447 322.50717 756.67706 324.0625 717.0625 C 333.80348 712.91996 343.54916 708.79971 353.3125 704.71875 C 351.85712 740.23965 355.94213 775.63427 360.34375 810.8125 C 365.37725 854.0085 374.4585 896.218 393.625 935.375 C 402.0549 951.731 479.14865 912.01225 470.71875 895.65625 C 454.22435 866.69525 450.68115 832.7385 445.78125 800.3125 C 443.99425 785.5005 442.18114 770.60288 441.09375 755.6875 C 450.74424 763.39043 459.70539 767.42449 464.15625 763.5 C 489.65115 744.951 521.2373 737.911 551.4375 731.125 C 601.9123 720.925 653.38775 718.75575 704.65625 721.84375 C 744.04815 724.91575 782.12085 735.5765 819.65625 747.3125 C 840.75566 755.39407 863.70459 759.62367 884.28125 769.15625 C 882.98834 768.94079 883.74081 772.41062 882.21875 781.40625 C 874.41075 817.74325 863.34945 853.29425 853.21875 889.03125 C 845.50975 916.18525 837.99505 943.45725 826.78125 969.40625 C 819.73725 986.42225 899.956 1019.6097 907 1002.5938 C 918.7672 973.26775 927.6405 942.98825 936 912.53125 C 947.1186 873.46525 959.45755 834.6825 967.96875 794.9375 C 974.40535 752.5565 971.01835 718.60925 930.71875 694.90625 C 903.29605 681.88325 873.9885 674.0045 845.125 664.8125 C 800.8103 651.2845 755.79065 639.426 709.34375 636.375 C 650.23085 633.389 590.9383 635.93475 532.75 647.59375 C 489.73118 657.18598 446.09729 668.57057 410.03125 694.9375 C 400.59627 693.41143 390.28874 692.77667 381.0625 693.15625 C 397.49497 686.27026 413.85539 679.19389 430.15625 672 C 446.85715 664.452 411.2634 585.73225 394.5625 593.28125 C 375.6351 602.05325 356.61075 610.597 337.40625 618.75 C 333.96011 620.22904 330.51106 621.7116 327.0625 623.1875 C 327.1515 619.89292 327.25656 616.60711 327.34375 613.3125 C 329.00019 556.28444 330.53231 499.21486 333.15625 442.21875 C 353.5667 440.55357 373.99831 439.09059 394.4375 437.8125 L 406.53125 437 C 416.75116 436.15411 419.07054 409.01157 415.96875 385.3125 C 455.38344 374.23451 495.87442 367.47923 536.28125 361.125 C 602.03285 351.291 668.18475 344.7815 734.53125 340.8125 C 775.39275 339.0265 816.3783 337.457 857.25 339.75 C 859.93909 339.81645 863.98592 340.88913 866.15625 341.53125 C 865.04705 341.17603 862.96594 340.48819 860.25 339.5625 C 878.29339 340.58028 922.53131 277.72854 908.4375 267.5 C 892.3665 259.072 879.45665 252.70725 860.96875 253.03125 C 817.01115 251.63025 773.0175 253.424 729.125 255.875 C 725.97254 256.08747 722.83916 256.30894 719.6875 256.53125 C 735.74584 241.85246 748.69844 223.74858 742.46875 216.9375 C 718.84015 191.7695 691.8373 170.26225 666.8125 146.53125 C 644.2203 124.24725 622.12705 101.21 604.40625 74.75 C 603.08166 72.841 600.8057 71.940848 597.84375 71.875 z M 649.8125 388.09375 C 634.00695 388.00805 618.19492 389.11137 602.40625 391.59375 C 569.32475 397.37975 536.52665 405.70975 506.96875 422.21875 C 503.19429 424.53887 502.93933 430.57386 504.9375 438.25 C 482.05503 440.43592 458.50945 447.88397 459.65625 457.59375 C 463.78285 487.63575 470.13415 517.255 478.96875 546.25 C 481.84022 556.07408 486.03577 565.23792 490.75 574.1875 C 489.47256 597.23953 514.62158 651.26805 528.78125 645.4375 C 558.64475 632.8405 590.3996 625.9425 622.1875 620.3125 C 648.458 616.8205 675.1095 612.862 701.6875 614.375 C 720.2 614.867 722.5124 527.616 704 527.125 C 671.4898 526.831 639.0894 530.45975 607 535.46875 C 595.40971 537.56519 583.81783 539.82797 572.3125 542.34375 C 572.21174 541.49313 571.91587 540.701 571.46875 539.96875 C 567.11465 534.03575 564.205 527.4335 561.875 520.4375 C 559.25887 512.285 556.92925 504.02589 554.90625 495.71875 C 574.12911 485.34493 595.64805 480.53794 617.03125 476.96875 C 642.55805 473.30475 668.35375 473.733 693.53125 479.25 C 697.05095 475.606 714.98145 491.67175 707.59375 487.71875 C 703.91785 483.85275 702.2315 492.86925 700.875 495.53125 C 693.5024 512.47425 773.3774 547.2565 780.75 530.3125 C 791.7515 503.6385 797.6954 477.20175 786.1875 449.34375 C 768.5706 417.94675 745.68255 402.21375 710.53125 394.09375 C 690.41524 390.30475 670.13393 388.20393 649.8125 388.09375 z M 685.34375 755.03125 C 676.84532 755.03364 668.24582 755.55675 659.53125 756.53125 C 627.23591 759.49797 595.04219 763.55103 563.125 769.34375 C 540.4649 762.76665 483.36902 773.14003 485.34375 788.125 C 490.13465 818.67 494.14405 849.33875 498.34375 879.96875 C 500.72315 898.23775 503.81645 916.36975 507.84375 934.34375 C 509.35329 940.64037 520.73234 942.21968 534.6875 940.875 C 537.37805 959.9447 543.5544 976.79625 551.78125 976.03125 C 587.37615 970.84725 622.53265 963.2115 658.03125 957.4375 C 679.34585 954.5805 701.1999 951.55475 722.125 957.84375 C 732.52562 960.29058 743.58659 932.9439 747.5625 908.65625 C 764.96827 915.42061 781.85627 918.10627 785.1875 910.78125 C 792.8732 892.79925 798.8216 874.573 799 854.75 C 798.3235 820.92 788.8749 790.79525 758.9375 771.53125 C 735.36192 759.7615 710.83905 755.02408 685.34375 755.03125 z M 884.875 769.4375 C 887.23207 770.54372 889.55721 771.70641 891.84375 772.96875 C 892.65685 774.42375 894.14025 776.39475 889.71875 773.09375 C 887.21026 771.22062 885.76386 769.96417 884.875 769.4375 z M 688.96875 841.84375 C 701.24364 841.81424 714.27198 842.8855 716.3125 847.75 C 710.8912 847.455 712.12745 848.4905 711.71875 854.8125 C 711.38775 859.65061 710.33355 864.24607 708.625 868.625 C 687.20622 867.18174 665.76264 868.5311 644.1875 872.40625 C 624.83464 875.56413 605.55208 879.25921 586.21875 882.5625 C 585.43581 877.74396 584.71579 872.92865 584.03125 868.09375 C 583.39837 863.57811 582.78221 859.04815 582.15625 854.53125 C 610.1918 848.53981 638.7101 845.0794 667.25 842.59375 C 670.33569 842.54562 679.42162 841.86671 688.96875 841.84375 z "
     id="path23555" />
</svg>
