<?xml version="1.0" encoding="utf-8" ?>

<!DOCTYPE svg PUBLIC "-//W3C//DTD SVG 1.1//EN" 
  "http://www.w3.org/Graphics/SVG/1.1/DTD/svg11.dtd">
<svg 
    xmlns="http://www.w3.org/2000/svg"
    xmlns:xlink="http://www.w3.org/1999/xlink"
    xmlns:sodipodi="http://sodipodi.sourceforge.net/DTD/sodipodi-0.dtd"
    xmlns:inkscape="http://www.inkscape.org/namespaces/inkscape"
    width="1024" height="1024" id="U6446">
<path d="m 11420.468,444.62839 c 51.129,-12.93889 103.8,-17.29707 156.132,-22.39069 15.694,-1.08579 30.623,-3.92041 45.003,-10.12199 17.599,-6.25593 47.09,76.70702 29.491,82.96296 l 0,0 c -21.723,7.00864 -43.46,12.66243 -66.462,13.60016 -46.466,4.10766 -93.547,7.34764 -138.488,20.67808 -17.974,5.44656 -43.649,-79.28197 -25.676,-84.72852 z" id="path19575" inkscape:connector-curvature="0" style="fill:#aa0000;fill-opacity:1;fill-rule:nonzero;stroke:#f9f9f9;stroke-width:0.1;stroke-miterlimit:4;stroke-dasharray:none" transform="translate(-11264, 0)"/><path d="m 11623.781,282.03882 c -32.532,65.93354 -44.97,139.20599 -56.191,211.17704 -12.521,86.02429 -14.027,172.93985 -10.102,259.61509 2.069,35.81117 5.054,71.54223 6.221,107.39696 0.388,18.52764 -86.952,20.359 -87.34,1.83136 l 0,0 c -0.273,-35.37962 -2.712,-70.66964 -4.112,-106.01761 -2.809,-92.04139 -0.491,-184.2468 12.639,-275.54564 12.315,-81.08894 26.718,-162.73794 59.957,-238.3199 8.456,-16.74319 87.384,23.11951 78.928,39.8627 z" id="path19577" inkscape:connector-curvature="0" style="fill:#aa0000;fill-opacity:1;fill-rule:nonzero;stroke:#f9f9f9;stroke-width:0.1;stroke-miterlimit:4;stroke-dasharray:none" transform="translate(-11264, 0)"/><path d="m 11332.328,747.87854 c 37.316,-65.62972 98.942,-96.32778 165.998,-124.19441 72.741,-27.08245 148.628,-43.96389 222.812,-66.38971 6.593,-2.44145 13.185,-4.88291 19.778,-7.32437 17.45,-6.03911 45.918,76.22148 28.468,82.26059 l 0,0 c -8.11,2.64678 -16.22,5.29355 -24.33,7.94032 -71.582,19.73302 -144.311,35.9366 -213.972,62.03892 -45.168,18.92577 -93.871,39.00449 -118.953,83.90655 -8.112,16.92831 -87.912,-21.30958 -79.801,-38.23789 z" id="path19579" inkscape:connector-curvature="0" style="fill:#aa0000;fill-opacity:1;fill-rule:nonzero;stroke:#f9f9f9;stroke-width:0.1;stroke-miterlimit:4;stroke-dasharray:none" transform="translate(-11264, 0)"/><path d="m 11774.627,224.55104 c -8.67,57.43295 -11.053,115.56045 -8.764,173.53517 1.899,17.73762 2.255,27.92661 6.507,44.69391 1.048,4.13086 2.446,8.19068 4.192,12.07835 0.73,1.62603 2.17,5.78613 3.167,4.30853 3.312,-4.90838 -8.094,-9.40502 -22.925,-18.33841 18.814,2.23492 8.279,90.92478 -10.535,88.68986 l 0,0 c -10.743,-4.62563 -22.584,-7.26052 -32.23,-13.87689 -28.22,-19.35761 -31.353,-85.05756 -34.076,-114.7572 -1.658,-62.62432 1.02,-125.16984 6.717,-187.56065 2.382,-18.65647 90.329,-7.42914 87.947,11.22733 z" id="path19581" inkscape:connector-curvature="0" style="fill:#aa0000;fill-opacity:1;fill-rule:nonzero;stroke:#f9f9f9;stroke-width:0.1;stroke-miterlimit:4;stroke-dasharray:none" transform="translate(-11264, 0)"/><path d="m 11744.017,204.38392 c 51.146,-29.34772 108.096,-37.79428 166.081,-39.16696 48.601,0.76505 96.409,10.30022 143.712,20.67809 21.961,5.39791 46.867,9.8483 62.812,27.64284 4.21,4.69868 7.072,10.44963 10.608,15.67444 9.23,24.12094 6.721,49.99946 5.628,75.27079 -0.01,23.46262 -6.367,45.14775 -14.9,66.70844 -7.323,17.24525 -88.618,-17.27483 -81.295,-34.52008 l 0,0 c 5.724,-11.16303 7.635,-23.06171 7.742,-35.61333 0.08,-2.34671 -2.64,-51.3452 3.544,-30.53542 1.962,2.20372 3.655,4.68015 5.886,6.61117 1.6,1.38466 7.565,3.76217 5.776,2.63119 -7.541,-4.77019 -17.403,-5.13778 -25.519,-8.18317 -40.17,-9.73269 -80.863,-18.64019 -122.325,-19.93744 -42.183,0.57695 -84.265,5.17782 -120.938,28.0044 -15.967,9.93014 -62.778,-65.33482 -46.812,-75.26496 z" id="path19583" inkscape:connector-curvature="0" style="fill:#aa0000;fill-opacity:1;fill-rule:nonzero;stroke:#f9f9f9;stroke-width:0.1;stroke-miterlimit:4;stroke-dasharray:none" transform="translate(-11264, 0)"/><path d="m 11895.069,257.823 c -24.319,48.15923 -28.43,102.08074 -26.311,155.08226 2.159,16.11596 2.594,25.68014 7.465,40.76279 1.174,3.63402 2.634,7.24182 4.727,10.43611 0.426,0.65144 2.764,0.94835 2.315,0.31202 -3.051,-4.32423 -7,-7.93999 -10.5,-11.90999 17.266,7.61813 -18.646,89.00869 -35.912,81.39055 l 0,0 c -8.682,-6.2566 -18.567,-11.11586 -26.047,-18.76982 -23.02,-23.5572 -24.131,-69.67846 -28.162,-99.73576 -1.371,-68.39464 5.604,-136.87498 34.825,-199.69404 8.936,-16.46151 86.536,25.66437 77.6,42.12588 z" id="path19585" inkscape:connector-curvature="0" style="fill:#aa0000;fill-opacity:1;fill-rule:nonzero;stroke:#f9f9f9;stroke-width:0.1;stroke-miterlimit:4;stroke-dasharray:none" transform="translate(-11264, 0)"/><path d="m 11987.452,233.03032 c 4.674,47.84611 6.276,95.90643 6.294,143.95777 -1.128,31.01563 -0.1,15.69783 -3.028,45.95718 -1.963,18.4578 -88.974,9.20285 -87.011,-9.25495 l 0,0 c 2.811,-23.59861 1.73,-11.26766 3.037,-37.01012 0.342,-43.77241 -0.71,-87.73107 -7.104,-131.10538 -2.661,-18.62763 85.151,-31.17213 87.812,-12.5445 z" id="path19587" inkscape:connector-curvature="0" style="fill:#aa0000;fill-opacity:1;fill-rule:nonzero;stroke:#f9f9f9;stroke-width:0.1;stroke-miterlimit:4;stroke-dasharray:none" transform="translate(-11264, 0)"/><path d="m 11734.64,450.20191 c 62.548,-20.86441 127.84,-29.13126 193.394,-32.3121 45.21,-1.68752 90.2,3.68478 135.299,5.47626 10.949,0.11194 6.135,0.19529 14.445,-0.0792 18.932,0.3082 17.479,89.55363 -1.453,89.24543 l 0,0 c -10.787,-0.56542 -4.772,-0.22883 -18.043,-1.04307 -42.118,-3.07436 -84.152,-8.41389 -126.463,-7.72428 -56.439,2.19962 -113.102,8.52805 -166.176,29.11022 -17.538,6.57662 -48.54,-76.09667 -31.003,-82.67329 z" id="path19589" inkscape:connector-curvature="0" style="fill:#aa0000;fill-opacity:1;fill-rule:nonzero;stroke:#f9f9f9;stroke-width:0.1;stroke-miterlimit:4;stroke-dasharray:none" transform="translate(-11264, 0)"/><path d="m 11777.496,586.77527 c 59.707,-7.13432 119.512,-12.99002 179.584,-15.80919 32.217,-1.24714 64.481,-0.87546 96.614,1.77873 18.744,2.22133 8.273,90.58572 -10.472,88.36439 l 0,0 c -27.204,-4.68708 -55.001,-4.26342 -82.504,-4.00152 -57.134,2.12057 -114.153,7.29325 -170.523,17.06539 -18.54,2.69383 -31.239,-84.70398 -12.699,-87.3978 z" id="path19591" inkscape:connector-curvature="0" style="fill:#aa0000;fill-opacity:1;fill-rule:nonzero;stroke:#f9f9f9;stroke-width:0.1;stroke-miterlimit:4;stroke-dasharray:none" transform="translate(-11264, 0)"/><path d="m 11965.324,511.44481 c -2.93,38.42823 -1.632,76.86889 2.135,115.16338 2.946,18.71663 2.736,37.36127 1.933,56.19802 -1.057,18.64268 -88.94,13.66025 -87.883,-4.98243 l 0,0 c 1.194,-14.4309 0.71,-28.69892 -1.259,-43.09313 -3.717,-41.97037 -4.499,-83.99108 -3.553,-126.11434 0.6,-18.80054 89.227,-15.97203 88.627,2.8285 z" id="path19593" inkscape:connector-curvature="0" style="fill:#aa0000;fill-opacity:1;fill-rule:nonzero;stroke:#f9f9f9;stroke-width:0.1;stroke-miterlimit:4;stroke-dasharray:none" transform="translate(-11264, 0)"/><path d="m 11759.312,680.8611 c 47.337,11.7436 96.566,12.50435 145.074,13.53481 30.161,-0.56915 60.839,2.21673 90.774,-2.60905 18.709,-2.02172 28.24,86.17484 9.531,88.19656 l 0,0 c -34.043,2.63136 -68.211,1.1995 -102.315,0.76962 -55.835,-1.40755 -112.081,-2.98366 -166.928,-14.53046 -18.108,-5.06242 5.756,-90.4239 23.864,-85.36148 z" id="path19595" inkscape:connector-curvature="0" style="fill:#aa0000;fill-opacity:1;fill-rule:nonzero;stroke:#f9f9f9;stroke-width:0.1;stroke-miterlimit:4;stroke-dasharray:none" transform="translate(-11264, 0)"/><path d="m 11920.127,745.16628 c -39.486,31.27798 -74.165,67.88487 -107.618,105.37942 -19.953,24.56845 -43.195,47.59442 -57.104,76.39892 5.32,-19.63239 7.482,-20.79086 -14.047,-44.87374 -3.717,-4.15737 -10.791,-3.27271 -15.54,-6.19575 -1.137,-0.70006 2.586,-0.67188 3.886,-0.97755 3.778,-0.88846 7.567,-1.73646 11.35,-2.60469 43.546,-13.24452 87.339,-24.12071 132.514,-29.8518 52.085,-5.64095 103.759,1.43726 154.097,14.61837 22.294,5.17394 40.866,17.19376 59.613,29.46106 15.215,11.38116 -38.436,83.10671 -53.651,71.72556 l 0,0 c -8.867,-7.27298 -17.186,-14.15308 -29.005,-16.74148 -39.129,-11.24885 -79.518,-17.01858 -120.275,-12.78317 -42.028,5.1487 -82.434,16.41754 -122.73,29.26398 -19.008,4.68821 -48.368,14.29856 -66.42,0.749 -29.188,-21.90764 -30.205,-45.30906 -17.853,-73.78589 19.269,-33.93235 44.794,-63.42556 70.698,-92.45613 36.487,-40.16965 74.394,-78.99619 115.157,-114.88072 14.331,-12.07626 71.259,55.47835 56.928,67.55461 z" id="path19597" inkscape:connector-curvature="0" style="fill:#aa0000;fill-opacity:1;fill-rule:nonzero;stroke:#f9f9f9;stroke-width:0.1;stroke-miterlimit:4;stroke-dasharray:none" transform="translate(-11264, 0)"/><path d="m 12076.19,811.75254 c 11.493,38.86533 36.604,70.7599 61.636,101.77031 10.269,12.16812 19.705,24.96054 28.812,38.00358 10.438,15.63139 -63.249,64.83807 -73.687,49.20667 l 0,0 c -7.149,-11.44025 -14.966,-22.40506 -23.53,-32.84804 -31.74,-40.50872 -61.951,-82.63892 -78.323,-132.04986 -5.109,-18.05075 79.983,-42.13341 85.092,-24.08266 z" id="path19599" inkscape:connector-curvature="0" style="fill:#aa0000;fill-opacity:1;fill-rule:nonzero;stroke:#f9f9f9;stroke-width:0.1;stroke-miterlimit:4;stroke-dasharray:none" transform="translate(-11264, 0)"/></svg>