<?xml version="1.0" encoding="UTF-8" standalone="no"?>
<svg
   xmlns:dc="http://purl.org/dc/elements/1.1/"
   xmlns:cc="http://creativecommons.org/ns#"
   xmlns:rdf="http://www.w3.org/1999/02/22-rdf-syntax-ns#"
   xmlns:svg="http://www.w3.org/2000/svg"
   xmlns="http://www.w3.org/2000/svg"
   xmlns:sodipodi="http://sodipodi.sourceforge.net/DTD/sodipodi-0.dtd"
   xmlns:inkscape="http://www.inkscape.org/namespaces/inkscape"
   width="1024"
   height="1024"
   id="U64AD"
   version="1.1"
   inkscape:version="0.48.0 r9654"
   sodipodi:docname="U+64AD.svg">
  <metadata
     id="metadata20">
    <rdf:RDF>
      <cc:Work
         rdf:about="">
        <dc:format>image/svg+xml</dc:format>
        <dc:type
           rdf:resource="http://purl.org/dc/dcmitype/StillImage" />
      </cc:Work>
    </rdf:RDF>
  </metadata>
  <defs
     id="defs18" />
  <sodipodi:namedview
     pagecolor="#ffffff"
     bordercolor="#666666"
     borderopacity="1"
     objecttolerance="10"
     gridtolerance="10"
     guidetolerance="10"
     inkscape:pageopacity="0"
     inkscape:pageshadow="2"
     inkscape:window-width="640"
     inkscape:window-height="480"
     id="namedview16"
     showgrid="false"
     inkscape:zoom="0.27441406"
     inkscape:cx="512"
     inkscape:cy="512"
     inkscape:window-x="0"
     inkscape:window-y="25"
     inkscape:window-maximized="0"
     inkscape:current-layer="U64AD" />
  <path
     style="fill:#aa0000;fill-opacity:1;fill-rule:nonzero;stroke:#f9f9f9;stroke-width:0.1;stroke-miterlimit:4;stroke-dasharray:none"
     d="M 648.90625 77.34375 C 647.70381 77.35046 646.60411 77.655425 645.625 78.28125 C 617.3448 97.98355 589.1752 117.8619 560.9375 137.625 C 521.3487 164.8107 482.0101 192.3054 444.0625 221.75 C 429.6824 232.9901 482.6825 300.77135 497.0625 289.53125 C 517.28595 273.59746 537.98688 258.32464 558.96875 243.4375 C 556.08849 268.33729 553.47347 293.26357 550.84375 318.1875 C 537.84698 319.56244 524.86548 320.96939 511.875 322.40625 C 463.6925 327.47415 415.5065 332.46185 367.25 336.78125 C 348.818 338.95725 359.068 425.83215 377.5 423.65625 C 403.91388 420.17601 430.37233 417.03586 456.84375 414 C 455.45493 415.07142 454.07362 416.14473 452.6875 417.21875 C 418.0153 444.40325 385.1241 473.71195 353.1875 504.03125 C 338.94275 517.84523 324.48082 531.54443 312.84375 547.65625 C 300.41218 555.14017 288.05994 562.71384 275.8125 570.5 C 275.6744 570.58926 275.54434 570.69197 275.40625 570.78125 C 275.63662 565.74978 275.87616 560.71844 276.125 555.6875 C 278.30216 508.19993 280.2987 460.6634 283 413.1875 C 298.99233 410.69837 314.95983 408.12493 330.84375 405 C 335.63955 403.6613 340.4542 402.3387 345.25 401 C 362.9521 395.7074 337.98335 312.23865 320.28125 317.53125 C 317.95415 318.32215 315.6396 319.11535 313.3125 319.90625 C 305.26144 321.66146 297.17121 323.24109 289.0625 324.6875 C 290.31992 309.3744 291.70832 294.07104 293.25 278.78125 C 298.2484 241.22735 301.80315 200.9674 321.28125 167.5625 C 332.46995 152.7376 262.59485 99.9876 251.40625 114.8125 C 221.93275 160.4896 215.6495 215.3912 209.25 268.125 C 207.16263 291.74898 205.37804 315.4005 203.8125 339.0625 C 172.71839 344.96141 141.7379 351.53266 111.4375 360.78125 C 93.7346 366.46575 120.51585 449.90315 138.21875 444.21875 C 157.98516 437.29799 178.30959 432.30601 198.78125 428 C 196.74007 469.28022 194.98337 510.56834 193.0625 551.84375 C 191.73486 577.89575 190.64246 603.96689 189.71875 630.03125 C 168.02636 646.4714 147.05411 663.84017 127.21875 682.59375 C 95.24485 713.87775 63.2267 746.59885 44.0625 787.65625 C 37.3782 805.00355 119.1282 836.50355 125.8125 819.15625 C 140.20943 789.86368 163.99273 766.4663 186.9375 743.8125 C 186.67917 763.80264 186.52166 783.78677 186.5 803.78125 C 186.5856 832.43555 187.31715 861.0921 185.21875 889.6875 C 184.23215 908.043 270.7633 912.69915 271.75 894.34375 C 272.9163 864.01045 272.0747 833.68525 271.375 803.34375 C 270.88998 760.72595 271.10958 718.10193 271.96875 675.5 C 288.37856 664.04349 305.09004 653.00536 321.9375 642.21875 C 348.4482 625.53725 375.5903 609.9312 402.875 594.5625 C 407.2001 592.09029 407.15517 584.71038 404.5 575.5 C 407.63608 572.59719 410.60457 569.62976 413 566.375 C 442.3918 537.8469 472.85765 510.43395 505.21875 485.28125 C 515.02966 477.7401 524.88769 470.19468 534.96875 462.96875 C 535.59778 463.32974 536.21217 463.70693 536.84375 464.0625 C 534.6676 490.79829 532.76121 517.55769 531.21875 544.34375 C 530.5576 556.19843 530.01796 568.06849 529.65625 579.9375 C 485.96017 591.1977 441.01995 604.35235 407.25 635.4375 C 383.4869 628.96364 354.32414 627.58552 352.1875 638.03125 C 345.9073 678.97795 351.28715 720.18285 358.09375 760.65625 C 365.07045 798.19255 374.46245 835.3858 391.46875 869.6875 C 394.66715 874.1819 397.8641 878.693 401.0625 883.1875 C 412.6529 897.6569 480.87155 843.00065 469.28125 828.53125 C 469.04245 828.73475 468.8012 828.95275 468.5625 829.15625 C 453.6145 804.25495 449.60155 774.05025 442.96875 746.28125 C 439.32794 724.91715 435.83833 703.18356 435.9375 681.46875 C 451.26431 692.64709 467.25859 699.73651 472.40625 693.40625 C 498.60395 676.07875 529.3996 668.2198 559.4375 660.5 C 577.09395 656.3865 594.9026 653.31072 612.8125 651 C 606.80034 664.43363 601.84279 678.4312 597.34375 692.53125 C 553.49206 697.85814 509.52599 704.70626 468.1875 720.84375 C 451.3727 728.69065 488.3727 807.972 505.1875 800.125 C 528.03503 790.86379 552.04862 785.45868 576.34375 781.59375 C 572.35869 803.36151 568.76076 825.20316 564.84375 846.96875 C 564.34854 849.57273 563.83893 852.17725 563.34375 854.78125 C 520.3855 860.39716 477.48384 866.8794 435.53125 877.875 C 417.78725 883.2968 443.34965 966.95305 461.09375 961.53125 C 503.53075 948.69905 547.6611 942.7988 591.5 937.0625 C 643.2534 930.3455 695.3718 927.80205 747.5 929.78125 C 763.5361 930.47095 779.5099 932.27265 795.4375 934.15625 C 813.7385 936.11835 822.95735 849.8371 804.65625 847.875 C 786.52395 846.1074 768.37705 844.4295 750.15625 843.875 C 717.5408 843.06726 684.96274 843.70814 652.4375 845.75 C 656.54113 821.30957 660.45975 796.80211 665.4375 772.53125 C 695.04876 771.28965 724.71437 771.58178 754.34375 772.375 C 758.89065 772.4561 763.4532 772.544 768 772.625 C 786.4331 772.7183 786.8705 685.81175 768.4375 685.71875 C 764.2241 685.75515 759.99465 685.80675 755.78125 685.84375 C 734.26564 685.69297 712.73242 685.67344 691.21875 686.15625 C 695.54543 677.13708 700.8209 668.64357 707.5625 661.15625 C 711.0083 658.32067 710.36882 652.24557 707.28125 644.84375 C 709.02298 644.81633 710.7584 644.77066 712.5 644.75 C 746.7712 644.8422 781.00565 646.92145 814.96875 651.46875 C 823.44065 653.10343 832.06474 654.1669 840.65625 655.40625 C 834.02487 683.82295 825.15225 711.69584 816.84375 739.65625 C 807.75175 767.11395 801.63655 795.64 790.96875 822.5625 C 784.47075 839.8752 866.09575 870.5002 872.59375 853.1875 C 883.14545 824.044 890.22695 793.8183 899.46875 764.25 C 909.99245 728.9544 921.75905 693.8804 929.09375 657.75 C 933.47775 619.7333 926.75335 587.9121 885.71875 575.125 C 865.97495 570.6116 845.8428 568.1963 825.8125 565.3125 C 787.7522 560.7716 749.4626 558.76585 711.125 559.03125 C 679.3616 559.66671 647.58865 561.28026 616.03125 564.75 C 616.16553 559.35412 616.35111 553.95477 616.53125 548.5625 C 617.21788 531.70613 618.07484 514.86322 619.125 498.03125 C 621.35345 498.76418 623.58311 499.49383 625.8125 500.21875 C 660.6715 510.76685 695.57985 521.1634 729.46875 534.5625 C 744.84565 541.3305 737.7465 537.86525 750.875 544.78125 C 767.3278 553.09735 806.5154 475.53485 790.0625 467.21875 C 771.0385 457.86765 780.7756 462.3141 760.8125 453.875 C 725.3112 440.2748 688.97525 429.20415 652.59375 418.21875 C 643.77443 415.32046 634.92247 412.40531 626.15625 409.25 C 626.59595 404.57346 627.04063 399.8936 627.5 395.21875 C 663.68262 391.71453 699.90632 388.60593 736.15625 385.84375 C 779.81825 382.28695 823.60445 381.1648 867.34375 379.0625 C 881.00985 378.0823 874.33205 378.8016 887.40625 376.875 C 905.68465 373.4525 889.55965 287.29615 871.28125 290.71875 C 867.44735 292.47745 870.35435 291.29575 861.90625 292.28125 C 817.77645 295.74615 773.49905 297.2845 729.40625 301.3125 C 698.52914 303.87112 667.68661 306.60348 636.84375 309.53125 C 641.79976 266.42253 647.02381 223.32405 655.25 180.71875 C 655.47921 179.57268 655.37485 178.4105 654.9375 177.28125 C 667.47136 168.75418 680.08663 160.31178 692.84375 152.125 C 707.53034 142.73772 666.94284 77.243101 648.90625 77.34375 z M 857.65625 658.40625 C 860.07813 658.94371 862.48764 659.50802 864.875 660.1875 C 862.10011 660.24391 859.71417 659.55689 857.65625 658.40625 z "
     id="path20279" />
</svg>
