<?xml version="1.0" encoding="utf-8" ?>

<!DOCTYPE svg PUBLIC "-//W3C//DTD SVG 1.1//EN" 
  "http://www.w3.org/Graphics/SVG/1.1/DTD/svg11.dtd">
<svg 
    xmlns="http://www.w3.org/2000/svg"
    xmlns:xlink="http://www.w3.org/1999/xlink"
    xmlns:sodipodi="http://sodipodi.sourceforge.net/DTD/sodipodi-0.dtd"
    xmlns:inkscape="http://www.inkscape.org/namespaces/inkscape"
    width="1024" height="1024" id="U6545">
<path d="m 8293.0855,15760.514 c 42.2791,-1.78 84.4657,-5.175 126.6311,-8.662 50.6532,-4.21 101.2654,-8.894 151.8521,-13.835 19.2006,-1.679 10.0724,-1.052 27.3775,-1.978 18.4792,-0.624 21.4229,86.487 2.9437,87.112 l 0,0 c -13.4629,0.09 -5.8742,-0.117 -22.7572,0.882 -50.7217,3.966 -101.416,8.27 -152.0908,12.796 -42.5106,3.812 -85.04,7.4 -127.5635,11.055 -18.534,1.356 -24.9269,-86.014 -6.3929,-87.37 z" id="path23923" inkscape:connector-curvature="0" style="fill:#550000;fill-opacity:1;fill-rule:nonzero;stroke:#f9f9f9;stroke-width:0.1;stroke-miterlimit:4;stroke-dasharray:none" transform="translate(-8192, -15360)"/><path d="m 8501.0534,15655.704 c -11.2299,34.36 -16.9842,70.197 -23.0519,105.738 -8.2581,51.626 -16.603,103.235 -25.7642,154.709 -5.7311,29.451 -2.7951,15.104 -8.7693,43.05 -3.9274,17.857 -88.1073,-0.657 -84.1799,-18.514 l 0,0 c 5.8271,-25.71 2.9627,-12.444 8.5435,-39.806 9.3888,-51.044 17.7869,-102.253 25.6728,-153.55 6.5489,-40.069 13.0764,-80.275 24.5024,-119.309 5.8722,-17.617 88.9188,10.065 83.0466,27.682 z" id="path23925" inkscape:connector-curvature="0" style="fill:#550000;fill-opacity:1;fill-rule:nonzero;stroke:#f9f9f9;stroke-width:0.1;stroke-miterlimit:4;stroke-dasharray:none" transform="translate(-8192, -15360)"/><path d="m 8363.7419,15983.138 c -3.4082,26.422 0.069,52.803 4.4825,78.854 5.1785,23.734 9.564,47.925 18.0483,70.769 0.086,-0.264 0.172,-0.528 0.258,-0.792 -4.5038,-5.347 -9.0076,-10.695 -13.5114,-16.043 15.863,9.818 -30.4209,84.597 -46.284,74.779 l 0,0 c -21.1077,-21.889 -14.7732,-10.996 -23.1944,-29.852 -8.8663,-27.643 -14.9919,-56.09 -20.624,-84.543 -5.5959,-33.602 -9.3528,-67.526 -6.3116,-101.626 1.7933,-18.484 88.9299,-10.031 87.1366,8.454 z" id="path23927" inkscape:connector-curvature="0" style="fill:#550000;fill-opacity:1;fill-rule:nonzero;stroke:#f9f9f9;stroke-width:0.1;stroke-miterlimit:4;stroke-dasharray:none" transform="translate(-8192, -15360)"/><path d="m 8327.7451,15967.773 c 20.4553,-32.39 53.6612,-48.249 88.6854,-60.065 38.5048,-11.093 78.562,-14.484 118.4185,-16.26 27.1219,-0.215 57.638,-0.757 80.3732,16.818 5.6717,4.384 10.0409,10.235 15.0614,15.352 21.0664,34.252 14.5806,72.583 8.1698,110.065 -6.8199,35.434 -15.7929,70.428 -26.6159,104.842 -6.5344,18.065 -2.9347,9.208 -10.783,26.578 -7.9188,16.708 -86.6826,-20.621 -78.7638,-37.33 l 0,0 c 4.7746,-9.157 2.3283,-3.927 6.9683,-15.858 10.0489,-30.306 17.9226,-61.307 23.8737,-92.679 1.9437,-11.625 2.869,-15.967 4.0576,-27.329 0.2818,-2.693 -2.2657,-22.53 4.9796,-13.494 2.5354,1.448 5.8637,4.969 8.1648,3.172 2.3375,-1.826 -5.5262,-2.355 -8.4679,-2.734 -8.436,-1.089 -14.9286,-0.851 -23.573,-0.933 -31.8247,1.09 -63.8435,3.508 -94.6801,11.959 -14.1843,4.54 -29.9825,9.044 -39.6464,21.222 -9.1909,16.169 -85.4131,-27.157 -76.2222,-43.326 z" id="path23929" inkscape:connector-curvature="0" style="fill:#550000;fill-opacity:1;fill-rule:nonzero;stroke:#f9f9f9;stroke-width:0.1;stroke-miterlimit:4;stroke-dasharray:none" transform="translate(-8192, -15360)"/><path d="m 8390.7956,16138.445 c 36.4273,-4.698 72.3598,-12.729 108.3588,-19.918 31.7177,-6.497 63.6544,-11.796 95.5954,-17.045 18.1798,-2.842 31.5748,82.859 13.395,85.7 l 0,0 c -30.8128,4.567 -61.6197,9.229 -92.1478,15.479 -39.2079,7.868 -78.2373,16.814 -117.7386,23.1 -18.5224,1.583 -25.9853,-85.733 -7.4628,-87.316 z" id="path23931" inkscape:connector-curvature="0" style="fill:#550000;fill-opacity:1;fill-rule:nonzero;stroke:#f9f9f9;stroke-width:0.1;stroke-miterlimit:4;stroke-dasharray:none" transform="translate(-8192, -15360)"/><path d="m 8831.1213,15640.771 c -14.3842,32.429 -27.8588,65.26 -41.8194,97.875 -20.586,47.343 -41.2886,94.643 -58.5385,143.322 -1.8075,5.922 -3.615,11.844 -5.4225,17.766 -5.5055,17.43 -87.6676,-8.524 -82.1621,-25.953 l 0,0 c 2.272,-6.993 4.544,-13.985 6.816,-20.978 18.3236,-49.9 39.5061,-98.636 60.3727,-147.512 13.8643,-33.248 27.3346,-66.652 40.6304,-100.131 7.5541,-16.997 87.6775,18.614 80.1234,35.611 z" id="path23933" inkscape:connector-curvature="0" style="fill:#550000;fill-opacity:1;fill-rule:nonzero;stroke:#f9f9f9;stroke-width:0.1;stroke-miterlimit:4;stroke-dasharray:none" transform="translate(-8192, -15360)"/><path d="m 8770.8043,15781.08 c 32.4726,-17.079 68.4576,-24.864 104.2035,-31.613 38.3308,-6.914 77.1816,-9.832 116.0842,-10.174 20.4345,-1.092 37.8791,3.498 56.1966,11.899 15.9212,9.638 -29.5123,84.691 -45.4336,75.053 l 0,0 c 20.0333,6.012 -6.9379,-2.577 -10.6493,-0.201 -33.5561,-0.257 -67.0842,2.125 -100.1394,8.132 -26.1106,4.974 -52.8319,10.08 -76.4762,22.799 -16.0998,9.289 -59.8857,-66.607 -43.7858,-75.895 z" id="path23935" inkscape:connector-curvature="0" style="fill:#550000;fill-opacity:1;fill-rule:nonzero;stroke:#f9f9f9;stroke-width:0.1;stroke-miterlimit:4;stroke-dasharray:none" transform="translate(-8192, -15360)"/><path d="m 9004.1961,15812.887 c -15.6543,41.508 -38.0893,79.757 -61.7147,117.117 -33.5582,51.759 -72.8952,99.343 -114.0144,145.193 -32.1014,35.689 -66.6599,68.97 -108.0766,93.512 -21.0015,11.701 -37.2188,12.134 -60.5307,11.153 -18.344,-2.436 -6.8586,-88.911 11.4854,-86.474 l 0,0 c -1.1347,0.541 -2.9679,0.444 -3.4042,1.623 -1.1173,3.02 18.3846,-4.317 9.5312,-1.569 34.3601,-18.286 60.9938,-47.557 87.6239,-75.348 38.0609,-42.023 74.3583,-85.779 105.0014,-133.601 20.0367,-32.075 39.5287,-64.845 51.6563,-100.879 6.2097,-17.489 88.6521,11.784 82.4424,29.273 z" id="path23937" inkscape:connector-curvature="0" style="fill:#550000;fill-opacity:1;fill-rule:nonzero;stroke:#f9f9f9;stroke-width:0.1;stroke-miterlimit:4;stroke-dasharray:none" transform="translate(-8192, -15360)"/><path d="m 8748.7591,15856.959 c 18.168,25.667 40.428,47.995 62.87,69.875 37.7541,35.078 76.9272,68.599 116.4404,101.67 36.4512,30.565 74.7801,58.732 113.387,86.48 21.158,12.558 38.7702,31.344 60.6079,42.771 15.8846,9.62 -29.4658,84.501 -45.3504,74.881 l 0,0 c -22.8779,-14.619 -43.4255,-32.569 -65.7955,-47.939 -39.9918,-29.238 -79.7683,-58.803 -117.7169,-90.685 -41.0647,-34.419 -81.8813,-69.176 -121.35,-105.425 -25.8671,-24.879 -51.1805,-50.42 -73.1297,-78.903 -11.1846,-14.858 58.8526,-67.582 70.0372,-52.725 z" id="path23939" inkscape:connector-curvature="0" style="fill:#550000;fill-opacity:1;fill-rule:nonzero;stroke:#f9f9f9;stroke-width:0.1;stroke-miterlimit:4;stroke-dasharray:none" transform="translate(-8192, -15360)"/></svg>