<?xml version="1.0" encoding="UTF-8" standalone="no"?>
<svg
   xmlns:dc="http://purl.org/dc/elements/1.1/"
   xmlns:cc="http://creativecommons.org/ns#"
   xmlns:rdf="http://www.w3.org/1999/02/22-rdf-syntax-ns#"
   xmlns:svg="http://www.w3.org/2000/svg"
   xmlns="http://www.w3.org/2000/svg"
   xmlns:sodipodi="http://sodipodi.sourceforge.net/DTD/sodipodi-0.dtd"
   xmlns:inkscape="http://www.inkscape.org/namespaces/inkscape"
   width="1024"
   height="1024"
   id="U65E9"
   version="1.1"
   inkscape:version="0.48.0 r9654"
   sodipodi:docname="U+65E9.svg">
  <metadata
     id="metadata13">
    <rdf:RDF>
      <cc:Work
         rdf:about="">
        <dc:format>image/svg+xml</dc:format>
        <dc:type
           rdf:resource="http://purl.org/dc/dcmitype/StillImage" />
      </cc:Work>
    </rdf:RDF>
  </metadata>
  <defs
     id="defs11" />
  <sodipodi:namedview
     pagecolor="#ffffff"
     bordercolor="#666666"
     borderopacity="1"
     objecttolerance="10"
     gridtolerance="10"
     guidetolerance="10"
     inkscape:pageopacity="0"
     inkscape:pageshadow="2"
     inkscape:window-width="640"
     inkscape:window-height="480"
     id="namedview9"
     showgrid="false"
     inkscape:zoom="0.27441406"
     inkscape:cx="512"
     inkscape:cy="512"
     inkscape:window-x="0"
     inkscape:window-y="25"
     inkscape:window-maximized="0"
     inkscape:current-layer="U65E9" />
  <path
     style="fill:#2b1100;fill-opacity:1;fill-rule:nonzero;stroke:none"
     d="M 572.78125 180.125 C 533.39093 180.08389 494.04277 182.7045 455.0625 189.09375 C 415.9817 195.95775 376.82175 204.08775 340.53125 220.71875 C 334.21377 223.94199 336.02865 237.21252 341.625 252 C 316.20614 246.84464 282.32997 248.01477 281.21875 259.53125 C 279.14975 301.43225 283.68785 343.2515 289.40625 384.6875 C 295.73594 429.69176 309.01758 473.08827 325.6875 515.21875 C 325.00107 515.40138 324.31058 515.56248 323.625 515.75 C 305.5716 520.845 329.60285 605.971 347.65625 600.875 C 379.67255 590.761 413.37125 588.831 446.65625 586.875 C 465.32663 585.76854 484.01321 585.15996 502.6875 585.03125 C 500.76074 612.66267 500.23157 640.4271 499.46875 668.09375 C 499.18351 680.605 498.88501 693.11392 498.59375 705.625 C 437.06452 709.53238 375.61935 714.3266 314.21875 720 C 267.24765 723.971 220.1843 728.7315 173 728.4375 C 154.2638 728.4375 154.2638 816.75 173 816.75 C 222.7361 815.063 272.25285 809.98 321.78125 805.375 C 380.01653 799.55434 438.3324 794.72904 496.71875 790.875 C 496.25281 813.53361 495.79978 836.18219 495.46875 858.84375 C 494.95945 882.40675 495.4332 905.96 496.375 929.5 C 497.317 947.962 584.34815 943.5245 583.40625 925.0625 C 582.01805 903.3225 581.26995 881.57525 581.53125 859.78125 C 581.69476 835.1651 582.02066 810.54796 582.5 785.9375 C 640.41898 783.43088 698.38444 783.45032 756.34375 784.84375 C 791.67285 785.77675 827.00395 787.32125 862.34375 787.78125 C 880.91885 787.81625 881.075 700.24875 862.5 700.21875 C 827.6748 700.58575 792.84935 699.3715 758.03125 698.8125 C 700.22689 697.92981 642.40847 698.29765 584.65625 700.78125 C 584.95691 690.82119 585.26605 680.86563 585.59375 670.90625 C 586.6424 643.28755 587.25403 615.47773 590.03125 587.9375 C 613.65732 590.47022 602.3397 589.09017 624.84375 592.125 C 643.21045 594.444 654.14795 507.8815 635.78125 505.5625 C 609.96415 502.4985 623.3283 503.92975 595.6875 501.34375 C 544.4603 498.06375 493.1548 497.681 441.875 500.375 C 433.30155 500.82654 424.70033 501.29 416.125 501.875 C 416.04826 501.13009 415.85102 500.42058 415.5 499.75 C 409.8785 489.79 412.83945 495.461 406.84375 482.625 C 402.90349 473.18352 399.18701 463.64996 395.75 454.03125 C 425.8032 447.62428 456.64532 445.68977 487.25 443.71875 C 534.231 440.84175 581.2998 439.6725 628.3125 442.1875 C 641.37521 443.17231 654.4715 444.05157 667.34375 446.34375 C 666.44981 450.7928 665.56106 455.2455 664.65625 459.6875 C 660.17465 480.7425 655.67425 501.79 649.34375 522.375 C 644.16325 540.25 728.41325 564.6885 733.59375 546.8125 C 739.99565 523.6845 745.04935 500.2255 749.71875 476.6875 C 759.33445 427.7325 768.929 378.484 770.8125 328.5 C 770.7227 283.806 766.3716 239.4865 727.1875 211.1875 C 691.8462 190.9745 652.71715 182.92 612.15625 181 C 599.02585 180.4285 585.91136 180.1387 572.78125 180.125 z M 564.84375 266.59375 C 579.24071 266.49746 593.63244 266.87125 608.03125 267.625 C 632.02735 271.053 661.00255 270.586 681.21875 286.125 C 683.52115 299.681 683.778 314.5835 683.75 328.5625 C 683.36691 339.05139 682.55071 349.48713 681.46875 359.90625 C 665.21963 357.46381 648.87389 356.06 632.40625 355.375 C 582.26255 353.311 532.07285 354.469 481.96875 357.25 C 446.02582 359.33321 409.97711 361.73294 374.5625 368.46875 C 371.30812 344.21222 368.52266 319.76497 368.34375 295.28125 C 373.00696 299.43741 377.38331 301.32742 380.78125 299.59375 C 408.85225 285.90275 439.6898 279.9115 470.1875 274.4375 C 501.53344 269.2125 533.17043 266.80558 564.84375 266.59375 z "
     id="path13865" />
</svg>
