<?xml version="1.0" encoding="UTF-8" standalone="no"?>
<svg
   xmlns:dc="http://purl.org/dc/elements/1.1/"
   xmlns:cc="http://creativecommons.org/ns#"
   xmlns:rdf="http://www.w3.org/1999/02/22-rdf-syntax-ns#"
   xmlns:svg="http://www.w3.org/2000/svg"
   xmlns="http://www.w3.org/2000/svg"
   xmlns:sodipodi="http://sodipodi.sourceforge.net/DTD/sodipodi-0.dtd"
   xmlns:inkscape="http://www.inkscape.org/namespaces/inkscape"
   width="1024"
   height="1024"
   id="U65A4"
   version="1.1"
   inkscape:version="0.48.0 r9654"
   sodipodi:docname="U+65A4.svg">
  <metadata
     id="metadata10">
    <rdf:RDF>
      <cc:Work
         rdf:about="">
        <dc:format>image/svg+xml</dc:format>
        <dc:type
           rdf:resource="http://purl.org/dc/dcmitype/StillImage" />
      </cc:Work>
    </rdf:RDF>
  </metadata>
  <defs
     id="defs8" />
  <sodipodi:namedview
     pagecolor="#ffffff"
     bordercolor="#666666"
     borderopacity="1"
     objecttolerance="10"
     gridtolerance="10"
     guidetolerance="10"
     inkscape:pageopacity="0"
     inkscape:pageshadow="2"
     inkscape:window-width="640"
     inkscape:window-height="480"
     id="namedview6"
     showgrid="false"
     inkscape:zoom="0.27441406"
     inkscape:cx="512"
     inkscape:cy="512"
     inkscape:window-x="0"
     inkscape:window-y="25"
     inkscape:window-maximized="0"
     inkscape:current-layer="U65A4" />
  <path
     style="fill:#2b0000;fill-opacity:1;fill-rule:nonzero;stroke:#f9f9f9;stroke-width:0.1;stroke-miterlimit:4;stroke-dasharray:none"
     d="M 611.8125 140.4375 C 610.92545 140.44306 610.08383 140.62083 609.28125 141 C 567.12255 162.608 526.2401 186.60975 485.1875 210.21875 C 433.2811 239.93375 381.35235 269.5545 329.90625 300.0625 C 306.09655 314.1935 282.3501 328.45125 258.8125 343.03125 C 240.6579 351.52025 233.1624 382.47075 230.625 402.84375 C 223.0769 457.92475 217.00405 513.19375 211.09375 568.46875 C 202.61825 646.23075 196.52305 724.2105 192.34375 802.3125 C 190.21525 847.7485 188.9719 893.2215 187.6875 938.6875 C 187.411 949.0165 187.1045 959.32825 186.8125 969.65625 C 186.5141 988.56925 275.67035 989.9755 275.96875 971.0625 C 276.00135 960.8285 276.05085 950.609 276.15625 940.375 C 276.59855 895.766 277.04665 851.1455 278.71875 806.5625 C 281.65547 741.09223 286.30499 675.70992 293.125 610.53125 C 297.97963 617.07542 302.94317 620.77967 307.21875 619.25 C 344.40575 605.585 382.20805 593.58575 419.84375 581.21875 C 439.36162 574.32123 459.08556 568.24088 479 563.09375 C 475.65326 593.31363 475.08298 623.82172 474.28125 654.1875 C 473.11745 709.9845 472.91255 765.819 473.34375 821.625 C 473.74825 855.524 473.88945 889.60325 482.65625 922.53125 C 488.00895 940.66625 573.4776 915.4485 568.125 897.3125 C 558.5989 873.4655 563.84725 845.3815 560.78125 820.5625 C 559.89725 765.9895 560.0348 711.40575 561.5625 656.84375 C 562.7674 622.00175 563.35575 586.76225 570.59375 552.53125 C 571.03182 550.67789 570.54075 548.79174 569.3125 546.9375 C 574.19955 546.46547 579.08793 546.02462 584 545.6875 C 612.8388 545.3265 642.7747 546.0385 670.1875 556.0625 C 688.2002 561.7225 714.8877 476.785 696.875 471.125 C 658.068 459.866 617.66765 456.49875 577.34375 458.71875 C 514.31255 463.96775 452.85615 477.6165 393.03125 498.3125 C 362.95321 507.88416 332.82842 517.33884 302.75 526.90625 C 307.34519 489.43904 312.41581 452.01126 318.6875 414.78125 C 318.91218 413.20563 319.15054 411.63453 319.40625 410.0625 C 337.69571 398.05583 356.27694 386.45715 374.9375 375.03125 C 425.4838 344.27325 476.7191 314.73225 528.25 285.65625 C 567.4611 263.44825 606.46735 240.64675 647.40625 221.71875 C 663.72528 214.00892 629.84917 140.32446 611.8125 140.4375 z "
     id="path9335" />
</svg>
