<?xml version="1.0" encoding="UTF-8" standalone="no"?>
<svg
   xmlns:dc="http://purl.org/dc/elements/1.1/"
   xmlns:cc="http://creativecommons.org/ns#"
   xmlns:rdf="http://www.w3.org/1999/02/22-rdf-syntax-ns#"
   xmlns:svg="http://www.w3.org/2000/svg"
   xmlns="http://www.w3.org/2000/svg"
   xmlns:sodipodi="http://sodipodi.sourceforge.net/DTD/sodipodi-0.dtd"
   xmlns:inkscape="http://www.inkscape.org/namespaces/inkscape"
   width="1024"
   height="1024"
   id="U6536"
   version="1.1"
   inkscape:version="0.48.0 r9654"
   sodipodi:docname="U+6536.svg">
  <metadata
     id="metadata13">
    <rdf:RDF>
      <cc:Work
         rdf:about="">
        <dc:format>image/svg+xml</dc:format>
        <dc:type
           rdf:resource="http://purl.org/dc/dcmitype/StillImage" />
      </cc:Work>
    </rdf:RDF>
  </metadata>
  <defs
     id="defs11" />
  <sodipodi:namedview
     pagecolor="#ffffff"
     bordercolor="#666666"
     borderopacity="1"
     objecttolerance="10"
     gridtolerance="10"
     guidetolerance="10"
     inkscape:pageopacity="0"
     inkscape:pageshadow="2"
     inkscape:window-width="640"
     inkscape:window-height="480"
     id="namedview9"
     showgrid="false"
     inkscape:zoom="0.27441406"
     inkscape:cx="512"
     inkscape:cy="512"
     inkscape:window-x="0"
     inkscape:window-y="25"
     inkscape:window-maximized="0"
     inkscape:current-layer="U6536" />
  <path
     style="fill:#782121;fill-opacity:1;fill-rule:nonzero;stroke:#f9f9f9;stroke-width:0.1;stroke-miterlimit:4;stroke-dasharray:none"
     d="M 331.9375 118.84375 C 306.55327 118.79564 275.88825 125.78613 276.78125 136.875 C 282.22995 193.456 281.5617 250.469 281.4375 307.25 C 280.0505 392.07104 278.76405 476.85351 280.1875 561.65625 C 270.11759 554.42058 260.61087 550.11598 255.28125 552.1875 C 256.79235 551.1893 258.30143 550.1857 259.8125 549.1875 C 249.385 555.7195 236.2556 558.06425 224.25 560.65625 C 222.9722 560.84525 203.6255 562.1385 203.5625 563.3125 C 203.4638 565.1345 206.1512 566.48925 205.25 568.53125 C 196.2447 570.14825 199.8693 516.3005 200.375 510.1875 C 203.5712 477.9705 207.7703 445.795 215.8125 414.375 C 219.767 396.027 133.267 377.401 129.3125 395.75 C 122.0402 430.7 117.34625 466.03525 113.78125 501.53125 C 111.86585 533.39925 108.08825 567.94375 121.15625 598.21875 C 123.81785 604.38475 127.70095 609.9445 130.96875 615.8125 C 157.77095 649.2235 195.71185 652.3775 235.28125 647.8125 C 251.40919 645.28656 267.26293 641.3871 282.4375 635.625 C 285.5891 700.90649 291.89989 765.96712 302.53125 830.46875 C 306.80845 854.29175 311.7283 877.99525 317.875 901.40625 C 322.9849 919.36225 407.64115 895.2685 402.53125 877.3125 C 396.17545 857.1525 391.7444 836.47425 387.5 815.78125 C 374.72 745.59625 368.28145 674.47875 365.34375 603.21875 C 361.97075 504.79775 363.3276 406.39975 366.0625 307.96875 C 366.9254 248.59175 367.9963 189.11225 364.8125 129.78125 C 364.20146 122.19453 349.30566 118.87667 331.9375 118.84375 z M 519.28125 138.84375 C 515.11851 138.86068 512.0643 139.99219 510.65625 142.5625 C 490.12395 183.9325 474.30175 227.3775 459.53125 271.0625 C 440.19595 329.6855 426.3801 389.88525 418.1875 451.03125 C 415.3264 470.62525 415.6163 490.211 416.875 509.875 C 418.5263 528.429 505.9639 520.64675 504.3125 502.09375 C 504.24727 501.6261 504.21672 501.15511 504.15625 500.6875 C 525.88326 523.66119 546.52619 547.71278 567.15625 571.65625 C 586.04146 593.92494 604.3066 616.66564 622.375 639.59375 C 616.92661 648.77695 611.40157 657.91666 605.78125 667 C 576.70935 713.143 541.691 754.91175 500.0625 790.09375 C 495.8848 793.28275 491.7455 796.55725 487.5 799.65625 C 481.3035 804.17925 474.98235 808.4495 468.28125 812.1875 C 467.11972 812.8353 465.95119 813.67115 464.75 814.4375 C 465.38617 814.34918 466.02007 814.24458 466.65625 814.15625 C 449.91144 820.83132 441.51228 899.58529 459.15625 901.6875 C 465.55125 901.6675 471.9175 901.66625 478.3125 901.65625 C 508.4249 893.58825 533.44855 875.97525 556.96875 855.78125 C 604.37975 813.89125 644.88025 765.36125 678.09375 711.40625 C 678.14949 711.31477 678.19428 711.21649 678.25 711.125 C 682.03359 715.95362 685.82371 720.77956 689.625 725.59375 C 725.7369 770.96175 764.45105 814.141 804.28125 856.25 C 822.73065 875.763 841.7498 894.718 860.4375 914 C 873.5737 927.25 936.04255 865.3125 922.90625 852.0625 C 904.17455 833.5695 885.26365 815.27475 866.96875 796.34375 C 828.55325 756.58875 791.3413 715.6435 756.8125 672.4375 C 745.95847 658.74348 735.17961 644.97122 724.4375 631.1875 C 751.50014 581.66566 776.3444 530.95049 798.5 478.96875 C 818.10706 431.67802 837.10973 383.94848 849.8125 334.25 C 853.8336 315.913 767.3962 296.94425 763.375 315.28125 C 753.7455 360.59525 736.7048 403.86175 719.5 446.71875 C 703.75721 484.74876 686.33069 522.01136 667.4375 558.5 C 655.96024 544.12852 644.37186 529.85548 632.5625 515.75 C 602.9442 480.811 573.166 445.95625 541.5625 412.78125 C 536.07065 407.39212 522.37193 414.86854 509.09375 426.4375 C 514.05512 396.20353 520.78455 366.29737 529.15625 336.8125 C 541.4267 358.87916 562.02628 381.82089 571.21875 375.75 C 595.65915 361.258 622.6677 351.6255 649.3125 342.0625 C 691.6361 327.3875 734.8746 315.70025 778.5625 305.90625 C 804.87131 300.94461 831.35969 295.27762 858.1875 294.125 C 856.29966 293.72912 853.96462 293.28682 850.59375 292.6875 C 868.50815 292.31303 898.63067 216.94286 881.96875 210.09375 C 861.11705 205.20675 870.3388 205.9175 854.5625 205.9375 C 822.4813 208.5365 790.81235 214.7325 759.34375 221.3125 C 712.39775 232.1325 665.81165 244.6135 620.15625 260.0625 C 594.32638 269.16277 568.43752 278.54788 543.8125 290.59375 C 556.4289 254.55192 569.95231 218.69362 588.1875 185.0625 C 595.79095 171.18366 541.76006 138.75233 519.28125 138.84375 z M 858.1875 294.125 C 862.57438 295.04493 863.40441 295.32948 860.09375 294.03125 C 859.4588 294.05339 858.82207 294.09774 858.1875 294.125 z M 464.75 814.4375 C 463.37546 814.62833 461.99953 814.80894 460.625 815 C 460.0074 815.425 458.04535 816.13725 458.78125 816.28125 C 460.8649 816.69013 462.83233 815.66097 464.75 814.4375 z "
     id="path10670" />
</svg>
