<?xml version="1.0" encoding="UTF-8" standalone="no"?>
<svg
   xmlns:dc="http://purl.org/dc/elements/1.1/"
   xmlns:cc="http://creativecommons.org/ns#"
   xmlns:rdf="http://www.w3.org/1999/02/22-rdf-syntax-ns#"
   xmlns:svg="http://www.w3.org/2000/svg"
   xmlns="http://www.w3.org/2000/svg"
   xmlns:sodipodi="http://sodipodi.sourceforge.net/DTD/sodipodi-0.dtd"
   xmlns:inkscape="http://www.inkscape.org/namespaces/inkscape"
   width="1024"
   height="1024"
   id="U653F"
   version="1.1"
   inkscape:version="0.48.0 r9654"
   sodipodi:docname="U+653F.svg">
  <metadata
     id="metadata16">
    <rdf:RDF>
      <cc:Work
         rdf:about="">
        <dc:format>image/svg+xml</dc:format>
        <dc:type
           rdf:resource="http://purl.org/dc/dcmitype/StillImage" />
      </cc:Work>
    </rdf:RDF>
  </metadata>
  <defs
     id="defs14" />
  <sodipodi:namedview
     pagecolor="#ffffff"
     bordercolor="#666666"
     borderopacity="1"
     objecttolerance="10"
     gridtolerance="10"
     guidetolerance="10"
     inkscape:pageopacity="0"
     inkscape:pageshadow="2"
     inkscape:window-width="640"
     inkscape:window-height="480"
     id="namedview12"
     showgrid="false"
     inkscape:zoom="0.27441406"
     inkscape:cx="512"
     inkscape:cy="512"
     inkscape:window-x="0"
     inkscape:window-y="25"
     inkscape:window-maximized="0"
     inkscape:current-layer="U653F" />
  <path
     style="fill:#2b1100;fill-opacity:1;fill-rule:nonzero;stroke:none"
     d="M 590.5625 186.21875 C 586.4026 186.24792 583.30578 187.39609 581.90625 189.96875 C 559.52975 230.67475 538.2002 271.81425 518.8125 314.03125 C 493.3192 370.41625 474.07315 429.22675 459.71875 489.34375 C 456.69504 503.87121 456.07119 506.68955 455.40625 510.1875 C 437.05951 505.5007 418.63251 501.7038 399.53125 501.65625 C 358.95455 501.00725 318.61275 504.09475 278.53125 510.59375 C 278.42482 510.61149 278.323 510.63297 278.21875 510.65625 C 279.71895 493.90211 281.24977 477.15819 282.8125 460.40625 C 285.6755 424.84225 286.5956 388.97175 292.25 353.71875 C 293.09893 349.23641 288.56259 344.86863 281.21875 341.09375 C 319.46525 338.74091 357.76785 337.342 396.09375 338.21875 C 413.09145 338.84075 430.04465 340.0715 446.65625 343.8125 C 464.99775 347.3345 481.5915 260.86475 463.25 257.34375 C 441.4932 253.58175 419.5391 251.55775 397.4375 251.34375 C 343.8651 250.83775 290.39075 253.93025 236.96875 257.78125 C 195.83195 260.53825 154.66045 264.53375 113.40625 264.34375 C 94.64255 263.68475 91.5488 352.12225 110.3125 352.78125 C 141.65104 351.82023 172.90413 349.28852 204.15625 346.75 C 199.86314 382.31103 199.10108 418.21701 196.625 453.9375 C 191.5899 515.6165 186.1591 577.24 182.1875 639 C 179.9441 670.306 180.6872 701.5165 185 732.5625 C 185.82508 737.70867 193.21741 740.31303 203.375 741 C 192.32292 744.56215 181.28574 748.18809 170.28125 751.90625 C 125.76465 766.70925 81.3766 783.45875 35.1875 792.21875 C 16.606 794.63675 28.01225 882.2305 46.59375 879.8125 C 98.29165 869.1485 147.8045 849.963 197.625 832.875 C 267.7596 808.439 339.2087 788.20525 411.3125 770.53125 C 445.984 762.05225 481.15735 756.0905 516.65625 752.5625 C 535.12415 750.3855 524.87415 663.35525 506.40625 665.53125 C 467.42015 670.75725 428.6959 677.78025 390.5625 687.53125 C 350.67 697.67699 310.95161 708.43276 271.46875 720.03125 C 271.50039 719.59136 271.50894 719.13308 271.4375 718.6875 C 266.5883 694.1555 266.98475 669.12875 268.03125 644.21875 C 269.54442 617.74091 271.4717 591.3004 273.59375 564.875 C 277.74411 583.31249 285.02922 599.02653 293.0625 597.6875 C 327.5365 590.6055 362.548 587.632 397.6875 588.625 C 410.3588 588.828 422.41085 591.33425 434.34375 595.28125 C 445.88503 598.54781 459.91372 564.64891 463.625 538.78125 C 482.76789 548.04458 520.93692 552.88677 534.21875 546.09375 C 555.65076 567.27881 576.12356 589.43237 597.5 610.6875 C 614.37676 627.39274 632.08244 643.17411 650.21875 658.4375 C 620.27482 697.49348 588.81916 735.37812 553.625 769.84375 C 541.446 778.32775 525.89395 797.5455 508.90625 795.5625 C 490.52015 798.7305 505.45765 885.38675 523.84375 882.21875 C 560.37725 874.21375 588.1207 857.42 614.8125 831 C 651.47927 793.64853 684.7663 753.30982 716.46875 711.71875 C 726.642 719.71085 736.83215 727.69086 746.9375 735.75 C 789.9181 769.417 828.36015 808.15675 865.15625 848.34375 C 885.97665 871.20175 905.52185 895.25 927.90625 916.625 C 931.01025 919.023 934.11485 921.4145 937.21875 923.8125 C 952.55105 934.6405 1003.6135 862.35925 988.28125 851.53125 C 988.10505 851.61325 987.9262 851.70125 987.75 851.78125 C 966.1693 832.95325 948.6979 809.92175 928.75 789.46875 C 888.566 746.51975 846.7596 705.0185 800.375 668.6875 C 789.33044 659.89806 778.18264 651.18877 767.0625 642.46875 C 805.76335 587.44763 842.89344 531.34769 878.6875 474.375 C 901.5158 437.752 924.40845 401.10475 944.65625 362.96875 C 945.28452 361.69961 945.3946 360.30325 945.09375 358.8125 C 964.59973 357.22752 984.11843 355.70054 1003.6562 354.5625 C 1022.141 353.3075 1016.2347 266.1835 997.75 267.4375 C 960.8482 270.2725 924.0197 274.0045 887.125 276.9375 C 829.2776 281.5385 771.2204 285.333 713.9375 295 C 679.12878 301.70535 644.48816 309.44833 610.90625 320.84375 C 625.91162 290.65173 642.05291 261.07236 659.53125 232.1875 C 667.08872 218.29516 613.02598 186.06125 590.5625 186.21875 z M 593.5 357.40625 C 600.58989 382.50346 617.73794 412.81188 628.59375 408.375 C 661.24685 394.564 695.9214 386.7105 730.5625 379.8125 C 767.67145 373.43475 805.13601 369.84125 842.65625 366.84375 C 830.74411 387.96477 818.09178 408.65922 805.53125 429.375 C 772.31216 483.61899 737.4839 536.83781 701.03125 588.9375 C 686.45409 576.39938 672.2318 563.45091 658.625 549.8125 C 630.8926 521.6675 604.7865 491.99775 576.6875 464.21875 C 572.08835 460.2218 562.84307 464.58607 552.96875 472.6875 C 563.48007 433.28509 576.86921 394.73213 593.5 357.40625 z M 82.4375 492.1875 C 70.363764 492.41922 61.175094 494.9975 60.21875 500.78125 C 57.01855 539.88625 55.6872 579.09375 52.5625 618.21875 C 48.4925 660.62475 45.29655 703.07825 43.90625 745.65625 C 43.38805 764.04625 130.07545 766.48475 130.59375 748.09375 C 131.54875 707.07575 134.64315 666.195 138.78125 625.375 C 141.94345 588.665 143.68535 551.8235 147.46875 515.1875 C 149.57271 502.46394 108.99972 491.67772 82.4375 492.1875 z "
     id="path14691" />
</svg>
