<?xml version="1.0" encoding="UTF-8" standalone="no"?>
<svg
   xmlns:dc="http://purl.org/dc/elements/1.1/"
   xmlns:cc="http://creativecommons.org/ns#"
   xmlns:rdf="http://www.w3.org/1999/02/22-rdf-syntax-ns#"
   xmlns:svg="http://www.w3.org/2000/svg"
   xmlns="http://www.w3.org/2000/svg"
   xmlns:sodipodi="http://sodipodi.sourceforge.net/DTD/sodipodi-0.dtd"
   xmlns:inkscape="http://www.inkscape.org/namespaces/inkscape"
   width="1024"
   height="1024"
   id="U65E7"
   version="1.1"
   inkscape:version="0.48.0 r9654"
   sodipodi:docname="U+65E7.svg">
  <metadata
     id="metadata12">
    <rdf:RDF>
      <cc:Work
         rdf:about="">
        <dc:format>image/svg+xml</dc:format>
        <dc:type
           rdf:resource="http://purl.org/dc/dcmitype/StillImage" />
      </cc:Work>
    </rdf:RDF>
  </metadata>
  <defs
     id="defs10" />
  <sodipodi:namedview
     pagecolor="#ffffff"
     bordercolor="#666666"
     borderopacity="1"
     objecttolerance="10"
     gridtolerance="10"
     guidetolerance="10"
     inkscape:pageopacity="0"
     inkscape:pageshadow="2"
     inkscape:window-width="640"
     inkscape:window-height="480"
     id="namedview8"
     showgrid="false"
     inkscape:zoom="0.27441406"
     inkscape:cx="512"
     inkscape:cy="512"
     inkscape:window-x="0"
     inkscape:window-y="25"
     inkscape:window-maximized="0"
     inkscape:current-layer="U65E7" />
  <path
     style="fill:#2b0000;fill-opacity:1;fill-rule:nonzero;stroke:#f9f9f9;stroke-width:0.1;stroke-miterlimit:4;stroke-dasharray:none"
     d="M 597.59375 257.9375 C 589.2593 258.00061 580.90769 258.3025 572.5625 258.71875 C 536.0746 260.35675 499.62625 262.92125 463.46875 268.28125 C 429.42325 273.39225 395.12325 278.87925 362.90625 291.53125 C 357.41729 293.95 357.29886 303.79166 360.21875 315.875 C 333.64415 314.05179 296.79318 320.79143 297.59375 333 C 300.79765 374.244 300.6826 415.68825 300.875 457.03125 C 300.7124 520.08425 300.6887 583.1385 301.5625 646.1875 C 302.5377 676.0455 301.58245 706.207 308.09375 735.5 C 313.37385 753.717 399.24895 728.842 393.96875 710.625 C 392.57775 714.532 393.26305 713.2465 392.09375 703.3125 C 389.79895 683.8145 389.5001 664.12025 388.6875 644.53125 C 387.1958 582.03025 387.20485 519.513 387.90625 457 C 388.0311 427.75826 388.1469 398.52216 387.75 369.28125 C 391.81562 373.0126 395.70397 374.70613 398.9375 373.28125 C 423.679 363.20025 450.3807 359.4265 476.625 355.4375 C 509.6315 350.4855 542.9279 348.277 576.25 347 C 595.9032 347.058 616.14505 344.84975 635.46875 349.46875 C 640.75915 351.44975 638.1328 351.43025 635 350.53125 C 638.617 365.43825 638.97525 380.7885 639.28125 396.0625 C 638.20295 444.6035 633.20725 492.97475 629.28125 541.34375 C 624.79575 594.28375 621.9262 647.33325 619.625 700.40625 C 616.2378 721.45125 621.84695 745.454 613.96875 765.75 C 609.33065 784.056 695.6119 805.89975 700.25 787.59375 C 706.2931 760.01275 706.70815 731.9795 707.28125 703.8125 C 709.05655 651.9825 711.5682 600.175 716.0625 548.5 C 720.3496 497.301 725.98395 446.128 727.53125 394.75 C 727.20275 364.186 726.29265 332.902 711.96875 305.125 C 697.67655 282.906 678.91625 267.1835 652.34375 261.9375 C 634.20606 258.77569 615.92953 257.79867 597.59375 257.9375 z M 203.4375 309.34375 C 177.78321 309.23076 146.78183 316.22869 147.65625 327.4375 C 152.64445 369.1185 155.88845 410.96175 158.59375 452.84375 C 161.88085 508.43075 163.5449 564.0895 166.625 619.6875 C 169.3746 656.2275 170.7905 692.86975 174.375 729.34375 C 176.5068 748.08075 264.85055 738.0495 262.71875 719.3125 C 258.07705 684.5985 256.9372 649.491 253.875 614.625 C 250.4889 558.951 248.6286 503.194 245.625 447.5 C 243.1671 405.119 239.9686 362.818 236.625 320.5 C 236.02668 312.83122 220.99044 309.42106 203.4375 309.34375 z M 518.09375 491.875 C 513.83618 491.86925 509.56638 492.00881 505.28125 492.28125 C 473.48225 493.97725 441.79495 497.54225 410.65625 504.40625 C 392.27255 509.08825 414.33505 595.7455 432.71875 591.0625 C 457.89675 584.5515 483.8333 581.722 509.75 580.5 C 524.1486 579.907 538.41655 580.802 552.28125 584.75 C 570.61125 589.107 591.1425 502.69975 572.8125 498.34375 C 554.72657 494.41613 536.54323 491.89991 518.09375 491.875 z M 531.65625 798.28125 C 509.85984 798.30436 488.05427 799.42056 466.28125 801.34375 C 434.78405 803.54975 402.8486 806.789 371.375 802.875 C 352.798 799.159 335.26665 886.75375 353.84375 890.46875 C 393.23405 895.58775 433.0801 891.7785 472.5 888.9375 C 506.3778 886.0865 540.37415 884.938 574.21875 888.5 C 586.44825 889.789 598.27185 892.83975 609.71875 897.21875 C 627.56475 903.58975 657.5959 819.46475 639.75 813.09375 C 621.1756 806.72875 602.1136 802.10475 582.5 800.34375 C 565.56013 798.89475 548.60902 798.26328 531.65625 798.28125 z "
     id="path9643" />
</svg>
