<?xml version="1.0" encoding="utf-8" ?>

<!DOCTYPE svg PUBLIC "-//W3C//DTD SVG 1.1//EN" 
  "http://www.w3.org/Graphics/SVG/1.1/DTD/svg11.dtd">
<svg 
    xmlns="http://www.w3.org/2000/svg"
    xmlns:xlink="http://www.w3.org/1999/xlink"
    xmlns:sodipodi="http://sodipodi.sourceforge.net/DTD/sodipodi-0.dtd"
    xmlns:inkscape="http://www.inkscape.org/namespaces/inkscape"
    width="1024" height="1024" id="U65B9">
<path d="m 10670.269,11495.695 c 11.264,21.597 28.38,38.971 46.192,55.213 14.493,12.097 7.217,6.175 21.822,17.773 14.345,11.514 -39.933,79.137 -54.278,67.623 l 0,0 c -17.071,-13.83 -8.352,-6.608 -26.128,-21.703 -24.808,-22.966 -48.056,-47.694 -64.763,-77.361 -8.814,-16.367 68.342,-57.912 77.155,-41.545 z" id="path22793" inkscape:connector-curvature="0" style="fill:#550000;fill-opacity:1;fill-rule:nonzero;stroke:#f9f9f9;stroke-width:0.1;stroke-miterlimit:4;stroke-dasharray:none" transform="translate(-10240, -11264)"/><path d="m 10410.431,11733.094 c 44.95,-7.44 89.733,-15.845 134.643,-23.533 71.278,-12.031 142.954,-21.377 214.863,-28.655 50.135,-4.828 100.49,-6.42 150.818,-4.928 17.172,0.605 34.361,1.574 51.316,4.443 18.268,3.575 1.416,89.691 -16.852,86.116 l 0,0 c -12.126,-3.632 -25.459,-2.316 -37.857,-4.051 -46.377,-2.317 -92.836,-1.407 -139.103,2.757 -69.815,6.705 -139.382,15.744 -208.455,28.009 -44.62,8.074 -89.149,16.645 -133.524,25.981 -18.273,3.362 -34.122,-82.777 -15.849,-86.139 z" id="path22795" inkscape:connector-curvature="0" style="fill:#550000;fill-opacity:1;fill-rule:nonzero;stroke:#f9f9f9;stroke-width:0.1;stroke-miterlimit:4;stroke-dasharray:none" transform="translate(-10240, -11264)"/><path d="m 10526.156,11914.992 c 37.086,-14.023 76.342,-20.387 115.398,-26.039 54.105,-7.632 108.641,-9.341 163.023,-4.481 38.112,5.076 76.906,16.369 103.379,46.108 5.109,5.739 9.005,12.453 13.508,18.68 22.429,40.464 19.125,84.158 10.098,127.747 -10.416,43.701 -28.751,84.612 -52.355,122.651 -12.112,20.096 -28.701,31.862 -48.292,43.645 -16.443,8.382 -55.957,-69.132 -39.513,-77.514 l 0,0 c 4.486,4.11 13.015,-11.577 14.816,-12.322 18.836,-28.944 32.585,-60.716 40.842,-94.306 4.404,-20.277 8.672,-41.487 2.163,-61.825 -9.288,-20.329 -32.818,-23.965 -52.882,-27.357 -47.423,-4.984 -95.061,-3 -142.257,3.801 -31.859,4.814 -64.172,9.771 -94.156,22.109 -17.161,7.164 -50.933,-73.733 -33.772,-80.897 z" id="path22797" inkscape:connector-curvature="0" style="fill:#550000;fill-opacity:1;fill-rule:nonzero;stroke:#f9f9f9;stroke-width:0.1;stroke-miterlimit:4;stroke-dasharray:none" transform="translate(-10240, -11264)"/><path d="m 10670.28,11817.032 c -21.491,39.679 -36.047,82.82 -52.035,124.918 -25.009,66.092 -51.124,131.756 -76.349,197.766 -12.987,35.363 -26.512,70.596 -37.728,106.578 -0.427,1.78 -0.854,3.56 -1.281,5.339 -4.988,17.871 -89.23,-5.644 -84.242,-23.515 l 0,0 c 0.932,-3.087 1.863,-6.174 2.795,-9.26 12.873,-36.922 27.209,-73.321 41.157,-109.843 25.686,-65.501 51.885,-130.808 76.278,-196.806 17.917,-48.467 34.015,-98.121 58.558,-143.742 10.302,-15.454 83.15,33.111 72.847,48.565 z" id="path22799" inkscape:connector-curvature="0" style="fill:#550000;fill-opacity:1;fill-rule:nonzero;stroke:#f9f9f9;stroke-width:0.1;stroke-miterlimit:4;stroke-dasharray:none" transform="translate(-10240, -11264)"/></svg>