<?xml version="1.0" encoding="UTF-8" standalone="no"?>
<svg
   xmlns:dc="http://purl.org/dc/elements/1.1/"
   xmlns:cc="http://creativecommons.org/ns#"
   xmlns:rdf="http://www.w3.org/1999/02/22-rdf-syntax-ns#"
   xmlns:svg="http://www.w3.org/2000/svg"
   xmlns="http://www.w3.org/2000/svg"
   xmlns:sodipodi="http://sodipodi.sourceforge.net/DTD/sodipodi-0.dtd"
   xmlns:inkscape="http://www.inkscape.org/namespaces/inkscape"
   width="1024"
   height="1024"
   id="U653E"
   version="1.1"
   inkscape:version="0.48.0 r9654"
   sodipodi:docname="U+653E.svg">
  <metadata
     id="metadata15">
    <rdf:RDF>
      <cc:Work
         rdf:about="">
        <dc:format>image/svg+xml</dc:format>
        <dc:type
           rdf:resource="http://purl.org/dc/dcmitype/StillImage" />
      </cc:Work>
    </rdf:RDF>
  </metadata>
  <defs
     id="defs13" />
  <sodipodi:namedview
     pagecolor="#ffffff"
     bordercolor="#666666"
     borderopacity="1"
     objecttolerance="10"
     gridtolerance="10"
     guidetolerance="10"
     inkscape:pageopacity="0"
     inkscape:pageshadow="2"
     inkscape:window-width="640"
     inkscape:window-height="480"
     id="namedview11"
     showgrid="false"
     inkscape:zoom="0.27441406"
     inkscape:cx="512"
     inkscape:cy="512"
     inkscape:window-x="0"
     inkscape:window-y="25"
     inkscape:window-maximized="0"
     inkscape:current-layer="U653E" />
  <path
     style="fill:#550000;fill-opacity:1;fill-rule:nonzero;stroke:#f9f9f9;stroke-width:0.1;stroke-miterlimit:4;stroke-dasharray:none"
     d="M 317.71875 209.5625 C 292.928 209.28183 243.2425 229.35625 247.875 243.125 C 257.8063 272.341 275.8162 296.89675 296.0625 319.71875 C 305.0683 329.33175 314.3247 338.688 323.25 348.375 C 335.8153 361.887 399.5028 302.637 386.9375 289.125 C 378.3117 279.92 369.51695 270.9125 360.78125 261.8125 C 348.22835 247.9545 336.3452 233.4665 330.9375 215.1875 C 329.6404 211.33225 324.66016 209.64109 317.71875 209.5625 z M 606.03125 229.1875 C 595.81612 229.35261 588.24272 231.60844 587.15625 236.71875 C 579.91255 280.44575 572.5125 324.134 564.625 367.75 C 559.99716 393.58754 554.92301 419.31921 549.53125 445 C 548.76539 446.22046 548.48314 447.69037 548.625 449.34375 C 540.45308 487.9931 531.56627 526.49886 522.3125 564.90625 C 514.53408 596.4325 516.35868 589.36776 511.40625 608.1875 C 511.34456 608.06149 511.28093 607.9384 511.21875 607.8125 C 507.10775 602.3915 503.6554 596.4025 498.875 591.5625 C 478.5988 571.0335 449.8312 566.8205 422.4375 569.6875 C 392.3228 574.5855 363.245 583.73 335.9375 597.5 C 324.80606 603.58214 313.94996 610.13284 303.65625 617.375 C 304.57485 602.64825 305.30012 587.91445 305.75 573.15625 C 306.50692 544.1072 306.88061 515.04873 306.65625 486 C 355.39101 474.87183 404.39162 464.99986 453.84375 457.625 C 457.97285 457.207 495.61165 452.232 497.21875 457.25 C 515.11935 461.966 537.3381 377.592 519.4375 372.875 C 493.0569 367.599 467.2077 367.96075 440.625 372.96875 C 380.1622 382.83875 320.21475 395.585 260.53125 409.375 C 216.09555 419.617 171.7717 430.30975 127.375 440.71875 C 109.4484 445.60775 132.5109 530.10775 150.4375 525.21875 C 173.74801 518.65813 197.16499 512.53982 220.65625 506.65625 C 220.97622 528.19969 220.77892 549.73482 220.40625 571.28125 C 218.98695 631.82625 212.4627 692.08725 205.1875 752.15625 C 200.4573 791.93725 194.0533 831.4675 188.875 871.1875 C 186.748 889.5265 273.1855 899.55775 275.3125 881.21875 C 279.2944 841.44175 285.37645 801.9175 289.78125 762.1875 C 292.12474 742.02128 294.38318 721.8238 296.46875 701.625 C 311.59941 710.89798 326.51886 716.08767 331.03125 709.8125 C 342.78495 693.6345 359.55295 683 376.96875 673.875 C 395.54715 665.148 415.1208 658.52375 435.5 655.84375 C 436.41551 655.75166 437.24397 655.70495 438.03125 655.6875 C 440.0834 679.59749 439.6766 704.43757 439.5625 728.625 C 438.9925 772.394 436.9756 816.116 435.9375 859.875 C 435.7268 876.351 435.59685 892.8385 435.28125 909.3125 C 435.21535 927.8505 522.6215 928.163 522.6875 909.625 C 522.4941 893.561 522.277 877.5025 522.25 861.4375 C 522.7724 817.4015 524.72285 773.404 525.59375 729.375 C 526.00279 696.71312 528.45659 662.79514 519.9375 631.21875 C 541.84622 643.5755 588.51338 651.89375 591.84375 638.8125 C 600.52565 603.7005 596.16415 621.7925 604.96875 584.5625 C 606.86998 576.46149 608.74795 568.35673 610.625 560.25 C 618.2109 587.10562 628.18888 613.23281 639.1875 638.96875 C 650.29809 663.70446 663.4423 687.28238 677.9375 710.03125 C 667.8815 727.99017 657.81194 745.93718 647.71875 763.875 C 620.12395 813.679 591.33165 862.80475 561.78125 911.46875 C 554.06125 924.16875 546.34425 936.867 538.71875 949.625 C 529.40655 965.555 604.53155 1009.4613 613.84375 993.53125 C 621.08915 980.83925 628.41935 968.1875 635.78125 955.5625 C 664.93405 905.7585 693.54825 855.64225 721.28125 805.03125 C 724.88709 798.55288 728.48921 792.07304 732.09375 785.59375 C 733.07192 786.84392 734.04958 788.09669 735.03125 789.34375 C 763.12995 823.58275 794.08715 855.378 826.40625 885.625 C 839.99115 898.05 898.55365 834.01875 884.96875 821.59375 C 855.34045 795.21475 827.4621 766.83375 802.0625 736.34375 C 793.68268 725.8039 785.42841 715.15964 777.4375 704.3125 C 797.6793 668.22489 818.06911 632.23422 838.875 596.46875 C 861.6805 557.99875 883.6486 517.987 914.0625 484.875 C 927.6543 472.225 868.0294 408.1625 854.4375 420.8125 C 818.3317 460.2375 792.48535 507.6955 765.84375 553.6875 C 752.66324 576.85051 739.58537 600.07804 726.53125 623.3125 C 723.54833 617.42578 720.67625 611.45049 717.96875 605.40625 C 703.99195 572.44925 691.924 538.686 687.1875 503 C 684.85713 491.25858 648.37639 494.13477 623.6875 502.5625 C 624.43213 499.19777 625.16865 495.835 625.90625 492.46875 C 643.40368 478.303 665.02758 469.73215 685.65625 461.21875 C 724.77705 445.78975 765.70905 435.945 807.15625 429.375 C 826.72135 427.373 817.61715 427.839 834.40625 427.625 C 852.79105 426.932 849.5099 340.2445 831.125 340.9375 C 806.4009 342.2645 819.0948 341.183 793.125 344.375 C 745.3501 352.522 698.11265 363.9305 652.90625 381.6875 C 651.34798 382.32829 649.77772 382.97807 648.21875 383.625 C 648.24027 383.51067 648.25975 383.39559 648.28125 383.28125 C 656.44695 340.48925 663.9944 297.56525 672.8125 254.90625 C 675.58903 241.84584 632.13659 228.76556 606.03125 229.1875 z M 438.53125 655.6875 C 447.40814 655.6497 447.50342 659.89569 438.53125 655.6875 z "
     id="path22883" />
</svg>
