<?xml version="1.0" encoding="UTF-8" standalone="no"?>
<svg
   xmlns:dc="http://purl.org/dc/elements/1.1/"
   xmlns:cc="http://creativecommons.org/ns#"
   xmlns:rdf="http://www.w3.org/1999/02/22-rdf-syntax-ns#"
   xmlns:svg="http://www.w3.org/2000/svg"
   xmlns="http://www.w3.org/2000/svg"
   xmlns:sodipodi="http://sodipodi.sourceforge.net/DTD/sodipodi-0.dtd"
   xmlns:inkscape="http://www.inkscape.org/namespaces/inkscape"
   width="1024"
   height="1024"
   id="U6574"
   version="1.1"
   inkscape:version="0.48.0 r9654"
   sodipodi:docname="U+6574.svg">
  <metadata
     id="metadata23">
    <rdf:RDF>
      <cc:Work
         rdf:about="">
        <dc:format>image/svg+xml</dc:format>
        <dc:type
           rdf:resource="http://purl.org/dc/dcmitype/StillImage" />
      </cc:Work>
    </rdf:RDF>
  </metadata>
  <defs
     id="defs21" />
  <sodipodi:namedview
     pagecolor="#ffffff"
     bordercolor="#666666"
     borderopacity="1"
     objecttolerance="10"
     gridtolerance="10"
     guidetolerance="10"
     inkscape:pageopacity="0"
     inkscape:pageshadow="2"
     inkscape:window-width="640"
     inkscape:window-height="480"
     id="namedview19"
     showgrid="false"
     inkscape:zoom="0.27441406"
     inkscape:cx="512"
     inkscape:cy="512"
     inkscape:window-x="0"
     inkscape:window-y="25"
     inkscape:window-maximized="0"
     inkscape:current-layer="U6574" />
  <path
     style="fill:#2b1100;fill-opacity:1;fill-rule:nonzero;stroke:none"
     d="M 282.21875 91.53125 C 258.80646 91.474345 233.97765 96.753031 234.21875 106.71875 C 234.5428 120.83093 235.02236 134.93195 235.59375 149.03125 C 217.99907 150.05835 200.40678 151.07601 182.8125 152.09375 C 139.66434 155.29475 96.63655 159.7245 53.5625 163.6875 C 34.854607 164.8995 40.573357 253.086 59.28125 251.875 C 102.56241 246.217 145.92639 241.48 189.4375 238 C 206.34293 236.91249 223.24225 235.89876 240.15625 234.9375 C 240.71811 244.73887 241.21796 254.53861 241.65625 264.34375 C 240.19765 264.30116 238.74033 264.25178 237.28125 264.21875 C 206.74803 264.79575 176.35398 267.387 146.59375 274.625 C 128.48077 279.55 151.69952 364.926 169.8125 360 C 192.34659 353.895 215.56389 351.984 238.8125 351.625 C 240.56357 351.67771 242.31207 351.74662 244.0625 351.8125 C 244.27455 370.5298 244.31552 389.24841 244.1875 407.96875 C 236.91525 409.2942 229.64125 410.77307 222.40625 412.4375 C 206.56572 416.14515 190.83933 420.20128 175.15625 424.4375 C 170.049 416.54031 167.83869 406.72386 163.8125 398.375 C 154.75492 373.586 145.47028 348.69075 141.46875 322.46875 C 138.2669 303.98575 51.141898 319.0795 54.34375 337.5625 C 60.353744 368.6095 70.824027 398.428 81.4375 428.125 C 85.134745 438.80136 89.448274 449.20417 94.375 459.3125 C 93.04707 484.60494 109.65546 534.29752 123.59375 530.59375 C 131.31616 528.10238 139.04295 525.63986 146.78125 523.21875 C 143.11694 527.79738 139.54266 532.45752 136.03125 537.15625 C 116.24983 562.58425 100.66357 590.443 91.28125 621.25 C 86.589575 634.976 87.582441 648.15925 89 662.28125 C 92.161686 679.3568 166.84845 666.86265 175.34375 650.28125 C 175.38946 649.04262 175.57667 646.83312 176 645.21875 C 180.84014 624.24775 193.7196 606.445 206.28125 589.375 C 216.62626 575.35414 227.26484 560.75122 242.25 551.5 C 242.657 574.18039 243.45236 596.85515 244.53125 619.53125 C 247.35147 616.35225 242.05117 653.56425 242.625 645.90625 C 239.37277 656.20633 265.83074 669.3852 290.0625 675.375 C 274.69678 676.43549 259.35198 677.7316 244.03125 679.40625 C 225.36205 681.42425 234.86204 769.42425 253.53125 767.40625 C 288.62446 762.05625 324.11842 760.1195 359.53125 758.3125 C 388.81236 757.09844 418.08575 755.79472 447.34375 754.1875 C 443.75212 780.31535 441.96226 806.60933 440.90625 833 C 440.83746 871.00975 442.42944 909.03513 444.84375 946.96875 C 418.91222 949.12424 393.02221 951.48289 367.125 954.03125 C 366.41796 943.29568 365.82589 932.56426 365.375 921.8125 C 363.51896 892.5985 361.84791 863.356 358.625 834.25 C 356.41357 815.611 268.56982 826.0475 270.78125 844.6875 C 274.98842 872.0965 276.34963 899.77125 278.15625 927.40625 C 278.68175 939.51736 279.34889 951.62044 280.09375 963.71875 C 255.26695 966.78351 230.39076 969.57876 205.40625 970.21875 C 186.64491 970.06975 185.95741 1058.5072 204.71875 1058.6562 C 246.60233 1056.5853 288.05128 1049.684 329.625 1044.5 C 393.14477 1037.12 456.84091 1031.315 520.65625 1027.25 C 573.65334 1024.006 626.73565 1025.6645 679.78125 1025.9375 C 712.58001 1025.8875 745.3886 1024.6168 778.1875 1024.8438 C 779.02943 1023.7705 783.34142 1024.2396 787.0625 1024.875 C 788.2583 1025.0792 789.2959 1025.2703 790.21875 1025.4688 C 808.33898 1024.1854 843.16996 954.16884 827.46875 946.09375 C 811.26578 939.46775 795.67458 935.446 777.96875 937 C 745.25062 937.35 712.56012 938.641 679.84375 939.125 C 630.53229 939.34052 581.17615 938.36764 531.90625 940.75 C 531.45137 934.9558 531.01362 929.14364 530.625 923.34375 C 530.76117 923.31248 530.89597 923.29144 531.03125 923.25 C 556.20737 914.909 582.27289 909.98075 608.46875 906.21875 C 624.75876 904.15075 641.71212 902.94275 657.65625 906.34375 C 675.97163 910.48275 695.47163 824.139 677.15625 820 C 650.23945 815.032 622.86334 815.79475 595.8125 819.71875 C 572.99667 823.11607 550.28482 827.21539 527.875 832.625 C 529.26691 804.21452 531.57118 775.88549 537.78125 748.0625 C 579.80741 744.40244 621.5945 738.52143 663.40625 733 C 687.65759 730.084 712.02592 726.84525 736.5 727.03125 C 737.2936 726.99228 737.98576 726.96924 738.625 726.96875 C 738.27155 726.8096 737.90753 726.6455 737.53125 726.4375 C 734.08923 724.53524 730.93856 722.14168 727.71875 719.875 C 742.06646 725.65402 787.3468 685.01977 791.75 665.28125 C 806.56131 680.02666 822.2563 693.85263 839.15625 706.34375 C 843.12045 708.88575 847.0983 711.42675 851.0625 713.96875 C 866.9406 723.76975 913.1281 648.926 897.25 639.125 C 894.94345 637.796 892.65031 636.454 890.34375 635.125 C 861.96187 615.616 838.89413 589.87825 816.53125 563.90625 C 799.56271 543.4062 783.23956 522.40204 767.3125 501.125 C 792.65394 467.72177 817.357 433.81531 840.90625 399.125 C 862.87799 365.099 884.75661 330.7765 901.78125 293.9375 C 905.72886 283.50478 878.11697 268.19382 853.65625 261.1875 C 862.56936 259.70447 871.49682 258.29452 880.4375 256.96875 C 897.76922 254.40475 915.19041 252.86525 932.6875 252.15625 C 951.32957 251.09325 946.32957 163.187 927.6875 164.25 C 907.43558 165.671 887.22314 167.737 867.15625 170.875 C 822.03778 178.065 777.22583 186.89425 732.59375 196.65625 C 700.26375 203.49574 667.87931 210.11559 635.15625 214.8125 C 641.82525 203.72263 649.51723 193.33281 659.46875 184.9375 C 673.88126 172.8985 617.10001 104.961 602.6875 117 C 576.02737 140.008 559.0553 170.83175 543.25 201.71875 C 521.67203 244.37175 507.22868 289.94575 494.4375 335.84375 C 488.99176 357.16375 491.34683 346.668 487.34375 367.375 C 484.12428 385.721 570.59303 400.87725 573.8125 382.53125 C 575.93583 368.09925 574.49651 376.1145 578.59375 358.5625 C 589.06343 318.3845 601.33636 278.53775 620.65625 241.59375 C 621.86674 239.26675 623.09249 236.93956 624.3125 234.59375 C 623.29261 261.01881 635.12555 304.67882 648.3125 302.28125 C 682.62151 295.94925 716.76197 288.92375 750.84375 281.46875 C 772.71847 276.52993 794.66378 271.92612 816.6875 267.75 C 802.98903 297.35066 785.49245 325.06795 768.09375 352.59375 C 750.9047 378.40791 732.92476 403.66598 714.4375 428.5625 C 691.44026 398.45355 667.35364 369.26277 640.34375 342.59375 C 627.65332 328.78775 562.59082 388.60025 575.28125 402.40625 C 603.43674 427.98925 627.52366 457.259 650.59375 487.375 C 653.57571 491.53672 656.57172 495.68986 659.5625 499.84375 C 629.83087 536.5226 598.21472 571.61314 567.1875 607.1875 C 554.54831 620.0915 545.03405 635.94075 532.84375 649.09375 C 530.31234 651.80375 530.83171 656.33045 533.34375 661.75 C 528.90494 662.16178 524.47676 662.5848 520.03125 662.9375 C 503.2946 664.29289 486.5352 665.46784 469.78125 666.53125 C 488.08948 649.25834 510.23397 601.59795 497.5625 594.71875 C 471.80952 581.31075 444.25967 572.102 417.78125 560.25 C 392.51985 549.143 367.27016 537.8205 343.3125 524.0625 C 339.22334 521.86636 333.60823 524.9951 327.6875 531.0625 C 327.39066 516.08426 327.32775 501.11343 327.5625 486.125 C 335.68592 485.94065 343.82854 485.94913 351.96875 486.1875 C 352.32995 504.00256 433.10165 524.46314 437.6875 506.84375 C 438.51855 503.49058 439.37159 500.16143 440.21875 496.8125 C 442.84429 497.25053 445.46915 497.6849 448.09375 498.125 C 453.99413 499.297 451.38483 498.72925 455.96875 499.78125 C 474.4465 503.34225 491.22775 416.21725 472.75 412.65625 C 467.77764 411.81604 467.29922 411.74974 464.84375 411.375 C 469.6065 395.35595 473.35977 379.11798 473.90625 362.28125 C 472.20134 325.83725 460.94284 299.702 425.375 285 C 398.89564 276.201 371.38236 273.157 343.59375 271.5 C 338.24123 271.08106 332.88301 270.63631 327.53125 270.1875 C 327.11407 257.05852 326.61494 243.93777 326.03125 230.8125 C 333.92058 230.51447 341.79627 230.24559 349.6875 230 C 380.42402 229.104 411.22794 229.559 441.5 235.25 C 449.60978 238.46889 460.55369 238.44888 467.96875 243.5625 C 485.68754 245.86404 523.24388 172.72482 507.1875 164.3125 C 491.16782 156.7995 474.00308 152.132 456.65625 148.75 C 420.27492 142.699 383.45337 141.79175 346.625 143.34375 C 338.65941 143.65788 330.71323 143.97903 322.75 144.34375 C 322.51148 131.08924 322.45016 117.8549 322.65625 104.59375 C 322.44352 95.800469 302.87665 91.58146 282.21875 91.53125 z M 467.96875 243.5625 C 467.85181 243.54731 467.74019 243.55305 467.625 243.53125 C 468.00867 243.66987 468.25146 243.76795 468 243.59375 C 467.98824 243.58561 467.98052 243.57062 467.96875 243.5625 z M 738.625 726.96875 C 743.49966 729.16369 745.92111 726.96319 738.625 726.96875 z M 790.21875 1025.4688 C 790.08941 1025.4779 789.97137 1025.4979 789.84375 1025.5 C 793.55794 1026.3159 792.80793 1026.0255 790.21875 1025.4688 z M 789.84375 1025.5 C 789.03832 1025.3231 788.33961 1025.1725 787.0625 1024.875 C 787.93177 1025.3035 788.85898 1025.5163 789.84375 1025.5 z M 175.34375 650.28125 C 175.30046 651.45427 175.39558 651.65482 175.65625 649.59375 C 175.56545 649.82104 175.45946 650.05541 175.34375 650.28125 z M 175.65625 649.59375 C 176.10674 648.46608 176.2449 647.31012 176.03125 646.15625 C 175.88708 647.74789 175.75783 648.79058 175.65625 649.59375 z M 465.96875 242.96875 C 466.41305 243.20153 466.89748 243.35695 467.375 243.46875 C 466.89625 243.28744 466.28409 243.06958 465.96875 242.96875 z M 329.1875 358 C 331.67707 358.20835 334.16656 358.42376 336.65625 358.625 C 352.6482 360.91307 369.78592 360.46007 385.59375 364.65625 C 383.72187 376.8095 380.2728 388.64935 376.46875 400.375 C 360.70835 399.53067 344.93619 399.23339 329.21875 399.5625 C 329.27649 385.70854 329.27643 371.85292 329.1875 358 z M 392.65625 366.875 C 393.67886 367.26003 394.7122 367.65501 395.71875 368.09375 C 396.07578 370.89059 394.57157 369.18216 392.65625 366.875 z M 242.09375 496.59375 C 242.03796 500.33221 242.02826 504.07421 242 507.8125 C 240.46976 504.43389 238.79834 501.06819 237.03125 497.8125 C 238.7192 497.40418 240.40319 496.99356 242.09375 496.59375 z M 712.21875 571.21875 C 724.47596 587.27545 736.97869 603.15856 749.78125 618.8125 C 757.48193 628.15198 765.38868 637.30713 773.53125 646.21875 C 762.57717 640.19221 752.66627 638.41164 735.5 638.84375 C 707.38055 639.50075 679.4029 642.737 651.5625 646.625 C 650.25003 646.81148 648.93744 647.00047 647.625 647.1875 C 669.20892 621.91358 691.01809 596.81364 712.21875 571.21875 z M 331.8125 617.125 C 348.61622 625.15697 365.62287 632.78178 382.6875 640.25 C 403.68472 650.86235 426.87677 657.12536 447.8125 667.84375 C 417.08145 669.58374 386.33286 670.91721 355.5625 671.9375 C 346.07656 672.32806 336.57591 672.75347 327.09375 673.21875 C 327.17353 673.03456 327.25105 672.85086 327.3125 672.65625 C 332.06544 654.50613 333.08857 635.81631 331.8125 617.125 z "
     id="path14651" />
</svg>
