<?xml version="1.0" encoding="UTF-8" standalone="no"?>
<svg
   xmlns:dc="http://purl.org/dc/elements/1.1/"
   xmlns:cc="http://creativecommons.org/ns#"
   xmlns:rdf="http://www.w3.org/1999/02/22-rdf-syntax-ns#"
   xmlns:svg="http://www.w3.org/2000/svg"
   xmlns="http://www.w3.org/2000/svg"
   xmlns:sodipodi="http://sodipodi.sourceforge.net/DTD/sodipodi-0.dtd"
   xmlns:inkscape="http://www.inkscape.org/namespaces/inkscape"
   width="1024"
   height="1024"
   id="U6562"
   version="1.1"
   inkscape:version="0.48.0 r9654"
   sodipodi:docname="U+6562.svg">
  <metadata
     id="metadata18">
    <rdf:RDF>
      <cc:Work
         rdf:about="">
        <dc:format>image/svg+xml</dc:format>
        <dc:type
           rdf:resource="http://purl.org/dc/dcmitype/StillImage" />
      </cc:Work>
    </rdf:RDF>
  </metadata>
  <defs
     id="defs16" />
  <sodipodi:namedview
     pagecolor="#ffffff"
     bordercolor="#666666"
     borderopacity="1"
     objecttolerance="10"
     gridtolerance="10"
     guidetolerance="10"
     inkscape:pageopacity="0"
     inkscape:pageshadow="2"
     inkscape:window-width="640"
     inkscape:window-height="480"
     id="namedview14"
     showgrid="false"
     inkscape:zoom="0.27441406"
     inkscape:cx="512"
     inkscape:cy="512"
     inkscape:window-x="0"
     inkscape:window-y="25"
     inkscape:window-maximized="0"
     inkscape:current-layer="U6562" />
  <path
     style="fill:#550000;fill-opacity:1;fill-rule:nonzero;stroke:#f9f9f9;stroke-width:0.1;stroke-miterlimit:4;stroke-dasharray:none"
     d="M 353.9375 90.9375 C 338.0367 90.9025 321.88458 93.217688 306.59375 94.40625 C 275.30355 98.42825 244.014 102.5935 212.9375 108.0625 C 194.7491 111.8835 212.78045 197.6335 230.96875 193.8125 C 259.57365 187.6535 288.624 183.858 317.625 180.125 C 324.69085 179.51161 331.81038 178.66909 338.9375 178.1875 C 325.9077 202.16076 310.49987 224.7567 295.28125 247.375 C 290.50305 254.47995 303.57002 268.7694 319.90625 280.46875 C 282.10456 287.22523 244.60027 295.59486 207.46875 305.59375 C 160.03395 318.69575 111.7888 331.62775 67.9375 354.46875 C 52.2992 364.52175 99.6742 438.2405 115.3125 428.1875 C 128.87352 421.15605 142.96632 415.2414 157.3125 410 C 163.95213 450.94576 170.65906 491.88017 176.625 532.9375 C 186.3888 606.8595 193.00495 681.14575 201.46875 755.21875 C 202.57326 763.28693 203.15249 767.67032 203.71875 771.90625 C 182.08858 782.16328 161.04288 793.49426 141.1875 806.9375 C 126.572 818.4325 180.7595 887.33875 195.375 875.84375 C 232.452 849.67775 275.3452 832.97 317 815.625 C 340.1569 806.3986 363.4583 797.53764 386.78125 788.75 C 388.22308 805.64803 389.83939 822.53044 391.53125 839.40625 C 393.52995 857.55525 479.09255 848.149 477.09375 830 C 474.18852 805.88488 471.52215 781.73176 469.46875 757.53125 C 481.4655 752.93773 493.46257 748.32775 505.40625 743.59375 C 512.88525 740.50575 520.36475 737.4005 527.84375 734.3125 C 544.61135 727.2165 511.1427 648.18525 494.375 655.28125 C 487.3767 658.32025 480.40465 661.336 473.40625 664.375 C 470.25956 665.67291 467.09003 666.96736 463.9375 668.25 C 460.83954 609.45492 458.30421 550.62453 456.375 491.78125 C 455.09136 444.68505 454.19919 397.58269 454.15625 350.46875 C 471.69267 349.88589 490.47682 350.51267 498.46875 357.40625 C 515.52775 364.47025 548.84025 284.03275 531.78125 276.96875 C 492.20175 262.94775 456.1413 263.15075 414.5 266.96875 C 404.33925 268.05224 394.19123 269.28196 384.0625 270.59375 C 396.05375 252.39387 407.64801 233.91908 417.84375 214.65625 C 431.25765 185.50025 442.89735 152.508 423.46875 122.5 C 419.30095 116.063 412.8253 111.4555 407.5 105.9375 C 401.685 102.9305 396.1596 99.3215 390.0625 96.9375 C 378.52291 92.426 366.30479 90.964722 353.9375 90.9375 z M 606 101.59375 C 595.80048 101.86889 588.24866 104.19712 587.21875 109.3125 C 578.19945 161.1045 566.232 212.317 554.3125 263.5 C 537.1881 337.227 515.56485 409.78075 495.90625 482.84375 C 494.8087 487.03793 498.75506 491.43274 505.40625 495.5 C 504.95223 497.10479 504.99448 498.61533 505.625 500 C 523.8825 539.447 550.5892 573.552 578.5 606.5 C 600.69979 631.24544 623.64396 655.28462 647 678.9375 C 626.44823 717.43816 602.67087 754.06076 574.375 787.625 C 561.0612 803.238 545.8053 813.37675 527.125 820.84375 C 510.6556 828.64575 547.43685 906.27175 563.90625 898.46875 C 594.28595 882.96075 617.6825 868.677 639.875 841.75 C 665.83338 809.79195 688.76854 775.84079 709.09375 740.34375 C 711.14688 742.34052 713.19526 744.349 715.25 746.34375 C 761.2545 791.11175 810.33625 832.5395 860.96875 871.9375 C 883.80385 889.6815 907.61785 906.04475 931.65625 922.09375 C 947.02575 932.14275 994.40075 859.70525 979.03125 849.65625 C 956.56075 835.29725 934.34875 820.49625 913.15625 804.28125 C 864.75695 767.25225 818.0002 728.07025 774.3125 685.53125 C 765.94073 677.39272 757.60533 669.22313 749.28125 661.03125 C 753.06276 652.57129 756.72981 644.04927 760.28125 635.46875 C 790.00705 562.97875 816.59245 489.19475 834.71875 412.84375 C 842.58224 380.93711 849.8638 348.86719 858 317.03125 C 868.40631 297.67611 865.523 236.54759 850.125 236.65625 C 805.0448 237.45225 760.31435 242.7795 716.09375 251.6875 C 690.53603 256.86835 665.03786 262.43591 639.8125 269.03125 C 651.28324 221.63968 662.57705 174.20521 672.96875 126.5625 C 675.60074 113.48987 632.06544 100.89061 606 101.59375 z M 358.4375 178.28125 C 361.61097 178.72923 367.44607 180.08914 365.09375 180.5625 C 363.65095 180.8535 362.2013 180.08975 360.75 179.84375 C 359.92225 179.32949 359.16511 178.80144 358.4375 178.28125 z M 766.15625 329.4375 C 761.45718 350.62295 756.71492 371.80228 751.78125 392.9375 C 736.05134 462.77592 712.31388 530.24586 685.46875 596.46875 C 671.36628 581.6692 657.48498 566.66213 643.90625 551.375 C 622.38826 525.69189 601.21077 499.37309 587.46875 468.59375 C 596.44349 434.71063 605.75799 400.91627 614.84375 367.0625 C 653.04898 352.43699 693.1194 343.4097 733.125 335.21875 C 744.10113 333.0467 755.11098 331.12035 766.15625 329.4375 z M 367.375 358.46875 C 368.80855 396.74986 369.87866 435.05688 371.1875 473.34375 C 366.99747 463.5455 361.87568 457.00325 356.625 458.03125 L 336.75 462.125 C 309.26398 469.75923 282.23051 478.94322 256.0625 490.25 C 250.9768 455.01462 245.62124 419.8123 241.15625 384.5 C 282.71886 373.40217 324.86004 364.70369 367.375 358.46875 z M 373.96875 542.71875 C 374.53759 556.15674 375.101 569.59395 375.6875 583.03125 C 373.16407 579.11847 370.29807 576.92619 367.1875 577.28125 C 360.4638 578.13425 353.75495 578.99075 347.03125 579.84375 C 320.60073 585.65883 294.81603 593.60257 269.96875 604.09375 C 268.96963 594.87737 267.99963 585.68166 266.96875 576.46875 C 270.1412 578.34661 273.02835 578.89477 275.40625 577.625 C 301.94455 563.344 330.3812 553.13225 359.4375 545.40625 L 373.25 542.90625 C 373.49834 542.85764 373.7335 542.79787 373.96875 542.71875 z M 379.3125 662.5 C 379.91526 675.16929 380.52181 687.83231 381.15625 700.5 C 348.98802 712.69307 316.7767 724.76747 284.75 737.34375 C 284.72851 737.35251 284.70899 737.36624 284.6875 737.375 C 282.94041 722.82563 281.27351 708.25104 279.65625 693.6875 C 281.58096 694.32629 283.3585 694.32698 284.9375 693.53125 C 310.0225 679.69625 336.9759 670.05525 365 664.40625 L 377 663.28125 C 377.83165 663.18632 378.59558 662.92732 379.3125 662.5 z "
     id="path23483" />
</svg>
