<?xml version="1.0" encoding="utf-8" ?>

<!DOCTYPE svg PUBLIC "-//W3C//DTD SVG 1.1//EN" 
  "http://www.w3.org/Graphics/SVG/1.1/DTD/svg11.dtd">
<svg 
    xmlns="http://www.w3.org/2000/svg"
    xmlns:xlink="http://www.w3.org/1999/xlink"
    xmlns:sodipodi="http://sodipodi.sourceforge.net/DTD/sodipodi-0.dtd"
    xmlns:inkscape="http://www.inkscape.org/namespaces/inkscape"
    width="1024" height="1024" id="U6587">
<path d="m 10716.683,51401.87 c 12.006,23.144 26.734,44.704 41.838,65.901 2.767,3.732 5.534,7.464 8.301,11.195 11.003,14.962 -59.525,66.834 -70.529,51.873 l 0,0 c -3.02,-4.137 -6.041,-8.274 -9.062,-12.411 -17.064,-24.076 -33.541,-48.571 -48.242,-74.179 -8.99,-16.482 68.704,-58.86 77.694,-42.379 z" id="path12940" inkscape:connector-curvature="0" style="fill:#501616;fill-opacity:1;fill-rule:nonzero;stroke:#f9f9f9;stroke-width:0.1;stroke-miterlimit:4;stroke-dasharray:none" transform="translate(-10240, -51200)"/><path d="m 10422.908,51629.281 c 39.796,-3.517 79.438,-8.619 119.112,-13.288 71.886,-8.529 144.008,-14.811 216.201,-20.032 68.996,-4.601 138.074,-7.94 207.187,-10.111 43.12,-1.346 86.28,-0.573 129.256,3.203 15.64,1.896 8.191,0.81 22.357,3.167 18.405,3.426 2.256,90.185 -16.148,86.759 l 0,0 c -8.772,-1.935 -3.83,-0.973 -14.862,-2.683 -39.241,-4.419 -78.754,-5.425 -118.223,-4.563 -67.861,1.622 -135.692,4.607 -203.428,9.06 -70.758,5.124 -141.435,11.502 -211.81,20.567 -40.158,5.184 -80.286,10.595 -120.417,15.978 -18.68,1.957 -27.905,-86.1 -9.225,-88.057 z" id="path12942" inkscape:connector-curvature="0" style="fill:#501616;fill-opacity:1;fill-rule:nonzero;stroke:#f9f9f9;stroke-width:0.1;stroke-miterlimit:4;stroke-dasharray:none" transform="translate(-10240, -51200)"/><path d="m 10947.057,51687.409 c -21.74,30.978 -43.083,62.227 -65.048,93.049 -35.448,50.076 -74.158,97.644 -114.9,143.471 -45.48,50.749 -97.924,94.269 -151.836,135.649 -46.403,35.041 -95.367,66.565 -148.834,89.588 -27.284,8.718 -13.439,5.404 -41.526,9.984 -18.433,2.357 -29.544,-84.537 -11.111,-86.894 l 0,0 c 11.265,-0.267 4.81,0.436 19.187,-3.362 47.17,-18.778 89.551,-47.135 130.262,-77.175 49.666,-38.025 97.824,-78.178 139.709,-124.856 38.623,-43.389 75.323,-88.443 108.513,-136.167 21.466,-30.75 42.427,-61.844 62.673,-93.413 10.634,-15.467 83.545,34.659 72.911,50.126 z" id="path12944" inkscape:connector-curvature="0" style="fill:#501616;fill-opacity:1;fill-rule:nonzero;stroke:#f9f9f9;stroke-width:0.1;stroke-miterlimit:4;stroke-dasharray:none" transform="translate(-10240, -51200)"/><path d="m 10505.856,51771.785 c 30.071,22.473 62.087,42.04 94.545,60.819 55.766,30.844 113.241,58.459 170.411,86.569 54.224,26.482 108.759,52.32 163.535,77.637 45.673,21.373 92.201,40.825 138.994,59.589 20.599,8.336 41.51,15.76 63.05,21.219 17.934,4.843 -4.895,89.386 -22.829,84.543 l 0,0 c -24.757,-6.985 -48.985,-15.499 -72.728,-25.434 -48.003,-19.598 -95.806,-39.722 -142.736,-61.792 -55.295,-25.754 -110.299,-52.128 -165.059,-79.004 -58.753,-28.938 -117.862,-57.242 -175.441,-88.481 -34.681,-19.621 -68.769,-40.188 -101.71,-62.635 -15.492,-10.6 34.476,-83.629 49.968,-73.03 z" id="path12946" inkscape:connector-curvature="0" style="fill:#501616;fill-opacity:1;fill-rule:nonzero;stroke:#f9f9f9;stroke-width:0.1;stroke-miterlimit:4;stroke-dasharray:none" transform="translate(-10240, -51200)"/></svg>