<?xml version="1.0" encoding="UTF-8" standalone="no"?>
<svg
   xmlns:dc="http://purl.org/dc/elements/1.1/"
   xmlns:cc="http://creativecommons.org/ns#"
   xmlns:rdf="http://www.w3.org/1999/02/22-rdf-syntax-ns#"
   xmlns:svg="http://www.w3.org/2000/svg"
   xmlns="http://www.w3.org/2000/svg"
   xmlns:sodipodi="http://sodipodi.sourceforge.net/DTD/sodipodi-0.dtd"
   xmlns:inkscape="http://www.inkscape.org/namespaces/inkscape"
   width="1024"
   height="1024"
   id="U661F"
   version="1.1"
   inkscape:version="0.48.0 r9654"
   sodipodi:docname="U+661F.svg">
  <metadata
     id="metadata17">
    <rdf:RDF>
      <cc:Work
         rdf:about="">
        <dc:format>image/svg+xml</dc:format>
        <dc:type
           rdf:resource="http://purl.org/dc/dcmitype/StillImage" />
      </cc:Work>
    </rdf:RDF>
  </metadata>
  <defs
     id="defs15" />
  <sodipodi:namedview
     pagecolor="#ffffff"
     bordercolor="#666666"
     borderopacity="1"
     objecttolerance="10"
     gridtolerance="10"
     guidetolerance="10"
     inkscape:pageopacity="0"
     inkscape:pageshadow="2"
     inkscape:window-width="640"
     inkscape:window-height="480"
     id="namedview13"
     showgrid="false"
     inkscape:zoom="0.27441406"
     inkscape:cx="512"
     inkscape:cy="512"
     inkscape:window-x="0"
     inkscape:window-y="25"
     inkscape:window-maximized="0"
     inkscape:current-layer="U661F" />
  <path
     style="fill:#916f6f;fill-opacity:1;fill-rule:nonzero;stroke:#f9f9f9;stroke-width:0.1;stroke-miterlimit:4;stroke-dasharray:none"
     d="M 603.96875 201.65625 C 597.07443 201.68552 590.16699 201.86406 583.25 202.1875 C 530.8125 204.1625 478.55805 208.861 426.59375 216.25 C 387.39075 221.399 348.21165 226.7455 309.03125 232.0625 C 301.18332 233.24283 299.02056 249.56976 300.53125 267.8125 C 297.96741 258.58028 295.32421 249.35482 292.53125 240.1875 C 286.68915 222.3535 202.5954 249.916 208.4375 267.75 C 219.8149 300.118 227.92975 333.5195 236.59375 366.6875 C 245.43865 400.9915 254.446 435.243 264.375 469.25 C 265.457 472.682 266.543 476.1305 267.625 479.5625 C 272.80005 495.25396 338.78816 475.49103 349.96875 458.4375 C 382.3083 451.00056 415.06894 445.58993 447.8125 440.28125 C 489.6734 433.38325 531.8182 428.616 574.1875 426.5 C 590.1038 426.175 582.7982 426.05775 596.125 426.59375 C 614.7769 426.92575 616.3393 339.0185 597.6875 338.6875 C 579.1409 338.6365 588.7014 338.4635 569 339.3125 C 523.8545 342.3835 478.90775 347.65725 434.21875 354.78125 C 398.7254 360.29852 363.28512 366.07879 328 372.8125 C 325.51356 363.5042 323.05452 354.17638 320.65625 344.84375 C 317.86874 334.06295 315.14568 323.25679 312.375 312.46875 C 315.33113 317.26421 318.65953 319.99936 322.1875 319.46875 C 360.6705 312.60975 399.4065 307.2705 438.125 301.9375 C 487.1989 294.6955 536.58545 290.314 586.15625 288.875 C 611.23555 289.545 638.63705 286.54375 662.28125 296.84375 C 662.67055 297.35375 663.7495 297.814 663.4375 298.375 C 662.7232 299.658 660.6553 297.27875 659.1875 297.21875 C 657.543 297.14875 658.5633 301.97725 658.875 309.90625 C 658.5385 342.37025 652.3298 374.4435 646.0625 406.1875 C 640.5104 429.6515 636.25475 453.627 627.71875 476.25 C 621.61665 493.88 704.74165 522.66125 710.84375 505.03125 C 719.63425 478.21625 725.5498 450.60925 731.4375 423.03125 C 739.1343 383.96025 746.77705 344.45475 746.46875 304.46875 C 743.46785 262.96575 732.5639 232.08425 692 214.03125 C 663.43039 204.54531 633.84414 201.5294 603.96875 201.65625 z M 587.4375 451.5 C 572.77305 451.40303 558.12031 452.08437 543.46875 453.21875 C 496.07605 457.69275 449.05695 465.3275 402.96875 477.4375 C 365.31115 487.4905 327.78135 498.0915 291.21875 511.6875 C 273.74205 518.5725 306.17965 600.9475 323.65625 594.0625 C 356.56035 580.0675 391.0633 570.39825 425.5 561.03125 C 431.86721 559.34793 438.24955 557.76592 444.65625 556.28125 C 442.91885 581.42991 442.19798 606.6587 441.78125 631.875 C 421.75459 635.05259 401.78715 638.49037 381.84375 642.21875 C 355.53895 646.71442 329.13257 650.71068 302.8125 655.125 C 299.47672 637.53828 221.74388 617.93527 217.1875 635.21875 C 209.4171 668.51975 204.12205 702.288 199.34375 736.125 C 195.08735 766.218 192.8272 796.5545 193 826.9375 C 193.3434 845.5575 281.12475 843.9325 280.78125 825.3125 C 279.84205 799.5895 282.0126 773.89025 285.5 748.40625 C 285.54339 748.10423 285.58155 747.80203 285.625 747.5 C 322.40501 739.36082 359.72016 733.71461 396.78125 726.96875 C 411.47449 724.07112 426.21498 721.38654 440.96875 718.875 C 440.86385 733.31219 440.74454 747.75096 440.59375 762.1875 C 417.70939 764.32799 394.76296 766.12227 371.78125 766.3125 C 353.01845 766.7815 355.2372 855.219 374 854.75 C 395.7786 853.67116 417.515 851.83229 439.21875 849.75 C 439.11524 854.51238 439.02147 859.269 438.90625 864.03125 C 437.98107 890.71859 438.05746 889.142 437.4375 902.9375 C 424.14636 904.29551 410.84386 905.70296 397.5625 907.1875 C 350.0594 911.9505 302.5283 916.956 254.8125 919 C 236.0997 919.862 240.1622 1008.0808 258.875 1007.2188 C 308.156 1003.1128 357.31125 997.75525 406.46875 992.40625 C 475.27915 984.22025 544.2903 978.04825 613.5625 976.03125 C 658.1385 975.41925 702.7786 977.53775 747 983.21875 C 761.1814 985.61175 754.4366 984.39825 767.125 986.90625 C 785.5015 990.22925 801.1891 903.60425 782.8125 900.28125 C 766.6582 897.57425 775.2072 898.88775 757.0625 896.34375 C 708.4875 891.21275 659.62045 889.29325 610.78125 890.40625 C 581.92756 891.4326 553.11652 893.06473 524.34375 895.1875 C 524.47937 890.02333 524.59852 885.59273 525.03125 865.71875 C 525.14909 857.67396 525.24713 849.60748 525.34375 841.5625 C 543.2507 840.08936 561.17729 838.81659 579.125 837.875 C 597.7432 836.66 591.9932 748.91 573.375 750.125 C 557.62088 751.34738 541.89276 752.68298 526.15625 754.09375 C 526.2877 738.17517 526.43374 722.26202 526.59375 706.34375 C 546.11877 703.94397 565.68645 701.84269 585.28125 700 C 620.57255 698.403 656.32375 692.61725 691.65625 696.53125 C 710.26085 697.99625 717.167 610.2775 698.5625 608.8125 C 657.9429 606.3595 617.36345 611.18025 576.90625 614.40625 C 560.64331 616.05402 544.40984 617.84926 528.1875 619.8125 C 529.05117 593.64975 530.57835 567.51658 534.125 541.59375 C 539.78769 541.01536 545.44808 540.49214 551.125 540.03125 C 569.3145 539.18825 587.59455 538.2615 605.71875 540.4375 C 624.35775 542.1605 632.48275 454.2855 613.84375 452.5625 C 605.05101 451.88863 596.23617 451.55818 587.4375 451.5 z M 1496.9375 483.78125 C 1452.3294 486.10925 1407.8391 490.45375 1363.5 495.84375 C 1289.6022 504.87475 1215.965 515.69825 1142.1562 525.40625 C 1097.4322 530.88625 1052.6193 535.59125 1007.7812 540.03125 C 989.21315 542.72625 1001.9319 630.2575 1020.5 627.5625 C 1064.6127 621.3525 1108.9027 616.394 1153.0625 610.5 C 1226.5401 600.096 1299.941 589.20375 1373.6562 580.59375 C 1415.7998 575.75575 1458.09 572.10125 1500.5 570.90625 C 1518.9836 570.15025 1515.4211 483.02525 1496.9375 483.78125 z "
     id="path12415" />
</svg>
