<?xml version="1.0" encoding="UTF-8" standalone="no"?>
<svg
   xmlns:dc="http://purl.org/dc/elements/1.1/"
   xmlns:cc="http://creativecommons.org/ns#"
   xmlns:rdf="http://www.w3.org/1999/02/22-rdf-syntax-ns#"
   xmlns:svg="http://www.w3.org/2000/svg"
   xmlns="http://www.w3.org/2000/svg"
   xmlns:sodipodi="http://sodipodi.sourceforge.net/DTD/sodipodi-0.dtd"
   xmlns:inkscape="http://www.inkscape.org/namespaces/inkscape"
   width="1024"
   height="1024"
   id="U6628"
   version="1.1"
   inkscape:version="0.48.0 r9654"
   sodipodi:docname="U+6628.svg">
  <metadata
     id="metadata16">
    <rdf:RDF>
      <cc:Work
         rdf:about="">
        <dc:format>image/svg+xml</dc:format>
        <dc:type
           rdf:resource="http://purl.org/dc/dcmitype/StillImage" />
      </cc:Work>
    </rdf:RDF>
  </metadata>
  <defs
     id="defs14" />
  <sodipodi:namedview
     pagecolor="#ffffff"
     bordercolor="#666666"
     borderopacity="1"
     objecttolerance="10"
     gridtolerance="10"
     guidetolerance="10"
     inkscape:pageopacity="0"
     inkscape:pageshadow="2"
     inkscape:window-width="640"
     inkscape:window-height="480"
     id="namedview12"
     showgrid="false"
     inkscape:zoom="0.27441406"
     inkscape:cx="512"
     inkscape:cy="512"
     inkscape:window-x="0"
     inkscape:window-y="25"
     inkscape:window-maximized="0"
     inkscape:current-layer="U6628" />
  <path
     style="fill:#2b1100;fill-opacity:1;fill-rule:nonzero;stroke:none"
     d="M 554.125 179.8125 C 550.57024 179.9292 547.89709 181.00327 546.5625 183.28125 C 528.1944 217.58325 511.68805 252.838 495.59375 288.25 C 481.24367 319.92447 468.15698 352.12824 456.46875 384.84375 C 455.46113 377.78405 453.89557 370.76201 451.625 363.8125 C 448.7273 358.2075 446.5032 352.206 442.9375 347 C 427.6225 324.641 402.37925 315.10775 376.59375 311.71875 C 346.93975 308.87075 317.1223 308.382 287.375 307 C 254.2235 305.992 220.68415 304.936 188.03125 311.875 C 175.20799 315.13225 182.28977 358.71039 193.9375 382.5 C 176.4889 370.46579 109.71875 372.58294 109.71875 388.875 C 111.16455 430.606 111.73555 472.35975 113.09375 514.09375 C 114.37455 554.94975 118.2373 595.6545 123.375 636.1875 C 125.2424 652.3615 127.48775 668.4165 132.46875 683.9375 C 134.2467 688.71286 141.67087 689.90107 151.375 688.78125 C 146.18263 710.01469 145.50171 732.12563 154.5 734.375 C 190.8346 740.196 227.6521 734.7185 264 731.6875 C 290.9971 728.9645 317.948 730.8975 344.6875 734.8125 C 351.69037 735.75241 357.71376 723.83482 361.5 708.53125 C 385.71679 713.13966 414.31358 712.30507 415.71875 701.78125 C 416.39055 695.38525 416.91375 688.96825 416.96875 682.53125 C 418.84585 653.46225 424.91935 624.8875 429.59375 596.1875 C 433.70954 572.17202 437.91026 548.19095 442.09375 524.1875 C 467.7069 530.56798 512.66909 527.94344 513.03125 514.59375 C 512.32465 497.38175 518.0638 480.53875 521.8125 463.96875 C 528.59944 440.28405 536.3698 416.92615 545 393.875 C 552.7373 410.43504 562.67338 423.52392 570.0625 420.65625 C 578.40696 417.2635 586.89188 414.28712 595.46875 411.625 C 593.45571 442.85917 592.25255 474.13779 590.90625 505.40625 C 588.05685 568.65925 584.58535 631.8695 583.65625 695.1875 C 583.30745 737.4175 586.55225 779.66125 596.34375 820.78125 C 600.97855 835.87525 598.38365 828.6345 604.03125 842.5625 C 611.62905 859.7115 692.4728 823.86775 684.875 806.71875 C 682.5315 803.07675 683.9248 805.54025 681.5 799.03125 C 673.87201 772.10861 671.26993 744.16604 670.28125 716.25 C 699.24779 711.23886 728.3789 707.2496 757.53125 703.5 C 798.57775 698.386 839.7126 694.0685 880.9375 690.6875 C 897.6714 689.5565 889.8362 690.0155 904.5 689.3125 C 923.1253 688.1285 917.53155 600.317 898.90625 601.5 C 882.63425 602.758 891.25185 602.04425 873.15625 603.65625 C 830.94655 607.75525 788.7888 612.37475 746.6875 617.46875 C 721.52174 620.589 696.38306 624.00788 671.28125 627.59375 C 671.95764 608.04933 672.82681 588.50383 673.78125 568.96875 C 705.67317 570.11894 737.50657 568.37194 769.25 565.375 C 798.7028 563.128 827.7066 555.1475 857.3125 554.9375 C 875.9781 554.2175 872.57185 466.2165 853.90625 466.9375 C 822.72555 468.6905 792.16155 475.0875 761.15625 478.5625 C 733.6452 481.10048 705.98342 482.75194 678.375 480.75 C 679.95726 450.93045 681.79835 421.10734 685.40625 391.46875 C 718.74457 386.00916 752.43275 383.32864 786.15625 381.4375 C 809.61745 380.5065 833.06695 379.19275 856.53125 378.34375 C 875.26905 377.26975 870.20655 288.95725 851.46875 290.03125 C 827.97625 291.84525 804.4677 293.2075 780.9375 294.4375 C 737.4884 297.2175 694.08435 301.087 651.28125 309.375 C 624.91949 314.41609 598.57579 319.89842 572.75 327.1875 C 573.18699 326.23654 573.62258 325.29346 574.0625 324.34375 C 589.2441 291.71475 604.7658 259.12625 622.9375 228.03125 C 631.09331 214.10938 575.84854 179.09933 554.125 179.8125 z M 198.0625 389.78125 C 201.859 395.39922 205.91699 398.58304 209.8125 397.59375 C 234.3403 392.14275 259.758 393.608 284.6875 394.375 C 312.2503 395.89 339.96665 395.909 367.40625 399.125 C 368.62709 399.29965 369.67057 399.50869 370.65625 399.71875 C 370.6728 417.64246 368.14277 436.18949 365.65625 454.0625 C 363.99906 464.55602 362.30331 475.05128 360.5625 485.53125 C 359.65805 484.84339 358.66269 484.40563 357.5625 484.28125 C 333.4117 481.86725 309.1366 481.1495 284.875 482.0625 C 256.15772 483.40879 227.47283 485.70068 198.96875 489.46875 C 198.13517 456.24893 197.78595 423.00855 198.0625 389.78125 z M 372.03125 400 C 380.44323 402.10584 378.62149 404.95979 372.03125 400 z M 303.53125 569.15625 C 317.62208 569.1729 331.74489 569.77396 345.71875 571.53125 C 345.14343 574.8101 344.57482 578.09612 344 581.375 C 340.23129 602.60199 336.13706 623.78348 332.9375 645.09375 C 307.62929 642.88214 282.2033 642.38345 256.8125 644.875 C 242.72579 646.03227 228.58254 647.61843 214.40625 648.53125 C 212.40279 638.53542 208.80641 617.87736 210.1875 624.46875 C 207.9496 608.98719 205.99427 593.45901 204.34375 577.90625 C 232.21691 572.77882 260.53046 570.56445 288.8125 569.34375 C 293.72195 569.232 298.61345 569.15044 303.53125 569.15625 z "
     id="path16105" />
</svg>
