<?xml version="1.0" encoding="utf-8" ?>

<!DOCTYPE svg PUBLIC "-//W3C//DTD SVG 1.1//EN" 
  "http://www.w3.org/Graphics/SVG/1.1/DTD/svg11.dtd">
<svg 
    xmlns="http://www.w3.org/2000/svg"
    xmlns:xlink="http://www.w3.org/1999/xlink"
    xmlns:sodipodi="http://sodipodi.sourceforge.net/DTD/sodipodi-0.dtd"
    xmlns:inkscape="http://www.inkscape.org/namespaces/inkscape"
    width="1024" height="1024" id="U6625">
<path d="m 9506.908,6272.5793 c 42.9495,-2.7522 85.8981,-5.5258 128.8507,-8.2332 55.6149,-3.936 111.2638,-7.1952 167.0198,-7.9194 22.6929,-0.3113 45.4021,-0.2866 67.8213,3.4805 18.2243,3.6155 1.181,89.5255 -17.0433,85.9101 l 0,0 c -15.9617,-5.1637 -34.0166,-1.4262 -50.361,-3.3197 -53.9975,-0.2123 -107.899,2.7024 -161.7253,6.9101 -42.4623,3.0274 -84.952,5.9446 -127.291,10.426 -18.5095,1.5424 -25.7807,-85.712 -7.2712,-87.2544 z" id="path21355" inkscape:connector-curvature="0" style="fill:#800000;fill-opacity:1;fill-rule:nonzero;stroke:#f9f9f9;stroke-width:0.1;stroke-miterlimit:4;stroke-dasharray:none" transform="translate(-9216, -6144)"/><path d="m 9567.757,6404.0494 c 37.7414,-6.0608 75.8901,-8.6664 114.0428,-10.2592 25.2987,-0.995 50.5842,-0.1412 75.8129,1.7223 18.3391,1.5235 11.1576,87.975 -7.1815,86.4515 l 0,0 c -21.6376,-2.0491 -43.3559,-2.934 -65.0949,-2.1582 -34.0728,1.3771 -68.261,3.5539 -101.7549,10.3282 -18.2613,3.3569 -34.0857,-82.7278 -15.8244,-86.0846 z" id="path21357" inkscape:connector-curvature="0" style="fill:#800000;fill-opacity:1;fill-rule:nonzero;stroke:#f9f9f9;stroke-width:0.1;stroke-miterlimit:4;stroke-dasharray:none" transform="translate(-9216, -6144)"/><path d="m 9367.7431,6570.9627 c 45.1892,-5.541 90.5839,-8.9184 136.0026,-11.8683 75.6287,-4.4412 151.38,-6.2266 227.1078,-8.015 66.0389,-1.3683 132.0905,-2.2465 198.0691,-5.5187 31.4325,-2.3449 63.3453,-2.9303 94.2254,-9.8378 18.149,-3.5921 35.082,81.9617 16.934,85.5539 l 0,0 c -35.432,6.4434 -71.478,8.006 -107.3929,9.6923 -66.5982,2.5859 -133.2423,3.0299 -199.874,4.2926 -74.421,1.7105 -148.8672,3.6667 -223.1491,8.7483 -43.4113,3.2408 -86.889,6.5856 -129.887,13.6115 -18.3831,2.5532 -30.419,-84.1056 -12.0359,-86.6588 z" id="path21369" inkscape:connector-curvature="0" style="fill:#800000;fill-opacity:1;fill-rule:nonzero;stroke:#f9f9f9;stroke-width:0.1;stroke-miterlimit:4;stroke-dasharray:none" transform="translate(-9216, -6144)"/><path d="m 9791.5406,6205.0938 c -19.3042,49.5306 -36.6259,99.8143 -54.528,149.8632 -32.477,90.8965 -67.7382,180.7544 -103.7563,270.2945 -25.6608,63.224 -51.4148,126.4112 -77.3427,189.5261 -9.0358,22.4499 -19.2063,44.3983 -30.0458,66.0247 -8.4693,16.4701 -86.1099,-23.4547 -77.6406,-39.9248 l 0,0 c 10.2853,-19.443 19.9832,-39.1854 28.5793,-59.4431 26.9206,-62.258 53.2885,-124.7576 79.1135,-187.4778 35.891,-88.1633 70.7265,-176.7836 101.6975,-266.8164 17.4763,-50.9492 34.5501,-102.0344 52.0729,-152.9676 6.5594,-17.363 88.4096,13.5582 81.8502,30.9212 z" id="path21371" inkscape:connector-curvature="0" style="fill:#800000;fill-opacity:1;fill-rule:nonzero;stroke:#f9f9f9;stroke-width:0.1;stroke-miterlimit:4;stroke-dasharray:none" transform="translate(-9216, -6144)"/><path d="m 9694.6164,6568.5614 c 30.166,15.9269 61.0229,30.5157 91.6606,45.5076 45.5499,22.4266 90.963,45.1324 136.3068,67.9726 30.1572,14.8712 59.7559,30.8512 89.9192,45.7062 16.464,8.4376 -23.3106,86.0502 -39.7748,77.6126 l 0,0 c -29.5797,-15.7087 -58.9747,-31.7718 -88.9074,-46.8082 -44.7804,-22.8206 -89.7192,-45.3378 -134.9752,-67.2022 -31.8744,-15.2798 -63.8982,-30.2427 -95.7259,-45.6194 -16.37,-8.8027 25.1266,-85.9719 41.4967,-77.1692 z" id="path21375" inkscape:connector-curvature="0" style="fill:#800000;fill-opacity:1;fill-rule:nonzero;stroke:#f9f9f9;stroke-width:0.1;stroke-miterlimit:4;stroke-dasharray:none" transform="translate(-9216, -6144)"/><path d="m 9636.777,6775.5956 c -5.2367,42.2091 -6.2995,84.8246 -7.2105,127.3066 -1.0108,48.1087 0.2851,96.2255 4.7858,144.1332 2.5813,14.6576 2.0531,30.596 8.1281,44.4509 5.6432,17.6418 -77.5209,44.244 -83.1641,26.6023 l 0,0 c -5.9299,-20.781 -9.1677,-41.9966 -10.766,-63.5686 -4.143,-50.999 -5.4431,-102.1565 -4.4208,-153.3181 0.8385,-45.5179 2.039,-91.0724 5.8721,-136.4532 2.301,-18.4079 89.0764,-7.561 86.7754,10.8469 z" id="path21377" inkscape:connector-curvature="0" style="fill:#800000;fill-opacity:1;fill-rule:nonzero;stroke:#f9f9f9;stroke-width:0.1;stroke-miterlimit:4;stroke-dasharray:none" transform="translate(-9216, -6144)"/><path d="m 9593.9242,6780.8447 c 28.7771,-21.825 63.4825,-32.2426 97.833,-41.5486 37.8801,-9.9406 76.7291,-14.3942 115.8014,-15.0044 30.4779,-0.6886 58.1211,6.3659 83.5616,22.9262 26.31,20.8751 35.8214,51.8237 43.602,83.0905 8.4538,36.0234 11.8479,72.866 13.8571,109.7245 1.1038,32.5613 1.3508,65.1881 0.06,97.748 -0.9506,18.4607 -87.9752,13.9795 -87.0246,-4.4812 l 0,0 c 1.9605,-29.4666 1.6787,-59.0684 0.7669,-88.5693 -1.7101,-31.3881 -4.6106,-62.7617 -11.899,-93.4206 -2.7669,-11.0698 -5.8812,-22.0775 -9.8572,-32.7332 -4.1849,-9.2359 -25.21,-5.7519 -32.3498,-7.5841 -31.6889,-0.048 -63.1825,3.6026 -93.9004,11.612 -22.3809,6.0922 -45.8561,11.9568 -64.798,25.9917 -14.3723,11.8058 -70.0253,-55.9457 -55.653,-67.7515 z" id="path21379" inkscape:connector-curvature="0" style="fill:#800000;fill-opacity:1;fill-rule:nonzero;stroke:#f9f9f9;stroke-width:0.1;stroke-miterlimit:4;stroke-dasharray:none" transform="translate(-9216, -6144)"/><path d="m 9657.3564,6840.8 c 35.7921,-1.1588 71.5536,-1.4806 107.3257,0.2723 25.9309,1.8251 51.7695,5.0666 77.3406,9.7249 18.1543,3.5264 1.5304,89.1068 -16.624,85.5803 l 0,0 c -21.4587,-4.5296 -43.2804,-7.3225 -65.1308,-9.1086 -32.8716,-1.7681 -65.7903,-1.4827 -98.6333,0.9284 -18.5398,0.9076 -22.818,-86.4898 -4.2782,-87.3973 z" id="path21381" inkscape:connector-curvature="0" style="fill:#800000;fill-opacity:1;fill-rule:nonzero;stroke:#f9f9f9;stroke-width:0.1;stroke-miterlimit:4;stroke-dasharray:none" transform="translate(-9216, -6144)"/><path d="m 9654.2289,6948.7349 c 30.1929,5.081 60.6681,8.2787 91.126,11.2798 17.6731,1.6862 35.3513,3.3197 53.0293,4.9544 18.394,1.8776 9.5429,88.5878 -8.8511,86.7102 l 0,0 c -17.5853,-1.9665 -35.1811,-3.8329 -52.7895,-5.5818 -31.9987,-3.2473 -63.9619,-6.8269 -95.8722,-10.8574 -18.3505,-2.8335 -4.9931,-89.3387 13.3575,-86.5052 z" id="path21383" inkscape:connector-curvature="0" style="fill:#800000;fill-opacity:1;fill-rule:nonzero;stroke:#f9f9f9;stroke-width:0.1;stroke-miterlimit:4;stroke-dasharray:none" transform="translate(-9216, -6144)"/><path d="m 9595.3181,7062.3242 c 35.6555,-0.4204 71.3068,-1.2032 106.9597,-1.8226 48.9344,-0.9048 97.8698,-1.7613 146.801,-2.8273 26.1939,-0.5546 13.5241,-0.2865 38.0093,-0.8045 18.3341,-0.2541 19.5317,86.1734 1.1977,86.4275 l 0,0 c -24.2612,0.1575 -11.7126,0.055 -37.6456,0.3179 -48.8594,0.7115 -97.7179,1.4968 -146.5683,2.6879 -35.4785,0.8681 -70.9663,1.7262 -106.4066,3.6511 -18.5891,0.4979 -20.9364,-87.132 -2.3472,-87.63 z" id="path21385" inkscape:connector-curvature="0" style="fill:#800000;fill-opacity:1;fill-rule:nonzero;stroke:#f9f9f9;stroke-width:0.1;stroke-miterlimit:4;stroke-dasharray:none" transform="translate(-9216, -6144)"/></svg>