<?xml version="1.0" encoding="UTF-8" standalone="no"?>
<svg
   xmlns:dc="http://purl.org/dc/elements/1.1/"
   xmlns:cc="http://creativecommons.org/ns#"
   xmlns:rdf="http://www.w3.org/1999/02/22-rdf-syntax-ns#"
   xmlns:svg="http://www.w3.org/2000/svg"
   xmlns="http://www.w3.org/2000/svg"
   xmlns:sodipodi="http://sodipodi.sourceforge.net/DTD/sodipodi-0.dtd"
   xmlns:inkscape="http://www.inkscape.org/namespaces/inkscape"
   width="1024"
   height="1024"
   id="U6674"
   version="1.1"
   inkscape:version="0.48.0 r9654"
   sodipodi:docname="U+6674.svg">
  <metadata
     id="metadata20">
    <rdf:RDF>
      <cc:Work
         rdf:about="">
        <dc:format>image/svg+xml</dc:format>
        <dc:type
           rdf:resource="http://purl.org/dc/dcmitype/StillImage" />
      </cc:Work>
    </rdf:RDF>
  </metadata>
  <defs
     id="defs18" />
  <sodipodi:namedview
     pagecolor="#ffffff"
     bordercolor="#666666"
     borderopacity="1"
     objecttolerance="10"
     gridtolerance="10"
     guidetolerance="10"
     inkscape:pageopacity="0"
     inkscape:pageshadow="2"
     inkscape:window-width="640"
     inkscape:window-height="480"
     id="namedview16"
     showgrid="false"
     inkscape:zoom="0.27441406"
     inkscape:cx="512"
     inkscape:cy="512"
     inkscape:window-x="0"
     inkscape:window-y="25"
     inkscape:window-maximized="0"
     inkscape:current-layer="U6674" />
  <path
     style="fill:#a02c2c;fill-opacity:1;fill-rule:nonzero;stroke:#f9f9f9;stroke-width:0.1;stroke-miterlimit:4;stroke-dasharray:none"
     d="M 647.15625 37.5625 C 622.62755 37.65958 594.95281 43.8985 595.5625 54.4375 C 598.7491 94.3855 600.90725 134.40025 603.21875 174.40625 C 603.29069 175.51025 603.36773 176.61467 603.4375 177.71875 C 569.64798 179.00456 535.976 181.51518 502.25 183.9375 C 483.5202 184.7455 487.3326 273.058 506.0625 272.25 C 539.63373 268.52673 573.25622 265.87835 607 264.625 C 607.40335 282.39871 607.63414 300.18936 607.78125 317.96875 C 585.06647 316.47003 562.41603 314.22377 539.90625 310.6875 C 521.30365 308.3275 510.17855 396.015 528.78125 398.375 C 555.15727 401.42897 581.57368 403.72631 608.0625 405.3125 C 608.1546 422.43563 608.44051 439.53614 609.3125 456.625 C 586.16468 459.255 562.99014 461.82753 539.8125 464.1875 C 499.7292 468.2695 459.4961 471.90625 420 480.15625 C 401.788 484.67225 423.06925 570.54625 441.28125 566.03125 C 476.55795 557.38225 512.88155 554.10925 548.90625 550.15625 C 606.14755 543.87825 663.30985 536.8905 720.53125 530.4375 C 765.78375 525.0815 811.1474 520.762 856.6875 519 C 875.0803 518.303 893.4808 519.061 911.875 518.75 C 930.6334 518.029 927.2583 429.5915 908.5 430.3125 C 889.9587 431.6635 871.27155 430.62825 852.71875 431.90625 C 805.24105 434.36425 757.96675 439.094 710.78125 444.875 C 705.801 445.45026 700.82354 446.04547 695.84375 446.625 C 695.00427 433.46743 694.62848 420.29099 694.40625 407.09375 C 702.36914 407.02463 710.3192 406.96547 718.28125 406.9375 C 720.11895 407.0745 721.94355 407.20775 723.78125 407.34375 C 742.48925 408.15175 746.30165 319.96425 727.59375 319.15625 C 724.06895 319.06225 720.55605 318.965 717.03125 318.875 C 709.17195 319.06437 701.29803 319.27647 693.4375 319.46875 C 693.23238 301.15265 692.9737 282.84373 692.59375 264.53125 C 702.67949 264.71689 712.79056 264.92941 722.875 265.15625 C 727.7374 265.34125 732.5764 265.50275 737.4375 265.71875 C 742.0325 265.92175 756.739 266.6715 761.8125 267.0625 C 764.4681 267.2665 767.111 267.515 769.75 267.875 C 770.44267 267.96888 771.85804 268.03936 772.78125 268.1875 C 790.56416 263.46732 815.25409 190.39836 798.71875 184.53125 C 774.50775 177.94725 749.48205 178.56725 724.53125 177.78125 C 712.8944 177.59855 701.26299 177.42452 689.625 177.28125 C 689.50248 174.82208 689.41174 172.36517 689.28125 169.90625 C 687.39825 129.71425 685.4022 89.5185 683.875 49.3125 C 683.40079 41.1155 666.23412 37.486994 647.15625 37.5625 z M 772.78125 268.1875 C 771.94941 268.4083 771.14049 268.49854 770.34375 268.40625 C 771.38858 268.69183 772.42981 269.00223 773.40625 268.65625 C 773.92649 268.47138 773.51021 268.30447 772.78125 268.1875 z M 770.34375 268.40625 C 769.91182 268.28819 769.48745 268.14727 769.0625 268.09375 C 769.48368 268.24319 769.90991 268.356 770.34375 268.40625 z M 280.375 253.125 C 264.25559 253.21838 248.04475 255.0335 232.34375 256.625 C 197.11005 261.743 162.02 268.20925 128.0625 279.15625 C 124.24038 280.49687 122.62299 285.44707 122.59375 292.3125 C 98.029054 290.33824 69.522739 294.31358 69.28125 304.9375 C 69.95705 356.6875 74.21105 408.28075 78.34375 459.84375 C 83.72505 525.07975 90.5863 590.1855 97.125 655.3125 C 99.0626 672.7145 100.75955 690.14075 102.15625 707.59375 C 103.00319 715.93972 121.18785 718.71255 140.75 717.5625 C 137.47734 742.86093 140.6365 774.6552 151.84375 775.125 C 189.19195 775.909 226.4382 775.45275 263.6875 772.59375 C 297.2547 768.69475 330.8515 765.03225 364.5 761.90625 C 376.6714 760.80025 370.9981 761.26275 381.4375 760.46875 C 385.92905 760.05415 388.88613 754.61214 390.5 746.65625 C 395.46618 744.32159 398.46932 741.38542 398.375 737.875 C 397.9101 730.521 397.2493 723.1825 397.0625 715.8125 C 396.2888 673.1505 397.917 630.51325 400.0625 587.90625 C 402.8012 526.03825 406.5308 464.056 403.75 402.125 C 399.5024 351.449 393.441 299.42675 347.4375 268.96875 C 340.8931 265.98775 334.5999 262.40825 327.8125 260.03125 C 312.52515 254.67725 296.49441 253.03162 280.375 253.125 z M 281.625 340 C 291.95584 339.95433 301.55296 341.49812 307.34375 347.09375 C 313.42015 367.47275 315.64045 388.4425 317.53125 409.5625 C 318.06543 420.33699 318.38946 431.12784 318.53125 441.90625 C 317.06498 435.58119 314.49439 431.34755 310.625 430.84375 C 295.9125 429.16875 281.17365 428.0025 266.34375 428.0625 C 233.55815 427.7445 200.7642 427.66075 168 429.09375 C 165.66239 429.2695 163.72821 430.80139 162.15625 433.34375 C 160.43618 409.69929 158.81778 386.00468 157.96875 362.3125 C 185.98492 352.21678 215.40504 347.16921 244.78125 342.96875 C 253.86225 342.7775 268.34249 340.05872 281.625 340 z M 318.375 479.4375 C 317.7277 514.30669 315.83686 549.15294 314.1875 583.96875 C 312.41862 615.86172 310.81815 647.7647 310 679.6875 C 292.31619 681.72436 274.6461 683.77535 256.96875 685.875 C 234.06579 687.67376 211.13192 688.43866 188.1875 688.09375 C 186.47498 674.08351 184.76048 660.07096 183.03125 646.0625 C 182.08083 637.77133 181.12636 629.48022 180.1875 621.1875 C 204.91972 628.06037 230.26928 632.62334 255.53125 637.09375 C 273.91085 640.16675 265.0381 638.68275 282.125 641.46875 C 300.5388 644.32875 314.00745 557.5465 295.59375 554.6875 C 279.42895 552.3085 287.78535 553.55775 270.59375 550.84375 C 245.49705 546.51975 220.1387 542.33425 196.0625 533.78125 C 189.2018 531.24702 180.38382 542.33249 173.1875 557.15625 C 171.70728 543.02488 170.28595 528.89433 168.9375 514.75 C 170.67672 516.50839 172.57959 517.40378 174.625 517.25 C 204.7728 514.695 235.0882 514.96725 265.3125 515.40625 C 276.7084 515.53425 288.0052 516.30975 299.25 518.09375 C 308.05891 519.24068 315.25337 500.09667 318.375 479.4375 z M 748.875 563 C 742.29353 563.08412 735.66974 563.45975 729.03125 564.125 C 688.67635 568.368 648.9607 576.3785 609.9375 587.5625 C 576.1262 597.1835 542.0714 606.9425 510.4375 622.5625 C 504.0078 626.05938 506.53624 640.02695 512.96875 655.21875 C 488.52238 658.26587 461.4988 667.86685 463.40625 678.3125 C 470.10055 711.7555 476.26935 745.31325 482.15625 778.90625 C 488.12935 816.43325 495.6807 853.6635 503.625 890.8125 C 508.3081 910.4285 511.07725 930.4585 515.78125 950.0625 C 520.68605 968.2165 606.2798 945.0915 601.375 926.9375 C 597.38872 916.52996 595.87034 905.23454 594.03125 894.0625 C 622.66505 894.67057 651.29692 895.05532 679.9375 894.96875 C 710.2468 894.54275 740.53145 893.7865 770.84375 894.3125 C 772.2159 894.34805 773.59658 894.37007 774.96875 894.40625 C 771.6137 920.11023 768.59136 945.87254 765.375 971.59375 C 765.27329 972.10596 765.16421 972.61265 765.0625 973.125 C 768.26546 963.50806 769.6479 965.68974 782.6875 954.34375 C 773.10627 970.42601 801.93617 1040.6121 818.15625 1034.2812 C 844.62725 1013.1923 848.9982 1013.0793 853 981.53125 C 855.7468 954.67025 858.57255 927.82725 861.90625 901.03125 C 867.66625 859.52125 874.89165 818.2365 883.34375 777.1875 C 891.28165 737.2665 901.00075 696.7895 897.09375 655.8125 C 888.47095 614.3135 872.25165 592.86825 832.59375 576.78125 C 805.36062 567.6065 777.39469 562.63549 748.875 563 z M 765.0625 973.125 C 764.71829 974.15849 764.37185 975.28604 763.96875 976.625 C 763.92075 976.785 764.2859 976.47825 764.4375 976.40625 C 764.65489 975.31146 764.84511 974.22009 765.0625 973.125 z M 750.40625 650.375 C 768.59096 650.24581 786.40174 653.27281 803.59375 659.6875 C 803.30275 660.1635 814.41075 663.9715 812.90625 666.9375 C 810.86695 670.9545 810.32725 660.034 810.46875 671 C 810.78435 701.22 803.79865 730.95975 798.09375 760.46875 C 794.5706 777.89372 791.24688 795.35033 788.09375 812.84375 C 786.07955 808.81852 783.55069 806.38395 780.46875 806.34375 C 777.43585 806.33375 774.408 806.34375 771.375 806.34375 C 740.8515 806.49475 710.3329 807.34475 679.8125 807.71875 C 652.96106 807.71307 626.09317 807.36986 599.28125 805.8125 C 621.43847 799.71045 644.13196 795.5335 666.75 791.5625 C 687.2516 788.2555 707.8099 784.78 728.625 784.75 C 747.2904 784.286 745.1028 696.31725 726.4375 696.78125 C 701.2846 697.75825 676.37775 701.127 651.59375 705.5 C 621.16526 710.86063 590.74826 716.64044 560.9375 724.84375 C 559.38836 716.01723 557.8805 707.17757 556.375 698.34375 C 580.93846 686.15455 607.64877 678.88814 633.90625 671.3125 C 667.91505 661.5615 702.5234 654.28575 737.75 650.96875 C 741.98429 650.60444 746.20978 650.40481 750.40625 650.375 z M 573.8125 798.5625 C 578.74897 806.03035 583.93345 810.44574 588.5 808.9375 C 584.81645 813.4391 582.09327 822.02095 580.40625 832.03125 C 578.09764 820.8949 575.90173 809.74187 573.8125 798.5625 z "
     id="path11253" />
</svg>
