<?xml version="1.0" encoding="utf-8" ?>

<!DOCTYPE svg PUBLIC "-//W3C//DTD SVG 1.1//EN" 
  "http://www.w3.org/Graphics/SVG/1.1/DTD/svg11.dtd">
<svg 
    xmlns="http://www.w3.org/2000/svg"
    xmlns:xlink="http://www.w3.org/1999/xlink"
    xmlns:sodipodi="http://sodipodi.sourceforge.net/DTD/sodipodi-0.dtd"
    xmlns:inkscape="http://www.inkscape.org/namespaces/inkscape"
    width="1024" height="1024" id="U6613">
<path d="m 8516.9175,58590.286 c -2.9233,30.53 1.614,60.959 7.908,90.759 7.0485,29.482 19.5679,57.116 35.4373,82.82 1.7235,2.416 3.447,4.831 5.1705,7.247 10.5036,15.41 -62.1424,64.924 -72.6459,49.514 l 0,0 c -2.5891,-3.912 -5.1782,-7.824 -7.7673,-11.735 -20.1565,-34.46 -36.49,-71.028 -45.3225,-110.139 -7.9275,-38.582 -13.361,-77.764 -10.7613,-117.264 1.8663,-18.664 89.8476,-9.865 87.9812,8.798 z" id="path12332" inkscape:connector-curvature="0" style="fill:#2b1100;fill-opacity:1;fill-rule:nonzero;stroke:none" transform="translate(-8192, -58368)"/><path d="m 8485.4219,58554.196 c 34.3773,-15.762 71.4836,-22.376 108.737,-26.854 44.6774,-4.364 89.5991,-4.345 134.3995,-2.463 38.7582,0.92 76.417,6.574 111.5369,23.263 37.5761,22.816 47.2759,54.088 47.5049,95.845 -1.8624,32.475 -10.2859,64.056 -18.9944,95.246 -6.271,21.708 -12.6412,43.418 -21.1219,64.38 -1.2493,2.633 -2.4987,5.266 -3.748,7.9 -8.3637,16.807 -87.5963,-22.62 -79.2326,-39.427 l 0,0 c 0.49,-0.863 0.9801,-1.725 1.4702,-2.587 7.7131,-17.417 12.6658,-35.903 18.2781,-54.062 6.7581,-23.677 13.3528,-47.632 15.5268,-72.242 0.1669,-3.724 0.074,-7.464 0.4225,-11.175 0.1181,-1.255 2.3597,-2.332 1.9853,-3.171 -0.426,-0.955 -1.3257,-1.618 -1.9885,-2.426 -22.1284,-13.729 -50.5303,-12.045 -75.4625,-14.681 -40.0671,-1.854 -80.2494,-1.904 -120.2131,2.015 -27.6149,3.302 -55.4638,7.567 -80.6554,20.075 -16.8933,8.155 -55.338,-71.48 -38.4448,-79.636 z" id="path12334" inkscape:connector-curvature="0" style="fill:#2b1100;fill-opacity:1;fill-rule:nonzero;stroke:none" transform="translate(-8192, -58368)"/><path d="m 8543.3199,58636.734 c 34.4524,-8.946 69.7129,-13.645 105.0697,-17.133 33.8362,-3.001 67.8024,-4.004 101.7561,-3.475 15.8125,0.661 8.1264,0.181 23.0612,1.391 18.6218,1.748 10.3806,89.532 -8.2411,87.784 l 0,0 c -10.3272,-1.174 -4.7297,-0.66 -16.804,-1.41 -30.4409,-0.938 -60.9139,-0.181 -91.2656,2.426 -30.3295,2.956 -60.7176,6.751 -89.9848,15.609 -18.0719,5.004 -41.6634,-80.187 -23.5915,-85.192 z" id="path12340" inkscape:connector-curvature="0" style="fill:#2b1100;fill-opacity:1;fill-rule:nonzero;stroke:none" transform="translate(-8192, -58368)"/><path d="m 8501.0498,58788.003 c 33.3975,-11.897 67.8531,-20.39 102.3288,-28.475 43.6656,-10.16 87.8114,-17.98 132.0257,-25.297 22.6157,-3.499 45.2218,-7.3 68.0185,-9.441 18.7632,-1.244 24.6262,87.206 5.8631,88.45 l 0,0 c -20.157,0.133 -40.1201,4.957 -60.0881,7.029 -42.1581,6.534 -84.219,13.799 -125.7306,23.735 -30.0212,7.246 -60.1645,14.637 -88.9543,25.984 -17.3915,7.098 -50.8546,-74.886 -33.4631,-81.985 z" id="path12343" inkscape:connector-curvature="0" style="fill:#2b1100;fill-opacity:1;fill-rule:nonzero;stroke:none" transform="translate(-8192, -58368)"/><path d="m 8491.6947,58927.802 c -7.7596,26.221 -12.1947,53.261 -16.1557,80.268 -3.8384,27.35 -5.6942,54.965 -4.3769,82.56 1.0253,8.027 0.1745,4.73 1.8774,10.039 3.7947,18.342 -82.673,36.231 -86.4677,17.888 l 0,0 c -2.9086,-16.335 -1.8207,-8.076 -3.2403,-24.779 -0.8895,-32.88 1.1794,-65.735 5.845,-98.305 4.5004,-31.004 9.719,-61.928 17.4932,-92.305 5.2255,-18.036 90.2506,6.597 85.025,24.634 z" id="path12349" inkscape:connector-curvature="0" style="fill:#2b1100;fill-opacity:1;fill-rule:nonzero;stroke:none" transform="translate(-8192, -58368)"/><path d="m 8437.4283,58951.621 c 32.9478,-16.502 68.4813,-26.766 103.8672,-36.535 49.0413,-13.332 99.4132,-20.413 149.6854,-27.175 46.0736,-6.129 92.3432,-10.376 138.8037,-11.686 35.0343,-1.402 69.5892,1.934 103.4043,11.034 31.3895,8.867 56.0667,27.162 76.4556,52.07 22.5695,31.732 26.5741,69.078 26.8215,106.86 -1.3433,44.456 -10.1129,88.165 -19.2624,131.542 -7.2372,33.141 -15.2609,66.103 -23.2903,99.059 -2.9184,11.938 -1.2881,5.93 -4.9154,18.015 -5.7173,17.855 -89.8847,-9.097 -84.1674,-26.951 l 0,0 c 2.5534,-7.02 1.1456,-2.781 3.87,-12.828 8.4523,-31.598 16.5228,-63.304 23.5352,-95.257 7.911,-37.334 15.5668,-74.947 16.8926,-113.207 -0.016,-18.013 0.03,-36.761 -8.7861,-53.038 -7.4195,-11.056 -18.1403,-17.635 -30.7959,-21.701 -25.2699,-7.497 -51.3731,-9.173 -77.6771,-8.542 -43.3051,0.827 -86.4339,4.728 -129.3758,10.359 -46.3107,6.209 -92.7418,12.652 -137.8765,25.102 -28.7964,8.116 -58.0042,16.287 -84.5353,30.431 -16.4511,9.048 -59.1044,-68.503 -42.6533,-77.552 z" id="path12352" inkscape:connector-curvature="0" style="fill:#2b1100;fill-opacity:1;fill-rule:nonzero;stroke:none" transform="translate(-8192, -58368)"/><path d="m 8721.3935,59012.449 c -16.764,26.738 -28.6933,56.12 -40.3755,85.324 -11.6569,32.26 -24.3844,64.903 -27.5664,99.317 0.5545,5.888 -0.5559,6.854 1.3831,4.195 3.9778,18.294 -82.2624,37.046 -86.2402,18.751 l 0,0 c -3.4305,-22.63 -2.77,-11.437 -2.181,-33.565 5.8002,-41.633 18.9074,-81.592 33.9091,-120.771 13.4251,-33.976 27.3823,-67.879 45.6595,-99.597 9.8316,-15.997 85.243,30.349 75.4114,46.346 z" id="path12371" inkscape:connector-curvature="0" style="fill:#2b1100;fill-opacity:1;fill-rule:nonzero;stroke:none" transform="translate(-8192, -58368)"/><path d="m 8933.7263,59053.928 c -18.1372,22.82 -28.9962,50.218 -39.2989,77.188 -10.9283,29.923 -18.7771,60.821 -26.1925,91.761 -4.4295,17.982 -89.1985,-2.898 -84.769,-20.881 l 0,0 c 8.6611,-34.294 17.6543,-68.565 29.775,-101.835 13.7721,-36.177 28.9275,-72.259 52.7641,-103.147 12.0734,-14.366 79.7947,42.548 67.7213,56.914 z" id="path12373" inkscape:connector-curvature="0" style="fill:#2b1100;fill-opacity:1;fill-rule:nonzero;stroke:none" transform="translate(-8192, -58368)"/></svg>