<?xml version="1.0" encoding="utf-8" ?>

<!DOCTYPE svg PUBLIC "-//W3C//DTD SVG 1.1//EN" 
  "http://www.w3.org/Graphics/SVG/1.1/DTD/svg11.dtd">
<svg 
    xmlns="http://www.w3.org/2000/svg"
    xmlns:xlink="http://www.w3.org/1999/xlink"
    xmlns:sodipodi="http://sodipodi.sourceforge.net/DTD/sodipodi-0.dtd"
    xmlns:inkscape="http://www.inkscape.org/namespaces/inkscape"
    width="1024" height="1024" id="U6708">
<path d="m 10616.915,61726.301 c -16.361,22.545 -24.995,49.631 -34.003,75.676 -21.993,66.295 -36.358,134.723 -48.585,203.384 -11.368,64.363 -17.248,129.437 -14.174,194.737 0.782,16.716 3.65,33.034 7.929,49.148 4.221,18.078 -81.004,37.975 -85.224,19.897 l 0,0 c -4.635,-21.697 -8.352,-43.494 -8.945,-65.759 -2.174,-71.425 4.2,-142.537 16.819,-212.89 12.945,-72.886 27.891,-145.558 50.185,-216.246 11.909,-35.924 24.224,-72.417 46.864,-103.254 11.732,-14.666 80.867,40.642 69.134,55.307 z" id="path13637" inkscape:connector-curvature="0" style="fill:#2b1100;fill-opacity:1;fill-rule:nonzero;stroke:none" transform="translate(-10240, -61440)"/><path d="m 10596.653,61713.566 c 32.14,-21.52 68.404,-34.636 105.241,-45.48 42.078,-11.364 85.196,-17.881 128.683,-19.98 32.574,-0.173 66.884,4.546 91.769,27.779 5.462,5.1 9.667,11.399 14.501,17.098 26.189,44.043 24.103,95.775 22.867,145.231 -2.971,65.909 -8.659,131.667 -14.199,197.401 -4.799,61.538 -12.473,122.77 -22.782,183.614 -5.527,31.126 -11.694,62.16 -21.138,92.351 -5.853,17.703 -89.305,-9.89 -83.452,-27.593 l 0,0 c 9.23,-25.756 14.058,-52.815 19.46,-79.567 10.418,-58.271 17.979,-116.98 22.629,-176.006 5.408,-63.93 10.872,-127.905 13.195,-192.036 0.513,-30.134 1.721,-60.952 -6.557,-90.268 -0.27,-12.881 -24.957,-9.545 -32.681,-10.802 -36.445,1.186 -72.533,6.879 -107.787,16.249 -27.497,8.047 -54.962,17.318 -78.549,34.093 -15.291,10.861 -66.491,-61.223 -51.2,-72.084 z" id="path13639" inkscape:connector-curvature="0" style="fill:#2b1100;fill-opacity:1;fill-rule:nonzero;stroke:none" transform="translate(-10240, -61440)"/><path d="m 10537.036,61934.608 c 36.915,-9.811 74.318,-17.302 112.004,-23.411 46.192,-6.962 92.844,-9.741 139.5,-10.824 15.674,-0.271 31.344,-0.09 47.013,0.275 18.617,0.621 15.691,88.381 -2.926,87.76 l 0,0 c -14.153,-0.637 -28.311,-1.05 -42.482,-0.955 -42.507,0.559 -85.02,2.89 -127.093,9.283 -34.52,5.72 -68.861,12.633 -102.297,23.113 -18.082,5.031 -41.801,-80.21 -23.719,-85.241 z" id="path13641" inkscape:connector-curvature="0" style="fill:#2b1100;fill-opacity:1;fill-rule:nonzero;stroke:none" transform="translate(-10240, -61440)"/><path d="m 10535.478,62120.464 c 41.745,-2.843 83.115,-9.761 124.486,-15.814 52.654,-7.87 105.475,-14.477 158.424,-19.993 31.115,-3.18 62.299,-6.175 93.603,-5.906 18.705,0.43 16.679,88.606 -2.026,88.176 l 0,0 c -27.705,-1.212 -55.38,1.726 -82.956,4.034 -51.614,4.928 -103.091,11.118 -154.345,18.991 -43.749,6.628 -87.431,13.946 -131.434,18.704 -18.709,1.22 -24.46,-86.972 -5.752,-88.192 z" id="path13643" inkscape:connector-curvature="0" style="fill:#2b1100;fill-opacity:1;fill-rule:nonzero;stroke:none" transform="translate(-10240, -61440)"/></svg>