<?xml version="1.0" encoding="utf-8" ?>

<!DOCTYPE svg PUBLIC "-//W3C//DTD SVG 1.1//EN" 
  "http://www.w3.org/Graphics/SVG/1.1/DTD/svg11.dtd">
<svg 
    xmlns="http://www.w3.org/2000/svg"
    xmlns:xlink="http://www.w3.org/1999/xlink"
    xmlns:sodipodi="http://sodipodi.sourceforge.net/DTD/sodipodi-0.dtd"
    xmlns:inkscape="http://www.inkscape.org/namespaces/inkscape"
    width="1024" height="1024" id="U675F">
<path d="m 11483.474,45295.813 c 44.73,-6.812 89.562,-12.93 134.343,-19.403 67.992,-10.461 136.374,-17.891 204.801,-24.781 45.342,-4.627 90.675,-9.361 136.142,-12.579 3.729,-0.292 7.457,-0.585 11.186,-0.878 18.615,-1.175 24.153,86.578 5.537,87.753 l 0,0 c -3.834,0.185 -7.668,0.369 -11.503,0.554 -44.433,2.131 -88.722,6.276 -132.997,10.516 -67.022,6.384 -133.994,13.496 -200.474,24.311 -43.564,6.73 -87.254,12.914 -130.516,21.411 -18.435,3.504 -34.954,-83.4 -16.519,-86.904 z" id="path10939" inkscape:connector-curvature="0" style="fill:#782121;fill-opacity:1;fill-rule:nonzero;stroke:#f9f9f9;stroke-width:0.1;stroke-miterlimit:4;stroke-dasharray:none" transform="translate(-11264, -45056)"/><path d="m 11590.025,45485.369 c 3.251,37.153 5.011,74.408 8.29,111.557 1.86,16.356 3.868,32.895 9.041,48.61 0.245,0.746 4.021,12.148 7.107,13.763 0.764,0.4 -0.1,-1.72 -0.146,-2.58 13.23,13.196 -48.979,75.565 -62.209,62.368 l 0,0 c -4.676,-5.475 -9.966,-10.481 -14.029,-16.426 -19.384,-28.369 -21.704,-65.339 -26.335,-98.158 -3.133,-36.083 -4.849,-72.31 -9.428,-108.25 -2.308,-18.606 85.4,-29.49 87.709,-10.884 z" id="path10941" inkscape:connector-curvature="0" style="fill:#782121;fill-opacity:1;fill-rule:nonzero;stroke:#f9f9f9;stroke-width:0.1;stroke-miterlimit:4;stroke-dasharray:none" transform="translate(-11264, -45056)"/><path d="m 11600.663,45444.076 c 34.728,-18.683 73.937,-25.685 112.286,-32.828 48.909,-8.996 98.398,-13.708 148.038,-15.829 33.544,0.309 70.856,-1.81 101.503,14.778 6.386,3.457 11.959,8.24 17.938,12.36 5.085,6.644 11.357,12.529 15.254,19.933 16.959,32.214 5.297,69.479 -2.911,102.196 -9.992,36.968 -18.777,74.234 -27.048,111.618 -5.204,26.095 -11.035,51.924 -20.924,76.658 -7.311,17.181 -88.306,-17.284 -80.995,-34.465 l 0,0 c 9.364,-19.068 11.468,-40.836 16.878,-61.162 8.544,-37.999 17.431,-75.916 27.352,-113.584 0.546,-2.25 8.627,-38.786 9.324,-38.594 3.252,0.898 3.405,7.178 8.065,6.117 4.01,-1.806 -7.41,-5.164 -11.713,-6.074 -16.187,-3.424 -32.865,-3.093 -49.302,-3.084 -45.404,1.626 -90.655,5.935 -135.333,14.433 -27.416,5.269 -55.708,9.863 -80.988,22.281 -15.857,10.06 -63.282,-64.694 -47.424,-74.754 z" id="path10943" inkscape:connector-curvature="0" style="fill:#782121;fill-opacity:1;fill-rule:nonzero;stroke:#f9f9f9;stroke-width:0.1;stroke-miterlimit:4;stroke-dasharray:none" transform="translate(-11264, -45056)"/><path d="m 11574.244,45697.928 c 39.38,-0.442 78.703,-3.559 117.947,-6.689 51.838,-4.644 103.528,-10.611 155.467,-14.061 25.083,-1.411 50.203,-1.729 75.311,-1.019 18.694,0.818 14.837,88.941 -3.857,88.123 l 0,0 c -22.022,-1.386 -44.098,-1.387 -66.145,-0.477 -51.359,2.864 -102.442,8.712 -153.647,13.477 -42.096,3.613 -84.228,7.085 -126.436,9.059 -18.756,-0.289 -17.395,-88.702 1.36,-88.413 z" id="path10945" inkscape:connector-curvature="0" style="fill:#782121;fill-opacity:1;fill-rule:nonzero;stroke:#f9f9f9;stroke-width:0.1;stroke-miterlimit:4;stroke-dasharray:none" transform="translate(-11264, -45056)"/><path d="m 11818.264,45141.994 c -6.862,59.759 -14.305,119.439 -20.546,179.269 -9.192,92.295 -13.077,184.995 -15.494,277.678 -1.693,81.912 -0.615,163.844 0.69,245.751 0.554,37.371 1.994,74.741 0.564,112.103 -1.02,18.579 -88.6,13.767 -87.579,-4.811 l 0,0 c 2.693,-35.392 1.311,-70.919 1.423,-106.377 -0.453,-82.961 -0.968,-165.936 0.846,-248.886 2.534,-94.748 6.353,-189.511 15.133,-283.917 5.67,-58.949 12.777,-117.785 16.908,-176.864 1.284,-18.68 89.339,-12.626 88.055,6.054 z" id="path10947" inkscape:connector-curvature="0" style="fill:#782121;fill-opacity:1;fill-rule:nonzero;stroke:#f9f9f9;stroke-width:0.1;stroke-miterlimit:4;stroke-dasharray:none" transform="translate(-11264, -45056)"/><path d="m 11669.511,45880.666 c -26.518,9.843 -50.658,24.657 -74.176,40.138 -34.079,22.741 -64.229,50.459 -92.785,79.669 -9.593,11.696 -22.976,21.585 -29.233,35.727 -9.586,16.047 -85.23,-29.139 -75.644,-45.186 l 0,0 c 12.22,-18.967 26.755,-35.901 42.967,-51.64 33.042,-33.202 67.734,-64.846 106.668,-91.111 28.281,-18.815 57.345,-36.495 88.814,-49.551 17.385,-7.082 50.774,74.871 33.389,81.954 z" id="path10949" inkscape:connector-curvature="0" style="fill:#782121;fill-opacity:1;fill-rule:nonzero;stroke:#f9f9f9;stroke-width:0.1;stroke-miterlimit:4;stroke-dasharray:none" transform="translate(-11264, -45056)"/><path d="m 11953.09,45823.44 c 22.444,24.121 49.371,43.51 75.377,63.543 28.408,21.352 55.391,44.4 80.544,69.487 13.015,13.177 -49.105,74.532 -62.12,61.355 l 0,0 c -21.956,-22.662 -46.068,-42.982 -71.296,-61.931 -30.554,-23.35 -61.793,-46.183 -88.657,-73.862 -12.429,-14.033 53.723,-72.625 66.152,-58.592 z" id="path10951" inkscape:connector-curvature="0" style="fill:#782121;fill-opacity:1;fill-rule:nonzero;stroke:#f9f9f9;stroke-width:0.1;stroke-miterlimit:4;stroke-dasharray:none" transform="translate(-11264, -45056)"/></svg>