<?xml version="1.0" encoding="UTF-8" standalone="no"?>
<svg
   xmlns:dc="http://purl.org/dc/elements/1.1/"
   xmlns:cc="http://creativecommons.org/ns#"
   xmlns:rdf="http://www.w3.org/1999/02/22-rdf-syntax-ns#"
   xmlns:svg="http://www.w3.org/2000/svg"
   xmlns="http://www.w3.org/2000/svg"
   xmlns:sodipodi="http://sodipodi.sourceforge.net/DTD/sodipodi-0.dtd"
   xmlns:inkscape="http://www.inkscape.org/namespaces/inkscape"
   width="1024"
   height="1024"
   id="U679C"
   version="1.1"
   inkscape:version="0.48.0 r9654"
   sodipodi:docname="U+679C.svg">
  <metadata
     id="metadata15">
    <rdf:RDF>
      <cc:Work
         rdf:about="">
        <dc:format>image/svg+xml</dc:format>
        <dc:type
           rdf:resource="http://purl.org/dc/dcmitype/StillImage" />
      </cc:Work>
    </rdf:RDF>
  </metadata>
  <defs
     id="defs13" />
  <sodipodi:namedview
     pagecolor="#ffffff"
     bordercolor="#666666"
     borderopacity="1"
     objecttolerance="10"
     gridtolerance="10"
     guidetolerance="10"
     inkscape:pageopacity="0"
     inkscape:pageshadow="2"
     inkscape:window-width="640"
     inkscape:window-height="480"
     id="namedview11"
     showgrid="false"
     inkscape:zoom="0.27441406"
     inkscape:cx="512"
     inkscape:cy="512"
     inkscape:window-x="0"
     inkscape:window-y="25"
     inkscape:window-maximized="0"
     inkscape:current-layer="U679C" />
  <path
     style="fill:#550000;fill-opacity:1;fill-rule:nonzero;stroke:#f9f9f9;stroke-width:0.1;stroke-miterlimit:4;stroke-dasharray:none"
     d="M 620 175.1875 C 606.70686 175.20114 593.36031 176.14519 580.5 176.5 C 524.0647 181.327 468.06965 189.94925 412.84375 202.65625 C 369.16535 212.82025 325.1464 223.0695 283.9375 241.1875 C 280.27027 243.02116 279.32549 248.27938 280.25 255.25 C 256.83311 250.15959 201.50437 262.96172 204.125 277.6875 C 212.4468 316.2915 222.04635 354.607 231.78125 392.875 C 242.36675 433.992 253.65745 474.9365 266.40625 515.4375 C 271.69185 530.7735 268.8709 523.41125 274.8125 537.53125 C 280.52791 550.10165 326.08349 533.27224 345.84375 516.875 C 337.90239 541.93501 336.73458 583.31518 349.375 584.90625 C 373.63169 585.47848 397.70922 583.16598 421.6875 579.625 C 422.36528 601.99568 423.15449 624.38565 424.03125 646.75 C 424.35789 654.98359 424.70332 663.20542 425.0625 671.4375 C 400.92706 675.74828 376.81127 680.18463 352.71875 684.75 C 304.94635 693.36 257.0678 702.54925 208.5625 705.78125 C 190.0449 706.85625 195.1073 794.1375 213.625 793.0625 C 243.29996 789.97244 272.77246 785.41396 302.15625 780.28125 C 283.04416 808.95442 264.88272 838.41316 253.4375 871.03125 C 247.8314 888.65625 330.92515 915.0615 336.53125 897.4375 C 342.40385 871.1815 362.2311 849.3735 375.0625 826.4375 C 391.74066 802.33965 408.66455 778.18618 429.125 757.09375 C 430.25798 780.06995 431.40816 803.05021 432.4375 826.03125 C 433.1473 846.33125 433.01725 836.98625 433.03125 854.03125 C 433.39985 872.47025 520.306 870.7505 519.9375 852.3125 C 519.39535 837.22184 519.35849 836.69963 518.875 828.8125 C 538.67661 842.02872 558.16929 855.6385 578.34375 868.3125 C 603.05385 883.2835 628.51555 896.9405 652.90625 912.4375 C 662.29085 918.9035 658.14955 915.757 665.53125 921.75 C 680.20525 933.048 733.45535 863.8595 718.78125 852.5625 C 705.97755 842.9855 712.5333 847.63975 699.0625 838.71875 C 674.5432 823.56675 649.2022 809.81475 624.5 794.96875 C 602.2226 780.91475 580.9641 765.481 559.3125 750.5 C 549.20284 744.4343 527.37497 772.41268 516.8125 796.15625 C 515.65654 778.10701 514.50728 760.05269 513.40625 742 C 535.35848 738.42886 557.32775 735.00523 579.34375 731.8125 C 623.57045 726.3005 667.86325 720.202 712.40625 717.875 C 713.26929 717.92847 712.9406 717.89802 713.59375 717.9375 C 730.88311 713.1829 749.21931 637.24687 732.1875 632.90625 C 713.7735 630.29325 722.4902 630.6785 706.125 631.1875 C 659.5942 635.3675 613.24655 641.683 566.96875 648 C 547.53701 650.91762 528.14041 653.9654 508.75 657.125 C 508.53328 652.52373 508.32656 647.91461 508.125 643.3125 C 507.01596 617.11021 506.05771 590.90157 505.3125 564.6875 C 552.07757 556.10143 599.09108 549.02435 646.15625 542.3125 C 652.43245 542.6885 659.6586 539.34 666.0625 540.625 C 675.5511 540.22482 679.22308 517.22347 678.09375 494.875 C 682.91586 475.1114 686.70376 455.06459 691.65625 435.3125 C 702.11685 390.1015 713.0153 344.8355 718.5 298.6875 C 721.7631 258.2585 721.644 218.15975 686.125 191.34375 C 680.728 188.57375 675.5692 185.28525 669.9375 183.03125 C 654.10583 176.693 637.09119 175.16996 620 175.1875 z M 713.59375 717.9375 C 713.41189 717.98751 713.24409 718.05966 713.0625 718.09375 C 717.3166 718.21338 717.71846 718.18683 713.59375 717.9375 z M 609.59375 261.53125 C 618.32385 261.55685 626.92654 261.95797 633.21875 262.65625 C 632.8505 263.90118 633.51813 266.85831 633.5 268.375 C 633.3521 280.523 633.29575 278.0285 632.21875 291.8125 C 630.76263 304.6928 628.8326 317.50218 626.5625 330.25 C 602.8452 322.16416 614.59396 324.79119 590.34375 321.84375 C 561.98499 321.60982 533.77789 323.91221 505.78125 327.96875 C 506.59833 308.83165 507.93946 289.72919 510.21875 270.71875 C 535.77013 266.84855 561.47362 264.00712 587.28125 262.15625 C 593.41135 261.95725 599.5545 261.6225 605.6875 261.5625 C 606.9907 261.54919 608.28775 261.52742 609.59375 261.53125 z M 635.46875 262.9375 C 641.79883 263.79995 644.90526 265.03797 641.59375 266.5 C 638.72911 266.79137 637.35388 264.36957 635.46875 262.9375 z M 421.65625 288.3125 C 420.61143 307.33808 420.09577 326.40683 419.8125 345.46875 C 387.2346 353.69561 355.02046 363.49405 324.8125 378.40625 C 308.6752 387.62725 352.14395 463.68975 368.28125 454.46875 C 384.58664 446.09843 401.76465 439.81582 419.28125 434.5625 C 419.29716 454.12907 419.43656 473.68706 419.71875 493.25 C 400.00172 496.1612 380.19034 498.17455 360.28125 498.09375 C 358.09919 497.81909 356.02918 498.81076 354.09375 500.75 C 351.12653 495.37309 352.73428 498.49446 348.90625 488.5 C 335.87955 450.167 324.8641 411.1655 314.875 371.9375 C 308.73471 347.30348 302.59 322.64832 297.28125 297.8125 C 306.14641 312.24497 316.42962 322.8634 323.09375 319.53125 C 354.39064 304.83515 388.11833 296.35265 421.65625 288.3125 z M 613.1875 393.78125 C 611.48079 401.1453 609.74994 408.48988 608.03125 415.84375 C 603.15139 430.92769 600.55022 446.93575 597.25 462.6875 C 566.05626 467.81854 534.84458 472.94108 503.71875 478.46875 C 503.57341 457.30345 503.65723 436.13746 503.9375 414.96875 C 531.85998 410.18793 560.06461 407.17932 588.40625 408.40625 C 596.04855 410.20525 597.3603 409.56325 592.25 410.53125 C 598.07142 413.06069 605.98313 405.34545 613.1875 393.78125 z M 710.5 718.03125 C 711.33648 718.24443 712.18348 718.24872 713.03125 718.09375 C 711.96898 718.0639 712.079 718.07122 710.5 718.03125 z "
     id="path24269" />
</svg>
