<?xml version="1.0" encoding="UTF-8" standalone="no"?>
<svg
   xmlns:dc="http://purl.org/dc/elements/1.1/"
   xmlns:cc="http://creativecommons.org/ns#"
   xmlns:rdf="http://www.w3.org/1999/02/22-rdf-syntax-ns#"
   xmlns:svg="http://www.w3.org/2000/svg"
   xmlns="http://www.w3.org/2000/svg"
   xmlns:sodipodi="http://sodipodi.sourceforge.net/DTD/sodipodi-0.dtd"
   xmlns:inkscape="http://www.inkscape.org/namespaces/inkscape"
   width="1024"
   height="1024"
   id="U6781"
   version="1.1"
   inkscape:version="0.48.0 r9654"
   sodipodi:docname="U+6781.svg">
  <metadata
     id="metadata14">
    <rdf:RDF>
      <cc:Work
         rdf:about="">
        <dc:format>image/svg+xml</dc:format>
        <dc:type
           rdf:resource="http://purl.org/dc/dcmitype/StillImage" />
      </cc:Work>
    </rdf:RDF>
  </metadata>
  <defs
     id="defs12" />
  <sodipodi:namedview
     pagecolor="#ffffff"
     bordercolor="#666666"
     borderopacity="1"
     objecttolerance="10"
     gridtolerance="10"
     guidetolerance="10"
     inkscape:pageopacity="0"
     inkscape:pageshadow="2"
     inkscape:window-width="640"
     inkscape:window-height="480"
     id="namedview10"
     showgrid="false"
     inkscape:zoom="0.27441406"
     inkscape:cx="512"
     inkscape:cy="512"
     inkscape:window-x="0"
     inkscape:window-y="25"
     inkscape:window-maximized="0"
     inkscape:current-layer="U6781" />
  <path
     style="fill:#550000;fill-opacity:1;fill-rule:nonzero;stroke:#f9f9f9;stroke-width:0.1;stroke-miterlimit:4;stroke-dasharray:none"
     d="M 237.9375 204.96875 C 230.85879 204.95456 225.74995 206.58678 224.375 210.5 C 212.0673 258.728 213.60035 309.25125 213.15625 358.65625 C 213.13299 365.32222 213.11484 371.99027 213.09375 378.65625 C 195.52967 379.76971 177.95075 380.31794 160.34375 379.84375 C 141.42495 379.33875 139.04985 468.52725 157.96875 469.03125 C 165.81991 468.93725 173.66039 468.69901 181.5 468.375 C 173.27629 485.32836 165.97776 502.77356 158.84375 520.15625 C 141.51135 564.58825 127.44645 610.1775 113.28125 655.6875 C 107.69335 672.3015 102.8533 689.01275 100.25 706.34375 C 98.3235 725.21075 187.2609 734.3055 189.1875 715.4375 C 190.5473 704.7325 194.12155 692.1915 197.59375 681.3125 C 203.08557 662.79431 208.61964 644.30025 214.4375 625.875 C 216.00526 672.98091 220.46049 719.93258 223.78125 766.9375 C 224.46955 760.0975 225.7214 791.79775 222.625 784.46875 C 217.6891 802.74075 303.8141 825.99075 308.75 807.71875 C 311.9779 791.65175 314.0738 776.16075 311.625 759.71875 C 306.63875 706.13775 300.67248 652.59336 299.9375 598.71875 C 302.28438 603.75541 304.7474 608.76159 307.34375 613.71875 C 324.12125 642.98775 346.4926 668.26425 369.8125 692.40625 C 373.08942 695.65256 373.61445 696.18502 374.71875 697.28125 C 370.71808 722.87005 367.01043 748.49721 363.0625 774.09375 C 361.6356 786.95875 356.8314 798.96525 353.25 811.28125 C 352.7434 816.26925 352.2566 821.262 351.75 826.25 C 352.37656 844.58375 435.59369 842.40425 441.1875 825.21875 C 440.73793 828.28426 440.29334 831.34074 439.84375 834.40625 C 442.77255 818.43125 450.246 803.20125 450.75 786.65625 C 456.2864 744.81125 461.4585 702.9035 468.75 661.3125 C 479.73848 599.89491 492.73996 538.7758 512.625 479.53125 C 516.29868 497.1044 528.90911 512.0135 548.9375 520.15625 C 559.2541 524.35125 571.56255 523.99625 582.40625 524.40625 C 610.68855 523.06625 638.88715 521.04225 667.21875 521.28125 C 687.99755 521.54825 708.2799 525.4355 728.125 531.3125 C 729.8437 531.61208 731.89354 532.26404 733.96875 533.0625 C 733.58344 534.23967 733.27794 535.1558 732.78125 536.65625 C 723.39439 563.07593 712.98572 589.10204 702.25 615 C 688.06892 608.93867 673.70184 603.29099 659.09375 598.25 C 631.13675 588.924 601.9909 581.81425 575.5 568.78125 C 559.9294 557.94925 508.8668 631.3555 524.4375 642.1875 C 557.5337 661.4635 595.5026 669.74325 631.625 681.53125 C 643.90628 685.74033 655.97664 690.4483 667.90625 695.5 C 657.45724 719.62298 646.916 743.7361 636.21875 767.75 C 631.08415 778.702 626.34785 789.87875 620.46875 800.46875 C 620.18237 800.98453 619.88682 801.48725 619.59375 802 C 618.9598 803.10914 618.3086 804.19285 617.59375 805.25 C 612.7307 823.31713 661.93811 882.70639 675.6875 871.6875 C 696.5276 851.5205 706.1938 829.6735 717.0625 803.0625 C 726.9885 779.92707 736.85939 756.77575 746.75 733.625 C 750.3118 735.48975 753.88331 737.34465 757.4375 739.21875 C 792.8742 758.02575 827.8026 777.74125 862.625 797.65625 C 881.162 807.79625 898.85425 819.54675 917.84375 828.84375 C 935.15575 836.66675 972.03075 755.04175 954.71875 747.21875 C 938.00835 743.03775 922.33995 726.5525 906.09375 720.8125 C 870.29495 700.7975 834.43625 680.85275 798.15625 661.71875 C 792.56228 658.78791 786.98775 655.84119 781.375 652.9375 C 793.75426 623.84087 805.89349 594.61801 816.96875 565 C 827.31635 534.625 832.7172 504.13925 809.6875 477.65625 C 793.4228 461.96325 774.53855 451.21475 752.46875 445.71875 C 724.82215 438.08175 696.5959 433.0335 667.8125 432.8125 C 658.02101 432.76109 648.24373 432.89834 638.46875 433.15625 C 640.12525 431.15632 641.72352 429.11589 643.1875 427.03125 C 666.912 401.35625 691.75785 376.72375 714.96875 350.59375 C 723.97535 336.70075 733.444 326.26825 730.5625 307.03125 C 725.7329 274.78625 702.2188 261.57075 673.875 257.59375 C 642.5871 254.31275 611.1539 254.04775 579.875 257.96875 C 545.7376 261.92275 511.59335 266.53025 478.15625 274.65625 C 468.8876 277.21577 470.45073 300.63593 476.625 322.4375 C 476.21778 322.921 475.89453 323.46456 475.65625 324.0625 C 459.85785 365.7335 444.8228 407.6315 430.8125 449.9375 C 416.01775 494.78931 404.60594 540.5689 394.90625 586.71875 C 391.51211 582.0142 388.30117 577.16367 385.3125 572.15625 C 375.0722 553.47625 367.2405 534.06975 367.75 512.34375 C 367.43751 499.32183 325.14625 496.27127 298.875 501.78125 C 298.82658 487.25026 298.80082 472.71868 298.84375 458.1875 C 335.46682 453.7067 372.17125 449.64753 408.65625 444.125 C 427.26395 440.927 412.1702 353.20825 393.5625 356.40625 C 362.50754 362.51599 331.01982 366.10328 299.625 370.0625 C 299.67247 366.68926 299.69868 363.31071 299.75 359.9375 C 300.5852 320.0615 299.66095 279.21925 308.71875 240.15625 C 313.62922 226.18047 263.2186 205.01944 237.9375 204.96875 z M 617.59375 805.25 C 617.72381 804.76679 617.88463 804.32822 618.09375 803.90625 C 617.31695 804.87485 616.57186 805.86064 615.90625 806.90625 C 615.61385 807.36625 616.8723 806.319 617.1875 805.875 C 617.33219 805.6711 617.45372 805.45708 617.59375 805.25 z M 618.09375 803.90625 C 618.59776 803.2778 619.10371 802.63838 619.59375 802 C 618.97305 802.53227 618.45897 803.16931 618.09375 803.90625 z M 599.8125 344.53125 C 592.69169 352.12617 585.58431 359.71671 578.53125 367.375 C 563.7301 383.8872 548.27154 399.96264 534.625 417.40625 C 542.17459 397.13468 550.09339 377.01125 558.5625 357.09375 C 559.46617 354.82606 558.88682 352.29606 557.15625 349.65625 C 568.06139 348.11621 579.0129 346.80914 589.9375 345.5625 C 593.22818 345.15578 596.51946 344.82031 599.8125 344.53125 z M 662.96875 345.875 C 663.20872 345.90534 663.44756 345.93786 663.6875 345.96875 C 665.1246 346.34475 666.6541 346.46575 668 347.09375 C 668.4359 347.29375 667.001 347.5105 666.5625 347.3125 C 665.40635 346.791 664.19348 346.33623 662.96875 345.875 z M 599.0625 478.25 C 598.29179 480.57528 597.16027 482.90291 595.59375 485.15625 C 596.59942 482.78013 597.77518 480.4782 599.0625 478.25 z M 743.6875 538.1875 C 744.31452 538.67725 744.83998 539.14171 745.15625 539.5625 C 744.62645 539.11443 744.14196 538.66117 743.6875 538.1875 z "
     id="path8397" />
</svg>
