<?xml version="1.0" encoding="UTF-8" standalone="no"?>
<svg
   xmlns:dc="http://purl.org/dc/elements/1.1/"
   xmlns:cc="http://creativecommons.org/ns#"
   xmlns:rdf="http://www.w3.org/1999/02/22-rdf-syntax-ns#"
   xmlns:svg="http://www.w3.org/2000/svg"
   xmlns="http://www.w3.org/2000/svg"
   xmlns:sodipodi="http://sodipodi.sourceforge.net/DTD/sodipodi-0.dtd"
   xmlns:inkscape="http://www.inkscape.org/namespaces/inkscape"
   width="1024"
   height="1024"
   id="U6700"
   version="1.1"
   inkscape:version="0.48.0 r9654"
   sodipodi:docname="U+6700.svg">
  <metadata
     id="metadata19">
    <rdf:RDF>
      <cc:Work
         rdf:about="">
        <dc:format>image/svg+xml</dc:format>
        <dc:type
           rdf:resource="http://purl.org/dc/dcmitype/StillImage" />
      </cc:Work>
    </rdf:RDF>
  </metadata>
  <defs
     id="defs17" />
  <sodipodi:namedview
     pagecolor="#ffffff"
     bordercolor="#666666"
     borderopacity="1"
     objecttolerance="10"
     gridtolerance="10"
     guidetolerance="10"
     inkscape:pageopacity="0"
     inkscape:pageshadow="2"
     inkscape:window-width="640"
     inkscape:window-height="480"
     id="namedview15"
     showgrid="false"
     inkscape:zoom="0.27441406"
     inkscape:cx="512"
     inkscape:cy="512"
     inkscape:window-x="0"
     inkscape:window-y="25"
     inkscape:window-maximized="0"
     inkscape:current-layer="U6700" />
  <path
     style="fill:#2b1100;fill-opacity:1;fill-rule:nonzero;stroke:none"
     d="M 533.84375 61.375 C 498.0657 61.493334 462.45941 65.08 427.53125 73.28125 C 395.61795 81.04625 364.2218 90.572 334.125 103.875 C 333.33666 104.2308 332.66192 104.75645 332.09375 105.40625 C 311.46825 100.15746 290.42444 99.304989 288.0625 108.03125 C 279.4088 143.62925 275.7623 180.0315 274.5625 216.5625 C 273.19151 251.27735 280.5568 284.23631 294.15625 315.71875 C 290.61249 316.0921 287.07077 316.48393 283.53125 316.90625 C 264.98735 319.69425 278.1436 407.1005 296.6875 404.3125 C 328.7508 399.2875 361.2328 397.8865 393.625 396.8125 C 433.9837 395.7725 474.3639 396.8785 514.6875 398.5625 C 543.3751 400.2065 572.0819 401.42925 600.8125 401.90625 C 594.4099 401.67225 617.7614 401.476 611.625 402.625 C 620.44706 404.08544 628.34844 385.07684 632.21875 364.40625 C 656.17649 373.7569 688.65667 378.37344 691.78125 367.4375 C 692.51365 364.6685 693.23625 361.895 693.96875 359.125 C 699.24285 333.864 703.74675 308.459 708.65625 283.125 C 715.56175 248.043 722.8416 212.96525 726.875 177.40625 C 729.3009 143.61625 726.7323 111.15875 697 89.46875 C 675.7803 78.16275 653.2663 73.604 629.4375 71 C 600.1273 66.481 570.6854 62.30925 541 61.40625 C 538.61336 61.383813 536.22895 61.367111 533.84375 61.375 z M 528.15625 148.78125 C 532.00331 148.75202 535.8664 148.76025 539.71875 148.84375 C 565.26665 149.95775 590.591 153.717 615.8125 157.75 C 623.77056 159.11706 631.80883 160.16693 639.75 161.65625 C 639.66339 163.86618 639.53228 166.7525 639.21875 171.0625 C 635.79725 203.0645 629.4034 234.6535 623.125 266.1875 C 619.94059 282.09665 616.88705 298.02254 613.5625 313.90625 C 609.52604 313.66013 605.48283 313.60405 601.40625 313.84375 C 573.60005 313.94475 545.8317 312.86675 518.0625 311.46875 C 475.7855 309.95872 433.46032 308.97467 391.15625 309.90625 C 391.07646 309.74451 391.00208 309.59357 390.90625 309.4375 C 386.55187 302.80723 382.66124 295.87684 378.875 288.90625 C 381.75518 292.04839 384.70578 293.62825 387.59375 292.90625 C 416.31955 285.85425 445.84445 282.682 475.15625 279.125 C 506.62185 275.474 538.1554 271.68125 569.875 271.78125 L 575.875 272.4375 C 594.5305 273.6585 600.2805 185.68975 581.625 184.46875 C 577.3609 184.27975 573.0766 184.09625 568.8125 183.90625 C 534.0052 184.72225 499.40115 188.547 464.84375 192.625 C 431.81905 196.485 398.71155 200.15675 366.15625 207.09375 C 364.41165 207.5299 363.05374 208.7219 362 210.5 C 362.35641 201.58126 362.93899 192.68876 363.8125 183.8125 C 366.23391 185.08023 368.5236 185.40611 370.53125 184.5 C 395.20495 172.364 421.52855 164.5205 448.15625 158.0625 C 474.47677 151.96025 501.22686 148.98589 528.15625 148.78125 z M 648.375 163.34375 C 651.28597 163.79598 654.90424 164.35607 653.28125 165.4375 C 652.62875 165.8725 651.73985 165.143 650.96875 165 C 650.02447 164.43032 649.16275 163.89169 648.375 163.34375 z M 682.59375 414.09375 C 672.39222 414.08864 662.17045 414.141 651.96875 414.3125 C 590.57115 415.7195 529.2386 419.40375 468.25 426.84375 C 399.8616 435.13575 331.66595 445.06675 263.15625 452.34375 C 223.85385 456.16275 184.44445 460.12725 144.90625 459.65625 C 126.13865 459.65625 126.13865 548.125 144.90625 548.125 C 179.57834 547.18613 214.11194 544.01131 248.59375 540.40625 C 247.57444 558.7078 246.16436 576.98394 244.75 595.25 C 241.2705 636.212 237.6159 677.21075 239.1875 718.34375 C 239.9396 746.22475 249.9067 769.187 272 786.375 C 274.6703 787.958 277.3298 789.542 280 791.125 C 290.17907 796.61976 309.99987 769.24098 319.9375 745.25 C 343.53498 738.4445 367.90296 734.59212 392.125 730.75 C 408.1741 728.40011 424.26086 726.28385 440.4375 725.125 C 440.00695 736.46479 439.66411 747.81028 439.40625 759.15625 C 390.7637 773.12939 342.76575 789.07501 294.625 804.71875 C 255.9271 816.20975 216.6292 828.0565 176 829.5625 C 157.2591 829.9615 159.1341 918.30425 177.875 917.90625 C 226.3591 914.82925 273.1597 901.1265 319.375 887.0625 C 359.12245 873.93384 398.84046 860.7549 439 849.03125 C 439.59644 880.64014 441.10153 912.208 443.75 943.71875 C 444.9887 957.23175 444.4353 950.9585 445.4375 962.5625 C 447.3452 981.1905 535.1577 972.1905 533.25 953.5625 C 531.9043 942.1935 532.62595 948.21 531.15625 935.5 C 527.25085 898.269 525.3258 860.90575 524.875 823.46875 C 524.424 762.60175 525.9052 701.71675 531.8125 641.09375 C 535.9438 599.63475 539.659 557.653 551.375 517.5 C 552.53286 513.65017 549.54685 509.47511 544.09375 505.4375 C 580.5432 502.73857 617.07021 501.27577 653.625 500.71875 C 693.6848 500.46675 733.72735 501.68825 773.78125 502.15625 C 795.67005 502.49325 817.60405 501.73525 839.40625 504.03125 C 840.5819 503.24612 844.96824 504.95441 847.625 506.125 C 863.40286 515.90472 913.31749 443.59568 897.90625 432.9375 C 882.54415 423.4015 865.76285 417.82575 847.65625 416.21875 C 823.27155 414.11375 798.86165 414.53525 774.40625 414.78125 C 743.80115 414.725 713.19834 414.10908 682.59375 414.09375 z M 461.75 513.75 C 459.99416 522.17649 458.44651 530.63112 457.0625 539.125 C 436.72297 539.27924 416.46563 541.23333 396.1875 543.4375 C 375.89533 545.38878 355.57731 547.39067 335.21875 548.59375 C 335.64693 542.38453 336.06036 536.18103 336.4375 529.96875 C 378.20856 524.57124 419.94416 518.88484 461.75 513.75 z M 805.34375 560.4375 C 796.33795 560.40272 787.26025 561.0045 778.09375 562.03125 C 746.44615 564.77025 714.81415 567.579 683.09375 569.375 C 654.18515 571.303 625.26655 573.605 596.28125 573.75 C 577.50995 573.91 578.25995 662.411 597.03125 662.25 C 627.72555 660.897 658.3517 658.58775 689 656.46875 C 713.89189 654.9809 738.76503 653.05091 763.625 651.125 C 758.09162 656.6697 752.48337 662.16571 747 667.71875 C 728.93648 686.75604 710.68523 705.57829 692.34375 724.34375 C 690.02132 722.81486 687.69181 721.30742 685.34375 719.8125 C 663.62505 704.9295 640.71675 690.69175 623.34375 670.59375 C 611.47145 656.04675 542.8778 712.0145 554.75 726.5625 C 576.38706 751.2058 603.57904 769.6594 630.5625 787.90625 C 613.67924 805.65684 596.89869 823.51353 580 841.25 C 577.0518 844.4 574.08065 847.54675 571.15625 850.71875 C 568.00895 854.13375 561.67915 861.209 558.28125 865 C 556.66716 866.80084 555.21098 868.73305 553.53125 870.46875 C 554.9946 871.45032 556.4429 872.45593 557.90625 873.4375 C 552.89618 873.19391 549.18662 874.26492 547.625 877.1875 C 570.5163 895.8325 593.4211 914.479 616.3125 933.125 C 625.7252 922.693 633.98955 911.27475 643.84375 901.21875 C 662.94123 880.58869 682.01455 859.91598 701.375 839.53125 C 712.85877 849.10402 724.08988 858.98523 735.1875 869.03125 C 763.6686 895.98025 793.68495 921.14575 825.28125 944.34375 C 842.50955 956.91475 861.23675 967.12875 879.96875 977.21875 C 896.62125 985.89475 937.5275 907.39475 920.875 898.71875 C 905.7 891.08075 890.5354 883.2675 876.625 873.4375 C 847.2565 852.5035 819.6109 829.41525 793.375 804.65625 C 783.0794 795.36637 772.66716 786.20695 762.09375 777.25 C 777.71941 761.30466 793.30868 745.34627 808.8125 729.28125 C 830.8884 707.31225 854.3223 686.16275 871.375 659.84375 C 891.5585 623.13275 890.73655 588.6665 849.90625 566.8125 C 835.18919 562.29687 820.35342 560.49546 805.34375 560.4375 z M 553.53125 870.46875 C 553.4497 870.41405 553.3628 870.3672 553.28125 870.3125 C 552.97968 870.695 552.17638 871.62412 552 871.875 C 552.01727 871.86223 552.03196 871.8705 552.0625 871.84375 C 552.56466 871.4037 553.06752 870.94793 553.53125 870.46875 z M 446.78125 626.71875 C 446.59189 628.77071 446.40754 630.82401 446.21875 632.875 C 446.10274 634.1561 445.98779 635.43747 445.875 636.71875 C 423.26138 638.22376 400.77775 641.02322 378.375 644.46875 C 361.27535 647.20629 344.1516 650.01186 327.15625 653.375 C 327.49986 647.87397 327.88892 642.37258 328.3125 636.875 C 353.74922 635.1621 379.15391 632.74167 404.53125 630.3125 C 418.56839 629.42532 432.67544 627.32623 446.78125 626.71875 z M 816.59375 648.84375 C 820.63449 649.17225 821.67165 649.66595 821.53125 649.84375 C 820.99495 650.52075 819.8014 649.78 818.9375 649.75 C 818.12833 649.47007 817.35868 649.16483 816.59375 648.84375 z "
     id="path16059" />
</svg>
