<?xml version="1.0" encoding="UTF-8" standalone="no"?>
<svg
   xmlns:dc="http://purl.org/dc/elements/1.1/"
   xmlns:cc="http://creativecommons.org/ns#"
   xmlns:rdf="http://www.w3.org/1999/02/22-rdf-syntax-ns#"
   xmlns:svg="http://www.w3.org/2000/svg"
   xmlns="http://www.w3.org/2000/svg"
   xmlns:sodipodi="http://sodipodi.sourceforge.net/DTD/sodipodi-0.dtd"
   xmlns:inkscape="http://www.inkscape.org/namespaces/inkscape"
   width="1024"
   height="1024"
   id="U6751"
   version="1.1"
   inkscape:version="0.48.0 r9654"
   sodipodi:docname="U+6751.svg">
  <metadata
     id="metadata14">
    <rdf:RDF>
      <cc:Work
         rdf:about="">
        <dc:format>image/svg+xml</dc:format>
        <dc:type
           rdf:resource="http://purl.org/dc/dcmitype/StillImage" />
      </cc:Work>
    </rdf:RDF>
  </metadata>
  <defs
     id="defs12" />
  <sodipodi:namedview
     pagecolor="#ffffff"
     bordercolor="#666666"
     borderopacity="1"
     objecttolerance="10"
     gridtolerance="10"
     guidetolerance="10"
     inkscape:pageopacity="0"
     inkscape:pageshadow="2"
     inkscape:window-width="640"
     inkscape:window-height="480"
     id="namedview10"
     showgrid="false"
     inkscape:zoom="0.27441406"
     inkscape:cx="512"
     inkscape:cy="512"
     inkscape:window-x="0"
     inkscape:window-y="25"
     inkscape:window-maximized="0"
     inkscape:current-layer="U6751" />
  <path
     style="fill:#800000;fill-opacity:1;fill-rule:nonzero;stroke:#f9f9f9;stroke-width:0.1;stroke-miterlimit:4;stroke-dasharray:none"
     d="M 720.4375 154.03125 C 710.20818 154.13357 702.6194 156.29597 701.5 161.40625 C 695.3706 206.18325 697.39995 251.682 697.78125 296.75 C 697.88262 310.4544 697.93024 324.17073 697.9375 337.875 C 678.1794 342.4873 658.42886 347.20698 638.71875 352.03125 C 597.17755 361.94665 555.69155 372.21325 513.78125 380.46875 C 495.61095 384.33175 513.8297 469.988 532 466.125 C 574.3191 455.8798 616.56805 445.32835 658.84375 434.90625 C 671.72121 431.65787 684.62 428.50936 697.53125 425.40625 C 697.18326 465.89353 696.67148 506.3889 696.3125 546.875 C 696.17803 559.5876 696.12955 572.28845 696.125 585 C 665.04886 569.08968 633.32045 554.54187 601.03125 541.25 C 583.74795 534.4696 551.81035 615.93835 569.09375 622.71875 C 599.36695 633.75945 628.6064 647.32885 657.25 662.03125 C 667.67967 667.38062 687.53505 637.802 696.21875 613.65625 C 696.55974 667.61635 697.84054 721.55832 699.34375 775.5 C 699.54285 808.3513 702.0406 841.2115 701.9375 874.0625 C 701.71634 876.28181 701.63539 877.32049 701.59375 877.53125 C 706.2747 894.72746 783.53491 910.56183 787.28125 893.3125 C 789.52865 878.6808 788.97735 885.61515 789.28125 872.59375 C 788.21115 839.24405 785.3493 805.95805 784.5 772.59375 C 781.4418 697.64355 779.1866 622.6506 780 547.625 C 780.43708 500.57217 781.07934 453.51979 781.65625 406.46875 C 796.41488 403.39991 811.2108 400.46509 826.03125 397.6875 C 847.91495 393.7537 869.92105 390.7087 891.96875 387.875 C 910.23135 385.3015 898.10635 299.239 879.84375 301.8125 C 856.42485 305.389 833.0203 309.07115 809.75 313.53125 C 800.67171 315.337 791.6218 317.20175 782.5625 319.09375 C 782.6174 311.60395 782.67961 304.11497 782.71875 296.625 C 782.93395 257.8539 781.74815 218.666 787.15625 180.1875 C 790.01695 167.12788 746.57908 153.76977 720.4375 154.03125 z M 701.59375 877.53125 C 701.58246 877.48978 701.57294 877.44773 701.5625 877.40625 C 701.56943 877.52912 701.58105 877.59551 701.59375 877.53125 z M 701.5625 877.40625 C 701.54423 877.08228 701.51145 876.31474 701.46875 874.6875 C 701.27172 875.59468 701.33477 876.50153 701.5625 877.40625 z M 282.09375 156.96875 C 271.87329 157.013 264.30358 159.15077 263.15625 164.25 C 256.00905 215.1783 256.7479 266.89915 255.875 318.21875 C 255.51343 339.3481 255.06451 360.46883 254.53125 381.59375 C 225.65704 386.9848 196.85561 392.75375 168.125 398.90625 C 149.9972 402.89175 168.77855 488.3606 186.90625 484.375 C 208.4704 478.76889 230.20842 473.92385 252.03125 469.5 C 251.72884 479.48835 251.42797 489.48041 251.125 499.46875 C 244.79319 495.3799 239.28494 493.8464 235.96875 496.5625 C 204.25365 526.273 183.94215 565.0127 164.96875 603.5 C 147.04705 641.8927 129.8748 680.69825 115.5625 720.59375 C 114.2451 724.96505 112.9423 729.3163 111.625 733.6875 C 106.6277 751.4758 190.47145 775.0383 195.46875 757.25 C 196.15675 754.4833 196.84335 751.7042 197.53125 748.9375 C 209.72345 712.1033 225.6251 676.6381 242 641.5 C 243.94582 637.56165 245.89143 633.60865 247.875 629.65625 C 247.13504 685.41956 247.32603 741.20482 247.9375 796.96875 C 248.8698 826.69855 248.55845 856.62935 252.03125 886.21875 C 255.13975 904.60535 341.82715 889.9491 338.71875 871.5625 C 333.76365 846.7411 335.0813 820.7086 333.3125 795.5 C 331.6132 724.4574 331.00215 653.3661 332.46875 582.3125 C 333.49798 539.67678 334.84053 497.06252 336.21875 454.4375 C 366.23593 449.96061 396.39445 446.47091 426.625 443.75 C 437.504 442.8194 448.4176 442.583 459.3125 441.9375 C 477.8611 440.4938 471.0486 353.0563 452.5 354.5 C 440.999 355.7112 429.4284 356.05175 417.9375 357.40625 C 391.56171 360.32561 365.22886 363.6344 338.96875 367.4375 C 339.45707 351.68355 339.93503 335.91177 340.375 320.15625 C 341.7091 274.59885 341.5983 228.6194 348.625 183.5 C 351.55707 170.46863 308.21271 156.85566 282.09375 156.96875 z M 410.6875 531.28125 C 391.51356 532.75213 346.22147 588.77617 359.09375 599.65625 C 379.05485 617.66005 400.15255 634.1289 422.40625 649.1875 C 442.51115 662.3279 463.8358 673.4341 485.25 684.25 C 501.7854 692.4836 540.5979 614.5461 524.0625 606.3125 C 505.9389 597.4329 487.8988 588.26485 470.9375 577.28125 C 451.2312 564.02915 432.7429 549.2507 415.6875 532.6875 C 414.35588 531.56198 412.67101 531.12909 410.6875 531.28125 z "
     id="path21455" />
</svg>
