<?xml version="1.0" encoding="UTF-8" standalone="no"?>
<svg
   xmlns:dc="http://purl.org/dc/elements/1.1/"
   xmlns:cc="http://creativecommons.org/ns#"
   xmlns:rdf="http://www.w3.org/1999/02/22-rdf-syntax-ns#"
   xmlns:svg="http://www.w3.org/2000/svg"
   xmlns="http://www.w3.org/2000/svg"
   xmlns:sodipodi="http://sodipodi.sourceforge.net/DTD/sodipodi-0.dtd"
   xmlns:inkscape="http://www.inkscape.org/namespaces/inkscape"
   width="1024"
   height="1024"
   id="U670B"
   version="1.1"
   inkscape:version="0.48.0 r9654"
   sodipodi:docname="U+670B.svg">
  <metadata
     id="metadata15">
    <rdf:RDF>
      <cc:Work
         rdf:about="">
        <dc:format>image/svg+xml</dc:format>
        <dc:type
           rdf:resource="http://purl.org/dc/dcmitype/StillImage" />
      </cc:Work>
    </rdf:RDF>
  </metadata>
  <defs
     id="defs13" />
  <sodipodi:namedview
     pagecolor="#ffffff"
     bordercolor="#666666"
     borderopacity="1"
     objecttolerance="10"
     gridtolerance="10"
     guidetolerance="10"
     inkscape:pageopacity="0"
     inkscape:pageshadow="2"
     inkscape:window-width="640"
     inkscape:window-height="480"
     id="namedview11"
     showgrid="false"
     inkscape:zoom="0.27441406"
     inkscape:cx="512"
     inkscape:cy="512"
     inkscape:window-x="0"
     inkscape:window-y="25"
     inkscape:window-maximized="0"
     inkscape:current-layer="U670B" />
  <path
     style="fill:#c83737;fill-opacity:1;fill-rule:nonzero;stroke:#f9f9f9;stroke-width:0.1;stroke-miterlimit:4;stroke-dasharray:none"
     d="M 799.5 171.4375 C 767.95385 171.87813 737.1311 178.03912 707.3125 189.1875 C 674.591 201.9475 643.05975 217.4485 615.78125 239.9375 C 606.41986 248.03109 628.40987 279.89265 648.53125 297.125 C 646.30643 306.91682 644.21966 316.74313 642.125 326.4375 C 625.7454 410.3745 615.30025 495.31525 604.90625 580.15625 C 595.93405 650.22825 589.5777 720.562 586.3125 791.125 C 585.017 823.38 584.86475 855.6795 586.09375 887.9375 C 587.26245 906.6495 675.45005 901.1505 674.28125 882.4375 C 671.53585 853.2545 672.1361 823.85975 672.5625 794.59375 C 673.2744 773.27049 674.29252 751.97359 675.625 730.6875 C 679.48509 733.65989 683.06342 734.82771 685.96875 733.375 C 717.67925 715.223 750.99895 700.52575 785.53125 688.71875 C 814.14945 680.17775 844.31 673.2955 873.9375 680.1875 L 879.25 682.5625 C 879.28138 682.57309 879.31231 682.58373 879.34375 682.59375 C 879.34228 695.55319 879.27801 708.50847 879.125 721.46875 C 878.6338 756.69375 876.43605 791.8585 875.34375 827.0625 C 874.65415 841.1505 875.42255 855.3 874.53125 869.375 C 873.87275 888.143 962.3415 891.23675 963 872.46875 C 963.2719 858.03075 962.85565 843.59625 963.15625 829.15625 C 963.73115 793.45125 965.39875 757.7775 965.46875 722.0625 C 965.59545 658.5215 964.08745 594.98075 962.28125 531.46875 C 960.20955 465.38575 959.2206 398.90825 948.4375 333.53125 C 939.2059 290.47925 927.0428 247.657 897.0625 214 C 873.6455 190.535 846.9136 174.21575 813.0625 171.59375 C 808.52754 171.42125 804.00659 171.37455 799.5 171.4375 z M 449.53125 203.125 C 444.47387 203.14324 439.44009 203.354 434.4375 203.65625 C 402.2232 205.80525 369.9989 208.80975 338.25 214.84375 C 308.58147 221.40316 279.46675 230.1684 253.9375 247.15625 C 241.97769 244.93099 232.38405 245.59066 230.28125 251.09375 C 215.52395 298.90075 207.8915 348.5835 199.5625 397.8125 C 186.832 475.8925 176.14865 554.288 165.15625 632.625 C 157.65075 684.838 150.77185 737.144 143.40625 789.375 C 141.08065 805.433 138.7173 821.47275 136 837.46875 C 133.3312 856.07175 221.0187 868.6655 223.6875 850.0625 C 225.6148 833.6015 227.9796 817.18475 229.875 800.71875 C 236.2335 748.52075 242.4755 696.31775 249.625 644.21875 C 249.67802 643.82324 249.72823 643.42676 249.78125 643.03125 C 254.03553 663.95048 262.43443 683.36749 271.34375 681.6875 C 305.52515 673.5595 339.43385 664.339 373.46875 655.625 C 400.57937 648.66944 427.95497 642.79733 455.46875 637.71875 C 454.06944 682.41111 453.16688 727.10171 454.15625 771.8125 C 454.66242 796.24861 456.60343 820.63531 457.90625 845.03125 C 458.40942 841.52277 458.90308 838.00855 459.40625 834.5 C 459.91227 852.4019 537.40025 879.31594 543.5 862.25 C 546.8435 843.455 546.70275 851.2355 546.21875 839.0625 C 544.01825 815.8065 541.9123 792.56275 540.875 769.21875 C 538.553 709.65475 540.3556 650.01975 542.375 590.46875 C 545.0296 519.57675 549.5344 448.74025 549.8125 377.78125 C 548.8922 330.24725 550.07135 279.818 525.65625 237.375 C 520.76085 231.977 516.56615 225.8545 510.96875 221.1875 C 493.37 206.517 471.44654 203.04596 449.53125 203.125 z M 457.90625 845.03125 C 457.84646 845.44813 457.77854 845.86439 457.71875 846.28125 C 457.78775 846.07725 457.8688 845.8925 457.9375 845.6875 C 457.92593 845.46896 457.91792 845.24978 457.90625 845.03125 z M 799.375 258.90625 C 802.33384 258.93889 805.30636 259.0785 808.28125 259.34375 C 819.43285 260.81575 826.72405 267.12625 833.90625 275.15625 C 851.52215 297.11825 857.9463 324.843 863.75 351.75 C 873.7757 412.004 874.8778 473.29875 876.875 534.21875 C 877.44687 553.60976 877.94193 573.01236 878.34375 592.40625 C 837.32393 587.76799 796.83409 593.4889 757.34375 606.75 C 732.22606 615.4257 707.64338 625.27961 683.53125 636.28125 C 685.13446 620.94706 686.87585 605.64818 688.78125 590.34375 C 691.52004 567.57721 694.31641 544.78545 697.25 522.03125 C 714.17982 517.76085 731.39981 514.55193 748.65625 511.78125 C 782.12245 507.46625 816.1123 504.587 849.6875 509.125 C 868.1668 511.2 877.94805 424.076 859.46875 422 C 817.93125 417.945 776.20995 420.13975 734.90625 425.96875 C 726.7047 427.28135 718.50336 428.69979 710.34375 430.21875 C 714.9114 401.76333 720.03995 373.39936 726 345.1875 C 732.06794 319.05749 736.99198 291.20541 749.5 267.125 C 765.74501 262.15978 782.42739 258.7193 799.375 258.90625 z M 454.8125 290.71875 C 457.86054 290.71307 460.8003 291.06688 463.40625 292.34375 C 463.94885 292.60875 457.0711 291.74775 456 291.34375 C 461.9282 320.16575 462.71495 350.408 463.59375 379.875 C 463.90116 435.94598 461.23683 491.95754 458.8125 547.96875 C 457.68738 548.17419 456.56262 548.38816 455.4375 548.59375 C 420.7319 555.15175 386.19045 562.57875 351.96875 571.34375 C 320.18252 579.41686 288.51393 588.07299 256.34375 594.5 C 259.3843 572.07242 262.43376 549.65167 265.65625 527.25 C 272.75463 533.89973 279.39875 537.32752 283.65625 534.5625 C 304.06525 521.6605 327.19295 514.421 350.53125 509 C 360.56625 506.744 370.64905 506.39375 380.84375 506.96875 C 399.47335 507.28775 400.97335 419.47525 382.34375 419.15625 C 364.77785 419.17925 347.33955 419.769 330.15625 424 C 312.88119 428.23583 295.75334 433.18721 279.15625 439.46875 C 280.64158 430.49926 282.1844 421.55065 283.75 412.59375 C 289.28252 382.19242 294.41557 351.51123 301.78125 321.4375 C 302.27856 321.26178 302.74617 321.02819 303.1875 320.71875 C 319.1058 309.18175 338.0461 304.449 356.9375 300.375 C 384.3195 295.269 412.12605 292.7985 439.90625 291.1875 C 444.37806 291.74 449.73243 290.72821 454.8125 290.71875 z "
     id="path10223" />
</svg>
