<?xml version="1.0" encoding="UTF-8" standalone="no"?>
<svg
   xmlns:dc="http://purl.org/dc/elements/1.1/"
   xmlns:cc="http://creativecommons.org/ns#"
   xmlns:rdf="http://www.w3.org/1999/02/22-rdf-syntax-ns#"
   xmlns:svg="http://www.w3.org/2000/svg"
   xmlns="http://www.w3.org/2000/svg"
   xmlns:sodipodi="http://sodipodi.sourceforge.net/DTD/sodipodi-0.dtd"
   xmlns:inkscape="http://www.inkscape.org/namespaces/inkscape"
   width="1024"
   height="1024"
   id="U6742"
   version="1.1"
   inkscape:version="0.48.0 r9654"
   sodipodi:docname="U+6742.svg">
  <metadata
     id="metadata13">
    <rdf:RDF>
      <cc:Work
         rdf:about="">
        <dc:format>image/svg+xml</dc:format>
        <dc:type
           rdf:resource="http://purl.org/dc/dcmitype/StillImage" />
      </cc:Work>
    </rdf:RDF>
  </metadata>
  <defs
     id="defs11" />
  <sodipodi:namedview
     pagecolor="#ffffff"
     bordercolor="#666666"
     borderopacity="1"
     objecttolerance="10"
     gridtolerance="10"
     guidetolerance="10"
     inkscape:pageopacity="0"
     inkscape:pageshadow="2"
     inkscape:window-width="640"
     inkscape:window-height="480"
     id="namedview9"
     showgrid="false"
     inkscape:zoom="0.27441406"
     inkscape:cx="512"
     inkscape:cy="512"
     inkscape:window-x="0"
     inkscape:window-y="25"
     inkscape:window-maximized="0"
     inkscape:current-layer="U6742" />
  <path
     style="fill:#2b1100;fill-opacity:1;fill-rule:nonzero;stroke:none"
     d="M 463.71875 103.84375 C 455.10433 103.88428 448.84877 105.79425 447.59375 110.3125 C 437.90697 151.1737 428.11552 192.00118 417.96875 232.75 C 409.22564 234.31043 400.49837 235.99354 391.78125 237.75 C 353.05555 245.08 314.2997 252.42475 275.875 261.21875 C 257.7176 266.01475 280.3426 351.6085 298.5 346.8125 C 330.0419 338.19107 362.11037 331.66412 394.1875 325.3125 C 385.26689 359.68221 376.30914 394.05031 367.21875 428.375 C 359.27105 458.402 350.3478 488.2105 343.6875 518.5625 C 339.9756 536.9215 426.50675 554.4205 430.21875 536.0625 C 435.38115 507.0165 443.8718 478.655 450.75 450 C 462.57435 403.19553 474.5077 356.40008 486.6875 309.6875 C 509.30106 307.09387 532.02488 305.60997 554.875 305.75 C 560.5759 306.184 566.28665 306.4285 571.96875 307.0625 C 588.83185 308.9415 609.7964 315.57775 603.3125 316.96875 C 600.2059 318.02075 600.05855 312.87075 597.71875 312.71875 C 597.30745 312.69275 595.1571 344.6685 595 346.5625 C 590.9388 379.2425 588.55195 411.7885 592.28125 444.5625 C 600.93315 488.7155 626.63325 511.1765 666.78125 527.0625 C 693.75825 535.7465 722.2053 536.12475 750.25 536.96875 C 766.3428 537.44075 782.4288 537.60575 798.5 536.59375 C 817.2068 535.18975 810.61305 447.00325 791.90625 448.40625 C 778.90805 449.67725 765.7892 449.20575 752.75 449.09375 C 734.2278 448.59375 715.45355 448.59975 697.28125 444.59375 C 689.32945 442.26075 681.77 441.95275 679.25 433.21875 C 674.9237 406.94175 680.05995 380.393 682.28125 354.125 C 685.56635 317.627 689.35375 281.2725 662.71875 251.8125 C 657.79185 247.8575 653.2302 243.3885 647.9375 239.9375 C 620.6158 222.1255 586.0153 220.799 554.625 219 C 539.62351 219.15261 524.66248 219.8023 509.75 220.90625 C 517.17002 191.85761 524.61202 162.81304 532.78125 133.96875 C 536.54633 120.414 489.56202 103.72216 463.71875 103.84375 z M 499.53125 447.09375 C 485.656 447.0094 474.69589 449.61966 473.71875 456 C 469.97475 497.755 472.257 539.81425 473.1875 581.65625 C 473.31514 587.72053 473.41264 593.77929 473.5 599.84375 C 422.29019 607.56399 371.08748 615.21308 319.71875 621.8125 C 270.12645 628.2185 220.52635 635.02925 170.71875 639.53125 C 152.06565 641.24925 160.1593 729.18675 178.8125 727.46875 C 229.6074 720.76475 280.35125 713.589 331.09375 706.5 C 340.82343 705.15091 350.55802 703.79902 360.28125 702.40625 C 314.2975 741.57372 269.92244 782.60654 226.84375 824.9375 C 205.62885 845.7935 186.007 867.9365 171.875 894.1875 C 163.5869 910.9685 242.68065 950.031 250.96875 933.25 C 256.82225 914.322 276.60015 901.45775 287.84375 886.21875 C 328.67425 845.02975 371.2383 805.54075 415.75 768.34375 C 434.39851 753.43181 453.18856 738.0558 473.53125 725.34375 C 473.38332 746.97538 473.24022 768.58788 473.21875 790.21875 C 472.95705 834.23475 475.33955 878.18675 478.03125 922.09375 C 478.55455 932.86575 478.35215 927.9585 478.71875 936.8125 C 480.03935 955.5405 568.3206 949.2905 567 930.5625 C 566.1094 921.7225 566.57625 926.7645 565.59375 915.4375 C 561.83265 873.7275 558.92975 831.94025 558.84375 790.03125 C 558.7468 771.65487 558.76958 753.28159 558.84375 734.90625 C 582.77048 747.80452 606.54896 760.93206 630.3125 774.125 C 680.5681 801.566 728.79475 832.397 775.03125 866.125 C 795.94885 881.576 815.6224 898.595 834.6875 916.25 C 848.3922 928.713 907.1421 864.088 893.4375 851.625 C 871.6639 832.129 849.29605 813.266 825.59375 796.125 C 776.39785 760.877 725.3826 728.39425 672.4375 699.03125 C 652.44218 687.71617 632.38762 676.47271 612.375 665.1875 C 662.17484 658.8402 712.24625 655.26796 762.46875 654.25 C 791.44115 653.952 820.46895 654.3775 849.34375 656.9375 C 868.00765 658.2695 874.2889 570.2695 855.625 568.9375 C 823.8259 567.1105 791.9615 566.9645 760.125 567.8125 C 693.2638 570.0715 626.6484 576.1815 560.5625 586.8125 C 560.13543 586.87516 559.70831 586.93728 559.28125 587 C 559.26604 584.7603 559.26908 582.52097 559.25 580.28125 C 558.9101 543.36225 557.2481 506.142 561.1875 469.375 C 563.05302 457.19434 526.02036 447.25479 499.53125 447.09375 z "
     id="path13705" />
</svg>
