<?xml version="1.0" encoding="UTF-8" standalone="no"?>
<svg
   xmlns:dc="http://purl.org/dc/elements/1.1/"
   xmlns:cc="http://creativecommons.org/ns#"
   xmlns:rdf="http://www.w3.org/1999/02/22-rdf-syntax-ns#"
   xmlns:svg="http://www.w3.org/2000/svg"
   xmlns="http://www.w3.org/2000/svg"
   xmlns:sodipodi="http://sodipodi.sourceforge.net/DTD/sodipodi-0.dtd"
   xmlns:inkscape="http://www.inkscape.org/namespaces/inkscape"
   width="1024"
   height="1024"
   id="U673A"
   version="1.1"
   inkscape:version="0.48.0 r9654"
   sodipodi:docname="U+673A.svg">
  <metadata
     id="metadata13">
    <rdf:RDF>
      <cc:Work
         rdf:about="">
        <dc:format>image/svg+xml</dc:format>
        <dc:type
           rdf:resource="http://purl.org/dc/dcmitype/StillImage" />
      </cc:Work>
    </rdf:RDF>
  </metadata>
  <defs
     id="defs11" />
  <sodipodi:namedview
     pagecolor="#ffffff"
     bordercolor="#666666"
     borderopacity="1"
     objecttolerance="10"
     gridtolerance="10"
     guidetolerance="10"
     inkscape:pageopacity="0"
     inkscape:pageshadow="2"
     inkscape:window-width="640"
     inkscape:window-height="480"
     id="namedview9"
     showgrid="false"
     inkscape:zoom="0.27441406"
     inkscape:cx="512"
     inkscape:cy="512"
     inkscape:window-x="0"
     inkscape:window-y="25"
     inkscape:window-maximized="0"
     inkscape:current-layer="U673A" />
  <path
     style="fill:#550000;fill-opacity:1;fill-rule:nonzero;stroke:#f9f9f9;stroke-width:0.1;stroke-miterlimit:4;stroke-dasharray:none"
     d="M 268.0625 119.875 C 252.25879 119.78276 239.24636 122.69325 238.40625 129.75 C 235.78325 182.585 241.6832 235.439 246.375 288 C 249.17333 315.41567 251.50818 342.87162 253.53125 370.34375 C 242.63518 372.84312 231.71114 375.22146 220.75 377.4375 C 179.3671 385.4815 137.64405 391.70075 96.40625 400.46875 C 78.14565 405.44875 101.64555 491.5425 119.90625 486.5625 C 148.16038 479.65543 176.79003 474.56453 205.40625 469.3125 C 192.87582 497.58096 182.38812 526.7467 172.125 555.90625 C 159.401 593.57525 146.6066 631.36225 138.25 670.28125 C 134.6317 688.76125 221.72555 705.82375 225.34375 687.34375 C 231.18855 652.33475 243.93345 618.81325 254.78125 585.15625 C 257.68209 577.00543 260.60622 568.82336 263.59375 560.6875 C 265.99644 633.59666 269.48097 706.47538 274.03125 779.28125 C 276.20735 811.59425 279.1128 843.856 279.6875 876.25 C 280.2979 895.045 368.89165 892.171 368.28125 873.375 C 366.77565 839.96 363.5772 806.67175 360.8125 773.34375 C 356.36005 713.37886 352.85415 653.35559 350.3125 593.28125 C 350.43656 593.38717 350.56354 593.48769 350.6875 593.59375 C 373.02463 614.06256 394.44128 635.50468 416.15625 656.625 C 415.26287 664.96964 414.35354 673.31405 413.4375 681.65625 C 409.55 711.55425 411.62735 697.53675 407.40625 723.71875 C 404.70525 742.18875 491.76775 754.93875 494.46875 736.46875 C 498.32975 707.43075 496.4691 722.7305 500 690.5625 C 501.52536 674.63593 503.0369 658.70784 504.5625 642.78125 C 510.01524 632.6071 512.11708 623.80882 507.71875 620.1875 C 507.27185 619.83605 507.19817 619.77138 506.8125 619.46875 C 511.41726 572.00758 516.25335 524.55776 522.03125 477.21875 C 526.49919 438.0646 530.90192 398.90392 536.15625 359.84375 C 557.24761 357.53158 578.4918 356.74736 599.6875 356.125 C 617.3559 357.458 639.4593 352.3925 655.5 362.1875 C 658.0075 374.9205 660.74515 388.12575 662.53125 401.21875 C 667.19835 452.25675 665.7081 503.606 664 554.75 C 661.861 602.842 659.4915 650.928 662.875 699 C 665.999 739.71 683.66595 772.89375 712.28125 801.09375 C 743.01835 827.64675 780.4174 834.33025 819.75 834.03125 C 850.0118 832.16225 879.9058 826.76925 909.8125 822.03125 C 921.6984 820.16025 933.55995 818.21625 945.34375 815.78125 C 963.85545 811.67425 944.48045 724.42425 925.96875 728.53125 C 915.89895 731.02125 905.6455 732.59625 895.4375 734.40625 C 869.8082 738.74425 844.1883 743.47425 818.25 745.53125 C 802.4263 746.06425 786.47285 746.0205 773.03125 736.4375 C 759.03165 725.0345 752.6262 710.07875 750.75 692.09375 C 746.7785 647.32475 749.47035 602.42875 751.03125 557.59375 C 752.83765 501.49075 754.54745 445.1875 749.65625 389.1875 C 743.49145 344.9025 732.6484 302.0855 689.625 280.0625 C 659.7512 268.7845 628.9257 265.8785 597.0625 267.6875 C 568.8844 268.5385 540.6685 269.73875 512.625 272.71875 C 504.32508 274.00686 502.41954 292.04469 504.46875 311.5 C 480.59366 307.01234 453.30479 307.80472 451.8125 318.09375 C 446.6046 368.01875 441.34595 417.947 436.15625 467.875 C 433.24844 493.71776 430.48878 519.57332 427.78125 545.4375 C 421.19384 539.16584 414.56483 532.91312 407.84375 526.78125 C 387.63692 509.48853 366.44317 493.57797 345.34375 477.46875 C 344.71004 464.43184 344.04868 451.40788 343.34375 438.375 C 353.23492 435.84771 363.11917 433.28133 373 430.71875 C 385.1521 427.59875 397.2646 424.37075 409.375 421.09375 C 427.5313 415.88575 402.9687 330.32325 384.8125 335.53125 C 373.3323 339.02825 361.8305 342.37925 350.25 345.53125 C 346.09865 346.67171 341.93593 347.80766 337.78125 348.9375 C 336.15016 326.23486 334.32828 303.5495 332.28125 280.875 C 328.68675 234.208 323.7909 187.1255 327.125 140.3125 C 328.52519 128.55125 294.40201 120.02873 268.0625 119.875 z "
     id="path8327" />
</svg>
