<?xml version="1.0" encoding="UTF-8" standalone="no"?>
<svg
   xmlns:dc="http://purl.org/dc/elements/1.1/"
   xmlns:cc="http://creativecommons.org/ns#"
   xmlns:rdf="http://www.w3.org/1999/02/22-rdf-syntax-ns#"
   xmlns:svg="http://www.w3.org/2000/svg"
   xmlns="http://www.w3.org/2000/svg"
   xmlns:sodipodi="http://sodipodi.sourceforge.net/DTD/sodipodi-0.dtd"
   xmlns:inkscape="http://www.inkscape.org/namespaces/inkscape"
   width="1024"
   height="1024"
   id="U671D"
   version="1.1"
   inkscape:version="0.48.0 r9654"
   sodipodi:docname="U+671D.svg">
  <metadata
     id="metadata19">
    <rdf:RDF>
      <cc:Work
         rdf:about="">
        <dc:format>image/svg+xml</dc:format>
        <dc:type
           rdf:resource="http://purl.org/dc/dcmitype/StillImage" />
      </cc:Work>
    </rdf:RDF>
  </metadata>
  <defs
     id="defs17" />
  <sodipodi:namedview
     pagecolor="#ffffff"
     bordercolor="#666666"
     borderopacity="1"
     objecttolerance="10"
     gridtolerance="10"
     guidetolerance="10"
     inkscape:pageopacity="0"
     inkscape:pageshadow="2"
     inkscape:window-width="640"
     inkscape:window-height="480"
     id="namedview15"
     showgrid="false"
     inkscape:zoom="0.27441406"
     inkscape:cx="512"
     inkscape:cy="512"
     inkscape:window-x="0"
     inkscape:window-y="25"
     inkscape:window-maximized="0"
     inkscape:current-layer="U671D" />
  <path
     style="fill:#2b1100;fill-opacity:1;fill-rule:nonzero;stroke:none"
     d="M 289.03125 98 C 266.9491 98 244.875 102.66225 244.875 112.03125 C 244.96091 132.45245 244.28749 152.88034 243.4375 173.28125 C 236.26479 174.73339 229.09717 176.3294 221.96875 178.0625 C 184.69415 186.8825 147.7421 196.8015 110.875 207.1875 C 92.8789 212.4715 117.78515 297.31625 135.78125 292.03125 C 170.37985 280.74155 205.48068 271.17735 240.84375 262.625 C 241.26378 282.75399 242.70944 302.84535 244.9375 322.875 C 247.1789 341.357 334.3039 330.7935 332.0625 312.3125 C 329.26686 291.4276 327.6562 270.43139 327.5625 249.375 C 338.27176 248.69123 349.02361 248.31481 359.78125 248.25 C 380.60715 248.282 401.29815 250.89 422.09375 251.5 C 440.86105 251.747 442.0173 163.27825 423.25 163.03125 C 401.6659 163.35925 380.1126 160.0545 358.5 160.9375 C 349.28726 161.13673 340.09069 161.51223 330.90625 162.0625 C 331.74466 145.39617 332.59956 128.70892 333.21875 112.03125 C 333.21875 102.66225 311.1134 98 289.03125 98 z M 756.25 174.84375 C 742.96126 174.94353 729.63156 175.67688 716.3125 177.09375 C 684.212 180.40775 652.2032 184.75575 620.875 192.71875 C 613.79209 194.66285 613.0851 208.92478 615.90625 225.25 C 602.42918 226.45346 592.05798 230.01635 591.65625 236.34375 C 590.13735 285.76275 586.6178 335.05375 582.875 384.34375 C 575.0924 478.72075 566.6567 573.04575 559.4375 667.46875 C 553.4086 749.35875 549.15885 831.37575 547.40625 913.46875 C 547.21835 948.39275 547.125 931.77275 547.5625 963.34375 C 548.0505 981.76675 634.9256 979.45425 634.4375 961.03125 C 633.2684 931.94425 633.6971 947.4285 633.25 914.6875 C 633.61192 856.84711 635.65355 799.02657 638.90625 741.28125 C 677.45975 732.97251 715.88635 724.19543 754.65625 716.90625 C 791.93485 710.71025 829.8139 704.90275 867.5625 709.71875 C 867.7069 709.75684 876.03284 712.91235 875.9375 713.1875 C 877.03704 713.10286 878.21518 712.83456 879.46875 712.40625 C 878.94502 738.37219 878.49999 764.33973 878.3125 790.3125 C 877.9514 845.6115 880.58165 900.852 884.40625 956 C 885.16285 967.444 886.22365 978.85125 887.15625 990.28125 C 889.10235 1008.9132 976.9462 999.757 975 981.125 C 973.6316 970.449 972.2566 959.76225 971.375 949.03125 C 966.5674 896.38425 963.48 843.5735 963.5 790.6875 C 963.6397 709.8185 966.27995 628.99825 968.15625 548.15625 C 969.39635 482.35625 971.11035 416.33675 964.84375 350.71875 C 960.13985 312.21575 954.37845 273.1185 932.96875 239.8125 C 909.14635 208.8375 881.7617 191.929 843.4375 183.25 C 814.60567 177.53481 785.48523 174.62424 756.25 174.84375 z M 756.9375 261.875 C 780.02801 261.6068 803.02706 263.80513 825.71875 268.78125 C 840.36285 272.66625 854.0427 278.055 861.8125 291.5 C 872.6369 313.268 875.5136 337.7695 878.625 361.5625 C 885.0597 423.0815 883.8883 485.0635 883.125 546.8125 C 882.68141 572.29152 882.07516 597.77504 881.46875 623.25 C 879.83051 623.0116 878.18189 622.79752 876.46875 622.65625 C 830.28205 618.65025 784.30025 623.49 738.78125 631.875 C 707.45225 637.68346 676.32864 644.48023 645.03125 650.40625 C 648.5377 605.2382 652.35566 560.0927 656.375 514.96875 C 659.46895 518.70098 662.69913 520.64357 665.84375 519.875 C 695.72485 513.107 726.53665 512.16025 757.03125 510.78125 C 788.90805 509.85325 820.7919 508.4625 852.6875 508.5625 L 860.1875 509.125 C 878.8446 510.079 883.3447 422.1415 864.6875 421.1875 L 852.125 420.71875 C 819.121 421.21375 786.14885 422.802 753.15625 423.75 C 723.42032 425.06838 693.52889 426.33431 664.0625 430.6875 C 665.29092 417.58171 666.53301 404.47912 667.78125 391.375 C 671.38678 351.03018 674.72987 310.66683 677.8125 270.28125 C 693.57218 267.40488 709.51434 265.45888 725.4375 263.75 C 735.94981 262.63781 746.44182 261.99691 756.9375 261.875 z M 342.71875 332.40625 C 308.80108 332.7597 275.07246 336.58456 241.78125 343.75 C 207.44475 351.236 173.27715 359.943 141.09375 374.375 C 134.70132 377.47006 136.22791 390.79274 141.53125 405.71875 C 114.95856 405.8076 73.839105 418.01771 76.375 430.8125 C 83.485 464.6305 86.9666 499.086 90.9375 533.375 C 95.0106 572.515 100.27875 611.50125 113.59375 648.65625 C 118.80945 663.61525 128.2567 674.38125 139.125 685.40625 C 145.74503 691.12813 161.8133 679.61214 175.6875 664.46875 C 197.08944 661.48428 218.67334 659.72495 240.21875 658.125 C 245.26799 657.78617 250.32358 657.45231 255.375 657.15625 C 255.63645 678.85844 256.38676 700.56742 256.96875 722.25 C 257.01914 723.86346 257.04515 725.48025 257.09375 727.09375 C 240.0768 728.67099 223.05587 730.33146 206.0625 732.15625 C 162.9186 736.81125 119.92715 742.42425 77.09375 749.40625 C 58.55665 752.18625 71.6503 839.56125 90.1875 836.78125 C 131.6113 828.18825 173.5559 822.65 215.5625 817.875 C 230.15824 816.24076 244.7565 814.7426 259.375 813.34375 C 259.95157 833.86472 260.62511 854.39747 261.59375 874.90625 C 262.59915 895.88525 264.3967 916.7935 267.5 937.5625 C 270.599 955.9895 357.474 941.39475 354.375 922.96875 C 350.9385 905.62175 349.59175 887.9325 348.34375 870.3125 C 347.09068 848.93549 346.23619 827.55523 345.5625 806.15625 C 357.78118 805.26262 370.02692 804.41623 382.25 803.59375 C 421.4407 800.76175 460.6928 798.868 499.8125 795.125 C 517.3831 792.514 508.77515 794.15575 525.65625 790.21875 C 543.77385 785.55975 521.8052 700.1525 503.6875 704.8125 C 496.286 707.1885 500.61525 706.04525 490.59375 707.90625 C 452.58855 712.36125 414.35415 714.4275 376.21875 717.4375 C 365.27495 718.22827 354.34746 719.04388 343.40625 719.875 C 342.99017 697.79659 342.31188 675.668 342.5 653.5625 C 349.34408 653.35402 356.18725 653.1355 363.03125 652.9375 C 382.49239 652.48384 401.97795 652.41121 421.4375 651.90625 C 421.52152 657.22166 421.70377 662.53044 421.9375 667.84375 C 423.0037 686.57375 511.28495 681.57475 510.21875 662.84375 C 509.09765 647.66275 508.79925 632.42575 509.78125 617.21875 C 512.02845 576.78475 516.45485 536.55725 519.15625 496.15625 C 520.35185 460.22425 520.9252 423.1505 497.6875 393.3125 C 483.6684 378.0385 467.5209 365.7795 448.9375 356.4375 C 423.0379 343.1175 395.54685 334.18175 366.21875 332.71875 C 358.37501 332.43094 350.54591 332.32468 342.71875 332.40625 z M 343.09375 419.5625 C 349.50309 419.56135 355.92199 419.73844 362.34375 420.09375 C 378.59745 421.27875 393.5791 426.5775 407.6875 434.4375 C 415.054 439.7505 426.25235 442.99825 431.03125 451.28125 C 432.54185 465.15725 432.3627 479.47125 432 493.53125 C 430.57826 518.01125 428.38914 542.42037 426.25 566.84375 C 424.42569 564.65828 422.35713 563.4547 420.09375 563.5625 C 400.16455 565.0225 380.1486 565.0545 360.1875 565.8125 C 318.1054 567.3445 276.0296 568.7665 234 571.4375 C 217.3564 572.59662 200.7223 573.90307 184.125 575.5625 C 182.30444 565.12414 180.96568 554.55916 179.6875 544.03125 C 185.80623 559.89817 194.01926 572.22113 201.21875 570.15625 C 226.94005 562.16425 253.4186 557.18 280.125 554 C 297.8201 552.619 315.76525 550.27375 333.53125 551.96875 C 334.54226 552.16877 334.67151 552.19827 334.90625 552.25 C 352.62597 549.85245 372.12195 470.59542 354.625 466.125 C 343.2297 463.847 348.67545 464.61225 338.34375 463.65625 C 315.28925 462.82125 292.2155 464.46375 269.3125 467.09375 C 238.1096 471.10075 207.25625 477.0805 176.84375 485.1875 C 175.32789 485.62226 174.13269 486.63134 173.1875 488.09375 C 171.78231 475.60993 170.31688 463.14194 168.6875 450.6875 C 172.76897 454.11191 176.58804 455.59462 179.6875 454.09375 C 205.1883 441.60275 232.83065 434.81475 260.40625 428.71875 C 287.66627 422.85981 315.31993 419.5675 343.09375 419.5625 z M 334.90625 552.25 C 334.78888 552.26588 334.67971 552.27216 334.5625 552.28125 C 334.99098 552.31919 335.1187 552.29681 334.90625 552.25 z M 334.5625 552.28125 C 334.10816 552.24102 333.83683 552.22014 332.65625 552.125 C 333.29021 552.28697 333.92138 552.33098 334.5625 552.28125 z M 870.96875 711.8125 C 872.28417 712.90328 873.94697 713.32397 875.875 713.1875 C 875.57598 713.19269 874.1813 712.81375 870.96875 711.8125 z "
     id="path14311" />
</svg>
