<?xml version="1.0" encoding="UTF-8" standalone="no"?>
<svg
   xmlns:dc="http://purl.org/dc/elements/1.1/"
   xmlns:cc="http://creativecommons.org/ns#"
   xmlns:rdf="http://www.w3.org/1999/02/22-rdf-syntax-ns#"
   xmlns:svg="http://www.w3.org/2000/svg"
   xmlns="http://www.w3.org/2000/svg"
   xmlns:sodipodi="http://sodipodi.sourceforge.net/DTD/sodipodi-0.dtd"
   xmlns:inkscape="http://www.inkscape.org/namespaces/inkscape"
   width="1024"
   height="1024"
   id="U6839"
   version="1.1"
   inkscape:version="0.48.0 r9654"
   sodipodi:docname="U+6839.svg">
  <metadata
     id="metadata17">
    <rdf:RDF>
      <cc:Work
         rdf:about="">
        <dc:format>image/svg+xml</dc:format>
        <dc:type
           rdf:resource="http://purl.org/dc/dcmitype/StillImage" />
      </cc:Work>
    </rdf:RDF>
  </metadata>
  <defs
     id="defs15" />
  <sodipodi:namedview
     pagecolor="#ffffff"
     bordercolor="#666666"
     borderopacity="1"
     objecttolerance="10"
     gridtolerance="10"
     guidetolerance="10"
     inkscape:pageopacity="0"
     inkscape:pageshadow="2"
     inkscape:window-width="640"
     inkscape:window-height="480"
     id="namedview13"
     showgrid="false"
     inkscape:zoom="0.27441406"
     inkscape:cx="512"
     inkscape:cy="512"
     inkscape:window-x="0"
     inkscape:window-y="25"
     inkscape:window-maximized="0"
     inkscape:current-layer="U6839" />
  <path
     style="fill:#550000;fill-opacity:1;fill-rule:nonzero;stroke:#f9f9f9;stroke-width:0.1;stroke-miterlimit:4;stroke-dasharray:none"
     d="M 258.3125 176.8125 C 232.0466 176.69843 192.0771 187.95244 194.34375 200.5 C 204.19087 259.468 205.98983 319.501 208.5625 379.125 C 208.65536 381.77127 208.72314 384.41614 208.8125 387.0625 C 204.38711 387.95164 199.95961 388.84467 195.53125 389.71875 C 156.93664 396.97975 118.10667 405.03375 78.6875 405.46875 C 60.123643 405.59975 60.748642 493.131 79.3125 493 C 103.74521 491.9266 127.9445 488.79731 152.03125 484.78125 C 141.86546 505.04156 132.44685 525.70856 123.21875 546.40625 C 105.24515 587.10425 85.718798 627.1375 69.75 668.6875 L 66.0625 680.78125 C 61.284139 698.68325 145.69039 721.2145 150.46875 703.3125 C 150.74631 701.7125 151.00369 700.101 151.28125 698.5 C 165.02702 658.302 184.3825 620.28625 201.34375 581.40625 C 205.10723 573.05771 208.88276 564.69597 212.75 556.375 C 213.29214 590.75238 213.75678 625.15429 214.25 659.53125 C 214.81157 706.07025 215.49535 752.59 216.3125 799.125 L 215.875 801.9375 C 215.40151 820.5255 303.02651 822.7755 303.5 804.1875 C 303.45855 801.3165 303.4165 798.4335 303.375 795.5625 C 300.41572 749.7215 299.71132 703.783 298.34375 657.875 C 297.97353 642.90846 297.61466 627.93601 297.28125 612.96875 C 300.28062 615.04104 303.3106 617.09178 306.34375 619.125 C 331.76716 635.4306 357.70512 650.88591 383.59375 666.4375 C 383.57232 666.91629 383.55256 667.39621 383.53125 667.875 C 381.36656 719.68 381.63905 771.77975 396.65625 821.71875 C 410.95693 856.49675 439.33386 880.99425 478.25 881.28125 C 485.05942 881.33125 491.79285 879.7995 498.5625 879.0625 C 523.35034 871.8875 511.32635 876.2445 534.625 866.0625 C 551.39901 858.4485 515.49275 779.385 498.71875 787 C 489.31024 791.633 493.75001 789.693 485.53125 793 C 484.6735 793.418 483.59822 793.533 482.96875 794.25 C 482.9246 794.3 486.19178 802.5975 482.3125 799.1875 C 480.98461 798.0205 480.14192 796.401 479.0625 795 C 468.56384 766.79974 467.75777 736.35106 468 706.21875 C 491.33463 730.83599 519.46101 750.10972 548.21875 768.15625 C 594.26468 795.40825 643.60866 816.2845 693.25 835.9375 C 731.0439 851.1055 769.74512 864.02025 807.09375 880.28125 C 813.91424 883.39225 820.66006 886.56525 826.09375 891.78125 C 840.89159 902.93925 893.48534 833.157 878.6875 822 C 866.79263 813.587 854.64357 805.8205 840.9375 800.5625 C 802.63228 784.6465 763.27946 771.446 724.6875 756.25 C 716.65088 753.09303 708.63105 749.90794 700.625 746.65625 C 703.39253 744.11286 706.13819 741.52634 708.84375 738.90625 C 736.09399 712.91825 762.31845 685.93025 785.46875 656.15625 C 797.0643 641.62125 728.53305 586.965 716.9375 601.5 C 697.37522 629.168 673.83138 653.471 649.46875 676.875 C 638.38032 687.64404 626.68294 697.63507 614.5 707.03125 C 607.57356 703.31379 600.68103 699.48295 593.90625 695.46875 C 567.98468 679.14075 541.955 662.0255 523.59375 636.9375 C 519.222 631.14492 505.89404 635.67249 491.9375 644.21875 C 493.4687 638.0783 493.11134 633.27334 489.96875 631.09375 C 485.88167 628.31899 481.77756 625.59737 477.65625 622.875 C 503.06646 623.37699 528.54977 622.3115 553.9375 621.75 C 576.99847 621.207 600.05925 621.15625 623.125 621.15625 C 641.6388 620.89025 640.3888 533.609 621.875 533.875 C 598.56136 534.559 575.22006 534.77775 551.90625 535.46875 C 526.30873 536.09906 500.59746 537.27766 475 535.96875 C 476.39534 510.95441 477.81939 485.95509 479.125 460.9375 C 479.25499 459.01351 479.39878 457.08104 479.53125 455.15625 C 486.15849 480.54471 505.23784 514.17231 516.53125 509.28125 C 544.09461 497.11625 573.31673 489.62225 602.75 483.65625 C 620.96024 482.19425 641.11228 474.90825 659.375 479.65625 C 668.11563 480.72567 675.09273 461.68892 678.03125 441.1875 C 701.78601 449.83809 734.53678 453.58834 737.28125 442.65625 C 742.3276 422.33325 747.30631 401.975 748.8125 381 C 751.02774 342.488 748.87027 304.53175 722.5 273.84375 C 697.70687 250.26575 669.00665 236.53575 634.46875 234.09375 C 599.02798 231.61675 563.66405 233.48825 528.46875 238.40625 C 496.05547 242.43925 463.68845 247.02275 431.25 250.84375 C 420.6832 252.21825 419.93454 281.36395 424.65625 305.53125 C 416.98194 305.982 411.49833 308.0084 410.4375 312.21875 C 407.26165 327.79974 404.74896 343.47898 402.6875 359.21875 C 384.9783 357.13143 367.09459 358.17968 349.03125 360.90625 C 329.92584 363.6585 310.92664 366.9422 291.96875 370.5 C 289.97737 308.57855 288.29678 246.47288 280.375 184.96875 C 279.3447 179.26531 270.25155 176.86435 258.3125 176.8125 z M 600 319.5 C 609.24092 319.48893 618.50068 319.83812 627.75 320.65625 C 639.06256 322.52125 653.51392 323.99425 660.125 334.78125 C 664.6194 347.88125 663.31679 362.16275 662.40625 375.71875 C 661.99444 381.3426 661.23053 386.88608 660.25 392.40625 C 635.12539 391.27089 610.14894 394.18005 585.375 399.09375 C 550.10967 406.40975 515.25197 415.56375 481.75 428.96875 C 481.64101 429.01595 481.54227 429.07187 481.4375 429.125 C 484.06648 397.02093 487.83378 364.98666 495.34375 333.625 C 495.65805 332.37766 495.51849 331.10933 495.03125 329.84375 C 509.7182 327.7985 524.41084 325.87235 539.125 324.03125 C 559.35304 321.33831 579.66998 319.52435 600 319.5 z M 384.46875 444.71875 C 385.65372 444.71745 386.90062 444.75062 388.1875 444.78125 C 391.17825 444.85256 393.3473 445.05782 394.9375 445.3125 C 394.72516 448.73059 394.51471 452.14502 394.3125 455.5625 C 392.65468 493.3649 390.60979 531.15458 388.5625 568.9375 C 377.10682 561.98146 365.71077 554.93873 354.4375 547.6875 C 333.58268 533.57401 313.75444 518.30787 294.96875 501.625 C 294.66451 486.77834 294.31921 471.94012 294 457.09375 C 316.14928 452.89556 338.34204 449.10282 360.71875 446.21875 C 369.99467 445.48287 376.17396 444.72786 384.46875 444.71875 z "
     id="path23787" />
</svg>
