<?xml version="1.0" encoding="utf-8" ?>

<!DOCTYPE svg PUBLIC "-//W3C//DTD SVG 1.1//EN" 
  "http://www.w3.org/Graphics/SVG/1.1/DTD/svg11.dtd">
<svg 
	xmlns="http://www.w3.org/2000/svg"
	xmlns:xlink="http://www.w3.org/1999/xlink"
	width="1024" height="1024">
<path d="m 11361.142,3399.0865 c 39.293,-1.6607 78.461,-5.4668 117.573,-9.4528 42.996,-4.1027 85.736,-10.4005 128.007,-19.2383 6.779,-1.839 13.908,-2.709 20.396,-5.5175 20.136,-6.2479 49.589,88.6743 29.453,94.9223 l 0,0 c -10.227,2.8242 -20.539,5.2301 -31.003,7.0427 -45.3,8.296 -90.902,14.7875 -136.732,19.3771 -40.709,4.3782 -81.455,8.3794 -122.235,12.0292 -21.036,1.1579 -26.494,-98.0047 -5.459,-99.1627 z" id="path4267" inkscape:connector-curvature="0" style="fill:#aa0000;fill-opacity:1;fill-rule:nonzero;stroke:#f9f9f9;stroke-width:0.1;stroke-miterlimit:4;stroke-dasharray:none" transform="translate(-11264, -3072)"/><path d="m 11547.047,3234.8845 c -1.97,51.5042 -3.525,103.0246 -5.453,154.5318 -3.893,90.2079 -4.254,180.493 -2.779,270.7558 1.241,71.754 5.306,143.4098 11.891,214.862 2.003,18.2181 3.499,36.5114 6.306,54.6336 0.478,3.0861 0.998,6.1689 1.667,9.2192 0.277,1.2622 1.166,4.9892 1.167,3.6969 0,-1.8172 -0.777,-3.5504 -1.165,-5.3256 8.35,19.4054 -83.128,58.7668 -91.478,39.3614 l 0,0 c -10.165,-30.0856 -10,-62.1655 -13.156,-93.523 -5.532,-73.7144 -9.08,-147.5613 -10.109,-221.4845 -1.288,-91.7284 -1.001,-183.4677 1.924,-275.1678 1.263,-51.3573 2.381,-102.7275 1.954,-154.1042 0.54,-21.05 99.77,-18.5056 99.231,2.5444 z" id="path4269" inkscape:connector-curvature="0" style="fill:#aa0000;fill-opacity:1;fill-rule:nonzero;stroke:#f9f9f9;stroke-width:0.1;stroke-miterlimit:4;stroke-dasharray:none" transform="translate(-11264, -3072)"/><path d="m 11454.986,3601.3907 c -23.146,22.0613 -40.012,49.5311 -56.195,76.8346 -13.478,25.3338 -28.488,50.3807 -37.741,77.6805 0.11,0.2846 0.22,0.5692 0.33,0.8538 -4.995,20.4565 -101.428,-3.0877 -96.433,-23.5442 l 0,0 c 1.16,-4.016 2.319,-8.0319 3.479,-12.0479 12.755,-32.2036 29.495,-62.649 46.432,-92.8085 21.09,-35.4242 43.463,-70.4295 72.75,-99.767 15.443,-14.2929 82.821,58.5058 67.378,72.7987 z" id="path4271" inkscape:connector-curvature="0" style="fill:#aa0000;fill-opacity:1;fill-rule:nonzero;stroke:#f9f9f9;stroke-width:0.1;stroke-miterlimit:4;stroke-dasharray:none" transform="translate(-11264, -3072)"/><path d="m 11618.145,3589.645 c 4.895,23.6623 16.577,44.547 30.185,64.1871 16.824,22.8653 38.248,41.5089 60.688,58.6286 5.506,4.1969 11.063,8.3097 17.33,11.2765 18.294,10.4041 -30.752,96.6398 -49.045,86.2358 l 0,0 c -10.032,-6.0255 -19.86,-12.3268 -28.876,-19.8404 -30.034,-23.8395 -58.597,-49.7334 -81.059,-81.0679 -19.847,-29.39 -36.78,-60.4499 -45.556,-95.0932 -5.16,-20.4353 91.173,-44.7619 96.333,-24.3265 z" id="path4273" inkscape:connector-curvature="0" style="fill:#aa0000;fill-opacity:1;fill-rule:nonzero;stroke:#f9f9f9;stroke-width:0.1;stroke-miterlimit:4;stroke-dasharray:none" transform="translate(-11264, -3072)"/><path d="m 11794.187,3377.5171 c 43.824,-0.3676 87.587,-2.9193 131.294,-5.9544 45.766,-3.2814 91.485,-7.4132 137.34,-9.2163 16.7,-1.2258 33.122,-0.1311 49.478,3.1471 20.411,5.3868 -4.983,101.6041 -25.394,96.2173 l 0,0 c 9.885,0.1772 -17.391,-2.4666 -21.245,-1.2036 -44.522,0.7565 -88.914,4.6021 -133.309,7.7943 -44.847,3.2529 -89.728,5.8436 -134.626,8.2705 -21.013,0.7505 -24.551,-98.3044 -3.538,-99.0549 z" id="path4275" inkscape:connector-curvature="0" style="fill:#aa0000;fill-opacity:1;fill-rule:nonzero;stroke:#f9f9f9;stroke-width:0.1;stroke-miterlimit:4;stroke-dasharray:none" transform="translate(-11264, -3072)"/><path d="m 11677.494,3641.2374 c 41.305,-3.6331 82.766,-2.7666 124.156,-1.6489 50.736,1.7077 101.438,4.2377 152.133,6.8675 12.817,0.68 25.633,1.2877 38.467,1.4992 20.98,0.9258 16.616,99.8275 -4.364,98.9017 l 0,0 c -13.311,-0.9047 -26.612,-1.9285 -39.921,-2.8458 -49.488,-3.3424 -99.023,-5.9739 -148.61,-7.2756 -37.095,-0.7439 -74.37,-1.6305 -111.261,3.1679 -20.93,2.2487 -31.531,-96.4173 -10.6,-98.666 z" id="path4277" inkscape:connector-curvature="0" style="fill:#aa0000;fill-opacity:1;fill-rule:nonzero;stroke:#f9f9f9;stroke-width:0.1;stroke-miterlimit:4;stroke-dasharray:none" transform="translate(-11264, -3072)"/><path d="m 11831.187,3526.6798 c -10.158,50.3963 -16.236,101.5431 -23.353,152.4365 -8.539,64.97 -18.888,129.6749 -29.13,194.3911 -0.227,9.459 -12.199,61.6093 -6.754,68.4768 2.464,20.8493 -95.821,32.4639 -98.285,11.6146 l 0,0 c -2.233,-32.3758 3.48,-64.0372 9.327,-95.8542 10.904,-63.7157 21.444,-127.504 29.559,-191.6476 7.088,-53.1385 13.234,-106.419 21.573,-159.3803 4.235,-20.59 101.297,-0.6268 97.063,19.9631 z" id="path4285" inkscape:connector-curvature="0" style="fill:#aa0000;fill-opacity:1;fill-rule:nonzero;stroke:#f9f9f9;stroke-width:0.1;stroke-miterlimit:4;stroke-dasharray:none" transform="translate(-11264, -3072)"/><path d="m 11978.572,3519.1234 c -8.587,46.6937 -12.938,94.0481 -17.157,141.2956 -6.052,72.398 -9.049,144.9922 -9.426,217.6296 0.259,37.8161 2.023,75.6249 6.734,113.1548 2.274,20.7019 -95.316,31.4224 -97.59,10.7205 l 0,0 c -4.013,-41.4616 -5.6,-83.1033 -5.402,-124.761 0.978,-75.0223 4.274,-149.9849 9.868,-224.8106 3.978,-50.1787 8.319,-100.3548 15.176,-150.2371 3.608,-20.746 101.405,-3.7378 97.797,17.0082 z" id="path4287" inkscape:connector-curvature="0" style="fill:#aa0000;fill-opacity:1;fill-rule:nonzero;stroke:#f9f9f9;stroke-width:0.1;stroke-miterlimit:4;stroke-dasharray:none" transform="translate(-11264, -3072)"/><path d="m 12040.574,3299.2372 c -6.614,36.1389 -0.02,73.7142 4.531,109.7159 11.46,80.9546 30.781,160.4733 51.225,239.5422 18.379,70.5503 40.835,139.9103 68.719,207.2651 15.118,34.5323 32.158,68.5054 54.779,98.7819 12.132,17.0361 -68.177,74.2243 -80.308,57.1883 l 0,0 c -25.705,-37.3363 -46.572,-77.7057 -63.911,-119.5729 -28.695,-71.6309 -52.108,-145.1538 -71.412,-219.8748 -21.348,-82.8044 -41.622,-166.0191 -54.528,-250.6305 -7.127,-51.2498 -16.078,-104.4179 -2.75,-155.4173 7.001,-19.8671 100.656,13.135 93.655,33.0021 z" id="path4289" inkscape:connector-curvature="0" style="fill:#aa0000;fill-opacity:1;fill-rule:nonzero;stroke:#f9f9f9;stroke-width:0.1;stroke-miterlimit:4;stroke-dasharray:none" transform="translate(-11264, -3072)"/><path d="m 12213.124,3648.5564 c -23.423,31.4202 -39.763,67.5309 -57.007,102.5376 -28.996,58.8137 -56.46,118.3544 -79.799,179.6479 -7.2,18.4693 -12.946,37.3847 -17.784,56.5815 -5.539,20.0705 -100.152,-6.04 -94.614,-26.1105 l 0,0 c 6.51,-22.1141 13.567,-44.0467 22.226,-65.4371 25.015,-63.4587 53.566,-125.3805 83.09,-186.8583 20.379,-42.5802 39.936,-86.1467 67.968,-124.3907 13.582,-16.1052 89.503,47.9244 75.92,64.0296 z" id="path4291" inkscape:connector-curvature="0" style="fill:#aa0000;fill-opacity:1;fill-rule:nonzero;stroke:#f9f9f9;stroke-width:0.1;stroke-miterlimit:4;stroke-dasharray:none" transform="translate(-11264, -3072)"/><path d="m 12157.74,3107.5511 c 10.396,29.4678 27.645,55.6774 45.359,81.1598 11.811,17.0356 -68.496,72.7111 -80.306,55.6755 l 0,0 c -22.384,-32.3592 -43.567,-65.7214 -58.159,-102.4446 -7.296,-19.7509 85.811,-54.1416 93.106,-34.3907 z" id="path4293" inkscape:connector-curvature="0" style="fill:#aa0000;fill-opacity:1;fill-rule:nonzero;stroke:#f9f9f9;stroke-width:0.1;stroke-miterlimit:4;stroke-dasharray:none" transform="translate(-11264, -3072)"/></svg>