<?xml version="1.0" encoding="UTF-8" standalone="no"?>
<svg
   xmlns:dc="http://purl.org/dc/elements/1.1/"
   xmlns:cc="http://creativecommons.org/ns#"
   xmlns:rdf="http://www.w3.org/1999/02/22-rdf-syntax-ns#"
   xmlns:svg="http://www.w3.org/2000/svg"
   xmlns="http://www.w3.org/2000/svg"
   xmlns:sodipodi="http://sodipodi.sourceforge.net/DTD/sodipodi-0.dtd"
   xmlns:inkscape="http://www.inkscape.org/namespaces/inkscape"
   width="1024"
   height="1024"
   id="U68C0"
   version="1.1"
   inkscape:version="0.48.0 r9654"
   sodipodi:docname="U+68C0.svg">
  <metadata
     id="metadata18">
    <rdf:RDF>
      <cc:Work
         rdf:about="">
        <dc:format>image/svg+xml</dc:format>
        <dc:type
           rdf:resource="http://purl.org/dc/dcmitype/StillImage" />
      </cc:Work>
    </rdf:RDF>
  </metadata>
  <defs
     id="defs16" />
  <sodipodi:namedview
     pagecolor="#ffffff"
     bordercolor="#666666"
     borderopacity="1"
     objecttolerance="10"
     gridtolerance="10"
     guidetolerance="10"
     inkscape:pageopacity="0"
     inkscape:pageshadow="2"
     inkscape:window-width="640"
     inkscape:window-height="480"
     id="namedview14"
     showgrid="false"
     inkscape:zoom="0.27441406"
     inkscape:cx="512"
     inkscape:cy="512"
     inkscape:window-x="0"
     inkscape:window-y="25"
     inkscape:window-maximized="0"
     inkscape:current-layer="U68C0" />
  <path
     style="fill:#550000;fill-opacity:1;fill-rule:nonzero;stroke:#f9f9f9;stroke-width:0.1;stroke-miterlimit:4;stroke-dasharray:none"
     d="M 596.03125 200.5 C 585.27711 200.90573 567.68724 208.97308 553.03125 218.8125 C 542.43569 215.29782 533.74272 214.77375 530.9375 219.59375 C 509.87703 256.65075 486.64496 292.42975 463.90625 328.46875 C 435.38865 373.72875 408.00773 419.6905 379.875 465.1875 C 369.05986 482.2435 374.20229 474.5155 364.65625 488.4375 C 354.32347 504.1655 428.44846 552.88325 438.78125 537.15625 C 441.00942 533.64146 442.2718 531.67245 443.375 529.9375 C 450.21882 555.17154 478.65465 596.13847 490.8125 588.9375 C 523.45087 570.2935 560.25022 561.3675 596.75 553.9375 C 642.70789 545.6025 689.43962 544.5465 736 545.5625 C 756.80269 549.3875 786.14375 543.965 806.0625 551.25 C 820.86276 554.38457 835.64916 499.31332 831.5625 475 C 849.07428 456.86592 864.9917 430.61256 856.53125 423.59375 C 829.98488 401.97375 801.90356 382.38575 773.71875 362.96875 C 736.40176 336.69075 699.16889 310.03475 666.5 277.96875 C 643.77046 255.23175 621.40216 231.718 604.9375 203.875 C 603.40835 201.34094 600.23221 200.34151 596.03125 200.5 z M 240.4375 204.34375 C 219.55907 204.35473 199.79432 208.58219 199.5625 217.46875 C 199.01208 263.48075 201.36714 309.458 204.03125 355.375 C 204.26558 358.40643 204.47345 361.43675 204.6875 364.46875 C 174.45035 365.70209 144.22406 367.63676 114.3125 372.3125 C 95.739712 376.1225 113.67721 463.685 132.25 459.875 C 157.36198 455.16213 182.91464 453.28602 208.4375 452.125 C 208.64847 463.71359 208.77177 475.28328 208.8125 486.875 C 190.73145 477.57402 172.08759 472.48878 167.84375 480.0625 C 150.89237 510.4655 134.64262 541.25 118.8125 572.25 C 107.29718 595.721 94.879314 618.73225 81.65625 641.28125 C 72.374995 657.68825 149.71874 701.43925 159 685.03125 C 172.13477 661.01525 185.09157 636.87425 197.125 612.28125 C 200.61258 605.47392 204.12053 598.68868 207.65625 591.90625 C 207.54047 597.68679 207.43336 603.47021 207.3125 609.25 C 205.7482 672.771 206.03596 736.31375 206.375 799.84375 C 207.24571 799.95687 206.9913 805.1438 206.53125 810.09375 C 206.46263 810.46151 206.40572 810.84032 206.40625 811.21875 C 206.30388 812.24688 206.19833 813.2678 206.09375 814.1875 C 206.18468 813.508 206.31909 812.64885 206.4375 811.78125 C 208.0267 829.86782 283.57233 858.64522 290.1875 841.84375 C 293.85311 826.97975 296.32147 813.56525 294.40625 798.15625 C 292.5612 741.62909 291.6505 685.08606 292.46875 628.53125 C 314.91629 646.6407 339.17354 662.38859 362.90625 678.75 C 372.9493 685.603 382.44978 693.20325 391.84375 700.90625 C 406.63549 712.72125 462.32298 643.0025 447.53125 631.1875 C 436.2 622.3395 424.7559 613.5795 412.8125 605.5625 C 388.04237 588.8335 362.71049 572.80275 339.9375 553.34375 C 322.11109 536.73495 306.44823 518.39769 294.3125 497.28125 C 294.3608 481.99361 294.3106 466.72212 294.125 451.4375 C 312.4502 452.14341 330.76396 453.39315 349.03125 455.0625 C 358.16932 455.9135 367.24736 457.11 376.25 458.875 C 394.92712 461.947 409.39587 373.91675 390.71875 370.84375 C 379.266 369.18775 367.7965 367.75525 356.25 366.90625 C 334.60823 365.31275 312.93887 364.18407 291.25 363.59375 C 291.01182 359.35913 290.77199 355.14015 290.5 350.90625 C 288.53032 307.25725 286.56838 263.45525 288.9375 219.78125 C 289.20023 209.70981 264.09972 204.3313 240.4375 204.34375 z M 577.75 312.4375 C 586.47524 321.84365 595.46279 331.01557 604.5625 340.0625 C 640.77161 375.5885 681.96454 405.24775 723.25 434.46875 C 734.62136 442.45835 746.03334 450.40787 757.3125 458.53125 C 750.68109 458.31348 744.04794 458.10566 737.4375 457.78125 C 684.54325 457.18525 631.4839 458.803 579.3125 468.375 C 537.7706 476.84948 496.33909 487.27457 458.03125 505.6875 C 484.04502 461.92346 509.98666 418.12417 537.40625 375.21875 C 550.82685 354.27971 564.33905 333.38291 577.75 312.4375 z M 762.0625 572.46875 C 759.56277 572.54071 757.57906 573.31973 756.28125 574.9375 C 736.57752 600.9845 715.3073 625.80425 694.28125 650.78125 C 690.13047 655.59527 690.15373 655.57005 688.0625 658 C 681.88646 652.29094 684.77285 655.14729 677.875 647.625 C 666.7464 633.75 657.21655 618.74375 651.625 601.71875 C 645.52528 583.75875 560.86904 612.50775 566.96875 630.46875 C 576.45803 656.72375 590.95005 680.33975 607.90625 702.34375 C 620.03074 716.21075 613.77031 709.53825 626.75 722.40625 C 633.34498 728.79616 651.36778 716.9261 666.59375 701.5625 C 679.81179 723.17023 719.92763 754.31689 729.3125 743.75 C 750.93966 719.496 740.31078 731.55475 761.21875 707.59375 C 782.9792 682.16075 804.81065 656.763 826.03125 630.875 C 836.59909 617.70087 782.41741 571.88275 762.0625 572.46875 z M 473.78125 623.25 C 455.73163 623.64291 423.89337 698.33761 440.4375 705.59375 C 463.97063 716.53375 484.63242 732.6085 505.21875 748.1875 C 520.158 759.5945 512.88274 754.04675 526.9375 764.84375 C 541.93259 776.20375 595.49509 705.51725 580.5 694.15625 C 566.21248 683.48025 573.58196 689.00175 558.375 677.59375 C 532.19946 657.96175 505.83686 638.158 476.3125 623.75 C 475.49885 623.39314 474.66894 623.23068 473.78125 623.25 z M 835.96875 770.1875 C 794.14862 770.57032 752.49282 774.89937 711 780.5625 C 642.05696 789.8115 573.13976 800.1725 505.5 816.6875 C 456.59638 829.3035 407.68246 842.75675 361.21875 862.84375 C 344.21652 871.15575 383.40402 951.313 400.40625 943 C 440.90724 923.947 484.2763 912.034 527.40625 900.625 C 591.50375 884.711 656.88599 874.983 722.3125 866.5 C 768.2349 860.842 814.42814 855.8555 860.71875 858.6875 C 865.01466 859.1645 869.34382 859.53 873.625 860.125 C 874.5292 860.251 904.13664 867.177 896.75 865.5 C 913.97887 873.545 951.91638 792.32525 934.6875 784.28125 C 912.55369 775.26725 888.66985 772.21075 864.9375 770.59375 C 855.27059 770.23056 845.61955 770.09916 835.96875 770.1875 z M 206.0625 814.625 C 205.83509 816.33137 205.69435 817.41399 205.625 818 C 205.73104 817.21236 205.90035 816.02872 206.0625 814.625 z "
     id="path8747" />
</svg>
