<?xml version="1.0" encoding="utf-8" ?>

<!DOCTYPE svg PUBLIC "-//W3C//DTD SVG 1.1//EN" 
  "http://www.w3.org/Graphics/SVG/1.1/DTD/svg11.dtd">
<svg 
    xmlns="http://www.w3.org/2000/svg"
    xmlns:xlink="http://www.w3.org/1999/xlink"
    xmlns:sodipodi="http://sodipodi.sourceforge.net/DTD/sodipodi-0.dtd"
    xmlns:inkscape="http://www.inkscape.org/namespaces/inkscape"
    width="1024" height="1024" id="U6982">
<path d="m 10257.151,13668.264 c 44.064,-4.543 88.04,-9.903 132.082,-14.661 53.933,-6.086 108.098,-9.369 162.357,-9.969 13.532,-0.02 27.062,0.153 40.594,0.06 18.505,0.234 17.401,87.47 -1.105,87.236 l 0,0 c -13.082,-0.405 -26.162,-0.933 -39.25,-1.126 -51.194,-0.323 -102.315,2.541 -153.171,8.555 -43.697,5.001 -87.342,10.447 -130.875,16.733 -18.419,2.256 -29.051,-84.572 -10.632,-86.828 z" id="path23411" inkscape:connector-curvature="0" style="fill:#550000;fill-opacity:1;fill-rule:nonzero;stroke:#f9f9f9;stroke-width:0.1;stroke-miterlimit:4;stroke-dasharray:none" transform="translate(-10240, -13312)"/><path d="m 10463.866,13491.046 c -4.141,51.796 -3.943,103.839 -4.809,155.763 -1.434,85.271 -5.994,170.442 -9.671,255.634 -2.786,59.179 -3.734,118.415 -1.923,177.631 0.463,12.176 1.067,24.343 1.407,36.522 0.01,18.555 -87.451,18.623 -87.466,0.07 l 0,0 c 0.41,-11.623 0.09,-23.243 -0.05,-34.87 -0.602,-61.086 0.846,-122.157 4.038,-183.166 4.015,-84.223 8.675,-168.451 9.315,-252.789 0.339,-53.986 -0.208,-108.004 1.972,-161.959 1.52,-18.496 88.711,-11.33 87.191,7.166 z" id="path23413" inkscape:connector-curvature="0" style="fill:#550000;fill-opacity:1;fill-rule:nonzero;stroke:#f9f9f9;stroke-width:0.1;stroke-miterlimit:4;stroke-dasharray:none" transform="translate(-10240, -13312)"/><path d="m 10453.44,13780.86 c -22.249,34.529 -43.677,69.585 -65.04,104.667 -23.089,37.522 -45.036,75.732 -65.687,114.647 -1.687,3.349 -3.374,6.698 -5.06,10.048 -8.599,16.335 -85.604,-24.201 -77.005,-40.536 l 0,0 c 2.007,-3.669 4.015,-7.337 6.022,-11.005 22.155,-39.561 44.899,-78.794 68.543,-117.487 21.5,-35.677 43.218,-71.227 64.299,-107.155 9.932,-15.683 83.86,31.138 73.928,46.821 z" id="path23415" inkscape:connector-curvature="0" style="fill:#550000;fill-opacity:1;fill-rule:nonzero;stroke:#f9f9f9;stroke-width:0.1;stroke-miterlimit:4;stroke-dasharray:none" transform="translate(-10240, -13312)"/><path d="m 10476.089,13801.069 c 27.382,20.146 50.338,45.471 74.008,69.685 23.859,25.279 50.704,47.134 80.626,64.75 12.307,5.985 6.522,3.681 17.184,7.324 17.189,6.738 -14.575,87.766 -31.763,81.028 l 0,0 c -20.176,-8.398 -10.108,-3.682 -30.158,-14.246 -35.705,-21.957 -68.465,-47.956 -97.395,-78.401 -19.579,-19.811 -38.459,-40.843 -61.118,-57.216 -15.47,-10.313 33.147,-83.237 48.616,-72.924 z" id="path23417" inkscape:connector-curvature="0" style="fill:#550000;fill-opacity:1;fill-rule:nonzero;stroke:#f9f9f9;stroke-width:0.1;stroke-miterlimit:4;stroke-dasharray:none" transform="translate(-10240, -13312)"/><path d="m 10562.614,13521.797 c 28.142,-8.32 56.509,-15.837 84.925,-23.152 30.489,-7.617 61.163,-14.507 92.152,-19.744 23.092,-3.044 48.923,-6.942 70.444,5.015 6.324,3.513 11.519,8.754 17.278,13.131 25.462,31.949 23.794,72.135 23.396,110.852 -0.769,38.789 -3.643,77.486 -7.303,116.095 -1.236,16.119 -3.756,32.047 -6.627,47.936 -3.458,18.109 -88.823,1.807 -85.365,-16.302 l 0,0 c 2.718,-13.226 4.859,-26.532 5.979,-40.005 3.605,-36.039 6.347,-72.179 6.887,-108.409 0.07,-13.929 0.196,-27.784 -1.04,-41.672 -0.247,-2.772 -2.912,-9.342 -0.314,-8.344 1.589,0.61 2.667,2.116 4,3.174 2.289,1.068 4.455,2.453 6.866,3.203 1.53,0.475 3.192,0.564 4.786,0.418 0.46,-0.04 -0.707,-0.68 -1.163,-0.749 -7.871,-1.2 -15.991,0.804 -23.779,1.415 -28.468,4.484 -56.583,10.88 -84.548,17.805 -26.528,6.876 -53.092,13.781 -79.084,22.506 -17.644,5.832 -45.133,-77.342 -27.49,-83.173 z" id="path23419" inkscape:connector-curvature="0" style="fill:#550000;fill-opacity:1;fill-rule:nonzero;stroke:#f9f9f9;stroke-width:0.1;stroke-miterlimit:4;stroke-dasharray:none" transform="translate(-10240, -13312)"/><path d="m 10641.216,13660.296 c 35.887,-2.485 71.813,-4.152 107.771,-5.13 20.503,-0.566 41.015,-0.726 61.521,-0.333 18.47,0.595 15.664,87.664 -2.806,87.069 l 0,0 c -18.818,-0.907 -37.665,-0.913 -56.5,-0.501 -34.542,0.832 -69.102,2.283 -103.458,6.131 -18.506,1.385 -25.034,-85.851 -6.528,-87.236 z" id="path23421" inkscape:connector-curvature="0" style="fill:#550000;fill-opacity:1;fill-rule:nonzero;stroke:#f9f9f9;stroke-width:0.1;stroke-miterlimit:4;stroke-dasharray:none" transform="translate(-10240, -13312)"/><path d="m 10612.099,13784.952 c 24.117,7.033 49.933,5.407 74.736,4.646 29.456,-1.462 58.767,-4.761 87.969,-8.783 18.253,-2.334 29.254,83.713 11.001,86.046 l 0,0 c -32.003,3.797 -64.069,7.192 -96.27,8.79 -40.988,1.31 -83.622,2.867 -121.64,-15.028 -16.052,-9.377 28.152,-85.048 44.204,-75.671 z" id="path23423" inkscape:connector-curvature="0" style="fill:#550000;fill-opacity:1;fill-rule:nonzero;stroke:#f9f9f9;stroke-width:0.1;stroke-miterlimit:4;stroke-dasharray:none" transform="translate(-10240, -13312)"/><path d="m 10643.415,13578.055 c -6.47,52.415 -14.621,104.597 -22.719,156.778 -11.8,72.541 -21.823,145.322 -27.004,218.647 -1.909,41.728 -2.598,84.501 11.44,124.357 1.283,2.378 2.359,4.879 3.849,7.133 5.6,8.469 2.802,0.741 5.232,-0.595 24.419,-3.507 47.229,-13.269 69.547,-23.31 16.133,-7.477 31.222,-16.817 46.2,-26.322 15.506,-9.729 61.367,63.364 45.862,73.093 l 0,0 c -18.408,11.442 -36.922,22.728 -56.63,31.854 -35.155,15.862 -71.557,31.067 -110.739,31.665 -48.357,-5.46 -67.353,-22.657 -85.805,-67.156 -15.349,-51.042 -17.515,-104.009 -13.472,-157.029 5.911,-75.393 16.197,-150.269 27.878,-224.974 7.442,-50.647 15.202,-101.323 19.276,-152.379 1.747,-18.473 88.832,-10.235 87.085,8.238 z" id="path23425" inkscape:connector-curvature="0" style="fill:#550000;fill-opacity:1;fill-rule:nonzero;stroke:#f9f9f9;stroke-width:0.1;stroke-miterlimit:4;stroke-dasharray:none" transform="translate(-10240, -13312)"/><path d="m 10818.644,13940.199 c 8.315,19.587 20.181,37.339 32.527,54.565 2.119,2.749 4.238,5.498 6.357,8.247 11.173,14.698 -58.113,67.365 -69.285,52.667 l 0,0 c -2.648,-3.521 -5.295,-7.043 -7.942,-10.564 -15.673,-22.219 -30.498,-45.104 -41.985,-69.821 -7.444,-17.04 72.884,-52.135 80.328,-35.094 z" id="path23427" inkscape:connector-curvature="0" style="fill:#550000;fill-opacity:1;fill-rule:nonzero;stroke:#f9f9f9;stroke-width:0.1;stroke-miterlimit:4;stroke-dasharray:none" transform="translate(-10240, -13312)"/><path d="m 10875.034,13500.697 c 32.065,0.965 64.138,0.09 96.181,-1.141 44.167,-2.094 88.186,-6.32 131.883,-13.045 23.434,-4.027 46.554,-9.728 69.295,-16.644 17.882,-5.024 41.565,79.274 23.682,84.298 l 0,0 c -26.506,6.927 -53.185,13.304 -80.277,17.521 -46.745,6.768 -93.766,11.281 -140.937,13.805 -33.519,1.552 -67.048,2.539 -100.603,2.86 -18.594,-0.165 -17.818,-87.818 0.776,-87.654 z" id="path23435" inkscape:connector-curvature="0" style="fill:#550000;fill-opacity:1;fill-rule:nonzero;stroke:#f9f9f9;stroke-width:0.1;stroke-miterlimit:4;stroke-dasharray:none" transform="translate(-10240, -13312)"/><path d="m 11031.925,13577.62 c -15.364,35.639 -34.765,69.305 -53.897,103.003 -21.124,36.994 -42.471,73.956 -59.321,113.135 -0.583,1.743 -4.811,12.147 -4.223,16.022 0.107,0.705 1.289,-0.98 1.309,-1.693 0.102,-3.689 0.344,-7.578 -0.957,-11.032 -3.945,-10.477 -6.572,-11.608 -13.487,-17.177 31.142,-1.989 62.014,-7.297 92.82,-12.251 49.962,-8.218 100.109,-15.305 150.416,-21.036 24.153,-3.305 48.666,-3.688 72.733,-7.602 18.353,-2.483 30.059,84.036 11.705,86.519 l 0,0 c -24.948,2.929 -50.081,3.735 -75.05,6.514 -48.836,5.157 -97.488,11.966 -145.902,20.194 -43,7.216 -86.932,17.63 -130.637,11.638 -7.616,-3.121 -16.182,-4.533 -22.847,-9.361 -33.536,-24.296 -29.323,-62.537 -14.948,-95.812 18.792,-41.317 41.197,-80.782 63.657,-120.194 17.017,-30.4 34.579,-60.737 47.261,-93.276 6.875,-17.261 88.243,15.148 81.368,32.409 z" id="path23437" inkscape:connector-curvature="0" style="fill:#550000;fill-opacity:1;fill-rule:nonzero;stroke:#f9f9f9;stroke-width:0.1;stroke-miterlimit:4;stroke-dasharray:none" transform="translate(-10240, -13312)"/><path d="m 11090.82,13595.085 c -9.773,43.998 -18.531,88.21 -28.42,132.189 -16.884,74.126 -38.18,147.121 -61.91,219.314 -20.038,61.535 -46.754,120.429 -77.178,177.437 -11.95,21.337 -23.387,43.043 -37.533,63.034 -11.218,14.819 -81.075,-38.064 -69.857,-52.883 l 0,0 c 13.498,-14.849 20.81,-34.655 31.988,-51.085 28.832,-52.132 53.876,-106.233 72.491,-162.926 22.988,-69.405 43.337,-139.684 58.925,-211.154 9.508,-44.298 18.041,-88.774 26.201,-133.337 4.118,-18.094 89.411,1.318 85.293,19.411 z" id="path23439" inkscape:connector-curvature="0" style="fill:#550000;fill-opacity:1;fill-rule:nonzero;stroke:#f9f9f9;stroke-width:0.1;stroke-miterlimit:4;stroke-dasharray:none" transform="translate(-10240, -13312)"/><path d="m 11091.693,13851.248 c 2.79,35.348 4.643,70.746 5.842,106.18 1.204,43.13 -0.431,86.332 4.263,129.281 3.335,16.434 3.766,31.512 22.118,34.476 22.532,3.004 45.357,0.827 67.949,-0.333 18.262,-1.152 36.552,-1.019 54.83,-0.534 18.46,0.581 15.722,87.6 -2.737,87.02 l 0,0 c -15.904,-0.594 -31.821,-0.825 -47.719,0.153 -35.298,1.751 -71.237,5.106 -105.477,-6.024 -6.896,-3.208 -14.202,-5.65 -20.688,-9.622 -34.426,-21.085 -48.928,-58.081 -54.01,-96.422 -4.29,-44.871 -3.506,-89.869 -4.485,-134.896 -1.302,-33.93 -3.077,-67.871 -7.142,-101.6 -1.629,-18.51 85.627,-26.188 87.256,-7.679 z" id="path23443" inkscape:connector-curvature="0" style="fill:#550000;fill-opacity:1;fill-rule:nonzero;stroke:#f9f9f9;stroke-width:0.1;stroke-miterlimit:4;stroke-dasharray:none" transform="translate(-10240, -13312)"/></svg>