<?xml version="1.0" encoding="UTF-8" standalone="no"?>
<svg
   xmlns:dc="http://purl.org/dc/elements/1.1/"
   xmlns:cc="http://creativecommons.org/ns#"
   xmlns:rdf="http://www.w3.org/1999/02/22-rdf-syntax-ns#"
   xmlns:svg="http://www.w3.org/2000/svg"
   xmlns="http://www.w3.org/2000/svg"
   xmlns:sodipodi="http://sodipodi.sourceforge.net/DTD/sodipodi-0.dtd"
   xmlns:inkscape="http://www.inkscape.org/namespaces/inkscape"
   width="1024"
   height="1024"
   id="U695A"
   version="1.1"
   inkscape:version="0.48.0 r9654"
   sodipodi:docname="U+695A.svg">
  <metadata
     id="metadata20">
    <rdf:RDF>
      <cc:Work
         rdf:about="">
        <dc:format>image/svg+xml</dc:format>
        <dc:type
           rdf:resource="http://purl.org/dc/dcmitype/StillImage" />
      </cc:Work>
    </rdf:RDF>
  </metadata>
  <defs
     id="defs18" />
  <sodipodi:namedview
     pagecolor="#ffffff"
     bordercolor="#666666"
     borderopacity="1"
     objecttolerance="10"
     gridtolerance="10"
     guidetolerance="10"
     inkscape:pageopacity="0"
     inkscape:pageshadow="2"
     inkscape:window-width="640"
     inkscape:window-height="480"
     id="namedview16"
     showgrid="false"
     inkscape:zoom="0.27441406"
     inkscape:cx="512"
     inkscape:cy="512"
     inkscape:window-x="0"
     inkscape:window-y="25"
     inkscape:window-maximized="0"
     inkscape:current-layer="U695A" />
  <path
     style="fill:#800000;fill-opacity:1;fill-rule:nonzero;stroke:#f9f9f9;stroke-width:0.1;stroke-miterlimit:4;stroke-dasharray:none"
     d="M 675.78125 100.5 C 660.31532 100.75032 647.66998 103.92046 647 110.84375 C 644.99524 141.57566 644.23432 172.34264 644.09375 203.125 C 602.74482 212.58803 561.33721 223.1006 519.0625 227.21875 C 500.5282 228.27035 505.49695 315.64535 524.03125 314.59375 C 550.22334 311.33231 576.11447 306.21876 601.875 300.46875 C 580.38175 319.45855 562.46283 342.46925 545.59375 365.875 C 530.39465 387.3004 518.7852 410.7676 507.5 434.375 C 499.7602 450.896 577.6352 487.36475 585.375 470.84375 C 594.0423 451.84925 603.0825 433.05765 615.25 415.96875 C 625.30404 401.94256 635.7723 387.58996 648.0625 375.28125 C 649.98722 418.21024 652.42557 461.12206 655.21875 504 C 657.98375 540.3156 656.57115 523.0703 659.34375 555.6875 C 659.77018 560.0685 665.12015 562.90875 672.90625 564.4375 C 633.69199 567.59405 594.65889 572.56878 555.84375 579.0625 C 569.23972 561.35206 576.38537 500.89669 561.1875 498.46875 C 542.6352 495.60295 524.0967 492.70005 505.5625 489.71875 C 465.7674 482.99544 426.11324 475.25493 387.875 462.0625 C 385.36611 429.92136 382.72664 397.81093 380 365.6875 C 404.74313 359.26541 429.45416 352.77154 454.21875 346.4375 C 469.15425 342.7131 484.07035 338.81955 498.90625 334.71875 C 516.62725 329.47965 491.9084 245.9483 474.1875 251.1875 C 460.3347 255.5984 446.38825 259.58165 432.34375 263.34375 C 412.40839 268.75628 392.48402 274.23453 372.53125 279.59375 C 372.356 277.61453 372.17558 275.63544 372 273.65625 C 368.1606 227.67025 363.32165 181.40865 365.40625 135.21875 C 366.60935 116.65775 279.10925 111.0015 277.90625 129.5625 C 277.38465 180.2595 283.03285 230.7872 287.84375 281.1875 C 288.4895 287.68532 289.12087 294.18822 289.75 300.6875 C 282.69104 302.35307 275.6125 303.98712 268.53125 305.5625 C 224.81285 315.2118 180.9813 324.2215 137.25 333.8125 C 119.246 338.3469 140.6209 423.2218 158.625 418.6875 C 184.21491 411.95179 209.99091 406.0398 235.8125 400.25 C 218.32591 429.22713 202.75071 459.38947 186.90625 489.28125 C 172.86415 515.39085 159.77285 541.95435 146.90625 568.65625 C 139.08235 585.22195 217.1761 622.1282 225 605.5625 C 236.8586 579.9093 249.1141 554.42895 262.625 529.59375 C 266.13935 523.02952 269.64053 516.45364 273.15625 509.875 C 276.60555 520.30953 281.30044 527.49528 286.75 526.875 C 293.98453 526.78603 301.15761 527.52455 308.25 528.78125 C 309.46456 562.09388 313.37566 595.53984 312.59375 628.90625 C 280.76028 637.54051 249.17016 647.05986 218.71875 659.84375 C 201.80195 667.49655 237.86445 747.24655 254.78125 739.59375 C 267.13381 733.91855 279.78425 729.01886 292.625 724.625 C 286.27278 737.69619 280.24086 750.93945 274.1875 764.125 C 257.317 802.2332 239.52995 839.9362 217.53125 875.375 C 206.95135 890.4766 212.231 883.6444 201.875 896.125 C 190.4214 910.5323 258.3589 964.50105 269.8125 950.09375 C 275.77328 942.38383 278.09245 939.50628 279.71875 937.34375 C 303.76136 943.96243 328.37135 948.42009 353.125 952.09375 C 420.6548 959.75545 488.7594 959.7576 556.625 961.0625 C 622.8061 961.9086 688.88655 965.51725 754.71875 972.28125 C 794.03415 976.39485 832.9123 983.70395 870.8125 994.90625 C 874.2161 996.05635 877.62775 997.2249 881.03125 998.375 C 898.59585 1004.0268 925.2521 921.2143 907.6875 915.5625 C 903.2867 914.2013 898.86955 912.82985 894.46875 911.46875 C 851.43875 899.70195 807.53345 891.6272 763.09375 887.4375 C 695.01645 880.9915 626.72315 877.522 558.34375 876.5 C 494.16985 875.1349 429.7651 875.0314 365.9375 867.5 C 351.99199 865.34701 338.05012 862.91795 324.3125 859.78125 C 334.12623 840.18036 343.3674 820.27345 352.28125 800.21875 C 365.63085 771.53935 378.3944 742.1258 397.3125 716.5625 C 400.40351 712.37594 397.0706 705.31177 390.46875 697.59375 C 414.52029 692.05402 438.68254 687.03775 462.90625 682.28125 C 459.92573 704.56754 458.83909 727.1507 458.21875 749.625 C 457.74765 777.4021 459.71275 805.08255 462.21875 832.71875 C 463.97785 850.97535 550.04025 842.6941 548.28125 824.4375 C 547.87421 820.47788 547.49428 816.52566 547.125 812.5625 C 561.49376 808.48299 575.8821 804.48733 590.375 800.84375 C 604.3765 798.10425 619.07175 793.62135 633.34375 796.90625 C 651.71965 798.81955 660.71955 712.19455 642.34375 710.28125 C 617.55485 708.54835 593.322 710.34725 569.25 717.15625 C 561.27297 719.18052 553.31885 721.31658 545.375 723.46875 C 546.58869 703.73521 549.04946 684.08666 554.8125 665.15625 C 606.04613 656.16918 657.7598 650.07666 709.75 648.21875 C 711.73819 648.19924 713.72881 648.19485 715.71875 648.1875 C 704.34827 666.93428 691.41148 684.62829 677.0625 701.25 C 665.1761 715.1953 730.9261 771.22665 742.8125 757.28125 C 763.4665 732.81665 782.26615 706.97465 798.21875 679.15625 C 814.48305 651.24765 831.83715 621.4263 811.78125 589.5625 C 807.67235 583.0345 800.44655 579.07845 794.78125 573.84375 C 772.07528 563.783 748.25084 561.37908 723.875 561.625 C 736.34903 558.37589 745.46363 553.4225 744.875 547.375 C 741.4472 516.3005 743.14755 532.7464 739.90625 498 C 738.32 477.27118 736.89019 456.53213 735.59375 435.78125 C 743.61916 440.49659 751.10829 446.31026 758.34375 451.71875 C 783.66325 472.28455 806.22145 495.9609 826.96875 521.0625 C 836.97905 534.8562 832.49765 528.0292 840.59375 541.4375 C 850.37455 557.0257 923.8433 510.93185 914.0625 495.34375 C 901.0836 475.14465 907.9738 485.053 893.375 465.625 C 867.9914 435.4711 840.66525 406.8667 809.78125 382.25 C 785.54447 364.43821 759.94456 348.0738 730.875 341.8125 C 730.0431 319.16842 729.42761 296.53338 729.09375 273.875 C 729.08919 273.17752 729.09824 272.47879 729.09375 271.78125 C 751.25636 267.30032 773.47279 263.09178 795.6875 258.875 C 813.6066 255.3083 796.794 170.83965 778.875 174.40625 C 762.49275 177.81995 746.10609 181.17124 729.71875 184.5625 C 730.42265 162.75206 731.71781 140.9625 734.03125 119.25 C 735.14788 107.71119 701.5578 100.0828 675.78125 100.5 z M 297.53125 386.3125 C 298.19676 394.11375 298.8592 401.91546 299.5 409.71875 C 291.84226 403.0204 282.59682 396.54749 273.8125 391.75 C 278.2849 390.74384 282.75007 389.73913 287.21875 388.71875 C 290.66549 387.92607 294.08866 387.12188 297.53125 386.3125 z M 394.5625 554.15625 C 426.31182 562.76581 458.65256 568.95637 491.09375 574.53125 C 506.64133 577.08962 522.20347 579.65378 537.75 582.21875 C 535.91777 582.54731 534.08118 582.88383 532.25 583.21875 C 487.4019 591.37375 442.50358 599.45342 397.875 608.78125 C 397.1342 590.55793 395.85886 572.36128 394.5625 554.15625 z M 752.1875 650.28125 C 753.41682 650.47589 754.6379 650.72826 755.84375 651.03125 C 756.40435 651.17215 757.8901 651.9155 757.3125 651.9375 C 755.9713 651.9894 754.6887 651.4001 753.375 651.125 C 752.9286 650.79737 752.60497 650.582 752.1875 650.28125 z "
     id="path21097" />
</svg>
