<?xml version="1.0" encoding="utf-8" ?>

<!DOCTYPE svg PUBLIC "-//W3C//DTD SVG 1.1//EN" 
  "http://www.w3.org/Graphics/SVG/1.1/DTD/svg11.dtd">
<svg 
    xmlns="http://www.w3.org/2000/svg"
    xmlns:xlink="http://www.w3.org/1999/xlink"
    xmlns:sodipodi="http://sodipodi.sourceforge.net/DTD/sodipodi-0.dtd"
    xmlns:inkscape="http://www.inkscape.org/namespaces/inkscape"
    width="1024" height="1024" id="U6A58">
<path d="m 8284.0843,25931.901 c 38.2794,-3.296 76.2615,-9.286 114.2603,-14.839 43.7711,-6.742 87.6843,-12.477 131.8698,-15.577 24.5034,-1.844 48.998,-0.412 73.4358,1.432 3.7204,-0.03 4.3734,0.237 2.0936,-0.33 18.728,-1.748 26.9642,86.537 8.2363,88.284 l 0,0 c -12.5061,0.64 -6.5496,0.661 -17.8692,0.114 -20.0462,-1.916 -40.1352,-3.709 -60.3013,-2.379 -41.8355,2.406 -83.398,7.756 -124.7948,14.195 -39.3903,5.886 -78.7459,12.028 -118.2599,17.044 -18.6559,1.839 -27.3264,-86.105 -8.6706,-87.944 z" id="path9731" inkscape:connector-curvature="0" style="fill:#2b0000;fill-opacity:1;fill-rule:nonzero;stroke:#f9f9f9;stroke-width:0.1;stroke-miterlimit:4;stroke-dasharray:none" transform="translate(-8192, -25600)"/><path d="m 8501.4683,25743.712 c -1.9488,43.156 -4.7506,86.26 -7.7454,129.355 -5.9937,80.104 -12.3428,160.181 -17.9227,240.316 -5.3097,72.314 -7.9816,144.774 -9.266,217.26 -0.4148,45.142 -0.6737,90.281 -2.1075,135.405 0.1489,16.234 -2.4799,31.621 -7.5216,46.946 -7.1995,17.382 -89.1388,-16.557 -81.9393,-33.939 l 0,0 c -0.259,1.443 -0.8464,2.865 -0.777,4.329 0.044,0.921 0.687,-1.723 0.8576,-2.629 1.1209,-5.95 1.4121,-12.433 1.8815,-18.389 2.3504,-44.485 2.9998,-89.017 3.748,-133.553 1.8332,-73.859 4.9602,-147.683 10.4818,-221.369 5.6494,-79.93 11.8661,-159.821 16.9154,-239.792 2.4081,-42.36 4.7965,-84.744 4.9101,-127.187 0.6888,-18.77 89.1739,-15.523 88.4851,3.247 z" id="path9733" inkscape:connector-curvature="0" style="fill:#2b0000;fill-opacity:1;fill-rule:nonzero;stroke:#f9f9f9;stroke-width:0.1;stroke-miterlimit:4;stroke-dasharray:none" transform="translate(-8192, -25600)"/><path d="m 8451.5871,26069.548 c -21.3955,27.673 -40.0888,57.312 -58.7856,86.837 -20.2029,32.121 -39.1648,64.995 -57.4369,98.245 -4.3575,8.069 -8.7155,16.136 -13.2031,24.134 -9.5814,16.146 -85.6976,-29.021 -76.1162,-45.167 l 0,0 c 4.5773,-7.142 8.7077,-14.546 12.8986,-21.92 19.6271,-34.177 39.5479,-68.19 60.4716,-101.595 20.0291,-31.857 40.1488,-63.685 61.9197,-94.393 11.4254,-14.903 81.6772,38.957 70.2519,53.859 z" id="path9735" inkscape:connector-curvature="0" style="fill:#2b0000;fill-opacity:1;fill-rule:nonzero;stroke:#f9f9f9;stroke-width:0.1;stroke-miterlimit:4;stroke-dasharray:none" transform="translate(-8192, -25600)"/><path d="m 8501.7541,26004.338 c 15.247,21.937 32.2782,42.493 50.0393,62.417 18.1411,20.132 38.6236,37.891 58.9129,55.78 6.9942,6.152 13.8198,12.477 20.5168,18.949 13.3294,13.188 -48.8412,76.023 -62.1705,62.835 l 0,0 c -5.4516,-5.587 -11.1269,-10.935 -16.9006,-16.19 -22.5249,-20.357 -45.2892,-40.529 -65.598,-63.165 -19.2195,-21.524 -37.6097,-43.718 -55.0459,-66.717 -11.436,-14.901 58.81,-68.811 70.246,-53.909 z" id="path9737" inkscape:connector-curvature="0" style="fill:#2b0000;fill-opacity:1;fill-rule:nonzero;stroke:#f9f9f9;stroke-width:0.1;stroke-miterlimit:4;stroke-dasharray:none" transform="translate(-8192, -25600)"/><path d="m 8751.1779,25643.325 c 29.2144,-4.894 58.7017,-7.792 88.2003,-10.297 29.7925,-2.566 59.7013,-3.164 89.5884,-2.959 29.2547,-0.195 42.1597,1.403 65.7383,20.596 23.1514,32.055 12.4581,57.128 -10.2597,83.679 -15.4918,17.248 -31.5729,33.953 -47.3838,50.906 -14.3478,15.621 -28.778,31.162 -42.6964,47.17 -7.0375,8.547 -14.4399,16.755 -22.5657,24.276 -14.024,12.563 -73.2494,-53.546 -59.2254,-66.11 l 0,0 c 5.8916,-4.735 10.4826,-10.87 15.5676,-16.409 14.6556,-16.492 29.7234,-32.604 44.6646,-48.837 14.89,-15.974 29.992,-31.762 44.3595,-48.213 0.2,-0.238 4.7853,-5.813 4.76,-5.479 -0.9948,13.088 -5.0463,-14.669 -2.7362,13.849 1.2447,15.366 3.0657,15.023 11.1166,26.262 2.9034,1.995 5.6044,4.323 8.7103,5.986 2.0712,1.108 8.9507,2.675 6.8652,1.594 -5.2618,-2.729 -12.7739,0.365 -18.1604,-1.286 -26.9637,-0.602 -53.9646,-0.305 -80.8477,2.086 -26.5886,2.32 -53.2531,4.792 -79.4357,10.14 -18.4459,3.45 -34.7056,-83.505 -16.2598,-86.954 z" id="path9739" inkscape:connector-curvature="0" style="fill:#2b0000;fill-opacity:1;fill-rule:nonzero;stroke:#f9f9f9;stroke-width:0.1;stroke-miterlimit:4;stroke-dasharray:none" transform="translate(-8192, -25600)"/><path d="m 8803.821,25768.11 c 18.0578,15.032 35.7366,30.504 53.4286,45.962 10.6658,9.761 22.0255,18.742 32.6408,28.553 1.4251,1.496 2.8502,2.992 4.2753,4.488 12.6105,13.998 -53.3738,73.444 -65.9843,59.447 l 0,0 c 0.1327,0.06 0.2654,0.123 0.3981,0.184 -9.0574,-9.614 -20.1422,-17.267 -29.4458,-26.637 -16.4832,-14.613 -32.9272,-29.309 -50.423,-42.716 -14.6969,-11.69 40.4134,-80.972 55.1103,-69.281 z" id="path9741" inkscape:connector-curvature="0" style="fill:#2b0000;fill-opacity:1;fill-rule:nonzero;stroke:#f9f9f9;stroke-width:0.1;stroke-miterlimit:4;stroke-dasharray:none" transform="translate(-8192, -25600)"/><path d="m 8652.5773,25850.546 c 37.7545,-13.752 77.3535,-20.836 116.9509,-26.754 46.9206,-6.911 94.3189,-7.614 141.6034,-5.675 31.804,1.606 63.2937,6.437 94.8076,10.731 16.419,2.276 32.8647,4.349 49.2707,6.717 37.1515,2.46 65.8165,37.916 37.7199,78.644 -8.1279,9.941 -18.6979,17.361 -28.5017,25.51 -14.2722,11.806 -25.8691,26.266 -37.325,40.702 -12.8466,16.526 -24.3197,34.035 -35.8836,51.462 -4.6033,6.959 -2.4226,3.658 -6.5434,9.903 -10.5429,15.552 -83.8551,-34.148 -73.3122,-49.7 l 0,0 c 4.2626,-6.122 2.0107,-2.883 6.7543,-9.717 13.1263,-18.987 25.9646,-38.186 40.1345,-56.426 15.0797,-19.106 30.5542,-38.025 49.2001,-53.826 1.0982,-0.936 16.8691,-14.746 15.1888,-12.196 -11.7714,20.346 -6.424,9.166 16.1284,60.901 1.4585,3.346 13.746,4.912 10.3517,3.57 -2.3053,-0.912 -5.0571,-0.345 -7.3153,-1.34 -16.0529,-2.617 -32.184,-4.711 -48.2632,-7.158 -28.6663,-4.253 -57.3027,-9.043 -86.266,-10.809 -41.6674,-2.001 -83.4617,-1.692 -124.8216,4.504 -32.8802,5 -66.0119,10.6 -97.0324,23.072 -17.4192,6.967 -50.2651,-75.147 -32.8459,-82.115 z" id="path9743" inkscape:connector-curvature="0" style="fill:#2b0000;fill-opacity:1;fill-rule:nonzero;stroke:#f9f9f9;stroke-width:0.1;stroke-miterlimit:4;stroke-dasharray:none" transform="translate(-8192, -25600)"/><path d="m 8875.6148,25863.246 c 3.5561,35.686 1.3735,71.53 -1.3978,107.175 -3.4349,37.304 -8.5393,74.424 -13.0085,111.611 -2.2305,17.796 -3.6933,35.669 -5.2601,53.53 -0.3829,11.428 -4.9525,18.592 -10.0126,29.36 -11.1426,15.234 -82.9571,-37.292 -71.8145,-52.526 l 0,0 c -5.1853,11.968 -7.5276,20.832 -6.2845,14.251 2.1606,-18.532 3.8708,-37.119 6.4743,-55.599 4.731,-35.7 9.8713,-71.363 13.1152,-107.239 2.2132,-29.723 4.3335,-59.735 0.4412,-89.42 -2.3637,-18.614 85.3836,-29.757 87.7473,-11.143 z" id="path9745" inkscape:connector-curvature="0" style="fill:#2b0000;fill-opacity:1;fill-rule:nonzero;stroke:#f9f9f9;stroke-width:0.1;stroke-miterlimit:4;stroke-dasharray:none" transform="translate(-8192, -25600)"/><path d="m 8834.841,25915.079 c -17.2203,23.669 -35.9586,46.161 -54.7998,68.54 -17.8999,21.33 -36.354,42.183 -54.5828,63.229 -4.3596,5.049 -8.6788,10.133 -12.9932,15.221 -12.3394,14.167 -79.1248,-44.002 -66.7854,-58.169 l 0,0 c 4.5638,-5.106 9.1284,-10.21 13.6993,-15.309 18.1239,-20.209 36.3366,-40.344 53.7403,-61.183 17.0833,-20.388 34.2386,-40.819 49.0655,-62.943 10.7369,-15.413 83.393,35.201 72.6561,50.614 z" id="path9747" inkscape:connector-curvature="0" style="fill:#2b0000;fill-opacity:1;fill-rule:nonzero;stroke:#f9f9f9;stroke-width:0.1;stroke-miterlimit:4;stroke-dasharray:none" transform="translate(-8192, -25600)"/><path d="m 8668.9456,26211.941 c 2.5876,37.996 4.167,76.052 6.0706,114.086 1.9633,39.789 4.8892,79.532 10.0439,119.04 2.6662,17.321 5.7773,34.644 10.3489,51.579 0.2409,0.749 0.4818,1.498 0.7228,2.248 5.0202,18.142 -80.5034,41.807 -85.5236,23.665 l 0,0 c -0.4068,-1.592 -0.8137,-3.184 -1.2206,-4.776 -4.7067,-20.466 -8.3326,-41.186 -11.0958,-62.001 -4.8816,-41.614 -7.7691,-83.414 -9.914,-125.254 -1.9583,-36.372 -3.4427,-72.818 -7.3537,-109.045 -2.0241,-18.651 85.8973,-28.193 87.9215,-9.542 z" id="path9749" inkscape:connector-curvature="0" style="fill:#2b0000;fill-opacity:1;fill-rule:nonzero;stroke:#f9f9f9;stroke-width:0.1;stroke-miterlimit:4;stroke-dasharray:none" transform="translate(-8192, -25600)"/><path d="m 8662.4669,26160.676 c 34.9184,-17.886 72.5675,-29.126 110.4512,-38.702 42.188,-10.007 85.428,-13.835 128.6641,-15.064 28.5569,0.01 57.1123,0.62 85.6683,0.987 17.2111,0.03 34.2563,0.549 51.044,4.503 31.3792,9.922 40.6,37.437 41.7161,67.296 -0.1946,34.448 -4.0696,68.743 -7.5078,102.98 -5.0652,47.657 -8.5937,95.455 -11.9099,143.26 -2.5507,38.817 -4.7814,77.657 -6.6366,116.514 -0.9486,18.425 -1.2305,36.876 -1.2468,55.323 0.7185,9.251 -1.4463,17.68 -3.7489,26.591 -6.5242,17.696 -89.9431,-13.06 -83.4189,-30.755 l 0,0 c -2.553,12.241 -1.4332,9.949 -1.3931,2.832 0.5546,-19.548 1.253,-39.095 2.4513,-58.616 2.2835,-39.35 4.7891,-78.687 7.5195,-118.008 3.4991,-48.515 7.1336,-97.024 11.8986,-145.434 2.7843,-30.502 5.931,-61.066 5.778,-91.73 -0.2019,-8.52 -0.4569,-4.197 2.8118,0.311 5.3533,7.384 11.2715,12.963 20.2969,14.985 -4.5929,-2.484 -21.4546,-1.059 -29.3043,-2.071 -27.2896,-0.675 -54.5817,-1.442 -81.8768,-1.714 -36.7903,0.735 -73.6167,3.709 -109.5394,12.107 -30.4743,7.669 -61.0303,16.431 -88.7158,31.673 -16.3911,9.122 -59.3926,-68.146 -43.0015,-77.268 z" id="path9751" inkscape:connector-curvature="0" style="fill:#2b0000;fill-opacity:1;fill-rule:nonzero;stroke:#f9f9f9;stroke-width:0.1;stroke-miterlimit:4;stroke-dasharray:none" transform="translate(-8192, -25600)"/><path d="m 8820.3518,26218.985 c -17.4682,22.408 -33.4106,45.954 -48.5897,69.956 -11.7003,18.595 -21.6774,38.166 -30.8205,58.118 -3.8531,7.595 -3.893,13.708 -1.1208,-2.298 0.2162,18.845 -88.6166,19.864 -88.8328,1.02 l 0,0 c 1.404,-13.1 3.377,-24.907 10.1245,-36.428 11.1599,-23.023 23.0798,-45.686 36.7964,-67.309 16.6824,-26.176 34.2513,-51.759 52.3511,-76.976 11.4374,-14.869 81.5293,39.048 70.0918,53.917 z" id="path9753" inkscape:connector-curvature="0" style="fill:#2b0000;fill-opacity:1;fill-rule:nonzero;stroke:#f9f9f9;stroke-width:0.1;stroke-miterlimit:4;stroke-dasharray:none" transform="translate(-8192, -25600)"/><path d="m 8919.7946,26211.267 c 21.2056,16.758 42.0477,33.966 62.8864,51.176 13.0289,10.514 25.8949,21.224 38.6447,32.073 14.1243,12.348 -44.0872,78.931 -58.2116,66.583 l 0,0 c -11.8777,-10.702 -24.0702,-21.042 -36.44,-31.171 -20.0067,-16.687 -40.0084,-33.431 -61.0944,-48.752 -14.8299,-11.501 39.385,-81.41 54.2149,-69.909 z" id="path9755" inkscape:connector-curvature="0" style="fill:#2b0000;fill-opacity:1;fill-rule:nonzero;stroke:#f9f9f9;stroke-width:0.1;stroke-miterlimit:4;stroke-dasharray:none" transform="translate(-8192, -25600)"/><path d="m 8774.3043,26340.112 c 3.868,24.788 7.9924,49.532 12.6531,74.184 2.9129,12.561 4.323,25.928 9.852,37.732 -8.1188,-15.083 -2.4303,-5.913 -29.0656,-22.361 18.5695,3.388 2.5992,90.925 -15.9703,87.537 l 0,0 c -19.9196,-11.541 -29.6848,-12.886 -37.2548,-32.259 -6.6849,-17.649 -10.7534,-36.077 -13.9394,-54.657 -4.4765,-24.671 -8.4229,-49.438 -13.248,-74.043 -3.4222,-18.45 83.5509,-34.582 86.973,-16.133 z" id="path9771" inkscape:connector-curvature="0" style="fill:#2b0000;fill-opacity:1;fill-rule:nonzero;stroke:#f9f9f9;stroke-width:0.1;stroke-miterlimit:4;stroke-dasharray:none" transform="translate(-8192, -25600)"/><path d="m 8742.1582,26315.127 c 25.973,-6.724 52.5331,-10.266 79.2653,-11.917 21.3716,-1.042 42.6708,1.219 63.894,3.4 15.3384,0.855 29.8647,3.6 44.1025,9.333 17.5567,9.149 27.2359,24.541 32.0665,43.142 3.238,15.533 0.9671,31.194 -2.0481,46.543 -3.3077,15.139 -7.5893,30.039 -11.1913,45.107 -2.5212,10.755 -4.5205,21.618 -6.4321,32.494 -1.0123,5.88 -0.3082,2.318 -2.4053,10.624 -5.236,18.096 -90.5443,-6.587 -85.3083,-24.683 l 0,0 c -0.3028,2.7 -0.2627,1.982 0.5292,-2.091 2.4041,-12.374 4.7881,-24.755 7.7288,-37.016 3.3754,-13.943 7.2478,-27.763 10.3414,-41.772 0.2263,-1.092 1.4565,-12.857 2.1887,-9.388 2.8332,7.849 8.6899,13.778 16.3114,17.171 13.8564,4.128 -13.8117,-3.25 -15.2995,-1.65 -16.4361,-1.839 -32.923,-3.924 -49.4981,-3.46 -20.5332,1.024 -41.0161,3.611 -60.788,9.462 -18.0945,4.976 -41.5516,-80.323 -23.4571,-85.299 z" id="path9773" inkscape:connector-curvature="0" style="fill:#2b0000;fill-opacity:1;fill-rule:nonzero;stroke:#f9f9f9;stroke-width:0.1;stroke-miterlimit:4;stroke-dasharray:none" transform="translate(-8192, -25600)"/><path d="m 8758.079,26420.965 c 24.4057,-0.476 48.7646,-2.039 73.1748,-2.394 17.8225,-0.13 35.6176,0.906 53.2751,3.282 18.555,2.749 5.5999,90.218 -12.955,87.469 l 0,0 c -12.9704,-2.249 -26.1704,-2.748 -39.3134,-2.926 -23.6666,0.184 -47.282,1.682 -70.9041,3.058 -18.7714,0.695 -22.0488,-87.794 -3.2774,-88.489 z" id="path9775" inkscape:connector-curvature="0" style="fill:#2b0000;fill-opacity:1;fill-rule:nonzero;stroke:#f9f9f9;stroke-width:0.1;stroke-miterlimit:4;stroke-dasharray:none" transform="translate(-8192, -25600)"/></svg>