<?xml version="1.0" encoding="UTF-8" standalone="no"?>
<svg
   xmlns:dc="http://purl.org/dc/elements/1.1/"
   xmlns:cc="http://creativecommons.org/ns#"
   xmlns:rdf="http://www.w3.org/1999/02/22-rdf-syntax-ns#"
   xmlns:svg="http://www.w3.org/2000/svg"
   xmlns="http://www.w3.org/2000/svg"
   xmlns:sodipodi="http://sodipodi.sourceforge.net/DTD/sodipodi-0.dtd"
   xmlns:inkscape="http://www.inkscape.org/namespaces/inkscape"
   width="1024"
   height="1024"
   id="U6BD4"
   version="1.1"
   inkscape:version="0.48.0 r9654"
   sodipodi:docname="U+6BD4.svg">
  <metadata
     id="metadata12">
    <rdf:RDF>
      <cc:Work
         rdf:about="">
        <dc:format>image/svg+xml</dc:format>
        <dc:type
           rdf:resource="http://purl.org/dc/dcmitype/StillImage" />
      </cc:Work>
    </rdf:RDF>
  </metadata>
  <defs
     id="defs10" />
  <sodipodi:namedview
     pagecolor="#ffffff"
     bordercolor="#666666"
     borderopacity="1"
     objecttolerance="10"
     gridtolerance="10"
     guidetolerance="10"
     inkscape:pageopacity="0"
     inkscape:pageshadow="2"
     inkscape:window-width="640"
     inkscape:window-height="480"
     id="namedview8"
     showgrid="false"
     inkscape:zoom="0.27441406"
     inkscape:cx="512"
     inkscape:cy="512"
     inkscape:window-x="0"
     inkscape:window-y="25"
     inkscape:window-maximized="0"
     inkscape:current-layer="U6BD4" />
  <path
     style="fill:#aa0000;fill-opacity:1;fill-rule:nonzero;stroke:#f9f9f9;stroke-width:0.1;stroke-miterlimit:4;stroke-dasharray:none"
     d="M 195.875 235.0625 C 190.42811 235.06552 186.47943 236.4357 185.09375 239.625 C 165.41055 296.1624 160.69255 356.3999 155.53125 415.625 C 154.86419 424.87114 154.22801 434.125 153.625 443.375 C 145.24292 445.93048 145.98609 466.32528 151 486.46875 C 148.00267 538.89107 145.5879 591.35679 142.625 643.78125 C 141.1006 670.87175 139.51585 697.94575 137.90625 725.03125 C 136.96955 743.21515 222.6883 747.6214 223.625 729.4375 C 224.8052 702.3577 226.0041 675.29275 227.3125 648.21875 C 229.39581 605.26327 231.20927 562.29319 233.46875 519.34375 C 252.29555 517.80162 271.22784 517.12136 290.03125 516.28125 C 331.46465 514.66805 372.90495 513.9432 414.34375 512.5 C 418.31645 512.2646 422.30855 512.0479 426.28125 511.8125 C 444.71565 510.4271 438.1843 423.52095 419.75 424.90625 L 410.34375 425.8125 C 369.03705 428.223 327.6566 429.16585 286.3125 430.71875 C 270.50645 431.37944 254.67193 432.00351 238.84375 432.9375 C 239.08414 429.70174 239.34243 426.45382 239.59375 423.21875 C 244.27905 373.23325 248.08945 322.04065 265.28125 274.46875 C 271.28595 260.64837 219.47817 235.04941 195.875 235.0625 z M 524.21875 253.78125 C 498.04614 254.17062 461.51969 264.35558 463.46875 276.375 C 470.21645 320.1727 468.8031 364.6792 467.5625 408.8125 C 464.2303 478.5719 460.5141 548.2704 461.625 618.125 C 462.7648 675.384 472.3801 731.86335 485.4375 787.46875 C 494.553 822.51735 505.9403 858.36025 530.4375 886.03125 C 535.4171 891.65605 541.2272 896.49385 546.625 901.71875 C 583.4908 931.40675 628.3303 938.33855 674.1875 939.21875 C 719.6641 938.16265 763.8469 926.8181 807.4375 914.8125 C 841.7578 904.5609 876.2583 894.8743 910.25 883.5625 C 923.0352 879.6427 934.48645 873.26615 945.84375 866.40625 C 961.41765 856.34615 913.98015 782.94 898.40625 793 C 893.76645 797.0891 887.8065 798.9324 882.1875 801.3125 C 850.0228 812.634 817.17335 822.02035 784.53125 831.84375 C 748.78805 841.72395 712.6267 851.36225 675.375 852.90625 C 651.1944 852.76985 626.2787 851.41065 605.3125 837.96875 C 583.6119 820.43145 575.88035 793.62215 568.96875 767.46875 C 556.85395 717.96615 547.8976 667.60955 546.5 616.53125 C 546.0173 594.10847 546.10889 571.70902 546.5625 549.3125 C 549.46151 547.61493 553.22698 545.22127 564.21875 538.5625 C 608.11165 509.3719 650.198 477.55935 689.6875 442.59375 C 719.9662 415.71225 749.89465 388.3921 777.84375 359.0625 C 790.29155 345.2648 725.2604 286.60855 712.8125 300.40625 C 688.1343 328.51425 660.44615 353.75905 632.65625 378.71875 C 606.58987 401.96657 579.19713 423.62164 550.75 443.8125 C 551.31247 433.06577 551.88909 422.31055 552.46875 411.5625 C 554.27775 361.8431 555.8139 311.8971 549.8125 262.375 C 548.79153 256.07912 537.92821 253.57729 524.21875 253.78125 z M 407.3125 641.75 C 406.4533 641.78962 405.63794 642.00792 404.875 642.40625 C 380.2876 655.52215 355.60035 668.4924 331.15625 681.875 C 281.14055 709.8719 231.40085 738.496 184.21875 771.125 C 150.76045 794.7398 117.47115 818.913 88.46875 848 C 75.76485 861.5508 139.63985 921.4258 152.34375 907.875 C 176.46865 882.1064 205.27365 861.38495 233.84375 840.90625 C 278.23135 809.75695 325.3362 782.8256 372.75 756.625 C 396.6128 743.7526 420.794 731.4587 444.9375 719.125 C 460.45075 711.02553 424.78298 640.94442 407.3125 641.75 z "
     id="path20055" />
</svg>
