<?xml version="1.0" encoding="UTF-8" standalone="no"?>
<svg
   xmlns:dc="http://purl.org/dc/elements/1.1/"
   xmlns:cc="http://creativecommons.org/ns#"
   xmlns:rdf="http://www.w3.org/1999/02/22-rdf-syntax-ns#"
   xmlns:svg="http://www.w3.org/2000/svg"
   xmlns="http://www.w3.org/2000/svg"
   xmlns:sodipodi="http://sodipodi.sourceforge.net/DTD/sodipodi-0.dtd"
   xmlns:inkscape="http://www.inkscape.org/namespaces/inkscape"
   width="1024"
   height="1024"
   id="U6BDB"
   version="1.1"
   inkscape:version="0.48.0 r9654"
   sodipodi:docname="U+6BDB.svg">
  <metadata
     id="metadata11">
    <rdf:RDF>
      <cc:Work
         rdf:about="">
        <dc:format>image/svg+xml</dc:format>
        <dc:type
           rdf:resource="http://purl.org/dc/dcmitype/StillImage" />
      </cc:Work>
    </rdf:RDF>
  </metadata>
  <defs
     id="defs9" />
  <sodipodi:namedview
     pagecolor="#ffffff"
     bordercolor="#666666"
     borderopacity="1"
     objecttolerance="10"
     gridtolerance="10"
     guidetolerance="10"
     inkscape:pageopacity="0"
     inkscape:pageshadow="2"
     inkscape:window-width="640"
     inkscape:window-height="480"
     id="namedview7"
     showgrid="false"
     inkscape:zoom="0.27441406"
     inkscape:cx="512"
     inkscape:cy="512"
     inkscape:window-x="0"
     inkscape:window-y="25"
     inkscape:window-maximized="0"
     inkscape:current-layer="U6BDB" />
  <path
     style="fill:#c83737;fill-opacity:1;fill-rule:nonzero;stroke:#f9f9f9;stroke-width:0.1;stroke-miterlimit:4;stroke-dasharray:none"
     d="M 519.6875 128.625 C 518.80789 128.6396 517.97951 128.80327 517.1875 129.1875 C 485.2861 145.9235 456.45865 167.61675 428.15625 189.71875 C 387.76935 221.74075 350.2697 257.16425 313.9375 293.65625 C 291.2941 316.50825 269.31155 340.042 250.09375 365.875 C 242.46865 376.652 235.4806 387.95025 230.6875 400.28125 C 229.8309 404.77025 228.95045 409.261 228.09375 413.75 C 227.14025 431.99375 310.32981 436.93375 316.625 420.15625 C 315.92684 423.41855 315.22935 426.6752 314.53125 429.9375 C 311.75055 435.7935 320.70325 418.09825 321.40625 417.65625 C 337.33655 394.89725 356.5154 374.651 375.6875 354.625 C 377.57353 352.69887 379.48049 350.79305 381.375 348.875 C 380.75576 354.92664 380.19087 360.97137 379.65625 367.03125 C 378.12795 392.4883 375.61276 417.85489 372.78125 443.1875 C 364.62267 444.47516 356.48227 445.82569 348.34375 447.25 C 309.33525 454.022 270.41595 461.35575 231.46875 468.46875 C 213.15105 472.49375 232.1198 558.8365 250.4375 554.8125 C 287.72752 546.44837 325.29534 539.35062 362.90625 532.59375 C 360.87211 556.70359 359.52871 580.86519 358.78125 605.0625 C 325.05341 610.09699 291.38866 615.58369 257.8125 621.59375 C 217.6753 628.74675 177.1439 635.30325 138.5625 648.90625 L 138.5625 648.9375 C 121.1453 655.9355 154.1454 738.02925 171.5625 731.03125 C 204.2917 718.62825 239.1171 713.065 273.375 706.625 C 302.70679 701.10918 332.13598 696.12806 361.625 691.59375 C 363.64805 709.4091 366.58915 727.12661 370.53125 744.71875 C 378.98165 780.73775 395.2328 812.92875 418.3125 841.59375 C 443.2647 870.20175 476.83415 883.9 512.65625 893.125 C 546.29905 901.252 580.71 903.43775 615.1875 902.96875 C 654.4532 901.90275 693.1846 895.08225 731.5 886.90625 C 765.5071 879.52025 798.85095 869.52725 832.15625 859.53125 C 850.64475 853.95525 869.2617 848.75925 887.1875 841.53125 C 906.057 833.95525 919.8791 820.47675 931 803.84375 C 939.0645 790.60175 941.79365 775.99275 943.15625 760.84375 C 944.24765 742.09375 855.8414 736.9375 854.75 755.6875 C 855.1012 756.4505 855.1025 756.8365 856.125 756.5625 C 857.7308 757.5085 855.23185 758.7295 853.28125 759.8125 C 838.17035 766.4035 822.1016 770.43225 806.5 775.65625 C 775.6865 785.25625 744.85335 794.8415 713.28125 801.6875 C 680.55255 808.7165 647.45385 814.58325 613.90625 815.53125 C 587.08735 815.97225 560.3233 814.337 534.125 808.125 C 516.4461 803.798 498.86585 799.03725 485.78125 785.53125 C 470.47345 768.27725 461.576 747.28375 455.6875 725.09375 C 452.09022 710.02637 449.52473 694.8332 447.8125 679.53125 C 448.10467 679.49392 448.39532 679.44351 448.6875 679.40625 C 498.7311 672.84525 549.09265 669.64225 599.53125 668.78125 C 632.70465 668.37325 665.86585 669.2555 699.03125 669.8125 C 709.09795 669.8315 719.1371 669.776 729.1875 670.375 C 747.9516 671.161 751.67025 582.69225 732.90625 581.90625 C 721.87115 581.58025 710.8491 581.71975 699.8125 581.96875 C 665.777 581.93875 631.75255 581.33175 597.71875 581.96875 C 547.00527 583.21781 496.36935 586.6141 446.03125 593 C 447.02145 568.55593 448.72647 544.14262 451.28125 519.8125 C 469.49784 517.77385 487.75513 516.04584 506.03125 514.59375 C 534.38945 512.38675 562.82385 511.997 591.21875 513.5 C 592.97275 511.656 630.5964 518.898 611.0625 514.375 C 606.90829 511.67418 602.77919 508.98207 598.625 506.28125 C 615.59328 512.42997 673.7317 457.65424 661.625 444.5 C 655.7617 440.293 649.89455 436.082 644.03125 431.875 C 627.98775 426.945 611.80635 425.74025 595.03125 425.53125 C 562.91995 424.40125 530.7711 425.24225 498.75 428.03125 C 486.42819 429.11439 474.11264 430.26739 461.8125 431.5625 C 463.85897 412.69275 465.63561 393.79393 466.875 374.84375 C 469.0825 350.54775 471.59595 326.1875 477.40625 302.4375 C 479.04244 295.34757 467.06237 288.03619 451.5625 282.78125 C 461.28747 274.42477 471.18428 266.26556 481.3125 258.375 C 504.9657 240.224 528.9134 221.99975 555.8125 208.84375 C 571.91669 201.03098 537.57293 128.32823 519.6875 128.625 z "
     id="path10890" />
</svg>
