<?xml version="1.0" encoding="UTF-8" standalone="no"?>
<svg
   xmlns:dc="http://purl.org/dc/elements/1.1/"
   xmlns:cc="http://creativecommons.org/ns#"
   xmlns:rdf="http://www.w3.org/1999/02/22-rdf-syntax-ns#"
   xmlns:svg="http://www.w3.org/2000/svg"
   xmlns="http://www.w3.org/2000/svg"
   xmlns:sodipodi="http://sodipodi.sourceforge.net/DTD/sodipodi-0.dtd"
   xmlns:inkscape="http://www.inkscape.org/namespaces/inkscape"
   width="1024"
   height="1024"
   id="U6BB5"
   version="1.1"
   inkscape:version="0.48.0 r9654"
   sodipodi:docname="U+6BB5.svg">
  <metadata
     id="metadata15">
    <rdf:RDF>
      <cc:Work
         rdf:about="">
        <dc:format>image/svg+xml</dc:format>
        <dc:type
           rdf:resource="http://purl.org/dc/dcmitype/StillImage" />
      </cc:Work>
    </rdf:RDF>
  </metadata>
  <defs
     id="defs13" />
  <sodipodi:namedview
     pagecolor="#ffffff"
     bordercolor="#666666"
     borderopacity="1"
     objecttolerance="10"
     gridtolerance="10"
     guidetolerance="10"
     inkscape:pageopacity="0"
     inkscape:pageshadow="2"
     inkscape:window-width="640"
     inkscape:window-height="480"
     id="namedview11"
     showgrid="false"
     inkscape:zoom="0.27441406"
     inkscape:cx="512"
     inkscape:cy="512"
     inkscape:window-x="0"
     inkscape:window-y="25"
     inkscape:window-maximized="0"
     inkscape:current-layer="U6BB5" />
  <path
     style="fill:#550000;fill-opacity:1;fill-rule:nonzero;stroke:#f9f9f9;stroke-width:0.1;stroke-miterlimit:4;stroke-dasharray:none"
     d="M 301.96875 115.75 C 286.47648 115.80759 273.75746 118.79325 273 125.71875 C 267.8036 161.19975 249.5871 192.8845 232.125 223.5625 C 201.3607 274.4845 163.92475 320.84975 125.78125 366.34375 C 120.85025 372.29989 130.02557 385.62648 143.03125 397.875 C 123.0797 406.67385 105.02614 419.6562 108.75 428.125 C 123.9192 473.086 128.4946 520.9655 134.4375 567.8125 C 142.4655 637.8695 150.7509 707.8815 159.8125 777.8125 C 165.0925 817.2725 169.8483 856.81475 176.375 896.09375 C 179.5802 914.15975 264.73655 899.03475 261.53125 880.96875 C 254.31845 843.07175 249.5443 804.76775 244.0625 766.59375 C 239.92647 736.2595 235.96704 705.90951 232.1875 675.53125 C 255.46175 666.81643 280.05723 661.93517 304.6875 658.40625 C 327.282 658.21725 354.4298 651.089 376.1875 660.5 C 394.0099 665.548 417.79115 581.549 399.96875 576.5 C 364.56585 567.716 328.06975 568.82975 292.03125 573.34375 C 268.35651 576.97284 244.81891 581.61336 221.875 588.25 C 220.7214 577.99254 219.57849 567.73161 218.46875 557.46875 C 212.82549 510.12876 208.19487 462.04541 195.75 415.90625 C 235.00661 367.81427 273.64821 319.01082 306.09375 265.96875 C 329.75505 224.98475 352.7553 182.67 360.0625 135.25 C 361.32488 123.7075 327.7892 115.65402 301.96875 115.75 z M 586.5625 234.28125 C 560.97798 234.96675 514.9757 252.951 519.125 266.25 C 528.0262 300.83 522.8756 337.0875 518.5625 371.9375 C 509.9406 430.4765 494.8495 487.75 479.75 544.875 C 477.9705 551.627 476.18565 558.373 474.40625 565.125 C 469.95085 582.842 553.4822 603.842 557.9375 586.125 C 559.5299 579.468 561.12635 572.81325 562.71875 566.15625 C 577.85115 505.39025 593.6317 444.6605 603.125 382.6875 C 605.29387 366.05077 607.37535 349.27258 608.65625 332.46875 C 608.92 332.44581 609.20548 332.40398 609.46875 332.34375 C 638.65205 325.37975 668.7312 324.822 698.5625 325.5 C 694.5404 322.276 763.2036 335.42275 749 340.09375 C 748.1327 339.83975 747.26875 339.07475 746.40625 339.34375 C 743.20065 340.34775 744.199 345.69775 743.4375 348.96875 C 739.7057 365.00075 734.4663 380.51825 729.375 396.15625 C 718.3325 430.08125 708.25455 466.42425 717.09375 502.15625 C 718.91575 509.52125 722.2034 516.44675 724.75 523.59375 C 744.8169 562.78675 781.48715 579.8985 821.96875 590.6875 C 825.98905 591.6405 830.01095 592.57725 834.03125 593.53125 C 852.03635 597.66225 871.5051 512.78825 853.5 508.65625 C 850.1773 507.92425 846.85405 507.20075 843.53125 506.46875 C 830.21025 503.27875 815.94385 500.07825 805.21875 491.03125 C 792.08255 470.74725 805.96475 443.5065 811.28125 422.9375 C 826.11435 377.7795 843.1899 331.7085 817.8125 286.8125 C 812.3332 280.7685 807.5633 274.0025 801.375 268.6875 C 773.8075 245.0095 734.808 241.9685 700.375 239.3125 C 668.08791 238.68636 635.70087 239.38258 603.78125 244.4375 C 603.44403 243.01261 603.08827 241.60958 602.71875 240.1875 C 601.33563 235.7545 595.09067 234.05275 586.5625 234.28125 z M 443.59375 428.4375 C 424.13805 429.0955 404.75925 430.43275 385.46875 433.21875 C 347.31225 438.02375 309.20355 443.22225 270.90625 446.78125 C 252.42225 448.60225 260.98475 535.72625 279.46875 533.90625 C 318.32375 528.55425 357.1998 523.317 396.125 518.5 C 412.4191 516.287 428.73045 515.07625 445.15625 515.15625 C 463.55495 514.82425 461.99245 428.1055 443.59375 428.4375 z M 624.65625 598.6875 C 609.88332 598.79183 595.11706 599.19262 580.34375 599.90625 C 561.79665 601.18525 567.8279 688.62375 586.375 687.34375 C 622.1975 683.95575 658.1765 684.3105 694.0625 686.1875 C 716.27652 688.93293 741.11658 689.75615 762.125 699 C 742.74591 722.4172 718.74999 741.36565 694.5 759.5625 C 683.47871 754.5288 672.45066 749.46322 661.46875 744.34375 C 627.54205 727.66475 593.6747 710.47175 562.8125 688.46875 C 547.6269 677.76675 497.15815 749.3595 512.34375 760.0625 C 543.89979 780.83986 577.36754 798.35888 611.25 814.96875 C 589.72354 827.44349 567.67961 839.03752 545.28125 849.9375 C 522.23475 860.8995 498.51405 870.1605 473.59375 875.6875 C 455.77865 880.0765 476.46615 964.04425 494.28125 959.65625 C 524.90425 951.62125 554.5341 940.78425 582.9375 926.65625 C 624.76352 905.98336 665.58676 883.34688 704.40625 857.5 C 732.76828 870.17922 761.14801 882.82218 789.46875 895.59375 C 833.54945 915.86875 877.84195 935.67675 922.46875 954.71875 C 940.89585 962.64675 932.1115 958.856 948.875 966.125 C 965.8647 973.28 999.58345 893.18525 982.59375 886.03125 C 965.57185 879.07225 974.5029 882.7245 955.8125 875.0625 C 911.6162 856.9355 867.8904 837.75025 824.4375 817.90625 C 810.60656 811.70259 796.74973 805.52086 782.90625 799.34375 C 803.27648 782.3904 822.28605 763.93434 837.9375 742.375 C 841.2953 736.378 845.3641 730.723 848 724.375 C 863.0561 688.117 850.30375 652.7465 818.78125 630.9375 C 781.61265 610.7065 740.6242 602.63225 698.5 600.40625 C 673.89125 599.14312 649.27781 598.51361 624.65625 598.6875 z M 769.59375 702.75 C 771.43982 703.80734 773.23798 704.92504 775 706.15625 C 775.1405 706.71925 776.0175 707.82375 775.4375 707.84375 C 772.09743 707.97532 770.55803 705.52373 769.59375 702.75 z "
     id="path22495" />
</svg>
