<?xml version="1.0" encoding="UTF-8" standalone="no"?>
<svg
   xmlns:dc="http://purl.org/dc/elements/1.1/"
   xmlns:cc="http://creativecommons.org/ns#"
   xmlns:rdf="http://www.w3.org/1999/02/22-rdf-syntax-ns#"
   xmlns:svg="http://www.w3.org/2000/svg"
   xmlns="http://www.w3.org/2000/svg"
   xmlns:sodipodi="http://sodipodi.sourceforge.net/DTD/sodipodi-0.dtd"
   xmlns:inkscape="http://www.inkscape.org/namespaces/inkscape"
   width="1024"
   height="1024"
   id="U6B63"
   version="1.1"
   inkscape:version="0.48.0 r9654"
   sodipodi:docname="U+6B63.svg">
  <metadata
     id="metadata12">
    <rdf:RDF>
      <cc:Work
         rdf:about="">
        <dc:format>image/svg+xml</dc:format>
        <dc:type
           rdf:resource="http://purl.org/dc/dcmitype/StillImage" />
      </cc:Work>
    </rdf:RDF>
  </metadata>
  <defs
     id="defs10" />
  <sodipodi:namedview
     pagecolor="#ffffff"
     bordercolor="#666666"
     borderopacity="1"
     objecttolerance="10"
     gridtolerance="10"
     guidetolerance="10"
     inkscape:pageopacity="0"
     inkscape:pageshadow="2"
     inkscape:window-width="640"
     inkscape:window-height="480"
     id="namedview8"
     showgrid="false"
     inkscape:zoom="0.27441406"
     inkscape:cx="512"
     inkscape:cy="512"
     inkscape:window-x="0"
     inkscape:window-y="25"
     inkscape:window-maximized="0"
     inkscape:current-layer="U6B63" />
  <path
     style="fill:#2b1100;fill-opacity:1;fill-rule:nonzero;stroke:none"
     d="M 577.5625 237.03125 C 574.00007 237.046 570.43801 237.07931 566.875 237.125 C 490.8811 238.472 414.87075 241.449 339.21875 249.125 C 292.73005 254.091 246.3268 259.76725 200.0625 266.53125 C 181.5543 269.52525 195.6793 356.77525 214.1875 353.78125 C 258.7579 345.39625 303.75795 339.58425 348.78125 334.28125 C 377.31924 331.10726 405.91877 328.77528 434.5625 327.03125 C 429.32789 368.03436 427.50551 409.39189 425.53125 450.65625 C 422.21285 522.49525 420.3243 594.36725 420.5 666.28125 C 420.86053 692.82645 420.95645 719.44659 422.28125 745.96875 C 380.18835 747.33496 338.1172 749.25929 296.0625 751.65625 C 295.85306 708.10805 295.55089 664.52893 297.90625 621.03125 C 300.16095 589.50125 301.45845 556.87725 312.84375 527.03125 C 320.93795 510.10725 241.1568 471.95 233.0625 488.875 C 216.9093 528.941 214.34015 572.509 211.53125 615.125 C 209.17164 662.04904 209.49594 709.02926 209.3125 756 C 184.68457 756.58813 160.07757 755.80733 136.0625 750.75 C 118.8265 743.318 83.79525 824.568 101.03125 832 C 154.90685 847.901 212.37995 841.941 267.65625 838.875 C 347.80155 833.11 428.0361 829.8275 508.375 828.9375 C 577.7188 828.8995 647.04485 828.77375 716.34375 826.09375 C 762.46415 823.61175 808.49495 819.78775 854.65625 818.09375 C 869.01584 818.88716 888.50598 815.31925 901.34375 818.9375 C 900.16264 818.56758 898.99361 818.18248 897.8125 817.8125 C 915.53648 820.05895 953.66292 747.52136 937.71875 738.96875 C 933.45305 737.18775 929.17195 735.405 924.90625 733.625 C 900.49735 728.345 875.6958 729.60025 850.875 730.90625 C 804.7862 733.21525 758.8069 737.33625 712.75 740.15625 C 644.86179 743.21936 576.95061 743.77072 509 743.96875 C 507.05954 717.95776 507.19549 691.74757 506.1875 665.75 C 506.00778 648.402 505.96896 631.06205 506.09375 613.71875 C 506.19562 613.69711 506.30467 613.68353 506.40625 613.65625 C 540.05325 604.16825 574.1795 596.529 608.4375 589.625 C 647.4576 581.821 687.04925 577.4205 726.84375 578.1875 C 733.52655 579.0395 740.7226 578.4805 747.125 580.9375 C 765.4796 584.8125 783.7295 498.28125 765.375 494.40625 C 752.8119 492.20825 740.20665 490.65 727.40625 490.75 C 681.76745 490.911 636.38415 495.81725 591.59375 504.65625 C 563.66184 510.10314 535.82949 516.09048 508.09375 522.4375 C 508.91079 500.02187 509.9786 477.62127 511.25 455.21875 C 513.7155 413.00875 515.71095 370.521 523.46875 328.875 C 523.8259 326.99996 523.23749 325.14498 521.90625 323.34375 C 537.33808 322.94862 552.7862 322.6735 568.21875 322.46875 C 622.69565 322.08075 677.0478 325.86275 731.3125 330.21875 C 746.67099 334.28872 769.63368 330.63883 785.90625 335 C 784.40477 334.49142 782.90772 333.97742 781.40625 333.46875 C 799.03453 336.5563 838.89678 264.14801 823.03125 255.25 C 818.35405 253.456 813.6772 251.67 809 249.875 C 785.455 245.714 761.4743 245.43125 737.6875 243.53125 C 684.38941 239.98656 630.99895 236.81004 577.5625 237.03125 z M 785.9375 335 C 787.53262 335.5403 789.12365 336.08449 790.71875 336.625 C 789.20271 335.98888 787.61024 335.44952 785.9375 335 z "
     id="path14709" />
</svg>
