<?xml version="1.0" encoding="UTF-8" standalone="no"?>
<svg
   xmlns:dc="http://purl.org/dc/elements/1.1/"
   xmlns:cc="http://creativecommons.org/ns#"
   xmlns:rdf="http://www.w3.org/1999/02/22-rdf-syntax-ns#"
   xmlns:svg="http://www.w3.org/2000/svg"
   xmlns="http://www.w3.org/2000/svg"
   xmlns:sodipodi="http://sodipodi.sourceforge.net/DTD/sodipodi-0.dtd"
   xmlns:inkscape="http://www.inkscape.org/namespaces/inkscape"
   width="1024"
   height="1024"
   id="U6BCD"
   version="1.1"
   inkscape:version="0.48.0 r9654"
   sodipodi:docname="U+6BCD.svg">
  <metadata
     id="metadata12">
    <rdf:RDF>
      <cc:Work
         rdf:about="">
        <dc:format>image/svg+xml</dc:format>
        <dc:type
           rdf:resource="http://purl.org/dc/dcmitype/StillImage" />
      </cc:Work>
    </rdf:RDF>
  </metadata>
  <defs
     id="defs10" />
  <sodipodi:namedview
     pagecolor="#ffffff"
     bordercolor="#666666"
     borderopacity="1"
     objecttolerance="10"
     gridtolerance="10"
     guidetolerance="10"
     inkscape:pageopacity="0"
     inkscape:pageshadow="2"
     inkscape:window-width="640"
     inkscape:window-height="480"
     id="namedview8"
     showgrid="false"
     inkscape:zoom="0.27441406"
     inkscape:cx="512"
     inkscape:cy="512"
     inkscape:window-x="0"
     inkscape:window-y="25"
     inkscape:window-maximized="0"
     inkscape:current-layer="U6BCD" />
  <path
     style="fill:#c83737;fill-opacity:1;fill-rule:nonzero;stroke:#f9f9f9;stroke-width:0.1;stroke-miterlimit:4;stroke-dasharray:none"
     d="M 456.5 154.6875 C 441.83277 154.71749 427.14681 155.22844 412.46875 156.25 C 376.85835 158.723 341.36595 162.401 306.40625 169.875 C 288.09185 173.945 307.27935 260.2575 325.59375 256.1875 C 356.09375 248.4435 387.3911 245.28975 418.6875 242.96875 C 459.6156 239.99175 500.57875 241.51575 541.15625 247.34375 C 567.90945 251.15175 593.6292 258.8515 617.75 270.9375 C 630.9758 277.8125 639.61795 289.35725 647.78125 301.40625 C 656.58565 314.14725 661.6931 328.44875 664.875 343.46875 C 668.4051 364.81975 665.81875 386.40425 662.96875 407.65625 C 661.16841 419.0987 658.83898 430.44039 656.15625 441.6875 C 647.31401 441.49932 638.46733 441.30234 629.625 441.125 C 564.9718 440.106 500.31565 440.19175 435.65625 440.46875 C 383.98154 440.6118 332.29013 440.65806 280.625 441.75 C 286.46239 418.77513 293.15034 396.00997 301.0625 373.625 C 311.7405 342.362 322.3316 310.99825 335.75 280.78125 C 343.5825 263.74225 263.27 226.80475 255.4375 243.84375 C 241.929 277.28975 230.24165 311.44475 218.65625 345.59375 C 207.21016 378.15528 198.09941 411.422 190.28125 445 C 158.59501 446.57234 126.90833 448.2141 95.1875 448.40625 C 76.4399 448.27325 75.8149 536.64825 94.5625 536.78125 C 121.05855 535.66689 147.52952 534.0564 174 532.46875 C 172.23786 544.93596 170.66613 557.4228 169.28125 569.9375 C 165.98725 596.7395 167.58615 623.401 173.65625 649.625 C 180.23995 675.416 194.93225 695.93 214.40625 713.5 C 239.82085 733.608 270.83865 739.53975 302.15625 743.34375 C 341.17105 746.55675 380.35675 746.49475 419.46875 747.59375 C 460.11305 749.35975 500.7682 749.893 541.4375 749 C 546.3845 748.8746 551.33826 748.70178 556.28125 748.5 C 547.75384 773.03532 539.05394 797.51644 530.46875 822.03125 C 526.36535 833.62725 522.1982 845.19375 518.25 856.84375 C 515.03395 865.87768 515.57823 863.14309 519.59375 856.8125 C 512.35732 873.19288 575.94262 927.24678 587.875 913.40625 C 594.3353 904.58725 599.59925 895.552 602.34375 884.875 C 606.09685 873.415 610.0527 862.0005 613.875 850.5625 C 622.3065 825.3305 630.83875 800.15375 639.40625 774.96875 C 643.27104 763.73262 647.11659 752.49031 650.96875 741.25 C 651.52011 741.19429 652.07368 741.14971 652.625 741.09375 C 681.9719 737.96875 711.25505 734.19075 740.65625 731.59375 C 756.72665 730.34375 772.8031 729.45075 788.875 728.21875 C 791.7996 728.04775 794.92375 727.74 797.71875 728.25 C 816.45005 730.321 826.2313 642.0095 807.5 639.9375 C 798.7686 639.1195 790.01625 639.01475 781.28125 639.96875 C 765.01965 641.53675 748.704 642.64225 732.4375 644.15625 C 715.71299 645.80614 699.03174 647.75203 682.34375 649.71875 C 695.768 610.62424 708.98168 571.45358 721.21875 531.96875 C 721.41561 531.32314 721.61569 530.67697 721.8125 530.03125 C 737.725 530.59956 753.6252 531.23546 769.53125 531.96875 C 798.12065 533.26575 826.65225 535.62425 854.96875 539.78125 C 861.14745 540.60825 867.18095 542.311 872.84375 544.625 C 890.27155 551.647 923.3652 469.48975 905.9375 462.46875 C 893.3024 457.80175 880.38415 454.285 866.96875 452.625 C 835.84795 448.576 804.58395 446.12075 773.21875 444.96875 C 763.87895 444.61091 754.52905 444.27243 745.1875 443.96875 C 746.9059 435.81264 748.43981 427.62749 749.71875 419.375 C 753.99555 387.786 757.011 355.74025 750.75 324.15625 C 744.709 298.15425 735.5692 273.2275 720.125 251.1875 C 703.0262 226.9085 683.2499 205.12425 656.0625 191.90625 C 623.3984 176.42525 588.97395 165.87225 553.03125 161.15625 C 520.98502 156.89238 488.76791 154.62152 456.5 154.6875 z M 448 277.3125 C 427.04788 277.73548 374.28557 320.344 384.21875 333.4375 C 396.61665 349.8205 408.9766 366.231 422 382.125 C 427.2822 388.45 432.6759 394.67025 438.0625 400.90625 C 450.4063 415.02425 516.9688 356.83775 504.625 342.71875 C 499.7242 337.18175 494.75715 331.6985 489.96875 326.0625 C 477.59745 311.1775 465.87745 295.8005 454.78125 279.9375 C 453.36222 278.067 450.99316 277.25207 448 277.3125 z M 483.90625 525.875 C 531.9631 525.92656 580.0139 526.29425 628.0625 527.28125 C 629.18762 527.30973 630.31238 527.34636 631.4375 527.375 C 620.86144 560.80298 609.64942 594.0214 598.28125 627.1875 C 594.61713 637.90249 590.93321 648.60416 587.25 659.3125 C 571.34009 660.50021 555.39173 661.42733 539.4375 661.875 C 500.2673 662.822 461.11635 662.29175 421.96875 660.59375 C 385.55785 659.53375 349.0635 659.441 312.75 656.375 C 298.8227 654.672 284.3523 653.30775 271.8125 646.46875 C 265.2977 642.25575 261.7651 635.78325 259.3125 628.53125 C 254.7961 612.42525 254.8303 595.7595 256.4375 579.1875 C 258.15986 562.07422 260.32481 544.99894 262.9375 528 C 320.55106 526.08852 378.2026 526.00624 435.84375 525.90625 C 451.86307 525.86825 467.8873 525.85781 483.90625 525.875 z M 457.09375 539.90625 C 435.37343 539.7972 381.15339 576.28922 389.6875 589.96875 C 403.5825 611.03375 416.95845 632.42375 430.09375 653.96875 C 439.85815 669.84275 514.7019 623.8115 504.9375 607.9375 C 491.5371 586.3395 477.83995 564.92525 464.71875 543.15625 C 463.32226 540.91764 460.64798 539.92409 457.09375 539.90625 z "
     id="path11214" />
</svg>
