<?xml version="1.0" encoding="UTF-8" standalone="no"?>
<svg
   xmlns:dc="http://purl.org/dc/elements/1.1/"
   xmlns:cc="http://creativecommons.org/ns#"
   xmlns:rdf="http://www.w3.org/1999/02/22-rdf-syntax-ns#"
   xmlns:svg="http://www.w3.org/2000/svg"
   xmlns="http://www.w3.org/2000/svg"
   xmlns:sodipodi="http://sodipodi.sourceforge.net/DTD/sodipodi-0.dtd"
   xmlns:inkscape="http://www.inkscape.org/namespaces/inkscape"
   width="1024"
   height="1024"
   id="U6B22"
   version="1.1"
   inkscape:version="0.48.0 r9654"
   sodipodi:docname="U+6B22.svg">
  <metadata
     id="metadata13">
    <rdf:RDF>
      <cc:Work
         rdf:about="">
        <dc:format>image/svg+xml</dc:format>
        <dc:type
           rdf:resource="http://purl.org/dc/dcmitype/StillImage" />
      </cc:Work>
    </rdf:RDF>
  </metadata>
  <defs
     id="defs11" />
  <sodipodi:namedview
     pagecolor="#ffffff"
     bordercolor="#666666"
     borderopacity="1"
     objecttolerance="10"
     gridtolerance="10"
     guidetolerance="10"
     inkscape:pageopacity="0"
     inkscape:pageshadow="2"
     inkscape:window-width="640"
     inkscape:window-height="480"
     id="namedview9"
     showgrid="false"
     inkscape:zoom="0.27441406"
     inkscape:cx="512"
     inkscape:cy="512"
     inkscape:window-x="0"
     inkscape:window-y="25"
     inkscape:window-maximized="0"
     inkscape:current-layer="U6B22" />
  <path
     style="fill:#550000;fill-opacity:1;fill-rule:nonzero;stroke:#f9f9f9;stroke-width:0.1;stroke-miterlimit:4;stroke-dasharray:none"
     d="M 511.71875 148.0625 C 504.64474 148.23461 499.58346 149.99081 498.3125 153.9375 C 487.2061 190.4155 474.516 226.408 461.875 262.375 C 445.1636 308.944 429.7117 355.93825 416.1875 403.53125 C 410.6809 425.18125 413.08665 414.85225 408.90625 434.53125 C 405.31805 453.01425 492.44295 469.9205 496.03125 451.4375 C 498.54455 436.5415 496.97445 444.70475 501.03125 426.96875 C 511.02636 389.6533 522.65332 352.83248 535.40625 316.375 C 539.21196 321.0733 543.10352 323.53326 546.6875 322.4375 C 574.6224 314.0865 603.4756 309.19775 632.3125 305.21875 C 660.9599 301.44575 689.82165 302.80775 718.53125 304.84375 C 738.92585 306.27075 759.35905 307.942 779.09375 313.5 C 781.14235 310.972 796.10715 322.7015 788.78125 319.1875 C 788.40285 319.0625 787.87615 318.4805 787.65625 318.8125 C 785.60415 321.9135 785.2739 337.15225 784.8125 339.53125 C 782.0858 353.59225 780.1799 359.581 776.3125 374 C 761.6502 422.967 745.94025 471.65225 728.71875 519.78125 C 723.57035 534.86425 717.0479 549.194 708.75 562.75 C 699.5085 579.085 776.5084 622.6475 785.75 606.3125 C 795.742 587.8175 804.8179 568.975 811.25 548.875 C 828.7414 498.612 845.12895 447.96125 860.96875 397.15625 C 871.96605 357.60325 883.9123 316.2965 867.125 276.5625 C 850.8521 250.1455 832.09745 235.54025 801.90625 227.53125 C 776.51975 221.04425 750.6095 217.76175 724.4375 216.46875 C 689.7022 214.27675 654.7919 213.2145 620.1875 217.9375 C 602.54789 220.39756 584.93574 223.16938 567.4375 226.5 C 572.76784 211.4555 578.09826 196.40717 583.375 181.34375 C 587.91422 167.24844 536.98308 147.44781 511.71875 148.0625 z M 605.09375 316.9375 C 600.89081 317.02908 597.78198 318.22328 596.40625 320.84375 C 577.45755 362.61375 563.94265 406.59675 549.21875 449.96875 C 525.67705 521.37375 497.80615 591.16675 468.15625 660.21875 C 441.60875 720.52575 413.21545 780.00225 382.46875 838.28125 C 375.88835 850.08225 372.6991 856.2225 365.8125 867.1875 C 364.0495 869.9945 362.2788 872.7685 360.3125 875.4375 C 359.89107 876.00919 359.08169 877.21042 358.46875 877.9375 C 354.39222 896.22509 406.09376 953.47964 419.375 941.875 C 437.1837 923.559 448.83325 901.11825 460.28125 878.40625 C 479.38319 840.51281 497.79068 802.26979 515.59375 763.75 C 531.77858 785.93708 551.78316 804.82385 573.28125 822.125 C 609.65955 848.792 652.16735 864.73075 693.09375 882.84375 C 721.67335 895.12875 748.93465 910.067 775.96875 925.375 C 784.83505 930.511 793.86245 935.3965 802.40625 941.0625 C 818.42145 951.2035 866.2027 875.7035 850.1875 865.5625 C 840.0188 859.2985 829.58645 853.48525 819.09375 847.78125 C 789.45325 831.58925 759.61085 815.7435 728.53125 802.4375 C 694.47975 787.4695 659.1018 774.35675 628.25 753.21875 C 609.9722 738.83975 593.06915 722.763 581.78125 702.125 C 577.60574 694.48287 558.82706 699.41228 540.59375 708.5625 C 542.74085 703.73336 544.8705 698.89944 547 694.0625 C 577.4896 623.0785 606.43735 551.4545 631.40625 478.3125 C 645.07025 439.3285 657.46875 399.59875 675.46875 362.34375 C 682.89772 348.19322 627.78965 316.44298 605.09375 316.9375 z M 358.46875 877.9375 C 358.66878 877.04016 358.98887 876.22811 359.46875 875.53125 C 358.66407 876.35031 357.8334 877.16775 357.6875 878.25 C 357.61177 878.81196 357.97951 878.51785 358.46875 877.9375 z M 359.46875 875.53125 C 359.81951 875.17422 360.15809 874.82304 360.4375 874.4375 C 360.06103 874.76644 359.74597 875.12869 359.46875 875.53125 z M 133.59375 358.28125 C 114.66085 358.14925 114.03585 447.39925 132.96875 447.53125 C 167.83585 447.02425 202.6923 446.91875 237.5625 446.96875 C 256.49297 447.12801 275.48486 446.92061 294.40625 447.78125 C 285.72557 460.5884 276.80498 473.26219 267.90625 485.875 C 254.65045 504.34837 241.37358 522.80526 228.125 541.28125 C 215.9764 527.71049 204.34191 513.70274 193.71875 498.875 C 182.46635 483.634 110.59135 536.66625 121.84375 551.90625 C 138.84633 573.78041 157.27876 594.47269 176.25 614.625 C 173.79824 618.16672 171.34435 621.69852 168.90625 625.25 C 145.49215 658.533 126.3129 694.3795 106.9375 730.0625 C 105.8162 731.8755 104.71505 733.688 103.59375 735.5 C 94.16275 751.897 171.4439 796.36575 180.875 779.96875 C 182.4648 777.06775 184.06635 774.15 185.65625 771.25 C 201.82179 739.23313 218.31391 707.37206 238.5625 677.6875 C 255.35557 694.13732 272.27147 710.45932 289.21875 726.75 C 303.15715 739.633 316.2639 753.45825 331.4375 764.90625 C 347.1312 775.62125 397.6312 701.62025 381.9375 690.90625 C 373.3994 685.02625 359.6543 671.4425 350 662.8125 C 329.67193 643.71023 309.48668 624.43021 289.59375 604.875 C 305.97756 582.10127 322.59675 559.48987 339.25 536.90625 C 360.7869 507.19225 384.52465 477.937 398.28125 443.625 C 399.39295 436.83 401.9657 430.127 401.625 423.25 C 399.8111 386.64 372.0747 367.0485 338.625 362.5625 C 305.1156 358.8055 271.40435 358.9 237.71875 359 C 203.01015 358.941 168.29335 359.18725 133.59375 358.28125 z M 328.25 450.875 L 333.125 452.15625 C 333.3286 452.44425 334.0899 453.12125 333.75 453.03125 C 331.7677 452.48478 329.93291 451.75375 328.25 450.875 z "
     id="path8075" />
</svg>
