<?xml version="1.0" encoding="UTF-8" standalone="no"?>
<svg
   xmlns:dc="http://purl.org/dc/elements/1.1/"
   xmlns:cc="http://creativecommons.org/ns#"
   xmlns:rdf="http://www.w3.org/1999/02/22-rdf-syntax-ns#"
   xmlns:svg="http://www.w3.org/2000/svg"
   xmlns="http://www.w3.org/2000/svg"
   xmlns:sodipodi="http://sodipodi.sourceforge.net/DTD/sodipodi-0.dtd"
   xmlns:inkscape="http://www.inkscape.org/namespaces/inkscape"
   width="1024"
   height="1024"
   id="U6B65"
   version="1.1"
   inkscape:version="0.48.0 r9654"
   sodipodi:docname="U+6B65.svg">
  <metadata
     id="metadata14">
    <rdf:RDF>
      <cc:Work
         rdf:about="">
        <dc:format>image/svg+xml</dc:format>
        <dc:type
           rdf:resource="http://purl.org/dc/dcmitype/StillImage" />
      </cc:Work>
    </rdf:RDF>
  </metadata>
  <defs
     id="defs12" />
  <sodipodi:namedview
     pagecolor="#ffffff"
     bordercolor="#666666"
     borderopacity="1"
     objecttolerance="10"
     gridtolerance="10"
     guidetolerance="10"
     inkscape:pageopacity="0"
     inkscape:pageshadow="2"
     inkscape:window-width="640"
     inkscape:window-height="480"
     id="namedview10"
     showgrid="false"
     inkscape:zoom="0.27441406"
     inkscape:cx="512"
     inkscape:cy="512"
     inkscape:window-x="0"
     inkscape:window-y="25"
     inkscape:window-maximized="0"
     inkscape:current-layer="U6B65" />
  <path
     style="fill:#aa0000;fill-opacity:1;fill-rule:nonzero;stroke:#f9f9f9;stroke-width:0.1;stroke-miterlimit:4;stroke-dasharray:none"
     d="M 463.1875 123 C 457.73115 123.07541 453.81449 124.50549 452.46875 127.71875 C 436.99345 173.10715 432.28305 221.21735 427.46875 268.65625 C 422.27385 322.79195 421.05985 377.1719 424.40625 431.4375 C 425.02434 443.79172 426.78315 455.98744 429.0625 468.09375 C 393.44138 471.66436 357.83595 475.42965 322.21875 479.03125 C 320.74847 448.85633 318.64994 418.6795 317.96875 388.46875 C 317.08175 353.42595 316.59205 318.38915 317.71875 283.34375 C 317.57245 264.76485 229.9787 265.45225 230.125 284.03125 C 230.5271 319.59775 230.96685 355.16075 231.90625 390.71875 C 232.57474 422.91073 234.67605 455.041 235.6875 487.21875 C 234.65502 487.30785 233.62631 487.41171 232.59375 487.5 C 187.47605 491.0033 142.29365 493.9086 97.28125 498.625 C 78.89735 501.4154 92.0536 588.07165 110.4375 585.28125 C 153.3081 579.07405 196.5619 575.99505 239.6875 572.09375 C 251.57475 570.93203 263.46351 569.75544 275.34375 568.53125 C 262.01789 583.65596 248.80648 598.86815 235.5625 614.0625 C 210.1747 643.3645 184.8343 672.72835 160.875 703.21875 C 158.8443 706.05505 156.81185 708.9137 154.78125 711.75 C 144.38535 727.1059 216.76035 776.1059 227.15625 760.75 C 228.12485 759.1562 229.0939 757.56265 230.0625 755.96875 C 251.8652 726.29445 276.0752 698.4864 300.1875 670.6875 C 323.4928 644.2122 346.59995 617.4665 371.40625 592.375 C 376.84758 586.93367 369.39125 573.13113 357.875 559.75 C 401.25557 555.10544 444.63365 550.52996 488.09375 546.625 C 548.79418 541.62733 609.66177 538.14483 670.5625 537.21875 C 670.49113 537.54851 670.45008 537.87402 670.4375 538.21875 C 665.702 568.34085 645.9109 593.0292 627.4375 616.125 C 592.53362 656.73829 549.33716 688.08447 504.375 716.46875 C 501.23586 696.60186 496.93405 661.12751 501.21875 670.6875 C 502.41505 642.6602 504.36095 614.32595 512.09375 587.21875 C 517.69115 569.49385 434.12855 543.11885 428.53125 560.84375 C 419.42175 595.46375 416.6062 631.2444 415 666.875 C 415.8068 695.7778 413.0139 727.2196 423.6875 754.875 C 424.3602 756.61792 425.15001 758.32112 425.96875 760 C 388.88162 777.96525 350.66373 793.5722 312.28125 808.59375 C 275.67025 822.65575 238.88195 836.27115 202.59375 851.15625 C 193.62855 854.81165 184.70415 858.56775 175.84375 862.46875 C 158.94955 870.14615 195.13705 949.77115 212.03125 942.09375 C 220.03145 938.31115 228.1205 934.7472 236.25 931.25 C 271.7162 915.9383 307.79815 902.10285 343.71875 887.90625 C 406.86695 862.56365 469.68345 835.9077 528.34375 801.125 C 588.83865 764.1719 647.7781 723.8046 694.25 669.5 C 724.4656 631.637 752.78985 591.01455 757.90625 541.40625 C 757.94738 540.27929 757.66371 539.23094 757.09375 538.21875 C 771.8034 526.16074 774.71519 453.33394 757.78125 452.3125 C 732.41555 451.4723 707.03795 450.66 681.65625 451.3125 C 626.47809 452.76539 571.3433 455.94731 516.3125 460.21875 C 516.30007 460.15602 516.29584 460.09394 516.28125 460.03125 C 513.21245 448.69615 511.15575 437.1846 510.34375 425.4375 C 508.9497 407.79514 508.21679 390.13818 508.03125 372.46875 C 510.39181 374.73153 512.85418 375.81487 515.28125 375.28125 C 548.59375 367.88605 582.6636 365.42045 616.6875 364.40625 C 642.201 364.68795 668.06815 364.8377 693.21875 369.6875 C 711.56135 372.5323 724.9676 286.06365 706.625 283.21875 C 675.9216 279.15905 644.92255 277.9211 613.96875 278.3125 C 579.62743 279.46594 545.32657 281.94791 511.375 287.28125 C 511.66188 284.00507 511.99165 280.74275 512.3125 277.46875 C 516.4495 238.50815 520.0997 198.7291 533.25 161.5625 C 539.08156 147.63828 486.83169 122.67324 463.1875 123 z "
     id="path20349" />
</svg>
