<?xml version="1.0" encoding="UTF-8" standalone="no"?>
<svg
   xmlns:dc="http://purl.org/dc/elements/1.1/"
   xmlns:cc="http://creativecommons.org/ns#"
   xmlns:rdf="http://www.w3.org/1999/02/22-rdf-syntax-ns#"
   xmlns:svg="http://www.w3.org/2000/svg"
   xmlns="http://www.w3.org/2000/svg"
   xmlns:sodipodi="http://sodipodi.sourceforge.net/DTD/sodipodi-0.dtd"
   xmlns:inkscape="http://www.inkscape.org/namespaces/inkscape"
   width="1024"
   height="1024"
   id="U6C42"
   version="1.1"
   inkscape:version="0.48.0 r9654"
   sodipodi:docname="U+6C42.svg">
  <metadata
     id="metadata14">
    <rdf:RDF>
      <cc:Work
         rdf:about="">
        <dc:format>image/svg+xml</dc:format>
        <dc:type
           rdf:resource="http://purl.org/dc/dcmitype/StillImage" />
      </cc:Work>
    </rdf:RDF>
  </metadata>
  <defs
     id="defs12" />
  <sodipodi:namedview
     pagecolor="#ffffff"
     bordercolor="#666666"
     borderopacity="1"
     objecttolerance="10"
     gridtolerance="10"
     guidetolerance="10"
     inkscape:pageopacity="0"
     inkscape:pageshadow="2"
     inkscape:window-width="640"
     inkscape:window-height="480"
     id="namedview10"
     showgrid="false"
     inkscape:zoom="0.27441406"
     inkscape:cx="512"
     inkscape:cy="512"
     inkscape:window-x="0"
     inkscape:window-y="25"
     inkscape:window-maximized="0"
     inkscape:current-layer="U6C42" />
  <path
     style="fill:#a02c2c;fill-opacity:1;fill-rule:nonzero;stroke:#f9f9f9;stroke-width:0.1;stroke-miterlimit:4;stroke-dasharray:none"
     d="M 723 66.5 C 701.28025 67.097672 648.27237 105.35063 657.25 118.75 C 677.6385 146.801 697.9796 174.88525 718.0625 203.15625 C 728.7582 218.20525 799.6956 167.799 789 152.75 C 769.3771 125.155 749.424 97.751 730.75 69.5 C 729.28093 67.307234 726.55414 66.402199 723 66.5 z M 459.96875 114.84375 C 442.58937 114.76589 427.65979 118.00622 427 125.59375 C 425.1424 179.20575 425.73745 232.89525 425.34375 286.53125 C 425.26014 297.74489 425.11967 308.94381 424.96875 320.15625 C 405.18869 322.10302 385.38099 323.74318 365.53125 324.96875 C 319.70115 327.89975 273.78215 329.95075 228.09375 334.71875 C 209.55395 337.54875 222.8977 424.956 241.4375 422.125 C 284.5046 415.97 328.04535 413.8655 371.40625 410.6875 C 388.72048 409.46325 406.01365 407.9728 423.28125 406.28125 C 422.15721 452.54882 420.76449 498.80039 419.46875 545.0625 C 419.02095 559.3201 418.70463 573.58402 418.5 587.84375 C 376.37843 611.48083 334.95034 636.35402 294.53125 662.8125 C 259.79815 685.6015 225.2129 708.6225 191 732.1875 C 176.0012 743.4765 229.21995 814.165 244.21875 802.875 C 275.99525 778.962 309.02515 756.7605 342.09375 734.6875 C 367.17385 718.00768 392.80985 702.1849 418.84375 687.0625 C 419.17592 703.31195 419.64847 719.56813 420.21875 735.8125 C 419.93005 757.8445 424.2732 779.94875 422.75 801.96875 C 422.307 820.68975 510.5571 822.7825 511 804.0625 C 511.0567 780.0205 507.9269 756.15925 506.8125 732.15625 C 505.84847 712.72224 505.1119 693.2909 504.5625 673.84375 C 529.94964 686.93793 555.58533 699.49204 581.65625 711.1875 C 628.12925 731.1695 677.20595 744.03075 725.78125 757.71875 C 761.23175 766.90675 795.84255 778.52425 829.34375 793.28125 C 838.77695 797.58525 848.0381 802.244 857.375 806.75 C 874.3181 814.686 911.72435 734.81 894.78125 726.875 C 884.49815 722.214 874.32035 717.385 863.96875 712.875 C 826.68865 697.15 788.37325 684.3495 749.15625 674.3125 C 704.72105 661.9215 659.8174 650.2625 617.3125 632.0625 C 585.8248 617.8005 554.93815 602.20175 525.03125 584.84375 C 519.70573 581.87038 511.57602 588.08107 503.5625 598.0625 C 503.61301 581.12752 503.83841 564.18483 504.28125 547.25 C 505.45558 497.04336 506.80191 446.83068 508.03125 396.625 C 531.45958 393.65325 554.88342 390.48835 578.28125 387.3125 C 617.80545 381.5445 657.48705 377.097 697.34375 374.5 C 705.65035 374.056 702.3614 373.943 707.25 374.25 C 726.0458 373.701 723.45205 285.10625 704.65625 285.65625 C 695.41065 286.23425 700.2455 285.83475 690.125 286.84375 C 648.7728 290.92775 607.53535 296.02425 566.46875 302.40625 C 547.64966 305.0812 528.81669 307.69608 509.96875 310.1875 C 510.11618 302.67355 510.27329 295.17051 510.40625 287.65625 C 511.38985 236.19625 511.3254 184.6 515.0625 133.25 C 516.02687 122.15994 485.36938 114.95754 459.96875 114.84375 z M 668.625 434.5625 C 666.6201 434.65698 664.97445 435.30112 663.78125 436.59375 C 644.19535 458.47175 622.8627 478.68375 600.75 497.96875 C 583.5249 511.97875 592.19995 505.227 574.78125 518.25 C 559.99425 529.383 612.463 599.0715 627.25 587.9375 C 648.0454 572.1885 637.775 580.2705 658.0625 563.6875 C 682.5741 542.3195 706.15235 519.95475 728.78125 496.59375 C 740.31555 484.09837 688.00572 433.6492 668.625 434.5625 z M 269 456.28125 C 249.58836 455.62585 197.91299 506.8335 209.625 519.1875 C 227.7061 538.2995 242.8533 559.95175 258.25 581.21875 C 272.657 601.31775 287.3848 621.19725 301.8125 641.28125 C 312.7744 656.34525 383.7745 604.65675 372.8125 589.59375 C 358.2016 569.76175 343.37075 550.0935 329.03125 530.0625 C 311.37805 505.5905 293.94325 480.865 273.90625 458.25 C 272.69466 456.97209 271.0081 456.34905 269 456.28125 z "
     id="path11335" />
</svg>
