<?xml version="1.0" encoding="utf-8" ?>

<!DOCTYPE svg PUBLIC "-//W3C//DTD SVG 1.1//EN" 
  "http://www.w3.org/Graphics/SVG/1.1/DTD/svg11.dtd">
<svg 
    xmlns="http://www.w3.org/2000/svg"
    xmlns:xlink="http://www.w3.org/1999/xlink"
    xmlns:sodipodi="http://sodipodi.sourceforge.net/DTD/sodipodi-0.dtd"
    xmlns:inkscape="http://www.inkscape.org/namespaces/inkscape"
    width="1024" height="1024" id="U6CF3">
<path d="m 10496.058,59606.494 c 17.131,16.407 33.904,33.036 48.975,51.375 11.733,14.525 -56.74,69.834 -68.473,55.308 l 0,0 c -12.528,-15.926 -27.289,-29.736 -42.297,-43.303 -13.445,-13.109 48.35,-76.489 61.795,-63.38 z" id="path13024" inkscape:connector-curvature="0" style="fill:#2b1100;fill-opacity:1;fill-rule:nonzero;stroke:none" transform="translate(-10240, -59392)"/><path d="m 10418.807,59813.42 c 11.266,23.206 25.698,44.69 39.383,66.504 8.389,12.741 15.62,26.137 22.653,39.652 8.489,16.565 -69.601,56.582 -78.09,40.016 l 0,0 c -5.699,-11.362 -11.721,-22.538 -18.711,-33.178 -15.534,-24.789 -31.702,-49.244 -45.243,-75.213 -8.014,-16.972 71.993,-54.753 80.008,-37.781 z" id="path13027" inkscape:connector-curvature="0" style="fill:#2b1100;fill-opacity:1;fill-rule:nonzero;stroke:none" transform="translate(-10240, -59392)"/><path d="m 10339.531,60162.571 c 31.544,-24.108 62.986,-48.324 93.656,-73.537 18.768,-15.538 36.636,-32.102 54.521,-48.63 13.518,-12.434 72.129,51.289 58.611,63.722 l 0,0 c -19.094,17.484 -38.169,35.002 -58.062,51.585 -30.952,25.677 -62.763,50.272 -93.671,75.999 -14.666,11.679 -69.721,-57.46 -55.055,-69.139 z" id="path13029" inkscape:connector-curvature="0" style="fill:#2b1100;fill-opacity:1;fill-rule:nonzero;stroke:none" transform="translate(-10240, -59392)"/><path d="m 10863.479,59555.955 c 7.154,23.226 19.358,44.305 31.852,64.978 9.567,15.945 -65.597,61.043 -75.164,45.098 l 0,0 c -15.697,-26.327 -30.463,-53.289 -40.621,-82.319 -5.888,-17.805 78.045,-45.562 83.933,-27.757 z" id="path13092" inkscape:connector-curvature="0" style="fill:#2b1100;fill-opacity:1;fill-rule:nonzero;stroke:none" transform="translate(-10240, -59392)"/><path d="m 10583.754,59776.526 c 26.931,-17.527 57.056,-28.151 87.809,-36.66 38.931,-9.769 78.948,-12.991 118.958,-13.057 34.96,-0.295 67.381,7.363 97.119,25.604 30.528,22.665 39.627,56.835 45.184,92.534 5.195,44.324 2.929,89.031 0.633,133.46 -2.864,49.677 -6.585,99.3 -10.479,148.906 -2.546,36.119 -7.254,72.006 -12.765,107.774 -2.591,17.039 -5.126,34.086 -7.897,51.097 -0.244,1.519 -0.487,3.038 -0.73,4.556 -3.166,18.533 -90.527,3.611 -87.362,-14.922 l 0,0 c 0.278,-1.53 0.556,-3.06 0.833,-4.59 2.993,-16.642 5.859,-33.305 8.55,-50 5.565,-33.469 10.394,-67.06 12.934,-100.917 4.068,-48.682 7.849,-97.397 10.436,-146.184 1.82,-38.558 3.741,-77.362 -0.668,-115.824 -1.66,-10.892 -3.257,-22.05 -7.205,-32.397 -12.534,-11.768 -33.107,-10.048 -48.84,-11.757 -32.117,-0.281 -64.252,2.194 -95.529,9.922 -21.644,5.91 -43.083,13.037 -61.669,26.005 -15.602,10.46 -64.914,-63.089 -49.312,-73.55 z" id="path13094" inkscape:connector-curvature="0" style="fill:#2b1100;fill-opacity:1;fill-rule:nonzero;stroke:none" transform="translate(-10240, -59392)"/><path d="m 10627.505,59926.885 c 24.99,-1.617 49.907,-3.915 74.948,-4.609 21.905,-0.654 43.283,2.19 63.647,10.274 28.035,13.728 36.098,40.006 34.716,69.138 -2.614,27.028 -9.486,53.305 -17.958,79.017 -12.409,34.514 -31.155,66.15 -50.292,97.259 -20.665,32.505 -41.758,64.734 -62.234,97.359 -12.46,20.257 -25.18,40.348 -37.924,60.427 -10.086,15.687 -84.036,-31.859 -73.95,-47.546 l 0,0 c 12.843,-19.727 25.67,-39.462 38.124,-59.439 20.446,-32.205 41.31,-64.143 61.667,-96.405 15.563,-25.43 30.98,-51.198 41.43,-79.242 6.156,-18.392 10.908,-37.22 12.887,-56.563 0.09,-0.945 -0.217,-2.026 0.281,-2.834 1.293,-2.098 1.571,4.715 2.836,6.831 3.592,6.01 8.282,10.883 14.981,13.208 -5.391,-5.029 -19.176,-2.338 -26.249,-3.629 -23.741,0.37 -47.364,2.628 -70.975,5.035 -18.727,1.259 -24.662,-87.022 -5.935,-88.281 z" id="path13100" inkscape:connector-curvature="0" style="fill:#2b1100;fill-opacity:1;fill-rule:nonzero;stroke:none" transform="translate(-10240, -59392)"/><path d="m 11129.741,59878.585 c -21.014,19.021 -40.941,39.192 -60.927,59.277 -15.909,16.036 -31.596,32.284 -47.032,48.775 -12.695,13.509 -76.378,-46.333 -63.684,-59.842 l 0,0 c 16.029,-16.997 32.304,-33.753 48.723,-50.374 20.529,-20.794 41.099,-41.545 61.947,-62.018 13.615,-12.935 74.588,51.247 60.973,64.182 z" id="path13118" inkscape:connector-curvature="0" style="fill:#2b1100;fill-opacity:1;fill-rule:nonzero;stroke:none" transform="translate(-10240, -59392)"/><path d="m 10946.374,60007.234 c 22.488,19.26 44.002,39.626 65.757,59.703 27.885,25.571 57.173,49.529 86.5,73.41 30.576,24.148 60.092,49.561 89.661,74.916 19.545,16.678 39.89,32.428 61.587,46.207 9.249,5.685 4.669,2.856 13.741,8.486 15.842,9.994 -31.27,84.671 -47.111,74.677 l 0,0 c -9.206,-5.906 -4.321,-2.78 -14.656,-9.373 -24.681,-16.366 -48.109,-34.5 -70.485,-53.902 -28.851,-24.956 -57.728,-49.876 -87.676,-73.521 -30.676,-24.964 -61.332,-49.979 -90.599,-76.599 -20.094,-18.355 -39.883,-37.137 -61.13,-54.163 -14.815,-11.543 39.596,-81.384 54.411,-69.841 z" id="path13120" inkscape:connector-curvature="0" style="fill:#2b1100;fill-opacity:1;fill-rule:nonzero;stroke:none" transform="translate(-10240, -59392)"/></svg>