<?xml version="1.0" encoding="utf-8" ?>

<!DOCTYPE svg PUBLIC "-//W3C//DTD SVG 1.1//EN" 
  "http://www.w3.org/Graphics/SVG/1.1/DTD/svg11.dtd">
<svg 
    xmlns="http://www.w3.org/2000/svg"
    xmlns:xlink="http://www.w3.org/1999/xlink"
    xmlns:sodipodi="http://sodipodi.sourceforge.net/DTD/sodipodi-0.dtd"
    xmlns:inkscape="http://www.inkscape.org/namespaces/inkscape"
    width="1024" height="1024" id="U6CA1">
<path d="m 9432.5622,33012.791 c 18.4298,16.871 37.7192,32.71 57.5029,47.954 17.3871,12.795 34.1066,26.425 50.221,40.78 10.6287,8.229 17.9523,18.143 24.5076,29.756 7.5334,17.285 -73.9458,52.797 -81.4791,35.513 l 0,0 c 9.54,14.959 3.9257,4.765 -2.3819,0.18 -14.1541,-13.113 -29.0802,-25.319 -44.5729,-36.825 -20.8417,-16.191 -41.0933,-33.068 -61.2484,-50.099 -14.2679,-12.187 43.1829,-79.447 57.4508,-67.259 z" id="path10978" inkscape:connector-curvature="0" style="fill:#c83737;fill-opacity:1;fill-rule:nonzero;stroke:#f9f9f9;stroke-width:0.1;stroke-miterlimit:4;stroke-dasharray:none" transform="translate(-9216, -32768)"/><path d="m 9363.3591,33242.604 c 21.3683,17.059 43.4264,33.224 65.5425,49.292 21.9838,15.327 42.9882,31.88 61.7958,50.989 12.9469,12.558 18.8692,27.36 23.0469,44.503 2.7598,18.6 -84.9238,31.61 -87.6836,13.01 l 0,0 c 1.8156,4.746 6.8937,12.686 1.0493,3.594 -14.6663,-15.91 -32.2136,-28.632 -49.6884,-41.266 -22.5041,-16.362 -44.8427,-32.945 -67.2474,-49.442 -14.9935,-11.282 38.1914,-81.962 53.1849,-70.68 z" id="path10980" inkscape:connector-curvature="0" style="fill:#c83737;fill-opacity:1;fill-rule:nonzero;stroke:#f9f9f9;stroke-width:0.1;stroke-miterlimit:4;stroke-dasharray:none" transform="translate(-9216, -32768)"/><path d="m 9340.8422,33599.539 c 24.6416,-16.715 49.3131,-33.384 74.0715,-49.927 23.9728,-16.621 49.1177,-31.326 74.5748,-45.509 1.1254,0.57 20.4888,-13.823 13.8993,-8.999 13.7486,-12.896 74.542,51.916 60.7934,64.812 l 0,0 c -9.9412,8.562 -20.9569,15.578 -32.593,21.659 -23.355,12.381 -46.3987,25.302 -68.079,40.505 -24.6509,16.59 -49.2773,33.228 -73.1888,50.878 -15.5746,10.496 -65.0527,-62.924 -49.4782,-73.419 z" id="path10982" inkscape:connector-curvature="0" style="fill:#c83737;fill-opacity:1;fill-rule:nonzero;stroke:#f9f9f9;stroke-width:0.1;stroke-miterlimit:4;stroke-dasharray:none" transform="translate(-9216, -32768)"/><path d="m 9703.4897,33041.876 c -12.7885,39.242 -24.9122,78.695 -36.7589,118.23 -13.372,45.634 -26.1402,91.443 -38.7704,137.287 -2.6765,9.924 -5.4773,19.808 -6.9572,29.988 -3.5582,18.389 -90.2473,1.616 -86.6892,-16.773 l 0,0 c 2.7373,-12.506 5.9618,-24.869 9.7309,-37.111 13.5066,-45.927 26.5768,-91.98 39.8925,-137.962 11.6501,-39.634 23.7008,-79.155 34.8051,-118.947 5.3643,-17.977 90.1115,7.31 84.7472,25.288 z" id="path10984" inkscape:connector-curvature="0" style="fill:#c83737;fill-opacity:1;fill-rule:nonzero;stroke:#f9f9f9;stroke-width:0.1;stroke-miterlimit:4;stroke-dasharray:none" transform="translate(-9216, -32768)"/><path d="m 9697.2925,33002.984 c 27.4389,-4.864 55.1195,-6.786 82.9488,-6.467 27.4167,1.06 54.7017,4.13 81.8486,7.995 19.2002,2.577 37.6288,7.507 54.8408,16.402 18.8171,10.799 28.7887,27.727 33.594,48.345 3.2142,22.701 -0.2891,45.565 -3.4283,68.066 -4.6258,29.783 -9.2972,59.547 -12.0843,89.566 -0.7796,15.9 -2.5555,33.222 5.2097,47.78 3.8589,3.348 10.3323,3.206 15.308,4.115 17.0363,2.464 34.2755,2.137 51.4212,1.428 14.681,-0.966 29.36,-0.121 43.94,1.642 11.556,1.071 18.754,6.349 28.905,12.327 14.285,12.34 -43.89,79.681 -58.175,67.34 l 0,0 c 13.353,7.387 9.076,6.809 17.549,8.294 -9.625,-1.476 -19.31,-2.223 -29.056,-1.51 -24.6977,0.777 -49.5506,0.848 -73.9527,-3.633 -33.5191,-8.101 -61.8723,-23.517 -77.2402,-56.033 -11.285,-29.062 -14.7331,-59.047 -11.0915,-90.13 3.0765,-31.091 7.7517,-61.958 12.2716,-92.865 1.669,-13.03 3.4094,-26.149 3.4074,-39.286 2.1349,4.889 5.1291,10.136 10.4233,12.047 -5.5421,-5.579 -17.7483,-4.091 -24.7183,-6.815 -23.2841,-3.591 -46.7093,-6.388 -70.2607,-7.415 -22.0179,-0.424 -43.9646,1.22 -65.538,5.868 -18.4684,3.42 -34.5907,-83.64 -16.1224,-87.061 z" id="path10986" inkscape:connector-curvature="0" style="fill:#c83737;fill-opacity:1;fill-rule:nonzero;stroke:#f9f9f9;stroke-width:0.1;stroke-miterlimit:4;stroke-dasharray:none" transform="translate(-9216, -32768)"/><path d="m 9585.4244,33384.61 c 33.2359,-2.88 66.4656,-5.777 99.74,-8.183 43.8987,-3.473 87.8986,-3.678 131.8373,-1.175 27.9906,1.619 55.6117,6.484 83.3291,10.379 9.3111,1.531 18.7018,1.037 28.0709,1.735 37.151,5.423 28.4473,20.097 33.1299,74.456 0.4327,5.022 -18.457,18.361 -22.1724,21.502 -23.0033,18.192 -44.5142,38.083 -65.6344,58.398 -37.0504,36.881 -73.4103,74.438 -110.7606,111.018 -32.6635,31.857 -66.5872,62.377 -100.0433,93.389 -15.3214,14.159 -30.0778,28.914 -44.3411,44.135 -7.1797,9.172 -15.2398,15.181 -25.057,21.555 -17.2366,7.73 -53.6748,-73.525 -36.4381,-81.255 l 0,0 c -22.4168,14.974 -8.0502,6.052 -2.2516,-1.614 15.9347,-16.187 32.2749,-31.976 49.1382,-47.196 33.1242,-29.97 66.5853,-59.59 98.6267,-90.729 37.4524,-36.585 73.7547,-74.298 110.468,-111.62 22.1939,-21.843 44.7472,-43.313 68.8245,-63.095 2.5116,-2.194 4.615,-4.985 7.5545,-6.561 19.3365,-10.365 10.3001,42.9 19.1795,62.962 1.0657,2.408 8.5872,2.826 11.9752,3.104 -11.0669,-1.446 -22.4652,-0.411 -33.4494,-2.99 -25.0781,-4.019 -50.077,-8.814 -75.4586,-10.581 -39.9962,-2.629 -80.0649,-2.41 -120.0319,0.933 -32.7764,2.542 -65.5418,5.384 -98.1581,9.549 -18.6923,1.714 -26.7696,-86.403 -8.0773,-88.116 z" id="path10994" inkscape:connector-curvature="0" style="fill:#c83737;fill-opacity:1;fill-rule:nonzero;stroke:#f9f9f9;stroke-width:0.1;stroke-miterlimit:4;stroke-dasharray:none" transform="translate(-9216, -32768)"/><path d="m 9618.268,33451.325 c 23.1252,25.715 49.1918,48.198 76.8393,68.856 43.0074,30.158 89.1125,55.476 134.8115,81.239 43.0719,23.798 84.9093,49.707 125.9079,76.896 20.6103,12.435 38.8939,29.174 60.7773,39.48 0.554,0.122 1.108,0.244 1.662,0.366 17.379,7.109 -16.133,89.035 -33.512,81.926 l 0,0 c -3.0374,-1.347 -6.0749,-2.694 -9.1123,-4.042 -24.03,-13.164 -45.6896,-29.976 -68.2861,-45.39 -38.9018,-26.351 -78.7047,-51.356 -119.8124,-74.147 -48.8509,-27.597 -98.216,-54.57 -144.2664,-86.75 -30.9768,-23.016 -60.2366,-47.939 -87.1926,-75.61 -13.3272,-13.191 48.8566,-76.016 62.1838,-62.824 z" id="path10996" inkscape:connector-curvature="0" style="fill:#c83737;fill-opacity:1;fill-rule:nonzero;stroke:#f9f9f9;stroke-width:0.1;stroke-miterlimit:4;stroke-dasharray:none" transform="translate(-9216, -32768)"/></svg>