<?xml version="1.0" encoding="UTF-8" standalone="no"?>
<svg
   xmlns:dc="http://purl.org/dc/elements/1.1/"
   xmlns:cc="http://creativecommons.org/ns#"
   xmlns:rdf="http://www.w3.org/1999/02/22-rdf-syntax-ns#"
   xmlns:svg="http://www.w3.org/2000/svg"
   xmlns="http://www.w3.org/2000/svg"
   xmlns:sodipodi="http://sodipodi.sourceforge.net/DTD/sodipodi-0.dtd"
   xmlns:inkscape="http://www.inkscape.org/namespaces/inkscape"
   width="1024"
   height="1024"
   id="U6C11"
   version="1.1"
   inkscape:version="0.48.0 r9654"
   sodipodi:docname="U+6C11.svg">
  <metadata
     id="metadata12">
    <rdf:RDF>
      <cc:Work
         rdf:about="">
        <dc:format>image/svg+xml</dc:format>
        <dc:type
           rdf:resource="http://purl.org/dc/dcmitype/StillImage" />
      </cc:Work>
    </rdf:RDF>
  </metadata>
  <defs
     id="defs10" />
  <sodipodi:namedview
     pagecolor="#ffffff"
     bordercolor="#666666"
     borderopacity="1"
     objecttolerance="10"
     gridtolerance="10"
     guidetolerance="10"
     inkscape:pageopacity="0"
     inkscape:pageshadow="2"
     inkscape:window-width="640"
     inkscape:window-height="480"
     id="namedview8"
     showgrid="false"
     inkscape:zoom="0.27441406"
     inkscape:cx="512"
     inkscape:cy="512"
     inkscape:window-x="0"
     inkscape:window-y="25"
     inkscape:window-maximized="0"
     inkscape:current-layer="U6C11" />
  <path
     style="fill:#c83737;fill-opacity:1;fill-rule:nonzero;stroke:#f9f9f9;stroke-width:0.1;stroke-miterlimit:4;stroke-dasharray:none"
     d="M 471.125 185.90625 C 462.49799 185.9522 453.8784 186.18075 445.25 186.625 C 406.0097 188.94 366.8703 192.89475 327.9375 198.34375 C 296.3695 203.26775 264.98645 209.082 233.84375 216.25 C 224.53917 218.63205 225.72919 242.23195 231.5625 264.09375 C 230.26152 265.06334 229.4216 266.27113 229.0625 267.71875 C 218.0764 314.88775 211.9542 362.982 206.125 411 C 198.2661 478.393 194.01515 546.106 191.21875 613.875 C 189.58175 659.289 189.32725 704.7515 189.84375 750.1875 C 190.06575 772.5705 191.16915 794.9315 191.40625 817.3125 C 191.58485 826.7985 191.1874 836.282 190.8125 845.75 C 192.4591 888.329 224.6503 902.34525 261.5625 892.15625 C 280.3456 885.52425 299.14735 878.99025 317.90625 872.28125 C 330.70895 867.82025 342.855 861.828 354.9375 855.75 C 371.5677 847.309 331.7552 768.90275 315.125 777.34375 C 306.4283 781.81575 297.6923 786.1995 288.4375 789.4375 C 285.25225 790.56463 282.06651 791.67198 278.875 792.78125 C 278.26304 778.08251 277.56859 763.36504 277.21875 748.65625 C 277.02302 740.2913 276.85305 731.9288 276.71875 723.5625 C 276.84037 723.53797 276.97254 723.53255 277.09375 723.5 C 305.06685 716.197 334.1087 714.2695 362.8125 711.8125 C 410.20697 708.33377 457.60133 704.91727 504.96875 701.09375 C 510.38635 710.59019 515.97422 719.99331 521.71875 729.3125 C 547.03125 768.3555 575.77705 805.02575 606.15625 840.21875 C 629.87325 867.74875 657.40855 891.27625 687.46875 911.53125 C 708.05095 924.66825 730.46815 934.5425 753.28125 943.0625 C 762.49935 946.2575 758.07275 944.75525 766.46875 947.53125 C 784.35525 953.26125 811.3865 868.94875 793.5 863.21875 C 787.0506 861.23675 790.3555 862.2985 783.5 860.0625 C 767.0575 854.2755 750.8556 847.57575 735.9375 838.46875 C 712.0979 823.00975 690.7135 804.303 671.875 783 C 646.99375 754.67791 623.45988 725.16162 602.21875 694 C 619.41154 693.15794 636.61989 692.59559 653.84375 692.40625 C 680.12505 692.48825 706.3827 693.195 732.625 694.625 C 742.0985 695.429 751.5661 695.72025 761.0625 695.40625 C 779.8481 694.26225 774.4732 605.731 755.6875 606.875 C 749.4666 607.229 742.9814 606.9465 736.6875 606.5625 C 708.6163 605.4875 680.5287 605.09925 652.4375 605.28125 C 619.87637 605.95789 587.36651 607.77781 554.90625 610.25 C 546.67848 592.94096 539.17133 575.26207 532.5625 557.1875 C 523.86749 533.56544 515.49047 509.71168 509.75 485.1875 C 538.81666 482.8753 567.95224 481.456 597.09375 480.5 C 608.58465 480.171 620.067 479.9125 631.5625 479.8125 C 639.62138 479.56405 643.73158 463.14065 644.3125 444.5 C 655.70121 446.1435 664.66208 445.10701 666.5625 439.75 C 669.0212 428.794 670.4602 418.60625 670.1875 407.40625 C 671.5227 386.65525 673.9821 365.9715 677.25 345.4375 C 681.1417 321.9645 686.1106 298.729 689.9375 275.25 C 691.9432 253.895 689.09 233.0635 671.875 218.1875 C 663.6806 211.5705 654.7445 206.4455 644.625 203.4375 C 633.3384 199.3705 621.72355 196.957 609.78125 195.75 C 589.47755 193.035 569.1067 190.9435 548.6875 189.3125 C 522.8839 187.25 497.00603 185.76839 471.125 185.90625 z M 473.03125 273.1875 C 495.83077 273.19139 518.62812 274.67225 541.34375 276.6875 C 560.09965 278.3275 578.78845 280.48625 597.40625 283.28125 C 597.92545 283.43463 598.46002 283.54775 599 283.65625 C 596.28444 299.48623 593.34061 315.27816 590.71875 331.125 C 587.39671 351.74833 584.7174 372.48119 582.8125 393.28125 C 551.06593 394.93962 519.34218 397.03357 487.6875 400 C 438.923 404.673 390.22255 410.03575 341.65625 416.46875 C 324.74947 418.75607 307.85115 421.12475 291 423.8125 C 291.08638 423.10565 291.16261 422.39425 291.25 421.6875 C 297.0435 377.1525 302.8391 332.37 314.875 289 C 323.74017 287.41027 332.60548 285.94628 341.5 284.53125 C 377.5775 279.42925 413.84065 275.73475 450.21875 273.71875 C 457.82232 273.35975 465.43141 273.1862 473.03125 273.1875 z M 617.125 287.6875 C 622.40142 289.52018 621.64907 290.30181 617.125 287.6875 z M 421.375 493.96875 C 428.88176 525.86295 439.70464 556.82068 451.21875 587.46875 C 455.02738 597.67084 459.07859 607.76184 463.34375 617.75 C 427.50526 620.4553 391.65291 622.87778 355.78125 625.15625 C 329.40942 627.1806 302.91436 629.08819 276.8125 633.46875 C 276.92664 628.0304 277.05843 622.59398 277.21875 617.15625 C 278.40071 582.76413 280.01612 548.35582 282.4375 514.03125 C 305.94385 509.12914 329.80082 505.79678 353.5625 502.4375 C 376.13197 499.32793 398.74022 496.53363 421.375 493.96875 z "
     id="path11118" />
</svg>
