<?xml version="1.0" encoding="utf-8" ?>

<!DOCTYPE svg PUBLIC "-//W3C//DTD SVG 1.1//EN" 
  "http://www.w3.org/Graphics/SVG/1.1/DTD/svg11.dtd">
<svg 
    xmlns="http://www.w3.org/2000/svg"
    xmlns:xlink="http://www.w3.org/1999/xlink"
    xmlns:sodipodi="http://sodipodi.sourceforge.net/DTD/sodipodi-0.dtd"
    xmlns:inkscape="http://www.inkscape.org/namespaces/inkscape"
    width="1024" height="1024" id="U6C5F">
<path d="m 8430.5156,22783.842 c 22.7549,18.702 45.1696,37.814 67.7462,56.731 10.4396,8.603 20.6736,17.443 30.8146,26.394 14.0284,12.585 -45.2975,78.716 -59.3259,66.131 l 0,0 c -9.2791,-8.483 -18.6881,-16.817 -28.3593,-24.854 -21.4145,-18.051 -42.6665,-36.355 -65.0068,-53.258 -15.092,-11.483 39.0393,-82.627 54.1312,-71.144 z" id="path8903" inkscape:connector-curvature="0" style="fill:#550000;fill-opacity:1;fill-rule:nonzero;stroke:#f9f9f9;stroke-width:0.1;stroke-miterlimit:4;stroke-dasharray:none" transform="translate(-8192, -22528)"/><path d="m 8414.0001,23012.218 c 15.1089,23.19 31.5805,45.432 48.2489,67.511 12.3194,16.385 6.248,8.133 18.2146,24.755 10.9175,15.282 -61.1225,66.748 -72.0401,51.466 l 0,0 c -10.6392,-15.025 -5.0646,-7.342 -16.758,-23.025 -17.3609,-23.073 -34.4373,-46.347 -51.1999,-69.858 -10.7866,-15.599 62.748,-66.448 73.5345,-50.849 z" id="path8905" inkscape:connector-curvature="0" style="fill:#550000;fill-opacity:1;fill-rule:nonzero;stroke:#f9f9f9;stroke-width:0.1;stroke-miterlimit:4;stroke-dasharray:none" transform="translate(-8192, -22528)"/><path d="m 8360.9023,23328.913 c 24.5328,-21.973 48.1196,-44.986 71.8607,-67.807 23.1618,-21.813 45.1006,-44.827 65.8556,-68.928 12.3218,-14.099 78.7856,43.986 66.4639,58.086 l 0,0 c -22.7237,25.668 -46.4247,50.426 -71.2916,74.038 -24.2285,23.506 -48.4014,47.068 -72.5716,70.634 -14.0055,12.795 -74.3226,-53.228 -60.317,-66.023 z" id="path8907" inkscape:connector-curvature="0" style="fill:#550000;fill-opacity:1;fill-rule:nonzero;stroke:#f9f9f9;stroke-width:0.1;stroke-miterlimit:4;stroke-dasharray:none" transform="translate(-8192, -22528)"/><path d="m 8588.0727,22831.386 c 37.3428,0.255 74.6583,-1.93 111.9154,-4.221 54.2035,-4.138 108.4153,-7.968 162.7312,-10.251 35.7984,-0.776 72.051,-2.699 107.109,5.658 18.193,5.186 -6.2549,90.948 -24.4478,85.762 l 0,0 c -9.529,-7.453 -66.3204,-2.851 -79.3028,-4.015 -53.5557,1.857 -106.9912,5.614 -160.3924,10.051 -38.9111,2.686 -77.8468,5.02 -116.8283,6.417 -18.9648,0.166 -19.7491,-89.235 -0.7843,-89.401 z" id="path8909" inkscape:connector-curvature="0" style="fill:#550000;fill-opacity:1;fill-rule:nonzero;stroke:#f9f9f9;stroke-width:0.1;stroke-miterlimit:4;stroke-dasharray:none" transform="translate(-8192, -22528)"/><path d="m 8844.6104,22879.608 c -6.3273,35.447 -7.7321,71.603 -10.1763,107.471 -4.1607,65.656 -11.0463,131.088 -17.7131,196.523 -3.3945,32.575 -6.4105,65.187 -9.2892,97.811 -1.8415,18.59 -89.4729,9.908 -87.6313,-8.681 l 0,0 c 3.5925,-32.697 7.0897,-65.405 10.6742,-98.103 6.82,-64.214 13.5532,-128.467 16.9129,-192.976 2.2633,-40.007 3.5653,-80.212 9.6214,-119.875 3.7824,-18.583 91.3838,-0.753 87.6014,17.83 z" id="path8911" inkscape:connector-curvature="0" style="fill:#550000;fill-opacity:1;fill-rule:nonzero;stroke:#f9f9f9;stroke-width:0.1;stroke-miterlimit:4;stroke-dasharray:none" transform="translate(-8192, -22528)"/><path d="m 8585.3322,23271.534 c 41.7639,-4.453 83.7666,-6.21 125.7018,-8.242 63.094,-2.778 126.2193,-4.793 189.3458,-6.667 50.5357,-1.645 101.1001,-1.969 151.6204,0.154 20.8062,1.112 41.6083,2.835 61.9914,7.244 18.4231,4.456 -2.5825,91.304 -21.0056,86.848 l 0,0 c -14.4708,-4.77 -30.4531,-3.955 -45.3653,-6.088 -48.2135,-2.807 -96.5125,-2.77 -144.7822,-1.386 -62.4257,1.684 -124.8482,3.712 -187.215,6.952 -38.8194,2.216 -77.788,3.994 -116.3158,9.45 -18.724,2.965 -32.6994,-85.301 -13.9755,-88.265 z" id="path8913" inkscape:connector-curvature="0" style="fill:#550000;fill-opacity:1;fill-rule:nonzero;stroke:#f9f9f9;stroke-width:0.1;stroke-miterlimit:4;stroke-dasharray:none" transform="translate(-8192, -22528)"/></svg>