<?xml version="1.0" encoding="UTF-8" standalone="no"?>
<svg
   xmlns:dc="http://purl.org/dc/elements/1.1/"
   xmlns:cc="http://creativecommons.org/ns#"
   xmlns:rdf="http://www.w3.org/1999/02/22-rdf-syntax-ns#"
   xmlns:svg="http://www.w3.org/2000/svg"
   xmlns="http://www.w3.org/2000/svg"
   xmlns:sodipodi="http://sodipodi.sourceforge.net/DTD/sodipodi-0.dtd"
   xmlns:inkscape="http://www.inkscape.org/namespaces/inkscape"
   width="1024"
   height="1024"
   id="U6C49"
   version="1.1"
   inkscape:version="0.48.0 r9654"
   sodipodi:docname="U+6C49.svg">
  <metadata
     id="metadata12">
    <rdf:RDF>
      <cc:Work
         rdf:about="">
        <dc:format>image/svg+xml</dc:format>
        <dc:type
           rdf:resource="http://purl.org/dc/dcmitype/StillImage" />
      </cc:Work>
    </rdf:RDF>
  </metadata>
  <defs
     id="defs10" />
  <sodipodi:namedview
     pagecolor="#ffffff"
     bordercolor="#666666"
     borderopacity="1"
     objecttolerance="10"
     gridtolerance="10"
     guidetolerance="10"
     inkscape:pageopacity="0"
     inkscape:pageshadow="2"
     inkscape:window-width="640"
     inkscape:window-height="480"
     id="namedview8"
     showgrid="false"
     inkscape:zoom="0.27441406"
     inkscape:cx="512"
     inkscape:cy="512"
     inkscape:window-x="0"
     inkscape:window-y="25"
     inkscape:window-maximized="0"
     inkscape:current-layer="U6C49" />
  <path
     style="fill:#550000;fill-opacity:1;fill-rule:nonzero;stroke:#f9f9f9;stroke-width:0.1;stroke-miterlimit:4;stroke-dasharray:none"
     d="M 242.5625 270.21875 C 219.55656 270.32834 166.85572 299.35389 173.6875 313.15625 C 187.809 339.26325 206.21955 362.656 223.40625 386.75 C 226.02495 390.736 228.66255 394.7015 231.28125 398.6875 C 241.40395 414.0225 313.6852 366.30375 303.5625 350.96875 C 300.3601 346.13575 297.17125 341.30175 293.96875 336.46875 C 279.50815 316.15175 263.7669 296.48625 252.25 274.28125 C 250.8321 271.41644 247.33732 270.19601 242.5625 270.21875 z M 745.9375 272.90625 C 709.8698 273.95325 673.9047 276.9225 638 280.4375 C 587.2307 285.6485 536.5708 291.9585 486.375 301.3125 C 446.7864 308.7115 407.19145 316.42925 368.34375 327.15625 C 350.61795 332.67025 376.61785 416.23375 394.34375 410.71875 C 429.61585 399.55275 466.0297 392.56275 502.3125 385.59375 C 550.0302 376.50775 598.2466 370.58375 646.5625 365.84375 C 672.63633 363.44881 698.74402 361.37166 724.90625 360.40625 C 719.65291 369.88424 715.72881 376.13929 708.53125 388.1875 C 672.57865 446.71783 633.09807 502.95806 592.5625 558.375 C 570.48806 535.96021 549.40784 512.55391 529.0625 488.375 C 499.8615 456.752 469.87715 424.223 430.34375 405.5 C 413.02465 398.756 381.21215 480.381 398.53125 487.125 C 425.27995 501.394 445.8636 524.88275 466.3125 546.71875 C 489.83668 574.27383 514.35049 600.77509 540.03125 626.125 C 508.86048 663.96002 475.89808 700.28049 441.6875 735.4375 C 410.0886 767.1215 377.2554 797.76225 340.6875 823.65625 C 337.013 824.91025 328.7039 833.343 323.5625 832 C 305.8864 837.562 332.10525 920.90575 349.78125 915.34375 C 364.76765 909.83775 378.96 903.7335 391.625 893.6875 C 431.6039 864.0025 467.99745 829.963 502.65625 794.25 C 537.09652 758.24833 570.42267 721.20842 602.125 682.8125 C 652.08734 722.79943 706.08033 757.33275 759.09375 793.0625 C 799.22025 819.9745 838.3464 848.349 878.5625 875.125 C 893.8934 885.166 941.23715 812.88475 925.90625 802.84375 C 885.55085 776.88575 846.5259 748.926 806.5625 722.375 C 755.1574 687.9819 702.8339 654.69798 654.5 616 C 655.77039 614.28671 657.04916 612.59397 658.3125 610.875 C 701.208 552.718 743.142 493.79675 781.8125 432.71875 C 797.7453 406.89575 825.6414 368.41675 827.0625 336.96875 C 827.4254 328.93675 825.4787 320.96875 824.6875 312.96875 C 819.9745 305.41675 816.6016 296.8535 810.5625 290.3125 C 794.2677 272.6655 767.7321 273.04525 745.9375 272.90625 z M 760.46875 360.1875 C 763.83961 360.13643 766.38827 360.34712 765.71875 361.375 C 765.32337 361.98228 762.61699 361.36985 759.6875 360.21875 C 759.94193 360.21257 760.2223 360.19123 760.46875 360.1875 z M 197.75 479.40625 C 176.23457 480.05347 123.82247 518.06094 132.75 531.3125 C 149.37 552.5085 166.58735 573.11175 180.71875 596.09375 C 182.64635 599.93175 184.5724 603.75675 186.5 607.59375 C 194.8976 623.92475 271.86645 584.331 263.46875 568 C 260.41015 562.141 257.3712 556.2975 254.3125 550.4375 C 239.465 526.6575 222.4702 504.57375 205.4375 482.34375 C 203.97665 480.17531 201.27071 479.30034 197.75 479.40625 z M 308.8125 574.0625 C 306.42081 573.99988 304.48103 574.64778 303.15625 576.125 C 272.62145 610.296 241.67975 644.1355 212.59375 679.5625 C 188.26205 710.7795 163.9769 742.7855 149.375 779.9375 C 143.4478 797.5585 226.5103 825.496 232.4375 807.875 C 243.3563 779.812 262.2618 755.75475 280.4375 732.09375 C 307.9885 698.07575 337.5378 665.74475 366.8125 633.21875 C 377.60002 621.18997 328.28767 574.57239 308.8125 574.0625 z "
     id="path24461" />
</svg>
