<?xml version="1.0" encoding="UTF-8" standalone="no"?>
<svg
   xmlns:dc="http://purl.org/dc/elements/1.1/"
   xmlns:cc="http://creativecommons.org/ns#"
   xmlns:rdf="http://www.w3.org/1999/02/22-rdf-syntax-ns#"
   xmlns:svg="http://www.w3.org/2000/svg"
   xmlns="http://www.w3.org/2000/svg"
   xmlns:sodipodi="http://sodipodi.sourceforge.net/DTD/sodipodi-0.dtd"
   xmlns:inkscape="http://www.inkscape.org/namespaces/inkscape"
   width="1024"
   height="1024"
   id="U6C34"
   version="1.1"
   inkscape:version="0.48.0 r9654"
   sodipodi:docname="U+6C34.svg">
  <metadata
     id="metadata11">
    <rdf:RDF>
      <cc:Work
         rdf:about="">
        <dc:format>image/svg+xml</dc:format>
        <dc:type
           rdf:resource="http://purl.org/dc/dcmitype/StillImage" />
      </cc:Work>
    </rdf:RDF>
  </metadata>
  <defs
     id="defs9" />
  <sodipodi:namedview
     pagecolor="#ffffff"
     bordercolor="#666666"
     borderopacity="1"
     objecttolerance="10"
     gridtolerance="10"
     guidetolerance="10"
     inkscape:pageopacity="0"
     inkscape:pageshadow="2"
     inkscape:window-width="640"
     inkscape:window-height="480"
     id="namedview7"
     showgrid="false"
     inkscape:zoom="0.27441406"
     inkscape:cx="512"
     inkscape:cy="512"
     inkscape:window-x="0"
     inkscape:window-y="25"
     inkscape:window-maximized="0"
     inkscape:current-layer="U6C34" />
  <path
     style="fill:#782121;fill-opacity:1;fill-rule:nonzero;stroke:#f9f9f9;stroke-width:0.1;stroke-miterlimit:4;stroke-dasharray:none"
     d="M 487.90625 222.28125 C 472.24348 222.55866 459.41787 225.76837 458.75 232.78125 C 456.9146 274.76525 456.79695 316.7965 456.28125 358.8125 C 455.09645 434.4435 452.84565 510.0645 451.28125 585.6875 C 449.95295 653.6875 449.3464 721.68525 446.875 789.65625 C 445.7103 822.00125 443.18895 854.29725 434.90625 885.65625 C 432.55035 893.85925 429.9901 902.18675 424 908.46875 C 413.0334 923.61675 484.4709 975.30425 495.4375 960.15625 C 506.5847 943.76125 515.6748 926.6355 520 907.0625 C 529.1298 869.4235 532.60645 830.96 533.15625 792.25 C 534.79495 723.99 534.82805 655.73475 536.15625 587.46875 C 537.74885 511.77075 540.2263 436.09325 542.25 360.40625 C 543.2199 320.65725 543.62975 280.8285 546.90625 241.1875 C 548.01938 229.5 514.01087 221.8189 487.90625 222.28125 z M 772.75 342.4375 C 767.93615 342.52297 764.42679 343.83002 763.0625 346.75 C 745.3077 377.854 717.89695 402.25975 692.46875 426.96875 C 658.83415 459.40075 624.0116 490.52225 588 520.28125 C 573.9261 532.02325 629.26985 598.367 643.34375 586.625 C 680.65035 555.223 716.9136 522.64125 752.25 489.03125 C 785.6781 457.08925 820.67325 425.1995 843.15625 384.1875 C 849.72966 370.11766 795.94401 342.02568 772.75 342.4375 z M 294 435.09375 C 282.26695 435.07196 270.50697 435.63969 258.75 436.84375 C 223.2517 440.61975 187.95395 445.96725 153.34375 454.90625 C 135.26135 459.92125 158.88645 545.14 176.96875 540.125 C 206.58995 531.184 237.21235 526.607 267.90625 523.375 C 292.51637 520.949 317.10559 522.14202 341.25 526.8125 C 323.95265 559.28693 304.4046 590.536 285.15625 621.875 C 256.53555 669.63 227.2055 716.841 191.3125 759.5 C 167.641 786.718 138.37445 807.45825 107.84375 826.15625 C 92.19825 835.90625 138.13575 909.65725 153.78125 899.90625 C 191.81815 875.86625 228.1729 849.1855 257.5625 814.6875 C 295.6245 768.6195 327.7151 718.4755 358.5 667.3125 C 381.2384 630.9425 404.43575 594.78875 424.71875 556.96875 C 439.24515 527.95975 450.35615 499.89075 428.59375 470.46875 C 411.73995 455.94575 392.79015 447.7745 370.90625 443.3125 C 345.52444 438.03525 319.81271 435.14168 294 435.09375 z M 636.59375 646.34375 C 616.4445 646.3668 564.2203 693.28366 575.0625 706 C 608.4907 742.856 646.2242 775.333 684.6875 806.75 C 739.0622 850.929 799.77335 885.57125 862.96875 915.28125 L 891.875 927.5 C 908.7103 934.543 941.92905 855.19825 925.09375 848.15625 C 916.48555 844.59725 907.8581 841.02775 899.25 837.46875 C 842.3625 811.20075 787.7722 780.2845 739.125 740.4375 C 704.8298 712.1075 670.8734 682.94375 642.375 648.59375 C 641.04349 647.03209 639.06822 646.34092 636.59375 646.34375 z "
     id="path11063" />
</svg>
