<?xml version="1.0" encoding="utf-8" ?>

<!DOCTYPE svg PUBLIC "-//W3C//DTD SVG 1.1//EN" 
  "http://www.w3.org/Graphics/SVG/1.1/DTD/svg11.dtd">
<svg 
    xmlns="http://www.w3.org/2000/svg"
    xmlns:xlink="http://www.w3.org/1999/xlink"
    xmlns:sodipodi="http://sodipodi.sourceforge.net/DTD/sodipodi-0.dtd"
    xmlns:inkscape="http://www.inkscape.org/namespaces/inkscape"
    width="1024" height="1024" id="U6D3B">
<path d="m 9458.1342,19745.994 c 16.2469,19.454 36.9844,34.547 56.8791,50.016 12.9481,9.571 24.8115,20.377 36.4467,31.463 13.4776,13.128 -48.4113,76.662 -61.8888,63.533 l 0,0 c -9.0348,-9.103 -18.5116,-17.688 -28.8219,-25.361 -26.4136,-20.626 -53.5517,-40.982 -74.9416,-67.05 -11.1583,-15.343 61.1682,-67.944 72.3265,-52.601 z" id="path8245" inkscape:connector-curvature="0" style="fill:#550000;fill-opacity:1;fill-rule:nonzero;stroke:#f9f9f9;stroke-width:0.1;stroke-miterlimit:4;stroke-dasharray:none" transform="translate(-9216, -19456)"/><path d="m 9374.6494,19973.307 c 13.6293,20.439 32.5329,36.356 51.7472,51.302 17.3323,12.583 35.4739,23.815 51.8796,37.617 14.2174,12.45 -44.4707,79.471 -58.688,67.022 l 0,0 c -14.2071,-13.761 -32.7426,-22.286 -47.7134,-35.163 -26.673,-21.076 -52.3058,-43.751 -71.9954,-71.736 -10.4035,-15.861 64.3665,-64.904 74.77,-49.042 z" id="path8251" inkscape:connector-curvature="0" style="fill:#550000;fill-opacity:1;fill-rule:nonzero;stroke:#f9f9f9;stroke-width:0.1;stroke-miterlimit:4;stroke-dasharray:none" transform="translate(-9216, -19456)"/><path d="m 9331.0021,20275.443 c 27.0785,-30.797 57.0694,-58.804 87.2671,-86.48 27.4424,-25.374 56.296,-49.183 83.6306,-74.67 5.6921,-5.711 3.6219,-3.168 6.6773,-7.224 12.7431,-14.047 78.964,46.025 66.2208,60.072 l 0,0 c -8.4255,8.792 -3.9958,4.428 -13.3225,13.06 -27.887,24.526 -56.7343,47.954 -84.0457,73.139 -27.3454,25.202 -54.686,50.684 -78.0706,79.708 -12.2197,14.5 -80.5767,-43.104 -68.357,-57.605 z" id="path8253" inkscape:connector-curvature="0" style="fill:#550000;fill-opacity:1;fill-rule:nonzero;stroke:#f9f9f9;stroke-width:0.1;stroke-miterlimit:4;stroke-dasharray:none" transform="translate(-9216, -19456)"/><path d="m 9848.6315,19717.134 c -21.8131,29.877 -45.5751,58.286 -68.9448,86.947 -23.1683,28.224 -46.5958,56.234 -69.924,84.326 -11.7874,14.225 -78.843,-41.341 -67.0556,-55.566 l 0,0 c 23.0456,-27.87 46.1566,-55.686 68.8882,-83.814 21.1489,-26.382 42.7749,-52.513 61.9342,-80.397 10.2891,-15.931 85.3911,32.572 75.102,48.504 z" id="path8255" inkscape:connector-curvature="0" style="fill:#550000;fill-opacity:1;fill-rule:nonzero;stroke:#f9f9f9;stroke-width:0.1;stroke-miterlimit:4;stroke-dasharray:none" transform="translate(-9216, -19456)"/><path d="m 9515.6527,20037.276 c 33.7319,-3.372 66.9679,-10.202 100.1113,-17.12 47.9175,-10.801 95.8381,-21.531 144.1431,-30.468 34.1549,-5.744 68.4019,-11.025 102.7707,-15.324 22.2361,-2.901 44.6341,-3.071 66.9334,-1.052 12.2843,1.389 24.3212,4.179 36.1099,7.836 18.1113,5.839 -9.4131,91.216 -27.5244,85.378 l 0,0 c -5.6847,-1.97 -11.499,-3.47 -17.4528,-4.393 -15.8021,-1.829 -31.716,-1.578 -47.5207,0.258 -32.649,3.719 -65.1876,8.425 -97.6351,13.601 -47.5117,8.466 -94.5972,18.964 -141.6073,29.854 -35.4942,7.677 -71.0652,15.029 -107.0383,20.135 -18.8172,2.395 -30.107,-86.31 -11.2898,-88.705 z" id="path8257" inkscape:connector-curvature="0" style="fill:#550000;fill-opacity:1;fill-rule:nonzero;stroke:#f9f9f9;stroke-width:0.1;stroke-miterlimit:4;stroke-dasharray:none" transform="translate(-9216, -19456)"/><path d="m 9802.0367,19805.979 c -2.0037,40.037 -3.2568,80.108 -4.8377,120.164 -2.0247,52.827 -5.8813,105.554 -9.2251,158.306 -1.3017,20.798 -2.3712,41.609 -3.375,62.423 -1.1462,18.81 -89.816,13.407 -88.6698,-5.403 l 0,0 c 1.5457,-20.996 3.019,-41.998 4.5471,-62.995 3.7894,-51.787 7.81,-103.571 9.5302,-155.48 1.303,-39.807 2.4478,-79.624 2.6384,-119.453 0.5172,-18.963 89.909,-16.525 89.3919,2.438 z" id="path8259" inkscape:connector-curvature="0" style="fill:#550000;fill-opacity:1;fill-rule:nonzero;stroke:#f9f9f9;stroke-width:0.1;stroke-miterlimit:4;stroke-dasharray:none" transform="translate(-9216, -19456)"/><path d="m 9654.5413,20223 c 1.6507,28.577 8.4296,56.539 15.2106,84.246 7.7002,29.395 16.0555,58.711 27.0739,87.056 2.9568,5.84 3.0106,6.634 1.5355,1.828 11.0969,15.38 -61.4076,67.691 -72.5046,52.311 l 0,0 c -9.807,-15.816 -5.8279,-8.001 -12.346,-23.234 -11.3648,-31.794 -20.7633,-64.264 -29.2696,-96.931 -8.3203,-33.681 -16.2141,-67.631 -19.0229,-102.299 -0.6316,-18.948 88.6915,-21.926 89.3231,-2.977 z" id="path8261" inkscape:connector-curvature="0" style="fill:#550000;fill-opacity:1;fill-rule:nonzero;stroke:#f9f9f9;stroke-width:0.1;stroke-miterlimit:4;stroke-dasharray:none" transform="translate(-9216, -19456)"/><path d="m 9648.3787,20191.474 c 28.3471,-16.125 60.1818,-23.497 91.8809,-29.663 32.9973,-5.876 66.4501,-8.495 99.9129,-9.595 22.9486,-0.548 45.9068,0.376 68.6973,3.093 33.1679,4.728 47.2587,16.369 61.5227,46.859 9.7272,34.814 1.2915,70.318 -6.5183,104.616 -8.7543,34.445 -17.4124,68.907 -23.5697,103.925 -2.1226,12.499 -3.4093,25.115 -3.58,37.788 -0.7469,18.97 -90.1721,15.449 -89.4252,-3.521 l 0,0 c 0.9661,-16.862 2.8582,-33.654 5.9927,-50.262 6.8762,-36.051 15.7148,-71.65 24.5811,-107.254 3.8559,-17.438 7.5477,-36.527 9.0018,-53.619 2.9302,3.817 3.6447,5.252 8.1108,8.276 4.478,3.031 12.299,3.831 2.5085,1.714 -18.1267,-2.577 -36.4601,-3.303 -54.7581,-3.121 -28.6952,0.699 -57.3751,2.925 -85.6712,7.912 -20.9375,4.029 -42.4126,8.112 -61.241,18.612 -16.0709,10.064 -63.5162,-65.695 -47.4452,-75.76 z" id="path8263" inkscape:connector-curvature="0" style="fill:#550000;fill-opacity:1;fill-rule:nonzero;stroke:#f9f9f9;stroke-width:0.1;stroke-miterlimit:4;stroke-dasharray:none" transform="translate(-9216, -19456)"/><path d="m 9677.891,20372.211 c 32.4576,-6.171 65.6606,-6.429 98.5786,-7.461 32.2644,-0.776 64.493,-2.348 96.6436,-5.159 13.2047,-1.239 6.8697,-0.656 19.0045,-1.753 18.8517,-1.468 25.7692,87.4 6.9175,88.868 l 0,0 c -11.789,0.76 -5.4584,0.324 -18.9901,1.331 -33.4991,2.342 -67.0397,3.852 -100.6088,4.769 -26.6413,0.962 -53.6065,1.111 -79.8634,6.133 -18.3977,4.599 -40.0797,-82.128 -21.6819,-86.728 z" id="path8265" inkscape:connector-curvature="0" style="fill:#550000;fill-opacity:1;fill-rule:nonzero;stroke:#f9f9f9;stroke-width:0.1;stroke-miterlimit:4;stroke-dasharray:none" transform="translate(-9216, -19456)"/></svg>