<?xml version="1.0" encoding="UTF-8" standalone="no"?>
<svg
   xmlns:dc="http://purl.org/dc/elements/1.1/"
   xmlns:cc="http://creativecommons.org/ns#"
   xmlns:rdf="http://www.w3.org/1999/02/22-rdf-syntax-ns#"
   xmlns:svg="http://www.w3.org/2000/svg"
   xmlns="http://www.w3.org/2000/svg"
   xmlns:sodipodi="http://sodipodi.sourceforge.net/DTD/sodipodi-0.dtd"
   xmlns:inkscape="http://www.inkscape.org/namespaces/inkscape"
   width="1024"
   height="1024"
   id="U6D17"
   version="1.1"
   inkscape:version="0.48.0 r9654"
   sodipodi:docname="U+6D17.svg">
  <metadata
     id="metadata16">
    <rdf:RDF>
      <cc:Work
         rdf:about="">
        <dc:format>image/svg+xml</dc:format>
        <dc:type
           rdf:resource="http://purl.org/dc/dcmitype/StillImage" />
      </cc:Work>
    </rdf:RDF>
  </metadata>
  <defs
     id="defs14" />
  <sodipodi:namedview
     pagecolor="#ffffff"
     bordercolor="#666666"
     borderopacity="1"
     objecttolerance="10"
     gridtolerance="10"
     guidetolerance="10"
     inkscape:pageopacity="0"
     inkscape:pageshadow="2"
     inkscape:window-width="640"
     inkscape:window-height="480"
     id="namedview12"
     showgrid="false"
     inkscape:zoom="0.27441406"
     inkscape:cx="512"
     inkscape:cy="512"
     inkscape:window-x="0"
     inkscape:window-y="25"
     inkscape:window-maximized="0"
     inkscape:current-layer="U6D17" />
  <path
     style="fill:#501616;fill-opacity:1;fill-rule:nonzero;stroke:#f9f9f9;stroke-width:0.1;stroke-miterlimit:4;stroke-dasharray:none"
     d="M 648.4375 149.9375 C 641.42774 150.07714 636.40158 151.81384 635.125 155.71875 C 623.6655 200.97975 620.4628 247.871 616.625 294.25 C 615.3537 312.1631 614.13659 330.08179 612.9375 348 C 574.74566 355.44432 536.6139 363.76139 499.625 375.875 C 509.18313 346.5066 518.66544 317.11721 527.9375 287.65625 C 533.0858 269.63725 448.11695 245.356 442.96875 263.375 C 430.91235 308.691 416.4168 353.30025 402 397.90625 C 398.49788 408.73448 394.97258 419.558 391.4375 430.375 C 389.02497 432.31276 386.64482 434.3126 384.3125 436.375 C 381.28597 439.18276 381.87375 444.50122 384.71875 450.96875 C 378.13304 470.96334 371.47316 490.93551 364.71875 510.875 C 358.91755 528.226 440.6988 555.56975 446.5 538.21875 C 452.12621 521.17202 457.7088 504.09532 463.28125 487.03125 C 476.94693 478.39718 491.94218 471.85429 506.875 465.65625 C 539.36109 453.05127 573.15103 444.60208 607.1875 437.46875 C 605.58567 463.12024 603.99873 488.78413 602.4375 514.4375 C 602.06188 520.45386 601.70927 526.45046 601.375 532.46875 C 594.47795 530.49423 589.03706 530.64021 586.65625 534.0625 C 582.89338 539.89813 579.15961 545.77605 575.46875 551.65625 C 563.99572 552.84615 552.51538 554.10723 541.0625 555.5 C 494.6837 561.187 448.49475 568.30675 402.03125 573.21875 C 383.38965 575.03475 391.95215 662.90975 410.59375 661.09375 C 447.04241 655.67567 483.46624 650.0941 519.96875 645.09375 C 494.26005 690.75285 471.31392 737.88393 449.625 785.5625 C 440.0281 806.8485 430.60265 828.18975 420.71875 849.34375 C 413.07395 866.32075 493.1052 902.352 500.75 885.375 C 510.0521 863.954 519.19835 842.478 528.65625 821.125 C 549.68635 773.874 572.18835 727.24625 598.03125 682.40625 C 607.59112 665.91761 617.25197 649.46928 627.28125 633.25 C 653.97752 631.05894 680.69854 629.33428 707.4375 627.75 C 721.9727 626.871 736.5143 626.20575 751.0625 625.59375 C 769.6848 624.52075 764.6223 536.7395 746 537.8125 C 731.225 538.8915 716.4605 539.92625 701.6875 541.03125 C 696.76192 541.39278 691.83182 541.75995 686.90625 542.125 C 687.20841 534.50093 687.53953 526.87089 687.9375 519.25 C 689.61235 486.95526 691.43974 454.65272 693.4375 422.375 C 714.66982 419.30149 735.98992 416.64 757.3125 414.25 C 775.3941 412.382 766.76865 413.2525 783.15625 411.5625 C 801.67855 409.4045 791.49105 322.092 772.96875 324.25 C 756.71285 326.366 765.41245 325.2835 746.90625 327.5625 C 731.08105 329.57643 715.26094 331.68014 699.46875 333.9375 C 700.28214 323.22829 701.15109 312.51667 702.03125 301.8125 C 705.79935 262.1175 708.83725 221.873 719.28125 183.25 C 723.84047 169.30391 673.47235 149.43878 648.4375 149.9375 z M 204.28125 214.5625 C 185.55797 214.16912 138.25994 272.566 151.5 283.6875 C 173.9394 301.5225 193.1404 322.7045 210.125 345.6875 C 221.1766 360.5135 291.08285 308.42075 280.03125 293.59375 C 258.81355 265.30875 235.2565 239.078 208.375 216 C 207.25295 215.0575 205.86797 214.59584 204.28125 214.5625 z M 211.28125 450.8125 C 191.1579 451.85918 141.4001 501.35098 152.875 513.5 C 165.2494 527.066 171.20885 544.4845 176.53125 561.6875 C 182.13695 579.3155 265.2307 552.878 259.625 535.25 C 249.9993 505.496 238.4162 476.40825 217.1875 452.78125 C 215.7783 451.28916 213.75254 450.68396 211.28125 450.8125 z M 337.6875 621 C 335.30021 620.98648 333.38515 621.65541 332.09375 623.15625 C 301.38935 658.91725 269.96325 694.0465 236.28125 727.0625 C 205.01015 757.9055 174.0919 789.6665 138.875 816.0625 C 123.031 826.1175 170.43735 900.805 186.28125 890.75 C 226.19875 860.015 261.22865 823.39825 296.71875 787.78125 C 331.68675 752.94225 364.56515 716.1765 396.78125 678.8125 C 407.29695 666.59134 357.1269 621.11008 337.6875 621 z M 689 631.71875 C 662.5182 631.70887 625.4325 641.43647 627.21875 653.625 C 630.47965 681.875 631.3772 710.33725 633.9375 738.65625 C 637.104 779.40625 650.6794 815.816 674.8125 848.5 C 702.4317 880.376 739.68045 894.2275 780.15625 900.8125 C 820.23415 904.9485 860.15805 898.343 899.34375 890.5 C 931.06455 883.883 962.0417 874.24225 992.5 863.28125 C 1005.2072 858.54925 998.9972 860.94725 1011.0625 856.03125 C 1028.3199 848.76825 994.10115 767.4245 976.84375 774.6875 C 967.90235 778.6245 972.7722 776.57625 962.125 780.78125 C 936.0281 790.63025 909.4489 799.226 882.125 805 C 852.9391 810.931 823.2265 816.27025 793.3125 814.28125 C 775.3541 811.91525 757.7572 807.624 744.125 794.875 C 728.531 776.874 723.36075 754.08425 720.90625 730.78125 C 718.19595 700.82825 717.53155 670.73225 714.78125 640.78125 C 713.84556 634.39644 702.87142 631.72393 689 631.71875 z "
     id="path13284" />
</svg>
