<?xml version="1.0" encoding="utf-8" ?>

<!DOCTYPE svg PUBLIC "-//W3C//DTD SVG 1.1//EN" 
  "http://www.w3.org/Graphics/SVG/1.1/DTD/svg11.dtd">
<svg 
    xmlns="http://www.w3.org/2000/svg"
    xmlns:xlink="http://www.w3.org/1999/xlink"
    xmlns:sodipodi="http://sodipodi.sourceforge.net/DTD/sodipodi-0.dtd"
    xmlns:inkscape="http://www.inkscape.org/namespaces/inkscape"
    width="1024" height="1024" id="U6D41">
<path d="m 9463.709,30932.584 c 12.9852,19.874 27.6968,38.48 42.9989,56.597 12.0322,13.812 25.1423,26.466 35.3984,41.684 9.8241,16.031 -65.7444,62.342 -75.5685,46.311 l 0,0 c 2.3985,1.925 -3.7242,-4.902 -5.771,-7.197 -7.18,-8.051 -14.3076,-16.149 -21.3059,-24.359 -16.8132,-20.147 -32.9217,-40.828 -48.1936,-62.173 -10.7897,-15.367 61.6519,-66.23 72.4417,-50.863 z" id="path10162" inkscape:connector-curvature="0" style="fill:#2b0000;fill-opacity:1;fill-rule:nonzero;stroke:#f9f9f9;stroke-width:0.1;stroke-miterlimit:4;stroke-dasharray:none" transform="translate(-9216, -30720)"/><path d="m 9389.0347,31184.709 c 19.4978,18.459 39.337,36.525 59.696,54.028 18.4895,15.673 38.0341,29.995 53.9448,48.372 2.4858,4.085 4.9716,8.17 7.4574,12.255 8.7024,16.643 -69.7564,57.667 -78.4588,41.023 l 0,0 c 0.7519,0.769 1.5038,1.538 2.2557,2.307 -4.6059,-11.059 -34.4218,-27.411 -42.3344,-37.578 -20.3689,-17.552 -40.2189,-35.674 -60.4109,-53.422 -14.2096,-12.272 43.6406,-79.257 57.8502,-66.985 z" id="path10164" inkscape:connector-curvature="0" style="fill:#2b0000;fill-opacity:1;fill-rule:nonzero;stroke:#f9f9f9;stroke-width:0.1;stroke-miterlimit:4;stroke-dasharray:none" transform="translate(-9216, -30720)"/><path d="m 9329.7913,31491.745 c 23.6906,-22.879 46.6382,-46.512 70.3278,-69.403 26.3138,-25.68 54.8415,-48.818 84.6361,-70.296 3.1407,-2.135 6.2814,-4.271 9.422,-6.406 15.5758,-10.32 64.2273,63.104 48.6516,73.425 l 0,0 c -2.4647,1.579 -4.9294,3.158 -7.3941,4.736 -26.5312,18.3 -51.717,38.398 -74.7618,60.991 -24.0758,23.431 -47.3537,47.618 -70.6509,71.816 -13.7597,12.777 -73.9905,-52.087 -60.2307,-64.863 z" id="path10166" inkscape:connector-curvature="0" style="fill:#2b0000;fill-opacity:1;fill-rule:nonzero;stroke:#f9f9f9;stroke-width:0.1;stroke-miterlimit:4;stroke-dasharray:none" transform="translate(-9216, -30720)"/><path d="m 9724.0055,30899.995 c 29.2002,15.475 55.1079,36.037 80.5454,56.922 20.5144,16.621 39.7595,34.673 57.5286,54.187 6.0128,6.843 3.3275,3.917 7.9698,8.857 12.5444,13.992 -53.4119,73.127 -65.9563,59.135 l 0,0 c -5.3075,-6.116 -2.6862,-3.036 -7.8643,-9.239 -14.3715,-16.545 -30.3448,-31.545 -47.3023,-45.431 -20.0185,-16.56 -40.2626,-33.273 -63.653,-44.928 -16.8651,-8.216 21.867,-87.719 38.7321,-79.503 z" id="path10168" inkscape:connector-curvature="0" style="fill:#2b0000;fill-opacity:1;fill-rule:nonzero;stroke:#f9f9f9;stroke-width:0.1;stroke-miterlimit:4;stroke-dasharray:none" transform="translate(-9216, -30720)"/><path d="m 9551.9833,31069.119 c 34.8302,-5.697 70.081,-7.983 105.2505,-10.437 49.527,-2.897 98.6435,-9.956 147.7097,-16.988 40.7593,-5.952 81.6079,-11.333 122.6549,-14.842 16.972,-1.316 33.9749,-2.206 50.9697,-3.18 18.7724,-0.687 22.0119,87.807 3.2397,88.494 l 0,0 c -15.7695,0.184 -31.5412,0.972 -47.2811,1.896 -39.3085,2.857 -78.4187,7.822 -117.4385,13.312 -51.0133,7.152 -102.0466,14.498 -153.4829,17.916 -31.8794,2.469 -63.9625,4.462 -95.3531,10.868 -18.4637,3.451 -34.7325,-83.588 -16.2689,-87.039 z" id="path10170" inkscape:connector-curvature="0" style="fill:#2b0000;fill-opacity:1;fill-rule:nonzero;stroke:#f9f9f9;stroke-width:0.1;stroke-miterlimit:4;stroke-dasharray:none" transform="translate(-9216, -30720)"/><path d="m 9738.1473,31165.561 c -15.535,31.428 -32.3093,62.209 -49.0897,92.982 -14.4103,26.926 -29.0372,53.946 -39.3086,82.778 -0.4196,1.862 -0.8392,3.723 -1.2588,5.585 0.1855,0.256 0.4997,1.079 0.5565,0.768 3.2327,-17.677 -9.043,-31.253 -24.3623,-37.697 27.4169,-3.197 54.4102,-9.238 81.4648,-14.578 43.0458,-8.46 86.3415,-15.588 129.7681,-21.776 34.8349,-5.179 69.8941,-8.336 105.0834,-9.455 17.5897,-0.57 35.1433,-0 52.5484,2.608 18.5109,3.211 3.3737,90.471 -15.137,87.26 l 0,0 c -11.4184,-2.894 -23.4876,-1.714 -35.1266,-2.162 -31.8927,0.617 -63.6701,3.34 -95.2496,7.895 -41.7631,5.795 -83.3959,12.582 -124.7207,20.98 -33.7825,6.924 -67.5487,15.534 -102.0825,17.458 -6.7519,-0.818 -13.8957,-0.04 -20.2558,-2.454 -40.6595,-15.405 -45.9124,-49.064 -33.5427,-85.311 12.551,-32.323 28.5582,-63.111 45.1564,-93.521 15.9169,-29.295 32.0175,-58.55 45.5703,-89.04 7.993,-16.968 87.9794,20.712 79.9864,37.68 z" id="path10172" inkscape:connector-curvature="0" style="fill:#2b0000;fill-opacity:1;fill-rule:nonzero;stroke:#f9f9f9;stroke-width:0.1;stroke-miterlimit:4;stroke-dasharray:none" transform="translate(-9216, -30720)"/><path d="m 9983.8847,31206.01 c 9.5058,25.027 19.5873,49.834 29.6483,74.642 6.821,17.027 14.079,33.873 20.972,50.869 6.841,17.437 -75.3547,49.686 -82.1959,32.25 l 0,0 c -6.3645,-16.905 -13.4901,-33.514 -20.0954,-50.325 -9.9309,-24.766 -19.8094,-49.556 -30.2598,-74.108 -7.0698,-17.38 74.8609,-50.708 81.9308,-33.328 z" id="path10174" inkscape:connector-curvature="0" style="fill:#2b0000;fill-opacity:1;fill-rule:nonzero;stroke:#f9f9f9;stroke-width:0.1;stroke-miterlimit:4;stroke-dasharray:none" transform="translate(-9216, -30720)"/><path d="m 9742.2297,31365.236 c -11.5533,29.146 -23.9281,57.953 -36.1136,86.837 -13.9365,33.007 -28.65,65.681 -41.4866,99.14 -3.6628,10.598 -9.1303,23.358 -11.27,33.254 -3.8976,18.402 -90.648,0.03 -86.7504,-18.374 l 0,0 c 4.0654,-16.078 10.4585,-31.357 16.4426,-46.802 13.5061,-33.917 28.6039,-67.153 42.7004,-100.824 11.5716,-27.917 23.5086,-55.715 33.5638,-84.227 6.5752,-17.588 89.489,13.408 82.9138,30.996 z" id="path10176" inkscape:connector-curvature="0" style="fill:#2b0000;fill-opacity:1;fill-rule:nonzero;stroke:#f9f9f9;stroke-width:0.1;stroke-miterlimit:4;stroke-dasharray:none" transform="translate(-9216, -30720)"/><path d="m 9865.4867,31382.604 c -7.4626,24.332 -11.2073,49.553 -13.7992,74.804 -1.3669,22.857 -3.0435,46.19 0.9135,68.891 2.5519,18.539 -84.8421,30.568 -87.394,12.029 l 0,0 c -3.5635,-29.859 -3.0354,-60.006 -0.4805,-89.944 3.1973,-30.539 7.8533,-60.921 15.7821,-90.633 5.2719,-18.026 90.25,6.826 84.9781,24.853 z" id="path10178" inkscape:connector-curvature="0" style="fill:#2b0000;fill-opacity:1;fill-rule:nonzero;stroke:#f9f9f9;stroke-width:0.1;stroke-miterlimit:4;stroke-dasharray:none" transform="translate(-9216, -30720)"/><path d="m 9948.9123,31370.995 c -0.8245,24.967 -1.1252,49.95 -1.4249,74.928 -0.7953,21.628 1.0523,42.955 7.6741,63.571 4.2064,12.411 11.4368,21.641 22.4752,28.396 13.3317,7.576 28.1113,9.323 43.1453,9.608 21.316,0.185 42.474,-2.808 63.565,-5.523 13.586,-2.203 27.72,-2.778 40.913,-6.989 3.512,-2.518 -2.368,0.657 -2.887,1.071 11.786,-14.658 80.887,40.901 69.101,55.559 l 0,0 c -11.803,13.339 -25.262,24.025 -42.85,28.722 -17.49,4.516 -35.372,6.993 -53.316,8.958 -25.75,3.151 -51.582,6.543 -77.587,6.016 -32.1377,-1.4 -63.3008,-7.504 -90.6945,-25.416 -26.299,-19.309 -46.1299,-43.286 -55.9745,-74.931 -8.5933,-29.364 -12.523,-59.39 -11.2541,-90.05 0.2768,-25.135 0.7496,-50.27 0.6337,-75.407 0.3154,-18.77 88.7962,-17.283 88.4807,1.487 z" id="path10180" inkscape:connector-curvature="0" style="fill:#2b0000;fill-opacity:1;fill-rule:nonzero;stroke:#f9f9f9;stroke-width:0.1;stroke-miterlimit:4;stroke-dasharray:none" transform="translate(-9216, -30720)"/></svg>