<?xml version="1.0" encoding="UTF-8" standalone="no"?>
<svg
   xmlns:dc="http://purl.org/dc/elements/1.1/"
   xmlns:cc="http://creativecommons.org/ns#"
   xmlns:rdf="http://www.w3.org/1999/02/22-rdf-syntax-ns#"
   xmlns:svg="http://www.w3.org/2000/svg"
   xmlns="http://www.w3.org/2000/svg"
   xmlns:sodipodi="http://sodipodi.sourceforge.net/DTD/sodipodi-0.dtd"
   xmlns:inkscape="http://www.inkscape.org/namespaces/inkscape"
   width="1024"
   height="1024"
   id="U6D88"
   version="1.1"
   inkscape:version="0.48.0 r9654"
   sodipodi:docname="U+6D88.svg">
  <metadata
     id="metadata17">
    <rdf:RDF>
      <cc:Work
         rdf:about="">
        <dc:format>image/svg+xml</dc:format>
        <dc:type
           rdf:resource="http://purl.org/dc/dcmitype/StillImage" />
      </cc:Work>
    </rdf:RDF>
  </metadata>
  <defs
     id="defs15" />
  <sodipodi:namedview
     pagecolor="#ffffff"
     bordercolor="#666666"
     borderopacity="1"
     objecttolerance="10"
     gridtolerance="10"
     guidetolerance="10"
     inkscape:pageopacity="0"
     inkscape:pageshadow="2"
     inkscape:window-width="640"
     inkscape:window-height="480"
     id="namedview13"
     showgrid="false"
     inkscape:zoom="0.27441406"
     inkscape:cx="512"
     inkscape:cy="512"
     inkscape:window-x="0"
     inkscape:window-y="25"
     inkscape:window-maximized="0"
     inkscape:current-layer="U6D88" />
  <path
     style="fill:#916f6f;fill-opacity:1;fill-rule:nonzero;stroke:#f9f9f9;stroke-width:0.1;stroke-miterlimit:4;stroke-dasharray:none"
     d="M 549.5 103.0625 C 539.17282 103.06433 531.49313 105.19631 530.3125 110.34375 C 523.6244 147.97275 519.10265 185.93325 514.90625 223.90625 C 509.32425 274.02025 509.1719 324.45175 512.1875 374.71875 C 514.014 397.20075 513.0661 386.4785 515 406.9375 C 516.934 425.4305 604.1215 416.3055 602.1875 397.8125 C 600.0512 379.3405 601.105 388.984 599.125 368.875 C 595.7183 323.87 595.5557 278.648 600.8125 233.75 C 604.9382 199.061 609.30435 164.315 616.59375 130.125 C 619.61092 116.97044 575.89169 103.05783 549.5 103.0625 z M 727.0625 237.5625 C 726.18563 237.6217 725.36447 237.85769 724.59375 238.28125 C 689.18715 258.33225 661.4111 287.87325 635.1875 318.40625 C 623.1879 332.35025 688.9379 388.91375 700.9375 374.96875 C 720.3515 352.46275 740.5025 329.84125 767.1875 315.78125 C 782.85878 307.16977 744.89225 236.35868 727.0625 237.5625 z M 107.0625 250.96875 C 89.243597 250.59915 63.934119 329.71847 81.21875 335.375 C 106.18105 342.797 128.7427 355.728 150.5625 369.625 C 170.1603 382.107 188.01795 396.87075 204.34375 413.34375 C 217.67195 426.45175 279.4532 363.608 266.125 350.5 C 244.9653 330.096 222.19125 311.5175 197.28125 295.8125 C 169.23915 278.1405 140.2323 262.06125 108.75 251.28125 C 108.19243 251.09878 107.6373 250.98067 107.0625 250.96875 z M 377.21875 266.90625 C 357.06502 267.52265 306.21821 315.97483 317.4375 328.375 C 339.9405 351.907 365.6595 371.97925 391.5 391.65625 C 408.2701 403.80725 424.8667 416.187 440.9375 429.25 C 455.4517 440.877 510.23295 372.4395 495.71875 360.8125 C 478.91365 347.5165 461.71935 334.76175 444.34375 322.21875 C 422.82185 305.83675 401.17635 289.255 383.09375 269 C 381.71593 267.47717 379.69377 266.83055 377.21875 266.90625 z M 642.71875 423.65625 C 634.60679 423.66969 626.40282 424.04913 618.15625 424.84375 C 571.99745 428.97575 526.5961 437.78225 482.875 453.53125 C 455.63503 463.66105 428.33495 474.67695 404.71875 491.5625 C 380.3705 491.24195 353.0561 496.86165 353.4375 507.3125 C 355.837 547.2545 356.5166 587.254 357.4375 627.25 C 358.3097 677.208 360.70725 727.116 365.21875 776.875 C 368.09395 809.947 373.9566 842.61125 381.5 874.90625 C 382.4735 878.43825 383.43265 881.968 384.40625 885.5 C 389.61035 903.464 474.29785 878.93275 469.09375 860.96875 C 468.38135 858.68075 467.68115 856.413 466.96875 854.125 C 465.40879 848.00126 463.94078 841.8514 462.5625 835.6875 C 480.78246 825.64568 501.5449 821.66779 522.0625 818.40625 C 558.1921 813.92425 594.55245 816.87925 630.59375 820.53125 C 648.95725 823.07725 667.75385 824.05875 685.65625 829.21875 C 703.86895 833.76975 725.3377 747.926 707.125 743.375 C 684.6991 738.153 661.7601 735.89325 638.875 733.65625 C 595.4021 729.72725 551.6073 726.71875 508.125 732.46875 C 488.27755 735.7349 468.56149 739.87472 449.6875 746.25 C 448.32401 730.13177 447.20198 713.99155 446.3125 697.84375 C 479.17436 689.84292 512.33198 683.05754 545.375 675.84375 C 583.7735 667.54475 622.4455 660.2725 661.5625 656.4375 C 662.0586 652.0865 699.92845 658.973 689.15625 658.25 C 705.82495 666.84 746.32505 588.24525 729.65625 579.65625 C 704.72595 568.87625 679.4073 565.88775 652.3125 569.59375 C 610.176 574.35475 568.47795 582.082 527.03125 591 C 499.23739 596.94376 471.40825 602.65181 443.5625 608.34375 C 443.33949 595.35465 443.09313 582.36412 442.875 569.375 C 446.13551 569.98023 448.80451 569.52183 450.5625 567.71875 C 468.2217 551.55975 491.24475 543.371 513.28125 535.125 C 549.55325 522.049 587.18565 514.548 625.53125 511.5 C 654.41195 509.186 682.51055 512.05475 708.65625 524.71875 C 725.65905 533.91975 733.77975 549.0325 739.21875 566.8125 C 746.14495 598.8455 741.41375 631.7575 737.15625 663.8125 C 730.87145 706.9175 721.39195 749.4725 712.96875 792.1875 C 707.68495 818.7005 704.1257 845.63775 695.9375 871.46875 C 690.5651 889.35775 774.90885 914.7015 780.28125 896.8125 C 788.63285 867.9535 793.23685 838.309 798.40625 808.75 C 806.85725 764.318 816.58485 720.11475 823.15625 675.34375 C 829.27185 629.87775 834.5898 583.40375 822 538.46875 C 806.8867 496.41275 785.40885 465.63375 744.53125 444.96875 C 711.76134 430.82881 677.87056 423.598 642.71875 423.65625 z M 84.46875 448.3125 C 65.04642 448.17463 14.743984 500.74444 26.78125 512.78125 C 46.99855 531.42925 67.59455 549.66525 87.84375 568.28125 C 108.20275 587.13025 127.8394 606.7415 147.375 626.4375 C 149.3471 628.5525 151.3404 630.66525 153.3125 632.78125 C 166.1988 646.31225 229.98005 585.56225 217.09375 572.03125 C 214.53065 569.38425 211.96935 566.74075 209.40625 564.09375 C 188.81945 543.88475 168.2665 523.59975 147.125 503.96875 C 127.8127 486.11175 108.07585 468.68525 89.40625 450.15625 C 88.161016 448.91106 86.477957 448.32676 84.46875 448.3125 z M 276.375 635.875 C 273.97836 635.82717 272.03684 636.48048 270.71875 637.96875 L 248.625 663.0625 C 205.545 712.9835 162.77745 763.3635 124.59375 817.1875 C 104.10125 847.9345 84.64065 879.5835 73.71875 915.1875 C 68.47445 933.2155 153.4432 957.93425 158.6875 939.90625 C 166.2484 912.54325 181.5726 888.49375 196.9375 864.96875 C 232.3884 813.74575 272.5787 766.05 313.3125 719 L 334.875 694.78125 C 345.60801 682.66162 295.89051 636.26448 276.375 635.875 z "
     id="path11700" />
</svg>
