<?xml version="1.0" encoding="UTF-8" standalone="no"?>
<svg
   xmlns:dc="http://purl.org/dc/elements/1.1/"
   xmlns:cc="http://creativecommons.org/ns#"
   xmlns:rdf="http://www.w3.org/1999/02/22-rdf-syntax-ns#"
   xmlns:svg="http://www.w3.org/2000/svg"
   xmlns="http://www.w3.org/2000/svg"
   xmlns:sodipodi="http://sodipodi.sourceforge.net/DTD/sodipodi-0.dtd"
   xmlns:inkscape="http://www.inkscape.org/namespaces/inkscape"
   width="1024"
   height="1024"
   id="U6D45"
   version="1.1"
   inkscape:version="0.48.0 r9654"
   sodipodi:docname="U+6D45.svg">
  <metadata
     id="metadata15">
    <rdf:RDF>
      <cc:Work
         rdf:about="">
        <dc:format>image/svg+xml</dc:format>
        <dc:type
           rdf:resource="http://purl.org/dc/dcmitype/StillImage" />
      </cc:Work>
    </rdf:RDF>
  </metadata>
  <defs
     id="defs13" />
  <sodipodi:namedview
     pagecolor="#ffffff"
     bordercolor="#666666"
     borderopacity="1"
     objecttolerance="10"
     gridtolerance="10"
     guidetolerance="10"
     inkscape:pageopacity="0"
     inkscape:pageshadow="2"
     inkscape:window-width="640"
     inkscape:window-height="480"
     id="namedview11"
     showgrid="false"
     inkscape:zoom="0.27441406"
     inkscape:cx="512"
     inkscape:cy="512"
     inkscape:window-x="0"
     inkscape:window-y="25"
     inkscape:window-maximized="0"
     inkscape:current-layer="U6D45" />
  <path
     style="fill:#c83737;fill-opacity:1;fill-rule:nonzero;stroke:#f9f9f9;stroke-width:0.1;stroke-miterlimit:4;stroke-dasharray:none"
     d="M 700.1875 100.84375 C 680.04297 100.55884 627.13632 146.65281 637.78125 159.53125 C 661.05005 186.93525 684.3457 214.302 707.5625 241.75 C 721.3173 257.832 733.92405 274.8255 746.34375 291.9375 C 757.21165 306.8195 827.3679 255.5685 816.5 240.6875 C 802.8006 222.0305 788.9356 203.49275 773.9375 185.84375 C 751.0095 158.50675 727.8568 131.3495 705.9375 103.1875 C 704.63023 101.60594 702.66139 100.87874 700.1875 100.84375 z M 487.3125 167.1875 C 483.14829 167.2983 480.10069 168.49062 478.75 171.09375 C 459.2217 216.50575 465.6789 265.80475 472.375 313.21875 C 472.50553 314.00134 472.64941 314.78017 472.78125 315.5625 C 438.63371 333.04044 404.51078 350.59013 371.71875 370.53125 C 356.05885 380.87025 404.7776 454.713 420.4375 444.375 C 442.85356 429.4516 466.42328 416.4114 490.25 403.875 C 500.85535 450.94312 513.23836 497.61344 526.28125 544.0625 C 488.9286 559.28033 452.25362 576.0716 416.90625 595.6875 C 395.84842 607.64882 375.10092 620.10207 354.5625 632.875 C 335.4391 620.2472 311.99806 611.08512 306.875 619.40625 C 269.4682 680.91625 230.19485 741.24925 190.65625 801.40625 C 165.86795 839.95225 140.7449 878.35475 118.75 918.59375 C 110.6154 935.51375 190.3654 973.88875 198.5 956.96875 C 217.464 919.02775 240.58475 883.30125 263.09375 847.40625 C 287.27207 809.64535 311.61095 772.0027 335.75 734.21875 C 342.0088 739.63461 347.74738 742.18607 351.59375 739.71875 C 386.45805 714.71875 422.6066 691.76275 459.6875 670.21875 C 489.48896 653.32553 520.4094 638.74225 551.9375 625.59375 C 564.14324 660.73498 577.69357 695.38806 592.40625 729.5625 C 571.91256 748.95861 551.29466 768.22831 530.625 787.4375 C 504.7286 811.2295 517.58395 799.50825 492.09375 822.53125 C 478.51635 834.85225 536.57885 898.85225 550.15625 886.53125 C 576.10495 862.87425 563.03375 874.87075 589.34375 850.59375 C 603.33776 837.57306 617.31387 824.51963 631.25 811.4375 C 653.31262 852.01128 679.0636 890.43834 708.84375 925.8125 C 720.06135 939.7265 733.9008 949.53175 748.9375 958.71875 C 765.373 967.64775 807.46675 890.179 791.03125 881.25 C 785.55035 881.924 778.08485 870.75125 774.90625 868.90625 C 743.19974 833.19935 717.41681 792.80851 695.625 750.375 C 699.9851 746.18694 704.34003 742.0139 708.6875 737.8125 C 734.9608 712.7325 760.93315 687.19975 789.09375 664.21875 C 803.67475 652.38275 747.8935 583.63275 733.3125 595.46875 C 707.449 618.35526 682.70854 642.47364 657.9375 666.53125 C 648.33479 643.07798 639.35808 619.39005 631.0625 595.4375 C 638.56181 592.78285 646.07717 590.1541 653.59375 587.5625 C 697.82075 572.4125 742.89665 560.09075 788.65625 550.59375 C 792.31675 549.79575 795.99585 548.9855 799.65625 548.1875 C 817.82335 543.8965 797.57325 458.2715 779.40625 462.5625 L 769.5625 465.0625 C 720.8905 476.6345 672.8028 490.4115 625.5625 506.9375 C 618.95743 509.25208 612.34445 511.61479 605.75 513.96875 C 591.98049 464.27514 579.2005 414.28135 568.9375 363.75 C 590.64791 352.73939 612.48896 341.97111 635.0625 332.875 C 652.172 325.588 617.797 244.93075 600.6875 252.21875 C 584.96339 259.20153 569.48288 266.69007 554.09375 274.375 C 551.64627 253.34847 550.75371 231.93416 557.28125 211.84375 C 564.57505 197.78687 509.79923 166.58918 487.3125 167.1875 z M 236.6875 228.4375 C 214.95267 229.09825 162.00824 267.55273 171.03125 280.9375 C 190.03615 307.3245 212.2135 331.12175 234.5 354.71875 C 238.1914 358.73775 241.90245 362.76225 245.59375 366.78125 C 258.15385 380.40525 322.3726 321.21775 309.8125 307.59375 C 305.8596 303.32175 301.8905 299.023 297.9375 294.75 C 278.9487 274.682 259.7578 254.5395 244.4375 231.4375 C 242.96101 229.24741 240.24411 228.32938 236.6875 228.4375 z M 213.6875 490.40625 C 189.81335 491.39797 138.49456 519.49563 145.15625 533.21875 C 155.12515 550.87775 163.18665 569.36775 169.90625 588.46875 C 176.06415 605.96575 258.5329 576.9345 252.375 559.4375 C 244.5503 537.2115 235.56195 515.5375 224.78125 494.5625 C 223.24394 491.39581 219.19692 490.17739 213.6875 490.40625 z "
     id="path10871" />
</svg>
