<?xml version="1.0" encoding="utf-8" ?>

<!DOCTYPE svg PUBLIC "-//W3C//DTD SVG 1.1//EN" 
  "http://www.w3.org/Graphics/SVG/1.1/DTD/svg11.dtd">
<svg 
    xmlns="http://www.w3.org/2000/svg"
    xmlns:xlink="http://www.w3.org/1999/xlink"
    xmlns:sodipodi="http://sodipodi.sourceforge.net/DTD/sodipodi-0.dtd"
    xmlns:inkscape="http://www.inkscape.org/namespaces/inkscape"
    width="1024" height="1024" id="U6E34">
<path d="m 10469.716,26826.759 c 20.832,13.825 39.981,29.889 58.538,46.585 13.648,12.447 27.25,24.94 39.742,38.559 7.529,9.18 3.913,4.434 10.835,14.248 10.531,15.554 -62.79,65.194 -73.32,49.64 l 0,0 c -1.569,-2.806 -0.586,-1.233 -3.121,-4.609 -10.274,-11.657 -21.938,-21.959 -33.202,-32.635 -14.765,-13.484 -29.929,-26.669 -47.023,-37.168 -15.83,-10.087 31.722,-84.707 47.551,-74.62 z" id="path8792" inkscape:connector-curvature="0" style="fill:#2b0000;fill-opacity:1;fill-rule:nonzero;stroke:#f9f9f9;stroke-width:0.1;stroke-miterlimit:4;stroke-dasharray:none" transform="translate(-10240, -26624)"/><path d="m 10388.201,27095.744 c 18.491,11.907 36.697,24.233 55.415,35.785 19.888,11.502 37.928,25.305 53.869,41.809 11.452,12.814 20.956,27.156 28.506,42.562 7.917,17.066 -72.533,54.391 -80.451,37.325 l 0,0 c -2.257,-7.3 -8.137,-13.269 -12.355,-19.428 -10.082,-11.452 -23.021,-19.504 -35.906,-27.475 -17.897,-11.127 -35.321,-22.985 -53.341,-33.909 -16.265,-9.389 27.998,-86.059 44.263,-76.669 z" id="path8794" inkscape:connector-curvature="0" style="fill:#2b0000;fill-opacity:1;fill-rule:nonzero;stroke:#f9f9f9;stroke-width:0.1;stroke-miterlimit:4;stroke-dasharray:none" transform="translate(-10240, -26624)"/><path d="m 10374.959,27435.414 c 19.259,-16.026 37.788,-32.896 56.787,-49.223 14.503,-12.09 28.233,-25.069 43.19,-36.603 7.281,-4.778 13.699,-10.644 20.546,-15.983 3.491,-0.478 15.619,-12.549 7.089,-4.21 11.038,-15.247 82.912,36.787 71.874,52.034 l 0,0 c -6.879,8.705 -14.874,17.536 -24.713,22.401 -7.197,5.456 -13.887,11.585 -21.571,16.391 -13.86,10.018 -25.96,22.268 -39.416,32.808 -18.669,15.786 -36.828,32.167 -55,48.52 -14.029,12.471 -72.816,-53.664 -58.786,-66.135 z" id="path8796" inkscape:connector-curvature="0" style="fill:#2b0000;fill-opacity:1;fill-rule:nonzero;stroke:#f9f9f9;stroke-width:0.1;stroke-miterlimit:4;stroke-dasharray:none" transform="translate(-10240, -26624)"/><path d="m 10715.447,26821.538 c 2.96,25.814 6.963,51.467 12.106,76.932 5.911,27.337 14.762,53.882 24.383,80.1 6.874,17.386 13.473,34.875 19.918,52.423 2.375,6.48 1.25,3.407 3.376,9.219 6.247,17.742 -77.391,47.192 -83.638,29.449 l 0,0 c -1.907,-5.642 -0.895,-2.662 -3.038,-8.94 -6.069,-17.535 -12.509,-34.932 -19.131,-52.266 -10.858,-30.339 -20.8,-61.048 -27.619,-92.582 -5.462,-26.799 -9.729,-53.78 -13.851,-80.813 -2.868,-18.56 84.626,-32.082 87.494,-13.522 z" id="path8798" inkscape:connector-curvature="0" style="fill:#2b0000;fill-opacity:1;fill-rule:nonzero;stroke:#f9f9f9;stroke-width:0.1;stroke-miterlimit:4;stroke-dasharray:none" transform="translate(-10240, -26624)"/><path d="m 10700.932,26757.056 c 23.744,-3.568 47.429,-7.523 71.109,-11.494 29.948,-5.992 60.08,-10.186 90.561,-11.995 24.702,-1.222 49.337,1.122 73.88,3.591 16.827,1.438 33.371,3.894 49.521,8.88 14.28,4.44 26.532,12.6 37.965,21.993 16.551,13.02 23.112,31.122 24.924,51.466 -0.455,21.593 -8.59,41.768 -15.983,61.737 -9.493,24.296 -16.897,49.284 -23.289,74.549 -4.398,17.949 -8.061,36.06 -11.583,54.196 -2.823,17.012 -10.137,32.114 -20.124,45.982 -11.325,15.011 -82.085,-38.375 -70.76,-53.386 l 0,0 c 3.228,-2.126 3.139,-6.766 4.206,-10.093 4.098,-19.557 8.418,-39.067 13.32,-58.441 7.247,-28.025 15.398,-55.808 25.517,-82.949 2.836,-7.914 7.815,-23.62 10.073,-28.593 0.548,2.45 5.635,16.266 7.928,14.715 0.351,-0.238 -0.588,-0.611 -0.882,-0.916 -2.854,-2.398 -5.052,-5.019 -8.799,-6.097 -9.898,-3.931 -20.908,-3.521 -31.271,-5.343 -19.824,-2.185 -39.718,-4.469 -59.703,-3.737 -27.247,1.438 -54.108,5.485 -80.855,10.883 -23.965,4.103 -47.967,8.003 -71.861,12.503 -18.551,2.948 -32.446,-84.504 -13.894,-87.451 z" id="path8800" inkscape:connector-curvature="0" style="fill:#2b0000;fill-opacity:1;fill-rule:nonzero;stroke:#f9f9f9;stroke-width:0.1;stroke-miterlimit:4;stroke-dasharray:none" transform="translate(-10240, -26624)"/><path d="m 10716.486,26909.202 c 25.891,-4.214 52.012,-6.58 78.118,-8.958 22.734,-2.428 45.472,-4.252 68.341,-3.605 14.167,0.517 28.242,2.106 42.039,5.359 18.23,4.67 -3.787,90.609 -22.017,85.938 l 0,0 c -7.577,-2.004 -15.499,-2.507 -23.311,-3.094 -19.132,-1 -38.168,1.135 -57.209,2.812 -23.893,2.111 -47.874,4.019 -71.415,8.823 -18.514,3.086 -33.06,-84.19 -14.546,-87.275 z" id="path8802" inkscape:connector-curvature="0" style="fill:#2b0000;fill-opacity:1;fill-rule:nonzero;stroke:#f9f9f9;stroke-width:0.1;stroke-miterlimit:4;stroke-dasharray:none" transform="translate(-10240, -26624)"/><path d="m 10707.054,27042.569 c 25.352,-7.282 51.051,-12.832 77.219,-16.098 22.715,-2.731 45.558,-0.948 68.34,-1.073 14.388,-0.66 28.694,-1.859 43.109,-1.506 6.792,0.142 13.465,1.235 20.131,2.42 18.46,3.666 1.179,90.687 -17.281,87.022 l 0,0 c -1.888,-0.409 -3.817,-0.959 -5.8,-0.936 -13.394,-0.688 -26.726,1.286 -40.124,1.179 -19.336,-0.07 -38.701,-1.628 -58.007,0.109 -21.442,2.359 -42.45,7.271 -62.981,13.888 -18.032,5.22 -42.639,-79.785 -24.606,-85.005 z" id="path8804" inkscape:connector-curvature="0" style="fill:#2b0000;fill-opacity:1;fill-rule:nonzero;stroke:#f9f9f9;stroke-width:0.1;stroke-miterlimit:4;stroke-dasharray:none" transform="translate(-10240, -26624)"/><path d="m 10702.696,27190.635 c -9.443,22.893 -18.28,46.028 -26.914,69.236 -10.737,28.504 -20.189,57.456 -28.251,86.824 -2.227,9.243 -4.875,18.465 -5.826,27.961 -0.551,5.494 0.213,6.345 0.226,6.325 0.493,-0.763 0.152,-1.811 0.229,-2.716 3.879,18.383 -82.779,36.668 -86.658,18.286 l 0,0 c -3.768,-25.13 0.1,-49.308 7.63,-73.529 9.008,-31.518 19.125,-62.701 30.485,-93.455 8.796,-24.05 18.019,-47.938 26.95,-71.937 7.001,-17.422 89.13,15.583 82.129,33.005 z" id="path8806" inkscape:connector-curvature="0" style="fill:#2b0000;fill-opacity:1;fill-rule:nonzero;stroke:#f9f9f9;stroke-width:0.1;stroke-miterlimit:4;stroke-dasharray:none" transform="translate(-10240, -26624)"/><path d="m 10656.862,27226.234 c 25.763,-5.279 51.264,-11.7 76.799,-17.961 30.042,-7.432 60.622,-12.14 91.346,-15.586 26.347,-2.438 52.717,-4.479 78.988,-7.656 21.528,-3.091 43.073,-5.931 64.795,-7.151 15.234,-0.556 30.426,-0.545 45.539,1.513 13.393,2.216 25.729,7.855 37.99,13.395 6.995,2.564 13.875,5.265 20.569,8.56 14.005,7.355 23.32,19.321 30.133,33.252 6.179,13.305 7.788,27.64 8.126,42.129 -0.547,21.257 -4.364,42.247 -7.621,63.211 -3.524,22.065 -6.721,44.179 -9.368,66.366 -2.297,20.441 -4.21,40.921 -6.428,61.37 -1.709,16.266 -3.16,32.558 -4.458,48.862 -0.508,6.933 -1.008,13.868 -1.294,20.814 -1.139,18.786 -89.697,13.42 -88.558,-5.366 l 0,0 c 0.576,-7.586 1.2,-15.168 1.818,-22.75 1.473,-17.108 3.002,-34.213 4.867,-51.283 2.351,-20.696 4.395,-41.423 6.713,-62.123 2.785,-23.111 6.133,-46.145 9.749,-69.141 2.406,-16.105 5.232,-32.211 6.098,-48.492 0.01,-2.278 0.26,-4.481 -0.427,-6.677 2.423,3.723 5.604,6.876 9.739,8.663 -3.366,-1.526 -11.718,-4.507 -16.484,-6.728 -4.887,-2.252 -9.731,-4.631 -14.777,-6.507 -8.752,-2.527 -18.612,0.05 -27.539,-0.951 -19.727,0.802 -39.255,3.712 -58.816,6.258 -26.514,3.101 -53.108,5.226 -79.698,7.553 -26.951,2.946 -53.768,7.063 -80.121,13.541 -25.346,6.227 -50.681,12.498 -76.029,18.713 -18.207,4.593 -39.858,-81.235 -21.651,-85.828 z" id="path8808" inkscape:connector-curvature="0" style="fill:#2b0000;fill-opacity:1;fill-rule:nonzero;stroke:#f9f9f9;stroke-width:0.1;stroke-miterlimit:4;stroke-dasharray:none" transform="translate(-10240, -26624)"/><path d="m 10897.609,27276.001 c -9.908,20.924 -18.538,42.41 -26.944,63.969 -8.512,22.487 -17.617,44.748 -25.716,67.389 -3,9.703 -6.884,19.315 -8.508,29.389 -0.106,0.746 -0.212,1.492 -0.317,2.238 0.09,-0.289 0.18,-0.578 0.271,-0.868 0.07,-1.404 0.151,-2.808 0.226,-4.212 1.167,18.822 -87.559,24.322 -88.725,5.501 l 0,0 c -0.03,-6.742 -0.05,-13.41 1.589,-20.009 3.058,-14.407 7.656,-28.408 12.708,-42.234 8.583,-23.127 18.046,-45.911 26.699,-69.012 8.785,-22.623 17.918,-45.097 27.521,-67.387 7.475,-17.224 88.67,18.012 81.196,35.236 z" id="path8810" inkscape:connector-curvature="0" style="fill:#2b0000;fill-opacity:1;fill-rule:nonzero;stroke:#f9f9f9;stroke-width:0.1;stroke-miterlimit:4;stroke-dasharray:none" transform="translate(-10240, -26624)"/><path d="m 10892.398,27302.023 c 21.254,12.011 41.152,26.138 60.472,41.009 10.406,8.551 21.004,16.811 31.917,24.699 1.561,1.249 3.122,2.498 4.683,3.747 14.502,12.003 -42.082,80.365 -56.584,68.361 l 0,0 c -0.289,-0.282 -0.578,-0.564 -0.867,-0.846 -11.267,-8.532 -22.297,-17.34 -33.115,-26.438 -15.491,-12.149 -31.458,-23.814 -48.979,-32.908 -16.467,-9.01 26.007,-86.634 42.473,-77.624 z" id="path8812" inkscape:connector-curvature="0" style="fill:#2b0000;fill-opacity:1;fill-rule:nonzero;stroke:#f9f9f9;stroke-width:0.1;stroke-miterlimit:4;stroke-dasharray:none" transform="translate(-10240, -26624)"/><path d="m 10764.698,27244.747 c 3.528,26.951 4.819,54.09 5.472,81.239 0.155,22.607 0.965,45.186 2.937,67.706 1.876,13.393 1.623,27.386 5.779,40.376 1.524,-1.226 -4.562,-7.848 -5.316,-8.7 2.601,0.512 8.853,3.505 12.461,5.377 3.405,0.569 -6.115,-1.227 -1.9,-1.652 13.445,-0.196 26.83,-1.587 40.198,-2.92 21.02,-1.735 42.137,-1.683 63.213,-2.077 19.822,0.03 39.623,-0.117 59.399,-1.523 14.242,-1.153 28.358,-3.407 42.489,-5.456 7.531,-1.115 15.117,-1.127 22.704,-1.031 18.795,0.485 16.509,89.088 -2.287,88.603 l 0,0 c -2.698,-0.189 -5.396,-0.281 -8.094,0.04 -16.271,2.215 -32.533,4.606 -48.92,5.8 -21.17,1.346 -42.358,1.649 -63.569,1.578 -18.642,0.382 -37.321,0.398 -55.918,1.832 -15.902,1.681 -31.828,3.319 -47.824,3.727 -14.727,0.03 -29.348,-1.518 -42.366,-9.037 11.775,5.198 -11.771,-4.631 -12.812,-5.732 -18.168,-10.544 -31.4,-25.668 -37.012,-46.26 -4.493,-18.265 -6.512,-36.906 -7.985,-55.64 -1.93,-24.293 -2.808,-48.628 -2.881,-72.999 -0.511,-23.583 -1.377,-47.235 -5.311,-70.542 -2.696,-18.57 84.847,-31.278 87.543,-12.707 z" id="path8814" inkscape:connector-curvature="0" style="fill:#2b0000;fill-opacity:1;fill-rule:nonzero;stroke:#f9f9f9;stroke-width:0.1;stroke-miterlimit:4;stroke-dasharray:none" transform="translate(-10240, -26624)"/></svg>