<?xml version="1.0" encoding="UTF-8" standalone="no"?>
<svg
   xmlns:dc="http://purl.org/dc/elements/1.1/"
   xmlns:cc="http://creativecommons.org/ns#"
   xmlns:rdf="http://www.w3.org/1999/02/22-rdf-syntax-ns#"
   xmlns:svg="http://www.w3.org/2000/svg"
   xmlns="http://www.w3.org/2000/svg"
   xmlns:sodipodi="http://sodipodi.sourceforge.net/DTD/sodipodi-0.dtd"
   xmlns:inkscape="http://www.inkscape.org/namespaces/inkscape"
   width="1024"
   height="1024"
   id="U6E56"
   version="1.1"
   inkscape:version="0.48.0 r9654"
   sodipodi:docname="U+6E56.svg">
  <metadata
     id="metadata19">
    <rdf:RDF>
      <cc:Work
         rdf:about="">
        <dc:format>image/svg+xml</dc:format>
        <dc:type
           rdf:resource="http://purl.org/dc/dcmitype/StillImage" />
      </cc:Work>
    </rdf:RDF>
  </metadata>
  <defs
     id="defs17" />
  <sodipodi:namedview
     pagecolor="#ffffff"
     bordercolor="#666666"
     borderopacity="1"
     objecttolerance="10"
     gridtolerance="10"
     guidetolerance="10"
     inkscape:pageopacity="0"
     inkscape:pageshadow="2"
     inkscape:window-width="640"
     inkscape:window-height="480"
     id="namedview15"
     showgrid="false"
     inkscape:zoom="0.27441406"
     inkscape:cx="512"
     inkscape:cy="512"
     inkscape:window-x="0"
     inkscape:window-y="25"
     inkscape:window-maximized="0"
     inkscape:current-layer="U6E56" />
  <path
     style="fill:#550000;fill-opacity:1;fill-rule:nonzero;stroke:#f9f9f9;stroke-width:0.1;stroke-miterlimit:4;stroke-dasharray:none"
     d="M 844.25 211.75 C 818.82766 212.13506 793.88085 216.34056 770.3125 227.25 C 765.69705 229.52715 761.14479 231.89674 756.65625 234.375 C 754.71517 216.82923 673.78827 202.23262 670.46875 219.9375 C 663.79195 265.2615 659.2285 310.86025 654.375 356.40625 C 645.6075 437.25625 637.14095 518.13125 628.84375 599.03125 C 623.11625 655.15425 617.10025 711.24325 610.59375 767.28125 C 608.82675 781.77125 609.61365 775.22275 608.28125 786.96875 C 606.82525 805.48075 694.07525 812.35575 695.53125 793.84375 C 695.85775 783.94675 695.5877 789.89025 696.6875 776.03125 C 701.5571 719.81025 707.07445 663.63475 712.53125 607.46875 C 714.71994 585.3624 716.94742 563.25391 719.21875 541.15625 C 726.63288 562.71677 739.14631 583.50504 748.25 580.1875 C 771.2093 573.0405 795.6239 573.06775 819.4375 573.34375 C 836.346 574.33475 828.24855 573.56775 843.71875 575.46875 C 862.03055 577.47875 871.4993 491.16625 853.1875 489.15625 C 831.4664 486.96825 842.51235 487.792 820.15625 486.75 C 787.86413 486.57929 755.17344 487.51966 723.90625 496.25 C 728.52724 452.77423 733.38127 409.31382 738.625 365.90625 C 739.95744 354.75035 741.29038 343.5998 742.625 332.4375 C 754.49317 337.81355 764.78378 339.72638 768.1875 334.59375 C 778.2611 321.03075 792.8444 312.42425 807.9375 305.53125 C 823.6344 298.64125 840.1981 297.88475 857 299.09375 C 861.8955 300.30775 876.41495 299.7145 877.53125 305.9375 C 883.11575 323.2555 885.3767 341.76975 887.5625 359.84375 C 892.8602 417.31775 891.01335 475.12375 889.28125 532.71875 C 888.194 561.28723 887.06714 589.83965 885.9375 618.40625 C 863.55391 615.77677 841.14328 616.82551 818.71875 619 C 794.30955 620.906 769.48895 623.742 745.09375 620.375 C 727.50205 614.343 699.06455 697.2805 716.65625 703.3125 C 752.25205 712.0835 789.18305 707.91775 825.28125 705.21875 C 841.05925 705.54575 858.39165 700.60925 873.96875 705.03125 C 877.0861 705.51179 880.05285 703.42199 882.75 699.59375 C 882.09746 716.69095 881.4576 733.77621 880.84375 750.875 C 878.43835 793.025 879.5858 835.435 875.75 877.5 C 875.3521 879.133 874.9604 880.742 874.5625 882.375 C 871.5058 900.641 957.6308 915.0795 960.6875 896.8125 C 961.29 892.4665 961.86615 888.096 962.46875 883.75 C 964.96635 840.428 963.8892 796.979 965.6875 753.625 C 967.7859 680.892 970.629 608.193 973.8125 535.5 C 976.0174 473.68 978.3159 411.64625 973.125 349.90625 C 968.7965 311.31825 964.085 271.3635 936.625 241.5625 C 914.8093 223.2955 890.62595 213.2395 861.90625 212.0625 C 855.99694 211.78144 850.11669 211.66114 844.25 211.75 z M 421.0625 215.78125 C 415.60493 215.87009 411.68198 217.2825 410.34375 220.5 C 398.11893 257.26653 391.62411 295.66517 383.9375 333.5625 C 358.2548 337.38311 332.40166 340.39926 306.4375 339.71875 C 287.9021 338.28075 281.12085 425.65575 299.65625 427.09375 C 321.45122 427.3329 343.14391 425.57917 364.75 422.90625 C 360.11114 443.87908 355.46164 464.82867 350.875 485.8125 C 344.6621 514.7535 347.6383 500.69625 341.875 528.03125 C 340.44281 535.04286 352.53244 541.94846 367.96875 546.6875 C 366.44177 548.04272 364.92258 549.4221 363.4375 550.84375 C 350.5908 564.26075 413.8407 624.82325 426.6875 611.40625 C 441.4458 597.43125 460.3704 589.98025 479.5625 584.40625 C 491.3911 581.81225 504.32155 579.54025 515.65625 585.03125 C 519.76145 589.42325 514.052 582.656 515.125 591 C 517.6216 615.003 513.9608 639.103 510.875 662.875 C 507.46179 687.96166 503.25315 712.9195 497.59375 737.59375 C 464.94887 744.12731 432.47665 751.81085 401.4375 764.0625 C 399.34217 748.6118 399.0465 732.74403 397.71875 717.625 C 397.49675 686.282 398.7924 654.75025 406.25 624.15625 C 410.3067 606.03725 324.8692 586.91125 320.8125 605.03125 C 316.0278 628.3909 313.55544 652.02255 312.40625 675.75 C 295.94045 659.35264 274.20959 645.43345 267.46875 652.71875 C 254.12375 667.27675 240.6472 681.727 225.875 694.875 C 202.2671 715.519 178.06875 736.02925 150.28125 750.90625 C 133.62195 759.15625 172.5283 837.6875 189.1875 829.4375 C 223.2146 810.2815 253.255 785.17625 282.5 759.53125 C 292.76347 750.41005 302.52683 740.79061 312.0625 730.9375 C 313.59891 763.27666 317.69945 795.47644 327.9375 826.28125 C 330.3624 830.92525 332.79385 835.57475 335.21875 840.21875 C 342.49708 852.2149 386.97507 829.20813 404.125 810.40625 C 412.86871 830.49174 425.8871 848.77762 434.40625 845.0625 C 463.46245 832.2355 494.7108 825.8345 525.75 819.9375 C 549.8872 815.5275 574.2644 812.73675 598.5 808.96875 C 615.22115 806.19468 604.62391 733.67953 588.6875 724 C 591.67805 707.45178 594.25501 690.82424 596.5625 674.15625 C 601.1875 639.50125 606.2189 604.2005 599.6875 569.4375 C 590.9819 538.5405 575.03975 513.83425 543.65625 502.28125 C 514.01355 493.13025 484.14475 492.52225 454.15625 501.40625 C 447.26339 503.58359 440.44861 505.96216 433.71875 508.53125 C 434.16989 506.33754 434.02358 506.98892 434.65625 503.90625 C 441.44138 472.01359 448.53732 440.19026 455.53125 408.34375 C 492.08573 401.662 528.55842 394.54805 565 387.28125 C 578.0308 384.77425 591.0165 382.017 603.9375 379 C 621.8921 374.479 600.54835 289.854 582.59375 294.375 C 570.99255 297.574 559.2846 300.33125 547.5 302.78125 C 523.32586 307.968 499.11552 312.9377 474.84375 317.65625 C 479.33845 296.22388 484.22057 274.87724 491.21875 254.15625 C 497.01764 240.21375 444.71198 215.3963 421.0625 215.78125 z M 206.78125 229.9375 C 186.05952 229.57555 132.32709 269.72163 141.65625 283.03125 C 160.88195 308.46925 184.78515 329.688 207.96875 351.375 C 210.95165 354.403 213.92335 357.44075 216.90625 360.46875 C 229.90435 373.50275 291.34195 312.2215 278.34375 299.1875 L 267.03125 287.96875 C 248.23515 270.51875 228.52735 253.62325 213.34375 232.78125 C 212.01101 230.87987 209.7415 229.98921 206.78125 229.9375 z M 168.28125 469.09375 C 141.96081 469.6455 102.19199 481.95419 104.78125 494.46875 C 112.02635 523.31375 126.19925 549.57375 140.15625 575.59375 L 146.28125 587.5625 C 154.66485 603.9515 231.91475 564.4505 223.53125 548.0625 L 216.625 534.59375 C 206.6491 515.97275 195.88235 497.33675 190.59375 476.71875 C 189.41681 471.03031 180.24509 468.84295 168.28125 469.09375 z "
     id="path24799" />
</svg>
