<?xml version="1.0" encoding="utf-8" ?>

<!DOCTYPE svg PUBLIC "-//W3C//DTD SVG 1.1//EN" 
  "http://www.w3.org/Graphics/SVG/1.1/DTD/svg11.dtd">
<svg 
    xmlns="http://www.w3.org/2000/svg"
    xmlns:xlink="http://www.w3.org/1999/xlink"
    xmlns:sodipodi="http://sodipodi.sourceforge.net/DTD/sodipodi-0.dtd"
    xmlns:inkscape="http://www.inkscape.org/namespaces/inkscape"
    width="1024" height="1024" id="U6E05">
<path d="m 10360.524,39191.801 c 14.377,22.996 34.73,41.214 54.6,59.319 17.954,15.036 33.808,32.006 48.438,50.216 11.472,14.626 -57.479,68.704 -68.95,54.077 l 0,0 c -11.146,-14.811 -24.274,-27.735 -38.339,-39.815 -26.029,-23.793 -51.826,-48.232 -71.343,-77.876 -9.741,-16.036 65.852,-61.957 75.594,-45.921 z" id="path11115" inkscape:connector-curvature="0" style="fill:#c83737;fill-opacity:1;fill-rule:nonzero;stroke:#f9f9f9;stroke-width:0.1;stroke-miterlimit:4;stroke-dasharray:none" transform="translate(-10240, -38912)"/><path d="m 10316.584,39424.857 c 21.351,22.686 42.375,45.662 62.323,69.596 3.797,5.105 7.594,10.209 11.39,15.314 10.986,14.933 -59.411,66.72 -70.397,51.786 l 0,0 c -2.724,-3.76 -5.447,-7.519 -8.171,-11.279 -18.031,-21.777 -37.146,-42.649 -57.341,-62.445 -13.358,-13.193 48.837,-76.166 62.196,-62.972 z" id="path11117" inkscape:connector-curvature="0" style="fill:#c83737;fill-opacity:1;fill-rule:nonzero;stroke:#f9f9f9;stroke-width:0.1;stroke-miterlimit:4;stroke-dasharray:none" transform="translate(-10240, -38912)"/><path d="m 10267.177,39692.409 c 35.148,-41.513 73.188,-80.44 111.551,-118.955 34.419,-34.243 70.264,-66.99 106.282,-99.529 13.522,-12.13 70.704,51.611 57.182,63.741 l 0,0 c -34.982,31.157 -69.735,62.596 -102.768,95.839 -35.556,36.192 -71.066,72.689 -102.236,112.806 -11.435,14.851 -81.445,-39.051 -70.011,-53.902 z" id="path11119" inkscape:connector-curvature="0" style="fill:#c83737;fill-opacity:1;fill-rule:nonzero;stroke:#f9f9f9;stroke-width:0.1;stroke-miterlimit:4;stroke-dasharray:none" transform="translate(-10240, -38912)"/><path d="m 10603.031,39114.277 c 44.093,-7.598 88.755,-10.855 133.352,-13.773 48.254,-2.66 96.539,-4.768 144.825,-6.742 14.356,-1.052 28.602,-0.525 42.9,0.742 18.579,2.217 8.127,89.799 -10.452,87.581 l 0,0 c -9.723,-2.076 -19.7,-1.107 -29.575,-1.173 -47.319,1.176 -94.631,2.925 -141.886,5.674 -40.499,2.824 -81.196,5.721 -120.991,14.168 -18.345,3.855 -36.517,-82.622 -18.173,-86.477 z" id="path11129" inkscape:connector-curvature="0" style="fill:#c83737;fill-opacity:1;fill-rule:nonzero;stroke:#f9f9f9;stroke-width:0.1;stroke-miterlimit:4;stroke-dasharray:none" transform="translate(-10240, -38912)"/><path d="m 10690.868,39239.756 c 30.168,7.521 61.322,9.57 92.278,10.769 30.623,0.757 61.202,-1.74 91.764,0.774 18.591,1.862 9.815,89.5 -8.775,87.638 l 0,0 c -28.608,-3.856 -57.74,0.677 -86.472,-1.403 -37.39,-1.539 -74.838,-4.383 -111.492,-12.33 -18.126,-4.815 4.571,-90.263 22.697,-85.448 z" id="path11131" inkscape:connector-curvature="0" style="fill:#c83737;fill-opacity:1;fill-rule:nonzero;stroke:#f9f9f9;stroke-width:0.1;stroke-miterlimit:4;stroke-dasharray:none" transform="translate(-10240, -38912)"/><path d="m 10499.587,39384.187 c 47.976,-0.735 95.583,-8.153 142.967,-15.088 74.99,-11.629 149.728,-24.799 224.44,-38.073 51.377,-9.444 102.986,-17.487 154.826,-23.901 14.497,-1.873 29.086,-2.994 43.539,-5.204 18.589,-2.392 29.866,85.242 11.276,87.634 l 0,0 c -14.931,1.663 -29.919,2.691 -44.864,4.227 -50.274,5.303 -100.3,12.592 -150.084,21.392 -75.428,12.941 -150.832,26.034 -226.366,38.352 -52.091,8.122 -104.323,16.539 -157.053,19.054 -18.751,-0.28 -17.432,-88.673 1.319,-88.393 z" id="path11133" inkscape:connector-curvature="0" style="fill:#c83737;fill-opacity:1;fill-rule:nonzero;stroke:#f9f9f9;stroke-width:0.1;stroke-miterlimit:4;stroke-dasharray:none" transform="translate(-10240, -38912)"/><path d="m 10816.039,38969.404 c -4.393,40.914 -5.027,82.133 -5.545,123.242 -0.29,62.098 3.067,124.127 7.483,186.042 2.322,30.315 5.67,60.535 8.555,90.798 1.582,18.434 -85.316,25.893 -86.899,7.459 l 0,0 c -2.339,-30.807 -5.305,-61.56 -7.483,-92.38 -4.214,-64.127 -7.533,-128.34 -7.667,-192.623 0.173,-43.671 0.662,-87.369 3.458,-130.964 1.788,-18.689 89.885,-10.262 88.098,8.426 z" id="path11135" inkscape:connector-curvature="0" style="fill:#c83737;fill-opacity:1;fill-rule:nonzero;stroke:#f9f9f9;stroke-width:0.1;stroke-miterlimit:4;stroke-dasharray:none" transform="translate(-10240, -38912)"/><path d="m 10679.491,39546.226 c 12.593,34.943 19.373,71.569 26.673,107.878 7.901,40.623 16.034,81.201 24.43,121.724 2.365,12.034 5.114,23.981 8.106,35.871 4.223,18.205 -81.597,38.113 -85.821,19.908 l 0,0 c -2.756,-12.804 -5.41,-25.629 -7.802,-38.507 -7.981,-40.566 -16.002,-81.123 -24.066,-121.672 -6.35,-30.842 -11.908,-62.17 -23.344,-91.633 -7.121,-17.357 74.703,-50.926 81.824,-33.569 z" id="path11137" inkscape:connector-curvature="0" style="fill:#c83737;fill-opacity:1;fill-rule:nonzero;stroke:#f9f9f9;stroke-width:0.1;stroke-miterlimit:4;stroke-dasharray:none" transform="translate(-10240, -38912)"/><path d="m 10631.066,39533.696 c 25.31,-31.964 63.238,-45.434 100.932,-56.73 40.617,-10.199 81.582,-18.925 122.316,-28.652 31.524,-7.757 63.305,-14.393 95.493,-18.669 19.003,-1.756 40.323,-4.543 57.654,5.967 6.277,3.807 11.313,9.359 16.969,14.038 3.54,6.298 7.939,12.185 10.62,18.893 11.955,29.91 4.361,68.36 1.599,99.23 -5.357,55.3 -11.537,110.516 -18.017,165.694 -5.388,43.772 -10.808,87.539 -15.975,131.337 -0.944,18.645 -6.398,34.419 -14.951,50.752 -10.492,15.6 -84.028,-33.859 -73.536,-49.459 l 0,0 c -7.326,19.939 3.713,-9.525 1.661,-12.466 6.05,-43.384 11.845,-86.804 17.258,-130.272 6.443,-54.177 12.434,-108.413 17.031,-162.782 1.192,-15.614 1.924,-23.133 2.529,-38.284 0.256,-6.388 -0.621,-12.828 0.104,-19.18 0.04,-0.31 0.624,-0.02 0.936,-0.04 1.73,2.035 3.461,4.07 5.192,6.105 19.405,12.081 25.996,5.512 1.671,7.755 -29.08,3.22 -57.72,9.263 -86.157,16.066 -39.128,9.213 -78.436,17.66 -117.429,27.425 -18.383,5.486 -38.821,10.421 -53.253,23.876 -10.735,15.411 -83.382,-35.197 -72.647,-50.608 z" id="path11139" inkscape:connector-curvature="0" style="fill:#c83737;fill-opacity:1;fill-rule:nonzero;stroke:#f9f9f9;stroke-width:0.1;stroke-miterlimit:4;stroke-dasharray:none" transform="translate(-10240, -38912)"/><path d="m 10703.348,39607.895 c 31.038,-12.033 63.641,-19.028 96.274,-25.077 16.198,-2.945 32.549,-4.73 48.922,-6.307 18.535,-1.634 26.241,85.743 7.705,87.378 l 0,0 c -13.669,1.066 -27.313,2.381 -40.827,4.784 -26.169,4.775 -52.509,10.1 -77.1,20.556 -17.254,7.419 -52.228,-73.915 -34.974,-81.334 z" id="path11141" inkscape:connector-curvature="0" style="fill:#c83737;fill-opacity:1;fill-rule:nonzero;stroke:#f9f9f9;stroke-width:0.1;stroke-miterlimit:4;stroke-dasharray:none" transform="translate(-10240, -38912)"/><path d="m 10762.653,39707.62 c 29.952,4.731 60.583,2.186 90.76,1.419 28.865,-1.267 57.602,0.954 86.03,5.826 18.339,3.363 2.486,89.815 -15.853,86.452 l 0,0 c -22.401,-4.509 -45.168,-6.153 -68.023,-5.268 -39.526,0.952 -79.68,4.379 -118.68,-3.864 -17.939,-5.466 7.827,-90.031 25.766,-84.565 z" id="path11143" inkscape:connector-curvature="0" style="fill:#c83737;fill-opacity:1;fill-rule:nonzero;stroke:#f9f9f9;stroke-width:0.1;stroke-miterlimit:4;stroke-dasharray:none" transform="translate(-10240, -38912)"/></svg>