<?xml version="1.0" encoding="utf-8" ?>

<!DOCTYPE svg PUBLIC "-//W3C//DTD SVG 1.1//EN" 
  "http://www.w3.org/Graphics/SVG/1.1/DTD/svg11.dtd">
<svg 
	xmlns="http://www.w3.org/2000/svg"
	xmlns:xlink="http://www.w3.org/1999/xlink"
	width="1024" height="1024">
<path d="m 220.952,4261.5359 c 13.29219,29.8247 33.41868,55.8875 53.36949,81.4821 18.3682,21.8479 36.54889,43.7801 53.49096,66.7534 12.1997,16.8147 -67.06538,74.3246 -79.26508,57.5099 l 0,0 c -15.86391,-22.3373 -33.60897,-43.1636 -51.07087,-64.262 -25.29275,-32.345 -50.15985,-65.4214 -67.85355,-102.6887 -8.22958,-19.3738 83.09946,-58.1685 91.32905,-38.7947 z" id="path4295" inkscape:connector-curvature="0" style="fill:#aa0000;fill-opacity:1;fill-rule:nonzero;stroke:#f9f9f9;stroke-width:0.1;stroke-miterlimit:4;stroke-dasharray:none" transform="translate(0, -4096)"/><path d="m 197.70052,4505.3464 c 14.18027,20.6357 32.39056,38.1525 49.33718,56.482 15.81318,18.1709 8.0166,8.6402 23.30794,28.6589 12.53989,16.6449 -65.92496,75.7586 -78.46485,59.1136 l 0,0 c -10.31458,-13.9871 -4.7009,-6.921 -16.96562,-21.0986 -21.37626,-23.1258 -44.15911,-45.2396 -61.97625,-71.3572 -10.98817,-17.9806 73.77343,-69.7794 84.7616,-51.7987 z" id="path4297" inkscape:connector-curvature="0" style="fill:#aa0000;fill-opacity:1;fill-rule:nonzero;stroke:#f9f9f9;stroke-width:0.1;stroke-miterlimit:4;stroke-dasharray:none" transform="translate(0, -4096)"/><path d="m 108.74743,4910.01 c 29.85297,-36.2733 59.40528,-72.7853 89.59175,-108.7842 26.39302,-31.2159 53.92493,-61.43 81.26262,-91.812 13.81756,-15.2221 85.57531,49.9145 71.75775,65.1366 l 0,0 c -26.68552,29.1405 -53.4335,58.2358 -78.81562,88.5333 -29.83425,36.0083 -59.13883,72.4587 -87.17311,109.894 -13.35747,16.2543 -89.980863,-46.7134 -76.62339,-62.9677 z" id="path4299" inkscape:connector-curvature="0" style="fill:#aa0000;fill-opacity:1;fill-rule:nonzero;stroke:#f9f9f9;stroke-width:0.1;stroke-miterlimit:4;stroke-dasharray:none" transform="translate(0, -4096)"/><path d="m 540.98667,4225.9015 c -10.76753,20.892 -18.10856,43.3446 -25.40618,65.6228 -5.66765,18.0463 -12.86223,35.5033 -20.2038,52.9106 -8.079,19.1489 -98.34797,-18.9358 -90.26898,-38.0848 l 0,0 c 6.2653,-14.8434 12.29348,-29.7689 17.02246,-45.1929 8.94173,-27.7131 18.33443,-55.3757 30.9897,-81.6573 9.84326,-18.6393 97.71005,27.7622 87.8668,46.4016 z" id="path4301" inkscape:connector-curvature="0" style="fill:#aa0000;fill-opacity:1;fill-rule:nonzero;stroke:#f9f9f9;stroke-width:0.1;stroke-miterlimit:4;stroke-dasharray:none" transform="translate(0, -4096)"/><path d="m 399.66822,4411.1035 c 4.34082,29.1604 10.98667,57.8333 19.21145,86.1226 8.61531,26.3667 16.09342,53.3389 27.62269,78.6387 8.18122,19.3231 -82.90873,57.8897 -91.08995,38.5666 l 0,0 c -11.85344,-29.3526 -21.20189,-59.6372 -30.60408,-89.844 -8.79603,-30.2314 -16.16688,-60.7917 -22.09479,-91.7186 -4.61713,-20.5672 92.33755,-42.3325 96.95468,-21.7653 z" id="path4303" inkscape:connector-curvature="0" style="fill:#aa0000;fill-opacity:1;fill-rule:nonzero;stroke:#f9f9f9;stroke-width:0.1;stroke-miterlimit:4;stroke-dasharray:none" transform="translate(0, -4096)"/><path d="m 407.97085,4332.1859 c 33.50158,-4.0992 67.00952,-7.6782 100.72751,-9.3366 38.23562,-1.9998 75.81064,2.4491 111.73159,15.6148 31.63212,13.4634 52.1942,37.3318 64.83972,68.6015 6.49776,24.4288 7.93905,49.7503 7.31743,74.9088 -0.57911,14.5997 -4.15729,28.6036 -7.98897,42.595 -5.82823,20.1512 -100.82147,-7.3234 -94.99324,-27.4745 l 0,0 c 1.9497,-5.9502 3.62381,-11.948 4.18825,-18.2206 0.56758,-12.8688 -0.93448,-25.8133 -1.8191,-38.436 3.16202,-3.1505 -5.56216,-8.7469 -7.68411,-10.1353 -21.93176,-10.3418 -47.17493,-9.6864 -70.88343,-9.6447 -31.22878,1.4642 -62.27672,4.9005 -93.12031,10.0503 -20.89982,2.6124 -33.21516,-95.9103 -12.31534,-98.5227 z" id="path4305" inkscape:connector-curvature="0" style="fill:#aa0000;fill-opacity:1;fill-rule:nonzero;stroke:#f9f9f9;stroke-width:0.1;stroke-miterlimit:4;stroke-dasharray:none" transform="translate(0, -4096)"/><path d="m 413.11068,4451.1002 c 34.45137,-2.9479 69.01207,-4.1166 103.5794,-4.0767 22.9127,0.7047 11.69459,0.1174 33.65722,1.7061 20.81518,1.706 12.773,99.8297 -8.04218,98.1237 l 0,0 c -16.50074,-1.5703 -7.82448,-0.9403 -26.03739,-1.7673 -30.65207,-0.2441 -61.38847,0.5975 -91.80985,4.6475 -20.92329,2.4071 -32.27049,-96.2262 -11.3472,-98.6333 z" id="path4307" inkscape:connector-curvature="0" style="fill:#aa0000;fill-opacity:1;fill-rule:nonzero;stroke:#f9f9f9;stroke-width:0.1;stroke-miterlimit:4;stroke-dasharray:none" transform="translate(0, -4096)"/><path d="m 385.11568,4594.403 c 34.49885,-8.0885 69.17087,-15.258 104.10428,-21.1928 30.70885,-5.1372 61.56896,-9.3007 92.43189,-13.3854 3.08327,-0.4353 6.16653,-0.8705 9.24979,-1.3057 20.81751,-2.674 33.42295,95.4606 12.60544,98.1347 l 0,0 c -3.24958,0.3782 -6.49916,0.7564 -9.74874,1.1347 -29.4889,3.3758 -58.92663,7.2493 -88.23128,11.9776 -32.72697,5.4908 -65.28357,12.024 -97.24074,21.0567 -20.45372,4.9152 -43.62437,-91.5045 -23.17064,-96.4198 z" id="path4309" inkscape:connector-curvature="0" style="fill:#aa0000;fill-opacity:1;fill-rule:nonzero;stroke:#f9f9f9;stroke-width:0.1;stroke-miterlimit:4;stroke-dasharray:none" transform="translate(0, -4096)"/><path d="m 500.47278,4663.8697 c 16.74006,14.5983 36.70813,24.7175 55.87987,35.662 4.16935,2.6185 8.3387,5.2369 12.50804,7.8554 17.63517,11.2562 -35.42707,94.3892 -53.06223,83.133 l 0,0 c -2.8233,-1.8449 -5.6466,-3.6897 -8.4699,-5.5345 -25.13647,-14.4957 -50.85119,-28.3418 -73.15741,-47.1272 -15.69539,-14.0647 50.60624,-88.0534 66.30163,-73.9887 z" id="path4311" inkscape:connector-curvature="0" style="fill:#aa0000;fill-opacity:1;fill-rule:nonzero;stroke:#f9f9f9;stroke-width:0.1;stroke-miterlimit:4;stroke-dasharray:none" transform="translate(0, -4096)"/><path d="m 332.54762,4775.7231 c 35.4934,-10.6669 71.52189,-19.3658 107.62246,-27.689 44.44506,-10.2087 89.66016,-16.2556 134.85313,-21.9775 21.43194,-2.6586 11.29452,-1.4039 30.41202,-3.766 20.77928,-2.2627 31.44614,95.6917 10.66687,97.9545 l 0,0 c -18.38007,1.7201 -8.6041,0.751 -29.32347,2.9517 -41.76429,4.8101 -83.50542,10.3134 -124.48713,19.9194 -33.15781,7.7877 -66.38975,15.6458 -98.60812,26.8126 -19.98403,6.6049 -51.11979,-87.6008 -31.13576,-94.2057 z" id="path4317" inkscape:connector-curvature="0" style="fill:#aa0000;fill-opacity:1;fill-rule:nonzero;stroke:#f9f9f9;stroke-width:0.1;stroke-miterlimit:4;stroke-dasharray:none" transform="translate(0, -4096)"/><path d="m 441.04436,4868.2779 c 33.61132,-4.0224 67.3685,-6.3613 101.18078,-7.743 37.80632,-1.6988 75.41786,1.2518 112.46511,8.7205 32.53381,6.4736 60.66476,21.0403 84.90436,43.3553 25.44204,26.7805 30.90535,59.6296 26.12601,94.9489 -6.18836,31.7112 -25.23005,53.2174 -50.86229,71.1594 -17.72282,11.2161 -70.59598,-72.33 -52.87317,-83.5461 l 0,0 c 3.3285,0.3764 4.95666,-0.4984 6.19451,-4.224 1.3998,-2.7188 3.56019,-4.9249 2.20837,-7.6312 -7.93247,-11.2055 -23.62095,-13.9494 -35.8039,-17.7672 -29.00999,-6.3684 -58.62966,-8.3733 -88.31228,-7.1998 -30.78879,1.2912 -61.6112,3.2964 -92.0476,8.3372 -20.8759,2.7959 -34.05581,-95.6141 -13.1799,-98.41 z" id="path4319" inkscape:connector-curvature="0" style="fill:#aa0000;fill-opacity:1;fill-rule:nonzero;stroke:#f9f9f9;stroke-width:0.1;stroke-miterlimit:4;stroke-dasharray:none" transform="translate(0, -4096)"/><path d="m 520.83136,4806.7212 c -5.49736,41.1873 -15.88389,81.4624 -27.10951,121.3951 -13.62362,41.3688 -26.76174,82.7918 -35.38609,125.5167 -2.07099,10.908 -4.35507,21.77 -6.34977,32.6921 -4.16908,20.5947 -101.25369,0.9415 -97.08462,-19.6532 l 0,0 c 2.45572,-11.1825 5.11537,-22.3171 7.46355,-33.5236 9.9344,-44.4626 23.41946,-87.8706 37.62249,-131.1392 9.471,-34.356 18.5804,-69.0549 22.08689,-104.6193 1.97949,-20.9495 100.73654,-11.6182 98.75706,9.3314 z" id="path4321" inkscape:connector-curvature="0" style="fill:#aa0000;fill-opacity:1;fill-rule:nonzero;stroke:#f9f9f9;stroke-width:0.1;stroke-miterlimit:4;stroke-dasharray:none" transform="translate(0, -4096)"/><path d="m 818.71179,4270.0954 c -12.84417,37.9566 -22.60979,76.821 -32.18233,115.6982 -13.43142,53.6771 -25.33398,107.708 -37.0162,161.7861 -1.69452,7.5419 -3.38904,15.0838 -5.08357,22.6257 -4.66157,20.1487 -99.64345,-1.8262 -94.98188,-21.9749 l 0,0 c 1.71531,-7.1963 3.43062,-14.3927 5.14592,-21.5891 12.29814,-54.616 24.40802,-109.2751 37.61333,-163.6823 9.63466,-40.467 19.75064,-80.7994 31.27214,-120.7767 5.92124,-20.2018 101.15383,7.7112 95.23259,27.913 z" id="path4323" inkscape:connector-curvature="0" style="fill:#aa0000;fill-opacity:1;fill-rule:nonzero;stroke:#f9f9f9;stroke-width:0.1;stroke-miterlimit:4;stroke-dasharray:none" transform="translate(0, -4096)"/><path d="m 723.96722,4391.7674 c 39.28315,-11.6852 79.67907,-18.4602 120.27569,-23.4864 34.7397,-4.1194 69.71584,-3.8201 104.56888,-1.7812 20.92018,1.5211 13.74931,100.1398 -7.17088,98.6187 l 0,0 c -28.46257,-2.5636 -57.07982,-3.1199 -85.53614,0.096 -34.37909,4.1495 -68.77755,9.5727 -101.64527,20.8663 -20.00688,6.4683 -50.49916,-87.845 -30.49228,-94.3134 z" id="path4325" inkscape:connector-curvature="0" style="fill:#aa0000;fill-opacity:1;fill-rule:nonzero;stroke:#f9f9f9;stroke-width:0.1;stroke-miterlimit:4;stroke-dasharray:none" transform="translate(0, -4096)"/><path d="m 773.09677,4501.4639 c 5.47153,35.1084 19.51123,67.9273 34.00096,100.0891 26.81778,54.8049 59.37986,106.5561 91.73003,158.2073 30.53076,48.6816 65.65761,94.1982 101.27894,139.204 20.2143,25.0087 39.2174,51.0673 61.7861,74.0458 14.4488,15.1639 -57.0342,83.2765 -71.48307,68.1126 l 0,0 c -24.11845,-25.8808 -45.202,-54.2419 -66.82418,-82.2018 -37.2588,-48.0217 -74.09977,-96.4796 -106.43583,-148.0152 -34.61374,-55.289 -69.46219,-110.6597 -98.39678,-169.1974 -18.17055,-39.6778 -35.03179,-80.157 -43.4845,-123.1917 -3.61742,-20.7526 94.21092,-37.8052 97.82833,-17.0527 z" id="path4333" inkscape:connector-curvature="0" style="fill:#aa0000;fill-opacity:1;fill-rule:nonzero;stroke:#f9f9f9;stroke-width:0.1;stroke-miterlimit:4;stroke-dasharray:none" transform="translate(0, -4096)"/><path d="m 993.96601,4500.1398 c -18.78813,39.5322 -35.73278,79.9377 -53.31759,120.0203 -32.10271,72.631 -65.56248,144.647 -97.79129,217.2208 -22.82387,50.3076 -42.0721,102.0645 -56.81095,155.2879 -1.47886,7.6473 -4.18173,15.3154 -3.73783,23.2012 -1.75686,20.955 -100.53929,12.673 -98.78243,-8.2819 l 0,0 c 1.67818,-14.3633 4.04347,-28.5277 8.47517,-42.3599 17.38754,-56.9818 38.77317,-112.5807 63.60488,-166.7535 32.28686,-72.1139 65.44156,-143.8437 96.47591,-216.5125 17.76166,-41.9077 35.02088,-84.0262 52.9165,-125.8744 9.34483,-18.8728 98.31242,25.1791 88.96763,44.052 z" id="path4335" inkscape:connector-curvature="0" style="fill:#aa0000;fill-opacity:1;fill-rule:nonzero;stroke:#f9f9f9;stroke-width:0.1;stroke-miterlimit:4;stroke-dasharray:none" transform="translate(0, -4096)"/></svg>