<?xml version="1.0" encoding="utf-8" ?>

<!DOCTYPE svg PUBLIC "-//W3C//DTD SVG 1.1//EN" 
  "http://www.w3.org/Graphics/SVG/1.1/DTD/svg11.dtd">
<svg 
    xmlns="http://www.w3.org/2000/svg"
    xmlns:xlink="http://www.w3.org/1999/xlink"
    xmlns:sodipodi="http://sodipodi.sourceforge.net/DTD/sodipodi-0.dtd"
    xmlns:inkscape="http://www.inkscape.org/namespaces/inkscape"
    width="1024" height="1024" id="U6F14">
<path d="m 8404.8865,56568.24 c 14.4175,21.783 31.552,41.621 48.4444,61.494 9.4129,10.534 18.0024,21.694 26.3219,33.092 10.8204,15.198 -60.8216,66.206 -71.642,51.008 l 0,0 c -6.5891,-9.625 -13.7499,-18.788 -21.46,-27.556 -19.1932,-22.752 -38.5326,-45.455 -55.8503,-69.692 -10.2558,-15.737 63.9302,-64.083 74.186,-48.346 z" id="path12821" inkscape:connector-curvature="0" style="fill:#916f6f;fill-opacity:1;fill-rule:nonzero;stroke:#f9f9f9;stroke-width:0.1;stroke-miterlimit:4;stroke-dasharray:none" transform="translate(-8192, -56320)"/><path d="m 8346.1655,56773.214 c 8.2585,23.245 21.692,44.19 34.403,65.18 11.9289,18.725 22.5991,38.119 32.3637,58.04 8.0926,16.721 -70.7334,54.87 -78.826,38.149 l 0,0 c -8.3467,-17.547 -17.8597,-34.433 -28.2843,-50.841 -16.2834,-26.793 -32.8754,-53.68 -43.8119,-83.214 -5.7941,-17.852 78.3614,-45.166 84.1555,-27.314 z" id="path12823" inkscape:connector-curvature="0" style="fill:#916f6f;fill-opacity:1;fill-rule:nonzero;stroke:#f9f9f9;stroke-width:0.1;stroke-miterlimit:4;stroke-dasharray:none" transform="translate(-8192, -56320)"/><path d="m 8254.8559,57162.341 c 27.8308,-30.46 55.8966,-60.692 84.3728,-90.55 37.7551,-38.889 75.3309,-77.95 112.6334,-117.274 12.5549,-13.178 74.6784,46.006 62.1235,59.185 l 0,0 c -37.3833,39.071 -74.8864,78.028 -112.1494,117.215 -27.2516,29.151 -54.2489,58.562 -79.8882,89.154 -12.2464,14.232 -79.3385,-43.498 -67.0921,-57.73 z" id="path12825" inkscape:connector-curvature="0" style="fill:#916f6f;fill-opacity:1;fill-rule:nonzero;stroke:#f9f9f9;stroke-width:0.1;stroke-miterlimit:4;stroke-dasharray:none" transform="translate(-8192, -56320)"/><path d="m 8847.5861,56390.284 c 13.2134,15.812 27.4583,30.722 41.2132,46.059 12.4032,13.861 -52.9366,72.33 -65.3398,58.469 l 0,0 c -14.3939,-16.124 -29.2966,-31.773 -43.7873,-47.809 -12.032,-14.407 55.8819,-71.126 67.9139,-56.719 z" id="path12827" inkscape:connector-curvature="0" style="fill:#916f6f;fill-opacity:1;fill-rule:nonzero;stroke:#f9f9f9;stroke-width:0.1;stroke-miterlimit:4;stroke-dasharray:none" transform="translate(-8192, -56320)"/><path d="m 8669.0936,56564.02 c -8.0818,35.689 -18.1878,70.863 -28.571,105.936 -10.4036,35.818 -22.2868,71.253 -30.3442,107.702 -4.2632,18.106 -89.6157,-1.99 -85.3525,-20.096 l 0,0 c 9.3374,-37.768 21.5146,-74.728 32.4008,-112.064 9.5626,-32.849 19.1084,-65.799 25.2842,-99.487 3.8204,-18.367 90.403,-0.358 86.5827,18.009 z" id="path12829" inkscape:connector-curvature="0" style="fill:#916f6f;fill-opacity:1;fill-rule:nonzero;stroke:#f9f9f9;stroke-width:0.1;stroke-miterlimit:4;stroke-dasharray:none" transform="translate(-8192, -56320)"/><path d="m 8678.5754,56544.589 c 34.6628,-18.135 73.0194,-26.694 111.0817,-34.28 47.0378,-8.703 94.7022,-13.192 142.3752,-16.561 38.9963,-2.548 78.0687,-0.799 117.1032,-1.028 28.7812,-0.441 57.5122,-1.661 86.2799,-0.21 19.69,1.414 39.2535,4.162 58.2966,9.395 23.3722,6.305 35.6815,18.547 45.2041,40.7 5.301,19.697 -0.4907,37.629 -9.1714,55.195 -11.5938,21.615 -25.8263,41.664 -39.8949,61.707 -10.5855,15.246 -82.4561,-34.655 -71.8706,-49.901 l 0,0 c 11.407,-16.623 22.959,-33.241 32.4297,-51.074 4.8982,-9.861 0.1131,5.159 3.6308,10.289 4.0036,7.902 3.5873,8.821 10.3603,14.979 1.4034,1.276 12.9581,6.929 4.4868,3.065 -12.3621,-4.235 -25.6579,-4.962 -38.5232,-6.593 -26.9831,-1.818 -53.9815,-0.184 -80.9956,-0.188 -37.1226,-0.01 -74.2697,-1.817 -111.3691,0.264 -43.9441,2.945 -87.8953,6.936 -131.2217,15.105 -28.6706,5.825 -58.0302,11.75 -84.0296,25.748 -16.2517,9.37 -60.4239,-67.241 -44.1722,-76.612 z" id="path12831" inkscape:connector-curvature="0" style="fill:#916f6f;fill-opacity:1;fill-rule:nonzero;stroke:#f9f9f9;stroke-width:0.1;stroke-miterlimit:4;stroke-dasharray:none" transform="translate(-8192, -56320)"/><path d="m 8706.2994,56636.397 c 35.4743,-1.682 70.9756,-2.531 106.484,-3.009 41.221,-0.295 82.4433,-0.142 123.6437,1.238 26.619,0.928 53.2078,2.827 79.5517,6.803 2.8548,0.554 5.7097,1.108 8.5645,1.662 18.3593,3.831 0.3001,90.378 -18.0592,86.547 l 0,0 c -1.5279,-0.361 -3.0558,-0.721 -4.5837,-1.082 -22.6867,-4.002 -45.6927,-5.71 -68.6868,-6.779 -39.6838,-1.607 -79.4003,-1.838 -119.1132,-1.466 -33.7957,0.572 -67.6311,1.301 -101.3192,4.238 -18.6999,1.375 -25.1817,-86.777 -6.4818,-88.152 z" id="path12833" inkscape:connector-curvature="0" style="fill:#916f6f;fill-opacity:1;fill-rule:nonzero;stroke:#f9f9f9;stroke-width:0.1;stroke-miterlimit:4;stroke-dasharray:none" transform="translate(-8192, -56320)"/><path d="m 8720.3557,56836.041 c 2.5486,31.903 5.2393,63.791 8.3887,95.641 3.4838,33.296 7.8727,66.501 13.7582,99.46 0.7035,3.262 1.4069,6.525 2.1103,9.788 3.6819,18.286 -82.5172,35.642 -86.1991,17.357 l 0,0 c -0.7903,-4.156 -1.5806,-8.311 -2.3709,-12.467 -5.6669,-35.003 -10.2186,-70.177 -13.9728,-105.437 -3.2295,-31.706 -5.8733,-63.477 -9.6839,-95.12 -1.9564,-18.661 86.0131,-27.883 87.9695,-9.222 z" id="path12835" inkscape:connector-curvature="0" style="fill:#916f6f;fill-opacity:1;fill-rule:nonzero;stroke:#f9f9f9;stroke-width:0.1;stroke-miterlimit:4;stroke-dasharray:none" transform="translate(-8192, -56320)"/><path d="m 8675.7907,56808.733 c 37.0096,-14.884 75.8014,-24.37 114.739,-32.575 41.7162,-8.301 83.9482,-13.431 126.3223,-16.775 30.3059,-2.306 60.7096,-1.836 91.0451,-0.558 22.0718,0.327 43.3041,3.561 63.7056,11.991 30.3857,15.652 38.565,44.415 39.2873,76.311 -1.9104,34.295 -8.5936,68.1 -13.5255,102.046 -4.0605,28.232 -7.1806,56.613 -7.2352,85.155 0.1442,7.367 0.4555,14.719 0.5448,22.086 -0.053,18.775 -88.5556,18.527 -88.5029,-0.248 l 0,0 c 0.2014,-7.706 -0.1405,-15.404 0.02,-23.113 0.7812,-32.274 4.1903,-64.369 8.8695,-96.305 4.2109,-29.508 9.6104,-58.924 11.8,-88.669 0.3316,-14.04 2.9123,1.866 11.695,3.112 -5.9251,-4.417 -22.0146,-3.253 -30.7609,-4.594 -26.7711,-1.39 -53.6124,-2.001 -80.3847,-0.193 -38.5552,2.754 -77.0013,7.134 -114.946,14.663 -32.9248,6.972 -65.9353,14.807 -96.8334,28.468 -17.1407,7.603 -52.9803,-73.199 -35.8396,-80.802 z" id="path12837" inkscape:connector-curvature="0" style="fill:#916f6f;fill-opacity:1;fill-rule:nonzero;stroke:#f9f9f9;stroke-width:0.1;stroke-miterlimit:4;stroke-dasharray:none" transform="translate(-8192, -56320)"/><path d="m 8725.5178,56907.303 c 30.8944,-14.104 64.1157,-21.078 97.4207,-26.593 38.1415,-5.397 76.5838,-8.32 115.0518,-10.004 21.0003,-0.66 10.7794,-0.396 30.6624,-0.811 18.593,-0.274 19.8862,87.374 1.2931,87.649 l 0,0 c -18.4354,0.149 -8.9497,0 -28.4568,0.443 -34.8703,1.255 -69.7087,3.896 -104.2746,8.761 -24.9513,4.15 -50.1329,8.922 -73.0334,20.155 -16.8859,8.202 -55.549,-71.399 -38.6632,-79.6 z" id="path12839" inkscape:connector-curvature="0" style="fill:#916f6f;fill-opacity:1;fill-rule:nonzero;stroke:#f9f9f9;stroke-width:0.1;stroke-miterlimit:4;stroke-dasharray:none" transform="translate(-8192, -56320)"/><path d="m 8921.0987,56685.699 c -8.6205,34.173 -9.9375,69.767 -11.8651,104.807 -2.3868,55.301 -2.7668,110.663 -2.9607,166.007 -0.1784,18.034 0.2159,36.059 0.8424,54.079 0.4388,18.557 -87.0381,20.626 -87.477,2.069 l 0,0 c -0.2573,-18.958 -0.3359,-37.916 0.074,-56.875 0.7492,-56.547 1.3573,-113.105 3.3527,-169.625 1.9614,-42.509 3.5311,-85.512 13.6062,-127.041 5.6382,-17.91 90.0653,8.669 84.427,26.579 z" id="path12841" inkscape:connector-curvature="0" style="fill:#916f6f;fill-opacity:1;fill-rule:nonzero;stroke:#f9f9f9;stroke-width:0.1;stroke-miterlimit:4;stroke-dasharray:none" transform="translate(-8192, -56320)"/><path d="m 8667.6915,57040.172 c 34.6977,-14.822 71.9607,-21.669 108.9316,-28.054 42.5933,-7.352 85.7085,-10.3 128.8019,-12.727 21.1977,-0.978 42.3896,-2.273 63.3753,-5.499 18.5116,-2.558 30.5672,84.707 12.0555,87.264 l 0,0 c -23.5144,2.978 -47.156,4.504 -70.8425,5.329 -39.6301,1.941 -79.3042,4.291 -118.4491,11.188 -29.1027,5.145 -58.7621,10.177 -85.8768,22.448 -16.9599,8.061 -54.9559,-71.889 -37.9959,-79.949 z" id="path12843" inkscape:connector-curvature="0" style="fill:#916f6f;fill-opacity:1;fill-rule:nonzero;stroke:#f9f9f9;stroke-width:0.1;stroke-miterlimit:4;stroke-dasharray:none" transform="translate(-8192, -56320)"/><path d="m 8807.1693,57145.389 c -15.8392,20.343 -28.5186,42.833 -40.2893,65.695 -7.3084,15.197 -4.0183,7.884 -9.9742,21.894 -7.4876,17.055 -87.8835,-18.243 -80.3958,-35.297 l 0,0 c 7.979,-17.745 3.7604,-8.786 12.6905,-26.862 14.0848,-27.017 29.2315,-53.479 46.9952,-78.282 11.2118,-15.056 82.1854,37.797 70.9736,52.852 z" id="path12845" inkscape:connector-curvature="0" style="fill:#916f6f;fill-opacity:1;fill-rule:nonzero;stroke:#f9f9f9;stroke-width:0.1;stroke-miterlimit:4;stroke-dasharray:none" transform="translate(-8192, -56320)"/><path d="m 8990.494,57144.354 c 18.8694,18.718 39.3393,35.728 59.5507,52.958 17.2718,14.405 33.3406,30.096 48.5058,46.679 12.4938,13.901 -53.0331,72.797 -65.527,58.897 l 0,0 c -12.2839,-13.978 -25.5069,-27.046 -39.7982,-38.992 -21.4373,-18.312 -43.0138,-36.474 -63.8036,-55.526 -13.5798,-12.955 47.4926,-76.971 61.0723,-64.016 z" id="path12847" inkscape:connector-curvature="0" style="fill:#916f6f;fill-opacity:1;fill-rule:nonzero;stroke:#f9f9f9;stroke-width:0.1;stroke-miterlimit:4;stroke-dasharray:none" transform="translate(-8192, -56320)"/></svg>