<?xml version="1.0" encoding="utf-8" ?>

<!DOCTYPE svg PUBLIC "-//W3C//DTD SVG 1.1//EN" 
  "http://www.w3.org/Graphics/SVG/1.1/DTD/svg11.dtd">
<svg 
    xmlns="http://www.w3.org/2000/svg"
    xmlns:xlink="http://www.w3.org/1999/xlink"
    xmlns:sodipodi="http://sodipodi.sourceforge.net/DTD/sodipodi-0.dtd"
    xmlns:inkscape="http://www.inkscape.org/namespaces/inkscape"
    width="1024" height="1024" id="U6F02">
<path d="m 8384.9631,37096.284 c 11.1619,23.01 24.8659,44.666 38.3822,66.338 12.3585,18.061 22.4178,36.954 29.0825,57.774 5.1105,18.011 -79.7961,42.102 -84.9065,24.09 l 0,0 c -0.6838,-13.138 -13.9079,-24.087 -18.6405,-35.651 -15.011,-24.302 -30.0581,-48.613 -43.4624,-73.854 -8.2089,-16.874 71.3357,-55.571 79.5447,-38.697 z" id="path10384" inkscape:connector-curvature="0" style="fill:#c83737;fill-opacity:1;fill-rule:nonzero;stroke:#f9f9f9;stroke-width:0.1;stroke-miterlimit:4;stroke-dasharray:none" transform="translate(-8192, -36864)"/><path d="m 8351.9692,37347.287 c 2.6645,21.843 11.0673,42.329 18.9482,62.69 1.7807,4.673 3.5614,9.346 5.3422,14.018 6.6294,17.354 -75.178,48.606 -81.8074,31.252 l 0,0 c -1.7343,-4.529 -3.4685,-9.057 -5.2028,-13.586 -10.6018,-27.27 -20.9724,-54.819 -25.1464,-83.95 -2.2114,-18.639 85.6547,-29.064 87.8662,-10.424 z" id="path10386" inkscape:connector-curvature="0" style="fill:#c83737;fill-opacity:1;fill-rule:nonzero;stroke:#f9f9f9;stroke-width:0.1;stroke-miterlimit:4;stroke-dasharray:none" transform="translate(-8192, -36864)"/><path d="m 8251.1167,37726.865 c 14.8683,-34.08 36.0523,-64.797 57.3065,-95.113 31.3666,-43.654 66.04,-84.771 100.5208,-125.962 11.8446,-14.038 78.0181,41.798 66.1735,55.836 l 0,0 c -33.0553,38.86 -66.0895,77.848 -95.4939,119.596 -17.0375,24.768 -34.4893,49.747 -45.9849,77.691 -6.7982,17.505 -89.3202,-14.542 -82.522,-32.048 z" id="path10388" inkscape:connector-curvature="0" style="fill:#c83737;fill-opacity:1;fill-rule:nonzero;stroke:#f9f9f9;stroke-width:0.1;stroke-miterlimit:4;stroke-dasharray:none" transform="translate(-8192, -36864)"/><path d="m 8514.7191,36960.986 c 49.8146,-7.574 99.9239,-12.657 150.1224,-16.819 61.7671,-4.771 123.6892,-6.907 185.6227,-7.665 37.7094,-0.142 75.4114,0.797 113.1068,-0.534 8.6162,-0.481 17.2332,-0.867 25.8599,-1.075 18.7817,0 18.7445,88.546 -0.037,88.538 l 0,0 c -7.8685,-0.32 -15.7317,0.02 -23.6015,0.226 -38.2104,0.624 -76.4002,-0.529 -114.6091,-0.791 -59.7318,0.254 -119.4731,1.908 -179.0295,6.746 -47.7947,4.223 -95.6075,9.131 -142.7244,18.458 -18.4733,3.12 -33.1834,-83.964 -14.7101,-87.084 z" id="path10390" inkscape:connector-curvature="0" style="fill:#c83737;fill-opacity:1;fill-rule:nonzero;stroke:#f9f9f9;stroke-width:0.1;stroke-miterlimit:4;stroke-dasharray:none" transform="translate(-8192, -36864)"/><path d="m 8552.1437,37124.147 c 3.0944,27.901 12.8145,54.506 22.3007,80.746 10.0398,26.422 21.5457,52.309 35.1109,77.114 3.8604,5.795 1.8642,3.915 5.0387,6.502 11.7131,14.633 -57.2698,69.85 -68.983,55.216 l 0,0 c -9.8885,-13.245 -5.3261,-6.424 -13.7113,-20.448 -14.9389,-28.753 -28.0904,-58.413 -39.4333,-88.771 -11.9488,-33.101 -23.5546,-66.619 -28.412,-101.629 -1.8519,-18.687 86.2375,-27.417 88.0893,-8.73 z" id="path10392" inkscape:connector-curvature="0" style="fill:#c83737;fill-opacity:1;fill-rule:nonzero;stroke:#f9f9f9;stroke-width:0.1;stroke-miterlimit:4;stroke-dasharray:none" transform="translate(-8192, -36864)"/><path d="m 8529.147,37104.648 c 32.4957,-20.838 70.451,-29.438 107.6934,-37.404 46.643,-8.919 93.6673,-15.709 140.8196,-21.264 42.6358,-4.822 85.5404,-6.358 128.4112,-5.298 24.6078,0.872 49.1985,3.044 73.1476,8.895 29.1861,7.763 44.8914,29.331 53.2563,56.992 5.7259,30.92 3.002,62.599 0.6778,93.731 -2.9142,33.561 -6.9668,67.046 -14.0101,100.004 -2.7505,15.391 -9.9944,27.851 -18.2571,40.787 -11.1286,15.082 -82.2257,-37.379 -71.0971,-52.461 l 0,0 c -0.1548,0.845 -1.293,2.762 -0.4646,2.535 3.4823,-0.955 0.4806,-10.851 4.1227,-10.018 6.7834,-28.601 10.0113,-57.892 12.5848,-87.137 1.494,-21.523 3.0188,-43.185 1.0613,-64.733 0.013,0 13.0305,9.658 9.6608,5.776 -17.1688,-5.373 -35.6444,-5.392 -53.3902,-7.034 -38.5795,-1.477 -77.2174,-0.228 -115.6078,4.034 -44.4094,5.185 -88.6848,11.651 -132.5858,20.173 -25.3854,5.529 -51.9619,10.627 -74.4285,24.342 -15.2564,10.944 -66.8507,-60.975 -51.5943,-71.92 z" id="path10398" inkscape:connector-curvature="0" style="fill:#c83737;fill-opacity:1;fill-rule:nonzero;stroke:#f9f9f9;stroke-width:0.1;stroke-miterlimit:4;stroke-dasharray:none" transform="translate(-8192, -36864)"/><path d="m 8688.0192,37023.427 c -2.7978,31.959 0.1309,64.08 3.4267,95.88 3.7544,17.242 5.4999,64.444 20.2367,76.078 -0.73,-1.486 -1.46,-2.972 -2.19,-4.458 14.8198,11.415 -38.9894,81.276 -53.8093,69.861 l 0,0 c -5.4403,-5.114 -10.8806,-10.228 -16.321,-15.342 -22.8375,-36.518 -29.584,-74.757 -34.3032,-117.142 -3.9392,-37.663 -7.1789,-75.555 -5.1338,-113.453 1.8192,-18.687 89.9131,-10.112 88.0939,8.576 z" id="path10424" inkscape:connector-curvature="0" style="fill:#c83737;fill-opacity:1;fill-rule:nonzero;stroke:#f9f9f9;stroke-width:0.1;stroke-miterlimit:4;stroke-dasharray:none" transform="translate(-8192, -36864)"/><path d="m 8861.2321,37000.447 c 4.8213,37.189 6.3635,74.695 8.0127,112.127 1.6614,47.378 3.2436,94.754 7.0357,142.018 1.6196,21.009 4.5476,41.88 6.76,62.826 1.6676,18.66 -86.294,26.521 -87.9615,7.861 l 0,0 c -1.495,-21.444 -4.2511,-42.784 -5.5455,-64.247 -3.2985,-48.058 -4.8113,-96.194 -6.8078,-144.318 -1.7527,-33.842 -3.1826,-67.853 -8.7399,-101.333 -3.168,-18.507 84.0783,-33.441 87.2463,-14.934 z" id="path10438" inkscape:connector-curvature="0" style="fill:#c83737;fill-opacity:1;fill-rule:nonzero;stroke:#f9f9f9;stroke-width:0.1;stroke-miterlimit:4;stroke-dasharray:none" transform="translate(-8192, -36864)"/><path d="m 8563.2273,37255.163 c 37.7732,-2.639 75.4456,-6.649 113.1377,-10.255 47.1093,-4.393 94.1524,-9.529 141.4261,-11.768 25.7766,0.483 55.6603,-1.805 78.753,12.421 5.4498,3.357 10.0511,7.928 15.0766,11.892 13.244,13.326 -49.5731,75.759 -62.8171,62.433 l 0,0 c 2.5684,1.492 5.0017,3.245 7.7051,4.476 0.5694,0.259 2.3191,0.323 1.8734,-0.116 -6.3467,-6.25 -29.541,-2.563 -37.0392,-4.059 -45.6462,1.524 -91.0578,6.466 -136.5011,10.82 -38.86,3.935 -77.6846,8.173 -116.5049,12.478 -18.736,1.084 -23.8455,-87.238 -5.1096,-88.322 z" id="path10440" inkscape:connector-curvature="0" style="fill:#c83737;fill-opacity:1;fill-rule:nonzero;stroke:#f9f9f9;stroke-width:0.1;stroke-miterlimit:4;stroke-dasharray:none" transform="translate(-8192, -36864)"/><path d="m 8603.7126,37438.694 c 36.7414,-13.024 75.0318,-20.668 113.273,-27.724 41.2408,-7.033 82.8059,-11.999 124.3778,-16.603 17.5133,-2.851 34.2418,-2.495 51.5578,0.748 18.0628,5.263 -6.7474,90.413 -24.8103,85.15 l 0,0 c 21.7148,1.433 -17.9408,-1.571 -17.7961,1.075 -39.2939,3.718 -78.5483,8.252 -117.4531,14.972 -32.7448,6.146 -65.7637,12.449 -96.8862,24.685 -17.4592,6.844 -49.7221,-75.459 -32.2629,-82.303 z" id="path10442" inkscape:connector-curvature="0" style="fill:#c83737;fill-opacity:1;fill-rule:nonzero;stroke:#f9f9f9;stroke-width:0.1;stroke-miterlimit:4;stroke-dasharray:none" transform="translate(-8192, -36864)"/><path d="m 8547.2006,37557.646 c 37.9578,-6.571 75.9175,-13.084 113.9852,-18.996 52.3451,-8.214 105.1177,-12.825 157.9813,-15.912 39.7265,-2.255 79.5167,-1.773 119.258,-0.356 14.7299,-0.04 28.7298,2.094 42.778,6.247 17.5077,6.948 -15.2451,89.48 -32.7528,82.532 l 0,0 c 17.0339,3.44 -12.3057,-2.589 -13.9324,-1.188 -36.7908,-1.996 -73.6539,-2.79 -110.473,-0.851 -49.9843,2.721 -99.8801,7.02 -149.3281,15.041 -37.3352,6.022 -74.6154,12.436 -111.5847,20.443 -18.4469,3.379 -34.3784,-83.58 -15.9315,-86.96 z" id="path10448" inkscape:connector-curvature="0" style="fill:#c83737;fill-opacity:1;fill-rule:nonzero;stroke:#f9f9f9;stroke-width:0.1;stroke-miterlimit:4;stroke-dasharray:none" transform="translate(-8192, -36864)"/><path d="m 8853.1909,37590.844 c -7.7545,28.579 -12.6863,57.821 -17.6152,86.989 -6.0695,36.856 -10.924,73.896 -15.8589,110.917 -2.1003,18.643 -5.2484,37.05 -9.9697,55.196 -5.0512,18.002 -89.9155,-5.809 -84.8643,-23.812 l 0,0 c 4.5382,-14.017 6.1265,-28.701 8.3193,-43.222 5.3088,-37.823 10.3543,-75.687 16.4088,-113.4 5.2239,-31.795 10.708,-63.563 17.9764,-94.968 4.7305,-18.159 90.3341,4.141 85.6036,22.3 z" id="path10450" inkscape:connector-curvature="0" style="fill:#c83737;fill-opacity:1;fill-rule:nonzero;stroke:#f9f9f9;stroke-width:0.1;stroke-miterlimit:4;stroke-dasharray:none" transform="translate(-8192, -36864)"/><path d="m 8696.1534,37724.006 c -18.6582,16.189 -33.1092,36.455 -47.2195,56.547 -6.6191,13.613 -20.9285,25.816 -23.7178,41.215 -6.5485,17.557 -89.314,-13.313 -82.7656,-30.87 l 0,0 c 8.9564,-21.741 21.5373,-41.447 35.0159,-60.68 18.7041,-26.491 38.1564,-52.736 62.4087,-74.496 14.4853,-11.939 70.7635,56.345 56.2783,68.284 z" id="path10452" inkscape:connector-curvature="0" style="fill:#c83737;fill-opacity:1;fill-rule:nonzero;stroke:#f9f9f9;stroke-width:0.1;stroke-miterlimit:4;stroke-dasharray:none" transform="translate(-8192, -36864)"/><path d="m 8895.1242,37667.083 c 22.0742,10.738 44.6868,20.242 67.4825,29.32 29.1931,10.524 57.8917,22.178 85.2009,36.948 3.9083,2.408 7.8166,4.816 11.7249,7.224 15.7666,9.975 -31.2553,84.299 -47.0219,74.324 l 0,0 c -2.3754,-1.567 -4.7509,-3.134 -7.1263,-4.702 -23.7685,-13.52 -49.4413,-22.917 -75.0331,-32.375 -23.9198,-9.43 -47.5582,-19.484 -71.1129,-29.787 -17.1725,-7.612 18.7134,-88.564 35.8859,-80.952 z" id="path10458" inkscape:connector-curvature="0" style="fill:#c83737;fill-opacity:1;fill-rule:nonzero;stroke:#f9f9f9;stroke-width:0.1;stroke-miterlimit:4;stroke-dasharray:none" transform="translate(-8192, -36864)"/></svg>