<?xml version="1.0" encoding="utf-8" ?>

<!DOCTYPE svg PUBLIC "-//W3C//DTD SVG 1.1//EN" 
  "http://www.w3.org/Graphics/SVG/1.1/DTD/svg11.dtd">
<svg 
    xmlns="http://www.w3.org/2000/svg"
    xmlns:xlink="http://www.w3.org/1999/xlink"
    xmlns:sodipodi="http://sodipodi.sourceforge.net/DTD/sodipodi-0.dtd"
    xmlns:inkscape="http://www.inkscape.org/namespaces/inkscape"
    width="1024" height="1024" id="U70BC">
<path d="m 11431.637,30086.631 c 6.927,22.798 13.53,45.684 20.951,68.33 6.665,14.214 9.011,33.018 20.257,44.766 -0.04,-0.361 -0.07,-0.722 -0.109,-1.083 13.345,13.184 -48.805,76.095 -62.15,62.911 l 0,0 c -3.179,-3.465 -6.358,-6.931 -9.537,-10.396 -14.289,-21.201 -24.089,-44.654 -31.944,-68.953 -7.229,-22.233 -13.625,-44.729 -21.225,-66.835 -6.097,-17.767 77.66,-46.507 83.757,-28.74 z" id="path9798" inkscape:connector-curvature="0" style="fill:#2b0000;fill-opacity:1;fill-rule:nonzero;stroke:#f9f9f9;stroke-width:0.1;stroke-miterlimit:4;stroke-dasharray:none" transform="translate(-11264, -29696)"/><path d="m 11681.394,30089.262 c -16.182,31.228 -29.981,63.632 -43.517,96.073 -12.837,30.67 -23.892,62.03 -34.788,93.426 -1.019,2.895 -2.037,5.79 -3.056,8.684 -6.449,17.564 -89.242,-12.836 -82.794,-30.399 l 0,0 c 1.034,-2.695 2.068,-5.39 3.101,-8.084 12.119,-32.458 23.933,-65.042 37.313,-97.011 14.515,-34.967 29.452,-69.771 45.598,-104.021 8.768,-16.577 86.911,24.755 78.143,41.332 z" id="path9800" inkscape:connector-curvature="0" style="fill:#2b0000;fill-opacity:1;fill-rule:nonzero;stroke:#f9f9f9;stroke-width:0.1;stroke-miterlimit:4;stroke-dasharray:none" transform="translate(-11264, -29696)"/><path d="m 11551.444,29915.597 c -3.854,30.431 -3.129,61.284 -3.498,91.904 -0.423,62.512 -5.153,124.853 -10.599,187.091 -6.117,61.431 -12.202,122.857 -16.944,184.411 -3.016,40.998 -4.655,82.091 -9.3,122.951 -2.687,17.684 -1.143,9.136 -4.555,25.66 -4.057,18.246 -90.068,-0.878 -86.011,-19.124 l 0,0 c 2.595,-10.41 1.336,-4.686 3.58,-17.216 5.282,-39.541 6.926,-79.428 10.286,-119.156 5.125,-61.724 11.423,-123.332 17.535,-184.964 5.193,-59.922 9.655,-119.961 9.313,-180.155 -0.02,-35.092 -1.089,-70.351 2.741,-105.296 2.947,-18.551 90.399,-4.657 87.452,13.894 z" id="path9802" inkscape:connector-curvature="0" style="fill:#2b0000;fill-opacity:1;fill-rule:nonzero;stroke:#f9f9f9;stroke-width:0.1;stroke-miterlimit:4;stroke-dasharray:none" transform="translate(-11264, -29696)"/><path d="m 11547.26,30321.677 c 28.253,14.975 56.903,29.171 85.143,44.175 36.18,19.194 69.824,42.536 102.326,67.338 18.49,13.986 35.538,29.691 52.848,45.069 0.626,0.463 1.252,0.927 1.878,1.391 14.391,12.113 -42.715,79.954 -57.106,67.84 l 0,0 c -1.542,-1.362 -3.085,-2.724 -4.627,-4.085 -14.961,-14.184 -29.994,-28.321 -46.308,-40.97 -28.384,-22.076 -57.825,-42.83 -89.707,-59.622 -28.334,-14.907 -57.051,-29.041 -85.902,-42.919 -16.592,-8.794 24.863,-87.011 41.455,-78.217 z" id="path9804" inkscape:connector-curvature="0" style="fill:#2b0000;fill-opacity:1;fill-rule:nonzero;stroke:#f9f9f9;stroke-width:0.1;stroke-miterlimit:4;stroke-dasharray:none" transform="translate(-11264, -29696)"/><path d="m 11729.777,29938.447 c 30.495,3.172 61.192,2.039 91.735,0.39 48.295,-3.881 96.604,-7.267 145.01,-9.362 40.556,-1.56 81.137,-2.225 121.721,-2.089 19.349,0.226 38.699,0.462 58.049,0.619 0.797,-0.05 1.595,-0.09 2.393,-0.141 0.175,-0.05 0.351,-0.101 0.526,-0.152 18.818,-1.098 23.996,87.61 5.178,88.708 l 0,0 c -6.241,0.192 -2.915,0.14 -9.978,0.114 -18.987,-0.654 -37.978,-1.214 -56.971,-1.671 -39.095,-0.598 -78.197,-0.195 -117.274,1.202 -47.977,1.959 -95.842,5.377 -143.678,9.527 -34.846,2.104 -69.776,3.353 -104.654,1.031 -18.705,-1.686 -10.761,-89.861 7.943,-88.176 z" id="path9834" inkscape:connector-curvature="0" style="fill:#2b0000;fill-opacity:1;fill-rule:nonzero;stroke:#f9f9f9;stroke-width:0.1;stroke-miterlimit:4;stroke-dasharray:none" transform="translate(-11264, -29696)"/><path d="m 11921.082,29888.713 c -7.561,38.5 -19.393,75.982 -31.015,113.401 -16.12,51.016 -32.193,102.044 -47.014,153.454 -7.143,27.913 -16.149,55.592 -19.932,84.239 -0.875,5.297 -0,10.059 1.759,14.96 1.219,2.866 1.889,6.228 3.889,8.676 -1.059,-6.819 -20.832,-12.729 -11.09,-12.465 24.995,-0.213 49.887,-3.038 74.747,-5.389 36.645,-3.349 73.264,-6.963 109.881,-10.606 30.827,-3.517 61.818,-4.217 92.808,-4.063 9.084,0.06 18.619,0.21 27.496,-0.859 18.754,-1.948 27.939,86.461 9.184,88.41 l 0,0 c -12.576,0.957 -25.219,0.854 -37.817,0.459 -27.737,-0.59 -55.485,-0.35 -83.093,2.84 -36.668,3.6 -73.328,7.279 -110.004,10.793 -29.272,2.922 -58.58,6.559 -88.035,6.647 -23.837,-1.501 -46.114,-7.75 -59.652,-29.172 -5.585,-9.387 -10.143,-19.268 -13.233,-29.773 -5.015,-17.589 -6.942,-35.574 -3.964,-53.775 5.374,-32.351 15.033,-63.757 23.91,-95.277 15.35,-51.609 31.617,-102.935 47.425,-154.405 10.029,-33.323 20.459,-66.732 26.237,-101.113 2.762,-18.564 90.275,-5.546 87.513,13.018 z" id="path9846" inkscape:connector-curvature="0" style="fill:#2b0000;fill-opacity:1;fill-rule:nonzero;stroke:#f9f9f9;stroke-width:0.1;stroke-miterlimit:4;stroke-dasharray:none" transform="translate(-11264, -29696)"/><path d="m 11704.015,30081.237 c 29.932,3.144 60.115,0.995 90.041,-1.081 37.01,-3.156 73.906,-7.459 110.915,-10.613 21.713,-1.978 43.374,-2.66 64.796,1.673 31.442,8.914 43.087,35.232 44.393,65.432 -0.92,26.68 -3.018,53.282 -3.771,79.976 -0.799,35.356 0.9,70.698 3.058,105.976 2.739,38.094 3.886,76.252 4.09,114.435 -0.117,29.709 -0.301,59.415 1.075,89.099 0.625,14.818 2.384,29.523 5.038,44.102 -0.01,3.465 5.152,23.292 0.862,8.095 7.154,17.463 -75.168,51.187 -82.322,33.724 l 0,0 c -2.845,-8.867 -4.725,-17.686 -5.82,-26.931 -2.969,-18.343 -4.883,-36.826 -5.523,-55.406 -1.108,-30.763 -0.81,-61.536 -0.593,-92.313 -0.113,-36.53 -1.107,-73.038 -3.833,-109.478 -2.315,-37.781 -4.104,-75.624 -3.435,-113.49 0.555,-25.112 1.994,-50.175 2.819,-75.273 0.03,-0.78 -0.567,-1.945 0.106,-2.339 0.189,-0.11 1.638,4.762 4.437,8.309 4.834,6.128 10.739,10.862 18.527,12.189 -8.906,-2.847 -25.869,-0.527 -37.039,-0.435 -37.251,2.664 -74.373,6.735 -111.57,10.039 -35.832,2.637 -71.859,5.013 -107.755,2.031 -18.609,-2.44 -7.104,-90.162 11.504,-87.721 z" id="path9848" inkscape:connector-curvature="0" style="fill:#2b0000;fill-opacity:1;fill-rule:nonzero;stroke:#f9f9f9;stroke-width:0.1;stroke-miterlimit:4;stroke-dasharray:none" transform="translate(-11264, -29696)"/><path d="m 11934.691,30418.998 c -15.053,20.661 -27.254,43.177 -38.327,66.16 -7.215,16.849 -15.6,33.946 -17.793,52.366 0.111,0.378 0.222,0.756 0.332,1.134 -0.91,18.743 -89.268,14.45 -88.357,-4.294 l 0,0 c 0.316,-3.847 0.632,-7.695 0.948,-11.542 4.978,-26.461 14.39,-51.651 26.098,-75.878 13.025,-26.699 27.237,-52.812 43.825,-77.493 10.511,-15.544 83.785,34.003 73.274,49.547 z" id="path9850" inkscape:connector-curvature="0" style="fill:#2b0000;fill-opacity:1;fill-rule:nonzero;stroke:#f9f9f9;stroke-width:0.1;stroke-miterlimit:4;stroke-dasharray:none" transform="translate(-11264, -29696)"/><path d="m 12136.957,30381.595 c 13.61,18.134 29.386,34.561 44.849,51.11 9.882,10.489 20.151,20.6 30.28,30.847 13.046,13.405 -50.144,74.904 -63.19,61.5 l 0,0 c -10.397,-10.862 -21.001,-21.525 -31.271,-32.51 -17.937,-19.279 -36.098,-38.438 -52.441,-59.11 -10.996,-15.226 60.777,-67.062 71.773,-51.837 z" id="path9852" inkscape:connector-curvature="0" style="fill:#2b0000;fill-opacity:1;fill-rule:nonzero;stroke:#f9f9f9;stroke-width:0.1;stroke-miterlimit:4;stroke-dasharray:none" transform="translate(-11264, -29696)"/></svg>