<?xml version="1.0" encoding="UTF-8" standalone="no"?>
<svg
   xmlns:dc="http://purl.org/dc/elements/1.1/"
   xmlns:cc="http://creativecommons.org/ns#"
   xmlns:rdf="http://www.w3.org/1999/02/22-rdf-syntax-ns#"
   xmlns:svg="http://www.w3.org/2000/svg"
   xmlns="http://www.w3.org/2000/svg"
   xmlns:sodipodi="http://sodipodi.sourceforge.net/DTD/sodipodi-0.dtd"
   xmlns:inkscape="http://www.inkscape.org/namespaces/inkscape"
   width="1024"
   height="1024"
   id="U70B9"
   version="1.1"
   inkscape:version="0.48.0 r9654"
   sodipodi:docname="U+70B9.svg">
  <metadata
     id="metadata16">
    <rdf:RDF>
      <cc:Work
         rdf:about="">
        <dc:format>image/svg+xml</dc:format>
        <dc:type
           rdf:resource="http://purl.org/dc/dcmitype/StillImage" />
      </cc:Work>
    </rdf:RDF>
  </metadata>
  <defs
     id="defs14" />
  <sodipodi:namedview
     pagecolor="#ffffff"
     bordercolor="#666666"
     borderopacity="1"
     objecttolerance="10"
     gridtolerance="10"
     guidetolerance="10"
     inkscape:pageopacity="0"
     inkscape:pageshadow="2"
     inkscape:window-width="640"
     inkscape:window-height="480"
     id="namedview12"
     showgrid="false"
     inkscape:zoom="0.27441406"
     inkscape:cx="512"
     inkscape:cy="512"
     inkscape:window-x="0"
     inkscape:window-y="25"
     inkscape:window-maximized="0"
     inkscape:current-layer="U70B9" />
  <path
     style="fill:#550000;fill-opacity:1;fill-rule:nonzero;stroke:#f9f9f9;stroke-width:0.1;stroke-miterlimit:4;stroke-dasharray:none"
     d="M 420.65625 139.4375 C 406.91833 139.2903 396.02802 141.84342 395.03125 148.15625 C 390.67925 187.73315 392.7815 227.6046 394.875 267.25 C 396.74748 296.5014 399.29654 325.71858 403.03125 354.78125 C 367.9304 362.18377 333.0912 371.5565 301.28125 388.53125 C 294.84717 392.43981 298.49586 407.07654 306.15625 422.4375 C 280.94699 420.73617 249.80361 425.74908 250 436.84375 C 251.3346 470.99635 255.1568 504.95255 259.875 538.78125 C 265.4253 574.66925 271.9743 610.57195 283.8125 644.96875 C 285.8707 649.26425 287.91065 653.54815 289.96875 657.84375 C 291.85956 661.43073 297.0319 662.27886 303.875 661.25 C 303.33798 687.19662 311.06065 721.56466 322.75 720.40625 C 365.4359 713.58815 407.9362 705.65495 450.5625 698.46875 C 502.0012 689.75645 553.7311 682.9779 605.8125 679.8125 C 617.7263 679.6619 624.9405 679.234 636.5 680.1875 C 639.23813 680.41334 641.63495 680.72207 643.65625 681.0625 C 640.97004 679.0638 637.7221 676.26152 634.40625 673.46875 C 651.37187 680.49734 715.44163 640.60904 706.5625 625.8125 C 705.0763 624.25843 703.63748 622.62962 702.21875 621 C 711.53173 600.46767 720.2089 579.65315 727.28125 558.21875 C 738.89115 523.42225 750.3595 487.8596 748.75 450.6875 C 743.6531 412.2729 730.058 385.2568 695.5625 365.25 C 660.2936 348.1245 622.4068 340.2422 583.1875 339.125 C 551.46771 338.4351 519.75098 339.2858 488.1875 342.0625 C 487.47415 336.86036 486.80319 331.65273 486.1875 326.4375 C 510.0387 314.39423 535.89123 306.81206 561.4375 299.28125 C 577.5414 294.91215 593.67635 290.40665 610.28125 288.46875 C 628.57195 285.72945 615.6656 199.5107 597.375 202.25 C 576.9391 205.6951 556.8247 210.5842 536.9375 216.4375 C 517.63997 222.15719 498.24871 227.94708 479.3125 234.875 C 478.38292 210.47023 478.27709 186.01419 481.625 161.8125 C 483.52793 149.76073 446.8832 139.71852 420.65625 139.4375 z M 643.65625 681.0625 C 646.91882 683.49004 649.34527 684.6839 650 682.96875 C 650.16057 682.54801 647.73186 681.74893 643.65625 681.0625 z M 554.71875 424.65625 C 563.45807 424.63474 572.19539 424.75281 580.9375 425.03125 C 606.7384 426.84605 633.23595 429.8462 656.09375 442.75 C 662.86465 447.3929 662.03785 452.6414 662.15625 460 C 660.99815 484.4525 652.9199 507.8512 645.25 530.875 C 638.7163 550.7242 630.56145 569.93505 621.71875 588.84375 C 621.05009 590.28896 621.03644 591.89998 621.5625 593.59375 C 613.77131 593.80998 606.39824 594.09555 600 594 C 545.2479 598.0808 490.81855 605.3418 436.65625 614.3125 C 413.05567 618.13459 389.47112 622.20029 365.84375 625.90625 C 367.92061 622.60421 368.58515 619.56737 367.28125 617.09375 C 366.73545 616.44935 366.1709 615.80075 365.625 615.15625 C 354.3963 587.06655 350.46565 556.56895 345.21875 526.96875 C 342.29946 505.67198 339.75758 484.30608 338.5 462.84375 C 341.67554 464.4396 344.53358 464.77166 346.78125 463.40625 C 376.08805 447.51955 409.26275 440.8388 441.65625 434.4375 C 479.02012 427.75526 516.84836 424.74945 554.71875 424.65625 z M 252.9375 755.53125 C 248.81383 755.67119 245.81892 756.88064 244.5 759.46875 C 231.9691 784.98755 223.6418 812.16825 216.75 839.65625 C 213.5473 852.93425 211.3215 866.396 209.1875 879.875 C 206.4158 898.141 292.50945 911.2035 295.28125 892.9375 C 296.83795 882.0875 298.51145 871.2415 301.03125 860.5625 C 306.19715 839.4905 312.2532 818.50225 322.5625 799.28125 C 329.68476 785.3058 275.2053 754.77558 252.9375 755.53125 z M 778.03125 758.53125 C 753.26569 758.18128 703.56688 778.07562 708.15625 791.84375 C 718.25935 819.42775 733.2022 844.806 748.5 869.75 C 750.9089 873.524 753.30985 877.2885 755.71875 881.0625 C 765.68735 896.5805 838.8437 849.5805 828.875 834.0625 L 822.4375 824.125 C 810.5487 804.994 798.48535 785.61155 791.21875 764.15625 C 789.93373 760.30113 784.96561 758.62924 778.03125 758.53125 z M 646.75 767 C 621.1392 766.89124 574.60658 783.4443 578.34375 796.875 C 586.47725 824.834 599.42245 850.8175 614.34375 875.6875 C 616.89065 879.5075 619.42195 883.306 621.96875 887.125 C 632.33845 902.405 704.3697 853.53 694 838.25 C 692.2046 835.671 690.4205 833.11025 688.625 830.53125 C 677.5653 812.66625 667.8699 793.92825 662.75 773.40625 C 661.50425 768.9294 655.28693 767.03625 646.75 767 z M 450.78125 767.375 C 431.56816 768.2491 384.56421 822.84853 397.09375 834.125 C 415.30805 850.57 434.1491 866.27625 453.5625 881.28125 C 463.0765 888.64325 472.8472 895.6475 482.6875 902.5625 C 497.8808 913.1085 547.59955 841.4835 532.40625 830.9375 C 523.66765 824.9605 514.98345 818.9025 506.59375 812.4375 C 488.89045 798.8515 471.75515 784.5441 455.78125 768.9375 C 454.48508 767.77095 452.76881 767.28458 450.78125 767.375 z "
     id="path22095" />
</svg>
