<?xml version="1.0" encoding="utf-8" ?>

<!DOCTYPE svg PUBLIC "-//W3C//DTD SVG 1.1//EN" 
  "http://www.w3.org/Graphics/SVG/1.1/DTD/svg11.dtd">
<svg 
    xmlns="http://www.w3.org/2000/svg"
    xmlns:xlink="http://www.w3.org/1999/xlink"
    xmlns:sodipodi="http://sodipodi.sourceforge.net/DTD/sodipodi-0.dtd"
    xmlns:inkscape="http://www.inkscape.org/namespaces/inkscape"
    width="1024" height="1024" id="U706F">
<path d="m 9430.0396,8593.5024 c 15.4189,22.4258 35.0976,41.3053 55.3302,59.3063 12.1529,10.7169 25.3872,20.0352 38.668,29.2652 15.0155,10.5429 -34.6842,81.3266 -49.6997,70.7837 l 0,0 c -15.9108,-11.2663 -31.7718,-22.6273 -46.4108,-35.5503 -25.0555,-22.333 -49.136,-45.8271 -69.1857,-72.8777 -10.8033,-15.1246 60.4947,-66.0518 71.298,-50.9272 z" id="path21917" inkscape:connector-curvature="0" style="fill:#800000;fill-opacity:1;fill-rule:nonzero;stroke:#f9f9f9;stroke-width:0.1;stroke-miterlimit:4;stroke-dasharray:none" transform="translate(-9216, -8192)"/><path d="m 9738.5128,8506.2132 c -15.4984,32.8386 -29.1372,66.5194 -43.9059,99.693 -17.3053,39.3218 -37.7462,77.0669 -60.6048,113.4013 -9.8123,15.3777 -82.3037,-30.8777 -72.4915,-46.2555 l 0,0 c 21.0013,-32.3617 39.2173,-66.3738 54.6316,-101.7646 14.8924,-34.0768 28.6936,-68.5991 43.2917,-102.7998 8.0029,-16.7752 87.0817,20.9505 79.0789,37.7256 z" id="path21919" inkscape:connector-curvature="0" style="fill:#800000;fill-opacity:1;fill-rule:nonzero;stroke:#f9f9f9;stroke-width:0.1;stroke-miterlimit:4;stroke-dasharray:none" transform="translate(-9216, -8192)"/><path d="m 9610.2585,8357.6093 c -16.534,44.3996 -27.0897,90.8053 -38.507,136.7128 -18.8968,79.7584 -39.8282,158.9837 -63.06,237.5843 -18.5506,60.1924 -37.9494,120.313 -64.2161,177.6418 -7.8491,16.5218 -85.7339,-20.479 -77.8848,-37.0008 l 0,0 c 26.0858,-52.5657 43.7354,-108.7937 61.5227,-164.571 23.0381,-77.1961 43.493,-155.0997 61.3469,-233.6656 11.8794,-49.9667 23.097,-100.2556 39.4876,-148.9867 6.8487,-17.2486 88.1594,15.0366 81.3107,32.2852 z" id="path21921" inkscape:connector-curvature="0" style="fill:#800000;fill-opacity:1;fill-rule:nonzero;stroke:#f9f9f9;stroke-width:0.1;stroke-miterlimit:4;stroke-dasharray:none" transform="translate(-9216, -8192)"/><path d="m 9509.6253,8767.5655 c 19.4528,25.0513 43.3916,45.8875 67.9482,65.7297 37.3979,28.8703 78.5029,52.3448 119.0238,76.4464 29.7272,17.0151 57.7909,36.4463 83.5855,58.9511 13.7225,12.2648 -44.0943,76.9535 -57.8168,64.6887 l 0,0 c -21.102,-19.532 -44.9971,-35.4347 -69.7547,-49.9948 -43.8509,-26.2999 -88.3557,-51.8494 -128.9345,-83.1316 -29.2139,-23.4374 -57.3903,-48.1718 -81.6063,-76.8834 -11.8383,-14.3305 55.7165,-70.1367 67.5548,-55.8061 z" id="path21923" inkscape:connector-curvature="0" style="fill:#800000;fill-opacity:1;fill-rule:nonzero;stroke:#f9f9f9;stroke-width:0.1;stroke-miterlimit:4;stroke-dasharray:none" transform="translate(-9216, -8192)"/><path d="m 9710.9134,8434.225 c 44.7214,-9.3369 89.1721,-19.9273 133.7873,-29.7618 63.6264,-14.4009 128.0803,-24.4126 192.8803,-31.6301 33.407,-3.6933 66.997,-4.2835 100.558,-3.4458 18.424,0.6653 15.288,87.5155 -3.136,86.8502 l 0,0 c -29.463,-1.4416 -58.98,-1.4147 -88.372,1.517 -61.6414,6.2535 -122.9334,15.5462 -183.3095,29.657 -44.8235,10.2484 -89.496,21.1143 -134.0586,32.4448 -18.1651,3.8925 -36.5147,-81.7388 -18.3495,-85.6313 z" id="path21945" inkscape:connector-curvature="0" style="fill:#800000;fill-opacity:1;fill-rule:nonzero;stroke:#f9f9f9;stroke-width:0.1;stroke-miterlimit:4;stroke-dasharray:none" transform="translate(-9216, -8192)"/><path d="m 9992.0403,8495.7377 c -0.6279,43.5123 -0.4724,87.015 -1.6348,130.5263 -2.2089,78.7957 -10.9509,157.1415 -22.4019,235.0647 -9.534,63.3574 -23.4903,125.919 -43.7607,186.699 -13.7353,39.9913 -32.82,71.2031 -67.7554,95.3416 -21.554,9.7036 -10.4985,5.9463 -33.1334,11.3685 -18.1859,3.4949 -34.661,-82.2343 -16.4751,-85.7292 l 0,0 c 1.7139,0.8006 0.7695,0.5031 2.8612,0.7987 19.0738,-7.114 25.3172,-33.5417 33.2883,-49.5441 19.5496,-55.587 32.5009,-113.1275 41.6314,-171.317 11.176,-74.3711 19.4767,-149.2043 20.7552,-224.48 0.676,-44.0825 0.07,-88.1282 -0.8953,-132.2015 0.7367,-18.5659 88.2573,-15.0929 87.5205,3.473 z" id="path21947" inkscape:connector-curvature="0" style="fill:#800000;fill-opacity:1;fill-rule:nonzero;stroke:#f9f9f9;stroke-width:0.1;stroke-miterlimit:4;stroke-dasharray:none" transform="translate(-9216, -8192)"/></svg>