<?xml version="1.0" encoding="UTF-8" standalone="no"?>
<svg
   xmlns:dc="http://purl.org/dc/elements/1.1/"
   xmlns:cc="http://creativecommons.org/ns#"
   xmlns:rdf="http://www.w3.org/1999/02/22-rdf-syntax-ns#"
   xmlns:svg="http://www.w3.org/2000/svg"
   xmlns="http://www.w3.org/2000/svg"
   xmlns:sodipodi="http://sodipodi.sourceforge.net/DTD/sodipodi-0.dtd"
   xmlns:inkscape="http://www.inkscape.org/namespaces/inkscape"
   width="1024"
   height="1024"
   id="U70E7"
   version="1.1"
   inkscape:version="0.48.0 r9654"
   sodipodi:docname="U+70E7.svg">
  <metadata
     id="metadata18">
    <rdf:RDF>
      <cc:Work
         rdf:about="">
        <dc:format>image/svg+xml</dc:format>
        <dc:type
           rdf:resource="http://purl.org/dc/dcmitype/StillImage" />
      </cc:Work>
    </rdf:RDF>
  </metadata>
  <defs
     id="defs16" />
  <sodipodi:namedview
     pagecolor="#ffffff"
     bordercolor="#666666"
     borderopacity="1"
     objecttolerance="10"
     gridtolerance="10"
     guidetolerance="10"
     inkscape:pageopacity="0"
     inkscape:pageshadow="2"
     inkscape:window-width="640"
     inkscape:window-height="480"
     id="namedview14"
     showgrid="false"
     inkscape:zoom="0.27441406"
     inkscape:cx="512"
     inkscape:cy="512"
     inkscape:window-x="0"
     inkscape:window-y="25"
     inkscape:window-maximized="0"
     inkscape:current-layer="U70E7" />
  <path
     style="fill:#a02c2c;fill-opacity:1;fill-rule:nonzero;stroke:#f9f9f9;stroke-width:0.1;stroke-miterlimit:4;stroke-dasharray:none"
     d="M 780.1875 125.5 C 757.70858 125.98832 704.53956 159.7865 712.5 173.46875 C 730.2749 202.21575 749.34095 230.1275 767.40625 258.6875 C 770.46145 263.9475 773.5073 269.20875 776.5625 274.46875 C 785.8549 290.42675 861.1049 246.6455 851.8125 230.6875 C 848.2223 224.5355 844.62145 218.37075 841.03125 212.21875 C 823.58435 184.53775 805.0389 157.505 788.9375 129 C 787.46334 126.46641 784.35026 125.40957 780.1875 125.5 z M 275.3125 172.34375 C 250.82455 172.33918 223.15372 178.44494 223.71875 188.96875 C 229.87225 243.05075 230.64725 297.3395 229.40625 351.6875 C 227.93549 390.60837 224.30393 429.32245 219.1875 467.84375 C 214.05112 458.79572 209.28019 449.52579 205 440 C 197.1233 422.981 116.90445 460.105 124.78125 477.125 C 140.78755 509.445 160.0887 539.813 181.875 568.5 C 187.11477 575.58 192.95494 581.98203 199.1875 587.9375 C 196.0001 604.4329 192.70446 620.90044 189.3125 637.34375 C 174.2343 703.86075 159.0032 770.488 139.0625 835.75 C 137.3501 840.432 135.6498 845.1305 133.9375 849.8125 C 127.959 867.3515 210.61535 895.50775 216.59375 877.96875 C 218.52155 871.97075 220.4472 865.997 222.375 860 C 231.70854 826.37603 240.16201 792.50098 248.15625 758.53125 C 256.27843 766.42296 264.6008 774.10382 273.125 781.625 C 317.9908 819.945 371.43615 844.633 425.65625 866.5 C 448.12141 875.09874 470.81346 883.12911 493.59375 890.84375 C 493.10941 891.9175 492.6047 892.98646 492.125 894.0625 C 489.6458 900.4015 487.1667 906.7245 484.6875 913.0625 C 478.0663 930.3365 559.5037 961.55525 566.125 944.28125 C 568.017 939.21725 569.9205 934.15775 571.8125 929.09375 C 573.4622 925.27856 575.14479 921.49346 576.875 917.71875 C 588.38824 921.08562 603.12188 886.92055 607.0625 861.28125 C 614.40812 849.47946 622.29368 838.00529 630.78125 826.90625 C 650.65321 801.00619 671.32971 775.68388 693.71875 751.90625 C 691.95158 778.90538 690.25027 805.86459 690.03125 832.9375 C 689.46025 871.1655 697.5038 907.612 713.8125 942 C 737.8422 983.769 773.33755 998.1935 818.59375 1006.6875 C 862.54165 1012.0615 906.8284 1007.2162 950.5625 1002.1562 C 974.9529 999.41225 999.10915 995.0845 1023.0938 989.9375 C 1041.3231 985.7735 1021.6983 899.836 1003.4688 904 C 982.65295 909.105 961.6052 913.1395 940.3125 915.6875 C 905.0829 919.9905 869.3615 924.14075 833.875 920.71875 C 818.678 918.28875 801.945 916.2975 792.3125 902.9375 C 780.6127 881.7105 777.6558 857.608 777.375 833.625 C 777.5834 805.74 779.6894 777.95675 782.5 750.21875 C 782.85763 744.18966 773.93335 739.57266 761.65625 736.6875 C 778.01737 734.10176 794.37483 731.56124 810.75 729.0625 C 829.6447 726.0235 848.61975 723.57425 867.65625 721.65625 C 886.09245 719.47925 875.8111 632.573 857.375 634.75 C 837.28 637.427 817.26485 640.453 797.28125 643.875 C 734.30235 654.2 671.3652 664.78825 608.3125 674.65625 C 606.91691 674.87149 605.52069 675.09616 604.125 675.3125 C 624.92777 649.75426 644.3572 623.00376 665.25 597.53125 C 678.22912 581.27278 691.26967 565.06515 704.5 549 C 707.67451 553.9682 710.87552 558.95306 714.125 563.875 C 729.2344 586.528 746.7765 607.252 764.75 627.625 C 777.0741 641.318 841.60545 583.22425 829.28125 569.53125 C 813.67885 552.61825 798.6146 535.28275 785.625 516.21875 C 777.85124 504.68594 770.32518 492.982 763.09375 481.125 C 772.90621 470.40054 782.9005 459.82046 793.125 449.46875 C 818.2336 424.69275 843.52975 399.032 874.46875 381.5 C 891.33135 373.284 852.6127 293.785 835.75 302 C 825.00176 308.09239 814.79404 314.93152 804.96875 322.28125 C 799.81761 300.07941 789.45507 277.99183 780.0625 280.375 C 754.2802 287.214 767.839 283.6025 739.375 291.1875 C 722.56391 295.79455 705.77723 300.49166 689 305.21875 C 682.43061 279.26191 677.58415 252.92054 676.96875 226.0625 C 676.83195 207.3135 588.45685 207.9385 588.59375 226.6875 C 590.37553 261.42217 597.24669 295.40373 606.1875 328.875 C 591.25469 333.17394 576.30826 337.45266 561.375 341.75 C 516.4827 354.892 471.0093 367.27475 428.4375 386.96875 C 426.82852 387.84259 425.7878 389.36667 425.21875 391.40625 C 408.96054 390.0586 395.10759 392.01938 393.78125 399.15625 C 389.37555 428.31925 380.48605 456.4315 370.78125 484.1875 C 357.56615 519.3975 342.3978 554.2525 319.6875 584.4375 C 308.8732 599.4875 379.8107 650.45625 390.625 635.40625 C 416.9238 597.68125 436.94795 556.284 452.78125 513.125 C 458.4102 497.30764 463.75783 481.39734 468.5 465.3125 C 469.24581 465.22381 469.95786 465.01857 470.625 464.65625 C 507.3034 446.81625 546.9512 435.9455 585.875 424.1875 C 601.33545 419.60258 616.82661 415.05979 632.3125 410.5625 C 640.25951 430.83065 649.217 450.61708 659.03125 470 C 638.46976 494.36696 618.37733 519.15622 598.40625 544 C 569.52055 577.143 545.74 615.2385 513.8125 645.6875 C 507.40225 652.25839 519.39227 670.45339 534.78125 685.65625 C 515.2861 688.26705 495.75067 690.46179 476.125 691.78125 C 457.4089 693.20825 464.12765 781.428 482.84375 780 C 510.72956 776.88474 538.47619 772.80341 566.1875 768.40625 C 564.72955 770.29289 563.26175 772.16875 561.8125 774.0625 C 552.0304 786.83248 542.95191 800.05148 534.46875 813.625 C 508.72227 805.23053 483.13187 796.2967 457.84375 786.59375 C 412.73595 768.43575 367.9625 748.439 330.5625 716.625 C 309.07398 697.62188 289.28106 677.07198 271.5625 654.5625 C 271.5922 654.42678 271.62655 654.29197 271.65625 654.15625 C 291.61865 555.08825 309.35265 455.266 314.21875 354.125 C 316.15095 297.437 315.9727 240.82575 311.9375 184.21875 C 311.49803 176.03356 294.35869 172.3473 275.3125 172.34375 z M 740.40625 380.28125 C 737.69534 382.99065 734.97918 385.69531 732.28125 388.40625 C 728.39696 392.41521 724.54768 396.44124 720.71875 400.5 C 718.78843 396.07144 716.90847 391.6076 715.09375 387.125 C 723.52663 384.81484 731.9595 382.54108 740.40625 380.28125 z "
     id="path11799" />
</svg>
