<?xml version="1.0" encoding="utf-8" ?>

<!DOCTYPE svg PUBLIC "-//W3C//DTD SVG 1.1//EN" 
  "http://www.w3.org/Graphics/SVG/1.1/DTD/svg11.dtd">
<svg 
    xmlns="http://www.w3.org/2000/svg"
    xmlns:xlink="http://www.w3.org/1999/xlink"
    xmlns:sodipodi="http://sodipodi.sourceforge.net/DTD/sodipodi-0.dtd"
    xmlns:inkscape="http://www.inkscape.org/namespaces/inkscape"
    width="1024" height="1024" id="U706B">
<path d="m 10524.585,19903.142 c 20.057,28.032 49.223,47.402 77.72,65.892 29.302,17.996 59.93,33.692 90.414,49.557 16.537,8.817 -25.026,86.774 -41.563,77.957 l 0,0 c -32.375,-17.674 -65.073,-34.823 -96.479,-54.201 -39.083,-25.416 -77.79,-52.732 -105.282,-91.133 -10.198,-15.95 64.992,-64.022 75.19,-48.072 z" id="path8267" inkscape:connector-curvature="0" style="fill:#550000;fill-opacity:1;fill-rule:nonzero;stroke:#f9f9f9;stroke-width:0.1;stroke-miterlimit:4;stroke-dasharray:none" transform="translate(-10240, -19456)"/><path d="m 10960.318,19916.747 c -13.319,32.262 -28.612,63.654 -43.989,94.97 -10.986,22.584 -22.985,44.627 -35.79,66.222 -9.697,16.062 -85.414,-29.649 -75.718,-45.711 l 0,0 c 11.834,-19.18 22.677,-38.927 32.538,-59.2 14.03,-28.706 28.158,-57.481 39.201,-87.499 6.622,-17.768 90.38,13.451 83.758,31.218 z" id="path8269" inkscape:connector-curvature="0" style="fill:#550000;fill-opacity:1;fill-rule:nonzero;stroke:#f9f9f9;stroke-width:0.1;stroke-miterlimit:4;stroke-dasharray:none" transform="translate(-10240, -19456)"/><path d="m 10816.628,19727.823 c -10.476,55.478 -26.255,109.687 -42.897,163.568 -27.765,89.269 -65.276,174.917 -104.664,259.54 -30.842,65.199 -63.453,129.537 -96.84,193.463 -13.965,25.695 -26.455,52.354 -43.237,76.388 -2.54,2.785 -5.079,5.57 -7.619,8.354 -13.878,13.011 -75.209,-52.408 -61.332,-65.419 l 0,0 c -0.979,1.322 -1.958,2.644 -2.938,3.966 16.265,-18.823 24.355,-43.889 38.034,-64.394 33.762,-62.012 66.249,-124.717 96.627,-188.464 37.895,-80.846 73.877,-162.761 99.655,-248.418 14.993,-50.327 29.505,-101.004 37.198,-153.06 3.071,-18.67 91.084,-4.195 88.013,14.476 z" id="path8271" inkscape:connector-curvature="0" style="fill:#550000;fill-opacity:1;fill-rule:nonzero;stroke:#f9f9f9;stroke-width:0.1;stroke-miterlimit:4;stroke-dasharray:none" transform="translate(-10240, -19456)"/><path d="m 10713.869,20146.665 c 26.416,22.245 55.779,40.677 84.789,59.293 38.731,24.48 77.806,48.41 116.629,72.743 25.512,15.732 50.268,32.593 74.097,50.763 1.765,1.272 3.529,2.543 5.294,3.815 15.181,11.307 -38.119,82.874 -53.301,71.568 l 0,0 c -2.247,-1.716 -4.494,-3.433 -6.741,-5.149 -21.13,-16.897 -43.355,-32.3 -66.272,-46.684 -38.777,-24.67 -77.903,-48.778 -116.84,-73.193 -32.694,-20.75 -65.537,-41.465 -95.982,-65.467 -14.359,-12.374 43.968,-80.062 58.327,-67.689 z" id="path8273" inkscape:connector-curvature="0" style="fill:#550000;fill-opacity:1;fill-rule:nonzero;stroke:#f9f9f9;stroke-width:0.1;stroke-miterlimit:4;stroke-dasharray:none" transform="translate(-10240, -19456)"/></svg>