<?xml version="1.0" encoding="utf-8" ?>

<!DOCTYPE svg PUBLIC "-//W3C//DTD SVG 1.1//EN" 
  "http://www.w3.org/Graphics/SVG/1.1/DTD/svg11.dtd">
<svg 
    xmlns="http://www.w3.org/2000/svg"
    xmlns:xlink="http://www.w3.org/1999/xlink"
    xmlns:sodipodi="http://sodipodi.sourceforge.net/DTD/sodipodi-0.dtd"
    xmlns:inkscape="http://www.inkscape.org/namespaces/inkscape"
    width="1024" height="1024" id="U7136">
<path d="m 11562.121,40099.639 c -17.368,34.71 -29.591,71.72 -42.17,108.354 -15.258,44.076 -29.206,88.574 -41.404,133.591 -5.765,23.011 -3.157,11.857 -7.895,33.446 -4.11,18.063 -89.261,-1.309 -85.152,-19.373 l 0,0 c 5.7,-24.307 2.639,-11.922 9.223,-37.145 13.013,-46.6 27.672,-92.698 43.4,-138.454 13.811,-40.684 27.429,-81.565 45.344,-120.675 8.54,-16.685 87.194,23.571 78.654,40.256 z" id="path11461" inkscape:connector-curvature="0" style="fill:#a02c2c;fill-opacity:1;fill-rule:nonzero;stroke:#f9f9f9;stroke-width:0.1;stroke-miterlimit:4;stroke-dasharray:none" transform="translate(-11264, -39936)"/><path d="m 11444.94,40220.971 c 1.171,-38.077 8.955,-56.98 36.739,-83.633 31.8,-22.809 70.479,-30.937 108.03,-39.069 36.322,-7.521 73.149,-12.156 110.231,-10.118 36.348,4.258 65.697,25.029 74.448,61.98 1.724,7.283 1.554,14.887 2.331,22.331 -1.992,52.525 -19.369,102.94 -34.953,152.686 -17.503,54.303 -35.63,108.402 -53.405,162.615 -10.966,33.505 -21.402,67.208 -34.353,100.015 -6.703,14.308 -2.736,7.076 -12.169,21.544 -11.229,15.054 -82.192,-37.88 -70.963,-52.933 l 0,0 c -1.222,4.006 -1.146,3.143 1.71,-1.956 13.103,-30.599 22.938,-62.449 33.655,-93.929 17.991,-53.543 36.29,-106.99 53.356,-160.837 12.197,-39.753 25.459,-79.837 29.577,-121.411 0.196,-1.342 -0.426,-3.125 0.587,-4.028 0.456,-0.407 7.453,5.128 9.834,4.394 2.096,-0.647 -13.174,-8.851 -5.895,-2.922 -28.636,-2.934 -57.363,2.684 -85.457,7.749 -23.413,5.122 -47.119,10.185 -68.941,20.428 -7.57,-1.314 -5.157,12.258 -5.822,17.094 0,18.782 -88.54,18.782 -88.54,0 z" id="path11463" inkscape:connector-curvature="0" style="fill:#a02c2c;fill-opacity:1;fill-rule:nonzero;stroke:#f9f9f9;stroke-width:0.1;stroke-miterlimit:4;stroke-dasharray:none" transform="translate(-11264, -39936)"/><path d="m 11529.772,40239.591 c 30.855,8.863 60.51,21.441 89.774,34.525 19.959,9.817 10.243,4.694 29.17,15.329 16.127,9.278 -27.61,85.302 -43.737,76.024 l 0,0 c -13.185,-7.85 -6.115,-3.926 -21.291,-11.625 -23.867,-10.807 -48.133,-21.287 -73.533,-27.94 -18.31,-4.161 1.307,-90.474 19.617,-86.313 z" id="path11465" inkscape:connector-curvature="0" style="fill:#a02c2c;fill-opacity:1;fill-rule:nonzero;stroke:#f9f9f9;stroke-width:0.1;stroke-miterlimit:4;stroke-dasharray:none" transform="translate(-11264, -39936)"/><path d="m 11494.284,40394.978 c 26.303,9.649 53.655,16.214 80.719,23.361 21.216,5.637 10.78,2.858 31.309,8.336 17.916,4.847 -4.933,89.302 -22.849,84.455 l 0,0 c -20.196,-5.539 -9.931,-2.744 -30.797,-8.381 -31.469,-8.344 -63.247,-15.899 -93.97,-26.75 -17.188,-7.549 18.401,-88.57 35.588,-81.021 z" id="path11467" inkscape:connector-curvature="0" style="fill:#a02c2c;fill-opacity:1;fill-rule:nonzero;stroke:#f9f9f9;stroke-width:0.1;stroke-miterlimit:4;stroke-dasharray:none" transform="translate(-11264, -39936)"/><path d="m 11813.636,40270.696 c 40.901,-12.561 82.802,-21.418 124.714,-29.827 37.175,-7.35 74.686,-13.211 111.449,-22.505 18.105,-4.316 38.452,81.032 20.347,85.348 l 0,0 c -37.988,8.609 -76.488,14.636 -114.72,22.031 -37.986,7.665 -76.132,15.541 -112.769,28.388 -17.7,6.157 -46.721,-77.279 -29.021,-83.435 z" id="path11469" inkscape:connector-curvature="0" style="fill:#a02c2c;fill-opacity:1;fill-rule:nonzero;stroke:#f9f9f9;stroke-width:0.1;stroke-miterlimit:4;stroke-dasharray:none" transform="translate(-11264, -39936)"/><path d="m 12031.163,40098.387 c -10.369,43.29 -19.204,86.906 -29.948,130.122 -18.271,68.569 -39.665,136.263 -61.01,203.923 -12.464,39.955 -26.637,79.337 -43.668,117.571 -7.781,16.827 -87.102,-19.851 -79.322,-36.677 l 0,0 c 16.664,-34.468 29.56,-70.531 41.351,-106.927 21.156,-65.63 42.101,-131.399 59.222,-198.22 10.509,-44.067 19.034,-88.502 28.063,-132.884 4.898,-18.098 90.211,4.994 85.312,23.092 z" id="path11471" inkscape:connector-curvature="0" style="fill:#a02c2c;fill-opacity:1;fill-rule:nonzero;stroke:#f9f9f9;stroke-width:0.1;stroke-miterlimit:4;stroke-dasharray:none" transform="translate(-11264, -39936)"/><path d="m 12004.575,40373.414 c 18.427,24.134 35.855,48.988 54.543,72.925 17.353,21.454 36.72,41.224 58.03,58.745 14.243,12.013 -42.388,79.158 -56.631,67.144 l 0,0 c -25.492,-21.907 -49.211,-45.832 -70.197,-72.134 -18.009,-23.031 -34.863,-46.942 -53.352,-69.589 -12.111,-14.342 55.497,-71.433 67.607,-57.091 z" id="path11473" inkscape:connector-curvature="0" style="fill:#a02c2c;fill-opacity:1;fill-rule:nonzero;stroke:#f9f9f9;stroke-width:0.1;stroke-miterlimit:4;stroke-dasharray:none" transform="translate(-11264, -39936)"/><path d="m 12162.76,40033.202 c 5.279,18.385 12.061,36.291 18.603,54.251 6.402,17.366 -75.464,47.546 -81.866,30.18 l 0,0 c -7.307,-19.591 -14.711,-39.151 -21.42,-58.957 -5.404,-17.964 79.279,-43.438 84.683,-25.474 z" id="path11475" inkscape:connector-curvature="0" style="fill:#a02c2c;fill-opacity:1;fill-rule:nonzero;stroke:#f9f9f9;stroke-width:0.1;stroke-miterlimit:4;stroke-dasharray:none" transform="translate(-11264, -39936)"/><path d="m 11554.469,40690.51 c -16.328,25.525 -30.62,52.273 -44.655,79.103 -7.726,17.734 -20.126,35.166 -21.648,54.971 -3.256,18.382 -89.911,3.033 -86.655,-15.35 l 0,0 c 5.903,-28.362 17.099,-54.637 31.039,-80.032 14.911,-28.513 30.154,-56.85 46.299,-84.688 9.757,-16.042 85.377,29.954 75.62,45.996 z" id="path11477" inkscape:connector-curvature="0" style="fill:#a02c2c;fill-opacity:1;fill-rule:nonzero;stroke:#f9f9f9;stroke-width:0.1;stroke-miterlimit:4;stroke-dasharray:none" transform="translate(-11264, -39936)"/><path d="m 11679.464,40676.525 c 9.026,22.474 24.785,41.206 40.338,59.416 17.678,19.737 36.611,38.284 56.464,55.814 13.828,12.422 -44.729,77.606 -58.556,65.184 l 0,0 c -22.407,-20.419 -43.977,-41.75 -64.196,-64.356 -22.147,-25.909 -43.572,-52.865 -56.82,-84.605 -6.672,-17.558 76.098,-49.011 82.77,-31.453 z" id="path11479" inkscape:connector-curvature="0" style="fill:#a02c2c;fill-opacity:1;fill-rule:nonzero;stroke:#f9f9f9;stroke-width:0.1;stroke-miterlimit:4;stroke-dasharray:none" transform="translate(-11264, -39936)"/><path d="m 11885.113,40679.422 c 7.025,19.493 19.937,36.187 32.939,52.05 9.596,10.184 4.783,5.648 14.272,13.782 13.808,12.493 -45.084,77.584 -58.892,65.091 l 0,0 c -16.34,-15.206 -8.525,-7.288 -23.455,-23.744 -19.964,-24.871 -38.863,-51.102 -49.54,-81.473 -5.453,-17.963 79.223,-43.668 84.676,-25.706 z" id="path11481" inkscape:connector-curvature="0" style="fill:#a02c2c;fill-opacity:1;fill-rule:nonzero;stroke:#f9f9f9;stroke-width:0.1;stroke-miterlimit:4;stroke-dasharray:none" transform="translate(-11264, -39936)"/><path d="m 12130.399,40621.004 c 5.918,22.863 15.097,44.626 24.831,66.075 8.723,18.551 17.485,37.078 25.867,55.787 7.569,16.958 -72.373,52.641 -79.942,35.682 l 0,0 c -8.242,-18.541 -16.954,-36.859 -25.606,-55.212 -11.513,-25.244 -22.089,-50.888 -30.117,-77.483 -5.272,-18.025 79.696,-42.874 84.967,-24.849 z" id="path11483" inkscape:connector-curvature="0" style="fill:#a02c2c;fill-opacity:1;fill-rule:nonzero;stroke:#f9f9f9;stroke-width:0.1;stroke-miterlimit:4;stroke-dasharray:none" transform="translate(-11264, -39936)"/></svg>