<?xml version="1.0" encoding="utf-8" ?>

<!DOCTYPE svg PUBLIC "-//W3C//DTD SVG 1.1//EN" 
  "http://www.w3.org/Graphics/SVG/1.1/DTD/svg11.dtd">
<svg 
    xmlns="http://www.w3.org/2000/svg"
    xmlns:xlink="http://www.w3.org/1999/xlink"
    xmlns:sodipodi="http://sodipodi.sourceforge.net/DTD/sodipodi-0.dtd"
    xmlns:inkscape="http://www.inkscape.org/namespaces/inkscape"
    width="1024" height="1024" id="U7167">
<path d="m 7309.389,63738.383 c 9.3516,44.16 15.156,88.956 21.1746,133.66 6.4137,50.389 13.7272,100.727 28.2359,149.489 5.7764,14.86 2.6383,8.586 8.6684,19.178 8.2221,16.714 -70.5718,55.474 -78.7939,38.759 l 0,0 c -9.9135,-21.609 -5.3222,-10.251 -13.5674,-34.158 -14.4606,-52.941 -22.8875,-107.111 -29.8498,-161.506 -5.8629,-41.525 -11.311,-83.273 -21.6202,-123.983 -4.5477,-18.191 81.2047,-39.629 85.7524,-21.439 z" id="path14363" inkscape:connector-curvature="0" style="fill:#2b1100;fill-opacity:1;fill-rule:nonzero;stroke:none" transform="translate(-7168, -63488)"/><path d="m 7258.9834,63762.672 c 17.1785,-33.303 46.1909,-53.409 79.5396,-68.271 40.7864,-14.92 83.6342,-15.487 126.1672,-10.141 39.4768,6.087 69.3651,21.387 96.6111,50.27 25.3785,31.314 30.3642,69.33 31.217,108.245 -0.9784,49.212 -11.467,97.46 -22.7346,145.156 -9.5621,37.692 -19.8133,75.212 -30.5067,112.599 -1.0213,3.381 -2.0426,6.763 -3.0639,10.144 -5.6638,17.808 -89.6097,-8.892 -83.9459,-26.699 l 0,0 c 0.9604,-2.849 1.9208,-5.698 2.8812,-8.547 11.0733,-35.528 21.222,-71.35 30.4345,-107.405 9.6019,-40.573 18.6135,-81.608 19.6442,-123.463 -0.3203,-17.516 -0.2311,-35.935 -9.4825,-51.476 -10.2211,-13.91 -26.2009,-19.063 -42.7011,-22.254 -26.8271,-3.971 -54.0384,-4.286 -80.1775,4.041 -13.9786,5.396 -26.826,12.304 -34.0761,26.108 -8.1262,16.929 -87.9327,-21.378 -79.8065,-38.307 z" id="path14365" inkscape:connector-curvature="0" style="fill:#2b1100;fill-opacity:1;fill-rule:nonzero;stroke:none" transform="translate(-7168, -63488)"/><path d="m 7320.6343,63884.766 c 34.4978,-6.255 69.1238,-11.802 103.7706,-17.162 19.5918,-3.308 39.3114,-5.573 59.072,-7.541 18.4493,-1.7 26.46,85.271 8.0107,86.971 l 0,0 c -17.9751,1.494 -35.8977,3.408 -53.692,6.443 -32.5163,5.112 -65.065,10.348 -97.1974,17.533 -18.2951,4.235 -38.259,-82.009 -19.9639,-86.244 z" id="path14367" inkscape:connector-curvature="0" style="fill:#2b1100;fill-opacity:1;fill-rule:nonzero;stroke:none" transform="translate(-7168, -63488)"/><path d="m 7344.4502,64041.379 c 34.33,-4.707 68.1812,-12.416 102.1256,-19.29 28.0819,-5.854 56.3678,-10.552 84.9106,-13.398 18.575,-1.638 26.2953,85.926 7.7203,87.563 l 0,0 c -25.3638,1.86 -50.4645,5.918 -75.378,10.999 -36.2984,7.357 -72.4268,15.615 -108.9238,21.946 -18.6294,2.218 -29.0841,-85.602 -10.4547,-87.82 z" id="path14369" inkscape:connector-curvature="0" style="fill:#2b1100;fill-opacity:1;fill-rule:nonzero;stroke:none" transform="translate(-7168, -63488)"/><path d="m 7693.0998,63621.412 c 27.5009,-13.505 57.7264,-19.43 87.6716,-24.656 34.5565,-6.287 69.1975,-8.16 103.8887,-2.585 32.8546,6.303 56.4359,24.565 73.8818,52.379 14.5652,28.486 16.587,60.174 16.6437,91.556 -1.1963,30.726 -4.8274,61.304 -9.0427,91.744 -2.8693,17.819 -4.7571,35.822 -9.7744,53.184 -6.271,17.753 -89.9605,-11.808 -83.6895,-29.562 l 0,0 c -0.172,1.069 -0.882,4.224 -0.5161,3.206 4.4532,-12.399 3.5691,-26.639 7.1077,-39.253 3.8969,-26.31 7.032,-52.772 8.2696,-79.353 0.056,-15.886 -0.2187,-31.982 -5.2748,-47.222 -1.6063,-6.775 -6.21,-8.452 -13.2326,-10.254 -24.1567,-5.497 -48.9672,-1.218 -73.1244,2.32 -20.3203,3.598 -41.1335,7.121 -59.9485,15.973 -16.4356,9.092 -59.2956,-68.385 -42.8601,-77.477 z" id="path14371" inkscape:connector-curvature="0" style="fill:#2b1100;fill-opacity:1;fill-rule:nonzero;stroke:none" transform="translate(-7168, -63488)"/><path d="m 7853.3645,63695.231 c -20.2879,24.697 -35.1396,53.282 -50.1768,81.323 -17.4486,33.589 -34.1531,67.656 -47.0406,103.284 -2.289,8.266 -1.6149,4.691 -2.4902,10.625 -4.2465,18.265 -90.347,-1.753 -86.1005,-20.018 l 0,0 c 3.653,-13.908 1.5061,-6.633 6.5957,-21.781 15.2698,-38.618 33.4536,-75.977 52.4906,-112.865 17.7759,-33.611 35.6221,-67.48 59.0504,-97.594 12.0972,-14.355 79.7685,42.671 67.6714,57.026 z" id="path14373" inkscape:connector-curvature="0" style="fill:#2b1100;fill-opacity:1;fill-rule:nonzero;stroke:none" transform="translate(-7168, -63488)"/><path d="m 7716.3192,63949.522 c 4.6314,26.297 12.803,51.765 21.6203,76.907 6.3399,12.93 8.7758,29.967 19.2539,40.607 10.9655,15.194 -60.6614,66.886 -71.6269,51.692 l 0,0 c -13.2325,-19.607 -22.6622,-41.114 -30.1873,-63.535 -10.237,-29.551 -19.6032,-59.423 -26.1505,-90.039 -3.3159,-18.475 83.7745,-34.106 87.0905,-15.632 z" id="path14375" inkscape:connector-curvature="0" style="fill:#2b1100;fill-opacity:1;fill-rule:nonzero;stroke:none" transform="translate(-7168, -63488)"/><path d="m 7710.6332,63888.769 c 29.9129,-8.338 60.7307,-12.458 91.4981,-16.095 32.7312,-4.004 65.6714,-4.682 98.554,-2.747 25.6347,1.158 49.1924,9.182 70.8176,22.615 24.5607,17.168 33.8509,42.352 36.3393,71.103 -0.4793,28.746 -9.2958,56.413 -17.1545,83.817 -4.5846,16.075 -9.3374,32.077 -15.7284,47.531 -7.4606,17.217 -88.6212,-17.953 -81.1605,-35.169 l 0,0 c 5.6551,-11.668 8.4157,-24.518 12.5091,-36.763 5.2408,-17.959 10.7428,-35.991 13.451,-54.542 0.673,-3.047 1.6579,-1.494 3.1964,-2.097 -7.5669,-6.721 -18.4294,-7.714 -28.0139,-8.862 -27.506,-2.037 -55.0827,-1.533 -82.4876,1.835 -25.4197,3.049 -51.0418,6.214 -75.5515,13.927 -17.9365,5.573 -44.2056,-78.981 -26.2691,-84.553 z" id="path14377" inkscape:connector-curvature="0" style="fill:#2b1100;fill-opacity:1;fill-rule:nonzero;stroke:none" transform="translate(-7168, -63488)"/><path d="m 7684.952,64083.526 c 38.7672,-3.845 77.3079,-9.647 115.9851,-14.298 37.4816,-4.396 75.0828,-7.778 112.7819,-9.54 14.9276,-0.09 7.786,-0.259 21.427,0.394 18.7007,1.317 12.4932,89.472 -6.2074,88.156 l 0,0 c -6.9215,-0.837 -2.8939,-0.48 -12.1052,-0.778 -35.2748,0.8 -70.4611,3.745 -105.5039,7.809 -39.2839,4.766 -78.4022,10.664 -117.5846,16.186 -18.6525,1.865 -27.4453,-86.063 -8.7929,-87.929 z" id="path14379" inkscape:connector-curvature="0" style="fill:#2b1100;fill-opacity:1;fill-rule:nonzero;stroke:none" transform="translate(-7168, -63488)"/><path d="m 7421.9909,64267.401 c -11.3261,30.221 -21.7479,60.777 -31.6463,91.493 -4.5793,-0.258 -9.5273,51.007 -7.1149,34.034 4.4417,18.207 -81.3896,39.145 -85.8313,20.938 l 0,0 c -0.9562,-6.148 -2.5127,-12.233 -2.8686,-18.445 -1.2466,-21.755 7.1518,-42.983 12.8277,-63.515 10.3053,-31.416 21.085,-62.673 31.3068,-94.117 6.2816,-17.676 89.6083,11.936 83.3266,29.612 z" id="path14381" inkscape:connector-curvature="0" style="fill:#2b1100;fill-opacity:1;fill-rule:nonzero;stroke:none" transform="translate(-7168, -63488)"/><path d="m 7592.7218,64239.342 c 9.7764,21.477 24.5237,39.75 40.6323,56.741 8.1209,8.254 16.8004,15.904 25.5718,23.448 14.0226,12.29 -43.9165,78.394 -57.9391,66.103 l 0,0 c -10.7982,-9.61 -21.5243,-19.306 -31.5612,-29.725 -22.084,-23.821 -42.0533,-49.425 -56.5849,-78.657 -8.0419,-16.946 71.8393,-54.855 79.8811,-37.91 z" id="path14383" inkscape:connector-curvature="0" style="fill:#2b1100;fill-opacity:1;fill-rule:nonzero;stroke:none" transform="translate(-7168, -63488)"/><path d="m 7780.0451,64262.068 c 17.3565,16.322 33.7429,33.602 50.1303,50.882 6.6372,7.25 13.7532,13.988 21.1638,20.427 13.9285,12.453 -44.777,78.113 -58.7056,65.66 l 0,0 c -9.0479,-8.241 -17.9365,-16.633 -26.1881,-25.689 -15.0229,-15.862 -29.9467,-31.867 -46.4616,-46.214 -13.8027,-12.74 46.2585,-77.807 60.0612,-65.066 z" id="path14385" inkscape:connector-curvature="0" style="fill:#2b1100;fill-opacity:1;fill-rule:nonzero;stroke:none" transform="translate(-7168, -63488)"/><path d="m 7968.336,64237.046 c 8.2304,21.083 21.3712,39.791 34.2381,58.245 11.9434,16.591 24.2916,32.881 36.2449,49.465 10.793,15.144 -60.5946,66.023 -71.3877,50.879 l 0,0 c -11.9275,-16.945 -24.4105,-33.478 -36.5275,-50.287 -17.7487,-25.376 -35.2721,-51.278 -46.5662,-80.303 -5.9396,-17.818 78.0588,-45.818 83.9984,-27.999 z" id="path14387" inkscape:connector-curvature="0" style="fill:#2b1100;fill-opacity:1;fill-rule:nonzero;stroke:none" transform="translate(-7168, -63488)"/></svg>