<?xml version="1.0" encoding="utf-8" ?>

<!DOCTYPE svg PUBLIC "-//W3C//DTD SVG 1.1//EN" 
  "http://www.w3.org/Graphics/SVG/1.1/DTD/svg11.dtd">
<svg 
    xmlns="http://www.w3.org/2000/svg"
    xmlns:xlink="http://www.w3.org/1999/xlink"
    xmlns:sodipodi="http://sodipodi.sourceforge.net/DTD/sodipodi-0.dtd"
    xmlns:inkscape="http://www.inkscape.org/namespaces/inkscape"
    width="1024" height="1024" id="U719F">
<path d="m 8468.088,45119.107 c 7.7525,17.225 21.8386,29.914 35.986,41.869 7.4889,5.942 15.1454,11.642 22.6187,17.604 14.4832,11.869 -41.4647,80.143 -55.9479,68.275 l 0,0 c -7.8143,-6.655 -16.0775,-12.724 -23.9218,-19.348 -24.1078,-21.01 -46.4366,-44.138 -60.0486,-73.551 -7.3925,-17.249 73.921,-52.098 81.3136,-34.849 z" id="path10851" inkscape:connector-curvature="0" style="fill:#782121;fill-opacity:1;fill-rule:nonzero;stroke:#f9f9f9;stroke-width:0.1;stroke-miterlimit:4;stroke-dasharray:none" transform="translate(-8192, -45056)"/><path d="m 8264.7177,45246.488 c 41.076,-0.23 81.9667,-5.138 122.855,-8.626 56.72,-5.215 113.6311,-6.151 170.5116,-3.972 33.0015,2.022 66.0167,3.56 99.0725,4.235 11.4021,0 22.7284,0.442 34.0368,1.88 18.5777,2.913 4.8462,90.489 -13.7315,87.577 l 0,0 c -7.5006,-1.212 -15.2319,-1.329 -22.8777,-1.595 -33.4489,-1.267 -66.8587,-3.159 -100.2468,-5.559 -53.0769,-2.588 -106.2075,-1.879 -159.1367,3.316 -43.4635,4.016 -86.8484,9.317 -130.4832,11.109 -18.7451,0 -18.7451,-88.365 0,-88.365 z" id="path10855" inkscape:connector-curvature="0" style="fill:#782121;fill-opacity:1;fill-rule:nonzero;stroke:#f9f9f9;stroke-width:0.1;stroke-miterlimit:4;stroke-dasharray:none" transform="translate(-8192, -45056)"/><path d="m 8392.2486,45391 c 3.771,24.604 9.9981,48.718 16.9676,72.582 4.451,13.415 8.1819,27.245 14.8466,39.786 8.0574,16.948 -71.8387,54.931 -79.8961,37.982 l 0,0 c -7.7931,-17.278 -13.8139,-35.232 -19.134,-53.418 -7.6375,-26.63 -14.4029,-53.486 -19.8119,-80.665 -3.4507,-18.461 83.5771,-34.728 87.0278,-16.267 z" id="path10857" inkscape:connector-curvature="0" style="fill:#782121;fill-opacity:1;fill-rule:nonzero;stroke:#f9f9f9;stroke-width:0.1;stroke-miterlimit:4;stroke-dasharray:none" transform="translate(-8192, -45056)"/><path d="m 8404.6976,45335.24 c 27.3538,3.011 54.8179,4.962 82.24,7.259 23.0071,1.498 45.8991,2.757 68.0816,9.336 28.396,10.415 40.8625,33.865 42.6001,62.761 -1.0106,22.523 -4.3801,44.874 -6.8145,67.277 -2.1675,21.315 -3.5714,42.699 -4.7121,64.091 -0.8301,10.926 -0.2832,5.479 -1.6402,16.342 -2.6553,18.588 -90.2808,6.071 -87.6254,-12.518 l 0,0 c 0.9744,-5.158 0.4931,-2.1 1.1959,-9.209 1.5554,-22.69 3.2788,-45.372 5.4794,-68.01 1.9415,-18.565 4.229,-37.105 5.6363,-55.718 3.3289,7.848 8.2861,17.297 17.6562,18.854 -14.6767,-5.05 -31.838,-3.632 -47.35,-5.934 -28.0757,-2.471 -56.1736,-4.636 -84.2877,-6.622 -18.6483,-2.024 -9.1078,-89.933 9.5404,-87.909 z" id="path10859" inkscape:connector-curvature="0" style="fill:#782121;fill-opacity:1;fill-rule:nonzero;stroke:#f9f9f9;stroke-width:0.1;stroke-miterlimit:4;stroke-dasharray:none" transform="translate(-8192, -45056)"/><path d="m 8349.0881,45506.285 c 29.3726,-6.72 59.0279,-12.072 88.6987,-17.274 28.2016,-4.678 56.5117,-8.853 85.0375,-10.898 10.969,-0.374 5.6856,-0.333 15.8495,-0.181 18.7825,0.712 15.4245,89.254 -3.358,88.541 l 0,0 c -4.0138,-0.437 -1.574,-0.25 -7.3346,-0.305 -25.1946,1.01 -50.1739,4.821 -75.0431,8.793 -27.8811,4.943 -55.8249,9.914 -83.1547,17.416 -18.263,4.39 -38.9583,-81.702 -20.6953,-86.092 z" id="path10864" inkscape:connector-curvature="0" style="fill:#782121;fill-opacity:1;fill-rule:nonzero;stroke:#f9f9f9;stroke-width:0.1;stroke-miterlimit:4;stroke-dasharray:none" transform="translate(-8192, -45056)"/><path d="m 8371.2639,45593.942 c 31.1323,-0.668 62.2351,0.534 93.3104,2.288 28.2817,1.535 56.4599,4.565 83.5332,13.12 46.7302,20.804 47.568,60.482 14.2112,94.333 -11.8078,10.522 -24.8731,19.547 -36.1024,30.718 -5.2737,9.167 2.3943,-5.464 2.7655,-10.902 4.5765,4.351 12.9144,15.345 18.6706,21.8 15.5489,15.905 26.8176,34.393 34.7558,55.049 8.2711,25.715 3.3859,50.926 -5.8205,75.482 -5.8203,14.298 -13.7111,27.547 -22.727,40.028 -11.5009,16.628 -28.7218,22.384 -47.9937,24.182 -18.8101,0.435 -20.862,-88.236 -2.052,-88.671 l 0,0 c -7.9379,1.591 -17.7019,5.877 -21.2447,11.678 4.6341,-5.961 8.6969,-12.302 11.729,-19.247 1.8979,-4.435 3.6616,-9.012 4.9771,-13.63 -2.6237,-10.534 -10.7455,-18.394 -17.6224,-26.381 -15.7439,-17.85 -31.4058,-36.279 -38.6378,-59.425 -5.3886,-29.919 -0.1842,-52.093 21.9093,-73.606 11.4862,-10.867 23.7795,-20.751 36.02,-30.745 -5.8776,15.712 -5.7003,47.676 18.5161,52.937 -18.6683,-7.991 -40.0641,-7.136 -59.8243,-9.559 -28.0952,-1.597 -56.2675,-2.793 -84.39,-1.015 -18.7595,0.845 -22.743,-87.589 -3.9834,-88.434 z" id="path10868" inkscape:connector-curvature="0" style="fill:#782121;fill-opacity:1;fill-rule:nonzero;stroke:#f9f9f9;stroke-width:0.1;stroke-miterlimit:4;stroke-dasharray:none" transform="translate(-8192, -45056)"/><path d="m 8315.1943,45723.903 c 36.7215,-1.714 73.381,-4.702 110.0564,-7.222 49.5144,-3.718 99.0153,-7.653 148.4849,-11.93 33.8132,-3.044 67.5262,-7.073 101.2079,-11.306 7.3544,-0.93 14.7078,-1.845 22.0337,-2.977 18.6118,-2.48 30.2991,85.257 11.6873,87.736 l 0,0 c -7.8836,0.919 -15.7768,1.738 -23.6726,2.546 -34.6543,3.627 -69.2911,7.448 -104.0129,10.388 -49.8259,4.051 -99.6701,7.879 -149.4963,11.926 -37.3914,2.827 -74.7583,5.927 -112.1148,9.179 -18.7398,0.885 -22.9133,-87.455 -4.1736,-88.34 z" id="path10870" inkscape:connector-curvature="0" style="fill:#782121;fill-opacity:1;fill-rule:nonzero;stroke:#f9f9f9;stroke-width:0.1;stroke-miterlimit:4;stroke-dasharray:none" transform="translate(-8192, -45056)"/><path d="m 8714.3328,45408.943 c 40.3444,2.166 80.7818,1.482 121.159,0.839 42.728,-0.866 85.3655,-4.014 128.1125,-3.589 38.7539,1.4 63.7013,8.373 93.031,34.213 28.2684,33.802 22.4701,74.821 16.3592,115.154 -7.6751,42.754 -15.0795,85.537 -20.4469,128.648 -3.9092,30.926 -4.5411,61.986 6.2005,91.528 7.3498,17.262 20.5409,29.537 35.6495,39.975 10.0933,4.32 20.883,15.61 32.499,15.781 18.1546,4.776 -4.3563,90.358 -22.5109,85.582 l 0,0 c -22.0492,-6.497 -42.4178,-17.11 -61.3709,-30.109 -29.7381,-21.951 -54.3295,-48.511 -67.3071,-83.837 -13.2466,-42.41 -15.8251,-85.718 -9.2829,-129.784 5.5778,-43.686 12.8875,-87.094 20.2956,-130.501 0.341,-2.394 3.6198,-38.931 4.6453,-40.525 0.6497,-1.011 3.177,2.139 3.4766,0.949 7.4144,-7.279 -41.2797,-9.088 -32.7673,-9.678 -41.7254,-1.108 -83.3829,1.994 -125.0949,2.693 -41.8853,0.773 -83.7776,1.385 -125.6708,0.948 -18.7285,-0.641 -15.705,-88.928 3.0235,-88.287 z" id="path10874" inkscape:connector-curvature="0" style="fill:#782121;fill-opacity:1;fill-rule:nonzero;stroke:#f9f9f9;stroke-width:0.1;stroke-miterlimit:4;stroke-dasharray:none" transform="translate(-8192, -45056)"/><path d="m 8991.2625,45304.503 c -11.6721,32.598 -20.3953,66.212 -29.96,99.477 -19.4927,68.664 -40.0643,137.012 -61.099,205.218 -18.1673,59.029 -37.3237,117.743 -57.4288,176.139 -9.353,26.307 -18.3505,52.751 -28.3016,78.842 -3.7628,8.949 -1.6133,4.356 -6.5528,13.728 -9.5504,16.23 -86.0574,-28.791 -76.507,-45.021 l 0,0 c -0.9232,2.832 -0.8253,2.254 1.0003,-1.444 10.3509,-24.631 19.2491,-49.845 28.6276,-74.853 20.5147,-57.086 39.8102,-114.596 57.7561,-172.544 20.8826,-67.455 41.0865,-135.122 59.3816,-203.332 10.0029,-36.741 19.1228,-73.796 31.2243,-109.917 7.1503,-17.365 89.0096,16.342 81.8593,33.707 z" id="path10880" inkscape:connector-curvature="0" style="fill:#782121;fill-opacity:1;fill-rule:nonzero;stroke:#f9f9f9;stroke-width:0.1;stroke-miterlimit:4;stroke-dasharray:none" transform="translate(-8192, -45056)"/><path d="m 8764.3106,45583.205 c 26.0927,20.552 52.8552,40.145 80.4305,58.653 27.7854,18.371 57.2607,33.87 86.8639,49.041 3.7443,2.004 7.4885,4.007 11.2327,6.01 16.3651,8.924 -25.7046,86.07 -42.0697,77.146 l 0,0 c -3.2279,-1.799 -6.4558,-3.598 -9.6837,-5.397 -32.2139,-17.057 -64.3112,-34.399 -94.7606,-54.506 -28.242,-18.876 -55.6616,-38.85 -83.1543,-58.788 -15.307,-10.849 35.8342,-83.007 51.1412,-72.159 z" id="path10884" inkscape:connector-curvature="0" style="fill:#782121;fill-opacity:1;fill-rule:nonzero;stroke:#f9f9f9;stroke-width:0.1;stroke-miterlimit:4;stroke-dasharray:none" transform="translate(-8192, -45056)"/><path d="m 8414.2761,45995.429 c -9.3435,16.588 -17.5745,33.814 -23.1285,52.047 -0.2475,1.402 -0.495,2.804 -0.7425,4.205 0.1335,0.176 0.2671,0.353 0.4007,0.529 -1.9343,18.669 -89.9392,9.55 -88.0049,-9.118 l 0,0 c 2.2032,-15.416 0.6866,-7.808 4.5389,-22.826 7.7736,-23.069 17.7619,-45.21 29.0268,-66.788 8.8992,-16.527 86.8087,25.424 77.9095,41.951 z" id="path10886" inkscape:connector-curvature="0" style="fill:#782121;fill-opacity:1;fill-rule:nonzero;stroke:#f9f9f9;stroke-width:0.1;stroke-miterlimit:4;stroke-dasharray:none" transform="translate(-8192, -45056)"/><path d="m 8613.1702,45938.325 c 12.3673,15.739 25.19,31.118 38.6778,45.908 12.5116,13.879 -52.9158,72.859 -65.4274,58.98 l 0,0 c -14.2042,-15.913 -27.7726,-32.362 -41.5881,-48.609 -11.9384,-14.497 56.3993,-70.775 68.3377,-56.279 z" id="path10889" inkscape:connector-curvature="0" style="fill:#782121;fill-opacity:1;fill-rule:nonzero;stroke:#f9f9f9;stroke-width:0.1;stroke-miterlimit:4;stroke-dasharray:none" transform="translate(-8192, -45056)"/><path d="m 8846.2875,45901.725 c 16.0424,23.969 33.1503,47.208 49.4748,70.989 9.4552,13.761 18.2728,27.963 28.2608,41.348 10.8944,15.185 -60.6862,66.542 -71.5806,51.357 l 0,0 c -9.9226,-14.224 -19.1611,-28.896 -28.8052,-43.31 -16.5643,-24.248 -33.9486,-47.9 -51.2165,-71.647 -10.3387,-15.669 63.5281,-64.406 73.8667,-48.737 z" id="path10891" inkscape:connector-curvature="0" style="fill:#782121;fill-opacity:1;fill-rule:nonzero;stroke:#f9f9f9;stroke-width:0.1;stroke-miterlimit:4;stroke-dasharray:none" transform="translate(-8192, -45056)"/><path d="m 9087.3636,45930.978 c 29.3631,14.185 52.604,36.991 74.0377,61.026 8.9078,10.259 16.7478,21.35 24.5576,32.443 10.6153,15.365 -61.8142,65.406 -72.4296,50.042 l 0,0 c -5.6484,-8.375 -11.2977,-16.766 -17.844,-24.483 -12.7028,-14.6 -26.1771,-29.336 -43.8364,-37.962 -17.1968,-7.533 18.318,-88.6 35.5147,-81.066 z" id="path10893" inkscape:connector-curvature="0" style="fill:#782121;fill-opacity:1;fill-rule:nonzero;stroke:#f9f9f9;stroke-width:0.1;stroke-miterlimit:4;stroke-dasharray:none" transform="translate(-8192, -45056)"/></svg>