<?xml version="1.0" encoding="UTF-8" standalone="no"?>
<svg
   xmlns:dc="http://purl.org/dc/elements/1.1/"
   xmlns:cc="http://creativecommons.org/ns#"
   xmlns:rdf="http://www.w3.org/1999/02/22-rdf-syntax-ns#"
   xmlns:svg="http://www.w3.org/2000/svg"
   xmlns="http://www.w3.org/2000/svg"
   xmlns:sodipodi="http://sodipodi.sourceforge.net/DTD/sodipodi-0.dtd"
   xmlns:inkscape="http://www.inkscape.org/namespaces/inkscape"
   width="1024"
   height="1024"
   id="U722C"
   version="1.1"
   inkscape:version="0.48.0 r9654"
   sodipodi:docname="U+722C.svg">
  <metadata
     id="metadata15">
    <rdf:RDF>
      <cc:Work
         rdf:about="">
        <dc:format>image/svg+xml</dc:format>
        <dc:type
           rdf:resource="http://purl.org/dc/dcmitype/StillImage" />
      </cc:Work>
    </rdf:RDF>
  </metadata>
  <defs
     id="defs13" />
  <sodipodi:namedview
     pagecolor="#ffffff"
     bordercolor="#666666"
     borderopacity="1"
     objecttolerance="10"
     gridtolerance="10"
     guidetolerance="10"
     inkscape:pageopacity="0"
     inkscape:pageshadow="2"
     inkscape:window-width="640"
     inkscape:window-height="480"
     id="namedview11"
     showgrid="false"
     inkscape:zoom="0.27441406"
     inkscape:cx="512"
     inkscape:cy="512"
     inkscape:window-x="0"
     inkscape:window-y="25"
     inkscape:window-maximized="0"
     inkscape:current-layer="U722C" />
  <path
     style="fill:#c83737;fill-opacity:1;fill-rule:nonzero;stroke:#f9f9f9;stroke-width:0.1;stroke-miterlimit:4;stroke-dasharray:none"
     d="M 571.8125 211.46875 C 558.80987 211.5245 545.81063 211.82031 532.8125 212.34375 C 494.7929 214.23575 456.4557 216.63775 419.5625 226.71875 C 409.76593 229.92791 413.69921 256.73192 422.15625 279.28125 C 402.53273 279.14318 384.55934 282.85247 384.125 291.25 C 383.3818 321.598 382.52125 351.9575 382.09375 382.3125 C 380.67715 424.0785 386.48175 465.12625 397.53125 505.28125 C 407.35365 537.76825 423.32785 567.69125 441.71875 596.03125 C 458.22945 622.03125 480.8857 641.2245 507.375 656.3125 C 538.1718 671.7925 572.24815 675.341 606.15625 676.75 C 638.62925 677.007 671.09065 675.01775 703.46875 672.71875 C 725.13915 671.09275 746.7707 668.89225 768.3125 666.03125 C 775.4898 665.02525 772.08565 665.52475 778.46875 664.59375 C 797.04425 661.63875 783.138 574.044 764.5625 577 C 759.0165 577.967 761.95465 577.49225 755.71875 578.53125 C 736.27235 581.58225 716.6836 583.8 697.0625 585.375 C 667.9812 587.572 638.83165 589.368 609.65625 589.25 C 589.43645 588.485 568.79695 587.34 549.90625 579.375 C 535.49585 571.949 523.99815 561.4975 515.09375 547.8125 C 504.45893 531.88903 494.85876 515.25314 487.5 497.59375 C 506.23934 498.87958 524.99946 499.73596 543.75 500.59375 C 584.4773 502.40775 625.2408 503.27675 666 503.96875 C 687.6068 504.17675 709.20115 505.27175 730.71875 507.21875 C 732.48785 507.45424 733.12353 507.5057 733.53125 507.5625 C 744.83901 506.02192 755.9425 472.69131 757.875 447.75 C 765.69757 431.34246 769.29606 414.35221 768.15625 395.59375 C 767.89195 373.30875 767.9555 351.031 768.5625 328.75 C 768.7876 295.62 768.17715 262.9055 741.59375 238.9375 C 716.18165 222.0355 687.99485 215.7345 657.59375 214.1875 C 629.04442 212.32919 600.41828 211.3461 571.8125 211.46875 z M 733.53125 507.5625 C 733.45674 507.57265 733.38703 507.58637 733.3125 507.59375 C 733.56869 507.60802 733.77886 507.597 733.53125 507.5625 z M 733.3125 507.59375 C 732.95872 507.57404 732.78619 507.58332 731.46875 507.5 C 732.0869 507.63722 732.69388 507.65499 733.3125 507.59375 z M 280.90625 233.71875 C 275.39851 233.73841 271.39144 235.11462 270 238.34375 C 254.8544 273.44475 232.77665 304.88775 210.65625 335.84375 C 175.27745 383.83075 135.4834 428.27825 94.8125 471.78125 C 69.1713 498.82925 42.54515 524.905 15.34375 550.375 C 15.472549 550.86881 9.9638195 555.38352 6.4375 558.21875 C 5.9722495 558.50094 5.551371 558.82995 5.1875 559.21875 C -2.882483 567.84151 13.446422 601.74423 30 621.1875 C 30.376062 630.90705 30.682126 640.62229 30.96875 650.34375 C 31.69995 689.04075 31.51765 727.74175 34.59375 766.34375 C 35.97775 785.45775 40.27675 804.07825 45.15625 822.53125 C 50.30865 840.62225 135.5898 816.341 130.4375 798.25 C 126.5083 785.308 122.9865 772.2365 121.8125 758.6875 C 118.21 721.9085 118.5953 684.94625 117.875 648.03125 C 117.28569 623.54124 116.45145 599.06768 115.4375 574.59375 C 118.4308 571.55495 121.4273 568.52155 124.40625 565.46875 C 124.89905 578.08379 125.35429 590.72338 125.71875 603.34375 C 126.64005 644.14175 126.01875 684.948 126.40625 725.75 C 126.38495 746.142 128.32495 766.129 134.71875 785.5 C 141.51165 803.03 224.13665 770.99875 217.34375 753.46875 C 217.69565 760.98775 212.762 722.62225 213.8125 724.28125 C 212.8045 683.25125 213.203 642.19225 212.5625 601.15625 C 211.8677 568.51425 210.5894 535.895 210.125 503.25 C 210.02956 497.95297 202.90577 494.25102 192.75 492.125 C 200.12269 483.89163 207.46959 475.62196 214.71875 467.28125 C 222.09314 499.02056 232.36851 529.92011 244.15625 560.28125 C 262.22465 607.43825 293.5924 645.549 329.875 679.75 C 369.1542 714.604 414.1621 741.5495 461 764.8125 C 505.7379 786.0065 553.79715 798.30575 601.46875 810.84375 C 634.07455 819.23975 666.03885 829.8025 698.28125 839.4375 C 718.56885 845.1985 739.17445 849.79525 759.46875 855.53125 C 761.53135 856.13825 763.59365 856.769 765.65625 857.375 C 783.69895 862.486 807.7927 777.4235 789.75 772.3125 L 782.8125 770.40625 C 762.9396 765.09425 742.8723 760.6215 723 755.3125 C 689.8046 745.7505 656.8914 735.185 623.375 726.75 C 581.3601 715.918 538.9111 705.52475 499.375 687.21875 C 460.0607 667.88175 422.2691 645.4305 389.1875 616.4375 C 362.211 591.3625 338.59755 563.7435 325.28125 528.8125 C 314.47825 500.9155 305.13805 472.43425 299.90625 442.90625 C 297.48978 431.02576 260.47291 434.16467 235.5625 442.84375 C 251.03893 424.36705 266.11287 405.53472 280.5625 386.21875 C 306.6631 350.27175 332.2188 313.68375 351.1875 273.34375 C 357.21706 259.35087 304.77314 233.63355 280.90625 233.71875 z M 594.65625 298.53125 C 613.6035 298.91276 632.53757 299.86368 651.4375 301.3125 C 646.71927 297.78442 667.75752 303.00565 680.53125 306.65625 C 680.52571 307.23095 680.5397 307.88451 680.5625 308.65625 C 680.8313 317.75625 680.73675 318.52175 680.71875 328.34375 C 680.23825 350.90175 680.01775 373.46925 679.96875 396.03125 C 681.32571 397.91716 679.97136 404.44884 679.03125 408.21875 C 677.83052 410.55202 678.30675 413.50469 680.03125 416.8125 C 675.7351 416.75338 671.42257 416.71875 667.125 416.71875 C 637.14582 416.45045 607.18313 415.98642 577.21875 415 C 588.66367 410.08651 596.52852 404.04137 595.15625 398.21875 C 592.00475 386.96175 590.8402 375.3735 590.6875 363.6875 C 590.75167 341.89597 592.09105 320.15465 594.65625 298.53125 z M 506.375 301 C 504.62655 321.58474 503.47417 342.19234 503.1875 362.875 C 502.92678 379.36076 504.77122 395.64647 507.90625 411.75 C 495.01905 410.92972 482.14721 409.88578 469.34375 408.3125 C 468.98592 400.16439 468.93754 391.97112 469.25 383.75 C 469.75908 357.52951 470.46665 331.31177 471.9375 305.125 C 483.31167 303.15666 494.83867 301.903 506.375 301 z M 686.5 308.4375 C 689.72012 309.45787 690.96702 309.98737 688.34375 309.5 C 687.6843 309.21528 687.07101 308.85304 686.5 308.4375 z "
     id="path9868" />
</svg>
