<?xml version="1.0" encoding="UTF-8" standalone="no"?>
<svg
   xmlns:dc="http://purl.org/dc/elements/1.1/"
   xmlns:cc="http://creativecommons.org/ns#"
   xmlns:rdf="http://www.w3.org/1999/02/22-rdf-syntax-ns#"
   xmlns:svg="http://www.w3.org/2000/svg"
   xmlns="http://www.w3.org/2000/svg"
   xmlns:sodipodi="http://sodipodi.sourceforge.net/DTD/sodipodi-0.dtd"
   xmlns:inkscape="http://www.inkscape.org/namespaces/inkscape"
   width="1024"
   height="1024"
   id="U7279"
   version="1.1"
   inkscape:version="0.48.0 r9654"
   sodipodi:docname="U+7279.svg">
  <metadata
     id="metadata17">
    <rdf:RDF>
      <cc:Work
         rdf:about="">
        <dc:format>image/svg+xml</dc:format>
        <dc:type
           rdf:resource="http://purl.org/dc/dcmitype/StillImage" />
      </cc:Work>
    </rdf:RDF>
  </metadata>
  <defs
     id="defs15" />
  <sodipodi:namedview
     pagecolor="#ffffff"
     bordercolor="#666666"
     borderopacity="1"
     objecttolerance="10"
     gridtolerance="10"
     guidetolerance="10"
     inkscape:pageopacity="0"
     inkscape:pageshadow="2"
     inkscape:window-width="640"
     inkscape:window-height="480"
     id="namedview13"
     showgrid="false"
     inkscape:zoom="0.27441406"
     inkscape:cx="512"
     inkscape:cy="512"
     inkscape:window-x="0"
     inkscape:window-y="25"
     inkscape:window-maximized="0"
     inkscape:current-layer="U7279" />
  <path
     style="fill:#782121;fill-opacity:1;fill-rule:nonzero;stroke:#f9f9f9;stroke-width:0.1;stroke-miterlimit:4;stroke-dasharray:none"
     d="M 726.90625 114.65625 C 718.29328 114.90394 712.08375 116.98325 710.9375 121.53125 C 701.63237 166.7286 699.84059 213.00676 697.65625 258.96875 C 654.61444 265.90692 611.61792 273.75366 570 286.96875 C 552.2962 293.14475 581.38995 376.6135 599.09375 370.4375 C 630.11801 359.19469 662.46013 352.3706 694.9375 346.6875 C 694.45264 376.95424 694.44162 407.22683 694.96875 437.5 C 642.87989 445.16415 590.97382 453.99373 539.5 465.125 C 497.2382 474.48 455.10675 484.44175 413.34375 495.84375 C 403.03225 498.77621 406.51353 527.78883 414.75 551.1875 C 404.55591 556.41408 394.34861 561.58241 384.125 566.75 C 385.72349 530.84515 387.48938 494.94181 389.5625 459.0625 C 412.89628 455.44786 436.27858 452.15444 459.6875 449.0625 C 488.3318 445.5015 474.5917 447.243 500.9375 443.875 C 519.2505 441.332 507.2504 354.98825 488.9375 357.53125 C 463.0553 361.41925 476.75565 359.41075 447.90625 363.46875 C 430.36603 365.98412 412.82606 368.58238 395.3125 371.28125 C 395.57062 367.79253 395.82779 364.30073 396.09375 360.8125 C 400.49815 308.5985 403.31225 255.25 418.28125 204.75 C 424.90445 187.218 342.2483 155.99925 335.625 173.53125 C 318.87 232.16025 316.0065 293.6905 311.625 354.1875 C 310.94221 364.6242 310.29644 375.06087 309.65625 385.5 C 295.23591 388.08018 280.84891 390.75782 266.46875 393.5625 C 253.05845 396.38958 239.64816 399.31478 226.3125 402.53125 C 228.81998 393.30962 231.3525 384.07593 233.9375 374.875 C 248.4845 323.745 262.92985 272.39575 282.65625 222.96875 C 289.64655 205.60575 207.8027 172.66825 200.8125 190.03125 C 182.0454 243.19425 166.8659 297.5095 151.8125 351.8125 C 135.9397 409.5215 120.9403 467.48875 108.1875 525.96875 C 104.4193 543.81275 188.51295 561.55775 192.28125 543.71875 C 195.25287 529.14669 198.4049 514.61798 201.71875 500.125 C 228.5585 490.25576 256.66079 483.90349 284.5625 477.78125 C 291.25916 476.41127 297.94654 475.08003 304.65625 473.78125 C 302.30193 519.10811 300.23156 564.46761 298.25 609.8125 C 272.82918 622.51877 247.4143 635.24959 222.125 648.21875 C 181.403 670.04175 126.7048 694.386 99.8125 733.875 C 95.8609 739.678 93.4418 746.373 90.25 752.625 C 85.1359 770.695 170.3234 794.78775 175.4375 776.71875 C 175.6075 777.19375 175.4755 778.36125 175.9375 778.15625 C 181.7456 775.58325 185.6446 769.944 190.8125 766.25 C 196.6912 762.047 202.6911 757.99625 208.8125 754.15625 C 228.2137 741.98525 242.50415 734.5415 262.90625 723.3125 C 273.3182 717.84693 283.75323 712.4538 294.21875 707.09375 C 293.00678 742.36144 292.17863 777.61933 291.65625 812.90625 C 291.51515 831.06025 377.07765 831.74775 377.21875 813.59375 C 377.24426 763.71576 378.13465 713.84099 380.09375 664 C 407.05931 650.64499 434.05232 637.35721 460.9375 623.84375 L 487.375 610.03125 C 495.07638 605.95466 489.92427 586.51918 480.6875 568.21875 C 506.44656 561.19511 532.42169 555.03422 558.4375 549.03125 C 614.14385 536.55532 670.48004 527.24577 727 519.375 C 725.20684 521.08414 724.25889 522.98003 724.375 525.03125 C 729.3754 557.83141 733.89206 590.63445 737.46875 623.59375 C 683.67985 629.58734 629.93689 635.90715 576.34375 643.4375 C 533.43905 650.5115 490.1592 658.12075 449.9375 675.34375 C 432.9319 683.28975 470.40055 763.447 487.40625 755.5 C 519.94685 740.481 555.68365 734.5285 590.71875 728.4375 C 641.60439 720.8305 692.67356 714.6443 743.8125 708.96875 C 745.2332 743.61416 745.49852 778.28565 745.46875 812.96875 C 722.5054 807.09838 699.42741 801.70916 676.0625 797.625 C 636.4507 791.205 596.3341 785.891 556.125 789.25 C 537.4906 791.539 548.3031 879.38175 566.9375 877.09375 C 598.8174 873.51675 630.78065 878.16275 662.21875 883.21875 C 689.30325 887.93875 715.92515 894.833 742.40625 902.125 C 743.33471 902.37583 744.27024 902.36371 745.21875 902.15625 C 745.13862 913.25888 744.97575 924.36722 744.6875 935.46875 C 744.4054 953.97775 831.6555 955.29025 831.9375 936.78125 C 832.1012 906.32125 831.4844 875.8965 831.375 845.4375 C 831.20773 797.01854 831.00497 748.56689 829.03125 700.1875 C 863.52427 697.1055 898.08318 694.66691 932.65625 692.65625 C 951.14105 691.38325 945.14115 604.25925 926.65625 605.53125 C 892.18185 608.26581 857.70347 611.14461 823.28125 614.46875 C 820.29632 582.92733 816.63342 551.48954 812.78125 520.03125 C 812.52953 515.58397 807.31128 512.47121 799.59375 510.5625 C 825.19781 508.02172 850.8673 506.00716 876.53125 504.15625 C 894.95255 502.64225 887.82765 415.7985 869.40625 417.3125 C 839.96633 420.02142 810.50376 422.78664 781.125 426.09375 C 780.37629 395.42836 780.3223 364.75611 780.9375 334.09375 C 814.87663 330.23724 848.9593 327.59774 883.0625 325.59375 C 888.5095 325.28575 893.95915 324.96425 899.40625 324.65625 C 917.90465 323.36125 911.77965 236.17375 893.28125 237.46875 C 887.89335 237.91775 882.5129 238.3625 877.125 238.8125 C 846.18361 241.20928 815.25473 243.90114 784.40625 247.28125 C 786.32331 212.34639 788.58376 177.20291 796.6875 143.125 C 800.12625 129.481 752.74515 113.91319 726.90625 114.65625 z "
     id="path11892" />
</svg>
