<?xml version="1.0" encoding="utf-8" ?>

<!DOCTYPE svg PUBLIC "-//W3C//DTD SVG 1.1//EN" 
  "http://www.w3.org/Graphics/SVG/1.1/DTD/svg11.dtd">
<svg 
    xmlns="http://www.w3.org/2000/svg"
    xmlns:xlink="http://www.w3.org/1999/xlink"
    xmlns:sodipodi="http://sodipodi.sourceforge.net/DTD/sodipodi-0.dtd"
    xmlns:inkscape="http://www.inkscape.org/namespaces/inkscape"
    width="1024" height="1024" id="U7238">
<path d="m 9598.1537,125.2051 c -16.6598,29.14528 -34.2315,57.743 -52.1027,86.15632 -20.9084,32.4355 -41.7065,64.93283 -60.9799,98.37278 -9.4288,16.58398 -18.1061,33.57274 -25.2825,51.25155 -1.2081,3.23195 -2.6944,6.35511 -3.7315,9.64878 -6.7048,17.60922 -89.7154,-13.9974 -83.0107,-31.60663 l 0,0 c 1.6976,-4.18866 3.4669,-8.34481 5.3003,-12.47631 9.1275,-20.94133 19.6738,-41.19712 31.2616,-60.88783 20.0897,-33.98968 41.4442,-67.18636 62.7301,-100.4346 16.7658,-26.92919 33.4154,-53.98139 47.9687,-82.19097 8.945,-16.513758 86.7916,25.65315 77.8466,42.16691 z" id="path9725" inkscape:connector-curvature="0" style="fill:#c83737;fill-opacity:1;fill-rule:nonzero;stroke:#f9f9f9;stroke-width:0.1;stroke-miterlimit:4;stroke-dasharray:none" transform="translate(-9216, 0)"/><path d="m 9785.9066,81.464602 c 19.446,23.747048 39.9183,46.562198 61.5397,68.339138 26.725,26.58776 55.4107,51.07218 83.7789,75.86091 23.0728,19.51283 44.4795,40.58809 60.7931,66.10494 7.3898,11.68035 9.7027,24.09066 11.5697,37.47975 1.177,18.76157 -87.2654,24.31175 -88.4428,5.55018 l 0,0 c 0.5039,1.68646 1.8888,6.62575 2.0365,4.87184 0.061,-0.72811 -0.3502,-1.4188 -0.5253,-2.12819 -9.7435,-18.88556 -28.2636,-31.7257 -43.0328,-46.33493 -29.6793,-26.23563 -59.7468,-52.08001 -87.9152,-79.96328 -22.6313,-22.69363 -44.1348,-46.3858 -65.3942,-70.3613 -12.6047,-13.91426 52.9877,-73.333323 65.5924,-59.419058 z" id="path9727" inkscape:connector-curvature="0" style="fill:#c83737;fill-opacity:1;fill-rule:nonzero;stroke:#f9f9f9;stroke-width:0.1;stroke-miterlimit:4;stroke-dasharray:none" transform="translate(-9216, 0)"/><path d="m 9821.6441,252.31393 c -24.7675,12.07341 -47.2025,28.35825 -69.4256,44.49887 -43.1322,31.83112 -82.431,68.40364 -121.2113,105.29811 -35.6184,34.21929 -70.3121,69.39096 -104.6325,104.90752 -14.4368,14.69933 -27.6008,30.52543 -40.2171,46.7864 -5.1694,6.50706 -1.5359,2.28401 -11.9063,11.72899 -15.3888,10.92491 -66.8893,-61.61828 -51.5005,-72.54319 l 0,0 c -7.7107,7.51361 -9.3462,9.36374 -5.4026,5.06906 15.0644,-17.81457 30.1718,-35.60737 46.8173,-51.99545 35.5186,-35.7603 71.2104,-71.35878 107.5767,-106.25883 41.4273,-39.39882 83.307,-78.52734 128.9762,-113.03704 26.4335,-19.64838 53.2615,-39.02352 82.5789,-54.21574 16.9199,-8.13458 55.2667,71.62672 38.3468,79.7613 z" id="path9765" inkscape:connector-curvature="0" style="fill:#c83737;fill-opacity:1;fill-rule:nonzero;stroke:#f9f9f9;stroke-width:0.1;stroke-miterlimit:4;stroke-dasharray:none" transform="translate(-9216, 0)"/><path d="m 9533.3838,166.15829 c 33.9591,26.20843 68.537,51.60862 103.0052,77.14137 49.6633,37.36506 100.4927,73.09875 152.3664,107.31633 43.9,27.6393 87.0264,56.34998 126.9204,89.56198 16.7463,13.92071 31.4706,29.82717 44.9147,46.88484 11.2943,14.88197 -58.86,68.12398 -70.1543,53.24201 l 0,0 c -8.8458,-12.49977 -19.3827,-23.56394 -30.9206,-33.64293 -36.8191,-31.64836 -77.3591,-58.24792 -118.1951,-84.40254 -52.9234,-35.16654 -104.8721,-71.73625 -155.9335,-109.56138 -35.0988,-25.59094 -70.1761,-51.21697 -105.6417,-76.29874 -14.9004,-11.37845 38.7382,-81.61939 53.6385,-70.24094 z" id="path9767" inkscape:connector-curvature="0" style="fill:#c83737;fill-opacity:1;fill-rule:nonzero;stroke:#f9f9f9;stroke-width:0.1;stroke-miterlimit:4;stroke-dasharray:none" transform="translate(-9216, 0)"/><path d="m 9468.6718,546.95245 c 38.06,-7.65579 76.3236,-14.14638 114.7352,-19.74838 46.7899,-6.63393 94.0032,-8.97953 141.2148,-9.15103 30.2665,-0.15856 60.2628,3.76101 90.1283,8.19122 15.3769,2.17662 30.701,4.71257 46.0942,6.77373 23.0679,2.26631 42.5591,12.53179 51.9984,35.46643 2.6468,6.43081 2.0368,13.75841 3.0551,20.63762 -2.819,25.55564 -15.1805,48.71444 -24.9181,72.19797 -11.4377,27.53499 -21.6238,55.55432 -31.0185,83.84419 -3.5564,10.79359 -6.7196,21.7052 -10.4745,32.43109 -6.525,17.61134 -89.5457,-13.14758 -83.0207,-30.75892 l 0,0 c 4.0326,-9.76092 6.6671,-20.05196 10.4046,-29.9266 10.3482,-29.78048 21.2021,-59.38161 32.9833,-88.62903 4.683,-11.70591 9.4045,-23.39663 14.0743,-35.10778 1.0288,-2.58002 1.969,-10.20301 3.1786,-7.70266 0.5435,1.12347 0.091,2.4944 0.1369,3.74159 3.4091,13.30231 11.957,33.15253 29.0636,32.79989 2.6469,-0.0546 -14.6089,-2.09937 -7.8198,-1.39053 -15.7241,-2.31293 -31.3946,-4.96628 -47.1002,-7.39884 -25.4622,-4.05421 -51.0091,-7.96036 -76.8661,-8.09235 -42.9273,-0.27857 -85.876,1.63731 -128.4095,7.7959 -36.1074,5.44238 -72.1585,11.52937 -107.6603,20.16329 -18.2724,4.19588 -38.052,-81.94092 -19.7796,-86.1368 z" id="path9779" inkscape:connector-curvature="0" style="fill:#c83737;fill-opacity:1;fill-rule:nonzero;stroke:#f9f9f9;stroke-width:0.1;stroke-miterlimit:4;stroke-dasharray:none" transform="translate(-9216, 0)"/><path d="m 9716.1125,613.34304 c -10.7498,20.11965 -17.0866,42.13595 -22.9919,64.0503 -6.5332,24.64446 -11.4933,49.6449 -16.3395,74.6603 -2.7749,12.59301 -1.283,6.42881 -4.4516,18.49843 -4.9701,18.07012 -90.1535,-5.35943 -85.1834,-23.42955 l 0,0 c 2.2585,-7.62187 1.1232,-3.46989 3.3102,-12.48174 5.6174,-26.76205 11.2225,-53.53274 18.1377,-79.99932 7.6853,-28.57917 16.4011,-56.9863 29.7585,-83.51103 8.9546,-16.4954 86.7147,25.71721 77.76,42.21261 z" id="path9781" inkscape:connector-curvature="0" style="fill:#c83737;fill-opacity:1;fill-rule:nonzero;stroke:#f9f9f9;stroke-width:0.1;stroke-miterlimit:4;stroke-dasharray:none" transform="translate(-9216, 0)"/><path d="m 9467.242,723.95916 c 36.5522,-0.6648 73.019,-3.60185 109.4699,-6.2236 44.958,-3.14133 89.9482,-5.80732 134.9536,-8.16726 29.1042,-1.85522 58.1829,-1.19717 87.0419,2.93695 9.9769,0.70692 20.9204,5.91829 30.1539,6.91555 18.5641,3.20542 3.4536,90.71755 -15.1105,87.51214 l 0,0 c -9.6297,-1.92064 -18.9775,-4.86815 -28.4997,-7.25561 -22.9534,-3.91283 -46.1629,-4.31183 -69.4055,-3.11355 -44.265,1.92864 -88.5113,4.33158 -132.6988,7.61001 -37.4896,2.88498 -74.9723,5.88777 -112.5065,8.14304 -18.7435,0.72091 -22.1418,-87.63676 -3.3983,-88.35767 z" id="path9783" inkscape:connector-curvature="0" style="fill:#c83737;fill-opacity:1;fill-rule:nonzero;stroke:#f9f9f9;stroke-width:0.1;stroke-miterlimit:4;stroke-dasharray:none" transform="translate(-9216, 0)"/><path d="m 9560.6467,620.64631 c -11.9117,23.52484 -20.5485,48.41349 -27.7006,73.7325 -8.4678,30.99934 -10.9541,63.06425 -12.7354,95.00844 -1.027,24.17696 -2.2201,48.4398 0.2791,72.55622 1.2639,10.15305 3.8709,19.59957 11.8669,26.28293 11.7269,8.74801 26.1921,12.86274 39.9882,17.11073 27.1351,8.23504 55.1573,12.64098 83.2581,15.90385 36.7984,4.6367 73.7329,2.63931 110.4928,-0.93395 39.7563,-4.59183 79.0109,-12.5005 118.2365,-20.27312 26.4558,-5.3292 53.0039,-10.18967 79.4719,-15.4541 9.4943,-1.82201 19.0708,-3.46638 27.9482,-7.39744 17.4336,-7.06013 50.7156,75.12395 33.2816,82.18408 l 0,0 c -14.436,5.63188 -29.3994,9.3954 -44.7254,11.73396 -26.4418,4.84394 -52.9335,9.41973 -79.3267,14.52913 -41.9743,8.01477 -83.9613,16.22766 -126.4471,21.09486 -42.8798,4.2044 -85.9798,6.4865 -128.9179,1.2693 -33.4573,-3.8226 -66.8027,-9.0845 -99.126,-18.79959 -28.6668,-8.84659 -57.1085,-19.32151 -78.7747,-41.03431 -19.7425,-22.48271 -32.2131,-47.92965 -34.8218,-78.12984 -2.4249,-28.56549 -1.6197,-57.18796 0.078,-85.78812 2.3657,-38.21473 5.7689,-76.51965 15.9524,-113.58874 8.471,-30.00762 18.6749,-59.4256 31.715,-87.78797 8.0146,-16.97209 88.0218,20.80909 80.0072,37.78118 z" id="path9785" inkscape:connector-curvature="0" style="fill:#c83737;fill-opacity:1;fill-rule:nonzero;stroke:#f9f9f9;stroke-width:0.1;stroke-miterlimit:4;stroke-dasharray:none" transform="translate(-9216, 0)"/></svg>