<?xml version="1.0" encoding="UTF-8" standalone="no"?>
<svg
   xmlns:dc="http://purl.org/dc/elements/1.1/"
   xmlns:cc="http://creativecommons.org/ns#"
   xmlns:rdf="http://www.w3.org/1999/02/22-rdf-syntax-ns#"
   xmlns:svg="http://www.w3.org/2000/svg"
   xmlns="http://www.w3.org/2000/svg"
   xmlns:sodipodi="http://sodipodi.sourceforge.net/DTD/sodipodi-0.dtd"
   xmlns:inkscape="http://www.inkscape.org/namespaces/inkscape"
   width="1024"
   height="1024"
   id="U7247"
   version="1.1"
   inkscape:version="0.48.0 r9654"
   sodipodi:docname="U+7247.svg">
  <metadata
     id="metadata11">
    <rdf:RDF>
      <cc:Work
         rdf:about="">
        <dc:format>image/svg+xml</dc:format>
        <dc:type
           rdf:resource="http://purl.org/dc/dcmitype/StillImage" />
      </cc:Work>
    </rdf:RDF>
  </metadata>
  <defs
     id="defs9" />
  <sodipodi:namedview
     pagecolor="#ffffff"
     bordercolor="#666666"
     borderopacity="1"
     objecttolerance="10"
     gridtolerance="10"
     guidetolerance="10"
     inkscape:pageopacity="0"
     inkscape:pageshadow="2"
     inkscape:window-width="640"
     inkscape:window-height="480"
     id="namedview7"
     showgrid="false"
     inkscape:zoom="0.27441406"
     inkscape:cx="512"
     inkscape:cy="512"
     inkscape:window-x="0"
     inkscape:window-y="25"
     inkscape:window-maximized="0"
     inkscape:current-layer="U7247" />
  <path
     style="fill:#c83737;fill-opacity:1;fill-rule:nonzero;stroke:#f9f9f9;stroke-width:0.1;stroke-miterlimit:4;stroke-dasharray:none"
     d="M 456.53125 190.375 C 442.66239 190.43041 431.72492 193.14437 430.8125 199.53125 C 427.569 234.19025 427.6946 269.0405 427 303.8125 C 426.6863 322.33195 425.7421 340.84136 424.5 359.3125 C 391.0395 362.72267 357.46122 365.92312 324.28125 371.5 C 324.45583 370.40584 324.63793 369.31291 324.8125 368.21875 C 331.6938 321.35275 337.1999 274.26625 345.625 227.65625 C 349.6488 209.34125 263.30495 190.3725 259.28125 208.6875 C 252.07685 257.7815 246.79545 307.1335 240.15625 356.3125 C 227.57495 441.3655 214.13305 526.2805 201.40625 611.3125 C 191.09375 679.8445 181.62125 748.493 173.96875 817.375 C 174.43975 836.463 164.82785 869.47625 170.15625 888.15625 C 172.23375 895.43925 175.61205 902.28075 178.34375 909.34375 C 205.02795 904.73875 231.72215 900.13725 258.40625 895.53125 C 262.7224 884.90372 233.80277 868.34194 209.03125 861.03125 C 223.34847 860.51082 237.65153 859.9889 251.96875 859.46875 C 256.40244 872.57144 257.81951 878.07512 258.09375 879.15625 C 257.93086 878.22113 257.41225 875.112 257.40625 871.21875 C 257.38335 856.14275 258.8853 841.132 260.125 826.125 C 264.5525 777.80137 270.22499 729.61 276.75 681.53125 C 284.15572 689.09861 291.25136 693.239 295.8125 690.40625 C 321.2019 675.29125 350.3318 668.58725 378.875 662.28125 C 421.4627 653.85225 464.81615 650.39525 508.15625 649.40625 C 518.74107 650.71025 543.04677 648.46042 558.25 651.90625 C 558.37047 654.30655 559.03256 662.05972 559.0625 662.6875 C 559.2607 666.8305 559.29085 670.978 559.40625 675.125 C 558.71465 718.541 554.83605 761.84425 551.96875 805.15625 C 549.05255 849.77325 547.02225 894.428 545.90625 939.125 C 545.61405 950.453 545.4905 961.794 545.375 973.125 C 545.5194 991.849 633.80055 991.1615 633.65625 972.4375 C 633.36725 961.8195 633.17015 951.1855 633.28125 940.5625 C 633.61445 897.3205 635.30315 854.11575 638.21875 810.96875 C 641.38965 764.93075 645.82215 718.93225 646.84375 672.78125 C 645.82225 633.33125 640.6577 594.5515 601.75 574.5625 C 570.8822 563.1665 538.4321 561.4355 505.6875 562.4375 C 456.9551 564.0645 408.2256 568.1755 360.3125 577.5625 C 336.23706 582.80075 312.11012 588.57833 288.96875 597 C 296.10581 549.55346 303.52208 502.13754 311.03125 454.75 C 314.70271 459.85299 318.57567 462.65291 322.28125 461.6875 C 359.57845 452.6025 397.983 449.057 436.0625 444.875 C 438.55311 444.60333 441.04003 444.35921 443.53125 444.09375 C 467.40585 449.02656 500.81837 447.92788 505.8125 438.03125 C 535.49863 435.38101 565.21927 432.97717 594.9375 430.71875 C 621.5025 428.48175 648.12335 427.1695 674.78125 427.3125 C 681.90805 427.3295 689.0148 427.234 696.125 427.75 C 714.9415 428.841 720.09775 340.1535 701.28125 339.0625 C 692.17985 338.6125 683.07565 338.72825 673.96875 339.03125 C 645.21625 339.65825 616.53565 341.53625 587.90625 344.28125 C 562.66475 346.46907 537.42173 348.66485 512.1875 350.9375 C 513.03224 335.87887 513.69417 320.80389 514 305.71875 C 514.7465 274.48175 514.5346 243.08425 518.375 212.03125 C 520.11688 199.83812 483.00816 190.26922 456.53125 190.375 z M 560.75 652.5625 C 563.71756 653.431 566.22991 654.58845 568.0625 656.09375 C 566.48618 657.29144 563.13454 654.51219 560.75 652.5625 z "
     id="path10376" />
</svg>
