<?xml version="1.0" encoding="UTF-8" standalone="no"?>
<svg
   xmlns:dc="http://purl.org/dc/elements/1.1/"
   xmlns:cc="http://creativecommons.org/ns#"
   xmlns:rdf="http://www.w3.org/1999/02/22-rdf-syntax-ns#"
   xmlns:svg="http://www.w3.org/2000/svg"
   xmlns="http://www.w3.org/2000/svg"
   xmlns:sodipodi="http://sodipodi.sourceforge.net/DTD/sodipodi-0.dtd"
   xmlns:inkscape="http://www.inkscape.org/namespaces/inkscape"
   width="1024"
   height="1024"
   id="U7231"
   version="1.1"
   inkscape:version="0.48.0 r9654"
   sodipodi:docname="U+7231.svg">
  <metadata
     id="metadata17">
    <rdf:RDF>
      <cc:Work
         rdf:about="">
        <dc:format>image/svg+xml</dc:format>
        <dc:type
           rdf:resource="http://purl.org/dc/dcmitype/StillImage" />
      </cc:Work>
    </rdf:RDF>
  </metadata>
  <defs
     id="defs15" />
  <sodipodi:namedview
     pagecolor="#ffffff"
     bordercolor="#666666"
     borderopacity="1"
     objecttolerance="10"
     gridtolerance="10"
     guidetolerance="10"
     inkscape:pageopacity="0"
     inkscape:pageshadow="2"
     inkscape:window-width="640"
     inkscape:window-height="480"
     id="namedview13"
     showgrid="false"
     inkscape:zoom="0.27441406"
     inkscape:cx="512"
     inkscape:cy="512"
     inkscape:window-x="0"
     inkscape:window-y="25"
     inkscape:window-maximized="0"
     inkscape:current-layer="U7231" />
  <path
     style="fill:#c83737;fill-opacity:1;fill-rule:nonzero;stroke:#f9f9f9;stroke-width:0.1;stroke-miterlimit:4;stroke-dasharray:none"
     d="M 697.59375 38.53125 C 663.83018 38.622127 631.79665 49.374011 600.4375 61.46875 C 546.6217 83.773756 494.66275 110.1619 443.96875 138.78125 C 394.73565 167.08135 347.7562 199.0035 302.3125 233 C 278.3138 251.19347 255.7229 271.16366 233.625 291.59375 C 233.1454 292.1332 218.4531 305.84113 220.8125 303.09375 C 204.9696 313.30844 253.12585 387.99595 268.96875 377.78125 C 278.32645 371.4428 286.4604 363.73189 294.3125 355.625 C 313.5805 336.87815 333.43515 318.69152 354.65625 302.15625 C 396.65295 269.97024 440.31715 239.98404 486.21875 213.59375 C 533.19755 187.07168 581.44565 162.81999 631.53125 142.65625 C 653.59605 134.28551 676.1825 125.36329 700.25 127.03125 C 718.9527 128.70113 726.8277 40.513633 708.125 38.84375 C 704.59422 38.614409 701.08653 38.521849 697.59375 38.53125 z M 691.625 180.84375 C 688.63616 180.91478 686.33367 181.82158 685 183.75 C 665.757 213.0223 646.68395 242.40233 628.09375 272.09375 C 613.76579 294.80597 600.46093 318.12751 588.34375 342.0625 C 581.08199 332.54563 573.82115 323.03586 566.34375 313.6875 C 548.55815 292.65409 529.77305 272.34712 507.78125 255.59375 C 492.43995 244.77412 441.43995 317.08661 456.78125 327.90625 C 472.99755 339.71925 486.2998 354.85262 499.0625 370.1875 C 508.5738 382.43086 517.70475 394.97739 526.84375 407.5 C 528.52465 409.92071 530.1959 412.32808 531.875 414.75 C 533.07637 416.42537 535.02275 417.29446 537.5 417.5 C 521.27275 418.11151 505.04821 419.16574 488.875 420.84375 C 473.64939 422.45344 458.44748 424.29969 443.28125 426.34375 C 453.92691 410.35442 460.40852 393.86887 453.78125 388.9375 C 447.77595 386.09711 444.1437 379.30036 438.8125 375.59375 C 424.2205 361.83626 409.75735 347.93132 396.28125 333.0625 C 383.00325 319.78452 320.4095 382.37827 333.6875 395.65625 C 347.32775 409.49924 361.16621 423.13529 375.15625 436.625 C 371.6874 437.19248 368.21753 437.76671 364.75 438.34375 C 334.6007 443.28155 304.53545 448.86613 274.21875 452.6875 C 266.35419 453.59745 263.60528 469.77345 264.46875 488 C 241.23492 475.63176 195.43643 467.50285 192 480.65625 C 185.3262 505.61703 177.56205 530.2687 170.40625 555.09375 C 163.32045 578.65999 158.842 602.80198 158.375 627.40625 C 158.7485 637.57238 158.3757 632.52969 159.4375 642.625 C 161.822 661.28047 249.7594 650.03048 247.375 631.375 C 246.7985 629.39734 247.1297 630.68319 246.8125 627.40625 C 245.917 611.0416 250.55345 594.95356 254.59375 579.28125 C 259.82125 560.98608 265.4041 542.77798 271 524.59375 C 274.46346 534.50586 279.07201 541.17607 284.375 540.5625 C 315.9865 535.48217 347.46165 529.58022 379.03125 524.25 C 409.92571 518.97667 440.87082 514.15638 471.96875 510.34375 C 460.26218 530.12978 448.22691 549.7422 436.21875 569.34375 C 432.35571 575.53563 428.48565 581.71319 424.625 587.90625 C 415.47501 589.05063 406.34135 590.33761 397.21875 591.75 C 359.96745 597.22019 322.8339 603.39681 285.6875 609.53125 C 267.2624 613.02085 283.6999 699.89584 302.125 696.40625 C 323.00055 692.09034 343.98195 688.24435 365 684.6875 C 361.32871 690.74946 357.64448 696.79632 354 702.875 C 332.7461 738.11276 312.6807 774.02567 295.125 811.25 C 287.297 823.88183 284.83581 840.37271 275.71875 852.3125 C 267.75097 868.33275 326.88314 926.48631 339.75 913.59375 C 344.0087 908.79695 348.1569 904.10045 351.3125 898.46875 C 360.5145 882.34611 367.2025 865.04003 374.5625 848.03125 C 388.36067 817.54438 404.27408 788.09432 421.15625 759.21875 C 425.39897 770.7119 430.91753 778.68234 436.75 777.65625 C 461.9413 772.32453 487.6846 770.57543 513.3125 768.75 C 540.9879 766.42888 568.62135 766.96284 596.09375 770.84375 C 597.31252 771.03636 598.5347 771.25955 599.75 771.46875 C 575.8579 789.96834 552.12475 808.63414 528.75 827.78125 C 525.21593 826.47462 521.6663 825.16349 518.125 823.875 C 489.6285 813.30481 461.2945 802.28415 432.375 792.90625 C 414.293 787.85631 390.4805 873.10632 408.5625 878.15625 C 423.76033 882.55854 438.71202 887.73621 453.59375 893.125 C 447.58374 898.6938 441.59172 904.28615 435.65625 909.9375 C 420.50205 924.40983 406.0642 939.59419 391.9375 955.0625 C 387.942 959.48112 389.7241 957.52692 386.5625 960.875 C 373.9564 974.85796 439.8939 1034.2955 452.5 1020.3125 C 456.0915 1016.1892 454.2416 1018.3033 458 1013.9062 C 470.2379 999.78638 482.9236 986.07503 496.3125 973.03125 C 512.32152 957.48543 528.62625 942.29186 545.375 927.5625 C 560.21868 933.56676 574.9643 939.83195 589.5625 946.4375 C 612.8109 956.7352 634.44875 970.0284 655.21875 984.59375 C 663.45205 990.51536 671.5411 996.60499 679.4375 1002.9688 C 694.2016 1014.5473 748.79535 944.95349 734.03125 933.375 C 724.57665 926.11176 714.92855 919.08088 705.15625 912.25 C 679.79525 894.95154 653.47465 879.09298 625.28125 866.78125 C 624.05439 866.23532 622.82215 865.69837 621.59375 865.15625 C 634.19464 855.36179 646.88952 845.68463 659.65625 836.09375 C 676.19495 822.78388 693.1766 809.60618 706.625 793.03125 C 722.7786 770.467 730.7471 748.76633 717.0625 721.625 C 702.1412 705.58535 691.8173 699.30397 670.5625 697 C 649.7133 692.26581 628.9579 686.90793 607.75 683.9375 C 574.3657 679.64913 540.80515 678.72897 507.21875 681.53125 C 493.50614 682.47187 479.80956 683.45152 466.125 684.75 C 469.23791 679.70835 472.37108 674.68808 475.5 669.65625 C 498.92522 667.77909 522.41541 666.78408 545.9375 666.5 C 580.5114 666.9377 615.03755 669.30283 649.59375 670.34375 C 666.91245 670.53343 684.24525 671.39925 701.53125 670 L 708.03125 669 C 725.92464 665.32076 709.66894 583.50159 691.84375 581.84375 C 678.61602 583.83703 664.98548 581.97539 651.6875 582.71875 C 615.9867 582.11223 580.3375 579.7547 544.625 579.6875 C 540.27947 579.7674 535.9373 579.87744 531.59375 580 C 543.18921 561.32998 554.76044 542.65396 566.28125 523.9375 C 569.13283 519.12251 564.34838 511.72596 556 504.15625 C 572.41538 503.84204 588.83241 503.91773 605.25 504.15625 C 632.9062 504.26856 660.52745 505.14593 688.03125 508.09375 C 706.36735 510.44407 724.60185 513.45412 742.84375 516.4375 C 748.88478 517.30433 754.89637 518.28654 760.84375 519.5625 C 754.14682 533.28062 747.62064 547.0844 741.34375 561 C 734.10565 576.29758 728.7752 592.38453 721.9375 607.84375 C 714.642 625.10053 795.98565 659.50677 803.28125 642.25 C 809.44625 627.22349 814.68805 611.83517 821.40625 597.03125 C 830.23435 577.35187 839.7962 558.00725 849.875 538.9375 C 860.4661 518.52683 868.7623 498.32654 858.6875 475.40625 C 849.4036 460.1786 837.6875 448.59427 820.3125 443.125 C 811.6729 440.32524 802.8704 438.58216 794.0625 436.46875 C 781.7645 433.15061 769.2546 430.87802 756.625 429.21875 C 736.7526 426.18575 716.9067 423.0242 696.9375 420.6875 C 681.46323 419.18077 665.95515 418.21545 650.4375 417.625 C 651.12365 416.98098 651.64282 416.19011 651.96875 415.3125 C 654.90545 406.91914 653.28915 411.35002 656.84375 402.09375 C 669.54875 373.02166 684.7551 345.17901 701.6875 318.34375 C 719.6855 289.80735 738.06075 261.4589 757.71875 234.03125 C 767.05447 220.53233 712.54685 180.34651 691.625 180.84375 z M 691.84375 581.84375 C 692.07504 581.8089 692.30022 581.78726 692.53125 581.75 C 692.1859 581.77561 691.84538 581.81812 691.5 581.84375 C 691.6171 581.84768 691.72678 581.83287 691.84375 581.84375 z M 691.5 581.84375 C 691.04147 581.82836 690.58479 581.84296 690.125 581.9375 C 690.58471 581.90339 691.04031 581.87786 691.5 581.84375 z M 275.71875 852.3125 C 275.8254 852.09807 275.93153 851.88657 276.0625 851.6875 C 275.08651 852.90863 274.47507 853.73982 274.34375 853.90625 C 274.66464 853.53355 275.06835 853.1001 275.375 852.78125 C 275.49632 852.62695 275.59972 852.46838 275.71875 852.3125 z M 578.0625 398.96875 C 587.5655 406.03763 602.93316 412.8814 617.25 416.90625 C 613.61507 416.88241 609.98011 416.86829 606.34375 416.875 C 584.61038 416.64293 562.87565 416.64095 541.15625 417.375 C 550.75899 416.17152 565.26198 408.43547 578.0625 398.96875 z M 789.78125 526.4375 C 790.34649 526.63085 790.91814 526.82857 791.46875 527.0625 C 791.0804 527.17063 790.50311 526.91568 789.78125 526.4375 z M 662.40625 785.46875 C 666.44691 786.21712 669.37865 786.77162 665.6875 786.15625 C 664.53283 785.96374 663.44576 785.73065 662.40625 785.46875 z "
     id="path9671" />
</svg>
