<?xml version="1.0" encoding="UTF-8" standalone="no"?>
<svg
   xmlns:dc="http://purl.org/dc/elements/1.1/"
   xmlns:cc="http://creativecommons.org/ns#"
   xmlns:rdf="http://www.w3.org/1999/02/22-rdf-syntax-ns#"
   xmlns:svg="http://www.w3.org/2000/svg"
   xmlns="http://www.w3.org/2000/svg"
   xmlns:sodipodi="http://sodipodi.sourceforge.net/DTD/sodipodi-0.dtd"
   xmlns:inkscape="http://www.inkscape.org/namespaces/inkscape"
   width="1024"
   height="1024"
   id="U732A"
   version="1.1"
   inkscape:version="0.48.0 r9654"
   sodipodi:docname="U+732A.svg">
  <metadata
     id="metadata18">
    <rdf:RDF>
      <cc:Work
         rdf:about="">
        <dc:format>image/svg+xml</dc:format>
        <dc:type
           rdf:resource="http://purl.org/dc/dcmitype/StillImage" />
      </cc:Work>
    </rdf:RDF>
  </metadata>
  <defs
     id="defs16" />
  <sodipodi:namedview
     pagecolor="#ffffff"
     bordercolor="#666666"
     borderopacity="1"
     objecttolerance="10"
     gridtolerance="10"
     guidetolerance="10"
     inkscape:pageopacity="0"
     inkscape:pageshadow="2"
     inkscape:window-width="640"
     inkscape:window-height="480"
     id="namedview14"
     showgrid="false"
     inkscape:zoom="0.27441406"
     inkscape:cx="512"
     inkscape:cy="512"
     inkscape:window-x="0"
     inkscape:window-y="25"
     inkscape:window-maximized="0"
     inkscape:current-layer="U732A" />
  <path
     style="fill:#2b1100;fill-opacity:1;fill-rule:nonzero;stroke:none"
     d="M 654.46875 142 C 638.83346 142.15768 626.00125 145.2555 625.28125 152.25 C 622.75886 190.99127 621.83036 229.81271 621.21875 268.625 C 609.36544 270.26322 597.48296 271.89211 585.625 273.5 C 548.4814 278.899 511.3146 284.67075 474.9375 294.09375 C 456.9312 299.33975 481.6812 384.21475 499.6875 378.96875 C 531.9151 369.42675 565.24495 364.34125 598.40625 359.28125 C 606.10334 358.17823 613.80196 357.09633 621.5 356 C 622.00646 375.23629 622.92958 394.46642 624.5 413.65625 C 625.0138 418.15125 625.51745 422.66125 626.03125 427.15625 C 626.88882 433.78947 638.68192 436.55035 653.3125 436.5625 C 612.61311 440.61408 571.93953 444.78444 531.25 448.9375 C 488.5598 453.4675 445.94525 458.763 403.28125 463.5 C 384.62905 465.379 393.50405 553.3165 412.15625 551.4375 C 454.87995 544.9345 497.72215 539.4585 540.65625 534.5625 C 565.94667 531.81059 591.25778 529.14395 616.5625 526.53125 C 584.27752 559.37702 552.72328 592.9596 521.53125 626.84375 C 494.47465 657.26375 466.3769 686.88625 441.1875 718.90625 C 431.1161 730.99425 426.287 744.431 423.4375 759.625 C 421.78125 777.50848 502.05968 785.79056 511.09375 770.28125 C 509.39037 775.1014 506.41703 782.07588 511.21875 772.21875 C 523.94201 754.75264 537.93066 738.25318 552.15625 721.96875 C 552.61582 738.15573 553.50839 754.34375 554.53125 770.5 C 556.68925 805.611 562.38935 840.3045 572.21875 874.0625 C 575.16565 885.4355 580.6624 895.20175 586.75 905.09375 C 588.49735 907.55245 591.81604 908.29909 596.125 907.75 C 601.25364 924.56378 608.86888 938.09164 616.375 936.4375 C 649.5583 929.4085 683.5553 927.24925 717.3125 924.78125 C 764.692 921.47625 812.1356 919.4165 859.625 920.5625 C 879.5962 921.2865 899.3847 923.94925 918.8125 928.53125 C 937.0016 932.44925 955.47035 846.7315 937.28125 842.8125 C 935.63926 842.48119 933.98803 842.19206 932.34375 841.875 C 933.81383 835.10426 935.30166 828.33479 936.90625 821.59375 C 944.09045 790.16975 951.4622 758.70425 955.3125 726.65625 C 958.0751 693.97825 956.73515 662.33075 932.34375 637.46875 C 908.54815 617.59275 880.9623 607.6625 850.3125 603.1875 C 808.3431 596.6465 765.973 594.00675 723.5 596.34375 C 703.44825 597.22685 683.38303 598.29809 663.375 599.875 C 690.60509 571.60399 718.47322 543.97351 747.28125 517.28125 C 748.6734 516.00818 750.07478 514.73994 751.46875 513.46875 C 795.24659 509.5944 839.02468 505.72962 882.8125 501.96875 C 907.8698 500.09875 932.9313 497.73075 958.0625 497.09375 C 959.4681 497.10375 960.87565 497.115 962.28125 497.125 C 981.06245 496.796 979.49995 408.26475 960.71875 408.59375 C 958.53285 408.67075 956.3734 408.7325 954.1875 408.8125 C 927.7133 410.3595 901.31345 413.02125 874.90625 415.40625 C 871.40767 415.74586 867.90491 416.09869 864.40625 416.4375 C 878.64233 405.17339 893.07152 394.17135 907.78125 383.5 C 935.34935 363.345 962.91695 342.85175 992.65625 325.96875 C 1009.0973 316.89175 966.316 239.39175 949.875 248.46875 C 917.3449 268.30975 886.79505 291.2195 856.34375 314.0625 C 853.99036 315.81122 851.65383 317.58012 849.3125 319.34375 C 857.79481 298.94837 846.4555 235.69757 830.625 237.9375 C 828.5198 238.2805 826.4177 238.62575 824.3125 238.96875 C 794.0367 243.87275 763.6081 247.7815 733.3125 252.5625 C 724.87124 253.81821 716.41299 255.04784 707.96875 256.28125 C 708.68947 224.57292 709.8755 192.85651 713.21875 161.3125 C 714.41869 149.65563 680.52757 141.7372 654.46875 142 z M 209.65625 169.875 C 190.30244 171.06804 143.81144 226.86625 156.625 238.03125 C 181.4549 261.83725 198.0614 292.4645 214.1875 322.4375 C 221.04317 335.75297 227.36072 349.30325 233.21875 363.03125 C 219.83446 381.23996 206.64542 399.58256 193.3125 417.8125 C 177.25 440.4655 159.4483 461.8185 142.6875 483.9375 C 138.5321 489.1815 135.01135 494.8265 131.59375 500.5625 C 122.35905 516.9665 199.67165 560.49775 208.90625 544.09375 C 210.33135 541.43275 211.7034 538.66875 213.75 536.34375 C 230.0228 513.51675 247.65055 491.6805 263.53125 468.5625 C 265.09694 466.36984 266.65535 464.16384 268.21875 461.96875 C 270.47142 469.52338 272.64101 477.1022 274.78125 484.6875 C 280.02406 503.99064 284.58555 523.43795 288.59375 543 C 284.69692 541.73483 281.47408 541.84435 279.34375 543.8125 C 254.45075 567.3785 233.2811 594.20275 213.6875 622.21875 C 189.3021 658.83875 171.7156 699.2685 154.75 739.6875 C 144.7083 759.5245 140.04755 782.4185 128.09375 801.3125 C 119.05095 817.7465 196.5198 860.3715 205.5625 843.9375 C 217.4221 821.2115 225.27615 796.76425 235.15625 773.15625 C 249.45975 738.43525 264.2962 703.6445 285.0625 672.1875 C 291.51927 662.98076 298.16655 653.92782 305.1875 645.15625 C 305.39317 646.77021 305.57961 648.38555 305.78125 650 C 311.25065 693.85 313.52865 737.975 312.03125 782.125 C 311.46625 803.419 308.848 824.51175 303.9375 845.21875 C 298.81801 858.39829 302.83694 849.3125 308.625 843.09375 C 298.89303 858.22274 340.22362 926.66109 355.625 917.59375 C 374.361 904.15975 385.8627 887.456 390.0625 864.5 C 395.7156 838.144 398.79815 811.38725 399.15625 784.40625 C 400.11935 735.85725 397.5353 687.3765 391.375 639.1875 C 383.7204 579.2495 373.3905 519.6485 357.375 461.3125 C 349.28666 432.82268 340.56673 404.48694 330.65625 376.59375 C 340.3274 364.17297 350.25329 351.95236 360.59375 340.0625 C 384.53795 313.8595 409.1689 287.187 440.125 269.125 C 456.5462 260.065 413.8587 182.65875 397.4375 191.71875 C 358.526 215.37075 327.0299 248.58275 296.75 282.09375 C 295.44212 283.60763 294.14057 285.13357 292.84375 286.65625 C 292.02032 285.00914 291.18159 283.3598 290.34375 281.71875 C 269.35855 242.25775 247.11485 202.783 214.71875 171.375 C 213.39321 170.22009 211.65837 169.75158 209.65625 169.875 z M 840.84375 325.78125 C 797.82648 358.70374 756.78143 394.03982 716.625 430.375 C 704.64386 431.5141 692.66531 432.67137 680.6875 433.84375 C 698.79369 430.34313 714.17878 423.78409 713.15625 415.875 C 712.64065 412.409 712.1406 408.93575 711.625 405.46875 C 709.39563 384.95433 708.26233 364.36555 707.75 343.75 C 720.42886 341.95438 733.10397 340.15069 745.78125 338.34375 C 776.10865 333.82775 806.56595 330.198 836.96875 326.25 C 838.26338 326.09577 839.54909 325.93518 840.84375 325.78125 z M 754.78125 682.40625 C 782.0921 682.43658 809.30517 684.79 836.28125 689.40625 C 846.52325 692.90825 866.67685 693.10175 872.65625 702.59375 C 872.36905 702.99275 869.2887 700.92175 869.1875 701.09375 C 867.5034 703.96375 868.05095 716.78725 867.84375 719.15625 C 864.48595 747.10125 857.97245 774.53325 851.59375 801.90625 C 848.72264 812.34435 846.64637 823.01923 844.3125 833.625 C 799.93447 833.48563 755.61098 835.49413 711.3125 838.34375 C 692.38617 839.5925 673.42904 840.83766 654.53125 842.59375 C 651.16396 831.36802 648.55789 819.95302 646.53125 808.4375 C 669.36717 798.83736 693.71683 793.62293 718.125 789.71875 C 744.6444 786.24575 771.4766 787.02525 797.4375 793.53125 C 805.3042 796.22125 802.28635 794.58025 806.96875 797.53125 C 824.05905 805.16225 860.0278 724.59875 842.9375 716.96875 C 825.8193 709.97175 834.53255 713.005 816.71875 707.875 C 779.60845 700.059 741.7805 698.1025 704.125 703.6875 C 682.27196 707.29276 660.52952 711.76196 639.34375 718.0625 C 639.21184 708.85267 639.31757 699.63344 639.78125 690.4375 C 668.79821 686.10517 698.15276 684.53637 727.4375 683.15625 C 736.55678 682.64075 745.67763 682.39614 754.78125 682.40625 z "
     id="path15233" />
</svg>
