<?xml version="1.0" encoding="UTF-8" standalone="no"?>
<svg
   xmlns:dc="http://purl.org/dc/elements/1.1/"
   xmlns:cc="http://creativecommons.org/ns#"
   xmlns:rdf="http://www.w3.org/1999/02/22-rdf-syntax-ns#"
   xmlns:svg="http://www.w3.org/2000/svg"
   xmlns="http://www.w3.org/2000/svg"
   xmlns:sodipodi="http://sodipodi.sourceforge.net/DTD/sodipodi-0.dtd"
   xmlns:inkscape="http://www.inkscape.org/namespaces/inkscape"
   width="1024"
   height="1024"
   id="U73ED"
   version="1.1"
   inkscape:version="0.48.0 r9654"
   sodipodi:docname="U+73ED.svg">
  <metadata
     id="metadata17">
    <rdf:RDF>
      <cc:Work
         rdf:about="">
        <dc:format>image/svg+xml</dc:format>
        <dc:type
           rdf:resource="http://purl.org/dc/dcmitype/StillImage" />
      </cc:Work>
    </rdf:RDF>
  </metadata>
  <defs
     id="defs15" />
  <sodipodi:namedview
     pagecolor="#ffffff"
     bordercolor="#666666"
     borderopacity="1"
     objecttolerance="10"
     gridtolerance="10"
     guidetolerance="10"
     inkscape:pageopacity="0"
     inkscape:pageshadow="2"
     inkscape:window-width="640"
     inkscape:window-height="480"
     id="namedview13"
     showgrid="false"
     inkscape:zoom="0.27441406"
     inkscape:cx="512"
     inkscape:cy="512"
     inkscape:window-x="0"
     inkscape:window-y="25"
     inkscape:window-maximized="0"
     inkscape:current-layer="U73ED" />
  <path
     style="fill:#aa0000;fill-opacity:1;fill-rule:nonzero;stroke:#f9f9f9;stroke-width:0.1;stroke-miterlimit:4;stroke-dasharray:none"
     d="M 831.15625 202.0625 C 783.06315 203.7469 736.64045 215.38445 690.03125 226.71875 C 672.16745 231.26305 693.60495 315.45055 711.46875 310.90625 C 712.06248 310.75284 712.65614 310.59192 713.25 310.4375 C 701.35554 349.10241 695.5732 389.16609 692.40625 429.5625 C 689.03083 429.81669 685.66764 430.01892 682.28125 430.1875 C 663.88295 430.4684 665.19555 517.2184 683.59375 516.9375 C 685.39054 516.80152 687.2061 516.62393 689 516.46875 C 688.69096 586.49172 691.61164 656.50135 696.53125 726.34375 C 697.52591 741.70135 699.12026 756.96123 701.25 772.125 C 650.4825 785.48919 599.60876 798.5243 548 808.15625 C 547.87016 808.18022 547.75137 808.21765 547.625 808.25 C 551.13202 792.38275 554.55646 776.53484 558.75 761.03125 C 578.0756 671.19315 594.13905 580.55215 598.84375 488.59375 C 603.14535 402.78665 604.9464 316.6646 595.0625 231.125 C 592.4808 212.9172 506.6683 225.07345 509.25 243.28125 C 519.25382 306.37814 519.95146 370.2565 517.84375 433.96875 C 509.5325 416.05698 502.39081 396.50486 496.25 384.53125 C 489.1756 367.52255 408.988 400.89755 416.0625 417.90625 C 433.9002 456.36215 450.04235 496.03815 477.28125 528.90625 C 482.81684 535.04761 498.8225 526.76111 513.71875 514.5 C 507.52613 591.55552 493.31884 667.58985 476.5 743 C 469.0345 773.0548 462.26855 803.32975 453.21875 832.96875 C 451.34805 839.09555 449.32765 845.1835 447.09375 851.1875 C 445.99139 854.15037 445.41987 856.32016 445.0625 857.9375 C 463.21249 838.61014 453.15755 846.35797 495.125 854.71875 C 472.69801 859.75396 427.35855 899.76505 437.0625 911.78125 C 502.2946 929.33965 478.4757 939.3819 514.6875 909.125 C 526.78165 887.19201 534.30493 863.46028 540.40625 839.21875 C 542.52189 864.44576 552.69323 895.4788 563.75 893.4375 C 615.65129 881.4932 667.07331 867.69807 718.53125 854 C 720.01178 859.2238 721.53562 864.43219 723.15625 869.625 C 728.85765 887.0318 810.92015 860.1568 805.21875 842.75 C 804.01847 839.29497 802.85861 835.82069 801.75 832.34375 C 859.74577 818.86228 918.71729 805.40234 978.59375 808 C 968.66415 804.30058 971.5295 804.68479 976.96875 806.125 C 964.74382 794.73433 966.86902 767.00083 968.96875 756.46875 C 969.86059 751.99565 974.02722 749.05438 977.40625 745.75 C 968.55116 761.20562 1011.5676 827.08245 1026.4375 817.625 C 1032.9043 811.444 1042.7823 807.51055 1045.8125 799.09375 C 1066.2826 742.23405 1024.6597 724.26595 980.21875 721.78125 C 913.63822 721.74081 848.22122 734.64086 783.78125 750.625 C 782.46298 740.537 781.44178 730.40856 780.6875 720.21875 C 775.28171 648.23789 772.48117 576.03492 773.40625 503.84375 C 801.48768 498.42843 829.48591 492.42691 857.65625 487.625 C 861.96905 488.7721 877.76395 482.8626 883.09375 486.75 C 901.56505 488.5333 909.9713 401.43955 891.5 399.65625 C 874.9092 398.90845 858.5977 399.5925 842.25 403.125 C 820.87994 407.2529 799.56349 411.98785 778.1875 416.375 C 782.18796 379.17737 789.80461 342.58885 806.0625 308.28125 C 808.29597 303.66542 803.82766 297.40106 796.0625 291.125 C 808.16705 289.34875 820.36755 288.30492 832.6875 288.4375 C 834.9391 289.0483 837.1859 289.67055 839.4375 290.28125 C 857.6445 293.01965 870.55075 207.1758 852.34375 204.4375 C 845.27795 203.6468 838.22205 202.8532 831.15625 202.0625 z M 976.96875 806.125 C 980.43971 809.35909 985.07578 811.26016 991.1875 811.09375 C 993.52481 811.03013 983.4026 807.82856 976.96875 806.125 z M 445.0625 857.9375 C 443.86063 859.21734 442.56665 860.59953 441.09375 862.125 C 444.93503 862.50517 444.03345 862.5946 445.0625 857.9375 z M 334.625 221.84375 C 329.13583 221.89659 323.61535 222.17832 318.03125 222.78125 C 259.89405 227.04305 202.10805 234.5604 145.15625 247.25 C 127.49665 251.28654 145.83411 333.04828 163.53125 332.1875 C 146.4493 385.11228 147.71694 441.72431 151.78125 497.40625 C 144.50942 496.59109 137.24479 495.40013 130.03125 493.75 C 113.04985 486.6381 79.54985 566.66935 96.53125 573.78125 C 118.11408 579.88666 139.89989 582.77146 161.78125 583.4375 C 167.90352 636.07475 172.86869 688.79184 174.59375 741.84375 C 174.72521 769.29208 174.89989 771.17003 174.6875 779 C 143.25317 806.72896 115.57771 838.2428 95 876.21875 C 86.8837 892.73115 164.72745 930.98115 172.84375 914.46875 C 200.30935 860.74055 247.90365 824.7493 297.03125 792.1875 C 343.50735 762.4059 392.64 737.2349 442 712.6875 C 445.984 710.5358 449.9534 708.37045 453.9375 706.21875 C 470.0075 697.13725 427.1951 621.38715 411.125 630.46875 C 408.1624 632.24275 405.2125 634.00715 402.25 635.78125 C 353.6638 661.89611 304.80108 687.6386 258.0625 717 C 255.6388 670.21957 251.1418 623.65607 245.75 577.15625 C 267.41768 573.77393 288.97844 569.43756 310.28125 565.125 C 332.94165 560.4611 355.49495 555.25805 378.28125 551.21875 C 384.09395 550.18835 390.41755 550.99705 395.78125 548.53125 C 404.07575 544.71805 411.82575 539.8023 419.84375 535.4375 C 431.92728 522.99528 378.38341 469.26593 360.1875 472.28125 C 366.56968 469.15169 373.04087 466.19677 379.125 462.53125 C 380.8179 461.51135 375.3049 463.5113 373.375 463.9375 C 369.165 464.8673 364.93105 465.67425 360.71875 466.59375 C 338.11135 471.52855 315.62515 476.97365 293.03125 481.96875 C 274.26731 485.96136 255.14268 490.11906 235.875 493.3125 C 231.90643 442.31684 228.96618 388.84677 252.4375 341.9375 C 255.99942 336.16471 248.24165 326.33536 236.53125 317 C 265.4038 312.5933 294.53253 309.86205 323.71875 308.125 C 336.77415 308.3811 350.68755 306.2633 363.03125 311.5 C 380.94655 315.8636 401.50905 231.39485 383.59375 227.03125 C 367.2319 223.79455 351.09252 221.68524 334.625 221.84375 z "
     id="path19645" />
</svg>
