<?xml version="1.0" encoding="utf-8" ?>

<!DOCTYPE svg PUBLIC "-//W3C//DTD SVG 1.1//EN" 
  "http://www.w3.org/Graphics/SVG/1.1/DTD/svg11.dtd">
<svg 
    xmlns="http://www.w3.org/2000/svg"
    xmlns:xlink="http://www.w3.org/1999/xlink"
    xmlns:sodipodi="http://sodipodi.sourceforge.net/DTD/sodipodi-0.dtd"
    xmlns:inkscape="http://www.inkscape.org/namespaces/inkscape"
    width="1024" height="1024" id="U74F6">
<path d="m 11481.336,37095.647 c 12.044,23.431 26.812,45.113 43.531,65.412 11.156,13.373 24.152,24.769 38.302,34.812 14.964,11.021 -36.992,81.559 -51.956,70.538 l 0,0 c -19.673,-14.821 -38.279,-30.863 -53.965,-49.999 -19.733,-24.221 -37.42,-49.819 -52.836,-77.022 -9.279,-16.318 67.645,-60.059 76.924,-43.741 z" id="path10512" inkscape:connector-curvature="0" style="fill:#c83737;fill-opacity:1;fill-rule:nonzero;stroke:#f9f9f9;stroke-width:0.1;stroke-miterlimit:4;stroke-dasharray:none" transform="translate(-11264, -36864)"/><path d="m 11751.341,37128.374 c -28.178,22.747 -51.278,50.806 -73.541,79.148 -23.039,30.562 -43.965,62.636 -65.326,94.373 -10.324,15.256 -82.239,-33.411 -71.915,-48.667 l 0,0 c 22.658,-33.299 44.846,-66.955 69.097,-99.132 26.288,-33.585 53.772,-66.399 86.105,-94.417 14.572,-11.79 70.152,56.904 55.58,68.695 z" id="path10514" inkscape:connector-curvature="0" style="fill:#c83737;fill-opacity:1;fill-rule:nonzero;stroke:#f9f9f9;stroke-width:0.1;stroke-miterlimit:4;stroke-dasharray:none" transform="translate(-11264, -36864)"/><path d="m 11306.686,37372.202 c 33.557,-33.586 81.044,-43.545 125.709,-53.749 62.115,-12.643 124.715,-22.731 187.123,-33.803 48.55,-8.8 97.191,-17.085 145.775,-25.699 4.469,-0.744 8.938,-1.489 13.407,-2.233 18.408,-2.781 31.518,83.996 13.11,86.777 l 0,0 c -4.076,0.546 -8.151,1.093 -12.227,1.639 -48.472,7.476 -96.88,15.382 -145.165,23.986 -60.912,10.682 -121.985,20.66 -182.489,33.499 -26.064,6.16 -53.637,11.45 -76.751,25.697 -11.903,14.53 -80.395,-41.584 -68.492,-56.114 z" id="path10516" inkscape:connector-curvature="0" style="fill:#c83737;fill-opacity:1;fill-rule:nonzero;stroke:#f9f9f9;stroke-width:0.1;stroke-miterlimit:4;stroke-dasharray:none" transform="translate(-11264, -36864)"/><path d="m 11370.98,37561.263 c 34.846,-5.803 68.961,-15.617 103.28,-23.934 60.995,-15.045 123.17,-24.139 185.422,-32.024 40.029,-5.211 80.316,-8.178 120.354,-13.283 1.798,-0.342 3.596,-0.683 5.393,-1.025 18.553,-2.69 31.234,84.769 12.681,87.459 l 0,0 c -2.875,0.336 -5.751,0.672 -8.626,1.008 -39.74,3.586 -79.556,6.401 -119.182,11.185 -58.895,7.192 -117.716,15.703 -175.266,30.486 -38.191,9.687 -76.042,21.14 -114.83,28.198 -18.682,1.957 -27.909,-86.113 -9.226,-88.07 z" id="path10518" inkscape:connector-curvature="0" style="fill:#c83737;fill-opacity:1;fill-rule:nonzero;stroke:#f9f9f9;stroke-width:0.1;stroke-miterlimit:4;stroke-dasharray:none" transform="translate(-11264, -36864)"/><path d="m 11566.285,37349.626 c -10.917,41.741 -17.694,84.432 -24.082,127.055 -9.566,63.981 -12.958,128.602 -13.874,193.216 1.046,35.879 -1.047,72.329 4.244,107.972 1.989,18.604 -85.71,27.979 -87.699,9.376 l 0,0 c -3.189,-39.527 -2.557,-79.264 -2.441,-118.881 1.454,-68.218 5.197,-136.423 14.803,-204.039 6.43,-45.535 13.471,-91.013 23.174,-135.984 4.515,-18.217 90.39,3.068 85.875,21.285 z" id="path10520" inkscape:connector-curvature="0" style="fill:#c83737;fill-opacity:1;fill-rule:nonzero;stroke:#f9f9f9;stroke-width:0.1;stroke-miterlimit:4;stroke-dasharray:none" transform="translate(-11264, -36864)"/><path d="m 11693.931,37378.063 c -10.753,42.299 -14.185,86.101 -18.318,129.428 -5.988,63.958 -9.325,128.114 -11.763,192.291 -1.408,38.388 -1.347,76.835 1.543,115.149 1.071,18.617 -86.689,23.666 -87.76,5.05 l 0,0 c -1.723,-41.233 -1.649,-82.513 0.277,-123.744 2.915,-65.587 6.54,-131.149 12.213,-196.563 4.239,-48.383 8.048,-97.054 18.448,-144.592 4.875,-18.108 90.235,4.874 85.36,22.981 z" id="path10522" inkscape:connector-curvature="0" style="fill:#c83737;fill-opacity:1;fill-rule:nonzero;stroke:#f9f9f9;stroke-width:0.1;stroke-miterlimit:4;stroke-dasharray:none" transform="translate(-11264, -36864)"/><path d="m 11789.829,37167.469 c 33.276,-6.249 66.85,-10.72 100.353,-15.539 57.647,-8.532 115.354,-16.612 173.147,-24.09 42.159,-5.511 84.483,-9.701 126.656,-15.085 18.503,-2.074 28.28,85.149 9.777,87.223 l 0,0 c -41.865,4.082 -83.752,7.955 -125.499,13.159 -57.205,7.264 -114.284,15.414 -171.224,24.533 -31.438,4.907 -63.028,9.272 -94.089,16.258 -18.341,4.056 -37.461,-82.403 -19.121,-86.459 z" id="path10534" inkscape:connector-curvature="0" style="fill:#c83737;fill-opacity:1;fill-rule:nonzero;stroke:#f9f9f9;stroke-width:0.1;stroke-miterlimit:4;stroke-dasharray:none" transform="translate(-11264, -36864)"/><path d="m 11907.648,37244.506 c -6.326,41.55 -6.781,83.738 -7.74,125.674 -0.485,67.319 -4.001,134.513 -9.165,201.617 -4.696,55.934 -10.002,111.829 -11.951,167.942 -0.252,13.592 -0.374,27.256 1.172,40.788 0.92,8.052 1.947,9.352 1.935,8.914 -0.04,-1.554 -0.626,-3.046 -0.939,-4.569 7.823,17.1 -72.788,53.978 -80.611,36.878 l 0,0 c -10.108,-27.572 -9.776,-56.659 -8.353,-85.761 2.912,-57.042 8.59,-113.872 13.467,-170.77 5.061,-65.457 8.342,-131.01 8.4,-196.684 0.707,-45.731 1.217,-91.579 6.359,-137.077 2.768,-18.546 90.194,-5.497 87.426,13.048 z" id="path10539" inkscape:connector-curvature="0" style="fill:#c83737;fill-opacity:1;fill-rule:nonzero;stroke:#f9f9f9;stroke-width:0.1;stroke-miterlimit:4;stroke-dasharray:none" transform="translate(-11264, -36864)"/><path d="m 11863.113,37416.109 c 32.931,-18.67 70.335,-25.913 107.085,-32.904 46.068,-8.379 92.558,-14.034 139.189,-18.069 30.973,-1.127 64.775,-5.144 94.344,7.083 6.401,2.647 12.216,6.533 18.325,9.799 5.662,5.679 12.44,10.431 16.987,17.037 23.582,34.262 11.58,75.715 1.291,112.016 -15.207,44.047 -29.486,88.238 -38.879,133.915 -6.721,35.395 -7.371,71.331 -1.486,106.817 3.678,10.308 4.869,26.936 14.234,34.53 -1.089,-1.443 -2.178,-2.887 -3.266,-4.33 13.622,13.016 -47.738,77.235 -61.361,64.219 l 0,0 c -2.423,-2.718 -4.845,-5.436 -7.268,-8.154 -14.863,-22.124 -24.469,-46.905 -28.792,-73.272 -6.389,-45.795 -5.92,-91.969 3.195,-137.463 10.017,-47.56 24.124,-93.88 39.81,-139.866 0.687,-2.461 8.832,-37.228 10.029,-36.597 1.645,0.866 2.745,2.507 4.118,3.76 1.631,0.72 3.263,1.44 4.895,2.16 3.164,-3.176 -8.083,-4.323 -12.531,-4.881 -15.405,-1.935 -31.017,-0.933 -46.45,-0.159 -43.553,3.453 -86.958,8.694 -129.912,16.797 -25.921,5.085 -52.876,9.51 -76.29,22.402 -15.876,10.027 -63.143,-64.813 -47.267,-74.84 z" id="path10541" inkscape:connector-curvature="0" style="fill:#c83737;fill-opacity:1;fill-rule:nonzero;stroke:#f9f9f9;stroke-width:0.1;stroke-miterlimit:4;stroke-dasharray:none" transform="translate(-11264, -36864)"/><path d="m 11996.202,37535.133 c 29.153,22.899 55.651,48.623 79.997,76.52 4.102,5.319 8.205,10.638 12.308,15.958 11.2,14.748 -58.324,67.549 -69.525,52.801 l 0,0 c -2.908,-3.912 -5.816,-7.823 -8.723,-11.734 -20.462,-23.94 -43.152,-45.763 -68.799,-64.163 -14.718,-11.612 40.023,-80.994 54.742,-69.382 z" id="path10543" inkscape:connector-curvature="0" style="fill:#c83737;fill-opacity:1;fill-rule:nonzero;stroke:#f9f9f9;stroke-width:0.1;stroke-miterlimit:4;stroke-dasharray:none" transform="translate(-11264, -36864)"/></svg>