<?xml version="1.0" encoding="UTF-8" standalone="no"?>
<svg
   xmlns:dc="http://purl.org/dc/elements/1.1/"
   xmlns:cc="http://creativecommons.org/ns#"
   xmlns:rdf="http://www.w3.org/1999/02/22-rdf-syntax-ns#"
   xmlns:svg="http://www.w3.org/2000/svg"
   xmlns="http://www.w3.org/2000/svg"
   xmlns:sodipodi="http://sodipodi.sourceforge.net/DTD/sodipodi-0.dtd"
   xmlns:inkscape="http://www.inkscape.org/namespaces/inkscape"
   width="1024"
   height="1024"
   id="U7406"
   version="1.1"
   inkscape:version="0.48.0 r9654"
   sodipodi:docname="U+7406.svg">
  <metadata
     id="metadata18">
    <rdf:RDF>
      <cc:Work
         rdf:about="">
        <dc:format>image/svg+xml</dc:format>
        <dc:type
           rdf:resource="http://purl.org/dc/dcmitype/StillImage" />
      </cc:Work>
    </rdf:RDF>
  </metadata>
  <defs
     id="defs16" />
  <sodipodi:namedview
     pagecolor="#ffffff"
     bordercolor="#666666"
     borderopacity="1"
     objecttolerance="10"
     gridtolerance="10"
     guidetolerance="10"
     inkscape:pageopacity="0"
     inkscape:pageshadow="2"
     inkscape:window-width="640"
     inkscape:window-height="480"
     id="namedview14"
     showgrid="false"
     inkscape:zoom="0.27441406"
     inkscape:cx="512"
     inkscape:cy="512"
     inkscape:window-x="0"
     inkscape:window-y="25"
     inkscape:window-maximized="0"
     inkscape:current-layer="U7406" />
  <path
     style="fill:#2b0000;fill-opacity:1;fill-rule:nonzero;stroke:#f9f9f9;stroke-width:0.1;stroke-miterlimit:4;stroke-dasharray:none"
     d="M 768.90625 199.9375 C 759.19461 200.0083 749.48896 200.42462 739.78125 201.0625 C 707.15032 203.2835 674.64851 206.893 642.09375 210 C 613.7641 212.573 585.39717 214.78075 557 216.46875 C 538.30725 218.14075 546.18225 306.26575 564.875 304.59375 C 587.09691 302.4374 609.351 300.65594 631.59375 298.71875 C 630.62054 311.42331 630.34453 324.14768 630.40625 336.90625 C 618.99901 337.26516 607.59019 337.7382 596.1875 338.3125 C 577.44392 339.4945 583.00642 427.8695 601.75 426.6875 C 612.24727 425.71657 622.75752 424.98261 633.28125 424.46875 C 634.22223 451.45452 634.85251 478.47131 635.25 505.46875 C 625.50204 506.38239 615.75921 507.27476 606 508.125 C 599.0371 508.87376 592.04622 509.62197 585.0625 510.4375 C 592.27893 499.80532 596.9382 489.50212 595.75 483.40625 C 597.77974 484.94263 597.33025 484.575 595.21875 481.78125 C 595.44131 482.27974 595.63536 482.79749 595.75 483.375 C 595.6669 483.31212 595.65379 483.3187 595.5625 483.25 C 579.69651 460.308 580.71605 428.417 571.8125 402.875 C 561.9143 363.047 550.37635 323.74475 535.8125 285.34375 C 528.70311 268.00675 446.98436 301.50675 454.09375 318.84375 C 468.53901 352.72875 478.7251 388.054 487.53125 423.75 C 494.94224 458.46 502.06483 493.26925 518.0625 525.15625 C 528.04574 540.15085 522.56499 533.30713 535.875 546.6875 C 541.66411 566.82694 549.63021 586.47656 555.65625 606.5625 C 557.93312 605.65206 560.20813 604.70292 562.46875 603.75 C 563.17566 605.02016 565.35317 602.79979 566.8125 602.4375 C 569.40549 601.7945 572.03309 601.1935 574.65625 600.6875 C 588.22179 598.0685 601.94299 596.54975 615.65625 594.96875 C 622.31122 594.35068 628.94352 593.70455 635.59375 593.0625 C 635.25631 618.20115 634.66763 643.34186 633.84375 668.46875 C 597.83741 676.01798 562.2517 685.71881 528.59375 700.875 C 511.96012 709.514 552.67887 787.92025 569.3125 779.28125 C 588.76809 770.0431 609.23392 763.52994 630.0625 758.375 C 628.80172 785.09209 628.39652 811.76819 629.75 838.5 C 629.83321 844.5273 630.29211 850.39846 631.09375 856.28125 C 593.19222 861.97814 555.44926 868.78026 518.0625 877.375 C 473.48069 887.691 429.1821 899.0185 385.53125 912.8125 C 367.67309 918.5065 394.51685 1002.694 412.375 997 C 453.35088 982.206 495.53566 971.28075 537.84375 961.09375 C 599.97792 946.42375 663.16248 937.35925 726.5625 930.40625 C 776.42924 924.91625 826.58267 923.89375 876.6875 924.84375 C 907.1645 925.71475 937.56888 927.6765 967.96875 929.9375 C 978.9882 931.88416 990.75102 930.77449 1001.8125 932.75 C 1019.6758 931.62837 1041.4235 851.82503 1023.9062 846.90625 C 1021.2136 846.34625 1018.5051 845.809 1015.8125 845.25 C 1001.9083 843.867 987.93174 843.291 974 842.25 C 941.989 840.225 909.94994 838.5285 877.875 837.9375 C 824.79545 837.45323 771.70144 838.87641 718.90625 844.84375 C 718.4934 841.55003 717.64142 834.89503 717.78125 833.0625 C 715.72715 805.6005 716.08448 778.138 717.28125 750.625 C 717.3515 748.68633 717.39987 746.75123 717.46875 744.8125 C 735.04807 743.89666 752.67806 744.11636 770.28125 745.46875 C 786.55132 746.88285 802.53022 750.24258 818.25 754.5625 C 815.53411 753.26141 812.84089 751.95742 810.125 750.65625 C 827.32133 755.60284 875.91057 689.31337 861.375 678.46875 C 845.13236 669.72075 852.25429 672.33625 840.71875 668.90625 C 819.42964 663.77825 797.89119 659.63025 776 658.15625 C 757.33729 657.09165 738.66148 656.93395 720.03125 657.71875 C 720.6011 632.97584 721.0441 608.21745 721.28125 583.46875 C 726.10794 582.8239 730.92756 582.15991 735.75 581.46875 C 767.55373 576.55075 799.34663 571.61275 831.09375 566.34375 C 836.99066 565.27075 842.93966 564.37175 848.84375 563.34375 C 851.63178 562.71906 853.53307 560.19024 854.71875 556.375 C 860.36997 555.41284 864.20809 553.32921 865.03125 549.8125 C 868.56556 531.3195 868.8928 512.46725 871 493.78125 C 874.92276 449.12625 880.72065 404.67425 884.75 360.03125 C 886.99205 325.64525 889.87971 290.2785 880.375 256.6875 C 867.6205 226.7815 850.14608 209.11175 817.34375 202.96875 C 801.28161 200.66312 785.09232 199.81949 768.90625 199.9375 z M 818.25 754.5625 C 818.60375 754.73197 818.95875 754.89305 819.3125 755.0625 L 818.75 754.6875 C 818.58442 754.64177 818.41563 754.60802 818.25 754.5625 z M 1001.8125 932.75 C 1001.5042 932.76936 1001.2121 932.74706 1000.9062 932.71875 C 1002.2369 932.93668 1003.5757 933.1568 1004.9062 933.375 C 1003.8835 933.13048 1002.8486 932.93504 1001.8125 932.75 z M 595.21875 481.78125 C 594.84513 480.94438 594.32376 480.21431 593.625 479.625 C 594.27363 480.53923 594.736 481.14252 595.21875 481.78125 z M 377.03125 264.40625 C 368.73055 264.47753 360.50329 265.30563 352.125 267.1875 C 319.49785 272.5735 287.0368 278.8535 254.65625 285.5625 C 225.93189 291.1125 197.14709 296.75825 167.9375 299.03125 C 149.24806 300.86625 157.87306 388.961 176.5625 387.125 C 196.22182 384.80098 215.75475 381.62107 235.21875 378.0625 C 241.53323 414.63123 244.44599 451.68031 247.28125 488.65625 C 247.29142 488.771 247.30237 488.88525 247.3125 489 C 227.8748 492.84064 208.40267 496.40316 188.78125 499.09375 C 170.16546 501.26175 180.38421 589.01075 199 586.84375 C 216.81775 583.82371 234.53604 580.39506 252.25 576.8125 C 253.17045 602.43137 253.90983 628.05196 255.125 653.65625 C 257.75055 684.39025 258.33463 715.04225 256.0625 745.78125 C 255.32524 757.00825 255.66976 751.638 255.0625 761.875 C 254.82595 766.70634 260.55126 770.57827 269.15625 773.34375 C 241.60821 790.28011 213.76415 806.78978 184.9375 821.46875 C 168.30387 830.10775 209.05387 908.514 225.6875 899.875 C 261.96846 879.566 297.44099 857.9035 332.65625 835.8125 C 369.87856 811.8905 407.47595 788.58 446.25 767.25 C 459.02413 759.677 472.62944 754.69975 487.25 752.59375 C 488.4368 752.45475 489.6257 752.3275 490.8125 752.1875 C 509.42338 749.5385 496.95463 661.7885 478.34375 664.4375 L 472.34375 665.375 C 447.95535 669.889 424.71774 678.1555 403.40625 691.0625 C 383.65931 702.39047 364.15978 714.12285 344.78125 726.0625 C 345.11464 700.41822 343.94153 674.7998 341.59375 649.1875 C 339.91955 619.19984 338.97686 589.1983 337.75 559.1875 C 367.04736 553.1862 396.3922 547.40684 425.8125 542.03125 C 422.8377 542.26225 449.84112 537.69923 450.96875 538 C 450.93411 538.06592 450.54688 538.21863 449.6875 538.4375 C 468.51222 537.3695 463.48098 448.65075 444.65625 449.71875 C 432.77227 451.08375 421.10698 453.73225 409.375 456.03125 C 383.7561 461.13684 358.15169 466.31249 332.5625 471.5625 C 329.89656 434.68956 326.79589 397.8327 321.625 361.21875 C 336.23659 358.59624 350.89416 356.21125 365.59375 354.09375 C 366.86656 352.75318 387.48152 352.31736 379.25 352.46875 C 396.79217 349.11451 409.9716 268.08794 392.125 265.03125 C 387.02738 264.60825 382.01167 264.36348 377.03125 264.40625 z M 774.5 287.71875 C 782.35537 287.70713 790.18821 288.07756 797.9375 289.1875 C 800.16266 311.01128 799.04362 332.9327 797.84375 354.78125 C 794.27118 398.40133 788.67716 441.83714 784.25 485.375 C 763.99558 488.89434 743.71682 492.14989 723.40625 495.34375 C 722.55449 495.46624 721.69567 495.56678 720.84375 495.6875 C 720.54284 471.82863 720.10602 447.94808 719.5 424.09375 C 736.34929 424.64173 753.2009 425.54539 769.875 427.9375 C 788.43668 430.1915 799.06168 342.6925 780.5 340.4375 C 759.57145 338.19629 738.54062 337.17406 717.5 336.59375 C 717.673 321.03827 718.6097 305.52806 721.40625 290.21875 C 729.39416 289.55922 737.40228 288.98049 745.40625 288.5 C 755.04338 288.279 764.78126 287.73312 774.5 287.71875 z M 801.5625 289.75 C 802.19077 289.86102 802.81059 289.97124 803.4375 290.09375 C 808.05037 292.55358 804.7289 291.15441 801.5625 289.75 z M 717.96875 839.90625 C 718.39409 842.52137 718.65805 843.97926 718.8125 844.875 C 718.21989 844.94204 717.62379 844.99431 717.03125 845.0625 C 716.77018 845.09215 716.51107 845.12654 716.25 845.15625 C 717.49463 843.38894 718.09459 841.61986 717.96875 839.90625 z "
     id="path9604" />
</svg>
