<?xml version="1.0" encoding="utf-8" ?>

<!DOCTYPE svg PUBLIC "-//W3C//DTD SVG 1.1//EN" 
  "http://www.w3.org/Graphics/SVG/1.1/DTD/svg11.dtd">
<svg 
    xmlns="http://www.w3.org/2000/svg"
    xmlns:xlink="http://www.w3.org/1999/xlink"
    xmlns:sodipodi="http://sodipodi.sourceforge.net/DTD/sodipodi-0.dtd"
    xmlns:inkscape="http://www.inkscape.org/namespaces/inkscape"
    width="1024" height="1024" id="U7528">
<path d="m 11614.859,59693.837 c -17.038,36.273 -28.343,74.9 -39.798,113.196 -22.492,75.909 -35.027,154.105 -44.613,232.529 -7.784,67.561 -9.747,135.645 -2.665,203.303 3.91,23.871 1.461,13.083 6.734,32.498 4.314,18.011 -80.589,38.348 -84.903,20.337 l 0,0 c -6.269,-28.591 -3.58,-13.681 -7.815,-44.774 -6.234,-73.868 -4.038,-148.021 4.722,-221.649 10.195,-82.988 23.271,-165.747 46.103,-246.334 12.251,-42.872 24.659,-85.86 42.254,-126.915 8.021,-16.966 88.002,20.843 79.981,37.809 z" id="path13125" inkscape:connector-curvature="0" style="fill:#2b1100;fill-opacity:1;fill-rule:nonzero;stroke:none" transform="translate(-11264, -59392)"/><path d="m 11590.351,59603.438 c 32.353,-18.188 68.398,-27.477 104.26,-35.827 48.879,-10.567 98.65,-15.52 148.584,-16.395 41.931,-0.388 82.4,8.361 120.898,24.457 35.729,16.046 60.175,42.767 78.023,76.892 20.839,53.377 15.169,111.271 10.597,167.059 -7.689,75.771 -17.962,151.25 -27.11,226.854 -7.164,57.939 -12.493,116.076 -15.021,174.402 -1.352,26.103 0.09,52.209 0.305,78.309 -0.153,2.836 -0.306,5.672 -0.459,8.507 -1.495,18.726 -89.771,11.683 -88.277,-7.044 l 0,0 c 0.129,-0.693 0.257,-1.387 0.385,-2.08 0.78,-27.338 -0.577,-54.745 1.424,-82.063 3.448,-60.329 9.404,-120.458 17.094,-180.396 9.229,-74.327 19.246,-148.586 26.174,-223.173 2.974,-40.171 7.559,-82.022 -3.551,-121.373 -6.952,-16.091 -18.401,-27.595 -34.231,-35.441 -26.856,-12.121 -55.56,-17.928 -85.081,-18.146 -43.655,0.377 -87.156,4.864 -129.851,14.204 -26.819,6.39 -54.253,12.851 -78.26,26.953 -16.058,9.738 -61.961,-65.962 -45.903,-75.699 z" id="path13127" inkscape:connector-curvature="0" style="fill:#2b1100;fill-opacity:1;fill-rule:nonzero;stroke:none" transform="translate(-11264, -59392)"/><path d="m 11580.298,59824.109 c 42.545,-0.331 85.064,-2.23 127.587,-3.536 51.811,-1.785 103.651,-1.847 155.221,3.777 21.285,4.051 47.531,6.408 63.867,22.848 5.831,5.868 9.731,13.38 14.597,20.069 8.146,16.929 -71.658,55.331 -79.804,38.402 l 0,0 c 0.648,0.684 9.096,12.867 14.819,12.251 1.129,-0.122 -1.802,-1.434 -2.854,-1.86 -7.073,-2.864 -13.272,-3.634 -20.896,-5.174 -47.121,-6.153 -94.654,-5.794 -142.084,-4.198 -43.258,1.551 -86.491,3.603 -129.715,5.895 -18.768,0.156 -19.506,-88.317 -0.738,-88.474 z" id="path13129" inkscape:connector-curvature="0" style="fill:#2b1100;fill-opacity:1;fill-rule:nonzero;stroke:none" transform="translate(-11264, -59392)"/><path d="m 11538.891,60011.663 c 40.976,5.611 82.409,6.47 123.7,7.096 63.875,0.348 127.743,-1.084 191.592,-2.739 37.406,-1.038 74.806,-1.83 112.203,-0.284 18.668,1.133 13.328,89.133 -5.339,88 l 0,0 c -34.913,-2.894 -69.943,-2.214 -104.943,-1.714 -64.81,1.217 -129.624,2.577 -194.448,2.689 -45.353,-0.31 -90.759,-1.106 -135.932,-5.526 -18.567,-2.793 -5.4,-90.315 13.167,-87.522 z" id="path13131" inkscape:connector-curvature="0" style="fill:#2b1100;fill-opacity:1;fill-rule:nonzero;stroke:none" transform="translate(-11264, -59392)"/><path d="m 11799.947,59646.395 c -7.197,51.066 -9.411,102.719 -12.772,154.143 -6.098,91.654 -13.075,183.245 -18.731,274.928 -4.611,68.449 -6.382,137.013 -3.549,205.559 1.542,26.634 3.67,53.27 8.347,79.554 2.942,18.421 -83.896,32.289 -86.838,13.868 l 0,0 c -4.374,-29.986 -6.672,-60.213 -7.819,-90.491 -1.933,-71.346 0.506,-142.654 5.653,-213.84 5.982,-91.541 12.933,-183.021 18.02,-274.62 2.881,-53.949 4.783,-108.008 10.229,-161.777 2.689,-18.553 90.149,-5.877 87.46,12.676 z" id="path13137" inkscape:connector-curvature="0" style="fill:#2b1100;fill-opacity:1;fill-rule:nonzero;stroke:none" transform="translate(-11264, -59392)"/></svg>