<?xml version="1.0" encoding="UTF-8" standalone="no"?>
<svg
   xmlns:dc="http://purl.org/dc/elements/1.1/"
   xmlns:cc="http://creativecommons.org/ns#"
   xmlns:rdf="http://www.w3.org/1999/02/22-rdf-syntax-ns#"
   xmlns:svg="http://www.w3.org/2000/svg"
   xmlns="http://www.w3.org/2000/svg"
   xmlns:sodipodi="http://sodipodi.sourceforge.net/DTD/sodipodi-0.dtd"
   xmlns:inkscape="http://www.inkscape.org/namespaces/inkscape"
   width="1024"
   height="1024"
   id="U754C"
   version="1.1"
   inkscape:version="0.48.0 r9654"
   sodipodi:docname="U+754C.svg">
  <metadata
     id="metadata16">
    <rdf:RDF>
      <cc:Work
         rdf:about="">
        <dc:format>image/svg+xml</dc:format>
        <dc:type
           rdf:resource="http://purl.org/dc/dcmitype/StillImage" />
      </cc:Work>
    </rdf:RDF>
  </metadata>
  <defs
     id="defs14" />
  <sodipodi:namedview
     pagecolor="#ffffff"
     bordercolor="#666666"
     borderopacity="1"
     objecttolerance="10"
     gridtolerance="10"
     guidetolerance="10"
     inkscape:pageopacity="0"
     inkscape:pageshadow="2"
     inkscape:window-width="640"
     inkscape:window-height="480"
     id="namedview12"
     showgrid="false"
     inkscape:zoom="0.27441406"
     inkscape:cx="512"
     inkscape:cy="512"
     inkscape:window-x="0"
     inkscape:window-y="25"
     inkscape:window-maximized="0"
     inkscape:current-layer="U754C" />
  <path
     style="fill:#2b0000;fill-opacity:1;fill-rule:nonzero;stroke:#f9f9f9;stroke-width:0.1;stroke-miterlimit:4;stroke-dasharray:none"
     d="M 594.6875 132.9375 C 540.4079 135.2515 486.4859 142.6 433.6875 155.625 C 392.2826 166.542 349.66445 177.94275 314.96875 204.21875 C 300.73605 216.75675 359.8298 283.8515 374.0625 271.3125 C 392.15532 259.20379 412.97387 252.12049 433.9375 246.1875 C 434.42635 265.85967 435.28782 285.52796 435.875 305.15625 C 435.89557 305.83259 435.91739 306.51116 435.9375 307.1875 C 415.73711 311.38026 395.82541 316.76449 376.46875 324.1875 C 359.15195 331.8265 395.15205 413.4515 412.46875 405.8125 C 420.63661 402.48231 428.96932 399.69416 437.40625 397.28125 C 437.52361 420.98395 437.47525 444.67254 437.3125 468.375 C 411.46247 472.7473 385.62828 477.17858 359.75 481.375 C 369.86725 472.39629 376.09313 463.39667 372.65625 458.0625 C 351.56465 431.9665 349.66185 390.233 338.78125 359.625 C 327.93035 315.215 318.0427 270.48625 304.5625 226.78125 C 297.819 209.08025 214.3815 240.8605 221.125 258.5625 C 234.8562 298.3305 244.00915 339.58525 254.03125 380.40625 C 264.55855 423.83225 274.97315 467.485 298.03125 506.125 C 302.61551 513.24002 320.21936 507.44653 337.28125 497.46875 C 334.29911 517.40463 340.76814 553.22754 350.625 566.625 C 344.21801 575.22903 337.94476 583.92691 331.75 592.65625 C 304.2956 632.53325 281.29035 675.22225 263.34375 720.15625 C 253.83565 745.17525 256.13235 752.883 261.78125 779.25 C 268.79666 795.40163 339.97662 765.86652 344.125 747.625 C 345.1101 763.85758 343.36095 763.28935 345.8125 751.9375 C 358.96051 716.03259 377.05846 682.18721 398.125 650.3125 C 390.87813 673.48052 384.67441 696.98924 378.59375 720.46875 C 366.04435 770.33175 357.43465 821.06225 350.03125 871.90625 C 345.95685 896.69225 344.44545 921.4345 346.28125 946.4375 C 348.23915 965.1765 436.5829 955.9275 434.625 937.1875 C 431.1889 919.7095 435.55835 901.6715 436.90625 884.1875 C 443.44185 836.5845 451.30755 789.121 463.09375 742.5 C 472.79175 705.557 482.64845 668.28925 498.78125 633.53125 C 504.45853 621.67849 467.44423 599.50163 441.5 592.71875 C 452.07441 580.48174 463.42325 568.94995 476.03125 558.71875 C 478.30572 556.92092 478.93144 553.77715 478.3125 549.75 C 484.70383 548.65383 491.07408 547.57705 497.46875 546.5 C 527.70044 541.57245 557.90323 536.42054 588.09375 531.25 C 575.52853 554.94354 566.66664 594.91995 578.8125 598.9375 C 598.15393 605.85666 616.08391 615.84833 633.59375 626.53125 C 617.77847 627.20521 604.89906 630.74731 604.40625 637.84375 C 602.37145 682.08775 605.9131 726.27 610.375 770.25 C 615.7415 821.425 625.5761 871.9565 636.5 922.1875 C 640.4749 940.4605 644.7282 958.65825 648.8125 976.90625 C 653.3126 995.26625 739.8752 974.0475 735.375 955.6875 C 730.7103 938.2195 726.2695 920.6925 722.25 903.0625 C 711.5738 856.3545 702.1479 809.31075 697.25 761.59375 C 694.09205 729.23999 691.29581 696.68119 692.3125 664.15625 C 709.86286 675.74702 727.31778 687.49255 744.5625 699.53125 C 745.73 700.42825 755.3345 707.3585 757.1875 710.0625 C 757.7335 710.8595 755.5221 709.07975 754.6875 708.59375 C 766.037 723.76675 837.537 670.26675 826.1875 655.09375 C 816.7112 644.13275 807.22745 634.14875 794.65625 626.59375 C 764.33165 606.08175 733.7327 585.9575 703 566.0625 C 679.27533 551.13121 655.43497 536.08378 630.09375 524.0625 C 638.16912 522.68549 646.2348 521.30078 654.3125 519.9375 C 637.723 527.7365 705.255 507.43025 686.75 515.03125 C 697.24979 514.12199 699.52945 486.30192 696.28125 461.9375 C 709.3337 466.7516 720.552 468.05853 723.65625 462.375 C 731.19995 447.405 737.9101 432.3505 740.9375 415.6875 C 749.3458 373.5025 753.29805 330.57925 751.84375 287.53125 C 749.16125 242.73025 743.71635 197.54825 709.65625 164.78125 C 703.95475 160.66525 698.58415 156.0165 692.53125 152.4375 C 663.22575 135.1055 627.7579 133.3145 594.6875 132.9375 z M 597.8125 220.625 C 613.7597 222.887 643.599 218.42575 654.5 234.34375 C 661.601 253.00475 662.91105 272.9585 664.03125 292.6875 C 665.10675 327.9755 662.05405 363.2255 654.46875 397.6875 C 652.42515 405.4675 650.39865 413.19375 645.59375 419.71875 C 643.87336 422.86878 645.30453 426.95631 648.8125 431.40625 C 645.50607 432.0757 642.19447 432.71576 638.875 433.3125 C 600.88597 440.45883 562.86019 447.40991 524.75 453.875 C 524.67358 429.89586 524.55355 405.91528 524.3125 381.9375 C 524.62479 381.89838 524.93781 381.85164 525.25 381.8125 C 562.2704 377.2465 599.54325 375.86175 636.71875 373.21875 C 639.78505 372.86675 642.8712 372.50925 645.9375 372.15625 C 664.6889 369.46225 651.97015 281.055 633.21875 283.75 L 628.875 284.65625 C 593.57176 288.49422 558.06387 290.02169 522.78125 294.125 C 522.18039 271.85301 521.32771 249.51676 521.59375 227.21875 C 546.8377 223.54817 572.26613 221.32543 597.8125 220.625 z "
     id="path9297" />
</svg>
