<?xml version="1.0" encoding="utf-8" ?>

<!DOCTYPE svg PUBLIC "-//W3C//DTD SVG 1.1//EN" 
  "http://www.w3.org/Graphics/SVG/1.1/DTD/svg11.dtd">
<svg 
    xmlns="http://www.w3.org/2000/svg"
    xmlns:xlink="http://www.w3.org/1999/xlink"
    xmlns:sodipodi="http://sodipodi.sourceforge.net/DTD/sodipodi-0.dtd"
    xmlns:inkscape="http://www.inkscape.org/namespaces/inkscape"
    width="1024" height="1024" id="U75BC">
<path d="m 7690.2666,48212.651 c 1.9782,18.979 13.5472,34.21 25.2264,48.486 9.1774,10.39 19.243,19.938 29.1279,29.64 13.2036,13.075 -48.4344,75.317 -61.638,62.242 l 0,0 c -12.2034,-12.188 -24.6166,-24.2 -35.7921,-37.365 -22.9954,-29.253 -42.1731,-61.03 -45.3576,-99.02 -0.845,-18.759 87.5884,-22.743 88.4334,-3.983 z" id="path11912" inkscape:connector-curvature="0" style="fill:#782121;fill-opacity:1;fill-rule:nonzero;stroke:#f9f9f9;stroke-width:0.1;stroke-miterlimit:4;stroke-dasharray:none" transform="translate(-7168, -48128)"/><path d="m 7415.2326,48376.029 c 54.4247,3.214 108.9795,1.077 163.3962,-1.123 83.8539,-4.356 167.7383,-7.986 251.6683,-10.469 50.9012,-1.341 101.8227,-1.836 152.7404,-1.903 18.6251,0.402 16.7268,88.202 -1.8982,87.799 l 0,0 c -49.4815,-2.29 -99.0642,-1.528 -148.5741,-0.904 -83.4272,1.981 -166.8033,5.46 -250.1061,10.471 -56.9839,2.825 -114.0134,5.24 -171.0844,4.309 -18.7058,-0.818 -14.8479,-88.998 3.8579,-88.18 z" id="path11914" inkscape:connector-curvature="0" style="fill:#782121;fill-opacity:1;fill-rule:nonzero;stroke:#f9f9f9;stroke-width:0.1;stroke-miterlimit:4;stroke-dasharray:none" transform="translate(-7168, -48128)"/><path d="m 7561.1185,48445.337 c -22.6528,38.772 -33.2712,83.281 -45.0742,126.209 -21.952,84.144 -43.3238,168.438 -65.1038,252.628 -17.3585,65.436 -33.8337,131.098 -50.4813,196.717 -7.6193,28.334 -3.7199,14.732 -11.6063,40.831 -5.5556,17.648 -88.7471,-8.542 -83.1915,-26.189 l 0,0 c 7.4826,-22.69 3.7,-10.542 11.1782,-36.497 17.5909,-65.356 34.5555,-130.88 52.2148,-196.218 22.1636,-84.303 43.5854,-168.791 64.5606,-253.398 13.6613,-52.084 26.604,-105.406 53.6046,-152.521 10.2753,-15.677 84.1741,32.761 73.8989,48.438 z" id="path11916" inkscape:connector-curvature="0" style="fill:#782121;fill-opacity:1;fill-rule:nonzero;stroke:#f9f9f9;stroke-width:0.1;stroke-miterlimit:4;stroke-dasharray:none" transform="translate(-7168, -48128)"/><path d="m 7332.0246,48559.604 c 18.2837,32.931 36.8786,65.687 55.1474,98.626 13.4899,25.451 7.0096,12.725 19.4616,38.168 8.0458,16.627 -70.3353,54.555 -78.3811,37.928 l 0,0 c -10.6524,-22.309 -4.9885,-10.969 -17.0553,-33.989 -17.9058,-32.333 -36.0465,-64.554 -55.4351,-96.027 -9.4835,-16.178 66.779,-60.883 76.2625,-44.706 z" id="path11918" inkscape:connector-curvature="0" style="fill:#782121;fill-opacity:1;fill-rule:nonzero;stroke:#f9f9f9;stroke-width:0.1;stroke-miterlimit:4;stroke-dasharray:none" transform="translate(-7168, -48128)"/><path d="m 7225.965,48827.851 c 37.5001,-15.389 75.8233,-28.596 114.3104,-41.262 31.5863,-10.051 15.924,-5.106 46.9858,-14.839 17.5419,-5.47 43.3266,77.223 25.7847,82.693 l 0,0 c -30.3079,9.402 -15.1072,4.629 -45.6014,14.322 -36.1571,12.012 -72.2797,24.434 -106.8942,40.463 -17.2627,7.336 -51.8479,-74.041 -34.5853,-81.377 z" id="path11920" inkscape:connector-curvature="0" style="fill:#782121;fill-opacity:1;fill-rule:nonzero;stroke:#f9f9f9;stroke-width:0.1;stroke-miterlimit:4;stroke-dasharray:none" transform="translate(-7168, -48128)"/><path d="m 7710.0546,48514.582 c -23.6144,26.084 -42.803,55.866 -62.5242,84.905 -29.234,44.021 -58.796,87.819 -89.1969,131.043 -9.8231,14.083 -20.3082,27.666 -31.0283,41.069 -11.8443,14.37 -79.5858,-41.464 -67.7415,-55.834 l 0,0 c 9.8255,-11.484 19.2546,-23.281 28.0692,-35.569 30.46,-42.252 59.7353,-85.329 88.2294,-128.931 22.8193,-34.223 45.0707,-69.172 72.3918,-100.048 13.4417,-13.11 75.2422,50.255 61.8005,63.365 z" id="path11922" inkscape:connector-curvature="0" style="fill:#782121;fill-opacity:1;fill-rule:nonzero;stroke:#f9f9f9;stroke-width:0.1;stroke-miterlimit:4;stroke-dasharray:none" transform="translate(-7168, -48128)"/><path d="m 7656.4108,48526.452 c 37.1665,-8.474 75.0891,-12.242 113.0419,-14.893 37.8127,-2.099 75.801,-2.725 113.4765,1.502 39.3553,6.102 67.4681,36.311 57.9866,78.014 -1.6132,7.095 -5.7459,13.37 -8.6188,20.055 -23.9701,36.985 -57.8735,66.078 -90.8688,94.757 -40.6746,34.646 -83.8175,66.2 -127.5573,96.825 -36.5995,25.422 -74.1906,49.361 -111.5241,73.678 -17.3362,11.986 -34.8387,23.198 -54.5366,30.769 -17.8042,5.929 -45.7542,-78.001 -27.95,-83.93 l 0,0 c 10.8664,-3.542 24.2565,-13.854 35.3246,-20.357 36.6887,-23.179 73.5166,-46.169 109.1841,-70.912 41.234,-28.829 81.8624,-58.601 120.1006,-91.352 24.55,-21.513 49.2581,-43.313 69.2936,-69.248 6.0757,12.129 -1.4327,11.908 10.1494,24.515 3.013,3.279 14.96,9.198 12.001,5.87 -0.9601,-1.08 -2.6942,-1.045 -4.0414,-1.568 -31.8404,-4.793 -64.2939,-3.21 -96.3421,-1.956 -32.5971,2.295 -65.3151,5.302 -96.966,13.89 -18.171,4.7 -40.3242,-80.959 -22.1532,-85.659 z" id="path11936" inkscape:connector-curvature="0" style="fill:#782121;fill-opacity:1;fill-rule:nonzero;stroke:#f9f9f9;stroke-width:0.1;stroke-miterlimit:4;stroke-dasharray:none" transform="translate(-7168, -48128)"/><path d="m 7634.2752,48637.186 c 33.6667,26.802 71.9317,47.077 109.7192,67.344 53.1029,28.276 108.4901,51.726 165.1606,71.764 29.329,10.168 59.38,17.95 89.5966,24.94 18.0699,4.383 -2.5931,89.566 -20.663,85.182 l 0,0 c -33.0583,-8.363 -65.9492,-17.464 -98.0756,-28.971 -60.3474,-21.979 -119.4656,-47.167 -176.3701,-77.048 -43.0272,-22.705 -86.1939,-45.704 -125.3203,-74.825 -14.507,-11.869 41.4456,-80.256 55.9526,-68.386 z" id="path11942" inkscape:connector-curvature="0" style="fill:#782121;fill-opacity:1;fill-rule:nonzero;stroke:#f9f9f9;stroke-width:0.1;stroke-miterlimit:4;stroke-dasharray:none" transform="translate(-7168, -48128)"/><path d="m 7714.7545,48841.215 c 24.3547,19.956 51.8583,35.636 78.6207,52.076 17.7416,10.905 35.3818,21.973 52.9981,33.078 15.6663,10.086 -31.8783,83.938 -47.5446,73.852 l 0,0 c -16.8956,-11.112 -33.8748,-22.098 -51.0903,-32.711 -30.1083,-18.532 -60.8192,-36.306 -88.9267,-57.848 -14.52,-11.867 41.4229,-80.315 55.9428,-68.447 z" id="path11944" inkscape:connector-curvature="0" style="fill:#782121;fill-opacity:1;fill-rule:nonzero;stroke:#f9f9f9;stroke-width:0.1;stroke-miterlimit:4;stroke-dasharray:none" transform="translate(-7168, -48128)"/><path d="m 7660.0135,48983.15 c 24.9256,19.813 50.2055,39.182 75.3789,58.681 17.4688,13.633 35.6234,26.292 54.3236,38.161 15.6051,10.013 -31.5977,83.576 -47.2028,73.563 l 0,0 c -20.7317,-13.423 -40.9754,-27.543 -60.433,-42.775 -25.3392,-19.558 -50.7078,-39.082 -76.55,-57.975 -14.7762,-11.557 39.7071,-81.213 54.4833,-69.655 z" id="path11946" inkscape:connector-curvature="0" style="fill:#782121;fill-opacity:1;fill-rule:nonzero;stroke:#f9f9f9;stroke-width:0.1;stroke-miterlimit:4;stroke-dasharray:none" transform="translate(-7168, -48128)"/></svg>