<?xml version="1.0" encoding="utf-8" ?>

<!DOCTYPE svg PUBLIC "-//W3C//DTD SVG 1.1//EN" 
  "http://www.w3.org/Graphics/SVG/1.1/DTD/svg11.dtd">
<svg 
    xmlns="http://www.w3.org/2000/svg"
    xmlns:xlink="http://www.w3.org/1999/xlink"
    xmlns:sodipodi="http://sodipodi.sourceforge.net/DTD/sodipodi-0.dtd"
    xmlns:inkscape="http://www.inkscape.org/namespaces/inkscape"
    width="1024" height="1024" id="U7684">
<path d="m 8558.4767,8414.3012 c -14.8492,36.7434 -29.2392,73.669 -43.3584,110.6983 -21.9571,57.823 -41.7072,116.4426 -58.9234,175.8444 -5.1258,17.3549 -86.9372,-6.8084 -81.8114,-24.1632 l 0,0 c 18.3874,-61.168 38.7113,-121.7254 60.7963,-181.6615 13.7047,-37.1491 27.8634,-74.1319 41.2392,-111.4004 6.5087,-17.4071 88.5664,13.2754 82.0577,30.6824 z" id="path21897" inkscape:connector-curvature="0" style="fill:#800000;fill-opacity:1;fill-rule:nonzero;stroke:#f9f9f9;stroke-width:0.1;stroke-miterlimit:4;stroke-dasharray:none" transform="translate(-8192, -8192)"/><path d="m 8436.2985,8731.4907 c -0.7351,33.0298 4.854,65.6916 11.5033,97.9093 7.351,33.0759 17.1726,65.5296 27.7597,97.6934 1.1621,3.3914 2.3243,6.7829 3.4865,10.1743 5.7868,17.5471 -76.9308,44.8265 -82.7177,27.2794 l 0,0 c -1.163,-3.6591 -2.326,-7.3181 -3.489,-10.9772 -10.9908,-35.268 -21.4339,-70.746 -29.3799,-106.8429 -7.8542,-38.3824 -14.1219,-77.1648 -14.6471,-116.4429 0.256,-18.5582 87.7402,-17.3516 87.4842,1.2066 z" id="path21899" inkscape:connector-curvature="0" style="fill:#800000;fill-opacity:1;fill-rule:nonzero;stroke:#f9f9f9;stroke-width:0.1;stroke-miterlimit:4;stroke-dasharray:none" transform="translate(-8192, -8192)"/><path d="m 8372.526,8697.5289 c 5.2936,-39.9126 32.9078,-64.777 65.4522,-84.67 34.2206,-18.3469 72.0821,-27.6455 109.7369,-35.9036 27.1811,-5.5161 54.6317,-10.077 82.3966,-10.6834 45.6164,3.0118 61.6029,28.0388 69.3307,69.8949 4.0154,46.0542 -1.5914,92.3158 -6.5263,138.0848 -6.5566,55.7073 -14.9222,111.1802 -22.8907,166.6976 -3.6455,25.6272 -1.8205,13.4008 -5.4319,36.6858 -3.0504,18.1148 -88.4444,3.7353 -85.394,-14.3795 l 0,0 c 3.9732,-21.711 1.9546,-10.0471 5.95,-35.0098 8.4425,-54.1641 16.7401,-108.3758 22.7757,-162.8709 3.8543,-38.206 8.1884,-76.757 5.5801,-115.1902 -0.7265,-8.6534 0.7586,-2.8985 6.1599,0.3822 3.4604,2.1017 7.6905,4.2043 11.9452,3.7083 0.4028,-0.047 -0.6845,-0.4352 -1.0267,-0.6528 -21.7181,-0.6478 -43.2687,4.4353 -64.5704,7.9107 -28.5634,6.0822 -57.4129,12.6766 -83.6829,25.8471 -7.7319,4.351 -17.3083,8.8938 -22.3642,16.5665 -1.3613,18.5489 -88.8016,12.1312 -87.4402,-6.4177 z" id="path21901" inkscape:connector-curvature="0" style="fill:#800000;fill-opacity:1;fill-rule:nonzero;stroke:#f9f9f9;stroke-width:0.1;stroke-miterlimit:4;stroke-dasharray:none" transform="translate(-8192, -8192)"/><path d="m 8456.7938,8804.8794 c 34.1156,-17.3429 71.1052,-26.9731 108.7484,-32.6549 24.7888,-1.6779 12.5635,-1.4976 36.674,-0.6516 18.4065,1.0269 13.5657,87.7959 -4.8408,86.769 l 0,0 c -12.0289,-1.2079 -5.4951,-0.9192 -19.6151,-0.462 -27.0399,3.5357 -53.7556,10.2356 -77.9491,23.2018 -16.1649,9.1254 -59.1823,-67.0769 -43.0174,-76.2023 z" id="path21903" inkscape:connector-curvature="0" style="fill:#800000;fill-opacity:1;fill-rule:nonzero;stroke:#f9f9f9;stroke-width:0.1;stroke-miterlimit:4;stroke-dasharray:none" transform="translate(-8192, -8192)"/><path d="m 8465.4091,8960.6463 c 31.2965,-2.0927 62.2797,-7.5022 93.199,-12.5941 19.71,-3.1006 39.3159,-6.6774 58.6857,-11.4624 17.9099,-4.2802 38.0871,80.1478 20.1772,84.428 l 0,0 c -21.4669,4.9967 -43.1116,9.0048 -64.9133,12.2747 -33.8165,5.5001 -67.6423,11.1809 -101.7281,14.7592 -18.5415,1.1498 -23.962,-86.2555 -5.4205,-87.4054 z" id="path21905" inkscape:connector-curvature="0" style="fill:#800000;fill-opacity:1;fill-rule:nonzero;stroke:#f9f9f9;stroke-width:0.1;stroke-miterlimit:4;stroke-dasharray:none" transform="translate(-8192, -8192)"/><path d="m 8873.9683,8419.5433 c -18.1487,38.2897 -40.0422,74.6271 -62.2344,110.6667 -9.4593,15.4706 -82.3885,-29.121 -72.9292,-44.5916 l 0,0 c 19.7869,-32.6066 39.5795,-65.4611 54.6363,-100.5868 7.321,-17.0825 87.8484,17.4293 80.5273,34.5117 z" id="path21907" inkscape:connector-curvature="0" style="fill:#800000;fill-opacity:1;fill-rule:nonzero;stroke:#f9f9f9;stroke-width:0.1;stroke-miterlimit:4;stroke-dasharray:none" transform="translate(-8192, -8192)"/><path d="m 8650.0921,8579.8613 c 34.0921,-16.6673 71.4077,-24.8177 108.3241,-32.4996 44.9558,-9.2749 90.5791,-12.0721 136.2453,-8.216 36.1532,3.5574 68.2209,16.5832 96.131,39.4995 30.2873,29.7807 34.6335,62.9598 32.3281,103.566 -7.3514,53.4541 -24.6989,104.9102 -41.34,156.0398 -17.8859,52.8369 -36.5386,105.4045 -53.1546,158.6606 -9.3517,29.0744 -15.6519,58.9259 -21.3434,88.8824 -0.6726,3.0494 -1.3452,6.0988 -2.0178,9.1482 -4.2739,18.047 -89.3481,-2.1 -85.0743,-20.147 l 0,0 c 0.5448,-2.0912 1.0896,-4.1825 1.6344,-6.2737 7.0359,-32.8427 14.4159,-65.6318 25.0259,-97.5525 17.1618,-53.2546 36.0585,-105.9132 53.8774,-158.9481 14.2998,-44.4523 29.0687,-89.185 35.9998,-135.4978 0.8809,-10.5252 2.9496,-22.5026 -2.9788,-31.9764 -12.3289,-12.7798 -30.1299,-16.6276 -47.1049,-19.3724 -37.0209,-3.9065 -74.0767,-1.0086 -110.5534,6.3904 -28.3629,6.0121 -57.3637,11.936 -83.4997,24.9468 -16.26,9.0154 -58.7591,-67.6348 -42.4991,-76.6502 z" id="path21913" inkscape:connector-curvature="0" style="fill:#800000;fill-opacity:1;fill-rule:nonzero;stroke:#f9f9f9;stroke-width:0.1;stroke-miterlimit:4;stroke-dasharray:none" transform="translate(-8192, -8192)"/><path d="m 8796.8964,8784.9041 c 17.2772,22.6799 35.3898,44.7061 52.966,67.1549 11.2812,14.3962 -56.5835,67.5763 -67.8647,53.18 l 0,0 c -17.7543,-22.6363 -36.0127,-44.8587 -54.4369,-66.9526 -11.3241,-14.7083 58.0115,-68.0906 69.3356,-53.3823 z" id="path21915" inkscape:connector-curvature="0" style="fill:#800000;fill-opacity:1;fill-rule:nonzero;stroke:#f9f9f9;stroke-width:0.1;stroke-miterlimit:4;stroke-dasharray:none" transform="translate(-8192, -8192)"/></svg>