<?xml version="1.0" encoding="utf-8" ?>

<!DOCTYPE svg PUBLIC "-//W3C//DTD SVG 1.1//EN" 
  "http://www.w3.org/Graphics/SVG/1.1/DTD/svg11.dtd">
<svg 
    xmlns="http://www.w3.org/2000/svg"
    xmlns:xlink="http://www.w3.org/1999/xlink"
    xmlns:sodipodi="http://sodipodi.sourceforge.net/DTD/sodipodi-0.dtd"
    xmlns:inkscape="http://www.inkscape.org/namespaces/inkscape"
    width="1024" height="1024" id="U76EE">
<path d="m 8513.9102,34031.781 c 2.6078,42.537 2.87,85.167 3.2811,127.768 0.4672,69.978 0.7127,139.958 1.2455,209.936 0.2149,46.091 1.2793,92.169 3.2349,138.219 0.06,-1.372 1.3987,27.571 1.7844,22.224 2.794,18.646 -85.1017,31.817 -87.8957,13.171 l 0,0 c -1.065,-10.87 -1.0749,-21.791 -1.4467,-32.703 -0.9031,-46.821 -1.4127,-93.648 -1.3666,-140.479 -0.1732,-69.68 -0.3244,-139.365 -1.5558,-209.037 -0.8703,-40.626 -1.4023,-81.349 -5.4613,-121.812 -1.546,-18.706 86.6343,-25.993 88.1802,-7.287 z" id="path11234" inkscape:connector-curvature="0" style="fill:#c83737;fill-opacity:1;fill-rule:nonzero;stroke:#f9f9f9;stroke-width:0.1;stroke-miterlimit:4;stroke-dasharray:none" transform="translate(-8192, -33792)"/><path d="m 8510.8319,34012.105 c 37.7191,-5.214 75.5464,-9.56 113.3859,-13.79 47.7841,-5.659 95.6246,-10.542 143.7649,-11.014 36.5865,0.08 72.1927,7.565 106.163,20.742 29.0644,11.565 49.7934,31.344 65.0034,58.204 16.8765,37.076 13.2231,77.46 9.1083,116.786 -7.3313,54.708 -17.4612,108.986 -26.1969,163.478 -7.2682,45.009 -12.4962,90.297 -16.3273,135.716 -1.7349,20.907 -2.4837,41.872 -3.3758,62.825 -0.6764,20.25 -8.9633,24.912 -23.0847,42.68 -15.9591,10.067 -63.416,-65.164 -47.4569,-75.232 l 0,0 c -16.2017,21.941 -16.2859,14.436 -18.1732,29.076 -0.071,0.552 0.2295,-1.09 0.3443,-1.636 1.6384,-21.872 2.7126,-43.789 4.8577,-65.623 4.6107,-47.336 10.4185,-94.545 18.0989,-141.489 8.5126,-52.807 18.2027,-105.451 24.8467,-158.538 2.1392,-22.088 5.3253,-45.101 -0.5841,-66.889 -3.093,-9.25 -11.2057,-13.763 -19.7563,-17.798 -23.1622,-9.805 -47.9095,-14.662 -73.0688,-15.277 -44.9751,-0.08 -89.6649,4.748 -134.2838,10.089 -35.9985,4.239 -72.0345,8.448 -107.7433,14.748 -18.4678,3.293 -33.9898,-83.765 -15.522,-87.058 z" id="path11236" inkscape:connector-curvature="0" style="fill:#c83737;fill-opacity:1;fill-rule:nonzero;stroke:#f9f9f9;stroke-width:0.1;stroke-miterlimit:4;stroke-dasharray:none" transform="translate(-8192, -33792)"/><path d="m 8522.5586,34169.992 c 29.5051,0 58.9791,-1.272 88.487,-1.2 30.8101,0.139 61.376,4.181 91.5597,10.069 12.695,2.586 25.2956,5.61 37.9983,8.157 2.3956,0.369 1.2327,0.202 3.488,0.505 18.6108,2.967 4.6221,90.7 -13.9887,87.732 l 0,0 c -5.0576,-0.865 -2.3775,-0.379 -8.0363,-1.477 -12.3372,-2.775 -24.5874,-5.914 -36.9303,-8.664 -24.4623,-5.181 -49.2859,-8.763 -74.3446,-8.922 -29.1909,-0.1 -58.3414,1.194 -87.5079,2.275 -18.7683,0.154 -19.4935,-88.321 -0.7252,-88.475 z" id="path11256" inkscape:connector-curvature="0" style="fill:#c83737;fill-opacity:1;fill-rule:nonzero;stroke:#f9f9f9;stroke-width:0.1;stroke-miterlimit:4;stroke-dasharray:none" transform="translate(-8192, -33792)"/><path d="m 8497.8455,34327.211 c 34.4201,-5.507 69.2423,-7.829 104.0177,-9.673 37.3919,-1.9 74.8378,-1.254 112.1114,2.165 17.2219,1.641 34.3771,4.256 50.6478,10.255 3.0452,1.652 6.0903,3.304 9.1355,4.956 15.7597,10.367 -33.1088,84.659 -48.8686,74.292 l 0,0 c 2.0339,0.987 4.0678,1.974 6.1017,2.961 3.8037,0.656 -31.7355,-7.179 -25.8486,-5.127 -32.7055,-3.691 -65.642,-4.33 -98.5126,-2.615 -30.39,1.728 -60.9091,3.72 -90.8545,9.447 -18.3835,3.804 -36.3134,-82.857 -17.9298,-86.661 z" id="path11258" inkscape:connector-curvature="0" style="fill:#c83737;fill-opacity:1;fill-rule:nonzero;stroke:#f9f9f9;stroke-width:0.1;stroke-miterlimit:4;stroke-dasharray:none" transform="translate(-8192, -33792)"/><path d="m 8507.5496,34489.106 c 33.6794,7.792 68.5901,7.649 102.9697,8.092 47.7379,-0.398 95.4727,-0.784 143.2123,-0.92 29.1548,-0.374 58.3009,-0.91 87.2698,2.796 7.9255,1.116 15.7496,2.795 23.5479,4.569 18.3118,4.381 -2.3401,90.704 -20.6519,86.323 l 0,0 c -5.0649,-1.285 -10.1223,-2.615 -15.2756,-3.511 -24.7816,-4.084 -49.9748,-2.824 -74.9904,-3.228 -48.0011,-0.247 -95.994,-0.01 -143.9924,0.591 -41.1771,-0.314 -82.716,-0.505 -123.2226,-8.859 -18.2123,-4.483 2.9209,-90.336 21.1332,-85.853 z" id="path11260" inkscape:connector-curvature="0" style="fill:#c83737;fill-opacity:1;fill-rule:nonzero;stroke:#f9f9f9;stroke-width:0.1;stroke-miterlimit:4;stroke-dasharray:none" transform="translate(-8192, -33792)"/></svg>