<?xml version="1.0" encoding="utf-8" ?>

<!DOCTYPE svg PUBLIC "-//W3C//DTD SVG 1.1//EN" 
  "http://www.w3.org/Graphics/SVG/1.1/DTD/svg11.dtd">
<svg 
    xmlns="http://www.w3.org/2000/svg"
    xmlns:xlink="http://www.w3.org/1999/xlink"
    xmlns:sodipodi="http://sodipodi.sourceforge.net/DTD/sodipodi-0.dtd"
    xmlns:inkscape="http://www.inkscape.org/namespaces/inkscape"
    width="1024" height="1024" id="U76F4">
<path d="m 7480.7244,64771.044 c 33.9217,-1.539 67.8561,-2.395 101.8086,-2.882 48.5347,-0.198 97.0402,-2.127 145.5757,-1.81 34.1046,0.07 67.8628,4.423 100.2986,14.967 11.1859,3.399 20.2222,9.736 29.3725,16.71 14.11,12.452 -44.5864,78.967 -58.6964,66.515 l 0,0 c 6.4305,3.77 4.1862,1.945 0.69,0.132 -23.15,-8.778 -48.0083,-10.792 -72.5905,-11.492 -47.6894,-0.723 -95.3549,1.164 -143.0394,1.711 -33.1527,0.76 -66.3106,1.728 -99.3621,4.59 -18.7611,0.861 -22.818,-87.58 -4.057,-88.441 z" id="path14873" inkscape:connector-curvature="0" style="fill:#2b1100;fill-opacity:1;fill-rule:nonzero;stroke:none" transform="translate(-7168, -64512)"/><path d="m 7728.447,64709.122 c -16.3048,27.459 -27.347,57.716 -38.9402,87.363 -15.0376,39.52 -28.9538,79.495 -39.8725,120.359 -4.995,17.864 -89.2069,-5.682 -84.2119,-23.546 l 0,0 c 12.5731,-43.277 27.5187,-85.808 43.2815,-128.019 13.5678,-35.554 26.6831,-71.602 45.6945,-104.699 10.2976,-15.709 84.3461,32.834 74.0486,48.542 z" id="path14875" inkscape:connector-curvature="0" style="fill:#2b1100;fill-opacity:1;fill-rule:nonzero;stroke:none" transform="translate(-7168, -64512)"/><path d="m 7526.9328,64949.778 c 1.106,42.089 3.1086,84.15 4.5603,126.228 1.3124,51.256 4.2558,102.42 10.4664,153.32 3.4043,27.011 10.0792,53.409 16.6391,79.777 4.2444,18.231 -81.6944,38.239 -85.9388,20.009 l 0,0 c -6.431,-29.76 -13.535,-59.43 -16.857,-89.759 -5.9187,-53.206 -8.9832,-106.621 -10.5684,-160.129 -1.6856,-41.946 -3.6998,-83.884 -6.5741,-125.768 -0.7802,-18.726 87.4922,-22.404 88.2725,-3.678 z" id="path14881" inkscape:connector-curvature="0" style="fill:#2b1100;fill-opacity:1;fill-rule:nonzero;stroke:none" transform="translate(-7168, -64512)"/><path d="m 7492.9374,64912.811 c 33.3918,-11.914 68.43,-17.873 103.3992,-22.89 41.7304,-5.734 83.8341,-6.887 125.7467,-3.02 32.102,3.23 60.465,16.446 86.4686,34.803 23.7616,16.979 39.2287,39.961 50.3318,66.525 13.5033,44.219 9.2321,90.934 5.5319,136.292 -4.4219,45.496 -10.6788,90.783 -13.8142,136.397 -1.5996,24.271 -0.9359,48.603 -1.7537,72.898 0.2292,17.055 -5.7709,29.718 -14.2856,44.11 -11.8956,14.615 -80.7899,-41.462 -68.8943,-56.076 l 0,0 c -1.1197,2.2 -8.527,22.368 -4.965,8.198 1.3659,-25.204 0.7804,-50.492 2.9897,-75.659 3.6968,-45.704 10.1065,-91.105 14.473,-136.745 2.4996,-32.187 5.7123,-65.223 -1.0605,-97.108 -3.6709,-11.31 -10.6605,-20.235 -20.1521,-27.448 -13.0439,-9.876 -27.1103,-17.242 -43.6299,-19.242 -34.7861,-3.914 -69.8412,-2.44 -104.5141,2.208 -27.8905,4.082 -56.0274,8.606 -82.4829,18.711 -17.385,7.083 -50.7736,-74.871 -33.3886,-81.954 z" id="path14885" inkscape:connector-curvature="0" style="fill:#2b1100;fill-opacity:1;fill-rule:nonzero;stroke:none" transform="translate(-7168, -64512)"/><path d="m 7500.0486,64994.48 c 30.4369,-3.074 60.9442,-1.031 91.3226,1.492 26.715,2.892 53.5598,3.631 80.3941,4.409 2.8357,0.127 5.6713,0.254 8.507,0.381 18.7012,1.106 13.4856,89.264 -5.2155,88.158 l 0,0 c -2.266,-0.175 -4.5321,-0.35 -6.7981,-0.525 -28.029,-1.437 -56.0941,-2.352 -84.0287,-5.255 -24.5107,-1.979 -49.2159,-4.108 -73.7266,-0.841 -18.6294,2.218 -29.0841,-85.602 -10.4548,-87.819 z" id="path14887" inkscape:connector-curvature="0" style="fill:#2b1100;fill-opacity:1;fill-rule:nonzero;stroke:none" transform="translate(-7168, -64512)"/><path d="m 7520.4621,65101.332 c 27.2567,-0.348 54.451,-2.853 81.6174,-4.957 29.0453,-2.045 58.0514,-4.696 87.1841,-4.852 14.7956,0.82 7.4506,0.05 22.036,2.294 18.4394,3.506 1.9134,90.43 -16.526,86.924 l 0,0 c -2.3845,-1.454 -0.5799,-0.534 -5.9636,-1.163 -26.6969,-0.515 -53.293,2.181 -79.9093,3.896 -28.9146,2.289 -57.8149,4.894 -86.7839,6.387 -18.7799,0.351 -20.4346,-88.178 -1.6547,-88.529 z" id="path14889" inkscape:connector-curvature="0" style="fill:#2b1100;fill-opacity:1;fill-rule:nonzero;stroke:none" transform="translate(-7168, -64512)"/><path d="m 7503.6154,65212.244 c 28.854,-9.63 58.7818,-15.179 88.7102,-20.201 27.7507,-4.669 55.6628,-8.208 83.7101,-10.454 3.1245,-0.131 6.2489,-0.263 9.3734,-0.394 18.7316,-0.499 21.0809,87.803 2.3493,88.301 l 0,0 c -1.8523,0 -3.7047,0 -5.5571,0 -25.2646,1.482 -50.3924,4.501 -75.3474,8.735 -24.5377,4.156 -49.2352,8.445 -72.6753,17.08 -17.6216,6.483 -48.1849,-76.586 -30.5632,-83.07 z" id="path14891" inkscape:connector-curvature="0" style="fill:#2b1100;fill-opacity:1;fill-rule:nonzero;stroke:none" transform="translate(-7168, -64512)"/><path d="m 7315.1953,65320.087 c 38.6881,6.22 77.9822,6.396 117.0594,6.323 74.2679,-0.864 148.2023,-8.638 222.0542,-15.838 74.39,-7.735 148.9798,-12.839 223.7565,-14.142 45.0659,-0.152 90.1162,1.758 135.1659,0.1 14.9518,-0.765 29.8343,-2.363 44.7771,-3.243 18.6902,-0.889 22.8799,87.217 4.1897,88.106 l 0,0 c -15.5167,0.497 -30.97,2.153 -46.4981,2.493 -45.5133,0.938 -90.9797,-1.203 -136.49,-1.622 -72.3844,0.65 -144.611,5.214 -216.6163,12.692 -76.4126,7.556 -152.869,15.881 -229.698,17.573 -43.3613,0.547 -86.8124,0.38 -129.9295,-4.906 -18.569,-2.594 -6.3399,-90.129 12.2291,-87.534 z" id="path14895" inkscape:connector-curvature="0" style="fill:#2b1100;fill-opacity:1;fill-rule:nonzero;stroke:none" transform="translate(-7168, -64512)"/></svg>