<?xml version="1.0" encoding="utf-8" ?>

<!DOCTYPE svg PUBLIC "-//W3C//DTD SVG 1.1//EN" 
  "http://www.w3.org/Graphics/SVG/1.1/DTD/svg11.dtd">
<svg 
    xmlns="http://www.w3.org/2000/svg"
    xmlns:xlink="http://www.w3.org/1999/xlink"
    xmlns:sodipodi="http://sodipodi.sourceforge.net/DTD/sodipodi-0.dtd"
    xmlns:inkscape="http://www.inkscape.org/namespaces/inkscape"
    width="1024" height="1024" id="U767D">
<path d="m 10740.734,238.29231 c -21.63,24.66482 -39.413,52.45568 -57.578,79.69546 -19.367,29.07226 -38.178,58.50931 -56.166,88.45422 -1.528,2.60522 -3.056,5.21043 -4.584,7.81565 -9.706,15.98055 -85.039,-29.77193 -75.333,-45.75247 l 0,0 c 1.704,-2.71656 3.408,-5.43312 5.113,-8.14968 19.169,-30.38059 38.84,-60.43929 58.68,-90.38586 20.905,-31.59275 41.392,-63.67824 65.807,-92.72363 12.95,-13.58937 77.011,47.45693 64.061,61.04631 z" id="path9787" inkscape:connector-curvature="0" style="fill:#c83737;fill-opacity:1;fill-rule:nonzero;stroke:#f9f9f9;stroke-width:0.1;stroke-miterlimit:4;stroke-dasharray:none" transform="translate(-10240, 0)"/><path d="m 10513.903,512.15978 c 2.82,37.7829 4.276,75.65266 5.936,113.49979 1.846,49.911 6.148,99.63861 12.971,149.10435 4.808,34.53255 12.24,68.59856 21.379,102.22118 3.338,11.05664 1.652,6.11608 4.871,14.88336 5.967,17.74681 -77.692,45.8743 -83.659,28.12749 l 0,0 c -4.246,-13.36738 -2.175,-6.40592 -6.154,-20.90136 -9.295,-37.18721 -17.155,-74.7283 -22.239,-112.74663 -6.877,-51.98285 -11.44,-104.19731 -13.639,-156.59751 -1.823,-35.88407 -3.273,-71.85353 -7.4,-107.5631 -2.128,-18.65364 85.807,-28.68121 87.934,-10.02757 z" id="path9789" inkscape:connector-curvature="0" style="fill:#c83737;fill-opacity:1;fill-rule:nonzero;stroke:#f9f9f9;stroke-width:0.1;stroke-miterlimit:4;stroke-dasharray:none" transform="translate(-10240, 0)"/><path d="m 10477.883,501.34978 c 32.326,-12.05922 66.1,-19.38186 99.867,-26.04832 47.662,-9.36314 96.075,-13.07196 144.55,-14.29223 38.591,-0.49728 77.096,2.58475 115.539,5.54464 25.679,1.70281 51.242,4.41628 76.38,9.99355 21.615,4.39034 39.88,13.42226 56.417,27.84038 25.127,29.58066 19.284,65.41355 12.265,100.47961 -11.026,45.73313 -24.515,90.81787 -36.348,136.34646 -11.371,43.92545 -19.76,88.51672 -26.517,133.35905 -3.96,24.94875 -5.901,50.14761 -9.005,75.19917 -0.57,2.97179 -1.141,5.94358 -1.711,8.91537 -3.981,18.35071 -90.487,-0.41807 -86.506,-18.76878 l 0,0 c 0.233,-0.72787 0.465,-1.45574 0.698,-2.18362 3.965,-25.4339 6.175,-51.1343 10.551,-76.51447 7.602,-47.62075 16.753,-94.98972 28.814,-141.70405 11.342,-43.83777 24.046,-87.33169 34.234,-131.45692 2.218,-11.66142 2.548,-12.32094 3.912,-22.7588 1.305,-9.98535 2.252,-1.16391 7.384,2.05493 10.344,5.81453 -11.697,-6.6872 -14.114,-4.93079 -20.801,-5.16849 -42.206,-6.79846 -63.507,-8.65801 -35.428,-3.00711 -70.913,-6.21028 -106.502,-6.01122 -43.423,0.87998 -86.795,4.12904 -129.44,12.79315 -27.767,5.66505 -55.685,11.62199 -82.081,22.18823 -17.265,7.39922 -52.145,-73.9881 -34.88,-81.38733 z" id="path9803" inkscape:connector-curvature="0" style="fill:#c83737;fill-opacity:1;fill-rule:nonzero;stroke:#f9f9f9;stroke-width:0.1;stroke-miterlimit:4;stroke-dasharray:none" transform="translate(-10240, 0)"/><path d="m 10548.919,654.97565 c 36.498,-0.68053 72.941,0.10258 109.387,2.05487 38.851,2.95891 77.792,5.40704 116.31,11.45537 18.092,2.28005 34.254,8.67386 49.909,17.63588 15.692,10.3078 -32.899,84.28012 -48.591,73.97231 l 0,0 c 8.667,2.03585 -15.287,-5.25146 -15.758,-5.14779 -35.135,-6.3271 -70.864,-8.34292 -106.401,-11.23425 -34.445,-1.75243 -68.917,-2.43175 -103.37,-0.26747 -18.767,0.31541 -20.254,-88.15351 -1.486,-88.46892 z" id="path9805" inkscape:connector-curvature="0" style="fill:#c83737;fill-opacity:1;fill-rule:nonzero;stroke:#f9f9f9;stroke-width:0.1;stroke-miterlimit:4;stroke-dasharray:none" transform="translate(-10240, 0)"/><path d="m 10493.35,880.50294 c 38.555,-9.93315 78.154,-14.26025 117.724,-17.63236 52.227,-4.36215 104.563,-2.98626 156.704,1.45057 35.582,3.41312 70.998,8.25949 106.137,14.79606 14.247,2.84574 28.497,5.67898 42.534,9.44117 18.079,5.13472 -6.127,90.35773 -24.205,85.22301 l 0,0 c -11.466,-3.57184 -23.287,-5.80468 -34.98,-8.48459 -32.125,-6.46896 -64.56,-11.19653 -97.157,-14.57929 -47.051,-4.37247 -94.306,-5.77734 -141.458,-1.6077 -33.946,3.08031 -68.097,6.67716 -100.895,16.439 -18.041,5.17697 -42.445,-79.8689 -24.404,-85.04587 z" id="path9807" inkscape:connector-curvature="0" style="fill:#c83737;fill-opacity:1;fill-rule:nonzero;stroke:#f9f9f9;stroke-width:0.1;stroke-miterlimit:4;stroke-dasharray:none" transform="translate(-10240, 0)"/></svg>