<?xml version="1.0" encoding="UTF-8" standalone="no"?>
<svg
   xmlns:dc="http://purl.org/dc/elements/1.1/"
   xmlns:cc="http://creativecommons.org/ns#"
   xmlns:rdf="http://www.w3.org/1999/02/22-rdf-syntax-ns#"
   xmlns:svg="http://www.w3.org/2000/svg"
   xmlns="http://www.w3.org/2000/svg"
   xmlns:sodipodi="http://sodipodi.sourceforge.net/DTD/sodipodi-0.dtd"
   xmlns:inkscape="http://www.inkscape.org/namespaces/inkscape"
   width="1024"
   height="1024"
   id="U770B"
   version="1.1"
   inkscape:version="0.48.0 r9654"
   sodipodi:docname="U+770B.svg">
  <metadata
     id="metadata16">
    <rdf:RDF>
      <cc:Work
         rdf:about="">
        <dc:format>image/svg+xml</dc:format>
        <dc:type
           rdf:resource="http://purl.org/dc/dcmitype/StillImage" />
      </cc:Work>
    </rdf:RDF>
  </metadata>
  <defs
     id="defs14" />
  <sodipodi:namedview
     pagecolor="#ffffff"
     bordercolor="#666666"
     borderopacity="1"
     objecttolerance="10"
     gridtolerance="10"
     guidetolerance="10"
     inkscape:pageopacity="0"
     inkscape:pageshadow="2"
     inkscape:window-width="640"
     inkscape:window-height="480"
     id="namedview12"
     showgrid="false"
     inkscape:zoom="0.27441406"
     inkscape:cx="512"
     inkscape:cy="512"
     inkscape:window-x="0"
     inkscape:window-y="25"
     inkscape:window-maximized="0"
     inkscape:current-layer="U770B" />
  <path
     style="fill:#2b0000;fill-opacity:1;fill-rule:nonzero;stroke:#f9f9f9;stroke-width:0.1;stroke-miterlimit:4;stroke-dasharray:none"
     d="M 531.28125 79.21875 C 530.40188 79.227263 529.57561 79.402641 528.78125 79.78125 C 497.31435 96.18625 469.42925 118.289 441.84375 140.375 C 400.18055 174.633 360.1836 210.8635 319.875 246.6875 C 288.134 274.9255 256.7619 303.54575 225.1875 331.96875 C 211.4999 344.54475 270.78115 409.076 284.46875 396.5 C 295.22274 386.41516 305.97589 376.34244 316.78125 366.3125 C 316.91178 389.30114 322.14032 413.16452 331.90625 412.9375 C 357.16758 411.36948 382.37128 408.9976 407.5625 406.5625 C 398.15773 430.90824 388.17399 455.0284 377.6875 478.9375 C 360.88009 480.75198 344.0847 482.68978 327.3125 484.84375 C 281.0137 490.75075 234.54355 496.1315 188.84375 505.8125 C 170.70155 510.5515 193.0452 596.08175 211.1875 591.34375 C 251.01018 581.51876 291.82924 576.41662 332.4375 570.90625 C 315.5242 600.40076 296.79622 628.81088 277.3125 656.71875 C 259.5467 681.15975 242.4578 706.173 223.375 729.625 C 222.1238 731.066 220.8762 732.4955 219.625 733.9375 C 207.6825 748.3995 275.87 804.712 287.8125 790.25 C 289.4509 788.192 291.08035 786.1205 292.71875 784.0625 C 307.08923 765.23687 320.69343 745.86583 334.28125 726.46875 C 337.48169 746.90013 339.95706 767.46217 342.53125 787.96875 C 347.69705 827.29775 351.7366 866.82775 359.6875 905.71875 C 364.4676 923.15375 361.5784 914.6035 368.4375 931.3125 C 370.85283 936.46469 379.90829 936.56917 391.125 933.78125 C 388.07533 959.32194 399.87033 1008.5033 413.84375 1006.1562 C 452.48785 998.50725 491.01575 990.2835 529.59375 982.3125 C 575.25115 972.8195 621.1562 964.62 667.4375 958.875 C 685.5557 956.502 703.74815 955.782 721.96875 956.875 C 739.9382 957.5819 743.80454 875.91162 727.34375 869.4375 C 730.44116 851.41316 732.55457 833.24411 733.96875 814.96875 C 737.82035 773.75675 742.0673 732.5765 745.3125 691.3125 C 746.9852 653.7575 746.279 616.37025 713.25 591.78125 C 687.5474 578.39525 660.69475 574.732 631.78125 576.5 C 594.88915 578.401 558.2409 583.1745 522.25 591.6875 C 489.0321 599.3045 456.06455 607.86875 423.15625 616.71875 C 405.10095 621.83475 429.22605 706.95875 447.28125 701.84375 C 478.40045 692.06875 509.9717 683.8725 541.75 676.5625 C 572.6461 669.2915 604.09975 665.2885 635.78125 664.0625 C 643.01616 664.16309 650.33797 664.09362 657.5625 664.78125 C 656.77411 671.80508 658.08229 682.335 657.875 687.625 C 655.187 727.405 651.1923 767.09725 647.375 806.78125 C 645.4647 827.11725 643.35455 847.42625 638.46875 867.28125 C 637.91609 869.76008 639.02362 872.27117 641.375 874.6875 C 598.10044 880.84924 555.11254 888.7049 512.28125 897.46875 C 486.94885 902.57024 461.62974 907.84363 436.21875 912.5625 C 445.31854 905.80895 450.85229 898.89681 448.46875 893.8125 L 447.6875 893.71875 C 447.1282 892.08558 446.59055 890.44607 446.03125 888.8125 C 473.59004 886.0492 501.29883 885.14844 528.96875 884.21875 C 550.92615 883.41875 540.21125 883.7905 561.21875 883.1875 C 579.77325 882.5925 576.96075 795.12375 558.40625 795.71875 C 537.00245 796.47375 547.80185 796.0745 526.03125 796.9375 C 517.19506 797.23988 508.33484 797.53568 499.5 797.875 C 523.43955 790.18347 547.5253 783.02559 571.90625 776.84375 C 589.62145 772.45475 607.6051 769.676 625.8125 768.75 C 644.4078 767.411 638.0953 679.75475 619.5 681.09375 C 596.1622 683.10175 573.05885 686.624 550.34375 692.5 C 514.49285 701.755 479.17035 712.8 443.65625 723.25 C 429.76144 727.71266 443.06775 779.68145 458.0625 799.78125 C 449.34816 800.25558 440.61337 800.76108 431.90625 801.375 C 431.86248 801.37873 431.82474 801.40157 431.78125 801.40625 C 430.78491 793.3771 429.77513 785.34923 428.6875 777.34375 C 424.2188 740.37675 419.9292 703.37825 412.9375 666.78125 C 411.3405 659.34692 396.16781 657.9938 378.96875 660.21875 C 399.64268 627.65239 418.78449 594.17305 435.21875 559.1875 C 469.24861 556.09318 503.32238 553.66438 537.4375 551.65625 C 583.7784 548.82625 630.2059 548.39425 676.5625 550.78125 C 694.8487 552.08825 686.09885 551.3765 702.78125 552.8125 C 721.36155 554.1985 727.8928 466.636 709.3125 465.25 C 690.9454 464.073 700.61585 464.6335 680.34375 463.5625 C 630.93785 461.7885 581.5236 462.62775 532.1875 465.96875 C 512.8213 467.21307 493.44138 468.59694 474.09375 470.09375 C 483.72941 446.52096 492.93389 422.77802 501.65625 398.84375 C 526.25451 397.83052 550.9005 397.84713 575.53125 398.96875 C 592.58475 400.12675 609.6018 401.773 626.4375 404.75 C 644.8858 407.652 658.5733 320.68325 640.125 317.78125 C 619.8346 314.86425 599.4172 312.91525 578.9375 311.90625 C 563.19414 311.37376 547.45162 311.20058 531.71875 311.375 C 541.85153 281.16409 552.16742 251.02014 564.625 221.71875 C 569.04004 212.20397 545.9168 196.37913 523.28125 187.25 C 537.10546 176.96678 551.39254 167.36212 566.84375 159.6875 C 582.99569 151.98911 549.16179 79.045644 531.28125 79.21875 z M 467.125 232.21875 C 457.57114 260.17448 448.69831 288.35923 439.4375 316.40625 C 438.49972 316.49794 437.56265 316.59336 436.625 316.6875 C 412.51679 318.76912 388.40047 321.17407 364.25 322.8125 C 368.57616 318.90729 372.90385 315.00821 377.25 311.125 C 407.01005 284.60166 436.66586 257.94194 467.125 232.21875 z M 664 665.625 C 664.03027 665.63025 664.06348 665.61971 664.09375 665.625 C 669.69425 666.603 670.136 667.8125 670.125 667.8125 C 669.3595 668.2515 668.3737 667.5635 667.5 667.4375 C 667.33032 667.85552 665.77917 666.89612 664 665.625 z "
     id="path9905" />
</svg>
