<?xml version="1.0" encoding="utf-8" ?>

<!DOCTYPE svg PUBLIC "-//W3C//DTD SVG 1.1//EN" 
  "http://www.w3.org/Graphics/SVG/1.1/DTD/svg11.dtd">
<svg 
    xmlns="http://www.w3.org/2000/svg"
    xmlns:xlink="http://www.w3.org/1999/xlink"
    xmlns:sodipodi="http://sodipodi.sourceforge.net/DTD/sodipodi-0.dtd"
    xmlns:inkscape="http://www.inkscape.org/namespaces/inkscape"
    width="1024" height="1024" id="U7740">
<path d="m 10564.669,63590.432 c 26.782,15.655 54.167,30.061 82.539,42.599 16.91,7.488 -18.385,87.203 -35.295,79.716 l 0,0 c -29.686,-13.165 -58.475,-27.999 -87.086,-43.342 -16.752,-8.452 23.09,-87.425 39.842,-78.973 z" id="path14461" inkscape:connector-curvature="0" style="fill:#2b1100;fill-opacity:1;fill-rule:nonzero;stroke:none" transform="translate(-10240, -63488)"/><path d="m 10885.196,63635.603 c -28.923,13.342 -53.941,33.467 -78.347,53.604 -14.349,11.915 -27.636,24.984 -40.803,38.164 -13.157,13.002 -74.449,-49.023 -61.292,-62.025 l 0,0 c 15.192,-14.846 30.498,-29.585 46.869,-43.15 30.892,-25.435 62.663,-50.315 98.809,-67.955 17.26,-7.375 52.024,73.988 34.764,81.362 z" id="path14463" inkscape:connector-curvature="0" style="fill:#2b1100;fill-opacity:1;fill-rule:nonzero;stroke:none" transform="translate(-10240, -63488)"/><path d="m 10422.649,63725.639 c 45.089,-0.237 90.177,-0.967 135.26,-1.72 72.118,-1.331 144.207,-3.992 216.271,-7.038 56.01,-2.286 111.877,-6.977 167.84,-10.076 23.338,-0.506 46.695,-3.389 70.048,-2.448 18.754,1.438 11.978,89.842 -6.776,88.405 l 0,0 c -19.452,-1.331 -39.511,0.933 -59.124,0.877 -56.2,2.24 -112.296,6.47 -168.506,8.536 -72.618,2.86 -145.247,5.543 -217.894,7.556 -45.291,1.205 -90.595,2.187 -135.856,4.269 -18.745,0.268 -20.007,-88.093 -1.263,-88.361 z" id="path14465" inkscape:connector-curvature="0" style="fill:#2b1100;fill-opacity:1;fill-rule:nonzero;stroke:none" transform="translate(-10240, -63488)"/><path d="m 10460.675,63862.304 c 33.936,-3.394 67.973,-5.233 102.042,-6.575 53.497,-1.717 107.021,-2.309 160.538,-2.98 26.405,-0.359 52.811,-0.434 79.218,-0.485 18.567,0.167 17.781,87.697 -0.787,87.53 l 0,0 c -25.855,-0.522 -51.713,-0.805 -77.574,-0.6 -52.523,0.382 -105.058,0.928 -157.541,3.172 -32.114,1.6 -64.252,3.454 -96.119,7.933 -18.666,2.074 -28.443,-85.921 -9.777,-87.995 z" id="path14467" inkscape:connector-curvature="0" style="fill:#2b1100;fill-opacity:1;fill-rule:nonzero;stroke:none" transform="translate(-10240, -63488)"/><path d="m 10386.138,63994.627 c 42.151,-2.103 84.355,-2.889 126.534,-4.22 72.547,-2.475 145.052,-5.824 217.627,-7.391 60.856,-1.578 121.626,1.441 182.316,5.51 26.364,1.969 52.786,3.437 79.229,2.911 18.649,-0.1 19.116,87.815 0.467,87.914 l 0,0 c -28.697,-0.18 -57.345,-1.931 -85.931,-4.444 -58.012,-4.49 -116.12,-7.904 -174.347,-6.604 -72.094,1.373 -144.108,4.771 -216.138,8.019 -40.591,1.764 -81.27,2.788 -121.742,6.468 -18.702,1.701 -26.717,-86.462 -8.015,-88.163 z" id="path14469" inkscape:connector-curvature="0" style="fill:#2b1100;fill-opacity:1;fill-rule:nonzero;stroke:none" transform="translate(-10240, -63488)"/><path d="m 10728.766,63817.494 c -22.067,33.484 -42.972,67.72 -64.146,101.772 -37.553,59.81 -73.409,120.631 -107.184,182.649 -25.495,46.827 -47.181,95.564 -63.143,146.436 -3.485,12.867 -7.385,25.803 -8.385,39.157 -2.414,18.577 -89.989,7.2 -87.576,-11.377 l 0,0 c 2.87,-18.609 7.317,-36.882 13.216,-54.781 18.715,-55.522 42.754,-108.978 70.993,-160.334 34.601,-63.197 71.105,-125.294 108.747,-186.728 20.974,-34.673 41.853,-69.404 62.672,-104.171 10.05,-15.869 84.857,31.509 74.806,47.377 z" id="path14471" inkscape:connector-curvature="0" style="fill:#2b1100;fill-opacity:1;fill-rule:nonzero;stroke:none" transform="translate(-10240, -63488)"/><path d="m 10620.814,64193.63 c -5.577,24.875 -4.517,50.634 -3.331,75.911 2.029,32.944 7.518,65.527 15.529,97.512 2.904,10.536 5.941,21.115 10.784,30.945 7.47,17.204 -73.629,52.416 -81.099,35.212 l 0,0 c -6.058,-14.804 -11.047,-29.991 -14.752,-45.57 -8.81,-37.468 -15.197,-75.495 -17.517,-113.962 -1.655,-34.462 -2.484,-69.35 4.941,-103.276 4.927,-18.125 90.372,5.102 85.445,23.228 z" id="path14473" inkscape:connector-curvature="0" style="fill:#2b1100;fill-opacity:1;fill-rule:nonzero;stroke:none" transform="translate(-10240, -63488)"/><path d="m 10565.192,64148.695 c 33.315,-19.954 69.464,-33.35 106.687,-43.834 42.404,-10.665 85.972,-14.953 129.581,-15.918 33.186,-1.27 64.204,4.754 93.276,20.674 28.306,18.285 40.615,46.713 47.82,78.312 6.865,38.21 2.594,76.927 -2.623,115.024 -5.959,38.215 -14.139,76.03 -22.309,113.819 -2.294,11.338 -4.816,22.593 -7.753,33.779 -5.057,18.02 -90.004,-5.822 -84.947,-23.842 l 0,0 c 2.981,-9.532 4.973,-19.294 7.272,-29.011 8.136,-35.278 16.006,-70.654 21.497,-106.458 3.76,-27.962 7.341,-56.417 2.991,-84.542 -1.404,-7.08 -2.437,-15.184 -6.739,-21.192 -12.55,-10.567 -31.985,-7.916 -47.065,-9.259 -36.187,0.327 -72.361,3.689 -107.591,12.313 -29.307,8.123 -57.841,18.557 -83.475,35.287 -15.942,9.89 -62.564,-65.261 -46.622,-75.152 z" id="path14475" inkscape:connector-curvature="0" style="fill:#2b1100;fill-opacity:1;fill-rule:nonzero;stroke:none" transform="translate(-10240, -63488)"/><path d="m 10629.915,64217.742 c 32.246,-7.286 64.966,-11.393 97.946,-13.071 25.175,-0.983 50.108,1.243 74.44,7.659 17.965,5.269 -6.875,89.958 -24.84,84.689 l 0,0 c -14.259,-5.709 -30.478,-4.411 -45.493,-5.041 -27.363,1.152 -54.572,4.578 -81.086,11.661 -18.221,4.448 -39.188,-81.45 -20.967,-85.897 z" id="path14477" inkscape:connector-curvature="0" style="fill:#2b1100;fill-opacity:1;fill-rule:nonzero;stroke:none" transform="translate(-10240, -63488)"/><path d="m 10664.894,64302.787 c 24.395,4.482 49.351,3.201 73.959,1.641 15.769,-1.806 31.429,-2.618 47.254,-1.582 18.659,1.964 9.401,89.927 -9.259,87.963 l 0,0 c -6.599,-4.089 -25.669,2.726 -32.841,1.008 -32.424,1.788 -65.116,2.828 -97.302,-2.452 -18.366,-3.858 -0.177,-90.436 18.189,-86.578 z" id="path14479" inkscape:connector-curvature="0" style="fill:#2b1100;fill-opacity:1;fill-rule:nonzero;stroke:none" transform="translate(-10240, -63488)"/><path d="m 10550.949,64417.415 c 36.597,-1.811 73.004,-6.315 109.497,-9.535 51.496,-4.713 103.16,-6.389 154.849,-6.166 35.43,0.164 70.813,1.715 106.132,4.42 18.587,1.644 10.839,89.265 -7.749,87.621 l 0,0 c -32.894,-3.316 -65.897,-5.129 -98.967,-5.417 -48.873,-0.456 -97.728,1.08 -146.402,5.788 -37.743,3.556 -75.354,8.325 -113.12,11.636 -18.741,0.9 -22.982,-87.448 -4.24,-88.347 z" id="path14481" inkscape:connector-curvature="0" style="fill:#2b1100;fill-opacity:1;fill-rule:nonzero;stroke:none" transform="translate(-10240, -63488)"/></svg>