<?xml version="1.0" encoding="UTF-8" standalone="no"?>
<svg
   xmlns:dc="http://purl.org/dc/elements/1.1/"
   xmlns:cc="http://creativecommons.org/ns#"
   xmlns:rdf="http://www.w3.org/1999/02/22-rdf-syntax-ns#"
   xmlns:svg="http://www.w3.org/2000/svg"
   xmlns="http://www.w3.org/2000/svg"
   xmlns:sodipodi="http://sodipodi.sourceforge.net/DTD/sodipodi-0.dtd"
   xmlns:inkscape="http://www.inkscape.org/namespaces/inkscape"
   width="1024"
   height="1024"
   id="U77ED"
   version="1.1"
   inkscape:version="0.48.0 r9654"
   sodipodi:docname="U+77ED.svg">
  <metadata
     id="metadata20">
    <rdf:RDF>
      <cc:Work
         rdf:about="">
        <dc:format>image/svg+xml</dc:format>
        <dc:type
           rdf:resource="http://purl.org/dc/dcmitype/StillImage" />
      </cc:Work>
    </rdf:RDF>
  </metadata>
  <defs
     id="defs18" />
  <sodipodi:namedview
     pagecolor="#ffffff"
     bordercolor="#666666"
     borderopacity="1"
     objecttolerance="10"
     gridtolerance="10"
     guidetolerance="10"
     inkscape:pageopacity="0"
     inkscape:pageshadow="2"
     inkscape:window-width="640"
     inkscape:window-height="480"
     id="namedview16"
     showgrid="false"
     inkscape:zoom="0.27441406"
     inkscape:cx="512"
     inkscape:cy="512"
     inkscape:window-x="0"
     inkscape:window-y="25"
     inkscape:window-maximized="0"
     inkscape:current-layer="U77ED" />
  <path
     style="fill:#550000;fill-opacity:1;fill-rule:nonzero;stroke:#f9f9f9;stroke-width:0.1;stroke-miterlimit:4;stroke-dasharray:none"
     d="M 261.90625 162.25 C 254.97081 162.21141 249.95457 163.79556 248.59375 167.625 C 235.64245 205.559 221.6024 243.102 208.1875 280.875 C 188.0496 336.91 171.66375 394.15025 158.34375 452.15625 C 156.74765 460.25825 155.12725 468.36675 153.53125 476.46875 C 150.13415 494.36175 234.50925 510.36175 237.90625 492.46875 C 239.21155 485.28775 240.5073 478.1185 241.8125 470.9375 C 244.47641 458.81779 247.30927 446.71927 250.3125 434.6875 C 261.81187 441.12357 272.06314 443.93823 275.90625 439.0625 C 280.2252 434.26419 285.00602 430.03785 290.09375 426.1875 C 287.32803 437.02238 284.74418 447.89683 282.1875 458.75 C 275.35131 490.82828 269.00238 523.00485 262.6875 555.1875 C 226.2586 568.1283 189.83669 581.21234 152.65625 591.8125 C 134.81905 596.9275 158.94395 681.02025 176.78125 675.90625 C 199.08979 668.56698 221.21809 660.73569 243.3125 652.78125 C 242.76931 655.43939 242.23526 658.09276 241.6875 660.75 C 230.0256 717.052 216.46695 772.943 201.21875 828.375 C 194.08825 852.671 197.66475 841.129 190.65625 863 C 185.24775 880.529 267.87275 906.029 273.28125 888.5 C 280.48795 864.309 276.85805 876.92325 284.15625 850.65625 C 294.30946 811.99682 303.73741 773.15677 312.46875 734.15625 C 330.09189 763.60501 354.82381 787.75425 380.46875 810.5625 C 415.36925 839.7435 453.43695 864.80875 489.96875 891.84375 C 492.59504 893.86352 492.26216 893.61231 493.90625 894.875 C 485.11725 896.38125 476.31061 897.75265 467.46875 898.9375 C 449.03855 901.4055 460.66355 988.31175 479.09375 985.84375 C 520.77705 978.55675 562.00795 968.8305 603.28125 959.5625 C 665.91495 944.7535 729.0455 932.551 792.8125 923.875 C 840.9145 917.699 889.43555 917.08975 937.71875 920.96875 C 950.71745 922.11175 963.71475 923.70025 976.40625 926.78125 C 994.58095 930.55025 1012.3622 844.86375 994.1875 841.09375 C 977.5088 837.96775 960.67115 835.81975 943.71875 834.84375 C 889.52145 831.58775 835.1429 832.61125 781.25 839.78125 C 715.2917 848.97025 649.90065 861.47325 584.96875 876.28125 C 575.2308 878.37136 565.49368 880.49218 555.75 882.59375 C 567.60511 866.28893 575.51966 848.52271 568.71875 843.28125 C 550.99375 829.83825 560.2289 836.81675 540.9375 822.34375 C 506.3661 797.18275 470.62255 773.57025 437.65625 746.28125 C 416.52975 727.50625 395.00075 707.92025 383.40625 681.53125 C 378.49099 670.51746 343.0502 681.72074 320.875 695.5625 C 322.12137 689.64512 323.351 683.73761 324.5625 677.8125 C 328.53972 658.39489 332.42977 638.94379 336.28125 619.5 C 377.89425 605.57037 420.36504 594.42656 463.71875 587.40625 C 468.37195 586.83725 473.00305 586.2565 477.65625 585.6875 C 495.86165 583.1495 483.92425 497.337 465.71875 499.875 C 460.11175 500.736 454.4821 501.60775 448.875 502.46875 C 417.3308 508.31438 386.17019 515.76696 355.375 524.59375 C 358.5662 509.27965 361.81454 493.98829 365.21875 478.71875 C 373.34135 445.63954 381.32177 411.90168 396.71875 381.3125 C 414.45419 377.27253 432.47286 374.47916 450.65625 372.84375 C 466.15075 372.77575 459.22925 372.2065 471.53125 373.9375 C 489.89725 375.5445 497.45975 288.95075 479.09375 287.34375 C 454.83105 285.80575 467.2189 285.99275 441.9375 286.96875 C 393.8111 292.28175 346.4301 302.897 301.75 322 C 294.71072 325.20257 287.67485 328.50227 280.71875 331.9375 C 283.27001 324.54109 285.89059 317.16085 288.59375 309.8125 C 302.36735 272.0395 316.6032 234.45975 331.125 196.96875 C 335.98508 183.29219 286.67569 162.38782 261.90625 162.25 z M 763.65625 209.0625 C 758.27595 209.3545 752.8803 209.6455 747.5 209.9375 C 701.9781 215.7055 657.41925 226.57825 612.90625 237.53125 C 576.48365 246.58725 540.14615 256.24025 503.34375 263.65625 C 485.12015 267.30125 502.30755 353.2075 520.53125 349.5625 C 558.38745 340.3205 596.0498 330.26925 633.8125 320.65625 C 674.6457 310.72525 715.50345 300.1205 757.40625 295.9375 C 760.49255 295.9375 763.56995 295.9385 766.65625 295.9375 C 785.08785 295.2985 782.08785 208.4245 763.65625 209.0625 z M 719.78125 383.40625 C 701.71016 383.34156 683.63583 384.671 665.65625 387.03125 C 632.97835 391.57625 600.5296 397.45575 568.1875 403.96875 C 564.15645 404.84209 561.94479 409.76396 561.125 416.8125 C 538.6539 406.48671 485.07075 404.66971 483.71875 419.125 C 481.25125 458.714 486.16865 498.138 491.71875 537.25 C 496.63635 568.794 501.53355 600.36525 506.46875 631.90625 C 507.75347 639.67798 524.18745 641.50789 542.3125 639.65625 C 547.6628 664.77193 562.07531 695.03066 572.96875 691.5 C 604.23375 679.731 636.65665 671.59075 669.15625 664.09375 C 700.93505 657.20175 733.15005 651.483 765.71875 650.625 C 767.51965 650.798 769.3241 650.98225 771.125 651.15625 C 781.48124 651.56869 787.12098 624.42463 786.84375 600.3125 C 790.80659 587.69925 794.34252 574.96639 797.46875 562.09375 C 805.40125 531.33575 814.00815 500.583 817.96875 469 C 819.97785 425.122 807.6184 396.94025 761.875 386.28125 C 747.89596 384.34137 733.83655 383.45656 719.78125 383.40625 z M 717.4375 469.90625 C 721.57805 469.88729 725.7195 469.97021 729.84375 470.21875 C 725.87476 493.96354 719.54978 517.25685 713.59375 540.5625 C 711.1579 550.35073 708.56257 560.08648 705.625 569.71875 C 686.95319 572.55369 668.37952 576.127 649.9375 580.25 C 629.26929 584.96426 608.66093 589.98266 588.21875 595.5625 C 584.28364 572.1432 580.54363 548.6856 576.90625 525.21875 C 574.43713 507.69262 572.00376 490.03961 570.75 472.34375 C 575.36452 483.34324 581.05428 490.82097 586.71875 489.59375 C 616.62995 482.26475 646.96865 476.7415 677.46875 472.5625 C 690.67046 471.21756 704.07424 469.96743 717.4375 469.90625 z M 743.1875 471.59375 C 744.93537 471.85665 746.66629 472.16584 748.40625 472.5 C 748.88395 472.838 750.42885 473.52 749.84375 473.5 C 747.26727 473.42538 745.08056 472.69526 743.1875 471.59375 z M 820.25 668.21875 C 818.67928 668.17211 817.28183 668.53055 816.125 669.40625 C 788.4013 691.14425 763.11015 715.66875 738.15625 740.46875 C 718.13895 760.64775 728.1461 750.55625 708.0625 770.78125 C 695.1863 783.72125 756.1863 844.44 769.0625 831.5 C 789.0371 811.469 779.15435 821.37875 798.78125 801.71875 C 821.09035 779.72375 843.54865 757.66175 868.96875 739.21875 C 882.61932 728.88545 838.78445 668.76914 820.25 668.21875 z M 1584.75 669.21875 C 1584.4703 669.20428 1584.1908 669.22234 1583.9062 669.25 C 1534.8783 674.634 1486.1995 682.73075 1437.6875 691.59375 C 1348.7294 708.50875 1260.204 727.686 1172.9688 752.125 C 1119.9074 766.839 1067.1179 782.46 1013.875 796.5 C 996.0043 801.53 1019.7231 885.78 1037.5938 880.75 C 1090.2315 864.383 1142.955 848.35425 1195.9062 833.03125 C 1280.4507 808.40525 1366.5632 790.0215 1453.125 774.1875 C 1499.2682 766.1835 1545.5636 758.97075 1592.25 755.09375 C 1610.1756 753.35042 1602.3681 670.13027 1584.75 669.21875 z M 583.25 701.40625 C 565.56634 702.31698 536.5385 776.46191 552.96875 783.09375 C 573.39955 793.62875 590.2276 809.97775 607.3125 825.09375 C 611.3147 828.65275 615.34155 832.22225 619.34375 835.78125 C 633.08315 847.97325 690.5519 783.193 676.8125 771 C 672.7841 767.432 668.74705 763.8795 664.71875 760.3125 C 640.20955 738.5785 615.75595 715.87875 585.78125 701.84375 C 584.9732 701.51759 584.11969 701.36146 583.25 701.40625 z "
     id="path22471" />
</svg>
