<?xml version="1.0" encoding="utf-8" ?>

<!DOCTYPE svg PUBLIC "-//W3C//DTD SVG 1.1//EN" 
  "http://www.w3.org/Graphics/SVG/1.1/DTD/svg11.dtd">
<svg 
    xmlns="http://www.w3.org/2000/svg"
    xmlns:xlink="http://www.w3.org/1999/xlink"
    xmlns:sodipodi="http://sodipodi.sourceforge.net/DTD/sodipodi-0.dtd"
    xmlns:inkscape="http://www.inkscape.org/namespaces/inkscape"
    width="1024" height="1024" id="U771F">
<path d="m 11502.812,63659.126 c 42.84,5.068 86.16,2.915 129.144,1.273 69.66,-2.979 139.249,-7.339 208.86,-11.237 47.501,-3.326 95.085,-2.862 142.503,1.165 17.905,2.097 35.996,3.488 53.545,7.772 18.119,5.137 -6.097,90.549 -24.215,85.412 l 0,0 c -9.027,-2.844 -26.123,-4.165 -37.594,-6.04 -43.098,-4.576 -86.421,-5.499 -129.703,-2.741 -69.92,3.495 -139.797,7.776 -209.71,11.395 -47.873,2.277 -95.94,4.686 -143.798,0.747 -18.614,-2.327 -7.646,-90.073 10.968,-87.746 z" id="path14599" inkscape:connector-curvature="0" style="fill:#2b1100;fill-opacity:1;fill-rule:nonzero;stroke:none" transform="translate(-11264, -63488)"/><path d="m 11800.881,63583.221 c -13.051,31.294 -24.369,63.303 -36.012,95.143 -14.993,40.966 -29.32,82.181 -40.628,124.328 -4.298,18.399 -2.401,9.543 -5.769,26.553 -3.819,18.202 -89.623,0.2 -85.805,-18.002 l 0,0 c 4.51,-20.547 2.025,-9.946 7.524,-31.787 12.517,-44.119 27.633,-87.401 43.162,-130.541 11.998,-33.615 23.724,-67.335 36.245,-100.757 7.438,-17.243 88.721,17.82 81.283,35.063 z" id="path14605" inkscape:connector-curvature="0" style="fill:#2b1100;fill-opacity:1;fill-rule:nonzero;stroke:none" transform="translate(-11264, -63488)"/><path d="m 11592.977,63827.545 c -0.307,42.315 0.869,84.634 2.369,126.918 1.486,50.392 8.446,100.274 19.451,149.406 5.858,17.099 7.082,37.407 17.354,52.817 8.525,16.686 -70.134,56.875 -78.659,40.188 l 0,0 c -11.209,-23.727 -17.937,-49.05 -23.56,-74.637 -11.368,-54.177 -18.807,-109.049 -20.701,-164.434 -1.824,-43.409 -3.131,-86.836 -4.625,-130.258 0,-18.746 88.371,-18.746 88.371,0 z" id="path14615" inkscape:connector-curvature="0" style="fill:#2b1100;fill-opacity:1;fill-rule:nonzero;stroke:none" transform="translate(-11264, -63488)"/><path d="m 11590.302,63786.99 c 34.681,-22.383 75.606,-28.822 115.697,-34.33 50.961,-6.574 102.209,-6.887 153.056,0.207 36.996,7.333 73.374,22.604 93.911,56.162 4.17,6.813 6.759,14.475 10.138,21.712 14.938,50.486 5.178,102.947 -2.68,153.782 -9.166,54.652 -18.663,109.244 -26.754,164.068 -4.659,30.928 -7.167,62.09 -7.97,93.339 -0.145,10.135 0,5.072 -0.46,15.191 -1.184,18.732 -89.485,13.147 -88.3,-5.585 l 0,0 c 0.675,-7.371 0.353,-3.026 0.772,-13.049 1.761,-34.444 5.003,-68.788 10.407,-102.868 8.516,-54.749 18.17,-109.306 27.021,-164 5.218,-35.305 11.975,-71.464 7.091,-107.184 -3.401,-17.558 -19.965,-21.77 -35.967,-25.557 -42.53,-6.857 -85.583,-5.794 -128.271,-0.301 -25.852,3.676 -53.264,6.617 -76.097,20.332 -15.256,10.945 -66.851,-60.975 -51.594,-71.919 z" id="path14617" inkscape:connector-curvature="0" style="fill:#2b1100;fill-opacity:1;fill-rule:nonzero;stroke:none" transform="translate(-11264, -63488)"/><path d="m 11589.739,63880.437 c 37.556,-9.482 75.412,-17.726 113.318,-25.674 32.027,-6.899 64.354,-11.794 96.939,-14.986 18.382,-1.642 26.122,85.01 7.741,86.652 l 0,0 c -29.181,2.294 -58.062,6.747 -86.675,12.998 -35.572,7.677 -71.166,15.536 -106.102,25.781 -17.983,5.35 -43.204,-79.421 -25.221,-84.771 z" id="path14631" inkscape:connector-curvature="0" style="fill:#2b1100;fill-opacity:1;fill-rule:nonzero;stroke:none" transform="translate(-11264, -63488)"/><path d="m 11583.984,63976.184 c 33.832,-1.028 67.604,-3.463 101.4,-5.272 38.933,-2.274 77.919,-2.617 116.851,-0.423 4.616,0.349 9.233,0.698 13.849,1.048 18.551,1.561 11.192,89.012 -7.359,87.451 l 0,0 c -4.006,-0.377 -8.012,-0.753 -12.018,-1.129 -35.473,-2.532 -71.032,-2.255 -106.533,-0.139 -33.982,1.933 -67.931,4.366 -101.88,6.819 -18.743,0.914 -23.053,-87.441 -4.31,-88.355 z" id="path14633" inkscape:connector-curvature="0" style="fill:#2b1100;fill-opacity:1;fill-rule:nonzero;stroke:none" transform="translate(-11264, -63488)"/><path d="m 11596.971,64084.348 c 38.625,-7.907 77.749,-12.388 117.01,-15.534 44.578,-2.874 89.261,-3.355 133.917,-3.584 15.133,-0.17 30.254,0.299 45.37,0.932 18.608,0.952 14.119,88.672 -4.489,87.72 l 0,0 c -13.615,-0.847 -27.239,-1.481 -40.886,-1.462 -42.305,-0.229 -84.644,0.02 -126.875,2.808 -35.389,2.933 -70.769,6.88 -105.293,15.521 -18.329,3.979 -37.082,-82.423 -18.754,-86.401 z" id="path14637" inkscape:connector-curvature="0" style="fill:#2b1100;fill-opacity:1;fill-rule:nonzero;stroke:none" transform="translate(-11264, -63488)"/><path d="m 11272.136,64232.952 c 47.351,-5.44 94.666,-11.115 142.103,-15.803 85.551,-8.397 171.388,-13.181 257.227,-17.425 88.054,-4.094 176.167,-6.707 264.259,-9.806 47.456,-2.221 94.925,-2.222 142.32,0.955 18.405,1.416 11.726,88.179 -6.679,86.762 l 0,0 c -44.236,-3.91 -88.613,-4.28 -132.992,-2.635 -87.571,2.372 -175.155,4.596 -262.662,8.808 -84.33,4.349 -168.646,9.47 -252.62,18.56 -47.215,5.152 -94.339,11.038 -141.267,18.391 -18.627,2.055 -28.316,-85.752 -9.689,-87.807 z" id="path14641" inkscape:connector-curvature="0" style="fill:#2b1100;fill-opacity:1;fill-rule:nonzero;stroke:none" transform="translate(-11264, -63488)"/><path d="m 11626.592,64363.196 c -21.354,16.757 -39.565,36.939 -56.614,57.939 -7.961,10.594 -17.566,22.45 -21.287,34.501 -5.652,17.872 -89.901,-8.774 -84.249,-26.646 l 0,0 c 8.624,-23.412 21.994,-43.973 37.923,-63.188 20.924,-25.401 43.12,-49.754 68.241,-71.115 14.533,-11.876 70.519,56.633 55.986,68.509 z" id="path14643" inkscape:connector-curvature="0" style="fill:#2b1100;fill-opacity:1;fill-rule:nonzero;stroke:none" transform="translate(-11264, -63488)"/><path d="m 11879.963,64299.485 c 22.459,23.132 45.498,45.651 69.671,66.987 18.167,15.145 9.103,7.775 27.178,22.126 14.449,11.56 -40.049,79.674 -54.498,68.113 l 0,0 c -20.059,-16.161 -9.955,-7.854 -30.296,-24.939 -24.801,-21.876 -48.545,-44.838 -72.453,-67.675 -13.706,-12.813 46.692,-77.424 60.398,-64.612 z" id="path14645" inkscape:connector-curvature="0" style="fill:#2b1100;fill-opacity:1;fill-rule:nonzero;stroke:none" transform="translate(-11264, -63488)"/></svg>