<?xml version="1.0" encoding="UTF-8" standalone="no"?>
<svg
   xmlns:dc="http://purl.org/dc/elements/1.1/"
   xmlns:cc="http://creativecommons.org/ns#"
   xmlns:rdf="http://www.w3.org/1999/02/22-rdf-syntax-ns#"
   xmlns:svg="http://www.w3.org/2000/svg"
   xmlns="http://www.w3.org/2000/svg"
   xmlns:sodipodi="http://sodipodi.sourceforge.net/DTD/sodipodi-0.dtd"
   xmlns:inkscape="http://www.inkscape.org/namespaces/inkscape"
   width="1024"
   height="1024"
   id="U7761"
   version="1.1"
   inkscape:version="0.48.0 r9654"
   sodipodi:docname="U+7761.svg">
  <metadata
     id="metadata20">
    <rdf:RDF>
      <cc:Work
         rdf:about="">
        <dc:format>image/svg+xml</dc:format>
        <dc:type
           rdf:resource="http://purl.org/dc/dcmitype/StillImage" />
      </cc:Work>
    </rdf:RDF>
  </metadata>
  <defs
     id="defs18" />
  <sodipodi:namedview
     pagecolor="#ffffff"
     bordercolor="#666666"
     borderopacity="1"
     objecttolerance="10"
     gridtolerance="10"
     guidetolerance="10"
     inkscape:pageopacity="0"
     inkscape:pageshadow="2"
     inkscape:window-width="640"
     inkscape:window-height="480"
     id="namedview16"
     showgrid="false"
     inkscape:zoom="0.27441406"
     inkscape:cx="512"
     inkscape:cy="512"
     inkscape:window-x="0"
     inkscape:window-y="25"
     inkscape:window-maximized="0"
     inkscape:current-layer="U7761" />
  <path
     style="fill:#782121;fill-opacity:1;fill-rule:nonzero;stroke:#f9f9f9;stroke-width:0.1;stroke-miterlimit:4;stroke-dasharray:none"
     d="M 744 65.28125 C 741.52911 65.270115 739.55353 65.976375 738.21875 67.53125 C 710.85815 98.96325 676.76375 123.35 642.59375 146.75 C 598.80935 176.067 551.75175 199.764 502.78125 219 C 479.23885 226.988 490.5737 223.48625 468.75 229.65625 C 451.0151 234.92125 475.85895 318.54625 493.59375 313.28125 C 520.47405 304.99425 506.6552 309.57225 535 299.40625 C 551.63877 292.623 568.07547 285.42576 584.3125 277.78125 C 586.0691 294.32876 587.84518 310.86429 589.65625 327.40625 C 564.79532 329.27894 539.94455 331.15215 515.09375 333.15625 C 476.17855 336.47125 437.25995 339.82425 398.46875 344.40625 C 379.90295 347.03925 392.3092 434.5705 410.875 431.9375 C 447.9687 426.1225 485.41285 422.76225 522.78125 419.28125 C 548.09686 417.07363 573.41151 415.07662 598.75 413.15625 C 601.93519 447.24975 604.4889 481.38887 606.65625 515.5625 C 569.7269 517.41332 532.81557 519.52694 495.90625 521.78125 C 495.51673 505.47623 495.36984 489.16257 495.5625 472.84375 C 494.8736 454.10575 406.52985 457.35575 407.21875 476.09375 C 407.79892 493.03612 408.42707 509.97153 409.09375 526.90625 C 385.81311 528.11384 362.49632 528.96323 339.21875 528.59375 C 343.03631 497.944 347.16026 467.3254 351.1875 436.6875 C 355.6581 385.3225 358.10325 337.83175 302.40625 314.59375 C 266.34705 306.28475 230.3868 309.79275 194.3125 317.21875 C 160.3299 323.77275 126.5293 331.3205 93.625 342.1875 C 91.663744 342.87169 90.29755 344.52089 89.40625 346.875 C 65.657873 347.8475 40.234948 354.44685 41 364.5625 C 46.9343 415.5575 49.7623 466.8225 52.5625 518.0625 C 56.0682 597.6615 60.9209 677.183 68.5 756.5 C 70.6487 780.46 74.18515 804.20275 78.53125 827.84375 C 79.581244 833.01203 87.28234 835.28946 97.65625 835.5 C 98.236401 859.06694 104.30962 884.15142 114.34375 883.59375 C 155.10885 880.73675 195.837 877.5085 236.5 873.4375 C 249.20743 872.29718 261.82359 870.6253 274.40625 868.65625 C 300.27925 871.12441 333.95306 866.38162 333.84375 854.78125 C 332.68525 832.85325 330.15545 810.9915 328.96875 789.0625 C 325.83265 733.1065 324.62125 676.96125 329.15625 621.03125 C 329.30987 619.2868 329.46649 617.55631 329.625 615.8125 C 357.79403 615.79407 385.95968 614.36952 414.09375 612.59375 C 416.77468 641.62192 419.23588 671.87285 433.375 697.65625 C 436.6222 703.57725 440.98535 708.82125 444.78125 714.40625 C 456.17055 729.20125 525.8893 675.51375 514.5 660.71875 C 507.87875 661.20417 502.82711 627.38343 500.5 606.65625 C 537.43147 604.13234 574.37641 601.94577 611.34375 600.09375 C 612.0334 614.30545 612.68207 628.50591 613.3125 642.71875 C 614.54708 675.62941 615.58165 708.55108 616.59375 741.46875 C 614.31594 741.88013 612.02537 742.2914 609.75 742.71875 C 572.6305 749.82875 535.62295 757.5085 498.46875 764.4375 C 480.17365 768.6475 500.0173 854.8975 518.3125 850.6875 C 551.85066 842.92753 585.55047 835.81588 619.3125 829.09375 C 619.98848 850.0936 620.71148 871.09743 621.5 892.09375 C 621.97739 904.28206 622.4093 916.46758 622.875 928.65625 C 599.2051 927.40561 575.52701 926.01479 551.875 924.40625 C 500.77 921.11125 449.6207 916.75225 398.375 917.15625 C 379.6429 918.18825 384.5178 1006.5018 403.25 1005.4688 C 451.1268 1003.3387 499.10255 1007.0183 546.90625 1009.5312 C 630.67695 1014.3723 714.5096 1017.7672 798.375 1020.4062 C 843.3956 1021.9693 888.42515 1022.5517 933.46875 1022.3438 C 951.74945 1022.1338 950.74945 935.94725 932.46875 936.15625 C 888.59325 936.97525 844.7434 936.86325 800.875 935.53125 C 770.44922 934.70478 740.0073 933.7221 709.59375 932.5625 C 708.71722 917.82031 707.89584 903.06071 707.125 888.3125 C 705.91462 864.28108 704.84257 840.25843 703.84375 816.21875 C 721.49855 814.26568 739.19572 812.65482 756.90625 811.28125 C 767.79805 810.32825 778.6796 810.298 789.5625 811.125 C 808.2252 811.96 812.1627 723.99125 793.5 723.15625 C 778.8168 722.76125 764.1341 722.82725 749.5 724.40625 C 733.1494 725.91345 716.81558 727.55176 700.5 729.40625 C 699.37965 699.24966 698.26218 669.09166 697.0625 638.9375 C 696.41386 624.79216 695.72043 610.64431 695.03125 596.5 C 699.62073 596.33813 704.22242 596.18154 708.8125 596.03125 C 735.557 595.21683 762.28102 594.88862 789.03125 594.90625 C 789.0853 620.81796 788.78259 646.71832 787.4375 672.59375 C 786.6952 691.11475 874.0077 694.61475 874.75 676.09375 C 875.54192 649.37792 875.62098 622.66672 875.5 595.9375 C 886.73357 596.17582 897.9559 596.46259 909.1875 596.75 C 942.4705 597.815 975.79075 599.191 1008.9688 602.125 C 1027.6381 603.377 1033.5444 515.34475 1014.875 514.09375 C 980.2691 512.45975 945.6409 511.1635 911 510.5625 C 898.87864 510.36784 886.74783 510.18035 874.625 510.03125 C 874.03742 481.58712 873.38848 453.16839 873.625 424.71875 C 873.3513 405.97175 784.9763 407.253 785.25 426 C 786.10951 453.89166 787.02159 481.76272 787.8125 509.65625 C 760.49385 509.81605 733.18355 510.29796 705.875 511.25 C 700.7611 511.43602 695.64451 511.64566 690.53125 511.84375 C 688.45381 476.85478 686.04303 441.90252 683.1875 406.96875 C 684.15656 406.89841 685.1247 406.82041 686.09375 406.75 C 726.28285 404.138 766.28315 399.3085 806.34375 395.3125 C 820.69205 393.9645 814.0889 394.43275 826.1875 393.71875 C 844.8275 392.29875 838.10865 304.42375 819.46875 305.84375 C 804.80115 307.15475 812.351 306.4015 796.875 308.1875 C 757.859 312.7655 718.8949 317.898 679.6875 320.625 C 678.25062 320.73495 676.81191 320.8279 675.375 320.9375 C 672.63155 291.55534 669.98191 262.18451 667.875 232.75 C 675.70311 227.9273 683.4657 222.96203 691.125 217.84375 C 731.6995 190.21275 771.66005 161.1895 805.21875 125.0625 C 816.08767 112.40048 764.12008 65.37192 744 65.28125 z M 261.3125 395.875 C 263.08013 395.88444 264.802 395.99681 266.5 396.15625 C 266.27229 399.59622 266.37125 406.31793 266.125 410.71875 C 265.7735 417.00175 265.14235 423.25825 264.65625 429.53125 C 262.24086 450.07175 259.70595 470.59882 257.21875 491.125 C 257.04489 491.11892 256.86385 491.11528 256.6875 491.125 C 240.4902 492.177 224.3446 493.49725 208.3125 496.15625 C 184.28311 500.27308 160.31282 505.37676 137.53125 513.90625 C 136.21115 483.24524 134.81674 452.61043 133.15625 421.96875 C 158.46234 413.43561 184.64722 407.87467 210.84375 402.8125 C 224.87662 401.92269 244.46015 395.78505 261.3125 395.875 z M 271.34375 396.84375 C 274.18139 397.42511 276.86098 398.29266 279.34375 399.53125 C 277.1006 401.85927 273.99203 399.23156 271.34375 396.84375 z M 247 579.5625 C 247.05181 579.55865 247.10444 579.56633 247.15625 579.5625 C 245.99125 590.86483 244.85091 602.17795 243.84375 613.5 C 243.73533 614.80218 243.66532 616.10385 243.5625 617.40625 C 241.45614 617.33574 239.53574 617.26738 235.75 617.125 C 207.593 616.899 179.3185 617.9825 151.25 615.3125 C 148.20431 614.90814 145.35183 616.93573 142.78125 620.59375 C 142.27668 612.81434 141.82375 605.03328 141.375 597.25 C 146.83128 602.10634 151.9038 604.37667 155.5625 602.28125 C 176.3091 590.75325 199.76035 586.20375 222.90625 582.34375 C 230.90812 581.04625 238.93651 580.16151 247 579.5625 z M 149.3125 703.625 C 177.76833 705.08844 206.26695 704.14671 234.75 704.5625 C 237.42666 704.70305 238.72267 704.76938 240.3125 704.84375 C 240.29072 731.81916 241.01785 758.79588 242.125 785.75 C 237.40433 786.33745 232.65304 786.85887 227.90625 787.28125 C 205.45134 789.49751 182.98427 791.44533 160.46875 792.9375 C 157.59287 777.9948 155.34531 762.95041 153.75 747.78125 C 152.14369 733.07388 150.67955 718.35163 149.3125 703.625 z "
     id="path11092" />
</svg>
