<?xml version="1.0" encoding="UTF-8" standalone="no"?>
<svg
   xmlns:dc="http://purl.org/dc/elements/1.1/"
   xmlns:cc="http://creativecommons.org/ns#"
   xmlns:rdf="http://www.w3.org/1999/02/22-rdf-syntax-ns#"
   xmlns:svg="http://www.w3.org/2000/svg"
   xmlns="http://www.w3.org/2000/svg"
   xmlns:sodipodi="http://sodipodi.sourceforge.net/DTD/sodipodi-0.dtd"
   xmlns:inkscape="http://www.inkscape.org/namespaces/inkscape"
   width="1024"
   height="1024"
   id="U7701"
   version="1.1"
   inkscape:version="0.48.0 r9654"
   sodipodi:docname="U+7701.svg">
  <metadata
     id="metadata16">
    <rdf:RDF>
      <cc:Work
         rdf:about="">
        <dc:format>image/svg+xml</dc:format>
        <dc:type
           rdf:resource="http://purl.org/dc/dcmitype/StillImage" />
      </cc:Work>
    </rdf:RDF>
  </metadata>
  <defs
     id="defs14" />
  <sodipodi:namedview
     pagecolor="#ffffff"
     bordercolor="#666666"
     borderopacity="1"
     objecttolerance="10"
     gridtolerance="10"
     guidetolerance="10"
     inkscape:pageopacity="0"
     inkscape:pageshadow="2"
     inkscape:window-width="640"
     inkscape:window-height="480"
     id="namedview12"
     showgrid="false"
     inkscape:zoom="0.27441406"
     inkscape:cx="512"
     inkscape:cy="512"
     inkscape:window-x="0"
     inkscape:window-y="25"
     inkscape:window-maximized="0"
     inkscape:current-layer="U7701" />
  <path
     style="fill:#a02c2c;fill-opacity:1;fill-rule:nonzero;stroke:#f9f9f9;stroke-width:0.1;stroke-miterlimit:4;stroke-dasharray:none"
     d="M 370 39.21875 C 357.91557 39.248275 348.67881 41.666563 347.625 47.4375 C 341.4341 85.336365 339.74935 123.73183 338.8125 162.0625 C 326.23327 151.29723 313.63412 144.62934 308.34375 149.71875 C 283.05225 177.50375 261.061 208.0865 239 238.4375 C 213.5098 273.7885 189.0983 309.9085 166.3125 347.0625 C 156.4246 364.9615 160.8674 356.01275 152.875 373.84375 C 145.6834 391.08375 226.9334 424.99 234.125 407.75 C 237.2848 398.587 235.1727 403.916 241.1875 392.125 C 261.9727 356.795 284.9346 322.799 309 289.625 C 318.81743 276.27527 328.62904 262.83312 338.84375 249.75 C 339.82539 290.96221 342.10649 332.13118 345.59375 373.21875 C 347.63005 399.75375 352.27595 425.93825 357.28125 452.03125 C 358.84922 459.83504 375.63935 461.06744 393.90625 458.5 C 336.75803 499.31795 278.68177 538.80268 219.8125 577.09375 C 193.1406 594.46475 166.17795 611.35275 139.03125 627.96875 C 133.95333 632.10833 122.16042 635.35355 136.8125 630.78125 C 120.3155 638.01615 136.35004 721.29473 154.46875 717.90625 C 166.03575 714.53725 176.3746 709.66325 186.1875 702.53125 C 213.323 684.81225 240.4091 667.0085 267.3125 648.9375 C 322.33694 611.99682 376.85886 574.33111 430.8125 535.84375 C 428.81504 537.79147 426.86162 539.78796 424.9375 541.84375 C 411.9998 555.45275 476.15605 616.45375 489.09375 602.84375 C 502.06515 587.87175 518.341 577.74575 536.375 570.09375 C 564.7275 559.64275 594.78485 555.68725 624.78125 553.90625 C 643.63635 553.90525 663.3071 554.37525 680.8125 562.15625 C 686.5811 566.08725 680.54355 562.86525 680.28125 564.65625 C 679.73295 568.40125 681.0999 572.1815 681.5625 575.9375 C 684.5325 618.3775 680.62565 660.9865 677.46875 703.3125 C 672.96175 755.4755 668.3902 807.6175 666.1875 859.9375 C 666.14939 861.01093 666.12892 862.08277 666.09375 863.15625 C 655.21878 863.31894 644.3584 863.68823 633.5 864.21875 C 591.1817 866.71675 549.07055 871.43375 506.90625 875.71875 C 486.01939 877.25101 465.03052 878.69265 444.0625 878.65625 C 458.3651 868.45781 469.58192 856.65227 468.09375 849.34375 C 476.62186 871.19973 468.47282 850.58247 469.75 842.125 C 469.38293 834.82572 469.07083 827.52186 468.78125 820.21875 C 470.41022 826.61607 473.10162 830.8379 477.03125 831.25 C 507.04545 833.389 537.06215 835.34075 567.09375 837.21875 C 580.05045 837.90775 592.9747 838.84875 605.875 840.21875 C 624.4368 841.97875 632.7493 754.47875 614.1875 752.71875 C 600.2934 751.52775 586.369 750.5915 572.4375 749.9375 C 543.6729 748.2115 514.8933 746.50125 486.25 743.28125 C 477.03419 742.31528 470.10906 763.29335 467.71875 785 C 467.45324 770.97383 467.36673 756.96731 467.53125 742.9375 C 468.22195 703.1275 470.029 663.3495 471.5 623.5625 C 471.5 604.8205 383.15625 604.8205 383.15625 623.5625 C 383.41075 662.8485 381.5335 702.101 380.8125 741.375 C 380.2977 776.111 380.90395 810.8415 381.90625 845.5625 C 381.48455 863.5505 385.0694 878.826 392.3125 895.125 C 393.36376 896.77448 395.12749 897.73892 397.40625 898.125 C 390.36723 923.75054 390.34327 963.98208 402.90625 965.28125 C 439.78285 967.49025 476.70235 965.1795 513.46875 962.3125 C 554.99985 958.0375 596.4708 953.3235 638.1875 951.3125 C 647.0181 951.06826 655.86438 950.84478 664.71875 950.78125 C 665.00334 952.6429 665.06281 954.2827 665 955.6875 C 665.06739 955.54435 665.11539 955.43025 665.1875 955.28125 C 665.93893 953.72891 666.79212 952.22364 667.6875 950.75 C 669.33141 950.74636 670.98139 950.76938 672.625 950.78125 C 678.68112 972.72749 723.70062 1016.3197 735.15625 1005.4062 C 750.93165 983.14225 753.72485 977.13525 752.84375 951.03125 C 752.67545 921.76125 752.1024 892.48575 752.875 863.21875 C 754.5982 811.99075 758.93215 760.95325 763.46875 709.90625 C 767.32685 660.95525 772.1896 611.6505 768.1875 562.5625 C 761.7619 524.1605 749.7357 496.053 712.0625 479.75 C 682.1407 469.106 650.86325 465.09525 619.09375 466.78125 C 578.99095 469.59625 538.8729 475.31 501.1875 490 C 493.94129 493.24813 486.8182 496.70343 479.90625 500.4375 C 530.66148 463.55621 581.16508 426.27827 630.875 388 C 641.99523 394.85722 676.12411 364.29811 688.59375 342.34375 C 718.68715 317.77466 748.31959 292.6127 775.78125 265.09375 C 788.57615 251.36275 723.82615 191.019 711.03125 204.75 C 687.77438 229.985 661.97949 252.66531 635.6875 274.6875 C 623.1149 263.66024 610.58466 252.57299 598.21875 241.3125 C 575.27655 220.4285 552.20375 199.61875 530.46875 177.46875 C 517.35615 164.03575 454.04365 225.84925 467.15625 239.28125 C 491.03905 261.78625 515.37505 283.83975 539.71875 305.84375 C 548.69396 313.97643 557.7262 322.01907 566.78125 330.0625 C 525.18036 362.39629 482.91296 393.88676 440.34375 424.9375 C 436.34317 405.34508 432.87269 385.65818 431.21875 365.6875 C 425.46795 303.0685 423.09255 240.16725 424.59375 177.28125 C 425.78605 139.18125 427.0229 100.80875 434.6875 63.34375 C 437.00582 50.648375 396.58574 39.153795 370 39.21875 z M 665 955.6875 C 661.24936 963.65493 664.69057 962.60792 665 955.6875 z M 497 625.90625 C 478.2392 625.90625 478.2392 714.34375 497 714.34375 C 522.7556 713.79075 548.53025 714.49 574.21875 716.375 C 586.40225 717.823 580.8754 716.8725 590.875 718.9375 C 609.2743 722.1925 624.61815 635.4425 606.21875 632.1875 C 589.10295 629.4275 597.76075 630.58375 580.15625 628.84375 C 552.46275 627.08875 524.7404 626.45825 497 625.90625 z "
     id="path12013" />
</svg>
