<?xml version="1.0" encoding="utf-8" ?>

<!DOCTYPE svg PUBLIC "-//W3C//DTD SVG 1.1//EN" 
  "http://www.w3.org/Graphics/SVG/1.1/DTD/svg11.dtd">
<svg 
    xmlns="http://www.w3.org/2000/svg"
    xmlns:xlink="http://www.w3.org/1999/xlink"
    xmlns:sodipodi="http://sodipodi.sourceforge.net/DTD/sodipodi-0.dtd"
    xmlns:inkscape="http://www.inkscape.org/namespaces/inkscape"
    width="1024" height="1024" id="U773C">
<path d="m 9418.1007,56657.705 c -4.8385,41.547 -3.8097,83.575 -3.5578,125.331 0.7058,59.441 1.8857,118.889 4.6373,178.274 1.0855,19.09 1.9849,38.283 5.9814,57.026 3.2017,18.409 -83.5769,33.501 -86.7786,15.093 l 0,0 c -3.4328,-22.751 -5.0159,-45.682 -5.6316,-68.684 -2.0126,-60.253 -3.0314,-120.535 -4.1804,-180.81 -0.6816,-46.105 -1.9753,-92.374 1.9878,-138.371 2.5755,-18.571 90.1173,-6.43 87.5419,12.141 z" id="path12849" inkscape:connector-curvature="0" style="fill:#916f6f;fill-opacity:1;fill-rule:nonzero;stroke:#f9f9f9;stroke-width:0.1;stroke-miterlimit:4;stroke-dasharray:none" transform="translate(-9216, -56320)"/><path d="m 9351.0644,56611.969 c 32.9023,-6.595 66.4475,-7.237 99.852,-6.017 32.536,1.802 64.8557,6.513 96.0014,16.149 40.9814,15.273 55.159,43.765 61.8181,84.846 3.2042,47.653 -4.0841,95.228 -9.156,142.511 -5.0697,46.116 -8.3124,92.398 -10.8094,138.715 -0.8707,17.717 -0.4492,9.391 -1.2562,24.979 -1.2853,18.625 -89.0848,12.566 -87.7995,-6.059 l 0,0 c 1.3073,-14.964 0.6407,-6.819 1.948,-24.44 3.4475,-47.449 7.0386,-94.893 12.0558,-142.207 4.1212,-40.141 9.8123,-80.482 8.2251,-120.912 -0.3344,-3.365 -2.1479,-7.044 -0.7383,-10.118 0.8374,-1.826 7.4885,0.838 -1.5652,-3.684 -23.0529,-8.299 -47.8614,-10.468 -72.1108,-12.531 -25.5668,-1.066 -51.387,-0.853 -76.4519,4.978 -18.2879,4.245 -38.301,-81.965 -20.0131,-86.21 z" id="path12851" inkscape:connector-curvature="0" style="fill:#916f6f;fill-opacity:1;fill-rule:nonzero;stroke:#f9f9f9;stroke-width:0.1;stroke-miterlimit:4;stroke-dasharray:none" transform="translate(-9216, -56320)"/><path d="m 9417.852,56769.372 c 26.9982,3.177 54.1275,5.135 81.2306,7.181 16.3793,1.158 8.3155,0.532 24.1921,1.868 18.5808,1.697 10.5825,89.288 -7.9983,87.591 l 0,0 c -14.6092,-1.452 -6.9179,-0.75 -23.0776,-2.065 -27.7779,-2.277 -55.5581,-4.527 -83.3523,-6.598 -18.6625,-1.911 -9.6571,-89.887 9.0055,-87.977 z" id="path12853" inkscape:connector-curvature="0" style="fill:#916f6f;fill-opacity:1;fill-rule:nonzero;stroke:#f9f9f9;stroke-width:0.1;stroke-miterlimit:4;stroke-dasharray:none" transform="translate(-9216, -56320)"/><path d="m 9403.2551,56898.913 c 27.7994,-6.234 55.965,-9.86 84.405,-11.045 14.0359,-0.426 28.0223,0.756 41.9858,1.956 18.5841,1.747 10.347,89.353 -8.2371,87.606 l 0,0 c -10.1461,-1.059 -20.3069,-2.174 -30.5304,-1.983 -22.8161,0.679 -45.44,3.83 -67.5283,9.707 -18.2945,4.262 -38.3895,-81.979 -20.095,-86.241 z" id="path12855" inkscape:connector-curvature="0" style="fill:#916f6f;fill-opacity:1;fill-rule:nonzero;stroke:#f9f9f9;stroke-width:0.1;stroke-miterlimit:4;stroke-dasharray:none" transform="translate(-9216, -56320)"/><path d="m 9386.1633,57021.58 c 33.0615,-1.882 66.0342,-5.033 99.0486,-7.583 32.5502,-2.556 65.2166,-3.639 97.546,-8.4 8.3911,-1.113 16.3728,-3.708 24.3049,-6.514 17.7661,-5.815 45.1779,77.935 27.4118,83.75 l 0,0 c -12.9913,4.063 -26.0576,7.887 -39.6227,9.572 -34.1532,4.543 -68.5464,6.005 -102.894,8.46 -32.9046,2.569 -65.7701,5.585 -98.6158,8.818 -18.6895,1.523 -25.8682,-86.58 -7.1788,-88.103 z" id="path12857" inkscape:connector-curvature="0" style="fill:#916f6f;fill-opacity:1;fill-rule:nonzero;stroke:#f9f9f9;stroke-width:0.1;stroke-miterlimit:4;stroke-dasharray:none" transform="translate(-9216, -56320)"/><path d="m 9703.4764,56528.666 c 34.9428,-2.781 70.078,-0.988 105.0683,-0.05 40.387,0.849 80.762,1.944 121.0697,4.671 34.8064,1.915 62.2109,10.62 88.6436,33.473 25.915,28.75 27.495,65.448 26.362,102.145 -2.394,37.736 -8.763,75.058 -15.084,112.291 -2.732,17.086 -5.957,34.004 -10.737,50.632 -5.548,17.88 -89.8331,-8.274 -84.2851,-26.153 l 0,0 c 4.6491,-12.705 6.0921,-26.277 8.9129,-39.449 5.9053,-33.163 11.7351,-66.441 13.8032,-100.108 0.3426,-10.267 -2.1441,-26.909 0.1861,-35.452 -4.0567,-9.734 -25.5625,-8.128 -34.1586,-10.256 -38.8725,-3.062 -77.8389,-4.192 -116.8199,-4.899 -30.1446,-0.654 -60.4998,-2.123 -90.5549,0.826 -18.5979,2.632 -31.0042,-85.039 -12.4063,-87.671 z" id="path12859" inkscape:connector-curvature="0" style="fill:#916f6f;fill-opacity:1;fill-rule:nonzero;stroke:#f9f9f9;stroke-width:0.1;stroke-miterlimit:4;stroke-dasharray:none" transform="translate(-9216, -56320)"/><path d="m 9734.4289,56689.063 c 27.5339,-2.187 55.191,-1.947 82.7912,-2.03 29.2553,0.02 58.5043,-0.557 87.7449,-1.434 18.6366,-0.409 20.5619,87.445 1.9253,87.854 l 0,0 c -29.7409,0.413 -59.4805,0.956 -89.2247,1.076 -23.9162,0.173 -47.93,-0.08 -71.7499,2.325 -18.6234,2.437 -30.1102,-85.355 -11.4868,-87.791 z" id="path12861" inkscape:connector-curvature="0" style="fill:#916f6f;fill-opacity:1;fill-rule:nonzero;stroke:#f9f9f9;stroke-width:0.1;stroke-miterlimit:4;stroke-dasharray:none" transform="translate(-9216, -56320)"/><path d="m 9710.8283,56823.237 c 27.8993,-1.426 55.7329,-3.846 83.6283,-5.403 36.0891,-1.958 72.237,-2.182 108.3671,-1.799 15.8698,0.211 31.7294,0.826 47.5887,1.403 18.5764,0.779 14.9057,88.349 -3.6707,87.57 l 0,0 c -14.9827,-0.713 -29.9671,-1.446 -44.9673,-1.682 -34.1099,-0.461 -68.2373,-0.201 -102.3041,1.762 -28.0654,1.661 -56.07,4.012 -84.0707,6.528 -18.7479,0.969 -23.3192,-87.409 -4.5713,-88.379 z" id="path12863" inkscape:connector-curvature="0" style="fill:#916f6f;fill-opacity:1;fill-rule:nonzero;stroke:#f9f9f9;stroke-width:0.1;stroke-miterlimit:4;stroke-dasharray:none" transform="translate(-9216, -56320)"/><path d="m 9779.1263,56640.67 c -11.6961,27.572 -15.8762,57.544 -20.3509,86.935 -7.4264,52.927 -11.4528,106.243 -14.7703,159.56 -3.082,49.234 -3.4103,98.558 -2.6091,147.861 1.1893,33.4 0.6906,66.905 3.8679,100.201 -1.0422,10.575 9.0415,19.751 1.3501,8.853 -5.1203,-3.956 1.1992,-2.727 4.5425,-3.155 12.1652,-1.918 23.4236,-7.242 34.6497,-12.044 18.7656,-8.378 37.2539,-17.353 55.7284,-26.348 16.7628,-8.116 55.0242,70.904 38.2614,79.021 l 0,0 c -19.6285,9.451 -39.2124,19 -59.0271,28.058 -20.4429,8.945 -41.236,17.67 -63.7369,19.555 -22.8892,1.176 -45.049,-1.465 -64.4006,-14.938 -21.9665,-19.007 -33.1506,-42.497 -34.8731,-71.678 -2.6371,-35.388 -2.1871,-70.893 -3.1132,-106.35 -0.5627,-51.501 0.046,-103.013 3.3252,-154.431 3.5205,-55.728 7.7641,-111.442 15.0457,-166.825 5.3835,-37.52 11.1258,-75.373 25.4568,-110.724 7.7321,-17.11 88.3855,19.34 80.6535,36.449 z" id="path12865" inkscape:connector-curvature="0" style="fill:#916f6f;fill-opacity:1;fill-rule:nonzero;stroke:#f9f9f9;stroke-width:0.1;stroke-miterlimit:4;stroke-dasharray:none" transform="translate(-9216, -56320)"/><path d="m 10147.562,56942.806 c -23.159,24.8 -46.295,49.596 -70.25,73.634 -30.217,30.167 -62.89,57.62 -98.6118,80.996 -15.5684,10.02 -62.8061,-63.37 -47.2378,-73.39 l 0,0 c 30.8085,-19.38 58.283,-43.346 84.1296,-68.904 23.04,-23.283 45.368,-47.242 66.755,-72.059 12.669,-13.834 77.884,45.889 65.215,59.723 z" id="path12867" inkscape:connector-curvature="0" style="fill:#916f6f;fill-opacity:1;fill-rule:nonzero;stroke:#f9f9f9;stroke-width:0.1;stroke-miterlimit:4;stroke-dasharray:none" transform="translate(-9216, -56320)"/><path d="m 9841.2478,56959.277 c 22.7706,21.754 49.4437,38.943 75.6205,56.25 34.4248,22.626 70.3399,42.816 106.5077,62.485 30.974,16.264 61.482,33.361 91.722,50.945 12.578,7.356 24.828,15.247 36.869,23.445 15.347,10.759 -35.37,83.106 -50.717,72.347 l 0,0 c -9.894,-7.213 -20.122,-13.959 -30.608,-20.285 -29.23,-17.431 -58.851,-34.166 -88.9456,-50.068 -38.2175,-20.922 -76.1287,-42.448 -112.6129,-66.304 -31.6345,-20.755 -63.5279,-41.596 -91.4125,-67.334 -13.0421,-13.487 50.5347,-74.967 63.5768,-61.481 z" id="path12869" inkscape:connector-curvature="0" style="fill:#916f6f;fill-opacity:1;fill-rule:nonzero;stroke:#f9f9f9;stroke-width:0.1;stroke-miterlimit:4;stroke-dasharray:none" transform="translate(-9216, -56320)"/></svg>