<?xml version="1.0" encoding="utf-8" ?>

<!DOCTYPE svg PUBLIC "-//W3C//DTD SVG 1.1//EN" 
  "http://www.w3.org/Graphics/SVG/1.1/DTD/svg11.dtd">
<svg 
    xmlns="http://www.w3.org/2000/svg"
    xmlns:xlink="http://www.w3.org/1999/xlink"
    xmlns:sodipodi="http://sodipodi.sourceforge.net/DTD/sodipodi-0.dtd"
    xmlns:inkscape="http://www.inkscape.org/namespaces/inkscape"
    width="1024" height="1024" id="U78C1">
<path d="m 10317.665,6400.386 c 36.437,-8.7049 73.004,-16.8186 109.711,-24.2988 43.432,-8.5296 87.178,-15.6344 131.273,-19.6182 15.449,-2.2663 28.9,0.6475 43.677,4.7 17.291,6.8968 -15.221,88.405 -32.511,81.5082 l 0,0 c 19.35,2.5268 -2.584,-1.1395 -4.372,0.2206 -40.601,2.6153 -80.823,9.2723 -120.698,17.1946 -35.097,7.367 -70.118,15.231 -104.64,24.9866 -17.966,4.7602 -40.406,-79.9327 -22.44,-84.693 z" id="path21387" inkscape:connector-curvature="0" style="fill:#800000;fill-opacity:1;fill-rule:nonzero;stroke:#f9f9f9;stroke-width:0.1;stroke-miterlimit:4;stroke-dasharray:none" transform="translate(-10240, -6144)"/><path d="m 10479.153,6477.5843 c -9.054,41.0234 -20.067,81.5827 -31.126,122.1008 -15.003,53.5643 -30.558,106.9648 -44.275,160.8782 -4.429,17.6975 -8.57,35.4641 -12.686,53.2362 -4.338,17.8668 -88.563,-2.5823 -84.225,-20.4491 l 0,0 c 4.602,-18.1301 9.202,-36.2609 13.921,-54.3611 14.327,-54.0001 30.045,-107.6082 44.742,-161.5067 10.116,-38.1681 20.395,-76.39 27.444,-115.2682 3.26,-18.2867 89.465,-2.9169 86.205,15.3699 z" id="path21389" inkscape:connector-curvature="0" style="fill:#800000;fill-opacity:1;fill-rule:nonzero;stroke:#f9f9f9;stroke-width:0.1;stroke-miterlimit:4;stroke-dasharray:none" transform="translate(-10240, -6144)"/><path d="m 10474.336,6672.6842 c 2.073,34.4144 4.487,68.804 6.375,103.2309 1.762,37.781 4.105,75.5222 7.443,113.1965 0.445,3.5531 0.889,7.1061 1.334,10.6592 2.027,18.3451 -84.452,27.9039 -86.48,9.5587 l 0,0 c -0.438,-4.4319 -0.876,-8.8639 -1.314,-13.2958 -2.756,-38.3874 -4.983,-76.8035 -6.88,-115.2432 -2.019,-34.3814 -4.471,-68.7351 -7.948,-103.0039 -1.083,-18.5553 86.388,-23.6578 87.47,-5.1024 z" id="path21391" inkscape:connector-curvature="0" style="fill:#800000;fill-opacity:1;fill-rule:nonzero;stroke:#f9f9f9;stroke-width:0.1;stroke-miterlimit:4;stroke-dasharray:none" transform="translate(-10240, -6144)"/><path d="m 10474.697,6640.4643 c 23.63,-11.6324 48.691,-19.7525 74.103,-26.4199 21.388,-6.1082 42.264,-8.0928 64.066,-3.8545 35.129,13.0328 42.325,44.1329 41.399,77.7394 -2.19,33.1742 -8.16,65.9318 -14.425,98.532 -7.623,38.105 -15.732,76.1144 -24.723,113.9205 -5.008,19.6979 -2.425,10.1503 -7.703,28.6551 -5.231,17.6865 -88.606,-6.9744 -83.375,-24.6609 l 0,0 c 4.719,-15.27 2.349,-7.139 7.008,-24.4221 9.023,-36.3049 16.849,-72.8926 23.986,-109.6137 5.295,-28.1869 10.356,-56.5117 12.004,-85.1914 0.163,-3.9575 0.347,-8.4943 0.363,-8.499 0.789,-0.236 0.733,1.4804 1.184,2.1699 5.317,8.1224 11.638,14.0403 21.489,16.1242 15.566,0.6949 -18.356,-0.012 -19.638,3.4693 -18.839,4.6841 -37.542,10.3966 -54.77,19.518 -16.433,8.6906 -57.401,-68.7762 -40.968,-77.4669 z" id="path21393" inkscape:connector-curvature="0" style="fill:#800000;fill-opacity:1;fill-rule:nonzero;stroke:#f9f9f9;stroke-width:0.1;stroke-miterlimit:4;stroke-dasharray:none" transform="translate(-10240, -6144)"/><path d="m 10450.743,6893.3684 c 30.79,-5.9836 61.326,-13.2379 91.903,-20.2196 21.234,-5.0056 10.915,-2.4692 30.964,-7.5797 17.827,-4.4582 38.843,79.5785 21.016,84.0367 l 0,0 c -21.605,5.3081 -10.659,2.7013 -32.839,7.8096 -31.815,7.1886 -63.565,14.6502 -95.317,22.1087 -18.276,3.3361 -34.003,-82.8195 -15.727,-86.1557 z" id="path21395" inkscape:connector-curvature="0" style="fill:#800000;fill-opacity:1;fill-rule:nonzero;stroke:#f9f9f9;stroke-width:0.1;stroke-miterlimit:4;stroke-dasharray:none" transform="translate(-10240, -6144)"/><path d="m 10794.05,6275.9461 c 17.088,23.3085 36.216,44.996 56.247,65.7924 3.524,3.3858 7.048,6.7717 10.572,10.1575 13.189,12.7822 -47.066,74.9567 -60.256,62.1746 l 0,0 c -4.239,-4.1377 -8.478,-8.2754 -12.717,-12.4131 -22.075,-23.0502 -43.103,-47.036 -63.004,-71.9968 -11.394,-14.6705 57.763,-68.3851 69.158,-53.7146 z" id="path21397" inkscape:connector-curvature="0" style="fill:#800000;fill-opacity:1;fill-rule:nonzero;stroke:#f9f9f9;stroke-width:0.1;stroke-miterlimit:4;stroke-dasharray:none" transform="translate(-10240, -6144)"/><path d="m 11046.772,6318.2032 c -19.775,25.5424 -39.567,51.0491 -60.271,75.8493 -19.073,21.8311 -9.289,10.8918 -29.373,32.8004 -12.309,13.4762 -75.837,-44.5516 -63.527,-58.0278 l 0,0 c 18.158,-19.9579 9.314,-9.989 26.549,-29.8907 19.63,-23.7612 38.529,-48.1131 56.503,-73.1569 11.121,-14.8746 81.24,37.5511 70.119,52.4257 z" id="path21399" inkscape:connector-curvature="0" style="fill:#800000;fill-opacity:1;fill-rule:nonzero;stroke:#f9f9f9;stroke-width:0.1;stroke-miterlimit:4;stroke-dasharray:none" transform="translate(-10240, -6144)"/><path d="m 10688.298,6487.0767 c 37.72,-15.1503 78.171,-21.3908 118.155,-27.2928 50.535,-6.7795 101.475,-9.6958 152.409,-11.1188 29.075,-0.227 58.214,-0.5005 87.256,1.1859 2.975,0.451 5.95,0.902 8.925,1.353 18.248,3.8099 0.288,89.8304 -17.96,86.0205 l 0,0 c 0.672,-0.03 1.343,-0.06 2.014,-0.09 -25.889,-2.9992 -52.144,-2.0957 -78.143,-2.5659 -47.378,0.9713 -94.77,3.5729 -141.744,10.0937 -31.602,4.8442 -63.843,9.5085 -93.628,21.6416 -16.807,7.909 -54.09,-71.3184 -37.284,-79.2274 z" id="path21401" inkscape:connector-curvature="0" style="fill:#800000;fill-opacity:1;fill-rule:nonzero;stroke:#f9f9f9;stroke-width:0.1;stroke-miterlimit:4;stroke-dasharray:none" transform="translate(-10240, -6144)"/><path d="m 10837.123,6553.1206 c -16.877,25.3154 -33.198,50.9937 -49.867,76.4458 -11.86,20.4516 -28.334,39.0072 -36.464,61.4693 5.75,-13.4731 -1.254,-25.9362 -11.223,-35.8745 -1.28,-1.2762 -3.499,-1.4827 -4.545,-2.9564 -0.482,-0.6776 1.661,0.043 2.492,0.065 19.951,1.5214 39.931,-0.8775 59.745,-3.0257 9.191,-1.003 18.373,-2.0802 27.555,-3.1616 18.446,-1.9761 27.761,84.9767 9.316,86.9528 l 0,0 c -9.26,0.894 -18.519,1.7909 -27.773,2.7353 -27.143,2.7726 -54.523,5.7927 -81.794,2.928 -45.677,-7.8635 -69.606,-34.4108 -54.22,-81.6974 11.929,-26.6055 28.535,-50.5375 44.571,-74.7998 16.477,-25.1703 32.707,-50.5107 48.363,-76.2006 9.995,-15.6648 83.84,31.455 73.844,47.1198 z" id="path21403" inkscape:connector-curvature="0" style="fill:#800000;fill-opacity:1;fill-rule:nonzero;stroke:#f9f9f9;stroke-width:0.1;stroke-miterlimit:4;stroke-dasharray:none" transform="translate(-10240, -6144)"/><path d="m 10878.128,6670.9665 c -18.065,21.6771 -33.355,45.5207 -49.201,68.8277 -24.936,36.4878 -50.395,72.6122 -75.032,109.3036 -7.661,11.9317 -15.758,23.6419 -22.576,36.0961 -4.298,7.851 -4.129,9.3355 -3.784,9.1131 1.01,-0.6504 1.084,-2.1447 1.625,-3.2171 1.967,-8.5998 -0.167,-16.219 -4.921,-23.4177 -0.855,-1.2942 -4.23,-3.0785 -2.812,-3.7071 0.787,-0.3491 1.718,0.1169 2.577,0.1753 20.004,1.8008 40,-1.4329 59.633,-4.9483 15.506,-2.9117 30.726,-7.0627 45.746,-11.8462 17.751,-5.4063 43.237,78.2731 25.486,83.6794 l 0,0 c -18.502,5.435 -37.209,10.1684 -56.189,13.6361 -30.877,5.3599 -62.404,9.8629 -93.651,4.7261 -38.288,-9.5618 -62.905,-28.3024 -62.538,-71.0885 6.515,-29.2997 22.832,-53.3203 40.084,-77.6038 24.928,-36.3531 50.321,-72.3889 74.823,-109.0328 17.565,-26.3724 34.681,-53.1376 54.402,-77.979 12.152,-14.0702 78.48,43.2129 66.328,57.2831 z" id="path21405" inkscape:connector-curvature="0" style="fill:#800000;fill-opacity:1;fill-rule:nonzero;stroke:#f9f9f9;stroke-width:0.1;stroke-miterlimit:4;stroke-dasharray:none" transform="translate(-10240, -6144)"/><path d="m 10928.307,6836.1083 c -0.669,15.8077 3.42,31.0234 10.153,45.1854 7.451,16.9165 -72.294,52.0384 -79.745,35.1219 l 0,0 c -11.229,-26.4873 -18.527,-54.2103 -17.979,-83.2264 0.619,-18.5767 88.191,-15.6577 87.571,2.9191 z" id="path21407" inkscape:connector-curvature="0" style="fill:#800000;fill-opacity:1;fill-rule:nonzero;stroke:#f9f9f9;stroke-width:0.1;stroke-miterlimit:4;stroke-dasharray:none" transform="translate(-10240, -6144)"/><path d="m 11016.457,6587.2079 c -16.473,19.4037 -31.526,39.9577 -45.585,61.16 -2.133,3.4114 -4.343,6.7752 -6.397,10.234 -0.486,0.8171 -13.072,28.0462 -9.331,22.3601 1.332,-7.8651 -1.463,-14.1546 -6.156,-20.2986 -0.92,-1.2045 -4.239,-3.0862 -2.806,-3.5779 0.953,-0.3269 2.014,-0.085 3.02,-0.1273 11.998,-0.2417 23.519,-3.7087 34.85,-7.3266 17.664,-5.4755 43.475,77.7912 25.812,83.2666 l 0,0 c -22.326,6.7825 -45.125,12.3083 -68.677,10.9804 -41.23,-4.8846 -69.549,-21.8098 -73.478,-66.6824 2.909,-28.6792 14.295,-53.5724 31.004,-77.0471 15.897,-23.6341 32.792,-46.5535 50.388,-68.9531 11.881,-14.2884 79.238,41.7235 67.356,56.0119 z" id="path21409" inkscape:connector-curvature="0" style="fill:#800000;fill-opacity:1;fill-rule:nonzero;stroke:#f9f9f9;stroke-width:0.1;stroke-miterlimit:4;stroke-dasharray:none" transform="translate(-10240, -6144)"/><path d="m 11094.191,6664.9317 c -17.396,24.5726 -32.212,50.8438 -47.207,76.9144 -20.458,35.7393 -40.108,71.9449 -57.876,109.1003 -2.891,6.8017 -6.618,14.4565 -8.329,21.8382 -0.262,1.1315 -1.076,3.9846 -0.03,3.4843 1.303,-0.6221 1.452,-2.6754 1.352,-4.116 -1.03,-14.7682 -2.553,-13.0911 -11.649,-24.7557 -1.627,-1.1264 -3.741,-1.7614 -4.88,-3.3793 -1.861,-2.644 6.422,-0.7643 9.644,-1.0407 12.461,-1.0687 24.749,-2.9908 37.092,-4.9667 23.673,-4.2786 47.265,-8.9706 71.022,-12.7717 9.011,-1.379 4.743,-0.7385 12.802,-1.9291 18.432,-2.4916 30.178,84.3954 11.746,86.8871 l 0,0 c -7.304,0.8864 -3.441,0.4046 -11.589,1.455 -23.525,3.2638 -46.831,7.8021 -70.204,11.9955 -34.097,5.509 -69.04,12.6046 -101.908,-1.9198 -6.794,-6.2303 -15.169,-11.0878 -20.381,-18.6909 -19.542,-28.5075 -5.108,-62.5538 7.661,-89.8773 19.082,-38.6021 39.538,-76.4999 60.619,-114.045 16.148,-28.531 32.367,-57.0503 50.408,-84.4434 10.662,-15.211 82.367,35.0498 71.705,50.2608 z" id="path21411" inkscape:connector-curvature="0" style="fill:#800000;fill-opacity:1;fill-rule:nonzero;stroke:#f9f9f9;stroke-width:0.1;stroke-miterlimit:4;stroke-dasharray:none" transform="translate(-10240, -6144)"/><path d="m 11161.298,6785.0923 c 2.632,24.5124 11.265,47.8944 19.406,71.003 7.651,20.9221 15.465,41.7814 22.926,62.772 6.086,17.3515 -75.71,46.0395 -81.796,28.688 l 0,0 c -7.25,-20.977 -14.953,-41.7879 -22.629,-62.6122 -10.813,-30.4178 -21.572,-61.1945 -25.347,-93.4332 -1.362,-18.5489 86.079,-24.9665 87.44,-6.4176 z" id="path21413" inkscape:connector-curvature="0" style="fill:#800000;fill-opacity:1;fill-rule:nonzero;stroke:#f9f9f9;stroke-width:0.1;stroke-miterlimit:4;stroke-dasharray:none" transform="translate(-10240, -6144)"/></svg>