<?xml version="1.0" encoding="UTF-8" standalone="no"?>
<svg
   xmlns:dc="http://purl.org/dc/elements/1.1/"
   xmlns:cc="http://creativecommons.org/ns#"
   xmlns:rdf="http://www.w3.org/1999/02/22-rdf-syntax-ns#"
   xmlns:svg="http://www.w3.org/2000/svg"
   xmlns="http://www.w3.org/2000/svg"
   xmlns:sodipodi="http://sodipodi.sourceforge.net/DTD/sodipodi-0.dtd"
   xmlns:inkscape="http://www.inkscape.org/namespaces/inkscape"
   width="1024"
   height="1024"
   id="U78B0"
   version="1.1"
   inkscape:version="0.48.0 r9654"
   sodipodi:docname="U+78B0.svg">
  <metadata
     id="metadata20">
    <rdf:RDF>
      <cc:Work
         rdf:about="">
        <dc:format>image/svg+xml</dc:format>
        <dc:type
           rdf:resource="http://purl.org/dc/dcmitype/StillImage" />
      </cc:Work>
    </rdf:RDF>
  </metadata>
  <defs
     id="defs18" />
  <sodipodi:namedview
     pagecolor="#ffffff"
     bordercolor="#666666"
     borderopacity="1"
     objecttolerance="10"
     gridtolerance="10"
     guidetolerance="10"
     inkscape:pageopacity="0"
     inkscape:pageshadow="2"
     inkscape:window-width="640"
     inkscape:window-height="480"
     id="namedview16"
     showgrid="false"
     inkscape:zoom="0.27441406"
     inkscape:cx="512"
     inkscape:cy="512"
     inkscape:window-x="0"
     inkscape:window-y="25"
     inkscape:window-maximized="0"
     inkscape:current-layer="U78B0" />
  <path
     style="fill:#c83737;fill-opacity:1;fill-rule:nonzero;stroke:#f9f9f9;stroke-width:0.1;stroke-miterlimit:4;stroke-dasharray:none"
     d="M 560.03125 211.4375 C 541.85862 212.67565 505.85541 281.66688 521.34375 290.03125 C 548.12575 304.11925 574.0169 319.78475 599.25 336.46875 C 613.5533 346.19375 627.35215 356.672 641.21875 367 C 642.13333 367.67651 643.17389 368.02854 644.34375 368.125 C 638.31143 372.76326 632.26761 377.33607 626.15625 381.875 C 623.41977 383.92808 622.9753 388.02326 624.1875 393.21875 C 617.0396 394.58916 609.90295 396.03968 602.78125 397.5625 C 559.23715 407.3645 515.1747 417.1425 474.25 435.4375 C 457.6907 444.2805 499.3782 522.342 515.9375 513.5 C 528.90773 507.5263 542.30943 502.64108 555.9375 498.4375 C 553.8955 534.92427 554.25739 571.53625 554.09375 608.0625 C 554.09116 613.06948 554.08472 618.08701 554.0625 623.09375 C 534.91993 610.20251 515.09173 598.3834 493.8125 589.25 C 488.59123 587.03323 481.78508 592.93528 475.3125 602.4375 C 475.04959 601.34508 474.80083 600.24733 474.53125 599.15625 C 464.59855 563.30725 452.0905 528.146 419.8125 506.375 C 382.0484 487.885 354.6423 488.2895 314.875 501.1875 C 283.1747 513.7485 252.8261 529.7335 229.4375 555.1875 C 228.71918 556.03478 228.28226 557.03216 228.09375 558.15625 C 224.2587 558.29256 220.37262 558.5982 216.5 559.03125 C 236.41906 507.20305 258.03291 456.01097 284.0625 406.90625 C 299.24928 379.16362 314.33464 350.60686 335.5625 326.90625 C 352.71654 324.01355 369.90265 321.38545 387.125 318.9375 C 398.1123 319.8965 429.2351 310.30275 439.3125 314.96875 C 458.0592 316.10575 463.4343 227.762 444.6875 226.625 C 421.11 226.156 397.7367 229.718 374.4375 233 C 324.5521 240.646 274.79755 249.41325 225.53125 260.40625 C 187.62545 269.39425 150.0172 279.536 113.25 292.5 C 95.7162 299.165 127.12245 381.82125 144.65625 375.15625 C 167.70908 365.98079 191.42706 358.73071 215.375 352.34375 C 212.93677 356.88485 210.53767 361.42844 208.125 365.96875 C 173.944 432.35475 146.6423 501.94425 120.8125 571.90625 C 99.1516 632.14925 80.74355 693.5285 65.96875 755.8125 C 61.18705 773.1485 60.20255 790.3855 60.65625 808.1875 C 62.19445 826.8375 150.13185 819.5875 148.59375 800.9375 C 141.59435 795.6765 157.0952 778.836 150.625 775 C 159.86654 732.08009 171.4333 689.70268 184.84375 647.90625 C 185.72445 655.03769 186.58275 662.178 187.4375 669.3125 C 192.3182 710.3685 194.7597 751.651 199.1875 792.75 C 200.3041 806.53 203.3683 819.72 207.375 832.875 C 210.3106 841.01605 229.60606 839.02849 248.90625 832.78125 C 258.05109 849.29492 269.41563 862.27902 276.75 858.75 C 302.1167 846.334 329.3122 838.31625 356.4375 830.78125 C 385.3722 823.12825 414.83335 817.66225 444.53125 814.03125 C 451.47715 813.07925 458.47265 812.7195 465.46875 812.4375 C 474.62119 811.89316 478.04298 790.54263 476.96875 768.96875 C 481.80276 767.61932 484.98239 765.41514 485.53125 762.15625 C 488.74165 742.07525 491.0107 721.85975 490 701.46875 C 489.68244 696.10851 489.27945 690.75141 488.8125 685.40625 C 497.0293 690.368 504.99934 695.79582 512.84375 701.34375 C 521.3442 707.30678 540.75652 687.61177 553.65625 667.15625 C 553.08518 709.82856 552.06859 752.48665 551.3125 795.15625 C 551.14405 801.0883 551.003 807.0251 550.9375 812.9375 C 548.23871 813.355 545.54113 813.75914 542.84375 814.1875 C 499.86295 820.8265 456.95575 827.98825 413.90625 834.15625 C 395.29615 836.53825 406.54615 924.28825 425.15625 921.90625 C 468.79775 913.80025 512.5044 906.24175 556.3125 899.09375 C 621.0684 888.35375 686.32165 881.251 751.84375 877.625 C 803.79595 874.848 855.4566 880.2415 906.5625 889.0625 C 931.9786 893.8485 957.3767 898.7915 982.5625 904.6875 C 1000.8707 908.6615 1019.6207 822.38125 1001.3125 818.40625 C 974.5309 812.99525 947.64765 808.02625 920.71875 803.40625 C 877.19982 796.5008 833.36247 791.71243 789.34375 791.21875 C 789.65955 785.09542 790.0181 778.99186 790.4375 772.875 C 791.12896 761.28247 791.83352 749.68386 792.5625 738.09375 C 803.89803 743.31632 813.67248 745.14017 817.0625 740.21875 C 834.1775 715.02475 850.5539 689.34675 866.8125 663.59375 C 882.9666 638.77175 899.0567 613.7085 918.375 591.1875 C 930.8271 577.1615 864.7021 518.44275 852.25 532.46875 C 833.71591 555.2657 817.38099 579.7114 801.40625 604.34375 C 801.77167 598.90628 802.13656 593.46886 802.5 588.03125 C 805.4057 543.9425 808.14878 499.83881 811.03125 455.75 C 833.82451 453.48676 856.80243 450.06963 879.5 452.46875 L 878.15625 452.0625 C 896.16426 452.90212 936.37967 384.68154 921.1875 375.46875 C 899.9671 365.79975 910.3363 368.93975 890.5 365.09375 C 853.8858 362.79475 817.42965 367.9505 781.03125 371.4375 C 779.62382 371.59035 778.21996 371.75267 776.8125 371.90625 C 784.36317 365.60678 791.89425 359.30897 799.4375 353 C 825.8666 331.657 852.37685 309.925 882.40625 293.75 C 898.90805 284.818 856.8144 207.0055 840.3125 215.9375 C 806.1087 235.8565 775.29875 260.81175 744.78125 285.84375 C 722.10986 305.0971 699.35566 324.26006 676.21875 342.9375 C 690.27942 324.8084 701.0023 302.585 693.15625 296.78125 C 677.99355 285.64125 662.91055 274.35725 647.34375 263.78125 C 619.93205 245.64325 591.83165 228.65925 563.40625 212.15625 C 562.37369 211.59869 561.24276 211.35496 560.03125 211.4375 z M 879.5 452.46875 L 883.46875 453.625 C 883.33235 453.373 883.1989 453.127 883.0625 452.875 C 881.8819 452.71733 880.68229 452.59372 879.5 452.46875 z M 722.4375 464.84375 C 721.21958 504.16697 718.92021 543.44417 716.65625 582.71875 C 713.02945 644.26175 708.644 705.754 704.3125 767.25 C 703.44299 776.54811 702.84686 785.88653 702.28125 795.21875 C 680.71213 796.94119 659.18948 799.01151 637.6875 801.40625 C 637.66913 799.67482 637.65899 797.94764 637.625 796.21875 C 638.0496 733.75975 639.47625 671.30175 640.03125 608.84375 C 640.61385 566.78975 640.19385 524.4775 645.46875 482.6875 C 645.76002 480.77349 645.09637 478.92924 643.65625 477.15625 C 669.76214 472.10927 696.05883 468.1764 722.4375 464.84375 z M 367.90625 579 C 372.7463 578.94169 376.60313 580.00687 377.0625 583.40625 C 381.9027 595.84025 386.533 609.2 390.125 622.375 C 396.7551 649.893 401.2437 677.9115 402.5625 706.1875 C 402.86525 714.85276 402.30742 723.44601 401.25 732 C 378.3664 736.00918 355.62454 740.83014 333.15625 746.78125 C 316.52448 751.37782 299.92991 756.19318 283.5625 761.65625 C 280.0011 727.58347 277.69135 693.39454 273.84375 659.34375 C 271.82229 641.17218 269.60356 623.00294 267.71875 604.8125 C 280.46368 613.23187 292.4354 617.67944 296.90625 612.40625 C 310.30255 597.99625 328.297 589.63125 346.4375 582.90625 C 349.005 582.28562 359.83949 579.09719 367.90625 579 z "
     id="path10242" />
</svg>
