<?xml version="1.0" encoding="UTF-8" standalone="no"?>
<svg
   xmlns:dc="http://purl.org/dc/elements/1.1/"
   xmlns:cc="http://creativecommons.org/ns#"
   xmlns:rdf="http://www.w3.org/1999/02/22-rdf-syntax-ns#"
   xmlns:svg="http://www.w3.org/2000/svg"
   xmlns="http://www.w3.org/2000/svg"
   xmlns:sodipodi="http://sodipodi.sourceforge.net/DTD/sodipodi-0.dtd"
   xmlns:inkscape="http://www.inkscape.org/namespaces/inkscape"
   width="1024"
   height="1024"
   id="U793E"
   version="1.1"
   inkscape:version="0.48.0 r9654"
   sodipodi:docname="U+793E.svg">
  <metadata
     id="metadata14">
    <rdf:RDF>
      <cc:Work
         rdf:about="">
        <dc:format>image/svg+xml</dc:format>
        <dc:type
           rdf:resource="http://purl.org/dc/dcmitype/StillImage" />
      </cc:Work>
    </rdf:RDF>
  </metadata>
  <defs
     id="defs12" />
  <sodipodi:namedview
     pagecolor="#ffffff"
     bordercolor="#666666"
     borderopacity="1"
     objecttolerance="10"
     gridtolerance="10"
     guidetolerance="10"
     inkscape:pageopacity="0"
     inkscape:pageshadow="2"
     inkscape:window-width="640"
     inkscape:window-height="480"
     id="namedview10"
     showgrid="false"
     inkscape:zoom="0.27441406"
     inkscape:cx="512"
     inkscape:cy="512"
     inkscape:window-x="0"
     inkscape:window-y="25"
     inkscape:window-maximized="0"
     inkscape:current-layer="U793E" />
  <path
     style="fill:#a02c2c;fill-opacity:1;fill-rule:nonzero;stroke:#f9f9f9;stroke-width:0.1;stroke-miterlimit:4;stroke-dasharray:none"
     d="M 176.40625 207.4375 C 155.45768 207.10467 101.20389 247.77875 110.65625 261.21875 C 128.18635 285.36575 147.6005 307.95525 168.4375 329.28125 C 180.3361 341.06525 193.00045 352.00825 205.59375 363.03125 C 219.60565 375.22425 277.0745 309.16175 263.0625 296.96875 C 252.1605 287.54175 241.18355 278.21275 230.90625 268.09375 C 213.34525 250.21775 197.001 231.15625 183.0625 210.28125 C 181.71218 208.36125 179.3989 207.48505 176.40625 207.4375 z M 590.53125 269.59375 C 580.22173 269.62585 572.56981 271.79541 571.40625 276.9375 C 563.02245 325.1175 558.669 373.8735 554.5 422.5625 C 552.95162 442.65738 551.65453 462.78639 550.53125 482.90625 C 548.52038 483.10589 546.51098 483.30154 544.5 483.5 C 505.6724 486.828 466.7833 489.605 427.8125 490.5 C 409.0545 491.33 412.96075 579.7675 431.71875 578.9375 C 470.07191 576.32188 508.40521 573.49835 546.6875 570 C 545.75756 597.37612 545.02917 624.74364 544.40625 652.125 C 543.07453 702.71715 543.67208 753.3365 543.28125 803.9375 C 510.82037 808.42398 478.55809 814.37438 446.59375 822.125 C 397.53825 833.936 348.5702 846.59875 301.4375 864.84375 C 284.1927 872.16375 318.6927 953.444 335.9375 946.125 C 378.0465 927.954 422.58755 916.435 466.96875 905.375 C 533.77105 888.658 602.10495 881.02775 670.78125 878.71875 C 719.10885 877.77975 767.3017 882.144 814.9375 890 C 832.7751 893.601 824.4279 891.695 840 895.625 C 858.1195 899.884 878.21315 814.4465 860.09375 810.1875 C 839.77395 805.6745 850.34845 807.828 828.34375 803.875 C 775.14305 796.04 721.41335 791.73675 667.59375 793.21875 C 655.13107 793.72399 642.68692 794.39826 630.25 795.21875 C 629.69033 748.10705 628.69362 700.9909 629.65625 653.875 C 630.22141 622.96805 630.96714 592.05236 632.09375 561.15625 C 658.04543 558.45932 684.01572 555.747 709.96875 553.0625 C 733.21565 550.6595 722.24075 551.777 742.84375 549.75 C 761.30975 547.674 751.5285 460.6115 733.0625 462.6875 C 712.5551 465.2805 723.4399 463.934 700.4375 466.75 C 679.1406 469.25174 657.81775 471.64714 636.5 473.96875 C 637.47122 459.40595 638.58288 444.85682 639.84375 430.3125 C 644.14335 385.5245 648.32165 340.5245 657.59375 296.4375 C 660.56736 283.29588 616.87781 269.51171 590.53125 269.59375 z M 107.75 374.46875 C 89.664893 374.5308 77.54378 459.32939 95.8125 462 C 129.4614 465.367 163.2415 467.33175 197 469.21875 C 208.13144 469.90551 219.28537 470.31487 230.4375 470.8125 C 213.95058 492.03119 197.06196 512.93958 180.34375 533.96875 C 150.20945 571.95175 119.90975 609.786 89.59375 647.625 C 76.64325 662.906 65.15485 679.449 51.78125 694.375 L 52.25 693.53125 C 39.0587 706.99225 102.52745 769.18075 115.71875 755.71875 C 117.05605 754.23675 118.38155 752.76425 119.71875 751.28125 C 132.78225 734.97825 145.0058 718.032 157.9375 701.625 C 169.02774 687.36906 180.19962 673.158 191.375 658.96875 C 192.52672 677.57111 193.84537 696.15945 195.15625 714.75 C 198.95775 757.617 200.1903 800.611 199.9375 843.625 C 199.7466 876.308 198.719 908.97225 198.75 941.65625 L 199.53125 951.8125 C 201.67895 970.4625 289.5853 960.3375 287.4375 941.6875 C 287.2422 941.1745 287.03895 940.638 286.84375 940.125 C 285.64325 908.12 286.797 876.0785 286.75 844.0625 C 286.9325 798.9385 285.70695 753.82675 281.90625 708.84375 C 281.19223 697.96289 280.4573 687.07821 279.78125 676.1875 C 296.14784 690.71429 314.21116 703.34201 332.46875 715.46875 C 346.39525 724.44575 360.6236 732.949 374.8125 741.5 C 390.771 751.013 435.61465 675.763 419.65625 666.25 C 406.58405 658.545 393.49145 650.8855 380.71875 642.6875 C 360.09665 629.0485 339.08425 615.04 323.78125 595.25 C 317.83432 587.4004 295.56746 598.37749 277.40625 612.75 C 277.40644 612.33349 277.40524 611.91653 277.40625 611.5 C 277.40625 603.09374 259.66209 598.46802 240.0625 597.59375 C 242.64446 594.36442 245.22727 591.13296 247.8125 587.90625 C 275.2538 553.75525 303.36645 520.08025 329.65625 485.03125 C 336.30265 474.23225 346.425 460.653 346.125 447.125 C 345.2794 408.989 325.0247 393.30125 291.375 387.53125 C 261.6275 384.11825 231.7003 383.574 201.8125 382.125 C 170.6944 380.425 139.48285 378.81825 108.59375 374.53125 C 108.30377 374.48886 108.03707 374.46777 107.75 374.46875 z M 278.90625 474.6875 C 279.39479 474.75455 279.88668 474.80552 280.375 474.875 C 281.5515 475.27 283.39155 474.9335 283.90625 476.0625 C 284.34035 477.0155 281.68065 476.285 280.78125 475.75 C 280.17259 475.38779 279.53704 475.0352 278.90625 474.6875 z "
     id="path11845" />
</svg>
