<?xml version="1.0" encoding="utf-8" ?>

<!DOCTYPE svg PUBLIC "-//W3C//DTD SVG 1.1//EN" 
  "http://www.w3.org/Graphics/SVG/1.1/DTD/svg11.dtd">
<svg 
    xmlns="http://www.w3.org/2000/svg"
    xmlns:xlink="http://www.w3.org/1999/xlink"
    xmlns:sodipodi="http://sodipodi.sourceforge.net/DTD/sodipodi-0.dtd"
    xmlns:inkscape="http://www.inkscape.org/namespaces/inkscape"
    width="1024" height="1024" id="U79DF">
<path d="m 8540.5714,66778.321 c -18.134,26.87 -35.1783,54.46 -52.7268,81.714 -24.7211,37.889 -49.4266,75.789 -74.2821,113.591 -3.2092,4.865 -6.4184,9.73 -9.6276,14.595 -10.291,15.397 -82.8741,-33.115 -72.5831,-48.512 l 0,0 c 3.2296,-4.769 6.4591,-9.538 9.6887,-14.306 24.9412,-37.087 49.5305,-74.41 73.594,-112.074 17.3977,-27.534 34.4058,-55.308 51.5493,-83 10.1806,-15.78 84.5682,32.212 74.3876,47.992 z" id="path15799" inkscape:connector-curvature="0" style="fill:#2b1100;fill-opacity:1;fill-rule:nonzero;stroke:none" transform="translate(-8192, -66560)"/><path d="m 8246.3946,67095.676 c 42.4807,-10.458 85.7145,-17.312 128.9754,-23.573 58.3217,-8.142 117.0395,-12.843 175.8345,-15.701 37.5699,-1.444 75.2827,-1.354 112.6199,3.391 15.6897,1.531 26.1903,8.638 38.8073,17.472 13.6564,12.967 -47.47,77.344 -61.1265,64.377 l 0,0 c 3.4842,2.051 6.8222,4.374 10.4525,6.154 0.807,0.396 3.2145,1.009 2.6812,0.286 -0.6914,-0.938 -2.2044,-0.756 -3.3067,-1.135 -31.7474,-5.325 -64.145,-4.905 -96.2251,-4.292 -55.899,2.329 -111.7232,6.721 -167.1149,14.775 -39.4965,5.977 -79.1236,12.228 -117.572,23.31 -18.0447,5.096 -42.0702,-79.967 -24.0256,-85.064 z" id="path15801" inkscape:connector-curvature="0" style="fill:#2b1100;fill-opacity:1;fill-rule:nonzero;stroke:none" transform="translate(-8192, -66560)"/><path d="m 8524.9468,66863.016 c -4.3163,48.79 -9.2045,97.527 -13.6715,146.304 -6.3139,68.785 -11.0931,137.692 -14.8819,206.659 -1.9842,37.731 -3.3479,75.491 -4.385,113.26 -0.2423,10.109 -0.1034,5.4 -0.3969,14.127 -1.0812,18.754 -89.4865,13.657 -88.4054,-5.097 l 0,0 c 0.649,-7.318 0.3188,-3.109 0.9005,-12.635 2.0819,-38.255 4.1668,-76.509 6.5523,-114.746 4.4446,-69.716 9.4814,-139.391 15.3032,-209.006 3.9648,-47.876 8.5427,-95.737 10.7756,-143.733 1.0324,-18.712 89.2415,-13.845 88.2091,4.867 z" id="path15803" inkscape:connector-curvature="0" style="fill:#2b1100;fill-opacity:1;fill-rule:nonzero;stroke:none" transform="translate(-8192, -66560)"/><path d="m 8476.7077,67197.533 c -21.4351,15.536 -39.9179,34.603 -57.9297,53.878 -19.6656,21.662 -38.1071,44.499 -53.6838,69.292 -10.1784,15.621 -83.8199,-32.36 -73.6415,-47.982 l 0,0 c 19.0829,-28.508 40.3603,-55.476 63.4804,-80.831 21.7108,-23.336 44.1504,-46.079 69.395,-65.652 15.1238,-11.111 67.5035,60.184 52.3796,71.295 z" id="path15805" inkscape:connector-curvature="0" style="fill:#2b1100;fill-opacity:1;fill-rule:nonzero;stroke:none" transform="translate(-8192, -66560)"/><path d="m 8552.5944,67168.887 c 25.9308,12.864 51.5805,26.263 76.7234,40.607 27.525,15.756 52.9564,34.741 78.1628,53.894 3.0083,2.347 6.0166,4.693 9.0249,7.04 14.6293,11.591 -40.0097,80.554 -54.639,68.963 l 0,0 c -2.6432,-2.131 -5.2864,-4.262 -7.9296,-6.393 -21.8001,-16.986 -43.8548,-33.773 -67.8954,-47.522 -23.1418,-13.156 -46.7283,-25.568 -71.0068,-36.509 -16.9875,-7.968 20.5722,-88.048 37.5597,-80.08 z" id="path15807" inkscape:connector-curvature="0" style="fill:#2b1100;fill-opacity:1;fill-rule:nonzero;stroke:none" transform="translate(-8192, -66560)"/><path d="m 8791.485,66845.963 c -7.3451,43.401 -8.3571,87.636 -10.0377,131.537 -2.7334,63.23 -2.0702,126.509 4.0163,189.509 3.7789,28.823 7.8243,57.904 16.2461,85.81 0.2957,0.535 0.5914,1.069 0.8872,1.603 6.3623,17.675 -76.9584,47.667 -83.3206,29.992 l 0,0 c -0.9094,-2.813 -1.8187,-5.627 -2.728,-8.441 -8.3891,-33.231 -13.4802,-67.224 -17.0187,-101.289 -5.5064,-66.563 -6.1451,-133.326 -3.7519,-200.072 1.4225,-48.626 2.3103,-97.468 8.9458,-145.728 3.623,-18.405 90.3845,-1.326 86.7615,17.079 z" id="path15809" inkscape:connector-curvature="0" style="fill:#2b1100;fill-opacity:1;fill-rule:nonzero;stroke:none" transform="translate(-8192, -66560)"/><path d="m 8722.5076,66834.824 c 24.4585,-24.074 55.6256,-37.287 87.8251,-47.402 36.0265,-10.444 72.573,-12.865 109.3822,-6.264 44.9471,11.915 64.6913,39.74 78.8262,81.964 10.8422,43.397 15.3729,88.073 19.6529,132.505 5.5898,58.824 5.3636,117.917 3.3585,176.9 -2.2624,50.508 -6.0288,100.93 -9.2622,151.381 -0.5068,17.216 -2.2471,34.013 -6.6483,50.637 -5.9664,17.82 -89.9726,-10.306 -84.0062,-28.126 l 0,0 c -0.043,11.275 5.1138,-31.748 3.7166,-28.877 4.0595,-49.271 7.9896,-98.565 10.2533,-147.957 1.9015,-55.161 2.0204,-110.426 -3.5333,-165.414 -3.9211,-38.336 -8.0496,-76.834 -16.9455,-114.394 -2.6968,-9.444 -2.8087,-18.915 -12.926,-22.605 -21.825,-5.874 -44.4839,-1.285 -66.0381,3.837 -17.594,5.3 -35.3864,11.398 -49.0062,24.32 -12.835,13.714 -77.4841,-46.791 -64.649,-60.505 z" id="path15811" inkscape:connector-curvature="0" style="fill:#2b1100;fill-opacity:1;fill-rule:nonzero;stroke:none" transform="translate(-8192, -66560)"/><path d="m 8775.889,66996.444 c 33.9339,-5.005 67.9053,-9.729 101.98,-13.667 17.1721,-2.251 34.3968,-2.582 51.6736,-2.393 18.6045,0.451 16.4799,88.153 -2.1245,87.702 l 0,0 c -13.2673,-0.605 -26.4823,-0.266 -39.696,1.327 -32.3247,3.612 -64.5922,7.974 -96.545,14.106 -18.4715,3.243 -33.7596,-83.832 -15.2881,-87.075 z" id="path15813" inkscape:connector-curvature="0" style="fill:#2b1100;fill-opacity:1;fill-rule:nonzero;stroke:none" transform="translate(-8192, -66560)"/><path d="m 8760.7383,67151.915 c 29.1813,-12.538 59.3925,-22.315 89.8033,-31.355 28.4696,-8.133 57.3208,-15 86.8443,-17.666 4.1268,0.04 8.2536,0.07 12.3804,0.112 18.7265,0.745 15.2118,89.023 -3.5147,88.277 l 0,0 c -0.7523,-0.157 -1.5045,-0.314 -2.2568,-0.47 -23.3652,1.091 -46.0786,7.589 -68.5977,13.436 -26.5084,7.865 -52.982,16.232 -77.9673,28.228 -17.0897,7.783 -53.7812,-72.779 -36.6915,-80.562 z" id="path15815" inkscape:connector-curvature="0" style="fill:#2b1100;fill-opacity:1;fill-rule:nonzero;stroke:none" transform="translate(-8192, -66560)"/><path d="m 8589.9153,67345.982 c 45.2679,-11.826 91.5613,-19.142 137.7487,-26.292 69.8212,-10.779 140.2568,-16.418 210.796,-19.435 52.8183,-1.966 105.6341,0.468 158.261,4.878 14.6118,1.019 29.1162,2.935 43.5913,5.104 18.4142,2.956 4.4765,89.762 -13.9377,86.805 l 0,0 c -12.4764,-2.18 -25.0022,-3.998 -37.6288,-5.098 -48.7729,-4.908 -97.7749,-7.707 -146.8145,-6.132 -67.2094,2.57 -134.3263,7.908 -200.7692,18.679 -41.8952,6.861 -84.0556,13.645 -124.7808,25.896 -17.905,5.614 -44.3709,-78.791 -26.466,-84.405 z" id="path15817" inkscape:connector-curvature="0" style="fill:#2b1100;fill-opacity:1;fill-rule:nonzero;stroke:none" transform="translate(-8192, -66560)"/></svg>