<?xml version="1.0" encoding="UTF-8" standalone="no"?>
<svg
   xmlns:dc="http://purl.org/dc/elements/1.1/"
   xmlns:cc="http://creativecommons.org/ns#"
   xmlns:rdf="http://www.w3.org/1999/02/22-rdf-syntax-ns#"
   xmlns:svg="http://www.w3.org/2000/svg"
   xmlns="http://www.w3.org/2000/svg"
   xmlns:sodipodi="http://sodipodi.sourceforge.net/DTD/sodipodi-0.dtd"
   xmlns:inkscape="http://www.inkscape.org/namespaces/inkscape"
   width="1024"
   height="1024"
   id="U7956"
   version="1.1"
   inkscape:version="0.48.0 r9654"
   sodipodi:docname="U+7956.svg">
  <metadata
     id="metadata16">
    <rdf:RDF>
      <cc:Work
         rdf:about="">
        <dc:format>image/svg+xml</dc:format>
        <dc:type
           rdf:resource="http://purl.org/dc/dcmitype/StillImage" />
      </cc:Work>
    </rdf:RDF>
  </metadata>
  <defs
     id="defs14" />
  <sodipodi:namedview
     pagecolor="#ffffff"
     bordercolor="#666666"
     borderopacity="1"
     objecttolerance="10"
     gridtolerance="10"
     guidetolerance="10"
     inkscape:pageopacity="0"
     inkscape:pageshadow="2"
     inkscape:window-width="640"
     inkscape:window-height="480"
     id="namedview12"
     showgrid="false"
     inkscape:zoom="0.27441406"
     inkscape:cx="512"
     inkscape:cy="512"
     inkscape:window-x="0"
     inkscape:window-y="25"
     inkscape:window-maximized="0"
     inkscape:current-layer="U7956" />
  <path
     style="fill:#2b1100;fill-opacity:1;fill-rule:nonzero;stroke:none"
     d="M 292.03125 148.3125 C 268.15523 148.15588 215.57194 173.73356 221.5625 187.75 C 234.2105 214.92 248.64975 241.18775 263.46875 267.21875 C 271.66575 281.60275 280.1395 295.8095 288.5625 310.0625 C 298.2305 326.0595 373.63575 280.497 363.96875 264.5 C 355.63775 251.024 347.33775 237.53425 339.46875 223.78125 C 326.24675 200.74525 313.25625 177.501 302.90625 153 C 301.524 149.76544 297.5411 148.34864 292.03125 148.3125 z M 299.5625 338.125 C 263.3725 338.879 227.2445 341.376 191.1875 344.5 C 158.1145 347.78 125.05425 351.4605 92.28125 357.0625 C 73.88525 360.8445 91.729 447.56325 110.125 443.78125 C 139.745 437.53825 169.88875 434.20875 199.96875 431.09375 C 213.88306 429.86691 227.80692 428.77184 241.75 427.90625 C 217.61469 456.51686 196.48462 487.52141 176.1875 518.96875 C 152.6725 556.75175 130.45475 595.3415 108.09375 633.8125 C 96.39675 654.0555 84.49775 674.16225 73.46875 694.78125 C 72.48975 696.76925 71.51025 698.762 70.53125 700.75 C 62.54325 717.762 142.73075 755.41825 150.71875 738.40625 C 151.13475 737.42025 151.55175 736.4235 151.96875 735.4375 C 161.82175 715.6425 172.966 696.51375 183.75 677.21875 C 204.961 639.82375 226.16925 602.4335 248.90625 565.9375 C 271.16125 531.4945 294.5215 497.60275 323.0625 467.96875 C 335.3715 455.27075 363.3065 431.9905 369.8125 416.3125 C 373.0425 408.5315 374.16775 400.04525 376.34375 391.90625 C 373.17575 381.99425 372.16875 371.1285 366.84375 362.1875 C 353.32175 339.4805 322.3255 338.577 299.5625 338.125 z M 311.40625 426.75 C 316.69761 427.40865 315.24122 427.8395 311.40625 426.75 z "
     id="path15891" />
  <path
     d="m 11553.126,67101.131 c 2.571,38.423 3.101,76.937 3.615,115.43 0.349,51.077 0.394,102.143 4.316,153.093 3.91,22.196 3.824,47.111 14.078,67.76 6.857,17.442 -75.367,49.762 -82.223,32.32 l 0,0 c -10.92,-30.166 -15.582,-62.083 -18.385,-93.945 -3.435,-52.508 -3.573,-105.093 -4.292,-157.693 -0.802,-36.033 -1.358,-72.153 -5.087,-108.03 -1.895,-18.663 86.083,-27.598 87.978,-8.935 z"
     id="path15895"
     inkscape:connector-curvature="0"
     style="fill:#2b1100;fill-opacity:1;fill-rule:nonzero;stroke:none"
     transform="translate(-11264, -66560)" />
  <path
     d="m 11562.4,67116.16 c 29.784,8.311 59.03,18.383 88.143,28.765 23.156,8.077 45.358,18.344 66.56,30.616 16.062,9.552 -28.968,85.273 -45.031,75.721 l 0,0 c -16.029,-9.938 -33.181,-17.71 -50.938,-24.075 -26.43,-9.475 -53.015,-18.785 -80.382,-25.21 -18.204,-4.592 3.443,-90.41 21.648,-85.817 z"
     id="path15897"
     inkscape:connector-curvature="0"
     style="fill:#2b1100;fill-opacity:1;fill-rule:nonzero;stroke:none"
     transform="translate(-11264, -66560)" />
  <path
     d="m 11796.105,66874.443 c 4.617,47.279 6.17,94.773 7.825,142.225 1.426,63.484 5.622,126.815 13.342,189.836 3.883,28.706 8.541,57.313 14.256,85.712 1.797,8.471 0.92,4.441 2.619,12.092 3.833,18.377 -82.797,36.444 -86.629,18.067 l 0,0 c -1.712,-8.705 -0.822,-4.107 -2.66,-13.795 -5.44,-30.574 -9.664,-61.35 -13.362,-92.18 -7.092,-65.252 -11.182,-130.736 -13.196,-196.344 -1.989,-44.863 -3.675,-89.863 -9.924,-134.383 -2.382,-18.61 85.347,-29.84 87.729,-11.23 z"
     id="path15899"
     inkscape:connector-curvature="0"
     style="fill:#2b1100;fill-opacity:1;fill-rule:nonzero;stroke:none"
     transform="translate(-11264, -66560)" />
  <path
     d="m 11752.339,66821.501 c 27.506,-19.94 59.553,-31.263 91.87,-40.62 34.579,-9.666 70.018,-12.921 105.708,-10.14 30.296,3.035 56.276,14.866 78.8,34.945 25.303,27.322 28.468,62.161 28.425,97.647 -2.282,52.745 -11.286,104.885 -19.648,156.921 -9.836,57.806 -17.11,115.98 -22.87,174.318 -2.693,28.662 -4.781,57.382 -6.085,86.14 -0.07,1.625 -0.145,3.25 -0.217,4.875 -1.389,18.752 -89.787,12.205 -88.398,-6.547 l 0,0 c 0.149,-1.373 0.299,-2.747 0.449,-4.12 2.552,-29.79 4.991,-59.593 8.256,-89.316 6.554,-59.774 14.202,-119.421 23.985,-178.762 7.395,-47.626 15.341,-95.367 17.095,-143.615 0.01,-11.349 -0.145,-22.751 -2.13,-33.915 -3.617,-8.407 -18.191,-8.902 -25.478,-11.123 -24.891,-2.709 -49.643,0.185 -73.823,6.661 -21.361,6.04 -42.989,12.951 -61.13,26.185 -14.751,11.627 -69.56,-57.908 -54.809,-69.534 z"
     id="path15901"
     inkscape:connector-curvature="0"
     style="fill:#2b1100;fill-opacity:1;fill-rule:nonzero;stroke:none"
     transform="translate(-11264, -66560)" />
  <path
     d="m 11813.432,66972.052 c 29.296,-1.754 58.581,-2.63 87.918,-1.771 22.036,0.486 43.39,4.755 64.369,11.155 17.735,5.835 -9.77,89.438 -27.505,83.603 l 0,0 c -12.664,-4.916 -26.074,-6.699 -39.611,-7.381 -26.764,-0.913 -53.515,0.12 -80.167,2.802 -18.754,1.061 -23.758,-87.346 -5.004,-88.408 z"
     id="path15909"
     inkscape:connector-curvature="0"
     style="fill:#2b1100;fill-opacity:1;fill-rule:nonzero;stroke:none"
     transform="translate(-11264, -66560)" />
  <path
     d="m 11827.618,67086.377 c 33.025,4.06 66.076,7.928 99.147,11.602 20.807,2.306 10.746,1.153 30.184,3.444 18.452,2.341 7.415,89.327 -11.038,86.986 l 0,0 c -18.413,-2.515 -8.75,-1.259 -28.995,-3.728 -32.888,-3.817 -65.769,-7.815 -98.78,-10.442 -18.638,-2.011 -9.157,-89.873 9.482,-87.862 z"
     id="path15911"
     inkscape:connector-curvature="0"
     style="fill:#2b1100;fill-opacity:1;fill-rule:nonzero;stroke:none"
     transform="translate(-11264, -66560)" />
  <path
     d="m 11640.177,67303.205 c 40.549,-0.431 80.986,-4.598 121.418,-7.481 70.013,-4.41 140.075,-7.929 210.081,-12.463 53.631,-3.725 107.232,-8.735 161.016,-6.187 5.871,0.666 11.741,1.331 17.612,1.997 18.426,2.369 7.256,89.232 -11.17,86.863 l 0,0 c -3.868,-0.587 -7.735,-1.174 -11.603,-1.76 -50.184,-3.744 -100.368,1.588 -150.478,4.391 -69.63,4.271 -139.307,7.836 -208.881,12.959 -43.124,3.54 -86.182,8.285 -129.422,10.124 -18.761,-0.302 -17.335,-88.746 1.427,-88.443 z"
     id="path15923"
     inkscape:connector-curvature="0"
     style="fill:#2b1100;fill-opacity:1;fill-rule:nonzero;stroke:none"
     transform="translate(-11264, -66560)" />
</svg>
