<?xml version="1.0" encoding="UTF-8" standalone="no"?>
<svg
   xmlns:dc="http://purl.org/dc/elements/1.1/"
   xmlns:cc="http://creativecommons.org/ns#"
   xmlns:rdf="http://www.w3.org/1999/02/22-rdf-syntax-ns#"
   xmlns:svg="http://www.w3.org/2000/svg"
   xmlns="http://www.w3.org/2000/svg"
   xmlns:sodipodi="http://sodipodi.sourceforge.net/DTD/sodipodi-0.dtd"
   xmlns:inkscape="http://www.inkscape.org/namespaces/inkscape"
   width="1024"
   height="1024"
   id="U793C"
   version="1.1"
   inkscape:version="0.48.0 r9654"
   sodipodi:docname="U+793C.svg">
  <metadata
     id="metadata12">
    <rdf:RDF>
      <cc:Work
         rdf:about="">
        <dc:format>image/svg+xml</dc:format>
        <dc:type
           rdf:resource="http://purl.org/dc/dcmitype/StillImage" />
      </cc:Work>
    </rdf:RDF>
  </metadata>
  <defs
     id="defs10" />
  <sodipodi:namedview
     pagecolor="#ffffff"
     bordercolor="#666666"
     borderopacity="1"
     objecttolerance="10"
     gridtolerance="10"
     guidetolerance="10"
     inkscape:pageopacity="0"
     inkscape:pageshadow="2"
     inkscape:window-width="640"
     inkscape:window-height="480"
     id="namedview8"
     showgrid="false"
     inkscape:zoom="0.27441406"
     inkscape:cx="512"
     inkscape:cy="512"
     inkscape:window-x="0"
     inkscape:window-y="25"
     inkscape:window-maximized="0"
     inkscape:current-layer="U793C" />
  <path
     style="fill:#2b0000;fill-opacity:1;fill-rule:nonzero;stroke:#f9f9f9;stroke-width:0.1;stroke-miterlimit:4;stroke-dasharray:none"
     d="M 275.0625 199.375 C 254.14506 200.20764 202.29145 243.80487 212.46875 256.6875 C 229.26895 276.9475 244.97245 298.07675 260.96875 318.96875 C 267.79485 330.88175 281.32025 339.893 286.15625 353 C 295.28355 369.393 372.5647 326.36175 363.4375 309.96875 C 353.9648 294.04675 342.29565 279.81625 330.53125 265.53125 C 314.22055 244.37825 298.0799 223.07775 281.875 201.84375 C 280.42111 200.00338 278.05071 199.25605 275.0625 199.375 z M 535.65625 268.5 C 525.3282 268.66354 517.69403 270.89594 516.59375 276.0625 C 511.03125 304.8105 508.1727 333.961 505.9375 363.125 C 502.6626 408.251 504.50525 453.51325 506.28125 498.65625 C 507.81475 542.52925 511.1714 586.2065 517.1875 629.6875 C 522.5405 664.1245 529.7613 698.25775 538.5625 731.96875 C 545.0034 754.19175 551.93185 776.30275 559.71875 798.09375 C 566.83545 818.04175 577.56255 836.2775 590.34375 853.0625 C 607.69635 875.6415 633.17555 882.9745 660.15625 886.4375 C 685.43345 888.7165 710.81395 887.15775 736.03125 884.96875 C 765.54085 882.13975 794.70385 876.79375 823.71875 870.84375 C 844.55235 867.00675 864.67325 861.3045 883.78125 852.1875 C 900.43675 843.5925 859.93675 765.0925 843.28125 773.6875 C 833.27765 781.7025 817.44505 780.60075 805.96875 784.96875 C 780.37745 790.30875 754.65245 795.0395 728.59375 797.4375 C 709.35775 799.0355 689.9805 800.3285 670.6875 798.9375 C 667.4655 798.6045 664.26835 797.6945 661.03125 797.8125 C 660.05965 797.8475 665.21155 804.14175 659.96875 798.59375 C 652.46025 789.60475 646.80945 779.179 642.65625 768.25 C 635.62635 748.847 629.30905 729.1715 623.28125 709.4375 C 615.08015 679.1695 608.48495 648.49225 603.46875 617.53125 C 597.63715 576.98125 594.4241 536.22625 592.9375 495.28125 C 591.3192 453.60025 589.67785 411.773 592.96875 370.125 C 595.11685 344.782 597.5145 319.343 603.1875 294.5 C 605.99932 281.29513 562.05016 268.08206 535.65625 268.5 z M 336.4375 379 C 292.0201 379.913 247.6962 382.943 203.5625 388.125 C 165.7039 392.463 127.81565 397.16725 90.59375 405.53125 C 72.36075 409.89225 92.92315 495.82875 111.15625 491.46875 C 144.68185 482.57075 179.22015 478.437 213.59375 474.375 C 252.97698 469.67594 292.51509 466.89132 332.15625 466.21875 C 307.46078 491.91734 284.45865 519.06344 262.65625 547.25 C 236.86065 580.623 212.71355 615.129 190.34375 650.875 C 174.60115 676.354 161.25935 703.15825 146.90625 729.40625 C 144.80509 732.09419 125.22147 772.28066 136.875 750.6875 C 131.06606 767.64053 199.10336 816.07284 209.8125 801.25 C 215.5336 791.266 218.9821 780.96925 224.5625 770.90625 C 237.5516 746.09225 249.8515 720.89325 264.375 696.90625 C 265.01384 695.87272 265.63898 694.84362 266.28125 693.8125 C 266.49417 695.60524 266.72333 697.39639 266.9375 699.1875 C 271.6617 748.5225 275.6466 797.86 282.1875 847 C 287.6013 882.795 292.7171 918.63575 298.6875 954.34375 C 301.52 970.58975 303.6698 987.0245 308.5625 1002.8125 C 314.7501 1020.6115 398.65645 991.424 392.46875 973.625 C 388.42715 965.153 388.05575 949.59825 385.09375 939.28125 C 378.79615 904.75225 373.60035 870.046 368.15625 835.375 C 362.13007 791.72213 358.33783 747.86168 354.3125 704 C 371.2736 710.36127 387.95313 717.4264 404.53125 724.71875 C 421.23345 732.21375 437.3425 740.95475 452.8125 750.71875 C 468.6943 760.45075 514.5693 685.57675 498.6875 675.84375 C 479.6129 664.40575 460.0427 653.79825 439.6875 644.78125 C 409.8216 631.65325 379.588 619.3675 348.75 608.6875 C 346.76098 608.03514 344.65489 608.52266 342.5 609.875 C 341.42314 603.57074 340.27622 597.26744 339 591 C 357.90786 567.25643 377.92717 544.50302 399.34375 522.9375 C 416.34045 505.1825 434.44405 487.944 447.21875 466.75 C 465.12545 429.423 457.09515 397.3145 415.40625 382.9375 C 389.39115 377.9465 362.8186 379.224 336.4375 379 z "
     id="path9626" />
</svg>
