<?xml version="1.0" encoding="UTF-8" standalone="no"?>
<svg
   xmlns:dc="http://purl.org/dc/elements/1.1/"
   xmlns:cc="http://creativecommons.org/ns#"
   xmlns:rdf="http://www.w3.org/1999/02/22-rdf-syntax-ns#"
   xmlns:svg="http://www.w3.org/2000/svg"
   xmlns="http://www.w3.org/2000/svg"
   xmlns:sodipodi="http://sodipodi.sourceforge.net/DTD/sodipodi-0.dtd"
   xmlns:inkscape="http://www.inkscape.org/namespaces/inkscape"
   width="1024"
   height="1024"
   id="U79CD"
   version="1.1"
   inkscape:version="0.48.0 r9654"
   sodipodi:docname="U+79CD.svg">
  <metadata
     id="metadata16">
    <rdf:RDF>
      <cc:Work
         rdf:about="">
        <dc:format>image/svg+xml</dc:format>
        <dc:type
           rdf:resource="http://purl.org/dc/dcmitype/StillImage" />
      </cc:Work>
    </rdf:RDF>
  </metadata>
  <defs
     id="defs14" />
  <sodipodi:namedview
     pagecolor="#ffffff"
     bordercolor="#666666"
     borderopacity="1"
     objecttolerance="10"
     gridtolerance="10"
     guidetolerance="10"
     inkscape:pageopacity="0"
     inkscape:pageshadow="2"
     inkscape:window-width="640"
     inkscape:window-height="480"
     id="namedview12"
     showgrid="false"
     inkscape:zoom="0.27441406"
     inkscape:cx="512"
     inkscape:cy="512"
     inkscape:window-x="0"
     inkscape:window-y="25"
     inkscape:window-maximized="0"
     inkscape:current-layer="U79CD" />
  <path
     style="fill:#2b1100;fill-opacity:1;fill-rule:nonzero;stroke:none"
     d="M 756.84375 166.78125 C 739.45931 166.90662 724.57123 170.30938 724 177.90625 C 722.5636 224.58825 722.493 271.3 722.3125 318 C 722.28892 333.99956 722.29047 350.00038 722.28125 366 C 719.11873 366.58376 715.96458 367.19245 712.8125 367.875 C 683.9 374.195 655.26725 381.64225 627.34375 391.53125 C 626.74291 391.75137 626.21036 392.07721 625.71875 392.46875 C 624.66679 374.22219 538.10901 371.10264 537.40625 389.65625 C 537.73125 429.19125 545.20635 468.208 553.34375 506.75 C 554.13513 510.40811 554.95861 514.0455 555.8125 517.6875 C 538.59324 514.23413 520.99745 514.16704 503.3125 514.375 C 457.3366 515.13 411.58695 519.392 365.90625 524.5 C 364.17742 524.68662 362.44771 524.87669 360.71875 525.0625 C 361.9892 498.30038 363.52268 471.56285 365.5625 444.84375 C 369.001 401.09175 371.30275 357.03225 379.03125 313.78125 C 380.83791 304.74795 360.81755 295.97318 339.5625 291.5625 C 352.86196 274.71137 366.67048 258.27514 381.53125 242.75 C 394.10125 228.843 328.53875 169.593 315.96875 183.5 C 288.52095 214.745 263.35195 247.80525 238.71875 281.28125 C 212.18695 317.75825 188.3133 356.03475 165.8125 395.09375 C 156.5105 411.80175 160.93975 403.7885 152.59375 419.1875 C 143.86805 435.6565 221.49305 476.7815 230.21875 460.3125 C 237.56225 446.0985 233.68415 453.47925 241.84375 438.15625 C 255.38561 413.8014 269.58989 389.82007 284.875 366.53125 C 283.01914 390.53053 281.63705 414.56783 280 438.5625 C 277.85469 470.45754 276.30046 502.37763 274.9375 534.3125 C 248.07365 537.31638 221.24971 540.48379 194.46875 544.15625 C 156.02885 550.00825 117.843 557.41525 79.375 563.03125 C 60.8089 565.74825 73.6214 653.24825 92.1875 650.53125 C 130.6741 643.32125 169.0725 635.7035 207.75 629.5625 C 210.577 629.15975 213.39023 628.79728 216.21875 628.40625 C 209.74123 636.15124 203.41944 644.03511 197.1875 651.96875 C 172.6284 684.08075 151.14955 718.3475 131.59375 753.6875 C 125.02115 765.0425 120.13 777.042 115.8125 789.375 C 110.2507 807.275 194.6257 833.49375 200.1875 815.59375 C 201.054 808.35975 205.89945 802.09375 208.46875 795.46875 C 225.10155 764.16975 243.9031 734.0355 265.5625 705.9375 C 266.42893 704.84645 267.28762 703.74766 268.15625 702.65625 C 266.90894 741.60293 266.58399 780.59254 266.96875 819.5625 C 264.94638 839.32679 269.68146 859.29466 270.25 879.03125 C 271.00852 875.8063 273.97257 874.98725 283.5 858.71875 C 279.79366 877.48998 326.07828 935.80439 339.8125 925.34375 C 359.8626 892.19475 357.12305 907.046 358.65625 884.125 C 357.19855 862.107 353.6002 840.24475 354 818.09375 C 353.57053 800.27426 353.33361 782.44624 353.28125 764.625 C 373.24371 767.15047 392.76525 772.30983 412.09375 777.84375 C 438.03175 785.12475 462.83485 795.60475 486.65625 808.09375 C 495.36475 812.58275 503.5357 817.906 511.375 823.75 C 526.6489 834.64 577.99265 762.641 562.71875 751.75 C 551.18385 743.751 539.3134 736.305 526.75 730 C 497.6881 715.332 467.66485 702.618 436.28125 693.75 C 409.52793 686.03128 382.47784 679.22555 354.78125 675.90625 C 354.99599 670.4135 355.23714 664.92919 355.5 659.4375 C 356.1036 643.64131 356.68254 627.83088 357.25 612.03125 C 363.18844 611.40645 369.12504 610.78527 375.0625 610.15625 C 417.8979 605.57025 460.8284 601.60625 503.9375 601.78125 C 506.59563 598.93096 554.94948 607.73049 533.71875 602.84375 C 544.04951 603.68344 558.5136 577.98748 565.5625 554.875 C 571.41695 575.27612 577.96404 595.4642 584.78125 615.5625 C 589.22525 628.2155 586.9459 622.155 591.5625 633.75 C 592.94994 637.0162 596.97577 638.44567 602.5625 638.46875 C 600.14125 664.25966 612.19773 712.06658 625.96875 709.625 C 658.13569 703.32054 690.63199 698.8662 723.125 694.59375 C 723.49835 730.48003 723.88599 766.36191 723.96875 802.25 C 724.02675 831.649 723.09805 861.041 721.21875 890.375 C 720.20655 908.846 807.26905 913.62625 808.28125 895.15625 C 809.73065 863.98825 810.34925 832.79675 809.90625 801.59375 C 809.39057 763.28759 808.57592 724.96018 807.90625 686.65625 C 823.47722 686.00818 839.08967 685.79647 854.6875 685.9375 C 879.1001 686.4795 903.3876 689.02 927.8125 689 C 935.7535 688.915 943.6414 688.07025 951.5 687.03125 C 962.60183 685.32108 962.22755 653.37385 956.1875 628.53125 C 965.01787 607.8474 973.63562 587.0868 981.625 566.0625 C 991.7797 538.1365 1001.3744 509.66625 1004.1875 479.90625 C 1005.0832 448.69425 998.35705 420.232 973.28125 399.375 C 951.72965 384.338 927.8774 375.1665 901.8125 371.1875 C 875.2236 366.8775 848.50155 363.12675 821.65625 360.84375 C 816.92009 360.59245 812.17441 360.38723 807.4375 360.25 C 807.57927 346.46261 807.74132 332.66189 807.9375 318.875 C 808.6842 274.087 809.08245 229.23225 812.15625 184.53125 C 812.99112 173.42753 782.25177 166.59802 756.84375 166.78125 z M 628.625 435.9375 C 636.1824 457.48392 648.70754 478.02305 657.8125 474.6875 C 678.69589 466.30911 700.36223 460.35066 722.25 455.3125 C 722.26725 495.24928 722.29526 535.18812 722.3125 575.125 C 722.30649 585.79878 722.35891 596.48289 722.40625 607.15625 C 702.75866 609.65665 683.11987 612.23366 663.5 614.9375 C 670.706 609.33342 674.80986 603.66852 672.90625 599.1875 C 669.57955 592.2245 671.44945 596.43575 667.59375 586.46875 C 655.94315 554.52775 645.50995 522.10275 638.28125 488.84375 C 634.60038 471.3549 631.02131 453.70749 628.625 435.9375 z M 806.84375 447.6875 C 810.08298 447.82464 813.32397 448.00833 816.5625 448.21875 C 840.3089 450.64075 863.99055 453.9935 887.53125 457.9375 C 897.04015 461.3615 913.6637 460.89025 920.3125 470.03125 C 915.9311 468.88225 916.75305 470.836 916.15625 475.625 C 913.33615 496.459 906.457 516.47625 899.3125 536.15625 C 891.25624 557.37007 882.43358 578.26524 873.21875 599 C 867.12496 598.7562 861.03782 598.62493 854.9375 598.6875 C 838.88692 598.72758 822.8364 599.06576 806.8125 599.78125 C 806.76289 591.5401 806.72268 583.30424 806.71875 575.0625 C 806.67062 532.60551 806.68247 490.14499 806.84375 447.6875 z M 270.25 879.0625 C 269.88572 880.64374 270.02718 882.84106 270.1875 887.71875 C 270.31767 884.83816 270.33267 881.95471 270.25 879.0625 z "
     id="path15141" />
</svg>
