<?xml version="1.0" encoding="utf-8" ?>

<!DOCTYPE svg PUBLIC "-//W3C//DTD SVG 1.1//EN" 
  "http://www.w3.org/Graphics/SVG/1.1/DTD/svg11.dtd">
<svg 
    xmlns="http://www.w3.org/2000/svg"
    xmlns:xlink="http://www.w3.org/1999/xlink"
    xmlns:sodipodi="http://sodipodi.sourceforge.net/DTD/sodipodi-0.dtd"
    xmlns:inkscape="http://www.inkscape.org/namespaces/inkscape"
    width="1024" height="1024" id="U793A">
<path d="m 10536.375,44306.671 c 38.566,-3.791 76.854,-9.906 115.137,-15.816 49.835,-7.932 99.856,-14.558 150.133,-18.895 31.164,-2.588 62.41,-4.115 92.665,4.659 17.728,6.134 -11.189,89.709 -28.918,83.574 l 0,0 c -13.897,-6.069 -39.674,-1.305 -56.736,-1.598 -48.148,3.617 -96.032,9.828 -143.676,17.653 -39.117,6.298 -78.236,12.586 -117.464,18.158 -18.611,2.363 -29.752,-85.372 -11.141,-87.735 z" id="path12497" inkscape:connector-curvature="0" style="fill:#a02c2c;fill-opacity:1;fill-rule:nonzero;stroke:#f9f9f9;stroke-width:0.1;stroke-miterlimit:4;stroke-dasharray:none" transform="translate(-10240, -44032)"/><path d="m 10394.501,44550.398 c 40.272,-6.587 80.006,-15.956 119.699,-25.327 68.103,-16.892 136.619,-31.902 205.586,-44.797 59.595,-10.937 119.575,-19.557 179.919,-24.986 32.432,-2.556 65.034,-3.478 97.514,-1.396 12.662,1.401 6.22,0.378 19.308,3.166 18.182,4.785 -4.377,90.495 -22.559,85.71 l 0,0 c 2.679,-0.497 1.5,-0.146 -3.553,-0.994 -27.724,-2.694 -55.683,-1.786 -83.442,-0.138 -57.546,4.481 -114.75,12.284 -171.545,22.591 -67.502,12.532 -134.522,27.342 -201.012,44.487 -40.47,10.004 -80.991,19.784 -121.799,28.327 -18.379,3.843 -36.496,-82.8 -18.116,-86.643 z" id="path12499" inkscape:connector-curvature="0" style="fill:#a02c2c;fill-opacity:1;fill-rule:nonzero;stroke:#f9f9f9;stroke-width:0.1;stroke-miterlimit:4;stroke-dasharray:none" transform="translate(-10240, -44032)"/><path d="m 10779.209,44532.851 c 2.061,41.279 3.261,82.584 3.5,123.912 -0.155,54.639 -4.73,109.121 -8.189,163.615 -1.556,27.825 -3.306,55.829 -0.211,83.607 0.238,1.686 0.475,3.373 0.713,5.06 2.103,18.648 -85.805,28.564 -87.908,9.916 l 0,0 c -0.225,-2.416 -0.451,-4.831 -0.676,-7.247 -2.338,-32.394 -0.81,-64.843 1.682,-97.195 3.769,-52.268 8.244,-104.565 8.196,-157.01 -0.456,-39.125 -1.629,-78.28 -5.213,-117.26 -1.569,-18.69 86.536,-26.088 88.106,-7.398 z" id="path12501" inkscape:connector-curvature="0" style="fill:#a02c2c;fill-opacity:1;fill-rule:nonzero;stroke:#f9f9f9;stroke-width:0.1;stroke-miterlimit:4;stroke-dasharray:none" transform="translate(-10240, -44032)"/><path d="m 10636.681,44753.66 c -23.155,14.167 -42.609,33.38 -61.412,52.735 -14.378,15.196 -27.431,31.543 -40.064,48.191 -11.383,14.697 -80.664,-38.962 -69.281,-53.659 l 0,0 c 14.952,-18.969 30.222,-37.711 46.845,-55.261 24.271,-24.973 49.532,-49.289 78.942,-68.226 16.169,-9.539 61.139,66.68 44.97,76.22 z" id="path12503" inkscape:connector-curvature="0" style="fill:#a02c2c;fill-opacity:1;fill-rule:nonzero;stroke:#f9f9f9;stroke-width:0.1;stroke-miterlimit:4;stroke-dasharray:none" transform="translate(-10240, -44032)"/><path d="m 10901.62,44682.623 c 23.514,15.4 47.985,29.304 72.204,43.56 26.313,15.586 53.294,30.013 79.325,46.071 13.802,9.349 7.102,4.471 20.112,14.619 14.563,11.734 -40.751,80.386 -55.315,68.652 l 0,0 c -6.629,-5.713 -2.861,-2.703 -11.459,-8.833 -25.051,-16.014 -51.326,-29.989 -76.871,-45.184 -25.402,-14.864 -50.942,-29.495 -76.182,-44.632 -15.752,-10.222 32.434,-84.475 48.186,-74.253 z" id="path12505" inkscape:connector-curvature="0" style="fill:#a02c2c;fill-opacity:1;fill-rule:nonzero;stroke:#f9f9f9;stroke-width:0.1;stroke-miterlimit:4;stroke-dasharray:none" transform="translate(-10240, -44032)"/></svg>