<?xml version="1.0" encoding="utf-8" ?>

<!DOCTYPE svg PUBLIC "-//W3C//DTD SVG 1.1//EN" 
  "http://www.w3.org/Graphics/SVG/1.1/DTD/svg11.dtd">
<svg 
    xmlns="http://www.w3.org/2000/svg"
    xmlns:xlink="http://www.w3.org/1999/xlink"
    xmlns:sodipodi="http://sodipodi.sourceforge.net/DTD/sodipodi-0.dtd"
    xmlns:inkscape="http://www.inkscape.org/namespaces/inkscape"
    width="1024" height="1024" id="U795D">
<path d="m 11574.406,65741.253 c 9.437,20.646 21.472,39.918 33.868,58.881 2.077,3.175 4.154,6.349 6.231,9.524 10.151,15.648 -63.612,63.5 -73.763,47.852 l 0,0 c -2.054,-3.192 -4.108,-6.385 -6.161,-9.578 -14.221,-22.078 -27.845,-44.535 -39.719,-67.981 -8.209,-16.874 71.335,-55.572 79.544,-38.698 z" id="path15389" inkscape:connector-curvature="0" style="fill:#2b1100;fill-opacity:1;fill-rule:nonzero;stroke:none" transform="translate(-11264, -65536)"/><path d="m 11385.497,65934.852 c 30.675,6.333 62.056,8.314 93.244,10.418 34.917,2.49 69.925,1.999 104.895,2.633 25.791,0.49 54.058,3.528 67.391,30.257 4.162,8.342 3.478,18.319 5.216,27.478 -5.549,31.486 -27.462,55.134 -46.557,79.521 -25.571,32.084 -49.574,65.36 -72.505,99.369 -21.9,32.497 -40.155,67.181 -57.005,102.498 -6.44,17.126 -17.034,33.236 -21.383,51.15 0.186,-0.347 0.371,-0.694 0.556,-1.041 -3.872,18.425 -90.727,0.172 -86.855,-18.252 l 0,0 c 0.655,-2.584 1.311,-5.168 1.966,-7.753 7.41,-21.388 17.644,-41.66 27.166,-62.158 19.064,-38.811 39.401,-77.047 63.596,-112.954 23.975,-35.568 48.996,-70.413 75.304,-104.3 7.915,-10.388 15.966,-20.712 23.408,-31.451 1.234,-1.78 2.303,-3.673 3.57,-5.43 0.223,-0.309 0.868,-1.117 0.876,-0.736 0.06,2.626 -0.482,5.231 -0.723,7.847 1.857,6.304 2.07,13.352 5.573,18.914 12.124,19.249 41.632,17.424 7.996,14.78 -36.047,-1.365 -72.153,-1.15 -108.161,-3.618 -35.457,-2.252 -71,-4.611 -106.056,-10.647 -18.355,-3.922 0.133,-90.447 18.488,-86.525 z" id="path15391" inkscape:connector-curvature="0" style="fill:#2b1100;fill-opacity:1;fill-rule:nonzero;stroke:none" transform="translate(-11264, -65536)"/><path d="m 11580.756,66187.3 c -9.458,20.067 -8.385,43.018 -8.229,64.654 1.538,40.372 4.15,80.691 5.933,121.054 2.082,28.983 0.806,58.298 4.725,87.136 0.265,0.566 0.53,1.131 0.795,1.697 4.075,18.309 -82.234,37.515 -86.309,19.206 l 0,0 c -0.694,-3.748 -1.389,-7.497 -2.084,-11.245 -2.906,-30.927 -2.439,-62.038 -4.037,-93.044 -1.741,-41.384 -4.524,-82.71 -6.162,-124.096 -0.33,-37.408 0.91,-75.38 18.589,-109.342 9.329,-16.288 86.108,27.692 76.779,43.98 z" id="path15393" inkscape:connector-curvature="0" style="fill:#2b1100;fill-opacity:1;fill-rule:nonzero;stroke:none" transform="translate(-11264, -65536)"/><path d="m 11577.038,66157.864 c 32.765,12.985 65.262,26.629 97.691,40.427 21.118,9.009 42.014,18.521 63.07,27.67 16.989,7.539 -18.55,87.628 -35.539,80.089 l 0,0 c -20.504,-9.281 -40.892,-18.821 -61.591,-27.665 -31.076,-13.207 -62.202,-26.422 -94.097,-37.548 -17.602,-6.463 12.865,-89.436 30.466,-82.973 z" id="path15395" inkscape:connector-curvature="0" style="fill:#2b1100;fill-opacity:1;fill-rule:nonzero;stroke:none" transform="translate(-11264, -65536)"/><path d="m 11815.414,65854.012 c 2.879,30.411 11.163,59.87 20.291,88.897 10.158,30.304 21.387,60.244 33.129,89.967 1.049,2.518 2.099,5.037 3.148,7.556 6.879,17.4 -75.147,49.829 -82.027,32.429 l 0,0 c -1.084,-2.877 -2.168,-5.755 -3.252,-8.632 -11.673,-31.618 -23.331,-63.252 -34.059,-95.205 -10.861,-34.552 -20.357,-69.562 -25.142,-105.544 -2.008,-18.649 85.903,-28.116 87.912,-9.468 z" id="path15397" inkscape:connector-curvature="0" style="fill:#2b1100;fill-opacity:1;fill-rule:nonzero;stroke:none" transform="translate(-11264, -65536)"/><path d="m 11821.512,65793.445 c 30.008,-12.512 62.05,-18.103 94.135,-21.983 30.022,-3.237 60.234,-3.096 90.304,-0.82 26.756,1.315 49.654,9.86 70.482,26.434 21.81,22.3 27.436,51.915 31.492,81.629 3.195,29.08 4.318,58.335 4.981,87.566 0.892,21.411 -0.07,42.658 -3.811,63.743 -3.62,18.354 -90.142,1.289 -86.522,-17.065 l 0,0 c 3.676,-14.614 2.468,-29.916 2.653,-44.845 -0.491,-25.885 -1.441,-51.792 -4.33,-77.536 -1.102,-8.098 -1.28,-10.514 -2.844,-18.172 -1.396,-6.841 -2.809,-10.05 -2.067,-10.071 0.656,-0.02 1.177,0.579 1.766,0.868 7.275,1.983 -17.532,-8.088 -19.035,-4.927 -24.204,-2.222 -48.563,-2.347 -72.767,0.101 -23.158,2.674 -46.584,6.108 -68.049,15.703 -17.103,7.719 -53.491,-72.905 -36.388,-80.625 z" id="path15399" inkscape:connector-curvature="0" style="fill:#2b1100;fill-opacity:1;fill-rule:nonzero;stroke:none" transform="translate(-11264, -65536)"/><path d="m 11806.811,66052.791 c 36.857,-2.885 73.619,-6.846 110.398,-10.566 39.19,-4.166 78.584,-5.366 117.954,-6.328 10.948,-0.172 21.914,-0.354 32.79,-1.708 18.709,-1.651 26.493,86.544 7.784,88.195 l 0,0 c -13.015,0.869 -26.05,1.23 -39.096,1.072 -36.919,0.335 -73.868,1.171 -110.61,5.12 -36.963,3.813 -73.922,7.72 -110.809,12.202 -18.665,1.784 -27.076,-86.203 -8.411,-87.987 z" id="path15401" inkscape:connector-curvature="0" style="fill:#2b1100;fill-opacity:1;fill-rule:nonzero;stroke:none" transform="translate(-11264, -65536)"/><path d="m 11951.578,66148.861 c -17.993,26.461 -29.868,56.466 -42.145,85.843 -19.885,49.011 -39.269,98.225 -57.362,147.927 -2.415,7.055 -4.889,14.09 -7.245,21.164 -4.879,14.648 -10.176,29.639 -12.83,44.913 -1.341,7.714 -1.653,7.69 0.339,5.079 -1.002,-5.077 -2.004,-10.154 -3.006,-15.232 8.932,16.547 -69.072,58.65 -78.004,42.103 l 0,0 c -2.427,-7.719 -4.855,-15.437 -7.282,-23.156 0.714,-36.625 14.721,-70.547 26.867,-104.711 18.796,-50.642 38.576,-100.908 58.483,-151.123 14.567,-35.708 29.046,-71.787 50.154,-104.258 10.915,-15.28 82.946,36.171 72.031,51.451 z" id="path15403" inkscape:connector-curvature="0" style="fill:#2b1100;fill-opacity:1;fill-rule:nonzero;stroke:none" transform="translate(-11264, -65536)"/><path d="m 12056.622,66132.234 c 13.393,40.434 8.775,82.891 3.267,124.243 -2.296,29.92 -14.692,60.663 -9.508,90.866 3.034,7.339 1.461,1.033 4.178,0.933 3.055,-0.112 5.973,1.312 8.94,2.053 25.052,5.971 50.842,6.096 76.415,5.08 23.195,-1.452 46.326,-3.93 69.344,-7.126 4.599,-0.676 9.182,-1.648 13.621,-2.921 18.173,-4.948 41.496,80.725 23.322,85.672 l 0,0 c -8.489,2.093 -17.082,3.664 -25.761,4.76 -25.711,3.039 -51.503,5.537 -77.354,6.993 -35.289,1.183 -70.865,0.563 -105.256,-8.425 -40.947,-13.327 -66.911,-33.686 -74.841,-78.169 -2.84,-37.615 4.415,-74.219 10.745,-111.21 3.508,-26.249 7.968,-53.758 0.843,-79.796 -6.991,-17.404 75.055,-50.357 82.045,-32.953 z" id="path15405" inkscape:connector-curvature="0" style="fill:#2b1100;fill-opacity:1;fill-rule:nonzero;stroke:none" transform="translate(-11264, -65536)"/></svg>