<?xml version="1.0" encoding="UTF-8" standalone="no"?>
<svg
   xmlns:dc="http://purl.org/dc/elements/1.1/"
   xmlns:cc="http://creativecommons.org/ns#"
   xmlns:rdf="http://www.w3.org/1999/02/22-rdf-syntax-ns#"
   xmlns:svg="http://www.w3.org/2000/svg"
   xmlns="http://www.w3.org/2000/svg"
   xmlns:sodipodi="http://sodipodi.sourceforge.net/DTD/sodipodi-0.dtd"
   xmlns:inkscape="http://www.inkscape.org/namespaces/inkscape"
   width="1024"
   height="1024"
   id="U7AE0"
   version="1.1"
   inkscape:version="0.48.0 r9654"
   sodipodi:docname="U+7AE0.svg">
  <metadata
     id="metadata18">
    <rdf:RDF>
      <cc:Work
         rdf:about="">
        <dc:format>image/svg+xml</dc:format>
        <dc:type
           rdf:resource="http://purl.org/dc/dcmitype/StillImage" />
      </cc:Work>
    </rdf:RDF>
  </metadata>
  <defs
     id="defs16" />
  <sodipodi:namedview
     pagecolor="#ffffff"
     bordercolor="#666666"
     borderopacity="1"
     objecttolerance="10"
     gridtolerance="10"
     guidetolerance="10"
     inkscape:pageopacity="0"
     inkscape:pageshadow="2"
     inkscape:window-width="640"
     inkscape:window-height="480"
     id="namedview14"
     showgrid="false"
     inkscape:zoom="0.27441406"
     inkscape:cx="512"
     inkscape:cy="512"
     inkscape:window-x="0"
     inkscape:window-y="25"
     inkscape:window-maximized="0"
     inkscape:current-layer="U7AE0" />
  <path
     style="fill:#2b1100;fill-opacity:1;fill-rule:nonzero;stroke:none"
     d="M 478.96875 42.71875 C 457.22869 42.669479 403.04577 79.362031 411.625 93.03125 C 426.9203 115.13625 443.74555 136.15225 460.34375 157.28125 C 461.92789 159.30686 463.5233 161.3006 465.125 163.3125 C 413.31247 171.33006 361.49223 179.4904 309.3125 184.75 C 266.5747 188.737 223.75795 191.24225 180.96875 194.53125 C 162.39545 197.25325 175.2392 284.81575 193.8125 282.09375 C 235.0453 277.48175 276.43775 274.622 317.71875 270.375 C 384.36245 263.143 450.46945 251.81325 516.78125 242.15625 C 565.41915 234.99825 614.4761 231.2345 663.625 232.4375 C 684.3448 234.1805 706.4763 233.3065 726.25 240.8125 C 726.8032 241.1625 727.35305 241.49375 727.90625 241.84375 C 745.14315 249.24775 780.0494 167.99775 762.8125 160.59375 L 752.5625 156.53125 C 724.119 148.31125 694.6036 145.88875 665.0625 145.46875 C 627.00671 145.10334 589.01893 147.09771 551.21875 151.1875 C 555.97482 144.579 557.97387 138.7073 555.21875 135.125 C 546.67405 124.293 537.7931 113.75275 529.1875 102.96875 C 514.4698 84.38475 499.48265 65.89175 486.59375 45.96875 C 485.18988 43.732109 482.52621 42.726813 478.96875 42.71875 z M 587.34375 238.9375 C 585.75592 238.98979 584.3619 239.44945 583.25 240.40625 C 564.6491 257.64925 547.2623 276.13375 529.625 294.34375 C 518.1409 305.80975 523.86355 300.2755 512.46875 310.9375 C 505.76498 317.24877 517.07587 336.06845 531.875 351.9375 C 516.52647 352.89159 501.1662 353.8152 485.8125 354.6875 C 464.40862 355.75043 443.00405 356.6874 421.59375 357.625 C 427.13853 345.0599 429.09722 334.06383 423.6875 330.65625 C 413.4197 324.46425 418.5406 327.85175 408.375 320.46875 C 392.0261 306.61475 377.819 290.61425 367.5625 271.65625 C 358.0832 255.46825 281.7707 300.15575 291.25 316.34375 C 301.04194 332.87564 312.61625 347.99316 325.5 361.96875 C 299.18936 363.25078 272.88194 364.66362 246.59375 366.375 C 197.35195 370.025 148.1814 374.3875 99.0625 379.4375 C 80.4867 381.9405 92.26785 469.503 110.84375 467 C 158.11505 460.09 205.7199 455.69575 253.3125 451.71875 C 332.1151 445.90575 411.0892 443.29825 490 439.40625 C 564.3425 435.25725 638.62925 430.204 712.96875 426 C 760.25775 423.558 807.5462 420.7505 854.875 419.1875 C 859.244 419.0955 863.59975 418.99625 867.96875 418.90625 C 886.56335 418.28125 883.62575 330.625 865.03125 331.25 L 851.125 331.90625 C 803.3462 334.39725 755.6334 337.62475 707.875 340.46875 C 671.98994 342.73082 636.09637 345.15656 600.21875 347.53125 C 613.42025 333.80641 626.61931 320.02886 640.96875 307.5 C 654.08924 296.2098 606.0801 238.32051 587.34375 238.9375 z M 561.4375 447.78125 C 558.9831 447.80936 556.52169 447.88931 554.0625 447.96875 C 505.0229 449.44175 456.1937 454.2755 408.125 464.4375 C 377.3774 470.3985 346.62495 476.663 315.40625 479.625 C 309.24238 480.40856 306.35328 490.58472 305.90625 503.71875 C 279.73579 502.54535 244.75239 509.5654 245.65625 521.40625 C 249.37425 556.81425 255.0736 591.97775 262.8125 626.71875 C 269.4315 655.14275 279.34175 682.67975 295.03125 707.34375 C 295.62558 708.07256 295.75914 708.23552 296.25 708.84375 C 285.96913 726.27103 299.02409 794.8667 315.46875 792.1875 C 353.68165 784.8325 392.4884 781.023 431.1875 777.25 C 441.31079 776.16243 451.45136 775.29878 461.59375 774.65625 C 462.21303 782.36762 462.80784 790.07074 463.4375 797.78125 C 449.8276 797.76995 436.2113 797.55602 422.59375 797.125 C 359.69065 795.518 296.86975 792.21325 233.96875 790.65625 C 197.50035 790.50425 161.01635 791.177 124.78125 795.75 C 106.18175 798.272 118.05675 885.9595 136.65625 883.4375 C 168.83725 878.1255 201.49605 877.48625 234.03125 877.28125 C 296.20895 878.16525 358.3326 881.18725 420.5 882.65625 C 436.77255 883.14817 453.04877 883.35076 469.3125 883.3125 C 470.81098 915.14136 471.66338 946.98024 473.09375 978.8125 C 474.31275 999.2615 473.6346 989.48525 475.1875 1008.1562 C 476.9747 1026.7043 564.38095 1018.297 562.59375 999.75 C 560.82015 983.972 561.66515 992.43725 560.21875 974.28125 C 558.36672 943.20721 557.27984 912.09504 555.875 881 C 577.4286 879.96818 598.96954 878.63492 620.5 877.09375 C 668.7795 873.49875 716.92725 868.4785 765.15625 864.3125 C 782.76825 862.8635 800.44985 862.1125 818.09375 861.1875 C 836.73555 859.9845 831.04795 772.1095 812.40625 773.3125 C 793.98345 774.7355 775.55285 775.8075 757.15625 777.5625 C 709.50095 782.2565 661.89855 787.55975 614.15625 791.34375 C 593.00087 792.96981 571.80701 794.35605 550.625 795.4375 C 550.11471 788.27123 549.64575 781.07524 549.1875 773.90625 C 554.38081 774.11722 559.55855 774.36714 564.75 774.65625 C 588.947 776.60725 613.15225 778.343 637.40625 779.375 C 648.8823 779.71657 654.26756 746.61945 652.40625 720.90625 C 672.58881 725.43669 692.70952 725.66399 694.84375 717.125 C 701.75275 688.311 708.22115 659.38125 716.46875 630.90625 C 725.58385 599.00425 736.4637 566.621 734 533 C 732.4739 526.772 731.75575 520.2785 729.40625 514.3125 C 719.00335 487.8935 695.02385 473.19225 669.59375 463.90625 C 634.50266 452.73219 598.25345 447.35957 561.4375 447.78125 z M 561.8125 534.65625 C 589.07498 534.66315 616.15059 538.01031 641.90625 547.1875 C 643.77574 547.83092 645.37081 548.48844 646.75 549.15625 C 643.20005 568.7184 637.72654 587.98099 632.375 607.15625 C 624.59724 634.72082 618.05053 662.61408 610.90625 690.34375 C 596.98903 689.68232 583.0963 688.7861 569.1875 687.8125 C 520.4207 685.5355 471.57565 686.01175 422.96875 691.09375 C 397.88813 693.44896 372.8043 695.91148 347.78125 698.84375 C 360.2627 681.12808 369.55521 660.07068 364.0625 652.875 C 364.65052 653.42463 365.15533 653.87541 365.5625 654.21875 C 360.2573 646.40792 356.82887 637.33494 353.96875 628.125 C 361.90176 648.07291 373.74142 665.89202 382.25 662.625 C 409.2583 652.781 437.8484 648.469 466.375 646.125 C 489.7213 644.693 512.8136 648.44125 535.5 653.53125 C 537.4169 654.06325 539.333 654.593 541.25 655.125 C 559.4078 659.729 581.12645 574.13425 562.96875 569.53125 C 559.88325 568.79525 556.80415 568.07875 553.71875 567.34375 C 522.48605 561.07075 490.7461 556.84175 458.8125 559.21875 C 422.1463 562.56775 385.5919 568.422 350.5625 580.125 C 345.83508 581.94045 344.70686 589.28571 345.90625 598.90625 C 343.50206 587.85244 341.39074 576.73112 339.59375 565.5625 C 368.23345 561.22446 396.64357 555.4283 425.03125 549.6875 C 468.25045 540.1825 512.2 535.70475 556.375 534.71875 C 558.19387 534.69031 559.995 534.65579 561.8125 534.65625 z M 365.5625 654.21875 C 366.45887 655.53847 367.3954 656.82032 368.40625 658.0625 C 367.5963 655.27606 367.97228 656.25079 365.5625 654.21875 z M 648.8125 550.25 C 655.64524 554.17466 654.21968 557.01498 648.8125 550.25 z "
     id="path14217" />
</svg>
