<?xml version="1.0" encoding="UTF-8" standalone="no"?>
<svg
   xmlns:dc="http://purl.org/dc/elements/1.1/"
   xmlns:cc="http://creativecommons.org/ns#"
   xmlns:rdf="http://www.w3.org/1999/02/22-rdf-syntax-ns#"
   xmlns:svg="http://www.w3.org/2000/svg"
   xmlns="http://www.w3.org/2000/svg"
   xmlns:sodipodi="http://sodipodi.sourceforge.net/DTD/sodipodi-0.dtd"
   xmlns:inkscape="http://www.inkscape.org/namespaces/inkscape"
   width="1024"
   height="1024"
   id="U7A97"
   version="1.1"
   inkscape:version="0.48.0 r9654"
   sodipodi:docname="U+7A97.svg">
  <metadata
     id="metadata19">
    <rdf:RDF>
      <cc:Work
         rdf:about="">
        <dc:format>image/svg+xml</dc:format>
        <dc:type
           rdf:resource="http://purl.org/dc/dcmitype/StillImage" />
      </cc:Work>
    </rdf:RDF>
  </metadata>
  <defs
     id="defs17" />
  <sodipodi:namedview
     pagecolor="#ffffff"
     bordercolor="#666666"
     borderopacity="1"
     objecttolerance="10"
     gridtolerance="10"
     guidetolerance="10"
     inkscape:pageopacity="0"
     inkscape:pageshadow="2"
     inkscape:window-width="640"
     inkscape:window-height="480"
     id="namedview15"
     showgrid="false"
     inkscape:zoom="0.27441406"
     inkscape:cx="512"
     inkscape:cy="512"
     inkscape:window-x="0"
     inkscape:window-y="25"
     inkscape:window-maximized="0"
     inkscape:current-layer="U7A97" />
  <path
     style="fill:#800000;fill-opacity:1;fill-rule:nonzero;stroke:#f9f9f9;stroke-width:0.1;stroke-miterlimit:4;stroke-dasharray:none"
     d="M 462.09375 65.15625 C 442.17407 66.314024 393.18929 115.6323 404.625 127.59375 C 422.5858 145.96355 439.23175 165.5836 453.34375 187.0625 C 453.58409 187.52071 453.82216 187.97929 454.0625 188.4375 C 415.37207 192.39709 376.84312 197.88254 338.78125 206.15625 C 306.25604 213.57238 273.75914 221.64715 242.5 233.34375 C 227.48742 211.7772 193.59114 184.83398 184.59375 194.28125 C 161.72365 219.52675 143.12715 248.0451 125.90625 277.3125 C 107.39865 310.1905 93.0292 345.14485 81 380.84375 C 76.1496 398.29635 78.10075 389.53665 75.03125 407.15625 C 72.45155 425.51475 159.01405 437.671 161.59375 419.3125 C 161.61585 413.2579 161.33865 417.13505 163.53125 407.84375 C 172.96605 377.83585 184.91305 348.58565 200.28125 321.09375 C 208.15943 307.72021 216.33249 294.47294 225.4375 281.90625 C 234.97368 303.64295 250.56162 325.12926 259.6875 320.6875 C 290.9142 305.837 324.6268 297.44415 358.125 289.53125 C 416.6202 276.31715 476.3955 270.7635 536.125 267 C 588.5294 264.0484 641.0044 265.6858 693.375 268.3125 C 718.98777 269.92404 744.61141 271.24624 770.25 272.3125 C 767.8501 282.72547 764.49712 292.91537 760.875 302.96875 C 757.5017 312.28905 752.78075 320.99525 748.03125 329.65625 C 739.23575 345.87575 815.67315 387.3445 824.46875 371.125 C 831.23615 358.5487 837.94485 345.9234 842.78125 332.4375 C 850.63365 310.5531 857.51495 288.196 860.15625 265 C 862.22905 240.1651 859.4478 217.2098 839.25 199.9375 C 822.0765 189.2675 804.3743 184.67565 784.0625 185.59375 C 755.0932 185.03655 726.15435 183.93965 697.21875 182.40625 C 641.74275 180.21185 586.1573 178.96055 530.6875 182.21875 C 522.94324 182.71981 515.2114 183.24718 507.46875 183.8125 C 524.30758 173.64104 537.91664 160.88374 533.84375 153.53125 C 531.02415 148.59305 528.1946 143.65685 525.375 138.71875 C 508.1008 113.35875 488.6308 89.7159 467.9375 67.0625 C 466.53311 65.59355 464.54003 65.014067 462.09375 65.15625 z M 793.78125 273.71875 C 796.56353 274.43418 796.92589 275.00174 793.78125 273.71875 z M 342.21875 293.75 C 340.64514 293.74766 339.28952 294.15325 338.15625 295.0625 C 314.60805 315.0021 291.49375 335.45375 268.84375 356.40625 C 250.82735 373.30165 233.0651 390.46785 218.5 410.46875 C 208.1049 425.84325 280.605 474.8745 291 459.5 C 298.5576 443.3864 316.60305 433.28955 327.53125 419.84375 C 348.68015 400.27975 370.258 381.1452 393 363.4375 C 406.37263 352.70826 360.78731 293.77763 342.21875 293.75 z M 598.25 308.03125 C 579.03053 307.5363 528.27767 358.61495 539.96875 370.75 C 559.69285 390.5519 581.6866 407.72995 604.5 423.78125 C 618.5508 433.34265 633.1827 441.99825 647.25 451.53125 C 662.6673 461.74345 710.82355 389.0873 695.40625 378.875 C 681.80955 370.0342 667.84145 361.7441 654.34375 352.75 C 636.06965 339.9726 618.32245 326.3294 603.09375 309.9375 C 601.88433 308.68214 600.23822 308.08245 598.25 308.03125 z M 450 412.625 C 429.26345 412.44727 375.85961 453.07847 385.3125 466.3125 C 392.71387 476.31505 400.34653 486.13297 408.15625 495.8125 C 395.6156 497.00181 383.08452 498.41773 370.59375 500.15625 C 330.64155 506.18995 290.38865 513.3427 253.65625 531 C 246.64635 534.74666 250.20691 551.03074 257.84375 567.75 C 232.34809 564.43356 198.69872 568.03692 198.4375 579.53125 C 198.8317 621.02625 201.6343 662.44455 204.25 703.84375 C 207.4002 754.46415 211.2986 805.0321 217.5 855.375 C 222.626 881.0284 223.0503 909.8781 235.9375 933.4375 C 238.68 938.451 242.30125 942.96225 245.46875 947.71875 C 247.80721 950.60721 252.3971 950.69891 258.15625 948.90625 C 260.67895 962.07236 265.19037 971.91791 271.46875 971.6875 C 309.20775 969.5356 346.97585 967.68255 384.71875 965.59375 C 443.62025 961.88125 502.58305 960.1072 561.59375 959.875 C 611.07345 959.8607 660.53865 960.99305 709.96875 963.15625 C 724.53445 963.73665 739.08235 964.7788 753.59375 966.125 C 758.47848 966.5224 762.54304 960.67549 765.5625 951.875 C 770.74998 950.01285 774.06427 947.3721 774.28125 943.875 C 774.78935 933.9464 775.29255 924.02635 775.71875 914.09375 C 777.10325 878.63225 778.0659 843.1741 778.5 807.6875 C 779.1826 764.7809 780.17295 721.86475 781.34375 678.96875 C 781.91695 640.50595 782.9251 601.4782 773.8125 563.8125 C 763.8543 532.8253 748.15365 506.56095 716.15625 494.65625 C 690.99405 487.36275 665.2418 486.40295 639.125 487.15625 C 599.8571 487.56115 560.60005 488.73195 521.34375 489.71875 C 507.7422 490.12005 494.13192 490.56048 480.53125 491.125 C 491.76104 480.08861 498.96407 468.84614 494.59375 463.3125 C 492.98235 461.3266 491.3613 459.32965 489.75 457.34375 C 478.0625 443.87425 466.60775 430.19035 456.59375 415.40625 C 455.24334 413.51567 452.96236 412.65039 450 412.625 z M 639.59375 573.75 C 655.07795 576.2463 674.7581 570.22355 689.3125 577.90625 C 686.9719 580.65635 689.594 585.6887 690.5 589.1875 C 696.3795 618.3172 695.5081 648.3158 695.1875 677.875 C 694.1659 720.6671 693.182 763.4519 692.4375 806.25 C 692.12383 829.62594 691.48527 852.98734 690.53125 876.34375 C 647.42676 875.1856 604.30959 874.60668 561.1875 874.6875 C 540.30287 874.80673 519.43767 875.12109 498.5625 875.59375 C 516.4371 848.49117 534.7095 821.67613 553.125 794.9375 C 572.3598 766.8111 591.5968 738.64565 609.8125 709.84375 C 628.4502 678.76985 640.71375 649.7413 607.53125 620.25 C 602.35625 615.6507 594.9371 614.56355 588.625 611.71875 C 562.1108 607.80785 535.5093 611.23805 508.875 612.71875 C 485.97409 614.37636 463.13309 616.546 440.28125 618.71875 C 445.66214 606.95544 451.19741 595.26547 457.09375 583.75 C 457.93991 582.05767 457.87972 580.13992 457.09375 578.0625 C 479.28899 576.7834 501.53001 576.08818 523.75 575.5 C 562.3591 574.6727 600.97405 573.76 639.59375 573.75 z M 358.71875 589.125 C 352.19617 603.88871 345.72254 618.67966 339.1875 633.4375 C 328.0989 658.7295 316.48815 683.8107 306.96875 709.75 C 300.44415 726.6526 299.2324 743.15905 303 760.71875 C 306.11589 770.64912 333.5679 766.88293 356.3125 758.5 C 353.48582 764.18195 352.79988 768.96275 355.40625 771.78125 C 374.87575 792.30715 395.37825 811.74075 416.84375 830.15625 C 420.21267 832.89307 420.36884 832.99674 421.90625 834.25 C 412.96572 846.65542 405.3556 861.7586 395.5625 872.59375 C 419.38482 853.15166 408.29358 858.43854 442.125 877.3125 C 421.54039 878.09441 400.98005 879.0273 380.40625 880.15625 C 357.01528 881.22841 333.59165 882.29086 310.1875 883.0625 C 306.89664 870.36391 304.99439 857.32644 302.875 844.40625 C 296.3859 796.04305 292.50905 747.42575 289.65625 698.71875 C 287.89999 668.06598 285.92046 637.34032 285.71875 606.625 C 289.17894 608.86596 292.34664 609.61806 294.90625 608.25 C 314.97512 598.30792 336.75011 593.03723 358.71875 589.125 z M 408.65625 690.375 C 412.01719 701.29525 416.7454 708.89307 422.34375 708.3125 C 452.63484 704.26855 483.05186 701.22206 513.53125 699.0625 C 503.16711 714.93135 492.53794 730.64539 481.875 746.3125 C 478.24107 751.60527 474.60353 756.89545 470.96875 762.1875 C 452.8094 746.68884 435.45944 730.30377 419.71875 712.3125 C 415.88702 708.16887 407.26603 710.79859 397.5 716.8125 C 401.0562 707.94105 404.82243 699.13637 408.65625 690.375 z M 568.71875 696.8125 C 573.46911 696.87727 573.68352 696.74395 571.375 697.65625 C 570.40506 697.33372 569.59401 697.08976 568.71875 696.8125 z "
     id="path21259" />
</svg>
