<?xml version="1.0" encoding="utf-8" ?>

<!DOCTYPE svg PUBLIC "-//W3C//DTD SVG 1.1//EN" 
  "http://www.w3.org/Graphics/SVG/1.1/DTD/svg11.dtd">
<svg 
    xmlns="http://www.w3.org/2000/svg"
    xmlns:xlink="http://www.w3.org/1999/xlink"
    xmlns:sodipodi="http://sodipodi.sourceforge.net/DTD/sodipodi-0.dtd"
    xmlns:inkscape="http://www.inkscape.org/namespaces/inkscape"
    width="1024" height="1024" id="U7A81">
<path d="m 11728.347,49229.972 c 21.227,29.283 39.743,60.395 58.421,91.329 12.39,20.985 6.409,10.606 17.966,31.125 9.006,16.208 -67.398,58.665 -76.405,42.457 l 0,0 c -10.186,-18.613 -4.805,-9.054 -16.19,-28.649 -16.727,-27.864 -33.266,-56.033 -53.318,-81.68 -11.579,-14.749 57.948,-69.33 69.526,-54.582 z" id="path12392" inkscape:connector-curvature="0" style="fill:#782121;fill-opacity:1;fill-rule:nonzero;stroke:#f9f9f9;stroke-width:0.1;stroke-miterlimit:4;stroke-dasharray:none" transform="translate(-11264, -49152)"/><path d="m 11525.421,49414.816 c -8.463,34.505 -15.48,69.346 -22.436,104.179 -2.648,15.6 -8.139,35.777 -6.057,49.798 2.643,18.552 -84.81,31.008 -87.452,12.456 l 0,0 c -2.346,-26.954 2.104,-53.143 8.162,-79.449 7.169,-35.273 14.412,-70.532 21.473,-105.826 3.997,-18.309 90.307,0.533 86.31,18.842 z" id="path12404" inkscape:connector-curvature="0" style="fill:#782121;fill-opacity:1;fill-rule:nonzero;stroke:#f9f9f9;stroke-width:0.1;stroke-miterlimit:4;stroke-dasharray:none" transform="translate(-11264, -49152)"/><path d="m 11482.2,49387.436 c 44.446,-15.972 91.879,-20.737 138.565,-25.482 72.023,-6.193 144.354,-6.774 216.591,-6.56 61.127,0.209 122.207,2.549 183.19,6.625 38.594,2.129 71.215,5.606 104.709,25.882 34.422,30.03 32.696,63.644 21.879,104.187 -11.896,35.654 -28.803,69.385 -45.081,103.186 -12.118,24.378 -5.911,12.177 -18.629,36.6 -8.525,16.377 -85.728,-23.812 -77.203,-40.189 l 0,0 c 11.763,-22.605 5.989,-11.237 17.323,-34.103 13.941,-29.131 28.364,-58.216 38.99,-88.757 6.172,-21.187 -0.148,-14.315 13.187,-7.999 0.274,-6.811 -54.946,-12.05 -61.503,-12.39 -58.945,-4.71 -118.026,-7.415 -177.169,-7.701 -69.125,-0.295 -138.358,0.299 -207.244,6.694 -37.76,4.166 -76.411,7.923 -112.295,21.145 -17.212,7.49 -52.522,-73.647 -35.31,-81.138 z" id="path12410" inkscape:connector-curvature="0" style="fill:#782121;fill-opacity:1;fill-rule:nonzero;stroke:#f9f9f9;stroke-width:0.1;stroke-miterlimit:4;stroke-dasharray:none" transform="translate(-11264, -49152)"/><path d="m 11672.974,49546.987 c -21.813,21.78 -38.578,47.732 -54.708,73.806 -12.49,24.154 -30.407,47.641 -35.573,74.892 -4.694,18.06 -89.83,-4.068 -85.136,-22.128 l 0,0 c 10.118,-35.206 27.834,-67.256 46.681,-98.524 19.199,-31.079 39.41,-61.634 64.285,-88.55 12.835,-13.672 77.286,46.832 64.451,60.504 z" id="path12412" inkscape:connector-curvature="0" style="fill:#782121;fill-opacity:1;fill-rule:nonzero;stroke:#f9f9f9;stroke-width:0.1;stroke-miterlimit:4;stroke-dasharray:none" transform="translate(-11264, -49152)"/><path d="m 11965.306,49544.294 c -3.929,12.939 0.776,24.179 6.935,35.425 5.749,9.261 12.475,17.858 19.039,26.542 11.182,14.872 -58.928,67.586 -70.11,52.714 l 0,0 c -9.757,-13.034 -19.724,-25.974 -27.551,-40.314 -15.119,-31.885 -22.868,-64.943 -13.048,-99.862 5.409,-17.975 90.143,7.52 84.735,25.495 z" id="path12414" inkscape:connector-curvature="0" style="fill:#782121;fill-opacity:1;fill-rule:nonzero;stroke:#f9f9f9;stroke-width:0.1;stroke-miterlimit:4;stroke-dasharray:none" transform="translate(-11264, -49152)"/><path d="m 11489.541,49798.827 c 41.038,5.916 82.532,7.608 123.911,9.311 75.445,1.875 150.888,3.308 226.31,6.035 62.789,2.721 125.598,5.079 188.453,4.871 25.143,-0.479 13.23,-0.107 35.742,-1.031 18.526,-0.527 21.013,86.805 2.487,87.333 l 0,0 c -24.599,0.42 -11.722,0.3 -38.635,0.301 -63.768,-0.784 -127.479,-3.563 -191.183,-6.456 -75.382,-2.836 -150.783,-4.157 -226.208,-5.236 -44.162,-1.316 -88.347,-2.879 -132.323,-7.374 -18.615,-2.428 -7.169,-90.182 11.446,-87.754 z" id="path12426" inkscape:connector-curvature="0" style="fill:#782121;fill-opacity:1;fill-rule:nonzero;stroke:#f9f9f9;stroke-width:0.1;stroke-miterlimit:4;stroke-dasharray:none" transform="translate(-11264, -49152)"/><path d="m 11816.295,49659.306 c -14.824,45.516 -33.961,89.378 -53.939,132.815 -29.941,63.803 -64.075,125.491 -99.304,186.489 -24.436,41.551 -49.148,83.031 -78.151,121.589 -3.255,3.825 -6.509,7.65 -9.763,11.476 -12.315,13.983 -78.234,-44.072 -65.919,-58.055 l 0,0 c 2.129,-2.287 4.257,-4.574 6.386,-6.861 27.703,-34.807 50.332,-73.236 73.346,-111.212 34.133,-58.358 67.016,-117.515 95.304,-178.971 18.018,-40.042 35.56,-80.474 47.424,-122.851 5.427,-17.95 90.043,7.632 84.616,25.581 z" id="path12428" inkscape:connector-curvature="0" style="fill:#782121;fill-opacity:1;fill-rule:nonzero;stroke:#f9f9f9;stroke-width:0.1;stroke-miterlimit:4;stroke-dasharray:none" transform="translate(-11264, -49152)"/><path d="m 11709.302,49917.894 c 28.295,15.852 57.175,30.607 86.21,45.045 45.474,22.48 93.019,40.231 140.805,57.062 37.732,12.786 75.836,24.416 113.593,37.126 17.459,5.989 -10.771,88.29 -28.23,82.301 l 0,0 c -37.838,-13.236 -76.112,-25.148 -114.048,-38.099 -50.971,-18.001 -101.72,-36.861 -150.442,-60.413 -29.628,-14.395 -58.976,-29.325 -88.293,-44.338 -16.691,-8.572 23.714,-87.255 40.405,-78.684 z" id="path12430" inkscape:connector-curvature="0" style="fill:#782121;fill-opacity:1;fill-rule:nonzero;stroke:#f9f9f9;stroke-width:0.1;stroke-miterlimit:4;stroke-dasharray:none" transform="translate(-11264, -49152)"/><path d="m 11967.917,49706.122 c 11.611,17.55 28.493,30.287 45.085,42.774 14.767,11.139 -37.741,80.754 -52.509,69.616 l 0,0 c -24.222,-18.3 -47.97,-37.53 -65.62,-62.587 -10.565,-15.495 62.479,-65.298 73.044,-49.803 z" id="path12432" inkscape:connector-curvature="0" style="fill:#501616;fill-opacity:1;fill-rule:nonzero;stroke:#f9f9f9;stroke-width:0.10000000000000001;stroke-miterlimit:4;stroke-dasharray:none" transform="translate(-11264, -49152)"/></svg>