<?xml version="1.0" encoding="UTF-8" standalone="no"?>
<svg
   xmlns:dc="http://purl.org/dc/elements/1.1/"
   xmlns:cc="http://creativecommons.org/ns#"
   xmlns:rdf="http://www.w3.org/1999/02/22-rdf-syntax-ns#"
   xmlns:svg="http://www.w3.org/2000/svg"
   xmlns="http://www.w3.org/2000/svg"
   xmlns:sodipodi="http://sodipodi.sourceforge.net/DTD/sodipodi-0.dtd"
   xmlns:inkscape="http://www.inkscape.org/namespaces/inkscape"
   width="1024"
   height="1024"
   id="U7A7F"
   version="1.1"
   inkscape:version="0.48.0 r9654"
   sodipodi:docname="U+7A7F.svg">
  <metadata
     id="metadata17">
    <rdf:RDF>
      <cc:Work
         rdf:about="">
        <dc:format>image/svg+xml</dc:format>
        <dc:type
           rdf:resource="http://purl.org/dc/dcmitype/StillImage" />
      </cc:Work>
    </rdf:RDF>
  </metadata>
  <defs
     id="defs15" />
  <sodipodi:namedview
     pagecolor="#ffffff"
     bordercolor="#666666"
     borderopacity="1"
     objecttolerance="10"
     gridtolerance="10"
     guidetolerance="10"
     inkscape:pageopacity="0"
     inkscape:pageshadow="2"
     inkscape:window-width="640"
     inkscape:window-height="480"
     id="namedview13"
     showgrid="false"
     inkscape:zoom="0.27441406"
     inkscape:cx="512"
     inkscape:cy="512"
     inkscape:window-x="0"
     inkscape:window-y="25"
     inkscape:window-maximized="0"
     inkscape:current-layer="U7A7F" />
  <path
     style="fill:#800000;fill-opacity:1;fill-rule:nonzero;stroke:#f9f9f9;stroke-width:0.1;stroke-miterlimit:4;stroke-dasharray:none"
     d="M 462.375 9.46875 C 440.86528 9.5407463 387.46706 46.117891 396.03125 59.59375 C 410.04585 79.93115 425.196 99.4367 439.0625 119.875 C 440.2427 121.9617 441.4448 124.06955 442.625 126.15625 C 452.096 142.04895 527.00225 97.3928 517.53125 81.5 C 515.29125 77.8474 513.0526 74.18385 510.8125 70.53125 C 497.3155 51.13465 482.80345 32.478 469.96875 12.625 C 468.56734 10.419845 465.89477 9.4569688 462.375 9.46875 z M 645.0625 132.09375 C 603.11173 132.22807 561.18063 134.11198 519.34375 137.65625 C 452.87705 143.15605 386.344 149.18535 320.5625 160.46875 C 284.37906 167.06918 247.96862 173.8752 213.34375 186.53125 C 192.37066 170.81054 150.88988 155.86368 145.375 167.8125 C 131.4328 200.8359 120.9194 235.16235 110.0625 269.28125 C 101.7675 296.29685 92.3765 323.00745 85.625 350.46875 C 83.1317 364.95145 83.95685 356.38905 84.78125 376.21875 C 88.085639 393.74797 167.23949 379.64035 171.1875 362.34375 C 171.1275 365.22432 171.08022 367.4243 171.0625 369.03125 C 176.21836 343.9977 185.18257 319.89096 192.25 295.375 C 198.03643 277.1388 203.64166 258.80326 210.125 240.78125 C 218.92045 258.86608 230.7295 274.02813 238.5625 270.53125 C 269.6341 257.06155 303.27585 250.91905 336.34375 244.53125 C 399.12095 233.13225 462.7103 227.3201 526.25 222.1875 C 578.8549 217.9112 631.61455 216.56075 684.34375 218.53125 C 712.36344 219.9644 740.31242 222.35321 768.28125 224.53125 C 756.50179 253.99125 743.57317 282.99612 731.21875 312.21875 C 729.14095 317.22575 727.0779 322.21185 725 327.21875 C 718.0256 344.21685 798.1506 377.09175 805.125 360.09375 C 807.0754 355.28275 809.01825 350.46725 810.96875 345.65625 C 824.58095 312.96825 839.103 280.6767 852.4375 247.875 C 862.8649 219.5492 874.103 187.6132 852.875 160.5625 C 848.2965 154.7281 841.26725 151.3114 835.46875 146.6875 C 817.12405 140.071 798.81675 138.24065 779.34375 138.03125 C 748.57915 136.09585 717.8059 133.73585 687 132.53125 C 673.01185 132.17507 659.04609 132.04898 645.0625 132.09375 z M 171.0625 369.03125 C 170.99993 369.33507 170.93644 369.6334 170.875 369.9375 C 171.04949 373.45907 171.01979 372.90462 171.0625 369.03125 z M 282.84375 274.75 C 281.27203 274.74919 279.91228 275.18449 278.78125 276.09375 C 253.31915 297.24035 229.6103 320.27625 207.125 344.53125 C 184.5697 369.30335 165.454 396.60905 153.8125 428.09375 C 152.8479 433.42065 151.87095 438.7357 150.90625 444.0625 C 149.4281 457.18275 192.96652 465.89703 219 463.21875 C 224.69028 488.72069 247.56884 527.9339 259.625 522.1875 C 272.75469 516.31903 286.35587 511.85483 300.21875 508.15625 C 271.80929 539.44389 244.27746 571.52501 215.96875 602.90625 C 201.19435 620.46135 170.98475 647.1322 181.53125 674.25 C 186.60835 687.3047 198.7182 696.34545 207.3125 707.40625 C 215.3472 709.18065 223.21985 711.9213 231.40625 712.75 C 249.64035 714.596 288.1823 703.23725 307.1875 699.46875 C 339.77641 693.31319 372.50717 687.91136 405.28125 682.84375 C 392.15059 693.12132 379.44833 703.97202 366.875 714.875 C 323.1466 754.1463 282.97255 797.1313 244.21875 841.25 C 225.51685 862.6716 208.052 885.0881 190.8125 907.6875 C 179.8173 922.4094 249.1923 974.2219 260.1875 959.5 C 275.6599 938.3032 291.44995 917.3287 308.59375 897.4375 C 344.42955 856.1279 381.83055 816.0794 422.78125 779.75 C 447.0848 758.9579 471.77194 737.69902 500.78125 723.71875 C 499.28666 748.61274 497.78259 773.51595 496.21875 798.40625 C 493.94445 840.82695 491.03 883.34645 492.625 925.84375 C 494.078 939.95875 492.9568 932.98595 496 946.71875 C 501.1462 964.62425 585.55245 940.37425 580.40625 922.46875 C 580.47795 926.32785 580.638 925.7778 579.625 921 C 576.4704 881.8831 579.6566 842.4972 580.9375 803.375 C 583.62586 754.61502 586.36792 705.86913 589.34375 657.125 C 594.74678 656.37875 600.16096 655.66359 605.5625 654.90625 C 636.935 650.19165 668.3533 645.838 699.875 642.25 C 707.6757 641.4822 715.5134 641.11795 723.3125 640.34375 C 741.8193 638.09905 731.22545 550.84905 712.71875 553.09375 C 704.91125 554.50985 696.8847 554.3888 689.0625 555.75 C 657.70233 560.01335 626.38029 564.68119 595.125 569.65625 C 597.69644 534.74931 600.42501 499.80747 605.96875 465.25 C 630.0697 464.06447 654.20927 463.48547 678.34375 463.40625 C 681.86355 463.46995 685.38635 463.52975 688.90625 463.59375 C 707.38065 463.61385 707.4741 376.52 689 376.5 C 686.18667 376.5393 683.3758 376.58571 680.5625 376.625 C 694.51681 358.17051 705.20485 335.1705 697.15625 329.46875 C 676.25055 314.76465 655.5748 299.37755 639.1875 279.53125 C 626.9782 265.53855 561.0407 323.10105 573.25 337.09375 C 587.0185 352.50962 602.38631 366.18848 618.53125 378.9375 C 591.70608 380.32899 564.92265 382.23774 538.1875 384.9375 C 472.6792 391.8675 407.32015 400.3348 342.40625 411.625 C 310.13992 417.59941 277.62972 423.63072 246.4375 433.9375 C 253.66458 423.01266 263.12036 413.15088 270.59375 403.21875 C 290.08725 382.04075 310.748 361.88915 333.625 344.34375 C 346.97108 333.61451 301.39 274.75955 282.84375 274.75 z M 517.375 472.59375 C 513.51218 508.92321 511.31338 545.42171 509 581.875 C 484.49943 585.22795 459.99706 588.52254 435.5 591.90625 C 398.78517 597.21615 362.07123 602.64376 325.46875 608.6875 C 339.67388 592.48123 354.01437 576.37879 368.6875 560.59375 C 390.4967 537.92735 412.7144 515.4233 437.9375 496.5 C 441.12399 494.06136 441.14457 488.90922 439.0625 482.4375 C 465.11097 478.7227 491.21942 475.48908 517.375 472.59375 z M 1311.9375 607.25 C 1252.4766 607.6995 1193.4047 614.32175 1134.875 624.78125 C 1092.7454 631.82405 1050.696 639.5148 1008.25 644.4375 C 989.8197 646.7966 1000.9448 733.6716 1019.375 731.3125 C 1062.7793 724.4189 1105.9632 716.36005 1149.25 708.78125 C 1202.9495 698.94945 1257.2203 692.50865 1311.8438 693.15625 C 1332.5203 694.48925 1323.0788 693.40035 1340.1875 696.03125 C 1358.4383 698.32345 1369.2508 612.2921 1351 610 C 1325.9593 607.3065 1338.9523 608.2717 1311.9375 607.25 z M 504.03125 668.71875 C 503.70847 674.26155 503.38817 679.80113 503.0625 685.34375 C 501.193 680.08586 498.96519 674.7734 496.5 669.71875 C 499.00924 669.37876 501.52188 669.0578 504.03125 668.71875 z M 265.4375 678.46875 C 262.81802 683.47569 260.52094 685.02104 265.4375 678.46875 z "
     id="path21203" />
</svg>
