<?xml version="1.0" encoding="UTF-8" standalone="no"?>
<svg
   xmlns:dc="http://purl.org/dc/elements/1.1/"
   xmlns:cc="http://creativecommons.org/ns#"
   xmlns:rdf="http://www.w3.org/1999/02/22-rdf-syntax-ns#"
   xmlns:svg="http://www.w3.org/2000/svg"
   xmlns="http://www.w3.org/2000/svg"
   xmlns:sodipodi="http://sodipodi.sourceforge.net/DTD/sodipodi-0.dtd"
   xmlns:inkscape="http://www.inkscape.org/namespaces/inkscape"
   width="1024"
   height="1024"
   id="U7B14"
   version="1.1"
   inkscape:version="0.48.0 r9654"
   sodipodi:docname="U+7B14.svg">
  <metadata
     id="metadata17">
    <rdf:RDF>
      <cc:Work
         rdf:about="">
        <dc:format>image/svg+xml</dc:format>
        <dc:type
           rdf:resource="http://purl.org/dc/dcmitype/StillImage" />
      </cc:Work>
    </rdf:RDF>
  </metadata>
  <defs
     id="defs15" />
  <sodipodi:namedview
     pagecolor="#ffffff"
     bordercolor="#666666"
     borderopacity="1"
     objecttolerance="10"
     gridtolerance="10"
     guidetolerance="10"
     inkscape:pageopacity="0"
     inkscape:pageshadow="2"
     inkscape:window-width="640"
     inkscape:window-height="480"
     id="namedview13"
     showgrid="false"
     inkscape:zoom="0.27441406"
     inkscape:cx="512"
     inkscape:cy="512"
     inkscape:window-x="0"
     inkscape:window-y="25"
     inkscape:window-maximized="0"
     inkscape:current-layer="U7B14" />
  <path
     style="fill:#aa0000;fill-opacity:1;fill-rule:nonzero;stroke:#f9f9f9;stroke-width:0.1;stroke-miterlimit:4;stroke-dasharray:none"
     d="M 291.09375 122.78125 C 289.52476 122.8679 288.17219 123.37316 287.09375 124.34375 C 254.45545 157.44895 231.25625 198.1763 208.15625 238.125 C 178.82165 290.5927 149.98205 343.32425 121.65625 396.34375 C 108.00335 422.58685 93.2482 448.35585 83.125 476.21875 C 77.3619 493.83275 160.39315 520.989 166.15625 503.375 C 171.65485 479.3852 188.1543 458.8324 197.3125 436.3125 C 214.82284 402.78472 232.68362 369.44295 250.9375 336.3125 C 258.87085 345.73789 266.80833 351.43561 271.9375 348.46875 C 281.25583 343.89013 290.93118 340.15108 300.78125 336.9375 C 303.93065 360.20256 314.24241 381.04066 329.78125 402.125 C 348.59265 420.7428 338.69195 412.20575 359.46875 427.71875 C 374.45865 438.43695 424.9899 367.7807 410 357.0625 C 401.6791 351.7481 405.57785 354.60005 398.28125 348.65625 C 390.38865 340.24725 385.11705 330.9119 387.21875 318.9375 C 387.43057 318.01398 387.38706 317.08223 387.15625 316.15625 C 414.19657 310.71648 441.33745 305.78927 468.6875 302.21875 C 472.3251 301.92865 475.95615 301.63375 479.59375 301.34375 C 497.94555 299.52945 489.38305 213.02935 471.03125 214.84375 C 466.19665 215.39125 461.36585 215.92125 456.53125 216.46875 C 414.43125 222.83725 372.6842 231.2962 331 239.9375 C 321.43283 242.15401 311.83671 244.37527 302.28125 246.78125 C 314.94137 226.30086 328.66783 206.50898 345.65625 189.4375 C 358.38181 177.98449 309.60781 121.75874 291.09375 122.78125 z M 628.5 132.53125 C 626.05373 132.62939 624.12756 133.40191 622.875 135 C 599.225 166.0976 573.6935 195.72315 548.3125 225.40625 C 526.8657 250.17605 505.7297 275.18885 484.8125 300.40625 C 473.243 314.51615 539.743 369.07875 551.3125 354.96875 C 569.87369 332.0564 588.78132 309.4131 608.125 287.15625 C 608.07186 288.0256 608.18155 288.87623 608.5 289.6875 C 620.4202 318.7099 637.63245 344.7604 657.09375 369.1875 C 671.33955 385.3018 664.20615 377.54615 678.40625 392.40625 C 691.20735 405.66265 753.70725 345.319 740.90625 332.0625 C 729.91665 320.8342 735.3422 326.60905 724.625 314.78125 C 711.01906 298.15157 698.96103 280.31332 691.09375 260.21875 C 696.24882 258.97657 701.40133 257.7698 706.5625 256.59375 C 721.2141 253.29745 736.05355 251.2467 750.96875 249.6875 C 769.25045 247.5218 759.06285 161.3343 740.78125 163.5 C 722.93189 165.8046 705.124 168.47319 687.5625 172.5 C 674.76312 154.8275 642.87348 131.95459 628.5 132.53125 z M 587.96875 352.96875 C 587.40028 352.97102 586.83551 353.07883 586.28125 353.25 C 544.80105 367.7663 505.92275 388.42665 467.40625 409.34375 C 417.26065 437.26235 368.32555 467.29145 320.03125 498.28125 C 292.16785 516.49425 305.8475 507.45305 279 525.40625 C 267.59954 533.08679 292.13224 575.49044 311.34375 591.46875 C 301.65153 593.31949 291.97127 595.26994 282.3125 597.3125 C 245.2898 605.1106 208.06795 612.9197 172.53125 626.1875 C 155.35905 633.3155 188.98405 714.2531 206.15625 707.125 C 236.46545 694.875 268.631 688.1384 300.4375 681.0625 C 343.7841 671.37465 387.57906 664.11032 431.5625 658.1875 C 429.56444 667.17615 427.67876 676.19445 425.875 685.21875 C 425.65875 686.30108 425.42644 687.38639 425.21875 688.46875 C 379.00751 691.85592 332.82978 695.46357 286.71875 700.03125 C 241.43135 704.89265 196.25435 710.8007 151.03125 716.1875 C 132.58895 718.3413 142.7452 805.2788 161.1875 803.125 C 206.0257 795.8973 251.04555 789.82925 296.15625 784.59375 C 336.95499 780.22166 377.83624 776.79414 418.75 773.71875 C 419.72795 792.69778 422.47925 811.63605 427.28125 830.46875 C 443.82685 878.69545 475.7662 901.62095 521.5625 919.21875 C 565.9483 933.02525 612.4523 936.94415 658.625 939.34375 C 704.0486 941.34415 749.36545 936.9989 794.46875 932.1875 C 816.87365 929.6453 839.3349 927.9738 861.8125 926.25 C 872.2666 925.0843 866.6117 925.9542 878.75 923.375 C 896.7996 918.8102 875.2997 833.71645 857.25 838.28125 C 857.5397 838.33995 857.80405 838.40975 858.09375 838.46875 C 856.78345 838.66375 855.4978 838.8675 854.1875 839.0625 C 831.0768 841.3508 807.9297 843.5607 784.875 846.375 C 744.4562 851.0836 703.85645 855.34 663.09375 853.5625 C 625.63765 851.6107 587.8929 848.57835 551.6875 838.15625 C 534.2411 832.06325 518.1089 825.8217 510.6875 807.5 C 506.56613 794.40036 504.57592 781.04282 504.0625 767.59375 C 504.99932 767.52819 505.93819 767.47188 506.875 767.40625 C 563.6545 763.41775 620.4461 759.9496 677.1875 755.4375 C 700.544 753.2898 689.3683 754.4719 710.75 752 C 729.0093 749.6644 718.0092 663.57075 699.75 665.90625 C 681.0434 668.56875 691.06375 667.2835 669.71875 669.6875 C 617.89896 674.64249 565.94871 678.30339 514.03125 682.0625 C 516.49714 670.68486 519.15999 659.36472 522.15625 648.125 C 549.69842 645.56471 577.26046 643.3444 604.90625 642.6875 C 623.34555 641.8938 619.6269 554.98755 601.1875 555.78125 C 586.16521 556.67324 571.14798 557.84497 556.15625 559.15625 C 564.6172 542.77586 574.22954 526.96142 587.3125 513.84375 C 595.95364 505.77238 574.87242 476.93375 554.90625 460.28125 C 573.46206 451.25566 592.42659 443.06326 612.125 436.84375 C 629.30704 431.53752 605.59142 352.89828 587.96875 352.96875 z M 495.15625 491.75 C 485.35883 507.59315 476.90431 524.33178 468.875 541.15625 C 464.62382 550.41621 460.76564 559.81968 457.1875 569.3125 C 418.98961 573.99751 380.86196 579.25242 342.9375 585.75 C 347.08149 582.95084 350.66506 580.58762 366.40625 570.15625 C 408.56857 542.79863 451.3142 516.33998 495.15625 491.75 z "
     id="path20065" />
</svg>
