<?xml version="1.0" encoding="UTF-8" standalone="no"?>
<svg
   xmlns:dc="http://purl.org/dc/elements/1.1/"
   xmlns:cc="http://creativecommons.org/ns#"
   xmlns:rdf="http://www.w3.org/1999/02/22-rdf-syntax-ns#"
   xmlns:svg="http://www.w3.org/2000/svg"
   xmlns="http://www.w3.org/2000/svg"
   xmlns:sodipodi="http://sodipodi.sourceforge.net/DTD/sodipodi-0.dtd"
   xmlns:inkscape="http://www.inkscape.org/namespaces/inkscape"
   width="1024"
   height="1024"
   id="U7B97"
   version="1.1"
   inkscape:version="0.48.0 r9654"
   sodipodi:docname="U+7B97.svg">
  <metadata
     id="metadata21">
    <rdf:RDF>
      <cc:Work
         rdf:about="">
        <dc:format>image/svg+xml</dc:format>
        <dc:type
           rdf:resource="http://purl.org/dc/dcmitype/StillImage" />
      </cc:Work>
    </rdf:RDF>
  </metadata>
  <defs
     id="defs19" />
  <sodipodi:namedview
     pagecolor="#ffffff"
     bordercolor="#666666"
     borderopacity="1"
     objecttolerance="10"
     gridtolerance="10"
     guidetolerance="10"
     inkscape:pageopacity="0"
     inkscape:pageshadow="2"
     inkscape:window-width="640"
     inkscape:window-height="480"
     id="namedview17"
     showgrid="false"
     inkscape:zoom="0.27441406"
     inkscape:cx="512"
     inkscape:cy="512"
     inkscape:window-x="0"
     inkscape:window-y="25"
     inkscape:window-maximized="0"
     inkscape:current-layer="U7B97" />
  <path
     style="fill:#782121;fill-opacity:1;fill-rule:nonzero;stroke:#f9f9f9;stroke-width:0.1;stroke-miterlimit:4;stroke-dasharray:none"
     d="M 537.34375 58.3125 C 531.83279 58.337183 527.85809 59.736437 526.46875 62.96875 C 512.42435 98.79075 505.13915 136.69825 498.28125 174.40625 C 491.19785 215.21725 485.8717 256.34475 483.75 297.71875 C 483.6511 315.77175 483.4276 307.1365 484.1875 323.5625 C 485.3838 342.2235 573.35255 336.5975 572.15625 317.9375 C 571.20355 307.8995 571.5843 313.40575 571.25 301.34375 C 572.01826 275.51913 574.56751 249.81773 578.1875 224.25 C 605.31656 211.51853 634.33497 203.83263 663.34375 196.78125 C 696.63845 189.38825 730.05465 182.42525 763.53125 175.90625 C 767.14695 175.21725 770.7593 174.53175 774.375 173.84375 C 792.6611 170.12975 775.1611 83.94325 756.875 87.65625 L 746.0625 89.96875 C 711.6405 97.24875 677.2163 104.50325 642.875 112.15625 C 627.99881 115.74543 613.15465 119.5389 598.46875 123.8125 C 601.12025 115.03778 604.12196 106.3697 607.71875 97.90625 C 613.73913 83.899562 561.22456 58.205542 537.34375 58.3125 z M 181.125 93.46875 C 178.6512 93.409945 176.64775 94.062609 175.28125 95.59375 C 145.69835 131.68075 132.1107 176.27425 120.625 220.65625 C 110.0529 266.09225 104.91345 312.40175 104.03125 358.96875 C 103.88005 377.40775 190.81755 378.1275 190.96875 359.6875 C 190.76246 322.22644 194.74679 284.97325 202.8125 248.375 C 209.98332 262.27923 218.51544 272.34347 225.09375 269.84375 C 247.94573 261.43382 271.95384 257.11129 295.96875 253.3125 C 275.82642 263.05802 257.57516 277.2227 261.75 285.75 C 277.6322 314.315 301.428 336.71675 326.3125 357.34375 C 331.0018 360.70775 335.6857 364.0725 340.375 367.4375 C 355.5756 378.1445 406.04445 306.48825 390.84375 295.78125 C 387.86905 293.74825 384.9122 291.7205 381.9375 289.6875 C 366.6238 277.2455 351.35215 264.0675 341.28125 246.8125 C 341.20636 246.65953 341.11774 246.51885 341.03125 246.375 C 374.64912 241.26723 408.28674 236.23005 441.96875 231.5625 C 459.13395 229.3775 451.28435 230.19225 465.53125 229.03125 C 484.09135 227.12925 475.1226 139.62925 456.5625 141.53125 C 439.0706 143.60125 448.15205 142.3875 429.34375 145.1875 C 386.58765 151.7655 343.84045 158.4605 301.03125 164.6875 C 275.98549 168.43588 250.79299 172.08055 226.125 177.875 C 230.34422 169.63322 235.27129 161.7751 241.25 154.5 C 252.37729 142.03214 201.26877 93.947593 181.125 93.46875 z M 688.6875 210.8125 C 666.21591 211.14569 612.82493 244.55091 620.6875 258.28125 C 638.3728 288.85225 659.8434 316.8865 682.4375 343.9375 C 693.9685 357.8475 706.38685 370.96275 718.78125 384.09375 C 731.56945 397.53075 794.9133 337.2495 782.125 323.8125 C 770.8969 312.1235 759.64115 300.45175 749.28125 287.96875 C 729.94995 264.95375 711.40045 241.06775 697.40625 214.34375 C 695.95022 211.80109 692.8489 210.7508 688.6875 210.8125 z M 582.25 343.25 C 576.96835 343.23777 571.6611 343.38888 566.34375 343.65625 C 527.31975 345.54125 488.65445 350.588 450.03125 356.375 C 420.62315 360.19 391.13935 363.58125 361.46875 364.40625 C 342.72995 365.53725 348.0737 453.881 366.8125 452.75 C 398.5038 450.606 430.0322 446.97575 461.5 442.71875 C 497.5637 437.27475 533.653 432.2855 570.125 430.9375 C 579.77301 431.34134 590.44161 430.53768 600.40625 431.84375 C 600.50517 432.53034 600.56909 433.16809 600.59375 433.65625 C 600.81785 438.09025 600.97795 442.53275 601.15625 446.96875 C 602.55105 493.78675 600.4083 540.6 598.625 587.375 C 597.55472 611.32915 596.74844 635.31446 596.4375 659.28125 C 590.56194 659.56067 584.71194 659.89851 578.84375 660.34375 C 528.61965 664.26875 478.5297 670.11275 429 679.46875 C 418.6403 681.4297 408.28455 683.42891 397.9375 685.5 C 394.85189 677.05237 391.89895 668.52846 389.53125 659.84375 C 389.42829 659.4367 389.3208 659.03224 389.21875 658.625 C 413.48747 660.92101 437.92127 661.42465 462.28125 661.96875 C 480.66595 662.29675 471.73965 662.14575 489.03125 662.34375 C 507.66555 662.42275 508.04055 574.58 489.40625 574.5 C 473.08875 574.561 481.54125 574.5735 464.03125 574.4375 C 437.51515 573.9695 410.7606 573.778 384.5625 569.25 C 380.71661 568.53997 377.00301 571.77331 373.65625 577.34375 C 373.30379 575.03004 372.93866 572.72119 372.59375 570.40625 C 394.08407 563.84018 416.63315 561.82552 439 560.4375 C 464.6496 559.2175 490.2941 560.22025 515.8125 562.90625 C 534.4175 564.63825 542.605 476.9185 524 475.1875 C 493.8942 472.6925 463.66085 471.7965 433.46875 473.3125 C 408.59556 474.9171 383.7193 477.38224 359.4375 482.90625 C 355.65736 459.24261 351.58317 435.62464 346.6875 412.15625 C 342.3938 393.90825 256.36255 414.15825 260.65625 432.40625 C 270.33625 470.83525 276.11275 510.0665 282.15625 549.1875 C 288.38485 593.0985 294.5444 637.0665 304.5 680.3125 C 306.66319 689.20173 309.30172 697.95261 312.09375 706.65625 C 311.93625 706.70585 311.78246 706.76275 311.625 706.8125 C 293.9362 713.0245 323.21745 796.3985 340.90625 790.1875 C 357.49669 784.33328 374.44364 779.70604 391.5625 775.6875 C 383.30173 798.40587 377.13835 821.78378 371.5 845.28125 C 363.07067 845.72359 354.62159 846.13707 346.1875 846.5 C 299.4433 848.177 252.67495 849.1885 205.90625 847.8125 C 187.17495 847.6905 186.5812 936.002 205.3125 936.125 C 253.4135 935.452 301.4991 934.3495 349.5625 932.3125 C 350.58454 932.26207 351.60303 932.20771 352.625 932.15625 C 349.19186 950.21461 346.11993 968.34382 343.625 986.5625 C 343.1447 991.6875 342.6678 996.8125 342.1875 1001.9375 C 340.6457 1020.4795 428.05205 1027.7617 429.59375 1009.2188 C 429.85555 1005.4168 430.1131 1001.6145 430.375 997.8125 C 433.26155 973.86277 437.54299 950.11565 442.4375 926.5 C 471.97997 924.35169 501.50653 922.00546 531.03125 919.625 C 534.11296 956.55558 538.88949 993.35079 544.15625 1030.0312 C 546.93155 1048.3183 633.1504 1035.2245 630.375 1016.9375 C 624.84289 982.45774 620.01264 947.82936 617.0625 913.03125 C 649.91648 910.70787 682.79653 908.61734 715.6875 906.875 C 736.0166 905.514 756.4231 905.572 776.75 904.25 C 795.4494 902.498 787.1994 814.34175 768.5 816.09375 C 749.3643 818.98675 729.7111 817.89775 710.5 820.09375 C 678.29297 822.22886 646.11843 824.60275 613.9375 827.09375 C 614.19112 810.05479 615.23545 793.04424 617.71875 776.1875 C 643.80841 780.23706 689.14839 773.21069 688.1875 759.75 C 686.9835 747.253 685.19615 734.81825 684.40625 722.28125 C 682.00095 678.46625 682.84155 634.574 684.78125 590.75 C 686.73775 541.962 689.18945 493.1565 688.65625 444.3125 C 687.81945 406.8475 686.5465 374.35275 649.25 354.46875 C 627.63222 346.24544 605.13717 343.30301 582.25 343.25 z M 609.4375 433.78125 C 611.23467 434.35081 612.99629 435.01441 614.6875 435.84375 C 612.61266 435.56788 610.91461 434.82131 609.4375 433.78125 z M 598.46875 746.5 C 598.61286 748.10534 598.76731 749.70697 598.90625 751.3125 C 594.32215 749.72984 589.27342 748.34672 584.03125 747.21875 C 584.36466 747.19708 584.69783 747.1777 585.03125 747.15625 C 589.50205 746.86626 593.99441 746.6422 598.46875 746.5 z M 532.15625 751.59375 C 532.08001 751.83713 532.01322 752.08754 531.96875 752.34375 C 528.13609 779.45768 527.0947 806.759 527.28125 834.09375 C 505.95002 835.86527 484.62445 837.59097 463.28125 839.21875 C 466.28764 828.91549 469.66241 818.73089 473.625 808.75 C 478.76433 796.51292 439.5392 775.83071 413.5 770.84375 C 424.11827 768.62208 434.75229 766.52585 445.375 764.4375 C 474.10434 758.78124 503.06761 754.65178 532.15625 751.59375 z "
     id="path11472" />
</svg>
