<?xml version="1.0" encoding="utf-8" ?>

<!DOCTYPE svg PUBLIC "-//W3C//DTD SVG 1.1//EN" 
  "http://www.w3.org/Graphics/SVG/1.1/DTD/svg11.dtd">
<svg 
    xmlns="http://www.w3.org/2000/svg"
    xmlns:xlink="http://www.w3.org/1999/xlink"
    xmlns:sodipodi="http://sodipodi.sourceforge.net/DTD/sodipodi-0.dtd"
    xmlns:inkscape="http://www.inkscape.org/namespaces/inkscape"
    width="1024" height="1024" id="U7B49">
<path d="m 10535.813,8375.6873 c -14.22,29.6564 -25.364,60.6868 -36.896,91.4557 -17.168,45.6347 -34.435,91.2336 -49.99,137.4486 -5.935,17.2629 -87.312,-10.7131 -81.378,-27.9759 l 0,0 c 16.352,-46.6336 33.783,-92.8726 50.829,-139.2547 12.357,-33.8652 24.468,-67.8763 39.048,-100.8674 8.314,-16.6285 86.702,22.5652 78.387,39.1937 z" id="path21949" inkscape:connector-curvature="0" style="fill:#800000;fill-opacity:1;fill-rule:nonzero;stroke:#f9f9f9;stroke-width:0.1;stroke-miterlimit:4;stroke-dasharray:none" transform="translate(-10240, -8192)"/><path d="m 10464.77,8458.0272 c 33.942,-12.7164 69.29,-21.2304 104.503,-29.5848 30.681,-6.9501 61.619,-12.6809 92.532,-18.4838 18.137,-3.2039 33.24,82.2949 15.103,85.4987 l 0,0 c -29.345,4.8471 -58.642,10.0778 -87.651,16.674 -30.195,7.2603 -60.634,14.5689 -89.472,26.271 -17.05,7.4278 -52.065,-72.9474 -35.015,-80.3751 z" id="path21951" inkscape:connector-curvature="0" style="fill:#800000;fill-opacity:1;fill-rule:nonzero;stroke:#f9f9f9;stroke-width:0.1;stroke-miterlimit:4;stroke-dasharray:none" transform="translate(-10240, -8192)"/><path d="m 10605.556,8475.4529 c 4.13,24.5706 18.267,44.291 34.949,61.9998 17.483,16.6868 38.186,28.7684 60.804,36.9152 17.123,6.6704 -14.321,87.3897 -31.445,80.7193 l 0,0 c -34.571,-14.0656 -66.706,-32.628 -93.1,-59.5018 -27.619,-30.8814 -50.019,-65.0995 -57.693,-106.5789 -2.876,-18.3462 83.609,-31.8998 86.485,-13.5536 z" id="path21953" inkscape:connector-curvature="0" style="fill:#800000;fill-opacity:1;fill-rule:nonzero;stroke:#f9f9f9;stroke-width:0.1;stroke-miterlimit:4;stroke-dasharray:none" transform="translate(-10240, -8192)"/><path d="m 10843.026,8339.1069 c 6.004,38.163 -2.135,75.8244 -11.959,112.5546 -8.773,30.1851 -21.193,59.0597 -33.979,87.7046 -7.498,16.6507 -85.99,-18.6919 -78.493,-35.3426 l 0,0 c 11.061,-24.3266 21.781,-48.8675 29.232,-74.5948 6.306,-23.6548 12.842,-48.1646 9.316,-72.8411 -3.709,-18.2186 82.175,-35.6994 85.883,-17.4807 z" id="path21955" inkscape:connector-curvature="0" style="fill:#800000;fill-opacity:1;fill-rule:nonzero;stroke:#f9f9f9;stroke-width:0.1;stroke-miterlimit:4;stroke-dasharray:none" transform="translate(-10240, -8192)"/><path d="m 10771.364,8432.0234 c 30.953,-20.2287 65.54,-33.3579 100.352,-45.1921 42.105,-13.4097 84.915,-24.4374 127.608,-35.7819 4.531,-1.2279 9.062,-2.4557 13.593,-3.6836 17.83,-4.5945 39.489,79.4577 21.659,84.0523 l 0,0 c -4.569,1.117 -9.138,2.234 -13.707,3.3511 -40.71,10.1304 -81.397,20.5292 -121.319,33.4783 -27.196,9.3604 -54.575,19.3546 -78.383,35.8793 -15.295,10.5649 -65.098,-61.5385 -49.803,-72.1034 z" id="path21957" inkscape:connector-curvature="0" style="fill:#800000;fill-opacity:1;fill-rule:nonzero;stroke:#f9f9f9;stroke-width:0.1;stroke-miterlimit:4;stroke-dasharray:none" transform="translate(-10240, -8192)"/><path d="m 10924.043,8418.1031 c 6.276,25.1999 20.9,46.7615 36.003,67.4281 17.984,23.1357 38.384,44.2114 57.789,66.1282 12.098,13.8343 -53.117,70.8655 -65.215,57.0312 l 0,0 c -20.801,-24.1123 -42.942,-47.0876 -62.316,-72.4088 -21.75,-29.9868 -41.651,-61.5047 -51.465,-97.6384 -4.357,-18.0746 80.847,-38.6149 85.204,-20.5403 z" id="path21959" inkscape:connector-curvature="0" style="fill:#800000;fill-opacity:1;fill-rule:nonzero;stroke:#f9f9f9;stroke-width:0.1;stroke-miterlimit:4;stroke-dasharray:none" transform="translate(-10240, -8192)"/><path d="m 10549.124,8695.8924 c 40.718,-7.8655 81.903,-12.9551 123.069,-17.7962 60.465,-6.4712 121.125,-10.8369 181.74,-15.6039 23.969,-1.8889 47.945,-3.8785 71.696,-7.6811 18.247,-2.5771 30.395,83.4411 12.148,86.0181 l 0,0 c -25.751,3.2568 -51.626,5.2433 -77.526,6.9276 -59.306,4.1244 -118.639,8.2301 -177.709,15.0507 -38.005,4.8248 -76.128,9.7208 -113.471,18.458 -18.111,4.2314 -38.058,-81.1418 -19.947,-85.3732 z" id="path21961" inkscape:connector-curvature="0" style="fill:#800000;fill-opacity:1;fill-rule:nonzero;stroke:#f9f9f9;stroke-width:0.1;stroke-miterlimit:4;stroke-dasharray:none" transform="translate(-10240, -8192)"/><path d="m 10862.646,8586.8741 c -11.88,35.7283 -16.48,73.391 -21.698,110.5311 -6.734,50.1942 -12.794,100.4663 -22.281,150.2314 -3.507,17.9123 -87.946,1.3797 -84.439,-16.5326 l 0,0 c 9.693,-48.0788 15.556,-96.7575 21.909,-145.3668 5.796,-42.9947 11.35,-86.3128 24.005,-127.9473 6.17,-17.5017 88.674,11.5824 82.504,29.0842 z" id="path21963" inkscape:connector-curvature="0" style="fill:#800000;fill-opacity:1;fill-rule:nonzero;stroke:#f9f9f9;stroke-width:0.1;stroke-miterlimit:4;stroke-dasharray:none" transform="translate(-10240, -8192)"/><path d="m 10404.622,8937.9707 c 40.114,-15.1774 82.168,-24.2579 123.907,-33.6677 67.604,-14.7661 135.469,-28.3108 203.518,-40.8552 59.015,-10.8734 118.39,-19.6028 177.793,-28.0305 33.323,-4.5103 66.576,-9.5425 99.4,-16.8912 10.6,-2.7576 5.815,-1.365 14.391,-4.0415 17.854,-5.0467 41.645,79.1191 23.79,84.1658 l 0,0 c -12.529,3.3026 -5.872,1.6429 -19.988,4.9118 -35.05,7.1961 -70.442,12.4085 -105.945,16.8369 -58.198,7.6947 -116.38,15.6832 -174.141,26.2475 -66.819,12.2577 -133.419,25.7104 -199.66,40.8012 -36.555,8.6136 -73.632,16.6184 -108.43,31.0697 -17.086,7.3472 -51.721,-73.1996 -34.635,-80.5468 z" id="path21965" inkscape:connector-curvature="0" style="fill:#800000;fill-opacity:1;fill-rule:nonzero;stroke:#f9f9f9;stroke-width:0.1;stroke-miterlimit:4;stroke-dasharray:none" transform="translate(-10240, -8192)"/><path d="m 10634.954,9012.6862 c 41.475,-0.5107 82.68,-6.5742 123.719,-12.0937 56.222,-7.8597 112.26,-16.9521 168.299,-26.0041 22.048,-3.5974 44.142,-6.9141 66.083,-11.1236 18.203,-3.1407 33.008,82.6685 14.805,85.8092 l 0,0 c -22.514,3.5012 -45.098,6.5255 -67.624,9.9525 -56.649,8.6039 -113.229,17.6766 -169.936,25.902 -45.354,6.3727 -90.799,13.0823 -136.605,15.0719 -18.565,-0.2671 -17.305,-87.7813 1.259,-87.5142 z" id="path21967" inkscape:connector-curvature="0" style="fill:#800000;fill-opacity:1;fill-rule:nonzero;stroke:#f9f9f9;stroke-width:0.1;stroke-miterlimit:4;stroke-dasharray:none" transform="translate(-10240, -8192)"/><path d="m 10910.517,8915.4972 c -8.469,37.4672 -12.649,75.7073 -16.506,113.8682 -4.553,44.0874 -4.944,88.4025 -4.192,132.6667 0.212,21.826 0.29,11.1407 -0.189,32.056 -0.606,18.4083 -87.384,15.5493 -86.777,-2.859 l 0,0 c 0.801,-17.6247 0.535,-8.2026 0.655,-28.2698 -0.227,-47.4024 0.523,-94.8411 5.233,-142.0531 4.016,-41.2261 8.608,-82.4153 16.071,-123.1848 3.771,-18.1808 89.476,-0.405 85.705,17.7758 z" id="path21969" inkscape:connector-curvature="0" style="fill:#800000;fill-opacity:1;fill-rule:nonzero;stroke:#f9f9f9;stroke-width:0.1;stroke-miterlimit:4;stroke-dasharray:none" transform="translate(-10240, -8192)"/><path d="m 10653.487,9097.0725 c 25.037,13.1974 52.621,20.6952 79.552,28.9833 5.798,1.8779 11.595,3.7558 17.392,5.6336 17.43,5.7002 -9.44,87.8655 -26.87,82.1654 l 0,0 c -5.313,-1.7553 -10.625,-3.5105 -15.937,-5.2658 -33.037,-10.1797 -66.59,-19.6695 -97.539,-35.3719 -16.153,-9.207 27.249,-85.3516 43.402,-76.1446 z" id="path21971" inkscape:connector-curvature="0" style="fill:#800000;fill-opacity:1;fill-rule:nonzero;stroke:#f9f9f9;stroke-width:0.1;stroke-miterlimit:4;stroke-dasharray:none" transform="translate(-10240, -8192)"/></svg>