<?xml version="1.0" encoding="UTF-8" standalone="no"?>
<svg
   xmlns:dc="http://purl.org/dc/elements/1.1/"
   xmlns:cc="http://creativecommons.org/ns#"
   xmlns:rdf="http://www.w3.org/1999/02/22-rdf-syntax-ns#"
   xmlns:svg="http://www.w3.org/2000/svg"
   xmlns="http://www.w3.org/2000/svg"
   xmlns:sodipodi="http://sodipodi.sourceforge.net/DTD/sodipodi-0.dtd"
   xmlns:inkscape="http://www.inkscape.org/namespaces/inkscape"
   width="1024"
   height="1024"
   id="U7B2C"
   version="1.1"
   inkscape:version="0.48.0 r9654"
   sodipodi:docname="U+7B2C.svg">
  <metadata
     id="metadata19">
    <rdf:RDF>
      <cc:Work
         rdf:about="">
        <dc:format>image/svg+xml</dc:format>
        <dc:type
           rdf:resource="http://purl.org/dc/dcmitype/StillImage" />
      </cc:Work>
    </rdf:RDF>
  </metadata>
  <defs
     id="defs17" />
  <sodipodi:namedview
     pagecolor="#ffffff"
     bordercolor="#666666"
     borderopacity="1"
     objecttolerance="10"
     gridtolerance="10"
     guidetolerance="10"
     inkscape:pageopacity="0"
     inkscape:pageshadow="2"
     inkscape:window-width="640"
     inkscape:window-height="480"
     id="namedview15"
     showgrid="false"
     inkscape:zoom="0.27441406"
     inkscape:cx="512"
     inkscape:cy="512"
     inkscape:window-x="0"
     inkscape:window-y="25"
     inkscape:window-maximized="0"
     inkscape:current-layer="U7B2C" />
  <path
     style="fill:#550000;fill-opacity:1;fill-rule:nonzero;stroke:#f9f9f9;stroke-width:0.1;stroke-miterlimit:4;stroke-dasharray:none"
     d="M 217.0625 28.125 C 214.61121 28.185501 212.65404 28.918962 211.375 30.5 C 187.9046 63.6938 165.1115 97.3621 142.375 131.0625 C 113.1338 173.7077 86.22095 217.84215 62.03125 263.53125 C 51.91965 283.65465 41.38745 303.6427 33.78125 324.875 C 28.01615 342.5386 111.2974 369.7261 117.0625 352.0625 C 121.0522 334.8201 132.029 319.6812 138.4375 303.375 C 151.02058 278.80656 164.55664 254.77354 179 231.28125 C 190.6527 245.12422 203.5439 255.07614 209.875 250.4375 C 228.85383 235.99151 250.6264 226.42667 272.875 218.34375 C 274.80752 233.71449 281.12336 248.99189 291.40625 267.03125 C 310.35738 292.86386 336.2391 311.45231 363.03125 328.34375 C 358.0976 330.03123 353.18269 331.77029 348.28125 333.5625 C 307.97065 348.6987 266.6839 364.1494 232.8125 391.5 C 219.1905 404.1287 278.72185 468.34745 292.34375 455.71875 C 317.80685 436.13065 348.8133 425.06785 378.5625 413.78125 C 386.11917 411.01669 393.69969 408.39 401.34375 405.90625 C 400.94667 413.54763 400.60464 421.1798 400.28125 428.8125 C 400.178 433.18671 400.08538 437.56307 400 441.9375 C 395.82702 443.05813 391.66153 444.20361 387.5 445.375 C 360.62369 452.88665 333.79412 460.55357 307.125 468.78125 C 304.63706 467.13356 302.21694 466.55286 300.03125 467.375 C 293.08778 470.17754 286.54838 473.50639 280.3125 477.28125 C 272.91879 479.69197 265.54315 482.12798 258.1875 484.65625 C 254.46938 486.11432 253.04267 491.05776 253.25 497.8125 C 241.56777 508.43804 230.93244 520.35287 220.75 532.59375 C 198.961 559.88235 180.6823 589.60375 168.1875 622.21875 C 156.0006 663.35255 171.1262 698.5368 215.6875 708.6875 C 222.7394 710.2938 230.07625 709.96275 237.28125 710.59375 C 279.69883 709.34411 321.71004 702.6145 363.75 697 C 343.28737 718.12541 325.05416 741.39641 306.28125 764 C 283.42015 791.2474 260.9229 818.78475 238.75 846.59375 C 227.3976 860.95375 295.085 914.484 306.4375 900.125 C 327.91 872.724 349.84805 845.695 372.34375 819.125 C 381.25227 808.49747 390.01331 797.66601 399.03125 787.0625 C 399.05251 795.50276 399.08902 803.93471 399.15625 812.375 C 398.24515 838.928 401.87915 865.596 400.53125 892.125 C 400.42525 891.699 400.32465 891.26975 400.21875 890.84375 C 397.47925 909.26275 484.3231 922.169 487.0625 903.75 C 487.3928 900.39 487.70095 897.0475 488.03125 893.6875 C 487.99875 866.1595 485.085 838.69425 485 811.15625 C 484.14095 769.93821 484.0802 728.72532 484.0625 687.5 C 496.77091 687.2776 509.50079 687.26854 522.21875 687.46875 C 556.56065 688.25145 590.86675 691.10635 623.78125 701.28125 C 637.54245 706.64975 653.72135 712.83335 660.03125 727.34375 C 662.89045 738.22565 659.2485 749.33555 655.875 759.65625 C 648.8567 777.54785 638.8172 794.33125 624.5 807.28125 C 623.4141 807.85425 622.336 808.427 621.25 809 C 606.3139 819.918 657.78255 890.32425 672.71875 879.40625 C 677.01565 876.04425 681.3281 872.6745 685.625 869.3125 C 709.3603 845.0595 728.09055 816.93375 739.09375 784.59375 C 749.25005 749.17055 752.293 713.78675 733.4375 680.40625 C 712.3442 649.75125 684.14 628.99875 648.1875 618.21875 C 607.4933 606.66555 565.64995 601.8964 523.34375 601.5625 C 510.18988 601.42066 497.04933 601.45701 483.90625 601.71875 C 483.84203 575.81658 483.83329 549.90166 484 524 C 486.80612 523.52049 489.63064 523.07442 492.4375 522.625 C 510.71891 519.9665 529.11944 518.53895 547.5625 517.6875 C 568.55871 528.60227 594.24453 535.58484 598.53125 526.40625 C 607.51265 506.84045 603.3876 516.758 611 496.6875 C 619.6651 468.6584 626.0485 439.95335 627.3125 410.53125 C 627.7876 376.31505 623.05445 343.6485 597.09375 318.75 C 591.98305 315.0708 587.2108 310.85495 581.75 307.71875 C 554.2421 291.92045 521.37565 293.15405 491.03125 296.65625 C 475.39154 299.13524 459.84388 302.07888 444.40625 305.5 C 428.75612 302.9386 415.28761 303.78935 413.40625 310.625 C 413.19286 311.49566 413.01837 312.37814 412.8125 313.25 C 410.35353 313.90563 407.88996 314.56965 405.4375 315.25 C 419.53121 295.19753 430.71711 268.13749 421.625 262.625 C 401.654 250.642 381.40995 238.2892 365.28125 221.25 C 359.76055 215.0666 356.67055 210.96095 361.15625 202.46875 C 362.12327 200.64849 362.03215 198.50271 361.09375 196.1875 C 373.14585 193.94412 385.22807 191.86181 397.3125 189.875 C 417.6886 187.0316 407.97745 188.16915 426.46875 186.34375 C 444.75675 184.33075 435.25675 98.1119 416.96875 100.125 C 394.79865 102.7694 406.1369 101.22225 382.9375 104.78125 C 339.7728 112.25125 296.54155 120.21935 254.65625 133.28125 C 250.25844 134.80343 245.86721 136.39597 241.5 138 C 253.86444 120.31962 266.44206 102.76887 279.53125 85.625 C 289.94631 72.750837 237.02303 27.632353 217.0625 28.125 z M 549.3125 75.34375 C 542.38361 75.626318 537.46311 77.456016 536.28125 81.34375 C 527.13905 111.93735 511.2292 139.86575 495.4375 167.40625 C 481.003 191.93395 465.1802 215.55345 448.9375 238.90625 C 438.5743 253.95665 509.5118 302.83165 519.875 287.78125 C 536.50989 263.39641 552.8381 238.78574 568.03125 213.46875 C 575.23586 221.49556 582.26761 226.06838 586.96875 223.375 C 594.52935 218.88465 602.34247 214.9236 610.3125 211.3125 C 615.40372 231.38202 623.20409 250.74491 632.1875 269.625 C 643.1162 290.8724 657.07035 310.2575 671.28125 329.375 C 682.31265 344.0987 751.7189 292.0987 740.6875 277.375 C 729.6846 262.8261 718.7874 248.14215 710.125 232.03125 C 702.49025 216.53081 695.80712 200.49937 693.09375 183.53125 C 711.60094 179.13331 730.37779 176.02261 749.4375 175.1875 C 767.8357 174.0187 762.30455 87.29995 743.90625 88.46875 C 705.67235 91.39975 668.22095 99.5189 631.65625 111.0625 C 626.68669 112.68608 621.72698 114.36785 616.78125 116.0625 C 617.90599 112.99515 619.02911 109.91934 620.0625 106.8125 C 624.28344 92.927734 574.05853 74.334579 549.3125 75.34375 z M 509.03125 380.875 C 521.35337 380.62577 549.59845 382.73725 541.9375 386.40625 C 537.6371 387.87845 540.42165 404.39875 540.28125 408.78125 C 539.85676 416.35483 538.98104 423.8423 537.75 431.28125 C 520.32622 432.32443 502.93055 433.82432 485.625 436.125 C 485.66123 435.05115 485.68107 433.98007 485.71875 432.90625 C 486.58799 416.73122 487.40238 400.45227 489.03125 384.28125 C 493.99139 383.44319 498.9527 382.64716 503.9375 381.9375 C 502.5891 381.2985 504.92388 380.95808 509.03125 380.875 z M 399.1875 531.15625 C 399.16836 556.29921 399.27245 581.45128 399.34375 606.59375 C 389.56726 607.55688 379.8162 608.66908 370.0625 609.9375 C 334.5722 614.2625 299.12536 619.7939 263.46875 622.5625 C 270.56928 610.43386 278.9689 599.00182 287.375 587.84375 C 297.19433 575.949 307.29582 563.38821 320.3125 554.96875 C 346.29459 546.08653 372.72812 538.49467 399.1875 531.15625 z M 251.34375 648.125 C 251.54195 651.9796 250.88711 654.98678 249.96875 655.03125 C 248.91975 655.08185 250.0365 652.9244 250.0625 651.875 C 250.46642 650.61155 250.89958 649.3709 251.34375 648.125 z "
     id="path22055" />
</svg>
