<?xml version="1.0" encoding="UTF-8" standalone="no"?>
<svg
   xmlns:dc="http://purl.org/dc/elements/1.1/"
   xmlns:cc="http://creativecommons.org/ns#"
   xmlns:rdf="http://www.w3.org/1999/02/22-rdf-syntax-ns#"
   xmlns:svg="http://www.w3.org/2000/svg"
   xmlns="http://www.w3.org/2000/svg"
   xmlns:sodipodi="http://sodipodi.sourceforge.net/DTD/sodipodi-0.dtd"
   xmlns:inkscape="http://www.inkscape.org/namespaces/inkscape"
   width="1024"
   height="1024"
   id="U7CFB"
   version="1.1"
   inkscape:version="0.48.0 r9654"
   sodipodi:docname="U+7CFB.svg">
  <metadata
     id="metadata14">
    <rdf:RDF>
      <cc:Work
         rdf:about="">
        <dc:format>image/svg+xml</dc:format>
        <dc:type
           rdf:resource="http://purl.org/dc/dcmitype/StillImage" />
      </cc:Work>
    </rdf:RDF>
  </metadata>
  <defs
     id="defs12" />
  <sodipodi:namedview
     pagecolor="#ffffff"
     bordercolor="#666666"
     borderopacity="1"
     objecttolerance="10"
     gridtolerance="10"
     guidetolerance="10"
     inkscape:pageopacity="0"
     inkscape:pageshadow="2"
     inkscape:window-width="640"
     inkscape:window-height="480"
     id="namedview10"
     showgrid="false"
     inkscape:zoom="0.27441406"
     inkscape:cx="512"
     inkscape:cy="512"
     inkscape:window-x="0"
     inkscape:window-y="25"
     inkscape:window-maximized="0"
     inkscape:current-layer="U7CFB" />
  <path
     style="fill:#501616;fill-opacity:1;fill-rule:nonzero;stroke:#f9f9f9;stroke-width:0.1;stroke-miterlimit:4;stroke-dasharray:none"
     d="M 549.6875 78.5 C 497.5072 85.659 450.13445 111.40125 404.15625 135.65625 C 350.33305 164.85225 300.46835 200.41275 252.34375 238.09375 C 234.02635 252.80475 215.31315 267.163 199.78125 284.875 C 188.01435 299.514 257.01435 354.98275 268.78125 340.34375 C 279.27815 327.58975 293.64455 316.96375 306.34375 305.96875 C 310.45265 302.63889 314.60436 299.31634 318.75 296.03125 C 300.54604 325.92345 282.03875 356.85947 274.40625 391.15625 C 272.75675 398.56825 272.2523 406.1695 271.1875 413.6875 C 271.9609 421.8685 271.43665 430.304 273.53125 438.25 C 288.02285 493.227 334.51445 500.997 383.03125 502.375 C 395.47757 501.69005 407.85509 500.42736 420.1875 498.84375 C 410.24971 510.62477 400.45631 522.53535 390.78125 534.53125 C 362.57565 570.22225 334.9481 606.67875 316.25 648.34375 C 303.4196 682.99775 309.952 722.015 346.9375 738.625 C 353.655 741.641 361.29445 741.93375 368.46875 743.59375 C 414.87085 743.35975 458.59695 723.897 501.65625 708.5 C 502.04107 708.36192 502.42763 708.23167 502.8125 708.09375 C 501.0266 736.72539 498.62766 765.30113 495.75 793.84375 C 491.7436 831.60775 486.23155 869.21575 479.53125 906.59375 C 478.17535 913.69175 477.4062 918.9735 475.4375 925.6875 C 476.49067 924.19713 477.80954 922.87181 479.40625 921.0625 C 470.50712 936.55517 521.85039 1000.099 536 988.875 C 539.9659 984.866 544.40065 981.26075 547.90625 976.84375 C 560.23865 961.30575 562.2647 939.96425 565.875 921.28125 C 572.2318 881.89525 577.75075 842.3555 582.03125 802.6875 C 585.94775 764.9445 588.92035 727.13275 592.34375 689.34375 C 592.61109 685.96575 589.95189 682.96755 585.40625 680.4375 C 606.64645 673.98817 628.07277 668.10709 649.71875 663.0625 C 670.01405 658.5665 690.674 656.38125 711.4375 656.78125 C 712.45048 656.778 713.41084 656.52358 714.3125 656.03125 C 715.71888 661.37573 717.09485 666.73246 718.4375 672.09375 C 723.0659 690.06375 807.7535 668.25125 803.125 650.28125 C 798.5087 632.78725 793.7863 615.338 788.1875 598.125 C 778.3217 567.432 767.14965 537.16875 757.71875 506.34375 C 752.60385 488.29875 667.54135 512.3925 672.65625 530.4375 C 677.14902 543.60849 681.79925 556.72765 686.4375 569.84375 C 667.24189 571.32513 648.19559 574.17014 629.40625 578.6875 C 576.34765 591.8025 524.50115 609.00225 472.96875 627.15625 C 453.94402 633.76472 434.89146 640.56293 415.625 646.53125 C 428.52518 626.37025 444.05665 607.62277 457.96875 588.4375 C 490.0028 548.32964 523.37453 509.21748 560.53125 473.75 C 573.54811 471.78499 586.63316 470.29229 599.75 469.09375 C 608.21688 468.19306 610.84322 449.47878 609.46875 429.59375 C 624.32151 416.8892 639.60713 404.72506 655.75 393.6875 C 671.1707 382.9875 620.7332 310.3 605.3125 321 C 575.55294 342.9863 547.9298 367.59852 520.8125 392.71875 C 475.5951 401.53629 430.46024 412.12002 384.40625 415.375 C 375.29785 415.446 361.4937 413.4195 360.75 416.5625 C 360.4218 417.9495 361.33095 419.3915 361.21875 420.8125 C 360.84205 425.5835 360.4931 424.453 358.25 422.875 C 358.1015 389.112 383.5752 358.967 398.8125 330.75 C 415.8816 306.319 433.74125 281.0785 459.40625 264.9375 C 468.96342 259.87278 459.24752 231.78182 446.125 210.5625 C 479.68012 193.0847 513.9307 174.98913 551.1875 166.96875 C 569.9546 166.65275 568.4546 78.184 549.6875 78.5 z M 398.09375 679.75 C 398.19399 683.56057 397.11287 689.61517 396.40625 687.09375 C 395.99965 685.64275 396.78595 684.121 396.96875 682.625 C 397.33536 681.66177 397.70885 680.704 398.09375 679.75 z M 667.09375 772.0625 C 649.24365 773.21874 620.90872 848.48941 637.59375 854.96875 C 661.38545 863.75575 683.86815 875.5715 706.09375 887.6875 C 730.17385 900.8745 752.3551 916.87225 769.8125 938.15625 C 781.9154 952.26225 848.4154 895.23 836.3125 881.125 C 811.177 852.568 781.6711 829.1075 748.0625 811.0625 C 722.5137 797.0005 696.6244 783.5395 669.625 772.4375 C 668.80443 772.11884 667.97162 772.00564 667.09375 772.0625 z M 417.09375 773.25 C 416.80658 773.25965 416.50723 773.29061 416.21875 773.34375 C 382.82865 781.16775 352.9481 798.20025 323.8125 815.65625 C 292.7918 834.80525 263.4743 856.47825 238.1875 882.78125 C 224.5837 901.07925 230.65805 890.94375 220.59375 913.46875 C 215.09846 929.73254 284.82538 954.81224 301.21875 945.28125 C 301.44717 944.77174 301.8691 943.92065 302.46875 942.59375 C 321.10155 921.35675 345.04905 905.8175 368.59375 890.5625 C 388.74005 878.5425 409.2288 866.016 432.25 860.375 C 450.42402 857.02714 435.18541 772.64221 417.09375 773.25 z M 301.21875 945.28125 C 300.88527 946.02509 301.10881 945.80328 301.78125 944.9375 C 301.6054 945.05765 301.40921 945.17052 301.21875 945.28125 z M 301.78125 944.9375 C 302.99695 944.10691 303.87113 943.05634 304.3125 941.75 C 303.04908 943.30654 302.30296 944.26579 301.78125 944.9375 z M 475.40625 925.75 C 474.45987 927.10128 473.73096 928.59924 473.15625 930.75 C 472.68322 932.52066 474.85963 927.56658 475.40625 925.75 z "
     id="path13308" />
</svg>
