<?xml version="1.0" encoding="UTF-8" standalone="no"?>
<svg
   xmlns:dc="http://purl.org/dc/elements/1.1/"
   xmlns:cc="http://creativecommons.org/ns#"
   xmlns:rdf="http://www.w3.org/1999/02/22-rdf-syntax-ns#"
   xmlns:svg="http://www.w3.org/2000/svg"
   xmlns="http://www.w3.org/2000/svg"
   xmlns:sodipodi="http://sodipodi.sourceforge.net/DTD/sodipodi-0.dtd"
   xmlns:inkscape="http://www.inkscape.org/namespaces/inkscape"
   width="1024"
   height="1024"
   id="U7C73"
   version="1.1"
   inkscape:version="0.48.0 r9654"
   sodipodi:docname="U+7C73.svg">
  <metadata
     id="metadata13">
    <rdf:RDF>
      <cc:Work
         rdf:about="">
        <dc:format>image/svg+xml</dc:format>
        <dc:type
           rdf:resource="http://purl.org/dc/dcmitype/StillImage" />
      </cc:Work>
    </rdf:RDF>
  </metadata>
  <defs
     id="defs11" />
  <sodipodi:namedview
     pagecolor="#ffffff"
     bordercolor="#666666"
     borderopacity="1"
     objecttolerance="10"
     gridtolerance="10"
     guidetolerance="10"
     inkscape:pageopacity="0"
     inkscape:pageshadow="2"
     inkscape:window-width="640"
     inkscape:window-height="480"
     id="namedview9"
     showgrid="false"
     inkscape:zoom="0.27441406"
     inkscape:cx="512"
     inkscape:cy="512"
     inkscape:window-x="0"
     inkscape:window-y="25"
     inkscape:window-maximized="0"
     inkscape:current-layer="U7C73" />
  <path
     style="fill:#c83737;fill-opacity:1;fill-rule:nonzero;stroke:#f9f9f9;stroke-width:0.1;stroke-miterlimit:4;stroke-dasharray:none"
     d="M 455.375 172.78125 C 445.06139 172.99641 437.41655 175.27234 436.34375 180.4375 C 428.97395 221.9015 425.54685 263.899 422.78125 305.875 C 421.39056 333.23585 420.14224 360.5972 418.96875 387.96875 C 416.10359 385.94143 413.27584 383.88453 410.4375 381.8125 C 387.6451 365.0965 365.3856 347.68325 343.3125 330.03125 C 319.3251 311.31725 295.65835 291.69975 268.46875 277.71875 C 251.34905 269.99775 214.9428 350.68525 232.0625 358.40625 C 252.9104 369.28425 271.05185 384.6845 289.53125 399.0625 C 312.15195 417.1545 334.9356 435.018 358.125 452.375 C 365.9647 458.389 373.97955 464.11525 382.15625 469.65625 C 389.68158 474.60299 404.81429 460.14198 416.75 442.625 C 416.32254 453.48989 415.88064 464.35334 415.46875 475.21875 C 372.12687 481.46203 328.94363 488.83101 285.9375 497.25 C 237.1108 506.164 188.1866 514.5215 138.875 520.3125 C 120.3551 523.1525 133.7301 610.43275 152.25 607.59375 C 202.1949 599.61075 252.009 590.92025 301.6875 581.40625 C 338.43867 573.92609 375.35181 567.38022 412.40625 561.8125 C 411.04131 612.11569 410.74764 662.42517 411.15625 712.75 C 411.57545 758.294 411.6735 803.831 412.0625 849.375 C 411.8852 874.892 413.2433 900.354 418.375 925.375 C 421.1713 929.516 425.4527 958.7185 422.9375 937.1875 C 424.27811 931.6176 425.59695 926.03803 426.9375 920.46875 C 426.84936 938.54347 497.99157 975.04796 506.34375 959.21875 C 508.17765 952.20375 510.00985 945.17125 511.84375 938.15625 C 511.00155 927.08125 508.9161 916.7315 504.6875 906.4375 C 499.9575 887.3885 499.87195 867.639 499.34375 848.125 C 498.41585 802.682 498.0053 757.22825 497.3125 711.78125 C 496.53916 658.07666 496.61153 604.37283 498.1875 550.6875 C 504.77249 549.96803 511.34443 549.28321 517.9375 548.625 C 573.9455 543.328 630.22385 544.0365 686.40625 543.5625 C 724.35415 543.4655 762.23055 540.67125 799.84375 535.78125 C 816.18855 533.58525 832.40495 530.67475 848.78125 528.71875 C 867.37495 526.22675 855.62505 438.5705 837.03125 441.0625 C 820.67985 443.4535 804.44385 446.5345 788.09375 448.9375 C 754.04045 453.7385 719.74815 456.55225 685.34375 456.90625 C 626.60615 457.86925 567.7733 457.6745 509.25 463.5625 C 506.63792 463.83584 504.01716 464.12428 501.40625 464.40625 C 503.4332 413.57453 505.73846 362.74571 508.84375 311.96875 C 511.74845 273.93975 514.9142 235.7995 522.9375 198.4375 C 525.67903 185.23766 481.732 172.23139 455.375 172.78125 z M 670.5 230.375 C 668.91331 230.3445 667.53398 230.75969 666.375 231.65625 C 639.0907 254.72025 614.75725 280.96675 591.03125 307.59375 C 571.07445 330.23075 551.84485 353.49825 533.59375 377.53125 C 529.52285 382.88525 525.79205 388.449 521.34375 393.5 C 509.38495 408.036 577.9163 464.411 589.875 449.875 C 594.9818 443.472 599.71535 436.85075 604.34375 430.09375 C 620.52755 407.74475 637.904 386.25325 656.125 365.53125 C 676.2297 342.94325 696.77115 320.51075 720.46875 301.59375 C 734.14477 291.01339 689.22294 230.73485 670.5 230.375 z M 578.21875 595.21875 C 558.82304 595.73454 510.38953 649.88731 522.8125 661.5 C 547.733 682.864 572.94835 703.86175 597.21875 725.96875 C 623.68615 749.99175 646.5729 777.508 669.4375 804.875 C 687.702 826.394 706.43615 847.49425 724.96875 868.78125 C 734.37515 879.69525 744.31615 890.102 755.34375 899.375 C 770.03785 911.11 825.35025 841.82875 810.65625 830.09375 C 802.63995 825.74775 797.81905 816.327 790.96875 810.625 C 772.65585 790.093 754.23485 769.654 736.34375 748.75 C 710.87945 718.505 685.26025 688.238 655.90625 661.625 C 631.94165 639.736 607.11175 618.838 583.21875 596.875 C 581.93362 595.67369 580.2252 595.16539 578.21875 595.21875 z M 332.8125 616.9375 C 330.80377 616.96456 329.11207 617.55962 327.875 618.8125 C 305.1795 642.9535 283.5619 668.05575 262.3125 693.46875 C 238.1792 722.75775 214.0507 752.0515 190.5 781.8125 C 179.0537 796.8955 166.62135 811.19325 155.03125 826.15625 C 148.11155 834.49125 145.9213 843.80675 143.3125 854.09375 C 141.17565 872.24278 223.9587 882.56513 231.21875 866.1875 C 229.32789 873.06963 229.47469 874.38213 226.03125 879.125 C 236.37555 864.096 248.96945 850.6185 259.46875 835.6875 C 282.02155 806.4445 305.39105 777.8595 328.96875 749.4375 C 348.80825 725.9255 368.8936 702.59225 390.875 681.03125 C 402.83333 668.91922 352.23026 616.67596 332.8125 616.9375 z "
     id="path11054" />
</svg>
