<?xml version="1.0" encoding="UTF-8" standalone="no"?>
<svg
   xmlns:dc="http://purl.org/dc/elements/1.1/"
   xmlns:cc="http://creativecommons.org/ns#"
   xmlns:rdf="http://www.w3.org/1999/02/22-rdf-syntax-ns#"
   xmlns:svg="http://www.w3.org/2000/svg"
   xmlns="http://www.w3.org/2000/svg"
   xmlns:sodipodi="http://sodipodi.sourceforge.net/DTD/sodipodi-0.dtd"
   xmlns:inkscape="http://www.inkscape.org/namespaces/inkscape"
   width="1024"
   height="1024"
   id="U7CD6"
   version="1.1"
   inkscape:version="0.48.0 r9654"
   sodipodi:docname="U+7CD6.svg">
  <metadata
     id="metadata23">
    <rdf:RDF>
      <cc:Work
         rdf:about="">
        <dc:format>image/svg+xml</dc:format>
        <dc:type
           rdf:resource="http://purl.org/dc/dcmitype/StillImage" />
      </cc:Work>
    </rdf:RDF>
  </metadata>
  <defs
     id="defs21" />
  <sodipodi:namedview
     pagecolor="#ffffff"
     bordercolor="#666666"
     borderopacity="1"
     objecttolerance="10"
     gridtolerance="10"
     guidetolerance="10"
     inkscape:pageopacity="0"
     inkscape:pageshadow="2"
     inkscape:window-width="640"
     inkscape:window-height="480"
     id="namedview19"
     showgrid="false"
     inkscape:zoom="0.27441406"
     inkscape:cx="512"
     inkscape:cy="512"
     inkscape:window-x="0"
     inkscape:window-y="25"
     inkscape:window-maximized="0"
     inkscape:current-layer="U7CD6" />
  <path
     style="fill:#782121;fill-opacity:1;fill-rule:nonzero;stroke:#f9f9f9;stroke-width:0.1;stroke-miterlimit:4;stroke-dasharray:none"
     d="M 641.40625 70.53125 C 623.20164 70.035474 580.81747 135.26563 595.4375 145.0625 C 621.976 164.3875 645.52355 187.54925 669.84375 209.53125 C 680.05757 218.77964 690.38688 227.88431 700.71875 237 C 649.85012 242.10128 599.07942 248.27139 548.6875 256.9375 C 506.5223 265.1105 463.7637 273.6235 424.8125 292.4375 C 423.60674 293.10733 422.72374 294.15482 422.125 295.5 C 411.99382 271.03232 383.84087 236.81417 372.90625 244.3125 C 344.52415 265.4345 321.1807 292.21675 297.875 318.59375 C 289.23088 328.5716 280.3482 338.3252 271.34375 347.96875 C 271.3202 347.17705 271.30503 346.38544 271.28125 345.59375 C 269.62685 287.69475 266.9722 229.7275 269.125 171.8125 C 269.7173 153.0955 181.49855 150.283 180.90625 169 C 181.11942 214.68523 182.96301 260.35512 184.875 306 C 161.2126 285.44832 137.65032 264.67055 111.40625 247.46875 C 95.24665 237.92675 50.2779 314.083 66.4375 323.625 C 93.5966 340.61 117.1577 362.699 141.5 383.375 C 156.17275 396.55601 172.34668 407.57705 188.9375 418.0625 C 189.15535 425.88311 189.36551 433.71006 189.5625 441.53125 C 168.73857 443.38843 147.89937 445.0781 127.03125 446.40625 C 87.66695 448.55725 48.21685 450.6595 8.78125 449.6875 C -9.98695 448.9995 -13.23695 537.4985 5.53125 538.1875 C 47.77725 537.5485 89.969 535.03675 132.125 532.34375 C 145.62822 531.38313 159.13692 530.29504 172.625 529.15625 C 161.66685 541.64115 151.19179 554.55603 140.75 567.4375 C 114.609 599.7125 90.9276 633.8575 71.25 670.4375 C 69.225 674.8555 67.2125 679.29975 65.1875 683.71875 C 57.754 700.82375 138.3791 735.856 145.8125 718.75 C 146.8216 716.187 147.83465 713.6255 148.84375 711.0625 C 161.46959 685.99964 177.03291 662.64828 194 640.34375 C 195.17762 679.82724 198.88149 719.10615 204.625 758.1875 C 207.5247 776.3255 293.0247 762.66925 290.125 744.53125 C 284.22821 710.86588 280.58057 676.93585 279 642.8125 C 303.21811 656.92614 327.74596 670.48053 352.625 683.40625 C 377.52787 696.11315 403.08708 707.48683 428.71875 718.625 C 424.01545 771.46439 418.76733 824.2641 412.15625 876.90625 C 408.44725 903.79025 404.9483 930.74575 398.875 957.21875 C 395.0618 975.49475 481.21805 993.4635 485.03125 975.1875 C 490.64175 946.0435 494.3451 916.585 497.875 887.125 C 503.35431 838.83702 507.87384 790.47113 512.09375 742.0625 C 512.66103 742.39654 513.28106 742.6197 513.9375 742.75 C 561.7691 749.083 610.1314 745.71025 658 741.78125 C 721.9038 736.07125 785.05165 724.43925 847.90625 711.90625 C 880.03375 705.22925 912.12585 698.342 944.21875 691.5 C 962.37505 687.379 942.93755 601.78425 924.78125 605.90625 C 923.39662 606.24043 922.00997 606.57342 920.625 606.90625 C 921.00613 602.65675 921.27099 599.58351 922.4375 584.78125 C 924.8092 551.16225 927.5484 517.29125 923.9375 483.65625 C 918.9203 452.63625 908.0213 424.92275 879.1875 408.71875 C 855.4534 397.21075 830.18725 392.1105 803.90625 390.1875 C 789.25463 388.80456 774.56847 387.70813 759.875 387.09375 C 759.84624 364.81723 760.79525 342.56292 764.59375 320.625 C 764.74883 319.83549 764.72604 319.03182 764.5625 318.25 C 793.89857 316.97903 823.2659 317.65006 852.5625 319.90625 C 866.3621 321.20025 859.94335 320.5115 871.84375 321.9375 C 890.44705 323.8425 899.4158 236.154 880.8125 234.25 C 866.6589 233.004 874.13905 233.58975 858.40625 232.46875 C 820.6581 230.28563 782.83932 230.19741 745.125 232.90625 C 762.86919 215.43108 779.2498 189.85888 771.0625 182.71875 C 756.6652 170.29275 742.24345 157.87375 728.15625 145.09375 C 700.69385 120.20375 674.21155 94.0825 644.71875 71.5625 C 643.74408 70.909375 642.61989 70.564302 641.40625 70.53125 z M 424.15625 316.09375 C 431.37511 337.72128 449.99124 366.3605 462.28125 370.125 C 458.05783 398.27354 455.39709 426.66516 452.53125 454.96875 C 446.94667 512.23298 441.84944 569.53184 436.78125 626.84375 C 421.955 620.34102 407.26343 613.53704 392.84375 606.15625 C 364.39795 591.32625 336.3095 575.71225 309.4375 558.15625 C 302.13622 553.60886 288.3732 566.97151 277.125 583.6875 C 276.52307 562.19538 275.96631 540.71354 275.46875 519.21875 C 290.3179 517.62825 305.1596 515.97375 320 514.3125 C 354.5983 510.3375 389.1452 505.75075 423.3125 498.96875 C 441.513 495.08675 423.2006 409.27425 405 413.15625 C 375.48691 420.00135 345.46975 424.23041 315.4375 428.09375 C 331.69054 411.16317 347.73282 394.04205 363.15625 376.34375 C 381.70905 355.40475 400.02975 333.651 422.90625 317.25 C 423.3777 316.92671 423.80357 316.52865 424.15625 316.09375 z M 675.125 326.09375 C 673.24891 347.55293 673.03462 369.11622 673.4375 390.6875 C 634.20431 396.58646 595.08897 404.85882 559.625 423.4375 C 543.3659 432.7905 587.45965 509.4155 603.71875 500.0625 C 626.30391 487.71339 651.41869 482.09832 676.625 478.0625 C 677.18006 490.0531 677.7617 502.04559 678.40625 514.03125 C 668.99308 514.13204 659.57256 514.18917 650.15625 514.21875 C 631.40635 515.21475 636.09385 603.58975 654.84375 602.59375 C 664.62264 602.21931 674.40827 601.90543 684.1875 601.59375 C 684.87454 610.10812 685.60172 618.61692 686.375 627.125 C 687.2355 634.633 688.10825 642.118 688.96875 649.625 C 689.07463 650.47263 689.36317 651.27508 689.8125 652 C 676.99115 653.58119 664.13928 654.93716 651.25 656 C 611.3669 658.996 570.891 662.0135 531.125 656.0625 C 526.71933 655.18802 522.39071 659.54436 518.59375 666.65625 C 524.57126 599.11051 530.71359 531.56956 538.0625 464.15625 C 542.4442 425.64225 545.99805 386.72725 555.96875 349.15625 C 556.41399 347.37533 555.96691 345.58423 554.84375 343.78125 C 558.37376 343.0675 561.89011 342.3654 565.40625 341.65625 C 601.7771 335.1579 638.40884 330.15797 675.125 326.09375 z M 273.125 415.65625 C 279.92971 421.85666 287.09009 427.27444 293.46875 430.75 C 286.82335 431.5216 280.17958 432.25232 273.53125 433 C 273.39865 427.21719 273.26236 421.43894 273.125 415.65625 z M 762.1875 474.34375 C 773.18475 475.01867 784.16314 476.00455 795.125 477.1875 C 808.9685 480.3235 826.42245 478.51625 838.59375 487.15625 C 834.73635 488.47525 835.903 489.41525 836.9375 497.03125 C 837.16175 499.51393 837.31778 502.01506 837.46875 504.5 C 812.98777 507.07211 788.48999 509.42502 763.9375 511.15625 C 763.2665 498.88613 762.698 486.62281 762.1875 474.34375 z M 834.3125 592.15625 C 833.99709 595.99389 833.71933 598.88455 832.4375 612.0625 C 831.98475 616.87841 837.61454 620.96851 846.15625 624.09375 C 841.02363 625.22855 835.88693 626.35438 830.75 627.46875 C 812.23627 631.30152 793.68676 635.02757 775.09375 638.5 C 774.19187 631.88748 773.30804 625.26975 772.40625 618.65625 C 771.6644 611.67797 770.9737 604.70376 770.3125 597.71875 C 791.66597 596.12535 812.9924 594.16308 834.3125 592.15625 z M 850.96875 729.125 C 848.73058 729.10383 846.49858 729.12869 844.25 729.15625 C 801.0057 729.71325 757.623 733.21725 716 745.78125 C 682.0947 757.45925 649.69465 772.55 624.59375 799 C 621.03306 802.91254 623.68085 810.46669 629.59375 818.96875 C 617.94927 821.6657 609.60134 826.02641 609.84375 831.84375 C 613.09335 866.73475 621.79185 900.81875 630.78125 934.59375 C 634.76055 949.69075 639.89805 964.4245 645.28125 979.0625 C 648.89049 988.48631 674.57912 983.59964 696.34375 974.375 C 703.27837 997.79678 716.87934 1022.4056 726.78125 1018.9062 C 760.16785 1006.2842 795.58545 1000.984 830.90625 997.375 C 855.85065 995.043 880.8827 995.90875 905.8125 997.71875 C 913.15941 998.18242 918.41734 984.68395 920.96875 968.1875 C 936.65196 972.63782 950.6208 973.42607 953.28125 966.6875 C 959.76895 949.7165 956.67705 958.43875 962.46875 940.46875 C 970.92645 909.84475 979.11725 878.96225 983.21875 847.40625 C 985.96695 809.57325 980.9893 773.80325 946.875 751.03125 C 916.91391 735.40125 884.54126 729.44253 850.96875 729.125 z M 845.03125 816.28125 C 862.82575 818.68125 888.4553 814.70675 903.3125 827.59375 C 892.5532 827.88175 898.0316 816.4245 895.6875 840.3125 C 892.35175 863.69354 886.52623 886.64586 880.15625 909.375 C 860.76083 908.94138 841.35182 909.28539 822 911.15625 C 787.70665 914.73044 753.50942 919.75686 720.21875 928.71875 C 718.3112 923.20354 716.55133 917.61775 715.03125 911.96875 C 709.41178 891.2394 703.84388 870.30263 700.59375 849.03125 C 713.43292 839.35846 728.70132 833.52852 744.0625 828.4375 C 776.8889 818.9065 811.02295 816.42425 845.03125 816.28125 z "
     id="path11796" />
</svg>
