<?xml version="1.0" encoding="utf-8" ?>

<!DOCTYPE svg PUBLIC "-//W3C//DTD SVG 1.1//EN" 
  "http://www.w3.org/Graphics/SVG/1.1/DTD/svg11.dtd">
<svg 
    xmlns="http://www.w3.org/2000/svg"
    xmlns:xlink="http://www.w3.org/1999/xlink"
    xmlns:sodipodi="http://sodipodi.sourceforge.net/DTD/sodipodi-0.dtd"
    xmlns:inkscape="http://www.inkscape.org/namespaces/inkscape"
    width="1024" height="1024" id="U7D2F">
<path d="m 9548.4611,28778.427 c -2.0713,34.311 0.018,68.706 2.7958,102.912 2.432,30.555 8.6126,60.509 18.7079,89.413 3.9076,16.57 18.912,23.316 1.112,10.045 17.0928,7.866 -19.9891,88.442 -37.0818,80.576 l 0,0 c -27.3852,-16.241 -36.7201,-33.15 -47.2048,-62.621 -11.733,-35.845 -19.374,-72.75 -22.2163,-110.421 -3.0523,-38.067 -5.1773,-76.241 -4.4004,-114.449 0.964,-18.728 89.2516,-14.184 88.2876,4.545 z" id="path9480" inkscape:connector-curvature="0" style="fill:#2b0000;fill-opacity:1;fill-rule:nonzero;stroke:#f9f9f9;stroke-width:0.1;stroke-miterlimit:4;stroke-dasharray:none" transform="translate(-9216, -28672)"/><path d="m 9531.3989,28766.879 c 30.4284,-18.896 64.8987,-29.151 99.185,-38.447 45.3519,-11.59 91.8813,-17.009 138.4703,-20.341 38.6404,-2.381 77.3766,-1.579 115.9292,1.665 22.0006,2.277 43.9043,5.684 65.333,11.198 26.5158,6.864 42.0066,25.467 49.1541,51.17 3.5605,21.372 -0.01,42.833 -3.6234,63.928 -6.1358,31.671 -12.8259,63.234 -20.148,94.652 -7.3959,30.744 -16.1141,61.146 -24.1162,91.734 -4.3954,16.202 -8.0029,32.614 -12.524,48.782 -4.0516,11.68 -0.9442,4.203 -11.7692,21.249 -12.7298,13.928 -78.387,-46.08 -65.6572,-60.008 l 0,0 c -2.5251,4.315 -5.0502,8.631 -7.5752,12.946 6e-4,0.189 0,0.377 0,0.566 4.9585,-15.136 8.2411,-30.791 12.7281,-46.065 7.9948,-29.648 16.6332,-59.13 23.8334,-88.987 6.8672,-29.606 13.0572,-59.37 18.4738,-89.276 1.5522,-9.744 3.1322,-21.693 3.7691,-30.638 2.576,5.801 5.7772,10.161 10.9814,13.993 1.4858,1.094 6.2484,3.602 5.0962,2.161 -0.3891,-0.487 -1.123,-0.541 -1.6845,-0.812 -16.3234,-4.781 -33.2594,-7.17 -50.0904,-9.352 -33.9189,-3.259 -68.0384,-4.158 -102.0791,-2.244 -40.9167,2.761 -81.7808,7.454 -121.5873,17.697 -24.9027,6.84 -50.4087,13.798 -72.4503,27.723 -15.548,10.533 -65.1987,-62.761 -49.6507,-73.294 z" id="path9482" inkscape:connector-curvature="0" style="fill:#2b0000;fill-opacity:1;fill-rule:nonzero;stroke:#f9f9f9;stroke-width:0.1;stroke-miterlimit:4;stroke-dasharray:none" transform="translate(-9216, -28672)"/><path d="m 9571.0044,28876.723 c 33.7864,-13.099 69.3946,-20.347 104.8329,-27.326 43.0228,-8.449 86.6358,-13.192 130.3515,-16.04 27.5036,-1.885 55.0534,-0.502 82.5789,-0.606 2.6662,0.23 15.9623,-1.494 -1.0725,0.487 18.3033,-4.612 40.0438,81.67 21.7406,86.282 l 0,0 c -7.3591,1.102 -14.3533,2.151 -21.8041,1.525 -25.3483,-0.687 -50.7126,-2.135 -76.0688,-0.73 -39.8374,2.312 -79.5768,6.59 -118.7415,14.419 -29.2109,5.88 -58.7985,11.591 -86.4266,23.092 -17.2046,7.507 -52.5949,-73.596 -35.3904,-81.103 z" id="path9484" inkscape:connector-curvature="0" style="fill:#2b0000;fill-opacity:1;fill-rule:nonzero;stroke:#f9f9f9;stroke-width:0.1;stroke-miterlimit:4;stroke-dasharray:none" transform="translate(-9216, -28672)"/><path d="m 9798.6128,28828.754 c -13.6946,24.745 -19.7583,52.757 -25.4316,80.203 -5.2483,26.653 -6.9274,53.765 -7.0357,80.871 0.3971,9.599 0.2879,19.095 -0.6037,28.652 -2.4771,18.661 -90.445,6.984 -87.9679,-11.677 l 0,0 c 0.3749,2.758 0.5809,-17.249 0.5241,-18.372 0.8405,-32.613 3.3605,-65.208 9.7498,-97.257 7.8522,-37.429 17.0017,-75.067 35.5375,-108.865 9.8524,-15.958 85.0799,30.486 75.2275,46.445 z" id="path9486" inkscape:connector-curvature="0" style="fill:#2b0000;fill-opacity:1;fill-rule:nonzero;stroke:#f9f9f9;stroke-width:0.1;stroke-miterlimit:4;stroke-dasharray:none" transform="translate(-9216, -28672)"/><path d="m 9550.7064,29012.545 c 36.1603,-4.716 71.9333,-11.9 107.8324,-18.222 41.2945,-7 83.0049,-11.087 124.6907,-14.906 25.8255,-2.197 51.7026,-3.565 77.4989,-6.104 3.2115,0.115 11.361,-1.444 13.369,-1.976 18.4222,-4.016 37.3549,82.827 18.9327,86.843 l 0,0 c -8.1288,1.475 -16.3301,2.491 -24.5809,2.994 -25.8306,2.016 -51.7061,3.231 -77.5406,5.182 -39.1885,3.327 -78.4085,6.937 -117.2126,13.493 -36.7092,6.548 -73.2884,13.797 -110.0343,20.145 -18.5506,2.748 -31.5059,-84.701 -12.9553,-87.449 z" id="path9488" inkscape:connector-curvature="0" style="fill:#2b0000;fill-opacity:1;fill-rule:nonzero;stroke:#f9f9f9;stroke-width:0.1;stroke-miterlimit:4;stroke-dasharray:none" transform="translate(-9216, -28672)"/><path d="m 9743.7827,29081.496 c -15.4617,27.983 -33.6195,54.242 -52.953,79.653 -18.7948,24.06 -39.1508,46.831 -58.5725,70.374 -0.8828,0.45 -21.7719,30.16 -15.8942,20.897 12.8747,-30.801 -10.1507,-58.848 -40.0265,-59.786 -1.4752,-0.05 2.7456,-1.09 4.1517,-1.538 20.2261,-6.673 40.9215,-11.773 61.5667,-16.951 27.7911,-6.698 55.6919,-12.925 83.769,-18.302 18.3765,-3.704 36.9835,-4.464 55.6375,-3.449 -1.6038,0.415 6.6224,0.03 4.9684,0.124 -6.8549,0.381 -8.4342,0.374 -16.2005,3.792 -2.6305,1.158 -4.8668,3.059 -7.3002,4.589 -2.7696,2.981 -5.5393,5.962 -8.3089,8.944 10.5112,-15.689 84.4696,33.861 73.9584,49.55 l 0,0 c -3.0824,3.448 -6.1647,6.896 -9.247,10.344 -13.3344,8.87 -27.6166,13.673 -43.6718,11.11 -11.3168,-0.938 -22.5438,-0.904 -33.7596,1.375 -26.2447,4.727 -52.2717,10.533 -78.1464,16.984 -18.7156,4.857 -37.5024,9.596 -55.7628,16.006 -38.1776,12.663 -91.8652,5.784 -72.9263,-58.57 7.7097,-15.388 18.8008,-28.328 29.798,-41.486 18.8656,-22.275 38.3765,-44.017 56.4197,-66.979 16.4549,-21.577 32.1571,-43.808 44.3752,-68.121 8.7908,-16.573 86.916,24.868 78.1251,41.44 z" id="path9490" inkscape:connector-curvature="0" style="fill:#2b0000;fill-opacity:1;fill-rule:nonzero;stroke:#f9f9f9;stroke-width:0.1;stroke-miterlimit:4;stroke-dasharray:none" transform="translate(-9216, -28672)"/><path d="m 9864.4689,29182.174 c -20.1963,29.841 -44.7598,56.041 -70.461,81.13 -34.1244,32.38 -70.9724,61.65 -108.0026,90.589 -28.0628,21.551 -55.7858,43.535 -83.2845,65.8 -11.1196,8.909 -21.6882,18.462 -33.6691,26.204 -3.689,5.928 -43.7574,9.762 -22.9378,7.183 39.5218,-11.284 -1.9692,-25.358 -26.5481,-84.607 -0.1529,-0.369 14.5265,-5.815 16.3248,-6.474 25.6301,-8.323 52.3767,-12.585 78.7663,-17.769 43.3553,-9.069 86.7292,-17.943 130.4117,-25.295 43.9819,-6.95 88.1513,-12.626 132.2429,-18.825 26.4336,-3.632 52.6215,-8.747 78.8124,-13.784 10.7884,-2.802 22.2703,-3.127 32.9656,-6.3 -0.024,-0.03 -0.049,-0.06 -0.073,-0.1 -1.5787,0.512 -3.1574,1.023 -4.7362,1.534 17.3375,-7.474 52.5735,74.255 35.2355,81.73 l 0,0 c -8.065,2.863 -4.385,1.795 -10.967,3.447 -12.0596,2.482 -24.28,4.088 -36.3885,6.314 -27.6105,4.912 -55.218,9.892 -83.0399,13.488 -43.2378,5.75 -86.5348,11.135 -129.6181,17.973 -42.7486,7.244 -85.1631,16.125 -127.5145,25.399 -21.834,4.555 -43.9463,8.442 -65.2476,15.138 -2.87,1.093 -4.5732,1.694 -7.2713,2.874 -1.1911,0.521 -2.8597,2.722 -3.5481,1.619 -39.6861,-63.58 -71.2188,-70.2 -30.1071,-83.014 3.0294,-0.455 6.0533,-0.948 9.0883,-1.364 0.8393,-0.115 3.3682,-0.277 2.5393,-0.102 -4.8827,1.031 -9.9454,1.63 -14.0638,4.806 -1.1723,1.155 8.1051,-5.991 16.7774,-12.719 2.6585,-2.063 5.3163,-4.127 7.9745,-6.19 28.1219,-21.85 56.224,-43.726 84.4999,-65.377 34.5045,-26.879 68.8226,-54.099 100.4727,-84.354 21.1757,-20.828 41.7791,-42.372 57.5993,-67.696 10.3392,-15.649 84.1065,33.091 73.7674,48.739 z" id="path9500" inkscape:connector-curvature="0" style="fill:#2b0000;fill-opacity:1;fill-rule:nonzero;stroke:#f9f9f9;stroke-width:0.1;stroke-miterlimit:4;stroke-dasharray:none" transform="translate(-9216, -28672)"/><path d="m 9964.3027,29237.499 c 15.28,20.745 30.4437,41.575 45.7643,62.29 10.978,14.497 21.984,28.709 29.655,45.242 1.103,4.982 2.205,9.964 3.308,14.946 2.053,18.718 -86.1867,28.397 -88.24,9.679 l 0,0 c 0.8604,2.774 1.7208,5.548 2.5813,8.322 6.3991,9.639 -17.5443,-26.06 -18.1838,-26.253 -14.507,-19.984 -28.881,-40.091 -44.2897,-59.396 -11.6312,-14.723 57.7737,-69.553 69.4049,-54.83 z" id="path9502" inkscape:connector-curvature="0" style="fill:#2b0000;fill-opacity:1;fill-rule:nonzero;stroke:#f9f9f9;stroke-width:0.1;stroke-miterlimit:4;stroke-dasharray:none" transform="translate(-9216, -28672)"/><path d="m 9796.2687,29401.444 c 1.4146,28.599 1.9302,57.225 2.0825,85.856 -0.071,28.165 -0.526,56.328 -0.9331,84.491 -0.2527,18.727 -1.0043,37.441 -1.6249,56.158 -0.9962,5.423 1.6853,19.158 -0.5878,4.578 -1.291,-3.477 -2.5819,-6.954 -3.8729,-10.432 9.0216,16.595 -69.2078,59.124 -78.2294,42.529 l 0,0 c -1.4995,-3.861 -2.9991,-7.722 -4.4987,-11.583 -1.771,-9.589 -1.8797,-19.154 -1.1805,-28.876 0.9458,-17.968 1.7881,-35.943 2.1689,-53.933 0.5807,-27.503 1.0781,-55.011 1.2093,-82.52 -0.1093,-26.874 -0.4271,-53.787 -2.8161,-80.573 -1.2082,-18.727 87.0744,-24.423 88.2827,-5.695 z" id="path9504" inkscape:connector-curvature="0" style="fill:#2b0000;fill-opacity:1;fill-rule:nonzero;stroke:#f9f9f9;stroke-width:0.1;stroke-miterlimit:4;stroke-dasharray:none" transform="translate(-9216, -28672)"/><path d="m 9655.7874,29545.409 c -21.2755,7.5 -40.1381,19.838 -58.0553,33.284 -17.8519,14.153 -33.786,30.485 -49.3674,47.046 -5.3768,5.724 -6.8717,11.127 -0.1689,-2.517 -5.1051,18.138 -90.6092,-5.927 -85.5042,-24.066 l 0,0 c 5.4026,-13.227 11.4207,-24.782 22.1117,-34.59 19.3033,-19.649 38.8908,-39.13 60.6459,-56.1 25.1007,-18.578 51.5372,-35.284 80.8551,-46.473 17.6951,-6.254 47.1782,77.161 29.4831,83.416 z" id="path9510" inkscape:connector-curvature="0" style="fill:#2b0000;fill-opacity:1;fill-rule:nonzero;stroke:#f9f9f9;stroke-width:0.1;stroke-miterlimit:4;stroke-dasharray:none" transform="translate(-9216, -28672)"/><path d="m 9856.7944,29484.909 c 23.4904,15.886 48.8986,28.63 74.2023,41.317 23.4657,11.38 47.039,22.528 70.3133,34.298 2.319,1.185 4.639,2.37 6.958,3.556 16.593,8.708 -24.4586,86.928 -41.0516,78.22 l 0,0 c -2.1417,-1.156 -4.2834,-2.312 -6.4252,-3.468 -22.7376,-12.056 -45.9365,-23.185 -69.0444,-34.507 -28.8671,-14.539 -57.6853,-29.285 -85.0369,-46.566 -15.4538,-10.625 34.6307,-83.475 50.0845,-72.85 z" id="path9512" inkscape:connector-curvature="0" style="fill:#2b0000;fill-opacity:1;fill-rule:nonzero;stroke:#f9f9f9;stroke-width:0.1;stroke-miterlimit:4;stroke-dasharray:none" transform="translate(-9216, -28672)"/></svg>