<?xml version="1.0" encoding="utf-8" ?>

<!DOCTYPE svg PUBLIC "-//W3C//DTD SVG 1.1//EN" 
  "http://www.w3.org/Graphics/SVG/1.1/DTD/svg11.dtd">
<svg 
    xmlns="http://www.w3.org/2000/svg"
    xmlns:xlink="http://www.w3.org/1999/xlink"
    xmlns:sodipodi="http://sodipodi.sourceforge.net/DTD/sodipodi-0.dtd"
    xmlns:inkscape="http://www.inkscape.org/namespaces/inkscape"
    width="1024" height="1024" id="U7ECF">
<path d="m 10532.969,24877.77 c -15.519,35.137 -34.842,68.426 -53.1,102.177 -15.537,29.294 -31.32,58.605 -42.48,89.901 -5.598,18.309 1.68,9.628 -3.002,-1.541 -1.583,-3.775 -4.208,-7.022 -6.313,-10.532 9.95,-12.153 -13.189,-3.755 -12.912,-8.992 0.01,-0.193 7.259,-1.048 13.723,-2.116 10.936,-1.806 19.267,-3.482 30.303,-5.594 34.6,-6.796 69.258,-13.296 103.902,-19.866 3.777,-0.726 7.553,-1.452 11.33,-2.178 18.545,-3.341 34.294,84.08 15.749,87.421 l 0,0 c -3.758,0.632 -7.516,1.263 -11.275,1.894 -34.316,5.937 -68.567,12.266 -102.676,19.303 -27.233,5.492 -61.363,16.554 -88.818,6.662 -7.434,-2.679 -13.832,-7.646 -20.747,-11.469 -4.591,-5.859 -10.149,-11.074 -13.773,-17.575 -11.664,-20.925 -5.855,-45.529 1.369,-66.592 13.474,-34.681 30.807,-67.595 48.428,-100.322 16.296,-30.355 33.658,-60.35 46.748,-92.27 6.723,-17.722 90.266,13.967 83.544,31.689 z" id="path9489" inkscape:connector-curvature="0" style="fill:#2b0000;fill-opacity:1;fill-rule:nonzero;stroke:#f9f9f9;stroke-width:0.1;stroke-miterlimit:4;stroke-dasharray:none" transform="translate(-10240, -24576)"/><path d="m 10623.286,25028.597 c -18.919,31.028 -35.266,63.557 -51.67,95.959 -17.959,35.78 -33.523,72.717 -46.47,110.591 -2.703,10.657 -7.88,21.49 -7.545,32.654 0.732,-11.116 -4.75,-20.917 -12.978,-28.42 -10.003,-9.122 -22.964,-7.556 -19.001,-9.117 17.11,-4.933 33.468,-12.091 49.967,-18.712 13.569,-5.708 27.352,-10.792 41.458,-14.981 18.232,-5.07 42.132,80.877 23.9,85.947 l 0,0 c -11.123,2.594 -21.622,7.359 -32.263,11.413 -22.811,9.174 -45.414,19.444 -69.563,24.624 -39.841,5.211 -68.864,-10.019 -71.019,-53.39 1.138,-20.555 6.544,-40.263 13.683,-59.539 14.979,-41.056 32.148,-81.292 51.64,-120.42 17.4,-34.777 34.806,-69.581 53.82,-103.513 9.95,-16.13 85.991,30.774 76.041,46.904 z" id="path9491" inkscape:connector-curvature="0" style="fill:#2b0000;fill-opacity:1;fill-rule:nonzero;stroke:#f9f9f9;stroke-width:0.1;stroke-miterlimit:4;stroke-dasharray:none" transform="translate(-10240, -24576)"/><path d="m 10425.221,25434.302 c 34.367,-19.429 67.672,-40.663 101.017,-61.776 29.207,-18.536 58.325,-37.209 87.224,-56.221 15.782,-10.149 63.625,64.247 47.843,74.396 l 0,0 c -29.413,18.492 -58.907,36.856 -88.202,55.535 -33.952,21.676 -67.867,43.409 -101.998,64.803 -16.278,9.734 -62.163,-67.004 -45.884,-76.737 z" id="path9493" inkscape:connector-curvature="0" style="fill:#2b0000;fill-opacity:1;fill-rule:nonzero;stroke:#f9f9f9;stroke-width:0.1;stroke-miterlimit:4;stroke-dasharray:none" transform="translate(-10240, -24576)"/><path d="m 10745.467,24792.492 c 33.818,-4.694 67.869,-7.181 101.94,-9.078 30.707,-1.515 61.484,-1.88 92.194,-0.327 40.553,3.029 65.581,28.407 52.129,72.049 -1.582,5.13 -5.407,9.276 -8.111,13.913 -22.356,27.742 -45.235,55.052 -67.395,82.965 -40.812,51.627 -79.402,104.945 -117.151,158.833 -25.022,35.918 -48.631,72.783 -72.818,109.261 -7.482,12.026 -16.591,22.283 -27.247,31.486 -15.265,11.353 -68.785,-60.607 -53.52,-71.96 l 0,0 c -9.471,9.947 8.532,-8.16 7.484,-9.386 25.324,-36.261 49.791,-73.111 75.282,-109.257 38.837,-54.901 78.231,-109.417 119.173,-162.776 20.311,-26.358 40.931,-52.463 61.694,-78.464 -5.904,20.04 -0.95,30.572 13.985,47.115 3.148,3.487 8.427,4.182 12.803,5.89 0.661,0.258 2.785,0.212 2.129,-0.06 -1.286,-0.534 -2.738,-0.506 -4.107,-0.76 -27.142,-2.22 -54.439,-1.73 -81.622,-0.578 -30.976,1.729 -62.017,3.838 -92.599,9.304 -18.704,3.021 -32.946,-85.148 -14.243,-88.169 z" id="path9495" inkscape:connector-curvature="0" style="fill:#2b0000;fill-opacity:1;fill-rule:nonzero;stroke:#f9f9f9;stroke-width:0.1;stroke-miterlimit:4;stroke-dasharray:none" transform="translate(-10240, -24576)"/><path d="m 10799.771,24993.649 c 26.81,9.767 53.302,20.396 79.842,30.873 31.14,12.581 61.691,26.546 92.206,40.557 18.665,8.632 37.115,17.716 55.631,26.66 16.927,8.58 -23.521,88.373 -40.448,79.793 l 0,0 c -17.171,-9.234 -34.729,-17.753 -52.318,-26.154 -28.86,-13.447 -57.783,-26.801 -87.346,-38.647 -24.659,-9.627 -49.262,-19.532 -74.415,-27.799 -18.091,-5.696 8.757,-90.978 26.848,-85.283 z" id="path9497" inkscape:connector-curvature="0" style="fill:#2b0000;fill-opacity:1;fill-rule:nonzero;stroke:#f9f9f9;stroke-width:0.1;stroke-miterlimit:4;stroke-dasharray:none" transform="translate(-10240, -24576)"/><path d="m 10722.87,25202.277 c 36.712,-6.472 73.614,-11.677 110.602,-16.275 36.806,-4.556 73.801,-7.254 110.799,-9.659 3.172,-0.293 6.344,-0.587 9.516,-0.88 18.809,-1.454 25.661,87.21 6.853,88.664 l 0,0 c -3.813,0.246 -7.625,0.492 -11.438,0.739 -35.017,1.612 -70.021,3.914 -104.823,8.23 -35.058,4.425 -70.107,9.284 -104.644,16.882 -18.604,3.578 -35.47,-84.123 -16.865,-87.701 z" id="path9499" inkscape:connector-curvature="0" style="fill:#2b0000;fill-opacity:1;fill-rule:nonzero;stroke:#f9f9f9;stroke-width:0.1;stroke-miterlimit:4;stroke-dasharray:none" transform="translate(-10240, -24576)"/><path d="m 10929.036,25224.321 c -11.744,28.032 -17.313,58.049 -22.159,87.892 -5.385,36.911 -5.921,74.247 -5.496,111.47 0.498,19.623 0.268,10.027 0.696,28.788 0.289,18.796 -88.314,20.158 -88.603,1.363 l 0,0 c -0.146,-18.819 -0.05,-8.956 -0.314,-29.589 -0.07,-42.111 0.813,-84.329 6.921,-126.075 5.889,-36.506 13.075,-72.931 26.261,-107.616 7.163,-17.542 89.857,16.225 82.694,33.767 z" id="path9501" inkscape:connector-curvature="0" style="fill:#2b0000;fill-opacity:1;fill-rule:nonzero;stroke:#f9f9f9;stroke-width:0.1;stroke-miterlimit:4;stroke-dasharray:none" transform="translate(-10240, -24576)"/><path d="m 10697.404,25434.767 c 40.381,-1.288 80.483,-7.429 120.548,-12.332 49.331,-6.239 98.774,-11.418 148.506,-12.451 31.228,-0.389 62.171,3.601 92.02,12.687 2.735,0.973 5.47,1.946 8.205,2.918 17.758,6.608 -13.39,90.318 -31.148,83.71 l 0,0 c -1.449,-0.584 -2.898,-1.168 -4.348,-1.753 -20.324,-7.223 -41.936,-9.32 -63.407,-9.632 -46.58,0.387 -92.894,5.334 -139.084,11.124 -44.557,5.603 -89.055,12.673 -133.936,14.985 -18.934,-0.562 -16.29,-89.817 2.644,-89.256 z" id="path9503" inkscape:connector-curvature="0" style="fill:#2b0000;fill-opacity:1;fill-rule:nonzero;stroke:#f9f9f9;stroke-width:0.1;stroke-miterlimit:4;stroke-dasharray:none" transform="translate(-10240, -24576)"/></svg>