<?xml version="1.0" encoding="UTF-8" standalone="no"?>
<svg
   xmlns:dc="http://purl.org/dc/elements/1.1/"
   xmlns:cc="http://creativecommons.org/ns#"
   xmlns:rdf="http://www.w3.org/1999/02/22-rdf-syntax-ns#"
   xmlns:svg="http://www.w3.org/2000/svg"
   xmlns="http://www.w3.org/2000/svg"
   xmlns:sodipodi="http://sodipodi.sourceforge.net/DTD/sodipodi-0.dtd"
   xmlns:inkscape="http://www.inkscape.org/namespaces/inkscape"
   width="1024"
   height="1024"
   id="U7EFF"
   version="1.1"
   inkscape:version="0.48.0 r9654"
   sodipodi:docname="U+7EFF.svg">
  <metadata
     id="metadata17">
    <rdf:RDF>
      <cc:Work
         rdf:about="">
        <dc:format>image/svg+xml</dc:format>
        <dc:type
           rdf:resource="http://purl.org/dc/dcmitype/StillImage" />
      </cc:Work>
    </rdf:RDF>
  </metadata>
  <defs
     id="defs15" />
  <sodipodi:namedview
     pagecolor="#ffffff"
     bordercolor="#666666"
     borderopacity="1"
     objecttolerance="10"
     gridtolerance="10"
     guidetolerance="10"
     inkscape:pageopacity="0"
     inkscape:pageshadow="2"
     inkscape:window-width="640"
     inkscape:window-height="480"
     id="namedview13"
     showgrid="false"
     inkscape:zoom="0.27441406"
     inkscape:cx="512"
     inkscape:cy="512"
     inkscape:window-x="0"
     inkscape:window-y="25"
     inkscape:window-maximized="0"
     inkscape:current-layer="U7EFF" />
  <path
     style="fill:#2b0000;fill-opacity:1;fill-rule:nonzero;stroke:#f9f9f9;stroke-width:0.1;stroke-miterlimit:4;stroke-dasharray:none"
     d="M 686.375 170.46875 C 675.40123 170.65571 664.04525 172.90625 653.9375 172.875 C 619.5888 176.929 585.37235 182.131 551.03125 186.25 C 518.70515 189.98 486.3065 193.18525 453.8125 195.03125 C 435.0978 196.31725 441.1603 284.536 459.875 283.25 C 493.6528 279.977 527.4215 276.725 561.125 272.75 C 589.62394 269.30962 618.04606 265.24349 646.5625 261.96875 C 646.40605 275.2425 647.10752 288.56078 647.375 301.8125 C 613.40028 303.33895 579.75423 307.93998 546.25 313.78125 C 513.879 318.83625 481.5154 323.95725 449.25 329.65625 C 430.7808 333.02825 446.68705 420.09175 465.15625 416.71875 C 496.48465 409.84875 528.18495 404.83725 559.84375 399.78125 C 587.29379 395.03645 614.84627 391.03745 642.65625 389.84375 C 642.55292 390.83215 642.44913 391.82434 642.34375 392.8125 C 640.86534 407.91802 638.438 422.87854 635.09375 437.65625 C 586.32001 440.86038 537.7698 446.5874 489.5625 455.03125 C 444.766 462.36525 400.05335 471.39775 354.78125 475.09375 C 336.04155 475.48175 337.85405 563.8255 356.59375 563.4375 C 405.98055 558.3195 454.71915 548.07975 503.65625 539.84375 C 518.84475 537.14939 534.05247 534.77369 549.3125 532.6875 C 550.5048 564.33642 548.92957 596.07231 547.46875 627.6875 C 546.31911 647.78798 544.86651 667.85799 543.4375 687.9375 C 537.24683 692.00864 531.07153 696.10865 524.90625 700.21875 C 528.93101 694.6752 530.53579 689.711 528.25 686.375 C 518.9707 673.505 523.7389 679.47925 514.1875 668.40625 C 500.2171 653.13325 486.08755 637.96525 473.46875 621.53125 C 461.98525 606.67025 391.92275 660.79525 403.40625 675.65625 C 418.06935 693.38125 433.55825 710.374 448.90625 727.5 C 454.50135 734.248 452.52875 731.1865 455.40625 736.3125 C 457.69724 739.65588 462.91825 739.92174 469.5625 738.15625 C 458.01576 746.32231 446.53619 754.5876 435.1875 763.03125 C 401.3479 788.88925 367.7015 815.20575 337.625 845.46875 C 324.8332 859.20775 389.5831 919.52125 402.375 905.78125 C 428.0505 877.96925 457.9894 854.5685 487.8125 831.4375 C 504.25361 819.04573 521.0277 807.07863 538 795.4375 C 537.83676 814.18447 537.86058 832.91106 537.28125 851.65625 C 536.95236 857.91973 537.17068 866.98008 535.96875 872.875 C 536.29367 872.47306 536.61654 872.07388 537.34375 871.125 C 537.7622 870.61825 538.2051 870.13096 538.65625 869.65625 C 528.33092 894.03107 523.93097 939.27252 537.15625 941.6875 C 541.48715 942.4975 545.8274 943.28225 550.1875 943.90625 C 569.6955 949.06225 588.8932 945.481 603.375 930.75 C 610.5448 921.975 616.5245 912.40725 620.0625 901.53125 C 624.4999 885.84825 625.6894 869.903 625.375 853.625 C 625.7552 826.133 625.05495 798.64825 625.40625 771.15625 C 625.45729 769.73995 625.50687 768.32226 625.5625 766.90625 C 626.94683 766.62194 628.34521 766.32946 629.71875 765.96875 C 641.10787 768.98858 652.33137 772.62784 663.4375 776.5625 C 690.6897 786.4265 716.0704 800.451 741.25 814.625 C 776.896 835.728 812.87665 856.2495 849.65625 875.3125 C 869.42985 885.4115 889.90415 893.9625 910.40625 902.4375 C 927.67555 909.4155 960.5817 828.00925 943.3125 821.03125 C 925.1541 813.87325 906.98355 806.661 889.53125 797.875 C 853.68865 779.535 818.7804 759.54475 784.25 738.84375 C 764.9609 727.8295 745.53825 716.95136 725.46875 707.4375 C 728.12894 705.53004 730.79643 703.62256 733.4375 701.6875 C 760.6153 681.7965 787.7967 661.77375 812.75 639.09375 C 826.1754 625.97675 764.33155 562.6965 750.90625 575.8125 C 729.68145 596.4325 705.6707 613.91925 681.875 631.40625 C 665.63166 643.33278 648.90855 654.56417 631.875 665.3125 C 632.65504 654.18152 633.42068 643.04539 634.09375 631.90625 C 635.9327 595.96627 637.67941 559.96544 637.125 523.96875 C 648.28549 523.26742 659.47076 522.71534 670.65625 522.3125 C 712.59885 521.5965 754.5546 522.10975 796.5 521.59375 C 813.29602 522.91132 830.69841 519.74913 847.59375 520.875 C 834.31704 516.83361 825.13938 500.04152 821.25 489.625 C 819.464 484.84137 821.03654 479.52042 821.6875 474.34375 C 823.99936 492.16461 900.07907 517.29838 905.875 500.375 C 906.8994 492.034 911.0917 483.46675 908.9375 475.34375 C 901.9137 448.85875 886.9301 436.5725 862.0625 433.4375 C 839.7221 432.1975 817.3536 434.14225 795 434.28125 C 771.73876 434.79084 748.48134 434.94828 725.21875 435.125 C 727.05209 424.08488 728.48298 412.98364 729.46875 401.8125 C 732.72075 369.3175 735.15775 336.71225 735.09375 304.03125 C 734.97875 286.13125 733.67335 268.02975 735.65625 250.21875 C 741.78195 219.37475 749.1875 214.67625 724.5 183.03125 C 718.1181 179.78825 712.01435 175.9105 705.34375 173.3125 C 699.40694 171.00137 692.95926 170.35657 686.375 170.46875 z M 847.59375 520.875 C 849.99186 521.60498 852.52774 521.93294 855.1875 521.71875 C 852.6699 521.32465 850.13818 521.04456 847.59375 520.875 z M 535.96875 872.875 C 534.60346 874.56393 536.02845 872.62164 535.46875 874.9375 C 535.67083 874.30578 535.81705 873.619 535.96875 872.875 z M 234.25 179 C 230.69854 179.06623 228.0212 180.08784 226.65625 182.34375 C 208.58005 213.47575 190.39515 244.531 172.46875 275.75 C 155.85475 304.489 140.88765 334.14275 125.59375 363.59375 C 116.80615 380.24275 108.4921 397.1285 101.6875 414.6875 C 95.0822 431.5875 91.1363 450.90725 102.5625 467.53125 C 107.714 475.02525 116.24905 479.512 123.09375 485.5 C 141.65415 492.967 157.38945 487.582 175.40625 484.25 C 177.72626 483.84365 180.05919 483.42593 182.375 483 C 172.97926 498.61942 163.62351 514.26697 154.3125 529.9375 C 142.479 550.3015 130.24715 570.4175 117.84375 590.4375 C 92.96905 632.5955 109.1671 622.88225 162.1875 668.40625 C 182.1534 662.43625 200.19625 651.729 219.34375 643.625 C 242.33705 634.308 266.41415 628.31275 290.78125 623.96875 C 304.68052 621.62606 318.77784 621.13078 332.8125 620.21875 C 332.87548 620.21077 332.93742 620.19751 333 620.1875 C 350.89049 617.32499 352.46027 531.66886 333.9375 531.25 C 327.273 531.559 329.90835 531.2555 326.03125 531.8125 C 308.94545 533.6115 291.7202 534.3785 274.8125 537.6875 C 265.56312 539.44924 256.35086 541.34948 247.1875 543.5 C 264.87298 513.56985 282.90391 483.84968 301.34375 454.375 C 301.60936 453.95129 301.85935 453.51743 302.125 453.09375 C 302.12794 453.08906 302.15331 453.09844 302.15625 453.09375 C 307.25067 451.63231 314.29867 451.31982 303.65625 452.15625 C 309.04706 450.91933 313.41309 442.14309 316.3125 430.5625 C 330.59828 407.84259 344.90714 385.12972 359.1875 362.40625 C 368.6682 346.21625 292.3557 301.52875 282.875 317.71875 C 271.3233 337.76577 259.25737 357.50281 247.09375 377.1875 C 236.83317 380.09618 226.55457 382.93781 216.25 385.6875 C 214.92784 386.02004 213.60532 386.33269 212.28125 386.65625 C 223.76152 363.90984 235.30359 341.17616 247.96875 319.0625 C 265.51475 288.4195 283.26765 257.887 302.28125 228.125 C 310.6226 214.33891 255.95335 178.59524 234.25 179 z M 333 620.1875 C 333.08285 620.18209 333.16715 620.19293 333.25 620.1875 C 337.52072 619.8868 336.96702 619.91884 333 620.1875 z M 683.40625 259.28125 C 684.33033 259.31144 685.2647 259.37539 686.1875 259.4375 C 686.8987 259.4845 689.0135 259.65225 688.3125 259.78125 C 686.97977 260.02655 685.25139 259.7888 683.40625 259.28125 z M 183.375 449.5 C 183.36256 449.57369 183.35639 449.64491 183.34375 449.71875 C 183.16675 450.75275 182.76165 453.6205 182.28125 452.6875 C 181.77163 451.69844 182.55757 450.5959 183.375 449.5 z M 194.15625 635.15625 C 192.81121 639.31943 189.50945 643.6055 193.6875 635.96875 C 193.84464 635.69845 193.99913 635.42656 194.15625 635.15625 z M 287.6875 692.96875 C 286.49504 692.96799 285.38104 693.26044 284.40625 693.875 C 257.20185 711.198 230.1152 728.71025 204 747.65625 C 173.5898 769.90125 143.2359 792.46925 115.9375 818.53125 C 102.8231 831.96525 166.1356 893.77875 179.25 880.34375 C 202.3609 856.83375 228.98295 837.081 255.40625 817.5 C 279.73045 799.62 305.18255 783.37525 330.78125 767.40625 C 345.40316 758.18687 305.57433 692.9801 287.6875 692.96875 z "
     id="path10480" />
</svg>
