<?xml version="1.0" encoding="UTF-8" standalone="no"?>
<svg
   xmlns:dc="http://purl.org/dc/elements/1.1/"
   xmlns:cc="http://creativecommons.org/ns#"
   xmlns:rdf="http://www.w3.org/1999/02/22-rdf-syntax-ns#"
   xmlns:svg="http://www.w3.org/2000/svg"
   xmlns="http://www.w3.org/2000/svg"
   xmlns:sodipodi="http://sodipodi.sourceforge.net/DTD/sodipodi-0.dtd"
   xmlns:inkscape="http://www.inkscape.org/namespaces/inkscape"
   width="1024"
   height="1024"
   id="U7ECD"
   version="1.1"
   inkscape:version="0.48.0 r9654"
   sodipodi:docname="U+7ECD.svg">
  <metadata
     id="metadata15">
    <rdf:RDF>
      <cc:Work
         rdf:about="">
        <dc:format>image/svg+xml</dc:format>
        <dc:type
           rdf:resource="http://purl.org/dc/dcmitype/StillImage" />
      </cc:Work>
    </rdf:RDF>
  </metadata>
  <defs
     id="defs13" />
  <sodipodi:namedview
     pagecolor="#ffffff"
     bordercolor="#666666"
     borderopacity="1"
     objecttolerance="10"
     gridtolerance="10"
     guidetolerance="10"
     inkscape:pageopacity="0"
     inkscape:pageshadow="2"
     inkscape:window-width="640"
     inkscape:window-height="480"
     id="namedview11"
     showgrid="false"
     inkscape:zoom="0.27441406"
     inkscape:cx="512"
     inkscape:cy="512"
     inkscape:window-x="0"
     inkscape:window-y="25"
     inkscape:window-maximized="0"
     inkscape:current-layer="U7ECD" />
  <path
     style="fill:#a02c2c;fill-opacity:1;fill-rule:nonzero;stroke:#f9f9f9;stroke-width:0.1;stroke-miterlimit:4;stroke-dasharray:none"
     d="M 598.875 253.46875 C 580.1352 252.31875 574.72895 340.6615 593.46875 341.8125 C 605.7738 342.42646 618.04957 343.21507 630.34375 344 C 622.55866 360.96883 615.11656 378.09724 607.6875 395.21875 C 589.5425 438.24475 570.08085 480.66625 549.15625 522.40625 C 545.71625 528.85125 542.28375 535.305 538.84375 541.75 C 530.22565 558.004 606.85065 598.628 615.46875 582.375 C 619.19555 575.304 622.8982 568.22725 626.625 561.15625 C 648.1419 518.03725 668.33495 474.28175 687.28125 429.96875 C 699.27242 402.70075 711.0972 375.24656 725.40625 349.09375 C 741.1604 349.86684 756.90261 350.75382 772.625 352.03125 C 776.3906 352.46025 806.76985 355.418 804.90625 362.125 C 803.36705 363.425 803.783 362.69925 803.875 365.65625 C 804.3189 379.97625 802.3128 392.62075 798.9375 406.59375 C 790.0232 436.03275 775.40145 463.544 753.46875 485.25 C 740.72545 498.718 804.22555 558.81275 816.96875 545.34375 C 848.31485 511.01975 871.6871 471.0765 883.9375 425.9375 C 893.6353 381.7755 897.21575 336.77575 866.78125 299.46875 C 838.36885 274.16475 816.74815 267.731 779.34375 264.625 C 747.70755 262.312 715.9922 261.26975 684.3125 259.71875 C 655.7946 258.20275 627.3157 256.06175 598.875 253.46875 z M 344.5625 267.0625 C 342.55454 267.12963 340.86818 267.75381 339.65625 269.03125 C 316.80105 294.89025 297.1133 323.28225 277.5625 351.65625 C 254.1688 385.82725 232.89545 421.38725 214.59375 458.53125 C 203.70845 482.44525 191.6221 510.42125 202.125 536.90625 C 205.0337 544.24025 210.31285 550.379 214.40625 557.125 C 234.84723 576.39421 259.24891 582.10579 285 582.125 C 283.46405 585.10276 281.92338 588.07471 280.40625 591.0625 C 265.34635 621.7095 252.04475 653.20625 240.34375 685.28125 C 227.78015 722.69925 237.7943 756.8835 280 768.3125 C 286.2116 769.9945 292.85405 768.95725 299.28125 769.28125 C 327.57715 766.48425 354.0709 755.573 381.0625 747.375 C 383.9618 746.609 386.8506 745.8285 389.75 745.0625 C 407.7536 740.1035 384.3785 655.2295 366.375 660.1875 L 355.0625 663.40625 C 350.35796 664.88766 345.6568 666.4305 340.96875 667.96875 C 346.309 655.25754 351.98112 642.69419 357.96875 630.28125 C 376.63115 593.18625 397.04175 557.012 419.59375 522.125 C 437.95765 493.423 456.378 464.6925 476.6875 437.3125 C 487.6602 422.0975 415.94155 370.37775 404.96875 385.59375 C 384.92135 415.20275 365.45935 445.198 346.28125 475.375 C 343.56815 479.5874 340.90497 483.84689 338.25 488.09375 C 335.395 485.63281 332.59752 484.57374 330 485.4375 C 320.8262 488.5595 311.6114 491.6645 302 493.1875 C 301.26228 493.29412 298.23888 493.44705 294.75 493.625 C 310.19521 461.34648 328.69944 430.67578 348.96875 401.1875 C 366.12095 376.6205 383.28365 351.80275 403.90625 329.96875 C 415.62162 317.62019 363.97274 266.41355 344.5625 267.0625 z M 286.8125 511.78125 C 287.15169 514.02921 286.87918 516.36538 286.59375 518.625 C 286.53145 519.118 285.6325 520.242 285.5625 519.75 C 285.19123 517.14412 285.81685 514.45338 286.8125 511.78125 z M 777.71875 574.375 C 733.51875 576.195 690.35545 585.528 648.78125 600.75 C 612.95435 614.468 577.1738 629.62875 546.8125 653.59375 C 542.69383 657.24989 544.86839 665.53273 550.3125 675.09375 C 526.48791 674.40793 500.48424 679.25813 500.5625 689.4375 C 501.4416 721.6585 504.6244 753.7175 508.5625 785.6875 C 511.324 809.5975 515.4473 833.27575 521.875 856.46875 C 527.0983 874.41175 611.6608 849.78675 606.4375 831.84375 C 600.6102 813.33775 597.7941 794.10125 595.25 774.90625 C 592.84209 755.71994 590.67601 736.466 589.625 717.15625 C 596.38958 721.25314 602.21205 722.72747 605.53125 719.78125 C 627.58345 702.45625 653.9232 691.8845 679.875 681.9375 C 712.2383 670.5535 745.7557 662.027 780.1875 661.75 C 781.4641 658.759 807.24955 667.6415 799.46875 669.5625 C 799.37205 686.1375 796.75725 703.859 794.21875 720.5 C 787.47574 758.51862 779.93413 796.40105 771.5625 834.09375 C 735.53831 834.97461 699.56989 837.59014 663.9375 843.28125 C 624.3834 849.92625 584.74585 857.6075 547.09375 871.8125 C 529.80015 879.1105 564.2064 960.64175 581.5 953.34375 C 612.4261 940.54675 645.57015 934.3095 678.40625 928.6875 C 718.07505 922.2355 758.2538 920.491 798.375 921.125 C 811.5815 921.397 824.7376 922.334 837.9375 922.75 C 848.41481 922.88626 853.40836 895.37366 852.5 871 C 853.63013 866.45731 854.63762 861.88349 855.5625 857.28125 C 864.5386 816.30025 872.81835 775.16625 880.40625 733.90625 C 886.47125 695.48125 892.23345 656.11325 872.59375 620.40625 C 868.73575 615.32025 865.41175 609.768 861.03125 605.125 C 839.38685 582.181 808.05195 575.113 777.71875 574.375 z M 323.34375 714.28125 C 323.21713 715.97521 323.01572 717.67991 322.90625 719.34375 C 322.88305 719.69775 322.0355 720.354 322.0625 720 C 322.202 718.146 322.8531 716.3785 323.25 714.5625 C 323.28162 714.46903 323.31209 714.37471 323.34375 714.28125 z M 443.78125 767.71875 C 442.91141 767.69077 442.08235 767.84602 441.28125 768.1875 C 402.96585 784.9465 364.8579 802.14625 326.9375 819.78125 C 291.8104 835.75125 256.6358 852.02525 220 864.28125 C 202.1294 869.96125 228.91065 954.18 246.78125 948.5 C 286.26225 933.713 324.54955 916.0125 362.84375 898.4375 C 400.04035 880.9885 437.6817 864.499 475.625 848.75 C 491.9141 841.80648 461.4681 768.28758 443.78125 767.71875 z "
     id="path11829" />
</svg>
