<?xml version="1.0" encoding="UTF-8" standalone="no"?>
<svg
   xmlns:dc="http://purl.org/dc/elements/1.1/"
   xmlns:cc="http://creativecommons.org/ns#"
   xmlns:rdf="http://www.w3.org/1999/02/22-rdf-syntax-ns#"
   xmlns:svg="http://www.w3.org/2000/svg"
   xmlns="http://www.w3.org/2000/svg"
   xmlns:sodipodi="http://sodipodi.sourceforge.net/DTD/sodipodi-0.dtd"
   xmlns:inkscape="http://www.inkscape.org/namespaces/inkscape"
   width="1024"
   height="1024"
   id="U7EC6"
   version="1.1"
   inkscape:version="0.48.0 r9654"
   sodipodi:docname="U+7EC6.svg">
  <metadata
     id="metadata15">
    <rdf:RDF>
      <cc:Work
         rdf:about="">
        <dc:format>image/svg+xml</dc:format>
        <dc:type
           rdf:resource="http://purl.org/dc/dcmitype/StillImage" />
      </cc:Work>
    </rdf:RDF>
  </metadata>
  <defs
     id="defs13" />
  <sodipodi:namedview
     pagecolor="#ffffff"
     bordercolor="#666666"
     borderopacity="1"
     objecttolerance="10"
     gridtolerance="10"
     guidetolerance="10"
     inkscape:pageopacity="0"
     inkscape:pageshadow="2"
     inkscape:window-width="640"
     inkscape:window-height="480"
     id="namedview11"
     showgrid="false"
     inkscape:zoom="0.27441406"
     inkscape:cx="512"
     inkscape:cy="512"
     inkscape:window-x="0"
     inkscape:window-y="25"
     inkscape:window-maximized="0"
     inkscape:current-layer="U7EC6" />
  <path
     style="fill:#501616;fill-opacity:1;fill-rule:nonzero;stroke:#f9f9f9;stroke-width:0.1;stroke-miterlimit:4;stroke-dasharray:none"
     d="M 260.1875 211.5625 C 258.18593 211.69208 256.54454 212.375 255.375 213.6875 C 229.3096 244.3895 205.4602 276.823 182.3125 309.75 C 156.7199 346.807 133.1396 385.229 111.5625 424.75 C 98.6513 449.784 84.21645 479.6195 96.90625 508.0625 C 100.35955 515.8025 106.56365 521.95125 111.40625 528.90625 C 136.40027 548.67165 165.93914 551.87949 196.03125 551.3125 C 190.0396 561.08023 184.05902 570.86202 178.0625 580.625 C 160.5002 609.277 143.167 638.04075 126.0625 666.96875 C 114.1831 685.52375 106.22385 704.54825 103.65625 726.40625 C 110.00695 778.61425 148.0423 785.021 191.9375 780.75 C 228.5865 775.013 264.46125 765.36425 300.71875 757.65625 C 313.23705 754.74725 325.8896 753.52975 338.6875 753.21875 C 357.2693 752.34975 353.17565 664.757 334.59375 665.625 C 317.00955 666.68 299.53605 668.227 282.34375 672.375 C 260.129 677.22674 238.0111 682.66045 215.75 687.3125 C 227.63953 666.66611 239.65022 646.08008 251.96875 625.6875 C 278.04485 582.6485 304.03625 539.5225 332.59375 498.0625 C 349.62975 473.6465 366.4421 448.8025 386.75 426.9375 C 399.9437 413.5705 336.91245 351.383 323.71875 364.75 C 300.44235 390.864 280.8736 419.94725 261.1875 448.78125 C 258.67404 452.50859 256.16978 456.25257 253.6875 460 C 242.53841 461.15596 231.37604 462.17981 220.1875 462.90625 C 209.96915 463.44135 199.83744 463.94657 189.65625 463.84375 C 208.65996 427.8803 229.96528 393.15047 253.09375 359.6875 C 274.42035 329.5515 296.3145 299.684 321.375 272.5 C 332.68056 259.8125 279.53604 210.30985 260.1875 211.5625 z M 685.125 296.4375 C 682.70413 296.41286 680.2771 296.42675 677.84375 296.46875 C 630.06785 298.12375 582.9156 305.94625 538.6875 324.90625 C 522.52092 332.1795 506.57421 339.9871 491.3125 348.9375 C 466.12728 340.48976 424.53085 338.54037 422.6875 351.25 C 417.3053 401.483 418.91155 452.0745 421.03125 502.4375 C 424.77675 571.3155 432.5221 639.9105 446 707.5625 C 448.83354 722.06875 452.73468 736.17134 457.65625 749.875 C 456.09749 750.22854 454.52522 750.57036 452.96875 750.9375 C 434.75555 755.4905 456.2243 841.3655 474.4375 836.8125 C 513.2731 825.7265 553.5329 821.395 593.625 817.875 C 653.4252 813.78 713.39755 814.1065 773.28125 815.6875 C 775.29964 815.76035 777.32495 815.82674 779.34375 815.90625 C 796.44579 821.17366 821.79502 823.03626 836.84375 819.65625 C 852.36498 821.21209 867.8485 823.32601 883.1875 826.25 C 893.5673 828.836 889.0142 827.38925 896.9375 830.28125 C 914.7819 835.88925 941.2193 751.76525 923.375 746.15625 C 907.1568 741.41225 915.44905 743.51275 898.40625 739.84375 C 884.81358 737.59258 871.18846 735.80252 857.5 734.375 C 858.0592 729.98249 858.63056 725.57646 859.21875 721.1875 C 866.89375 664.5215 876.06455 608.01225 881.15625 551.03125 C 884.45855 499.21825 886.4057 446.24375 863.9375 397.96875 C 846.0758 365.27575 823.24845 337.042 789.40625 319.75 C 756.33631 304.66563 721.43802 296.80712 685.125 296.4375 z M 680.21875 383.5 C 705.07945 383.797 729.59995 387.70225 751.84375 399.03125 C 767.83615 408.36225 778.50035 422.78125 786.65625 439.03125 C 800.12305 472.91625 797.16185 510.11875 795.03125 545.71875 C 790.33755 600.50675 781.39965 654.7955 773.53125 709.1875 C 772.55766 715.93461 771.61697 722.68441 770.6875 729.4375 C 709.25108 728.31904 647.72644 728.24301 586.375 732.09375 C 572.73958 733.2009 559.10231 734.42006 545.5 735.875 C 538.52401 721.44332 534.18822 705.84414 530.375 690.1875 C 524.91988 664.6735 520.50127 638.97616 516.96875 613.15625 C 518.93519 614.17414 520.84127 614.44703 522.625 613.8125 C 553.79455 601.78894 586.18269 593.65105 618.8125 586.78125 C 616.80895 619.13604 614.83467 651.49977 613.15625 683.875 C 612.80515 691.119 612.44485 698.34975 612.09375 705.59375 C 611.31125 724.00475 698.0925 727.69225 698.875 709.28125 C 699.134 702.17025 699.39725 695.07875 699.65625 687.96875 C 701.2273 651.09794 703.35395 614.2646 705.6875 577.4375 C 719.66834 577.15323 733.66486 577.41449 747.65625 578.21875 L 761.40625 579.375 C 779.93045 580.725 786.2742 493.4125 767.75 492.0625 L 751.65625 491.0625 C 738.25798 490.57432 724.85674 490.45643 711.46875 490.6875 C 713.26842 466.4271 715.7262 442.21366 721.25 418.53125 C 726.2546 400.46025 641.067 376.8655 636.0625 394.9375 C 628.70975 428.79815 626.25764 463.39282 624.1875 497.9375 C 617.23559 499.01027 610.29656 500.20364 603.375 501.53125 C 571.26832 508.06511 539.41922 515.7215 508.15625 525.5 C 507.56755 516.72548 507.05978 507.94129 506.625 499.15625 C 506.01775 481.53914 505.44546 463.85825 505.34375 446.1875 C 506.575 445.97432 507.64839 445.50414 508.53125 444.6875 C 527.41725 426.7375 550.79345 414.8555 574.34375 404.3125 C 608.01645 390.0515 643.87195 384.133 680.21875 383.5 z M 180.6875 481.34375 C 180.81371 483.04841 180.7244 485.12828 180.4375 488.09375 C 180.3542 488.95575 179.5213 491.11375 179.125 490.34375 C 177.94582 488.05447 178.9548 484.77486 180.6875 481.34375 z M 424.6875 770.84375 C 423.83243 770.81845 423.00532 770.97481 422.21875 771.3125 C 362.81755 797.0745 304.34235 824.9065 246.78125 854.5625 C 207.86615 874.5045 169.03485 894.602 129.78125 913.875 C 113.22195 922.717 154.90945 1000.7795 171.46875 991.9375 C 209.47805 971.0825 247.9014 950.98 286.3125 930.875 C 341.8231 901.747 398.4937 874.90525 456.1875 850.40625 C 472.18113 843.53994 442.07382 771.35811 424.6875 770.84375 z "
     id="path13330" />
</svg>
