<?xml version="1.0" encoding="UTF-8" standalone="no"?>
<svg
   xmlns:dc="http://purl.org/dc/elements/1.1/"
   xmlns:cc="http://creativecommons.org/ns#"
   xmlns:rdf="http://www.w3.org/1999/02/22-rdf-syntax-ns#"
   xmlns:svg="http://www.w3.org/2000/svg"
   xmlns="http://www.w3.org/2000/svg"
   xmlns:sodipodi="http://sodipodi.sourceforge.net/DTD/sodipodi-0.dtd"
   xmlns:inkscape="http://www.inkscape.org/namespaces/inkscape"
   width="1024"
   height="1024"
   id="U7EA7"
   version="1.1"
   inkscape:version="0.48.0 r9654"
   sodipodi:docname="U+7EA7.svg">
  <metadata
     id="metadata13">
    <rdf:RDF>
      <cc:Work
         rdf:about="">
        <dc:format>image/svg+xml</dc:format>
        <dc:type
           rdf:resource="http://purl.org/dc/dcmitype/StillImage" />
      </cc:Work>
    </rdf:RDF>
  </metadata>
  <defs
     id="defs11" />
  <sodipodi:namedview
     pagecolor="#ffffff"
     bordercolor="#666666"
     borderopacity="1"
     objecttolerance="10"
     gridtolerance="10"
     guidetolerance="10"
     inkscape:pageopacity="0"
     inkscape:pageshadow="2"
     inkscape:window-width="640"
     inkscape:window-height="480"
     id="namedview9"
     showgrid="false"
     inkscape:zoom="0.27441406"
     inkscape:cx="512"
     inkscape:cy="512"
     inkscape:window-x="0"
     inkscape:window-y="25"
     inkscape:window-maximized="0"
     inkscape:current-layer="U7EA7" />
  <path
     style="fill:#550000;fill-opacity:1;fill-rule:nonzero;stroke:#f9f9f9;stroke-width:0.1;stroke-miterlimit:4;stroke-dasharray:none"
     d="M 287.53125 202.84375 C 285.50504 202.9305 283.83623 203.57412 282.625 204.875 C 260.1666 230.272 239.9592 257.498 220.1875 285 C 198.0746 315.693 178.87235 348.25625 162.40625 382.28125 C 154.33395 402.55725 142.01245 425.52525 146.15625 448.28125 C 147.49225 455.61725 150.70705 462.48875 152.96875 469.59375 C 158.55865 475.90075 162.99775 483.44725 169.71875 488.53125 C 185.50262 500.47251 204.6865 502.46843 223.84375 500.6875 C 216.57442 516.19311 209.67521 531.89229 203.09375 547.71875 C 193.53495 571.28475 185.0106 595.259 181.4375 620.5 C 178.6458 651.554 194.97965 678.41125 226.53125 685.90625 C 232.46515 687.31625 238.7188 686.4345 244.8125 686.6875 C 274.5606 682.6925 300.3675 666.805 325.625 651.625 C 339.75703 643.06075 306.10193 583.55674 286.75 575.6875 C 302.63355 536.59951 321.17312 498.68349 342.6875 462.34375 C 360.7196 431.28775 378.6126 400.08975 398.375 370.09375 C 408.9179 354.35175 334.69915 304.66425 324.15625 320.40625 C 309.38134 344.63419 295.15104 369.19571 281.03125 393.8125 C 270.7585 398.18268 260.33096 402.19731 249.625 405.375 C 261.75234 381.34744 275.76646 358.35539 291.5625 336.5 C 309.2517 312.065 327.16835 287.64725 348.03125 265.78125 C 359.73982 253.20522 307.11797 202.00518 287.53125 202.84375 z M 675.3125 249.71875 C 669.56493 249.68081 663.59892 250.17919 657.53125 251.0625 C 627.73315 254.2515 597.92765 257.34925 568.15625 260.78125 C 540.36415 263.57225 512.31135 266.1175 484.40625 263.3125 C 465.54205 261.4255 456.6359 350.33275 475.5 352.21875 C 478.12498 352.39834 480.74996 352.53482 483.375 352.65625 C 472.55828 387.22188 460.06572 421.26234 447.75 455.3125 C 420.259 527.9115 395.80025 601.5015 376.46875 676.6875 C 374.07332 686.14757 371.90504 695.65074 369.90625 705.1875 C 337.40539 723.09394 304.99873 741.18248 273.4375 760.71875 C 245.7011 777.42875 217.90085 794.00925 189.40625 809.40625 C 172.99295 818.90025 217.74295 896.27525 234.15625 886.78125 C 262.50335 869.93525 290.8342 853.05625 319 835.90625 C 330.41747 828.74343 341.9621 821.83202 353.625 815.09375 C 353.54411 815.84397 353.4559 816.59353 353.375 817.34375 C 351.698 836.17075 440.448 844.077 442.125 825.25 C 442.3296 822.334 442.5454 819.416 442.75 816.5 C 445.7182 776.566 450.99165 736.8025 460.34375 697.8125 C 478.17325 625.3965 501.7189 554.71825 528.9375 485.28125 C 545.0488 442.47925 561.2697 399.683 575.625 356.25 C 576.35396 353.87564 575.51034 351.37838 573.5 348.84375 C 574.6474 348.73086 575.79054 348.61463 576.9375 348.5 C 588.58422 347.15532 600.24442 345.88623 611.90625 344.6875 C 610.18177 347.67977 608.45338 350.6836 606.75 353.625 C 589.1506 384.272 572.94275 415.704 557.28125 447.375 C 549.58635 465.07 537.4404 484.443 540.125 504.75 C 541.0816 511.985 544.01585 518.81175 545.96875 525.84375 C 565.69835 556.64775 595.5614 557.77775 628.3125 558.71875 C 653.5859 559.05075 678.7859 561.04725 703.9375 563.40625 C 711.38992 564.27593 718.91124 564.96072 726.40625 565.78125 C 720.29578 578.48798 713.7701 591.04311 707.28125 603.5 C 691.62265 632.60325 675.81631 661.64781 660.28125 690.8125 C 653.82601 687.78609 647.35772 684.78115 640.875 681.8125 C 602.8292 664.6545 563.7599 649.23375 527.4375 628.59375 C 511.6019 618.21375 462.6644 692.87 478.5 703.25 C 519.2639 725.637 562.8117 742.4155 605.25 761.3125 C 610.30348 763.61146 615.34222 765.90752 620.375 768.25 C 608.45603 792.13386 596.51963 815.99854 583.96875 839.5625 C 580.01236 848.23605 575.63438 853.33876 573.875 855.125 C 575.18524 854.00109 578.3353 851.53189 584.125 847.8125 C 571.75839 861.46572 593.94453 936.96406 611.09375 932.1875 C 618.05825 928.9205 625.49485 926.531 631.96875 922.375 C 646.72145 912.906 654.15705 895.07175 662.53125 880.59375 C 675.0936 856.06478 687.08029 831.25253 699.1875 806.5 C 715.90029 814.83321 732.57642 823.21882 749.28125 831.5625 C 779.38515 846.0875 808.77565 862.00575 837.34375 879.34375 C 847.23735 885.48875 842.764 882.5725 850.75 887.9375 C 866.6672 898.1765 914.94845 823.14525 899.03125 812.90625 C 888.56005 806.38325 894.0323 809.69975 882.625 802.96875 C 851.8086 785.08475 820.37425 768.33375 788.15625 753.09375 C 771.73816 745.03414 755.31212 736.96275 738.90625 728.875 C 753.9955 700.64657 769.45658 672.63195 784.96875 644.625 C 800.63805 615.432 817.65535 586.12675 826.03125 553.84375 C 826.31525 547.45875 827.8464 541.0045 826.875 534.6875 C 822.5681 506.6795 801.9064 489.92025 775.8125 483.65625 C 754.8016 479.20625 733.4447 476.94375 712.0625 475.09375 C 689.61288 473.07398 667.11597 471.27713 644.59375 470.34375 C 656.53689 445.84383 669.09139 421.64083 682.84375 398.09375 C 698.59305 371.37075 716.28155 345.4875 728.78125 317.0625 C 729.45275 307.9635 733.55885 298.47125 730.78125 289.78125 C 721.22243 259.87394 700.21864 249.88314 675.3125 249.71875 z M 678.21875 338.75 C 678.77977 338.74961 679.09571 338.79124 679.1875 338.8125 C 678.99756 338.86501 677.73652 338.92703 675.96875 338.8125 C 676.92045 338.77484 677.71291 338.75035 678.21875 338.75 z M 235.21875 439.59375 C 235.42327 441.81827 235.29069 443.9825 234.40625 445.53125 C 234.07067 446.11844 233.76739 444.74926 235.21875 439.59375 z M 629 507.03125 C 628.92364 508.63084 628.77538 508.57138 629 507.03125 z M 754.03125 570.1875 C 754.7381 570.35644 755.45174 570.53838 756.15625 570.71875 C 756.91435 571.02575 757.7872 571.16025 758.4375 571.65625 C 759.78381 572.68227 756.39658 571.41892 754.03125 570.1875 z M 270.34375 628.46875 C 270.32696 629.32893 270.26278 630.20961 270.15625 631.09375 C 270.18651 630.21469 270.27186 629.34244 270.34375 628.46875 z M 573.84375 855.15625 C 572.79975 856.0554 572.92157 856.08935 573.84375 855.15625 z "
     id="path8411" />
</svg>
