<?xml version="1.0" encoding="UTF-8" standalone="no"?>
<svg
   xmlns:dc="http://purl.org/dc/elements/1.1/"
   xmlns:cc="http://creativecommons.org/ns#"
   xmlns:rdf="http://www.w3.org/1999/02/22-rdf-syntax-ns#"
   xmlns:svg="http://www.w3.org/2000/svg"
   xmlns="http://www.w3.org/2000/svg"
   xmlns:sodipodi="http://sodipodi.sourceforge.net/DTD/sodipodi-0.dtd"
   xmlns:inkscape="http://www.inkscape.org/namespaces/inkscape"
   width="1024"
   height="1024"
   id="U7EE9"
   version="1.1"
   inkscape:version="0.48.0 r9654"
   sodipodi:docname="U+7EE9.svg">
  <metadata
     id="metadata18">
    <rdf:RDF>
      <cc:Work
         rdf:about="">
        <dc:format>image/svg+xml</dc:format>
        <dc:type
           rdf:resource="http://purl.org/dc/dcmitype/StillImage" />
      </cc:Work>
    </rdf:RDF>
  </metadata>
  <defs
     id="defs16" />
  <sodipodi:namedview
     pagecolor="#ffffff"
     bordercolor="#666666"
     borderopacity="1"
     objecttolerance="10"
     gridtolerance="10"
     guidetolerance="10"
     inkscape:pageopacity="0"
     inkscape:pageshadow="2"
     inkscape:window-width="640"
     inkscape:window-height="480"
     id="namedview14"
     showgrid="false"
     inkscape:zoom="0.27441406"
     inkscape:cx="512"
     inkscape:cy="512"
     inkscape:window-x="0"
     inkscape:window-y="25"
     inkscape:window-maximized="0"
     inkscape:current-layer="U7EE9" />
  <path
     style="fill:#550000;fill-opacity:1;fill-rule:nonzero;stroke:#f9f9f9;stroke-width:0.1;stroke-miterlimit:4;stroke-dasharray:none"
     d="M 567.71875 185.84375 C 553.71585 186.00858 542.68356 188.82563 541.8125 195.28125 C 539.10511 225.40321 539.26765 255.63516 540.15625 285.84375 C 534.60146 286.52696 529.05419 287.21735 523.5 287.90625 C 488.3579 292.34425 453.1777 297.08575 417.8125 299.34375 C 412.65896 299.75459 409.47749 306.70182 407.90625 316.53125 C 384.53852 308.19581 355.96534 304.62685 352.9375 314.875 C 345.12075 343.56535 334.21533 371.21051 322.5625 398.53125 C 311.83186 403.59984 300.93052 408.26193 289.5 411.625 C 270.34234 417.3412 250.89239 422.29946 231.09375 425.09375 C 241.13707 399.09842 255.72847 374.60071 267.3125 349.5 C 286.4556 313.01 306.40335 276.98725 325.84375 240.65625 C 334.07555 223.58325 253.57555 184.77075 245.34375 201.84375 C 227.81155 238.08275 208.45405 273.4 189.90625 309.125 C 169.75495 348.832 148.65565 388.36925 136.59375 431.40625 C 127.93255 487.86625 154.3705 512.4675 208.8125 515.9375 C 230.55499 515.28229 251.98103 511.92412 273.125 507.15625 C 264.22655 526.371 255.45635 545.64138 247.21875 565.15625 C 238.84535 587.93125 227.90135 613.05175 233.15625 637.96875 C 234.30215 643.40275 236.65415 648.51225 238.40625 653.78125 C 255.20645 683.27225 283.4918 687.55025 314.1875 683.40625 C 335.3637 679.86125 355.66405 672.81025 375.34375 664.40625 C 386.86455 658.87125 381.29955 661.702 392.03125 656 C 397.76845 652.89153 396.49142 641.52577 391.65625 628.34375 C 426.621 620.11137 461.05962 609.80579 495.53125 599.75 C 548.76665 583.072 603.55885 573.0415 658.78125 565.9375 C 699.77805 561.0465 741.0113 558.789 782.25 557.25 C 796.3038 557.256 810.63825 555.76975 824.59375 558.09375 C 843.43055 560.21975 853.4617 471.40725 834.625 469.28125 C 815.8886 467.54225 797.0911 467.8565 778.3125 468.9375 C 734.599 471.2005 690.8902 474.1485 647.4375 479.5625 C 641.81261 480.31465 636.17862 481.09909 630.5625 481.90625 C 630.58242 480.21007 630.60701 478.50868 630.625 476.8125 C 643.2831 475.528 655.94658 474.47363 668.65625 473.75 C 676.99145 473.188 685.2968 473.3495 693.5625 474.4375 C 712.4046 476.0715 720.0921 387.259 701.25 385.625 C 688.4427 384.771 675.66415 384.326 662.84375 385.5 C 652.06113 386.29748 641.28331 387.27542 630.53125 388.375 C 630.4092 380.05253 630.25969 371.72769 630.0625 363.40625 C 637.00125 362.54818 643.94038 361.67396 650.875 360.78125 C 673.9831 358.05125 696.99475 354.50875 719.90625 350.46875 C 738.51405 346.99575 722.13905 259.277 703.53125 262.75 C 682.22225 266.969 660.76875 270.495 639.21875 273.25 C 635.29852 273.78979 631.39072 274.31794 627.46875 274.84375 C 627.17287 252.25267 627.64207 229.6863 630.34375 207.25 C 632.00662 194.92563 594.45156 185.52908 567.71875 185.84375 z M 543.21875 373.9375 C 543.405 382.50536 543.54052 391.08719 543.625 399.65625 C 543.59446 399.66086 543.56179 399.65164 543.53125 399.65625 C 507.99585 404.97625 472.52705 410.84875 436.78125 414.59375 C 417.93025 416.55375 427.18035 505.42875 446.03125 503.46875 C 478.37805 498.73868 510.63105 493.52431 542.9375 488.53125 C 542.86723 491.51547 542.79266 494.48599 542.6875 497.46875 C 518.74818 502.63572 494.97997 508.62356 471.46875 515.71875 C 437.47335 525.26275 403.5416 535.297 368.8125 541.875 C 360.43716 543.62622 359.57446 562.40174 362.84375 582.125 C 357.77025 577.62212 353.04699 575.57799 349.5 577.5 C 343.2414 581.004 346.46095 579.26425 339.78125 582.65625 C 337.93308 583.48369 336.08782 584.28409 334.21875 585.0625 C 351.65845 543.228 371.69125 502.51149 390.375 461.21875 C 401.23968 436.88065 411.97872 412.47641 421.6875 387.65625 C 422.72538 388.17118 423.78174 388.4334 424.90625 388.34375 C 461.54205 384.53475 498.06555 379.707 534.59375 375 C 537.46805 374.63699 540.34378 374.29489 543.21875 373.9375 z M 224.125 446.5625 C 225.15773 449.80313 225.06486 453.19577 222.96875 456.4375 C 222.43515 457.2635 222.6097 454.49925 222.4375 453.53125 C 222.94012 451.19272 223.52179 448.86933 224.125 446.5625 z M 751.03125 592.34375 C 733.71155 593.40875 716.43995 595.11575 699.09375 595.84375 C 666.35205 598.29375 633.64345 601.68275 601.40625 608.09375 C 570.34505 614.41275 539.2984 621.16225 509.0625 630.78125 C 502.91063 632.97836 502.45357 644.406 505.21875 658.1875 C 480.65907 657.16688 452.98317 662.07142 453.0625 672.625 C 454.6961 708.943 460.57225 744.853 466.71875 780.625 C 472.03625 809.923 477.293 839.31 485.8125 867.875 C 491.7486 882.888 487.93475 875.0435 497.96875 891.0625 C 509.12403 905.47216 574.69949 855.64934 569.8125 838.28125 C 569.85803 838.37402 569.8933 838.47273 569.9375 838.5625 C 562.09984 814.88896 558.46336 789.9861 553.46875 765.625 C 550.42612 748.1158 547.37655 730.53925 545.25 712.875 C 569.32033 704.87891 594.24522 699.62128 619.0625 694.53125 C 647.4725 688.81825 676.33945 686.193 705.21875 684.375 C 714.35644 684.1701 723.47331 683.55489 732.59375 682.9375 C 734.80643 712.06899 734.17205 741.37269 733.90625 770.5625 C 733.41815 801.4275 733.35985 832.29125 733.78125 863.15625 C 734.36225 882.05025 823.42475 879.3315 822.84375 860.4375 C 821.37315 830.8035 821.44355 801.0995 821.84375 771.4375 C 822.25715 733.7115 823.434 695.825 819.375 658.25 C 811.6684 618.43 795.51175 592.34375 751.03125 592.34375 z M 569.9375 838.5625 C 570.21383 839.39715 570.49425 840.23095 570.78125 841.0625 C 572.85401 844.09266 572.23908 843.23659 569.9375 838.5625 z M 755.71875 681.59375 C 755.09671 681.75958 754.27948 681.76464 753.34375 681.6875 C 754.13529 681.6533 754.92708 681.62318 755.71875 681.59375 z M 401 699.65625 C 400.11638 699.65395 399.27154 699.84816 398.46875 700.21875 C 383.47545 707.38875 391.3249 703.52675 375 711.84375 C 333.912 733.86175 294.50555 758.85425 257.15625 786.78125 C 225.80265 810.38025 195.1182 834.8275 165.0625 860.0625 C 150.5745 872.3085 208.29335 940.58975 222.78125 928.34375 C 250.52265 902.86375 279.9016 879.28 309.875 856.5 C 343.3046 831.382 378.71865 809.06175 415.96875 790.09375 C 429.98785 783.36175 423.3927 786.3875 435.75 780.9375 C 452.07331 773.40209 418.967 699.70307 401 699.65625 z M 628.78125 752.53125 C 605.12596 752.49304 580.02954 757.86872 580.28125 767.9375 C 582.02565 801.4025 576.79405 834.60125 570.84375 867.40625 C 563.71035 902.76225 555.5562 937.96 545.5625 972.625 C 543.009 980.508 544.39535 977.57975 542.21875 981.71875 C 535.62415 999.51875 619.5305 1030.6125 626.125 1012.8125 C 629.6513 1002.1705 627.92035 1007.8053 631.21875 995.90625 C 637.55228 971.28863 643.41958 946.55059 648.875 921.71875 C 664.4941 931.16927 680.34396 940.23352 696.15625 949.34375 C 727.79245 967.26875 759.24345 985.4925 790.28125 1004.4375 C 803.00525 1012.3195 796.9238 1008.5333 808.625 1015.7812 C 824.777 1025.5543 870.8395 949.42925 854.6875 939.65625 C 842.7535 932.60425 849.05395 936.326 835.84375 928.5 C 804.13705 909.82 772.15335 891.56825 740.21875 873.28125 C 715.00334 858.58946 689.50261 844.13867 665.90625 826.90625 C 668.38508 806.6113 669.87532 786.20561 669.625 765.6875 C 669.40291 756.80328 649.65357 752.56497 628.78125 752.53125 z "
     id="path8339" />
</svg>
