<?xml version="1.0" encoding="UTF-8" standalone="no"?>
<svg
   xmlns:dc="http://purl.org/dc/elements/1.1/"
   xmlns:cc="http://creativecommons.org/ns#"
   xmlns:rdf="http://www.w3.org/1999/02/22-rdf-syntax-ns#"
   xmlns:svg="http://www.w3.org/2000/svg"
   xmlns="http://www.w3.org/2000/svg"
   xmlns:sodipodi="http://sodipodi.sourceforge.net/DTD/sodipodi-0.dtd"
   xmlns:inkscape="http://www.inkscape.org/namespaces/inkscape"
   width="1024"
   height="1024"
   id="U7EED"
   version="1.1"
   inkscape:version="0.48.0 r9654"
   sodipodi:docname="U+7EED.svg">
  <metadata
     id="metadata18">
    <rdf:RDF>
      <cc:Work
         rdf:about="">
        <dc:format>image/svg+xml</dc:format>
        <dc:type
           rdf:resource="http://purl.org/dc/dcmitype/StillImage" />
      </cc:Work>
    </rdf:RDF>
  </metadata>
  <defs
     id="defs16" />
  <sodipodi:namedview
     pagecolor="#ffffff"
     bordercolor="#666666"
     borderopacity="1"
     objecttolerance="10"
     gridtolerance="10"
     guidetolerance="10"
     inkscape:pageopacity="0"
     inkscape:pageshadow="2"
     inkscape:window-width="640"
     inkscape:window-height="480"
     id="namedview14"
     showgrid="false"
     inkscape:zoom="0.27441406"
     inkscape:cx="512"
     inkscape:cy="512"
     inkscape:window-x="0"
     inkscape:window-y="25"
     inkscape:window-maximized="0"
     inkscape:current-layer="U7EED" />
  <path
     style="fill:#916f6f;fill-opacity:1;fill-rule:nonzero;stroke:#f9f9f9;stroke-width:0.1;stroke-miterlimit:4;stroke-dasharray:none"
     d="M 640.96875 100.8125 C 632.35839 100.90975 626.09965 102.85075 624.875 107.375 C 621.84513 120.64573 619.52578 134.0446 617.6875 147.5 C 605.98311 150.31746 594.37615 153.53011 582.875 157.21875 C 551.7777 167.57075 521.3861 179.7135 491.1875 192.4375 C 474.1132 200.2425 510.9258 280.7425 528 272.9375 C 554.65119 260.47536 581.88953 249.45834 609.75 240.03125 C 607.91695 272.97269 604.6605 305.80753 601.625 338.65625 C 564.65515 348.8782 527.82102 359.5579 491.21875 371.03125 C 452.42205 383.86025 413.5158 397.00175 377.3125 416.21875 C 361.0851 425.64575 405.5226 502.14675 421.75 492.71875 C 452.175 475.36675 485.5801 464.19625 518.625 453.03125 C 569.8891 436.68825 621.7281 422.24325 673.75 408.53125 C 717.3069 397.39925 761.3042 388.07975 805.5625 380.21875 C 831.2434 375.65175 857.174 372.69275 883.25 372.09375 C 884.67197 371.84723 886.0434 371.73605 887.375 371.6875 C 887.30503 373.5152 887.64087 376.07402 887.5625 378.3125 C 885.3972 403.8355 877.64045 428.43925 870.09375 452.78125 C 864.29655 471.09825 857.1245 488.86325 849.0625 506.28125 C 841.3846 523.21225 921.1971 559.431 928.875 542.5 C 938.1747 521.657 946.6268 500.4735 953.5 478.6875 C 963.716 445.8265 973.9333 412.51925 975.5625 377.90625 C 975.0065 348.12925 969.18635 320.016 945.15625 300 C 925.08685 286.806 904.3463 281.952 880.375 284.125 C 850.0047 285.334 819.84325 288.9095 789.96875 294.5625 C 756.88437 300.73231 723.91377 307.59085 691.15625 315.3125 C 693.20436 289.38788 695.29664 263.47799 696.59375 237.5 C 696.97859 232.10614 697.36689 226.6889 697.75 221.28125 C 705.68545 220.29872 713.66198 219.45304 721.625 218.71875 C 738.0035 217.40475 754.4139 217.1255 770.8125 218.0625 C 789.4782 218.7505 792.7283 130.7515 774.0625 130.0625 C 753.7312 129.5985 733.3886 130.08975 713.125 131.96875 C 711.98687 132.08533 710.85656 132.22357 709.71875 132.34375 C 709.87661 131.71911 710.02512 131.09252 710.1875 130.46875 C 713.86145 116.896 666.79984 100.52075 640.96875 100.8125 z M 234.28125 194.75 C 229.46638 194.73973 225.92216 195.98252 224.5 198.875 C 211.2252 230.14 194.9281 259.89575 178.3125 289.46875 C 163.0263 317.77075 146.51885 345.4735 133.53125 374.9375 C 122.70885 402.1895 123.0576 431.5905 145.5625 453.4375 C 150.484 458.2145 157.03935 460.96675 162.78125 464.71875 C 182.50162 472.96859 202.52137 473.95991 222.53125 471.5625 C 219.45458 478.63736 216.46769 485.74999 213.5625 492.90625 C 203.2157 520.67225 192.3215 548.1975 179.8125 575.0625 C 175.5577 585.2775 169.16195 594.27925 163.84375 603.90625 C 143.24175 648.54525 173.2908 681.64775 221.1875 672.96875 C 247.348 664.61575 273.2486 655.4765 299.3125 646.8125 C 325.8863 637.9615 352.9799 630.866 379.8125 622.875 C 383.9568 621.501 388.1057 620.124 392.25 618.75 C 409.9152 612.782 381.7903 529.50075 364.125 535.46875 C 360.9164 536.57975 357.7086 537.67025 354.5 538.78125 C 330.00932 546.25421 305.27522 552.94038 280.90625 560.8125 C 285.50276 548.9806 289.94483 537.07637 294.25 525.125 C 311.623 480.755 333.40165 438.448 356.40625 396.75 C 373.82395 364.254 390.87335 331.4105 411.53125 300.8125 C 421.97145 285.2255 348.5027 236.00675 338.0625 251.59375 C 317.0197 285.45575 298.64615 320.86875 280.03125 356.09375 C 277.92201 359.9489 275.83713 363.8216 273.75 367.6875 C 263.27388 371.60604 252.69268 375.20178 241.90625 378.21875 C 236.12168 379.76612 231.89852 380.97959 227.1875 382.09375 C 235.81616 365.24903 245.42783 348.85724 254.15625 332.09375 C 271.56965 301.12775 288.56115 269.962 303.84375 237.875 C 310.69599 223.93848 257.48016 194.79946 234.28125 194.75 z M 896.09375 372.5 C 899.98821 373.38527 900.93931 374.3808 896.09375 372.5 z M 712.34375 440.03125 C 706.10395 439.99943 701.5873 441.48713 700.1875 445.03125 C 685.421 488.38525 677.12505 533.519 667.78125 578.25 C 657.53099 626.43184 646.29661 674.40349 634.34375 722.1875 C 607.47853 730.96251 580.66955 739.88111 553.78125 748.59375 C 517.38825 759.73175 480.7442 770.52825 443.0625 776.40625 C 424.5878 779.62525 439.7753 866.719 458.25 863.5 C 499.3095 855.431 539.4201 843.57375 579.3125 831.09375 C 588.87658 827.94205 598.44279 824.76527 608 821.59375 C 597.09016 860.33329 585.90807 898.99884 572.03125 936.78125 C 568.73445 946.13525 564.7754 955.17525 559.875 963.78125 C 551.2362 980.35825 629.3612 1021.078 638 1004.5 C 644.2414 991.958 650.0701 979.269 654.3125 965.875 C 671.7148 914.892 685.3785 862.7225 699.6875 810.8125 C 701.49959 803.8583 703.30341 796.89733 705.09375 789.9375 C 716.62574 786.31734 728.19575 782.73574 739.78125 779.28125 C 781.91915 766.40725 824.93885 757.0515 868.34375 749.6875 C 892.91115 745.3335 917.77325 743.212 942.59375 741 C 961.21225 739.151 952.4935 651.36975 933.875 653.21875 C 906.9528 656.19175 879.9662 658.85075 853.3125 663.84375 C 811.56583 671.36531 770.13977 680.51168 729.40625 692.375 C 737.10965 660.41565 744.56008 628.39181 751.75 596.3125 C 760.5802 556.4065 768.1375 515.911 782.4375 477.5 C 787.929 463.59533 736.82295 440.1561 712.34375 440.03125 z M 501.25 484.84375 C 483.11093 486.22951 447.74406 555.43063 463.28125 563.65625 C 490.72245 577.89525 517.7696 592.9075 544.5 608.4375 C 558.8739 616.7745 572.8831 625.67425 586.4375 635.28125 C 601.791 645.88825 651.791 573.51325 636.4375 562.90625 C 620.733 552.27125 604.71675 542.15225 588.21875 532.78125 C 560.47325 516.83225 532.3775 501.47025 504.625 485.53125 C 503.58919 484.98287 502.45927 484.75137 501.25 484.84375 z M 523.53125 612.3125 C 504.13886 613.2856 456.9538 668.613 469.65625 679.9375 C 489.11755 697.0125 507.9273 714.801 525.4375 733.875 C 528.2106 737.08 530.977 740.296 533.75 743.5 C 545.9941 757.496 611.96275 699.77725 599.71875 685.78125 L 589.6875 674.375 C 570.1195 653.386 549.3661 633.629 528.5625 613.875 C 527.24845 612.70341 525.53736 612.21183 523.53125 612.3125 z M 408.15625 676.6875 C 407.28504 676.68436 406.44811 676.85416 405.65625 677.21875 C 401.00585 679.42875 396.36905 681.665 391.71875 683.875 C 347.27875 707.008 305.9106 735.38175 266.9375 766.84375 C 231.4055 796.57575 196.9725 827.76325 167.0625 863.28125 C 155.7235 878.21525 226.0985 931.65375 237.4375 916.71875 C 262.1116 885.31275 291.9137 858.5505 322.375 832.9375 C 356.2689 805.7745 392.05655 780.8615 431.15625 761.8125 C 434.88295 760.1645 438.61705 758.522 442.34375 756.875 C 458.44499 749.46064 425.8709 676.75129 408.15625 676.6875 z M 785.5 831.9375 C 763.77715 832.48569 710.64628 870.64078 719.59375 884.0625 C 739.19945 911.2455 763.5473 934.3105 788.75 956.1875 C 814.6799 978.8455 843.8017 997.245 873.625 1014.25 C 886.7169 1021.509 880.2839 1018.0845 892.875 1024.5625 C 909.6263 1032.8955 948.90765 953.92675 932.15625 945.59375 C 922.54595 941.04275 927.75035 943.6245 916.53125 937.6875 C 891.62755 923.9865 867.3975 909.00875 845.9375 890.21875 C 826.6691 873.54675 807.68745 856.13175 793.21875 834.96875 C 791.75462 832.77261 789.05465 831.8478 785.5 831.9375 z "
     id="path12665" />
</svg>
