<?xml version="1.0" encoding="utf-8" ?>

<!DOCTYPE svg PUBLIC "-//W3C//DTD SVG 1.1//EN" 
  "http://www.w3.org/Graphics/SVG/1.1/DTD/svg11.dtd">
<svg 
    xmlns="http://www.w3.org/2000/svg"
    xmlns:xlink="http://www.w3.org/1999/xlink"
    xmlns:sodipodi="http://sodipodi.sourceforge.net/DTD/sodipodi-0.dtd"
    xmlns:inkscape="http://www.inkscape.org/namespaces/inkscape"
    width="1024" height="1024" id="U7EB8">
<path d="m 10527.924,64794.181 c -19.143,26.854 -34.177,56.246 -47.761,86.204 -6.4,21.35 -24.573,49.71 -15.359,72.823 0.491,-0 1.128,0.337 1.472,-0.01 0.886,-0.901 -0.235,-2.97 0.791,-3.706 1.98,-1.418 14.205,0.954 15.793,1.055 20.24,0.508 40.47,-1.363 60.49,-4.204 4.839,-0.834 9.724,-1.386 14.466,-2.686 18.376,-3.966 37.074,82.659 18.698,86.626 l 0,0 c -7.212,1.413 -14.445,2.638 -21.75,3.491 -26.743,3.258 -53.728,5.487 -80.682,4.064 -46.728,-5.44 -80.736,-20.515 -95.671,-68.802 -0.947,-6.738 -2.475,-13.421 -2.842,-20.216 -1.964,-36.324 12.29,-71.343 25.504,-104.319 15.718,-34.62 33.065,-68.473 53.914,-100.331 10.61,-15.472 83.547,34.542 72.937,50.014 z" id="path14933" inkscape:connector-curvature="0" style="fill:#2b1100;fill-opacity:1;fill-rule:nonzero;stroke:none" transform="translate(-10240, -64512)"/><path d="m 10636.834,64913.839 c -19.897,18.595 -35.047,41.459 -50.045,63.995 -23.381,35.679 -44.058,72.997 -62.971,111.203 -3.103,10.203 -29.143,55.386 -23.687,65.033 2.037,-11.267 -4.014,-19.42 -12.01,-26.745 -1.618,-1.482 -4.008,-1.906 -5.673,-3.333 -1.697,-1.456 4.378,-0.952 6.599,-1.21 21.438,-3.315 42.167,-10.005 63.083,-15.594 10.885,-2.831 5.918,-1.476 14.915,-4.009 18.129,-4.788 40.701,80.677 22.572,85.465 l 0,0 c -9.928,2.477 -4.81,1.224 -15.359,3.751 -25.976,6.529 -51.618,14.878 -78.3,18.128 -46.507,3.053 -79.595,-9.114 -83.908,-61.676 3.724,-35.159 18.514,-67.068 34.038,-98.549 20.684,-41.249 43.009,-81.668 68.076,-120.441 18.7,-28.493 38.007,-56.84 62.422,-80.841 13.751,-12.781 73.999,52.042 60.248,64.823 z" id="path14935" inkscape:connector-curvature="0" style="fill:#2b1100;fill-opacity:1;fill-rule:nonzero;stroke:none" transform="translate(-10240, -64512)"/><path d="m 10386.421,65321.147 c 31.936,-16.489 62.381,-35.736 92.716,-54.966 27.89,-17.67 54.969,-36.573 81.865,-55.707 2.029,-1.541 4.057,-3.082 6.086,-4.624 15.087,-11.064 67.243,60.057 52.156,71.121 l 0,0 c -2.699,1.925 -5.397,3.85 -8.095,5.775 -28.322,19.173 -56.619,38.397 -85.49,56.737 -32.843,20.867 -65.814,41.592 -99.725,60.691 -16.764,8.382 -56.277,-70.645 -39.513,-79.027 z" id="path14937" inkscape:connector-curvature="0" style="fill:#2b1100;fill-opacity:1;fill-rule:nonzero;stroke:none" transform="translate(-10240, -64512)"/><path d="m 10969.994,64789.816 c -21.269,7.65 -38.262,23.483 -54.911,38.187 -33.176,30.59 -62.131,65.29 -89.98,100.684 -23.908,30.438 -44.705,63.102 -63.759,96.743 -4.374,7.787 -8.589,15.655 -12.587,23.641 -8.701,16.598 -86.943,-24.422 -78.241,-41.019 l 0,0 c 4.866,-8.965 9.871,-17.85 15.074,-26.625 21.826,-36.737 45.138,-72.62 71.585,-106.238 31.065,-39.411 63.27,-78.115 100.114,-112.33 26.725,-23.798 54.617,-47.25 89.264,-58.436 18.114,-4.972 41.555,80.42 23.441,85.393 z" id="path14949" inkscape:connector-curvature="0" style="fill:#2b1100;fill-opacity:1;fill-rule:nonzero;stroke:none" transform="translate(-10240, -64512)"/><path d="m 10756.251,65025.055 c -5.937,35.553 -8.86,71.516 -11.262,107.452 -3.066,44.449 -0.919,88.933 4.014,133.141 3.95,33.145 11.375,65.718 19.334,98.088 4.797,18.635 10.08,37.14 15.252,55.673 0.09,1.885 5.964,17.492 1.83,6.39 9.009,16.55 -69.011,59.02 -78.021,42.469 l 0,0 c -3.886,-8.406 -7.205,-16.819 -9.182,-25.904 -5.014,-19.383 -10.33,-38.688 -15.067,-58.142 -8.496,-36.086 -16.346,-72.393 -20.495,-109.279 -5.124,-49.175 -7.385,-98.623 -4.186,-148.032 2.4,-38.302 5.582,-76.549 10.296,-114.642 2.713,-18.559 90.199,-5.772 87.487,12.786 z" id="path14951" inkscape:connector-curvature="0" style="fill:#2b1100;fill-opacity:1;fill-rule:nonzero;stroke:none" transform="translate(-10240, -64512)"/><path d="m 10699.751,65176.767 c 35.854,-11.554 72.195,-21.466 108.619,-31.032 49.682,-11.829 98.887,-25.211 147.129,-41.987 37.031,-13.928 73.506,-29.207 111.276,-41.066 20.697,-6.51 42.064,-9.292 63.684,-9.25 18.788,0.292 17.413,88.857 -1.374,88.565 l 0,0 c -12.48,-0.514 -24.723,0.922 -36.752,4.508 -36.958,10.865 -72.454,25.788 -108.615,38.969 -50.271,17.247 -101.417,31.387 -153.061,43.931 -34.226,9.25 -68.491,18.626 -101.773,30.929 -17.727,6.181 -46.861,-77.387 -29.133,-83.567 z" id="path14953" inkscape:connector-curvature="0" style="fill:#2b1100;fill-opacity:1;fill-rule:nonzero;stroke:none" transform="translate(-10240, -64512)"/><path d="m 10870.722,64895.655 c 8.07,28.825 20.317,56.301 31.698,83.928 17.638,42.2 34.211,84.832 50.858,127.429 15.772,40.807 31.735,81.533 49.834,121.372 11.808,26.219 26.984,50.588 43.442,74.084 10.359,15.141 22.376,28.965 34.696,42.51 5.455,5.133 9.654,12.06 15.874,16.282 -3.923,-2.756 5.552,1.749 -0,-0.642 -4.443,-1.509 -9.391,-1.025 -13.936,-0.168 7.947,-3.766 15.616,-8.099 23.296,-12.381 16.265,-9.22 59.728,67.457 43.463,76.677 l 0,0 c -12.101,6.961 -24.164,14.129 -37.142,19.37 -13.531,4.354 -27.373,6.213 -41.145,1.664 -10.32,-3.354 -20.149,-7.985 -28.94,-14.423 -10.05,-8.152 -18.821,-17.543 -27.181,-27.408 -14.581,-16.448 -28.736,-33.285 -41.117,-51.485 -19.259,-28.04 -36.843,-57.189 -50.621,-88.368 -18.435,-41.289 -34.983,-83.354 -51.24,-125.542 -16.416,-42.022 -32.838,-84.05 -50.478,-125.578 -13.058,-31.149 -26.774,-62.136 -36.836,-94.423 -4.857,-18.134 80.627,-41.032 85.484,-22.898 z" id="path14959" inkscape:connector-curvature="0" style="fill:#2b1100;fill-opacity:1;fill-rule:nonzero;stroke:none" transform="translate(-10240, -64512)"/></svg>