<?xml version="1.0" encoding="UTF-8" standalone="no"?>
<svg
   xmlns:dc="http://purl.org/dc/elements/1.1/"
   xmlns:cc="http://creativecommons.org/ns#"
   xmlns:rdf="http://www.w3.org/1999/02/22-rdf-syntax-ns#"
   xmlns:svg="http://www.w3.org/2000/svg"
   xmlns="http://www.w3.org/2000/svg"
   xmlns:sodipodi="http://sodipodi.sourceforge.net/DTD/sodipodi-0.dtd"
   xmlns:inkscape="http://www.inkscape.org/namespaces/inkscape"
   width="1024"
   height="1024"
   id="U7EE7"
   version="1.1"
   inkscape:version="0.48.0 r9654"
   sodipodi:docname="U+7EE7.svg">
  <metadata
     id="metadata17">
    <rdf:RDF>
      <cc:Work
         rdf:about="">
        <dc:format>image/svg+xml</dc:format>
        <dc:type
           rdf:resource="http://purl.org/dc/dcmitype/StillImage" />
      </cc:Work>
    </rdf:RDF>
  </metadata>
  <defs
     id="defs15" />
  <sodipodi:namedview
     pagecolor="#ffffff"
     bordercolor="#666666"
     borderopacity="1"
     objecttolerance="10"
     gridtolerance="10"
     guidetolerance="10"
     inkscape:pageopacity="0"
     inkscape:pageshadow="2"
     inkscape:window-width="640"
     inkscape:window-height="480"
     id="namedview13"
     showgrid="false"
     inkscape:zoom="0.27441406"
     inkscape:cx="512"
     inkscape:cy="512"
     inkscape:window-x="0"
     inkscape:window-y="25"
     inkscape:window-maximized="0"
     inkscape:current-layer="U7EE7" />
  <path
     style="fill:#550000;fill-opacity:1;fill-rule:nonzero;stroke:#f9f9f9;stroke-width:0.1;stroke-miterlimit:4;stroke-dasharray:none"
     d="M 649.8125 200.5 C 637.61165 200.3636 628.26831 202.68812 627.125 208.5 C 619.72 258.751 619.4572 309.693 618.5625 360.375 C 618.49896 367.24693 618.44535 374.12829 618.375 381 C 594.471 366.52657 572.32962 349.63483 549.78125 333.0625 C 542.1756 328.49952 528.07494 342.84646 516.875 360.40625 C 517.17651 346.19722 517.08274 331.9603 516.4375 317.71875 C 515.2594 288.99875 513.0589 260.21675 514.375 231.46875 C 515.2524 212.51675 425.9399 208.39175 425.0625 227.34375 C 424.5371 258.87675 426.9787 290.3445 428.625 321.8125 C 431.8788 378.5105 425.4962 434.999 418.25 491.125 C 408.9843 555.505 397.51535 619.535 388.84375 684 C 387.55745 693.41801 386.47675 702.86212 385.625 712.3125 C 384.78073 712.42199 383.97907 712.6793 383.25 713.125 C 373.2682 719.417 363.1255 725.43525 352.875 731.28125 C 320.5779 749.85925 288.5004 768.791 256.5 787.875 C 226.5426 805.62 196.6309 823.8055 164.625 837.6875 C 147.2583 845.2505 182.91455 927.09425 200.28125 919.53125 C 235.09295 902.93025 268.16655 883.03275 301.28125 863.34375 C 329.90106 846.2698 358.70115 829.49657 387.78125 813.21875 C 394.67957 845.19922 411.67353 863.61046 442.28125 877.09375 C 470.89285 886.03975 501.19525 886.573 530.90625 887.75 C 572.57825 890.021 613.9588 886.0845 655 879.1875 C 693.6642 871.5325 731.5412 860.57525 770.0625 852.28125 C 795.5073 847.17925 821.15655 843.083 846.71875 838.625 C 859.95895 836.405 873.0746 833.53825 886.125 830.40625 C 904.5582 825.74625 882.58945 738.87125 864.15625 743.53125 C 853.17385 746.47725 842.10535 749.0685 830.90625 751.0625 C 804.33495 756.0295 777.68295 760.56975 751.21875 766.09375 C 714.10975 774.33475 677.5331 784.757 640.3125 792.5 C 605.4092 798.482 570.1987 801.67675 534.75 799.46875 C 514.7849 798.50875 494.73605 797.725 475.03125 794.125 C 476.18555 798.221 478.99555 805.8225 474.59375 795.0625 C 468.90125 762.0345 471.5201 728.33675 475.25 695.21875 C 475.89906 690.03774 476.56214 684.86272 477.25 679.6875 C 494.55791 697.96581 544.22629 720.02236 551 706.9375 C 560.6308 687.4465 572.1371 669.0195 584.375 651.0625 C 593.43361 638.10937 602.65368 625.18474 612.625 612.90625 C 610.38821 651.90542 608.85609 691.10766 602.375 729.65625 C 599.6591 748.27025 687.409 761.08275 690.125 742.46875 C 693.23242 718.41537 695.09105 694.24151 696.46875 670.03125 C 706.20516 675.69954 716.33715 680.7854 726.6875 685.46875 C 751.744 696.02775 778.4504 701.66925 803.875 711.15625 C 812.2664 715.37025 823.315 718.57325 829.125 726.53125 C 842.9268 739.47925 903.95795 674.41675 890.15625 661.46875 C 873.60035 646.86275 855.21605 635.17475 834.28125 627.71875 C 810.63715 619.24475 786.20645 613.2905 762.65625 604.5625 C 745.18795 597.0025 728.45005 587.918 715.84375 573.25 C 713.00818 570.06966 707.44056 570.62647 700.65625 573.53125 C 700.95363 563.0469 701.21285 552.5476 701.46875 542.0625 C 727.97953 536.54399 754.6454 531.6977 781.40625 527.5 C 807.99105 523.317 834.8215 521.9725 861.6875 522.6875 C 867.7164 522.9335 873.74935 523.25625 879.78125 523.40625 C 898.78025 523.51725 899.3116 433.95575 880.3125 433.84375 C 874.4944 434.04275 868.66525 433.565 862.84375 433.625 C 830.85485 433.567 798.92695 435.63675 767.34375 440.96875 C 765.22961 441.32298 763.1129 441.70149 761 442.0625 C 772.38175 430.19487 783.69979 418.2445 794.78125 406.09375 C 816.86225 382.23775 838.8214 358.27025 861.8125 335.28125 C 874.9868 321.65725 810.76815 259.53325 797.59375 273.15625 C 775.03355 297.54325 752.55425 322.021 730.09375 346.5 C 721.78344 355.68349 713.30727 364.70561 704.75 373.65625 C 704.81968 369.89692 704.86583 366.13432 704.9375 362.375 C 706.2422 316.78 706.66675 270.765 714.78125 225.75 C 717.29654 212.96456 676.65437 200.80007 649.8125 200.5 z M 265.78125 202.65625 C 262.76562 202.78535 260.4654 203.74663 259.15625 205.71875 C 240.02465 236.33375 221.97325 267.609 204.15625 299 C 185.39975 331.937 168.172 365.69125 154.125 400.90625 C 143.5978 427.31725 139.82845 449.99975 146.34375 477.71875 C 167.51105 518.69275 200.29335 517.6365 239.34375 508.6875 C 241.63472 508.10521 243.91836 507.4628 246.1875 506.8125 C 242.35078 514.82492 238.52861 522.83346 234.6875 530.84375 C 224.1752 552.72675 213.95045 574.745 203.96875 596.875 C 198.84275 609.094 192.07915 623.827 195.28125 637.5 C 197.09655 645.251 201.0572 652.328 203.9375 659.75 C 212.1754 665.719 219.33365 673.58525 228.65625 677.65625 C 248.16265 686.17625 272.3607 674.0745 290.125 666.8125 C 305.2471 660.3885 320.2113 653.60875 335.125 646.71875 C 348.20601 640.64734 329.37764 592.02985 312.15625 573.125 C 312.86186 571.60898 313.53984 570.07647 314.25 568.5625 C 332.6319 529.3435 351.07115 490.16575 370.28125 451.34375 C 385.17615 422.05375 399.87875 392.4115 419.15625 365.6875 C 430.23195 350.3045 357.73195 298.08575 346.65625 313.46875 C 325.67715 344.63775 308.8232 378.2965 292 411.8125 C 288.91202 418.1228 285.84986 424.43032 282.78125 430.75 C 275.13369 416.07219 265.93637 405.19528 259.125 407.9375 C 254.24153 409.90957 249.35904 411.86372 244.4375 413.75 C 254.95448 389.26997 267.43212 365.68812 280.53125 342.46875 C 297.40845 312.88775 314.38035 283.28075 333.53125 255.09375 C 342.69539 241.288 286.89066 201.75253 265.78125 202.65625 z M 513.71875 416.8125 C 536.5455 433.10343 559.52984 448.95438 583.875 463 C 589.8535 465.954 595.834 468.921 601.8125 471.875 C 606.00912 473.91071 611.5542 470.50442 617.25 464.125 C 617.20311 466.81366 617.14325 469.4989 617.09375 472.1875 C 612.99432 473.20959 608.90555 474.2632 604.8125 475.3125 C 571.24037 483.86921 537.79133 492.97101 504.125 501.15625 C 507.82991 473.11101 511.29794 445.00485 513.71875 416.8125 z M 703.84375 423.21875 C 712.31599 432.597 722.72456 441.63804 731.9375 447.25 C 722.38023 449.02929 712.84175 450.86107 703.3125 452.78125 C 703.49069 442.92475 703.67044 433.07545 703.84375 423.21875 z M 520.875 587.96875 C 517.8986 592.14297 514.93237 596.29663 512 600.5 C 501.20362 616.19889 491.04164 632.30262 481.5625 648.8125 C 484.17619 630.78862 486.93997 612.80767 489.75 594.8125 C 491.04421 595.3674 492.35596 595.56805 493.65625 595.28125 C 502.73842 592.8622 511.80251 590.42232 520.875 587.96875 z M 284.5 635.71875 C 283.78652 639.36364 282.55985 640.66101 284.5 635.71875 z "
     id="path8571" />
</svg>
