<?xml version="1.0" encoding="UTF-8" standalone="no"?>
<svg
   xmlns:dc="http://purl.org/dc/elements/1.1/"
   xmlns:cc="http://creativecommons.org/ns#"
   xmlns:rdf="http://www.w3.org/1999/02/22-rdf-syntax-ns#"
   xmlns:svg="http://www.w3.org/2000/svg"
   xmlns="http://www.w3.org/2000/svg"
   xmlns:sodipodi="http://sodipodi.sourceforge.net/DTD/sodipodi-0.dtd"
   xmlns:inkscape="http://www.inkscape.org/namespaces/inkscape"
   width="1024"
   height="1024"
   id="U7FFB"
   version="1.1"
   inkscape:version="0.48.0 r9654"
   sodipodi:docname="U+7FFB.svg">
  <metadata
     id="metadata23">
    <rdf:RDF>
      <cc:Work
         rdf:about="">
        <dc:format>image/svg+xml</dc:format>
        <dc:type
           rdf:resource="http://purl.org/dc/dcmitype/StillImage" />
      </cc:Work>
    </rdf:RDF>
  </metadata>
  <defs
     id="defs21" />
  <sodipodi:namedview
     pagecolor="#ffffff"
     bordercolor="#666666"
     borderopacity="1"
     objecttolerance="10"
     gridtolerance="10"
     guidetolerance="10"
     inkscape:pageopacity="0"
     inkscape:pageshadow="2"
     inkscape:window-width="640"
     inkscape:window-height="480"
     id="namedview19"
     showgrid="false"
     inkscape:zoom="0.27441406"
     inkscape:cx="512"
     inkscape:cy="512"
     inkscape:window-x="0"
     inkscape:window-y="25"
     inkscape:window-maximized="0"
     inkscape:current-layer="U7FFB" />
  <path
     style="fill:#550000;fill-opacity:1;fill-rule:nonzero;stroke:#f9f9f9;stroke-width:0.1;stroke-miterlimit:4;stroke-dasharray:none"
     d="M 329.28125 126.5 C 327.70916 126.47168 326.33473 126.86031 325.1875 127.75 C 297.491 150.993 270.2229 174.76675 243.25 198.84375 C 202.5433 235.37075 164.9021 275.0915 127.5 314.9375 C 118.54189 324.53908 148.73962 357.68428 170.875 370.34375 C 169.38717 370.67542 167.89306 371.00707 166.40625 371.34375 C 126.60965 381.04875 86.40385 391.1065 49.59375 409.5625 C 33.52665 418.8875 77.46415 494.6375 93.53125 485.3125 C 111.63984 476.11009 130.91373 469.60487 150.46875 464.09375 C 127.33005 486.31102 105.41769 509.82312 84.78125 534.375 C 82.52205 537.422 80.2592 540.454 78 543.5 C 67.3295 558.662 138.79835 608.9735 149.46875 593.8125 C 150.35985 592.3825 151.234 590.93 152.125 589.5 C 171.3698 565.162 192.9 542.64075 215.4375 521.34375 C 221.3879 515.94142 227.38245 510.53795 233.5 505.28125 C 233.3928 506.37436 233.29469 507.46939 233.1875 508.5625 C 230.4714 537.1945 227.82645 565.847 225.34375 594.5 C 225.20741 596.49376 226.10827 598.31311 227.8125 600 C 196.33347 610.80992 165.89805 624.49988 140.28125 646.34375 C 119.6424 646.24785 99.929603 650.31739 99.6875 659.09375 C 99.6786 696.49675 101.67985 733.85325 104.21875 771.15625 C 106.92835 809.44425 111.30655 847.6435 120.53125 884.9375 C 122.13845 889.5815 123.73645 894.231 125.34375 898.875 C 131.85495 916.188 213.48005 885.46925 206.96875 868.15625 L 204.59375 863 C 198.13834 840.00807 194.88003 816.3646 192.53125 792.625 C 198.36053 811.43573 207.4273 827.64178 215.5625 825.46875 C 219.03972 824.54766 222.53043 823.7356 226.03125 822.9375 C 225.57652 838.11139 225.31354 853.26969 224.96875 868.4375 C 224.77921 878.34319 250.02314 883.36683 273.21875 882.96875 C 236.55761 893.39564 200.24081 904.91759 163.5 915.0625 C 145.6118 920.0385 169.08045 1004.3823 186.96875 999.40625 C 224.13785 987.50025 261.29735 975.57325 298.84375 964.90625 C 332.12945 955.65625 366.2118 949.46225 400.8125 949.65625 C 412.71321 949.53468 416.53271 913.22741 412.78125 887.625 C 436.31524 898.12712 471.69585 904.26772 475.0625 892.96875 C 481.8272 869.65975 478.6088 881.5345 484.625 857.3125 C 493.347 818.1625 501.0395 778.73625 505.9375 738.90625 C 509.5675 699.40825 510.8406 659.459 489.1875 624.375 C 485.0476 619.253 481.42745 613.69825 476.78125 609.03125 C 452.86335 585.00425 419.59385 577.6515 386.90625 576.0625 C 362.32155 575.8845 337.78076 577.1526 313.46875 580.25 C 314.80824 558.99824 316.58379 537.78271 318.34375 516.5625 C 318.82113 511.24737 319.32833 505.93956 319.8125 500.625 C 333.59932 507.34961 347.07335 514.78981 360.65625 521.84375 C 387.36055 535.34575 414.01265 548.92775 439.21875 565.09375 L 445.8125 570.03125 C 460.8247 580.81125 511.6373 510.03 496.625 499.25 C 492.9201 496.661 489.23615 494.089 485.53125 491.5 C 458.09845 474.516 429.4671 459.684 400.6875 445.125 C 386.89881 437.89358 373.19115 430.4176 359.28125 423.375 C 388.44993 418.95427 417.63423 414.70449 446.84375 410.5625 C 455.15635 409.2725 463.51925 408.3875 471.84375 407.1875 C 490.22335 404.0115 475.2545 317.3865 456.875 320.5625 C 449.2342 322.3995 441.3058 322.854 433.625 324.5 C 400.39363 329.99629 367.13943 335.30169 333.875 340.59375 C 336.60196 307.04725 338.74928 273.35137 344.4375 240.15625 C 345.09716 236.73213 342.59932 233.36881 338.09375 230.28125 C 351.48269 218.94399 365.04921 207.76357 378.875 196.96875 C 392.41227 186.47044 347.83192 126.83414 329.28125 126.5 z M 553.65625 232.40625 C 540.94531 232.37595 528.23351 232.93781 515.5625 234.375 C 497.1177 236.766 508.39895 323.7035 526.84375 321.3125 C 549.65805 317.9425 572.8067 319.279 595.6875 321.125 C 616.6482 323.569 639.0546 325.95775 655.9375 339.71875 C 667.8755 353.32075 669.2337 371.9835 671.125 389.1875 C 673.8513 441.8285 670.46635 494.56325 668.03125 547.15625 C 666.30129 581.6334 664.88251 616.12804 663.65625 650.625 C 656.03647 642.81042 648.70822 638.44848 644.125 641.375 C 625.5089 653.338 635.0013 647.28325 615.75 659.53125 C 587.3327 677.48325 558.8999 695.4825 529.4375 711.6875 C 513.2979 720.8545 556.51675 796.94825 572.65625 787.78125 C 602.27525 769.78025 631.70037 751.47766 661.0625 733.0625 C 659.94771 768.1714 660.59211 803.32252 660.53125 838.4375 C 660.36885 840.5145 660.2249 842.58025 660.0625 844.65625 C 659.2487 863.16925 746.4987 867.012 747.3125 848.5 C 747.4029 844.826 747.50375 841.14275 747.59375 837.46875 C 746.77975 801.55375 745.666 765.64775 746.75 729.71875 C 747.9891 670.20075 749.78635 610.67175 752.90625 551.21875 C 755.73465 493.99375 759.8833 436.6055 756.875 379.3125 C 751.7978 336.3985 740.96445 296.13075 705.34375 268.21875 C 674.14665 247.85175 639.9271 237.2 602.625 234.75 C 586.33202 233.43881 569.99889 232.44521 553.65625 232.40625 z M 877.1875 236.46875 C 843.1442 237.08475 809.23565 240.803 776.65625 251.25 C 759.12215 257.373 787.9659 340.02925 805.5 333.90625 C 828.8628 325.57025 853.58945 323.22625 878.21875 323.15625 C 881.93645 323.76325 910.65735 323.32075 908.34375 332.09375 C 913.74475 355.62875 913.46415 379.86025 913.15625 403.90625 C 910.08225 469.38725 902.7635 534.577 897.1875 599.875 C 897.07295 601.24057 896.95654 602.60306 896.84375 603.96875 C 878.3473 616.03281 860.22688 628.66112 842.6875 642.09375 C 815.9663 662.13175 789.56355 682.738 761.40625 700.75 C 745.72515 710.716 792.72515 784.6525 808.40625 774.6875 C 836.01506 755.51121 862.60144 734.94028 889.46875 714.75 C 887.87699 744.9318 886.54985 775.13867 885.46875 805.34375 C 884.62745 842.17475 883.23225 879.031 884.15625 915.875 C 885.02565 934.386 972.27565 930.29225 971.40625 911.78125 C 968.75515 877.29325 970.62925 842.56725 970.65625 808.03125 C 972.50915 740.97625 975.7023 673.976 981.375 607.125 C 987.212 539.89 995.07025 472.80125 998.84375 405.40625 C 999.83365 359.54625 1000.961 311.663 972.4375 273 C 967.6922 268.373 963.3955 263.224 958.1875 259.125 C 935.2024 241.034 905.4158 237.28275 877.1875 236.46875 z M 250.09375 310.40625 C 249.45842 319.51045 248.84562 328.6216 248.1875 337.71875 C 247.79706 343.55678 247.39497 349.38369 246.96875 355.21875 C 230.74948 358.12646 214.55137 361.21307 198.40625 364.5 C 215.39833 346.23707 232.49824 328.08724 250.09375 310.40625 z M 821.46875 456.90625 C 802.24702 457.37391 754.1214 510.93309 766.40625 522.46875 C 774.64195 530.11875 779.7745 539.89875 784.375 549.96875 C 792.4042 566.53075 870.4668 528.65575 862.4375 512.09375 C 852.7434 492.66275 842.19205 473.8415 826.40625 458.5625 C 825.13541 457.36916 823.45721 456.85787 821.46875 456.90625 z M 594.46875 488.375 C 570.20146 488.72872 519.76905 512.45495 525.34375 526.1875 C 531.94025 540.6365 536.91065 555.688 541.46875 570.875 C 546.72725 588.488 629.7585 563.6755 624.5 546.0625 C 619.1913 528.2065 613.455 510.53875 606.5625 493.21875 C 605.1415 489.7183 600.65453 488.28483 594.46875 488.375 z M 371.53125 662.28125 C 376.23841 662.23997 380.94379 662.291 385.65625 662.40625 C 396.07875 664.12425 415.66475 662.75525 419.03125 676.03125 C 423.37045 694.11225 421.5841 712.6465 419.875 730.9375 C 415.4339 767.0915 408.4871 802.89925 400.4375 838.40625 C 395.80341 856.46547 396.99128 852.35672 393.65625 863.09375 C 365.3475 864.09087 337.2867 867.74547 309.65625 873.71875 C 310.51098 872.6064 311.00602 871.41254 311.03125 870.09375 C 311.32841 850.93568 311.50853 831.74988 312.21875 812.59375 C 312.98854 812.55941 313.76155 812.50129 314.53125 812.46875 C 335.23405 812.27075 325.19065 812.23725 344.65625 812.53125 C 363.04625 812.65025 363.60875 725.96175 345.21875 725.84375 C 329.81491 725.86169 327.57202 725.89085 321.625 726.03125 C 325.82342 704.68706 331.60012 683.69211 340.5625 663.75 C 350.85083 662.87194 361.18587 662.37196 371.53125 662.28125 z M 242.28125 686.21875 C 238.56962 701.85209 235.61693 717.65938 233.125 733.5625 C 219.67282 735.55195 206.29219 737.9648 193 740.96875 L 193 741 C 191.19469 741.48222 189.81112 742.76084 188.78125 744.6875 C 188.08905 733.08997 187.52947 721.48624 187.15625 709.875 C 192.71339 712.40736 197.33834 712.88428 200.03125 710.28125 C 212.60247 699.64693 227.11264 692.19344 242.28125 686.21875 z "
     id="path22717" />
</svg>
