<?xml version="1.0" encoding="utf-8" ?>

<!DOCTYPE svg PUBLIC "-//W3C//DTD SVG 1.1//EN" 
  "http://www.w3.org/Graphics/SVG/1.1/DTD/svg11.dtd">
<svg 
    xmlns="http://www.w3.org/2000/svg"
    xmlns:xlink="http://www.w3.org/1999/xlink"
    xmlns:sodipodi="http://sodipodi.sourceforge.net/DTD/sodipodi-0.dtd"
    xmlns:inkscape="http://www.inkscape.org/namespaces/inkscape"
    width="1024" height="1024" id="U8005">
<path d="m 8464.044,63752.727 c 43.0247,-9.2 86.0715,-18.256 129.274,-26.607 58.2111,-11.331 116.6367,-21.527 175.401,-29.522 42.1697,-5.36 84.6803,-6.615 127.043,-9.64 15.0583,-1.534 8.0585,-0.632 21.0169,-2.565 18.5071,-2.42 29.9155,84.823 11.4084,87.243 l 0,0 c -17.2496,2.028 -8.2938,1.127 -26.8743,2.633 -40.4218,2.265 -80.9557,3.164 -121.2004,7.879 -57.0515,7.424 -113.7612,17.183 -170.1768,28.462 -42.7885,8.565 -85.4583,17.681 -127.7192,28.593 -18.3445,3.855 -36.5171,-82.621 -18.1726,-86.476 z" id="path14389" inkscape:connector-curvature="0" style="fill:#2b1100;fill-opacity:1;fill-rule:nonzero;stroke:none" transform="translate(-8192, -63488)"/><path d="m 8736.3514,63620.394 c -4.0977,39.762 -5.8168,79.752 -7.6116,119.674 -2.2857,51.535 -2.3116,103.125 -0.5228,154.669 0.5936,15.182 1.5972,30.337 2.8421,45.476 1.2534,18.584 -86.3519,24.493 -87.6053,5.909 l 0,0 c -0.885,-16.306 -1.6127,-32.618 -2.0309,-48.944 -1.172,-53.56 -0.9622,-107.141 1.1125,-160.681 1.6022,-42.184 3.2439,-84.382 6.0382,-126.506 2.2069,-18.621 89.9847,-8.217 87.7778,10.403 z" id="path14391" inkscape:connector-curvature="0" style="fill:#2b1100;fill-opacity:1;fill-rule:nonzero;stroke:none" transform="translate(-8192, -63488)"/><path d="m 8377.0466,63949.328 c 41.1038,-0.25 81.7574,-8.022 122.1351,-14.959 74.8135,-13.86 149.8903,-26.041 225.3012,-36.137 75.438,-9.539 151.2847,-15.184 227.0488,-21.372 57.7186,-4.869 115.4561,-9.517 173.2507,-13.389 23.3964,-1.721 46.8379,-2.562 70.2847,-3.164 18.6165,-0.266 19.872,87.493 1.2555,87.76 l 0,0 c -22.0767,0.04 -44.1503,0.489 -66.1889,1.892 -57.3245,3.245 -114.5827,7.504 -171.8113,12.129 -74.2659,5.769 -148.6163,11.015 -222.5467,20.324 -74.2237,9.977 -148.0871,22.193 -221.5993,36.531 -45.3739,8.286 -90.9297,17.011 -137.1298,18.835 -18.763,0 -18.763,-88.45 0,-88.45 z" id="path14393" inkscape:connector-curvature="0" style="fill:#2b1100;fill-opacity:1;fill-rule:nonzero;stroke:none" transform="translate(-8192, -63488)"/><path d="m 9054.9195,63704.647 c -22.6306,35.834 -48.5573,69.297 -75.42,102.013 -58.3333,68.387 -124.6603,129.316 -191.2121,189.515 -65.9688,59.242 -134.7023,115.279 -203.8945,170.684 -38.6833,30.95 -77.6366,61.567 -115.6612,93.328 -11.091,8.946 -21.5562,18.588 -32.0145,28.244 -14.2963,12.296 -72.2632,-55.097 -57.9669,-67.394 l 0,0 c 11.5032,-9.547 22.8666,-19.331 34.6572,-28.551 39.0078,-31.214 78.7095,-61.542 118.0173,-92.376 68.2416,-53.656 135.853,-108.188 200.4622,-166.21 63.2479,-57.354 126.2026,-115.556 180.9091,-181.319 24.3987,-30.521 48.0821,-61.722 67.5541,-95.692 10.1309,-15.818 84.7003,31.94 74.5693,47.758 z" id="path14399" inkscape:connector-curvature="0" style="fill:#2b1100;fill-opacity:1;fill-rule:nonzero;stroke:none" transform="translate(-8192, -63488)"/><path d="m 8674.3553,64160.856 c -3.2195,31.776 -3.0221,63.806 -3.2576,95.713 0.3254,33.018 -0.1821,66.284 4.7831,99.016 1.6022,5.521 0.362,3.68 2.4094,6.21 6.4714,17.592 -76.4597,48.099 -82.9312,30.507 l 0,0 c -5.3744,-16.497 -3.1533,-8.059 -6.6186,-25.328 -4.2802,-36.78 -4.4256,-73.847 -4.5634,-110.838 0.093,-35.391 -0.1181,-70.841 2.3842,-106.163 2.3088,-18.624 90.1028,-7.741 87.7941,10.883 z" id="path14411" inkscape:connector-curvature="0" style="fill:#2b1100;fill-opacity:1;fill-rule:nonzero;stroke:none" transform="translate(-8192, -63488)"/><path d="m 8623.3671,64110.669 c 32.5586,-18.319 68.6086,-27.888 105.0419,-34.738 42.9039,-6.709 86.4543,-6.291 129.751,-6.147 33.7566,0.08 67.5108,0.558 101.0449,4.649 28.2939,3.505 52.5007,15.201 73.4268,34.153 26.048,28.789 25.5931,65.754 23.2747,102.173 -4.605,46.382 -12.4971,92.359 -20.1183,138.317 -3.7809,22.429 -7.5395,44.863 -11.9708,67.173 -3.8598,18.227 -89.7838,0.03 -85.924,-18.195 l 0,0 c 4.7754,-20.994 8.5799,-42.189 12.3425,-63.385 7.3364,-42.893 14.6649,-85.862 18.5045,-129.239 0.2035,-3.528 -0.4069,-30.172 0.5751,-33.325 0.1639,-0.526 1.4325,0.31 1.6248,-0.302 -4.8467,-7.084 -15.1673,-8.497 -23.1046,-10.293 -29.8318,-4.25 -60.0041,-4.277 -90.084,-4.692 -37.8323,-0.231 -75.9005,-0.788 -113.4288,4.759 -25.9804,4.753 -52.0587,11.059 -74.9981,24.699 -16.0388,9.749 -61.9965,-65.858 -45.9576,-75.607 z" id="path14413" inkscape:connector-curvature="0" style="fill:#2b1100;fill-opacity:1;fill-rule:nonzero;stroke:none" transform="translate(-8192, -63488)"/><path d="m 8686.0319,64206.559 c 38.8027,-2.068 77.5837,-4.575 116.3378,-7.409 45.623,-2.954 90.9936,-8.52 136.3613,-13.995 5.2981,-0.465 10.5962,-0.93 15.8942,-1.395 18.5358,-1.375 25.0185,86.003 6.4827,87.378 l 0,0 c -4.2346,0.243 -8.4693,0.485 -12.704,0.727 -46.468,4.746 -92.8608,10.315 -139.4732,13.554 -38.8545,3.066 -77.7505,5.648 -116.5574,9.287 -18.6986,1.345 -25.0401,-86.801 -6.3414,-88.147 z" id="path14415" inkscape:connector-curvature="0" style="fill:#2b1100;fill-opacity:1;fill-rule:nonzero;stroke:none" transform="translate(-8192, -63488)"/><path d="m 8644.3982,64368.151 c 41.1373,-11.816 83.2838,-19.158 125.6514,-24.781 53.1285,-6.329 106.6545,-5.713 159.9421,-2.308 27.0157,1.629 53.5623,6.875 80.2516,10.957 18.4189,3.088 3.859,89.916 -14.5599,86.827 l 0,0 c -23.7817,-4.288 -47.4499,-9.432 -71.6131,-11.211 -47.4619,-3.486 -95.177,-4.288 -142.5314,1.391 -36.889,5.007 -73.7099,11.396 -109.1729,23.028 -17.7986,5.933 -45.7664,-77.97 -27.9678,-83.903 z" id="path14417" inkscape:connector-curvature="0" style="fill:#2b1100;fill-opacity:1;fill-rule:nonzero;stroke:none" transform="translate(-8192, -63488)"/></svg>