<?xml version="1.0" encoding="UTF-8" standalone="no"?>
<svg
   xmlns:dc="http://purl.org/dc/elements/1.1/"
   xmlns:cc="http://creativecommons.org/ns#"
   xmlns:rdf="http://www.w3.org/1999/02/22-rdf-syntax-ns#"
   xmlns:svg="http://www.w3.org/2000/svg"
   xmlns="http://www.w3.org/2000/svg"
   xmlns:sodipodi="http://sodipodi.sourceforge.net/DTD/sodipodi-0.dtd"
   xmlns:inkscape="http://www.inkscape.org/namespaces/inkscape"
   width="1024"
   height="1024"
   id="U8003"
   version="1.1"
   inkscape:version="0.48.0 r9654"
   sodipodi:docname="U+8003.svg">
  <metadata
     id="metadata13">
    <rdf:RDF>
      <cc:Work
         rdf:about="">
        <dc:format>image/svg+xml</dc:format>
        <dc:type
           rdf:resource="http://purl.org/dc/dcmitype/StillImage" />
      </cc:Work>
    </rdf:RDF>
  </metadata>
  <defs
     id="defs11" />
  <sodipodi:namedview
     pagecolor="#ffffff"
     bordercolor="#666666"
     borderopacity="1"
     objecttolerance="10"
     gridtolerance="10"
     guidetolerance="10"
     inkscape:pageopacity="0"
     inkscape:pageshadow="2"
     inkscape:window-width="640"
     inkscape:window-height="480"
     id="namedview9"
     showgrid="false"
     inkscape:zoom="0.27441406"
     inkscape:cx="512"
     inkscape:cy="512"
     inkscape:window-x="0"
     inkscape:window-y="25"
     inkscape:window-maximized="0"
     inkscape:current-layer="U8003" />
  <path
     style="fill:#2b0000;fill-opacity:1;fill-rule:nonzero;stroke:#f9f9f9;stroke-width:0.1;stroke-miterlimit:4;stroke-dasharray:none"
     d="M 475.375 86.0625 C 466.75164 86.019063 460.45653 87.86475 459.15625 92.375 C 450.84955 132.795 454.79035 174.4605 457.03125 215.3125 C 457.37055 220.68875 457.7097 226.06025 458.03125 231.4375 C 437.7452 234.40387 417.46116 237.48158 397.1875 240.5625 C 362.5726 245.1815 327.54035 250.6105 292.53125 248.1875 C 273.85265 246.3655 265.2589 334.428 283.9375 336.25 C 325.8286 338.282 367.53955 332.0835 408.90625 326.3125 C 426.75449 323.50964 444.60135 320.76497 462.46875 318.125 C 463.26671 336.6499 463.9765 355.18646 464.59375 373.71875 C 464.71665 380.70275 464.84575 387.7025 464.96875 394.6875 C 465.04059 397.77464 467.55023 400.26017 471.65625 402.21875 C 433.50132 407.96042 395.42854 414.16078 357.375 420.625 C 311.853 427.525 266.1503 434.83 220.0625 436.375 C 201.3056 436.661 202.64935 525.0985 221.40625 524.8125 C 271.47095 521.3485 321.08985 513.23225 370.59375 505.28125 C 385.89034 502.56538 401.18194 499.94068 416.5 497.375 C 412.60342 501.42708 408.70653 505.47669 404.8125 509.53125 C 349.7192 566.97825 295.19455 624.9855 242.40625 684.5625 C 221.60335 708.2145 201.4855 732.47275 182 757.21875 C 181.2755 758.10175 180.537 758.96075 179.8125 759.84375 C 168.5462 774.93275 239.6713 828.05675 250.9375 812.96875 C 251.5464 812.06675 252.17245 811.153 252.78125 810.25 C 269.71675 786.285 288.47325 763.6885 307.28125 741.1875 C 358.28575 681.7955 411.4237 624.287 465.4375 567.625 C 494.37514 537.3363 523.42268 507.15546 552.5625 477.0625 C 563.01183 475.71725 573.47146 474.42208 583.9375 473.1875 C 638.497 466.9695 693.3389 463.7465 748.1875 461.5625 C 779.9124 460.2705 811.66035 460.03525 843.40625 459.90625 C 862.08705 459.60025 860.6183 371.53675 841.9375 371.84375 C 809.4081 372.78575 776.8833 373.3505 744.375 374.9375 C 711.65229 376.50464 678.93522 378.41297 646.28125 381.03125 C 656.6372 370.50928 667.01962 359.99201 677.40625 349.5 C 720.59615 305.824 763.68855 262.073 808.09375 219.625 C 821.27655 206.327 758.58895 144.17075 745.40625 157.46875 C 712.88895 191.3787 680.17321 225.1119 647.46875 258.84375 C 646.05938 235.06745 638.91393 209.47225 628.78125 210.46875 C 602.27455 213.38375 575.7474 216.1885 549.25 219.1875 C 547.47856 219.39712 545.70836 219.63022 543.9375 219.84375 C 543.77859 216.88595 543.62905 213.92647 543.46875 210.96875 C 542.04625 179.76875 539.1098 147.861 544.1875 116.875 C 548.08833 103.34425 501.24508 86.192812 475.375 86.0625 z M 606.84375 300.78125 C 588.13239 320.04234 569.4207 339.29245 550.71875 358.5625 C 549.98007 341.25345 549.16786 323.96131 548.34375 306.65625 C 551.93555 306.24137 555.53038 305.83286 559.125 305.4375 C 575.02143 303.76415 590.92639 302.23918 606.84375 300.78125 z M 559.21875 528.8125 C 532.75783 528.56547 495.60558 537.96116 497.28125 550.15625 C 499.72235 580.31325 496.61185 610.65175 494.15625 640.71875 C 493.73455 664.59475 485.6238 691.00225 493.5 714.53125 C 495.7384 721.21825 499.47615 727.3035 502.46875 733.6875 C 508.59065 739.2645 513.81235 746.03125 520.84375 750.40625 C 543.50365 764.50625 572.9119 758.80275 597.5625 755.59375 C 625.0571 751.40275 652.76385 750.10725 680.53125 750.65625 C 703.27335 751.74925 725.97625 753.81925 748.59375 756.40625 C 749.33562 755.79779 753.14797 756.56859 756.75 757.65625 C 756.43922 758.43259 756.07759 759.5576 755.625 761.1875 C 747.0612 788.1925 734.011 813.54325 721.3125 838.78125 C 710.2962 858.57425 700.7052 879.88875 685.0625 896.59375 C 681.8427 898.98675 683.37655 898.28125 680.65625 899.15625 C 665.16165 909.68125 714.78675 982.74375 730.28125 972.21875 C 745.45745 961.14375 738.35975 967.092 751.59375 954.375 C 771.03965 931.215 785.79115 904.9045 799.34375 877.9375 C 815.47905 845.7285 832.3012 813.40425 841.9375 778.53125 C 847.6161 747.07625 845.5805 717.16425 821 693.90625 C 802.4708 679.24925 781.83485 670.69025 758.09375 668.78125 C 732.79315 666.16425 707.4211 664.07775 682 663.09375 C 650.0948 662.63775 618.2648 663.99925 586.625 668.40625 C 582.75969 668.87223 581.23401 669.05228 579.34375 669.28125 C 580.33951 661.96259 581.45523 654.66578 581.125 647.625 C 581.87934 637.88202 582.6482 628.11087 583.375 618.34375 C 586.39228 626.50727 590.38791 631.78889 595.09375 631.40625 C 631.62845 628.28725 668.32495 627.40775 704.96875 626.46875 C 740.56545 625.51375 776.1471 625.65725 811.75 626.03125 C 830.0674 626.20525 830.91115 539.83025 812.59375 539.65625 C 776.09015 539.34425 739.5635 539.21325 703.0625 539.90625 C 664.6656 540.59725 626.27125 541.45775 587.90625 543.21875 C 586.95421 543.29611 586.06988 543.62193 585.25 544.125 C 585.1439 542.1228 585.04807 540.09544 584.90625 538.09375 C 584.02852 531.70584 573.07923 528.9419 559.21875 528.8125 z M 578.0625 689.03125 C 578.69036 691.06267 579.30926 693.09899 579.6875 695.1875 C 579.7438 695.4985 579.03675 696.09025 578.96875 695.78125 C 578.47994 693.55382 578.20368 691.30325 578.0625 689.03125 z M 760.53125 758.96875 C 762.88274 759.89386 764.35771 760.7502 763.28125 761.03125 C 762.13293 760.41734 761.24539 759.67969 760.53125 758.96875 z "
     id="path9949" />
</svg>
