<?xml version="1.0" encoding="UTF-8" standalone="no"?>
<svg
   xmlns:dc="http://purl.org/dc/elements/1.1/"
   xmlns:cc="http://creativecommons.org/ns#"
   xmlns:rdf="http://www.w3.org/1999/02/22-rdf-syntax-ns#"
   xmlns:svg="http://www.w3.org/2000/svg"
   xmlns="http://www.w3.org/2000/svg"
   xmlns:sodipodi="http://sodipodi.sourceforge.net/DTD/sodipodi-0.dtd"
   xmlns:inkscape="http://www.inkscape.org/namespaces/inkscape"
   width="1024"
   height="1024"
   id="U80FD"
   version="1.1"
   inkscape:version="0.48.0 r9654"
   sodipodi:docname="U+80FD.svg">
  <metadata
     id="metadata17">
    <rdf:RDF>
      <cc:Work
         rdf:about="">
        <dc:format>image/svg+xml</dc:format>
        <dc:type
           rdf:resource="http://purl.org/dc/dcmitype/StillImage" />
      </cc:Work>
    </rdf:RDF>
  </metadata>
  <defs
     id="defs15" />
  <sodipodi:namedview
     pagecolor="#ffffff"
     bordercolor="#666666"
     borderopacity="1"
     objecttolerance="10"
     gridtolerance="10"
     guidetolerance="10"
     inkscape:pageopacity="0"
     inkscape:pageshadow="2"
     inkscape:window-width="640"
     inkscape:window-height="480"
     id="namedview13"
     showgrid="false"
     inkscape:zoom="0.27441406"
     inkscape:cx="512"
     inkscape:cy="512"
     inkscape:window-x="0"
     inkscape:window-y="25"
     inkscape:window-maximized="0"
     inkscape:current-layer="U80FD" />
  <path
     style="fill:#c83737;fill-opacity:1;fill-rule:nonzero;stroke:#f9f9f9;stroke-width:0.1;stroke-miterlimit:4;stroke-dasharray:none"
     d="M 193.8125 212.6875 C 190.82168 212.63868 188.47311 213.43812 187.0625 215.3125 C 168.0087 241.5075 148.76845 267.585 129.84375 293.875 C 111.51135 319.439 93.8654 345.49925 77.5625 372.40625 C 57.3669 406.31125 59.76285 440.34625 101.84375 458.15625 C 108.44175 460.94825 116.13125 459.07425 123.28125 459.53125 C 155.16615 452.77325 185.8226 441.3205 217.3125 432.8125 C 255.8057 422.5535 295.0196 415.63275 334.6875 412.21875 C 347.72942 411.74985 361.46182 410.33383 374.65625 411 C 381.12893 423.34368 387.56384 435.71261 393.84375 448.15625 C 402.48565 464.75525 480.73565 424.00525 472.09375 407.40625 C 462.38945 389.31325 452.6278 371.25625 442.9375 353.15625 C 427.9611 324.49225 413.7934 295.39975 398.375 266.96875 C 388.8481 250.82575 312.75435 295.733 322.28125 311.875 C 324.88204 316.27436 327.38657 320.72573 329.875 325.1875 C 328.79398 325.27198 327.70528 325.35147 326.625 325.4375 C 283.36042 329.68958 240.54611 337.09112 198.40625 347.84375 C 199.12452 346.83272 199.84183 345.82169 200.5625 344.8125 C 219.1582 319.0345 237.9591 293.378 257.75 268.5 C 267.62437 255.37937 214.74826 213.02927 193.8125 212.6875 z M 698.375 225.875 C 694.21263 225.94795 691.15461 227.12969 689.78125 229.71875 C 675.46485 258.68075 655.67135 284.30375 635.34375 309.21875 C 616.02414 331.79244 595.27742 353.27954 571.40625 371 C 571.36125 365.51258 571.38893 360.0194 571.5 354.53125 C 572.3977 318.19725 574.06465 281.8765 577.53125 245.6875 C 579.05415 226.9985 490.9604 219.81 489.4375 238.5 C 487.4265 276.465 485.61275 314.4285 484.71875 352.4375 C 483.39605 394.8595 487.0303 437.0425 496.8125 478.3125 C 509.1711 521.3335 528.72565 545.51575 568.09375 566.21875 C 603.27875 581.01675 640.0853 578.111 676.625 571.375 C 699.3349 566.422 721.8314 560.581 744.8125 557 C 753.0129 555.733 761.27745 555.03075 769.46875 553.71875 C 787.99655 550.24975 771.6529 462.906 753.125 466.375 C 746.0038 467.695 737.7695 468.645 730.3125 470 C 706.7984 474.129 683.65795 479.90425 660.40625 485.28125 C 642.55195 488.75225 624.19835 492.23375 606.28125 487.09375 C 593.83037 483.28405 587.4559 473.79202 583.28125 462.21875 C 595.33745 458.96902 606.74622 453.08452 617.40625 445.9375 C 649.10815 422.2905 677.27895 394.5245 702.65625 364.1875 C 726.66655 334.8185 749.6351 304.53925 767.875 271.15625 C 775.29123 257.17531 720.85182 225.48106 698.375 225.875 z M 151.96875 420.03125 C 151.65244 421.13775 151.29834 422.25247 150.875 423.375 C 150.7857 423.612 150.7555 422.90025 150.6875 422.65625 C 151.1163 421.78423 151.53997 420.90327 151.96875 420.03125 z M 313.75 438.9375 C 304.75699 438.8573 295.76144 439.34094 286.75 440.46875 C 247.4416 446.49175 209.0869 457.39475 174.4375 477.46875 C 155.58001 489.1209 137.23474 501.83747 121.71875 517.40625 C 104.89294 520.52766 91.151973 526.38169 91.875 533.875 C 95.8701 567.179 96.34615 600.78525 96.96875 634.28125 C 97.39725 676.02625 96.73745 717.766 97.96875 759.5 C 98.79415 790.2 102.08465 820.75475 111.78125 849.96875 C 113.73045 853.91475 115.6758 857.8655 117.625 861.8125 C 126.8972 878.1405 203.86585 834.42175 194.59375 818.09375 C 194.66055 818.72575 194.71425 819.368 194.78125 820 C 194.18993 818.70661 193.62923 817.38475 193.125 816.0625 C 194.30477 817.06836 195.6255 817.63222 197.0625 817.6875 C 232.793 817.4645 268.2398 812.39 303.5625 807.5 C 316.38652 805.76852 329.18604 803.8951 342 802.0625 C 341.69491 815.09523 341.5006 828.12235 341.3125 841.15625 C 342.67504 835.82798 341.86314 846.13424 341.0625 853.875 C 344.26603 848.09804 348.20654 842.74296 351.9375 837.28125 C 346.25698 854.8027 394.71118 915.15561 408.59375 904.34375 C 414.14685 896.72875 420.6638 889.734 425.25 881.5 C 431.6295 870.048 427.8414 853.90175 429.1875 841.59375 C 429.0342 808.31875 429.19245 775.0305 431.40625 741.8125 C 434.39955 694.9485 438.48155 648.154 440.84375 601.25 C 442.15445 565.956 445.08865 529.39875 433.34375 495.46875 C 418.24645 468.14075 402.64925 455.17975 372.53125 446.71875 C 353.22563 442.02037 333.53462 439.11394 313.75 438.9375 z M 341.0625 853.875 C 340.97013 854.04156 340.87238 854.20769 340.78125 854.375 C 339.93375 855.931 340.2234 857.856 340.125 859.625 C 339.89487 863.76137 340.48267 859.48086 341.0625 853.875 z M 308.9375 526.625 C 322.95338 526.40826 337.03476 528.1905 350.5 532.09375 C 356.9811 533.12475 360.5401 539.54475 353.5 533.21875 C 354.46036 551.18452 354.45826 569.78257 354.09375 588.125 C 351.32318 582.70394 348.01164 579.4586 344.28125 579.8125 C 321.45165 582.3385 298.8204 586.32925 276.0625 589.40625 C 244.99251 593.85526 213.72248 597.82839 183.34375 605.9375 C 183.19186 597.50643 182.99339 589.08451 182.75 580.65625 C 193.07184 568.76824 206.70394 560.08123 220.09375 551.96875 C 244.56655 538.22075 271.5853 530.73675 299.25 527.09375 C 302.4729 526.83294 305.70307 526.67502 308.9375 526.625 z M 721.15625 612.28125 C 718.68666 612.39422 716.7245 613.19167 715.46875 614.8125 C 696.15475 640.2045 672.53225 661.8325 648.65625 682.8125 C 630.06051 698.76443 610.71747 713.87271 590.0625 727 C 589.81972 724.8873 589.54131 722.78616 589.25 720.6875 C 585.7334 689.7895 581.35285 659.0045 575.59375 628.4375 C 571.62575 610.0855 485.12585 628.80425 489.09375 647.15625 C 495.44195 674.62725 499.3207 702.5735 502.5 730.5625 C 505.1206 763.0375 508.5832 795.0935 519 826.0625 C 532.159 859.3115 557.76305 880.634 588.59375 896.75 C 620.47235 911.925 654.8094 915.53725 689.625 915.03125 C 725.1347 913.04925 760.15675 906.57675 795.21875 900.96875 C 817.65455 897.86775 839.95065 893.51425 862.46875 891.03125 C 876.71235 890.48725 890.86555 889.42975 904.96875 887.34375 C 913.72115 885.72775 909.61265 886.5265 917.34375 884.9375 C 935.73105 881.0275 917.29365 794.37125 898.90625 798.28125 C 893.90385 799.39425 896.3398 798.863 891.5625 799.875 C 878.4374 801.989 865.20515 802.3265 851.96875 803.4375 C 828.27065 806.4405 804.8057 811.09725 781.1875 814.65625 C 750.2441 819.77125 719.31285 825.52725 687.96875 827.53125 C 667.49905 828.05425 647.2758 826.72175 628.25 818.34375 C 624.5027 816.59358 620.84822 814.76052 617.4375 812.65625 C 649.01487 794.08653 678.44107 772.21171 706.09375 748.15625 C 734.17715 723.48525 761.5697 697.9175 785.3125 668.9375 C 795.53785 655.74022 741.26581 611.36134 721.15625 612.28125 z M 183.90625 658.96875 C 191.00195 677.50874 201.16956 693.17756 209.21875 690.46875 C 235.07115 682.92675 261.9145 679.62625 288.5 675.78125 C 308.93206 673.21654 329.24994 669.53261 349.78125 667.84375 C 348.70882 683.00204 347.56566 698.15616 346.46875 713.3125 C 328.20372 715.91102 309.9645 718.72377 291.6875 721.25 C 261.4569 725.381 231.05995 729.9215 200.46875 729.3125 C 192.74055 729.01522 187.59687 743.86551 185.5625 761.46875 C 185.43026 759.83827 185.29437 758.23219 185.125 756.625 C 183.91675 724.08318 184.01412 691.52568 183.90625 658.96875 z "
     id="path10383" />
</svg>
