<?xml version="1.0" encoding="utf-8" ?>

<!DOCTYPE svg PUBLIC "-//W3C//DTD SVG 1.1//EN" 
  "http://www.w3.org/Graphics/SVG/1.1/DTD/svg11.dtd">
<svg 
    xmlns="http://www.w3.org/2000/svg"
    xmlns:xlink="http://www.w3.org/1999/xlink"
    xmlns:sodipodi="http://sodipodi.sourceforge.net/DTD/sodipodi-0.dtd"
    xmlns:inkscape="http://www.inkscape.org/namespaces/inkscape"
    width="1024" height="1024" id="U80B2">
<path d="m 11743.968,60503.676 c 13.805,19.777 30.763,37.044 48.098,53.704 12.27,11.431 6.212,5.788 18.175,16.932 13.565,12.78 -46.681,76.727 -60.246,63.947 l 0,0 c -12.051,-11.483 -5.776,-5.522 -18.828,-17.879 -20.945,-20.346 -41.219,-41.453 -58.844,-64.798 -11.011,-15.198 60.634,-67.104 71.645,-51.906 z" id="path13391" inkscape:connector-curvature="0" style="fill:#2b1100;fill-opacity:1;fill-rule:nonzero;stroke:none" transform="translate(-11264, -60416)"/><path d="m 11409.379,60690.18 c 38.219,-9.334 77.656,-12.119 116.708,-15.891 64.189,-6.086 128.349,-12.459 192.603,-17.817 63.324,-4.831 126.741,-8.453 190.242,-9.569 38.939,-0.475 77.849,1.292 116.674,4.103 23.848,0.912 45.541,6.3 65.656,19.101 3.518,3.639 7.036,7.278 10.553,10.917 11.555,14.867 -58.525,69.338 -70.081,54.472 l 0,0 c 2.148,1.876 4.295,3.752 6.443,5.628 15.052,7.035 -15.339,-6.027 -19.631,-2.656 -36.063,-3.232 -72.233,-5.382 -108.457,-5.262 -61.501,0.552 -122.932,3.8 -184.255,8.465 -63.742,5.376 -127.37,11.944 -190.987,18.632 -33.454,3.588 -67.409,6.051 -100.036,14.648 -17.983,5.395 -43.414,-79.376 -25.432,-84.771 z" id="path13393" inkscape:connector-curvature="0" style="fill:#2b1100;fill-opacity:1;fill-rule:nonzero;stroke:none" transform="translate(-11264, -60416)"/><path d="m 11664.973,60761.128 c -9.727,27.682 -16.722,56.207 -23.07,84.82 -0.843,11.247 -11.995,43.767 -6.082,53.879 3.164,-12.089 -21.56,-17.98 -8.296,-18.635 27.183,-2.189 54.167,-6.34 81.155,-10.175 37.494,-5.623 75.17,-9.877 112.791,-14.526 31.092,-3.805 62.173,-7.826 93.504,-8.798 20.866,-0.54 41.249,3.447 61.1,9.481 8.165,2.074 15.577,5.677 22.907,9.74 16.017,9.926 -30.774,85.433 -46.792,75.507 l 0,0 c 8.019,3.639 0.05,-0.323 -2.83,-0.815 -10.486,-3.544 -21.209,-6.2 -32.377,-6.081 -28.463,0.323 -56.687,4.474 -84.945,7.538 -36.985,4.459 -74.021,8.579 -110.837,14.317 -30.987,4.581 -61.964,9.776 -93.237,11.936 -39.703,-0.356 -68.066,-12.877 -79.045,-54.098 -4.119,-29.939 0.603,-59.102 7.73,-88.34 7.036,-31.225 14.828,-62.271 24.172,-92.896 5.758,-17.851 89.91,9.295 84.152,27.146 z" id="path13399" inkscape:connector-curvature="0" style="fill:#2b1100;fill-opacity:1;fill-rule:nonzero;stroke:none" transform="translate(-11264, -60416)"/><path d="m 11964.039,60789.779 c 15.016,24.151 28.877,48.982 42.559,73.904 5.922,10.632 11.415,21.486 16.803,32.395 8.149,16.807 -71.082,55.223 -79.232,38.415 l 0,0 c -4.61,-9.728 -9.365,-19.383 -14.539,-28.828 -12.391,-22.87 -24.843,-45.775 -39.481,-67.31 -10.305,-15.674 63.586,-64.25 73.89,-48.576 z" id="path13401" inkscape:connector-curvature="0" style="fill:#2b1100;fill-opacity:1;fill-rule:nonzero;stroke:none" transform="translate(-11264, -60416)"/><path d="m 11602.667,61060.116 c -1.434,29.609 1.263,59.25 3.399,88.762 2.487,40.57 6.718,80.97 13.717,121.008 1.067,5.166 2.041,10.353 3.201,15.5 1.684,7.469 4.147,16.965 6.52,24.368 0.393,1.229 3.374,10.444 5.215,12.638 0.453,0.541 -0.229,-1.391 -0.344,-2.087 10.611,15.477 -62.345,65.497 -72.956,50.021 l 0,0 c -15.706,-26.255 -22.382,-55.9 -27.572,-85.869 -7.046,-42.723 -11.571,-85.759 -14.501,-128.961 -2.671,-33.332 -5.627,-66.729 -5.076,-100.202 1.023,-18.751 89.42,-13.93 88.397,4.822 z" id="path13403" inkscape:connector-curvature="0" style="fill:#2b1100;fill-opacity:1;fill-rule:nonzero;stroke:none" transform="translate(-11264, -60416)"/><path d="m 11596.893,61030.525 c 33.873,-19.85 71.571,-31.293 109.109,-41.904 39.756,-11.202 80.541,-17.368 121.646,-20.541 30.781,-2.492 61.239,0.02 90.967,8.157 32.126,9.664 52.837,31.635 67.785,60.667 15.684,39 11.238,80.816 6.508,121.481 -6.547,48.458 -17.265,96.204 -26.832,144.12 -7.394,36.899 -13.204,74.085 -19.145,111.238 -1.396,16.153 -5.936,30.674 -12.715,45.255 -9.411,16.282 -86.163,-28.082 -76.752,-44.364 l 0,0 c -5.09,16.331 4.808,-14.395 3.027,-15.493 6.751,-37.913 13.024,-75.916 20.639,-113.67 9.163,-45.507 19.416,-90.867 25.442,-136.935 2.697,-24.223 6.314,-49.369 0.533,-73.424 -2.486,-7.169 -5.15,-11.756 -12.948,-14.306 -19.439,-6.282 -39.935,-6.588 -60.203,-5.577 -35.24,2.346 -70.204,7.45 -104.269,17.04 -29.164,8.272 -58.866,16.694 -84.963,32.585 -15.767,10.146 -63.596,-64.183 -47.829,-74.329 z" id="path13405" inkscape:connector-curvature="0" style="fill:#2b1100;fill-opacity:1;fill-rule:nonzero;stroke:none" transform="translate(-11264, -60416)"/><path d="m 11599.218,61128.901 c 36.501,-7.728 73.539,-12.359 110.577,-16.571 41.382,-4.934 82.984,-6.671 124.478,-2.611 4.956,0.805 9.912,1.609 14.868,2.413 18.349,3.253 3.012,89.75 -15.336,86.497 l 0,0 c -3.02,-0.61 -6.04,-1.22 -9.06,-1.83 -34.927,-4.402 -70.108,-2.194 -105.003,1.745 -33.408,3.913 -66.934,8.029 -99.591,16.33 -18.238,4.44 -39.17,-81.533 -20.933,-85.973 z" id="path13407" inkscape:connector-curvature="0" style="fill:#2b1100;fill-opacity:1;fill-rule:nonzero;stroke:none" transform="translate(-11264, -60416)"/><path d="m 11615.359,61258.953 c 33.489,-1.348 66.854,-5.146 100.235,-8.089 44.002,-4.54 88.208,-5.361 132.389,-4.14 25.838,0.856 51.601,3.327 77.108,7.519 2.858,0.625 5.717,1.25 8.575,1.875 18.267,4.292 -1.966,90.405 -20.234,86.113 l 0,0 c -1.203,-0.329 -2.406,-0.659 -3.609,-0.988 -21.338,-4.077 -42.977,-6.38 -64.676,-7.358 -40.609,-1.545 -81.262,-0.945 -121.709,3.389 -35.759,3.342 -71.44,7.603 -107.259,10.215 -18.781,0.174 -19.601,-88.362 -0.82,-88.536 z" id="path13409" inkscape:connector-curvature="0" style="fill:#2b1100;fill-opacity:1;fill-rule:nonzero;stroke:none" transform="translate(-11264, -60416)"/></svg>