<?xml version="1.0" encoding="utf-8" ?>

<!DOCTYPE svg PUBLIC "-//W3C//DTD SVG 1.1//EN" 
  "http://www.w3.org/Graphics/SVG/1.1/DTD/svg11.dtd">
<svg 
    xmlns="http://www.w3.org/2000/svg"
    xmlns:xlink="http://www.w3.org/1999/xlink"
    xmlns:sodipodi="http://sodipodi.sourceforge.net/DTD/sodipodi-0.dtd"
    xmlns:inkscape="http://www.inkscape.org/namespaces/inkscape"
    width="1024" height="1024" id="U8054">
<path d="m 8313.7481,29897.937 c 33.8298,-5.458 68.0034,-8.318 102.1516,-10.879 45.1851,-3.152 90.4344,-5.215 135.7019,-6.701 29.9898,-0.973 59.9903,-1.386 89.9899,-0.757 7.382,0.248 14.762,0.438 22.1469,0.541 18.8209,0.69 15.5693,89.413 -3.2516,88.723 l 0,0 c -7.2165,-0.453 -14.4429,-0.747 -21.6607,-1.182 -28.1917,-1.211 -56.4072,-1.076 -84.6133,-0.356 -43.8876,1.192 -87.7608,3.043 -131.5436,6.38 -30.7354,2.504 -61.5795,5.122 -91.8684,11.118 -18.4316,3.617 -35.4843,-83.27 -17.0527,-86.887 z" id="path9722" inkscape:connector-curvature="0" style="fill:#2b0000;fill-opacity:1;fill-rule:nonzero;stroke:#f9f9f9;stroke-width:0.1;stroke-miterlimit:4;stroke-dasharray:none" transform="translate(-8192, -29696)"/><path d="m 8436.3547,29963.605 c 1.7003,43.569 0.187,87.176 -1.035,130.735 -2.1071,61.21 -3.0096,122.438 -0.6369,183.646 2.4389,34.095 3.7502,69.046 13.902,101.945 0.5407,0.961 1.0813,1.922 1.622,2.882 6.9758,17.377 -74.9371,50.261 -81.9129,32.884 l 0,0 c -1.5098,-4.147 -3.0196,-8.294 -4.5294,-12.441 -10.2131,-39.938 -13.4892,-81.166 -15.2102,-122.26 -1.973,-62.9 -1.0592,-125.802 0.6454,-188.702 0.7895,-40.723 2.1088,-81.579 -1.08,-122.232 -1.3696,-18.718 86.8655,-25.174 88.235,-6.457 z" id="path9724" inkscape:connector-curvature="0" style="fill:#2b0000;fill-opacity:1;fill-rule:nonzero;stroke:#f9f9f9;stroke-width:0.1;stroke-miterlimit:4;stroke-dasharray:none" transform="translate(-8192, -29696)"/><path d="m 8632.6134,29940.105 c -0.9613,46.062 -2.9368,92.081 -5.5472,138.077 -4.9465,78.195 -11.5252,156.274 -17.5601,234.39 -5.2561,67.221 -9.5679,134.525 -11.3249,201.934 -0.425,23.591 -0.3468,47.196 1.5052,70.727 0.9787,18.711 -87.2215,23.324 -88.2002,4.614 l 0,0 c -0.7891,-26.083 -0.7274,-52.172 0.2856,-78.252 2.8106,-68.608 7.6835,-137.105 13.0859,-205.552 5.9599,-77.392 12.3011,-154.769 16.462,-232.285 2.0687,-44.721 3.7555,-89.489 2.9319,-134.266 0.1301,-18.745 88.492,-18.131 88.3618,0.613 z" id="path9726" inkscape:connector-curvature="0" style="fill:#2b0000;fill-opacity:1;fill-rule:nonzero;stroke:#f9f9f9;stroke-width:0.1;stroke-miterlimit:4;stroke-dasharray:none" transform="translate(-8192, -29696)"/><path d="m 8422.3291,30089.341 c 28.7246,-6.127 57.6974,-10.382 87.0054,-12.186 14.2183,-0.925 28.2833,0.498 42.3381,2.372 18.4872,2.847 5.0637,89.997 -13.4235,87.149 l 0,0 c -7.9205,-1.608 -15.8934,-2.368 -24.0038,-1.993 -24.6737,1.201 -49.0679,5.044 -73.0302,11.097 -18.3366,4.007 -37.2226,-82.433 -18.886,-86.439 z" id="path9728" inkscape:connector-curvature="0" style="fill:#2b0000;fill-opacity:1;fill-rule:nonzero;stroke:#f9f9f9;stroke-width:0.1;stroke-miterlimit:4;stroke-dasharray:none" transform="translate(-8192, -29696)"/><path d="m 8398.5561,30245.567 c 26.7332,-4.349 53.4016,-9.076 80.2206,-12.872 22.5024,-3.938 45.2677,-4.313 68.0222,-4.563 18.7614,0.06 18.469,88.504 -0.2924,88.442 l 0,0 c -18.5881,-0.299 -37.1694,-0.38 -55.5668,2.93 -25.5605,3.541 -51.0103,7.934 -76.298,13.072 -18.4573,3.412 -34.5429,-83.596 -16.0856,-87.009 z" id="path9730" inkscape:connector-curvature="0" style="fill:#2b0000;fill-opacity:1;fill-rule:nonzero;stroke:#f9f9f9;stroke-width:0.1;stroke-miterlimit:4;stroke-dasharray:none" transform="translate(-8192, -29696)"/><path d="m 8238.7193,30467.543 c 33.8337,-17.741 67.7501,-35.275 102.2099,-51.775 43.3141,-20.672 88.4728,-36.929 134.0363,-51.814 26.9862,-8.309 53.7653,-17.243 80.3566,-26.734 6.6955,-2.552 3.744,-1.345 8.8885,-3.536 17.5171,-6.826 49.6962,75.75 32.1791,82.577 l 0,0 c -7.8228,2.878 -3.6717,1.396 -12.4639,4.415 -27.2993,8.987 -54.6877,17.691 -82.1928,26.029 -41.9159,13.414 -83.4776,28.1 -123.2039,47.191 -33.2144,16.072 -65.9637,33.07 -97.9337,51.511 -16.5173,8.883 -58.3934,-68.98 -41.8761,-77.864 z" id="path9732" inkscape:connector-curvature="0" style="fill:#2b0000;fill-opacity:1;fill-rule:nonzero;stroke:#f9f9f9;stroke-width:0.1;stroke-miterlimit:4;stroke-dasharray:none" transform="translate(-8192, -29696)"/><path d="m 8738.4329,29966.282 c 22.3436,21.753 45.1995,42.965 68.6776,63.487 23.8935,21.163 49.7789,39.86 75.5272,58.657 2.8802,2.102 5.7604,4.204 8.6405,6.306 14.9731,11.158 -37.6267,81.742 -52.5997,70.584 l 0,0 c -2.7909,-2.124 -5.5818,-4.248 -8.3726,-6.372 -27.2754,-20.581 -54.8289,-40.86 -80.5016,-63.457 -24.0483,-20.925 -47.401,-42.606 -71.0763,-63.946 -13.8434,-12.666 45.8614,-77.925 59.7049,-65.259 z" id="path9734" inkscape:connector-curvature="0" style="fill:#2b0000;fill-opacity:1;fill-rule:nonzero;stroke:#f9f9f9;stroke-width:0.1;stroke-miterlimit:4;stroke-dasharray:none" transform="translate(-8192, -29696)"/><path d="m 9011.1936,30033.914 c -25.5825,20.782 -48.8827,44.166 -72.0248,67.578 -26.0625,26.639 -49.9821,55.24 -73.4066,84.19 -8.7427,10.726 -4.5515,5.677 -12.5473,15.171 -12.3046,14.123 -78.8824,-43.881 -66.5778,-58.005 l 0,0 c 7.075,-7.788 3.2141,-3.447 11.5184,-13.08 25.6341,-30.35 51.4542,-60.583 79.1009,-89.138 24.9843,-25.549 50.1946,-50.909 77.0375,-74.528 14.3851,-12.07 71.2848,55.742 56.8997,67.812 z" id="path9736" inkscape:connector-curvature="0" style="fill:#2b0000;fill-opacity:1;fill-rule:nonzero;stroke:#f9f9f9;stroke-width:0.1;stroke-miterlimit:4;stroke-dasharray:none" transform="translate(-8192, -29696)"/><path d="m 8654.3762,30133.357 c 33.3849,-0.151 66.7263,-1.671 100.0291,-3.912 45.6169,-3.63 91.1549,-8.08 136.8111,-11.214 32.6635,-1.79 65.4057,-2.183 98.0932,-0.906 14.6105,0.132 28.624,2.064 42.5683,6.264 17.5697,6.795 -14.4629,89.62 -32.0326,82.824 l 0,0 c 16.0906,3.409 -13.1937,-2.396 -14.8201,-1.166 -29.3243,-1.773 -58.7413,-1.645 -88.0832,-0.296 -45.5548,2.883 -90.9705,7.332 -136.4506,11.172 -34.3347,2.505 -68.7048,4.122 -103.0912,5.686 -18.7634,0.642 -21.7874,-87.81 -3.024,-88.452 z" id="path9738" inkscape:connector-curvature="0" style="fill:#2b0000;fill-opacity:1;fill-rule:nonzero;stroke:#f9f9f9;stroke-width:0.1;stroke-miterlimit:4;stroke-dasharray:none" transform="translate(-8192, -29696)"/><path d="m 8586.0837,30381.354 c 45.7996,-11.729 91.8804,-22.251 138.1397,-31.991 57.9175,-12.331 116.423,-21.412 175.3979,-26.616 44.2876,-3.327 88.7392,-2.773 133.1006,-1.699 24.0179,0.505 48.0927,2.374 72.1043,0.755 1.0276,-0.195 2.0553,-0.39 3.083,-0.585 18.6292,-2.253 29.2545,85.565 10.6253,87.819 l 0,0 c -3.1888,0.316 -6.3777,0.631 -9.5665,0.947 -26.247,0.891 -52.4699,-0.617 -78.6918,-1.695 -41.0927,-1.318 -82.2767,-2.171 -123.3331,0.582 -55.4351,4.513 -110.4173,12.993 -164.7959,24.719 -44.5364,9.581 -89.005,19.712 -132.6344,32.909 -18.0619,4.97 -41.491,-80.175 -23.4291,-85.145 z" id="path9740" inkscape:connector-curvature="0" style="fill:#2b0000;fill-opacity:1;fill-rule:nonzero;stroke:#f9f9f9;stroke-width:0.1;stroke-miterlimit:4;stroke-dasharray:none" transform="translate(-8192, -29696)"/><path d="m 8910.8745,30220.885 c -19.4997,32.519 -36.9306,66.22 -54.3105,99.901 -26.2371,51.005 -52.0355,102.232 -77.4475,153.652 -15.3603,31.446 -30.9349,62.783 -46.8062,93.974 -5.1284,9.711 -2.53,5.055 -7.7592,13.99 -9.8867,15.978 -85.2106,-30.628 -75.3239,-46.607 l 0,0 c 3.0119,-4.24 1.204,-1.534 5.1045,-8.322 16.3798,-30.23 32.2014,-60.752 47.4998,-91.545 25.8741,-51.503 51.8177,-102.971 77.7222,-154.459 17.8037,-35.238 35.875,-70.34 54.8301,-104.976 9.417,-16.226 85.9077,28.166 76.4907,44.392 z" id="path9742" inkscape:connector-curvature="0" style="fill:#2b0000;fill-opacity:1;fill-rule:nonzero;stroke:#f9f9f9;stroke-width:0.1;stroke-miterlimit:4;stroke-dasharray:none" transform="translate(-8192, -29696)"/><path d="m 8861.1383,30431.021 c 27.0167,13.976 54.385,27.258 81.4319,41.182 32.5045,16.888 64.4478,34.828 97.0188,51.588 14.5185,7.519 29.5435,13.942 44.6929,20.056 17.2429,7.166 -16.5351,88.45 -33.7781,81.284 l 0,0 c -17.305,-7.373 -34.506,-15 -51.1725,-23.747 -32.3329,-16.903 -64.1261,-34.814 -96.5281,-51.589 -27.3704,-13.962 -55.0178,-27.344 -82.8323,-40.397 -16.6262,-8.733 24.5413,-87.11 41.1674,-78.377 z" id="path9744" inkscape:connector-curvature="0" style="fill:#2b0000;fill-opacity:1;fill-rule:nonzero;stroke:#f9f9f9;stroke-width:0.1;stroke-miterlimit:4;stroke-dasharray:none" transform="translate(-8192, -29696)"/></svg>