<?xml version="1.0" encoding="UTF-8" standalone="no"?>
<svg
   xmlns:dc="http://purl.org/dc/elements/1.1/"
   xmlns:cc="http://creativecommons.org/ns#"
   xmlns:rdf="http://www.w3.org/1999/02/22-rdf-syntax-ns#"
   xmlns:svg="http://www.w3.org/2000/svg"
   xmlns="http://www.w3.org/2000/svg"
   xmlns:sodipodi="http://sodipodi.sourceforge.net/DTD/sodipodi-0.dtd"
   xmlns:inkscape="http://www.inkscape.org/namespaces/inkscape"
   width="1024"
   height="1024"
   id="U800C"
   version="1.1"
   inkscape:version="0.48.0 r9654"
   sodipodi:docname="U+800C.svg">
  <metadata
     id="metadata13">
    <rdf:RDF>
      <cc:Work
         rdf:about="">
        <dc:format>image/svg+xml</dc:format>
        <dc:type
           rdf:resource="http://purl.org/dc/dcmitype/StillImage" />
      </cc:Work>
    </rdf:RDF>
  </metadata>
  <defs
     id="defs11" />
  <sodipodi:namedview
     pagecolor="#ffffff"
     bordercolor="#666666"
     borderopacity="1"
     objecttolerance="10"
     gridtolerance="10"
     guidetolerance="10"
     inkscape:pageopacity="0"
     inkscape:pageshadow="2"
     inkscape:window-width="640"
     inkscape:window-height="480"
     id="namedview9"
     showgrid="false"
     inkscape:zoom="0.27441406"
     inkscape:cx="512"
     inkscape:cy="512"
     inkscape:window-x="0"
     inkscape:window-y="25"
     inkscape:window-maximized="0"
     inkscape:current-layer="U800C" />
  <path
     style="fill:#550000;fill-opacity:1;fill-rule:nonzero;stroke:#f9f9f9;stroke-width:0.1;stroke-miterlimit:4;stroke-dasharray:none"
     d="M 633.5 180.78125 C 612.66544 180.764 591.7957 181.722 571.03125 183 C 499.78065 189.344 429.15995 201.1435 360.28125 220.8125 C 311.05335 235.0565 262.0116 250.19625 214.5 269.53125 C 197.5986 277.22625 233.87985 356.8825 250.78125 349.1875 C 293.75785 329.6375 338.9461 315.6105 384.125 302.1875 C 391.20021 300.12526 398.32071 298.18442 405.4375 296.3125 C 402.19252 301.72641 398.95799 307.13332 395.75 312.5625 C 373.9894 350.1505 355.098 389.27675 336.1875 428.34375 C 333.30073 434.33459 341.82974 443.10884 354.15625 451.03125 C 334.39253 458.66051 314.89963 466.93956 295.96875 476.5 C 279.89175 485.78 323.64175 561.56125 339.71875 552.28125 C 358.79617 541.97144 378.72255 533.4363 398.96875 525.6875 C 406.36415 558.11958 412.23998 590.9022 418.3125 623.59375 C 427.9787 674.56575 435.2432 726.0225 447.625 776.4375 L 453.21875 792.4375 C 459.85895 809.6585 541.04635 778.347 534.40625 761.125 C 533.38095 758.961 532.3377 756.789 531.3125 754.625 C 517.9004 706.651 511.58045 657.064 502.03125 608.25 C 495.29501 571.03779 488.68698 533.77995 481 496.75 C 504.92427 488.6845 528.94806 480.97758 553.125 473.75 C 552.94903 522.84266 554.87503 571.88743 557.375 620.90625 C 561.4234 693.70325 566.56055 766.412 573.40625 839 C 577.14845 875.656 575.32765 858.091 578.90625 891.75 C 580.99685 909.828 666.2156 899.98425 664.125 881.90625 C 660.0239 849.15025 662.0705 866.215 657.9375 830.625 C 650.5419 759.567 645.41485 688.33175 642.03125 616.96875 C 639.97925 568.24675 638.2437 519.4385 640.625 470.6875 C 640.625 463.49043 627.45254 459.11571 611.34375 457.5 C 616.39893 456.19922 621.45929 454.8989 626.53125 453.65625 C 657.70355 447.33525 690.41025 439.64325 721.96875 447.53125 C 735.95745 453.41725 739.97065 469.253 744.84375 482.375 C 759.02315 527.932 761.2464 576.024 762.8125 623.375 C 763.82 678.757 761.165 734.147 755.75 789.25 C 753.4745 812.34 750.4208 835.30975 743.4375 857.46875 C 738.3696 875.14475 821.6822 899.01975 826.75 881.34375 C 834.1801 853.77675 838.88585 825.76 841.03125 797.25 C 846.31585 738.538 848.9674 679.587 847.9375 620.625 C 846.1239 563.623 843.1703 505.8345 825.375 451.1875 C 807.9328 407.1885 787.1697 375.36125 739 362.40625 C 694.2288 354.44325 649.77285 359.4995 605.84375 370.8125 C 547.87769 385.54261 490.85029 403.48569 434.21875 422.6875 C 445.32832 400.25243 456.86251 378.03372 469.5 356.40625 C 486.6891 327.70325 504.0294 298.76775 525.9375 273.34375 C 525.98779 273.28552 526.01489 273.21595 526.0625 273.15625 C 543.37451 270.9669 560.73821 269.2087 578.15625 267.84375 C 612.83615 266.98275 648.4012 264.18625 682.75 270.65625 C 701.0288 273.42725 714.0913 187.271 695.8125 184.5 C 675.136 181.801 654.33456 180.7985 633.5 180.78125 z M 252.375 533.21875 C 240.41268 533.43305 231.29856 535.98969 230.34375 541.71875 C 225.98105 580.49375 229.8794 619.54775 233.4375 658.21875 C 237.8916 704.11375 246.2165 749.47075 255.5 794.59375 C 259.3632 813.26375 263.84175 831.7915 269.28125 850.0625 C 274.90855 867.7155 358.1273 841.18425 352.5 823.53125 C 347.1332 808.30325 343.5104 792.5415 339.9375 776.8125 C 330.9405 735.0925 322.9684 693.1035 319 650.5625 C 316.2894 619.2435 312.89475 587.483 316.78125 556.125 C 318.88184 543.52175 278.6921 532.74729 252.375 533.21875 z "
     id="path22631" />
</svg>
