<?xml version="1.0" encoding="UTF-8" standalone="no"?>
<svg
   xmlns:dc="http://purl.org/dc/elements/1.1/"
   xmlns:cc="http://creativecommons.org/ns#"
   xmlns:rdf="http://www.w3.org/1999/02/22-rdf-syntax-ns#"
   xmlns:svg="http://www.w3.org/2000/svg"
   xmlns="http://www.w3.org/2000/svg"
   xmlns:sodipodi="http://sodipodi.sourceforge.net/DTD/sodipodi-0.dtd"
   xmlns:inkscape="http://www.inkscape.org/namespaces/inkscape"
   width="1024"
   height="1024"
   id="U810F"
   version="1.1"
   inkscape:version="0.48.0 r9654"
   sodipodi:docname="U+810F.svg">
  <metadata
     id="metadata17">
    <rdf:RDF>
      <cc:Work
         rdf:about="">
        <dc:format>image/svg+xml</dc:format>
        <dc:type
           rdf:resource="http://purl.org/dc/dcmitype/StillImage" />
      </cc:Work>
    </rdf:RDF>
  </metadata>
  <defs
     id="defs15" />
  <sodipodi:namedview
     pagecolor="#ffffff"
     bordercolor="#666666"
     borderopacity="1"
     objecttolerance="10"
     gridtolerance="10"
     guidetolerance="10"
     inkscape:pageopacity="0"
     inkscape:pageshadow="2"
     inkscape:window-width="640"
     inkscape:window-height="480"
     id="namedview13"
     showgrid="false"
     inkscape:zoom="0.27441406"
     inkscape:cx="512"
     inkscape:cy="512"
     inkscape:window-x="0"
     inkscape:window-y="25"
     inkscape:window-maximized="0"
     inkscape:current-layer="U810F" />
  <path
     style="fill:#2b1100;fill-opacity:1;fill-rule:nonzero;stroke:none"
     d="M 767.09375 177.4375 C 746.16353 178.34096 694.39695 222.14188 704.625 235 C 724.4612 258.249 747.0471 278.913 769.5625 299.5 C 784.5448 313.551 777.3356 306.56875 791.1875 320.46875 C 804.3309 333.56775 866.0809 271.599 852.9375 258.5 C 836.8269 242.536 844.95355 250.365 828.53125 235 C 809.45285 217.551 790.10595 200.14725 773.90625 179.90625 C 772.44511 178.06938 770.08378 177.30843 767.09375 177.4375 z M 163.15625 265.71875 C 154.54148 265.67758 148.26653 267.52525 146.96875 272.03125 C 136.98065 319.85025 129.0885 368.088 120.9375 416.25 C 104.9788 508.177 94.70215 600.9135 86.53125 693.8125 C 80.63075 765.6185 78.46415 837.7 82.96875 909.625 C 83.63125 915.48 84.30625 921.36375 84.96875 927.21875 C 87.47725 945.61775 174.196 933.774 171.6875 915.375 C 170.9872 911.233 170.29405 907.10975 169.59375 902.96875 C 163.28865 835.82675 165.18065 768.306 170.28125 701.125 C 173.12715 668.07093 176.2997 635.02888 180 602.0625 C 184.72487 618.04851 191.728 630.63148 198.96875 629.21875 C 235.99485 622.49475 273.2475 617.06725 310.375 610.90625 C 331.6998 607.16525 353.0888 603.7635 374.5 600.5625 C 392.7423 597.7375 379.39855 511.7375 361.15625 514.5625 C 339.50485 518.0275 317.88695 521.634 296.28125 525.375 C 260.06658 531.29537 223.77619 536.57495 187.4375 541.65625 C 192.40777 504.67094 198.17241 467.80244 205.0625 431.09375 C 208.59965 411.80985 212.09185 392.49557 215.75 373.21875 C 240.49701 367.43854 265.88876 364.79503 291.25 363.28125 C 317.7371 362.76525 345.32615 362.877 369.71875 374.375 C 381.67045 382.004 384.3236 395.826 387.5 408.75 C 395.2255 456.511 391.1667 505.23275 388 553.21875 C 384.83948 592.77411 381.07008 632.27519 377.03125 671.75 C 358.29583 672.6354 339.57799 673.77743 320.875 675.15625 C 282.5136 678.07025 243.69885 682.92375 205.28125 678.71875 C 186.78765 675.71975 172.6314 762.876 191.125 765.875 C 236.5556 770.35 282.1931 764.904 327.5 761.375 C 340.90973 760.38338 354.34741 759.59898 367.78125 758.96875 C 367.28236 763.58407 366.78048 768.19734 366.28125 772.8125 C 360.29445 826.6455 354.5406 880.52525 349 934.40625 C 346.8333 952.88925 347.98345 944.4 345.65625 959.875 C 343.25565 978.365 430.44305 989.6775 432.84375 971.1875 C 434.88005 953.1465 433.8675 962.72275 435.75 942.46875 C 436.59827 932.25484 437.49819 922.05208 438.40625 911.84375 C 456.00283 925.78781 518.2883 933.74746 520.90625 918.1875 C 525.22595 880.6665 540.43975 844.8845 547.59375 807.9375 C 566.41825 735.2955 585.33675 662.69425 603.59375 589.90625 C 614.83461 544.41413 625.64467 498.80141 635.96875 453.09375 C 655.64082 452.50163 675.28427 451.4914 694.9375 450.25 C 753.5968 445.296 812.19115 439.531 870.90625 435.25 C 904.83105 433.44 938.77745 430.32225 972.78125 430.78125 C 972.99575 430.97025 973.2231 431.15375 973.4375 431.34375 C 992.1056 433.34175 1001.5118 345.34175 982.84375 343.34375 C 979.20515 343.12175 975.5761 342.9105 971.9375 342.6875 C 936.0106 343.6835 900.1571 346.67525 864.3125 349.15625 C 806.0914 353.79425 748.00365 359.67025 689.78125 364.28125 C 648.09365 366.65325 606.28495 368.029 564.59375 364.75 C 550.8264 363.98485 544.53656 411.5265 549.625 437.125 C 541.2027 481.60547 530.95195 525.74084 520.5 569.78125 C 503.0052 642.16625 484.1237 714.206 464.8125 786.125 C 458.18686 813.141 449.75936 839.72811 442.59375 866.625 C 445.32149 838.34307 448.20744 810.06689 451.21875 781.8125 C 458.92175 707.6325 466.84185 633.4855 473.34375 559.1875 C 477.56395 501.7475 482.7466 443.32525 472 386.28125 C 460.4558 344.48925 443.93315 313.07875 403.28125 293.34375 C 365.68465 278.67875 326.21425 274.0305 285.90625 276.4375 C 264.62551 277.77193 243.3923 279.80742 222.34375 283.03125 C 207.89131 273.72068 180.69774 265.80258 163.15625 265.71875 z M 802.09375 452.3125 C 797.2791 452.22092 793.75226 453.41283 792.28125 456.28125 C 775.42175 492.26541 769.51325 531.45826 765.8125 570.625 C 754.07547 572.32224 742.35066 574.22694 730.6875 576.4375 C 686.8288 585.8005 643.17965 597.09825 602.96875 617.53125 C 586.42945 626.38125 628.1482 704.35 644.6875 695.5 C 676.9718 677.534 712.9912 668.57575 748.8125 660.84375 C 753.22493 660.00214 757.63683 659.22069 762.0625 658.46875 C 761.44145 690.08583 761.22357 721.69868 760.59375 753.3125 C 760.36185 761.1725 760.1069 769.04625 759.875 776.90625 C 759.4244 795.27625 846.01825 797.40125 846.46875 779.03125 C 846.62795 770.94625 846.80965 762.86625 846.96875 754.78125 C 847.45277 719.41445 847.56831 684.01959 848.46875 648.65625 C 864.28042 647.61128 880.10799 646.8906 895.9375 646.40625 C 911.4871 646.23025 927.04455 646.5725 942.59375 646.5625 C 961.21805 646.2895 959.90565 558.50825 941.28125 558.78125 C 925.08915 559.26925 908.91335 559.21425 892.71875 559.65625 C 879.73631 560.21652 866.75608 560.87939 853.78125 561.71875 C 856.54697 539.28915 861.00114 517.07578 870.9375 496.625 C 878.02509 482.80359 825.2916 452.75373 802.09375 452.3125 z M 1018.125 795.4375 C 989.0342 795.5175 960.0229 797.35325 931 799.28125 C 859.7244 803.78725 788.46405 808.46875 717.09375 811.21875 C 667.47865 812.88475 617.6331 814.964 568.0625 811.375 C 549.4209 809.548 540.7959 897.423 559.4375 899.25 C 613.0488 901.295 666.7451 898.83375 720.3125 896.59375 C 792.2337 893.30775 864.07385 888.797 935.96875 885 C 962.97285 883.642 989.9634 882.16025 1017 883.03125 C 1035.5786 883.26725 1036.7036 795.6735 1018.125 795.4375 z "
     id="path13833" />
</svg>
