<?xml version="1.0" encoding="UTF-8" standalone="no"?>
<svg
   xmlns:dc="http://purl.org/dc/elements/1.1/"
   xmlns:cc="http://creativecommons.org/ns#"
   xmlns:rdf="http://www.w3.org/1999/02/22-rdf-syntax-ns#"
   xmlns:svg="http://www.w3.org/2000/svg"
   xmlns="http://www.w3.org/2000/svg"
   xmlns:sodipodi="http://sodipodi.sourceforge.net/DTD/sodipodi-0.dtd"
   xmlns:inkscape="http://www.inkscape.org/namespaces/inkscape"
   width="1024"
   height="1024"
   id="U8131"
   version="1.1"
   inkscape:version="0.48.0 r9654"
   sodipodi:docname="U+8131.svg">
  <metadata
     id="metadata18">
    <rdf:RDF>
      <cc:Work
         rdf:about="">
        <dc:format>image/svg+xml</dc:format>
        <dc:type
           rdf:resource="http://purl.org/dc/dcmitype/StillImage" />
      </cc:Work>
    </rdf:RDF>
  </metadata>
  <defs
     id="defs16" />
  <sodipodi:namedview
     pagecolor="#ffffff"
     bordercolor="#666666"
     borderopacity="1"
     objecttolerance="10"
     gridtolerance="10"
     guidetolerance="10"
     inkscape:pageopacity="0"
     inkscape:pageshadow="2"
     inkscape:window-width="640"
     inkscape:window-height="480"
     id="namedview14"
     showgrid="false"
     inkscape:zoom="0.27441406"
     inkscape:cx="512"
     inkscape:cy="512"
     inkscape:window-x="0"
     inkscape:window-y="25"
     inkscape:window-maximized="0"
     inkscape:current-layer="U8131" />
  <path
     style="fill:#501616;fill-opacity:1;fill-rule:nonzero;stroke:#f9f9f9;stroke-width:0.1;stroke-miterlimit:4;stroke-dasharray:none"
     d="M 843.09375 221.6875 C 841.50649 221.75821 840.13203 222.24906 839.03125 223.21875 C 815.03845 245.55775 791.38745 268.22125 767.84375 291.03125 C 747.94605 310.56925 757.83575 300.90625 738.09375 320.03125 C 729.10081 328.74446 754.09272 360.31787 775.21875 375.6875 C 740.56911 376.28132 706.34908 381.58268 672.90625 391.875 C 636.76255 403.207 601.11455 416.50425 569.03125 437.03125 C 561.53422 442.0059 568.88089 461.53087 580.28125 479.375 C 558.31476 477.52839 536.01335 480.3064 535.21875 489.625 C 533.04895 524.841 537.16925 559.87875 542.65625 594.59375 C 548.40705 631.12775 560.15725 665.78325 580.53125 696.65625 C 584.04495 700.56825 587.57995 704.463 591.09375 708.375 C 596.9808 714.32541 612.7587 705.21655 627.25 692.125 C 629.82166 691.14965 632.4048 690.18719 635 689.28125 C 631.42418 710.85143 625.12655 731.96767 618.71875 752.84375 C 604.92595 794.85475 587.363 835.4845 568.25 875.3125 C 560.976 889.8585 553.7331 904.48925 544.6875 918.03125 C 534.7906 933.90025 609.57195 980.5565 619.46875 964.6875 C 629.55695 947.8105 638.578 930.33025 646.9375 912.53125 C 667.3494 868.78625 686.35265 824.33575 701.53125 778.46875 C 708.81693 755.05167 715.70165 731.39332 720.4375 707.34375 C 721.037 736.08423 720.54472 764.8479 720.75 793.59375 C 720.8403 841.24875 726.8559 874.97075 751.125 916.34375 C 780.2066 956.56575 823.8446 971.04175 870.875 977.84375 C 908.4485 981.61375 946.1772 978.20625 983.5625 974.15625 C 995.5705 972.89125 1007.4955 971.23925 1019.4062 969.28125 C 1037.8188 966.00325 1022.3813 879.222 1003.9688 882.5 C 993.94875 884.491 983.8288 885.881 973.6875 887.125 C 943.5159 890.708 913.0858 893.86525 882.6875 891.40625 C 862.1574 888.87225 840.5673 885.731 825.4375 870.25 C 809.4148 847.683 808.26105 819.9805 807.84375 793.0625 C 807.69435 760.4545 808.3444 727.856 808.625 695.25 C 808.22559 678.60819 738.58176 678.42427 723.1875 691.6875 C 724.45009 683.45942 725.42533 675.18057 726.03125 666.84375 C 758.68196 661.07724 791.65176 657.41601 824.8125 656.5625 C 839.2525 656.7065 832.7416 656.35775 844.4375 657.34375 C 848.13668 657.5473 851.27572 654.23616 853.8125 648.8125 C 862.67716 637.16675 859.02801 642.11992 870.4375 626.15625 C 890.0308 596.30825 907.07175 564.84725 916.46875 530.15625 C 925.55415 491.88525 927.0089 454.37675 900.6875 422.09375 C 874.25106 395.39849 842.49866 379.9897 804.9375 376.375 C 812.81093 368.75189 812.79268 368.74261 828.21875 353.65625 C 850.91045 331.87325 873.6677 310.096 897.5625 289.625 C 910.55163 278.18269 861.82339 220.85307 843.09375 221.6875 z M 390.59375 233.4375 C 378.83873 233.41357 366.94637 234.26775 354.90625 235.59375 C 322.00235 238.07275 289.11275 240.88575 256.15625 242.59375 C 251.06504 242.99667 247.87684 249.86501 246.3125 259.5625 C 232.35954 250.24451 218.79862 244.99262 214.125 250.75 C 186.6636 289.84 174.3248 336.78725 161.5625 382.15625 C 138.1558 471.61625 122.4414 562.8315 107.8125 654.0625 C 95.1581 734.1735 86.27275 814.8405 84.28125 895.9375 C 84.99195 931.1955 84.0665 914.26625 86.75 946.78125 C 88.5393 965.14225 175.1018 956.70575 173.3125 938.34375 C 170.34 912.99775 171.4936 926.669 170.25 897.375 C 170.8151 820.27 179.01375 743.51375 190.78125 667.34375 C 197.39433 625.91515 204.30279 584.49346 212.25 543.28125 C 214.37826 567.74552 222.93678 594.93313 233.40625 593.4375 C 269.17555 586.3895 304.5524 577.69575 340.4375 571.21875 C 345.5933 570.60875 350.75055 569.986 355.90625 569.375 C 374.26325 567.015 363.13825 480.48375 344.78125 482.84375 C 338.09475 483.75475 331.40525 484.68275 324.71875 485.59375 C 290.03865 492.05475 255.74245 500.3725 220.90625 505.9375 C 220.50016 505.99551 220.09537 506.11261 219.71875 506.25 C 226.7976 472.58913 234.69584 439.11569 243.875 405.9375 C 251.4104 380.58221 258.45697 354.24009 269.78125 330.09375 C 300.2587 327.28234 330.78429 324.81188 361.3125 322.625 C 373.42077 323.45115 390.84381 318.90585 404.03125 320.8125 C 403.21445 331.65525 405.71412 345.05023 405.96875 355.75 C 405.15935 416.47 401.48275 477.10225 399.21875 537.78125 C 398.2432 569.74815 397.68723 601.74073 397.28125 633.71875 C 380.14764 635.24249 362.99397 636.73557 345.84375 638.0625 C 312.04305 640.4605 277.8069 643.31775 244.0625 638.84375 C 225.5974 635.55075 210.06615 722.583 228.53125 725.875 C 269.57725 730.658 311.0065 727.57475 352.0625 724.59375 C 366.85363 723.41738 381.65057 722.16457 396.4375 720.9375 C 396.36389 729.90918 396.30012 738.87245 396.21875 747.84375 C 396.03465 797.57875 394.61325 847.28575 390.34375 896.84375 C 386.91435 916.15275 387.47265 937.154 380.46875 955.75 C 375.35815 973.83 460.5768 997.92375 465.6875 979.84375 C 472.0038 954.93075 474.70455 929.25875 477.09375 903.71875 C 480.86635 852.02575 482.13855 800.23425 482.03125 748.40625 C 482.29855 679.31025 482.23225 610.191 484.53125 541.125 C 487.07025 478.804 491.332 416.56975 493 354.21875 C 492.4326 311.02975 490.49425 266.713 448.46875 243 C 429.40506 235.99625 410.18545 233.47738 390.59375 233.4375 z M 636.5625 238.875 C 615.62696 238.91165 562.1631 280.52063 571.84375 293.78125 C 594.80505 323.09925 625.3465 344.126 657.125 362.75 L 674.78125 371.9375 C 691.23135 380.4285 731.2627 302.89725 714.8125 294.40625 C 710.1982 292.05025 705.58305 289.70075 700.96875 287.34375 C 679.59825 275.06375 658.40455 261.53 643.28125 241.625 C 641.89829 239.7305 639.55329 238.86976 636.5625 238.875 z M 407.03125 321.375 C 409.51942 321.96838 411.79883 322.85328 413.8125 324.125 C 412.88797 324.43576 409.54606 322.63967 407.03125 321.375 z M 778.21875 462.59375 C 784.41954 462.59375 790.64524 462.84537 796.875 463.34375 C 810.6869 465.82575 827.935 468.78175 836 481.71875 C 837.1025 490.59275 833.60205 500.59525 831.34375 509.15625 C 825.20013 531.17746 814.59499 551.22481 802.34375 570.3125 C 764.56012 572.91599 726.98203 578.04062 689.8125 585.46875 C 670.6389 589.48225 651.50696 593.72175 632.59375 598.8125 C 631.21752 592.81155 630.01067 586.78227 628.78125 580.90625 C 624.90346 556.6806 621.59956 532.1568 622.625 507.59375 C 646.01456 492.50129 672.39208 483.11627 698.84375 474.875 C 724.78525 467.11481 751.34867 462.59376 778.21875 462.59375 z "
     id="path12564" />
</svg>
