<?xml version="1.0" encoding="UTF-8" standalone="no"?>
<svg
   xmlns:dc="http://purl.org/dc/elements/1.1/"
   xmlns:cc="http://creativecommons.org/ns#"
   xmlns:rdf="http://www.w3.org/1999/02/22-rdf-syntax-ns#"
   xmlns:svg="http://www.w3.org/2000/svg"
   xmlns="http://www.w3.org/2000/svg"
   xmlns:sodipodi="http://sodipodi.sourceforge.net/DTD/sodipodi-0.dtd"
   xmlns:inkscape="http://www.inkscape.org/namespaces/inkscape"
   width="1024"
   height="1024"
   id="U811A"
   version="1.1"
   inkscape:version="0.48.0 r9654"
   sodipodi:docname="U+811A.svg">
  <metadata
     id="metadata18">
    <rdf:RDF>
      <cc:Work
         rdf:about="">
        <dc:format>image/svg+xml</dc:format>
        <dc:type
           rdf:resource="http://purl.org/dc/dcmitype/StillImage" />
      </cc:Work>
    </rdf:RDF>
  </metadata>
  <defs
     id="defs16" />
  <sodipodi:namedview
     pagecolor="#ffffff"
     bordercolor="#666666"
     borderopacity="1"
     objecttolerance="10"
     gridtolerance="10"
     guidetolerance="10"
     inkscape:pageopacity="0"
     inkscape:pageshadow="2"
     inkscape:window-width="640"
     inkscape:window-height="480"
     id="namedview14"
     showgrid="false"
     inkscape:zoom="0.27441406"
     inkscape:cx="512"
     inkscape:cy="512"
     inkscape:window-x="0"
     inkscape:window-y="25"
     inkscape:window-maximized="0"
     inkscape:current-layer="U811A" />
  <path
     style="fill:#550000;fill-opacity:1;fill-rule:nonzero;stroke:#f9f9f9;stroke-width:0.1;stroke-miterlimit:4;stroke-dasharray:none"
     d="M 564.25 190.125 C 550.23802 190.13021 539.16389 192.83181 538.21875 199.28125 C 535.58297 229.98372 535.84146 260.82245 536.5 291.625 C 520.05709 293.64113 503.69087 296.19231 487.46875 299.65625 C 469.14805 304.43525 491.6793 390.81025 510 386.03125 C 519.55158 383.7 529.20593 381.84267 538.90625 380.34375 C 539.74788 415.85312 540.15953 451.34834 539.8125 486.875 C 539.57965 496.03915 539.5484 497.40386 539.46875 500.625 C 505.59849 507.32658 471.74333 514.8918 439.5 527.40625 C 439.31716 527.48998 439.17068 527.61871 439 527.71875 C 440.82159 488.13448 442.64069 448.55244 444.46875 408.96875 C 446.41905 360.54875 450.3423 311.25525 441.8125 263.28125 C 439.4369 256.83525 437.95495 249.9635 434.65625 243.9375 C 419.71565 216.6445 392.56015 205.85025 362.90625 205.40625 C 333.67585 205.12525 304.3548 206.08025 275.375 210.15625 C 249.27822 214.82283 223.58972 221.46936 200.375 233.9375 C 180.66811 232.66318 162.42835 235.33667 161.5 243.75 C 157.381 294.866 153.90385 346.01725 150.09375 397.15625 C 144.31615 472.05725 138.4871 546.961 132.875 621.875 C 129.4035 671.533 124.96975 721.11725 121.59375 770.78125 L 120.96875 781.6875 C 120.34205 800.5525 209.27955 803.489 209.90625 784.625 C 209.92325 781.568 209.95175 778.52575 209.96875 775.46875 C 211.18874 742.4855 213.45073 709.55008 215.75 676.625 C 247.79023 676.51814 279.77626 676.32131 311.78125 674.53125 C 323.10948 673.74078 334.4059 672.63286 345.6875 671.375 C 344.74766 698.21004 344.03223 725.05877 343.5 751.90625 C 340.4574 769.67925 346.94165 791.00325 339.90625 808.15625 C 335.81135 826.63425 422.9052 845.94675 427 827.46875 C 431.5488 802.95175 431.5517 778.10575 431.4375 753.21875 C 431.9276 703.93175 433.17715 654.64725 435.40625 605.40625 C 436.20055 588.31214 436.99284 571.21931 437.78125 554.125 C 445.06699 579.91592 465.28005 613.92524 476.71875 608.6875 C 480.40469 607.179 484.13089 605.74388 487.875 604.40625 C 487.15677 605.95474 486.4617 607.51099 485.75 609.0625 C 468.0086 648.1165 454.5117 688.8305 443.8125 730.3125 C 435.8959 762.1995 432.09835 793.97875 439.65625 826.09375 C 461.40615 872.46275 499.8244 871.91875 544.125 867.84375 C 581.4746 863.06675 618.5819 856.59225 655.875 851.40625 C 660.5745 850.86925 665.26915 850.31825 669.96875 849.78125 C 688.59515 847.50525 677.84505 759.69275 659.21875 761.96875 L 643.3125 764.03125 C 607.6025 769.31225 572.0352 775.48225 536.1875 779.78125 C 532.27121 780.12415 528.35378 780.46947 524.4375 780.8125 C 525.45387 771.10465 527.32211 761.46799 529.21875 751.90625 C 538.21605 715.54025 550.0803 679.98625 565.75 645.90625 C 576.32163 623.05288 587.61193 600.45852 601.28125 579.28125 C 608.33993 578.42053 615.41883 577.68862 622.5 577 C 635.49113 575.61458 634.83356 532.49144 626.9375 507.21875 C 626.99068 503.7972 627.03584 500.60036 627.21875 487.375 C 627.28172 449.1722 626.61458 410.96782 625.75 372.78125 C 640.58906 372.30315 655.43525 372.30404 670.28125 372.65625 C 689.16255 372.82825 689.97505 283.82825 671.09375 283.65625 C 655.39341 283.71921 639.6871 283.94741 624 284.5625 C 623.79958 260.41248 624.09636 236.25462 626.65625 212.25 C 628.46067 199.93809 591.00014 190.11506 564.25 190.125 z M 851.5625 227.3125 C 842.92782 227.34102 834.28931 227.59844 825.65625 228.09375 C 796.50205 229.98275 767.38185 232.84125 738.78125 239.03125 C 730.44552 241.09529 730.28059 260.02074 734.3125 279.6875 C 725.86229 282.11059 720.24904 285.73364 720.28125 290.5 C 721.85075 335.924 721.629 381.3725 721.125 426.8125 C 719.8703 494.8335 717.686 562.81475 716.875 630.84375 C 716.69723 645.76441 716.72114 660.68038 716.9375 675.59375 C 692.88164 678.38034 643.39392 710.07348 651.03125 723.40625 C 665.51405 746.89325 681.0908 769.65625 695.75 793.03125 C 704.0218 806.94125 700.03265 800.134 707.65625 813.5 C 709.90858 817.38678 716.04136 817.76186 723.875 815.9375 C 727.2267 853.01295 730.26167 890.1178 732.46875 927.28125 C 733.53315 944.59925 734.3302 961.93475 735.875 979.21875 C 737.8142 998.06975 826.6893 988.94475 824.75 970.09375 C 822.7748 953.96775 821.98285 937.69 820.71875 921.5 C 817.89715 881.813 814.24515 842.225 810.40625 802.625 C 805.69425 745.801 802.96715 688.81925 803.46875 631.78125 C 804.10255 563.88725 806.1859 496.02925 807.9375 428.15625 C 808.6601 391.45623 809.05209 354.73532 809.3125 318.03125 C 816.63332 317.35966 823.95396 316.83282 831.28125 316.375 C 853.27455 315.332 875.33985 315.80375 897.15625 318.84375 C 902.0429 320.64744 909.66395 320.75995 915.6875 322.75 C 915.36624 323.46275 915.10445 325.15615 914.78125 328.46875 C 910.00625 361.71575 901.3205 394.26375 893.3125 426.84375 C 884.8462 461.80775 875.9855 496.6685 867.75 531.6875 C 869.59444 535.30691 858.50053 558.242 862.65625 549.9375 C 858.62186 567.68008 919.41964 619.70935 931.25 606.21875 C 943.8084 589.44375 951.27305 572.06475 954.28125 551.21875 C 961.71905 516.64775 970.1379 482.2785 978.5625 447.9375 C 987.9742 410.1755 998.46955 372.4625 1003.5312 333.8125 C 1005.0941 300.8835 998.74945 270.5245 969.53125 251.0625 C 950.57945 240.1285 930.20945 233.26275 908.40625 230.59375 C 889.52599 228.33669 870.55879 227.24977 851.5625 227.3125 z M 343.6875 294.09375 C 348.17266 294.07346 352.67345 294.13738 357.15625 294.21875 C 360.44122 331.33139 358.76142 368.72891 357.625 405.90625 C 355.39849 464.60607 352.57463 523.26991 349.625 581.9375 C 335.40065 583.89889 321.1411 585.55566 306.8125 586.59375 C 278.53428 588.21854 250.23954 588.45525 221.9375 587.71875 C 223.02977 572.57299 224.15191 557.4242 225.28125 542.28125 C 227.2924 543.7092 229.31956 544.27535 231.3125 543.78125 C 252.0178 538.35925 273.40965 537.4335 294.65625 538.9375 C 313.43085 540.0535 318.68085 451.5535 299.90625 450.4375 C 277.24039 449.25754 254.5706 449.78826 232.15625 452.96875 C 233.47253 436.62771 234.80761 420.30499 236.1875 403.96875 C 238.75917 373.10602 241.18256 342.21572 244.0625 311.375 C 258.23353 303.31085 274.4695 299.99536 290.5 297.34375 C 308.1355 295.099 325.91405 294.17414 343.6875 294.09375 z M 364.71875 294.4375 C 373.76121 295.15975 372.02892 298.16157 364.71875 294.4375 z M 917.4375 323.40625 C 919.48439 324.27704 921.28281 325.42884 922.59375 327.0625 C 920.04819 326.23321 918.47436 324.53619 917.4375 323.40625 z M 523.65625 793.78125 C 525.00902 795.88871 525.73621 798.1265 525.125 800.4375 C 523.63564 805.05218 523.56991 798.38416 523.65625 793.78125 z "
     id="path8999" />
</svg>
