<?xml version="1.0" encoding="utf-8" ?>

<!DOCTYPE svg PUBLIC "-//W3C//DTD SVG 1.1//EN" 
  "http://www.w3.org/Graphics/SVG/1.1/DTD/svg11.dtd">
<svg 
    xmlns="http://www.w3.org/2000/svg"
    xmlns:xlink="http://www.w3.org/1999/xlink"
    xmlns:sodipodi="http://sodipodi.sourceforge.net/DTD/sodipodi-0.dtd"
    xmlns:inkscape="http://www.inkscape.org/namespaces/inkscape"
    width="1024" height="1024" id="U827A">
<path d="m 9425.1863,58627.397 c 39.3916,-7.823 78.9348,-14.867 118.5051,-21.719 63.1283,-10.83 126.6691,-18.909 190.3918,-25.244 45.3545,-4.717 90.9159,-4.767 136.4081,-2.836 16.6932,0.765 33.3672,1.767 49.9879,3.508 18.6401,2.239 8.0867,90.109 -10.5534,87.87 l 0,0 c -14.5474,-2.039 -29.203,-2.967 -43.8527,-3.97 -41.2263,-2.443 -82.5435,-3.072 -123.7179,0.998 -61.4754,5.766 -122.7529,13.53 -183.5267,24.552 -38.1617,7.008 -76.3924,13.965 -114.0912,23.191 -18.3176,4.147 -37.8686,-82.203 -19.551,-86.35 z" id="path12375" inkscape:connector-curvature="0" style="fill:#2b1100;fill-opacity:1;fill-rule:nonzero;stroke:none" transform="translate(-9216, -58368)"/><path d="m 9637.0448,58540.661 c -3.982,36.245 -2.8328,72.863 -1.8649,109.245 2.1482,38.286 3.1816,77.603 15.8008,114.181 5.5241,17.724 -78.0263,43.765 -83.5504,26.041 l 0,0 c -13.0885,-44.768 -17.1664,-91.229 -18.7276,-137.734 -1.2697,-41.187 -2.5785,-82.525 0.705,-123.652 2.5284,-18.59 90.1654,-6.672 87.6371,11.919 z" id="path12377" inkscape:connector-curvature="0" style="fill:#2b1100;fill-opacity:1;fill-rule:nonzero;stroke:none" transform="translate(-9216, -58368)"/><path d="m 9833.1948,58552.141 c -17.1846,31.813 -26.2203,67.209 -35.6958,101.87 -13.0119,50.522 -24.6126,101.393 -36.7003,152.141 -6.2958,25.92 -3.1924,13.37 -9.2919,37.656 -4.6402,17.919 -89.1131,-3.955 -84.4728,-21.875 l 0,0 c 6.2221,-23.294 3.0508,-11.214 9.4903,-36.248 12.7105,-51.347 24.7193,-102.861 37.5754,-154.172 11.1394,-41.812 22.3404,-84.033 42.0477,-122.798 9.2122,-16.345 86.2596,27.082 77.0474,43.426 z" id="path12379" inkscape:connector-curvature="0" style="fill:#2b1100;fill-opacity:1;fill-rule:nonzero;stroke:none" transform="translate(-9216, -58368)"/><path d="m 9433.5378,58835.553 c 38.4775,-15.355 79.8322,-21.391 120.4569,-28.237 52.5305,-8.742 105.2878,-16.046 158.2841,-21.269 30.351,-1.869 71.4749,-8.226 93.7477,19.317 6.5202,8.063 9.0386,18.665 13.5579,27.998 -0.021,8.144 0.8588,16.339 -0.061,24.431 -3.3332,29.307 -26.3968,72.156 -38.8465,99.219 -23.9061,51.28 -49.7705,101.604 -76.1485,151.646 -18.1459,35.879 -40.1581,70.231 -52.9322,108.557 -3.2578,8.28 1.3421,9.935 0.6544,3.218 -0.4203,-4.106 -3.8428,-7.532 -4.2159,-11.642 -0.056,-0.612 1.2287,-0.05 1.8431,-0.07 29.5777,8.083 60.1455,11.829 90.5016,15.655 50.5185,6.682 101.3601,7.287 152.1138,3.807 49.603,-4.365 98.0974,-15.952 145.6613,-30.263 29.248,-9.763 58.565,-20.515 84.339,-37.721 1.814,-1.569 3.772,-2.987 5.441,-4.709 0.907,-0.935 1.881,-1.951 2.234,-3.205 0.307,-1.089 -5.171,3.579 -5.334,3.404 -1.081,-1.158 -1.182,-2.94 -1.772,-4.41 -1.297,-3.444 -2.593,-6.887 -3.889,-10.33 -6.325,-17.439 75.88,-47.258 82.205,-29.82 l 0,0 c 2.341,6.583 4.682,13.166 7.024,19.749 1.444,7.043 3.718,13.965 4.332,21.127 3.019,35.243 -14.794,63.082 -43.114,82.201 -33.278,20.592 -69.474,35.429 -106.887,46.831 -53.767,15.652 -108.5083,28.377 -164.4417,33.125 -56.1779,3.734 -112.4507,3.312 -168.4106,-3.668 -39.2595,-4.636 -79.2225,-8.682 -116.7349,-21.794 -5.7905,-2.966 -12.0297,-5.183 -17.3715,-8.897 -31.5476,-21.931 -37.9087,-57.218 -26.6458,-92.094 15.6074,-41.736 38.1689,-80.159 59.2278,-119.312 25.6869,-48.459 50.6732,-97.304 73.4353,-147.218 8.2759,-18.46 16.7362,-36.855 23.9996,-55.747 3.0888,-8.034 5.7365,-16.56 6.0681,-16.508 1.8608,0.291 1.2474,3.554 1.8711,5.331 3.3824,4.661 5.8543,10.143 10.1472,13.982 3.1447,2.811 7.4777,3.985 11.4703,5.346 0.6605,0.226 2.5882,-0.496 1.9466,-0.77 -11.183,-4.785 -25.7452,1.047 -37.0625,-0.302 -50.7842,4.31 -101.2961,11.209 -151.5011,19.992 -32.4719,5.769 -65.705,10.584 -96.5561,22.692 -16.8941,8.196 -55.5311,-71.444 -38.637,-79.64 z" id="path12384" inkscape:connector-curvature="0" style="fill:#2b1100;fill-opacity:1;fill-rule:nonzero;stroke:none" transform="translate(-9216, -58368)"/></svg>