<?xml version="1.0" encoding="UTF-8" standalone="no"?>
<svg
   xmlns:dc="http://purl.org/dc/elements/1.1/"
   xmlns:cc="http://creativecommons.org/ns#"
   xmlns:rdf="http://www.w3.org/1999/02/22-rdf-syntax-ns#"
   xmlns:svg="http://www.w3.org/2000/svg"
   xmlns="http://www.w3.org/2000/svg"
   xmlns:sodipodi="http://sodipodi.sourceforge.net/DTD/sodipodi-0.dtd"
   xmlns:inkscape="http://www.inkscape.org/namespaces/inkscape"
   width="1024"
   height="1024"
   id="U8272"
   version="1.1"
   inkscape:version="0.48.0 r9654"
   sodipodi:docname="U+8272.svg">
  <metadata
     id="metadata13">
    <rdf:RDF>
      <cc:Work
         rdf:about="">
        <dc:format>image/svg+xml</dc:format>
        <dc:type
           rdf:resource="http://purl.org/dc/dcmitype/StillImage" />
      </cc:Work>
    </rdf:RDF>
  </metadata>
  <defs
     id="defs11" />
  <sodipodi:namedview
     pagecolor="#ffffff"
     bordercolor="#666666"
     borderopacity="1"
     objecttolerance="10"
     gridtolerance="10"
     guidetolerance="10"
     inkscape:pageopacity="0"
     inkscape:pageshadow="2"
     inkscape:window-width="640"
     inkscape:window-height="480"
     id="namedview9"
     showgrid="false"
     inkscape:zoom="0.27441406"
     inkscape:cx="512"
     inkscape:cy="512"
     inkscape:window-x="0"
     inkscape:window-y="25"
     inkscape:window-maximized="0"
     inkscape:current-layer="U8272" />
  <path
     style="fill:#a02c2c;fill-opacity:1;fill-rule:nonzero;stroke:#f9f9f9;stroke-width:0.1;stroke-miterlimit:4;stroke-dasharray:none"
     d="M 321.34375 106.96875 C 317.17904 106.87609 314.06994 107.93469 312.59375 110.46875 C 295.75472 143.39175 282.41224 177.97575 268.875 212.34375 C 254.93866 246.99175 241.92115 282.06425 232.6875 318.28125 C 228.32804 336.40225 313.73429 356.9345 318.09375 338.8125 C 325.25641 306.3145 337.44131 275.1965 349.625 244.3125 C 351.44432 239.7449 353.27331 235.16799 355.09375 230.59375 C 356.87709 232.31004 358.80119 233.17306 360.84375 232.96875 C 395.93378 228.07275 430.91944 222.5735 466.0625 218.0625 C 502.55842 213.3895 539.30632 211.7715 576 214.4375 C 588.40319 216.1905 604.11572 217.104 612.8125 226.25 C 611.59447 227.447 608.06463 222.9115 607.8125 223.1875 C 605.90759 225.2755 604.32516 240.3795 603.8125 242.4375 C 593.39814 272.4735 577.25377 300.16 561.6875 327.75 C 558.57152 333.148 555.42847 338.5405 552.3125 343.9375 C 551.65621 345.0768 551.47812 346.36393 551.625 347.75 C 524.6784 348.89179 497.82236 352.76074 471.125 358.5 C 414.45191 370.149 358.62716 385.24 304.03125 404.5 C 282.56856 411.94839 260.88657 419.37529 239.84375 428.1875 C 237.23764 428.48478 235.16856 429.29973 233.84375 430.71875 C 217.43707 437.85384 201.47087 445.94772 186.40625 455.6875 C 176.77883 463.18774 196.39882 495.28051 215.375 513.6875 C 213.44564 534.54261 212.70632 555.57596 211.84375 576.28125 C 209.53358 644.87325 217.50636 712.90375 234.125 779.34375 C 250.05673 832.11975 277.60011 881.369 321.65625 915.75 C 330.27888 922.479 339.81509 927.919 348.90625 934 C 406.88033 965.855 472.41651 971.955 537.21875 975 C 595.43099 977.344 653.24776 971.16225 710.4375 960.90625 C 759.87808 951.10925 808.55514 937.936 857 924.125 C 871.94169 919.811 886.87206 915.39275 901.78125 910.96875 C 919.57723 905.46675 893.63973 821.5605 875.84375 827.0625 C 861.4952 831.6815 847.12302 836.282 832.6875 840.625 C 787.29903 854.136 741.58718 866.6455 695.125 875.9375 C 644.31203 885.1735 592.9098 890.92325 541.15625 889.03125 C 491.73127 886.83525 441.14767 883.6655 395.9375 861.5625 C 354.82486 836.1828 332.96224 806.49777 318.21875 760.71875 C 348.74888 744.91367 380.76879 732.05662 412.5625 719.0625 C 465.51461 697.1805 520.03886 679.7745 575.78125 666.6875 C 593.71871 662.4915 611.91407 659.83675 630.1875 657.71875 C 641.31068 656.25043 641.51888 623.97207 635.875 599.21875 C 659.57366 609.27057 693.03849 614.83711 696.375 603.8125 C 701.54346 586.0755 706.46855 568.2455 708.53125 549.8125 C 713.338 508.7775 715.88667 466.727 705.75 426.25 C 703.04521 419.424 701.04506 412.247 697.625 405.75 C 685.63071 382.96562 666.43601 368.14612 644.03125 359.03125 C 661.5219 328.05156 678.76554 296.67244 689.15625 262.53125 C 697.64145 225.29925 699.62347 188.274 670.25 159.25 C 644.19921 138.949 614.6786 128.9695 581.5625 127.1875 C 539.34645 124.8015 497.09345 126.54575 455.125 131.84375 C 431.57065 134.79571 408.08152 138.27201 384.53125 141.25 C 371.54094 126.02794 338.01488 107.33967 321.34375 106.96875 z M 565.9375 433.9375 C 577.74911 433.9051 589.57541 434.72344 601.375 436.71875 C 617.36455 441.25875 620.6493 440.68575 623.03125 455.46875 C 627.18808 483.28075 625.48576 511.5475 621.96875 539.3125 C 620.70621 550.37761 617.86792 561.06933 614.625 571.65625 C 594.8084 574.58639 575.04423 577.95932 555.5625 582.71875 C 532.12973 588.47968 508.89528 594.85058 485.84375 601.875 C 483.78265 582.2083 481.44541 562.5842 479.1875 542.9375 C 476.40603 512.2525 473.90925 480.834 479.96875 450.375 C 480.41906 448.60182 480.01517 446.80098 478.90625 445 C 482.04778 444.34352 485.16508 443.69424 488.3125 443.0625 C 513.97802 438.217 539.95196 434.00879 565.9375 433.9375 z M 389.6875 467.375 C 388.23062 495.14166 390.20393 523.11524 392.71875 550.78125 C 395.23043 572.68625 397.88381 594.553 400 616.5 C 400.46952 621.24102 406.64323 624.15209 415.4375 625.59375 C 403.67725 629.949 391.97924 634.49779 380.34375 639.21875 C 353.87435 649.77126 327.35477 660.30301 301.3125 671.90625 C 297.88055 641.53519 296.69224 610.88277 297.8125 580.15625 C 299.1887 552.16002 300.05926 523.34174 305.625 495.65625 C 314.6174 492.34901 323.64883 489.18907 332.625 486 C 351.47085 479.22572 370.51466 473.0358 389.6875 467.375 z "
     id="path11719" />
</svg>
