<?xml version="1.0" encoding="utf-8" ?>

<!DOCTYPE svg PUBLIC "-//W3C//DTD SVG 1.1//EN" 
  "http://www.w3.org/Graphics/SVG/1.1/DTD/svg11.dtd">
<svg 
    xmlns="http://www.w3.org/2000/svg"
    xmlns:xlink="http://www.w3.org/1999/xlink"
    xmlns:sodipodi="http://sodipodi.sourceforge.net/DTD/sodipodi-0.dtd"
    xmlns:inkscape="http://www.inkscape.org/namespaces/inkscape"
    width="1024" height="1024" id="U82B1">
<path d="m 10433.016,18725.752 c 46.291,2.626 92.664,0.115 138.883,-2.643 73.419,-5.401 146.593,-13.596 219.87,-20.584 53.763,-5.085 107.656,-8.569 161.603,-10.884 14.668,-0.629 29.31,-1.009 43.919,0.495 18.411,2.919 4.654,89.708 -13.757,86.79 l 0,0 c 3.006,-0.487 3.003,-0.366 -4.033,-0.692 -8.261,-0.382 -14.871,-0.242 -23.326,-0.226 -52.261,1.128 -104.468,3.988 -156.534,8.698 -74.128,6.792 -148.115,15.062 -222.311,21.098 -49.239,3.367 -98.551,6.162 -147.931,5.366 -18.544,-0.768 -14.927,-88.185 3.617,-87.418 z" id="path24839" inkscape:connector-curvature="0" style="fill:#550000;fill-opacity:1;fill-rule:nonzero;stroke:#f9f9f9;stroke-width:0.1;stroke-miterlimit:4;stroke-dasharray:none" transform="translate(-10240, -18432)"/><path d="m 10615.972,18634.171 c -3.916,40.111 -5.53,80.396 -6.377,120.674 2.214,32.107 -3.585,69.35 11.523,99.2 6.77,17.153 -74.092,49.071 -80.863,31.917 l 0,0 c -15.277,-42.673 -17.07,-87.786 -16.302,-132.826 0.794,-41.939 2.487,-83.839 4.775,-125.723 1.434,-18.508 88.678,-11.749 87.244,6.758 z" id="path24841" inkscape:connector-curvature="0" style="fill:#550000;fill-opacity:1;fill-rule:nonzero;stroke:#f9f9f9;stroke-width:0.1;stroke-miterlimit:4;stroke-dasharray:none" transform="translate(-10240, -18432)"/><path d="m 10826.368,18587.841 c 1.758,40.097 -1.272,80.19 -4.189,120.158 -3.159,43.871 -7.987,87.576 -15.609,130.896 -3.246,18.022 -88.2,2.719 -84.953,-15.302 l 0,0 c 7.442,-40.25 11.941,-80.928 14.864,-121.752 2.508,-35.479 5.421,-71.182 2.694,-106.734 -1.541,-18.497 85.652,-25.763 87.193,-7.266 z" id="path24843" inkscape:connector-curvature="0" style="fill:#550000;fill-opacity:1;fill-rule:nonzero;stroke:#f9f9f9;stroke-width:0.1;stroke-miterlimit:4;stroke-dasharray:none" transform="translate(-10240, -18432)"/><path d="m 10573.855,18984.692 c -17.858,27.978 -33.493,57.302 -49.74,86.227 -20.294,36.577 -43.225,71.561 -67.183,105.815 -11.938,16.486 -6.196,8.676 -17.194,23.452 -11.185,14.674 -80.356,-38.053 -69.171,-52.727 l 0,0 c 10.115,-12.919 4.841,-6.048 15.775,-20.649 22.564,-31.525 43.909,-63.921 62.627,-97.905 16.788,-30.171 33.071,-60.626 50.468,-90.453 9.809,-15.787 84.227,30.454 74.418,46.24 z" id="path24845" inkscape:connector-curvature="0" style="fill:#550000;fill-opacity:1;fill-rule:nonzero;stroke:#f9f9f9;stroke-width:0.1;stroke-miterlimit:4;stroke-dasharray:none" transform="translate(-10240, -18432)"/><path d="m 10592.199,19048.767 c -7.921,31.823 -11.088,64.545 -13.814,97.143 -2.88,37.627 -1.87,75.366 -0.238,113.019 0.604,12.646 1.408,25.282 2.232,37.916 1.014,18.456 -85.988,23.238 -87.002,4.782 l 0,0 c -0.591,-13.13 -1.189,-26.26 -1.688,-39.394 -1.371,-41.118 -2.196,-82.31 0.93,-123.379 2.966,-36.612 6.669,-73.213 14.118,-109.23 4.061,-18.129 89.523,1.014 85.462,19.143 z" id="path24847" inkscape:connector-curvature="0" style="fill:#550000;fill-opacity:1;fill-rule:nonzero;stroke:#f9f9f9;stroke-width:0.1;stroke-miterlimit:4;stroke-dasharray:none" transform="translate(-10240, -18432)"/><path d="m 10865.355,19006.057 c -19.119,39.577 -42.995,76.455 -68.225,112.34 -30.603,42.628 -65.764,81.604 -104.275,117.159 -22.29,18.109 -10.962,9.738 -33.903,25.224 -15.389,10.024 -62.641,-62.52 -47.252,-72.544 l 0,0 c 14.987,-9.185 7.181,-3.883 23.172,-16.26 34.325,-30.84 65.21,-65.24 92.157,-102.744 22.069,-31.554 43.272,-63.944 58.676,-99.379 7.68,-16.897 87.33,19.308 79.65,36.204 z" id="path24849" inkscape:connector-curvature="0" style="fill:#550000;fill-opacity:1;fill-rule:nonzero;stroke:#f9f9f9;stroke-width:0.1;stroke-miterlimit:4;stroke-dasharray:none" transform="translate(-10240, -18432)"/><path d="m 10732.562,18989.796 c -8.518,25.59 -11.274,52.64 -14.02,79.331 -3.831,37.248 -1.319,74.347 6.881,110.78 6.401,24.881 17.191,47.862 35.416,66.091 17.667,15.099 40.373,17.587 62.662,19.361 39.237,1.245 78.03,-6.203 116.409,-13.429 34.672,-6.748 69.29,-13.743 104.093,-19.793 3.889,-0.608 7.773,-1.251 11.667,-1.822 5.807,-0.852 12.253,-1.658 18.125,-2.34 2.509,-0.292 10.01,-1.215 7.484,-1.186 -2.497,0.882 -4.994,1.763 -7.491,2.645 16.28,-9.114 59.243,67.627 42.964,76.741 l 0,0 c -4.127,1.794 -8.255,3.589 -12.382,5.383 -15.204,3.507 -30.735,3.985 -46.146,6.318 -34.307,5.396 -68.387,12.019 -102.486,18.581 -46.064,8.582 -92.63,17.11 -139.708,14.872 -43.969,-4.033 -85.953,-13.931 -118.479,-46.014 -27.927,-30.757 -47.115,-66.423 -56.397,-107.2 -9.493,-45.326 -13.079,-91.344 -8.423,-137.58 3.33,-34.09 7.214,-68.395 17.642,-101.179 6.458,-17.435 88.647,13.005 82.189,30.44 z" id="path24851" inkscape:connector-curvature="0" style="fill:#550000;fill-opacity:1;fill-rule:nonzero;stroke:#f9f9f9;stroke-width:0.1;stroke-miterlimit:4;stroke-dasharray:none" transform="translate(-10240, -18432)"/></svg>