<?xml version="1.0" encoding="UTF-8" standalone="no"?>
<svg
   xmlns:dc="http://purl.org/dc/elements/1.1/"
   xmlns:cc="http://creativecommons.org/ns#"
   xmlns:rdf="http://www.w3.org/1999/02/22-rdf-syntax-ns#"
   xmlns:svg="http://www.w3.org/2000/svg"
   xmlns="http://www.w3.org/2000/svg"
   xmlns:sodipodi="http://sodipodi.sourceforge.net/DTD/sodipodi-0.dtd"
   xmlns:inkscape="http://www.inkscape.org/namespaces/inkscape"
   width="1024"
   height="1024"
   id="U82E6"
   version="1.1"
   inkscape:version="0.48.0 r9654"
   sodipodi:docname="U+82E6.svg">
  <metadata
     id="metadata15">
    <rdf:RDF>
      <cc:Work
         rdf:about="">
        <dc:format>image/svg+xml</dc:format>
        <dc:type
           rdf:resource="http://purl.org/dc/dcmitype/StillImage" />
      </cc:Work>
    </rdf:RDF>
  </metadata>
  <defs
     id="defs13" />
  <sodipodi:namedview
     pagecolor="#ffffff"
     bordercolor="#666666"
     borderopacity="1"
     objecttolerance="10"
     gridtolerance="10"
     guidetolerance="10"
     inkscape:pageopacity="0"
     inkscape:pageshadow="2"
     inkscape:window-width="640"
     inkscape:window-height="480"
     id="namedview11"
     showgrid="false"
     inkscape:zoom="0.27441406"
     inkscape:cx="512"
     inkscape:cy="512"
     inkscape:window-x="0"
     inkscape:window-y="25"
     inkscape:window-maximized="0"
     inkscape:current-layer="U82E6" />
  <path
     style="fill:#2b0000;fill-opacity:1;fill-rule:nonzero;stroke:#f9f9f9;stroke-width:0.1;stroke-miterlimit:4;stroke-dasharray:none"
     d="M 674.84375 185.34375 C 654.17907 185.54937 634.64662 189.92078 634.5 198.71875 C 633.96102 217.7548 630.81659 236.54858 627.09375 255.21875 C 599.82225 255.40428 572.55365 255.51726 545.28125 255.40625 C 509.19275 255.39725 473.11085 255.633 437.03125 256.5 C 432.91103 256.60985 428.77646 256.74165 424.65625 256.875 C 424.68986 240.53221 425.11245 224.20119 426.0625 207.875 C 426.6985 189.112 338.22975 186.112 337.59375 204.875 C 337.23722 224.33547 337.09342 243.79743 337.28125 263.25 C 331.53435 264.00342 325.79093 264.81526 320.0625 265.75 C 288.1023 270.738 256.27675 276.489 224.71875 283.625 C 206.55695 288.356 228.8382 373.981 247 369.25 C 275.4875 361.708 304.5431 356.53025 333.625 351.90625 C 336.55623 351.41769 339.50032 350.96095 342.4375 350.53125 C 344.593 366.74059 347.4494 382.84189 350.9375 398.84375 C 355.7129 419.32475 362.10045 439.43475 370.78125 458.59375 C 374.40045 467.00875 379.685 474.2785 385.4375 481.3125 C 397.69075 494.79366 459.50039 439.43206 452.21875 423.09375 C 451.85068 422.56259 451.494 422.06038 451.21875 421.59375 C 451.21022 421.58178 451.22734 421.57456 451.21875 421.5625 C 451.20903 421.55165 451.19731 421.54204 451.1875 421.53125 C 451.01604 421.23693 450.88598 420.9944 450.84375 420.84375 C 444.17495 407.90575 440.40275 393.6575 436.59375 379.6875 C 433.85797 367.87643 431.59769 355.97032 429.8125 344 C 432.95449 343.91198 436.07708 343.82525 439.21875 343.75 C 474.57355 342.98 509.9502 342.665 545.3125 342.625 C 566.50849 342.67991 587.71051 342.64362 608.90625 342.5625 C 607.92598 347.44036 606.93549 352.30686 605.96875 357.1875 C 603.26765 370.6835 600.9856 384.2535 598.625 397.8125 C 598.5491 397.9485 598.48225 398.115 598.40625 398.25 C 594.22635 416.613 680.78885 436.2995 684.96875 417.9375 C 685.37345 415.9615 685.7828 413.976 686.1875 412 C 688.099 399.225 690.0518 386.47825 692.4375 373.78125 C 694.37725 363.29764 696.36637 352.80773 698.40625 342.34375 C 713.27391 342.53398 728.15093 342.96869 743 343.875 C 765.6007 346.068 788.1648 348.5115 810.8125 350.1875 C 823.43332 351.69977 836.26508 351.23021 848.90625 352.46875 C 848.28692 352.22899 847.42234 351.9364 845.65625 351.375 C 863.32311 353.99421 900.56957 280.15171 884.40625 271.84375 C 867.80525 265.26775 875.66155 267.3825 861.09375 264.6875 C 846.42945 263.5015 831.6681 263.5185 817 262.3125 C 793.948 260.7685 771.0172 258.2765 748 256.3125 C 737.36963 255.74196 726.73115 255.36528 716.09375 255.125 C 719.40166 236.94924 722.02189 218.66204 722.96875 200.1875 C 723.13492 190.217 698.26372 185.11071 674.84375 185.34375 z M 848.90625 352.46875 C 850.17719 352.96075 850.21629 352.99524 852.75 352.90625 C 851.4693 352.74108 850.1913 352.59465 848.90625 352.46875 z M 451.21875 421.59375 C 451.7028 422.27326 451.76183 422.35097 452.0625 422.78125 C 451.84024 422.35202 451.54624 421.96235 451.21875 421.59375 z M 452.0625 422.78125 C 452.11621 422.88498 452.17101 422.98663 452.21875 423.09375 C 453.19241 424.49882 453.69459 425.11687 452.0625 422.78125 z M 536 432.40625 C 531.17975 432.45642 527.66864 433.7428 526.28125 436.65625 C 514.05905 464.69325 504.8935 493.90375 495.5 522.96875 C 494.6309 525.67935 493.74662 528.38395 492.875 531.09375 C 471.34251 532.30382 449.78287 533.5164 428.25 534.71875 C 381.4189 537.26175 334.60295 540.044 287.78125 542.75 C 254.75375 544.658 221.68725 546.19075 188.84375 550.34375 C 170.28335 553.21175 183.78345 640.71275 202.34375 637.84375 C 232.35925 632.94675 262.8157 631.5415 293.125 629.5625 C 339.7083 626.5375 386.323 623.745 432.9375 621.25 C 443.50932 620.67813 454.08331 620.1447 464.65625 619.59375 C 460.52846 633.15105 456.69901 646.794 453.09375 660.5 C 452.37102 663.42014 453.95245 666.41073 457.15625 669.3125 C 447.24176 670.1751 437.34087 671.25417 427.46875 672.59375 C 395.45085 677.67275 363.6832 684.66275 333.9375 697.96875 L 333.9375 697.9375 C 327.76204 700.83721 328.8272 713.29903 333.46875 727.5625 C 310.52884 727.75094 286.79166 733.00701 287.03125 742.75 C 288.23445 772.317 290.12925 801.83325 293.03125 831.28125 C 295.66105 857.42325 299.82755 883.38075 307.71875 908.46875 C 314.65066 927.78104 322.37384 939.52042 336.90625 947.90625 C 341.67023 962.08906 348.2307 972.65821 354.90625 971.3125 C 386.43775 964.3765 418.82995 963.78175 450.96875 963.59375 C 492.39115 964.33575 533.76955 966.6395 575.15625 968.4375 C 601.16175 969.8165 627.32445 969.73275 653.15625 973.34375 C 656.45875 973.97275 659.66155 974.96925 662.84375 976.03125 C 668.99286 977.79077 675.87264 969.07154 681.5625 956.625 C 684.1776 957.03692 686.36999 956.63418 687.96875 955.1875 C 700.29675 941.5085 708.0225 926.96425 711.5625 908.78125 C 716.6511 888.10825 720.8315 867.20975 725.625 846.46875 C 731.4648 820.79375 737.33145 795.11325 741.09375 769.03125 C 744.05395 750.28325 747.92455 731.4185 741.78125 712.8125 C 729.85875 689.6915 717.9628 679.73025 692.75 674.28125 C 672.3313 670.31325 651.5926 668.82525 630.8125 668.28125 C 601.59522 667.22209 572.3658 665.90566 543.125 665.84375 C 544.90839 658.72136 546.75733 651.59819 548.75 644.53125 C 551.68197 634.54937 554.72448 624.62072 557.8125 614.6875 C 558.39574 614.65511 558.97927 614.62626 559.5625 614.59375 C 594.0393 612.67075 628.40655 609.485 662.84375 607 C 689.15755 605.531 715.3945 602.984 741.625 600.5 C 757.9068 599.045 774.199 597.31275 790.5625 597.46875 C 798.6286 597.30075 806.102 599.77725 813.5 602.65625 C 825.1886 607.87225 837.23555 611.958 849.65625 615 C 856.77785 616.946 864.28585 617.3385 871.40625 619.0625 C 889.73855 623.3785 910.0822 536.941 891.75 532.625 C 884.5355 531.084 877.26415 530.2155 870.03125 528.8125 C 861.18235 526.9345 852.9405 523.1265 844.5625 519.8125 C 827.1968 513.4275 809.2827 508.90525 790.625 509.15625 C 771.3544 509.25025 752.18465 510.89575 733.03125 512.96875 C 707.50345 515.56775 681.96175 518.175 656.34375 519.75 C 633.09671 521.53757 609.87375 523.58102 586.625 525.34375 C 592.3565 508.15779 598.45949 491.11048 606.1875 474.71875 C 612.87221 460.68037 559.22483 432.16454 536 432.40625 z M 537.9375 753.15625 C 567.7558 753.13525 597.5305 754.67775 627.3125 755.96875 C 636.03481 756.51861 644.84352 756.80968 653.59375 757.59375 C 650.58264 780.98612 645.39164 803.97242 640.125 826.9375 C 635.73744 845.65234 631.73923 864.47161 626.96875 883.09375 C 610.88869 882.33185 594.77884 881.92333 578.6875 881.34375 C 535.9827 879.73475 493.2931 877.4655 450.5625 876.6875 C 430.60336 876.75659 410.63216 877.08938 390.71875 878.375 C 384.41992 860.45312 382.62497 841.2503 380.125 822.53125 C 378.53519 806.96627 377.25198 791.3746 376.4375 775.75 C 396.93071 766.72361 419.024 762.40403 441.0625 758.96875 C 473.1711 754.71575 505.5862 753.55925 537.9375 753.15625 z M 673.90625 760.6875 C 674.14912 760.74495 674.38244 760.81577 674.625 760.875 C 675.4534 761.143 676.3467 761.26525 677.125 761.65625 C 677.5744 761.88625 676.0704 761.82675 675.625 761.59375 C 675.05263 761.29374 674.48472 760.98155 673.90625 760.6875 z M 375.125 869.46875 C 377.41377 870.25848 379.72512 871.01316 381.8125 872.21875 C 384.45853 873.74708 387.30225 876.12035 389.625 878.4375 C 386.53383 878.64256 383.43086 878.87078 380.34375 879.125 C 379.25232 874.5191 377.53591 871.08822 375.125 869.46875 z "
     id="path9074" />
</svg>
