<?xml version="1.0" encoding="UTF-8" standalone="no"?>
<svg
   xmlns:dc="http://purl.org/dc/elements/1.1/"
   xmlns:cc="http://creativecommons.org/ns#"
   xmlns:rdf="http://www.w3.org/1999/02/22-rdf-syntax-ns#"
   xmlns:svg="http://www.w3.org/2000/svg"
   xmlns="http://www.w3.org/2000/svg"
   xmlns:sodipodi="http://sodipodi.sourceforge.net/DTD/sodipodi-0.dtd"
   xmlns:inkscape="http://www.inkscape.org/namespaces/inkscape"
   width="1024"
   height="1024"
   id="U8336"
   version="1.1"
   inkscape:version="0.48.0 r9654"
   sodipodi:docname="U+8336.svg">
  <metadata
     id="metadata16">
    <rdf:RDF>
      <cc:Work
         rdf:about="">
        <dc:format>image/svg+xml</dc:format>
        <dc:type
           rdf:resource="http://purl.org/dc/dcmitype/StillImage" />
      </cc:Work>
    </rdf:RDF>
  </metadata>
  <defs
     id="defs14" />
  <sodipodi:namedview
     pagecolor="#ffffff"
     bordercolor="#666666"
     borderopacity="1"
     objecttolerance="10"
     gridtolerance="10"
     guidetolerance="10"
     inkscape:pageopacity="0"
     inkscape:pageshadow="2"
     inkscape:window-width="640"
     inkscape:window-height="480"
     id="namedview12"
     showgrid="false"
     inkscape:zoom="0.27441406"
     inkscape:cx="512"
     inkscape:cy="512"
     inkscape:window-x="0"
     inkscape:window-y="25"
     inkscape:window-maximized="0"
     inkscape:current-layer="U8336" />
  <path
     style="fill:#800000;fill-opacity:1;fill-rule:nonzero;stroke:#f9f9f9;stroke-width:0.1;stroke-miterlimit:4;stroke-dasharray:none"
     d="M 373 18.28125 C 368.22477 18.317766 364.75739 19.58632 363.375 22.46875 C 348.1438 59.34395 342.8201 99.15745 338.0625 138.46875 C 336.7913 149.17816 335.86255 159.90882 335.25 170.625 C 296.77342 173.0022 258.27412 175.38322 220 180.0625 C 201.6459 182.9303 215.17725 269.46155 233.53125 266.59375 C 267.94214 260.9985 302.72821 258.3601 337.5 255.90625 C 338.69156 266.63371 340.20004 277.3251 342.09375 288 C 349.54865 314.806 344.95275 301.8736 355.78125 326.875 C 363.64985 343.533 442.1812 306.43925 434.3125 289.78125 C 428.6361 280.19445 431.4371 285.93975 426.875 272.09375 C 425.37322 264.66535 424.1401 257.22488 423.15625 249.75 C 456.78068 247.32697 490.40229 244.9224 524.03125 242.5625 C 522.77905 262.51036 521.49169 282.46553 520.125 302.40625 C 518.9828 320.68665 605.13915 326.06175 606.28125 307.78125 C 607.62369 284.00773 608.97299 260.23906 610.375 236.46875 C 642.3655 234.06984 674.31962 231.36545 706.25 228.25 C 722.7976 226.3573 714.99145 227.37185 729.71875 225.34375 C 748.01825 222.52245 734.7371 136.2412 716.4375 139.0625 C 704.5957 141.1393 711.0491 140.09095 696.9375 142.09375 C 670.0066 145.29824 643.04429 148.02909 616.03125 150.40625 C 618.24787 121.28312 620.81181 92.189084 624.8125 63.25 C 626.8045 44.7916 539.8045 35.4166 537.8125 53.875 C 534.47705 88.262164 531.82155 122.6931 529.4375 157.15625 C 493.52075 159.80834 457.61559 162.38092 421.6875 164.875 C 422.13371 159.57177 422.66284 154.26501 423.28125 148.96875 C 427.03635 119.05145 430.6953 88.4154 442.4375 60.375 C 449.09811 46.48693 396.00793 18.105311 373 18.28125 z M 442.71875 329.46875 C 441.14828 329.41276 439.75583 329.78741 438.59375 330.65625 C 407.60815 356.55995 378.8992 385.0764 349.9375 413.1875 C 312.4972 449.9674 274.43115 486.09705 236.65625 522.53125 C 211.32075 546.90805 185.4988 570.75755 160.125 595.09375 C 157.9206 597.24135 155.7044 599.38365 153.5 601.53125 C 140.4226 614.65775 202.2976 676.314 215.375 663.1875 C 217.2722 661.218 219.19655 659.25075 221.09375 657.28125 C 245.79785 632.50625 271.1806 608.4653 296.25 584.0625 C 333.8176 547.5021 371.8534 511.38735 409.4375 474.84375 C 415.93505 468.61537 422.43127 462.36338 428.9375 456.125 C 436.20417 471.37413 446.24232 484.22153 458.0625 495.40625 C 448.24242 496.21549 441.15338 498.834 440.375 503.875 C 435.4548 551.417 434.1378 599.2546 432.6875 647 C 432.6285 649.08243 432.58748 651.16751 432.53125 653.25 C 418.6651 655.20406 404.80989 657.11723 390.9375 659.03125 C 352.2053 663.90125 313.1914 669.4012 274.0625 668.3125 C 255.4932 667.5515 251.89955 755.08275 270.46875 755.84375 C 299.80161 755.76634 328.99816 752.98319 358.09375 749.375 C 353.27873 752.5245 348.48638 755.69386 343.71875 758.90625 C 310.71685 781.24315 280.23365 806.9034 252.21875 835.1875 C 237.76955 851.0325 244.61905 843.09935 231.65625 858.90625 C 220.12715 873.30665 288.00215 927.6503 299.53125 913.25 C 308.28075 901.9218 303.46075 907.80745 314.09375 895.71875 C 337.62735 871.27935 363.7523 849.5746 391.875 830.5625 C 404.40883 822.16473 417.08451 813.82784 430.25 806.40625 C 430.20122 813.84337 430.1348 821.28169 430.09375 828.71875 C 429.87385 850.05195 430.3491 871.41155 429.125 892.71875 C 428.4784 911.19195 515.57215 914.2232 516.21875 895.75 C 516.61135 873.3948 515.93275 851.0437 515.78125 828.6875 C 515.57222 794.81817 515.56288 760.96151 515.96875 727.09375 C 542.60237 723.43589 569.2618 719.94534 595.96875 716.8125 C 621.92495 713.6877 647.95615 711.3733 674.09375 710.75 C 692.48975 709.9566 688.7711 623.23775 670.375 624.03125 C 642.046 625.70385 613.79365 628.5373 585.65625 632.25 C 563.09101 635.09995 540.56054 638.11679 518.03125 641.21875 C 519.30175 606.88162 520.58775 572.48002 524.28125 538.3125 C 565.1609 556.18311 607.94449 569.19324 649.34375 585.8125 C 662.29225 590.8169 674.23385 597.4114 685.34375 605.625 C 700.58605 615.9547 749.27355 544.11095 734.03125 533.78125 C 717.18005 522.86835 700.00085 512.77905 681.03125 505.84375 C 638.64195 489.26895 595.0052 475.9315 553.4375 457.3125 C 535.0924 447.7714 514.4399 437.7821 507.125 416.9375 C 505.28409 410.33182 492.60923 409.40685 477.625 411.71875 C 482.03728 408.00858 486.49885 404.34704 491.03125 400.78125 C 504.74368 390.52899 461.25027 330.12945 442.71875 329.46875 z M 598.75 771.15625 C 579.54844 770.70822 528.97866 821.87394 540.6875 833.96875 C 567.7801 861.19775 601.9498 877.9462 637 892.375 C 661.5769 901.9848 687.22795 909.1541 710.03125 922.6875 C 726.10585 931.6721 768.4495 855.89095 752.375 846.90625 C 725.9639 832.64625 697.9971 822.40865 669.6875 812.53125 C 645.732 802.78995 621.65955 792.2409 603.59375 773.0625 C 602.3825 771.81131 600.73637 771.2026 598.75 771.15625 z "
     id="path20627" />
</svg>
