<?xml version="1.0" encoding="UTF-8" standalone="no"?>
<svg
   xmlns:dc="http://purl.org/dc/elements/1.1/"
   xmlns:cc="http://creativecommons.org/ns#"
   xmlns:rdf="http://www.w3.org/1999/02/22-rdf-syntax-ns#"
   xmlns:svg="http://www.w3.org/2000/svg"
   xmlns="http://www.w3.org/2000/svg"
   xmlns:sodipodi="http://sodipodi.sourceforge.net/DTD/sodipodi-0.dtd"
   xmlns:inkscape="http://www.inkscape.org/namespaces/inkscape"
   width="1024"
   height="1024"
   id="U83DC"
   version="1.1"
   inkscape:version="0.48.0 r9654"
   sodipodi:docname="U+83DC.svg">
  <metadata
     id="metadata18">
    <rdf:RDF>
      <cc:Work
         rdf:about="">
        <dc:format>image/svg+xml</dc:format>
        <dc:type
           rdf:resource="http://purl.org/dc/dcmitype/StillImage" />
      </cc:Work>
    </rdf:RDF>
  </metadata>
  <defs
     id="defs16" />
  <sodipodi:namedview
     pagecolor="#ffffff"
     bordercolor="#666666"
     borderopacity="1"
     objecttolerance="10"
     gridtolerance="10"
     guidetolerance="10"
     inkscape:pageopacity="0"
     inkscape:pageshadow="2"
     inkscape:window-width="640"
     inkscape:window-height="480"
     id="namedview14"
     showgrid="false"
     inkscape:zoom="0.27441406"
     inkscape:cx="512"
     inkscape:cy="512"
     inkscape:window-x="0"
     inkscape:window-y="25"
     inkscape:window-maximized="0"
     inkscape:current-layer="U83DC" />
  <path
     style="fill:#c83737;fill-opacity:1;fill-rule:nonzero;stroke:#f9f9f9;stroke-width:0.1;stroke-miterlimit:4;stroke-dasharray:none"
     d="M 630.0625 33.15625 C 617.97662 33.147987 608.72822 35.544281 607.65625 41.3125 C 603.26703 72.069273 597.69129 102.61339 591.125 132.96875 C 546.94517 134.53888 502.75862 136.30725 458.59375 138.25 C 458.60573 120.17423 458.72352 102.10702 458.90625 84.03125 C 458.58815 65.26305 370.08815 66.76305 370.40625 85.53125 C 371.06643 104.70004 371.32191 123.85427 371.5 143.03125 C 343.02201 144.94135 314.58551 147.36876 286.25 150.875 C 250.58829 155.174 215.02725 160.27925 179.3125 164.09375 C 160.64805 165.91805 169.2418 253.91805 187.90625 252.09375 C 224.20849 246.88845 260.48905 241.50515 296.875 236.90625 C 321.99547 233.63316 347.21421 231.28793 372.46875 229.4375 C 373.61955 253.0791 376.38684 276.59303 381.0625 299.875 C 383.1987 311.8374 387.80333 322.8349 392.90625 333.75 C 401.48723 350.4413 480.17473 310.0038 471.59375 293.3125 C 469.51192 289.6202 467.49639 286.41295 466.96875 281.65625 C 462.68198 262.79481 460.38095 243.67264 459.375 224.4375 C 496.24404 222.84468 533.148 221.47179 570.03125 220.25 C 567.37348 231.41157 564.76381 242.59005 562.21875 253.78125 C 559.12616 267.48695 560.54364 260.82805 557.96875 273.78125 C 557.41123 276.81963 559.30134 279.77141 562.875 282.53125 C 533.24114 298.22644 503.78682 314.23437 474.34375 330.28125 C 418.34722 361.02075 363.14514 393.18315 307.8125 425.09375 C 274.70865 444.05145 241.95487 463.59195 210.1875 484.71875 C 202.73922 489.83055 194.93267 494.37345 187.28125 499.15625 C 171.50352 509.44595 220.00352 583.82095 235.78125 573.53125 C 243.51238 567.77705 252.26493 563.34295 259.84375 557.34375 C 289.29597 536.58055 319.97538 517.70225 351.125 499.59375 C 357.25751 495.99983 363.39885 492.40727 369.53125 488.8125 C 384.85932 511.80598 403.48658 532.39831 421.71875 553.09375 C 434.28425 567.06055 447.2839 580.62115 460.4375 594.03125 L 464.84375 598.375 C 478.37872 611.404 539.78496 547.5915 526.25 534.5625 L 523.0625 531.625 C 510.91433 519.6222 498.97008 507.44405 487.4375 494.84375 C 473.08671 478.76475 458.45951 462.7181 446.21875 444.9375 C 446.11466 444.7479 445.99706 444.5803 445.875 444.40625 C 468.86146 431.21463 491.9196 418.19249 515.1875 405.5 C 566.00483 378.0002 617.03777 350.8524 668.9375 325.4375 C 695.86387 312.88 722.9534 300.6566 751.0625 290.9375 C 764.39506 285.93784 749.74662 237.08563 734.21875 216.65625 C 753.48268 216.6069 771.75098 220.40299 789.25 228.34375 C 796.49102 231.45935 803.11674 235.6997 809.5625 240.1875 C 825.11169 250.6601 874.48669 177.37885 858.9375 166.90625 C 847.78526 159.53255 836.35552 152.5283 823.96875 147.375 C 794.90262 135.2995 764.58563 128.7988 732.9375 129.375 C 715.46504 129.31147 697.99241 129.60206 680.53125 130.0625 C 685.58104 105.93826 690.22131 81.718927 694.6875 57.46875 C 697.04583 44.778669 656.65143 33.174429 630.0625 33.15625 z M 698.53125 216.71875 C 684.19228 222.67831 670.00086 228.98346 655.90625 235.5 C 657.25318 229.51594 658.63734 223.53552 660.03125 217.5625 C 672.85922 217.20262 685.70091 216.88933 698.53125 216.71875 z M 755.21875 333.71875 C 753.21102 333.63874 751.48984 334.15829 750.1875 335.34375 C 727.36625 357.94435 708.65361 384.0507 690.90625 410.6875 C 680.5481 426.66513 670.59964 442.92922 661.71875 459.75 C 658.9049 456.90059 656.09957 454.03131 653.34375 451.125 C 637.50335 435.0778 621.59475 419.0772 606.71875 402.125 C 594.15659 388.1841 528.43785 447.40275 541 461.34375 C 557.34667 478.55425 573.90797 495.52815 590.40625 512.59375 C 597.30784 520.04435 604.39086 527.3426 611.46875 534.625 C 616.91352 540.09743 630.72841 532.76587 644.1875 521.3125 C 660.31879 538.95749 715.17481 560.12264 721.375 546.125 C 724.35614 538.7589 726.87564 531.3418 728.78125 523.625 C 737.47456 500.6997 750.5015 479.74285 763.5625 459.09375 C 777.32196 438.43595 791.67506 417.9343 809.8125 400.8125 C 822.40179 389.35297 774.62681 334.49221 755.21875 333.71875 z M 542.0625 536.1875 C 535.05723 536.26839 530.02694 537.95271 528.71875 541.84375 C 521.97417 564.54196 518.20292 587.82415 515.6875 611.28125 C 461.53985 617.95608 407.34152 624.12908 353.03125 629.34375 C 317.48748 632.85955 281.99906 636.7784 246.5625 641.25 C 227.94869 643.6992 239.47993 731.41795 258.09375 728.96875 C 292.54043 723.19785 327.22663 719.23745 361.9375 715.46875 C 375.87241 714.00242 389.8229 712.50372 403.75 710.96875 C 400.26019 713.74073 396.77415 716.51465 393.28125 719.28125 C 360.6043 744.67185 329.73974 772.21715 301.125 802.09375 C 284.13469 819.50045 270.81286 839.9046 256.15625 859.1875 C 244.61649 872.2175 237.26076 886.3165 232.5625 902.9375 C 229.62889 920.91672 311.42255 934.89439 319.6875 919.03125 C 313.70525 936.56319 321.02428 916.05956 326.84375 912 C 339.22632 895.2088 350.43131 877.4766 364.65625 862.125 C 389.92477 834.9293 417.71424 810.2929 447.0625 787.5625 C 467.20875 771.77649 487.20802 755.66566 508.15625 740.9375 C 508.03206 762.29584 508.62094 783.6831 510.03125 805.03125 C 511.63668 830.24445 515.10572 855.2667 517.78125 880.375 C 518.64877 884.2525 518.06237 888.39365 517.71875 891.40625 C 517.87938 896.52021 516.82596 909.20693 517.71875 897.78125 C 518.35783 915.74052 601.36841 931.72567 604.9375 913.6875 C 606.48237 903.16678 606.30879 906.70612 606.34375 898.1875 C 607.11621 888.738 606.86855 879.29255 605.5 869.875 C 602.35992 846.1943 598.69559 822.55555 596.90625 798.71875 C 596.09275 788.5884 595.53618 778.45223 595.1875 768.3125 C 612.92783 778.90761 630.96308 789.02598 649.03125 799.03125 C 689.97695 820.93465 731.73129 841.2766 773.15625 862.25 C 805.28192 877.9717 836.45915 895.3489 864.59375 917.5 C 872.5486 923.8319 879.59826 931.1262 886.625 938.4375 C 899.76303 951.7136 962.35678 889.7761 949.21875 876.5 C 939.22022 866.6131 929.12586 856.7938 917.96875 848.1875 C 885.07898 823.2686 849.46228 802.73405 812.28125 784.84375 C 771.89021 764.46055 731.19243 744.65035 691.375 723.15625 C 669.2051 710.67979 646.98352 698.14966 625.71875 684.15625 C 646.26269 681.57327 666.82839 678.9986 687.375 676.4375 C 715.96019 672.8921 744.60967 669.7086 773.40625 668.625 C 783.39654 668.7547 793.6804 667.8631 803.53125 668.1875 C 822.358 668.8136 825.32675 580.0635 806.5 579.4375 C 794.06865 579.3161 781.6501 580.50785 769.21875 580.71875 C 738.10027 582.45735 707.15881 586.16995 676.28125 590.34375 C 652.60208 593.49332 628.90339 596.64289 605.21875 599.75 C 607.0575 589.71832 609.40223 579.77988 612.5625 570.03125 C 617.23462 556.13469 567.08132 535.8986 542.0625 536.1875 z M 606.28125 898.875 C 606.24707 900.1266 606.21001 901.4284 606.09375 900.9375 C 606.16466 900.24748 606.22121 899.56504 606.28125 898.875 z "
     id="path9812" />
</svg>
