<?xml version="1.0" encoding="UTF-8" standalone="no"?>
<svg
   xmlns:dc="http://purl.org/dc/elements/1.1/"
   xmlns:cc="http://creativecommons.org/ns#"
   xmlns:rdf="http://www.w3.org/1999/02/22-rdf-syntax-ns#"
   xmlns:svg="http://www.w3.org/2000/svg"
   xmlns="http://www.w3.org/2000/svg"
   xmlns:sodipodi="http://sodipodi.sourceforge.net/DTD/sodipodi-0.dtd"
   xmlns:inkscape="http://www.inkscape.org/namespaces/inkscape"
   width="1024"
   height="1024"
   id="U84DD"
   version="1.1"
   inkscape:version="0.48.0 r9654"
   sodipodi:docname="U+84DD.svg">
  <metadata
     id="metadata20">
    <rdf:RDF>
      <cc:Work
         rdf:about="">
        <dc:format>image/svg+xml</dc:format>
        <dc:type
           rdf:resource="http://purl.org/dc/dcmitype/StillImage" />
      </cc:Work>
    </rdf:RDF>
  </metadata>
  <defs
     id="defs18" />
  <sodipodi:namedview
     pagecolor="#ffffff"
     bordercolor="#666666"
     borderopacity="1"
     objecttolerance="10"
     gridtolerance="10"
     guidetolerance="10"
     inkscape:pageopacity="0"
     inkscape:pageshadow="2"
     inkscape:window-width="640"
     inkscape:window-height="480"
     id="namedview16"
     showgrid="false"
     inkscape:zoom="0.27441406"
     inkscape:cx="512"
     inkscape:cy="512"
     inkscape:window-x="0"
     inkscape:window-y="25"
     inkscape:window-maximized="0"
     inkscape:current-layer="U84DD" />
  <path
     style="fill:#2b0000;fill-opacity:1;fill-rule:nonzero;stroke:#f9f9f9;stroke-width:0.1;stroke-miterlimit:4;stroke-dasharray:none"
     d="M 612.15625 88.96875 C 606.64588 89.044934 602.67156 90.473687 601.3125 93.71875 C 593.4647 115.49363 585.8815 137.35482 578.375 159.25 C 558.87984 159.2702 539.39389 159.53392 519.90625 160.3125 C 476.22968 162.25657 432.61054 165.25266 389.09375 169.375 C 387.93372 154.17419 386.74661 138.96585 385.34375 123.78125 C 382.31095 105.24725 294.93595 119.55975 297.96875 138.09375 C 299.59767 151.48218 300.90657 164.90774 302.09375 178.34375 C 277.73933 180.75957 253.37695 182.96939 228.9375 184.34375 C 210.257 186.00375 218.0695 274.06725 236.75 272.40625 C 261.50411 270.05515 286.25098 267.43899 310.96875 264.75 C 313.85512 282.70779 317.69852 300.50556 322.4375 318.09375 C 324.6557 326.88675 327.6507 335.28425 331.375 343.53125 C 339.68494 359.73383 413.72644 322.45475 411 304.78125 C 410.36514 303.18026 407.27538 294.6972 407.3125 294.0625 C 403.45069 281.27528 400.41074 268.27125 398.03125 255.15625 C 439.81543 251.01641 481.69725 248.12423 523.65625 246.3125 C 531.96356 246.00878 540.2852 245.78662 548.59375 245.65625 C 543.66537 259.68197 538.5098 273.61595 532.65625 287.28125 C 531.76295 289.09425 530.86205 290.90575 529.96875 292.71875 C 529.72305 292.87175 529.4957 293.0335 529.25 293.1875 C 519.5513 309.2675 595.33255 354.98625 605.03125 338.90625 C 611.81725 326.66025 608.8021 332.794 614.1875 320.5 C 623.73093 296.12327 631.8784 271.24911 640.3125 246.46875 C 651.57654 246.73366 662.83249 247.02133 674.09375 247.28125 C 704.38635 248.11025 734.66895 248.8055 764.96875 248.0625 C 776.57275 247.7005 788.14545 246.56475 799.65625 245.09375 C 804.88845 244.42475 806.42855 243.914 803.59375 244.75 C 822.40625 243.872 818.25 155.1845 799.4375 156.0625 C 786.9929 157.1095 774.73425 159.69075 762.21875 160.09375 C 733.38785 161.23775 704.5304 160.76975 675.6875 160.34375 C 673.95808 160.32073 672.22948 160.27444 670.5 160.25 C 674.48724 149.40358 678.56887 138.59872 682.875 127.875 C 688.76424 113.81306 636.03452 88.638621 612.15625 88.96875 z M 411 304.78125 C 411.0193 304.82992 411.11052 305.02728 411.125 305.0625 C 411.10414 304.99345 411.0574 304.79442 411 304.625 C 411.00904 304.67515 410.99221 304.73078 411 304.78125 z M 411 304.625 C 410.89757 304.0569 410.70633 303.52413 410.4375 303 C 410.73784 303.84624 410.88166 304.27571 411 304.625 z M 468.90625 348.28125 C 464.74079 348.24027 461.63214 349.35406 460.1875 351.90625 C 444.3635 381.98025 430.94805 413.2075 417.03125 444.1875 C 404.00275 473.4425 391.34565 502.8775 380.28125 532.9375 C 377.324 540.62807 374.93688 548.48933 372.96875 556.46875 C 372.66438 532.51563 372.95227 508.55048 373.5625 484.59375 C 374.8025 448.09075 377.2705 411.5915 377.0625 375.0625 C 376.0767 356.3315 287.7642 360.98775 288.75 379.71875 C 290.0017 413.72275 287.7284 447.78125 286.6875 481.78125 C 285.7396 522.04225 285.49255 562.3095 286.78125 602.5625 C 287.67075 620.8815 287.94075 639.2265 287.78125 657.5625 C 287.13935 665.1465 288.3163 672.31125 289.625 679.78125 C 294.45437 697.57967 376.51475 675.75183 375.65625 657.75 C 377.38403 670.11127 375.96576 661.88273 376.34375 657.0625 C 375.98745 637.7635 375.369 618.48675 374.1875 599.21875 C 373.72851 589.08729 373.40406 578.94749 373.1875 568.8125 C 385.45675 584.71507 455.19661 596.73215 458.46875 580.25 C 459.35695 574.165 461.1641 568.301 463.1875 562.5 C 466.61682 552.49075 470.32696 542.59699 474.1875 532.75 C 479.62093 538.34339 484.82404 541.19732 488.75 539.21875 C 507.43921 529.18739 526.37805 519.61985 545.625 510.71875 C 532.11077 523.72346 522.55541 537.90413 527.8125 544.0625 C 542.1855 560.1835 553.2306 578.78875 564.3125 597.21875 C 570.7329 609.00975 578.11245 620.35075 583.40625 632.71875 C 591.38435 649.72075 671.50935 612.127 663.53125 595.125 C 656.24535 580.287 647.7988 566.0995 639.5 551.8125 C 626.41572 530.25585 613.08678 508.77641 597.21875 489.125 C 613.32463 483.28944 629.74769 478.37559 646.5625 474.90625 C 669.4446 471.34425 692.54645 469.18425 715.65625 467.78125 C 730.84485 467.37425 746.10175 467.1805 761.28125 468.0625 C 762.32825 468.1495 763.35925 468.2225 764.40625 468.3125 C 783.19555 469.3625 788.1643 380.8 769.375 379.75 C 767.8291 379.693 766.26465 379.6225 764.71875 379.5625 C 746.48415 379.0665 728.2206 379.22325 710 380.03125 C 682.601 381.87725 655.1896 384.41425 628.125 389.15625 C 596.1868 396.21625 565.20835 406.5845 535.21875 419.6875 C 530.53785 421.69952 525.86503 423.75907 521.21875 425.84375 C 526.23012 415.55691 531.4933 405.40146 537.1875 395.46875 C 544.98856 381.68694 491.39975 348.50252 468.90625 348.28125 z M 228.09375 390.625 C 209.01325 390.70664 191.87545 394.48569 191.46875 402.6875 C 190.07455 432.1415 188.93095 461.60975 188.40625 491.09375 C 188.22025 517.38975 187.8507 543.67075 187.75 569.96875 C 187.8547 580.09475 188.12275 590.22375 188.46875 600.34375 C 189.46725 619.15275 278.1235 614.46425 277.125 595.65625 C 276.404 586.99625 276.25095 578.27375 275.90625 569.59375 C 275.57195 543.93275 275.67305 518.286 275.84375 492.625 C 276.32825 464.082 277.32105 435.5075 279.84375 407.0625 C 280.36665 396.51731 252.62583 390.52003 228.09375 390.625 z M 737.53125 628.34375 C 730.89378 628.45904 724.21807 629.031 717.5625 630.09375 C 694.5442 632.72875 671.42495 634.13975 648.34375 636.09375 C 610.13845 639.92275 572.148 645.577 534.875 655 C 491.9522 665.302 449.1115 675.949 406.375 687 C 375.7843 694.594 345.1398 702.01075 314.875 710.84375 C 297.0067 716.62975 324.28795 800.8485 342.15625 795.0625 C 355.49597 790.63108 368.99337 786.75286 382.5625 783.09375 C 385.39416 802.53926 387.90847 822.04331 390.875 841.46875 C 391.80397 850.18304 394.34988 857.96519 397.65625 865.59375 C 396.80073 865.69374 395.94955 865.80816 395.09375 865.90625 C 379.24039 867.46043 363.38312 868.87059 347.5 870.0625 C 347.27181 854.24229 344.45052 840.14172 338.5625 836.34375 C 341.82291 837.42542 345.08334 838.51185 348.34375 839.59375 C 342.78136 832.65132 338.82395 824.56339 334.34375 816.9375 C 322.81765 794.5645 312.3115 771.70825 301.9375 748.78125 C 293.8555 731.84025 214.01175 769.934 222.09375 786.875 C 233.68735 810.139 244.4415 833.7785 256.25 856.9375 C 259.17879 862.86171 262.19754 868.44427 265.375 873.75 C 250.13987 873.89297 234.90691 873.72461 219.65625 873.09375 C 183.64435 871.74275 147.5624 870.328 111.8125 865.5 C 93.1769 863.349 83.02065 951.19375 101.65625 953.34375 C 139.92735 957.01575 178.3358 958.497 216.75 959.625 C 279.1821 961.741 341.492 957.4175 403.5625 951.1875 C 470.7442 943.4245 537.0598 930.06175 603.875 919.84375 C 648.5974 912.97875 693.7641 911.92775 738.8125 915.09375 C 767.471 918.24675 796.19905 920.846 824.90625 923.5 C 841.16605 925.086 857.2901 927.688 873.4375 930.125 C 879.33677 931.00743 885.29925 931.63487 890.625 934.25 C 889.65181 933.47197 888.59945 932.57259 887.5625 931.6875 C 902.73119 941.13328 965.97048 887.56848 954.3125 873.59375 C 947.1386 866.37875 940.46745 859.61825 931.03125 855.40625 C 916.77075 848.76925 901.93645 844.19 886.21875 842.625 C 868.36395 840.109 850.50735 837.4535 832.53125 835.9375 C 814.74351 834.48113 796.96196 832.96481 779.1875 831.375 C 784.46713 810.07885 791.54964 789.3419 799.96875 769.0625 C 806.85515 751.4605 813.74825 733.82725 822.46875 717.03125 C 834.25795 692.22125 833.65145 665.2815 810.59375 646.8125 C 798.12225 638.9485 785.14165 633.8905 770.59375 631.3125 C 759.60544 629.22125 748.59371 628.1516 737.53125 628.34375 z M 890.625 934.25 C 891.78394 935.17653 892.52948 935.70465 891.84375 934.875 C 891.44373 934.65002 891.03282 934.45025 890.625 934.25 z M 348.34375 839.59375 C 348.64507 839.96983 348.93897 840.34968 349.25 840.71875 C 350.4747 842.17175 357.84635 847.6375 348.65625 839.6875 C 348.55309 839.65327 348.44691 839.62798 348.34375 839.59375 z M 725.65625 717.9375 C 723.11433 724.41165 720.64279 730.91483 718.15625 737.40625 C 708.03565 762.23325 699.49075 787.5965 692.84375 813.5625 C 691.1632 820.25347 689.83175 824.42695 689.03125 826.78125 C 663.21834 827.05976 637.44022 828.70303 611.78125 831.90625 C 611.87068 829.65874 611.93842 827.40378 612.03125 825.15625 C 612.82335 795.93925 613.36545 766.728 613.46875 737.5 C 613.36213 734.11498 610.38257 731.42064 605.59375 729.40625 C 622.57483 726.7695 639.6566 724.7735 656.78125 723.1875 C 679.75698 721.52452 702.72988 720.20472 725.65625 717.9375 z M 525.25 746.625 C 525.88349 771.97178 525.2809 797.34924 524.53125 822.6875 C 524.1516 830.54582 523.78318 838.39109 523.46875 846.25 C 503.67018 849.68363 483.86852 853.0729 464.03125 856.25 C 473.0671 848.8294 479.52494 841.22149 479.90625 835.5625 C 478.25965 831.40868 474.08163 818.28831 477.75 827.59375 C 474.02381 805.43375 471.14525 783.12244 468.46875 760.8125 C 487.36701 755.97605 506.29485 751.23385 525.25 746.625 z M 479.90625 835.5625 C 480.32218 836.61176 480.61034 837.25559 480.53125 836.625 C 480.42708 835.79434 480.1833 834.98127 479.90625 834.1875 C 479.95883 834.6244 479.93756 835.09789 479.90625 835.5625 z M 697.6875 817.5 C 696.23162 819.59926 695.6536 822.80253 695.8125 826.75 C 693.78043 826.75369 691.75042 826.76119 689.71875 826.78125 C 691.17014 824.57617 693.71836 821.16314 697.6875 817.5 z M 479.0625 831.75 C 479.30565 832.55111 479.62754 833.33147 479.90625 834.125 C 479.7956 833.27476 479.51537 832.48068 479.0625 831.75 z "
     id="path9326" />
</svg>
