<?xml version="1.0" encoding="UTF-8" standalone="no"?>
<svg
   xmlns:dc="http://purl.org/dc/elements/1.1/"
   xmlns:cc="http://creativecommons.org/ns#"
   xmlns:rdf="http://www.w3.org/1999/02/22-rdf-syntax-ns#"
   xmlns:svg="http://www.w3.org/2000/svg"
   xmlns="http://www.w3.org/2000/svg"
   xmlns:sodipodi="http://sodipodi.sourceforge.net/DTD/sodipodi-0.dtd"
   xmlns:inkscape="http://www.inkscape.org/namespaces/inkscape"
   width="1024"
   height="1024"
   id="U8549"
   version="1.1"
   inkscape:version="0.48.0 r9654"
   sodipodi:docname="U+8549.svg">
  <metadata
     id="metadata22">
    <rdf:RDF>
      <cc:Work
         rdf:about="">
        <dc:format>image/svg+xml</dc:format>
        <dc:type
           rdf:resource="http://purl.org/dc/dcmitype/StillImage" />
      </cc:Work>
    </rdf:RDF>
  </metadata>
  <defs
     id="defs20" />
  <sodipodi:namedview
     pagecolor="#ffffff"
     bordercolor="#666666"
     borderopacity="1"
     objecttolerance="10"
     gridtolerance="10"
     guidetolerance="10"
     inkscape:pageopacity="0"
     inkscape:pageshadow="2"
     inkscape:window-width="640"
     inkscape:window-height="480"
     id="namedview18"
     showgrid="false"
     inkscape:zoom="0.27441406"
     inkscape:cx="512"
     inkscape:cy="512"
     inkscape:window-x="0"
     inkscape:window-y="25"
     inkscape:window-maximized="0"
     inkscape:current-layer="U8549" />
  <path
     style="fill:#550000;fill-opacity:1;fill-rule:nonzero;stroke:#f9f9f9;stroke-width:0.1;stroke-miterlimit:4;stroke-dasharray:none"
     d="M 623.46875 68.59375 C 602.63607 68.872287 582.96123 73.349063 582.84375 82.21875 C 583.92156 117.06571 583.38386 151.89956 582.03125 186.71875 C 567.83478 187.22038 553.65207 187.85083 539.46875 188.6875 C 502.01958 191.41306 464.53658 195.03653 427.53125 201.28125 C 427.78276 179.11318 429.04308 156.86972 435.5625 135.65625 C 443.02996 118.23225 360.90496 83.0135 353.4375 100.4375 C 339.80492 139.60949 339.83561 181.41619 339.8125 222.40625 C 298.10741 236.43786 257.29439 252.98634 219.78125 276.34375 C 203.98081 286.78575 253.19955 361.28575 269 350.84375 C 292.65673 334.89437 318.47033 323.04544 345.03125 313.0625 C 346.54523 324.36056 348.43685 335.6353 350.90625 346.8125 L 355.625 360.78125 C 362.21311 378.48425 445.65061 347.42175 439.0625 329.71875 L 437.21875 326.15625 C 433.90538 313.92436 431.81692 301.48695 430.46875 288.9375 C 468.40764 281.71897 507.00955 278.0997 545.5625 275.5 C 555.93196 274.94647 566.31134 274.53027 576.6875 274.1875 C 575.72462 288.02441 574.76733 301.84995 573.8125 315.6875 C 565.76808 309.68144 557.92678 303.45795 550.4375 296.75 C 536.13262 284.311 477.47637 351.71725 491.78125 364.15625 C 502.08054 372.71868 512.76204 380.83151 523.59375 388.6875 C 494.46273 393.38928 465.48939 399.1594 436.75 406.125 C 406.20976 413.87789 375.54031 421.92011 345.875 432.65625 C 350.42865 427.69938 355.11167 422.83173 359.875 418.0625 C 372.7137 404.1425 307.0887 343.61125 294.25 357.53125 C 268.34953 385.79625 244.5783 415.865 221.40625 446.375 C 197.94085 477.387 174.43123 508.354 152.53125 540.5 C 143.1242 554.047 134.17798 567.92425 124.5 581.28125 C 113.65076 596.82225 186.93201 647.9785 197.78125 632.4375 C 207.33273 618.3595 216.40037 603.95275 225.90625 589.84375 C 226.64218 588.73346 227.38438 587.63818 228.125 586.53125 C 232.62832 627.227 237.80976 667.83596 243.09375 708.4375 C 245.99668 730.7275 248.37958 752.95525 255.28125 774.40625 C 257.1501 779.53351 265.45311 780.62484 276.15625 779.1875 C 262.93214 785.69124 250.36321 793.5466 238.8125 803.28125 C 225.3099 816.60925 288.15364 880.2655 301.65625 866.9375 C 325.7613 849.2915 355.684 842.625 384.25 836.125 C 449.37836 824.298 515.69207 821.4105 581.5625 816.0625 C 642.09431 810.9985 702.25783 802.20025 762.875 798.15625 C 768.38851 798.02625 773.89274 797.88 779.40625 797.75 C 798.09055 797.027 794.6843 708.9645 776 709.6875 C 769.39175 710.0275 762.79576 710.3475 756.1875 710.6875 C 702.87866 715.24659 649.88936 722.75502 596.65625 728.03125 C 596.57009 722.18758 596.49153 716.34471 596.4375 710.5 C 614.76845 707.85042 633.12228 705.38227 651.5 703.0625 C 690.33066 698.3535 729.28508 694.72 768.34375 692.625 C 787.11049 691.391 781.29799 602.92225 762.53125 604.15625 C 721.76735 607.30525 681.07894 611.46475 640.5 616.46875 C 626.15755 618.30088 611.85016 620.21916 597.53125 622.21875 C 597.65884 619.05113 597.78613 615.88546 597.9375 612.71875 C 612.82188 610.16215 627.73473 607.80005 642.71875 605.84375 C 654.46628 605.62975 667.37261 601.7725 678.96875 605.3125 C 697.69575 607.9455 710.102 519.66425 691.375 517.03125 C 671.06317 514.87025 650.89426 515.31025 630.65625 518.53125 C 622.31085 519.74096 613.97175 521.08868 605.65625 522.46875 C 608.08331 503.50215 611.40615 484.68343 616.78125 466.34375 C 616.99865 465.79231 617.14108 465.20402 617.1875 464.625 C 621.62101 464.25148 626.06029 463.88217 630.5 463.5625 C 668.85708 461.5095 707.30997 462.12975 745.4375 466.84375 C 751.69975 468.00975 758.15461 468.471 764.1875 470.625 C 782.58665 475.24 804.33665 388.52125 785.9375 383.90625 C 775.76785 381.65825 765.54142 379.8005 755.15625 378.8125 C 722.95219 375.59863 690.61447 374.47386 658.28125 375.21875 C 659.59817 358.65961 659.04037 367.21639 660.03125 349.15625 C 661.2303 323.76445 662.73933 298.39754 664.34375 273.03125 C 670.39405 273.04487 676.41909 273.0916 682.46875 273.125 C 709.32558 273.367 736.20598 273.55675 763.0625 273.21875 C 769.28582 273.17975 775.49994 273.00525 781.71875 272.78125 C 800.69368 271.76625 795.91244 182.32875 776.9375 183.34375 C 771.67196 183.75075 766.4069 184.05125 761.125 184.15625 C 734.95766 184.98325 708.77293 185.0925 682.59375 185.0625 C 678.24197 185.07554 673.88325 185.07051 669.53125 185.09375 C 670.94254 151.21093 671.75943 117.29396 672.0625 83.375 C 672.19565 73.322156 647.07912 68.278075 623.46875 68.59375 z M 523.625 476.6875 C 520.0817 497.11764 517.89218 517.81621 516.0625 538.5 C 510.04651 539.54958 504.02775 540.54623 498 541.53125 C 461.27246 547.45325 424.11274 552.234 388.3125 562.625 C 370.49356 569.12 401.11856 653.12 418.9375 646.625 C 448.72401 637.74576 479.73174 633.46818 510.34375 628.34375 C 510.25673 630.84366 510.17068 633.34348 510.09375 635.84375 C 500.27334 637.54975 490.45408 639.28042 480.65625 641.125 C 443.99096 648.164 407.39956 655.5455 371.25 664.9375 C 355.85709 669.35582 371.04934 731.31042 387.125 747.34375 C 379.75475 748.46053 372.40717 749.65075 365.0625 750.96875 C 352.44099 753.79733 339.74036 756.80002 327.21875 760.3125 C 335.80602 754.69304 341.02563 748.76975 339.21875 743.8125 C 331.11176 734.9015 335.377 707.38475 330.34375 696.59375 C 324.06992 652.28975 318.25003 607.91 313.84375 563.375 C 310.77503 536.07535 307.39244 508.79318 305.1875 481.40625 C 305.74397 480.691 306.28588 479.96417 306.84375 479.25 C 317.19026 503.74647 339.41621 533.18183 349.90625 527.0625 C 384.17248 509.8865 421.48528 500.0435 458.40625 490.4375 C 480.00546 485.10355 501.76366 480.53638 523.625 476.6875 z M 508.96875 724.875 C 508.97054 728.16356 508.96173 731.4617 508.96875 734.75 C 508.96886 734.81258 508.96864 734.87492 508.96875 734.9375 C 482.07249 736.89764 455.18858 739.03026 428.40625 742 C 451.26642 736.33613 474.37863 731.67327 497.46875 727.0625 C 501.29362 726.31964 505.13959 725.59224 508.96875 724.875 z M 838 836.40625 C 819.63898 837.48116 782.6293 906.78094 798.1875 915.375 C 811.90215 922.007 825.26015 929.30175 838.34375 937.09375 C 854.52763 946.69175 899.77763 870.37925 883.59375 860.78125 C 869.70739 852.57325 855.62501 844.77425 841.40625 837.15625 C 840.36904 836.58331 839.22407 836.33459 838 836.40625 z M 227.375 838.5 C 225.3465 838.50198 223.6711 839.06309 222.40625 840.3125 C 207.24952 856.6705 192.49718 873.40675 177.5625 889.96875 C 162.47046 904.68675 157.17415 912.9925 149 933.1875 C 145.19969 950.86587 224.17611 968.74535 235.5 954.53125 C 223.68717 979.07532 236.41618 954.03062 243.96875 949.1875 C 257.47236 933.8755 270.89188 918.45325 285.21875 903.90625 C 297.44559 891.82866 246.98381 838.48083 227.375 838.5 z M 647.15625 852.96875 C 629.17526 852.16427 601.71742 931.43322 619.03125 937.5625 C 635.47049 942.9335 651.1309 950.338 666.71875 957.75 C 683.75327 965.806 721.72202 885.4925 704.6875 877.4375 C 686.33737 868.8045 667.85472 860.4125 648.84375 853.3125 C 648.28524 853.11478 647.73628 852.9947 647.15625 852.96875 z M 448.78125 871.21875 C 430.41376 872.2646 393.29515 941.50375 408.84375 950.125 C 430.50261 961.425 453.0927 970.71875 475.96875 979.21875 C 493.67824 985.70675 524.27198 902.20675 506.5625 895.71875 C 487.93995 889.01475 469.45323 881.7035 452.1875 871.9375 C 451.15093 871.36275 450.00575 871.14903 448.78125 871.21875 z "
     id="path8969" />
</svg>
