<?xml version="1.0" encoding="UTF-8" standalone="no"?>
<svg
   xmlns:dc="http://purl.org/dc/elements/1.1/"
   xmlns:cc="http://creativecommons.org/ns#"
   xmlns:rdf="http://www.w3.org/1999/02/22-rdf-syntax-ns#"
   xmlns:svg="http://www.w3.org/2000/svg"
   xmlns="http://www.w3.org/2000/svg"
   xmlns:sodipodi="http://sodipodi.sourceforge.net/DTD/sodipodi-0.dtd"
   xmlns:inkscape="http://www.inkscape.org/namespaces/inkscape"
   width="1024"
   height="1024"
   id="U86CB"
   version="1.1"
   inkscape:version="0.48.0 r9654"
   sodipodi:docname="U+86CB.svg">
  <metadata
     id="metadata18">
    <rdf:RDF>
      <cc:Work
         rdf:about="">
        <dc:format>image/svg+xml</dc:format>
        <dc:type
           rdf:resource="http://purl.org/dc/dcmitype/StillImage" />
      </cc:Work>
    </rdf:RDF>
  </metadata>
  <defs
     id="defs16" />
  <sodipodi:namedview
     pagecolor="#ffffff"
     bordercolor="#666666"
     borderopacity="1"
     objecttolerance="10"
     gridtolerance="10"
     guidetolerance="10"
     inkscape:pageopacity="0"
     inkscape:pageshadow="2"
     inkscape:window-width="640"
     inkscape:window-height="480"
     id="namedview14"
     showgrid="false"
     inkscape:zoom="0.27441406"
     inkscape:cx="512"
     inkscape:cy="512"
     inkscape:window-x="0"
     inkscape:window-y="25"
     inkscape:window-maximized="0"
     inkscape:current-layer="U86CB" />
  <path
     style="fill:#800000;fill-opacity:1;fill-rule:nonzero;stroke:#f9f9f9;stroke-width:0.1;stroke-miterlimit:4;stroke-dasharray:none"
     d="M 601.375 126.40625 C 586.15602 126.38433 570.86346 127.34566 555.59375 129.125 C 497.79294 135.8092 440.68606 146.6846 383.65625 158.125 C 345.69731 165.1826 307.67385 172.3373 269.21875 176.125 C 250.74463 178.2134 260.58838 265.30715 279.0625 263.21875 C 319.47216 257.53945 359.57607 249.8264 399.625 242.0625 C 403.1361 241.34142 406.64417 240.62169 410.15625 239.90625 C 399.54073 271.68686 397.06139 305.51989 395.25 338.84375 C 394.69994 370.77782 395.08799 402.72177 395.40625 434.65625 C 367.33274 428.42442 339.34265 421.09048 313.375 408.53125 C 322.28904 375.9941 330.56421 343.17797 334.71875 309.65625 C 336.12183 291.13565 248.80933 284.5419 247.40625 303.0625 C 244.2697 335.3547 235.56918 366.8079 227 398 C 217.19751 432.6895 206.04305 466.99125 193.15625 500.65625 C 189.15653 509.94035 185.86581 519.48745 182.75 529.09375 C 177.32994 546.85235 261.04869 572.3836 266.46875 554.625 C 268.67402 546.5514 271.34743 538.65605 274.53125 530.90625 C 279.1321 518.18958 283.57301 505.39064 287.84375 492.5625 C 318.50751 504.83747 350.65062 512.81009 382.96875 519.625 C 403.88331 523.40521 424.92258 526.23553 446.03125 528.4375 C 440.04483 557.96207 437.50006 588.12224 435.65625 618.25 C 404.45538 628.64331 374.4171 642.01754 347.96875 662.0625 C 347.60432 653.39749 347.80632 644.71503 348.78125 635.96875 C 350.13025 617.42005 262.69274 611.04505 261.34375 629.59375 C 258.94969 665.16995 264.08081 700.2012 272.0625 734.75 C 279.30461 764.6187 291.668 792.193 309.1875 817.3125 C 320.12117 832.2133 390.37116 780.68205 379.4375 765.78125 C 367.31156 751.22145 361.34614 732.97 356.125 715 C 354.08413 706.48122 352.28219 697.92253 350.875 689.3125 C 364.16528 711.93764 391.77368 739.17945 401.3125 731.375 C 410.75473 723.64758 421.04973 717.41704 431.84375 712.1875 C 431.13572 737.72572 430.55513 763.26781 430.25 788.8125 C 414.75654 793.04178 399.32303 797.39387 383.90625 801.90625 C 366.16384 807.37575 391.9451 891.032 409.6875 885.5625 C 416.6407 883.19741 423.62233 880.92311 430.625 878.71875 C 430.92426 886.5056 431.28437 894.28305 431.75 902.0625 C 411.14053 908.33051 390.65953 914.96826 370.3125 922.09375 C 333.49021 934.87125 296.82304 948.944 258.75 957.5625 C 240.38059 960.481 254.13058 1047.0747 272.5 1044.1562 C 315.57637 1033.7213 356.99821 1017.3714 398.65625 1002.4375 C 461.64644 979.6697 526.36609 962.4053 591.53125 947.1875 C 640.59856 935.9941 690.13326 926.96155 739.1875 915.71875 L 755.65625 911.5625 C 768.37729 937.36521 780.84808 963.25683 792.4375 989.59375 C 799.81515 1006.2401 878.31515 971.4588 870.9375 954.8125 C 857.67493 925.0809 843.52419 895.7906 829.1875 866.5625 C 814.9785 835.7798 800.6564 804.69145 792.46875 771.65625 C 787.96493 753.64095 703.02744 774.89105 707.53125 792.90625 C 711.22075 805.97598 715.60911 818.79736 720.40625 831.46875 C 720.0625 831.56102 719.71875 831.65773 719.375 831.75 C 670.46665 843.6187 621.02145 853.07195 572.03125 864.59375 C 553.3223 869.0529 534.65278 873.68601 516.03125 878.5 C 515.61011 870.67833 515.32278 862.83785 515.21875 855 C 519.5848 853.87725 523.94412 852.76662 528.3125 851.65625 C 563.72655 842.67015 599.45719 834.92325 635.21875 827.46875 C 653.14587 823.54535 634.64586 739.0141 616.71875 742.9375 C 582.88351 750.69316 549.00245 758.34779 515.3125 766.71875 C 515.72394 740.49738 516.43483 714.27228 517.375 688.0625 C 540.03597 685.57702 562.95553 685.5438 585.78125 686.4375 C 603.65284 689.6237 630.99397 686.37005 644.6875 701.34375 C 644.55503 701.70635 644.68793 702.3475 644.3125 702.4375 C 642.87064 702.7833 642.05651 701.101 640.875 700.875 C 639.07746 700.5311 638.16794 706.58605 636.8125 710.96875 C 632.37783 721.65735 634.91003 716.1929 629.125 727.375 C 620.90007 743.8535 698.55632 782.63465 706.78125 766.15625 C 717.24904 744.76185 712.58693 755.60765 720.84375 733.53125 C 731.20529 692.51305 728.97854 659.6499 695.0625 630.25 C 662.9001 609.3048 627.1099 601.1849 588.8125 600.25 C 566.72125 599.55068 544.5579 599.57228 522.5625 601.1875 C 524.69576 578.79204 527.9148 556.52944 533.875 534.84375 C 533.90168 534.77082 533.9139 534.69837 533.9375 534.625 C 547.33663 535.22769 560.73535 535.74767 574.125 536.21875 C 620.80031 538.00425 667.64899 536.61915 714.1875 541.09375 C 717.20947 541.73025 720.22803 542.3636 723.25 543 C 741.41448 546.1421 756.22697 460.5171 738.0625 457.375 C 732.48069 456.5231 726.89431 455.6643 721.3125 454.8125 C 673.28783 451.3675 625.10482 452.58955 577 451.21875 C 556.00186 450.53007 534.96997 449.76928 513.96875 448.5625 C 529.877 445.74713 545.84388 443.2578 561.84375 441.03125 C 578.59932 439.32705 570.86929 439.74295 585.0625 439.40625 C 603.49134 438.54805 599.46009 351.67305 581.03125 352.53125 C 560.41148 353.79135 570.86918 352.87925 549.5625 355.40625 C 526.5925 358.79089 503.71499 362.61192 480.84375 366.59375 C 480.89285 358.95749 480.96784 351.32317 481.125 343.6875 C 482.68293 317.1471 484.0449 289.65215 494.15625 264.71875 C 498.46602 255.53708 476.82302 240.3051 454.96875 231.0625 C 491.4613 224.15133 528.09326 218.0864 565.0625 214.15625 C 595.07717 211.43145 625.5023 210.95845 654.625 219.46875 C 656.38763 218.8605 659.67344 220.53429 662.65625 222.5 C 662.63863 222.56214 662.61121 222.63361 662.59375 222.6875 C 659.48986 232.2657 656.83353 241.82955 653.40625 251.34375 C 639.30607 286.77565 622.7596 321.18465 605.59375 355.21875 C 603.06138 359.71465 600.53237 364.22295 598 368.71875 C 589.13138 384.77655 664.85013 426.58895 673.71875 410.53125 C 676.75194 404.95005 679.77931 399.36245 682.8125 393.78125 C 701.15976 356.69105 719.08306 319.34395 734.75 281.03125 C 746.81838 248.26455 758.24813 214.6524 741.9375 181.0625 C 725.90157 157.3564 704.71741 142.64745 676.8125 135.34375 C 651.94577 129.17319 626.73997 126.44278 601.375 126.40625 z M 664.78125 224 C 668.63557 226.82609 670.97337 229.25075 666.5625 225.6875 C 665.41952 225.98904 665.05669 225.0644 664.78125 224 z "
     id="path21683" />
</svg>
