<?xml version="1.0" encoding="UTF-8" standalone="no"?>
<svg
   xmlns:dc="http://purl.org/dc/elements/1.1/"
   xmlns:cc="http://creativecommons.org/ns#"
   xmlns:rdf="http://www.w3.org/1999/02/22-rdf-syntax-ns#"
   xmlns:svg="http://www.w3.org/2000/svg"
   xmlns="http://www.w3.org/2000/svg"
   xmlns:sodipodi="http://sodipodi.sourceforge.net/DTD/sodipodi-0.dtd"
   xmlns:inkscape="http://www.inkscape.org/namespaces/inkscape"
   width="1024"
   height="1024"
   id="U867D"
   version="1.1"
   inkscape:version="0.48.0 r9654"
   sodipodi:docname="U+867D.svg">
  <metadata
     id="metadata16">
    <rdf:RDF>
      <cc:Work
         rdf:about="">
        <dc:format>image/svg+xml</dc:format>
        <dc:type
           rdf:resource="http://purl.org/dc/dcmitype/StillImage" />
      </cc:Work>
    </rdf:RDF>
  </metadata>
  <defs
     id="defs14" />
  <sodipodi:namedview
     pagecolor="#ffffff"
     bordercolor="#666666"
     borderopacity="1"
     objecttolerance="10"
     gridtolerance="10"
     guidetolerance="10"
     inkscape:pageopacity="0"
     inkscape:pageshadow="2"
     inkscape:window-width="640"
     inkscape:window-height="480"
     id="namedview12"
     showgrid="false"
     inkscape:zoom="0.27441406"
     inkscape:cx="512"
     inkscape:cy="512"
     inkscape:window-x="0"
     inkscape:window-y="25"
     inkscape:window-maximized="0"
     inkscape:current-layer="U867D" />
  <path
     style="fill:#782121;fill-opacity:1;fill-rule:nonzero;stroke:#f9f9f9;stroke-width:0.1;stroke-miterlimit:4;stroke-dasharray:none"
     d="M 494.84375 133.28125 C 468.52223 133.54965 442.25744 135.99944 416.25 140.6875 C 380.1684 147.4125 343.7687 155.264 311.125 172.75 C 294.9654 182.291 339.9654 258.4795 356.125 248.9375 C 379.5767 236.2015 406.24725 231.1495 432.21875 226.3125 C 462.66245 220.8755 493.54925 219.06775 524.34375 221.71875 C 536.62175 222.27475 546.8505 226.99775 557.125 233.09375 C 561.08296 235.88336 566.62893 238.45745 571.125 241.40625 C 570.70506 242.46911 570.3697 245.92044 568.375 253.09375 C 559.842 279.13175 549.0146 304.36725 539.125 329.90625 C 537.97464 332.96057 536.84812 336.00066 535.71875 339.0625 C 487.08386 341.70222 438.51566 346.04098 390.5 354.46875 C 375.66265 357.16963 360.83088 359.96881 346.0625 363.0625 C 345.92364 362.41784 345.66312 361.8212 345.3125 361.25 C 336.6694 349.169 332.38885 334.8305 328.28125 320.6875 C 320.62955 290.7725 314.7607 260.45775 311.5625 229.71875 C 308.9105 211.15475 221.37925 223.65475 224.03125 242.21875 C 228.97945 275.83275 235.4356 309.14075 243.6875 342.09375 C 247.67138 358.7776 253.64528 374.57433 261.09375 389.78125 C 255.49551 409.99755 280.90044 472.67017 296.28125 466.96875 C 331.80885 453.86475 369.0662 446.327 406.1875 439.375 C 408.5964 438.94069 410.9941 438.5349 413.40625 438.125 C 416.75916 462.87965 419.481 487.72952 421.90625 512.59375 C 421.97721 513.40513 422.02403 514.21979 422.09375 515.03125 C 421.23953 515.15944 420.38533 515.27696 419.53125 515.40625 C 374.89582 522.14697 330.39456 529.64549 285.875 537.09375 C 264.20544 526.82546 205.96973 527.53509 205.40625 542.75 C 206.08985 576.323 209.66445 609.773 213.34375 643.125 C 218.13965 681.439 224.3911 719.66175 238.875 755.59375 C 240.19244 758.6365 243.83187 760.04288 248.875 760.1875 C 244.21893 781.47302 268.23785 842.06406 283.40625 836.65625 C 320.92735 822.18425 360.46685 814.46 399.96875 807.75 C 410.44298 806.18419 420.9585 804.7919 431.46875 803.5625 C 431.38628 824.1961 431.08377 844.80836 430.46875 865.4375 C 429.67265 885.93842 429.80005 882.81017 429.21875 895.15625 C 406.49543 898.84953 383.78638 902.65114 361.125 906.71875 C 317.825 915.14175 274.65335 924.324 232.46875 937.375 C 214.66395 943.263 242.41385 1027.2005 260.21875 1021.3125 C 298.45965 1007.7435 338.1852 999.2275 377.875 991.1875 C 441.5137 979.3955 505.5619 969.9715 569.375 959.1875 C 618.93592 950.60543 668.47324 941.63831 718.5 936.28125 C 727.58287 951.80415 736.97495 967.15477 746.40625 982.46875 C 756.24175 998.27475 830.7731 951.89975 820.9375 936.09375 C 804.8827 910.56175 788.85545 884.98775 774.90625 858.21875 C 764.59914 838.98592 754.15216 819.82244 743.78125 800.625 C 761.7924 799.66644 768.77049 714.46431 750.4375 712.90625 C 735.1371 711.88325 743.501 712.47575 725.375 711.09375 C 719.53784 710.70594 713.68392 710.35467 707.84375 710.03125 C 709.0497 706.63585 710.26905 703.25074 711.53125 699.875 C 725.13965 663.467 740.74915 627.802 752.90625 590.875 C 763.07095 547.12 755.89035 513.4505 707.09375 501.4375 C 673.70645 496.1395 639.7968 495.76275 606.0625 496.84375 C 573.22865 498.2704 540.48207 500.74885 507.8125 504.125 C 505.60541 478.70018 503.06109 453.32382 500.21875 427.96875 C 517.02631 426.77103 533.87789 425.95102 550.71875 425.375 C 563.68235 424.805 576.64045 424.92525 589.59375 425.53125 C 594.22258 425.64707 597.83845 420.33068 600.375 412.25 C 602.11288 411.40104 603.34908 410.19751 603.9375 408.59375 C 609.5839 392.87375 614.9898 377.06325 620.8125 361.40625 C 631.7656 332.92125 644.0761 304.9255 653.3125 275.8125 C 661.484 244.6235 664.34575 213.40475 642.28125 186.84375 C 630.11635 174.54975 616.48905 164.54775 601.15625 156.46875 C 579.29815 144.14375 556.0645 135.73425 530.75 134.28125 C 518.77781 133.51188 506.80808 133.15925 494.84375 133.28125 z M 573.28125 242.90625 C 574.86495 244.10875 576.20765 245.363 577.1875 246.75 C 575.36088 245.21717 574.14356 243.90748 573.28125 242.90625 z M 609.3125 583.25 C 626.93753 583.30136 644.79695 583.04127 662.46875 584.34375 C 652.31624 612.93726 640.73902 641.0405 630.125 669.46875 C 625.23812 682.03305 620.96341 694.82556 616.6875 707.625 C 603.23154 707.6518 589.76847 707.81909 576.3125 708.1875 C 556.32014 708.81074 536.32609 709.58837 516.34375 710.625 C 516.29116 708.06181 516.24115 705.50067 516.1875 702.9375 C 515.29107 665.21849 514.35321 627.48248 512.78125 589.78125 C 544.86447 586.47571 577.04888 584.24839 609.3125 583.25 z M 687.8125 587.53125 C 689.13276 587.77723 690.46537 588.00608 691.78125 588.28125 C 692.04025 588.53725 692.9126 589.1625 692.5625 589.0625 C 690.75164 588.55478 689.22047 588.06194 687.8125 587.53125 z M 427.5 601.03125 C 428.99379 635.62741 429.84007 670.25997 430.59375 704.875 C 430.6656 708.97063 430.74626 713.06051 430.8125 717.15625 C 415.78473 718.74507 400.77826 720.59589 385.8125 722.78125 C 359.82469 727.04335 333.91387 731.82538 308.3125 737.90625 C 316.66779 731.79311 321.62808 725.53031 319.53125 720.6875 C 306.01975 694.0665 305.04025 662.608 299.84375 633.75 C 299.51343 630.62787 299.16953 627.49996 298.84375 624.375 C 341.5026 615.39744 384.45714 607.89669 427.5 601.03125 z M 613.90625 793.6875 C 625.93795 793.70224 637.94467 793.87072 649.96875 794.21875 C 661.02957 797.15177 670.92636 798.10986 676.15625 795.59375 C 661.81445 805.04493 651.37277 815.79871 654.96875 822.4375 C 661.3001 833.14929 667.48913 843.95513 673.5625 854.8125 C 633.95667 860.7185 594.54073 867.85802 555.09375 874.78125 C 542.40651 876.93023 529.70183 879.00366 517 881.0625 C 517.06623 878.355 517.1227 876.52047 517.34375 867.46875 C 517.75567 843.81781 517.78342 820.18083 517.625 796.53125 C 538.03466 795.45088 558.48469 794.67871 578.90625 794.09375 C 590.5743 793.8115 602.23911 793.6732 613.90625 793.6875 z "
     id="path11510" />
</svg>
