<?xml version="1.0" encoding="UTF-8" standalone="no"?>
<svg
   xmlns:dc="http://purl.org/dc/elements/1.1/"
   xmlns:cc="http://creativecommons.org/ns#"
   xmlns:rdf="http://www.w3.org/1999/02/22-rdf-syntax-ns#"
   xmlns:svg="http://www.w3.org/2000/svg"
   xmlns="http://www.w3.org/2000/svg"
   xmlns:sodipodi="http://sodipodi.sourceforge.net/DTD/sodipodi-0.dtd"
   xmlns:inkscape="http://www.inkscape.org/namespaces/inkscape"
   width="1024"
   height="1024"
   id="U884C"
   version="1.1"
   inkscape:version="0.48.0 r9654"
   sodipodi:docname="U+884C.svg">
  <metadata
     id="metadata13">
    <rdf:RDF>
      <cc:Work
         rdf:about="">
        <dc:format>image/svg+xml</dc:format>
        <dc:type
           rdf:resource="http://purl.org/dc/dcmitype/StillImage" />
      </cc:Work>
    </rdf:RDF>
  </metadata>
  <defs
     id="defs11" />
  <sodipodi:namedview
     pagecolor="#ffffff"
     bordercolor="#666666"
     borderopacity="1"
     objecttolerance="10"
     gridtolerance="10"
     guidetolerance="10"
     inkscape:pageopacity="0"
     inkscape:pageshadow="2"
     inkscape:window-width="640"
     inkscape:window-height="480"
     id="namedview9"
     showgrid="false"
     inkscape:zoom="0.27441406"
     inkscape:cx="512"
     inkscape:cy="512"
     inkscape:window-x="0"
     inkscape:window-y="25"
     inkscape:window-maximized="0"
     inkscape:current-layer="U884C" />
  <path
     style="fill:#550000;fill-opacity:1;fill-rule:nonzero;stroke:#f9f9f9;stroke-width:0.1;stroke-miterlimit:4;stroke-dasharray:none"
     d="M 332.59375 203.78125 C 329.63187 203.77604 327.33834 204.62388 325.96875 206.5 C 303.08725 239.668 279.77075 272.52475 256.21875 305.21875 C 222.32675 352.05075 187.0509 397.8535 151.1875 443.1875 C 139.9659 457.3175 128.57595 471.31125 117.15625 485.28125 C 105.67735 499.65725 173.42735 553.78225 184.90625 539.40625 C 196.18745 524.94425 207.47755 510.46175 218.71875 495.96875 C 254.64435 449.45075 290.30995 402.7255 325.21875 355.4375 C 349.06315 323.0115 372.55695 290.34625 396.71875 258.15625 C 406.30586 245.02337 353.3269 203.81773 332.59375 203.78125 z M 665.53125 298.34375 C 636.1414 298.36834 606.76385 301.13044 577.5 304.625 C 539.7207 309.055 501.9883 313.9 464.4375 320 C 446.2397 323.798 464.14595 409.57825 482.34375 405.78125 C 517.14705 398.67825 552.41235 394.142 587.65625 389.875 C 623.49445 386.3 659.86395 381.36525 695.78125 386.40625 C 714.07035 388.49425 723.9141 302.2745 705.625 300.1875 C 692.26437 298.875 678.89027 298.33257 665.53125 298.34375 z M 366.53125 336.84375 C 364.54554 336.95725 362.8883 337.61353 361.71875 338.90625 C 336.59155 368.87725 315.5026 401.892 294.625 434.875 C 264.8895 482.85 236.7899 531.83075 208.8125 580.84375 C 195.8325 603.35375 183.29375 626.099 170.34375 648.625 C 161.37035 664.693 237.12045 707.0055 246.09375 690.9375 C 258.40485 668.2615 270.5046 645.46925 283.25 623.03125 C 285.35011 619.29964 287.45727 615.5728 289.5625 611.84375 C 289.18747 626.08893 289.23213 640.36267 289.40625 654.59375 C 290.70175 710.35475 297.6248 765.7125 306.625 820.6875 C 309.7143 840.3295 314.0662 859.707 318.8125 879 C 323.3921 896.796 407.29835 875.20325 402.71875 857.40625 C 398.15425 840.59525 394.1206 823.66675 391.25 806.46875 C 382.62245 756.52667 376.04756 706.17442 374.9375 655.4375 C 377.49798 658.22284 380.19112 659.59522 382.875 659.03125 C 421.8387 649.56925 461.10325 641.37425 500.34375 633.15625 C 541.85451 624.17878 583.61432 616.52178 625.625 610.53125 C 624.65721 632.02873 623.66489 653.54174 622.5 675.03125 C 618.8228 731.09425 615.9464 787.18275 614.375 843.34375 C 613.4662 878.28275 613.3727 913.2505 612.375 948.1875 C 612.40683 948.27051 610.81755 958.31236 610.59375 959.0625 C 610.59812 958.90865 610.62664 958.47325 610.71875 957.71875 C 603.33815 974.80875 683.90065 1009.6202 691.28125 992.53125 C 696.48125 978.66025 699.8464 964.6565 699.4375 949.6875 C 699.6693 914.9425 699.3757 880.21175 700 845.46875 C 701.17 790.26075 703.84055 735.10925 707.84375 680.03125 C 709.47822 654.04381 710.80096 628.01552 712.53125 602.03125 C 735.80192 601.4675 759.08318 602.44891 782.3125 604.65625 C 794.9567 606.48025 807.8868 607.28725 820.25 610.65625 C 838.3579 614.68725 857.3579 529.3435 839.25 525.3125 C 822.9218 522.0345 806.3952 519.96625 789.8125 518.40625 C 745.2775 514.83125 700.6046 514.834 656.1875 520.375 C 598.0788 527.42 540.44815 537.4315 483.15625 549.4375 C 448.47158 556.4162 413.81922 563.50843 379.125 570.4375 C 380.61825 561.29811 382.63088 552.23225 385.28125 543.28125 C 388.00559 534.01841 366.59471 522.88201 344.6875 516.84375 C 351.94232 504.82666 359.32205 492.84245 366.8125 480.96875 C 385.3451 452.24875 403.84685 423.24975 426.71875 397.71875 C 438.02449 385.22247 385.72646 335.74662 366.53125 336.84375 z "
     id="path24471" />
</svg>
