<?xml version="1.0" encoding="UTF-8" standalone="no"?>
<svg
   xmlns:dc="http://purl.org/dc/elements/1.1/"
   xmlns:cc="http://creativecommons.org/ns#"
   xmlns:rdf="http://www.w3.org/1999/02/22-rdf-syntax-ns#"
   xmlns:svg="http://www.w3.org/2000/svg"
   xmlns="http://www.w3.org/2000/svg"
   xmlns:sodipodi="http://sodipodi.sourceforge.net/DTD/sodipodi-0.dtd"
   xmlns:inkscape="http://www.inkscape.org/namespaces/inkscape"
   width="1024"
   height="1024"
   id="U8857"
   version="1.1"
   inkscape:version="0.48.0 r9654"
   sodipodi:docname="U+8857.svg">
  <metadata
     id="metadata19">
    <rdf:RDF>
      <cc:Work
         rdf:about="">
        <dc:format>image/svg+xml</dc:format>
        <dc:type
           rdf:resource="http://purl.org/dc/dcmitype/StillImage" />
      </cc:Work>
    </rdf:RDF>
  </metadata>
  <defs
     id="defs17" />
  <sodipodi:namedview
     pagecolor="#ffffff"
     bordercolor="#666666"
     borderopacity="1"
     objecttolerance="10"
     gridtolerance="10"
     guidetolerance="10"
     inkscape:pageopacity="0"
     inkscape:pageshadow="2"
     inkscape:window-width="640"
     inkscape:window-height="480"
     id="namedview15"
     showgrid="false"
     inkscape:zoom="0.27441406"
     inkscape:cx="512"
     inkscape:cy="512"
     inkscape:window-x="0"
     inkscape:window-y="25"
     inkscape:window-maximized="0"
     inkscape:current-layer="U8857" />
  <path
     style="fill:#550000;fill-opacity:1;fill-rule:nonzero;stroke:#f9f9f9;stroke-width:0.1;stroke-miterlimit:4;stroke-dasharray:none"
     d="M 281.03125 191 C 278.5322 191.02028 276.54884 191.72295 275.21875 193.3125 C 252.63875 221.9385 231.3179 251.55375 210.3125 281.34375 C 183.5767 319.44875 158.16655 358.4495 133.53125 397.9375 C 124.00825 413.3745 114.59475 428.87925 105.21875 444.40625 C 95.70475 460.72725 172.64225 505.572 182.15625 489.25 C 190.66975 474.067 199.4781 459.048 208.4375 444.125 C 231.6642 405.996 255.86535 368.46075 281.78125 332.09375 C 301.62505 304.36275 321.60925 276.64625 343.71875 250.65625 C 354.54946 237.71191 301.38068 190.83488 281.03125 191 z M 510.28125 204.5 C 503.20643 204.65453 498.15589 206.40013 496.875 210.34375 C 489.10687 238.94719 485.31309 268.34104 482.5625 297.8125 C 461.37888 302.38249 440.27935 307.36373 419.375 313.09375 C 401.3471 318.91375 428.7847 403.91375 446.8125 398.09375 C 456.25373 395.16162 465.76884 392.50541 475.34375 390.0625 C 472.68863 424.96474 469.86254 459.85508 466.71875 494.71875 C 466.40265 497.94659 466.09733 501.17841 465.78125 504.40625 C 462.60277 505.24634 459.42883 506.09871 456.25 506.9375 C 427.1734 514.6105 397.9214 522.243 370.5625 535 C 353.6015 543.481 393.57025 623.44975 410.53125 614.96875 C 432.21125 604.32375 455.82675 598.527 479.03125 592.25 C 480.32255 591.89793 481.61475 591.5388 482.90625 591.1875 C 480.51291 604.78334 478.83389 618.51775 477.5 632.28125 C 445.77271 639.70796 414.26162 647.88879 382.75 656.21875 C 364.4003 660.90975 386.49415 747.40975 404.84375 742.71875 C 427.32754 735.76436 449.99275 729.43279 472.78125 723.625 C 472.38003 736.37056 471.95078 749.10318 471.40625 761.84375 C 471.18142 767.61657 479.46282 771.93687 491 774.59375 C 480.721 779.92433 470.49828 785.34807 460.4375 791.09375 C 430.8921 808.21675 401.829 826.2175 375 847.4375 C 360.2884 859.4125 416.7258 928.75625 431.4375 916.78125 C 453.9178 897.50725 479.2082 882.00875 504.6875 867.09375 C 536.1664 849.12075 569.1986 834.10575 601.3125 817.34375 C 616.4579 808.85575 609.1372 813.17875 623.1875 804.46875 C 639.11 794.33275 591.3599 719.27025 575.4375 729.40625 C 566.17665 735.53825 570.18752 733.00965 560.28125 738.84375 C 560.5932 727.56294 560.89432 716.27906 561.25 705 C 584.65048 701.52354 608.20418 699.15725 631.8125 697.46875 C 645.9673 696.69475 639.3267 696.99975 651.6875 696.46875 C 670.5515 695.32275 665.14535 606.38525 646.28125 607.53125 C 632.90955 608.56725 640.1557 608.005 624.625 609.25 C 605.79113 610.96031 586.96131 612.97643 568.21875 615.46875 C 570.32467 602.76401 573.26929 590.246 577.625 578.0625 C 578.797 574.86103 577.01366 571.24222 573.3125 567.5625 C 574.73114 567.21024 576.14333 566.85023 577.5625 566.5 C 584.80207 564.75015 586.76161 564.26259 588.4375 563.875 C 590.33595 566.38847 592.50015 567.80209 594.9375 567.71875 C 631.0395 564.96875 666.9862 560.51025 702.9375 556.28125 C 710.20201 555.41957 717.48209 554.61252 724.75 553.78125 C 723.82932 571.67175 722.48299 589.55047 721.125 607.40625 C 717.5457 652.75425 712.36645 697.93775 705.96875 742.96875 C 699.99325 781.98475 694.1853 821.01825 688.1875 860.03125 C 684.3907 884.34925 680.63125 908.70875 675.78125 932.84375 C 674.12065 940.57075 675.04255 937.357 673.34375 942.5 C 668.35025 960.791 754.569 984.3535 759.5625 966.0625 C 762.4321 954.7455 761.21795 960.24725 763.28125 949.53125 C 767.90115 924.18125 771.63085 898.6735 775.40625 873.1875 C 781.22125 833.8485 786.92495 794.48925 792.78125 755.15625 C 799.27835 708.38425 804.62865 661.45325 808.71875 614.40625 C 810.68627 591.03196 812.56056 567.66609 813.9375 544.25 C 819.58492 543.68329 825.22641 543.0864 830.875 542.53125 C 858.812 539.84625 886.79375 537.465 914.78125 535.375 L 921.53125 534.9375 C 940.40855 533.3635 932.97115 444.39375 914.09375 445.96875 L 907.125 446.65625 C 878.767 449.42225 850.4096 452.15525 822.0625 455.03125 C 778.9764 459.48525 735.9024 464.133 692.875 469.125 C 659.2995 472.936 625.69505 477.099 591.90625 478.375 C 590.34006 478.42847 588.89405 479.08586 587.625 480.25 C 584.54985 476.37513 581.30076 474.336 578.09375 475.0625 C 563.70065 478.5265 571.15375 476.6745 555.78125 480.6875 C 555.77151 480.69004 555.75974 480.68496 555.75 480.6875 C 558.59089 444.3571 561.33723 408.01939 564.15625 371.6875 C 578.78938 369.25658 593.47009 367.07767 608.1875 365.21875 C 626.8785 362.58175 614.441 274.45675 595.75 277.09375 C 588.10947 278.27409 580.47279 279.52822 572.84375 280.78125 C 574.9556 266.32234 577.74688 251.98153 581.84375 237.9375 C 586.41828 223.85234 535.54848 203.94811 510.28125 204.5 z M 848.5625 291.59375 C 848.27356 291.57634 847.98185 291.59891 847.6875 291.625 C 824.4618 293.962 801.13715 295.4025 777.78125 295.3125 C 748.20575 295.1185 718.63805 294.59625 689.09375 293.15625 C 670.15995 292.59525 667.5037 381.8765 686.4375 382.4375 C 716.6751 382.7115 746.91775 383.41825 777.15625 383.65625 C 803.33085 383.80625 829.4774 382.4695 855.5625 380.4375 C 874.10685 378.79359 866.76573 292.69036 848.5625 291.59375 z M 315.875 371.1875 C 312.85258 371.24442 310.5144 372.1505 309.15625 374.09375 C 291.96515 400.73675 275.6648 427.942 258.9375 454.875 C 237.1254 489.625 214.41355 523.8045 192.03125 558.1875 C 178.53745 579.0145 165.36085 600.0515 152.15625 621.0625 C 142.28835 637.1395 218.0696 683.6395 227.9375 667.5625 C 235.79755 654.44106 243.74297 641.36852 251.8125 628.375 C 251.72697 633.74693 251.65993 639.09502 251.625 644.46875 C 252.0066 696.15275 256.14715 747.704 261.03125 799.125 C 263.77055 825.97 266.9353 852.78375 270 879.59375 C 272.2661 898.18875 359.92225 887.50125 357.65625 868.90625 C 354.28165 842.85125 350.927 816.78225 348.125 790.65625 C 343.3142 742.37125 339.38025 693.937 339.40625 645.375 C 339.85305 614.448 340.94695 583.4945 345.15625 552.8125 C 345.98437 544.7571 330.24029 538.49526 311.78125 535.40625 C 319.08713 524.13643 326.36192 512.86925 333.5625 501.53125 C 349.6305 475.99125 365.1864 450.0825 382.4375 425.3125 C 391.94446 411.70975 337.03196 370.78907 315.875 371.1875 z "
     id="path9159" />
</svg>
