<?xml version="1.0" encoding="UTF-8" standalone="no"?>
<svg
   xmlns:dc="http://purl.org/dc/elements/1.1/"
   xmlns:cc="http://creativecommons.org/ns#"
   xmlns:rdf="http://www.w3.org/1999/02/22-rdf-syntax-ns#"
   xmlns:svg="http://www.w3.org/2000/svg"
   xmlns="http://www.w3.org/2000/svg"
   xmlns:sodipodi="http://sodipodi.sourceforge.net/DTD/sodipodi-0.dtd"
   xmlns:inkscape="http://www.inkscape.org/namespaces/inkscape"
   width="1024"
   height="1024"
   id="U88C5"
   version="1.1"
   inkscape:version="0.48.0 r9654"
   sodipodi:docname="U+88C5.svg">
  <metadata
     id="metadata19">
    <rdf:RDF>
      <cc:Work
         rdf:about="">
        <dc:format>image/svg+xml</dc:format>
        <dc:type
           rdf:resource="http://purl.org/dc/dcmitype/StillImage" />
      </cc:Work>
    </rdf:RDF>
  </metadata>
  <defs
     id="defs17" />
  <sodipodi:namedview
     pagecolor="#ffffff"
     bordercolor="#666666"
     borderopacity="1"
     objecttolerance="10"
     gridtolerance="10"
     guidetolerance="10"
     inkscape:pageopacity="0"
     inkscape:pageshadow="2"
     inkscape:window-width="640"
     inkscape:window-height="480"
     id="namedview15"
     showgrid="false"
     inkscape:zoom="0.27441406"
     inkscape:cx="512"
     inkscape:cy="512"
     inkscape:window-x="0"
     inkscape:window-y="25"
     inkscape:window-maximized="0"
     inkscape:current-layer="U88C5" />
  <path
     style="fill:#2b1100;fill-opacity:1;fill-rule:nonzero;stroke:none"
     d="M 283.875 79.5 C 260.47012 79.790963 235.70475 85.416719 236.09375 95.375 C 237.94764 137.451 238.04518 179.5785 238.625 221.6875 C 239.33027 269.38654 240.36633 317.08943 242.9375 364.71875 C 234.45743 351.74971 225.00365 342.63569 218.8125 345.78125 L 196.46875 357.15625 C 158.86668 375.75425 121.27311 394.41625 84.1875 414.03125 C 67.794288 423.13925 110.73179 500.4195 127.125 491.3125 C 162.13983 470.7295 198.57913 452.6815 234.90625 434.5625 C 239.06148 432.45494 243.21976 430.35729 247.375 428.25 C 249.46308 448.88471 252.19028 469.47336 251.90625 490.21875 C 252.13705 508.93775 340.3558 507.87525 340.125 489.15625 C 339.26745 458.39125 334.27039 427.97575 331.625 397.34375 C 326.55035 338.67075 325.07074 279.78225 324.65625 220.90625 C 324.477 177.90825 324.57159 134.9315 324.46875 91.9375 C 324.12551 83.150781 304.52636 79.243268 283.875 79.5 z M 592.9375 89.625 C 572.26216 89.416931 552.63535 93.39 552.3125 102.1875 C 552.13163 136.16852 550.49097 170.11434 549.03125 204.0625 C 542.40933 205.2711 535.79833 206.50249 529.1875 207.78125 C 490.39527 215.05325 451.53237 222.16175 413.25 231.84375 C 395.23251 237.03075 419.70125 321.96725 437.71875 316.78125 C 472.64658 306.49205 508.51961 299.9266 544.25 293.125 C 542.78198 325.72119 541.75486 358.32792 541.5625 390.96875 C 524.80704 393.73346 508.11155 396.90492 491.5 400.5625 C 450.8659 409.6115 409.28516 417.87125 371.59375 436.15625 C 363.3734 441.13814 371.41026 463.41166 383.34375 482.65625 C 379.4944 486.9835 377.76613 491.07161 379.34375 494.34375 C 393.01694 519.62275 407.31137 544.5535 421.46875 569.5625 C 421.80216 570.12632 422.13581 570.68596 422.46875 571.25 C 371.80685 575.34056 321.12257 579.05169 270.4375 582.875 C 229.26837 586.478 188.09482 590.26425 147.28125 596.90625 C 128.88076 600.55725 146.09951 687.30625 164.5 683.65625 C 198.90519 676.82437 233.80527 673.08564 268.6875 669.625 C 248.37153 692.00769 228.68596 714.97593 209.9375 738.6875 C 202.13074 748.4995 193.81197 757.88825 186.4375 768.03125 C 175.7538 783.51425 248.7538 833.88925 259.4375 818.40625 C 263.99614 808.72925 274.23228 801.833 279.40625 792.5 C 285.36442 784.63412 291.46097 776.90276 297.6875 769.25 C 298.45333 787.34316 298.9539 805.44668 299.1875 823.5625 C 299.69559 862.3305 295.83491 901.16975 300.96875 939.71875 C 312.72755 985.57075 342.09975 1001.9443 387.125 987.53125 C 408.5578 977.61725 427.45472 963.262 446.03125 948.875 C 458.43284 938.911 452.18752 944.05975 464.6875 933.34375 C 478.82864 921.16875 421.45364 854.5125 407.3125 866.6875 C 397.56686 875.1265 402.62321 870.9225 392.125 879.3125 C 389.64729 881.2344 387.12776 883.10947 384.625 885 C 385.15967 864.12418 387.59178 843.02696 385.78125 822.625 C 385.43484 783.754 383.93124 744.93575 382.53125 706.09375 C 382.19947 700.49487 374.04313 697.06251 362.84375 695.46875 C 374.81995 682.59168 387.30133 670.18388 401.25 659.5625 C 401.6307 659.29332 401.9497 658.96776 402.25 658.625 C 428.45023 656.5149 454.65776 654.38879 480.84375 652.09375 C 536.21938 646.90714 591.61811 642.05492 647.1875 639.90625 C 640.22288 644.60433 633.26085 649.29183 626.21875 653.875 C 607.68977 666.195 588.9787 678.20475 570.09375 689.96875 C 558.23458 697.39609 581.74317 741.38276 600.75 758.3125 C 591.18104 752.96651 581.67608 747.51875 572.21875 741.96875 C 537.58851 721.47975 503.59852 699.9135 470.8125 676.5625 C 455.15813 666.2565 406.59562 740.069 422.25 750.375 C 457.16456 773.272 492.49006 795.43325 528.59375 816.40625 C 580.5408 846.45925 633.8953 873.945 688.53125 898.75 C 728.30986 916.31 769.63249 930.268 808.125 950.625 C 815.94558 954.951 822.91844 959.7685 828.21875 966.9375 C 841.03729 980.4705 904.81854 920.06425 892 906.53125 C 878.70498 893.39425 865.20851 881.23125 848.125 873.03125 C 807.89894 852.70825 765.47675 837.6265 723.96875 820.1875 C 686.16773 803.24697 649.07844 784.81532 612.75 764.9375 C 614.12016 765.0207 615.39905 764.75202 616.5 764.0625 C 635.6967 751.9795 654.76578 739.6975 673.6875 727.1875 C 695.6112 713.0735 717.03832 698.18275 739.28125 684.59375 C 747.28147 680.32688 741.68057 659.91715 731.90625 640.9375 C 748.75097 642.14492 765.5498 643.98443 782.25 646.625 C 788.98693 649.034 799.5246 648.32475 805.03125 653.84375 C 821.64048 662.53275 862.57797 584.21925 845.96875 575.53125 C 829.74329 567.74825 812.99411 562.158 795 560 C 752.15323 554.075 708.90662 551.95225 665.65625 553.03125 C 616.51735 554.67447 567.51518 558.42273 518.5625 562.8125 C 511.71857 550.61629 504.75311 538.50364 497.625 526.46875 C 491.21039 515.12114 484.70783 503.80436 478.375 492.40625 C 489.1123 489.81845 499.88977 487.43082 510.59375 484.96875 C 561.2204 473.57275 612.69995 467.09475 664.4375 463.84375 C 702.97144 461.71775 741.49945 464.78125 779.71875 469.53125 C 795.82623 471.83125 788.14576 470.66675 802.84375 472.96875 C 821.30824 475.64175 833.90199 388.6115 815.4375 385.9375 C 799.19062 383.7595 807.74532 384.847 789.8125 382.625 C 746.31339 377.905 702.50705 374.9205 658.75 377.6875 C 648.44107 378.39714 638.13261 379.1988 627.84375 380.125 C 627.95076 346.22467 629.17919 312.37457 631 278.53125 C 646.11842 276.42207 661.28353 274.52476 676.46875 272.875 C 696.89094 271.046 717.34474 268.83675 737.875 269.34375 C 756.5953 269.32575 756.50158 181.07375 737.78125 181.09375 C 713.991 181.51675 690.29635 183.78625 666.65625 186.40625 C 656.53333 187.59498 646.44174 188.86288 636.34375 190.21875 C 637.88674 161.96176 639.45223 133.70595 640.78125 105.4375 C 641.14714 95.466469 616.36955 89.860811 592.9375 89.625 z M 130.28125 152.65625 C 110.14986 153.11913 59.014408 201.125 70.125 213.59375 C 92.665774 237.06375 117.24945 258.39125 140 281.65625 C 143.70375 285.69625 147.38999 289.74225 151.09375 293.78125 C 163.63309 307.39725 227.82059 248.27225 215.28125 234.65625 C 210.94585 229.96625 206.61665 225.28375 202.28125 220.59375 C 180.47057 198.39275 157.07829 177.79725 136.125 154.78125 C 134.76054 153.25 132.75353 152.59941 130.28125 152.65625 z M 386.6875 920.125 C 387.66985 922.04003 388.41607 924.15042 388.875 926.5 C 388.95591 926.914 388.16334 926.0465 387.8125 925.8125 C 387.37728 923.9283 387.0236 922.02344 386.6875 920.125 z "
     id="path15511" />
</svg>
