<?xml version="1.0" encoding="UTF-8" standalone="no"?>
<svg
   xmlns:dc="http://purl.org/dc/elements/1.1/"
   xmlns:cc="http://creativecommons.org/ns#"
   xmlns:rdf="http://www.w3.org/1999/02/22-rdf-syntax-ns#"
   xmlns:svg="http://www.w3.org/2000/svg"
   xmlns="http://www.w3.org/2000/svg"
   xmlns:sodipodi="http://sodipodi.sourceforge.net/DTD/sodipodi-0.dtd"
   xmlns:inkscape="http://www.inkscape.org/namespaces/inkscape"
   width="1024"
   height="1024"
   id="U89C2"
   version="1.1"
   inkscape:version="0.48.0 r9654"
   sodipodi:docname="U+89C2.svg">
  <metadata
     id="metadata13">
    <rdf:RDF>
      <cc:Work
         rdf:about="">
        <dc:format>image/svg+xml</dc:format>
        <dc:type
           rdf:resource="http://purl.org/dc/dcmitype/StillImage" />
      </cc:Work>
    </rdf:RDF>
  </metadata>
  <defs
     id="defs11" />
  <sodipodi:namedview
     pagecolor="#ffffff"
     bordercolor="#666666"
     borderopacity="1"
     objecttolerance="10"
     gridtolerance="10"
     guidetolerance="10"
     inkscape:pageopacity="0"
     inkscape:pageshadow="2"
     inkscape:window-width="640"
     inkscape:window-height="480"
     id="namedview9"
     showgrid="false"
     inkscape:zoom="0.27441406"
     inkscape:cx="512"
     inkscape:cy="512"
     inkscape:window-x="0"
     inkscape:window-y="25"
     inkscape:window-maximized="0"
     inkscape:current-layer="U89C2" />
  <path
     style="fill:#550000;fill-opacity:1;fill-rule:nonzero;stroke:#f9f9f9;stroke-width:0.1;stroke-miterlimit:4;stroke-dasharray:none"
     d="M 706.4375 191.625 C 678.05591 191.93984 649.77948 195.01731 621.78125 200.71875 C 588.82155 207.52675 555.84305 215.40275 524.90625 228.96875 C 521.44555 230.73512 520.45027 235.54843 521.1875 241.96875 C 495.86621 237.82411 462.38145 240.25642 461.71875 251.6875 C 461.74635 266.53135 462.53777 281.32861 463.84375 296.09375 C 444.20945 285.95248 419.46224 288.21517 398.375 289.375 C 360.1931 293.527 322.3455 300.06675 284.8125 308.21875 C 251.7347 315.54275 218.7347 323.33075 186.3125 333.21875 C 168.7404 339.28875 197.3654 422.1335 214.9375 416.0625 C 243.8802 406.0405 273.75015 399.06675 303.59375 392.34375 C 331.10651 386.34131 358.82185 381.29217 386.75 377.84375 C 365.79764 410.98755 343.58552 443.30754 321.25 475.53125 C 304.56167 456.90226 288.51521 437.70041 273.96875 417.3125 C 262.69205 402.5555 193.0983 455.71175 204.375 470.46875 C 225.38273 497.47327 248.01209 523.11251 271.34375 548.09375 C 252.46121 575.70815 233.52455 603.28659 214.0625 630.5 C 200.79608 644.38026 189.61007 670.29185 172.65625 682.15625 C 172.84326 682.10567 172.98065 682.05891 173.1875 682 C 157.90294 691.3055 160.74194 769.07192 178.25 768.65625 C 204.9513 764.70525 192.78825 768.4915 215.09375 758.1875 C 243.82035 737.4685 264.3522 709.26325 284.125 680.15625 C 300.55642 656.74446 316.68448 633.1093 332.78125 609.46875 C 355.80918 631.27582 379.28777 652.61017 402.84375 673.84375 C 429.81318 697.88687 457.18346 721.48308 484.71875 744.875 C 474.89677 761.4016 464.43029 777.54988 453.625 793.46875 C 444.6331 806.35275 435.4319 819.08775 427.1875 832.46875 C 417.8644 848.60075 493.89565 892.5695 503.21875 876.4375 C 509.42775 864.0155 518.4997 853.204 525.6875 841.375 C 552.4165 800.388 577.37965 758.2205 596.78125 713.1875 C 618.70932 662.78254 639.41174 611.79695 657.5625 559.90625 C 656.04568 581.19099 654.72161 602.49184 653.6875 623.8125 C 650.757 672.7345 653.71285 721.16275 667.09375 768.34375 C 687.61095 820.71575 713.569 840.9215 767.6875 852.6875 C 805.5346 856.9795 843.68325 853.61075 881.59375 851.84375 C 904.47805 850.87375 927.36615 849.668 950.21875 848.125 C 968.65155 846.753 962.1827 759.84675 943.75 761.21875 C 921.6698 763.02575 899.5669 764.3905 877.4375 765.4375 C 846.3868 766.9955 815.2061 769.49275 784.125 767.59375 C 767.0309 765.37275 756.35495 761.23975 749.78125 743.59375 C 737.67285 706.29475 737.7537 667.0585 739.5 628.1875 C 741.3513 593.7375 743.83425 559.3165 748.03125 525.0625 C 749.61761 511.1252 700.43784 502.07059 675.3125 506.40625 C 683.1874 481.77439 691.06328 457.12503 700.5 433.0625 C 707.7453 415.9375 626.9953 381.78025 619.75 398.90625 C 606.8446 434.69025 596.57805 471.35775 585.03125 507.59375 C 584.91835 507.94865 584.80071 508.30146 584.6875 508.65625 C 575.92647 465.81558 568.11771 422.78713 561.28125 379.59375 C 557.35235 353.60365 553.13044 327.47363 550.8125 301.21875 C 556.04736 306.40296 561.01667 308.98397 564.78125 307.0625 C 588.50185 296.3905 613.99795 290.53975 639.34375 285.21875 C 671.76775 278.74975 704.73145 275.82325 737.65625 279.15625 C 754.86725 282.04425 772.2577 286.80825 786.0625 297.90625 C 793.7852 305.95825 795.3172 317.27575 797.0625 327.84375 C 801.102 362.14375 798.49615 396.778 796.46875 431.125 C 794.47445 464.333 791.8927 497.49525 789.25 530.65625 C 788.2602 541.12525 788.85305 536.49625 787.65625 544.53125 C 785.47005 562.97225 872.40765 573.28475 874.59375 554.84375 C 875.75975 543.18375 875.23645 549.2415 876.09375 536.6875 C 878.07245 503.1935 880.3949 469.70975 882.4375 436.21875 C 884.9012 394.97975 887.915 353.39 882.5 312.25 C 876.0972 278.736 864.6174 248.113 836.4375 226.75 C 808.9081 208.133 778.4442 196.4715 745.1875 192.9375 C 732.25697 191.92813 719.33822 191.48189 706.4375 191.625 z M 172.65625 682.15625 C 168.00326 683.41462 169.18935 682.2873 166.53125 685.6875 C 168.65785 684.7318 170.69616 683.52793 172.65625 682.15625 z M 424.625 375.03125 C 426.9695 375.14561 429.25808 375.49715 431.4375 376.28125 C 433.60994 377.06249 426.75294 376.24316 424.625 375.03125 z M 477.78125 397.0625 C 485.81631 446.40361 494.65633 495.61058 504 544.71875 C 505.8191 557.98475 509.5753 570.43275 514.375 582.84375 C 518.40032 591.41617 540.96678 585.95086 561.09375 576.3125 C 549.79691 606.30039 537.5745 635.94352 524.8125 665.34375 C 502.88493 647.34511 481.34948 628.84235 460.0625 610.09375 C 433.61536 586.45278 407.30283 562.6691 381.75 538.0625 C 408.29206 500.06585 435.00914 462.18226 460.3125 423.34375 C 465.63072 415.15153 471.96104 406.33845 477.78125 397.0625 z "
     id="path24021" />
</svg>
