<?xml version="1.0" encoding="utf-8" ?>

<!DOCTYPE svg PUBLIC "-//W3C//DTD SVG 1.1//EN" 
  "http://www.w3.org/Graphics/SVG/1.1/DTD/svg11.dtd">
<svg 
    xmlns="http://www.w3.org/2000/svg"
    xmlns:xlink="http://www.w3.org/1999/xlink"
    xmlns:sodipodi="http://sodipodi.sourceforge.net/DTD/sodipodi-0.dtd"
    xmlns:inkscape="http://www.inkscape.org/namespaces/inkscape"
    width="1024" height="1024" id="U89E3">
<path d="m 11494.817,23780.281 c -10.902,31.504 -17.062,64.354 -22.79,97.11 -4.686,27.672 -7.597,55.598 -8.908,83.624 -1.115,18.771 -89.605,13.513 -88.49,-5.258 l 0,0 c 2.193,-31.294 5.652,-62.49 10.918,-93.427 6.454,-37.202 13.588,-74.347 24.568,-110.526 6.041,-17.968 90.743,10.509 84.702,28.477 z" id="path9235" inkscape:connector-curvature="0" style="fill:#550000;fill-opacity:1;fill-rule:nonzero;stroke:#f9f9f9;stroke-width:0.1;stroke-miterlimit:4;stroke-dasharray:none" transform="translate(-11264, -23552)"/><path d="m 11443.052,23798.681 c 26.736,-10.134 54.977,-14.396 83.316,-16.732 22.336,-1.364 44.692,0.467 66.643,4.598 20.1,4.169 37.884,13.995 47.485,33.193 2.647,5.293 3.438,11.325 5.157,16.988 2.442,27.337 -3.392,54.652 -7.354,81.617 -4.393,33.465 -10.462,66.606 -20.038,98.98 -5.444,17.983 -90.216,-7.683 -84.771,-25.666 l 0,0 c 8.724,-27.92 13.509,-56.762 17.273,-85.736 2.229,-16.283 4.623,-37.953 7.075,-51.932 3.623,8.12 3.313,9.287 10.887,16.187 2.459,2.24 6.279,4.43 9.761,5.21 1.107,0.248 -7.059,-3.103 -3.167,-1.239 -13.758,-3.182 -27.977,-4.197 -42.071,-3.758 -19.278,1.376 -38.69,3.794 -56.714,11.198 -17.588,7.103 -51.07,-75.806 -33.482,-82.908 z" id="path9237" inkscape:connector-curvature="0" style="fill:#550000;fill-opacity:1;fill-rule:nonzero;stroke:#f9f9f9;stroke-width:0.1;stroke-miterlimit:4;stroke-dasharray:none" transform="translate(-11264, -23552)"/><path d="m 11411.757,24064.917 c 1.385,36.284 3.921,72.512 5.511,108.791 1.754,47.047 2.399,94.122 4.523,141.155 0.842,25.931 4.608,51.647 5.984,77.534 0.654,18.934 -88.601,22.017 -89.255,3.083 l 0,0 c -0.09,-25.703 -4.45,-51.287 -4.513,-77.011 -1.743,-46.887 -2.276,-93.807 -4.267,-140.685 -1.828,-36.977 -4.529,-73.889 -7.28,-110.807 -0.437,-18.942 88.86,-21.003 89.297,-2.06 z" id="path9239" inkscape:connector-curvature="0" style="fill:#550000;fill-opacity:1;fill-rule:nonzero;stroke:#f9f9f9;stroke-width:0.1;stroke-miterlimit:4;stroke-dasharray:none" transform="translate(-11264, -23552)"/><path d="m 11396.93,24012.894 c 25.71,-17.82 55.177,-27.764 85.271,-35.144 31.857,-6.885 64.48,-7.722 96.932,-7.311 24.187,0.113 48.046,3.744 71.356,9.993 23.246,5.955 40.523,19.346 54.471,38.412 16.212,28.355 13.969,60.345 10.9,91.626 -6.761,50.457 -17.246,100.323 -26.722,150.317 -8.792,45.616 -15.844,91.533 -22.711,137.469 -1.484,14.136 -5.068,27.642 -9.416,41.1 -6.483,17.772 -90.263,-12.791 -83.779,-30.563 l 0,0 c 4.346,-7.111 3.815,-16.587 6.058,-24.313 7.782,-46.667 15.317,-93.38 24.235,-139.849 8.895,-47.343 18.563,-94.621 24.395,-142.467 0.908,-10.154 1.845,-20.102 1.436,-30.297 -0.06,-1.599 -1.599,-4.044 -0.187,-4.799 0.356,-0.19 0.642,0.489 0.963,0.734 6.571,5.487 1.359,-1.142 -3.582,-1.447 -15.883,-4.719 -32.291,-7.032 -48.871,-7.276 -24.994,-0.521 -50.148,-0.24 -74.756,4.722 -18.567,4.348 -37.097,9.878 -52.86,21.026 -15.26,11.271 -68.392,-60.662 -53.133,-71.933 z" id="path9241" inkscape:connector-curvature="0" style="fill:#550000;fill-opacity:1;fill-rule:nonzero;stroke:#f9f9f9;stroke-width:0.1;stroke-miterlimit:4;stroke-dasharray:none" transform="translate(-11264, -23552)"/><path d="m 11409.557,24128.993 c 28.997,-4.31 58.212,-6.828 87.451,-8.77 20.657,-1.102 10.466,-0.678 30.572,-1.292 18.788,-0.472 21.017,88.097 2.228,88.569 l 0,0 c -17.428,0.328 -8.43,0.04 -26.994,0.917 -25.978,1.693 -52.008,3.798 -77.622,8.631 -18.679,3.317 -34.315,-84.738 -15.635,-88.055 z" id="path9243" inkscape:connector-curvature="0" style="fill:#550000;fill-opacity:1;fill-rule:nonzero;stroke:#f9f9f9;stroke-width:0.1;stroke-miterlimit:4;stroke-dasharray:none" transform="translate(-11264, -23552)"/><path d="m 11435.131,24261.956 c 33.108,-0.169 66.173,-2.009 99.288,-2.342 32.409,-0.399 64.754,1.519 96.921,5.353 3.224,0.428 6.448,0.857 9.672,1.286 18.704,2.684 6.052,90.854 -12.651,88.17 l 0,0 c -2.772,-0.431 -5.544,-0.863 -8.316,-1.295 -28.09,-3.898 -56.391,-5.789 -84.765,-5.474 -34.09,0.323 -68.089,2.327 -102.148,3.579 -18.939,-0.424 -16.94,-89.701 1.999,-89.277 z" id="path9245" inkscape:connector-curvature="0" style="fill:#550000;fill-opacity:1;fill-rule:nonzero;stroke:#f9f9f9;stroke-width:0.1;stroke-miterlimit:4;stroke-dasharray:none" transform="translate(-11264, -23552)"/><path d="m 11595.61,24067.508 c -7.032,43.434 -13.13,87.015 -19.716,130.519 -8.362,54.035 -17.226,107.99 -23.918,162.264 -4.35,35.041 -5.708,70.312 -5.132,105.586 0.596,10.587 0.188,5.788 1.087,14.406 1.415,18.878 -87.578,25.55 -88.994,6.671 l 0,0 c -0.727,-12.907 -0.439,-6.039 -0.783,-20.607 0.18,-39.11 2.043,-78.199 7.077,-117.017 7.091,-54.868 16.168,-109.436 24.472,-164.129 6.369,-43.567 12.439,-87.178 17.666,-130.899 2.801,-18.719 91.042,-5.513 88.241,13.206 z" id="path9247" inkscape:connector-curvature="0" style="fill:#550000;fill-opacity:1;fill-rule:nonzero;stroke:#f9f9f9;stroke-width:0.1;stroke-miterlimit:4;stroke-dasharray:none" transform="translate(-11264, -23552)"/><path d="m 11762.637,23772.918 c 33.828,-2.798 67.735,-4.171 101.667,-4.722 33.151,-0.606 66.284,0.692 99.035,5.947 33.675,5.896 58.207,24.326 77.222,51.924 18.458,34.25 15.933,72.404 11.56,109.705 -4.287,28.429 -9.534,56.843 -19.097,84.01 -2.106,4.107 -4.213,8.215 -6.319,12.322 -9.53,16.385 -86.768,-28.541 -77.238,-44.926 l 0,0 c 0.02,0.455 0.04,0.909 0.06,1.364 8.535,-19.952 10.762,-42.155 14.878,-63.264 2.092,-17.023 4.082,-34.279 1.126,-51.34 -2.515,-7.936 -9.299,-10.402 -17.099,-12.275 -27.258,-5.06 -55.054,-5.545 -82.714,-5.366 -31.388,0.493 -62.815,1.618 -94,5.439 -18.841,1.925 -27.918,-86.893 -9.076,-88.818 z" id="path9253" inkscape:connector-curvature="0" style="fill:#550000;fill-opacity:1;fill-rule:nonzero;stroke:#f9f9f9;stroke-width:0.1;stroke-miterlimit:4;stroke-dasharray:none" transform="translate(-11264, -23552)"/><path d="m 11892.015,23864.107 c -12.914,35.555 -23.66,71.855 -34.707,108.021 -9.005,29.983 -17.997,59.97 -27.087,89.928 -5.623,17.923 -90.115,-8.58 -84.493,-26.504 l 0,0 c 9.582,-29.559 18.802,-59.231 27.72,-88.997 11.389,-37.408 22.535,-74.892 34.408,-112.151 6.301,-17.853 90.46,11.85 84.159,29.703 z" id="path9255" inkscape:connector-curvature="0" style="fill:#550000;fill-opacity:1;fill-rule:nonzero;stroke:#f9f9f9;stroke-width:0.1;stroke-miterlimit:4;stroke-dasharray:none" transform="translate(-11264, -23552)"/><path d="m 11808.484,24136.547 c -7.633,28.408 -15.243,56.822 -22.599,85.303 -3.585,14.071 -7.307,28.108 -9.913,42.399 -3.818,18.531 -91.172,0.535 -87.355,-17.996 l 0,0 c 3.495,-15.658 7.601,-31.158 11.723,-46.662 7.372,-28.12 15.041,-56.179 21.421,-84.546 4.561,-18.396 91.284,3.105 86.723,21.502 z" id="path9257" inkscape:connector-curvature="0" style="fill:#550000;fill-opacity:1;fill-rule:nonzero;stroke:#f9f9f9;stroke-width:0.1;stroke-miterlimit:4;stroke-dasharray:none" transform="translate(-11264, -23552)"/><path d="m 11806.697,24117.189 c 30.928,-5.265 61.872,-10.432 92.808,-15.652 35.227,-6.543 70.741,-10.976 106.565,-11.775 18.739,1.613 41.412,-1.673 58.81,7.62 6.327,3.379 11.872,8.054 17.807,12.081 13.625,13.269 -48.924,77.496 -62.549,64.227 l 0,0 c 4.309,2.444 8.477,5.155 12.927,7.33 0.721,0.352 3.032,0.654 2.399,0.162 -6.782,-5.273 -20.714,-0.432 -28.137,-2.819 -31.297,0.1 -62.286,4.378 -93.038,10.021 -29.974,5.148 -60.004,10.11 -89.761,16.407 -18.583,3.782 -36.414,-83.819 -17.831,-87.602 z" id="path9259" inkscape:connector-curvature="0" style="fill:#550000;fill-opacity:1;fill-rule:nonzero;stroke:#f9f9f9;stroke-width:0.1;stroke-miterlimit:4;stroke-dasharray:none" transform="translate(-11264, -23552)"/><path d="m 11966.132,24042.361 c 3.659,42.301 4.568,84.764 5.16,127.197 0.397,55.845 -1.03,111.678 -0.618,167.523 0.506,32.799 2.79,65.578 6.992,98.111 1.123,7.329 0.534,4.204 1.606,9.406 2.934,18.769 -85.545,32.596 -88.478,13.827 l 0,0 c -1.044,-8.145 -0.509,-3.695 -1.563,-13.352 -3.466,-35.768 -5.69,-71.672 -5.883,-107.617 -0.08,-55.481 1.306,-110.955 0.638,-166.437 -0.782,-39.806 -1.589,-79.738 -6.615,-119.281 -1.988,-18.829 86.772,-28.205 88.761,-9.377 z" id="path9267" inkscape:connector-curvature="0" style="fill:#2b0000;fill-opacity:1;fill-rule:nonzero;stroke:#f9f9f9;stroke-width:0.10000000000000001;stroke-miterlimit:4;stroke-dasharray:none" transform="translate(-11264, -23552)"/><path d="m 11707.097,24300.525 c 34.782,-5.959 69.849,-10.047 104.899,-14.05 49.47,-5.671 99.062,-10.211 148.729,-13.718 35.835,-2.609 71.77,-3.141 107.611,-0.611 12.338,1.028 24.617,2.607 36.834,4.592 18.72,3.272 3.294,91.517 -15.425,88.244 l 0,0 c -9.46,-1.811 -18.984,-3.273 -28.563,-4.301 -31.427,-2.952 -63.013,-2.548 -94.497,-0.506 -48.242,3.166 -96.405,7.527 -144.402,13.355 -32.558,3.981 -65.212,7.87 -97.337,14.62 -18.588,3.786 -36.437,-83.838 -17.849,-87.625 z" id="path9265" inkscape:connector-curvature="0" style="fill:#550000;fill-opacity:1;fill-rule:nonzero;stroke:#f9f9f9;stroke-width:0.1;stroke-miterlimit:4;stroke-dasharray:none" transform="translate(-11264, -23552)"/></svg>