<?xml version="1.0" encoding="UTF-8" standalone="no"?>
<svg
   xmlns:dc="http://purl.org/dc/elements/1.1/"
   xmlns:cc="http://creativecommons.org/ns#"
   xmlns:rdf="http://www.w3.org/1999/02/22-rdf-syntax-ns#"
   xmlns:svg="http://www.w3.org/2000/svg"
   xmlns="http://www.w3.org/2000/svg"
   xmlns:sodipodi="http://sodipodi.sourceforge.net/DTD/sodipodi-0.dtd"
   xmlns:inkscape="http://www.inkscape.org/namespaces/inkscape"
   width="1024"
   height="1024"
   id="U89C1"
   version="1.1"
   inkscape:version="0.48.0 r9654"
   sodipodi:docname="U+89C1.svg">
  <metadata
     id="metadata11">
    <rdf:RDF>
      <cc:Work
         rdf:about="">
        <dc:format>image/svg+xml</dc:format>
        <dc:type
           rdf:resource="http://purl.org/dc/dcmitype/StillImage" />
      </cc:Work>
    </rdf:RDF>
  </metadata>
  <defs
     id="defs9" />
  <sodipodi:namedview
     pagecolor="#ffffff"
     bordercolor="#666666"
     borderopacity="1"
     objecttolerance="10"
     gridtolerance="10"
     guidetolerance="10"
     inkscape:pageopacity="0"
     inkscape:pageshadow="2"
     inkscape:window-width="640"
     inkscape:window-height="480"
     id="namedview7"
     showgrid="false"
     inkscape:zoom="0.27441406"
     inkscape:cx="512"
     inkscape:cy="512"
     inkscape:window-x="0"
     inkscape:window-y="25"
     inkscape:window-maximized="0"
     inkscape:current-layer="U89C1" />
  <path
     style="fill:#550000;fill-opacity:1;fill-rule:nonzero;stroke:#f9f9f9;stroke-width:0.1;stroke-miterlimit:4;stroke-dasharray:none"
     d="M 535 210.9375 C 511.80736 210.90762 488.6132 211.3675 465.4375 212.375 C 427.3429 214.732 388.54705 217.4345 352.78125 231.9375 C 346.39394 234.93958 347.64699 248.03769 352.625 262.875 C 326.5954 256.41748 284.03672 257.99991 283.28125 271.03125 C 281.97605 307.05525 282.08515 343.086 282.46875 379.125 C 282.94385 422.676 282.73905 466.226 284.53125 509.75 C 285.16325 535.36 288.59125 559.59 299.21875 582.875 C 305.41734 593.50921 340.07479 578.29207 361.09375 561.8125 C 351.54736 589.83044 341.04203 617.51287 329.96875 644.96875 C 318.02865 673.92575 304.70505 702.365 287.96875 728.875 C 278.14155 744.969 354.01655 791.2815 363.84375 775.1875 C 382.41495 743.9875 397.73705 711.07275 411.15625 677.34375 C 428.48022 633.38313 444.68341 588.95195 458.25 543.6875 C 458.28499 554.96248 458.33281 566.22514 458.40625 577.5 C 458.52565 617.999 459.16265 658.5035 461.53125 698.9375 C 463.24225 729.6445 468.086 759.94825 478.5 788.90625 C 491.5994 821.15225 512.3037 835.60175 545.875 842.34375 C 575.6582 844.30475 605.44925 839.8425 634.96875 836.3125 C 670.03295 832.2395 704.82985 826.3745 739.59375 820.3125 C 764.13985 816.1085 788.5236 811.04425 812.5625 804.53125 C 834.812 798.80825 851.53715 784.7295 865.96875 767.5625 C 877.90735 753.5865 884.9716 737.20125 890.125 719.78125 C 894.9807 701.47925 808.7307 678.573 803.875 696.875 C 803.7933 702.108 799.96125 706.562 797.09375 710.625 C 793.19485 715.552 794.4321 716.6515 788.5625 718.6875 C 767.4083 724.8485 745.83275 729.4085 724.15625 733.3125 C 691.17275 739.2705 658.12315 744.92 624.78125 748.5 C 603.4125 750.89679 581.99923 753.38742 560.5 754.21875 C 553.02251 734.95236 551.49265 713.86682 549.5 693.46875 C 546.9505 654.73775 546.363 615.934 546.375 577.125 C 546.3079 544.509 546.1015 511.86825 547.6875 479.28125 C 548.07784 466.30248 506.27964 460.94952 479.75 464.96875 C 486.48624 438.74986 492.73436 412.42749 497.875 385.84375 C 500.8228 367.12475 412.60405 353.2185 409.65625 371.9375 C 403.54255 412.0425 393.11255 451.35025 382.78125 490.53125 C 379.95263 501.24349 376.93821 511.9001 373.75 522.5 C 372.18427 514.29632 371.14187 506.59734 372.53125 505.65625 C 370.29245 463.28825 370.53215 420.8535 370.21875 378.4375 C 370.0876 352.14049 369.99364 325.81146 371.09375 299.53125 C 378.1636 309.32169 385.51924 315.37727 390.84375 312.875 C 416.31005 303.039 444.14755 301.78475 471.09375 299.96875 C 514.35025 297.84075 557.6899 298.18575 600.9375 300.21875 C 615.67799 302.57973 631.49202 301.67465 646.5625 303.71875 C 646.5826 303.95444 646.60163 304.12254 646.625 304.375 C 647.9711 338.454 642.61215 372.37325 637.96875 406.03125 C 631.07345 452.28525 624.42745 498.58375 618.46875 544.96875 C 616.37095 559.49875 615.24645 574.1815 612.96875 588.6875 C 612.76634 589.97685 612.55534 591.24818 612.3125 592.53125 C 612.52463 591.98375 612.75438 591.45298 612.96875 590.90625 C 610.36018 608.84442 677.49437 653.90499 687.71875 639.03125 C 690.56415 633.59125 693.9141 628.39575 696.25 622.71875 C 704.8385 601.84375 701.1276 577.36175 705.8125 555.71875 C 711.212 509.78375 717.56855 463.98625 724.65625 418.28125 C 730.61325 376.94125 737.43385 335.18125 734.84375 293.28125 C 730.03155 258.20325 719.16355 231.37075 682.40625 220.21875 C 656.83495 214.69375 630.6095 213.8765 604.5625 212.3125 C 581.38565 211.4745 558.19264 210.96738 535 210.9375 z M 655.25 305.3125 C 657.36782 305.80704 659.49585 306.37621 661.5625 307.0625 C 659.21486 307.29824 657.08873 306.50335 655.25 305.3125 z M 612.3125 592.5625 C 611.76545 593.97512 611.2345 595.39925 610.78125 596.84375 C 610.65415 597.24875 611.48325 596.285 611.59375 595.875 C 611.88677 594.78867 612.1026 593.66865 612.3125 592.5625 z M 561.46875 756.625 C 563.8239 759.87166 566.61534 764.02749 561.75 757.3125 C 561.65239 757.08385 561.56455 756.8542 561.46875 756.625 z "
     id="path8853" />
</svg>
