<?xml version="1.0" encoding="UTF-8" standalone="no"?>
<svg
   xmlns:dc="http://purl.org/dc/elements/1.1/"
   xmlns:cc="http://creativecommons.org/ns#"
   xmlns:rdf="http://www.w3.org/1999/02/22-rdf-syntax-ns#"
   xmlns:svg="http://www.w3.org/2000/svg"
   xmlns="http://www.w3.org/2000/svg"
   xmlns:sodipodi="http://sodipodi.sourceforge.net/DTD/sodipodi-0.dtd"
   xmlns:inkscape="http://www.inkscape.org/namespaces/inkscape"
   width="1024"
   height="1024"
   id="U8BA9"
   version="1.1"
   inkscape:version="0.48.0 r9654"
   sodipodi:docname="U+8BA9.svg">
  <metadata
     id="metadata12">
    <rdf:RDF>
      <cc:Work
         rdf:about="">
        <dc:format>image/svg+xml</dc:format>
        <dc:type
           rdf:resource="http://purl.org/dc/dcmitype/StillImage" />
      </cc:Work>
    </rdf:RDF>
  </metadata>
  <defs
     id="defs10" />
  <sodipodi:namedview
     pagecolor="#ffffff"
     bordercolor="#666666"
     borderopacity="1"
     objecttolerance="10"
     gridtolerance="10"
     guidetolerance="10"
     inkscape:pageopacity="0"
     inkscape:pageshadow="2"
     inkscape:window-width="640"
     inkscape:window-height="480"
     id="namedview8"
     showgrid="false"
     inkscape:zoom="0.27441406"
     inkscape:cx="512"
     inkscape:cy="512"
     inkscape:window-x="0"
     inkscape:window-y="25"
     inkscape:window-maximized="0"
     inkscape:current-layer="U8BA9" />
  <path
     style="fill:#a02c2c;fill-opacity:1;fill-rule:nonzero;stroke:#f9f9f9;stroke-width:0.1;stroke-miterlimit:4;stroke-dasharray:none"
     d="M 259.15625 212.4375 C 237.44571 212.80185 184.07893 250.45133 192.90625 263.9375 C 209.94012 288.5575 227.31132 312.9265 242.59375 338.6875 C 252.10447 354.6005 327.10448 309.788 317.59375 293.875 C 301.54659 267.187 283.61798 241.77425 266.875 215.53125 C 265.43053 213.32442 262.70888 212.37788 259.15625 212.4375 z M 544.03125 234.25 C 521.91036 234.4375 499.85797 239.33375 499.9375 248.71875 C 501.19626 295.57675 503.64049 342.37975 505.46875 389.21875 C 508.46856 461.74175 507.14801 534.32 506.75 606.875 C 506.66354 642.513 507.37976 678.11975 508.96875 713.71875 C 509.97409 732.14175 596.81784 727.423 595.8125 709 C 593.59943 675.065 592.46198 641.10575 592.28125 607.09375 C 592.27398 598.8216 592.29341 590.5537 592.3125 582.28125 C 619.32159 576.56666 646.84608 573.62512 674.34375 571.4375 C 688.21703 570.0525 701.92004 570.88525 715.65625 572.78125 C 734.11155 574.86225 743.92405 487.86225 725.46875 485.78125 C 706.08782 483.87825 686.74928 482.54475 667.28125 484.59375 C 642.29865 486.66185 617.34692 489.28668 592.5625 493.03125 C 592.55068 457.45177 592.24884 421.88091 591.09375 386.3125 C 589.74675 340.2185 587.52953 294.08575 588.40625 247.96875 C 588.32672 238.58375 566.15214 234.0625 544.03125 234.25 z M 266.59375 480.1875 C 256.2854 480.16987 245.82364 481.64844 235.875 483.125 C 209.30357 487.627 182.8392 492.7815 156.09375 496.1875 C 137.60766 499.3135 152.35765 586.4385 170.84375 583.3125 C 196.60684 578.89877 222.2958 574.14256 248.125 570.125 C 248.16168 570.69931 248.22179 571.26895 248.25 571.84375 C 249.13108 589.79975 248.25714 607.565 247.3125 625.5 C 242.46998 676.971 241.00341 728.56175 242.125 780.21875 C 243.02744 817.50075 246.73226 854.6435 250.8125 891.6875 C 252.83734 907.6915 255.15147 923.60025 259.9375 939.03125 C 265.73452 956.92825 350.10951 929.5845 344.3125 911.6875 C 340.75873 901.9045 340.05509 891.4 338 881.25 C 334.00343 850.47125 330.55931 819.60798 329.125 788.59375 C 332.88792 814.54348 346.48184 847.76558 357.96875 844.625 C 398.45744 833.568 440.20831 828.4465 481.78125 823.4375 C 549.03199 816.2945 616.26084 808.9385 683.625 802.9375 C 730.15476 798.7765 776.91657 796.85875 823.4375 801.71875 C 832.82618 802.68575 841.8332 805.044 850.65625 808.25 C 868.46789 813.877 894.99914 729.90825 877.1875 724.28125 C 862.206 719.87225 847.12665 716.0025 831.46875 714.8125 C 779.60527 710.5255 727.63993 712.56925 675.875 717.65625 C 607.82897 723.99525 539.86599 731.38075 471.84375 737.96875 C 425.82637 743.13675 379.79824 748.89175 334.625 759.34375 C 331.16913 760.28879 329.25866 764.1933 328.5 769.8125 C 327.55225 723.28817 329.10555 676.83198 333.9375 630.5 C 336.46659 589.447 340.87821 546.147 321.40625 508.375 C 315.67984 502.519 310.88236 495.5745 304.21875 490.8125 C 292.86442 482.69731 279.84734 480.21016 266.59375 480.1875 z M 264.96875 567.6875 C 266.63965 567.60931 268.22376 567.8005 269.5625 568.5 C 270.15253 568.808 268.2827 569.104 267.625 569 C 265.33724 568.64134 263.6786 568.34077 262.3125 568 C 263.22216 567.8417 264.10308 567.72801 264.96875 567.6875 z "
     id="path11485" />
</svg>
