<?xml version="1.0" encoding="utf-8" ?>

<!DOCTYPE svg PUBLIC "-//W3C//DTD SVG 1.1//EN" 
  "http://www.w3.org/Graphics/SVG/1.1/DTD/svg11.dtd">
<svg 
    xmlns="http://www.w3.org/2000/svg"
    xmlns:xlink="http://www.w3.org/1999/xlink"
    xmlns:sodipodi="http://sodipodi.sourceforge.net/DTD/sodipodi-0.dtd"
    xmlns:inkscape="http://www.inkscape.org/namespaces/inkscape"
    width="1024" height="1024" id="U8BD1">
<path d="m 10515.66,58562.02 c 8.038,19.987 22.903,35.864 37.444,51.312 3.29,3.466 6.581,6.933 9.872,10.399 12.765,13.503 -50.888,73.677 -63.653,60.175 l 0,0 c -3.385,-3.596 -6.77,-7.191 -10.155,-10.786 -22.31,-23.982 -43.655,-49.232 -56.319,-79.851 -6.629,-17.567 76.182,-48.816 82.811,-31.249 z" id="path12386" inkscape:connector-curvature="0" style="fill:#2b1100;fill-opacity:1;fill-rule:nonzero;stroke:none" transform="translate(-10240, -58368)"/><path d="m 10372.893,58765.875 c 30.469,-5.633 60.866,-11.634 91.551,-15.98 30.508,-3.709 63.197,-0.82 83.562,25.643 4.746,6.168 7.122,13.841 10.682,20.761 9.236,37.046 4.507,75.717 2.583,113.412 -2.227,47.413 -5.199,94.782 -8.453,142.134 -2.274,36.75 -5.951,73.762 -0.888,110.415 -0.133,13.212 13.567,23.207 3.35,12.469 -1.985,-1.081 -3.97,-2.162 -5.955,-3.243 18.23,4.515 -3.058,90.451 -21.288,85.935 l 0,0 c -5.568,-1.968 -11.137,-3.937 -16.705,-5.906 -30.279,-20.648 -40.858,-43.055 -46.378,-78.917 -4.487,-42.198 -1.838,-84.457 1.558,-126.673 3.202,-46.752 5.942,-93.53 7.832,-140.355 1.13,-25.556 2.259,-51.399 2.347,-76.844 14.444,14.403 27.226,6.11 -0.455,7.977 -28.306,3.65 -56.347,9.115 -84.171,15.448 -18.302,4.067 -37.474,-82.209 -19.172,-86.276 z" id="path12394" inkscape:connector-curvature="0" style="fill:#2b1100;fill-opacity:1;fill-rule:nonzero;stroke:none" transform="translate(-10240, -58368)"/><path d="m 10670.445,58565.713 c 30.821,-13.736 63.669,-21.643 96.615,-28.281 41.639,-8.184 83.849,-8.11 125.848,-3.59 36.331,4.142 70.105,15.768 100.622,35.708 33.779,27.168 43.703,51.259 40.131,94.175 -9.534,41.747 -40.49,70.456 -71.547,97.477 -41.476,34.271 -88.853,60.074 -136.111,85.309 -41.987,21.945 -84.946,42.079 -129.736,57.595 -15.566,5.478 -31.576,7.257 -47.888,8.315 -18.669,0.695 -21.944,-87.311 -3.275,-88.006 l 0,0 c 7.98,0.418 15.663,-0.927 23.366,-3.139 40.533,-13.047 79.094,-31.338 116.886,-50.838 41.467,-22.172 83.125,-44.751 119.541,-74.815 15.154,-13.269 30.168,-26.717 41.476,-43.546 4.838,-3.061 1.681,-5.934 -2.441,-9.968 -17.524,-13.389 -39.348,-18.201 -60.78,-21.561 -32.969,-3.922 -66.117,-4.075 -98.851,2.349 -25.669,5.186 -51.495,11.066 -75.233,22.476 -16.898,8.193 -55.521,-71.467 -38.623,-79.66 z" id="path12401" inkscape:connector-curvature="0" style="fill:#2b1100;fill-opacity:1;fill-rule:nonzero;stroke:none" transform="translate(-10240, -58368)"/><path d="m 10732.825,58632.986 c 18.393,25.15 43.141,44.43 67.894,62.902 39.992,28.858 84.071,51.177 128.526,72.2 40.414,18.627 81.961,34.648 124.34,48.182 16.127,4.921 32.525,8.87 49.064,12.112 18.271,3.882 -0.03,90.01 -18.301,86.127 l 0,0 c -19.448,-4.385 -38.768,-9.355 -57.758,-15.457 -45.713,-15.181 -90.662,-32.606 -134.358,-52.922 -49.517,-23.546 -98.536,-48.608 -143.215,-80.642 -31.754,-23.499 -62.782,-48.389 -87.201,-79.773 -11.186,-15.063 59.823,-67.793 71.009,-52.729 z" id="path12403" inkscape:connector-curvature="0" style="fill:#2b1100;fill-opacity:1;fill-rule:nonzero;stroke:none" transform="translate(-10240, -58368)"/><path d="m 10723.279,58974.806 c 36.031,-6.555 72.295,-11.547 108.684,-15.596 37.133,-4.151 74.432,-7.226 111.804,-5.779 18.599,0.947 14.134,88.623 -4.465,87.675 l 0,0 c -32.606,-2.239 -65.256,1.156 -97.681,4.468 -34.684,3.901 -69.317,8.638 -103.389,16.35 -18.48,3.172 -33.434,-83.946 -14.953,-87.118 z" id="path12450" inkscape:connector-curvature="0" style="fill:#2b1100;fill-opacity:1;fill-rule:nonzero;stroke:none" transform="translate(-10240, -58368)"/><path d="m 10619.577,59133.925 c 44.251,3.877 88.766,-0.739 132.875,-4.422 64.493,-6.41 129.087,-11.594 193.75,-15.912 41.228,-2.622 82.495,-4.598 123.786,-5.863 9.395,-0.284 18.79,-0.491 28.188,-0.63 18.749,-0 18.762,88.38 0.01,88.383 l 0,0 c -8.789,-0.145 -17.579,-0.172 -26.369,-0.09 -40.088,0.429 -80.158,1.887 -120.187,4.11 -64.016,3.817 -127.953,8.743 -191.734,15.493 -49.943,4.525 -100.159,9.667 -150.356,6.728 -18.624,-2.128 -8.591,-89.922 10.033,-87.794 z" id="path12452" inkscape:connector-curvature="0" style="fill:#2b1100;fill-opacity:1;fill-rule:nonzero;stroke:none" transform="translate(-10240, -58368)"/><path d="m 10892.355,58866.183 c -5.613,42.65 -5.303,85.919 -6.094,128.867 -1.813,75.983 0.505,151.936 6.475,227.685 3.001,37.018 8.939,73.666 15.749,110.141 3.225,18.089 -82.046,33.295 -85.272,15.206 l 0,0 c -6.729,-39.431 -12.618,-79.017 -15.551,-118.943 -5.629,-78.262 -7.982,-156.688 -6.985,-235.158 0.319,-47.868 -0.519,-95.977 4.587,-143.633 3.359,-18.475 90.45,-2.64 87.091,15.835 z" id="path12454" inkscape:connector-curvature="0" style="fill:#2b1100;fill-opacity:1;fill-rule:nonzero;stroke:none" transform="translate(-10240, -58368)"/></svg>