<?xml version="1.0" encoding="UTF-8" standalone="no"?>
<svg
   xmlns:dc="http://purl.org/dc/elements/1.1/"
   xmlns:cc="http://creativecommons.org/ns#"
   xmlns:rdf="http://www.w3.org/1999/02/22-rdf-syntax-ns#"
   xmlns:svg="http://www.w3.org/2000/svg"
   xmlns="http://www.w3.org/2000/svg"
   xmlns:sodipodi="http://sodipodi.sourceforge.net/DTD/sodipodi-0.dtd"
   xmlns:inkscape="http://www.inkscape.org/namespaces/inkscape"
   width="1024"
   height="1024"
   id="U8BA1"
   version="1.1"
   inkscape:version="0.48.0 r9654"
   sodipodi:docname="U+8BA1.svg">
  <metadata
     id="metadata11">
    <rdf:RDF>
      <cc:Work
         rdf:about="">
        <dc:format>image/svg+xml</dc:format>
        <dc:type
           rdf:resource="http://purl.org/dc/dcmitype/StillImage" />
      </cc:Work>
    </rdf:RDF>
  </metadata>
  <defs
     id="defs9" />
  <sodipodi:namedview
     pagecolor="#ffffff"
     bordercolor="#666666"
     borderopacity="1"
     objecttolerance="10"
     gridtolerance="10"
     guidetolerance="10"
     inkscape:pageopacity="0"
     inkscape:pageshadow="2"
     inkscape:window-width="640"
     inkscape:window-height="480"
     id="namedview7"
     showgrid="false"
     inkscape:zoom="0.27441406"
     inkscape:cx="512"
     inkscape:cy="512"
     inkscape:window-x="0"
     inkscape:window-y="25"
     inkscape:window-maximized="0"
     inkscape:current-layer="U8BA1" />
  <path
     style="fill:#550000;fill-opacity:1;fill-rule:nonzero;stroke:#f9f9f9;stroke-width:0.1;stroke-miterlimit:4;stroke-dasharray:none"
     d="M 626.4375 211.6875 C 605.55515 211.49101 585.72645 215.52016 585.40625 224.40625 C 584.69005 267.52125 583.3339 310.61875 582 353.71875 C 580.64348 392.02067 579.19669 430.32468 577.8125 468.625 C 561.32297 470.5405 544.85125 472.6168 528.40625 474.90625 C 492.26065 479.94825 456.18045 485.72425 419.90625 489.78125 C 401.09345 492.11325 412.09355 580.80175 430.90625 578.46875 C 467.50625 572.83475 504.06965 566.936 540.71875 561.625 C 552.06751 559.99878 563.43614 558.52234 574.8125 557.125 C 574.38692 570.88358 573.96239 584.64566 573.59375 598.40625 C 571.89055 666.80325 572.87475 735.218 572.96875 803.625 C 572.96395 830.952 572.78405 858.2915 570.90625 885.5625 L 570.3125 888.96875 C 568.1017 907.79675 656.88295 918.23425 659.09375 899.40625 C 659.38325 896.42225 659.648 893.4215 659.9375 890.4375 C 661.1822 861.2445 660.96295 832.0215 660.40625 802.8125 C 659.26285 735.4295 657.66075 668.04725 659.21875 600.65625 C 659.66506 583.21475 660.18591 565.78105 660.75 548.34375 C 666.27869 547.8728 671.81288 547.38084 677.34375 546.9375 C 708.66765 544.3185 740.0948 544.18775 771.5 544.46875 C 780.2113 544.60075 788.9129 544.78125 797.625 544.78125 C 816.5708 544.53425 815.41445 455.22175 796.46875 455.46875 C 788.18575 455.72075 779.88065 455.6575 771.59375 455.6875 C 737.72385 455.8945 703.85605 456.4475 670.09375 459.4375 C 668.07253 459.61019 666.05222 459.79298 664.03125 459.96875 C 665.44812 425.62607 667.02027 391.30265 668.65625 356.96875 C 670.54605 313.84975 672.24675 270.713 674.78125 227.625 C 675.14415 217.55462 650.10416 211.91019 626.4375 211.6875 z M 302.46875 220.71875 C 280.51165 221.001 226.3767 258.85773 235.25 272.53125 C 250.0782 295.26325 265.4409 317.634 280.8125 340 C 291.4856 355.46 364.3606 305.1485 353.6875 289.6875 C 338.7057 268.0825 323.6353 246.526 310.25 223.875 C 308.798 221.63752 306.06173 220.67256 302.46875 220.71875 z M 303.5 431.5 C 276.3934 433.882 250.13805 441.199 223.21875 445 C 195.06325 448.842 166.6973 451.71375 138.25 449.71875 C 119.311 448.95575 115.6861 538.20575 134.625 538.96875 C 168.2717 539.97375 201.7654 536.849 235.0625 532.375 C 249.84666 531.49929 264.40959 527.52601 279.03125 524.40625 C 277.96886 551.29094 276.71971 578.17606 275.6875 605.0625 C 274.1382 647.3145 272.03745 689.518 270.03125 731.75 C 268.68865 763.439 266.31965 795.07175 264.28125 826.71875 C 263.22685 841.36475 262.453 856.03575 262.875 870.71875 C 262.294 891.11875 273.23235 905.698 288.65625 917.75 C 304.22377 927.63222 349.83668 856.86326 338.0625 843.15625 C 343.29991 847.6952 345.4986 849.16844 349.25 856.90625 C 351.51882 861.58624 352.03037 863.78764 352.375 866.84375 C 352.36132 866.67909 352.37026 866.58534 352.375 866.59375 C 351.66305 855.00351 352.38299 843.39969 352.90625 831.8125 C 354.51125 799.7895 356.6647 767.793 357.875 735.75 C 359.7108 693.401 361.7778 651.06475 363.6875 608.71875 C 365.1629 576.00075 367.0281 543.31575 368.375 510.59375 C 367.3423 465.82375 354.5456 433.689 303.5 431.5 z M 309.3125 520.5 C 306.90854 521.08966 304.58633 521.12618 302.34375 520.78125 C 304.6676 520.61133 306.97727 520.50653 309.3125 520.5 z "
     id="path8597" />
</svg>
