<?xml version="1.0" encoding="UTF-8" standalone="no"?>
<svg
   xmlns:dc="http://purl.org/dc/elements/1.1/"
   xmlns:cc="http://creativecommons.org/ns#"
   xmlns:rdf="http://www.w3.org/1999/02/22-rdf-syntax-ns#"
   xmlns:svg="http://www.w3.org/2000/svg"
   xmlns="http://www.w3.org/2000/svg"
   xmlns:sodipodi="http://sodipodi.sourceforge.net/DTD/sodipodi-0.dtd"
   xmlns:inkscape="http://www.inkscape.org/namespaces/inkscape"
   width="1024"
   height="1024"
   id="U8BF4"
   version="1.1"
   inkscape:version="0.48.0 r9654"
   sodipodi:docname="U+8BF4.svg">
  <metadata
     id="metadata16">
    <rdf:RDF>
      <cc:Work
         rdf:about="">
        <dc:format>image/svg+xml</dc:format>
        <dc:type
           rdf:resource="http://purl.org/dc/dcmitype/StillImage" />
      </cc:Work>
    </rdf:RDF>
  </metadata>
  <defs
     id="defs14" />
  <sodipodi:namedview
     pagecolor="#ffffff"
     bordercolor="#666666"
     borderopacity="1"
     objecttolerance="10"
     gridtolerance="10"
     guidetolerance="10"
     inkscape:pageopacity="0"
     inkscape:pageshadow="2"
     inkscape:window-width="640"
     inkscape:window-height="480"
     id="namedview12"
     showgrid="false"
     inkscape:zoom="0.27441406"
     inkscape:cx="512"
     inkscape:cy="512"
     inkscape:window-x="0"
     inkscape:window-y="25"
     inkscape:window-maximized="0"
     inkscape:current-layer="U8BF4" />
  <path
     style="fill:#782121;fill-opacity:1;fill-rule:nonzero;stroke:#f9f9f9;stroke-width:0.1;stroke-miterlimit:4;stroke-dasharray:none"
     d="M 734.1875 116.1875 C 732.97342 116.21767 731.85151 116.5365 730.875 117.1875 C 706.3298 133.8265 683.2511 152.40425 660.625 171.53125 C 640.2268 189.05325 620.2086 206.995 600.125 224.875 C 590.77397 233.18659 614.34554 265.75362 634.78125 282.03125 C 609.08744 283.052 583.43497 285.25807 557.8125 287.53125 C 534.17457 289.81202 510.51293 292.19357 486.96875 295.34375 C 506.95744 279.12514 532.24493 238.65177 521.21875 230.5625 C 517.05975 227.5475 512.9089 224.54625 508.75 221.53125 C 483.7944 201.45925 460.102 179.953 437.875 156.875 C 424.2189 144.03 363.6564 208.405 377.3125 221.25 C 402.0473 244.892 427.3568 267.823 453.9375 289.375 C 457.98393 292.3723 462.0161 295.3777 466.0625 298.375 C 455.33814 300.04492 444.65227 301.90514 434 304.03125 C 427.01203 305.71791 425.77138 319.4032 427.90625 335.375 C 407.38231 326.9919 385.04885 322.94546 381.5 331.65625 C 368.2935 366.74825 371.19265 403.56025 376.84375 439.78125 C 384.10255 478.29925 396.4998 515.56925 412.5 551.28125 C 422.4427 569.83925 416.81175 560.80675 429.46875 578.34375 C 432.58004 582.28802 439.87831 581.18985 448.625 577.25 C 452.74919 588.17693 458.08044 598.59437 463.5 605.53125 C 460.49959 628.21181 455.44182 650.67104 450.15625 672.90625 C 436.29095 725.38625 417.6861 776.44275 399.3125 827.46875 C 392.4932 847.22175 384.45315 866.551 377.84375 886.375 C 372.77895 904.504 458.2477 928.379 463.3125 910.25 C 463.9741 892.845 478.81125 873.47725 481.09375 856.28125 C 499.75815 802.21725 519.1162 748.31325 533.9375 693.03125 C 541.72994 660.92634 548.78454 628.51944 552.25 595.6875 C 563.79499 594.07053 575.39666 592.78732 586.96875 591.65625 C 593.04453 591.3855 599.1375 591.11592 605.25 590.875 C 603.31527 592.24271 602.11919 593.89772 601.90625 595.875 C 599.08755 631.088 594.85155 666.195 590.53125 701.25 C 583.34725 748.433 579.89255 795.418 588.59375 842.5 C 604.38365 896.583 633.9468 919.47775 685.5 937.21875 C 734.0332 949.68075 783.9582 944.45975 832.8125 937.21875 C 866.7299 931.58475 900.1156 923.33775 933.5625 915.46875 L 943.53125 912.75 C 961.50805 907.551 936.9768 822.8 919 828 C 916.819 828.685 914.64985 829.3775 912.46875 830.0625 C 881.80885 838.0105 851.1101 845.985 819.875 851.375 C 784.403 856.828 747.97885 861.5595 712.40625 854.1875 C 695.04435 849.2965 680.2171 843.629 674.125 825.125 C 665.2724 787.833 672.0289 749.619 676.625 712.125 C 681.231 676.561 685.56065 640.94775 689.84375 605.34375 C 690.39164 600.25609 684.20438 595.86771 674.9375 592.53125 C 677.80924 592.89397 680.67265 593.28085 683.53125 593.75 C 684.74641 593.90681 685.91614 593.65959 687.0625 593.09375 C 707.97307 599.54913 730.11176 601.55187 732.875 592.6875 C 736.5602 580.1715 739.87995 567.6035 741.90625 554.6875 C 748.72835 518.5395 755.595 482.36925 760.5625 445.90625 C 765.5977 408.50025 771.7767 369.90775 760.8125 332.96875 C 757.7814 326.93475 755.60815 320.395 751.71875 314.875 C 734.34745 290.223 705.9806 282.98875 677.5625 281.59375 C 674.17591 281.51259 670.79141 281.49079 667.40625 281.46875 C 683.74846 266.96036 700.10801 252.47255 716.78125 238.34375 C 737.01735 221.44375 757.5792 204.80575 780 190.84375 C 794.64769 181.07875 752.39864 115.73489 734.1875 116.1875 z M 234.5625 212.4375 C 213.64268 213.29221 161.80791 256.96987 172 269.84375 C 190.1814 291.84275 212.60885 309.512 235.34375 326.5 C 250.22275 337.559 302.34785 267.40275 287.46875 256.34375 C 270.82815 244.05875 254.0515 231.47925 241.375 214.90625 C 239.919 213.06713 237.55105 212.3154 234.5625 212.4375 z M 654.21875 368.71875 C 661.0037 368.71809 667.80678 368.86444 674.59375 369.1875 C 676.37036 369.33827 677.90785 369.53178 679.34375 369.71875 C 679.76064 391.38844 676.99147 412.99254 674.1875 434.46875 C 671.1119 457.79206 667.06792 480.93335 662.65625 504.03125 C 634.59041 502.78492 606.40892 503.61442 578.40625 505.53125 C 550.07564 508.37984 521.77251 512.05972 493.9375 518 C 493.47053 517.12656 492.94012 516.1085 492.09375 514.6875 C 478.69005 486.5415 469.0173 456.726 463 426.125 C 461.02037 413.87936 458.96114 401.28382 459.25 388.84375 C 494.3812 380.85606 530.35115 377.28816 566.15625 373.8125 C 595.44956 371.4205 624.81731 368.7216 654.21875 368.71875 z M 684.8125 370.625 C 692.64805 372.31452 690.63621 373.94712 684.8125 370.625 z M 121.59375 398.1875 C 103.57359 399.6691 98.176094 485.1465 116.59375 486.375 C 144.15883 487.86075 171.69022 490.52592 198.8125 495.71875 C 200.65395 496.31061 218.22979 501.61886 215.15625 502.8125 C 211.42205 504.2655 210.64245 497.7485 208.78125 502.8125 C 208.39205 537.9415 202.7364 572.80175 198.3125 607.59375 C 191.7693 656.72975 186.2205 705.98275 183.25 755.46875 C 181.2492 789.70575 183.8765 823.80425 193.3125 856.78125 C 196.6745 869.24925 203.584 878.66375 211.4375 888.59375 C 223.91098 901.63099 283.34661 845.81151 276.78125 829.1875 C 276.9747 829.50764 277.11379 829.82169 277.3125 830.15625 C 269.7108 807.74904 269.34092 783.76005 269.9375 760.3125 C 272.3945 712.9195 277.69555 665.79025 284.15625 618.78125 C 289.98205 575.12225 298.42035 531.055 295.15625 486.875 C 293.42615 479.56 292.66325 471.9555 289.96875 464.9375 C 277.35325 432.0835 247.77685 416.17925 215.03125 409.65625 C 184.39285 404.19725 153.44565 401.0665 122.46875 398.1875 C 122.17641 398.16802 121.87978 398.16398 121.59375 398.1875 z M 277.3125 830.15625 C 277.40829 830.43859 277.49565 830.71816 277.59375 831 C 278.06945 831.877 278.40425 832.849 279.03125 833.625 C 280.05754 834.89454 278.69819 832.48927 277.3125 830.15625 z "
     id="path11148" />
</svg>
