<?xml version="1.0" encoding="UTF-8" standalone="no"?>
<svg
   xmlns:dc="http://purl.org/dc/elements/1.1/"
   xmlns:cc="http://creativecommons.org/ns#"
   xmlns:rdf="http://www.w3.org/1999/02/22-rdf-syntax-ns#"
   xmlns:svg="http://www.w3.org/2000/svg"
   xmlns="http://www.w3.org/2000/svg"
   xmlns:sodipodi="http://sodipodi.sourceforge.net/DTD/sodipodi-0.dtd"
   xmlns:inkscape="http://www.inkscape.org/namespaces/inkscape"
   width="1024"
   height="1024"
   id="U8BA8"
   version="1.1"
   inkscape:version="0.48.0 r9654"
   sodipodi:docname="U+8BA8.svg">
  <metadata
     id="metadata12">
    <rdf:RDF>
      <cc:Work
         rdf:about="">
        <dc:format>image/svg+xml</dc:format>
        <dc:type
           rdf:resource="http://purl.org/dc/dcmitype/StillImage" />
      </cc:Work>
    </rdf:RDF>
  </metadata>
  <defs
     id="defs10" />
  <sodipodi:namedview
     pagecolor="#ffffff"
     bordercolor="#666666"
     borderopacity="1"
     objecttolerance="10"
     gridtolerance="10"
     guidetolerance="10"
     inkscape:pageopacity="0"
     inkscape:pageshadow="2"
     inkscape:window-width="640"
     inkscape:window-height="480"
     id="namedview8"
     showgrid="false"
     inkscape:zoom="0.27441406"
     inkscape:cx="512"
     inkscape:cy="512"
     inkscape:window-x="0"
     inkscape:window-y="25"
     inkscape:window-maximized="0"
     inkscape:current-layer="U8BA8" />
  <path
     style="fill:#782121;fill-opacity:1;fill-rule:nonzero;stroke:#f9f9f9;stroke-width:0.1;stroke-miterlimit:4;stroke-dasharray:none"
     d="M 642.625 178.09375 C 617.58164 178.33629 567.8418 199.66172 572.8125 213.46875 C 586.111 247.56775 592.3976 283.78175 598.375 319.71875 C 600.26913 332.58184 601.96246 345.47226 603.5 358.375 C 575.52688 361.63066 547.57102 365.03609 519.625 368.53125 C 481.2089 372.65725 441.59645 378.65375 403.15625 371.84375 C 385.19635 366.41075 359.57125 451.09825 377.53125 456.53125 C 427.56085 467.12425 479.0437 459.62625 529.1875 453.78125 C 556.62662 450.10456 584.09736 446.68065 611.59375 443.5 C 614.06961 476.64047 615.93277 509.82422 617.65625 543 C 620.99015 607.63 622.5713 672.356 619.125 737 C 616.7544 775.803 611.35575 814.48175 596.21875 850.46875 C 586.69565 870.06475 571.72375 886.02375 557.34375 902.09375 C 544.99115 915.95475 610.3349 974.1735 622.6875 960.3125 C 643.7272 936.6155 664.5799 912.4305 677.1875 882.9375 C 694.8344 837.5345 703.25025 789.8765 705.21875 741.1875 C 708.21865 673.6195 706.33175 606.04525 702.53125 538.53125 C 700.66153 503.8915 698.70953 469.23389 696.1875 434.625 C 704.8615 433.81564 713.53801 433.02529 722.21875 432.28125 C 740.07235 430.49125 757.97485 429.60125 775.90625 429.53125 C 794.48585 429.06325 792.2671 341.4695 773.6875 341.9375 C 753.8401 342.7695 734.02655 344.111 714.28125 346.375 C 705.69772 347.22273 697.11031 348.11226 688.53125 349 C 686.97112 334.6993 685.26154 320.41963 683.34375 306.15625 C 676.99125 264.71125 669.8546 223.262 656.125 183.5 C 654.73318 179.63403 649.63714 178.02584 642.625 178.09375 z M 210.59375 197.3125 C 184.7505 197.19091 137.76618 213.88275 141.53125 227.4375 C 148.42065 251.6645 158.1937 274.8375 168.9375 297.5625 C 176.9248 314.3365 255.9873 276.68025 248 259.90625 C 239.3167 241.83425 231.35525 223.36925 226.71875 203.78125 C 225.46375 199.263 219.20817 197.35303 210.59375 197.3125 z M 132.125 387.1875 C 125.49937 387.17853 118.86335 387.272 112.21875 387.40625 C 93.45635 387.55625 94.1751 475.99375 112.9375 475.84375 C 134.7831 474.97275 156.6861 474.06 178.3125 477.75 C 188.229 479.488 191.3643 482.9305 194.3125 491.4375 C 203.2239 519.4535 203.26415 549.35875 203.96875 578.46875 C 203.95695 625.02375 203.32015 671.5445 205.53125 718.0625 C 207.37415 753.1945 213.09715 787.87875 222.59375 821.71875 C 225.48245 833.22475 230.87465 843.434 236.71875 853.625 C 246.71065 869.512 321.6169 822.41925 311.625 806.53125 C 310.33 804.71925 307.059 800.15625 307 797.03125 C 298.6325 769.93925 294.0681 741.96025 292.3125 713.65625 C 289.8339 667.98425 290.6268 622.31375 290.75 576.59375 C 289.9149 533.98975 289.35695 490.1945 272.09375 450.4375 C 252.95875 416.7585 230.3412 397.92 191.5625 390.875 C 171.8042 388.07075 152.00188 387.21441 132.125 387.1875 z M 403.90625 574.15625 C 386.10706 574.39106 363.55485 654.22147 381 659.28125 C 413.9835 669.30625 445.3378 684.00325 476.875 697.78125 C 498.767 707.18125 520.25195 717.4905 541.65625 727.9375 C 558.16255 735.9835 596.10015 658.171 579.59375 650.125 C 557.17945 639.211 534.69975 628.4075 511.84375 618.4375 C 476.82425 602.8795 441.9972 586.61425 405.625 574.40625 C 405.06225 574.243 404.48042 574.14868 403.90625 574.15625 z "
     id="path11862" />
</svg>
