<?xml version="1.0" encoding="UTF-8" standalone="no"?>
<svg
   xmlns:dc="http://purl.org/dc/elements/1.1/"
   xmlns:cc="http://creativecommons.org/ns#"
   xmlns:rdf="http://www.w3.org/1999/02/22-rdf-syntax-ns#"
   xmlns:svg="http://www.w3.org/2000/svg"
   xmlns="http://www.w3.org/2000/svg"
   xmlns:sodipodi="http://sodipodi.sourceforge.net/DTD/sodipodi-0.dtd"
   xmlns:inkscape="http://www.inkscape.org/namespaces/inkscape"
   width="1024"
   height="1024"
   id="U8BDD"
   version="1.1"
   inkscape:version="0.48.0 r9654"
   sodipodi:docname="U+8BDD.svg">
  <metadata
     id="metadata15">
    <rdf:RDF>
      <cc:Work
         rdf:about="">
        <dc:format>image/svg+xml</dc:format>
        <dc:type
           rdf:resource="http://purl.org/dc/dcmitype/StillImage" />
      </cc:Work>
    </rdf:RDF>
  </metadata>
  <defs
     id="defs13" />
  <sodipodi:namedview
     pagecolor="#ffffff"
     bordercolor="#666666"
     borderopacity="1"
     objecttolerance="10"
     gridtolerance="10"
     guidetolerance="10"
     inkscape:pageopacity="0"
     inkscape:pageshadow="2"
     inkscape:window-width="640"
     inkscape:window-height="480"
     id="namedview11"
     showgrid="false"
     inkscape:zoom="0.27441406"
     inkscape:cx="512"
     inkscape:cy="512"
     inkscape:window-x="0"
     inkscape:window-y="25"
     inkscape:window-maximized="0"
     inkscape:current-layer="U8BDD" />
  <path
     style="fill:#550000;fill-opacity:1;fill-rule:nonzero;stroke:#f9f9f9;stroke-width:0.1;stroke-miterlimit:4;stroke-dasharray:none"
     d="M 631.59375 184.5625 C 629.09697 184.63203 627.11026 185.38541 625.8125 187 C 602.2145 217.73 578.94875 248.71125 555.96875 279.90625 C 535.97135 307.22425 545.93925 293.6565 525.96875 320.6875 C 516.64859 333.30469 565.54088 372.42418 587.5 375.15625 C 588.16643 389.23044 588.5768 403.32941 588.75 417.4375 C 588.69735 443.85785 587.63169 470.22059 586.25 496.59375 C 540.68392 504.30057 495.11357 512.04402 449.40625 518.875 C 432.11632 521.59988 414.86853 524.57738 397.59375 527.40625 C 398.57451 506.3718 398.50584 484.53263 393.59375 468.6875 C 391.16545 460.8545 386.9125 453.70375 383.5625 446.21875 C 377.1321 440.21575 371.60095 433.09775 364.28125 428.21875 C 340.61675 412.44575 309.2544 418.94875 283.125 421.21875 C 255.2416 424.46875 227.15805 427.89375 199.03125 426.59375 C 180.10655 425.51675 175.04405 514.7355 193.96875 515.8125 C 227.16955 516.3335 260.22015 512.6375 293.15625 508.9375 C 298.26006 508.77302 303.43762 508.04882 308.625 507.4375 C 308.64446 508.05178 308.67302 508.66687 308.6875 509.28125 C 308.6373 514.32425 308.61325 519.36425 308.53125 524.40625 C 308.32475 537.06325 307.92505 552.03475 307.59375 564.59375 C 306.29655 615.64675 306.2132 666.72425 307.1875 717.78125 C 307.9832 763.22525 311.51895 808.56375 315.21875 853.84375 C 317.04905 876.24475 319.5136 898.5825 324.875 920.4375 C 337.6668 960.2215 363.7335 971.00625 403.625 949.78125 C 408.2023 947.34525 410.3249 941.8845 413.6875 937.9375 C 420.8703 924.6065 428.05755 911.278 435.34375 898 C 439.16363 890.90751 442.82515 883.74629 446.46875 876.5625 C 451.79281 892.8146 458.83392 908.40573 467.6875 923.15625 C 471.01889 928.39156 481.35093 926.71327 493.375 921.59375 C 491.93374 948.07497 498.88458 983.99219 510.9375 983.125 C 552.9841 978.837 594.98275 973.86925 636.96875 969.03125 C 681.26135 963.51425 725.71445 960.24575 770.34375 960.09375 C 784.65465 960.13275 798.9567 960.61925 813.25 961.28125 C 821.50661 961.49405 826.60677 944.64675 828.15625 925.53125 C 832.81458 924.40085 835.94783 922.36461 836.65625 919.21875 C 839.31765 905.90275 840.9549 892.619 840.8125 879 C 842.4595 850.435 846.6076 822.0765 850.9375 793.8125 C 855.5596 762.8075 860.43245 731.53175 857.84375 700.09375 C 854.69785 672.84575 847.45275 647.865 824.09375 630.875 C 797.25795 616.557 771.8629 614.64225 741.75 616.15625 C 717.04168 616.98607 692.37515 618.57418 667.78125 620.96875 C 667.6794 612.24982 667.81013 603.50885 668.15625 594.78125 C 668.46111 586.9034 668.8037 579.03071 669.1875 571.15625 C 704.47455 565.71233 739.83529 560.80754 775.28125 556.5 C 797.60495 553.643 820.0514 551.796 842.5625 552.125 C 850.759 552.818 858.80155 552.41575 866.96875 551.59375 C 885.13783 548.83716 873.22331 466.01511 855.4375 462.9375 C 855.44038 462.93738 855.40382 462.93762 855.40625 462.9375 C 853.27233 462.96803 843.04506 463.02471 842.59375 462.90625 C 816.31025 463.19225 790.1407 465.51225 764.125 469.28125 C 734.03178 473.33158 703.97762 477.6893 673.96875 482.3125 C 675.02622 460.48132 675.84929 438.64643 676.0625 416.78125 C 675.9433 378.47425 674.4291 340.24975 670.9375 302.09375 C 670.65302 297.33918 664.82326 294.11151 656.25 292.25 C 669.01384 275.59303 681.96643 259.08189 695.375 242.9375 C 705.94235 229.79009 651.92467 183.99632 631.59375 184.5625 z M 855.40625 462.9375 C 854.7877 462.83367 854.1629 462.81038 853.53125 462.90625 C 855.44407 462.90208 855.55219 462.93038 855.40625 462.9375 z M 254.875 224.375 C 229.58272 224.60209 179.30203 246.08281 184.3125 260.03125 C 195.106 288.00325 212.99115 312.00175 231.84375 334.96875 C 242.89995 348.14375 237.7347 341.78425 247.4375 354.03125 C 259.1994 368.73125 328.48065 313.29475 316.71875 298.59375 C 305.68825 284.91975 311.21075 291.57675 300.21875 278.59375 C 287.80765 263.63575 275.21805 248.3065 268.46875 229.8125 C 267.0658 225.90694 261.95684 224.31142 254.875 224.375 z M 321.375 506.625 C 323.34027 506.67458 325.29836 506.81589 327.25 507.125 C 327.9253 507.232 329.71145 508.1175 329.03125 508.1875 C 325.96252 508.50154 323.59159 507.80538 321.375 506.625 z M 581.28125 585.75 C 581.19401 587.51132 581.08344 589.2698 581 591.03125 C 580.27025 605.05315 580.05383 619.07881 580.28125 633.09375 C 550.67619 638.24442 521.2255 644.27926 492.375 652.8125 C 474.3509 658.6705 501.9759 743.63925 520 737.78125 C 552.9939 726.65625 587.3627 720.657 621.625 715 C 662.1507 708.508 703.07975 705.131 744.09375 704.375 C 752.25175 704.62324 760.51497 704.34736 768.6875 704.96875 C 768.8566 706.27319 769.04001 707.82766 769.25 709.90625 C 770.9311 733.73625 767.0329 757.46375 763.625 780.96875 C 758.99534 811.33071 754.60058 841.74369 752.25 872.375 C 710.40947 873.73242 668.70415 877.17439 627.125 882.25 C 597.09061 885.59331 567.05036 889.0888 536.9375 891.6875 C 542.70326 885.21446 545.50436 879.23477 542.96875 875.25 C 534.27475 864.07 531.0429 849.5355 526.875 836.3125 C 521.2433 812.7215 516.35945 788.623 516.78125 764.25 C 518.55615 745.372 429.55615 736.997 427.78125 755.875 C 426.88364 788.82146 432.86498 821.38009 440.125 853.375 C 430.52242 845.14208 415.4834 836.75029 401.71875 831.5625 C 398.17516 793.14767 395.19789 754.68166 394.5 716.09375 C 393.85134 683.29514 393.73003 650.48798 394.1875 617.6875 C 417.27151 613.58326 440.34012 609.39246 463.46875 605.53125 C 502.79408 599.271 542.03858 592.50373 581.28125 585.75 z M 775.09375 705.65625 C 775.57498 705.7276 776.05105 705.79419 776.53125 705.875 C 778.88995 706.272 784.1794 708.6475 776.5625 706.5625 C 776.03683 706.2558 775.55876 705.95385 775.09375 705.65625 z "
     id="path8045" />
</svg>
