<?xml version="1.0" encoding="utf-8" ?>

<!DOCTYPE svg PUBLIC "-//W3C//DTD SVG 1.1//EN" 
  "http://www.w3.org/Graphics/SVG/1.1/DTD/svg11.dtd">
<svg 
    xmlns="http://www.w3.org/2000/svg"
    xmlns:xlink="http://www.w3.org/1999/xlink"
    xmlns:sodipodi="http://sodipodi.sourceforge.net/DTD/sodipodi-0.dtd"
    xmlns:inkscape="http://www.inkscape.org/namespaces/inkscape"
    width="1024" height="1024" id="U8BEF">
<path d="m 9407.7012,52479.72 c 21.0089,20.69 45.3184,37.588 68.8116,55.27 5.0378,4.064 10.0755,8.129 15.1133,12.193 14.3663,11.672 -40.6567,79.396 -55.023,67.724 l 0,0 c -4.1755,-3.421 -8.351,-6.843 -12.5265,-10.264 -26.4867,-19.944 -53.691,-39.072 -78.166,-61.527 -13.4482,-13.108 48.3424,-76.503 61.7906,-63.396 z" id="path13140" inkscape:connector-curvature="0" style="fill:#501616;fill-opacity:1;fill-rule:nonzero;stroke:#f9f9f9;stroke-width:0.1;stroke-miterlimit:4;stroke-dasharray:none" transform="translate(-9216, -52224)"/><path d="m 9301.8354,52689.524 c 24.3178,-15.464 51.1152,-24.658 79.4136,-29.136 42.9799,-2.714 67.6772,11.311 92.0525,45.865 19.4369,37.029 15.9658,78.74 13.5638,119.064 -3.5809,46.14 -7.6319,92.23 -8.4631,138.518 -0.9871,30.733 5.6056,60.357 14.8254,89.409 7.1278,20.14 14.3244,40.446 25.2497,58.888 1.8651,2.557 3.4374,5.568 6.7234,6.215 14.7591,11.508 -39.4888,81.082 -54.2479,69.575 l 0,0 c -11.2854,-9.529 -21.9273,-19.05 -29.0499,-32.296 -13.4428,-24.245 -23.6482,-50.003 -32.2487,-76.344 -11.7104,-38.146 -19.5155,-77.178 -18.0286,-117.341 1.1953,-47.245 5.1129,-94.313 8.4162,-141.446 1.1307,-22.175 2.8256,-44.607 -0.8068,-66.65 -0.573,-4.623 1.811,-6.349 -5.998,-6.309 -15.1873,1.235 -29.315,7.427 -42.1069,15.526 -15.5998,10.457 -64.8944,-63.081 -49.2947,-73.538 z" id="path13144" inkscape:connector-curvature="0" style="fill:#501616;fill-opacity:1;fill-rule:nonzero;stroke:#f9f9f9;stroke-width:0.1;stroke-miterlimit:4;stroke-dasharray:none" transform="translate(-9216, -52224)"/><path d="m 9657.052,52459.96 c 0.3562,35.366 4.5541,70.555 9.8404,105.479 5.6882,23.716 7.3061,50.667 20.2699,72.018 8.3986,16.707 -70.3572,56.298 -78.7558,39.591 l 0,0 c -14.6427,-31.17 -22.0806,-64.864 -27.485,-98.767 -5.7611,-39.037 -10.2684,-78.269 -12.2275,-117.699 -0.132,-18.743 88.226,-19.366 88.358,-0.622 z" id="path13146" inkscape:connector-curvature="0" style="fill:#501616;fill-opacity:1;fill-rule:nonzero;stroke:#f9f9f9;stroke-width:0.1;stroke-miterlimit:4;stroke-dasharray:none" transform="translate(-9216, -52224)"/><path d="m 9664.7323,52391.236 c 31.2052,-7.39 62.8567,-12.142 94.7463,-15.254 37.2305,-3.043 74.5912,-2.094 111.5086,3.465 30.0011,5.812 57.2644,20.956 69.1651,50.672 2.4088,6.014 3.2147,12.553 4.822,18.83 3.0988,32.846 -6.7048,64.785 -14.5847,96.304 -8.1557,33.201 -16.1447,66.435 -25.1589,99.415 -5.9035,21.481 -12.3054,42.81 -20.611,63.489 -7.1801,17.265 -88.5639,-16.583 -81.3838,-33.847 l 0,0 c 7.507,-17.051 12.4218,-35.081 17.6947,-52.913 8.9704,-32.157 16.7855,-64.605 24.5649,-97.069 4.7354,-19.501 9.5456,-39.063 12.8747,-58.829 9.491,7.34 12.8339,5.208 -1.3582,0.554 -29.3862,-5.207 -59.3158,-5.52 -89.0431,-3.305 -27.5851,2.709 -55.0268,6.879 -81.7616,14.388 -18.2222,4.555 -39.6972,-81.345 -21.475,-85.9 z" id="path13148" inkscape:connector-curvature="0" style="fill:#501616;fill-opacity:1;fill-rule:nonzero;stroke:#f9f9f9;stroke-width:0.1;stroke-miterlimit:4;stroke-dasharray:none" transform="translate(-9216, -52224)"/><path d="m 9631.9998,52641.355 c 39.1898,-6.748 78.7149,-11.282 118.2029,-15.864 33.879,-4.587 67.7613,-7.901 101.9351,-6.191 18.5385,1.229 12.7456,88.62 -5.7928,87.391 l 0,0 c -28.7947,-2.717 -57.5095,1.855 -86.1133,4.967 -36.9806,4.318 -74.1048,8.42 -110.5364,16.279 -18.3668,3.754 -36.0623,-82.828 -17.6955,-86.582 z" id="path13152" inkscape:connector-curvature="0" style="fill:#501616;fill-opacity:1;fill-rule:nonzero;stroke:#f9f9f9;stroke-width:0.1;stroke-miterlimit:4;stroke-dasharray:none" transform="translate(-9216, -52224)"/><path d="m 9615.7914,52785.932 c 42.767,-3.359 85.4042,-8.045 128.0154,-12.954 50.4868,-6.113 101.0902,-11.167 151.8092,-14.879 21.8654,-2.406 43.0329,-1.366 64.3475,3.615 17.9511,5.385 -7.4299,90.007 -25.381,84.623 l 0,0 c 2.9841,-1.487 2.774,-1.076 -5.1523,-1.648 -9.5245,-0.687 -18.4778,-0.09 -28.0618,0.214 -49.3071,2.906 -98.4741,7.649 -147.4842,13.794 -42.6356,5.112 -85.3218,9.789 -127.9456,14.979 -18.6133,2.152 -28.7605,-85.592 -10.1472,-87.744 z" id="path13154" inkscape:connector-curvature="0" style="fill:#501616;fill-opacity:1;fill-rule:nonzero;stroke:#f9f9f9;stroke-width:0.1;stroke-miterlimit:4;stroke-dasharray:none" transform="translate(-9216, -52224)"/><path d="m 9500.7537,52983.27 c 48.3005,-12.185 96.7736,-23.558 145.5476,-33.688 69.6632,-14.665 140.4347,-21.885 211.505,-23.977 53.9555,-1.351 107.3309,6.02 159.9927,16.983 12.83,2.776 25.567,5.939 38.375,8.806 18.164,4.392 -2.539,90.017 -20.702,85.626 l 0,0 c -12.036,-3.113 -24.031,-6.38 -36.1289,-9.245 -45.7548,-10.354 -92.2026,-17.367 -139.2784,-16.494 -65.9173,1.513 -131.5394,8.287 -196.0725,22.219 -47.2108,10.107 -94.2132,21.242 -140.4894,35.08 -18.0968,4.825 -40.846,-80.484 -22.7491,-85.31 z" id="path13156" inkscape:connector-curvature="0" style="fill:#501616;fill-opacity:1;fill-rule:nonzero;stroke:#f9f9f9;stroke-width:0.1;stroke-miterlimit:4;stroke-dasharray:none" transform="translate(-9216, -52224)"/><path d="m 9890.6833,52829.913 c -19.9174,33.311 -35.834,68.811 -51.918,104.071 -25.0614,56.171 -50.6013,112.119 -77.0465,167.652 -16.3642,34.373 -33.9604,68.088 -56.5751,98.767 -11.2955,14.759 -80.8711,-38.488 -69.5757,-53.248 l 0,0 c 20.2816,-24.928 33.9765,-54.257 48.5511,-82.706 26.4278,-54.793 51.6978,-110.122 76.0046,-165.889 16.9682,-38.133 33.9983,-76.3 54.0434,-112.946 9.3972,-16.231 85.9134,28.067 76.5162,44.299 z" id="path13158" inkscape:connector-curvature="0" style="fill:#501616;fill-opacity:1;fill-rule:nonzero;stroke:#f9f9f9;stroke-width:0.1;stroke-miterlimit:4;stroke-dasharray:none" transform="translate(-9216, -52224)"/><path d="m 9827.2318,53020.829 c 16.6747,16.772 37.887,25.758 59.9409,33.054 45.996,11.502 92.3341,21.186 137.9053,34.385 29.059,8.263 56.452,20.666 82.998,34.875 16.239,8.936 -25.884,85.49 -42.123,76.554 l 0,0 c -20.647,-11.801 -42.224,-21.661 -65.126,-28.345 -46.6506,-13.734 -94.319,-22.777 -141.3742,-34.899 -33.61,-11.393 -65.6539,-25.901 -91.9975,-50.341 -13.8485,-12.681 45.9281,-77.963 59.7765,-65.283 z" id="path13160" inkscape:connector-curvature="0" style="fill:#501616;fill-opacity:1;fill-rule:nonzero;stroke:#f9f9f9;stroke-width:0.1;stroke-miterlimit:4;stroke-dasharray:none" transform="translate(-9216, -52224)"/></svg>