<?xml version="1.0" encoding="UTF-8" standalone="no"?>
<svg
   xmlns:dc="http://purl.org/dc/elements/1.1/"
   xmlns:cc="http://creativecommons.org/ns#"
   xmlns:rdf="http://www.w3.org/1999/02/22-rdf-syntax-ns#"
   xmlns:svg="http://www.w3.org/2000/svg"
   xmlns="http://www.w3.org/2000/svg"
   xmlns:sodipodi="http://sodipodi.sourceforge.net/DTD/sodipodi-0.dtd"
   xmlns:inkscape="http://www.inkscape.org/namespaces/inkscape"
   width="1024"
   height="1024"
   id="U8BC4"
   version="1.1"
   inkscape:version="0.48.0 r9654"
   sodipodi:docname="U+8BC4.svg">
  <metadata
     id="metadata14">
    <rdf:RDF>
      <cc:Work
         rdf:about="">
        <dc:format>image/svg+xml</dc:format>
        <dc:type
           rdf:resource="http://purl.org/dc/dcmitype/StillImage" />
      </cc:Work>
    </rdf:RDF>
  </metadata>
  <defs
     id="defs12" />
  <sodipodi:namedview
     pagecolor="#ffffff"
     bordercolor="#666666"
     borderopacity="1"
     objecttolerance="10"
     gridtolerance="10"
     guidetolerance="10"
     inkscape:pageopacity="0"
     inkscape:pageshadow="2"
     inkscape:window-width="640"
     inkscape:window-height="480"
     id="namedview10"
     showgrid="false"
     inkscape:zoom="0.27441406"
     inkscape:cx="512"
     inkscape:cy="512"
     inkscape:window-x="0"
     inkscape:window-y="25"
     inkscape:window-maximized="0"
     inkscape:current-layer="U8BC4" />
  <path
     style="fill:#c83737;fill-opacity:1;fill-rule:nonzero;stroke:#f9f9f9;stroke-width:0.1;stroke-miterlimit:4;stroke-dasharray:none"
     d="M 736.78125 198.53125 C 734.58825 198.76225 732.3805 198.98675 730.1875 199.21875 C 704.3484 203.50675 678.33865 206.53025 652.59375 211.40625 C 601.75885 221.27125 551.29305 233.1505 501.71875 248.1875 C 462.42015 260.8795 422.83855 274.28 387.78125 296.625 C 376.09631 304.91742 403.15608 348.88935 423.4375 364.4375 C 405.22211 380.81017 388.7363 403.79902 396.1875 411.25 C 422.5832 437.231 450.691 461.2405 480.125 483.6875 C 498.5002 497.8665 518.4853 509.46 538.6875 520.75 C 545.09985 524.28834 555.59858 514.42925 564.90625 500.6875 C 565.67381 516.00655 566.39389 531.33389 567.09375 546.65625 C 538.8512 552.74028 510.75812 559.58519 482.9375 567.5 C 444.34353 578.75002 405.26223 590.10939 369.1875 608.09375 C 369.12848 585.8548 368.63639 563.62716 367.4375 541.40625 C 365.8385 511.54025 367.369 473.55175 350.5625 447.21875 C 346.2022 440.38675 340.0569 434.8665 334.8125 428.6875 C 328.3521 425.0995 322.3224 420.6215 315.4375 417.9375 C 289.4617 407.8095 260.36125 416.77425 234.59375 422.28125 C 202.69255 430.36725 171.0839 439.537 139.25 447.875 C 121.1705 452.831 144.51415 538.08 162.59375 533.125 C 193.42375 523.589 224.4856 514.749 255.8125 507 C 257.49683 506.48571 267.11731 504.33098 276.21875 502.8125 C 276.76262 506.04108 277.53285 509.25407 277.875 512.5 C 279.4176 527.132 279.5489 531.2035 280.5625 546.5625 C 283.9504 597.2725 282.8258 648.114 281.625 698.875 C 280.4368 743.041 278.62525 787.19175 277.03125 831.34375 C 276.65045 851.81575 274.7704 872.23075 277.375 892.59375 C 283.3391 911.31375 279.14665 902.163 290.46875 919.875 C 301.9214 933.89465 365.87506 882.52612 360.1875 865.59375 C 364.23798 873.09684 363.07975 869.674 364.78125 878.1875 C 362.19765 865.6815 365.62065 847.739 364.40625 833.75 C 365.24265 789.454 366.6949 745.164 367.8125 700.875 C 368.09854 688.33929 368.41912 675.82141 368.65625 663.28125 C 380.59135 680.59755 395.53786 694.80015 403 689.875 C 435.3635 671.195 471.76795 660.7395 507.34375 650.0625 C 528.35655 643.93661 549.53424 638.5197 570.84375 633.65625 C 571.57451 651.45302 572.3075 669.23457 573.03125 687.03125 C 575.26585 753.92525 578.8235 820.75025 583.25 887.53125 C 585.0668 910.95325 584.10165 899.897 586.09375 920.75 C 588.14255 939.234 675.26755 929.57675 673.21875 911.09375 C 670.82695 892.45175 672.03085 902.513 669.78125 880.875 C 664.00475 815.207 659.79025 749.41825 657.46875 683.53125 C 656.53377 661.3595 655.62166 639.20423 654.71875 617.03125 C 665.78938 615.1089 676.87544 613.24739 687.96875 611.46875 C 739.85965 603.11975 792.11585 597.52625 844.53125 593.90625 C 871.36235 591.93825 898.26 591.0365 925.0625 588.6875 C 927.8972 588.2295 930.7278 587.7695 933.5625 587.3125 C 952.0068 583.6655 934.8193 496.728 916.375 500.375 L 915.875 500.78125 C 890.057 504.07325 863.9674 504.95875 838.0625 507.34375 C 783.2389 511.73175 728.58915 517.93075 674.28125 526.71875 C 666.57601 527.97385 658.88293 529.24591 651.1875 530.5625 C 650.06369 503.50296 648.90671 476.43046 647.6875 449.375 C 664.06912 469.01019 691.90191 489.47776 699.84375 481.09375 C 724.37525 455.42375 748.4783 428.96475 776.25 406.71875 C 790.8268 394.91075 735.17065 326.193 720.59375 338 C 693.95164 360.85262 669.90751 386.49243 645.9375 412.09375 C 644.10137 376.1206 642.05339 339.89347 646.0625 304.09375 C 646.20272 303.0947 646.07255 302.11516 645.71875 301.15625 C 653.36235 299.63225 661.02057 298.15192 668.6875 296.75 C 693.1979 292.627 717.882 289.73275 742.5625 286.84375 C 742.5805 286.92875 742.607 287.045 742.625 287.125 C 761.4136 285.885 755.56995 197.29025 736.78125 198.53125 z M 248.84375 227.8125 C 227.89497 228.04541 174.7513 270.1645 184.5625 283.34375 C 203.3196 305.96875 225.44295 325.42325 246.65625 345.65625 L 255.53125 354.625 C 268.66375 367.795 330.72625 305.88975 317.59375 292.71875 C 314.06405 289.20075 310.5298 285.67525 307 282.15625 C 289.3721 265.44525 270.8539 249.463 255.5625 230.5 C 254.1609 228.61725 251.83643 227.77923 248.84375 227.8125 z M 556.84375 322.15625 C 556.05895 359.3173 559.10741 396.56645 561.28125 433.625 C 551.46881 427.80751 541.92628 421.5894 532.84375 414.59375 C 508.67418 396.13819 485.48104 376.47544 464.3125 354.625 C 484.92217 344.74442 506.88523 337.56569 528.53125 330.4375 C 537.93677 327.54305 547.36575 324.78654 556.84375 322.15625 z M 289.53125 501.28125 C 291.6445 501.25132 293.07848 501.45638 293.4375 502.03125 C 294.55265 503.81641 291.69375 502.9701 286.4375 501.4375 C 287.55494 501.34249 288.63043 501.29401 289.53125 501.28125 z "
     id="path10561" />
</svg>
