<?xml version="1.0" encoding="UTF-8" standalone="no"?>
<svg
   xmlns:dc="http://purl.org/dc/elements/1.1/"
   xmlns:cc="http://creativecommons.org/ns#"
   xmlns:rdf="http://www.w3.org/1999/02/22-rdf-syntax-ns#"
   xmlns:svg="http://www.w3.org/2000/svg"
   xmlns="http://www.w3.org/2000/svg"
   xmlns:sodipodi="http://sodipodi.sourceforge.net/DTD/sodipodi-0.dtd"
   xmlns:inkscape="http://www.inkscape.org/namespaces/inkscape"
   width="1024"
   height="1024"
   id="U8BB0"
   version="1.1"
   inkscape:version="0.48.0 r9654"
   sodipodi:docname="U+8BB0.svg">
  <metadata
     id="metadata12">
    <rdf:RDF>
      <cc:Work
         rdf:about="">
        <dc:format>image/svg+xml</dc:format>
        <dc:type
           rdf:resource="http://purl.org/dc/dcmitype/StillImage" />
      </cc:Work>
    </rdf:RDF>
  </metadata>
  <defs
     id="defs10" />
  <sodipodi:namedview
     pagecolor="#ffffff"
     bordercolor="#666666"
     borderopacity="1"
     objecttolerance="10"
     gridtolerance="10"
     guidetolerance="10"
     inkscape:pageopacity="0"
     inkscape:pageshadow="2"
     inkscape:window-width="640"
     inkscape:window-height="480"
     id="namedview8"
     showgrid="false"
     inkscape:zoom="0.27441406"
     inkscape:cx="512"
     inkscape:cy="512"
     inkscape:window-x="0"
     inkscape:window-y="25"
     inkscape:window-maximized="0"
     inkscape:current-layer="U8BB0" />
  <path
     style="fill:#550000;fill-opacity:1;fill-rule:nonzero;stroke:#f9f9f9;stroke-width:0.1;stroke-miterlimit:4;stroke-dasharray:none"
     d="M 257.0625 222.09375 C 234.3419 222.52971 180.52077 256.55778 188.53125 270.40625 C 201.25835 292.34925 215.40155 313.361 230.46875 333.75 C 238.91485 345.228 234.951 339.666 242.375 350.375 C 253.2147 365.816 325.99585 314.72225 315.15625 299.28125 C 306.27795 286.76025 310.7627 292.926 301.6875 280.75 C 288.5311 263.198 276.13345 245.10625 265.90625 225.65625 C 264.42283 223.09172 261.27002 222.01302 257.0625 222.09375 z M 449.03125 223.6875 C 430.80462 224.89389 423.97799 311.15089 442.5625 312.6875 C 472.8823 314.3365 503.17545 316.4645 533.40625 319.3125 C 558.98825 321.8755 584.4941 325.3675 609.375 331.9375 C 613.5264 333.24359 619.34058 335.01876 624.59375 336.96875 C 624.48026 337.72269 624.38129 338.50309 624.25 339.4375 C 620.2079 364.9775 613.89555 390.10125 607.59375 415.15625 C 602.54269 434.15875 597.79114 453.24136 593.5625 472.4375 C 566.27178 472.27133 538.97959 473.55289 511.71875 474.6875 C 478.76465 476.4245 445.6951 479.01525 412.6875 477.53125 C 396.27201 476.65933 390.53458 543.60734 401.625 562.125 C 398.51422 577.29861 395.50214 592.48531 392.53125 607.6875 C 385.21945 644.0715 380.133 680.8265 377.25 717.8125 C 374.5082 753.0845 379.44945 787.587 390.53125 821 C 404.52525 858.283 432.53785 882.013 467.21875 899.25 C 506.23925 915.678 548.487 915.944 590.0625 914.875 C 637.1713 913.209 683.9065 907.08925 730.1875 898.40625 C 766.0081 891.24325 801.15595 881.2645 835.34375 868.4375 C 857.58085 860.0825 878.04435 848.3485 896.65625 833.6875 C 918.06635 815.9015 930.50095 793.08875 936.71875 766.34375 C 937.81285 744.95075 938.1964 755.647 935.5 734.25 C 932.4236 715.597 844.486 730.12825 847.5625 748.78125 C 848.22485 749.58224 848.44809 749.86651 848.59375 750.0625 C 848.28645 749.65137 847.8602 748.9905 849.03125 749.8125 C 850.63965 754.8365 843.8873 760.56225 840.6875 764.28125 C 829.6928 773.61325 816.80535 780.08275 803.53125 785.59375 C 774.46165 797.09075 744.39565 805.86875 713.78125 812.21875 C 672.22635 820.23175 630.2196 825.657 587.875 827 C 560.2263 827.649 531.7999 828.51 505.3125 819.25 C 491.7486 813.465 480.29235 806.0445 474.28125 791.9375 C 466.10885 770.3565 464.11405 747.37525 465.34375 724.40625 C 467.73405 690.91825 472.3063 657.659 479 624.75 C 483.05099 604.40533 487.10008 584.03919 491.71875 563.8125 C 499.98973 563.30607 508.26284 562.78452 516.53125 562.3125 C 550.41161 561.17908 584.49957 558.85488 618.34375 561.84375 C 612.21948 558.4489 604.83974 555.79167 601.875 549.625 C 597.2623 540.02958 597.44992 528.91142 596.40625 518.1875 C 606.0004 536.08647 673.38252 559.73932 679.40625 543.875 C 678.40243 530.99971 680.68699 517.36072 677.75 504.9375 C 681.93552 482.0059 687.28991 459.34034 693.28125 436.8125 C 700.50435 408.3615 707.7841 379.873 712.5 350.875 C 716.291 320.342 714.05115 290.837 688.15625 270.125 C 670.71765 258.49 651.51935 250.85025 631.15625 245.78125 C 601.74005 238.57025 571.7771 234.2385 541.625 231.4375 C 511.0705 228.5805 480.46055 226.5345 449.90625 223.6875 C 449.61126 223.66311 449.32056 223.66835 449.03125 223.6875 z M 618.34375 561.84375 C 618.91711 562.16158 619.48474 562.47829 620.03125 562.8125 C 621.13915 563.4905 624.653 564.17775 623.9375 563.09375 C 623.0929 561.81475 620.95345 562.3195 619.46875 561.9375 C 619.09308 561.903 618.71949 561.87693 618.34375 561.84375 z M 632.4375 340.34375 C 633.75597 341.06293 634.84198 341.80436 635.625 342.53125 C 634.40147 341.95026 633.35586 341.18056 632.4375 340.34375 z M 190.46875 384.5625 C 172.54184 386.2344 156.2218 468.55422 174.21875 472.25 C 191.12469 475.37127 208.22832 477.22292 225.25 479.5625 C 225.4599 496.25598 225.1714 513.4262 224.78125 530.15625 C 223.62065 570.17825 222.03375 610.20175 220.71875 650.21875 C 219.70085 681.93875 219.1496 713.65075 217.4375 745.34375 C 216.5602 759.55875 215.2403 773.7575 213.9375 787.9375 C 213.3135 794.5555 213.13165 801.1935 212.53125 807.8125 C 212.11605 811.6955 211.68305 815.57775 211.34375 819.46875 C 210.27705 826.79275 210.0309 833.89375 210.1875 841.34375 C 234.411 851.38275 257.5996 864.48975 282.875 871.46875 C 286.2888 872.41075 316.977 836.96125 321.125 832.15625 C 329.0096 823.12125 336.9933 814.1695 344.9375 805.1875 C 353.04495 796.04715 327.92125 768.05647 305.875 753.375 C 305.94274 752.0951 305.99833 750.81137 306.0625 749.53125 C 307.3799 717.37025 307.71345 685.20625 308.59375 653.03125 C 309.84305 612.89525 311.4684 572.753 312.9375 532.625 C 313.9632 501.156 316.9396 468.85425 308.375 438.15625 C 293.5406 407.36525 279.1104 397.44375 246.25 392.46875 C 228.212 390.04175 210.03575 388.48625 192.21875 384.65625 C 191.63821 384.53703 191.04704 384.50857 190.46875 384.5625 z M 235.875 480.9375 C 241.2469 481.81371 242.888 485.33761 235.875 480.9375 z "
     id="path8605" />
</svg>
