<?xml version="1.0" encoding="UTF-8" standalone="no"?>
<svg
   xmlns:dc="http://purl.org/dc/elements/1.1/"
   xmlns:cc="http://creativecommons.org/ns#"
   xmlns:rdf="http://www.w3.org/1999/02/22-rdf-syntax-ns#"
   xmlns:svg="http://www.w3.org/2000/svg"
   xmlns="http://www.w3.org/2000/svg"
   xmlns:sodipodi="http://sodipodi.sourceforge.net/DTD/sodipodi-0.dtd"
   xmlns:inkscape="http://www.inkscape.org/namespaces/inkscape"
   width="1024"
   height="1024"
   id="U8BC9"
   version="1.1"
   inkscape:version="0.48.0 r9654"
   sodipodi:docname="U+8BC9.svg">
  <metadata
     id="metadata13">
    <rdf:RDF>
      <cc:Work
         rdf:about="">
        <dc:format>image/svg+xml</dc:format>
        <dc:type
           rdf:resource="http://purl.org/dc/dcmitype/StillImage" />
      </cc:Work>
    </rdf:RDF>
  </metadata>
  <defs
     id="defs11" />
  <sodipodi:namedview
     pagecolor="#ffffff"
     bordercolor="#666666"
     borderopacity="1"
     objecttolerance="10"
     gridtolerance="10"
     guidetolerance="10"
     inkscape:pageopacity="0"
     inkscape:pageshadow="2"
     inkscape:window-width="640"
     inkscape:window-height="480"
     id="namedview9"
     showgrid="false"
     inkscape:zoom="0.27441406"
     inkscape:cx="512"
     inkscape:cy="512"
     inkscape:window-x="0"
     inkscape:window-y="25"
     inkscape:window-maximized="0"
     inkscape:current-layer="U8BC9" />
  <path
     style="fill:#782121;fill-opacity:1;fill-rule:nonzero;stroke:#f9f9f9;stroke-width:0.1;stroke-miterlimit:4;stroke-dasharray:none"
     d="M 226.34375 165.875 C 203.88298 166.78323 151.38059 201.56591 159.59375 215.09375 C 174.99404 239.83875 189.30715 265.23175 203.65625 290.59375 C 210.32233 302.27575 216.46045 314.1755 221.96875 326.4375 C 229.75018 343.3275 309.37518 306.64 301.59375 289.75 C 294.84907 275.363 287.7513 261.19575 279.71875 247.46875 C 264.89652 221.36475 249.93885 195.34275 235.15625 169.21875 C 233.6353 166.71359 230.50315 165.70681 226.34375 165.875 z M 699.375 183.75 C 698.80255 183.79635 698.23254 183.94088 697.6875 184.15625 C 656.8094 202.95325 620.17454 229.521 583.84375 255.75 C 547.81231 282.625 512.14692 310.031 477.15625 338.25 C 458.375 353.002 440.56956 368.776 425.84375 387.625 C 416.30124 400.399 411.28869 414.79775 410.46875 430.59375 C 409.82774 418.50975 410.80953 444.39225 411.375 448.90625 C 416.28521 476.21225 418.84835 503.7615 420.5 531.4375 C 423.13136 588.4425 423.18005 645.5165 424.25 702.5625 C 426.50942 761.1225 428.04349 819.6355 425.15625 878.1875 C 423.74026 896.6175 422.74366 915.064 421.40625 933.5 C 420.25186 952.018 507.56436 957.4565 508.71875 938.9375 C 509.72153 919.9165 510.40209 900.884 511.625 881.875 C 513.83889 821.586 512.18202 761.36775 510 701.09375 C 509.86442 692.31085 509.75539 683.53352 509.65625 674.75 C 537.59852 664.47384 565.77596 654.94528 594.125 645.875 C 598.20372 679.5325 601.89111 713.23665 605.59375 746.9375 C 581.40803 746.30315 557.24206 745.60731 533.09375 744.28125 C 514.41611 742.60925 506.54111 830.67075 525.21875 832.34375 C 555.3796 833.00663 585.52442 833.18337 615.6875 833.625 C 619.26978 862.22729 623.1222 890.79427 627.34375 919.3125 C 630.23709 939.4845 633.13742 959.673 635.8125 979.875 C 638.44423 998.212 724.88173 985.80575 722.25 967.46875 C 719.10909 947.10275 715.81013 926.754 712.75 906.375 C 709.14834 883.1893 705.85192 859.94926 702.8125 836.6875 C 719.66072 837.79448 736.4853 839.13836 753.3125 840.5625 C 771.44069 842.0885 778.62819 756.651 760.5 755.125 C 737.87686 753.23017 715.25405 751.42906 692.59375 750.09375 C 692.18627 746.27277 691.77251 742.44713 691.375 738.625 C 687.28514 699.31244 683.12854 659.99819 679.65625 620.625 C 706.68882 613.15103 733.8227 606.02524 761.09375 599.46875 C 772.49278 596.59075 784.02102 594.59275 795.71875 593.59375 C 814.26414 591.35075 803.70164 503.91325 785.15625 506.15625 C 770.02983 508.30325 754.99237 510.9475 740.21875 514.9375 C 693.30298 526.8125 646.71304 540.0165 600.21875 553.4375 C 569.55869 562.76406 539.09273 572.58542 508.59375 582.40625 C 508.28134 563.87244 507.87308 545.33988 507.21875 526.8125 C 505.82638 497.5545 503.76018 468.367 499.46875 439.375 C 499.39052 438.48256 499.32029 437.75278 499.25 437.15625 C 508.63394 425.15196 520.98566 415.79937 532.40625 405.8125 C 565.63782 378.2365 599.78267 351.75125 634.375 325.90625 C 664.8602 304.00325 695.54349 281.323 730.1875 266.375 C 747.08381 259.69838 717.12098 182.3132 699.375 183.75 z M 196.0625 433.09375 C 194.32329 433.12967 192.57824 433.224 190.84375 433.3125 C 160.87031 436.2505 131.52763 442.684 103.5625 454.125 C 86.279187 461.426 120.71668 542.89475 138 535.59375 C 157.18487 527.03375 177.59862 522.202 198.5 520.75 C 199.49441 520.64937 200.41882 520.59799 201.3125 520.59375 C 200.39591 526.66375 201.90115 532.862 201.78125 539 C 201.38333 559.368 199.5765 579.7505 198.15625 600.0625 C 192.3937 650.9115 192.44841 702.02675 193.875 753.09375 C 193.91929 792.24975 197.92778 831.0245 205.9375 869.3125 C 209.48169 886.5985 213.83524 903.80825 216.40625 921.28125 C 219.56292 939.79725 306.84416 924.891 303.6875 906.375 C 300.22436 887.728 295.75601 869.27225 291.5625 850.78125 C 284.12992 817.79025 280.72177 784.31475 280.53125 750.46875 C 278.95871 702.40375 278.71308 654.2765 284.5625 606.4375 C 287.96893 562.6795 295.82058 516.80475 278.28125 475.09375 C 274.46284 469.58575 271.29793 463.57375 266.8125 458.59375 C 248.48615 438.24438 222.15071 432.55493 196.0625 433.09375 z M 498.40625 438.21875 C 498.40659 438.37983 498.43402 438.54147 498.4375 438.6875 C 497.96463 440.36569 497.22803 441.69928 496.09375 441.9375 C 495.75787 442.0075 496.32735 441.29375 496.4375 440.96875 C 497.08201 440.0386 497.72637 439.11735 498.40625 438.21875 z M 203.25 520.65625 C 211.68906 521.21686 213.8615 525.42596 203.25 520.65625 z "
     id="path11416" />
</svg>
