<?xml version="1.0" encoding="UTF-8" standalone="no"?>
<svg
   xmlns:dc="http://purl.org/dc/elements/1.1/"
   xmlns:cc="http://creativecommons.org/ns#"
   xmlns:rdf="http://www.w3.org/1999/02/22-rdf-syntax-ns#"
   xmlns:svg="http://www.w3.org/2000/svg"
   xmlns="http://www.w3.org/2000/svg"
   xmlns:sodipodi="http://sodipodi.sourceforge.net/DTD/sodipodi-0.dtd"
   xmlns:inkscape="http://www.inkscape.org/namespaces/inkscape"
   width="1024"
   height="1024"
   id="U8BD5"
   version="1.1"
   inkscape:version="0.48.0 r9654"
   sodipodi:docname="U+8BD5.svg">
  <metadata
     id="metadata16">
    <rdf:RDF>
      <cc:Work
         rdf:about="">
        <dc:format>image/svg+xml</dc:format>
        <dc:type
           rdf:resource="http://purl.org/dc/dcmitype/StillImage" />
      </cc:Work>
    </rdf:RDF>
  </metadata>
  <defs
     id="defs14" />
  <sodipodi:namedview
     pagecolor="#ffffff"
     bordercolor="#666666"
     borderopacity="1"
     objecttolerance="10"
     gridtolerance="10"
     guidetolerance="10"
     inkscape:pageopacity="0"
     inkscape:pageshadow="2"
     inkscape:window-width="640"
     inkscape:window-height="480"
     id="namedview12"
     showgrid="false"
     inkscape:zoom="0.27441406"
     inkscape:cx="512"
     inkscape:cy="512"
     inkscape:window-x="0"
     inkscape:window-y="25"
     inkscape:window-maximized="0"
     inkscape:current-layer="U8BD5" />
  <path
     style="fill:#782121;fill-opacity:1;fill-rule:nonzero;stroke:#f9f9f9;stroke-width:0.1;stroke-miterlimit:4;stroke-dasharray:none"
     d="M 674.8125 54.5 C 659.19636 54.574895 646.38096 57.612375 645.625 64.59375 C 642.06504 125.37675 654.0241 185.62525 664.625 245.15625 C 668.85623 267.22849 673.12219 289.28179 677.40625 311.34375 C 621.38468 324.35502 565.27323 336.93815 508.8125 347.9375 C 468.33697 355.9475 427.612 365.54175 386.25 366.96875 C 367.51108 366.27475 364.22983 454.6185 382.96875 455.3125 C 431.27992 453.3225 478.65078 441.90025 525.84375 432.15625 C 582.03908 420.82021 637.9471 408.27141 693.8125 395.4375 C 705.69016 456.12298 717.60231 516.78183 729.3125 577.5 C 731.49079 588.97355 733.72188 600.44731 735.96875 611.90625 C 706.91178 658.95566 678.89033 706.65105 651.28125 754.5625 C 645.1268 765.37781 639.02815 776.22678 632.6875 786.9375 C 637.23088 761.2257 630.43257 714.78105 616.84375 715.6875 C 612.41795 716.0565 607.9883 716.41225 603.5625 716.78125 C 599.02711 717.45161 594.49375 718.16545 589.96875 718.90625 C 589.72135 703.40601 589.93796 687.89176 590.71875 672.375 C 592.37109 632.195 593.45828 591.4305 603.03125 552.1875 C 603.15704 551.76104 603.22331 551.33995 603.25 550.90625 C 605.94937 550.59854 608.66288 550.31175 611.375 550.09375 C 613.33923 550.18075 615.28577 550.285 617.25 550.375 C 617.09615 550.613 616.9351 550.85575 616.78125 551.09375 C 635.29377 554.05175 649.26252 466.7705 630.75 463.8125 C 611.67491 461.8105 621.16001 462.15325 602.21875 462.78125 C 562.61095 467.53525 523.94624 477.834 486.28125 490.875 C 450.54759 503.555 414.90052 517.0465 382.03125 536.1875 C 366.37136 546.5265 415.09011 620.36925 430.75 610.03125 C 455.70552 594.88156 483.09724 584.37207 510.46875 574.46875 C 506.83693 605.80476 505.76248 637.48928 504.5625 668.96875 C 503.45094 691.77072 503.37532 714.57431 504.125 737.34375 C 499.52272 738.56961 494.92543 739.82665 490.34375 741.125 C 450.41378 753.294 410.58823 766.66475 373.75 786.59375 C 357.68649 796.29275 403.40524 872.0115 419.46875 862.3125 C 449.40815 844.8775 482.60379 834.0775 515.59375 824.0625 C 548.33248 815.0565 581.67596 807.85125 615.40625 803.78125 C 617.77895 803.69453 620.15856 803.61885 622.53125 803.53125 C 620.61483 806.56315 618.67108 809.57266 616.6875 812.5625 C 606.80162 828.3985 681.45786 874.99225 691.34375 859.15625 C 703.47769 838.73025 715.00841 817.94325 726.28125 797.03125 C 738.01081 775.96844 749.88938 755.0025 762 734.15625 C 774.10356 785.83953 787.79316 837.15646 804.03125 887.78125 C 820.27643 936.05525 842.20155 981.938 869.46875 1024.875 C 879.58497 1040.331 952.45996 992.6445 942.34375 977.1875 C 917.9491 941.3405 899.1991 902.15775 884.5625 861.34375 C 859.32431 786.17436 840.54015 709.26959 824.40625 631.71875 C 826.17307 628.97022 827.93945 626.24077 829.71875 623.5 C 853.82424 586.916 877.25861 549.53825 905.28125 515.78125 C 918.05434 502.05725 853.36684 441.8385 840.59375 455.5625 C 826.44336 473.29421 813.32042 491.81145 800.6875 510.65625 C 792.12554 466.14411 783.55041 421.63195 775.125 377.09375 C 801.46734 371.65356 827.97846 367.00777 854.71875 363.90625 C 870.6292 362.61825 886.29235 361.13575 901.71875 356.96875 C 919.65855 351.34875 893.18981 266.78625 875.25 272.40625 C 869.20748 274.64025 852.35608 275.5175 843.4375 277.0625 C 815.20456 281.06779 787.19782 286.38832 759.34375 292.40625 C 755.56995 271.89026 751.79246 251.37932 748.125 230.84375 C 739.6345 179.20575 729.12221 126.65775 733.375 74.09375 C 734.63493 62.458125 700.83939 54.375176 674.8125 54.5 z M 827.6875 84.84375 C 808.62197 84.859808 791.49702 88.587313 791.0625 96.78125 C 791.23901 136.08725 803.45983 173.59775 817.1875 209.96875 C 823.73353 226.23475 831.34681 242.05075 838.9375 257.84375 C 847.09177 274.54075 925.81051 236.10325 917.65625 219.40625 C 911.03071 206.07425 904.37008 192.72775 898.65625 178.96875 C 889.10003 154.12175 879.73936 128.3815 879.34375 101.4375 C 879.90242 90.902438 852.20033 84.823104 827.6875 84.84375 z M 238.84375 233.625 C 212.45074 234.01788 168.94058 248.60875 172.15625 261.71875 C 181.29447 294.15175 199.15152 322.6805 218.40625 349.9375 C 226.36837 360.6475 234.56154 371.1555 242.59375 381.8125 C 253.95918 396.6085 323.70918 343.046 312.34375 328.25 C 304.75563 318.55 297.08706 308.91675 289.65625 299.09375 C 276.64531 281.09675 263.88668 262.387 258.15625 240.625 C 256.89794 235.495 249.17145 233.47126 238.84375 233.625 z M 243.71875 444.9375 C 229.33679 445.0716 214.69577 448.48334 200.96875 451.21875 C 173.64939 457.79575 146.7662 465.97875 120.625 476.34375 C 103.37138 483.76275 138.34013 565.1065 155.59375 557.6875 C 176.64011 548.3295 198.75746 541.76875 221.15625 536.59375 C 223.96885 536.12632 226.80819 535.55531 229.65625 535 C 229.67287 535.10717 229.70776 535.24527 229.71875 535.34375 C 231.52896 551.55675 231.76429 568.0345 232.40625 584.3125 C 234.04385 637.5145 235.00566 690.7445 236.9375 743.9375 C 238.17534 785.7405 241.95425 827.3465 249 868.5625 C 251.29593 883.3185 256.05511 897.58175 257.4375 912.46875 C 258.06241 916.76975 257.53053 921.0125 257.28125 925.3125 C 256.36492 944.0535 344.70867 948.365 345.625 929.625 C 346.00722 920.818 346.42603 912.00275 345.375 903.21875 C 343.46605 886.11775 339.20727 869.607 335.3125 852.875 C 328.08289 815.867 324.47783 778.34025 323.1875 740.65625 C 321.09047 687.61325 320.21199 634.54275 319.25 581.46875 C 318.40878 549.94675 321.32796 511.0175 305.5 482.3125 C 301.61762 475.2715 296.02139 469.3065 291.28125 462.8125 C 285.02067 458.7065 279.31328 453.604 272.5 450.5 C 263.26709 446.2945 253.55904 444.84575 243.71875 444.9375 z M 245.1875 532.96875 C 245.72653 532.96077 246.27324 532.95756 246.8125 532.96875 C 247.2816 532.97875 248.52892 533.575 248.0625 533.625 C 246.10129 533.839 244.08026 533.937 242.15625 533.5 C 241.82657 533.42525 241.4794 533.31491 241.15625 533.21875 C 242.49893 533.09834 243.84253 532.98867 245.1875 532.96875 z "
     id="path10462" />
</svg>
