<?xml version="1.0" encoding="UTF-8" standalone="no"?>
<svg
   xmlns:dc="http://purl.org/dc/elements/1.1/"
   xmlns:cc="http://creativecommons.org/ns#"
   xmlns:rdf="http://www.w3.org/1999/02/22-rdf-syntax-ns#"
   xmlns:svg="http://www.w3.org/2000/svg"
   xmlns="http://www.w3.org/2000/svg"
   xmlns:sodipodi="http://sodipodi.sourceforge.net/DTD/sodipodi-0.dtd"
   xmlns:inkscape="http://www.inkscape.org/namespaces/inkscape"
   width="1024"
   height="1024"
   id="U8BF7"
   version="1.1"
   inkscape:version="0.48.0 r9654"
   sodipodi:docname="U+8BF7.svg">
  <metadata
     id="metadata17">
    <rdf:RDF>
      <cc:Work
         rdf:about="">
        <dc:format>image/svg+xml</dc:format>
        <dc:type
           rdf:resource="http://purl.org/dc/dcmitype/StillImage" />
      </cc:Work>
    </rdf:RDF>
  </metadata>
  <defs
     id="defs15" />
  <sodipodi:namedview
     pagecolor="#ffffff"
     bordercolor="#666666"
     borderopacity="1"
     objecttolerance="10"
     gridtolerance="10"
     guidetolerance="10"
     inkscape:pageopacity="0"
     inkscape:pageshadow="2"
     inkscape:window-width="640"
     inkscape:window-height="480"
     id="namedview13"
     showgrid="false"
     inkscape:zoom="0.27441406"
     inkscape:cx="512"
     inkscape:cy="512"
     inkscape:window-x="0"
     inkscape:window-y="25"
     inkscape:window-maximized="0"
     inkscape:current-layer="U8BF7" />
  <path
     style="fill:#a02c2c;fill-opacity:1;fill-rule:nonzero;stroke:#f9f9f9;stroke-width:0.1;stroke-miterlimit:4;stroke-dasharray:none"
     d="M 530.84375 65.25 C 518.76614 65.340233 509.55547 67.820625 508.53125 73.59375 C 503.96302 114.59301 501.96026 155.8069 499.75 197 C 458.34343 201.60178 417.07861 207.61812 375.53125 210.75 C 356.83585 212.031 362.8671 300.156 381.5625 298.875 C 419.45226 294.54948 457.17783 289.04596 495.03125 284.4375 C 494.05212 302.56265 493.08907 320.68654 492.125 338.8125 C 461.7992 339.76601 431.46561 341.31148 401.375 345.40625 C 382.8709 348.60225 397.9335 435.821 416.4375 432.625 C 439.93207 428.56084 463.76044 427.13738 487.5625 426.25 C 487.26087 432.89303 487.00444 439.54224 486.78125 446.1875 C 451.61083 449.83379 416.48445 453.96007 381.46875 458.90625 C 338.56025 465.00725 295.60375 471.2205 253.28125 480.6875 C 235.10485 485.3015 256.85485 570.989 275.03125 566.375 C 314.04465 556.025 354.11025 550.2025 393.96875 544.1875 C 455.44945 535.0045 517.3106 528.84125 579.25 523.78125 C 629.2752 519.82225 679.43655 518.089 729.59375 517 C 755.94845 516.276 782.3853 516.71375 808.625 513.84375 C 827.2251 511.44575 815.94395 423.75825 797.34375 426.15625 C 774.24675 430.04425 750.49585 428.4255 727.21875 430.0625 C 676.10079 431.74584 624.98611 433.87109 574 438.03125 C 574.09645 433.46946 574.20574 428.90534 574.34375 424.34375 C 582.75624 424.18249 591.18065 424.03743 599.59375 423.90625 C 605.69015 424.45125 612.3085 422.9415 618.3125 424.6875 C 636.9692 426.7975 646.9067 338.86 628.25 336.75 C 617.9835 335.92 607.7407 335.48725 597.4375 336.15625 C 590.9427 336.37168 584.46409 336.58048 577.96875 336.78125 C 578.91356 316.98751 579.93824 297.19243 581.03125 277.40625 C 601.77739 277.06392 622.53143 277.98932 643.21875 280.84375 C 631.86085 274.72375 686.921 292.35475 674.8125 290.34375 C 690.4584 300.72675 739.3959 226.97675 723.75 216.59375 C 702.224 204.00175 678.72565 197.49075 653.96875 194.34375 C 631.41887 191.77341 608.84658 190.71697 586.28125 190.90625 C 588.42051 156.85418 590.72105 122.782 595.625 89.03125 C 597.87828 76.331063 557.41449 65.051487 530.84375 65.25 z M 159.65625 213.03125 C 138.74212 213.04167 85.252112 254.5215 94.90625 267.78125 C 115.56255 295.44925 138.21405 321.49475 162.15625 346.34375 C 176.89335 361.00875 169.8809 353.992 183.25 367.375 C 196.4856 380.449 258.1106 318.04275 244.875 304.96875 C 231.6921 292.11775 238.35555 298.629 224.84375 285.5 C 203.59565 263.793 183.45355 240.94925 166.34375 215.78125 C 164.96459 213.887 162.64398 213.02976 159.65625 213.03125 z M 183.78125 411.9375 C 163.69245 414.0725 144.8216 420.83675 125.125 425.21875 C 98.0379 431.28475 70.93345 437.23025 43.84375 443.28125 C 25.56285 447.53625 45.62525 533.72375 63.90625 529.46875 C 90.40905 522.35975 117.23015 516.598 144.03125 510.75 C 145.57361 510.92222 149.77663 509.95255 154.9375 508.5625 C 158.24099 542.27478 159.33021 576.14013 159.15625 610 C 157.98805 651.228 154.92955 692.38775 153.15625 733.59375 C 151.99715 767.04575 150.93775 800.49675 150.71875 833.96875 C 150.60465 849.69275 151.51775 865.37425 152.84375 881.03125 C 154.52755 899.65025 242.27765 891.71275 240.59375 873.09375 C 239.32465 860.12775 238.5005 847.12875 238.4375 834.09375 C 238.3084 801.78575 239.09995 769.4785 240.09375 737.1875 C 241.78005 694.9535 244.9198 652.8145 246.125 610.5625 C 246.4 572.3255 245.2748 534.06775 241.8125 495.96875 C 238.8152 466.15875 237.2744 433.5085 207 417.1875 C 200.0174 413.4235 191.51995 413.6805 183.78125 411.9375 z M 190 499.375 C 190.42892 499.3773 190.74208 499.44612 190.90625 499.5625 C 191.87315 500.2475 188.61035 500.182 187.46875 500.5 C 186.5691 500.37945 185.77495 500.28564 184.96875 500.1875 C 187.17715 499.68301 188.97554 499.36949 190 499.375 z M 598.34375 542.125 C 570.06122 542.13732 541.79296 544.07444 513.90625 549.1875 C 480.77665 556.2355 448.1385 566.1295 420 585.6875 C 413.66128 590.51727 419.68266 605.95199 429.84375 621.28125 C 403.38397 620.38889 366.21844 628.76021 367.5625 640.96875 C 372.6447 678.92375 374.35925 717.20125 376.46875 755.40625 C 378.53605 804.63225 381.94765 853.766 387.21875 902.75 C 389.38285 925.73 393.14805 948.6165 394.28125 971.6875 C 394.25725 972.4805 394.2115 973.2685 394.1875 974.0625 C 394.8397 992.8645 483.4646 989.801 482.8125 971 C 482.6941 969.082 482.58715 967.13575 482.46875 965.21875 C 480.94349 948.30505 478.67665 931.49337 476.46875 914.65625 C 506.77892 917.28608 537.27117 915.15864 567.59375 913.625 C 593.38755 912.032 619.2095 912.4745 645 913.6875 L 653.125 914.15625 C 654.18999 914.20358 655.18861 913.93485 656.15625 913.4375 C 655.72974 921.33116 655.32469 929.2267 654.96875 937.125 C 653.98395 951.932 654.68925 967.3315 652.34375 981.8125 C 649.00125 1000.2965 736.1575 1016.0475 739.5 997.5625 C 742.2077 978.6055 741.721 959.52225 742.125 940.40625 C 743.482 894.61325 746.66385 848.902 750.46875 803.25 C 754.36745 753.341 758.99485 703.13975 754.78125 653.09375 C 749.47145 614.45975 739.37145 577.92325 701.96875 558.78125 C 675.12275 547.84425 646.84945 543.48025 617.90625 542.40625 C 611.38061 542.218 604.87049 542.12216 598.34375 542.125 z M 594.125 629.59375 C 601.08774 629.56309 608.03778 629.6985 615 629.96875 C 631.5078 632.67175 651.45655 630.4085 666.34375 639.4375 C 662.44305 643.6765 667.3879 658.82475 668.1875 664.84375 C 671.7478 708.74275 667.7311 752.80975 664.375 796.59375 C 663.49914 807.22943 662.63445 817.86101 661.8125 828.5 C 660.4264 826.9642 658.828 826.07985 657.03125 826 C 654.14665 825.901 651.2596 825.7875 648.375 825.6875 C 619.9747 824.8245 591.5669 824.641 563.1875 826.375 C 537.1572 827.695 510.851 829.769 484.875 826.75 C 478.7504 825.72902 473.0786 834.62658 468.875 847.0625 C 465.92972 815.09886 463.88795 783.06708 462.71875 750.96875 C 461.12207 717.8745 459.63647 684.76201 457.1875 651.71875 C 463.95802 656.7314 469.97796 658.92766 473.65625 656.125 C 490.94245 644.139 511.4343 638.9095 531.75 634.8125 C 552.38152 631.22375 573.23678 629.68572 594.125 629.59375 z M 584.96875 707.59375 C 579.50585 707.70775 574.05665 707.79325 568.59375 707.90625 C 538.59095 709.58825 508.6149 711.98575 478.75 715.34375 C 460.1646 718.02275 472.7897 805.6165 491.375 802.9375 C 518.4991 798.7305 545.9184 796.674 573.3125 795.25 C 577.6243 795.23 581.9382 795.18625 586.25 795.15625 C 604.8276 794.88625 603.54635 707.32375 584.96875 707.59375 z "
     id="path11289" />
</svg>
