<?xml version="1.0" encoding="UTF-8" standalone="no"?>
<svg
   xmlns:dc="http://purl.org/dc/elements/1.1/"
   xmlns:cc="http://creativecommons.org/ns#"
   xmlns:rdf="http://www.w3.org/1999/02/22-rdf-syntax-ns#"
   xmlns:svg="http://www.w3.org/2000/svg"
   xmlns="http://www.w3.org/2000/svg"
   xmlns:sodipodi="http://sodipodi.sourceforge.net/DTD/sodipodi-0.dtd"
   xmlns:inkscape="http://www.inkscape.org/namespaces/inkscape"
   width="1024"
   height="1024"
   id="U8BFE"
   version="1.1"
   inkscape:version="0.48.0 r9654"
   sodipodi:docname="U+8BFE.svg">
  <metadata
     id="metadata17">
    <rdf:RDF>
      <cc:Work
         rdf:about="">
        <dc:format>image/svg+xml</dc:format>
        <dc:type
           rdf:resource="http://purl.org/dc/dcmitype/StillImage" />
      </cc:Work>
    </rdf:RDF>
  </metadata>
  <defs
     id="defs15" />
  <sodipodi:namedview
     pagecolor="#ffffff"
     bordercolor="#666666"
     borderopacity="1"
     objecttolerance="10"
     gridtolerance="10"
     guidetolerance="10"
     inkscape:pageopacity="0"
     inkscape:pageshadow="2"
     inkscape:window-width="640"
     inkscape:window-height="480"
     id="namedview13"
     showgrid="false"
     inkscape:zoom="0.27441406"
     inkscape:cx="512"
     inkscape:cy="512"
     inkscape:window-x="0"
     inkscape:window-y="25"
     inkscape:window-maximized="0"
     inkscape:current-layer="U8BFE" />
  <path
     style="fill:#2b0000;fill-opacity:1;fill-rule:nonzero;stroke:#f9f9f9;stroke-width:0.1;stroke-miterlimit:4;stroke-dasharray:none"
     d="M 466.34375 153.1875 C 454.18994 153.1875 449.89506 190.23594 453.46875 216.40625 C 434.78 205.29872 369.50919 209.30531 369.9375 225.4375 C 371.5418 256.4195 373.27785 287.39275 375.40625 318.34375 C 377.18815 352.43075 381.86775 386.125 390.03125 419.25 C 394.69125 438.403 401.0379 457.0745 409.625 474.8125 C 413.28527 481.83448 412.20807 479.9455 416.15625 485.53125 C 404.4191 499.76261 425.41347 573.39228 442.28125 568.875 C 468.17145 562.204 494.56985 557.69225 520.71875 552.15625 C 524.44464 551.3337 528.15172 550.48903 531.875 549.65625 C 531.81922 562.87851 531.76813 576.09013 531.75 589.3125 C 495.05194 594.8006 458.60074 601.76516 422.34375 609.71875 C 391.46275 616.40175 360.51465 623.177 330.71875 633.875 C 313.07475 640.291 343.32465 723.4785 360.96875 717.0625 C 386.74745 706.7325 414.00695 700.888 441.03125 694.875 C 447.42919 693.44118 453.83884 692.05318 460.25 690.6875 C 459.26116 691.68557 458.26596 692.68662 457.28125 693.6875 C 434.88335 717.3755 414.21985 742.6325 395.15625 769.0625 C 384.38475 783.8145 376.4828 800.27075 369 816.84375 C 368.2439 818.70775 361.25085 830.06225 365.65625 822.90625 C 367.17311 821.23507 368.70189 819.57667 370.21875 817.90625 C 360.45888 832.9291 414.63276 896.45103 428.625 884.6875 C 431.3021 881.9385 433.97915 879.1855 436.65625 876.4375 C 441.83365 868.8735 446.3783 860.95025 450.0625 852.53125 C 454.8625 841.29725 459.7355 830.042 466.8125 820 C 482.8075 797.079 500.4083 775.27325 519.5625 754.90625 C 523.90182 750.49019 528.28016 746.07598 532.75 741.75 C 532.81868 750.10316 532.83686 758.45872 532.78125 766.8125 C 532.58115 782.4485 531.9746 798.0625 531.375 813.6875 C 531.023 819.8015 530.89955 830.39175 530.15625 834.46875 C 530.51294 832.69425 530.86204 830.93051 531.21875 829.15625 C 529.5559 847.11331 610.73834 872.40421 616.3125 854.8125 C 616.9647 851.9565 617.5978 849.105 618.25 846.25 C 619.2772 836.445 619.4154 826.56375 619.8125 816.71875 C 620.30803 800.54645 620.59871 784.36681 620.625 768.1875 C 637.01947 773.29122 653.35841 778.57345 669.6875 783.875 C 699.0513 792.553 725.1009 807.88975 750.125 825.09375 C 769.7156 839.47675 789.2865 853.9035 809.5625 867.3125 C 813.3776 869.8475 817.37755 872.11 820.84375 875.125 C 835.84075 886.474 889.34075 815.7865 874.34375 804.4375 C 868.93625 800.5005 863.45355 796.6685 857.65625 793.3125 C 837.70435 780.5925 818.56575 766.751 799.40625 752.875 C 767.43755 731.203 733.93025 712.09775 696.71875 700.84375 C 670.77651 692.3737 644.8028 684.01346 618.875 675.5 C 618.84465 673.63709 618.77574 671.76925 618.75 669.90625 C 634.19558 669.87926 649.66389 670.28153 665.09375 670.65625 C 690.05735 671.60125 715.0271 671.50525 740 671.90625 C 753.6973 671.88725 766.9236 675.26275 780.125 678.46875 C 785.1925 679.93275 790.7714 680.65325 795.4375 682.90625 C 812.9113 689.94625 846.0988 607.57125 828.625 600.53125 C 819.4955 597.01025 810.11245 594.45575 800.53125 592.46875 C 780.94665 587.93975 761.19825 583.6945 740.96875 583.8125 C 716.27705 583.6515 691.59315 584.001 666.90625 583.25 C 650.6202 582.96647 634.29831 582.68288 618 582.78125 C 617.93676 565.88502 617.91953 548.99019 617.96875 532.09375 C 637.09293 529.23805 656.38842 528.54746 675.6875 529.6875 C 689.3207 530.9085 702.8058 533.1675 716.4375 534.4375 L 721.34375 534.84375 C 724.1584 535.04403 726.69521 533.21241 728.90625 529.96875 C 747.98002 539.07987 768.12065 543.96641 772.15625 535.9375 C 776.19505 525.1055 779.42075 515.1545 779.15625 503.4375 C 778.99345 496.5795 778.15325 489.92425 780.03125 483.15625 C 783.72505 463.39625 788.92425 443.9595 793.15625 424.3125 C 798.52055 399.0935 803.1434 373.7185 808.8125 348.5625 C 813.1392 327.5015 817.8897 306.50275 821 285.21875 C 823.1469 265.61875 823.19675 246.03975 814.78125 227.71875 C 805.16945 211.38575 792.5234 198.68075 774.6875 191.46875 C 762.1366 186.70075 749.38235 182.4235 736.34375 179.1875 C 718.68625 175.2055 700.86685 171.7745 682.96875 169.0625 C 660.15975 165.9475 637.2858 163.25875 614.3125 161.71875 C 588.5933 160.51875 562.79865 160.49525 537.15625 157.90625 C 513.56545 156.03025 489.97095 154.5265 466.34375 153.1875 z M 237.375 184.28125 C 219.17545 184.93153 180.94944 252.70406 196.15625 261.5625 C 212.66235 270.0235 227.61445 280.95225 242.59375 291.78125 C 251.73555 298.17325 260.1561 305.52175 269.0625 312.21875 C 270.06975 312.85825 273.05486 315.10562 274.40625 316.125 C 273.87791 315.70185 272.53749 314.62045 270.84375 313.28125 C 285.80486 323.38373 346.22337 263.24004 333.25 250.09375 C 329.4465 246.78575 326.0237 243.55325 321.8125 240.90625 C 312.3945 234.11225 303.57325 226.49425 293.90625 220.03125 C 276.57305 207.77125 259.18315 195.62675 240.71875 185.09375 C 239.70496 184.50325 238.5883 184.2379 237.375 184.28125 z M 458.625 235.375 C 460.69281 239.34111 463.27001 241.71875 466.34375 241.71875 C 487.70885 242.37375 509.03335 243.8115 530.34375 245.4375 C 532.26108 245.62641 534.17505 245.77362 536.09375 245.9375 C 536.20198 268.44692 535.71673 290.96223 535.21875 313.46875 C 511.16815 317.33758 487.16564 321.49413 463.375 326.75 C 462.9898 321.99741 462.65961 317.23942 462.40625 312.46875 C 460.70787 286.79331 459.22324 261.10255 458.625 235.375 z M 623.53125 250.625 C 639.35021 252.12979 655.14501 254.11762 670.875 256.34375 C 686.1258 258.81775 701.32165 261.65525 716.34375 265.28125 C 722.00529 266.96711 727.73043 268.61842 733.34375 270.5625 C 733.30996 272.21868 733.32426 273.86558 733.1875 274.8125 C 730.515 293.7175 726.46585 312.38075 722.71875 331.09375 C 717.18085 355.91675 712.6785 380.9675 707.25 405.8125 C 704.39887 418.35755 701.35166 430.84579 698.4375 443.375 C 692.32921 442.6462 686.21824 441.99583 680.0625 441.71875 C 659.55172 440.843 639.02418 441.3169 618.65625 443.59375 C 618.86725 428.18732 619.16006 412.77907 619.5 397.375 C 631.40855 398.70611 643.34887 399.87471 655.28125 400.96875 C 662.03295 401.67875 668.7939 401.57175 675.5625 401.34375 C 694.3587 400.35175 689.70245 311.758 670.90625 312.75 C 668.32725 313.115 665.75815 313.13 663.15625 312.875 C 649.44656 311.69172 635.72416 310.36479 622.03125 309 C 622.59745 289.54251 623.13967 270.08622 623.53125 250.625 z M 739.5 272.84375 C 740.43125 273.21637 741.36162 273.60238 742.28125 274 C 741.40374 274.28366 740.44356 273.71074 739.5 272.84375 z M 267.5625 375.21875 C 253.85451 375.26882 240.13656 376.52488 226.4375 377.75 C 202.2212 379.616 177.9941 381.43375 153.6875 381.34375 C 134.9305 381.94975 137.77425 470.38625 156.53125 469.78125 C 182.05675 468.85925 207.5285 467.1685 233 465.3125 C 236.35094 465.75903 239.94664 465.5664 243.625 465.125 C 242.65468 481.09962 240.8193 497.0319 239.09375 512.9375 C 235.23365 545.3305 231.1276 577.67625 228.0625 610.15625 C 226.0102 641.43525 221.65775 672.45925 217.71875 703.53125 C 214.69875 728.73125 212.5708 754.0485 213.125 779.4375 C 213.0947 795.1515 217.91735 810.21475 220.15625 825.59375 C 220.46415 836.35675 223.3918 846.49275 228.1875 856.09375 C 232.95868 865.70734 240.31165 872.87655 249.15625 877.84375 C 250.09561 878.45413 253.20825 880.13417 259.96875 883.65625 C 282.77695 895.80225 305.0698 886.195 321.25 869.375 C 327.68 864.814 333.73575 859.7635 339.96875 854.9375 C 344.77905 851.3705 349.8473 848.1235 354.75 844.6875 C 370.0781 833.8005 318.73435 761.5515 303.40625 772.4375 C 302.6604 772.98172 301.91269 773.50184 301.15625 774.03125 C 300.44922 754.09184 302.7478 734.163 304.65625 714.34375 C 308.53665 682.38375 312.9999 650.49475 315.125 618.34375 C 318.104 586.36275 322.23215 554.502 326.15625 522.625 C 329.13095 496.515 332.2548 470.3675 332.6875 444.0625 C 332.8362 410.1685 323.7474 383.82925 286.25 376.03125 C 280.01116 375.44219 273.7934 375.19599 267.5625 375.21875 z M 533.21875 402.625 C 532.89349 421.75156 532.6571 440.87148 532.46875 460 C 522.56118 462.20638 512.66418 464.40274 502.75 466.59375 C 487.87555 469.68994 472.94601 472.51755 458.03125 475.40625 C 476.80242 461.37114 493.75313 442.00609 488.15625 433.875 C 484.75783 427.26935 482.0599 420.35902 479.75 413.3125 C 480.49071 413.4029 481.20737 413.40924 481.9375 413.21875 C 498.82435 408.78141 516.00421 405.51903 533.21875 402.625 z M 267.625 462.46875 C 270.33914 462.60623 272.95036 463.03817 275.4375 463.96875 C 272.53361 463.70266 269.94956 463.18532 267.625 462.46875 z M 308.53125 819.78125 C 309.98048 824.66358 309.30924 823.31462 308.53125 819.78125 z "
     id="path8970" />
</svg>
