<?xml version="1.0" encoding="UTF-8" standalone="no"?>
<svg
   xmlns:dc="http://purl.org/dc/elements/1.1/"
   xmlns:cc="http://creativecommons.org/ns#"
   xmlns:rdf="http://www.w3.org/1999/02/22-rdf-syntax-ns#"
   xmlns:svg="http://www.w3.org/2000/svg"
   xmlns="http://www.w3.org/2000/svg"
   xmlns:sodipodi="http://sodipodi.sourceforge.net/DTD/sodipodi-0.dtd"
   xmlns:inkscape="http://www.inkscape.org/namespaces/inkscape"
   width="1024"
   height="1024"
   id="U8C22"
   version="1.1"
   inkscape:version="0.48.0 r9654"
   sodipodi:docname="U+8C22.svg">
  <metadata
     id="metadata17">
    <rdf:RDF>
      <cc:Work
         rdf:about="">
        <dc:format>image/svg+xml</dc:format>
        <dc:type
           rdf:resource="http://purl.org/dc/dcmitype/StillImage" />
      </cc:Work>
    </rdf:RDF>
  </metadata>
  <defs
     id="defs15" />
  <sodipodi:namedview
     pagecolor="#ffffff"
     bordercolor="#666666"
     borderopacity="1"
     objecttolerance="10"
     gridtolerance="10"
     guidetolerance="10"
     inkscape:pageopacity="0"
     inkscape:pageshadow="2"
     inkscape:window-width="640"
     inkscape:window-height="480"
     id="namedview13"
     showgrid="false"
     inkscape:zoom="0.27441406"
     inkscape:cx="512"
     inkscape:cy="512"
     inkscape:window-x="0"
     inkscape:window-y="25"
     inkscape:window-maximized="0"
     inkscape:current-layer="U8C22" />
  <path
     style="fill:#916f6f;fill-opacity:1;fill-rule:nonzero;stroke:#f9f9f9;stroke-width:0.1;stroke-miterlimit:4;stroke-dasharray:none"
     d="M 458.96875 189.40625 C 456.49664 189.54941 454.55054 190.39259 453.3125 192.03125 C 434.24971 218.16725 418.2058 246.2985 401.46875 273.9375 C 385.27682 299.9505 366.37402 324.1305 344.875 345.9375 C 343.38874 347.08628 342.33699 347.87004 341.25 348.6875 C 318.1092 351.76562 304.84276 370.88286 302.9375 396.78125 C 303.59843 414.36925 304.53595 431.9685 305.09375 449.5625 C 305.12857 482.8765 304.56769 516.1345 305.8125 549.4375 C 305.77155 574.0795 312.22412 598.30025 311.8125 622.90625 C 309.60831 638.98025 311.76217 654.9025 313.9375 670.8125 C 316.23043 697.3705 318.30821 701.30325 336.4375 723.65625 C 343.44597 726.89225 350.00803 731.36275 357.46875 733.34375 C 380.17744 739.37275 406.28176 728.412 427.34375 721.125 C 431.09674 719.64177 434.873 718.20132 438.65625 716.8125 C 437.72998 718.88553 436.80319 720.95907 435.875 723.03125 C 414.88216 768.57625 395.04986 814.61225 375.1875 860.65625 L 370.34375 871.5 C 363.00072 888.623 443.71947 923.249 451.0625 906.125 C 452.68067 902.204 454.28807 898.26475 455.90625 894.34375 C 474.40993 848.47575 493.29119 802.764 513.8125 757.75 C 515.2451 754.52066 516.66411 751.29314 518.09375 748.0625 C 519.10778 763.71153 520.04538 779.3704 520.875 795.03125 C 522.24357 824.83525 522.51295 854.674 523.0625 884.5 C 522.744 889.207 523.15483 890.18075 522.4375 887.59375 C 519.30844 906.12175 606.6522 920.87175 609.78125 902.34375 C 611.51624 888.00675 611.12625 894.85275 611.21875 881.71875 C 609.8579 851.14875 609.07603 820.554 607.34375 790 C 605.00809 752.86682 602.11701 715.79487 599.40625 678.6875 C 601.87017 678.32322 604.31657 677.95123 606.78125 677.59375 C 624.04341 675.65275 640.7175 671.68075 657.03125 665.84375 C 674.48589 659.03575 642.39214 576.7545 624.9375 583.5625 C 615.43955 588.6395 604.1193 588.70175 593.8125 590.96875 C 593.55188 591.009 593.29186 591.05344 593.03125 591.09375 C 592.67296 586.90382 592.31156 582.7198 591.9375 578.53125 C 594.83552 571.79562 597.73048 565.04962 600.625 558.3125 C 615.18317 523.25854 629.24815 487.98888 644.90625 453.40625 C 646.48571 479.81007 658.36989 516.12437 670.40625 513.625 C 704.54098 506.356 738.56722 498.58775 772.625 490.96875 C 783.30114 488.57205 793.99157 486.3502 804.71875 484.21875 C 806.88471 526.99923 807.79349 569.84172 808.65625 612.65625 C 809.90043 671.69625 807.66804 730.71475 805.96875 789.71875 C 805.44643 810.76075 805.26257 831.826 802.84375 852.75 C 801.06473 871.296 888.50223 879.70125 890.28125 861.15625 C 892.18207 838.05525 892.54505 814.89575 892.59375 791.71875 C 893.63215 731.44475 895.41047 671.161 893.96875 610.875 C 892.95722 564.10623 891.98761 517.29355 889.65625 470.5625 C 894.27278 470.02282 895.53997 469.89009 906.375 468.71875 C 924.89998 466.49075 914.39999 379.148 895.875 381.375 C 887.90353 382.42716 885.3314 382.75171 883.21875 383.03125 C 879.58384 348.19737 875.30742 313.32938 874.5625 278.3125 C 874.87527 259.5465 786.40652 258.07775 786.09375 276.84375 C 787.99423 317.04141 793.56457 356.96447 798.0625 396.9375 C 783.27006 399.79874 768.52755 402.86142 753.8125 406.125 C 720.11052 413.534 686.43492 421.2625 652.40625 427.0625 C 650.66525 427.42412 649.27453 428.54823 648.15625 430.25 C 633.44756 412.64414 575.94134 390.93767 569.8125 405.3125 C 569.62056 405.76883 569.44169 406.23106 569.25 406.6875 C 561.66139 376.14947 548.82772 348.24184 518.78125 331.4375 C 512.42018 329.3855 506.25841 326.632 499.71875 325.25 C 490.84754 323.37616 481.86789 323.16298 472.90625 323.9375 C 473.91028 322.3564 474.91955 320.7807 475.90625 319.1875 C 491.18357 294.1475 505.7385 268.453 523.9375 245.375 C 534.01867 232.03255 479.09876 188.24053 458.96875 189.40625 z M 167.21875 214.84375 C 144.72242 215.42967 91.660878 249.46553 99.6875 263.125 C 119.4004 293.094 140.36279 322.24025 161.0625 351.53125 C 176.04004 373.36425 168.77158 362.5755 182.78125 383.9375 C 192.96176 399.3485 265.61802 351.3485 255.4375 335.9375 C 240.19959 313.0235 247.99753 324.50875 232.09375 301.46875 C 212.87233 274.11775 193.24501 246.94225 176 218.28125 C 174.51359 215.75172 171.38474 214.73525 167.21875 214.84375 z M 350.875 346.9375 C 354.34904 346.63442 372.40986 352.71991 367.71875 351.34375 C 360.64478 349.26815 354.13651 348.29712 348.15625 348.28125 C 348.98485 348.11268 349.82182 347.98333 350.6875 347.875 C 350.09373 347.29391 350.23166 346.99363 350.875 346.9375 z M 180.3125 407.71875 C 171.34038 407.79239 162.20422 409.27366 153.15625 411.71875 C 128.9544 420.06475 106.37029 431.7855 85.34375 446.4375 C 70.297908 457.6785 123.29791 528.58475 138.34375 517.34375 C 146.67688 511.37995 155.35565 505.9297 164.5625 501.59375 C 165.57232 516.52459 166.21807 533.86748 166.625 548.15625 C 167.61999 599.14525 166.75475 650.138 167.6875 701.125 C 169.06067 746.872 172.14428 792.566 176.46875 838.125 C 178.22841 861.139 182.57467 883.689 188.28125 906 C 189.80884 914.931 194.27061 921.878 198.65625 929.75 C 209.07533 944.38142 275.27902 898.24308 272 880.59375 C 273.70482 884.65334 276.76907 891.73388 273.71875 882.8125 C 268.69822 865.2885 264.79892 847.5535 263.3125 829.3125 C 258.64809 786.1645 255.38945 742.84875 253.96875 699.46875 C 252.96203 648.37175 254.06643 597.2905 253.5625 546.1875 C 252.94344 510.1685 254.70523 472.47275 237.96875 439.46875 C 234.49815 434.85475 231.73042 429.62 227.5625 425.625 C 213.89453 412.52559 197.44109 407.57817 180.3125 407.71875 z M 484.84375 412.375 C 487.86352 412.3602 488.73047 412.61475 485.65625 413.15625 C 487.76491 415.03724 484.33586 413.15845 482.03125 412.4375 C 483.08652 412.39877 484.05294 412.37887 484.84375 412.375 z M 480.1875 412.53125 C 480.18693 412.54174 480.18746 412.55151 480.1875 412.5625 C 480.20243 417.0895 483.0282 421.1775 484.15625 425.5625 C 485.39129 430.3635 486.17273 433.51298 486.78125 436.15625 C 483.6461 431.83495 480.271 429.47436 476.90625 430.1875 C 463.15002 433.2365 449.43275 436.48775 435.875 440.34375 C 421.43327 444.48878 406.98707 448.74145 392.78125 453.65625 C 392.80503 451.59319 392.82323 449.53208 392.84375 447.46875 C 392.80599 445.19112 392.76535 442.86444 392.71875 440.5625 C 409.57229 430.37488 428.40001 424.11313 447.21875 418.46875 C 447.2731 415.28211 468.57315 413.09533 480.1875 412.53125 z M 337.78125 435.15625 C 338.57505 435.31344 339.39298 435.46404 340.21875 435.59375 C 339.52565 435.65601 338.68465 435.47326 337.78125 435.15625 z M 180.5625 495.46875 C 187.53058 495.27635 183.85575 496.20918 179.5 495.78125 C 179.85662 495.67317 180.20418 495.57294 180.5625 495.46875 z M 493 592.25 C 490.21737 598.77674 487.42413 605.29286 484.625 611.8125 C 455.71624 618.9846 427.04197 627.04808 399.21875 637.78125 C 398.98281 632.69808 399.12484 627.56059 399.9375 622.3125 C 399.80001 615.02367 399.30058 607.78775 398.625 600.5625 C 406.97006 613.29892 416.19157 622.09109 422.375 619.03125 C 444.54782 607.85825 467.80726 599.1455 491.71875 592.5625 C 492.14474 592.44971 492.57335 592.35919 493 592.25 z M 699.375 622.875 C 681.50535 622.07506 645.12235 693.79986 661 702.0625 C 690.13212 715.9865 721.10353 725.476 751.875 735 L 767.53125 740.15625 C 785.13337 745.92725 812.32086 662.9585 794.71875 657.1875 C 789.04811 655.3365 783.38939 653.476 777.71875 651.625 C 751.99926 643.642 725.88317 635.9705 701.875 623.5625 C 701.09413 623.15614 700.25384 622.91434 699.375 622.875 z "
     id="path12201" />
</svg>
