<?xml version="1.0" encoding="UTF-8" standalone="no"?>
<svg
   xmlns:dc="http://purl.org/dc/elements/1.1/"
   xmlns:cc="http://creativecommons.org/ns#"
   xmlns:rdf="http://www.w3.org/1999/02/22-rdf-syntax-ns#"
   xmlns:svg="http://www.w3.org/2000/svg"
   xmlns="http://www.w3.org/2000/svg"
   xmlns:sodipodi="http://sodipodi.sourceforge.net/DTD/sodipodi-0.dtd"
   xmlns:inkscape="http://www.inkscape.org/namespaces/inkscape"
   width="1024"
   height="1024"
   id="U8C05"
   version="1.1"
   inkscape:version="0.48.0 r9654"
   sodipodi:docname="U+8C05.svg">
  <metadata
     id="metadata17">
    <rdf:RDF>
      <cc:Work
         rdf:about="">
        <dc:format>image/svg+xml</dc:format>
        <dc:type
           rdf:resource="http://purl.org/dc/dcmitype/StillImage" />
      </cc:Work>
    </rdf:RDF>
  </metadata>
  <defs
     id="defs15" />
  <sodipodi:namedview
     pagecolor="#ffffff"
     bordercolor="#666666"
     borderopacity="1"
     objecttolerance="10"
     gridtolerance="10"
     guidetolerance="10"
     inkscape:pageopacity="0"
     inkscape:pageshadow="2"
     inkscape:window-width="640"
     inkscape:window-height="480"
     id="namedview13"
     showgrid="false"
     inkscape:zoom="0.27441406"
     inkscape:cx="512"
     inkscape:cy="512"
     inkscape:window-x="0"
     inkscape:window-y="25"
     inkscape:window-maximized="0"
     inkscape:current-layer="U8C05" />
  <path
     style="fill:#2b0000;fill-opacity:1;fill-rule:nonzero;stroke:#f9f9f9;stroke-width:0.1;stroke-miterlimit:4;stroke-dasharray:none"
     d="M 606.75 104.375 C 586.57926 104.14651 533.74261 150.44742 544.4375 163.3125 C 562.0981 184.1105 579.03715 205.482 596.28125 226.625 C 611.05594 245.08103 627.28935 262.28873 643.0625 279.875 C 592.02607 279.15764 540.95352 279.24862 490 282.59375 C 450.2744 285.37575 410.6716 289.22525 371.125 293.90625 C 352.5218 296.30125 363.8343 383.98975 382.4375 381.59375 C 420.2162 375.57975 458.2534 371.7855 496.375 368.8125 C 552.791 364.7215 609.39865 365.2855 665.90625 366.4375 C 712.19115 367.3105 758.41445 369.4045 804.34375 375.3125 C 829.23125 378.5125 853.33875 384.9465 876.65625 394.0625 C 885.95825 398.0725 895.19635 402.2205 904.40625 406.4375 C 921.56115 414.0535 957.4673 333.20975 940.3125 325.59375 C 929.5468 320.95475 918.777 316.30875 907.9375 311.84375 C 877.8728 300.64175 846.91045 292.57175 814.96875 288.84375 C 778.22929 284.5306 741.3226 282.29504 704.375 281.125 C 720.98017 268.27006 734.28965 252.575 728.96875 245.40625 C 721.17715 235.24525 725.28105 240.40425 716.53125 230.03125 C 698.92755 210.61725 680.6078 191.8435 664.125 171.4375 C 646.7276 150.0265 629.53385 128.44475 612.53125 106.71875 C 611.21783 105.13883 609.22711 104.40306 606.75 104.375 z M 235.875 155.53125 C 214.95541 155.96209 162.26439 198.52387 172.1875 211.59375 C 189.6799 234.58975 206.89705 257.81225 224.59375 280.65625 C 237.79295 298.38325 252.63305 314.735 266.84375 331.625 L 268.5625 334.0625 C 280.0637 348.9165 350.09495 294.69775 338.59375 279.84375 C 336.97015 277.82075 335.34245 275.773 333.71875 273.75 C 320.11465 258.379 306.08435 243.3625 293.71875 226.9375 C 276.15415 204.3945 259.01885 181.516 242.59375 158.125 C 241.17616 156.258 238.86351 155.4697 235.875 155.53125 z M 273.5625 359.25 C 272.20841 359.24998 270.87221 359.285 269.5 359.34375 C 246.8526 360.18275 224.39075 363.38025 201.84375 365.53125 C 175.80425 368.15825 149.8189 371.308 123.875 374.75 C 105.2948 377.427 117.9198 465.02075 136.5 462.34375 C 161.0474 458.13275 185.7862 455.23825 210.5625 452.78125 C 229.28078 451.4431 247.94952 448.33149 266.71875 447.71875 C 263.35123 470.88237 258.74964 493.86589 254.3125 516.84375 C 246.998 555.06775 238.97845 593.1585 230.71875 631.1875 C 222.37135 668.2625 216.43925 705.76 213.34375 743.625 C 211.52045 768.994 213.5325 794.3825 215.25 819.6875 C 215.9291 831.4655 216.6612 843.246 217.6875 855 C 217.9944 865.043 220.19645 874.66075 223.90625 883.96875 C 248.64875 926.96075 285.8402 909.61925 311.5625 888.03125 C 327.7581 872.86025 344.4342 858.2665 361.6875 844.3125 C 375.5127 833.2345 390.35585 823.56625 404.84375 813.40625 C 408.99095 810.48525 413.1429 807.562 417.1875 804.5 C 432.0187 792.852 377.11245 722.94575 362.28125 734.59375 C 359.31035 736.96175 356.29075 739.28825 353.21875 741.53125 C 337.63475 753.02825 321.53575 763.83825 306.46875 776.03125 C 304.57994 777.55817 302.69193 779.08716 300.8125 780.625 C 300.27702 770.52324 300.0726 760.43587 300.625 750.3125 C 302.9878 716.3905 308.4323 682.817 315.8125 649.625 C 324.1536 611.061 332.2814 572.443 340 533.75 C 345.6637 505.649 351.87345 477.58 355.46875 449.125 C 356.91185 421.334 352.2685 395.23025 329.1875 376.90625 C 312.1925 365.79781 293.87387 359.25033 273.5625 359.25 z M 648.625 402.34375 C 627.75035 402.46009 606.91362 403.6495 586.34375 407.78125 C 562.96935 412.05925 539.8094 417.272 516.75 423 C 516.05336 423.1598 515.43221 423.45567 514.84375 423.84375 C 488.80607 421.28107 453.91041 426.28986 454.125 438.09375 C 454.4244 465.02975 455.1765 491.87675 457.5625 518.71875 C 459.9835 546.26175 465.0298 573.43225 472 600.15625 C 474.6843 613.41925 480.2821 625.091 487.3125 636.5 C 489.79382 639.91939 495.33422 639.90501 502.3125 637.71875 C 506.73721 645.61047 511.65104 650.47439 516.34375 649.28125 C 544.51795 641.86125 573.2791 637.0645 602.1875 633.6875 C 624.96726 631.33293 647.82842 631.04866 670.6875 631.6875 C 669.8803 634.36645 669.0738 637.03531 668.28125 639.71875 C 667.83631 640.95038 667.55644 641.76696 667.40625 642.1875 C 667.68265 641.48708 668.69867 638.8948 669.8125 636.0625 C 665.59358 653.46218 737.71056 695.38681 747 679.65625 C 752.8715 666.80125 751.0059 672.378 753.5625 663.375 C 758.6361 643.69 764.87015 624.325 770.34375 604.75 C 777.68415 579.886 785.3868 555.1235 794.0625 530.6875 C 799.4201 514.4615 804.80835 498 805.21875 480.75 C 804.41585 462.621 799.40585 446.1455 786.78125 432.5625 C 772.70065 419.3105 756.32435 410.674 737.03125 407.625 C 714.68525 404.083 692.096 403.146 669.5 402.5 C 662.54035 402.36125 655.58322 402.30497 648.625 402.34375 z M 274.90625 447.28125 C 277.97987 447.97446 281.30908 450.29536 277.40625 448.84375 C 276.4902 448.49492 275.66423 447.94628 274.90625 447.28125 z M 651.1875 490.125 C 656.67234 490.13719 662.17142 490.253 667.65625 490.375 C 682.87756 491.15575 698.22913 491.21537 713.34375 493.25 C 712.3111 496.76112 711.21787 500.29731 710.1875 503.5625 C 705.58643 517.1886 701.21299 530.88818 696.96875 544.625 C 694.09861 544.51757 691.24555 544.41255 688.375 544.3125 C 656.2389 543.3705 624.03975 543.6865 592.03125 547.0625 C 578.33862 548.67084 564.69516 550.57916 551.09375 552.75 C 548.1777 538.95531 546.01753 525.00034 544.78125 510.90625 C 544.66577 509.63458 544.57513 508.3656 544.46875 507.09375 C 563.484 501.93828 582.70521 497.70978 602.09375 494.1875 C 618.3101 490.8485 634.73297 490.08844 651.1875 490.125 z M 724.1875 495.1875 C 727.98429 496.36917 727.71866 497.52842 724.1875 495.1875 z M 617.53125 666 C 594.12541 666.09156 569.32086 671.50781 569.625 681.46875 C 570.9991 709.80075 570.70305 738.18125 570.15625 766.53125 C 569.34285 795.64525 567.6428 824.72275 567.0625 853.84375 C 567.0384 869.90975 567.3459 885.9485 565.625 901.9375 C 564.6409 908.1985 564.12585 914.6675 562.03125 920.6875 C 561.50195 920.5765 560.7571 921.951 559.8125 923.125 C 548.9826 938.499 621.45135 989.5625 632.28125 974.1875 C 638.27255 965.4455 643.88205 956.40625 646.96875 946.15625 C 650.34635 934.44825 652.5989 922.48475 653.75 910.34375 C 655.3459 892.00075 655.1721 873.649 654.875 855.25 C 655.2129 826.231 656.8853 797.262 657.5625 768.25 C 658.1538 738.429 658.38425 708.60725 658.03125 678.78125 C 657.76289 669.99219 638.18346 665.91921 617.53125 666 z M 780.28125 731.40625 C 762.07446 731.03806 720.12487 796.55625 734.8125 806.25 C 758.3565 820.989 780.7878 837.4005 802 855.3125 C 818.5398 869.6735 832.64275 886.40625 846.34375 903.40625 C 858.13755 917.83125 926.13755 862.2375 914.34375 847.8125 C 896.95445 826.8065 878.99335 806.19125 858.21875 788.40625 C 834.33515 768.40525 809.3015 749.95625 783.5625 732.40625 C 782.58333 731.76 781.49504 731.4308 780.28125 731.40625 z M 491.6875 734.875 C 489.68194 734.99221 488.02341 735.6615 486.84375 736.96875 C 469.95955 756.18475 453.0157 775.325 436.8125 795.125 C 424.1121 810.738 412.2711 826.9835 400.875 843.5625 C 390.3881 859.0555 463.41935 908.492 473.90625 893 C 483.58835 878.44 493.72875 864.20575 504.71875 850.59375 C 519.97505 831.88175 535.98315 813.80425 552.59375 796.28125 C 563.99718 783.6445 511.07454 733.74197 491.6875 734.875 z M 306.40625 851.84375 C 307.07956 854.53332 306.78078 854.75762 306.40625 851.84375 z "
     id="path9972" />
</svg>
