<?xml version="1.0" encoding="utf-8" ?>

<!DOCTYPE svg PUBLIC "-//W3C//DTD SVG 1.1//EN" 
  "http://www.w3.org/Graphics/SVG/1.1/DTD/svg11.dtd">
<svg 
    xmlns="http://www.w3.org/2000/svg"
    xmlns:xlink="http://www.w3.org/1999/xlink"
    xmlns:sodipodi="http://sodipodi.sourceforge.net/DTD/sodipodi-0.dtd"
    xmlns:inkscape="http://www.inkscape.org/namespaces/inkscape"
    width="1024" height="1024" id="U8C0A">
<path d="m 11477.936,58611.021 c 12.922,18.034 32.013,29.944 50.566,41.422 10.563,6.248 21.299,12.179 31.888,18.383 16.016,9.59 -29.194,85.089 -45.21,75.499 l 0,0 c -10.927,-6.715 -22.082,-13.025 -33.055,-19.666 -29.067,-18.306 -57.478,-38.298 -77.779,-66.578 -10.407,-15.611 63.183,-64.671 73.59,-49.06 z" id="path12456" inkscape:connector-curvature="0" style="fill:#2b1100;fill-opacity:1;fill-rule:nonzero;stroke:none" transform="translate(-11264, -58368)"/><path d="m 11353.971,58813.898 c 29.567,-5.352 59.299,-8.674 89.338,-9.189 29.574,0.887 60.63,7.448 80.595,31.413 4.689,5.628 7.745,12.436 11.617,18.654 15.658,41.159 9.659,85.552 5.241,128.26 -5.59,46.683 -12.431,93.197 -17.14,139.984 -2.195,25.868 -3.954,52.044 0.597,77.742 -1.294,3.176 9.508,21.781 3.726,11.797 -6.818,-8.238 -17.317,-12.527 -27.779,-10.038 -0.682,0.259 -1.365,0.519 -2.047,0.778 14.967,-11.353 68.484,59.204 53.517,70.556 l 0,0 c -3.503,2.399 -7.007,4.798 -10.51,7.197 -27.714,12.529 -56.312,13.23 -79.395,-9.536 -13.306,-17.039 -21.265,-36.041 -24.565,-57.538 -4.57,-33.219 -3.649,-66.675 0.05,-99.978 5.032,-46.636 11.904,-93.034 17.207,-139.638 2.535,-26.09 5.004,-52.39 3.175,-78.556 15.175,6.09 -7.582,-7.113 -13.366,-3.477 -25.137,0.03 -50.006,3.223 -74.56,8.62 -18.467,3.33 -34.164,-83.721 -15.698,-87.051 z" id="path12459" inkscape:connector-curvature="0" style="fill:#2b1100;fill-opacity:1;fill-rule:nonzero;stroke:none" transform="translate(-11264, -58368)"/><path d="m 11893.042,58496.632 c 9.152,21.206 21.825,40.671 32.797,60.962 8.492,14.625 12.526,30.424 16.106,46.741 3.419,18.342 -83.048,34.461 -86.467,16.118 l 0,0 c -0.433,-7.698 -3.311,-14.478 -6.864,-21.323 -12.684,-23.737 -27.66,-46.272 -38.343,-71.046 -6.672,-17.558 76.099,-49.011 82.771,-31.452 z" id="path12461" inkscape:connector-curvature="0" style="fill:#2b1100;fill-opacity:1;fill-rule:nonzero;stroke:none" transform="translate(-11264, -58368)"/><path d="m 11708.33,58675.918 c -6.324,29.93 -9.079,60.47 -12.012,90.876 -2.731,31.934 -5.012,63.897 -9.281,95.672 -2.373,15.173 -1.185,7.941 -3.534,21.701 -3.329,18.401 -90.068,2.711 -86.74,-15.689 l 0,0 c 2.254,-11.697 1.13,-5.599 3.349,-18.298 4.556,-30.436 6.627,-61.135 9.382,-91.771 3.249,-33.618 6.541,-67.271 12.317,-100.57 3.835,-18.353 90.354,-0.274 86.519,18.079 z" id="path12469" inkscape:connector-curvature="0" style="fill:#2b1100;fill-opacity:1;fill-rule:nonzero;stroke:none" transform="translate(-11264, -58368)"/><path d="m 11679.389,58659.452 c 36.247,-7.176 73.04,-10.653 109.832,-13.522 44.402,-3.054 88.901,-4.29 133.375,-5.789 35.157,-1.519 70.337,-1.979 105.521,-1.903 22.708,-0.06 45.395,0.941 68.05,2.39 29.569,1.779 43.069,6.18 64.471,28.075 18.253,27.529 14.727,58.346 8.347,88.97 -8.34,34.49 -24.81,65.876 -43.148,95.952 -9.676,15.817 -84.236,-29.798 -74.56,-45.615 l 0,0 c 13.23,-21.531 25.476,-43.879 31.771,-68.551 1.621,-7.427 2.044,-8.472 2.929,-15.491 0.623,-4.948 0.282,-6.491 0.669,-6.396 2.638,0.652 0.482,7.976 4.88,6.53 14.777,11.427 17.319,5.336 -1.377,4.528 -20.83,-1.524 -41.688,-2.692 -62.581,-2.777 -34.063,-0.359 -68.126,-0.204 -102.169,1.171 -43.109,1.328 -86.245,2.428 -129.276,5.485 -32.686,2.666 -65.501,5.611 -97.47,13.275 -18.313,4.087 -37.578,-82.246 -19.264,-86.332 z" id="path12471" inkscape:connector-curvature="0" style="fill:#2b1100;fill-opacity:1;fill-rule:nonzero;stroke:none" transform="translate(-11264, -58368)"/><path d="m 11783.664,58850.588 c 5.576,32.274 11.768,64.434 17.244,96.727 7.916,49.426 13.606,99.162 21.116,148.648 5.143,31.839 11.717,63.467 20.758,94.436 0.782,2.492 1.564,4.984 2.346,7.476 5.329,17.937 -79.224,43.059 -84.553,25.123 l 0,0 c -0.866,-3.055 -1.732,-6.11 -2.598,-9.165 -9.126,-34.603 -16.141,-69.727 -21.577,-105.097 -7.165,-48.84 -12.885,-97.889 -21.103,-146.571 -5.701,-32.113 -11.921,-64.128 -18.764,-96.018 -3.301,-18.483 83.83,-34.043 87.131,-15.559 z" id="path12502" inkscape:connector-curvature="0" style="fill:#2b1100;fill-opacity:1;fill-rule:nonzero;stroke:none" transform="translate(-11264, -58368)"/><path d="m 11746.132,58818.27 c 26.774,-17.374 56.97,-26.829 87.841,-33.706 35.348,-7.314 71.217,-7.798 106.842,-2.853 36.233,5.642 63.703,24.695 85.277,53.499 18.827,28.974 25.381,62.475 29.337,96.206 3.627,40.676 0.576,81.467 -3.154,122.004 -3.532,34.805 -6.833,69.637 -11.135,104.357 -2.978,27.222 -8.877,53.326 -22.953,76.916 -10.698,15.437 -83.467,-34.996 -72.769,-50.433 l 0,0 c -0.348,1.071 -1.774,2.355 -1.045,3.213 1.338,1.577 7.875,-27.663 7.912,-27.875 0.754,-4.277 1.357,-8.58 2.035,-12.87 4.412,-33.71 7.696,-67.553 11.234,-101.364 3.24,-34.521 6.04,-69.264 3.024,-103.92 -2.147,-19.018 -5.024,-38.22 -14.267,-55.29 -5.991,-10.45 -14.337,-15.729 -26.537,-17.767 -24.937,-4.257 -50.232,-3.103 -75.057,1.682 -20.35,4.356 -40.546,9.978 -57.848,22.044 -15.664,10.339 -64.401,-63.505 -48.737,-73.843 z" id="path12504" inkscape:connector-curvature="0" style="fill:#2b1100;fill-opacity:1;fill-rule:nonzero;stroke:none" transform="translate(-11264, -58368)"/><path d="m 11835.106,58966.869 c 27.882,-7.485 56.145,-13.407 84.488,-18.839 13.244,-2.776 26.647,-3.978 40.12,-4.776 18.678,-0.772 22.318,87.278 3.639,88.05 l 0,0 c -9.25,0.04 -18.389,1.08 -27.49,2.811 -24.629,4.582 -49.225,9.617 -73.23,16.863 -17.842,5.839 -45.369,-78.269 -27.527,-84.109 z" id="path12534" inkscape:connector-curvature="0" style="fill:#2b1100;fill-opacity:1;fill-rule:nonzero;stroke:none" transform="translate(-11264, -58368)"/><path d="m 11846.094,59082.093 c 24.592,2.052 49.231,-1.326 73.558,-4.651 19.472,-2.622 38.752,-6.442 58.18,-9.328 18.546,-2.526 30.454,84.902 11.907,87.428 l 0,0 c -19.543,2.328 -38.881,6.197 -58.417,8.613 -31.299,4.155 -62.862,7.923 -94.493,5.956 -18.671,-1.965 -9.406,-89.984 9.265,-88.018 z" id="path12536" inkscape:connector-curvature="0" style="fill:#2b1100;fill-opacity:1;fill-rule:nonzero;stroke:none" transform="translate(-11264, -58368)"/><path d="m 11567.585,59271.778 c 36.989,-11.858 75.451,-17.777 113.71,-23.808 59.815,-9.16 119.799,-17.05 179.964,-23.5 61.488,-6.383 123.301,-8.154 185.067,-9.278 42.586,-0.458 85.189,-1.763 127.749,0.285 4.755,0.457 9.509,0.914 14.264,1.371 18.526,2.027 8.974,89.359 -9.552,87.332 l 0,0 c -3.255,-0.419 -6.511,-0.837 -9.766,-1.256 -40.377,-2.804 -80.877,-1.643 -121.318,-1.537 -59.163,0.81 -118.381,2.29 -177.28,8.358 -58.626,6.315 -117.046,14.234 -175.245,23.736 -33.063,5.532 -66.55,10.458 -98.276,21.687 -17.69,6.219 -47.007,-77.171 -29.317,-83.39 z" id="path12538" inkscape:connector-curvature="0" style="fill:#2b1100;fill-opacity:1;fill-rule:nonzero;stroke:none" transform="translate(-11264, -58368)"/></svg>