<?xml version="1.0" encoding="utf-8" ?>

<!DOCTYPE svg PUBLIC "-//W3C//DTD SVG 1.1//EN" 
  "http://www.w3.org/Graphics/SVG/1.1/DTD/svg11.dtd">
<svg 
    xmlns="http://www.w3.org/2000/svg"
    xmlns:xlink="http://www.w3.org/1999/xlink"
    xmlns:sodipodi="http://sodipodi.sourceforge.net/DTD/sodipodi-0.dtd"
    xmlns:inkscape="http://www.inkscape.org/namespaces/inkscape"
    width="1024" height="1024" id="U8D5B">
<path d="m 9703.7186,40996.957 c 6.9884,19.988 14.9645,39.606 23.4304,59.009 4.6383,10.32 2.3714,5.358 6.7881,14.892 7.7283,17.057 -72.6792,53.488 -80.4074,36.431 l 0,0 c -4.7322,-10.657 -2.3104,-5.142 -7.256,-16.549 -8.7751,-20.68 -17.0294,-41.568 -25.3472,-62.435 -6.65,-17.563 76.1421,-48.911 82.7921,-31.348 z" id="path11631" inkscape:connector-curvature="0" style="fill:#a02c2c;fill-opacity:1;fill-rule:nonzero;stroke:#f9f9f9;stroke-width:0.1;stroke-miterlimit:4;stroke-dasharray:none" transform="translate(-9216, -40960)"/><path d="m 9501.9526,41179.39 c -11.5711,31.728 -23.1006,63.469 -34.9356,95.101 -11.2938,30.241 -23.2229,60.355 -30.0991,91.969 -1.1893,9.748 -1.1419,5.457 -0.7654,12.851 -0.6396,18.68 -88.6944,15.665 -88.0548,-3.015 l 0,0 c 1.2056,-19.688 0.1011,-9.814 3.3655,-29.613 8.4778,-35.114 21.0657,-68.912 33.9997,-102.603 11.6071,-31.235 23.0808,-62.534 33.163,-94.302 6.2817,-17.677 89.6083,11.935 83.3267,29.612 z" id="path11633" inkscape:connector-curvature="0" style="fill:#a02c2c;fill-opacity:1;fill-rule:nonzero;stroke:#f9f9f9;stroke-width:0.1;stroke-miterlimit:4;stroke-dasharray:none" transform="translate(-9216, -40960)"/><path d="m 9478.6058,41130.84 c 41.0878,-8.854 82.8555,-13.582 124.6248,-17.773 55.5086,-5.057 111.1138,-9.047 166.7594,-12.237 46.7146,-2.573 93.521,-2.236 140.2781,-1.375 25.4388,0.267 50.8137,2.195 76.2277,3.102 21.2992,-1.044 39.0062,4.221 56.3442,16.572 18.083,17.793 19.402,40.093 18.537,63.806 -1.788,32.532 -9.139,64.353 -17.266,95.788 -5.828,21.962 -12.761,43.595 -20.003,65.123 -6.013,17.583 -88.9008,-10.764 -82.8875,-28.347 l 0,0 c 6.7352,-19.342 13.1475,-38.798 18.3835,-58.61 6.5011,-25.183 12.4683,-50.7 13.5671,-76.791 0.5271,-21.063 0.5308,-1.419 11.1104,5.766 17.7015,10.654 21.2545,4.546 -1.687,4.802 -24.794,-1.282 -49.5383,-3.502 -74.3691,-4.075 -44.4533,-1.278 -88.9679,-1.924 -133.4015,0.385 -54.3108,2.979 -108.5767,6.9 -162.726,12.059 -37.7028,4.001 -75.5414,8.213 -112.358,17.622 -18.2046,4.483 -39.3387,-81.334 -21.1341,-85.817 z" id="path11635" inkscape:connector-curvature="0" style="fill:#a02c2c;fill-opacity:1;fill-rule:nonzero;stroke:#f9f9f9;stroke-width:0.1;stroke-miterlimit:4;stroke-dasharray:none" transform="translate(-9216, -40960)"/><path d="m 9497.3991,41270.015 c 44.1746,-4.072 88.4377,-7.072 132.6802,-10.287 53.7104,-3.757 107.4351,-7.306 161.1451,-11.068 23.5402,-2.096 47.2371,-2.72 70.7249,-5.42 18.753,-1.404 25.3735,86.998 6.6205,88.403 l 0,0 c -23.9397,1.033 -47.871,2.252 -71.7939,3.625 -53.4229,3.107 -106.8371,6.375 -160.2018,10.377 -42.4235,3.332 -84.923,6.308 -127.1212,11.919 -18.5719,2.557 -30.6257,-84.992 -12.0538,-87.549 z" id="path11637" inkscape:connector-curvature="0" style="fill:#a02c2c;fill-opacity:1;fill-rule:nonzero;stroke:#f9f9f9;stroke-width:0.1;stroke-miterlimit:4;stroke-dasharray:none" transform="translate(-9216, -40960)"/><path d="m 9670.2415,41203.362 c -13.1405,30.865 -17.8918,64.46 -22.3104,97.464 -3.8929,36.434 -5.6661,73.483 0.9448,109.684 0.8008,2.316 1.6016,4.632 2.4024,6.948 5.0412,17.935 -79.5059,41.699 -84.5471,23.764 l 0,0 c -1.4305,-5.622 -2.861,-11.245 -4.2915,-16.868 -6.526,-44.765 -5.7209,-90.052 -0.3661,-134.952 5.5347,-41.824 12.0295,-83.983 27.9658,-123.327 7.9097,-17.014 88.1119,20.273 80.2021,37.287 z" id="path11639" inkscape:connector-curvature="0" style="fill:#a02c2c;fill-opacity:1;fill-rule:nonzero;stroke:#f9f9f9;stroke-width:0.1;stroke-miterlimit:4;stroke-dasharray:none" transform="translate(-9216, -40960)"/><path d="m 9811.3182,41177.723 c -4.6878,45.738 -8.8377,91.527 -13.7636,137.244 -6.2398,53.574 -12.3596,107.146 -15.5011,161.002 -0.9852,22.701 -1.3776,45.441 -0.7214,68.157 0.2236,18.703 -87.9451,19.757 -88.1687,1.054 l 0,0 c 0.055,-24.947 0.8452,-49.893 2.3026,-74.797 3.864,-54.965 10.3323,-109.657 16.5254,-164.399 4.6433,-45.454 8.7035,-90.962 11.3943,-136.579 1.7645,-18.653 89.697,-10.335 87.9325,8.318 z" id="path11641" inkscape:connector-curvature="0" style="fill:#a02c2c;fill-opacity:1;fill-rule:nonzero;stroke:#f9f9f9;stroke-width:0.1;stroke-miterlimit:4;stroke-dasharray:none" transform="translate(-9216, -40960)"/><path d="m 9479.6523,41371.421 c 38.0079,-2.373 76.0816,-3.022 114.1521,-3.326 49.8145,-0.208 99.6294,-0.291 149.4441,-0.12 31.9307,0 63.8878,0.311 95.6436,3.891 18.5565,2.383 7.3247,89.859 -11.2318,87.476 l 0,0 c -28.1126,-4.235 -56.6198,-4.157 -84.9839,-4.642 -49.3004,-0.483 -98.6041,-0.491 -147.9047,0.01 -35.8386,0.519 -71.7466,1.115 -107.4275,4.812 -18.6903,1.632 -26.3822,-86.475 -7.6919,-88.106 z" id="path11643" inkscape:connector-curvature="0" style="fill:#a02c2c;fill-opacity:1;fill-rule:nonzero;stroke:#f9f9f9;stroke-width:0.1;stroke-miterlimit:4;stroke-dasharray:none" transform="translate(-9216, -40960)"/><path d="m 9376.0479,41512.897 c 39.0104,-10.803 79.2423,-15.416 119.4077,-19.351 62.5945,-4.845 125.3209,-7.821 188.0031,-11.307 57.6989,-3.241 115.4402,-5.585 173.2303,-6.012 32.1958,0.323 64.4475,0.527 96.5734,2.879 2.475,0.224 4.9501,0.449 7.4251,0.673 18.6482,2.044 9.0168,89.952 -9.6313,87.909 l 0,0 c -1.8272,-0.247 -3.6543,-0.494 -5.4815,-0.741 -29.4226,-3.125 -59.0859,-3.403 -88.6369,-4.12 -56.2831,-0.106 -112.5293,1.895 -168.7236,5.031 -61.348,3.403 -122.7447,6.401 -183.9697,11.627 -35.017,3.746 -70.3018,7.7 -103.9881,18.509 -18.0517,5.135 -42.2602,-79.962 -24.2085,-85.097 z" id="path11645" inkscape:connector-curvature="0" style="fill:#a02c2c;fill-opacity:1;fill-rule:nonzero;stroke:#f9f9f9;stroke-width:0.1;stroke-miterlimit:4;stroke-dasharray:none" transform="translate(-9216, -40960)"/><path d="m 9593.5695,41594.23 c -28.305,20.127 -55.1215,42.233 -81.6721,64.591 -28.4037,23.901 -54.3364,50.464 -78.6679,78.445 -6.1227,1.587 -26.432,42.568 -15.1383,18.013 -3.6793,18.448 -90.6432,1.103 -86.9639,-17.345 l 0,0 c 8.1493,-24.586 19.0931,-39.41 36.5351,-58.526 27.5382,-30.807 56.5957,-60.24 88.197,-86.926 27.8467,-23.592 56.0234,-46.785 84.8772,-69.142 15.038,-11.207 67.8709,59.683 52.8329,70.89 z" id="path11647" inkscape:connector-curvature="0" style="fill:#a02c2c;fill-opacity:1;fill-rule:nonzero;stroke:#f9f9f9;stroke-width:0.1;stroke-miterlimit:4;stroke-dasharray:none" transform="translate(-9216, -40960)"/><path d="m 9781.9235,41550.229 c 26.8519,17.216 55.0157,32.264 82.9434,47.634 33.4757,18.345 67.5434,35.573 101.6063,52.793 16.5414,8.573 33.6258,16.012 50.4888,23.91 16.86,8.185 -21.7223,87.667 -38.5829,79.482 l 0,0 c -17.1327,-8.676 -34.6591,-16.569 -51.6184,-25.595 -34.6677,-17.868 -69.3882,-35.641 -103.6626,-54.257 -29.2797,-15.93 -58.6564,-31.696 -87.4137,-48.562 -15.9958,-9.808 30.2432,-85.214 46.2391,-75.405 z" id="path11649" inkscape:connector-curvature="0" style="fill:#a02c2c;fill-opacity:1;fill-rule:nonzero;stroke:#f9f9f9;stroke-width:0.1;stroke-miterlimit:4;stroke-dasharray:none" transform="translate(-9216, -40960)"/><path d="m 9563.0436,41696.497 c -2.9032,25.405 -2.359,51.085 -1.368,76.59 0.9768,24.027 4.5593,47.808 10.3599,71.12 0.7061,2.566 1.4122,5.133 2.1183,7.7 4.7468,18.091 -80.5379,40.468 -85.2846,22.376 l 0,0 c -0.8203,-3.25 -1.6406,-6.501 -2.4608,-9.752 -6.6285,-28.963 -11.0301,-58.375 -12.0993,-88.109 -1.1389,-30.317 -1.6059,-60.737 0.9113,-91.002 2.3497,-18.63 90.173,-7.553 87.8232,11.077 z" id="path11651" inkscape:connector-curvature="0" style="fill:#a02c2c;fill-opacity:1;fill-rule:nonzero;stroke:#f9f9f9;stroke-width:0.1;stroke-miterlimit:4;stroke-dasharray:none" transform="translate(-9216, -40960)"/><path d="m 9528.3365,41668.391 c 31.4881,-18.157 67.3688,-25.657 102.7038,-32.248 40.6771,-6.725 81.7598,-10.463 122.906,-12.657 33.0122,-2.336 64.7715,0.38 94.9173,14.297 30.5157,18.709 39.9012,50.065 45.5403,83.262 4.5046,31.775 3.1777,63.848 0.1859,95.671 -1.8898,20.256 -5.6815,40.008 -12.8579,59.031 -7.2363,17.31 -88.8321,-16.803 -81.5958,-34.112 l 0,0 c 7.4234,-7.296 3.5151,-24.634 7.1662,-33.486 2.4916,-24.133 3.8051,-48.467 0.4575,-72.607 -0.2137,-1.31 -4.0842,-20.46 -3.5398,-20.489 1.4145,-0.07 2.5257,1.799 4.1084,1.085 -3.4113,-7.65 -43.1168,-5.255 -50.0463,-5.542 -37.2406,1.708 -74.4131,5.057 -111.2104,11.175 -23.6249,4.443 -47.9135,8.934 -69.4236,20.169 -15.6022,10.461 -64.9138,-63.088 -49.3116,-73.549 z" id="path11653" inkscape:connector-curvature="0" style="fill:#a02c2c;fill-opacity:1;fill-rule:nonzero;stroke:#f9f9f9;stroke-width:0.1;stroke-miterlimit:4;stroke-dasharray:none" transform="translate(-9216, -40960)"/><path d="m 9729.0993,41742.136 c -13.4707,38.243 -29.4822,75.474 -46.2138,112.38 -17.3929,37.419 -35.4626,74.546 -55.3095,110.731 -2.2877,3.804 -4.5753,7.608 -6.8629,11.412 -9.8393,15.845 -84.5346,-30.538 -74.6953,-46.383 l 0,0 c 1.72,-2.65 3.44,-5.3 5.1601,-7.95 19.3641,-33.542 36.482,-68.322 52.7769,-103.444 15.4643,-34.407 30.4761,-69.112 41.5094,-105.244 6.0453,-17.742 89.6804,10.756 83.6351,28.498 z" id="path11655" inkscape:connector-curvature="0" style="fill:#a02c2c;fill-opacity:1;fill-rule:nonzero;stroke:#f9f9f9;stroke-width:0.1;stroke-miterlimit:4;stroke-dasharray:none" transform="translate(-9216, -40960)"/><path d="m 9692.7163,41822.782 c 28.585,7.876 56.4281,18.151 84.5246,27.57 35.856,11.338 71.9753,21.808 107.867,33.035 26.136,7.897 51.6249,17.607 76.4253,28.988 16.8682,7.949 -20.6026,87.467 -37.4708,79.518 l 0,0 c -20.9622,-10.221 -42.7432,-18.528 -65.045,-25.37 -36.3344,-11.442 -72.9439,-21.956 -109.3023,-33.317 -25.6735,-8.455 -51.117,-17.877 -77.393,-24.315 -18.2665,-4.326 2.1277,-90.435 20.3942,-86.109 z" id="path11657" inkscape:connector-curvature="0" style="fill:#a02c2c;fill-opacity:1;fill-rule:nonzero;stroke:#f9f9f9;stroke-width:0.1;stroke-miterlimit:4;stroke-dasharray:none" transform="translate(-9216, -40960)"/></svg>