<?xml version="1.0" encoding="UTF-8" standalone="no"?>
<svg
   xmlns:dc="http://purl.org/dc/elements/1.1/"
   xmlns:cc="http://creativecommons.org/ns#"
   xmlns:rdf="http://www.w3.org/1999/02/22-rdf-syntax-ns#"
   xmlns:svg="http://www.w3.org/2000/svg"
   xmlns="http://www.w3.org/2000/svg"
   xmlns:sodipodi="http://sodipodi.sourceforge.net/DTD/sodipodi-0.dtd"
   xmlns:inkscape="http://www.inkscape.org/namespaces/inkscape"
   width="1024"
   height="1024"
   id="U8DD1"
   version="1.1"
   inkscape:version="0.48.0 r9654"
   sodipodi:docname="U+8DD1.svg">
  <metadata
     id="metadata19">
    <rdf:RDF>
      <cc:Work
         rdf:about="">
        <dc:format>image/svg+xml</dc:format>
        <dc:type
           rdf:resource="http://purl.org/dc/dcmitype/StillImage" />
      </cc:Work>
    </rdf:RDF>
  </metadata>
  <defs
     id="defs17" />
  <sodipodi:namedview
     pagecolor="#ffffff"
     bordercolor="#666666"
     borderopacity="1"
     objecttolerance="10"
     gridtolerance="10"
     guidetolerance="10"
     inkscape:pageopacity="0"
     inkscape:pageshadow="2"
     inkscape:window-width="640"
     inkscape:window-height="480"
     id="namedview15"
     showgrid="false"
     inkscape:zoom="0.27441406"
     inkscape:cx="512"
     inkscape:cy="512"
     inkscape:window-x="0"
     inkscape:window-y="25"
     inkscape:window-maximized="0"
     inkscape:current-layer="U8DD1" />
  <path
     style="fill:#c83737;fill-opacity:1;fill-rule:nonzero;stroke:#f9f9f9;stroke-width:0.1;stroke-miterlimit:4;stroke-dasharray:none"
     d="M 563.4375 138.5625 C 560.44653 138.63535 558.14601 139.53813 556.8125 141.46875 C 533.5277 176.16075 511.9762 211.91875 491.3125 248.21875 C 465.2473 294.31675 442.68935 342.2375 424.78125 392.0625 C 419.89592 407.22741 414.98006 422.41358 411 437.84375 C 410.71244 436.94661 410.41256 436.05338 410.125 435.15625 C 409.72426 434.89204 409.33557 434.61245 408.9375 434.34375 C 412.88147 409.84307 416.89403 385.35309 419.6875 360.6875 C 422.6519 327.9865 424.2113 294.71975 414.125 262.96875 C 403.9834 237.39675 388.7904 216.39725 362.5 205.65625 C 341.0239 197.51325 318.56455 192.7655 295.59375 191.4375 C 263.59795 190.4625 232.04075 194.60075 201.65625 205.09375 C 179.25861 213.03676 157.15714 222.10695 137.0625 234.75 C 112.97433 236.74724 86.84132 244.75845 88.15625 255.03125 C 93.51705 292.68425 95.4555 330.726 98.3125 368.625 C 101.325 409.678 105.25255 450.705 113.84375 491 C 117.42885 510.221 125.72935 525.38975 137.65625 540.46875 C 141.38275 544.15442 148.92973 541.92698 157.5625 536.5 C 164.89022 544.50514 172.01139 549.00558 176.71875 546.25 C 182.95281 542.65015 189.37573 539.43865 195.90625 536.5 C 206.34184 570.77593 210.26093 606.62047 214 642.125 C 217.7296 684.793 220.3327 727.56375 222.375 770.34375 C 222.67913 778.38099 222.92606 786.41571 223.4375 794.4375 C 214.64531 799.55385 205.84137 804.66455 197.03125 809.75 C 196.87325 809.20037 196.72897 808.64282 196.5625 808.09375 C 188.9701 782.34375 178.76735 757.518 170.09375 732.125 C 161.24485 703.939 152.97605 675.3545 149.46875 645.9375 C 147.82075 627.2595 59.7894 635.0095 61.4375 653.6875 C 66.6152 689.1715 76.18615 723.81825 86.71875 758.03125 C 94.63555 782.94725 104.9914 807.0745 111.875 832.3125 C 112.6247 838.2365 115.89575 845.927 113.34375 851.875 C 113.09345 853.81269 113.83738 855.652 115.34375 857.40625 C 103.53265 864.52021 91.779444 871.73712 80.09375 879.0625 C 64.45055 889.4375 113.3568 963.1885 129 952.8125 C 156.9358 933.7165 186.07195 916.44025 215.21875 899.28125 C 262.63605 871.55325 309.8128 843.43625 357.5625 816.28125 C 385.9863 799.84925 415.5041 785.51625 444.875 770.90625 C 445.76738 769.07545 461.37697 763.86127 451.40625 767.28125 C 467.20834 758.89092 451.27769 677.16458 433.34375 680.53125 C 423.11445 683.31225 413.50765 686.74325 404.53125 692.53125 C 374.47185 708.60325 344.0874 724.089 314.6875 741.375 C 312.56047 742.60016 310.43811 743.83491 308.3125 745.0625 C 307.08061 726.42748 305.76338 707.81391 304.40625 689.1875 C 308.44508 691.5623 312.03006 692.25351 314.6875 690.53125 C 333.5415 677.93425 354.2375 668.71125 375.875 662.15625 C 382.20365 661.12288 394.93529 657.16259 402.46875 657.96875 C 401.61332 657.69951 400.76169 657.42558 399.90625 657.15625 C 417.7733 658.65063 456.9887 588.2042 441.40625 579.3125 C 436.26925 577.1605 431.137 575.028 426 572.875 C 400.2699 568.201 374.5897 570.943 349.5625 578.5 C 331.32408 584.37391 313.57442 591.40569 296.4375 599.8125 C 292.85485 569.68368 288.15774 539.67372 280.25 510.34375 C 299.04412 506.61062 318.09417 504.66458 337.28125 504.5625 C 344.67051 525.70611 356.63268 545.4132 365.59375 542.25 C 391.94255 523.888 383.1358 534.74525 395.5 512.78125 C 398.37371 503.23099 400.10864 493.45693 401.5625 483.625 C 409.75749 482.98521 416.46587 481.29569 419.96875 478.375 C 432.67506 483.76931 451.29709 487.48625 466.5625 487.90625 C 466.90146 519.30731 466.8761 550.72283 467 582.125 C 465.8899 633.921 468.71395 685.475 476.84375 736.625 C 483.88555 778.133 497.6206 817.72425 516.375 855.28125 C 532.0829 887.18125 556.28205 910.365 586.71875 927.875 C 617.27415 943.387 650.6666 948.186 684.5 948.625 C 720.0978 947.393 754.57085 937.614 788.90625 929 C 819.06715 921.534 849.01725 913.31925 878.78125 904.40625 C 894.33945 899.94025 909.6749 894.3755 925.75 892.0625 C 944.2499 889.0035 929.84375 801.78475 911.34375 804.84375 C 891.51845 808.34175 872.3198 814.19825 853.1875 820.40625 C 824.9494 829.18625 796.4706 837.22525 767.75 844.28125 C 740.4751 851.05425 713.17315 858.93975 685.03125 860.96875 C 665.93655 861.09675 646.83965 858.89825 629.21875 851.03125 C 613.53195 843.17425 602.41625 831.36975 594.40625 815.59375 C 579.13565 786.34375 568.27875 755.2315 562.40625 722.6875 C 561.84427 719.33228 561.31692 715.95341 560.8125 712.59375 C 573.02074 709.31763 585.27677 706.28578 597.5625 703.34375 C 626.3494 696.54975 655.65895 692.2665 685.15625 690.3125 C 697.28763 690.48857 709.93559 689.24817 722.09375 690.90625 C 720.69578 690.18139 718.9984 688.59665 711.09375 684.375 C 728.49942 689.06113 781.11933 628.46646 767.71875 616.5625 C 746.56825 604.7105 756.0088 607.66375 740.6875 604.21875 C 738.94987 604.00455 737.20984 603.83408 735.46875 603.65625 C 736.51081 594.76721 737.55527 585.89509 738.46875 577 C 741.49525 550.546 745.86375 524.11075 746.46875 497.46875 C 743.81365 472.40575 734.51175 451.42025 713.65625 436.28125 C 695.92415 422.86925 676.6371 411.939 654.5 407.75 C 621.8563 403.068 589.41925 406.0765 557.53125 414.5625 C 539.38759 419.4571 521.32845 424.94327 503.875 431.875 C 504.96836 428.17468 506.0453 424.49124 507.03125 420.78125 C 513.93325 400.30927 521.87544 380.23289 530.6875 360.5625 C 535.99989 362.33901 540.28956 362.31068 542.65625 359.65625 C 559.23315 342.12525 580.45925 330.03125 601.40625 318.53125 C 630.20235 303.26925 661.04985 292.82525 692.59375 285.03125 C 719.70575 278.53425 747.49405 276.4905 775.28125 276.1875 C 789.89924 276.33767 804.55177 277.39391 818.875 280.28125 C 822.56674 308.36766 822.64161 336.81069 822.71875 365.09375 C 822.51605 409.44975 820.811 453.77675 819.0625 498.09375 C 817.6203 532.05075 816.30305 566.012 815.96875 600 C 815.47315 615.23 817.3515 630.43625 816.875 645.65625 C 817.03138 653.09062 816.63676 657.22062 816.46875 658.53125 C 816.65699 657.259 817.62569 652.18848 820.84375 643.875 C 823.11701 641.09871 825.38299 638.30731 827.65625 635.53125 C 818.91621 651.1466 870.58869 714.40126 884.6875 703.09375 C 888.7438 698.68675 892.8187 694.281 896.875 689.875 C 903.361 675.649 906.62065 662.28075 905.40625 646.71875 C 905.43195 631.19275 904.035 615.7105 903.8125 600.1875 C 903.6125 567.2375 904.51715 534.3 905.78125 501.375 C 907.43245 455.959 909.2788 410.54175 909.6875 365.09375 C 909.7858 328.62975 910.0656 291.814 904 255.75 C 895.3234 224.509 880.9024 204.37825 848.25 196.40625 C 823.863 190.97925 798.97395 188.3405 773.96875 188.5625 C 739.44895 189.1905 704.96665 192.03875 671.34375 200.34375 C 650.68383 205.59936 630.26622 211.75871 610.34375 219.21875 C 616.56191 209.93205 622.98478 200.78727 629.625 191.78125 C 638.95959 178.26688 584.37427 138.05254 563.4375 138.5625 z M 722.09375 690.90625 C 723.19713 691.47836 724.13871 691.53014 727.84375 691.9375 C 725.944 691.51266 724.02242 691.16927 722.09375 690.90625 z M 402.46875 657.96875 C 403.83375 658.39837 405.19751 658.82047 406.5625 659.25 C 405.53051 658.52434 404.12819 658.14633 402.46875 657.96875 z M 284.125 278.96875 C 286.71941 278.99251 289.33234 279.087 291.9375 279.25 C 304.8339 280.644 317.9991 282.4895 329.9375 287.8125 C 332.6995 289.6385 330.6215 290.29075 331.3125 293.46875 C 336.0018 312.93275 334.46135 333.033 332.65625 352.75 C 330.2444 374.38584 326.81425 395.87834 323.21875 417.34375 C 294.86958 418.8277 266.77988 423.06416 239.25 430.5 C 223.97652 434.61747 208.73372 438.99764 193.71875 444 C 189.11797 416.97798 186.80829 389.57695 184.65625 362.25 C 183.42939 345.25505 182.35858 328.25247 181.21875 311.25 C 196.0622 300.38408 213.45248 293.75089 230.71875 287.75 C 248.07604 282.00387 265.96415 278.80243 284.125 278.96875 z M 826.03125 281.90625 C 826.66749 282.06442 827.30283 282.20869 827.9375 282.375 C 828.7867 282.721 829.7342 282.90125 830.5 283.40625 C 831.8257 284.28021 827.70216 282.86075 826.03125 281.90625 z M 621.3125 492.78125 C 627.60101 492.69552 633.87909 493.225 640.09375 494.65625 C 646.766 496.86633 652.626 500.76079 658.09375 505.09375 C 656.24427 525.86045 653.78978 546.55627 651.53125 567.28125 C 650.1826 580.20935 648.53603 593.12536 646.96875 606.03125 C 623.54797 608.89042 600.26378 612.93936 577.28125 618.40625 C 569.34979 620.295 561.44012 622.23774 553.53125 624.21875 C 553.22143 610.18394 553.24897 596.1389 553.59375 582.0625 C 553.65564 556.93067 553.7547 531.78717 554.0625 506.65625 C 562.66404 503.79108 571.41798 501.32062 580.15625 499 C 593.58856 496.09462 607.47779 492.96986 621.3125 492.78125 z "
     id="path10190" />
</svg>
