<?xml version="1.0" encoding="utf-8" ?>

<!DOCTYPE svg PUBLIC "-//W3C//DTD SVG 1.1//EN" 
  "http://www.w3.org/Graphics/SVG/1.1/DTD/svg11.dtd">
<svg 
    xmlns="http://www.w3.org/2000/svg"
    xmlns:xlink="http://www.w3.org/1999/xlink"
    xmlns:sodipodi="http://sodipodi.sourceforge.net/DTD/sodipodi-0.dtd"
    xmlns:inkscape="http://www.inkscape.org/namespaces/inkscape"
    width="1024" height="1024" id="U8D77">
<path d="m 8302.434,38221.081 c 41.4638,-8.803 83.4333,-14.771 125.4149,-20.449 50.1614,-6.709 100.4999,-12.031 150.6074,-19.139 4.6244,-0.783 9.2488,-1.566 13.8732,-2.348 18.3593,-2.807 31.5919,83.739 13.2326,86.546 l 0,0 c -5.2463,0.727 -10.4926,1.453 -15.7389,2.18 -50.0356,6.096 -100.1872,11.252 -150.1153,18.22 -39.2088,5.585 -78.5299,11.201 -116.9465,21.043 -18.2545,4.312 -38.5819,-81.741 -20.3274,-86.053 z" id="path10673" inkscape:connector-curvature="0" style="fill:#c83737;fill-opacity:1;fill-rule:nonzero;stroke:#f9f9f9;stroke-width:0.1;stroke-miterlimit:4;stroke-dasharray:none" transform="translate(-8192, -37888)"/><path d="m 8541.1682,38048.546 c -5.0171,37.254 -6.4826,74.875 -8.0952,112.395 -2.0628,57.828 -4.4059,115.645 -6.7472,173.463 -0.7968,18.276 -86.951,14.519 -86.1542,-3.757 l 0,0 c 2.6938,-57.656 4.976,-115.33 6.533,-173.03 1.3652,-40.001 2.8869,-80.021 6.7508,-119.876 2.2921,-18.607 90.0049,-7.802 87.7128,10.805 z" id="path10675" inkscape:connector-curvature="0" style="fill:#c83737;fill-opacity:1;fill-rule:nonzero;stroke:#f9f9f9;stroke-width:0.1;stroke-miterlimit:4;stroke-dasharray:none" transform="translate(-8192, -37888)"/><path d="m 8217.1747,38456.89 c 43.0739,-29.811 93.946,-45.546 143.2416,-61.746 71.2019,-22.836 143.7664,-40.861 217.3852,-53.81 44.5468,-6.292 89.8664,-12.288 134.8407,-7.458 4.7509,1.29 9.5019,2.58 14.2529,3.87 17.6903,6.289 -11.9566,89.682 -29.6469,83.393 l 0,0 c 1.1089,-0 2.2178,-0 3.3268,-0.01 -35.2812,-7.671 -73.0885,2.298 -108.3107,4.611 -69.4776,11.561 -137.8426,28.631 -204.7695,50.655 -38.7149,13.098 -78.8925,25.508 -113.2937,48.17 -14.3553,12.097 -71.3817,-55.574 -57.0264,-67.671 z" id="path10677" inkscape:connector-curvature="0" style="fill:#c83737;fill-opacity:1;fill-rule:nonzero;stroke:#f9f9f9;stroke-width:0.1;stroke-miterlimit:4;stroke-dasharray:none" transform="translate(-8192, -37888)"/><path d="m 8573.5148,38384.308 c -7.2155,33.137 -6.6721,67.393 -6.9691,101.129 -0.01,48.431 -0.7957,96.855 -2.1823,145.265 -0.8268,25.06 -0.4192,13.017 -1.2181,36.13 -0.8044,18.523 -88.1234,14.731 -87.3189,-3.792 l 0,0 c 1.1835,-22.541 0.6053,-10.815 1.7157,-35.18 1.7601,-47.627 2.6111,-95.282 2.3913,-142.944 0.1374,-40.759 -0.1624,-81.897 7.7657,-122.062 4.5511,-18.205 90.3667,3.249 85.8157,21.454 z" id="path10679" inkscape:connector-curvature="0" style="fill:#c83737;fill-opacity:1;fill-rule:nonzero;stroke:#f9f9f9;stroke-width:0.1;stroke-miterlimit:4;stroke-dasharray:none" transform="translate(-8192, -37888)"/><path d="m 8511.0837,38530.126 c 35.0213,-18.654 73.9252,-27.061 112.8298,-32.846 22.1136,-1.186 46.9902,-5.626 68.4879,2.566 6.3849,2.434 12.1546,6.247 18.2319,9.37 15.3766,10.795 -35.5085,83.281 -50.8851,72.486 l 0,0 c 26.3348,9.122 -11.8361,-3.573 -23.4744,1.875 -27.2353,3.704 -54.8149,8.977 -79.2687,22.143 -16.0358,9.742 -61.9573,-65.852 -45.9214,-75.594 z" id="path10681" inkscape:connector-curvature="0" style="fill:#c83737;fill-opacity:1;fill-rule:nonzero;stroke:#f9f9f9;stroke-width:0.1;stroke-miterlimit:4;stroke-dasharray:none" transform="translate(-8192, -37888)"/><path d="m 8424.1162,38503.018 c -20.309,28.246 -33.6687,60.705 -47.5251,92.403 -20.0024,47.096 -39.0299,94.596 -58.8632,141.763 -2.2122,5.104 -4.4244,10.209 -6.6366,15.313 -7.604,16.92 -87.3637,-18.925 -79.7598,-35.845 l 0,0 c 2.1648,-4.635 4.3297,-9.27 6.4945,-13.905 20.6972,-46.828 39.8013,-94.327 59.4134,-141.616 16.3342,-38.216 32.5408,-76.877 56.2247,-111.27 11.2764,-14.987 81.9284,38.17 70.6521,53.157 z" id="path10683" inkscape:connector-curvature="0" style="fill:#c83737;fill-opacity:1;fill-rule:nonzero;stroke:#f9f9f9;stroke-width:0.1;stroke-miterlimit:4;stroke-dasharray:none" transform="translate(-8192, -37888)"/><path d="m 8308.2517,38651.419 c 31.4672,14.845 64.6528,25.45 98.0122,35.076 58.0973,15.594 118.2024,21.148 177.7501,28.304 66.5427,7.392 132.3411,19.687 198.0309,32.364 51.3162,10.96 103.3511,16.564 155.7755,16.603 39.844,-0.06 78.3009,-8.791 115.1292,-23.415 26.6458,-11.601 51.1974,-27.294 75.6091,-42.914 15.7766,-9.918 62.5281,64.454 46.7515,74.371 l 0,0 c -29.392,18.166 -58.8978,36.481 -90.925,49.728 -47.1616,17.914 -96.1875,28.901 -146.9326,28.626 -57.836,-0.42 -115.3011,-6.235 -171.8839,-18.611 -63.5476,-12.552 -127.1935,-24.842 -191.6492,-31.848 -64.1068,-7.54 -128.7708,-13.382 -191.3576,-29.947 -37.7853,-10.627 -75.1835,-22.599 -111.3279,-38.016 -17.0388,-7.852 19.9789,-88.174 37.0177,-80.321 z" id="path10685" inkscape:connector-curvature="0" style="fill:#c83737;fill-opacity:1;fill-rule:nonzero;stroke:#f9f9f9;stroke-width:0.1;stroke-miterlimit:4;stroke-dasharray:none" transform="translate(-8192, -37888)"/><path d="m 8723.7205,38124.777 c 35.7587,-10.113 73.0407,-12.889 109.9623,-15.295 33.7857,-1.67 67.6683,-2.169 101.4146,0.395 35.0467,3.34 55.2255,18.494 70.4519,49.874 9.4375,26.622 8.8581,55.032 8.322,82.868 -0.2923,29.346 -2.7552,58.38 -9.4572,86.959 -4.4398,18.086 -89.6991,-2.844 -85.2592,-20.93 l 0,0 c 5.864,-22.055 6.2386,-44.915 6.9634,-67.616 0.26,-15.545 0.546,-31.158 -1.8072,-46.577 6.5005,3.548 16.5987,7.561 3.1503,3.049 -29.2654,-3.001 -58.764,-2.429 -88.1181,-1.186 -28.9219,1.885 -58.2856,3.807 -86.2473,11.947 -17.7105,6.232 -47.086,-77.257 -29.3755,-83.488 z" id="path10687" inkscape:connector-curvature="0" style="fill:#c83737;fill-opacity:1;fill-rule:nonzero;stroke:#f9f9f9;stroke-width:0.1;stroke-miterlimit:4;stroke-dasharray:none" transform="translate(-8192, -37888)"/><path d="m 8764.7621,38359.77 c 34.1989,-4.819 68.4071,-9.533 102.5585,-14.683 32.9629,-5.227 65.8221,-11.702 99.2848,-9.295 18.6029,1.972 9.3058,89.667 -9.2971,87.694 l 0,0 c -22.404,-5.766 -54.2082,7.08 -76.9656,7.625 -33.1457,5.037 -66.3901,9.565 -99.3645,15.636 -18.4507,3.44 -34.6668,-83.537 -16.2161,-86.977 z" id="path10689" inkscape:connector-curvature="0" style="fill:#c83737;fill-opacity:1;fill-rule:nonzero;stroke:#f9f9f9;stroke-width:0.1;stroke-miterlimit:4;stroke-dasharray:none" transform="translate(-8192, -37888)"/><path d="m 8875.866,38464.102 c -9.8739,28.176 -15.3303,57.686 -20.6837,86.985 -3.1405,26.062 -10.5623,54.145 -2.4074,79.976 5.8179,5.18 18.6915,5.003 26.521,6.168 38.5549,3.414 77.3045,-0.237 115.7324,-3.604 39.4689,-3.44 78.7269,-8.761 117.8163,-15.149 21.1067,-3.478 42.1968,-7.204 62.7333,-13.262 17.9874,-5.007 41.5896,79.786 23.6022,84.793 l 0,0 c -23.8667,6.371 -48.1299,10.904 -72.5518,14.6 -41.1787,6.459 -82.5103,11.905 -124.0536,15.437 -45.7876,3.986 -91.9866,8.312 -137.876,3.373 -46.9491,-8.447 -81.2279,-23.911 -97.3594,-72.251 -7.9936,-38.553 -5.2499,-77.109 2.1827,-115.679 6.37,-35.091 13.0169,-70.307 24.2147,-104.239 6.9689,-17.422 89.0982,15.429 82.1293,32.852 z" id="path10691" inkscape:connector-curvature="0" style="fill:#c83737;fill-opacity:1;fill-rule:nonzero;stroke:#f9f9f9;stroke-width:0.1;stroke-miterlimit:4;stroke-dasharray:none" transform="translate(-8192, -37888)"/></svg>