<?xml version="1.0" encoding="UTF-8" standalone="no"?>
<svg
   xmlns:dc="http://purl.org/dc/elements/1.1/"
   xmlns:cc="http://creativecommons.org/ns#"
   xmlns:rdf="http://www.w3.org/1999/02/22-rdf-syntax-ns#"
   xmlns:svg="http://www.w3.org/2000/svg"
   xmlns="http://www.w3.org/2000/svg"
   xmlns:sodipodi="http://sodipodi.sourceforge.net/DTD/sodipodi-0.dtd"
   xmlns:inkscape="http://www.inkscape.org/namespaces/inkscape"
   width="1024"
   height="1024"
   id="U8DEF"
   version="1.1"
   inkscape:version="0.48.0 r9654"
   sodipodi:docname="U+8DEF.svg">
  <metadata
     id="metadata20">
    <rdf:RDF>
      <cc:Work
         rdf:about="">
        <dc:format>image/svg+xml</dc:format>
        <dc:type
           rdf:resource="http://purl.org/dc/dcmitype/StillImage" />
      </cc:Work>
    </rdf:RDF>
  </metadata>
  <defs
     id="defs18" />
  <sodipodi:namedview
     pagecolor="#ffffff"
     bordercolor="#666666"
     borderopacity="1"
     objecttolerance="10"
     gridtolerance="10"
     guidetolerance="10"
     inkscape:pageopacity="0"
     inkscape:pageshadow="2"
     inkscape:window-width="640"
     inkscape:window-height="480"
     id="namedview16"
     showgrid="false"
     inkscape:zoom="0.27441406"
     inkscape:cx="512"
     inkscape:cy="512"
     inkscape:window-x="0"
     inkscape:window-y="25"
     inkscape:window-maximized="0"
     inkscape:current-layer="U8DEF" />
  <path
     style="fill:#2b0000;fill-opacity:1;fill-rule:nonzero;stroke:#f9f9f9;stroke-width:0.1;stroke-miterlimit:4;stroke-dasharray:none"
     d="M 557.84375 134.875 C 554.85055 134.90066 552.52071 135.77725 551.15625 137.6875 C 532.76495 166.6505 517.1438 197.24925 501.8125 227.90625 C 482.1743 267.20925 465.22785 307.7465 449.03125 348.5625 C 439.59955 371.2755 430.7911 394.25175 429.5 418.96875 C 432.3654 427.60275 435.22835 436.241 438.09375 444.875 C 447.95485 459.44748 512.70729 417.06579 512.78125 398.625 C 514.5329 404.76938 516.27953 410.91796 518.03125 417.0625 C 518.22899 416.05279 518.43774 415.11006 518.59375 414.5 C 521.29003 403.95572 525.23984 393.7702 529.0625 383.59375 C 546.09748 401.24597 563.11486 418.91505 580.1875 436.53125 C 583.85321 440.49539 587.57737 444.40094 591.34375 448.25 C 576.06288 462.8001 560.7993 477.3744 545.53125 491.9375 C 524.65855 511.5365 503.79115 531.11225 483.34375 551.15625 C 478.19455 556.33825 473.07765 561.6125 466.59375 565.0625 C 463.33577 566.936 457.50821 569.44807 469.8125 563.96875 C 454.10393 572.82275 479.22101 653.96263 496.875 648.59375 C 502.5649 646.18875 507.38945 644.37675 512.40625 641.09375 C 524.68885 633.43775 535.77515 624.2235 545.59375 613.5625 C 565.27485 593.5385 585.4877 574.02525 605.8125 554.65625 C 622.63376 538.3815 639.46484 522.11978 656.375 505.9375 C 669.75542 516.31114 683.53496 526.22457 697.625 535.71875 C 724.53272 553.2047 753.38159 567.14496 782.4375 580.59375 C 766.59997 579.57107 750.67422 579.86028 734.75 581.46875 C 700.5816 584.86575 666.70815 590.65075 634.28125 602.34375 C 611.08332 610.86144 588.30677 620.6403 568.125 634.8125 C 541.72473 632.28391 503.22534 638.68255 503.9375 651.09375 C 506.6941 681.33175 508.44455 711.6505 510.53125 741.9375 C 512.36485 770.5355 516.19205 798.95475 522.78125 826.84375 C 525.20145 839.35275 531.439 848.75775 538.5 859.09375 C 542.06815 863.23072 550.25101 861.25414 559.78125 856.0625 C 563.3609 875.45267 570.42056 892.54951 578.78125 891.375 C 606.19855 887.605 633.96855 887.237 661.59375 886.375 C 689.32832 885.65099 717.09066 884.99017 744.8125 886.03125 C 744.19465 890.66413 744.20599 892.02799 745.625 886.0625 C 750.98184 886.27015 756.33426 886.52707 761.6875 886.875 C 762.53959 887.09093 763.41319 887.27741 764.3125 887.4375 C 767.49365 913.80203 781.53779 949.40357 793.4375 946.1875 C 821.0743 932.3065 809.72535 941.85725 827.90625 918.03125 C 833.37865 900.80625 834.5523 883.59875 835.8125 865.59375 C 839.4315 836.19275 842.8679 806.7575 848.6875 777.6875 C 853.8855 752.5075 860.1614 727.56425 868.6875 703.28125 C 875.7268 681.89625 884.76355 660.95925 880.15625 637.90625 C 876.12171 626.39269 871.07442 617.10305 864.625 609.59375 C 884.20864 593.82804 910.09518 546.84243 897.75 539.03125 C 881.997 529.70025 865.2342 522.31425 848.5625 514.78125 C 813.691 499.11425 778.2356 484.31175 745.875 463.71875 C 737.18552 457.93559 728.64619 451.93652 720.28125 445.75 C 748.74443 418.93597 777.05501 391.9785 805.65625 365.3125 C 826.07985 346.7125 847.6834 329.4665 867.9375 310.6875 C 873.7693 304.4075 882.92915 295.594 885.53125 287.375 C 897.54275 249.435 880.88435 223.4605 843.15625 217.1875 C 819.68385 215.3825 796.11675 216.796 772.65625 218.25 C 737.26975 220.895 701.987 224.74925 666.5 225.90625 C 643.65283 227.0256 620.51722 227.96275 597.90625 231.625 C 605.74631 217.11631 614.01675 202.84272 623.21875 189.15625 C 632.77007 175.7845 578.79612 134.69538 557.84375 134.875 z M 518.03125 417.0625 C 517.48738 419.83965 516.99173 423.12367 517.59375 421.5 C 518.02495 420.337 518.0328 419.06475 518.25 417.84375 C 518.17587 417.58371 518.10538 417.32254 518.03125 417.0625 z M 375.5 157.84375 C 374.04013 157.84636 372.56581 157.86981 371.09375 157.90625 C 338.78925 158.09325 306.47675 159.77625 274.40625 163.78125 C 241.84915 168.80225 209.4976 175.5835 179.1875 188.9375 C 162.0422 196.5585 197.9797 277.37 215.125 269.75 C 237.89 258.66 262.7975 253.9365 287.625 250.1875 C 313.31633 247.14534 339.16662 245.73799 365.03125 245.71875 C 360.01454 258.61072 354.67163 271.38661 349.59375 284.25 C 337.41085 315.119 326.73805 346.5245 317.65625 378.4375 C 314.18912 390.65189 311.40765 403.03103 309.375 415.53125 C 289.27033 414.43911 269.104 414.7104 248.9375 416.6875 C 213.7527 420.0515 178.72055 424.69875 143.90625 430.84375 C 125.46765 434.30075 141.78015 521.208 160.21875 517.75 C 172.15799 515.13447 184.16139 512.90909 196.21875 510.96875 C 196.3005 539.82289 196.28209 568.67684 196.625 597.53125 C 197.6057 636.95225 197.4446 676.37625 196.0625 715.78125 C 195.96043 719.63174 195.80129 723.46737 195.625 727.3125 C 181.02375 731.98024 166.43922 736.77241 151.90625 741.65625 C 150.3123 742.18882 148.71846 742.71604 147.125 743.25 C 145.55847 731.19536 145.39853 718.94276 145.34375 706.8125 C 145.65505 682.6205 145.48485 658.413 146.71875 634.25 C 147.66405 615.501 59.28905 611.03225 58.34375 629.78125 C 57.99705 655.02025 57.96455 680.26 57.53125 705.5 C 57.16175 726.34 58.18875 747.20225 61.53125 767.78125 C 61.742549 769.16663 62.014143 770.81729 62.3125 772.5 C 56.017436 774.73255 49.723073 776.95854 43.4375 779.21875 C 25.8988 785.91475 57.49265 868.571 75.03125 861.875 C 109.44065 847.847 144.52365 835.66075 179.65625 823.59375 C 231.41995 805.78875 283.7657 789.77375 336.5625 775.34375 C 369.4366 766.07075 402.8905 759.07575 436.9375 756.21875 C 436.81561 756.15138 463.76475 754.87338 464.6875 755 C 482.29344 751.28453 483.81288 666.64317 465.40625 666.21875 C 453.05455 666.46275 440.72565 667.86375 428.40625 668.71875 C 389.48355 672.94575 351.21045 681.2105 313.59375 692.0625 C 303.67058 694.82627 293.77143 697.67621 283.875 700.53125 C 284.07579 684.45661 284.12043 668.38634 284.0625 652.3125 C 304.41232 646.27643 325.31968 642.43203 346.34375 639.625 C 356.15189 639.20416 367.04735 637.07805 376.84375 639.15625 C 376.85333 639.15899 376.86542 639.15351 376.875 639.15625 C 377.65487 639.32241 378.4227 639.52714 379.1875 639.75 C 379.04148 639.7431 378.89372 639.73563 378.75 639.71875 C 379.59835 639.96148 380.4642 640.19477 381.3125 640.4375 C 380.63377 640.18269 379.94289 639.95339 379.25 639.75 C 397.14561 640.42201 431.92066 567.25374 415.75 559.375 L 405.15625 555.09375 C 381.87985 549.38775 358.0882 549.49675 334.375 552.71875 C 317.20594 555.1388 300.13551 558.10376 283.21875 561.8125 C 283.23346 541.88645 283.44783 521.95134 283.96875 502.03125 C 305.10237 501.91818 326.17739 503.97605 347.03125 507.84375 C 350.65807 506.46386 380.34717 518.8295 366.5 512.53125 C 383.77733 517.06186 430.85362 449.95101 416.125 439.4375 C 409.6001 435.70943 402.95108 432.59736 396.15625 430.03125 C 397.54705 420.59792 399.6602 411.25763 402.03125 402.03125 C 409.96475 373.03525 419.76485 344.61675 430.96875 316.71875 C 440.08335 294.13575 450.2409 271.90375 457.75 248.71875 C 464.9772 219.47475 463.3218 191.86175 437.4375 171.96875 C 417.92709 161.65625 397.39804 157.80455 375.5 157.84375 z M 378.75 639.71875 C 378.12604 639.54022 377.49896 639.33478 376.875 639.15625 C 377.47175 639.4434 378.10232 639.6427 378.75 639.71875 z M 140.59375 218.65625 C 116.07956 218.4419 88.337019 224.33544 88.8125 234.875 C 90.8819 266.32 93.2765 297.704 97 329 C 100.1103 355.635 107.0081 381.51375 114.375 407.21875 C 116.0497 413.33675 117.47065 419.51575 119.28125 425.59375 C 125.28335 443.46775 209.5646 415.15425 203.5625 397.28125 C 203.4859 397.04325 199.86365 385.21675 198.96875 381.96875 C 192.47865 361.17875 186.45565 340.188 183.78125 318.5 C 180.20725 289.403 177.90155 260.191 177.15625 230.875 C 176.78643 222.67712 159.66034 218.82297 140.59375 218.65625 z M 798.90625 252.84375 C 799.32206 252.85479 799.81463 252.9526 800.3125 253.0625 C 799.30562 253.97144 798.3223 254.90695 797.3125 255.8125 C 797.1552 253.40538 797.8381 252.81539 798.90625 252.84375 z M 567.0625 292.53125 C 568.21943 295.04595 569.40283 297.48616 570.65625 299.84375 C 569.13531 298.15831 567.60794 296.47286 566.09375 294.78125 C 566.0733 294.75926 566.05197 294.74036 566.03125 294.71875 C 566.37188 293.98647 566.71999 293.26267 567.0625 292.53125 z M 829 304.59375 C 830.87215 304.76807 832.73209 304.96832 834.59375 305.25 C 832.64993 305.26513 830.79773 305.03565 829 304.59375 z M 738.65625 308.59375 C 710.60857 335.36062 682.5946 362.16223 654.40625 388.78125 C 650.39716 384.69982 646.44343 380.54071 642.5625 376.3125 C 625.56456 358.63126 608.58724 340.9223 591.875 322.96875 C 592.79746 323.02565 593.71146 322.88341 594.5625 322.53125 C 619.1093 314.66825 645.37875 314.338 670.90625 313 C 693.54005 312.19936 716.08979 310.41141 738.65625 308.59375 z M 762.09375 667.65625 C 770.31676 667.55991 778.51755 667.94721 786.65625 668.96875 C 785.8162 672.29459 785.17645 675.1115 784.84375 676.15625 C 775.59835 703.61425 768.80575 731.762 763.03125 760.125 C 760.49882 773.03393 758.3393 785.99868 756.375 799 C 723.96299 797.7279 691.52329 798.30848 659.09375 799.09375 C 641.77454 799.54437 624.43616 799.94702 607.125 800.78125 C 601.87035 779.52304 599.22938 757.70739 597.65625 735.875 C 596.97314 726.08081 596.33912 716.29967 595.71875 706.5 C 603.65752 711.80927 610.61909 714.04876 614.34375 710.6875 C 628.70915 698.0005 646.5534 691.08925 664.3125 684.65625 C 689.763 675.53025 716.34315 671.08375 743.15625 668.59375 C 749.45331 668.07781 755.78479 667.73016 762.09375 667.65625 z M 803.34375 672.0625 C 810.46916 675.04927 806.64969 673.97483 803.34375 672.0625 z "
     id="path10346" />
</svg>
