<?xml version="1.0" encoding="utf-8" ?>

<!DOCTYPE svg PUBLIC "-//W3C//DTD SVG 1.1//EN" 
  "http://www.w3.org/Graphics/SVG/1.1/DTD/svg11.dtd">
<svg 
    xmlns="http://www.w3.org/2000/svg"
    xmlns:xlink="http://www.w3.org/1999/xlink"
    xmlns:sodipodi="http://sodipodi.sourceforge.net/DTD/sodipodi-0.dtd"
    xmlns:inkscape="http://www.inkscape.org/namespaces/inkscape"
    width="1024" height="1024" id="U8D70">
<path d="m 7497.9761,66769.061 c 41.1232,-10.718 82.7462,-19.224 124.5683,-26.68 48.4032,-8.815 97.4577,-11.095 146.5187,-9.3 16.4579,0.796 32.8537,2.322 49.1302,4.863 18.462,3.316 2.8296,90.347 -15.6325,87.031 l 0,0 c -12.2843,-2.75 -24.8632,-3.665 -37.3839,-4.719 -42.6134,-2.299 -85.2498,-0.65 -127.3186,7.14 -38.9734,7.099 -77.866,15.064 -115.7702,26.727 -18.0443,5.114 -42.1562,-79.947 -24.112,-85.062 z" id="path15741" inkscape:connector-curvature="0" style="fill:#2b1100;fill-opacity:1;fill-rule:nonzero;stroke:none" transform="translate(-7168, -66560)"/><path d="m 7731.657,66675.178 c -4.0719,41.198 -6.6963,82.523 -9.132,123.845 -3.3004,49.221 -3.5217,98.52 -0.3896,147.734 0.977,18.471 -86.0961,23.077 -87.0731,4.606 l 0,0 c -2.2539,-52.357 -1.676,-104.74 1.493,-157.061 2.1419,-42.019 4.5949,-84.019 6.8707,-126.029 1.4648,-18.717 89.6958,-11.812 88.231,6.905 z" id="path15743" inkscape:connector-curvature="0" style="fill:#2b1100;fill-opacity:1;fill-rule:nonzero;stroke:none" transform="translate(-7168, -66560)"/><path d="m 7359.7626,66961.417 c 39.475,-13.407 80.7247,-20.307 121.6851,-27.397 66.6813,-11.608 133.3585,-23.145 200.3955,-32.515 56.5482,-7.666 113.4385,-12.183 170.4043,-15.168 30.8686,-1.413 61.7674,-2.348 92.6698,-2.431 10.6193,0.143 5.1429,-0.138 16.4246,0.928 18.6337,2.589 6.4259,90.429 -12.2078,87.84 l 0,0 c 0.2104,-0.101 0.4207,-0.201 0.6311,-0.302 -1.9234,-0.11 -3.8468,-0.22 -5.7702,-0.33 -29.2144,-0.751 -58.4493,0 -87.6497,0.964 -54.4078,2.279 -108.7563,6.129 -162.7694,13.242 -65.9595,9.041 -131.5131,20.524 -196.9667,32.676 -35.3072,6.509 -71.0923,12.494 -104.8845,25 -17.5023,6.78 -49.4644,-75.727 -31.9621,-82.507 z" id="path15745" inkscape:connector-curvature="0" style="fill:#2b1100;fill-opacity:1;fill-rule:nonzero;stroke:none" transform="translate(-7168, -66560)"/><path d="m 7717.9783,66987.011 c -1.5511,39.989 -1.9165,80.016 -2.5095,120.029 0.1187,39.195 -2.861,78.51 0.3346,117.639 0.428,1.96 0.856,3.921 1.2839,5.881 2.8838,18.457 -84.1256,32.051 -87.0094,13.594 l 0,0 c -0.6057,-4.656 -1.2115,-9.312 -1.8173,-13.968 -2.0291,-41.414 0.521,-82.842 0.6978,-124.277 0.4556,-40.275 0.8512,-80.555 0.6547,-120.833 0.4104,-18.745 88.7757,-16.81 88.3652,1.935 z" id="path15747" inkscape:connector-curvature="0" style="fill:#2b1100;fill-opacity:1;fill-rule:nonzero;stroke:none" transform="translate(-7168, -66560)"/><path d="m 7693.63,67075.425 c 33.1116,-4.213 66.1331,-9.001 99.3438,-12.401 28.2846,-2.839 56.8001,-4.112 84.6649,2.116 5.7104,2.89 11.4208,5.78 17.1311,8.671 15.3356,10.913 -36.1102,83.205 -51.4457,72.292 l 0,0 c 3.726,1.478 7.4519,2.957 11.1779,4.435 -15.8049,-4.505 -35.8241,-1.425 -52.8483,-0.673 -32.0311,3.114 -63.8811,7.697 -95.6149,13.042 -18.5578,2.632 -30.9666,-84.85 -12.4088,-87.482 z" id="path15749" inkscape:connector-curvature="0" style="fill:#2b1100;fill-opacity:1;fill-rule:nonzero;stroke:none" transform="translate(-7168, -66560)"/><path d="m 7579.3675,67016.212 c -5.6911,35.489 -15.5941,69.989 -26.8519,104.052 -18.0071,51.256 -41.4787,100.316 -65.3043,149.057 -15.5264,31.028 -30.3022,62.463 -48.6678,91.943 -8.5853,11.712 -3.9835,6.123 -13.8007,16.773 -13.3208,13.252 -75.7893,-49.543 -62.4685,-62.795 l 0,0 c -0.023,0.243 -0.045,0.487 -0.068,0.73 0.7337,-0.793 1.4674,-1.587 2.2012,-2.38 17.4874,-26.082 30.853,-54.568 45.2558,-82.406 22.2635,-44.992 43.9951,-90.388 60.3534,-137.931 9.4846,-29.294 18.0701,-58.999 21.7387,-89.672 2.679,-18.585 90.2911,-5.956 87.6121,12.629 z" id="path15751" inkscape:connector-curvature="0" style="fill:#2b1100;fill-opacity:1;fill-rule:nonzero;stroke:none" transform="translate(-7168, -66560)"/><path d="m 7498.5813,67228.967 c 38.5242,15.317 78.0319,27.948 117.6566,40.058 59.1886,18.652 120.2866,29.28 181.6711,37.385 54.4186,6.378 109.0573,10.67 163.6858,14.783 33.1179,2.307 66.2662,4.382 99.4741,4.379 18.2959,-0.06 36.4866,-2.061 54.6413,-4.104 2.3541,-0.243 4.7082,-0.486 7.0622,-0.729 18.6684,-1.806 27.1829,86.198 8.5145,88.004 l 0,0 c -2.0784,0.186 -4.1569,0.372 -6.2353,0.558 -21.438,2.153 -42.9277,4.108 -64.4991,3.973 -35.3512,-0.39 -70.6201,-2.808 -105.8508,-5.663 -56.0959,-4.723 -112.2046,-9.524 -168.1056,-16.22 -65.9052,-8.841 -131.4925,-20.343 -195.1972,-39.854 -41.0561,-12.18 -81.8774,-25.094 -122.2999,-39.251 -17.6747,-6.254 11.8076,-89.573 29.4823,-83.319 z" id="path15759" inkscape:connector-curvature="0" style="fill:#2b1100;fill-opacity:1;fill-rule:nonzero;stroke:none" transform="translate(-7168, -66560)"/></svg>