<?xml version="1.0" encoding="UTF-8" standalone="no"?>
<svg
   xmlns:dc="http://purl.org/dc/elements/1.1/"
   xmlns:cc="http://creativecommons.org/ns#"
   xmlns:rdf="http://www.w3.org/1999/02/22-rdf-syntax-ns#"
   xmlns:svg="http://www.w3.org/2000/svg"
   xmlns="http://www.w3.org/2000/svg"
   xmlns:sodipodi="http://sodipodi.sourceforge.net/DTD/sodipodi-0.dtd"
   xmlns:inkscape="http://www.inkscape.org/namespaces/inkscape"
   width="1024"
   height="1024"
   id="U8D1F"
   version="1.1"
   inkscape:version="0.48.0 r9654"
   sodipodi:docname="U+8D1F.svg">
  <metadata
     id="metadata13">
    <rdf:RDF>
      <cc:Work
         rdf:about="">
        <dc:format>image/svg+xml</dc:format>
        <dc:type
           rdf:resource="http://purl.org/dc/dcmitype/StillImage" />
      </cc:Work>
    </rdf:RDF>
  </metadata>
  <defs
     id="defs11" />
  <sodipodi:namedview
     pagecolor="#ffffff"
     bordercolor="#666666"
     borderopacity="1"
     objecttolerance="10"
     gridtolerance="10"
     guidetolerance="10"
     inkscape:pageopacity="0"
     inkscape:pageshadow="2"
     inkscape:window-width="640"
     inkscape:window-height="480"
     id="namedview9"
     showgrid="false"
     inkscape:zoom="0.27441406"
     inkscape:cx="512"
     inkscape:cy="512"
     inkscape:window-x="0"
     inkscape:window-y="25"
     inkscape:window-maximized="0"
     inkscape:current-layer="U8D1F" />
  <path
     style="fill:#550000;fill-opacity:1;fill-rule:nonzero;stroke:#f9f9f9;stroke-width:0.1;stroke-miterlimit:4;stroke-dasharray:none"
     d="M 405.84375 23.5 C 403.39582 23.597393 401.47267 24.370016 400.21875 25.96875 C 376.20465 59.11975 356.53655 95.08375 337.46875 131.21875 C 314.35835 176.19875 293.79815 222.412 273.59375 268.75 C 271.16515 274.358 268.7412 279.98475 266.3125 285.59375 C 259.1732 302.47175 338.7356 336.128 345.875 319.25 C 348.1498 313.739 350.4127 308.22875 352.6875 302.71875 C 365.43512 272.5212 378.55202 242.44897 392.625 212.84375 C 398.13833 221.5602 404.04347 226.91375 409 225.15625 C 442.1394 213.16325 476.07875 203.538 510.15625 194.625 C 547.65115 185.211 585.837 178.54275 624.4375 176.21875 C 625.11739 176.40234 625.95484 176.46998 626.90625 176.5 C 626.86404 176.61177 626.82416 176.69988 626.78125 176.8125 C 620.90145 192.2475 613.69345 206.9775 606.46875 221.8125 C 590.41188 253.73999 572.79035 284.89577 551.9375 313.9375 C 517.77497 317.55317 483.93383 323.81744 450.78125 333.65625 C 412.85644 345.21184 374.20075 357.43314 340.1875 378.15625 C 339.81759 372.88618 339.44651 367.61308 339.0625 362.34375 C 337.5566 343.82175 250.2441 350.94675 251.75 369.46875 C 255.9345 405.56875 258.2549 441.83075 260.4375 478.09375 C 262.8642 519.87675 264.58685 561.733 268.90625 603.375 C 269.62515 608.139 270.3436 612.89125 271.0625 617.65625 C 274.1027 635.85825 359.9152 621.5145 356.875 603.3125 L 355.03125 593.59375 C 350.02905 553.62475 348.50905 513.312 346.15625 473.125 C 345.35468 458.70226 344.48625 444.29102 343.59375 429.875 C 358.12968 446.42024 376.24348 459.93198 383.25 453.75 C 411.4145 435.422 443.99225 425.22425 475.84375 415.40625 C 522.87915 401.37825 571.5357 396.00025 620.4375 395.78125 C 652.432 396.48425 684.36785 400.37525 714.78125 410.53125 C 728.18185 415.72125 729.49525 417.42275 731.03125 429.84375 C 733.76165 464.28775 728.3932 498.864 724.25 533 C 718.4465 564.679 718.80065 597.964 709.65625 629 C 709.43935 628.726 709.24825 628.43025 709.03125 628.15625 C 701.13645 644.93825 780.2301 682.157 788.125 665.375 L 794.1875 650.28125 C 802.2913 615.16425 804.31725 579.01925 809.46875 543.40625 C 814.99545 498.45125 822.611 452.641 815 407.5 C 801.7271 363.407 784.31195 343.799 740.90625 327.75 C 713.13494 319.31054 684.69109 313.97222 655.875 311.53125 C 665.73499 294.58298 675.02896 277.30155 683.875 259.78125 C 702.4227 222.22325 723.76905 183.734 716.15625 140.5 C 712.29815 132.865 709.7362 124.40575 704.5625 117.59375 C 684.3407 90.96575 648.7075 88.726 618.375 89.875 C 574.5543 93.281 531.1826 100.717 488.5625 111.5 C 471.98851 115.77455 455.47208 120.23154 439 124.875 C 448.19502 109.3627 458.04678 94.253851 469.125 80 C 479.33557 66.981734 425.7769 22.706942 405.84375 23.5 z M 639.65625 176.125 C 643.17056 176.25572 646.3302 176.91469 648.125 178.9375 C 648.5473 179.4175 646.9171 179.66675 646.3125 179.46875 C 642.98728 178.3768 641.1451 177.40833 639.65625 176.125 z M 511.3125 418.375 C 505.85583 418.56426 501.96664 420.07006 500.6875 423.3125 C 488.0376 460.6695 477.334 498.66675 465.6875 536.34375 C 447.5005 595.80975 425.47585 653.9435 400.96875 711.0625 C 386.50725 743.9665 370.54345 776.29725 350.46875 806.15625 C 340.50065 821.58725 413.2193 868.556 423.1875 853.125 C 444.8732 818.51 463.1801 781.98725 479.1875 744.40625 C 504.4979 684.62425 527.5812 623.94425 547.1875 562.03125 C 558.6052 526.44825 569.0438 490.46075 582.1875 455.46875 C 587.73046 441.41819 534.95807 417.55488 511.3125 418.375 z M 572.46875 693.125 C 553.27078 693.99804 506.29275 748.54509 518.8125 759.8125 C 555.5382 789.0825 599.3902 807.0915 642.4375 824.8125 C 691.4538 843.4895 740.4079 862.18975 787.6875 884.96875 L 803.9375 893.65625 C 820.1278 902.14725 860.15905 825.83475 843.96875 817.34375 L 824.53125 807.3125 C 775.71015 784.4625 725.4347 765.26175 675.125 745.96875 C 641.2845 731.82875 606.2503 717.9335 577.4375 694.6875 C 576.14235 693.52181 574.45475 693.03469 572.46875 693.125 z "
     id="path23315" />
</svg>
