<?xml version="1.0" encoding="utf-8" ?>

<!DOCTYPE svg PUBLIC "-//W3C//DTD SVG 1.1//EN" 
  "http://www.w3.org/Graphics/SVG/1.1/DTD/svg11.dtd">
<svg 
    xmlns="http://www.w3.org/2000/svg"
    xmlns:xlink="http://www.w3.org/1999/xlink"
    xmlns:sodipodi="http://sodipodi.sourceforge.net/DTD/sodipodi-0.dtd"
    xmlns:inkscape="http://www.inkscape.org/namespaces/inkscape"
    width="1024" height="1024" id="U8D23">
<path d="m 8501.9126,62642.88 c 40.4744,-2.762 80.6772,-8.563 120.8568,-14.009 61.5548,-8.988 123.4174,-15.163 185.5701,-17.63 35.5795,-1.102 71.2249,0.103 106.6545,3.5 18.583,2.101 8.678,89.703 -9.905,87.601 l 0,0 c -31.0363,-4.216 -62.4625,-5.275 -93.7526,-4.845 -59.1815,1.735 -118.0706,7.591 -176.5911,16.631 -41.7673,6.071 -83.5269,12.294 -125.4853,16.92 -18.7033,1.559 -26.0507,-86.61 -7.3474,-88.168 z" id="path13965" inkscape:connector-curvature="0" style="fill:#2b1100;fill-opacity:1;fill-rule:nonzero;stroke:none" transform="translate(-8192, -62464)"/><path d="m 8604.6043,62757.626 c 36.3801,-1.839 72.5888,-5.959 108.7938,-9.824 42.6566,-4.441 85.2892,-9.613 128.2184,-9.965 4.8504,0.315 9.7008,0.629 14.5513,0.944 18.5895,1.628 10.9138,89.26 -7.6757,87.632 l 0,0 c -2.4445,-0.324 -4.8889,-0.649 -7.3333,-0.973 -39.6123,-0.926 -78.9917,4.593 -118.3341,8.462 -36.6943,4.118 -73.3763,8.344 -110.1322,11.886 -18.7019,1.716 -26.7901,-86.446 -8.0882,-88.162 z" id="path13967" inkscape:connector-curvature="0" style="fill:#2b1100;fill-opacity:1;fill-rule:nonzero;stroke:none" transform="translate(-8192, -62464)"/><path d="m 8425.7505,62905.022 c 41.9377,4.552 84.2804,0.06 126.1255,-3.462 74.6595,-6.734 148.6951,-18.674 222.8836,-29.151 60.9251,-8.919 122.3153,-13.582 183.872,-12.456 29.1134,0.806 57.9838,4.801 86.5775,10.11 2.8025,0.671 5.6051,1.342 8.4076,2.013 18.1664,4.717 -4.067,90.354 -22.2334,85.638 l 0,0 c -1.124,-0.349 -2.2479,-0.697 -3.3719,-1.045 -23.602,-5.05 -47.4941,-8.86 -71.6419,-9.948 -56.8155,-1.992 -113.5367,2.068 -169.8236,10.007 -75.6305,10.462 -151.0421,22.725 -227.0468,30.281 -48.2953,4.545 -96.9547,9.631 -145.4815,5.664 -18.5937,-2.489 -6.8608,-90.14 11.7329,-87.651 z" id="path13969" inkscape:connector-curvature="0" style="fill:#2b1100;fill-opacity:1;fill-rule:nonzero;stroke:none" transform="translate(-8192, -62464)"/><path d="m 8742.2024,62542.751 c -2.5372,42.267 -3.0459,84.634 -4.8338,126.944 -3.3852,65.405 -9.6722,130.605 -13.3543,195.991 -1.0643,32.049 -0.7902,16.707 -0.9383,46.024 -0.2839,18.415 -87.092,17.077 -86.8081,-1.338 l 0,0 c 0.7955,-32.057 0.2094,-15.416 1.8416,-49.921 4.23,-64.678 10.5469,-129.215 13.3861,-193.981 1.4231,-43.577 1.5662,-87.16 2.4749,-130.746 1.4908,-18.717 89.7226,-11.69 88.2319,7.027 z" id="path13971" inkscape:connector-curvature="0" style="fill:#2b1100;fill-opacity:1;fill-rule:nonzero;stroke:none" transform="translate(-8192, -62464)"/><path d="m 8537.1534,63058.026 c 14.2403,34.907 26.959,70.391 39.3834,105.976 10.017,27.47 18.9626,55.746 34.4927,80.723 1.0482,1.309 2.0964,2.618 3.1447,3.927 10.8335,15.252 -61.0628,66.322 -71.8963,51.07 l 0,0 c -2.3714,-3.505 -4.7428,-7.01 -7.1142,-10.515 -17.2919,-30.535 -29.5022,-63.373 -40.6918,-96.571 -11.7768,-33.777 -23.7119,-67.566 -38.6546,-100.104 -7.3199,-17.254 74.0162,-51.76 81.3361,-34.506 z" id="path13985" inkscape:connector-curvature="0" style="fill:#2b1100;fill-opacity:1;fill-rule:nonzero;stroke:none" transform="translate(-8192, -62464)"/><path d="m 8545.628,63030.17 c 38.6694,-11.634 78.0604,-20.584 117.501,-29.142 46.8401,-10.617 94.4142,-16.617 142.3929,-17.742 31.334,-0.75 61.7105,2.577 90.3624,15.501 26.6789,14.704 39.2146,39.96 47.8376,67.835 9.5643,32.187 8.4768,65.219 4.5319,98.145 -6.4178,39.701 -17.7528,78.38 -29.2512,116.848 -6.1162,19.556 -3.0297,10.094 -9.2212,28.397 -6.1307,17.579 -89.0023,-11.321 -82.8716,-28.901 l 0,0 c 5.6488,-15.635 2.7809,-7.351 8.5267,-24.879 10.3535,-33.52 20.4394,-67.279 26.1202,-101.96 2.5569,-20.816 3.7951,-41.681 -2.1549,-62.108 -1.0209,-3.519 -5.431,-11.675 -2.8462,-14.374 -8.4824,-9.286 -38.602,-5.357 -49.6267,-7.355 -42.2346,0.299 -84.0772,5.774 -125.2699,15.162 -36.8219,8.15 -73.7447,16.454 -109.419,28.845 -17.8766,5.645 -44.4887,-78.626 -26.612,-84.272 z" id="path13987" inkscape:connector-curvature="0" style="fill:#2b1100;fill-opacity:1;fill-rule:nonzero;stroke:none" transform="translate(-8192, -62464)"/><path d="m 8761.9851,63154.527 c -17.9696,31.301 -31.9469,64.681 -46.2859,97.741 -20.2478,47.791 -41.6633,95.05 -65.5858,141.117 -13.2904,25.44 -28.598,49.693 -47.3913,71.401 -12.5863,13.845 -77.8489,-45.488 -65.2625,-59.332 l 0,0 c 15.1391,-14.984 25.2878,-34.117 35.8696,-52.374 23.3021,-43.873 43.7395,-89.128 62.822,-134.987 15.2792,-35.899 30.4011,-71.927 48.5556,-106.499 9.1073,-16.393 86.3857,26.539 77.2783,42.933 z" id="path13989" inkscape:connector-curvature="0" style="fill:#2b1100;fill-opacity:1;fill-rule:nonzero;stroke:none" transform="translate(-8192, -62464)"/><path d="m 8747.4482,63284.462 c 23.9457,19.609 51.2011,34.557 78.425,49.029 40.0639,20.277 82.0031,36.441 123.4087,53.698 23.528,10.308 12.2228,5.294 33.9256,15.022 16.856,7.709 -19.4851,87.169 -36.3412,79.46 l 0,0 c -20.2103,-9.439 -9.7697,-4.636 -31.3322,-14.388 -43.5837,-18.57 -87.8422,-35.693 -130.2013,-57.005 -32.7078,-17.164 -65.1189,-35.177 -94.4433,-57.803 -14.4278,-11.998 42.1308,-80.011 56.5587,-68.013 z" id="path13993" inkscape:connector-curvature="0" style="fill:#2b1100;fill-opacity:1;fill-rule:nonzero;stroke:none" transform="translate(-8192, -62464)"/></svg>