<?xml version="1.0" encoding="UTF-8" standalone="no"?>
<svg
   xmlns:dc="http://purl.org/dc/elements/1.1/"
   xmlns:cc="http://creativecommons.org/ns#"
   xmlns:rdf="http://www.w3.org/1999/02/22-rdf-syntax-ns#"
   xmlns:svg="http://www.w3.org/2000/svg"
   xmlns="http://www.w3.org/2000/svg"
   xmlns:sodipodi="http://sodipodi.sourceforge.net/DTD/sodipodi-0.dtd"
   xmlns:inkscape="http://www.inkscape.org/namespaces/inkscape"
   width="1024"
   height="1024"
   id="U8D62"
   version="1.1"
   inkscape:version="0.48.0 r9654"
   sodipodi:docname="U+8D62.svg">
  <metadata
     id="metadata24">
    <rdf:RDF>
      <cc:Work
         rdf:about="">
        <dc:format>image/svg+xml</dc:format>
        <dc:type
           rdf:resource="http://purl.org/dc/dcmitype/StillImage" />
      </cc:Work>
    </rdf:RDF>
  </metadata>
  <defs
     id="defs22" />
  <sodipodi:namedview
     pagecolor="#ffffff"
     bordercolor="#666666"
     borderopacity="1"
     objecttolerance="10"
     gridtolerance="10"
     guidetolerance="10"
     inkscape:pageopacity="0"
     inkscape:pageshadow="2"
     inkscape:window-width="640"
     inkscape:window-height="480"
     id="namedview20"
     showgrid="false"
     inkscape:zoom="0.27441406"
     inkscape:cx="512"
     inkscape:cy="512"
     inkscape:window-x="0"
     inkscape:window-y="25"
     inkscape:window-maximized="0"
     inkscape:current-layer="U8D62" />
  <path
     style="fill:#2b1100;fill-opacity:1;fill-rule:nonzero;stroke:none"
     d="M 509.75 30.78125 C 490.36152 31.700681 443.02066 86.862531 455.6875 98.21875 C 465.54302 106.26477 474.99018 114.7856 483.75 123.96875 C 442.75195 124.98146 401.78954 126.9557 360.8125 128.71875 C 310.3404 130.77775 259.8045 132.23375 209.5 137.09375 C 173.4 140.80175 137.3945 145.307 101.6875 151.875 C 83.2625 155.365 99.7 242.20875 118.125 238.71875 C 151.2261 231.24975 184.9324 227.1045 218.625 223.4375 C 219.51218 223.34822 220.39391 223.27452 221.28125 223.1875 C 222.01282 230.94741 222.69613 238.70544 223.375 246.46875 C 224.6684 267.03575 228.5162 287.14325 235.4375 306.53125 C 242.7399 328.24625 257.4294 342.10875 277.75 351.84375 C 300.8644 359.23675 324.96015 355.48475 348.53125 352.84375 C 380.60405 348.73175 412.8542 346.4845 445.125 344.6875 C 484.9194 342.6865 524.74905 341.4415 564.59375 341.9375 C 595.17555 342.2835 625.4147 346.9005 655.5625 351.5625 C 674.2382 354.3225 692.9048 357.1955 711.25 361.6875 C 716.9441 363.3455 722.8207 364.533 728.1875 367.125 C 745.6064 374.179 778.8564 292.053 761.4375 285 C 751.7044 281.253 741.8112 278.08625 731.625 275.78125 C 710.829 270.96725 689.7772 267.68275 668.625 264.84375 C 634.4401 259.84475 600.1263 255.10425 565.5 254.90625 C 523.8096 254.55725 482.1453 255.7555 440.5 257.6875 C 406.7111 259.4165 372.9371 261.62175 339.3125 265.46875 C 333.72626 266.01925 322.81543 266.41591 315.4375 267.03125 C 312.83554 257.80764 311.69002 248.24468 310.90625 238.625 C 310.25281 231.53083 309.58004 224.436 308.90625 217.34375 C 327.39014 216.51805 345.89369 215.82961 364.375 215.0625 C 414.6069 212.9515 464.81235 210.37775 515.09375 209.96875 C 557.05115 210.45975 598.8805 213.59325 640.8125 214.90625 C 673.5615 215.68525 706.33725 215.26625 739.03125 217.53125 C 758.11955 219.00025 776.8785 222.8225 795.1875 228.3125 C 797.0258 228.9615 798.88055 229.6 800.71875 230.25 C 818.47255 236.222 846.6288 152.5345 828.875 146.5625 C 825.7987 145.5585 822.7013 144.53425 819.625 143.53125 C 795.1105 136.65925 770.10935 131.81425 744.65625 130.15625 C 710.92565 128.13725 677.1518 128.3305 643.375 127.8125 C 606.03287 126.80908 568.71974 124.37767 531.375 123.625 C 550.77299 108.88238 568.91685 87.500133 562.15625 79.5 C 547.58885 62.552 531.61285 47.04375 514.78125 32.34375 C 513.4709 31.168969 511.75571 30.686136 509.75 30.78125 z M 435.71875 353.96875 C 431.71335 353.96775 427.72395 353.98337 423.71875 354 C 387.67895 354.962 351.68175 357.7495 316.28125 364.9375 C 288.75075 370.2755 261.21785 376.0655 234.84375 385.8125 C 230.05722 387.69818 229.03543 395.26632 230.40625 405.09375 C 214.64643 409.53319 202.29761 416.20746 203.5625 423.375 C 208.2482 445.249 213.22965 467.05725 218.03125 488.90625 C 220.53506 502.12303 224.87745 514.28408 231.375 525.53125 C 226.32389 549.38992 238.7971 604.65458 253.59375 602.125 C 287.50075 594.8 321.51365 588.027 355.71875 582.25 C 400.41525 574.81 445.52815 570.4785 490.71875 567.5625 C 526.05725 565.3095 561.43435 564.01 596.84375 564 C 620.37075 563.593 643.68915 566.19625 666.90625 569.65625 C 679.15135 572.09125 691.99245 572.17825 703.90625 576.15625 C 703.98035 576.26325 704.08225 576.36175 704.15625 576.46875 C 715.48015 580.79608 732.61319 547.93028 738.6875 522.21875 C 742.39451 516.73046 746.02836 511.18108 749.28125 505.40625 C 756.72395 492.93825 763.64185 480.194 763.28125 465.125 C 762.36735 454.738 760.5894 444.699 755.375 435.5 C 750.8046 426.734 745.10565 418.6945 737.46875 412.3125 C 732.67165 407.9155 727.96875 403.445 722.78125 399.5 C 713.85725 392.458 704.6158 385.77775 694 381.46875 C 680.8437 376.14175 667.1741 372.668 653.1875 370.25 C 634.4614 366.727 615.63355 363.85475 596.78125 361.09375 C 571.23355 357.88575 545.5548 355.988 519.8125 355.25 C 491.78818 354.417 463.75653 353.97574 435.71875 353.96875 z M 425.9375 441.3125 C 456.303 441.2625 486.6527 441.79275 517 442.84375 C 539.9385 443.64775 562.83925 445.34675 585.59375 448.34375 C 602.59615 450.97875 619.59085 453.61875 636.46875 456.96875 C 644.02175 459.05875 652.36605 459.43 659.40625 463.125 C 662.50215 464.508 664.943 466.93625 667.5625 469.03125 C 667.59427 469.05511 667.62471 469.06997 667.65625 469.09375 C 666.44926 470.99271 665.22756 472.88398 663.96875 474.75 C 662.89788 476.32887 662.71305 478.25781 663.21875 480.4375 C 641.08006 477.77978 618.84217 476.077 596.5 476.53125 C 559.2446 476.79125 522.01185 478.31625 484.84375 480.90625 C 436.88995 484.27425 389.0473 489.0645 341.5625 496.6875 C 326.11297 499.18899 310.70913 501.91258 295.3125 504.6875 C 303.71178 494.55007 308.81888 484.79125 306.25 479.4375 C 313.48554 490.05699 303.19568 474.88455 303.96875 469.375 C 303.04563 465.44771 302.10581 461.52345 301.1875 457.59375 C 311.76249 455.02384 322.46892 452.92592 333.125 450.8125 C 363.6958 444.4555 394.7884 442.0605 425.9375 441.3125 z M 492.28125 594.0625 C 488.37589 594.1088 484.4493 594.26037 480.53125 594.5 C 452.68095 596.687 425.2079 601.22875 398.625 610.09375 C 390.5189 612.82219 391.96838 631.70868 397.625 650.90625 C 393.45532 645.1233 388.32825 639.7935 382.0625 635.03125 C 363.0888 623.79425 343.0396 617.951 321 616.25 C 297.0088 613.879 272.78645 612.9795 248.78125 615.8125 C 219.33085 620.5685 190.85415 629.22925 164.34375 643.15625 C 157.69991 646.85411 160.8264 661.76481 167.96875 677.5625 C 146.08908 674.5877 123.57827 676.24892 122.3125 685.53125 C 117.8317 718.45225 114.23505 751.4825 111.15625 784.5625 C 107.89095 818.5795 105.77875 852.66775 105.84375 886.84375 C 106.60095 907.13075 107.183 927.4465 108.8125 947.6875 C 110.1679 961.1085 112.64035 974.40025 115.09375 987.65625 C 115.84245 990.37925 116.5638 993.0895 117.3125 995.8125 C 122.94307 1013.0542 201.41379 988.13922 202 970.28125 C 201.9954 970.25109 202.0046 970.21766 202 970.1875 C 199.95052 960.23256 198.03265 950.2133 196.78125 940.125 C 195.68164 928.33416 195.10275 916.51986 194.53125 904.6875 C 211.9695 907.53653 229.31192 910.84991 246.53125 914.84375 C 264.68315 918.96575 284.12065 833.372 265.96875 829.25 C 242.75514 824.07472 219.37068 819.94377 195.96875 815.75 C 196.22548 812.32953 196.49256 808.91861 196.78125 805.5 C 213.29338 804.14031 229.9035 805.38165 246.34375 807.5 C 257.94145 809.19 269.2248 812.0965 280.1875 816.1875 C 297.8632 822.2975 326.6758 738.95375 309 732.84375 C 292.0396 727.23075 274.79595 722.7285 257.03125 720.4375 C 242.58557 718.72805 228.06938 717.49855 213.5625 717.21875 C 228.71631 709.71758 244.98879 704.8176 261.78125 702.6875 C 278.48175 701.3425 295.27925 702.12175 311.90625 703.96875 C 312.61994 703.04102 320.66313 704.94685 326.96875 706.65625 C 325.91523 708.73142 328.58867 715.64529 329.09375 720.75 C 330.75385 752.839 327.0383 784.894 323.625 816.75 C 320.1696 846.137 317.10395 875.57125 314.34375 905.03125 C 312.88405 919.39525 311.8571 933.79 310.125 948.125 C 309.8941 949.226 309.76863 949.8 309.75 949.8125 C 310.48982 967.706 391.93415 986.93361 396.25 969.15625 C 397.8794 961.10925 397.2521 965.01425 398.25 957.40625 C 399.6423 942.51425 400.69955 927.5915 401.96875 912.6875 C 403.2418 897.0631 404.57531 881.44853 406.0625 865.84375 C 408.2926 870.9845 410.89928 876.00724 413.96875 880.96875 C 419.962 888.809 442.15601 877.74533 460.3125 863.28125 C 453.65422 881.31806 446.18752 899.04223 437.84375 916.375 C 432.14661 927.71426 425.43756 938.5118 418.3125 949 C 418.39366 948.82732 418.49657 948.66362 418.59375 948.5 C 418.25512 948.96543 417.9324 949.44082 417.59375 949.90625 C 417.76865 949.72725 417.91885 949.52375 418.09375 949.34375 C 418.15732 949.25036 418.21775 949.15594 418.28125 949.0625 C 410.8543 965.34898 473.01401 1020.7277 485.25 1007.1875 C 490.4755 1000.8315 488.1756 1003.9207 492.3125 997.96875 C 501.4195 983.65075 509.9615 968.964 517.25 953.625 C 520.22219 947.14714 523.10099 940.6125 525.90625 934.0625 C 543.01203 947.00128 560.14533 959.88666 576.75 973.46875 C 587.6396 982.44975 597.81355 992.226 608.21875 1001.75 C 622.16325 1014.299 681.3196 948.549 667.375 936 C 655.6939 925.688 644.236 915.1285 632.125 905.3125 C 613.1543 889.9845 593.5368 875.49275 574.625 860.09375 C 569.72688 856.09537 560.14471 861.23511 550.125 870.25 C 552.27445 863.75055 554.33686 857.21395 556.3125 850.65625 C 565.9976 817.53925 574.55545 784.15125 581.78125 750.40625 C 585.61635 732.05325 499.085 713.9585 495.25 732.3125 C 491.2368 755.69946 485.8018 778.77173 479.625 801.65625 C 474.67889 781.85065 469.81377 762.00014 465.28125 742.09375 C 461.01421 723.5857 456.84471 705.04997 453.375 686.375 C 464.4677 684.0707 475.7628 682.71314 487.125 681.90625 C 508.1829 680.93525 529.0403 683.8095 549.1875 689.8125 C 562.3492 693.9435 574.67325 699.74825 585.59375 708.15625 C 590.38125 712.53725 596.54105 716.38 597.84375 723.125 C 600.49495 733.991 600.4754 745.23175 600.625 756.34375 C 600.956 772.03275 599.1771 787.65175 597.5 803.21875 L 596.625 811.03125 C 594.6011 829.64825 682.3511 839.1795 684.375 820.5625 C 684.6594 817.8725 684.9657 815.19 685.25 812.5 C 687.2404 793.419 689.21475 774.31275 688.78125 755.09375 C 688.44175 732.56375 687.3635 709.8425 679.125 688.5625 C 669.6265 667.8075 656.57715 650.42925 637.84375 637.03125 C 618.05965 622.82725 596.5032 611.9175 573 605.1875 C 546.60519 598.0195 519.61875 593.73838 492.28125 594.0625 z M 309.75 949.8125 C 309.73137 949.825 309.81105 949.2785 309.90625 948.1875 C 309.775 948.72814 309.7275 949.26833 309.75 949.8125 z M 202 970.1875 C 202.01124 969.5334 201.92528 968.88243 201.71875 968.25 C 201.81647 968.89062 201.9022 969.54638 202 970.1875 z M 847.3125 617.125 C 834.06433 617.23575 820.85198 618.57119 807.59375 620.1875 C 785.67435 622.1285 763.7393 623.71325 741.9375 626.78125 C 733.60826 628.12975 731.88803 646.49589 734.1875 666.0625 C 714.9317 666.86848 697.69826 671.34389 697.625 679.625 C 698.4915 708.097 697.1294 736.56575 695.25 764.96875 C 693.0032 799.54475 688.55765 833.915 683.15625 868.125 C 680.34045 885.974 676.1817 903.56725 671.125 920.90625 C 669.2805 926.89625 670.20055 923.79875 668.40625 930.21875 C 663.62725 948.41875 749.4085 970.949 754.1875 952.75 C 755.2294 948.236 754.54315 950.9915 756.34375 944.5625 C 761.89575 923.7245 766.5617 902.62925 769.6875 881.28125 C 771.31881 870.16169 772.86427 859.02046 774.3125 847.875 C 787.80967 852.61534 801.29005 857.40707 814.75 862.25 C 828.3662 866.988 841.4901 872.7415 853.75 880.3125 C 854.90633 880.9911 856.20804 881.20881 857.625 881.0625 C 859.62622 893.50883 862.06706 905.90682 864.84375 918.21875 C 869.54235 939.16975 876.7713 959.23025 887.5625 977.78125 C 895.6846 990.68625 906.32025 1001.2025 918.96875 1009.5625 C 934.58125 1018.8605 977.37449 948.27762 965.9375 934.53125 C 965.50932 934.18071 965.058 933.74921 964.59375 933.3125 C 964.57146 933.29536 964.55387 933.29863 964.53125 933.28125 C 964.49919 933.26132 964.47006 933.23814 964.4375 933.21875 C 963.9807 932.78166 963.57001 932.32052 963.25 931.90625 C 956.334 922.02825 953.8071 909.77525 950.4375 898.40625 C 944.5773 873.84525 940.6208 848.882 939.4375 823.625 C 937.7495 792.662 938.04435 761.6595 936.65625 730.6875 C 934.71195 706.4065 932.36025 681.7165 922.03125 659.3125 C 909.40385 637.0525 891.49315 621.5745 865.40625 617.8125 C 859.349 617.26437 853.3344 617.07466 847.3125 617.125 z M 964.59375 933.3125 C 964.95541 933.59072 965.19033 933.7819 965.46875 934 C 965.20119 933.74674 964.90967 933.51402 964.59375 933.3125 z M 965.46875 934 C 965.64052 934.16259 965.78517 934.34816 965.9375 934.53125 C 967.32312 935.66563 968.01004 935.9907 965.46875 934 z M 844.53125 704.3125 C 847.09651 715.33506 848.16931 726.63597 849.125 737.90625 C 849.80112 752.60821 850.1338 767.29096 850.5 782 C 848.42536 781.24909 846.31949 780.50859 844.21875 779.8125 C 823.82321 772.56084 803.3867 765.47314 783.09375 757.9375 C 784.11348 742.079 784.9407 726.22396 785.46875 710.34375 C 795.36771 709.39164 805.28558 708.67936 815.1875 707.84375 C 824.04474 709.07196 834.7707 704.8766 844.53125 704.3125 z M 848.78125 704.3125 C 850.91677 704.4735 852.97803 704.90687 854.9375 705.6875 C 852.76725 706.1335 850.69566 705.43725 848.78125 704.3125 z M 332.3125 708.1875 C 334.56041 708.8734 335.41087 709.21114 332.84375 708.5625 C 332.6488 708.41608 332.49619 708.32012 332.3125 708.1875 z "
     id="path12768" />
</svg>
