<?xml version="1.0" encoding="UTF-8" standalone="no"?>
<svg
   xmlns:dc="http://purl.org/dc/elements/1.1/"
   xmlns:cc="http://creativecommons.org/ns#"
   xmlns:rdf="http://www.w3.org/1999/02/22-rdf-syntax-ns#"
   xmlns:svg="http://www.w3.org/2000/svg"
   xmlns="http://www.w3.org/2000/svg"
   xmlns:sodipodi="http://sodipodi.sourceforge.net/DTD/sodipodi-0.dtd"
   xmlns:inkscape="http://www.inkscape.org/namespaces/inkscape"
   width="1024"
   height="1024"
   id="U8EBA"
   version="1.1"
   inkscape:version="0.48.0 r9654"
   sodipodi:docname="U+8EBA.svg">
  <metadata
     id="metadata22">
    <rdf:RDF>
      <cc:Work
         rdf:about="">
        <dc:format>image/svg+xml</dc:format>
        <dc:type
           rdf:resource="http://purl.org/dc/dcmitype/StillImage" />
      </cc:Work>
    </rdf:RDF>
  </metadata>
  <defs
     id="defs20" />
  <sodipodi:namedview
     pagecolor="#ffffff"
     bordercolor="#666666"
     borderopacity="1"
     objecttolerance="10"
     gridtolerance="10"
     guidetolerance="10"
     inkscape:pageopacity="0"
     inkscape:pageshadow="2"
     inkscape:window-width="640"
     inkscape:window-height="480"
     id="namedview18"
     showgrid="false"
     inkscape:zoom="0.27441406"
     inkscape:cx="512"
     inkscape:cy="512"
     inkscape:window-x="0"
     inkscape:window-y="25"
     inkscape:window-maximized="0"
     inkscape:current-layer="U8EBA" />
  <path
     style="fill:#782121;fill-opacity:1;fill-rule:nonzero;stroke:#f9f9f9;stroke-width:0.1;stroke-miterlimit:4;stroke-dasharray:none"
     d="M 363.34375 88.375 C 360.35886 88.411682 358.04111 89.2775 356.6875 91.1875 C 333.2494 124.1025 304.12225 152.34075 274.84375 179.96875 C 253.47525 199.75775 231.3571 218.70125 208.9375 237.28125 C 203.63309 241.73662 208.1994 253.91489 216.71875 266.75 C 216.76236 273.9443 217.54998 281.96229 218.9375 289.8125 C 196.0982 292.14554 172.86889 299.62662 174.03125 309.3125 C 179.90695 354.9755 180.1622 401.13175 179.875 447.09375 C 179.5026 496.58675 175.70055 545.92725 170.90625 595.15625 C 170.52366 599.71085 170.10777 604.38232 169.75 609.09375 C 166.34837 609.74734 162.92825 610.41328 159.53125 611.09375 C 118.96835 619.20675 78.3407 627.5295 38.9375 640.3125 C 21.3724 646.8995 52.4349 729.712 70 723.125 C 104.605 710.611 140.7916 703.2335 176.75 695.8125 C 184.76967 694.15411 192.79339 692.60622 200.84375 691.125 C 227.19322 705.86653 255.73552 703.10569 284.46875 697.375 C 247.44003 745.48784 210.52942 793.68051 173.8125 842.03125 C 154.5903 863.84503 140.45686 890.76868 119.71875 911.34375 C 120.61556 910.96849 121.75697 910.41671 123.34375 909.53125 C 109.97491 921.42657 135.70569 998.25816 152.8125 992.71875 C 173.1886 982.88875 164.67665 988.63275 179.09375 976.59375 C 202.86015 951.03375 221.53155 921.35675 242.71875 893.71875 C 285.04347 836.53566 327.93613 779.77203 371.34375 723.40625 C 370.6832 762.18345 371.1354 800.97045 371.5625 839.75 C 371.5655 873.561 373.285 907.3795 373.0625 941.1875 C 372.7838 953.9115 372.9452 947.83725 372.5625 959.40625 C 372.171 978.11425 460.3585 979.957 460.75 961.25 C 460.8767 948.446 460.848 955.17 460.875 941 C 460.5583 906.793 458.59005 872.6465 458.21875 838.4375 C 457.09225 781.8735 455.82205 725.25975 458.65625 668.71875 C 458.89981 664.21103 459.17563 659.69396 459.4375 655.1875 C 478.70485 653.35293 498.09151 653.00466 517.5 653.8125 C 528.7529 654.7825 523.59425 654.19875 532.96875 655.46875 C 537.04817 655.9097 540.71598 652.0529 543.71875 645.71875 C 544.77169 673.30919 545.61222 700.9168 546.8125 728.5 C 548.1743 756.568 549.72375 784.67125 555.15625 812.28125 C 559.20765 830.53625 645.27015 811.4435 641.21875 793.1875 C 635.01925 770.9045 635.72155 747.211 633.40625 724.375 C 630.69895 672.011 629.5339 619.591 626.375 567.25 C 624.79451 543.60739 622.91089 519.98788 621.34375 496.34375 C 628.39559 505.44055 635.5503 510.94386 640.625 508.40625 C 671.9764 493.57425 706.18885 486.2015 740.03125 479.5625 C 781.88625 472.0315 824.4009 470.02425 866.8125 471.90625 C 885.5559 474.11725 907.2506 474.33225 923 486.28125 C 923.4162 486.86525 924.007 487.35525 924.25 488.03125 C 924.6775 489.21825 922.29175 487.34575 922.34375 489.96875 C 922.42715 494.18275 922.78985 498.38175 922.90625 502.59375 C 922.60435 542.38475 917.103 581.92025 911.75 621.28125 C 903.9921 674.05125 896.22995 726.826 889.59375 779.75 C 887.02135 801.001 884.65235 822.256 882.03125 843.5 C 879.99815 862.038 967.4044 871.63175 969.4375 853.09375 C 971.4633 832.08675 973.3825 811.07275 975.6875 790.09375 C 981.714 737.63675 989.29085 685.3795 997.28125 633.1875 C 1003.6429 588.5225 1010.2828 543.6405 1010.5938 498.4375 C 1008.6175 463.2435 999.9253 431.3495 968.6875 410.9375 C 938.2833 393.6205 905.058 385.9615 870.0625 384.9375 C 820.9802 383.3815 771.82005 385.74 723.40625 394.5 C 681.76805 402.62 640.0777 412.115 601.125 429.375 C 597.03408 431.42043 596.28726 437.68177 597.75 445.84375 C 594.32826 445.37972 590.6439 445.0564 586.84375 444.90625 C 593.79541 436.2721 600.83984 427.71372 608 419.25 C 620.2187 405.019 553.12485 347.42425 540.90625 361.65625 C 520.20824 388.28404 499.96531 415.25414 479.75 442.25 C 485.5177 398.49957 492.13924 354.85066 496.09375 310.90625 C 494.83085 261.70125 479.3572 235.83925 428 230.15625 C 400.57314 228.9214 373.16071 230.14267 345.78125 231.84375 C 375.22511 203.68642 403.85473 174.5883 428.75 142.25 C 438.22529 128.87912 384.23801 88.118229 363.34375 88.375 z M 119.71875 911.34375 C 116.55756 912.66651 116.92244 911.78048 115.9375 915 C 117.23126 913.81427 118.47504 912.57769 119.71875 911.34375 z M 714.90625 101.28125 C 699.28438 101.28983 686.44218 104.269 685.65625 111.25 C 682.70555 152.856 683.59995 194.57775 685.09375 236.21875 C 685.91169 254.21206 686.88935 272.19854 687.8125 290.1875 C 674.22522 285.77412 660.82505 280.95378 648.5625 273.375 C 626.9034 259.28 607.5113 242.40425 594 220.03125 C 583.7708 204.29325 509.5834 252.513 519.8125 268.25 C 540.7366 300.098 568.98935 324.723 600.28125 345.875 C 620.52335 358.92 642.97115 366.82975 665.59375 374.46875 C 679.48819 379.05685 699.51721 328.0974 698.5 303.875 C 714.6635 308.84411 745.66342 307.41051 762.90625 301.1875 C 762.49008 301.58327 762.07256 301.97938 761.65625 302.375 C 748.32875 315.067 808.14125 377.8785 821.46875 365.1875 C 847.97165 339.8975 874.2997 314.37475 901.625 289.96875 C 922.1766 272.21275 943.174 254.692 967.125 241.625 C 983.334 232.156 938.709 155.74975 922.5 165.21875 C 894.3275 181.95875 869.0159 202.75125 844.4375 224.28125 C 820.95669 245.57571 798.10725 267.54138 775.1875 289.4375 C 773.97653 270.65251 772.71715 251.86529 771.8125 233.0625 C 770.4281 195.7765 769.32635 158.293 773.40625 121.125 C 774.71606 109.49063 740.9427 101.26694 714.90625 101.28125 z M 393.84375 317 C 398.44123 316.95858 403.06031 317.00332 407.65625 317.125 C 406.37193 330.64509 404.92757 344.16301 403.375 357.65625 C 379.66056 357.8092 355.96141 359.31656 332.4375 362.5625 C 310.06206 365.60438 287.66035 368.89247 265.5625 373.625 C 265.21093 357.70379 264.62382 341.80408 263.6875 325.90625 C 285.68585 323.26426 307.81145 321.68745 329.90625 320.15625 C 351.1874 318.94006 372.51357 317.19218 393.84375 317 z M 422.625 317.875 C 422.72936 317.88285 422.83314 317.89829 422.9375 317.90625 C 431.74011 320.09105 427.00154 319.235 422.625 317.875 z M 392.8125 445.40625 C 392.72453 446.15653 392.61871 446.90592 392.53125 447.65625 C 391.8353 453.27155 391.16238 458.88138 390.5 464.5 C 375.78685 466.084 361.05478 467.43184 346.25 467.90625 C 321.15545 468.47278 295.58005 468.59217 271.09375 462.40625 C 294.93747 455.71466 319.65615 452.2369 344.15625 448.9375 C 360.31515 446.74722 376.543 445.62162 392.8125 445.40625 z M 535.0625 511.53125 C 536.66031 530.16423 538.1957 548.82106 539.625 567.46875 C 530.3663 566.61621 534.30064 566.91535 520.0625 566.15625 C 511.07624 565.9859 502.09829 565.98594 493.125 566.1875 C 502.41437 554.12908 511.72114 542.05939 520.96875 529.96875 C 525.67725 523.8298 530.36507 517.68145 535.0625 511.53125 z M 768.78125 521.6875 C 744.13619 521.62751 719.50829 523.01594 695.125 526.96875 C 687.72853 528.35193 685.92546 543.16315 687.59375 560.1875 C 665.93962 558.76046 644.36506 561.84645 643.6875 571.03125 C 642.5682 601.81925 643.28255 632.614 644.71875 663.375 C 645.34475 676.26 646.593 689.081 648.1875 701.875 C 649.19687 709.0849 663.05207 711.60521 679.4375 710.9375 C 677.65095 736.75991 683.19926 769.94021 694.71875 769.5625 C 719.48845 767.5315 744.2891 768.816 769 770.875 C 779.9249 771.916 790.8469 773.1935 801.75 774.4375 C 814.05643 775.74505 822.27204 737.74669 821.03125 711.375 C 835.68891 719.77972 849.7309 724.134 854 718.03125 C 856.6567 714.03225 859.31205 710.0605 861.96875 706.0625 C 874.30175 682.3935 883.1804 657.275 888.1875 631 C 893.7425 597.43 893.50665 565.07225 864.46875 541.78125 C 840.14835 527.75925 813.88595 522.5365 785.84375 521.9375 C 780.15686 521.78488 774.46857 521.70134 768.78125 521.6875 z M 261.59375 550.40625 C 290.07924 555.37748 319.20295 555.62008 348.09375 555.03125 C 359.2165 554.76764 370.30122 554.04023 381.375 553.09375 C 380.74994 560.16059 380.17341 567.24172 379.59375 574.3125 C 377.24634 577.35969 374.88074 580.3919 372.53125 583.4375 C 341.93322 591.17909 311.63209 599.95267 281.1875 608.34375 C 277.60044 598.82239 272.98132 592.47764 267.84375 593.1875 C 264.69852 593.6273 261.55011 594.08214 258.40625 594.53125 C 259.54693 579.83537 260.6229 565.11374 261.59375 550.40625 z M 765.125 609.1875 C 771.12823 609.19053 777.12992 609.342 783.125 609.5625 C 789.49624 610.04977 795.89018 610.55853 802.21875 611.53125 C 801.97874 612.95932 801.75176 614.30841 801.40625 616.25 C 797.84665 632.966 792.93045 649.46475 784.40625 664.34375 C 783.52715 665.39975 782.6291 666.47525 781.75 667.53125 C 778.99909 671.46401 781.76525 677.70033 787.5 684.5625 C 783.66952 684.19949 779.83293 683.83716 776 683.5 C 762.09417 682.42601 748.1792 681.57186 734.25 681.125 C 733.30553 673.78236 732.64416 666.40122 732.15625 659 C 731.29696 643.00491 730.65363 626.96418 730.6875 610.9375 C 742.10963 609.67014 753.62228 609.18169 765.125 609.1875 z M 813.09375 613.75 C 817.22006 614.90164 818.17523 615.79381 818.03125 616 C 817.60605 616.61 816.57695 615.749 815.84375 615.625 C 814.84407 615.00916 813.92679 614.38491 813.09375 613.75 z "
     id="path11830" />
</svg>
