<?xml version="1.0" encoding="utf-8" ?>

<!DOCTYPE svg PUBLIC "-//W3C//DTD SVG 1.1//EN" 
  "http://www.w3.org/Graphics/SVG/1.1/DTD/svg11.dtd">
<svg 
    xmlns="http://www.w3.org/2000/svg"
    xmlns:xlink="http://www.w3.org/1999/xlink"
    xmlns:sodipodi="http://sodipodi.sourceforge.net/DTD/sodipodi-0.dtd"
    xmlns:inkscape="http://www.inkscape.org/namespaces/inkscape"
    width="1024" height="1024" id="U8EAB">
<path d="m 11768.96,42125.886 c -15.871,34.611 -40.761,63.573 -66.008,91.61 -15.088,16.407 -31.185,31.823 -47.264,47.241 -13.333,12.743 -73.405,-50.107 -60.072,-62.85 l 0,0 c 14.528,-13.838 29.076,-27.673 42.631,-42.485 18.411,-20.578 37.376,-41.533 48.834,-66.98 7.098,-17.369 88.978,16.095 81.879,33.464 z" id="path11915" inkscape:connector-curvature="0" style="fill:#a02c2c;fill-opacity:1;fill-rule:nonzero;stroke:#f9f9f9;stroke-width:0.1;stroke-miterlimit:4;stroke-dasharray:none" transform="translate(-11264, -41984)"/><path d="m 11599.726,42270.142 c -1.451,43.067 -4.968,86.032 -7.493,129.044 -3.255,54.242 -4.007,108.582 -3.403,162.905 0.389,28.955 1.709,57.886 3.359,86.793 0.132,2.194 0.264,4.388 0.397,6.582 0.856,18.736 -87.465,22.774 -88.322,4.038 l 0,0 c -0.07,-2.262 -0.143,-4.524 -0.214,-6.786 -0.91,-30.022 -1.735,-60.05 -1.867,-90.087 -0.09,-56.091 1.01,-112.181 4.061,-168.197 2.118,-40.85 5.275,-81.73 4.958,-122.653 -0.348,-18.778 88.177,-20.418 88.524,-1.639 z" id="path11929" inkscape:connector-curvature="0" style="fill:#a02c2c;fill-opacity:1;fill-rule:nonzero;stroke:#f9f9f9;stroke-width:0.1;stroke-miterlimit:4;stroke-dasharray:none" transform="translate(-11264, -41984)"/><path d="m 11574.889,42230.674 c 30.668,-0.14 61.243,-3.464 91.794,-5.9 36.365,-3.356 72.787,-4.799 109.123,-0.796 39.145,6.622 57.974,17.979 76.552,53.721 14.69,44.227 15.119,91.749 16.888,137.89 1.866,77.742 0.175,155.515 -1.027,233.254 -1.199,72.107 -2.032,144.218 -3.354,216.323 -0.882,37.268 -0.376,19.162 -1.493,54.319 -0.706,18.334 -87.134,15.005 -86.428,-3.329 l 0,0 c 1.552,-34.13 0.841,-16.496 2.097,-52.902 1.888,-71.904 2.968,-143.825 4.247,-215.741 1.206,-76.014 2.856,-152.087 0.126,-228.086 -1.809,-35.084 -3.301,-70.49 -11.151,-104.865 11.656,4.012 -2.851,-4.428 -7.099,-3.486 -30.359,-4.284 -60.989,-1.901 -91.429,0.533 -33.164,2.744 -66.293,6.288 -99.559,7.517 -18.764,-0.151 -18.05,-88.603 0.713,-88.452 z" id="path11935" inkscape:connector-curvature="0" style="fill:#a02c2c;fill-opacity:1;fill-rule:nonzero;stroke:#f9f9f9;stroke-width:0.1;stroke-miterlimit:4;stroke-dasharray:none" transform="translate(-11264, -41984)"/><path d="m 11569.136,42341.426 c 38.337,1.731 76.499,5.808 114.528,10.828 26.109,3.522 51.946,8.614 77.619,14.463 18.054,4.243 -1.947,89.347 -20,85.104 l 0,0 c -22.784,-5.548 -45.765,-10.228 -69.013,-13.411 -34.608,-4.585 -69.408,-8.457 -104.361,-8.643 -18.74,-0.26 -17.513,-88.602 1.227,-88.341 z" id="path11937" inkscape:connector-curvature="0" style="fill:#a02c2c;fill-opacity:1;fill-rule:nonzero;stroke:#f9f9f9;stroke-width:0.1;stroke-miterlimit:4;stroke-dasharray:none" transform="translate(-11264, -41984)"/><path d="m 11595.877,42473.655 c 31.818,0.835 63.598,2.444 95.369,4.328 26.009,1.198 51.857,4.006 77.594,7.828 18.321,2.851 4.882,89.218 -13.439,86.367 l 0,0 c -22.883,-3.761 -45.915,-6.284 -69.1,-7.269 -30.629,-1.666 -61.29,-3.213 -91.977,-2.76 -18.772,-0.329 -17.219,-88.823 1.553,-88.494 z" id="path11939" inkscape:connector-curvature="0" style="fill:#a02c2c;fill-opacity:1;fill-rule:nonzero;stroke:#f9f9f9;stroke-width:0.1;stroke-miterlimit:4;stroke-dasharray:none" transform="translate(-11264, -41984)"/><path d="m 11371.48,42613.753 c 47.09,7.288 95.014,5.282 142.458,3.916 72.354,-3.061 144.741,-4.942 217.151,-5.86 57.095,-0.996 114.182,0.225 171.216,2.83 24.977,1.082 49.903,3.2 74.904,3.662 18.662,0.602 15.823,88.575 -2.839,87.972 l 0,0 c -25.539,-1.116 -50.998,-3.455 -76.517,-4.954 -55.218,-3.163 -110.512,-4.808 -165.828,-4.048 -71.81,0.659 -143.594,2.499 -215.327,5.978 -53.272,1.895 -106.848,3.989 -159.916,-2.442 -18.467,-3.118 -3.769,-90.172 14.698,-87.054 z" id="path11941" inkscape:connector-curvature="0" style="fill:#a02c2c;fill-opacity:1;fill-rule:nonzero;stroke:#f9f9f9;stroke-width:0.1;stroke-miterlimit:4;stroke-dasharray:none" transform="translate(-11264, -41984)"/><path d="m 12050.441,42381.043 c -33.68,34.728 -65.183,71.517 -96.872,108.05 -64.344,74.723 -125.91,151.768 -187.366,228.863 -57.749,72.695 -114.555,146.131 -171.442,219.499 -30.2,38.472 -60.077,77.198 -90.441,115.54 -2.629,3.296 -5.259,6.592 -7.888,9.887 -11.794,14.42 -79.77,-41.177 -67.976,-55.597 l 0,0 c 2.617,-3.119 5.234,-6.237 7.851,-9.356 30.911,-37.314 61.08,-75.236 91.43,-113.005 57.788,-72.941 115.288,-146.11 173.149,-218.993 62.01,-77.913 123.923,-155.922 187.913,-232.227 32.335,-38.346 64.636,-76.74 98.065,-114.142 13.042,-13.487 76.619,47.994 63.577,61.481 z" id="path11943" inkscape:connector-curvature="0" style="fill:#a02c2c;fill-opacity:1;fill-rule:nonzero;stroke:#f9f9f9;stroke-width:0.1;stroke-miterlimit:4;stroke-dasharray:none" transform="translate(-11264, -41984)"/></svg>