<?xml version="1.0" encoding="UTF-8" standalone="no"?>
<svg
   xmlns:dc="http://purl.org/dc/elements/1.1/"
   xmlns:cc="http://creativecommons.org/ns#"
   xmlns:rdf="http://www.w3.org/1999/02/22-rdf-syntax-ns#"
   xmlns:svg="http://www.w3.org/2000/svg"
   xmlns="http://www.w3.org/2000/svg"
   xmlns:sodipodi="http://sodipodi.sourceforge.net/DTD/sodipodi-0.dtd"
   xmlns:inkscape="http://www.inkscape.org/namespaces/inkscape"
   width="1024"
   height="1024"
   id="U8F66"
   version="1.1"
   inkscape:version="0.48.0 r9654"
   sodipodi:docname="U+8F66.svg">
  <metadata
     id="metadata11">
    <rdf:RDF>
      <cc:Work
         rdf:about="">
        <dc:format>image/svg+xml</dc:format>
        <dc:type
           rdf:resource="http://purl.org/dc/dcmitype/StillImage" />
      </cc:Work>
    </rdf:RDF>
  </metadata>
  <defs
     id="defs9" />
  <sodipodi:namedview
     pagecolor="#ffffff"
     bordercolor="#666666"
     borderopacity="1"
     objecttolerance="10"
     gridtolerance="10"
     guidetolerance="10"
     inkscape:pageopacity="0"
     inkscape:pageshadow="2"
     inkscape:window-width="640"
     inkscape:window-height="480"
     id="namedview7"
     showgrid="false"
     inkscape:zoom="0.27441406"
     inkscape:cx="512"
     inkscape:cy="512"
     inkscape:window-x="0"
     inkscape:window-y="25"
     inkscape:window-maximized="0"
     inkscape:current-layer="U8F66" />
  <path
     style="fill:#800000;fill-opacity:1;fill-rule:nonzero;stroke:#f9f9f9;stroke-width:0.1;stroke-miterlimit:4;stroke-dasharray:none"
     d="M 428.1875 162.59375 C 424.66764 162.56697 421.97335 163.51949 420.5625 165.71875 C 396.4664 207.10355 376.0113 250.48305 355.375 293.65625 C 354.1259 296.28639 352.90017 298.92995 351.65625 301.5625 C 304.90632 305.99824 258.13241 310.26776 211.5 315.78125 C 193.2236 318.86395 207.75475 405.0202 226.03125 401.9375 C 254.10022 397.46744 282.33247 393.99267 310.59375 390.875 C 294.82268 426.13692 279.44202 461.59185 264.4375 497.1875 C 246.8762 540.4064 227.1416 583.52565 222.9375 630.40625 C 224.0892 637.84455 223.76045 645.67225 226.40625 652.71875 C 245.09425 702.49005 291.50665 702.3376 335.71875 698.375 C 381.26086 690.84908 426.14138 680.04512 471.25 670.3125 C 471.91085 698.03915 472.84329 725.75713 474.0625 753.46875 C 474.11106 754.59287 474.16666 755.71993 474.21875 756.84375 C 431.07806 763.65232 387.95654 770.62789 344.8125 777.4375 C 293.2 785.3626 241.53235 792.96505 189.71875 799.46875 C 171.42555 802.68045 186.5818 888.8992 204.875 885.6875 C 255.8819 877.0165 307.04045 869.2292 358.09375 860.8125 C 398.97584 853.92649 439.86068 847.0298 480.78125 840.40625 C 483.3108 865.02172 486.18737 889.61022 489.0625 914.1875 C 491.3229 932.338 576.8853 921.68175 574.625 903.53125 C 571.26831 878.12166 567.9325 852.69384 565.125 827.21875 C 585.6591 824.15294 606.20527 821.20568 626.78125 818.40625 C 695.55135 808.69165 764.85305 805.9948 833.90625 813.3125 C 857.65335 816.5679 881.4126 821.0564 903.3125 831.0625 C 920.3722 838.174 953.90345 757.7365 936.84375 750.625 C 906.45655 738.6065 874.63445 731.5276 842.09375 728.25 C 766.42245 721.584 690.6465 724.6759 615.4375 735.6875 C 596.41283 738.32272 577.40128 741.08144 558.40625 743.90625 C 556.99826 714.49752 555.93893 685.08734 555.3125 655.65625 C 585.48094 652.21254 615.85817 650.79094 646.25 651.46875 C 649.9589 651.69995 653.6661 651.92505 657.375 652.15625 C 675.8026 652.94105 679.4902 566.06605 661.0625 565.28125 L 646.96875 564.90625 C 616.121 565.01645 585.29546 566.67225 554.65625 570 C 554.72195 557.80989 554.85464 545.62792 555.0625 533.4375 C 556.0832 493.4345 556.0436 452.66525 565.375 413.53125 C 570.7438 395.73765 486.8688 370.42515 481.5 388.21875 C 470.7276 435.19285 470.8285 483.78775 470.125 531.71875 C 470.00789 549.03714 469.98852 566.3707 470.0625 583.6875 C 422.63455 593.52961 375.47238 604.72876 327.65625 612.5 C 322.81765 612.9882 317.9712 613.56355 313.125 613.96875 C 312.86104 613.99082 312.68804 614.00858 312.4375 614.03125 C 313.60241 609.80074 314.99758 605.63495 316.28125 601.53125 C 323.89195 577.20065 333.2322 553.4443 342.75 529.8125 C 363.41051 479.64669 385.0281 429.88027 407.90625 380.6875 C 482.30034 372.82919 556.63728 364.33078 630.96875 355.90625 C 667.81585 351.82435 650.30565 353.6454 683.46875 350.375 C 701.55865 348.3816 692.1524 263.10035 674.0625 265.09375 C 640.2429 269.20105 657.95035 267.01005 620.90625 271.71875 C 564.31028 278.80176 507.68067 285.54674 450.96875 291.625 C 464.3597 264.84241 478.30585 238.32643 494.3125 213.03125 C 502.93435 199.59123 449.69773 162.75739 428.1875 162.59375 z M 310.15625 624.8125 C 311.54952 627.47445 312.04722 630.78736 309.8125 634.9375 C 309.53579 631.54449 309.70291 628.17054 310.15625 624.8125 z "
     id="path20847" />
</svg>
