<?xml version="1.0" encoding="UTF-8" standalone="no"?>
<svg
   xmlns:dc="http://purl.org/dc/elements/1.1/"
   xmlns:cc="http://creativecommons.org/ns#"
   xmlns:rdf="http://www.w3.org/1999/02/22-rdf-syntax-ns#"
   xmlns:svg="http://www.w3.org/2000/svg"
   xmlns="http://www.w3.org/2000/svg"
   xmlns:sodipodi="http://sodipodi.sourceforge.net/DTD/sodipodi-0.dtd"
   xmlns:inkscape="http://www.inkscape.org/namespaces/inkscape"
   width="1024"
   height="1024"
   id="U8F93"
   version="1.1"
   inkscape:version="0.48.0 r9654"
   sodipodi:docname="U+8F93.svg">
  <metadata
     id="metadata20">
    <rdf:RDF>
      <cc:Work
         rdf:about="">
        <dc:format>image/svg+xml</dc:format>
        <dc:type
           rdf:resource="http://purl.org/dc/dcmitype/StillImage" />
      </cc:Work>
    </rdf:RDF>
  </metadata>
  <defs
     id="defs18" />
  <sodipodi:namedview
     pagecolor="#ffffff"
     bordercolor="#666666"
     borderopacity="1"
     objecttolerance="10"
     gridtolerance="10"
     guidetolerance="10"
     inkscape:pageopacity="0"
     inkscape:pageshadow="2"
     inkscape:window-width="640"
     inkscape:window-height="480"
     id="namedview16"
     showgrid="false"
     inkscape:zoom="0.27441406"
     inkscape:cx="512"
     inkscape:cy="512"
     inkscape:window-x="0"
     inkscape:window-y="25"
     inkscape:window-maximized="0"
     inkscape:current-layer="U8F93" />
  <path
     style="fill:#782121;fill-opacity:1;fill-rule:nonzero;stroke:#f9f9f9;stroke-width:0.1;stroke-miterlimit:4;stroke-dasharray:none"
     d="M 610.40625 126.84375 C 609.8322 126.86736 609.27211 126.96259 608.71875 127.15625 C 563.90085 145.53725 529.5683 180.4835 496 214.1875 C 448.3008 263.9235 403.4146 316.237 360.1875 369.875 C 335.1766 400.962 310.10275 432.449 296.34375 470.25 C 290.62325 488.054 374.56075 515.02275 380.28125 497.21875 C 383.24025 474.15675 415.85255 442.656 427.46875 423.5 C 428.15326 422.63092 428.8456 421.77445 429.53125 420.90625 C 426.7666 447.36651 433.90591 488.36393 446.71875 487.40625 C 481.64685 483.79625 516.6387 480.981 551.625 478 C 597.0664 473.976 642.52 469.86325 688.0625 467.15625 C 712.4382 465.78925 736.79325 464.1445 761.21875 464.4375 C 768.53805 464.6435 765.246 464.46975 771.1875 464.84375 C 789.9671 465.55175 793.2797 377.0205 774.5 376.3125 C 766.0459 376.1325 770.5102 376.18625 761.1875 376.15625 C 734.883 376.43525 708.63695 378.41025 682.40625 380.28125 C 636.40795 383.50025 590.5151 387.7705 544.5625 391.5625 C 512.14743 394.10929 479.73658 396.70399 447.28125 398.6875 C 481.88239 355.929 518.03063 314.45025 556.5625 275.15625 C 573.36771 258.64731 590.27996 240.98052 609.59375 227.03125 C 628.54611 244.22368 648.46334 260.36527 668.34375 276.46875 C 703.54715 304.11475 737.606 333.153 771.0625 362.875 C 793.7146 383.435 816.9734 403.2915 840.3125 423.0625 L 847.8125 429.34375 C 862.2309 441.24075 918.2934 373.272 903.875 361.375 C 901.4777 359.427 899.0848 357.47925 896.6875 355.53125 C 873.6875 336.61525 850.76845 317.60475 828.59375 297.71875 C 794.09225 267.43375 759.10445 237.688 723.15625 209.125 C 697.32285 187.983 671.10545 166.98525 648.65625 142.15625 C 645.10356 138.25981 637.38683 140.18367 628.40625 145.25 C 622.62642 134.36914 616.05366 126.61144 610.40625 126.84375 z M 196.15625 231.3125 C 185.83103 231.28713 178.16277 233.38775 176.96875 238.53125 C 169.51505 271.58025 155.0262 302.44025 140.625 332.90625 C 138.19693 337.74889 135.73757 342.5783 133.28125 347.40625 C 116.79514 348.49434 100.30757 349.21731 83.78125 349.125 C 65.01215 348.968 64.26215 437.467 83.03125 437.625 C 84.157298 437.58728 85.280449 437.54194 86.40625 437.5 C 78.500669 452.62128 70.611731 467.75896 62.875 482.96875 C 45.1981 517.61975 28.0021 552.4915 25.1875 591.6875 C 26.6976 598.9605 26.62955 606.746 29.71875 613.5 C 48.92165 655.488 91.91115 655.111 130.78125 650 C 140.07474 648.29076 149.30364 646.34435 158.53125 644.34375 C 157.29106 657.99484 156.13695 671.6467 155.0625 685.3125 C 115.40054 693.73944 75.984296 703.08014 36.5 712.28125 C 18.2136 716.45725 37.901 802.675 56.1875 798.5 C 87.210978 789.88862 118.43826 782.14194 149.8125 774.96875 C 149.04325 800.01326 148.9799 825.08611 150.1875 850.125 C 151.9111 868.013 150.7984 859.3385 153.4375 876.0625 C 156.6621 894.4765 243.4746 879.289 240.25 860.875 C 238.2587 851.28 239.1732 856.5625 237.6875 844.9375 C 235.56482 815.62073 235.81138 786.23691 236.9375 756.875 C 265.51612 751.25746 294.13487 745.80771 322.8125 740.71875 C 333.14356 738.92949 343.51383 737.32216 353.875 735.71875 C 352.75664 775.70624 353.58282 815.67939 357.40625 855.53125 C 359.38505 875.76025 363.34255 895.64025 368.90625 915.15625 C 374.39695 933.03225 458.6783 907.127 453.1875 889.25 C 451.19951 883.60718 449.66759 877.85643 448.375 872.03125 C 473.70793 871.32675 499.02645 869.50381 524.28125 867.4375 C 526.90126 867.21194 529.50648 866.95977 532.125 866.71875 C 532.32563 882.40004 533.29726 898.3735 528.125 912.6875 C 523.8838 930.9195 609.85255 950.9205 614.09375 932.6875 C 619.83835 904.2235 619.07665 875.2115 620.78125 846.3125 C 623.46275 805.6875 627.4629 765.13375 635.0625 725.09375 C 639.20181 703.11607 643.81907 681.21518 647.9375 659.21875 C 649.29491 679.41493 649.57484 699.69551 650.4375 719.875 C 651.3391 748.608 655.147 776.8575 664.4375 804.0625 C 671.008 821.5565 753.47675 790.58775 746.90625 773.09375 C 738.24565 755.75375 739.75685 734.696 737.34375 716 C 735.48825 676.495 735.6402 636.70175 729.125 597.59375 C 726.06783 584.4097 680.34048 591.14205 656.75 602.78125 C 656.87849 601.66396 657.00337 600.55582 657.125 599.4375 C 658.4811 554.3795 646.53315 523.465 596.90625 518.125 C 569.40265 517.884 542.2149 522.20875 515.0625 526.21875 C 484.7258 531.06175 454.26505 536.4375 425.28125 546.9375 C 418.58114 549.65731 419.43771 563.47981 423.96875 579.0625 C 397.92153 573.93758 357.04843 577.17073 356.78125 589.90625 C 356.96348 610.03581 356.79045 630.15668 356.40625 650.28125 C 354.23483 648.0883 351.95331 646.97936 349.59375 647.375 C 335.37455 649.958 321.1373 652.4985 306.9375 655.1875 C 285.50208 659.32909 264.10142 663.56048 242.6875 667.8125 C 243.75848 655.00156 244.927 642.19939 246.1875 629.40625 C 257.29491 629.16009 268.40882 629.8678 279.4375 631.25 C 287.1658 632.059 282.69275 631.752 292.90625 631.875 C 311.05396 631.21944 308.7137 548.75692 291.65625 543.4375 C 291.23404 543.40962 290.52983 543.34628 288.6875 543.21875 C 278.00769 542.24587 267.27829 541.61859 256.5625 541.53125 C 261.88488 503.2273 267.19805 464.81545 276.53125 427.25 C 276.63555 426.86214 276.66426 426.45436 276.6875 426.0625 C 281.46723 425.96705 286.25179 425.89001 291.03125 425.8125 C 303.20065 425.4705 297.4308 425.71575 308.375 425.09375 C 327.0834 423.63175 320.17715 335.44325 301.46875 336.90625 C 294.08555 337.74525 298.37 337.3435 288.625 337.9375 C 269.98827 338.65178 251.34666 339.34266 232.71875 340.28125 C 244.82021 313.79334 255.75891 286.81146 263.15625 258.5625 C 266.2077 245.418 222.54293 231.37733 196.15625 231.3125 z M 291.65625 543.4375 C 291.89471 543.45325 291.68208 543.40333 291.46875 543.375 C 291.53057 543.39215 291.59481 543.41834 291.65625 543.4375 z M 185.34375 434.03125 C 179.32624 467.84262 174.88714 501.92765 170.40625 535.96875 C 169.66202 541.65352 168.9546 547.34202 168.25 553.03125 C 152.57896 556.30817 136.94424 559.75435 121.21875 562.875 C 126.97812 548.94747 134.03815 535.47627 140.09375 521.8125 C 154.75715 492.33349 170.04173 463.17519 185.34375 434.03125 z M 840.6875 473.59375 C 826.81297 473.52791 815.84358 476.14988 814.875 482.53125 C 810.6412 521.75125 811.80615 561.29425 812.59375 600.65625 C 814.16645 655.56225 815.48875 710.448 814.71875 765.375 C 813.40025 810.501 810.89695 855.5665 809.46875 900.6875 C 809.33115 905.5905 809.2001 910.50325 809.0625 915.40625 C 808.7283 933.98725 896.32205 935.54975 896.65625 916.96875 C 896.69145 912.22975 896.714 907.49 896.75 902.75 C 897.4468 857.305 899.77955 811.933 900.96875 766.5 C 901.63975 710.75 900.304 655.01625 899.0625 599.28125 C 898.6828 564.80225 897.644 530.0615 902.375 495.8125 C 904.22412 483.63053 867.17524 473.71945 840.6875 473.59375 z M 289.6875 543.125 C 290.93926 543.28114 291.06769 543.29966 291.40625 543.34375 C 290.8487 543.19577 290.27576 543.10375 289.6875 543.125 z M 113.5 585.53125 C 113.61123 587.48324 113.41644 589.7412 113.34375 593.28125 C 110.73475 591.27625 111.75725 592.49 113.40625 585.875 C 113.43505 585.75944 113.47087 585.64671 113.5 585.53125 z M 568 607.25 C 566.08748 622.09895 563.59346 636.86478 560.875 651.59375 C 559.44128 650.0672 557.84274 649.18579 556.03125 649.15625 C 550.77975 649.09825 545.53265 649.06 540.28125 649 C 508.80635 649.472 477.3101 650.82975 446.0625 654.84375 C 444.94215 655.03201 443.94626 655.54635 443.0625 656.3125 C 443.42666 644.48736 443.81576 632.66856 444.1875 620.84375 C 449.28933 627.17887 454.40533 630.66898 458.59375 628.96875 C 481.10835 620.24275 505.11025 616.33025 528.84375 612.53125 C 541.83226 611.16234 554.90248 608.70718 568 607.25 z M 441.34375 709.90625 C 445.55059 728.08778 452.76755 743.42981 460.71875 742.09375 C 487.34785 737.68775 514.40055 736.71075 541.34375 736.46875 L 545.0625 736.5625 C 542.88102 750.56241 541.05211 764.60962 539.46875 778.6875 C 532.08003 779.46573 524.68622 780.19526 517.28125 780.8125 C 491.63116 782.84832 465.87123 784.67198 440.125 784.5 C 439.62693 761.36335 440.08271 738.1911 441.15625 715.03125 C 441.21719 713.32264 441.28404 711.6149 441.34375 709.90625 z "
     id="path10818" />
</svg>
