<?xml version="1.0" encoding="utf-8" ?>

<!DOCTYPE svg PUBLIC "-//W3C//DTD SVG 1.1//EN" 
  "http://www.w3.org/Graphics/SVG/1.1/DTD/svg11.dtd">
<svg 
    xmlns="http://www.w3.org/2000/svg"
    xmlns:xlink="http://www.w3.org/1999/xlink"
    xmlns:sodipodi="http://sodipodi.sourceforge.net/DTD/sodipodi-0.dtd"
    xmlns:inkscape="http://www.inkscape.org/namespaces/inkscape"
    width="1024" height="1024" id="U8FC7">
<path d="m 8564.5076,16760.958 c 43.2319,-0 85.9727,-8.403 128.3904,-15.881 67.9044,-13.094 136.3134,-23.14 204.8911,-31.916 37.369,-3.734 74.6672,-10.497 112.3098,-10.665 4.5131,0.737 9.0261,1.474 13.5392,2.211 17.973,4.978 -5.4925,89.704 -23.4655,84.726 l 0,0 c 2.4951,0.178 4.9902,0.357 7.4853,0.535 -32.9127,-3.667 -66.6387,6.923 -99.4167,7.59 -67.0896,8.024 -133.9563,17.799 -200.2142,31.168 -47.8657,8.869 -95.953,18.28 -144.7518,19.731 -18.5613,-0.261 -17.329,-87.76 1.2324,-87.499 z" id="path24295" inkscape:connector-curvature="0" style="fill:#550000;fill-opacity:1;fill-rule:nonzero;stroke:#f9f9f9;stroke-width:0.1;stroke-miterlimit:4;stroke-dasharray:none" transform="translate(-8192, -16384)"/><path d="m 8915.3356,16633.305 c -6.0176,37.07 -6.9075,74.769 -8.2332,112.231 -1.7583,67.308 -2.8692,134.631 -4.188,201.949 -0.8563,56.051 -2.1565,112.09 -5.5237,168.051 -2.0273,27.454 -4.1205,54.985 -8.9735,82.109 -4.3704,26.677 -20.5365,44.17 -43.8483,56.372 -16.7222,8.083 -54.8243,-70.747 -38.102,-78.829 l 0,0 c -0.8764,1.235 -8.6099,16.138 -3.9178,5.899 5.0742,-23.42 6.5724,-47.493 8.9943,-71.276 4.0201,-54.611 5.6347,-109.337 6.6547,-164.079 1.4735,-67.58 2.5026,-135.167 3.5751,-202.755 1.0353,-41.767 1.8821,-83.671 7.3142,-125.152 3.2839,-18.296 89.5321,-2.816 86.2482,15.48 z" id="path24297" inkscape:connector-curvature="0" style="fill:#550000;fill-opacity:1;fill-rule:nonzero;stroke:#f9f9f9;stroke-width:0.1;stroke-miterlimit:4;stroke-dasharray:none" transform="translate(-8192, -16384)"/><path d="m 8710.4796,16913.331 c 13.4027,19.803 33.3948,33.934 52.5509,47.702 17.4754,12.095 8.7746,6.04 26.1029,18.164 15.0197,10.596 -34.9307,81.399 -49.9504,70.803 l 0,0 c -17.2064,-12.243 -8.2763,-5.938 -26.8005,-18.9 -29.4925,-21.418 -58.9204,-44.11 -78.6005,-75.403 -8.9873,-16.27 67.7103,-58.636 76.6976,-42.366 z" id="path24299" inkscape:connector-curvature="0" style="fill:#550000;fill-opacity:1;fill-rule:nonzero;stroke:#f9f9f9;stroke-width:0.1;stroke-miterlimit:4;stroke-dasharray:none" transform="translate(-8192, -16384)"/><path d="m 8408.8169,16708.772 c 14.9943,30.468 33.0205,59.32 50.7006,88.273 3.2781,5.365 6.5561,10.73 9.8342,16.095 9.5081,15.649 -64.2603,60.471 -73.7685,44.822 l 0,0 c -3.2315,-5.348 -6.4631,-10.697 -9.6946,-16.045 -18.8475,-30.987 -37.8992,-61.875 -55.2332,-93.747 -8.3577,-16.581 69.8038,-55.979 78.1615,-39.398 z" id="path24305" inkscape:connector-curvature="0" style="fill:#550000;fill-opacity:1;fill-rule:nonzero;stroke:#f9f9f9;stroke-width:0.1;stroke-miterlimit:4;stroke-dasharray:none" transform="translate(-8192, -16384)"/><path d="m 8350.7192,16905.31 c 13.0179,13.784 27.6236,25.904 42.7496,37.281 16.1995,11.096 30.7908,23.451 42.4611,39.272 17.3186,31.792 7.6623,57.203 -16.6141,80.716 -12.1903,10.607 -24.4293,21.126 -35.3004,33.108 5.996,-6.159 -6.0681,6.517 -3.8168,5.885 7.5609,-2.122 3.9299,-19.782 2.5568,-24.498 14.534,8.979 25.0525,24.339 33.5138,39.415 12.6174,35.791 -2.7764,66.2 -23.3247,94.855 -5.3805,10.765 -17.7366,17.677 -22.9108,28.481 -0.3005,0.627 1.2531,-0.771 1.5459,-1.402 1.7246,-3.717 2.9504,-7.647 4.4255,-11.47 -3.1545,-32.492 1.7414,-7.585 -6.5192,-27.155 -1.0513,-2.49 5.0086,2.041 7.4687,3.162 10.1852,4.641 12.7451,5.276 24.0463,9.369 48.4315,15.667 98.9668,22.787 149.3384,28.763 70.3716,7.692 141.2222,7.194 211.8565,4.764 56.6897,-2.459 113.1129,-8.86 169.1282,-17.749 5.8454,-1.093 11.6909,-2.186 17.5363,-3.279 18.0282,-3.187 33.0551,81.799 15.0268,84.986 l 0,0 c -6.5873,1.106 -13.1746,2.211 -19.7619,3.317 -59.3998,8.494 -119.1349,14.788 -179.1164,17.201 -74.8299,2.413 -149.8651,2.846 -224.4374,-4.943 -56.8646,-6.444 -113.8809,-14.301 -168.6297,-31.616 -26.1089,-9.213 -64.8482,-20.402 -77.3659,-48.563 -3.7931,-8.533 -3.9163,-18.261 -5.8744,-27.391 1.7847,-6.782 2.8491,-13.796 5.3541,-20.346 5.6514,-14.776 19.9011,-24.519 28.4146,-37.382 9.7383,-13.066 8.0924,-21.559 14.7855,-6.009 0.7345,0.648 1.2425,1.754 2.2034,1.945 2.627,0.523 -3.3249,-4.229 -5.2926,-6.046 -8.6465,-7.985 -17.9889,-15.23 -24.7503,-25.062 -2.876,-5.329 -6.6695,-10.257 -8.628,-15.987 -9.2673,-27.113 0.7491,-52.321 19.0326,-72.472 12.3676,-13.26 25.5998,-25.592 39.2865,-37.482 0.6585,-0.57 1.1079,-1.782 1.9755,-1.709 0.7592,0.06 -2.0912,2.306 -3.0958,8.208 -1.5706,9.226 -0.6162,17.662 5.0723,25.232 4.0171,2.931 -14.0367,-12.398 -14.5872,-12.819 -2.5853,-1.977 -5.1869,-3.933 -7.7804,-5.899 -18.2933,-14.033 -35.8829,-28.936 -52.3556,-45.088 -13.066,-13.233 49.3173,-74.827 62.3832,-61.593 z" id="path24309" inkscape:connector-curvature="0" style="fill:#550000;fill-opacity:1;fill-rule:nonzero;stroke:#f9f9f9;stroke-width:0.1;stroke-miterlimit:4;stroke-dasharray:none" transform="translate(-8192, -16384)"/></svg>