<?xml version="1.0" encoding="UTF-8" standalone="no"?>
<svg
   xmlns:dc="http://purl.org/dc/elements/1.1/"
   xmlns:cc="http://creativecommons.org/ns#"
   xmlns:rdf="http://www.w3.org/1999/02/22-rdf-syntax-ns#"
   xmlns:svg="http://www.w3.org/2000/svg"
   xmlns="http://www.w3.org/2000/svg"
   xmlns:sodipodi="http://sodipodi.sourceforge.net/DTD/sodipodi-0.dtd"
   xmlns:inkscape="http://www.inkscape.org/namespaces/inkscape"
   width="1024"
   height="1024"
   id="U8FDB"
   version="1.1"
   inkscape:version="0.48.0 r9654"
   sodipodi:docname="U+8FDB.svg">
  <metadata
     id="metadata13">
    <rdf:RDF>
      <cc:Work
         rdf:about="">
        <dc:format>image/svg+xml</dc:format>
        <dc:type
           rdf:resource="http://purl.org/dc/dcmitype/StillImage" />
      </cc:Work>
    </rdf:RDF>
  </metadata>
  <defs
     id="defs11" />
  <sodipodi:namedview
     pagecolor="#ffffff"
     bordercolor="#666666"
     borderopacity="1"
     objecttolerance="10"
     gridtolerance="10"
     guidetolerance="10"
     inkscape:pageopacity="0"
     inkscape:pageshadow="2"
     inkscape:window-width="640"
     inkscape:window-height="480"
     id="namedview9"
     showgrid="false"
     inkscape:zoom="0.27441406"
     inkscape:cx="512"
     inkscape:cy="512"
     inkscape:window-x="0"
     inkscape:window-y="25"
     inkscape:window-maximized="0"
     inkscape:current-layer="U8FDB" />
  <path
     style="fill:#2b0000;fill-opacity:1;fill-rule:nonzero;stroke:#f9f9f9;stroke-width:0.1;stroke-miterlimit:4;stroke-dasharray:none"
     d="M 652.6875 226.1875 C 640.4926 226.30046 631.21125 228.79406 630.1875 234.625 C 624.07911 285.48292 623.40857 336.8117 622.28125 387.96875 C 593.69063 390.52755 565.10526 393.33998 536.5625 396.375 C 537.21524 349.34775 537.4409 302.25729 540.375 255.3125 C 541.6686 236.3945 452.481 230.30175 451.1875 249.21875 C 450.16478 301.37621 450.54284 353.55326 450.3125 405.71875 C 437.39644 406.88412 424.4582 407.83058 411.5 408.40625 C 392.569 408.95525 395.16275 498.20425 414.09375 497.65625 C 425.7675 496.72475 437.41634 495.58567 449.0625 494.375 C 448.54257 518.98737 447.8969 543.60864 447.25 568.21875 C 436.28734 567.08311 425.41423 565.29256 414.78125 562.375 C 397.33425 554.964 362.39675 637.214 379.84375 644.625 C 401.0017 651.67024 422.93373 654.87016 445.0625 656.375 C 444.13707 703.8769 443.68327 751.43215 446.53125 798.875 C 409.6037 799.44517 372.69196 799.37521 335.78125 797.71875 C 307.89962 796.27653 279.9925 794.5269 252.25 791.40625 C 270.90051 767.3206 287.6458 741.5611 294.875 711.53125 C 299.1572 678.14625 294.0921 652.3475 270.75 627.0625 C 267.22128 623.49003 263.64855 620.05196 260 616.71875 C 270.78695 605.29205 281.79879 594.06384 290.5625 580.9375 C 293.4154 575.1285 297.6464 569.8 299.125 563.5 C 309.0896 521.039 284.0527 496.39525 245.6875 488.65625 C 221.3263 484.33625 196.7072 481.47375 172.5625 475.96875 C 154.0236 472.05875 135.586 559.43275 154.125 563.34375 C 163.89145 565.20207 173.71209 566.79687 183.53125 568.34375 C 182.01386 570.01581 180.52329 571.67902 179.03125 573.375 C 156.01855 601.643 152.4956 622.17475 170.625 655.09375 C 180.2346 668.91875 195.41955 676.91475 206.65625 689.09375 C 211.08675 694.18175 209.44175 693.54325 207.09375 696.65625 C 200.57465 713.22825 190.0232 727.6075 178.875 741.3125 C 169.2911 752.8455 157.6033 762.1865 145.4375 770.8125 C 117.9646 788.7325 121.15425 789.85725 115.03125 827.15625 C 120.82115 836.34225 125.16195 846.5985 132.40625 854.6875 C 143.46685 867.0365 177.4733 870.008 193.0625 872.5 C 238.9142 879.787 285.26465 882.66475 331.59375 884.71875 C 398.65735 887.28075 465.7616 885.161 532.8125 883.375 C 589.6379 881.501 646.48345 881.9785 703.28125 884.3125 C 736.71485 885.6415 769.94735 889.59825 803.21875 892.90625 C 824.36135 894.80325 845.59785 895.7725 866.40625 900.1875 C 873.65555 902.1725 870.12965 901.14 876.96875 903.25 C 895.16715 908.516 920.0109 822.73475 901.8125 817.46875 C 890.4456 814.31475 896.4567 815.8745 883.6875 812.8125 C 859.8788 808.3195 835.81185 806.36275 811.65625 804.71875 C 776.68315 801.50946 741.72761 797.72719 706.59375 796.75 C 704.08706 749.04393 704.49455 701.26196 704.875 653.5 C 735.97607 653.29345 767.04541 654.2513 798.09375 656.125 C 808.46905 657.312 818.55175 656.48175 828.84375 655.21875 C 846.31305 651.7945 832.29498 574.48322 815.125 567.65625 C 811.56966 569.55422 804.60606 563.12299 802.375 567.5 C 770.13279 566.32276 737.8527 565.7955 705.59375 566.21875 C 705.89536 534.0962 706.2745 501.96273 706.8125 469.84375 C 718.11356 469.59219 745.73509 469.64431 733.4375 471.0625 C 751.6565 476.3055 776.37525 390.4305 758.15625 385.1875 C 741.79931 381.6584 725.36707 380.89113 708.84375 381.375 C 710.24711 337.51864 711.53091 293.4731 718.15625 250.0625 C 720.4085 237.23444 679.51628 225.939 652.6875 226.1875 z M 815.125 567.65625 C 815.29557 567.56519 815.47112 567.44394 815.625 567.3125 C 816.3888 566.66075 814.49446 566.96523 812.9375 567.15625 C 813.67401 567.18146 814.3977 567.36707 815.125 567.65625 z M 217.9375 276.8125 C 199.04352 277.74633 155.55599 339.95367 169.6875 350.21875 C 178.8301 356.35375 186.96065 363.71825 195.03125 371.15625 C 208.86955 383.86525 268.7758 318.61625 254.9375 305.90625 C 244.341 296.19725 233.68295 286.5535 222.15625 277.9375 C 220.95866 277.0675 219.53868 276.73336 217.9375 276.8125 z M 621 475.78125 C 620.60636 506.69714 620.23116 537.61478 619.875 568.53125 C 590.896 569.38052 561.92597 570.11633 532.9375 570.375 C 533.58516 541.73847 534.27175 513.10559 534.90625 484.46875 C 536.18783 484.32021 537.4683 484.17845 538.75 484.03125 C 566.12944 480.95692 593.55235 478.19082 621 475.78125 z M 812.46875 567.15625 C 812.17806 567.16933 811.88526 567.22411 811.59375 567.28125 C 811.89767 567.28352 812.3484 567.21155 812.8125 567.15625 C 812.6986 567.15474 812.5828 567.15112 812.46875 567.15625 z M 228.9375 575.96875 C 229.11355 576.00308 229.29273 576.02799 229.46875 576.0625 C 231.31535 576.6205 233.2469 576.91375 235 577.71875 C 235.3344 577.87275 234.30515 578.274 233.96875 578.125 C 232.32888 577.39766 230.55979 576.78172 228.9375 575.96875 z M 618.75 655.5625 C 618.01505 702.17744 617.24652 748.80448 618.59375 795.40625 C 590.887 795.41786 563.16976 795.87447 535.46875 796.75 C 535.28892 795.74745 535.11735 794.75255 534.9375 793.75 C 530.60682 748.53321 530.99074 703.00258 531.25 657.625 C 560.42243 657.20942 589.58555 656.39884 618.75 655.5625 z M 191.875 847.46875 C 188.82623 850.28684 186.82293 851.24336 191.875 847.46875 z "
     id="path9393" />
</svg>
