<?xml version="1.0" encoding="utf-8" ?>

<!DOCTYPE svg PUBLIC "-//W3C//DTD SVG 1.1//EN" 
  "http://www.w3.org/Graphics/SVG/1.1/DTD/svg11.dtd">
<svg 
    xmlns="http://www.w3.org/2000/svg"
    xmlns:xlink="http://www.w3.org/1999/xlink"
    xmlns:sodipodi="http://sodipodi.sourceforge.net/DTD/sodipodi-0.dtd"
    xmlns:inkscape="http://www.inkscape.org/namespaces/inkscape"
    width="1024" height="1024" id="U8FDE">
<path d="m 9578.1646,30028.402 c 32.0729,-2.771 63.9614,-7.385 95.8869,-11.469 45.0552,-5.743 90.2772,-9.993 135.5721,-13.282 34.5792,-2.404 69.234,-3.236 103.8861,-3.554 12.9295,-0.06 25.8487,-0.07 38.7482,-1.001 18.6969,-1.073 23.758,87.064 5.0611,88.138 l 0,0 c -14.4765,0.68 -28.9516,0.73 -43.4433,0.575 -32.7349,-0.03 -65.4771,0.52 -98.155,2.596 -43.5672,2.955 -87.0626,6.949 -130.3564,12.71 -33.042,4.45 -66.0301,9.3 -99.1105,13.459 -18.7042,1.716 -26.7934,-86.456 -8.0892,-88.172 z" id="path9746" inkscape:connector-curvature="0" style="fill:#2b0000;fill-opacity:1;fill-rule:nonzero;stroke:#f9f9f9;stroke-width:0.1;stroke-miterlimit:4;stroke-dasharray:none" transform="translate(-9216, -29696)"/><path d="m 9835.2865,29994.445 c -18.0094,27.96 -33.1313,57.683 -48.6531,87.064 -26.161,49.91 -52.8865,99.519 -79.2153,149.34 -17.3195,33.159 -34.1728,66.56 -50.9551,99.994 -15.2829,30.148 2.3462,5.492 -7.0383,-13.752 -3.9611,-8.122 -12.1303,-13.398 -18.1954,-20.097 -22.7361,-5.326 -5.0585,-5.429 3.5006,-7.084 18.6859,-3.612 7.0177,-1.393 27.1012,-5.161 36.3061,-6.571 72.7962,-12.006 109.4171,-16.47 40.3099,-4.035 80.7205,-6.835 121.0478,-10.693 30.6414,-3.116 61.3637,-5.257 92.0948,-7.242 7.0506,-0.538 14.1101,-0.802 21.1782,-0.887 18.822,0.35 17.17,89.077 -1.652,88.727 l 0,0 c -4.8857,-0.617 -9.834,0.134 -14.7312,0.07 -29.6099,1.307 -59.1971,3.089 -88.6952,6.035 -39.5376,3.692 -79.143,6.534 -118.6579,10.458 -34.623,4.257 -69.1051,9.545 -103.3817,16.049 -28.5181,5.673 -56.7681,15.521 -85.5976,6.239 -8.0641,-7.657 -18.6399,-13.337 -24.1923,-22.972 -12.6665,-21.98 -0.639,-44.696 9.6931,-63.673 17.7625,-33.267 35.3053,-66.649 52.8835,-100.013 26.4422,-49.525 52.9951,-98.996 78.5471,-148.989 16.5507,-32.082 32.8338,-64.36 51.4004,-95.341 10.2656,-15.719 84.367,32.674 74.1013,48.393 z" id="path9748" inkscape:connector-curvature="0" style="fill:#2b0000;fill-opacity:1;fill-rule:nonzero;stroke:#f9f9f9;stroke-width:0.1;stroke-miterlimit:4;stroke-dasharray:none" transform="translate(-9216, -29696)"/><path d="m 9880.9144,30153.988 c -5.3315,35.35 -6.1432,71.227 -7.9399,106.886 -2.8981,56.22 -8.2877,112.266 -11.7343,168.449 -2.1709,33.881 -0.9655,67.778 4.8096,101.222 1.012,5.581 2.532,11.024 4.4515,16.35 5.4504,17.982 -79.3193,43.675 -84.7697,25.693 l 0,0 c -2.5858,-9.314 -4.9631,-18.687 -6.4298,-28.258 -5.9244,-39.933 -7.1882,-80.267 -4.2883,-120.563 3.7496,-55.629 9.1253,-111.152 11.5022,-166.87 1.632,-39.218 2.4495,-78.561 7.1679,-117.564 3.1087,-18.505 90.3395,-3.85 87.2308,14.655 z" id="path9750" inkscape:connector-curvature="0" style="fill:#2b0000;fill-opacity:1;fill-rule:nonzero;stroke:#f9f9f9;stroke-width:0.1;stroke-miterlimit:4;stroke-dasharray:none" transform="translate(-9216, -29696)"/><path d="m 9574.6866,30438.155 c 36.737,-5.51 73.2048,-12.683 109.8147,-18.977 52.9336,-8.988 106.126,-16.315 159.3451,-23.369 43.3306,-5.542 86.6132,-11.455 129.9486,-16.958 25.9439,-3.545 51.892,-6.495 77.857,-2.193 17.814,5.996 8.443,1.634 27.346,14.624 13.575,13.077 -48.07,77.071 -61.645,63.994 l 0,0 c 13.182,7.965 7.344,6.276 16.351,8.07 -14.906,-4.118 -33.641,1.937 -49.3471,2.146 -43.1255,5.032 -86.1775,10.673 -129.2642,16.022 -52.0068,6.754 -103.9741,13.904 -155.635,22.982 -36.739,6.568 -73.3404,13.828 -109.9837,20.905 -18.5075,3.136 -33.2949,-84.109 -14.7874,-87.246 z" id="path9752" inkscape:connector-curvature="0" style="fill:#2b0000;fill-opacity:1;fill-rule:nonzero;stroke:#f9f9f9;stroke-width:0.1;stroke-miterlimit:4;stroke-dasharray:none" transform="translate(-9216, -29696)"/><path d="m 9389.7852,29983.064 c 15.7572,21.158 31.6368,42.215 46.8443,63.774 6.8389,9.932 13.3234,20.099 19.8148,30.259 9.9334,15.833 -64.7005,62.659 -74.634,46.827 l 0,0 c -5.5222,-8.98 -11.0596,-17.953 -16.9824,-26.678 -14.257,-20.416 -29.1524,-40.381 -44.827,-59.735 -11.55,-14.803 58.2344,-69.25 69.7843,-54.447 z" id="path9764" inkscape:connector-curvature="0" style="fill:#2b0000;fill-opacity:1;fill-rule:nonzero;stroke:#f9f9f9;stroke-width:0.1;stroke-miterlimit:4;stroke-dasharray:none" transform="translate(-9216, -29696)"/><path d="m 9317.5602,30185.507 c 24.6949,1.869 49.4478,2.286 74.1966,1.727 16.6387,-0.455 33.1833,-2.4 49.8211,-2.826 34.7203,-0.299 34.4646,9.304 52.6607,58.594 1.6444,4.454 -3.6592,8.763 -5.4887,13.145 -9.8709,14.146 -21.6219,26.842 -32.3403,40.377 -16.8958,21.382 -33.0049,43.354 -48.1528,66.006 -6.4135,10.435 -14.9146,22.161 -19.9933,32.268 8.8722,-18.931 2.6831,-34.359 -11.1996,-50.048 -2.9509,-3.335 -18.6904,-8.205 -15.7776,-8.236 14.4319,0.157 28.8643,-0.02 43.2967,0.09 20.4852,0.152 40.8276,2.214 60.815,6.663 19.6146,5.659 40.4848,15.939 47.6391,36.988 2.4761,7.285 2.0743,15.249 3.1114,22.873 -3.9333,25.168 -20.5049,43.694 -36.5755,62.281 -19.6744,23.045 -42.3919,43.057 -66.0124,61.913 -23.9752,18.596 -49.5284,34.994 -75.4779,50.662 -14.3318,9.032 -29.8264,16.189 -43.7281,25.9 -0.9955,0.737 -2.0567,1.393 -2.9866,2.211 -0.2472,0.217 0.6742,-0.154 0.9103,-0.384 2.1549,-2.095 5.2222,-3.699 6.209,-6.538 3.5243,-10.14 9.5379,-21.008 6.9902,-31.436 -6.6904,-27.383 -15.4114,-28.21 -32.553,-34.208 8.6857,-1.862 25.105,-2.143 36.1754,-1.983 24.4544,1.422 48.335,7.405 72.0435,13.195 39.722,10.888 80.1627,18.489 120.7596,25.215 56.7317,9.016 113.8842,14.98 171.0557,20.363 60.948,5.351 122.1356,7.122 183.2947,7.253 52.5095,1.081 104.2784,-5.637 155.0356,-18.61 20.546,-5.498 40.367,-13.122 60.093,-20.968 17.174,-6.711 48.809,74.244 31.636,80.955 l 0,0 c -23.232,8.941 -46.56,17.661 -70.702,23.908 -57.8039,14.248 -116.6572,22.046 -176.3411,20.711 -63.7332,-0.273 -127.49,-2.162 -191.0084,-7.671 -59.1314,-5.478 -118.2422,-11.529 -176.953,-20.569 -42.6978,-6.827 -85.2591,-14.476 -127.1584,-25.289 -17.7195,-4.092 -35.5084,-8.408 -53.6366,-10.218 -15.1047,-0.541 -30.0009,3.019 -45.129,1.779 -5.8976,-1.513 -13.0404,-0.611 -17.6927,-4.539 -37.6645,-31.797 -36.0681,-61.435 0.869,-86.802 15.4386,-10.035 31.8432,-18.37 47.7354,-27.648 22.7154,-13.442 45.0434,-27.601 65.9263,-43.79 19.3296,-15.399 38.0155,-31.662 53.8811,-50.716 1.9613,-2.308 14.0875,-19.567 16.2427,-20.468 0.5003,-0.209 -0.222,1.062 -0.333,1.592 -0.398,2.789 -0.796,5.577 -1.1939,8.365 2.3906,11.473 5.0163,29.601 19.5025,32.98 0.741,0.173 -4.1972,-3.121 -1.9109,-1.248 -13.3546,-3.526 -27.1891,-4.275 -40.9519,-4.556 -15.2994,-0.02 -30.594,0.366 -45.893,0.349 -38.9801,-1.629 -65.9314,-30.152 -49.4371,-69.94 7.8369,-14.574 17.7326,-27.908 26.7252,-41.775 16.4714,-24.149 33.698,-47.76 51.4877,-70.956 3.8354,-4.992 9.8106,-12.824 13.8025,-17.814 3.2326,-4.04 6.2755,-7.642 9.6208,-11.517 0.4986,-0.577 1.5575,-2.474 1.5191,-1.712 -0.057,1.129 -1.0559,2 -1.5838,2.999 -8.4163,25.85 -5.3277,9.948 30.3037,58.116 1.551,2.097 9.9629,0.627 1.781,0.506 -16.3704,-0.352 -32.6998,2.175 -49.076,1.989 -26.8724,0.418 -53.7172,-0.215 -80.5726,-1.202 -18.7322,-1.001 -14.0136,-89.305 4.7186,-88.304 z" id="path9774" inkscape:connector-curvature="0" style="fill:#2b0000;fill-opacity:1;fill-rule:nonzero;stroke:#f9f9f9;stroke-width:0.1;stroke-miterlimit:4;stroke-dasharray:none" transform="translate(-9216, -29696)"/></svg>