<?xml version="1.0" encoding="utf-8" ?>

<!DOCTYPE svg PUBLIC "-//W3C//DTD SVG 1.1//EN" 
  "http://www.w3.org/Graphics/SVG/1.1/DTD/svg11.dtd">
<svg 
    xmlns="http://www.w3.org/2000/svg"
    xmlns:xlink="http://www.w3.org/1999/xlink"
    xmlns:sodipodi="http://sodipodi.sourceforge.net/DTD/sodipodi-0.dtd"
    xmlns:inkscape="http://www.inkscape.org/namespaces/inkscape"
    width="1024" height="1024" id="U8FCE">
<path d="m 7732.713,59651.16 c -21.2263,14.708 -41.3336,30.948 -61.5318,47.015 -24.9331,19.716 -49.064,40.394 -72.2809,62.099 -16.0419,15.149 -30.8999,31.482 -45.1284,48.328 10.2049,-10.97 -7.1346,7.683 -4.8484,6.329 0.7373,-0.437 1.086,-1.327 1.629,-1.99 -9.0039,16.535 -86.9499,-25.91 -77.946,-42.445 l 0,0 c 4.267,-6.963 8.6008,-13.784 14.3928,-19.625 16.6883,-18.91 33.8864,-37.395 52.3255,-54.624 24.9254,-23.096 50.6916,-45.243 77.2732,-66.419 21.2507,-17.036 42.5122,-34.063 64.2853,-50.432 15.2234,-10.995 67.0532,60.77 51.8297,71.764 z" id="path12889" inkscape:connector-curvature="0" style="fill:#2b1100;fill-opacity:1;fill-rule:nonzero;stroke:none" transform="translate(-7168, -59392)"/><path d="m 7584.1399,59761.966 c 0.077,35.809 -1.4973,71.578 -3.3321,107.33 -2.6969,43.307 -4.596,86.639 -3.1122,130.019 1.0369,24.897 4.9119,49.504 13.5292,72.906 3.9459,10.132 9.5891,19.458 16.1649,28.081 2.2755,3.259 5.7819,4.742 0.8822,1.174 -3.1221,-2.857 -18.3304,-2.505 -5.4269,-2.766 -2.2798,0.176 4.7636,-2.171 7.2235,-3.158 13.6066,-5.651 27.2576,-11.168 40.6784,-17.252 2.3192,-1.181 4.6384,-2.363 6.9576,-3.544 16.6636,-8.464 56.5637,70.088 39.9002,78.553 l 0,0 c -3.4208,1.734 -6.8416,3.468 -10.2624,5.202 -14.6031,6.699 -29.4264,12.866 -44.2058,19.163 -12.3215,4.972 -24.9529,9.567 -38.4069,9.869 -12.2309,0.275 -24.2899,-0.545 -35.4116,-6.263 -13.372,-7.011 -24.7349,-16.46 -33.4996,-28.864 -11.3117,-15.886 -21.1346,-32.793 -27.6451,-51.263 -10.7963,-32.097 -16.6456,-65.349 -17.4816,-99.266 -1.1625,-45.63 0.8171,-91.194 3.4024,-136.753 1.5112,-33.908 3.0763,-67.878 1.6379,-101.818 -0.2863,-18.754 88.1215,-20.104 88.4079,-1.35 z" id="path12891" inkscape:connector-curvature="0" style="fill:#2b1100;fill-opacity:1;fill-rule:nonzero;stroke:none" transform="translate(-7168, -59392)"/><path d="m 7731.1619,59697.829 c 26.3456,-7.121 53.2244,-8.426 80.2713,-6.117 30.4107,3.612 57.4351,17.041 82.6203,33.704 26.4186,18.117 41.1196,44.51 51.3312,74.057 9.5142,33.096 10.9466,67.624 11.3673,101.834 -0.019,37.277 -4.4508,74.32 -9.9223,111.129 -5.0043,30.27 -10.1791,60.513 -15.5182,90.726 -3.6357,19.733 -7.5091,39.421 -11.4188,59.101 -2.0249,11.002 -4.5033,21.835 -8.2678,32.37 -6.763,16.611 -19.8904,27.211 -35.6578,34.632 -6.1284,2.57 -12.4592,4.598 -18.6942,6.885 -17.6088,6.566 -48.5629,-76.443 -30.9541,-83.009 l 0,0 c 4.2675,-1.611 8.5318,-3.265 12.8703,-4.673 -3.1919,3.027 -8.9283,8.16 -10.2655,13.894 0.3963,-1.307 3.7016,-13.491 4.4519,-18.141 4.1222,-18.837 7.9525,-37.737 11.592,-56.673 5.4261,-29.315 10.5528,-58.687 15.4912,-88.088 4.8857,-32.142 8.9181,-64.494 8.9331,-97.065 -0.3186,-25.163 -1.1196,-50.578 -7.3894,-75.091 -3.4695,-11.244 -7.3669,-21.681 -17.1705,-28.95 -12.7251,-8.892 -26.3748,-16.632 -41.9105,-19.173 -16.2847,-1.987 -32.5513,-0.687 -48.3185,4.04 -18.1144,4.972 -41.5555,-80.42 -23.441,-85.392 z" id="path12897" inkscape:connector-curvature="0" style="fill:#2b1100;fill-opacity:1;fill-rule:nonzero;stroke:none" transform="translate(-7168, -59392)"/><path d="m 7763.7374,59760.992 c 7.0796,43.253 10.6165,86.924 13.3686,130.629 3.8813,71.851 2.4204,143.826 0.3275,215.705 -2.257,65.864 -5.3283,131.699 -6.5409,197.594 -0.3844,20.824 0.015,41.63 1.1171,62.423 0.6898,18.64 -87.1822,21.892 -87.872,3.252 l 0,0 c -0.5175,-22.649 -0.4855,-45.292 0.3121,-67.937 2.2221,-65.931 5.7554,-131.81 7.9143,-197.744 1.9067,-69.156 3.0686,-138.414 -1.2424,-207.514 -2.8912,-40.314 -6.158,-80.72 -14.2724,-120.387 -3.3988,-18.431 83.4893,-34.453 86.8881,-16.021 z" id="path12903" inkscape:connector-curvature="0" style="fill:#2b1100;fill-opacity:1;fill-rule:nonzero;stroke:none" transform="translate(-7168, -59392)"/><path d="m 7334.2859,59687.938 c 13.584,23.75 27.1394,47.463 38.6896,72.281 7.7705,16.899 -71.8922,53.529 -79.6627,36.63 l 0,0 c -10.1898,-22.535 -22.7899,-43.825 -35.7374,-64.873 -9.3418,-16.273 67.3687,-60.311 76.7105,-44.038 z" id="path12905" inkscape:connector-curvature="0" style="fill:#2b1100;fill-opacity:1;fill-rule:nonzero;stroke:none" transform="translate(-7168, -59392)"/><path d="m 7279.8026,59890.991 c 20.1694,12.606 40.7699,24.491 60.8308,37.277 18.8196,12.045 36.2334,27.288 41.1523,50.292 1.2883,6.025 0.7024,12.302 1.0536,18.453 -3.2625,24.553 -17.0137,44.984 -30.7155,64.915 -8.6242,12.518 -17.9788,24.567 -25.2249,37.969 -2.5241,9.517 0.5217,-4.017 0.2913,-7.224 4.2862,2.53 12.0758,13.792 16.2292,19.261 15.6023,20.303 23.4182,43.738 26.679,68.824 2.0657,25.646 -6.5182,49.05 -17.7492,71.547 -8.2328,15.008 -16.2431,30.121 -23.3675,45.689 -3.8449,10.168 -9.2889,20.129 -11.5462,30.842 4.738,-10.957 -2.3995,-23.539 -9.752,-31.22 -6.8969,-4.12 6.7733,-0.06 8.4562,0.204 24.5239,2.657 49.2947,0.892 73.8611,-0.231 49.8769,-2.641 99.575,-7.763 149.3385,-11.912 59.9715,-5.075 120.1747,-4.826 180.3025,-5.222 60.5992,-0.654 121.1702,-2.762 181.7474,-4.427 52.3247,-1.431 104.6521,-2.85 156.9552,-4.945 21.4608,-0.813 42.8854,-2.213 64.301,-3.783 18.3995,-1.289 24.4744,85.447 6.075,86.735 l 0,0 c -22.3463,1.496 -44.6998,2.835 -67.0859,3.599 -52.653,1.896 -105.326,3.158 -157.9978,4.411 -61.1248,1.514 -122.2374,3.62 -183.3782,4.38 -57.9055,0.449 -115.8917,0.148 -173.6429,5.099 -50.7131,4.37 -101.3348,9.871 -152.1417,13.094 -30.6833,1.744 -61.6177,4.117 -92.2519,0.427 -17.3987,-2.805 -34.6033,-6.763 -49.0983,-17.384 -18.7068,-16.683 -27.8592,-38.03 -20.9349,-63.092 4.5295,-14.868 10.312,-29.33 16.6666,-43.509 7.646,-16.493 16.0157,-32.616 24.7578,-48.555 3.6523,-7.067 7.6565,-14.276 8.7511,-22.263 -0.2115,-9.273 -3.6846,-17.444 -9.2257,-24.872 -10.3272,-13.56 -22.7402,-25.81 -29.0546,-41.988 -7.4787,-23.149 -6.6921,-45.529 5.8442,-66.913 8.9619,-15.531 19.2367,-30.169 29.6973,-44.72 1.206,-1.725 17.4872,-31.465 14.7661,-19.035 3.4,16.743 17.4405,23.918 -1.5623,9.449 -19.1187,-12.586 -38.8757,-24.122 -58.7731,-35.428 -16.0678,-9.704 29.6787,-85.448 45.7464,-75.744 z" id="path12913" inkscape:connector-curvature="0" style="fill:#2b1100;fill-opacity:1;fill-rule:nonzero;stroke:none" transform="translate(-7168, -59392)"/></svg>