<?xml version="1.0" encoding="utf-8" ?>

<!DOCTYPE svg PUBLIC "-//W3C//DTD SVG 1.1//EN" 
  "http://www.w3.org/Graphics/SVG/1.1/DTD/svg11.dtd">
<svg 
    xmlns="http://www.w3.org/2000/svg"
    xmlns:xlink="http://www.w3.org/1999/xlink"
    xmlns:sodipodi="http://sodipodi.sourceforge.net/DTD/sodipodi-0.dtd"
    xmlns:inkscape="http://www.inkscape.org/namespaces/inkscape"
    width="1024" height="1024" id="U8FD9">
<path d="m 9844.3713,63651.555 c 6.3878,21.403 18.3189,40.273 31.4513,58.095 8.0585,10.149 16.2104,20.21 24.1551,30.449 11.3214,14.807 -58.4808,68.177 -69.8022,53.37 l 0,0 c -8.2126,-10.934 -16.8183,-21.545 -25.1809,-32.365 -18.706,-26.01 -35.3156,-53.497 -45.3942,-84.118 -5.3948,-17.982 79.3761,-43.414 84.7709,-25.431 z" id="path14419" inkscape:connector-curvature="0" style="fill:#2b1100;fill-opacity:1;fill-rule:nonzero;stroke:none" transform="translate(-9216, -63488)"/><path d="m 9608.2238,63819.949 c 31.8777,6.684 64.9874,4.982 97.3747,4.896 58.3506,0.06 116.6823,-1.396 175.0099,-2.838 50.5681,-1.366 101.1531,-1.843 151.7306,-2.729 26.809,-0.429 53.6,-1.501 80.392,-2.497 2.244,-0.03 4.487,-0.06 6.731,-0.08 18.783,0.151 18.074,88.697 -0.709,88.547 l 0,0 c -1.345,-0.06 -2.69,-0.114 -4.035,-0.171 -27.078,0.19 -54.151,0.921 -81.23,1.074 -50.2844,0.452 -100.5737,0.696 -150.8483,1.893 -58.7886,1.323 -117.5756,2.777 -176.3789,3.282 -40.2617,0.505 -81.1239,2.42 -120.795,-5.833 -18.1454,-4.828 4.6125,-90.367 22.758,-85.539 z" id="path14421" inkscape:connector-curvature="0" style="fill:#2b1100;fill-opacity:1;fill-rule:nonzero;stroke:none" transform="translate(-9216, -63488)"/><path d="m 9993.7237,63990.785 c -33.846,15.141 -62.7945,39.22 -91.4274,62.323 -45.1943,37.281 -85.906,79.459 -125.013,122.959 -21.8059,24.543 -41.4055,50.881 -59.5569,78.203 -3.3825,5.121 -6.5276,10.388 -9.5522,15.725 -9.7439,16.076 -85.5236,-29.857 -75.7797,-45.933 l 0,0 c 4.1457,-6.509 8.3,-13.015 12.6774,-19.372 21.0893,-30.182 43.5294,-59.41 68.2991,-86.695 42.4559,-46.259 86.3921,-91.267 134.6072,-131.61 35.6175,-29.23 71.7833,-58.966 114.0337,-78.198 17.5217,-6.727 49.2331,75.871 31.7118,82.598 z" id="path14427" inkscape:connector-curvature="0" style="fill:#2b1100;fill-opacity:1;fill-rule:nonzero;stroke:none" transform="translate(-9216, -63488)"/><path d="m 9719.5357,63933.32 c 22.0915,32.465 48.9713,60.978 77.1507,88.145 43.6569,39.658 90.2071,75.976 136.9643,111.87 35.8018,26.613 70.6873,54.392 102.4273,85.778 11.568,12.507 6.186,6.231 16.224,18.759 11.343,14.896 -58.8769,68.366 -70.2196,53.47 l 0,0 c -4.2487,-6.359 -1.585,-2.702 -8.3897,-10.668 -28.1662,-29.436 -60.2004,-54.611 -92.5949,-79.214 -49.0307,-38.004 -98.0493,-76.173 -144.1466,-117.735 -31.9416,-30.517 -62.2136,-62.593 -88.6371,-98.092 -11.0973,-15.108 60.1243,-67.421 71.2216,-52.313 z" id="path14429" inkscape:connector-curvature="0" style="fill:#2b1100;fill-opacity:1;fill-rule:nonzero;stroke:none" transform="translate(-9216, -63488)"/><path d="m 9427.8745,63723.389 c 7.6347,23.053 14.3518,46.306 19.0568,70.135 3.5127,18.313 -82.818,34.873 -86.3307,16.559 l 0,0 c -3.7176,-20.239 -9.7569,-39.885 -16.8754,-59.183 -5.8359,-17.851 78.3134,-45.362 84.1493,-27.511 z" id="path14431" inkscape:connector-curvature="0" style="fill:#2b1100;fill-opacity:1;fill-rule:nonzero;stroke:none" transform="translate(-9216, -63488)"/><path d="m 9357.6162,63916.079 c 19.8994,7.589 40.0441,14.389 59.1617,23.833 27.5185,15.214 38.8313,40.619 40.9846,70.768 0.1294,25.208 -9.3999,48.252 -19.9083,70.639 -2.5719,-0.216 -13.8995,33.837 -9.6305,20.318 0.1444,-0.929 -0.086,-2.003 0.4333,-2.787 1.0919,-1.65 2.3303,3.201 3.3696,4.884 5.2408,8.488 10.649,16.867 15.8787,25.362 20.5012,34.544 23.8108,57.656 11.8635,96.321 -12.1057,28.197 -33.3409,50.586 -52.8456,73.739 -4.0119,5.01 -7.6437,9.287 -11.1829,14.584 -3.5223,5.272 -3.3793,6.581 -2.9721,6.259 2.675,-2.115 2.9317,-9.828 3.1726,-11.222 -0.515,-12.295 -9.1632,-16.85 4.1223,-10.184 11.0852,5.562 10.6169,5.09 23.0066,10.257 41.7429,16.81 85.7258,26.619 129.7138,35.402 63.7128,11.888 128.1517,19.216 192.6321,25.382 66.1049,7.086 132.4128,5.525 198.4715,-0.57 48.9212,-5.409 97.5059,-13.384 146.3709,-19.238 18.411,-2.032 27.99,84.761 9.579,86.793 l 0,0 c -49.545,4.961 -98.77,12.598 -148.2924,17.773 -71.3154,6.236 -142.8937,7.918 -214.2348,0.37 -67.3073,-6.383 -134.558,-13.998 -201.1223,-26.032 -49.6732,-9.613 -99.2876,-20.525 -146.5081,-39.119 -35.8462,-14.725 -71.4766,-30.298 -81.7283,-71.411 0.065,-6.743 -0.6848,-13.543 0.196,-20.228 2.8655,-21.751 18.7484,-39.221 31.7646,-55.625 12.8183,-15.03 26.4842,-29.588 36.9524,-46.417 0.3789,-0.444 3.3531,-2.374 3.3754,-3.066 0.2056,-6.381 -4.8661,-12.245 -7.2482,-17.662 -14.2048,-23.087 -31.2285,-45.157 -33.216,-73.264 1.3211,-21.407 7.2994,-39.909 18.3876,-58.291 4.5155,-9.464 9.3108,-18.973 11.3074,-29.359 1.0401,-2.774 5.8219,7.525 6.9136,4.118 -15.4293,-8.725 -32.9654,-13.018 -49.4268,-19.324 -17.6077,-6.503 13.0513,-89.507 30.6591,-83.003 z" id="path14459" inkscape:connector-curvature="0" style="fill:#2b1100;fill-opacity:1;fill-rule:nonzero;stroke:none" transform="translate(-9216, -63488)"/></svg>