<?xml version="1.0" encoding="utf-8" ?>

<!DOCTYPE svg PUBLIC "-//W3C//DTD SVG 1.1//EN" 
  "http://www.w3.org/Graphics/SVG/1.1/DTD/svg11.dtd">
<svg 
    xmlns="http://www.w3.org/2000/svg"
    xmlns:xlink="http://www.w3.org/1999/xlink"
    xmlns:sodipodi="http://sodipodi.sourceforge.net/DTD/sodipodi-0.dtd"
    xmlns:inkscape="http://www.inkscape.org/namespaces/inkscape"
    width="1024" height="1024" id="U8FB9">
<path d="m 9613.3924,2447.8809 c 37.5584,-16.7593 76.9248,-28.978 116.2236,-40.8868 54.7638,-16.4168 110.7086,-28.2371 167.4132,-35.295 43.1048,-4.8714 82.5037,-2.4818 122.0878,15.675 40.44,24.4259 50.919,66.0464 55.308,110.0411 2.006,46.3913 -2.673,92.7437 -7.168,138.8625 -3.741,35.8198 -7.929,71.6055 -13.153,107.2417 -3.19,25.697 -10.712,27.3867 -32.2,48.87 -17.344,6.9196 -49.9629,-74.8393 -32.6193,-81.7589 l 0,0 c -25.899,28.4705 -25.1286,35.5014 -21.0934,19.3106 5.79,-33.8394 9.7714,-67.9667 13.512,-102.0842 4.0366,-40.5946 8.2062,-81.3943 6.7211,-122.2404 -1.1839,-13.3983 -1.8238,-28.2967 -8.2376,-40.4395 -20.6807,-13.9488 -49.7859,-8.5768 -73.0291,-8.3164 -51.7178,5.8179 -102.6652,16.7044 -152.4628,31.8926 -34.7141,10.7872 -69.6909,21.6635 -102.4133,37.6998 -16.6676,8.2496 -55.5568,-70.3225 -38.8892,-78.5721 z" id="path20095" inkscape:connector-curvature="0" style="fill:#aa0000;fill-opacity:1;fill-rule:nonzero;stroke:#f9f9f9;stroke-width:0.1;stroke-miterlimit:4;stroke-dasharray:none" transform="translate(-9216, -2048)"/><path d="m 9970.1004,2296.3477 c -26.8201,34.2707 -45.0956,74.6462 -64.6463,113.301 -35.1484,70.1199 -69.9978,140.387 -104.1315,211.0067 -25.5,52.6443 -49.3943,106.0392 -74.1278,159.0419 -11.1141,22.6394 -21.7157,45.6302 -34.4605,67.4211 -9.7627,15.8337 -84.4033,-30.1882 -74.6406,-46.0218 l 0,0 c 12.5381,-18.1491 20.7366,-39.1325 31.4468,-58.314 25.6046,-52.8577 50.0288,-106.28 75.8913,-159.015 34.5742,-70.737 69.6748,-141.2138 104.2782,-211.9364 23.1903,-47.0399 44.8091,-96.0989 78.0753,-137.074 13.0653,-13.219 75.3804,48.3715 62.3151,61.5905 z" id="path20097" inkscape:connector-curvature="0" style="fill:#aa0000;fill-opacity:1;fill-rule:nonzero;stroke:#f9f9f9;stroke-width:0.1;stroke-miterlimit:4;stroke-dasharray:none" transform="translate(-9216, -2048)"/><path d="m 9457.3185,2244.1057 c 27.5286,18.6951 51.3008,41.7017 72.4771,67.2225 11.6255,14.2161 -55.3898,69.019 -67.0153,54.8029 l 0,0 c -14.993,-18.7514 -32.4505,-35.3003 -52.7919,-48.2226 -15.6559,-10.0403 31.6742,-83.8431 47.3301,-73.8028 z" id="path20099" inkscape:connector-curvature="0" style="fill:#aa0000;fill-opacity:1;fill-rule:nonzero;stroke:#f9f9f9;stroke-width:0.1;stroke-miterlimit:4;stroke-dasharray:none" transform="translate(-9216, -2048)"/><path d="m 9459.9763,2457.4926 c 21.3159,19.8423 39.9775,41.1786 53.8854,66.8055 16.2684,38.6274 4.0986,74.1996 -17.9037,107.1319 -3.5885,11.6808 -20.5527,17.6795 -24.3215,28.9937 3.8811,-3.6829 1.6256,-1.0891 5.3699,-8.8037 0.9155,-14.4748 5.5353,-0.7416 8.7458,4.2822 4.3495,6.8062 8.8441,13.5187 13.2492,20.2891 18.7662,28.7507 26.2207,62.1684 10.2414,94.3075 -3.5287,7.0972 -8.9001,13.1177 -13.3501,19.6766 -30.9775,33.8533 -72.6591,53.88 -113.8692,72.3585 -14.8583,9.2875 -35.3958,10.4 -49.3316,21.4398 -0.5192,0.4113 1.489,0.1592 1.964,-0.3024 3.9704,-3.8588 7.3865,-8.2497 11.0797,-12.3746 0.2959,-11.5138 3.3588,-23.2919 0.8878,-34.5413 -1.3466,-6.1308 -7.8617,-9.788 -11.7137,-14.744 -0.2928,-0.3768 -1.1887,-1.2473 -0.7115,-1.2424 10.9066,0.1124 23.7716,3.6388 34.5393,4.9347 53.7976,5.2572 107.5597,10.8514 161.2832,16.8225 76.5411,8.3262 153.1261,16.2418 229.701,24.25 65.677,7.4795 131.557,12.6469 197.5577,16.0976 41.1595,2.043 82.3536,3.2608 123.5236,5.0393 17.069,0.7095 34.11,1.9599 51.126,3.4545 1.868,0.2544 3.735,0.5088 5.603,0.7632 18.418,2.9275 4.617,89.7477 -13.8,86.8202 l 0,0 c -0.232,-0.079 -0.463,-0.1585 -0.695,-0.2378 -15.501,-1.8186 -31.043,-3.317 -46.628,-4.2128 -41.292,-2.4188 -82.6279,-4.026 -123.9225,-6.4166 -67.3483,-4.0482 -134.5678,-9.7395 -201.5951,-17.5274 -76.6224,-8.1386 -153.2753,-15.973 -229.9414,-23.6894 -53.8995,-5.6004 -107.8391,-10.7784 -161.8458,-15.2372 -26.1313,-2.743 -78.9983,-5.3189 -90.7293,-34.9682 -5.0999,-12.8896 -1.7742,-27.6668 -2.6612,-41.5003 4.8578,-6.7039 8.8987,-14.0836 14.5735,-20.1117 16.8318,-17.88 46.1862,-19.9928 66.7331,-31.3061 27.968,-12.2886 56.2314,-25.3386 79.3926,-45.69 6.7992,-4.613 0.7684,0.9723 5.7736,1.4447 4.9889,0.4709 -8.8363,-18.7526 -6.0168,-15.8557 -17.6309,-27.0239 -37.7434,-53.0788 -35.4557,-87.2103 1.8109,-6.2614 2.9255,-12.7677 5.4326,-18.7844 5.9798,-14.3508 18.7856,-23.865 28.1611,-35.7115 4.1569,-5.5858 9.5705,-12.1051 11.9343,-18.2176 -7.324,-18.3755 -24.8141,-30.5118 -38.1863,-44.3055 -13.1353,-13.1354 48.7852,-75.0559 61.9206,-61.9206 z" id="path20101" inkscape:connector-curvature="0" style="fill:#aa0000;fill-opacity:1;fill-rule:nonzero;stroke:#f9f9f9;stroke-width:0.1;stroke-miterlimit:4;stroke-dasharray:none" transform="translate(-9216, -2048)"/></svg>