<?xml version="1.0" encoding="UTF-8" standalone="no"?>
<svg
   xmlns:dc="http://purl.org/dc/elements/1.1/"
   xmlns:cc="http://creativecommons.org/ns#"
   xmlns:rdf="http://www.w3.org/1999/02/22-rdf-syntax-ns#"
   xmlns:svg="http://www.w3.org/2000/svg"
   xmlns="http://www.w3.org/2000/svg"
   xmlns:sodipodi="http://sodipodi.sourceforge.net/DTD/sodipodi-0.dtd"
   xmlns:inkscape="http://www.inkscape.org/namespaces/inkscape"
   width="1024"
   height="1024"
   id="U8FD0"
   version="1.1"
   inkscape:version="0.48.0 r9654"
   sodipodi:docname="U+8FD0.svg">
  <metadata
     id="metadata13">
    <rdf:RDF>
      <cc:Work
         rdf:about="">
        <dc:format>image/svg+xml</dc:format>
        <dc:type
           rdf:resource="http://purl.org/dc/dcmitype/StillImage" />
      </cc:Work>
    </rdf:RDF>
  </metadata>
  <defs
     id="defs11" />
  <sodipodi:namedview
     pagecolor="#ffffff"
     bordercolor="#666666"
     borderopacity="1"
     objecttolerance="10"
     gridtolerance="10"
     guidetolerance="10"
     inkscape:pageopacity="0"
     inkscape:pageshadow="2"
     inkscape:window-width="640"
     inkscape:window-height="480"
     id="namedview9"
     showgrid="false"
     inkscape:zoom="0.27441406"
     inkscape:cx="512"
     inkscape:cy="512"
     inkscape:window-x="0"
     inkscape:window-y="25"
     inkscape:window-maximized="0"
     inkscape:current-layer="U8FD0" />
  <path
     style="fill:#2b1100;fill-opacity:1;fill-rule:nonzero;stroke:none"
     d="M 669.375 229.15625 C 611.07987 229.11668 553.06462 235.44937 495.46875 244.5 C 448.93017 251.784 402.61075 260.2645 356 267.0625 C 337.48329 269.9025 350.85829 357.18275 369.375 354.34375 C 415.89851 345.63075 462.42622 336.9155 509.125 329.1875 C 565.26973 320.0925 621.93172 313.86075 678.84375 315.96875 C 699.26455 318.08175 689.85513 316.59975 707.15625 319.96875 C 725.4616 323.03175 739.8991 236.7505 721.59375 233.6875 C 695.60881 229.7925 709.11212 231.346 681.03125 229.25 C 677.14229 229.18962 673.26134 229.15889 669.375 229.15625 z M 139.6875 336.875 C 113.60585 337.15338 79.838281 345.76625 81.28125 357.40625 C 85.048263 384.30325 94.300901 409.74625 104.71875 434.65625 C 109.52376 446.36525 107.31252 440.70525 111.46875 451.53125 C 118.2939 468.94125 200.35639 436.785 193.53125 419.375 C 188.49832 406.753 191.07532 413.089 185.71875 400.375 C 178.29229 383.052 171.0367 365.47525 169.0625 346.53125 C 168.19672 339.54725 155.33649 336.70797 139.6875 336.875 z M 740.34375 437.53125 C 710.38529 437.73894 680.43734 439.73481 650.625 443.125 C 573.77625 452.491 497.448 465.6545 421.9375 482.8125 C 375.3009 493.8625 328.87907 505.63575 283.125 519.96875 C 265.33113 525.85675 293.08114 609.73175 310.875 603.84375 C 351.64396 589.20161 393.53687 578.21345 435.53125 567.75 C 418.3379 599.64642 397.52665 629.44251 376.53125 658.9375 C 350.68119 695.1575 322.4809 730.324 307.8125 772.75 C 302.86448 811.829 318.24939 834.773 358.03125 842.25 C 378.51113 846.099 404.33379 835.20175 423.53125 829.46875 C 467.28352 814.51875 512.74674 806.728 558.4375 800.75 C 607.94877 795.269 657.59097 791.10275 707.21875 786.84375 C 720.10047 787.63599 761.46839 779.71411 778.4375 782.5 C 790.06712 797.3218 801.72622 812.13661 812.9375 827.28125 C 824.02015 842.09025 893.83265 789.84025 882.75 775.03125 C 862.74533 748.55625 841.67781 722.9205 821.84375 696.3125 C 805.66782 673.6975 788.71055 650.87825 779.375 624.40625 C 773.12156 606.71325 689.71532 636.21325 695.96875 653.90625 C 701.96213 669.64688 709.71113 684.46985 718.375 698.78125 C 712.11661 699.39784 705.84652 700.02422 699.59375 700.53125 C 648.7841 705.14025 597.93679 709.454 547.21875 715 C 506.54572 720.31062 466.07919 727.05474 426.5 737.75 C 435.13529 726.08053 443.08025 715.57445 446.84375 709.0625 C 474.25727 670.6295 501.01054 631.6265 523.3125 589.9375 C 527.6999 581.0409 507.53194 565.9288 486.375 556.15625 C 543.9901 543.96526 602.16836 534.59636 660.6875 527.875 C 707.22686 523.303 754.2654 521.49025 800.75 527.40625 C 803.53153 528.00752 805.84443 528.72952 807.46875 529.3125 C 806.24219 528.76197 804.26488 527.79481 801.875 526.625 C 819.94177 529.80508 872.74987 473.59938 860.15625 461.40625 C 842.41523 448.99225 832.0627 442.214 810.1875 440.5 C 786.94773 438.29456 763.64478 437.36971 740.34375 437.53125 z M 807.78125 529.4375 C 810.47072 530.62785 810.02996 530.26517 807.78125 529.4375 z M 67.71875 544.75 C 65.888444 544.76196 64.069214 544.7995 62.21875 544.875 C 43.456172 545.752 47.581172 634.22075 66.34375 633.34375 C 70.250773 633.21218 74.165623 633.24707 78.0625 633.5625 C 69.705128 654.36561 65.554869 675.57338 66.15625 698 C 69.273916 723.67442 84.160139 742.77154 101.6875 760.25 C 94.545992 767.77573 87.395454 775.26313 80.4375 782.96875 C 66.902713 797.71375 57.21633 813.6455 50.75 832.4375 C 45.579386 863.1415 62.530486 885.2145 83.90625 904.5625 C 115.50299 929.8765 154.74888 940.08125 193.40625 949.03125 C 258.29865 962.33925 324.44341 967.77925 390.40625 972.53125 C 466.25365 977.51625 542.26786 979.04825 618.25 980.28125 C 681.34651 981.84125 744.36309 979.63075 807.25 974.59375 C 854.15406 970.65775 900.64465 963.31725 947.03125 955.53125 C 960.29789 953.20325 973.60579 951.161 986.9375 949.25 C 1005.3679 946.415 992.02411 859.54 973.59375 862.375 C 959.735 864.64 945.89279 866.98475 932.09375 869.59375 C 888.35833 877.48475 844.48914 884.78375 800.1875 888.71875 C 740.07528 893.82375 679.80846 896.04575 619.46875 894.84375 C 545.19324 893.93575 470.87694 892.7135 396.75 887.5625 C 335.304 882.8175 273.64756 877.5025 213.28125 864.5625 C 190.41065 859.07363 166.56911 853.77659 146.375 841.21875 C 166.23247 818.48111 190.89226 799.19037 197.71875 768.125 C 197.68905 760.566 198.91314 752.91775 197.625 745.46875 C 194.26293 726.02675 180.41827 712.02775 166.21875 699.84375 C 164.23676 697.98175 155.81088 686.1965 154.28125 691.6875 C 152.83186 683.9075 158.4585 671.215 161.4375 662.375 C 175.36973 624.997 176.81068 594.2095 144.09375 565.6875 C 120.398 551.53594 95.173343 544.57061 67.71875 544.75 z M 89.65625 635.53125 C 92.808899 636.45764 96.515682 637.90075 94.53125 638.6875 C 92.534613 637.8856 90.956132 636.78123 89.65625 635.53125 z M 113.78125 770.9375 C 115.70174 772.26906 117.25064 773.72004 117.46875 775.53125 C 117.53898 776.11525 116.35434 774.991 116.03125 774.5 C 115.06823 773.03778 114.38445 771.92963 113.78125 770.9375 z M 394.8125 787.1875 C 394.44012 790.20214 393.60439 793.59278 392.1875 797.46875 C 392.25767 794.59041 393.21818 791.08735 394.8125 787.1875 z "
     id="path13683" />
</svg>
