<?xml version="1.0" encoding="utf-8" ?>

<!DOCTYPE svg PUBLIC "-//W3C//DTD SVG 1.1//EN" 
  "http://www.w3.org/Graphics/SVG/1.1/DTD/svg11.dtd">
<svg 
    xmlns="http://www.w3.org/2000/svg"
    xmlns:xlink="http://www.w3.org/1999/xlink"
    xmlns:sodipodi="http://sodipodi.sourceforge.net/DTD/sodipodi-0.dtd"
    xmlns:inkscape="http://www.inkscape.org/namespaces/inkscape"
    width="1024" height="1024" id="U8F7B">
<path d="m 11405.306,39228.121 c 43.391,-15.345 88.44,-24.643 133.702,-32.37 36.966,-6.008 74.365,-8.173 111.634,-11.332 18.495,-1.369 24.945,85.819 6.45,87.187 l 0,0 c -34.59,2.202 -69.277,3.819 -103.559,9.272 -39.872,6.8 -79.766,14.812 -117.405,30.078 -17.571,6.538 -48.394,-76.296 -30.822,-82.835 z" id="path11145" inkscape:connector-curvature="0" style="fill:#c83737;fill-opacity:1;fill-rule:nonzero;stroke:#f9f9f9;stroke-width:0.1;stroke-miterlimit:4;stroke-dasharray:none" transform="translate(-11264, -38912)"/><path d="m 11585.824,39112.309 c -12.638,42.475 -27.59,84.176 -43.015,125.701 -22.342,58.01 -44.245,116.164 -62.875,175.483 -7.509,30.741 -19.889,62.907 -15.849,95.098 0.488,0.739 0.901,2.903 1.463,2.218 3.342,-4.077 -6.866,-11.436 -5.688,-13.497 0.315,-0.552 13.466,-1.117 14.522,-1.179 39.05,-3.743 76.674,-15.637 113.95,-27.257 16.608,-5.752 35.659,-10.176 50.212,-18.9 15.779,-10.105 63.416,64.279 47.637,74.384 l 0,0 c -22.603,12.972 -47.345,20.313 -72.298,27.596 -44.659,13.557 -89.677,27.473 -136.405,31.529 -53.854,1.32 -90.709,-10.016 -101.011,-69.095 -1.823,-43.529 8.248,-85.75 21.356,-127.092 19.519,-60.304 41.935,-119.554 64.265,-178.863 14.417,-39.925 28.572,-80.018 38.951,-121.223 5.323,-17.985 90.109,7.111 84.785,25.097 z" id="path11147" inkscape:connector-curvature="0" style="fill:#c83737;fill-opacity:1;fill-rule:nonzero;stroke:#f9f9f9;stroke-width:0.1;stroke-miterlimit:4;stroke-dasharray:none" transform="translate(-11264, -38912)"/><path d="m 11619.927,39327.618 c -9.83,39.022 -13.531,79.295 -17.162,119.27 -5.545,62.652 -4.547,125.574 -3.182,188.373 1.247,52.214 3.67,104.438 1.625,156.656 -0.572,5.928 -1.145,11.856 -1.717,17.784 -2.069,18.453 -89.059,8.699 -86.989,-9.754 l 0,0 c 0.552,-4.107 1.105,-8.214 1.658,-12.321 3.078,-50.151 0.485,-100.403 -0.364,-150.59 -1.297,-65.875 -2.178,-131.858 3.29,-197.596 3.764,-45.202 7.86,-90.559 17.399,-134.979 4.913,-18.125 90.355,5.032 85.442,23.157 z" id="path11149" inkscape:connector-curvature="0" style="fill:#c83737;fill-opacity:1;fill-rule:nonzero;stroke:#f9f9f9;stroke-width:0.1;stroke-miterlimit:4;stroke-dasharray:none" transform="translate(-11264, -38912)"/><path d="m 11375.938,39719.43 c 33.249,-26.453 72.264,-43.898 110.995,-60.612 47.421,-19.508 96.062,-35.8 143.752,-54.61 17.13,-6.929 34.021,-14.459 49.703,-24.265 16.057,-9.473 60.713,66.216 44.657,75.689 l 0,0 c -20.187,11.492 -41.175,21.333 -62.934,29.531 -46.815,17.901 -94.413,33.728 -140.733,52.917 -30.165,13.212 -61.027,26.578 -86.713,47.627 -14.06,12.458 -72.786,-53.819 -58.727,-66.277 z" id="path11151" inkscape:connector-curvature="0" style="fill:#c83737;fill-opacity:1;fill-rule:nonzero;stroke:#f9f9f9;stroke-width:0.1;stroke-miterlimit:4;stroke-dasharray:none" transform="translate(-11264, -38912)"/><path d="m 11721.176,39152.799 c 36.368,0.917 72.67,-1.675 108.884,-4.675 38.039,-3.416 75.936,-8.235 114.005,-11.314 31.371,-2.031 49.121,-1.412 76.141,15.499 4.644,6.403 10.966,11.876 13.932,19.209 10.88,26.897 -4.154,49.546 -18.418,70.637 -23.898,34.579 -49.648,67.8 -76.258,100.318 -39.599,47.567 -83.486,91.279 -127.237,134.97 -32.741,32.336 -65.276,64.878 -97.169,98.051 -14.887,16.184 -28.935,32.337 -47.777,43.827 -17.158,7.817 -54.007,-73.069 -36.848,-80.886 l 0,0 c -25.408,17.473 22.594,-19.794 22.158,-24.036 32.714,-32.896 65.854,-65.361 98.967,-97.855 41.722,-41.461 83.492,-83.044 120.907,-128.517 24.624,-30.53 48.341,-61.797 69.925,-94.573 2.571,-3.967 4.842,-8.135 7.601,-11.974 1.714,-2.385 -1.244,5.843 -0.928,8.763 2.1,19.408 3.317,16.602 15.458,31.14 21.465,10.798 1.727,-0.878 -14.08,2.788 -37.801,2.42 -75.407,7.092 -113.132,10.429 -38.435,3.256 -76.911,5.869 -115.49,6.578 -18.748,0.136 -19.389,-88.243 -0.641,-88.379 z" id="path11153" inkscape:connector-curvature="0" style="fill:#c83737;fill-opacity:1;fill-rule:nonzero;stroke:#f9f9f9;stroke-width:0.1;stroke-miterlimit:4;stroke-dasharray:none" transform="translate(-11264, -38912)"/><path d="m 11901.413,39357.78 c 14.72,18.271 33.902,31.181 54.269,42.301 30.179,15.27 63.252,22.835 96.066,30.012 22.708,4.837 45.372,9.836 67.242,17.701 17.475,6.733 -14.267,89.111 -31.742,82.377 l 0,0 c -17.212,-7.706 -36.33,-10.075 -54.422,-14.903 -40.888,-9.211 -81.898,-19.355 -119.338,-38.819 -29.329,-16.335 -56.845,-35.266 -79.069,-60.773 -12.282,-14.212 54.712,-72.107 66.994,-57.896 z" id="path11155" inkscape:connector-curvature="0" style="fill:#c83737;fill-opacity:1;fill-rule:nonzero;stroke:#f9f9f9;stroke-width:0.1;stroke-miterlimit:4;stroke-dasharray:none" transform="translate(-11264, -38912)"/><path d="m 11816.767,39636.881 c -2.23,0.906 -4.482,1.762 -6.691,2.719 -13.982,6.059 0.546,2.542 2.005,-2.629 4.52,-16.019 10.578,-33.197 6.965,-49.444 -2.162,-9.72 -14.909,-13.203 -22.364,-19.805 -0.525,-0.313 -2.171,-0.802 -1.575,-0.939 5.916,-1.358 12.132,-0.47 18.187,-0.898 16.727,-1.181 33.433,-2.783 50.142,-4.19 38.597,-3.241 77.227,-6.062 115.837,-9.141 17.325,-1.338 34.645,-2.746 51.981,-3.941 18.791,-0.708 22.127,87.873 3.336,88.581 l 0,0 c -16.283,-0.07 -32.523,1.593 -48.77,2.434 -38.263,2.703 -76.53,5.417 -114.731,8.903 -32.63,3.005 -65.724,8.696 -98.423,4.501 -10.436,-7.441 -27.074,-10.226 -31.309,-22.323 -16.325,-46.632 9.843,-62.214 41.235,-75.516 17.329,-7.25 51.504,74.438 34.175,81.688 z" id="path11157" inkscape:connector-curvature="0" style="fill:#c83737;fill-opacity:1;fill-rule:nonzero;stroke:#f9f9f9;stroke-width:0.1;stroke-miterlimit:4;stroke-dasharray:none" transform="translate(-11264, -38912)"/><path d="m 11937.697,39620.869 c 5.232,31.775 9.027,63.751 12.476,95.76 3.483,30.784 6.679,61.609 3.689,92.53 -2.197,18.559 -89.687,8.203 -87.49,-10.356 l 0,0 c 4.189,-24.035 -1.726,-48.808 -2.966,-72.844 -3.195,-29.783 -6.578,-59.604 -12.669,-88.961 -3.422,-18.447 83.539,-34.577 86.96,-16.129 z" id="path11159" inkscape:connector-curvature="0" style="fill:#c83737;fill-opacity:1;fill-rule:nonzero;stroke:#f9f9f9;stroke-width:0.1;stroke-miterlimit:4;stroke-dasharray:none" transform="translate(-11264, -38912)"/><path d="m 11731.577,39804.526 c 42.819,-3.539 85.335,-10.001 127.823,-16.25 53.194,-8.393 106.479,-16.125 160.062,-21.545 30.801,-2.683 61.9,-5.07 92.493,0.402 34.329,10.64 31.975,21.473 40.175,54.96 -2.313,18.709 -90.508,7.809 -88.196,-10.9 l 0,0 c 6.007,19.919 5.896,38.301 29.558,42.417 -17.226,-7.314 -47.702,0.629 -65.741,-0.534 -52.122,4.713 -103.919,12.13 -155.579,20.458 -43.958,6.704 -87.926,13.365 -132.046,18.924 -18.653,1.813 -27.202,-86.118 -8.549,-87.932 z" id="path11161" inkscape:connector-curvature="0" style="fill:#a02c2c;fill-opacity:1;fill-rule:nonzero;stroke:#f9f9f9;stroke-width:0.10000000000000001;stroke-miterlimit:4;stroke-dasharray:none" transform="translate(-11264, -38912)"/></svg>