<?xml version="1.0" encoding="UTF-8" standalone="no"?>
<svg
   xmlns:dc="http://purl.org/dc/elements/1.1/"
   xmlns:cc="http://creativecommons.org/ns#"
   xmlns:rdf="http://www.w3.org/1999/02/22-rdf-syntax-ns#"
   xmlns:svg="http://www.w3.org/2000/svg"
   xmlns="http://www.w3.org/2000/svg"
   xmlns:sodipodi="http://sodipodi.sourceforge.net/DTD/sodipodi-0.dtd"
   xmlns:inkscape="http://www.inkscape.org/namespaces/inkscape"
   width="1024"
   height="1024"
   id="U9053"
   version="1.1"
   inkscape:version="0.48.0 r9654"
   sodipodi:docname="U+9053.svg">
  <metadata
     id="metadata18">
    <rdf:RDF>
      <cc:Work
         rdf:about="">
        <dc:format>image/svg+xml</dc:format>
        <dc:type
           rdf:resource="http://purl.org/dc/dcmitype/StillImage" />
      </cc:Work>
    </rdf:RDF>
  </metadata>
  <defs
     id="defs16" />
  <sodipodi:namedview
     pagecolor="#ffffff"
     bordercolor="#666666"
     borderopacity="1"
     objecttolerance="10"
     gridtolerance="10"
     guidetolerance="10"
     inkscape:pageopacity="0"
     inkscape:pageshadow="2"
     inkscape:window-width="640"
     inkscape:window-height="480"
     id="namedview14"
     showgrid="false"
     inkscape:zoom="0.27441406"
     inkscape:cx="512"
     inkscape:cy="512"
     inkscape:window-x="0"
     inkscape:window-y="25"
     inkscape:window-maximized="0"
     inkscape:current-layer="U9053" />
  <path
     style="fill:#800000;fill-opacity:1;fill-rule:nonzero;stroke:#f9f9f9;stroke-width:0.1;stroke-miterlimit:4;stroke-dasharray:none"
     d="M 746.25 137.125 C 745.38033 137.14696 744.56114 137.36328 743.78125 137.75 C 712.18095 154.5704 683.05755 175.45545 654.03125 196.28125 C 648.47465 200.32475 642.90035 204.394 637.34375 208.4375 C 625.62488 216.9509 655.00682 262.49515 675.0625 275.6875 C 674.14668 275.71403 673.22827 275.72268 672.3125 275.75 C 629.24176 277.30483 586.20292 279.54416 543.1875 282.125 C 551.75931 260.55749 555.97431 235.34841 546.65625 232 C 530.28195 226.3881 538.6021 229.64575 521.75 222.09375 C 494.9127 207.97455 469.4768 191.547 444.75 174 C 429.1421 163.9475 381.73585 237.54115 397.34375 247.59375 C 418.33965 261.36987 439.44982 274.87144 461.1875 287.375 C 415.52876 290.29021 369.9161 293.54324 324.28125 296.78125 C 305.75435 297.97225 311.3481 385.28475 329.875 384.09375 C 375.9797 378.92645 422.2363 375.4292 468.5 372.0625 C 474.15268 371.63772 479.81529 371.22345 485.46875 370.8125 C 479.21388 381.70311 472.87817 392.54024 466.59375 403.40625 C 445.11935 440.20825 423.8879 477.1661 401.9375 513.6875 C 399.94746 517.05837 401.8085 521.70008 406 526.78125 C 385.88961 527.73402 367.24492 532.63356 367.375 541.21875 C 369.3318 578.17655 373.9392 614.9346 378.625 651.625 C 383.9111 693.4663 392.47775 734.71805 402.46875 775.65625 C 405.81425 789.09505 409.6644 802.38565 413.8125 815.59375 C 415.37445 820.31951 422.54749 821.77578 432.03125 821.0625 C 431.23967 836.54572 433.52792 849.42606 440.40625 850.5625 C 474.33675 854.1741 508.4536 855.4499 542.4375 858.5 C 574.2437 861.3135 605.5392 867.54525 636.375 875.65625 C 640.1065 876.68695 643.8309 877.7193 647.5625 878.75 C 665.3912 883.5193 687.8913 799.4568 670.0625 794.6875 L 657.84375 791.53125 C 622.42825 782.72345 586.55785 775.8197 550.15625 772.625 C 530.14509 770.81961 510.08532 769.6203 490.0625 767.90625 C 488.77522 763.53506 487.54227 759.16054 486.375 754.75 C 477.42542 719.70725 469.82057 684.32656 464.96875 648.46875 C 469.94941 664.28044 477.14668 676.696 484.3125 675.15625 C 513.215 669.08965 542.71835 666.5951 572.15625 664.9375 C 595.15985 663.9534 618.25005 664.32625 641.03125 667.78125 C 659.32325 670.22725 670.8545 584.0085 652.5625 581.5625 C 624.2539 578.1142 595.7475 577.21435 567.25 578.71875 C 533.325 580.67885 499.41435 583.6854 465.90625 589.5 C 462.29962 590.27499 460.13719 594.27878 459.125 600.15625 C 457.6186 586.29113 456.33786 572.41876 455.59375 558.5 C 456.71436 558.87036 457.80585 559.20483 458.875 559.5 C 467.59064 568.77389 476.14683 574.26672 481.1875 570.90625 C 505.8429 558.19875 534.1732 555.2478 561.3125 551.9375 C 598.5981 548.0331 636.056 546.0554 673.5 544.4375 C 692.30549 543.91336 711.1229 542.98891 729.9375 542.71875 C 727.73819 567.56466 722.87745 592.10246 718.25 616.59375 C 708.8158 664.13275 699.33935 711.6374 690.28125 759.25 C 687.48535 774.424 684.7891 789.63055 681.5625 804.71875 C 677.9845 822.81605 763.2969 839.6599 766.875 821.5625 C 769.732 806.042 772.23855 790.4918 774.90625 774.9375 C 783.44195 727.458 792.7487 680.1196 802.5 632.875 C 810.4226 592.7533 820.92505 551.59685 815.21875 510.53125 C 813.17235 504.42685 812.00845 497.95945 809.09375 492.21875 C 796.08055 466.58875 770.72125 455.2705 743.15625 455.3125 C 718.54595 455.5958 693.9634 456.94 669.375 457.9375 C 629.8277 460.0044 590.2712 462.43055 550.875 466.53125 C 543.05807 467.48908 535.21426 468.47447 527.375 469.59375 C 531.84439 461.92445 536.30003 454.26928 540.8125 446.625 C 556.83283 419.2747 573.02159 391.99568 588.40625 364.28125 C 617.28783 362.75518 646.17754 361.51183 675.09375 360.65625 C 717.04095 359.84755 759.1197 359.6292 800.9375 363.4375 C 804.7317 365.3854 810.078 363.5554 814.0625 365.5 C 814.1168 365.5265 814.1324 365.54404 814.15625 365.5625 C 831.76843 363.15214 855.79165 287.48228 838.96875 281.9375 C 828.58295 279.203 818.28275 277.0233 807.46875 276.8125 C 769.01687 274.40672 730.47804 274.3753 691.96875 275.25 C 696.03875 272.29839 700.11747 269.35786 704.1875 266.40625 C 729.4671 248.38135 754.69775 229.88475 782.65625 216.15625 C 798.51396 208.29287 763.93337 136.6785 746.25 137.125 z M 814.15625 365.5625 C 813.96414 365.58879 813.78427 365.61633 813.59375 365.625 C 814.00898 365.6714 814.28012 365.6584 814.15625 365.5625 z M 813.59375 365.625 C 812.94884 365.55294 811.98647 365.3743 811.5 365.34375 C 812.1858 365.56979 812.88171 365.6574 813.59375 365.625 z M 150.28125 195.71875 C 131.73295 196.58826 88.873294 257.57564 102.71875 267.6875 C 117.45185 277.8199 130.3315 290.1068 141.875 303.6875 C 153.9185 317.5973 219.481 260.81605 207.4375 246.90625 C 191.3601 228.55085 174.0691 211.4785 154.4375 196.875 C 153.26416 196.01806 151.85314 195.64506 150.28125 195.71875 z M 206.1875 467.625 C 183.91114 467.44926 130.26754 499.37283 137.75 513.15625 C 146.5307 528.22915 146.16865 544.05735 143.34375 560.65625 C 138.55265 582.83315 127.55565 602.6386 115.46875 621.5625 C 90.36525 658.8594 97.25755 687.2265 132.71875 714.5 C 152.29855 726.6191 169.43775 741.21175 180.96875 761.28125 C 185.65055 770.92715 185.6809 777.80395 178.375 785.09375 C 166.7323 796.41165 151.31285 801.99265 136.28125 807.21875 C 80.20835 824.55025 99.78395 801.1747 99.46875 900.0625 C 127.42005 907.6747 156.4773 910.6542 185.0625 915.3125 C 235.4199 923.6785 285.28035 934.6817 335.21875 945.1875 C 405.12305 960.8834 476.38015 967.45655 547.78125 971.03125 C 619.22885 973.14325 690.69875 973.28755 762.15625 975.03125 C 805.07795 976.35085 847.99615 977.87845 890.90625 979.53125 C 909.17465 980.09865 911.86205 893.97365 893.59375 893.40625 C 850.40585 892.38545 807.21635 891.29185 764.03125 890.15625 C 693.37215 888.77565 622.67405 888.7849 552.03125 886.6875 C 485.12395 883.2626 418.40085 876.92385 352.96875 861.84375 C 317.33951 854.16864 281.72989 846.28829 246 839.09375 C 248.30794 836.36862 250.51905 833.49523 252.625 830.5 C 276.2101 788.2467 276.55705 758.75215 254.59375 715.34375 C 239.06104 691.3655 220.47009 670.37744 197.78125 653.40625 C 212.06333 628.19621 223.91032 601.6994 229.15625 572.90625 C 233.71745 537.64385 231.9272 503.35215 214.75 471.34375 C 213.36438 468.79127 210.31275 467.65754 206.1875 467.625 z M 187.875 667.96875 C 187.33991 670.72822 186.15875 673.42504 184.125 677.59375 C 183.36756 679.14643 185.68374 673.14405 187.875 667.96875 z M 515.90625 672.78125 C 498.00384 673.81938 490.61194 758.43626 508.84375 760.09375 C 537.05915 761.84695 565.0219 766.2028 592.875 770.875 C 605.8321 772.8936 618.5778 775.83775 631.25 779.15625 C 649.1583 783.59955 670.0958 699.16195 652.1875 694.71875 C 637.2535 691.16905 622.27815 687.86115 607.09375 685.53125 C 577.09245 680.55715 547.03395 675.96105 516.78125 672.78125 C 516.49186 672.75494 516.19042 672.76477 515.90625 672.78125 z "
     id="path21829" />
</svg>
