<?xml version="1.0" encoding="UTF-8" standalone="no"?>
<svg
   xmlns:dc="http://purl.org/dc/elements/1.1/"
   xmlns:cc="http://creativecommons.org/ns#"
   xmlns:rdf="http://www.w3.org/1999/02/22-rdf-syntax-ns#"
   xmlns:svg="http://www.w3.org/2000/svg"
   xmlns="http://www.w3.org/2000/svg"
   xmlns:sodipodi="http://sodipodi.sourceforge.net/DTD/sodipodi-0.dtd"
   xmlns:inkscape="http://www.inkscape.org/namespaces/inkscape"
   width="1024"
   height="1024"
   id="U904D"
   version="1.1"
   inkscape:version="0.48.0 r9654"
   sodipodi:docname="U+904D.svg">
  <metadata
     id="metadata18">
    <rdf:RDF>
      <cc:Work
         rdf:about="">
        <dc:format>image/svg+xml</dc:format>
        <dc:type
           rdf:resource="http://purl.org/dc/dcmitype/StillImage" />
      </cc:Work>
    </rdf:RDF>
  </metadata>
  <defs
     id="defs16" />
  <sodipodi:namedview
     pagecolor="#ffffff"
     bordercolor="#666666"
     borderopacity="1"
     objecttolerance="10"
     gridtolerance="10"
     guidetolerance="10"
     inkscape:pageopacity="0"
     inkscape:pageshadow="2"
     inkscape:window-width="640"
     inkscape:window-height="480"
     id="namedview14"
     showgrid="false"
     inkscape:zoom="0.27441406"
     inkscape:cx="512"
     inkscape:cy="512"
     inkscape:window-x="0"
     inkscape:window-y="25"
     inkscape:window-maximized="0"
     inkscape:current-layer="U904D" />
  <path
     style="fill:#aa0000;fill-opacity:1;fill-rule:nonzero;stroke:#f9f9f9;stroke-width:0.1;stroke-miterlimit:4;stroke-dasharray:none"
     d="M 617.375 64.6875 C 595.12358 65.160357 542.47027 98.577919 550.34375 112.125 C 568.91112 142.0538 590.90785 169.60345 612.90625 197.03125 C 622.04832 208.49444 622.3138 208.75376 625.0625 212.40625 C 585.85799 218.67323 546.75186 225.67004 508.03125 234.5 C 465.82604 244.5511 423.77494 255.43695 383.0625 270.59375 C 371.87209 275.12118 381.83575 310.99195 394.90625 333.625 C 378.65553 335.78499 365.39692 340.64499 365.65625 347.90625 C 369.2456 392.57315 367.08983 437.33405 363.46875 481.90625 C 357.42896 546.14025 343.41216 609.17675 328.84375 671.90625 C 318.31772 712.95895 310.40337 754.53375 305.84375 796.65625 C 303.92711 810.48305 304.47656 824.57095 302.1875 838.34375 C 299.79305 856.78485 386.73055 868.09735 389.125 849.65625 C 390.80003 834.90145 391.0401 820.0487 392.21875 805.25 C 395.685 766.6167 402.61926 728.51455 411.90625 690.84375 C 426.84729 624.14425 441.39777 557.1832 448.1875 489.0625 C 448.35668 487.13598 448.4928 485.20805 448.65625 483.28125 C 454.59069 508.54677 479.1481 548.4088 491.21875 542.21875 C 526.35419 524.59945 563.85855 512.5917 601.59375 502 C 644.76438 490.6196 689.11597 484.94515 733.625 482.65625 C 748.77494 482.60655 742.01077 482.28515 753.90625 483.21875 C 768.22498 483.81567 773.61321 431.64866 766.71875 407.78125 C 785.72091 411.79624 803.93353 411.77367 806 403.71875 C 810.22537 386.92385 813.96425 369.99405 815.625 352.71875 C 818.55902 325.93665 821.31077 298.8966 819.625 271.9375 C 813.82305 232.8373 797.57244 206.62525 755.90625 199.90625 C 729.6386 198.06328 703.55358 200.79857 677.5625 204.4375 C 693.59513 191.6629 706.34475 176.21716 701.0625 169.28125 C 687.47864 151.65825 694.43375 160.4665 680.21875 142.875 C 660.89471 118.9346 641.30952 94.97175 626.03125 68.15625 C 624.5732 65.647547 621.49563 64.599934 617.375 64.6875 z M 159.65625 202.6875 C 139.68836 202.39341 87.205565 248.07165 97.75 260.84375 C 114.31932 281.22585 131.58254 301.02115 148.59375 321.03125 C 155.60156 328.83815 161.8702 337.1876 167.8125 345.8125 C 178.51374 360.889 249.60749 310.4515 238.90625 295.375 C 231.24436 284.7861 223.40729 274.3311 214.625 264.625 C 197.83864 245.0644 180.74161 225.72745 165.34375 205.03125 C 164.04882 203.46275 162.10845 202.72362 159.65625 202.6875 z M 733.03125 285.65625 C 733.12831 304.8731 731.29526 324.04544 729.15625 343.125 C 727.87257 356.3247 724.99747 369.2672 721.625 382.0625 C 720.4126 386.78833 725.41572 391.767 733.5 396.21875 C 731.77998 396.28454 730.7834 396.31814 728.25 396.40625 C 677.81087 400.02435 627.54627 406.718 578.5625 419.625 C 535.20204 431.7214 492.27526 445.6018 451.25 464.3125 C 450.83984 464.52284 450.49806 464.80027 450.15625 465.09375 C 453.13172 425.06324 454.60542 384.98463 453.125 344.8125 C 453.04815 342.66074 451.79523 340.76587 449.65625 339.1875 C 475.36424 330.69582 501.69143 324.08002 528 317.71875 C 574.79838 306.99575 622.22311 299.3422 669.71875 292.5 C 690.52477 291.05081 711.91814 285.53463 733.03125 285.65625 z M 742.46875 286.125 C 744.24454 286.29603 746.0117 286.50298 747.78125 286.78125 C 749.00554 288.67745 749.67651 289.29995 743.53125 286.71875 C 743.18755 286.57438 742.83102 286.35568 742.46875 286.125 z M 115.9375 395.53125 C 98.040822 396.35111 89.588242 480.77924 107.78125 482.65625 C 138.37214 484.43933 168.93505 486.37196 199.21875 491.03125 C 186.17403 501.02496 172.23218 509.3999 158.09375 517.75 C 135.62118 532.5809 102.44103 544.1764 90.9375 571.125 C 87.302951 579.6394 86.541885 589.10085 84.34375 598.09375 C 86.621215 607.24185 87.318272 616.9658 91.1875 625.5625 C 104.01201 654.0561 138.80919 670.17655 164 685.46875 C 176.45023 694.12985 188.10249 698.6647 184.96875 714.8125 C 177.86503 740.2597 160.49267 760.39465 142.53125 778.96875 C 122.04543 798.94065 97.572829 813.99075 75.78125 832.34375 C 71.984389 837.14095 66.84456 841.1527 64.375 846.75 C 43.082215 895.0109 75.766619 918.27185 113.03125 937.21875 C 155.56175 957.21885 201.31893 967.7491 247.34375 975.875 C 313.01319 986.6185 379.55905 985.2092 445.71875 981.4375 C 514.93826 976.1319 583.97149 968.7322 653.0625 962 C 706.82703 956.9489 760.59025 951.8553 814.34375 946.6875 C 847.78689 943.8271 881.18796 940.49975 914.53125 936.65625 C 918.48559 936.1725 921.08847 931.7751 922.5625 925.1875 C 929.74165 924.19066 934.70134 921.85876 935.46875 917.75 C 937.86951 900.6651 937.24879 908.93455 937.5625 892.90625 C 936.64961 859.14655 936.69453 825.3718 939.59375 791.6875 C 943.47147 746.5908 949.94684 701.86155 956.09375 657.03125 C 959.43093 626.53925 964.16808 595.0169 955.9375 564.9375 C 939.67415 531.3968 921.24386 520.47405 884.125 522.53125 C 861.07984 525.18455 838.26423 529.6215 815.28125 532.75 C 780.09541 537.7585 744.83095 542.2706 709.8125 548.375 C 663.82232 557.0676 618.22509 567.58135 572.9375 579.40625 C 538.19249 588.11955 503.37235 596.52015 468.5625 604.96875 C 458.95416 607.62472 461.22701 633.13697 468.15625 655.46875 C 444.10164 658.73476 417.72218 668.42419 419.6875 678.6875 C 428.13086 711.5101 434.89579 744.6941 441.4375 777.9375 C 447.08333 806.9277 455.8009 835.2239 469.84375 861.25 C 479.13819 877.3231 554.88818 833.5105 545.59375 817.4375 C 543.88277 815.13877 542.40838 812.71019 541.0625 810.1875 C 547.71702 818.85154 554.44775 824.05057 559.375 821.6875 C 570.81299 815.98204 582.67496 811.32119 594.75 807.28125 C 596.52908 825.87621 598.68694 844.40545 603.125 862.59375 C 608.14239 880.42265 692.17365 856.7664 687.15625 838.9375 C 683.21133 829.4344 682.74614 818.14155 681.59375 808.09375 C 680.72889 800.55287 679.91431 792.9839 679.09375 785.4375 C 682.40336 784.712 685.71983 783.9984 689.03125 783.28125 C 690.80493 807.21676 693.3065 831.09294 696.03125 854.9375 C 698.23924 873.1766 784.20798 862.77025 782 844.53125 C 778.59922 818.05045 775.64986 791.48971 773.96875 764.84375 C 776.01892 764.37962 778.07608 763.9387 780.125 763.46875 C 805.94742 757.58955 831.56926 750.8591 856 740.5625 C 857.22748 740.01128 858.17573 739.06296 858.875 737.8125 C 857.08684 753.25235 855.441 768.72476 854.0625 784.21875 C 851.89732 808.31637 851.00732 832.45831 850.6875 856.625 C 835.73503 858.23772 820.75558 859.76137 805.78125 861.1875 C 752.10327 866.7794 698.4338 872.2745 644.71875 877.5 C 576.85013 884.3236 509.02755 891.7936 441 896.875 C 381.42516 900.145 321.48374 901.4478 262.375 891.625 C 231.36921 886.03979 200.45836 879.23162 171.09375 867.8125 C 183.24822 858.88089 195.17275 849.68259 205.03125 838.25 C 238.8738 802.0865 268.64422 761.9303 271.6875 710.625 C 270.96718 702.838 271.13413 694.9042 269.53125 687.25 C 262.37323 653.0683 237.58074 629.112 209 611.4375 C 207.48121 610.51297 198.71473 604.67337 190 599 C 194.51848 596.32847 199.10699 593.66686 202.09375 591.90625 C 241.08714 568.66905 281.45719 544.29905 300.71875 501.21875 C 301.72977 490.77265 305.29608 480.2554 303.75 469.875 C 297.5136 428.0035 254.29664 413.80215 219.15625 406.78125 C 185.18396 401.43915 150.98857 398.83835 116.78125 395.53125 C 116.49247 395.50146 116.22157 395.51824 115.9375 395.53125 z M 223.875 497.84375 C 228.3584 499.44435 231.66572 500.92245 230.71875 501.65625 C 229.44806 502.64088 226.60629 500.84946 223.875 497.84375 z M 180.0625 604.96875 C 180.43308 606.29976 179.9351 606.93024 177.9375 606.3125 C 178.64024 605.87451 179.31744 605.42595 180.0625 604.96875 z M 872.15625 612 C 871.33598 626.56182 870.39716 645.63099 870.15625 648.125 C 866.8571 674.2264 863.3569 700.29978 860.21875 726.40625 C 857.81361 701.65934 833.33954 654.98296 820.21875 660.875 C 805.38216 668.50542 788.98158 672.36585 772.8125 676.4375 C 773.12594 661.20001 773.6748 645.96087 774.65625 630.75 C 774.77206 629.01287 774.10988 627.37918 772.8125 625.875 C 790.91153 623.39359 809.05038 621.10581 827.15625 618.6875 C 842.22158 616.92658 857.14646 614.19261 872.15625 612 z M 167.15625 613.59375 C 165.30777 617.57262 163.86189 619.68268 162.21875 618.6875 C 161.86064 618.47061 162.91554 616.86335 167.15625 613.59375 z M 686.9375 640.5625 C 686.53993 659.05719 686.32421 677.56497 686.3125 696.0625 C 680.187 697.37424 674.06088 698.67813 667.9375 700 C 665.33446 682.14076 662.7067 664.2771 660.1875 646.40625 C 669.08361 644.37861 678.00821 642.43974 686.9375 640.5625 z M 575.96875 667.34375 C 578.86143 684.9567 581.58263 702.59234 584.1875 720.25 C 563.13317 726.26502 542.36793 733.24672 522.34375 742.25 C 518.41259 722.91774 514.39438 703.58084 510.3125 684.28125 C 532.12312 678.36357 554.05299 672.87038 575.96875 667.34375 z M 142.375 889.75 C 140.78291 893.38647 138.04176 896.28728 133.59375 897.78125 C 136.41484 894.98388 139.34697 892.3336 142.375 889.75 z "
     id="path20151" />
</svg>
