<?xml version="1.0" encoding="utf-8" ?>

<!DOCTYPE svg PUBLIC "-//W3C//DTD SVG 1.1//EN" 
  "http://www.w3.org/Graphics/SVG/1.1/DTD/svg11.dtd">
<svg 
    xmlns="http://www.w3.org/2000/svg"
    xmlns:xlink="http://www.w3.org/1999/xlink"
    xmlns:sodipodi="http://sodipodi.sourceforge.net/DTD/sodipodi-0.dtd"
    xmlns:inkscape="http://www.inkscape.org/namespaces/inkscape"
    width="1024" height="1024" id="U90E8">
<path d="m 8485.7743,3242.1923 c 10.8955,18.0979 26.0858,33.1273 40.0246,48.8579 12.1794,13.8635 -53.1739,71.2777 -65.3533,57.4142 l 0,0 c -18.3646,-21.1005 -38.1953,-41.2679 -52.2991,-65.6445 -8.6185,-16.4673 69.0094,-57.095 77.6278,-40.6276 z" id="path20363" inkscape:connector-curvature="0" style="fill:#aa0000;fill-opacity:1;fill-rule:nonzero;stroke:#f9f9f9;stroke-width:0.1;stroke-miterlimit:4;stroke-dasharray:none" transform="translate(-8192, -3072)"/><path d="m 8259.651,3438.3847 c 37.6818,-1.1353 74.9957,-8.1222 112.097,-14.3635 56.8718,-9.9285 113.6112,-20.5789 170.5921,-29.872 34.0898,-5.675 68.5865,-8.3198 103.0659,-5.7186 13.9121,2.1127 6.7759,0.5582 21.3568,4.8942 17.4435,6.5473 -13.4206,88.7769 -30.8641,82.2296 l 0,0 c 4.7575,0.7131 5.1895,0.9693 1.5002,-0.1415 -27.2156,-3.2391 -54.649,-0.5415 -81.6732,3.3128 -56.6904,8.6893 -113.0634,19.2051 -169.487,29.461 -42.6985,7.5136 -85.5534,15.7314 -128.9349,17.8279 -18.5892,-0.4979 -16.2419,-88.1279 2.3472,-87.6299 z" id="path20365" inkscape:connector-curvature="0" style="fill:#aa0000;fill-opacity:1;fill-rule:nonzero;stroke:#f9f9f9;stroke-width:0.1;stroke-miterlimit:4;stroke-dasharray:none" transform="translate(-8192, -3072)"/><path d="m 8384.0897,3510.098 c 14.9135,20.7949 32.9614,39.0853 51.2017,56.9358 10.4089,10.0976 21.3271,19.6403 32.2562,29.1634 13.8165,12.1722 -43.5642,77.3037 -57.3807,65.1314 l 0,0 c -11.9601,-10.6436 -23.9148,-21.2991 -35.4034,-32.4563 -22.0492,-21.5853 -43.6395,-43.7646 -62.3809,-68.343 -10.6981,-15.2113 61.009,-65.6427 71.7071,-50.4313 z" id="path20367" inkscape:connector-curvature="0" style="fill:#aa0000;fill-opacity:1;fill-rule:nonzero;stroke:#f9f9f9;stroke-width:0.1;stroke-miterlimit:4;stroke-dasharray:none" transform="translate(-8192, -3072)"/><path d="m 8618.8909,3532.4708 c -16.7545,28.983 -31.8977,58.8661 -47.7567,88.3444 -13.3232,24.1088 -6.6257,12.1746 -20.0868,35.806 -9.0814,15.8792 -83.9363,-26.9308 -74.855,-42.8099 l 0,0 c 12.7455,-22.1917 6.4055,-10.9499 19.0107,-33.7306 16.2747,-30.426 31.8979,-61.1877 48.037,-91.6847 9.3497,-16.0479 85.0005,28.0269 75.6508,44.0748 z" id="path20369" inkscape:connector-curvature="0" style="fill:#aa0000;fill-opacity:1;fill-rule:nonzero;stroke:#f9f9f9;stroke-width:0.1;stroke-miterlimit:4;stroke-dasharray:none" transform="translate(-8192, -3072)"/><path d="m 8239.9455,3722.4895 c 36.9187,-12.3566 74.4813,-22.5864 112.1672,-32.292 50.8569,-13.0743 102.6009,-22.0599 154.4199,-30.2861 20.8306,-3.2863 41.756,-5.9973 62.4968,-9.8335 18.3624,-2.8507 31.8006,83.7105 13.4382,86.5611 l 0,0 c -20.9833,2.7017 -41.9625,5.4391 -62.9235,8.3079 -48.9846,7.2043 -97.8697,15.4357 -145.7946,28.0755 -34.9309,9.2622 -69.8468,18.8937 -103.6422,31.8006 -17.4656,6.3983 -47.6274,-75.9352 -30.1618,-82.3335 z" id="path20371" inkscape:connector-curvature="0" style="fill:#aa0000;fill-opacity:1;fill-rule:nonzero;stroke:#f9f9f9;stroke-width:0.1;stroke-miterlimit:4;stroke-dasharray:none" transform="translate(-8192, -3072)"/><path d="m 8424.3921,3792.9378 c -4.2733,27.824 -3.105,56.13 -2.4518,84.166 0.9246,32.7198 2.4114,65.4592 7.0188,97.8892 0.551,2.5212 1.1019,5.0423 1.6529,7.5635 3.4535,18.17 -82.2004,34.4503 -85.654,16.2803 l 0,0 c -0.7283,-4.2091 -1.4566,-8.4183 -2.1849,-12.6275 -4.2756,-35.4898 -6.0559,-71.1888 -7.0685,-106.911 -0.9227,-33.5851 -2.0685,-67.3489 2.2366,-100.769 3.0565,-18.339 89.5074,-3.9305 86.4509,14.4085 z" id="path20373" inkscape:connector-curvature="0" style="fill:#aa0000;fill-opacity:1;fill-rule:nonzero;stroke:#f9f9f9;stroke-width:0.1;stroke-miterlimit:4;stroke-dasharray:none" transform="translate(-8192, -3072)"/><path d="m 8403.941,3817.107 c 25.4691,-15.0604 54.052,-22.5528 82.742,-28.5758 26.4273,-5.3772 53.2706,-7.472 80.1732,-6.0448 25.7145,1.7268 48.9636,11.9683 60.8204,36.4551 2.6605,5.4944 3.3145,11.7507 4.9718,17.6261 2.381,26.805 -3.6873,53.4195 -8.4426,79.6669 -4.7834,24.0396 -9.2725,48.1629 -15.8129,71.7984 -5.0945,17.8001 -89.0049,-6.2153 -83.9104,-24.0154 l 0,0 c 6.2229,-20.6777 9.7669,-42.0531 14.1761,-63.1635 2.8215,-15.8245 5.3204,-32.7265 7.9012,-48.0779 3.8316,7.7523 11.1534,18.8099 21.2916,18.3525 2.3029,-0.1039 -14.8972,-3.4878 -6.7485,-1.5119 -19.0199,-1.7271 -38.066,0.496 -56.7868,3.962 -18.4685,3.766 -37.2878,7.8272 -53.6162,17.6975 -15.7337,9.9191 -62.4926,-64.2502 -46.7589,-74.1692 z" id="path20375" inkscape:connector-curvature="0" style="fill:#aa0000;fill-opacity:1;fill-rule:nonzero;stroke:#f9f9f9;stroke-width:0.1;stroke-miterlimit:4;stroke-dasharray:none" transform="translate(-8192, -3072)"/><path d="m 8402.2837,3975.4037 c 32.5993,-7.7558 65.8604,-11.2018 99.2462,-13.0286 20.9345,-0.5914 41.868,-1.0186 62.7902,-1.9624 18.4012,-0.734 21.8614,86.0103 3.4601,86.7443 l 0,0 c -20.5387,0.7204 -41.0833,1.0766 -61.6279,1.5844 -27.5092,1.4336 -55.0347,3.9638 -81.6824,11.3733 -17.9699,4.7064 -40.1561,-80.0046 -22.1862,-84.711 z" id="path20377" inkscape:connector-curvature="0" style="fill:#aa0000;fill-opacity:1;fill-rule:nonzero;stroke:#f9f9f9;stroke-width:0.1;stroke-miterlimit:4;stroke-dasharray:none" transform="translate(-8192, -3072)"/><path d="m 8804.1428,3264.208 c 30.1929,0.3675 59.3019,7.2104 86.6427,19.7342 47.8018,31.1826 43.3889,68.1256 10.5062,108.4059 -13.4956,16.6352 -32.5887,27.7429 -46.6921,43.6804 8.9635,-6.6622 9.2113,-20.1429 8.1154,-29.8898 -0.9336,-8.3044 -8.3671,-14.1986 1.6185,-5.9723 27.3338,20.1471 50.5039,44.5668 71.4053,71.1645 27.4987,36.2437 40.5482,77.5711 43.2383,122.4594 -0.5115,44.1711 -15.2568,78.1493 -44.8408,110.206 -26.5819,24.6855 -59.4729,32.7962 -94.7249,33.3685 -21.6794,-0.3184 -42.1401,-6.1439 -61.8517,-14.6885 -16.8807,-7.6713 19.2822,-87.2476 36.1629,-79.5762 l 0,0 c 7.9513,4.1408 16.5906,6.4007 25.5373,7.1188 11.418,0.3539 22.8754,-0.1054 32.5927,-6.8764 13.5773,-11.8373 19.6142,-27.9569 20.6781,-45.8366 -0.2527,-26.9147 -9.0081,-51.2122 -24.9442,-73.0322 -16.8377,-21.8298 -36.1769,-41.0757 -58.7907,-56.9986 -32.1083,-26.5145 -47.0285,-55.7676 -16.8224,-92.5968 13.7879,-13.5896 29.3658,-25.1526 42.9549,-38.956 1.1525,-1.1788 1.9128,-2.9606 3.4576,-3.5365 0.2856,-0.1065 0.45,12.0598 0.6735,12.8576 0.049,0.1747 7.1315,20.176 13.3303,17.0168 -13.6813,-8.2422 -30.4969,-9.9045 -46.1452,-10.4826 -18.5764,0.4458 -20.678,-87.1238 -2.1017,-87.5696 z" id="path20379" inkscape:connector-curvature="0" style="fill:#aa0000;fill-opacity:1;fill-rule:nonzero;stroke:#f9f9f9;stroke-width:0.1;stroke-miterlimit:4;stroke-dasharray:none" transform="translate(-8192, -3072)"/><path d="m 8781.9098,3319.2469 c -10.3252,30.0006 -14.0119,61.6621 -17.606,93.0162 -6.35,67.245 -7.4271,134.8456 -8.7447,202.3339 -1.3263,64.118 -2.0948,128.2408 0.073,192.3443 1.4718,34.5966 4.4563,69.1031 8.5723,103.479 1.7434,11.2799 2.5316,22.8078 5.2924,33.9135 1.3169,2.4092 2.0874,4.543 3.4419,8.0501 6.0383,17.6735 -77.2755,46.1381 -83.3137,28.4646 l 0,0 c 3.8845,8.5856 -7.1993,-16.5867 -5.9634,-17.9916 -2.8829,-14.1899 -4.5205,-28.586 -5.9764,-42.9846 -3.6571,-36.7403 -6.3285,-73.5789 -7.5268,-110.4873 -1.5471,-65.4756 -0.3832,-130.9435 1.0209,-196.4148 1.3327,-70.0071 2.2193,-140.1102 7.9433,-209.929 3.8477,-37.5098 8.3719,-75.1167 19.5612,-111.2816 5.831,-17.6548 89.0566,9.8325 83.2256,27.4873 z" id="path20381" inkscape:connector-curvature="0" style="fill:#aa0000;fill-opacity:1;fill-rule:nonzero;stroke:#f9f9f9;stroke-width:0.1;stroke-miterlimit:4;stroke-dasharray:none" transform="translate(-8192, -3072)"/></svg>