<?xml version="1.0" encoding="UTF-8" standalone="no"?>
<svg
   xmlns:dc="http://purl.org/dc/elements/1.1/"
   xmlns:cc="http://creativecommons.org/ns#"
   xmlns:rdf="http://www.w3.org/1999/02/22-rdf-syntax-ns#"
   xmlns:svg="http://www.w3.org/2000/svg"
   xmlns="http://www.w3.org/2000/svg"
   xmlns:sodipodi="http://sodipodi.sourceforge.net/DTD/sodipodi-0.dtd"
   xmlns:inkscape="http://www.inkscape.org/namespaces/inkscape"
   width="1024"
   height="1024"
   id="U9047"
   version="1.1"
   inkscape:version="0.48.0 r9654"
   sodipodi:docname="U+9047.svg">
  <metadata
     id="metadata18">
    <rdf:RDF>
      <cc:Work
         rdf:about="">
        <dc:format>image/svg+xml</dc:format>
        <dc:type
           rdf:resource="http://purl.org/dc/dcmitype/StillImage" />
      </cc:Work>
    </rdf:RDF>
  </metadata>
  <defs
     id="defs16" />
  <sodipodi:namedview
     pagecolor="#ffffff"
     bordercolor="#666666"
     borderopacity="1"
     objecttolerance="10"
     gridtolerance="10"
     guidetolerance="10"
     inkscape:pageopacity="0"
     inkscape:pageshadow="2"
     inkscape:window-width="640"
     inkscape:window-height="480"
     id="namedview14"
     showgrid="false"
     inkscape:zoom="0.27441406"
     inkscape:cx="512"
     inkscape:cy="512"
     inkscape:window-x="0"
     inkscape:window-y="25"
     inkscape:window-maximized="0"
     inkscape:current-layer="U9047" />
  <path
     style="fill:#2b1100;fill-opacity:1;fill-rule:nonzero;stroke:none"
     d="M 678.25 117.625 C 669.40876 117.60666 660.54231 117.97925 651.65625 118.75 C 608.51648 122.891 565.71658 130.028 524.0625 142.25 C 492.50259 152.10531 461.26353 163.54252 434.46875 183.1875 C 410.85769 179.51546 355.24931 196.87032 359.0625 211.59375 C 368.89586 249.75675 377.75301 288.1445 386.53125 326.5625 C 395.60596 369.0035 404.57267 411.485 414.96875 453.625 C 419.08032 469.609 416.91321 461.93825 421.4375 476.65625 C 424.06682 484.57919 442.1647 483.4287 460.90625 478.15625 C 465.12101 503.25049 491.47199 547.7934 504.25 541.3125 C 526.4453 529.04351 550.02874 519.89568 574.21875 512.625 C 575.45054 527.52197 576.58276 542.43274 577.65625 557.34375 C 556.7782 561.99346 536.15303 567.76421 515.875 574.9375 C 477.33626 589.2545 439.20646 605.51425 406.125 630.40625 C 391.73218 642.45225 448.51343 710.297 462.90625 698.25 C 487.74514 679.024 516.96219 667.02975 546.125 656.09375 C 558.31658 651.72321 570.68684 647.98975 583.15625 644.78125 C 585.39469 674.71212 588.62283 704.53633 591.90625 734.375 C 581.99893 738.08567 572.15371 741.94107 562.375 746 C 522.14598 763.636 482.19266 782.41675 446.5 808.34375 C 431.52015 819.61175 484.64516 890.2055 499.625 878.9375 C 529.11985 855.8775 563.21792 840.09175 597.21875 824.96875 C 645.64779 804.74675 696.1045 789.94025 746.28125 774.78125 C 767.04741 768.68386 767.20515 768.65438 776.75 765.96875 C 777.84869 767.96949 778.93306 769.95998 779.96875 772 C 788.67013 788.45 866.20139 747.45 857.5 731 C 847.33474 712.245 835.9932 694.255 823.0625 677.25 C 811.43369 661.30799 799.29419 645.34131 790.40625 627.65625 C 795.30579 627.97701 800.1989 628.3404 805.09375 628.75 C 825.60888 630.781 846.11573 634.381 864.21875 644.625 C 871.49903 649.149 870.98425 654.9375 871.9375 662.8125 C 874.08247 692.9825 870.28938 723.192 866.84375 753.125 C 862.71318 781.147 861.54708 810.39475 850.9375 836.96875 L 848.6875 840.15625 C 840.02561 856.71125 918.05687 897.555 926.71875 881 L 933.65625 866.625 C 945.00041 833.142 949.60672 798.193 953.34375 763.125 C 957.8018 724.641 962.75444 685.69175 958.34375 646.96875 C 951.02097 611.00575 937.7513 584.98075 904.65625 566.46875 C 875.54547 552.01975 844.51927 543.87775 812 541.71875 C 769.01427 538.47775 725.87194 538.184 682.875 541.75 C 675.88239 542.3872 668.88668 543.07906 661.90625 543.84375 C 660.78833 529.27286 659.60724 514.71689 658.375 500.15625 C 662.38395 500.70482 666.34405 501.56692 670.1875 502.90625 C 679.57989 505.04812 689.31536 483.27727 694.0625 461.09375 C 700.64548 479.37128 765.94329 509.13342 773.28125 493.96875 C 782.10826 474.58175 778.20995 484.367 785 464.625 C 797.3139 423.689 807.65835 382.1635 815.78125 340.1875 C 824.02727 296.5565 833.22624 251.96225 825.6875 207.53125 C 814.98791 167.63025 797.23883 142.01675 756.78125 128.34375 C 731.04244 121.287 704.77371 117.68003 678.25 117.625 z M 673.4375 205 C 693.38971 204.74056 713.30097 206.64775 732.40625 212.71875 C 740.95762 216.17975 739.21758 219.92175 740.28125 227.96875 C 743.5174 260.26775 736.42982 292.5885 730.53125 324.1875 C 723.08907 362.9105 713.49796 401.199 701.46875 438.75 C 697.23439 450.13489 698.40421 448.05559 695.5625 453.09375 C 698.39622 435.14127 697.4373 418.81511 689.75 417.0625 C 676.63805 414.50806 663.47108 413.24547 650.3125 413.03125 C 648.65222 396.57153 646.94007 380.13453 645.125 363.6875 C 644.51819 357.58588 643.88588 351.48459 643.25 345.375 C 655.49178 344.24749 667.78017 343.83664 680.125 344.375 L 685.9375 345.71875 C 704.38347 348.47775 717.38347 261.54025 698.9375 258.78125 L 682.1875 256.75 C 667.00488 256.5962 651.86794 257.27515 636.8125 258.65625 C 636.70355 250.59294 636.79687 242.50809 637.15625 234.4375 C 637.69392 222.50155 602.09693 216.57607 575.90625 218.65625 C 603.42621 212.15253 631.42478 207.94162 659.625 205.5 C 664.22417 205.23319 668.83314 205.05987 673.4375 205 z M 552.25 224.84375 C 550.08067 226.41782 548.81653 228.29795 548.71875 230.46875 C 548.60705 244.92899 549.12038 259.34148 550.03125 273.75 C 522.30052 280.66391 494.87629 288.9435 469.9375 303.21875 C 465.413 283.01381 460.8366 262.82973 456.3125 242.625 C 467.95204 253.53768 479.68186 260.37425 485.09375 255.71875 C 503.79307 240.06875 527.15321 232.629 550.03125 225.5 C 550.77069 225.28153 551.50972 225.0585 552.25 224.84375 z M 162.96875 268.5625 C 144.76372 267.7792 101.34031 332.37406 115.8125 342.40625 C 126.30417 349.50225 135.55175 358.09725 144.34375 367.15625 C 157.39144 380.42325 219.95394 318.92425 206.90625 305.65625 C 194.13689 292.77925 180.94952 280.322 166.25 269.625 C 165.28519 268.95619 164.18242 268.61472 162.96875 268.5625 z M 481.46875 356.75 C 492.47787 372.72464 505.6101 385.10659 512.6875 380.71875 C 526.88151 371.626 542.61852 365.97712 558.71875 361.5 C 559.14542 365.22717 559.58292 368.96141 560 372.6875 C 562.11461 390.00436 564.09237 407.31526 565.9375 424.65625 C 544.85146 430.45242 524.0464 437.12869 503.71875 445.09375 C 502.2263 441.1488 502.77097 442.40692 499.71875 431.8125 C 493.03994 406.92847 487.06348 381.89041 481.46875 356.75 z M 180.15625 487 C 155.12206 487.20885 105.33088 508.47188 110.28125 522.28125 C 115.78763 537.18025 115.26029 552.4375 110.6875 567.4375 C 101.8286 592.2225 97.174129 617.2685 97.78125 643.5625 C 100.38386 672.8885 117.83227 696.23325 132.59375 720.53125 C 143.79024 737.16125 151.42415 754.31775 153.25 774.21875 C 154.39482 790.66175 151.07961 806.459 145.75 821.875 C 142.02752 831.197 136.72927 839.93625 129.4375 846.90625 C 117.83871 858.47625 106.62916 872.36725 106.40625 889.78125 C 106.31735 896.72625 108.3606 903.53025 109.34375 910.40625 C 120.98379 937.41925 146.30853 948.05025 171.21875 959.78125 C 207.4014 976.34625 246.33733 984.8785 285.28125 991.9375 C 342.73923 1001.6595 401.04488 997.5945 458.84375 994.1875 C 514.53337 990.0215 570.33052 988.62525 626.15625 988.90625 C 674.21746 989.35525 722.24694 990.94075 770.3125 990.34375 C 810.77841 989.57275 851.15707 986.531 891.53125 983.875 C 918.02733 981.943 944.57014 981.09975 971.125 980.59375 C 973.77111 980.60375 976.44763 980.625 979.09375 980.625 C 997.80101 980.513 997.26976 892.3255 978.5625 892.4375 C 975.30434 892.4785 972.03941 892.5225 968.78125 892.5625 C 941.00931 893.5185 913.24359 894.6945 885.53125 896.8125 C 846.73816 899.6205 807.92885 902.69025 769.03125 903.53125 C 721.49309 904.36825 673.97576 902.7605 626.4375 902.5625 C 568.84139 902.4845 511.2673 904.0345 453.8125 908.3125 C 402.90978 911.2765 351.51683 915.07475 300.90625 906.59375 C 271.0655 901.0666 241.1757 894.55874 213.28125 882.3125 C 219.86863 872.12829 225.3736 861.26636 229.3125 849.5625 C 238.27482 821.8115 243.28903 793.282 240.46875 764 C 236.28914 731.807 225.83166 702.314 207.78125 675.125 C 200.98903 663.826 194.35903 650.548 185.90625 640.75 C 185.04598 622.697 190.11656 606.1165 195.78125 588.9375 C 203.27801 556.6445 204.58912 524.23525 193.625 492.40625 C 192.2389 488.53984 187.16582 486.94152 180.15625 487 z M 727.21875 626.15625 C 712.0873 633.79162 700.71613 643.14669 703.46875 650.09375 C 709.58563 664.2613 717.21569 677.62229 725.5625 690.53125 C 723.38246 691.19881 724.00488 691.01188 720.875 691.96875 C 705.7722 696.67426 690.63371 701.34785 675.53125 706.09375 C 672.47363 680.79212 669.70829 655.47452 667.78125 630.0625 C 675.315 629.252 682.85475 628.53524 690.40625 627.90625 C 702.67057 626.98712 714.94212 626.39875 727.21875 626.15625 z M 373.21875 657.59375 C 348.21627 657.53442 298.2977 678.21953 303.09375 692.0625 C 314.09188 723.4805 324.36535 755.16425 335.15625 786.65625 C 346.2271 818.88225 357.14856 851.2475 373.8125 881.0625 C 386.94664 898.7405 379.22362 890.23675 397.53125 906.09375 C 411.48723 916.14956 456.15134 856.62245 451.65625 838.28125 C 451.32523 838.02727 450.71731 837.522 449.71875 836.71875 C 434.45668 812.90075 427.87155 784.48025 417.59375 758.40625 C 406.76724 726.81325 396.34978 695.075 386.625 663.125 C 385.28211 659.24875 380.21944 657.61036 373.21875 657.59375 z M 451.65625 838.28125 C 452.06028 838.59125 451.91969 838.32376 451.46875 837.6875 C 451.53073 837.88045 451.60644 838.07803 451.65625 838.28125 z M 451.46875 837.6875 C 451.02885 836.31805 450.28498 835.19702 449.1875 834.40625 C 450.32176 836.09992 451.02246 837.05779 451.46875 837.6875 z "
     id="path13411" />
</svg>
