<?xml version="1.0" encoding="UTF-8" standalone="no"?>
<svg
   xmlns:dc="http://purl.org/dc/elements/1.1/"
   xmlns:cc="http://creativecommons.org/ns#"
   xmlns:rdf="http://www.w3.org/1999/02/22-rdf-syntax-ns#"
   xmlns:svg="http://www.w3.org/2000/svg"
   xmlns="http://www.w3.org/2000/svg"
   xmlns:sodipodi="http://sodipodi.sourceforge.net/DTD/sodipodi-0.dtd"
   xmlns:inkscape="http://www.inkscape.org/namespaces/inkscape"
   width="1024"
   height="1024"
   id="U90A3"
   version="1.1"
   inkscape:version="0.48.0 r9654"
   sodipodi:docname="U+90A3.svg">
  <metadata
     id="metadata13">
    <rdf:RDF>
      <cc:Work
         rdf:about="">
        <dc:format>image/svg+xml</dc:format>
        <dc:type
           rdf:resource="http://purl.org/dc/dcmitype/StillImage" />
      </cc:Work>
    </rdf:RDF>
  </metadata>
  <defs
     id="defs11" />
  <sodipodi:namedview
     pagecolor="#ffffff"
     bordercolor="#666666"
     borderopacity="1"
     objecttolerance="10"
     gridtolerance="10"
     guidetolerance="10"
     inkscape:pageopacity="0"
     inkscape:pageshadow="2"
     inkscape:window-width="640"
     inkscape:window-height="480"
     id="namedview9"
     showgrid="false"
     inkscape:zoom="0.27441406"
     inkscape:cx="512"
     inkscape:cy="512"
     inkscape:window-x="0"
     inkscape:window-y="25"
     inkscape:window-maximized="0"
     inkscape:current-layer="U90A3" />
  <path
     style="fill:#c83737;fill-opacity:1;fill-rule:nonzero;stroke:#f9f9f9;stroke-width:0.1;stroke-miterlimit:4;stroke-dasharray:none"
     d="M 763.59375 237.46875 C 740.25857 237.57228 716.98355 239.23069 693.78125 242.40625 C 661.51378 246.22525 629.26573 250.81525 596.78125 252.28125 C 584.75292 252.75478 581.87847 289.27681 586.3125 315.21875 C 572.31402 321.20443 562.06769 328.75687 564 335.375 C 575.59335 381.34 579.28249 429.00575 583.59375 476.09375 C 589.14149 547.63575 594.22095 619.182 600.96875 690.625 C 604.65959 728.028 608.29806 765.5205 616.1875 802.3125 C 618.08965 811.1465 621.31196 819.50925 624.84375 827.78125 C 632.77788 844.83925 713.18413 807.432 705.25 790.375 C 704.00299 788.018 702.52438 785.34325 702.03125 782.53125 C 693.67798 749.62125 690.57781 715.6855 686.5 682.0625 C 685.54254 673.04356 684.64234 664.02409 683.75 655 C 696.25316 655.94973 708.77912 655.52342 721.28125 652.53125 C 750.19056 644.65125 776.17771 630.944 797.0625 609 C 818.04883 585.244 835.44406 558.71175 844.71875 528.09375 C 851.7822 501.27775 855.25462 474.337 843.15625 448.25 C 830.66999 427.92598 814.54707 413.81567 792.84375 405.4375 C 799.48352 400.38057 806.01751 395.17618 812.40625 389.78125 C 830.54623 374.51125 848.73223 359.231 865.4375 342.375 C 891.71342 312.238 894.38965 279.1335 858.0625 255.0625 C 838.50043 245.0865 817.37939 239.76225 795.4375 238.28125 C 784.81847 237.68031 774.20065 237.42169 763.59375 237.46875 z M 350.5 239.09375 C 329.66674 239.08426 308.82352 240.16331 288.09375 242.71875 C 254.3237 247.00975 220.75229 252.5825 187.75 261.0625 C 169.66939 266.0305 193.07564 351.25025 211.15625 346.28125 C 239.8182 337.67825 269.40323 332.965 299.03125 329.25 C 305.16328 328.51541 311.28953 327.94956 317.4375 327.5 C 313.72853 358.88005 310.28706 390.28043 306.8125 421.6875 C 306.53919 424.6587 306.24924 427.62354 305.96875 430.59375 C 304.85101 430.69765 303.74258 430.79168 302.625 430.90625 C 273.82713 433.64725 245.09362 437.02175 216.46875 441.21875 C 197.98552 444.51975 213.54803 531.64375 232.03125 528.34375 C 253.32674 524.39437 274.8109 521.67017 296.34375 519.40625 C 292.32656 551.7791 287.7091 584.05201 282.3125 616.25 C 281.71075 619.42778 281.0797 622.60554 280.46875 625.78125 C 254.75678 631.7969 229.07183 637.82423 203.28125 643.5 C 185.20885 648.555 209.02136 733.7425 227.09375 728.6875 C 238.96449 725.57668 250.86814 722.5827 262.78125 719.625 C 260.04531 735.7873 257.59066 751.98162 255.625 768.28125 C 252.6919 788.24525 254.82318 808.28525 255.125 828.28125 C 255.80327 847.01425 344.11577 843.7945 343.4375 825.0625 C 342.66797 809.3395 340.64842 793.67025 342.375 777.90625 C 345.02926 751.21435 349.32849 724.79237 354.09375 698.4375 C 381.55576 693.64981 409.40831 691.58464 437.3125 690.78125 C 444.42315 690.6439 451.51518 690.62136 458.625 690.6875 C 458.86214 695.03082 459.08907 699.37273 459.28125 703.71875 C 458.65767 721.48575 460.99326 739.73825 458.4375 757.40625 C 456.73662 770.10588 457.97415 763.21748 458.78125 758.9375 C 459.22457 776.87141 533.52602 808.27297 540.6875 791.8125 C 543.56244 783.2705 546.68801 775.1145 546.40625 765.9375 C 548.14908 743.8195 547.26068 721.531 546.75 699.375 C 544.77068 663.093 540.99756 626.93075 540 590.59375 C 539.49729 539.64775 539.8695 488.72125 538.78125 437.78125 C 538.18444 397.46425 537.45748 356.66275 526.875 317.46875 C 517.73561 288.15675 502.87187 263.206 471.1875 254.875 C 447.56428 248.354 423.53714 242.93625 399.0625 240.90625 C 382.88622 239.77313 366.70365 239.10113 350.5 239.09375 z M 752.25 325.03125 C 752.5413 325.02431 752.83368 325.03757 753.125 325.03125 C 736.73269 338.68149 719.29484 350.94421 700.90625 361.75 C 692.34751 366.409 683.91863 371.507 675 375.375 C 669.23441 377.90753 664.54556 380.33622 660.71875 382.78125 C 658.82684 366.79895 656.57224 350.85588 653.71875 335.03125 C 670.48998 333.00942 687.25841 330.86296 704.03125 328.875 C 720.06764 326.75775 736.14014 325.41507 752.25 325.03125 z M 405.71875 330 C 417.60348 331.95575 429.35656 334.69932 440.9375 338 C 441.31936 339.08959 441.94409 340.75367 442.625 343.125 C 450.82271 373.70411 451.38038 405.56981 452.0625 437.03125 C 450.74002 435.61196 449.2102 434.78223 447.5 434.6875 C 432.78755 433.9985 418.10347 433.0655 403.4375 431.6875 C 399.83581 431.38816 396.22904 431.10762 392.625 430.84375 C 396.71516 397.19996 400.60336 363.50786 405.71875 330 z M 812.65625 331.09375 C 813.62921 331.58218 814.54538 332.13437 815.4375 332.75 C 814.45775 332.23978 813.55551 331.67841 812.65625 331.09375 z M 445.53125 339.34375 C 445.96645 339.474 446.40911 339.58693 446.84375 339.71875 C 449.1637 340.7465 450.21674 341.23391 450.46875 341.375 C 450.10945 341.28055 447.27747 340.13762 445.53125 339.34375 z M 668.0625 460.96875 C 680.48566 467.91616 694.68656 470.84646 708.875 474.125 C 725.09011 478.003 741.53344 480.9625 757.3125 486.4375 C 759.4089 486.22256 762.25248 487.76204 764.53125 489.375 C 761.94396 488.29367 760.21577 503.4696 759.71875 505.25 C 754.01482 522.209 744.16031 537.1455 731.9375 550.0625 C 722.83456 558.7355 711.98508 564.62825 699.6875 567.03125 C 691.70351 567.97783 683.68003 566.81943 675.78125 565.28125 C 673.20792 533.10601 670.89366 500.89773 668.6875 468.6875 C 668.47602 466.11597 668.27265 463.54209 668.0625 460.96875 z M 764.90625 489.65625 C 768.52534 492.29937 770.47335 494.87533 765.125 489.9375 C 765.05176 489.83695 764.97828 489.73046 764.90625 489.65625 z M 453.21875 511.3125 C 453.3404 537.9457 453.26343 564.58494 453.375 591.21875 C 453.43963 595.18797 453.56153 599.15919 453.6875 603.125 C 447.20333 603.1947 440.73244 603.28531 434.25 603.5 C 412.85036 604.36866 391.48468 605.87246 370.25 608.40625 C 374.92862 578.30122 379.033 548.13219 382.78125 517.90625 C 387.1731 518.23641 391.54924 518.60979 395.9375 519 C 411.47715 520.557 427.03999 521.7055 442.625 522.6875 C 446.92745 522.92583 450.50104 518.37864 453.21875 511.3125 z "
     id="path10175" />
</svg>
