<?xml version="1.0" encoding="UTF-8" standalone="no"?>
<svg
   xmlns:dc="http://purl.org/dc/elements/1.1/"
   xmlns:cc="http://creativecommons.org/ns#"
   xmlns:rdf="http://www.w3.org/1999/02/22-rdf-syntax-ns#"
   xmlns:svg="http://www.w3.org/2000/svg"
   xmlns="http://www.w3.org/2000/svg"
   xmlns:sodipodi="http://sodipodi.sourceforge.net/DTD/sodipodi-0.dtd"
   xmlns:inkscape="http://www.inkscape.org/namespaces/inkscape"
   width="1024"
   height="1024"
   id="U9000"
   version="1.1"
   inkscape:version="0.48.0 r9654"
   sodipodi:docname="U+9000.svg">
  <metadata
     id="metadata15">
    <rdf:RDF>
      <cc:Work
         rdf:about="">
        <dc:format>image/svg+xml</dc:format>
        <dc:type
           rdf:resource="http://purl.org/dc/dcmitype/StillImage" />
      </cc:Work>
    </rdf:RDF>
  </metadata>
  <defs
     id="defs13" />
  <sodipodi:namedview
     pagecolor="#ffffff"
     bordercolor="#666666"
     borderopacity="1"
     objecttolerance="10"
     gridtolerance="10"
     guidetolerance="10"
     inkscape:pageopacity="0"
     inkscape:pageshadow="2"
     inkscape:window-width="640"
     inkscape:window-height="480"
     id="namedview11"
     showgrid="false"
     inkscape:zoom="0.27441406"
     inkscape:cx="512"
     inkscape:cy="512"
     inkscape:window-x="0"
     inkscape:window-y="25"
     inkscape:window-maximized="0"
     inkscape:current-layer="U9000" />
  <path
     style="fill:#501616;fill-opacity:1;fill-rule:nonzero;stroke:#f9f9f9;stroke-width:0.1;stroke-miterlimit:4;stroke-dasharray:none"
     d="M 540.5 189.375 C 534.82404 189.43605 529.1327 189.63663 523.4375 189.96875 C 485.8455 192.79975 448.35505 197.87375 412.65625 210.59375 C 404.68582 213.71967 407.04978 232.55259 413.65625 251.46875 C 410.4321 252.64211 408.29799 254.42755 407.71875 256.9375 C 398.62075 302.5385 394.6783 348.92875 391.0625 395.21875 C 385.7505 468.54775 386.3446 542.10825 388.8125 615.53125 C 391.1067 669.99225 395.60335 724.4435 406.96875 777.8125 C 415.03315 808.9025 429.4948 840.04825 460.375 854.28125 C 466.6066 857.15325 473.4531 858.3835 480 860.4375 C 515.6068 865.5255 550.33515 855.343 583.96875 844.75 C 610.81625 836.002 636.1442 823.6685 661 810.4375 C 677.283 801.6805 636.00175 724.9305 619.71875 733.6875 C 599.84175 744.5175 579.4825 754.4705 557.875 761.4375 C 539.0714 767.2745 520.12715 772.492 500.53125 774.75 C 500.61885 774.864 503.8675 780.575 502.375 779.875 C 495.7619 776.772 494.8019 763.705 492.0625 758.75 C 480.6435 710.826 476.8906 661.5245 474.25 612.4375 C 473.05901 581.67871 472.27808 550.87797 472.25 520.09375 C 495.36884 515.08292 518.83395 511.65011 542.28125 508.5625 C 584.76495 503.6885 627.4749 500.275 670.25 501.625 C 674.04248 501.9603 676.29675 502.1662 678.125 502.3125 C 695.06452 512.22563 712.62488 518.03675 717.15625 510.96875 C 729.75755 491.09675 723.52565 501.301 735.84375 480.375 C 754.56545 446.098 772.91915 410.8455 779.59375 371.9375 C 782.93665 331.2205 775.85615 298.39625 749.46875 266.15625 C 723.95865 238.57725 693.7857 217.668 657.625 206.25 C 619.45041 195.04562 580.23171 188.94762 540.5 189.375 z M 208.6875 215.3125 C 185.47311 215.3473 132.18299 244.48691 139.03125 258.4375 C 147.41215 274.4505 156.1455 290.266 164.8125 306.125 C 173.6749 322.445 250.6124 280.66375 241.75 264.34375 C 233.7435 249.50475 225.5416 234.7395 218.4375 219.4375 C 217.01616 216.54209 213.50558 215.30528 208.6875 215.3125 z M 542.90625 276.25 C 573.25478 276.07544 603.30667 280.58825 632.28125 289.8125 C 652.57155 296.9405 670.3407 308.23675 684.125 324.71875 C 693.1489 336.42775 694.6983 348.788 692.375 362.875 C 687.97223 380.89981 680.55509 397.93052 672.15625 414.4375 C 625.02341 413.76254 578.00576 417.36368 531.1875 422.6875 C 512.2886 425.09093 493.39833 427.7343 474.625 430.9375 C 474.78269 428.20937 474.94962 425.47746 475.125 422.75 C 502.01936 417.37766 529.04482 412.71091 556.15625 408.5625 C 579.34815 405.2435 602.76875 402.7695 626.15625 405.0625 C 644.73835 406.4015 651.05085 318.80775 632.46875 317.46875 C 602.50075 315.75675 572.62085 317.73125 542.96875 322.53125 C 523.21895 325.55957 503.53421 328.84936 483.84375 332.21875 C 486.16472 314.89023 489.09764 297.6465 493 280.59375 C 505.21589 278.69584 517.55279 277.49712 529.875 276.59375 C 534.2212 276.37725 538.57075 276.27494 542.90625 276.25 z M 151.34375 406.03125 C 133.14913 406.59599 94.653688 474.13656 109.8125 483.0625 C 120.05969 489.59306 131.48157 495.2952 141.40625 502.6875 C 140.20734 504.05612 138.83176 505.679 137.03125 507.84375 C 122.44155 524.61275 104.54435 537.9315 88.84375 553.5625 C 57.61865 593.0375 75.15245 623.24 110.53125 648.375 C 118.01965 654.789 132.9598 660.4775 134.875 670.4375 C 129.9228 680.4925 125.67605 691.95525 120.40625 702.28125 C 108.21985 724.33425 92.66095 744.229 76.84375 763.75 C 67.53495 775.838 55.1623 786.644 50.0625 801.5 C 48.1773 806.991 47.4807 812.839 46.1875 818.5 C 45.4287 856.19 71.066 878.158 99.8125 897.5 C 137.2202 920.885 177.29015 939.3895 218.09375 955.9375 C 283.08255 982.2605 352.29455 988.67625 421.65625 990.28125 C 503.38815 989.29425 584.9793 983.04725 666.4375 976.65625 C 741.7838 971.41225 816.15355 958.3785 889.65625 941.4375 C 920.95825 934.0815 951.56775 924.3145 982.09375 914.3125 C 999.42885 908.5475 972.2726 826.82875 954.9375 832.59375 C 927.0046 842.03575 898.98085 851.226 870.28125 858.125 C 800.98545 874.431 730.782 886.8185 659.6875 891.9375 C 581.1709 898.2615 502.51915 904.3425 423.71875 905.0625 C 364.78735 903.5635 305.9216 898.467 250.75 875.875 C 215.4932 861.409 180.9262 845.11125 148.6875 824.65625 C 146.70702 823.33301 145.07832 822.14893 143.59375 821.0625 C 144.24574 820.2409 144.8903 819.42416 145.53125 818.59375 C 164.83325 794.09275 183.7799 769.12375 198.625 741.59375 C 215.7937 707.10675 228.93585 671.2415 214.71875 633.0625 C 205.1808 615.02544 194.02146 601.17183 179.53125 589.25 C 188.80043 581.0692 197.89991 572.71341 205.375 562.8125 C 233.6052 527.1165 248.86185 492.13825 216.53125 452.15625 C 198.01485 434.25425 176.7512 420.06075 154.6875 406.84375 C 153.67691 406.24875 152.55672 405.9936 151.34375 406.03125 z M 147.5 507.6875 C 149.71527 509.67578 151.81672 511.77968 153.75 514.0625 C 150.04955 512.71385 148.31595 510.25979 147.5 507.6875 z M 792.46875 523.625 C 786.95639 523.66163 782.97649 525.07625 781.59375 528.3125 C 771.16425 553.1475 756.56345 575.8915 740.71875 597.5625 C 729.89985 612.2385 716.55485 623.8535 700.96875 633.0625 C 700.25593 633.51694 699.68005 634.10698 699.21875 634.8125 C 676.54658 621.5971 654.05104 608.06917 632.15625 593.59375 C 603.68715 574.00775 575.90935 553.513 549.15625 531.625 C 534.02105 520.536 481.7398 591.87975 496.875 602.96875 C 525.2104 624.36575 553.8071 645.307 583.1875 665.25 C 626.0102 693.346 670.9665 718.01225 715.125 743.90625 C 743.5023 760.86025 772.38815 777.86375 795.46875 801.84375 C 808.71055 814.93175 870.39805 752.5265 857.15625 739.4375 C 834.02157 717.24094 808.03049 698.72209 780.75 682.09375 C 792.00195 672.26409 802.32192 661.39756 811.25 648.9375 C 830.9101 621.8515 848.9365 593.5475 862.9375 563.0625 C 868.92928 549.03875 816.35565 523.46628 792.46875 523.625 z M 157 609.96875 C 155.79399 611.79575 154.26899 613.45668 152.34375 614.9375 C 153.85126 613.2345 155.4137 611.5987 157 609.96875 z M 131.875 835.65625 C 131.22696 837.12945 130.40288 838.52041 129.1875 839.6875 C 128.28087 840.55813 129.39353 838.88174 131.875 835.65625 z "
     id="path12544" />
</svg>
