<?xml version="1.0" encoding="utf-8" ?>

<!DOCTYPE svg PUBLIC "-//W3C//DTD SVG 1.1//EN" 
  "http://www.w3.org/Graphics/SVG/1.1/DTD/svg11.dtd">
<svg 
    xmlns="http://www.w3.org/2000/svg"
    xmlns:xlink="http://www.w3.org/1999/xlink"
    xmlns:sodipodi="http://sodipodi.sourceforge.net/DTD/sodipodi-0.dtd"
    xmlns:inkscape="http://www.inkscape.org/namespaces/inkscape"
    width="1024" height="1024" id="U9001">
<path d="m 9670.8432,46334.445 c 9.4684,24.695 26.3748,45.62 43.1896,65.67 11.1436,13.244 24.0718,24.679 37.099,35.986 13.8945,12.188 -43.5635,77.688 -57.458,65.499 l 0,0 c -16.2772,-14.398 -32.4385,-28.945 -46.4338,-45.658 -24.1724,-28.997 -47.5248,-59.43 -60.8887,-95.142 -5.5908,-17.923 78.9011,-44.279 84.4919,-26.355 z" id="path11248" inkscape:connector-curvature="0" style="fill:#782121;fill-opacity:1;fill-rule:nonzero;stroke:#f9f9f9;stroke-width:0.1;stroke-miterlimit:4;stroke-dasharray:none" transform="translate(-9216, -46080)"/><path d="m 10085.884,46341.314 c -26.904,22.906 -51.083,48.8 -75.422,74.355 -19.4989,20.81 -39.178,41.446 -59.1041,61.848 -12.9534,13.168 -75.0276,-47.895 -62.0742,-61.063 l 0,0 c 19.7185,-19.895 39.1468,-40.069 58.2545,-60.553 26.6799,-28.164 53.2828,-56.476 81.9518,-82.649 14.438,-11.963 70.832,56.099 56.394,68.062 z" id="path11250" inkscape:connector-curvature="0" style="fill:#782121;fill-opacity:1;fill-rule:nonzero;stroke:#f9f9f9;stroke-width:0.1;stroke-miterlimit:4;stroke-dasharray:none" transform="translate(-9216, -46080)"/><path d="m 9553.1925,46490.244 c 44.5314,-11.281 90.5663,-14.776 136.2313,-18.159 73.7378,-4.755 147.6504,-2.521 221.4235,-0.08 48.0224,1.662 96.0397,3.507 144.0327,5.862 13.932,0.685 7.555,0.385 19.13,0.912 18.69,1.292 12.597,89.396 -6.092,88.103 l 0,0 c -11.129,-1.044 -4.978,-0.494 -18.459,-1.611 -47.16,-3.562 -94.403,-5.861 -141.6542,-7.814 -70.4878,-2.693 -141.1508,-5.017 -211.5926,0.179 -38.9678,3.315 -78.4192,6.488 -116.243,16.999 -17.9012,5.68 -44.678,-78.707 -26.7767,-84.388 z" id="path11252" inkscape:connector-curvature="0" style="fill:#782121;fill-opacity:1;fill-rule:nonzero;stroke:#f9f9f9;stroke-width:0.1;stroke-miterlimit:4;stroke-dasharray:none" transform="translate(-9216, -46080)"/><path d="m 9561.1135,46709.796 c 44.5582,-16.831 92.3944,-21.645 139.4152,-26.601 77.2532,-6.533 154.7913,-8.766 232.2637,-10.993 51.5663,-1.24 103.1426,-2.003 154.7236,-1.929 18.589,0.357 16.908,87.985 -1.681,87.628 l 0,0 c -50.234,-1.894 -100.5137,-1.378 -150.7674,-0.562 -75.097,1.854 -150.2724,4.032 -225.0893,11.154 -37.7019,4.399 -76.3314,8.2 -112.07,21.792 -17.0742,7.805 -53.869,-72.684 -36.7948,-80.489 z" id="path11254" inkscape:connector-curvature="0" style="fill:#782121;fill-opacity:1;fill-rule:nonzero;stroke:#f9f9f9;stroke-width:0.1;stroke-miterlimit:4;stroke-dasharray:none" transform="translate(-9216, -46080)"/><path d="m 9947.8528,46573.951 c -22.0089,35.136 -42.5132,71.182 -63.7307,106.797 -35.5211,59.805 -75.2141,116.947 -117.0371,172.478 -19.1461,30.831 -50.4154,55.513 -68.3646,86.983 -10.459,15.521 -83.6271,-33.783 -73.1681,-49.304 l 0,0 c 22.5292,-31.31 50.3729,-58.464 73.2074,-89.579 40.2506,-52.512 78.01,-106.925 111.2172,-164.208 20.9344,-36.032 41.2939,-72.389 61.9668,-108.571 9.6316,-16.103 85.5407,29.301 75.9091,45.404 z" id="path11262" inkscape:connector-curvature="0" style="fill:#782121;fill-opacity:1;fill-rule:nonzero;stroke:#f9f9f9;stroke-width:0.1;stroke-miterlimit:4;stroke-dasharray:none" transform="translate(-9216, -46080)"/><path d="m 9904.3306,46800.091 c 17.9114,23.049 42.6909,39.18 66.946,54.773 32.6894,20.215 67.2574,37.102 100.1504,56.959 15.806,9.799 -30.386,84.31 -46.193,74.511 l 0,0 c -32.728,-20.966 -67.9351,-37.705 -100.8548,-58.377 -33.0915,-21.197 -65.8503,-43.754 -90.7185,-74.689 -11.2806,-14.991 59.3893,-68.169 70.6699,-53.177 z" id="path11264" inkscape:connector-curvature="0" style="fill:#782121;fill-opacity:1;fill-rule:nonzero;stroke:#f9f9f9;stroke-width:0.1;stroke-miterlimit:4;stroke-dasharray:none" transform="translate(-9216, -46080)"/><path d="m 9377.6112,46379.067 c 2.1431,17.011 8.3841,33.079 14.91,48.804 7.0593,17.195 -73.9982,50.473 -81.0575,33.278 l 0,0 c -9.3529,-22.963 -17.9027,-46.375 -21.6757,-71.005 -2.3498,-18.63 85.4735,-29.707 87.8232,-11.077 z" id="path11270" inkscape:connector-curvature="0" style="fill:#782121;fill-opacity:1;fill-rule:nonzero;stroke:#f9f9f9;stroke-width:0.1;stroke-miterlimit:4;stroke-dasharray:none" transform="translate(-9216, -46080)"/><path d="m 9274.1125,46536.2 c 24.8702,1.993 49.8237,2.608 74.7316,3.999 25.4621,0.79 50.0624,4.347 73.2653,15.002 39.4934,27.297 34.3216,60.898 6.5678,93.644 -18.1922,18.482 -36.0664,37.235 -53.0579,56.833 -3.359,6.192 -12.0553,11.196 -13.9315,18.488 -0.132,0.513 1.0471,-0.489 1.2538,-0.977 1.2472,-2.943 2.6998,-5.922 3.0176,-9.102 0.4213,-4.216 -0.5604,-8.455 -0.8406,-12.682 -8.9601,-15.761 4.8916,-3.086 9.8877,-0.01 18.5156,11.391 3.1926,1.792 23.3088,14.508 28.8585,17.639 50.9699,37.42 66.6693,67.528 13.297,38.916 -4.3876,70.253 -30.2309,98.202 -20.9211,20.873 -45.4612,37.465 -69.8346,53.958 -15.5405,10.146 -30.129,21.615 -44.7958,32.956 -15.7168,11.906 -2.2074,3.578 0.4193,-3.116 2.9909,-7.623 5.8892,-15.787 5.4135,-23.961 -0.4314,-7.414 -5.3448,-13.858 -8.0172,-20.787 -16.4495,-13.077 3.9047,-3.709 8.7966,-2.432 11.6576,3.043 14.5086,3.493 26.8956,6.142 54.8442,10.156 110.6821,13.249 166.2399,16.972 91.9684,5.661 183.9352,11.356 275.9152,16.829 89.6764,6.23 179.5237,7.452 269.37,6.247 38.742,-0.756 77.479,-1.717 116.217,-2.657 18.099,-0.367 19.83,84.953 1.731,85.32 l 0,0 c -38.981,0.637 -77.962,1.325 -116.944,1.971 -91.8568,0.952 -183.7097,-0.457 -275.383,-6.905 -92.0416,-5.504 -184.0781,-11.1 -276.1623,-15.856 -59.6697,-3.392 -119.6182,-6.109 -178.6057,-16.321 -30.2974,-6.032 -62.0836,-10.689 -85.8551,-32.016 -4.1386,-8.664 -11.101,-16.48 -12.4157,-25.991 -3.4331,-24.835 10.8725,-41.319 28.9205,-53.858 16.1807,-12.06 32.2777,-24.252 49.2022,-35.268 19.0095,-12.777 38.223,-25.53 54.8191,-41.433 12.1933,-12.567 7.0459,-12.716 13.9827,-1.568 -3.0446,-12.092 -22.5003,-21.842 -32.9977,-29.741 -25.9982,-16.239 -54.8629,-29.079 -69.4952,-57.735 -1.5477,-7.621 -4.4481,-15.089 -4.6431,-22.864 -0.6209,-24.751 17.0243,-44.247 32.0544,-61.571 16.9821,-19.282 34.4194,-38.143 52.2089,-56.683 0.9051,-1.003 1.4322,-2.586 2.7155,-3.009 0.7809,-0.257 -0.5744,1.549 -0.7311,2.356 -0.7283,3.751 -2.2274,7.491 -1.9206,11.3 1.1059,13.729 6.3134,25.469 18.9884,31.583 7.6542,0.723 -24.7742,-4.792 -24.9741,-4.81 -4.0163,-0.365 -8.0413,-0.627 -12.0619,-0.941 -25.8381,-1.534 -51.7092,-2.225 -77.5656,-3.377 -18.7027,-1.67 -10.8308,-89.835 7.8719,-88.165 z" id="path11276" inkscape:connector-curvature="0" style="fill:#782121;fill-opacity:1;fill-rule:nonzero;stroke:#f9f9f9;stroke-width:0.1;stroke-miterlimit:4;stroke-dasharray:none" transform="translate(-9216, -46080)"/></svg>