<?xml version="1.0" encoding="UTF-8" standalone="no"?>
<svg
   xmlns:dc="http://purl.org/dc/elements/1.1/"
   xmlns:cc="http://creativecommons.org/ns#"
   xmlns:rdf="http://www.w3.org/1999/02/22-rdf-syntax-ns#"
   xmlns:svg="http://www.w3.org/2000/svg"
   xmlns="http://www.w3.org/2000/svg"
   xmlns:sodipodi="http://sodipodi.sourceforge.net/DTD/sodipodi-0.dtd"
   xmlns:inkscape="http://www.inkscape.org/namespaces/inkscape"
   width="1024"
   height="1024"
   id="U9002"
   version="1.1"
   inkscape:version="0.48.0 r9654"
   sodipodi:docname="U+9002.svg">
  <metadata
     id="metadata15">
    <rdf:RDF>
      <cc:Work
         rdf:about="">
        <dc:format>image/svg+xml</dc:format>
        <dc:type
           rdf:resource="http://purl.org/dc/dcmitype/StillImage" />
      </cc:Work>
    </rdf:RDF>
  </metadata>
  <defs
     id="defs13" />
  <sodipodi:namedview
     pagecolor="#ffffff"
     bordercolor="#666666"
     borderopacity="1"
     objecttolerance="10"
     gridtolerance="10"
     guidetolerance="10"
     inkscape:pageopacity="0"
     inkscape:pageshadow="2"
     inkscape:window-width="640"
     inkscape:window-height="480"
     id="namedview11"
     showgrid="false"
     inkscape:zoom="0.27441406"
     inkscape:cx="512"
     inkscape:cy="512"
     inkscape:window-x="0"
     inkscape:window-y="25"
     inkscape:window-maximized="0"
     inkscape:current-layer="U9002" />
  <path
     style="fill:#782121;fill-opacity:1;fill-rule:nonzero;stroke:#f9f9f9;stroke-width:0.1;stroke-miterlimit:4;stroke-dasharray:none"
     d="M 706.71875 75.78125 C 700.47749 75.863826 695.99125 77.429672 694.65625 81 C 683.94055 106.644 663.24365 125.95725 643.09375 144.28125 C 606.98785 174.81625 566.87625 200.10675 526.84375 225.09375 C 504.32595 237.84875 482.9165 253.38225 458.8125 263.15625 C 455.2127 264.26825 451.7677 265.763 448.3125 267.25 C 431.1833 275.11 468.21455 355.86 485.34375 348 C 487.64225 346.961 493.47855 344.30825 495.28125 343.65625 C 520.15643 331.7512 543.41775 316.84705 566.84375 302.34375 C 566.53869 312.74289 566.17632 323.13652 565.75 333.53125 C 564.56711 358.02154 562.50109 382.45293 560.09375 406.84375 C 531.63699 409.09221 503.16276 411.08286 474.65625 412.6875 C 430.31165 415.2655 385.9314 417.8155 341.5 418.0625 C 322.7549 418.4725 324.6924 506.8485 343.4375 506.4375 C 389.0211 504.3355 434.5385 501.45775 480.0625 498.34375 C 503.72547 496.78235 527.39361 495.0289 551.03125 493.15625 C 548.98793 512.52776 548.44805 532.04045 547.125 551.46875 C 516.63746 553.1274 486.24253 555.98596 456.1875 561.6875 C 446.96835 563.54487 446.77861 586.27691 451.1875 608 C 425.02739 609.06381 380.6117 625.97972 384.5 639.15625 C 392.9764 668.88425 398.18485 699.45125 404.65625 729.65625 C 410.11735 753.90725 415.8149 778.15825 424 801.65625 C 427.09995 809.54135 426.19869 807.59766 429.0625 813.09375 C 431.57307 834.50527 438.43187 854.94118 447.53125 853.96875 C 484.01225 847.97775 520.8129 845.20175 557.75 844.96875 C 596.713 845.33175 634.76465 853.84225 672.53125 862.53125 C 688.59105 866.35325 704.6099 870.323 720.25 875.625 C 734.23906 880.06743 753.68556 829.22252 752.75 804.46875 C 768.64617 809.91726 783.10483 811.49056 786.15625 804.71875 C 790.23575 794.65875 793.53915 784.45875 794.71875 773.59375 C 798.95075 748.64775 803.34555 723.6985 809.15625 699.0625 C 815.18865 674.5215 822.96515 650.565 829.78125 626.25 C 836.60855 588.768 820.5792 563.25925 782.625 557.90625 C 758.861 555.82025 734.94055 556.11075 711.15625 554.21875 C 685.82335 552.88349 660.48562 551.58736 635.125 550.8125 C 635.75194 532.85391 636.22586 514.87158 637.875 496.96875 C 638.21171 493.2074 638.55343 489.44747 638.90625 485.6875 C 658.53624 483.9141 678.15835 482.07311 697.78125 480.21875 C 749.42855 474.77275 801.22225 471.391 853.15625 472.5 C 868.82507 474.40616 885.51152 472.65011 901.09375 476 C 918.9846 476.07715 946.35165 398.15922 929.25 392 C 926.1871 391.168 923.1255 390.333 920.0625 389.5 C 898.2637 386.281 876.1764 386.01325 854.1875 385.40625 C 799.1589 385.24725 744.28085 389.1055 689.59375 395.1875 C 675.53781 396.56365 661.46755 397.93068 647.40625 399.25 C 649.31822 378.66583 651.01087 358.08646 652.15625 337.4375 C 653.67541 306.37422 654.68313 275.27871 655.125 244.1875 C 670.98245 232.85736 686.49274 221.05192 701.40625 208.46875 C 732.00865 180.69075 761.31365 150.74475 777.53125 111.96875 C 782.76855 97.962078 731.20371 75.457299 706.71875 75.78125 z M 901.09375 476 C 901.00063 475.9996 900.9051 476.00465 900.8125 476 C 902.12591 476.28353 903.43661 476.59117 904.75 476.875 C 903.53966 476.54406 902.31862 476.26332 901.09375 476 z M 181.6875 176.03125 C 162.30328 175.36366 110.65603 226.46756 122.34375 238.8125 C 140.56395 256.0515 156.75485 275.10875 171.34375 295.46875 C 179.59245 308.18075 175.5358 301.79725 183.5 314.65625 C 193.3921 330.44325 267.8297 283.787 257.9375 268 C 248.1008 252.454 253.2411 260.421 242.375 244.125 C 225.3644 220.733 206.7448 198.737 186.5625 178 C 185.35343 176.72303 183.69276 176.10031 181.6875 176.03125 z M 899.125 475.65625 C 899.6074 475.82999 900.09426 475.92474 900.59375 475.96875 C 900.10479 475.86319 899.61395 475.76191 899.125 475.65625 z M 188.78125 476.9375 C 184.73361 476.9213 180.74404 477.01606 176.90625 477.125 C 153.06625 477.9 129.23015 478.694 105.40625 479.875 C 86.70355 481.359 93.70355 569.51525 112.40625 568.03125 C 119.37744 567.39827 126.35465 566.92995 133.34375 566.5625 C 122.95402 578.56075 112.87962 590.8153 104.15625 604.15625 C 87.60805 633.33625 89.3879 662.547 119.9375 683 C 124.2487 685.886 129.58395 686.80475 134.40625 688.71875 C 152.54905 692.80975 170.07645 698.06325 186.21875 707.40625 C 191.03325 711.32025 200.9874 716.18275 199.6875 723.46875 C 195.8142 718.91375 186.9173 734.41875 184.3125 737.21875 C 165.7545 755.68675 143.8653 770.28825 122.875 785.78125 C 108.4793 797.62525 93.045 807.9505 77.1875 817.6875 C 66.5747 824.3215 55.98615 830.9545 46.53125 839.1875 C 19.47695 865.9075 35.88485 880.5615 58.71875 915.3125 C 61.58165 919.6695 78.99315 920.34975 84.28125 920.96875 C 107.39975 923.93075 130.30145 928.3345 153.28125 932.1875 C 204.31075 941.2175 255.8895 946.2465 307.4375 951.1875 C 369.6109 956.1685 431.4651 964.00725 493.125 973.28125 C 556.6132 984.03825 620.69995 989.51025 684.96875 992.40625 C 742.04595 994.31425 799.19035 993.62525 856.28125 992.78125 C 889.98225 992.08325 873.35775 992.501 906.09375 991.625 C 924.46115 991.077 921.89875 904.48325 903.53125 905.03125 C 871.56575 906.08925 887.77385 905.61775 854.84375 906.46875 C 799.47105 907.49175 744.0549 908.156 688.6875 906.5 C 627.4322 903.966 566.3625 898.82775 505.875 888.46875 C 442.7633 878.98875 379.45515 870.94275 315.84375 865.59375 C 271.98134 861.17722 228.08418 856.67629 184.625 849.1875 C 207.33195 832.4194 230.41212 815.99346 249.9375 795.46875 C 274.0475 767.69575 292.43295 737.2125 284.46875 698.9375 C 274.42295 669.0465 256.5241 646.17875 228.75 630.46875 C 220.80996 626.18204 212.75395 622.25407 204.53125 618.71875 C 209.11163 613.71702 213.66846 608.69038 217.78125 603.375 C 232.15945 585.633 253.1264 563.78125 255.25 539.78125 C 256.0156 531.12825 253.5398 522.48875 252.6875 513.84375 C 247.7477 506.59475 244.074 498.29975 237.875 492.09375 C 225.02824 479.23269 206.32101 477.00771 188.78125 476.9375 z M 190.03125 565.125 C 196.8242 565.45143 194.54836 566.37419 190.03125 565.125 z M 593.4375 636.78125 C 631.04761 636.69899 668.62943 638.83288 706.15625 641.1875 C 715.18471 642.22359 724.26838 642.65654 733.375 643.03125 C 730.13954 654.77281 727.01087 666.55017 724.15625 678.40625 C 718.04535 704.74125 713.0516 731.333 707.9375 757.875 C 709.2129 757.598 704.66235 772.17425 705.28125 768.28125 C 703.51957 772.19059 706.4102 777.10613 711.9375 782.15625 C 705.21751 780.50385 698.47748 778.94386 691.71875 777.4375 C 647.42985 767.6435 602.779 758.475 557.1875 758.375 C 539.07998 758.4941 521.00759 759.0827 502.96875 760.15625 C 497.6521 744.13149 494.11889 727.50019 489.96875 711.1875 C 485.34104 690.04734 481.32391 668.77024 476.875 647.59375 C 509.84876 640.26633 543.64924 638.24499 577.3125 636.96875 C 582.6866 636.86125 588.06463 636.793 593.4375 636.78125 z M 182.0625 645.9375 C 181.57993 648.6802 180.41817 650.43115 179.03125 650.96875 C 179.9876 649.2471 180.99919 647.58354 182.0625 645.9375 z "
     id="path10614" />
</svg>
