<?xml version="1.0" encoding="UTF-8" standalone="no"?>
<svg
   xmlns:dc="http://purl.org/dc/elements/1.1/"
   xmlns:cc="http://creativecommons.org/ns#"
   xmlns:rdf="http://www.w3.org/1999/02/22-rdf-syntax-ns#"
   xmlns:svg="http://www.w3.org/2000/svg"
   xmlns="http://www.w3.org/2000/svg"
   xmlns:sodipodi="http://sodipodi.sourceforge.net/DTD/sodipodi-0.dtd"
   xmlns:inkscape="http://www.inkscape.org/namespaces/inkscape"
   width="1024"
   height="1024"
   id="U9178"
   version="1.1"
   inkscape:version="0.48.0 r9654"
   sodipodi:docname="U+9178.svg">
  <metadata
     id="metadata21">
    <rdf:RDF>
      <cc:Work
         rdf:about="">
        <dc:format>image/svg+xml</dc:format>
        <dc:type
           rdf:resource="http://purl.org/dc/dcmitype/StillImage" />
      </cc:Work>
    </rdf:RDF>
  </metadata>
  <defs
     id="defs19" />
  <sodipodi:namedview
     pagecolor="#ffffff"
     bordercolor="#666666"
     borderopacity="1"
     objecttolerance="10"
     gridtolerance="10"
     guidetolerance="10"
     inkscape:pageopacity="0"
     inkscape:pageshadow="2"
     inkscape:window-width="640"
     inkscape:window-height="480"
     id="namedview17"
     showgrid="false"
     inkscape:zoom="0.27441406"
     inkscape:cx="512"
     inkscape:cy="512"
     inkscape:window-x="0"
     inkscape:window-y="25"
     inkscape:window-maximized="0"
     inkscape:current-layer="U9178" />
  <path
     style="fill:#782121;fill-opacity:1;fill-rule:nonzero;stroke:#f9f9f9;stroke-width:0.1;stroke-miterlimit:4;stroke-dasharray:none"
     d="M 686.71875 61.6875 C 685.13263 61.772112 683.74822 62.270938 682.65625 63.25 C 656.49345 87.797 633.4316 115.25275 611.375 143.46875 C 588.9783 172.66275 569.3233 203.79275 548.875 234.34375 C 530.6999 260.05675 517.8941 288.4235 542.25 317.6875 C 548.4898 325.1845 559.25 327.24725 567.75 332.03125 C 601.7883 337.55625 636.3611 330.81475 670.125 325.96875 C 704.4113 320.70775 738.8927 317.29575 773.5625 316.34375 C 784.1445 316.00175 794.71135 316.3635 805.28125 316.8125 C 818.82976 317.1887 823.82265 271.0201 818.4375 245.375 C 820.75185 248.91534 823.07076 252.44151 825.40625 255.96875 C 836.53775 272.60175 847.40655 289.40375 857.65625 306.59375 C 867.28605 322.50675 942.28605 277.1005 932.65625 261.1875 C 921.57575 243.1055 910.0276 225.346 898.1875 207.75 C 881.7959 183.029 865.8383 157.98375 852 131.71875 C 842.7098 115.42575 765.8973 159.23725 775.1875 175.53125 C 785.62102 193.51682 796.49823 211.20572 807.6875 228.71875 C 795.32081 228.527 782.95604 228.36571 770.59375 228.90625 C 732.87875 230.38625 695.3387 234.059 658 239.625 C 655.02454 240.03191 652.0685 240.43877 649.09375 240.84375 C 658.90395 225.94104 668.99197 211.24074 679.84375 197.0625 C 698.75315 172.9325 718.531 149.282 741.75 129.125 C 754.63523 117.57206 705.43494 60.689084 686.71875 61.6875 z M 342.5 161.0625 C 296.15 162.4325 250.2653 169.321 204.625 177.25 C 165.6127 183.902 126.6226 190.775 87.5 196.75 C 69.0113 199.854 83.66745 287.0415 102.15625 283.9375 C 125.05267 279.465 147.97882 275.2004 170.9375 271.0625 C 169.1586 313.82687 166.6068 356.54796 163.625 399.25 C 162.93922 408.40381 162.25535 417.56553 161.5625 426.71875 C 145.06379 430.14622 128.57712 433.97796 112.5 438.90625 C 87.746969 429.39908 44.195248 426.1099 42.03125 439.09375 C 37.14475 486.30675 37.54875 533.93375 37.78125 581.34375 C 37.27975 642.66775 43.95715 703.49575 54.96875 763.71875 C 60.80875 792.01275 57.75575 778.41975 64.03125 804.59375 C 65.355805 809.87285 73.621934 811.73089 84.5 811.3125 C 76.610149 829.49541 101.48324 896.27733 117.40625 890.78125 C 156.48975 877.72825 196.95685 869.32425 237.15625 860.53125 C 297.64175 847.40425 358.0291 833.818 418.5 820.625 C 449.2427 813.791 479.9876 807.04675 510.8125 800.59375 C 521.3892 798.28539 519.37826 768.14128 512.28125 744.34375 C 529.88542 745.28232 545.28087 742.7251 546.28125 735.09375 C 546.75699 730.85871 547.1743 726.62003 547.53125 722.375 C 557.10997 729.87412 577.04026 736.52966 594.65625 739.21875 C 624.54595 766.69846 651.48178 797.06646 678.25 827.53125 C 678.31637 827.61166 678.37109 827.70089 678.4375 827.78125 C 663.90201 838.62624 648.95496 848.95525 633.53125 858.625 C 610.23885 872.852 585.5403 884.05725 558.8125 889.65625 C 540.7392 893.87825 560.64545 979.098 578.71875 974.875 C 614.66005 965.953 648.49265 951.72725 679.84375 931.78125 C 700.43771 918.63967 720.38384 904.61823 739.6875 889.78125 C 760.3395 907.24693 782.4527 923.00142 806 936.96875 C 839.1477 955.25975 875.2831 965.46825 912.375 971.65625 C 930.697 974.52125 944.197 888.14625 925.875 885.28125 C 899.3587 881.54325 873.54305 874.4875 849.65625 862.0625 C 834.46324 853.40883 820.13679 843.69589 806.5625 833.0625 C 842.37903 800.93968 878.26054 768.67384 910.75 733.125 C 926.8799 714.565 954.2618 684.7075 955.25 658.5625 C 955.5987 649.3345 953.0497 640.2295 951.9375 631.0625 C 945.8503 623.4745 940.92895 614.7725 933.65625 608.3125 C 917.22895 593.7195 889.97965 597.314 870.09375 595.375 C 829.41855 595.037 788.83115 598.02875 748.90625 606.21875 C 723.54917 611.45082 698.3794 617.42732 673.6875 625.09375 C 676.99758 618.24384 680.36336 611.42532 683.84375 604.65625 C 694.90265 583.34925 705.30245 560.53675 722.46875 543.34375 C 736.75385 531.14875 679.25385 463.805 664.96875 476 C 638.67065 500.623 622.60505 533.20375 606.46875 564.84375 C 588.22505 600.90675 572.12385 637.985 555.65625 674.875 C 553.34048 679.72691 551.26595 684.66737 549.375 689.65625 C 550.01679 671.09146 550.13786 652.478 550.59375 633.9375 C 550.42939 600.57147 550.01016 566.9529 545.4375 533.875 C 567.92273 544.31259 596.75284 550.61393 600.625 540.59375 C 607.0742 522.16275 616.6153 505.06125 625.125 487.53125 C 639.7999 457.65825 653.85735 427.42075 669.84375 398.21875 C 678.82835 381.74675 601.20325 339.403 592.21875 355.875 C 576.85745 386.814 562.27325 418.127 547.03125 449.125 C 541.89656 459.12275 536.78218 469.14312 531.90625 479.25 C 520.55137 450.55075 503.74799 426.13925 472.84375 413.125 C 448.27586 404.79675 423.00707 400.93131 397.4375 400 C 398.36749 375.04941 399.8108 350.11725 403.25 325.40625 C 406.2185 306.88825 318.93725 292.88825 315.96875 311.40625 C 312.64938 342.3516 311.49314 373.47837 310.6875 404.59375 C 289.89968 406.62617 269.15955 409.05376 248.46875 411.90625 C 248.63994 409.77122 248.79691 407.63497 248.96875 405.5 C 252.79116 355.66388 255.90186 305.77797 259.59375 255.9375 C 287.58534 251.71928 315.73078 248.49156 344.0625 248.4375 C 347.1519 248.7425 350.223 249.03975 353.3125 249.34375 C 371.8955 250.51675 377.42675 162.922 358.84375 161.75 L 342.5 161.0625 z M 617.125 290.15625 C 616.39084 298.52034 610.6569 301.09764 617.125 290.15625 z M 868.28125 359.0625 C 849.55714 358.76074 802.54994 417.41178 815.84375 428.46875 C 836.20325 444.62675 855.99815 461.464 875.40625 478.75 C 883.29425 485.588 890.5862 493.0535 897.6875 500.6875 C 910.5662 514.2085 974.28485 453.49075 961.40625 439.96875 C 952.43695 430.70975 943.36595 421.58325 933.59375 413.15625 C 913.41585 395.33425 892.7745 378.03475 872.375 360.46875 C 871.24841 359.5318 869.86804 359.08807 868.28125 359.0625 z M 395.375 486.90625 C 411.6457 487.30303 427.81279 489.19956 442.71875 495.65625 C 450.22685 502.85425 452.4893 515.66575 455.3125 525.34375 C 463.2449 561.08475 463.65605 597.8755 463.78125 634.3125 C 462.28276 663.78657 463.77728 693.85931 459.03125 723.09375 C 439.33788 727.60423 419.64181 732.1305 399.9375 736.59375 C 339.6821 750.03975 279.488 763.67575 219.0625 776.34375 C 193.94195 781.65319 168.7851 786.93858 143.78125 792.8125 C 147.51353 789.70986 149.4411 786.47183 148.65625 783.34375 C 142.72975 760.90975 145.64715 772.807 140.03125 747.625 C 129.25925 692.757 122.8565 637.24675 123.6875 581.21875 C 123.72561 563.31213 123.73441 545.32561 124.125 527.375 C 134.09147 523.29904 144.35366 519.98584 154.78125 517.1875 C 152.96492 542.15757 151.22152 567.13914 149.625 592.125 C 148.5378 619.604 148.7547 606.5515 148.875 631.1875 C 149.3218 649.7505 236.8218 647.65675 236.375 629.09375 C 235.41 609.75675 235.6804 620.48925 236 596.90625 C 237.51317 564.5689 239.51487 532.2582 241.78125 499.96875 C 264.10074 496.52734 286.50434 493.6754 308.96875 491.40625 C 309.31189 523.2505 311.66226 554.9588 318.21875 586.3125 C 322.83809 603.4676 329.37462 617.56131 338.28125 629.3125 C 309.03458 630.49726 280.12424 634.71185 251.78125 642.28125 C 224.34625 648.80525 196.9587 655.5145 169.5 661.9375 C 151.3521 666.6975 173.7897 752.26 191.9375 747.5 C 218.533 740.243 245.3267 733.74125 272.125 727.28125 C 295.8667 720.91925 320.09515 717.25875 344.65625 717.09375 L 350.875 717.5625 C 363.05758 718.08405 368.89849 680.81533 366.3125 654.59375 C 373.08772 658.83451 380.60056 662.63279 388.875 666.0625 C 402.5036 670.7945 416.77255 672.768 431.03125 674.375 C 449.69795 676.277 458.6667 588.278 440 586.375 C 433.3764 585.812 426.7467 585.19075 420.25 583.71875 C 410.4981 581.44075 406.4409 578.30975 403.4375 567.21875 C 396.90937 540.8809 395.4004 513.92559 395.375 486.90625 z M 838.21875 683.03125 C 809.96945 713.67454 778.9586 741.67569 748 769.53125 C 746.92214 770.5298 745.83177 771.50642 744.75 772.5 C 744.25376 771.90257 743.74364 771.31915 743.25 770.71875 C 725.95101 750.84373 708.50535 731.09242 690.59375 711.78125 C 715.22787 702.78623 740.77239 696.55815 766.46875 691.25 C 790.17117 686.38614 814.1375 683.81638 838.21875 683.03125 z "
     id="path11430" />
</svg>
