<?xml version="1.0" encoding="UTF-8" standalone="no"?>
<svg
   xmlns:dc="http://purl.org/dc/elements/1.1/"
   xmlns:cc="http://creativecommons.org/ns#"
   xmlns:rdf="http://www.w3.org/1999/02/22-rdf-syntax-ns#"
   xmlns:svg="http://www.w3.org/2000/svg"
   xmlns="http://www.w3.org/2000/svg"
   xmlns:sodipodi="http://sodipodi.sourceforge.net/DTD/sodipodi-0.dtd"
   xmlns:inkscape="http://www.inkscape.org/namespaces/inkscape"
   width="1024"
   height="1024"
   id="U94F6"
   version="1.1"
   inkscape:version="0.48.0 r9654"
   sodipodi:docname="U+94F6.svg">
  <metadata
     id="metadata18">
    <rdf:RDF>
      <cc:Work
         rdf:about="">
        <dc:format>image/svg+xml</dc:format>
        <dc:type
           rdf:resource="http://purl.org/dc/dcmitype/StillImage" />
      </cc:Work>
    </rdf:RDF>
  </metadata>
  <defs
     id="defs16" />
  <sodipodi:namedview
     pagecolor="#ffffff"
     bordercolor="#666666"
     borderopacity="1"
     objecttolerance="10"
     gridtolerance="10"
     guidetolerance="10"
     inkscape:pageopacity="0"
     inkscape:pageshadow="2"
     inkscape:window-width="640"
     inkscape:window-height="480"
     id="namedview14"
     showgrid="false"
     inkscape:zoom="0.27441406"
     inkscape:cx="512"
     inkscape:cy="512"
     inkscape:window-x="0"
     inkscape:window-y="25"
     inkscape:window-maximized="0"
     inkscape:current-layer="U94F6" />
  <path
     style="fill:#2b1100;fill-opacity:1;fill-rule:nonzero;stroke:none"
     d="M 684.4375 176.1875 C 664.27006 176.42288 644.0979 178.06 624.03125 181.3125 C 591.50925 186.2545 559.05685 191.81275 527.28125 200.46875 C 519.63323 202.84672 520.04026 219.60524 524.40625 237.59375 C 501.76455 237.18502 478.50662 241.69936 478.4375 251.3125 C 480.0601 293.7315 481.79695 336.1105 482.21875 378.5625 C 481.86325 436.52189 481.1067 494.47809 481.40625 552.4375 C 466.1631 551.90079 450.77141 553.1607 435.375 554.875 C 411.256 557.72846 387.2379 561.24606 363.34375 565.46875 C 364.51758 548.63523 365.38133 531.7832 365.5625 514.90625 C 384.70633 510.77672 404.09313 507.73584 423.625 506.15625 C 425.6936 506.13625 427.7439 506.12375 429.8125 506.09375 C 448.5108 505.32575 444.8859 417.1695 426.1875 417.9375 C 422.5546 418.1435 418.9455 418.3555 415.3125 418.5625 C 384.0569 421.8545 353.07365 427.45025 322.65625 435.40625 C 291.72695 443.50825 260.84565 451.88875 230.53125 462.09375 C 213.01925 468.82875 244.76925 551.39225 262.28125 544.65625 C 267.3212 542.77289 272.4042 540.96777 277.5 539.25 C 277.05807 554.30042 276.03823 569.32496 274.84375 584.34375 C 244.32925 591.36589 213.51045 598.4191 182.15625 599 C 163.44265 597.674 157.19275 685.89275 175.90625 687.21875 C 206.88904 686.97137 237.3791 681.43671 267.59375 674.71875 C 265.98324 699.38839 264.75687 724.09196 264.03125 748.8125 C 263.15375 784.2295 265.95945 819.562 271.59375 854.5 C 277.42055 887.893 285.8701 905.92425 313.5625 926.40625 C 340.0598 940.49325 366.97235 935.4765 393.78125 925.9375 C 405.29485 921.5645 416.2619 915.95375 427 909.96875 C 443.3118 900.69075 399.5618 823.7845 383.25 833.0625 C 376.9163 836.7825 370.4703 840.31725 363.625 843.03125 C 361.6707 843.77551 360.05759 844.25005 358.625 844.65625 C 358.29536 843.08883 358.1326 841.46449 358.21875 839.8125 C 352.93945 810.5515 350.39515 780.875 350.84375 751.125 C 351.60083 718.94477 353.30256 686.80311 355.78125 654.71875 C 385.30309 648.92552 415.07432 644.45919 445.03125 641.34375 C 457.67065 640.40375 470.35475 639.52125 483.03125 640.28125 C 483.19889 640.29126 483.51809 640.32708 483.71875 640.34375 C 485.08304 667.11549 487.0288 693.86764 489.59375 720.5625 C 492.56955 752.2955 496.3993 783.8385 507.1875 813.9375 C 517.6731 839.9485 535.95515 857.301 561.21875 868.5 C 587.05715 877.069 612.66105 871.583 637.71875 863.5 C 655.10065 857.365 671.80835 849.5205 688.53125 841.8125 C 690.99645 840.6485 693.44115 839.4765 695.90625 838.3125 C 712.83385 830.2905 675.02135 750.50925 658.09375 758.53125 C 655.89415 759.57725 653.6995 760.61025 651.5 761.65625 C 637.8635 767.96725 624.2772 774.46875 610.1875 779.71875 C 607.1315 780.75475 592.6559 783.4615 593.25 786.0625 C 597.8373 791.3995 589.37275 785.432 589.46875 782.5 C 579.59335 760.488 580.16825 735.1835 576.09375 711.8125 C 573.31123 685.77639 571.22443 659.6617 569.78125 633.53125 C 587.41889 662.20244 610.53043 686.60816 635.21875 709.3125 C 667.54885 737.2955 705.89845 756.60525 743.59375 776.15625 C 776.81825 792.97625 809.6461 810.4975 841.1875 830.3125 C 862.7266 843.9395 882.88165 859.5845 901.96875 876.4375 C 916.10995 888.6455 973.6412 821.98825 959.5 809.78125 C 936.6264 790.40725 912.79875 772.14 887.34375 756.25 C 862.33901 740.77204 836.67826 726.44444 810.65625 712.78125 C 829.1809 696.65497 845.67604 678.35583 860.375 658.34375 C 877.0579 636.65175 893.11905 614.31225 912.09375 594.53125 C 925.28745 581.16425 862.28735 518.97675 849.09375 532.34375 C 828.23725 555.37475 809.9877 580.57275 791.125 605.21875 C 775.0496 626.28875 757.52225 646.581 734.90625 660.75 C 732.17999 662.56521 731.44135 666.34645 732.15625 671.25 C 718.88353 663.422 706.05662 654.91161 694.15625 645.03125 C 675.29615 627.81325 657.3185 609.394 644.8125 586.875 C 637.37069 573.10747 582.01561 600.06138 569.03125 618.96875 C 568.18675 600.6189 567.66305 582.25417 567.4375 563.875 C 567.3815 558.94525 567.35018 554.0233 567.3125 549.09375 C 577.17219 547.74582 586.07269 546.05461 592.3125 544.96875 C 633.5827 536.50175 675.07745 529.34275 716.84375 523.84375 C 747.25595 520.38475 777.7855 518.05575 808.375 516.96875 C 816.7298 516.78675 813.02385 516.83125 819.59375 516.78125 C 826.23995 516.47992 830.01682 505.19299 831.3125 490.78125 C 845.62853 493.13052 857.55613 492.30783 859.5 485.9375 C 865.9967 463.6015 870.0006 440.6955 874.0625 417.8125 C 879.8089 382.7395 885.0133 347.271 883.0625 311.625 C 878.7216 275.462 867.31605 242.7235 838.65625 218.4375 C 810.88445 197.3715 779.79835 183.73075 744.90625 179.46875 C 724.77035 177.12675 704.60494 175.95212 684.4375 176.1875 z M 187.59375 185.75 C 182.08181 185.87983 178.10928 187.36531 176.78125 190.625 C 162.16795 233.82 154.1853 278.90525 146 323.65625 C 136.8182 375.53825 129.6213 427.765 125 480.25 C 125.0065 499.918 119.6024 524.94 130.125 543.25 C 134.5505 550.951 141.06155 557.252 146.53125 564.25 C 160.1304 575.2471 209.25537 516.44695 204.375 498.59375 C 220.94511 525.27279 208.49228 516.71127 211.8125 487.15625 C 214.34648 451.17393 218.501 415.3356 223.96875 379.6875 C 228.33273 383.73891 232.49205 385.59539 235.84375 384.03125 C 262.58355 371.51725 290.70295 362.27625 318.65625 352.90625 C 347.52065 343.19225 376.9717 334.90175 407.5 333.34375 C 412.1101 332.42575 414.98675 333.8805 417.59375 335.1875 C 435.57445 340.5235 460.7307 255.7735 442.75 250.4375 C 429.0289 247.0365 415.4576 244.43575 401.1875 245.84375 C 363.5061 249.06375 326.81495 257.827 291.09375 270.25 C 274.32211 275.8113 257.54479 281.37791 240.90625 287.34375 C 245.57559 265.87368 251.13348 244.60266 258.75 224 C 264.50469 209.87469 211.47881 185.18741 187.59375 185.75 z M 691.8125 263.25 C 705.96971 263.33549 720.12501 264.3185 734.25 266.1875 C 752.5441 269.1285 770.0929 275.03 784.125 287.375 C 793.2543 296.596 794.87415 308.5785 795.84375 320.9375 C 796.61385 348.6565 792.40365 376.1955 787.78125 403.4375 C 786.03311 412.43959 784.39702 421.48764 782.53125 430.46875 C 756.76141 432.34057 731.02745 434.69191 705.375 437.78125 C 662.648 443.52725 620.1621 450.68 577.8125 458.75 C 574.48968 459.2848 570.97031 459.68254 567.40625 460.03125 C 567.63737 432.70827 567.9989 405.38797 568.375 378.0625 C 568.30503 345.73238 567.41122 313.41295 567 281.09375 C 590.08255 275.00809 613.70922 271.16096 637.28125 267.5 C 655.39988 264.53731 673.61037 263.14009 691.8125 263.25 z M 764.03125 323.6875 C 737.79575 324.8705 711.75685 328.181 685.78125 332 C 656.08375 336.279 626.48365 341.21625 596.65625 344.53125 C 578.06435 347.14125 590.3456 434.7975 608.9375 432.1875 C 638.7133 427.5935 668.4336 422.699 698.25 418.375 C 721.0792 415.207 743.96065 411.9905 767.03125 411.5625 C 785.66815 410.9245 782.66825 323.0495 764.03125 323.6875 z M 362.59375 854.0625 C 365.55992 857.68142 364.47148 857.02464 362.59375 854.0625 z "
     id="path12612" />
</svg>
