<?xml version="1.0" encoding="UTF-8" standalone="no"?>
<svg
   xmlns:dc="http://purl.org/dc/elements/1.1/"
   xmlns:cc="http://creativecommons.org/ns#"
   xmlns:rdf="http://www.w3.org/1999/02/22-rdf-syntax-ns#"
   xmlns:svg="http://www.w3.org/2000/svg"
   xmlns="http://www.w3.org/2000/svg"
   xmlns:sodipodi="http://sodipodi.sourceforge.net/DTD/sodipodi-0.dtd"
   xmlns:inkscape="http://www.inkscape.org/namespaces/inkscape"
   width="1024"
   height="1024"
   id="U94A2"
   version="1.1"
   inkscape:version="0.48.0 r9654"
   sodipodi:docname="U+94A2.svg">
  <metadata
     id="metadata16">
    <rdf:RDF>
      <cc:Work
         rdf:about="">
        <dc:format>image/svg+xml</dc:format>
        <dc:type
           rdf:resource="http://purl.org/dc/dcmitype/StillImage" />
      </cc:Work>
    </rdf:RDF>
  </metadata>
  <defs
     id="defs14" />
  <sodipodi:namedview
     pagecolor="#ffffff"
     bordercolor="#666666"
     borderopacity="1"
     objecttolerance="10"
     gridtolerance="10"
     guidetolerance="10"
     inkscape:pageopacity="0"
     inkscape:pageshadow="2"
     inkscape:window-width="640"
     inkscape:window-height="480"
     id="namedview12"
     showgrid="false"
     inkscape:zoom="0.27441406"
     inkscape:cx="512"
     inkscape:cy="512"
     inkscape:window-x="0"
     inkscape:window-y="25"
     inkscape:window-maximized="0"
     inkscape:current-layer="U94A2" />
  <path
     style="fill:#550000;fill-opacity:1;fill-rule:nonzero;stroke:#f9f9f9;stroke-width:0.1;stroke-miterlimit:4;stroke-dasharray:none"
     d="M 714.71875 160 C 692.51087 160.20862 670.34407 163.04119 648.4375 168.75 C 610.2738 180.601 574.19465 197.29925 547.03125 227.65625 C 545.61935 229.34697 545.31754 231.6316 545.90625 234.3125 C 526.05617 230.29803 506.62185 230.47023 504.65625 238.875 C 496.17315 291.536 495.26105 345.08325 493.15625 398.28125 C 489.79295 481.16525 484.34065 563.952 481.96875 646.875 C 481.66155 702.6 480.22015 758.8675 490.03125 813.9375 C 493.69735 831.9815 578.75985 814.70025 575.09375 796.65625 C 571.50234 782.01975 569.40061 767.13646 568.1875 752.125 C 580.48495 737.26697 592.11618 721.91691 602.4375 705.53125 C 620.0178 678.63304 636.92041 651.30529 653.3125 623.6875 C 681.43096 654.57412 710.67335 684.39998 737.9375 716.0625 C 741.3998 720.4135 744.8502 724.773 748.3125 729.125 C 753.35464 735.36512 769.08008 728.45629 784.1875 717.53125 C 781.65246 754.00937 778.70226 790.45249 775.4375 826.875 C 772.7763 851.522 774.25115 840.07325 771.15625 861.28125 C 768.80145 879.49825 854.67645 890.592 857.03125 872.375 C 859.83905 848.004 858.53255 860.8005 860.90625 833.9375 C 865.60765 772.0005 869.9803 710.043 873.0625 648 C 876.8273 573.498 880.99205 498.985 881.71875 424.375 C 881.35155 366.431 880.9486 307.37925 863.5625 251.53125 C 844.555 205.19725 823.2098 179.1805 773.4375 165.4375 C 753.92255 161.69406 734.31394 159.81592 714.71875 160 z M 209.90625 163.25 C 186.71624 163.60665 162.21047 169.25862 162.625 179.125 C 162.5406 218.219 155.5389 256.99425 148.9375 295.40625 C 138.276 354.58925 124.38815 413.1275 110.28125 471.5625 C 103.45755 499.3325 106.70675 486.13425 100.53125 511.15625 C 96.484775 528.46586 175.51739 547.47703 184.0625 532.3125 C 196.42505 553.61315 216.26638 575.05704 225.125 569.125 C 236.85241 560.92902 249.20667 553.91818 261.96875 547.75 C 261.16636 552.87015 260.40668 557.97861 259.65625 563.09375 C 255.71131 564.4479 251.76504 565.8106 247.84375 567.25 C 207.08925 582.737 167.15045 600.099 128.09375 619.5 C 111.59475 628.061 151.96965 705.84125 168.46875 697.28125 C 194.85611 682.6791 222.13458 669.89813 249.9375 658.34375 C 247.4874 698.49618 246.90714 738.75391 247.8125 779 C 251.603 818.666 250.69075 862.3195 268.46875 899.1875 C 271.30645 905.0725 275.1949 910.402 278.5625 916 C 284.8688 921.361 290.0168 928.5245 297.5 932.0625 C 337.572 951.0065 367.17575 923.8395 392.21875 896.5625 C 402.44213 885.45598 361.39451 843.96868 339.375 836.8125 C 335.46449 817.0794 334.55405 796.64457 332.875 776.78125 C 331.39991 727.67658 332.58838 678.53926 337.25 629.65625 C 360.37452 624.46886 383.89011 621.23482 407.71875 620.625 C 411.51835 620.863 415.3255 621.0735 419.125 621.3125 C 437.5099 621.9755 440.635 535.32025 422.25 534.65625 L 404 534.3125 C 385.79438 535.32073 367.74446 537.32377 349.84375 540.25 C 351.36119 532.559 353.07749 524.91062 355.125 517.375 C 364.29641 516.25488 373.56015 515.95547 382.90625 516.8125 C 401.27915 517.5655 404.8104 430.9395 386.4375 430.1875 C 366.2141 429.84661 346.2807 431.2736 326.625 434.96875 C 312.28329 428.38394 299.18023 425.65339 295.5625 431.71875 C 293.27318 436.08119 291.15234 440.50146 289.15625 444.96875 C 256.62182 455.80322 224.78688 468.52879 194.90625 485.3125 C 206.05822 436.75396 217.35121 388.21925 227.1875 339.375 C 240.07261 360.20114 260.10583 380.77387 268.75 374.6875 C 296.6234 357.0985 328.81405 347.96175 360.15625 338.71875 C 387.73625 333.79975 417.93315 319.38125 446.40625 325.53125 C 464.74315 327.20325 472.61815 240.76575 454.28125 239.09375 C 413.92335 236.99275 374.8588 245.37 336.125 256.5 C 302.03293 266.39629 267.54439 276.59625 235.96875 293 C 242.91098 254.11438 249.27994 215.00173 250.1875 175.46875 C 249.82173 166.76359 230.36802 162.93531 209.90625 163.25 z M 719.78125 246.09375 C 731.86891 246.15273 743.92072 247.45063 755.8125 250.28125 C 772.9562 255.23525 777.5335 267.759 783.125 283.25 C 795.9246 329.343 796.2705 377.7055 796.875 425.1875 C 796.60252 498.06028 792.51279 570.84089 788.71875 643.59375 C 762.53561 614.71381 735.32772 586.82563 709.3125 557.78125 C 705.63794 553.50838 701.96144 549.20445 698.34375 544.875 C 700.90676 540.23231 703.48902 535.59218 706.03125 530.9375 C 726.99945 493.6495 746.83735 454.83575 774.84375 422.21875 C 787.83915 408.96775 725.3703 347.71875 712.375 360.96875 C 685.06177 393.14868 664.34868 430.10002 644.125 467.0625 C 633.1321 458.16796 585.97062 482.38825 572.34375 500.3125 C 574.08388 467.5661 575.9094 434.82026 577.53125 402.0625 C 579.60864 360.53462 580.74845 318.66186 586.8125 277.46875 C 598.90609 285.05963 610.04091 288.8219 614.25 283.78125 C 629.8059 266.19125 651.3851 257.7595 673.375 251.4375 C 688.66279 248.01469 704.23998 246.01792 719.78125 246.09375 z M 571.5625 515.46875 C 579.19829 528.5667 587.49276 541.2085 596.28125 553.5 C 586.94006 569.73038 577.37917 585.8488 567.59375 601.8125 C 568.66755 573.02301 570.06539 544.23862 571.5625 515.46875 z M 345.84375 860.4375 C 347.02407 861.97868 348.32453 863.8164 350.15625 866.15625 C 346.95681 868.12713 348.2693 867.6738 345.84375 860.4375 z "
     id="path23517" />
</svg>
