<?xml version="1.0" encoding="UTF-8" standalone="no"?>
<svg
   xmlns:dc="http://purl.org/dc/elements/1.1/"
   xmlns:cc="http://creativecommons.org/ns#"
   xmlns:rdf="http://www.w3.org/1999/02/22-rdf-syntax-ns#"
   xmlns:svg="http://www.w3.org/2000/svg"
   xmlns="http://www.w3.org/2000/svg"
   xmlns:sodipodi="http://sodipodi.sourceforge.net/DTD/sodipodi-0.dtd"
   xmlns:inkscape="http://www.inkscape.org/namespaces/inkscape"
   width="1024"
   height="1024"
   id="U949F"
   version="1.1"
   inkscape:version="0.48.0 r9654"
   sodipodi:docname="U+949F.svg">
  <metadata
     id="metadata16">
    <rdf:RDF>
      <cc:Work
         rdf:about="">
        <dc:format>image/svg+xml</dc:format>
        <dc:type
           rdf:resource="http://purl.org/dc/dcmitype/StillImage" />
      </cc:Work>
    </rdf:RDF>
  </metadata>
  <defs
     id="defs14" />
  <sodipodi:namedview
     pagecolor="#ffffff"
     bordercolor="#666666"
     borderopacity="1"
     objecttolerance="10"
     gridtolerance="10"
     guidetolerance="10"
     inkscape:pageopacity="0"
     inkscape:pageshadow="2"
     inkscape:window-width="640"
     inkscape:window-height="480"
     id="namedview12"
     showgrid="false"
     inkscape:zoom="0.27441406"
     inkscape:cx="512"
     inkscape:cy="512"
     inkscape:window-x="0"
     inkscape:window-y="25"
     inkscape:window-maximized="0"
     inkscape:current-layer="U949F" />
  <path
     style="fill:#2b1100;fill-opacity:1;fill-rule:nonzero;stroke:none"
     d="M 682.46875 140.5 C 666.83132 140.40329 653.98995 143.29912 653.15625 150.28125 C 649.59125 198.50125 648.44425 246.8715 646.90625 295.1875 C 646.24872 316.85217 645.62762 338.48983 645.03125 360.15625 C 613.85425 365.04891 582.90772 371.24401 552.71875 380.59375 C 534.83765 386.32875 561.869 470.61 579.75 464.875 C 600.19754 457.58753 621.33885 452.74736 642.65625 448.9375 C 641.78241 482.14092 640.88728 515.36102 639.9375 548.5625 C 639.09443 571.41255 638.38649 594.23913 637.71875 617.09375 C 626.11093 619.55339 614.54468 622.25365 603.03125 625.21875 C 569.47345 633.73375 536.065 642.88175 502.625 651.84375 C 484.5825 656.99875 508.8951 742.06125 526.9375 736.90625 C 559.2182 726.78225 591.8834 717.871 624.625 709.375 C 628.21622 708.44228 631.8045 707.56986 635.40625 706.6875 C 634.85387 730.56697 634.32546 754.43196 633.8125 778.3125 C 633.2101 818.9655 631.79305 859.621 630.34375 900.25 C 629.98955 908.453 629.75525 916.63475 629.65625 924.84375 C 629.76455 943.62275 718.2958 943.12175 718.1875 924.34375 C 717.9576 916.99675 718.0037 909.6615 718.125 902.3125 C 718.586 861.4505 719.4543 820.58375 719.625 779.71875 C 719.95099 750.2634 720.34835 720.79619 720.84375 691.34375 C 728.0984 690.56401 735.39473 689.92442 742.6875 689.4375 C 739.6227 707.01008 807.2525 751.07183 817.1875 736.15625 C 824.20371 724.83916 829.76925 712.88214 834.65625 700.59375 C 848.25078 699.05624 863.10198 652.13675 861.46875 628.15625 C 872.22819 601.77235 883.91979 575.80602 895.09375 549.5625 C 909.28045 513.0455 923.2797 475.08525 912.625 435.65625 C 899.9862 406.02425 882.80405 388.1855 852.59375 376.1875 C 824.42155 365.9475 795.0925 359.5805 765.1875 357.0625 C 753.53819 356.17436 741.88725 355.54158 730.21875 355.25 C 730.87373 336.3011 731.5759 317.35115 732.34375 298.40625 C 734.36805 252.49025 735.83955 206.455 740.90625 160.75 C 742.29575 149.1125 708.53113 140.66118 682.46875 140.5 z M 140.9375 187.65625 C 138.46468 187.76289 136.51145 188.53684 135.25 190.15625 C 108.6174 226.90725 93.3906 269.88175 79 312.46875 C 61.8841 367.49575 49.2877 423.713 38.375 480.25 C 32.5787 508.04 29.7017 535.5365 35.25 563.4375 C 40.0825 581.5585 125.48865 558.77725 120.65625 540.65625 C 120.07245 543.01125 119.66845 545.78125 119.40625 538.15625 C 118.92125 524.05525 121.79315 510.007 123.65625 496.125 C 131.77322 450.56264 141.43842 405.25595 154.375 360.8125 C 162.27998 372.35029 170.77362 379.99012 176.59375 377.125 C 209.08965 360.197 243.3241 347.151 278.125 335.875 C 304.49857 328.56499 331.90577 320.35421 359.5625 321.5 C 360.24737 321.71164 360.95525 321.84052 361.71875 321.8125 C 361.42296 321.73637 361.10148 321.64284 360.78125 321.5625 C 361.43499 321.59607 362.09602 321.64319 362.75 321.6875 C 381.4029 318.70703 418.89905 254.32052 404.1875 245.375 C 379.3928 234.345 391.4955 237.66725 368.3125 234.03125 C 328.3669 233.33425 289.20715 241.15775 251.21875 253.34375 C 228.94258 260.64628 206.89726 268.58031 185.15625 277.28125 C 190.78336 265.8156 197.24459 254.78392 205.03125 244.53125 C 215.3031 231.34377 161.07333 186.78792 140.9375 187.65625 z M 362.75 321.6875 C 362.40339 321.74288 362.05189 321.80027 361.71875 321.8125 C 367.98862 323.42617 368.83786 324.05283 364.875 321.84375 C 364.16415 321.78259 363.4606 321.73565 362.75 321.6875 z M 492.3125 390.6875 C 466.20574 390.96219 432.43244 399.5675 433.875 411.21875 C 439.3345 445.56075 445.97585 479.6815 453.78125 513.5625 C 462.27335 547.8405 471.80685 581.97525 484.96875 614.78125 C 492.18365 631.99825 573.34 597.99825 566.125 580.78125 C 553.7437 553.05325 546.11125 523.39075 538.46875 494.09375 C 531.37755 463.13675 525.4383 431.90475 521.75 400.34375 C 520.88446 393.353 507.97656 390.52269 492.3125 390.6875 z M 365 431.1875 C 348.3558 432.4945 356.7965 431.62875 339.625 433.84375 C 304.5361 438.63275 269.4442 443.389 234.4375 448.75 C 203.5719 453.906 172.85505 460.02025 142.78125 468.78125 C 124.77795 474.11625 149.9342 558.99025 167.9375 553.65625 C 184.10047 548.18137 200.65172 544.09002 217.34375 540.65625 C 217.49079 566.02848 217.40017 591.41285 217.0625 616.78125 C 216.84231 626.3983 216.51283 636.01455 216.15625 645.625 C 182.44264 651.87342 148.79296 658.3892 115.25 665.5 C 97.0681 670.046 118.5056 755.76475 136.6875 751.21875 C 161.67586 744.79114 186.90348 739.37935 212.21875 734.375 C 211.64598 748.05445 211.14342 761.74606 210.8125 775.4375 C 209.4073 817.5435 213.9008 859.1465 225.625 899.5625 C 234.6472 926.9515 250.32465 952.63525 279.96875 960.90625 C 286.28235 962.66825 292.9942 962.48225 299.5 963.28125 C 326.2775 962.14325 350.0699 949.79 373.9375 938.875 C 376.8074 937.603 379.6926 936.3335 382.5625 935.0625 C 399.63 927.4585 363.78625 847.021 346.71875 854.625 C 343.56095 856.039 340.4077 857.43075 337.25 858.84375 C 331.87153 861.31841 317.47946 866.63068 308.53125 870.75 C 299.27342 840.46754 296.68879 808.97439 297.28125 777.3125 C 297.64783 757.66639 298.40122 738.0272 299.28125 718.40625 C 336.63806 712.35474 374.21078 707.68786 411.9375 704.625 C 417.7212 704.31 423.49245 703.8895 429.28125 703.6875 C 432.42825 703.5785 462.07415 702.7405 464.53125 705.5625 C 464.58635 705.62571 464.59168 705.64979 464.59375 705.6875 C 482.38534 703.7475 506.76893 626.80962 489.71875 621.21875 C 461.80155 613.84375 432.83165 615.6795 404.28125 618.0625 C 370.466 621.282 336.76294 625.48747 303.1875 630.59375 C 303.33027 626.48779 303.47605 622.38859 303.59375 618.28125 C 304.24835 587.74194 304.46536 557.19768 305 526.65625 C 320.30723 524.55769 335.63755 522.53448 350.96875 520.625 C 365.46605 519.064 359.02105 519.428 370.21875 519.125 C 388.87455 518.014 383.6557 430.0765 365 431.1875 z M 464.59375 705.6875 C 464.33348 705.71588 464.0698 705.75418 463.8125 705.75 C 464.26702 705.82743 464.60168 705.83204 464.59375 705.6875 z M 727.5 442.375 C 737.736 442.64949 747.97362 443.2459 758.1875 444.125 C 779.8842 446.332 801.39855 450.625 821.71875 458.625 C 823.27085 457.006 835.7338 468.214 829.75 466 C 827.0501 483.818 820.30345 501.30825 813.84375 518.15625 C 801.9331 546.30614 789.51332 574.22635 778.03125 602.53125 C 765.82042 601.80865 753.58247 601.69622 741.3125 602.34375 C 735.11477 602.78493 728.92672 603.30765 722.75 603.90625 C 723.23782 586.25146 723.79041 568.58865 724.4375 550.9375 C 725.4613 514.74867 726.44892 478.56366 727.5 442.375 z M 462.09375 705.4375 C 462.65212 705.62063 463.20552 705.73769 463.78125 705.75 C 463.21218 705.65147 462.49251 705.45226 462.09375 705.4375 z M 313.71875 882.6875 C 316.26775 885.63448 316.17318 887.03925 313.71875 882.6875 z "
     id="path15119" />
</svg>
