<?xml version="1.0" encoding="utf-8" ?>

<!DOCTYPE svg PUBLIC "-//W3C//DTD SVG 1.1//EN" 
  "http://www.w3.org/Graphics/SVG/1.1/DTD/svg11.dtd">
<svg 
    xmlns="http://www.w3.org/2000/svg"
    xmlns:xlink="http://www.w3.org/1999/xlink"
    xmlns:sodipodi="http://sodipodi.sourceforge.net/DTD/sodipodi-0.dtd"
    xmlns:inkscape="http://www.inkscape.org/namespaces/inkscape"
    width="1024" height="1024" id="U957F">
<path d="m 10949.296,4284.7333 c -34.614,26.6913 -65.895,57.3532 -96.828,88.1373 -44.37,44.7129 -84.346,93.4068 -123.619,142.5649 -11.169,13.9464 -76.913,-38.7057 -65.744,-52.652 l 0,0 c 41.274,-51.4139 83.15,-102.4298 129.133,-149.7622 33.177,-33.7417 66.883,-67.0332 103.256,-97.368 14.654,-11.4133 68.456,57.6667 53.802,69.08 z" id="path20785" inkscape:connector-curvature="0" style="fill:#800000;fill-opacity:1;fill-rule:nonzero;stroke:#f9f9f9;stroke-width:0.1;stroke-miterlimit:4;stroke-dasharray:none" transform="translate(-10240, -4096)"/><path d="m 10390.167,4641.235 c 57.334,-25.9647 120.637,-34.0475 182.347,-43.0329 90.426,-11.9605 181.242,-20.6138 272.001,-29.5822 43.819,-4.5208 87.729,-8.5136 131.288,-15.1787 18.213,-2.4334 29.685,83.4262 11.471,85.8596 l 0,0 c -44.849,5.2135 -89.869,8.7774 -134.826,12.9096 -89.307,8.125 -178.627,16.5613 -267.44,29.132 -51.207,7.9489 -104.129,14.6004 -151.824,36.0001 -16.145,9.1253 -59.162,-66.9822 -43.017,-76.1075 z" id="path20787" inkscape:connector-curvature="0" style="fill:#800000;fill-opacity:1;fill-rule:nonzero;stroke:#f9f9f9;stroke-width:0.1;stroke-miterlimit:4;stroke-dasharray:none" transform="translate(-10240, -4096)"/><path d="m 10634.939,4218.1176 c -20.326,47.2188 -28.275,98.4935 -36.522,148.8697 -14.363,99.2946 -23.362,199.2805 -29.585,299.3857 -3.323,68.8002 -5.509,138.5742 11.674,205.7679 8.584,24.3612 16.19,41.0409 43.031,43.4352 28.867,0.3555 55.92,-10.4436 81.72,-22.2649 16.715,-7.5109 52.122,71.2849 35.407,78.7958 l 0,0 c -42.863,18.9766 -87.673,34.0053 -135.276,28.0006 -8.655,-2.1979 -17.616,-3.4229 -25.963,-6.5938 -44.739,-16.996 -69.153,-57.6706 -82.128,-101.5336 -17.124,-75.8915 -16.569,-153.5891 -11.414,-230.9623 6.864,-102.6109 16.067,-205.1046 29.566,-307.0725 8.755,-57.9249 17.823,-116.3911 39.443,-171.1974 7.503,-16.9805 87.55,18.3891 80.047,35.3696 z" id="path20789" inkscape:connector-curvature="0" style="fill:#800000;fill-opacity:1;fill-rule:nonzero;stroke:#f9f9f9;stroke-width:0.1;stroke-miterlimit:4;stroke-dasharray:none" transform="translate(-10240, -4096)"/><path d="m 10756.636,4702.0339 c 24.186,26.4765 56.491,43.4059 87.628,60.2316 57.575,29.339 116.467,56.0013 175.006,83.3407 31.079,14.3987 61.912,29.3073 92.444,44.8276 16.22,8.3996 -23.376,84.8609 -39.596,76.4613 l 0,0 c -29.317,-15.484 -59.006,-30.2334 -89.011,-44.344 -59.746,-28.2582 -119.971,-55.5307 -179.093,-85.0827 -40.59,-21.5416 -81.531,-44.014 -113.388,-77.8514 -12.215,-14.0028 53.795,-71.5859 66.01,-57.5831 z" id="path20791" inkscape:connector-curvature="0" style="fill:#800000;fill-opacity:1;fill-rule:nonzero;stroke:#f9f9f9;stroke-width:0.1;stroke-miterlimit:4;stroke-dasharray:none" transform="translate(-10240, -4096)"/></svg>