<?xml version="1.0" encoding="UTF-8" standalone="no"?>
<svg
   xmlns:dc="http://purl.org/dc/elements/1.1/"
   xmlns:cc="http://creativecommons.org/ns#"
   xmlns:rdf="http://www.w3.org/1999/02/22-rdf-syntax-ns#"
   xmlns:svg="http://www.w3.org/2000/svg"
   xmlns="http://www.w3.org/2000/svg"
   xmlns:sodipodi="http://sodipodi.sourceforge.net/DTD/sodipodi-0.dtd"
   xmlns:inkscape="http://www.inkscape.org/namespaces/inkscape"
   width="1024"
   height="1024"
   id="U95E8"
   version="1.1"
   inkscape:version="0.48.0 r9654"
   sodipodi:docname="U+95E8.svg">
  <metadata
     id="metadata10">
    <rdf:RDF>
      <cc:Work
         rdf:about="">
        <dc:format>image/svg+xml</dc:format>
        <dc:type
           rdf:resource="http://purl.org/dc/dcmitype/StillImage" />
      </cc:Work>
    </rdf:RDF>
  </metadata>
  <defs
     id="defs8" />
  <sodipodi:namedview
     pagecolor="#ffffff"
     bordercolor="#666666"
     borderopacity="1"
     objecttolerance="10"
     gridtolerance="10"
     guidetolerance="10"
     inkscape:pageopacity="0"
     inkscape:pageshadow="2"
     inkscape:window-width="640"
     inkscape:window-height="480"
     id="namedview6"
     showgrid="false"
     inkscape:zoom="0.27441406"
     inkscape:cx="512"
     inkscape:cy="512"
     inkscape:window-x="0"
     inkscape:window-y="25"
     inkscape:window-maximized="0"
     inkscape:current-layer="U95E8" />
  <path
     style="fill:#c83737;fill-opacity:1;fill-rule:nonzero;stroke:#f9f9f9;stroke-width:0.1;stroke-miterlimit:4;stroke-dasharray:none"
     d="M 343.3125 262.09375 C 322.38258 263.02686 270.65974 306.90588 280.90625 319.75 C 298.81355 340.965 319.35045 359.655 340.21875 377.875 C 349.30765 386.021 360.868 394.008 368.1875 402.875 C 379.9016 417.544 449.05785 362.32625 437.34375 347.65625 C 425.56205 334.05725 411.87655 322.75175 397.78125 311.59375 C 380.87425 297.00775 363.989 282.14225 350.125 264.53125 C 348.6612 262.69638 346.30249 261.96045 343.3125 262.09375 z M 667.90625 299.0625 C 659.3556 299.08331 650.80273 299.20825 642.25 299.375 C 609.8964 300.204 577.5359 301.83275 545.5 306.71875 C 526.9992 309.80175 541.5617 397.0205 560.0625 393.9375 C 587.9249 388.6225 616.2811 387.43625 644.5625 386.65625 C 674.9639 386.17125 705.41305 386.073 735.65625 389.5 C 749.63415 391.128 763.139 394.59975 775.375 401.59375 C 777.5735 401.58275 784.0585 409.8885 780.9375 407.0625 C 779.7922 415.6425 780.9068 430.817 780.75 441 C 780.0222 478.924 775.5674 516.6335 771.5625 554.3125 C 766.1841 604.3505 763.0601 654.5625 760.5625 704.8125 C 758.5275 743.4485 757.61565 782.1285 757.46875 820.8125 C 757.34815 844.5495 757.58355 868.264 757.78125 892 C 758.06025 894.835 757.62165 902.21175 756.71875 903.96875 C 752.20225 922.22075 838.26475 943.502 842.78125 925.25 C 845.23475 913.784 846.7275 902.30325 846 890.53125 C 845.413 867.28725 845.05375 844.03225 844.96875 820.78125 C 844.81295 783.49125 845.35775 746.22175 847.15625 708.96875 C 849.39405 660.46375 852.3317 611.98875 857.75 563.71875 C 862.2526 523.53675 867.2595 483.328 868.5 442.875 C 869.191 416.896 870.37945 390.1685 859.34375 365.9375 C 848.78585 347.8625 835.3044 333.21725 816.5 323.40625 C 793.9657 311.96925 770.0172 304.618 744.75 302.25 C 719.19645 299.76375 693.5582 299.00006 667.90625 299.0625 z M 293.03125 510.875 C 286.79088 511.05339 282.31153 512.6902 281.03125 516.28125 C 270.22765 552.78725 266.50425 590.84975 262.84375 628.59375 C 258.48235 674.11575 257.99365 719.797 261.34375 765.375 C 263.95475 789.38 265.85835 813.5405 270.90625 837.1875 C 271.81245 840.1325 272.7188 843.08525 273.625 846.03125 C 279.8055 863.79025 363.52425 834.66625 357.34375 816.90625 C 357.24915 816.97625 357.1575 817.055 357.0625 817.125 C 351.6936 798.1 351.50305 777.81225 348.28125 758.40625 C 344.73825 718.03925 345.264 677.56275 349.25 637.21875 C 352.3942 606.59675 355.2444 575.539 364.375 546 C 369.3977 531.91205 317.5127 510.17516 293.03125 510.875 z "
     id="path11048" />
</svg>
