<?xml version="1.0" encoding="UTF-8" standalone="no"?>
<svg
   xmlns:dc="http://purl.org/dc/elements/1.1/"
   xmlns:cc="http://creativecommons.org/ns#"
   xmlns:rdf="http://www.w3.org/1999/02/22-rdf-syntax-ns#"
   xmlns:svg="http://www.w3.org/2000/svg"
   xmlns="http://www.w3.org/2000/svg"
   xmlns:sodipodi="http://sodipodi.sourceforge.net/DTD/sodipodi-0.dtd"
   xmlns:inkscape="http://www.inkscape.org/namespaces/inkscape"
   width="1024"
   height="1024"
   id="U96BE"
   version="1.1"
   inkscape:version="0.48.0 r9654"
   sodipodi:docname="U+96BE.svg">
  <metadata
     id="metadata17">
    <rdf:RDF>
      <cc:Work
         rdf:about="">
        <dc:format>image/svg+xml</dc:format>
        <dc:type
           rdf:resource="http://purl.org/dc/dcmitype/StillImage" />
      </cc:Work>
    </rdf:RDF>
  </metadata>
  <defs
     id="defs15" />
  <sodipodi:namedview
     pagecolor="#ffffff"
     bordercolor="#666666"
     borderopacity="1"
     objecttolerance="10"
     gridtolerance="10"
     guidetolerance="10"
     inkscape:pageopacity="0"
     inkscape:pageshadow="2"
     inkscape:window-width="640"
     inkscape:window-height="480"
     id="namedview13"
     showgrid="false"
     inkscape:zoom="0.27441406"
     inkscape:cx="512"
     inkscape:cy="512"
     inkscape:window-x="0"
     inkscape:window-y="25"
     inkscape:window-maximized="0"
     inkscape:current-layer="U96BE" />
  <path
     style="fill:#c83737;fill-opacity:1;fill-rule:nonzero;stroke:#f9f9f9;stroke-width:0.1;stroke-miterlimit:4;stroke-dasharray:none"
     d="M 713.21875 121.5 C 688.22631 121.25942 638.18125 141.59609 642.875 155.46875 C 657.5481 196.29675 672.33945 237.05725 687.96875 277.53125 C 695.65849 297.71923 704.02353 317.61356 712.84375 337.3125 C 706.92725 339.30916 703.13954 342.16243 702.96875 345.96875 C 702.91817 349.35539 702.88655 352.73828 702.84375 356.125 C 692.27267 356.8282 681.68604 357.60183 671.125 358.46875 C 633.97969 361.32104 596.51381 363.18585 559.78125 369.65625 C 562.75328 351.83612 566.91034 334.24741 573.15625 317.1875 C 575.99524 309.71336 562.59863 299.70894 545.78125 292.0625 C 557.83189 264.36448 570.19596 236.77329 583.1875 209.5 C 590.6732 192.341 509.76695 157.05875 502.28125 174.21875 C 483.63665 218.34475 464.5939 262.28325 445.9375 306.40625 C 426.9078 350.42525 408.8048 394.855 391.625 439.625 C 385.1919 455.191 380.31295 470.97575 377.78125 487.59375 C 376.11203 505.45029 456.37278 513.76109 465.21875 498.21875 C 464.84052 544.03376 465.69675 589.85421 466.40625 635.65625 C 466.45014 639.76366 466.50962 643.86149 466.5625 647.96875 C 450.36623 636.90994 415.52079 627.56794 398.71875 630.40625 C 411.12048 622.47268 423.5358 614.52758 435.9375 606.59375 C 438.68948 607.50843 445.61967 608.62212 450.5 611.21875 C 449.9451 610.78419 449.27843 610.27973 448.9375 610 C 445.3748 607.077 440.3152 602.7075 436.9375 599.8125 C 412.312 578.0475 387.65025 556.28175 360.90625 537.09375 C 342.27549 523.49441 323.41218 510.25841 304.1875 497.53125 C 324.40733 471.03115 345.17745 444.89526 368.375 420.90625 C 383.1319 405.86025 398.5381 391.413 412.375 375.5 C 439.2809 336.606 420.30905 296.37 373.96875 295.125 C 359.81555 294.906 345.67575 295.7955 331.53125 296.1875 C 308.02135 297.1045 284.5318 298.1925 261 298.3125 C 226.2683 298.9765 191.59335 300.99475 157.09375 305.21875 C 128.85225 308.19075 100.6523 311.55225 72.375 314.15625 C 53.6863 315.92825 62.03005 404.022 80.71875 402.25 C 109.23545 398.524 137.81695 395.14725 166.40625 392.03125 C 198.28795 387.98025 230.3267 386.2495 262.4375 385.8125 C 269.05469 385.81388 275.66583 385.76577 282.28125 385.65625 C 264.28297 406.64229 247.34881 428.53151 230.6875 450.59375 C 230.32474 451.08412 229.95606 451.57181 229.59375 452.0625 C 194.58926 432.41611 159.17616 413.29847 121.625 398.90625 C 103.8833 392.86025 75.3833 476.48625 93.125 482.53125 C 123.21401 492.87191 151.43588 507.7006 179.21875 523.09375 C 171.66343 534.11956 164.15185 545.17374 156.71875 556.28125 C 140.91235 580.89025 124.4527 605.06125 108.4375 629.53125 C 101.91551 638.94604 96.923895 649.44566 89.46875 658.1875 C 100.02988 651.39743 109.56932 652.71281 121.375 655.40625 C 103.48853 654.52808 70.644435 729.69496 87.1875 737.09375 C 107.3726 742.54675 122.04 743.93675 139.875 731.34375 C 146.6566 726.22775 153.24405 720.80075 158.40625 713.96875 C 167.41665 702.37075 174.8678 689.78375 182.4375 677.21875 C 197.8398 652.87275 213.7113 628.83125 229.1875 604.53125 C 237.29381 592.27841 245.48244 580.0619 253.78125 567.9375 C 272.68191 580.45977 291.18864 593.57649 309.40625 607.09375 C 333.67915 624.79775 355.98575 644.88425 378.09375 665.15625 C 388.30575 672.54525 396.6419 685.0425 408.8125 689.6875 C 414.7917 691.9695 421.08025 693.315 427.21875 695.125 C 440.42946 685.58482 453.63304 676.03995 466.84375 666.5 C 467.54859 709.50377 468.79907 752.50806 470.875 795.46875 C 472.5253 817.30875 471.418 806.7545 474.0625 827.0625 C 474.82068 832.19246 482.10569 834.91118 492.15625 835.75 C 493.72952 859.44078 500.97859 884.68359 511.0625 883.65625 C 558.3141 876.30725 605.7621 870.967 653.4375 867.375 C 704.3135 864.105 755.3341 863.7495 806.1875 867.3125 C 834.5306 869.2595 862.33155 874.943 889.84375 881.75 C 893.03335 882.582 901.69675 884.82775 905.21875 885.84375 C 905.64819 885.96774 906.33321 886.18295 907 886.40625 C 903.41449 884.60421 901.82246 882.1674 896.75 877.53125 C 912.54884 886.17937 978.04991 840.3579 967.96875 825.59375 C 962.69025 820.39675 957.95235 814.613 952.15625 810 C 940.64865 800.841 923.53235 800.5825 910.15625 796.1875 C 877.71815 788.7695 844.9855 782.55125 811.6875 780.65625 C 804.18775 780.22363 796.65901 779.85623 789.15625 779.5625 C 789.59807 758.35261 789.7447 737.12305 789.59375 715.90625 C 809.82883 716.30094 830.0665 716.65427 850.3125 716.375 C 869.2106 715.581 859.98075 716.2265 877.90625 714.5625 C 896.46515 712.5525 886.9965 625.0535 868.4375 627.0625 C 856.3752 628.6685 863.0324 627.98925 848.4375 628.90625 C 828.49659 629.49632 808.56157 629.27019 788.625 628.96875 C 788.48513 617.48242 788.33504 605.98648 788.21875 594.5 C 796.80773 594.56307 805.38052 594.66399 813.96875 594.78125 C 832.56025 594.90225 833.154 507.246 814.5625 507.125 C 805.66745 507.13077 796.77007 507.14988 787.875 507.1875 C 787.87871 506.21893 787.87063 505.24982 787.875 504.28125 C 788.01519 482.66472 788.11371 461.03095 788.375 439.40625 C 796.36084 439.37236 804.35519 439.41457 812.34375 439.5625 C 830.68735 440.2495 822.2566 439.659 837.6875 441.125 C 856.2577 442.532 862.8827 355.00075 844.3125 353.59375 C 825.41114 352.42201 832.38322 352.70057 816.0625 352.4375 C 798.61511 317.87526 782.26814 282.77802 768.5625 246.53125 C 753.4592 207.13825 739.0447 167.436 726.5625 127.125 C 725.24825 123.24066 720.21663 121.56736 713.21875 121.5 z M 907 886.40625 C 908.15058 886.98452 909.48649 887.51411 911.25 888.03125 C 912.87241 888.50659 909.52232 887.25094 907 886.40625 z M 89.46875 658.1875 C 89.353939 658.26132 89.240061 658.3305 89.125 658.40625 C 88.253365 659.48854 86.909841 661.10812 89.1875 658.5 C 89.279471 658.39356 89.377523 658.29447 89.46875 658.1875 z M 89.125 658.40625 C 89.24828 658.25318 89.376363 658.08485 89.46875 657.96875 C 88.65425 658.62975 84.60365 662.0595 88.46875 658.8125 C 88.687629 658.66201 88.907063 658.54972 89.125 658.40625 z M 450.5 611.21875 C 452.37509 612.6872 454.69489 614.44334 453.625 613.40625 C 452.77107 612.5783 451.69157 611.85273 450.5 611.21875 z M 372.78125 383.59375 C 373.22195 383.56025 373.63485 383.60125 373.90625 383.90625 C 374.41765 384.48525 372.33485 384.081 371.59375 383.875 C 371.35712 383.80906 371.11711 383.74559 370.875 383.6875 C 371.07222 383.69791 371.27156 383.70727 371.46875 383.71875 C 371.87555 383.75275 372.34055 383.62725 372.78125 383.59375 z M 702.375 442.78125 C 702.36993 463.2021 702.39114 483.61127 702.40625 504.03125 C 702.40744 506.1759 702.40304 508.32411 702.40625 510.46875 C 678.27166 512.17954 654.18437 514.49384 630.1875 517.6875 C 611.6802 520.6225 625.52405 607.8735 644.03125 604.9375 C 663.53066 601.49206 683.18331 599.21683 702.90625 597.625 C 702.99435 608.10431 703.10143 618.58318 703.1875 629.0625 C 674.39122 629.94393 645.61421 631.59838 616.875 633.84375 C 598.1598 635.22475 604.6598 723.4435 623.375 722.0625 C 650.0298 718.74396 676.8067 716.86658 703.625 715.90625 C 703.57862 736.97437 703.13277 758.0436 702.34375 779.09375 C 683.92604 779.58468 665.49443 780.41687 647.09375 781.59375 C 617.2639 783.76582 587.5358 786.64895 557.8125 789.78125 C 554.39607 737.98748 552.69997 686.08694 551.96875 634.1875 C 550.84869 573.69334 549.56651 513.13373 551.90625 452.65625 C 555.6363 457.38489 559.49006 459.89447 563.0625 458.84375 C 600.5028 449.29675 639.52845 447.711 677.90625 444.625 C 686.05778 443.94789 694.21615 443.34673 702.375 442.78125 z "
     id="path10339" />
</svg>
