<?xml version="1.0" encoding="utf-8" ?>

<!DOCTYPE svg PUBLIC "-//W3C//DTD SVG 1.1//EN" 
  "http://www.w3.org/Graphics/SVG/1.1/DTD/svg11.dtd">
<svg 
    xmlns="http://www.w3.org/2000/svg"
    xmlns:xlink="http://www.w3.org/1999/xlink"
    xmlns:sodipodi="http://sodipodi.sourceforge.net/DTD/sodipodi-0.dtd"
    xmlns:inkscape="http://www.inkscape.org/namespaces/inkscape"
    width="1024" height="1024" id="U96E8">
<path d="m 10460.464,60664.416 c 37.614,-7.289 75.49,-13.032 113.446,-18.191 47.79,-6.528 95.88,-10.203 144.05,-12.236 39.209,-1.236 78.447,-1.754 117.651,-0.194 16.767,0.553 33.16,2.626 49.37,6.824 17.94,5.515 -8.056,90.082 -25.996,84.567 l 0,0 c -7.842,-2.268 -18.495,-3.458 -27.447,-3.952 -36.653,-1.993 -73.37,-1.56 -110.052,-0.559 -45.397,1.772 -90.721,5.185 -135.741,11.442 -35.967,5.027 -71.948,10.426 -107.303,18.86 -18.362,3.814 -36.34,-82.748 -17.978,-86.561 z" id="path13369" inkscape:connector-curvature="0" style="fill:#2b1100;fill-opacity:1;fill-rule:nonzero;stroke:none" transform="translate(-10240, -60416)"/><path d="m 10441.531,60963.437 c -3.762,32.893 -0.05,66.042 3.875,98.731 6.232,47.049 17.428,93.224 30.005,138.923 7.875,21.928 11.884,48.729 24.95,67.426 10.908,15.232 -60.896,66.652 -71.803,51.42 l 0,0 c -18.776,-29.236 -27.387,-62.987 -36.841,-96.148 -13.311,-49.767 -25.347,-99.968 -32.329,-151.069 -4.972,-39.767 -9.083,-79.907 -5.618,-120.002 2.273,-18.617 90.034,-7.898 87.761,10.719 z" id="path13371" inkscape:connector-curvature="0" style="fill:#2b1100;fill-opacity:1;fill-rule:nonzero;stroke:none" transform="translate(-10240, -60416)"/><path d="m 10405.398,60931.748 c 34.427,-20.424 73.994,-28.934 112.671,-37.326 52.896,-10.797 106.494,-17.494 160.171,-22.897 48.595,-5.098 97.405,-6.684 146.152,-3.443 34.847,2.827 69.07,10.065 102.684,19.432 24.072,6.876 47.32,16.225 69.375,28.029 18.748,9.837 34.263,23.567 47.453,39.954 18.048,23.869 20.118,51.39 16.853,80.077 -7.191,36.791 -22.24,71.452 -35.727,106.259 -15.464,38.683 -28.729,78.164 -41.36,117.843 -9.121,29.888 -19.918,59.205 -32.386,87.849 -10.471,24.028 -19.467,35.195 -41.676,49.416 -16.905,8.231 -55.706,-71.457 -38.801,-79.688 l 0,0 c -15.317,12.625 -4.192,6.694 0.107,-5.38 11.63,-25.635 21.447,-52.014 29.816,-78.895 13.375,-41.105 27.382,-82.002 43.191,-122.246 10.793,-28.449 22.595,-56.798 29.56,-86.484 0.836,-4.697 2.804,-10.098 0.609,-14.534 -4.991,-7.406 -12.331,-12.446 -20.011,-16.836 -15.988,-9.13 -33.354,-15.575 -50.91,-20.992 -27.804,-8.038 -56.139,-14.268 -85.005,-16.977 -43.774,-3.422 -87.66,-1.881 -131.337,2.498 -50.333,4.998 -100.582,11.337 -150.122,21.741 -27.485,6.138 -55.973,11.745 -80.917,25.385 -15.44,10.689 -65.83,-62.096 -50.39,-72.785 z" id="path13373" inkscape:connector-curvature="0" style="fill:#2b1100;fill-opacity:1;fill-rule:nonzero;stroke:none" transform="translate(-10240, -60416)"/><path d="m 10762.851,60713.482 c -4.584,38.855 -9.447,77.675 -14.615,116.456 -9.174,64.494 -17.976,129.03 -25.288,193.764 -6.802,57.897 -10.071,116.079 -11.064,174.339 -0.38,34.797 0.877,69.575 2.366,104.332 1.108,9.949 -0.354,19.27 -2.061,29.039 -4.838,18.202 -90.644,-4.606 -85.806,-22.809 l 0,0 c -1.378,16.307 0.636,-3.24 -0.08,-3.643 -0.579,-36.24 -1.438,-72.484 -0.759,-108.73 1.503,-60.894 5.042,-121.716 12.276,-182.227 7.478,-65.095 16.341,-130.007 24.881,-194.969 4.576,-37.648 9.023,-75.337 11.986,-113.152 1.612,-18.704 89.78,-11.103 88.168,7.6 z" id="path13375" inkscape:connector-curvature="0" style="fill:#2b1100;fill-opacity:1;fill-rule:nonzero;stroke:none" transform="translate(-10240, -60416)"/><path d="m 10555.939,61024.634 c 22.403,16 44.83,31.883 65.965,49.545 14.216,12.021 -42.453,79.034 -56.669,67.013 l 0,0 c -19.082,-16.39 -39.735,-30.719 -60.694,-44.6 -15.264,-10.903 36.134,-82.861 51.398,-71.958 z" id="path13377" inkscape:connector-curvature="0" style="fill:#2b1100;fill-opacity:1;fill-rule:nonzero;stroke:none" transform="translate(-10240, -60416)"/><path d="m 10496.47,61140.71 c 23.253,14.513 45.576,30.415 67.866,46.349 11.475,8.576 23.587,16.193 35.791,23.664 15.812,9.736 -30.083,84.274 -45.895,74.538 l 0,0 c -13.843,-8.564 -27.615,-17.238 -40.704,-26.941 -20.508,-14.582 -40.948,-29.359 -62.832,-41.846 -16.072,-9.711 29.702,-85.474 45.774,-75.764 z" id="path13379" inkscape:connector-curvature="0" style="fill:#2b1100;fill-opacity:1;fill-rule:nonzero;stroke:none" transform="translate(-10240, -60416)"/><path d="m 10811.387,61019.316 c 23.633,13.095 46.98,26.662 69.627,41.401 10.504,6.835 20.579,14.28 30.598,21.795 14.854,11.328 -38.549,81.349 -53.403,70.02 l 0,0 c -8.223,-6.403 -16.515,-12.721 -25.228,-18.456 -20.269,-13.37 -41.28,-25.591 -62.962,-36.537 -16.594,-8.775 24.775,-86.999 41.368,-78.223 z" id="path13381" inkscape:connector-curvature="0" style="fill:#2b1100;fill-opacity:1;fill-rule:nonzero;stroke:none" transform="translate(-10240, -60416)"/><path d="m 10784.039,61141.172 c 16.526,12.503 35.717,20.984 54.175,30.208 14.621,7.013 28.368,15.517 41.593,24.848 15.142,10.996 -36.69,82.376 -51.832,71.381 l 0,0 c -9.056,-6.966 -18.957,-12.684 -29.165,-17.804 -25.329,-12.794 -51.423,-24.778 -73.723,-42.606 -14.006,-12.506 44.946,-78.533 58.952,-66.027 z" id="path13383" inkscape:connector-curvature="0" style="fill:#2b1100;fill-opacity:1;fill-rule:nonzero;stroke:none" transform="translate(-10240, -60416)"/></svg>