<?xml version="1.0" encoding="UTF-8" standalone="no"?>
<svg
   xmlns:dc="http://purl.org/dc/elements/1.1/"
   xmlns:cc="http://creativecommons.org/ns#"
   xmlns:rdf="http://www.w3.org/1999/02/22-rdf-syntax-ns#"
   xmlns:svg="http://www.w3.org/2000/svg"
   xmlns="http://www.w3.org/2000/svg"
   xmlns:sodipodi="http://sodipodi.sourceforge.net/DTD/sodipodi-0.dtd"
   xmlns:inkscape="http://www.inkscape.org/namespaces/inkscape"
   width="1024"
   height="1024"
   id="U9644"
   version="1.1"
   inkscape:version="0.48.0 r9654"
   sodipodi:docname="U+9644.svg">
  <metadata
     id="metadata14">
    <rdf:RDF>
      <cc:Work
         rdf:about="">
        <dc:format>image/svg+xml</dc:format>
        <dc:type
           rdf:resource="http://purl.org/dc/dcmitype/StillImage" />
      </cc:Work>
    </rdf:RDF>
  </metadata>
  <defs
     id="defs12" />
  <sodipodi:namedview
     pagecolor="#ffffff"
     bordercolor="#666666"
     borderopacity="1"
     objecttolerance="10"
     gridtolerance="10"
     guidetolerance="10"
     inkscape:pageopacity="0"
     inkscape:pageshadow="2"
     inkscape:window-width="640"
     inkscape:window-height="480"
     id="namedview10"
     showgrid="false"
     inkscape:zoom="0.27441406"
     inkscape:cx="512"
     inkscape:cy="512"
     inkscape:window-x="0"
     inkscape:window-y="25"
     inkscape:window-maximized="0"
     inkscape:current-layer="U9644" />
  <path
     style="fill:#550000;fill-opacity:1;fill-rule:nonzero;stroke:#f9f9f9;stroke-width:0.1;stroke-miterlimit:4;stroke-dasharray:none"
     d="M 198.6875 138.21875 C 188.77229 137.94141 183.46897 162.81482 183.5 186.09375 C 165.8198 176.55154 98.501829 191.70166 101.6875 207.875 C 110.0218 256.292 111.3244 305.631 113.1875 354.625 C 115.7891 447.75 115.19425 540.94275 115.15625 634.09375 C 114.96315 711.52375 115.4028 788.94775 117.8125 866.34375 C 119.4766 907.49075 121.311 948.72 127.3125 989.5 C 130.2758 1007.729 216.2133 993.76125 213.25 975.53125 C 206.4666 938.51325 205.043 900.77225 202.8125 863.28125 C 199.6472 786.90625 198.6195 710.47025 198.5625 634.03125 C 198.3623 540.02125 198.9536 445.97075 197.4375 351.96875 C 196.35756 309.01318 195.4586 265.92482 191.34375 223.125 C 192.7779 224.72295 194.40565 225.63591 196.25 225.6875 C 225.9566 225.93674 255.59972 227.47555 285.125 230.625 C 274.84781 237.56425 264.58567 244.52331 254.375 251.5625 C 234.9482 265.3305 210.84395 281.59 210.09375 308.625 C 209.82665 318.251 214.0363 327.47925 216 336.90625 C 233.6578 364.28425 264.33745 373.372 291.78125 387.75 C 313.75115 398.895 327.2475 416.66275 337.625 438.34375 C 347.27113 462.07273 350.40399 487.31667 351.25 512.65625 C 349.48193 515.74106 347.73959 518.8359 346 521.9375 C 344.04252 525.62158 346.48659 530.53292 351.5 535.78125 C 349.44881 561.22979 349.80905 589.32826 337.0625 612.28125 C 330.3405 617.54425 338.55095 611.63725 328.40625 607.15625 L 319.75 602.875 C 302.9396 595.489 268.09585 674.739 284.90625 682.125 C 292.06405 685.118 299.24845 688.10075 306.40625 691.09375 C 313.91585 692.77875 321.2846 695.34025 328.9375 696.15625 C 366.5388 700.16725 397.87845 681.3385 415.90625 649.0625 C 431.53685 613.2135 437.10735 574.8395 437.65625 535.8125 C 437.65571 535.39618 437.65735 534.97887 437.65625 534.5625 C 446.63373 518.62001 456.15389 502.95624 465.59375 487.28125 C 474.40756 472.74185 483.26853 458.23375 492.125 443.71875 C 491.58157 468.88966 491.62526 494.06511 491.90625 519.25 C 494.02335 599.446 500.8705 679.419 507.0625 759.375 C 511.2023 809.317 513.52195 859.5135 521.34375 909.0625 C 524.46975 927.1995 609.96975 912.4505 606.84375 894.3125 C 597.91925 847.5865 595.7984 799.887 591.1875 752.625 C 584.6963 674.762 577.98325 596.8425 576.46875 518.6875 C 576.33915 468.6555 576.90225 418.4875 583.59375 368.8125 C 584.50392 360.51384 567.40013 354.01455 548.125 351.0625 C 557.63386 335.05461 567.05497 319.00013 576.3125 302.84375 C 595.8153 268.01775 613.8977 232.23275 635.8125 198.84375 C 646.3329 183.54175 574.2079 133.948 563.6875 149.25 C 541.1695 185.64 522.16885 224.061 501.71875 261.625 C 474.75591 309.99322 446.0061 357.36384 417 404.53125 C 416.30691 402.86744 415.61387 401.18414 414.875 399.53125 C 395.5889 362.15825 370.33905 330.646 332.21875 311 C 328.42753 308.99466 327.99348 308.76307 326.03125 307.71875 C 342.09866 296.78505 358.29815 286.03868 374.46875 275.25 C 405.80395 252.025 429.58125 225.43925 405.03125 184.53125 C 401.71385 179.00325 395.70225 175.66175 391.03125 171.21875 C 364.14925 156.12875 334.2097 149.57825 303.75 145.78125 C 268.8228 141.88325 233.7815 139.93575 198.6875 138.21875 z M 844.625 219.21875 C 834.40082 219.23314 826.81888 221.33984 825.65625 226.4375 C 819.15043 264.78569 814.4079 303.41697 809.71875 342.03125 C 788.59526 344.87324 767.48467 347.70737 746.375 350.65625 C 704.0395 357.11125 660.8818 363.192 621.5625 381.125 C 605.0632 389.669 645.34445 467.45025 661.84375 458.90625 C 692.46825 444.79025 726.574 440.515 759.5625 435.25 C 772.82454 433.31903 786.09605 431.46313 799.375 429.65625 C 792.81703 491.04894 787.95639 552.62129 784.125 614.25 C 779.3713 685.83 780.2641 757.5345 785 829.0625 C 786.8483 850.3715 788.6711 871.649 789.9375 893 C 791.2454 911.29 877.46405 905.13275 876.15625 886.84375 C 874.39525 865.51175 872.22335 844.2355 870.09375 822.9375 C 864.80575 755.1985 863.6294 687.233 868 619.375 C 872.05608 552.14918 877.43406 485.01989 885.5 418.15625 C 893.80512 417.03229 902.10646 415.91347 910.40625 414.75 C 927.48845 412.664 944.3549 409.4695 961.125 405.6875 C 979.0512 401.3385 958.5512 316.80825 940.625 321.15625 C 926.616 324.91525 912.40705 327.619 898.03125 329.625 C 897.7502 329.66746 897.46856 329.70762 897.1875 329.75 C 901.0736 301.68085 905.34268 273.67182 911.09375 245.9375 C 914.06492 232.91016 870.75345 219.18198 844.625 219.21875 z M 343.1875 244.5625 C 343.67526 244.85029 344.15333 245.13363 344.625 245.4375 C 344.12825 245.15731 343.65716 244.85549 343.1875 244.5625 z M 294.25 330.15625 C 292.79993 332.77135 290.66412 334.92307 287.5625 336.34375 C 286.6451 336.76475 288.7508 334.70725 289.5 334.03125 C 290.80125 332.85706 292.49302 331.51442 294.25 330.15625 z M 684.40625 537.34375 C 665.87912 538.05868 622.57186 598.57056 636.3125 608.78125 C 665.3452 629.44025 695.51235 648.40925 725.71875 667.28125 C 741.22945 676.96925 786.8856 603.84425 771.375 594.15625 C 743.1566 576.53525 714.85605 558.907 688.53125 538.5 C 687.36679 537.63469 685.97635 537.28316 684.40625 537.34375 z "
     id="path23331" />
</svg>
