<?xml version="1.0" encoding="UTF-8" standalone="no"?>
<svg
   xmlns:dc="http://purl.org/dc/elements/1.1/"
   xmlns:cc="http://creativecommons.org/ns#"
   xmlns:rdf="http://www.w3.org/1999/02/22-rdf-syntax-ns#"
   xmlns:svg="http://www.w3.org/2000/svg"
   xmlns="http://www.w3.org/2000/svg"
   xmlns:sodipodi="http://sodipodi.sourceforge.net/DTD/sodipodi-0.dtd"
   xmlns:inkscape="http://www.inkscape.org/namespaces/inkscape"
   width="1024"
   height="1024"
   id="U96C6"
   version="1.1"
   inkscape:version="0.48.0 r9654"
   sodipodi:docname="U+96C6.svg">
  <metadata
     id="metadata19">
    <rdf:RDF>
      <cc:Work
         rdf:about="">
        <dc:format>image/svg+xml</dc:format>
        <dc:type
           rdf:resource="http://purl.org/dc/dcmitype/StillImage" />
      </cc:Work>
    </rdf:RDF>
  </metadata>
  <defs
     id="defs17" />
  <sodipodi:namedview
     pagecolor="#ffffff"
     bordercolor="#666666"
     borderopacity="1"
     objecttolerance="10"
     gridtolerance="10"
     guidetolerance="10"
     inkscape:pageopacity="0"
     inkscape:pageshadow="2"
     inkscape:window-width="640"
     inkscape:window-height="480"
     id="namedview15"
     showgrid="false"
     inkscape:zoom="0.27441406"
     inkscape:cx="512"
     inkscape:cy="512"
     inkscape:window-x="0"
     inkscape:window-y="25"
     inkscape:window-maximized="0"
     inkscape:current-layer="U96C6" />
  <path
     style="fill:#550000;fill-opacity:1;fill-rule:nonzero;stroke:#f9f9f9;stroke-width:0.1;stroke-miterlimit:4;stroke-dasharray:none"
     d="M 335.03125 131.875 C 326.32665 131.80403 319.983 133.63875 318.65625 138.1875 C 307.16325 174.2645 288.81605 207.6765 271.03125 240.9375 C 244.54505 288.5225 218.18375 336.19325 192.15625 384.03125 C 179.45144 402.02316 172.23851 424.90128 158.8125 442.65625 C 158.3413 443.08187 157.9386 443.54677 157.625 444.09375 C 157.83785 443.83855 158.0684 443.59893 158.28125 443.34375 C 158.01853 443.68433 157.76757 444.03843 157.5 444.375 C 157.54605 444.28503 157.57509 444.1808 157.625 444.09375 C 156.34024 445.63416 155.06608 447.17862 153.78125 448.71875 C 155.01766 447.37158 156.23467 445.98931 157.375 444.5625 C 149.66938 460.97463 202.64802 522.95588 216.5625 511.3125 C 219.6253 508.1235 222.6872 504.939 225.75 501.75 C 237.31074 484.99931 246.94172 467.04819 256.53125 449.09375 C 258.8202 489.18791 261.74589 529.22318 266.03125 569.15625 C 267.04805 581.93425 269.24265 594.51525 271.90625 607.03125 C 276.29415 625.43225 363.0129 604.74475 358.625 586.34375 C 355.9529 577.47875 354.9398 568.299 353.8125 559.125 C 348.8683 518.659 345.7715 478.0175 343.5625 437.3125 C 341.99309 411.32321 340.7849 385.24053 338.5 359.28125 C 342.2276 377.80712 349.10583 393.56497 357.1875 392.4375 C 394.5432 386.1445 431.83175 379.475 469.15625 373 C 478.51644 371.33472 487.8913 369.8002 497.28125 368.34375 C 496.24811 378.26316 495.3371 388.21467 494.53125 398.15625 C 464.94496 405.57413 435.55572 413.76663 406.34375 422.59375 C 391.69353 427.04338 405.87203 483.71155 421.40625 502.34375 C 414.56222 503.4962 407.69993 504.61394 400.84375 505.6875 C 382.07505 508.4425 395.07515 596.9425 413.84375 594.1875 C 438.34346 589.37552 462.87456 584.7073 487.40625 580.0625 C 487.37778 591.27888 487.40617 602.50293 487.46875 613.71875 C 487.5718 624.09987 487.57125 625.99606 487.59375 628.4375 C 452.49726 634.31515 417.51182 640.85148 382.6875 648.25 C 342.2183 656.332 301.6733 665.2345 260.4375 668.3125 C 241.5471 669.7225 248.20335 758.785 267.09375 757.375 C 311.92895 752.471 356.00395 742.69175 400.09375 733.46875 C 420.30555 728.99561 440.60154 724.86496 460.9375 721.0625 C 460.43328 737.13304 460.54533 753.26714 460.78125 769.34375 C 430.28054 775.37139 399.90743 781.94074 369.65625 789.1875 C 332.76775 797.6045 295.683 807.23 257.8125 809.75 C 238.8653 810.581 242.8028 899.8935 261.75 899.0625 C 298.79105 895.62675 335.05137 887.04951 371.1875 878.375 C 364.92744 884.19912 358.71474 890.06131 352.53125 895.96875 C 340.14665 908.00775 327.78425 920.091 315.15625 931.875 C 301.51255 944.917 362.9813 1009.2295 376.625 996.1875 C 389.0036 984.0875 401.2677 971.871 413.625 959.75 C 430.16534 943.84609 446.98054 928.1622 464.6875 913.5625 C 464.77093 917.10186 464.86227 920.6479 464.9375 924.1875 C 463.6534 943.9825 467.50205 964.43225 464.71875 984.15625 C 463.44665 1003.0992 552.75915 1009.068 554.03125 990.125 C 555.00595 967.352 553.1427 944.55525 552.9375 921.78125 C 552.0477 894.95602 550.98744 868.13752 550.09375 841.3125 C 555.43989 840.4148 560.77403 839.52681 566.125 838.65625 C 605.1254 832.59025 644.2775 827.36775 683.5 822.96875 C 686.4313 822.70475 689.34995 822.4525 692.28125 822.1875 C 711.05715 820.1695 701.55715 731.63825 682.78125 733.65625 C 679.34465 734.07625 675.90535 734.5175 672.46875 734.9375 C 632.23765 740.4885 592.0301 746.29825 551.9375 752.78125 C 550.68563 752.99143 549.43915 753.22612 548.1875 753.4375 C 548.13283 737.70908 548.42794 721.95682 549.9375 706.34375 C 562.56962 704.50291 575.21596 702.75466 587.875 701.09375 C 631.3075 695.40675 674.98425 692.10775 718.78125 691.84375 C 737.22885 691.69275 755.52175 693.6235 773.65625 696.8125 C 792.30275 699.8385 806.5841 611.93225 787.9375 608.90625 C 764.6655 605.36825 741.23375 603.161 717.65625 603.625 C 670.35065 604.529 623.1868 608.4375 576.3125 614.9375 C 576.08354 614.96893 575.85395 614.99977 575.625 615.03125 C 575.58432 613.6923 575.5854 614.27406 575.53125 612.5 C 575.16473 596.01193 574.96485 579.52339 574.9375 563.03125 C 593.56359 559.57541 612.23556 556.39856 631 553.6875 C 659.0599 549.4935 687.3588 547.7555 715.6875 546.9375 C 725.2488 546.6685 734.8114 546.50175 744.375 546.34375 C 763.2827 545.85175 760.9703 456.72675 742.0625 457.21875 C 732.2804 457.56475 722.50015 457.884 712.71875 458.25 C 686.121 459.25833 659.55364 460.99156 633.15625 464.40625 C 650.22935 458.77553 644.63058 374.66935 626.28125 375.78125 C 623.01575 376.01525 619.73425 376.266 616.46875 376.5 C 605.86585 377.4421 595.29009 378.61212 584.75 380.03125 C 585.73558 372.22233 586.84838 364.42573 588.125 356.65625 C 592.84811 356.1452 597.5875 355.64977 602.3125 355.15625 C 632.794 352.00925 663.34165 349.7845 693.96875 348.8125 C 701.50915 348.6425 709.05155 348.43875 716.59375 348.46875 C 735.55655 348.14675 734.0253 258.77175 715.0625 259.09375 C 706.8389 259.37375 698.62815 259.76575 690.40625 260.09375 C 659.82099 261.55663 629.29305 263.92128 598.84375 267.15625 C 592.46346 259.41018 586.09742 251.64676 580.1875 243.53125 C 563.1668 219.22125 548.00425 193.75375 534.21875 167.46875 C 524.59685 151.15275 447.6905 196.52775 457.3125 212.84375 C 470.35712 235.48095 483.68692 257.87912 498.03125 279.6875 C 483.45812 281.81436 468.89252 284.10639 454.375 286.625 C 417.9255 292.773 381.52645 299.34675 344.84375 303.96875 C 338.16602 304.90071 335.44284 316.73762 335.53125 331.4375 C 334.70229 324.80678 333.81027 318.1962 332.75 311.59375 C 332.62759 311.0735 332.40627 310.58424 332.15625 310.125 C 337.33286 300.85034 342.52539 291.59234 347.75 282.34375 C 368.7613 243.71975 389.9813 204.88575 404.4375 163.21875 C 408.41767 149.5725 361.14504 132.08791 335.03125 131.875 z M 630.375 464.78125 C 626.28393 465.32923 622.20703 465.89689 618.125 466.53125 C 604.40087 468.60445 590.71612 470.93353 577.0625 473.375 C 577.11669 472.35526 577.16225 471.33216 577.21875 470.3125 C 592.55629 467.89758 607.98883 466.13718 623.5 465.09375 C 625.79545 464.98417 628.07953 464.8906 630.375 464.78125 z M 651.375 842.25 C 627.93724 842.87525 574.88747 873.65166 582.15625 887.5625 C 600.47815 920.2515 630.153 941.893 661.75 960.5 C 686.2278 973.783 711.88915 984.6495 737.53125 995.4375 C 754.93235 1002.5985 788.68235 920.56725 771.28125 913.40625 C 749.21835 904.54425 727.22165 895.41975 706.21875 884.21875 C 689.08075 874.37575 671.4199 863.8465 661.3125 846.1875 C 659.80388 843.30034 656.23944 842.12023 651.375 842.25 z M 463.15625 857.40625 C 463.20289 858.94787 463.23491 860.48962 463.28125 862.03125 C 462.24857 860.6858 461.20293 859.34533 460.125 858.03125 C 461.13567 857.82283 462.14527 857.61317 463.15625 857.40625 z "
     id="path8423" />
</svg>
