<?xml version="1.0" encoding="UTF-8" standalone="no"?>
<svg
   xmlns:dc="http://purl.org/dc/elements/1.1/"
   xmlns:cc="http://creativecommons.org/ns#"
   xmlns:rdf="http://www.w3.org/1999/02/22-rdf-syntax-ns#"
   xmlns:svg="http://www.w3.org/2000/svg"
   xmlns="http://www.w3.org/2000/svg"
   xmlns:sodipodi="http://sodipodi.sourceforge.net/DTD/sodipodi-0.dtd"
   xmlns:inkscape="http://www.inkscape.org/namespaces/inkscape"
   width="1024"
   height="1024"
   id="U97F3"
   version="1.1"
   inkscape:version="0.48.0 r9654"
   sodipodi:docname="U+97F3.svg">
  <metadata
     id="metadata16">
    <rdf:RDF>
      <cc:Work
         rdf:about="">
        <dc:format>image/svg+xml</dc:format>
        <dc:type
           rdf:resource="http://purl.org/dc/dcmitype/StillImage" />
      </cc:Work>
    </rdf:RDF>
  </metadata>
  <defs
     id="defs14" />
  <sodipodi:namedview
     pagecolor="#ffffff"
     bordercolor="#666666"
     borderopacity="1"
     objecttolerance="10"
     gridtolerance="10"
     guidetolerance="10"
     inkscape:pageopacity="0"
     inkscape:pageshadow="2"
     inkscape:window-width="640"
     inkscape:window-height="480"
     id="namedview12"
     showgrid="false"
     inkscape:zoom="0.27441406"
     inkscape:cx="512"
     inkscape:cy="512"
     inkscape:window-x="0"
     inkscape:window-y="25"
     inkscape:window-maximized="0"
     inkscape:current-layer="U97F3" />
  <path
     style="fill:#2b1100;fill-opacity:1;fill-rule:nonzero;stroke:none"
     d="M 475.6875 53.5 C 453.1936 53.32227 399.00706 85.551094 406.5625 99.46875 C 423.5085 129.51175 447.80315 153.80025 473.21875 176.65625 C 487.38535 188.96825 501.4246 201.4105 514.9375 214.4375 C 528.4744 227.2465 588.8493 163.433 575.3125 150.625 C 560.9943 137.29 546.2907 124.40175 531.5 111.59375 C 513.5131 95.56375 495.6065 78.907 484.3125 57.25 C 482.91334 54.6725 479.85304 53.532913 475.6875 53.5 z M 769.1875 203.53125 C 751.32941 203.56934 732.85788 206.67188 716.15625 205.5625 C 654.11485 208.9025 592.1512 213.37125 530.1875 217.90625 C 458.2902 223.44025 386.35655 229.00475 314.59375 236.09375 C 269.17865 241.49775 223.45345 247.2625 179.84375 261.6875 C 162.29005 268.2875 193.41505 351.0375 210.96875 344.4375 C 247.66615 331.2105 286.7077 326.4055 325.1875 321.4375 C 395.5621 313.8365 466.14755 308.32125 536.71875 302.90625 C 597.84105 298.53225 658.98585 294.5065 720.21875 292.0625 C 736.75475 291.7485 753.37735 290.949 769.90625 292.125 C 771.54624 292.24157 773.18117 292.4089 774.8125 292.625 C 773.2084 292.0312 771.59685 291.4275 770 290.8125 C 787.97743 292.92932 834.19961 229.24524 820 218.65625 C 813.3796 215.22325 807.11545 211.02375 800.15625 208.34375 C 790.40374 204.58738 779.90236 203.5084 769.1875 203.53125 z M 774.8125 292.625 C 776.20271 293.13962 777.58685 293.64631 779 294.09375 C 779.4356 294.23175 778.4468 293.25225 778 293.15625 C 776.94592 292.93052 775.88213 292.76669 774.8125 292.625 z M 617.25 329.96875 C 611.00722 329.9967 606.49144 331.53459 605.125 335.09375 C 595.5126 362.82175 580.9154 388.308 565.6875 413.25 C 551.2128 436.495 534.8112 458.40225 518.0625 480.03125 C 516.60154 481.92748 516.499 484.4774 517.4375 487.4375 C 504.84454 489.00846 492.26867 490.58412 479.6875 492.25 C 459.74734 494.98925 439.79626 497.78996 419.875 500.6875 C 425.37545 488.12518 427.31437 477.1251 421.90625 473.75 C 410.12175 467.17 399.7109 459.6045 391.25 448.8125 C 371.28 422.8255 355.342 394.237 343.8125 363.5 C 336.5565 346.217 255.08765 380.4045 262.34375 397.6875 C 277.87965 434.6385 297.89675 469.0805 321.78125 501.1875 C 325.26262 505.85742 329.0051 510.18051 332.9375 514.25 C 304.31302 519.10975 275.7755 524.43598 247.34375 530.375 C 201.95025 540.307 155.15545 549.357 114.15625 572.25 C 98.55905 582.704 147.8402 656.23525 163.4375 645.78125 C 195.3524 629.17825 231.4279 622.27275 266.1875 614.21875 C 340.5063 597.80375 415.8245 586.65175 491.1875 576.34375 C 559.4761 567.38075 628.0197 560.40475 696.5625 553.71875 C 732.3959 550.05575 768.30505 547.3145 804.28125 545.5625 C 822.89865 544.4305 817.58615 456.6815 798.96875 457.8125 C 761.84895 460.4935 724.76355 463.84725 687.78125 468.03125 C 668.38926 470.10945 649.01173 472.20986 629.625 474.34375 C 633.08624 469.18891 636.5 464.00734 639.8125 458.75 C 657.9925 429.282 675.0811 399.1325 687.75 366.8125 C 693.11058 352.85045 641.74092 329.85911 617.25 329.96875 z M 601.375 611.875 C 572.16126 612.0992 542.9676 613.436 513.84375 615.78125 C 467.96965 620.23025 422.40205 627.683 378.78125 643.125 C 345.59515 655.368 312.6705 669.192 286.375 693.625 C 282.57597 697.33028 284.81883 705.03335 290.25 713.90625 C 264.78608 720.04527 224.71655 745.04382 231.03125 757.1875 C 246.31105 788.1445 258.59 820.475 272.625 852 C 286.3447 883.722 304.65865 912.95325 325.15625 940.65625 C 334.02935 951.65525 329.56165 946.44925 338.53125 956.28125 C 345.14618 963.19996 364.99231 950.66506 381.15625 934.9375 C 383.12608 956.31536 389.47658 976.75801 398.5625 976.03125 C 435.8752 972.64425 473.00895 967.9015 510.03125 962.1875 C 553.45205 954.5905 596.71115 946.1655 640.59375 941.6875 C 650.36475 940.3565 662.8322 940.19075 671.1875 942.71875 C 674.88151 943.74972 678.8296 941.00068 682.59375 935.9375 C 689.20985 939.29496 694.7597 940.22128 697.78125 937.21875 C 713.17375 919.46675 722.1922 900.17775 726.125 876.84375 C 733.8765 839.71575 739.92925 802.16875 741.59375 764.21875 C 742.57995 725.42475 742.65745 685.5605 720.96875 651.6875 C 693.11195 619.7705 672.08665 613.41525 630.59375 612.03125 C 620.8565 611.85475 611.11291 611.80027 601.375 611.875 z M 631.53125 698.9375 C 639.06404 699.09887 657.32081 703.13731 651.4375 705.84375 C 654.9235 724.29275 654.85925 743.25825 654.40625 762.03125 C 653.11186 792.99666 648.15322 823.63088 641.46875 853.84375 C 638.01618 854.13697 634.5462 854.51672 631.0625 855.03125 C 586.0836 860.28125 541.6582 868.745 497.0625 876.5 C 463.32499 881.50512 429.45081 885.814 395.375 887.65625 C 395.35588 887.63425 395.36308 887.64722 395.34375 887.625 C 378.28355 865.621 363.18965 842.2055 352.09375 816.5625 C 342.24486 794.49682 333.25213 772.05712 323.90625 749.78125 C 334.27964 757.36527 343.80732 761.24081 348.1875 756.96875 C 365.1929 740.87575 387.4545 732.864 409 724.875 C 445.4929 711.86 483.6542 705.84725 522.0625 702.28125 C 557.4558 699.62125 592.98755 698.40525 628.46875 699.53125 C 628.63752 699.09419 629.79291 698.90026 631.53125 698.9375 z M 616.125 720.59375 C 615.84056 720.57976 615.57055 720.59614 615.28125 720.625 C 610.35195 721.162 605.39805 721.712 600.46875 722.25 C 561.17545 727.742 522.084 734.7035 483.6875 744.8125 C 450.3642 753.8345 416.98095 763.578 386.46875 780.125 C 370.24815 789.587 414.87325 866.05575 431.09375 856.59375 C 454.51335 843.10775 480.7622 835.9455 506.625 828.8125 C 541.2131 819.4865 576.5572 813.45075 612.0625 808.96875 C 616.0395 808.61775 619.99175 808.25825 623.96875 807.90625 C 642.19435 806.08811 634.04481 721.47536 616.125 720.59375 z "
     id="path12571" />
</svg>
