<?xml version="1.0" encoding="UTF-8" standalone="no"?>
<svg
   xmlns:dc="http://purl.org/dc/elements/1.1/"
   xmlns:cc="http://creativecommons.org/ns#"
   xmlns:rdf="http://www.w3.org/1999/02/22-rdf-syntax-ns#"
   xmlns:svg="http://www.w3.org/2000/svg"
   xmlns="http://www.w3.org/2000/svg"
   xmlns:sodipodi="http://sodipodi.sourceforge.net/DTD/sodipodi-0.dtd"
   xmlns:inkscape="http://www.inkscape.org/namespaces/inkscape"
   width="1024"
   height="1024"
   id="U9762"
   version="1.1"
   inkscape:version="0.48.0 r9654"
   sodipodi:docname="U+9762.svg">
  <metadata
     id="metadata16">
    <rdf:RDF>
      <cc:Work
         rdf:about="">
        <dc:format>image/svg+xml</dc:format>
        <dc:type
           rdf:resource="http://purl.org/dc/dcmitype/StillImage" />
      </cc:Work>
    </rdf:RDF>
  </metadata>
  <defs
     id="defs14" />
  <sodipodi:namedview
     pagecolor="#ffffff"
     bordercolor="#666666"
     borderopacity="1"
     objecttolerance="10"
     gridtolerance="10"
     guidetolerance="10"
     inkscape:pageopacity="0"
     inkscape:pageshadow="2"
     inkscape:window-width="640"
     inkscape:window-height="480"
     id="namedview12"
     showgrid="false"
     inkscape:zoom="0.27441406"
     inkscape:cx="512"
     inkscape:cy="512"
     inkscape:window-x="0"
     inkscape:window-y="25"
     inkscape:window-maximized="0"
     inkscape:current-layer="U9762" />
  <path
     style="fill:#c83737;fill-opacity:1;fill-rule:nonzero;stroke:#f9f9f9;stroke-width:0.1;stroke-miterlimit:4;stroke-dasharray:none"
     d="M 560.25 208.625 C 551.55754 208.61181 542.85258 208.73444 534.15625 209.03125 C 477.61365 211.16625 421.14355 215.219 364.96875 222.125 C 328.82015 226.349 292.4746 231.82975 256 231.09375 C 237.2809 229.61675 230.3434 317.86575 249.0625 319.34375 C 291.3816 319.61975 333.4095 313.1245 375.3125 307.9375 C 405.45935 304.08377 435.69615 301.1669 466 299.03125 C 455.97306 315.51782 446.43189 332.27872 437.34375 349.3125 C 428.51661 366.15379 420.96015 383.62544 412.65625 400.71875 C 389.71931 402.52909 366.85789 405.20627 344.125 409.09375 C 308.4168 415.28775 272.71085 422.292 238.40625 434.25 C 223.15385 439.86956 244.06235 502.86527 261.375 515.4375 C 241.32101 517.70259 223.08006 523.8185 223.75 532.40625 C 227.5657 570.78225 229.5038 609.29525 231.8125 647.78125 C 234.5874 694.47925 239.15925 741.07425 246.46875 787.28125 C 249.58667 808.06879 256.05897 827.98452 262.84375 847.78125 C 255.24346 870.98334 252.43777 898.90233 262.5625 901.65625 C 301.6367 910.66625 341.96155 910.9 381.84375 911.5 C 436.03325 911.208 490.1921 910.595 544.375 911.75 C 585.5178 913.16 626.59895 916.15275 667.59375 919.84375 C 691.86625 922.43875 716.3035 924.02175 740.3125 928.59375 C 744.1742 929.47575 748.1866 930.0075 751.8125 931.6875 C 754.96196 932.7048 758.4119 930.92768 761.84375 927.28125 C 786.04735 937.20007 820.12428 942.403 823.375 931.15625 C 824.4886 924.12625 825.58295 917.84775 825.71875 910.84375 C 827.80435 890.86575 831.58685 871.15525 835.84375 851.53125 C 844.69385 812.13025 855.55045 773.1935 867.71875 734.6875 C 879.47745 696.6575 891.98855 658.8655 902.84375 620.5625 C 909.15255 595.4015 915.3709 569.79625 912.25 543.65625 C 909.9801 528.49325 906.3301 513.614 898.75 500.125 C 893.5306 490.229 888.12605 480.31075 880.71875 471.84375 C 872.52805 463.24175 863.49215 455.75 853.28125 449.625 C 844.23585 443.509 835.39095 437.10575 826.03125 431.46875 C 812.13655 423.19775 797.83425 415.471 781.90625 411.875 C 761.91675 407.556 741.6644 404.63775 721.1875 404.09375 C 690.3493 403.30075 659.49375 403.95825 628.65625 403.03125 C 589.39584 401.6467 550.20519 398.91169 510.9375 397.84375 C 512.15147 395.30421 513.38762 392.76448 514.65625 390.25 C 527.92255 364.942 542.3757 340.23775 559.1875 317.09375 C 562.53851 312.17603 557.47612 303.7971 548.65625 295.15625 C 587.45272 294.74572 626.19707 297.80849 664.78125 301.625 C 691.43775 304.218 717.89925 308.245 743.96875 314.375 C 756.98429 317.93938 770.39486 320.23902 783.1875 324.59375 C 800.99853 325.93317 834.10946 250.5471 817.5625 243.125 C 814.8229 242.039 812.08335 240.96 809.34375 239.875 C 794.21705 235.456 778.7602 232.24875 763.4375 228.59375 C 733.6297 222.02375 703.44335 217.53575 673.03125 214.84375 C 635.53015 211.40281 597.91734 208.68214 560.25 208.625 z M 783.1875 324.59375 C 782.52792 324.43908 781.87843 324.27967 781.21875 324.125 C 781.85169 324.4089 782.50621 324.54252 783.1875 324.59375 z M 495.71875 484.15625 C 536.07887 484.99308 576.33288 487.88505 616.65625 489.6875 C 604.28125 490.59282 594.95665 493.71569 594.34375 499.65625 C 592.36242 527.8001 588.82723 555.79293 584.875 583.71875 C 567.51247 581.01047 550.07314 578.8676 532.625 576.75 C 519.01037 574.9595 505.38819 573.1639 491.78125 571.3125 C 490.36854 542.27347 488.51922 513.23369 487.28125 484.1875 C 490.08615 484.16503 492.91371 484.15932 495.71875 484.15625 z M 399.59375 488.9375 C 401.59893 518.24736 403.50694 547.56927 405.09375 576.90625 C 407.22125 621.58025 406.87985 666.292 407.40625 711 C 407.46275 741.282 409.26385 771.49525 411.78125 801.65625 C 412.28175 808.02825 413.01055 814.4115 412.90625 820.8125 C 412.97171 822.32388 413.61201 823.68302 414.71875 824.90625 C 404.31002 824.92293 393.90957 824.92854 383.5 824.90625 C 371.75139 824.63115 359.90667 824.4713 348.09375 824 C 341.81393 807.35695 335.4462 790.67165 332.5 773.03125 C 325.0212 729.96325 320.78195 686.41225 318.28125 642.78125 C 316.11815 603.69025 314.13425 564.61525 311.84375 525.53125 C 311.22336 517.57858 294.92061 514.25535 276.5 514.5 C 303.24881 505.00292 331.30628 499.64627 359.1875 494.65625 C 372.60768 492.29797 386.08119 490.418 399.59375 488.9375 z M 642.875 490.5625 C 668.0659 491.1167 693.25532 490.96859 718.4375 491.90625 C 733.3768 492.54325 748.16985 494.78825 762.71875 498.15625 C 769.10165 500.29225 774.80375 503.9795 780.53125 507.4375 C 788.36665 512.3135 795.84995 517.7345 803.46875 522.9375 C 805.70495 523.5345 815.9132 531.9595 814.625 531.0625 C 816.4351 534.5625 818.497 538.097 820.375 541.625 C 823.0696 546.069 824.0286 550.9885 824.625 556.0625 C 825.306 570.8685 821.1118 585.371 817.6875 599.625 C 807.5662 636.407 795.86035 672.7085 784.71875 709.1875 C 772.02125 749.7045 760.51905 790.6095 750.78125 831.9375 C 750.10783 834.8575 749.4329 837.76334 748.78125 840.6875 C 724.34748 836.99018 699.70359 835.06037 675.09375 832.84375 C 664.54337 831.97416 653.96516 831.14283 643.40625 830.375 C 644.19235 812.22476 645.30068 794.09402 647 776 C 651.4143 727.651 657.2321 679.43825 665.1875 631.53125 C 671.5054 590.67925 677.6476 549.79875 682.3125 508.71875 C 683.22988 499.827 663.74273 493.13993 642.875 490.5625 z M 493.78125 660.09375 C 502.92517 661.28822 512.0762 662.4877 521.21875 663.6875 C 538.18656 665.81193 555.1504 667.96866 572 670.875 C 570.38678 682.51997 568.83134 694.17845 567.375 705.84375 C 556.70737 704.84654 546.03887 703.90905 535.4375 702.3125 C 521.72071 700.35239 507.98388 698.25836 494.1875 696.96875 C 494.01717 684.67596 493.90888 672.38734 493.78125 660.09375 z M 498.75 785.90625 C 506.79975 786.92898 514.8367 788.20202 522.84375 789.375 C 534.47176 791.28553 546.20004 792.28963 557.90625 793.59375 C 556.9788 804.26265 556.12271 814.94389 555.34375 825.625 C 552.2401 825.52173 549.13556 825.39954 546.03125 825.3125 C 529.3132 825.0314 512.59185 824.89834 495.875 824.84375 C 499.63088 822.6241 501.81852 819.99358 501.6875 816.96875 C 501.0982 809.14775 500.4064 801.32325 499.5 793.53125 C 499.24047 790.98762 498.99554 788.45109 498.75 785.90625 z M 347.5 823.5 C 347.49222 823.42695 347.60944 823.62416 347.78125 823.96875 C 347.73966 823.96707 347.69784 823.97044 347.65625 823.96875 C 347.61148 823.83626 347.50408 823.53831 347.5 823.5 z "
     id="path11068" />
</svg>
