<?xml version="1.0" encoding="utf-8" ?>

<!DOCTYPE svg PUBLIC "-//W3C//DTD SVG 1.1//EN" 
  "http://www.w3.org/Graphics/SVG/1.1/DTD/svg11.dtd">
<svg 
    xmlns="http://www.w3.org/2000/svg"
    xmlns:xlink="http://www.w3.org/1999/xlink"
    xmlns:sodipodi="http://sodipodi.sourceforge.net/DTD/sodipodi-0.dtd"
    xmlns:inkscape="http://www.inkscape.org/namespaces/inkscape"
    width="1024" height="1024" id="U978B">
<path d="m 10323.241,54519.302 c 43.309,-6.511 86.611,-12.834 130.127,-17.821 63.914,-6.467 127.893,-12.258 191.768,-19.121 43.281,-4.652 86.422,-10.497 129.716,-15.031 10.1,-1.847 21.026,-0.929 30.93,-4 18.494,-3.558 35.268,83.625 16.773,87.183 l 0,0 c -13.078,2.14 -26.297,3.195 -39.512,4.095 -43.057,3.544 -85.949,8.746 -128.925,13.13 -63.535,6.545 -127.14,12.405 -190.639,19.286 -42.536,5.189 -84.896,11.532 -126.987,19.615 -18.527,2.811 -31.778,-84.525 -13.251,-87.336 z" id="path12003" inkscape:connector-curvature="0" style="fill:#916f6f;fill-opacity:1;fill-rule:nonzero;stroke:#f9f9f9;stroke-width:0.1;stroke-miterlimit:4;stroke-dasharray:none" transform="translate(-10240, -54272)"/><path d="m 10517.785,54429.722 c -0.58,36.619 0.446,73.242 2.397,109.806 2.853,30.205 4.206,61.641 15.31,90.242 6.028,17.66 -77.222,46.078 -83.25,28.418 l 0,0 c -11.743,-36.906 -16.348,-75.433 -18.639,-114.007 -2.063,-38.129 -3.205,-76.29 -4.289,-114.459 0,-18.767 88.471,-18.767 88.471,0 z" id="path12005" inkscape:connector-curvature="0" style="fill:#916f6f;fill-opacity:1;fill-rule:nonzero;stroke:#f9f9f9;stroke-width:0.1;stroke-miterlimit:4;stroke-dasharray:none" transform="translate(-10240, -54272)"/><path d="m 10708.272,54385.977 c -5.76,38.934 -8.469,78.264 -11.631,117.475 -3.603,44.41 -6.269,88.888 -7.989,133.409 -0.571,15.329 -0.712,30.67 -0.381,46.004 0.05,18.721 -88.196,18.975 -88.25,0.254 l 0,0 c 0.222,-16.73 0.605,-33.461 1.481,-50.172 2.316,-45.46 5.424,-90.873 8.951,-136.254 3.143,-41.246 5.962,-82.535 10.384,-123.669 2.748,-18.548 90.183,-5.594 87.435,12.953 z" id="path12007" inkscape:connector-curvature="0" style="fill:#916f6f;fill-opacity:1;fill-rule:nonzero;stroke:#f9f9f9;stroke-width:0.1;stroke-miterlimit:4;stroke-dasharray:none" transform="translate(-10240, -54272)"/><path d="m 10418.564,54677.721 c 33.261,-8.375 66.624,-16.268 100.212,-23.221 34.202,-6.539 68.52,-12.445 102.812,-18.484 10.935,-1.807 21.774,-4.111 32.696,-5.991 18.562,-2.875 32.112,84.629 13.55,87.503 l 0,0 c -10.608,1.38 -21.084,3.571 -31.681,5.032 -33.286,5.335 -66.564,10.752 -99.675,17.103 -32.434,6.772 -64.684,14.448 -96.46,23.873 -18.204,4.551 -39.658,-81.264 -21.454,-85.815 z" id="path12009" inkscape:connector-curvature="0" style="fill:#916f6f;fill-opacity:1;fill-rule:nonzero;stroke:#f9f9f9;stroke-width:0.1;stroke-miterlimit:4;stroke-dasharray:none" transform="translate(-10240, -54272)"/><path d="m 10461.973,54853.625 c 2.128,24.334 7.986,48.056 15.567,71.205 6.738,16.125 11.967,33.677 22.027,48.186 9.71,16.056 -65.981,61.832 -75.691,45.775 l 0,0 c -12.23,-21.268 -21.572,-44.07 -29.722,-67.179 -9.201,-29.084 -16.411,-58.72 -20.211,-89.035 -1.899,-18.674 86.131,-27.626 88.03,-8.952 z" id="path12011" inkscape:connector-curvature="0" style="fill:#916f6f;fill-opacity:1;fill-rule:nonzero;stroke:#f9f9f9;stroke-width:0.1;stroke-miterlimit:4;stroke-dasharray:none" transform="translate(-10240, -54272)"/><path d="m 10418.964,54813.859 c 27.962,-14.421 58.281,-23.086 88.703,-30.522 34.302,-8.13 69.503,-10.319 104.613,-11.339 23.396,-0.49 46.729,1.382 70.053,2.873 21.856,0.05 39.896,7.195 56.599,21.037 17.896,18.813 21.437,42.75 21.911,67.642 -1.204,29.646 -7.883,58.695 -13.783,87.67 -2.684,13.154 -5.307,26.32 -8.045,39.463 -4.051,18.298 -90.309,-0.798 -86.258,-19.096 l 0,0 c 2.984,-12.649 5.711,-25.356 8.417,-38.067 4.749,-22.766 9.972,-45.597 11.541,-68.853 0.02,-9.581 -2.559,-12.496 4.784,-4.801 11.108,7.232 16.04,4.144 -1.422,3.041 -20.478,-1.598 -40.964,-3.544 -61.529,-3.343 -28.897,0.646 -57.916,2.024 -86.17,8.665 -22.56,5.491 -45.288,11.625 -65.842,22.72 -16.353,9.243 -59.926,-67.847 -43.572,-77.09 z" id="path12019" inkscape:connector-curvature="0" style="fill:#916f6f;fill-opacity:1;fill-rule:nonzero;stroke:#f9f9f9;stroke-width:0.1;stroke-miterlimit:4;stroke-dasharray:none" transform="translate(-10240, -54272)"/><path d="m 10452.744,54981.196 c 30.394,-0.212 60.572,-4.629 90.666,-8.462 34.606,-4.471 69.328,-7.937 104.099,-10.82 18.614,-1.359 37.274,-2.751 55.945,-2.103 18.768,0.941 14.335,89.414 -4.433,88.473 l 0,0 c -14.872,-1.315 -29.905,0.617 -44.768,1.046 -33.323,2.369 -66.597,5.439 -99.731,9.739 -34.079,4.431 -68.181,9.322 -102.561,10.637 -18.776,-0.166 -17.992,-88.676 0.783,-88.51 z" id="path12021" inkscape:connector-curvature="0" style="fill:#916f6f;fill-opacity:1;fill-rule:nonzero;stroke:#f9f9f9;stroke-width:0.1;stroke-miterlimit:4;stroke-dasharray:none" transform="translate(-10240, -54272)"/><path d="m 10598.084,54690.676 c -0.01,39.892 0.112,79.785 0.169,119.677 0.564,82.937 -2.812,165.801 -7.07,248.606 -4.029,69.939 -8.027,139.88 -11.178,209.866 -1.003,18.33 -87.411,13.602 -86.408,-4.728 l 0,0 c 4.494,-69.822 9.14,-139.634 13.234,-209.481 4.18,-81.094 7.193,-162.271 5.414,-243.489 -0.657,-39.666 -1.129,-79.344 -2.62,-118.989 -0.31,-18.765 88.149,-20.227 88.459,-1.462 z" id="path12033" inkscape:connector-curvature="0" style="fill:#916f6f;fill-opacity:1;fill-rule:nonzero;stroke:#f9f9f9;stroke-width:0.1;stroke-miterlimit:4;stroke-dasharray:none" transform="translate(-10240, -54272)"/><path d="m 10387.716,55097.697 c 35.687,2.614 71.494,-2.798 106.885,-6.876 53.555,-6.597 107.434,-9.516 161.368,-9.66 25.811,-0.208 51.436,2.41 76.886,6.421 18.336,3.1 3.726,89.533 -14.609,86.434 l 0,0 c -20.615,-3.809 -41.444,-6.091 -62.444,-6.141 -50.477,-0.353 -100.92,2.266 -151.014,8.714 -42.697,5.218 -85.746,11.672 -128.862,8.795 -18.601,-2.501 -6.811,-90.188 11.79,-87.687 z" id="path12035" inkscape:connector-curvature="0" style="fill:#916f6f;fill-opacity:1;fill-rule:nonzero;stroke:#f9f9f9;stroke-width:0.1;stroke-miterlimit:4;stroke-dasharray:none" transform="translate(-10240, -54272)"/><path d="m 10835.75,54593.836 c 34.819,-3.23 69.696,-5.41 104.629,-6.911 45.206,-1.48 90.398,-3.427 135.634,-3.337 27.761,-0.02 55.41,2.495 82.88,6.303 1.67,0.171 3.34,0.341 5.01,0.512 18.624,2.294 7.81,90.092 -10.815,87.798 l 0,0 c -2.451,-0.337 -4.901,-0.674 -7.352,-1.011 -23.247,-3.838 -46.702,-6.344 -70.291,-6.526 -43.713,-0.503 -87.396,1.305 -131.072,2.935 -33.303,1.644 -66.594,3.798 -99.652,8.318 -18.685,1.903 -27.656,-86.178 -8.971,-88.081 z" id="path12037" inkscape:connector-curvature="0" style="fill:#916f6f;fill-opacity:1;fill-rule:nonzero;stroke:#f9f9f9;stroke-width:0.1;stroke-miterlimit:4;stroke-dasharray:none" transform="translate(-10240, -54272)"/><path d="m 11051.423,54469.649 c -4.302,36.848 -6.512,73.915 -9.351,110.898 -3.975,49.395 -8.23,98.772 -9.928,148.307 -0.497,14.732 -0.09,29.464 0.378,44.189 0.369,18.614 -87.381,20.353 -87.75,1.738 l 0,0 c -0.149,-16.485 -0.255,-32.976 0.521,-49.451 2.343,-50.442 6.797,-100.736 10.59,-151.083 2.652,-38.21 4.728,-76.456 7.561,-114.653 2.133,-18.663 90.112,-8.608 87.979,10.055 z" id="path12041" inkscape:connector-curvature="0" style="fill:#916f6f;fill-opacity:1;fill-rule:nonzero;stroke:#f9f9f9;stroke-width:0.1;stroke-miterlimit:4;stroke-dasharray:none" transform="translate(-10240, -54272)"/><path d="m 10800.624,54795.222 c 32.909,-2.226 65.923,-1.698 98.885,-1.865 41.967,0.35 83.681,-4.212 125.346,-8.578 34.375,-3.858 68.872,-6.38 103.441,-7.493 10.17,-0.203 20.336,-0.571 30.499,-0.998 18.776,-0.53 21.276,87.982 2.499,88.512 l 0,0 c -10.298,0.157 -20.597,0.302 -30.897,0.307 -32.275,0.48 -64.491,2.551 -96.582,6.085 -44.423,4.556 -88.888,9.309 -133.613,9.182 -30.2,0.327 -60.532,-0.207 -90.606,2.929 -18.685,1.903 -27.656,-86.178 -8.972,-88.081 z" id="path12045" inkscape:connector-curvature="0" style="fill:#916f6f;fill-opacity:1;fill-rule:nonzero;stroke:#f9f9f9;stroke-width:0.1;stroke-miterlimit:4;stroke-dasharray:none" transform="translate(-10240, -54272)"/><path d="m 10844.601,54967.034 c 33.501,-0.352 66.849,-4.028 100.158,-7.298 43.441,-4.386 86.955,-8.06 130.585,-9.821 25.181,-0.832 50.373,-0.04 75.505,1.51 1.024,-0.01 2.049,-0.03 3.073,-0.04 18.783,0.6 15.95,89.144 -2.832,88.543 l 0,0 c -2.313,-0.12 -4.625,-0.239 -6.937,-0.358 -21.84,-1.982 -43.77,-3.027 -65.708,-2.556 -41.767,1.268 -83.417,4.765 -124.969,9.125 -35.772,3.705 -71.546,7.582 -107.482,9.321 -18.759,0.295 -20.151,-88.133 -1.393,-88.429 z" id="path12047" inkscape:connector-curvature="0" style="fill:#916f6f;fill-opacity:1;fill-rule:nonzero;stroke:#f9f9f9;stroke-width:0.1;stroke-miterlimit:4;stroke-dasharray:none" transform="translate(-10240, -54272)"/><path d="m 11093.38,54879.765 c -11.932,33.11 -17.407,68.068 -22.697,102.723 -5.87,41.734 -9.793,83.717 -12.322,125.778 -0.974,16.977 -1.123,33.975 -0.84,50.971 0.11,18.668 -87.893,19.188 -88.003,0.52 l 0,0 c 0.06,-19.08 0.529,-38.156 1.83,-57.198 3.141,-44.463 7.503,-88.844 13.643,-132.999 6.037,-40.449 12.693,-80.988 25.341,-119.994 6.406,-17.618 89.454,12.582 83.048,30.199 z" id="path12049" inkscape:connector-curvature="0" style="fill:#916f6f;fill-opacity:1;fill-rule:nonzero;stroke:#f9f9f9;stroke-width:0.1;stroke-miterlimit:4;stroke-dasharray:none" transform="translate(-10240, -54272)"/><path d="m 10748.123,55141.2 c 37.336,-5.628 74.887,-9.639 112.389,-13.967 52.282,-6.056 104.628,-11.552 157.045,-16.3 36.823,-3.649 73.814,-4.782 110.797,-4.747 16.981,-0.332 33.875,1.2 50.649,3.683 18.573,2.942 4.706,90.498 -13.868,87.557 l 0,0 c -12.423,-2.135 -24.926,-3.633 -37.567,-3.47 -34.181,-0.61 -68.388,0.07 -102.449,3.231 -51.541,4.364 -103.001,9.655 -154.342,15.956 -35.909,4.437 -71.945,8.371 -107.492,15.241 -18.494,3.217 -33.657,-83.968 -15.162,-87.184 z" id="path12051" inkscape:connector-curvature="0" style="fill:#916f6f;fill-opacity:1;fill-rule:nonzero;stroke:#f9f9f9;stroke-width:0.1;stroke-miterlimit:4;stroke-dasharray:none" transform="translate(-10240, -54272)"/></svg>