<?xml version="1.0" encoding="UTF-8" standalone="no"?>
<svg
   xmlns:dc="http://purl.org/dc/elements/1.1/"
   xmlns:cc="http://creativecommons.org/ns#"
   xmlns:rdf="http://www.w3.org/1999/02/22-rdf-syntax-ns#"
   xmlns:svg="http://www.w3.org/2000/svg"
   xmlns="http://www.w3.org/2000/svg"
   xmlns:sodipodi="http://sodipodi.sourceforge.net/DTD/sodipodi-0.dtd"
   xmlns:inkscape="http://www.inkscape.org/namespaces/inkscape"
   width="1024"
   height="1024"
   id="U9752"
   version="1.1"
   inkscape:version="0.48.0 r9654"
   sodipodi:docname="U+9752.svg">
  <metadata
     id="metadata15">
    <rdf:RDF>
      <cc:Work
         rdf:about="">
        <dc:format>image/svg+xml</dc:format>
        <dc:type
           rdf:resource="http://purl.org/dc/dcmitype/StillImage" />
      </cc:Work>
    </rdf:RDF>
  </metadata>
  <defs
     id="defs13" />
  <sodipodi:namedview
     pagecolor="#ffffff"
     bordercolor="#666666"
     borderopacity="1"
     objecttolerance="10"
     gridtolerance="10"
     guidetolerance="10"
     inkscape:pageopacity="0"
     inkscape:pageshadow="2"
     inkscape:window-width="640"
     inkscape:window-height="480"
     id="namedview11"
     showgrid="false"
     inkscape:zoom="0.27441406"
     inkscape:cx="512"
     inkscape:cy="512"
     inkscape:window-x="0"
     inkscape:window-y="25"
     inkscape:window-maximized="0"
     inkscape:current-layer="U9752" />
  <path
     style="fill:#a02c2c;fill-opacity:1;fill-rule:nonzero;stroke:#f9f9f9;stroke-width:0.1;stroke-miterlimit:4;stroke-dasharray:none"
     d="M 457.1875 -11.46875 C 443.34416 -11.569366 432.38869 -8.9895312 431.40625 -2.625 C 426.45124 49.20914 427.22007 101.39672 427.875 153.4375 C 426.11582 153.38606 424.35286 153.33645 422.59375 153.28125 C 385.2324 152.00525 347.88088 150.137 310.84375 144.75 C 292.19205 142.844 283.2233 230.7815 301.875 232.6875 C 341.1158 236.7585 380.4555 238.64025 419.875 239.78125 C 422.89544 239.8683 425.91691 239.95446 428.9375 240.03125 C 429.18258 258.1294 429.44511 276.24668 429.75 294.34375 C 410.16731 296.3769 390.55275 298.01942 370.875 299.03125 C 352.23421 300.93325 361.20296 388.80825 379.84375 386.90625 C 397.09545 385.27103 414.31665 383.4907 431.53125 381.5625 C 431.93147 397.70834 432.38104 413.85632 432.875 430 C 433.07311 435.07508 433.27065 440.14407 433.46875 445.21875 C 402.39884 449.56123 371.29434 453.64096 340.09375 456.96875 C 285.10176 462.42875 229.99735 466.7305 174.9375 471.4375 C 174.46075 471.47964 174.06382 471.5207 173.59375 471.5625 C 167.52055 460.72007 160.709 453.56523 155.0625 455.53125 C 137.01988 462.27625 119.01331 469.16425 102.5625 479.28125 C 75.693597 507.71225 73.28059 501.14325 113.59375 560.53125 C 117.85292 566.80625 175.67518 559.02225 183.5625 558.15625 C 238.60885 552.56125 293.74946 548.02525 348.78125 542.28125 C 422.64511 533.95725 495.98533 521.70525 569.65625 511.90625 C 621.04115 504.95125 672.74004 500.93025 724.5625 499.65625 C 737.03733 499.86925 749.41072 499.23925 761.8125 498.03125 C 780.39827 495.74325 769.61702 408.11825 751.03125 410.40625 C 741.27239 412.23625 731.32721 411.9415 721.4375 412.4375 C 666.84288 414.9515 612.38614 419.8475 558.25 427.4375 C 545.06423 429.23767 531.89307 431.10988 518.71875 433 L 518.34375 426.75 C 517.49855 408.11559 516.75531 389.48523 516.125 370.84375 C 537.65927 367.92312 559.21787 365.29235 580.875 363.4375 C 599.33597 361.6275 590.80472 274.59625 572.34375 276.40625 C 552.81805 278.53529 533.36271 281.09113 513.90625 283.75 C 513.65483 269.52429 513.43178 255.29003 513.28125 241.0625 C 533.23191 241.08852 553.20622 240.99565 573.15625 240.84375 C 594.07308 240.71675 614.96535 240.278 635.875 239.75 C 654.36373 239.163 651.61373 152.00675 633.125 152.59375 C 612.85325 153.37675 592.56938 154.06 572.28125 154.25 C 552.48941 154.49635 532.69961 154.64025 512.90625 154.625 C 512.80201 106.65017 512.56113 58.471642 518.6875 10.875 C 520.56307 -1.2754687 483.6157 -11.276665 457.1875 -11.46875 z M 644.5 508.9375 C 632.02779 508.88524 619.57065 509.4275 607.34375 510.0625 C 549.75213 515.8105 492.71952 526.03625 436.90625 541.53125 C 397.30338 553.28325 357.88394 566.614 323.03125 589.375 C 317.22465 593.47755 320.93441 606.40546 328.625 620.28125 C 312.54964 623.32221 299.6823 628.90862 300.3125 636.15625 C 305.43465 679.36025 314.72771 721.902 323.9375 764.375 C 335.23349 814.636 347.8624 864.54275 362.375 913.96875 C 365.47289 925.36775 369.07167 936.584 373.25 947.625 C 380.5975 964.905 462.06625 930.24875 454.71875 912.96875 C 450.20993 905.56275 449.12142 896.502 445.78125 888.625 C 443.53581 881.49483 441.35267 874.34835 439.21875 867.1875 C 474.36556 871.29716 509.83312 872.08852 545.15625 873.875 C 571.67539 875.092 598.06041 877.71275 624.3125 881.59375 C 642.77796 884.10175 654.62171 797.0705 636.15625 794.5625 C 607.39863 790.9585 578.51792 788.4415 549.5625 787.0625 C 516.01979 785.3435 482.26368 784.5745 449 779.6875 C 439.82132 777.71559 430.60255 798.39395 425.96875 820.03125 C 421.73968 804.01993 417.77408 787.94417 414 771.8125 C 445.57195 762.57358 478.03564 756.68203 510.46875 751.34375 C 555.73431 744.31375 601.42769 740.894 647.125 738.25 C 655.89005 738.748 665.7658 736.09975 674.34375 739.09375 C 692.87331 741.71975 705.27956 654.376 686.75 651.75 C 671.62549 650.21 656.62032 649.5625 641.4375 651.3125 C 593.0295 654.8315 544.60811 658.714 496.59375 666 C 462.86644 671.41739 429.20555 677.50826 396.0625 685.78125 C 394.04059 674.38969 392.23908 662.97664 390.8125 651.5 C 413.09657 639.46693 437.50628 631.76023 461.71875 624.4375 C 512.04224 610.2285 563.51612 600.74325 615.5625 596.03125 C 643.65193 595.63525 676.73726 592.0535 701.0625 609.1875 C 714.66128 623.5395 717.42001 644.81425 720.4375 663.53125 C 725.58106 710.94925 722.73318 758.7605 719.28125 806.1875 C 715.45384 849.2895 710.89623 892.3165 706.03125 935.3125 C 705.0575 945.0655 703.84094 957.08125 700.75 965.53125 C 694.2451 983.11925 777.15135 1013.7755 783.65625 996.1875 C 789.02306 979.3045 791.92113 962.235 792.90625 944.5 C 797.22914 900.477 801.55161 856.447 805.34375 812.375 C 809.19804 758.102 812.48205 703.38925 806.28125 649.15625 C 798.4313 603.40925 784.94145 559.9545 744.1875 532.9375 C 737.72232 529.5495 731.52757 525.64225 724.8125 522.78125 C 699.47592 511.98681 671.93887 509.05248 644.5 508.9375 z "
     id="path11199" />
</svg>
