<?xml version="1.0" encoding="utf-8" ?>

<!DOCTYPE svg PUBLIC "-//W3C//DTD SVG 1.1//EN" 
  "http://www.w3.org/Graphics/SVG/1.1/DTD/svg11.dtd">
<svg 
    xmlns="http://www.w3.org/2000/svg"
    xmlns:xlink="http://www.w3.org/1999/xlink"
    xmlns:sodipodi="http://sodipodi.sourceforge.net/DTD/sodipodi-0.dtd"
    xmlns:inkscape="http://www.inkscape.org/namespaces/inkscape"
    width="1024" height="1024" id="U9700">
<path d="m 10537.448,55394.446 c 36.993,-8.904 74.7,-14.05 112.431,-18.571 49.146,-5.504 98.548,-8.043 147.851,-11.638 27.057,-1.996 54.124,-4.052 81.097,-6.999 1.781,-0.19 3.563,-0.381 5.344,-0.571 18.735,-1.506 25.832,86.809 7.098,88.314 l 0,0 c -1.475,0.07 -2.95,0.143 -4.425,0.214 -27.71,2.06 -55.432,3.97 -83.166,5.68 -47.781,3.083 -95.645,5.409 -143.224,10.983 -33.642,4.252 -67.405,8.817 -100.108,18.072 -18.134,4.857 -41.032,-80.627 -22.898,-85.484 z" id="path12549" inkscape:connector-curvature="0" style="fill:#916f6f;fill-opacity:1;fill-rule:nonzero;stroke:#f9f9f9;stroke-width:0.1;stroke-miterlimit:4;stroke-dasharray:none" transform="translate(-10240, -55296)"/><path d="m 10481.429,55622.176 c -3.887,29.593 -3.437,59.549 -2.661,89.319 1.11,25.424 2.808,50.859 5.761,76.142 1.573,8.44 1.347,4.986 -3.715,-8.138 10.17,15.883 -64.705,63.829 -74.876,47.945 l 0,0 c -4.696,-10.698 -8.921,-19.313 -9.238,-30.979 -2.401,-27.54 -3.992,-55.16 -5.05,-82.782 -0.84,-34.639 -1.178,-69.381 2.146,-103.915 2.632,-18.59 90.265,-6.182 87.633,12.408 z" id="path12591" inkscape:connector-curvature="0" style="fill:#916f6f;fill-opacity:1;fill-rule:nonzero;stroke:#f9f9f9;stroke-width:0.1;stroke-miterlimit:4;stroke-dasharray:none" transform="translate(-10240, -55296)"/><path d="m 10442.875,55588.828 c 32.179,-14.267 66.661,-21.778 100.938,-29.007 56.191,-11.747 113.347,-17.292 170.496,-21.71 54.932,-3.75 109.96,-5.964 165.006,-7.024 34.453,-0.394 68.93,-1.267 103.36,0.391 27.768,0.592 51.559,9.286 72.818,26.87 21.384,21.799 25.614,50.176 27.023,79.329 0.535,33.055 -2.534,66.022 -5.678,98.887 -3.049,30.193 -6.312,60.376 -12.409,90.123 -1.06,4.021 -2.119,8.041 -3.179,12.062 -4.961,18.012 -89.873,-5.375 -84.912,-23.388 l 0,0 c 0.704,-2.381 1.407,-4.762 2.111,-7.143 6.022,-26.289 8.469,-53.207 11.443,-79.969 2.746,-28.718 5.361,-57.533 4.811,-86.416 -0.1,-2.192 -4.194,-21.04 1.011,-18.32 7.594,2.151 -16.282,-7.992 -17.931,-4.336 -32.334,-2.108 -64.77,-1.391 -97.153,-1.424 -53.267,0.581 -106.523,2.475 -159.675,6.098 -53.265,4.14 -106.548,9.375 -158.818,20.871 -27.538,6.095 -55.549,11.914 -81.214,24.006 -16.949,8.071 -54.997,-71.829 -38.048,-79.9 z" id="path12593" inkscape:connector-curvature="0" style="fill:#916f6f;fill-opacity:1;fill-rule:nonzero;stroke:#f9f9f9;stroke-width:0.1;stroke-miterlimit:4;stroke-dasharray:none" transform="translate(-10240, -55296)"/><path d="m 10761.954,55369.602 c -0.558,43.874 -2.978,87.685 -5.486,131.481 -3.595,59.148 -6.912,118.314 -8.979,177.537 -1.359,35.645 -0.403,71.302 2.163,106.863 1.042,12.398 0.412,6.761 1.74,16.93 2.05,18.602 -85.642,28.266 -87.692,9.664 l 0,0 c -1.331,-13.798 -0.769,-6.749 -1.654,-21.148 -2.045,-38.522 -2.65,-77.108 -0.84,-115.661 2.546,-59.619 6.104,-119.186 9.344,-178.77 2.075,-42.014 4.264,-84.095 2.941,-126.171 -0.154,-18.766 88.309,-19.491 88.463,-0.725 z" id="path12609" inkscape:connector-curvature="0" style="fill:#916f6f;fill-opacity:1;fill-rule:nonzero;stroke:#f9f9f9;stroke-width:0.1;stroke-miterlimit:4;stroke-dasharray:none" transform="translate(-10240, -55296)"/><path d="m 10558.852,55668.86 c 13.886,14.926 29.047,28.583 44.13,42.273 1.941,1.775 3.882,3.551 5.823,5.326 13.714,12.762 -46.444,77.41 -60.158,64.649 l 0,0 c -1.817,-1.721 -3.633,-3.443 -5.45,-5.164 -16.102,-15.091 -32.295,-30.089 -47.974,-45.624 -13.037,-13.498 50.591,-74.957 63.629,-61.46 z" id="path12611" inkscape:connector-curvature="0" style="fill:#916f6f;fill-opacity:1;fill-rule:nonzero;stroke:#f9f9f9;stroke-width:0.1;stroke-miterlimit:4;stroke-dasharray:none" transform="translate(-10240, -55296)"/><path d="m 10530.483,55774.393 c 21.143,15.243 42.928,29.557 65.112,43.233 12.376,7.235 6.332,3.8 18.116,10.332 16.255,9.176 -27.002,85.804 -43.258,76.628 l 0,0 c -13.844,-7.933 -6.785,-3.797 -21.164,-12.431 -22.886,-14.322 -45.311,-29.336 -67.855,-44.188 -15.608,-10.405 33.441,-83.979 49.049,-73.574 z" id="path12613" inkscape:connector-curvature="0" style="fill:#916f6f;fill-opacity:1;fill-rule:nonzero;stroke:#f9f9f9;stroke-width:0.1;stroke-miterlimit:4;stroke-dasharray:none" transform="translate(-10240, -55296)"/><path d="m 10827.593,55637.877 c 22.608,11.342 44.8,23.472 66.771,35.993 13.819,7.956 7.095,4.086 20.172,11.611 16.127,9.391 -28.144,85.414 -44.27,76.023 l 0,0 c -12.727,-7.501 -6.229,-3.685 -19.497,-11.446 -20.099,-11.551 -40.39,-22.848 -61.523,-32.419 -16.92,-8.135 21.427,-87.896 38.347,-79.762 z" id="path12615" inkscape:connector-curvature="0" style="fill:#916f6f;fill-opacity:1;fill-rule:nonzero;stroke:#f9f9f9;stroke-width:0.1;stroke-miterlimit:4;stroke-dasharray:none" transform="translate(-10240, -55296)"/><path d="m 10818.261,55764.814 c 19.686,16.113 41.849,28.814 63.29,42.392 3.871,2.573 7.742,5.146 11.613,7.719 15.454,10.384 -33.501,83.234 -48.955,72.849 l 0,0 c -3.255,-2.216 -6.509,-4.432 -9.764,-6.648 -24.546,-15.745 -49.784,-30.532 -72.873,-48.426 -14.401,-12.025 42.288,-79.911 56.689,-67.886 z" id="path12619" inkscape:connector-curvature="0" style="fill:#916f6f;fill-opacity:1;fill-rule:nonzero;stroke:#f9f9f9;stroke-width:0.1;stroke-miterlimit:4;stroke-dasharray:none" transform="translate(-10240, -55296)"/><path d="m 10485.845,55905.135 c 46.272,-2.755 92.116,-10.002 137.88,-17.067 62.924,-10.511 126.293,-17.832 189.864,-22.965 52.844,-3.85 105.845,-4.852 158.811,-4.361 34.272,0.904 68.487,3.239 102.711,5.204 11.464,0.752 22.923,1.578 34.347,2.8 18.643,2.283 7.882,90.168 -10.761,87.885 l 0,0 c -9.709,-1.426 -19.503,-2.171 -29.274,-3.049 -32.689,-2.367 -65.381,-4.913 -98.14,-6.081 -50.329,-0.84 -100.703,-0.104 -150.935,3.367 -61.373,4.711 -122.564,11.618 -183.252,22.043 -47.803,7.683 -95.64,15.284 -143.824,20.205 -18.664,1.576 -26.091,-86.405 -7.427,-87.981 z" id="path12623" inkscape:connector-curvature="0" style="fill:#916f6f;fill-opacity:1;fill-rule:nonzero;stroke:#f9f9f9;stroke-width:0.1;stroke-miterlimit:4;stroke-dasharray:none" transform="translate(-10240, -55296)"/><path d="m 10734.932,55983.399 c -16.955,23.292 -30.527,48.815 -44.497,73.948 -10.453,19.027 -21.177,37.902 -32.056,56.688 -9.412,16.036 -85.006,-28.331 -75.594,-44.367 l 0,0 c 10.747,-18.054 21.274,-36.238 31.367,-54.667 15.778,-28.46 31.256,-57.166 49.582,-84.101 11.137,-15.103 82.334,37.396 71.198,52.499 z" id="path12625" inkscape:connector-curvature="0" style="fill:#916f6f;fill-opacity:1;fill-rule:nonzero;stroke:#f9f9f9;stroke-width:0.1;stroke-miterlimit:4;stroke-dasharray:none" transform="translate(-10240, -55296)"/><path d="m 10575.03,56133.687 c -4.625,22.736 -2.943,45.853 0.162,68.637 3.601,21.566 9.761,42.656 19.322,62.334 0.794,1.353 1.588,2.706 2.382,4.06 8.83,16.529 -69.09,58.155 -77.92,41.626 l 0,0 c -1.524,-2.987 -3.049,-5.974 -4.573,-8.961 -12.375,-27.988 -21.366,-57.316 -25.931,-87.635 -4.119,-32.089 -5.832,-64.462 -0.379,-96.549 3.498,-18.442 90.435,-1.954 86.937,16.488 z" id="path12627" inkscape:connector-curvature="0" style="fill:#916f6f;fill-opacity:1;fill-rule:nonzero;stroke:#f9f9f9;stroke-width:0.1;stroke-miterlimit:4;stroke-dasharray:none" transform="translate(-10240, -55296)"/><path d="m 10535.799,56091.42 c 33.528,-16.077 69.861,-25.042 105.823,-33.818 45.9,-10.523 92.574,-17.124 139.274,-22.869 39.386,-4.76 78.997,-7.14 118.659,-7.144 28.927,-0.241 56.853,4.494 83.355,15.992 29.551,14.888 43.548,41.45 52.31,71.955 7.813,33.26 6.785,67.47 4.578,101.29 -1.96,22.429 -4.242,44.86 -8.188,67.033 -3.565,18.366 -90.141,1.561 -86.577,-16.805 l 0,0 c 4.091,-18.411 5.494,-37.334 7.476,-56.054 1.645,-24.002 2.852,-48.324 -2.075,-72.054 -1.228,-4.909 -1.781,-11.198 -4.675,-15.35 -13.769,-8.231 -31.293,-7.187 -46.667,-8.541 -35.994,-0.417 -71.956,1.677 -107.716,5.835 -43.256,5.198 -86.493,11.245 -128.975,21.082 -28.401,7.067 -57.318,14.006 -83.756,26.871 -16.424,9.089 -59.27,-68.334 -42.846,-77.423 z" id="path12629" inkscape:connector-curvature="0" style="fill:#916f6f;fill-opacity:1;fill-rule:nonzero;stroke:#f9f9f9;stroke-width:0.1;stroke-miterlimit:4;stroke-dasharray:none" transform="translate(-10240, -55296)"/><path d="m 10752.125,56134.898 c -2.257,23.212 0.842,46.481 4.843,69.32 0.826,3.751 1.652,7.502 2.478,11.253 3.856,18.206 -81.966,36.384 -85.822,18.178 l 0,0 c -1.013,-4.927 -2.025,-9.853 -3.037,-14.78 -5.13,-31.037 -8.71,-62.474 -6.351,-93.975 2.122,-18.644 90.011,-8.64 87.889,10.004 z" id="path12631" inkscape:connector-curvature="0" style="fill:#916f6f;fill-opacity:1;fill-rule:nonzero;stroke:#f9f9f9;stroke-width:0.1;stroke-miterlimit:4;stroke-dasharray:none" transform="translate(-10240, -55296)"/><path d="m 10887.85,56105.394 c -4.201,30.085 -6.348,60.404 -8.872,90.662 -1.708,20.224 -3.451,40.445 -5.046,60.678 -1.592,18.549 -89.034,11.041 -87.442,-7.508 l 0,0 c 1.87,-20.139 3.796,-40.274 5.519,-60.426 2.618,-31.377 4.982,-62.775 8.036,-94.114 2.272,-18.627 90.077,-7.919 87.805,10.708 z" id="path12633" inkscape:connector-curvature="0" style="fill:#916f6f;fill-opacity:1;fill-rule:nonzero;stroke:#f9f9f9;stroke-width:0.1;stroke-miterlimit:4;stroke-dasharray:none" transform="translate(-10240, -55296)"/></svg>