<?xml version="1.0" encoding="UTF-8" standalone="no"?>
<svg
   xmlns:dc="http://purl.org/dc/elements/1.1/"
   xmlns:cc="http://creativecommons.org/ns#"
   xmlns:rdf="http://www.w3.org/1999/02/22-rdf-syntax-ns#"
   xmlns:svg="http://www.w3.org/2000/svg"
   xmlns="http://www.w3.org/2000/svg"
   xmlns:sodipodi="http://sodipodi.sourceforge.net/DTD/sodipodi-0.dtd"
   xmlns:inkscape="http://www.inkscape.org/namespaces/inkscape"
   width="1024"
   height="1024"
   id="U9759"
   version="1.1"
   inkscape:version="0.48.0 r9654"
   sodipodi:docname="U+9759.svg">
  <metadata
     id="metadata21">
    <rdf:RDF>
      <cc:Work
         rdf:about="">
        <dc:format>image/svg+xml</dc:format>
        <dc:type
           rdf:resource="http://purl.org/dc/dcmitype/StillImage" />
      </cc:Work>
    </rdf:RDF>
  </metadata>
  <defs
     id="defs19" />
  <sodipodi:namedview
     pagecolor="#ffffff"
     bordercolor="#666666"
     borderopacity="1"
     objecttolerance="10"
     gridtolerance="10"
     guidetolerance="10"
     inkscape:pageopacity="0"
     inkscape:pageshadow="2"
     inkscape:window-width="640"
     inkscape:window-height="480"
     id="namedview17"
     showgrid="false"
     inkscape:zoom="0.27441406"
     inkscape:cx="512"
     inkscape:cy="512"
     inkscape:window-x="-1280"
     inkscape:window-y="25"
     inkscape:window-maximized="0"
     inkscape:current-layer="U9759" />
  <path
     style="fill:#2b0000;fill-opacity:1;fill-rule:nonzero;stroke:#f9f9f9;stroke-width:0.1;stroke-miterlimit:4;stroke-dasharray:none"
     d="M 287.03125 142 C 260.29537 141.92323 222.82108 151.62691 224.59375 163.9375 C 227.38305 183.75062 228.41734 203.72764 228.59375 223.71875 C 203.39207 226.08761 178.14054 228.20634 152.8125 228.15625 C 133.85857 228.63425 136.10857 317.977 155.0625 317.5 C 178.77058 316.58078 202.41591 314.66886 226.03125 312.46875 C 225.23887 326.74714 224.2957 341.01445 223.3125 355.28125 C 211.66155 356.34296 200.02068 357.44213 188.375 358.5625 C 169.56778 360.9735 180.91153 449.62975 199.71875 447.21875 C 205.37756 446.46274 211.04625 445.76687 216.71875 445.125 C 216.33761 450.36406 215.96068 455.60389 215.59375 460.84375 C 215.55419 461.45798 215.53841 462.07322 215.5 462.6875 C 208.80403 463.52881 202.1007 464.39266 195.40625 465.25 C 154.87526 469.988 114.27306 474.88675 73.4375 475.84375 C 54.502027 476.58275 57.970777 565.83375 76.90625 565.09375 C 120.04825 562.27375 162.98902 557.101 205.875 551.75 C 208.13391 551.44422 210.397 551.14632 212.65625 550.84375 C 212.59886 554.62608 212.55678 558.4056 212.5 562.1875 C 212.48629 567.88365 220.59886 571.90039 231.90625 574.1875 C 215.13573 579.75295 198.77736 586.46826 183.25 595.1875 C 176.81113 599.02459 180.10754 613.34191 187.40625 628.65625 C 161.83129 628.78121 131.2907 635.92589 132.21875 647.0625 C 135.76655 681.4335 138.23967 715.9115 141.5 750.3125 C 145.66004 787.1135 148.03167 824.07625 150.28125 861.03125 C 151.17793 875.57325 151.70833 890.14625 154.125 904.53125 C 158.08303 923.14625 245.83303 904.49 241.875 885.875 C 241.72599 888.193 241.8512 887.74675 241.1875 882.84375 C 239.93559 873.59375 239.46799 864.25875 238.625 854.96875 C 236.42687 826.17835 234.33056 797.37196 231.625 768.625 C 256.79357 768.00004 281.94036 767.35755 307.0625 765.59375 C 323.64343 764.66575 340.05119 761.55825 356.625 760.65625 C 375.52023 758.98125 367.61398 669.91875 348.71875 671.59375 C 332.69976 673.32575 316.79453 676.02725 300.71875 677.28125 C 275.74827 679.11725 250.72436 679.67575 225.6875 679.34375 C 225.08503 679.35424 224.49865 679.44044 223.9375 679.625 C 223.76843 677.23784 223.60216 674.85624 223.4375 672.46875 C 225.53057 673.04732 227.42407 672.95786 229.03125 672 C 249.00622 660.078 271.48121 653.9375 293.875 648.4375 C 320.79568 642.1235 348.27373 639.4545 375.875 640.1875 C 389.62651 641.4495 404.16139 642.27725 416.6875 648.65625 C 421.33693 650.93325 421.84321 654.103 423.21875 658.375 C 428.05768 679.262 427.83198 700.91175 428.125 722.21875 C 427.99297 765.57075 425.71982 808.8615 424.40625 852.1875 C 423.72245 878.4525 425.21947 904.817 421.28125 930.875 C 420.25871 935.509 420.366 936.32125 420.4375 933.15625 C 414.56438 951.22325 499.72063 978.91075 505.59375 960.84375 C 509.06396 948.06075 507.79078 954.21025 509.6875 942.40625 C 513.09588 913.22625 512.25295 883.955 512.21875 854.625 C 512.76424 832.64148 513.60243 810.66331 514.375 788.6875 C 549.33715 775.04722 586.73581 768.8607 623.5 762.125 C 631.93496 760.64887 640.38548 759.24889 648.84375 757.9375 C 647.93392 797.4656 647.53155 836.99854 648.75 876.53125 C 648.59391 898.16025 651.8477 919.62975 652.25 941.21875 C 651.94286 943.16687 651.79812 943.69686 651.75 943.5 C 655.57929 961.60561 728.48637 989.46153 735.0625 973 C 738.87021 961.407 742.35386 950.3415 741.5 937.9375 C 740.4723 916.3105 737.36262 894.82525 736.84375 873.15625 C 734.9104 831.04982 735.15151 788.94166 736.03125 746.8125 C 751.20826 745.22256 766.39468 743.7644 781.59375 742.40625 C 813.88511 739.63125 846.25805 737.70275 878.53125 734.71875 C 883.18864 734.07975 888.20178 733.889 892.875 733.625 C 910.27793 732.66012 907.56256 657.40386 892.375 645.625 C 892.36549 632.67862 892.50951 619.71711 893.1875 606.78125 C 893.4926 601.48102 893.83716 596.19407 894.25 590.90625 C 895.43455 591.11552 896.62924 591.34101 897.8125 591.5625 C 899.04381 589.9765 923.01461 599.7665 914.71875 596.6875 C 930.97471 606.5545 977.47471 529.9295 961.21875 520.0625 C 946.08345 511.9485 929.93809 506.82375 912.9375 504.09375 C 910.40546 503.68154 907.87952 503.31146 905.34375 502.9375 C 909.09358 476.80105 913.90275 450.11347 908.84375 423.84375 C 899.18246 395.94175 881.84163 376.50325 853.34375 366.78125 C 847.20117 364.99353 841.03836 363.52968 834.84375 362.34375 C 835.47505 360.92461 836.12414 359.51555 836.75 358.09375 C 848.356 332.29475 861.55704 306.81175 868.71875 279.34375 C 868.94737 272.62575 870.84643 265.7535 869.40625 259.1875 C 862.45425 227.4915 837.30032 212.46375 806.96875 212.96875 C 782.27566 212.75175 757.59719 212.33425 732.90625 212.90625 C 723.19435 213.25634 713.47912 213.71262 703.78125 214.28125 C 688.88732 192.21463 652.08357 163.35017 642.78125 173.40625 C 621.6947 197.38425 604.76819 224.47225 588.84375 252.03125 C 574.34973 278.26225 560.42664 304.831 547 331.625 C 545.62106 334.578 544.25393 337.546 542.875 340.5 C 535.09652 357.736 616.34652 394.39225 624.125 377.15625 C 625.05205 374.99925 625.9792 372.8445 626.90625 370.6875 C 637.07403 349.28411 647.87026 328.18265 659.15625 307.34375 C 684.59682 303.66907 710.29458 302.13182 735.96875 301.28125 C 745.7118 301.10219 755.44392 301.10295 765.1875 301.21875 C 762.13847 308.21012 759.0988 315.19932 756.03125 322.15625 C 749.72236 336.7218 743.05079 351.09711 736.03125 365.3125 C 695.27207 372.88052 655.01048 382.95775 615.53125 395.71875 C 578.07159 408.25236 540.46182 421.62735 506.625 442.3125 C 504.46666 442.23214 502.31487 442.16416 500.15625 442.09375 C 458.11565 440.99575 416.03821 441.2285 374.125 445.1875 C 350.60543 447.31366 327.1248 449.67874 303.65625 452.25 C 303.96159 447.51121 304.24471 442.76924 304.5625 438.03125 C 311.56712 437.79082 318.58229 437.72566 325.59375 437.9375 C 325.04226 437.8509 324.48899 437.77402 323.9375 437.6875 C 341.9832 437.66378 368.02912 358.2682 350.625 352.40625 C 335.69 348.70525 342.72081 349.78725 329.625 348.65625 C 323.31804 348.60964 317.01773 348.71322 310.71875 348.90625 C 311.68438 334.36839 312.60179 319.8292 313.40625 305.28125 C 325.81435 304.8885 338.22352 304.92437 350.65625 305.5 C 363.3824 306.56336 376.19371 307.8392 388.65625 310.71875 C 387.44349 310.16513 386.1732 309.50834 385.28125 309.03125 C 402.02788 316.30381 449.90001 244.48187 434.40625 234.0625 C 426.66789 229.7065 419.32653 225.48 410.46875 223.875 C 391.84346 219.998 372.86486 218.01725 353.875 217.03125 C 341.29523 216.67109 328.74325 216.70626 316.1875 217.0625 C 316.17315 195.07737 315.33615 173.10936 313 151.21875 C 312.07146 144.77069 301.03576 142.04021 287.03125 142 z M 388.65625 310.71875 C 389.9223 311.29669 390.97492 311.67484 391.03125 311.28125 C 390.24137 311.08468 389.44895 310.90191 388.65625 310.71875 z M 325.59375 437.9375 C 326.3854 438.06181 327.1771 438.18794 327.96875 438.3125 C 327.91125 438.2055 327.86996 438.107 327.8125 438 C 327.07311 437.97134 326.33307 437.95984 325.59375 437.9375 z M 651.75 943.5 C 651.66979 943.17189 651.87269 940.84188 652 939.8125 C 651.53681 940.97191 651.48028 942.22473 651.75 943.5 z M 808.65625 302.34375 L 810.75 302.46875 C 811.18423 302.61675 812.51757 302.9975 812.0625 302.9375 C 810.88998 302.78634 809.762 302.58856 808.65625 302.34375 z M 797.9375 446.84375 C 806.2615 446.88343 814.51458 447.76962 822.4375 450.28125 C 820.67433 462.74139 819.22746 478.41718 817.5 491.5625 C 817.11424 494.04059 816.74802 496.52065 816.375 499 C 810.45673 499.42551 804.54073 500.01005 798.625 500.75 C 777.497 503.31164 756.44339 506.36809 735.46875 509.90625 C 734.77667 498.02823 734.00423 486.14917 733.15625 474.28125 C 749.51861 484.34713 766.20852 490.23674 770.90625 483.4375 C 778.58645 472.1015 785.98419 460.61975 792.34375 448.46875 C 792.6267 447.94901 792.90533 447.42638 793.1875 446.90625 C 794.77479 446.85874 796.35354 446.8362 797.9375 446.84375 z M 826.09375 451.5625 C 826.22916 451.61511 826.36482 451.66508 826.5 451.71875 C 830.37415 455.3198 828.4331 453.82407 826.09375 451.5625 z M 644.875 478.25 C 646.38017 494.56112 647.66628 510.89801 648.6875 527.25 C 647.64432 527.49035 646.60523 527.72626 645.5625 527.96875 C 604.8558 537.32875 564.05592 546.80675 524.53125 560.46875 C 506.8975 567.36375 539.3975 650.48775 557.03125 643.59375 C 587.45786 631.90626 619.17201 624.06026 650.875 616.59375 C 650.90321 634.27746 650.74571 651.97248 650.53125 669.65625 C 636.34756 671.6974 622.19624 673.88296 608.0625 676.28125 C 577.26578 681.72778 546.22284 687.05373 515.96875 695.15625 C 515.47057 670.64781 513.47319 646.15194 505.03125 622.9375 C 493.64369 598.0955 477.3149 578.1185 451.84375 566.6875 C 428.04292 557.0275 403.05696 552.11275 377.3125 551.59375 C 351.8826 551.36756 326.53417 553.01417 301.46875 557 C 301.40809 551.31258 301.34151 545.62613 301.3125 539.9375 C 328.07714 536.96391 354.87498 534.29059 381.71875 532.03125 C 420.09379 528.68125 458.59174 528.85075 497.03125 530.59375 C 506.13701 531.23075 515.27853 531.52225 524.3125 532.90625 C 529.89858 533.49978 534.64454 526.09807 538.09375 515.375 C 543.9389 519.53004 549.09971 521.18324 552.5 518.75 C 580.18696 500.21 612.09831 489.31175 643.4375 478.71875 C 643.91723 478.56335 644.39501 478.40451 644.875 478.25 z M 806.125 588.0625 C 805.78663 592.53651 805.49858 597.0193 805.21875 601.5 C 804.15583 618.49297 804.03941 635.51346 803.84375 652.53125 C 793.71736 653.41082 783.58854 654.29985 773.46875 655.25 C 761.46138 656.4144 749.46473 657.6278 737.46875 658.90625 C 737.70007 638.6623 737.83321 618.39986 737.78125 598.15625 C 760.4534 594.12346 783.23772 590.72073 806.125 588.0625 z M 362.625 780.78125 C 362.33811 780.77453 362.04067 780.80717 361.75 780.84375 L 346.5 782.8125 C 317.53768 786.2325 288.38659 789.186 259.1875 787.375 C 240.25559 786.658 236.88059 875.908 255.8125 876.625 C 289.55526 877.387 323.14382 874.285 356.625 870.5 L 372.78125 868.53125 C 391.09323 866.22781 380.69884 781.20431 362.625 780.78125 z "
     id="path9539" />
</svg>
