<?xml version="1.0" encoding="UTF-8" standalone="no"?>
<svg
   xmlns:dc="http://purl.org/dc/elements/1.1/"
   xmlns:cc="http://creativecommons.org/ns#"
   xmlns:rdf="http://www.w3.org/1999/02/22-rdf-syntax-ns#"
   xmlns:svg="http://www.w3.org/2000/svg"
   xmlns="http://www.w3.org/2000/svg"
   xmlns:sodipodi="http://sodipodi.sourceforge.net/DTD/sodipodi-0.dtd"
   xmlns:inkscape="http://www.inkscape.org/namespaces/inkscape"
   width="1024"
   height="1024"
   id="U975E"
   version="1.1"
   inkscape:version="0.48.0 r9654"
   sodipodi:docname="U+975E.svg">
  <metadata
     id="metadata15">
    <rdf:RDF>
      <cc:Work
         rdf:about="">
        <dc:format>image/svg+xml</dc:format>
        <dc:type
           rdf:resource="http://purl.org/dc/dcmitype/StillImage" />
      </cc:Work>
    </rdf:RDF>
  </metadata>
  <defs
     id="defs13" />
  <sodipodi:namedview
     pagecolor="#ffffff"
     bordercolor="#666666"
     borderopacity="1"
     objecttolerance="10"
     gridtolerance="10"
     guidetolerance="10"
     inkscape:pageopacity="0"
     inkscape:pageshadow="2"
     inkscape:window-width="640"
     inkscape:window-height="480"
     id="namedview11"
     showgrid="false"
     inkscape:zoom="0.27441406"
     inkscape:cx="512"
     inkscape:cy="512"
     inkscape:window-x="0"
     inkscape:window-y="25"
     inkscape:window-maximized="0"
     inkscape:current-layer="U975E" />
  <path
     style="fill:#550000;fill-opacity:1;fill-rule:nonzero;stroke:#f9f9f9;stroke-width:0.1;stroke-miterlimit:4;stroke-dasharray:none"
     d="M 575.8125 161.5 C 555.36754 161.73901 536.03614 166.07703 535.90625 174.78125 C 538.13035 224.94625 540.80205 275.09525 542.59375 325.28125 C 545.48335 414.14025 546.06335 503.0385 546.46875 591.9375 C 546.45545 666.3995 547.7993 740.86175 551.8125 815.21875 C 553.8071 849.89075 556.84075 884.5135 562.34375 918.8125 C 565.55375 936.9785 651.2099 921.82225 648 903.65625 C 641.9011 872.83225 639.124 841.4925 636.8125 810.1875 C 636.7629 809.41647 636.70519 808.64606 636.65625 807.875 C 660.91183 805.47105 685.1613 803.01436 709.4375 800.8125 C 756.7095 796.5145 804.0651 793.3865 851.5 791.6875 C 875.7126 791.1595 900.21115 790.471 923.90625 796.125 C 941.96445 799.85 959.4957 714.69275 941.4375 710.96875 C 910.6137 705.13375 879.4596 704.04025 848.125 705.78125 C 799.3296 707.86025 750.6012 711.13225 701.9375 715.28125 C 678.78379 717.24019 655.66231 719.51362 632.5 721.40625 C 631.61776 695.95782 630.99935 670.49542 630.625 645.03125 C 631.33704 645.30837 632.07263 645.45057 632.84375 645.4375 C 661.85555 643.7835 690.848 642.09175 719.875 640.71875 C 737.9822 640.09075 729.22205 640.33425 746.21875 639.90625 C 764.65375 639.30025 761.77875 552.42525 743.34375 553.03125 C 725.53045 553.74825 734.7697 553.3585 715.625 554.1875 C 687.5433 555.6155 659.46045 557.3405 631.34375 557.8125 C 630.83922 557.82105 630.35001 557.89755 629.875 558.03125 C 629.65383 528.55002 629.44707 499.07459 629.15625 469.59375 C 649.97331 462.38771 672.19463 459.39356 693.9375 456.46875 C 715.029 453.90375 736.2359 452.52525 757.4375 451.28125 C 775.8131 450.05425 770.03185 363.42925 751.65625 364.65625 C 728.51555 366.37825 705.37895 368.17925 682.34375 371.03125 C 664.20799 373.51515 645.94396 376.2215 628.03125 380.21875 C 627.73508 361.08224 627.39786 341.94735 627 322.8125 C 625.8822 273.9075 623.84875 225.00275 623.46875 176.09375 C 623.61601 166.22844 598.98346 161.22912 575.8125 161.5 z M 400.5 183.1875 C 375.33533 183.64475 345.05033 191.21322 346.15625 202.1875 C 351.78125 244.8145 357.0061 287.48925 362.3125 330.15625 C 363.06031 335.7525 363.76739 341.36761 364.46875 346.96875 C 344.77966 349.50727 325.15197 352.76955 305.59375 356.3125 C 264.73225 363.9645 223.9392 372.08725 183.9375 383.53125 C 166.1994 389.05625 192.23065 472.68125 209.96875 467.15625 C 246.39065 455.16525 284.08025 447.60325 321.65625 440.28125 C 338.87699 437.37387 356.17557 434.31314 373.5625 431.90625 C 377.05813 470.09695 379.89571 508.36398 382.53125 546.625 C 386.09343 598.28911 388.52435 650.00588 390.46875 701.75 C 327.09615 713.26279 264.10857 726.60944 201.3125 740.96875 C 158.0152 750.53175 114.72505 760.387 71.03125 768 C 52.75895 771.406 68.82145 857.531 87.09375 854.125 C 131.49165 844.387 175.7821 834.09975 220.0625 823.84375 C 277.4859 810.13954 335.19398 797.8253 393.28125 787.375 C 394.2608 817.94861 395.57303 848.49507 397.9375 879 C 399.5911 897.361 486.12235 889.58075 484.46875 871.21875 C 481.12773 839.06773 479.4918 806.79 478.25 774.5 C 496.05779 772.47505 513.90479 770.92383 531.8125 770 C 550.1552 768.799 544.49895 682.33025 526.15625 683.53125 C 509.01125 684.85703 491.90611 686.62856 474.84375 688.71875 C 472.69112 639.38499 470.13356 590.04641 466.6875 540.78125 C 464.07851 503.21726 461.33739 465.66645 458.0625 428.15625 C 474.34918 421.79995 478.8137 343.42648 461.375 342.25 C 457.38253 342.04882 453.39348 341.90081 449.40625 341.8125 C 448.57867 334.57797 447.7333 327.35341 446.84375 320.125 C 442.06435 277.918 437.15015 235.70825 433.28125 193.40625 C 432.52457 185.89753 417.71793 182.87465 400.5 183.1875 z M 349.5625 501.34375 C 329.1575 502.14175 339.4906 501.6345 318.5 502.8125 C 290.0091 504.7445 261.53945 506.809 233.15625 510 C 214.74855 512.63 227.12345 599.41025 245.53125 596.78125 C 271.65645 592.82925 298.06435 591.058 324.40625 589.25 C 343.64005 588.24 334.2607 588.6025 352.5625 588.0625 C 370.9611 587.4265 367.9612 500.70675 349.5625 501.34375 z "
     id="path22921" />
</svg>
