<?xml version="1.0" encoding="utf-8" ?>

<!DOCTYPE svg PUBLIC "-//W3C//DTD SVG 1.1//EN" 
  "http://www.w3.org/Graphics/SVG/1.1/DTD/svg11.dtd">
<svg 
    xmlns="http://www.w3.org/2000/svg"
    xmlns:xlink="http://www.w3.org/1999/xlink"
    xmlns:sodipodi="http://sodipodi.sourceforge.net/DTD/sodipodi-0.dtd"
    xmlns:inkscape="http://www.inkscape.org/namespaces/inkscape"
    width="1024" height="1024" id="U987B">
<path d="m 11599.297,55590.211 c -29.909,19.527 -56.478,43.57 -82.586,67.8 -28.001,26.399 -53.132,55.513 -77.065,85.579 -11.587,14.35 -79.23,-40.271 -67.644,-54.621 l 0,0 c 26.894,-32.877 54.891,-64.861 85.698,-94.173 29.557,-27.74 59.717,-54.971 92.86,-78.429 15.665,-10.339 64.402,63.505 48.737,73.844 z" id="path12635" inkscape:connector-curvature="0" style="fill:#916f6f;fill-opacity:1;fill-rule:nonzero;stroke:#f9f9f9;stroke-width:0.1;stroke-miterlimit:4;stroke-dasharray:none" transform="translate(-11264, -55296)"/><path d="m 11650.21,55780.523 c -26.066,25.884 -47.33,56.148 -69.078,85.619 -32.207,45.385 -66.13,89.46 -101.689,132.257 -4.817,5.618 -9.634,11.237 -14.451,16.856 -12.081,13.917 -77.689,-43.034 -65.608,-56.951 l 0,0 c 4.564,-5.188 9.127,-10.376 13.691,-15.565 34.727,-41.003 67.631,-83.458 98.395,-127.533 24.257,-33.472 48.132,-67.488 76.546,-97.636 13.354,-13.193 75.548,49.76 62.194,62.953 z" id="path12637" inkscape:connector-curvature="0" style="fill:#916f6f;fill-opacity:1;fill-rule:nonzero;stroke:#f9f9f9;stroke-width:0.1;stroke-miterlimit:4;stroke-dasharray:none" transform="translate(-11264, -55296)"/><path d="m 11691.296,55946.97 c -16.454,33.807 -34.751,66.578 -54.195,98.742 -33.109,53.503 -71.749,103.23 -111.323,152.036 -26.268,32.08 -54.047,62.894 -83.103,92.465 -13.242,13.112 -75.053,-49.31 -61.811,-62.422 l 0,0 c 27.706,-26.577 53.637,-54.958 78.247,-84.416 37.219,-45.353 73.352,-91.771 103.813,-142.024 17.757,-30.049 34.561,-60.646 48.542,-92.666 8.122,-16.935 87.952,21.351 79.83,38.285 z" id="path12639" inkscape:connector-curvature="0" style="fill:#916f6f;fill-opacity:1;fill-rule:nonzero;stroke:#f9f9f9;stroke-width:0.1;stroke-miterlimit:4;stroke-dasharray:none" transform="translate(-11264, -55296)"/><path d="m 11739.191,55486.749 c 40.726,-9.048 81.788,-16.188 123.057,-22.222 54.998,-7.562 110.501,-9.849 165.935,-11.349 31.119,-1.025 62.217,0.09 93.225,2.7 2.24,0.222 4.48,0.444 6.721,0.666 18.642,2.211 8.219,90.09 -10.423,87.879 l 0,0 c -1.674,-0.243 -3.348,-0.485 -5.022,-0.728 -27.395,-3.2 -54.949,-4.49 -82.536,-3.879 -51.833,0.938 -103.756,2.772 -155.155,10.04 -38.911,5.943 -77.702,12.81 -115.744,23.07 -18.281,4.255 -38.339,-81.922 -20.058,-86.177 z" id="path12641" inkscape:connector-curvature="0" style="fill:#916f6f;fill-opacity:1;fill-rule:nonzero;stroke:#f9f9f9;stroke-width:0.1;stroke-miterlimit:4;stroke-dasharray:none" transform="translate(-11264, -55296)"/><path d="m 11960.882,55568.677 c -19.24,22.558 -33.634,48.721 -47.936,74.545 -14.238,26.161 -26.814,53.153 -38.938,80.34 -7.662,16.901 -87.333,-19.219 -79.671,-36.12 l 0,0 c 13.406,-29.114 27.181,-58.063 42.47,-86.249 17.239,-31.321 34.815,-62.706 57.316,-90.636 12.329,-14.162 79.089,43.958 66.759,58.12 z" id="path12643" inkscape:connector-curvature="0" style="fill:#916f6f;fill-opacity:1;fill-rule:nonzero;stroke:#f9f9f9;stroke-width:0.1;stroke-miterlimit:4;stroke-dasharray:none" transform="translate(-11264, -55296)"/><path d="m 11802.303,55724.233 c -7.28,25.041 -8.85,51.203 -9.786,77.115 -0.467,37.544 2.12,75.04 5.987,112.36 3.57,29.87 8.389,59.568 12.707,89.335 1.407,9.521 2.533,19.083 4.003,28.595 2.461,18.638 -85.401,30.238 -87.862,11.6 l 0,0 c -1.067,-9.426 -2.067,-18.86 -3.265,-28.27 -3.958,-30.837 -8.693,-61.57 -12.225,-92.461 -4.115,-41.279 -7.001,-82.735 -6.462,-124.246 1.167,-33.461 3.58,-67.028 12.118,-99.546 5.413,-17.985 90.198,7.532 84.785,25.518 z" id="path12645" inkscape:connector-curvature="0" style="fill:#916f6f;fill-opacity:1;fill-rule:nonzero;stroke:#f9f9f9;stroke-width:0.1;stroke-miterlimit:4;stroke-dasharray:none" transform="translate(-11264, -55296)"/><path d="m 11744.048,55676.47 c 31.877,-14.308 65.911,-22.308 100.077,-28.844 39.314,-7.015 79.25,-8.323 119.082,-8.106 25.86,0.438 51.741,0.882 77.394,4.376 35.129,6.555 52.274,20.502 68.015,52.609 12.433,39.403 7.906,81.327 5.159,121.855 -3.646,45.271 -7.317,90.536 -9.817,135.888 -1.618,25.549 -1.567,51.168 -2.877,76.727 -1.268,18.705 -89.445,12.73 -88.178,-5.975 l 0,0 c 2.294,-25.23 2.143,-50.645 4.188,-75.897 2.872,-45.47 6.744,-90.863 10.128,-136.296 1.636,-27.143 3.935,-54.581 0.282,-81.665 6.763,1.54 10.315,4.972 0.299,0.02 -21.589,-3.56 -43.581,-3.356 -65.386,-4.282 -34.071,-0.45 -68.255,0.38 -101.9,6.349 -26.642,5.106 -53.43,11.041 -78.021,22.878 -16.894,8.155 -55.338,-71.48 -38.445,-79.635 z" id="path12647" inkscape:connector-curvature="0" style="fill:#916f6f;fill-opacity:1;fill-rule:nonzero;stroke:#f9f9f9;stroke-width:0.1;stroke-miterlimit:4;stroke-dasharray:none" transform="translate(-11264, -55296)"/><path d="m 11926.607,55821.683 c -6.482,42.402 -16.276,84.122 -27.232,125.559 -16.615,60.251 -39,118.665 -62.99,176.303 -18.257,43.155 -39.017,85.201 -63.029,125.435 -7.756,13.268 -17.26,25.222 -27.171,36.892 -12.345,14.013 -78.402,-44.184 -66.056,-58.196 l 0,0 c 6.974,-7.375 13.254,-15.274 18.576,-23.957 22.378,-36.229 41.349,-74.404 58.23,-113.488 22.714,-53.75 43.868,-108.286 59.058,-164.707 9.859,-38.482 18.781,-77.274 23.146,-116.824 2.754,-18.555 90.223,-5.571 87.468,12.983 z" id="path12649" inkscape:connector-curvature="0" style="fill:#916f6f;fill-opacity:1;fill-rule:nonzero;stroke:#f9f9f9;stroke-width:0.1;stroke-miterlimit:4;stroke-dasharray:none" transform="translate(-11264, -55296)"/><path d="m 11877.966,56098.876 c 25.285,14.134 51.91,25.721 78.052,38.164 32.648,15.734 64.157,33.667 96.135,50.692 17.924,9.32 35.831,18.676 53.833,27.844 16.585,8.647 -24.178,86.828 -40.763,78.181 l 0,0 c -18.123,-9.661 -36.202,-19.407 -54.374,-28.98 -30.609,-16.519 -60.813,-33.835 -92.178,-48.909 -28.8,-13.579 -58.029,-26.305 -86.219,-41.135 -16.091,-9.655 29.423,-85.512 45.514,-75.857 z" id="path12651" inkscape:connector-curvature="0" style="fill:#916f6f;fill-opacity:1;fill-rule:nonzero;stroke:#f9f9f9;stroke-width:0.1;stroke-miterlimit:4;stroke-dasharray:none" transform="translate(-11264, -55296)"/></svg>