<?xml version="1.0" encoding="UTF-8" standalone="no"?>
<svg
   xmlns:dc="http://purl.org/dc/elements/1.1/"
   xmlns:cc="http://creativecommons.org/ns#"
   xmlns:rdf="http://www.w3.org/1999/02/22-rdf-syntax-ns#"
   xmlns:svg="http://www.w3.org/2000/svg"
   xmlns="http://www.w3.org/2000/svg"
   xmlns:sodipodi="http://sodipodi.sourceforge.net/DTD/sodipodi-0.dtd"
   xmlns:inkscape="http://www.inkscape.org/namespaces/inkscape"
   width="1024"
   height="1024"
   id="U98DE"
   version="1.1"
   inkscape:version="0.48.0 r9654"
   sodipodi:docname="U+98DE.svg">
  <metadata
     id="metadata10">
    <rdf:RDF>
      <cc:Work
         rdf:about="">
        <dc:format>image/svg+xml</dc:format>
        <dc:type
           rdf:resource="http://purl.org/dc/dcmitype/StillImage" />
      </cc:Work>
    </rdf:RDF>
  </metadata>
  <defs
     id="defs8" />
  <sodipodi:namedview
     pagecolor="#ffffff"
     bordercolor="#666666"
     borderopacity="1"
     objecttolerance="10"
     gridtolerance="10"
     guidetolerance="10"
     inkscape:pageopacity="0"
     inkscape:pageshadow="2"
     inkscape:window-width="640"
     inkscape:window-height="480"
     id="namedview6"
     showgrid="false"
     inkscape:zoom="0.27441406"
     inkscape:cx="512"
     inkscape:cy="512"
     inkscape:window-x="0"
     inkscape:window-y="25"
     inkscape:window-maximized="0"
     inkscape:current-layer="U98DE" />
  <path
     style="fill:#550000;fill-opacity:1;fill-rule:nonzero;stroke:#f9f9f9;stroke-width:0.1;stroke-miterlimit:4;stroke-dasharray:none"
     d="M 375.3125 322 C 372.12517 321.97246 368.93694 322.06163 365.8125 322.21875 C 333.9308 324.79475 302.3002 329.70725 271.125 336.90625 C 237.2214 345.49425 203.74505 355.83275 172.21875 371.21875 C 155.66495 379.63175 195.3212 457.662 211.875 449.25 C 237.1148 435.765 264.5582 427.5805 292.1875 420.6875 C 307.67726 417.22104 323.30507 414.39163 339.03125 412.3125 C 338.54444 413.69085 338.56843 413.59683 335.3125 422.8125 C 321.3316 461.6035 307.815 500.51775 295.8125 539.96875 C 281.6435 586.17975 275.20065 633.93875 273.53125 682.09375 C 272.52125 728.04275 282.0372 772.3005 300.6875 814.0625 C 324.168 858.7595 359.63505 879.743 406.15625 894.75 C 457.25335 907.54 510.22135 905.2515 562.34375 902.5625 C 614.14015 899.0955 665.7559 893.61625 717.5625 890.28125 C 752.198 888.50925 786.8668 887.9435 821.375 884.3125 C 834.3642 883.0725 846.87595 879.79725 859.34375 876.15625 C 877.02255 870.61625 850.89755 787.2715 833.21875 792.8125 C 826.24255 795.3995 819.04685 796.94325 811.65625 797.90625 C 778.48325 801.95125 745.04185 802.42375 711.71875 804.59375 C 660.44035 808.27175 609.33435 813.8495 558.03125 817.1875 C 516.00125 819.2545 473.25515 821.37625 431.84375 812.28125 C 410.46575 806.02525 390.73605 797.9835 379.15625 777.6875 C 364.86525 748.7545 359.50425 716.95725 359.53125 684.78125 C 360.61415 644.19425 366.14245 603.97025 378.03125 565.03125 C 389.64045 526.95925 402.96435 489.45725 416.84375 452.15625 C 426.34825 426.26925 439.0215 400.664 440.25 372.75 C 437.8215 364.808 437.13665 356.1215 432.96875 348.9375 C 420.64122 327.68988 397.62382 322.19275 375.3125 322 z M 653.21875 347.28125 C 652.65044 347.31666 652.07551 347.42153 651.53125 347.625 C 619.25795 361.02 589.67335 379.74975 560.46875 398.71875 C 533.63205 416.19175 508.5038 436.02525 483.75 456.28125 C 469.662 467.82725 524.0995 534.2335 538.1875 522.6875 C 560.396 504.4555 582.94215 486.63775 607.15625 471.09375 C 631.19895 455.69375 655.4774 440.01375 682.25 429.71875 C 699.12194 423.41122 670.83651 346.18356 653.21875 347.28125 z M 428.96875 588.875 C 411.33002 588.6788 387.05841 667.19128 404.21875 672.625 C 442.50075 683.396 481.43785 691.6205 520.28125 700.0625 C 574.38355 711.2165 627.84625 724.98175 680.78125 740.71875 C 707.85225 748.77275 734.5854 757.88925 761.125 767.53125 C 778.4035 773.64725 807.216 692.20975 789.9375 686.09375 C 761.7968 676.37575 733.5183 667.07275 704.9375 658.71875 C 650.0608 642.68775 594.69925 628.455 538.78125 616.5 C 502.52685 608.31 466.07025 600.525 430.65625 589.125 C 430.10269 588.94972 429.53774 588.88133 428.96875 588.875 z "
     id="path22997" />
</svg>
