<?xml version="1.0" encoding="utf-8" ?>

<!DOCTYPE svg PUBLIC "-//W3C//DTD SVG 1.1//EN" 
  "http://www.w3.org/Graphics/SVG/1.1/DTD/svg11.dtd">
<svg 
    xmlns="http://www.w3.org/2000/svg"
    xmlns:xlink="http://www.w3.org/1999/xlink"
    xmlns:sodipodi="http://sodipodi.sourceforge.net/DTD/sodipodi-0.dtd"
    xmlns:inkscape="http://www.inkscape.org/namespaces/inkscape"
    width="1024" height="1024" id="U98CE">
<path d="m 8541.3992,12554.632 c -7.0242,47.555 -11.2649,95.482 -17.4527,143.164 -10.7032,79.447 -28.8702,157.572 -47.4573,235.463 -10.4407,44.054 -21.6321,87.986 -29.7316,132.551 -3.5766,18.077 -88.7921,1.217 -85.2154,-16.86 l 0,0 c 9.6574,-45.505 21.5169,-90.5 32.7874,-135.623 18.408,-74.632 36.1006,-149.604 45.6293,-225.989 5.8963,-49.534 9.6536,-99.257 15.4212,-148.796 3.4131,-18.248 89.4323,-2.158 86.0191,16.09 z" id="path23071" inkscape:connector-curvature="0" style="fill:#550000;fill-opacity:1;fill-rule:nonzero;stroke:#f9f9f9;stroke-width:0.1;stroke-miterlimit:4;stroke-dasharray:none" transform="translate(-8192, -12288)"/><path d="m 8497.0434,12577.485 c 18.9171,-34.213 50.2665,-54.364 85.0718,-69.702 44.5474,-16.319 92.0014,-20.66 138.9959,-23.474 44.6894,-2.578 89.1827,0.127 132.6507,10.804 48.2741,15.89 70.1717,37.704 89.2238,84.242 14.0524,51.009 7.3403,104.392 3.002,156.302 -6.0391,57.874 -8.8893,115.91 -7.2233,174.067 1.838,38.781 6.6874,77.684 23.1856,113.134 7.6125,14.61 19.4468,25.048 33.6987,32.814 3.7454,1.461 4.167,2.157 2.4129,0.353 17.8419,5.224 -6.7828,89.332 -24.6247,84.108 l 0,0 c -15.7811,-5.5 -8.3313,-2.299 -22.4213,-9.432 -29.2687,-18.089 -53.51,-41.542 -68.2879,-73.18 -19.4912,-46.309 -28.0209,-95.397 -29.2999,-145.62 -1.3873,-61.166 1.4711,-122.204 7.5332,-183.095 3.0433,-39.306 7.9028,-79.546 0.9712,-118.679 -4.7873,-16.159 -13.0048,-25.985 -29.7775,-31.24 -34.4842,-9.565 -70.3612,-10.317 -105.9591,-8.815 -37.0691,2.173 -74.5561,5.24 -109.9736,17.195 -16.1086,6.579 -32.0541,14.28 -41.105,29.978 -8.4343,16.562 -86.5078,-23.198 -78.0735,-39.76 z" id="path23073" inkscape:connector-curvature="0" style="fill:#550000;fill-opacity:1;fill-rule:nonzero;stroke:#f9f9f9;stroke-width:0.1;stroke-miterlimit:4;stroke-dasharray:none" transform="translate(-8192, -12288)"/><path d="m 8831.6821,12680.184 c -28.8017,30.267 -52.6755,64.786 -76.2727,99.132 -40.6576,61.061 -75.1528,125.885 -109.222,190.76 -25.6784,49.292 -50.2938,99.132 -76.8878,147.942 -6.5985,12.985 -14.4229,25.198 -22.6813,37.161 -10.8017,15.023 -81.6206,-35.897 -70.8189,-50.92 l 0,0 c 6.8614,-8.869 12.7575,-18.357 18.1272,-28.212 27.1992,-47.734 51.9582,-96.781 77.5578,-145.379 35.7798,-67.526 71.8083,-135.067 113.6454,-199.1 25.9162,-38.547 52.3048,-76.969 83.111,-111.839 12.8246,-13.458 76.2659,46.998 63.4413,60.455 z" id="path23075" inkscape:connector-curvature="0" style="fill:#550000;fill-opacity:1;fill-rule:nonzero;stroke:#f9f9f9;stroke-width:0.1;stroke-miterlimit:4;stroke-dasharray:none" transform="translate(-8192, -12288)"/><path d="m 8580.9742,12775.275 c 21.3241,28.073 50.1856,48.7 78.7273,68.765 50.825,33.841 105.0912,62.017 158.236,91.951 34.9601,19.323 67.9397,41.615 97.5679,68.387 13.4607,12.483 -45.3863,75.937 -58.8469,63.454 l 0,0 c -23.9626,-23.111 -52.0142,-41.09 -80.7637,-57.71 -55.2658,-31.565 -111.839,-61.002 -165.0473,-96.031 -35.6833,-24.712 -70.9315,-50.604 -98.646,-84.438 -11.5354,-14.589 57.2373,-68.967 68.7727,-54.378 z" id="path23077" inkscape:connector-curvature="0" style="fill:#550000;fill-opacity:1;fill-rule:nonzero;stroke:#f9f9f9;stroke-width:0.1;stroke-miterlimit:4;stroke-dasharray:none" transform="translate(-8192, -12288)"/></svg>