<?xml version="1.0" encoding="utf-8" ?>

<!DOCTYPE svg PUBLIC "-//W3C//DTD SVG 1.1//EN" 
  "http://www.w3.org/Graphics/SVG/1.1/DTD/svg11.dtd">
<svg 
    xmlns="http://www.w3.org/2000/svg"
    xmlns:xlink="http://www.w3.org/1999/xlink"
    xmlns:sodipodi="http://sodipodi.sourceforge.net/DTD/sodipodi-0.dtd"
    xmlns:inkscape="http://www.inkscape.org/namespaces/inkscape"
    width="1024" height="1024" id="U9875">
<path d="m 9471.6335,57598.985 c 45.9275,-1.157 91.5712,-7.703 137.2052,-12.654 65.2757,-6.966 130.6521,-12.927 196.1437,-17.428 35.7172,-1.541 71.5843,-5.665 107.3124,-2.579 20.938,4.947 9.4977,0.766 33.1824,15.303 13.7981,12.809 -46.5862,77.854 -60.3843,65.045 l 0,0 c 15.503,7.856 9.2493,7.819 17.2758,7.318 -30.0424,-5.571 -61.6999,2.001 -91.9047,0.915 -64.155,3.76 -128.1825,9.364 -192.038,16.634 -48.8717,5.699 -97.6411,12.987 -146.7925,15.785 -18.7396,0 -18.7396,-88.339 0,-88.339 z" id="path13213" inkscape:connector-curvature="0" style="fill:#916f6f;fill-opacity:1;fill-rule:nonzero;stroke:#f9f9f9;stroke-width:0.1;stroke-miterlimit:4;stroke-dasharray:none" transform="translate(-9216, -57344)"/><path d="m 9739.8949,57671.238 c -13.2767,34.336 -25.1817,69.169 -36.6216,104.152 -10.8439,33.318 -20.1956,67.084 -29.5218,100.848 -4.9835,17.797 -88.8766,-5.696 -83.8931,-23.492 l 0,0 c 9.8886,-34.842 19.797,-69.683 30.951,-104.147 11.4171,-35.366 23.3762,-70.544 35.3403,-105.726 6.0172,-17.765 89.7624,10.6 83.7452,28.365 z" id="path13215" inkscape:connector-curvature="0" style="fill:#916f6f;fill-opacity:1;fill-rule:nonzero;stroke:#f9f9f9;stroke-width:0.1;stroke-miterlimit:4;stroke-dasharray:none" transform="translate(-9216, -57344)"/><path d="m 9542.1997,57897.723 c 3.5367,34.321 9.9836,68.278 16.5431,102.126 7.9343,40.911 18.4267,81.25 29.7963,121.322 5.3657,18.522 2.7676,9.645 7.7827,26.634 5.095,17.909 -79.332,41.927 -84.427,24.018 l 0,0 c -4.7765,-17.431 -2.2814,-8.318 -7.4843,-27.339 -11.4637,-42.329 -22.1632,-84.876 -30.701,-127.905 -7.2237,-36.193 -14.1652,-72.46 -19.4994,-108.988 -2.0934,-18.665 85.8963,-28.533 87.9896,-9.868 z" id="path13217" inkscape:connector-curvature="0" style="fill:#916f6f;fill-opacity:1;fill-rule:nonzero;stroke:#f9f9f9;stroke-width:0.1;stroke-miterlimit:4;stroke-dasharray:none" transform="translate(-9216, -57344)"/><path d="m 9488.7907,57907.911 c 15.9457,-32.934 43.2489,-55.898 73.2873,-75.464 41.8482,-23.597 88.5195,-36.39 134.769,-48.183 46.5522,-12.105 94.0362,-16.678 141.8917,-12.728 50.9541,7.995 75.6033,23.115 103.4463,66.441 21.7455,42.208 23.0147,89.241 21.5216,135.612 -2.4745,47.399 -11.704,94.008 -22.4206,140.124 -7.2694,28.886 -14.0467,57.982 -24.082,86.063 -6.605,17.516 -89.1768,-13.62 -82.5718,-31.137 l 0,0 c 9.9085,-24.082 14.9979,-49.895 22.0049,-74.886 9.6922,-40.457 18.0795,-81.374 20.2973,-123.028 1.0007,-29.413 1.6025,-59.776 -9.7704,-87.518 -7.5758,-15.677 -18.8551,-22.458 -36.5016,-24.795 -37.8703,-4.111 -75.5146,0.449 -112.3982,9.773 -37.2272,9.509 -74.8283,19.688 -108.9744,37.732 -15.7325,9.885 -31.2494,20.928 -39.6787,38.089 -7.6568,17.144 -88.4772,-18.95 -80.8204,-36.095 z" id="path13219" inkscape:connector-curvature="0" style="fill:#916f6f;fill-opacity:1;fill-rule:nonzero;stroke:#f9f9f9;stroke-width:0.1;stroke-miterlimit:4;stroke-dasharray:none" transform="translate(-9216, -57344)"/><path d="m 9732.9875,57945.151 c -7.8591,34.707 -12.2039,70.116 -17.3491,105.3 -7.3616,52.342 -18.8392,103.944 -32.016,155.092 -7.1221,28.015 -15.8359,55.547 -28.217,81.685 -8.3274,16.727 -87.1826,-22.528 -78.8551,-39.256 l 0,0 c 10.9711,-20.138 16.8681,-42.502 23.2378,-64.4 12.7676,-47.839 23.5689,-96.212 30.0964,-145.34 5.2287,-37.694 9.8349,-75.512 16.9288,-112.915 4.2074,-18.28 90.3816,1.553 86.1742,19.834 z" id="path13221" inkscape:connector-curvature="0" style="fill:#916f6f;fill-opacity:1;fill-rule:nonzero;stroke:#f9f9f9;stroke-width:0.1;stroke-miterlimit:4;stroke-dasharray:none" transform="translate(-9216, -57344)"/><path d="m 9753.4638,58149.772 c 21.3649,17.816 46.6903,30.015 71.5563,42.091 33.763,15.136 67.7784,29.566 100.5884,46.709 15.2704,8.209 29.6612,17.871 43.6033,28.136 14.9295,11.29 -38.292,81.668 -53.2215,70.378 l 0,0 c -9.9123,-7.81 -20.3027,-15.009 -31.3093,-21.209 -31.68,-17.032 -64.8696,-30.757 -97.5967,-45.619 -31.7348,-15.308 -63.5121,-31.236 -91.2005,-53.309 -14.2504,-12.215 43.3297,-79.392 57.58,-67.177 z" id="path13223" inkscape:connector-curvature="0" style="fill:#916f6f;fill-opacity:1;fill-rule:nonzero;stroke:#f9f9f9;stroke-width:0.1;stroke-miterlimit:4;stroke-dasharray:none" transform="translate(-9216, -57344)"/></svg>