<?xml version="1.0" encoding="UTF-8" standalone="no"?>
<svg
   xmlns:dc="http://purl.org/dc/elements/1.1/"
   xmlns:cc="http://creativecommons.org/ns#"
   xmlns:rdf="http://www.w3.org/1999/02/22-rdf-syntax-ns#"
   xmlns:svg="http://www.w3.org/2000/svg"
   xmlns="http://www.w3.org/2000/svg"
   xmlns:sodipodi="http://sodipodi.sourceforge.net/DTD/sodipodi-0.dtd"
   xmlns:inkscape="http://www.inkscape.org/namespaces/inkscape"
   width="1024"
   height="1024"
   id="U9996"
   version="1.1"
   inkscape:version="0.48.0 r9654"
   sodipodi:docname="U+9996.svg">
  <metadata
     id="metadata16">
    <rdf:RDF>
      <cc:Work
         rdf:about="">
        <dc:format>image/svg+xml</dc:format>
        <dc:type
           rdf:resource="http://purl.org/dc/dcmitype/StillImage" />
      </cc:Work>
    </rdf:RDF>
  </metadata>
  <defs
     id="defs14" />
  <sodipodi:namedview
     pagecolor="#ffffff"
     bordercolor="#666666"
     borderopacity="1"
     objecttolerance="10"
     gridtolerance="10"
     guidetolerance="10"
     inkscape:pageopacity="0"
     inkscape:pageshadow="2"
     inkscape:window-width="640"
     inkscape:window-height="480"
     id="namedview12"
     showgrid="false"
     inkscape:zoom="0.27441406"
     inkscape:cx="512"
     inkscape:cy="512"
     inkscape:window-x="0"
     inkscape:window-y="25"
     inkscape:window-maximized="0"
     inkscape:current-layer="U9996" />
  <path
     style="fill:#782121;fill-opacity:1;fill-rule:nonzero;stroke:#f9f9f9;stroke-width:0.1;stroke-miterlimit:4;stroke-dasharray:none"
     d="M 696.4375 29.21875 C 695.5613 29.296502 694.73104 29.559891 693.96875 30 C 667.33345 46.876 641.8195 65.3375 617.4375 85.3125 C 593.3123 106.2165 570.9836 129.14025 549.5625 152.78125 C 547.3597 155.27425 545.1403 157.756 542.9375 160.25 C 530.7012 174.386 597.35745 232.0745 609.59375 217.9375 C 611.47015 215.7185 613.34235 213.50025 615.21875 211.28125 C 633.22625 190.66825 652.23565 170.81925 672.84375 152.78125 C 693.46395 135.80425 715.16305 120.18825 738.21875 106.65625 C 753.71856 97.708312 714.25347 27.637798 696.4375 29.21875 z M 314.6875 74.375 C 294.53878 75.223118 244.2616 124.28969 255.625 136.5625 C 272.9589 154.1485 289.68885 172.2925 306.15625 190.6875 C 315.26931 201.20079 324.71378 211.54263 333.03125 222.71875 C 332.73982 222.71897 332.44768 222.71852 332.15625 222.71875 C 283.11165 222.92475 234.09295 223.57475 185.09375 225.84375 C 166.38755 227.02975 171.9814 315.21725 190.6875 314.03125 C 237.9795 309.77825 285.45825 309.008 332.90625 308.375 C 361.97644 308.11266 391.05611 307.99559 420.125 308.0625 C 412.73798 321.74176 405.6477 335.59336 398.75 349.53125 C 385.0726 377.68825 373.48175 406.775 362.65625 436.125 C 363.01109 436.49085 362.04674 439.05988 360.875 441.8125 C 345.82593 446.84879 331.06059 452.74278 316.75 459.875 C 300.1191 468.54 340.96285 546.915 357.59375 538.25 C 385.31825 523.273 415.88675 515.472 446.46875 508.875 C 489.20455 500.031 532.63765 500.2995 575.84375 504.4375 C 592.35278 506.60098 608.88506 509.07063 625.21875 512.4375 C 620.85436 550.54708 616.32184 588.63383 611.5 626.6875 C 603.7657 685.8715 595.11225 744.946 587.34375 804.125 C 584.79967 818.5034 583.43406 833.01668 582.21875 847.5625 C 534.77214 848.28602 487.51825 852.20278 440.25 856.25 C 425.06557 857.29969 409.87365 858.3152 394.65625 859.03125 C 390.48043 852.99977 388.80995 839.90574 387 829.1875 C 409.83222 824.1695 433.17636 822.27788 456.5 821.46875 C 467.7334 821.40775 479.0674 821.34425 490.125 823.53125 C 508.6593 826.27125 521.56545 738.89525 503.03125 736.15625 C 486.44705 734.04825 469.7883 733.22325 453.0625 733.90625 C 425.35492 735.10373 397.70352 737.58523 370.40625 742.5625 C 366.45926 718.04948 362.89904 693.45524 359.34375 668.875 C 387.75211 668.44011 416.1165 667.25365 444.53125 667.3125 C 456.94845 667.4535 469.42185 667.98825 481.46875 671.15625 C 499.77835 675.03025 518.02815 588.749 499.71875 584.875 C 481.49305 581.412 463.0917 579.5065 444.5 579.8125 C 416.0343 579.8855 387.5872 581.1425 359.125 580.4375 C 353.7569 580.34938 349.80981 587.54453 347.34375 597.84375 C 342.93474 575.46807 337.62737 553.30632 330.4375 531.625 C 323.6819 514.14 241.2445 545.98375 248 563.46875 C 261.2167 600.14875 267.11475 638.9885 273.40625 677.3125 C 281.14345 729.0285 288.53495 780.76125 298.21875 832.15625 C 301.98137 852.03121 306.1948 871.81071 313.3125 890.6875 C 310.11754 915.88423 313.25717 947.19726 324.375 947.6875 C 365.126 948.1215 405.8215 945.58975 446.4375 942.59375 C 492.816 938.55775 539.1704 934.4875 585.75 934.4375 C 603.1615 934.3975 620.4529 935.79425 637.5 939.28125 C 644.38215 940.521 650.88389 929.11635 655.34375 914.21875 C 660.95994 912.62927 664.64154 910.09274 665.0625 906.46875 C 668.0411 875.99975 668.45145 845.2675 673.03125 814.9375 C 680.20705 755.8295 688.6581 696.8985 696.9375 637.9375 C 702.6559 596.0345 708.2045 554.1045 713.8125 512.1875 C 716.7602 474.5205 709.1378 443.70725 668.5 431.90625 C 640.5149 425.45525 612.06865 421.04125 583.53125 417.90625 C 543.433 414.56628 503.19949 413.88218 463.3125 418.53125 C 467.55071 408.29783 472.01837 398.16656 476.84375 388.1875 C 490.28039 361.05318 504.4732 334.21102 521.40625 309.0625 C 533.47898 309.26833 545.55302 309.47549 557.625 309.75 C 617.493 311.101 677.2773 314.6685 736.875 320.4375 C 743.3724 321.1515 749.8809 321.8185 756.375 322.5625 C 769.1716 324.0285 782.18445 325.2075 794.84375 327.6875 C 800.97585 328.8895 800.94265 328.7575 798.34375 329.0625 C 816.06415 335.3285 845.62665 251.766 827.90625 245.5 C 800.88505 237.452 772.46095 237.22175 744.59375 234.09375 C 682.99845 229.03175 621.26635 225.80975 559.46875 224.59375 C 502.50523 223.42751 445.53553 222.92766 388.5625 222.78125 C 406.57352 211.26636 421.68384 196.40849 416.90625 188.6875 C 412.80435 182.2155 414.97105 185.5365 410.40625 178.8125 C 398.45985 162.3965 385.017 147.16775 371.4375 132.09375 C 354.6197 113.40775 337.49935 95.01025 320.59375 76.40625 C 319.19826 74.899063 317.1619 74.270845 314.6875 74.375 z M 643.90625 516.75 C 645.0716 517.05124 646.24408 517.34251 647.40625 517.65625 C 646.1641 517.46036 644.99768 517.16442 643.90625 516.75 z "
     id="path10704" />
</svg>
