<?xml version="1.0" encoding="UTF-8" standalone="no"?>
<svg
   xmlns:dc="http://purl.org/dc/elements/1.1/"
   xmlns:cc="http://creativecommons.org/ns#"
   xmlns:rdf="http://www.w3.org/1999/02/22-rdf-syntax-ns#"
   xmlns:svg="http://www.w3.org/2000/svg"
   xmlns="http://www.w3.org/2000/svg"
   xmlns:sodipodi="http://sodipodi.sourceforge.net/DTD/sodipodi-0.dtd"
   xmlns:inkscape="http://www.inkscape.org/namespaces/inkscape"
   width="1024"
   height="1024"
   id="U9986"
   version="1.1"
   inkscape:version="0.48.0 r9654"
   sodipodi:docname="U+9986.svg">
  <metadata
     id="metadata18">
    <rdf:RDF>
      <cc:Work
         rdf:about="">
        <dc:format>image/svg+xml</dc:format>
        <dc:type
           rdf:resource="http://purl.org/dc/dcmitype/StillImage" />
      </cc:Work>
    </rdf:RDF>
  </metadata>
  <defs
     id="defs16" />
  <sodipodi:namedview
     pagecolor="#ffffff"
     bordercolor="#666666"
     borderopacity="1"
     objecttolerance="10"
     gridtolerance="10"
     guidetolerance="10"
     inkscape:pageopacity="0"
     inkscape:pageshadow="2"
     inkscape:window-width="640"
     inkscape:window-height="480"
     id="namedview14"
     showgrid="false"
     inkscape:zoom="0.27441406"
     inkscape:cx="512"
     inkscape:cy="512"
     inkscape:window-x="0"
     inkscape:window-y="25"
     inkscape:window-maximized="0"
     inkscape:current-layer="U9986" />
  <path
     style="fill:#550000;fill-opacity:1;fill-rule:nonzero;stroke:#f9f9f9;stroke-width:0.1;stroke-miterlimit:4;stroke-dasharray:none"
     d="M 591.875 125.03125 C 571.13111 125.29911 518.60482 167.09187 528.34375 180.125 C 545.30005 201.139 563.02495 221.51525 580.28125 242.28125 C 587.42115 250.54125 593.89105 259.281 599.90625 268.375 C 610.34475 283.624 682.21965 234.40425 671.78125 219.15625 C 663.96495 207.98325 655.9237 196.99975 646.9375 186.71875 C 630.6197 167.19175 613.7952 148.05325 598.5625 127.65625 C 597.17121 125.79437 594.83841 124.99298 591.875 125.03125 z M 112.90625 213.875 C 104.37078 214.04973 98.204275 216.06575 97.03125 220.5625 C 89.80345 253.7185 82.94625 286.95925 75.90625 320.15625 C 67.44475 359.14125 58.6173 398.0275 49.8125 436.9375 C 45.2688 451.9745 43.66185 466.4705 44.09375 482.0625 C 46.80168 499.79112 127.23496 488.21141 130.96875 470.90625 C 130.14322 490.20038 132.10409 457.95222 134.5625 455.28125 C 137.16403 442.69321 139.83323 430.12914 142.53125 417.5625 C 148.55675 451.35151 150.80109 485.69546 152.1875 519.96875 C 153.1773 581.71875 149.59925 643.407 148.15625 705.125 C 147.33845 745.005 148.4023 784.90475 150.6875 824.71875 C 150.9585 845.02975 153.91585 863.80625 162.59375 882.15625 C 185.97255 912.77425 213.78175 910.6775 244.59375 894.9375 C 263.95905 883.7225 281.82245 870.11375 300.34375 857.59375 C 304.22725 855.09575 308.08525 852.59275 311.96875 850.09375 C 327.47415 840.19075 280.8179 767.097 265.3125 777 C 260.8976 779.802 256.4773 782.60425 252.0625 785.40625 C 246.64043 788.99732 241.2487 792.67805 235.875 796.34375 C 234.04305 766.52919 233.15974 736.65745 233.5 706.78125 C 234.4781 643.45925 238.0024 580.18475 237.375 516.84375 C 235.8815 471.57675 232.8467 426.367 224.625 381.75 C 223.40339 375.72913 213.16909 373.61079 200.1875 374.125 C 207.88536 371.08839 215.686 368.29341 223.53125 365.65625 C 246.84645 358.69825 270.7412 353.0935 295.125 352.1875 C 295.53408 352.20592 295.9055 352.22133 296.28125 352.25 C 294.41758 365.18348 291.54546 379.40644 287.96875 392.5 C 281.23245 415.896 272.09895 438.551 259.03125 459.125 C 257.44815 461.078 255.86435 463.048 254.28125 465 C 247.50863 473.95971 270.56227 496.85138 292.15625 510.125 C 292.07068 511.83617 291.99388 513.5289 291.9375 515.25 C 292.3126 533.836 379.9377 532.087 379.5625 513.5 C 375.0612 518.669 384.87505 491.16275 381.34375 498.09375 C 386.93566 473.77932 393.88178 449.74154 403 426.53125 C 417.41942 436.37635 431.74797 442.13254 436.53125 436.1875 C 447.23325 421.6645 462.4809 413.46925 478.625 406.40625 C 514.4158 392.59625 552.31165 385.38575 589.84375 378.09375 C 633.87375 369.66675 678.33975 363.83 723.03125 360.5 C 750.86195 358.879 778.91505 358.28675 806.53125 362.59375 C 807.73104 362.23625 809.30267 362.46912 810.9375 362.96875 C 809.58707 370.77317 809.50085 370.392 807.34375 379.15625 C 799.16165 407.70025 787.19285 434.9765 774.09375 461.5625 L 767.03125 474.59375 C 758.37655 490.79075 834.75155 531.572 843.40625 515.375 C 846.19495 510.107 848.9613 504.86175 851.75 499.59375 C 867.4365 467.35975 881.9633 434.3565 891.8125 399.8125 C 899.2849 369.1835 904.32185 338.302 885.09375 310.625 C 866.95285 290.882 845.3638 279.63575 818.5 276.34375 C 784.5931 272.02875 750.3816 272.1135 716.3125 274.6875 C 668.4453 278.6055 620.79095 284.86575 573.59375 293.84375 C 535.32773 301.17048 496.78337 308.48904 459.875 321.15625 C 451.66027 298.61379 411.4017 258.66593 400.34375 268.71875 C 388.98703 279.92534 379.08231 292.29501 370.125 305.3125 C 368.19815 301.8804 366.25324 298.44687 363.8125 295.375 C 345.8039 272.708 318.0088 264.878 290.1875 265.25 C 258.072 267.449 226.48025 273.86275 195.78125 283.59375 C 187.08831 286.5452 178.45627 289.65543 169.90625 292.96875 C 173.64466 276.14716 177.5304 259.34501 181.8125 242.65625 C 185.33157 229.16675 138.51267 213.3508 112.90625 213.875 z M 296.59375 352.28125 C 306.01128 353.08278 304.57438 356.90195 296.59375 352.28125 z M 816.90625 365.6875 C 820.33083 367.65297 821.91017 369.1599 816.90625 365.6875 z M 588.78125 389.3125 C 578.6692 389.35699 568.496 390.14438 558.3125 391.75 C 525.2718 397.387 492.51035 405.71175 462.96875 422.09375 C 454.75799 426.97395 462.62101 449.23605 474.34375 468.4375 C 448.13205 469.1411 411.5385 479.8425 413.65625 491.875 C 419.97545 528.35 423.0331 565.2965 425.6875 602.1875 C 428.3534 650.8275 430.6958 699.47225 434.625 748.03125 C 436.7661 775.05625 440.32985 801.94575 444.53125 828.71875 C 445.29495 833.53675 446.1113 838.34825 446.9375 843.15625 C 450.3623 861.48025 536.7372 845.325 533.3125 827 C 532.81798 824.57437 532.35338 822.14771 531.875 819.71875 C 539.18564 806.02652 551.80456 797.28787 564.78125 789.3125 C 588.99215 775.8105 615.66765 768.051 642.71875 762.75 C 662.1275 759.55186 681.90896 759.19326 701.34375 762.125 C 700.47125 769.04237 699.6318 777.53423 698.34375 784.40625 C 695.63695 796.19125 691.25935 807.67975 683.21875 816.84375 C 680.65986 820.15229 682.26138 825.43653 686.3125 831.46875 C 683.22822 831.87359 680.14305 832.28875 677.0625 832.71875 C 634.9074 838.56175 592.8038 844.7645 550.625 850.4375 C 518.1334 854.9455 485.6441 859.326 453.25 864.5 C 434.9697 867.851 450.75095 954.0385 469.03125 950.6875 C 500.05635 944.5005 531.4524 940.26375 562.75 935.71875 C 604.7216 929.80775 646.6715 923.74625 688.6875 918.15625 C 712.8603 915.90425 737.5072 911.13525 761.8125 914.40625 C 762.6043 914.70525 763.3958 914.98125 764.1875 915.28125 C 782.3302 919.16025 800.6427 833.629 782.5 829.75 C 780.30388 829.34919 778.10233 828.96358 775.90625 828.5625 C 779.53837 819.42052 782.3585 809.88654 784.21875 799.96875 C 788.54165 775.63975 791.27635 750.7835 783.96875 726.6875 C 768.78565 693.8555 751.9726 682.534 716.875 676.25 C 686.4645 672.175 655.72275 672.20625 625.46875 677.90625 C 588.19735 685.70025 551.4775 696.7505 518.375 716.0625 C 517.05456 699.16362 515.88972 682.26254 514.875 665.34375 C 523.27394 662.18851 531.87794 659.49703 540.375 656.78125 C 573.8256 646.77325 607.42835 637.29125 641.09375 628.03125 C 646.14345 626.70225 651.1892 625.31725 656.25 624.03125 C 663.86803 622.09489 678.04374 617.10713 688 616.375 C 684.02038 615.39431 680.04217 614.3865 676.0625 613.40625 C 694.15196 612.8207 732.33362 545.60375 717.25 536.75 C 714.29255 535.80798 711.33245 534.87928 708.375 533.9375 C 709.58273 531.35716 710.71826 528.72517 711.71875 526.03125 C 721.24335 499.72825 726.99955 472.99375 715.09375 446.21875 C 700.58275 423.03075 681.0505 407.4035 654.625 399.1875 C 633.03633 392.74288 611.02775 389.21462 588.78125 389.3125 z M 688 616.375 C 688.97836 616.6161 689.95914 616.85261 690.9375 617.09375 C 691.6705 616.88375 693.8798 616.5455 693.125 616.4375 C 691.62359 616.22325 689.87489 616.23713 688 616.375 z M 590.21875 475.96875 C 603.20451 475.97254 616.036 478.04375 628.46875 482.375 C 629.60998 481.99513 631.31193 482.67132 633.0625 483.75 C 631.87537 486.25021 631.27342 492.11211 629.90625 495.5625 C 627.34755 502.2105 623.2775 508.0105 619.25 513.8125 C 615.37639 519.57315 623.16155 530.03328 634.9375 540.03125 C 629.29011 541.58503 623.64847 543.17022 618 544.71875 C 583.3501 554.39975 548.69365 564.1145 514.15625 574.1875 C 512.67454 574.65464 511.20015 575.12152 509.71875 575.59375 C 507.82995 549.67002 505.56913 523.78602 502.5625 497.96875 C 504.49235 498.44515 506.25234 498.29641 507.75 497.40625 C 527.5453 485.95125 550.062 480.74675 572.4375 477.21875 C 578.37534 476.39375 584.31613 475.96703 590.21875 475.96875 z M 637.71875 487.28125 C 640.3814 489.64682 641.56315 491.26222 637.90625 487.6875 C 637.83896 487.53239 637.78442 487.42844 637.71875 487.28125 z "
     id="path24077" />
</svg>
