<?xml version="1.0" encoding="utf-8" ?>

<!DOCTYPE svg PUBLIC "-//W3C//DTD SVG 1.1//EN" 
  "http://www.w3.org/Graphics/SVG/1.1/DTD/svg11.dtd">
<svg 
    xmlns="http://www.w3.org/2000/svg"
    xmlns:xlink="http://www.w3.org/1999/xlink"
    xmlns:sodipodi="http://sodipodi.sourceforge.net/DTD/sodipodi-0.dtd"
    xmlns:inkscape="http://www.inkscape.org/namespaces/inkscape"
    width="1024" height="1024" id="U9971">
<path d="m 9449.0638,1309.3774 c -15.4384,34.3329 -27.9358,69.8723 -40.1417,105.4496 -12.6454,38.8109 -25.5236,77.7542 -32.3711,118.0797 -0.1562,2.7693 -0.3123,5.5385 -0.4685,8.3077 -1.7948,18.3696 -88.3897,9.909 -86.5949,-8.4606 l 0,0 c 0.6246,-5.2217 1.2491,-10.4434 1.8737,-15.6651 8.7415,-44.1865 22.3178,-87.1573 36.4521,-129.8816 12.7387,-37.6785 25.9383,-75.1985 40.625,-112.1701 7.2847,-17.1032 87.9101,17.2372 80.6254,34.3404 z" id="path19807" inkscape:connector-curvature="0" style="fill:#aa0000;fill-opacity:1;fill-rule:nonzero;stroke:#f9f9f9;stroke-width:0.1;stroke-miterlimit:4;stroke-dasharray:none" transform="translate(-9216, -1024)"/><path d="m 9344.5202,1427.8685 c 11.3254,-35.7451 29.6029,-54.5597 61.9486,-72.6613 43.1977,-18.0128 90.3697,-19.99 136.5389,-19.9967 35.0512,2.257 75.5151,4.1583 103.796,28.2296 5.9024,5.0239 10.4573,11.4436 15.686,17.1654 21.4167,36.6415 11.462,73.3644 -4.0649,109.6943 -8.0166,18.498 -17.8985,35.9423 -29.7848,52.1906 -11.2098,14.7635 -80.8053,-38.08 -69.5955,-52.8434 l 0,0 c 8.465,-10.0737 13.8142,-22.3415 19.5844,-34.0555 1.3081,-2.9272 8.187,-23.7434 9.9577,-25.1055 1.5326,-1.179 4.1026,6.1954 4.801,3.2559 0.9824,0.1998 2.3344,1.3926 2.9474,0.5992 2.0505,-2.6535 -4.9771,-4.7583 -8.1112,-5.9515 -14.4553,-5.5034 -30.1984,-6.2104 -45.428,-7.2238 -32.2882,-0.183 -65.1869,0.8556 -96.1247,11.1051 -10.2008,3.9201 -15.5514,9.441 -18.1249,20.6438 -5.3131,17.8246 -89.3391,-7.2216 -84.026,-25.0462 z" id="path19809" inkscape:connector-curvature="0" style="fill:#aa0000;fill-opacity:1;fill-rule:nonzero;stroke:#f9f9f9;stroke-width:0.1;stroke-miterlimit:4;stroke-dasharray:none" transform="translate(-9216, -1024)"/><path d="m 9523.4574,1437.8655 c -14.2465,33.7202 -17.9425,70.9826 -22.7304,106.9548 -7.2562,60.9472 -12.9986,122.0603 -19.5096,183.0894 -4.1714,40.3537 -9.72,80.5639 -13.1394,120.9931 -0.2005,4.918 -0.794,11.3833 -0.055,16.5146 0.077,0.5365 0.7598,1.9788 0.7617,1.4368 0.05,-14.5704 -12.4948,-20.1859 -23.0362,-26.4419 -20.0782,-0.5415 2.7918,-7.5818 7.5316,-10.1559 10.1969,-5.5377 14.5199,-8.2336 24.7107,-14.2685 17.8224,-10.914 9.0789,-5.3955 26.2397,-16.541 15.4165,-9.983 62.4769,62.691 47.0604,72.674 l 0,0 c -19.2503,12.4331 -9.6056,6.3545 -28.9299,18.242 -29.4475,17.6827 -58.7355,37.9546 -94.575,35.891 -8.2703,-3.5939 -17.5557,-5.4266 -24.811,-10.7816 -23.7581,-17.5355 -23.4198,-48.7355 -21.297,-74.7333 4.2191,-40.7939 10.1592,-81.3854 14.7075,-122.143 6.9482,-61.5224 12.9417,-123.1428 19.7667,-184.6781 5.7902,-46.3044 10.883,-93.7952 29.8243,-136.9451 8.6746,-16.4361 86.1554,24.4565 77.4808,40.8927 z" id="path19811" inkscape:connector-curvature="0" style="fill:#aa0000;fill-opacity:1;fill-rule:nonzero;stroke:#f9f9f9;stroke-width:0.1;stroke-miterlimit:4;stroke-dasharray:none" transform="translate(-9216, -1024)"/><path d="m 9834.5042,1230.0467 c -15.5576,38.818 -30.1463,77.9922 -46.3203,116.5717 -18.2101,42.2275 -38.5101,83.502 -58.7386,124.7855 -8.1367,16.3048 -84.9979,-22.0521 -76.8612,-38.3569 l 0,0 c 19.9449,-39.2328 39.5311,-78.6809 56.7012,-119.2266 16.0838,-39.0453 30.5571,-78.6655 44.8484,-118.3949 7.3443,-17.0491 87.7148,17.572 80.3705,34.6212 z" id="path19813" inkscape:connector-curvature="0" style="fill:#aa0000;fill-opacity:1;fill-rule:nonzero;stroke:#f9f9f9;stroke-width:0.1;stroke-miterlimit:4;stroke-dasharray:none" transform="translate(-9216, -1024)"/><path d="m 9772.4007,1287.0838 c 37.76,-11.3111 76.7792,-17.0181 115.845,-21.4311 51.1084,-6.1443 102.0082,-3.4183 151.9513,8.5695 36.371,9.6474 65.908,28.6726 87.27,59.4732 15.285,26.8664 14.467,56.1842 10.589,85.7717 -4.982,29.936 -12.673,59.3269 -20.465,88.6285 -4.155,15.4544 -8.444,30.8663 -13.056,46.1904 -5.43,17.688 -88.812,-7.9104 -83.382,-25.5984 l 0,0 c 4.478,-14.2689 8.64,-28.628 12.616,-43.0453 6.921,-25.6415 13.677,-51.3829 18.002,-77.6142 1.23,-9.1184 2.132,-18.2068 2.072,-27.4015 -3.552,-13.6688 -24.058,-17.9905 -34.698,-22.7555 -39.626,-10.6475 -80.3751,-11.7797 -121.0934,-6.9715 -33.6258,3.9474 -67.4023,8.7855 -99.5706,19.7747 -17.7322,5.5325 -43.8125,-78.0581 -26.0803,-83.5905 z" id="path19823" inkscape:connector-curvature="0" style="fill:#aa0000;fill-opacity:1;fill-rule:nonzero;stroke:#f9f9f9;stroke-width:0.1;stroke-miterlimit:4;stroke-dasharray:none" transform="translate(-9216, -1024)"/><path d="m 9756.1913,1393.7648 c 31.5392,5.8863 63.0515,11.8923 94.4826,18.333 30.5412,6.0631 60.6411,13.5604 88.7788,27.0527 26.3572,14.0275 41.8576,36.9623 51.6108,64.3747 8.5057,29.1455 3.2282,58.4106 -4.5369,86.9867 -4.1795,14.8143 -10.7045,28.6951 -17.3203,42.5226 -8.0418,16.5941 -86.267,-21.3152 -78.2252,-37.9093 l 0,0 c 4.4574,-9.0222 8.8369,-18.0861 11.6927,-27.7792 3.3323,-11.7523 6.9034,-24.0132 5.4213,-36.3548 -1.2814,-5.6393 -2.7867,-10.6705 -7.8916,-13.9846 -20.4001,-11.5979 -44.5591,-14.4046 -66.9405,-20.2281 -30.4198,-6.2763 -60.9201,-12.248 -91.6671,-16.7104 -18.3077,-3.0961 -3.7123,-89.3995 14.5954,-86.3033 z" id="path19825" inkscape:connector-curvature="0" style="fill:#aa0000;fill-opacity:1;fill-rule:nonzero;stroke:#f9f9f9;stroke-width:0.1;stroke-miterlimit:4;stroke-dasharray:none" transform="translate(-9216, -1024)"/><path d="m 9764.1916,1594.4825 c 39.2352,-6.5343 79.1828,-6.2105 118.836,-6.5099 16.6179,-0.046 33.2332,-0.1068 49.849,-0.3728 18.4174,-0.093 18.8546,86.7275 0.4372,86.8203 l 0,0 c -16.5874,-0.089 -33.173,-0.3258 -49.761,-0.3319 -33.1327,0.1519 -66.6255,-0.2891 -99.3469,5.6165 -18.0783,4.2457 -38.0926,-80.9765 -20.0143,-85.2222 z" id="path19827" inkscape:connector-curvature="0" style="fill:#aa0000;fill-opacity:1;fill-rule:nonzero;stroke:#f9f9f9;stroke-width:0.1;stroke-miterlimit:4;stroke-dasharray:none" transform="translate(-9216, -1024)"/><path d="m 9813.6818,1502.3631 c -15.6295,37.5759 -27.3193,76.6688 -39.3729,115.4984 -14.5828,48.366 -29.0397,97.1639 -31.804,147.8306 -0.113,26.9675 12.2881,42.2897 34.8102,54.5809 36.9361,15.916 77.6298,18.752 117.268,21.5847 39.8118,2.3493 79.7666,2.1503 119.2059,-4.0527 11.015,-1.8411 21.283,-5.8239 31.431,-10.2793 17.075,-6.9692 49.928,73.5185 32.854,80.4877 l 0,0 c -16.802,6.5723 -33.722,12.6712 -51.702,15.2641 -45.7463,6.3848 -91.9092,7.1527 -138.0003,4.0865 -53.4432,-3.9385 -107.929,-8.9325 -156.4115,-33.7596 -7.6729,-5.0011 -15.8461,-9.3079 -23.0188,-15.0033 -36.9736,-29.3583 -52.7516,-72.5722 -52.1205,-118.7962 4.5079,-57.1007 18.9192,-112.3781 35.8365,-166.999 12.7583,-42.053 25.3259,-84.228 40.7624,-125.3957 7.4146,-17.0261 87.6766,17.9267 80.262,34.9529 z" id="path19829" inkscape:connector-curvature="0" style="fill:#aa0000;fill-opacity:1;fill-rule:nonzero;stroke:#f9f9f9;stroke-width:0.1;stroke-miterlimit:4;stroke-dasharray:none" transform="translate(-9216, -1024)"/></svg>