<?xml version="1.0" encoding="UTF-8" standalone="no"?>
<svg
   xmlns:dc="http://purl.org/dc/elements/1.1/"
   xmlns:cc="http://creativecommons.org/ns#"
   xmlns:rdf="http://www.w3.org/1999/02/22-rdf-syntax-ns#"
   xmlns:svg="http://www.w3.org/2000/svg"
   xmlns="http://www.w3.org/2000/svg"
   xmlns:sodipodi="http://sodipodi.sourceforge.net/DTD/sodipodi-0.dtd"
   xmlns:inkscape="http://www.inkscape.org/namespaces/inkscape"
   width="1024"
   height="1024"
   id="U9999"
   version="1.1"
   inkscape:version="0.48.0 r9654"
   sodipodi:docname="U+9999.svg">
  <metadata
     id="metadata16">
    <rdf:RDF>
      <cc:Work
         rdf:about="">
        <dc:format>image/svg+xml</dc:format>
        <dc:type
           rdf:resource="http://purl.org/dc/dcmitype/StillImage" />
      </cc:Work>
    </rdf:RDF>
  </metadata>
  <defs
     id="defs14" />
  <sodipodi:namedview
     pagecolor="#ffffff"
     bordercolor="#666666"
     borderopacity="1"
     objecttolerance="10"
     gridtolerance="10"
     guidetolerance="10"
     inkscape:pageopacity="0"
     inkscape:pageshadow="2"
     inkscape:window-width="640"
     inkscape:window-height="480"
     id="namedview12"
     showgrid="false"
     inkscape:zoom="0.27441406"
     inkscape:cx="512"
     inkscape:cy="512"
     inkscape:window-x="0"
     inkscape:window-y="25"
     inkscape:window-maximized="0"
     inkscape:current-layer="U9999" />
  <path
     style="fill:#916f6f;fill-opacity:1;fill-rule:nonzero;stroke:#f9f9f9;stroke-width:0.1;stroke-miterlimit:4;stroke-dasharray:none"
     d="M 613.09375 72.625 C 612.52003 72.649414 611.95906 72.743156 611.40625 72.9375 C 574.6144 87.0415 538.07463 101.78225 501.4375 116.28125 C 457.08621 133.49425 412.73688 150.726 368.3125 167.75 C 337.04712 179.221 306.76351 193.03425 276.40625 206.65625 L 268.875 210 C 251.85731 217.791 288.57606 298.01075 305.59375 290.21875 C 308.19594 288.98775 310.80406 287.76225 313.40625 286.53125 C 341.71643 273.02925 370.09481 259.6205 399.53125 248.6875 C 414.30586 242.96012 429.07173 237.23405 443.84375 231.5 C 445.48493 255.97806 446.34788 280.52553 446.96875 305.0625 C 376.20067 315.98587 305.41701 326.68816 234.65625 337.65625 C 190.34807 345.06225 145.84753 352.376 102.59375 364.75 C 84.766438 370.638 112.54769 454.66925 130.375 448.78125 C 169.09705 436.24425 209.37869 429.367 249.34375 422.125 C 288.7442 415.49623 328.20996 409.19166 367.6875 403.03125 C 364.037 406.74054 360.38298 410.44354 356.75 414.15625 C 319.58154 452.76425 283.76597 492.6475 248.4375 532.9375 C 228.85449 555.0145 209.29387 577.13975 192.1875 601.21875 L 188.25 607.4375 C 178.76235 623.6785 255.35609 668.39825 264.84375 652.15625 L 265.1875 651.0625 C 279.35852 629.0935 296.89019 609.62725 313.8125 589.78125 C 347.62647 550.52825 382.23598 511.915 418.34375 474.75 C 428.35931 464.63146 438.40524 454.4357 448.75 444.5625 C 449.36086 479.07522 450.79831 513.55366 454.59375 547.9375 C 455.03884 551.6616 455.51761 555.37474 456 559.09375 C 442.25082 561.66325 428.58249 564.77693 415 568.5 C 374.7281 579.342 333.44877 590.4795 298.53125 614.1875 C 291.34177 619.86332 300.73836 639.30356 313.9375 656.375 C 293.24869 657.6255 273.84956 662.96393 274.15625 671.78125 C 276.52413 711.79925 285.23739 751.064 293.75 790.125 C 302.70582 834.787 316.21531 878.2375 332.5625 920.6875 C 337.66558 933.7485 343.58084 946.504 350.40625 958.75 C 355.34369 966.88074 377.14325 959.10304 396.25 947.375 C 424.49914 949.62634 452.89047 948.81889 481.1875 947.375 C 525.12979 944.206 568.84953 938.59475 612.59375 933.46875 C 635.8643 930.88175 659.26702 928.1915 682.71875 929.1875 L 686.84375 929.5 C 691.97509 929.7514 695.98616 923.31259 698.78125 913.8125 C 702.07677 912.90297 704.34584 911.29275 705.125 908.84375 C 707.58603 900.73075 710.0499 892.62825 712.5625 884.53125 C 721.90102 852.29325 729.31578 819.57925 733.78125 786.28125 C 738.98119 748.16225 743.59275 709.54375 737.34375 671.21875 C 730.07333 635.76675 716.35 604.4185 685.0625 583.6875 C 650.04162 562.8455 611.68907 551.49175 570.75 550.09375 C 561.30695 549.87457 551.87849 549.89304 542.46875 550.125 C 541.84167 545.96295 541.23391 541.79448 540.65625 537.625 C 536.63047 506.88314 534.98667 476.01619 534.28125 445.09375 C 546.89644 452.93219 559.49311 460.79677 572.1875 468.5 C 607.52457 489.575 642.34173 511.3895 674.4375 537.1875 C 690.55772 550.9815 705.6039 566.0355 720.3125 581.3125 C 733.55414 594.5995 796.17914 532.162 782.9375 518.875 C 765.29158 501.676 747.64895 484.39825 728.5625 468.78125 C 693.32864 441.26725 655.71005 417.31325 617.34375 394.40625 C 605.22034 386.98737 593.19628 379.40994 581.1875 371.8125 C 616.51397 367.81093 651.9318 364.66021 687.40625 362.09375 C 728.39925 359.60575 769.40639 357.084 810.46875 356.125 C 824.19943 358.30388 839.69358 354.05195 853.78125 355.5625 C 853.44807 355.50251 853.11443 355.43498 852.78125 355.375 C 870.6713 355.72378 898.16338 277.54585 881.03125 271.375 C 876.65539 270.379 872.25085 269.40225 867.875 268.40625 C 847.87578 267.36525 827.82081 268.54375 807.8125 268.71875 C 765.42276 270.27675 723.08941 273.14725 680.78125 276.15625 C 631.27497 280.19018 581.88549 285.29712 532.6875 292.03125 C 532.17747 260.73943 531.40422 229.43822 529.78125 198.1875 C 530.91644 197.74911 532.05225 197.31323 533.1875 196.875 C 568.84494 182.889 604.39756 168.53375 640.71875 156.34375 C 657.8557 150.31909 630.87922 71.868166 613.09375 72.625 z M 853.78125 355.5625 C 856.03754 355.96873 858.30622 356.37532 860.5625 356.78125 C 858.3555 356.1743 856.07728 355.80869 853.78125 355.5625 z M 551.71875 636.59375 C 557.22306 636.58861 562.73213 636.70725 568.25 636.90625 C 593.32274 638.53725 617.8382 644.1595 638.8125 658.3125 C 647.86288 665.8985 649.26367 676.965 651.1875 688 C 652.31355 695.90893 652.82551 703.82643 652.90625 711.75 C 624.40593 703.53635 595.15785 698.67087 565.40625 698.375 C 519.88107 698.389 474.59523 702.803 430.34375 714 C 410.02915 719.26514 389.8923 725.09886 370.09375 731.9375 C 366.71949 714.10437 364.01057 696.15861 363 678.0625 C 386.29921 665.72644 412.41955 659.0083 437.6875 652.0625 C 475.01829 641.71125 513.18859 636.62973 551.71875 636.59375 z M 557.78125 785.53125 C 560.1537 785.53057 562.53215 785.56212 564.90625 785.59375 C 586.84934 786.18975 608.45522 789.79725 629.28125 796.65625 C 635.36114 798.92425 633.01769 797.73475 636.59375 799.71875 C 638.68349 800.61585 641.01624 800.1976 643.5 798.78125 C 640.66987 813.82855 637.1524 828.7503 633.03125 843.5 C 622.72527 844.48926 612.42531 845.70201 602.15625 847.03125 C 560.49046 852.19125 518.84285 857.69725 476.9375 860.53125 C 452.24067 861.68012 427.3713 862.43965 402.78125 859.5625 C 397.84751 845.81856 393.35701 831.91719 389.375 817.875 C 409.82887 809.8646 430.94553 803.59074 452.21875 798.03125 C 486.83174 789.24594 522.19453 785.5414 557.78125 785.53125 z "
     id="path11387" />
</svg>
