<?xml version="1.0" encoding="UTF-8" standalone="no"?>
<svg
   xmlns:dc="http://purl.org/dc/elements/1.1/"
   xmlns:cc="http://creativecommons.org/ns#"
   xmlns:rdf="http://www.w3.org/1999/02/22-rdf-syntax-ns#"
   xmlns:svg="http://www.w3.org/2000/svg"
   xmlns="http://www.w3.org/2000/svg"
   xmlns:sodipodi="http://sodipodi.sourceforge.net/DTD/sodipodi-0.dtd"
   xmlns:inkscape="http://www.inkscape.org/namespaces/inkscape"
   width="1024"
   height="1024"
   id="U997A"
   version="1.1"
   inkscape:version="0.48.0 r9654"
   sodipodi:docname="U+997A.svg">
  <metadata
     id="metadata16">
    <rdf:RDF>
      <cc:Work
         rdf:about="">
        <dc:format>image/svg+xml</dc:format>
        <dc:type
           rdf:resource="http://purl.org/dc/dcmitype/StillImage" />
      </cc:Work>
    </rdf:RDF>
  </metadata>
  <defs
     id="defs14" />
  <sodipodi:namedview
     pagecolor="#ffffff"
     bordercolor="#666666"
     borderopacity="1"
     objecttolerance="10"
     gridtolerance="10"
     guidetolerance="10"
     inkscape:pageopacity="0"
     inkscape:pageshadow="2"
     inkscape:window-width="640"
     inkscape:window-height="480"
     id="namedview12"
     showgrid="false"
     inkscape:zoom="0.27441406"
     inkscape:cx="512"
     inkscape:cy="512"
     inkscape:window-x="0"
     inkscape:window-y="25"
     inkscape:window-maximized="0"
     inkscape:current-layer="U997A" />
  <path
     style="fill:#550000;fill-opacity:1;fill-rule:nonzero;stroke:#f9f9f9;stroke-width:0.1;stroke-miterlimit:4;stroke-dasharray:none"
     d="M 609.125 181.90625 C 589.57082 182.97613 542.2308 238.97937 555.09375 250.34375 C 576.48045 268.09075 596.8551 287.0295 615.3125 307.8125 C 616.53244 309.21827 617.71324 310.64691 618.875 312.09375 C 584.41516 315.07204 549.98636 318.18438 515.59375 321.875 C 491.30499 324.5314 466.98037 327.05132 442.65625 329.34375 C 442.70471 324.33772 442.58404 319.32796 442.21875 314.3125 C 435.38605 278.7725 416.80785 258.0975 379.46875 255.1875 C 350.26935 254.5595 321.22825 258.37125 292.65625 264.28125 C 272.71714 268.72487 252.9492 273.78693 233.375 279.5625 C 236.13334 266.70817 239.11398 253.93021 242.59375 241.25 C 247.55585 222.941 161.2746 199.53575 156.3125 217.84375 C 148.9843 249.31475 143.01845 281.0785 136.96875 312.8125 C 130.87995 344.3965 124.2304 375.8865 120.1875 407.8125 C 118.0116 426.5365 206.29275 436.7875 208.46875 418.0625 C 209.31487 409.84224 210.42528 401.6549 211.6875 393.5 C 214.79982 423.96025 216.84807 454.54 218.4375 485.125 C 221.0255 538.993 221.2217 592.8995 220.5625 646.8125 C 219.4578 687.3015 219.17265 727.796 221.28125 768.25 C 222.31165 790.047 224.40615 811.7555 228.53125 833.1875 C 230.40245 847.7615 235.7661 860.16225 243.6875 872.40625 C 273.096 900.74425 300.81365 891.68 327.40625 867.875 C 336.26305 859.338 331.8992 863.5415 340.5 855.3125 C 348.19303 848.04161 332.34618 824.52658 314.53125 807.53125 C 311.84006 792.86523 310.47141 778.02318 309.5625 763.125 C 307.0628 724.681 307.222 686.16225 308 647.65625 C 308.3911 592.04025 307.9557 536.41775 305.5625 480.84375 C 303.61071 438.42523 300.6476 396.10821 296.875 353.8125 C 301.79378 352.63706 306.71433 351.4821 311.65625 350.40625 C 325.18167 348.13377 338.90051 345.55506 352.6875 344.4375 C 351.42599 357.62883 349.28504 370.74292 347.125 383.8125 C 341.5941 414.4755 334.56195 444.8315 325.65625 474.6875 C 321.20465 488.0605 323.4773 481.8465 318.9375 493.4375 C 312.3298 511.1005 395.61095 542.2265 402.21875 524.5625 C 408.14545 508.2025 405.3008 516.58625 410.6875 499.40625 C 418.14478 473.18689 424.57095 446.6961 430.0625 420 C 443.35807 418.3871 456.65999 416.82498 469.96875 415.3125 C 462.08131 427.5641 454.3415 439.90076 446.65625 452.28125 C 424.30065 489.97125 400.56725 527.26925 385.96875 568.78125 C 381.52615 597.26825 381.55745 581.3095 390.15625 616.4375 C 396.25732 628.60147 439.16431 611.41917 459.75 594.46875 C 484.13592 620.5135 510.86347 644.25522 538.1875 667.21875 C 539.21594 668.04422 540.25127 668.86401 541.28125 669.6875 C 536.69159 675.336 532.0492 680.92759 527.40625 686.53125 C 494.32755 725.81225 459.21595 763.30125 422.96875 799.65625 C 415.35485 807.78125 403.8511 818.13925 395.6875 823.03125 C 379.2151 832.38025 423.30885 910.0375 439.78125 900.6875 C 456.96205 889.6795 471.85765 876.30825 485.71875 861.28125 C 523.11425 822.61625 559.6264 783.058 594.25 741.875 C 599.51285 735.5144 604.76837 729.13155 609.96875 722.71875 C 634.69344 741.29349 659.60501 759.6206 684.46875 778 C 721.21515 805.033 757.9113 832.128 794.3125 859.625 C 808.1896 870.369 822.43835 880.61625 836.46875 891.15625 C 851.93785 902.15525 903.7817 829.25 888.3125 818.25 C 874.2804 808.849 860.57825 798.961 847.03125 788.875 C 810.13925 761.76 773.0674 734.8985 736.0625 707.9375 C 711.61377 690.00648 687.14718 672.06565 662.90625 653.84375 C 677.6542 633.35234 691.73695 612.39342 704.84375 590.75 C 721.69579 563.33409 737.9039 535.5452 754 507.6875 C 761.39882 512.80761 768.8646 517.84775 776.3125 522.875 C 800.8142 539.602 826.37115 555.29275 847.59375 576.21875 C 861.30415 589.13775 922.2104 524.51275 908.5 511.59375 C 883.0323 488.25375 854.48455 468.8785 825.65625 449.9375 C 801.77305 433.7405 777.4203 417.699 757 397.125 C 746.51264 386.52014 704.95972 423.15074 694.21875 445.8125 C 689.66401 445.50907 686.24063 446.48112 684.625 449.15625 C 667.3838 481.72525 649.1948 513.7455 630.1875 545.3125 C 618.95187 564.23039 606.86772 582.55562 594.1875 600.46875 C 564.12849 574.95703 534.57361 548.48981 510.25 517.28125 C 513.97543 511.09024 517.56968 504.88151 520.875 498.59375 C 540.5299 467.24975 560.59665 436.05 583.40625 406.875 C 584.28245 405.73168 584.67068 404.36236 584.65625 402.8125 C 616.28664 399.81127 647.95936 397.16378 679.625 394.5625 C 721.1131 391.1005 762.60325 387.62225 804.15625 385.03125 C 808.86535 384.76925 813.57145 384.5 818.28125 384.25 C 825.61735 383.861 853.63485 382.115 842.46875 383.625 C 861.37315 385.653 870.9045 296.527 852 294.5 C 833.9811 293.588 816.07545 295.8215 798.09375 296.9375 C 762.87491 299.56839 727.71171 302.65979 692.53125 305.75 C 703.09035 296.43013 709.67321 287.02801 706.09375 281.5625 C 698.35325 270.0925 690.34115 258.81625 681.03125 248.53125 C 660.03825 225.51825 637.3627 204.2375 614.1875 183.4375 C 612.85685 182.26187 611.14785 181.79557 609.125 181.90625 z M 370.71875 343.96875 C 372.45857 344.0336 374.19879 344.10939 375.9375 344.25 C 376.376 344.451 377.7315 344.845 377.25 344.875 C 374.94606 345.03773 372.76167 344.6885 370.71875 343.96875 z "
     id="path9041" />
</svg>
