<?xml version="1.0" encoding="utf-8" ?>

<!DOCTYPE svg PUBLIC "-//W3C//DTD SVG 1.1//EN" 
  "http://www.w3.org/Graphics/SVG/1.1/DTD/svg11.dtd">
<svg 
    xmlns="http://www.w3.org/2000/svg"
    xmlns:xlink="http://www.w3.org/1999/xlink"
    xmlns:sodipodi="http://sodipodi.sourceforge.net/DTD/sodipodi-0.dtd"
    xmlns:inkscape="http://www.inkscape.org/namespaces/inkscape"
    width="1024" height="1024" id="U9A8C">
<path d="m 11395.302,56574.534 c 34.016,-9.416 69.056,-13.332 104.171,-15.536 37.438,-2.354 74.264,1.538 109.939,12.932 37.448,13.802 56.775,37.083 70.347,73.707 10.646,37.984 4.461,76.625 -3.556,114.388 -8.188,33.428 -17.882,66.458 -26.578,99.756 -2.958,14.571 -7.611,28.252 -14.174,41.53 -9.608,16.181 -85.885,-29.111 -76.277,-45.292 l 0,0 c -0.488,1.429 -1.772,2.809 -1.463,4.286 0.275,1.317 1.139,-2.442 1.583,-3.711 2.137,-6.108 3.978,-13.377 5.651,-19.477 8.697,-31.742 18.075,-63.306 25.927,-95.27 4.757,-22.236 9.694,-45.219 5.65,-67.974 -2.125,-9.723 -4.865,-14.968 -15.046,-18.737 -24.562,-9.028 -50.651,-10.215 -76.634,-9.111 -28.137,1.698 -56.351,4.557 -83.397,12.969 -17.917,5.546 -44.059,-78.914 -26.143,-84.46 z" id="path12985" inkscape:connector-curvature="0" style="fill:#916f6f;fill-opacity:1;fill-rule:nonzero;stroke:#f9f9f9;stroke-width:0.1;stroke-miterlimit:4;stroke-dasharray:none" transform="translate(-11264, -56320)"/><path d="m 11464.582,56650.538 c -10.281,32.193 -19.816,64.618 -29.158,97.094 -11.22,38.971 -21.813,78.139 -28.193,118.22 -0.831,17.943 -6.12,40.82 4.109,57.221 3.381,-0.354 -1.439,-4.558 -0.305,-5.605 2.383,-2.202 23.731,-2.527 25.29,-2.721 40.036,-7.196 79.698,-16.355 119.522,-24.644 32.378,-6.906 64.816,-13.498 97.72,-17.295 21.548,-2.45 42.956,-2.338 64.106,2.442 33.686,11.066 45.818,39.871 50.476,72.311 3.178,36.449 -5.359,72.139 -14.641,107.079 -11.112,39.02 -24.538,77.317 -36.711,116.007 -7.463,23.55 -13.731,47.441 -18.794,71.614 -1.671,14.55 -6.002,26.749 -12.448,39.864 -10.748,15.502 -83.825,-35.164 -73.078,-50.666 l 0,0 c -11.885,27.011 -0.02,-1.286 -0.572,-7.986 6.043,-26.756 13.289,-53.208 21.787,-79.296 11.988,-37.204 25.03,-74.086 35.558,-111.745 6.27,-24.012 12.746,-48.514 11.544,-73.558 -1.21,-13.998 3.291,1.356 14.153,1.916 -8.581,-3.05 -22.009,-0.75 -31.951,-0.646 -30.189,2.973 -59.902,9.106 -89.602,15.146 -42.352,8.631 -84.453,18.513 -126.996,26.141 -48.692,5.42 -89.724,3.083 -116.194,-44.303 -12.969,-34.152 -14.994,-69.462 -8.978,-105.557 7.422,-43.218 18.574,-85.584 30.672,-127.714 9.199,-32.657 18.742,-65.218 27.659,-97.953 5.226,-18.036 90.251,6.597 85.025,24.634 z" id="path12987" inkscape:connector-curvature="0" style="fill:#916f6f;fill-opacity:1;fill-rule:nonzero;stroke:#f9f9f9;stroke-width:0.1;stroke-miterlimit:4;stroke-dasharray:none" transform="translate(-11264, -56320)"/><path d="m 11307.147,57087.098 c 42.179,-8.143 84.762,-14.035 127.281,-20.08 52.491,-7.441 104.889,-15.514 157.385,-22.924 21.346,-2.934 42.719,-5.664 64.103,-8.31 18.621,-2.04 28.239,85.739 9.618,87.779 l 0,0 c -20.745,1.971 -41.477,4.107 -62.163,6.638 -52.275,6.647 -104.394,14.417 -156.522,22.118 -39.959,5.959 -80.092,11.608 -119.44,20.891 -18.268,4.298 -38.529,-81.814 -20.262,-86.112 z" id="path12989" inkscape:connector-curvature="0" style="fill:#916f6f;fill-opacity:1;fill-rule:nonzero;stroke:#f9f9f9;stroke-width:0.1;stroke-miterlimit:4;stroke-dasharray:none" transform="translate(-11264, -56320)"/><path d="m 11986.678,56571.967 c -23.771,30.943 -45.305,63.549 -67.03,95.941 -30.876,46.053 -59.496,93.555 -84.62,142.983 -7.387,14.324 -13.131,29.276 -17.886,44.631 -5.93,17.607 -88.931,-10.348 -83,-27.955 l 0,0 c 6.848,-19.283 14.314,-38.298 24,-56.384 27.187,-51.899 57.414,-102.092 89.673,-151.001 22.532,-34.231 44.978,-68.538 68.617,-102.02 11.414,-14.902 81.66,38.904 70.246,53.805 z" id="path12991" inkscape:connector-curvature="0" style="fill:#916f6f;fill-opacity:1;fill-rule:nonzero;stroke:#f9f9f9;stroke-width:0.1;stroke-miterlimit:4;stroke-dasharray:none" transform="translate(-11264, -56320)"/><path d="m 12033.567,56578.624 c 12.057,27.684 27.462,53.696 43.324,79.324 21.027,32.815 43.016,64.988 63.091,98.405 10.539,19.693 5.746,9.606 14.371,30.264 6.795,17.354 -75.01,49.386 -81.805,32.033 l 0,0 c -3.606,-10.798 -1.229,-4.798 -7.755,-17.74 -19.329,-33.135 -41.071,-64.73 -61.803,-96.988 -17.896,-28.635 -35.002,-57.759 -49.749,-88.166 -7.877,-17.039 72.45,-54.171 80.326,-37.132 z" id="path12993" inkscape:connector-curvature="0" style="fill:#916f6f;fill-opacity:1;fill-rule:nonzero;stroke:#f9f9f9;stroke-width:0.1;stroke-miterlimit:4;stroke-dasharray:none" transform="translate(-11264, -56320)"/><path d="m 11777.959,56820.465 c 39.932,1.745 79.948,-1.324 119.822,-3.413 59.245,-3.404 118.383,-8.388 177.574,-12.59 39.839,-2.804 79.734,-5.33 119.674,-3.746 12.327,0.144 23.745,3.248 35.34,7 17.49,6.882 -14.951,89.328 -32.44,82.447 l 0,0 c 0.907,0.08 3.188,1.025 2.722,0.242 -1.766,-2.966 -9.893,1.991 -10.168,-1.969 -36.417,-2.466 -72.897,-0.06 -109.28,2.016 -59.559,3.87 -119.037,8.876 -178.6,12.697 -43.688,2.604 -87.431,6.098 -131.223,5.471 -18.7,-1.395 -12.121,-89.551 6.579,-88.155 z" id="path12995" inkscape:connector-curvature="0" style="fill:#916f6f;fill-opacity:1;fill-rule:nonzero;stroke:#f9f9f9;stroke-width:0.1;stroke-miterlimit:4;stroke-dasharray:none" transform="translate(-11264, -56320)"/><path d="m 11840.466,56940.433 c 16.213,23.544 34.933,45.26 53.345,67.09 10.122,12.09 20.612,23.853 31.228,35.507 12.423,13.811 -52.685,72.373 -65.108,58.562 l 0,0 c -11.075,-12.455 -22.055,-24.99 -32.769,-37.759 -20.338,-24.031 -40.848,-47.973 -59.62,-73.265 -10.635,-15.47 62.288,-65.604 72.924,-50.135 z" id="path12997" inkscape:connector-curvature="0" style="fill:#916f6f;fill-opacity:1;fill-rule:nonzero;stroke:#f9f9f9;stroke-width:0.1;stroke-miterlimit:4;stroke-dasharray:none" transform="translate(-11264, -56320)"/><path d="m 12023.251,56946.597 c 3.157,20.961 13.45,39.906 23.176,58.438 2.005,3.595 4.009,7.19 6.013,10.785 8.986,16.295 -67.826,58.654 -76.812,42.36 l 0,0 c -2.304,-4.218 -4.609,-8.435 -6.913,-12.653 -14.802,-28.581 -28.94,-57.974 -33.5,-90.199 -1.852,-18.676 86.184,-27.406 88.036,-8.731 z" id="path12999" inkscape:connector-curvature="0" style="fill:#916f6f;fill-opacity:1;fill-rule:nonzero;stroke:#f9f9f9;stroke-width:0.1;stroke-miterlimit:4;stroke-dasharray:none" transform="translate(-11264, -56320)"/><path d="m 12181.618,56988.764 c -26.393,18.872 -48.714,42.731 -71.181,65.965 -13.891,14.96 -28.539,29.155 -43.341,43.2 -13.454,12.678 -73.219,-50.749 -59.764,-63.427 l 0,0 c 13.908,-12.999 27.601,-26.211 40.557,-40.175 26.573,-27.551 53.164,-55.4 83.822,-78.504 15.473,-10.587 65.38,62.354 49.907,72.941 z" id="path13001" inkscape:connector-curvature="0" style="fill:#916f6f;fill-opacity:1;fill-rule:nonzero;stroke:#f9f9f9;stroke-width:0.1;stroke-miterlimit:4;stroke-dasharray:none" transform="translate(-11264, -56320)"/><path d="m 11764.55,57105.032 c 41.29,1.935 82.528,-3.138 123.53,-7.328 71.367,-8.261 143.006,-13.333 214.757,-16.572 48.447,-2.575 96.963,-2.863 144.99,4.461 17.404,3.647 9.404,1.857 24.023,5.275 18.145,4.52 -3.16,90.055 -21.304,85.536 l 0,0 c -10.991,-2.947 -5.307,-1.471 -17.059,-4.41 -41.92,-7.737 -84.61,-6.851 -127.064,-5.295 -69.911,2.695 -139.705,7.555 -209.145,16.323 -44.919,5.088 -89.946,10.725 -135.233,10.524 -18.777,-0.531 -16.272,-89.045 2.505,-88.514 z" id="path13005" inkscape:connector-curvature="0" style="fill:#916f6f;fill-opacity:1;fill-rule:nonzero;stroke:#f9f9f9;stroke-width:0.1;stroke-miterlimit:4;stroke-dasharray:none" transform="translate(-11264, -56320)"/></svg>