<?xml version="1.0" encoding="utf-8" ?>

<!DOCTYPE svg PUBLIC "-//W3C//DTD SVG 1.1//EN" 
  "http://www.w3.org/Graphics/SVG/1.1/DTD/svg11.dtd">
<svg 
    xmlns="http://www.w3.org/2000/svg"
    xmlns:xlink="http://www.w3.org/1999/xlink"
    xmlns:sodipodi="http://sodipodi.sourceforge.net/DTD/sodipodi-0.dtd"
    xmlns:inkscape="http://www.inkscape.org/namespaces/inkscape"
    width="1024" height="1024" id="U9A7E">
<path d="m 9387.8739,21758.411 c 39.3411,-10.834 79.762,-16.818 120.1202,-22.343 50.4515,-6.741 101.1753,-10.968 152.0778,-11.07 36.6847,0.05 71.3086,6.924 102.0131,27.253 30.2524,25.418 29.9461,59.578 21.2746,94.861 -10.7071,35.454 -23.8735,70.107 -36.7177,104.826 -11.0387,28.264 -19.802,57.318 -29.6119,86.007 -5.7123,13.901 -2.3591,6.869 -10.2456,21.006 -9.9287,16.149 -86.0563,-30.655 -76.1276,-46.804 l 0,0 c 0.1329,0.123 0.2657,0.246 0.3986,0.369 0.6967,-1.437 1.3934,-2.874 2.0901,-4.311 10.648,-28.788 19.8457,-58.109 31.0154,-86.713 11.7045,-31.782 23.4964,-63.58 33.0823,-96.081 5.3604,-20.238 0.4568,-6.408 12.1277,-1.259 -12.0444,-11.061 -33.923,-9.477 -49.6276,-11.323 -46.7519,-0.491 -93.3437,3.571 -139.6594,9.845 -35.549,5.065 -71.3296,10.263 -105.682,21.057 -18.0991,5.627 -44.6271,-79.693 -26.528,-85.32 z" id="path8697" inkscape:connector-curvature="0" style="fill:#550000;fill-opacity:1;fill-rule:nonzero;stroke:#f9f9f9;stroke-width:0.1;stroke-miterlimit:4;stroke-dasharray:none" transform="translate(-9216, -21504)"/><path d="m 9653.9597,21623.848 c -15.7278,41.911 -31.1794,83.923 -47.1294,125.752 -23.5683,60.367 -47.5355,120.571 -69.7584,181.45 -12.0274,33.425 -23.1135,67.178 -33.8275,101.043 -2.9419,9.204 -1.6559,5.06 -3.8971,12.42 -5.973,18.013 -90.8868,-10.144 -84.9138,-28.156 l 0,0 c 2.6972,-7.565 1.2411,-3.489 4.3709,-12.229 11.9367,-34.517 23.9783,-69.001 36.6473,-103.258 22.7765,-60.841 46.9595,-121.133 70.0599,-181.851 15.4008,-41.543 30.5017,-83.203 44.42,-125.271 6.3851,-17.825 90.4131,12.275 84.0281,30.1 z" id="path8699" inkscape:connector-curvature="0" style="fill:#550000;fill-opacity:1;fill-rule:nonzero;stroke:#f9f9f9;stroke-width:0.1;stroke-miterlimit:4;stroke-dasharray:none" transform="translate(-9216, -21504)"/><path d="m 9884.2849,21752.653 c -0.5803,29.115 0.1552,58.251 1.5254,87.335 2.0728,17.177 1.4234,38.916 9.8178,53.398 -6.8367,-12.037 -1.576,-4.932 -19.9913,-17.429 18.2692,5.264 -6.5443,91.385 -24.8135,86.122 l 0,0 c -28.4713,-15.976 -17.9883,-6.085 -33.9901,-26.725 -13.5478,-28.653 -17.6783,-59.745 -19.1303,-91.246 -1.4403,-31.01 -2.1896,-62.044 -2.8284,-93.081 0.3448,-18.967 89.7553,-17.341 89.4104,1.626 z" id="path8701" inkscape:connector-curvature="0" style="fill:#550000;fill-opacity:1;fill-rule:nonzero;stroke:#f9f9f9;stroke-width:0.1;stroke-miterlimit:4;stroke-dasharray:none" transform="translate(-9216, -21504)"/><path d="m 9871.2852,21746.52 c 25.2357,-15.65 53.5162,-24.324 82.3218,-30.495 25.7604,-4.988 51.921,-6.002 77.963,-3.237 30.917,4.213 48.719,17.504 62.992,45.093 9.245,27.073 4.675,55.09 -0.693,82.417 -6.84,29.814 -17.129,58.669 -26.673,87.687 -6.155,18.256 -10.643,37.03 -18.769,54.535 -15.841,20.799 -5.082,10.628 -35.87,26.198 -18.6772,3.676 -36.0072,-84.367 -17.3305,-88.043 l 0,0 c -23.7193,13.816 -16.3821,5.368 -26.3737,20.765 -0.4863,4.581 2.0104,-4.447 3.7916,-9.816 3.4901,-10.519 6.9684,-21.042 10.468,-31.558 8.5158,-25.405 17.5756,-50.712 23.6946,-76.832 1.683,-8.618 3.237,-17.108 3.903,-25.871 0.155,-2.032 -1.572,-6.306 0.456,-6.098 0.684,0.07 0.762,1.144 1.143,1.716 5.248,6.925 18.904,12.467 8.481,8.304 -16.29,-2.581 -32.8985,-0.995 -49.0972,1.568 -17.7839,3.543 -35.5314,8.346 -50.9961,18.176 -15.8058,10.482 -65.2173,-64.028 -49.4115,-74.509 z" id="path8703" inkscape:connector-curvature="0" style="fill:#550000;fill-opacity:1;fill-rule:nonzero;stroke:#f9f9f9;stroke-width:0.1;stroke-miterlimit:4;stroke-dasharray:none" transform="translate(-9216, -21504)"/><path d="m 9852.4649,21897.207 c 26.5155,0.07 52.9568,-2.446 79.3846,-4.314 25.5719,-1.79 51.2205,-2.582 76.8015,-0.715 8.745,0.292 17,2.497 25.343,4.892 17.964,6.239 -11.451,90.924 -29.415,84.684 l 0,0 c 6.919,1.088 5.263,0.362 -3.514,-0.7 -20.9392,-2.21 -42.0449,-1.178 -63.019,0.03 -28.5162,1.991 -57.0019,4.597 -85.5811,5.546 -18.9689,0 -18.9689,-89.42 0,-89.42 z" id="path8705" inkscape:connector-curvature="0" style="fill:#550000;fill-opacity:1;fill-rule:nonzero;stroke:#f9f9f9;stroke-width:0.1;stroke-miterlimit:4;stroke-dasharray:none" transform="translate(-9216, -21504)"/><path d="m 9573.1184,22066.554 c 33.4239,-6.215 66.8329,-12.469 100.3541,-18.145 41.9094,-7.17 84.1952,-11.707 126.6686,-13.407 32.0131,-0.978 52.6988,-1.044 81.342,14.504 28.2466,23.369 26.7033,54.695 20.9065,87.327 -5.4097,26.634 -12.2372,52.954 -19.0741,79.25 -5.4417,21.115 -10.9017,42.102 -20.5451,61.714 -2.9456,4.057 -5.8911,8.115 -8.8366,12.172 -12.0964,14.604 -80.9422,-42.418 -68.8458,-57.023 l 0,0 c -0.4197,1.008 -0.8394,2.016 -1.2591,3.023 8.5786,-8.844 7.9544,-31.639 13.723,-42.392 6.3369,-23.917 12.5074,-47.903 17.2488,-72.196 4.6724,-26.771 -1.1096,-10.044 16.9874,2.512 1.9729,0.702 3.8873,1.598 5.9187,2.108 0.3502,0.09 1.352,-0.23 1.0185,-0.368 -10.864,-4.498 -24.4702,-0.861 -35.6607,-2.384 -38.4833,0.961 -76.7841,5.089 -114.7116,11.704 -32.9394,5.753 -65.7952,11.981 -98.4132,19.365 -18.6175,3.568 -35.439,-84.196 -16.8214,-87.764 z" id="path8707" inkscape:connector-curvature="0" style="fill:#550000;fill-opacity:1;fill-rule:nonzero;stroke:#f9f9f9;stroke-width:0.1;stroke-miterlimit:4;stroke-dasharray:none" transform="translate(-9216, -21504)"/><path d="m 9666.2434,22135.118 c -4.2518,27.956 -8.952,55.841 -13.3623,83.772 -0.9684,15.078 -7.9689,35.501 -4.5444,48.71 -1.1695,-15.718 -16.281,-15.705 5.9744,-14.319 35.1975,-0.498 69.9275,-7.905 104.5393,-13.704 40.744,-7.392 81.8585,-11.95 123.2718,-11.769 23.3155,0.432 46.3348,4.16 68.9346,9.681 22.5853,5.053 38.7441,17.892 51.9812,36.406 15.279,27.663 10.473,57.536 4.032,86.899 -7.3093,29.629 -17.5042,58.428 -26.9985,87.4 -5.547,20.604 -12.3696,39.628 -24.9985,56.907 -4.2512,3.569 -8.5024,7.138 -12.7536,10.708 -15.6768,10.721 -66.2188,-63.18 -50.542,-73.901 l 0,0 c -1.722,1.839 -3.444,3.679 -5.166,5.519 -8.0429,15.407 11.6109,-25.856 9.3502,-27.272 8.7799,-25.899 17.9589,-51.732 24.451,-78.326 1.6727,-7.668 4.3596,-23.248 4.4666,-23.256 1.3023,-0.09 0.8986,3.77 2.4934,3.02 3.6854,3.492 13.7442,7.626 1.722,2.471 -15.725,-4.206 -31.7695,-7.193 -48.0737,-7.843 -36.143,-0.839 -72.0267,3.514 -107.5823,9.845 -41.8883,7.113 -83.9323,16.408 -126.6303,15.591 -40.7038,-3.864 -72.7231,-14.296 -86.1067,-57.198 -3.8309,-26.816 -0.1405,-52.969 4.8364,-79.492 4.347,-27.018 9.0128,-54.01 12.0473,-81.216 2.4112,-18.807 91.0693,-7.44 88.6581,11.367 z" id="path8709" inkscape:connector-curvature="0" style="fill:#550000;fill-opacity:1;fill-rule:nonzero;stroke:#f9f9f9;stroke-width:0.1;stroke-miterlimit:4;stroke-dasharray:none" transform="translate(-9216, -21504)"/><path d="m 9478.6856,22375.676 c 38.988,-14.016 80.2243,-20 120.9833,-26.366 55.5433,-8.777 111.3565,-15.082 167.5853,-16.359 30.373,-0.588 60.3896,2.975 89.7525,10.52 18.1934,4.978 -5.2762,90.743 -23.4696,85.764 l 0,0 c -21.0383,-6.369 -42.8716,-8.617 -64.8348,-8.694 -52.1073,0.487 -103.8008,6.55 -155.2004,14.982 -33.6813,5.558 -67.9883,10.448 -100.0795,22.552 -17.4795,7.369 -52.2163,-75.03 -34.7368,-82.399 z" id="path8711" inkscape:connector-curvature="0" style="fill:#550000;fill-opacity:1;fill-rule:nonzero;stroke:#f9f9f9;stroke-width:0.1;stroke-miterlimit:4;stroke-dasharray:none" transform="translate(-9216, -21504)"/></svg>