<?xml version="1.0" encoding="utf-8" ?>

<!DOCTYPE svg PUBLIC "-//W3C//DTD SVG 1.1//EN" 
  "http://www.w3.org/Graphics/SVG/1.1/DTD/svg11.dtd">
<svg 
    xmlns="http://www.w3.org/2000/svg"
    xmlns:xlink="http://www.w3.org/1999/xlink"
    xmlns:sodipodi="http://sodipodi.sourceforge.net/DTD/sodipodi-0.dtd"
    xmlns:inkscape="http://www.inkscape.org/namespaces/inkscape"
    width="1024" height="1024" id="U9A6C">
<path d="m 10555.036,31949.69 c 31.329,-12.656 64.429,-19.517 97.65,-24.913 43.685,-6.257 87.864,-5.639 131.836,-4.025 34.951,1.218 69.542,5.691 103.481,14.046 27.545,6.446 49.104,20.318 66.118,42.683 15.328,24.407 16.151,51.917 13.688,79.706 -3.701,29.23 -12.284,57.513 -20.71,85.65 -7.759,25.588 -16.367,50.894 -25.897,75.875 -5.364,13.928 -11.248,27.659 -16.15,41.761 -2.642,10.533 -6.611,20.458 -11.737,30.011 -5.58,8.477 -2.445,4.177 -9.533,12.806 -12.476,14.102 -78.953,-44.71 -66.477,-58.812 l 0,0 c -0.333,0.539 -0.667,1.077 -1,1.616 -0,0.103 -0.01,0.206 -0.02,0.309 0.424,-0.698 4.54,-12.354 5.414,-15.835 5.385,-14.681 11.597,-29.033 17.416,-43.544 8.912,-22.781 16.902,-45.894 24.032,-69.297 6.756,-22.616 13.684,-45.329 17.023,-68.756 0.703,-6.803 0.772,-14.732 1.308,-21.093 4.99,-0.104 -13.806,-9.261 -15.215,-7.944 -27.815,-7.457 -56.332,-10.968 -85.097,-12.195 -38.155,-1.55 -76.509,-2.323 -114.433,3.083 -25.619,4.208 -51.319,9.278 -75.302,19.571 -17.119,7.721 -53.515,-72.982 -36.395,-80.703 z" id="path10616" inkscape:connector-curvature="0" style="fill:#2b0000;fill-opacity:1;fill-rule:nonzero;stroke:#f9f9f9;stroke-width:0.1;stroke-miterlimit:4;stroke-dasharray:none" transform="translate(-10240, -31744)"/><path d="m 10668.584,32017.759 c -12.834,24.323 -21.935,50.321 -30.16,76.487 -9.814,31.884 -15.045,64.769 -17.432,97.965 -1.243,21.917 -0.264,43.862 1.31,65.73 -1.242,5.411 4.76,14.939 0.404,5.459 5.509,4.592 10.576,10.234 15.809,15.313 4.425,-0.847 11.849,-0.455 17.108,-0.582 30.469,-1.792 60.873,-4.631 91.281,-7.25 33.389,-3.002 66.762,-6.188 100.134,-9.368 25.843,-2.608 51.718,-4.762 77.678,-5.705 20.146,-0.986 40.246,0.206 60.213,2.863 14.439,1.682 28.529,4.919 42.111,10.068 10.395,3.969 19.434,10.418 28.22,17.093 9.572,5.958 17.202,14.014 23.957,22.928 11.801,17.751 12.035,37.567 8.754,57.827 -4.176,20.164 -8.693,40.256 -13.528,60.271 -7.082,28.058 -15.323,55.805 -23.388,83.591 -7.448,25.876 -15.544,51.546 -24.286,77.012 -5.057,14.675 -10.961,29.042 -15.966,43.734 -6.02,20.835 -15.148,23.907 -34.014,36.288 -17.987,5.681 -44.767,-79.109 -26.78,-84.79 l 0,0 c -6.495,4.666 -13.595,8.588 -19.484,13.999 -2.828,2.599 -6.639,13.905 -3.234,4.943 5.248,-14.417 11.189,-28.568 16.412,-42.995 8.42,-23.993 16.152,-48.207 23.167,-72.651 7.675,-26.387 15.566,-52.726 22.136,-79.416 4.218,-18.111 8.047,-36.307 11.666,-54.547 1.508,-8.356 2.328,5.84 6.055,8.032 5.534,5.753 -2.631,-3.286 -5.122,-3.538 -2.895,-2.195 -4.76,-3.876 -7.207,-5.306 -6.767,-3.156 -14.345,-3.795 -21.627,-5.041 -14.967,-2.211 -30.053,-3.054 -45.184,-2.398 -24.207,0.681 -48.335,2.657 -72.443,4.897 -33.553,3.044 -67.102,6.127 -100.654,9.185 -32.533,2.871 -65.042,6.177 -97.641,8.168 -28.984,0.251 -57.57,-2.852 -79.789,-23.554 -8.226,-7.89 -16.416,-15.863 -24.083,-24.292 -11.89,-16.414 -18.224,-34.367 -18.726,-54.763 -1.387,-25.985 -2.286,-52.038 -0.447,-78.031 3.314,-39.677 9.7,-79.006 21.404,-117.156 9.656,-31.026 20.489,-61.699 34.673,-90.99 8.596,-16.696 87.299,23.824 78.703,40.52 z" id="path10618" inkscape:connector-curvature="0" style="fill:#2b0000;fill-opacity:1;fill-rule:nonzero;stroke:#f9f9f9;stroke-width:0.1;stroke-miterlimit:4;stroke-dasharray:none" transform="translate(-10240, -31744)"/><path d="m 10434.662,32418.356 c 31.911,6.751 64.423,9.754 96.902,12.086 56.363,3.209 112.789,-0.305 169.048,-3.729 49.526,-3.558 99.102,-6.216 148.762,-5.443 20.602,0.599 41.141,2.42 61.599,4.855 8.025,0.419 15.19,2.88 22.764,5.485 17.113,7.968 -20.445,88.64 -37.558,80.672 l 0,0 c 13.736,4.292 9.212,2.391 3.11,1.672 -17.244,-2.579 -34.587,-4.548 -52.009,-5.408 -47.215,-1.584 -94.385,0.756 -141.495,3.993 -59.923,3.579 -119.996,7.395 -180.039,4.44 -36.022,-2.272 -71.975,-5.535 -107.574,-11.674 -18.445,-3.498 -1.954,-90.447 16.49,-86.949 z" id="path10622" inkscape:connector-curvature="0" style="fill:#2b0000;fill-opacity:1;fill-rule:nonzero;stroke:#f9f9f9;stroke-width:0.1;stroke-miterlimit:4;stroke-dasharray:none" transform="translate(-10240, -31744)"/></svg>