<?xml version="1.0" encoding="UTF-8" standalone="no"?>
<svg
   xmlns:dc="http://purl.org/dc/elements/1.1/"
   xmlns:cc="http://creativecommons.org/ns#"
   xmlns:rdf="http://www.w3.org/1999/02/22-rdf-syntax-ns#"
   xmlns:svg="http://www.w3.org/2000/svg"
   xmlns="http://www.w3.org/2000/svg"
   xmlns:sodipodi="http://sodipodi.sourceforge.net/DTD/sodipodi-0.dtd"
   xmlns:inkscape="http://www.inkscape.org/namespaces/inkscape"
   width="1024"
   height="1024"
   id="U9E21"
   version="1.1"
   inkscape:version="0.48.0 r9654"
   sodipodi:docname="U+9E21.svg">
  <metadata
     id="metadata14">
    <rdf:RDF>
      <cc:Work
         rdf:about="">
        <dc:format>image/svg+xml</dc:format>
        <dc:type
           rdf:resource="http://purl.org/dc/dcmitype/StillImage" />
      </cc:Work>
    </rdf:RDF>
  </metadata>
  <defs
     id="defs12" />
  <sodipodi:namedview
     pagecolor="#ffffff"
     bordercolor="#666666"
     borderopacity="1"
     objecttolerance="10"
     gridtolerance="10"
     guidetolerance="10"
     inkscape:pageopacity="0"
     inkscape:pageshadow="2"
     inkscape:window-width="640"
     inkscape:window-height="480"
     id="namedview10"
     showgrid="false"
     inkscape:zoom="0.27441406"
     inkscape:cx="512"
     inkscape:cy="512"
     inkscape:window-x="0"
     inkscape:window-y="25"
     inkscape:window-maximized="0"
     inkscape:current-layer="U9E21" />
  <path
     style="fill:#550000;fill-opacity:1;fill-rule:nonzero;stroke:#f9f9f9;stroke-width:0.1;stroke-miterlimit:4;stroke-dasharray:none"
     d="M 653.40625 128.125 C 649.8178 128.22926 647.13695 129.29959 645.78125 131.59375 C 628.45295 162.77275 612.60255 194.73325 595.96875 226.28125 C 582.74615 250.72525 589.4043 238.69 575.9375 262.375 C 570.80059 271.43698 592.42569 288.97308 614.09375 299.84375 C 588.58455 303.6925 563.08009 307.65899 537.65625 312.03125 C 507.21083 317.91269 476.5842 324.01284 447.25 334.15625 C 443.55327 329.04389 439.75096 324.04713 434.96875 320 C 417.69125 305.377 389.17395 311.69775 369.03125 312.34375 C 331.69155 315.44175 294.42065 319.13425 257.15625 323.03125 C 222.29645 326.47425 187.44445 330.2295 152.53125 333.0625 C 133.63835 334.6365 141.0445 423.7 159.9375 422.125 C 165.23102 421.47016 170.54758 420.81736 175.84375 420.1875 C 167.50848 428.98755 162.91229 437.35067 166.375 442.125 C 190.6822 472.852 216.9503 501.93475 242.8125 531.34375 C 249.32942 538.80334 255.85061 546.26986 262.34375 553.75 C 261.88357 554.57222 261.42932 555.39674 260.96875 556.21875 C 235.83675 600.96375 210.0154 645.3235 184.4375 689.8125 C 174.3036 704.0785 166.9794 725.52375 156 737.21875 C 167.03271 726.26395 160.06758 731.64249 181.5625 725.125 C 166.02422 735.57856 164.72531 813.081 182.40625 813.65625 C 216.07685 805.04325 203.529 812.58175 222.9375 796.59375 C 238.6512 777.32775 248.8008 754.66875 260.9375 733.09375 C 281.29979 696.5019 302.11494 660.15703 322.75 623.71875 C 333.88731 636.64153 345.02245 649.56975 356.1875 662.46875 C 378.8157 688.16775 400.6386 714.577 423.4375 740.125 C 430.7171 747.844 427.2406 744.2995 433.8125 750.8125 C 443.67454 760.11751 477.80404 729.59565 491.5 706.625 C 495.19389 708.23098 499.06541 709.63756 503.1875 710.75 C 509.797 712.533 516.7799 712.60325 523.5625 713.53125 C 558.9249 713.41125 593.6296 705.30075 628.5 700.21875 C 663.4953 696.26975 698.4632 692.0655 733.4375 687.9375 C 756.73928 685.01673 780.19912 684.32662 803.65625 684.5 C 803.60406 688.78012 803.40524 691.10766 803.03125 699.09375 C 802.59117 705.414 802.04757 711.72775 801.4375 718.03125 C 774.59621 713.22724 747.1121 714.97284 719.9375 717.59375 C 660.8829 724.03475 602.48045 734.666 544.09375 745.5 C 498.83615 753.432 453.56795 761.32575 408.21875 768.71875 C 389.58815 772.15775 405.8069 860.0015 424.4375 856.5625 C 469.2459 847.1955 514.3409 839.193 559.375 831 C 615.5868 820.36 671.85645 810.0745 728.84375 804.6875 C 747.59065 805.0245 769.8826 799.30425 787.75 806.28125 C 788.41839 806.48587 789.09365 806.53407 789.78125 806.5 C 789.58916 807.82128 789.40963 809.14749 789.21875 810.46875 C 784.86935 840.61375 781.04795 870.826 776.90625 901 C 777.12114 903.90809 775.98243 908.12087 775.28125 910.34375 C 775.53818 909.62616 775.95348 908.52876 776.5 907.09375 C 773.79209 924.98414 842.09089 969.21678 852.09375 954.125 C 859.29115 940.625 864.77875 927.69625 865.21875 912.15625 C 868.66805 882.40125 871.9494 852.62575 876.1875 822.96875 C 881.8687 783.30975 888.3235 743.711 891.5 703.75 C 893.372 670.749 895.27945 637.69075 869.21875 612.96875 C 850.58361 600.86317 831.11019 595.41694 809 595.53125 C 812.65443 573.32495 814.65803 550.83333 818.09375 528.59375 C 824.53505 484.16375 832.2997 439.96725 838.6875 395.53125 C 842.6433 361.16325 846.75595 326.2735 822.90625 297.8125 C 817.98025 294.0905 813.4784 289.7 808.125 286.625 C 790.0961 276.269 768.3396 278.0485 748.625 280.3125 C 719.1002 284.2535 689.62315 288.5885 660.15625 292.9375 C 659.94799 292.96897 659.73951 292.99979 659.53125 293.03125 C 662.74899 287.33983 664.28999 284.50455 673.5625 267.375 C 689.6537 237.118 704.8667 206.32925 722.6875 177.03125 C 730.9723 163.01141 675.33568 127.48784 653.40625 128.125 z M 775.28125 910.34375 C 774.57103 912.32733 774.7673 911.97309 775.28125 910.34375 z M 773.09375 367.90625 C 776.04717 368.18373 775.89706 368.68069 773.09375 367.90625 z M 752.53125 369.34375 C 752.11543 374.5855 751.54869 379.34902 750.875 385.875 C 745.2579 429.293 737.8634 472.464 731.3125 515.75 C 726.58012 539.7544 725.75263 564.71924 719.78125 588.5 C 720.06585 587.8219 720.34039 587.14686 720.625 586.46875 C 719.88527 590.03129 722.08385 594.75975 726.125 599.875 C 725.04255 600.00878 723.95678 600.13953 722.875 600.28125 C 687.2188 604.64125 651.5654 608.924 615.875 613 C 587.7439 617.037 559.78055 622.43 531.46875 625 C 530.91785 625.273 529.7815 625.1985 529.8125 625.8125 C 529.8535 626.6375 536.35985 633.77025 533.71875 634.65625 C 532.85565 634.94525 532.1802 633.5205 531.8125 632.6875 C 530.8261 630.4535 530.41255 628.0295 529.71875 625.6875 C 525.27665 586.6055 532.95415 547.4775 537.15625 508.6875 C 541.79749 472.22469 547.03736 435.78185 549.90625 399.125 C 551.4053 398.83304 552.90959 398.54222 554.40625 398.25 C 593.86515 391.456 633.512 385.8775 673.125 380.0625 C 699.55389 376.28168 726.02724 372.56608 752.53125 369.34375 z M 719.78125 588.5 C 719.42604 589.34634 719.07394 590.18474 718.71875 591.03125 C 718.82845 591.15425 718.92155 591.28325 719.03125 591.40625 C 719.29331 590.43793 719.53707 589.47246 719.78125 588.5 z M 394.6875 399.4375 C 396.97676 399.41596 399.24291 399.56137 401.46875 400.03125 C 401.83075 400.10725 400.82995 400.58 400.46875 400.5 C 398.59363 400.08333 396.59165 399.86852 394.6875 399.4375 z M 345.3125 402.90625 C 343.835 405.58055 342.41115 408.18443 340.875 410.96875 C 329.65234 431.44365 318.45986 451.9256 307.25 472.40625 C 289.85791 452.24593 272.1798 432.26014 255.53125 411.46875 C 258.98012 411.11525 262.42562 410.7556 265.875 410.40625 C 292.32496 407.6194 318.80754 405.06347 345.3125 402.90625 z M 443.9375 409.09375 C 449.09901 416.22204 454.41934 421.49102 459 423.0625 C 456.76909 448.06024 453.34956 472.95012 450.3125 497.84375 C 444.63823 540.70429 438.9942 583.59168 441.25 626.8125 C 434.85831 619.53724 428.48191 612.28305 422 605.09375 C 403.86702 584.45508 385.83372 563.72688 367.875 542.9375 C 384.31289 513.23626 400.73014 483.52001 417.4375 453.96875 C 423.27563 443.7588 434.75256 426.16766 443.9375 409.09375 z M 600.09375 425.625 C 582.04196 425.95905 549.94738 500.53328 566.46875 507.84375 C 588.87015 517.10875 610.40855 528.31425 630.71875 541.53125 C 646.56655 551.65525 694.2854 476.9365 678.4375 466.8125 C 654.1289 451.4965 628.747 438.099 602.625 426.125 C 601.81247 425.76547 600.98154 425.60857 600.09375 425.625 z "
     id="path8365" />
</svg>
