<?xml version="1.0" encoding="UTF-8" standalone="no"?>
<svg
   xmlns:dc="http://purl.org/dc/elements/1.1/"
   xmlns:cc="http://creativecommons.org/ns#"
   xmlns:rdf="http://www.w3.org/1999/02/22-rdf-syntax-ns#"
   xmlns:svg="http://www.w3.org/2000/svg"
   xmlns="http://www.w3.org/2000/svg"
   xmlns:sodipodi="http://sodipodi.sourceforge.net/DTD/sodipodi-0.dtd"
   xmlns:inkscape="http://www.inkscape.org/namespaces/inkscape"
   width="1024"
   height="1024"
   id="U9EC4"
   version="1.1"
   inkscape:version="0.48.0 r9654"
   sodipodi:docname="U+9EC4.svg">
  <metadata
     id="metadata18">
    <rdf:RDF>
      <cc:Work
         rdf:about="">
        <dc:format>image/svg+xml</dc:format>
        <dc:type
           rdf:resource="http://purl.org/dc/dcmitype/StillImage" />
      </cc:Work>
    </rdf:RDF>
  </metadata>
  <defs
     id="defs16" />
  <sodipodi:namedview
     pagecolor="#ffffff"
     bordercolor="#666666"
     borderopacity="1"
     objecttolerance="10"
     gridtolerance="10"
     guidetolerance="10"
     inkscape:pageopacity="0"
     inkscape:pageshadow="2"
     inkscape:window-width="640"
     inkscape:window-height="480"
     id="namedview14"
     showgrid="false"
     inkscape:zoom="0.27441406"
     inkscape:cx="512"
     inkscape:cy="512"
     inkscape:window-x="0"
     inkscape:window-y="25"
     inkscape:window-maximized="0"
     inkscape:current-layer="U9EC4" />
  <path
     style="fill:#550000;fill-opacity:1;fill-rule:nonzero;stroke:#f9f9f9;stroke-width:0.1;stroke-miterlimit:4;stroke-dasharray:none"
     d="M 628.9375 137.9375 C 622.63221 137.95452 618.10524 139.47023 616.71875 143.0625 C 608.50514 167.96369 600.5957 192.98907 592.4375 217.90625 C 533.56986 223.66053 474.75442 229.84189 415.90625 235.78125 C 412.68355 209.60404 410.11725 183.35526 408.875 157 C 407.399 138.108 318.3366 145.0455 319.8125 163.9375 C 322.27668 190.54315 325.14347 217.11655 328.4375 243.625 C 295.86071 245.99218 263.24938 247.61589 230.59375 246.59375 C 211.64585 246.13875 209.4897 335.45125 228.4375 335.90625 C 266.49254 335.51798 304.44206 332.92069 342.34375 329.65625 C 347.1619 349.0458 353.76172 367.84412 363.3125 385.65625 C 339.36792 388.6806 315.42616 391.77003 291.5 394.9375 C 247.2322 400.9365 202.7276 408.452 157.9375 408 C 138.9917 407.552 136.8667 496.8655 155.8125 497.3125 C 205.4457 496.2775 254.57885 487.77975 303.59375 480.59375 C 349.36213 474.09385 395.21086 468.19341 441.09375 462.5625 C 440.33121 473.08397 439.58388 483.60078 438.875 494.125 C 438.40861 500.48123 437.97442 506.82901 437.5625 513.1875 C 401.59749 521.63011 365.73347 530.97911 331.4375 544.90625 C 316.15367 551.94902 343.86359 616.66106 362.34375 625.625 C 353.11743 626.33702 343.89054 627.11051 334.6875 628.09375 C 330.05342 612.1847 326.20039 596.03819 323.15625 579.71875 C 319.13765 561.20375 231.8563 580.1725 235.875 598.6875 C 243.0293 630.1315 251.6966 661.10975 262.5625 691.46875 C 269.1181 709.56075 278.00705 726.608 287.78125 743.125 C 294.85956 754.75159 336.31551 733.93961 355.25 715.375 C 382.21744 712.02377 409.43189 710.8106 436.5625 709.5 C 437.31496 716.89328 438.22447 724.25628 439.21875 731.625 C 437.00917 732.00384 434.80151 732.38965 432.59375 732.78125 C 392.51615 739.85425 352.60845 747.80125 312.65625 755.53125 C 294.11695 759.34125 312.0856 846.7465 330.625 842.9375 C 338.11439 841.16069 345.61369 839.4533 353.125 837.78125 C 335.30011 854.32755 319.67515 873.08168 304.90625 892.40625 C 294.10065 907.22725 282.9425 921.819 275.1875 938.5 L 271.8125 951.8125 C 269.26154 969.97242 351.62071 982.21706 360.0625 966.25 C 359.40426 968.327 358.75204 970.423 358.09375 972.5 C 360.06646 969.21613 369.29231 954.95665 369.84375 954.15625 C 371.76775 951.36525 373.7391 948.61775 375.6875 945.84375 C 388.9052 928.07875 402.9688 910.7085 420.6875 897.1875 C 431.83762 888.42673 403.75335 846.92894 382.65625 831.46875 C 404.34519 827.00182 426.10453 822.87265 447.90625 818.96875 C 491.59095 811.15275 535.6862 806.20625 579.9375 803.15625 C 607.1925 801.02025 634.48075 801.06825 661.65625 803.90625 C 673.43145 805.34925 685.12145 807.266 696.90625 808.625 C 712.65738 810.23175 721.6039 748.58859 713.1875 726.9375 C 719.08754 704.26254 724.75557 681.54375 730.5625 658.84375 C 738.8307 627.22475 748.711 595.1185 746.125 562.0625 C 744.603 555.8685 744.0147 549.35775 741.5625 543.46875 C 730.4472 516.77875 706.0437 503.808 678.8125 499.75 C 646.5394 495.551 613.9691 494.2995 581.4375 494.9375 C 563.00496 495.71319 544.58842 496.9212 526.25 498.75 C 527.45766 483.1277 528.74414 467.51909 530.0625 451.90625 C 531.96947 451.6821 533.87426 451.44264 535.78125 451.21875 C 598.11245 443.95775 660.40855 436.45775 723.03125 432.21875 C 750.99125 430.48275 779.0146 430.80625 806.875 433.65625 C 808.4378 433.93925 809.9996 434.24825 811.5625 434.53125 C 830.2975 437.26525 843.20385 348.9215 824.46875 346.1875 C 821.20045 345.7665 817.92455 345.3595 814.65625 344.9375 C 782.00185 342.4665 749.229 342.487 716.5625 345 C 690.46289 347.09874 664.42844 349.72308 638.40625 352.5625 C 644.96869 334.61516 651.38873 316.62476 657.71875 298.59375 C 695.90871 295.35926 734.12265 292.43913 772.34375 289.59375 C 784.50295 288.54975 796.6793 287.8155 808.875 287.4375 C 827.7358 286.4825 823.2357 197.57625 804.375 198.53125 C 791.2394 199.40725 778.12595 200.47075 765.03125 201.84375 C 739.42206 204.21211 713.7994 206.53524 688.1875 208.875 C 692.02187 197.62247 695.96573 186.39751 700.09375 175.25 C 705.53306 161.15727 653.67363 137.87073 628.9375 137.9375 z M 358.09375 972.5 C 357.63385 973.26558 357.42043 973.63766 357.96875 972.875 C 358.00846 972.74972 358.05404 972.62528 358.09375 972.5 z M 561.03125 307.46875 C 556.83792 318.68578 552.54002 329.84981 548.09375 340.96875 C 545.82479 346.84244 553.61072 354.32504 565.1875 361.03125 C 552.00239 362.61756 538.81066 364.19935 525.625 365.78125 C 487.39833 370.37157 449.18063 374.9721 410.96875 379.6875 C 429.98424 367.82484 446.6252 351.83093 441.5625 343.78125 C 436.13474 337.69215 432.60635 329.68724 430.09375 320.90625 C 473.72382 316.28575 517.36556 311.7365 561.03125 307.46875 z M 584.8125 582.75 C 608.81168 582.59614 632.87181 583.43908 656.6875 586.46875 C 653.77313 603.39068 649.33273 620.0237 645.0625 636.65625 C 638.59758 662.30453 632.06262 687.94298 624.90625 713.40625 C 607.78068 713.33014 590.64306 714.00239 573.53125 715.46875 C 557.95631 716.66159 542.4066 718.06762 526.875 719.6875 C 526.11048 715.08569 525.42711 710.46447 524.8125 705.84375 C 534.55654 705.53957 544.31362 705.32101 554.0625 705.15625 C 566.7129 705.20925 579.49775 704.983 591.96875 707.375 C 610.69985 710.053 623.32495 621.7415 604.59375 619.0625 C 587.16605 616.9395 569.65585 616.251 552.09375 616.875 C 541.62035 617.16413 531.15633 617.53725 520.6875 617.9375 C 520.75991 607.76096 520.96136 597.57763 521.25 587.40625 C 542.33837 584.91093 563.55948 583.47823 584.8125 582.75 z M 667.96875 588.1875 C 675.55227 589.97645 672.7315 591.13542 667.96875 588.1875 z M 433.6875 604.53125 C 433.58425 610.23481 433.51633 615.92011 433.46875 621.625 C 412.85314 622.53599 392.21576 623.47839 371.625 624.90625 C 391.68915 616.33206 412.57913 610.02163 433.6875 604.53125 z M 638.84375 844.875 C 619.93 845.82437 576.43919 908.14025 590.59375 918.40625 C 613.77015 934.45925 637.65415 949.398 661.53125 964.375 C 672.70765 971.283 683.73475 978.41825 694.78125 985.53125 C 710.68045 995.62825 758.2741 920.69175 742.375 910.59375 C 731.0852 903.52175 719.8448 896.39025 708.5 889.40625 C 686.317 875.52925 663.9791 861.762 643.0625 846 C 641.86296 845.13 640.44661 844.79454 638.84375 844.875 z "
     id="path8151" />
</svg>
