<?xml version="1.0" encoding="UTF-8" standalone="no"?>
<!-- Created with Inkscape (http://www.inkscape.org/) -->

<svg
   xmlns:dc="http://purl.org/dc/elements/1.1/"
   xmlns:cc="http://creativecommons.org/ns#"
   xmlns:rdf="http://www.w3.org/1999/02/22-rdf-syntax-ns#"
   xmlns:svg="http://www.w3.org/2000/svg"
   xmlns="http://www.w3.org/2000/svg"
   xmlns:sodipodi="http://sodipodi.sourceforge.net/DTD/sodipodi-0.dtd"
   xmlns:inkscape="http://www.inkscape.org/namespaces/inkscape"
   version="1.0"
   width="1000"
   height="1000"
   id="svg5496"
   sodipodi:version="0.32"
   inkscape:version="0.48.0 r9654"
   sodipodi:docname="tild_.svg"
   inkscape:output_extension="org.inkscape.output.svg.inkscape">
  <metadata
     id="metadata5594">
    <rdf:RDF>
      <cc:Work
         rdf:about="">
        <dc:format>image/svg+xml</dc:format>
        <dc:type
           rdf:resource="http://purl.org/dc/dcmitype/StillImage" />
        <dc:title></dc:title>
      </cc:Work>
    </rdf:RDF>
  </metadata>
  <sodipodi:namedview
     inkscape:window-height="618"
     inkscape:window-width="641"
     inkscape:pageshadow="2"
     inkscape:pageopacity="0.0"
     borderopacity="1.0"
     bordercolor="#666666"
     pagecolor="#ffffff"
     id="base"
     showgrid="false"
     showguides="true"
     inkscape:guide-bbox="true"
     inkscape:zoom="0.454"
     inkscape:cx="500"
     inkscape:cy="500"
     inkscape:window-x="597"
     inkscape:window-y="65"
     inkscape:current-layer="svg5496"
     inkscape:window-maximized="0">
    <sodipodi:guide
       orientation="horizontal"
       position="200"
       id="guide5596" />
  </sodipodi:namedview>
  <defs
     id="defs5498" />
  <path
     style="fill:#4d4d4d;fill-opacity:1;stroke:#f9f9f9;stroke-width:0.1;stroke-miterlimit:4;stroke-dasharray:none"
     id="path3758"
     d="m 77.72912,226.70746 c 9.347,14.34191 19.677,28.04215 31.914,40.03951 6.483,5.81321 3.249,3.02076 9.69,8.39048 15.041,12.9074 -45.805,83.81156 -60.846,70.90416 l 0,0 c -9.967,-8.71332 -4.89,-4.12039 -15.196,-13.81571 C 27.86212,316.29437 14.02812,299.05044 1.2371201,280.92961 -10.26588,264.70322 66.22612,210.48107 77.72912,226.70746 z"
     inkscape:connector-curvature="0" />
  <path
     style="fill:#4d4d4d;fill-opacity:1;stroke:#f9f9f9;stroke-width:0.1;stroke-miterlimit:4;stroke-dasharray:none"
     id="path3760"
     d="m 227.79712,208.61222 c 14.623,12.67617 30.04,24.39106 45.258,36.33564 2.576,2.07834 5.153,4.15668 7.729,6.23501 15.343,12.49133 -43.542,84.81721 -58.884,72.32589 l 0,0 c -2.2,-1.81061 -4.4,-3.62121 -6.6,-5.43182 -15.658,-12.44314 -31.448,-24.71825 -47.145,-37.11151 -15.349,-12.65209 44.294,-85.00529 59.642,-72.35321 z"
     inkscape:connector-curvature="0" />
</svg>
