<?xml version="1.0" encoding="UTF-8" standalone="no"?>
<!-- Created with Inkscape (http://www.inkscape.org/) -->

<svg
   xmlns:dc="http://purl.org/dc/elements/1.1/"
   xmlns:cc="http://creativecommons.org/ns#"
   xmlns:rdf="http://www.w3.org/1999/02/22-rdf-syntax-ns#"
   xmlns:svg="http://www.w3.org/2000/svg"
   xmlns="http://www.w3.org/2000/svg"
   xmlns:sodipodi="http://sodipodi.sourceforge.net/DTD/sodipodi-0.dtd"
   xmlns:inkscape="http://www.inkscape.org/namespaces/inkscape"
   version="1.0"
   width="1000"
   height="1000"
   id="svg5496"
   sodipodi:version="0.32"
   inkscape:version="0.48.0 r9654"
   sodipodi:docname="V.svg"
   inkscape:output_extension="org.inkscape.output.svg.inkscape">
  <metadata
     id="metadata5594">
    <rdf:RDF>
      <cc:Work
         rdf:about="">
        <dc:format>image/svg+xml</dc:format>
        <dc:type
           rdf:resource="http://purl.org/dc/dcmitype/StillImage" />
        <dc:title></dc:title>
      </cc:Work>
    </rdf:RDF>
  </metadata>
  <sodipodi:namedview
     inkscape:window-height="618"
     inkscape:window-width="691"
     inkscape:pageshadow="2"
     inkscape:pageopacity="0.0"
     borderopacity="1.0"
     bordercolor="#666666"
     pagecolor="#ffffff"
     id="base"
     showgrid="false"
     showguides="true"
     inkscape:guide-bbox="true"
     inkscape:zoom="0.80521746"
     inkscape:cx="223.67612"
     inkscape:cy="773.12593"
     inkscape:window-x="6"
     inkscape:window-y="128"
     inkscape:current-layer="svg5496"
     inkscape:window-maximized="0">
    <sodipodi:guide
       orientation="horizontal"
       position="200"
       id="guide5596" />
  </sodipodi:namedview>
  <defs
     id="defs5498" />
  <path
     style="fill:#4d4d4d;fill-opacity:1;stroke:#f9f9f9;stroke-width:0.1;stroke-miterlimit:4;stroke-dasharray:none"
     d="m 647.5625,148.03125 c -1.28715,0.0351 -2.46625,0.40114 -3.5,1.09375 l -7.6875,5.59375 c -17.52,15.22122 -33.51625,32.12046 -48.65625,49.6875 -31.19,37.47616 -58.44375,77.89491 -82.34375,120.40625 -41.73,73.50618 -80.1875,148.76593 -116.6875,225 C 358.29438,613.26165 329.29278,677.34314 299.09375,740.875 282.38891,708.94826 267.00346,676.29894 251.8125,643.65625 215.0725,560.00735 182.185,474.75781 153.125,388.125 131.175,323.05643 110.17125,257.63977 86.28125,193.25 c -7.89,-18.18059 -93.59875,19.0069 -85.71875,37.1875 26.36,60.77998 47.06375,123.85257 68.84375,186.375 30.4,88.58676 63.54875,176.19549 100.21875,262.375 22.09,49.46773 44.91625,98.70653 70.65625,146.40625 22.63,38.72916 54.6325,54.56076 97.0625,26.78125 13.36,-8.75166 25.345,-34.23259 32.625,-47.46875 32.68,-72.42526 64.7225,-145.08499 98.8125,-216.875 C 504.06125,513.75298 542.02,440.81139 583.5,369.8125 c 21.79,-37.36819 46.37875,-72.97896 74.71875,-105.65625 12.24,-12.91245 23.99875,-26.76999 38.21875,-37.625 -0.05,0.18092 -0.0562,0.35033 -0.15625,0.53125 15.50625,-10.38919 -29.41152,-79.55713 -48.71875,-79.03125 z"
     id="path4582"
     inkscape:connector-curvature="0"
     sodipodi:nodetypes="sccccccccccccccccccccs" />
</svg>
