<?xml version="1.0" encoding="UTF-8" standalone="no"?>
<!-- Created with Inkscape (http://www.inkscape.org/) -->

<svg
   xmlns:dc="http://purl.org/dc/elements/1.1/"
   xmlns:cc="http://creativecommons.org/ns#"
   xmlns:rdf="http://www.w3.org/1999/02/22-rdf-syntax-ns#"
   xmlns:svg="http://www.w3.org/2000/svg"
   xmlns="http://www.w3.org/2000/svg"
   xmlns:sodipodi="http://sodipodi.sourceforge.net/DTD/sodipodi-0.dtd"
   xmlns:inkscape="http://www.inkscape.org/namespaces/inkscape"
   version="1.0"
   width="1000"
   height="1000"
   id="svg5496"
   sodipodi:version="0.32"
   inkscape:version="0.48.0 r9654"
   sodipodi:docname="y.svg"
   inkscape:output_extension="org.inkscape.output.svg.inkscape">
  <metadata
     id="metadata5594">
    <rdf:RDF>
      <cc:Work
         rdf:about="">
        <dc:format>image/svg+xml</dc:format>
        <dc:type
           rdf:resource="http://purl.org/dc/dcmitype/StillImage" />
        <dc:title />
      </cc:Work>
    </rdf:RDF>
  </metadata>
  <sodipodi:namedview
     inkscape:window-height="618"
     inkscape:window-width="691"
     inkscape:pageshadow="2"
     inkscape:pageopacity="0.0"
     borderopacity="1.0"
     bordercolor="#666666"
     pagecolor="#ffffff"
     id="base"
     showgrid="false"
     showguides="true"
     inkscape:guide-bbox="true"
     inkscape:zoom="0.33224977"
     inkscape:cx="473.77867"
     inkscape:cy="492.95022"
     inkscape:window-x="92"
     inkscape:window-y="25"
     inkscape:current-layer="svg5496"
     inkscape:window-maximized="0">
    <sodipodi:guide
       orientation="horizontal"
       position="200"
       id="guide5596" />
  </sodipodi:namedview>
  <defs
     id="defs5498" />
  <path
     style="fill:#4d4d4d;fill-opacity:1;stroke:#f9f9f9;stroke-width:0.1;stroke-miterlimit:4;stroke-dasharray:none"
     d="m 381.71875,414.78125 c -24.66064,4.95025 -19.46757,42.36006 -30.25897,61.34803 -18.49452,64.19139 -38.64636,127.88388 -57.92853,191.83947 -41.34217,20.92647 -93.45266,23.5665 -135.07094,2.14973 -35.92265,-21.52543 -57.6405,-62.16966 -65.016737,-102.53588 -4.229222,-31.48314 -1.923228,-65.45431 14.131357,-93.50279 -6.35587,-25.1743 -31.792452,-40.75588 -52.989965,-53.20889 -28.939659,-16.53686 -36.571829,28.28795 -44.49573,47.3909 -24.955436,89.19553 -1.5369983,194.09128 69.436786,256.12961 38.143579,34.98961 89.896689,52.46512 141.364119,50.91631 17.82047,3.01979 53.75681,-12.8068 36.81926,16.95932 -14.04386,53.58896 -25.94778,107.82999 -33.3344,162.76419 12.73946,22.1986 46.44334,20.12337 69.54696,21.06916 35.04262,2.13039 21.57252,-41.31162 29.84257,-62.98211 23.80552,-137.96175 72.86795,-269.64778 113.31159,-403.22266 3.32879,-21.80551 21.88887,-43.98597 16.69315,-65.09173 -18.99194,-18.07799 -46.18432,-27.84054 -72.05052,-30.02266 z"
     id="path3408"
     inkscape:connector-curvature="0" />
</svg>
