<?xml version="1.0" encoding="UTF-8" standalone="no"?>
<!-- Created with Inkscape (http://www.inkscape.org/) -->

<svg
   xmlns:dc="http://purl.org/dc/elements/1.1/"
   xmlns:cc="http://creativecommons.org/ns#"
   xmlns:rdf="http://www.w3.org/1999/02/22-rdf-syntax-ns#"
   xmlns:svg="http://www.w3.org/2000/svg"
   xmlns="http://www.w3.org/2000/svg"
   xmlns:sodipodi="http://sodipodi.sourceforge.net/DTD/sodipodi-0.dtd"
   xmlns:inkscape="http://www.inkscape.org/namespaces/inkscape"
   version="1.0"
   width="1000"
   height="1000"
   id="svg5496"
   sodipodi:version="0.32"
   inkscape:version="0.48.0 r9654"
   sodipodi:docname="currency_symbol_placeholder.svg"
   inkscape:output_extension="org.inkscape.output.svg.inkscape">
  <metadata
     id="metadata5594">
    <rdf:RDF>
      <cc:Work
         rdf:about="">
        <dc:format>image/svg+xml</dc:format>
        <dc:type
           rdf:resource="http://purl.org/dc/dcmitype/StillImage" />
        <dc:title></dc:title>
      </cc:Work>
    </rdf:RDF>
  </metadata>
  <sodipodi:namedview
     inkscape:window-height="618"
     inkscape:window-width="641"
     inkscape:pageshadow="2"
     inkscape:pageopacity="0.0"
     borderopacity="1.0"
     bordercolor="#666666"
     pagecolor="#ffffff"
     id="base"
     showgrid="false"
     showguides="true"
     inkscape:guide-bbox="true"
     inkscape:zoom="0.454"
     inkscape:cx="529.83906"
     inkscape:cy="418.53965"
     inkscape:window-x="597"
     inkscape:window-y="65"
     inkscape:current-layer="svg5496"
     inkscape:window-maximized="0">
    <sodipodi:guide
       orientation="horizontal"
       position="200"
       id="guide5596" />
  </sodipodi:namedview>
  <defs
     id="defs5498" />
  <path
     style="fill:#4d4d4d;fill-opacity:1;stroke:#f9f9f9;stroke-width:0.1;stroke-miterlimit:4;stroke-dasharray:none"
     id="path4644"
     d="m 67.156759,113.95903 c 32.7,37.07483 60.690001,78.00137 89.990001,117.74785 32.43,44.9402 70.19,85.42823 110.19,123.63909 13.92,13.20337 28.43,25.75207 42.98,38.25861 14.69,12.94377 -46.32,82.22978 -61.02,69.28601 l 0,0 c -15.31,-13.79003 -30.63,-27.58116 -45.45,-41.91005 -43.08,-42.13723 -83.98,-86.47092 -119.540001,-135.25293 -26.49,-35.50269 -51.85,-72.25141 -82.2200002,-104.60035 C -12.153241,167.32399 52.906759,100.15577 67.156759,113.95903 z"
     inkscape:connector-curvature="0" />
  <path
     style="fill:#4d4d4d;fill-opacity:1;stroke:#f9f9f9;stroke-width:0.1;stroke-miterlimit:4;stroke-dasharray:none"
     id="path4646"
     d="m 471.34676,217.65089 c -27.15,39.67091 -43.56,85.85482 -61.39,130.18294 -35.94,91.47455 -71.14,183.24408 -104.08,275.84565 -21.66,61.79576 -40.49,124.63765 -53.09,188.92861 -3.45,22.15618 -2.14,11.68565 -4.15,31.38509 -2.36,19.46324 -94.12,8.32896 -91.75,-11.13428 l 0,0 c 3.41,-25.15447 1.36,-12.1544 6.29,-38.97941 15.01,-68.0434 35.71,-134.6411 59.38,-200.15991 33.85,-93.17146 69.43,-185.69815 104.22,-278.51907 20.7,-54.04824 39.84,-110.07343 73.12,-157.95198 12.81,-15.15717 84.26,45.24519 71.45,60.40236 z"
     inkscape:connector-curvature="0" />
  <path
     style="fill:#4d4d4d;fill-opacity:1;stroke:#f9f9f9;stroke-width:0.1;stroke-miterlimit:4;stroke-dasharray:none"
     id="path4648"
     d="m 87.406759,439.68424 c 37.310001,5.02652 74.990001,6.31044 112.560001,7.54253 60.28,1.07887 120.56,0.85218 180.81,3.23259 39.47,2.21189 79.61,4.2132 116.28,20.02085 17.73,8.86323 -24.05,92.4644 -41.78,83.60117 l 0,0 c -21.36,-11.12733 -53.57,-9.5011 -78.52,-12.75579 -59.72,-2.95137 -119.48,-2.54686 -179.25,-3.00496 -40.28,-0.87321 -80.55,-2.1533 -120.710001,-5.59681 -19.73,-2.25068 -9.12,-95.29026 10.61,-93.03958 z"
     inkscape:connector-curvature="0" />
  <path
     style="fill:#4d4d4d;fill-opacity:1;stroke:#f9f9f9;stroke-width:0.1;stroke-miterlimit:4;stroke-dasharray:none"
     id="path4650"
     d="m 28.766759,604.90338 c 40.02,-6.29674 80.630001,-7.91482 121.030001,-10.10617 66.97,-4.13085 134.03,-4.82639 201.05,-2.10716 29.43,1.17331 58.61,4.93204 87.73,9.06444 19.16,2.87506 5.61,93.18935 -13.55,90.31429 l 0,0 c -25.9,-4.13162 -51.86,-7.82678 -78.1,-9.03439 -63.88,-2.96384 -127.81,-2.14112 -191.61,2.56152 -35.32,2.38907 -70.930001,4.13786 -105.770001,10.77895 -19.4,4.41001 -40.1900002,-87.06147 -20.78,-91.47148 z"
     inkscape:connector-curvature="0" />
</svg>
