<?xml version="1.0" encoding="UTF-8" standalone="no"?>
<!-- Created with Inkscape (http://www.inkscape.org/) -->

<svg
   xmlns:dc="http://purl.org/dc/elements/1.1/"
   xmlns:cc="http://creativecommons.org/ns#"
   xmlns:rdf="http://www.w3.org/1999/02/22-rdf-syntax-ns#"
   xmlns:svg="http://www.w3.org/2000/svg"
   xmlns="http://www.w3.org/2000/svg"
   xmlns:sodipodi="http://sodipodi.sourceforge.net/DTD/sodipodi-0.dtd"
   xmlns:inkscape="http://www.inkscape.org/namespaces/inkscape"
   version="1.0"
   width="1000"
   height="1000"
   id="svg5496"
   sodipodi:version="0.32"
   inkscape:version="0.48.0 r9654"
   sodipodi:docname="a.svg"
   inkscape:output_extension="org.inkscape.output.svg.inkscape">
  <metadata
     id="metadata5594">
    <rdf:RDF>
      <cc:Work
         rdf:about="">
        <dc:format>image/svg+xml</dc:format>
        <dc:type
           rdf:resource="http://purl.org/dc/dcmitype/StillImage" />
        <dc:title></dc:title>
      </cc:Work>
    </rdf:RDF>
  </metadata>
  <sodipodi:namedview
     inkscape:window-height="618"
     inkscape:window-width="691"
     inkscape:pageshadow="2"
     inkscape:pageopacity="0.0"
     borderopacity="1.0"
     bordercolor="#666666"
     pagecolor="#ffffff"
     id="base"
     showgrid="false"
     showguides="true"
     inkscape:guide-bbox="true"
     inkscape:zoom="0.33224977"
     inkscape:cx="303.5735"
     inkscape:cy="504.44657"
     inkscape:window-x="92"
     inkscape:window-y="25"
     inkscape:current-layer="svg5496"
     inkscape:window-maximized="0">
    <sodipodi:guide
       orientation="horizontal"
       position="200"
       id="guide5596" />
  </sodipodi:namedview>
  <defs
     id="defs5498" />
  <path
     style="fill:#4d4d4d;fill-opacity:1;stroke:#f9f9f9;stroke-width:0.1;stroke-miterlimit:4;stroke-dasharray:none"
     d="m 94.59375,375.125 c -18.829215,-0.0154 -43.876219,84.07647 -25.5,89.6875 43.27399,10.6074 87.164,18.51375 130.875,27.0625 41.905,9.50977 87.08,15.68199 123.25,40.5 1.125,1.66548 3.375,2.99019 3.375,5 10e-4,4.74039 -8.64025,-7.3638 -10.03125,-6.46875 -2.285,1.4698 -3.42375,4.21027 -5.21875,6.25 -3.395,3.85809 -6.925,7.62839 -10.375,11.4375 -40.792,39.00519 -90.495,66.80908 -139,94.9375 -45.602,26.44169 -92.2695,51.49351 -134.3125,83.46875 -37.929,34.81562 -39.31475,77.65208 11.90625,103.46875 11.937,6.01634 35.7605,5.55147 48.6875,6 55.72899,-2.72264 111.237,-8.74467 166.875,-12.9375 54.653,-3.93147 109.329,-7.33942 164.125,-8.15625 16.782,-0.49237 33.479,0.58132 50.125,2.5 19.533,1.85256 28.25075,-90.24119 8.71875,-92.09375 -20.223,-1.62491 -40.445,-2.72092 -60.75,-1.875 -56.393,1.50013 -112.6725,5.19163 -168.9375,9.1875 -23.33613,1.71063 -46.66965,3.69885 -70,5.5625 9.708,-5.57832 19.35942,-11.20557 28.875,-17 57.209,-33.20964 115.75325,-66.16239 163.03125,-113.15625 6.429,-7.6224 13.58225,-14.69184 19.28125,-22.875 25.209,-36.19888 30.912,-79.01839 1.25,-114.75 -5.45,-6.56514 -12.86325,-11.25329 -19.28125,-16.875 -47.432,-27.68786 -100.097,-41.47962 -153.875,-51.4375 -40.597,-8.17335 -81.48726,-15.56655 -121.28125,-27.15625 -0.592781,-0.181 -1.205106,-0.28075 -1.8125,-0.28125 z"
     id="path3406"
     inkscape:connector-curvature="0"
     sodipodi:nodetypes="scccccccccccccccccccccscccs" />
</svg>
