<?xml version="1.0" encoding="UTF-8" standalone="no"?>
<!-- Created with Inkscape (http://www.inkscape.org/) -->

<svg
   xmlns:dc="http://purl.org/dc/elements/1.1/"
   xmlns:cc="http://creativecommons.org/ns#"
   xmlns:rdf="http://www.w3.org/1999/02/22-rdf-syntax-ns#"
   xmlns:svg="http://www.w3.org/2000/svg"
   xmlns="http://www.w3.org/2000/svg"
   xmlns:sodipodi="http://sodipodi.sourceforge.net/DTD/sodipodi-0.dtd"
   xmlns:inkscape="http://www.inkscape.org/namespaces/inkscape"
   version="1.0"
   width="1000"
   height="1000"
   id="svg5496"
   sodipodi:version="0.32"
   inkscape:version="0.48.0 r9654"
   sodipodi:docname="2.svg"
   inkscape:output_extension="org.inkscape.output.svg.inkscape">
  <metadata
     id="metadata5594">
    <rdf:RDF>
      <cc:Work
         rdf:about="">
        <dc:format>image/svg+xml</dc:format>
        <dc:type
           rdf:resource="http://purl.org/dc/dcmitype/StillImage" />
        <dc:title></dc:title>
      </cc:Work>
    </rdf:RDF>
  </metadata>
  <sodipodi:namedview
     inkscape:window-height="618"
     inkscape:window-width="691"
     inkscape:pageshadow="2"
     inkscape:pageopacity="0.0"
     borderopacity="1.0"
     bordercolor="#666666"
     pagecolor="#ffffff"
     id="base"
     showgrid="false"
     showguides="true"
     inkscape:guide-bbox="true"
     inkscape:zoom="0.46987214"
     inkscape:cx="262.91623"
     inkscape:cy="520.3175"
     inkscape:window-x="511"
     inkscape:window-y="56"
     inkscape:current-layer="svg5496"
     inkscape:window-maximized="0">
    <sodipodi:guide
       orientation="horizontal"
       position="200"
       id="guide5596" />
  </sodipodi:namedview>
  <defs
     id="defs5498" />
  <path
     style="fill:#4d4d4d;fill-opacity:1;stroke:#f9f9f9;stroke-width:0.1;stroke-miterlimit:4;stroke-dasharray:none"
     d="M 213.71875,269.71875 C 184.88612,269.59984 156.087,274.67703 124.6875,286.25 86.918498,303.16658 50.585,323.76753 24.75,357.0625 c -11.35,16.32809 65.618748,69.82808 76.96875,53.5 15.432,-19.38549 37.8145,-30.78141 60.0625,-40.4375 38.1,-14.02504 76.8265,-10.81505 114.6875,1.53125 34.184,15.16697 44.2945,32.80613 43.5625,68.96875 -8.994,60.63544 -45.85425,110.99651 -82.65625,158.0625 -40.48,49.62267 -90.106,89.85628 -143,125.375 -22.648,18.1313 -53.37275,26.27583 -74.59375,46.375 -4.598,4.35519 -8.39475,9.47727 -12.59375,14.21875 -1.914,14.40683 -10.415,29.48565 -5.75,43.25 16.583,48.92737 76.546498,36.98836 113.8125,34.0625 53.131,-4.69332 106.3875,-7.4901 159.6875,-9.28125 45.476,-1.44261 90.9795,-0.6757 136.4375,0.90625 4.427,0.17738 8.85425,0.35387 13.28125,0.53125 19.668,0.51364 22.1055,-92.20511 2.4375,-92.71875 -4.533,-0.0566 -9.092,-0.0996 -13.625,-0.15625 -47.195,-0.52122 -94.3805,-0.85553 -141.5625,0.65625 -26.63857,0.89546 -53.29017,1.99172 -79.90625,3.34375 42.47371,-32.9762 82.03305,-69.44096 116.03125,-111.53125 49.88,-64.29303 97.00025,-133.26878 103.15625,-216.9375 -0.836,-11.97646 -0.34525,-24.13247 -2.53125,-35.9375 -10.638,-57.4749 -53.11,-96.08554 -105.625,-116.5 -31.618,-9.18908 -60.47987,-14.50609 -89.3125,-14.625 z"
     id="path3460"
     inkscape:connector-curvature="0"
     sodipodi:nodetypes="scccccccccccccccccccccccs" />
</svg>
