<?xml version="1.0" encoding="UTF-8" standalone="no"?>
<!-- Created with Inkscape (http://www.inkscape.org/) -->

<svg
   xmlns:dc="http://purl.org/dc/elements/1.1/"
   xmlns:cc="http://creativecommons.org/ns#"
   xmlns:rdf="http://www.w3.org/1999/02/22-rdf-syntax-ns#"
   xmlns:svg="http://www.w3.org/2000/svg"
   xmlns="http://www.w3.org/2000/svg"
   xmlns:sodipodi="http://sodipodi.sourceforge.net/DTD/sodipodi-0.dtd"
   xmlns:inkscape="http://www.inkscape.org/namespaces/inkscape"
   version="1.0"
   width="1000"
   height="1000"
   id="svg5496"
   sodipodi:version="0.32"
   inkscape:version="0.48.0 r9654"
   sodipodi:docname="5.svg"
   inkscape:output_extension="org.inkscape.output.svg.inkscape">
  <metadata
     id="metadata5594">
    <rdf:RDF>
      <cc:Work
         rdf:about="">
        <dc:format>image/svg+xml</dc:format>
        <dc:type
           rdf:resource="http://purl.org/dc/dcmitype/StillImage" />
        <dc:title></dc:title>
      </cc:Work>
    </rdf:RDF>
  </metadata>
  <sodipodi:namedview
     inkscape:window-height="618"
     inkscape:window-width="691"
     inkscape:pageshadow="2"
     inkscape:pageopacity="0.0"
     borderopacity="1.0"
     bordercolor="#666666"
     pagecolor="#ffffff"
     id="base"
     showgrid="false"
     showguides="true"
     inkscape:guide-bbox="true"
     inkscape:zoom="0.33224977"
     inkscape:cx="219.11433"
     inkscape:cy="429.12244"
     inkscape:window-x="6"
     inkscape:window-y="128"
     inkscape:current-layer="svg5496"
     inkscape:window-maximized="0">
    <sodipodi:guide
       orientation="horizontal"
       position="200"
       id="guide5596" />
  </sodipodi:namedview>
  <defs
     id="defs5498" />
  <path
     style="fill:#4d4d4d;fill-opacity:1;stroke:#f9f9f9;stroke-width:0.1;stroke-miterlimit:4;stroke-dasharray:none"
     id="path3500"
     d="m 316.75689,273.83538 c -34.023,21.29321 -59.281,53.71242 -84.128,84.54672 -55.694,71.54141 -96.101,152.34987 -124.729,238.00559 -10.049004,43.76398 -24.788004,99.7082 3.687,140.4043 2.876,4.11013 6.95,7.23589 10.425,10.85383 32.905,20.50649 70.821,7.95755 104.253,-4.5624 43.13,-19.91841 80.858,-49.33661 102.132,-92.35072 8.873,-24.82561 0,-41.91858 -19.235,-57.43428 -33.392,-20.85646 -72.391,-21.87127 -110.421,-18.79645 -7.342,1.32856 -14.683,2.65712 -22.025,3.98568 -19.049,3.25086 -34.374,-86.5494 -15.324,-89.80026 l 0,0 c 10.333,-1.68775 20.666,-3.37549 31,-5.06323 64.224,-3.99566 127.559,2.39658 180.144,43.29637 7.272,7.39475 15.394,14.04084 21.816,22.18424 33.919,43.00613 35.288,96.56333 14.274,145.41844 -5.241,9.11768 -9.804,18.6611 -15.725,27.35305 -33.108,48.60307 -83.295,82.42585 -135.987,106.47485 -59.876,20.92346 -119.341,34.95375 -177.837004,-0.94526 -10.541,-6.46891 -19.19,-15.60685 -28.785,-23.41027 -7.232,-10.00933 -15.709,-19.22776 -21.696,-30.02799 -35.3719999,-63.81146 -22.9179999,-139.55083 -4.539,-206.18539 5.538,-15.94792 10.497,-32.10872 16.614,-47.84375 30.18,-77.63559 72.684004,-150.10882 121.467004,-217.40314 31.947,-40.92785 64.93,-82.55243 109.343,-110.70815 17.397,-9.60435 62.672,72.40387 45.276,82.00822 z"
     inkscape:connector-curvature="0" />
</svg>
