<?xml version="1.0" encoding="utf-8" ?>

<!DOCTYPE svg PUBLIC "-//W3C//DTD SVG 1.1//EN" 
  "http://www.w3.org/Graphics/SVG/1.1/DTD/svg11.dtd">
<svg 
	xmlns="http://www.w3.org/2000/svg"
	xmlns:xlink="http://www.w3.org/1999/xlink"
	width="1024" height="1024">
<path d="m 4378.7973,5778.9424 c -15.9521,1.8152 -28.0912,11.2868 -38.1513,23.1032 -14.5769,23.2537 -4.3249,49.1177 5.2075,72.2274 29.3148,56.9375 84.2558,85.3951 141.1052,108.5949 84.2921,30.1238 173.2011,32.2445 261.425,26.0677 70.2217,-6.653 139.0253,-22.4088 201.6416,-55.2653 23.8465,-15.5935 53.8619,-35.5364 54.1981,-67.2004 -5.1965,-26.774 -26.191,-46.5847 -45.0906,-64.649 -16.4503,-15.064 -35.2777,-26.8216 -54.1903,-38.431 -17.5124,-10.8536 33.6519,-93.4077 51.1642,-82.5541 l 0,0 c 24.7517,15.4543 49.375,31.1127 70.7929,51.1604 42.4352,41.6179 78.1384,88.0575 73.91,150.8582 -2.0232,9.4825 -3.0582,19.2311 -6.0696,28.4475 -16.1206,49.3367 -58.0223,83.1686 -101.0418,108.5263 -74.9602,37.0112 -155.6359,56.9163 -239.0169,63.6912 -102.7501,6.5299 -206.0781,2.8936 -303.9857,-32.6617 -15.055,-6.2525 -30.4735,-11.6933 -45.1651,-18.7576 -64.4827,-31.0055 -118.5727,-78.1757 -150.1477,-143.0215 -4.1024,-11.1066 -9.1286,-21.9145 -12.3072,-33.3199 -13.9439,-50.0333 -6.226,-100.6314 26.4369,-141.3926 28.7783,-28.9894 61.9159,-50.6339 103.6176,-54.5998 21.0384,-1.2022 26.7056,97.9739 5.6672,99.1761 z" id="path4965" inkscape:connector-curvature="0" style="fill:#aa0000;fill-opacity:1;fill-rule:nonzero;stroke:#f9f9f9;stroke-width:0.1;stroke-miterlimit:4;stroke-dasharray:none" transform="translate(-4096, -5120)"/><path d="m 4628.6784,5470.4497 c -26.4373,13.4986 -46.9001,35.4958 -66.3128,57.411 -14.8292,20.2143 -36.3566,42.0054 -36.2261,68.7865 5.1544,19.3322 17.2102,36.179 27.8044,52.874 21.9496,31.8201 38.4142,66.0229 48.2966,103.3315 8.6628,40.6552 -0.365,79.8543 -15.3614,117.6373 -7.0713,17.0033 -16.7568,32.4622 -27.9145,47.0097 -13.2821,16.3217 -90.2232,-46.2904 -76.9411,-62.6121 l 0,0 c 6.2927,-5.8644 9.6408,-14.2648 13.6968,-21.6647 7.7201,-17.9825 14.0885,-36.742 11.1668,-56.5962 -5.9736,-27.3833 -20.5088,-51.2683 -35.7739,-74.489 -22.9883,-36.1569 -45.0766,-73.0035 -42.566,-117.6275 1.2423,-7.7776 1.8567,-15.682 3.7271,-23.3329 9.1534,-37.4408 33.5458,-68.871 57.2177,-98.2426 29.0003,-32.4035 60.1332,-63.5634 99.413,-83.3956 19.2851,-8.4372 59.0585,82.4734 39.7734,90.9106 z" id="path4967" inkscape:connector-curvature="0" style="fill:#aa0000;fill-opacity:1;fill-rule:nonzero;stroke:#f9f9f9;stroke-width:0.1;stroke-miterlimit:4;stroke-dasharray:none" transform="translate(-4096, -5120)"/><path d="m 4814.1787,5487.0147 c -25.0178,12.9373 -45.2917,33.0381 -64.0796,53.6309 -19.8136,23.1412 -35.5552,49.2721 -39.9072,79.6984 -1.6505,22.3729 6.3385,43.3045 14.1527,63.8188 10.8944,27.1109 22.279,54.0201 33.0221,81.1916 11.2181,26.302 17.9035,53.6164 19.1631,82.1349 0.5371,14.6617 -3.6938,27.8115 -8.7166,41.2974 -8.5162,19.284 -99.4221,-20.8616 -90.9059,-40.1457 l 0,0 c -0.3238,2.1512 -0.556,5.97 0.6565,1.16 0.7668,-16.9007 -6.2298,-32.8529 -11.8255,-48.4513 -10.7827,-27.6414 -22.4335,-54.9297 -33.419,-82.4905 -14.0426,-37.5421 -24.7125,-76.0014 -18.5668,-116.5191 9.9769,-48.1547 31.36,-91.0206 64.4498,-127.7925 27.8005,-30.0706 57.8765,-58.5786 94.4755,-77.7524 19.1384,-8.8036 60.6394,81.4159 41.5009,90.2195 z" id="path4969" inkscape:connector-curvature="0" style="fill:#aa0000;fill-opacity:1;fill-rule:nonzero;stroke:#f9f9f9;stroke-width:0.1;stroke-miterlimit:4;stroke-dasharray:none" transform="translate(-4096, -5120)"/><path d="m 4960.9293,5469.6602 c -22.6304,24.9991 -40.161,53.955 -56.7586,83.144 -20.2012,36.3427 -34.6696,75.0968 -40.4922,116.2632 -2.7126,30.2872 6.8106,59.1112 15.5472,87.6343 13.5001,36.3036 16.6104,73.4206 13.1438,111.6757 -2.5844,22.4785 -9.4591,43.9464 -16.3051,65.3801 -6.3292,19.7475 -99.4199,-10.0884 -93.0907,-29.8359 l 0,0 c 4.7738,-14.8259 9.683,-29.6547 11.7045,-45.1782 2.8691,-25.4269 -0.3385,-49.4332 -9.3573,-73.5685 -12.8341,-42.7193 -24.1713,-86.0486 -18.1204,-131.123 8.692,-52.5994 26.0763,-102.6046 52.2681,-149.2101 19.8488,-35.1788 40.9471,-69.7673 66.9537,-100.8188 13.9237,-15.8053 88.4308,49.8319 74.507,65.6372 z" id="path4971" inkscape:connector-curvature="0" style="fill:#aa0000;fill-opacity:1;fill-rule:nonzero;stroke:#f9f9f9;stroke-width:0.1;stroke-miterlimit:4;stroke-dasharray:none" transform="translate(-4096, -5120)"/></svg>