<?xml version="1.0" encoding="utf-8" ?>

<!DOCTYPE svg PUBLIC "-//W3C//DTD SVG 1.1//EN" 
  "http://www.w3.org/Graphics/SVG/1.1/DTD/svg11.dtd">
<svg 
	xmlns="http://www.w3.org/2000/svg"
	xmlns:xlink="http://www.w3.org/1999/xlink"
	width="1024" height="1024">
<path d="m 6975.5508,5681.9497 c 35.7193,-3.201 71.516,-5.381 107.3282,-7.207 29.6304,-1.351 14.8879,-0.645 44.2276,-2.115 20.6688,-1.039 25.5665,96.394 4.8977,97.433 l 0,0 c -29.4626,1.486 -14.823,0.765 -43.919,2.163 -33.5694,1.877 -67.1876,3.866 -100.538,8.269 -20.9041,2.545 -32.9007,-95.998 -11.9965,-98.543 z" id="path4827" inkscape:connector-curvature="0" style="fill:#aa0000;fill-opacity:1;fill-rule:nonzero;stroke:#f9f9f9;stroke-width:0.1;stroke-miterlimit:4;stroke-dasharray:none" transform="translate(-6144, -5120)"/><path d="m 7019.372,6141.3347 c 49.5524,-50.043 107.6155,-90.429 165.4034,-130.219 43.0657,-29.338 87.9117,-55.842 132.8232,-82.202 17.2775,-10.119 64.9781,71.328 47.7006,81.447 l 0,0 c -42.8534,25.04 -85.6441,50.23 -126.4674,78.533 -51.245,35.97 -103.3281,72.29 -145.8229,118.714 -14.0587,15.621 -87.6956,-50.653 -73.6369,-66.273 z" id="path4837" inkscape:connector-curvature="0" style="fill:#aa0000;fill-opacity:1;fill-rule:nonzero;stroke:#f9f9f9;stroke-width:0.1;stroke-miterlimit:4;stroke-dasharray:none" transform="translate(-6144, -5120)"/></svg>