<?xml version="1.0" encoding="utf-8" ?>

<!DOCTYPE svg PUBLIC "-//W3C//DTD SVG 1.1//EN" 
  "http://www.w3.org/Graphics/SVG/1.1/DTD/svg11.dtd">
<svg 
	xmlns="http://www.w3.org/2000/svg"
	xmlns:xlink="http://www.w3.org/1999/xlink"
	width="1024" height="1024">
<path d="m 7471.666,5633.2967 c 12.7273,-37.134 37.102,-65.935 66.888,-90.571 49.2419,-33.518 91.7977,-36.31 148.3726,-22.623 57.306,19.587 95.0652,57.438 126.5562,107.648 25.6681,51.318 25.4188,108.171 -2.3106,158.892 -5.7893,10.589 -13.4668,20.031 -20.2002,30.047 -43.3674,50.147 -102.8181,79.997 -168.4121,88.6 -13.7937,1.809 -27.7674,1.769 -41.6512,2.654 -75.9873,-1.386 -147.0278,-27.907 -204.0122,-78.643 -11.6912,-10.409 -21.8923,-22.38 -32.8384,-33.57 -45.5835,-57.439 -83.7685,-126.696 -83.9041,-202.199 -0.025,-13.74 2.6857,-27.348 4.0286,-41.022 4.5386,-13.168 7.4883,-26.995 13.6157,-39.502 34.9541,-71.35 104.9314,-99.25 175.7076,-121.783 78.9577,-19.599 161.3503,-22.014 240.9878,-4.539 15.544,3.411 30.7106,8.358 46.066,12.537 65.811,23.014 129.6802,57.3 175.1135,111.575 7.7732,9.286 14.1558,19.652 21.2337,29.479 32.7084,56.717 32.3787,118.296 2.1867,176.125 -5.9963,11.486 -13.7018,21.994 -20.5526,32.991 -31.8661,46.299 -75.5354,80.108 -121.1287,111.701 -16.7319,11.51 -70.9868,-67.365 -54.2549,-78.875 l 0,0 c 35.1449,-23.951 69.0697,-49.439 93.9788,-84.598 21.2915,-32.427 39.288,-64.176 20.2434,-102.223 -33.5665,-51.632 -84.6593,-84.338 -142.4253,-104.436 -79.854,-22.984 -151.2319,-28.95 -232.8028,-8.617 -48.0163,14.844 -101.3574,32 -122.1966,82.283 -1.2788,7.045 -3.4422,13.986 -3.8364,21.135 -2.9381,53.281 26.1394,102.818 56.7924,143.747 48.7145,51.854 89.8713,78.679 162.757,82.474 50.6679,-2.099 99.7793,-12.59 135.9319,-51.008 19.104,-25.06 32.1145,-51.616 18.5248,-82.694 -15.9033,-27.934 -37.69,-51.365 -68.0837,-63.587 -21.6746,-6.74 -42.1903,-8.164 -62.1427,4.65 -15.4154,11.478 -27.6964,25.658 -33.678,44.28 -6.4337,20.058 -100.9879,-10.27 -94.5542,-30.328 z" id="path4825" inkscape:connector-curvature="0" style="fill:#aa0000;fill-opacity:1;fill-rule:nonzero;stroke:#f9f9f9;stroke-width:0.1;stroke-miterlimit:4;stroke-dasharray:none" transform="translate(-7168, -5120)"/><path d="m 7400.149,5197.8087 c 20.8807,23.154 45.5122,42.416 70.8043,60.461 20.7673,13.36 10.2768,7.043 31.4542,18.979 18.0078,10.258 -30.3489,95.148 -48.3567,84.89 l 0,0 c -27.1454,-15.59 -13.8511,-7.461 -39.8937,-24.369 -30.6845,-21.945 -60.3402,-45.37 -86.7586,-72.407 -14.3304,-15.433 58.4201,-82.987 72.7505,-67.554 z" id="path4829" inkscape:connector-curvature="0" style="fill:#aa0000;fill-opacity:1;fill-rule:nonzero;stroke:#f9f9f9;stroke-width:0.1;stroke-miterlimit:4;stroke-dasharray:none" transform="translate(-7168, -5120)"/><path d="m 8082.4751,5222.8307 c -23.0858,27.653 -41.6837,58.707 -60.5505,89.294 -4.2109,7.015 -8.4218,14.031 -12.6326,21.046 -10.5778,17.705 -94.0415,-32.159 -83.4637,-49.864 l 0,0 c 4.371,-7.35 8.742,-14.699 13.1131,-22.048 21.3479,-35.038 42.6821,-70.234 67.905,-102.672 13.6282,-16.043 89.2569,48.201 75.6287,64.244 z" id="path4831" inkscape:connector-curvature="0" style="fill:#aa0000;fill-opacity:1;fill-rule:nonzero;stroke:#f9f9f9;stroke-width:0.1;stroke-miterlimit:4;stroke-dasharray:none" transform="translate(-7168, -5120)"/></svg>