<?xml version="1.0" encoding="utf-8" ?>

<!DOCTYPE svg PUBLIC "-//W3C//DTD SVG 1.1//EN" 
  "http://www.w3.org/Graphics/SVG/1.1/DTD/svg11.dtd">
<svg 
	xmlns="http://www.w3.org/2000/svg"
	xmlns:xlink="http://www.w3.org/1999/xlink"
	width="1024" height="1024">
<path d="m 9528.7109,5295.4769 c -23.7028,7.7442 -46.5245,18.0034 -68.833,29.0834 -11.0726,7.1811 -28.2055,12.1164 -34.4171,25.002 5.3316,-1.6473 2.1792,-10.775 7.5985,-3.0144 14.7259,19.5799 32.6795,36.5172 49.8598,53.9071 25.2141,24.2976 47.6261,50.7949 65.1784,81.1027 18.4232,36.1142 19.1893,66.9787 3.6928,104.0428 -20.5812,35.9012 -56.5718,49.3914 -94.5508,59.1392 -35.6714,7.9861 -72.0746,11.5894 -108.5829,11.1141 -29.5576,-0.5904 -56.1798,-7.9948 -80.3987,-24.7323 -4.8851,-6.5225 -9.7703,-13.045 -14.6554,-19.5675 -9.4824,-18.8717 79.4797,-63.572 88.9621,-44.7003 l 0,0 c -3.6966,-4.1571 -7.3933,-8.3142 -11.0899,-12.4714 -17.2106,-8.6532 13.9856,6.5016 19.4724,3.0237 27.5924,1.0873 55.1335,-2.1022 82.1029,-7.9423 5.3768,-1.3412 25.946,-10.5475 29.4763,-6.6417 5.5294,4.4278 1.0539,-12.4645 -0.4372,-13.1428 -12.0548,-23.1761 -30.7255,-41.6685 -48.904,-60.122 -23.6861,-23.8315 -48.7662,-46.9571 -66.8011,-75.576 -18.7834,-36.3656 -23.3243,-68.1305 0.034,-104.0551 18.9664,-23.6068 42.4484,-41.0737 70.0768,-53.6727 26.7562,-13.0281 53.9922,-25.1241 81.9394,-35.3894 20.0705,-6.4225 50.3466,88.1904 30.2762,94.6129 z" id="path4985" inkscape:connector-curvature="0" style="fill:#aa0000;fill-opacity:1;fill-rule:nonzero;stroke:#f9f9f9;stroke-width:0.1;stroke-miterlimit:4;stroke-dasharray:none" transform="translate(-9216, -5120)"/><path d="m 9605.5978,5249.3051 c 36.7032,5.3678 73.8363,6.7161 110.8574,8.0675 37.3452,1.2744 74.7272,0.9681 112.0591,2.6108 50.2588,4.1493 24.7285,13.0831 35.4844,93.6362 -16.7723,12.8167 -77.1907,-66.2484 -60.4185,-79.0651 l 0,0 c 22.4881,99.4943 29.3442,85.3469 19.0171,83.9658 -36.4338,-2.8987 -73.0383,-2.4034 -109.5421,-3.8012 -40.1026,-1.3401 -80.2159,-2.9575 -120.1538,-7.0168 -20.8732,-2.6933 -8.1768,-101.0905 12.6964,-98.3972 z" id="path4991" inkscape:connector-curvature="0" style="fill:#aa0000;fill-opacity:1;fill-rule:nonzero;stroke:#f9f9f9;stroke-width:0.1;stroke-miterlimit:4;stroke-dasharray:none" transform="translate(-9216, -5120)"/><path d="m 9760.2655,5323.8653 c 0.5978,41.508 -2.9392,82.8807 -6.7632,124.1662 -4.2902,42.3849 -7.2971,84.8731 -8.3088,127.4621 -0.083,8.2163 -0.1155,16.4179 1.1866,24.5393 2.1077,20.9195 -96.5079,30.8552 -98.6155,9.9357 l 0,0 c -0.9872,-12.6177 -1.5364,-25.2211 -0.7692,-37.8827 1.9905,-44.3398 5.4372,-88.5819 9.7107,-132.7601 3.2467,-37.279 6.5063,-74.7354 4.3757,-112.1817 -0.6955,-21.0401 98.4881,-24.3189 99.1837,-3.2788 z" id="path4993" inkscape:connector-curvature="0" style="fill:#aa0000;fill-opacity:1;fill-rule:nonzero;stroke:#f9f9f9;stroke-width:0.1;stroke-miterlimit:4;stroke-dasharray:none" transform="translate(-9216, -5120)"/><path d="m 9951.5764,5284.902 c 17.8399,35.9319 39.5518,69.6837 61.8706,102.945 29.209,42.2205 60.319,83.0727 90.105,124.8799 13.471,18.8679 25.663,38.5855 37.6,58.4424 10.579,18.0451 -74.486,67.9168 -85.065,49.8717 l 0,0 c -10.119,-17.7611 -20.545,-35.3593 -32.267,-52.1262 -29.7106,-42.6538 -61.059,-84.1299 -90.8169,-126.7518 -24.4117,-35.9475 -47.8823,-72.4985 -68.8984,-110.56 -9.9068,-18.5556 77.5649,-65.2566 87.4717,-46.701 z" id="path4995" inkscape:connector-curvature="0" style="fill:#aa0000;fill-opacity:1;fill-rule:nonzero;stroke:#f9f9f9;stroke-width:0.1;stroke-miterlimit:4;stroke-dasharray:none" transform="translate(-9216, -5120)"/><path d="m 10169.008,5308.5376 c -26.472,23.4814 -46.685,53.1533 -67.381,81.6006 -37.855,54.4804 -76.208,108.5952 -115.1216,162.3242 -28.3209,39.0694 -56.7388,78.2192 -80.0588,120.5394 -6.7452,13.5498 -3.7723,7.1589 -9.0485,19.1118 -8.8954,18.9721 -98.3307,-22.9615 -89.4352,-41.9336 l 0,0 c 8.0618,-16.5152 3.6741,-7.9158 13.261,-25.7482 26.2129,-44.7784 56.5804,-86.8581 87.3533,-128.5892 38.9837,-53.4828 77.1837,-107.5064 114.3838,-162.2486 26.2,-36.8658 52.148,-74.8013 86.629,-104.5594 16.865,-12.6045 76.283,66.8985 59.418,79.503 z" id="path4997" inkscape:connector-curvature="0" style="fill:#aa0000;fill-opacity:1;fill-rule:nonzero;stroke:#f9f9f9;stroke-width:0.1;stroke-miterlimit:4;stroke-dasharray:none" transform="translate(-9216, -5120)"/><path d="m 9554.7891,5757.4164 c -2.7909,35.184 -4.0599,70.4652 -5.2812,105.7313 -1.3908,41.4883 -2.3081,82.9927 -2.397,124.5047 0.022,19.5968 0.5426,39.1903 1.5615,58.7598 0.3526,5.9931 0.1832,3.1077 0.5083,8.6563 0.9932,21.0937 -98.4433,25.7758 -99.4365,4.6821 l 0,0 c -0.2141,-5.9228 -0.1058,-2.7966 -0.3215,-9.3786 -0.6155,-21.1807 -0.6208,-42.3747 -0.416,-63.5621 0.6243,-42.2517 1.8715,-84.49 3.0795,-126.7283 1.0139,-35.7443 2.2418,-71.4799 3.4941,-107.2161 0.9654,-21.0453 100.1741,-16.4945 99.2088,4.5509 z" id="path4999" inkscape:connector-curvature="0" style="fill:#aa0000;fill-opacity:1;fill-rule:nonzero;stroke:#f9f9f9;stroke-width:0.1;stroke-miterlimit:4;stroke-dasharray:none" transform="translate(-9216, -5120)"/><path d="m 9521.8404,5836.4777 c 37.0406,0.8738 73.8461,5.576 110.719,8.8536 46.4788,3.8713 93.1494,4.1915 139.7584,4.2936 42.104,0.7391 84.0697,-2.5607 125.9865,-5.9858 20.4977,-2.0438 41.2557,-2.681 61.5071,-6.7124 2.686,-1.0263 1.8109,-0.6241 -2.8494,0.4799 19.6359,-7.8331 56.561,84.7314 36.9256,92.5645 l 0,0 c -12.4104,4.1026 -6.5252,2.5707 -17.5775,4.8861 -23.3771,3.5476 -46.9914,4.8454 -70.5607,6.4953 -44.493,3.1427 -89.0203,6.312 -133.6657,5.5523 -49.3123,-0.1291 -98.6821,-0.4629 -147.8722,-4.3176 -33.2705,-2.7593 -66.5486,-7.0535 -99.9713,-6.9194 -21.0414,0.5091 -23.4412,-98.681 -2.3998,-99.1901 z" id="path5001" inkscape:connector-curvature="0" style="fill:#aa0000;fill-opacity:1;fill-rule:nonzero;stroke:#f9f9f9;stroke-width:0.1;stroke-miterlimit:4;stroke-dasharray:none" transform="translate(-9216, -5120)"/><path d="m 9917.9904,5738.1521 c 13.07,16.1414 29.9973,28.5001 46.884,40.3267 17.1914,11.3835 34.6947,22.2428 50.9286,34.9873 32.638,29.25 34.246,57.7263 9.543,93.7442 -21.973,23.4014 -47.3783,43.3171 -71.835,64.0312 -32.362,27.5442 -65.2049,54.5108 -98.5431,80.8634 -16.3023,12.8287 -76.7773,-64.0213 -60.475,-76.85 l 0,0 c 32.4029,-25.3781 64.2763,-51.4257 95.406,-78.3553 19.3623,-16.7381 39.0368,-33.1803 57.3904,-51.0356 -6.3739,14.3278 -5.7699,36.7273 6.2433,44.9149 -14.1799,-11.9978 -30.4527,-21.136 -45.5317,-31.9091 -25.7007,-18.3247 -50.8116,-37.9166 -70.6382,-62.7382 -12.2993,-17.1037 68.3284,-75.0832 80.6277,-57.9795 z" id="path5003" inkscape:connector-curvature="0" style="fill:#aa0000;fill-opacity:1;fill-rule:nonzero;stroke:#f9f9f9;stroke-width:0.1;stroke-miterlimit:4;stroke-dasharray:none" transform="translate(-9216, -5120)"/></svg>