<?xml version="1.0" encoding="UTF-8" standalone="no"?>
<!-- Created with Inkscape (http://www.inkscape.org/) -->

<svg
   xmlns:dc="http://purl.org/dc/elements/1.1/"
   xmlns:cc="http://creativecommons.org/ns#"
   xmlns:rdf="http://www.w3.org/1999/02/22-rdf-syntax-ns#"
   xmlns:svg="http://www.w3.org/2000/svg"
   xmlns="http://www.w3.org/2000/svg"
   xmlns:sodipodi="http://sodipodi.sourceforge.net/DTD/sodipodi-0.dtd"
   xmlns:inkscape="http://www.inkscape.org/namespaces/inkscape"
   version="1.0"
   width="1000"
   height="1000"
   id="svg5496"
   sodipodi:version="0.32"
   inkscape:version="0.48.0 r9654"
   sodipodi:docname="B.svg"
   inkscape:output_extension="org.inkscape.output.svg.inkscape">
  <metadata
     id="metadata5594">
    <rdf:RDF>
      <cc:Work
         rdf:about="">
        <dc:format>image/svg+xml</dc:format>
        <dc:type
           rdf:resource="http://purl.org/dc/dcmitype/StillImage" />
        <dc:title></dc:title>
      </cc:Work>
    </rdf:RDF>
  </metadata>
  <sodipodi:namedview
     inkscape:window-height="618"
     inkscape:window-width="691"
     inkscape:pageshadow="2"
     inkscape:pageopacity="0.0"
     borderopacity="1.0"
     bordercolor="#666666"
     pagecolor="#ffffff"
     id="base"
     showgrid="false"
     showguides="true"
     inkscape:guide-bbox="true"
     inkscape:zoom="0.66449955"
     inkscape:cx="182.79278"
     inkscape:cy="446.87884"
     inkscape:window-x="6"
     inkscape:window-y="128"
     inkscape:current-layer="svg5496"
     inkscape:window-maximized="0">
    <sodipodi:guide
       orientation="horizontal"
       position="200"
       id="guide5596" />
  </sodipodi:namedview>
  <defs
     id="defs5498" />
  <path
     style="fill:#4d4d4d;fill-opacity:1;stroke:#f9f9f9;stroke-width:0.1;stroke-miterlimit:4;stroke-dasharray:none"
     d="M 153.5 165.4375 C 129.21505 166.08156 105.2348 168.49233 82.59375 175.3125 C 57.789143 168.2791 -1.5421374 177.59438 0.09375 193.40625 C 5.46375 244.06685 6.51325 295.11005 7.90625 346 C 9.92225 440.08985 8.74475 534.18524 7.96875 628.28125 C 7.28375 692.45665 7.4269997 756.76162 16.125 820.4375 C 19.222 843.038 26.044 864.45364 35.625 885.03125 C 43.027856 899.62057 101.15871 873.31273 116.03125 853.78125 C 162.56755 855.0801 209.12539 853.2246 255.09375 844.78125 C 316.73275 832.4911 377.8285 815.60429 431.0625 780.875 C 482.1105 743.57266 517.49325 704.95751 513.03125 637.59375 C 510.78325 628.42676 509.5355 618.96493 506.3125 610.09375 C 489.7855 564.60942 449.9555 534.30301 408.8125 512.40625 C 387.74823 502.76452 366.25599 494.2328 344.375 486.96875 C 345.45533 486.1526 346.52513 485.3361 347.59375 484.5 C 390.10975 446.76843 415.541 408.41417 408.5 349.15625 C 406.465 341.04466 405.068 332.73034 402.375 324.8125 C 387.713 281.69373 355.41275 248.33564 319.21875 222.21875 C 268.63275 190.61321 214.08 167.23161 153.5 165.4375 z M 155.34375 257.21875 C 197.53875 259.35678 235.3685 276.49491 270.1875 299.25 C 293.8915 316.93924 314.07125 339.01537 318.40625 369.03125 C 317.72325 389.5292 302.23475 402.76687 287.46875 414.875 C 261.21375 433.90045 230.72 445.43806 200.5 456.46875 C 198.42283 457.15812 196.35603 457.86504 194.28125 458.5625 C 182.52433 459.19565 170.91629 461.52362 159.5625 466.65625 C 163.9725 496.31268 163.60325 527.08138 172.78125 555.625 C 174.1187 559.786 189.9109 556.48534 205.03125 552.1875 C 208.13276 552.35754 212.36604 552.22531 215.15625 552.53125 C 227.12425 553.84361 232.44075 554.8186 244.84375 556.71875 C 288.43875 563.59278 330.524 576.3589 370.375 595.1875 C 393.649 608.46851 421.537 625.9858 422.625 655.625 C 417.757 679.26211 396.1845 693.6648 377.6875 706.625 C 335.1265 733.51368 286.363 746.20211 237.5 755.75 C 192.44951 763.84412 146.77384 764.42778 101.25 761.9375 C 97.180263 717.70375 97.063165 673.1118 96.84375 628.6875 C 96.91175 533.88581 97.93975 439.08314 97.34375 344.28125 C 97.073548 319.52188 96.808559 294.75966 96.3125 270 C 113.89142 258.73418 134.85681 257.40956 155.34375 257.21875 z M 183.75 461.40625 C 184.20847 461.39051 184.66108 461.39282 185.0625 461.4375 C 183.56947 461.86409 182.06917 462.28257 180.5625 462.65625 C 171.048 465.01589 178.68886 461.58002 183.75 461.40625 z "
     id="path4416" />
</svg>
