<?xml version="1.0" encoding="UTF-8" standalone="no"?>
<!-- Created with Inkscape (http://www.inkscape.org/) -->

<svg
   xmlns:dc="http://purl.org/dc/elements/1.1/"
   xmlns:cc="http://creativecommons.org/ns#"
   xmlns:rdf="http://www.w3.org/1999/02/22-rdf-syntax-ns#"
   xmlns:svg="http://www.w3.org/2000/svg"
   xmlns="http://www.w3.org/2000/svg"
   xmlns:sodipodi="http://sodipodi.sourceforge.net/DTD/sodipodi-0.dtd"
   xmlns:inkscape="http://www.inkscape.org/namespaces/inkscape"
   version="1.0"
   width="1000"
   height="1000"
   id="svg5496"
   sodipodi:version="0.32"
   inkscape:version="0.48.0 r9654"
   sodipodi:docname="em.svg"
   inkscape:output_extension="org.inkscape.output.svg.inkscape">
  <metadata
     id="metadata5594">
    <rdf:RDF>
      <cc:Work
         rdf:about="">
        <dc:format>image/svg+xml</dc:format>
        <dc:type
           rdf:resource="http://purl.org/dc/dcmitype/StillImage" />
        <dc:title></dc:title>
      </cc:Work>
    </rdf:RDF>
  </metadata>
  <sodipodi:namedview
     inkscape:window-height="618"
     inkscape:window-width="641"
     inkscape:pageshadow="2"
     inkscape:pageopacity="0.0"
     borderopacity="1.0"
     bordercolor="#666666"
     pagecolor="#ffffff"
     id="base"
     showgrid="false"
     showguides="true"
     inkscape:guide-bbox="true"
     inkscape:zoom="0.454"
     inkscape:cx="500"
     inkscape:cy="500"
     inkscape:window-x="597"
     inkscape:window-y="65"
     inkscape:current-layer="svg5496"
     inkscape:window-maximized="0">
    <sodipodi:guide
       orientation="horizontal"
       position="200"
       id="guide5596" />
  </sodipodi:namedview>
  <defs
     id="defs5498" />
  <path
     style="fill:#4d4d4d;fill-opacity:1;stroke:#f9f9f9;stroke-width:0.1;stroke-miterlimit:4;stroke-dasharray:none"
     d="m 405.5625,61.375 c -20.06185,0.724777 -37.42687,12.651419 -50.09375,34.5 -17.429,35.73412 -29.7455,73.70822 -44.1875,110.6875 -10.75437,28.98206 -21.36192,58.01916 -31.6875,87.15625 -31.49228,2.42816 -62.97359,4.99759 -94.4375,7.78125 -60.519,6.13 -122.2155,11.05695 -180.1875,30.6875 -14.4352063,6.22215 5.780318,61.39803 23.875,80.1875 -12.28099,19.03092 -20.502156,40.58734 -12.4375,45.8125 7.77,4.90376 15.5435,9.815 23.3125,14.71875 C 90.920415,505.72558 141.76302,539.09482 192.25,573 c -19.82692,70.2828 -38.50672,140.87223 -54.40625,212.15625 -7.042,34.73702 -24.87875,102.95161 -9.96875,137.1875 4.105,9.42459 11.248,17.21 16.875,25.8125 10.563,4.70978 20.3425,11.87443 31.6875,14.125 33.351,6.61648 61.9675,-25.46968 84.3125,-44.09375 0.45959,-0.42565 0.91541,-0.85559 1.375,-1.28125 1.11195,0.21185 2.20435,0.398 3.34375,0.625 1.75398,0.34939 6.64755,-7.15191 10.40625,-13.34375 49.03362,-45.41646 98.0559,-90.86938 147.09375,-136.28125 6.18073,-5.73666 12.35638,-11.47563 18.53125,-17.21875 20.20784,15.82409 40.17022,31.9722 59.78125,48.5625 48.59,41.14668 95.89,83.86704 145.625,123.625 14.946,9.31693 33.3175,23.99029 53.1875,18.9375 48.312,-12.28538 52.2975,-48.73038 44.9375,-88 -14.784,-69.67904 -34.542,-138.18701 -53.5,-206.8125 -10.17033,-35.21221 -20.55668,-70.3694 -31.34375,-105.40625 50.30042,-49.72762 100.24551,-99.94345 153.875,-146.125 26.197,-22.7876 64.941,-48.35926 51,-90.625 -3.915,-11.86936 -16.68825,-18.60049 -25.03125,-27.90625 -32.482,-11.26512 -66.67975,-8.95536 -100.71875,-8.71875 -58.13429,0.7952 -116.20616,3.08281 -174.25,6.28125 -24.2041,-57.93705 -50.92302,-114.94712 -87.09375,-166.4375 -8.802,-10.86236 -21.2165,-28.288093 -33.8125,-35.625 C 430.606,64.545059 417.59961,60.940134 405.5625,61.375 z"
     id="path4084"
     inkscape:connector-curvature="0"
     sodipodi:nodetypes="scccccccccccccccccccccsccccscccccs" />
</svg>
