<?xml version="1.0" encoding="UTF-8" standalone="no"?>
<!-- Created with Inkscape (http://www.inkscape.org/) -->

<svg
   xmlns:dc="http://purl.org/dc/elements/1.1/"
   xmlns:cc="http://creativecommons.org/ns#"
   xmlns:rdf="http://www.w3.org/1999/02/22-rdf-syntax-ns#"
   xmlns:svg="http://www.w3.org/2000/svg"
   xmlns="http://www.w3.org/2000/svg"
   xmlns:sodipodi="http://sodipodi.sourceforge.net/DTD/sodipodi-0.dtd"
   xmlns:inkscape="http://www.inkscape.org/namespaces/inkscape"
   version="1.0"
   width="1000"
   height="1000"
   id="svg5496"
   sodipodi:version="0.32"
   inkscape:version="0.48.0 r9654"
   sodipodi:docname="closing_brace.svg"
   inkscape:output_extension="org.inkscape.output.svg.inkscape">
  <metadata
     id="metadata5594">
    <rdf:RDF>
      <cc:Work
         rdf:about="">
        <dc:format>image/svg+xml</dc:format>
        <dc:type
           rdf:resource="http://purl.org/dc/dcmitype/StillImage" />
        <dc:title></dc:title>
      </cc:Work>
    </rdf:RDF>
  </metadata>
  <sodipodi:namedview
     inkscape:window-height="725"
     inkscape:window-width="1280"
     inkscape:pageshadow="2"
     inkscape:pageopacity="0.0"
     borderopacity="1.0"
     bordercolor="#666666"
     pagecolor="#ffffff"
     id="base"
     showgrid="false"
     showguides="true"
     inkscape:guide-bbox="true"
     inkscape:zoom="0.049930394"
     inkscape:cx="4558.0377"
     inkscape:cy="469.08477"
     inkscape:window-x="0"
     inkscape:window-y="25"
     inkscape:current-layer="svg5496"
     inkscape:window-maximized="1">
    <sodipodi:guide
       orientation="horizontal"
       position="200"
       id="guide5596" />
  </sodipodi:namedview>
  <defs
     id="defs5498" />
  <path
     style="fill:#4d4d4d;fill-opacity:1;stroke:#f9f9f9;stroke-width:0.1;stroke-miterlimit:4;stroke-dasharray:none"
     d="m 89.125743,17.84291 c -19.88,0.61484 -16.97375,94.33358 2.90625,93.71874 26.703997,-0.1655 52.727997,6.18189 77.749997,14.96875 8.953,4.67578 36.9965,14.32402 30.6875,29.375 -7.198,23.27462 -20.68725,43.68519 -33.78125,63.96875 -17.494,25.57975 -34.97275,51.0311 -47.34375,79.53125 -10.344,26.03729 -9.9335,52.53371 -4.0625,79.4375 6.343,21.8577 15.488,42.7104 21.75,64.59375 6.791,26.58813 4.181,54.13963 1.875,81.125 -6.053,52.18975 -13.4085,104.2268 -19.5625,156.40625 -5.061,44.87475 -8.74775,89.884 -13.59375,134.7813 -3.033,25.7235 -5.774,51.731 -14.124997,76.375 -0.67,1.427 -1.33,2.8542 -2,4.2812 -7.427999,18.3558 79.103247,53.387 86.531247,35.0313 1.475,-3.8716 2.93225,-7.7534 4.40625,-11.625 9.106,-30.805 13.665,-62.5471 16.625,-94.5 4.522,-44.6024 8.083,-89.31845 12.75,-133.9063 5.986,-52.94284 13.48225,-105.66009 20.28125,-158.5 3.704,-38.45331 6.582,-77.47029 -3.875,-115.21875 -5.885,-20.29238 -13.29775,-40.02156 -20.21875,-59.96875 -2.103,-7.64147 -3.17775,-14.86231 -0.71875,-22.65625 8.876,-23.91431 25.55875,-43.88707 38.71875,-65.46875 25.534,-39.95725 51.0835,-81.08594 47.4375,-130.53125 -2.077,-8.43655 -3.10775,-17.20021 -6.21875,-25.3125 C 270.81449,75.86568 235.42724,53.794 199.56324,39.40541 163.82924,27.43565 126.99774,18.7006 89.125743,17.84291 z"
     id="path3942"
     inkscape:connector-curvature="0" />
</svg>
