<?xml version="1.0" encoding="UTF-8" standalone="no"?>
<!-- Created with Inkscape (http://www.inkscape.org/) -->

<svg
   xmlns:dc="http://purl.org/dc/elements/1.1/"
   xmlns:cc="http://creativecommons.org/ns#"
   xmlns:rdf="http://www.w3.org/1999/02/22-rdf-syntax-ns#"
   xmlns:svg="http://www.w3.org/2000/svg"
   xmlns="http://www.w3.org/2000/svg"
   xmlns:sodipodi="http://sodipodi.sourceforge.net/DTD/sodipodi-0.dtd"
   xmlns:inkscape="http://www.inkscape.org/namespaces/inkscape"
   version="1.0"
   width="1000"
   height="1000"
   id="svg5496"
   sodipodi:version="0.32"
   inkscape:version="0.48.0 r9654"
   sodipodi:docname="Z.svg"
   inkscape:output_extension="org.inkscape.output.svg.inkscape">
  <metadata
     id="metadata5594">
    <rdf:RDF>
      <cc:Work
         rdf:about="">
        <dc:format>image/svg+xml</dc:format>
        <dc:type
           rdf:resource="http://purl.org/dc/dcmitype/StillImage" />
        <dc:title></dc:title>
      </cc:Work>
    </rdf:RDF>
  </metadata>
  <sodipodi:namedview
     inkscape:window-height="618"
     inkscape:window-width="691"
     inkscape:pageshadow="2"
     inkscape:pageopacity="0.0"
     borderopacity="1.0"
     bordercolor="#666666"
     pagecolor="#ffffff"
     id="base"
     showgrid="false"
     showguides="true"
     inkscape:guide-bbox="true"
     inkscape:zoom="0.28468736"
     inkscape:cx="311.02297"
     inkscape:cy="564.48876"
     inkscape:window-x="6"
     inkscape:window-y="128"
     inkscape:current-layer="svg5496"
     inkscape:window-maximized="0">
    <sodipodi:guide
       orientation="horizontal"
       position="200"
       id="guide5596" />
  </sodipodi:namedview>
  <defs
     id="defs5498" />
  <path
     style="fill:#4d4d4d;fill-opacity:1;stroke:#f9f9f9;stroke-width:0.1;stroke-miterlimit:4;stroke-dasharray:none"
     d="m 430.375,87.25 c -15.87122,-0.180765 -34.569,4.323106 -54.65625,7.375 -71.027,12.16737 -141.95125,25.03968 -212.40625,40.21875 -54.143,12.03111 -109.3815,23.33848 -159.5625,47.8125 -13.843424,8.08583 14.301651,62.35702 34.65625,77.625 -20.057083,3.115 -37.58337034,9.82212 -36.6875,18.5 7.754,67.86868 9.49525,136.27172 11.40625,204.5 2.108,93.08414 1.969,186.20636 4.5,279.28125 4.302,33.56679 -1.70025,85.21845 10.96875,117.15625 2.658,6.70155 6.69025,12.76769 10.03125,19.15625 6.008359,8.22316 28.77388,-2.27408 48,-16.625 1.614512,1.69587 3.43515,2.64337 5.4375,2.625 49.094,-3.34329 97.9225,-9.60748 146.8125,-15.0625 73.781,-8.94004 147.92575,-13.35953 222.21875,-11.90625 32.124,0.68263 63.993,4.20231 95.5,10.3125 19.194,3.40636 35.2555,-87.0624 16.0625,-90.46875 -36.497,-6.00711 -73.2745,-9.71775 -110.3125,-10 -77.834,-0.67468 -155.496,3.96944 -232.875,12.46875 -40.03029,3.93253 -80.08024,8.58634 -120.28125,10.375 -0.66294,-10.40083 -1.20394,-20.80172 -1.84375,-31.1875 -2.12483,-48.95697 -3.23022,-97.94862 -4.03125,-146.9375 3.25957,2.08031 6.28431,2.73846 8.84375,1.5 39.753,-19.33958 82.5705,-31.26816 125.1875,-42.40625 42.272,-9.12802 85.02775,-20.80862 128.59375,-20.53125 19.628,-0.53496 17.09675,-93.06622 -2.53125,-92.53125 -50.445,2.42519 -99.866,13.59835 -148.875,25.25 -37.9394,9.79685 -75.80251,20.30587 -112.5625,33.90625 C 101.80516,505.51201 101.6245,493.39384 101.4375,481.25 100.1485,410.54342 98.765,339.79712 94.625,269.1875 93.826198,261.44988 78.975853,258.27042 61.40625,258.40625 c 38.59561,-17.52713 80.82839,-26.25351 121.90625,-35.875 68.395,-15.54159 137.49775,-27.64678 206.84375,-38.03125 7.34068,-0.96523 16.76312,-2.36325 25.59375,-3.3125 0.1561,0.0453 0.17592,0.0717 0.53125,0.15625 0.8812,0.20981 1.8012,-0.0492 2.6875,0 0.7809,0.0434 1.44754,0.50005 2.28125,0.375 0.68548,-0.10282 1.38325,-0.18957 2.0625,-0.25 6.36777,6.72666 12.46092,10.28701 16.875,7.9375 5.234,-2.80382 10.48375,-5.60243 15.71875,-8.40625 7.809,-8.49308 24.2645,-13.96061 23.4375,-25.46875 C 475.41188,100.87443 456.82704,87.551276 430.375,87.25 z"
     id="path4556"
     inkscape:connector-curvature="0"
     sodipodi:nodetypes="sccccccccccccccccccccccccccccccccscsccccs" />
</svg>
