<?xml version="1.0" encoding="UTF-8" standalone="no"?>
<!-- Created with Inkscape (http://www.inkscape.org/) -->

<svg
   xmlns:dc="http://purl.org/dc/elements/1.1/"
   xmlns:cc="http://creativecommons.org/ns#"
   xmlns:rdf="http://www.w3.org/1999/02/22-rdf-syntax-ns#"
   xmlns:svg="http://www.w3.org/2000/svg"
   xmlns="http://www.w3.org/2000/svg"
   xmlns:sodipodi="http://sodipodi.sourceforge.net/DTD/sodipodi-0.dtd"
   xmlns:inkscape="http://www.inkscape.org/namespaces/inkscape"
   version="1.0"
   width="1000"
   height="1000"
   id="svg5496"
   sodipodi:version="0.32"
   inkscape:version="0.48.0 r9654"
   sodipodi:docname="em.svg"
   inkscape:output_extension="org.inkscape.output.svg.inkscape">
  <metadata
     id="metadata5594">
    <rdf:RDF>
      <cc:Work
         rdf:about="">
        <dc:format>image/svg+xml</dc:format>
        <dc:type
           rdf:resource="http://purl.org/dc/dcmitype/StillImage" />
        <dc:title></dc:title>
      </cc:Work>
    </rdf:RDF>
  </metadata>
  <sodipodi:namedview
     inkscape:window-height="618"
     inkscape:window-width="641"
     inkscape:pageshadow="2"
     inkscape:pageopacity="0.0"
     borderopacity="1.0"
     bordercolor="#666666"
     pagecolor="#ffffff"
     id="base"
     showgrid="false"
     showguides="true"
     inkscape:guide-bbox="true"
     inkscape:zoom="0.454"
     inkscape:cx="500"
     inkscape:cy="500"
     inkscape:window-x="597"
     inkscape:window-y="65"
     inkscape:current-layer="svg5496"
     inkscape:window-maximized="0">
    <sodipodi:guide
       orientation="horizontal"
       position="200"
       id="guide5596" />
  </sodipodi:namedview>
  <defs
     id="defs5498" />
  <path
     style="fill:#4d4d4d;fill-opacity:1;stroke:#f9f9f9;stroke-width:0.1;stroke-miterlimit:4;stroke-dasharray:none"
     id="path3894"
     d="M 4.5882405,562.84235 C 49.74124,544.43078 98.65124,539.74428 146.72824,535.1345 c 97.782,-6.08231 195.592,-11.71875 293.373,-17.85412 117.555,-7.26544 235.278,-11.07393 353.02,-13.48605 85.16,-1.22355 170.326,-1.49283 255.45596,-4.2411 30.109,-1.19855 60.202,-2.70323 90.315,-3.81399 19.575,-0.47675 21.823,91.80324 2.247,92.27999 l 0,0 c -30.136,0.34167 -60.257,1.20548 -90.386,1.91959 -85.35396,1.36883 -170.71296,0.7875 -256.07196,1.479 -116.374,1.75498 -232.735,5.25384 -348.882,13.0175 -96.613,6.57104 -193.251,12.95058 -289.784,20.60394 -37.501,4.18305 -76.24,7.49879 -111.313,22.48876 -17.965,8.50952 -58.079,-76.17615 -40.1139995,-84.68567 z"
     inkscape:connector-curvature="0" />
</svg>
