<?xml version="1.0" encoding="UTF-8" standalone="no"?>
<!-- Created with Inkscape (http://www.inkscape.org/) -->

<svg
   xmlns:dc="http://purl.org/dc/elements/1.1/"
   xmlns:cc="http://creativecommons.org/ns#"
   xmlns:rdf="http://www.w3.org/1999/02/22-rdf-syntax-ns#"
   xmlns:svg="http://www.w3.org/2000/svg"
   xmlns="http://www.w3.org/2000/svg"
   xmlns:sodipodi="http://sodipodi.sourceforge.net/DTD/sodipodi-0.dtd"
   xmlns:inkscape="http://www.inkscape.org/namespaces/inkscape"
   version="1.0"
   width="1000"
   height="1000"
   id="svg5496"
   sodipodi:version="0.32"
   inkscape:version="0.48.0 r9654"
   sodipodi:docname="O.svg"
   inkscape:output_extension="org.inkscape.output.svg.inkscape">
  <metadata
     id="metadata5594">
    <rdf:RDF>
      <cc:Work
         rdf:about="">
        <dc:format>image/svg+xml</dc:format>
        <dc:type
           rdf:resource="http://purl.org/dc/dcmitype/StillImage" />
        <dc:title></dc:title>
      </cc:Work>
    </rdf:RDF>
  </metadata>
  <sodipodi:namedview
     inkscape:window-height="618"
     inkscape:window-width="691"
     inkscape:pageshadow="2"
     inkscape:pageopacity="0.0"
     borderopacity="1.0"
     bordercolor="#666666"
     pagecolor="#ffffff"
     id="base"
     showgrid="false"
     showguides="true"
     inkscape:guide-bbox="true"
     inkscape:zoom="0.16612489"
     inkscape:cx="668.9296"
     inkscape:cy="412.04944"
     inkscape:window-x="6"
     inkscape:window-y="128"
     inkscape:current-layer="svg5496"
     inkscape:window-maximized="0">
    <sodipodi:guide
       orientation="horizontal"
       position="200"
       id="guide5596" />
  </sodipodi:namedview>
  <defs
     id="defs5498" />
  <path
     style="fill:#4d4d4d;fill-opacity:1;stroke:#f9f9f9;stroke-width:0.1;stroke-miterlimit:4;stroke-dasharray:none"
     d="M 29.96875 171.5625 C 11.964175 172.51249 -7.6254168 250.65994 7 261.59375 C 10.021868 301.16199 8.9106764 341.06654 8.4375 380.6875 C 7.1115 461.40671 3.5285 542.06342 1.0625 622.75 C -0.28349996 675.97384 -0.43749996 729.23351 1.6875 782.4375 C 1.6265 801.11958 5.2669996 818.2197 12 835.46875 C 20.455565 852.32796 96.208675 815.46468 96.5625 796.40625 C 96.381332 795.64724 96.163406 794.65875 95.9375 793.65625 C 96.237739 794.87801 96.383869 795.47109 96.5625 796.21875 C 96.554954 795.22963 96.316625 794.28669 95.875 793.40625 C 94.518782 787.35349 92.722379 778.23663 93.875 777.53125 C 90.445 726.81748 89.9525 675.96757 90.8125 625.15625 C 91.362852 601.41339 92.044818 577.67483 92.78125 553.9375 C 96.064999 559.18838 99.747255 562.17736 103.5625 561.53125 C 145.6135 554.38547 188.03125 549.69943 230.40625 544.9375 C 281.89325 539.15102 333.58525 535.16199 385.40625 534.875 C 397.17925 534.91366 408.89425 535.59028 420.53125 537.3125 C 440.17825 539.43799 450.17825 446.81299 430.53125 444.6875 C 415.00625 443.36509 399.471 442.59839 383.875 443.03125 C 329.306 444.46989 274.899 448.8305 220.625 454.625 C 178.91022 458.98544 137.21724 463.46865 95.5625 468.375 C 96.506593 439.67887 97.427852 410.98313 98.1875 382.28125 C 99.029745 346.47343 100.17113 310.55829 99.40625 274.71875 C 115.46123 275.96492 131.55398 276.88592 147.625 277.71875 C 221.277 280.38945 295.0145 278.75407 368.6875 278.0625 C 395.2835 277.96758 421.87575 277.54577 448.46875 278.1875 C 459.19775 278.44641 471.20475 278.04761 481.71875 280.875 C 501.30075 283.79262 515.04975 191.48011 495.46875 188.5625 C 452.99375 183.85887 410.0465 188.16341 367.4375 187.875 C 295.9215 189.14184 224.32475 190.78128 152.84375 187.34375 C 112.24175 184.72861 71.34325 181.8705 31.78125 171.75 C 31.178594 171.60072 30.576348 171.53044 29.96875 171.5625 z M 96.5625 796.21875 C 96.562976 796.28115 96.563666 796.34346 96.5625 796.40625 C 97.1854 799.01593 97.322184 799.39842 96.5625 796.21875 z "
     id="path4410" />
</svg>
