<?xml version="1.0" encoding="UTF-8" standalone="no"?>
<!-- Created with Inkscape (http://www.inkscape.org/) -->

<svg
   xmlns:dc="http://purl.org/dc/elements/1.1/"
   xmlns:cc="http://creativecommons.org/ns#"
   xmlns:rdf="http://www.w3.org/1999/02/22-rdf-syntax-ns#"
   xmlns:svg="http://www.w3.org/2000/svg"
   xmlns="http://www.w3.org/2000/svg"
   xmlns:sodipodi="http://sodipodi.sourceforge.net/DTD/sodipodi-0.dtd"
   xmlns:inkscape="http://www.inkscape.org/namespaces/inkscape"
   version="1.0"
   width="1000"
   height="1000"
   id="svg5496"
   sodipodi:version="0.32"
   inkscape:version="0.48.0 r9654"
   sodipodi:docname="infinity.svg"
   inkscape:output_extension="org.inkscape.output.svg.inkscape">
  <metadata
     id="metadata5594">
    <rdf:RDF>
      <cc:Work
         rdf:about="">
        <dc:format>image/svg+xml</dc:format>
        <dc:type
           rdf:resource="http://purl.org/dc/dcmitype/StillImage" />
        <dc:title></dc:title>
      </cc:Work>
    </rdf:RDF>
  </metadata>
  <sodipodi:namedview
     inkscape:window-height="618"
     inkscape:window-width="641"
     inkscape:pageshadow="2"
     inkscape:pageopacity="0.0"
     borderopacity="1.0"
     bordercolor="#666666"
     pagecolor="#ffffff"
     id="base"
     showgrid="false"
     showguides="true"
     inkscape:guide-bbox="true"
     inkscape:zoom="0.454"
     inkscape:cx="434.5141"
     inkscape:cy="480.37808"
     inkscape:window-x="636"
     inkscape:window-y="103"
     inkscape:current-layer="svg5496"
     inkscape:window-maximized="0">
    <sodipodi:guide
       orientation="horizontal"
       position="200"
       id="guide5596" />
  </sodipodi:namedview>
  <defs
     id="defs5498" />
  <path
     style="fill:#4d4d4d;fill-opacity:1;stroke:#f9f9f9;stroke-width:0.1;stroke-miterlimit:4;stroke-dasharray:none"
     id="path5007"
     d="m 424.0904,192.40854 c -7.52,-9.25222 -17.66,-15.47694 -28.5,-20.08861 -9.27,-3.45405 -18.8,-3.48086 -28.32,-1.32965 -10.43,3.21993 -18.11,10.62223 -24.55,19.11015 -10.59,16.97187 -13.63,37.06529 -16.63,56.4803 -4.76,32.86162 -1.83,65.9318 1.35,98.7619 5.39,43.5859 7.73,87.38872 8.06,131.27884 0,54.39824 -6.85,108.40317 -14.87,162.10045 -7.84,51.68337 -20.7,102.31783 -35.87,152.274 -10.91,36.08013 -25.6,70.64637 -45.73,102.50492 -16.14,24.80519 -38.44,42.70562 -64.47,56.09611 -28.56,13.12025 -58.19,12.07974 -87.99,4.76698 -34.44,-9.77551 -59.23,-31.25522 -78.3099997,-60.80367 -2.6,-6.11729 -5.19,-12.23459 -7.77999995,-18.35188 C -6.6595997,856.83481 79.9604,823.22331 87.0904,841.59688 l 0,0 c 0.34,1.44071 0.67,2.88142 1.01,4.32213 3.51,9.97253 12.73,14.83508 22.23,18.35201 7.55,2.42754 15.2,4.18801 22.99,1.68531 11.42,-4.92677 20.63,-12.72676 27.82,-22.93677 16.32,-24.18296 27.03,-51.33946 36,-79.00811 14.21,-45.45589 26.25,-91.56887 33.45,-138.71467 7.29,-48.98753 13.48,-98.25696 13.35,-147.88358 -0.42,-41.18597 -2.95,-82.25716 -8.1,-123.14225 -3.97,-40.5283 -6.92,-81.34293 -1.03,-121.88171 5.66,-36.2547 13.73,-72.30805 36.65,-102.01861 21.67,-24.94911 47.18,-44.579387 80.31,-51.320153 28.33,-4.273941 56.27,-3.056744 82.9,8.673663 23.15,11.059001 44.61,24.97177 61.47,44.64715 12.73,15.28299 -59.31,75.32024 -72.05,60.03725 z"
     inkscape:connector-curvature="0" />
</svg>
