<?xml version="1.0" encoding="UTF-8" standalone="no"?>
<!-- Created with Inkscape (http://www.inkscape.org/) -->

<svg
   xmlns:dc="http://purl.org/dc/elements/1.1/"
   xmlns:cc="http://creativecommons.org/ns#"
   xmlns:rdf="http://www.w3.org/1999/02/22-rdf-syntax-ns#"
   xmlns:svg="http://www.w3.org/2000/svg"
   xmlns="http://www.w3.org/2000/svg"
   xmlns:sodipodi="http://sodipodi.sourceforge.net/DTD/sodipodi-0.dtd"
   xmlns:inkscape="http://www.inkscape.org/namespaces/inkscape"
   version="1.0"
   width="1000"
   height="1000"
   id="svg5496"
   sodipodi:version="0.32"
   inkscape:version="0.48.0 r9654"
   sodipodi:docname="semicolon.svg"
   inkscape:output_extension="org.inkscape.output.svg.inkscape">
  <metadata
     id="metadata5594">
    <rdf:RDF>
      <cc:Work
         rdf:about="">
        <dc:format>image/svg+xml</dc:format>
        <dc:type
           rdf:resource="http://purl.org/dc/dcmitype/StillImage" />
        <dc:title></dc:title>
      </cc:Work>
    </rdf:RDF>
  </metadata>
  <sodipodi:namedview
     inkscape:window-height="618"
     inkscape:window-width="691"
     inkscape:pageshadow="2"
     inkscape:pageopacity="0.0"
     borderopacity="1.0"
     bordercolor="#666666"
     pagecolor="#ffffff"
     id="base"
     showgrid="false"
     showguides="true"
     inkscape:guide-bbox="true"
     inkscape:zoom="2.6579982"
     inkscape:cx="72.635153"
     inkscape:cy="284.91976"
     inkscape:window-x="92"
     inkscape:window-y="25"
     inkscape:current-layer="svg5496"
     inkscape:window-maximized="0">
    <sodipodi:guide
       orientation="horizontal"
       position="200"
       id="guide5596" />
  </sodipodi:namedview>
  <defs
     id="defs5498" />
  <path
     style="fill:#4d4d4d;fill-opacity:1;stroke:#f9f9f9;stroke-width:0.1;stroke-miterlimit:4;stroke-dasharray:none"
     d="m 258.6875,396.0625 c -2.12276,0.0937 -3.85778,0.7603 -5.125,2.125 -28.57,31.70529 -58.6585,62.0322 -88.3125,92.71875 -37.448,38.61112 -73.564,78.46222 -109.75,118.25 -15.058,20.21799 -39.73525,35.74644 -49.40625,59.90625 -2.812,7.0228 -4.01925,14.58271 -6.03125,21.875 1.099,8.86824 0.6425,18.06586 3.3125,26.59375 10.517,33.58293 48.839,56.41649 75.25,76.09375 44.337,32.58672 90.477,62.56359 137,91.90625 29.919,19.64998 62.4075,36.4901 88.5625,61.28125 0.852,1.2219 1.68025,2.43436 2.53125,3.65625 13.049,14.84231 83.01575,-46.65769 69.96875,-61.5 -3.599,-3.84124 -7.18225,-7.69 -10.78125,-11.53125 -31.253,-26.80943 -66.77175,-47.65268 -101.84375,-69.03125 -44.407,-27.75012 -88.353,-56.30745 -130.125,-87.9375 C 121.2285,710.7017 116.265,707.15298 104.5,697.25 c -1.03631,-0.87209 -1.9079,-1.62307 -2.84375,-2.4375 7.61709,-8.00274 15.93529,-15.55832 22.125,-24.4375 34.803,-39.36605 69.80575,-78.55605 106.59375,-116.09375 30.385,-31.00405 61.03125,-61.73429 91.78125,-92.375 12.24978,-13.19205 -42.94874,-66.75 -63.46875,-65.84375 z"
     id="path3998"
     inkscape:connector-curvature="0"
     sodipodi:nodetypes="scccccccccccccccccscs" />
</svg>
