<?xml version="1.0" encoding="UTF-8" standalone="no"?>
<!-- Created with Inkscape (http://www.inkscape.org/) -->

<svg
   xmlns:dc="http://purl.org/dc/elements/1.1/"
   xmlns:cc="http://creativecommons.org/ns#"
   xmlns:rdf="http://www.w3.org/1999/02/22-rdf-syntax-ns#"
   xmlns:svg="http://www.w3.org/2000/svg"
   xmlns="http://www.w3.org/2000/svg"
   xmlns:sodipodi="http://sodipodi.sourceforge.net/DTD/sodipodi-0.dtd"
   xmlns:inkscape="http://www.inkscape.org/namespaces/inkscape"
   version="1.0"
   width="1000"
   height="1000"
   id="svg5496"
   sodipodi:version="0.32"
   inkscape:version="0.48.0 r9654"
   sodipodi:docname="divide.svg"
   inkscape:output_extension="org.inkscape.output.svg.inkscape">
  <metadata
     id="metadata5594">
    <rdf:RDF>
      <cc:Work
         rdf:about="">
        <dc:format>image/svg+xml</dc:format>
        <dc:type
           rdf:resource="http://purl.org/dc/dcmitype/StillImage" />
        <dc:title></dc:title>
      </cc:Work>
    </rdf:RDF>
  </metadata>
  <sodipodi:namedview
     inkscape:window-height="618"
     inkscape:window-width="641"
     inkscape:pageshadow="2"
     inkscape:pageopacity="0.0"
     borderopacity="1.0"
     bordercolor="#666666"
     pagecolor="#ffffff"
     id="base"
     showgrid="false"
     showguides="true"
     inkscape:guide-bbox="true"
     inkscape:zoom="0.454"
     inkscape:cx="500"
     inkscape:cy="500"
     inkscape:window-x="597"
     inkscape:window-y="65"
     inkscape:current-layer="svg5496"
     inkscape:window-maximized="0">
    <sodipodi:guide
       orientation="horizontal"
       position="200"
       id="guide5596" />
  </sodipodi:namedview>
  <defs
     id="defs5498" />
  <path
     style="fill:#4d4d4d;fill-opacity:1;stroke:#f9f9f9;stroke-width:0.1;stroke-miterlimit:4;stroke-dasharray:none"
     id="path3870"
     d="m 99.8505,593.91318 c -5.136,4.59084 -10.428,9.03588 -15.314,13.90037 -0.76,0.75607 -3.091,2.90661 -2.154,2.38692 9.775,-5.42055 8.292,-20.78899 11.54,-31.48427 -9.421,-13.19388 -18.841,-26.38776 -28.263,-39.58164 -2.851,-0.7944 -6.517,-0.2364 -8.555,-2.38318 -1.373,-1.44563 3.981,-0.20465 5.972,-0.33858 4.321,-0.29093 8.638,-0.63186 12.958,-0.93595 23.005,-1.61933 16.587,-1.16457 41.78,-2.68535 70.063,-3.29044 140.189,-4.9736 210.283,-7.46197 75.444,-3.02718 150.907,-5.49407 226.367,-8.06333 9.303,-0.32463 18.606,-0.64926 27.909,-0.97389 19.293,-0.51186 21.706,90.43451 2.414,90.94636 l 0,0 c -9.274,0.16823 -18.547,0.33646 -27.82,0.50468 -75.189,1.59909 -150.37,3.64166 -225.507,6.92365 -69.047,2.74644 -138.146,4.87125 -207.097,9.51042 -13.153,1.09824 -80.488,11.32837 -90.163,3.55379 -13.997,-11.24685 -22.759,-27.77887 -34.138,-41.66831 2.801,-10.9441 4.472,-22.24101 8.402,-32.83229 4.504,-12.13778 20.754,-18.66667 28.193,-28.62587 14.704,-13.40526 77.896,55.90318 63.193,69.30844 z"
     inkscape:connector-curvature="0" />
</svg>
