<?xml version="1.0" encoding="UTF-8" standalone="no"?>
<!-- Created with Inkscape (http://www.inkscape.org/) -->

<svg
   xmlns:dc="http://purl.org/dc/elements/1.1/"
   xmlns:cc="http://creativecommons.org/ns#"
   xmlns:rdf="http://www.w3.org/1999/02/22-rdf-syntax-ns#"
   xmlns:svg="http://www.w3.org/2000/svg"
   xmlns="http://www.w3.org/2000/svg"
   xmlns:sodipodi="http://sodipodi.sourceforge.net/DTD/sodipodi-0.dtd"
   xmlns:inkscape="http://www.inkscape.org/namespaces/inkscape"
   version="1.0"
   width="1000"
   height="1000"
   id="svg5496"
   sodipodi:version="0.32"
   inkscape:version="0.48.0 r9654"
   sodipodi:docname="less)than.svg"
   inkscape:output_extension="org.inkscape.output.svg.inkscape">
  <metadata
     id="metadata5594">
    <rdf:RDF>
      <cc:Work
         rdf:about="">
        <dc:format>image/svg+xml</dc:format>
        <dc:type
           rdf:resource="http://purl.org/dc/dcmitype/StillImage" />
        <dc:title></dc:title>
      </cc:Work>
    </rdf:RDF>
  </metadata>
  <sodipodi:namedview
     inkscape:window-height="618"
     inkscape:window-width="691"
     inkscape:pageshadow="2"
     inkscape:pageopacity="0.0"
     borderopacity="1.0"
     bordercolor="#666666"
     pagecolor="#ffffff"
     id="base"
     showgrid="false"
     showguides="true"
     inkscape:guide-bbox="true"
     inkscape:zoom="0.33224977"
     inkscape:cx="122.56242"
     inkscape:cy="517.34715"
     inkscape:window-x="92"
     inkscape:window-y="25"
     inkscape:current-layer="svg5496"
     inkscape:window-maximized="0">
    <sodipodi:guide
       orientation="horizontal"
       position="200"
       id="guide5596" />
  </sodipodi:namedview>
  <defs
     id="defs5498" />
  <path
     style="fill:#4d4d4d;fill-opacity:1;stroke:#f9f9f9;stroke-width:0.1;stroke-miterlimit:4;stroke-dasharray:none"
     id="path4000"
     d="m 53378.313,408.31195 c 25.784,23.20431 50.701,47.33426 76.434,70.59489 36.039,31.90332 74.401,61.00672 111.12,92.10128 35.279,29.93686 62.821,62.26745 79.17,105.73908 12.984,58.0733 -16.842,92.34833 -57.916,128.08963 -45.306,34.67082 -93.616,65.16382 -140.589,97.49594 -29.92,21.32799 -60.137,42.39988 -88.622,65.64668 -15.519,12.18584 -72.963,-60.97043 -57.444,-73.15627 l 0,0 c 30.839,-23.47402 62.931,-45.27187 94.67,-67.49555 44.226,-30.17253 89.409,-59.09847 131.84,-91.78993 8.936,-7.72528 23.95,-19.58861 30.238,-29.08746 -5.915,-27.60229 -31.921,-46.82873 -50.634,-65.78578 -37.167,-31.81004 -76.294,-61.23129 -113.096,-93.4801 -24.986,-22.26428 -49.116,-45.52471 -74.96,-66.79808 -15.289,-12.68315 44.5,-84.75748 59.789,-72.07433 z"
     inkscape:connector-curvature="0" />
  <path
     style="fill:#4d4d4d;fill-opacity:1;stroke:#f9f9f9;stroke-width:0.1;stroke-miterlimit:4;stroke-dasharray:none"
     id="path4000-0"
     d="m 80.544308,408.31195 c 25.784002,23.20431 50.701002,47.33426 76.434002,70.59489 36.039,31.90332 74.401,61.00672 111.12,92.10128 35.279,29.93686 62.821,62.26745 79.17,105.73908 12.984,58.0733 -16.842,92.34833 -57.916,128.08963 -45.306,34.67082 -93.616,65.16382 -140.589,97.49594 -29.92,21.32799 -60.137002,42.39988 -88.622002,65.64668 -15.519,12.18584 -72.963,-60.97043 -57.4440002,-73.15627 l 0,0 C 33.536308,871.34916 65.628308,849.55131 97.367308,827.32763 141.59331,797.1551 186.77631,768.22916 229.20731,735.5377 c 8.936,-7.72528 23.95,-19.58861 30.238,-29.08746 -5.915,-27.60229 -31.921,-46.82873 -50.634,-65.78578 -37.167,-31.81004 -76.294,-61.23129 -113.096002,-93.4801 -24.986,-22.26428 -49.116,-45.52471 -74.96,-66.79808 -15.2890002,-12.68315 44.5,-84.75748 59.789,-72.07433 z"
     inkscape:connector-curvature="0" />
</svg>
