<?xml version="1.0" encoding="UTF-8" standalone="no"?>
<!-- Created with Inkscape (http://www.inkscape.org/) -->

<svg
   xmlns:dc="http://purl.org/dc/elements/1.1/"
   xmlns:cc="http://creativecommons.org/ns#"
   xmlns:rdf="http://www.w3.org/1999/02/22-rdf-syntax-ns#"
   xmlns:svg="http://www.w3.org/2000/svg"
   xmlns="http://www.w3.org/2000/svg"
   xmlns:sodipodi="http://sodipodi.sourceforge.net/DTD/sodipodi-0.dtd"
   xmlns:inkscape="http://www.inkscape.org/namespaces/inkscape"
   version="1.0"
   width="1000"
   height="1000"
   id="svg5496"
   sodipodi:version="0.32"
   inkscape:version="0.48.0 r9654"
   sodipodi:docname="pipe.svg"
   inkscape:output_extension="org.inkscape.output.svg.inkscape">
  <metadata
     id="metadata5594">
    <rdf:RDF>
      <cc:Work
         rdf:about="">
        <dc:format>image/svg+xml</dc:format>
        <dc:type
           rdf:resource="http://purl.org/dc/dcmitype/StillImage" />
        <dc:title></dc:title>
      </cc:Work>
    </rdf:RDF>
  </metadata>
  <sodipodi:namedview
     inkscape:window-height="618"
     inkscape:window-width="691"
     inkscape:pageshadow="2"
     inkscape:pageopacity="0.0"
     borderopacity="1.0"
     bordercolor="#666666"
     pagecolor="#ffffff"
     id="base"
     showgrid="false"
     showguides="true"
     inkscape:guide-bbox="true"
     inkscape:zoom="0.33224977"
     inkscape:cx="300.23671"
     inkscape:cy="469.28349"
     inkscape:window-x="92"
     inkscape:window-y="25"
     inkscape:current-layer="svg5496"
     inkscape:window-maximized="0">
    <sodipodi:guide
       orientation="horizontal"
       position="200"
       id="guide5596" />
  </sodipodi:namedview>
  <defs
     id="defs5498" />
  <path
     style="fill:#4d4d4d;fill-opacity:1;stroke:#f9f9f9;stroke-width:0.1;stroke-miterlimit:4;stroke-dasharray:none"
     id="path3964"
     d="m 86.118007,82.045076 c 18.764003,47.644704 37.167003,95.417134 56.537003,142.822564 35.073,83.24254 74.295,164.64518 112.484,246.48177 35.377,76.37794 69.532,153.31825 106.471,228.96111 18.617,36.20414 36.836,72.98961 60.789,106.05009 11.181,16.20859 -65.227,68.91689 -76.408,52.7083 l 0,0 c -25.264,-37.95845 -45.804,-78.76083 -65.648,-119.75041 -36.065,-76.4141 -69.858,-153.86328 -105.396,-230.52202 C 136.18101,425.83754 96.228007,343.40706 59.777007,259.38964 40.089007,212.9939 21.536007,166.08341 0.60300709,120.23611 -7.4979929,102.0957 78.017007,63.904668 86.118007,82.045076 z"
     inkscape:connector-curvature="0" />
</svg>
