<?xml version="1.0" encoding="UTF-8" standalone="no"?>
<!-- Created with Inkscape (http://www.inkscape.org/) -->

<svg
   xmlns:dc="http://purl.org/dc/elements/1.1/"
   xmlns:cc="http://creativecommons.org/ns#"
   xmlns:rdf="http://www.w3.org/1999/02/22-rdf-syntax-ns#"
   xmlns:svg="http://www.w3.org/2000/svg"
   xmlns="http://www.w3.org/2000/svg"
   xmlns:sodipodi="http://sodipodi.sourceforge.net/DTD/sodipodi-0.dtd"
   xmlns:inkscape="http://www.inkscape.org/namespaces/inkscape"
   version="1.0"
   width="1000"
   height="1000"
   id="svg5496"
   sodipodi:version="0.32"
   inkscape:version="0.48.0 r9654"
   sodipodi:docname="colon.svg"
   inkscape:output_extension="org.inkscape.output.svg.inkscape">
  <metadata
     id="metadata5594">
    <rdf:RDF>
      <cc:Work
         rdf:about="">
        <dc:format>image/svg+xml</dc:format>
        <dc:type
           rdf:resource="http://purl.org/dc/dcmitype/StillImage" />
        <dc:title></dc:title>
      </cc:Work>
    </rdf:RDF>
  </metadata>
  <sodipodi:namedview
     inkscape:window-height="618"
     inkscape:window-width="691"
     inkscape:pageshadow="2"
     inkscape:pageopacity="0.0"
     borderopacity="1.0"
     bordercolor="#666666"
     pagecolor="#ffffff"
     id="base"
     showgrid="false"
     showguides="true"
     inkscape:guide-bbox="true"
     inkscape:zoom="0.33224977"
     inkscape:cx="300.23671"
     inkscape:cy="469.28349"
     inkscape:window-x="92"
     inkscape:window-y="25"
     inkscape:current-layer="svg5496"
     inkscape:window-maximized="0">
    <sodipodi:guide
       orientation="horizontal"
       position="200"
       id="guide5596" />
  </sodipodi:namedview>
  <defs
     id="defs5498" />
  <path
     style="fill:#4d4d4d;fill-opacity:1;stroke:#f9f9f9;stroke-width:0.1;stroke-miterlimit:4;stroke-dasharray:none"
     id="path3982"
     d="m 99.986016,336.63026 c 10.122004,19.87346 24.140004,37.38942 37.387004,55.21695 3.078,4.25925 6.155,8.51849 9.232,12.77774 11.516,15.89991 -63.436004,70.18677 -74.952004,54.28686 l 0,0 c -2.824,-3.88868 -5.649,-7.77735 -8.473,-11.66603 -16.737,-22.30908 -33.884,-44.45958 -47.196,-69.06658 -8.8129997,-17.81933 75.188,-59.36827 84.002,-41.54894 z"
     inkscape:connector-curvature="0" />
  <path
     style="fill:#4d4d4d;fill-opacity:1;stroke:#f9f9f9;stroke-width:0.1;stroke-miterlimit:4;stroke-dasharray:none"
     id="path3984"
     d="m 134.93702,740.54242 c -11.006,38.2039 -24.754,75.4815 -39.307004,112.45027 -3.618,8.79666 -7.235,17.59332 -10.853,26.38999 -7.28,17.87619 -91.5499997,-16.44386 -84.26899975,-34.32005 l 0,0 C 3.8760163,836.70674 7.2440163,828.35084 10.612016,819.99494 c 13.075,-34.21485 25.65,-68.72366 34.085,-104.42966 5.299,-19.14279 95.539004,5.83435 90.240004,24.97714 z"
     inkscape:connector-curvature="0" />
</svg>
