<?xml version="1.0" encoding="UTF-8" standalone="no"?>
<!-- Created with Inkscape (http://www.inkscape.org/) -->

<svg
   xmlns:dc="http://purl.org/dc/elements/1.1/"
   xmlns:cc="http://creativecommons.org/ns#"
   xmlns:rdf="http://www.w3.org/1999/02/22-rdf-syntax-ns#"
   xmlns:svg="http://www.w3.org/2000/svg"
   xmlns="http://www.w3.org/2000/svg"
   xmlns:sodipodi="http://sodipodi.sourceforge.net/DTD/sodipodi-0.dtd"
   xmlns:inkscape="http://www.inkscape.org/namespaces/inkscape"
   version="1.0"
   width="1000"
   height="1000"
   id="svg5496"
   sodipodi:version="0.32"
   inkscape:version="0.48.0 r9654"
   sodipodi:docname="sickle_hammer.svg"
   inkscape:output_extension="org.inkscape.output.svg.inkscape">
  <metadata
     id="metadata5594">
    <rdf:RDF>
      <cc:Work
         rdf:about="">
        <dc:format>image/svg+xml</dc:format>
        <dc:type
           rdf:resource="http://purl.org/dc/dcmitype/StillImage" />
        <dc:title></dc:title>
      </cc:Work>
    </rdf:RDF>
  </metadata>
  <sodipodi:namedview
     inkscape:window-height="618"
     inkscape:window-width="641"
     inkscape:pageshadow="2"
     inkscape:pageopacity="0.0"
     borderopacity="1.0"
     bordercolor="#666666"
     pagecolor="#ffffff"
     id="base"
     showgrid="false"
     showguides="true"
     inkscape:guide-bbox="true"
     inkscape:zoom="0.454"
     inkscape:cx="434.5141"
     inkscape:cy="480.37808"
     inkscape:window-x="597"
     inkscape:window-y="65"
     inkscape:current-layer="svg5496"
     inkscape:window-maximized="0">
    <sodipodi:guide
       orientation="horizontal"
       position="200"
       id="guide5596" />
  </sodipodi:namedview>
  <defs
     id="defs5498" />
  <path
     style="fill:#4d4d4d;fill-opacity:1;stroke:#f9f9f9;stroke-width:0.1;stroke-miterlimit:4;stroke-dasharray:none"
     d="M 500.625 107.9375 C 488.22955 107.86575 475.72625 109.61674 463.15625 113.8125 C 444.50625 120.72822 477.13125 208.66571 495.78125 201.75 C 507.10125 198.57528 518.045 202.69536 528.375 207.125 C 554.715 221.28174 569.63375 246.78274 582.84375 272.5 C 602.72375 314.93693 610.64875 360.59392 609.96875 407.125 C 607.37875 448.47466 591.73125 471.72814 559.53125 495.90625 C 552.36286 500.50313 544.99846 504.68241 537.5 508.5 C 511.45273 481.56068 485.20655 454.79703 458.6875 428.3125 C 426.04663 394.17281 393.39138 359.79011 365.625 321.5 C 377.13014 308.88044 388.99554 296.60196 401.59375 285.0625 C 405.28306 281.51369 403.67312 274.40666 399.0625 266.03125 C 413.16166 242.46054 423.88589 208.49512 412.8125 203.3125 C 409.21438 201.9697 405.68503 200.65624 402.125 199.5 C 401.76985 186.42934 398.94072 176.4282 392.71875 175.5 C 387.96875 174.83059 383.21875 174.1694 378.46875 173.5 C 360.93976 172.16243 343.37287 171.8604 325.84375 172.78125 C 317.1578 168.43114 309.85081 167.08891 306.4375 170.96875 C 305.39996 172.20634 304.35962 173.42711 303.3125 174.65625 C 303.1147 174.67907 302.91653 174.69559 302.71875 174.71875 C 299.17692 175.24092 296.72701 178.67122 295.1875 183.9375 C 292.01965 187.45359 288.79598 190.91014 285.46875 194.28125 C 255.99875 224.64729 226.11 254.62464 195 283.3125 C 167.55 308.57594 140.07625 333.90505 110.90625 357.1875 C 95.596253 369.83479 155.22125 442.0223 170.53125 429.375 C 171.50876 428.50961 172.49237 427.64789 173.46875 426.78125 C 186.6846 449.09619 234.49382 483.12605 244.28125 470.875 C 253.01125 459.61757 248.40375 465.57141 258.09375 453.03125 C 273.45167 433.07405 288.70747 413.00654 304.40625 393.3125 C 332.70201 427.24586 363.41124 459.10376 394.34375 490.65625 C 410.98541 506.89902 427.47354 523.27453 443.84375 539.78125 C 430.6346 542.59302 417.31553 545.02301 404.03125 547.21875 C 345.83125 556.43474 287.715 550.57331 230.375 539.3125 C 195.315 531.61492 160.76125 521.81895 126.03125 512.75 C 109.25758 508.50957 89.665614 577.92506 98.46875 597.375 C 90.999888 612.62994 83.640287 627.92868 76.1875 643.1875 C 58.7575 679.54509 41.8375 716.13582 25.9375 753.1875 C 23.8675 757.84946 21.81875 762.54221 19.71875 767.1875 C 18.205567 770.52448 12.210046 774.9951 14.78125 777.21875 C 8.7628137 789.21556 5.8784175 795.4786 10.28125 799.5 C 7.140558 805.2414 3.9897426 810.96614 0.8125 816.6875 C -8.0872297 833.07311 65.187555 873.83919 80.0625 862.65625 C 101.93846 878.53492 104.70478 879.78142 110.5625 864.90625 C 110.62614 864.9209 110.68628 864.92282 110.75 864.9375 C 114.55 865.81144 113.69625 857.73575 115.15625 854.125 C 117.07625 849.34817 118.99625 844.56295 120.90625 839.78125 C 121.26344 838.93277 121.40871 838.0443 121.375 837.125 C 135.30323 802.57704 149.22325 768.01973 164.40625 734 C 179.08625 701.77658 193.78 669.34459 212.5 639.21875 C 214.30339 636.27421 213.36725 632.36147 210.5625 628 C 211.50825 628.1983 212.45983 628.39833 213.40625 628.59375 C 281.33625 641.15808 350.16625 647.2505 418.90625 636.25 C 451.73634 630.71471 484.53322 624.00206 516.21875 614.1875 C 540.39922 639.44578 564.40912 664.84578 588.34375 690.34375 C 627.04375 731.83117 667.13875 771.9794 707.46875 811.875 C 721.09875 825.19561 783.91125 760.94561 770.28125 747.625 C 730.36125 709.0968 690.765 670.25174 652.875 629.71875 C 636.0747 611.87616 619.24425 594.0564 602.375 576.28125 C 606.99156 573.46835 611.56142 570.5468 616.0625 567.46875 C 624.6825 560.45595 633.88625 554.08818 641.90625 546.40625 C 680.55625 509.42781 698.5675 460.04327 701.1875 407.40625 C 700.8775 346.10647 690.555 286.00734 663.875 230.25 C 639.795 184.5268 610.4225 142.71435 561.8125 120.71875 C 541.68125 113.27482 521.28408 108.05709 500.625 107.9375 z "
     id="path4834" />
</svg>
