<?xml version="1.0" encoding="UTF-8" standalone="no"?>
<svg
   xmlns:dc="http://purl.org/dc/elements/1.1/"
   xmlns:cc="http://creativecommons.org/ns#"
   xmlns:rdf="http://www.w3.org/1999/02/22-rdf-syntax-ns#"
   xmlns:svg="http://www.w3.org/2000/svg"
   xmlns="http://www.w3.org/2000/svg"
   xmlns:sodipodi="http://sodipodi.sourceforge.net/DTD/sodipodi-0.dtd"
   xmlns:inkscape="http://www.inkscape.org/namespaces/inkscape"
   width="1024"
   height="1024"
   id="U4E5D"
   version="1.1"
   inkscape:version="0.48.0 r9654"
   sodipodi:docname="U+4E5D.svg">
  <metadata
     id="metadata9">
    <rdf:RDF>
      <cc:Work
         rdf:about="">
        <dc:format>image/svg+xml</dc:format>
        <dc:type
           rdf:resource="http://purl.org/dc/dcmitype/StillImage" />
      </cc:Work>
    </rdf:RDF>
  </metadata>
  <defs
     id="defs7" />
  <sodipodi:namedview
     pagecolor="#ffffff"
     bordercolor="#666666"
     borderopacity="1"
     objecttolerance="10"
     gridtolerance="10"
     guidetolerance="10"
     inkscape:pageopacity="0"
     inkscape:pageshadow="2"
     inkscape:window-width="640"
     inkscape:window-height="480"
     id="namedview5"
     showgrid="false"
     inkscape:zoom="0.27441406"
     inkscape:cx="512"
     inkscape:cy="512"
     inkscape:window-x="0"
     inkscape:window-y="25"
     inkscape:window-maximized="0"
     inkscape:current-layer="U4E5D" />
  <path
     style="fill:#2b0000;fill-opacity:1;fill-rule:nonzero;stroke:#f9f9f9;stroke-width:0.1;stroke-miterlimit:4;stroke-dasharray:none"
     d="M 452.875 158.65625 C 448.67316 158.69974 445.5925 159.86531 444.1875 162.46875 C 422.7265 205.02675 407.53335 250.26 392.90625 295.5 C 384.19131 324.18078 375.65608 352.91161 367.15625 381.65625 C 359.66819 382.17364 352.17696 382.68988 344.6875 383.1875 C 309.1838 385.5655 273.68485 387.9575 238.15625 389.9375 C 219.26335 391.4995 226.63835 480.561 245.53125 479 C 277.20098 476.00094 308.93416 473.73527 340.65625 471.34375 C 336.37499 485.76433 332.0543 500.1891 327.71875 514.59375 C 307.21865 580.99675 286.6835 647.36975 267.25 714.09375 C 258.4497 744.22175 250.1037 774.48275 241.6875 804.71875 C 241.2708 806.34775 240.8542 807.96475 240.4375 809.59375 C 236.3065 828.14875 323.77515 847.6175 327.90625 829.0625 C 328.04075 828.2145 328.1779 827.37825 328.3125 826.53125 C 334.957 796.78325 343.07045 767.38375 351.03125 737.96875 C 369.57405 671.42675 389.66305 605.34675 410.03125 539.34375 C 417.53725 514.38511 424.97878 489.42038 432.40625 464.4375 C 459.42888 462.4343 486.42891 460.48219 513.46875 458.71875 C 541.58877 459.89517 573.83414 451.88439 601.90625 459.34375 C 601.54938 460.19099 601.27107 461.92592 601.0625 465 C 600.8269 468.472 600.5665 471.93625 600.3125 475.40625 C 596.0894 509.90025 592.8787 544.42525 591.625 579.15625 C 590.068 618.69825 594.9056 657.58525 606.25 695.40625 C 618.2769 731.62725 641.8484 758.46275 673.3125 778.96875 C 706.1602 797.76875 740.904 798.1995 776.4375 788.3125 C 790.2946 783.9465 802.31525 776.422 814.21875 768.375 C 829.59875 757.368 777.72385 684.868 762.34375 695.875 C 758.88535 698.99 754.9644 701.374 750.6875 703.25 C 740.317 707.19 730.6845 708.727 720.25 703.625 C 706.075 695.885 696.32855 684.429 690.65625 669.125 C 681.37975 641.087 678.87745 611.7765 679.71875 582.3125 C 680.92045 548.4855 684.4636 514.91975 688.6875 481.34375 C 691.6495 434.76575 685.3286 398.291 637.8125 377.875 C 595.2257 366.27 551.37185 368.57325 507.65625 371.65625 C 491.49045 372.76951 475.31823 373.92646 459.15625 375.09375 C 464.49275 357.56436 469.91029 340.07419 475.40625 322.59375 C 488.79885 282.48175 502.30365 242.05175 522.71875 204.84375 C 530.30575 190.78519 475.56493 158.4214 452.875 158.65625 z M 604.0625 459.96875 C 606.65067 460.73741 609.21291 461.62081 611.71875 462.6875 C 608.22027 466.04736 605.76574 462.15275 604.0625 459.96875 z "
     id="path9595" />
</svg>
