<?xml version="1.0" encoding="UTF-8" standalone="no"?>
<svg
   xmlns:dc="http://purl.org/dc/elements/1.1/"
   xmlns:cc="http://creativecommons.org/ns#"
   xmlns:rdf="http://www.w3.org/1999/02/22-rdf-syntax-ns#"
   xmlns:svg="http://www.w3.org/2000/svg"
   xmlns="http://www.w3.org/2000/svg"
   xmlns:sodipodi="http://sodipodi.sourceforge.net/DTD/sodipodi-0.dtd"
   xmlns:inkscape="http://www.inkscape.org/namespaces/inkscape"
   width="1024"
   height="1024"
   id="U4E71"
   version="1.1"
   inkscape:version="0.48.0 r9654"
   sodipodi:docname="U+4E71.svg">
  <metadata
     id="metadata14">
    <rdf:RDF>
      <cc:Work
         rdf:about="">
        <dc:format>image/svg+xml</dc:format>
        <dc:type
           rdf:resource="http://purl.org/dc/dcmitype/StillImage" />
      </cc:Work>
    </rdf:RDF>
  </metadata>
  <defs
     id="defs12" />
  <sodipodi:namedview
     pagecolor="#ffffff"
     bordercolor="#666666"
     borderopacity="1"
     objecttolerance="10"
     gridtolerance="10"
     guidetolerance="10"
     inkscape:pageopacity="0"
     inkscape:pageshadow="2"
     inkscape:window-width="640"
     inkscape:window-height="480"
     id="namedview10"
     showgrid="false"
     inkscape:zoom="0.27441406"
     inkscape:cx="512"
     inkscape:cy="512"
     inkscape:window-x="0"
     inkscape:window-y="25"
     inkscape:window-maximized="0"
     inkscape:current-layer="U4E71" />
  <path
     style="fill:#2b0000;fill-opacity:1;fill-rule:nonzero;stroke:#f9f9f9;stroke-width:0.1;stroke-miterlimit:4;stroke-dasharray:none"
     d="M 286.375 191.3125 C 283.90189 191.41564 281.95135 192.19473 280.6875 193.8125 C 259.3597 222.4475 239.302 251.9545 220.125 282.0625 C 199.665 314.6205 181.8633 348.72775 164.1875 382.84375 C 156.8294 395.88175 151.3458 409.989 143.0625 422.5 C 134.28395 436.61696 192.10945 474.82416 212.46875 472.4375 C 211.24362 485.54218 210.1096 498.65967 209.09375 511.78125 C 204.02612 512.7623 198.96683 513.76073 193.90625 514.78125 C 158.96375 521.67225 124.05835 529.082 88.65625 533.25 C 70.11365 536.081 83.4574 623.48725 102 620.65625 C 136.45782 615.20999 170.61305 608.08197 204.78125 601.09375 C 204.68964 615.20769 204.83719 629.32354 205.03125 643.4375 C 189.49134 651.08989 174.4241 659.66837 160.21875 669.71875 C 145.37105 681.19975 199.49605 751.19875 214.34375 739.71875 C 234.89575 724.68275 258.299 714.3245 281.875 705.0625 C 308.5088 695.3275 336.1944 688.59175 364.5 686.59375 C 364.54442 686.55733 364.6078 686.53359 364.65625 686.5 C 361.79441 707.27046 357.80924 727.89314 354.125 748.53125 C 349.48941 771.46974 345.72847 794.54246 343.03125 817.75 C 324.31245 817.40409 305.59841 816.90137 286.875 816.78125 C 267.19869 816.79477 247.51456 817.10385 227.84375 817.375 C 226.64135 814.54407 225.47314 811.70658 224.1875 808.9375 C 213.8432 784.8445 203.22295 760.85825 192.28125 737.03125 C 183.69995 720.33625 105.01245 760.806 113.59375 777.5 C 124.43055 798.987 134.0151 821.063 143.3125 843.25 C 151.265 858.965 156.2994 880.95475 171.4375 891.96875 C 174.68936 894.33493 178.19693 896.28095 181.78125 898.125 C 183.93121 903.07489 186.74869 906.13108 190.21875 906.15625 C 222.43465 904.76725 254.6307 904.0525 286.875 904.0625 C 317.26419 904.34062 347.64262 905.60225 378.03125 905.84375 C 399.58961 911.99693 422.64416 913.5946 425.21875 904.4375 C 425.25301 904.24853 425.27929 904.06393 425.3125 903.875 C 426.34011 903.73206 427.37963 903.59933 428.40625 903.4375 C 440.43102 901.11401 437.45637 863.39183 428.84375 838.34375 C 431.12253 813.41462 435.14833 788.73903 440.21875 764.1875 C 445.12025 737.6305 450.77275 711.13025 453.78125 684.28125 C 455.16265 657.45625 452.1283 632.428 429.375 614.5 C 406.9461 601.414 382.92495 596.76425 356.90625 599.15625 C 335.02418 601.29905 313.39111 605.10107 292.15625 610.5625 C 291.99094 602.13124 291.93001 593.68376 292.03125 585.25 C 310.04753 582.45573 328.11386 579.9135 346.21875 577.71875 C 374.52185 574.24275 402.99875 573.54425 431.40625 575.78125 C 440.22485 576.73825 449.04415 577.68375 457.90625 578.09375 C 476.74135 578.38875 478.11635 489.57625 459.28125 489.28125 C 451.93755 489.28025 444.5895 488.615 437.25 488 C 403.2713 486.073 369.24775 487.068 335.46875 491.5 C 322.65445 493.13962 309.83973 494.92612 297.0625 496.8125 C 299.13485 472.71194 301.66656 448.66789 304.4375 424.625 C 308.4189 388.134 311.86865 351.48725 318.78125 315.40625 C 319.54543 311.34063 315.9127 307.35449 309.75 303.84375 C 322.55943 284.79742 335.96444 266.15042 350.40625 248.28125 C 360.6976 235.10891 306.5132 190.47263 286.375 191.3125 z M 542.25 246.1875 C 523.16108 246.034 505.97673 249.61244 505.46875 257.8125 C 503.81845 286.8705 500.3842 315.7825 497.0625 344.6875 C 491.5935 390.2485 487.24635 435.9435 483.65625 481.6875 C 479.87615 528.6895 477.83265 575.76125 477.46875 622.90625 C 477.10935 662.07825 479.0643 701.1695 484.6875 739.9375 C 489.4766 773.0855 501.2733 803.13425 521.5625 829.65625 C 543.0004 854.25425 572.0927 864.0635 603.1875 869.5625 C 635.0324 873.8445 667.2777 873.224 699.3125 872.25 C 734.3589 870.864 769.23445 866.825 803.96875 862.125 C 825.08785 859.265 845.94185 854.973 866.84375 850.875 C 877.37305 848.319 871.79115 849.93925 883.53125 845.78125 C 900.97735 838.74525 867.821 756.49525 850.375 763.53125 C 852.9701 763.25525 852.41855 763.22725 848.90625 764.28125 C 829.98835 768.41725 811.0544 772.609 791.875 775.375 C 760.3359 779.894 728.6777 783.7675 696.8125 784.9375 C 670.5484 785.6445 644.1345 786.034 618 782.875 C 608.4238 781.352 598.0848 780.19225 590.0625 774.28125 C 577.7366 761.83125 574.8502 743.3595 571.1875 726.9375 C 565.8049 692.6915 564.327 658.0835 564.375 623.4375 C 564.5465 578.4055 566.36885 533.392 570.03125 488.5 C 573.58775 443.896 577.95705 399.393 583.59375 355 C 587.33735 324.471 590.9711 293.90925 593.8125 263.28125 C 594.46562 252.73831 566.7929 246.38486 542.25 246.1875 z "
     id="path10408" />
</svg>
