<?xml version="1.0" encoding="utf-8" ?>

<!DOCTYPE svg PUBLIC "-//W3C//DTD SVG 1.1//EN" 
  "http://www.w3.org/Graphics/SVG/1.1/DTD/svg11.dtd">
<svg 
    xmlns="http://www.w3.org/2000/svg"
    xmlns:xlink="http://www.w3.org/1999/xlink"
    xmlns:sodipodi="http://sodipodi.sourceforge.net/DTD/sodipodi-0.dtd"
    xmlns:inkscape="http://www.inkscape.org/namespaces/inkscape"
    width="1024" height="1024" id="U4E92">
<path d="m 8448.4002,18661.655 c 39.4583,-5.829 78.9099,-11.695 118.4208,-17.165 56.6913,-7.964 113.6055,-14.117 170.6591,-18.761 36.8563,-2.115 74.271,-6.807 110.1708,3.538 8.4114,8.151 16.8228,16.302 25.2343,24.454 8.3085,16.688 -70.361,55.855 -78.6696,39.167 l 0,0 c 7.3771,6.073 14.7542,12.147 22.1313,18.221 1.4054,0.05 5.3902,0.934 4.2162,0.159 -7.8843,-5.2 -44.8793,-1.765 -53.6282,-1.41 -7.6085,0.308 -15.2088,0.795 -22.8131,1.193 -55.2733,4.097 -110.3927,9.997 -165.227,18.128 -38.9946,5.724 -77.9733,11.64 -116.7162,18.904 -18.3342,2.923 -32.1125,-83.505 -13.7784,-86.428 z" id="path24823" inkscape:connector-curvature="0" style="fill:#550000;fill-opacity:1;fill-rule:nonzero;stroke:#f9f9f9;stroke-width:0.1;stroke-miterlimit:4;stroke-dasharray:none" transform="translate(-8192, -18432)"/><path d="m 8665.0117,18755.129 c -14.1664,24.049 -23.3271,50.671 -33.1532,76.684 -14.821,39.54 -29.2628,79.234 -42.0153,119.494 -6.1376,20.982 -12.9734,42.761 -8.9788,64.757 1.9947,7.218 7.378,7.161 13.8131,9.905 25.3462,9.151 52.3821,11.455 79.067,13.194 26.9962,1.062 54.1101,0.937 81.0109,-1.751 18.4405,-1.559 25.7888,85.37 7.3482,86.929 l 0,0 c -31.2868,2.283 -62.713,2.345 -94.0468,0.971 -38.035,-2.537 -76.5249,-6.33 -111.9973,-21.34 -33.7957,-17.54 -55.0234,-38.409 -61.6744,-77.261 -3.5395,-34.865 1.7714,-68.671 13.3463,-101.782 13.4779,-41.422 28.4207,-82.343 43.4201,-123.235 11.8735,-32.194 23.2419,-64.887 40.583,-94.653 10.201,-15.544 83.4783,32.544 73.2772,48.088 z" id="path24825" inkscape:connector-curvature="0" style="fill:#550000;fill-opacity:1;fill-rule:nonzero;stroke:#f9f9f9;stroke-width:0.1;stroke-miterlimit:4;stroke-dasharray:none" transform="translate(-8192, -18432)"/><path d="m 8632.9639,18893.674 c 32.2742,-3.484 64.7055,-5.021 97.1251,-6.362 34.1646,-1.206 68.3466,-1.843 102.5302,-2.151 20.9214,0.627 48.4413,-0.879 63.8652,16.856 6.4769,7.447 9.6638,17.212 14.4957,25.818 0.091,7.562 1.0311,15.162 0.2716,22.686 -1.7455,17.293 -18.9221,53.013 -25.3085,70.948 -13.7923,40.388 -23.2186,82.038 -31.3336,123.878 -6.7173,35.772 -10.9971,71.926 -16.2783,107.921 -0.7574,4.27 -1.5149,8.54 -2.2723,12.81 -3.413,18.148 -88.9663,2.059 -85.5533,-16.09 l 0,0 c 0.6712,-3.326 1.3424,-6.653 2.0136,-9.98 6.0285,-37.019 10.7405,-74.253 17.8154,-111.101 8.9948,-45.866 19.3191,-91.532 34.0471,-135.948 5.2392,-15.242 10.7217,-30.336 16.4175,-45.411 0.9397,-2.487 1.7349,-5.032 2.7903,-7.473 0.1344,-0.311 0.6607,-1.023 0.7415,-0.694 0.8819,3.588 1.1846,7.294 1.7769,10.941 4.1039,5.858 7.1999,12.572 12.3116,17.575 3.0649,2.999 7.5373,4.134 11.5126,5.742 0.931,0.377 3.6225,0.931 3.0101,0.135 -3.1384,-4.079 -16.9081,0.818 -20.22,-1.691 -32.9815,-0.232 -65.9673,0.184 -98.9284,1.413 -29.878,1.335 -59.8442,2.666 -89.4544,7.119 -18.4431,2.414 -29.8186,-84.528 -11.3756,-86.941 z" id="path24827" inkscape:connector-curvature="0" style="fill:#550000;fill-opacity:1;fill-rule:nonzero;stroke:#f9f9f9;stroke-width:0.1;stroke-miterlimit:4;stroke-dasharray:none" transform="translate(-8192, -18432)"/><path d="m 8445.1497,19274.729 c 39.7447,1.864 79.5736,1.717 119.3564,1.951 66.0098,1.424 131.9155,-1.705 197.731,-6.391 65.1445,-5.702 130.3453,-10.111 195.6831,-6.015 32.8122,2.499 64.4677,10.793 94.695,23.489 16.9072,7.454 -18.2309,87.155 -35.1381,79.701 l 0,0 c -20.6215,-9.885 -42.8698,-15.355 -65.5951,-17.772 -61.2488,-4.918 -122.4722,-0.151 -183.5871,4.955 -67.8729,4.914 -135.8339,8.327 -203.9159,7.409 -41.5489,0.12 -83.1013,0.436 -124.6489,0.161 -18.5589,-1.15 -13.1393,-88.638 5.4196,-87.488 z" id="path24829" inkscape:connector-curvature="0" style="fill:#550000;fill-opacity:1;fill-rule:nonzero;stroke:#f9f9f9;stroke-width:0.1;stroke-miterlimit:4;stroke-dasharray:none" transform="translate(-8192, -18432)"/></svg>