<?xml version="1.0" encoding="UTF-8" standalone="no"?>
<svg
   xmlns:dc="http://purl.org/dc/elements/1.1/"
   xmlns:cc="http://creativecommons.org/ns#"
   xmlns:rdf="http://www.w3.org/1999/02/22-rdf-syntax-ns#"
   xmlns:svg="http://www.w3.org/2000/svg"
   xmlns="http://www.w3.org/2000/svg"
   xmlns:sodipodi="http://sodipodi.sourceforge.net/DTD/sodipodi-0.dtd"
   xmlns:inkscape="http://www.inkscape.org/namespaces/inkscape"
   width="1024"
   height="1024"
   id="U4E0B"
   version="1.1"
   inkscape:version="0.48.0 r9654"
   sodipodi:docname="U+4E0B.svg">
  <metadata
     id="metadata10">
    <rdf:RDF>
      <cc:Work
         rdf:about="">
        <dc:format>image/svg+xml</dc:format>
        <dc:type
           rdf:resource="http://purl.org/dc/dcmitype/StillImage" />
      </cc:Work>
    </rdf:RDF>
  </metadata>
  <defs
     id="defs8" />
  <sodipodi:namedview
     pagecolor="#ffffff"
     bordercolor="#666666"
     borderopacity="1"
     objecttolerance="10"
     gridtolerance="10"
     guidetolerance="10"
     inkscape:pageopacity="0"
     inkscape:pageshadow="2"
     inkscape:window-width="640"
     inkscape:window-height="480"
     id="namedview6"
     showgrid="false"
     inkscape:zoom="0.27441406"
     inkscape:cx="512"
     inkscape:cy="512"
     inkscape:window-x="0"
     inkscape:window-y="25"
     inkscape:window-maximized="0"
     inkscape:current-layer="U4E0B" />
  <path
     style="fill:#501616;fill-opacity:1;fill-rule:nonzero;stroke:#f9f9f9;stroke-width:0.1;stroke-miterlimit:4;stroke-dasharray:none"
     d="M 500.15625 236.90625 C 429.18875 237.10051 358.39203 242.92875 288.78125 257.53125 C 235.21365 269.41025 180.85575 282.14025 132.84375 309.78125 C 117.18325 320.05825 165.652 393.87075 181.3125 383.59375 C 219.8805 360.75675 264.3353 350.881 307.5625 341 C 333.75801 335.37515 360.13497 331.18924 386.65625 328.21875 C 381.12997 359.72577 379.16311 391.88227 377.03125 423.75 C 373.19545 491.813 371.54475 559.961 371.28125 628.125 C 371.15175 681.281 374.44215 734.3835 382.40625 786.9375 C 385.37535 805.2055 471.50035 791.2055 468.53125 772.9375 C 460.14425 725.1975 457.1513 676.7565 456.9375 628.3125 C 456.9389 623.29156 456.9802 618.27104 457 613.25 C 457.11373 613.27914 457.22721 613.32123 457.34375 613.34375 C 491.27565 619.05275 524.5954 627.62125 557.625 637.15625 C 596.6977 648.33125 633.61335 665.1325 668.90625 685.0625 C 685.06465 694.0435 727.37715 617.88625 711.21875 608.90625 C 669.99835 586.30625 627.10195 566.995 581.84375 553.875 C 546.26265 543.458 510.4029 534.15675 474.125 526.46875 C 468.15433 525.31456 462.35941 533.67003 457.875 545.59375 C 458.76907 507.00844 460.3706 468.45445 462.9375 429.9375 C 465.7232 393.9995 467.7705 357.374 478.0625 322.625 C 478.07657 322.58397 478.08064 322.54114 478.09375 322.5 C 489.86584 322.30481 501.65611 322.29895 513.4375 322.46875 C 566.2704 324.22075 618.5541 332.52375 670.375 342.46875 C 691.6659 347.04675 713.16425 351.18475 733.96875 357.71875 C 751.96315 362.86175 776.21325 278.019 758.21875 272.875 C 734.46665 266.524 710.3338 261.68275 686.1875 257.09375 C 629.3908 246.92275 572.1602 238.3975 514.375 236.9375 C 509.64281 236.90125 504.88742 236.8933 500.15625 236.90625 z "
     id="path13348" />
</svg>
