<?xml version="1.0" encoding="UTF-8" standalone="no"?>
<svg
   xmlns:dc="http://purl.org/dc/elements/1.1/"
   xmlns:cc="http://creativecommons.org/ns#"
   xmlns:rdf="http://www.w3.org/1999/02/22-rdf-syntax-ns#"
   xmlns:svg="http://www.w3.org/2000/svg"
   xmlns="http://www.w3.org/2000/svg"
   xmlns:sodipodi="http://sodipodi.sourceforge.net/DTD/sodipodi-0.dtd"
   xmlns:inkscape="http://www.inkscape.org/namespaces/inkscape"
   width="1024"
   height="1024"
   id="U4E49"
   version="1.1"
   inkscape:version="0.48.0 r9654"
   sodipodi:docname="U+4E49.svg">
  <metadata
     id="metadata10">
    <rdf:RDF>
      <cc:Work
         rdf:about="">
        <dc:format>image/svg+xml</dc:format>
        <dc:type
           rdf:resource="http://purl.org/dc/dcmitype/StillImage" />
      </cc:Work>
    </rdf:RDF>
  </metadata>
  <defs
     id="defs8" />
  <sodipodi:namedview
     pagecolor="#ffffff"
     bordercolor="#666666"
     borderopacity="1"
     objecttolerance="10"
     gridtolerance="10"
     guidetolerance="10"
     inkscape:pageopacity="0"
     inkscape:pageshadow="2"
     inkscape:window-width="640"
     inkscape:window-height="480"
     id="namedview6"
     showgrid="false"
     inkscape:zoom="0.27441406"
     inkscape:cx="512"
     inkscape:cy="512"
     inkscape:window-x="0"
     inkscape:window-y="25"
     inkscape:window-maximized="0"
     inkscape:current-layer="U4E49" />
  <path
     style="fill:#2b1100;fill-opacity:1;fill-rule:nonzero;stroke:none"
     d="M 432.9375 179.84375 C 414.24952 180.98193 371.89835 243.06292 386 253.0625 C 419.948 275.6485 451.2362 301.81575 481.6875 328.84375 C 488.4275 335.20075 495.16625 341.5805 501.90625 347.9375 C 515.17715 360.4835 574.3335 297.921 561.0625 285.375 C 553.7399 278.436 546.41645 271.5005 539.09375 264.5625 C 506.35565 235.1915 472.6974 206.8485 437.125 180.9375 C 435.92995 180.09008 434.52123 179.74729 432.9375 179.84375 z M 801.8125 263.375 C 776.79031 263.97292 727.36781 285.99141 732.53125 299.71875 C 738.86955 321.46675 733.3041 344.15075 728 365.46875 C 712.2011 419.69575 681.29215 467.24425 649.71875 513.40625 C 612.10779 566.48517 569.0728 615.21358 523.46875 661.4375 C 496.14577 644.00476 469.65798 625.30278 444.5 604.65625 C 392.7417 561.46325 343.8514 514.9855 302.125 461.8125 C 277.4595 430.7675 253.50975 399.17075 230.03125 367.21875 C 218.05985 352.75375 149.87235 409.19025 161.84375 423.65625 C 186.27295 454.32225 210.2108 485.34725 234.9375 515.78125 C 280.7252 572.94525 333.8433 623.20825 389.9375 670.03125 C 412.34883 688.41413 435.69328 705.4279 459.71875 721.4375 C 424.87064 750.86185 387.49583 777.03707 347.75 799.59375 C 321.2896 813.36975 293.39865 825.0705 263.96875 830.5625 C 256.97855 831.1855 259.84715 831.47325 255.34375 830.65625 C 236.62015 830.62825 236.49525 918.87625 255.21875 918.90625 C 273.41625 918.34525 264.45295 919.1455 282.09375 916.5625 C 320.28155 907.9635 356.7986 893.48525 391 874.40625 C 442.81297 843.99252 491.25204 808.5262 535.625 768.0625 C 553.05754 778.0408 570.65718 787.7346 588.34375 797.25 C 648.01495 829.159 708.62365 859.11175 772.40625 881.84375 C 825.45605 900.04075 880.95955 904.44575 936.59375 903.09375 C 962.95045 901.43275 950.1974 902.505 974.875 900 C 993.3069 897.963 983.71325 811.089 965.28125 813.125 C 945.22055 815.565 955.67065 814.48675 933.90625 816.21875 C 888.93275 817.98075 844.01265 815.0515 800.96875 800.6875 C 741.15655 779.9335 684.6341 751.57675 628.6875 722.09375 C 618.6464 716.72193 608.62755 711.28958 598.65625 705.78125 C 642.19397 660.46499 683.38332 612.92615 720 561.71875 C 757.6965 507.13175 793.8948 450.61775 812.375 386.21875 C 821.8604 347.35975 828.18055 307.5615 815.34375 268.5625 C 813.89799 264.71884 808.81871 263.20758 801.8125 263.375 z "
     id="path12067" />
</svg>
