<?xml version="1.0" encoding="utf-8" ?>

<!DOCTYPE svg PUBLIC "-//W3C//DTD SVG 1.1//EN" 
  "http://www.w3.org/Graphics/SVG/1.1/DTD/svg11.dtd">
<svg 
    xmlns="http://www.w3.org/2000/svg"
    xmlns:xlink="http://www.w3.org/1999/xlink"
    xmlns:sodipodi="http://sodipodi.sourceforge.net/DTD/sodipodi-0.dtd"
    xmlns:inkscape="http://www.inkscape.org/namespaces/inkscape"
    width="1024" height="1024" id="U4E1A">
<path d="m 7554.4422,57714.484 c -5.017,54.484 -7.8016,109.115 -9.4235,163.794 -1.9169,65.885 2.1223,131.722 14.297,196.498 1.5175,5.998 3.035,11.995 4.5524,17.992 4.2188,17.951 -80.4034,37.839 -84.6221,19.888 l 0,0 c -1.6837,-7.624 -3.3673,-15.247 -5.0509,-22.871 -11.7454,-70.629 -16.0627,-142.122 -14.2531,-213.72 1.2453,-55.379 3.7217,-110.695 6.237,-166.026 0.9429,-18.724 89.2061,-14.279 88.2632,4.445 z" id="path13133" inkscape:connector-curvature="0" style="fill:#916f6f;fill-opacity:1;fill-rule:nonzero;stroke:#f9f9f9;stroke-width:0.1;stroke-miterlimit:4;stroke-dasharray:none" transform="translate(-7168, -57344)"/><path d="m 7795.6844,57675.719 c -9.4656,43.829 -11.0256,88.935 -13.1135,133.582 -2.8098,73.009 -2.9174,146.084 -3.8299,219.132 -0.7487,46.538 -1.4691,93.197 -7.7854,139.369 -2.7415,18.384 -89.4056,5.46 -86.6641,-12.924 l 0,0 c 6.9853,-42.211 7.4833,-85.161 8.8561,-127.83 1.4683,-73.763 1.7689,-147.548 3.8858,-221.299 1.8293,-50.111 3.4973,-100.505 12.5415,-149.95 4.2258,-18.267 90.3353,1.654 86.1095,19.92 z" id="path13135" inkscape:connector-curvature="0" style="fill:#916f6f;fill-opacity:1;fill-rule:nonzero;stroke:#f9f9f9;stroke-width:0.1;stroke-miterlimit:4;stroke-dasharray:none" transform="translate(-7168, -57344)"/><path d="m 7347.785,57905.876 c 14.5622,37.152 33.0683,72.599 52.0797,107.625 20.5063,37.746 45.2368,72.79 72.5682,105.834 11.6166,14.208 -55.3596,68.969 -66.9763,54.761 l 0,0 c -30.3341,-37.466 -58.0782,-76.891 -81.2328,-119.266 -20.8183,-37.868 -40.9257,-76.16 -58.4534,-115.684 -7.0576,-17.398 74.9569,-50.668 82.0146,-33.27 z" id="path13145" inkscape:connector-curvature="0" style="fill:#916f6f;fill-opacity:1;fill-rule:nonzero;stroke:#f9f9f9;stroke-width:0.1;stroke-miterlimit:4;stroke-dasharray:none" transform="translate(-7168, -57344)"/><path d="m 8009.209,57906.524 c -30.7859,28.997 -57.6677,61.88 -85.1209,93.973 -20.3261,24.212 -41.7841,47.414 -63.3243,70.536 -12.3942,13.33 -75.2319,-45.097 -62.8376,-58.427 l 0,0 c 20.6227,-22.223 41.1572,-44.532 60.533,-67.867 29.8563,-35.38 59.2028,-71.358 91.9595,-104.132 13.983,-12.471 72.7732,53.445 58.7903,65.917 z" id="path13147" inkscape:connector-curvature="0" style="fill:#916f6f;fill-opacity:1;fill-rule:nonzero;stroke:#f9f9f9;stroke-width:0.1;stroke-miterlimit:4;stroke-dasharray:none" transform="translate(-7168, -57344)"/><path d="m 7267.1865,58159.74 c 62.0635,-7.826 124.2964,-14.279 186.4987,-20.894 112.6702,-12.06 225.5825,-21.591 338.5739,-30.036 78.4933,-6.076 157.1302,-9.827 235.8562,-10.162 25.9159,0.503 13.6429,0 36.8248,1.332 18.5292,1.372 12.0591,88.719 -6.47,87.347 l 0,0 c -18.8714,-1.807 -8.5453,-1.016 -30.9959,-2.134 -76.4658,-1.501 -152.9029,1.205 -229.1868,6.695 -111.9172,7.873 -223.7262,17.378 -335.1425,30.703 -60.6656,7.258 -121.4707,14.058 -181.7205,24.285 -18.4844,3.021 -32.7223,-84.115 -14.2379,-87.136 z" id="path13153" inkscape:connector-curvature="0" style="fill:#916f6f;fill-opacity:1;fill-rule:nonzero;stroke:#f9f9f9;stroke-width:0.1;stroke-miterlimit:4;stroke-dasharray:none" transform="translate(-7168, -57344)"/></svg>