<?xml version="1.0" encoding="UTF-8" standalone="no"?>
<svg
   xmlns:dc="http://purl.org/dc/elements/1.1/"
   xmlns:cc="http://creativecommons.org/ns#"
   xmlns:rdf="http://www.w3.org/1999/02/22-rdf-syntax-ns#"
   xmlns:svg="http://www.w3.org/2000/svg"
   xmlns="http://www.w3.org/2000/svg"
   xmlns:sodipodi="http://sodipodi.sourceforge.net/DTD/sodipodi-0.dtd"
   xmlns:inkscape="http://www.inkscape.org/namespaces/inkscape"
   width="1024"
   height="1024"
   id="U4ECE"
   version="1.1"
   inkscape:version="0.48.0 r9654"
   sodipodi:docname="U+4ECE.svg">
  <metadata
     id="metadata11">
    <rdf:RDF>
      <cc:Work
         rdf:about="">
        <dc:format>image/svg+xml</dc:format>
        <dc:type
           rdf:resource="http://purl.org/dc/dcmitype/StillImage" />
      </cc:Work>
    </rdf:RDF>
  </metadata>
  <defs
     id="defs9" />
  <sodipodi:namedview
     pagecolor="#ffffff"
     bordercolor="#666666"
     borderopacity="1"
     objecttolerance="10"
     gridtolerance="10"
     guidetolerance="10"
     inkscape:pageopacity="0"
     inkscape:pageshadow="2"
     inkscape:window-width="640"
     inkscape:window-height="480"
     id="namedview7"
     showgrid="false"
     inkscape:zoom="0.27441406"
     inkscape:cx="512"
     inkscape:cy="512"
     inkscape:window-x="0"
     inkscape:window-y="25"
     inkscape:window-maximized="0"
     inkscape:current-layer="U4ECE" />
  <path
     style="fill:#800000;fill-opacity:1;fill-rule:nonzero;stroke:#f9f9f9;stroke-width:0.1;stroke-miterlimit:4;stroke-dasharray:none"
     d="M 651.28125 198.40625 C 630.82645 198.78573 611.53897 203.25834 611.46875 211.96875 C 611.57715 252.76375 602.86845 292.97535 594.59375 332.71875 C 579.88495 399.76925 558.6589 465.14875 535.9375 529.84375 C 518.61122 580.2926 498.17119 629.54256 478.03125 678.90625 C 475.83141 677.90866 475.11818 677.60914 468.8125 674.75 C 435.2372 659.2301 401.7746 642.96145 371.9375 620.84375 C 348.4712 602.04785 327.20605 581.0687 308.90625 557.125 C 303.91283 551.14456 289.19088 557.56069 274.65625 568.0625 C 282.62336 549.65904 290.64204 531.29564 298.71875 512.9375 C 323.34355 455.8884 347.75825 398.66225 367.90625 339.84375 C 378.06495 309.18285 387.14 278.21985 395.3125 246.96875 C 399.5439 228.85835 314.1689 208.8896 309.9375 227 C 303.3849 256.1133 295.1836 284.79835 286.125 313.21875 C 267.46 369.79635 244.3453 424.7597 220.9375 479.5 C 194.2063 540.7367 167.64265 602.04655 141.78125 663.65625 C 131.80795 687.50405 121.5829 711.2707 111.1875 734.9375 C 104.0367 751.9179 184.0992 785.6054 191.25 768.625 C 200.995 744.4834 210.8229 720.39965 220.625 696.28125 C 230.48845 672.06609 240.55864 647.91816 250.75 623.84375 C 271.22064 647.24104 293.67934 668.48738 317.9375 688.03125 C 353.1063 714.57455 392.58745 734.26155 432.28125 752.96875 C 441.24211 757.13369 443.44275 758.15884 445.71875 759.21875 C 442.28385 776.64571 519.60449 808.95618 526.6875 792.21875 C 536.844 766.80025 545.5629 740.7984 555.875 715.4375 C 569.01217 682.30402 582.39872 649.26737 595.03125 615.9375 C 610.68852 639.39512 630.54516 659.79378 651.625 678.875 C 690.3264 710.3263 733.02465 736.2742 773.96875 764.625 C 795.17435 779.4089 815.615 795.24145 835.875 811.28125 C 850.3608 822.56035 903.5483 754.24785 889.0625 742.96875 C 867.2513 726.25255 845.30135 709.7322 822.71875 694.0625 C 784.74145 667.905 745.36365 643.6402 709.21875 614.9375 C 689.05445 596.9053 669.76795 577.4 659.03125 552.0625 C 655.89513 544.01767 636.58868 546.58753 617.5 553.375 C 640.50757 486.65259 662.0534 419.32992 677.78125 350.46875 C 687.68085 305.06365 697.5243 259.3022 699.0625 212.6875 C 699.14213 202.81571 674.46335 197.97617 651.28125 198.40625 z "
     id="path21447" />
</svg>
