<?xml version="1.0" encoding="UTF-8" standalone="no"?>
<svg
   xmlns:dc="http://purl.org/dc/elements/1.1/"
   xmlns:cc="http://creativecommons.org/ns#"
   xmlns:rdf="http://www.w3.org/1999/02/22-rdf-syntax-ns#"
   xmlns:svg="http://www.w3.org/2000/svg"
   xmlns="http://www.w3.org/2000/svg"
   xmlns:sodipodi="http://sodipodi.sourceforge.net/DTD/sodipodi-0.dtd"
   xmlns:inkscape="http://www.inkscape.org/namespaces/inkscape"
   width="1024"
   height="1024"
   id="U4E5F"
   version="1.1"
   inkscape:version="0.48.0 r9654"
   sodipodi:docname="U+4E5F.svg">
  <metadata
     id="metadata10">
    <rdf:RDF>
      <cc:Work
         rdf:about="">
        <dc:format>image/svg+xml</dc:format>
        <dc:type
           rdf:resource="http://purl.org/dc/dcmitype/StillImage" />
      </cc:Work>
    </rdf:RDF>
  </metadata>
  <defs
     id="defs8" />
  <sodipodi:namedview
     pagecolor="#ffffff"
     bordercolor="#666666"
     borderopacity="1"
     objecttolerance="10"
     gridtolerance="10"
     guidetolerance="10"
     inkscape:pageopacity="0"
     inkscape:pageshadow="2"
     inkscape:window-width="640"
     inkscape:window-height="480"
     id="namedview6"
     showgrid="false"
     inkscape:zoom="0.27441406"
     inkscape:cx="512"
     inkscape:cy="512"
     inkscape:window-x="0"
     inkscape:window-y="25"
     inkscape:window-maximized="0"
     inkscape:current-layer="U4E5F" />
  <path
     style="fill:#916f6f;fill-opacity:1;fill-rule:nonzero;stroke:#f9f9f9;stroke-width:0.1;stroke-miterlimit:4;stroke-dasharray:none"
     d="M 540.96875 268.9375 C 532.35045 268.74578 526.03345 270.483 524.65625 274.96875 C 512.81205 321.15475 507.20245 368.63175 501.21875 415.84375 C 498.82471 435.14373 496.55926 454.45793 494.375 473.78125 C 493.12584 473.89226 491.87394 473.97452 490.625 474.09375 C 451.718 478.59868 413.09381 484.95653 375 493.71875 C 376.52503 476.36928 378.10032 459.02402 379.78125 441.6875 C 384.23285 394.7595 388.45755 347.78325 394.53125 301.03125 C 396.79085 282.42325 309.0721 271.79825 306.8125 290.40625 C 302.5561 338.28425 298.5966 386.1665 294.5625 434.0625 C 292.07039 462.30737 289.67294 490.57994 287.4375 518.84375 C 249.75251 531.99439 212.59194 546.52504 177.34375 565.4375 C 160.94555 574.5645 203.9768 651.877 220.375 642.75 C 239.70183 631.33123 259.98556 621.92006 280.71875 613.53125 C 279.77916 628.94044 278.91386 644.35979 278.15625 659.78125 C 274.87915 717.47725 276.8231 775.005 291.5625 831 C 308.5328 883.706 342.70765 913.43175 389.71875 939.34375 C 445.48605 966.15775 506.76415 970.91375 567.65625 970.84375 C 629.94925 968.88075 691.37775 957.711 752.28125 945.25 C 793.59935 936.421 834.78635 926.8125 874.96875 913.6875 C 892.57585 907.6945 909.8788 900.8885 927.125 893.9375 C 927.8142 893.7145 928.4982 893.50425 929.1875 893.28125 C 946.8295 886.74225 916.017 803.586 898.375 810.125 C 896.5693 810.827 894.77435 811.51675 892.96875 812.21875 C 877.85825 818.78875 862.6252 825.0875 847.125 830.6875 C 810.4403 843.3975 772.6022 852.29525 734.75 860.78125 C 679.594 872.40325 623.95105 882.88375 567.46875 884.84375 C 521.04335 885.01075 473.9383 882.42825 431 862.90625 C 406.465 850.11425 384.9905 835.07675 375.4375 807.84375 C 361.6278 761.08075 361.79515 712.145 363.46875 663.75 C 364.63717 637.11545 366.14824 610.50032 367.9375 583.90625 C 406.36916 573.48868 445.51578 566.204 485.0625 561.25 C 482.55092 586.21079 480.15917 611.17951 477.8125 636.15625 C 474.1364 670.78125 472.2521 705.6385 466.875 740.0625 C 464.373 758.5095 551.34165 770.29175 553.84375 751.84375 C 558.12415 715.93275 559.8786 679.79325 563.125 643.78125 C 565.55658 615.0953 568.1504 586.42793 571 557.78125 C 597.65352 558.64327 624.28931 560.96721 650.78125 564.09375 C 681.16345 568.19375 711.4869 574.82475 738.5625 589.59375 C 751.1672 596.55875 753.25115 604.60825 753.90625 617.78125 C 753.82195 646.67425 745.308 674.61075 736.875 701.96875 C 729.2433 724.02675 721.53165 746.409 709.90625 766.75 C 701.05235 783.226 778.7086 824.94475 787.5625 808.46875 C 801.0013 782.55475 811.46515 755.2265 820.34375 727.4375 C 832.17445 688.3235 843.3012 648.302 840.875 607 C 834.1188 561.563 819.07215 535.0205 778.59375 511.6875 C 741.49995 493.2745 701.75755 482.3975 660.53125 477.9375 C 633.91662 475.03689 607.18515 472.84535 580.4375 471.875 C 582.24491 456.93808 584.11185 442.00694 586.125 427.09375 C 591.972 384.78575 597.246 342.0425 609.25 300.9375 C 613.38153 287.48025 566.82366 269.51266 540.96875 268.9375 z "
     id="path13117" />
</svg>
