<?xml version="1.0" encoding="UTF-8" standalone="no"?>
<svg
   xmlns:dc="http://purl.org/dc/elements/1.1/"
   xmlns:cc="http://creativecommons.org/ns#"
   xmlns:rdf="http://www.w3.org/1999/02/22-rdf-syntax-ns#"
   xmlns:svg="http://www.w3.org/2000/svg"
   xmlns="http://www.w3.org/2000/svg"
   xmlns:sodipodi="http://sodipodi.sourceforge.net/DTD/sodipodi-0.dtd"
   xmlns:inkscape="http://www.inkscape.org/namespaces/inkscape"
   width="1024"
   height="1024"
   id="U4E94"
   version="1.1"
   inkscape:version="0.48.0 r9654"
   sodipodi:docname="U+4E94.svg">
  <metadata
     id="metadata11">
    <rdf:RDF>
      <cc:Work
         rdf:about="">
        <dc:format>image/svg+xml</dc:format>
        <dc:type
           rdf:resource="http://purl.org/dc/dcmitype/StillImage" />
      </cc:Work>
    </rdf:RDF>
  </metadata>
  <defs
     id="defs9" />
  <sodipodi:namedview
     pagecolor="#ffffff"
     bordercolor="#666666"
     borderopacity="1"
     objecttolerance="10"
     gridtolerance="10"
     guidetolerance="10"
     inkscape:pageopacity="0"
     inkscape:pageshadow="2"
     inkscape:window-width="640"
     inkscape:window-height="480"
     id="namedview7"
     showgrid="false"
     inkscape:zoom="0.27441406"
     inkscape:cx="512"
     inkscape:cy="512"
     inkscape:window-x="0"
     inkscape:window-y="25"
     inkscape:window-maximized="0"
     inkscape:current-layer="U4E94" />
  <path
     style="fill:#501616;fill-opacity:1;fill-rule:nonzero;stroke:#f9f9f9;stroke-width:0.1;stroke-miterlimit:4;stroke-dasharray:none"
     d="M 507.375 257.3125 C 469.81509 257.13041 432.27731 259.59 394.8125 264 C 351.305 268.209 307.7708 272.04725 264.125 274.53125 C 245.4853 276.48725 254.70405 364.36125 273.34375 362.40625 C 316.70675 358.17125 360.06805 354.2105 403.40625 349.6875 C 406.75574 349.28371 410.11736 348.87235 413.46875 348.5 C 400.34107 376.9932 390.68008 407.08792 381.21875 436.96875 C 374.3265 460.05451 368.0599 483.29032 362.25 506.65625 C 347.12661 508.65187 332.06494 511.30577 317.0625 514.6875 C 272.5356 525.0325 227.12655 536.42525 188.96875 562.78125 C 174.33845 574.55225 229.8073 643.521 244.4375 631.75 C 272.1522 613.73 305.05325 606.169 336.78125 598.625 C 338.42168 598.24748 340.04514 597.88747 341.6875 597.53125 C 337.09667 619.53654 332.72583 641.57621 328.40625 663.625 C 316.13403 725.65583 307.05586 788.22658 299.15625 850.9375 C 253.62397 855.71346 208.15024 861.35558 163.25 870.40625 C 145.086 874.94725 166.49225 960.57225 184.65625 956.03125 C 226.78671 945.84227 269.84938 940.31804 312.90625 935.53125 C 338.23315 941.96953 376.38335 941.58308 377.59375 929.4375 C 377.6095 929.24953 377.60962 929.33995 377.625 929.15625 C 443.89557 924.12221 510.37938 924.00178 576.78125 927.125 C 637.53835 930.662 697.51475 941.183 756.65625 955.125 C 771.24435 958.703 785.65155 962.82075 799.84375 967.71875 C 817.56485 973.43375 844.50235 889.9025 826.78125 884.1875 C 809.95315 879.0375 793.0041 874.40575 775.8125 870.59375 C 737.87918 862.31654 699.67568 855.20151 661.21875 850.03125 C 677.17558 813.91532 692.32265 777.4295 706.21875 740.46875 C 720.65925 699.95375 735.5732 658.035 729.5625 614.375 C 727.3512 607.323 725.95015 599.984 722.90625 593.25 C 709.39115 563.35 680.5297 546.99975 651.375 535.59375 C 605.3801 519.59475 557.72145 509.15675 509.21875 504.34375 C 490.14384 502.85607 471.03887 501.91636 451.96875 501.6875 C 455.51143 488.87852 459.2402 476.13772 463.1875 463.4375 C 474.3112 429.6955 485.15815 395.118 504.28125 364.875 C 507.55097 359.97036 502.52954 351.77763 493.78125 343.3125 C 517.86736 343.02293 541.97246 344.01782 566.03125 346.75 C 582.86975 351.295 607.57305 350.7245 620.34375 364.9375 C 635.51325 375.8255 686.82575 304.3255 671.65625 293.4375 C 642.35935 274.1915 609.90475 264.27125 574.96875 260.65625 C 552.43811 258.488 529.91095 257.42175 507.375 257.3125 z M 439.875 587.4375 C 460.62708 587.35132 481.41895 588.37163 502.1875 590.15625 C 543.0578 594.73025 583.3742 603.5075 621.9375 617.8125 C 625.1516 619.7925 651.99065 628.51525 644.28125 635.78125 C 641.63815 661.92725 632.995 686.8095 624.3125 711.4375 C 609.7309 750.7805 593.45055 789.48575 575.90625 827.59375 C 571.18484 837.31062 570.10013 839.59398 568.9375 841.875 C 508.09212 839.56857 447.19664 839.68121 386.4375 843.34375 C 392.92913 788.61041 400.84393 734.05871 411.59375 679.96875 C 417.6672 649.11909 423.91051 618.26741 430.75 587.5625 C 433.78991 587.50137 436.83309 587.45013 439.875 587.4375 z "
     id="path13058" />
</svg>
