<?xml version="1.0" encoding="UTF-8" standalone="no"?>
<svg
   xmlns:dc="http://purl.org/dc/elements/1.1/"
   xmlns:cc="http://creativecommons.org/ns#"
   xmlns:rdf="http://www.w3.org/1999/02/22-rdf-syntax-ns#"
   xmlns:svg="http://www.w3.org/2000/svg"
   xmlns="http://www.w3.org/2000/svg"
   xmlns:sodipodi="http://sodipodi.sourceforge.net/DTD/sodipodi-0.dtd"
   xmlns:inkscape="http://www.inkscape.org/namespaces/inkscape"
   width="1024"
   height="1024"
   id="U4ECA"
   version="1.1"
   inkscape:version="0.48.0 r9654"
   sodipodi:docname="U+4ECA.svg">
  <metadata
     id="metadata11">
    <rdf:RDF>
      <cc:Work
         rdf:about="">
        <dc:format>image/svg+xml</dc:format>
        <dc:type
           rdf:resource="http://purl.org/dc/dcmitype/StillImage" />
      </cc:Work>
    </rdf:RDF>
  </metadata>
  <defs
     id="defs9" />
  <sodipodi:namedview
     pagecolor="#ffffff"
     bordercolor="#666666"
     borderopacity="1"
     objecttolerance="10"
     gridtolerance="10"
     guidetolerance="10"
     inkscape:pageopacity="0"
     inkscape:pageshadow="2"
     inkscape:window-width="640"
     inkscape:window-height="480"
     id="namedview7"
     showgrid="false"
     inkscape:zoom="0.27441406"
     inkscape:cx="512"
     inkscape:cy="512"
     inkscape:window-x="0"
     inkscape:window-y="25"
     inkscape:window-maximized="0"
     inkscape:current-layer="U4ECA" />
  <path
     style="fill:#2b0000;fill-opacity:1;fill-rule:nonzero;stroke:#f9f9f9;stroke-width:0.1;stroke-miterlimit:4;stroke-dasharray:none"
     d="M 501.375 109.65625 C 499.35057 109.5889 497.64874 110.10884 496.34375 111.3125 C 466.29845 140.4135 436.4635 169.748 406.9375 199.375 C 365.7104 240.901 325.12505 283.0335 284.15625 324.8125 C 254.81785 354.5435 225.7587 384.57725 197.4375 415.28125 C 182.2639 430.41025 169.3991 445.83625 160.75 465.40625 C 155.76378 483.09211 235.96955 506.38225 246.3125 491.5625 C 233.82151 517.01742 256.44458 476.73293 262.96875 474.71875 C 290.05405 444.32975 318.1121 414.83075 346.5625 385.71875 C 387.0392 344.03875 427.2684 302.09425 468.5 261.15625 C 488.53339 241.35572 508.61632 221.62347 529.15625 202.34375 C 552.42161 230.14641 578.98691 255.02489 605.5625 279.625 C 645.2292 315.544 685.8796 350.34025 725.75 386.03125 C 746.1337 406.69725 772.55275 425.57075 783.09375 453.71875 C 783.11575 454.81875 783.13425 455.9 783.15625 457 C 787.95845 475.233 873.89595 452.607 869.09375 434.375 C 867.25255 428.402 865.43495 422.44075 863.59375 416.46875 C 844.71695 378.42875 815.96405 348.2565 783.90625 320.6875 C 744.32345 285.6715 704.11435 251.341 665.15625 215.625 C 639.25565 191.34 612.97885 166.9295 591.90625 138.1875 C 586.72093 130.80874 567.44437 138.59549 549.84375 150.4375 C 536.94953 131.49507 513.54983 110.0613 501.375 109.65625 z M 493.90625 373.96875 C 472.77946 374.73581 420.23676 418.57875 430.46875 431.625 C 450.51295 455.735 473.4381 477.153 496.4375 498.375 C 510.3765 511.224 503.67405 504.9495 516.59375 517.1875 C 530.30615 530.0505 590.93115 465.39425 577.21875 452.53125 C 563.47485 439.75325 570.4689 446.18425 556.3125 433.28125 C 536.7927 415.39225 517.0383 397.484 500.75 376.5 C 499.28829 374.63638 496.92436 373.85917 493.90625 373.96875 z M 626.09375 522.125 C 623.97253 522.12203 621.84634 522.118 619.71875 522.15625 C 566.85215 523.23625 514.10355 527.573 461.59375 533.75 C 419.29895 539.405 377.01285 545.86075 335.71875 556.84375 C 317.65485 562.51275 344.40485 647.669 362.46875 642 C 398.63745 631.164 436.08995 625.4995 473.40625 620.3125 C 522.38955 614.3465 571.645 610.3035 621 609.9375 C 626.14011 610.74625 635.78746 610.64895 645.625 611.25 C 632.63744 635.08343 620.2923 659.24714 608.21875 683.5625 C 586.03365 727.9935 566.02925 773.45625 547.84375 819.65625 C 537.97225 845.19525 529.1441 871.12125 520.6875 897.15625 C 515.0701 915.23025 600.2576 941.699 605.875 923.625 C 613.0679 899.323 620.81495 875.1745 629.71875 851.4375 C 646.47275 807.6355 665.2161 764.65175 686.5 722.84375 C 702.1623 691.93875 718.58285 661.453 736.21875 631.625 C 753.67235 596.489 753.35645 564.85225 717.59375 541.40625 C 688.97056 527.0025 657.91204 522.16951 626.09375 522.125 z M 667.59375 615 C 670.5068 616.14297 672.88854 617.58988 674.4375 619.5 C 671.76688 618.54071 669.50851 616.96236 667.59375 615 z "
     id="path9325" />
</svg>
