<?xml version="1.0" encoding="UTF-8" standalone="no"?>
<svg
   xmlns:dc="http://purl.org/dc/elements/1.1/"
   xmlns:cc="http://creativecommons.org/ns#"
   xmlns:rdf="http://www.w3.org/1999/02/22-rdf-syntax-ns#"
   xmlns:svg="http://www.w3.org/2000/svg"
   xmlns="http://www.w3.org/2000/svg"
   xmlns:sodipodi="http://sodipodi.sourceforge.net/DTD/sodipodi-0.dtd"
   xmlns:inkscape="http://www.inkscape.org/namespaces/inkscape"
   width="1024"
   height="1024"
   id="U4E2D"
   version="1.1"
   inkscape:version="0.48.0 r9654"
   sodipodi:docname="U+4E2D.svg">
  <metadata
     id="metadata11">
    <rdf:RDF>
      <cc:Work
         rdf:about="">
        <dc:format>image/svg+xml</dc:format>
        <dc:type
           rdf:resource="http://purl.org/dc/dcmitype/StillImage" />
      </cc:Work>
    </rdf:RDF>
  </metadata>
  <defs
     id="defs9" />
  <sodipodi:namedview
     pagecolor="#ffffff"
     bordercolor="#666666"
     borderopacity="1"
     objecttolerance="10"
     gridtolerance="10"
     guidetolerance="10"
     inkscape:pageopacity="0"
     inkscape:pageshadow="2"
     inkscape:window-width="640"
     inkscape:window-height="480"
     id="namedview7"
     showgrid="false"
     inkscape:zoom="0.27441406"
     inkscape:cx="512"
     inkscape:cy="512"
     inkscape:window-x="0"
     inkscape:window-y="25"
     inkscape:window-maximized="0"
     inkscape:current-layer="U4E2D" />
  <path
     style="fill:#2b1100;fill-opacity:1;fill-rule:nonzero;stroke:none"
     d="M 518.1875 167.15625 C 492.75653 167.00007 461.99617 173.88737 462.84375 185 C 468.48215 227.789 471.97975 270.7305 474.34375 313.8125 C 474.53755 319.78468 474.71979 325.77716 474.875 331.75 C 449.79832 334.25373 424.84305 338.04255 400.21875 343.6875 C 362.84065 353.1355 326.1242 364.8065 291.6875 382.4375 C 275.1503 391.2975 316.9003 469.234 333.4375 460.375 C 360.9772 444.919 391.08685 435.56175 421.53125 427.84375 C 439.51349 423.7584 457.68941 420.83578 475.96875 418.78125 C 476.01895 482.55302 474.65495 546.34582 473.46875 610.09375 C 473.30955 615.12461 473.17863 620.15663 473.03125 625.1875 C 439.15525 629.10025 405.35405 633.80409 371.71875 639.5 C 330.84045 646.825 290.15215 655.13575 250.40625 667.34375 C 232.57245 673.18575 260.1037 757.24825 277.9375 751.40625 C 313.4242 738.83325 350.3321 731.3445 387.25 724.4375 C 415.09218 719.50815 443.07544 715.38071 471.125 711.9375 C 470.39382 762.98779 470.38431 814.03141 471.3125 865.09375 C 472.2299 898.66275 472.8531 932.23925 474.5 965.78125 C 474.7272 968.49625 474.9604 971.19125 475.1875 973.90625 C 477.0835 992.56925 565.05225 983.63075 563.15625 964.96875 C 562.94205 963.33875 562.74535 961.72275 562.53125 960.09375 C 559.91455 927.71075 558.8034 895.2595 557.25 862.8125 C 555.37519 809.72911 554.71079 756.62525 555.125 703.53125 C 556.93894 703.38752 558.74821 703.23303 560.5625 703.09375 C 599.3607 699.95775 638.22835 701.28275 676.46875 708.46875 C 687.26675 711.53975 699.36745 712.416 709.34375 718 C 726.65985 725.428 761.65985 643.804 744.34375 636.375 C 729.26622 630.40398 713.56378 626.39984 697.65625 623.34375 C 700.28641 614.82503 702.8646 606.28301 705.34375 597.71875 C 715.83495 562.19175 726.98995 526.83175 736.28125 490.96875 C 743.74165 456.22375 748.5803 420.91725 731.75 387.90625 C 711.1641 357.23325 689.9427 344.81575 654.0625 337.09375 C 623.06579 331.02719 591.64954 327.95729 560.09375 327.59375 C 560.02909 321.68253 559.93722 315.78608 559.84375 309.875 C 558.16105 265.909 555.1493 222.08625 551.0625 178.28125 C 550.48258 170.67787 535.58764 167.26311 518.1875 167.15625 z M 245.53125 390.5625 C 219.4308 390.45813 185.50844 398.5825 186.78125 410.25 C 190.61685 440.344 197.1061 470.02075 203.1875 499.71875 C 210.2167 534.38875 219.74245 568.46925 233.59375 601.03125 C 242.44015 618.10925 237.701 609.958 247.75 625.5 C 258.3209 640.932 331.0709 591.08825 320.5 575.65625 C 316.1736 570.35825 318.4815 573.569 313.9375 565.75 C 301.737 539.26 294.76545 510.815 288.71875 482.375 C 283.27945 455.302 277.20655 428.20125 274.78125 400.65625 C 274.01756 393.65575 261.19152 390.62512 245.53125 390.5625 z M 560.125 414.6875 C 585.80499 415.1937 611.39381 417.57611 636.53125 423 C 637.55065 420.096 661.5197 432.012 656 433.125 C 656.0978 446.522 653.54645 459.49625 650.71875 472.53125 C 642.05905 506.25825 631.68455 539.54625 621.71875 572.90625 C 617.57295 587.08353 613.00838 601.11999 608.3125 615.125 C 591.1275 614.97533 573.92082 615.60208 556.71875 617.03125 C 556.77088 615.22758 556.82058 613.42867 556.875 611.625 C 558.05319 545.99345 559.61578 480.33474 560.125 414.6875 z "
     id="path15025" />
</svg>
