<?xml version="1.0" encoding="utf-8" ?>

<!DOCTYPE svg PUBLIC "-//W3C//DTD SVG 1.1//EN" 
  "http://www.w3.org/Graphics/SVG/1.1/DTD/svg11.dtd">
<svg 
    xmlns="http://www.w3.org/2000/svg"
    xmlns:xlink="http://www.w3.org/1999/xlink"
    xmlns:sodipodi="http://sodipodi.sourceforge.net/DTD/sodipodi-0.dtd"
    xmlns:inkscape="http://www.inkscape.org/namespaces/inkscape"
    width="1024" height="1024" id="U4E2A">
<path d="m 9745.6062,14568.366 c -31.8658,13.536 -58.1098,37.082 -83.7417,59.722 -56.2225,52.27 -103.6264,112.844 -148.7605,174.664 -29.3915,42.533 -59.0795,85.737 -77.3431,134.416 1.4432,-4.05 -6.398,17.805 -1.6654,14.35 1.128,18.502 -86.0893,23.819 -87.2173,5.318 l 0,0 c 0.033,-18.002 1.3207,-34.83 8.6014,-51.68 22.7272,-54.674 55.3253,-104.223 89.7803,-152.189 48.9082,-66.328 100.0074,-131.438 159.9286,-188.315 34.9219,-31.507 71.168,-63.353 115.7266,-80.39 17.8411,-5.238 42.5322,78.866 24.6911,84.104 z" id="path23709" inkscape:connector-curvature="0" style="fill:#550000;fill-opacity:1;fill-rule:nonzero;stroke:#f9f9f9;stroke-width:0.1;stroke-miterlimit:4;stroke-dasharray:none" transform="translate(-9216, -14336)"/><path d="m 9719.3139,14595.608 c 41.8574,36.135 75.6803,80.477 110.7951,122.923 42.9865,53.178 89.2608,103.515 135.7494,153.611 17.2294,18.087 33.5683,36.936 49.4976,56.162 11.525,14.177 -55.3065,68.507 -66.8315,54.329 l 0,0 c -14.448,-18.175 -29.4435,-35.867 -45.3078,-52.838 -47.0162,-51.507 -93.9924,-103.077 -138.1595,-157.082 -30.7811,-36.704 -60.4734,-75.256 -97.1692,-106.319 -15.016,-10.909 36.4099,-81.695 51.4259,-70.786 z" id="path23713" inkscape:connector-curvature="0" style="fill:#550000;fill-opacity:1;fill-rule:nonzero;stroke:#f9f9f9;stroke-width:0.1;stroke-miterlimit:4;stroke-dasharray:none" transform="translate(-9216, -14336)"/><path d="m 9747.2597,14798.821 c -12.6984,52.642 -16.9325,107.018 -22.7482,160.748 -8.4361,78.534 -15.9984,157.157 -22.2655,235.893 -0.7027,9.702 -1.4054,19.403 -2.1081,29.105 -1.4276,18.024 -86.3954,11.294 -84.9678,-6.73 l 0,0 c 0.8468,-9.86 1.6935,-19.721 2.5403,-29.581 7.1893,-79.17 15.2631,-158.253 23.1199,-237.359 5.8415,-58.966 10.0456,-118.433 22.456,-176.473 5.1755,-17.814 89.1489,6.584 83.9734,24.397 z" id="path23719" inkscape:connector-curvature="0" style="fill:#550000;fill-opacity:1;fill-rule:nonzero;stroke:#f9f9f9;stroke-width:0.1;stroke-miterlimit:4;stroke-dasharray:none" transform="translate(-9216, -14336)"/></svg>