<?xml version="1.0" encoding="UTF-8" standalone="no"?>
<svg
   xmlns:dc="http://purl.org/dc/elements/1.1/"
   xmlns:cc="http://creativecommons.org/ns#"
   xmlns:rdf="http://www.w3.org/1999/02/22-rdf-syntax-ns#"
   xmlns:svg="http://www.w3.org/2000/svg"
   xmlns="http://www.w3.org/2000/svg"
   xmlns:sodipodi="http://sodipodi.sourceforge.net/DTD/sodipodi-0.dtd"
   xmlns:inkscape="http://www.inkscape.org/namespaces/inkscape"
   width="1024"
   height="1024"
   id="U4EAE"
   version="1.1"
   inkscape:version="0.48.0 r9654"
   sodipodi:docname="U+4EAE.svg">
  <metadata
     id="metadata16">
    <rdf:RDF>
      <cc:Work
         rdf:about="">
        <dc:format>image/svg+xml</dc:format>
        <dc:type
           rdf:resource="http://purl.org/dc/dcmitype/StillImage" />
      </cc:Work>
    </rdf:RDF>
  </metadata>
  <defs
     id="defs14" />
  <sodipodi:namedview
     pagecolor="#ffffff"
     bordercolor="#666666"
     borderopacity="1"
     objecttolerance="10"
     gridtolerance="10"
     guidetolerance="10"
     inkscape:pageopacity="0"
     inkscape:pageshadow="2"
     inkscape:window-width="640"
     inkscape:window-height="480"
     id="namedview12"
     showgrid="false"
     inkscape:zoom="0.27441406"
     inkscape:cx="512"
     inkscape:cy="512"
     inkscape:window-x="0"
     inkscape:window-y="25"
     inkscape:window-maximized="0"
     inkscape:current-layer="U4EAE" />
  <path
     style="fill:#2b0000;fill-opacity:1;fill-rule:nonzero;stroke:#f9f9f9;stroke-width:0.1;stroke-miterlimit:4;stroke-dasharray:none"
     d="M 460.1875 5.84375 C 441.45304 5.4452743 394.12959 63.867437 407.375 75 C 425.0496 90.452 439.93575 108.7435 454.96875 126.6875 C 448.88275 118.3835 478.01385 155.6085 472.34375 150.1875 C 479.76725 167.4505 561.14235 132.4505 553.71875 115.1875 C 545.55905 98.4445 534.5092 83.972 522.0625 70.125 C 503.656 48.422 485.31905 26.52925 464.28125 7.28125 C 463.15877 6.3378906 461.77517 5.8775191 460.1875 5.84375 z M 624.03125 158.53125 C 598.35731 158.47254 572.68634 159.25306 547.03125 160.78125 C 476.81515 165.41825 406.7997 172.63425 337.1875 183.03125 C 294.3 189.38625 251.5342 196.66575 208.5 201.96875 C 189.9239 204.50775 201.89255 292.07025 220.46875 289.53125 C 263.72535 282.45925 306.8923 274.93075 350.1875 268.09375 C 417.2521 257.47575 484.78665 250.4655 552.53125 246.1875 C 606.35495 243.2935 660.3551 243.62825 713.9375 249.65625 C 738.9271 252.90125 763.27915 259.62225 787.34375 266.90625 L 794.71875 268.9375 C 812.86055 273.7125 835.36045 188.2125 817.21875 183.4375 C 815.41015 182.9985 813.6211 182.53275 811.8125 182.09375 C 782.6048 174.03075 753.1235 166.61625 722.9375 163.28125 C 690.0479 160.10031 657.04061 158.60674 624.03125 158.53125 z M 558.34375 257.96875 C 541.98383 258.114 525.62465 259.36525 509.34375 261.90625 C 479.19965 266.58325 449.13905 271.86225 419.53125 279.28125 C 413.30071 281.1394 412.26092 292.5365 414.3125 306.40625 C 412.27789 301.22786 410.19486 296.08399 408 290.96875 C 399.9279 274.01775 320.02165 312.08025 328.09375 329.03125 C 337.70175 349.90225 344.8441 371.7985 352.5 393.4375 C 357.62401 409.09808 363.47132 424.41407 370.96875 438.9375 C 364.46228 464.63489 366.40089 508.37032 379.5625 508.96875 C 408.32309 510.12608 437.09463 510.70583 465.875 510.875 C 440.3807 515.45322 414.84182 519.79634 389.1875 523.40625 C 356.0513 527.62025 322.79405 530.57275 289.46875 532.84375 C 285.10277 533.346 282.34845 538.57262 280.875 546.21875 C 256.00258 539.28618 222.76167 537.96202 220.78125 549.25 C 216.95695 574.954 212.7932 600.61 208.5625 626.25 C 204.7902 647.242 201.97175 668.38725 200.40625 689.65625 C 199.53985 696.57425 200.24415 703.2995 200.96875 710.1875 C 204.10886 728.28882 287.33736 714.35096 288.625 696.4375 C 288.63847 696.75588 288.64543 696.92148 288.65625 697.1875 C 288.64375 696.22602 288.65125 695.34375 288.71875 695 C 289.49575 676.677 291.95895 658.4995 295.09375 640.4375 C 296.15843 633.88781 297.25014 627.33194 298.3125 620.78125 C 298.73442 620.82577 299.16245 620.83087 299.59375 620.78125 C 333.28385 617.26125 366.96095 614.0235 400.53125 609.4375 C 453.65975 601.4885 506.34895 590.89025 559.28125 581.78125 C 599.30485 575.06525 639.67685 570.90375 680.09375 567.46875 C 705.59965 565.33375 731.1581 563.661 756.75 563.125 C 756.89734 562.67174 758.31724 562.50767 760.375 562.53125 C 759.61785 566.40782 758.77113 570.27771 757.9375 574.125 C 751.7555 598.652 744.695 622.9215 738 647.3125 C 734.0359 661.3745 731.10655 675.6825 728.59375 690.0625 C 725.62655 708.5775 812.9079 722.5775 815.875 704.0625 C 817.4693 692.7055 819.58205 681.437 822.65625 670.375 C 829.60905 644.615 837.262 619.05175 843.9375 593.21875 C 848.2616 574.11775 852.62735 554.67475 850.34375 534.96875 C 846.61785 511.74575 835.4941 492.502 813.125 482.625 C 794.0688 475.911 774.53545 473.89475 754.34375 475.09375 C 726.95815 475.99075 699.62725 477.94575 672.34375 480.46875 C 651.44602 482.41313 630.5531 484.55882 609.71875 487.09375 C 610.48241 485.38074 611.22393 483.61449 611.9375 481.8125 C 621.33292 484.45261 628.83056 484.43093 631.34375 480 C 635.99145 470.212 639.44645 460.435 641.84375 449.875 C 648.10745 431.309 655.2179 413.025 663.1875 395.125 C 670.1071 380.492 677.92115 366.35375 686.65625 352.71875 C 703.07455 321.17875 696.07945 291.992 664.46875 274.25 C 646.22655 266.662 626.99645 262.99425 607.40625 260.65625 C 591.08185 258.77225 574.70367 257.8235 558.34375 257.96875 z M 559.71875 345.4375 C 569.40512 345.42305 579.0838 345.96221 588.75 347 C 587.01319 350.53774 585.3007 354.08629 583.625 357.65625 C 574.4319 378.35525 566.1453 399.46325 558.5 420.78125 C 558.48997 420.9448 558.3565 421.46758 558.15625 422.15625 C 531.39735 422.74006 504.64345 423.67523 477.875 423.75 C 469.48921 423.71694 461.10508 423.65046 452.71875 423.53125 C 454.91822 416.28925 455.56026 410.10705 453.875 406.34375 C 453.33106 405.64736 452.81682 404.93943 452.3125 404.21875 C 452.52107 404.39551 452.68832 404.56027 452.90625 404.75 C 452.6458 404.43509 452.37967 404.12857 452.0625 403.875 C 443.91971 392.03599 440.77922 377.15741 435.21875 364.125 C 434.3092 361.56518 433.40228 359.00069 432.5 356.4375 C 436.60455 362.11778 440.87734 365.23631 444.8125 364.0625 C 470.3699 356.8465 496.6058 352.35 522.8125 348.25 C 535.0864 346.3445 547.40443 345.45588 559.71875 345.4375 z M 452.90625 404.75 C 453.29512 405.22019 453.60729 405.74593 453.875 406.34375 C 454.05393 406.57283 454.22278 406.80496 454.40625 407.03125 C 455.48925 407.12258 454.20649 405.88197 452.90625 404.75 z M 625.03125 353.625 C 625.86067 353.95772 626.61815 354.30604 627.25 354.6875 C 626.47896 354.35958 625.75073 353.99358 625.03125 353.625 z M 778.75 564.4375 C 780.82679 564.76905 781.66225 564.95195 779.90625 564.78125 C 779.51163 564.68119 779.13302 564.56668 778.75 564.4375 z M 595.84375 619.65625 C 589.51353 619.74243 583.06722 620.36719 576.46875 621.5 C 549.98095 624.701 523.48765 627.4075 496.78125 627.9375 C 466.93005 629.4675 437.16685 632.31575 407.34375 634.21875 C 400.98656 634.61325 397.45713 645.05828 396.25 658.625 C 375.52526 655.54339 355.09161 656.77919 353.59375 665.5625 C 348.66715 697.2715 341.12325 728.49325 334.09375 759.78125 C 327.34565 790.77225 320.3064 821.7175 314.6875 852.9375 C 311.7921 864.7295 311.89555 877.1175 309.28125 888.9375 C 308.40535 892.2225 307.3888 895.7795 306.5625 899.3125 C 302.6561 917.7875 389.74975 936.19175 393.65625 917.71875 C 394.38395 914.74475 396.07775 908.32475 396.78125 903.84375 C 398.65185 891.84575 399.33285 879.69375 401.40625 867.71875 C 406.15055 837.90575 412.7645 808.4375 419.125 778.9375 C 423.51498 759.47526 428.01007 740.045 432.3125 720.5625 C 455.24463 718.3513 478.169 716.40583 501.1875 715.25 C 528.67672 714.6444 556.02201 712.14236 583.34375 709.28125 C 582.93209 724.1166 582.20663 738.95447 581.5625 753.78125 C 579.8946 780.43725 578.5477 807.1085 578 833.8125 C 576.6588 861.9075 579.81615 889.3515 588.90625 915.9375 C 598.80735 941.5675 616.98415 959.09975 641.03125 971.34375 C 665.57695 981.29175 691.6975 979.93925 717.4375 977.03125 C 744.3972 973.26925 771.2249 968.5305 797.9375 963.3125 C 820.2017 958.6455 842.42765 953.83675 864.59375 948.71875 C 879.53005 945.04175 894.0917 940 908.75 935.375 L 913.40625 933.90625 C 931.29695 928.13825 904.10945 843.7945 886.21875 849.5625 C 884.69195 850.0695 883.18315 850.58675 881.65625 851.09375 C 869.27955 855.14675 856.98085 859.49825 844.40625 862.90625 C 823.34895 867.97225 802.20685 872.67775 781.03125 877.21875 C 756.61415 882.04375 732.07675 886.305 707.40625 889.625 C 697.62665 890.778 687.77515 891.543 677.96875 891 C 676.78165 893.945 672.32425 887.01 671.78125 885.75 C 664.98315 869.922 665.6485 852.417 665.6875 835.5 C 666.1497 809.596 667.69865 783.75125 669.46875 757.90625 C 670.34225 740.57125 671.4335 723.25125 672.0625 705.90625 C 672.3562 694.20925 672.78215 682.39625 670.09375 670.90625 C 664.63785 652.15425 654.2012 637.154 636.75 627.625 C 623.17545 621.92975 609.77023 619.46666 595.84375 619.65625 z M 288.6875 698.09375 C 288.73928 700.04129 288.79555 700.92498 288.6875 698.09375 z "
     id="path9948" />
</svg>
