<?xml version="1.0" encoding="UTF-8" standalone="no"?>
<svg
   xmlns:dc="http://purl.org/dc/elements/1.1/"
   xmlns:cc="http://creativecommons.org/ns#"
   xmlns:rdf="http://www.w3.org/1999/02/22-rdf-syntax-ns#"
   xmlns:svg="http://www.w3.org/2000/svg"
   xmlns="http://www.w3.org/2000/svg"
   xmlns:sodipodi="http://sodipodi.sourceforge.net/DTD/sodipodi-0.dtd"
   xmlns:inkscape="http://www.inkscape.org/namespaces/inkscape"
   width="1024"
   height="1024"
   id="U4E8B"
   version="1.1"
   inkscape:version="0.48.0 r9654"
   sodipodi:docname="U+4E8B.svg">
  <metadata
     id="metadata15">
    <rdf:RDF>
      <cc:Work
         rdf:about="">
        <dc:format>image/svg+xml</dc:format>
        <dc:type
           rdf:resource="http://purl.org/dc/dcmitype/StillImage" />
      </cc:Work>
    </rdf:RDF>
  </metadata>
  <defs
     id="defs13" />
  <sodipodi:namedview
     pagecolor="#ffffff"
     bordercolor="#666666"
     borderopacity="1"
     objecttolerance="10"
     gridtolerance="10"
     guidetolerance="10"
     inkscape:pageopacity="0"
     inkscape:pageshadow="2"
     inkscape:window-width="640"
     inkscape:window-height="480"
     id="namedview11"
     showgrid="false"
     inkscape:zoom="0.27441406"
     inkscape:cx="512"
     inkscape:cy="512"
     inkscape:window-x="0"
     inkscape:window-y="25"
     inkscape:window-maximized="0"
     inkscape:current-layer="U4E8B" />
  <path
     style="fill:#a02c2c;fill-opacity:1;fill-rule:nonzero;stroke:#f9f9f9;stroke-width:0.1;stroke-miterlimit:4;stroke-dasharray:none"
     d="M 517.125 48.78125 C 508.5037 48.901406 502.27682 50.87275 501.0625 55.40625 C 495.13437 81.382155 492.82908 107.87275 491.8125 134.4375 C 444.60572 136.56741 397.45278 139.90252 350.46875 145.25 C 312.07765 149.182 273.5572 152.65375 235.5625 159.59375 C 217.2149 163.61275 236.18365 250.11275 254.53125 246.09375 C 289.16155 238.47275 324.5651 235.0735 359.75 231.0625 C 403.34043 225.6315 447.10052 222.24935 490.9375 220.125 C 490.95072 231.89728 490.94412 243.66693 490.875 255.4375 C 473.06019 255.90811 455.28902 257.37665 437.5625 260 C 406.4928 264.632 375.44335 270.158 345.53125 280 C 343.54659 280.73229 342.19129 282.43741 341.34375 284.875 C 315.63994 284.51584 283.65595 291.54278 284.5625 302.875 C 286.7526 328.656 290.4699 354.18475 296.5 379.34375 C 300.1186 394.89075 306.35885 409.29525 314.09375 423.15625 C 316.42317 427.00247 322.55397 427.28102 330.375 425.28125 C 329.16577 449.62351 333.7828 477.15625 344.25 477.15625 C 380.1657 475.67525 416.04015 473.365 451.90625 471 C 462.91542 470.16321 473.95316 469.38595 484.96875 468.6875 C 484.28472 481.32858 483.49046 493.96657 482.625 506.59375 C 447.22319 509.22309 411.78961 511.29009 376.28125 511.625 C 335.42175 511.501 294.57295 510.2655 253.84375 506.8125 C 235.12425 505.9025 230.843 594.1525 249.5625 595.0625 C 291.8014 596.9235 334.0312 598.05625 376.3125 597.90625 C 409.33534 597.41261 442.31119 595.62193 475.25 593.34375 C 474.90386 596.75693 474.54671 600.18189 474.1875 603.59375 C 443.89025 606.25184 413.61621 609.33249 383.40625 612.9375 C 338.50365 618.1755 293.30665 622.71775 249.28125 633.34375 C 232.74084 638.39378 253.39938 710.6958 270.78125 717.59375 C 266.36687 742.93724 275.50428 792.72862 289.59375 791.125 C 326.18765 787.285 363.0575 786.5965 399.8125 785.4375 C 415.67421 785.03816 431.54529 784.61521 447.40625 784.1875 C 442.79737 808.11326 437.95133 831.98962 433.15625 855.875 C 428.11312 879.56503 424.29291 903.49752 419.75 927.28125 C 417.94993 928.1435 416.16701 929.02668 414.375 929.90625 C 397.5695 938.33625 437.28835 1017.5863 454.09375 1009.1562 C 457.77985 1007.1792 461.70845 1005.7242 465.53125 1004.0312 C 487.58875 992.35925 501.6673 974.46325 505.375 949.40625 C 509.8188 923.76025 513.4173 897.95525 518.4375 872.40625 C 524.07137 842.24468 529.82322 812.08329 535.21875 781.875 C 547.23758 781.5798 559.26146 781.28884 571.28125 781.03125 C 616.38325 780.36725 661.48535 779.225 706.59375 779.125 C 710.81145 779.214 715.0324 779.31625 719.25 779.40625 C 732.88128 779.53155 736.9259 732.50771 730.8125 707.28125 C 747.42284 710.61334 762.15959 710.31774 764.28125 703.15625 C 765.01505 700.57725 765.73495 697.98425 766.46875 695.40625 C 767.97788 689.10789 769.30824 682.79137 770.53125 676.4375 C 772.77949 676.47171 775.03303 676.52143 777.28125 676.5625 C 798.42045 677.0955 819.4911 678.51475 840.5625 680.21875 C 859.1518 681.49475 865.18305 593.86975 846.59375 592.59375 C 826.28294 591.43222 805.96685 590.42206 785.625 590.03125 C 786.92942 582.98775 788.21075 575.92525 789.3125 568.84375 C 789.1263 534.06275 776.37895 513.7835 742.09375 504.8125 C 720.39125 499.8925 698.33975 496.65825 676.03125 496.53125 C 639.85583 495.94106 603.70001 497.11662 567.625 499.78125 C 568.33032 488.26966 568.96213 476.77145 569.53125 465.25 C 572.41529 465.20992 575.3027 465.17774 578.1875 465.15625 C 597.311 465.44025 588.2586 465.1105 605.3125 465.9375 C 611.29151 466.14872 615.68041 457.2209 618.25 445 C 636.40635 457.6023 657.24574 466.35874 662.59375 458.65625 C 664.31315 456.08425 666.0306 453.5105 667.75 450.9375 C 678.8313 432.1095 688.2667 412.4395 697.3125 392.5625 C 707.4391 369.8005 717.47055 347.449 709.34375 322.25 C 700.85145 307.593 691.56605 296.5675 675.84375 289.6875 C 663.10595 283.4255 650.1388 277.4835 636.375 273.8125 C 616.37199 268.4438 596.1728 263.71951 575.71875 260.4375 C 575.94465 246.16357 576.15505 231.90118 576.3125 217.625 C 620.45449 217.23623 664.59139 217.88501 708.6875 219.96875 C 724.7736 221.41375 741.41165 221.87025 756.90625 226.90625 C 775.00495 231.76225 797.87995 146.44875 779.78125 141.59375 C 757.58895 136.11675 734.87725 133.67175 712.03125 132.96875 C 667.58584 131.62297 623.11763 131.36552 578.65625 131.90625 C 579.91 113.83976 582.14215 95.892249 586.53125 78.3125 C 590.17423 64.712 542.98889 48.420781 517.125 48.78125 z M 489.5625 342.6875 C 489.2602 355.66052 488.93526 368.62275 488.53125 381.59375 C 474.50015 382.4331 460.46101 383.36346 446.4375 384.375 C 426.98557 385.5481 407.53819 386.75215 388.0625 387.59375 C 390.57699 383.61482 391.39552 380.06074 389.75 377.34375 C 385.30599 374.35626 384.71273 366.14727 382.90625 360.75 C 404.85423 353.60688 427.72234 349.76143 450.5 346.3125 C 463.4856 344.38373 476.51624 343.19575 489.5625 342.6875 z M 573.8125 349.03125 C 586.93428 351.72665 599.91777 355.12082 612.78125 358.84375 C 613.6925 359.11128 614.60203 359.41722 615.5 359.71875 C 612.67946 365.92207 609.85043 372.11913 606.875 378.25 C 589.5909 377.81779 597.88516 377.90863 577 377.9375 C 575.64331 377.9634 574.29404 378.00222 572.9375 378.03125 C 573.24644 368.36438 573.5459 358.69911 573.8125 349.03125 z M 637.84375 369.96875 C 639.71768 371.10959 639.17982 370.91067 637.84375 369.96875 z M 644 583.53125 C 653.99311 583.53758 663.97508 583.71 673.96875 584.03125 C 681.6128 584.16658 689.19603 584.83485 696.71875 585.90625 C 696.42776 587.50953 696.12968 589.11457 695.84375 590.71875 C 662.5174 591.51645 629.1955 592.88421 595.90625 594.78125 C 583.94166 595.5009 571.99068 596.26665 560.03125 597.0625 C 560.354 593.65874 560.65793 590.24861 560.96875 586.84375 C 588.60071 584.69738 616.29953 583.51371 644 583.53125 z M 715.84375 589.5 C 716.91846 589.74741 717.9903 590.02034 719.0625 590.28125 C 718.35345 590.29248 717.64654 590.30074 716.9375 590.3125 C 716.57002 590.06179 716.20919 589.79731 715.84375 589.5 z M 679.8125 676.875 C 679.69051 677.25849 679.5595 677.64789 679.4375 678.03125 C 678.1027 682.53676 682.44305 687.48245 689.75 692.09375 C 649.61551 693.01759 609.48459 694.27825 569.34375 694.9375 C 562.57136 695.0961 555.80346 695.27079 549.03125 695.4375 C 549.55621 691.36773 550.08589 687.29041 550.59375 683.21875 C 567.38616 682.04693 584.16408 680.98906 600.96875 680 C 627.22725 678.55489 653.52871 677.50348 679.8125 676.875 z M 463.65625 690.4375 C 463.57576 691.02055 463.48711 691.6045 463.40625 692.1875 C 463.13855 693.98106 462.8676 695.76999 462.59375 697.5625 C 440.87553 698.08609 419.15889 698.58369 397.4375 698.96875 C 393.71901 699.05639 390.0003 699.13416 386.28125 699.21875 C 388.79159 698.90434 391.30499 698.60024 393.8125 698.28125 C 417.05524 695.28714 440.34323 692.71666 463.65625 690.4375 z "
     id="path12395" />
</svg>
