<?xml version="1.0" encoding="UTF-8" standalone="no"?>
<svg
   xmlns:dc="http://purl.org/dc/elements/1.1/"
   xmlns:cc="http://creativecommons.org/ns#"
   xmlns:rdf="http://www.w3.org/1999/02/22-rdf-syntax-ns#"
   xmlns:svg="http://www.w3.org/2000/svg"
   xmlns="http://www.w3.org/2000/svg"
   xmlns:sodipodi="http://sodipodi.sourceforge.net/DTD/sodipodi-0.dtd"
   xmlns:inkscape="http://www.inkscape.org/namespaces/inkscape"
   width="1024"
   height="1024"
   id="U4E30"
   version="1.1"
   inkscape:version="0.48.0 r9654"
   sodipodi:docname="U+4E30.svg">
  <metadata
     id="metadata11">
    <rdf:RDF>
      <cc:Work
         rdf:about="">
        <dc:format>image/svg+xml</dc:format>
        <dc:type
           rdf:resource="http://purl.org/dc/dcmitype/StillImage" />
      </cc:Work>
    </rdf:RDF>
  </metadata>
  <defs
     id="defs9" />
  <sodipodi:namedview
     pagecolor="#ffffff"
     bordercolor="#666666"
     borderopacity="1"
     objecttolerance="10"
     gridtolerance="10"
     guidetolerance="10"
     inkscape:pageopacity="0"
     inkscape:pageshadow="2"
     inkscape:window-width="640"
     inkscape:window-height="480"
     id="namedview7"
     showgrid="false"
     inkscape:zoom="0.27441406"
     inkscape:cx="512"
     inkscape:cy="512"
     inkscape:window-x="0"
     inkscape:window-y="25"
     inkscape:window-maximized="0"
     inkscape:current-layer="U4E30" />
  <path
     style="fill:#550000;fill-opacity:1;fill-rule:nonzero;stroke:#f9f9f9;stroke-width:0.1;stroke-miterlimit:4;stroke-dasharray:none"
     d="M 480.21875 174.71875 C 466.47725 174.86106 455.64499 177.63481 454.78125 183.96875 C 450.83645 228.81375 451.1582 273.92725 450.75 318.90625 C 450.58479 340.55399 450.36605 362.197 450.125 383.84375 C 440.92425 384.95539 431.72771 386.0739 422.53125 387.21875 C 366.23305 394.70175 309.8125 402.21125 254.375 414.78125 C 236.4945 419.66725 259.52575 503.9495 277.40625 499.0625 C 328.61785 485.2555 381.38655 478.27175 433.84375 471.09375 C 438.92923 470.44898 444.00608 469.8154 449.09375 469.1875 C 448.61547 508.09482 448.16815 546.99656 447.875 585.90625 C 447.84072 589.93452 447.83122 593.9719 447.8125 598 C 420.85598 600.66928 393.924 603.6919 367.09375 607.46875 C 348.75555 610.58275 363.44305 697.02025 381.78125 693.90625 C 403.869 689.80406 426.1466 686.87082 448.46875 684.40625 C 448.81167 702.14834 449.26424 719.88757 449.8125 737.625 C 402.90794 739.35524 356.08106 742.38627 309.375 747.46875 C 260.7408 752.71875 212.20945 759.5435 163.40625 762.9375 C 144.84205 763.6625 148.27965 851.1625 166.84375 850.4375 C 217.65035 845.0915 268.17675 837.4835 318.90625 831.4375 C 363.47416 826.12778 408.20455 823.03287 453 821.3125 C 454.98182 863.75409 457.40798 906.15688 459.46875 948.59375 C 460.65365 967.00575 547.46615 961.412 546.28125 943 C 542.97795 901.86475 540.37329 860.69731 537.96875 819.5 C 549.02991 819.43172 560.09608 819.40953 571.15625 819.4375 C 639.62205 820.2245 708.03805 823.4135 776.28125 828.9375 C 799.32345 830.8865 822.35715 833.204 844.96875 838.125 C 863.05455 841.656 879.7108 756.406 861.625 752.875 C 835.504 748.182 809.1168 745.39575 782.625 743.71875 C 712.2595 738.91475 641.74955 736.16075 571.21875 735.59375 C 558.8419 735.60012 546.47099 735.63678 534.09375 735.75 C 533.3473 716.11338 532.74135 696.48844 532.28125 676.84375 C 554.93434 675.11454 577.60558 673.67522 600.3125 673.09375 C 618.7296 672.36375 615.2921 585.55125 596.875 586.28125 C 575.01892 587.40787 553.19229 588.99876 531.375 590.75 C 531.38074 589.32147 531.39828 587.89731 531.40625 586.46875 C 531.64385 544.22969 532.11994 501.98323 532.78125 459.75 C 561.03199 456.8717 589.30592 454.30651 617.625 452.1875 C 635.5217 451.6725 653.71415 448.88225 671.53125 451.78125 C 689.95145 453.55625 698.32655 366.7115 679.90625 364.9375 C 656.76855 363.3465 633.71 364.499 610.625 366.75 C 585.18802 369.01428 559.76884 371.51832 534.375 374.21875 C 534.74034 356.25001 535.09737 338.28068 535.5 320.3125 C 536.5165 278.8045 536.70485 237.0835 541.65625 195.8125 C 543.30521 183.72044 506.45252 174.44707 480.21875 174.71875 z "
     id="path23027" />
</svg>
