<?xml version="1.0" encoding="utf-8" ?>

<!DOCTYPE svg PUBLIC "-//W3C//DTD SVG 1.1//EN" 
  "http://www.w3.org/Graphics/SVG/1.1/DTD/svg11.dtd">
<svg 
    xmlns="http://www.w3.org/2000/svg"
    xmlns:xlink="http://www.w3.org/1999/xlink"
    xmlns:sodipodi="http://sodipodi.sourceforge.net/DTD/sodipodi-0.dtd"
    xmlns:inkscape="http://www.inkscape.org/namespaces/inkscape"
    width="1024" height="1024" id="U4E09">
<path d="m 10475.802,41280.144 c 42.162,2.07 84.396,0.717 126.563,-0.473 58.587,-1.71 117.112,-4.904 175.649,-7.775 32.64,-1.88 65.255,-2.059 97.262,4.986 18.102,4.614 -3.651,89.95 -21.754,85.335 l 0,0 c -22.451,-8.387 -48.407,-2.873 -71.645,-4.055 -58.935,2.385 -117.838,5.515 -176.785,7.627 -43.954,1.541 -87.92,2.965 -131.908,2.713 -18.744,-0.555 -16.126,-88.913 2.618,-88.358 z" id="path11659" inkscape:connector-curvature="0" style="fill:#a02c2c;fill-opacity:1;fill-rule:nonzero;stroke:#f9f9f9;stroke-width:0.1;stroke-miterlimit:4;stroke-dasharray:none" transform="translate(-10240, -40960)"/><path d="m 10575.445,41452.821 c 33.287,3.366 66.822,2.536 100.222,2.068 35.971,-0.92 71.983,-1.962 107.095,6.755 17.971,5.111 -6.122,89.826 -24.093,84.716 l 0,0 c -24.013,-10.247 -56.483,-2.129 -81.735,-4.519 -36.578,0.552 -73.202,1.257 -109.743,-0.975 -18.677,-1.751 -10.423,-89.796 8.254,-88.045 z" id="path11661" inkscape:connector-curvature="0" style="fill:#a02c2c;fill-opacity:1;fill-rule:nonzero;stroke:#f9f9f9;stroke-width:0.1;stroke-miterlimit:4;stroke-dasharray:none" transform="translate(-10240, -40960)"/><path d="m 10371.979,41665.529 c 53.396,-1.244 106.53,-7.612 159.568,-13.49 83.654,-10.002 167.423,-18.883 251.37,-26.006 62.225,-5.146 124.57,-8.801 187.004,-9.735 16.013,-0.202 32.009,0.14 48.003,0.843 18.609,1.074 13.55,88.8 -5.059,87.727 l 0,0 c -14.114,-1.06 -28.245,-1.625 -42.402,-1.743 -60.255,-0.188 -120.455,2.822 -180.524,7.479 -83.075,6.742 -165.952,15.501 -248.634,26.041 -55.363,6.632 -110.747,13.452 -166.403,17.148 -18.724,0.62 -21.646,-87.644 -2.923,-88.264 z" id="path11663" inkscape:connector-curvature="0" style="fill:#a02c2c;fill-opacity:1;fill-rule:nonzero;stroke:#f9f9f9;stroke-width:0.1;stroke-miterlimit:4;stroke-dasharray:none" transform="translate(-10240, -40960)"/><path d="m 11244.585,41539.867 c 43.869,-15.446 89.494,-24.808 134.986,-33.98 64.56,-12.224 129.032,-24.887 193.455,-37.805 55.909,-12.026 112.325,-20.965 169.442,-24.023 20.445,-1.04 40.774,-0.07 60.939,3.27 18.377,3.615 1.334,90.243 -17.042,86.628 l 0,0 c -12.877,-3.846 -26.769,-2.519 -40.005,-3.024 -52.792,1.821 -104.888,10.154 -156.534,21.085 -64.301,12.846 -128.611,25.648 -192.976,38.172 -40.598,8.463 -81.573,16.735 -120.249,32.102 -17.485,6.791 -49.501,-75.634 -32.016,-82.425 z" id="path11673" inkscape:connector-curvature="0" style="fill:#a02c2c;fill-opacity:1;fill-rule:nonzero;stroke:#f9f9f9;stroke-width:0.1;stroke-miterlimit:4;stroke-dasharray:none" transform="translate(-10240, -40960)"/></svg>