<?xml version="1.0" encoding="utf-8" ?>

<!DOCTYPE svg PUBLIC "-//W3C//DTD SVG 1.1//EN" 
  "http://www.w3.org/Graphics/SVG/1.1/DTD/svg11.dtd">
<svg 
    xmlns="http://www.w3.org/2000/svg"
    xmlns:xlink="http://www.w3.org/1999/xlink"
    xmlns:sodipodi="http://sodipodi.sourceforge.net/DTD/sodipodi-0.dtd"
    xmlns:inkscape="http://www.inkscape.org/namespaces/inkscape"
    width="1024" height="1024" id="U4E48">
<path d="m 8681.4214,33039.494 c -26.6489,30.078 -49.296,63.432 -71.936,96.55 -32.2141,47.053 -61.5827,95.938 -89.2184,145.792 -15.6061,27.683 -28.4805,56.701 -39.4756,86.477 -1.6541,4.516 -4.0289,11.269 -4.7211,15.325 -3.8153,18.434 -90.7136,0.448 -86.8983,-17.986 l 0,0 c 2.3701,-9.898 5.5341,-19.506 9.4501,-28.915 13.2674,-33.375 28.2654,-66.027 46.1881,-97.196 29.2904,-51.712 60.122,-102.542 93.327,-151.85 24.4812,-36.426 49.1444,-72.836 77.02,-106.789 12.4291,-14.056 78.6934,44.535 66.2642,58.592 z" id="path10972" inkscape:connector-curvature="0" style="fill:#c83737;fill-opacity:1;fill-rule:nonzero;stroke:#f9f9f9;stroke-width:0.1;stroke-miterlimit:4;stroke-dasharray:none" transform="translate(-8192, -32768)"/><path d="m 8752.4281,33253.826 c -26.4905,32.794 -50.9211,67.197 -75.2846,101.581 -34.2603,47.627 -65.504,97.247 -93.9084,148.556 -16.7608,31.357 -31.7123,63.636 -45.1021,96.563 -4.9766,12.795 -9.9545,25.588 -14.3337,38.601 -1.3376,3.854 -1.9419,7.888 -2.7966,11.865 -0.138,0.636 -0.4102,2.559 -0.414,1.908 -0.1417,-24.511 5.149,-23.747 -20.0052,-46.63 -5.668,-5.157 -25.2982,-4.552 -14.6831,-6.255 26.4045,-5.723 52.7073,-11.661 79.3622,-16.147 44.5032,-7.093 89.3611,-11.401 134.333,-13.957 45.4533,-1.465 90.8954,-1.446 136.2951,-4.324 32.3945,-2.68 64.8721,-4.131 97.3755,-3.733 27.8744,0.03 45.2011,4.808 65.8463,24.116 3.1238,6.032 6.2476,12.063 9.3714,18.094 5.4078,18.064 -79.7472,43.557 -85.155,25.493 l 0,0 c 2.7114,4.653 5.4228,9.307 8.1341,13.96 14.7396,11.947 20.5424,7.195 -0.031,6.3 -30.1209,-0.938 -60.2383,0.23 -90.2793,2.565 -45.5153,2.642 -91.0587,2.751 -136.6178,4.101 -41.7148,2.389 -83.3093,6.569 -124.545,13.432 -26.8002,4.678 -53.1088,11.319 -79.6268,17.325 -4.9633,0.834 -16.1066,3.029 -20.8428,2.34 -31.7304,-4.617 -52.3894,-24.19 -45.2826,-57.913 1.7064,-7.334 3.1587,-14.744 5.8714,-21.799 5.2393,-14.553 11.1074,-28.862 17.0053,-43.158 15.2641,-35.746 32.0762,-70.818 50.7758,-104.906 30.2954,-53.611 63.1377,-105.686 98.7571,-155.941 25.1062,-36.011 50.4223,-71.881 76.6317,-107.101 11.6807,-14.669 80.8302,40.395 69.1495,55.064 z" id="path10974" inkscape:connector-curvature="0" style="fill:#c83737;fill-opacity:1;fill-rule:nonzero;stroke:#f9f9f9;stroke-width:0.1;stroke-miterlimit:4;stroke-dasharray:none" transform="translate(-8192, -32768)"/><path d="m 8888.7604,33424.138 c 21.5232,27.348 42.495,55.106 63.058,83.181 22.204,30.59 45.027,60.729 66.7433,91.669 12.8489,18.089 24.6582,36.812 33.9738,56.957 7.545,17.144 -73.2716,52.712 -80.8166,35.568 l 0,0 c -5.9904,-15.391 -16.0011,-28.799 -24.9008,-42.58 -21.0583,-30.525 -43.4254,-60.115 -65.2104,-90.121 -19.9331,-27.141 -40.1583,-54.091 -62.0667,-79.687 -11.6645,-14.684 57.5548,-69.671 69.2194,-54.987 z" id="path10976" inkscape:connector-curvature="0" style="fill:#c83737;fill-opacity:1;fill-rule:nonzero;stroke:#f9f9f9;stroke-width:0.1;stroke-miterlimit:4;stroke-dasharray:none" transform="translate(-8192, -32768)"/></svg>