<?xml version="1.0" encoding="utf-8" ?>

<!DOCTYPE svg PUBLIC "-//W3C//DTD SVG 1.1//EN" 
  "http://www.w3.org/Graphics/SVG/1.1/DTD/svg11.dtd">
<svg 
    xmlns="http://www.w3.org/2000/svg"
    xmlns:xlink="http://www.w3.org/1999/xlink"
    xmlns:sodipodi="http://sodipodi.sourceforge.net/DTD/sodipodi-0.dtd"
    xmlns:inkscape="http://www.inkscape.org/namespaces/inkscape"
    width="1024" height="1024" id="U4EB2">
<path d="m 9657.9205,39028.855 c 20.6381,24.887 38.3712,51.997 57.071,78.331 10.0628,14.226 20.7068,28.024 31.4311,41.753 11.3336,14.84 -58.622,68.267 -69.9556,53.427 l 0,0 c -11.0571,-14.793 -22.0916,-29.606 -32.7233,-44.71 -16.4077,-23.218 -32.04,-47.167 -50.746,-68.629 -12.7645,-13.772 52.1583,-73.944 64.9228,-60.172 z" id="path11091" inkscape:connector-curvature="0" style="fill:#c83737;fill-opacity:1;fill-rule:nonzero;stroke:#f9f9f9;stroke-width:0.1;stroke-miterlimit:4;stroke-dasharray:none" transform="translate(-9216, -38912)"/><path d="m 9433.0354,39184.001 c 47.6859,-4.023 95.4711,-6.449 143.2755,-8.498 66.0074,-2.281 132.0072,-4.533 197.9599,-8.092 41.7019,-2.544 83.3878,-5.345 125.0727,-8.15 19.251,-2.032 37.0147,-1.485 55.6036,3.57 17.2661,7.612 -18.6162,89.005 -35.8823,81.394 l 0,0 c 30.0712,7.034 -7.9781,-0.305 -14.8387,2.621 -41.8753,1.848 -83.7294,4.113 -125.5835,6.385 -66.0978,3.171 -132.2323,5.279 -198.3502,7.961 -46.2578,2.32 -92.5691,4.787 -138.5259,10.792 -18.664,1.852 -27.3951,-86.13 -8.7311,-87.983 z" id="path11093" inkscape:connector-curvature="0" style="fill:#c83737;fill-opacity:1;fill-rule:nonzero;stroke:#f9f9f9;stroke-width:0.1;stroke-miterlimit:4;stroke-dasharray:none" transform="translate(-9216, -38912)"/><path d="m 9574.5997,39267.369 c 15.8394,17.856 34.0652,33.084 54.1679,45.856 9.1369,5.643 18.8267,10.229 28.5726,14.688 16.8801,7.916 -20.4373,87.49 -37.3175,79.574 l 0,0 c -13.2766,-6.338 -26.492,-12.817 -38.9215,-20.743 -25.4679,-16.741 -48.9799,-35.905 -70.1301,-57.916 -13.0375,-13.497 50.5911,-74.957 63.6286,-61.459 z" id="path11095" inkscape:connector-curvature="0" style="fill:#c83737;fill-opacity:1;fill-rule:nonzero;stroke:#f9f9f9;stroke-width:0.1;stroke-miterlimit:4;stroke-dasharray:none" transform="translate(-9216, -38912)"/><path d="m 9862.159,39300.254 c -20.8929,21.714 -41.8818,43.31 -63.5199,64.287 -18.7342,17.737 -37.6043,35.331 -56.5274,52.867 -13.7455,12.568 -72.9935,-52.229 -59.248,-64.797 l 0,0 c 18.5188,-16.701 36.8803,-33.579 54.9852,-50.728 20.7874,-20.185 40.995,-40.943 60.2021,-62.648 12.944,-13.599 77.052,47.42 64.108,61.019 z" id="path11097" inkscape:connector-curvature="0" style="fill:#c83737;fill-opacity:1;fill-rule:nonzero;stroke:#f9f9f9;stroke-width:0.1;stroke-miterlimit:4;stroke-dasharray:none" transform="translate(-9216, -38912)"/><path d="m 9402.3364,39430.44 c 46.4961,-9.88 92.9524,-19.939 139.5019,-29.571 62.2479,-13.356 125.0663,-23.517 188.2861,-30.879 42.1199,-5.184 84.4932,-6.794 126.867,-5.117 15.0091,0.843 30.0417,1.553 44.977,3.315 18.6236,2.62 6.273,90.413 -12.3506,87.793 l 0,0 c -12.1091,-2.353 -24.5988,-2.259 -36.8298,-3.574 -37.7069,-2.183 -75.4523,-1.118 -112.9998,3.23 -60.5696,6.6 -120.7379,16.144 -180.2622,29.259 -45.551,9.755 -91.0752,19.706 -136.1896,31.345 -18.2009,4.454 -39.201,-81.346 -21,-85.801 z" id="path11099" inkscape:connector-curvature="0" style="fill:#c83737;fill-opacity:1;fill-rule:nonzero;stroke:#f9f9f9;stroke-width:0.1;stroke-miterlimit:4;stroke-dasharray:none" transform="translate(-9216, -38912)"/><path d="m 9466.4213,39562.396 c 38.228,-0.806 76.32,-3.982 114.3306,-7.952 56.788,-6.889 113.1126,-17.014 169.4275,-26.948 33.9487,-5.721 67.7245,-12.57 101.8059,-17.485 14.537,-1.11 5.5477,-1.101 26.8459,2.564 17.6174,6.78 -14.3421,89.829 -31.9596,83.049 l 0,0 c 5.4592,0.784 10.9185,1.568 16.3777,2.351 -0.208,-0.11 -0.4161,-0.22 -0.6241,-0.331 -32.8192,2.983 -65.1676,10 -97.7279,14.837 -58.1673,9.889 -116.2741,20.309 -174.8099,27.826 -39.9706,4.507 -80.0137,7.942 -120.1592,10.463 -18.7471,0.744 -22.254,-87.631 -3.5069,-88.374 z" id="path11101" inkscape:connector-curvature="0" style="fill:#c83737;fill-opacity:1;fill-rule:nonzero;stroke:#f9f9f9;stroke-width:0.1;stroke-miterlimit:4;stroke-dasharray:none" transform="translate(-9216, -38912)"/><path d="m 9724.9769,39424.904 c 0.097,43.53 1.1386,87.049 1.4191,130.58 0.1177,59.95 -0.578,119.898 -1.2847,179.842 -1.1139,31.066 0.3815,62.27 -2.2589,93.268 -1.9592,18.628 -89.7723,9.392 -87.8132,-9.236 l 0,0 c 4.0861,-28.205 1.4246,-57.157 3.6597,-85.501 1.3171,-59.151 2.1943,-118.319 1.6635,-177.486 -0.6225,-43.624 -1.8777,-87.229 -3.7749,-130.817 -0.1379,-18.75 88.2516,-19.4 88.3894,-0.65 z" id="path11103" inkscape:connector-curvature="0" style="fill:#c83737;fill-opacity:1;fill-rule:nonzero;stroke:#f9f9f9;stroke-width:0.1;stroke-miterlimit:4;stroke-dasharray:none" transform="translate(-9216, -38912)"/><path d="m 9606.461,39737.298 c -17.681,10 -31.8668,24.796 -45.5702,39.535 0.1171,-0.142 -16.2439,19.721 -12.5254,17.404 -7.313,17.28 -88.7695,-17.194 -81.4565,-34.473 l 0,0 c 7.7849,-15.961 17.3735,-30.356 30.0135,-43 20.1057,-21.245 41.2145,-41.835 66.5535,-56.839 16.4133,-9.119 59.3984,68.254 42.9851,77.373 z" id="path11105" inkscape:connector-curvature="0" style="fill:#c83737;fill-opacity:1;fill-rule:nonzero;stroke:#f9f9f9;stroke-width:0.1;stroke-miterlimit:4;stroke-dasharray:none" transform="translate(-9216, -38912)"/><path d="m 9849.9313,39657.564 c 18.575,17.464 39.6093,32.019 60.4771,46.562 13.3238,9.125 26.5577,18.381 39.8109,27.608 15.2376,10.825 -35.7947,82.655 -51.0322,71.83 l 0,0 c -12.8856,-9.345 -25.806,-18.643 -38.9139,-27.675 -24.0943,-16.872 -48.1643,-33.884 -70.3149,-53.294 -13.7951,-12.722 46.1778,-77.753 59.973,-65.031 z" id="path11107" inkscape:connector-curvature="0" style="fill:#c83737;fill-opacity:1;fill-rule:nonzero;stroke:#f9f9f9;stroke-width:0.1;stroke-miterlimit:4;stroke-dasharray:none" transform="translate(-9216, -38912)"/></svg>