<?xml version="1.0" encoding="UTF-8" standalone="no"?>
<svg
   xmlns:dc="http://purl.org/dc/elements/1.1/"
   xmlns:cc="http://creativecommons.org/ns#"
   xmlns:rdf="http://www.w3.org/1999/02/22-rdf-syntax-ns#"
   xmlns:svg="http://www.w3.org/2000/svg"
   xmlns="http://www.w3.org/2000/svg"
   xmlns:sodipodi="http://sodipodi.sourceforge.net/DTD/sodipodi-0.dtd"
   xmlns:inkscape="http://www.inkscape.org/namespaces/inkscape"
   width="1024"
   height="1024"
   id="U4EEC"
   version="1.1"
   inkscape:version="0.48.0 r9654"
   sodipodi:docname="U+4EEC.svg">
  <metadata
     id="metadata12">
    <rdf:RDF>
      <cc:Work
         rdf:about="">
        <dc:format>image/svg+xml</dc:format>
        <dc:type
           rdf:resource="http://purl.org/dc/dcmitype/StillImage" />
      </cc:Work>
    </rdf:RDF>
  </metadata>
  <defs
     id="defs10" />
  <sodipodi:namedview
     pagecolor="#ffffff"
     bordercolor="#666666"
     borderopacity="1"
     objecttolerance="10"
     gridtolerance="10"
     guidetolerance="10"
     inkscape:pageopacity="0"
     inkscape:pageshadow="2"
     inkscape:window-width="640"
     inkscape:window-height="480"
     id="namedview8"
     showgrid="false"
     inkscape:zoom="0.27441406"
     inkscape:cx="512"
     inkscape:cy="512"
     inkscape:window-x="0"
     inkscape:window-y="25"
     inkscape:window-maximized="0"
     inkscape:current-layer="U4EEC" />
  <path
     style="fill:#c83737;fill-opacity:1;fill-rule:nonzero;stroke:#f9f9f9;stroke-width:0.1;stroke-miterlimit:4;stroke-dasharray:none"
     d="M 303.625 204.9375 C 301.14941 204.88894 299.14226 205.55594 297.78125 207.09375 C 274.29269 234.03375 254.00275 263.48175 234.46875 293.34375 C 210.88497 331.19575 188.51484 369.80925 170.53125 410.65625 C 163.33097 428.27525 154.15275 445.066 150.0625 463.75 C 147.32727 479.83184 212.59866 493.14307 232.21875 484.375 C 231.97779 498.66707 231.6703 512.95756 231.25 527.25 C 229.21143 592.602 229.75061 658.00075 231.71875 723.34375 C 233.84995 762.22175 236.12516 801.18875 240.96875 839.84375 C 242.64423 853.96675 247.68611 866.714 254.28125 879.125 C 263.67726 894.31505 332.08237 853.06955 330.625 835.125 C 329.72792 833.12697 327.8264 828.32319 328.15625 827.65625 C 322.51355 792.20225 320.11132 756.25175 317.71875 720.46875 C 315.36653 657.06275 314.74608 593.57125 317.28125 530.15625 C 318.90212 487.51425 319.56591 444.85275 321.125 402.21875 C 321.72513 393.21712 301.60233 387.19087 280.4375 385.4375 C 288.92846 370.44189 297.9238 355.68704 307.03125 341.0625 C 324.43141 314.8015 342.37948 288.722 364.0625 265.75 C 375.14504 253.2287 323.78342 205.33294 303.625 204.9375 z M 330.625 835.125 C 331.12396 836.2363 331.24672 836.35308 330.53125 834.4375 C 330.57402 834.6625 330.60607 834.89197 330.625 835.125 z M 330.53125 834.4375 C 330.3958 833.72496 330.16766 833.0622 329.78125 832.4375 C 330.14522 833.36242 330.32659 833.88956 330.53125 834.4375 z M 805.53125 303.28125 C 773.12316 303.44743 740.97189 307.02219 708.96875 312.3125 C 678.68387 316.6575 648.49961 321.6155 618.25 326.1875 C 599.71934 329.2485 614.15684 416.59125 632.6875 413.53125 C 662.14168 407.77925 691.77524 403.0105 721.46875 398.6875 C 751.01101 394.0345 780.61842 390.18075 810.5625 390.96875 C 825.63233 391.54635 840.73254 392.83846 855 397.90625 C 856.50427 414.58196 856.29782 432.18273 855.625 449.15625 C 852.71244 499.39925 847.84469 549.48875 843.1875 599.59375 C 837.86936 652.79775 834.37222 706.13925 831.71875 759.53125 C 830.58945 792.32125 826.07269 824.83675 824.53125 857.59375 C 824.12251 874.19275 824.20508 890.774 823.9375 907.375 C 823.54565 907.86457 823.33213 909.15219 823.28125 909.4375 C 823.28868 909.27136 823.33002 908.8465 823.375 908 C 818.21069 926.098 903.5232 950.44175 908.6875 932.34375 C 910.67149 924.28775 912.496 916.37 912.5 908 C 912.45698 892.373 912.20813 876.75 912.3125 861.125 C 913.34999 828.511 917.9029 796.11875 918.46875 763.46875 C 920.60366 711.45575 923.68314 659.52175 928.96875 607.71875 C 933.90244 556.24075 939.13696 504.7705 942.84375 453.1875 C 944.38398 423.3515 945.93379 392.7465 937.0625 363.8125 C 925.89727 339.4805 908.96381 322.46925 883.0625 314.15625 C 859.99907 306.86425 836.21431 303.49025 812 303.28125 C 809.8369 303.26131 807.69179 303.27017 805.53125 303.28125 z M 468.46875 335.71875 C 445.9858 336.03138 392.5212 369.41241 400.375 383.15625 C 415.74939 408.52225 434.54218 431.49325 452.46875 455.03125 C 461.69444 468.09625 473.27 480.87625 476.34375 497.03125 C 481.18221 515.11125 566.4322 492.29875 561.59375 474.21875 C 553.74351 447.20675 539.84185 423.49475 522.03125 401.71875 C 506.3923 381.41975 489.87084 361.65525 477.1875 339.28125 C 475.73309 336.73594 472.63226 335.66086 468.46875 335.71875 z M 857.8125 399.28125 C 861.64943 401.33798 860.46233 401.3494 857.8125 399.28125 z M 404.75 607.875 C 380.19969 607.68938 352.44885 613.6015 352.9375 624.15625 C 354.57583 656.38425 353.80981 688.739 353.4375 721 C 351.22678 765.455 350.94379 809.74425 358.75 853.65625 C 364.41753 873.83925 360.9797 864.247 368.96875 882.5 C 377.41031 899.236 456.28532 859.4235 447.84375 842.6875 C 447.5878 842.7675 447.3497 842.8575 447.09375 842.9375 C 446.3069 840.9395 445.5056 838.9365 444.71875 836.9375 C 436.41148 799.2055 438.90161 760.6605 440.3125 722.3125 C 440.95503 688.2375 441.76189 654.1425 441.375 620.0625 C 440.99494 611.85325 423.84468 608.01937 404.75 607.875 z "
     id="path11038" />
</svg>
