<?xml version="1.0" encoding="UTF-8" standalone="no"?>
<svg
   xmlns:dc="http://purl.org/dc/elements/1.1/"
   xmlns:cc="http://creativecommons.org/ns#"
   xmlns:rdf="http://www.w3.org/1999/02/22-rdf-syntax-ns#"
   xmlns:svg="http://www.w3.org/2000/svg"
   xmlns="http://www.w3.org/2000/svg"
   xmlns:sodipodi="http://sodipodi.sourceforge.net/DTD/sodipodi-0.dtd"
   xmlns:inkscape="http://www.inkscape.org/namespaces/inkscape"
   width="1024"
   height="1024"
   id="U4ECB"
   version="1.1"
   inkscape:version="0.48.0 r9654"
   sodipodi:docname="U+4ECB.svg">
  <metadata
     id="metadata11">
    <rdf:RDF>
      <cc:Work
         rdf:about="">
        <dc:format>image/svg+xml</dc:format>
        <dc:type
           rdf:resource="http://purl.org/dc/dcmitype/StillImage" />
      </cc:Work>
    </rdf:RDF>
  </metadata>
  <defs
     id="defs9" />
  <sodipodi:namedview
     pagecolor="#ffffff"
     bordercolor="#666666"
     borderopacity="1"
     objecttolerance="10"
     gridtolerance="10"
     guidetolerance="10"
     inkscape:pageopacity="0"
     inkscape:pageshadow="2"
     inkscape:window-width="640"
     inkscape:window-height="480"
     id="namedview7"
     showgrid="false"
     inkscape:zoom="0.27441406"
     inkscape:cx="512"
     inkscape:cy="512"
     inkscape:window-x="0"
     inkscape:window-y="25"
     inkscape:window-maximized="0"
     inkscape:current-layer="U4ECB" />
  <path
     style="fill:#2b0000;fill-opacity:1;fill-rule:nonzero;stroke:#f9f9f9;stroke-width:0.1;stroke-miterlimit:4;stroke-dasharray:none"
     d="M 421.53125 130.4375 C 419.92677 130.43502 418.53058 130.85422 417.375 131.78125 C 383.87965 162.02525 353.00249 195.02775 321.9375 227.71875 C 281.90919 270.61475 243.11702 314.66125 205.46875 359.65625 C 183.33608 386.94025 161.07552 414.77325 147.71875 447.53125 C 141.28855 465.34525 225.28855 495.65875 231.71875 477.84375 C 231.99406 463.68075 265.22918 427.28475 272.75 415.46875 C 308.68686 371.73675 345.94889 329.066 384.78125 287.875 C 413.38427 258.217 441.74816 228.066 473.3125 201.5 C 486.94834 190.56103 440.4641 130.46677 421.53125 130.4375 z M 513.34375 144.375 C 495.06671 146.09121 460.58575 216.53656 476.40625 224.5625 C 514.97697 245.4025 548.46284 274.22975 581.71875 302.46875 C 615.4009 331.84529 647.45734 362.97971 679.34375 394.28125 C 653.758 386.53169 614.66607 385.13306 612.875 397.5 C 606.85878 446.938 606.86306 496.76475 607.78125 546.46875 C 609.74989 614.73975 617.09693 682.707 625 750.5 C 630.97444 800.78 638.2051 850.88025 646 900.90625 C 645.54213 898.23625 650.80783 935.18575 648.59375 928.96875 C 646.91338 947.87775 736.03838 955.81525 737.71875 936.90625 C 738.29933 919.92425 736.39774 903.26675 733 886.59375 C 724.56509 838.00775 717.06218 789.2675 711.09375 740.3125 C 703.31262 675.4775 696.15545 610.461 694.59375 545.125 C 694.05022 501.72168 693.97044 458.04997 700.5 415.03125 C 706.90545 421.32413 713.32325 427.60668 719.75 433.875 C 739.99386 458.529 776.67692 481.124 793.6875 507.875 C 805.19549 522.84 875.75799 468.62125 864.25 453.65625 C 839.36262 423.26125 807.89329 399.15075 780.28125 371.34375 C 733.19624 326.08875 687.13806 279.73025 638.125 236.53125 C 599.72744 203.47225 560.8904 170.279 516.75 145 C 515.6953 144.46487 514.56222 144.26059 513.34375 144.375 z M 345.0625 393.78125 C 325.8215 393.7778 308.50946 397.5125 308.0625 405.78125 C 306.77325 465.94625 302.04958 525.9505 297.53125 585.9375 C 291.5692 660.3235 283.06559 734.63275 284.9375 809.34375 C 286.07747 818.03675 287.20377 826.7455 288.34375 835.4375 C 291.17128 853.8545 377.98379 840.51075 375.15625 822.09375 C 374.14714 816.78875 373.13411 811.4915 372.125 806.1875 C 368.5624 734.8425 377.52824 663.7325 383 592.6875 C 387.97705 532.0145 392.97931 471.32875 397.15625 410.59375 C 397.73091 399.9625 369.80093 393.78568 345.0625 393.78125 z "
     id="path9269" />
</svg>
