<?xml version="1.0" encoding="UTF-8" standalone="no"?>
<svg
   xmlns:dc="http://purl.org/dc/elements/1.1/"
   xmlns:cc="http://creativecommons.org/ns#"
   xmlns:rdf="http://www.w3.org/1999/02/22-rdf-syntax-ns#"
   xmlns:svg="http://www.w3.org/2000/svg"
   xmlns="http://www.w3.org/2000/svg"
   xmlns:sodipodi="http://sodipodi.sourceforge.net/DTD/sodipodi-0.dtd"
   xmlns:inkscape="http://www.inkscape.org/namespaces/inkscape"
   width="1024"
   height="1024"
   id="U4E8C"
   version="1.1"
   inkscape:version="0.48.0 r9654"
   sodipodi:docname="U+4E8C.svg">
  <metadata
     id="metadata9">
    <rdf:RDF>
      <cc:Work
         rdf:about="">
        <dc:format>image/svg+xml</dc:format>
        <dc:type
           rdf:resource="http://purl.org/dc/dcmitype/StillImage" />
      </cc:Work>
    </rdf:RDF>
  </metadata>
  <defs
     id="defs7" />
  <sodipodi:namedview
     pagecolor="#ffffff"
     bordercolor="#666666"
     borderopacity="1"
     objecttolerance="10"
     gridtolerance="10"
     guidetolerance="10"
     inkscape:pageopacity="0"
     inkscape:pageshadow="2"
     inkscape:window-width="640"
     inkscape:window-height="480"
     id="namedview5"
     showgrid="false"
     inkscape:zoom="0.27441406"
     inkscape:cx="512"
     inkscape:cy="512"
     inkscape:window-x="0"
     inkscape:window-y="25"
     inkscape:window-maximized="0"
     inkscape:current-layer="U4E8C" />
  <path
     style="fill:#550000;fill-opacity:1;fill-rule:nonzero;stroke:#f9f9f9;stroke-width:0.1;stroke-miterlimit:4;stroke-dasharray:none"
     d="M 599.53125 345.03125 C 537.64835 345.46225 475.7359 347.33425 414.125 353.53125 C 369.913 358.13825 325.2877 362.68475 282.5625 375.59375 C 265.0234 381.76475 294.11715 464.422 311.65625 458.25 C 347.66825 446.297 385.7988 442.5485 423.3125 438.3125 C 481.9084 431.9565 540.8592 430.4305 599.75 430.5625 C 619.1547 430.7385 638.5111 431.6265 657.875 432.8125 C 676.2166 433.6965 680.404 347.22875 662.0625 346.34375 C 641.2277 345.58475 620.38285 345.03125 599.53125 345.03125 z M 650.625 625.59375 C 631.35326 625.60389 612.08 625.98344 592.8125 626.75 C 508.5828 630.228 424.4748 635.9135 340.3125 640.6875 C 289.4975 643.3925 238.4004 644.47375 187.9375 651.34375 C 169.798 655.42875 189.0479 740.92975 207.1875 736.84375 C 252.8264 729.65275 299.2486 728.0615 345.3125 725.0625 C 428.8677 719.4725 512.40365 713.81975 596.09375 710.71875 C 654.06225 708.70675 712.09925 710.671 769.78125 716.625 C 788.62025 719.175 779.92985 717.717 795.84375 720.75 C 814.01705 723.836 828.57955 638.1485 810.40625 635.0625 C 789.53255 631.8335 800.40885 633.3105 777.65625 630.8125 C 735.38841 627.34956 693.02284 625.57144 650.625 625.59375 z "
     id="path22647" />
</svg>
