<?xml version="1.0" encoding="utf-8" ?>

<!DOCTYPE svg PUBLIC "-//W3C//DTD SVG 1.1//EN" 
  "http://www.w3.org/Graphics/SVG/1.1/DTD/svg11.dtd">
<svg 
    xmlns="http://www.w3.org/2000/svg"
    xmlns:xlink="http://www.w3.org/1999/xlink"
    xmlns:sodipodi="http://sodipodi.sourceforge.net/DTD/sodipodi-0.dtd"
    xmlns:inkscape="http://www.inkscape.org/namespaces/inkscape"
    width="1024" height="1024" id="U4E3B">
<path d="m 7645.5777,65712.578 c 18.6169,25.652 36.7698,51.633 54.0292,78.219 2.953,4.858 5.9059,9.717 8.8588,14.575 9.5676,15.902 -65.3914,61.004 -74.959,45.102 l 0,0 c -2.4287,-4.085 -4.8575,-8.171 -7.2862,-12.257 -15.8068,-24.592 -32.5154,-48.633 -50.6362,-71.585 -11.4666,-14.848 58.5268,-68.902 69.9934,-54.054 z" id="path15273" inkscape:connector-curvature="0" style="fill:#2b1100;fill-opacity:1;fill-rule:nonzero;stroke:none" transform="translate(-7168, -65536)"/><path d="m 7359.4973,65932.929 c 47.58,-2.249 95.0437,-6.59 142.5298,-10.275 68.8682,-5.796 137.8841,-8.493 206.9717,-6.888 48.4682,1.202 96.3442,8.661 143.6273,18.908 18.7202,4.295 37.5689,8.039 55.6886,14.48 17.4924,6.823 -14.6737,89.283 -32.1662,82.46 l 0,0 c -12.426,-7.468 -29.4515,-6.181 -42.6171,-11.728 -41.6952,-9.693 -83.9734,-16.802 -126.8508,-18.252 -65.9885,-2.051 -131.9271,0.49 -197.6843,6.465 -48.2742,4.132 -96.5033,8.742 -144.7637,13.025 -18.709,1.004 -23.4443,-87.191 -4.7353,-88.195 z" id="path15275" inkscape:connector-curvature="0" style="fill:#2b1100;fill-opacity:1;fill-rule:nonzero;stroke:none" transform="translate(-7168, -65536)"/><path d="m 7453.5903,66135.308 c 39.532,1.338 79.1066,-0.575 118.5906,-2.453 59.9669,-3.879 119.9045,-7.698 180.0007,-8.582 41.4595,-0.354 82.8118,2.627 124.0943,6.062 12.6284,0.841 25.1895,2.247 37.5923,4.756 18.282,4.46 -2.7429,90.642 -21.0249,86.182 l 0,0 c -7.6979,-1.921 -16.4582,-3.053 -24.6113,-3.664 -38.2469,-3.882 -76.5885,-7.111 -115.0692,-7.07 -58.9406,0.461 -117.7219,4.132 -176.5021,8.358 -41.7932,2.358 -83.6176,4.519 -125.4839,4.907 -18.7728,-0.512 -16.3593,-89.008 2.4135,-88.496 z" id="path15277" inkscape:connector-curvature="0" style="fill:#2b1100;fill-opacity:1;fill-rule:nonzero;stroke:none" transform="translate(-7168, -65536)"/><path d="m 7697.4561,65998.918 c -4.1457,40.183 -5.9113,80.561 -7.9623,120.891 -2.8132,55.997 -6.1402,111.967 -9.576,167.928 -1.6528,27.355 -0.8687,14.187 -2.3574,39.504 -1.2424,18.457 -88.2533,12.601 -87.011,-5.857 l 0,0 c 1.9194,-25.329 0.922,-12.185 2.9928,-39.43 4.018,-55.35 7.3727,-110.747 9.7163,-166.195 1.7845,-41.423 3.5686,-82.846 6.1548,-124.229 1.5672,-18.677 89.6101,-11.289 88.0428,7.388 z" id="path15279" inkscape:connector-curvature="0" style="fill:#2b1100;fill-opacity:1;fill-rule:nonzero;stroke:none" transform="translate(-7168, -65536)"/><path d="m 7333.3704,66326.953 c 42.2397,2.432 84.7033,0.01 126.9814,-0.967 74.2853,-2.229 148.5388,0.571 222.6652,5.267 60.5703,3.949 121.063,8.902 181.4986,14.525 37.7417,3.899 75.6522,5.446 113.5692,6.153 4.0486,0.181 8.0972,0.363 12.1458,0.544 18.6315,1.063 13.6228,88.893 -5.0087,87.83 l 0,0 c -3.2296,-0.233 -6.4593,-0.467 -9.6889,-0.701 -39.8153,-1.558 -79.6273,-3.548 -119.2587,-7.847 -59.5353,-5.877 -119.1292,-11.119 -178.8115,-15.282 -71.4529,-4.792 -143.0564,-7.606 -214.6709,-4.774 -47.7738,1.614 -95.7195,5.239 -143.4869,2.606 -18.5305,-2.984 -4.4651,-90.337 14.0654,-87.354 z" id="path15283" inkscape:connector-curvature="0" style="fill:#2b1100;fill-opacity:1;fill-rule:nonzero;stroke:none" transform="translate(-7168, -65536)"/></svg>