<?xml version="1.0" encoding="utf-8" ?>

<!DOCTYPE svg PUBLIC "-//W3C//DTD SVG 1.1//EN" 
  "http://www.w3.org/Graphics/SVG/1.1/DTD/svg11.dtd">
<svg 
    xmlns="http://www.w3.org/2000/svg"
    xmlns:xlink="http://www.w3.org/1999/xlink"
    xmlns:sodipodi="http://sodipodi.sourceforge.net/DTD/sodipodi-0.dtd"
    xmlns:inkscape="http://www.inkscape.org/namespaces/inkscape"
    width="1024" height="1024" id="U4EA4">
<path d="m 10698.235,22671.935 c 24.446,24.936 49.106,49.637 74.476,73.635 18.142,17.187 36.951,33.665 54.559,51.406 13.09,13.617 -51.103,75.324 -64.193,61.706 l 0,0 c -15.967,-17.39 -33.934,-32.81 -50.843,-49.258 -25.043,-23.747 -49.429,-48.171 -74.58,-71.798 -13.935,-12.852 46.646,-78.542 60.581,-65.691 z" id="path8927" inkscape:connector-curvature="0" style="fill:#550000;fill-opacity:1;fill-rule:nonzero;stroke:#f9f9f9;stroke-width:0.1;stroke-miterlimit:4;stroke-dasharray:none" transform="translate(-10240, -22528)"/><path d="m 10434.936,22817.15 c 41.654,-0.703 83.252,-3.411 124.862,-5.354 65.035,-3.262 130.134,-2.836 195.186,-0.62 52.064,2.266 104.039,6.168 156.169,6.357 23.599,0.297 46.94,-2.916 70.3,-5.677 3.294,-0.01 6.588,-0.03 9.882,-0.04 18.987,1.425 12.266,90.928 -6.72,89.503 l 0,0 c 1.696,-0.133 3.393,-0.266 5.089,-0.399 -26.453,1.487 -52.806,5.472 -79.396,4.415 -52.878,-0.797 -105.589,-4.831 -158.396,-7.415 -62.546,-2.304 -125.153,-2.819 -187.671,0.828 -42.439,2.359 -84.838,5.314 -127.276,7.688 -18.941,0.43 -20.97,-88.857 -2.029,-89.287 z" id="path8929" inkscape:connector-curvature="0" style="fill:#550000;fill-opacity:1;fill-rule:nonzero;stroke:#f9f9f9;stroke-width:0.1;stroke-miterlimit:4;stroke-dasharray:none" transform="translate(-10240, -22528)"/><path d="m 10638.273,22912.651 c -23.178,18.367 -43.686,39.788 -63.758,61.421 -20.592,22.334 -38.994,46.489 -55.546,71.929 -2.898,3.825 -5.098,8.198 -6.83,12.673 -6.805,17.706 -90.272,-14.372 -83.467,-32.078 l 0,0 c 4.592,-10.433 9.506,-20.528 16.389,-29.708 19.645,-29.052 41.099,-56.812 64.882,-82.625 23.283,-25.176 47.146,-49.896 73.338,-72.094 14.952,-11.665 69.944,58.817 54.992,70.482 z" id="path8931" inkscape:connector-curvature="0" style="fill:#550000;fill-opacity:1;fill-rule:nonzero;stroke:#f9f9f9;stroke-width:0.1;stroke-miterlimit:4;stroke-dasharray:none" transform="translate(-10240, -22528)"/><path d="m 10880.605,22889.133 c 27.918,14.898 55.116,31.01 81.613,48.296 20.292,13.468 39.313,28.66 56.913,45.468 13.468,13.25 -48.992,76.74 -62.46,63.49 l 0,0 c -12.873,-13.314 -27.608,-24.618 -42.841,-35.104 -23.998,-15.801 -48.719,-30.494 -74.633,-42.966 -16.797,-8.784 24.611,-87.968 41.408,-79.184 z" id="path8933" inkscape:connector-curvature="0" style="fill:#550000;fill-opacity:1;fill-rule:nonzero;stroke:#f9f9f9;stroke-width:0.1;stroke-miterlimit:4;stroke-dasharray:none" transform="translate(-10240, -22528)"/><path d="m 10885.267,22994.108 c -26.239,25.781 -50.783,53.23 -75.607,80.361 -40.974,45.043 -83.68,88.45 -126.821,131.406 -34.057,33.553 -68.394,66.834 -103.501,99.29 -16.698,17.054 -34.943,28.942 -57.516,36.269 -18.456,4.35 -38.962,-82.654 -20.505,-87.004 l 0,0 c -14.988,8.425 19.82,-11.108 18.677,-14.696 34.742,-30.876 68.44,-62.908 101.642,-95.43 42.146,-41.822 83.672,-84.283 123.221,-128.589 25.445,-28.322 50.783,-56.751 76.949,-84.415 13.323,-13.462 76.785,49.345 63.461,62.808 z" id="path8935" inkscape:connector-curvature="0" style="fill:#550000;fill-opacity:1;fill-rule:nonzero;stroke:#f9f9f9;stroke-width:0.1;stroke-miterlimit:4;stroke-dasharray:none" transform="translate(-10240, -22528)"/><path d="m 10526.124,22987.459 c 43.772,6.065 80.888,30.848 116.768,54.917 49.423,35.722 98.442,71.926 149.398,105.454 46.282,29.659 94.473,56.158 142.476,82.887 24.236,13.244 48.222,26.932 72.263,40.525 7.498,4.347 14.835,8.965 22.008,13.829 15.62,10.913 -35.825,84.544 -51.445,73.631 l 0,0 c -5.01,-3.666 -10.174,-7.118 -15.449,-10.392 -23.342,-14 -46.753,-27.886 -70.478,-41.232 -49.405,-28.266 -99.132,-56.051 -147.056,-86.802 -51.072,-33.622 -100.402,-69.657 -150.174,-105.151 -23.23,-15.346 -47.127,-32.754 -74.917,-38.476 -18.92,-1.402 -12.314,-90.592 6.606,-89.19 z" id="path8937" inkscape:connector-curvature="0" style="fill:#550000;fill-opacity:1;fill-rule:nonzero;stroke:#f9f9f9;stroke-width:0.1;stroke-miterlimit:4;stroke-dasharray:none" transform="translate(-10240, -22528)"/></svg>