<?xml version="1.0" encoding="UTF-8" standalone="no"?>
<svg
   xmlns:dc="http://purl.org/dc/elements/1.1/"
   xmlns:cc="http://creativecommons.org/ns#"
   xmlns:rdf="http://www.w3.org/1999/02/22-rdf-syntax-ns#"
   xmlns:svg="http://www.w3.org/2000/svg"
   xmlns="http://www.w3.org/2000/svg"
   xmlns:sodipodi="http://sodipodi.sourceforge.net/DTD/sodipodi-0.dtd"
   xmlns:inkscape="http://www.inkscape.org/namespaces/inkscape"
   width="1024"
   height="1024"
   id="U4E24"
   version="1.1"
   inkscape:version="0.48.0 r9654"
   sodipodi:docname="U+4E24.svg">
  <metadata
     id="metadata14">
    <rdf:RDF>
      <cc:Work
         rdf:about="">
        <dc:format>image/svg+xml</dc:format>
        <dc:type
           rdf:resource="http://purl.org/dc/dcmitype/StillImage" />
      </cc:Work>
    </rdf:RDF>
  </metadata>
  <defs
     id="defs12" />
  <sodipodi:namedview
     pagecolor="#ffffff"
     bordercolor="#666666"
     borderopacity="1"
     objecttolerance="10"
     gridtolerance="10"
     guidetolerance="10"
     inkscape:pageopacity="0"
     inkscape:pageshadow="2"
     inkscape:window-width="640"
     inkscape:window-height="480"
     id="namedview10"
     showgrid="false"
     inkscape:zoom="0.27441406"
     inkscape:cx="512"
     inkscape:cy="512"
     inkscape:window-x="0"
     inkscape:window-y="25"
     inkscape:window-maximized="0"
     inkscape:current-layer="U4E24" />
  <path
     style="fill:#2b0000;fill-opacity:1;fill-rule:nonzero;stroke:#f9f9f9;stroke-width:0.1;stroke-miterlimit:4;stroke-dasharray:none"
     d="M 771.75 207.4375 C 771.46264 207.43435 771.1656 207.45975 770.875 207.5 C 747.5584 211.288 724.3488 216.0215 700.625 216.5625 C 650.1527 219.0805 599.5946 217.97875 549.125 220.59375 C 485.6182 224.97275 422.62315 233.43625 359.34375 240.15625 C 321.05785 242.79925 282.6435 244.4895 244.3125 241.4375 C 225.559 240.4245 220.77775 328.83075 239.53125 329.84375 C 281.63985 331.39375 323.68415 329.378 365.65625 326.125 C 378.32423 324.71815 390.97195 323.24226 403.625 321.75 C 400.30322 350.39762 392.24969 378.2501 384.4375 405.9375 C 379.58846 423.6359 374.1549 441.15224 368.25 458.5 C 337.09362 463.64175 305.83508 468.40969 274.96875 475.09375 C 274.04569 470.28406 273.10143 465.49304 272.15625 460.6875 C 267.86185 442.4365 181.8306 462.6865 186.125 480.9375 C 194.7446 517.1985 201.2447 553.92575 207.125 590.71875 C 213.5564 634.73675 217.4788 679.06175 221.5625 723.34375 C 224.7226 756.32875 226.6412 789.4255 230.75 822.3125 C 234.915 835.0015 231.6551 853.1965 239.4375 864.8125 C 244.5131 872.3885 250.6869 879.16675 256.3125 886.34375 C 270.55398 896.65583 316.82526 834.7985 310.6875 817.375 C 331.24791 845.99377 319.72664 832.84005 317.84375 810.6875 C 313.68934 781.9165 311.89158 752.89013 309.0625 723.96875 C 326.02318 730.33212 342.06012 732.65942 345.34375 725.5 C 345.60905 724.838 345.8597 724.19325 346.125 723.53125 C 354.09739 706.58982 362.90438 690.05222 370.78125 673.0625 C 389.99701 688.23775 410.96051 701.11797 432.25 713.21875 C 444.36849 719.78721 456.85984 725.556 469.5 731 C 483.09864 749.99204 537.77822 776.66572 545.21875 762.96875 C 546.99105 759.60075 548.7329 756.2155 550.4375 752.8125 C 559.21276 735.16897 567.22696 717.14754 574.375 698.78125 C 593.94744 709.57628 613.75629 719.95875 633.53125 730.375 C 653.15495 740.548 672.6603 750.91 692.0625 761.5 C 701.9327 766.716 696.80625 764.1985 707.53125 769.0625 C 724.77845 776.4765 759.71585 695.165 742.46875 687.75 C 737.64455 686.018 740.58835 687.2085 733.78125 683.8125 C 714.01345 673.3685 694.26265 662.93125 674.40625 652.65625 C 653.83295 641.85425 633.0938 631.242 613.25 619.125 C 610.33413 617.45453 606.53005 618.56515 602.34375 621.53125 C 607.73511 605.64161 612.9558 589.69277 618 573.6875 C 624.15018 553.92343 630.18282 534.09491 635.96875 514.21875 C 645.36611 514.00413 654.78791 513.86601 664.1875 513.8125 C 692.8562 513.7615 721.48455 515.37925 750.09375 517.03125 C 768.09465 517.98925 786.06145 519.10225 804.03125 520.53125 C 804.17143 520.2855 805.00915 520.30463 806.125 520.4375 C 806.43769 532.96988 804.4475 545.42191 802.59375 557.8125 C 796.47165 592.2045 788.64 626.281 781.0625 660.375 C 774.2834 689.728 767.3901 719.066 759.4375 748.125 C 753.9474 767.458 748.07075 786.68225 742.21875 805.90625 C 740.51555 813.61125 738.33425 820.95 735.21875 828.125 C 733.88885 830.775 733.09395 833.80625 731.21875 836.15625 C 721.67095 852.35125 798.0147 897.35225 807.5625 881.15625 C 810.7988 875.42825 814.0353 869.73875 816.4375 863.59375 C 821.0778 852.99975 824.83685 842.16225 827.03125 830.78125 C 832.64065 810.82025 838.63065 790.95375 844.15625 770.96875 C 852.25455 740.56775 859.3403 709.90975 866.25 679.21875 C 874.1777 643.25775 882.48195 607.36425 889.21875 571.15625 C 893.27475 545.39825 896.7925 519.22225 892 493.28125 C 886.5364 472.48725 876.11575 455.31275 856.78125 444.84375 C 842.32215 437.33775 826.9785 433.07425 810.625 432.40625 C 792.0178 431.09525 773.3842 430.12225 754.75 429.28125 C 724.3059 427.78425 693.8676 426.3485 663.375 426.6875 C 661.97893 426.70503 660.58355 426.72976 659.1875 426.75 C 661.0569 418.79187 662.87881 410.80959 664.59375 402.8125 C 671.5887 370.16536 678.4359 337.38196 681.90625 304.15625 C 689.44369 303.97274 696.96379 303.73922 704.5 303.4375 C 730.9524 303.6065 756.86845 297.7945 783.03125 295.1875 C 801.33935 292.65175 789.85374 207.63588 771.75 207.4375 z M 593.6875 305.34375 C 590.94884 332.15079 585.40329 358.67066 579.96875 385.03125 C 576.82697 400.24246 573.32095 415.34991 569.5625 430.40625 C 556.05632 431.39161 542.56284 432.60876 529.09375 434.09375 C 507.45688 436.61481 485.88264 439.51263 464.34375 442.6875 C 465.60901 438.39939 466.85667 434.08881 468.0625 429.78125 C 477.72 396.26025 487.244 362.5885 491.9375 327.9375 C 492.69039 322.31618 485.18718 317.31585 474.3125 313.59375 C 501.0989 310.68058 527.92037 308.09424 554.84375 306.375 C 567.79202 305.85684 580.73575 305.55766 593.6875 305.34375 z M 544.5 519.5625 C 541.60672 529.02049 538.69189 538.47491 535.71875 547.90625 C 524.82973 581.91936 513.00261 615.63767 500.03125 648.90625 C 491.66825 645.2627 483.42277 641.39057 475.34375 637.125 C 454.18015 625.193 433.17095 612.411 415.65625 595.375 C 413.9125 593.61143 411.28364 593.19305 408.09375 593.78125 C 412.27021 584.43933 416.33761 575.07002 420.28125 565.625 C 424.42687 555.58997 428.47109 545.49147 432.40625 535.375 C 467.78345 529.33613 503.29164 524.15777 538.96875 520.125 C 540.80954 519.93062 542.6584 519.74641 544.5 519.5625 z M 812.28125 521.6875 C 814.45808 522.26244 815.78679 522.74877 813.875 522.5 C 813.48884 522.57859 812.9253 522.25879 812.28125 521.6875 z M 331.03125 553.375 C 320.73782 576.40042 309.69127 599.06786 298.53125 621.6875 C 296.79276 606.83047 294.93603 591.99309 292.78125 577.1875 C 291.73082 570.47017 290.62917 563.77203 289.53125 557.0625 C 292.37989 559.91057 295.26565 561.26054 298.03125 560.5 C 308.96563 557.81719 319.9761 555.50911 331.03125 553.375 z "
     id="path9898" />
</svg>
