<?xml version="1.0" encoding="utf-8" ?>

<!DOCTYPE svg PUBLIC "-//W3C//DTD SVG 1.1//EN" 
  "http://www.w3.org/Graphics/SVG/1.1/DTD/svg11.dtd">
<svg 
    xmlns="http://www.w3.org/2000/svg"
    xmlns:xlink="http://www.w3.org/1999/xlink"
    xmlns:sodipodi="http://sodipodi.sourceforge.net/DTD/sodipodi-0.dtd"
    xmlns:inkscape="http://www.inkscape.org/namespaces/inkscape"
    width="1024" height="1024" id="U4F4D">
<path d="m 8570.9467,51478.888 c -28.7112,22.155 -47.8185,53.729 -66.5137,84.166 -34.3521,59.203 -60.7898,122.462 -86.1904,185.878 -15.7948,40.025 -29.8108,80.699 -42.7103,121.736 -5.7258,17.553 -88.473,-9.438 -82.7472,-26.992 l 0,0 c 14.3826,-42.602 29.5089,-84.952 46.2344,-126.7 27.4551,-67.604 55.84,-135.067 92.007,-198.577 24.6275,-40.823 50.6333,-81.744 88.6583,-111.554 15.2828,-10.875 66.5447,61.169 51.2619,72.043 z" id="path12898" inkscape:connector-curvature="0" style="fill:#501616;fill-opacity:1;fill-rule:nonzero;stroke:#f9f9f9;stroke-width:0.1;stroke-miterlimit:4;stroke-dasharray:none" transform="translate(-8192, -51200)"/><path d="m 8519.3657,51680.791 c -9.9946,29.372 -13.6765,60.131 -15.7326,90.922 -1.6485,54.367 5.0996,108.534 11.8604,162.366 6.3601,48.447 14.1033,96.741 25.2329,144.334 1.2301,4.262 2.4602,8.523 3.6903,12.785 4.8449,17.915 -79.6071,40.754 -84.452,22.839 l 0,0 c -1.4247,-5.554 -2.8493,-11.109 -4.2739,-16.664 -10.7614,-50.45 -18.7728,-101.432 -25.3933,-152.584 -7.4539,-59.247 -14.8899,-118.841 -13.1239,-178.68 2.3727,-37.53 6.8646,-74.852 17.4844,-111.062 5.4612,-17.97 90.1689,7.775 84.7077,25.744 z" id="path12900" inkscape:connector-curvature="0" style="fill:#501616;fill-opacity:1;fill-rule:nonzero;stroke:#f9f9f9;stroke-width:0.1;stroke-miterlimit:4;stroke-dasharray:none" transform="translate(-8192, -51200)"/><path d="m 8804.2709,51432.609 c 10.7478,32.762 26.6639,63.395 43.6634,93.268 9.6614,16.353 20.3118,32.085 30.8431,47.881 10.1858,15.421 -62.5111,63.437 -72.6969,48.016 l 0,0 c -11.4646,-17.515 -23.0482,-34.965 -33.642,-53.029 -19.5636,-34.52 -37.6565,-69.871 -51.5936,-107.091 -6.1613,-17.697 77.2647,-46.742 83.426,-29.045 z" id="path12902" inkscape:connector-curvature="0" style="fill:#501616;fill-opacity:1;fill-rule:nonzero;stroke:#f9f9f9;stroke-width:0.1;stroke-miterlimit:4;stroke-dasharray:none" transform="translate(-8192, -51200)"/><path d="m 8537.3395,51678.619 c 44.0344,-2.508 87.7824,-8.874 131.4675,-14.756 62.7605,-8.757 125.4962,-17.652 188.5297,-24.219 40.2456,-3.646 80.8141,-6.608 120.9341,-0.602 5.0043,1.504 10.0086,3.009 15.013,4.513 17.6274,6.301 -12.0762,89.398 -29.7037,83.097 l 0,0 c -0.087,-0.315 -0.1734,-0.631 -0.2601,-0.946 -31.8536,-7.056 -65.2731,-1.531 -97.4211,-0.365 -62.0038,5.917 -123.6803,14.522 -185.3043,23.524 -46.5306,6.637 -93.062,13.589 -139.8573,18.095 -18.7401,0.721 -22.1378,-87.62 -3.3978,-88.341 z" id="path12904" inkscape:connector-curvature="0" style="fill:#501616;fill-opacity:1;fill-rule:nonzero;stroke:#f9f9f9;stroke-width:0.1;stroke-miterlimit:4;stroke-dasharray:none" transform="translate(-8192, -51200)"/><path d="m 8689.5278,51811.188 c 8.3729,28.886 23.0623,54.935 40.4,79.277 18.9206,25.486 43.8441,43.515 72.1053,57.161 16.4188,8.295 -22.6814,85.694 -39.1002,77.399 l 0,0 c -40.4153,-21.004 -76.7828,-47.159 -103.941,-84.452 -22.2678,-31.714 -41.3393,-65.292 -53.6005,-102.245 -5.7574,-17.848 78.379,-44.988 84.1364,-27.14 z" id="path12906" inkscape:connector-curvature="0" style="fill:#501616;fill-opacity:1;fill-rule:nonzero;stroke:#f9f9f9;stroke-width:0.1;stroke-miterlimit:4;stroke-dasharray:none" transform="translate(-8192, -51200)"/><path d="m 9083.0931,51799.346 c -25.9914,34.118 -51.978,68.231 -78.5537,101.9 -29.7117,38.434 -62.0557,74.613 -96.5103,108.817 -13.0794,12.85 -73.6522,-48.807 -60.5728,-61.657 l 0,0 c 32.1756,-31.233 62.081,-64.625 89.3496,-100.261 26.0259,-33.434 51.5661,-67.249 75.7184,-102.071 11.3008,-14.97 81.8697,38.302 70.5688,53.272 z" id="path12908" inkscape:connector-curvature="0" style="fill:#501616;fill-opacity:1;fill-rule:nonzero;stroke:#f9f9f9;stroke-width:0.1;stroke-miterlimit:4;stroke-dasharray:none" transform="translate(-8192, -51200)"/><path d="m 8533.6019,52062.869 c 42.4779,-0.246 84.8439,-4.416 127.1307,-8.089 75.6155,-7.378 151.1322,-15.63 226.8362,-22.08 56.5672,-5.37 113.3197,-6.703 169.926,-1.765 15.9508,1.578 31.8315,3.753 47.6308,6.436 18.4229,3.378 2.4984,90.225 -15.9245,86.847 l 0,0 c -13.3161,-2.676 -26.7249,-4.868 -40.2056,-6.545 -51.3369,-5.686 -102.9332,-4.69 -154.3651,-0.155 -75.4656,6.133 -150.7036,14.424 -225.9749,22.558 -45.2249,4.469 -90.4677,9.243 -135.881,11.32 -18.7795,-0.175 -17.9521,-88.703 0.8274,-88.527 z" id="path12910" inkscape:connector-curvature="0" style="fill:#501616;fill-opacity:1;fill-rule:nonzero;stroke:#f9f9f9;stroke-width:0.1;stroke-miterlimit:4;stroke-dasharray:none" transform="translate(-8192, -51200)"/></svg>