<?xml version="1.0" encoding="utf-8" ?>

<!DOCTYPE svg PUBLIC "-//W3C//DTD SVG 1.1//EN" 
  "http://www.w3.org/Graphics/SVG/1.1/DTD/svg11.dtd">
<svg 
    xmlns="http://www.w3.org/2000/svg"
    xmlns:xlink="http://www.w3.org/1999/xlink"
    xmlns:sodipodi="http://sodipodi.sourceforge.net/DTD/sodipodi-0.dtd"
    xmlns:inkscape="http://www.inkscape.org/namespaces/inkscape"
    width="1024" height="1024" id="U4F4E">
<path d="m 11604.566,8397.8171 c -23.591,38.5445 -46.132,77.7177 -68.626,116.9078 -33.368,57.8272 -64.426,116.928 -95.303,176.1069 -13.241,25.402 -26.228,50.9345 -39.17,76.4898 -8.334,16.1461 -84.447,-23.1396 -76.113,-39.2857 l 0,0 c 13.409,-25.4969 26.772,-51.0178 40.13,-76.5416 31.493,-59.9756 62.997,-119.9564 96.425,-178.8862 22.341,-39.6197 44.981,-79.0734 67.07,-118.8338 9.343,-16.0344 84.93,28.0084 75.587,44.0428 z" id="path21973" inkscape:connector-curvature="0" style="fill:#800000;fill-opacity:1;fill-rule:nonzero;stroke:#f9f9f9;stroke-width:0.1;stroke-miterlimit:4;stroke-dasharray:none" transform="translate(-11264, -8192)"/><path d="m 11519.495,8619.3101 c -1.016,48.2304 -3.107,96.4036 -3.405,144.6561 0.323,70.754 5.076,141.3848 11.333,211.8306 4.126,41.3583 8.694,82.8271 19.901,122.9397 4.615,17.7066 -78.855,39.4623 -83.47,21.7557 l 0,0 c -11.124,-45.0916 -16.872,-91.1429 -20.828,-137.3916 -6.152,-72.9544 -10.963,-146.063 -11.794,-219.2964 -0.102,-46.5912 1.435,-93.1742 0.819,-139.7491 -1.007,-18.5498 86.438,-23.2949 87.444,-4.745 z" id="path21975" inkscape:connector-curvature="0" style="fill:#800000;fill-opacity:1;fill-rule:nonzero;stroke:#f9f9f9;stroke-width:0.1;stroke-miterlimit:4;stroke-dasharray:none" transform="translate(-11264, -8192)"/><path d="m 11911.387,8397.7058 c -26.205,42.0466 -53.522,83.3512 -81.62,124.1527 -38.09,54.6689 -78.606,107.5854 -120.281,159.5548 -5.012,6.0136 -10.024,12.0271 -15.036,18.0407 -11.806,13.8905 -77.286,-41.7609 -65.481,-55.6514 l 0,0 c 4.728,-5.447 9.456,-10.8939 14.185,-16.3409 40.902,-49.5516 80.19,-100.449 116.555,-153.4452 26.879,-39.7083 53.208,-79.8242 76.814,-121.5916 9.606,-15.8811 84.47,29.3997 74.864,45.2809 z" id="path21977" inkscape:connector-curvature="0" style="fill:#800000;fill-opacity:1;fill-rule:nonzero;stroke:#f9f9f9;stroke-width:0.1;stroke-miterlimit:4;stroke-dasharray:none" transform="translate(-11264, -8192)"/><path d="m 11685.089,8664.45 c -2.062,36.2265 -0.347,72.5491 0.881,108.7763 3.14,56.6215 1.773,113.2587 -1.137,169.8439 -2.889,49.9724 -7.257,99.9007 -6.912,149.9901 -2.323,-4.9654 3.717,22.7215 3.587,21.5899 -1.903,-16.6133 -19.157,-18.9543 -31.674,-22.3821 18.518,-1.7577 26.804,85.5405 8.285,87.2982 l 0,0 c -9.851,-1.3904 -20.34,-0.4193 -29.555,-4.1712 -32.869,-13.3823 -36.36,-52.7751 -36.98,-82.6892 0.702,-51.4063 5.156,-102.6284 8.192,-153.9303 2.679,-54.1134 3.74,-108.2695 0.452,-162.3972 -1.546,-39.0652 -3.321,-78.1599 -2.539,-117.2658 1.132,-18.5404 88.532,-13.203 87.4,5.3374 z" id="path21979" inkscape:connector-curvature="0" style="fill:#800000;fill-opacity:1;fill-rule:nonzero;stroke:#f9f9f9;stroke-width:0.1;stroke-miterlimit:4;stroke-dasharray:none" transform="translate(-11264, -8192)"/><path d="m 11633.66,8893.0456 c 33.282,-23.4402 69.687,-41.8054 106.187,-59.5962 50.731,-24.0539 103.493,-43.3569 156.166,-62.633 38.498,-13.7123 76.769,-28.0428 113.837,-45.2837 9.445,-4.3553 18.517,-9.3931 27.39,-14.7942 15.992,-9.3168 59.912,66.0703 43.92,75.3871 l 0,0 c -11.56,6.5353 -23.245,12.8315 -35.405,18.2052 -39.367,17.6118 -79.785,32.59 -120.48,46.838 -49.86,18.0665 -99.795,36.2302 -147.671,59.1786 -31.517,15.598 -63.265,31.4364 -91.372,52.7947 -14.869,11.1523 -67.442,-58.9443 -52.572,-70.0965 z" id="path21981" inkscape:connector-curvature="0" style="fill:#800000;fill-opacity:1;fill-rule:nonzero;stroke:#f9f9f9;stroke-width:0.1;stroke-miterlimit:4;stroke-dasharray:none" transform="translate(-11264, -8192)"/><path d="m 11887.538,8565.0663 c -10.591,37.3042 -11.773,76.4214 -12.364,114.929 -0.714,61.3946 13.527,120.5361 34.316,177.8187 19.827,50.5422 47.127,97.5801 76.241,143.2326 20.088,30.7542 42.099,60.1817 64.829,89.016 8.911,11.1065 4.646,5.7199 12.81,16.1487 11.223,14.7375 -58.25,67.6441 -69.473,52.9067 l 0,0 c -7.23,-9.8025 -3.242,-4.4864 -12.016,-15.9093 -23.865,-31.3843 -47.195,-63.2075 -68.525,-96.3875 -32.097,-51.138 -62.167,-103.7904 -83.847,-160.3184 -23.774,-66.9463 -39.956,-136.015 -39.437,-207.5435 0.444,-47.3107 2.064,-95.108 14.132,-141.137 5.779,-17.6779 89.114,9.566 83.334,27.244 z" id="path21983" inkscape:connector-curvature="0" style="fill:#800000;fill-opacity:1;fill-rule:nonzero;stroke:#f9f9f9;stroke-width:0.1;stroke-miterlimit:4;stroke-dasharray:none" transform="translate(-11264, -8192)"/><path d="m 11784.639,9041.6738 c 20.208,16.317 42.178,30.2865 63.61,44.9126 4.216,2.9322 8.432,5.8643 12.648,8.7965 15.079,10.5352 -34.585,81.617 -49.664,71.0817 l 0,0 c -3.944,-2.7693 -7.888,-5.5386 -11.833,-8.3079 -23.874,-16.2968 -48.258,-31.8974 -71.236,-49.4663 -14.216,-11.9801 42.259,-78.9967 56.475,-67.0166 z" id="path21985" inkscape:connector-curvature="0" style="fill:#550000;fill-opacity:1;fill-rule:nonzero;stroke:#f9f9f9;stroke-width:0.10000000000000001;stroke-miterlimit:4;stroke-dasharray:none" transform="translate(-11264, -8192)"/></svg>