<?xml version="1.0" encoding="utf-8" ?>

<!DOCTYPE svg PUBLIC "-//W3C//DTD SVG 1.1//EN" 
  "http://www.w3.org/Graphics/SVG/1.1/DTD/svg11.dtd">
<svg 
    xmlns="http://www.w3.org/2000/svg"
    xmlns:xlink="http://www.w3.org/1999/xlink"
    xmlns:sodipodi="http://sodipodi.sourceforge.net/DTD/sodipodi-0.dtd"
    xmlns:inkscape="http://www.inkscape.org/namespaces/inkscape"
    width="1024" height="1024" id="U4F55">
<path d="m 9594.4203,17649.899 c -24.6159,25.545 -42.9456,56.495 -61.7427,86.366 -33.4864,54.331 -63.8082,110.523 -92.8418,167.332 -11.7652,26.603 -29.1047,53.414 -36.2657,80.981 -4.0653,18.126 -89.5092,-1.038 -85.4439,-19.164 l 0,0 c 9.9879,-35.757 30.09,-67.657 45.9854,-100.957 30.5765,-58.52 62.0967,-116.575 96.146,-173.162 22.6289,-36.902 44.9141,-74.765 75.0615,-106.165 13.7395,-12.537 72.8406,52.231 59.1012,64.769 z" id="path24589" inkscape:connector-curvature="0" style="fill:#550000;fill-opacity:1;fill-rule:nonzero;stroke:#f9f9f9;stroke-width:0.1;stroke-miterlimit:4;stroke-dasharray:none" transform="translate(-9216, -17408)"/><path d="m 9517.0211,17836.233 c 4.8779,46.244 9.7135,92.493 14.5363,138.743 6.2452,61.174 13.5928,122.225 20.9508,183.273 5.9547,39.51 7.8426,80.001 18.6693,118.623 4.553,17.85 -79.5935,39.314 -84.1465,21.463 l 0,0 c -10.1945,-42.722 -13.7223,-86.579 -19.2087,-130.077 -7.1111,-61.387 -14.3665,-122.757 -20.9816,-184.2 -5.0201,-45.574 -9.8121,-91.201 -16.5313,-136.564 -2.3889,-18.394 84.3228,-29.655 86.7117,-11.261 z" id="path24591" inkscape:connector-curvature="0" style="fill:#550000;fill-opacity:1;fill-rule:nonzero;stroke:#f9f9f9;stroke-width:0.1;stroke-miterlimit:4;stroke-dasharray:none" transform="translate(-9216, -17408)"/><path d="m 9657.6545,17700.77 c 35.5775,-6.042 71.5153,-9.632 107.4229,-13.034 47.4583,-4.346 95.102,-5.823 142.7329,-6.483 29.8392,0 59.6691,-0.57 89.4311,-2.769 9.7046,-0.615 4.5286,-0.5 15.5286,-0.167 18.572,1.773 10.214,89.324 -8.358,87.551 l 0,0 c 4.91,-0.419 4.197,-0.279 -2.171,-0.213 -31.1303,1.313 -62.276,1.82 -93.4351,1.586 -45.1773,0.416 -90.3765,1.697 -135.3703,6.064 -32.5565,3.281 -65.2358,6.526 -97.3197,13.126 -18.1714,3.916 -36.6328,-81.745 -18.4614,-85.661 z" id="path24593" inkscape:connector-curvature="0" style="fill:#550000;fill-opacity:1;fill-rule:nonzero;stroke:#f9f9f9;stroke-width:0.1;stroke-miterlimit:4;stroke-dasharray:none" transform="translate(-9216, -17408)"/><path d="m 9686.5405,17892.244 c -4.8291,28.582 -5.5253,57.625 -5.3077,86.542 1.0046,19.849 1.7243,40.322 9.4427,58.9 6.1201,17.437 -76.0805,46.288 -82.2006,28.85 l 0,0 c -9.1887,-28.249 -13.385,-57.412 -13.5874,-87.163 -0.2081,-33.796 0.7566,-67.624 5.1579,-101.176 2.9796,-18.348 89.4747,-4.302 86.4951,14.047 z" id="path24603" inkscape:connector-curvature="0" style="fill:#550000;fill-opacity:1;fill-rule:nonzero;stroke:#f9f9f9;stroke-width:0.1;stroke-miterlimit:4;stroke-dasharray:none" transform="translate(-9216, -17408)"/><path d="m 9677.271,17883.098 c 32.2469,-9.552 65.8725,-12.416 99.2968,-14.195 35.7164,-1.888 70.303,1.809 102.7546,17.083 36.8985,24.534 41.8163,56.557 33.636,97.215 -6.4153,25.74 -20.0023,48.121 -35.3077,69.409 -10.8435,14.908 -81.1173,-36.209 -70.2737,-51.117 l 0,0 c 8.4682,-11.422 16.339,-23.314 20.4627,-37.086 3.7803,-13.319 1.9495,-0.895 11.1569,-1.077 -12.1952,-11.448 -42.7909,-6.694 -57.8899,-8.11 -25.1112,1.301 -50.5316,3.114 -74.7002,10.56 -17.5394,6.181 -46.6749,-76.501 -29.1355,-82.682 z" id="path24605" inkscape:connector-curvature="0" style="fill:#550000;fill-opacity:1;fill-rule:nonzero;stroke:#f9f9f9;stroke-width:0.1;stroke-miterlimit:4;stroke-dasharray:none" transform="translate(-9216, -17408)"/><path d="m 9656.2987,18049.734 c 35.302,0.06 70.533,-3.559 105.7198,-6.138 40.7047,-2.682 81.3314,-6.257 121.7432,-11.842 4.475,-0.715 8.9499,-1.43 13.4249,-2.145 18.2018,-2.733 31.0847,83.071 12.8829,85.804 l 0,0 c -5.0253,0.711 -10.0507,1.423 -15.076,2.134 -42.0555,5.223 -84.2693,8.811 -126.5481,11.692 -38.5317,2.96 -77.0293,7.041 -115.6761,8.023 -18.5676,-0.748 -15.0382,-88.277 3.5294,-87.528 z" id="path24607" inkscape:connector-curvature="0" style="fill:#550000;fill-opacity:1;fill-rule:nonzero;stroke:#f9f9f9;stroke-width:0.1;stroke-miterlimit:4;stroke-dasharray:none" transform="translate(-9216, -17408)"/><path d="m 10034.56,17800.207 c -6.182,36.91 -7.558,74.455 -9.867,111.755 -3.68,61.674 -9.166,123.221 -15.284,184.695 -4.475,49.313 -12.1185,98.15 -27.4682,145.278 -11.1385,32.744 -31.1237,59.159 -56.3445,82.176 -13.8325,12.157 -71.1411,-53.05 -57.3086,-65.207 l 0,0 c 14.6523,-11.844 25.1924,-26.616 31.789,-44.407 14.2085,-40.793 20.0075,-83.638 24.5641,-126.462 6.257,-60.192 11.6589,-120.489 14.7149,-180.939 2.1346,-40.917 3.4798,-81.981 9.0491,-122.616 3.3362,-18.276 89.4922,-2.55 86.1552,15.727 z" id="path24609" inkscape:connector-curvature="0" style="fill:#550000;fill-opacity:1;fill-rule:nonzero;stroke:#f9f9f9;stroke-width:0.1;stroke-miterlimit:4;stroke-dasharray:none" transform="translate(-9216, -17408)"/></svg>