<?xml version="1.0" encoding="utf-8" ?>

<!DOCTYPE svg PUBLIC "-//W3C//DTD SVG 1.1//EN" 
  "http://www.w3.org/Graphics/SVG/1.1/DTD/svg11.dtd">
<svg 
    xmlns="http://www.w3.org/2000/svg"
    xmlns:xlink="http://www.w3.org/1999/xlink"
    xmlns:sodipodi="http://sodipodi.sourceforge.net/DTD/sodipodi-0.dtd"
    xmlns:inkscape="http://www.inkscape.org/namespaces/inkscape"
    width="1024" height="1024" id="U4F53">
<path d="m 11568.011,48406.12 c -28.471,36.223 -50.483,77.089 -72.536,117.39 -32.08,59.351 -58.626,121.42 -80.601,185.153 -2.108,7.087 -4.215,14.173 -6.323,21.26 -5.455,17.549 -88.18,-8.17 -82.725,-25.718 l 0,0 c 2.612,-8.094 5.224,-16.188 7.836,-24.282 24.471,-67.55 52.932,-133.602 86.674,-197.085 24.981,-46.63 49.985,-93.749 82.038,-136.004 12.576,-13.923 78.214,45.362 65.637,59.286 z" id="path12044" inkscape:connector-curvature="0" style="fill:#782121;fill-opacity:1;fill-rule:nonzero;stroke:#f9f9f9;stroke-width:0.1;stroke-miterlimit:4;stroke-dasharray:none" transform="translate(-11264, -48128)"/><path d="m 11504.768,48599.722 c -4.84,45.86 -1.531,92.055 1.48,137.914 5.336,72.288 13.911,144.28 23.732,216.079 3.468,25.75 7.567,51.402 11.914,77.015 2.892,18.184 -82.829,31.818 -85.721,13.634 l 0,0 c -3.935,-26.429 -7.703,-52.882 -11.074,-79.39 -9.465,-73.608 -18.091,-147.338 -24.222,-221.308 -3.834,-50.856 -7.517,-101.914 -3.982,-152.911 1.902,-18.641 89.775,-9.674 87.873,8.967 z" id="path12046" inkscape:connector-curvature="0" style="fill:#782121;fill-opacity:1;fill-rule:nonzero;stroke:#f9f9f9;stroke-width:0.1;stroke-miterlimit:4;stroke-dasharray:none" transform="translate(-11264, -48128)"/><path d="m 11622.095,48540.496 c 37.34,-10.638 75.735,-16.897 113.9,-23.731 57.462,-9.934 114.824,-20.422 172.004,-31.868 26.2,-5.505 52.423,-10.924 78.408,-17.381 18.076,-4.233 38.032,80.979 19.955,85.212 l 0,0 c -27.147,6.015 -54.453,11.266 -81.71,16.757 -57.588,11.15 -115.289,21.694 -172.979,32.299 -33.98,6.451 -68.32,12.132 -101.352,22.604 -17.796,5.988 -46.022,-77.905 -28.226,-83.892 z" id="path12048" inkscape:connector-curvature="0" style="fill:#782121;fill-opacity:1;fill-rule:nonzero;stroke:#f9f9f9;stroke-width:0.1;stroke-miterlimit:4;stroke-dasharray:none" transform="translate(-11264, -48128)"/><path d="m 11861.097,48322.638 c -0.28,60.231 -0.996,120.438 -2.708,180.649 -3.991,103.729 -10.129,207.353 -14.211,311.078 -2.814,73.322 -3.94,146.698 -2.536,220.061 0.822,28.02 0.355,14.803 1.349,39.655 0.474,18.505 -86.76,20.742 -87.234,2.237 l 0,0 c -0.303,-25.696 -0.161,-12.04 -0.411,-40.969 -0.192,-74.862 1.618,-149.708 4.904,-224.498 4.576,-103.147 10.99,-206.218 13.827,-309.436 0.946,-59.823 1.077,-119.647 -1.385,-179.442 0.141,-18.753 88.546,-18.089 88.405,0.665 z" id="path12050" inkscape:connector-curvature="0" style="fill:#782121;fill-opacity:1;fill-rule:nonzero;stroke:#f9f9f9;stroke-width:0.1;stroke-miterlimit:4;stroke-dasharray:none" transform="translate(-11264, -48128)"/><path d="m 11783.706,48657.932 c -24.817,34.101 -47.699,69.589 -71.265,104.563 -33.689,48.804 -65.988,98.506 -95.072,150.197 -13.662,26.151 -7.435,13.547 -18.835,37.737 -8.063,16.593 -86.286,-21.417 -78.223,-38.011 l 0,0 c 13.701,-27.476 6.379,-13.329 22.066,-42.39 30.573,-53.197 63.953,-104.633 98.467,-155.355 24.195,-36.549 47.772,-73.504 72.228,-109.879 11.272,-14.983 81.906,38.154 70.634,53.138 z" id="path12052" inkscape:connector-curvature="0" style="fill:#782121;fill-opacity:1;fill-rule:nonzero;stroke:#f9f9f9;stroke-width:0.1;stroke-miterlimit:4;stroke-dasharray:none" transform="translate(-11264, -48128)"/><path d="m 11955.105,48651.164 c 0.775,27.481 11.21,52.642 23.51,76.746 16.74,30.64 40.174,56.559 63.775,81.968 14.307,15.544 7.313,7.812 20.991,23.186 12.278,13.952 -53.489,71.832 -65.767,57.881 l 0,0 c -12.363,-14.219 -5.89,-6.915 -19.45,-21.885 -28.86,-31.549 -57.004,-64.08 -77.247,-102.046 -17.504,-35.128 -31.63,-71.715 -34.187,-111.318 -0.962,-18.748 87.414,-23.28 88.375,-4.532 z" id="path12054" inkscape:connector-curvature="0" style="fill:#782121;fill-opacity:1;fill-rule:nonzero;stroke:#f9f9f9;stroke-width:0.1;stroke-miterlimit:4;stroke-dasharray:none" transform="translate(-11264, -48128)"/><path d="m 11681.222,48848.125 c 41.916,2.005 83.961,-0.315 125.893,-1.272 51.21,-1.143 102.434,-0.874 153.652,-1.073 18.498,0.111 17.973,87.315 -0.525,87.203 l 0,0 c -50.297,-0.803 -100.611,-1.475 -150.906,-0.121 -45.501,1.314 -91.017,4.201 -136.541,3.361 -18.688,-1.788 -10.262,-89.885 8.427,-88.098 z" id="path12056" inkscape:connector-curvature="0" style="fill:#782121;fill-opacity:1;fill-rule:nonzero;stroke:#f9f9f9;stroke-width:0.1;stroke-miterlimit:4;stroke-dasharray:none" transform="translate(-11264, -48128)"/></svg>