<?xml version="1.0" encoding="UTF-8" standalone="no"?>
<svg
   xmlns:dc="http://purl.org/dc/elements/1.1/"
   xmlns:cc="http://creativecommons.org/ns#"
   xmlns:rdf="http://www.w3.org/1999/02/22-rdf-syntax-ns#"
   xmlns:svg="http://www.w3.org/2000/svg"
   xmlns="http://www.w3.org/2000/svg"
   xmlns:sodipodi="http://sodipodi.sourceforge.net/DTD/sodipodi-0.dtd"
   xmlns:inkscape="http://www.inkscape.org/namespaces/inkscape"
   width="1024"
   height="1024"
   id="U4F7F"
   version="1.1"
   inkscape:version="0.48.0 r9654"
   sodipodi:docname="U+4F7F.svg">
  <metadata
     id="metadata15">
    <rdf:RDF>
      <cc:Work
         rdf:about="">
        <dc:format>image/svg+xml</dc:format>
        <dc:type
           rdf:resource="http://purl.org/dc/dcmitype/StillImage" />
      </cc:Work>
    </rdf:RDF>
  </metadata>
  <defs
     id="defs13" />
  <sodipodi:namedview
     pagecolor="#ffffff"
     bordercolor="#666666"
     borderopacity="1"
     objecttolerance="10"
     gridtolerance="10"
     guidetolerance="10"
     inkscape:pageopacity="0"
     inkscape:pageshadow="2"
     inkscape:window-width="640"
     inkscape:window-height="480"
     id="namedview11"
     showgrid="false"
     inkscape:zoom="0.27441406"
     inkscape:cx="512"
     inkscape:cy="512"
     inkscape:window-x="0"
     inkscape:window-y="25"
     inkscape:window-maximized="0"
     inkscape:current-layer="U4F7F" />
  <path
     style="fill:#a02c2c;fill-opacity:1;fill-rule:nonzero;stroke:#f9f9f9;stroke-width:0.1;stroke-miterlimit:4;stroke-dasharray:none"
     d="M 643.28125 161.71875 C 631.21814 161.69121 621.98541 164.05688 620.90625 169.8125 C 617.05716 205.19176 613.54662 240.58696 609.5625 275.9375 C 588.52772 280.03325 567.46381 284.08455 546.40625 288.0625 C 508.36825 295.5875 469.90515 302.39525 433.34375 315.65625 C 416.12195 323.13025 451.3406 404.31775 468.5625 396.84375 C 499.1394 385.27975 531.60945 379.57825 563.53125 373.03125 C 574.91058 370.80645 586.27452 368.55709 597.65625 366.34375 C 596.17248 375.57809 594.59209 384.79963 592.9375 394 C 583.48446 395.63891 574.03026 397.31918 564.59375 399.0625 C 529.84605 405.0345 495.0404 410.685 460.375 417.125 C 452.61098 418.88017 451.66856 435.41811 454.53125 453.5625 C 429.7731 445.71727 395.72018 443.31118 393.40625 454.6875 C 388.03145 487.9885 392.0793 521.335 398.5 554.125 C 404.3763 580.954 414.1433 606.625 424.75 631.875 C 426.99437 637.14423 436.17945 637.51208 447.625 635.03125 C 448.28186 661.50745 462.17931 703.45017 475.0625 700.40625 C 488.0038 696.68541 500.92877 692.86995 513.84375 689.0625 C 503.16129 716.805 491.29348 744.05424 478.375 770.84375 C 450.37575 763.35239 422.78503 754.08048 398.375 737.96875 C 382.4528 728.01775 335.54655 803.08025 351.46875 813.03125 C 377.78368 828.99985 406.22155 839.99218 435.46875 848.71875 C 423.11854 867.04656 409.2608 884.28342 393.625 900.03125 C 396.5516 897.59325 381.31455 912.4065 384.15625 907.0625 C 367.71465 916.1095 410.3709 993.6085 426.8125 984.5625 C 437.8169 977.7205 448.18395 970.60975 456.90625 960.84375 C 483.67744 932.33161 506.68928 900.77336 525.71875 866.625 C 567.85485 871.86543 610.34548 874.62491 652.5 879.6875 C 699.4445 885.1385 744.3665 898.72675 786.5 919.84375 C 797.4087 925.78675 808.0857 932.2215 817.4375 940.4375 C 832.0778 952.1285 887.17155 883.1285 872.53125 871.4375 C 857.48465 859.9445 841.5399 849.80375 824.5 841.46875 C 773.2486 817.25875 719.1432 800.8985 662.625 794.5625 C 630.43743 790.76002 598.05689 788.19287 565.8125 784.6875 C 583.86918 744.12515 599.81119 702.66815 613.25 660.28125 C 649.88135 650.43895 686.97457 642.59133 724.3125 636 C 747.06782 648.91704 782.51395 658.61356 787 647.46875 C 789.81245 640.20087 792.30757 632.84453 794.59375 625.4375 C 810.17961 623.60737 825.80493 621.9831 841.375 620.03125 C 859.8735 617.36425 847.27975 530.1455 828.78125 532.8125 C 824.96394 533.45154 821.14032 534.05436 817.3125 534.625 C 824.72149 505.95621 832.44352 477.28069 836.59375 447.96875 C 836.57565 405.33475 821.87965 380.64225 777.28125 376.53125 C 749.98735 375.58625 722.64655 376.302 695.46875 379.125 C 690.64039 379.6631 685.82111 380.25508 681 380.84375 C 682.76708 370.46297 684.43067 360.07642 686 349.65625 C 689.94767 348.93941 693.89407 348.23728 697.84375 347.53125 C 702.79675 346.69725 707.7345 345.86425 712.6875 345.03125 C 730.65209 341.80137 715.98914 258.4846 698.125 258.8125 C 701.19732 234.55377 704.29126 210.30061 707.75 186.09375 C 710.12421 173.43137 669.82009 161.77934 643.28125 161.71875 z M 319.96875 176.5625 C 319.0909 176.6103 318.27642 176.83637 317.5 177.25 C 282.3831 197.086 253.337 224.998 225.625 253.875 C 186.7713 295.656 152.53075 341.34375 119.78125 387.96875 C 100.43525 415.73175 82.66645 444.4545 69.28125 475.5625 C 62.25485 492.8345 143.69225 525.9595 150.71875 508.6875 C 159.61433 484.49624 173.82586 462.90747 187.9375 441.46875 C 186.91663 461.63989 185.97573 481.80731 185.34375 502 C 184.06125 564.538 187.4306 627.059 190.5 689.5 C 193.2145 740.108 195.09945 790.77375 198.46875 841.34375 C 198.43505 862.57475 203.0458 881.50875 211.5625 900.71875 C 220.01735 916.0057 287.6859 879.94577 289.625 861.65625 C 289.81103 862.57031 289.82759 862.26085 289.6875 861.28125 C 289.74239 860.33516 289.57915 859.46087 289.25 858.625 C 288.16271 851.61538 285.42437 834.99943 285.4375 834.75 C 281.1988 784.992 278.97335 735.104 276.21875 685.25 C 273.21295 625.218 270.04705 565.09275 271.59375 504.96875 C 273.14775 463.66975 276.0656 422.453 279.25 381.25 C 279.5907 372.96037 262.46308 367.64793 243.21875 365.90625 C 257.42714 348.01437 272.25895 330.64496 287.96875 314 C 309.40575 291.899 331.60915 269.8695 359.09375 255.3125 C 374.88103 246.90212 337.8184 175.5906 319.96875 176.5625 z M 744.5625 463.90625 C 739.76937 486.01044 734.02286 507.93322 728.5625 529.875 C 726.87454 536.03666 725.39122 542.25363 723.96875 548.5 C 695.97299 553.40772 668.06901 558.86848 640.34375 565.09375 C 648.62492 533.79512 656.35809 502.35205 663.34375 470.75 C 677.10288 468.86719 690.89263 467.18191 704.71875 465.78125 C 717.97582 464.55689 731.2621 463.94263 744.5625 463.90625 z M 768.4375 464.5 C 769.98668 464.58196 771.54522 464.65097 773.09375 464.75 C 773.86245 464.931 776.17595 465.10525 775.40625 465.28125 C 773.1434 465.79987 770.76585 465.42786 768.4375 464.5 z M 573.78125 485.59375 C 565.56703 520.39363 556.4027 554.97271 546.59375 589.375 C 533.01422 593.22229 519.44269 597.09978 505.84375 600.875 C 506.02932 599.69763 505.92075 598.56118 505.46875 597.5 C 496.97145 577.881 489.11145 557.92125 484.28125 537.03125 C 482.02726 525.98308 480.03528 514.79682 479.125 503.5625 C 479.3814 503.53952 479.65021 503.49538 479.90625 503.4375 C 510.97078 496.37241 542.4131 491.12763 573.78125 485.59375 z "
     id="path12305" />
</svg>
