<?xml version="1.0" encoding="utf-8" ?>

<!DOCTYPE svg PUBLIC "-//W3C//DTD SVG 1.1//EN" 
  "http://www.w3.org/Graphics/SVG/1.1/DTD/svg11.dtd">
<svg 
    xmlns="http://www.w3.org/2000/svg"
    xmlns:xlink="http://www.w3.org/1999/xlink"
    xmlns:sodipodi="http://sodipodi.sourceforge.net/DTD/sodipodi-0.dtd"
    xmlns:inkscape="http://www.inkscape.org/namespaces/inkscape"
    width="1024" height="1024" id="U4F11">
<path d="m 9604.3655,55534.912 c -22.0783,26.433 -41.6222,54.892 -61.4784,83.001 -33.6093,47.305 -64.8717,96.186 -94.934,145.801 -20.5182,33.818 -39.0493,68.755 -55.6759,104.631 -7.9525,16.691 -86.6315,-20.798 -78.679,-37.488 l 0,0 c 18.6201,-38.134 38.7591,-75.496 60.8721,-111.734 31.0913,-51.163 63.2642,-101.66 97.5258,-150.772 21.286,-30.759 42.3249,-61.747 65.3135,-91.275 12.2688,-14.224 79.3246,43.611 67.0559,57.836 z" id="path12537" inkscape:connector-curvature="0" style="fill:#916f6f;fill-opacity:1;fill-rule:nonzero;stroke:#f9f9f9;stroke-width:0.1;stroke-miterlimit:4;stroke-dasharray:none" transform="translate(-9216, -55296)"/><path d="m 9512.7255,55739.836 c 8.6964,41.559 12.7448,83.876 16.4437,126.112 4.6686,60.887 8.2408,121.852 12.1878,182.789 1.8339,29.092 4.0883,58.152 6.7784,87.177 1.5552,18.437 -85.3589,25.768 -86.9141,7.331 l 0,0 c -2.2701,-29.721 -4.2321,-59.462 -5.91,-89.222 -3.4912,-60.086 -6.8183,-120.196 -11.9504,-180.169 -3.6596,-37.728 -7.3569,-75.676 -16.4933,-112.553 -4.5533,-18.213 81.3046,-39.678 85.8579,-21.465 z" id="path12539" inkscape:connector-curvature="0" style="fill:#916f6f;fill-opacity:1;fill-rule:nonzero;stroke:#f9f9f9;stroke-width:0.1;stroke-miterlimit:4;stroke-dasharray:none" transform="translate(-9216, -55296)"/><path d="m 9567.8279,55699.676 c 42.9672,-4.171 85.746,-10.045 128.6906,-14.502 62.626,-5.797 125.4686,-8.87 188.3045,-11.258 35.1575,-2.093 70.4208,-0.447 105.5858,-1.848 18.6972,-0.32 20.2062,87.817 1.5098,88.137 l 0,0 c -34.7074,-0.02 -69.4243,-1.688 -104.131,-0.166 -60.7683,1.869 -121.549,4.686 -182.0708,10.645 -43.1484,4.813 -86.0961,10.988 -129.0855,17.026 -18.6748,1.867 -27.4782,-86.167 -8.8034,-88.034 z" id="path12541" inkscape:connector-curvature="0" style="fill:#916f6f;fill-opacity:1;fill-rule:nonzero;stroke:#f9f9f9;stroke-width:0.1;stroke-miterlimit:4;stroke-dasharray:none" transform="translate(-9216, -55296)"/><path d="m 9859.8682,55563.766 c -12.4178,47.035 -15.8278,96.037 -20.576,144.301 -8.2655,87.95 -13.6297,176.134 -18.7531,264.311 -3.9624,63.601 -5.335,127.328 -2.2276,190.983 0.4294,5.884 0.8588,11.767 1.2881,17.65 1.1065,18.459 -85.9111,23.676 -87.0176,5.216 l 0,0 c -0.3134,-6.507 -0.6267,-13.014 -0.9401,-19.521 -1.9396,-66.505 0,-133.013 4.4965,-199.394 5.5176,-89.065 10.9737,-178.143 18.3103,-267.081 4.7419,-54.823 8.2482,-110.268 21.4483,-163.86 5.8113,-17.813 89.7825,9.582 83.9712,27.395 z" id="path12543" inkscape:connector-curvature="0" style="fill:#916f6f;fill-opacity:1;fill-rule:nonzero;stroke:#f9f9f9;stroke-width:0.1;stroke-miterlimit:4;stroke-dasharray:none" transform="translate(-9216, -55296)"/><path d="m 9784.0905,55861.885 c -26.839,24.064 -50.5722,51.31 -74.1586,78.491 -32.0829,37.18 -62.3047,75.896 -91.2396,115.559 -9.4385,12.699 -18.1159,25.905 -26.3867,39.38 -9.9951,15.692 -83.9666,-31.426 -73.9715,-47.117 l 0,0 c 9.7525,-14.866 19.7602,-29.555 30.4888,-43.743 30.6131,-41.16 62.2792,-81.534 95.5505,-120.589 25.58,-29.864 51.4711,-59.521 79.6949,-86.947 13.7812,-12.732 73.8034,52.233 60.0222,64.966 z" id="path12545" inkscape:connector-curvature="0" style="fill:#916f6f;fill-opacity:1;fill-rule:nonzero;stroke:#f9f9f9;stroke-width:0.1;stroke-miterlimit:4;stroke-dasharray:none" transform="translate(-9216, -55296)"/><path d="m 9925.9145,55825.512 c -1.4705,27.292 8.027,52.953 18.7818,77.511 16.5655,33.235 37.5124,64.006 56.6467,95.772 8.43,13.32 14.763,27.601 20.6,42.175 6.592,17.46 -75.715,48.536 -82.3072,31.076 l 0,0 c -3.3079,-10.038 -7.8461,-19.477 -13.3219,-28.548 -20.7187,-35.194 -43.8718,-69.046 -61.4964,-105.98 -16.0398,-37.521 -28.6071,-76.517 -27.1028,-117.886 1.2473,-18.71 89.4471,-12.83 88.1998,5.88 z" id="path12547" inkscape:connector-curvature="0" style="fill:#916f6f;fill-opacity:1;fill-rule:nonzero;stroke:#f9f9f9;stroke-width:0.1;stroke-miterlimit:4;stroke-dasharray:none" transform="translate(-9216, -55296)"/></svg>