<?xml version="1.0" encoding="UTF-8" standalone="no"?>
<svg
   xmlns:dc="http://purl.org/dc/elements/1.1/"
   xmlns:cc="http://creativecommons.org/ns#"
   xmlns:rdf="http://www.w3.org/1999/02/22-rdf-syntax-ns#"
   xmlns:svg="http://www.w3.org/2000/svg"
   xmlns="http://www.w3.org/2000/svg"
   xmlns:sodipodi="http://sodipodi.sourceforge.net/DTD/sodipodi-0.dtd"
   xmlns:inkscape="http://www.inkscape.org/namespaces/inkscape"
   width="1024"
   height="1024"
   id="U4F8B"
   version="1.1"
   inkscape:version="0.48.0 r9654"
   sodipodi:docname="U+4F8B.svg">
  <metadata
     id="metadata15">
    <rdf:RDF>
      <cc:Work
         rdf:about="">
        <dc:format>image/svg+xml</dc:format>
        <dc:type
           rdf:resource="http://purl.org/dc/dcmitype/StillImage" />
      </cc:Work>
    </rdf:RDF>
  </metadata>
  <defs
     id="defs13" />
  <sodipodi:namedview
     pagecolor="#ffffff"
     bordercolor="#666666"
     borderopacity="1"
     objecttolerance="10"
     gridtolerance="10"
     guidetolerance="10"
     inkscape:pageopacity="0"
     inkscape:pageshadow="2"
     inkscape:window-width="640"
     inkscape:window-height="480"
     id="namedview11"
     showgrid="false"
     inkscape:zoom="0.27441406"
     inkscape:cx="512"
     inkscape:cy="512"
     inkscape:window-x="0"
     inkscape:window-y="25"
     inkscape:window-maximized="0"
     inkscape:current-layer="U4F8B" />
  <path
     style="fill:#2b0000;fill-opacity:1;fill-rule:nonzero;stroke:#f9f9f9;stroke-width:0.1;stroke-miterlimit:4;stroke-dasharray:none"
     d="M 227.46875 137.5 C 225.46068 137.52646 223.79954 138.09163 222.5625 139.34375 C 194.6546 171.31075 175.5669 209.61075 156.5625 247.21875 C 133.3702 293.49875 114.1918 341.58375 96.9375 390.34375 C 89.6411 412.96075 80.5785 435.21675 76.5625 458.71875 C 74.1489 477.36575 162.05515 488.74075 164.46875 470.09375 C 165.75316 459.77119 169.97694 447.63605 173.9375 435.8125 C 174.99721 447.1784 176.07683 458.54915 177.21875 469.90625 C 182.79255 523.16825 189.18245 576.34075 194.84375 629.59375 C 198.88315 672.06075 206.1082 714.10325 211.4375 756.40625 C 214.5781 780.72125 215.10155 805.28625 217.59375 829.65625 C 218.35165 833.20925 219.117 836.7595 219.875 840.3125 C 224.8434 858.4525 310.3434 835.016 305.375 816.875 C 305.367 817.63 305.35375 818.40225 305.34375 819.15625 C 301.73595 794.66025 301.7481 769.70875 297.9375 745.21875 C 292.4019 703.53575 285.1503 662.06875 280.875 620.21875 C 280.86801 620.15584 280.85075 620.09416 280.84375 620.03125 C 294.07373 634.88597 364.27382 641.4458 366.25 624.84375 C 366.5166 622.10275 366.796 619.366 367.0625 616.625 C 372.1618 579.953 378.906 543.566 387.875 507.625 C 393.73648 482.94001 399.81582 458.32228 406 433.71875 C 413.46182 451.5641 423.6872 466.29029 431.5 463.46875 C 455.3652 454.50275 480.1494 448.3295 505 442.8125 C 515.86576 440.62048 526.82248 438.78851 537.84375 437.65625 C 533.19518 449.03988 528.31167 460.31622 523.46875 471.59375 C 509.15066 503.62583 495.68019 536.02171 482.5 568.53125 C 470.8737 558.32452 459.97551 547.33194 450.09375 535.375 C 437.84235 521.174 370.90485 578.924 383.15625 593.125 C 402.29545 614.664 423.4255 634.187 445.9375 652.125 C 446.89822 652.8259 447.16429 652.99681 447.9375 653.5625 C 436.33851 681.61147 424.54211 709.60453 412.4375 737.4375 C 403.12462 756.32203 395.67274 776.63888 383.96875 794.28125 C 385.87196 792.64931 387.90154 791.93256 391.53125 790.0625 C 378.09718 802.05081 398.06072 878.95482 415.34375 874.6875 C 431.94295 867.9015 445.265 862.35375 455.125 846.59375 C 470.1125 823.00775 481.3472 797.315 492.5 771.75 C 510.9554 728.12 528.88185 684.26625 546.78125 640.40625 C 564.82445 595.43125 582.99715 550.49475 603.28125 506.46875 C 616.45625 476.81675 631.7016 447.1875 636.625 414.8125 C 636.3922 408.6395 637.2479 402.31825 635.9375 396.28125 C 629.1887 365.19125 602.90915 349.60825 573.03125 348.53125 C 543.75955 348.09025 514.6362 351.26525 486 357.40625 C 464.21471 362.2607 442.53937 367.61079 421.15625 374 C 422.98228 366.85863 424.82991 359.73519 426.65625 352.59375 C 432.58705 328.66373 438.29694 304.66873 444.40625 280.78125 C 466.40993 274.74468 488.85764 270.63201 511.625 268.5625 C 524.3271 267.6715 537.0801 267.33875 549.8125 267.46875 C 568.5997 267.29675 567.81845 178.73525 549.03125 178.90625 C 533.59425 179.28425 518.1302 179.77975 502.75 181.21875 C 466.0656 185.25775 429.99315 193.0475 394.96875 204.8125 C 362.13195 215.9855 329.95695 228.80975 298.96875 244.46875 C 282.24615 252.97675 322.3399 331.8205 339.0625 323.3125 C 341.15149 322.14811 343.26617 321.02792 345.375 319.90625 C 344.40981 323.94783 343.44113 327.99134 342.46875 332.03125 C 329.56495 383.85825 316.3364 435.578 303.8125 487.5 C 294.1008 525.791 286.53285 564.55225 280.21875 603.53125 C 279.99288 605.19927 279.75713 606.86323 279.53125 608.53125 C 274.01656 559.57165 268.14674 510.67087 263.4375 461.625 C 260.1627 425.872 257.4484 390.055 254.8125 354.25 C 253.7427 344.53259 229.38512 342.52151 206.5625 345.4375 C 214.83843 325.46312 223.75953 305.76056 233.59375 286.46875 C 248.72685 257.03175 263.60955 226.6735 285.53125 201.5625 C 297.48931 189.45863 246.88013 137.24419 227.46875 137.5 z M 383.96875 794.28125 C 382.84306 795.24649 381.74702 796.54135 380.375 798.5625 C 380.1505 798.8935 381.0891 798.16475 381.4375 797.96875 C 382.30636 796.75379 383.14417 795.5242 383.96875 794.28125 z M 770.15625 162.375 C 758.08381 162.6515 748.90356 165.27562 747.96875 171.0625 C 743.26435 209.8855 744.2218 249.07975 744.8125 288.09375 C 746.2551 351.57975 743.64495 415.02925 740.21875 478.40625 C 735.88605 547.20725 731.3459 616.00125 726.6875 684.78125 C 723.5751 732.00625 719.3955 779.15725 713.8125 826.15625 C 711.4558 846.85225 706.9124 867.14325 699.3125 886.53125 C 695.6389 894.67825 697.54855 890.8545 693.59375 898.0625 C 684.92355 914.6415 763.0798 955.5165 771.75 938.9375 C 778.944 924.8465 775.64495 931.902 781.71875 917.75 C 791.51335 891.329 797.85415 863.94275 800.53125 835.84375 C 805.60965 787.44475 809.46695 738.91875 812.40625 690.34375 C 816.69975 621.26275 821.0166 552.193 825.5 483.125 C 829.1775 417.878 832.19175 352.5615 831.40625 287.1875 C 831.21445 253.1885 830.32275 218.89125 835.28125 185.15625 C 837.33784 172.42512 796.71562 161.7667 770.15625 162.375 z M 667.1875 318.09375 C 653.33256 318.02269 642.37587 320.62825 641.40625 327 C 637.02165 366.174 637.48715 405.649 637.71875 445 C 638.23505 486.742 637.22125 528.47675 633.96875 570.09375 C 631.97575 590.89775 632.9634 580.7385 631 600.5625 C 629.3041 619.0705 716.5541 627.0705 718.25 608.5625 C 719.9774 588.0725 719.09245 598.77275 720.96875 576.46875 C 723.98685 532.60175 724.9328 488.6575 724.5 444.6875 C 724.4386 409.8855 723.84435 374.8525 728.78125 340.3125 C 730.63233 328.14825 693.63784 318.22942 667.1875 318.09375 z M 568.84375 436.59375 C 569.41288 436.61725 569.99327 436.62741 570.5625 436.65625 C 571.7658 436.87925 573.01375 436.8735 574.15625 437.3125 C 574.46005 437.4285 573.5658 437.7675 573.25 437.6875 C 571.79209 437.32697 570.28635 437.04096 568.84375 436.59375 z "
     id="path9656" />
</svg>
