<?xml version="1.0" encoding="utf-8" ?>

<!DOCTYPE svg PUBLIC "-//W3C//DTD SVG 1.1//EN" 
  "http://www.w3.org/Graphics/SVG/1.1/DTD/svg11.dtd">
<svg 
    xmlns="http://www.w3.org/2000/svg"
    xmlns:xlink="http://www.w3.org/1999/xlink"
    xmlns:sodipodi="http://sodipodi.sourceforge.net/DTD/sodipodi-0.dtd"
    xmlns:inkscape="http://www.inkscape.org/namespaces/inkscape"
    width="1024" height="1024" id="U4F1F">
<path d="m 7546.2118,51431.606 c -23.0307,13.07 -40.5223,33.761 -57.572,53.557 -33.149,40.694 -61.8449,84.759 -90.4109,128.717 -14.5915,28.21 -39.7003,53.375 -48.0166,84.676 0.4981,-0.736 0.9962,-1.473 1.4943,-2.21 -2.3058,18.598 -89.9788,7.729 -87.6731,-10.869 l 0,0 c 1.0876,-5.492 2.1751,-10.983 3.2627,-16.475 14.3595,-36.837 37.5186,-69.122 58.7437,-102.247 30.7892,-46.956 61.4726,-94.16 96.7159,-137.947 24.8871,-29.259 51.0085,-58.431 85.1986,-77.044 16.937,-8.116 55.1944,71.726 38.2574,79.842 z" id="path12886" inkscape:connector-curvature="0" style="fill:#501616;fill-opacity:1;fill-rule:nonzero;stroke:#f9f9f9;stroke-width:0.1;stroke-miterlimit:4;stroke-dasharray:none" transform="translate(-7168, -51200)"/><path d="m 7496.4893,51560.739 c -1.4944,43.112 -1.0075,86.273 -0.8893,129.404 0.011,68.814 0.8451,137.622 3.112,206.399 2.6725,44.084 2.021,88.748 9.9075,132.342 0.7116,1.866 1.4232,3.731 2.1348,5.597 5.147,17.924 -79.3452,42.187 -84.4922,24.263 l 0,0 c -1.367,-5.372 -2.7339,-10.745 -4.1009,-16.117 -6.8173,-47.502 -7.0667,-95.609 -9.0221,-143.485 -1.9346,-69.42 -2.6547,-138.86 -3.2761,-208.302 -0.594,-43.914 -1.371,-87.825 -1.8843,-131.74 0.3477,-18.776 88.8584,-17.137 88.5106,1.639 z" id="path12888" inkscape:connector-curvature="0" style="fill:#501616;fill-opacity:1;fill-rule:nonzero;stroke:#f9f9f9;stroke-width:0.1;stroke-miterlimit:4;stroke-dasharray:none" transform="translate(-7168, -51200)"/><path d="m 7572.7358,51510.054 c 41.3902,-15.531 84.4381,-25.744 127.6398,-34.712 52.8234,-10.663 106.6293,-13.664 160.3838,-13.171 24.1262,1.018 12.4846,0.203 34.9335,2.32 18.4799,2.024 8.9378,89.139 -9.542,87.114 l 0,0 c -16.4498,-2.163 -7.4996,-1.237 -26.878,-2.5 -47.3175,-1.236 -94.7109,1.103 -141.2084,10.631 -37.6366,7.973 -75.3314,16.842 -110.919,31.778 -17.2802,7.3 -51.6899,-74.16 -34.4097,-81.46 z" id="path12890" inkscape:connector-curvature="0" style="fill:#501616;fill-opacity:1;fill-rule:nonzero;stroke:#f9f9f9;stroke-width:0.1;stroke-miterlimit:4;stroke-dasharray:none" transform="translate(-7168, -51200)"/><path d="m 7640.6187,51640.925 c 33.8538,-6.611 67.3781,-14.783 101.0954,-22.047 36.2264,-7.708 72.8133,-13.441 109.7306,-16.389 18.418,-0.504 9.4115,-0.594 27.0204,0.186 18.6511,1.185 13.0646,89.107 -5.5865,87.922 l 0,0 c -9.0587,-0.949 -4.0082,-0.622 -15.1684,-0.676 -32.8717,2.025 -65.4125,7.148 -97.6344,13.921 -34.2892,7.436 -68.3877,15.69 -102.5108,23.849 -18.4057,3.594 -35.3521,-83.171 -16.9463,-86.766 z" id="path12892" inkscape:connector-curvature="0" style="fill:#501616;fill-opacity:1;fill-rule:nonzero;stroke:#f9f9f9;stroke-width:0.1;stroke-miterlimit:4;stroke-dasharray:none" transform="translate(-7168, -51200)"/><path d="m 7517.2692,51840.58 c 45.8565,-10.698 91.7042,-21.323 137.8404,-30.766 69.4956,-13.938 139.5527,-24.708 210.1203,-31.286 55.2138,-5.144 109.8848,-1.716 162.6019,15.575 49.7121,20.961 71.3551,46.78 89.4439,96.742 14.3433,53.54 5.1008,107.538 -9.1332,159.903 -11.4872,33.752 -24.9632,68.484 -49.5536,95.171 -5.7644,6.256 -12.6083,11.423 -18.9125,17.135 -14.175,11.914 -70.3403,-54.908 -56.1652,-66.822 l 0,0 c 23.0491,-15.435 32.2534,-43.506 41.345,-68.46 9.9428,-35.364 17.597,-72.143 9.7989,-108.78 -5.8271,-19.901 -15.1946,-34.245 -35.1733,-42.521 -40.5403,-15.044 -83.8126,-15.569 -126.5869,-12.664 -67.3169,5.807 -134.1002,16.162 -200.26,29.906 -45.6195,9.73 -90.9978,20.477 -135.9205,33.074 -18.2873,4.125 -37.7325,-82.082 -19.4452,-86.207 z" id="path12894" inkscape:connector-curvature="0" style="fill:#501616;fill-opacity:1;fill-rule:nonzero;stroke:#f9f9f9;stroke-width:0.1;stroke-miterlimit:4;stroke-dasharray:none" transform="translate(-7168, -51200)"/><path d="m 7839.1295,51319.03 c -16.7675,42.876 -17.9451,90.621 -21.5136,135.981 -6.6863,106.141 -11.4903,212.395 -15.3963,318.672 -3.7881,93.981 -2.9838,188.017 5.2833,281.716 4.0168,41.279 11.5572,82.052 19.7675,122.661 3.4874,17.958 -81.1686,34.398 -84.656,16.44 l 0,0 c -8.1711,-43.764 -15.712,-87.677 -19.6311,-132.067 -7.6295,-97.126 -8.0336,-194.512 -3.893,-291.848 4.0502,-107.225 8.8175,-214.424 14.1008,-321.594 3.8534,-59.839 4.7763,-123.121 31.6758,-178.014 10.1934,-15.753 84.456,32.299 74.2626,48.053 z" id="path12896" inkscape:connector-curvature="0" style="fill:#501616;fill-opacity:1;fill-rule:nonzero;stroke:#f9f9f9;stroke-width:0.1;stroke-miterlimit:4;stroke-dasharray:none" transform="translate(-7168, -51200)"/></svg>