<?xml version="1.0" encoding="utf-8" ?>

<!DOCTYPE svg PUBLIC "-//W3C//DTD SVG 1.1//EN" 
  "http://www.w3.org/Graphics/SVG/1.1/DTD/svg11.dtd">
<svg 
    xmlns="http://www.w3.org/2000/svg"
    xmlns:xlink="http://www.w3.org/1999/xlink"
    xmlns:sodipodi="http://sodipodi.sourceforge.net/DTD/sodipodi-0.dtd"
    xmlns:inkscape="http://www.inkscape.org/namespaces/inkscape"
    width="1024" height="1024" id="U5047">
<path d="m 8529.8078,21722.77 c -24.5784,32.122 -43.8719,67.897 -63.6091,103.086 -28.7913,52.761 -59.6657,104.321 -92.3188,154.771 -14.603,22.52 -30.2126,44.333 -46.6523,65.538 -11.6982,14.703 -81.0104,-40.443 -69.3122,-55.146 l 0,0 c 15.286,-18.629 29.5871,-38.01 42.9068,-58.103 31.9493,-48.46 61.7707,-98.263 89.2394,-149.409 21.6079,-39.163 42.964,-78.65 68.9497,-115.145 11.5418,-15.018 82.3382,39.39 70.7965,54.408 z" id="path8643" inkscape:connector-curvature="0" style="fill:#550000;fill-opacity:1;fill-rule:nonzero;stroke:#f9f9f9;stroke-width:0.1;stroke-miterlimit:4;stroke-dasharray:none" transform="translate(-8192, -21504)"/><path d="m 8442.2838,21937.687 c -6.2396,36.401 -3.9839,73.522 -2.3581,110.209 3.1872,58.614 5.2279,117.277 6.7235,175.956 1.2816,39.847 0.902,79.822 4.5667,119.552 0.3859,2.243 0.7718,4.486 1.1576,6.73 2.525,18.719 -85.7179,30.621 -88.2428,11.902 l 0,0 c -0.4515,-3.964 -0.9029,-7.929 -1.3543,-11.893 -2.6111,-41.354 -2.234,-82.82 -3.1773,-124.232 -1.2634,-57.98 -3.3178,-115.939 -6.9242,-173.827 -2.201,-42.749 -4.4163,-85.77 1.4417,-128.352 2.9602,-18.703 91.1274,-4.748 88.1672,13.955 z" id="path8645" inkscape:connector-curvature="0" style="fill:#550000;fill-opacity:1;fill-rule:nonzero;stroke:#f9f9f9;stroke-width:0.1;stroke-miterlimit:4;stroke-dasharray:none" transform="translate(-8192, -21504)"/><path d="m 8553.9358,21735.4 c 27.7217,-2.995 55.5776,-3.579 83.4307,-3.188 28.1128,-0.461 54.442,3.406 79.7017,15.822 32.0899,21.888 38.6046,56.233 39.1081,92.531 -1.0815,32.884 -7.9809,64.994 -19.4079,95.742 -6.779,17.561 -89.5603,-14.396 -82.7812,-31.956 l 0,0 c 8.3026,-20.077 12.157,-41.601 13.4653,-63.244 0.1087,-11.774 -5.355,-21.2 5.9723,-15.264 4.4383,-0.954 -24.127,-4.46 -25.6797,-4.548 -3.9427,-0.223 -7.8916,-0.318 -11.8374,-0.477 -23.8863,-0.46 -47.8472,-0.209 -71.5293,3.344 -18.8292,2.215 -29.2718,-86.547 -10.4426,-88.762 z" id="path8647" inkscape:connector-curvature="0" style="fill:#550000;fill-opacity:1;fill-rule:nonzero;stroke:#f9f9f9;stroke-width:0.1;stroke-miterlimit:4;stroke-dasharray:none" transform="translate(-8192, -21504)"/><path d="m 8510.8661,21946.92 c 30.8358,-7.511 62.2571,-11.949 93.7156,-15.84 27.9629,-3.274 56.0076,-5.765 84.0533,-8.2 7.2476,-0.816 4.3911,-0.168 8.6873,-1.317 18.7111,-3.15 33.5601,85.055 14.849,88.205 l 0,0 c -11.2542,1.608 -5.6605,0.981 -16.7792,1.902 -26.696,1.736 -53.3733,3.835 -79.9453,6.981 -27.2457,3.391 -54.5825,6.993 -81.0569,14.524 -18.2973,4.99 -41.8211,-81.264 -23.5238,-86.255 z" id="path8649" inkscape:connector-curvature="0" style="fill:#550000;fill-opacity:1;fill-rule:nonzero;stroke:#f9f9f9;stroke-width:0.1;stroke-miterlimit:4;stroke-dasharray:none" transform="translate(-8192, -21504)"/><path d="m 8584.286,21782.728 c 0.4154,42.575 0.1777,85.138 -0.9703,127.7 -1.8923,63.639 -8.7881,126.947 -16.2349,190.128 -6.4036,50.562 -12.7234,101.126 -16.7597,151.939 -2.0905,28.538 -3.0944,57.139 -4.3823,85.72 -0.7289,10.828 -0.7018,21.691 -1.2861,32.522 -0.4525,2.771 -0.9049,5.542 -1.3573,8.313 -4.5678,18.514 -91.8435,-3.019 -87.2757,-21.533 l 0,0 c -0.2844,2.09 -0.5688,4.18 -0.8532,6.269 0.7472,-10.063 1.1324,-20.218 1.933,-30.301 1.816,-29.467 3.22,-58.963 5.6806,-88.387 4.6202,-51.765 11.3733,-103.277 18.1099,-154.803 7.2678,-60.432 13.8371,-121.015 15.242,-181.922 0.8203,-41.018 1.009,-82.07 -1.0872,-123.058 -0.5487,-18.931 88.6925,-21.518 89.2412,-2.587 z" id="path8651" inkscape:connector-curvature="0" style="fill:#550000;fill-opacity:1;fill-rule:nonzero;stroke:#f9f9f9;stroke-width:0.1;stroke-miterlimit:4;stroke-dasharray:none" transform="translate(-8192, -21504)"/><path d="m 8558.0444,22078.665 c 26.8905,-0.195 53.723,-2.24 80.5398,-4.058 21.4163,-1.54 42.8654,-2.297 64.3283,-1.702 18.881,0.725 15.4623,89.731 -3.4187,89.006 l 0,0 c -18.3351,-0.99 -36.687,-0.179 -55.0007,0.967 -28.3223,1.872 -56.6395,3.838 -84.9959,5.132 -18.9531,0.308 -20.4058,-89.037 -1.4528,-89.345 z" id="path8653" inkscape:connector-curvature="0" style="fill:#550000;fill-opacity:1;fill-rule:nonzero;stroke:#f9f9f9;stroke-width:0.1;stroke-miterlimit:4;stroke-dasharray:none" transform="translate(-8192, -21504)"/><path d="m 8584.9745,22181.551 c 23.1481,4.047 46.8262,3.252 70.2296,3.043 23.3299,-0.275 46.6617,-0.05 69.9899,-0.445 0.4377,0.438 19.476,-0.931 12.0367,-0.7 18.4233,-4.657 40.3782,82.191 21.9549,86.848 l 0,0 c -11.0251,2.219 -21.939,3.486 -33.2181,2.961 -23.347,0.02 -46.6921,-0.378 -70.0395,-0.162 -29.9572,0.225 -60.125,0.772 -89.7841,-4.171 -18.5348,-3.995 0.2958,-91.368 18.8306,-87.374 z" id="path8655" inkscape:connector-curvature="0" style="fill:#550000;fill-opacity:1;fill-rule:nonzero;stroke:#f9f9f9;stroke-width:0.1;stroke-miterlimit:4;stroke-dasharray:none" transform="translate(-8192, -21504)"/><path d="m 8849.3977,21697.026 c 25.7545,1.701 51.5267,3.085 77.3066,4.335 22.5261,0.409 44.7919,2.54 66.4121,8.97 34.3415,12.943 46.0441,38.368 51.7317,72.531 2.5659,33.699 -0.6965,67.526 -3.1796,101.142 -1.9698,23.844 -3.7872,47.7 -5.672,71.551 -0.3242,2.753 -0.6484,5.507 -0.9726,8.26 -2.4535,18.792 -91.0401,7.226 -88.5866,-11.566 l 0,0 c 0.2358,-1.536 0.4716,-3.071 0.7074,-4.607 2.33,-23.394 4.4603,-46.809 6.4393,-70.236 2.0609,-27.121 4.4777,-54.376 3.2831,-81.59 -0.8047,-10.225 3.0656,-0.564 8.9022,-0.46 -13.4868,-5.811 -29.3809,-3.63 -43.583,-5.428 -25.2139,-1.351 -50.4276,-2.92 -75.6694,-3.597 -18.9446,-0.611 -16.0638,-89.916 2.8808,-89.305 z" id="path8657" inkscape:connector-curvature="0" style="fill:#550000;fill-opacity:1;fill-rule:nonzero;stroke:#f9f9f9;stroke-width:0.1;stroke-miterlimit:4;stroke-dasharray:none" transform="translate(-8192, -21504)"/><path d="m 8804.2188,21940.027 c 26.5452,-2.867 53.1474,-5.185 79.7778,-7.089 25.4201,-1.676 50.8889,-2.622 76.3607,-2.97 14.4489,0.04 28.9283,0.453 43.3161,1.844 1.6034,0.231 3.2067,0.461 4.8101,0.691 18.7667,3.225 3.5652,91.692 -15.2015,88.468 l 0,0 c 0.08,-0.03 0.16,-0.06 0.24,-0.09 -10.6643,-1.775 -21.6549,-1.426 -32.411,-1.938 -23.6172,0.06 -47.2383,0.8 -70.8089,2.299 -24.6123,1.754 -49.2456,3.765 -73.667,7.359 -18.7884,2.634 -31.2047,-85.936 -12.4163,-88.57 z" id="path8659" inkscape:connector-curvature="0" style="fill:#550000;fill-opacity:1;fill-rule:nonzero;stroke:#f9f9f9;stroke-width:0.1;stroke-miterlimit:4;stroke-dasharray:none" transform="translate(-8192, -21504)"/><path d="m 8843.0466,22053.681 c 28.5721,-0.886 57.1442,-1.205 85.7253,-0.712 24.0112,0.645 48.0232,1.726 71.9221,4.184 17.7198,1.968 37.403,4.598 50.1971,18.803 5.2766,5.859 8.3277,13.391 12.4915,20.086 8.6014,36.263 -12.145,61.76 -32.8547,88.712 -22.961,29.278 -47.1067,57.601 -71.0245,86.095 -28.0596,33.967 -57.1249,67.061 -88.2956,98.205 -21.9565,21.66 -45.4395,41.12 -74.6423,51.564 -18.2956,5.014 -41.9308,-81.232 -23.6352,-86.246 l 0,0 c -1.1612,0.718 -3.5809,0.792 -3.4834,2.153 0.258,3.604 27.6237,-19.1 28.344,-19.721 3.9062,-3.367 7.6608,-6.906 11.4913,-10.359 29.5193,-28.857 56.6293,-59.975 82.7784,-91.903 22.9005,-27.577 46.0591,-54.966 67.9239,-83.38 7.1096,-9.485 7.0869,-9.281 13.3347,-18.194 8.4819,-12.1 0.3122,6.522 6.3753,15.146 3.282,4.394 5.883,9.391 9.8459,13.183 9.9285,9.499 22.5408,6.57 1.3252,4.468 -21.1581,-2.567 -42.4648,-3.625 -63.7592,-4.3 -26.6208,-0.547 -53.2708,-0.451 -79.8439,1.452 -18.9298,0.894 -23.1457,-88.342 -4.2159,-89.236 z" id="path8661" inkscape:connector-curvature="0" style="fill:#550000;fill-opacity:1;fill-rule:nonzero;stroke:#f9f9f9;stroke-width:0.1;stroke-miterlimit:4;stroke-dasharray:none" transform="translate(-8192, -21504)"/><path d="m 8842.0269,22129.137 c 17.6815,26.489 39.184,50.118 60.4593,73.714 26.9305,29.421 55.0028,57.76 83.3122,85.845 20.389,20.054 40.432,40.455 60.8443,60.484 5.6258,5.423 10.8627,11.172 15.9223,17.115 11.9155,14.796 -57.8376,70.966 -69.753,56.169 l 0,0 c -2.2757,-4.03 -6.4027,-6.722 -9.1325,-10.399 -19.9584,-20.379 -39.7848,-40.889 -60.0262,-60.989 -29.2642,-29.274 -58.327,-58.762 -86.3583,-89.225 -24.0145,-26.442 -47.9048,-53.091 -68.8425,-82.089 -10.7391,-15.608 62.8353,-66.232 73.5744,-50.625 z" id="path8663" inkscape:connector-curvature="0" style="fill:#550000;fill-opacity:1;fill-rule:nonzero;stroke:#f9f9f9;stroke-width:0.1;stroke-miterlimit:4;stroke-dasharray:none" transform="translate(-8192, -21504)"/></svg>