<?xml version="1.0" encoding="UTF-8" standalone="no"?>
<svg
   xmlns:dc="http://purl.org/dc/elements/1.1/"
   xmlns:cc="http://creativecommons.org/ns#"
   xmlns:rdf="http://www.w3.org/1999/02/22-rdf-syntax-ns#"
   xmlns:svg="http://www.w3.org/2000/svg"
   xmlns="http://www.w3.org/2000/svg"
   xmlns:sodipodi="http://sodipodi.sourceforge.net/DTD/sodipodi-0.dtd"
   xmlns:inkscape="http://www.inkscape.org/namespaces/inkscape"
   width="1024"
   height="1024"
   id="U501F"
   version="1.1"
   inkscape:version="0.48.0 r9654"
   sodipodi:docname="U+501F.svg">
  <metadata
     id="metadata17">
    <rdf:RDF>
      <cc:Work
         rdf:about="">
        <dc:format>image/svg+xml</dc:format>
        <dc:type
           rdf:resource="http://purl.org/dc/dcmitype/StillImage" />
      </cc:Work>
    </rdf:RDF>
  </metadata>
  <defs
     id="defs15" />
  <sodipodi:namedview
     pagecolor="#ffffff"
     bordercolor="#666666"
     borderopacity="1"
     objecttolerance="10"
     gridtolerance="10"
     guidetolerance="10"
     inkscape:pageopacity="0"
     inkscape:pageshadow="2"
     inkscape:window-width="640"
     inkscape:window-height="480"
     id="namedview13"
     showgrid="false"
     inkscape:zoom="0.27441406"
     inkscape:cx="512"
     inkscape:cy="512"
     inkscape:window-x="0"
     inkscape:window-y="25"
     inkscape:window-maximized="0"
     inkscape:current-layer="U501F" />
  <path
     style="fill:#2b0000;fill-opacity:1;fill-rule:nonzero;stroke:#f9f9f9;stroke-width:0.1;stroke-miterlimit:4;stroke-dasharray:none"
     d="M 662.46875 64.1875 C 656.16023 64.085635 651.61107 65.557313 650.15625 69.125 C 636.56795 108.2 632.42885 149.6515 628.28125 190.5625 C 627.31621 201.86447 626.37639 213.16228 625.46875 224.46875 C 611.03203 226.63637 596.62925 229.05375 582.28125 231.78125 C 586.23324 203.51555 591.47209 175.2612 603.3125 149.25 C 612.8771 132.876 535.6896 87.78225 526.125 104.15625 C 504.4876 148.97625 498.5451 199.02975 492.5625 247.84375 C 492.4034 249.34248 492.27965 250.84454 492.125 252.34375 C 458.27264 261.14542 424.85139 271.62207 393.28125 286.78125 C 376.88265 296.24725 421.50765 373.5285 437.90625 364.0625 C 453.47309 356.36992 469.63564 350.16344 486.125 344.8125 C 485.53661 375.98322 486.62957 407.14202 490.09375 438.21875 C 495.42291 462.11711 493.69116 458.4941 498.75 469.4375 C 495.87362 470.19461 492.99603 470.9377 490.125 471.71875 C 438.4765 486.58975 383.4302 500.79575 342.4375 537.46875 C 329.9405 551.72775 397.15925 610.635 409.65625 596.375 C 441.03385 575.352 478.5737 565.50525 514.375 554.90625 C 579.9719 536.64925 647.26775 525.771 714.84375 518.25 C 755.40365 515.16 796.8415 511.5615 837.1875 518.6875 C 855.7953 521.4005 868.57655 433.68175 849.96875 430.96875 C 801.80705 424.86875 753.1254 427.19025 704.9375 432.15625 C 663.7428 437.02052 622.67634 442.96908 581.9375 450.71875 C 584.05441 447.38612 584.74499 444.32493 583.4375 441.8125 C 577.2679 437.2685 581.0379 440.89625 577.0625 427.40625 C 572.13 392.42188 571.71695 357.17563 573.53125 321.96875 C 588.44753 318.66701 603.4542 315.80429 618.5 313.28125 C 617.49006 325.89166 616.45656 338.52012 615.375 351.125 C 612.3634 383.208 613.94235 367.38675 610.59375 398.59375 C 608.65585 417.06975 695.7497 426.19475 697.6875 407.71875 C 701.0283 375.14975 699.4647 391.5635 702.4375 358.4375 C 703.97289 339.85446 705.40826 321.27866 706.84375 302.6875 C 714.39351 302.12688 721.96731 301.64721 729.53125 301.25 C 741.96035 302.155 755.5612 299.0855 767.8125 302.5625 C 786.6434 304.9105 797.7059 216.12925 778.875 213.78125 C 760.6274 212.21925 742.3387 212.52425 724.0625 213.65625 C 720.68548 213.89702 717.31224 214.17202 713.9375 214.4375 C 714.36801 209.50343 714.80027 204.58873 715.25 199.65625 C 718.7595 167.12725 721.7499 133.854 732.9375 102.875 C 738.64488 88.878688 687.21757 64.587122 662.46875 64.1875 z M 308.65625 137.46875 C 303.79148 137.47608 300.2388 138.72853 298.8125 141.65625 C 281.4827 178.33525 258.63745 211.98325 235.84375 245.40625 C 199.86635 296.72425 161.76795 346.498 123.03125 395.75 C 108.07905 414.967 92.77905 433.924 77.96875 453.25 C 66.83115 468.464 138.5499 520.964 149.6875 505.75 C 163.0665 486.443 177.64215 468.03125 191.78125 449.28125 C 208.25662 427.89073 224.6862 406.44596 240.96875 384.90625 C 241.20341 402.47958 241.43555 420.05266 241.6875 437.625 C 242.2374 519.299 245.21095 600.90725 250.46875 682.40625 C 254.40645 736.42125 259.51705 790.6135 272.96875 843.1875 C 274.92185 848.4485 276.8593 853.70875 278.8125 858.96875 C 285.9295 876.41575 368.1795 842.85325 361.0625 825.40625 C 360.1189 823.56525 359.1935 821.74725 358.25 819.90625 C 344.4058 773.45525 340.9084 724.61675 336.375 676.59375 C 330.7252 596.81975 327.6804 516.9265 328.0625 436.9375 C 327.9639 389.0235 327.90135 341.0965 328.65625 293.1875 C 328.62022 288.64692 323.4427 285.24049 315.625 282.9375 C 338.42496 249.92537 360.63172 216.44765 379.125 180.78125 C 385.9972 166.67497 332.09558 137.43344 308.65625 137.46875 z M 649 602.09375 C 630.007 602.26388 611.0039 603.88625 592.09375 606.90625 C 559.46995 612.02925 526.8986 617.9315 495.1875 627.3125 C 491.89447 628.44252 490.20702 632.22669 489.71875 637.59375 C 462.97841 637.09342 424.72694 646.51063 426.40625 658.9375 C 432.75775 700.0325 438.562 741.21 444.4375 782.375 C 449.0702 814.945 453.23425 847.66125 462.96875 879.15625 C 467.20257 891.57462 509.1962 881.43841 532.3125 868.125 C 534.24337 894.78677 546.58242 931.141 558.6875 928.5 C 583.6118 921.745 608.96535 917.37225 634.65625 915.03125 C 654.97565 913.46525 675.32805 914.34375 695.53125 916.71875 C 714.26235 918.72475 723.69985 830.41225 704.96875 828.40625 C 678.86685 825.81125 652.65955 824.88725 626.46875 827.03125 C 617.27028 827.90535 608.10015 829.02011 598.96875 830.28125 C 619.61549 816.4476 642.89959 807.8354 667.28125 803.25 C 674.59955 802.349 681.5579 801.84625 688.375 804.78125 C 689.33711 804.98187 690.29475 804.92481 691.25 804.65625 C 700.27979 822.38465 767.99703 845.76305 773.90625 829.90625 C 779.06855 815.27925 783.7395 800.57625 786 785.15625 C 791.7736 749.72825 796.29555 713.4555 787.65625 678.0625 C 772.25995 635.1305 750.93495 615.4615 705.90625 605.9375 C 686.9862 603.189 667.993 601.92362 649 602.09375 z M 654.4375 690.15625 C 667.05989 690.22848 679.63863 691.23556 692.15625 693.4375 C 708.71445 698.3465 702.2457 696.0585 703 704.9375 C 703.53332 709.0724 703.83663 713.2318 703.96875 717.375 C 685.67249 714.41963 667.83669 712.74555 649.34375 716.78125 C 611.24125 725.15225 574.85695 738.8455 542.40625 760.9375 C 529.64721 770.12859 563.46656 821.62449 584.09375 832.46875 C 570.46827 834.66433 556.91044 837.27175 543.40625 840.28125 C 536.42352 817.66651 535.87632 793.02593 531.09375 770.03125 C 528.34877 750.74195 525.59373 731.46501 522.96875 712.15625 C 523.3898 712.1083 523.80859 712.047 524.21875 711.90625 C 550.73155 703.17625 578.304 698.25725 605.8125 693.90625 C 621.94224 691.50944 638.20871 690.06338 654.4375 690.15625 z "
     id="path9277" />
</svg>
