<?xml version="1.0" encoding="UTF-8" standalone="no"?>
<svg
   xmlns:dc="http://purl.org/dc/elements/1.1/"
   xmlns:cc="http://creativecommons.org/ns#"
   xmlns:rdf="http://www.w3.org/1999/02/22-rdf-syntax-ns#"
   xmlns:svg="http://www.w3.org/2000/svg"
   xmlns="http://www.w3.org/2000/svg"
   xmlns:sodipodi="http://sodipodi.sourceforge.net/DTD/sodipodi-0.dtd"
   xmlns:inkscape="http://www.inkscape.org/namespaces/inkscape"
   width="1024"
   height="1024"
   id="U5085"
   version="1.1"
   inkscape:version="0.48.0 r9654"
   sodipodi:docname="U+5085.svg">
  <metadata
     id="metadata19">
    <rdf:RDF>
      <cc:Work
         rdf:about="">
        <dc:format>image/svg+xml</dc:format>
        <dc:type
           rdf:resource="http://purl.org/dc/dcmitype/StillImage" />
      </cc:Work>
    </rdf:RDF>
  </metadata>
  <defs
     id="defs17" />
  <sodipodi:namedview
     pagecolor="#ffffff"
     bordercolor="#666666"
     borderopacity="1"
     objecttolerance="10"
     gridtolerance="10"
     guidetolerance="10"
     inkscape:pageopacity="0"
     inkscape:pageshadow="2"
     inkscape:window-width="640"
     inkscape:window-height="480"
     id="namedview15"
     showgrid="false"
     inkscape:zoom="0.27441406"
     inkscape:cx="512"
     inkscape:cy="512"
     inkscape:window-x="0"
     inkscape:window-y="25"
     inkscape:window-maximized="0"
     inkscape:current-layer="U5085" />
  <path
     style="fill:#550000;fill-opacity:1;fill-rule:nonzero;stroke:#f9f9f9;stroke-width:0.1;stroke-miterlimit:4;stroke-dasharray:none"
     d="M 688.875 11.25 C 671.18673 11.096719 637.79553 83.275734 653.78125 90.875 C 663.23055 95.193 671.2918 101.613 679.375 108 C 693.8698 119.31 747.1823 50.9965 732.6875 39.6875 C 719.5185 29.4925 706.3598 19.2905 691.375 11.8125 C 690.58882 11.438766 689.74491 11.257538 688.875 11.25 z M 534.09375 28.4375 C 520.36554 28.401609 509.5074 30.996438 508.5625 37.3125 C 503.40523 80.855735 501.6765 124.69414 500.59375 168.5 C 498.97317 168.93289 497.33782 169.34261 495.71875 169.78125 C 457.98005 180.26925 420.3327 191.38775 384.125 206.46875 C 367.2023 214.13475 403.3273 293.88475 420.25 286.21875 C 445.845 274.47374 472.67975 265.81287 499.6875 257.90625 C 499.66584 275.48314 499.73187 293.04802 499.8125 310.625 C 473.56808 323.82333 449.10957 339.99697 432.5625 364.6875 C 409.20772 359.57632 382.21672 359.56553 380.46875 369.65625 C 374.61355 410.93125 376.6599 452.5715 380.0625 493.9375 C 384.5634 539.9895 392.7766 585.5615 404.9375 630.1875 C 406.5788 635.2255 408.2337 640.2735 409.875 645.3125 C 415.8195 662.7505 498.007 634.71925 492.0625 617.28125 C 490.7778 613.73625 489.50335 610.20025 488.21875 606.65625 C 487.45842 604.08112 486.72279 601.49073 486 598.90625 C 492.87809 599.3655 499.7458 599.40863 506.59375 599.15625 C 507.1343 606.76369 507.7126 614.36612 508.34375 621.96875 C 510.02995 640.08975 595.4362 632.121 593.75 614 C 592.76915 604.55935 591.89587 595.14037 591.09375 585.6875 C 591.42706 585.61626 591.76055 585.53983 592.09375 585.46875 C 595.01379 584.78606 597.949 584.12717 600.875 583.46875 C 597.08483 618.70804 597.4335 654.29368 597.75 689.75 C 536.03167 701.48815 474.49104 714.12182 412.78125 725.90625 C 378.41817 732.09115 343.98854 737.95328 309.46875 743.1875 C 308.49351 728.52928 307.58947 713.88913 306.59375 699.25 C 303.07985 630.821 300.0307 562.3315 299 493.8125 C 298.594 452.7425 298.1267 411.696 298.6875 370.625 C 298.6253 362.47167 281.71948 358.00737 262.78125 357.15625 C 278.99411 325.21233 295.13148 293.24085 310.9375 261.09375 C 328.0454 224.78175 344.61235 188.10375 355.46875 149.34375 C 360.16085 131.35675 275.34845 109.23175 270.65625 127.21875 C 262.44275 161.28875 247.9278 193.30825 233.375 225.03125 C 205.4479 283.32825 175.92765 340.839 146.71875 398.5 C 123.84825 442.892 102.7745 488.20275 78.9375 532.09375 C 70.3952 548.35275 147.05135 588.634 155.59375 572.375 C 175.28965 533.7181 193.61461 494.37385 212.9375 455.53125 C 213.19172 468.73924 213.44065 481.94876 213.71875 495.15625 C 215.55185 564.60225 218.6955 633.983 221.9375 703.375 C 224.6961 750.895 226.72295 798.5475 232.59375 845.8125 C 233.35135 850.0635 234.08615 854.3115 234.84375 858.5625 C 238.45285 876.6995 323.95285 859.6995 320.34375 841.5625 C 319.74925 839.0195 319.1569 836.4795 318.5625 833.9375 C 318.36552 832.66979 318.18911 831.39367 318 830.125 C 354.75874 823.28587 391.5785 816.79828 428.3125 809.8125 C 485.00218 798.44483 541.62034 786.70775 598.40625 775.84375 C 598.85684 814.35723 599.56453 852.8677 600.40625 891.375 C 601.13215 918.639 601.9438 945.88925 601.1875 973.15625 C 600.8824 991.51025 687.41355 992.94675 687.71875 974.59375 C 687.92425 946.11275 686.8728 917.67875 685.8125 889.21875 C 684.5775 846.41367 683.66319 803.6019 683.3125 760.78125 C 716.46792 755.47877 749.7015 750.63225 782.84375 745.25 C 804.39485 741.315 794.0666 743.38825 813.875 739.15625 C 831.8531 735.08625 812.6656 650.33625 794.6875 654.40625 C 778.3363 658.36825 787.1164 656.40375 768.3125 660.21875 C 740.01466 665.30977 711.61575 669.86215 683.25 674.5625 C 683.3842 648.3321 683.97275 622.05429 687.1875 596.0625 C 707.11436 598.2072 726.27132 596.2423 727.4375 587.78125 C 730.3616 565.64125 728.84935 577.085 732.09375 553.5 C 737.68475 511.305 743.40875 469.12 747.53125 426.75 C 751.11805 387.792 757.02285 347.18625 740.15625 310.40625 C 735.89345 304.60525 732.39685 298.127 727.34375 293 C 705.29045 270.621 673.196 268.7665 643.875 271.0625 C 623.58196 273.45937 603.39484 276.78053 583.5 281.34375 C 583.54704 266.55325 583.66808 251.75828 583.84375 236.96875 C 603.11057 233.22305 622.52257 230.39142 642.15625 229.125 C 654.85375 229.567 649.5598 228.576 658.25 230.875 C 676.52 233.59 689.3325 147.465 671.0625 144.75 C 647.604 142.072 659.4769 142.6835 635.375 142.9375 C 618.87162 144.41352 602.48443 146.64254 586.1875 149.40625 C 587.65047 116.22953 589.9561 83.088723 595.1875 50.28125 C 596.9914 38.223313 560.30216 28.506019 534.09375 28.4375 z M 667.09375 356.6875 C 670.36826 356.71323 673.36299 357.22443 675.03125 359.0625 C 676.95854 361.18575 670.71086 358.65363 667.09375 356.6875 z M 664.28125 356.75 C 664.31233 356.74822 664.34393 356.75173 664.375 356.75 C 663.04441 364.97517 664.73912 375.75267 664.34375 383.84375 C 663.80905 394.78575 662.5419 408.343 661.625 419.125 C 659.72335 440.17913 657.31789 461.18764 654.65625 482.15625 C 650.14203 483.46678 645.58639 484.68306 641.03125 485.84375 C 655.15525 471.44032 660.19308 403.34694 643.90625 401.6875 C 627.62585 400.6215 611.59775 400.40625 595.46875 403.65625 C 591.72901 404.30196 587.98698 404.94846 584.25 405.625 C 584.09565 393.80079 583.95775 381.98108 583.84375 370.15625 C 606.51822 363.63086 629.84044 359.44447 653.34375 357.125 C 655.629 357.6925 659.96521 356.9965 664.28125 356.75 z M 464.0625 405.6875 C 478.04393 411.85095 492.49507 415.75518 500.6875 414.21875 C 500.73075 418.05235 500.76789 421.88519 500.8125 425.71875 C 500.09312 425.95325 499.37449 426.16783 498.65625 426.40625 C 490.05436 429.74656 493.53611 451.57587 501.34375 471.875 C 501.53388 485.31349 501.84187 498.75779 502.25 512.1875 C 500.51088 512.20344 498.77295 512.20081 497.03125 512.15625 C 487.45987 510.57571 479.02324 533.3514 475.71875 555.9375 C 471.1411 533.17586 467.81851 510.13771 465.53125 487 C 463.37207 459.97551 461.71241 432.72002 464.0625 405.6875 z M 625.65625 487.46875 C 627.9523 487.42925 630.22898 487.55351 632.5 487.9375 C 617.05698 491.6227 601.48107 494.80495 586 498.3125 C 585.94288 496.64353 585.86539 494.98169 585.8125 493.3125 C 593.81302 491.74847 601.82017 490.31446 609.84375 489 C 615.07362 488.48125 620.38908 487.55937 625.65625 487.46875 z M 451.8125 837.875 C 433.81693 838.7169 396.79828 906.15406 411.9375 914.75 C 447.0878 932.528 485.78965 940.88175 523.96875 949.34375 C 541.81765 953.29175 560.44265 869.16675 542.59375 865.21875 C 512.89625 858.66375 482.39195 852.707 455.15625 838.625 C 454.14696 838.05194 453.0122 837.81887 451.8125 837.875 z "
     id="path23167" />
</svg>
