<?xml version="1.0" encoding="UTF-8" standalone="no"?>
<svg
   xmlns:dc="http://purl.org/dc/elements/1.1/"
   xmlns:cc="http://creativecommons.org/ns#"
   xmlns:rdf="http://www.w3.org/1999/02/22-rdf-syntax-ns#"
   xmlns:svg="http://www.w3.org/2000/svg"
   xmlns="http://www.w3.org/2000/svg"
   xmlns:sodipodi="http://sodipodi.sourceforge.net/DTD/sodipodi-0.dtd"
   xmlns:inkscape="http://www.inkscape.org/namespaces/inkscape"
   width="1024"
   height="1024"
   id="U505A"
   version="1.1"
   inkscape:version="0.48.0 r9654"
   sodipodi:docname="U+505A.svg">
  <metadata
     id="metadata18">
    <rdf:RDF>
      <cc:Work
         rdf:about="">
        <dc:format>image/svg+xml</dc:format>
        <dc:type
           rdf:resource="http://purl.org/dc/dcmitype/StillImage" />
      </cc:Work>
    </rdf:RDF>
  </metadata>
  <defs
     id="defs16" />
  <sodipodi:namedview
     pagecolor="#ffffff"
     bordercolor="#666666"
     borderopacity="1"
     objecttolerance="10"
     gridtolerance="10"
     guidetolerance="10"
     inkscape:pageopacity="0"
     inkscape:pageshadow="2"
     inkscape:window-width="640"
     inkscape:window-height="480"
     id="namedview14"
     showgrid="false"
     inkscape:zoom="0.27441406"
     inkscape:cx="512"
     inkscape:cy="512"
     inkscape:window-x="0"
     inkscape:window-y="25"
     inkscape:window-maximized="0"
     inkscape:current-layer="U505A" />
  <path
     style="fill:#2b1100;fill-opacity:1;fill-rule:nonzero;stroke:none"
     d="M 284.34375 183.90625 C 282.75864 184.00265 281.3969 184.51305 280.3125 185.5 C 252.5643 210.14 229.44015 238.97875 207.46875 268.71875 C 175.08095 314.73775 145.79085 362.8225 116.65625 410.9375 C 101.28375 436.5745 85.38805 461.94475 73.59375 489.46875 C 66.62795 506.81375 148.37805 539.6585 155.34375 522.3125 C 163.66145 498.4305 178.8204 477.5745 190.6875 455.4375 C 192.15801 452.97025 193.62006 450.49712 195.09375 448.03125 C 196.03468 465.2731 196.4768 482.55304 196.9375 499.78125 C 197.3859 562.66825 197.99285 625.516 199.96875 688.375 C 201.34205 730.982 204.56 773.5 209.125 815.875 C 210.9009 830.246 209.96925 823.47825 211.90625 836.28125 C 215.06325 854.74625 302.0945 839.84 298.9375 821.375 C 297.0636 811.998 298.03865 817.292 296.21875 805.5 C 290.96485 765.657 287.5463 725.5975 285.9375 685.4375 C 283.5955 622.9515 282.93925 560.43525 283.03125 497.90625 C 282.31095 455.21325 281.5547 412.36825 275.4375 370.03125 C 274.20291 363.56413 262.6885 361.43822 248.4375 362.15625 C 257.6844 348.07933 267.18087 334.15977 277 320.46875 C 295.8152 295.40675 315.4631 270.8665 339.875 250.9375 C 352.67099 239.29238 303.04805 182.76871 284.34375 183.90625 z M 485.6875 193.5 C 478.68786 193.68327 473.68796 195.436 472.4375 199.34375 C 462.12869 234.51033 453.07914 270.03257 444.25 305.59375 C 441.34924 305.9019 438.46011 306.24165 435.5625 306.59375 C 400.4714 310.89275 365.5071 316.2775 330.875 323.4375 C 312.6026 327.6325 332.38385 413.7585 350.65625 409.5625 C 374.30828 403.69484 398.3183 399.52945 422.4375 396.125 C 416.0303 423.86575 409.84071 451.67412 403.8125 479.5 C 401.35461 490.64538 400.75608 493.40093 400.125 496.21875 C 392.65544 499.68309 385.3244 503.53797 378.21875 507.90625 C 362.51395 518.17525 410.9202 592.2065 426.625 581.9375 C 445.9484 569.3655 468.11065 563.60275 490.46875 559.34375 C 506.67295 556.6931 523.05546 554.85375 539.46875 554.90625 C 537.53003 574.55178 534.25663 594.06935 531.15625 613.5625 C 528.14 631.26385 525.4613 648.99946 523 666.78125 C 506.59286 669.26039 490.25695 672.28349 473.9375 675.28125 C 456.44939 678.69412 439.01071 682.28778 421.59375 686.03125 C 420.74591 680.06608 419.90032 674.0976 418.96875 668.15625 C 415.25775 638.99025 412.25185 609.77725 410.71875 580.40625 C 409.01855 561.70425 320.8623 569.70425 322.5625 588.40625 C 325.5019 618.69525 328.52385 648.96225 332.34375 679.15625 C 336.07985 705.47425 339.2907 731.90175 344.5625 757.96875 C 349.0964 773.27175 345.8872 764.99325 355.25 782.40625 C 360.10807 789.27321 377.26192 782.8087 393.78125 772.21875 C 397.52688 777.88236 401.55968 781.10885 405.46875 780.15625 C 433.54915 772.57825 462.0102 766.5465 490.5625 761.0625 C 505.74789 758.45276 520.92752 755.68053 536.21875 753.71875 C 561.48926 761.54981 599.27314 763.33477 601.21875 751.25 C 602.40485 742.582 603.32365 733.87825 604.03125 725.15625 C 607.31215 692.46525 611.4978 659.89925 617.1875 627.53125 C 622.813 593.54725 630.46925 559.05875 627.03125 524.46875 C 626.24946 521.77698 625.65846 519.01943 625 516.28125 C 636.02111 520.04729 651.14015 522.30627 664.65625 522.5 C 662.52481 527.6214 662.26406 531.86486 664.71875 534.40625 C 685.89325 558.91725 701.0485 588.0365 717.4375 615.8125 C 720.95388 621.99033 724.56102 628.09229 728.25 634.15625 C 725.5722 638.89868 722.8845 643.64391 720.1875 648.375 C 696.7167 689.439 670.18465 728.62125 641.78125 766.40625 C 636.48975 774.03925 627.79625 784.58575 621.78125 789.59375 C 607.26665 801.49275 663.3604 869.899 677.875 858 C 690.9653 846.156 702.09595 832.79125 712.03125 818.15625 C 736.81608 783.91253 760.47003 748.86628 782.125 712.5625 C 789.34541 722.05126 796.70114 731.42976 804.1875 740.71875 C 830.9842 772.99675 858.69625 804.521 887.65625 834.875 C 905.29175 852.724 923.07565 870.544 942.78125 886.125 C 955.39295 894.161 948.59205 890.50925 963.40625 896.90625 C 980.05353 902.73469 1006.8469 829.51424 995.5 815.21875 C 995.78122 815.41846 996.06087 815.61498 996.34375 815.8125 C 996.42075 815.7005 996.51635 815.612 996.59375 815.5 L 994.5625 814.3125 C 994.87441 814.57977 995.19988 814.85286 995.46875 815.1875 C 994.59157 814.56414 993.73686 813.92483 992.875 813.28125 L 992.78125 813.21875 C 977.47262 801.76851 964.48339 787.28588 950.53125 774.34375 C 923.01735 746.05075 896.9096 716.4315 871.5625 686.1875 C 856.64811 667.8507 842.2624 649.08515 828.71875 629.75 C 848.24246 593.92115 867.1574 557.74567 885.15625 521.125 C 901.39215 487.036 917.32245 452.80325 931.46875 417.78125 C 933.83997 411.37274 924.33838 403.23256 911 396.3125 C 918.55061 395.49065 926.10409 394.68353 933.65625 393.875 C 948.20665 392.344 941.2415 393.102 954.5625 391.625 C 973.1223 389.341 962.34095 301.841 943.78125 304.125 C 931.26585 305.83 937.9559 304.96275 923.75 306.71875 C 891.1992 310.63375 858.62425 314.291 826.09375 318.375 C 798.96434 321.70292 771.83842 325.13133 745.0625 330.65625 C 756.29542 300.46072 768.09037 270.428 782.625 241.65625 C 790.9008 224.83325 711.5883 185.83325 703.3125 202.65625 C 685.5579 241.51725 670.81245 281.61225 656.34375 321.78125 C 656.12044 322.40491 655.90989 323.03229 655.6875 323.65625 C 652.39493 305.76796 646.07225 290.74207 638.21875 291.625 C 633.14085 292.46 628.0176 292.8545 622.9375 293.6875 C 599.2765 296.9515 575.5461 299.9185 551.625 300.3125 C 546.01172 300.45102 540.39649 300.58054 534.78125 300.71875 C 541.4015 275.71909 548.42611 250.83005 556.65625 226.3125 C 561.12219 212.35703 510.68622 192.84546 485.6875 193.5 z M 992.875 813.28125 L 994.5625 814.3125 C 994.05512 813.87774 993.50067 813.5252 992.875 813.28125 z M 729.75 373.25 C 734.71576 396.77329 745.7502 421.37974 755.71875 418.84375 C 782.27975 411.67575 809.6482 408.40875 836.875 404.96875 C 838.57488 404.74968 840.26847 404.55933 841.96875 404.34375 C 831.39334 431.48291 819.19563 457.98195 806.96875 484.40625 C 797.23106 504.77101 787.11749 524.9694 776.71875 545 C 762.26165 519.85102 747.2981 494.95011 728.34375 472.9375 C 723.65708 468.08529 712.41282 472.93955 700.5625 481.75 C 707.62278 444.89761 717.71672 408.77521 729.75 373.25 z M 636.8125 380.8125 C 627.87836 410.39558 620.1793 440.33149 614.03125 470.65625 C 611.74545 484.55378 611.41089 486.11844 610.9375 489.875 C 597.61778 475.47339 578.37222 468.70286 558.03125 467.40625 C 536.70838 466.4944 515.41711 467.5434 494.28125 470.28125 C 500.04147 442.95935 506.09532 415.69299 512.5625 388.53125 C 526.21754 388.13128 539.87854 387.91083 553.53125 387.65625 C 580.52195 387.35225 607.32465 384.30325 634.09375 381.15625 C 635.00023 381.02806 635.90355 380.91216 636.8125 380.8125 z "
     id="path16161" />
</svg>
