<?xml version="1.0" encoding="UTF-8" standalone="no"?>
<svg
   xmlns:dc="http://purl.org/dc/elements/1.1/"
   xmlns:cc="http://creativecommons.org/ns#"
   xmlns:rdf="http://www.w3.org/1999/02/22-rdf-syntax-ns#"
   xmlns:svg="http://www.w3.org/2000/svg"
   xmlns="http://www.w3.org/2000/svg"
   xmlns:sodipodi="http://sodipodi.sourceforge.net/DTD/sodipodi-0.dtd"
   xmlns:inkscape="http://www.inkscape.org/namespaces/inkscape"
   width="1024"
   height="1024"
   id="U5012"
   version="1.1"
   inkscape:version="0.48.0 r9654"
   sodipodi:docname="U+5012.svg">
  <metadata
     id="metadata17">
    <rdf:RDF>
      <cc:Work
         rdf:about="">
        <dc:format>image/svg+xml</dc:format>
        <dc:type
           rdf:resource="http://purl.org/dc/dcmitype/StillImage" />
      </cc:Work>
    </rdf:RDF>
  </metadata>
  <defs
     id="defs15" />
  <sodipodi:namedview
     pagecolor="#ffffff"
     bordercolor="#666666"
     borderopacity="1"
     objecttolerance="10"
     gridtolerance="10"
     guidetolerance="10"
     inkscape:pageopacity="0"
     inkscape:pageshadow="2"
     inkscape:window-width="640"
     inkscape:window-height="480"
     id="namedview13"
     showgrid="false"
     inkscape:zoom="0.27441406"
     inkscape:cx="512"
     inkscape:cy="512"
     inkscape:window-x="0"
     inkscape:window-y="25"
     inkscape:window-maximized="0"
     inkscape:current-layer="U5012" />
  <path
     style="fill:#800000;fill-opacity:1;fill-rule:nonzero;stroke:#f9f9f9;stroke-width:0.1;stroke-miterlimit:4;stroke-dasharray:none"
     d="M 868.59375 199.96875 C 856.64147 199.89899 847.49575 202.20725 846.40625 207.90625 C 840.21235 259.27845 841.01225 311.24355 840.15625 362.90625 C 838.56505 449.18235 834.473 535.3742 830.4375 621.5625 C 826.6707 696.4379 824.4569 771.40095 817.8125 846.09375 C 813.9691 885.09715 807.30455 923.87565 795.28125 961.21875 C 789.87915 978.81405 872.81665 1004.2828 878.21875 986.6875 C 891.08185 943.1912 898.7714 898.41895 902.5625 853.21875 C 908.5643 777.40985 910.4142 701.3849 914 625.4375 C 917.9633 538.5668 922.2654 451.71075 924.75 364.78125 C 926.0398 317.98245 925.6866 270.75455 932.375 224.34375 C 934.77197 211.80595 894.88876 200.12223 868.59375 199.96875 z M 283.09375 209.71875 C 280.64733 209.82294 278.71757 210.61731 277.46875 212.21875 C 251.14795 249.16935 229.97575 289.3651 209.03125 329.5 C 179.47065 387.3996 152.5019 446.54465 127.1875 506.40625 C 116.1627 532.83025 105.5972 559.44705 94.8125 585.96875 C 88.1336 603.10305 168.91495 634.5717 175.59375 617.4375 C 182.84538 598.00449 190.16342 578.60434 197.78125 559.3125 C 198.31131 571.42791 198.75655 583.55159 199.21875 595.65625 C 200.28625 652.89365 204.60485 709.8887 213.03125 766.5 C 218.82625 801.3869 225.97955 836.0751 238.53125 869.1875 C 245.45005 886.2833 326.0438 853.6582 319.125 836.5625 C 307.251 810.4626 303.35725 781.4802 297.59375 753.625 C 289.30115 700.301 285.4766 646.5886 284.625 592.625 C 283.131 547.7244 281.7099 502.74455 277.125 458.03125 C 275.9137 450.7635 261.55916 448.66944 244.90625 449.90625 C 257.47397 422.74046 270.60395 395.81582 284.4375 369.25 C 303.311 333.8349 322.12175 298.08265 346.46875 266.03125 C 356.63773 252.99099 303.01457 208.87037 283.09375 209.71875 z M 553.03125 229.625 C 552.46632 229.58891 551.90596 229.64858 551.34375 229.78125 C 528.98235 235.52955 507.24095 243.0959 485.78125 251.625 C 445.10135 268.1962 404.7139 286.29915 368.9375 312.15625 C 361.64699 317.8802 371.4821 337.93734 384.96875 355.125 C 379.273 372.97624 374.08621 390.9953 368.9375 409 C 355.7202 455.6332 344.6432 502.8214 335.3125 550.375 C 332.3587 573.1776 320.0603 616.4265 336.125 636.875 C 343.5696 646.3512 354.6708 652.2963 363.9375 660 C 374.2985 660.2875 384.74445 662.11435 395.03125 660.84375 C 411.08815 658.86045 428.65455 645.6642 442.65625 638.25 C 445.38375 636.80571 447.02507 635.92398 448.96875 634.90625 C 448.19729 650.20203 447.68867 665.53182 447.09375 680.78125 C 446.91597 686.33389 446.71286 691.88518 446.53125 697.4375 C 423.18741 705.77273 400.26695 715.23098 378.28125 726.78125 C 362.44915 736.44965 408.043 811.07465 423.875 801.40625 C 430.10048 797.94669 436.44703 794.73706 442.875 791.71875 C 442.22967 804.84498 441.50567 817.94347 440.6875 831.0625 C 439.6052 849.1191 524.7303 854.2441 525.8125 836.1875 C 527.26366 811.00039 528.41434 785.79817 529.4375 760.59375 C 531.59294 759.94771 533.75242 759.29824 535.90625 758.65625 C 560.93215 751.51145 586.2757 745.59675 611.4375 738.96875 C 629.1659 734.10775 606.25955 650.54515 588.53125 655.40625 C 570.06126 660.69099 551.47031 665.47759 532.9375 670.53125 C 533.99557 646.29756 535.07926 621.9272 538.40625 597.90625 C 544.2226 595.99388 550.08553 594.15012 555.9375 592.34375 C 556.26777 596.00307 556.56845 599.64656 556.84375 603.3125 C 558.28415 621.5811 644.40915 614.79985 642.96875 596.53125 C 642.25673 587.8388 641.42854 579.16115 640.46875 570.5 C 656.78921 565.221 643.62002 488.19104 626.65625 484.9375 C 623.3581 465.09996 620.63741 445.14425 619.875 425.03125 C 619.3523 406.47545 531.88355 408.9442 532.40625 427.5 C 534.21501 454.07115 538.25741 480.37862 542.8125 506.59375 C 508.17799 517.15322 473.83632 528.66895 440.6875 543.3125 C 434.66209 546.08015 428.67688 548.92582 422.71875 551.78125 C 430.55557 511.74227 440.05463 472.04646 451.40625 432.84375 C 459.81094 404.12273 468.1661 375.202 479.8125 347.59375 C 492.36914 341.78678 505.1653 336.491 517.96875 331.375 C 535.49315 324.8987 553.0215 318.27985 571.375 314.59375 C 588.80339 310.48102 570.54422 230.74372 553.03125 229.625 z M 716.6875 300.3125 C 701.17787 300.35915 688.4507 303.31749 687.6875 310.25 C 686.0764 361.6054 687.82525 413.03915 688.46875 464.40625 C 689.51235 538.66985 688.1026 612.925 687.8125 687.1875 C 687.9197 695.2332 688.04905 703.29795 688.15625 711.34375 C 688.28924 716.56472 695.43873 720.09194 705.5625 722.0625 C 704.65839 722.20435 703.83794 722.50589 703.09375 723.03125 C 685.51135 735.73205 667.92905 748.45955 650.34375 761.15625 C 597.51775 799.43905 544.5206 837.45665 491.1875 875.03125 C 453.51 902.25955 415.36905 929.2799 381.21875 960.9375 C 368.46975 974.4639 432.251 1034.5575 445 1021.0312 C 474.5209 992.26825 508.2061 968.1496 541.3125 943.75 C 594.1254 905.8436 647.0602 868.11065 700.0625 830.46875 C 717.5857 818.05875 735.2613 805.84665 752.9375 793.65625 C 765.84975 784.54093 730.56736 730.80715 711 722.9375 C 736.53304 726.26145 774.27674 721.25035 773.96875 709.15625 C 773.68125 701.70315 773.4125 694.23445 773.125 686.78125 C 772.1093 612.46895 773.1618 538.16015 772.875 463.84375 C 772.8335 415.86705 771.78855 367.74265 774.84375 319.84375 C 776.11575 308.28956 742.53688 300.23475 716.6875 300.3125 z "
     id="path21733" />
</svg>
