<?xml version="1.0" encoding="utf-8" ?>

<!DOCTYPE svg PUBLIC "-//W3C//DTD SVG 1.1//EN" 
  "http://www.w3.org/Graphics/SVG/1.1/DTD/svg11.dtd">
<svg 
    xmlns="http://www.w3.org/2000/svg"
    xmlns:xlink="http://www.w3.org/1999/xlink"
    xmlns:sodipodi="http://sodipodi.sourceforge.net/DTD/sodipodi-0.dtd"
    xmlns:inkscape="http://www.inkscape.org/namespaces/inkscape"
    width="1024" height="1024" id="U51B5">
<path d="m 9459.0785,27966.174 c 10.6375,22.167 22.6679,43.619 34.7205,65.037 10.4424,18.244 20.8008,36.556 32.3784,54.113 6.0895,8.235 11.5868,16.581 16.3577,25.636 7.4636,17.316 -74.1631,52.499 -81.6266,35.184 l 0,0 c 9.5094,15.786 -8.0031,-12.281 -8.8872,-12.974 -12.2239,-19.273 -23.5012,-39.116 -34.6996,-58.998 -12.7142,-22.672 -25.2416,-45.444 -37.4067,-68.417 -8.3966,-16.793 70.7669,-56.375 79.1635,-39.581 z" id="path9142" inkscape:connector-curvature="0" style="fill:#2b0000;fill-opacity:1;fill-rule:nonzero;stroke:#f9f9f9;stroke-width:0.1;stroke-miterlimit:4;stroke-dasharray:none" transform="translate(-9216, -27648)"/><path d="m 9312.975,28451.324 c 16.9129,-28.897 37.2997,-55.462 58.4487,-81.336 25.9866,-31.108 55.1284,-59.326 84.9822,-86.664 19.8719,-17.992 41.2154,-34.231 61.7579,-51.427 6.8756,-5.955 14.0311,-11.523 21.5081,-16.695 15.6365,-10.47 64.9896,63.242 49.353,73.711 l 0,0 c -5.2755,3.253 -10.0254,7.196 -14.8607,11.065 -19.6869,15.938 -40.009,31.105 -58.9933,47.896 -26.8291,24.268 -52.9819,49.383 -76.2119,77.183 -17.8353,21.933 -35.2854,44.393 -48.6576,69.407 -9.1514,16.404 -86.4777,-26.736 -77.3264,-43.14 z" id="path9144" inkscape:connector-curvature="0" style="fill:#2b0000;fill-opacity:1;fill-rule:nonzero;stroke:#f9f9f9;stroke-width:0.1;stroke-miterlimit:4;stroke-dasharray:none" transform="translate(-9216, -27648)"/><path d="m 9662.997,27913.047 c -2.3517,25.601 0.4488,51.235 3.796,76.604 3.8441,28.443 10.4253,56.363 18.5005,83.871 4.3106,14.126 9.4558,28.031 16.0977,41.236 0.2593,0.378 0.5186,0.756 0.7779,1.134 8.9823,16.54 -68.9843,58.883 -77.9666,42.344 l 0,0 c -0.9456,-1.841 -1.8912,-3.681 -2.8368,-5.522 -8.1462,-17.808 -15.0888,-36.143 -20.4327,-54.996 -8.9324,-31.781 -16.3924,-63.965 -20.8034,-96.718 -4.1304,-31.742 -7.1979,-63.709 -5.31,-95.757 1.6553,-18.705 89.8328,-10.902 88.1774,7.804 z" id="path9146" inkscape:connector-curvature="0" style="fill:#2b0000;fill-opacity:1;fill-rule:nonzero;stroke:#f9f9f9;stroke-width:0.1;stroke-miterlimit:4;stroke-dasharray:none" transform="translate(-9216, -27648)"/><path d="m 9642.6017,27876.53 c 26.9161,-12.373 55.6636,-18.585 84.961,-21.628 28.1078,-2.22 56.1599,1.075 83.9303,5.146 20.0918,2.618 39.9052,6.911 59.691,11.198 12.5757,2.743 25.366,4.004 37.9026,6.886 33.5605,11.294 42.7602,36.538 42.4972,69.194 -1.7228,26.893 -6.6058,53.445 -11.3768,79.926 -4.5856,26.349 -9.9335,52.555 -14.8197,78.847 -2.9065,14.484 -4.0682,29.234 -6.9759,43.71 -4.6188,14.205 -1.3753,6.566 -10.7903,22.436 -11.5474,14.9 -81.786,-39.535 -70.2386,-54.435 l 0,0 c -5.328,10.283 -4.0405,5.839 -5.5419,12.726 4.2675,-13.063 3.0233,-27.757 7.1696,-40.904 5.0609,-25.928 10.4263,-51.799 14.9072,-77.837 3.899,-21.899 7.9044,-43.853 9.338,-66.083 0.06,-1.111 -0.3741,-2.369 0.1803,-3.334 0.3112,-0.542 0.473,1.158 0.7478,1.719 1.08,2.205 1.903,4.57 3.3155,6.578 4.6288,6.583 11.2229,11.656 19.2003,13.256 -10.4963,-2.362 -23.2721,-3.691 -34.4069,-6.494 -17.8196,-3.952 -35.6558,-7.969 -53.7619,-10.401 -20.6815,-3.141 -41.5702,-6.02 -62.5407,-4.786 -19.4622,1.64 -38.6335,5.75 -56.21,14.585 -17.0352,7.886 -54.2133,-72.418 -37.1781,-80.305 z" id="path9148" inkscape:connector-curvature="0" style="fill:#2b0000;fill-opacity:1;fill-rule:nonzero;stroke:#f9f9f9;stroke-width:0.1;stroke-miterlimit:4;stroke-dasharray:none" transform="translate(-9216, -27648)"/><path d="m 9640.0728,28145.383 c 27.1338,-10.637 55.6836,-16.688 84.3413,-21.448 27.7941,-4.31 55.9229,-5.249 83.9993,-5.169 17.8417,0.359 35.6711,1.138 53.5055,1.742 1.6034,0.05 3.2068,0.106 4.8102,0.159 0.1199,-0.06 0.2399,-0.123 0.3598,-0.184 -0.8494,0 -1.6989,0.01 -2.5483,0.02 18.7228,-2.299 29.5576,85.962 10.8348,88.26 l 0,0 c -5.7908,0.432 -11.5818,0.782 -17.3809,0.168 -16.6926,-0.918 -33.3917,-1.779 -50.1048,-2.218 -23.1408,-0.222 -46.3463,0.296 -69.2777,3.721 -21.9303,3.546 -43.9763,7.867 -64.4993,16.649 -17.3303,7.221 -51.3701,-74.475 -34.0399,-81.696 z" id="path9150" inkscape:connector-curvature="0" style="fill:#2b0000;fill-opacity:1;fill-rule:nonzero;stroke:#f9f9f9;stroke-width:0.1;stroke-miterlimit:4;stroke-dasharray:none" transform="translate(-9216, -27648)"/><path d="m 9748.4576,28244.361 c -16.6367,24.75 -29.7933,51.613 -42.5739,78.49 -15.3375,33.214 -28.8955,67.263 -38.5885,102.558 -2.6714,13.392 -1.9452,7.317 -2.7051,18.153 -2.2008,18.528 -89.542,8.153 -87.3412,-10.374 l 0,0 c 2.9541,-20.925 1.0082,-10.341 5.9421,-31.731 11.6283,-39.697 26.7046,-78.237 43.9853,-115.818 14.6091,-31.06 29.821,-61.909 48.1143,-91.004 10.5483,-15.521 83.7153,34.205 73.167,49.726 z" id="path9156" inkscape:connector-curvature="0" style="fill:#2b0000;fill-opacity:1;fill-rule:nonzero;stroke:#f9f9f9;stroke-width:0.1;stroke-miterlimit:4;stroke-dasharray:none" transform="translate(-9216, -27648)"/><path d="m 9878.1167,28235.467 c -7.2194,27.851 -10.0222,56.586 -12.6656,85.157 -2.9419,31.793 -3.2214,63.722 2.0559,95.247 3.0614,17.061 10.1586,31.639 23.4581,42.726 14.7968,10.156 32.8508,11.763 50.2078,13.555 26.7012,2.524 53.2248,-1.786 79.5351,-5.8 21.393,-3.14 42.535,-7.651 63.36,-13.435 8.512,-2.452 16.831,-5.704 24.321,-10.474 16.201,-9.533 61.137,66.839 44.936,76.372 l 0,0 c -14.581,8.338 -29.993,15.039 -46.308,19.231 -24.132,6.349 -48.563,11.443 -73.28,14.949 -33.7407,5.004 -67.7626,9.749 -101.9406,6.272 -36.6331,-4.054 -72.2899,-11.847 -101.0038,-36.674 -26.3749,-25.889 -44.0681,-56.251 -49.7873,-93.283 -5.6875,-38.667 -6.1391,-77.641 -2.3697,-116.568 2.9385,-32.93 6.3315,-65.898 13.5215,-98.223 4.4437,-18.235 90.4034,2.713 85.9596,20.948 z" id="path9158" inkscape:connector-curvature="0" style="fill:#2b0000;fill-opacity:1;fill-rule:nonzero;stroke:#f9f9f9;stroke-width:0.1;stroke-miterlimit:4;stroke-dasharray:none" transform="translate(-9216, -27648)"/></svg>