<?xml version="1.0" encoding="utf-8" ?>

<!DOCTYPE svg PUBLIC "-//W3C//DTD SVG 1.1//EN" 
  "http://www.w3.org/Graphics/SVG/1.1/DTD/svg11.dtd">
<svg 
    xmlns="http://www.w3.org/2000/svg"
    xmlns:xlink="http://www.w3.org/1999/xlink"
    xmlns:sodipodi="http://sodipodi.sourceforge.net/DTD/sodipodi-0.dtd"
    xmlns:inkscape="http://www.inkscape.org/namespaces/inkscape"
    width="1024" height="1024" id="U51E0">
<path d="m 8523.9315,20825.563 c -6.4995,44.786 -10.5519,89.879 -14.5343,134.943 -5.1869,59.82 -8.3154,119.787 -10.7686,179.773 -1.5106,37.651 -1.9453,75.393 1.5622,112.941 1.8508,12.382 0.7399,6.739 3.1004,16.975 3.6916,18.512 -83.5717,35.914 -87.2633,17.403 l 0,0 c -3.1739,-17.408 -1.7894,-8.394 -4.0559,-27.058 -3.0857,-41.317 -2.5937,-82.756 -0.4962,-124.123 2.9137,-61.138 6.4082,-122.252 11.3773,-183.262 3.7464,-45.925 7.7123,-91.83 12.3435,-137.676 2.1391,-18.823 90.8739,-8.74 88.7349,10.084 z" id="path8447" inkscape:connector-curvature="0" style="fill:#550000;fill-opacity:1;fill-rule:nonzero;stroke:#f9f9f9;stroke-width:0.1;stroke-miterlimit:4;stroke-dasharray:none" transform="translate(-8192, -20480)"/><path d="m 8494.5363,20800.686 c 33.9821,-10.455 69.4375,-14.08 104.7073,-17.027 36.2083,-2.678 72.5143,-3.69 108.8138,-3.505 32.3109,-0.152 57.5073,3.056 86.026,18.883 34.981,27.044 37.7418,68.231 38.2596,109.136 -1.5593,48.958 -4.9455,97.805 -5.4883,146.796 -0.3507,37.903 3.4091,75.504 19.1476,110.235 9.5457,19.042 25.1164,27.545 44.5265,33.598 24.4159,6.27 49.6813,7.798 74.7513,9.156 18.2292,-0.143 36.8728,3.358 55.0155,0.449 18.8229,-2.041 28.4442,86.691 9.6213,88.732 l 0,0 c -23.2134,2.084 -46.4224,0.519 -69.6558,-0.727 -33.1106,-1.954 -66.457,-4.443 -98.4274,-13.916 -44.5476,-15.974 -75.8474,-39.107 -96.8708,-82.766 -19.0987,-46.574 -26.8543,-95.421 -25.5205,-145.828 0.6386,-48.191 3.6489,-96.273 4.815,-144.446 -0.1035,-6.024 -2.2562,-35.966 -2.0026,-36.255 0.9783,-1.117 3.6319,3.104 4.2756,1.246 4.931,-1.528 -12.1258,-4.408 -26.5447,-5.292 -4.2481,-0.26 -8.5035,-0.383 -12.7552,-0.575 -33.5637,-0.472 -67.1393,0.398 -100.6204,2.89 -27.8029,2.343 -55.9804,4.721 -82.6322,13.526 -17.8849,6.245 -47.3264,-78.065 -29.4416,-84.31 z" id="path8449" inkscape:connector-curvature="0" style="fill:#550000;fill-opacity:1;fill-rule:nonzero;stroke:#f9f9f9;stroke-width:0.1;stroke-miterlimit:4;stroke-dasharray:none" transform="translate(-8192, -20480)"/></svg>