<?xml version="1.0" encoding="UTF-8" standalone="no"?>
<svg
   xmlns:dc="http://purl.org/dc/elements/1.1/"
   xmlns:cc="http://creativecommons.org/ns#"
   xmlns:rdf="http://www.w3.org/1999/02/22-rdf-syntax-ns#"
   xmlns:svg="http://www.w3.org/2000/svg"
   xmlns="http://www.w3.org/2000/svg"
   xmlns:sodipodi="http://sodipodi.sourceforge.net/DTD/sodipodi-0.dtd"
   xmlns:inkscape="http://www.inkscape.org/namespaces/inkscape"
   width="1024"
   height="1024"
   id="U518D"
   version="1.1"
   inkscape:version="0.48.0 r9654"
   sodipodi:docname="U+518D.svg">
  <metadata
     id="metadata13">
    <rdf:RDF>
      <cc:Work
         rdf:about="">
        <dc:format>image/svg+xml</dc:format>
        <dc:type
           rdf:resource="http://purl.org/dc/dcmitype/StillImage" />
      </cc:Work>
    </rdf:RDF>
  </metadata>
  <defs
     id="defs11" />
  <sodipodi:namedview
     pagecolor="#ffffff"
     bordercolor="#666666"
     borderopacity="1"
     objecttolerance="10"
     gridtolerance="10"
     guidetolerance="10"
     inkscape:pageopacity="0"
     inkscape:pageshadow="2"
     inkscape:window-width="640"
     inkscape:window-height="480"
     id="namedview9"
     showgrid="false"
     inkscape:zoom="0.27441406"
     inkscape:cx="512"
     inkscape:cy="512"
     inkscape:window-x="0"
     inkscape:window-y="25"
     inkscape:window-maximized="0"
     inkscape:current-layer="U518D" />
  <path
     style="fill:#2b1100;fill-opacity:1;fill-rule:nonzero;stroke:none"
     d="M 652.625 191.34375 C 633.38622 191.39662 614.78981 194.68687 593.75 199.125 C 551.91297 207.35453 510.14989 215.96387 468.59375 225.53125 C 449.31011 221.59816 430.88827 221.75925 428.84375 229.9375 C 428.52633 231.69958 428.22272 233.45347 427.9375 235.21875 C 425.58953 235.80206 423.25232 236.37761 420.90625 236.96875 C 376.29275 248.64175 331.56565 260.59925 288.78125 278.03125 C 271.67775 285.70825 307.86525 366.33225 324.96875 358.65625 C 356.61919 344.35772 390.02633 334.57223 423.5 325.46875 C 423.83891 340.22122 424.38901 354.94965 424.8125 369.625 C 425.2157 383.08486 425.69561 396.54389 426.1875 410 C 416.30044 411.18241 406.4359 412.39762 396.5625 413.71875 C 351.8282 419.88775 307.2065 426.891 263.0625 436.5 C 244.8717 441.048 266.3092 526.798 284.5 522.25 C 325.2845 511.586 366.9583 505.0125 408.625 498.9375 C 415.67889 497.94562 422.75007 497.00447 429.8125 496.09375 C 431.28001 527.27804 432.88058 558.44919 434.53125 589.625 C 421.14207 592.79039 407.74645 595.97799 394.375 599.21875 C 360.86022 607.04822 327.24964 614.40067 293.40625 620.625 C 286.71398 585.7605 279.6123 550.99553 271.71875 516.375 C 267.20335 498.163 181.3596 519.44425 185.875 537.65625 C 198.0366 581.60225 206.9861 626.3195 215.625 671.0625 C 219.46736 693.92728 223.26914 716.80008 227.40625 739.59375 C 188.36402 741.51764 149.30228 743.18129 110.25 745 C 91.5532 746.307 97.70945 834.433 116.40625 833.125 C 159.26497 829.14957 202.23201 826.58457 245.1875 823.84375 C 247.30025 832.26261 249.53056 840.66747 251.90625 849.03125 C 258.49475 873.75225 269.8031 895.18925 286.0625 914.65625 C 298.9246 928.26025 363.0496 867.63525 350.1875 854.03125 C 346.6654 861.92225 336.09135 820.29 335.09375 824.5 C 334.35529 822.09655 333.67661 819.6916 332.96875 817.28125 C 428.02061 808.83146 522.83291 797.74346 617.78125 788.21875 C 637.71716 786.22955 657.6573 784.46682 677.625 782.90625 C 672.35186 810.12141 667.10421 837.333 662.0625 864.59375 C 659.8408 877.03475 657.9315 889.499 655.375 901.875 C 651.9047 920.226 738.4047 936.602 741.875 918.25 C 744.1262 905.459 745.9762 892.62125 747.9375 879.78125 C 753.71315 845.53345 759.99645 811.36081 766.34375 777.21875 C 797.04983 775.63664 827.76522 774.40829 858.5 773.46875 C 890.4572 773.17775 922.60405 771.08075 954.46875 774.34375 C 973.01895 775.82975 980.01895 688.39225 961.46875 686.90625 C 926.11725 684.60725 890.71285 686.42975 855.34375 687.71875 C 830.79294 688.77583 806.25168 689.95304 781.71875 691.34375 C 789.39467 645.08828 795.82474 598.60971 797.5 551.71875 C 797.386 499.56275 793.14155 456.14 745.09375 425.75 C 697.67305 402.713 646.268 396.042 593.75 397.375 C 566.19881 398.12842 538.71058 399.58899 511.25 401.65625 C 510.9549 390.36175 510.71568 379.04842 510.53125 367.75 C 510.22211 346.6942 509.41512 325.4352 509.875 304.25 C 543.11499 296.89586 576.4973 290.27964 609.96875 284.09375 C 626.26325 281.69775 642.6582 277.8365 659.25 278.1875 C 667.3465 278.3585 667.03655 278.1395 664.09375 279.9375 C 682.06795 285.1395 706.5992 200.3895 688.625 195.1875 C 675.9518 192.43988 664.16827 191.31203 652.625 191.34375 z M 595.84375 483.25 C 632.59405 484.261 672.29795 484.1905 704.90625 503.4375 C 706.18205 504.8345 707.75795 505.994 708.71875 507.625 C 710.28435 510.281 710.615 550.27475 710.625 551.96875 C 710.32933 562.10349 709.75427 572.21533 709 582.3125 C 705.39841 557.24984 693.79685 527.49292 682.9375 530.0625 C 647.0423 538.9685 611.03145 547.4485 575.15625 556.4375 C 556.34535 560.99528 537.52928 565.44831 518.6875 569.875 C 517.09087 542.35348 515.63791 514.81884 514.375 487.28125 C 541.47648 485.18188 568.63843 483.80768 595.84375 483.25 z M 706.09375 613.375 C 702.92249 641.45951 698.47825 669.42129 693.6875 697.28125 C 665.51518 699.49089 637.36344 702.01775 609.25 704.96875 C 580.21912 707.99745 551.21122 711.14876 522.1875 714.28125 C 524.30391 712.61052 525.51082 710.6709 525.5 708.5 C 525.22378 691.26394 524.61818 674.05679 523.8125 656.84375 C 547.63327 651.29802 571.4556 645.74976 595.25 640.09375 C 631.0735 631.26475 667.0735 623.26925 703.0625 615.15625 C 704.22559 614.8811 705.23688 614.27564 706.09375 613.375 z M 438.3125 677.09375 C 438.51281 687.70451 438.57876 698.32027 438.5 708.9375 C 438.52969 714.88006 447.60141 718.85207 459.84375 720.90625 C 411.14277 725.99644 362.41562 730.7702 313.59375 734.53125 C 311.86703 725.40529 310.21297 716.28142 308.625 707.125 C 343.96678 699.50276 379.23745 691.58308 414.375 683.03125 C 422.34573 681.0264 430.32945 679.04712 438.3125 677.09375 z "
     id="path13783" />
</svg>
