<?xml version="1.0" encoding="UTF-8" standalone="no"?>
<svg
   xmlns:dc="http://purl.org/dc/elements/1.1/"
   xmlns:cc="http://creativecommons.org/ns#"
   xmlns:rdf="http://www.w3.org/1999/02/22-rdf-syntax-ns#"
   xmlns:svg="http://www.w3.org/2000/svg"
   xmlns="http://www.w3.org/2000/svg"
   xmlns:sodipodi="http://sodipodi.sourceforge.net/DTD/sodipodi-0.dtd"
   xmlns:inkscape="http://www.inkscape.org/namespaces/inkscape"
   width="1024"
   height="1024"
   id="U519C"
   version="1.1"
   inkscape:version="0.48.0 r9654"
   sodipodi:docname="U+519C.svg">
  <metadata
     id="metadata13">
    <rdf:RDF>
      <cc:Work
         rdf:about="">
        <dc:format>image/svg+xml</dc:format>
        <dc:type
           rdf:resource="http://purl.org/dc/dcmitype/StillImage" />
      </cc:Work>
    </rdf:RDF>
  </metadata>
  <defs
     id="defs11" />
  <sodipodi:namedview
     pagecolor="#ffffff"
     bordercolor="#666666"
     borderopacity="1"
     objecttolerance="10"
     gridtolerance="10"
     guidetolerance="10"
     inkscape:pageopacity="0"
     inkscape:pageshadow="2"
     inkscape:window-width="640"
     inkscape:window-height="480"
     id="namedview9"
     showgrid="false"
     inkscape:zoom="0.27441406"
     inkscape:cx="512"
     inkscape:cy="512"
     inkscape:window-x="0"
     inkscape:window-y="25"
     inkscape:window-maximized="0"
     inkscape:current-layer="U519C" />
  <path
     style="fill:#c83737;fill-opacity:1;fill-rule:nonzero;stroke:#f9f9f9;stroke-width:0.1;stroke-miterlimit:4;stroke-dasharray:none"
     d="M 491.1875 92.6875 C 487.63092 92.649595 484.93241 93.594563 483.5 95.8125 C 458.7659 137.4365 437.3989 180.947 415.8125 224.25 C 415.14114 225.6047 414.48241 226.95711 413.8125 228.3125 C 409.61513 228.99138 405.41021 229.65351 401.21875 230.375 C 365.21635 236.445 329.2748 242.8945 293.625 250.8125 C 287.3435 252.30306 285.63233 263.45177 286.84375 277.28125 C 265.04454 263.04423 232.32701 251.49112 227.0625 261.9375 C 210.2009 299.7905 197.66975 339.38675 185.59375 378.96875 C 176.25505 409.92675 167.54975 441.30375 168.78125 473.84375 C 170.05805 478.98875 171.31685 484.13625 172.59375 489.28125 C 178.76623 506.1061 254.64385 479.16999 256.21875 461.3125 C 256.44729 463.04731 256.67774 464.79585 256.90625 466.53125 C 254.89495 446.09325 264.1832 424.212 268.6875 404.125 C 277.21911 375.72277 286.01279 347.21851 297.65625 319.90625 C 302.52189 330.84834 308.39029 338.22098 314.0625 336.875 C 331.75722 332.2005 349.61771 328.28496 367.5625 324.71875 C 348.47664 365.59642 329.86396 406.70404 311.625 447.96875 C 287.4729 503.17275 264.369 558.83725 243.9375 615.53125 C 236.5003 638.47525 227.88655 661.1915 222.78125 684.8125 C 219.34475 703.2955 306.46985 719.51325 309.90625 701.03125 C 310.96275 681.64025 322.4354 663.1695 325.9375 644.3125 C 326.07271 643.91623 326.20823 643.52116 326.34375 643.125 C 323.6099 693.89585 320.60694 744.63832 321.15625 795.5 C 321.86795 822.606 324.93345 849.6045 329.53125 876.3125 C 333.37635 895.2195 342.73345 916.36225 362.34375 923.78125 C 369.34415 926.43025 377.01085 926.78125 384.34375 928.28125 C 409.86765 926.42925 425.3398 909.92925 441 891.90625 C 455.5656 874.53525 470.9162 857.872 486.1875 841.125 C 494.5713 832.3 503.67655 820.30225 510.40625 811.90625 C 508.89927 813.47768 507.38195 815.02205 505.875 816.59375 C 515.90364 801.73821 462.82978 737.22963 448.625 748.75 C 446.1722 751.182 443.73405 753.60025 441.28125 756.03125 C 434.61705 764.81925 428.6188 774.126 420.9375 782.125 C 416.6862 786.86733 412.43064 791.59108 408.15625 796.3125 C 408.11576 795.54238 408.06725 794.77036 408.03125 794 C 406.79735 743.611 409.96915 693.32725 412.78125 643.03125 C 413.812 620.96758 414.90587 598.83534 415.1875 576.71875 C 431.33371 595.34957 447.84783 613.67126 464.78125 631.625 C 514.32755 683.691 571.79475 726.83475 630.78125 767.46875 C 680.38885 800.67375 731.65175 831.30625 782.28125 862.90625 C 813.39415 882.75525 844.6671 902.316 877 920.125 C 888.7976 926.845 901.02165 932.68625 913.59375 937.78125 C 931.08905 944.55525 963.02645 862.0865 945.53125 855.3125 C 936.24245 852.0645 927.48005 847.572 918.78125 843 C 887.65825 826.465 857.6394 808.028 827.75 789.375 C 778.0302 758.909 727.80525 729.2055 679.21875 696.9375 C 659.96834 683.75918 640.88695 670.2874 622.25 656.25 C 622.572 656.08109 622.89675 655.91891 623.21875 655.75 C 643.40705 636.029 655.48685 611.15975 667.53125 585.84375 C 683.99515 552.72675 700.60845 519.57075 713.78125 484.96875 C 719.82655 467.22675 636.1703 438.72675 630.125 456.46875 C 619.5556 487.79275 604.4305 517.33425 589.5625 546.78125 C 583.241 558.98625 577.1711 571.382 570 583.125 C 568.94045 584.8601 568.06497 586.20118 567.3125 587.3125 C 569.22391 586.01262 571.1511 584.70653 573.0625 583.40625 C 568.51389 588.44536 569.52609 602.1416 573.46875 616.9375 C 557.47379 603.02462 542.05986 588.41788 527.46875 572.90625 C 497.62205 540.76725 469.12805 507.45775 442.96875 472.21875 C 435.7574 463.41441 407.72945 480.58448 389.46875 498.6875 C 387.15625 498.64147 384.76037 498.66727 382.28125 498.78125 C 384.64198 493.22517 387.0158 487.66818 389.40625 482.125 C 415.09528 423.31949 441.65889 364.89971 469.90625 307.28125 C 506.03709 302.44934 542.36371 299.09093 578.71875 296.375 C 622.35355 293.285 666.1008 292.32825 709.8125 293.90625 C 731.9258 295.10125 753.9199 297.8745 775.875 300.6875 C 783.24807 301.93248 790.6933 302.74501 798.09375 303.8125 C 792.32704 333.39533 784.66227 362.58059 776.65625 391.625 C 771.02195 411.55 764.79145 431.3175 759.40625 451.3125 C 757.54395 458.4275 758.4423 454.79025 756.8125 462.15625 C 753.1709 480.62525 840.2335 497.81275 843.875 479.34375 C 844.1716 476.38675 843.8827 478.39675 845.0625 473.34375 C 849.8641 453.61375 855.7523 434.1585 861.0625 414.5625 C 869.7806 382.0605 878.27305 349.49225 885.09375 316.53125 C 889.19715 294.55425 894.70495 272.24125 886.53125 250.53125 C 871.93025 229.62125 863.9225 222.85525 839.0625 220.90625 C 833.4407 220.68425 828.09325 219.376 822.59375 218 C 810.59215 215.925 798.5028 214.73775 786.4375 213.09375 C 761.8103 210.29775 737.12715 207.55225 712.34375 206.65625 C 665.58155 205.59125 618.80545 206.9455 572.15625 210.4375 C 553.6426 211.87532 535.13888 213.47761 516.65625 215.28125 C 529.46297 190.93184 542.83549 166.87779 557.875 143.84375 C 566.62851 130.28969 512.92216 92.919141 491.1875 92.6875 z M 567.3125 587.3125 C 566.8549 587.6237 566.39511 587.93884 565.9375 588.25 C 565.2671 589.266 563.973 590.06525 563.9375 591.28125 C 563.92831 591.60207 564.8536 590.94403 567.3125 587.3125 z M 831.34375 309.34375 C 832.17638 309.40794 833.01054 309.47546 833.84375 309.53125 C 833.0065 309.54367 832.18267 309.4864 831.34375 309.34375 z M 416.21875 859.0625 C 417.75136 862.3791 417.93491 864.51792 417.3125 863.03125 C 416.9366 862.13325 416.7203 861.14975 416.4375 860.21875 C 416.35904 859.83405 416.29626 859.44741 416.21875 859.0625 z "
     id="path9636" />
</svg>
