<?xml version="1.0" encoding="UTF-8" standalone="no"?>
<svg
   xmlns:dc="http://purl.org/dc/elements/1.1/"
   xmlns:cc="http://creativecommons.org/ns#"
   xmlns:rdf="http://www.w3.org/1999/02/22-rdf-syntax-ns#"
   xmlns:svg="http://www.w3.org/2000/svg"
   xmlns="http://www.w3.org/2000/svg"
   xmlns:sodipodi="http://sodipodi.sourceforge.net/DTD/sodipodi-0.dtd"
   xmlns:inkscape="http://www.inkscape.org/namespaces/inkscape"
   width="1024"
   height="1024"
   id="U5173"
   version="1.1"
   inkscape:version="0.48.0 r9654"
   sodipodi:docname="U+5173.svg">
  <metadata
     id="metadata13">
    <rdf:RDF>
      <cc:Work
         rdf:about="">
        <dc:format>image/svg+xml</dc:format>
        <dc:type
           rdf:resource="http://purl.org/dc/dcmitype/StillImage" />
      </cc:Work>
    </rdf:RDF>
  </metadata>
  <defs
     id="defs11" />
  <sodipodi:namedview
     pagecolor="#ffffff"
     bordercolor="#666666"
     borderopacity="1"
     objecttolerance="10"
     gridtolerance="10"
     guidetolerance="10"
     inkscape:pageopacity="0"
     inkscape:pageshadow="2"
     inkscape:window-width="640"
     inkscape:window-height="480"
     id="namedview9"
     showgrid="false"
     inkscape:zoom="0.27441406"
     inkscape:cx="512"
     inkscape:cy="366.23488"
     inkscape:window-x="0"
     inkscape:window-y="25"
     inkscape:window-maximized="0"
     inkscape:current-layer="U5173" />
  <path
     style="fill:#550000;fill-opacity:1;fill-rule:nonzero;stroke:#f9f9f9;stroke-width:0.1;stroke-miterlimit:4;stroke-dasharray:none"
     d="M 602.09375 207.28125 C 600.89183 207.27575 599.79746 207.57194 598.8125 208.1875 C 567.30435 229.8705 539.08037 255.724 511.53125 282.125 C 479.25658 314.125 447.98619 347.09325 416.15625 379.53125 C 412.89073 382.86993 414.53464 389.30709 418.96875 396.8125 C 402.87711 401.05915 386.86468 405.56579 370.90625 410.375 C 324.30842 423.772 277.75115 437.36125 230.8125 449.53125 C 213.07143 454.93525 238.54018 538.56125 256.28125 533.15625 C 302.30103 519.13925 348.47052 505.60725 394.625 492.03125 C 406.75287 488.31565 418.93896 484.78831 431.15625 481.4375 C 426.57929 500.46141 421.78319 519.41907 416.8125 538.34375 C 412.59179 555.07539 407.68818 571.55551 402.1875 587.8125 C 373.24804 597.67978 344.39202 607.75891 315.53125 617.875 C 273.27278 632.518 230.68791 646.659 190.0625 665.5 C 173.59185 674.07 213.9981 751.72625 230.46875 743.15625 C 266.868 724.94525 305.63622 711.94975 343.875 698.21875 C 348.40512 696.57555 352.93631 694.94858 357.46875 693.3125 C 354.96324 698.28132 352.43188 703.22446 349.84375 708.15625 C 331.4444 741.12025 311.14859 773.038 288.34375 803.125 C 282.14768 810.143 285.11508 807.22125 279.75 812.15625 C 266.79324 825.42225 329.32449 886.48475 342.28125 873.21875 C 353.02986 861.71675 347.6707 867.852 358.28125 854.75 C 383.00539 820.492 405.31389 784.5565 425.5 747.4375 C 441.05275 717.18002 455.33143 686.34302 467.84375 654.8125 C 493.45767 646.30391 519.17957 638.13967 545.0625 630.4375 C 588.83842 618.7415 633.42857 606.30925 679.09375 606.78125 C 679.14689 609.77025 688.23301 605.99225 690 609.28125 C 690.30429 609.84825 688.7317 609.45125 688.09375 609.53125 C 704.79742 617.62125 742.92242 538.87125 726.21875 530.78125 C 710.428 524.35925 695.11729 519.43025 677.71875 520.15625 C 624.17997 521.89025 571.97682 534.344 520.71875 549.375 C 513.86456 551.4509 507.02389 553.55841 500.1875 555.6875 C 508.68072 523.97169 516.63794 492.13058 524.46875 460.25 C 538.849 457.71925 553.28825 455.5392 567.8125 453.75 C 574.97151 453.254 582.14233 452.544 589.3125 452.25 C 599.61729 451.828 611.78977 451.95 622.1875 453 C 622.71161 453.053 634.88591 454.38125 637.28125 456.40625 C 637.98647 456.99625 635.42341 456.40625 634.5 456.40625 C 650.9827 464.93525 691.20145 387.24775 674.71875 378.71875 C 636.21832 362.30275 597.84735 364.72425 556.8125 368.90625 C 552.55607 369.48404 548.30819 370.11836 544.0625 370.75 C 552.8642 361.86107 561.73497 353.02073 570.6875 344.28125 C 594.18796 322.12025 618.07668 300.13275 645.25 282.46875 C 660.02447 273.23437 620.12255 207.36374 602.09375 207.28125 z M 302.4375 244.4375 C 282.52246 245.515 233.36721 294.62383 244.75 306.625 C 272.19799 334.426 304.89856 355.5755 338.78125 374.5625 C 367.43304 388.7875 352.84491 382.06975 382.59375 394.71875 C 399.40716 401.80775 432.81341 322.5255 416 315.4375 C 392.29914 305.5535 404.02367 310.8895 380.78125 299.4375 C 354.51716 284.7835 328.87674 268.634 308.28125 246.375 C 306.88336 244.90106 304.88321 244.30518 302.4375 244.4375 z M 480.46875 710 C 461.28026 711.14209 415.07087 766.34319 427.75 777.4375 C 456.1555 802.6305 490.46097 817.811 525.78125 830.5 C 572.42324 844.412 619.70274 855.9985 666.34375 869.9375 C 698.46331 880.0795 730.48558 890.49725 761.90625 902.65625 C 779.19604 909.12525 809.69604 827.62525 792.40625 821.15625 C 758.86489 808.97925 724.84479 798.16825 690.75 787.65625 C 645.59295 774.32525 599.94509 762.85975 554.8125 749.46875 C 529.71786 740.50775 504.98631 730.289 485.46875 711.5 C 484.15712 710.35231 482.45377 709.88185 480.46875 710 z "
     id="path24009" />
</svg>
