<?xml version="1.0" encoding="UTF-8" standalone="no"?>
<svg
   xmlns:dc="http://purl.org/dc/elements/1.1/"
   xmlns:cc="http://creativecommons.org/ns#"
   xmlns:rdf="http://www.w3.org/1999/02/22-rdf-syntax-ns#"
   xmlns:svg="http://www.w3.org/2000/svg"
   xmlns="http://www.w3.org/2000/svg"
   xmlns:sodipodi="http://sodipodi.sourceforge.net/DTD/sodipodi-0.dtd"
   xmlns:inkscape="http://www.inkscape.org/namespaces/inkscape"
   width="1024"
   height="1024"
   id="U513F"
   version="1.1"
   inkscape:version="0.48.0 r9654"
   sodipodi:docname="U+513F.svg">
  <metadata
     id="metadata9">
    <rdf:RDF>
      <cc:Work
         rdf:about="">
        <dc:format>image/svg+xml</dc:format>
        <dc:type
           rdf:resource="http://purl.org/dc/dcmitype/StillImage" />
      </cc:Work>
    </rdf:RDF>
  </metadata>
  <defs
     id="defs7" />
  <sodipodi:namedview
     pagecolor="#ffffff"
     bordercolor="#666666"
     borderopacity="1"
     objecttolerance="10"
     gridtolerance="10"
     guidetolerance="10"
     inkscape:pageopacity="0"
     inkscape:pageshadow="2"
     inkscape:window-width="640"
     inkscape:window-height="480"
     id="namedview5"
     showgrid="false"
     inkscape:zoom="0.27441406"
     inkscape:cx="512"
     inkscape:cy="512"
     inkscape:window-x="0"
     inkscape:window-y="25"
     inkscape:window-maximized="0"
     inkscape:current-layer="U513F" />
  <path
     style="fill:#550000;fill-opacity:1;fill-rule:nonzero;stroke:#f9f9f9;stroke-width:0.1;stroke-miterlimit:4;stroke-dasharray:none"
     d="M 574.125 266.375 C 547.88586 266.20166 511.05543 275.59937 512.75 287.6875 C 516.9143 313.9205 515.48385 340.56275 514.34375 366.96875 C 511.19095 413.80675 509.3852 460.705 508.0625 507.625 C 506.562 556.191 504.95585 604.74975 505.34375 653.34375 C 505.73245 690.79775 509.20395 728.07475 515.53125 764.96875 C 520.67965 794.70075 531.35125 822.704 545.90625 849 C 566.02845 882.217 597.5085 901.494 632.9375 914.875 C 672.0329 927.22 712.4377 923.117 752.3125 918.125 C 786.8181 913.206 821.6326 911.52475 856.375 909.21875 C 878.2743 907.79275 900.0892 905.4035 921.875 902.8125 C 940.1472 900.5595 929.5222 814.40325 911.25 816.65625 C 891.0856 819.23625 870.88785 821.64275 850.59375 822.96875 C 814.20615 825.42475 777.74085 827.23075 741.59375 832.34375 C 715.33745 835.60875 688.45995 839.8165 662.34375 833.3125 C 646.32625 828.1045 631.50915 820.47175 621.71875 806.21875 C 611.52755 788.78175 604.7166 769.76825 600.9375 749.90625 C 595.0618 717.70825 592.0051 685.109 591.375 652.375 C 590.6793 604.941 592.14155 557.534 593.65625 510.125 C 595.06365 463.722 597.05535 417.3635 600.53125 371.0625 C 602.16065 339.2315 603.56245 307.26625 599.59375 275.53125 C 598.70612 269.19937 587.86931 266.4658 574.125 266.375 z M 383.96875 283.4375 C 359.70673 283.87411 332.40683 290.42737 333.15625 300.84375 C 337.41195 341.66075 335.6826 382.64975 332.6875 423.46875 C 327.5111 485.09175 314.345 545.57175 297.125 604.84375 C 283.6211 650.29675 263.02265 692.986 239.96875 734.25 C 223.19235 763.348 205.4705 791.907 186.5 819.625 C 178.1285 829.919 171.8616 842.15725 162.8125 851.90625 C 151.1687 866.42825 219.63755 921.30225 231.28125 906.78125 C 240.82605 894.29525 249.30835 881.02975 258.40625 868.21875 C 278.49435 838.16975 297.42615 807.37225 315.21875 775.90625 C 341.07555 728.81625 364.04255 680.06425 378.96875 628.28125 C 397.34165 563.39125 411.5772 497.30825 417.6875 430.03125 C 421.3286 384.94425 423.3147 339.7735 420.4375 294.5625 C 419.85462 286.46087 402.83921 283.09792 383.96875 283.4375 z "
     id="path22615" />
</svg>
