<?xml version="1.0" encoding="UTF-8" standalone="no"?>
<svg
   xmlns:dc="http://purl.org/dc/elements/1.1/"
   xmlns:cc="http://creativecommons.org/ns#"
   xmlns:rdf="http://www.w3.org/1999/02/22-rdf-syntax-ns#"
   xmlns:svg="http://www.w3.org/2000/svg"
   xmlns="http://www.w3.org/2000/svg"
   xmlns:sodipodi="http://sodipodi.sourceforge.net/DTD/sodipodi-0.dtd"
   xmlns:inkscape="http://www.inkscape.org/namespaces/inkscape"
   width="1024"
   height="1024"
   id="U51C9"
   version="1.1"
   inkscape:version="0.48.0 r9654"
   sodipodi:docname="U+51C9.svg">
  <metadata
     id="metadata17">
    <rdf:RDF>
      <cc:Work
         rdf:about="">
        <dc:format>image/svg+xml</dc:format>
        <dc:type
           rdf:resource="http://purl.org/dc/dcmitype/StillImage" />
      </cc:Work>
    </rdf:RDF>
  </metadata>
  <defs
     id="defs15" />
  <sodipodi:namedview
     pagecolor="#ffffff"
     bordercolor="#666666"
     borderopacity="1"
     objecttolerance="10"
     gridtolerance="10"
     guidetolerance="10"
     inkscape:pageopacity="0"
     inkscape:pageshadow="2"
     inkscape:window-width="640"
     inkscape:window-height="480"
     id="namedview13"
     showgrid="false"
     inkscape:zoom="0.27441406"
     inkscape:cx="512"
     inkscape:cy="512"
     inkscape:window-x="0"
     inkscape:window-y="25"
     inkscape:window-maximized="0"
     inkscape:current-layer="U51C9" />
  <path
     style="fill:#2b0000;fill-opacity:1;fill-rule:nonzero;stroke:#f9f9f9;stroke-width:0.1;stroke-miterlimit:4;stroke-dasharray:none"
     d="M 589.6875 124.3125 C 568.7642 124.77805 516.14658 167.41288 526.09375 180.46875 C 545.55565 204.79575 565.0872 229.05175 585.5 252.59375 C 597.16637 265.7784 609.05776 278.74886 621.09375 291.59375 C 608.51973 292.86543 595.96801 294.27919 583.4375 295.96875 C 534.0539 303.10775 484.9061 311.84875 436.25 322.96875 C 406.2877 329.76275 376.69495 338.33425 346.46875 343.78125 C 327.80005 345.85525 337.5812 433.85525 356.25 431.78125 C 389.863 425.60025 422.5599 415.4065 455.8125 407.5625 C 501.9956 396.6625 548.7183 388.40825 595.6875 381.78125 C 636.7068 376.47225 678.03045 374.0245 719.21875 370.4375 C 746.83405 367.9415 774.4885 365.92925 802.1875 364.65625 C 810.1159 364.52825 818.03825 363.82725 825.96875 364.15625 C 844.77825 364.18025 844.90325 275.49875 826.09375 275.46875 C 816.51465 275.63175 806.97115 276.214 797.40625 276.75 C 768.70335 278.534 740.03345 280.85075 711.40625 283.59375 C 699.71915 284.67947 688.01062 285.6417 676.3125 286.625 C 692.31757 271.25339 705.17313 252.32853 698.625 245.5625 C 682.5046 229.2105 666.7389 212.52375 651.5 195.34375 C 632.2965 173.20975 613.8521 150.48225 596.4375 126.90625 C 595.01648 125.04113 592.67654 124.24599 589.6875 124.3125 z M 238.90625 211.75 C 215.71013 212.42962 163.26956 243.03106 170.5 256.78125 C 184.9132 283.87525 198.79805 311.24425 212.34375 338.78125 C 221.29305 357.80325 216.98975 348.458 225.21875 366.875 C 232.86805 383.791 312.61805 347.7285 304.96875 330.8125 C 295.75565 310.6535 300.5248 320.85175 290.6875 300.21875 C 276.7759 271.99075 262.44795 243.973 248.78125 215.625 C 247.28059 212.77136 243.72054 211.60895 238.90625 211.75 z M 720.71875 401.125 C 701.48101 401.13915 682.27035 402.66669 663.28125 406.03125 C 632.58175 411.28425 601.98795 417.375 571.84375 425.25 C 542.50635 433.486 513.22235 442.582 486.53125 457.625 C 484.10893 459.03795 483.06751 461.95025 483.0625 465.84375 C 456.64719 468.65566 418.78619 483.6555 422.25 495.875 C 429.7609 522.986 437.13165 550.08625 446.03125 576.78125 C 452.46375 595.33625 460.0427 613.4755 467.375 631.6875 C 469.3421 637.1475 467.9509 633.55375 472.25 642.21875 C 472.67943 642.95782 473.24548 643.56563 473.9375 644.0625 C 465.07616 663.35765 478.75874 728.89284 494.84375 726.0625 C 516.58375 722.21203 538.3299 718.5744 560.03125 714.5625 C 561.4528 733.15004 562.50752 751.76693 563.1875 770.40625 C 564.3865 799.67425 563.60275 828.92725 562.03125 858.15625 C 560.10285 879.97625 558.83365 901.7955 559.90625 923.6875 C 560.24835 929.6745 560.99195 935.61775 561.46875 941.59375 C 563.33675 960.31475 651.58675 951.50225 649.71875 932.78125 C 649.17165 928.01925 648.4936 923.275 648.0625 918.5 C 646.6619 899.805 648.5063 881.165 649.6875 862.5 C 651.1306 830.75 651.7652 798.9615 650.4375 767.1875 C 649.55565 743.38811 648.06836 719.63315 646.5625 695.875 C 663.9627 691.94261 681.37278 688.05927 698.84375 684.4375 C 709.86945 682.3935 720.83345 679.85675 731.96875 678.46875 C 736.73086 677.73662 739.34377 671.42305 740.34375 662.5 C 741.46389 661.90418 742.35247 661.06881 742.9375 660 C 744.7169 656.307 746.50175 652.6305 748.28125 648.9375 C 754.41275 630.6075 759.018 611.79 764 593.125 C 771.9466 563.97 780.26605 534.938 788.09375 505.75 C 793.78005 482.714 801.4161 460.11075 793.9375 436.46875 C 790.2237 430.71875 787.35085 424.31475 782.78125 419.21875 C 770.44735 405.46675 751.33915 402.40175 734.03125 401.34375 C 729.58966 401.19 725.15823 401.12174 720.71875 401.125 z M 701.40625 489.78125 C 694.56732 516.57504 686.98702 543.18366 679.53125 569.8125 C 676.48069 580.12635 673.85524 590.58397 670.84375 600.9375 C 638.04609 608.42079 605.31174 616.21908 572.46875 623.5 C 553.39512 627.34736 534.24111 630.65483 515.03125 633.65625 C 534.13338 623.0651 551.83199 608.01446 549.75 599.15625 C 549.70881 599.05827 549.70137 599.0136 549.65625 598.90625 C 549.62169 598.82414 549.63059 598.80627 549.59375 598.71875 C 549.46567 598.31845 549.30983 597.93436 549.09375 597.5625 C 549.06194 597.48681 549.09521 597.51533 549.0625 597.4375 C 541.9996 581.3945 535.1052 565.228 529.125 548.75 C 527.44927 543.85138 525.83695 538.934 524.28125 534 C 526.85975 535.04577 529.19828 535.15523 531.125 534.03125 C 550.9645 522.11725 573.35225 515.7465 595.46875 509.5625 C 622.60835 502.5915 650.101 497.04325 677.75 492.53125 C 685.59098 491.27713 693.49489 490.34666 701.40625 489.78125 z M 337.78125 541.46875 C 335.82081 541.44817 334.17373 541.96281 332.9375 543.15625 C 297.833 577.36325 262.43415 611.29975 227.78125 645.96875 C 198.69655 675.34175 170.0875 705.16225 140.875 734.40625 C 127.8391 747.91325 191.49525 809.35075 204.53125 795.84375 C 232.27845 765.54375 260.60705 735.82725 289.28125 706.40625 C 323.12625 672.00025 358.0673 638.69975 392.9375 605.34375 C 404.88777 593.80719 356.73213 541.66772 337.78125 541.46875 z M 748.03125 755.0625 C 728.628 755.94494 681.15889 811.04956 693.8125 822.4375 C 713.7761 839.8825 735.95165 854.41775 758.28125 868.59375 C 774.70365 879.18875 791.37125 889.76 805.15625 903.75 C 818.66745 916.711 879.7613 853.0235 866.25 840.0625 C 847.6325 822.7105 827.01775 807.91975 805.34375 794.59375 C 787.17345 783.02075 768.8426 771.42 753.0625 756.625 C 751.75351 755.44684 750.03848 754.97121 748.03125 755.0625 z M 484.5625 762.1875 C 482.55459 762.2533 480.90024 762.84841 479.6875 764.125 C 460.5878 785.152 445.68865 809.301 431.46875 833.75 C 423.01675 848.159 415.5819 863.02475 409.25 878.46875 C 402.4544 895.91675 484.7043 927.948 491.5 910.5 C 495.4799 898.986 501.49145 888.36775 507.34375 877.71875 C 518.04235 859.19875 528.9357 840.634 543.875 825.125 C 555.59816 812.7855 503.97231 761.55148 484.5625 762.1875 z "
     id="path9878" />
</svg>
