<?xml version="1.0" encoding="utf-8" ?>

<!DOCTYPE svg PUBLIC "-//W3C//DTD SVG 1.1//EN" 
  "http://www.w3.org/Graphics/SVG/1.1/DTD/svg11.dtd">
<svg 
	xmlns="http://www.w3.org/2000/svg"
	xmlns:xlink="http://www.w3.org/1999/xlink"
	width="1024" height="1024">
<path d="m 11793.404,1252.5924 c -11.308,29.2189 -17.215,60.0962 -21.932,90.9508 -5.066,34.5116 -3.829,69.3599 -0.83,103.9687 1.129,11.1909 2.677,22.3314 4.07,33.4908 2.341,20.8572 -95.981,31.8942 -98.322,11.037 l 0,0 c -1.214,-12.255 -2.638,-24.4874 -3.679,-36.7596 -3.079,-42.1391 -3.939,-84.5215 2.261,-126.4644 5.638,-36.9892 12.79,-73.8021 24.773,-109.3347 7.024,-19.8679 100.683,13.2435 93.659,33.1114 z" id="path3645" inkscape:connector-curvature="0" style="fill:#f4d7d7;fill-opacity:1;fill-rule:nonzero;stroke:#f9f9f9;stroke-width:0.1;stroke-miterlimit:4;stroke-dasharray:none" transform="translate(-11264, -1024)"/><path d="m 11489.839,1295.6025 c 22.538,29.2879 48.965,55.2645 75.678,80.6856 34.777,31.5829 70.477,62.7217 111.141,86.5248 3.585,1.4374 7.169,2.8748 10.753,4.3122 18.948,8.5918 -21.554,97.9104 -40.502,89.3187 l 0,0 c -6.998,-3.3615 -13.996,-6.7229 -20.995,-10.0844 -45.799,-28.5537 -87.347,-63.1059 -127.112,-99.5197 -30.852,-29.0072 -61.11,-58.7495 -88.183,-91.382 -12.697,-16.8051 66.523,-76.6604 79.22,-59.8552 z" id="path3647" inkscape:connector-curvature="0" style="fill:#f4d7d7;fill-opacity:1;fill-rule:nonzero;stroke:#f9f9f9;stroke-width:0.1;stroke-miterlimit:4;stroke-dasharray:none" transform="translate(-11264, -1024)"/><path d="m 11960.112,1400.3194 c -24.853,13.7482 -45.93,33.2698 -66.993,52.0801 -20.399,18.6402 -10.079,9.1723 -30.956,28.4069 -15.198,14.0578 -81.467,-57.5871 -66.269,-71.645 l 0,0 c 21.336,-19.8118 10.701,-9.9716 31.904,-29.5216 27.158,-24.4972 54.653,-49.1344 86.54,-67.4142 18.687,-9.7102 64.462,78.3836 45.774,88.0938 z" id="path3649" inkscape:connector-curvature="0" style="fill:#f4d7d7;fill-opacity:1;fill-rule:nonzero;stroke:#f9f9f9;stroke-width:0.1;stroke-miterlimit:4;stroke-dasharray:none" transform="translate(-11264, -1024)"/><path d="m 11363.058,1520.7973 c 50.402,-1.0974 100.809,-1.893 151.22,-2.5185 84.852,-0.758 169.709,-1.1608 254.562,-0.511 58.455,0.6052 116.872,2.9203 175.283,5.1243 18.407,4.3716 53.158,-7.0385 10.9,6.5513 17.855,-11.3741 71.472,72.7945 53.618,84.1685 l 0,0 c -7.623,2.7789 -15.036,6.2204 -22.869,8.3366 -14.832,4.0073 -31.655,-2.2791 -46.576,-1.2082 -57.048,-3.6031 -114.148,-6.659 -171.312,-7.5677 -83.942,-1.0441 -167.894,-0.6155 -251.825,1.1418 -49.238,1.2191 -98.513,2.302 -147.669,5.5199 -21.009,1.1312 -26.341,-97.9057 -5.332,-99.037 z" id="path3651" inkscape:connector-curvature="0" style="fill:#f4d7d7;fill-opacity:1;fill-rule:nonzero;stroke:#f9f9f9;stroke-width:0.1;stroke-miterlimit:4;stroke-dasharray:none" transform="translate(-11264, -1024)"/><path d="m 11721.574,1581.0097 c -25.89,34.064 -52.029,67.9355 -77.8,102.0922 -37.775,50.8323 -76.741,100.7492 -116.251,150.2381 -25.835,31.7649 -51.031,64.0473 -77.042,95.6684 -5.606,6.7619 -4.124,3.925 -5.89,7.5845 -13.187,16.5123 -91.027,-45.6544 -77.84,-62.1667 l 0,0 c 5.316,-6.0113 2.47,-2.866 8.564,-9.412 26.506,-29.9601 51.305,-61.3818 76.807,-92.1887 39.066,-48.4166 77.403,-97.4143 114.09,-147.6697 24.58,-33.2249 49.675,-66.1079 73.294,-100.0223 11.853,-17.4093 93.921,38.4669 82.068,55.8762 z" id="path3653" inkscape:connector-curvature="0" style="fill:#f4d7d7;fill-opacity:1;fill-rule:nonzero;stroke:#f9f9f9;stroke-width:0.1;stroke-miterlimit:4;stroke-dasharray:none" transform="translate(-11264, -1024)"/><path d="m 11768.623,1605.5682 c -9.089,25.9506 -15.182,52.7495 -20.258,79.7275 -5.742,33.5546 -8.92,67.5135 -7.568,101.5455 2.911,16.3698 -1.33,19.9451 13.145,23.3489 28.513,8.1506 58.42,9.8982 87.822,12.5447 41.973,3.72 84.037,6.1696 126.118,8.2717 29.864,1.4501 59.761,1.8939 89.652,2.4099 10.617,0.1845 21.234,0.3727 31.85,0.5648 21.14,0.7319 17.69,100.3871 -3.45,99.6552 l 0,0 c -10.359,-0.5346 -20.721,-1.0146 -31.086,-1.423 -30.678,-1.1468 -61.37,-1.9776 -92.031,-3.5638 -43.228,-2.3228 -86.439,-4.9906 -129.577,-8.6607 -43.103,-3.6808 -87.479,-5.7795 -127.483,-23.8482 -45.879,-28.2694 -58.719,-53.1677 -63.019,-106.3939 -0.916,-41.01 2.274,-81.9208 9.284,-122.364 5.665,-30.7821 12.622,-61.2598 21.715,-91.2293 6.24,-20.1285 101.126,9.2863 94.886,29.4147 z" id="path3657" inkscape:connector-curvature="0" style="fill:#f4d7d7;fill-opacity:1;fill-rule:nonzero;stroke:#f9f9f9;stroke-width:0.1;stroke-miterlimit:4;stroke-dasharray:none" transform="translate(-11264, -1024)"/></svg>