<?xml version="1.0" encoding="UTF-8" standalone="no"?>
<svg
   xmlns:dc="http://purl.org/dc/elements/1.1/"
   xmlns:cc="http://creativecommons.org/ns#"
   xmlns:rdf="http://www.w3.org/1999/02/22-rdf-syntax-ns#"
   xmlns:svg="http://www.w3.org/2000/svg"
   xmlns="http://www.w3.org/2000/svg"
   xmlns:sodipodi="http://sodipodi.sourceforge.net/DTD/sodipodi-0.dtd"
   xmlns:inkscape="http://www.inkscape.org/namespaces/inkscape"
   width="1024"
   height="1024"
   id="U5185"
   version="1.1"
   inkscape:version="0.48.0 r9654"
   sodipodi:docname="U+5185.svg">
  <metadata
     id="metadata11">
    <rdf:RDF>
      <cc:Work
         rdf:about="">
        <dc:format>image/svg+xml</dc:format>
        <dc:type
           rdf:resource="http://purl.org/dc/dcmitype/StillImage" />
      </cc:Work>
    </rdf:RDF>
  </metadata>
  <defs
     id="defs9" />
  <sodipodi:namedview
     pagecolor="#ffffff"
     bordercolor="#666666"
     borderopacity="1"
     objecttolerance="10"
     gridtolerance="10"
     guidetolerance="10"
     inkscape:pageopacity="0"
     inkscape:pageshadow="2"
     inkscape:window-width="640"
     inkscape:window-height="480"
     id="namedview7"
     showgrid="false"
     inkscape:zoom="0.27441406"
     inkscape:cx="512"
     inkscape:cy="512"
     inkscape:window-x="0"
     inkscape:window-y="25"
     inkscape:window-maximized="0"
     inkscape:current-layer="U5185" />
  <path
     style="fill:#c83737;fill-opacity:1;fill-rule:nonzero;stroke:#f9f9f9;stroke-width:0.1;stroke-miterlimit:4;stroke-dasharray:none"
     d="M 486.53125 180.46875 C 474.46247 180.57002 465.23694 183.01156 464.21875 188.78125 C 458.25615 227.48425 446.92055 265.04975 435.28125 302.34375 C 429.18169 321.09866 422.80249 339.73805 416.1875 358.3125 C 395.81046 360.90296 375.43056 363.59173 355.0625 366.28125 C 315.255 371.43825 275.3865 376.479 236.25 385.625 C 228.38492 387.59139 227.92047 404.75375 231.40625 423.21875 C 205.31003 418.84773 161.29455 424.65134 161.875 437.90625 C 165.3855 478.36625 169.1248 518.811 172.875 559.25 C 177.2169 609.206 182.97155 659.017 191.09375 708.5 C 196.88695 742.737 205.48725 776.43925 220.59375 807.78125 C 230.24855 823.33725 224.03425 815.12025 240.59375 831.28125 C 255.05471 841.83144 303.05135 777.51523 294.59375 761.6875 C 295.75299 763.02445 296.79242 764.1637 297.65625 765.09375 C 285.91072 743.26869 281.96693 718.02398 276.75 694.09375 C 268.6142 646.84975 263.0167 599.23775 259 551.46875 C 256.633 524.42912 254.19868 497.39514 252.3125 470.3125 C 254.10304 471.41981 255.91895 471.81717 257.6875 471.375 C 293.2513 461.53 329.957 457.04075 366.4375 452.09375 C 371.58164 451.38898 376.73024 450.69747 381.875 450 C 377.15698 462.16177 372.40215 474.30108 367.625 486.4375 C 351.1208 527.8645 333.95135 569.056 315.15625 609.5 C 311.66245 615.878 306.4465 629.36075 301.375 632.46875 C 288.022 645.67575 350.272 708.61425 363.625 695.40625 C 377.2437 680.79625 387.36955 664.1185 394.90625 645.5625 C 401.95343 629.58753 408.77733 613.5319 415.46875 597.40625 C 415.87971 598.23955 416.42326 598.96621 417.15625 599.53125 C 442.88615 618.56225 471.1029 633.64275 499.75 647.71875 C 529.8686 661.53775 560.332 674.60025 590.625 688.03125 C 602.0613 693.15125 613.56815 698.165 624.90625 703.5 C 632.61789 706.97837 644.2184 692.47473 653.09375 674.8125 C 648.33435 711.01067 644.28347 747.28068 640.5 783.59375 C 638.5041 799.2967 638.26724 815.09332 637.84375 830.875 C 637.82444 830.76357 637.82537 830.6434 637.8125 830.53125 C 637.82116 830.9129 637.80407 831.30585 637.8125 831.6875 C 637.81903 831.44827 637.83732 831.20798 637.84375 830.96875 C 641.1692 848.55367 724.14478 857.03034 726.125 838.875 C 726.274 836.526 726.4135 834.1615 726.5625 831.8125 C 726.3673 818.4765 726.27855 805.173 727.71875 791.875 C 731.14395 751.717 735.2011 711.60925 740.5625 671.65625 C 747.3204 618.68925 755.01295 565.751 757.71875 512.375 C 758.59915 478.265 759.14965 443.475 749.03125 410.5 C 738.92875 386.387 724.22875 366.86725 699.71875 355.90625 C 676.20815 346.90425 651.52915 342.79675 626.34375 342.21875 C 587.81369 341.65482 549.3316 343.86203 510.96875 347.40625 C 513.15291 341.08234 515.30669 334.74906 517.4375 328.40625 C 530.6074 287.52425 543.10725 246.38125 551.28125 204.15625 C 553.52126 191.46294 513.08257 180.24596 486.53125 180.46875 z M 637.8125 830.53125 C 637.80266 830.0979 637.79082 829.6521 637.78125 829.21875 C 637.73328 829.65852 637.7632 830.10175 637.8125 830.53125 z M 297.65625 765.09375 C 298.13371 765.98095 298.62121 766.87441 299.125 767.75 C 302.24323 769.54306 301.35199 769.07278 297.65625 765.09375 z M 604.125 429.5 C 610.90294 429.49346 617.68922 429.58025 624.46875 429.78125 C 638.31585 431.38125 653.5916 431.19075 666.3125 437.71875 C 666.6616 439.17075 666.5365 440.628 666.5625 442.125 C 671.3911 464.594 671.0531 487.658 670.6875 510.5 C 669.10935 547.95852 664.75272 585.20606 659.96875 622.375 C 648.58998 617.4435 637.16096 612.64821 625.78125 607.71875 C 596.55205 595.10175 567.2458 582.62875 538.3125 569.34375 C 514.9439 557.83675 491.6537 545.76475 471.1875 529.46875 C 463.48832 523.53376 445.28723 539.47546 431.59375 557.8125 C 436.94165 544.44477 442.22925 531.03482 447.46875 517.625 C 457.76016 491.07355 468.00036 464.51835 478.0625 437.875 C 490.74922 436.45448 503.4442 435.12345 516.15625 433.90625 C 545.42339 431.36962 574.75395 429.52836 604.125 429.5 z "
     id="path10375" />
</svg>
