<?xml version="1.0" encoding="UTF-8" standalone="no"?>
<svg
   xmlns:dc="http://purl.org/dc/elements/1.1/"
   xmlns:cc="http://creativecommons.org/ns#"
   xmlns:rdf="http://www.w3.org/1999/02/22-rdf-syntax-ns#"
   xmlns:svg="http://www.w3.org/2000/svg"
   xmlns="http://www.w3.org/2000/svg"
   xmlns:sodipodi="http://sodipodi.sourceforge.net/DTD/sodipodi-0.dtd"
   xmlns:inkscape="http://www.inkscape.org/namespaces/inkscape"
   width="1024"
   height="1024"
   id="U5192"
   version="1.1"
   inkscape:version="0.48.0 r9654"
   sodipodi:docname="U+5192.svg">
  <metadata
     id="metadata16">
    <rdf:RDF>
      <cc:Work
         rdf:about="">
        <dc:format>image/svg+xml</dc:format>
        <dc:type
           rdf:resource="http://purl.org/dc/dcmitype/StillImage" />
      </cc:Work>
    </rdf:RDF>
  </metadata>
  <defs
     id="defs14" />
  <sodipodi:namedview
     pagecolor="#ffffff"
     bordercolor="#666666"
     borderopacity="1"
     objecttolerance="10"
     gridtolerance="10"
     guidetolerance="10"
     inkscape:pageopacity="0"
     inkscape:pageshadow="2"
     inkscape:window-width="640"
     inkscape:window-height="480"
     id="namedview12"
     showgrid="false"
     inkscape:zoom="0.27441406"
     inkscape:cx="512"
     inkscape:cy="512"
     inkscape:window-x="-642"
     inkscape:window-y="266"
     inkscape:window-maximized="0"
     inkscape:current-layer="U5192" />
  <path
     style="fill:#c83737;fill-opacity:1;fill-rule:nonzero;stroke:#f9f9f9;stroke-width:0.1;stroke-miterlimit:4;stroke-dasharray:none"
     d="M 510.375 166.28125 C 473.64269 166.34861 436.916 167.3935 400.34375 170.96875 C 363.97735 175.09775 326.86355 179.235 293.03125 194.125 C 290.86699 195.23806 289.66908 197.52945 289.25 200.65625 C 263.178 195.69853 222.88657 198.98252 222.625 211.625 C 222.2365 256.04 223.4655 300.40175 226.375 344.71875 C 229.3571 390.13875 237.12115 435.01525 247.46875 479.28125 C 254.10725 494.17625 252.55005 514.95725 262.34375 528.65625 C 266.89605 535.02325 272.4004 540.634 277.4375 546.625 C 291.60254 557.17596 339.09153 495.32126 332.65625 478.15625 C 337.49826 485.02743 345.17384 497.02185 342.625 491.75 C 337.6053 481.369 336.2711 469.44925 332.5 458.65625 C 322.5923 419.42725 315.2557 379.556 312.5625 339.125 C 310.76576 311.19482 309.71485 283.19672 309.84375 255.21875 C 318.29084 267.55331 327.4467 275.92564 333.5 272.8125 C 357.8379 262.9955 384.55305 260.49525 410.40625 257.40625 C 455.47195 252.75925 500.84195 252.57425 546.09375 253.15625 C 585.04995 253.98225 623.941 256.418 662.6875 260.5 C 685.8084 263.347 709.08095 265.69025 731.84375 270.78125 C 735.12098 271.4448 738.30626 272.38681 741.40625 273.53125 C 737.41939 298.64659 730.5654 323.25499 724.1875 347.84375 C 714.6199 382.93075 705.51235 418.12125 697.21875 453.53125 C 693.67342 469.10435 690.14651 484.68395 685.71875 500.03125 C 687.09764 495.99242 689.04703 493.9758 692.15625 490.09375 C 683.39262 505.67509 738.93369 566.95682 752.5 554.84375 C 760.5 545.72275 767.67445 537.81575 770.53125 525.71875 C 775.07705 508.27975 778.8638 490.65325 782.625 473.03125 C 790.3151 438.43425 799.00705 404.0935 808.46875 369.9375 C 817.16575 337.1275 826.66065 304.29 830.71875 270.5 C 832.02045 240.789 825.9672 216.48925 797.5 201.90625 C 782.4134 194.29625 766.707 187.9005 750.0625 184.5625 C 724.089 179.2845 697.74915 176.31325 671.40625 173.53125 C 630.08095 169.58025 588.60475 167.253 547.09375 166.5 C 534.85725 166.368 522.6191 166.2588 510.375 166.28125 z M 755.6875 280.0625 C 756.14565 280.29981 756.60551 280.54206 757.0625 280.78125 C 757.32414 280.97028 757.94248 281.42294 758.125 281.5625 C 757.25609 281.09153 756.45672 280.58928 755.6875 280.0625 z M 544.09375 311.15625 C 529.91795 311.09972 515.70372 311.90363 501.5 313.59375 C 466.5801 317.74875 431.8689 323.20425 397.4375 330.40625 C 379.1412 334.57125 398.79745 420.82125 417.09375 416.65625 C 448.24045 408.79425 479.9511 403.84525 511.8125 400.03125 C 540.2872 396.79925 568.771 397.96525 596.6875 404.28125 C 602.4175 403.04225 638.93605 420.585 614.09375 407.375 C 609.38308 398.94813 604.64817 390.52085 599.9375 382.09375 C 614.73618 394.85453 687.34545 387.63066 686.03125 370.59375 C 680.37345 359.57275 674.7202 348.55225 669.0625 337.53125 C 652.0598 327.27525 634.12495 322.05025 614.59375 318.28125 C 591.26387 313.70125 567.72009 311.25046 544.09375 311.15625 z M 631.0625 431.25 C 622.96226 431.2305 614.85926 431.495 606.75 431.75 C 569.127 433.367 531.6041 436.6255 494.25 441.4375 C 460.4869 445.6905 426.69805 450.05225 393.34375 456.90625 C 375.12655 461.38825 396.25155 547.26325 414.46875 542.78125 C 444.33445 535.62525 474.86315 531.79175 505.28125 527.84375 C 540.03495 523.25075 574.967 520.336 610 519.25 C 622.7933 519.98 639.6759 517.6635 650.875 520.9375 C 649.07127 520.38972 647.27245 519.82932 645.46875 519.28125 C 663.19059 521.54884 700.46696 448.22575 684.375 439.875 C 680.0235 438.146 675.69525 436.4165 671.34375 434.6875 C 658.03613 432.04875 644.56289 431.2825 631.0625 431.25 z M 624.375 572.5 C 618.16019 572.55445 611.96743 572.706 605.75 572.9375 C 569.4696 574.0525 533.1633 575.388 497 578.625 C 466.7881 581.493 436.6694 585.20475 406.5 588.46875 C 404.42641 588.73692 402.73655 590.07557 401.375 592.21875 C 377.93355 587.30715 321.64784 601.48882 324.625 616.375 C 332.6607 655.065 335.02765 694.63675 337.78125 733.96875 C 340.53395 774.94175 343.08605 815.94425 348.59375 856.65625 C 352.33907 873.00327 354.44254 901.0851 369.875 912.96875 C 360.10302 915.48722 350.44027 918.4539 340.96875 922.0625 C 323.72005 929.4785 358.6888 1010.79 375.9375 1003.375 C 399.3982 994.236 424.57015 990.794 449.28125 986.75 C 485.07505 981.015 521.12 977.09125 557.25 974.28125 C 584.3486 972.49725 611.531 971.63575 638.6875 972.09375 C 649.3925 973.07575 660.6983 971.77175 671.1875 973.71875 C 662.50013 972.03531 666.81272 973.26434 656.75 967.9375 C 673.26195 973.30409 721.59935 912.63013 711.5 898.6875 C 712.30882 887.80768 712.7829 876.91023 713.625 866.03125 C 715.7033 839.12625 718.9094 812.3335 723.1875 785.6875 C 728.8572 751.1935 735.8053 716.93575 741.625 682.46875 C 745.3618 657.99675 749.6547 633.16 738.4375 609.875 C 722.3936 586.641 707.89145 578.47675 680.21875 574.96875 C 661.6534 573.024 643.01942 572.33664 624.375 572.5 z M 623.6875 660.15625 C 634.17992 660.12478 644.63809 660.38098 655.09375 661.15625 C 654.88455 665.20279 654.79026 668.88791 654.65625 669.875 C 653.45443 677.72942 652.17383 685.54271 650.84375 693.375 C 642.04611 692.14222 633.18131 691.30477 624.28125 690.9375 C 593.38925 690.0535 562.5108 690.687 531.625 691.625 C 503.2066 692.546 474.7864 693.40825 446.375 694.53125 C 427.6434 695.85725 433.8933 784.16975 452.625 782.84375 C 479.888 780.70675 507.2393 779.98325 534.5625 779.03125 C 563.4882 778.17225 592.42055 777.57875 621.34375 778.71875 C 626.17718 779.0177 630.96704 779.50441 635.75 780.1875 C 634.74679 786.58739 633.78564 792.99308 632.875 799.40625 C 621.22356 797.80398 609.47032 796.93716 597.6875 796.46875 C 569.701 794.39475 541.708 791.96875 513.625 791.96875 C 485.52109 792.41162 457.41306 794.01242 429.625 798.4375 C 427.30964 775.01686 425.74171 751.50371 424.09375 728.03125 C 422.92086 710.64505 421.7655 693.25264 420.34375 675.875 C 448.60286 671.73496 476.95279 668.26813 505.375 665.46875 C 539.53 662.32775 573.8477 661.182 608.125 660.375 C 613.30935 660.2505 618.50401 660.1718 623.6875 660.15625 z M 671.5 662.78125 C 675.72488 663.39902 678.81218 666.87161 671.5 662.78125 z M 636.71875 720.40625 C 636.37284 724.59991 638.90967 730.40109 643.15625 736.75 C 641.12199 748.09324 639.11823 759.44534 637.21875 770.8125 C 631.79208 763.16874 628.53449 753.62719 627.75 745.125 C 626.94262 736.37455 632.80003 728.52868 636.71875 720.40625 z M 396.28125 836.96875 C 404.8792 839.36429 413.96007 840.49603 422.40625 843.28125 C 426.76527 865.54908 436.06768 887.42314 445.5 885.46875 C 468.3592 881.04375 491.6477 879.88975 514.875 879.59375 C 540.2547 879.73875 565.56565 882.045 590.84375 884.125 C 593.80407 884.32668 596.78868 884.52013 599.75 884.71875 C 583.24759 885.24842 566.74837 886.10507 550.28125 887.28125 C 513.57055 890.29775 476.95628 894.26576 440.53125 899.78125 C 435.39229 881.04093 392.19463 844.91546 376.21875 847.53125 C 382.90349 844.01225 389.59651 840.48752 396.28125 836.96875 z M 601.28125 853.53125 C 605.21888 857.76961 614.49386 860.73924 625.5625 862.375 C 624.94227 869.65333 624.32885 876.9122 623.6875 884.1875 C 621.78259 884.21115 619.87356 884.24858 617.96875 884.28125 C 608.77627 877.70255 605.91416 865.25617 601.28125 853.53125 z M 647 863.875 C 647.30208 863.87444 647.60464 863.87733 647.90625 863.875 C 644.65201 867.2786 643.78688 874.86248 644.5625 884.15625 C 642.84429 884.1337 641.12428 884.12715 639.40625 884.09375 C 635.09682 884.09056 630.77817 884.11271 626.46875 884.15625 C 627.13736 882.12576 627.71457 880.47973 628 880.09375 C 631.6338 875.18075 636.47975 871.276 640.71875 866.875 C 642.81583 865.87712 644.90295 864.87288 647 863.875 z "
     id="path10902" />
</svg>
