<?xml version="1.0" encoding="utf-8" ?>

<!DOCTYPE svg PUBLIC "-//W3C//DTD SVG 1.1//EN" 
  "http://www.w3.org/Graphics/SVG/1.1/DTD/svg11.dtd">
<svg 
    xmlns="http://www.w3.org/2000/svg"
    xmlns:xlink="http://www.w3.org/1999/xlink"
    xmlns:sodipodi="http://sodipodi.sourceforge.net/DTD/sodipodi-0.dtd"
    xmlns:inkscape="http://www.inkscape.org/namespaces/inkscape"
    width="1024" height="1024" id="U51C0">
<path d="m 11480.868,24908.814 c 21.239,28.394 42.501,56.744 64.833,84.291 14.959,18.486 31.245,35.805 47.762,52.886 12.943,13.542 -50.893,74.556 -63.835,61.014 l 0,0 c -17.961,-18.992 -35.711,-38.197 -52.182,-58.515 -22.206,-27.342 -43.35,-55.501 -65.469,-82.905 -12.043,-14.614 56.848,-71.385 68.891,-56.771 z" id="path9509" inkscape:connector-curvature="0" style="fill:#2b0000;fill-opacity:1;fill-rule:nonzero;stroke:#f9f9f9;stroke-width:0.1;stroke-miterlimit:4;stroke-dasharray:none" transform="translate(-11264, -24576)"/><path d="m 11396.99,25371.651 c 30.573,-29.921 60.579,-60.422 90.695,-90.803 19.674,-19.741 39.185,-39.64 58.615,-59.62 12.901,-13.247 75.349,47.568 62.449,60.815 l 0,0 c -19.59,20.088 -39.256,40.1 -58.974,60.062 -30.114,30.669 -60.265,61.309 -89.657,92.674 -13.391,13.391 -76.519,-49.736 -63.128,-63.128 z" id="path9511" inkscape:connector-curvature="0" style="fill:#2b0000;fill-opacity:1;fill-rule:nonzero;stroke:#f9f9f9;stroke-width:0.1;stroke-miterlimit:4;stroke-dasharray:none" transform="translate(-11264, -24576)"/><path d="m 11824.781,24806.442 c -21.672,25.818 -39.477,54.416 -55.987,83.708 -15.547,28.184 -26.955,58.145 -34.257,89.428 -4.516,18.149 -90.071,-3.14 -85.555,-21.289 l 0,0 c 10.057,-38.664 23.989,-76.04 43.423,-111.073 18.595,-33.167 38.593,-65.483 61.805,-95.663 11.643,-14.971 82.215,39.918 70.571,54.889 z" id="path9513" inkscape:connector-curvature="0" style="fill:#2b0000;fill-opacity:1;fill-rule:nonzero;stroke:#f9f9f9;stroke-width:0.1;stroke-miterlimit:4;stroke-dasharray:none" transform="translate(-11264, -24576)"/><path d="m 11717.436,24826.292 c 30.819,-9.335 62.118,-16.877 93.521,-23.94 29.82,-6.388 59.572,-13.257 89.791,-17.492 27.506,-3.228 55.996,1.649 73.048,26.104 3.963,5.683 5.746,12.609 8.619,18.914 7.468,34.578 -3.726,68.245 -14.503,100.829 -12.181,35.9 -28.207,70.157 -48.831,101.938 -10.36,15.644 -84.108,-33.192 -73.749,-48.836 l 0,0 c 16.931,-24.796 28.907,-52.372 38.702,-80.695 3.988,-12.205 7.916,-24.307 10.504,-36.902 0.481,-2.341 0.822,-4.71 1.216,-7.068 0.188,-1.123 -0.37,-2.676 0.529,-3.376 0.619,-0.481 0.832,1.329 1.248,1.994 4.81,7.02 5.054,8.881 13.463,13.503 9.657,5.309 14.038,0.374 1.243,1.711 -27.626,3.223 -54.715,9.882 -81.931,15.444 -28.785,6.469 -57.589,13.185 -85.48,22.923 -18.042,5.81 -45.432,-79.241 -27.39,-85.051 z" id="path9515" inkscape:connector-curvature="0" style="fill:#2b0000;fill-opacity:1;fill-rule:nonzero;stroke:#f9f9f9;stroke-width:0.1;stroke-miterlimit:4;stroke-dasharray:none" transform="translate(-11264, -24576)"/><path d="m 11598.962,25029.85 c 36.186,-10.759 72.599,-20.71 109.112,-30.291 45.871,-12.038 92.217,-22.048 138.825,-30.753 34.341,-6.6 69.037,-10.853 103.883,-13.549 26.918,-2.723 52.795,-0.787 78.084,8.824 34.854,18.502 44.018,46.786 45.845,84.034 -1.104,36.012 -7.58,71.588 -12.935,107.145 -4.801,28.942 -6.589,58.35 -12.793,87.043 -1.767,4.624 -3.534,9.248 -5.301,13.873 -7.921,17.225 -89.121,-20.115 -81.2,-37.34 l 0,0 c -0.06,0.908 -0.116,1.815 -0.174,2.723 7.535,-25.642 6.656,-53.314 12.348,-79.355 4.51,-30.253 9.748,-60.522 11.274,-91.11 0.133,-11.787 -0.657,-6.337 7.646,-5.033 -8.588,-6.223 -25.78,-1.625 -36.362,-2.43 -31.672,2.142 -63.212,5.778 -94.442,11.578 -44.434,8.02 -88.609,17.386 -132.246,29.045 -34.518,9.247 -69.039,18.648 -102.863,30.227 -17.953,6.089 -46.654,-78.542 -28.701,-84.631 z" id="path9517" inkscape:connector-curvature="0" style="fill:#2b0000;fill-opacity:1;fill-rule:nonzero;stroke:#f9f9f9;stroke-width:0.1;stroke-miterlimit:4;stroke-dasharray:none" transform="translate(-11264, -24576)"/><path d="m 11736.103,25120.906 c 41.058,-10.135 82.187,-19.871 123.605,-28.429 50.445,-10.141 101.587,-15.924 152.579,-22.462 26.051,-3.553 52.152,-6.553 78.415,-7.87 11.184,-0.07 5.04,-0.334 18.408,1.197 18.718,3.342 2.961,91.577 -15.757,88.235 l 0,0 c 4.765,-0.04 4.986,0.05 0.677,-0.212 -23.785,0.516 -47.431,2.93 -71.037,5.834 -48.632,5.712 -97.391,10.935 -145.424,20.712 -39.736,8.411 -79.252,17.828 -118.251,29.221 -18.292,4.925 -41.506,-81.302 -23.215,-86.226 z" id="path9525" inkscape:connector-curvature="0" style="fill:#2b0000;fill-opacity:1;fill-rule:nonzero;stroke:#f9f9f9;stroke-width:0.1;stroke-miterlimit:4;stroke-dasharray:none" transform="translate(-11264, -24576)"/><path d="m 11616.719,25276.18 c 34.72,-13.099 70.502,-22.831 106.504,-31.646 51.035,-11.605 102.611,-20.629 154.1,-29.944 34.03,-6.051 67.992,-12.476 101.996,-18.669 15.427,-3.117 30.945,-4.232 46.6,-2.888 18.867,2.273 8.155,91.215 -10.713,88.942 l 0,0 c -3.891,-1.401 -15.282,0.822 -20.793,1.459 -33.957,5.519 -67.836,11.502 -101.741,17.326 -49.602,8.697 -99.271,17.283 -148.315,28.791 -32.306,8.164 -64.549,16.971 -95.323,29.93 -17.671,6.855 -49.986,-76.446 -32.315,-83.301 z" id="path9527" inkscape:connector-curvature="0" style="fill:#2b0000;fill-opacity:1;fill-rule:nonzero;stroke:#f9f9f9;stroke-width:0.1;stroke-miterlimit:4;stroke-dasharray:none" transform="translate(-11264, -24576)"/><path d="m 11879.992,25014.569 c 0.729,38.875 0.343,77.758 -0.03,116.634 -0.794,58.191 -1.462,116.385 -3.248,174.555 -1.526,40.592 -3.401,81.29 -10.84,121.285 -5.854,31.193 -23.248,55.348 -45.755,76.722 -3.849,3.166 -7.699,6.331 -11.548,9.497 -14.592,11.905 -70.714,-56.883 -56.122,-68.789 l 0,0 c 2.341,-1.885 4.683,-3.769 7.024,-5.654 9.237,-8.334 16.899,-16.278 19.423,-29.013 7.591,-35.109 8.646,-71.235 10.641,-106.985 2.109,-57.32 2.841,-114.676 3.09,-172.032 -0,-37.312 0.218,-74.671 -1.88,-111.937 -0.909,-18.931 88.334,-23.215 89.243,-4.283 z" id="path9533" inkscape:connector-curvature="0" style="fill:#2b0000;fill-opacity:1;fill-rule:nonzero;stroke:#f9f9f9;stroke-width:0.1;stroke-miterlimit:4;stroke-dasharray:none" transform="translate(-11264, -24576)"/></svg>