<?xml version="1.0" encoding="UTF-8" standalone="no"?>
<svg
   xmlns:dc="http://purl.org/dc/elements/1.1/"
   xmlns:cc="http://creativecommons.org/ns#"
   xmlns:rdf="http://www.w3.org/1999/02/22-rdf-syntax-ns#"
   xmlns:svg="http://www.w3.org/2000/svg"
   xmlns="http://www.w3.org/2000/svg"
   xmlns:sodipodi="http://sodipodi.sourceforge.net/DTD/sodipodi-0.dtd"
   xmlns:inkscape="http://www.inkscape.org/namespaces/inkscape"
   width="1024"
   height="1024"
   id="U5176"
   version="1.1"
   inkscape:version="0.48.0 r9654"
   sodipodi:docname="U+5176.svg">
  <metadata
     id="metadata15">
    <rdf:RDF>
      <cc:Work
         rdf:about="">
        <dc:format>image/svg+xml</dc:format>
        <dc:type
           rdf:resource="http://purl.org/dc/dcmitype/StillImage" />
      </cc:Work>
    </rdf:RDF>
  </metadata>
  <defs
     id="defs13" />
  <sodipodi:namedview
     pagecolor="#ffffff"
     bordercolor="#666666"
     borderopacity="1"
     objecttolerance="10"
     gridtolerance="10"
     guidetolerance="10"
     inkscape:pageopacity="0"
     inkscape:pageshadow="2"
     inkscape:window-width="640"
     inkscape:window-height="480"
     id="namedview11"
     showgrid="false"
     inkscape:zoom="0.27441406"
     inkscape:cx="512"
     inkscape:cy="512"
     inkscape:window-x="0"
     inkscape:window-y="25"
     inkscape:window-maximized="0"
     inkscape:current-layer="U5176" />
  <path
     style="fill:#c83737;fill-opacity:1;fill-rule:nonzero;stroke:#f9f9f9;stroke-width:0.1;stroke-miterlimit:4;stroke-dasharray:none"
     d="M 602.3125 102.5 C 586.68206 102.80334 573.9046 106.03187 573.25 113.03125 C 571.2971 164.63125 572.42125 216.28125 572.40625 267.90625 C 572.33148 279.17616 572.18249 290.45121 572 301.71875 C 532.022 306.25983 492.0342 310.60038 452.03125 314.90625 C 452.05831 313.41636 452.09796 311.92738 452.125 310.4375 C 453.2916 267.9175 452.8478 224.53775 462.25 182.84375 C 467.7257 164.89575 383.13195 139.08325 377.65625 157.03125 C 366.58215 206.66925 367.40205 258.046 366.65625 308.625 C 366.62526 313.86635 366.57071 319.1025 366.53125 324.34375 C 326.23112 329.34548 286.00729 334.98328 246.28125 343.53125 C 228.05725 347.92125 248.74475 433.8275 266.96875 429.4375 C 299.36809 421.05533 332.44959 415.89169 365.59375 411.40625 C 364.96368 458.66762 364.22528 505.92532 363.6875 553.1875 C 363.33706 596.62513 362.76108 640.47568 371.09375 683 C 352.00201 686.71774 332.88006 690.35322 313.75 693.875 C 271.0491 701.907 228.1495 709.44075 186.3125 721.34375 C 168.4661 727.18175 195.966 811.30675 213.8125 805.46875 C 251.6789 793.10775 291.09245 786.114 330.09375 778.375 C 345.73451 775.34676 361.34858 772.25505 376.96875 769.125 C 358.54001 791.86784 341.72897 815.86876 325.5 840.21875 C 317.072 852.58775 309.6959 865.58 302.625 878.75 C 294.0098 895.292 371.97865 935.917 380.59375 919.375 C 385.88585 908.725 391.71795 898.394 398.34375 888.5 C 414.39045 864.1 431.0643 839.93775 450.8125 818.34375 C 459.66241 808.64669 430.32754 776.53353 407.59375 762.90625 C 453.38574 753.5864 499.12771 744.04192 544.90625 734.65625 C 603.32455 722.05625 662.39095 713.30925 722.21875 714.65625 C 740.54355 717.62525 762.02395 715.91975 779.21875 724.34375 C 797.01415 730.37275 825.4204 646.49675 807.625 640.46875 C 780.2572 632.11975 751.6512 628.9475 723.125 627.9375 C 699.2468 627.93279 675.48074 629.18153 651.8125 631.40625 C 649.72598 593.87785 649.08787 556.2978 650.46875 518.6875 C 651.64107 471.83843 653.32668 424.99516 654.84375 378.15625 C 689.69247 374.2046 724.58195 370.49237 759.59375 368.375 C 751.26515 368.67 785.3921 366.533 776.0625 368.75 C 794.71 371.208 806.30375 283.30175 787.65625 280.84375 C 776.09895 280.02875 764.65185 280.01025 753.09375 281.28125 C 721.07391 284.07582 689.15804 287.77842 657.25 291.625 C 657.42209 283.89439 657.61354 276.16911 657.75 268.4375 C 658.3253 219.3875 657.58265 170.192 661.21875 121.25 C 662.30981 109.58437 628.36324 101.99443 602.3125 102.5 z M 569.84375 387.78125 C 569.03697 413.1741 568.13955 438.54718 567.25 463.9375 C 545.15178 460.02749 522.96303 456.57469 500.53125 455.25 C 483.57758 454.69306 466.57943 454.79275 449.71875 456.125 C 449.96299 437.80189 450.23075 419.47865 450.53125 401.15625 C 490.29452 396.65227 530.07661 392.25427 569.84375 387.78125 z M 478.90625 542.09375 C 485.05962 542.06725 491.2034 542.2165 497.34375 542.46875 C 508.71966 543.24294 520.00882 544.6955 531.25 546.5 C 529.98036 546.63988 528.7077 546.79386 527.4375 546.96875 C 501.12005 550.18641 475.03323 554.81362 449.21875 560.75 C 449.10934 558.43869 448.97769 556.12865 448.8125 553.84375 C 448.82594 550.58396 448.85785 547.32226 448.875 544.0625 C 458.80091 542.68665 468.85389 542.13704 478.90625 542.09375 z M 564.5625 544.59375 C 564.55217 545.06202 564.54109 545.53173 564.53125 546 C 564.20776 545.98157 563.88598 545.95496 563.5625 545.9375 C 563.89451 545.51281 564.23674 545.06581 564.5625 544.59375 z M 549.59375 632.90625 C 554.79734 632.88006 559.99755 633.22694 565.1875 633.84375 C 565.29403 637.11612 565.44102 640.38415 565.5625 643.65625 C 552.95629 646.01056 540.39207 648.58724 527.84375 651.34375 C 503.69837 656.28349 479.55687 661.24017 455.40625 666.15625 C 454.12259 661.0502 453.12142 655.86294 452.34375 650.625 C 480.19488 642.38491 508.77233 636.86835 537.625 633.65625 C 541.63701 633.1455 545.61278 632.92629 549.59375 632.90625 z M 580.40625 825.53125 C 562.59757 825.15365 537.25883 904.21363 554.53125 909.875 C 582.42615 918.612 610.46865 926.8725 638.21875 936.0625 C 668.89905 946.3455 698.103 960.3285 726.3125 976.0625 C 740.4509 984.6425 733.73475 980.3775 746.53125 988.8125 C 762.19195 998.8955 809.7233 925.05175 794.0625 914.96875 C 777.6926 904.62375 786.209 909.8275 768.5 899.4375 C 735.4892 881.4695 701.4738 865.28175 665.8125 853.21875 C 637.9633 843.90175 609.76195 835.6655 582.09375 825.8125 C 581.53657 825.62988 580.98072 825.54343 580.40625 825.53125 z "
     id="path10623" />
</svg>
