<?xml version="1.0" encoding="UTF-8" standalone="no"?>
<svg
   xmlns:dc="http://purl.org/dc/elements/1.1/"
   xmlns:cc="http://creativecommons.org/ns#"
   xmlns:rdf="http://www.w3.org/1999/02/22-rdf-syntax-ns#"
   xmlns:svg="http://www.w3.org/2000/svg"
   xmlns="http://www.w3.org/2000/svg"
   xmlns:sodipodi="http://sodipodi.sourceforge.net/DTD/sodipodi-0.dtd"
   xmlns:inkscape="http://www.inkscape.org/namespaces/inkscape"
   width="1024"
   height="1024"
   id="U5229"
   version="1.1"
   inkscape:version="0.48.0 r9654"
   sodipodi:docname="U+5229.svg">
  <metadata
     id="metadata14">
    <rdf:RDF>
      <cc:Work
         rdf:about="">
        <dc:format>image/svg+xml</dc:format>
        <dc:type
           rdf:resource="http://purl.org/dc/dcmitype/StillImage" />
      </cc:Work>
    </rdf:RDF>
  </metadata>
  <defs
     id="defs12" />
  <sodipodi:namedview
     pagecolor="#ffffff"
     bordercolor="#666666"
     borderopacity="1"
     objecttolerance="10"
     gridtolerance="10"
     guidetolerance="10"
     inkscape:pageopacity="0"
     inkscape:pageshadow="2"
     inkscape:window-width="640"
     inkscape:window-height="480"
     id="namedview10"
     showgrid="false"
     inkscape:zoom="0.27441406"
     inkscape:cx="512"
     inkscape:cy="512"
     inkscape:window-x="0"
     inkscape:window-y="25"
     inkscape:window-maximized="0"
     inkscape:current-layer="U5229" />
  <path
     style="fill:#2b0000;fill-opacity:1;fill-rule:nonzero;stroke:#f9f9f9;stroke-width:0.1;stroke-miterlimit:4;stroke-dasharray:none"
     d="M 294.125 160.03125 C 287.89101 160.1078 283.39933 161.68516 282.0625 165.25 C 268.6564 202.074 252.43465 237.7885 236.21875 273.4375 C 216.36465 315.6195 197.7107 358.34 177.8125 400.5 C 168.7179 419.652 158.3548 438.1655 148.0625 456.6875 C 139.1453 473.0165 216.11415 515.04875 225.03125 498.71875 C 235.90705 478.45475 246.893 458.225 256.625 437.375 C 275.51203 396.6586 293.34033 355.44924 312.40625 314.8125 C 309.15007 348.84401 307.38741 383.0122 305.78125 417.15625 C 303.85199 459.39332 302.85687 501.63598 302.4375 543.90625 C 263.3523 554.23886 224.71238 566.17476 186.5 579.53125 C 154.1423 590.28925 121.62085 601.016 87.96875 607 C 69.62625 610.974 88.37625 697.44275 106.71875 693.46875 C 143.27695 685.45675 178.8155 673.73025 214.1875 661.65625 C 243.27506 651.25276 272.64106 641.78253 302.3125 633.375 C 302.39788 644.56963 302.52812 655.77532 302.6875 666.96875 C 289.67087 660.17544 277.88814 657.18604 274.03125 662.6875 C 258.13795 687.8115 242.37585 713.009 226.46875 738.125 C 214.95865 755.82 204.37355 774.13525 192.40625 791.53125 C 192.25695 791.63225 192.11795 791.74375 191.96875 791.84375 C 180.94225 807.12575 252.9734 859.0955 264 843.8125 C 264.8888 842.4745 265.76735 841.12025 266.65625 839.78125 C 277.97175 821.50725 288.92115 803.01375 300.40625 784.84375 C 302.05976 782.21975 303.72308 779.59436 305.375 776.96875 C 305.65159 784.98237 305.94019 792.98744 306.25 801 C 307.2435 830.002 308.921 858.987 309.5625 888 C 309.51438 888.66114 309.52808 888.47413 309.5 888.875 C 313.46474 906.31765 394.83596 917.12951 397.375 899.1875 C 398.1991 888.5985 398.0838 893.61125 397.875 884.15625 C 396.0442 855.18425 394.1144 826.21475 392.6875 797.21875 C 391.77592 778.55284 391.0103 759.89345 390.34375 741.21875 C 393.12163 742.36183 395.89675 743.53172 398.65625 744.71875 C 422.80755 755.92175 445.44005 770.02275 468.59375 783.09375 C 490.48875 795.55375 513.368 806.178 536.4375 816.25 C 545.8147 820.266 555.2799 824.0225 564.75 827.8125 C 582.28 834.5715 614.155 751.9465 596.625 745.1875 C 588.1444 742.0485 579.6614 738.853 571.3125 735.375 C 550.9837 726.718 530.82525 717.57825 511.59375 706.65625 C 485.66145 692.12025 460.3513 676.333 433.1875 664.125 C 418.34009 657.77848 403.30879 651.94811 388.0625 646.6875 C 387.9403 636.90965 387.83051 627.12304 387.78125 617.34375 C 387.77663 615.83276 387.7848 614.3235 387.78125 612.8125 C 418.60866 607.40809 449.82267 604.79909 481.09375 603.34375 C 499.40745 602.93675 517.17345 603.78925 535.09375 599.78125 C 552.41345 593.98328 526.45456 514.72652 508.5625 515.21875 C 531.4317 511.33352 476.86426 517.46725 476.25 515.90625 C 446.8432 517.78351 417.46992 520.52143 388.375 525.0625 C 388.97634 490.55852 390.09066 456.0607 392 421.59375 C 394.1723 383.18175 396.2351 344.66175 402.0625 306.59375 C 404.32103 291.91302 350.0099 280.44311 325.875 285.5 C 339.32617 255.96698 352.49722 226.29172 364.78125 196.25 C 370.02564 182.26405 318.58143 159.73094 294.125 160.03125 z M 309.5 888.875 C 309.44743 888.64372 309.39998 888.42106 309.375 888.1875 C 309.36431 890.05571 309.4002 890.2996 309.5 888.875 z M 309.375 888.1875 C 309.37828 887.61396 309.375 887.63444 309.375 886.75 C 309.30621 887.23609 309.32396 887.71027 309.375 888.1875 z M 765.25 181.1875 C 739.19463 181.3784 705.44119 189.89875 706.84375 201.53125 C 712.16585 242.74725 712.2623 284.41625 712.6875 325.90625 C 712.5449 386.93225 713.3971 447.9365 715.125 508.9375 C 716.5759 562.3985 720.6518 615.7505 722.625 669.1875 C 724.3199 706.7125 721.7646 744.16925 717.3125 781.40625 C 714.3336 805.59725 708.20295 829.2085 701.40625 852.5625 C 697.72405 865.2415 693.0058 877.517 687.5 889.5 C 679.8577 906.533 760.1702 942.56525 767.8125 925.53125 C 774.8035 909.69725 781.10375 893.58125 785.84375 876.90625 C 793.88815 848.83325 800.9715 820.43475 804.1875 791.34375 C 808.7754 749.64775 811.26715 707.74125 809.21875 665.78125 C 807.00735 612.63425 802.76255 559.58225 801.15625 506.40625 C 799.30605 446.05325 798.42135 385.6955 798.90625 325.3125 C 798.73645 280.5025 798.64455 235.6035 794.59375 190.9375 C 793.75225 183.958 780.88322 181.07296 765.25 181.1875 z M 588.8125 386.34375 C 581.81717 386.55119 576.82999 388.34006 575.59375 392.25 C 563.90855 433.561 560.7563 476.46025 559.25 519.15625 C 558.1545 558.80125 562.40485 598.22725 568.78125 637.28125 C 571.97115 655.63625 658.5025 640.605 655.3125 622.25 C 649.1711 589.235 645.0775 555.81725 645.9375 522.15625 C 647.1164 487.41625 649.25155 452.233 659.84375 418.875 C 664.25891 404.91094 613.79582 385.60288 588.8125 386.34375 z "
     id="path9672" />
</svg>
