<?xml version="1.0" encoding="UTF-8" standalone="no"?>
<svg
   xmlns:dc="http://purl.org/dc/elements/1.1/"
   xmlns:cc="http://creativecommons.org/ns#"
   xmlns:rdf="http://www.w3.org/1999/02/22-rdf-syntax-ns#"
   xmlns:svg="http://www.w3.org/2000/svg"
   xmlns="http://www.w3.org/2000/svg"
   xmlns:sodipodi="http://sodipodi.sourceforge.net/DTD/sodipodi-0.dtd"
   xmlns:inkscape="http://www.inkscape.org/namespaces/inkscape"
   width="1024"
   height="1024"
   id="U524D"
   version="1.1"
   inkscape:version="0.48.0 r9654"
   sodipodi:docname="U+524D.svg">
  <metadata
     id="metadata16">
    <rdf:RDF>
      <cc:Work
         rdf:about="">
        <dc:format>image/svg+xml</dc:format>
        <dc:type
           rdf:resource="http://purl.org/dc/dcmitype/StillImage" />
      </cc:Work>
    </rdf:RDF>
  </metadata>
  <defs
     id="defs14" />
  <sodipodi:namedview
     pagecolor="#ffffff"
     bordercolor="#666666"
     borderopacity="1"
     objecttolerance="10"
     gridtolerance="10"
     guidetolerance="10"
     inkscape:pageopacity="0"
     inkscape:pageshadow="2"
     inkscape:window-width="640"
     inkscape:window-height="480"
     id="namedview12"
     showgrid="false"
     inkscape:zoom="0.27441406"
     inkscape:cx="512"
     inkscape:cy="512"
     inkscape:window-x="0"
     inkscape:window-y="25"
     inkscape:window-maximized="0"
     inkscape:current-layer="U524D" />
  <path
     style="fill:#c83737;fill-opacity:1;fill-rule:nonzero;stroke:#f9f9f9;stroke-width:0.1;stroke-miterlimit:4;stroke-dasharray:none"
     d="M 618.09375 143.71875 C 616.88503 143.81971 615.77934 144.23144 614.84375 144.9375 C 585.18185 169.1885 557.4951 195.6795 529.75 222.0625 C 506.4247 244.4945 518.1005 233.28025 494.75 255.65625 C 487.59844 262.50073 501.69033 283.81017 518.28125 300.03125 C 452.128 310.82893 386.29839 323.39233 320.40625 335.625 C 331.07856 321.26041 337.68161 306.6656 331.78125 301.59375 C 314.90275 287.82075 301.18625 271.34825 291.53125 251.65625 C 281.27355 229.75625 271.10905 206.7305 270.09375 182.1875 C 271.82545 163.4865 183.6691 155.33025 181.9375 174.03125 C 181.1251 214.36225 195.9984 252.1465 212.5 288.1875 C 223.04313 310.5186 237.15643 330.142 253.71875 347.8125 C 253.35463 347.87755 252.98913 347.93501 252.625 348 C 199.4903 357.014 146.08665 364.7315 93.40625 376.1875 C 75.29285 380.9605 97.79295 466.3355 115.90625 461.5625 C 165.74005 448.7625 216.7814 441.1115 267.375 431.9375 C 355.6087 415.2125 443.6069 397.3955 532.3125 383.3125 C 593.2986 373.7885 655.00255 369.50975 716.46875 375.96875 C 722.63503 372.40439 755.56842 387.91482 748.40625 384.25 C 766.15276 387.98278 818.62749 329.88329 805.6875 317.875 C 778.8529 297.368 757.7072 293.20625 724.3125 289.53125 C 677.02057 285.79726 629.69633 286.80088 582.625 291.46875 C 584.98538 289.21303 584.87888 289.29961 589.3125 285.0625 C 614.8305 261.0705 640.2096 236.732 668.125 215.5 C 682.15891 204.90906 636.22452 142.2044 618.09375 143.71875 z M 713.125 387.75 C 692.45051 387.92447 672.91003 392.22953 672.75 401.03125 C 673.9243 442.33125 675.0223 483.65675 675.75 524.96875 C 677.402 592.42675 674.9232 659.833 670.375 727.125 C 666.1628 780.494 662.0672 833.877 659.9375 887.375 C 659.0585 900.792 659.9844 914.2685 659.25 927.6875 C 658.8743 934.5505 658.8937 933.6205 658.25 930.8125 C 653.344 948.9185 738.68785 972.0435 743.59375 953.9375 C 748.05925 932.7345 747.5794 911.6835 747 890.0625 C 748.1485 837.5375 751.7862 785.13 755.75 732.75 C 760.2434 663.231 762.7934 593.6175 761.75 523.9375 C 761.5039 483.5115 760.79335 443.07925 761.28125 402.65625 C 761.46257 392.68097 736.55609 387.55227 713.125 387.75 z M 365.0625 448.125 C 334.08199 448.18644 303.34689 452.43975 273.125 459.59375 C 239.21825 468.47518 205.23076 479.21445 177.46875 501.3125 C 156.51411 502.33787 136.65334 507.5835 136.90625 516.5 C 140.00735 560.64 145.4429 604.56275 149.75 648.59375 C 154.746 705.96075 157.10775 763.5265 159.15625 821.0625 C 160.43345 852.9915 160.2597 884.984 164 916.75 C 166.6384 935.239 253.79475 922.8005 251.15625 904.3125 C 249.32507 894.44081 248.32889 884.47869 247.71875 874.46875 C 279.73162 870.27929 311.76943 866.31569 343.84375 862.625 C 355.22077 861.31692 366.62822 860.16506 378.03125 859.125 C 377.62515 869.61971 377.26838 886.68862 372.46875 889.5625 C 365.14635 906.7745 446.3026 941.30675 453.625 924.09375 C 461.9295 901.40775 465.8412 878.39375 465.375 854.09375 C 466.441 799.77375 466.34825 745.42175 466.28125 691.09375 C 466.01625 637.96175 466.9404 584.42625 458.6875 531.78125 C 447.3765 483.74625 430.7945 455.196 378.375 448.375 C 373.94116 448.20925 369.48829 448.11622 365.0625 448.125 z M 560.8125 514.875 C 546.93527 514.73292 535.94135 517.279 534.9375 523.65625 C 530.5807 563.43525 531.8 603.55175 532.875 643.46875 C 534.5637 690.60975 537.6009 737.759 545.8125 784.25 C 549.2891 802.478 635.2265 786.07275 631.75 767.84375 C 623.0539 726.29275 620.9122 683.7665 619.3125 641.4375 C 618.6277 606.7885 617.56835 571.8575 622.40625 537.4375 C 624.32263 525.26275 587.30539 515.14625 560.8125 514.875 z M 358.9375 535.59375 C 363.89391 535.55598 368.85041 535.703 373.8125 536.09375 C 384.7081 539.83875 370.9781 536.94275 370.875 537.09375 C 370.1485 538.15775 371.11645 539.6695 371.34375 540.9375 C 371.94365 544.2845 372.7044 547.6045 373.375 550.9375 C 380.372 597.4685 379.8406 644.7505 380.25 691.6875 C 380.35235 718.16535 380.37607 744.64834 380.15625 771.125 C 364.70416 772.63482 349.26643 774.26768 333.84375 776.0625 C 303.91732 779.53744 274.02296 783.31141 244.03125 786.1875 C 243.23937 767.85221 242.39036 749.51543 241.4375 731.1875 C 244.68017 732.38537 247.49051 732.3978 249.5625 730.84375 C 268.048 719.22375 289.61585 714.14175 310.78125 709.96875 C 321.64855 707.86975 332.6074 707.365 343.625 707.625 C 362.254 707.575 362.004 619.7625 343.375 619.8125 C 326.5867 620.0985 309.889 620.84925 293.375 624.28125 C 273.76381 628.3578 254.15506 633.20385 235.46875 640.3125 C 233.3433 616.99266 230.88672 593.68158 228.84375 570.34375 C 231.17802 570.55347 233.12321 570.06919 234.5625 568.71875 C 251.9868 555.05575 274.0217 549.45225 295.0625 544.03125 C 316.04856 539.59906 337.45973 535.75741 358.9375 535.59375 z "
     id="path10803" />
</svg>
