<?xml version="1.0" encoding="UTF-8" standalone="no"?>
<svg
   xmlns:dc="http://purl.org/dc/elements/1.1/"
   xmlns:cc="http://creativecommons.org/ns#"
   xmlns:rdf="http://www.w3.org/1999/02/22-rdf-syntax-ns#"
   xmlns:svg="http://www.w3.org/2000/svg"
   xmlns="http://www.w3.org/2000/svg"
   xmlns:sodipodi="http://sodipodi.sourceforge.net/DTD/sodipodi-0.dtd"
   xmlns:inkscape="http://www.inkscape.org/namespaces/inkscape"
   width="1024"
   height="1024"
   id="U5269"
   version="1.1"
   inkscape:version="0.48.0 r9654"
   sodipodi:docname="U+5269.svg">
  <metadata
     id="metadata19">
    <rdf:RDF>
      <cc:Work
         rdf:about="">
        <dc:format>image/svg+xml</dc:format>
        <dc:type
           rdf:resource="http://purl.org/dc/dcmitype/StillImage" />
      </cc:Work>
    </rdf:RDF>
  </metadata>
  <defs
     id="defs17" />
  <sodipodi:namedview
     pagecolor="#ffffff"
     bordercolor="#666666"
     borderopacity="1"
     objecttolerance="10"
     gridtolerance="10"
     guidetolerance="10"
     inkscape:pageopacity="0"
     inkscape:pageshadow="2"
     inkscape:window-width="640"
     inkscape:window-height="480"
     id="namedview15"
     showgrid="false"
     inkscape:zoom="0.27441406"
     inkscape:cx="512"
     inkscape:cy="512"
     inkscape:window-x="0"
     inkscape:window-y="25"
     inkscape:window-maximized="0"
     inkscape:current-layer="U5269" />
  <path
     style="fill:#2b1100;fill-opacity:1;fill-rule:nonzero;stroke:none"
     d="M 465.0625 105.09375 C 430.12863 105.12207 396.60585 115.45266 364.0625 127.71875 C 315.0746 148.44775 270.61015 177.95525 227.96875 209.40625 C 203.35415 228.79425 178.36485 248.144 158.15625 272.25 C 156.24445 275.018 154.31805 277.7945 152.40625 280.5625 C 142.21135 296.3305 216.5551 344.36175 226.75 328.59375 C 226.9077 328.16175 227.06105 327.7445 227.21875 327.3125 C 240.59365 307.6455 262.71585 294.9045 279.78125 278.9375 C 300.94993 262.99348 322.72314 247.69312 345.53125 234.1875 C 345.94584 282.69615 345.55361 331.18623 344.71875 379.6875 C 344.68225 381.06005 344.63153 382.44 344.59375 383.8125 C 288.8943 389.73258 233.18963 395.67555 177.5 401.6875 C 141.4168 405.8795 105.3022 410.3875 69.9375 418.9375 C 51.7634 423.6425 73.9508 509.29975 92.125 504.59375 C 123.433 495.79175 155.79075 491.7975 187.96875 487.6875 C 239.11188 481.49951 290.30625 475.74524 341.53125 470.28125 C 339.33773 523.56097 336.78407 576.83452 334.84375 630.125 C 332.45465 693.361 332.56115 756.64025 336.84375 819.78125 C 338.83915 844.23725 341.32175 868.63975 343.34375 893.09375 C 345.28295 911.77475 433.34535 902.64975 431.40625 883.96875 C 428.38065 860.44375 425.8374 836.832 423.3125 813.25 C 418.2802 753.304 417.77105 693.14825 419.65625 633.03125 C 421.48771 576.01565 424.19352 519.01819 426.6875 462.03125 C 460.01451 459.30477 493.38336 457.27336 526.8125 456.3125 C 547.4065 455.9925 568.0963 456.50075 588.5625 458.96875 C 588.3738 459.04175 588.1887 459.1175 588 459.1875 C 606.4361 462.9335 624.09235 376.02625 605.65625 372.28125 C 602.79555 371.81125 599.9232 371.344 597.0625 370.875 C 572.6475 368.919 548.13315 368.43775 523.65625 369.34375 C 492.44151 370.70882 461.25463 372.86798 430.125 375.5 C 431.46331 325.66988 432.19067 275.8221 433.78125 226 C 433.90936 216.58271 411.66524 211.59676 389.46875 211.34375 C 391.21799 210.56569 392.9556 209.78256 394.71875 209.03125 C 417.84615 200.29925 441.9471 191.9635 467.0625 193.4375 C 485.7369 195.3205 494.6119 107.28925 475.9375 105.40625 C 472.2927 105.17909 468.67635 105.09082 465.0625 105.09375 z M 935.5625 160.0625 C 909.0873 159.9261 871.95999 169.46181 873.6875 181.65625 C 880.1467 224.37025 880.34455 267.771 880.96875 310.875 C 881.45245 397.89 876.23035 484.79125 871.84375 571.65625 C 867.65625 649.84825 866.687 728.13625 865.0625 806.40625 C 864.1982 846.45525 863.73795 886.67075 856.84375 926.21875 C 853.12465 946.95075 843.77175 965.7425 834.28125 984.3125 C 827.69155 996.5785 830.9975 990.57975 824.375 1002.3438 C 815.2908 1018.6488 892.1659 1061.4613 901.25 1045.1562 C 908.8343 1031.4192 905.0299 1038.452 912.625 1024.125 C 926.1136 997.438 938.5122 970.08725 943.25 940.28125 C 950.0082 896.41725 950.77745 852.075 950.90625 807.75 C 951.70315 730.443 951.99645 653.106 955.96875 575.875 C 960.37635 487.356 965.954 398.8425 966.5625 310.1875 C 966.4766 263.1815 966.51895 216.029 961.28125 169.25 C 960.37636 162.86278 949.43046 160.13395 935.5625 160.0625 z M 756.875 374.75 C 736.22066 374.97193 716.70209 379.33172 716.5625 388.125 C 718.2432 427.216 720.7273 466.272 722.25 505.375 C 724.0418 555.593 723.9814 605.84225 726.5625 656.03125 C 727.0441 661.67925 727.5184 667.351 728 673 C 729.8289 691.474 816.92265 682.849 815.09375 664.375 L 813.53125 650.78125 C 810.04225 601.39525 810.02585 551.87825 808.59375 502.40625 C 807.46315 464.78525 805.3654 427.16225 805 389.53125 C 805.15821 379.565 780.28325 374.49848 756.875 374.75 z M 463.15625 471.5625 C 449.29701 471.76851 438.37368 474.57603 437.53125 480.96875 C 433.91945 513.05575 430.99845 545.241 427.84375 577.375 C 424.10725 613.758 419.4933 650.053 422.3125 686.625 C 429.2843 729.013 451.29435 750.98725 491.09375 764.03125 C 524.16035 770.93325 557.7514 765.1665 590.6875 760.4375 C 618.6636 756.6525 646.4278 751.49025 674.1875 746.40625 C 688.9686 744.16825 703.50215 741.358 717.34375 735.625 C 734.11603 727.81328 698.30178 650.09943 680.8125 654.75 C 678.88177 655.24287 658.17339 661.24985 657.6875 660 C 631.3491 665.226 604.96865 670.27175 578.34375 673.84375 C 557.40165 676.80275 536.25265 680.412 515.03125 679.25 C 511.38115 679.985 513.31755 688.19625 509.65625 678.15625 C 508.29291 668.36284 508.12995 658.50855 508.59375 648.65625 C 517.94799 656.20561 526.58964 660.11041 531.03125 656.3125 C 533.38655 654.2055 535.73835 652.107 538.09375 650 C 555.32385 632.664 571.74355 614.45225 590.46875 598.65625 C 608.29205 583.14325 626.1621 567.6025 645.5625 554.0625 C 660.8668 543.1795 609.5543 471.0545 594.25 481.9375 C 572.9901 497.9165 552.7908 515.216 532.8125 532.75 C 527.95725 536.85458 523.25265 541.09352 518.625 545.4375 C 520.47016 527.75947 522.5107 510.10071 525.1875 492.53125 C 526.79577 480.32762 489.61479 471.16921 463.15625 471.5625 z M 246.625 488.03125 C 227.5629 488.06968 210.42481 491.80694 210 500 C 209.35773 516.78299 208.44884 533.54908 207.40625 550.3125 C 199.85943 550.35335 201.41802 550.32627 189.125 550.6875 C 164.5656 551.0865 139.88165 551.06725 115.53125 547.40625 C 96.95755 544.77325 84.51995 632.33575 103.09375 634.96875 C 131.96845 638.20375 161.0419 638.58025 190.0625 638.40625 C 197.73819 638.3087 199.75242 638.24863 201.5 638.25 C 201.18613 642.84388 200.87743 647.43736 200.5625 652.03125 C 174.28361 659.53769 147.98141 666.97022 121.4375 673.5 C 95.1537 680.079 68.93625 687.1255 42.28125 692.0625 C 23.76375 695.2075 38.6075 782.519 57.125 779.375 C 85.8514 773.059 114.27335 765.43575 142.78125 758.21875 C 160.67637 753.74288 178.4919 749.0096 196.3125 744.25 C 196.47653 750.56657 196.74894 756.86899 196.8125 763.1875 C 197.5295 781.9835 286.12325 778.6085 285.40625 759.8125 C 284.87335 750.9255 284.1209 742.06425 284 733.15625 C 284.1427 695.60925 287.09125 658.1405 289.46875 620.6875 C 292.23865 581.9715 295.19375 543.2545 298.28125 504.5625 C 298.82744 494.02913 271.13341 487.98184 246.625 488.03125 z M 475.21875 774.46875 C 457.13626 773.48813 440.14154 857.58959 458.25 861.3125 C 484.0269 867.6565 508.0297 879.66025 532 890.78125 C 570.0469 908.22425 607.5976 926.66925 644.4375 946.53125 C 664.4645 957.39425 684.01005 969.17375 702.15625 982.96875 C 717.24345 993.98575 769.18095 922.86075 754.09375 911.84375 C 732.20605 896.32575 709.2187 882.46025 685.5 869.90625 C 647.1867 849.49225 608.2835 830.25425 568.9375 811.90625 C 538.7858 797.66025 508.5199 782.87375 476.0625 774.59375 C 475.77506 774.53466 475.50577 774.48432 475.21875 774.46875 z M 302.21875 782.625 C 301.34001 782.59356 300.46689 782.75166 299.65625 783.09375 C 270.29875 795.86275 242.30275 811.254 214.90625 827.75 C 180.54345 848.61 149.1367 873.64875 119.75 900.96875 C 104.3431 915.94875 89.10105 931.343 77.84375 949.75 C 76.04385 958.181 74.2374 966.6305 72.4375 975.0625 C 73.408842 992.68925 151.20795 989.53326 160.375 973.625 L 155.75 992.1875 C 158.57982 988.61802 171.21712 973.4452 171.3125 973.34375 C 174.0815 970.39375 176.9315 967.527 179.75 964.625 C 204.1862 941.172 230.673 919.96075 259.75 902.46875 C 283.6501 888.18975 308.0702 874.768 334.0625 864.625 C 350.54546 857.66909 320.08653 783.26427 302.21875 782.625 z M 155.75 992.1875 C 155.48005 992.52801 155.1311 992.96071 155.0625 993.0625 C 155.13922 992.99233 155.33173 992.80789 155.6875 992.40625 L 155.75 992.1875 z "
     id="path16291" />
</svg>
