<?xml version="1.0" encoding="utf-8" ?>

<!DOCTYPE svg PUBLIC "-//W3C//DTD SVG 1.1//EN" 
  "http://www.w3.org/Graphics/SVG/1.1/DTD/svg11.dtd">
<svg 
    xmlns="http://www.w3.org/2000/svg"
    xmlns:xlink="http://www.w3.org/1999/xlink"
    xmlns:sodipodi="http://sodipodi.sourceforge.net/DTD/sodipodi-0.dtd"
    xmlns:inkscape="http://www.inkscape.org/namespaces/inkscape"
    width="1024" height="1024" id="U522E">
<path d="m 10621.415,15621.159 c -23.113,19.764 -43.192,42.807 -63.89,65.017 -29.768,31.609 -58.737,63.952 -87.547,96.431 -4.046,4.604 -8.092,9.208 -12.138,13.813 -12.148,13.708 -76.769,-43.556 -64.622,-57.265 l 0,0 c 4.158,-4.653 8.315,-9.306 12.473,-13.959 29.37,-32.668 58.743,-65.335 88.671,-97.494 23.193,-25.221 45.753,-51.177 71.241,-74.146 14.341,-11.839 70.152,55.763 55.812,67.603 z" id="path23975" inkscape:connector-curvature="0" style="fill:#550000;fill-opacity:1;fill-rule:nonzero;stroke:#f9f9f9;stroke-width:0.1;stroke-miterlimit:4;stroke-dasharray:none" transform="translate(-10240, -15360)"/><path d="m 10342.37,15829.526 c 35.189,-7.813 70.998,-12.138 106.745,-16.431 45.755,-5.419 91.612,-9.868 137.543,-13.468 28.703,-2.354 57.491,-2.988 86.276,-2.743 8.145,0.08 16.251,0.788 24.3,1.991 18.373,3.328 2.682,89.939 -15.691,86.611 l 0,0 c -2.294,-0.63 -7.476,-1.244 -10.386,-1.238 -26.03,-0.872 -52.082,-0.695 -78.069,1.244 -44.595,3.177 -89.1,7.438 -133.466,12.982 -32.394,4.087 -64.983,7.898 -96.641,16.152 -18.053,4.373 -38.663,-80.728 -20.611,-85.1 z" id="path23977" inkscape:connector-curvature="0" style="fill:#550000;fill-opacity:1;fill-rule:nonzero;stroke:#f9f9f9;stroke-width:0.1;stroke-miterlimit:4;stroke-dasharray:none" transform="translate(-10240, -15360)"/><path d="m 10591.08,15668.124 c -8.092,37.862 -11.037,76.593 -14.179,115.108 -4.114,50.26 -5.759,100.652 -4.722,151.06 0.373,14.127 1.256,28.227 2.341,42.314 1.122,18.434 -85.777,23.724 -86.899,5.29 l 0,0 c -0.722,-15.479 -1.321,-30.963 -1.516,-46.46 -0.348,-53.007 1.58,-105.977 5.551,-158.842 3.142,-42.289 6.368,-84.665 13.781,-126.467 3.818,-18.167 89.46,-0.17 85.643,17.997 z" id="path23979" inkscape:connector-curvature="0" style="fill:#550000;fill-opacity:1;fill-rule:nonzero;stroke:#f9f9f9;stroke-width:0.1;stroke-miterlimit:4;stroke-dasharray:none" transform="translate(-10240, -15360)"/><path d="m 10473.184,16025.253 c 0.831,25.875 4.386,51.56 8.688,77.056 3.324,14.571 5.219,29.876 11.174,43.703 6.382,17.431 -75.791,47.515 -82.172,30.083 l 0,0 c -6.632,-19.385 -11.05,-39.402 -14.588,-59.574 -4.73,-28.898 -8.503,-57.947 -10.585,-87.167 -0.87,-18.558 86.613,-22.659 87.483,-4.101 z" id="path23981" inkscape:connector-curvature="0" style="fill:#550000;fill-opacity:1;fill-rule:nonzero;stroke:#f9f9f9;stroke-width:0.1;stroke-miterlimit:4;stroke-dasharray:none" transform="translate(-10240, -15360)"/><path d="m 10456.563,15964.94 c 32.828,-10.823 67.191,-15.515 101.414,-19.32 32.516,-3.578 65.138,-3.462 97.457,1.483 31.718,5.782 52.385,18.89 70.26,45.656 12.845,24.701 13.996,51.961 12.394,79.141 -1.987,27.863 -11.444,53.475 -25.34,77.42 -9.52,15.857 -84.274,-29.022 -74.754,-44.88 l 0,0 c 7.517,-11.529 11.757,-24.451 13.074,-38.184 0.719,-9.54 0.832,-19.209 -0.481,-28.632 9.129,3.473 -7.082,-6.33 -9.262,-4.595 -24.417,-4.464 -49.261,-3.817 -73.907,-1.471 -26.861,2.909 -54.029,6.212 -79.645,15.221 -17.361,6.621 -48.571,-75.218 -31.21,-81.839 z" id="path23983" inkscape:connector-curvature="0" style="fill:#550000;fill-opacity:1;fill-rule:nonzero;stroke:#f9f9f9;stroke-width:0.1;stroke-miterlimit:4;stroke-dasharray:none" transform="translate(-10240, -15360)"/><path d="m 10473.724,16141.142 c 40.322,-5.117 80.765,-9.178 121.199,-13.27 36.392,-3.65 72.712,-8.024 109.21,-10.501 3.445,-0.187 6.89,-0.374 10.335,-0.56 18.491,-0.788 22.206,86.379 3.715,87.167 l 0,0 c -3.017,0.09 -6.034,0.178 -9.051,0.267 -35.28,1.608 -70.386,5.499 -105.515,8.999 -38.844,3.98 -77.76,7.801 -116.28,14.311 -18.331,2.888 -31.944,-83.525 -13.613,-86.413 z" id="path23985" inkscape:connector-curvature="0" style="fill:#550000;fill-opacity:1;fill-rule:nonzero;stroke:#f9f9f9;stroke-width:0.1;stroke-miterlimit:4;stroke-dasharray:none" transform="translate(-10240, -15360)"/><path d="m 10849.349,15778.268 c -3.495,34.196 -2.892,68.666 -2.662,102.993 0.315,29.136 0.725,58.338 5.062,87.193 2.432,18.245 -83.575,29.709 -86.007,11.464 l 0,0 c -3.938,-32.522 -4.958,-65.238 -5.089,-97.987 -0.333,-37.563 -0.843,-75.184 1.623,-112.693 1.915,-18.471 88.988,-9.441 87.073,9.03 z" id="path23987" inkscape:connector-curvature="0" style="fill:#550000;fill-opacity:1;fill-rule:nonzero;stroke:#f9f9f9;stroke-width:0.1;stroke-miterlimit:4;stroke-dasharray:none" transform="translate(-10240, -15360)"/><path d="m 11020.617,15623.912 c 4.894,43.859 7.357,87.866 8.576,131.964 0.93,70.927 -3.384,141.777 -6.505,212.604 -2.799,55.017 -2.802,110.097 -1.979,165.159 0.62,36.685 1.914,73.365 0.03,110.027 -0.466,19.701 -6.279,37.292 -15.019,54.661 -9.168,16.137 -85.239,-27.085 -76.07,-43.222 l 0,0 c 2.12,-1.765 4.547,-11.515 4.389,-16.584 2.392,-34.591 0.99,-69.265 0.832,-103.908 -0.445,-56.694 0.05,-113.395 3.199,-170.02 3.279,-68.604 7.452,-137.266 5.981,-205.98 -1.546,-41.797 -4.092,-83.575 -10.432,-124.962 -2.066,-18.456 84.936,-28.195 87.001,-9.739 z" id="path23989" inkscape:connector-curvature="0" style="fill:#550000;fill-opacity:1;fill-rule:nonzero;stroke:#f9f9f9;stroke-width:0.1;stroke-miterlimit:4;stroke-dasharray:none" transform="translate(-10240, -15360)"/></svg>