<?xml version="1.0" encoding="UTF-8" standalone="no"?>
<svg
   xmlns:dc="http://purl.org/dc/elements/1.1/"
   xmlns:cc="http://creativecommons.org/ns#"
   xmlns:rdf="http://www.w3.org/1999/02/22-rdf-syntax-ns#"
   xmlns:svg="http://www.w3.org/2000/svg"
   xmlns="http://www.w3.org/2000/svg"
   xmlns:sodipodi="http://sodipodi.sourceforge.net/DTD/sodipodi-0.dtd"
   xmlns:inkscape="http://www.inkscape.org/namespaces/inkscape"
   width="1024"
   height="1024"
   id="U52A8"
   version="1.1"
   inkscape:version="0.48.0 r9654"
   sodipodi:docname="U+52A8.svg">
  <metadata
     id="metadata13">
    <rdf:RDF>
      <cc:Work
         rdf:about="">
        <dc:format>image/svg+xml</dc:format>
        <dc:type
           rdf:resource="http://purl.org/dc/dcmitype/StillImage" />
      </cc:Work>
    </rdf:RDF>
  </metadata>
  <defs
     id="defs11" />
  <sodipodi:namedview
     pagecolor="#ffffff"
     bordercolor="#666666"
     borderopacity="1"
     objecttolerance="10"
     gridtolerance="10"
     guidetolerance="10"
     inkscape:pageopacity="0"
     inkscape:pageshadow="2"
     inkscape:window-width="640"
     inkscape:window-height="480"
     id="namedview9"
     showgrid="false"
     inkscape:zoom="0.27441406"
     inkscape:cx="512"
     inkscape:cy="512"
     inkscape:window-x="0"
     inkscape:window-y="25"
     inkscape:window-maximized="0"
     inkscape:current-layer="U52A8" />
  <path
     style="fill:#550000;fill-opacity:1;fill-rule:nonzero;stroke:#f9f9f9;stroke-width:0.1;stroke-miterlimit:4;stroke-dasharray:none"
     d="M 720.4375 162.75 C 713.50283 162.6789 708.4724 164.23984 707.09375 168.0625 C 688.91125 226.5455 675.5608 286.40825 661.75 346.03125 C 656.1564 370.4442 650.60509 394.85688 645.0625 419.28125 C 623.0525 420.36835 601.09243 423.00944 579.1875 427.21875 C 538.7425 434.34475 498.54895 442.702 458.28125 450.75 C 440.17085 454.803 459.2646 540.178 477.375 536.125 C 516.0559 526.748 555.0183 518.6055 594.1875 511.5625 C 604.50966 509.5937 614.8622 507.99572 625.21875 506.8125 C 612.91709 561.12644 600.58688 615.43809 588 669.6875 C 578.71179 710.50236 568.61225 751.107 557.71875 791.5 C 553.86136 786.35724 555.08828 787.95936 547.9375 776.4375 C 535.0374 752.8695 523.84225 728.31075 517.46875 702.09375 C 512.76955 684.12575 428.0509 706.283 432.75 724.25 C 436.91134 738.95577 442.01533 753.31039 447.8125 767.375 C 399.12022 775.35121 350.93217 786.13521 303.3125 799.125 C 268.58932 808.63316 234.10879 819.26549 199.0625 827.53125 C 212.4648 791.6468 228.72511 756.87137 244.46875 721.96875 C 258.6543 692.76346 273.19411 663.6299 290.34375 636.03125 C 328.0068 630.99678 365.75516 626.6198 403.625 623.375 C 432.4548 621.752 418.66455 622.23425 444.90625 621.78125 C 463.17895 621.26125 460.74145 535.106 442.46875 535.625 C 412.42795 536.769 427.98 535.92975 395.875 538.21875 C 333.0143 544.26575 270.4274 552.8725 207.9375 561.9375 C 163.6933 568.1695 119.20865 575.73 74.40625 575.375 C 55.89015 574.089 49.82765 661.37025 68.34375 662.65625 C 106.96696 662.31596 145.30512 657.20889 183.5 651.53125 C 178.0056 662.54177 172.63847 673.62702 167.3125 684.71875 C 148.108 726.97775 128.6229 769.174 112.5625 812.75 C 99.6565 850.531 101.80195 894.18775 143.59375 913.09375 C 151.80915 916.81075 161.2886 916.705 170.125 918.5 C 223.6166 915.192 274.6658 895.4915 326 881.1875 C 374.9064 867.7455 424.50455 857.09325 474.78125 850.40625 C 488.66556 848.98121 487.56592 848.96752 492.59375 848.625 C 502.12897 854.66914 532.38023 837.17697 549.84375 820.15625 C 542.24403 847.28609 534.27193 874.33481 525.90625 901.25 C 517.78355 926.614 521.63775 914.62 514.34375 937.125 C 508.93675 954.667 591.6554 980.167 597.0625 962.625 C 603.8017 939.593 600.1915 951.91275 607.875 925.71875 C 630.4085 847.16775 650.5489 767.97775 668.375 688.21875 C 682.23749 627.71731 695.94212 567.17326 709.875 506.6875 C 714.64982 507.24236 719.44754 507.86739 724.21875 508.625 C 751.07725 513.454 773.0598 524.8335 788.25 547.5625 C 803.9002 578.4695 801.7794 613.9585 800.4375 647.5625 C 797.0857 691.0565 790.6066 734.453 777.9375 776.25 C 776.426 779.729 774.91785 783.2085 773.40625 786.6875 C 766.62965 803.7745 847.19205 835.713 853.96875 818.625 C 856.27095 812.488 858.5729 806.35675 860.875 800.21875 C 874.4397 751.50275 882.4275 701.41575 886 650.96875 C 888.1462 597.18875 887.60755 542.72025 857.46875 495.78125 C 852.37685 489.29325 847.7879 482.3675 842.1875 476.3125 C 814.433 446.3055 776.24585 430.96825 736.84375 423.53125 C 734.38764 423.18558 731.92531 422.87138 729.46875 422.5625 C 733.95945 403.49806 738.47741 384.41731 743.0625 365.375 C 756.8392 309.098 769.90235 252.39925 789.46875 197.78125 C 794.3925 184.12969 745.20419 163.00395 720.4375 162.75 z M 396.96875 326.90625 C 396.68943 326.89485 396.40874 326.9068 396.125 326.9375 C 353.2698 331.9345 310.7169 338.89375 268.0625 345.34375 C 231.4386 350.57175 194.5902 356.6175 157.5 356.4375 C 138.922 355.6015 134.95335 443.19425 153.53125 444.03125 C 196.14445 443.23425 238.3758 436.21325 280.4375 429.90625 C 322.0006 423.40625 363.53105 416.7055 405.40625 412.5625 C 423.28152 410.6282 414.56603 327.62455 396.96875 326.90625 z M 192.15625 850.78125 C 192.45303 852.0915 192.68304 853.44374 192.8125 854.9375 C 192.9155 856.1255 192.1531 859.204 191.4375 858.25 C 190.00901 856.3444 190.9409 853.56149 192.15625 850.78125 z "
     id="path22389" />
</svg>
