<?xml version="1.0" encoding="UTF-8" standalone="no"?>
<svg
   xmlns:dc="http://purl.org/dc/elements/1.1/"
   xmlns:cc="http://creativecommons.org/ns#"
   xmlns:rdf="http://www.w3.org/1999/02/22-rdf-syntax-ns#"
   xmlns:svg="http://www.w3.org/2000/svg"
   xmlns="http://www.w3.org/2000/svg"
   xmlns:sodipodi="http://sodipodi.sourceforge.net/DTD/sodipodi-0.dtd"
   xmlns:inkscape="http://www.inkscape.org/namespaces/inkscape"
   width="1024"
   height="1024"
   id="U5207"
   version="1.1"
   inkscape:version="0.48.0 r9654"
   sodipodi:docname="U+5207.svg">
  <metadata
     id="metadata11">
    <rdf:RDF>
      <cc:Work
         rdf:about="">
        <dc:format>image/svg+xml</dc:format>
        <dc:type
           rdf:resource="http://purl.org/dc/dcmitype/StillImage" />
      </cc:Work>
    </rdf:RDF>
  </metadata>
  <defs
     id="defs9" />
  <sodipodi:namedview
     pagecolor="#ffffff"
     bordercolor="#666666"
     borderopacity="1"
     objecttolerance="10"
     gridtolerance="10"
     guidetolerance="10"
     inkscape:pageopacity="0"
     inkscape:pageshadow="2"
     inkscape:window-width="640"
     inkscape:window-height="480"
     id="namedview7"
     showgrid="false"
     inkscape:zoom="0.27441406"
     inkscape:cx="512"
     inkscape:cy="512"
     inkscape:window-x="0"
     inkscape:window-y="25"
     inkscape:window-maximized="0"
     inkscape:current-layer="U5207" />
  <path
     style="fill:#c83737;fill-opacity:1;fill-rule:nonzero;stroke:#f9f9f9;stroke-width:0.1;stroke-miterlimit:4;stroke-dasharray:none"
     d="M 696.96875 307.21875 C 644.74326 307.45267 592.56116 309.92094 540.59375 315.3125 C 499.36945 319.9155 458.3493 325.81425 417.5625 333.40625 C 399.1088 336.73625 414.7963 423.73625 433.25 420.40625 C 471.8856 411.53225 511.06845 405.72575 550.40625 401.09375 C 583.22929 397.53205 616.17842 395.3716 649.15625 394.375 C 630.33765 432.75725 613.18256 471.94186 595.96875 511.0625 C 560.67985 592.0425 525.57085 673.11475 490.28125 754.09375 C 467.98505 805.07775 446.22435 856.2665 423.21875 906.9375 C 416.59205 921.4135 419.68685 914.7355 413.96875 927.0625 C 406.43535 944.1745 487.0916 979.6745 494.625 962.5625 C 499.8978 949.9245 497.0218 956.788 503.25 942 C 524.9628 890.612 546.05705 838.9655 568.03125 787.6875 C 602.69565 706.8385 637.63285 626.10425 673.78125 545.90625 C 693.72735 502.13625 713.40385 458.0985 737.09375 416.1875 C 740.10279 410.71204 733.49268 402.31735 723.03125 394.1875 C 751.15248 395.343 779.09658 398.71154 806.65625 404.5 C 811.22555 406.637 841.09385 410.3465 840.28125 419.0625 C 838.70995 419.9645 838.933 419.45825 839 422.15625 C 839.5368 443.77225 838.3208 464.39275 836 485.96875 C 828.3389 546.28375 813.92635 605.42575 796.53125 663.59375 C 790.12015 677.65275 780.37845 724.62225 765.84375 732.65625 C 753.61115 746.74925 820.04865 804.4055 832.28125 790.3125 C 855.91935 760.0705 868.65155 724.61575 879.03125 687.84375 C 897.28085 624.75475 912.86675 560.79525 921.84375 495.65625 C 927.36275 448.69025 934.5658 398.5995 904.125 358.3125 C 880.6495 335.8905 855.92545 324.44375 823.96875 318.59375 C 785.56075 311.12775 746.5995 307.21875 707.4375 307.21875 C 703.95565 307.21481 700.45045 307.20316 696.96875 307.21875 z M 241.5625 378.125 C 218.16312 378.58145 193.44682 384.42044 193.90625 394.375 C 196.11009 422.41294 197.20856 450.51279 197.71875 478.625 C 169.20418 480.73733 140.72274 483.20765 112.4375 487.375 C 94.0527 491.052 111.3652 577.7395 129.75 574.0625 C 152.07476 569.99319 174.66021 567.53044 197.28125 565.59375 C 196.11237 603.71483 193.97872 641.82816 191.84375 679.90625 C 190.46725 708.39025 186.5347 736.68575 191.1875 764.96875 C 194.2734 771.40675 195.60135 779.05825 200.46875 784.28125 C 235.19035 821.53625 268.8061 801.48875 302.125 778.71875 C 333.8877 755.64875 366.76475 734.216 400.09375 713.5 C 405.98685 709.879 411.88815 706.27725 417.78125 702.65625 C 433.48135 692.98225 387.8877 618.951 372.1875 628.625 C 366.1998 632.325 360.20645 636.01875 354.21875 639.71875 C 328.66956 655.6209 303.34558 671.88546 278.40625 688.71875 C 278.46924 687.22943 278.53133 685.73941 278.59375 684.25 C 280.43497 642.53276 282.48056 600.8078 283.5625 559.0625 C 313.54826 556.72521 343.51425 554.14662 373.5 551.8125 C 392.0096 550.1485 384.16585 462.8985 365.65625 464.5625 C 338.47007 467.33122 311.26079 469.96752 284.03125 472.25 C 283.7347 444.92542 283.14092 417.59887 282.25 390.28125 C 281.84462 381.49828 262.20901 377.72225 241.5625 378.125 z M 276.625 742.84375 C 276.92117 743.77802 277.18014 744.66613 277.53125 745.71875 C 276.64603 748.46254 276.7265 748.55259 276.625 742.84375 z "
     id="path11073" />
</svg>
