<?xml version="1.0" encoding="UTF-8" standalone="no"?>
<svg
   xmlns:dc="http://purl.org/dc/elements/1.1/"
   xmlns:cc="http://creativecommons.org/ns#"
   xmlns:rdf="http://www.w3.org/1999/02/22-rdf-syntax-ns#"
   xmlns:svg="http://www.w3.org/2000/svg"
   xmlns="http://www.w3.org/2000/svg"
   xmlns:sodipodi="http://sodipodi.sourceforge.net/DTD/sodipodi-0.dtd"
   xmlns:inkscape="http://www.inkscape.org/namespaces/inkscape"
   width="1024"
   height="1024"
   id="U53D1"
   version="1.1"
   inkscape:version="0.48.0 r9654"
   sodipodi:docname="U+53D1.svg">
  <metadata
     id="metadata12">
    <rdf:RDF>
      <cc:Work
         rdf:about="">
        <dc:format>image/svg+xml</dc:format>
        <dc:type
           rdf:resource="http://purl.org/dc/dcmitype/StillImage" />
      </cc:Work>
    </rdf:RDF>
  </metadata>
  <defs
     id="defs10" />
  <sodipodi:namedview
     pagecolor="#ffffff"
     bordercolor="#666666"
     borderopacity="1"
     objecttolerance="10"
     gridtolerance="10"
     guidetolerance="10"
     inkscape:pageopacity="0"
     inkscape:pageshadow="2"
     inkscape:window-width="640"
     inkscape:window-height="480"
     id="namedview8"
     showgrid="false"
     inkscape:zoom="0.27441406"
     inkscape:cx="512"
     inkscape:cy="512"
     inkscape:window-x="0"
     inkscape:window-y="25"
     inkscape:window-maximized="0"
     inkscape:current-layer="U53D1" />
  <path
     style="fill:#550000;fill-opacity:1;fill-rule:nonzero;stroke:#f9f9f9;stroke-width:0.1;stroke-miterlimit:4;stroke-dasharray:none"
     d="M 473.28125 208.65625 C 469.76264 208.69359 467.08883 209.71366 465.71875 211.9375 C 441.81965 253.6365 420.723 296.818 399.9375 340.125 C 384.274 373.71349 368.86325 407.42257 353.65625 441.21875 C 333.54442 443.56643 313.41609 445.95671 293.3125 448.375 C 300.5553 431.89833 309.12141 415.8614 315.8125 399.53125 C 332.4848 366.51325 349.5917 333.3865 372.1875 303.9375 C 383.6572 289.3515 314.87595 235.25775 303.40625 249.84375 C 278.37975 284.64675 258.46695 322.685 239.21875 360.875 C 222.72045 395.823 205.34695 430.71675 195.46875 468.21875 C 189.11155 535.23375 232.7714 542.2175 285.375 536.6875 C 294.59481 535.426 303.80522 534.17957 313.03125 532.96875 C 309.04476 542.13222 305.07691 551.32142 301.125 560.5 C 276.782 617.596 254.0299 675.34425 232.4375 733.53125 C 225.5605 752.90225 217.6921 771.97125 212.5625 791.90625 C 208.5644 810.08525 294.28305 828.93 298.28125 810.75 C 298.68775 794.275 310.87645 778.75075 313.34375 762.71875 C 324.43771 731.01917 336.07563 699.51528 348.25 668.21875 C 351.07409 672.73612 354.00872 676.82988 356.9375 680.21875 C 340.22754 699.47303 325.1014 728.28654 334.28125 734.84375 C 367.48105 757.65775 403.26355 775.9915 439.65625 793.0625 C 446.42551 796.0708 453.26234 798.96239 460.09375 801.8125 C 429.89674 830.2965 398.85795 857.89296 367.125 884.65625 C 352.82405 893.17748 335.26963 914.74217 318.75 920.75 C 306.08627 933.93499 321.42538 1008.2923 338.4375 1005.0625 C 343.5443 1003.5675 348.6433 1002.0888 353.75 1000.5938 C 379.289 987.39275 401.1903 968.6695 423.0625 950.1875 C 461.296 917.1995 498.71785 883.283 535.09375 848.25 C 539.65943 843.85489 544.22068 839.46433 548.78125 835.0625 C 577.43329 844.87502 606.2775 854.12932 635.03125 863.5625 C 693.19075 882.4605 750.83655 902.8485 807.90625 924.8125 C 833.62315 934.8025 858.91425 945.81975 884.03125 957.21875 C 901.10615 964.53075 935.5748 884.062 918.5 876.75 C 891.7521 866.021 865.28205 854.59325 838.21875 844.65625 C 779.71935 822.92525 720.75645 802.51075 661.40625 783.21875 C 646.37489 778.28527 631.31803 773.40422 616.28125 768.4375 C 627.64418 756.84441 638.90076 745.12694 649.9375 733.21875 C 674.4851 706.15275 700.0937 679.181 717.875 647 C 734.7683 604.178 724.3304 573.071 678.25 559.75 C 647.1955 553.924 615.596 554.18075 584.1875 557.09375 C 535.7493 561.73375 487.4882 568.524 439.9375 579 C 419.18314 583.78667 398.37773 588.71053 377.96875 594.875 C 378.13953 594.47046 378.29777 594.06071 378.46875 593.65625 C 388.85834 569.3326 399.42505 545.09477 410.125 520.90625 C 412.42823 520.6302 414.72791 520.33781 417.03125 520.0625 C 472.10765 513.4725 527.098 506.191 582.25 500.25 C 620.0552 495.857 658.1098 494.72775 696.125 495.59375 C 707.3312 496.05375 718.5587 496.219 729.75 497 C 748.4082 497.467 750.5957 409.5295 731.9375 409.0625 C 720.3396 409.2815 708.75425 408.75 697.15625 408.75 C 655.65895 408.667 614.1713 410.31025 572.9375 415.28125 C 532.38782 419.8231 491.88207 424.9136 451.375 429.8125 C 459.53819 412.24276 467.81477 394.7222 476.1875 377.25 C 496.1937 336.761 516.27105 296.183 540.28125 257.875 C 548.65388 244.28484 494.78386 208.42804 473.28125 208.65625 z M 318.75 920.75 C 319.02396 920.46476 319.2933 920.19531 319.59375 919.96875 L 316.15625 921.5625 C 317.01977 921.33657 317.88 921.0664 318.75 920.75 z M 319.59375 919.96875 L 322.0625 918.84375 C 321.15505 919.01598 320.33456 919.41014 319.59375 919.96875 z M 667.59375 218.84375 C 649.04761 219.41653 605.23411 279.64467 618.90625 289.96875 C 646.78855 309.94275 676.6071 326.88675 706.4375 343.71875 C 712.515 347.22375 718.61 350.746 724.6875 354.25 C 740.4847 363.398 783.6097 288.92925 767.8125 279.78125 C 761.5436 276.13625 755.2688 272.48875 749 268.84375 C 722.5589 253.71475 695.8804 238.6905 671.6875 220.0625 C 670.52884 219.18758 669.16546 218.79521 667.59375 218.84375 z M 282.25 479.28125 C 282.7772 482.48653 282.30809 485.59871 280.25 488.375 C 280.80339 485.31144 281.48029 482.28875 282.25 479.28125 z M 615.59375 641.71875 C 606.05168 653.34199 595.97703 664.53941 586 675.75 C 566.89021 696.6713 547.09672 716.96604 527 736.9375 C 509.92618 730.34085 493.00196 723.37755 476.3125 715.8125 C 451.91058 704.09891 427.68533 691.82128 404.9375 677.15625 C 422.87043 671.43668 441.25606 667.06287 459.53125 662.71875 C 503.15465 652.85375 547.4734 646.6625 592 642.8125 C 599.79803 642.42699 607.69719 641.96686 615.59375 641.71875 z M 657.5625 644.625 C 658.54562 644.84314 659.52113 645.06574 660.5 645.3125 C 659.48707 645.16555 658.50701 644.9324 657.5625 644.625 z "
     id="path22661" />
</svg>
