<?xml version="1.0" encoding="UTF-8" standalone="no"?>
<svg
   xmlns:dc="http://purl.org/dc/elements/1.1/"
   xmlns:cc="http://creativecommons.org/ns#"
   xmlns:rdf="http://www.w3.org/1999/02/22-rdf-syntax-ns#"
   xmlns:svg="http://www.w3.org/2000/svg"
   xmlns="http://www.w3.org/2000/svg"
   xmlns:sodipodi="http://sodipodi.sourceforge.net/DTD/sodipodi-0.dtd"
   xmlns:inkscape="http://www.inkscape.org/namespaces/inkscape"
   width="1024"
   height="1024"
   id="U53F2"
   version="1.1"
   inkscape:version="0.48.0 r9654"
   sodipodi:docname="U+53F2.svg">
  <metadata
     id="metadata12">
    <rdf:RDF>
      <cc:Work
         rdf:about="">
        <dc:format>image/svg+xml</dc:format>
        <dc:type
           rdf:resource="http://purl.org/dc/dcmitype/StillImage" />
      </cc:Work>
    </rdf:RDF>
  </metadata>
  <defs
     id="defs10" />
  <sodipodi:namedview
     pagecolor="#ffffff"
     bordercolor="#666666"
     borderopacity="1"
     objecttolerance="10"
     gridtolerance="10"
     guidetolerance="10"
     inkscape:pageopacity="0"
     inkscape:pageshadow="2"
     inkscape:window-width="640"
     inkscape:window-height="480"
     id="namedview8"
     showgrid="false"
     inkscape:zoom="0.27441406"
     inkscape:cx="512"
     inkscape:cy="512"
     inkscape:window-x="0"
     inkscape:window-y="25"
     inkscape:window-maximized="0"
     inkscape:current-layer="U53F2" />
  <path
     style="fill:#a02c2c;fill-opacity:1;fill-rule:nonzero;stroke:#f9f9f9;stroke-width:0.1;stroke-miterlimit:4;stroke-dasharray:none"
     d="M 628.09375 114.3125 C 605.99637 114.475 583.93105 119.3125 584 128.6875 C 586.0369 179.8135 582.0588 230.87275 577.1875 281.71875 C 576.9916 283.70504 576.77217 285.67257 576.5625 287.65625 C 540.57707 289.78193 504.64827 292.9466 468.8125 297.0625 C 430.3642 301.3185 391.94865 305.88175 353.40625 309.21875 C 334.75925 311.27475 344.44675 399.181 363.09375 397.125 C 401.58235 392.164 440.11785 387.4985 478.65625 382.9375 C 506.74347 379.54052 534.89036 376.86288 563.09375 374.9375 C 552.55565 427.57571 538.11288 479.38557 521.75 530.59375 C 501.26179 534.4744 480.86539 538.7772 460.5 543.375 C 421.87126 551.64865 383.19991 561.20791 343.9375 566 C 358.92429 556.79419 370.12525 545.99537 366.625 539.15625 C 361.7207 530.31225 364.31915 535.344 359.21875 523.875 C 347.50135 494.31 338.24365 463.79275 333.78125 432.21875 C 329.88055 402.36275 326.93335 372.12625 329.96875 342.03125 C 332.31595 323.41025 244.5347 312.34775 242.1875 330.96875 C 239.3785 368.55975 242.70645 406.1725 247.53125 443.4375 C 252.84455 481.8985 263.76095 519.133 277.40625 555.375 C 284.26075 571.818 280.66585 563.86325 288.21875 579.28125 C 291.24309 585.19049 303.0835 583.9124 316.71875 579.09375 C 308.92672 602.92799 312.83566 656.28357 327.40625 656.09375 C 378.57165 651.19175 428.62165 638.281 478.71875 627.25 C 481.33298 626.65357 483.94616 626.0545 486.5625 625.46875 C 469.75604 664.07083 450.39383 701.4893 429 737.78125 C 392.35479 718.79012 355.97313 699.27661 321 677.3125 C 304.8267 667.8575 260.23285 744.1075 276.40625 753.5625 C 310.96423 773.33061 346.05186 792.0855 381.46875 810.25 C 361.03968 837.27671 338.45355 862.60091 314.3125 886.40625 C 305.183 894.72625 296.40135 903.786 285.46875 909.75 C 269.68515 919.808 317.0913 994.21425 332.875 984.15625 C 348.5731 973.61725 363.06455 961.60675 376.21875 947.96875 C 406.62004 916.90469 434.87224 883.81783 459.84375 848.25 C 498.19749 866.02798 536.89055 883.09767 575.46875 900.375 C 624.54395 921.958 672.4203 946.02375 719.25 972.09375 C 740.2486 983.64275 760.26235 996.8255 779.78125 1010.6875 C 795.27775 1021.2615 845.1215 948.198 829.625 937.625 C 807.2242 922.964 784.6674 908.5125 761 895.9375 C 711.7916 869.3575 661.6397 844.60975 610.375 822.21875 C 575.34056 806.60676 540.26506 791.05195 505.46875 774.90625 C 536.17148 721.10784 562.98978 665.2244 584.375 606.96875 C 606.45654 603.71401 628.6574 601.17323 650.96875 599.5625 C 681.09855 597.7265 711.24175 599.46425 741.21875 602.53125 C 749.65775 604.06025 757.76075 603.5705 766.28125 603.0625 C 770.88696 602.36322 773.55427 596.46509 774.65625 588.03125 C 775.35472 587.4334 775.88659 586.71585 776.25 585.875 C 784.975 564.753 781.1019 575.52025 787.875 553.65625 C 796.033 519.50925 800.99695 484.75 803.78125 449.75 C 805.74595 420.672 806.79975 391.339 801.59375 362.5 C 793.31105 326.529 777.35385 303.079 740.40625 292.375 C 714.69267 286.97157 688.5456 285.3744 662.34375 285.09375 C 667.87266 232.89336 672.17681 180.59925 672.375 128.0625 C 672.30605 118.6875 650.19113 114.15 628.09375 114.3125 z M 649.5625 372.03125 C 671.39228 372.23059 693.54368 371.95703 714.8125 376.71875 C 714.67521 377.11402 714.98397 378.31935 715.375 380.84375 C 718.7324 401.75075 717.7786 422.972 716.4375 444 C 714.63035 466.96906 711.9251 489.86879 707.4375 512.4375 C 686.35196 511.73842 665.25931 511.87569 644.1875 513.40625 C 634.02643 514.26373 623.89883 515.28119 613.78125 516.4375 C 627.95042 468.85238 640.33094 420.77742 649.5625 372.03125 z M 715.8125 376.9375 C 717.43987 377.31448 719.07129 377.7165 720.6875 378.15625 C 725.8013 381.78125 717.65625 378.0625 717.65625 378.0625 C 716.82652 377.56935 716.25501 377.20491 715.8125 376.9375 z "
     id="path12321" />
</svg>
