<?xml version="1.0" encoding="UTF-8" standalone="no"?>
<svg
   xmlns:dc="http://purl.org/dc/elements/1.1/"
   xmlns:cc="http://creativecommons.org/ns#"
   xmlns:rdf="http://www.w3.org/1999/02/22-rdf-syntax-ns#"
   xmlns:svg="http://www.w3.org/2000/svg"
   xmlns="http://www.w3.org/2000/svg"
   xmlns:sodipodi="http://sodipodi.sourceforge.net/DTD/sodipodi-0.dtd"
   xmlns:inkscape="http://www.inkscape.org/namespaces/inkscape"
   width="1024"
   height="1024"
   id="U53F3"
   version="1.1"
   inkscape:version="0.48.0 r9654"
   sodipodi:docname="U+53F3.svg">
  <metadata
     id="metadata12">
    <rdf:RDF>
      <cc:Work
         rdf:about="">
        <dc:format>image/svg+xml</dc:format>
        <dc:type
           rdf:resource="http://purl.org/dc/dcmitype/StillImage" />
      </cc:Work>
    </rdf:RDF>
  </metadata>
  <defs
     id="defs10" />
  <sodipodi:namedview
     pagecolor="#ffffff"
     bordercolor="#666666"
     borderopacity="1"
     objecttolerance="10"
     gridtolerance="10"
     guidetolerance="10"
     inkscape:pageopacity="0"
     inkscape:pageshadow="2"
     inkscape:window-width="640"
     inkscape:window-height="480"
     id="namedview8"
     showgrid="false"
     inkscape:zoom="0.27441406"
     inkscape:cx="512"
     inkscape:cy="512"
     inkscape:window-x="0"
     inkscape:window-y="25"
     inkscape:window-maximized="0"
     inkscape:current-layer="U53F3" />
  <path
     style="fill:#2b1100;fill-opacity:1;fill-rule:nonzero;stroke:none"
     d="M 466.09375 126.6875 C 463.10466 126.66606 460.79868 127.52038 459.40625 129.40625 C 433.82915 166.06625 411.0002 204.54925 388.3125 243.03125 C 386.93762 245.40774 385.5612 247.77907 384.1875 250.15625 C 357.33516 253.6201 330.54803 257.70176 303.90625 262.65625 C 260.80695 270.88425 217.7396 279.62575 175.875 292.96875 C 158.2003 299.22275 187.66905 382.5665 205.34375 376.3125 C 242.63375 362.8785 281.591 354.98725 320.375 347.28125 C 323.42033 346.69373 326.48206 346.1245 329.53125 345.5625 C 311.61996 377.11232 293.86602 408.72203 276.25 440.4375 C 244.2099 498.0825 213.7998 556.63125 185.9375 616.40625 C 171.2042 649.19225 156.6531 682.37575 151.875 718.21875 C 152.0912 723.47975 152.31495 728.77025 152.53125 734.03125 C 154.58265 752.67625 242.489 742.98875 240.4375 724.34375 C 240.1731 725.23575 239.8895 726.13925 239.625 727.03125 C 238.7273 703.43425 257.8688 674.3575 264.5 652.4375 C 290.727 594.3035 319.7559 537.52675 350.625 481.71875 C 378.75634 430.93728 407.40053 380.42422 436.65625 330.28125 C 459.45632 327.81286 482.30141 325.72286 505.15625 323.84375 C 560.63035 319.10675 616.30215 318.82425 671.90625 320.53125 C 703.01805 322.07325 734.1203 324.081 765.125 327.125 C 773.5448 328.303 769.83885 327.58525 776.28125 329.03125 C 794.72785 332.40125 810.60295 245.4325 792.15625 242.0625 C 779.47315 239.9805 785.98095 240.8925 772.71875 239.4375 C 739.89965 236.9325 707.0134 235.1995 674.125 233.9375 C 615.4169 232.7155 556.63985 233.44975 498.09375 238.46875 C 495.90515 238.64967 493.71965 238.84681 491.53125 239.03125 C 503.83654 219.51823 516.61961 200.3103 530.53125 181.90625 C 540.27814 168.70513 487.01735 126.83759 466.09375 126.6875 z M 592.78125 512.84375 C 559.88943 512.82048 527.05567 514.90025 494.40625 519.28125 C 457.92625 524.45325 421.4369 530.895 386.875 544.125 C 386.83075 544.14356 386.79358 544.16797 386.75 544.1875 C 360.70801 538.83296 320.32708 541.49775 319.875 554.15625 C 320.5527 588.89725 325.7495 623.393 330.5625 657.75 C 336.11958 699.16302 343.55096 740.28493 353.375 780.875 C 350.66202 806.86842 361.43671 853.84784 375.125 851.78125 C 375.84039 851.63717 376.56547 851.51674 377.28125 851.375 C 384.03909 865.53013 391.98788 879.10426 401.28125 891.9375 C 412.57735 906.8235 482.7336 853.5735 471.4375 838.6875 C 471.12319 838.31827 470.80772 837.96739 470.5 837.59375 C 508.74579 833.11346 547.26057 832.64291 585.71875 832.59375 C 601.72606 832.74004 617.74198 832.63644 633.75 832.875 C 632.43453 834.64282 630.96443 836.30119 629.3125 837.78125 C 617.0088 851.92325 683.6962 909.92325 696 895.78125 C 705.8613 883.83025 714.43435 871.139 721.40625 857.25 C 736.69265 828.802 751.7494 800.18025 764.875 770.65625 C 777.6887 740.62925 789.47275 709.9005 794.34375 677.4375 C 797.04985 647.3055 793.81485 618.357 778.21875 591.75 C 762.04875 566.159 741.39025 545.23 713.09375 533.125 C 681.87705 520.765 649.2012 514.1755 615.5625 513.1875 C 607.96931 512.96119 600.37167 512.84912 592.78125 512.84375 z M 586.09375 600 C 594.9452 599.95863 603.8008 600.10025 612.65625 600.4375 C 635.68805 601.6355 658.5439 605.12425 679.75 614.40625 C 690.3665 619.36425 697.42065 627.613 702.96875 637.625 C 708.16695 647.449 708.4714 657.45225 706.875 668.15625 C 702.5811 691.81925 693.86295 714.346 684.46875 736.375 C 682.91194 739.88535 681.33722 743.36276 679.71875 746.84375 C 648.32271 745.03772 616.87504 745.47859 585.4375 745.46875 C 543.0337 745.69275 500.57255 746.43925 458.40625 751.40625 C 451.002 752.255 443.61579 753.13131 436.21875 754.03125 C 427.63236 718.44296 421.28813 682.37213 416.65625 646.03125 C 415.70681 638.84644 414.72223 631.64243 413.78125 624.4375 C 416.39297 626.06025 418.85814 626.58065 421.0625 625.65625 C 448.3175 614.34025 477.62085 609.59875 506.65625 605.46875 C 533.02393 601.955 559.5394 600.12412 586.09375 600 z "
     id="path13301" />
</svg>
