<?xml version="1.0" encoding="UTF-8" standalone="no"?>
<svg
   xmlns:dc="http://purl.org/dc/elements/1.1/"
   xmlns:cc="http://creativecommons.org/ns#"
   xmlns:rdf="http://www.w3.org/1999/02/22-rdf-syntax-ns#"
   xmlns:svg="http://www.w3.org/2000/svg"
   xmlns="http://www.w3.org/2000/svg"
   xmlns:sodipodi="http://sodipodi.sourceforge.net/DTD/sodipodi-0.dtd"
   xmlns:inkscape="http://www.inkscape.org/namespaces/inkscape"
   width="1024"
   height="1024"
   id="U53CB"
   version="1.1"
   inkscape:version="0.48.0 r9654"
   sodipodi:docname="U+53CB.svg">
  <metadata
     id="metadata11">
    <rdf:RDF>
      <cc:Work
         rdf:about="">
        <dc:format>image/svg+xml</dc:format>
        <dc:type
           rdf:resource="http://purl.org/dc/dcmitype/StillImage" />
      </cc:Work>
    </rdf:RDF>
  </metadata>
  <defs
     id="defs9" />
  <sodipodi:namedview
     pagecolor="#ffffff"
     bordercolor="#666666"
     borderopacity="1"
     objecttolerance="10"
     gridtolerance="10"
     guidetolerance="10"
     inkscape:pageopacity="0"
     inkscape:pageshadow="2"
     inkscape:window-width="640"
     inkscape:window-height="480"
     id="namedview7"
     showgrid="false"
     inkscape:zoom="0.27441406"
     inkscape:cx="512"
     inkscape:cy="512"
     inkscape:window-x="0"
     inkscape:window-y="25"
     inkscape:window-maximized="0"
     inkscape:current-layer="U53CB" />
  <path
     style="fill:#2b1100;fill-opacity:1;fill-rule:nonzero;stroke:none"
     d="M 427.09375 98.46875 C 425.0852 98.457556 423.38547 99.021125 422.125 100.25 C 393.8095 131.007 377.1755 169.949 360 207.5 C 345.38166 240.4424 331.19659 273.57641 317.34375 306.84375 C 309.73627 307.24637 302.13712 307.65878 294.53125 308.09375 C 242.26725 311.87575 189.291 315.46225 138.9375 331.03125 C 121.3756 337.56925 152.188 420.38175 169.75 413.84375 C 205.75358 401.92989 243.77566 398.11511 281.5 395.0625 C 278.11086 403.60077 274.72823 412.13505 271.375 420.6875 C 245.4988 486.9165 222.4545 554.1985 204.25 622.9375 C 195.7701 655.0965 190.23905 687.83325 188.59375 721.03125 C 188.36525 728.30625 187.82905 735.57675 187.46875 742.84375 C 186.71195 761.63975 275.33695 765.20125 276.09375 746.40625 C 276.28555 739.06325 276.728 731.724 276.75 724.375 C 277.3786 697.353 281.34995 670.67025 287.84375 644.40625 C 304.10585 578.75825 325.7867 514.67225 350.3125 451.65625 C 358.48352 430.82565 366.79648 410.06128 375.25 389.34375 C 424.29546 386.95049 473.37834 385.11359 522.4375 383.0625 C 578.8986 380.7455 635.3575 378.04075 691.875 377.84375 C 711.6647 380.26075 735.65845 375.238 754.21875 384.75 C 771.87935 391.014 801.4105 307.763 783.75 301.5 C 753.728 291.838 722.35965 290.484 690.96875 291 C 633.50925 291.98 576.12015 295.22375 518.71875 297.84375 C 483.12554 299.45654 447.5042 300.88816 411.90625 302.40625 C 420.46735 282.82563 429.22329 263.34143 438.1875 243.9375 C 451.3327 216.2845 463.5196 186.863 483.9375 163.625 C 496.12203 151.74497 446.50971 98.576963 427.09375 98.46875 z M 581.96875 452.28125 C 541.41203 452.33758 500.8901 454.85437 460.96875 462.59375 C 422.42025 470.37675 383.54995 479.41925 348.96875 498.90625 C 337.17398 506.38004 360.35391 549.65172 379.53125 567.1875 C 366.52713 575.56694 357.45492 584.89365 360.53125 591.15625 C 379.58505 626.97325 403.69215 659.7025 428.15625 691.9375 C 448.00135 718.20715 468.91062 743.55682 490.875 767.96875 C 472.5124 784.30989 453.27836 799.69017 433.5625 814.40625 C 411.1368 831.46325 386.76135 845.33325 360.96875 856.53125 C 350.43495 860.85825 339.60775 864.783 328.09375 864.125 C 326.83015 864.025 325.54485 863.94375 324.28125 863.84375 C 305.54475 862.85875 300.91975 951.17125 319.65625 952.15625 C 322.63605 952.27925 325.61395 952.40725 328.59375 952.53125 C 352.32845 951.96325 375.10985 946.829 396.71875 936.75 C 428.30435 922.392 458.3969 905.1665 485.9375 883.9375 C 508.43048 866.87343 530.35521 849.07468 551.28125 830.15625 C 595.64104 871.69153 648.10899 901.54281 703.40625 925.75 C 737.07035 940.028 772.23815 949.76975 808.03125 956.84375 C 826.23545 960.31275 842.5792 874.50025 824.375 871.03125 C 794.7329 865.65225 765.664 857.76925 737.75 846.28125 C 692.01534 826.81491 648.52624 802.81744 611.6875 768.96875 C 639.70301 738.1785 666.70309 706.51273 692.3125 673.65625 C 714.6893 645.69225 737.57045 618.02675 757.84375 588.46875 C 776.01415 559.27975 785.7513 527.91925 762.375 497.90625 C 744.3781 480.50925 723.1446 469.714 698.625 464.125 C 666.0294 456.626 632.79805 452.974 599.34375 452.375 C 593.55055 452.28987 587.76257 452.2732 581.96875 452.28125 z M 575.21875 539.1875 C 582.7245 539.16143 590.24501 539.236 597.75 539.40625 C 624.75445 540.26886 651.67477 542.96773 677.90625 549.53125 C 661.04367 573.65668 642.47403 596.56287 624.28125 619.6875 C 601.23939 649.76307 576.85942 678.7073 551.46875 706.78125 C 532.48177 685.28197 514.4316 662.93779 497.25 639.875 C 477.18872 613.01642 457.01884 585.89129 441.8125 555.90625 C 453.8361 552.6898 466.07695 550.17984 478.1875 547.71875 C 510.20943 541.4755 542.69384 539.30046 575.21875 539.1875 z M 693.8125 555.78125 C 695.00899 556.46755 696.02639 557.0519 696.875 557.5625 C 695.65312 557.29373 694.64269 556.65217 693.8125 555.78125 z "
     id="path13261" />
</svg>
