<?xml version="1.0" encoding="utf-8" ?>

<!DOCTYPE svg PUBLIC "-//W3C//DTD SVG 1.1//EN" 
  "http://www.w3.org/Graphics/SVG/1.1/DTD/svg11.dtd">
<svg 
    xmlns="http://www.w3.org/2000/svg"
    xmlns:xlink="http://www.w3.org/1999/xlink"
    xmlns:sodipodi="http://sodipodi.sourceforge.net/DTD/sodipodi-0.dtd"
    xmlns:inkscape="http://www.inkscape.org/namespaces/inkscape"
    width="1024" height="1024" id="U53E5">
<path d="m 10627.143,25881.674 c -14.422,36.102 -25.569,73.422 -37.058,110.531 -15.508,49.976 -28.243,100.734 -38.681,151.993 -3.531,20.474 -2.224,11.052 -4.21,28.223 -2.564,18.432 -89.45,6.345 -86.886,-12.086 l 0,0 c 3.395,-21.657 1.412,-10.269 6.085,-34.141 11.749,-53.548 25.277,-106.688 41.135,-159.177 11.914,-39.623 23.631,-79.339 37.51,-118.331 6.998,-17.417 89.103,15.571 82.105,32.988 z" id="path9815" inkscape:connector-curvature="0" style="fill:#2b0000;fill-opacity:1;fill-rule:nonzero;stroke:#f9f9f9;stroke-width:0.1;stroke-miterlimit:4;stroke-dasharray:none" transform="translate(-10240, -25600)"/><path d="m 10580.431,25954.097 c 31.962,-20.011 67.892,-31.634 104.02,-41.452 46.161,-11.884 93.633,-15.745 141.127,-16.26 38.224,0.08 76.054,5.528 112.874,15.543 36.565,10.78 57.207,30.624 73.171,64.642 14.125,42.06 7.729,86.444 2.059,129.412 -9.487,59.521 -20.455,118.781 -29.538,178.37 -7.107,47.853 -12.267,95.96 -16.889,144.106 -0.551,4.935 -1.101,9.87 -1.652,14.804 -2.288,18.457 -89.292,7.669 -87.004,-10.788 l 0,0 c 0.607,-4.4 1.214,-8.8 1.821,-13.2 5.699,-49.381 11.353,-98.778 18.771,-147.938 9.062,-58.855 19.71,-117.445 28.568,-176.33 3.403,-27.676 7.862,-56.159 2.901,-83.923 -1.601,-9.073 -6.948,-11.885 -16.053,-14.684 -28.686,-8.526 -58.413,-12.659 -88.346,-13.086 -40.042,0.173 -80.073,3.291 -118.998,13.288 -26.342,7.156 -52.848,15.213 -76.057,30.031 -15.387,10.771 -66.162,-61.764 -50.775,-72.535 z" id="path9817" inkscape:connector-curvature="0" style="fill:#2b0000;fill-opacity:1;fill-rule:nonzero;stroke:#f9f9f9;stroke-width:0.1;stroke-miterlimit:4;stroke-dasharray:none" transform="translate(-10240, -25600)"/><path d="m 10649.947,26100.182 c 1.676,31.074 4.448,62.066 7.886,92.99 1.669,14.643 3.816,29.224 5.966,43.802 2.597,18.426 -84.264,30.666 -86.861,12.24 l 0,0 c -2.087,-15.495 -4.187,-30.989 -5.886,-46.533 -3.408,-31.536 -6.15,-63.133 -9.283,-94.695 -1.655,-18.706 86.522,-26.509 88.178,-7.804 z" id="path9819" inkscape:connector-curvature="0" style="fill:#2b0000;fill-opacity:1;fill-rule:nonzero;stroke:#f9f9f9;stroke-width:0.1;stroke-miterlimit:4;stroke-dasharray:none" transform="translate(-10240, -25600)"/><path d="m 10664.529,26078.812 c 32.022,0.654 64.05,-0 96.076,0.08 29.272,-0.692 57.605,1.099 84.826,12.22 35.67,22.146 37.544,52.875 33.283,90.626 -4.485,30.642 -11.323,60.875 -18.734,90.922 -4.352,18.249 -10.215,36.006 -17.164,53.408 -7.123,17.261 -88.492,-16.317 -81.369,-33.578 l 0,0 c 5.758,-13.216 9.964,-26.983 13.513,-40.953 6.597,-26.346 12.626,-52.879 16.392,-79.799 2.948,-25.144 -0.08,-6.654 15.963,-0.896 6.616,-0.864 -8.927,-2.691 -9.264,-2.732 -7.641,-0.942 -15.422,-1.224 -23.101,-1.471 -4.938,-0.158 -9.878,-0.222 -14.816,-0.334 -32.073,-0.262 -64.148,0.201 -96.215,0.86 -18.743,-0.129 -18.134,-88.486 0.61,-88.356 z" id="path9821" inkscape:connector-curvature="0" style="fill:#2b0000;fill-opacity:1;fill-rule:nonzero;stroke:#f9f9f9;stroke-width:0.1;stroke-miterlimit:4;stroke-dasharray:none" transform="translate(-10240, -25600)"/><path d="m 10617.366,26284.971 c 35.325,0.868 70.364,-4.915 105.212,-9.926 36.927,-5.777 74.153,-9.59 111.452,-6.07 18.546,2.11 8.602,89.537 -9.944,87.428 l 0,0 c -29.632,-4.492 -59.707,0.965 -89.132,4.608 -39.644,5.713 -79.378,11.912 -119.523,12.339 -18.748,-0.41 -16.813,-88.789 1.935,-88.379 z" id="path9823" inkscape:connector-curvature="0" style="fill:#2b0000;fill-opacity:1;fill-rule:nonzero;stroke:#f9f9f9;stroke-width:0.1;stroke-miterlimit:4;stroke-dasharray:none" transform="translate(-10240, -25600)"/></svg>