<?xml version="1.0" encoding="UTF-8" standalone="no"?>
<svg
   xmlns:dc="http://purl.org/dc/elements/1.1/"
   xmlns:cc="http://creativecommons.org/ns#"
   xmlns:rdf="http://www.w3.org/1999/02/22-rdf-syntax-ns#"
   xmlns:svg="http://www.w3.org/2000/svg"
   xmlns="http://www.w3.org/2000/svg"
   xmlns:sodipodi="http://sodipodi.sourceforge.net/DTD/sodipodi-0.dtd"
   xmlns:inkscape="http://www.inkscape.org/namespaces/inkscape"
   width="1024"
   height="1024"
   id="U53CC"
   version="1.1"
   inkscape:version="0.48.0 r9654"
   sodipodi:docname="U+53CC.svg">
  <metadata
     id="metadata11">
    <rdf:RDF>
      <cc:Work
         rdf:about="">
        <dc:format>image/svg+xml</dc:format>
        <dc:type
           rdf:resource="http://purl.org/dc/dcmitype/StillImage" />
      </cc:Work>
    </rdf:RDF>
  </metadata>
  <defs
     id="defs9" />
  <sodipodi:namedview
     pagecolor="#ffffff"
     bordercolor="#666666"
     borderopacity="1"
     objecttolerance="10"
     gridtolerance="10"
     guidetolerance="10"
     inkscape:pageopacity="0"
     inkscape:pageshadow="2"
     inkscape:window-width="640"
     inkscape:window-height="480"
     id="namedview7"
     showgrid="false"
     inkscape:zoom="0.27441406"
     inkscape:cx="512"
     inkscape:cy="512"
     inkscape:window-x="0"
     inkscape:window-y="25"
     inkscape:window-maximized="0"
     inkscape:current-layer="U53CC" />
  <path
     style="fill:#782121;fill-opacity:1;fill-rule:nonzero;stroke:#f9f9f9;stroke-width:0.1;stroke-miterlimit:4;stroke-dasharray:none"
     d="M 326.84375 368.1875 C 313.37031 368.29192 299.88447 368.98531 286.40625 370.21875 C 247.68615 374.22675 209.3598 380.69475 170.8125 385.96875 C 152.2195 388.34175 163.407 475.96775 182 473.59375 C 219.6652 466.99175 257.2601 460.39975 295.3125 456.46875 C 322.01525 454.43439 348.99572 454.10114 375.4375 458.125 C 357.76216 480.73152 339.64606 503.06011 321.84375 525.5625 C 305.20718 546.80853 288.69623 568.15995 272.1875 589.5 C 267.20712 585.12567 262.20976 580.7733 257.25 576.375 C 219.386 542.674 181.5741 508.79825 146.625 472.03125 C 133.3157 458.84625 71.15945 521.59625 84.46875 534.78125 C 122.19485 571.10625 161.3034 605.9315 200.6875 640.4375 C 206.98995 645.94914 213.30235 651.41818 219.625 656.90625 C 208.27668 671.25503 196.83052 685.51861 185.25 699.6875 C 157.6706 732.5505 129.1934 765.07875 94.6875 790.84375 C 86.2595 795.98475 90.0193 794.88425 84.25 796.03125 C 67.2268 803.75125 103.6019 884.00225 120.625 876.28125 C 139.9012 866.57525 130.69665 871.99925 148.28125 860.03125 C 187.21265 829.09925 220.48855 792.17625 251.65625 753.53125 C 262.62499 739.90631 273.47334 726.21871 284.28125 712.46875 C 312.08117 736.14633 339.99454 759.70404 367.90625 783.25 C 404.27055 813.257 438.916 845.29275 476.0625 874.34375 C 482.09393 878.92031 494.4655 870.06604 506 857.1875 C 517.99658 867.83525 529.98524 874.42202 535.28125 869.59375 C 536.69295 868.27775 538.0883 866.941 539.5 865.625 C 554.7874 851.81 571.1398 839.267 586.6875 825.75 C 619.40205 797.1916 651.25214 767.64073 681.84375 736.8125 C 709.22582 759.96948 737.1273 782.51 765.34375 804.65625 C 805.66495 835.87325 846.3046 866.676 886.25 898.375 C 900.7076 909.685 954.0201 841.52775 939.5625 830.21875 C 899.1832 799.07075 858.2997 768.588 817.875 737.5 C 792.34321 717.59793 767.08439 697.35905 742.3125 676.53125 C 772.77111 646.34386 803.28637 616.1848 833.5 585.75 C 868.077 551.422 906.7971 519.954 934.625 479.75 C 937.0622 470.526 942.289 461.62775 941.9375 452.09375 C 940.302 407.72675 900.85 393.2735 864.5625 386.3125 C 811.0404 377.9895 756.8814 375.92025 702.8125 379.78125 C 658.2218 382.90525 613.73425 387.34375 569.53125 394.09375 C 551.07905 397.33475 566.3602 484.3045 584.8125 481.0625 C 625.8227 473.0575 667.4419 468.93325 709.0625 465.78125 C 749.04176 462.84884 789.13964 463.5364 828.78125 468.875 C 809.97692 487.48366 791.18174 506.28154 772.625 525.0625 C 741.46345 557.02345 709.80354 588.49165 678.0625 619.875 C 668.42507 610.93545 658.86504 601.89627 649.46875 592.6875 C 614.35885 558.6135 580.6856 522.88175 543.125 491.46875 C 527.9052 480.48575 476.12395 552.2045 491.34375 563.1875 C 526.46625 591.0435 557.7354 623.5685 590.1875 654.4375 C 599.14491 663.06295 608.20401 671.54824 617.34375 679.96875 C 589.2359 707.65291 559.81257 733.93837 529.6875 759.40625 C 520.17394 767.29188 510.4861 774.98269 500.90625 782.78125 C 474.57297 761.49099 449.29933 738.83456 422.90625 717.625 C 394.09058 693.62042 365.32092 669.5445 336.75 645.25 C 353.98738 623.1471 371.28444 601.10241 388.84375 579.25 C 418.51595 542.706 452.18775 508.104 474.40625 466.375 C 476.08075 458.587 479.5905 450.965 479.4375 443 C 478.6989 404.549 448.34995 385.25675 415.15625 376.71875 C 386.02303 370.60206 356.48531 367.95777 326.84375 368.1875 z M 399.84375 463.65625 C 410.65344 467.90457 405.16244 468.43751 399.84375 463.65625 z M 868.5625 478.71875 C 869.63654 479.30066 870.50359 479.81604 870.875 480.03125 C 870.06642 479.61637 869.3 479.17024 868.5625 478.71875 z "
     id="path11001" />
</svg>
