<?xml version="1.0" encoding="utf-8" ?>

<!DOCTYPE svg PUBLIC "-//W3C//DTD SVG 1.1//EN" 
  "http://www.w3.org/Graphics/SVG/1.1/DTD/svg11.dtd">
<svg 
    xmlns="http://www.w3.org/2000/svg"
    xmlns:xlink="http://www.w3.org/1999/xlink"
    xmlns:sodipodi="http://sodipodi.sourceforge.net/DTD/sodipodi-0.dtd"
    xmlns:inkscape="http://www.inkscape.org/namespaces/inkscape"
    width="1024" height="1024" id="U5305">
<path d="m 8579.9135,1238.9861 c -22.774,35.9233 -41.234,74.3151 -59.22,112.7848 -18.8671,40.6097 -34.2661,82.6116 -46.1113,125.7629 -4.9646,17.4992 -87.4566,-5.904 -82.4921,-23.4032 l 0,0 c 13.7829,-47.2608 30.6429,-93.5077 51.2344,-138.2669 19.1499,-41.5518 39.0162,-82.7967 61.8723,-122.4675 9.6711,-15.8498 84.3878,29.74 74.7167,45.5899 z" id="path19775" inkscape:connector-curvature="0" style="fill:#aa0000;fill-opacity:1;fill-rule:nonzero;stroke:#f9f9f9;stroke-width:0.1;stroke-miterlimit:4;stroke-dasharray:none" transform="translate(-8192, -1024)"/><path d="m 8466.142,1297.808 c 47.3649,-23.0201 99.8753,-31.1976 151.5019,-38.536 63.8646,-8.2765 128.2645,-10.1007 192.5315,-7.1712 32.9017,3.6998 69.5902,2.7209 99.7045,18.8815 5.9413,3.1884 11.2024,7.5075 16.8036,11.2613 31.6928,30.6789 27.2426,69.5946 19.0956,108.9051 -8.9834,37.9895 -20.7881,75.2288 -33.2569,112.1945 -13.2629,40.2438 -30.4316,78.9667 -49.2989,116.8491 -2.5295,4.8258 -5.059,9.6515 -7.5885,14.4772 -8.6439,16.2259 -85.1335,-24.5214 -76.4897,-40.7473 l 0,0 c 2.294,-4.2289 4.588,-8.4577 6.882,-12.6866 17.4124,-34.0058 33.0507,-68.8966 44.8745,-105.2838 11.2536,-33.7174 21.8669,-67.6901 29.927,-102.3337 2.3241,-11.329 2.4048,-10.907 3.9847,-21.2465 0.3199,-2.0937 -0.1668,-7.1717 1.6765,-6.1286 1.263,0.7147 2.0582,2.0464 3.0874,3.0697 1.2851,0.674 2.5703,1.3481 3.8554,2.0221 3.7855,-2.3992 -5.6342,-4.6367 -13.2966,-6.4981 -17.8024,-4.3248 -36.1759,-5.6577 -54.3582,-7.2801 -58.7154,-3.4104 -117.6078,-1.9508 -175.9668,5.8671 -40.8567,6.0194 -82.9315,12.0186 -120.3981,30.4007 -16.1255,9.1791 -59.3964,-66.8372 -43.2709,-76.0164 z" id="path19777" inkscape:connector-curvature="0" style="fill:#aa0000;fill-opacity:1;fill-rule:nonzero;stroke:#f9f9f9;stroke-width:0.1;stroke-miterlimit:4;stroke-dasharray:none" transform="translate(-8192, -1024)"/><path d="m 8514.1814,1400.4079 c 36.0627,-1.012 72.0532,0.7941 107.9023,4.6103 26.2279,4.5645 55.3213,6.3196 78.5938,20.8151 5.384,3.3534 10.0937,7.6841 15.1406,11.5262 29.4719,32.7974 22.3091,71.9975 12.2611,110.9331 -9.3826,32.7003 -21.4715,64.5325 -34.2977,96.0127 -7.1641,16.3812 -3.4833,8.4162 -11.0072,23.9114 -8.2301,16.5493 -86.2443,-22.2477 -78.0143,-38.797 l 0,0 c 5.8428,-11.368 2.8775,-5.2937 8.8033,-18.2676 11.6028,-27.6407 22.4009,-55.6675 30.5898,-84.5341 3.0375,-11.7492 3.1374,-11.2935 5.2487,-22.3089 0.4753,-2.4797 -0.3806,-8.4239 1.8965,-7.3332 2.7758,1.3295 2.9799,6.1308 6.9448,6.0848 13.0817,1.1443 -19.7361,-7.8642 -30.848,-9.8298 -4.8991,-0.8667 -9.8286,-1.5515 -14.7429,-2.3273 -31.2729,-3.5592 -62.7667,-5.2806 -94.2225,-3.102 -18.539,0.9012 -22.7873,-86.4925 -4.2483,-87.3937 z" id="path19779" inkscape:connector-curvature="0" style="fill:#aa0000;fill-opacity:1;fill-rule:nonzero;stroke:#f9f9f9;stroke-width:0.1;stroke-miterlimit:4;stroke-dasharray:none" transform="translate(-8192, -1024)"/><path d="m 8501.9441,1589.0853 c 36.1026,0.2054 72.0881,2.2681 108.0052,5.8276 30.1072,3.1144 59.8193,8.7029 88.7318,17.6252 17.5616,5.7546 -9.5656,88.5406 -27.1271,82.7861 l 0,0 c -22.5895,-8.113 -46.336,-11.9512 -70.1141,-14.7552 -33.3199,-3.3193 -66.7548,-5.157 -100.2513,-3.8458 -18.5908,-0.1603 -17.8353,-87.7982 0.7555,-87.6379 z" id="path19781" inkscape:connector-curvature="0" style="fill:#aa0000;fill-opacity:1;fill-rule:nonzero;stroke:#f9f9f9;stroke-width:0.1;stroke-miterlimit:4;stroke-dasharray:none" transform="translate(-8192, -1024)"/><path d="m 8555.7094,1462.4156 c -7.9599,41.6716 -15.7217,83.3774 -24.1653,124.9562 -11.4515,51.1555 -22.3466,102.3993 -21.4232,155.0127 2.4124,31.7992 10.0195,54.2066 36.8003,72.1165 37.1742,18.8667 79.7449,20.3757 120.5735,21.9428 52.0233,1.464 103.4014,-6.1967 154.0166,-17.4065 33.2681,-8.2668 66.1303,-18.0741 99.0296,-27.6828 8.5264,-3.8916 24.5097,-4.6338 30.2686,-11.6689 14.6737,-11.4005 68.416,57.7719 53.7423,69.1724 l 0,0 c -18.2311,13.0601 -38.4139,21.097 -60.2727,26.1607 -34.7826,9.5896 -69.5146,19.4248 -104.6269,27.7505 -57.7129,12.2572 -116.2442,20.6285 -175.4347,18.9535 -58.6174,-2.2549 -118.5002,-6.5661 -169.5201,-38.6173 -7.218,-5.7967 -15.0109,-10.9426 -21.6542,-17.39 -33.4349,-32.4495 -46.0244,-77.4945 -48.6182,-122.7255 0.047,-58.4407 10.2544,-115.5036 23.4011,-172.355 8.0827,-41.0999 15.65,-82.3062 21.6734,-123.7654 3.2978,-18.2878 89.5077,-2.7418 86.2099,15.5461 z" id="path19783" inkscape:connector-curvature="0" style="fill:#aa0000;fill-opacity:1;fill-rule:nonzero;stroke:#f9f9f9;stroke-width:0.1;stroke-miterlimit:4;stroke-dasharray:none" transform="translate(-8192, -1024)"/></svg>