<?xml version="1.0" encoding="UTF-8" standalone="no"?>
<svg
   xmlns:dc="http://purl.org/dc/elements/1.1/"
   xmlns:cc="http://creativecommons.org/ns#"
   xmlns:rdf="http://www.w3.org/1999/02/22-rdf-syntax-ns#"
   xmlns:svg="http://www.w3.org/2000/svg"
   xmlns="http://www.w3.org/2000/svg"
   xmlns:sodipodi="http://sodipodi.sourceforge.net/DTD/sodipodi-0.dtd"
   xmlns:inkscape="http://www.inkscape.org/namespaces/inkscape"
   width="1024"
   height="1024"
   id="U5316"
   version="1.1"
   inkscape:version="0.48.0 r9654"
   sodipodi:docname="U+5316.svg">
  <metadata
     id="metadata11">
    <rdf:RDF>
      <cc:Work
         rdf:about="">
        <dc:format>image/svg+xml</dc:format>
        <dc:type
           rdf:resource="http://purl.org/dc/dcmitype/StillImage" />
      </cc:Work>
    </rdf:RDF>
  </metadata>
  <defs
     id="defs9" />
  <sodipodi:namedview
     pagecolor="#ffffff"
     bordercolor="#666666"
     borderopacity="1"
     objecttolerance="10"
     gridtolerance="10"
     guidetolerance="10"
     inkscape:pageopacity="0"
     inkscape:pageshadow="2"
     inkscape:window-width="640"
     inkscape:window-height="480"
     id="namedview7"
     showgrid="false"
     inkscape:zoom="0.27441406"
     inkscape:cx="512"
     inkscape:cy="512"
     inkscape:window-x="0"
     inkscape:window-y="25"
     inkscape:window-maximized="0"
     inkscape:current-layer="U5316" />
  <path
     style="fill:#550000;fill-opacity:1;fill-rule:nonzero;stroke:#f9f9f9;stroke-width:0.1;stroke-miterlimit:4;stroke-dasharray:none"
     d="M 331.875 167.1875 C 329.84999 167.14059 328.13653 167.68947 326.84375 168.90625 C 291.68593 204.49125 260.91755 243.95925 231.28125 284.15625 C 192.83482 337.66325 158.85107 394.15825 126.5625 451.53125 C 113.6547 474.68425 101.25375 498.09075 89 521.59375 C 80.566268 538.50675 160.28502 578.288 168.71875 561.375 C 179.55136 538.581 191.05599 516.10875 202.9375 493.84375 C 232.60427 439.38975 264.33376 386.00275 300.90625 335.84375 C 327.67536 300.03875 355.35804 264.59625 388.03125 233.90625 C 400.52814 222.14403 351.45013 167.64093 331.875 167.1875 z M 551.90625 197.03125 C 526.26083 197.01047 495.27309 204.14206 496.1875 215.34375 C 501.17859 259.07675 503.38276 303.044 505.28125 347 C 506.77561 393.83863 505.97233 440.68818 505.0625 487.53125 C 481.28957 514.67325 457.28408 541.63541 432.8125 568.15625 C 418.19984 584.27825 402.86173 599.635 386.875 614.375 C 373.32898 627.252 434.04773 691.126 447.59375 678.25 C 464.61488 661.662 481.14286 644.61975 496.9375 626.84375 C 499.61046 623.90119 502.27321 620.9502 504.9375 618 C 507.13975 658.34159 512.5533 698.36271 522.1875 737.78125 C 533.36989 776.19825 552.9588 811.87925 587.8125 833.53125 C 594.4977 837.68325 601.847 840.61425 608.875 844.15625 C 650.67497 860.18225 695.74634 860.41425 739.875 860.78125 C 778.44982 860.97225 816.99222 859.0645 855.40625 855.6875 C 875.11127 853.7145 894.80406 851.76125 914.4375 849.15625 C 927.37128 846.37925 920.17655 848.4635 935.75 841.9375 C 951.85983 833.12751 912.35702 759.55605 894.5625 762.59375 C 896.16083 762.05237 897.74542 761.51047 899.34375 760.96875 C 882.04437 763.67969 864.65163 765.7589 847.25 767.6875 C 811.79609 771.1525 776.23023 773.065 740.59375 772.875 C 709.17241 772.641 677.03747 772.895 646.5625 764.25 C 624.44551 755.72 613.70999 739.08525 607.21875 716.28125 C 593.64728 664.96525 589.78899 612.0625 590.25 559.0625 C 590.32859 546.35507 590.51166 533.64417 590.71875 520.9375 C 603.35096 506.44926 615.98444 491.95029 628.625 477.46875 C 660.04879 442.15575 691.62252 406.936 724.40625 372.875 C 737.46647 359.175 672.87271 297.6115 659.8125 311.3125 C 637.44629 336.5735 615.00457 361.78594 592.65625 387.0625 C 592.64009 372.60025 592.47843 358.11969 592.125 343.65625 C 590.58886 298.41825 588.49947 253.2045 585.125 208.0625 C 584.49935 200.39819 569.45311 197.04547 551.90625 197.03125 z M 899.34375 760.96875 C 900.09181 760.85152 900.84606 760.74471 901.59375 760.625 C 901.28657 760.595 900.96343 760.56325 900.65625 760.53125 C 900.21836 760.67967 899.78164 760.82034 899.34375 760.96875 z M 286.375 380.03125 C 275.94884 379.93485 268.17851 382.00181 266.9375 387.1875 C 258.98627 432.3405 259.93319 478.461 260.1875 524.125 C 261.9223 588.191 262.97236 652.26375 264.0625 716.34375 C 265.14817 755.53075 267.20189 794.73875 271.46875 833.71875 C 271.94466 837.00675 272.43034 840.30675 272.90625 843.59375 C 275.94977 862.26075 363.94977 847.917 360.90625 829.25 C 360.49778 827.113 360.09598 824.97975 359.6875 822.84375 C 354.60882 786.98675 352.5198 750.7185 351.0625 714.5625 C 349.54269 651.0625 348.32787 587.53725 347.15625 524.03125 C 347.31559 485.35225 346.48425 446.146 353.84375 408 C 357.01523 394.74769 313.01963 380.2776 286.375 380.03125 z "
     id="path8021" />
</svg>
