<?xml version="1.0" encoding="UTF-8" standalone="no"?>
<svg
   xmlns:dc="http://purl.org/dc/elements/1.1/"
   xmlns:cc="http://creativecommons.org/ns#"
   xmlns:rdf="http://www.w3.org/1999/02/22-rdf-syntax-ns#"
   xmlns:svg="http://www.w3.org/2000/svg"
   xmlns="http://www.w3.org/2000/svg"
   xmlns:sodipodi="http://sodipodi.sourceforge.net/DTD/sodipodi-0.dtd"
   xmlns:inkscape="http://www.inkscape.org/namespaces/inkscape"
   width="1024"
   height="1024"
   id="U5343"
   version="1.1"
   inkscape:version="0.48.0 r9654"
   sodipodi:docname="U+5343.svg">
  <metadata
     id="metadata10">
    <rdf:RDF>
      <cc:Work
         rdf:about="">
        <dc:format>image/svg+xml</dc:format>
        <dc:type
           rdf:resource="http://purl.org/dc/dcmitype/StillImage" />
      </cc:Work>
    </rdf:RDF>
  </metadata>
  <defs
     id="defs8" />
  <sodipodi:namedview
     pagecolor="#ffffff"
     bordercolor="#666666"
     borderopacity="1"
     objecttolerance="10"
     gridtolerance="10"
     guidetolerance="10"
     inkscape:pageopacity="0"
     inkscape:pageshadow="2"
     inkscape:window-width="640"
     inkscape:window-height="480"
     id="namedview6"
     showgrid="false"
     inkscape:zoom="0.27441406"
     inkscape:cx="512"
     inkscape:cy="512"
     inkscape:window-x="0"
     inkscape:window-y="25"
     inkscape:window-maximized="0"
     inkscape:current-layer="U5343" />
  <path
     style="fill:#c83737;fill-opacity:1;fill-rule:nonzero;stroke:#f9f9f9;stroke-width:0.1;stroke-miterlimit:4;stroke-dasharray:none"
     d="M 686.59375 161.96875 C 686.02061 162.00765 685.45418 162.13544 684.90625 162.34375 C 648.33018 177.98575 612.79252 195.88675 577.1875 213.59375 C 522.17519 241.67875 466.82775 269.04775 410.53125 294.46875 C 376.34454 309.61175 341.83609 324.0095 307.34375 338.4375 L 297.8125 342.65625 C 280.79897 350.40125 317.29897 430.58875 334.3125 422.84375 L 342.09375 419.1875 C 376.83633 403.8325 411.50263 388.3125 446.125 372.6875 C 503.02328 346.6005 559.20657 319.02675 615.21875 291.09375 C 648.55726 274.96575 681.81029 258.449 716.34375 245 C 733.3296 238.54231 704.36107 160.76278 686.59375 161.96875 z M 555.90625 343.125 C 535.22861 343.10107 515.65071 347.23094 515.40625 356.03125 C 518.07614 404.71025 521.24904 453.3575 523.53125 502.0625 C 523.83561 508.00386 524.12577 513.93277 524.375 519.875 C 451.5591 526.95268 378.96187 535.92404 306.125 542.78125 C 267.26986 545.26725 228.34144 546.742 189.40625 545.25 C 170.62831 545.081 169.84706 633.61225 188.625 633.78125 C 229.85218 633.55525 270.98559 631.78575 312.09375 628.71875 C 383.54868 621.25179 454.77435 611.93663 526.25 604.6875 C 526.46214 653.40158 525.33235 702.11945 523.625 750.8125 C 521.63073 802.8135 518.98912 854.788 516.1875 906.75 C 515.45782 925.303 602.89532 928.7395 603.625 910.1875 C 604.91655 857.9555 606.97209 805.725 608.53125 753.5 C 610.01635 701.64144 611.03626 649.77985 610.84375 597.90625 C 666.50298 594.56338 722.25236 593.17117 778 592.15625 C 819.57218 591.34325 861.18157 591.33575 902.75 590.34375 C 916.77738 589.58175 909.91362 590.1775 923.28125 588.5625 C 941.83662 585.8055 928.83662 498.33675 910.28125 501.09375 C 904.68978 502.41875 908.24509 501.7295 899.5 502.5625 C 858.36818 504.6605 817.19115 505.179 776.03125 506.5 C 720.44946 508.06955 664.8472 509.86879 609.34375 513.25 C 609.18104 508.36658 609.00443 503.47686 608.8125 498.59375 C 607.2084 451.89175 604.79497 405.215 603.90625 358.5 C 604.18331 348.52578 579.34091 343.15212 555.90625 343.125 z "
     id="path10759" />
</svg>
