<?xml version="1.0" encoding="UTF-8" standalone="no"?>
<svg
   xmlns:dc="http://purl.org/dc/elements/1.1/"
   xmlns:cc="http://creativecommons.org/ns#"
   xmlns:rdf="http://www.w3.org/1999/02/22-rdf-syntax-ns#"
   xmlns:svg="http://www.w3.org/2000/svg"
   xmlns="http://www.w3.org/2000/svg"
   xmlns:sodipodi="http://sodipodi.sourceforge.net/DTD/sodipodi-0.dtd"
   xmlns:inkscape="http://www.inkscape.org/namespaces/inkscape"
   width="1024"
   height="1024"
   id="U53D6"
   version="1.1"
   inkscape:version="0.48.0 r9654"
   sodipodi:docname="U+53D6.svg">
  <metadata
     id="metadata15">
    <rdf:RDF>
      <cc:Work
         rdf:about="">
        <dc:format>image/svg+xml</dc:format>
        <dc:type
           rdf:resource="http://purl.org/dc/dcmitype/StillImage" />
      </cc:Work>
    </rdf:RDF>
  </metadata>
  <defs
     id="defs13" />
  <sodipodi:namedview
     pagecolor="#ffffff"
     bordercolor="#666666"
     borderopacity="1"
     objecttolerance="10"
     gridtolerance="10"
     guidetolerance="10"
     inkscape:pageopacity="0"
     inkscape:pageshadow="2"
     inkscape:window-width="640"
     inkscape:window-height="480"
     id="namedview11"
     showgrid="false"
     inkscape:zoom="0.27441406"
     inkscape:cx="512"
     inkscape:cy="512"
     inkscape:window-x="0"
     inkscape:window-y="25"
     inkscape:window-maximized="0"
     inkscape:current-layer="U53D6" />
  <path
     style="fill:#a02c2c;fill-opacity:1;fill-rule:nonzero;stroke:#f9f9f9;stroke-width:0.1;stroke-miterlimit:4;stroke-dasharray:none"
     d="M 421.625 250.5625 C 417.00636 250.55791 415.75781 250.88437 399.03125 252.0625 C 340.17735 258.6525 281.70935 268.1155 223.46875 278.8125 C 181.32145 286.5245 139.0321 293.7075 97.1875 302.9375 C 79.1729 308.1675 103.82915 393.105 121.84375 387.875 C 131.85615 385.33524 141.90917 382.96885 152 380.75 C 151.87239 405.17305 152.5674 429.61037 153.0625 454 C 154.4855 523.47 155.9673 592.93575 159.3125 662.34375 C 160.10084 685.09298 162.4555 707.67387 165.53125 730.1875 C 132.70712 742.59557 99.841451 754.9395 66.96875 767.21875 C 49.64185 774.35375 83.26675 856.04125 100.59375 848.90625 C 144.26945 830.43525 188.66695 813.63725 232.84375 796.40625 C 262.57984 784.7631 292.4308 773.43511 322.46875 762.625 C 322.19046 809.12163 322.269 855.63104 321.625 902.125 C 321.5303 920.534 408.31125 920.9725 408.40625 902.5625 C 408.21606 846.26542 407.44951 789.98582 407.65625 733.6875 C 411.96933 732.31781 416.27085 730.96588 420.59375 729.625 C 451.10215 721.119 436.51615 724.9275 464.40625 718.0625 C 482.24495 713.4455 460.4637 629.35175 442.625 633.96875 C 418.06424 640.60446 422.31947 639.34918 408.4375 643.5 C 409.12425 581.5988 409.93101 519.68712 409.78125 457.78125 C 409.20678 417.96635 408.11239 378.182 405.90625 338.4375 C 406.58425 338.37273 407.25936 338.31365 407.9375 338.25 C 427.9638 337.47 419.18465 337.08225 434.28125 338.40625 C 452.86965 339.12025 456.24465 251.49525 437.65625 250.78125 C 428.38063 250.66913 424.39618 250.56525 421.625 250.5625 z M 319.625 349.4375 C 322.47726 386.03992 323.74074 422.76042 324.65625 459.46875 C 325.14789 499.77266 325.00908 540.07226 324.625 580.375 C 311.85476 579.39515 299.07511 578.70832 286.25 579.3125 C 271.3345 580.18789 256.47731 581.63678 241.65625 583.28125 C 240.93235 561.93762 240.3603 540.60322 239.9375 519.25 C 250.35344 535.01449 262.73983 547.09549 269.78125 543 C 280.34405 536.576 291.9956 533.16425 304.125 531.40625 C 322.5211 528.20125 307.42735 441.4825 289.03125 444.6875 C 271.80993 447.92761 254.99071 452.49941 239.0625 459.59375 C 239.03769 457.3016 238.99178 455.01094 238.96875 452.71875 C 238.67724 423.03951 237.88855 393.18443 239.40625 363.5 C 266.06775 358.37819 292.80216 353.60892 319.625 349.4375 z M 578.5 400.90625 C 553.87144 400.89417 529.28144 402.34 505.03125 407.125 C 491.18695 410.45286 499.7251 460.71581 512.625 482.9375 C 492.60797 499.09019 472.50417 524.91754 480.4375 533.0625 C 509.3297 560.5005 537.72945 588.42675 565.53125 616.96875 C 585.41779 638.39191 605.35499 659.75142 625.5 680.90625 C 598.85704 703.2047 570.34891 723.13257 540.84375 741.46875 C 522.99305 751.16675 505.4189 762.887 485.6875 768.5 C 485.3825 768.389 485.08635 768.2985 484.78125 768.1875 C 466.34795 771.6195 482.5042 858.4945 500.9375 855.0625 C 505.1725 854.1065 509.42125 853.17575 513.65625 852.21875 C 539.66485 842.99675 563.96065 829.76725 587.40625 815.28125 C 621.82149 793.29317 655.06762 769.49287 686.03125 742.84375 C 692.64198 749.38816 699.30091 755.88287 706 762.34375 C 745.1639 799.13675 785.53615 834.64025 823.65625 872.53125 C 838.13425 887.32925 831.26815 880.25675 844.21875 893.71875 C 857.28915 906.95875 919.6953 845.365 906.625 832.125 C 892.705 818.37 900.12105 825.62925 884.46875 810.28125 C 845.55695 772.87725 804.8599 737.44525 765.375 700.65625 C 759.60574 695.12361 753.88227 689.54052 748.1875 683.9375 C 769.92093 661.86254 790.80528 638.95325 810.4375 614.9375 C 838.3218 579.3475 865.8643 542.31275 848.8125 495.09375 C 845.2212 489.23375 842.258 482.944 838.0625 477.5 C 817.7765 451.18 784.48485 439.1125 754.59375 427.9375 C 708.19185 413.8435 660.6517 403.87825 612.0625 401.65625 C 600.888 401.22906 589.6948 400.91174 578.5 400.90625 z M 582.8125 487.96875 C 591.52255 487.98116 600.23144 488.23031 608.90625 488.53125 C 649.86175 490.29825 689.9078 498.61775 728.875 510.96875 C 741.40868 515.78606 754.32328 520.53668 765.375 528.375 C 764.42929 529.35314 762.97103 532.314 760.21875 536.4375 C 752.14635 548.5325 751.3956 548.993 741.75 561.5 C 724.79619 582.66403 706.70723 602.82596 687.8125 622.21875 C 667.50176 600.76654 647.48166 579.03524 627.5625 557.1875 C 605.51414 534.07498 583.00984 511.43273 560.6875 488.59375 C 568.04131 488.15883 575.4349 487.95824 582.8125 487.96875 z M 767.3125 529.71875 C 769.94773 531.4594 773.05168 533.45396 772.53125 536.21875 C 772.41165 536.85375 771.28265 535.909 770.65625 535.75 C 767.49997 535.37229 768.03296 531.97741 767.3125 529.71875 z M 295.15625 666.6875 C 304.58246 666.63828 313.97477 667.39738 323.34375 668.40625 C 323.41885 668.41328 323.48774 668.40213 323.5625 668.40625 C 323.54777 669.46839 323.54595 670.53161 323.53125 671.59375 C 298.45068 680.38303 273.46501 689.45913 248.5625 698.75 C 247.37545 689.55168 246.42581 680.32435 245.75 671.0625 C 260.8115 669.11488 275.92589 667.54082 291.125 666.75 C 292.47345 666.70763 293.80965 666.69453 295.15625 666.6875 z "
     id="path11371" />
</svg>
