<?xml version="1.0" encoding="UTF-8" standalone="no"?>
<svg
   xmlns:dc="http://purl.org/dc/elements/1.1/"
   xmlns:cc="http://creativecommons.org/ns#"
   xmlns:rdf="http://www.w3.org/1999/02/22-rdf-syntax-ns#"
   xmlns:svg="http://www.w3.org/2000/svg"
   xmlns="http://www.w3.org/2000/svg"
   xmlns:sodipodi="http://sodipodi.sourceforge.net/DTD/sodipodi-0.dtd"
   xmlns:inkscape="http://www.inkscape.org/namespaces/inkscape"
   width="1024"
   height="1024"
   id="U53C8"
   version="1.1"
   inkscape:version="0.48.0 r9654"
   sodipodi:docname="U+53C8.svg">
  <metadata
     id="metadata9">
    <rdf:RDF>
      <cc:Work
         rdf:about="">
        <dc:format>image/svg+xml</dc:format>
        <dc:type
           rdf:resource="http://purl.org/dc/dcmitype/StillImage" />
      </cc:Work>
    </rdf:RDF>
  </metadata>
  <defs
     id="defs7" />
  <sodipodi:namedview
     pagecolor="#ffffff"
     bordercolor="#666666"
     borderopacity="1"
     objecttolerance="10"
     gridtolerance="10"
     guidetolerance="10"
     inkscape:pageopacity="0"
     inkscape:pageshadow="2"
     inkscape:window-width="640"
     inkscape:window-height="480"
     id="namedview5"
     showgrid="false"
     inkscape:zoom="0.27441406"
     inkscape:cx="512"
     inkscape:cy="512"
     inkscape:window-x="0"
     inkscape:window-y="25"
     inkscape:window-maximized="0"
     inkscape:current-layer="U53C8" />
  <path
     style="fill:#2b1100;fill-opacity:1;fill-rule:nonzero;stroke:none"
     d="M 497.71875 344.96875 C 460.94791 345.23214 424.26803 348.22175 388.3125 356.84375 C 351.148 366.28775 314.47245 377.6775 279.59375 393.8125 C 262.79665 402.1435 302.0779 481.33 318.875 473 C 347.6818 458.439 378.5871 448.99425 409.75 441.03125 C 449.6302 431.55625 490.5788 430.6785 531.3125 432.3125 C 564.932 433.9695 598.2888 438.6675 631.375 444.6875 C 643.0801 448.6625 659.17365 447.44075 669.40625 455.46875 C 665.81865 454.53675 665.3514 453.01025 666.4375 458.03125 C 669.0907 470.00125 667.08455 481.92825 664.34375 493.65625 C 656.52305 520.40225 640.4254 543.4205 624.0625 565.5625 C 594.5072 603.2015 559.65245 636.15525 524.34375 668.28125 C 513.0649 678.27459 501.67468 688.13476 490.15625 697.84375 C 478.75213 688.62671 467.57303 679.09869 456.75 669.15625 C 422.0435 636.85725 388.5287 603.15325 359.375 565.65625 C 341.266 541.95625 323.3765 517.82025 310.25 490.90625 C 301.8026 474.15725 222.83385 513.96975 231.28125 530.71875 C 247.89995 562.03275 268.815 590.67825 290.4375 618.65625 C 322.7457 659.80625 359.776 696.82475 398.0625 732.34375 C 405.85936 739.46845 413.80145 746.37496 421.875 753.15625 C 410.05414 762.41418 398.18261 771.60737 386.25 780.71875 C 346.7396 810.25675 306.777 839.2215 265.625 866.4375 C 280.365 859.0965 220.2892 893.9595 230.9375 885.5625 C 212.673 889.8885 233.0479 975.98225 251.3125 971.65625 C 274.391 964.74225 294.595 952.5635 314.25 938.6875 C 356.4196 909.8585 397.6047 879.65575 438.4375 848.96875 C 456.52445 835.11206 474.52931 821.1063 492.375 806.9375 C 509.15309 818.71422 526.18497 830.13992 543.34375 841.34375 C 587.07595 869.93775 634.08855 892.54125 682.34375 912.28125 C 717.14205 926.05225 753.28665 935.9205 789.21875 946.1875 C 804.06285 950.8775 819.00995 954.82375 834.34375 957.46875 C 852.86285 960.27775 866.11285 872.96525 847.59375 870.15625 C 835.67715 869.00325 824.3791 864.6645 812.8125 861.8125 C 779.9179 852.8055 746.8636 844.14275 715 831.84375 C 671.7412 814.45775 629.5362 794.525 590.3125 769.125 C 580.6658 762.87531 571.06337 756.55655 561.53125 750.125 C 568.48334 744.18101 575.41307 738.19988 582.28125 732.15625 C 621.90825 696.32625 660.8455 659.39125 693.9375 617.28125 C 717.6662 585.27725 740.04135 551.704 750.15625 512.625 C 755.78075 486.399 758.44295 459.83425 751.34375 433.53125 C 744.15555 410.06325 732.7661 389.36675 710.5 377.09375 C 690.3009 367.16975 668.6691 361.70175 646.4375 358.34375 C 609.3788 352.11875 572.0715 347.189 534.5 345.5 C 522.24502 345.08525 509.9757 344.88095 497.71875 344.96875 z "
     id="path13297" />
</svg>
