<?xml version="1.0" encoding="UTF-8" standalone="no"?>
<svg
   xmlns:dc="http://purl.org/dc/elements/1.1/"
   xmlns:cc="http://creativecommons.org/ns#"
   xmlns:rdf="http://www.w3.org/1999/02/22-rdf-syntax-ns#"
   xmlns:svg="http://www.w3.org/2000/svg"
   xmlns="http://www.w3.org/2000/svg"
   xmlns:sodipodi="http://sodipodi.sourceforge.net/DTD/sodipodi-0.dtd"
   xmlns:inkscape="http://www.inkscape.org/namespaces/inkscape"
   width="1024"
   height="1024"
   id="U5361"
   version="1.1"
   inkscape:version="0.48.0 r9654"
   sodipodi:docname="U+5361.svg">
  <metadata
     id="metadata12">
    <rdf:RDF>
      <cc:Work
         rdf:about="">
        <dc:format>image/svg+xml</dc:format>
        <dc:type
           rdf:resource="http://purl.org/dc/dcmitype/StillImage" />
      </cc:Work>
    </rdf:RDF>
  </metadata>
  <defs
     id="defs10" />
  <sodipodi:namedview
     pagecolor="#ffffff"
     bordercolor="#666666"
     borderopacity="1"
     objecttolerance="10"
     gridtolerance="10"
     guidetolerance="10"
     inkscape:pageopacity="0"
     inkscape:pageshadow="2"
     inkscape:window-width="640"
     inkscape:window-height="480"
     id="namedview8"
     showgrid="false"
     inkscape:zoom="0.27441406"
     inkscape:cx="512"
     inkscape:cy="512"
     inkscape:window-x="0"
     inkscape:window-y="25"
     inkscape:window-maximized="0"
     inkscape:current-layer="U5361" />
  <path
     style="fill:#2b0000;fill-opacity:1;fill-rule:nonzero;stroke:#f9f9f9;stroke-width:0.1;stroke-miterlimit:4;stroke-dasharray:none"
     d="M 428.40625 202.15625 C 409.36472 202.20542 392.26344 205.94113 391.84375 214.125 C 391.64455 266.544 393.6849 318.9445 395.75 371.3125 C 397.515 413.4415 400.39795 455.5165 403.53125 497.5625 C 404.99665 515.8095 490.99665 508.90425 489.53125 490.65625 C 487.36269 465.52415 485.38657 440.36303 483.8125 415.1875 C 514.47503 405.16151 546.28403 399.46938 578.1875 395.03125 C 607.5763 391.47825 637.19365 390.29625 666.65625 393.28125 C 685.14555 394.86425 692.6143 307.709 674.125 306.125 C 638.1342 303.437 602.0781 304.4115 566.25 309.0625 C 537.25507 313.09351 508.39337 318.09717 480 325.125 C 478.96304 289.63437 478.46328 254.12348 480.03125 218.65625 C 480.57091 208.13356 452.88822 202.09303 428.40625 202.15625 z M 701.65625 513.4375 C 671.76284 513.58588 641.87244 515.14088 612.03125 518.0625 C 525.60165 525.4005 439.23985 533.54025 352.71875 539.78125 C 293.99215 544.80625 234.71845 549.2205 177.46875 564.0625 C 159.55555 569.6175 185.74295 654.055 203.65625 648.5 C 254.46385 633.391 307.8487 629.4405 360.375 624.4375 C 373.20465 623.40098 386.01685 622.32034 398.84375 621.25 C 399.69102 646.98878 400.90422 672.71294 402.03125 698.4375 C 404.28185 754.0465 407.00575 809.647 411.46875 865.125 C 412.89085 882.354 414.7038 899.5305 416.8125 916.6875 C 419.3279 935.1345 506.29665 923.2605 503.78125 904.8125 C 501.39185 889.1295 499.44025 873.418 497.90625 857.625 C 492.85435 803.54 490.07745 749.287 488.28125 695 C 487.30996 667.97099 486.15333 640.901 485.875 613.84375 C 530.22976 610.04466 574.58984 606.28018 618.96875 602.78125 C 667.51785 598.45025 716.1528 597.85175 764.6875 602.09375 C 783.0194 603.51675 789.73805 517.07925 771.40625 515.65625 C 748.15789 514.04406 724.90668 513.32209 701.65625 513.4375 z M 525.46875 727.5625 C 507.67029 727.69576 484.64844 807.37169 502.0625 812.53125 C 543.3144 822.59325 585.7446 826.35825 627.8125 831.40625 C 658.6592 834.95525 689.22195 840.41625 719.59375 846.78125 C 737.64915 850.46425 754.9929 765.33925 736.9375 761.65625 C 704.2541 755.15125 671.4172 749.448 638.3125 745.5 C 601.1222 740.862 563.43445 737.6075 527.15625 727.8125 C 526.5945 727.64606 526.04289 727.5582 525.46875 727.5625 z "
     id="path9881" />
</svg>
