<?xml version="1.0" encoding="UTF-8" standalone="no"?>
<svg
   xmlns:dc="http://purl.org/dc/elements/1.1/"
   xmlns:cc="http://creativecommons.org/ns#"
   xmlns:rdf="http://www.w3.org/1999/02/22-rdf-syntax-ns#"
   xmlns:svg="http://www.w3.org/2000/svg"
   xmlns="http://www.w3.org/2000/svg"
   xmlns:sodipodi="http://sodipodi.sourceforge.net/DTD/sodipodi-0.dtd"
   xmlns:inkscape="http://www.inkscape.org/namespaces/inkscape"
   width="1024"
   height="1024"
   id="U5360"
   version="1.1"
   inkscape:version="0.48.0 r9654"
   sodipodi:docname="U+5360.svg">
  <metadata
     id="metadata12">
    <rdf:RDF>
      <cc:Work
         rdf:about="">
        <dc:format>image/svg+xml</dc:format>
        <dc:type
           rdf:resource="http://purl.org/dc/dcmitype/StillImage" />
      </cc:Work>
    </rdf:RDF>
  </metadata>
  <defs
     id="defs10" />
  <sodipodi:namedview
     pagecolor="#ffffff"
     bordercolor="#666666"
     borderopacity="1"
     objecttolerance="10"
     gridtolerance="10"
     guidetolerance="10"
     inkscape:pageopacity="0"
     inkscape:pageshadow="2"
     inkscape:window-width="640"
     inkscape:window-height="480"
     id="namedview8"
     showgrid="false"
     inkscape:zoom="0.27441406"
     inkscape:cx="512"
     inkscape:cy="512"
     inkscape:window-x="0"
     inkscape:window-y="25"
     inkscape:window-maximized="0"
     inkscape:current-layer="U5360" />
  <path
     style="fill:#2b1100;fill-opacity:1;fill-rule:nonzero;stroke:none"
     d="M 494.0625 212.3125 C 467.68177 212.00691 423.82144 225.44169 426.6875 238.625 C 435.89439 274.783 441.17891 311.7635 447.09375 348.5625 C 454.76937 391.3315 464.64392 433.6695 474.125 476.0625 C 477.26305 489.05888 480.37359 502.09462 483.90625 515 C 480.67754 515.8926 477.43604 516.80367 474.21875 517.75 C 434.53373 529.76 395.32993 543.1835 357.15625 559.4375 C 351.28686 562.21751 351.99817 573.62002 356.125 587 C 331.15961 584.33499 279.56191 599.43498 282.8125 613.6875 C 292.56724 651.3455 301.73161 689.08875 312.53125 726.46875 C 324.91942 765.59975 337.2942 804.76375 349.84375 843.84375 C 355.47767 858.91675 352.45 851.7495 358.71875 865.3125 C 360.56064 868.97787 365.7769 869.96842 372.71875 869.0625 C 365.80309 871.04036 358.89782 873.126 352.03125 875.3125 C 334.16751 881.0285 361.13627 965.24825 379 959.53125 C 413.55673 946.96825 449.34379 938.8455 485.40625 932.0625 C 547.92775 921.6835 610.77878 913.31375 673.78125 906.46875 C 716.17841 903.05675 759.246 899.326 801.5625 905.5 C 820.02375 907.723 830.4925 820.69175 812.03125 818.46875 C 806.07669 817.8531 800.11893 817.35735 794.15625 816.96875 C 795.11545 811.52038 796.02871 806.05384 796.9375 800.59375 C 803.90387 759.53575 811.57085 718.5625 815.53125 677.0625 C 819.42675 638.2445 824.78096 599.402 825.375 560.375 C 820.66465 518.386 805.07377 495.748 761.875 488.25 C 724.03903 484.237 685.91145 485.887 648 488.125 C 622.01947 490.239 596.06331 493.04633 570.3125 496.9375 C 566.09253 483.63299 562.72186 470.04475 559.1875 456.5625 C 555.86039 442.38126 552.52299 428.19743 549.25 414 C 549.50884 413.94319 549.77761 413.8747 550.03125 413.78125 C 574.86248 404.16125 600.92641 398.6525 627.09375 394.1875 C 652.44711 390.5595 678.04552 387.7325 703.6875 387.8125 L 706.96875 388.375 C 725.65664 389.791 732.3129 301.69725 713.625 300.28125 C 709.84827 300.09325 706.08924 299.8745 702.3125 299.6875 C 672.18917 300.5645 642.10944 303.63175 612.3125 308.09375 C 584.97724 312.80059 557.85418 318.60553 531.375 326.875 C 525.77659 291.10746 520.45102 255.28206 513.15625 219.8125 C 512.03475 214.65353 504.3854 212.43208 494.0625 212.3125 z M 703 572.75 C 714.45775 572.64885 725.89539 572.92873 737.28125 573.9375 C 735.60921 605.56362 732.20851 637.12972 729.21875 668.65625 C 725.64345 707.92725 717.95069 746.5945 710.78125 785.3125 C 708.02859 795.88502 707.0837 807.12745 704.46875 817.84375 C 691.09002 818.76429 677.74058 819.93683 664.40625 821.25 C 599.41396 828.526 534.52968 837.04575 469.90625 847.09375 C 443.23287 851.82986 416.76196 857.36297 390.59375 864.1875 C 414.84373 855.03268 442.91416 835.96392 437.71875 825.625 C 434.66302 821.042 436.50495 824.114 433.03125 816 C 419.92204 778.437 407.61899 740.587 395.71875 702.625 C 388.65945 677.81014 382.35256 652.81466 376.5625 627.6875 C 383.23754 636.47074 390.01478 641.73623 395 639.375 C 428.68803 623.472 463.96414 611.368 499.5 600.375 C 549.9997 585.207 602.22271 578.09825 654.65625 574.28125 C 670.70118 573.75875 686.85896 572.8925 703 572.75 z M 748.625 575.21875 C 749.48789 575.33647 750.35678 575.43451 751.21875 575.5625 C 752.37809 575.9815 753.84351 575.9135 754.6875 576.8125 C 756.29102 578.51875 751.95403 576.91422 748.625 575.21875 z "
     id="path14145" />
</svg>
