<?xml version="1.0" encoding="utf-8" ?>

<!DOCTYPE svg PUBLIC "-//W3C//DTD SVG 1.1//EN" 
  "http://www.w3.org/Graphics/SVG/1.1/DTD/svg11.dtd">
<svg 
    xmlns="http://www.w3.org/2000/svg"
    xmlns:xlink="http://www.w3.org/1999/xlink"
    xmlns:sodipodi="http://sodipodi.sourceforge.net/DTD/sodipodi-0.dtd"
    xmlns:inkscape="http://www.inkscape.org/namespaces/inkscape"
    width="1024" height="1024" id="U5341">
<path d="m 8379.0509,43505.399 c 50.1902,3.883 100.6488,0.333 150.8216,-2.23 83.1494,-3.977 166.1805,-9.799 249.1653,-16.294 57.9795,-5.084 116.0563,-8.848 174.1869,-11.653 18.5734,-1.052 9.8528,-0.552 26.1622,-1.496 18.6382,-0.759 22.2184,87.102 3.5802,87.862 l 0,0 c -16.3053,0.38 -7.4708,0.15 -26.5028,0.717 -57.0754,1.474 -114.0911,4.527 -170.9968,9.22 -83.5679,6.156 -167.1552,11.996 -250.8145,16.788 -54.3877,3.324 -108.9214,7.306 -163.4367,5.074 -18.665,-1.662 -10.8305,-89.65 7.8346,-87.988 z" id="path12173" inkscape:connector-curvature="0" style="fill:#a02c2c;fill-opacity:1;fill-rule:nonzero;stroke:#f9f9f9;stroke-width:0.1;stroke-miterlimit:4;stroke-dasharray:none" transform="translate(-8192, -43008)"/><path d="m 8677.0441,43238.704 c -9.1194,55.689 -7.7578,112.541 -7.1835,168.771 2.2395,99.966 9.9002,199.711 17.4131,299.389 4.7364,65.644 11.4892,131.103 20.0973,196.347 0.8251,5.963 1.6501,11.926 2.4751,17.889 2.3141,18.355 -84.2115,29.264 -86.5256,10.909 l 0,0 c -0.6981,-6.118 -1.3963,-12.236 -2.0944,-18.355 -7.4003,-66.777 -13.6202,-133.672 -17.9463,-200.727 -6.9919,-101.284 -14.4776,-202.578 -17.8321,-304.064 -1.3871,-61.824 -3.203,-124.049 4.5357,-185.562 3.2674,-18.468 90.3282,-3.065 87.0607,15.403 z" id="path12175" inkscape:connector-curvature="0" style="fill:#a02c2c;fill-opacity:1;fill-rule:nonzero;stroke:#f9f9f9;stroke-width:0.1;stroke-miterlimit:4;stroke-dasharray:none" transform="translate(-8192, -43008)"/></svg>