<?xml version="1.0" encoding="utf-8" ?>

<!DOCTYPE svg PUBLIC "-//W3C//DTD SVG 1.1//EN" 
  "http://www.w3.org/Graphics/SVG/1.1/DTD/svg11.dtd">
<svg 
    xmlns="http://www.w3.org/2000/svg"
    xmlns:xlink="http://www.w3.org/1999/xlink"
    xmlns:sodipodi="http://sodipodi.sourceforge.net/DTD/sodipodi-0.dtd"
    xmlns:inkscape="http://www.inkscape.org/namespaces/inkscape"
    width="1024" height="1024" id="U53EF">
<path d="m 9453.4224,26865.8 c 22.1734,3.487 44.3918,6.585 66.7944,8.058 38.2972,0.428 76.5103,-3.731 114.6159,-7.127 46.5939,-4.517 93.3196,-7.361 140.0795,-9.418 35.0113,-2.106 70.0169,-0.591 104.8913,2.66 19.7674,2.537 39.621,2.892 59.4857,1.803 15.7294,-1.352 31.3532,-2.498 47.1077,-1.144 8.0552,0.635 15.9351,3.355 24.0431,3.464 -4.268,-0.544 -9.278,1.783 -13.5617,3.147 17.0737,-8.084 55.1807,72.402 38.1077,80.486 l 0,0 c -10.183,3.391 -19.807,5.943 -30.653,4.866 -9.1492,-0.749 -18.24,-1.98 -27.234,-3.85 -10.8861,-2.386 -22.5281,1.784 -33.4947,1.074 -24.1486,1.073 -48.3006,0.629 -72.3054,-2.54 -30.845,-3.152 -61.8158,-4.792 -92.8232,-3.073 -45.3311,1.719 -90.6289,4.339 -135.7742,8.887 -42.5564,3.961 -85.2293,8.896 -128.0261,8.186 -24.9104,-1.533 -49.6015,-4.73 -74.3484,-7.903 -18.5776,-2.778 -5.4822,-90.354 13.0954,-87.576 z" id="path8780" inkscape:connector-curvature="0" style="fill:#2b0000;fill-opacity:1;fill-rule:nonzero;stroke:#f9f9f9;stroke-width:0.1;stroke-miterlimit:4;stroke-dasharray:none" transform="translate(-9216, -26624)"/><path d="m 9518.785,27113.002 c 1.2947,26.957 3.4097,53.868 6.0442,80.725 2.3608,24.637 8.4054,48.642 14.8359,72.468 3.8349,14.328 8.4741,28.409 13.5306,42.346 0.3007,0.713 0.6013,1.425 0.902,2.137 6.6972,17.593 -76.2374,49.164 -82.9347,31.571 l 0,0 c -0.5561,-1.538 -1.1123,-3.076 -1.6684,-4.615 -5.3966,-16.139 -10.4735,-32.385 -14.7744,-48.855 -7.4653,-28.466 -14.3014,-57.164 -17.003,-86.545 -2.6928,-27.691 -4.8028,-55.428 -7.2299,-83.142 -1.2917,-18.731 87.006,-24.82 88.2977,-6.09 z" id="path8782" inkscape:connector-curvature="0" style="fill:#2b0000;fill-opacity:1;fill-rule:nonzero;stroke:#f9f9f9;stroke-width:0.1;stroke-miterlimit:4;stroke-dasharray:none" transform="translate(-9216, -26624)"/><path d="m 9487.0504,27088.856 c 25.0248,-11.627 51.3866,-19.64 78.2325,-25.735 26.4957,-6.389 53.1218,-5.644 79.6341,-0.343 14.2888,3.796 28.4291,7.635 43.1259,9.357 17.3844,1.027 34.2521,3.427 50.6921,9.226 31.761,16.123 38.3461,43.076 28.604,75.132 -4.9693,13.402 -8.2624,27.289 -11.1376,41.262 -3.7812,19.381 -6.9519,38.878 -9.8501,58.409 -2.5068,19.609 -5.4425,39.127 -9.7989,58.416 -1.9736,10.727 -5.8853,20.638 -10.6519,30.374 -9.1254,16.469 -86.7614,-26.549 -77.636,-43.018 l 0,0 c -2.7799,8.055 3.0391,-7.104 2.2628,-7.41 4.1178,-16.92 6.4419,-34.139 8.7528,-51.385 3.176,-21.081 6.5211,-42.144 10.5473,-63.081 3.4313,-16.809 7.2796,-33.547 12.8979,-49.783 1.9324,-5.87 1.5246,9.218 1.8536,10.179 3.6743,10.73 10.1806,19.13 20.9426,23.079 5.3379,0.402 -18.3446,-2.78 -19.0869,-2.853 -3.0028,-0.294 -6.0048,-0.597 -9.0072,-0.895 -17.2562,-2.134 -34.1271,-5.764 -50.8013,-10.711 -14.0981,-3.35 -28.0321,-3.689 -42.2562,-0.213 -19.9791,4.327 -39.6966,10.081 -58.0414,19.277 -16.8186,8.332 -56.0967,-70.951 -39.2781,-79.284 z" id="path8784" inkscape:connector-curvature="0" style="fill:#2b0000;fill-opacity:1;fill-rule:nonzero;stroke:#f9f9f9;stroke-width:0.1;stroke-miterlimit:4;stroke-dasharray:none" transform="translate(-9216, -26624)"/><path d="m 9490.9207,27288.241 c 28.6094,-0.139 57.1181,-2.637 85.5559,-5.542 33.1983,-4.432 66.4872,-7.5 99.9899,-7.145 20.1471,1.017 40.299,2.852 60.2163,6.099 6.5988,1.487 13.1652,2.863 19.9394,2.79 2.0802,0.114 4.1605,0.229 6.2408,0.343 18.7769,1.244 12.9128,89.759 -5.8641,88.515 l 0,0 c -0.5274,-0.06 -1.0547,-0.117 -1.582,-0.176 -11.4042,-0.249 -22.7501,-1.367 -33.8135,-4.29 -15.3875,-2.924 -31.0616,-4.281 -46.6563,-5.523 -29.987,-0.786 -59.7738,2.358 -89.4904,6.209 -30.7108,3.212 -61.4673,5.853 -92.3245,7.181 -18.7653,0.469 -20.9768,-87.992 -2.2115,-88.461 z" id="path8786" inkscape:connector-curvature="0" style="fill:#2b0000;fill-opacity:1;fill-rule:nonzero;stroke:#f9f9f9;stroke-width:0.1;stroke-miterlimit:4;stroke-dasharray:none" transform="translate(-9216, -26624)"/><path d="m 9927.5443,26912.581 c 4.0163,28.579 7.195,57.257 9.8081,85.995 3.0274,35.6 4.7192,71.296 5.9175,106.998 1.03,34.921 0.9168,69.86 0.8426,104.792 -0.064,25.862 0.017,51.726 -0.5523,77.583 -0.5832,24.097 -3.1477,48.076 -5.584,72.038 -1.8504,19.983 -4.4715,39.862 -7.5802,59.684 -3.3253,20.748 -6.8706,41.459 -10.6272,62.133 -2.4565,14.323 -5.2364,28.575 -9.0379,42.604 -4.5852,19.291 -16.2031,33.612 -31.7804,45.276 -7.2062,4.823 -15.1073,8.282 -23.0173,11.73 -17.241,7.416 -52.2036,-73.858 -34.9627,-81.275 l 0,0 c 2.459,-1.025 4.868,-2.178 7.3192,-3.19 -1.7324,2.243 -6.6097,11.938 -2.8961,3.702 3.3363,-11.454 5.4234,-23.209 7.6855,-34.91 3.7336,-19.749 7.2191,-39.542 10.235,-59.415 2.7513,-18.409 5.3238,-36.841 7.1397,-55.37 2.265,-21.62 4.64,-43.258 5.2232,-65.004 0.596,-25.337 0.62,-50.682 0.9157,-76.023 0.2671,-33.794 0.4728,-67.596 -0.5056,-101.382 -1.1795,-34.019 -2.8912,-68.026 -5.8648,-101.941 -2.4851,-26.584 -5.2308,-53.183 -9.9227,-79.484 -3.0846,-18.507 84.1601,-33.048 87.2447,-14.541 z" id="path8790" inkscape:connector-curvature="0" style="fill:#2b0000;fill-opacity:1;fill-rule:nonzero;stroke:#f9f9f9;stroke-width:0.1;stroke-miterlimit:4;stroke-dasharray:none" transform="translate(-9216, -26624)"/></svg>