<?xml version="1.0" encoding="utf-8" ?>

<!DOCTYPE svg PUBLIC "-//W3C//DTD SVG 1.1//EN" 
  "http://www.w3.org/Graphics/SVG/1.1/DTD/svg11.dtd">
<svg 
    xmlns="http://www.w3.org/2000/svg"
    xmlns:xlink="http://www.w3.org/1999/xlink"
    xmlns:sodipodi="http://sodipodi.sourceforge.net/DTD/sodipodi-0.dtd"
    xmlns:inkscape="http://www.inkscape.org/namespaces/inkscape"
    width="1024" height="1024" id="U53CD">
<path d="m 8772.1187,11453.899 c -38.4654,29.894 -76.3851,60.473 -113.9749,91.458 -51.7521,42.85 -101.4116,88.142 -149.7782,134.757 -11.6033,12.111 -24.3306,23.413 -34.4763,36.866 -0.8561,1.135 -3.0597,4.774 -2.1391,3.69 13.6708,-16.09 0.5715,-23.467 -5.3296,-52.722 -11.2238,-3.961 -22.4475,-7.922 -33.6713,-11.884 -0.7995,0.08 -3.0838,0.673 -2.3986,0.253 6.3299,-3.884 21.8804,-6.204 28.1079,-5.235 8.6713,1.349 16.8044,5.065 25.2067,7.598 6.5535,7.331 14.6496,13.531 19.6606,21.992 15.4731,26.124 3.0113,76.774 -1.8169,104.581 -10.8183,58.104 -26.0515,115.241 -41.1111,172.351 -12.7351,47.463 -23.9314,95.319 -33.8665,143.442 -3.9099,17.921 -88.3937,-0.51 -84.4838,-18.432 l 0,0 c 11.2632,-49.08 23.0179,-98.052 36.0761,-146.691 14.3735,-54.579 28.8656,-109.218 38.618,-164.858 2.4517,-15.294 3.8504,-22.569 5.4383,-37.388 0.4029,-3.761 0.6032,-7.54 0.8844,-11.311 0.1168,-1.568 -1.2418,-4.957 0.3098,-4.706 8.2013,1.329 -4.1459,33.17 17.5362,17.712 17.2588,3.376 12.7932,4.963 23.8367,2.167 0.397,-0.101 -0.8318,-0 -1.2235,0.112 -3.9613,1.209 -14.6391,5.631 -17.2031,5.255 -13.7523,-2.02 -26.8413,-7.236 -40.262,-10.854 -4.0215,-16.405 -10.7055,-32.378 -12.0646,-49.214 -1.0647,-13.189 47.2158,-55.815 55.5695,-64.651 50.3962,-47.167 101.5671,-93.529 154.3913,-137.975 37.2202,-31.238 74.8877,-61.94 111.9009,-93.422 14.236,-11.935 70.499,55.174 56.2631,67.109 z" id="path22769" inkscape:connector-curvature="0" style="fill:#550000;fill-opacity:1;fill-rule:nonzero;stroke:#f9f9f9;stroke-width:0.1;stroke-miterlimit:4;stroke-dasharray:none" transform="translate(-8192, -11264)"/><path d="m 8412.542,11869.279 c 24.2201,-33.926 61.2693,-52.348 98.1339,-69.265 52.0656,-22.544 106.589,-38.391 161.5154,-52.171 42.447,-10.243 85.4594,-18.87 129.2386,-19.189 34.3193,1.743 60.9295,19.941 64.5122,56.87 1.5176,15.644 -6.6162,30.57 -12.3992,44.2 -26.4945,48.501 -57.7073,94.286 -88.0679,140.42 -34.239,52.634 -70.472,103.884 -110.7844,152.04 -25.8964,27.875 -53.0634,59.52 -90.3521,72.244 -7.0997,2.423 -14.6199,3.37 -21.9298,5.055 -18.1667,3.177 -33.1427,-82.461 -14.976,-85.638 l 0,0 c 19.7154,4.232 49.7001,-35.787 61.93,-46.884 38.5555,-45.114 72.8109,-93.552 105.075,-143.338 27.6182,-42.385 55.7578,-84.611 79.8097,-129.157 7.25,-14.338 0.8551,0.516 12.771,13.873 6.2763,7.035 17.1345,10.233 17.5213,8.384 0.2833,-1.356 -2.6616,-0.763 -3.9924,-1.144 -36.4156,-1.458 -72.3387,7.59 -107.686,15.136 -49.7595,12.332 -99.1394,26.654 -146.165,47.335 -21.711,10.095 -45.6077,19.811 -60.8367,39.168 -10.1693,15.553 -83.4869,-32.386 -73.3176,-47.939 z" id="path22771" inkscape:connector-curvature="0" style="fill:#550000;fill-opacity:1;fill-rule:nonzero;stroke:#f9f9f9;stroke-width:0.1;stroke-miterlimit:4;stroke-dasharray:none" transform="translate(-8192, -11264)"/><path d="m 8492.6653,11922.643 c 43.7205,6.424 84.3558,24.895 124.7689,41.865 58.1681,24.906 116.9232,48.404 175.6961,71.836 46.095,18.039 92.1837,36.076 137.6816,55.58 3.8274,1.598 7.6548,3.196 11.4822,4.794 16.9109,7.361 -17.7902,87.079 -34.7011,79.718 l 0,0 c -3.9142,-1.772 -7.8285,-3.544 -11.7427,-5.316 -44.1343,-20.081 -89.1037,-38.183 -134.2238,-55.924 -59.0809,-23.654 -118.2106,-47.195 -176.9437,-71.705 -32.1687,-13.163 -64.5095,-28.104 -99.0746,-33.596 -18.5088,-1.497 -11.4517,-88.749 7.0571,-87.252 z" id="path22773" inkscape:connector-curvature="0" style="fill:#550000;fill-opacity:1;fill-rule:nonzero;stroke:#f9f9f9;stroke-width:0.1;stroke-miterlimit:4;stroke-dasharray:none" transform="translate(-8192, -11264)"/></svg>