<?xml version="1.0" encoding="utf-8" ?>

<!DOCTYPE svg PUBLIC "-//W3C//DTD SVG 1.1//EN" 
  "http://www.w3.org/Graphics/SVG/1.1/DTD/svg11.dtd">
<svg 
    xmlns="http://www.w3.org/2000/svg"
    xmlns:xlink="http://www.w3.org/1999/xlink"
    xmlns:sodipodi="http://sodipodi.sourceforge.net/DTD/sodipodi-0.dtd"
    xmlns:inkscape="http://www.inkscape.org/namespaces/inkscape"
    width="1024" height="1024" id="U53BB">
<path d="m 8508.3552,40317.425 c 48.4239,-7.662 97.5097,-8.928 146.4262,-10.034 53.3842,-1.05 106.7774,-1.483 160.1641,-0.476 21.186,0.537 11.1626,0.237 30.0707,0.87 18.5991,0.885 14.4273,88.562 -4.1718,87.677 l 0,0 c -17.6214,-1.108 -8.1911,-0.58 -28.2939,-1.524 -51.8549,-1.901 -103.7455,-1.833 -155.6189,-0.572 -44.1564,1.215 -88.6603,2.22 -132.1348,10.803 -18.4011,3.487 -34.8427,-83.256 -16.4416,-86.744 z" id="path11395" inkscape:connector-curvature="0" style="fill:#a02c2c;fill-opacity:1;fill-rule:nonzero;stroke:#f9f9f9;stroke-width:0.1;stroke-miterlimit:4;stroke-dasharray:none" transform="translate(-8192, -39936)"/><path d="m 8416.9432,40554.993 c 44.6683,-9.788 89.9041,-16.218 135.2375,-21.963 75.16,-9.209 150.7099,-14.372 226.3517,-17.256 54.2314,-1.874 108.4881,-0.6 162.6895,1.462 17.0215,0.588 9.319,0.489 23.1046,0.471 18.6715,0.402 16.7767,88.42 -1.8948,88.018 l 0,0 c -16.138,-0.64 -7.6511,-0.217 -25.4578,-1.328 -51.7255,-3.095 -103.5499,-4.893 -155.3716,-3.37 -72.9468,2.466 -145.807,7.453 -218.1982,17.031 -42.4248,5.836 -84.8855,12.037 -126.3189,23.143 -18.2875,4.272 -38.4295,-81.935 -20.142,-86.208 z" id="path11397" inkscape:connector-curvature="0" style="fill:#a02c2c;fill-opacity:1;fill-rule:nonzero;stroke:#f9f9f9;stroke-width:0.1;stroke-miterlimit:4;stroke-dasharray:none" transform="translate(-8192, -39936)"/><path d="m 8724.911,40165.665 c -9.7574,44.309 -12.6478,89.88 -16.3569,135.005 -5.2601,67.225 -8.0743,134.601 -10.3236,201.983 -0.8854,30.059 -1.7943,60.114 -3.1677,90.154 -0.9724,18.469 -88.037,13.885 -87.0646,-4.584 l 0,0 c 1.7746,-29.61 3.0412,-59.243 4.2286,-88.883 2.9858,-68.466 6.1803,-136.931 11.0136,-205.297 3.7003,-50.494 6.6007,-101.328 16.2128,-151.121 4.8244,-18.128 90.2823,4.614 85.4578,22.743 z" id="path11399" inkscape:connector-curvature="0" style="fill:#a02c2c;fill-opacity:1;fill-rule:nonzero;stroke:#f9f9f9;stroke-width:0.1;stroke-miterlimit:4;stroke-dasharray:none" transform="translate(-8192, -39936)"/><path d="m 8678.2874,40622.007 c -22.0867,20.934 -39.2523,46.363 -56.0934,71.524 -20.2358,31.224 -39.1131,63.512 -52.3374,98.37 -7.4822,18.845 2.2881,25.321 -3.216,10.483 -0.3559,-0.809 -1.292,-1.573 -1.0679,-2.428 0.1708,-0.652 1.2202,-0.652 1.8911,-0.713 17.9147,-1.64 35.4366,-2.876 53.3249,-5.606 48.6811,-8.903 97.477,-16.806 146.7019,-21.97 35.8092,-3.553 71.7977,-3.734 107.7227,-2.537 8.0965,0.293 16.1876,0.706 24.2777,1.134 18.728,1.24 12.8831,89.524 -5.8449,88.284 l 0,0 c -7.3919,-0.596 -14.7858,-1.173 -22.1903,-1.596 -31.7149,-1.69 -63.5146,-1.992 -95.1811,0.942 -47.7059,4.701 -94.9281,12.537 -141.9929,21.602 -43.7062,7.038 -88.9098,15.083 -127.4964,-12.393 -5.0007,-5.519 -10.8577,-10.369 -15.0019,-16.557 -18.5225,-27.657 -13.6723,-61.368 -3.2219,-90.795 16.367,-40.192 37.6258,-78.058 61.3336,-114.385 20.6151,-31.075 41.9384,-61.988 68.4449,-88.424 13.8023,-12.716 73.7496,52.348 59.9473,65.065 z" id="path11405" inkscape:connector-curvature="0" style="fill:#a02c2c;fill-opacity:1;fill-rule:nonzero;stroke:#f9f9f9;stroke-width:0.1;stroke-miterlimit:4;stroke-dasharray:none" transform="translate(-8192, -39936)"/><path d="m 8902.0469,40659.611 c 14.9933,32.73 30.9572,65.01 47.0931,97.189 15.8298,31.225 32.0145,62.269 48.2583,93.281 8.4837,16.452 -69.0722,56.445 -77.556,39.993 l 0,0 c -15.9674,-31.457 -32.0751,-62.841 -48.1537,-94.24 -16.5521,-32.683 -32.7991,-65.518 -49.4926,-98.129 -8.081,-16.939 71.77,-55.033 79.8509,-38.094 z" id="path11407" inkscape:connector-curvature="0" style="fill:#a02c2c;fill-opacity:1;fill-rule:nonzero;stroke:#f9f9f9;stroke-width:0.1;stroke-miterlimit:4;stroke-dasharray:none" transform="translate(-8192, -39936)"/></svg>