<?xml version="1.0" encoding="utf-8" ?>

<!DOCTYPE svg PUBLIC "-//W3C//DTD SVG 1.1//EN" 
  "http://www.w3.org/Graphics/SVG/1.1/DTD/svg11.dtd">
<svg 
    xmlns="http://www.w3.org/2000/svg"
    xmlns:xlink="http://www.w3.org/1999/xlink"
    xmlns:sodipodi="http://sodipodi.sourceforge.net/DTD/sodipodi-0.dtd"
    xmlns:inkscape="http://www.inkscape.org/namespaces/inkscape"
    width="1024" height="1024" id="U5355">
<path d="m 10592.54,7294.8686 c 17.83,24.8636 41.787,43.9003 66.362,61.6506 21.857,14.0515 10.792,7.4203 33.178,19.921 15.892,8.9708 -26.397,83.8864 -42.289,74.9157 l 0,0 c -28.04,-15.9632 -14.266,-7.5891 -41.324,-25.1204 -31.557,-22.8592 -61.803,-47.6069 -85.827,-78.5994 -11.193,-14.828 58.706,-67.5954 69.9,-52.7675 z" id="path21639" inkscape:connector-curvature="0" style="fill:#800000;fill-opacity:1;fill-rule:nonzero;stroke:#f9f9f9;stroke-width:0.1;stroke-miterlimit:4;stroke-dasharray:none" transform="translate(-10240, -7168)"/><path d="m 10904.132,7334.6048 c -22.696,21.8915 -43.132,46.0336 -64.294,69.3892 -22.307,24.8812 -45.914,48.5198 -69.87,71.7974 -13.065,12.662 -72.754,-48.9271 -59.689,-61.5892 l 0,0 c 22.596,-21.8363 44.821,-44.0606 65.618,-67.6408 22.766,-25.5735 44.749,-51.8966 68.726,-76.3561 13.661,-12.6236 73.17,51.7759 59.509,64.3995 z" id="path21641" inkscape:connector-curvature="0" style="fill:#800000;fill-opacity:1;fill-rule:nonzero;stroke:#f9f9f9;stroke-width:0.1;stroke-miterlimit:4;stroke-dasharray:none" transform="translate(-10240, -7168)"/><path d="m 10522.483,7538.1921 c -4.797,26.8055 0.03,53.8538 5.155,80.2092 7.755,35.2016 18.736,69.5756 30.239,103.7002 5.75,17.4542 -76.53,44.5597 -82.28,27.1055 l 0,0 c -12.16,-37.7393 -24.112,-75.6218 -32.595,-114.3907 -7.218,-37.2871 -12.629,-75.2319 -6.532,-113.1386 3.503,-18.2459 89.516,-1.7316 86.013,16.5144 z" id="path21643" inkscape:connector-curvature="0" style="fill:#800000;fill-opacity:1;fill-rule:nonzero;stroke:#f9f9f9;stroke-width:0.1;stroke-miterlimit:4;stroke-dasharray:none" transform="translate(-10240, -7168)"/><path d="m 10496.774,7510.4396 c 33.217,-28.5189 76.575,-37.1021 118.465,-44.4314 52.467,-8.1775 105.563,-5.3832 158.26,-1.7107 37.537,3.2139 75.129,6.6592 112.239,13.2808 31.122,6.1826 57.8,23.3472 67.8,54.9585 2.031,6.4219 2.297,13.2738 3.446,19.9108 1.032,38.1816 -12.333,74.2645 -26.172,109.2172 -7.516,18.5806 -16.787,36.32 -26.195,53.9831 -8.653,16.1507 -84.788,-24.639 -76.135,-40.7897 l 0,0 c 7.935,-14.7075 15.708,-29.5011 21.989,-45.0164 8.621,-21.7516 16.976,-43.8617 19.91,-67.2277 0.21,-0.057 9.79,5.1085 9.396,4.3981 -1.754,-3.1655 -9.022,-1.8092 -10.083,-4.0256 -33.746,-6.751 -68.117,-9.8412 -102.34,-13.0999 -45.677,-3.3823 -91.738,-6.3083 -137.255,0.7252 -24.146,4.2614 -49.784,8.1111 -70.921,21.4211 -13.066,13.2378 -75.47,-48.3556 -62.404,-61.5934 z" id="path21645" inkscape:connector-curvature="0" style="fill:#800000;fill-opacity:1;fill-rule:nonzero;stroke:#f9f9f9;stroke-width:0.1;stroke-miterlimit:4;stroke-dasharray:none" transform="translate(-10240, -7168)"/><path d="m 10567.155,7599.9595 c 38.04,-4.2428 76.232,-6.9905 114.421,-9.4849 40.945,-2.7831 82.006,-2.0699 122.81,2.1421 18.294,2.0876 8.453,88.3269 -9.842,86.2392 l 0,0 c -35.57,-4.5543 -71.495,-5.0134 -107.27,-2.6525 -35.862,2.4267 -71.806,4.9569 -107.359,10.3889 -18.378,2.7068 -31.137,-83.926 -12.76,-86.6328 z" id="path21647" inkscape:connector-curvature="0" style="fill:#800000;fill-opacity:1;fill-rule:nonzero;stroke:#f9f9f9;stroke-width:0.1;stroke-miterlimit:4;stroke-dasharray:none" transform="translate(-10240, -7168)"/><path d="m 10602.783,7710.7256 c 27.758,9.0391 57.493,9.7534 86.4,11.1238 42.382,1.2234 84.783,1.7354 127.177,2.3725 16.322,0.066 8.859,0.2229 22.392,-0.2954 18.486,-0.3438 20.106,86.7974 1.621,87.1412 l 0,0 c -16.701,0.062 -8.037,0.149 -25.992,-0.3169 -43.021,-1.32 -86.052,-2.0986 -129.079,-3.1902 -42.871,-1.8605 -87.395,-3.0722 -127.04,-21.3098 -16.021,-9.4441 28.499,-84.9694 44.521,-75.5252 z" id="path21649" inkscape:connector-curvature="0" style="fill:#800000;fill-opacity:1;fill-rule:nonzero;stroke:#f9f9f9;stroke-width:0.1;stroke-miterlimit:4;stroke-dasharray:none" transform="translate(-10240, -7168)"/><path d="m 10738.948,7515.7671 c -5.12,42.8525 -8.668,85.8904 -12.754,128.854 -6.923,67.5126 -11.953,135.1791 -14.729,202.9852 -1.921,55.5199 -0.595,111.0752 1.769,166.5556 1,17.8819 1.869,35.7652 2.474,53.6642 0.399,18.4035 -86.355,20.2853 -86.755,1.8818 l 0,0 c -0.14,-17.4523 -0.677,-34.8894 -1.478,-52.3254 -1.886,-57.7741 -2.991,-115.6079 -0.782,-173.3933 3.064,-69.1259 8.3,-138.1058 14.797,-206.9937 3.756,-44.2217 7.072,-88.4746 10.604,-132.7132 2.436,-18.4245 89.29,-6.9397 86.854,11.4848 z" id="path21651" inkscape:connector-curvature="0" style="fill:#800000;fill-opacity:1;fill-rule:nonzero;stroke:#f9f9f9;stroke-width:0.1;stroke-miterlimit:4;stroke-dasharray:none" transform="translate(-10240, -7168)"/><path d="m 10421.776,7908.8476 c 42.548,5.7151 85.632,1.9904 128.208,-1.3099 83.115,-8.5386 166.085,-18.3673 249.214,-26.8006 73.18,-7.6498 146.526,-13.4084 220.092,-15.1301 38.232,-0.4631 76.534,1.1798 114.473,6.0279 18.321,2.6933 5.625,89.0602 -12.696,86.367 l 0,0 c -33.049,-5.738 -66.753,-6.9235 -100.227,-7.2147 -71.276,0.9005 -142.349,6.1843 -213.254,13.3987 -83.622,8.3279 -167.048,18.2915 -250.54,27.8007 -48.815,4.3615 -97.984,8.5984 -146.946,3.6999 -18.421,-2.4768 -6.745,-89.3157 11.676,-86.8389 z" id="path21653" inkscape:connector-curvature="0" style="fill:#800000;fill-opacity:1;fill-rule:nonzero;stroke:#f9f9f9;stroke-width:0.1;stroke-miterlimit:4;stroke-dasharray:none" transform="translate(-10240, -7168)"/></svg>