<?xml version="1.0" encoding="UTF-8" standalone="no"?>
<svg
   xmlns:dc="http://purl.org/dc/elements/1.1/"
   xmlns:cc="http://creativecommons.org/ns#"
   xmlns:rdf="http://www.w3.org/1999/02/22-rdf-syntax-ns#"
   xmlns:svg="http://www.w3.org/2000/svg"
   xmlns="http://www.w3.org/2000/svg"
   xmlns:sodipodi="http://sodipodi.sourceforge.net/DTD/sodipodi-0.dtd"
   xmlns:inkscape="http://www.inkscape.org/namespaces/inkscape"
   width="1024"
   height="1024"
   id="U5386"
   version="1.1"
   inkscape:version="0.48.0 r9654"
   sodipodi:docname="U+5386.svg">
  <metadata
     id="metadata11">
    <rdf:RDF>
      <cc:Work
         rdf:about="">
        <dc:format>image/svg+xml</dc:format>
        <dc:type
           rdf:resource="http://purl.org/dc/dcmitype/StillImage" />
      </cc:Work>
    </rdf:RDF>
  </metadata>
  <defs
     id="defs9" />
  <sodipodi:namedview
     pagecolor="#ffffff"
     bordercolor="#666666"
     borderopacity="1"
     objecttolerance="10"
     gridtolerance="10"
     guidetolerance="10"
     inkscape:pageopacity="0"
     inkscape:pageshadow="2"
     inkscape:window-width="640"
     inkscape:window-height="480"
     id="namedview7"
     showgrid="false"
     inkscape:zoom="0.27441406"
     inkscape:cx="512"
     inkscape:cy="512"
     inkscape:window-x="0"
     inkscape:window-y="25"
     inkscape:window-maximized="0"
     inkscape:current-layer="U5386" />
  <path
     style="fill:#2b0000;fill-opacity:1;fill-rule:nonzero;stroke:#f9f9f9;stroke-width:0.1;stroke-miterlimit:4;stroke-dasharray:none"
     d="M 475.53125 158.59375 C 434.27842 158.8218 393.05033 160.2455 351.9375 164 C 307.6747 168.235 263.5735 173.75325 219.625 180.53125 C 206.11706 182.78244 210.27467 229.89786 220.6875 253.90625 C 207.70543 255.53539 197.88559 259.30806 197.65625 265.5 C 195.36065 306.426 187.14555 346.8315 179.71875 387.0625 C 164.17245 463.5615 149.62835 540.203 137.84375 617.375 C 129.45545 677.102 122.10415 736.98925 115.21875 796.90625 C 112.49035 822.11825 109.71455 847.32825 106.90625 872.53125 C 105.01345 891.01225 192.13855 899.9185 194.03125 881.4375 C 196.36465 856.4275 198.7398 831.4295 201.25 806.4375 C 207.5297 747.5625 214.37185 688.7505 222.21875 630.0625 C 233.43595 553.9565 247.66805 478.3835 263.90625 403.1875 C 272.74225 358.6695 282.23865 314.06725 286.15625 268.78125 C 286.28525 265.29874 283.34907 262.34285 278.46875 259.96875 C 305.64293 255.8335 332.9565 252.63231 360.3125 249.90625 C 411.9713 245.03925 463.88395 244.5515 515.71875 245.3125 C 557.96315 246.4935 600.20915 247.26125 642.46875 247.53125 C 668.90295 247.51325 695.32675 248.04225 721.71875 249.53125 C 722.68273 248.61685 739.55123 251.56533 743.1875 252.28125 C 736.59239 249.33188 739.41357 250.91602 732.75 245.5 C 748.12294 254.65138 809.90261 198.94182 797.78125 185.3125 C 784.43215 173.3805 791.3221 178.1485 777.4375 170.4375 C 760.8683 164.2895 743.72155 162.19975 726.09375 161.59375 C 698.31605 160.36875 670.52245 160.1055 642.71875 160.3125 C 600.73575 160.3275 558.75295 159.70775 516.78125 158.71875 C 503.03083 158.573 489.28219 158.51773 475.53125 158.59375 z M 743.1875 252.28125 C 743.28952 252.32687 743.29954 252.3271 743.40625 252.375 C 744.39142 252.52968 744.03292 252.4477 743.1875 252.28125 z M 545.5 262.78125 C 539.25379 262.92535 534.76983 264.53822 533.46875 268.125 C 520.64005 304.604 506.266 340.515 492.125 376.5 C 484.21713 396.78669 476.14329 417.02325 467.9375 437.1875 C 447.60156 438.28711 427.32372 439.91952 407.125 442.65625 C 372.5667 448.02125 338.34075 455.0815 304.15625 462.4375 C 285.91955 466.8495 306.73205 552.8495 324.96875 548.4375 C 356.53145 540.3855 388.3925 533.67675 420.5625 528.59375 C 423.78991 528.15993 427.01736 527.78198 430.25 527.40625 C 422.56507 545.35635 414.8054 563.27063 406.96875 581.15625 C 381.36325 637.86425 356.84275 695.03125 332.78125 752.40625 C 321.89445 778.48625 310.95965 804.53175 300.03125 830.59375 C 300.23155 830.70375 290.91745 851.74725 293.78125 845.28125 C 284.66805 861.80725 362.5742 904.776 371.6875 888.25 C 375.7655 880.347 378.68185 871.9645 381.90625 863.6875 C 392.07975 837.5275 402.43655 811.44925 412.90625 785.40625 C 435.99225 728.29325 459.7878 671.464 485 615.25 C 498.52811 584.23897 511.87618 553.15598 525.0625 522 C 532.83806 521.82349 540.60673 521.64268 548.375 521.46875 C 583.0543 520.68575 617.7747 520.54675 652.4375 521.96875 C 669.1067 522.81075 685.77405 524.2765 702.21875 527.1875 C 703.83171 527.43553 705.72219 527.96637 707.5625 528.625 C 707.52605 529.06265 707.5006 529.61613 707.53125 530.34375 C 707.52525 553.10875 701.1128 575.328 695.6875 597.25 C 682.2187 646.072 669.26335 695.0055 658.21875 744.4375 C 650.83735 777.6275 645.3033 811.17175 639.125 844.59375 C 637.1655 853.49175 638.1776 849.506 636.1875 856.625 C 631.6575 874.825 717.47 896.16875 722 877.96875 C 724.7256 866.21475 723.42165 872.325 725.84375 859.625 C 731.08885 827.371 735.9515 795.0295 742.8125 763.0625 C 753.3681 714.4665 766.165 666.48275 780 618.71875 C 788.3922 586.56475 797.6679 553.832 795.3125 520.25 C 791.9367 494.644 783.30855 471.38375 760.84375 456.46875 C 747.03095 448.41575 732.38095 442.354 716.46875 439.875 C 696.27395 436.757 675.88945 435.05275 655.46875 434.34375 C 624.18161 433.43377 592.88494 433.63264 561.59375 434.28125 C 565.10218 425.71422 568.61664 417.14269 572.09375 408.5625 C 587.08165 371.8665 602.08635 335.18375 616.71875 298.34375 C 621.82297 284.27253 570.00436 262.21595 545.5 262.78125 z M 711.53125 530.28125 C 712.53901 530.77498 713.39981 531.2815 714 531.71875 C 713.11097 531.51488 712.29318 530.9312 711.53125 530.28125 z "
     id="path9694" />
</svg>
