<?xml version="1.0" encoding="utf-8" ?>

<!DOCTYPE svg PUBLIC "-//W3C//DTD SVG 1.1//EN" 
  "http://www.w3.org/Graphics/SVG/1.1/DTD/svg11.dtd">
<svg 
    xmlns="http://www.w3.org/2000/svg"
    xmlns:xlink="http://www.w3.org/1999/xlink"
    xmlns:sodipodi="http://sodipodi.sourceforge.net/DTD/sodipodi-0.dtd"
    xmlns:inkscape="http://www.inkscape.org/namespaces/inkscape"
    width="1024" height="1024" id="U53D8">
<path d="m 11747.043,2146.9334 c 15.099,23.7622 33.932,44.7732 52.66,65.676 17.495,18.7507 34.278,38.0591 49.089,59.0024 10.495,15.1979 -61.148,64.6717 -71.643,49.4738 l 0,0 c -12.179,-18.3223 -27.124,-34.4779 -41.86,-50.7553 -21.418,-23.8968 -42.591,-48.0785 -60.912,-74.487 -10.375,-15.4148 62.291,-64.3248 72.666,-48.9099 z" id="path20129" inkscape:connector-curvature="0" style="fill:#aa0000;fill-opacity:1;fill-rule:nonzero;stroke:#f9f9f9;stroke-width:0.1;stroke-miterlimit:4;stroke-dasharray:none" transform="translate(-11264, -2048)"/><path d="m 11487.039,2350.3321 c 41.45,0.4648 82.779,-4.5919 123.96,-8.746 68.19,-7.3072 136.53,-12.8486 204.995,-16.7337 51.592,-2.4914 103.245,-3.1089 154.878,-4.1956 25.157,-0.2979 50.267,-1.7154 75.375,-3.184 10.713,-0.222 5.01,-0.3749 17.102,0.6904 18.426,2.9316 4.606,89.7912 -13.82,86.8596 l 0,0 c 5.257,-0.034 5.487,0.04 0.698,-0.195 -25.997,0.8233 -51.985,2.0285 -78.004,2.0117 -50.539,0.5251 -101.096,0.6031 -151.601,2.7664 -67.053,3.5127 -133.97,8.9211 -200.678,16.647 -44.918,4.958 -89.891,10.595 -135.113,11.677 -18.582,-0.4685 -16.374,-88.0662 2.208,-87.5978 z" id="path20131" inkscape:connector-curvature="0" style="fill:#aa0000;fill-opacity:1;fill-rule:nonzero;stroke:#f9f9f9;stroke-width:0.1;stroke-miterlimit:4;stroke-dasharray:none" transform="translate(-11264, -2048)"/><path d="m 11703.609,2370.0209 c 0.154,36.7814 0.928,73.5565 2.068,110.3193 2.047,30.2936 1.025,61.5549 9.35,91.0266 0.486,0.6521 0.973,1.3042 1.459,1.9563 7.014,17.148 -73.822,50.2128 -80.836,33.0647 l 0,0 c -1.736,-4.7804 -3.471,-9.5609 -5.207,-14.3413 -8.05,-35.7891 -9.551,-72.4585 -10.762,-109.0318 -1.148,-36.8136 -1.832,-73.6474 -3.568,-110.4391 -0.542,-18.5607 86.954,-21.1154 87.496,-2.5547 z" id="path20133" inkscape:connector-curvature="0" style="fill:#aa0000;fill-opacity:1;fill-rule:nonzero;stroke:#f9f9f9;stroke-width:0.1;stroke-miterlimit:4;stroke-dasharray:none" transform="translate(-11264, -2048)"/><path d="m 11864.903,2373.0025 c 7.592,33.9893 11.976,68.4785 14.917,103.1417 2.969,42.4542 2.308,85.0345 1.598,127.5504 -0.299,14.9801 -0.397,29.964 -1.093,44.9321 -1.283,18.5361 -88.663,12.4868 -87.38,-6.0493 l 0,0 c 1.408,-13.5603 1.436,-27.2163 2.042,-40.8259 1.12,-39.385 1.887,-78.8492 -0.964,-118.1857 -2.718,-30.7507 -6.637,-61.4331 -14.589,-91.3329 -4.079,-18.1306 81.389,-37.361 85.469,-19.2304 z" id="path20135" inkscape:connector-curvature="0" style="fill:#aa0000;fill-opacity:1;fill-rule:nonzero;stroke:#f9f9f9;stroke-width:0.1;stroke-miterlimit:4;stroke-dasharray:none" transform="translate(-11264, -2048)"/><path d="m 11565.976,2485.0985 c -12.891,23.1446 -25.739,46.2996 -39.078,69.1915 -9.738,16.1367 -18.895,32.5505 -26.488,49.8016 -7.609,16.7684 -86.656,-19.1024 -79.047,-35.8708 l 0,0 c 9.137,-19.7168 19.318,-38.8518 30.594,-57.4428 13.006,-22.4828 25.663,-45.1552 37.422,-68.3213 9.046,-16.2487 85.643,26.393 76.597,42.6418 z" id="path20137" inkscape:connector-curvature="0" style="fill:#aa0000;fill-opacity:1;fill-rule:nonzero;stroke:#f9f9f9;stroke-width:0.1;stroke-miterlimit:4;stroke-dasharray:none" transform="translate(-11264, -2048)"/><path d="m 11946.297,2453.1361 c 18.224,21.9135 38.439,42.0463 58.932,61.8134 12.802,11.849 25.722,23.5155 37.81,36.0974 12.627,13.535 -51.177,73.0605 -63.805,59.5255 l 0,0 c -10.599,-11.9399 -22.794,-22.2728 -34.211,-33.4097 -22.237,-21.5846 -44.084,-43.5684 -64.831,-66.6022 -12.182,-14.023 53.923,-71.4473 66.105,-57.4244 z" id="path20139" inkscape:connector-curvature="0" style="fill:#aa0000;fill-opacity:1;fill-rule:nonzero;stroke:#f9f9f9;stroke-width:0.1;stroke-miterlimit:4;stroke-dasharray:none" transform="translate(-11264, -2048)"/><path d="m 11533.543,2664.1083 c 45.715,-11.4892 92.576,-17.3565 139.359,-22.4269 56.103,-5.6141 112.507,-6.1255 168.822,-4.9342 30.991,1.5529 62.282,2.1055 92.822,8.048 35.779,12.151 44.671,32.9314 34.333,70.3536 -4.3,15.5642 -28.291,29.8689 -40.329,38.8379 -43.437,30.4201 -87.357,60.1518 -131.171,90.0271 -59.639,40.3668 -120.276,79.2361 -181.059,117.8506 -44.723,28.435 -89.866,56.2547 -136.567,81.3391 -21.056,11.0121 -42.64,21.3169 -66.003,26.1508 -18.377,3.0061 -32.548,-83.6242 -14.171,-86.6303 l 0,0 c 10.283,-0.907 28.354,-10.8461 39.981,-15.9717 45.135,-23.1588 88.55,-49.4568 131.482,-76.4461 60.022,-37.8244 119.771,-76.1194 178.267,-116.2761 42.521,-29.4217 85.129,-58.7472 126.946,-89.1635 3.437,-2.6537 6.9,-5.2723 10.309,-7.9611 1.763,-1.3911 3.406,-5.6197 5.207,-4.2773 1.791,1.3351 -2.675,3.8821 -2.742,6.115 -0.66,22.0682 -1.493,46.4217 26.716,51.4764 -24.478,-7.1112 -51.222,-4.5971 -76.256,-7.6676 -52.429,-1.6395 -104.968,-1.4054 -157.207,3.9746 -41.251,4.6572 -82.737,9.7612 -122.786,21.0828 -17.713,5.5055 -43.666,-77.9957 -25.953,-83.5011 z" id="path20141" inkscape:connector-curvature="0" style="fill:#aa0000;fill-opacity:1;fill-rule:nonzero;stroke:#f9f9f9;stroke-width:0.1;stroke-miterlimit:4;stroke-dasharray:none" transform="translate(-11264, -2048)"/><path d="m 11507.852,2753.0344 c 23.599,22.7493 53.125,38.0355 81.767,53.3693 53.91,27.7252 110.129,50.5597 166.386,73.0011 53.048,21.1888 107.289,39.1418 161.423,57.3027 34.477,11.7638 69.195,22.8614 103.066,36.306 8.621,3.3577 16.943,7.4349 25.587,10.7318 17.165,7.2523 -17.023,88.1664 -34.187,80.9141 l 0,0 c -8.133,-3.6575 -16.155,-7.5551 -24.337,-11.1055 -31.943,-13.5275 -64.982,-24.1853 -97.673,-35.7241 -55.407,-19.0371 -110.955,-37.7558 -165.364,-59.5425 -59.085,-23.5949 -118.137,-47.5437 -174.964,-76.261 -36.773,-19.2995 -73.917,-39.1222 -104.427,-67.7805 -12.985,-13.3055 49.738,-74.5169 62.723,-61.2114 z" id="path20143" inkscape:connector-curvature="0" style="fill:#aa0000;fill-opacity:1;fill-rule:nonzero;stroke:#f9f9f9;stroke-width:0.1;stroke-miterlimit:4;stroke-dasharray:none" transform="translate(-11264, -2048)"/></svg>