<?xml version="1.0" encoding="utf-8" ?>

<!DOCTYPE svg PUBLIC "-//W3C//DTD SVG 1.1//EN" 
  "http://www.w3.org/Graphics/SVG/1.1/DTD/svg11.dtd">
<svg 
    xmlns="http://www.w3.org/2000/svg"
    xmlns:xlink="http://www.w3.org/1999/xlink"
    xmlns:sodipodi="http://sodipodi.sourceforge.net/DTD/sodipodi-0.dtd"
    xmlns:inkscape="http://www.inkscape.org/namespaces/inkscape"
    width="1024" height="1024" id="U5408">
<path d="m 10765.008,17597.568 c -33.358,23.675 -61.747,53.726 -90.236,82.871 -47.084,49.033 -91.086,100.896 -133.283,154.158 -20.763,27.417 -42.327,54.5 -60.118,84.006 -2.298,4.874 -2.328,4.69 0.507,-0.241 -5.828,17.703 -89.281,-9.772 -83.452,-27.474 l 0,0 c 5.702,-13.722 2.53,-7.437 9.247,-18.988 20.658,-31.449 44.062,-61.002 67.381,-90.494 44.396,-54.895 90.243,-108.646 138.691,-160.025 33.467,-34.911 66.852,-70.723 106.278,-99.046 15.959,-9.542 60.944,65.691 44.985,75.233 z" id="path24621" inkscape:connector-curvature="0" style="fill:#550000;fill-opacity:1;fill-rule:nonzero;stroke:#f9f9f9;stroke-width:0.1;stroke-miterlimit:4;stroke-dasharray:none" transform="translate(-10240, -17408)"/><path d="m 10779.71,17582.811 c 21.075,33.301 47.256,62.641 74.874,90.565 34.645,34.081 73.88,62.844 113.562,90.684 23.168,15.785 46.632,30.981 66.44,50.927 12.546,13.633 -51.721,72.776 -64.267,59.143 l 0,0 c -11.372,-18.139 -37.155,-25.186 -51.794,-39.953 -43.504,-31.042 -86.554,-63.002 -124.748,-100.564 -30.949,-31.199 -60.171,-63.942 -85.344,-100.062 -10.764,-15.12 60.514,-65.86 71.277,-50.74 z" id="path24623" inkscape:connector-curvature="0" style="fill:#550000;fill-opacity:1;fill-rule:nonzero;stroke:#f9f9f9;stroke-width:0.1;stroke-miterlimit:4;stroke-dasharray:none" transform="translate(-10240, -17408)"/><path d="m 10510.97,17857.147 c 44.131,-7.542 88.589,-12.797 133.101,-17.461 58.09,-5.911 116.416,-8.775 174.79,-9.059 18.826,1.636 68.614,-2.42 83.717,10.933 9.162,8.101 15.417,18.99 23.125,28.485 6.015,17.641 -77.145,45.992 -83.159,28.351 l 0,0 c 1.619,1.679 18.336,25.606 26.483,22.503 1.527,-0.582 -3.093,-1.108 -4.703,-1.385 -15.032,-2.591 -30.446,-2.261 -45.61,-3.06 -55.274,-0.488 -110.515,2.11 -165.494,7.988 -42.338,4.711 -84.731,9.784 -126.401,18.843 -18.272,3.362 -34.122,-82.776 -15.849,-86.138 z" id="path24625" inkscape:connector-curvature="0" style="fill:#550000;fill-opacity:1;fill-rule:nonzero;stroke:#f9f9f9;stroke-width:0.1;stroke-miterlimit:4;stroke-dasharray:none" transform="translate(-10240, -17408)"/><path d="m 10572.918,18055.149 c 4.376,24.333 10.608,48.278 17.569,71.984 4.477,12.875 7.8,26.626 15.24,38.223 9.002,16.235 -67.533,58.67 -76.535,42.435 l 0,0 c -9.447,-17.943 -16.526,-36.883 -22.07,-56.395 -7.492,-25.943 -14.147,-52.107 -20.036,-78.462 -3.773,-18.207 82.059,-35.992 85.832,-17.785 z" id="path24627" inkscape:connector-curvature="0" style="fill:#550000;fill-opacity:1;fill-rule:nonzero;stroke:#f9f9f9;stroke-width:0.1;stroke-miterlimit:4;stroke-dasharray:none" transform="translate(-10240, -17408)"/><path d="m 10553.374,18021.34 c 30.486,-25.913 68.784,-38.496 106.569,-49.461 43.564,-11.913 88.545,-15.894 133.532,-16.607 33.21,-0.418 65.923,4.087 97.224,15.126 25.83,9.975 43.768,28.098 56.546,52.118 12.166,28.444 6.668,57.601 -1.05,86.297 -8.467,28.552 -19.528,56.212 -32.392,83.042 -9.402,16.94 -4.382,8.665 -15.06,24.825 -10.374,15.293 -82.462,-33.61 -72.088,-48.902 l 0,0 c 6.12,-8.582 3.109,-3.975 8.926,-13.891 10.752,-21.806 19.757,-44.421 26.636,-67.76 2.251,-8.279 3.737,-17.477 6.285,-25.391 0.369,-4.344 -4.859,-6.712 -8.219,-8.62 -20.765,-8.653 -43.578,-9.994 -65.829,-10.54 -37.22,0.22 -74.467,3.271 -110.533,13.044 -24.038,6.954 -49.101,14.117 -69.34,29.457 -13.308,12.984 -74.515,-49.753 -61.207,-62.737 z" id="path24629" inkscape:connector-curvature="0" style="fill:#550000;fill-opacity:1;fill-rule:nonzero;stroke:#f9f9f9;stroke-width:0.1;stroke-miterlimit:4;stroke-dasharray:none" transform="translate(-10240, -17408)"/><path d="m 10598.991,18183.196 c 36.024,2.295 72.157,0.339 108.161,-1.386 50.8,-2.8 101.517,-6.887 152.273,-10.356 29.218,-1.876 58.47,-3.599 87.755,-3.809 2.102,0.01 4.203,0.03 6.304,0.04 18.592,0.481 16.325,88.124 -2.267,87.643 l 0,0 c -1.577,-0.08 -3.153,-0.161 -4.73,-0.242 -27.193,-0.724 -54.399,0.683 -81.548,2.075 -51.151,3.081 -102.236,7.092 -153.381,10.255 -39.126,2.149 -78.304,4.212 -117.505,3.236 -18.553,-1.047 -13.615,-88.507 4.938,-87.46 z" id="path24631" inkscape:connector-curvature="0" style="fill:#550000;fill-opacity:1;fill-rule:nonzero;stroke:#f9f9f9;stroke-width:0.1;stroke-miterlimit:4;stroke-dasharray:none" transform="translate(-10240, -17408)"/></svg>