<?xml version="1.0" encoding="UTF-8" standalone="no"?>
<svg
   xmlns:dc="http://purl.org/dc/elements/1.1/"
   xmlns:cc="http://creativecommons.org/ns#"
   xmlns:rdf="http://www.w3.org/1999/02/22-rdf-syntax-ns#"
   xmlns:svg="http://www.w3.org/2000/svg"
   xmlns="http://www.w3.org/2000/svg"
   xmlns:sodipodi="http://sodipodi.sourceforge.net/DTD/sodipodi-0.dtd"
   xmlns:inkscape="http://www.inkscape.org/namespaces/inkscape"
   width="1024"
   height="1024"
   id="U5462"
   version="1.1"
   inkscape:version="0.48.0 r9654"
   sodipodi:docname="U+5462.svg">
  <metadata
     id="metadata15">
    <rdf:RDF>
      <cc:Work
         rdf:about="">
        <dc:format>image/svg+xml</dc:format>
        <dc:type
           rdf:resource="http://purl.org/dc/dcmitype/StillImage" />
      </cc:Work>
    </rdf:RDF>
  </metadata>
  <defs
     id="defs13" />
  <sodipodi:namedview
     pagecolor="#ffffff"
     bordercolor="#666666"
     borderopacity="1"
     objecttolerance="10"
     gridtolerance="10"
     guidetolerance="10"
     inkscape:pageopacity="0"
     inkscape:pageshadow="2"
     inkscape:window-width="640"
     inkscape:window-height="480"
     id="namedview11"
     showgrid="false"
     inkscape:zoom="0.27441406"
     inkscape:cx="512"
     inkscape:cy="512"
     inkscape:window-x="0"
     inkscape:window-y="25"
     inkscape:window-maximized="0"
     inkscape:current-layer="U5462" />
  <path
     style="fill:#c83737;fill-opacity:1;fill-rule:nonzero;stroke:#f9f9f9;stroke-width:0.1;stroke-miterlimit:4;stroke-dasharray:none"
     d="M 638.875 169.28125 C 634.75829 169.29523 630.61659 169.33687 626.5 169.40625 C 595.0767 170.79025 563.78585 174.033 533.03125 180.875 C 523.63561 183.20369 524.78255 207.16857 530.5625 229.21875 C 522.41094 271.45842 515.11011 313.8419 507.53125 356.1875 C 495.02115 425.9095 479.773 495.10475 464.3125 564.21875 C 451.2988 620.94775 438.67115 677.76675 427.90625 734.96875 C 422.68435 762.54575 418.26275 790.247 414.09375 818 C 412.98405 825.246 413.5329 821.9515 412.5625 827.9375 C 409.9914 846.5725 497.83515 858.6985 500.40625 840.0625 C 501.10895 833.9315 500.71235 837.28675 501.59375 829.96875 C 504.85215 803.38775 508.561 776.83975 513.25 750.46875 C 523.1099 694.24075 535.1246 638.46125 547.6875 582.78125 C 553.32182 557.34599 558.92339 531.9001 564.4375 506.4375 C 584.43768 505.77152 604.43191 505.12097 624.4375 504.625 C 664.6916 503.593 704.97355 504.3865 745.21875 505.3125 C 761.64155 505.7155 778.06425 505.69575 794.46875 504.84375 C 805.72051 504.07225 807.98092 471.81595 803.9375 446.5625 C 818.037 449.72619 829.93612 449.57194 832.25 443.34375 C 835.1324 434.57275 837.8777 425.85675 838.6875 416.59375 C 842.0024 395.23775 845.37025 373.9125 848.71875 352.5625 C 852.54925 329.9755 857.2077 307.511 860.75 284.875 C 863.8272 261.583 865.3856 238.4085 853.4375 217.0625 C 839.5673 197.5665 821.91565 185.03725 798.03125 180.65625 C 774.02135 176.00725 749.6411 173.604 725.25 172 C 696.48315 170.39263 667.69199 169.18339 638.875 169.28125 z M 641.46875 256.6875 C 667.71202 256.71143 693.96654 257.83275 720.15625 259.4375 C 738.02011 260.92256 755.99857 262.36738 773.625 265.75 C 773.46576 268.62764 773.46549 271.83314 773.25 273.53125 C 769.9907 295.03925 765.7865 316.3715 762.125 337.8125 C 758.7177 359.3675 755.32355 380.9255 751.65625 402.4375 C 751.60105 403.1235 749.28975 412.333 749.21875 412.5 C 748.58083 414.21707 748.83904 416.05728 749.75 417.96875 C 748.73982 417.96751 747.72855 417.96948 746.71875 417.96875 C 705.28575 417.50275 663.83775 416.96875 622.40625 417.96875 C 609.19175 418.26439 595.96605 418.6159 582.75 418.96875 C 585.90377 403.23164 588.98502 387.46537 591.9375 371.6875 C 599.10311 333.62392 605.84575 295.44754 614.21875 257.625 C 619.55426 257.25565 624.87569 256.9675 630.21875 256.75 C 633.96776 256.7065 637.71971 256.68408 641.46875 256.6875 z M 309 326.78125 C 292.4716 326.77988 275.93875 327.447 259.4375 328.6875 C 225.6717 332.0205 192.25375 337.49225 159.53125 346.65625 C 141.50655 351.84725 165.9753 436.816 184 431.625 C 211.2318 422.755 239.4508 418.23125 267.875 415.53125 C 295.2506 413.74225 322.7661 413.40075 350.0625 416.34375 C 353.08514 416.88687 359.72789 418.01539 364.84375 419.6875 C 364.67418 420.32952 364.51547 421.24138 364.40625 422.625 C 363.55515 433.41 363.8577 429.91375 362.125 442.21875 C 356.2539 475.17875 348.41215 507.78525 340.40625 540.28125 C 338.55343 544.25435 337.24936 549.20132 336.1875 554.59375 C 309.56687 557.00342 282.9473 559.7766 256.375 562.625 C 234.60834 565.43825 212.90986 568.59733 191.21875 571.90625 C 180.66269 548.09281 175.50357 522.24772 170.4375 496.8125 C 163.9919 461.3225 158.123 425.67675 153.9375 389.84375 C 151.5775 371.24075 63.85865 382.36575 66.21875 400.96875 C 72.20365 438.10575 78.2699 475.26025 84.9375 512.28125 C 90.8601 546.25325 99.1424 579.78975 112.5625 611.59375 C 114.9634 615.75675 117.38045 619.8995 119.78125 624.0625 C 122.46913 628.27043 129.73878 627.95824 138.75 624.96875 C 142.76355 646.77551 151.43833 667.81123 160.6875 666.09375 C 196.0994 658.95575 231.78615 653.3935 267.59375 648.6875 C 302.56835 644.9485 337.6282 641.5795 372.75 639.5625 C 375.1365 639.46775 377.52029 639.42442 379.90625 639.40625 C 391.14047 643.69107 400.57082 644.73912 403.625 639.75 C 403.84585 639.31257 404.0604 638.8749 404.28125 638.4375 C 408.5323 635.81789 411.25876 627.9024 412.59375 617.8125 C 417.52909 599.01288 420.35403 579.705 425.28125 560.875 C 433.73255 525.551 442.3094 490.232 448.875 454.5 C 453.8029 419.686 456.05825 384.82175 429.78125 357.46875 C 408.93745 340.82775 385.26125 331.40325 358.53125 328.90625 C 342.0496 327.43325 325.5284 326.78262 309 326.78125 z M 367.90625 420.875 C 369.95234 421.81021 371.40014 422.86907 371.5625 424.0625 C 370.0611 423.28772 368.86462 422.01545 367.90625 420.875 z M 774.6875 532.75 C 772.21525 532.7388 770.24185 533.44425 768.90625 535 C 743.89435 565.399 718.1052 595.15775 692.6875 625.21875 C 682.35971 637.33032 672.21557 649.58298 662.0625 661.84375 C 665.82582 631.31101 669.56898 600.74506 675.40625 570.53125 C 679.02665 552.11425 592.21425 535.05175 588.59375 553.46875 C 583.22415 588.35575 579.14735 623.42375 574.96875 658.46875 C 570.45515 698.88875 564.4929 739.13575 561.625 779.71875 C 559.0913 813.31775 564.01605 844.9885 579.59375 874.8125 C 602.24585 908.5955 638.27145 916.9455 676.40625 919.5625 C 711.93455 920.1325 747.33615 916.351 782.65625 913 C 812.62235 910.293 842.42375 906.28 872.28125 902.625 C 891.38885 900.276 910.56405 898.409 929.71875 896.5 C 929.79802 895.63184 942.00286 895.51448 945.875 895.5 C 945.89575 895.50018 945.88603 895.49983 945.90625 895.5 C 964.3769 898.98634 981.25368 811.96495 962.78125 808.375 C 948.59535 806.187 934.54785 806.498 920.34375 808.625 C 900.67635 810.866 880.97345 813.0015 861.34375 815.5625 C 832.36235 819.2895 803.4148 823.32125 774.3125 826.03125 C 743.581 828.99625 712.7885 832.315 681.875 832.125 C 674.2819 831.727 662.90745 828.53825 656.09375 831.03125 C 649.4544 824.66078 648.75761 813.99896 648.875 803.6875 C 650.67463 803.70199 652.22962 803.22952 653.4375 802.15625 C 668.5797 788.28625 661.1667 795.54225 675.5625 780.40625 C 704.1103 748.06625 730.63495 714.01175 758.65625 681.21875 C 784.09535 651.38175 809.7863 621.7795 835.9375 592.5625 C 846.81301 579.89425 794.81872 532.84117 774.6875 532.75 z "
     id="path10359" />
</svg>
