<?xml version="1.0" encoding="utf-8" ?>

<!DOCTYPE svg PUBLIC "-//W3C//DTD SVG 1.1//EN" 
  "http://www.w3.org/Graphics/SVG/1.1/DTD/svg11.dtd">
<svg 
    xmlns="http://www.w3.org/2000/svg"
    xmlns:xlink="http://www.w3.org/1999/xlink"
    xmlns:sodipodi="http://sodipodi.sourceforge.net/DTD/sodipodi-0.dtd"
    xmlns:inkscape="http://www.inkscape.org/namespaces/inkscape"
    width="1024" height="1024" id="U5439">
<path d="m 8347.7728,6585.8819 c -7.7987,22.2827 -7.7043,45.8393 -6.2903,69.0812 3.0276,32.0306 12.7467,62.77 24.6496,92.4853 6.6673,17.1365 -74.1147,48.5666 -80.782,31.4301 l 0,0 c -14.5702,-38.3512 -26.5483,-77.8583 -30.0754,-118.9416 -1.9111,-34.4672 -1.1552,-69.0569 9.4819,-102.2644 5.9841,-17.6104 89.0003,10.599 83.0162,28.2094 z" id="path21309" inkscape:connector-curvature="0" style="fill:#800000;fill-opacity:1;fill-rule:nonzero;stroke:#f9f9f9;stroke-width:0.1;stroke-miterlimit:4;stroke-dasharray:none" transform="translate(-8192, -6144)"/><path d="m 8335.1722,6508.2294 c 34.2369,-13.7914 70.6537,-20.2935 107.0294,-25.3482 37.6644,-4.7626 67.1272,-6.8099 103.214,6.3833 44.9445,27.7427 40.8289,67.4011 31.7948,112.7112 -9.8468,40.2205 -19.6527,80.4095 -27.2865,121.1187 -5.4583,30.2387 -8.8386,60.7831 -11.269,91.3963 -1.6579,18.4036 -88.4134,10.5882 -86.7555,-7.8154 l 0,0 c 3.3358,-33.3356 7.3661,-66.6126 13.4704,-99.5713 7.7995,-40.9257 17.3802,-81.4307 26.9358,-121.9741 5.4598,-27.7136 0.4278,-1.1033 3.9465,-22.1737 0.1949,-1.1671 -0.4408,-3.3325 0.734,-3.473 2.7646,-0.3306 8.4644,12.7987 13.755,9.8991 3.038,-6.6998 -52.6693,-1.6183 -56.8299,-0.9343 -28.1998,3.7882 -56.6992,8.3435 -83.0027,19.7006 -16.9535,7.5808 -52.6897,-72.3384 -35.7363,-79.9192 z" id="path21311" inkscape:connector-curvature="0" style="fill:#800000;fill-opacity:1;fill-rule:nonzero;stroke:#f9f9f9;stroke-width:0.1;stroke-miterlimit:4;stroke-dasharray:none" transform="translate(-8192, -6144)"/><path d="m 8322.0354,6794.7844 c 40.8872,-5.4534 81.7403,-11.1689 122.6018,-16.814 33.6642,-4.6854 67.397,-8.8466 101.1222,-13.0619 18.2639,-2.1224 28.269,83.9745 10.0051,86.0969 l 0,0 c -33.1569,3.5608 -66.3082,7.2058 -99.3411,11.8036 -40.619,5.6746 -81.2585,11.3301 -121.6282,18.6081 -18.3776,2.7068 -31.1374,-83.926 -12.7598,-86.6327 z" id="path21313" inkscape:connector-curvature="0" style="fill:#800000;fill-opacity:1;fill-rule:nonzero;stroke:#f9f9f9;stroke-width:0.1;stroke-miterlimit:4;stroke-dasharray:none" transform="translate(-8192, -6144)"/><path d="m 8759.3103,6335.5063 c -9.4041,44.8561 -20.5548,89.2902 -32.4491,133.5417 -12.7155,48.6653 -29.9579,96.2801 -38.1488,146.0191 -3.2923,18.0218 -88.2479,2.5015 -84.9555,-15.5203 l 0,0 c 10.1594,-51.6767 27.0264,-101.602 40.6917,-152.4066 11.1668,-42.4997 21.8518,-85.1787 29.0478,-128.5632 3.5912,-18.2038 89.4051,-1.2746 85.8139,16.9293 z" id="path21315" inkscape:connector-curvature="0" style="fill:#800000;fill-opacity:1;fill-rule:nonzero;stroke:#f9f9f9;stroke-width:0.1;stroke-miterlimit:4;stroke-dasharray:none" transform="translate(-8192, -6144)"/><path d="m 8710.885,6427.1459 c 28.4694,-25.118 64.3662,-37.2152 100.2063,-47.4588 40.5992,-10.6429 82.1341,-17.0372 123.7971,-21.678 30.099,-3.6804 59.7743,-4.7003 88.9427,4.1027 39.9046,18.8095 46.4314,57.3802 46.6975,97.325 -2.6788,50.6682 -15.4241,100.0304 -28.553,148.8107 -13.5002,46.1294 -26.6405,92.4096 -42.2808,137.8704 -2.1764,5.4151 -4.3529,10.8303 -6.5294,16.2454 -7.0852,16.9715 -87.0895,-16.4282 -80.0043,-33.3997 l 0,0 c 1.7002,-3.8708 3.4003,-7.7417 5.1005,-11.6125 15.6862,-43.1031 28.192,-87.2945 41.1412,-131.2751 11.1063,-41.4686 21.9655,-83.4198 24.4685,-126.4568 0.022,-3.6949 0.126,-7.3901 0.067,-11.0846 -0.049,-3.0523 -2.6525,-7.195 -0.3103,-9.1528 1.2133,-1.0141 8.2813,7.1224 10.8628,5.1235 -13.1956,-6.2944 -35.1021,-0.3744 -50.4158,-0.5653 -36.8012,3.7479 -73.4799,9.2623 -109.2943,18.7111 -22.0056,6.2758 -45.1129,12.6092 -63.0465,27.5436 -13.3746,12.9082 -74.2241,-50.1407 -60.8494,-63.0488 z" id="path21317" inkscape:connector-curvature="0" style="fill:#800000;fill-opacity:1;fill-rule:nonzero;stroke:#f9f9f9;stroke-width:0.1;stroke-miterlimit:4;stroke-dasharray:none" transform="translate(-8192, -6144)"/><path d="m 8871.6257,6507.0799 c -9.6734,41.7491 -24.3468,82.0468 -39.3705,122.1004 -26.6904,68.4587 -55.8123,135.9357 -85.5771,203.1034 -24.9382,57.4718 -52.9473,113.4976 -83.1258,168.375 -12.5918,21.9144 -24.4676,44.2969 -38.9405,65.0503 -10.9759,14.959 -81.4934,-36.7819 -70.5175,-51.7409 l 0,0 c 13.7025,-16.8317 22.8241,-37.0026 34.5734,-55.1363 29.6477,-52.2181 56.7974,-105.7868 80.8288,-160.8389 29.1483,-65.4342 57.5317,-131.2464 82.8078,-198.2907 12.9995,-35.9198 26.058,-72.0578 33.3383,-109.664 3.6151,-18.2397 89.5982,-1.198 85.9831,17.0417 z" id="path21319" inkscape:connector-curvature="0" style="fill:#800000;fill-opacity:1;fill-rule:nonzero;stroke:#f9f9f9;stroke-width:0.1;stroke-miterlimit:4;stroke-dasharray:none" transform="translate(-8192, -6144)"/><path d="m 8785.2313,6846.1862 c 24.3684,19.198 49.5825,37.1489 75.9046,53.5564 39.7944,23.8385 82.9921,41.103 125.7665,58.7212 40.3176,16.2539 79.9024,34.1581 118.7034,53.7412 11.273,5.8375 22.5164,11.7318 33.7615,17.6226 16.2907,8.7608 -25.0084,85.5558 -41.2991,76.7949 l 0,0 c -10.6122,-5.8601 -21.2344,-11.7025 -31.9223,-17.4239 -36.4529,-18.9943 -73.8058,-36.1057 -111.9062,-51.5507 -47.0808,-19.4481 -94.5774,-38.54 -138.4682,-64.659 -27.7057,-17.0645 -54.355,-35.5771 -80.5341,-54.8936 -15.2542,-10.6054 34.7397,-82.5144 49.9939,-71.9091 z" id="path21321" inkscape:connector-curvature="0" style="fill:#800000;fill-opacity:1;fill-rule:nonzero;stroke:#f9f9f9;stroke-width:0.1;stroke-miterlimit:4;stroke-dasharray:none" transform="translate(-8192, -6144)"/></svg>