<?xml version="1.0" encoding="UTF-8" standalone="no"?>
<svg
   xmlns:dc="http://purl.org/dc/elements/1.1/"
   xmlns:cc="http://creativecommons.org/ns#"
   xmlns:rdf="http://www.w3.org/1999/02/22-rdf-syntax-ns#"
   xmlns:svg="http://www.w3.org/2000/svg"
   xmlns="http://www.w3.org/2000/svg"
   xmlns:sodipodi="http://sodipodi.sourceforge.net/DTD/sodipodi-0.dtd"
   xmlns:inkscape="http://www.inkscape.org/namespaces/inkscape"
   width="1024"
   height="1024"
   id="U5440"
   version="1.1"
   inkscape:version="0.48.0 r9654"
   sodipodi:docname="U+5440.svg">
  <metadata
     id="metadata14">
    <rdf:RDF>
      <cc:Work
         rdf:about="">
        <dc:format>image/svg+xml</dc:format>
        <dc:type
           rdf:resource="http://purl.org/dc/dcmitype/StillImage" />
      </cc:Work>
    </rdf:RDF>
  </metadata>
  <defs
     id="defs12" />
  <sodipodi:namedview
     pagecolor="#ffffff"
     bordercolor="#666666"
     borderopacity="1"
     objecttolerance="10"
     gridtolerance="10"
     guidetolerance="10"
     inkscape:pageopacity="0"
     inkscape:pageshadow="2"
     inkscape:window-width="640"
     inkscape:window-height="480"
     id="namedview10"
     showgrid="false"
     inkscape:zoom="0.27441406"
     inkscape:cx="512"
     inkscape:cy="512"
     inkscape:window-x="0"
     inkscape:window-y="25"
     inkscape:window-maximized="0"
     inkscape:current-layer="U5440" />
  <path
     style="fill:#916f6f;fill-opacity:1;fill-rule:nonzero;stroke:#f9f9f9;stroke-width:0.1;stroke-miterlimit:4;stroke-dasharray:none"
     d="M 765.09375 195.59375 C 752.20448 195.57532 739.34134 196.07037 726.53125 197.8125 C 684.68545 202.5515 642.98175 208.28625 601.28125 214.15625 C 570.59025 218.65725 539.89505 223.2265 509.46875 229.3125 C 491.09145 233.2005 509.40395 319.8245 527.78125 315.9375 C 556.27805 309.0455 585.304 304.71275 614.25 300.21875 C 654.6839 294.19275 695.2021 288.66825 735.875 284.53125 C 746.5057 283.24825 757.12315 282.9155 767.78125 283.6875 C 786.46175 284.2885 789.3056 196.25725 770.625 195.65625 C 768.78269 195.63562 766.93507 195.59638 765.09375 195.59375 z M 691.1875 305.375 C 682.56648 305.54825 676.31145 307.5525 675.125 312.09375 C 666.5438 355.57775 666.13515 400.1615 664.84375 444.3125 C 664.13524 476.1714 663.61265 508.04249 663.1875 539.90625 C 637.14542 546.5113 610.91958 552.44436 584.46875 557.3125 C 554.97811 563.01381 525.11773 569.61571 494.90625 568.03125 C 506.29908 533.61342 522.79941 501.33765 538.59375 468.78125 C 552.00795 440.10825 564.7852 411.16875 575.125 381.21875 C 581.4166 363.54175 498.1041 333.8855 491.8125 351.5625 C 483.4088 379.3135 471.66 405.80375 459.5625 432.09375 C 448.02625 455.72113 436.53318 479.36308 426.28125 503.53125 C 431.05998 481.06369 435.3577 458.50619 437.90625 435.6875 C 437.53075 428.5875 438.34015 421.312 436.78125 414.375 C 428.23795 376.356 396.44015 360.06725 360.09375 362.03125 C 323.41595 364.06825 286.8822 368.11725 250.5 373.15625 C 217.92769 378.18856 184.95285 383.5292 154.4375 396.40625 C 128.1418 394.44786 91.361669 401.02841 92.125 413.15625 C 97.357 456.80825 108.93355 499.35225 119.59375 541.90625 C 128.33295 576.93525 136.37995 612.13925 144.09375 647.40625 C 148.21655 665.46725 233.34145 646.02975 229.21875 627.96875 C 220.73915 592.29975 212.2942 556.62325 203.5 521.03125 C 199.8131 506.11579 195.97785 491.18424 192.4375 476.1875 C 215.0365 466.52168 239.78448 463.02212 263.90625 459.21875 C 291.70291 455.34264 319.60692 452.0452 347.625 450.40625 C 342.13336 482.93003 334.75592 515.11876 328.1875 547.4375 C 321.44394 581.488 313.89244 615.38641 307.15625 649.4375 C 293.31924 651.55262 279.51303 653.95939 265.75 656.53125 C 232.7854 662.98525 199.95245 670.79025 166.46875 674.03125 C 147.80395 675.82825 156.2727 763.797 174.9375 762 C 211.0935 757.221 246.63415 748.91375 282.40625 741.96875 C 309.22385 737.15875 336.17555 732.7985 363.40625 731.3125 C 365.13085 731.3325 366.86915 731.355 368.59375 731.375 C 370.78021 731.32961 372.68046 730.0659 374.3125 727.90625 C 379.29569 726.80123 382.62356 724.73716 383.34375 721.46875 C 385.45975 710.68575 387.1361 699.85975 388.625 688.96875 C 393.98306 656.35478 400.79351 623.99382 407.46875 591.625 C 410.77918 609.99356 420.30351 626.71667 438.25 639.0625 C 445.0673 643.7525 453.23195 646.101 460.71875 649.625 C 507.30045 662.08 554.8175 651.45575 601 642.46875 C 607.73223 641.22447 614.45204 639.92772 621.15625 638.5625 C 594.67454 657.80198 572.94405 682.64232 551.65625 707.375 C 516.71215 749.313 485.93075 794.4645 454.90625 839.3125 C 432.90865 871.7965 410.4765 903.99325 388.375 936.40625 C 382.8537 943.93725 378.3283 952.19575 372.625 959.59375 C 361.9211 975.06675 434.8586 1025.5053 445.5625 1010.0312 C 450.9714 1001.8043 455.9732 993.32775 461.375 985.09375 C 482.5409 952.60175 504.3698 920.52675 526 888.34375 C 555.0896 846.05475 583.97285 803.49 617.15625 764.25 C 631.07701 748.36784 645.05106 731.93485 661.5 718.5625 C 661.51863 758.04662 662.00905 797.5507 662.5625 837.03125 C 662.5362 860.79425 663.97155 884.5535 663.09375 908.3125 C 662.91285 927.0375 751.16285 927.9125 751.34375 909.1875 C 751.07355 884.5515 749.6515 859.9465 749.1875 835.3125 C 747.6869 777.0465 746.64005 718.75775 747.21875 660.46875 C 747.3518 642.62196 747.51231 624.78482 747.6875 606.9375 C 777.7267 598.37508 807.82883 589.98434 838.125 582.375 C 855.3332 577.449 872.75935 575.80625 890.53125 576.78125 C 900.32335 577.32125 910.0774 578.31275 919.875 578.71875 C 938.7056 579.03375 940.2056 490.28475 921.375 489.96875 C 912.3216 489.74875 903.22025 489.13425 894.15625 488.65625 C 867.83825 487.79825 841.81625 490.27775 816.40625 497.59375 C 793.86021 503.47867 771.40823 509.74004 749 516.125 C 749.46093 493.18972 750.02108 470.24064 750.78125 447.3125 C 752.31505 409.6495 752.85815 371.45875 760.78125 334.46875 C 764.34053 320.845 717.05056 304.85525 691.1875 305.375 z M 366.46875 449.78125 L 372 450.09375 C 372.5177 450.42175 374.14385 451.0625 373.53125 451.0625 C 370.84873 451.08072 368.58263 450.62015 366.46875 449.78125 z M 493.375 574.65625 C 494.37005 580.63295 495.80316 587.62154 493.09375 582.625 C 492.32125 581.2 492.6151 579.38925 492.8125 577.78125 C 492.94125 576.73217 493.1565 575.69026 493.375 574.65625 z M 662.1875 629.5 C 662.10187 637.89167 662.02333 646.29589 661.9375 654.6875 C 655.9294 645.77085 649.29149 638.06903 643.40625 633.84375 C 649.67851 632.44732 655.93562 630.98277 662.1875 629.5 z "
     id="path12727" />
</svg>
