<?xml version="1.0" encoding="UTF-8" standalone="no"?>
<svg
   xmlns:dc="http://purl.org/dc/elements/1.1/"
   xmlns:cc="http://creativecommons.org/ns#"
   xmlns:rdf="http://www.w3.org/1999/02/22-rdf-syntax-ns#"
   xmlns:svg="http://www.w3.org/2000/svg"
   xmlns="http://www.w3.org/2000/svg"
   xmlns:sodipodi="http://sodipodi.sourceforge.net/DTD/sodipodi-0.dtd"
   xmlns:inkscape="http://www.inkscape.org/namespaces/inkscape"
   width="1024"
   height="1024"
   id="U5411"
   version="1.1"
   inkscape:version="0.48.0 r9654"
   sodipodi:docname="U+5411.svg">
  <metadata
     id="metadata13">
    <rdf:RDF>
      <cc:Work
         rdf:about="">
        <dc:format>image/svg+xml</dc:format>
        <dc:type
           rdf:resource="http://purl.org/dc/dcmitype/StillImage" />
      </cc:Work>
    </rdf:RDF>
  </metadata>
  <defs
     id="defs11" />
  <sodipodi:namedview
     pagecolor="#ffffff"
     bordercolor="#666666"
     borderopacity="1"
     objecttolerance="10"
     gridtolerance="10"
     guidetolerance="10"
     inkscape:pageopacity="0"
     inkscape:pageshadow="2"
     inkscape:window-width="640"
     inkscape:window-height="480"
     id="namedview9"
     showgrid="false"
     inkscape:zoom="0.27441406"
     inkscape:cx="512"
     inkscape:cy="512"
     inkscape:window-x="0"
     inkscape:window-y="25"
     inkscape:window-maximized="0"
     inkscape:current-layer="U5411" />
  <path
     style="fill:#916f6f;fill-opacity:1;fill-rule:nonzero;stroke:#f9f9f9;stroke-width:0.1;stroke-miterlimit:4;stroke-dasharray:none"
     d="M 458.90625 107.625 C 455.91576 107.73977 453.61919 108.67537 452.3125 110.625 C 433.9928 138.252 413.4557 164.35425 393.3125 190.65625 C 369.0408 222.33225 345.1687 254.2965 321.6875 286.5625 C 312.0399 299.9755 302.58725 313.54825 293.21875 327.15625 C 286.17069 337.70023 317.45629 363.51426 341.71875 374.375 C 307.13275 387.37198 272.71766 401.59118 242.65625 423.46875 C 227.85935 434.99375 282.2031 504.74375 297 493.21875 C 321.9635 474.33375 351.6791 463.31075 380.6875 452.34375 C 426.2402 435.46875 473.86005 426.405 521.90625 420.5 C 562.83875 415.467 603.8183 417.0605 644.5 422.9375 C 672.1789 427.1535 699.06595 434.203 724.71875 445.375 C 740.69205 453.379 756.40435 462.1985 768.96875 475.0625 C 778.01465 485.9495 780.1287 500.087 782.375 513.625 C 786.5975 545.695 782.1428 577.92625 777.375 609.65625 C 769.826 652.48025 759.7853 694.8275 750.5625 737.3125 C 745.3445 762.4455 738.95205 787.3135 729.46875 811.1875 C 726.27325 819.3595 721.8033 826.831 716.8125 834 C 706.3529 849.604 779.9153 898.9175 790.375 883.3125 C 798.7744 870.5095 806.2109 857.12 811.625 842.75 C 822.2656 814.388 830.0624 785.135 835.75 755.375 C 844.9311 711.16 855.1923 667.16875 863.1875 622.71875 C 869.5136 581.71175 874.77145 540.1035 868.78125 498.6875 C 863.07505 466.3895 853.78585 435.4665 829.96875 411.5625 C 809.01335 391.9965 785.27305 376.3975 759.03125 364.6875 C 726.10315 350.9305 691.8377 341.6245 656.4375 336.6875 C 608.1898 330.2425 559.6273 328.63725 511.1875 334.78125 C 465.372 340.59996 419.87154 348.8556 375.78125 362.5625 C 381.32556 354.16595 386.95796 345.81292 392.71875 337.5625 C 415.21775 305.7805 438.3503 274.465 462.125 243.625 C 483.582 215.894 505.30325 188.33125 525.84375 159.90625 C 534.99056 146.25887 479.83971 106.82159 458.90625 107.625 z M 513.59375 489.90625 C 488.46145 489.82917 463.5144 493.52003 438.96875 501.25 C 405.89355 511.919 373.76475 525.1785 345.90625 546.4375 C 340.68157 550.58319 344.27765 562.01691 351.71875 574.5 C 338.76945 577.4311 329.2202 582.22268 329.625 588.46875 C 331.6669 617.78175 337.3694 646.58925 343.4375 675.28125 C 349.8448 706.99425 359.60005 737.7965 372.78125 767.3125 C 379.74945 780.9035 376.15175 774.4205 383.46875 786.6875 C 384.49517 788.32814 386.22208 789.31289 388.46875 789.71875 C 394.2905 796.45362 399.99163 800.13054 404.3125 798.0625 C 431.4212 785.3795 460.9225 778.967 490.0625 772.875 C 513.54772 767.96378 537.34617 765.11301 561.25 763.875 C 582.22325 780.05919 617.40123 795.00323 623.4375 784.28125 C 629.0514 773.64125 626.4337 779.0745 631.25 768.0625 C 631.29899 767.93636 631.35734 767.81367 631.40625 767.6875 C 631.65551 767.7345 631.90707 767.76507 632.15625 767.8125 C 646.20011 770.24869 658.27482 720.53509 655.15625 695.125 C 655.81881 692.72998 656.51232 690.33731 657.15625 687.9375 C 664.74465 656.9425 671.60555 625.211 667.84375 593.125 C 662.15985 565.939 650.1656 543.36775 627.1875 526.84375 C 604.8964 510.65475 580.55405 498.23875 553.21875 493.09375 C 539.971 491.02403 526.75829 489.94663 513.59375 489.90625 z M 208.5 498.25 C 187.83591 498.27911 168.28422 502.48562 168.0625 511.28125 C 168.1581 548.25025 174.8371 584.68125 182.125 620.78125 C 193.1306 671.70325 207.0467 721.929 222.625 771.625 C 233.5947 807.327 248.2164 841.7095 263.875 875.5625 L 268 884.1875 C 276.3399 900.9345 355.30875 861.622 346.96875 844.875 C 345.73335 842.497 344.4854 840.128 343.25 837.75 C 328.5502 807.893 315.05685 777.3955 305.15625 745.5625 C 290.30925 698.9645 277.26315 651.771 267.28125 603.875 C 261.48535 574.109 255.67035 543.974 256.53125 513.5 C 256.78253 503.53162 231.91931 498.21701 208.5 498.25 z M 510.90625 577.03125 C 520.05451 576.94212 529.21886 577.75625 538.40625 579.59375 C 551.92585 582.65675 563.7368 589.23125 574.5625 597.65625 C 576.6665 600.19325 581.305 602.444 582.1875 606 C 582.414 606.912 581.04275 607.59425 580.96875 608.53125 C 581.44405 628.44325 576.84505 647.94925 572.15625 667.15625 C 571.33284 670.16003 570.50879 673.15834 569.65625 676.15625 C 536.94637 677.46194 504.38573 680.93623 472.28125 687.65625 C 461.08498 689.99177 449.86151 692.39945 438.71875 695.0625 C 434.78439 682.69598 431.59277 670.07219 428.96875 657.3125 C 425.23083 639.41513 421.51 621.42993 419.46875 603.25 C 433.92632 595.11755 449.65764 589.39852 465.5625 584.375 C 480.50563 579.845 495.65916 577.1798 510.90625 577.03125 z "
     id="path11672" />
</svg>
