<?xml version="1.0" encoding="UTF-8" standalone="no"?>
<svg
   xmlns:dc="http://purl.org/dc/elements/1.1/"
   xmlns:cc="http://creativecommons.org/ns#"
   xmlns:rdf="http://www.w3.org/1999/02/22-rdf-syntax-ns#"
   xmlns:svg="http://www.w3.org/2000/svg"
   xmlns="http://www.w3.org/2000/svg"
   xmlns:sodipodi="http://sodipodi.sourceforge.net/DTD/sodipodi-0.dtd"
   xmlns:inkscape="http://www.inkscape.org/namespaces/inkscape"
   width="1024"
   height="1024"
   id="U54ED"
   version="1.1"
   inkscape:version="0.48.0 r9654"
   sodipodi:docname="U+54ED.svg">
  <metadata
     id="metadata17">
    <rdf:RDF>
      <cc:Work
         rdf:about="">
        <dc:format>image/svg+xml</dc:format>
        <dc:type
           rdf:resource="http://purl.org/dc/dcmitype/StillImage" />
      </cc:Work>
    </rdf:RDF>
  </metadata>
  <defs
     id="defs15" />
  <sodipodi:namedview
     pagecolor="#ffffff"
     bordercolor="#666666"
     borderopacity="1"
     objecttolerance="10"
     gridtolerance="10"
     guidetolerance="10"
     inkscape:pageopacity="0"
     inkscape:pageshadow="2"
     inkscape:window-width="640"
     inkscape:window-height="480"
     id="namedview13"
     showgrid="false"
     inkscape:zoom="0.27441406"
     inkscape:cx="512"
     inkscape:cy="512"
     inkscape:window-x="0"
     inkscape:window-y="25"
     inkscape:window-maximized="0"
     inkscape:current-layer="U54ED" />
  <path
     style="fill:#2b0000;fill-opacity:1;fill-rule:nonzero;stroke:#f9f9f9;stroke-width:0.1;stroke-miterlimit:4;stroke-dasharray:none"
     d="M 374.1875 155.78125 C 367.11032 155.81695 360.0367 156.167 352.9375 156.78125 C 327.6152 158.20025 302.20855 158.66675 276.96875 161.21875 C 245.63975 166.40075 215.3989 175.762 190 195.625 C 187.65836 197.57177 187.2145 200.99818 188.125 205.3125 C 161.87451 204.98069 126.79627 213.26151 128.125 225.125 C 131.715 254.515 136.45475 283.72025 142.09375 312.78125 C 147.27565 339.65225 154.94345 365.8725 164.96875 391.3125 C 169.25415 402.8635 174.19315 413.8755 180.71875 424.3125 C 187.14177 433.2169 214.26852 419.321 233.625 403.125 C 237.70998 428.49573 250.12768 458.74723 261.125 455.90625 C 285.9474 448.76825 311.6514 445.892 337.3125 443.875 C 355.2806 442.214 372.88595 444.08375 390.21875 448.71875 C 398.35185 450.76675 405.91295 454.38 413.65625 457.5 C 414.49275 457.837 415.3509 458.163 416.1875 458.5 C 433.42015 465.31437 465.2871 385.52532 449.65625 376.3125 C 452.46909 365.81305 455.28798 355.32206 458.0625 344.8125 C 464.1002 321.4535 470.2669 298.028 473.75 274.125 C 474.8694 262.2 474.98305 250.379 473.28125 238.5 C 471.85935 222.895 469.45365 207.35825 461.78125 193.40625 C 449.10025 174.45225 432.49535 161.76475 409.46875 158.46875 C 397.75338 156.53563 385.9828 155.72175 374.1875 155.78125 z M 682.8125 156.84375 C 662.37539 156.89345 641.98729 158.68838 621.8125 162.1875 C 596.6771 166.4485 571.49475 171.44375 547.78125 181.09375 C 543.10926 183.17543 542.42578 190.69831 544.1875 200.375 C 520.43355 201.89108 495.12302 209.04507 496.125 219.15625 C 499.6015 247.93725 501.8785 276.84125 505.0625 305.65625 C 508.32443 334.07387 512.47967 362.38407 518.5 390.34375 C 511.36851 409.33866 535.98533 474.73753 551.75 469.28125 C 573.0126 461.25025 595.1876 456.14 617.4375 451.75 C 643.3132 446.92 669.5375 444.21825 695.8125 442.90625 C 712.0902 442.30525 728.489 442.97625 744.3125 447.03125 C 746.42583 447.9301 747.78439 448.5976 748.625 449.03125 C 747.72191 448.49565 746.22783 447.51693 744.40625 446.125 C 750.04844 448.81162 761.21998 444.21331 772.875 436.53125 C 790.18556 447.7154 808.74346 454.76561 813.71875 447.53125 C 821.31635 434.19925 818.52715 440.475 822.84375 429 C 827.65615 412.813 832.12065 396.5415 837.21875 380.4375 C 843.98075 357.0745 849.60875 333.4075 853.78125 309.4375 C 857.70015 287.0665 861.98095 264.2005 855.71875 241.8125 C 849.53425 225.3795 840.6889 211.0335 826.4375 200.3125 C 814.5427 191.7785 801.75275 184.663 787.71875 180.25 C 775.69705 176.744 763.3958 174.621 751.375 171.125 C 731.8857 164.581 712.4109 157.3825 691.5625 156.9375 C 688.64041 156.87375 685.73209 156.83665 682.8125 156.84375 z M 375.78125 243.96875 C 378.74704 243.95777 381.70709 244.04538 384.65625 244.28125 C 384.82181 245.34028 384.97949 246.2709 385 246.5 C 385.6347 252.786 386.4883 258.9055 385.6875 265.1875 C 382.7671 284.7515 377.9439 303.959 373.125 323.125 C 370.29051 334.11104 367.30027 345.06369 364.28125 356 C 352.97637 355.36871 341.60323 355.54724 330.1875 356.625 C 303.5012 358.86739 276.88333 361.96705 250.6875 367.5625 C 248.64912 363.29332 246.63819 358.85168 246.75 358.25 C 238.3586 338.204 232.21265 317.3865 227.96875 296.0625 C 225.13497 281.53773 222.56131 266.95158 220.40625 252.3125 C 231.08315 262.1255 241.50309 267.97661 246.625 263.71875 C 259.2535 253.86975 274.7452 250.01275 290.3125 247.96875 C 312.6916 246.32375 335.148 245.7905 357.5625 244.6875 C 363.6282 244.401 369.70264 243.99125 375.78125 243.96875 z M 679.03125 244.90625 C 682.33374 244.88064 685.63127 244.95144 688.9375 245.09375 C 700.8084 246.16675 711.90935 251.0105 723.09375 254.8125 C 735.59175 259.7535 749.27185 260.5905 761.90625 264.9375 C 764.94214 266.26652 768.0851 267.58426 770.875 269.40625 C 769.31383 272.21403 767.11987 293.73062 767 294.4375 C 763.4864 315.1465 758.73815 335.613 752.78125 355.75 C 752.46947 356.70607 752.18122 357.66706 751.875 358.625 C 731.79786 355.22315 711.44296 354.05847 691.03125 355.25 C 661.49692 356.96816 632.02225 360.00471 602.90625 365.34375 C 597.93351 342.52856 594.60678 319.37438 591.84375 296.1875 C 590.55122 284.18496 589.43419 272.17893 588.375 260.15625 C 603.77541 254.39356 620.13439 251.55946 636.3125 248.90625 C 650.45439 246.62637 664.72046 245.01722 679.03125 244.90625 z M 771.6875 269.96875 C 772.36538 270.44877 773.03256 270.97571 773.65625 271.53125 C 773.13189 272.79454 772.65779 271.50232 771.6875 269.96875 z M 748.8125 449.125 C 749.81336 449.70108 749.95326 449.72199 748.8125 449.125 z M 506.03125 478.21875 C 505.15392 478.27578 504.33455 478.51572 503.5625 478.9375 C 475.4094 495.1985 451.0087 516.6255 428.0625 539.4375 C 415.52184 552.37461 404.02822 566.15009 393.15625 580.4375 C 362.20818 582.01758 331.41242 585.301 300.75 590.25 C 272.1267 594.409 243.49805 598.63 214.90625 603 C 196.41805 606.236 211.66805 693.39125 230.15625 690.15625 C 257.80905 684.87425 285.69815 680.84725 313.53125 676.65625 C 319.23801 675.70856 324.9392 674.82242 330.65625 674 C 317.38914 695.91154 304.57077 718.09575 291.875 740.34375 C 278.6519 763.19275 266.2458 786.4745 255.4375 810.5625 C 249.6774 824.0115 244.57375 837.7535 239.40625 851.4375 C 235.87685 861.3715 232.45465 871.34825 229.71875 881.53125 C 229.28065 885.50425 228.84435 889.49575 228.40625 893.46875 C 228.08082 911.72105 311.40329 913.78069 317 896.78125 C 316.68476 898.68647 316.34651 900.59433 316.03125 902.5 C 317.52425 896.913 319.911 888.9055 322.25 882.5625 C 326.7951 870.4125 331.15595 858.2095 336.03125 846.1875 C 345.36065 824.6235 356.36485 803.86325 367.90625 783.40625 C 386.32965 750.58925 405.1102 717.92825 425.5 686.28125 C 429.78417 679.77415 434.09548 673.27077 438.46875 666.8125 C 443.29615 666.92209 448.11126 667.03938 452.9375 667.1875 C 441.01678 687.75173 432.96027 712.74789 441.90625 717.53125 C 463.32325 728.18025 484.90985 738.481 505.53125 750.625 C 525.05805 762.32 540.09975 779.45975 554.84375 796.46875 C 572.15585 816.88175 588.7515 837.8895 604.625 859.4375 C 617.6946 877.2355 629.82905 895.6735 641.65625 914.3125 C 648.66185 925.0065 654.4801 936.42975 659.9375 947.96875 C 660.2407 948.72175 660.54045 949.46575 660.84375 950.21875 C 660.77615 950.19875 660.693 950.17625 660.625 950.15625 C 666.9474 967.89825 750.60365 938.08575 744.28125 920.34375 C 741.28655 912.58675 742.85845 916.2935 739.59375 909.1875 C 732.38285 894.7075 724.8307 880.371 715.875 866.875 C 702.8507 846.645 689.5032 826.596 675.1875 807.25 C 657.8772 783.914 639.80575 761.14675 621.03125 738.96875 C 599.96835 714.75175 577.8252 691.203 549.8125 674.875 C 547.25135 673.38651 544.67552 671.91695 542.09375 670.46875 C 576.12798 671.32211 610.17596 670.5199 644.1875 672.1875 C 663.1852 672.5625 681.30715 677.609 699.34375 683 C 712.11005 687.306 725.3995 689.92875 738.125 694.34375 C 738.0336 694.38075 737.967 694.3975 737.875 694.4375 C 755.3034 701.5645 788.89725 619.40825 771.46875 612.28125 C 769.28115 611.46325 767.09385 610.66175 764.90625 609.84375 C 751.44575 605.77475 737.72555 602.5695 724.28125 598.4375 C 699.35375 591.1715 674.09415 585.17625 647.96875 584.65625 C 613.10715 583.31825 578.21855 584.1 543.34375 583.375 C 532.22197 583.06761 521.11768 582.65354 510 582.21875 C 521.10344 572.50479 532.92467 563.63844 545.96875 556.5625 C 561.6671 547.98628 523.8702 477.05908 506.03125 478.21875 z M 734.75 480.40625 C 716.93705 479.63583 689.87168 558.20306 707.03125 564.25 C 727.08065 570.887 746.71715 578.6445 765.96875 587.3125 C 776.95795 592.7605 788.01465 598.158 798.21875 605 C 814.04455 615.078 861.5759 540.453 845.75 530.375 C 831.6251 521.621 816.85395 513.998 801.78125 507 C 780.30175 497.493 758.4414 488.965 736.4375 480.75 C 735.88397 480.55497 735.32461 480.4311 734.75 480.40625 z "
     id="path9042" />
</svg>
