<?xml version="1.0" encoding="utf-8" ?>

<!DOCTYPE svg PUBLIC "-//W3C//DTD SVG 1.1//EN" 
  "http://www.w3.org/Graphics/SVG/1.1/DTD/svg11.dtd">
<svg 
    xmlns="http://www.w3.org/2000/svg"
    xmlns:xlink="http://www.w3.org/1999/xlink"
    xmlns:sodipodi="http://sodipodi.sourceforge.net/DTD/sodipodi-0.dtd"
    xmlns:inkscape="http://www.inkscape.org/namespaces/inkscape"
    width="1024" height="1024" id="U54B3">
<path d="m 10390.199,16779.155 c -4.485,29.263 -4.529,58.878 -3.155,88.368 2.058,31.508 8.524,62.491 21.855,91.164 1.121,4.879 5.921,8.444 8.287,10.278 13.572,12.638 -46.003,76.617 -59.575,63.979 l 0,0 c -11.438,-11.852 -21.659,-23.864 -28.08,-39.339 -16.494,-38.846 -26.267,-79.794 -28.591,-122.044 -1.621,-34.391 -1.571,-68.821 2.265,-103.089 2.266,-18.454 89.26,-7.771 86.994,10.683 z" id="path24329" inkscape:connector-curvature="0" style="fill:#550000;fill-opacity:1;fill-rule:nonzero;stroke:#f9f9f9;stroke-width:0.1;stroke-miterlimit:4;stroke-dasharray:none" transform="translate(-10240, -16384)"/><path d="m 10399.546,16770.484 c 29.197,-9.16 59.46,-14.134 89.628,-18.84 18.532,-1.475 37.971,-8.172 56.701,-4.523 5.762,1.123 11.255,3.34 16.883,5.011 6.356,4.953 13.823,8.744 19.069,14.861 19.017,22.178 14.896,54.323 12.827,80.936 -3.263,33.87 -7.723,67.609 -11.618,101.41 -2.362,20.921 -4.389,41.877 -6.373,62.837 -1.956,18.422 -88.802,9.203 -86.846,-9.219 l 0,0 c 2.494,-21.201 4.875,-42.415 7.334,-63.62 3.833,-32.574 8.012,-65.119 10.851,-97.799 0.424,-6.15 -1.016,-19.4 1.245,-25.478 0.229,-0.615 0.809,1.034 1.209,1.554 9.18,11.946 3.251,6.35 18.525,15.48 2.556,0.389 5.09,0.966 7.667,1.166 0.313,0.02 1.104,-0.476 0.792,-0.509 -11.679,-1.252 -23.622,3.443 -35.209,3.696 -24.583,3.638 -49.372,7.384 -72.976,15.414 -17.474,6.302 -47.184,-76.075 -29.709,-82.377 z" id="path24331" inkscape:connector-curvature="0" style="fill:#550000;fill-opacity:1;fill-rule:nonzero;stroke:#f9f9f9;stroke-width:0.1;stroke-miterlimit:4;stroke-dasharray:none" transform="translate(-10240, -16384)"/><path d="m 10419.71,16997.162 c 24.387,5.911 49.78,5.317 74.703,5.277 24.697,-0.448 49.426,-0.455 74.101,-1.685 18.51,-0.733 21.966,86.523 3.457,87.256 l 0,0 c -25.81,0.81 -51.645,0.57 -77.463,0.97 -33.032,0.02 -66.428,0.104 -98.773,-7.545 -17.877,-5.085 6.098,-89.359 23.975,-84.273 z" id="path24333" inkscape:connector-curvature="0" style="fill:#550000;fill-opacity:1;fill-rule:nonzero;stroke:#f9f9f9;stroke-width:0.1;stroke-miterlimit:4;stroke-dasharray:none" transform="translate(-10240, -16384)"/><path d="m 10862.556,16470.14 c 12.245,21.296 29.111,39.305 45.923,57.013 13.011,13.437 6.582,6.738 19.289,20.093 12.64,13.413 -50.588,73.001 -63.228,59.588 l 0,0 c -12.122,-12.993 -5.787,-6.283 -19.022,-20.114 -20.919,-22.177 -41.437,-44.902 -57.712,-70.815 -9.708,-15.857 65.042,-61.622 74.75,-45.765 z" id="path24335" inkscape:connector-curvature="0" style="fill:#550000;fill-opacity:1;fill-rule:nonzero;stroke:#f9f9f9;stroke-width:0.1;stroke-miterlimit:4;stroke-dasharray:none" transform="translate(-10240, -16384)"/><path d="m 10609.006,16680.523 c 32.905,8.755 67.265,10.223 101.105,12.023 50.008,2.502 100.056,0.363 150.006,-2.249 31.673,-1.951 63.393,-3.239 95.045,-5.519 2.1,-0.207 4.2,-0.414 6.3,-0.621 18.507,-1.426 25.23,85.82 6.722,87.246 l 0,0 c -2.664,0.16 -5.328,0.32 -7.992,0.48 -31.952,1.43 -63.926,2.407 -95.866,4.123 -52.798,2.429 -105.676,4.509 -158.522,2.112 -41.395,-1.975 -83.212,-3.977 -123.574,-14.119 -17.708,-5.68 9.068,-89.156 26.776,-83.476 z" id="path24337" inkscape:connector-curvature="0" style="fill:#550000;fill-opacity:1;fill-rule:nonzero;stroke:#f9f9f9;stroke-width:0.1;stroke-miterlimit:4;stroke-dasharray:none" transform="translate(-10240, -16384)"/><path d="m 10825.379,16766.349 c -15.559,25.113 -28.757,51.633 -42.612,77.71 -15.932,30.103 -32.274,60.056 -45.235,91.589 5.644,-11.88 -5.621,13.115 -2.417,11.099 7.739,-4.868 -6.556,-24.371 -10.499,-28.06 23.798,-0.91 47.411,-4.846 70.872,-8.981 23.782,-4.546 47.339,-10.149 70.578,-16.931 17.772,-4.991 41.297,78.786 23.525,83.777 l 0,0 c -26.102,7.087 -52.465,13.145 -79.041,18.19 -37.44,6.662 -75.902,14.644 -113.76,6.7 -7.02,-3.124 -14.808,-4.903 -21.059,-9.371 -31.109,-22.233 -31.464,-58.254 -18.141,-90.312 14.55,-33.509 31.792,-65.71 48.93,-97.952 15.103,-28.797 29.481,-58.017 45.919,-86.085 10.315,-15.473 83.255,33.154 72.94,48.627 z" id="path24339" inkscape:connector-curvature="0" style="fill:#550000;fill-opacity:1;fill-rule:nonzero;stroke:#f9f9f9;stroke-width:0.1;stroke-miterlimit:4;stroke-dasharray:none" transform="translate(-10240, -16384)"/><path d="m 10972.661,16879.537 c -23.578,30.211 -48.474,59.362 -73.197,88.633 -34.977,41.19 -68.729,83.396 -103.27,124.948 -21.484,26.194 -44.274,51.313 -65.339,77.849 -0.917,1.341 -1.834,2.681 -2.75,4.022 -11.144,14.854 -81.168,-37.679 -70.024,-52.533 l 0,0 c 1.818,-2.304 3.635,-4.608 5.453,-6.912 22.081,-26 44.972,-51.303 66.938,-77.403 34.81,-41.343 68.653,-83.488 103.343,-124.932 23.344,-28.136 47.031,-56.084 68.396,-85.775 11.053,-14.945 81.503,37.159 70.45,52.103 z" id="path24341" inkscape:connector-curvature="0" style="fill:#550000;fill-opacity:1;fill-rule:nonzero;stroke:#f9f9f9;stroke-width:0.1;stroke-miterlimit:4;stroke-dasharray:none" transform="translate(-10240, -16384)"/><path d="m 11030.112,17002.123 c -22.358,21.203 -41.395,45.621 -60.744,69.518 -31.235,39.386 -63.421,77.994 -95.928,116.331 -23.424,27.278 -47.379,54.135 -72.782,79.59 -2.305,2.189 -4.611,4.377 -6.916,6.565 -13.677,12.52 -72.695,-51.955 -59.017,-64.474 l 0,0 c 1.686,-1.465 3.372,-2.93 5.058,-4.395 24.196,-22.915 46.444,-47.795 68.345,-72.883 32.111,-37.572 63.795,-75.509 94.195,-114.487 21.686,-27.308 43.175,-54.932 67.804,-79.696 13.562,-12.725 73.547,51.206 59.985,63.931 z" id="path24343" inkscape:connector-curvature="0" style="fill:#550000;fill-opacity:1;fill-rule:nonzero;stroke:#f9f9f9;stroke-width:0.1;stroke-miterlimit:4;stroke-dasharray:none" transform="translate(-10240, -16384)"/><path d="m 10881.214,17122.647 c 26.896,6.618 52.197,17.818 76.893,30.119 27.103,14.307 53.592,29.735 80.392,44.595 18.767,10.35 38.043,19.732 56.857,29.99 16.165,8.99 -26.215,85.194 -42.38,76.203 l 0,0 c -18.59,-10.597 -37.85,-19.965 -56.529,-30.407 -25.671,-14.254 -51.106,-28.939 -77.056,-42.681 -18.631,-9.288 -37.671,-18.158 -58.167,-22.477 -18.103,-4.241 1.887,-89.582 19.99,-85.342 z" id="path24345" inkscape:connector-curvature="0" style="fill:#550000;fill-opacity:1;fill-rule:nonzero;stroke:#f9f9f9;stroke-width:0.1;stroke-miterlimit:4;stroke-dasharray:none" transform="translate(-10240, -16384)"/></svg>