<?xml version="1.0" encoding="utf-8" ?>

<!DOCTYPE svg PUBLIC "-//W3C//DTD SVG 1.1//EN" 
  "http://www.w3.org/Graphics/SVG/1.1/DTD/svg11.dtd">
<svg 
    xmlns="http://www.w3.org/2000/svg"
    xmlns:xlink="http://www.w3.org/1999/xlink"
    xmlns:sodipodi="http://sodipodi.sourceforge.net/DTD/sodipodi-0.dtd"
    xmlns:inkscape="http://www.inkscape.org/namespaces/inkscape"
    width="1024" height="1024" id="U5417">
<path d="m 8373.3191,32123.167 c 1.2274,31.434 2.2236,62.878 3.46,94.312 0.9772,35.407 4.6143,70.604 12.5184,105.135 4.7656,13.725 6.9989,29.671 15.3857,41.928 -4.0112,-12.073 -25.4665,-15.649 -32.336,-18.556 18.866,0.545 16.296,89.48 -2.5701,88.935 l 0,0 c -22.2307,-8.622 -32.2712,-8.84 -42.8717,-28.016 -10.6403,-20.687 -17.7083,-42.939 -23.0677,-65.543 -8.3876,-39.577 -12.8303,-79.738 -14.0309,-120.192 -1.4129,-31.07 -2.4462,-62.17 -4.8953,-93.181 -1.023,-18.754 87.3847,-23.576 88.4076,-4.822 z" id="path10540" inkscape:connector-curvature="0" style="fill:#2b0000;fill-opacity:1;fill-rule:nonzero;stroke:#f9f9f9;stroke-width:0.1;stroke-miterlimit:4;stroke-dasharray:none" transform="translate(-8192, -31744)"/><path d="m 8342.3622,32100.263 c 32.3724,-13.352 66.7068,-20.316 100.968,-26.753 37.4881,-7.38 75.3291,-12.22 113.4712,-14.181 17.3251,0.961 36.0847,-4.024 53.1423,1.028 5.5497,1.644 10.7654,4.256 16.148,6.383 26.8759,18.152 29.3995,45.399 28.5984,74.865 -1.127,28.804 -6.5884,57.156 -12.4911,85.291 -7.4947,32.436 -15.1752,64.815 -21.4969,97.505 -1.8112,10.788 -4.4725,21.882 -3.5304,32.817 0.042,0.04 0.083,0.08 0.125,0.126 0.091,1.94 0.1817,3.879 0.2726,5.818 -0.2867,18.885 -89.3121,17.533 -89.0254,-1.352 l 0,0 c 0.3833,5.701 0.3991,5.84 0.011,0.419 -0.5324,-18.587 2.1683,-36.963 6.1738,-55.095 6.8088,-32.76 14.5329,-65.308 21.8588,-97.954 4.6983,-23.067 9.1039,-46.306 9.8915,-69.899 0.6464,-25.843 -2.0941,-5.267 17.4807,5.509 3.0022,0.842 5.9623,1.852 9.0064,2.527 0.3821,0.08 1.5186,-0.173 1.141,-0.276 -10.6027,-2.892 -22.6959,1.493 -33.4144,-0.168 -34.0159,1.233 -67.735,5.474 -101.1135,12.233 -27.8963,5.355 -56.1455,10.621 -82.2033,22.387 -17.2317,7.428 -52.2449,-73.803 -35.0133,-81.23 z" id="path10542" inkscape:connector-curvature="0" style="fill:#2b0000;fill-opacity:1;fill-rule:nonzero;stroke:#f9f9f9;stroke-width:0.1;stroke-miterlimit:4;stroke-dasharray:none" transform="translate(-8192, -31744)"/><path d="m 8353.6998,32326.392 c 29.5299,2.299 59.2048,0.408 88.7453,-0.794 40.0614,-2.022 80.1649,-2.732 120.2716,-2.497 21.3507,0.323 42.7716,0.529 63.9583,3.427 11.7496,2.319 4.047,0.332 22.2529,8.622 15.4345,10.874 -35.8284,83.633 -51.2628,72.758 l 0,0 c 4.9035,2.093 9.8071,4.186 14.7106,6.279 0.1141,-0.04 0.2281,-0.09 0.3421,-0.129 -16.5995,-3.795 -34.1334,-2.201 -50.9625,-3.581 -38.5165,-0.634 -77.0385,-0.06 -115.5061,2.117 -33.3712,1.558 -66.8071,3.577 -100.2172,1.977 -18.7056,-1.627 -11.0378,-89.806 7.6678,-88.179 z" id="path10544" inkscape:connector-curvature="0" style="fill:#2b0000;fill-opacity:1;fill-rule:nonzero;stroke:#f9f9f9;stroke-width:0.1;stroke-miterlimit:4;stroke-dasharray:none" transform="translate(-8192, -31744)"/><path d="m 8714.4926,31947.193 c 33.3012,-1.62 66.6226,-2.806 99.9454,-3.88 40.317,-1.357 80.6412,-0.335 120.8479,2.772 28.954,2.069 57.1385,8.617 84.6839,17.477 24.8102,7.681 36.5783,14.574 52.5278,35.972 13.1573,28.037 4.3645,56.04 -3.7192,84.023 -9.186,30.205 -19.7141,59.975 -29.2251,90.078 -6.7862,21.197 -12.1354,42.803 -17.9998,64.259 -4.0861,19.45 -14.6696,34.086 -30.3636,45.859 -2.6929,1.484 -5.3858,2.968 -8.0787,4.452 -16.7727,8.533 -56.9991,-70.534 -40.2264,-79.068 l 0,0 c -0.3787,0.307 -0.7573,0.613 -1.136,0.919 -5.9646,5.538 -10.5076,18.168 -5.1788,3.701 6.5801,-22.19 12.4327,-44.598 19.58,-66.62 9.3254,-29.197 19.505,-58.124 28.1404,-87.536 2.6899,-9.711 3.0478,-10.589 5.2005,-19.765 3.1683,-13.505 1.0999,-2.488 6.5541,4.622 14.3631,15.477 11.7243,6.775 -3.7725,2.816 -20.7814,-7.124 -42.0479,-12.486 -64.0473,-14.147 -36.8539,-3.153 -73.8424,-4.108 -110.8183,-2.777 -31.9719,1.153 -63.9828,2.215 -95.86,5.022 -18.7055,1.496 -25.7598,-86.683 -7.0543,-88.179 z" id="path10546" inkscape:connector-curvature="0" style="fill:#2b0000;fill-opacity:1;fill-rule:nonzero;stroke:#f9f9f9;stroke-width:0.1;stroke-miterlimit:4;stroke-dasharray:none" transform="translate(-8192, -31744)"/><path d="m 8811.1169,32016.437 c -9.6188,29.721 -18.1588,59.779 -26.1527,89.973 -8.535,32.388 -16.0775,65.026 -22.3335,97.93 -3.3804,18.628 -6.161,37.415 -6.3134,56.374 1.5439,10.066 -0.6865,-3.065 -2.3511,-5.752 -5.9109,-9.542 -7.2693,-9.289 -15.6178,-14.675 -16.0614,-2.945 23.4153,-4.3 24.3031,-4.407 29.9309,-4.388 59.3717,-11.567 88.8274,-18.35 35.2343,-8.062 70.5798,-15.667 106.2715,-21.412 22.0227,-3.792 44.1447,-3.474 66.0169,0.759 16.6303,3.162 29.7962,12.788 41.7584,24.175 7.4614,6.947 14.5136,14.305 21.4034,21.814 6.4236,6.637 12.4479,13.616 18.0208,20.978 5.276,7.386 9.8714,15.231 14.1977,23.201 6.8311,11.444 9.2947,24.167 10.0609,37.295 -0.1557,20.515 -6.3799,40.276 -12.1244,59.77 -10.6713,34.809 -22.8839,69.122 -35.2029,103.375 -9.1778,25.344 -18.9219,50.476 -28.2396,75.768 -3.8477,11.378 -8.1964,22.427 -14.1615,32.856 -5.9931,9.236 -13.9739,16.826 -22.3507,23.857 -4.8383,3.875 -9.8056,7.59 -14.8985,11.122 -5.3422,3.685 -11.3498,6.039 -17.4737,8.021 -0.8753,1.036 -12.2304,3.038 -17.0886,3.565 -6.965,1.323 -14.1602,0.856 -21.1077,2.173 -1.0476,0.242 -2.0952,0.485 -3.1428,0.727 -18.3398,4.02 -37.2878,-82.435 -18.9481,-86.454 l 0,0 c 2.7994,-0.601 5.5988,-1.202 8.3982,-1.802 8.1246,-1.202 16.2736,-1.725 24.3923,-2.914 10.7211,-1.381 -13.4273,3.767 -0.069,0.07 5.1736,-1.68 -4.6353,1.863 -5.0578,3.149 2.9203,-1.907 5.6847,-4.044 8.4689,-6.142 1.0588,-0.817 5.7669,-5.784 3.3315,-2.033 -2.0408,5.04 7.4129,-17.088 7.268,-17.672 9.7095,-24.571 19.5778,-49.086 28.6763,-73.892 11.7345,-32.388 23.2104,-64.9 32.7666,-98.01 3.0152,-10.841 6.1691,-21.677 7.877,-32.822 0.7944,3.03 3.0828,7.705 0.2522,1.73 -2.0436,-4.07 -4.5093,-7.921 -6.8858,-11.802 -3.7062,-5.118 -8.1235,-9.65 -12.3829,-14.303 -5.4728,-6.015 -11.1042,-11.879 -17.0998,-17.379 -6.7565,-6.421 0.6123,-0.17 1.2043,-1.727 -11.3732,-2.845 -22.9295,-2.579 -34.5179,-0.809 -33.5806,4.897 -66.7804,11.985 -99.827,19.659 -32.4034,7.642 -64.772,15.76 -97.7108,20.785 -22.3048,2.874 -45.1223,6.316 -67.1312,-0.147 -4.962,-2.582 -10.4496,-4.339 -14.8858,-7.747 -18.2091,-13.985 -23.8147,-34.976 -23.5296,-56.781 0.8392,-23.852 4.0065,-47.512 8.6451,-70.922 6.8944,-34.712 15.026,-69.157 23.998,-103.391 8.1935,-31.306 17.0982,-62.411 25.8884,-93.553 5.4666,-17.942 90.0446,7.828 84.578,25.77 z" id="path10548" inkscape:connector-curvature="0" style="fill:#2b0000;fill-opacity:1;fill-rule:nonzero;stroke:#f9f9f9;stroke-width:0.1;stroke-miterlimit:4;stroke-dasharray:none" transform="translate(-8192, -31744)"/><path d="m 8592.2283,32417.271 c 32.5145,-2.437 64.9766,-5.295 97.5522,-6.834 36.7166,-1.685 73.4754,-0.821 110.1943,0.231 26.8635,0.658 53.6981,2.008 80.4962,3.969 9.6934,0.672 19.3834,1.607 29.0999,1.047 18.7955,-0.577 21.5153,88.025 2.7198,88.602 l 0,0 c -12.9502,0.226 -25.85,-0.592 -38.7383,-1.866 -25.3843,-2.156 -50.8162,-3.624 -76.283,-4.374 -34.4356,-1.148 -68.9152,-2.076 -103.3548,-0.467 -31.6406,1.507 -63.1873,4.233 -94.6627,7.805 -18.6917,1.49 -25.7152,-86.623 -7.0236,-88.113 z" id="path10552" inkscape:connector-curvature="0" style="fill:#2b0000;fill-opacity:1;fill-rule:nonzero;stroke:#f9f9f9;stroke-width:0.1;stroke-miterlimit:4;stroke-dasharray:none" transform="translate(-8192, -31744)"/></svg>