<?xml version="1.0" encoding="utf-8" ?>

<!DOCTYPE svg PUBLIC "-//W3C//DTD SVG 1.1//EN" 
  "http://www.w3.org/Graphics/SVG/1.1/DTD/svg11.dtd">
<svg 
    xmlns="http://www.w3.org/2000/svg"
    xmlns:xlink="http://www.w3.org/1999/xlink"
    xmlns:sodipodi="http://sodipodi.sourceforge.net/DTD/sodipodi-0.dtd"
    xmlns:inkscape="http://www.inkscape.org/namespaces/inkscape"
    width="1024" height="1024" id="U5450">
<path d="m 11409.494,34192.262 c -2.489,28.52 -0.849,57.197 1.191,85.688 2.021,24.323 4.855,48.716 12.037,72.113 2.936,12.784 14.303,20.512 -0.189,6.571 -22.946,-9.269 -10.217,-7.197 -38.553,-3.249 16.805,-8.516 56.951,70.701 40.146,79.217 l 0,0 c -35.345,7.363 -18.894,8.784 -49.522,-1.271 -19.625,-15.767 -29.573,-32.77 -36.521,-56.932 -8.13,-29.487 -12.385,-59.763 -14.478,-90.268 -2.337,-33.186 -3.993,-66.487 -2.23,-99.75 1.672,-18.692 89.791,-10.812 88.119,7.881 z" id="path11362" inkscape:connector-curvature="0" style="fill:#c83737;fill-opacity:1;fill-rule:nonzero;stroke:#f9f9f9;stroke-width:0.1;stroke-miterlimit:4;stroke-dasharray:none" transform="translate(-11264, -33792)"/><path d="m 11380.409,34146.61 c 27.627,-7.577 56.064,-9.748 84.58,-9.762 24.142,0.431 48.052,3.821 71.879,7.433 13.753,2.321 27.541,4.41 41.242,7.036 35.919,9.185 45.929,35.688 45.285,69.639 -2.68,29.992 -8.328,59.629 -13.264,89.31 -3.853,23.242 -7.185,46.567 -9.505,70.013 -1.068,8.528 -0.837,17.105 -1.326,25.651 -2.205,18.753 -90.606,8.357 -88.4,-10.395 l 0,0 c -0.42,14.407 0.97,-24.184 2.015,-24.759 2.923,-25.058 6.755,-49.993 10.914,-74.875 4.3,-25.814 9.032,-51.624 11.334,-77.712 0.09,-1.106 -0.754,-2.88 0.265,-3.319 0.902,-0.388 0.601,1.88 1.049,2.754 1.431,2.79 2.57,5.809 4.578,8.218 5.177,6.214 11.493,11.318 19.624,12.39 -12.397,-2.623 -24.899,-4.638 -37.376,-6.841 -19.433,-3.11 -38.921,-6.149 -58.632,-6.734 -20.33,-0.188 -40.707,0.929 -60.244,7.111 -18.064,5.095 -42.083,-80.063 -24.018,-85.158 z" id="path11364" inkscape:connector-curvature="0" style="fill:#c83737;fill-opacity:1;fill-rule:nonzero;stroke:#f9f9f9;stroke-width:0.1;stroke-miterlimit:4;stroke-dasharray:none" transform="translate(-11264, -33792)"/><path d="m 11390.878,34341.226 c 31.093,-9.393 63.348,-13.595 95.534,-17.096 28.736,-2.821 57.621,-4.007 86.472,-2.813 17.471,0.778 34.112,4.849 49.643,12.77 16.336,9.4 -27.977,86.409 -44.313,77.008 l 0,0 c 8.636,3.549 -8.148,-3.533 -9.841,-1.755 -24.176,-1.571 -48.432,-0.543 -72.54,1.685 -25.867,2.794 -51.967,5.824 -76.78,14.037 -17.785,5.977 -45.959,-77.859 -28.175,-83.836 z" id="path11366" inkscape:connector-curvature="0" style="fill:#c83737;fill-opacity:1;fill-rule:nonzero;stroke:#f9f9f9;stroke-width:0.1;stroke-miterlimit:4;stroke-dasharray:none" transform="translate(-11264, -33792)"/><path d="m 11718.593,34161.797 c 4.489,39.612 7.975,79.327 11.908,118.996 5.254,55.573 14.432,110.629 25.105,165.383 7.909,39.683 16.729,79.177 26.133,118.53 -1.671,3.165 14.202,42.926 4.547,20.539 10.15,15.894 -64.775,63.741 -74.925,47.847 l 0,0 c -7.675,-15.48 -11.848,-31.722 -14.971,-48.743 -8.978,-40.523 -17.695,-81.106 -25.597,-121.855 -10.88,-57.263 -20.284,-114.807 -26.174,-172.823 -4.203,-39.068 -7.825,-78.235 -13.838,-117.077 -2.29,-18.628 85.522,-29.424 87.812,-10.797 z" id="path11368" inkscape:connector-curvature="0" style="fill:#c83737;fill-opacity:1;fill-rule:nonzero;stroke:#f9f9f9;stroke-width:0.1;stroke-miterlimit:4;stroke-dasharray:none" transform="translate(-11264, -33792)"/><path d="m 11704.656,34133.786 c 28.719,-6.992 57.938,-11.423 87.288,-14.671 36.415,-3.549 73.045,-3.155 109.563,-1.974 32.4,1.726 64.766,3.891 97.18,5.359 25.091,0.758 50.141,2.075 74.917,6.219 24.421,4.268 45.208,16.492 64.155,31.885 23.029,19.429 33.947,45.823 40.913,74.347 7.48,39.29 4.898,79.307 0.994,118.813 -5.692,50.12 -16.673,99.401 -27.447,148.612 -7.76,35.229 -14.751,70.621 -20.578,106.221 -1.547,12.791 -4.012,25.271 -7.769,37.574 -6.312,17.712 -89.804,-12.044 -83.492,-29.756 l 0,0 c 0.892,14.279 4.305,-35.802 4.767,-22.769 6.678,-36.805 14.309,-73.425 22.484,-109.926 10.173,-45.783 20.408,-91.671 25.499,-138.36 2.856,-30.028 5.09,-60.451 -0.03,-90.386 -2.052,-9.677 -4.159,-19.309 -11.646,-26.353 -6.891,-5.942 -13.975,-11.339 -23.151,-13.112 -21.015,-4.027 -42.49,-4.347 -63.801,-5.489 -31.964,-1.607 -63.885,-3.82 -95.838,-5.601 -32.345,-1.062 -64.794,-1.5 -97.053,1.601 -24.849,2.782 -49.68,6.44 -73.797,13.219 -18.127,4.913 -41.287,-80.54 -23.16,-85.453 z" id="path11370" inkscape:connector-curvature="0" style="fill:#c83737;fill-opacity:1;fill-rule:nonzero;stroke:#f9f9f9;stroke-width:0.1;stroke-miterlimit:4;stroke-dasharray:none" transform="translate(-11264, -33792)"/><path d="m 11960.455,34015.723 c -1.519,37.886 -7.947,75.257 -15.036,112.424 -11.952,58.571 -28.304,116.109 -44.371,173.648 -11.348,40.08 -22.242,80.289 -33.785,120.313 -2.424,10.024 -6.471,19.262 -10.999,28.458 -9.236,16.388 -86.494,-27.15 -77.258,-43.538 l 0,0 c -0.168,0.692 -0.894,2.672 -0.503,2.077 1.409,-2.139 4.502,-11.795 4.711,-12.398 12.42,-39.16 23.562,-78.714 34.94,-118.185 15.531,-55.013 31.145,-110.097 42.141,-166.237 5.887,-32.434 11.537,-65.113 11.63,-98.186 0.345,-18.78 88.875,-17.156 88.53,1.624 z" id="path11372" inkscape:connector-curvature="0" style="fill:#c83737;fill-opacity:1;fill-rule:nonzero;stroke:#f9f9f9;stroke-width:0.1;stroke-miterlimit:4;stroke-dasharray:none" transform="translate(-11264, -33792)"/><path d="m 11930.332,34288.285 c 14.281,21.234 34.355,37.261 54.624,52.423 27.444,19.526 57.211,35.406 87.125,50.746 9.118,4.556 18.225,9.133 27.359,13.655 16.645,8.601 -23.901,87.068 -40.547,78.467 l 0,0 c -9.069,-4.888 -18.154,-9.745 -27.312,-14.465 -33.875,-17.945 -67.674,-36.288 -98.915,-58.621 -28.46,-21.354 -55.842,-44.406 -76.406,-73.802 -10.268,-15.713 63.804,-64.116 74.072,-48.403 z" id="path11374" inkscape:connector-curvature="0" style="fill:#c83737;fill-opacity:1;fill-rule:nonzero;stroke:#f9f9f9;stroke-width:0.1;stroke-miterlimit:4;stroke-dasharray:none" transform="translate(-11264, -33792)"/></svg>