<?xml version="1.0" encoding="UTF-8" standalone="no"?>
<svg
   xmlns:dc="http://purl.org/dc/elements/1.1/"
   xmlns:cc="http://creativecommons.org/ns#"
   xmlns:rdf="http://www.w3.org/1999/02/22-rdf-syntax-ns#"
   xmlns:svg="http://www.w3.org/2000/svg"
   xmlns="http://www.w3.org/2000/svg"
   xmlns:sodipodi="http://sodipodi.sourceforge.net/DTD/sodipodi-0.dtd"
   xmlns:inkscape="http://www.inkscape.org/namespaces/inkscape"
   width="1024"
   height="1024"
   id="U544A"
   version="1.1"
   inkscape:version="0.48.0 r9654"
   sodipodi:docname="U+544A.svg">
  <metadata
     id="metadata14">
    <rdf:RDF>
      <cc:Work
         rdf:about="">
        <dc:format>image/svg+xml</dc:format>
        <dc:type
           rdf:resource="http://purl.org/dc/dcmitype/StillImage" />
      </cc:Work>
    </rdf:RDF>
  </metadata>
  <defs
     id="defs12" />
  <sodipodi:namedview
     pagecolor="#ffffff"
     bordercolor="#666666"
     borderopacity="1"
     objecttolerance="10"
     gridtolerance="10"
     guidetolerance="10"
     inkscape:pageopacity="0"
     inkscape:pageshadow="2"
     inkscape:window-width="640"
     inkscape:window-height="480"
     id="namedview10"
     showgrid="false"
     inkscape:zoom="0.27441406"
     inkscape:cx="512"
     inkscape:cy="512"
     inkscape:window-x="0"
     inkscape:window-y="25"
     inkscape:window-maximized="0"
     inkscape:current-layer="U544A" />
  <path
     style="fill:#550000;fill-opacity:1;fill-rule:nonzero;stroke:#f9f9f9;stroke-width:0.1;stroke-miterlimit:4;stroke-dasharray:none"
     d="M 458.375 134.65625 C 449.84128 134.86656 443.68535 136.874 442.53125 141.375 C 434.38065 187.484 432.1709 234.46975 428.5 281.09375 C 428.22105 284.48022 427.93677 287.86364 427.65625 291.25 C 419.08542 292.87735 410.52763 294.65421 402 296.5625 C 379.91013 301.51662 357.74823 306.60182 335.90625 312.71875 C 351.83607 276.16119 367.80123 239.61546 384.375 203.34375 C 391.8388 186.32675 311.5888 151.13925 304.125 168.15625 C 288.9588 205.39925 273.01905 242.30525 257.21875 279.28125 C 236.39615 328.09425 215.9443 377.075 195.6875 426.125 C 193.2134 432.099 190.7241 438.05725 188.25 444.03125 C 181.3868 460.99525 261.35555 493.339 268.21875 476.375 C 270.57435 470.411 272.9568 464.464 275.3125 458.5 C 280.98383 444.33716 286.70067 430.18588 292.46875 416.0625 C 295.80602 418.14274 298.86428 418.79629 301.34375 417.46875 C 338.62265 398.57808 379.68489 389.00253 420.15625 379.65625 C 417.49639 410.17589 414.77902 440.68172 411.96875 471.1875 C 411.13205 479.8835 410.2742 488.58525 409.4375 497.28125 C 409.13324 500.60001 411.78297 503.59513 416.28125 506.125 C 357.07751 514.76598 298.0762 524.76 239.71875 538.0625 C 194.41655 549.0575 146.97055 559.0195 107.40625 584.8125 C 111.43325 611.3405 110.3181 639.163 119.5 664.375 C 122.1203 671.57 165.97265 661.97825 172.53125 660.40625 C 177.05488 659.32925 179.17341 653.19144 179.53125 644.65625 C 205.69167 634.64118 233.08986 627.71588 260.21875 620.84375 C 327.44805 604.92275 395.7247 594.029 464.125 584.625 C 524.0314 576.267 584.2982 571.42825 644.75 574.40625 C 658.05579 577.26882 674.98423 575.859 688.5625 580.96875 C 688.99386 581.27166 689.44846 581.54769 689.96875 581.75 C 689.78186 581.60433 689.59331 581.45792 689.40625 581.3125 C 690.09519 581.58886 690.76784 581.87413 691.4375 582.1875 C 710.13973 585.90541 768.40198 542.85793 758.65625 529.0625 C 753.27315 523.4025 748.5785 516.99875 742.5 512.09375 C 716.9983 491.51575 678.61725 492.79025 648.21875 488.78125 C 597.13923 487.11524 546.18847 489.86592 495.46875 495.53125 C 495.95764 489.92361 496.44861 484.3261 496.9375 478.71875 C 500.13711 440.9204 503.32748 403.10767 506.5625 365.3125 C 533.98682 362.38484 561.57012 360.82726 589.1875 360.28125 C 604.3118 361.11525 620.12965 359.4685 634.96875 363.3125 C 653.29475 366.2735 667.23225 279.8985 648.90625 276.9375 C 628.28995 274.3065 607.55345 273.929 586.78125 274.5 C 562.48831 275.36917 538.20738 276.85966 514.03125 279.15625 C 517.27575 240.37939 519.85729 201.34297 527.40625 163.15625 C 530.86855 149.65325 483.97615 134.02531 458.375 134.65625 z M 691.4375 582.1875 C 690.91627 582.08388 690.42621 581.92788 689.96875 581.75 C 691.81467 583.18876 693.66908 584.60746 695.6875 585.78125 C 695.9957 585.96125 696.51355 585.075 696.21875 584.875 C 694.70265 583.84478 693.09097 582.96125 691.4375 582.1875 z M 137.8125 578 C 138.43524 577.98094 139.03947 578.01398 139.625 578.0625 C 138.99474 578.18777 138.38206 578.3219 137.75 578.4375 C 126.78321 580.44294 132.47964 578.16326 137.8125 578 z M 467.6875 638.9375 C 445.51916 638.84995 423.3533 639.95594 401.28125 642.625 C 363.16625 648.096 325.00805 655.70275 290.78125 674.21875 C 283.74854 678.51282 288.83062 695.61897 298.03125 712.46875 C 273.34244 711.40114 222.77438 730.251 227.0625 744.1875 C 237.2245 775.0345 244.61235 806.7125 252.53125 838.1875 C 259.47515 866.5885 266.6121 894.94025 275.5625 922.78125 C 278.93304 932.91883 308.0263 927.94883 330.78125 918.59375 C 334.32643 936.74969 340.98678 952.21209 348.90625 951.15625 C 386.07675 945.30625 423.5461 941.9325 461.0625 939.3125 C 493.3462 937.5645 526.01315 936.91475 557.53125 944.96875 C 559.75145 945.80875 561.9673 946.66 564.1875 947.5 C 570.46781 949.58128 578.02015 940.30118 584.3125 927.28125 C 592.29899 928.7041 598.42751 927.97892 600.4375 923.96875 C 609.7442 904.57475 617.2827 884.563 622.4375 863.625 C 631.7179 828.836 641.5671 793.912 645.3125 758 C 646.4568 718.722 639.642 687.99875 605 664.96875 C 578.3638 650.56675 549.6154 643.271 519.375 641.125 C 502.16572 639.78669 484.92954 639.00559 467.6875 638.9375 z M 462.84375 725.21875 C 479.33447 725.19013 495.83265 725.9885 512.28125 727.4375 C 528.82725 729.9935 547.3793 730.75075 561.5625 740.71875 C 561.8223 741.19175 562.39475 741.61825 562.34375 742.15625 C 562.23665 743.27925 559.5419 740.93775 559.1875 742.71875 C 558.4317 746.49875 558.76555 750.43825 558.46875 754.28125 C 554.69915 783.77725 546.6266 812.5385 538.875 841.1875 C 537.70851 845.46976 536.49433 849.73664 535.1875 853.96875 C 508.64628 851.48917 481.89002 851.72035 455.125 853.65625 C 419.35735 856.115 383.66873 859.29577 348.03125 863.1875 C 343.74977 847.9588 339.94052 832.61069 336.125 817.25 C 329.58262 791.04489 323.29166 764.76612 316.375 738.65625 C 324.10054 747.05158 331.60705 751.89937 336.40625 748.96875 C 360.18305 736.20975 387.0427 731.73925 413.4375 728.03125 C 429.8686 726.12475 446.35303 725.24737 462.84375 725.21875 z "
     id="path23581" />
</svg>
