<?xml version="1.0" encoding="utf-8" ?>

<!DOCTYPE svg PUBLIC "-//W3C//DTD SVG 1.1//EN" 
  "http://www.w3.org/Graphics/SVG/1.1/DTD/svg11.dtd">
<svg 
    xmlns="http://www.w3.org/2000/svg"
    xmlns:xlink="http://www.w3.org/1999/xlink"
    xmlns:sodipodi="http://sodipodi.sourceforge.net/DTD/sodipodi-0.dtd"
    xmlns:inkscape="http://www.inkscape.org/namespaces/inkscape"
    width="1024" height="1024" id="U540C">
<path d="m 8460.9027,49446.491 c -1.9227,50.521 -1.096,101.096 -0.084,151.626 1.5594,79.431 7.6975,158.634 18.6134,237.307 8.2763,45.737 15.3308,93.866 39.4287,134.467 8.8606,16.284 -67.9002,58.054 -76.7609,41.77 l 0,0 c -26.5385,-51.345 -39.0148,-107.877 -47.0902,-164.851 -10.7337,-81.798 -17.0783,-164.055 -19.4248,-246.534 -1.5777,-51.701 -2.7356,-103.409 -3.0899,-155.134 0.2864,-18.754 88.6942,-17.405 88.4079,1.349 z" id="path12292" inkscape:connector-curvature="0" style="fill:#782121;fill-opacity:1;fill-rule:nonzero;stroke:#f9f9f9;stroke-width:0.1;stroke-miterlimit:4;stroke-dasharray:none" transform="translate(-8192, -49152)"/><path d="m 8422.2246,49441.034 c 25.6518,-34.327 64.2542,-52.018 103.0815,-67.102 59.216,-20.673 121.5317,-28.662 183.7666,-33.207 62.7908,-3.79 125.1232,3.311 186.0628,18.094 39.463,11.618 79.7744,27.106 109.3245,56.973 6.0716,6.136 11.1284,13.2 16.6926,19.8 36.8941,55.978 36.3299,122.776 34.6328,187.286 -4.43,79.174 -15.8602,157.719 -25.3752,236.384 -8.011,62.101 -11.5881,124.595 -13.6751,187.133 -0.3041,7.625 -0.6082,15.25 -0.9122,22.875 -0.8712,18.385 -87.5396,14.278 -86.6685,-4.107 l 0,0 c 0.4073,-7.389 0.8146,-14.778 1.2219,-22.167 2.9308,-64.858 7.0321,-129.679 15.5285,-194.088 9.4133,-75.868 20.4988,-151.662 24.4434,-228.075 0.927,-43.697 3.2984,-90.445 -17.0562,-130.55 -19.1317,-26.271 -48.4258,-38.721 -79.06,-47.548 -51.9451,-13.358 -105.2779,-19.433 -158.9702,-16.46 -53.68,3.843 -107.4442,10.711 -158.5077,28.566 -21.5189,8.37 -44.6472,16.879 -60.4379,34.579 -10.2643,15.717 -84.3559,-32.669 -74.0916,-48.386 z" id="path12294" inkscape:connector-curvature="0" style="fill:#782121;fill-opacity:1;fill-rule:nonzero;stroke:#f9f9f9;stroke-width:0.1;stroke-miterlimit:4;stroke-dasharray:none" transform="translate(-8192, -49152)"/><path d="m 8502.0651,49555.867 c 48.6634,-19.004 98.5407,-34.521 148.8374,-48.525 59.1676,-16.164 119.7348,-26.192 181.0268,-28.085 22.1757,-1.138 42.2889,4.083 62.8999,11.261 17.2856,6.971 -15.5742,88.456 -32.8598,81.485 l 0,0 c -7.9624,-5.972 -18.8177,-5.113 -28.2067,-6.033 -54.1044,0.478 -107.5411,9.871 -159.7227,23.962 -46.3908,13.082 -92.5359,27.475 -136.7417,46.862 -17.167,7.474 -52.4003,-73.453 -35.2332,-80.927 z" id="path12296" inkscape:connector-curvature="0" style="fill:#782121;fill-opacity:1;fill-rule:nonzero;stroke:#f9f9f9;stroke-width:0.1;stroke-miterlimit:4;stroke-dasharray:none" transform="translate(-8192, -49152)"/><path d="m 8608.9836,49730.9 c -2.4059,34.424 2.9116,68.732 9.5022,102.408 5.8169,26.058 12.8209,52.087 24.7112,76.085 7.8027,16.888 -71.8097,53.671 -79.6125,36.782 l 0,0 c -13.6683,-30.901 -23.5797,-63.22 -30.3039,-96.356 -7.9498,-41.368 -14.006,-83.296 -12.3843,-125.556 1.4079,-18.686 89.4952,-12.05 88.0873,6.637 z" id="path12298" inkscape:connector-curvature="0" style="fill:#782121;fill-opacity:1;fill-rule:nonzero;stroke:#f9f9f9;stroke-width:0.1;stroke-miterlimit:4;stroke-dasharray:none" transform="translate(-8192, -49152)"/><path d="m 8611.6313,49706.259 c 34.431,-22.281 74.3578,-31.414 114.2746,-37.845 36.8364,-5.211 73.862,-4.55 110.1701,3.382 41.4176,12.534 57.7239,30.957 68.5449,72.539 5.3489,39.832 -6.9002,78.351 -18.5936,115.912 -10.3913,31.661 -20.6917,63.36 -31.7203,94.806 -6.4399,16.038 -2.8557,8.126 -10.7781,23.725 -8.8732,16.471 -86.5172,-25.358 -77.6439,-41.829 l 0,0 c 3.8992,-6.129 1.7799,-2.377 5.7959,-11.556 11.0699,-30.076 21.1427,-60.513 31.1239,-90.965 7.1982,-23.293 15.2064,-46.954 15.7783,-71.562 0.5763,-2.531 7.412,-0.607 2.3529,-3.372 -1.5982,-0.874 -3.3497,-1.432 -5.0246,-2.148 -24.9128,-6.737 -50.9573,-5.798 -76.4123,-2.922 -26.2235,4.039 -53.1086,8.943 -75.9029,23.371 -15.1751,11.024 -67.14,-60.513 -51.9649,-71.536 z" id="path12300" inkscape:connector-curvature="0" style="fill:#782121;fill-opacity:1;fill-rule:nonzero;stroke:#f9f9f9;stroke-width:0.1;stroke-miterlimit:4;stroke-dasharray:none" transform="translate(-8192, -49152)"/><path d="m 8610.0893,49910.768 c 39.611,-6.171 79.5807,-9.533 119.5257,-12.639 40.1874,-2.875 80.4148,-5.145 120.6286,-7.611 18.5506,-0.966 23.1037,86.483 4.5531,87.449 l 0,0 c -39.4773,1.687 -78.9462,3.688 -118.3559,6.577 -36.831,2.957 -73.803,5.933 -110.1049,13.081 -18.4251,3.446 -34.6718,-83.411 -16.2466,-86.857 z" id="path12302" inkscape:connector-curvature="0" style="fill:#782121;fill-opacity:1;fill-rule:nonzero;stroke:#f9f9f9;stroke-width:0.1;stroke-miterlimit:4;stroke-dasharray:none" transform="translate(-8192, -49152)"/></svg>