<?xml version="1.0" encoding="utf-8" ?>

<!DOCTYPE svg PUBLIC "-//W3C//DTD SVG 1.1//EN" 
  "http://www.w3.org/Graphics/SVG/1.1/DTD/svg11.dtd">
<svg 
    xmlns="http://www.w3.org/2000/svg"
    xmlns:xlink="http://www.w3.org/1999/xlink"
    xmlns:sodipodi="http://sodipodi.sourceforge.net/DTD/sodipodi-0.dtd"
    xmlns:inkscape="http://www.inkscape.org/namespaces/inkscape"
    width="1024" height="1024" id="U54C8">
<path d="m 9371.7555,16823.013 c -4.091,34.895 -0.09,70.158 3.4974,104.919 5.1498,40.977 9.7868,82.4 21.8335,122.039 3.471,7.379 1.4335,8.822 4.1384,6.241 10.3629,15.357 -62.0298,64.208 -72.3927,48.851 l 0,0 c -11.9433,-20.363 -6.9674,-9.865 -15.0604,-31.431 -12.0728,-44.746 -18.2802,-90.747 -23.7366,-136.712 -4.531,-42.124 -9.0501,-84.668 -4.8431,-127.023 2.7823,-18.362 89.3458,-5.247 86.5635,13.116 z" id="path24311" inkscape:connector-curvature="0" style="fill:#550000;fill-opacity:1;fill-rule:nonzero;stroke:#f9f9f9;stroke-width:0.1;stroke-miterlimit:4;stroke-dasharray:none" transform="translate(-9216, -16384)"/><path d="m 9364.2817,16827.169 c 28.9124,-15.628 60.6951,-23.572 92.8472,-29.057 23.919,-3.364 47.9636,-5.024 71.7868,-0.661 41.3211,14.861 44.3199,46.96 43.3863,84.911 -1.8659,40.005 -9.6161,79.383 -17.0344,118.639 -6.7409,34.82 -13.1913,69.695 -19.5226,104.591 -0.5996,3.198 -1.1993,6.395 -1.7989,9.592 -3.679,18.146 -89.2211,0.803 -85.5422,-17.343 l 0,0 c 0.6382,-2.908 1.2764,-5.816 1.9145,-8.724 7.0764,-34.606 13.7776,-69.286 20.4375,-103.974 6.4476,-34.615 13.233,-69.358 14.5573,-104.637 0.5425,-32.885 -0.7934,-2.002 23.9097,2.391 2.8126,-0.764 -5.7722,-0.995 -8.6865,-0.993 -9.7778,0 -19.5618,0.728 -29.2704,1.836 -21.8286,3.439 -43.6937,8.164 -63.1133,19.206 -16.0747,9.306 -59.9458,-66.471 -43.871,-75.777 z" id="path24313" inkscape:connector-curvature="0" style="fill:#550000;fill-opacity:1;fill-rule:nonzero;stroke:#f9f9f9;stroke-width:0.1;stroke-miterlimit:4;stroke-dasharray:none" transform="translate(-9216, -16384)"/><path d="m 9368.4896,17064.865 c 34.2892,1.065 68.4593,-3.118 102.4618,-6.978 32.4307,-3.975 64.8069,-8.372 97.1328,-13.12 18.2002,-2.527 30.11,83.27 11.9098,85.796 l 0,0 c -33.0532,4.328 -66.1225,8.53 -99.1968,12.692 -38.4002,4.496 -76.8999,9.033 -115.6219,9.106 -18.5607,-0.703 -15.2464,-88.199 3.3143,-87.496 z" id="path24315" inkscape:connector-curvature="0" style="fill:#550000;fill-opacity:1;fill-rule:nonzero;stroke:#f9f9f9;stroke-width:0.1;stroke-miterlimit:4;stroke-dasharray:none" transform="translate(-9216, -16384)"/><path d="m 9827.1017,16608.674 c -22.7674,42.867 -46.371,85.279 -69.9342,127.711 -34.1813,60.443 -65.8323,122.218 -93.6686,185.83 -4.8443,17.191 -28.2041,60.531 -21.8298,78.644 0.4973,18.471 -86.5721,20.815 -87.0694,2.345 l 0,0 c 1.0121,-40.665 14.8262,-78.409 31.211,-115.394 29.3624,-65.567 62.1072,-129.479 97.0388,-192.258 22.6404,-41.653 45.5362,-83.223 65.9366,-126.036 8.3066,-16.613 86.6223,22.545 78.3156,39.158 z" id="path24317" inkscape:connector-curvature="0" style="fill:#550000;fill-opacity:1;fill-rule:nonzero;stroke:#f9f9f9;stroke-width:0.1;stroke-miterlimit:4;stroke-dasharray:none" transform="translate(-9216, -16384)"/><path d="m 9854.5449,16631.806 c 10.7833,28.922 26.219,55.744 42.3386,81.95 22.4909,35.558 49.133,68.175 77.1653,99.453 12.6829,14.108 26.5322,27.058 40.4622,39.904 13.419,12.694 -46.4234,75.952 -59.8424,63.258 l 0,0 c -15.3971,-14.92 -30.7862,-29.865 -45.0081,-45.932 -31.0664,-35.215 -60.7177,-71.772 -85.9554,-111.46 -18.9259,-30.503 -36.7659,-61.724 -50.6788,-94.888 -6.8486,-17.293 74.67,-49.577 81.5186,-32.285 z" id="path24319" inkscape:connector-curvature="0" style="fill:#550000;fill-opacity:1;fill-rule:nonzero;stroke:#f9f9f9;stroke-width:0.1;stroke-miterlimit:4;stroke-dasharray:none" transform="translate(-9216, -16384)"/><path d="m 9664.106,16909.196 c 39.4991,1.01 79.0372,-1.941 118.4887,-3.772 48.6378,-2.284 97.299,-4.024 145.9945,-3.818 15.6912,-0.583 30.7113,1.71 45.9181,5.107 17.8611,4.998 -5.6965,89.196 -23.5576,84.198 l 0,0 c -2.0969,-4.81 -23.1406,0.33 -23.3935,-2.977 -46.9548,-0.955 -93.8946,0.548 -140.7927,2.915 -42.9602,2.199 -85.921,5.612 -128.948,5.714 -18.5333,-1.335 -12.2429,-88.702 6.2905,-87.367 z" id="path24321" inkscape:connector-curvature="0" style="fill:#550000;fill-opacity:1;fill-rule:nonzero;stroke:#f9f9f9;stroke-width:0.1;stroke-miterlimit:4;stroke-dasharray:none" transform="translate(-9216, -16384)"/><path d="m 9718.2759,17092.66 c 1.0135,28.727 6.4452,57.107 11.7004,85.301 3.3438,17.48 6.8649,34.942 12.5285,51.83 5.4873,17.63 -77.6211,43.498 -83.1084,25.868 l 0,0 c -6.0251,-20.338 -10.6889,-40.995 -14.3838,-61.89 -6.1328,-33.017 -12.2201,-66.173 -14.3056,-99.741 -0.2903,-18.576 87.2786,-19.945 87.5689,-1.368 z" id="path24323" inkscape:connector-curvature="0" style="fill:#550000;fill-opacity:1;fill-rule:nonzero;stroke:#f9f9f9;stroke-width:0.1;stroke-miterlimit:4;stroke-dasharray:none" transform="translate(-9216, -16384)"/><path d="m 9729.5425,17055.708 c 31.9238,-6.282 64.2651,-9.987 96.6497,-12.851 36.0872,-3.408 72.2588,-2.131 108.2645,1.31 24.8529,2.595 49.5841,6.055 73.3623,13.887 36.204,15.011 46.408,41.918 43.07,79.084 -5.514,28.535 -16.592,55.576 -27.079,82.558 -7.007,18.346 -15.153,36.174 -24.077,53.653 -8.4876,16.38 -85.7031,-23.631 -77.2155,-40.011 l 0,0 c 7.711,-14.583 14.4791,-29.601 20.4006,-45.007 7.8699,-20.347 16.0155,-40.7 21.2545,-61.923 0.2235,-0.386 0.3759,-1.494 0.6705,-1.159 4.412,5.023 6.3991,15.532 13.9859,15.329 -16.6442,-6.957 -35.4185,-7.059 -52.9591,-10.111 -30.5971,-3.185 -61.3461,-4.511 -92.0465,-1.562 -28.2175,2.511 -56.495,5.619 -84.1177,12.109 -18.0961,4.277 -38.2593,-81.029 -20.1632,-85.306 z" id="path24325" inkscape:connector-curvature="0" style="fill:#550000;fill-opacity:1;fill-rule:nonzero;stroke:#f9f9f9;stroke-width:0.1;stroke-miterlimit:4;stroke-dasharray:none" transform="translate(-9216, -16384)"/><path d="m 9744.1745,17237.741 c 35.5917,2.048 71.2878,1.229 106.9034,0.288 38.8563,-1.452 77.6825,-3.538 116.5447,-4.849 14.0061,-0.528 7.5327,-0.236 19.4217,-0.837 18.5247,-0.601 21.3597,86.725 2.8346,87.326 l 0,0 c -12.5805,0.199 -5.8664,0.104 -20.1423,0.275 -38.7732,0.567 -77.4973,2.425 -116.2406,3.968 -37.9844,1.133 -75.9917,1.944 -113.9938,1.267 -18.5485,-0.991 -13.8762,-88.429 4.6723,-87.438 z" id="path24327" inkscape:connector-curvature="0" style="fill:#550000;fill-opacity:1;fill-rule:nonzero;stroke:#f9f9f9;stroke-width:0.1;stroke-miterlimit:4;stroke-dasharray:none" transform="translate(-9216, -16384)"/></svg>