<?xml version="1.0" encoding="utf-8" ?>

<!DOCTYPE svg PUBLIC "-//W3C//DTD SVG 1.1//EN" 
  "http://www.w3.org/Graphics/SVG/1.1/DTD/svg11.dtd">
<svg 
    xmlns="http://www.w3.org/2000/svg"
    xmlns:xlink="http://www.w3.org/1999/xlink"
    xmlns:sodipodi="http://sodipodi.sourceforge.net/DTD/sodipodi-0.dtd"
    xmlns:inkscape="http://www.inkscape.org/namespaces/inkscape"
    width="1024" height="1024" id="U5404">
<path d="m 10659.597,14532.31 c -15.507,29.753 -31.514,59.24 -47.4,88.791 -15.434,29.181 -30.897,58.351 -45.891,87.762 -3.419,2.681 -11.077,29.576 -4.767,7.216 -1.336,18.602 -89.023,12.307 -87.688,-6.295 l 0,0 c 2.917,-14.912 7.047,-28.224 15.306,-41.163 15.678,-29.415 31.559,-58.724 47.067,-88.231 15.31,-28.661 30.928,-57.201 44.667,-86.661 8.184,-16.696 86.89,21.885 78.706,38.581 z" id="path23745" inkscape:connector-curvature="0" style="fill:#550000;fill-opacity:1;fill-rule:nonzero;stroke:#f9f9f9;stroke-width:0.1;stroke-miterlimit:4;stroke-dasharray:none" transform="translate(-10240, -14336)"/><path d="m 10592.893,14539.763 c 33.094,-5.641 66.699,-6.317 100.181,-6.526 37.2,-0.04 74.345,2.211 111.192,7.285 25.987,4.181 55.451,12.498 65.874,40.264 2.973,7.921 2.35,16.757 3.524,25.136 -6.888,34.273 -33.215,57.579 -56.467,81.812 -38.513,40.108 -78.977,78.248 -120.158,115.586 -42.67,38.426 -87.432,74.408 -132.791,109.582 -27.091,20.725 -54.621,40.868 -82.071,61.114 -16.681,13.146 -25.551,17.526 -46.679,22.585 -18.651,0.999 -23.361,-86.922 -4.71,-87.921 l 0,0 c -30.493,8.724 -7.651,2.654 0.428,-5.305 27.151,-19.151 54.189,-38.472 80.759,-58.425 43.797,-33.413 86.925,-67.747 127.856,-104.655 39.52,-35.917 78.263,-72.715 114.626,-111.86 10.47,-11.264 12.183,-12.907 21.736,-23.877 3.856,-4.429 14.562,-22.978 9.852,-3.325 1.346,5.178 1.616,10.763 4.038,15.533 8.632,17.003 29.763,15.607 1.564,9.687 -32.37,-5.125 -65.116,-7.022 -97.881,-6.962 -27.915,0.279 -56.063,0.628 -83.528,6.205 -18.23,3.679 -35.574,-82.254 -17.345,-85.933 z" id="path23749" inkscape:connector-curvature="0" style="fill:#550000;fill-opacity:1;fill-rule:nonzero;stroke:#f9f9f9;stroke-width:0.1;stroke-miterlimit:4;stroke-dasharray:none" transform="translate(-10240, -14336)"/><path d="m 10598.487,14650.166 c 11.602,24.311 31.243,43.063 50.693,61.113 41.531,36.642 88.674,65.941 136.581,93.371 44.809,25.273 92.454,44.727 140.173,63.668 24.026,9.064 47.609,18.978 69.291,32.797 15.373,10.349 -33.414,82.815 -48.786,72.465 l 0,0 c -15.436,-12.089 -35.307,-17.132 -52.738,-25.477 -51.081,-20.993 -102.119,-42.389 -150.253,-69.666 -53.425,-30.681 -105.968,-63.42 -152.541,-104.033 -27.585,-25.359 -54.224,-52.166 -71.329,-86.004 -8.11,-16.739 70.798,-54.973 78.909,-38.234 z" id="path23753" inkscape:connector-curvature="0" style="fill:#550000;fill-opacity:1;fill-rule:nonzero;stroke:#f9f9f9;stroke-width:0.1;stroke-miterlimit:4;stroke-dasharray:none" transform="translate(-10240, -14336)"/><path d="m 10589.382,14965.731 c 4.104,30.98 11.384,61.395 19.73,91.47 7.875,27.024 17.983,53.364 30.574,78.536 1.314,2.312 2.627,4.625 3.941,6.938 8.848,16.248 -67.751,57.956 -76.598,41.708 l 0,0 c -1.869,-3.534 -3.739,-7.067 -5.608,-10.6 -14.356,-30.183 -26.385,-61.428 -35.525,-93.602 -9.224,-33.549 -17.204,-67.41 -23.113,-101.715 -2.702,-18.37 83.898,-31.106 86.599,-12.735 z" id="path23755" inkscape:connector-curvature="0" style="fill:#550000;fill-opacity:1;fill-rule:nonzero;stroke:#f9f9f9;stroke-width:0.1;stroke-miterlimit:4;stroke-dasharray:none" transform="translate(-10240, -14336)"/><path d="m 10614.926,14963.723 c 35.996,-14.806 74.341,-21.936 112.668,-27.473 37.124,-4.586 74.54,-6.679 111.885,-4.267 28.371,2.681 56.128,12.131 68.857,40.308 2.942,6.514 3.248,13.921 4.872,20.882 0.324,32.659 -11.355,63.709 -22.038,94.111 -11.64,31.538 -23.784,62.888 -35.913,94.241 -8.423,21.936 -16.994,43.798 -27.371,64.89 -8.331,16.501 -86.121,-22.772 -77.79,-39.274 l 0,0 c 9.615,-18.32 16.722,-37.79 24.427,-56.963 11.846,-30.398 23.699,-60.798 34.882,-91.448 6.214,-17.922 12.09,-37.193 16.952,-54.883 9.939,21.161 29.907,19.348 6.528,14.817 -30.993,-2.88 -62.167,-0.61 -93.029,2.871 -30.018,4.291 -60.322,9.444 -88.296,21.664 -16.86,7.772 -53.493,-71.705 -36.634,-79.476 z" id="path23757" inkscape:connector-curvature="0" style="fill:#550000;fill-opacity:1;fill-rule:nonzero;stroke:#f9f9f9;stroke-width:0.1;stroke-miterlimit:4;stroke-dasharray:none" transform="translate(-10240, -14336)"/><path d="m 10595.866,15177.84 c 38.955,-7.308 78.13,-12.975 117.57,-16.835 43.667,-4.163 87.418,-1.982 130.645,4.894 18.968,3.771 9.752,1.675 27.663,6.224 17.85,4.769 -4.633,88.917 -22.483,84.147 l 0,0 c -12.074,-3.474 -5.565,-1.787 -19.569,-4.899 -35.608,-6.425 -71.762,-8.323 -107.856,-4.935 -36.708,3.629 -73.231,8.959 -109.184,17.347 -18.232,3.561 -35.017,-82.382 -16.786,-85.943 z" id="path23759" inkscape:connector-curvature="0" style="fill:#550000;fill-opacity:1;fill-rule:nonzero;stroke:#f9f9f9;stroke-width:0.1;stroke-miterlimit:4;stroke-dasharray:none" transform="translate(-10240, -14336)"/></svg>