<?xml version="1.0" encoding="UTF-8" standalone="no"?>
<svg
   xmlns:dc="http://purl.org/dc/elements/1.1/"
   xmlns:cc="http://creativecommons.org/ns#"
   xmlns:rdf="http://www.w3.org/1999/02/22-rdf-syntax-ns#"
   xmlns:svg="http://www.w3.org/2000/svg"
   xmlns="http://www.w3.org/2000/svg"
   xmlns:sodipodi="http://sodipodi.sourceforge.net/DTD/sodipodi-0.dtd"
   xmlns:inkscape="http://www.inkscape.org/namespaces/inkscape"
   width="1024"
   height="1024"
   id="U5566"
   version="1.1"
   inkscape:version="0.48.0 r9654"
   sodipodi:docname="U+5566.svg">
  <metadata
     id="metadata18">
    <rdf:RDF>
      <cc:Work
         rdf:about="">
        <dc:format>image/svg+xml</dc:format>
        <dc:type
           rdf:resource="http://purl.org/dc/dcmitype/StillImage" />
      </cc:Work>
    </rdf:RDF>
  </metadata>
  <defs
     id="defs16" />
  <sodipodi:namedview
     pagecolor="#ffffff"
     bordercolor="#666666"
     borderopacity="1"
     objecttolerance="10"
     gridtolerance="10"
     guidetolerance="10"
     inkscape:pageopacity="0"
     inkscape:pageshadow="2"
     inkscape:window-width="640"
     inkscape:window-height="480"
     id="namedview14"
     showgrid="false"
     inkscape:zoom="0.27441406"
     inkscape:cx="512"
     inkscape:cy="512"
     inkscape:window-x="0"
     inkscape:window-y="25"
     inkscape:window-maximized="0"
     inkscape:current-layer="U5566" />
  <path
     style="fill:#2b0000;fill-opacity:1;fill-rule:nonzero;stroke:#f9f9f9;stroke-width:0.1;stroke-miterlimit:4;stroke-dasharray:none"
     d="M 731.3125 256.21875 C 709.59448 256.30446 655.71967 293.27367 664.375 306.875 C 678.8651 328.252 692.68059 350.0915 707.03125 371.5625 C 717.2583 387.2775 727.6681 402.8685 738.65625 418.0625 C 737.14675 414.90063 737.5507 415.47363 738.40625 417 C 737.49494 414.14403 737.19199 411.09423 736.5 407.59375 C 743.22697 424.17493 825.27931 421.89973 824.9375 403.78125 C 822.16759 389.08425 819.64613 377.20425 809.90625 365.65625 C 799.38242 351.62825 789.57993 337.09375 779.90625 322.46875 C 765.82443 301.74075 752.2046 280.70425 739 259.40625 C 737.58367 257.18058 734.86636 256.20472 731.3125 256.21875 z M 738.40625 417 C 738.96052 418.73703 739.74009 420.39584 740.96875 422.0625 C 741.49078 422.77051 739.54274 419.02758 738.40625 417 z M 448.125 257.125 C 421.52959 256.99746 381.08562 268.38738 383.375 281.09375 C 389.82948 320.05266 390.44158 359.71206 390.6875 399.21875 C 379.22387 400.15037 367.75811 400.85224 356.25 401.15625 C 337.52685 401.90525 341.05809 490.15525 359.78125 489.40625 C 370.28246 488.68971 380.74294 487.79438 391.21875 486.8125 C 392.48197 537.66606 396.08119 588.43284 400.09375 639.15625 C 381.85601 649.65807 363.7836 660.49527 345.78125 671.4375 C 311.05226 692.3065 276.23528 713.0215 241.3125 733.5625 C 225.27413 743.2635 271.02413 818.8875 287.0625 809.1875 C 321.06739 787.2325 355.83128 766.52475 390.46875 745.59375 C 395.94972 742.26702 401.4465 738.96406 406.9375 735.65625 C 409.0901 777.4899 410.35918 819.36202 412.6875 861.1875 C 414.22216 887.3645 413.37369 913.59425 412.625 939.78125 C 412.19386 940.31725 412.1726 939.65375 411.9375 939.59375 C 407.35346 957.83275 493.32221 979.45875 497.90625 961.21875 C 500.61327 948.64775 499.50663 955.34575 500.96875 941.09375 C 501.00119 912.65675 501.22029 884.16425 499.1875 855.78125 C 495.33159 800.33517 493.60747 744.77206 489.5 689.34375 C 494.59465 686.80401 499.74179 684.31832 504.90625 681.90625 C 523.426 673.15925 542.76018 666.6335 562.71875 662.1875 C 567.18514 661.39667 571.58631 660.29643 575.9375 659.03125 C 592.40007 682.34539 607.94475 706.29061 623.96875 729.90625 C 636.25954 747.18955 648.51822 764.50136 660.8125 781.78125 C 620.50611 787.18869 580.30933 793.48451 539.875 797.8125 C 521.23189 799.7545 530.38813 887.6295 549.03125 885.6875 C 592.32493 879.3745 635.50045 872.32675 678.84375 866.34375 C 735.22385 858.93675 791.75468 852.73175 848.5625 849.96875 C 882.73888 848.83375 917.1725 849.94525 950.53125 857.90625 C 955.95912 859.45925 961.34783 861.14175 966.4375 863.59375 C 983.85466 870.60675 1016.8859 788.513 999.46875 781.5 C 989.54865 777.776 979.53923 774.34075 969.15625 772.09375 C 927.97115 763.74575 885.99975 761.57975 844.03125 763.71875 C 838.41629 764.03572 832.79797 764.37947 827.1875 764.75 C 832.79827 748.77332 838.85088 732.94874 845.40625 717.3125 C 857.25848 689.0165 869.01652 660.42775 885.5625 634.46875 C 895.80175 618.74875 821.67675 570.49875 811.4375 586.21875 C 792.93485 617.20075 778.93222 650.49275 765.0625 683.71875 C 752.77431 713.12311 741.70199 742.99332 731.71875 773.25 C 728.74951 773.57374 725.78086 773.91743 722.8125 774.25 C 734.80414 760.43046 743.18313 745.63983 739.0625 739.15625 C 738.85279 738.89646 738.67171 738.66124 738.46875 738.40625 C 738.3692 738.29502 738.29665 738.16722 738.1875 738.0625 C 737.39435 737.05751 736.79698 736.23179 736.8125 736.125 C 722.99921 717.885 709.57134 699.33725 696.1875 680.78125 C 677.9617 654.09925 660.27485 627.0245 642.46875 600.0625 C 635.96153 590.63516 606.2787 605.73236 586.59375 622.40625 C 580.22939 597.50816 565.3582 568.84074 554.6875 572.59375 C 550.55261 574.00975 546.50492 575.686 542.09375 576.25 C 521.54449 581.44601 501.4384 588.10532 482 596.5 C 479.02322 556.83964 476.67684 517.13829 476.03125 477.375 C 502.79895 474.18619 529.72234 472.92376 556.65625 472.28125 C 549.63052 495.84931 556.85411 551.23916 571.71875 550.125 C 609.38784 545.511 646.64721 538.22725 683.9375 531.28125 C 728.85313 522.15225 774.10502 515.16875 819.6875 510.46875 C 847.09299 507.69975 874.64145 507.9875 901.78125 512.6875 C 917.5347 517.88021 910.19963 516.54144 900.75 508.34375 C 916.61989 516.9723 982.78501 473.40843 973.1875 458.4375 C 969.07537 453.6265 965.52132 448.264 960.84375 444 C 948.447 432.701 931.08452 429.0985 915.3125 425.6875 C 880.55901 420.6935 845.46954 420.2145 810.53125 424.0625 C 762.8024 429.2635 715.37887 436.60175 668.28125 445.96875 C 636.85551 451.65003 605.40934 457.757 573.625 461.0625 C 592.34474 442.64889 614.04239 399.43178 602.125 392.28125 C 587.83426 385.52025 573.78456 382.64575 557.9375 384.09375 C 530.66303 385.45915 503.37973 386.86117 476.21875 389.75 C 476.24965 348.21281 475.74648 306.61246 470.5 265.40625 C 469.45938 259.63063 460.21382 257.18297 448.125 257.125 z M 738.46875 738.40625 C 738.78413 738.78832 738.77841 738.75537 739.03125 739.0625 C 738.87347 738.82277 738.66202 738.62219 738.46875 738.40625 z M 739.03125 739.0625 C 739.04845 739.08864 739.04571 739.12984 739.0625 739.15625 C 740.95845 741.50499 742.35559 743.1007 739.03125 739.0625 z M 273.46875 367.40625 C 269.46385 367.36335 265.33683 367.68875 261.09375 368.375 C 240.21575 371.534 219.53767 375.89125 199 380.78125 C 170.96833 387.35925 143.14406 394.78325 116.65625 406.28125 C 99.276101 413.35125 132.61986 495.28875 150 488.21875 C 171.84742 477.57175 195.31764 471.57725 218.875 466.15625 C 228.6895 463.98409 238.52215 461.85717 248.40625 459.96875 C 246.94083 466.38922 245.32768 472.77771 243.875 479.1875 C 237.25597 508.6295 231.4029 538.227 228.25 568.25 C 227.95733 572.46043 227.69628 576.68181 227.46875 580.90625 C 219.10436 581.28241 210.73272 581.97227 202.40625 583.15625 C 181.98676 585.69875 161.63623 588.62413 141.25 591.40625 C 141.24867 591.40276 141.22008 591.40974 141.21875 591.40625 C 131.35683 565.55015 135.01733 536.21284 129.5625 509.375 C 124.40263 477.987 116.30282 447.374 109.96875 416.25 C 107.00422 397.721 19.660474 411.68975 22.625 430.21875 C 29.469856 461.36175 38.459638 491.853 43.53125 523.375 C 46.733036 557.981 48.996219 592.19425 60.1875 625.28125 C 68.316955 636.43225 69.731084 654.68425 79.8125 664.78125 C 85.699773 670.67825 92.658406 675.36425 99.09375 680.65625 C 104.59487 683.35526 112.46141 676.74819 119.96875 666.3125 C 123.7349 676.01587 128.5298 682.4639 133.78125 681.6875 C 160.12905 677.2485 186.56811 673.30775 213.09375 670.09375 C 231.37609 667.46175 249.7741 668.386 268.125 669.25 C 268.77494 669.28651 269.3666 669.32048 269.9375 669.375 C 269.60645 669.33282 269.19888 669.30975 268.75 669.25 C 273.64509 669.42806 278.78122 663.44403 283.3125 654.59375 C 296.78897 659.81648 308.55831 661.41363 311.78125 655.59375 C 317.58283 629.72075 319.93847 634.46775 315.9375 618.21875 C 312.97028 604.87475 315.83976 590.351 315.53125 576.875 C 317.90297 550.591 323.58132 524.78575 329.46875 499.09375 C 334.36927 478.60175 340.70075 458.10575 340.65625 436.84375 C 339.31605 417.51475 333.81694 400.17275 320.03125 385.96875 C 306.03751 374.41419 290.82331 367.59214 273.46875 367.40625 z M 269.9375 669.375 C 272.65467 669.72123 271.90153 669.56255 269.9375 669.375 z M 275.4375 455.8125 C 275.64964 455.82198 275.85423 455.8615 276.0625 455.90625 C 277.47232 456.20948 273.6978 456.27629 271.875 456.09375 C 272.41742 456.02215 272.95719 455.94384 273.5 455.875 C 274.13909 455.8825 274.80109 455.78405 275.4375 455.8125 z "
     id="path9190" />
</svg>
