<?xml version="1.0" encoding="utf-8" ?>

<!DOCTYPE svg PUBLIC "-//W3C//DTD SVG 1.1//EN" 
  "http://www.w3.org/Graphics/SVG/1.1/DTD/svg11.dtd">
<svg 
    xmlns="http://www.w3.org/2000/svg"
    xmlns:xlink="http://www.w3.org/1999/xlink"
    xmlns:sodipodi="http://sodipodi.sourceforge.net/DTD/sodipodi-0.dtd"
    xmlns:inkscape="http://www.inkscape.org/namespaces/inkscape"
    width="1024" height="1024" id="U55EF">
<path d="m 8379.832,35247.604 c 0.064,30.994 2.3145,61.939 4.8708,92.812 2.987,25.366 4.038,51.478 11.5949,76.047 3.0637,2.511 1.0347,1.05 -2.8575,-6.935 11.9439,14.527 -56.5372,70.831 -68.4811,56.304 l 0,0 c -11.5855,-17.983 -7.2742,-9.042 -13.7556,-26.411 -7.5454,-30.089 -10.6692,-60.991 -13.424,-91.839 -2.677,-32.602 -4.9339,-65.238 -6.3522,-97.922 -0.4361,-18.754 87.9686,-20.809 88.4047,-2.056 z" id="path10403" inkscape:connector-curvature="0" style="fill:#c83737;fill-opacity:1;fill-rule:nonzero;stroke:#f9f9f9;stroke-width:0.1;stroke-miterlimit:4;stroke-dasharray:none" transform="translate(-8192, -34816)"/><path d="m 8328.7809,35211.184 c 32.9067,-12.358 68.0998,-15.463 102.8322,-18.433 31.38,-2.331 62.8053,-4.273 94.273,-4.751 17.5358,0.79 38.1181,-1.882 53.8623,8.027 6.2934,3.961 11.3555,9.604 17.0333,14.406 17.9805,28.326 8.1762,54.275 -0.087,83.327 -8.3324,29.235 -12.8505,59.305 -16.523,89.419 -3.1769,26.427 -4.0532,53.025 -3.3303,79.609 0.7015,6.479 0.7007,12.917 0.544,19.419 -1.4117,18.788 -89.9793,12.133 -88.5677,-6.655 l 0,0 c 0.078,0.696 0.1868,2.786 0.2353,2.087 0.3122,-4.495 -0.7091,-9.032 -0.2842,-13.515 -0.1482,-30.575 1.1645,-61.141 4.8226,-91.517 4.2049,-34.396 9.3365,-68.731 18.3302,-102.253 2.1761,-8.109 3.886,-16.824 6.7126,-24.758 0.4517,-1.268 5.6148,32.674 9.7059,21.302 25.7355,18.204 25.3959,7.764 -1.7805,8.995 -29.1931,-0.04 -58.3618,1.644 -87.469,3.777 -25.547,2.213 -51.8025,3.82 -75.9838,13.039 -17.294,7.282 -51.6203,-74.243 -34.3263,-81.525 z" id="path10405" inkscape:connector-curvature="0" style="fill:#c83737;fill-opacity:1;fill-rule:nonzero;stroke:#f9f9f9;stroke-width:0.1;stroke-miterlimit:4;stroke-dasharray:none" transform="translate(-8192, -34816)"/><path d="m 8360.7393,35427.185 c 33.298,-0.469 66.4518,-3.981 99.619,-6.669 31.0864,-2.251 62.1533,-5.202 93.3318,-5.698 10.2388,-0.25 20.235,1.403 30.2168,3.393 18.3157,4.178 -1.379,90.519 -19.6947,86.341 l 0,0 c -3.169,-1.415 -6.7179,-1.403 -10.1188,-1.69 -28.9525,-0.305 -57.834,2.554 -86.6981,4.428 -34.6554,2.813 -69.2538,6.359 -103.9781,8.267 -18.7465,0.568 -21.4245,-87.804 -2.6779,-88.372 z" id="path10407" inkscape:connector-curvature="0" style="fill:#c83737;fill-opacity:1;fill-rule:nonzero;stroke:#f9f9f9;stroke-width:0.1;stroke-miterlimit:4;stroke-dasharray:none" transform="translate(-8192, -34816)"/><path d="m 8661.004,35063.24 c 0.1623,29.1 3.3727,57.947 8.4654,86.557 5.5127,29.315 16.151,57.167 28.3533,84.257 5.1137,10.907 10.5109,22.073 18.5115,31.078 -0.2871,-0.432 -0.5742,-0.863 -0.8613,-1.294 14.1244,12.428 -44.4596,79.011 -58.584,66.583 l 0,0 c -2.3196,-2.219 -4.6391,-4.439 -6.9587,-6.658 -13.5988,-16.304 -23.9848,-34.791 -32.3293,-54.306 -14.6012,-33.654 -27.2464,-68.207 -33.9539,-104.404 -5.6706,-31.936 -9.4664,-64.064 -10.9785,-96.482 -1.1308,-18.739 87.2047,-24.07 88.3355,-5.331 z" id="path10409" inkscape:connector-curvature="0" style="fill:#c83737;fill-opacity:1;fill-rule:nonzero;stroke:#f9f9f9;stroke-width:0.1;stroke-miterlimit:4;stroke-dasharray:none" transform="translate(-8192, -34816)"/><path d="m 8644.2954,34974.443 c 27.7893,-2.88 55.3681,-7.532 82.9838,-11.714 36.1267,-5.532 72.4335,-9.632 108.8777,-12.315 26.6507,-1.682 53.3694,-2.263 80.028,-0.597 21.5269,0.933 39.7051,7.638 56.8044,20.474 18.8114,18.682 22.9881,43.535 25.7956,68.734 2.5698,32.999 1.9673,66.147 1.6562,99.214 -0.409,35.887 -0.8021,71.775 -0.8051,107.665 0.031,21.404 0.902,42.793 2.0128,64.165 1.171,14.099 0.9584,27.902 -1.2455,41.858 -3.9858,18.386 -90.6583,-0.404 -86.6725,-18.79 l 0,0 c -0.061,10.265 0.5062,-18.071 -0.2286,-18.994 -0.9339,-22.856 -1.5258,-45.726 -1.3309,-68.604 0.2939,-35.981 0.8272,-71.96 1.1186,-107.941 0.1548,-29.559 0.4607,-59.193 -1.9971,-88.676 -1.0148,-8.767 -7.6811,-24.74 3.2866,-11.911 12.2018,7.113 4.5133,0.658 -4.7031,0.75 -22.4718,-1.912 -45.0563,-1.287 -67.5578,-0.168 -34.0777,2.296 -68.012,6.13 -101.7634,11.393 -28.7323,4.495 -57.4198,9.288 -86.205,13.436 -18.6631,2.133 -28.7179,-85.846 -10.0547,-87.979 z" id="path10411" inkscape:connector-curvature="0" style="fill:#c83737;fill-opacity:1;fill-rule:nonzero;stroke:#f9f9f9;stroke-width:0.1;stroke-miterlimit:4;stroke-dasharray:none" transform="translate(-8192, -34816)"/><path d="m 8661.9636,35150.152 c 33.8127,-14.804 69.6342,-23.828 105.7878,-30.641 36.8707,-6.112 74.3138,-6.081 111.5409,-4.639 20.567,0.83 41.1123,2.697 61.0364,8.001 2.5219,0.923 5.0437,1.846 7.5655,2.768 17.3892,7.231 -16.6959,89.204 -34.0851,81.974 l 0,0 c 0.5591,0.106 1.1182,0.213 1.6773,0.32 -12.38,-5.243 -27.1442,-3.456 -40.1059,-5.509 -30.5593,-1.58 -61.3355,-1.993 -91.6667,2.736 -28.6094,5.256 -57.1595,12.18 -83.5564,24.727 -16.915,8.103 -55.1088,-71.635 -38.1938,-79.737 z" id="path10413" inkscape:connector-curvature="0" style="fill:#c83737;fill-opacity:1;fill-rule:nonzero;stroke:#f9f9f9;stroke-width:0.1;stroke-miterlimit:4;stroke-dasharray:none" transform="translate(-8192, -34816)"/><path d="m 8861.5184,35088.379 c -8.8256,35.243 -20.1688,69.76 -32.0944,104.053 -14.4697,40.133 -29.1636,80.175 -42.0709,120.844 -5.08,16.978 -10.0271,34.015 -14.1691,51.25 -4.9224,18.124 -90.3606,-5.08 -85.4382,-23.204 l 0,0 c 5.4712,-18.311 10.8384,-36.655 16.6358,-54.866 13.501,-41.07 28.5188,-81.598 42.9822,-122.334 10.6373,-31.101 20.9526,-62.415 27.7267,-94.627 4.0058,-18.334 90.4336,0.55 86.4279,18.884 z" id="path10415" inkscape:connector-curvature="0" style="fill:#c83737;fill-opacity:1;fill-rule:nonzero;stroke:#f9f9f9;stroke-width:0.1;stroke-miterlimit:4;stroke-dasharray:none" transform="translate(-8192, -34816)"/><path d="m 8857.0342,35222.441 c 10.4921,15.942 23.9654,29.549 37.8023,42.566 8.2641,7.809 17.2573,14.781 26.2379,21.732 14.7001,11.609 -40.025,80.906 -54.7251,69.297 l 0,0 c -10.9058,-8.763 -21.8174,-17.548 -31.9488,-27.215 -18.4393,-17.555 -36.0436,-36.045 -50.7837,-56.885 -10.4994,-15.575 62.918,-65.069 73.4174,-49.495 z" id="path10417" inkscape:connector-curvature="0" style="fill:#c83737;fill-opacity:1;fill-rule:nonzero;stroke:#f9f9f9;stroke-width:0.1;stroke-miterlimit:4;stroke-dasharray:none" transform="translate(-8192, -34816)"/><path d="m 8624.1808,35368.436 c 30.4626,-16.497 62.8771,-28.621 95.6821,-39.491 39.9693,-12.65 80.8303,-21.961 122.2891,-28.013 29.4085,-4.235 59.0935,-3.207 88.6553,-1.903 12.0626,0.476 24.0651,1.463 35.9989,3.248 18.5063,3.181 3.5102,90.42 -14.9961,87.239 l 0,0 c -8.2034,-2.117 -16.9501,-1.583 -25.3088,-2.606 -24.0392,-1.303 -48.1896,-2.664 -72.1659,0.451 -36.3042,4.898 -72.0207,13.071 -106.9487,24.174 -26.8031,8.991 -53.469,18.729 -78.0112,32.979 -16.1385,9.588 -61.3333,-66.49 -45.1947,-76.078 z" id="path10419" inkscape:connector-curvature="0" style="fill:#c83737;fill-opacity:1;fill-rule:nonzero;stroke:#f9f9f9;stroke-width:0.1;stroke-miterlimit:4;stroke-dasharray:none" transform="translate(-8192, -34816)"/><path d="m 8739.673,35520.413 c -22.0343,22.151 -40.6909,47.316 -59.3849,72.26 -19.8807,26.893 -39.8046,53.77 -58.1668,81.733 -5.5204,8.692 -10.9869,17.419 -16.7767,25.935 -10.9609,15.289 -83.0351,-36.381 -72.0742,-51.67 l 0,0 c 5.8379,-7.33 10.5735,-15.483 15.9373,-23.149 19.6924,-28.848 40.6533,-56.789 61.352,-84.917 21.0436,-28.279 42.2365,-56.528 66.2809,-82.37 13.19,-13.329 76.0224,48.849 62.8324,62.178 z" id="path10421" inkscape:connector-curvature="0" style="fill:#c83737;fill-opacity:1;fill-rule:nonzero;stroke:#f9f9f9;stroke-width:0.1;stroke-miterlimit:4;stroke-dasharray:none" transform="translate(-8192, -34816)"/><path d="m 8758.1252,35568.27 c -1.2472,21.169 -1.089,42.46 2.8846,63.33 2.2315,10.355 8.7121,13.015 17.2957,17.378 17.2075,8.055 35.8505,11.215 54.593,13.045 29.6538,2.103 58.9726,-3.414 87.922,-9.106 33.4867,-7.472 67.2316,-13.315 101.3272,-17.087 22.0925,-1.905 44.2569,-3.085 66.0164,-7.549 10.1236,-2.424 20.334,-4.641 30.264,-7.793 18.041,-5.266 42.8677,79.78 24.8266,85.046 l 0,0 c -12.6498,3.517 -25.4525,6.463 -38.2896,9.212 -24.3031,4.547 -48.8663,6.624 -73.5269,8.2 -31.5857,3.224 -62.8095,8.636 -93.8044,15.543 -37.4115,7.346 -75.3179,13.844 -113.6052,10.733 -30.888,-3.227 -61.4316,-9.186 -89.2144,-23.766 -30.839,-18.241 -53.4747,-42.57 -60.3595,-78.926 -4.4358,-27.372 -5.6152,-54.962 -4.6946,-82.678 0.9373,-18.745 89.3023,-14.327 88.3651,4.418 z" id="path10423" inkscape:connector-curvature="0" style="fill:#c83737;fill-opacity:1;fill-rule:nonzero;stroke:#f9f9f9;stroke-width:0.1;stroke-miterlimit:4;stroke-dasharray:none" transform="translate(-8192, -34816)"/><path d="m 8870.8345,35520.714 c 22.3586,15.225 44.583,30.647 66.8902,45.947 15.3013,10.502 -34.2065,82.634 -49.5078,72.131 l 0,0 c -22.3555,-15.353 -44.6155,-30.858 -67.6561,-45.181 -15.4638,-10.664 34.8099,-83.561 50.2737,-72.897 z" id="path10425" inkscape:connector-curvature="0" style="fill:#c83737;fill-opacity:1;fill-rule:nonzero;stroke:#f9f9f9;stroke-width:0.1;stroke-miterlimit:4;stroke-dasharray:none" transform="translate(-8192, -34816)"/><path d="m 9170.9187,35434.215 c 4.6586,22.266 13.7226,43.218 23.8991,63.445 7.181,13.218 3.5665,6.811 10.8173,19.234 9.2812,16.167 -66.9345,59.919 -76.2157,43.752 l 0,0 c -8.8029,-15.544 -4.4067,-7.535 -13.1588,-24.041 -13.1356,-26.801 -24.6702,-54.427 -31.7697,-83.507 -4.0058,-18.334 82.422,-37.217 86.4278,-18.883 z" id="path10427" inkscape:connector-curvature="0" style="fill:#c83737;fill-opacity:1;fill-rule:nonzero;stroke:#f9f9f9;stroke-width:0.1;stroke-miterlimit:4;stroke-dasharray:none" transform="translate(-8192, -34816)"/></svg>