<?xml version="1.0" encoding="utf-8" ?>

<!DOCTYPE svg PUBLIC "-//W3C//DTD SVG 1.1//EN" 
  "http://www.w3.org/Graphics/SVG/1.1/DTD/svg11.dtd">
<svg 
    xmlns="http://www.w3.org/2000/svg"
    xmlns:xlink="http://www.w3.org/1999/xlink"
    xmlns:sodipodi="http://sodipodi.sourceforge.net/DTD/sodipodi-0.dtd"
    xmlns:inkscape="http://www.inkscape.org/namespaces/inkscape"
    width="1024" height="1024" id="U55FD">
<path d="m 10349.642,46498.423 c -7.179,25.114 -6.873,51.361 -5.489,77.19 1.495,25.917 8.384,50.628 18.718,74.283 4.495,9.429 2.279,5.349 6.392,12.377 8.843,16.509 -68.982,58.197 -77.825,41.688 l 0,0 c -6.582,-12.86 -3.377,-6.195 -9.567,-20.019 -13.605,-33.265 -22.883,-67.886 -24.813,-103.958 -1.708,-35.912 -1.311,-72.11 7.837,-107.146 5.427,-17.977 90.175,7.607 84.747,25.585 z" id="path11287" inkscape:connector-curvature="0" style="fill:#782121;fill-opacity:1;fill-rule:nonzero;stroke:#f9f9f9;stroke-width:0.1;stroke-miterlimit:4;stroke-dasharray:none" transform="translate(-10240, -46080)"/><path d="m 10318.958,46452.661 c 27.524,-22.465 61.077,-32.731 95.4,-39.129 25.224,-3.868 50.554,-5.187 75.554,0.203 45.924,18.139 42.722,55.2 36.888,95.685 -6.218,39.06 -12.693,78.074 -18.209,117.241 -3.013,24.351 -6.299,48.718 -7.939,73.213 0.135,9.142 -2.466,16.251 -5.052,25.283 -7.843,17.161 -88.74,-19.81 -80.897,-36.971 l 0,0 c -6.058,24.614 -2.079,9.797 -2.078,4.2 2.585,-26.122 6.295,-52.126 9.786,-78.138 5.725,-38.913 12.119,-77.724 17.579,-116.675 5.313,-41.887 -0.846,-4.413 27.22,1.702 2.864,-0.907 -5.932,-1.145 -8.936,-1.17 -9.555,-0.08 -19.12,0.479 -28.596,1.71 -18.177,2.972 -36.674,7.144 -51.572,18.647 -13.959,12.548 -73.106,-53.254 -59.148,-65.801 z" id="path11290" inkscape:connector-curvature="0" style="fill:#782121;fill-opacity:1;fill-rule:nonzero;stroke:#f9f9f9;stroke-width:0.1;stroke-miterlimit:4;stroke-dasharray:none" transform="translate(-10240, -46080)"/><path d="m 10313.467,46623.503 c 32.837,4.532 65.984,6.182 99.063,7.862 18.398,0.407 36.759,2.368 55.166,2.4 18.752,0.559 16.118,88.961 -2.635,88.402 l 0,0 c -19.102,-0.924 -38.14,-2.892 -57.253,-3.661 -35.153,-2.022 -70.314,-4.038 -105.375,-7.346 -18.595,-2.341 -7.561,-89.998 11.034,-87.657 z" id="path11292" inkscape:connector-curvature="0" style="fill:#782121;fill-opacity:1;fill-rule:nonzero;stroke:#f9f9f9;stroke-width:0.1;stroke-miterlimit:4;stroke-dasharray:none" transform="translate(-10240, -46080)"/><path d="m 10540.356,46289.368 c 37.229,-5.511 74.915,-6.331 112.475,-7.052 44.002,-0.517 88.004,-0.904 131.992,-2.16 20.178,-0.402 40.28,-1.898 60.349,-3.9 18.797,-1.125 24.1,87.488 5.302,88.613 l 0,0 c -21.15,-0.445 -42.41,3.294 -63.599,2.382 -44.054,0.824 -88.115,1.101 -132.171,1.803 -32.758,0.791 -65.772,1.318 -98.081,7.342 -18.461,3.451 -34.728,-83.577 -16.267,-87.028 z" id="path11294" inkscape:connector-curvature="0" style="fill:#782121;fill-opacity:1;fill-rule:nonzero;stroke:#f9f9f9;stroke-width:0.1;stroke-miterlimit:4;stroke-dasharray:none" transform="translate(-10240, -46080)"/><path d="m 10594.729,46503.279 c 9.199,37.576 12.592,76.268 17.869,114.522 3.659,16.007 3.02,35.826 13.847,49.263 8.958,16.33 -68.022,58.561 -76.981,42.231 l 0,0 c -12.493,-25.249 -20.227,-51.413 -22.917,-79.631 -4.579,-33.24 -7.672,-66.935 -16.076,-99.479 -5.708,-17.874 78.551,-44.78 84.258,-26.906 z" id="path11324" inkscape:connector-curvature="0" style="fill:#782121;fill-opacity:1;fill-rule:nonzero;stroke:#f9f9f9;stroke-width:0.1;stroke-miterlimit:4;stroke-dasharray:none" transform="translate(-10240, -46080)"/><path d="m 10591.023,46473.996 c 28.128,-8.681 56.74,-15.458 85.56,-21.371 35.117,-6.948 70.54,-12.135 106.262,-14.487 30.411,-2.272 57.456,4.583 81.981,22.448 27.963,25.939 27.63,61.056 24.003,96.205 -5.984,39.2 -15.572,77.716 -23.044,116.642 -4.28,22.359 -7.249,44.929 -10.212,67.49 -2.669,18.494 -89.853,5.913 -87.184,-12.581 l 0,0 c 3.766,-23.891 7.171,-47.847 11.87,-71.581 7.182,-36.316 15.935,-72.345 21.478,-108.962 0.487,-4.718 -0.273,-17.468 1.766,-22.424 0.295,-0.718 4.782,4.529 5.55,3.817 6.712,1.372 -18.901,-8.073 -21.097,-3.571 -31.518,1.544 -62.72,6.34 -93.651,12.506 -25.419,5.328 -50.741,11.256 -75.283,19.868 -17.819,5.939 -45.818,-78.059 -27.999,-83.999 z" id="path11328" inkscape:connector-curvature="0" style="fill:#782121;fill-opacity:1;fill-rule:nonzero;stroke:#f9f9f9;stroke-width:0.1;stroke-miterlimit:4;stroke-dasharray:none" transform="translate(-10240, -46080)"/><path d="m 10530.868,46715.669 c 42.56,-13.199 86.536,-20.681 130.574,-26.829 55.752,-7.214 112.032,-8.223 168.161,-9.336 18.417,-1.007 37.063,0.581 55.335,-2.345 18.563,-2.091 28.423,85.418 9.86,87.51 l 0,0 c -21.3,1.915 -42.613,1.579 -63.99,1.557 -52.481,0.409 -105.132,1.024 -157.238,7.98 -38.262,5.542 -76.662,12.027 -113.266,24.865 -17.692,6.244 -47.128,-77.158 -29.436,-83.402 z" id="path11331" inkscape:connector-curvature="0" style="fill:#782121;fill-opacity:1;fill-rule:nonzero;stroke:#f9f9f9;stroke-width:0.1;stroke-miterlimit:4;stroke-dasharray:none" transform="translate(-10240, -46080)"/><path d="m 10724.809,46192.555 c -1.04,54.216 -1.556,108.442 -2.409,162.662 -1.699,98.076 -4.861,196.117 -6.297,294.197 -1.566,72.589 1.515,145.145 17.017,216.187 4.251,18.799 11.471,36.501 19.466,53.932 7.378,16.962 -72.582,51.742 -79.96,34.78 l 0,0 c -9.677,-23.136 -18.67,-46.506 -23.775,-71.178 -15.462,-77.469 -19.172,-156.201 -16.82,-235.118 1.817,-97.854 5.044,-195.686 5.508,-293.563 0.118,-53.966 0.122,-107.943 -1.075,-161.899 0,-18.741 88.345,-18.741 88.345,0 z" id="path11333" inkscape:connector-curvature="0" style="fill:#782121;fill-opacity:1;fill-rule:nonzero;stroke:#f9f9f9;stroke-width:0.1;stroke-miterlimit:4;stroke-dasharray:none" transform="translate(-10240, -46080)"/><path d="m 10621.769,46866.167 c -19.057,15.263 -34.698,34.15 -49.591,53.352 -6.872,8.778 -12.883,18.123 -18.496,27.732 -9.717,15.935 -84.834,-29.871 -75.118,-45.805 l 0,0 c 7.699,-12.277 15.644,-24.385 24.669,-35.75 19.337,-24.638 39.678,-48.634 63.626,-68.974 14.732,-11.648 69.642,57.797 54.91,69.445 z" id="path11350" inkscape:connector-curvature="0" style="fill:#782121;fill-opacity:1;fill-rule:nonzero;stroke:#f9f9f9;stroke-width:0.1;stroke-miterlimit:4;stroke-dasharray:none" transform="translate(-10240, -46080)"/><path d="m 10802.371,46787.249 c 25.636,12.92 51.148,25.929 77.68,36.935 12.474,5.106 25.275,9.268 38.15,13.21 17.745,5.585 -8.586,89.238 -26.331,83.652 l 0,0 c -15.307,-4.924 -30.554,-10.024 -45.426,-16.172 -26.548,-11.094 -52.309,-23.759 -78.306,-36.048 -17.305,-7.262 16.928,-88.839 34.233,-81.577 z" id="path11356" inkscape:connector-curvature="0" style="fill:#782121;fill-opacity:1;fill-rule:nonzero;stroke:#f9f9f9;stroke-width:0.1;stroke-miterlimit:4;stroke-dasharray:none" transform="translate(-10240, -46080)"/><path d="m 11001.679,46358.814 c -8.948,30.222 -15.712,61.004 -21.595,91.947 -0.02,16.836 -11.041,38.31 -4.518,54.949 2.54,18.533 -84.827,30.506 -87.367,11.973 l 0,0 c -2.698,-28.035 0.765,-55.641 6.263,-83.224 6.241,-32.735 13.434,-65.252 21.551,-97.576 4.652,-18.172 90.318,3.758 85.666,21.931 z" id="path11358" inkscape:connector-curvature="0" style="fill:#782121;fill-opacity:1;fill-rule:nonzero;stroke:#f9f9f9;stroke-width:0.1;stroke-miterlimit:4;stroke-dasharray:none" transform="translate(-10240, -46080)"/><path d="m 10982.657,46370.521 c 40.921,-8.007 81.783,-16.242 122.872,-23.364 42.443,-7.4 85.393,-11.193 128.306,-6.633 40.26,7.045 59.925,22.789 73.308,61.519 7.085,32.88 -1.691,64.84 -12.315,95.826 -10.645,27.462 -22.594,54.366 -32.823,81.993 -6.428,17.417 -88.53,-12.886 -82.102,-30.302 l 0,0 c 9.964,-27.075 21.369,-53.537 32.063,-80.322 4.869,-13.942 9.466,-28.003 10.353,-42.849 8.122,4.522 13.025,6.22 0.815,1.221 -34.193,-5.183 -68.835,-0.463 -102.752,4.753 -40.098,7.032 -79.998,15.099 -119.587,24.614 -18.34,3.848 -36.478,-82.609 -18.138,-86.456 z" id="path11380" inkscape:connector-curvature="0" style="fill:#782121;fill-opacity:1;fill-rule:nonzero;stroke:#f9f9f9;stroke-width:0.1;stroke-miterlimit:4;stroke-dasharray:none" transform="translate(-10240, -46080)"/><path d="m 11134.398,46500.201 c -8.664,47.176 -17.47,94.301 -27.462,141.219 -16.359,75.514 -39.112,149.385 -63.1,222.76 -18.402,54.157 -36.808,108.331 -56.458,162.052 -1.813,4.763 -3.626,9.525 -5.439,14.288 -6.889,17.259 -88.247,-15.215 -81.358,-32.474 l 0,0 c 1.775,-4.228 3.551,-8.457 5.327,-12.685 20.461,-52.046 38.722,-104.938 56.982,-157.786 23.224,-70.274 45.068,-141.107 60.223,-213.631 9.492,-46.57 17.924,-93.328 24.433,-140.419 3.538,-18.424 90.389,-1.748 86.852,16.676 z" id="path11382" inkscape:connector-curvature="0" style="fill:#782121;fill-opacity:1;fill-rule:nonzero;stroke:#f9f9f9;stroke-width:0.1;stroke-miterlimit:4;stroke-dasharray:none" transform="translate(-10240, -46080)"/><path d="m 11066.918,46828.727 c 33.586,14.47 66.571,30.27 99.66,45.829 34.907,16.334 70.033,32.216 105.735,46.736 17.141,7.153 -16.578,87.954 -33.718,80.801 l 0,0 c -36.567,-15.622 -72.73,-32.166 -108.795,-48.909 -31.745,-14.771 -63.356,-29.961 -96.071,-42.502 -17.385,-7.04 15.803,-88.996 33.189,-81.955 z" id="path11384" inkscape:connector-curvature="0" style="fill:#782121;fill-opacity:1;fill-rule:nonzero;stroke:#f9f9f9;stroke-width:0.1;stroke-miterlimit:4;stroke-dasharray:none" transform="translate(-10240, -46080)"/></svg>