<?xml version="1.0" encoding="UTF-8" standalone="no"?>
<svg
   xmlns:dc="http://purl.org/dc/elements/1.1/"
   xmlns:cc="http://creativecommons.org/ns#"
   xmlns:rdf="http://www.w3.org/1999/02/22-rdf-syntax-ns#"
   xmlns:svg="http://www.w3.org/2000/svg"
   xmlns="http://www.w3.org/2000/svg"
   xmlns:sodipodi="http://sodipodi.sourceforge.net/DTD/sodipodi-0.dtd"
   xmlns:inkscape="http://www.inkscape.org/namespaces/inkscape"
   width="1024"
   height="1024"
   id="U559C"
   version="1.1"
   inkscape:version="0.48.0 r9654"
   sodipodi:docname="U+559C.svg">
  <metadata
     id="metadata19">
    <rdf:RDF>
      <cc:Work
         rdf:about="">
        <dc:format>image/svg+xml</dc:format>
        <dc:type
           rdf:resource="http://purl.org/dc/dcmitype/StillImage" />
      </cc:Work>
    </rdf:RDF>
  </metadata>
  <defs
     id="defs17" />
  <sodipodi:namedview
     pagecolor="#ffffff"
     bordercolor="#666666"
     borderopacity="1"
     objecttolerance="10"
     gridtolerance="10"
     guidetolerance="10"
     inkscape:pageopacity="0"
     inkscape:pageshadow="2"
     inkscape:window-width="640"
     inkscape:window-height="480"
     id="namedview15"
     showgrid="false"
     inkscape:zoom="0.27441406"
     inkscape:cx="512"
     inkscape:cy="512"
     inkscape:window-x="0"
     inkscape:window-y="25"
     inkscape:window-maximized="0"
     inkscape:current-layer="U559C" />
  <path
     style="fill:#501616;fill-opacity:1;fill-rule:nonzero;stroke:#f9f9f9;stroke-width:0.1;stroke-miterlimit:4;stroke-dasharray:none"
     d="M 494.75 37 C 474.09334 37.054017 454.55478 41.270156 454.34375 50.0625 C 454.4087 78.260288 455.12992 106.44633 456.09375 134.625 C 433.12857 137.2064 410.14726 139.79117 387.15625 142.15625 C 346.83065 146.14825 306.47555 149.59975 266.09375 152.96875 C 247.44455 155.17275 257.81955 243.079 276.46875 240.875 C 316.24535 235.81 356.1998 232.17275 396.0625 227.84375 C 417.35516 225.46607 438.62702 222.9782 459.90625 220.5 C 460.7635 236.54608 461.61578 252.60843 462.4375 268.65625 C 455.99585 269.73246 449.54747 270.85405 443.125 272.0625 C 401.2226 280.1895 359.37175 289.102 318.78125 302.5 C 301.15175 308.91 331.3705 392.00375 349 385.59375 C 384.8348 372.20675 422.3953 364.242 459.8125 356.75 C 511.7898 346.686 564.5414 341.98025 617.3125 338.65625 C 642.6076 337.46025 668.18625 336.58125 693.03125 342.15625 C 711.33475 345.64125 727.77225 259.36 709.46875 255.875 C 677.05745 250.302 644.2961 249.72225 611.5 252.28125 C 590.65557 253.76644 569.83452 255.44059 549.03125 257.46875 C 548.02873 241.99129 547.05173 226.51475 546.15625 211.03125 C 560.25118 209.63809 574.34581 208.32003 588.46875 207.1875 C 631.62975 203.8595 674.896 205.587 717.625 212.25 C 730.5541 214.317 743.25725 217.4625 755.71875 221.4375 C 773.64605 226.7975 798.9274 142.2975 781 136.9375 C 764.3088 132.1635 747.4128 128.13725 730.1875 125.78125 C 680.8687 119.05625 631.06425 117.45425 581.40625 121.65625 C 568.46906 122.75929 555.5421 123.99272 542.625 125.28125 C 542.00303 100.9123 541.77238 76.545092 542.75 52.1875 C 542.98917 42.222312 518.16088 36.93878 494.75 37 z M 590.84375 352.625 C 579.98863 352.66612 569.06403 353.42219 558.09375 354.875 C 514.94715 360.831 472.05965 370.0515 432.15625 388.0625 C 405.24847 401.83272 379.99014 418.0392 360.03125 440.375 C 334.82983 445.45563 304.91224 459.1662 308.21875 470.0625 C 318.48255 502.5055 326.09955 535.709 334.65625 568.625 C 334.94493 569.8067 335.25991 570.97893 335.5625 572.15625 C 335.97638 598.42265 351.44755 642.93945 364.6875 639.46875 C 397.6232 629.07375 431.48085 622.434 465.53125 617 C 512.60875 610.173 560.18915 608.8155 607.65625 610.5625 C 623.67433 612.25871 640.45498 612.97108 656.625 615.90625 C 640.4894 623.61531 624.44015 631.52754 608.375 639.375 C 581.1363 652.541 594.8598 645.979 567.25 659.125 C 562.03532 661.5999 562.10388 671.02209 565.1875 682.53125 C 558.49158 682.80201 551.78816 683.09075 545.09375 683.4375 C 524.31284 684.5684 503.51805 685.7781 482.75 687.1875 C 483.18861 677.95877 481.57052 671.06353 476.90625 669.625 C 447.01855 660.379 417.724 649.517 388.9375 637.25 C 376.45186 632.48324 356.86056 672.99632 352.9375 699.15625 C 332.49089 701.65891 312.07446 704.50233 291.71875 707.78125 C 244.33755 715.44625 197.20305 724.4395 149.78125 731.8125 C 131.22985 734.5205 143.97985 821.98925 162.53125 819.28125 C 210.24825 809.93325 257.92875 800.419 305.84375 792.125 C 386.46415 778.33 468.0405 772.2775 549.625 767.9375 C 621.5816 764.3255 693.6204 765.864 765.5625 768.75 C 801.0886 770.244 836.57605 772.6585 872.03125 775.3125 C 890.54015 776.5365 896.3214 689.2865 877.8125 688.0625 C 841.4309 685.9655 805.01915 684.00875 768.59375 682.84375 C 753.66916 682.38812 738.74182 682.0124 723.8125 681.6875 C 727.53622 680.14234 731.27617 678.62661 735.03125 677.15625 C 750.24849 671.26143 728.08387 608.11757 710.53125 596.1875 C 719.75172 575.67568 725.39653 550.45591 718.65625 543.5 C 721.70584 532.81363 724.53677 522.07424 726.9375 511.21875 C 732.3409 480.47375 735.3102 449.28375 722.375 419.84375 C 708.5502 394.01375 689.29465 374.2315 661.34375 363.6875 C 638.28287 356.00813 614.72501 352.53453 590.84375 352.625 z M 593.21875 440 C 606.38735 439.91541 619.47287 441.355 631.71875 446.5625 C 637.09055 449.2425 642.0582 452.832 643.25 459 C 645.1278 471.353 642.8188 483.739 640.625 495.875 C 638.3402 505.7886 635.66788 515.59014 632.78125 525.34375 C 625.35758 524.72426 617.91158 524.24999 610.46875 523.90625 C 557.58985 522.39525 504.60705 524.05275 452.15625 531.46875 C 440.30011 533.28602 428.47835 535.23794 416.6875 537.375 C 414.0911 527.5374 411.56498 517.67409 409.0625 507.8125 C 414.82775 508.83244 419.25682 508.14964 421.21875 505.0625 C 433.37455 486.6145 452.0802 475.49475 471.4375 465.96875 C 502.6619 452.52175 536.01805 445.55025 569.59375 441.28125 C 577.38929 440.64525 585.31759 440.05075 593.21875 440 z M 596.6875 770.1875 C 562.84758 770.09947 529.04157 772.2465 495.6875 778.59375 C 458.8941 786.44175 421.8647 796.3165 391.125 819.0625 C 388.97682 820.82251 388.39116 823.83372 388.96875 827.625 C 362.96527 830.57396 329.72149 842.88653 332.4375 854.40625 C 339.9867 883.70925 350.6181 912.09775 360.6875 940.59375 C 365.5846 955.71275 371.20525 970.436 378.34375 984.625 C 382.3484 992.00185 400.1024 987.62462 417.71875 979.0625 C 417.38169 1005.5073 426.71923 1042.8499 438.9375 1041.1875 C 482.9097 1034.0835 527.02825 1028.0065 571.21875 1022.4375 C 611.79785 1017.2585 652.63666 1014.4909 693.5 1014.6875 C 705.93839 1022.2553 717.38251 1026.0064 721.5625 1020.8125 C 722.92919 1019.0663 724.26218 1017.3008 725.59375 1015.5312 C 744.36428 1017.0183 736.11008 1016.2044 755.6875 1018.4688 C 772.31451 1020.1967 781.30613 949.72624 769.40625 934.40625 C 778.74813 910.29434 786.04675 885.39814 784.90625 859.1875 C 778.56865 821.5515 763.8655 803.01825 728.25 789.28125 C 696.643 778.75025 663.84355 772.6365 630.53125 770.9375 C 619.25995 770.48225 607.96747 770.21684 596.6875 770.1875 z M 591.28125 857.0625 C 603.08358 857.03293 614.89678 857.36437 626.6875 857.9375 C 650.57811 859.568 674.31982 863.5676 696.90625 871.5625 C 693.87649 888.34649 687.43018 904.24367 680.78125 919.875 C 679.52718 922.77517 678.21752 925.63023 676.84375 928.46875 C 638.03263 929.27437 599.28859 932.15602 560.71875 936.96875 C 525.57095 941.19883 490.4746 945.85923 455.34375 950.21875 C 456.85616 947.31372 457.22206 944.6623 456.03125 942.46875 C 449.26445 933.48875 448.03965 921.05825 443.15625 911.15625 C 440.12851 902.75166 437.03533 894.33845 434.03125 885.90625 C 439.53956 889.04465 444.27087 890.00333 447.25 887.5625 C 466.8101 873.8085 490.79085 868.57775 513.78125 863.71875 C 539.39166 858.91931 565.31612 857.12755 591.28125 857.0625 z M 700.1875 872.71875 C 706.24937 874.79888 706.42795 879.01627 700.84375 873.40625 C 700.57013 873.13134 700.4058 872.94795 700.1875 872.71875 z "
     id="path13260" />
</svg>
