<?xml version="1.0" encoding="UTF-8" standalone="no"?>
<svg
   xmlns:dc="http://purl.org/dc/elements/1.1/"
   xmlns:cc="http://creativecommons.org/ns#"
   xmlns:rdf="http://www.w3.org/1999/02/22-rdf-syntax-ns#"
   xmlns:svg="http://www.w3.org/2000/svg"
   xmlns="http://www.w3.org/2000/svg"
   xmlns:sodipodi="http://sodipodi.sourceforge.net/DTD/sodipodi-0.dtd"
   xmlns:inkscape="http://www.inkscape.org/namespaces/inkscape"
   width="1024"
   height="1024"
   id="U5564"
   version="1.1"
   inkscape:version="0.48.0 r9654"
   sodipodi:docname="U+5564.svg">
  <metadata
     id="metadata18">
    <rdf:RDF>
      <cc:Work
         rdf:about="">
        <dc:format>image/svg+xml</dc:format>
        <dc:type
           rdf:resource="http://purl.org/dc/dcmitype/StillImage" />
      </cc:Work>
    </rdf:RDF>
  </metadata>
  <defs
     id="defs16" />
  <sodipodi:namedview
     pagecolor="#ffffff"
     bordercolor="#666666"
     borderopacity="1"
     objecttolerance="10"
     gridtolerance="10"
     guidetolerance="10"
     inkscape:pageopacity="0"
     inkscape:pageshadow="2"
     inkscape:window-width="640"
     inkscape:window-height="480"
     id="namedview14"
     showgrid="false"
     inkscape:zoom="0.27441406"
     inkscape:cx="512"
     inkscape:cy="512"
     inkscape:window-x="0"
     inkscape:window-y="25"
     inkscape:window-maximized="0"
     inkscape:current-layer="U5564" />
  <path
     style="fill:#c83737;fill-opacity:1;fill-rule:nonzero;stroke:#f9f9f9;stroke-width:0.1;stroke-miterlimit:4;stroke-dasharray:none"
     d="M 736.125 130.34375 C 734.11736 130.34615 732.43907 130.91941 731.1875 132.15625 C 707.3815 156.37125 681.8531 178.83275 656.5625 201.46875 C 627.2516 227.43775 598.83805 254.37375 570.21875 281.09375 C 569.7826 281.50526 569.41077 281.95466 569.125 282.46875 C 555.67645 289.57546 543.17235 298.39133 532.1875 309.71875 C 510.18944 309.38587 488.22621 313.69808 488.0625 323.03125 C 488.4771 356.66425 494.2143 389.88625 499.375 423.03125 C 507.05 468.56525 511.75355 514.5155 516.34375 560.4375 C 518.99795 588.8845 522.8829 617.176 527.4375 645.375 C 528.7437 653.181 528.06815 649.41975 529.53125 656.71875 C 531.71315 666.23489 556.02635 665.45929 578.34375 659.96875 C 584.52 670.69941 591.38743 677.73912 597 675.71875 C 602.09163 673.74711 607.22467 671.95136 612.40625 670.28125 C 599.32243 700.11234 585.51723 729.62054 571.375 758.96875 C 565.06032 772.27711 558.02926 785.18969 550.625 797.90625 C 519.49779 806.55791 488.73534 816.66828 460.3125 832.21875 C 444.4525 842.24275 491.7024 916.99375 507.5625 906.96875 C 537.9319 890.27075 571.945 881.6305 605.1875 872.6875 C 653.63456 860.31538 702.7744 851.0671 752.125 843.1875 C 754.02539 881.19608 755.89409 919.22062 757.375 957.25 C 758.2469 979.671 758.9551 1002.1033 759.625 1024.5312 C 760.4109 1043.1473 848.1608 1039.4275 847.375 1020.8125 C 846.1495 998.3395 844.97855 975.852 843.84375 953.375 C 841.83645 913.32531 839.58676 873.30171 837.625 833.25 C 858.40502 832.27425 879.23387 832.41445 900.0625 833.6875 C 918.35213 835.15655 936.62554 837.20061 954.6875 840.46875 C 972.57653 840.59762 999.44485 762.32313 982.28125 756.28125 C 972.75045 753.57925 977.15395 754.55175 969.09375 753.09375 C 947.69535 750.01775 926.17415 747.801 904.59375 746.5 C 881.08856 745.45252 857.59076 745.53893 834.15625 746.78125 C 833.41897 719.11077 833.40866 691.41981 836.34375 663.90625 C 860.70816 673.98395 906.38962 677.82812 908.625 664.53125 C 910.5767 650.16225 909.92825 657.2285 910.59375 643.3125 C 911.05355 610.7145 910.8769 578.07075 914.25 545.59375 C 918.9048 498.12675 925.8051 450.89475 929.5625 403.34375 C 930.5963 368.32775 929.60935 332.99525 904.40625 305.78125 C 887.26615 289.85725 867.6049 278.3945 845.5 270.5625 C 815.5803 259.4925 784.78705 251.3205 752.71875 249.9375 C 746.23584 249.6942 739.73433 249.55066 733.25 249.5 C 753.51047 231.59836 773.67368 213.61159 793.375 195.09375 C 805.47353 183.13759 755.53221 130.32053 736.125 130.34375 z M 954.6875 840.46875 C 954.4399 840.46697 954.18152 840.43847 953.9375 840.40625 C 956.88166 841.06572 957.65723 841.24551 955.09375 840.53125 C 954.9592 840.50676 954.82207 840.4931 954.6875 840.46875 z M 123.4375 320.125 C 113.1168 320.34827 105.50709 322.64284 104.4375 327.8125 C 99.2648 370.5475 99.92145 413.79925 98.71875 456.78125 C 96.86515 513.06225 93.48995 569.25825 91.46875 625.53125 C 92.26005 644.33125 87.8146 682.3835 101.875 697.6875 C 110.575 707.1575 122.4624 713.12775 132.75 720.84375 C 143.01389 723.88709 155.57654 697.64862 161.1875 673.5 C 163.21576 675.77783 165.44926 676.97195 167.8125 676.71875 C 202.7727 672.42575 237.86415 669.2755 272.96875 666.4375 C 304.07885 663.6595 335.30045 663.9885 366.28125 667.8125 C 366.88625 665.7955 390.13555 673.5865 384.59375 672.6875 C 400.24445 683.1665 449.6507 609.38525 434 598.90625 C 425.1635 593.36384 415.78367 589.2712 406.03125 586.3125 C 407.65568 563.82043 409.34722 541.34459 411.9375 518.9375 C 416.104 482.1625 422.9453 445.31975 421.6875 408.21875 C 413.6827 366.27875 398.2309 347.83325 357.4375 334.78125 C 326.5844 327.57825 294.9764 325.239 263.3125 326.625 C 238.07626 328.27581 212.8629 331.41464 189.125 339.5625 C 180.3551 328.77785 145.64997 319.64447 123.4375 320.125 z M 713.25 336.84375 C 710.15992 361.01789 706.05733 385.06388 701.375 409 C 698.52458 409.28721 695.6591 409.60174 692.8125 409.9375 C 656.28632 415.68247 619.87243 424.38035 590.9375 448.8125 C 589.22615 435.87618 587.38579 422.95605 585.34375 410.0625 C 583.22876 395.5628 580.89767 381.02988 579.15625 366.4375 C 587.72092 370.82024 594.96511 372.26492 598.28125 368.46875 C 613.43185 354.16275 634.5092 348.993 654.125 344 C 673.60756 339.60875 693.39485 337.47001 713.25 336.84375 z M 799.84375 347.59375 C 804.7567 349.24111 809.61587 351.03616 814.46875 352.90625 C 823.07345 357.84325 836.61875 359.782 842.40625 368.75 C 841.60775 378.606 842.5171 390.55325 842.25 400.90625 C 841.9433 405.18179 841.60621 409.44786 841.25 413.71875 C 830.1097 410.41484 818.89476 407.97521 807.03125 407.6875 C 801.2844 407.33799 795.53601 407.04543 789.78125 406.8125 C 793.54922 387.13977 796.90927 367.39955 799.84375 347.59375 z M 277.15625 413.84375 C 297.03585 413.7561 317.04331 414.87625 336.25 420.1875 C 348.044 426.7735 335.0737 419.996 334.5 420.75 C 332.8624 450.365 328.6928 479.779 325.4375 509.25 C 322.83738 531.94956 320.97562 554.73829 319.03125 577.5 C 301.34686 577.40961 283.66411 578.14913 266 579.75 C 237.1199 582.06503 208.2444 584.69044 179.375 587.125 C 180.83751 544.60775 183.04027 502.09983 184.8125 459.59375 C 185.3779 444.63763 185.71979 429.64997 186.21875 414.65625 C 194.89144 424.24906 203.48493 430.03632 208.65625 426.71875 C 227.04415 416.73075 248.16935 415.0625 268.65625 413.9375 C 271.48771 413.88513 274.31631 413.85627 277.15625 413.84375 z M 593.40625 468.21875 C 606.57265 490.88387 642.30679 522.31523 652.15625 512.71875 C 659.61476 507.68279 667.84386 504.36838 676.375 501.96875 C 668.87097 525.2825 660.65587 548.38856 652.1875 571.375 C 636.79611 574.19955 621.46337 577.31665 606.28125 581.0625 C 604.91892 571.23426 603.6997 561.37288 602.6875 551.5 C 599.72231 523.72458 596.80722 495.94334 593.40625 468.21875 z M 833.28125 490 C 831.48185 505.65353 829.68715 521.29553 828.09375 536.96875 C 827.36068 543.59988 826.75815 550.2617 826.25 556.90625 C 824.14177 556.88602 821.57416 556.83834 820.21875 556.84375 C 815.26945 556.86375 810.3243 556.9075 805.375 556.9375 C 786.00845 557.2758 766.6369 557.94529 747.3125 559.21875 C 754.90411 537.45316 762.07116 515.56489 768.59375 493.46875 C 779.43998 493.67631 790.27902 494.20233 801.09375 495.03125 C 807.12615 494.53525 813.78315 497.1455 818.59375 498.9375 C 822.93543 500.61094 828.1511 496.801 833.28125 490 z M 819.65625 644.34375 C 820.57379 644.36684 821.48877 644.37681 822.40625 644.40625 C 822.3897 644.75174 822.38353 645.05344 822.375 645.3125 C 821.49932 644.97627 820.58611 644.66133 819.65625 644.34375 z M 749.59375 646.125 C 749.48991 646.45328 749.38858 646.80706 749.34375 647.15625 C 746.1001 683.59576 746.77692 720.16137 748.125 756.6875 C 718.91532 761.3595 689.73996 766.37941 660.71875 772.09375 C 679.33451 731.60452 697.32011 690.83852 713.8125 649.4375 C 725.70333 647.9887 737.64439 646.90128 749.59375 646.125 z "
     id="path10297" />
</svg>
