<?xml version="1.0" encoding="UTF-8" standalone="no"?>
<svg
   xmlns:dc="http://purl.org/dc/elements/1.1/"
   xmlns:cc="http://creativecommons.org/ns#"
   xmlns:rdf="http://www.w3.org/1999/02/22-rdf-syntax-ns#"
   xmlns:svg="http://www.w3.org/2000/svg"
   xmlns="http://www.w3.org/2000/svg"
   xmlns:sodipodi="http://sodipodi.sourceforge.net/DTD/sodipodi-0.dtd"
   xmlns:inkscape="http://www.inkscape.org/namespaces/inkscape"
   width="1024"
   height="1024"
   id="U5531"
   version="1.1"
   inkscape:version="0.48.0 r9654"
   sodipodi:docname="U+5531.svg">
  <metadata
     id="metadata18">
    <rdf:RDF>
      <cc:Work
         rdf:about="">
        <dc:format>image/svg+xml</dc:format>
        <dc:type
           rdf:resource="http://purl.org/dc/dcmitype/StillImage" />
      </cc:Work>
    </rdf:RDF>
  </metadata>
  <defs
     id="defs16" />
  <sodipodi:namedview
     pagecolor="#ffffff"
     bordercolor="#666666"
     borderopacity="1"
     objecttolerance="10"
     gridtolerance="10"
     guidetolerance="10"
     inkscape:pageopacity="0"
     inkscape:pageshadow="2"
     inkscape:window-width="640"
     inkscape:window-height="480"
     id="namedview14"
     showgrid="false"
     inkscape:zoom="0.27441406"
     inkscape:cx="512"
     inkscape:cy="512"
     inkscape:window-x="0"
     inkscape:window-y="25"
     inkscape:window-maximized="0"
     inkscape:current-layer="U5531" />
  <path
     style="fill:#800000;fill-opacity:1;fill-rule:nonzero;stroke:#f9f9f9;stroke-width:0.1;stroke-miterlimit:4;stroke-dasharray:none"
     d="M 752.71875 139.9375 C 711.94375 140.4038 671.64555 147.00245 632.84375 159.78125 C 594.83985 173.63505 557.5029 190.5225 529 220.1875 C 526.05727 223.52697 527.60713 229.39297 531.8125 236.1875 C 510.38753 237.69332 489.62389 243.62072 490.1875 252.71875 C 493.4723 289.04785 499.45865 325.0556 505.15625 361.0625 C 511.56055 400.529 517.55465 440.28185 532.03125 477.71875 C 534.69503 484.11933 547.68832 483.41553 562.5 479.125 C 561.36994 501.49773 590.30214 556.32811 604.40625 549.59375 C 633.31415 534.18015 664.52065 524.10835 696.09375 515.84375 C 713.38745 511.86925 730.9987 508.56065 748.5625 512.21875 C 766.8347 514.52515 777.7096 428.40015 759.4375 426.09375 C 730.5698 423.32125 702.2708 424.7263 674.125 432.625 C 652.71754 438.31468 631.47814 444.67152 610.6875 452.21875 C 612.69144 449.36521 613.43324 446.64263 612.4375 444.25 C 601.567 421.80502 598.26828 396.58188 594.375 371.875 C 603.8229 391.77987 617.53408 409.81196 625.96875 405.78125 C 652.99175 393.91775 682.07125 387.8839 711.03125 383 C 731.71815 380.7472 721.80235 381.37545 740.84375 380.90625 C 759.18185 380.17135 755.7131 293.7025 737.375 294.4375 C 710.3309 295.8046 723.9262 294.65105 696.5 297.96875 C 659.645 304.33135 622.89345 312.3696 588.21875 326.75 C 587.75515 326.97154 587.3193 327.23569 586.9375 327.5625 C 584.41585 311.08974 581.98695 294.59158 580.1875 278.03125 C 586.66622 280.69019 591.95303 281.1302 594.65625 278.0625 C 612.97015 259.2389 637.8855 249.49235 662.125 240.84375 C 691.5028 231.66725 721.9496 226.20265 752.75 226.71875 C 754.133 226.02005 776.51845 229.6751 768.53125 233.25 C 773.68645 257.5263 774.8863 282.36165 775.9375 307.09375 C 777.8022 346.15335 774.4812 385.10765 770.375 423.90625 L 768.53125 438.46875 C 766.37245 456.72465 852.43485 466.91215 854.59375 448.65625 C 855.18995 443.27725 855.7787 437.8789 856.375 432.5 C 860.4284 389.675 863.7921 346.71505 862 303.65625 C 860.5258 264.14265 860.0084 223.10645 842.375 186.84375 C 838.541 181.44655 835.295 175.58505 830.875 170.65625 C 810.8419 148.31745 781.49465 141.2083 752.71875 139.9375 z M 356.75 324.75 C 337.24368 324.90687 317.74181 327.70089 298.34375 333 C 264.39145 342.4977 230.8519 354.47865 202.625 376.28125 C 198.25805 379.97637 200.63217 388.87041 206.375 399.0625 C 181.93523 393.35066 130.49982 400.93582 131.6875 415.1875 C 137.4811 452.7417 146.703 489.6995 155.5625 526.625 C 164.4595 565.2046 174.9247 603.44105 191.0625 639.65625 C 198.813 656.37685 277.65675 619.8455 269.90625 603.125 C 254.93305 572.7145 247.31475 539.3628 239.21875 506.625 C 232.33077 477.61141 225.16957 448.54542 220.5625 419.0625 C 234.66652 435.63924 252.16934 449.15241 259.21875 443.1875 C 277.39755 429.2469 299.5626 422.2795 321.375 416.375 C 342.7538 411.444 365.2763 407.7928 386.5625 414.75 C 394.3162 418.9399 387.4275 416.41305 387.4375 419.40625 C 387.4471 423.49135 388.59755 427.47645 389.09375 431.53125 C 391.58945 464.71805 386.9365 497.9557 383.6875 530.9375 C 382.11177 547.04582 380.23161 563.10902 378.15625 579.15625 C 369.15174 580.81558 360.18574 582.73326 351.3125 585.09375 C 311.7824 596.73305 273.31355 611.8894 239.53125 636 C 224.82295 647.3241 278.2292 716.66775 292.9375 705.34375 C 317.4211 686.91095 346.1152 676.1121 375.3125 667.8125 C 396.8748 662.3368 418.9901 659.96975 441.0625 657.71875 C 448.86453 656.878 451.6509 640.68654 450.84375 622.5625 C 456.41587 621.11426 460.07929 618.71344 460.5625 615.15625 C 463.8868 589.94965 466.9535 564.71165 469.4375 539.40625 C 473.4378 499.05025 479.1142 458.3871 474.875 417.8125 C 467.3444 374.9148 452.082 345.1962 408.375 330.5625 C 391.16447 326.52717 373.96146 324.61159 356.75 324.75 z M 820.21875 540.53125 C 808.74778 540.44023 797.15309 541.13609 785.46875 542.40625 C 734.22285 548.34625 683.9598 559.75685 635.5625 577.90625 C 594.1591 593.87695 553.40985 611.89445 516.65625 637.09375 C 501.67545 648.04605 553.30055 718.67105 568.28125 707.71875 C 598.05725 685.79145 632.12465 671.0694 666.40625 657.8125 C 707.86545 642.2922 750.94485 632.5226 794.90625 628 C 810.35365 628.8457 844.03565 622.0766 856.84375 633.625 C 856.37365 633.8109 855.9076 634.0016 855.4375 634.1875 C 854.6272 633.9884 853.8099 633.39335 853 633.59375 C 852.332 633.75905 854.8354 663.9803 854.9375 665.9375 C 855.6752 705.9349 854.6427 745.92955 853.375 785.90625 C 852.2743 811.79335 851.3204 837.7945 846.5625 863.3125 C 846.55746 863.34261 846.56705 863.37616 846.5625 863.40625 C 844.29375 863.17901 842.17515 862.95788 838.0625 862.53125 C 795.916 859.55935 753.6864 859.5975 711.5 862.0625 C 679.3053 863.6568 646.70165 866.5573 614.59375 862.5625 C 596.42865 858.6699 578.0849 944.2949 596.25 948.1875 C 635.919 953.5445 676.11955 950.01465 715.90625 947.90625 C 754.45555 945.64255 793.0754 945.6076 831.5625 948.75 C 849.6227 950.8804 840.9922 949.62155 857.4375 952.40625 C 870.92163 954.53319 881.84825 908.00196 879.1875 882.59375 C 902.7175 887.84422 930.60087 887.88987 932.3125 877.65625 C 936.8704 848.16025 938.5185 818.3844 939.375 788.5625 C 940.6418 746.2322 941.88145 703.88325 941.34375 661.53125 C 939.24035 619.54315 933.75355 578.11105 894.03125 554.78125 C 870.12028 544.72636 845.45488 540.7315 820.21875 540.53125 z M 495.59375 695.6875 C 469.99397 696.2727 423.9322 714.11547 428.03125 727.4375 C 437.79465 757.8114 445.2726 788.8404 452.3125 819.9375 C 459.6277 854.3035 466.9762 888.6605 481.125 920.9375 C 488.893 937.707 567.9555 901.0819 560.1875 884.3125 C 546.8562 858.4732 543.6809 828.7618 536.4375 800.9375 C 528.9451 767.6641 520.8373 734.53385 511.75 701.65625 C 510.38362 697.21557 504.12701 695.49243 495.59375 695.6875 z M 791.90625 705.28125 C 758.96915 705.26634 726.2932 709.05872 693.9375 716.25 C 652.3442 725.2235 610.71 735.085 571.0625 750.8125 C 554.1638 758.5334 590.57015 838.18975 607.46875 830.46875 C 640.90905 816.01325 676.62275 807.76235 712.09375 800.03125 C 743.96725 793.30805 776.26925 789.1422 808.78125 792.125 C 827.07255 793.3895 833.0412 707.17085 814.75 705.90625 C 807.12394 705.48936 799.50712 705.28469 791.90625 705.28125 z "
     id="path20817" />
</svg>
