<?xml version="1.0" encoding="UTF-8" standalone="no"?>
<svg
   xmlns:dc="http://purl.org/dc/elements/1.1/"
   xmlns:cc="http://creativecommons.org/ns#"
   xmlns:rdf="http://www.w3.org/1999/02/22-rdf-syntax-ns#"
   xmlns:svg="http://www.w3.org/2000/svg"
   xmlns="http://www.w3.org/2000/svg"
   xmlns:sodipodi="http://sodipodi.sourceforge.net/DTD/sodipodi-0.dtd"
   xmlns:inkscape="http://www.inkscape.org/namespaces/inkscape"
   width="1024"
   height="1024"
   id="U554A"
   version="1.1"
   inkscape:version="0.48.0 r9654"
   sodipodi:docname="U+554A.svg">
  <metadata
     id="metadata17">
    <rdf:RDF>
      <cc:Work
         rdf:about="">
        <dc:format>image/svg+xml</dc:format>
        <dc:type
           rdf:resource="http://purl.org/dc/dcmitype/StillImage" />
      </cc:Work>
    </rdf:RDF>
  </metadata>
  <defs
     id="defs15" />
  <sodipodi:namedview
     pagecolor="#ffffff"
     bordercolor="#666666"
     borderopacity="1"
     objecttolerance="10"
     gridtolerance="10"
     guidetolerance="10"
     inkscape:pageopacity="0"
     inkscape:pageshadow="2"
     inkscape:window-width="640"
     inkscape:window-height="480"
     id="namedview13"
     showgrid="false"
     inkscape:zoom="0.27441406"
     inkscape:cx="512"
     inkscape:cy="512"
     inkscape:window-x="0"
     inkscape:window-y="25"
     inkscape:window-maximized="0"
     inkscape:current-layer="U554A" />
  <path
     style="fill:#c83737;fill-opacity:1;fill-rule:nonzero;stroke:#f9f9f9;stroke-width:0.1;stroke-miterlimit:4;stroke-dasharray:none"
     d="M 505.3125 218.0625 C 484.27496 218.16273 463.31502 220.11695 442.4375 223.1875 C 414.8607 227.08285 387.3766 231.54532 359.8125 235.53125 C 355.2988 236.37279 352.87039 242.23764 352.03125 250.53125 C 340.67761 254.48544 332.77892 259.7512 333.65625 265.53125 C 339.22315 302.00719 343.61977 338.66004 346.625 375.4375 C 350.31503 438.20892 349.30812 501.1299 347.1875 563.9375 C 345.01945 622.82622 343.87272 681.75459 341.21875 740.625 C 339.37641 777.70352 337.82867 814.87405 341.03125 851.90625 C 338.88922 859.86501 349.86799 882.4516 346.3125 888.6875 C 342.34092 899.43403 343.03229 912.02681 344.40625 923.375 C 347.10044 942.01179 434.94418 929.29304 432.25 910.65625 C 430.64015 917.15 435.06659 893.90387 434.71875 893.78125 C 435.1682 876.52406 431.82624 860.15665 428.46875 843.3125 C 424.67841 810.41102 426.61413 777.19901 427.59375 744.1875 C 428.32119 724.85536 428.88436 705.52521 429.40625 686.1875 C 452.51368 691.18843 475.5744 692.1638 497.96875 681.96875 C 525.80276 667.92789 547.98341 647.93 562.125 619.6875 C 570.65439 603.61807 579.22222 587.45585 586.34375 570.6875 C 589.07774 589.24503 593.48551 607.5089 596.96875 625.9375 C 599.00219 635.83704 597.63561 630.28169 601.5 642.53125 C 603.05499 646.80423 609.12234 648.23249 617.3125 647.75 C 621.6806 660.60147 627.58549 669.86128 633.84375 668.75 C 658.41022 664.91414 683.05408 661.63426 707.59375 657.59375 C 736.78369 652.76603 765.95097 647.82872 795.15625 643.09375 C 807.80418 640.7714 820.59124 639.38839 833.4375 639 C 838.63392 638.77516 835.47976 638.98743 842.90625 638.0625 C 855.42245 635.78097 852.23945 595.28743 843.15625 570.15625 C 845.04091 557.77344 847.23256 545.44439 849.90625 533.1875 C 850.13754 531.96003 850.36178 530.72814 850.59375 529.5 C 850.7235 539.87547 850.83323 550.25496 850.96875 560.625 C 851.12582 604.70232 852.15792 648.75871 853.53125 692.8125 C 855.26113 727.15927 855.64777 761.45212 852.25 795.6875 C 850.20506 819.10052 843.82771 841.57798 835.03125 863.25 C 831.1484 873.5549 825.12159 881.77869 816.53125 888.46875 L 810.65625 892.9375 C 795.81021 904.29469 849.34146 974.29468 864.1875 962.9375 L 873.5 955.78125 C 892.68354 939.07702 907.95322 919.66971 916.84375 895.53125 C 928.23036 866.05801 936.49844 835.56649 939.25 803.96875 C 942.72653 766.01151 942.63543 727.99342 940.46875 689.9375 C 938.95983 646.40605 937.90459 602.87079 937.59375 559.3125 C 936.73409 508.47309 936.57099 457.55649 932 406.875 C 928.9043 377.34102 925.22553 347.8871 921 318.5 C 930.9677 318.05125 940.93146 317.56031 950.90625 317.4375 C 950.27499 317.4109 949.59559 317.39085 948.5 317.34375 C 966.50274 316.50928 980.12621 232.60475 961.9375 229.5625 C 951.35906 228.58314 955.81085 228.66666 948.53125 228.78125 C 934.28321 229.31459 920.0416 230.32879 905.8125 231.21875 C 875.85567 234.1686 845.95503 237.46845 816 240.4375 C 775.04469 245.11595 734.18901 250.76047 693.5 257.375 C 662.35674 262.63106 631.3565 268.64561 600.40625 274.9375 C 598.48585 275.3503 596.96671 276.66543 595.8125 278.6875 C 596.62188 270.69786 595.73583 262.16925 592.53125 252.84375 C 587.43091 246.3212 583.2551 238.94866 577.21875 233.28125 C 564.00556 220.87561 543.10285 220.60803 526.375 218.59375 C 519.35013 218.19016 512.32501 218.02909 505.3125 218.0625 z M 592.96875 291.5625 C 591.68021 317.57927 605.41596 364.3954 619.03125 361.46875 C 648.51716 354.20377 678.34338 348.41573 708.25 343.1875 C 747.24996 336.69116 786.42263 331.33432 825.71875 327 C 828.16633 326.76813 830.6151 326.54657 833.0625 326.3125 C 838.43839 356.12591 842.34789 386.15224 845.75 416.25 C 845.7749 416.51004 845.78787 416.77119 845.8125 417.03125 C 843.62787 414.00906 841.13114 411.11013 838.21875 408.375 C 823.28821 395.60904 806.50063 387.05056 786.625 385.25 C 762.28329 383.4437 738.15776 385.96302 714.53125 392.25 C 688.6091 398.9558 662.94654 406.64574 637.84375 416 C 630.58941 418.87436 632.01762 434.77835 637.375 451.875 C 622.428 451.84429 603.44346 455.30352 590.03125 460.5625 C 581.09286 440.31404 569.08392 421.77862 552.75 406.34375 C 542.54593 397.32338 531.85205 388.94713 520.40625 381.75 C 535.73098 364.89813 551.66568 348.63083 566.6875 331.5 C 577.92931 318.69708 588.05335 305.91508 592.96875 291.5625 z M 529 307.59375 C 536.28157 308.8475 533.47136 309.72563 529 307.59375 z M 468.96875 308.0625 C 463.48116 313.90554 457.99118 319.72796 452.5625 325.625 C 444.96506 332.84939 438.42475 341.21313 431.125 348.75 C 430.13668 337.08714 429.05465 325.45452 427.875 313.8125 C 436.8028 312.43444 445.74408 311.07901 454.6875 309.8125 C 459.43905 309.17439 464.20574 308.6018 468.96875 308.0625 z M 238.125 330.3125 C 212.78473 330.28216 187.5462 332.76621 162.5 336.84375 C 132.31218 341.98025 102.40544 348.42087 73.09375 357.375 C 68.288851 358.90383 66.736096 366.14324 67.34375 375.75 C 47.597908 375.19331 29.347195 378.53338 28.75 386.96875 C 27.179978 420.23253 30.050404 453.5417 33.84375 486.5625 C 38.875753 519.47668 42.63513 552.47504 46.1875 585.5625 C 47.667095 604.67953 51.760374 623.43376 57.90625 641.5625 C 63.480966 654.13761 59.523022 646.79622 71.5625 662.4375 C 79.552961 669.91776 103.35126 651.20492 119.25 631.65625 C 131.14992 629.93379 143.08756 628.46819 155.03125 627.125 C 180.64833 624.43966 206.44452 622.54405 232.15625 624.78125 C 242.89001 625.47899 253.01987 628.94651 263.125 632.3125 L 264.125 632.71875 C 269.63153 642.41784 275.7311 648.63786 281.03125 646.9375 C 314.18599 620.52743 305.23336 636.27269 314.625 604.1875 C 314.83816 595.84828 314.95802 587.59961 316.6875 579.34375 C 320.27279 555.26003 323.67648 531.14323 326.59375 506.96875 C 330.27591 478.35215 334.5611 449.64103 334.375 420.71875 C 333.12434 394.73898 328.71149 370.03745 308.28125 351.8125 C 290.64588 338.51845 271.34343 330.86109 248.96875 330.46875 C 245.34472 330.35859 241.74504 330.31683 238.125 330.3125 z M 487.96875 417.125 C 485.97309 422.73251 483.7542 422.22158 480.78125 423.3125 C 483.14522 421.36603 483.35261 421.1325 487.96875 417.125 z M 232.46875 418.15625 C 236.75067 418.15803 241.05697 418.27994 245.34375 418.53125 C 245.49443 418.43429 245.66212 418.33975 245.84375 418.28125 C 245.98695 419.91102 246.16758 422.05262 246.34375 425.21875 C 246.18241 448.8671 242.70643 472.33854 239.6875 495.75 C 238.05624 509.47188 236.17551 523.17758 234.125 536.84375 C 204.47835 535.322 174.84758 536.88379 145.34375 540.28125 C 139.97743 540.87716 134.60955 541.50677 129.25 542.15625 C 126.56338 520.28326 123.74731 498.42975 120.4375 476.625 C 118.90848 463.26052 117.54557 449.78968 116.78125 436.3125 C 136.54167 430.5273 156.74673 426.43789 177.0625 423.03125 C 195.42983 420.28645 213.91376 418.14856 232.46875 418.15625 z M 250.1875 418.8125 C 253.5187 419.97437 256.29146 422.04343 251.8125 420.0625 C 251.21814 419.62515 250.67823 419.22327 250.1875 418.8125 z M 434.75 439 C 442.51231 442.9598 450.96614 445.99896 459.6875 449.5 C 472.64923 454.53599 483.81283 462.55828 493.96875 471.90625 C 502.28387 480.52879 508.22748 490.88333 511.8125 502.25 C 513.86804 510.14013 511.54954 517.90226 509.71875 525.59375 C 502.79199 543.82642 493.82667 561.20859 484.625 578.375 C 479.0343 589.4607 471.95832 598.02493 460.25 602.25 C 455.19859 602.82383 449.22739 600.55098 444.125 599.09375 C 439.95668 597.65454 435.88623 595.95789 431.875 594.125 C 432.15059 585.01298 432.45353 575.8919 432.78125 566.78125 C 434.16825 524.21037 435.14372 481.60281 434.75 439 z M 767.75 472.5 C 768.58269 472.48784 769.41744 472.51378 770.25 472.53125 C 769.11035 487.5288 766.20238 502.34659 763.5 517.125 C 760.45948 531.62785 757.90664 546.21505 755.625 560.84375 C 734.93968 564.38696 714.22384 567.84538 693.5 571.15625 C 687.66337 572.0984 681.81475 573.00442 675.96875 573.875 C 674.19866 565.24506 672.65519 556.56338 671.71875 547.78125 C 669.79401 531.27728 667.96088 514.76999 665.90625 498.28125 C 667.50444 498.82216 669.03816 498.87934 670.46875 498.3125 C 691.73456 489.40373 713.85377 482.8734 736.1875 477.28125 C 746.50836 475.12025 757.13334 472.65508 767.75 472.5 z M 777.125 473.0625 C 777.53466 473.11783 777.93436 473.15407 778.34375 473.21875 C 783.07999 474.14577 781.22148 475.26263 778.1875 473.65625 C 777.8219 473.5121 777.4632 473.32206 777.125 473.0625 z "
     id="path9468" />
</svg>
