<?xml version="1.0" encoding="utf-8" ?>

<!DOCTYPE svg PUBLIC "-//W3C//DTD SVG 1.1//EN" 
  "http://www.w3.org/Graphics/SVG/1.1/DTD/svg11.dtd">
<svg 
    xmlns="http://www.w3.org/2000/svg"
    xmlns:xlink="http://www.w3.org/1999/xlink"
    xmlns:sodipodi="http://sodipodi.sourceforge.net/DTD/sodipodi-0.dtd"
    xmlns:inkscape="http://www.inkscape.org/namespaces/inkscape"
    width="1024" height="1024" id="U559D">
<path d="m 8336.5022,17801.438 c 1.308,31.08 3.7523,62.1 7.0131,93.032 3.1187,26.794 7.6502,53.594 16.6866,79.081 0.6892,1.414 1.3783,2.829 2.0674,4.244 0.086,-0.226 0.1713,-0.452 0.2569,-0.678 9.5994,15.922 -65.4589,61.174 -75.0583,45.252 l 0,0 c -7.5744,-14.022 -4.2501,-6.872 -10.0174,-21.43 -10.0092,-31.68 -16.278,-64.356 -19.7736,-97.395 -3.4292,-32.354 -5.9719,-64.783 -8.6317,-97.208 -1.0389,-18.553 86.4181,-23.45 87.457,-4.898 z" id="path24547" inkscape:connector-curvature="0" style="fill:#550000;fill-opacity:1;fill-rule:nonzero;stroke:#f9f9f9;stroke-width:0.1;stroke-miterlimit:4;stroke-dasharray:none" transform="translate(-8192, -17408)"/><path d="m 8319.2759,17773.282 c 28.0355,-19.386 59.7275,-31.855 91.9885,-42.166 31.0803,-9.523 63.2825,-12.966 95.6486,-13.037 21.4903,1.096 45.8185,3.102 62.6384,18.459 5.0032,4.568 8.6338,10.443 12.9506,15.665 15.2399,32.992 2.8857,64.814 -7.8304,96.977 -11.5976,33.714 -22.9825,67.494 -33.2607,101.637 -7.7259,25.679 -13.6229,51.862 -21.5793,77.472 -5.6489,17.625 -88.7359,-9.004 -83.087,-26.629 l 0,0 c 8.3536,-25.004 14.0066,-50.822 21.9775,-75.948 10.6167,-34.693 22.1219,-69.094 33.5509,-103.526 3.3807,-10.524 6.5826,-21.033 9.5334,-31.682 0.2736,-0.987 -0.1604,-2.882 0.8618,-2.949 4.1997,-0.275 -5.8674,21.44 5.5853,11.323 16.2721,14.988 20.2846,7.458 -1.8765,6.292 -23.3287,-0.42 -46.5429,1.805 -69.0059,8.495 -22.8767,7.133 -45.6439,15.504 -65.3277,29.517 -14.828,11.193 -67.5954,-58.706 -52.7675,-69.9 z" id="path24549" inkscape:connector-curvature="0" style="fill:#550000;fill-opacity:1;fill-rule:nonzero;stroke:#f9f9f9;stroke-width:0.1;stroke-miterlimit:4;stroke-dasharray:none" transform="translate(-8192, -17408)"/><path d="m 8320.1878,18001.974 c 35.9658,-7.508 71.9253,-14.989 108.0732,-21.579 33.553,-6.165 67.4533,-10.011 101.3374,-13.788 18.351,-1.906 27.3353,84.602 8.9843,86.508 l 0,0 c -31.7502,3.05 -63.5079,6.317 -94.9128,12.033 -35.3929,6.417 -70.6405,13.617 -105.5192,22.449 -18.1634,3.811 -36.1262,-81.812 -17.9629,-85.623 z" id="path24551" inkscape:connector-curvature="0" style="fill:#550000;fill-opacity:1;fill-rule:nonzero;stroke:#f9f9f9;stroke-width:0.1;stroke-miterlimit:4;stroke-dasharray:none" transform="translate(-8192, -17408)"/><path d="m 8701.511,17596.438 c -5.5755,28.475 -6.2166,57.536 -5.3837,86.44 1.1301,29.833 6.5236,59.219 13.7242,88.118 4.2778,17.95 -80.3425,38.116 -84.6204,20.166 l 0,0 c -7.9785,-34.816 -14.0167,-70.124 -15.3338,-105.892 -0.935,-34.797 -0.053,-69.64 5.3076,-104.107 3.2404,-18.308 89.5465,-3.033 86.3061,15.275 z" id="path24553" inkscape:connector-curvature="0" style="fill:#550000;fill-opacity:1;fill-rule:nonzero;stroke:#f9f9f9;stroke-width:0.1;stroke-miterlimit:4;stroke-dasharray:none" transform="translate(-8192, -17408)"/><path d="m 8651.0516,17595.237 c 27.2866,-21.932 60.0477,-33.563 93.416,-42.484 36.4544,-8.849 73.8594,-11.64 111.2536,-11.73 26.4564,0.241 52.7983,2.553 78.4448,9.135 35.2093,11.008 49.6512,34.323 57.5612,68.745 4.5888,33.412 -0.5566,67.029 -4.9706,100.169 -3.7722,27.125 -7.3395,54.277 -11.1058,81.402 -1.9281,12.357 -0.8073,6.176 -3.371,18.54 -4.0432,18.119 -89.456,-0.941 -85.4128,-19.06 l 0,0 c 1.7949,-7.014 0.8824,-2.974 2.5037,-12.171 4.1483,-26.651 7.9006,-53.362 11.5802,-80.082 3.1174,-23.654 6.8155,-47.564 5.2768,-71.482 -0.3355,-4.785 -0.4515,-3.783 2.9261,-1.813 0.629,0.367 7.0641,2.993 2.0213,0.06 -17.9455,-5.564 -37.0323,-5.844 -55.6455,-6.793 -29.8866,-0.24 -59.7896,1.834 -88.9626,8.746 -20.69,5.372 -41.6894,11.649 -58.5484,25.404 -14.1248,12.084 -71.0918,-54.5 -56.967,-66.585 z" id="path24555" inkscape:connector-curvature="0" style="fill:#550000;fill-opacity:1;fill-rule:nonzero;stroke:#f9f9f9;stroke-width:0.1;stroke-miterlimit:4;stroke-dasharray:none" transform="translate(-8192, -17408)"/><path d="m 8716.4959,17701.368 c 30.673,1.636 61.4069,1.25 92.1087,1.006 19.6093,-0.352 39.2023,-0.476 58.7993,0.309 18.4471,0.927 14.0782,87.888 -4.369,86.961 l 0,0 c -17.9264,-1.144 -35.8741,-0.977 -53.8311,-0.789 -31.9747,0.19 -63.9498,0.401 -95.9241,-0 -18.5571,-0.682 -15.3409,-88.161 3.2162,-87.479 z" id="path24557" inkscape:connector-curvature="0" style="fill:#550000;fill-opacity:1;fill-rule:nonzero;stroke:#f9f9f9;stroke-width:0.1;stroke-miterlimit:4;stroke-dasharray:none" transform="translate(-8192, -17408)"/><path d="m 8679.9012,17814.764 c 31.1425,-0.06 62.2643,-1.631 93.3974,-2.389 35.5863,-0.832 71.1843,-0.309 106.7433,1.2 3.7949,0.193 7.5898,0.385 11.3847,0.577 18.4465,1.119 13.1729,88.076 -5.2736,86.958 l 0,0 c -3.4996,-0.251 -6.9992,-0.501 -10.4987,-0.751 -33.3223,-1.983 -66.7113,-2.674 -100.0869,-1.769 -32.4039,0.919 -64.7711,2.598 -97.164,3.797 -18.5877,-0.318 -17.0899,-87.941 1.4978,-87.623 z" id="path24559" inkscape:connector-curvature="0" style="fill:#550000;fill-opacity:1;fill-rule:nonzero;stroke:#f9f9f9;stroke-width:0.1;stroke-miterlimit:4;stroke-dasharray:none" transform="translate(-8192, -17408)"/><path d="m 8643.0531,17935.701 c -5.7063,37.558 -14.8555,74.477 -23.7782,111.368 -7.8441,32.526 -16.4365,64.871 -24.0916,97.442 -4.5091,17.939 -89.0748,-3.317 -84.5658,-21.256 l 0,0 c 8.5524,-32.05 17.2639,-64.06 25.0806,-96.3 7.9982,-33.406 16.3944,-66.897 20.3119,-101.081 2.0847,-18.465 89.1278,-8.637 87.0431,9.827 z" id="path24575" inkscape:connector-curvature="0" style="fill:#550000;fill-opacity:1;fill-rule:nonzero;stroke:#f9f9f9;stroke-width:0.1;stroke-miterlimit:4;stroke-dasharray:none" transform="translate(-8192, -17408)"/><path d="m 8593.1359,17981.629 c 37.4665,-12.816 76.4804,-19.718 115.4423,-26.109 52.3848,-8.143 105.1726,-13.221 158.0393,-16.883 38.7508,-2.466 77.6273,-2.902 116.1549,2.245 37.7982,7.343 55.8101,17.221 76.2277,50.517 15.0512,37.089 12.5235,77.889 11.4313,117.11 -2.114,48.017 -6.0747,95.928 -9.3106,143.877 -2.3713,33.53 -3.5473,67.122 -4.0085,100.727 -0.2239,11.703 0.025,5.975 -0.7128,17.185 -1.7025,18.515 -88.9835,10.489 -87.281,-8.026 l 0,0 c 0.9376,-5.899 0.4554,-2.132 0.9292,-11.357 1.2662,-34.836 2.8762,-69.661 5.4248,-104.431 3.2818,-46.669 7.1378,-93.317 8.9352,-140.073 0.505,-24.576 0.971,-49.255 -2.341,-73.659 9.8061,2.368 -10.2428,-8.045 -11.7891,-5.863 -32.3758,-5.277 -65.3205,-4.14 -97.9769,-2.663 -50.0534,3.172 -100.0352,7.856 -149.573,15.853 -33.5536,5.735 -67.3741,11.534 -99.3035,23.761 -17.4396,6.425 -47.7279,-75.786 -30.2883,-82.211 z" id="path24577" inkscape:connector-curvature="0" style="fill:#550000;fill-opacity:1;fill-rule:nonzero;stroke:#f9f9f9;stroke-width:0.1;stroke-miterlimit:4;stroke-dasharray:none" transform="translate(-8192, -17408)"/><path d="m 8872.7468,18035.245 c -21.248,27.858 -40.5243,57.155 -59.6252,86.506 -16.5004,26.302 -33.3912,52.602 -46.0194,81.046 -1.5689,5.026 -2.5252,5.808 -0.5741,3.662 -3.7639,18.211 -89.6119,0.468 -85.8479,-17.743 l 0,0 c 4.1325,-15.731 1.6071,-8.133 7.4983,-22.821 15.3059,-31.61 33.8673,-61.476 52.782,-91.031 19.9353,-30.728 40.1468,-61.278 61.1233,-91.308 10.9648,-14.99 81.6279,36.699 70.663,51.689 z" id="path24579" inkscape:connector-curvature="0" style="fill:#550000;fill-opacity:1;fill-rule:nonzero;stroke:#f9f9f9;stroke-width:0.1;stroke-miterlimit:4;stroke-dasharray:none" transform="translate(-8192, -17408)"/><path d="m 8815.429,18065.063 c 30.7256,9.253 59.6538,23.006 87.9164,38.004 26.7078,14.678 52.4314,31.048 77.9869,47.625 2.6031,1.762 5.2062,3.524 7.8092,5.286 15.2107,10.593 -34.7259,82.297 -49.9365,71.704 l 0,0 c -1.9918,-1.438 -3.9835,-2.876 -5.9752,-4.314 -22.9232,-15.499 -46.1765,-30.561 -70.4282,-43.918 -22.9909,-12.207 -46.5087,-23.662 -71.8209,-30.256 -17.8468,-5.187 6.6015,-89.317 24.4483,-84.131 z" id="path24581" inkscape:connector-curvature="0" style="fill:#550000;fill-opacity:1;fill-rule:nonzero;stroke:#f9f9f9;stroke-width:0.1;stroke-miterlimit:4;stroke-dasharray:none" transform="translate(-8192, -17408)"/><path d="m 8726.3251,18033.182 c -5.6499,34.078 -8.748,68.477 -10.5805,102.949 -1.0873,30.885 -0.5217,62.232 8.8546,91.907 0.9504,2.148 1.7227,4.383 2.8513,6.443 0.5426,0.99 1.2025,1.986 2.1247,2.637 1.5454,1.091 -2.9707,-3.519 -2.1822,-5.239 0.3098,-0.675 1.4801,-0.136 2.2201,-0.204 26.2669,1.489 52.608,0.623 78.8708,-0.503 36.0954,-1.606 71.9419,-6.304 107.8314,-10.225 23.6659,-2.775 47.4449,-3.522 71.2397,-2.82 18.4855,0.708 15.1469,87.849 -3.3386,87.141 l 0,0 c -19.616,-0.982 -39.2259,-0.448 -58.7651,1.703 -37.6337,3.878 -75.2049,8.652 -113.017,10.493 -32.8474,1.591 -65.9474,3.301 -98.7339,-0 -40.4035,-8.969 -59.5792,-26.053 -72.6313,-65.45 -10.6337,-39.284 -13.3513,-79.749 -11.1661,-120.372 1.9035,-36.821 5.107,-73.525 9.5832,-110.127 2.4769,-18.421 89.3157,-6.746 86.8389,11.676 z" id="path24587" inkscape:connector-curvature="0" style="fill:#550000;fill-opacity:1;fill-rule:nonzero;stroke:#f9f9f9;stroke-width:0.1;stroke-miterlimit:4;stroke-dasharray:none" transform="translate(-8192, -17408)"/></svg>