<?xml version="1.0" encoding="UTF-8" standalone="no"?>
<svg
   xmlns:dc="http://purl.org/dc/elements/1.1/"
   xmlns:cc="http://creativecommons.org/ns#"
   xmlns:rdf="http://www.w3.org/1999/02/22-rdf-syntax-ns#"
   xmlns:svg="http://www.w3.org/2000/svg"
   xmlns="http://www.w3.org/2000/svg"
   xmlns:sodipodi="http://sodipodi.sourceforge.net/DTD/sodipodi-0.dtd"
   xmlns:inkscape="http://www.inkscape.org/namespaces/inkscape"
   width="1024"
   height="1024"
   id="U56DE"
   version="1.1"
   inkscape:version="0.48.0 r9654"
   sodipodi:docname="U+56DE.svg">
  <metadata
     id="metadata13">
    <rdf:RDF>
      <cc:Work
         rdf:about="">
        <dc:format>image/svg+xml</dc:format>
        <dc:type
           rdf:resource="http://purl.org/dc/dcmitype/StillImage" />
      </cc:Work>
    </rdf:RDF>
  </metadata>
  <defs
     id="defs11" />
  <sodipodi:namedview
     pagecolor="#ffffff"
     bordercolor="#666666"
     borderopacity="1"
     objecttolerance="10"
     gridtolerance="10"
     guidetolerance="10"
     inkscape:pageopacity="0"
     inkscape:pageshadow="2"
     inkscape:window-width="640"
     inkscape:window-height="480"
     id="namedview9"
     showgrid="false"
     inkscape:zoom="0.27441406"
     inkscape:cx="512"
     inkscape:cy="512"
     inkscape:window-x="0"
     inkscape:window-y="25"
     inkscape:window-maximized="0"
     inkscape:current-layer="U56DE" />
  <path
     style="fill:#550000;fill-opacity:1;fill-rule:nonzero;stroke:#f9f9f9;stroke-width:0.1;stroke-miterlimit:4;stroke-dasharray:none"
     d="M 512.875 342.3125 C 479.79789 342.41422 446.72004 343.47919 413.75 346.3125 C 371.9902 351.0355 330.01335 357.07475 291.09375 373.84375 C 273.93975 381.89875 311.93965 462.7425 329.09375 454.6875 C 358.87625 441.0625 391.6327 437.02975 423.8125 433.21875 C 478.2254 428.33275 532.92135 428.82825 587.46875 430.53125 C 627.47155 432.24125 667.35905 437.07775 706.40625 445.96875 C 711.60115 448.51375 721.6951 448.26275 725.875 453.46875 C 726.595 454.36575 721.9099 452.7465 721.0625 452.5625 C 722.5851 482.7335 717.9769 512.704 713.875 542.5 C 705.4765 596.437 697.42185 650.41325 690.28125 704.53125 C 684.78345 725.73925 688.1738 750.82575 678.5 770.96875 C 678.17881 771.92413 678.14464 772.89989 678.3125 773.90625 C 639.19182 773.19237 600.06242 773.57537 560.9375 773.625 C 508.55935 773.97675 456.17353 774.80092 403.875 777.875 C 433.06986 775.64465 462.14185 772.15081 491.21875 768.75 C 518.66815 765.467 546.2281 763.10475 573.875 764.34375 C 574.2078 763.19675 592.1055 767.6565 583.1875 765.9375 C 585.6284 766.93835 588.35881 766.18363 591.25 764.15625 C 603.43921 765.85086 613.09339 764.72439 614.96875 759.0625 C 618.17875 748.7055 620.8226 738.207 623.6875 727.75 C 630.798 701.361 638.44375 675.069 644.34375 648.375 C 649.79035 617.46 652.6477 586.196 639.5625 556.625 C 621.8255 525.735 599.8512 510.88325 564.5 505.40625 C 530.7751 501.51425 496.83455 502.253 463.21875 507.25 C 436.50684 511.5677 409.89203 517.03654 384.6875 526.96875 C 360.02426 521.79276 306.22767 532.23856 308.1875 546.9375 C 313.4916 580.0365 320.34695 612.82075 327.34375 645.59375 C 333.21045 673.37375 340.8474 700.76425 351 727.28125 C 352.3403 730.17525 353.69085 733.07475 355.03125 735.96875 C 357.81521 741.56812 368.38482 740.95689 381 737.0625 C 382.10143 757.61555 387.20753 777.2285 395.6875 778.375 C 395.56198 778.38295 395.43802 778.39828 395.3125 778.40625 C 376.13872 779.55049 356.9485 780.71302 337.78125 781.96875 C 344.48497 777.352 348.35224 772.49327 346.96875 768.1875 C 341.13315 751.6495 336.6303 734.7625 333.125 717.5625 C 319.3153 651.9405 308.10725 585.827 296.71875 519.75 C 288.85925 474.183 280.6402 428.63375 274.1875 382.84375 C 271.5287 364.06575 182.99745 376.597 185.65625 395.375 C 194.32215 441.856 202.9634 488.358 211.4375 534.875 C 223.4739 601.572 234.6843 668.39925 247.75 734.90625 C 251.5175 755.33825 256.69635 775.40325 262.65625 795.28125 C 262.71471 795.46321 262.80045 795.6398 262.875 795.8125 C 255.61081 818.62571 265.16093 877.46535 280.53125 875.71875 C 320.42655 870.60675 360.59995 868.1715 400.71875 865.5625 C 454.17885 861.9115 507.77905 861.07775 561.34375 860.96875 C 599.89265 861.14675 638.43575 861.138 676.96875 862.375 C 694.33075 862.975 711.59645 864.8275 728.84375 866.8125 C 731.72755 867.3905 730.4037 867.0845 732.9375 867.6875 C 745.55449 870.09776 757.29075 830.73239 757.84375 803.8125 C 760.43911 802.89398 762.26176 801.44668 762.96875 799.34375 C 771.14735 772.07275 773.8101 743.80275 777.125 715.59375 C 783.7154 661.83275 791.6144 608.2635 800.375 554.8125 C 806.9471 509.9775 815.83475 463.41875 803.40625 418.84375 C 800.40765 412.62775 798.16665 405.9735 794.40625 400.1875 C 778.66395 375.9625 751.9669 365.469 725 359.5 C 680.5535 350.398 635.38465 345.0485 590.03125 343.4375 C 564.32852 342.72875 538.60164 342.23339 512.875 342.3125 z M 520.03125 591.21875 C 531.14509 591.15412 542.2314 591.81569 553.28125 593.4375 C 556.41605 592.5015 570.1713 600.37525 560.125 597.28125 C 561.1284 609.28025 559.23605 621.0295 557.09375 632.8125 C 553.82177 647.22829 549.98128 661.51232 546 675.75 C 524.29021 676.53344 502.62869 678.51128 481.03125 681.1875 C 464.28434 683.11956 447.54454 685.14608 430.75 686.6875 C 423.2748 667.39929 418.0843 647.29804 413.5625 627.125 C 412.52127 622.29586 411.49898 617.45914 410.46875 612.625 C 411.30004 612.5912 412.09119 612.39635 412.84375 612.03125 C 433.04465 602.23225 455.22145 598 477.21875 594.5 C 491.41524 592.56725 505.74203 591.30185 520.03125 591.21875 z "
     id="path8183" />
</svg>
