<?xml version="1.0" encoding="utf-8" ?>

<!DOCTYPE svg PUBLIC "-//W3C//DTD SVG 1.1//EN" 
  "http://www.w3.org/Graphics/SVG/1.1/DTD/svg11.dtd">
<svg 
    xmlns="http://www.w3.org/2000/svg"
    xmlns:xlink="http://www.w3.org/1999/xlink"
    xmlns:sodipodi="http://sodipodi.sourceforge.net/DTD/sodipodi-0.dtd"
    xmlns:inkscape="http://www.inkscape.org/namespaces/inkscape"
    width="1024" height="1024" id="U5668">
<path d="m 9432.0626,38104.694 c -3.6284,21.825 -5.1648,43.932 -6.1118,66.014 1.1433,12.591 -2.113,27.315 2.6841,39.454 -2.6812,-11.053 -0.1917,-3.6 -12.3739,-20.063 14.9765,11.435 -38.9289,82.034 -53.9053,70.599 l 0,0 c -18.2563,-21.676 -12.7042,-10.877 -19.9688,-30.465 -4.2975,-20.899 -5.0243,-42.225 -4.1433,-63.521 1.2112,-25.288 3.1217,-50.541 6.3492,-75.66 2.8939,-18.555 90.3638,-4.913 87.4698,13.642 z" id="path10693" inkscape:connector-curvature="0" style="fill:#c83737;fill-opacity:1;fill-rule:nonzero;stroke:#f9f9f9;stroke-width:0.1;stroke-miterlimit:4;stroke-dasharray:none" transform="translate(-9216, -37888)"/><path d="m 9410.9976,38067.018 c 26.3444,-15.012 55.9174,-21.571 85.5357,-26.34 27.8511,-4.057 56.0315,-4.464 84.0818,-2.907 32.0083,2.237 50.2856,11.286 70.1527,36.745 14.1413,24.822 13.1056,52.603 11.0797,80.094 -1.5674,24.454 -5.8802,48.403 -13.6738,71.614 -4.1662,12.366 -11.4783,22.617 -19.2557,32.871 -11.8413,14.533 -80.349,-41.288 -68.5076,-55.821 l 0,0 c 2.4588,-1.101 3.3331,-4.167 4.5831,-6.309 6.0645,-15.58 7.6418,-32.321 9.0991,-48.862 0.1554,-2.077 -1.1217,-31.623 3.0984,-24.477 8.5978,7.164 14.1482,3.958 -2.1673,2.048 -21.5796,-1.611 -43.3036,-1.446 -64.7694,1.56 -18.1268,2.811 -36.6768,6.047 -52.8502,15.195 -15.997,9.844 -62.4035,-65.566 -46.4065,-75.411 z" id="path10695" inkscape:connector-curvature="0" style="fill:#c83737;fill-opacity:1;fill-rule:nonzero;stroke:#f9f9f9;stroke-width:0.1;stroke-miterlimit:4;stroke-dasharray:none" transform="translate(-9216, -37888)"/><path d="m 9403.6823,38214.062 c 35.1273,-2.024 70.0604,-6.611 105.0206,-10.479 35.1337,-3.864 70.2888,-7.894 105.6756,-7.478 16.1388,1.257 8.2831,0.296 23.5776,2.795 18.4148,3.48 2.0101,90.288 -16.4046,86.808 l 0,0 c -5.2223,-1.45 -2.1295,-0.752 -9.3562,-1.712 -31.4139,-1.392 -62.6954,2.935 -93.9045,5.934 -36.3001,4.046 -72.5248,8.75 -108.8672,12.405 -18.7254,1.217 -24.4667,-87.055 -5.7413,-88.273 z" id="path10697" inkscape:connector-curvature="0" style="fill:#c83737;fill-opacity:1;fill-rule:nonzero;stroke:#f9f9f9;stroke-width:0.1;stroke-miterlimit:4;stroke-dasharray:none" transform="translate(-9216, -37888)"/><path d="m 9791.1545,38066.95 c 7.7878,27.121 13.6293,54.741 19.3698,82.351 2.5662,11.892 4.7796,23.892 8.1334,35.602 1.3068,4.562 5.1786,15.486 3.5828,9.062 -0.4377,-1.762 -1.3709,-3.363 -2.0564,-5.044 11.3241,14.988 -59.3311,68.371 -70.6552,53.382 l 0,0 c -14.4455,-23.068 -20.2241,-48.549 -24.7543,-75.256 -4.9713,-24.141 -9.9508,-48.364 -17.5397,-71.847 -5.9928,-17.802 77.9268,-46.052 83.9196,-28.25 z" id="path10699" inkscape:connector-curvature="0" style="fill:#c83737;fill-opacity:1;fill-rule:nonzero;stroke:#f9f9f9;stroke-width:0.1;stroke-miterlimit:4;stroke-dasharray:none" transform="translate(-9216, -37888)"/><path d="m 9800.1632,38061.249 c 30.3987,-13.265 62.9392,-19.274 95.6851,-22.987 29.5266,-2.889 59.0197,-0.483 88.0975,4.809 18.7502,3.485 36.5552,9.627 52.9532,19.305 27.671,20.051 28.821,50.225 22.715,80.814 -5.3,20.961 -11.575,41.636 -16.207,62.763 -2.381,12.275 -4.219,24.592 -7.422,36.686 -5.265,18.043 -90.3237,-6.777 -85.0586,-24.82 l 0,0 c 4.9264,-9.08 2.3342,-21.759 6.5533,-31.171 4.7122,-20.565 10.5279,-40.823 15.7721,-61.251 1.0718,-4.847 1.4962,-7.013 1.698,-6.911 2.2291,1.134 6.9951,19.498 14.1418,18.524 -2.1908,-2.399 -15.6184,-6.135 -21.575,-7.439 -20.4599,-4.122 -41.2553,-6.073 -62.13,-4.309 -23.1219,2.421 -46.3422,6.086 -67.6042,16.013 -16.9761,7.98 -54.5953,-72.046 -37.6192,-80.026 z" id="path10701" inkscape:connector-curvature="0" style="fill:#c83737;fill-opacity:1;fill-rule:nonzero;stroke:#f9f9f9;stroke-width:0.1;stroke-miterlimit:4;stroke-dasharray:none" transform="translate(-9216, -37888)"/><path d="m 9761.5147,38200.166 c 35.9182,-7.007 72.2634,-11.496 108.5079,-16.422 37.0704,-5.018 74.0223,-11.206 111.4216,-13.09 16.8743,-1.416 29.0778,3.763 44.2238,10.551 15.81,10.202 -32.2841,84.73 -48.0939,74.528 l 0,0 c 5.697,1.906 19.3195,4.788 7.0673,2.731 -34.5124,0.576 -68.5902,6.923 -102.7539,11.26 -33.3231,4.669 -66.8326,8.812 -99.6318,16.479 -18.2511,4.399 -38.9921,-81.637 -20.741,-86.037 z" id="path10703" inkscape:connector-curvature="0" style="fill:#c83737;fill-opacity:1;fill-rule:nonzero;stroke:#f9f9f9;stroke-width:0.1;stroke-miterlimit:4;stroke-dasharray:none" transform="translate(-9216, -37888)"/><path d="m 9449.3208,38435.409 c 38.8304,-15.562 80.8225,-19.44 122.103,-23.152 62.9461,-4.287 125.9119,-8.336 188.8817,-12.275 57.4859,-4.297 115.1009,-3.919 172.5299,0.636 19.1877,1.601 38.207,4.641 57.3239,6.847 18.5877,2.837 5.2157,90.461 -13.3722,87.624 l 0,0 c -17.0751,-3.271 -34.2904,-5.814 -51.5551,-7.846 -53.0562,-5.162 -106.3654,-5.812 -159.5592,-1.839 -62.0806,3.918 -124.146,8.203 -186.1647,12.993 -31.1589,3.062 -63.2197,5.546 -92.6276,17.093 -16.9875,7.967 -54.5472,-72.113 -37.5597,-80.081 z" id="path10705" inkscape:connector-curvature="0" style="fill:#c83737;fill-opacity:1;fill-rule:nonzero;stroke:#f9f9f9;stroke-width:0.1;stroke-miterlimit:4;stroke-dasharray:none" transform="translate(-9216, -37888)"/><path d="m 9772.364,38273.724 c -16.5743,34.87 -30.7623,70.83 -46.387,106.141 -26.8707,59.748 -57.668,117.6 -89.2619,174.952 -22.9075,39.778 -43.7456,81.003 -70.9448,118.102 -14.1679,15.38 -5.5705,7.815 -26.8744,21.404 -17.2284,7.541 -52.776,-73.674 -35.5477,-81.215 l 0,0 c -9.9354,8.046 -12.827,9.527 -7.3269,6.429 26.4332,-32.229 43.917,-70.922 65.667,-106.218 30.4964,-54.908 59.9565,-110.457 85.186,-168.021 15.8983,-36.868 30.3636,-74.317 46.3998,-111.119 8.3888,-16.778 87.4786,22.767 79.0899,39.545 z" id="path10707" inkscape:connector-curvature="0" style="fill:#c83737;fill-opacity:1;fill-rule:nonzero;stroke:#f9f9f9;stroke-width:0.1;stroke-miterlimit:4;stroke-dasharray:none" transform="translate(-9216, -37888)"/><path d="m 9652.002,38495.336 c 19.9117,22.061 42.9718,40.779 66.7403,58.47 31.1853,23.087 66.2331,39.506 101.9989,54.034 19.041,6.72 37.8213,15.177 57.8227,18.681 18.2773,4.029 -0.7145,90.189 -18.9918,86.16 l 0,0 c -24.6455,-5.978 -48.3551,-14.98 -71.8926,-24.353 -42.3146,-17.552 -83.7596,-37.351 -120.8206,-64.632 -27.6616,-20.489 -54.3434,-42.21 -78.4337,-66.88 -13.042,-13.486 50.5347,-74.967 63.5768,-61.48 z" id="path10709" inkscape:connector-curvature="0" style="fill:#c83737;fill-opacity:1;fill-rule:nonzero;stroke:#f9f9f9;stroke-width:0.1;stroke-miterlimit:4;stroke-dasharray:none" transform="translate(-9216, -37888)"/><path d="m 9893.3552,38290.833 c 14.837,24.515 30.4558,48.499 44.2051,73.657 2.3189,4.928 4.6379,9.857 6.9568,14.786 7.7813,16.899 -71.8814,53.581 -79.6628,36.682 l 0,0 c -1.4548,-3.267 -2.9097,-6.534 -4.3646,-9.801 -12.8008,-24.008 -27.8278,-46.661 -42.7283,-69.403 -9.7414,-16.036 65.8524,-61.957 75.5938,-45.921 z" id="path10711" inkscape:connector-curvature="0" style="fill:#c83737;fill-opacity:1;fill-rule:nonzero;stroke:#f9f9f9;stroke-width:0.1;stroke-miterlimit:4;stroke-dasharray:none" transform="translate(-9216, -37888)"/><path d="m 9408.0156,38713.55 c 1.2531,25.195 6.2569,49.892 13.5355,73.979 -2.4431,2.007 17.5454,36.245 10.1712,22.815 13.3579,13.195 -48.8466,76.165 -62.2046,62.97 l 0,0 c -15.5668,-17.913 -25.5682,-38.14 -32.0292,-61.075 -8.6779,-30.15 -14.8623,-60.864 -17.6266,-92.159 -1.3852,-18.7 86.7685,-25.23 88.1537,-6.53 z" id="path10713" inkscape:connector-curvature="0" style="fill:#c83737;fill-opacity:1;fill-rule:nonzero;stroke:#f9f9f9;stroke-width:0.1;stroke-miterlimit:4;stroke-dasharray:none" transform="translate(-9216, -37888)"/><path d="m 9412.7571,38680.589 c 28.229,-13.225 58.4924,-20.677 89.0374,-26.132 28.5306,-4.687 57.4266,-5.306 86.0428,-1.42 36.0884,7.063 54.0547,27.497 62.6474,62.29 3.3977,21.11 2.4141,42.52 0.6186,63.72 -1.8139,21.529 -6.6005,42.542 -13.2844,63.036 -1.297,3.314 -2.5939,6.627 -3.8909,9.941 -7.0059,17.367 -88.8743,-15.659 -81.8684,-33.026 l 0,0 c 0.6951,-1.625 1.3901,-3.249 2.0851,-4.874 4.8057,-13.806 7.8084,-28.1 9.1214,-42.673 1.1329,-12.734 1.847,-25.54 0.6622,-38.303 1.3914,1.342 17.0427,12.762 10.5627,7.027 -18.9602,-3.67 -38.5527,-1.902 -57.5542,0.551 -21.9674,3.766 -43.9565,8.708 -64.0478,18.694 -16.7225,8.513 -56.8544,-70.317 -40.1319,-78.831 z" id="path10715" inkscape:connector-curvature="0" style="fill:#c83737;fill-opacity:1;fill-rule:nonzero;stroke:#f9f9f9;stroke-width:0.1;stroke-miterlimit:4;stroke-dasharray:none" transform="translate(-9216, -37888)"/><path d="m 9426.1997,38803.507 c 28.6014,1.558 57.2567,1.772 85.8935,1.954 26.8031,0.135 53.629,0.216 80.3702,-1.792 2.9944,-0.332 5.9889,-0.664 8.9834,-0.997 18.5696,-1.926 27.6531,85.611 9.0835,87.538 l 0,0 c -4.0302,0.397 -8.0604,0.794 -12.0906,1.191 -28.9296,1.808 -57.9114,1.682 -86.8874,1.419 -29.5343,-0.179 -59.0662,-0.536 -88.5993,-0.839 -18.7683,-0.689 -15.5215,-89.163 3.2467,-88.474 z" id="path10717" inkscape:connector-curvature="0" style="fill:#c83737;fill-opacity:1;fill-rule:nonzero;stroke:#f9f9f9;stroke-width:0.1;stroke-miterlimit:4;stroke-dasharray:none" transform="translate(-9216, -37888)"/><path d="m 9842.3601,38715.363 c 5.513,25.789 11.2805,51.523 19.6201,76.561 3.0526,4.301 3.4952,14.071 8.5206,17.362 0.4968,0.326 -0.084,-1.271 -0.4772,-1.716 -2.2387,-2.536 -4.2299,-5.607 -7.2796,-7.071 -6.3837,-3.065 -13.5497,-4.121 -20.3245,-6.181 18.8159,-0.619 21.7363,88.08 2.9204,88.699 l 0,0 c -9.0942,-1.984 -18.6823,-2.391 -27.2825,-5.951 -22.5627,-9.341 -31.4682,-37.795 -39.5558,-58.141 -8.5825,-27.151 -15.0379,-54.832 -21.9822,-82.432 -4.4824,-18.21 81.3583,-39.34 85.8407,-21.13 z" id="path10719" inkscape:connector-curvature="0" style="fill:#c83737;fill-opacity:1;fill-rule:nonzero;stroke:#f9f9f9;stroke-width:0.1;stroke-miterlimit:4;stroke-dasharray:none" transform="translate(-9216, -37888)"/><path d="m 9808,38697.524 c 24.2421,-29.625 58.2382,-46.011 93.3462,-59.04 36.2409,-12.199 74.1249,-17.538 112.1728,-19.402 27.398,-1.117 54.309,1.612 80.069,11.046 33.287,15.976 43.421,41.455 44.49,76.608 -1.566,29.585 -9.016,58.436 -15.946,87.119 -4.905,19.955 -9.153,40.071 -17.318,58.983 -12.036,17.93 -4.23,9.047 -25.082,25.089 -16.628,8.815 -58.185,-69.57 -41.557,-78.386 l 0,0 c -11.981,11.03 -8.265,5.408 -13.329,15.202 5.632,-11.92 7.992,-28.25 12.086,-41.679 5.342,-21.661 10.916,-43.438 12.982,-65.706 0.788,-7.022 5.2,5.437 10.512,4.649 -9.49,-7.586 -32.068,-3.873 -43.223,-5.436 -29.0987,0.954 -58.0976,4.909 -85.8854,13.903 -18.9068,6.755 -38.4563,14.315 -52.18,29.662 -11.1608,15.09 -82.2984,-37.522 -71.1376,-52.612 z" id="path10721" inkscape:connector-curvature="0" style="fill:#c83737;fill-opacity:1;fill-rule:nonzero;stroke:#f9f9f9;stroke-width:0.1;stroke-miterlimit:4;stroke-dasharray:none" transform="translate(-9216, -37888)"/><path d="m 9874.1101,38808.453 c 31.3605,-0.04 62.7135,-0.69 94.0451,-2.015 30.0813,-1.37 60.0348,-4.56 89.9228,-8.125 10.78,-1.337 5.681,-0.694 15.299,-1.922 18.629,-2.123 28.635,85.696 10.006,87.819 l 0,0 c -9.961,1.002 -4.68,0.474 -15.845,1.582 -31.814,3.099 -63.646,6.174 -95.5813,7.712 -31.9163,1.435 -63.8546,2.047 -95.7745,3.358 -18.7545,0.44 -20.8266,-87.97 -2.0721,-88.409 z" id="path10723" inkscape:connector-curvature="0" style="fill:#c83737;fill-opacity:1;fill-rule:nonzero;stroke:#f9f9f9;stroke-width:0.1;stroke-miterlimit:4;stroke-dasharray:none" transform="translate(-9216, -37888)"/></svg>