<?xml version="1.0" encoding="UTF-8" standalone="no"?>
<svg
   xmlns:dc="http://purl.org/dc/elements/1.1/"
   xmlns:cc="http://creativecommons.org/ns#"
   xmlns:rdf="http://www.w3.org/1999/02/22-rdf-syntax-ns#"
   xmlns:svg="http://www.w3.org/2000/svg"
   xmlns="http://www.w3.org/2000/svg"
   xmlns:sodipodi="http://sodipodi.sourceforge.net/DTD/sodipodi-0.dtd"
   xmlns:inkscape="http://www.inkscape.org/namespaces/inkscape"
   width="1024"
   height="1024"
   id="U56F4"
   version="1.1"
   inkscape:version="0.48.0 r9654"
   sodipodi:docname="U+56F4.svg">
  <metadata
     id="metadata14">
    <rdf:RDF>
      <cc:Work
         rdf:about="">
        <dc:format>image/svg+xml</dc:format>
        <dc:type
           rdf:resource="http://purl.org/dc/dcmitype/StillImage" />
      </cc:Work>
    </rdf:RDF>
  </metadata>
  <defs
     id="defs12" />
  <sodipodi:namedview
     pagecolor="#ffffff"
     bordercolor="#666666"
     borderopacity="1"
     objecttolerance="10"
     gridtolerance="10"
     guidetolerance="10"
     inkscape:pageopacity="0"
     inkscape:pageshadow="2"
     inkscape:window-width="640"
     inkscape:window-height="480"
     id="namedview10"
     showgrid="false"
     inkscape:zoom="0.27441406"
     inkscape:cx="512"
     inkscape:cy="512"
     inkscape:window-x="0"
     inkscape:window-y="25"
     inkscape:window-maximized="0"
     inkscape:current-layer="U56F4" />
  <path
     style="fill:#501616;fill-opacity:1;fill-rule:nonzero;stroke:#f9f9f9;stroke-width:0.1;stroke-miterlimit:4;stroke-dasharray:none"
     d="M 590.125 180.6875 C 571.69701 180.67548 553.23492 181.38175 534.75 182.78125 C 462.0521 188.70325 389.7209 198.2505 318.1875 212.6875 C 274.7546 221.9275 230.0464 231.3085 192.625 256.5625 C 188.42373 259.76985 189.6859 267.61699 193.96875 277.03125 C 188.94301 277.43918 185.38539 279.01399 184.21875 282.125 C 168.67585 331.468 167.071 383.56675 165.75 434.84375 C 165.0179 529.85875 176.3569 624.3155 190.6875 718.0625 C 202.4601 794.9805 222.1736 870.15475 252.375 941.84375 C 255.09476 947.23249 257.81152 952.61126 260.53125 958 C 268.78162 982.86732 287.76964 1012.9559 298.5 1007.9062 C 330.9971 993.78625 366.4946 988.783 401.25 983.5 C 464.382 974.878 527.877 969.32625 591.5625 967.53125 C 645.5942 966.17425 698.9343 974.1105 751.0625 987.6875 C 772.1168 993.5185 792.6089 1001.056 812.9375 1009 C 826.58708 1014.1608 848.59489 964.76099 849.03125 940.09375 C 853.27561 938.83871 856.08683 936.78786 856.65625 933.8125 C 863.24845 898.0065 869.925 862.231 878.125 826.75 C 895.036 754.172 914.468 682.21575 931.1875 609.59375 C 944.4657 545.44975 956.58865 480.129 946.90625 414.5 C 937.71975 364.613 922.8146 316.54975 888.1875 277.96875 C 850.6851 240.16775 806.1853 213.74 754.3125 200.125 C 700.33147 187.13275 645.40897 180.72355 590.125 180.6875 z M 590.1875 265.78125 C 638.51354 265.8505 686.54173 271.38566 733.53125 283.59375 C 769.03485 293.88675 800.48705 311.45925 825.59375 338.53125 C 847.39095 364.73725 855.89045 397.14275 861.71875 429.96875 C 869.09135 484.63175 858.38425 539.086 847.59375 592.5 C 831.44465 664.369 812.13925 735.46875 794.96875 807.09375 C 787.28447 839.32117 780.68844 871.76192 774.21875 904.25 C 773.55372 904.07255 772.88462 903.89344 772.21875 903.71875 C 748.41084 897.87828 724.41621 893.01458 700.25 889.34375 C 702.24936 884.18019 702.85404 882.54463 707.96875 868.625 C 719.97785 834.83 731.9975 800.32275 731.5 763.96875 C 727.8931 728.61175 715.6471 697.83 688.1875 674 C 658.0054 650.545 623.8211 636.3195 585.5 632.4375 C 580.45302 631.97918 575.42692 631.5616 570.375 631.21875 C 570.70221 620.6042 571.07058 609.98783 571.53125 599.375 C 571.8093 592.20976 572.08916 585.03996 572.375 577.875 C 582.62464 578.51306 592.88337 579.22972 603.125 579.9375 C 621.8546 581.3675 612.8075 580.61125 630.25 582.15625 C 648.7964 583.66025 655.89025 496.22375 637.34375 494.71875 C 618.84715 493.34775 628.3468 494.041 608.8125 492.75 C 597.90012 492.07719 586.98095 491.39689 576.0625 490.78125 C 576.76307 475.13217 577.47238 459.49067 578.21875 443.84375 C 588.18804 443.88416 598.1567 444.01951 608.125 444.25 C 626.5818 444.856 644.9585 446.195 662.9375 450.5 C 681.183 454.293 699.0579 368.26175 680.8125 364.46875 C 657.3392 360.01375 633.6728 357.68975 609.75 357.46875 C 600.70399 357.33649 591.63981 357.28986 582.59375 357.28125 C 582.71062 355.10387 582.81959 352.92732 582.9375 350.75 C 584.75807 322.458 586.21481 293.91267 590.1875 265.78125 z M 502.21875 271.125 C 499.93878 295.96493 498.75065 320.93522 497.46875 345.8125 C 497.28148 350.25995 497.09369 354.7088 496.90625 359.15625 C 485.15682 359.69816 473.42627 360.33546 461.6875 361.125 C 422.6132 363.978 383.5403 367.5165 345 374.8125 C 326.6364 378.6315 344.6363 465.194 363 461.375 C 397.5291 453.318 432.9205 450.22775 468.1875 447.46875 C 476.54488 446.87293 484.91684 446.35254 493.28125 445.90625 C 492.68794 460.10442 492.08532 474.30149 491.5 488.5 C 461.11219 488.94094 430.67478 489.77735 400.5 493.65625 C 381.9882 496.76825 396.64445 584.0505 415.15625 580.9375 C 439.23052 577.09323 463.64828 576.2362 488 575.75 C 487.7336 582.53311 487.44977 589.31048 487.1875 596.09375 C 486.67627 607.80869 486.22106 619.53292 485.84375 631.25 C 471.41891 632.29343 457.03649 633.89191 442.6875 636.09375 C 406.3249 642.01175 369.76305 648.79 335.65625 663.25 C 318.66325 671.237 356.3195 751.362 373.3125 743.375 C 399.6998 731.498 428.4718 726.48375 456.8125 721.71875 C 465.97365 720.29669 475.17062 719.16482 484.375 718.3125 C 484.32407 752.51244 484.91223 786.71497 486.25 820.90625 C 487.9377 852.15725 487.0633 837.2485 488.875 865.5625 C 490.2598 883.9685 577.0098 877.43725 575.625 859.03125 C 573.2921 832.24425 574.44795 846.31175 572.28125 816.84375 C 570.46114 784.00543 569.47537 751.14596 569.25 718.28125 C 571.84809 718.51646 574.43552 718.78486 577.03125 719.0625 C 597.63105 721.9035 617.29515 728.239 632.90625 742.25 C 640.92005 750.367 643.9715 759.66925 643.9375 770.78125 C 641.9433 794.47525 633.5847 817.035 625.625 839.25 C 618.8641 857.404 622.267 848.5345 615.4375 865.8125 C 613.5609 870.617 618.49961 876.56502 626.75 882.25 C 614.21401 881.77971 601.66235 881.70292 589.0625 882.0625 C 522.0336 884.0845 455.16935 889.67225 388.65625 898.28125 C 369.53537 901.02478 350.34566 903.83296 331.34375 907.5625 C 302.74694 843.06796 285.03222 774.83718 273.84375 705.21875 C 259.98195 616.68575 249.15605 527.39675 250.90625 437.59375 C 252.48716 397.06035 253.65866 355.51795 266 316.53125 C 288.34405 306.87495 312.95266 302.15705 336.5 296.90625 C 391.25411 285.24251 446.58702 276.87484 502.21875 271.125 z "
     id="path12862" />
</svg>
