<?xml version="1.0" encoding="utf-8" ?>

<!DOCTYPE svg PUBLIC "-//W3C//DTD SVG 1.1//EN" 
  "http://www.w3.org/Graphics/SVG/1.1/DTD/svg11.dtd">
<svg 
    xmlns="http://www.w3.org/2000/svg"
    xmlns:xlink="http://www.w3.org/1999/xlink"
    xmlns:sodipodi="http://sodipodi.sourceforge.net/DTD/sodipodi-0.dtd"
    xmlns:inkscape="http://www.inkscape.org/namespaces/inkscape"
    width="1024" height="1024" id="U561B">
<path d="m 11414.134,32147.832 c 4.035,28.849 9.14,57.533 14.491,86.163 4.871,27.032 11.304,53.726 19.405,79.965 -1.242,2.335 13.417,32.302 4.608,15.389 10.417,15.744 -63.801,64.852 -74.219,49.108 l 0,0 c -6.898,-12.361 -10.887,-25.747 -14.715,-39.351 -8.478,-29.31 -15.511,-59 -20.934,-89.034 -5.564,-29.66 -10.75,-59.386 -16.169,-89.072 -2.793,-18.568 84.74,-31.737 87.533,-13.168 z" id="path10624" inkscape:connector-curvature="0" style="fill:#2b0000;fill-opacity:1;fill-rule:nonzero;stroke:#f9f9f9;stroke-width:0.1;stroke-miterlimit:4;stroke-dasharray:none" transform="translate(-11264, -31744)"/><path d="m 11388.248,32109.111 c 24.107,-8.23 48.431,-15.725 73.24,-21.515 24.781,-5.716 49.926,-8.722 75.333,-8.149 20.474,1.847 40.687,6.082 60.436,11.71 15.759,4.806 29.669,11.688 42.751,21.604 21.87,22.604 19.166,49.754 12.248,77.784 -7.767,27.292 -15.605,54.547 -22.272,82.133 -5.003,20.967 -9.085,42.183 -10.327,63.727 -0.528,6.986 -0.244,13.926 0.607,20.858 0.06,0.424 0.115,0.847 0.173,1.27 1.79,18.79 -86.789,27.232 -88.579,8.441 l 0,0 c -0.02,-0.413 -0.05,-0.827 -0.07,-1.241 -0.924,-11.881 -1.143,-23.782 -0.1,-35.673 2.156,-26.369 6.831,-52.407 13.228,-78.081 6.744,-27.546 14.327,-54.861 21.686,-82.246 5.295,-22.334 0.476,-1.589 14.096,9.059 14.47,9.04 -4.195,-2.186 -8.482,-2.853 -12.539,-3.954 -25.534,-6.364 -38.5,-8.438 -17.704,-1.117 -35.283,2.356 -52.593,5.721 -21.341,4.781 -42.245,11.331 -62.7,19.07 -17.645,6.402 -47.826,-76.779 -30.18,-83.181 z" id="path10626" inkscape:connector-curvature="0" style="fill:#2b0000;fill-opacity:1;fill-rule:nonzero;stroke:#f9f9f9;stroke-width:0.1;stroke-miterlimit:4;stroke-dasharray:none" transform="translate(-11264, -31744)"/><path d="m 11409.667,32323.624 c 29.928,-2.484 59.754,-6.037 89.672,-8.672 29.286,-2.943 58.663,-4.034 88.06,-2.698 12.059,0.735 24.129,1.255 35.989,3.619 18.245,4.855 -4.643,90.861 -22.887,86.005 l 0,0 c 14.277,2.409 -16.456,-2.38 -17.894,-1.653 -25.22,-1.663 -50.444,-0.753 -75.597,1.746 -30.271,2.671 -60.438,6.244 -90.612,9.826 -18.704,1.427 -25.435,-86.745 -6.731,-88.173 z" id="path10628" inkscape:connector-curvature="0" style="fill:#2b0000;fill-opacity:1;fill-rule:nonzero;stroke:#f9f9f9;stroke-width:0.1;stroke-miterlimit:4;stroke-dasharray:none" transform="translate(-11264, -31744)"/><path d="m 11922.841,31859.419 c 15.558,20.727 29.509,42.555 45.531,62.939 10.587,13.89 24.053,24.409 38.735,33.545 13.17,6.539 24.262,13.958 35.605,23.329 12.111,14.484 -56.166,71.577 -68.277,57.093 l 0,0 c 30.717,24.149 -7.664,-3.626 -14.75,-6.064 -22.875,-14.825 -43.767,-32.144 -60.44,-53.93 -15.295,-19.696 -29.045,-40.485 -44.354,-60.154 -12.04,-14.414 55.91,-71.172 67.95,-56.758 z" id="path10630" inkscape:connector-curvature="0" style="fill:#2b0000;fill-opacity:1;fill-rule:nonzero;stroke:#f9f9f9;stroke-width:0.1;stroke-miterlimit:4;stroke-dasharray:none" transform="translate(-11264, -31744)"/><path d="m 11726.903,32032.375 c 29.398,-0.06 58.697,-3.066 87.936,-5.816 46.536,-4.509 93.135,-8.341 139.786,-11.431 45.019,-2.748 90.099,-4.383 135.194,-5.109 28.805,-0.743 57.535,0.351 86.202,3.072 9.144,1.037 18.275,2.264 27.298,4.086 18.364,4.335 -2.071,90.906 -20.435,86.571 l 0,0 c -4.656,-1.459 -10.947,-2.058 -16.11,-2.95 -25.195,-2.947 -50.48,-4.151 -75.863,-3.651 -43.542,0.382 -87.075,1.755 -130.541,4.405 -45.744,3.053 -91.431,6.942 -137.032,11.687 -31.831,3.244 -63.69,6.453 -95.679,7.637 -18.774,0.16 -19.53,-88.34 -0.756,-88.501 z" id="path10632" inkscape:connector-curvature="0" style="fill:#2b0000;fill-opacity:1;fill-rule:nonzero;stroke:#f9f9f9;stroke-width:0.1;stroke-miterlimit:4;stroke-dasharray:none" transform="translate(-11264, -31744)"/><path d="m 11798.069,32103.439 c -12.597,35.522 -23.513,71.611 -34.433,107.674 -17.601,57.756 -33.673,115.941 -48.17,174.55 -12.859,52.655 -22.453,106.007 -30.029,159.654 -3.321,27.733 -7.618,55.687 -5.455,83.674 0.806,6.638 2.307,13.226 5.428,19.159 -0.899,-1.75 -1.799,-3.5 -2.698,-5.25 10.589,15.614 -63.016,65.533 -73.605,49.919 l 0,0 c -1.533,-2.684 -3.065,-5.368 -4.598,-8.052 -6.908,-16.181 -11.184,-33.28 -12.406,-50.875 -1.464,-33.932 2.454,-67.633 7.518,-101.164 8.553,-56.322 18.898,-112.37 32.485,-167.718 14.861,-59.888 31.17,-119.385 48.643,-178.566 10.827,-37.012 21.866,-73.96 33.375,-110.766 5.889,-17.808 89.834,9.954 83.945,27.761 z" id="path10634" inkscape:connector-curvature="0" style="fill:#2b0000;fill-opacity:1;fill-rule:nonzero;stroke:#f9f9f9;stroke-width:0.1;stroke-miterlimit:4;stroke-dasharray:none" transform="translate(-11264, -31744)"/><path d="m 11778.569,32266.394 c 37.337,0.768 74.681,-1.6 111.973,-3.213 53.347,-2.114 106.719,-3.337 160.039,-6.104 37.091,-2.126 74.134,-5.062 111.1,-8.761 17.556,-2.002 34.803,-4.985 52.474,-3.666 6.825,2.828 15.087,3.43 20.475,8.483 23.602,22.136 23.827,50.165 4.071,72.85 0.342,-0.08 -0.718,1.058 -0.786,1.151 -11.426,15.019 -82.223,-38.842 -70.798,-53.86 l 0,0 c 1.774,-2.297 3.554,-4.592 5.476,-6.77 -17.855,26.398 -1.759,59.515 28.763,66.054 18.147,-0.06 -31.414,3.03 -31.659,3.077 -38.249,3.212 -76.542,5.952 -114.877,7.916 -53.388,2.47 -106.823,3.582 -160.212,6.028 -40.019,2.035 -80.038,4.746 -120.116,5.157 -18.74,-0.865 -14.663,-89.207 4.077,-88.342 z" id="path10638" inkscape:connector-curvature="0" style="fill:#2b0000;fill-opacity:1;fill-rule:nonzero;stroke:#f9f9f9;stroke-width:0.1;stroke-miterlimit:4;stroke-dasharray:none" transform="translate(-11264, -31744)"/><path d="m 11927.09,32171.799 c -3.46,32.215 -3.585,64.669 -3.831,97.031 -0.231,48.593 0.432,97.183 0.877,145.772 0.365,36.101 0.461,72.204 0.877,108.304 0.06,4.021 0.11,8.042 0.175,12.062 0.03,1.59 0.286,16.062 0.357,18.477 0.07,2.444 0.513,9.75 0.64,7.308 2.88,18.626 -84.923,32.204 -87.803,13.578 l 0,0 c -1.888,-16.927 -0.787,-33.979 -1.058,-50.976 0.04,-36.05 0.246,-72.099 0.08,-108.148 -0.233,-48.896 -0.832,-97.789 -0.963,-146.685 -0.01,-34.832 0.07,-69.69 2.467,-104.458 1.641,-18.706 89.82,-10.971 88.179,7.735 z" id="path10640" inkscape:connector-curvature="0" style="fill:#2b0000;fill-opacity:1;fill-rule:nonzero;stroke:#f9f9f9;stroke-width:0.1;stroke-miterlimit:4;stroke-dasharray:none" transform="translate(-11264, -31744)"/><path d="m 11886.612,32381.043 c -14.463,22.964 -28.181,46.389 -42.035,69.724 -14.745,24.438 -28.336,49.529 -41.301,74.947 4.261,-6.153 -9.909,17.051 -5.33,11.556 -6.682,17.608 -89.688,-13.896 -83.005,-31.504 l 0,0 c 3.085,-7.105 6.443,-14.037 10.338,-20.747 14.146,-26.544 28.601,-52.924 44.031,-78.75 14.024,-23.822 28.052,-47.643 41.881,-71.579 9.833,-15.999 85.254,30.354 75.421,46.353 z" id="path10642" inkscape:connector-curvature="0" style="fill:#2b0000;fill-opacity:1;fill-rule:nonzero;stroke:#f9f9f9;stroke-width:0.1;stroke-miterlimit:4;stroke-dasharray:none" transform="translate(-11264, -31744)"/><path d="m 11908.599,32371.179 c 17.933,14.257 36.385,27.859 55.26,40.838 19.487,13.328 40.695,23.702 61.988,33.751 8.116,3.673 16.029,7.733 23.855,11.978 16.351,9.215 -27.089,86.294 -43.44,77.079 l 0,0 c -5.951,-3.599 -12.155,-6.719 -18.433,-9.714 -25.254,-12.269 -50.402,-24.907 -73.646,-40.769 -20.249,-13.895 -39.957,-28.53 -59.717,-43.107 -14.861,-11.484 39.272,-81.539 54.133,-70.056 z" id="path10644" inkscape:connector-curvature="0" style="fill:#2b0000;fill-opacity:1;fill-rule:nonzero;stroke:#f9f9f9;stroke-width:0.1;stroke-miterlimit:4;stroke-dasharray:none" transform="translate(-11264, -31744)"/><path d="m 12161.588,32145.654 c -2.03,41.674 -1.443,83.427 -1.11,125.133 0.06,52.489 2.489,104.892 8.421,157.042 3.714,30.57 9.404,60.839 15.415,91.024 4.395,14.523 3.381,26.354 1.534,41.497 -5.756,17.965 -90.446,-9.169 -84.69,-27.135 l 0,0 c -2.581,32.01 -0.354,10.695 -3.381,1.878 -5.742,-32.517 -11.437,-65.061 -15.095,-97.895 -5.721,-54.979 -8.145,-110.167 -8.451,-165.443 -0.62,-43.082 -1.354,-86.168 -0.971,-129.255 0.669,-18.737 88.997,-15.583 88.328,3.154 z" id="path10650" inkscape:connector-curvature="0" style="fill:#2b0000;fill-opacity:1;fill-rule:nonzero;stroke:#f9f9f9;stroke-width:0.1;stroke-miterlimit:4;stroke-dasharray:none" transform="translate(-11264, -31744)"/><path d="m 12143.167,32371.092 c -16.179,16.878 -29.297,36.289 -41.873,55.904 -13.653,21.614 -25.219,44.413 -36.257,67.44 -1.179,2.51 -2.365,5.016 -3.537,7.529 -9.343,20.027 2.091,-0.664 -1.268,-7.66 -6.276,-13.073 -16.995,-23.502 -25.493,-35.253 17.402,7.293 -16.978,89.327 -34.38,82.033 l 0,0 c -9.476,-12.16 -21.582,-22.668 -28.426,-36.482 -7.148,-14.426 8.891,-36.258 14.061,-48.964 12.934,-25.787 26.186,-51.444 41.583,-75.874 15.26,-23.832 31.331,-47.177 50.18,-68.36 12.661,-13.875 78.071,45.811 65.41,59.687 z" id="path10652" inkscape:connector-curvature="0" style="fill:#2b0000;fill-opacity:1;fill-rule:nonzero;stroke:#f9f9f9;stroke-width:0.1;stroke-miterlimit:4;stroke-dasharray:none" transform="translate(-11264, -31744)"/><path d="m 12215.54,32370.434 c 10.088,16.005 23.318,29.501 37.451,41.92 12.001,9.861 24.448,19.157 37.12,28.132 15.198,11.028 -36.788,82.671 -51.986,71.644 l 0,0 c -14.837,-11.002 -29.557,-22.179 -43.657,-34.12 -19.85,-17.874 -38.206,-37.308 -53.213,-59.509 -10.197,-15.759 64.089,-63.826 74.285,-48.067 z" id="path10654" inkscape:connector-curvature="0" style="fill:#c83737;fill-opacity:1;fill-rule:nonzero;stroke:#f9f9f9;stroke-width:0.10000000000000001;stroke-miterlimit:4;stroke-dasharray:none" transform="translate(-11264, -31744)"/></svg>