<?xml version="1.0" encoding="UTF-8" standalone="no"?>
<svg
   xmlns:dc="http://purl.org/dc/elements/1.1/"
   xmlns:cc="http://creativecommons.org/ns#"
   xmlns:rdf="http://www.w3.org/1999/02/22-rdf-syntax-ns#"
   xmlns:svg="http://www.w3.org/2000/svg"
   xmlns="http://www.w3.org/2000/svg"
   xmlns:sodipodi="http://sodipodi.sourceforge.net/DTD/sodipodi-0.dtd"
   xmlns:inkscape="http://www.inkscape.org/namespaces/inkscape"
   width="1024"
   height="1024"
   id="U56E2"
   version="1.1"
   inkscape:version="0.48.0 r9654"
   sodipodi:docname="U+56E2.svg">
  <metadata
     id="metadata13">
    <rdf:RDF>
      <cc:Work
         rdf:about="">
        <dc:format>image/svg+xml</dc:format>
        <dc:type
           rdf:resource="http://purl.org/dc/dcmitype/StillImage" />
      </cc:Work>
    </rdf:RDF>
  </metadata>
  <defs
     id="defs11" />
  <sodipodi:namedview
     pagecolor="#ffffff"
     bordercolor="#666666"
     borderopacity="1"
     objecttolerance="10"
     gridtolerance="10"
     guidetolerance="10"
     inkscape:pageopacity="0"
     inkscape:pageshadow="2"
     inkscape:window-width="640"
     inkscape:window-height="480"
     id="namedview9"
     showgrid="false"
     inkscape:zoom="0.27441406"
     inkscape:cx="512"
     inkscape:cy="512"
     inkscape:window-x="0"
     inkscape:window-y="25"
     inkscape:window-maximized="0"
     inkscape:current-layer="U56E2" />
  <path
     style="fill:#501616;fill-opacity:1;fill-rule:nonzero;stroke:#f9f9f9;stroke-width:0.1;stroke-miterlimit:4;stroke-dasharray:none"
     d="M 654.625 56.96875 C 631.24472 56.979695 607.77858 58.527875 584.3125 61.25 C 514.1406 69.576 443.68535 79.40775 376.21875 101.21875 C 333.18965 116.78075 288.5616 133.881 260.625 172.25 C 250.6736 188.173 325.7361 235.07825 335.6875 219.15625 C 354.0145 199.79925 381.4435 191.28875 405.75 182.34375 C 466.7866 162.33875 530.6724 153.48 594.25 146.125 C 645.4144 141.29 697.49495 139.80625 747.09375 154.78125 C 782.52105 170.26725 784.0625 205.19375 789.1875 239.59375 C 796.469 320.58675 788.28525 401.9075 781.96875 482.6875 C 775.20355 565.3615 769.40455 648.113 766.09375 731 C 763.28155 756.82583 766.70123 783.80005 764.1875 809.84375 C 714.58525 805.45065 664.72642 805.04269 614.84375 806.53125 C 541.48874 808.3531 468.1836 811.63969 395 816.875 C 395.2755 816.58305 395.50567 816.28866 395.71875 815.9375 C 407.02365 796.8875 418.225 777.767 428.9375 758.375 C 456.8237 707.994 483.11225 656.7415 510.90625 606.3125 C 522.24452 586.54254 533.60725 566.55116 547 548.0625 C 547.13022 579.62308 546.80462 611.1748 546.375 642.71875 C 545.3581 692.07975 544.05785 741.43025 542.65625 790.78125 C 542.38225 809.24025 629.38215 810.55275 629.65625 792.09375 C 629.71475 742.59275 630.52685 693.08975 631.15625 643.59375 C 631.569 582.82147 631.64591 521.98326 629.3125 461.25 C 647.4968 459.1392 665.7256 457.31785 683.96875 455.75 C 706.84755 454.092 729.77705 452.94125 752.71875 453.03125 C 771.38635 452.57425 769.2301 364.57325 750.5625 365.03125 C 725.6601 366.25225 700.7669 367.833 675.9375 370.125 C 658.68065 371.87062 641.43389 373.79038 624.21875 375.90625 C 623.83297 371.30632 623.42622 366.72282 623 362.125 C 616.8716 298.662 610.0882 235.04825 596.5625 172.65625 C 591.5938 154.57525 506.3438 178.01275 511.3125 196.09375 C 526.1903 253.19375 532.82765 312.078 539.03125 370.625 C 539.60679 376.40147 540.12413 382.15703 540.625 387.9375 C 510.92253 392.90742 481.35869 398.67467 451.96875 405.375 C 392.06705 419.765 331.55885 434.773 276.28125 462.75 C 260.21345 472.346 305.46335 548.096 321.53125 538.5 C 368.47995 513.439 420.7358 500.73275 472.0625 488.09375 C 476.21042 487.12584 480.37495 486.20493 484.53125 485.28125 C 466.1712 510.00251 450.75632 536.81239 435.6875 563.65625 C 408.2318 614.50025 381.9686 665.9505 353.625 716.3125 C 343.2883 734.7145 332.3234 752.7625 321.1875 770.6875 C 313.88697 782.71951 355.26511 811.74657 379.71875 818 C 367.3819 818.92927 355.04865 819.89217 342.71875 820.9375 C 293.45535 824.5385 243.699 829.945 194.3125 826.375 C 175.7876 823.288 161.2251 910.6005 179.75 913.6875 C 236.3045 917.3015 293.0582 910.41425 349.375 905.65625 C 438.281 897.23725 527.45495 892.891 616.71875 891.125 C 678.61475 889.809 740.58 891.057 801.6875 901.5 C 815.9205 904.111 829.85195 907.88325 843.65625 912.15625 C 861.53485 917.33525 885.9411 833.054 868.0625 827.875 C 861.90048 826.17901 855.7293 824.54162 849.53125 823 C 852.09702 793.46275 851.08122 763.70653 851.59375 733.9375 C 853.95875 652.2615 859.3124 570.7395 866.0625 489.3125 C 872.9956 402.0375 881.94165 314.2075 873.96875 226.6875 C 862.16995 150.3645 847.65185 101.50425 770.40625 71.28125 C 732.303 61.191875 693.59213 56.950508 654.625 56.96875 z M 184.15625 173.34375 C 177.15784 173.39501 172.13574 175.08725 170.8125 178.96875 C 155.6856 245.56775 158.9481 314.76725 160.9375 382.53125 C 164.9492 479.37525 172.76985 575.9795 180.71875 672.5625 C 185.46485 719.8555 188.1686 767.6215 199.375 813.9375 C 204.269 831.8635 288.769 808.77075 283.875 790.84375 C 270.6231 750.54875 271.35355 706.838 265.09375 665.25 C 256.43925 570.471 248.379 475.5875 245.1875 380.4375 C 244.0425 322.8915 241.5527 263.98975 254.4375 207.46875 C 259.16336 193.60625 209.15057 173.16069 184.15625 173.34375 z M 545.65625 473.25 C 545.80029 477.43957 545.91271 481.62195 546.03125 485.8125 C 542.1603 482.07325 538.04434 478.50991 533.9375 475.3125 C 537.83737 474.60505 541.75067 473.92355 545.65625 473.25 z "
     id="path12462" />
</svg>
