<?xml version="1.0" encoding="UTF-8" standalone="no"?>
<svg
   xmlns:dc="http://purl.org/dc/elements/1.1/"
   xmlns:cc="http://creativecommons.org/ns#"
   xmlns:rdf="http://www.w3.org/1999/02/22-rdf-syntax-ns#"
   xmlns:svg="http://www.w3.org/2000/svg"
   xmlns="http://www.w3.org/2000/svg"
   xmlns:sodipodi="http://sodipodi.sourceforge.net/DTD/sodipodi-0.dtd"
   xmlns:inkscape="http://www.inkscape.org/namespaces/inkscape"
   width="1024"
   height="1024"
   id="U56FE"
   version="1.1"
   inkscape:version="0.48.0 r9654"
   sodipodi:docname="U+56FE.svg">
  <metadata
     id="metadata15">
    <rdf:RDF>
      <cc:Work
         rdf:about="">
        <dc:format>image/svg+xml</dc:format>
        <dc:type
           rdf:resource="http://purl.org/dc/dcmitype/StillImage" />
      </cc:Work>
    </rdf:RDF>
  </metadata>
  <defs
     id="defs13" />
  <sodipodi:namedview
     pagecolor="#ffffff"
     bordercolor="#666666"
     borderopacity="1"
     objecttolerance="10"
     gridtolerance="10"
     guidetolerance="10"
     inkscape:pageopacity="0"
     inkscape:pageshadow="2"
     inkscape:window-width="640"
     inkscape:window-height="480"
     id="namedview11"
     showgrid="false"
     inkscape:zoom="0.27441406"
     inkscape:cx="512"
     inkscape:cy="512"
     inkscape:window-x="0"
     inkscape:window-y="25"
     inkscape:window-maximized="0"
     inkscape:current-layer="U56FE" />
  <path
     style="fill:#501616;fill-opacity:1;fill-rule:nonzero;stroke:#f9f9f9;stroke-width:0.1;stroke-miterlimit:4;stroke-dasharray:none"
     d="M 593.3125 67.75 C 526.07234 68.549 459.11184 74.97875 393.40625 89.84375 C 348.06529 100.37175 302.47169 112.20775 261.59375 135.21875 C 245.83489 145.39075 293.77239 219.70325 309.53125 209.53125 C 341.46659 191.15725 377.56418 182.201 413.09375 173.75 C 472.54643 159.985 533.20546 153.896 594.125 153.5 C 641.55981 153.904 687.74165 163.68125 732.4375 178.90625 C 739.57913 182.79925 774.2504 192.37925 775.3125 202.15625 C 783.63227 233.04125 785.98239 265.202 788.625 297 C 794.01223 383.879 793.71505 470.991 794.03125 558 C 794.18358 632.925 795.1934 707.85775 798.34375 782.71875 C 797.78861 812.08875 804.02998 841.901 801.21875 871.25 C 801.1323 870.381 801.05525 869.52525 800.96875 868.65625 C 799.37667 875.51094 810.50699 882.57757 825.25 887.8125 C 774.91961 891.96072 724.54335 895.57003 674.3125 900.84375 C 621.27535 906.92558 568.33449 913.88354 515.5625 921.875 C 530.38338 904.54069 542.03006 883.08538 534.53125 876.9375 L 520.125 865.1875 C 496.06203 845.5285 472.04135 825.6945 450.0625 803.6875 C 437.25869 789.9685 372.57119 850.3445 385.375 864.0625 C 409.97396 887.3091 436.0688 908.91735 462.25 930.34375 C 443.26134 933.49094 424.28519 936.73752 405.34375 940.1875 C 348.43567 950.0105 291.25432 961.38475 233.375 962.84375 C 214.66233 962.26575 211.94358 1050.4855 230.65625 1051.0625 C 294.46372 1047.8055 357.34911 1034.9923 420.09375 1023.6562 C 507.41414 1007.0963 595.4246 994.69725 683.75 985.03125 C 746.87786 978.76025 810.22205 975.44525 873.46875 970.65625 C 897.12376 968.91525 920.77834 966.785 944.5 966.25 C 948.64478 965.77366 971.64433 965.64885 951.96875 965.375 C 970.04878 964.48184 981.40223 879.69535 963.0625 877.15625 C 955.45199 876.92125 948.28189 876.9745 940.75 877.8125 C 923.23033 878.84508 905.7773 880.50712 888.3125 882.1875 L 889.4375 875.4375 C 890.26565 843.0455 885.75779 810.7685 884.40625 778.4375 C 880.18721 704.8975 878.73342 631.24975 878.34375 557.59375 C 877.8192 468.59275 878.30503 379.552 874.15625 290.625 C 870.88291 242.008 870.26905 189.889 844.125 147.125 C 819.5604 119.027 794.58767 108.168 759.6875 96.25 C 705.76416 78.964 650.19879 67.79 593.3125 67.75 z M 192.71875 163.625 C 186.47764 163.76847 182.01904 165.38502 180.71875 168.96875 C 166.74957 223.89975 169.0005 281.55225 169.21875 337.78125 C 170.25629 430.57225 175.53911 523.22225 179.71875 615.90625 C 181.92186 680.05025 184.5248 744.14275 193.65625 807.71875 C 196.4543 828.62275 201.3841 848.69575 209.21875 868.21875 C 216.76222 885.33175 297.44972 849.76925 289.90625 832.65625 C 282.76258 821.54725 283.40832 806.6895 279.5625 794.4375 C 269.47389 734.0665 266.75242 672.99225 264.125 611.90625 C 259.56552 520.66425 254.15645 429.39 254.15625 338 C 254.60225 291.795 253.27603 244.42625 263.875 199.15625 C 268.97615 185.09698 217.2031 163.06215 192.71875 163.625 z M 478.1875 190 C 476.18257 190.0043 474.49872 190.57612 473.25 191.8125 C 452.4666 216.41748 436.33 244.28321 421.6875 272.96875 C 413.40319 275.99213 405.23025 279.3582 397.21875 283.1875 C 390.58678 286.73619 393.33957 301.4034 400.0625 317.125 C 398.91984 319.49822 397.77022 321.88423 396.625 324.25 C 370.72298 379.251 344.68032 434.2245 320.90625 490.1875 C 315.00254 503.9545 309.7725 517.9685 304.71875 532.0625 C 298.96917 549.8775 382.93791 577.0015 388.6875 559.1875 C 392.02719 547.0145 396.15041 535.064 400.9375 523.375 C 407.55352 507.01249 414.44038 490.78398 421.53125 474.625 C 428.94967 480.87446 436.40808 487.061 443.90625 493.21875 C 455.45156 502.60142 467.21879 511.6958 479.0625 520.6875 C 468.94585 529.95299 458.45683 538.85387 447.625 547.34375 C 431.83175 558.91375 414.91637 569.99175 394.71875 569.34375 C 376.18822 570.75675 382.84448 658.13175 401.375 656.71875 C 441.16665 652.34775 470.23128 640.43725 501.75 615.28125 C 518.28568 601.93832 534.19279 587.89572 549.375 573.125 C 552.89801 575.76992 556.43063 578.39639 559.9375 581.0625 C 578.38581 595.9925 598.76898 610.63175 609.40625 632.46875 C 618.74876 648.55075 694.53001 604.5195 685.1875 588.4375 C 666.25986 557.8375 641.6127 532.85925 612.25 511.90625 C 610.59532 510.66049 608.93933 509.42883 607.28125 508.1875 C 609.21165 505.66497 611.11065 503.12123 613 500.5625 C 641.67244 461.1135 669.0065 420.331 687.34375 374.875 C 705.25979 319.843 699.19363 285.3475 642.96875 259.8125 C 608.43567 249.68214 572.92745 246.43378 537.25 248.90625 C 536.2607 231.08127 495.31038 189.96329 478.1875 190 z M 561.34375 335.0625 C 576.74434 334.9417 592.10383 336.26774 606.90625 340.3125 C 606.41456 341.5443 605.79768 343.36252 604.6875 346.03125 C 589.34139 383.51225 566.7308 417.20075 543.09375 449.84375 C 541.38977 452.14425 539.67989 454.42083 537.9375 456.6875 C 524.84631 446.77978 511.89247 436.72359 499.1875 426.3125 C 485.75194 415.1432 472.37883 403.85334 459.34375 392.21875 C 464.13106 382.11051 468.95627 372.02516 473.78125 361.9375 C 476.4347 356.55507 479.06944 351.14402 481.71875 345.71875 C 496.83204 341.92594 512.30972 339.34064 527.6875 337.125 C 538.7934 336.0135 550.07611 335.15088 561.34375 335.0625 z M 612.1875 341.875 C 613.65338 342.34653 615.10956 342.8444 616.5625 343.375 C 625.04615 350.74715 613.34511 342.86127 612.1875 341.875 z M 503.5625 648.84375 C 484.85391 649.2228 440.04198 709.50427 453.71875 720.0625 C 476.54248 736.5725 497.46714 755.51225 516.1875 776.53125 C 518.43272 779.47925 520.66103 782.427 522.90625 785.375 C 534.39907 799.988 603.30532 745.8005 591.8125 731.1875 C 588.22407 726.7195 584.61968 722.2815 581.03125 717.8125 C 558.49558 693.2375 533.95584 670.726 507.71875 650.125 C 506.5597 649.23031 505.14797 648.81163 503.5625 648.84375 z "
     id="path12434" />
</svg>
