<?xml version="1.0" encoding="UTF-8" standalone="no"?>
<svg
   xmlns:dc="http://purl.org/dc/elements/1.1/"
   xmlns:cc="http://creativecommons.org/ns#"
   xmlns:rdf="http://www.w3.org/1999/02/22-rdf-syntax-ns#"
   xmlns:svg="http://www.w3.org/2000/svg"
   xmlns="http://www.w3.org/2000/svg"
   xmlns:sodipodi="http://sodipodi.sourceforge.net/DTD/sodipodi-0.dtd"
   xmlns:inkscape="http://www.inkscape.org/namespaces/inkscape"
   width="1024"
   height="1024"
   id="U56E0"
   version="1.1"
   inkscape:version="0.48.0 r9654"
   sodipodi:docname="U+56E0.svg">
  <metadata
     id="metadata13">
    <rdf:RDF>
      <cc:Work
         rdf:about="">
        <dc:format>image/svg+xml</dc:format>
        <dc:type
           rdf:resource="http://purl.org/dc/dcmitype/StillImage" />
      </cc:Work>
    </rdf:RDF>
  </metadata>
  <defs
     id="defs11" />
  <sodipodi:namedview
     pagecolor="#ffffff"
     bordercolor="#666666"
     borderopacity="1"
     objecttolerance="10"
     gridtolerance="10"
     guidetolerance="10"
     inkscape:pageopacity="0"
     inkscape:pageshadow="2"
     inkscape:window-width="640"
     inkscape:window-height="480"
     id="namedview9"
     showgrid="false"
     inkscape:zoom="0.27441406"
     inkscape:cx="512"
     inkscape:cy="512"
     inkscape:window-x="0"
     inkscape:window-y="25"
     inkscape:window-maximized="0"
     inkscape:current-layer="U56E0" />
  <path
     style="fill:#2b1100;fill-opacity:1;fill-rule:nonzero;stroke:none"
     d="M 545.15625 200.90625 C 532.78998 200.9935 520.42539 201.3825 508.0625 202.125 C 447.48414 206.402 386.5817 212.99275 328.3125 230.96875 C 286.78485 245.76975 245.82162 263.54675 218.09375 299.46875 C 213.41321 306.23641 224.79942 319.71011 239.9375 331.40625 C 214.53553 324.13705 168.90997 325.40285 168.15625 338.84375 C 168.72634 383.86675 174.57257 428.59225 180.5 473.15625 C 189.78527 539.83725 206.8516 605.01325 223.40625 670.15625 C 232.45302 709.09425 244.65762 747.11 256.875 785.125 C 260.12165 795.412 258.29189 790.214 262.5 800.75 C 270.19762 817.904 351.04136 781.5915 343.34375 764.4375 C 343.17462 764.3575 343.01287 764.29875 342.84375 764.21875 C 341.95292 761.77975 341.07832 759.34525 340.1875 756.90625 C 327.49447 721.30225 315.58011 685.43925 306.6875 648.65625 C 290.53105 587.10725 274.0972 525.43575 265.78125 462.21875 C 260.93378 422.93775 255.93277 383.4765 256.5625 343.8125 C 256.58625 343.38888 256.53424 342.97192 256.46875 342.5625 C 271.66605 351.38387 286.47359 356.06887 290.84375 349.75 C 307.84614 329.845 333.43204 321.05875 357.34375 312.59375 C 408.09969 296.99875 461.17927 291.5445 513.9375 288.0625 C 558.3061 285.7105 602.70653 288.44525 646.78125 293.53125 C 670.38253 296.67725 694.61844 300.75475 714.5 314.59375 C 729.58295 328.57975 733.00565 350.66575 737.3125 369.84375 C 747.12542 422.24475 749.57642 475.70075 752.15625 528.84375 C 754.15712 582.97175 756.17422 637.08175 757.90625 691.21875 C 756.27059 697.64141 761.10573 724.10863 756.5625 730.875 C 758.11009 737.92994 765.98398 747.7294 775.9375 756.90625 C 719.55241 761.25616 663.4703 768.85273 608.28125 781.53125 C 536.80741 797.92325 465.98112 816.82975 394.8125 834.46875 C 358.04734 842.78375 320.89841 851.72025 283.0625 852.90625 C 264.32001 851.69125 258.60127 940.035 277.34375 941.25 C 323.76538 940.047 369.24442 928.87275 414.21875 918.21875 C 485.10667 899.86875 555.78577 880.80225 627.21875 864.65625 C 682.7302 852.09225 739.2348 845.3925 796 842.4375 C 815.00847 843.1695 834.78327 840.05875 853.59375 843.96875 C 872.17101 846.44475 883.82726 758.88225 865.25 756.40625 C 857.09172 755.53716 848.93322 755.04741 840.75 754.84375 C 847.89974 733.48754 845.21002 709.64129 844.875 687.59375 C 842.0997 633.34475 839.72509 579.1035 837.90625 524.8125 C 835.26003 466.6225 832.68412 408.12275 822.125 350.71875 C 812.41444 307.80075 799.12921 266.35575 761.03125 240.21875 C 728.80676 220.94675 693.72693 210.2655 656.21875 206.9375 C 619.31565 203.111 582.25505 200.6445 545.15625 200.90625 z M 756.5625 730.875 C 756.32424 729.78885 756.23736 728.75558 756.3125 727.8125 C 755.09444 730.97374 754.35138 733.15593 755.96875 731.59375 C 756.18006 731.38957 756.38188 731.144 756.5625 730.875 z M 493.125 327.34375 C 472.45167 327.70427 452.95576 332.22813 452.875 341.03125 C 453.6108 382.35225 445.79353 422.95475 437.46875 463.21875 C 434.52059 476.57659 431.41536 489.90668 428.15625 503.1875 C 391.38894 516.02283 354.94904 530.32868 322.125 551.5 C 307.16841 562.831 360.57466 633.331 375.53125 622 C 383.27067 616.97447 391.26393 612.43495 399.46875 608.28125 C 393.56178 628.1905 387.4488 648.04744 381.1875 667.84375 C 369.59134 700.39575 362.72414 735.0725 348.1875 766.5625 C 341.0924 783.8985 422.81115 817.36625 429.90625 800.03125 C 443.12937 765.19425 452.04053 728.83325 463.0625 693.28125 C 469.04138 673.71202 474.91435 654.1126 480.65625 634.46875 C 501.04665 651.11357 523.23996 665.48802 545.6875 679.25 C 580.72818 700.454 619.46359 713.73475 657.75 727.59375 C 655.38873 726.78475 689.83843 739.65275 683.0625 738.96875 C 698.01639 750.29775 751.42264 679.828 736.46875 668.5 C 721.10048 658.213 704.84297 650.50875 687.03125 645.21875 C 654.30039 633.78775 621.12106 622.912 591.1875 605 C 569.9228 591.96107 548.69645 578.42988 530.4375 561.34375 C 568.83245 550.67621 607.73322 541.85077 646.84375 534.1875 C 665.26328 531.0905 683.78702 527.98825 702.5 527.40625 C 704.64915 527.33919 706.78847 527.34027 708.9375 527.4375 C 707.70986 527.19175 706.47665 526.9387 705.25 526.6875 C 723.19566 526.31915 755.49626 452.62174 739.15625 445.25 C 733.45456 443.615 727.8899 441.45075 722.0625 440.34375 C 692.71116 434.76975 658.73641 446.91225 629.84375 449.65625 C 593.95619 457.0465 558.18347 465.13962 522.75 474.46875 C 532.13023 430.736 540.25566 386.69804 541.40625 341.84375 C 541.49778 331.86634 516.55477 326.93516 493.125 327.34375 z M 708.9375 527.4375 C 710.50121 527.75052 712.05101 528.05693 713.625 528.3125 C 714.41708 528.4405 712.14353 527.6275 711.34375 527.5625 C 710.54664 527.49743 709.73683 527.47366 708.9375 527.4375 z M 757.65625 724.3125 C 756.86791 725.2825 756.45813 726.44695 756.34375 727.75 C 756.7551 726.68398 757.20498 725.48525 757.65625 724.3125 z "
     id="path12540" />
</svg>
