<?xml version="1.0" encoding="UTF-8" standalone="no"?>
<svg
   xmlns:dc="http://purl.org/dc/elements/1.1/"
   xmlns:cc="http://creativecommons.org/ns#"
   xmlns:rdf="http://www.w3.org/1999/02/22-rdf-syntax-ns#"
   xmlns:svg="http://www.w3.org/2000/svg"
   xmlns="http://www.w3.org/2000/svg"
   xmlns:sodipodi="http://sodipodi.sourceforge.net/DTD/sodipodi-0.dtd"
   xmlns:inkscape="http://www.inkscape.org/namespaces/inkscape"
   width="1024"
   height="1024"
   id="U56ED"
   version="1.1"
   inkscape:version="0.48.0 r9654"
   sodipodi:docname="U+56ED.svg">
  <metadata
     id="metadata14">
    <rdf:RDF>
      <cc:Work
         rdf:about="">
        <dc:format>image/svg+xml</dc:format>
        <dc:type
           rdf:resource="http://purl.org/dc/dcmitype/StillImage" />
      </cc:Work>
    </rdf:RDF>
  </metadata>
  <defs
     id="defs12" />
  <sodipodi:namedview
     pagecolor="#ffffff"
     bordercolor="#666666"
     borderopacity="1"
     objecttolerance="10"
     gridtolerance="10"
     guidetolerance="10"
     inkscape:pageopacity="0"
     inkscape:pageshadow="2"
     inkscape:window-width="640"
     inkscape:window-height="480"
     id="namedview10"
     showgrid="false"
     inkscape:zoom="0.27441406"
     inkscape:cx="512"
     inkscape:cy="512"
     inkscape:window-x="0"
     inkscape:window-y="25"
     inkscape:window-maximized="0"
     inkscape:current-layer="U56ED" />
  <path
     style="fill:#2b1100;fill-opacity:1;fill-rule:nonzero;stroke:none"
     d="M 534.21875 120.40625 C 513.27481 120.47671 492.32094 121.14819 471.40625 122.65625 C 420.07695 126.43325 368.9222 131.79825 317.6875 136.65625 C 283.5812 139.85925 249.25585 142.47525 215.71875 149.78125 C 207.73088 151.90659 207.67386 169.68741 211.65625 188.5 C 187.60486 180.3599 135.32636 182.85982 135.09375 197.28125 C 135.65425 235.90225 136.283 274.512 137.25 313.125 C 139.1481 376.769 141.4125 440.38925 143.375 504.03125 C 144.8268 568.09125 146.7255 632.13725 149.4375 696.15625 C 151.6533 734.71725 151.4222 773.4035 154.0625 811.9375 C 157.3197 841.4045 163.7946 841.21225 188.25 862.15625 C 190.43355 862.98658 192.82012 862.4244 195.3125 860.8125 C 200.81127 877.79469 208.81443 891.49371 216.375 889.65625 C 250.233 880.44725 284.43575 872.642 318.78125 865.5 C 375.78275 853.83 433.75295 848.56175 491.65625 843.84375 C 549.24935 839.02275 606.93385 835.79225 664.71875 837.78125 C 701.03515 839.22725 736.85505 845.4055 772.65625 851.1875 C 777.85496 852.07464 783.08343 852.80954 788.3125 853.4375 C 809.75215 867.77416 840.54501 879.31585 845.96875 869.28125 C 850.65655 859.79825 854.5431 850.05625 856.75 839.65625 C 861.7709 818.69425 866.2087 797.578 868.5625 776.125 C 872.1963 743.752 874.59815 711.26275 877.78125 678.84375 C 882.55765 630.39375 887.4278 581.93425 893.75 533.65625 C 900.1345 485.45025 907.4433 437.34525 911.875 388.90625 C 914.5991 351.69825 916.172 314.271 911.5625 277.125 C 907.538 249.647 901.5116 222.578 883.3125 200.625 C 865.9672 181.369 845.6675 165.9815 820.9375 157.3125 C 791.8874 147.1765 762.04275 139.4615 731.71875 134.1875 C 693.04555 128.2015 654.03355 124.76125 614.96875 122.53125 C 588.06983 121.20094 561.14667 120.31566 534.21875 120.40625 z M 535.78125 207 C 560.70314 207.04624 585.64304 208.01963 610.53125 209.34375 C 646.51345 211.54675 682.43935 214.67875 718.03125 220.46875 C 742.92835 225.14575 767.5919 231.33075 791.375 240.09375 C 801.4779 243.95175 810.0951 250.0265 816.6875 258.5625 C 822.0573 268.0455 823.09825 279.287 824.65625 289.875 C 828.59915 320.71 827.23955 351.81775 825.09375 382.71875 C 821.00025 429.45375 814.1536 475.873 808.0625 522.375 C 801.7305 571.491 796.63245 620.758 791.40625 670 C 788.03203 701.30432 785.37561 732.67798 781.59375 763.9375 C 756.59623 760.23521 731.58112 756.47386 706.4375 754 C 709.76181 753.94419 713.08197 753.89023 716.40625 753.84375 C 728.05205 753.71375 739.69735 753.6475 751.34375 753.6875 C 770.15175 753.4445 769.02685 664.78825 750.21875 665.03125 C 738.40485 665.38125 726.5656 665.6505 714.75 665.9375 C 689.8438 666.5215 664.94665 667.275 640.03125 666.75 C 624.63738 666.33459 609.21225 665.92304 593.90625 664.25 C 593.23715 638.44994 595.63337 612.59127 593.375 586.8125 C 591.1946 560.8065 587.71635 534.9635 585.78125 508.9375 C 585.71223 508.00962 585.41191 507.14896 584.9375 506.34375 C 586.1766 506.12973 587.41663 505.89894 588.65625 505.6875 C 625.77025 499.7935 663.17595 495.704 700.78125 496.25 C 702.52385 496.191 715.03095 498.4535 715.40625 498.5625 C 733.39765 503.8805 758.46005 419.068 740.46875 413.75 C 727.41085 410.608 714.51385 408.25025 700.96875 408.65625 C 658.32815 408.97725 615.9121 413.497 573.875 420.625 C 516.5445 430.731 459.7297 443.28825 403.3125 457.65625 C 364.639 467.39825 326.10745 478.26175 286.71875 484.71875 C 268.17815 487.46075 281.0843 574.867 299.625 572.125 C 325.13745 567.10206 350.37409 560.77341 375.53125 554.1875 C 374.96167 555.45542 374.41519 556.73306 373.84375 558 C 357.92325 593.223 342.568 628.719 327.0625 664.125 C 318.1327 684.103 309.21625 704.01225 303.90625 725.28125 C 300.03355 743.63825 386.5649 761.88825 390.4375 743.53125 C 389.5336 729.80325 404.6074 712.05875 407.1875 698.84375 C 422.2383 663.77375 437.2528 628.71 453.125 594 C 463.43286 571.41243 473.29901 548.52782 484.78125 526.5 C 489.32283 525.45876 493.85763 524.41493 498.40625 523.40625 C 501.04225 546.96486 504.14146 570.46464 506.09375 594.09375 C 507.70785 619.56475 505.5955 645.04525 506.0625 670.53125 C 508.261 708.41725 524.5752 730.2315 558.5625 745.9375 C 567.95606 748.91386 577.5583 750.76694 587.25 751.96875 C 553.06154 753.19384 518.87763 755.54012 484.75 758.40625 C 423.4036 763.30525 361.99925 768.76725 301.53125 780.65625 C 281.18901 784.69613 260.93422 789.0387 240.6875 793.5 C 237.80374 759.84745 237.91664 725.92796 235.46875 692.25 C 232.38755 628.674 230.35425 565.0725 228.90625 501.4375 C 226.99925 438.0795 224.97455 374.71775 223.65625 311.34375 C 223.17942 281.51874 222.78473 251.67347 223.125 221.84375 C 227.93729 230.93936 233.37724 236.69846 238.46875 235.34375 C 267.21135 228.42175 296.8481 226.161 326.1875 223.125 C 376.6325 217.858 427.06085 212.4245 477.65625 208.8125 C 497.01781 207.49737 516.39755 206.96404 535.78125 207 z M 561.84375 289.90625 C 516.8607 289.88772 471.89973 292.48112 427.375 299.34375 C 386.9384 305.95775 346.81155 314.0595 307.21875 324.6875 C 289.22845 329.9625 314.0722 414.775 332.0625 409.5 C 367.8454 398.338 404.61505 390.92775 441.53125 384.71875 C 487.11795 377.58475 533.22375 375.7105 579.28125 376.9375 C 605.25475 377.7785 630.8725 382.10775 656.5625 385.59375 C 664.9629 386.72075 660.90865 386.23175 668.71875 387.09375 C 687.45115 388.75875 695.2949 300.44725 676.5625 298.78125 C 671.4349 298.52625 674.49975 298.74725 667.40625 298.03125 C 638.69345 294.87025 610.0716 290.5685 581.125 290.0625 C 574.6987 289.95725 568.2699 289.9089 561.84375 289.90625 z M 223.28125 782.4375 C 230.43964 789.03758 234.62771 791.65587 237.34375 794.25 C 233.11595 795.18486 228.88198 796.11741 224.65625 797.0625 C 225.31781 790.87288 224.98053 785.69114 223.28125 782.4375 z "
     id="path13495" />
</svg>
