<?xml version="1.0" encoding="utf-8" ?>

<!DOCTYPE svg PUBLIC "-//W3C//DTD SVG 1.1//EN" 
  "http://www.w3.org/Graphics/SVG/1.1/DTD/svg11.dtd">
<svg 
    xmlns="http://www.w3.org/2000/svg"
    xmlns:xlink="http://www.w3.org/1999/xlink"
    xmlns:sodipodi="http://sodipodi.sourceforge.net/DTD/sodipodi-0.dtd"
    xmlns:inkscape="http://www.inkscape.org/namespaces/inkscape"
    width="1024" height="1024" id="U575A">
<path d="m 10522.945,21760.207 c -0.51,32.241 -0.864,64.488 -0.63,96.733 0.479,21.474 0.916,43.395 7.703,63.97 5.282,18.139 -80.227,43.041 -85.509,24.901 l 0,0 c -7.881,-28.847 -10.748,-58.513 -10.455,-88.412 -0.105,-32.186 0.454,-64.379 -0.37,-96.559 -0.134,-18.935 89.127,-19.568 89.261,-0.633 z" id="path8713" inkscape:connector-curvature="0" style="fill:#550000;fill-opacity:1;fill-rule:nonzero;stroke:#f9f9f9;stroke-width:0.1;stroke-miterlimit:4;stroke-dasharray:none" transform="translate(-10240, -21504)"/><path d="m 10663.899,21632.558 c 0.692,43.186 0.629,86.377 0.633,129.567 -0.173,56.214 1.073,112.413 4.285,168.534 1.223,16.739 2.37,33.496 4.331,50.169 0.371,3.156 0.754,6.313 1.274,9.448 0.245,1.473 0.64,5.808 1.018,4.363 0.43,-1.644 -0.563,-3.353 -0.844,-5.029 6.839,17.74 -76.788,49.98 -83.627,32.24 l 0,0 c -8.241,-28.102 -7.301,-57.728 -9.601,-86.731 -2.59,-57.521 -3.695,-115.085 -3.852,-172.664 -0.315,-42.023 -0.399,-84.083 -2.928,-126.047 -0.816,-18.946 88.494,-22.795 89.311,-3.85 z" id="path8715" inkscape:connector-curvature="0" style="fill:#550000;fill-opacity:1;fill-rule:nonzero;stroke:#f9f9f9;stroke-width:0.1;stroke-miterlimit:4;stroke-dasharray:none" transform="translate(-10240, -21504)"/><path d="m 10751.827,21651.666 c 33.1,-0.296 66.189,-1.245 99.289,-1.538 33.188,-0.587 66.201,2.774 99.033,7.217 16.763,2.869 37.062,3.065 50.47,15.352 6.001,5.499 10.209,12.679 15.313,19.019 1.648,8.062 4.644,15.963 4.943,24.186 0.874,24.031 -18.527,47.555 -31.008,66.31 -24.427,35.92 -49.727,71.234 -75.142,106.457 -25.536,35.301 -51.322,70.415 -78.686,104.326 -17.173,17.935 -32.975,43.789 -57.652,52.661 -7.289,2.62 -15.117,3.384 -22.676,5.076 -18.936,1.179 -24.496,-88.088 -5.559,-89.267 l 0,0 c -3.904,1.464 -7.939,2.618 -11.712,4.393 -0.478,0.225 -1.169,1.628 -0.677,1.434 12.829,-5.037 19.86,-21.753 29.929,-29.981 26.597,-32.302 51.465,-65.946 76.011,-99.824 24.597,-34.174 48.981,-68.512 72.061,-103.736 6.059,-9.449 7.136,-10.969 12.489,-19.834 1.062,-1.76 3.349,-7.191 3.411,-5.137 0.519,17.195 -3.58,-2.69 4.507,23.855 4.043,4.271 7.567,9.102 12.13,12.814 2.247,1.828 5.235,2.498 7.946,3.518 0.397,0.149 1.663,0.109 1.27,-0.05 -6.271,-2.548 -13.634,-1.674 -20.037,-3.619 -28.325,-4.356 -56.842,-7.69 -85.565,-7.146 -32.365,0.301 -64.735,1.173 -97.06,2.847 -18.95,0.642 -21.978,-88.69 -3.028,-89.332 z" id="path8717" inkscape:connector-curvature="0" style="fill:#550000;fill-opacity:1;fill-rule:nonzero;stroke:#f9f9f9;stroke-width:0.1;stroke-miterlimit:4;stroke-dasharray:none" transform="translate(-10240, -21504)"/><path d="m 10766.576,21730.048 c 26.915,21.262 55.579,40.199 83.579,59.988 35.89,25.399 70.558,52.434 104.406,80.48 22.108,18.606 43.571,37.971 64.245,58.157 7.761,8.027 3.822,3.57 11.647,13.521 10.921,15.557 -62.416,67.039 -73.337,51.482 l 0,0 c 2.928,2.57 2.245,2.104 -1.395,-2.052 -18.208,-18.836 -37.621,-36.467 -57.5,-53.519 -31.845,-26.716 -64.58,-52.344 -98.592,-76.262 -29.729,-20.823 -60.027,-40.838 -89.237,-62.391 -14.722,-11.919 41.461,-81.322 56.184,-69.404 z" id="path8719" inkscape:connector-curvature="0" style="fill:#550000;fill-opacity:1;fill-rule:nonzero;stroke:#f9f9f9;stroke-width:0.1;stroke-miterlimit:4;stroke-dasharray:none" transform="translate(-10240, -21504)"/><path d="m 10595.581,22131.143 c 31.179,4.137 62.599,5.988 93.993,7.533 43.944,1.676 87.923,1.813 131.879,3.046 22.604,0.781 45.202,1.833 67.608,5.016 18.692,3.054 4.293,91.169 -14.399,88.115 l 0,0 c -18.435,-3.734 -37.363,-3.937 -56.067,-5.2 -44.328,-1.648 -88.684,-1.782 -133.017,-3.241 -33.513,-1.411 -66.995,-3.342 -100.398,-6.46 -18.839,-2.207 -8.438,-91.016 10.401,-88.809 z" id="path8727" inkscape:connector-curvature="0" style="fill:#550000;fill-opacity:1;fill-rule:nonzero;stroke:#f9f9f9;stroke-width:0.1;stroke-miterlimit:4;stroke-dasharray:none" transform="translate(-10240, -21504)"/><path d="m 10778.912,22039.08 c -4.917,40.69 -6.322,81.716 -7.712,122.648 -1.481,47.961 -1.024,95.946 -1.085,143.921 -0.105,5.728 -0.209,11.456 -0.314,17.184 -0.509,18.732 -88.81,16.329 -88.3,-2.402 l 0,0 c 0.192,-5.167 0.384,-10.334 0.576,-15.502 0.741,-48.644 0.55,-97.302 1.91,-145.937 1.256,-43.492 2.743,-87 6.298,-130.375 2.219,-18.801 90.846,-8.338 88.627,10.463 z" id="path8729" inkscape:connector-curvature="0" style="fill:#550000;fill-opacity:1;fill-rule:nonzero;stroke:#f9f9f9;stroke-width:0.1;stroke-miterlimit:4;stroke-dasharray:none" transform="translate(-10240, -21504)"/><path d="m 10434.586,22299.352 c 46.584,1.639 93.182,0.229 139.745,-1.28 76.611,-3.513 153.226,-6.594 229.911,-7.735 54.921,-0.679 109.838,0.383 164.749,1.275 12.6,0.159 25.196,0.334 37.791,0.71 18.865,0.8 15.091,89.73 -3.774,88.929 l 0,0 c -12.096,-0.689 -24.201,-1.14 -36.31,-1.563 -53.764,-1.928 -107.553,-3.557 -161.36,-3.159 -75.978,0.797 -151.876,3.883 -227.74,8.091 -47.653,2.049 -95.31,3.72 -143.012,4.001 -18.936,0 -18.936,-89.269 0,-89.269 z" id="path8731" inkscape:connector-curvature="0" style="fill:#550000;fill-opacity:1;fill-rule:nonzero;stroke:#f9f9f9;stroke-width:0.1;stroke-miterlimit:4;stroke-dasharray:none" transform="translate(-10240, -21504)"/></svg>