<?xml version="1.0" encoding="utf-8" ?>

<!DOCTYPE svg PUBLIC "-//W3C//DTD SVG 1.1//EN" 
  "http://www.w3.org/Graphics/SVG/1.1/DTD/svg11.dtd">
<svg 
	xmlns="http://www.w3.org/2000/svg"
	xmlns:xlink="http://www.w3.org/1999/xlink"
	width="1024" height="1024">
<path d="m 4243.0831,2275.8084 c 38.9603,-0.5386 77.9099,-1.8296 116.8509,-3.1515 43.2628,-2.099 86.5756,-2.1599 129.8691,-2.9777 3.5911,-0.1955 7.1822,-0.3909 10.7732,-0.5864 20.9135,-0.7601 24.4968,97.8269 3.5834,98.587 l 0,0 c -4.5297,0.1 -9.0593,0.1994 -13.5889,0.2991 -42.3628,-0.1192 -84.7368,-0.4426 -127.0608,1.8614 -39.3354,1.5588 -78.6855,2.8876 -117.9875,5.1698 -21.0439,0.5175 -23.4832,-98.6843 -2.4394,-99.2017 z" id="path3737" inkscape:connector-curvature="0" style="fill:#aa0000;fill-opacity:1;fill-rule:nonzero;stroke:#f9f9f9;stroke-width:0.1;stroke-miterlimit:4;stroke-dasharray:none" transform="translate(-4096, -2048)"/><path d="m 4473.0739,2211.6176 c -12.5237,34.4917 -15.4323,71.5947 -18.9219,107.8461 -5.3449,66.7108 -6.701,133.6516 -8.1376,200.5346 -0.5371,25.5894 -1.0928,51.1758 -1.8751,76.7587 -0.8531,20.6949 -98.41,16.6733 -97.5569,-4.0217 l 0,0 c 1.3143,-25.0516 2.3055,-50.1132 3.0314,-75.1898 2.0276,-68.9675 3.3975,-137.9895 8.1378,-206.84 3.9728,-46.2113 8.0863,-93.0356 23.6397,-137.0825 8.0598,-19.4488 99.7424,18.5458 91.6826,37.9946 z" id="path3739" inkscape:connector-curvature="0" style="fill:#aa0000;fill-opacity:1;fill-rule:nonzero;stroke:#f9f9f9;stroke-width:0.1;stroke-miterlimit:4;stroke-dasharray:none" transform="translate(-4096, -2048)"/><path d="m 4219.645,2513.6994 c 32.822,-21.1634 68.0243,-38.0832 103.6183,-53.9678 45.5226,-20.1099 92.9042,-35.3378 140.7452,-48.7948 18.4262,-5.0171 36.979,-9.5448 55.5583,-13.953 20.4784,-4.5722 42.032,91.9641 21.5536,96.5363 l 0,0 c -17.1393,3.5705 -34.2496,7.2955 -51.2083,11.6577 -43.1791,11.565 -85.8602,25.0861 -126.7253,43.3815 -30.2196,13.6913 -60.3732,28.0381 -87.5858,47.2089 -17.4094,11.87 -73.3654,-70.1987 -55.956,-82.0688 z" id="path3741" inkscape:connector-curvature="0" style="fill:#aa0000;fill-opacity:1;fill-rule:nonzero;stroke:#f9f9f9;stroke-width:0.1;stroke-miterlimit:4;stroke-dasharray:none" transform="translate(-4096, -2048)"/><path d="m 4569.4518,2291.2127 c 39.3713,-5.0843 79.0495,-6.9164 118.7082,-7.6936 36.7944,-0.1962 73.695,0.6828 110.1757,5.7339 51.3703,10.6141 67.656,40.3681 63.637,90.6641 -5.9995,30.7468 -12.9154,61.2011 -16.4871,92.3566 -2.3659,21.8419 -2.137,43.7756 1.812,65.3836 1.8739,7.3236 3.4531,14.8786 6.7114,21.7489 7.6616,19.6847 -85.133,55.8019 -92.7947,36.1172 l 0,0 c -4.9552,-13.5994 -8.8807,-27.5574 -11.4604,-41.8133 -4.7396,-30.8182 -5.4734,-61.9351 -1.7531,-92.9541 3.7322,-30.8496 9.5036,-61.286 15.7448,-91.716 0.2771,-0.7571 0.2164,-2.7924 0.8313,-2.2711 1.2884,1.0923 1.072,3.2419 1.9878,4.6612 2.4535,3.8023 4.7943,7.7934 8.066,10.9197 3.3558,3.2067 14.3174,10.243 12.5983,5.9316 -0.5061,-1.2693 -2.5453,-0.9951 -3.818,-1.4926 -30.7615,-5.4263 -62.2512,-5.3045 -93.3863,-5.6573 -34.7271,0.6441 -69.5916,2.051 -103.8999,7.8458 -20.739,3.5369 -37.412,-94.2277 -16.673,-97.7646 z" id="path3743" inkscape:connector-curvature="0" style="fill:#aa0000;fill-opacity:1;fill-rule:nonzero;stroke:#f9f9f9;stroke-width:0.1;stroke-miterlimit:4;stroke-dasharray:none" transform="translate(-4096, -2048)"/><path d="m 4769.2973,2221.7903 c -21.406,32.2886 -36.5069,68.3474 -52.0553,103.6893 -22.9554,53.9008 -44.1415,108.5331 -64.9779,163.2807 -10.9468,28.5064 -21.4338,57.1944 -29.6733,86.6098 -2.4185,9.4494 -4.588,18.9872 -6.058,28.6354 -3.8071,20.8013 -101.8653,2.8547 -98.0583,-17.9466 l 0,0 c 2.6107,-12.907 5.5702,-25.7502 9.252,-38.3982 9.6424,-31.9232 21.4756,-63.0874 33.8891,-94.0292 21.9645,-55.6903 43.9001,-111.3984 66.8898,-166.6756 17.9735,-41.9286 35.6382,-84.3854 60.1173,-123.0409 12.2772,-17.1137 92.9518,40.7616 80.6746,57.8753 z" id="path3745" inkscape:connector-curvature="0" style="fill:#aa0000;fill-opacity:1;fill-rule:nonzero;stroke:#f9f9f9;stroke-width:0.1;stroke-miterlimit:4;stroke-dasharray:none" transform="translate(-4096, -2048)"/><path d="m 4556.8833,2392.8791 c 26.1388,18.8912 54.5724,34.2876 82.9455,49.4968 28.6825,14.6536 57.0781,29.8056 84.8592,46.1045 2.8121,1.6763 5.6241,3.3527 8.4361,5.029 17.9077,10.9554 -33.7366,95.373 -51.6443,84.4176 l 0,0 c -2.5264,-1.5895 -5.0527,-3.1791 -7.579,-4.7686 -26.0987,-16.0376 -53.0355,-30.5629 -80.284,-44.5521 -32.2872,-17.2992 -64.3984,-35.0251 -94.8886,-55.3814 -17.0439,-12.3365 41.1111,-92.6824 58.1551,-80.3458 z" id="path3747" inkscape:connector-curvature="0" style="fill:#aa0000;fill-opacity:1;fill-rule:nonzero;stroke:#f9f9f9;stroke-width:0.1;stroke-miterlimit:4;stroke-dasharray:none" transform="translate(-4096, -2048)"/><path d="m 4350.9676,2734.6356 c 48.0891,-5.419 96.5902,-5.4715 144.9195,-6.292 61.0541,-0.9117 122.0789,-3.2017 182.9585,-7.9331 27.3731,-2.4087 54.6642,-5.9468 81.5034,-11.8933 20.5663,-4.061 39.71,92.8896 19.1436,96.9506 l 0,0 c -30.9774,5.553 -62.2338,9.3435 -93.6242,11.6466 -62.5795,4.245 -125.2607,6.4962 -187.968,7.8147 -43.882,1.0876 -88.0849,1.1951 -131.5823,7.6571 -20.7785,3.2563 -36.1289,-94.6943 -15.3505,-97.9506 z" id="path3761" inkscape:connector-curvature="0" style="fill:#aa0000;fill-opacity:1;fill-rule:nonzero;stroke:#f9f9f9;stroke-width:0.1;stroke-miterlimit:4;stroke-dasharray:none" transform="translate(-4096, -2048)"/><path d="m 4603.0939,2682.1562 c -7.2944,31.3381 -11.0935,63.3346 -14.5303,95.2806 -3.5825,34.3536 -4.6607,68.8746 -4.2567,103.3903 0.5041,12.682 0.2001,6.6467 0.877,18.1076 0.9157,20.9809 -97.989,25.2976 -98.9047,4.3167 l 0,0 c -0.4365,-14.0709 -0.2624,-6.6301 -0.4809,-22.3232 0.3304,-37.9834 1.7936,-75.959 5.6053,-113.7703 3.715,-35.6724 8.1039,-71.2807 14.7515,-106.5436 4.5697,-20.5639 101.5085,0.9781 96.9388,21.5419 z" id="path3767" inkscape:connector-curvature="0" style="fill:#aa0000;fill-opacity:1;fill-rule:nonzero;stroke:#f9f9f9;stroke-width:0.1;stroke-miterlimit:4;stroke-dasharray:none" transform="translate(-4096, -2048)"/><path d="m 4195.6477,2922.5258 c 57.1502,-5.1075 114.4708,-8.0682 171.757,-11.1738 88.4379,-4.4531 176.9356,-7.5647 265.4205,-10.9061 71.2769,-3.4642 142.5642,-5.186 213.7908,-0.2987 33.2445,3.1062 66.3932,7.997 98.9354,15.5293 20.3997,5.0693 -3.497,101.2342 -23.8966,96.165 l 0,0 c -26.9426,-7.406 -54.7292,-11.643 -82.4281,-14.9592 -67.5544,-5.7552 -135.2676,-4.1941 -202.9523,-1.2509 -87.7563,3.0459 -175.5343,5.8911 -263.192,11.1696 -54.998,3.5658 -110.1462,6.6863 -164.7958,14.027 -20.8531,2.6811 -33.492,-95.6211 -12.6389,-98.3022 z" id="path3769" inkscape:connector-curvature="0" style="fill:#aa0000;fill-opacity:1;fill-rule:nonzero;stroke:#f9f9f9;stroke-width:0.1;stroke-miterlimit:4;stroke-dasharray:none" transform="translate(-4096, -2048)"/></svg>