<?xml version="1.0" encoding="UTF-8" standalone="no"?>
<svg
   xmlns:dc="http://purl.org/dc/elements/1.1/"
   xmlns:cc="http://creativecommons.org/ns#"
   xmlns:rdf="http://www.w3.org/1999/02/22-rdf-syntax-ns#"
   xmlns:svg="http://www.w3.org/2000/svg"
   xmlns="http://www.w3.org/2000/svg"
   xmlns:sodipodi="http://sodipodi.sourceforge.net/DTD/sodipodi-0.dtd"
   xmlns:inkscape="http://www.inkscape.org/namespaces/inkscape"
   width="1024"
   height="1024"
   id="U5706"
   version="1.1"
   inkscape:version="0.48.0 r9654"
   sodipodi:docname="U+5706.svg">
  <metadata
     id="metadata17">
    <rdf:RDF>
      <cc:Work
         rdf:about="">
        <dc:format>image/svg+xml</dc:format>
        <dc:type
           rdf:resource="http://purl.org/dc/dcmitype/StillImage" />
      </cc:Work>
    </rdf:RDF>
  </metadata>
  <defs
     id="defs15" />
  <sodipodi:namedview
     pagecolor="#ffffff"
     bordercolor="#666666"
     borderopacity="1"
     objecttolerance="10"
     gridtolerance="10"
     guidetolerance="10"
     inkscape:pageopacity="0"
     inkscape:pageshadow="2"
     inkscape:window-width="640"
     inkscape:window-height="480"
     id="namedview13"
     showgrid="false"
     inkscape:zoom="0.27441406"
     inkscape:cx="512"
     inkscape:cy="512"
     inkscape:window-x="0"
     inkscape:window-y="25"
     inkscape:window-maximized="0"
     inkscape:current-layer="U5706" />
  <path
     style="fill:#2b1100;fill-opacity:1;fill-rule:nonzero;stroke:none"
     d="M 472.46875 101.375 C 458.90061 101.40667 445.30122 101.75125 431.71875 102.5 C 378.30825 105.156 324.97 109.31075 272 116.84375 C 237.5891 121.97775 203.0678 127.5465 170.0625 138.9375 C 158.52661 143.33241 168.19269 180.60748 181.15625 203.71875 C 156.51782 196.50857 123.91114 194.73679 121.75 205.875 C 115.1101 255.109 118.72995 305.04875 121.03125 354.46875 C 125.31175 432.56675 128.8283 510.71025 130.5625 588.90625 C 131.5797 651.50525 130.45655 714.0875 130.28125 776.6875 C 130.14245 804.0785 130.32645 831.439 134.84375 858.5 C 138.35215 876.877 224.97715 860.34575 221.46875 841.96875 C 216.20155 820.58375 218.12485 798.13575 216.84375 776.34375 C 216.15435 713.18975 216.8371 650.023 215.5625 586.875 C 213.5922 508.196 210.0446 429.59275 206.5625 350.96875 C 205.0635 308.34575 202.0884 265.06575 208.5 222.71875 C 208.72141 221.57768 208.58791 220.43348 208.15625 219.3125 C 233.06419 210.85383 259.24276 206.8316 285.15625 202.75 C 335.15615 195.221 385.56025 191.13075 436.03125 188.59375 C 485.38975 185.83275 534.64255 188.869 583.59375 195.125 C 619.00025 199.8 653.85885 207.432 688.09375 217.5 C 711.62105 224.443 732.9238 236.15225 753.0625 249.90625 C 769.3152 261.86125 785.53755 274.00725 800.53125 287.53125 C 810.50505 295.86425 815.2004 306.04825 817.875 318.40625 C 822.5263 351.44625 817.8022 384.8715 813.5625 417.6875 C 804.981 474.3885 794.14195 530.72275 783.65625 587.09375 C 773.58805 639.95475 764.25255 692.9345 754.96875 745.9375 C 749.6534 775.29007 744.88605 804.77604 738.15625 833.84375 C 699.72571 833.33995 661.27082 833.07894 622.84375 832.3125 C 602.96533 831.93585 583.07562 831.47627 563.1875 831.15625 C 583.54919 814.29041 605.79405 783.35631 596.6875 775.125 C 580.903 761.308 563.77255 749.20175 544.40625 740.84375 C 520.15665 731.04675 495.10645 724.0855 470.09375 716.5625 C 452.27395 710.6745 424.52395 794.6745 442.34375 800.5625 C 465.44945 807.0965 488.7882 812.593 510.9375 822 C 516.10525 824.47378 520.98905 827.41745 525.59375 830.75 C 498.50804 830.68108 471.43238 831.15383 444.375 832.71875 C 381.8177 836.65675 319.4765 843.27925 257.75 854.40625 C 216.9329 861.36425 176.0827 868.25225 135.6875 877.40625 C 117.5756 882.31725 140.73185 967.69325 158.84375 962.78125 C 196.25245 952.76525 234.49955 946.2345 272.59375 939.4375 C 331.14255 928.4805 390.31115 922.08625 449.71875 918.40625 C 506.78835 915.22125 563.9712 917.29875 621.0625 918.59375 C 666.7063 919.67675 712.3565 920.1065 758 921.1875 C 780.2655 921.7265 802.41225 923.80525 824.46875 926.78125 C 843.00165 929.07425 853.81415 841.69925 835.28125 839.40625 C 832.43589 839.08177 829.5976 838.76977 826.75 838.46875 C 831.85609 812.61185 835.9987 786.58259 840.40625 760.59375 C 849.23645 707.92475 858.20375 655.2845 868.15625 602.8125 C 878.91145 544.9715 890.18365 487.21575 899.34375 429.09375 C 905.30125 385.30075 911.29325 340.63575 902.96875 296.71875 C 895.08765 267.56075 882.4206 241.576 859 221.625 C 840.8666 205.711 821.6789 191.04375 802 177.09375 C 774.147 158.59875 744.7118 142.7915 712.375 133.5625 C 673.6362 122.5055 634.2702 114.0025 594.25 109.0625 C 553.79523 104.204 513.17316 101.27998 472.46875 101.375 z M 486.59375 234.3125 C 477.19419 234.23625 467.77069 234.76962 458.34375 235.90625 C 441.32316 238.20335 424.3983 241.30944 407.96875 246.15625 C 384.80604 234.56383 335.34479 228.65044 332.6875 242.46875 C 328.2306 272.02975 327.97955 302.01775 327.34375 331.84375 C 327.03035 357.53875 325.96105 383.21225 325.59375 408.90625 C 324.71515 421.43125 328.6269 431.1415 332.9375 442.8125 C 335.38723 447.31382 342.94949 447.42544 352.46875 444.90625 C 353.57429 471.38551 365.11317 508.46851 377.28125 506.09375 C 405.53535 499.45975 433.99625 493.94075 462.84375 490.71875 C 481.09693 490.73174 501.31382 486.22315 519.1875 491.90625 C 492.87788 491.18787 466.57098 492.73303 440.4375 496.6875 C 409.885 501.3175 379.50835 506.7865 349.40625 513.8125 C 342.72702 515.45201 341.32332 528.03812 343.125 543.09375 C 326.61601 528.78854 261.9876 520.72409 259.4375 536.625 C 255.823 567.105 257.3533 597.7935 259.4375 628.3125 C 261.7216 654.8145 263.5847 681.3755 265 707.9375 C 266.014 720.3085 265.2801 714.05275 267.25 726.59375 C 269.82083 740.29335 318.38159 734.8377 341.84375 723.5625 C 336.40527 734.23378 330.72833 744.79277 324.75 755.1875 C 320.2482 762.7965 315.3768 770.1525 310.375 777.4375 C 300.0483 793.0655 373.70455 841.753 384.03125 826.125 C 389.91865 816.937 395.75855 807.70675 401.15625 798.21875 C 418.28205 767.27475 433.50365 735.35525 447.84375 703.03125 C 459.46025 677.59125 471.13535 652.16675 484.03125 627.34375 C 489.66448 616.0773 455.91634 594.57438 430.53125 586.6875 C 438.20814 585.35877 445.89345 584.12248 453.59375 582.9375 C 482.03685 578.7775 510.77555 577.689 539.34375 580.875 C 545.25815 582.786 564.3043 582.855 566.1875 590.125 C 563.2167 592.972 567.4246 609.806 567.8125 614.625 C 569.3733 637.853 567.3116 661.062 564.6875 684.125 C 562.6464 697.843 561.73185 712.1655 556.59375 725.1875 C 550.74105 742.9795 634.61605 770.57325 640.46875 752.78125 C 646.36025 733.56325 650.00025 713.8385 651.90625 693.8125 C 655.02795 665.0985 657.36975 636.2075 655.40625 607.3125 C 652.82365 577.0465 647.69045 547.36575 625.53125 524.71875 C 602.97595 505.99875 577.27945 496.1915 547.96875 493.5625 C 539.08362 492.76469 530.17339 492.2211 521.28125 491.9375 C 528.79687 490.78777 536.01376 475.48273 540.4375 458.03125 C 552.90864 460.07322 562.93541 459.2419 564.90625 453.53125 C 569.31555 440.48825 567.1959 447.0765 571.375 433.6875 C 578.3788 410.4355 585.8187 387.27775 591.25 363.59375 C 596.3091 337.23275 599.75355 310.3115 589.78125 284.5625 C 577.20825 261.1965 559.59015 245.73325 533.28125 239.65625 C 517.87169 236.23 502.25968 234.43958 486.59375 234.3125 z M 485.9375 322.21875 C 493.36779 322.21861 500.76652 322.8278 508.03125 324.40625 C 507.49243 331.96508 506.36799 339.28389 504.875 346.78125 C 500.40331 365.31078 494.76531 383.53522 489.15625 401.75 C 477.04265 401.89189 464.90343 402.7176 452.8125 403.90625 C 439.77032 405.4474 426.80973 407.36021 413.875 409.5 C 413.86466 409.33209 413.85797 409.16734 413.84375 409 C 413.48635 384.9216 414.4056 360.82707 414.6875 336.75 C 416.0076 336.95205 417.26133 336.83601 418.40625 336.28125 C 434.45635 328.47725 452.08205 325.17325 469.65625 323.03125 C 475.06472 322.549 480.50845 322.21885 485.9375 322.21875 z M 411.625 402.40625 C 412.36982 404.78197 413.09951 407.13817 413.78125 409.53125 C 412.16696 409.79845 410.55067 410.06978 408.9375 410.34375 C 410.92333 407.44469 411.92925 404.75119 411.625 402.40625 z M 345.90625 558.59375 C 351.07929 580.64786 361.16132 602.07355 370.5 599.78125 C 381.21465 596.81029 392.0106 594.22819 402.875 591.9375 C 391.17245 616.87089 379.66963 641.91146 368.375 667.03125 C 363.34318 678.51543 358.19 689.93319 352.8125 701.25 C 350.90482 674.94366 348.94389 648.65391 346.6875 622.375 C 345.24275 601.1704 343.82603 579.79076 345.90625 558.59375 z "
     id="path13509" />
</svg>
