<?xml version="1.0" encoding="UTF-8" standalone="no"?>
<svg
   xmlns:dc="http://purl.org/dc/elements/1.1/"
   xmlns:cc="http://creativecommons.org/ns#"
   xmlns:rdf="http://www.w3.org/1999/02/22-rdf-syntax-ns#"
   xmlns:svg="http://www.w3.org/2000/svg"
   xmlns="http://www.w3.org/2000/svg"
   xmlns:sodipodi="http://sodipodi.sourceforge.net/DTD/sodipodi-0.dtd"
   xmlns:inkscape="http://www.inkscape.org/namespaces/inkscape"
   width="1024"
   height="1024"
   id="U59D1"
   version="1.1"
   inkscape:version="0.48.0 r9654"
   sodipodi:docname="U+59D1.svg">
  <metadata
     id="metadata15">
    <rdf:RDF>
      <cc:Work
         rdf:about="">
        <dc:format>image/svg+xml</dc:format>
        <dc:type
           rdf:resource="http://purl.org/dc/dcmitype/StillImage" />
      </cc:Work>
    </rdf:RDF>
  </metadata>
  <defs
     id="defs13" />
  <sodipodi:namedview
     pagecolor="#ffffff"
     bordercolor="#666666"
     borderopacity="1"
     objecttolerance="10"
     gridtolerance="10"
     guidetolerance="10"
     inkscape:pageopacity="0"
     inkscape:pageshadow="2"
     inkscape:window-width="640"
     inkscape:window-height="480"
     id="namedview11"
     showgrid="false"
     inkscape:zoom="0.27441406"
     inkscape:cx="512"
     inkscape:cy="512"
     inkscape:window-x="0"
     inkscape:window-y="25"
     inkscape:window-maximized="0"
     inkscape:current-layer="U59D1" />
  <path
     style="fill:#550000;fill-opacity:1;fill-rule:nonzero;stroke:#f9f9f9;stroke-width:0.1;stroke-miterlimit:4;stroke-dasharray:none"
     d="M 689.59375 235.59375 C 683.41754 235.62734 678.97345 237.13386 677.625 240.65625 C 665.71485 277.95014 657.8207 316.35683 649.71875 354.625 C 621.24699 357.76065 592.75038 360.72577 564.21875 363.28125 C 561.23327 359.77689 558.12686 357.98179 555.09375 358.71875 C 542.00745 362.04675 528.8989 365.3845 515.6875 368.1875 C 507.15322 370.15914 501.48516 372.56801 498.09375 375.53125 C 481.57102 355.41154 452.52124 333.92784 444.375 342.59375 C 438.85176 349.3657 433.5599 356.3237 428.46875 363.40625 C 410.07425 360.04236 391.43061 358.14443 372.59375 358.09375 C 355.13843 358.39103 337.7321 359.38122 320.40625 361 C 331.38553 337.31333 341.93668 313.41527 351.375 289.0625 C 357.8324 271.6275 275.6449 241.19 269.1875 258.625 C 259.0535 288.261 245.9942 316.78 232.75 345.125 C 227.52821 356.25294 222.09175 367.27589 216.5625 378.25 C 214.49378 378.74025 212.44083 379.2434 210.375 379.75 C 168.7615 390.014 126.5717 400.5145 88.5 420.8125 C 72.5755 430.3985 117.763 505.46 133.6875 495.875 C 144.73774 489.79822 156.30792 484.85766 168.15625 480.625 C 163.61265 496.46682 162.12254 512.87764 166.78125 529.5625 C 168.55455 535.9145 171.843 541.75475 174.375 547.84375 C 194.7492 580.16775 224.9282 604.68175 252.4375 630.71875 C 255.8503 633.93409 259.20603 637.19888 262.5625 640.46875 C 241.83787 674.43032 221.52844 708.74473 197.5 740.5 C 189.8905 749.13 193.5556 745.985 187.1875 750.75 C 173.5994 763.305 232.7869 827.3675 246.375 814.8125 C 261.1056 800.3315 254.1478 807.94425 267.25 791.90625 C 287.41785 763.95115 305.48144 734.6178 323.1875 705.0625 C 331.23372 714.33341 339.1741 723.69575 347 733.15625 C 371.103 762.86825 392.7992 794.395 413.9375 826.25 C 419.9729 835.44 425.94815 844.6955 432.09375 853.8125 C 443.05845 868.8865 514.12105 817.2 503.15625 802.125 C 496.75945 794.445 491.6808 785.72525 485.8125 777.65625 C 462.5505 743.86725 438.9311 710.28875 413 678.46875 C 398.71009 661.25616 384.13194 644.2662 369.15625 627.65625 C 393.33306 586.71116 417.37382 545.68098 441.46875 504.6875 C 449.595 490.99867 457.58816 477.14313 465.875 463.46875 C 473.24473 465.25944 480.72511 466.62337 488.28125 467.59375 C 499.2954 468.88714 507.3523 438.51091 508.1875 413.25 C 515.5901 424.3637 525.01858 437.8899 534.25 454.5625 C 534.382 454.8015 557.6292 451.31 567.25 450.125 C 588.63832 447.85297 610.03454 445.48036 631.40625 443.0625 C 626.62111 466.18214 621.79994 489.28414 616.875 512.375 C 614.31566 524.45005 613.66743 527.53514 613.03125 530.5 C 591.34873 534.21389 569.74314 538.31049 548.3125 543.3125 C 537.03551 546.29498 541.673 580.76098 551.125 604.84375 C 542.14009 604.8881 535.56059 606.82261 534.34375 611.46875 C 526.65655 646.08375 526.9575 681.567 528.9375 716.75 C 531.6414 745.595 535.17825 774.6345 543.59375 802.4375 C 544.89474 806.31703 549.95756 807.99955 556.96875 808.0625 C 560.35424 827.44824 567.31496 844.67873 575.65625 843.5625 C 615.03095 837.2175 654.6851 833.1915 694.4375 830.1875 C 736.6171 827.1485 778.92045 827.699 820.96875 832 C 837.57665 834.384 829.64705 833.11675 844.78125 835.71875 C 856.32931 837.54457 865.99345 803.73455 866.90625 777.96875 C 874.80703 753.52882 881.25088 728.65546 886.0625 703.375 C 891.3747 674.578 895.8162 645.35825 890.625 616.15625 C 885.7678 589.44925 878.39975 563.53625 857.90625 544.28125 C 832.68955 524.26625 804.0929 514.4275 771.6875 514.0625 C 748.89066 513.76118 726.18513 514.99756 703.5625 517.28125 C 709.29604 489.08675 715.03709 460.89804 720.84375 432.71875 C 757.11054 428.79745 793.5107 426.4319 830 426.21875 C 842.0819 426.31175 854.15815 426.76175 866.21875 427.46875 C 869.40675 427.65475 878.95005 428.73975 875.78125 428.34375 C 874.1787 428.14355 872.56624 427.89392 870.96875 427.65625 C 888.69415 427.42104 911.52692 348.09717 894.1875 342.96875 C 872.6864 338.71575 850.6404 340.23975 828.8125 339.84375 C 799.0065 340.46387 769.27321 342.16341 739.59375 344.8125 C 745.10236 320.22794 751.10732 295.75267 759.375 271.96875 C 764.66505 258.14934 713.8235 235.46198 689.59375 235.59375 z M 373.4375 444.0625 C 374.99863 444.09381 376.53761 444.12028 378.09375 444.1875 C 374.75288 449.97279 371.41572 455.76906 368.0625 461.53125 C 348.16863 495.99517 328.14007 530.39218 307.90625 564.65625 C 289.2079 546.78763 270.17754 529.2073 252.9375 509.90625 C 251.3193 510.85925 252.1444 510.12675 251.0625 512.59375 C 249.4957 513.64175 250.36905 508.7615 250.84375 506.9375 C 252.61595 500.1255 255.7617 493.64075 258.5 487.21875 C 263.83535 475.83712 269.39969 464.57866 275.03125 453.34375 C 307.50292 447.46827 340.3454 444.07626 373.4375 444.0625 z M 756.6875 600.53125 C 761.05481 600.51639 765.43765 600.57263 769.8125 600.71875 C 777.8714 602.44675 796.50915 600.7975 800.96875 610.5625 C 801.04415 617.4405 803.5038 624.58475 804.6875 631.46875 C 807.74 650.36075 804.11145 669.2305 800.78125 687.8125 C 797.29801 706.56395 792.79439 725.11394 787.21875 743.3125 C 754.20344 741.99288 721.13506 742.44507 688.125 744.78125 C 665.38398 746.42584 642.70807 748.40918 620.03125 750.6875 C 618.03066 737.67404 617.55774 724.18657 615.25 711.75 C 613.6884 685.694 612.8732 659.23825 619.0625 633.65625 C 620.30428 628.91487 615.28362 623.88835 607.1875 619.375 C 626.52125 615.45454 646.03431 612.34743 665.5 609.21875 C 695.72311 604.49025 726.11632 600.63528 756.6875 600.53125 z "
     id="path23907" />
</svg>
