<?xml version="1.0" encoding="UTF-8" standalone="no"?>
<svg
   xmlns:dc="http://purl.org/dc/elements/1.1/"
   xmlns:cc="http://creativecommons.org/ns#"
   xmlns:rdf="http://www.w3.org/1999/02/22-rdf-syntax-ns#"
   xmlns:svg="http://www.w3.org/2000/svg"
   xmlns="http://www.w3.org/2000/svg"
   xmlns:sodipodi="http://sodipodi.sourceforge.net/DTD/sodipodi-0.dtd"
   xmlns:inkscape="http://www.inkscape.org/namespaces/inkscape"
   width="1024"
   height="1024"
   id="U5907"
   version="1.1"
   inkscape:version="0.48.0 r9654"
   sodipodi:docname="U+5907.svg">
  <metadata
     id="metadata15">
    <rdf:RDF>
      <cc:Work
         rdf:about="">
        <dc:format>image/svg+xml</dc:format>
        <dc:type
           rdf:resource="http://purl.org/dc/dcmitype/StillImage" />
      </cc:Work>
    </rdf:RDF>
  </metadata>
  <defs
     id="defs13" />
  <sodipodi:namedview
     pagecolor="#ffffff"
     bordercolor="#666666"
     borderopacity="1"
     objecttolerance="10"
     gridtolerance="10"
     guidetolerance="10"
     inkscape:pageopacity="0"
     inkscape:pageshadow="2"
     inkscape:window-width="640"
     inkscape:window-height="480"
     id="namedview11"
     showgrid="false"
     inkscape:zoom="0.27441406"
     inkscape:cx="512"
     inkscape:cy="512"
     inkscape:window-x="0"
     inkscape:window-y="25"
     inkscape:window-maximized="0"
     inkscape:current-layer="U5907" />
  <path
     style="fill:#aa0000;fill-opacity:1;fill-rule:nonzero;stroke:#f9f9f9;stroke-width:0.1;stroke-miterlimit:4;stroke-dasharray:none"
     d="M 381.96875 85.625 C 379.98176 85.617542 378.30726 86.157019 377.0625 87.375 C 348.0014 118.8455 321.49875 152.5639 294.84375 186.0625 C 258.16815 232.0054 223.1158 279.1986 189 327.0625 C 173.8228 348.5168 180.9336 338.4198 167.625 357.3125 C 157.2711 372.4926 228.8336 421.3051 239.1875 406.125 C 243.90062 398.97654 244.88792 397.50819 246.28125 395.40625 C 273.07871 420.12813 302.14951 442.13576 331.96875 463.15625 C 344.45301 471.90414 357.25916 480.07742 370.3125 487.78125 C 343.89607 502.69214 317.08173 516.92656 289.9375 530.5 C 254.7055 547.7766 218.3588 562.53215 181.3125 575.40625 C 169.8625 579.28305 158.3608 583.05485 146.625 585.96875 C 128.6996 590.75395 151.2621 675.25395 169.1875 670.46875 C 183.1391 666.57315 196.8875 662.05325 210.5 657.09375 C 250.6747 642.36985 290.13625 625.77435 328.40625 606.59375 C 373.27799 583.6808 417.33672 559.2127 460.40625 533.09375 C 480.98201 542.0429 501.83481 550.37271 522.78125 558.4375 C 575.91635 577.7193 629.7136 595.436 680.125 621.25 C 682.8646 624.1587 708.695 634.9593 706.5 642.3125 C 717.1986 657.4152 788.3861 606.9777 777.6875 591.875 C 761.3968 571.424 742.4693 555.4466 718.5 544.25 C 665.1422 518.2764 608.9956 499.25385 553.125 479.46875 C 551.28875 478.76448 549.45965 478.05307 547.625 477.34375 C 586.0441 451.87373 623.92008 425.53584 659.96875 396.78125 C 690.11005 372.00425 722.5181 347.3153 740.5 311.8125 C 742.2445 304.8662 745.2571 298.11375 745.75 290.96875 C 748.1526 256.14625 723.61175 232.6407 694.40625 219.4375 C 651.97025 202.9804 607.08915 195.73045 561.71875 193.15625 C 507.28475 190.13214 452.61824 189.16982 398.28125 194.40625 C 411.11361 179.13254 424.30959 164.17229 438.3125 149.96875 C 450.34505 138.19502 401.17631 85.697097 381.96875 85.625 z M 479.5 276.09375 C 505.28647 275.96305 531.1058 276.91125 556.84375 278.4375 C 587.01258 280.92734 617.65656 284.12497 646.375 293.90625 C 633.18166 306.47664 618.92152 318.98632 605.03125 330.65625 C 558.86375 368.24525 509.26695 401.32835 459.46875 433.84375 C 457.83404 434.90368 456.2008 435.94597 454.5625 437 C 429.217 424.2922 404.65589 410.1057 381.375 393.5625 C 351.53335 372.22581 322.30489 349.88057 296.90625 323.3125 C 303.1447 314.79909 309.45627 306.33194 315.8125 297.90625 C 343.7127 288.26891 373.09903 284.0224 402.28125 280.28125 C 427.9541 277.4386 453.71353 276.22445 479.5 276.09375 z M 662.90625 301.03125 C 666.02572 302.55827 669.89344 304.58766 668.5625 305.21875 C 666.36888 306.25897 664.47416 304.22745 662.90625 301.03125 z M 556.09375 647.375 C 534.94803 647.4307 513.76407 648.55528 492.59375 650.3125 C 441.21105 654.1836 389.0941 657.5162 339.6875 673.25 C 306.81216 686.64831 279.73971 702.58823 262.8125 731.5625 C 259.55141 724.84038 256.07137 718.20703 252.3125 711.71875 C 241.7921 696.41635 169.63585 746.0102 180.15625 761.3125 C 197.43555 791.3614 207.25535 825.0557 217.40625 858 C 228.43565 894.0077 234.88785 931.45725 252.03125 965.21875 C 255.54391 971.4867 269.17945 968.87043 284 962.40625 C 273.8007 977.23617 305.90556 1047.4699 321.875 1040.4375 C 354.1263 1028.6666 388.30035 1023.0289 421.96875 1016.9062 C 475.96975 1007.183 530.654 1002.5909 585.4375 1000.7812 C 617.128 999.94995 648.7827 1001.8399 680.3125 1004.8125 C 692.25965 1005.8025 699.4329 969.47444 697.9375 943.59375 C 707.78672 946.22063 715.63317 946.13684 718.0625 941.53125 C 720.4991 936.64275 722.9383 931.7635 725.375 926.875 C 737.9373 892.9355 745.11475 857.39915 748.28125 821.34375 C 750.40665 783.90125 749.65835 746.21595 730.34375 712.78125 C 706.48325 679.04245 678.19645 661.40155 637.40625 653.28125 C 610.40372 648.97329 583.2811 647.30338 556.09375 647.375 z M 553.375 733.09375 C 576.65347 732.86752 599.87201 734.14349 622.875 738.4375 C 636.7071 742.0375 651.36985 746.79155 657.59375 760.65625 C 664.25765 778.44135 663.0753 797.69355 661.9375 816.28125 C 659.0538 843.25425 654.67385 870.40605 644.28125 895.59375 C 643.20655 897.36215 642.10595 899.13775 641.03125 900.90625 C 638.93515 904.88015 641.9306 910.2904 647.75 915.96875 C 625.96906 915.00077 604.15546 914.66155 582.34375 915.375 C 523.61605 917.6808 464.9711 922.61565 407 932.59375 C 368.84476 939.19892 330.31218 945.54769 293.5 957.84375 C 313.85564 947.09488 332.94578 931.10889 328.15625 922.5625 C 322.14965 915.5543 319.83665 903.71065 317.34375 895.34375 C 311.14935 874.55335 305.80885 853.52985 299.46875 832.78125 C 293.35784 812.88618 287.26325 792.82804 280.15625 773.1875 C 303.79904 781.97517 334.89888 786.03138 337.875 775.375 C 344.4003 762.7986 358.92745 758.22225 371.34375 753.65625 C 394.38887 746.96618 418.05365 743.16255 441.875 740.53125 C 438.21712 753.74207 435.28302 767.16156 432.625 780.625 C 401.18428 787.46731 370.28812 796.78603 342.46875 813.46875 C 327.12315 823.94505 376.49815 896.2888 391.84375 885.8125 C 401.28822 880.25271 411.29017 875.9574 421.59375 872.46875 C 420.72771 881.61675 419.84508 890.77282 418.875 899.90625 C 416.9844 918.13065 502.89065 927.0369 504.78125 908.8125 C 506.59745 890.90626 508.10465 872.95002 509.875 855.03125 C 533.33936 852.93546 556.96218 852.82506 580.53125 853.40625 C 598.98435 853.61115 599.9531 766.61105 581.5 766.40625 C 562.3183 766.43073 543.11265 766.72543 523.96875 767.8125 C 527.17214 755.95193 531.25481 744.37324 537.0625 733.5 C 542.49915 733.30359 547.94128 733.14656 553.375 733.09375 z "
     id="path19971" />
</svg>
