<?xml version="1.0" encoding="utf-8" ?>

<!DOCTYPE svg PUBLIC "-//W3C//DTD SVG 1.1//EN" 
  "http://www.w3.org/Graphics/SVG/1.1/DTD/svg11.dtd">
<svg 
    xmlns="http://www.w3.org/2000/svg"
    xmlns:xlink="http://www.w3.org/1999/xlink"
    xmlns:sodipodi="http://sodipodi.sourceforge.net/DTD/sodipodi-0.dtd"
    xmlns:inkscape="http://www.inkscape.org/namespaces/inkscape"
    width="1024" height="1024" id="U5982">
<path d="m 8487.3248,41225.756 c -16.6528,33.915 -32.4729,68.23 -48.1181,102.618 -14.8563,33.339 -29.6764,66.769 -40.9378,101.522 -7.4848,21.229 -2.3188,39.72 5.2214,59.947 19.8937,44.367 46.4567,85.378 72.1372,126.542 30.6362,48.285 61.6698,96.309 91.3792,145.174 17.2145,28.467 33.7397,57.342 50.1941,86.253 5.0202,9.179 2.7165,4.747 6.9594,13.271 7.9016,17.06 -72.5218,54.308 -80.4233,37.248 l 0,0 c -1.5753,-4.249 -0.4852,-1.554 -3.6443,-7.923 -15.1876,-28.36 -30.7237,-56.54 -47.164,-84.198 -29.0762,-48.677 -59.6949,-96.383 -90.1867,-144.18 -29.0728,-46.25 -59.3118,-92.255 -81.2457,-142.448 -14.3104,-40.128 -20.3631,-75.934 -6.2326,-117.321 12.7414,-37.474 28.6526,-73.718 44.8977,-109.79 15.646,-34.503 31.6502,-68.847 46.8686,-103.542 7.8121,-17.033 88.1071,19.794 80.2949,36.827 z" id="path11619" inkscape:connector-curvature="0" style="fill:#a02c2c;fill-opacity:1;fill-rule:nonzero;stroke:#f9f9f9;stroke-width:0.1;stroke-miterlimit:4;stroke-dasharray:none" transform="translate(-8192, -40960)"/><path d="m 8208.0802,41351.377 c 44.7174,-5.003 89.2855,-11.242 133.8999,-17.073 61.5036,-8.151 123.1782,-14.793 185.127,-18.262 33.21,-0.953 66.7309,-3.368 99.7622,1.295 3.5353,0.971 7.0705,1.942 10.6058,2.913 17.7693,6.2 -11.4591,89.965 -29.2284,83.765 l 0,0 c 1.1688,0.145 2.3377,0.291 3.5066,0.436 -25.503,-7.502 -54.3361,0.04 -80.2696,-2.152 -59.6069,2.685 -118.9327,8.97 -178.0267,17.189 -44.5949,6.19 -89.163,12.598 -133.6593,19.462 -18.577,2.486 -30.2946,-85.087 -11.7175,-87.573 z" id="path11621" inkscape:connector-curvature="0" style="fill:#a02c2c;fill-opacity:1;fill-rule:nonzero;stroke:#f9f9f9;stroke-width:0.1;stroke-miterlimit:4;stroke-dasharray:none" transform="translate(-8192, -40960)"/><path d="m 8627.9045,41346.211 c -17.7157,39.907 -29.8964,82.121 -43.1619,123.66 -21.5229,67.828 -42.5949,135.798 -64.3912,203.538 -14.7261,46.037 -30.0346,91.884 -46.5201,137.322 -7.646,21.575 -16.422,42.683 -28.584,62.112 -6.8808,9.145 -3.3625,4.917 -10.4643,12.759 -12.9918,13.615 -77.175,-47.629 -64.1832,-61.244 l 0,0 c 0.1128,0.11 0.1807,0.264 0.3385,0.329 9.4091,-13.506 14.9756,-29.112 21.0558,-44.298 16.7183,-44.098 32.157,-88.661 46.8298,-133.482 22.1125,-67.327 43.4023,-134.919 64.2568,-202.646 14.3853,-46.716 27.4441,-94.115 46.4571,-139.212 8.7319,-16.624 87.0986,24.538 78.3667,41.162 z" id="path11623" inkscape:connector-curvature="0" style="fill:#a02c2c;fill-opacity:1;fill-rule:nonzero;stroke:#f9f9f9;stroke-width:0.1;stroke-miterlimit:4;stroke-dasharray:none" transform="translate(-8192, -40960)"/><path d="m 8719.8639,41393.057 c 6.3927,41.604 11.6523,83.369 18.0399,124.974 6.2182,31.605 9.8751,64.863 23.5771,94.393 0.3962,0.157 0.7924,0.315 1.1886,0.472 9.9179,15.879 -64.9348,62.632 -74.8526,46.753 l 0,0 c -2.5087,-4.493 -5.0173,-8.986 -7.526,-13.48 -14.4549,-36.907 -21.7472,-75.986 -27.9594,-115.024 -6.2219,-40.668 -11.3051,-81.548 -19.3063,-121.918 -3.4301,-18.422 83.4085,-34.591 86.8387,-16.17 z" id="path11625" inkscape:connector-curvature="0" style="fill:#a02c2c;fill-opacity:1;fill-rule:nonzero;stroke:#f9f9f9;stroke-width:0.1;stroke-miterlimit:4;stroke-dasharray:none" transform="translate(-8192, -40960)"/><path d="m 8732.6711,41352.011 c 32.9147,-12.311 67.9423,-15.696 102.7401,-17.729 36.6954,-1.533 73.4318,-1.463 110.1129,0.286 36.9061,2.026 60.3991,8.105 89.1522,32.068 27.9624,30.927 28.7218,70.717 27.6756,110.082 -2.1067,36.849 -6.9302,73.475 -11.6077,110.067 -1.9148,19.745 -6.1897,38.928 -12.1292,57.802 -5.9039,17.71 -89.3885,-10.122 -83.4846,-27.831 l 0,0 c 4.987,-13.3 7.1159,-27.313 8.9218,-41.365 4.5329,-33.54 9.091,-67.136 10.9832,-100.948 0.3549,-13.989 -1.1051,-29.961 -0.2223,-43.12 3.2331,-6.238 -30.1141,-8.817 -33.8955,-9.343 -33.4414,-1.954 -66.9562,-2.096 -100.4274,-0.662 -24.8251,1.447 -50.1218,3.212 -73.5347,12.323 -17.3162,7.273 -51.6006,-74.357 -34.2844,-81.63 z" id="path11627" inkscape:connector-curvature="0" style="fill:#a02c2c;fill-opacity:1;fill-rule:nonzero;stroke:#f9f9f9;stroke-width:0.1;stroke-miterlimit:4;stroke-dasharray:none" transform="translate(-8192, -40960)"/><path d="m 8685.5714,41651.587 c 38.8583,-21.558 81.7269,-33.667 124.656,-44.009 49.1927,-11.032 99.4997,-14.485 149.7783,-14.058 23.704,0.49 47.3188,2.722 70.834,5.626 1.6991,0.222 3.3983,0.444 5.0975,0.667 18.6028,2.697 5.889,90.391 -12.7137,87.694 l 0,0 c -1.4605,-0.236 -2.9209,-0.471 -4.3814,-0.707 -19.9493,-3.04 -40.0181,-5.391 -60.1993,-6.13 -42.987,-1.034 -86.0471,1.517 -128.1399,10.893 -33.9383,8.213 -68.1743,17.496 -98.5086,35.366 -15.9824,9.848 -62.4053,-65.494 -46.4229,-75.342 z" id="path11629" inkscape:connector-curvature="0" style="fill:#a02c2c;fill-opacity:1;fill-rule:nonzero;stroke:#f9f9f9;stroke-width:0.1;stroke-miterlimit:4;stroke-dasharray:none" transform="translate(-8192, -40960)"/></svg>