<?xml version="1.0" encoding="UTF-8" standalone="no"?>
<svg
   xmlns:dc="http://purl.org/dc/elements/1.1/"
   xmlns:cc="http://creativecommons.org/ns#"
   xmlns:rdf="http://www.w3.org/1999/02/22-rdf-syntax-ns#"
   xmlns:svg="http://www.w3.org/2000/svg"
   xmlns="http://www.w3.org/2000/svg"
   xmlns:sodipodi="http://sodipodi.sourceforge.net/DTD/sodipodi-0.dtd"
   xmlns:inkscape="http://www.inkscape.org/namespaces/inkscape"
   width="1024"
   height="1024"
   id="U5904"
   version="1.1"
   inkscape:version="0.48.0 r9654"
   sodipodi:docname="U+5904.svg">
  <metadata
     id="metadata12">
    <rdf:RDF>
      <cc:Work
         rdf:about="">
        <dc:format>image/svg+xml</dc:format>
        <dc:type
           rdf:resource="http://purl.org/dc/dcmitype/StillImage" />
      </cc:Work>
    </rdf:RDF>
  </metadata>
  <defs
     id="defs10" />
  <sodipodi:namedview
     pagecolor="#ffffff"
     bordercolor="#666666"
     borderopacity="1"
     objecttolerance="10"
     gridtolerance="10"
     guidetolerance="10"
     inkscape:pageopacity="0"
     inkscape:pageshadow="2"
     inkscape:window-width="640"
     inkscape:window-height="480"
     id="namedview8"
     showgrid="false"
     inkscape:zoom="0.27441406"
     inkscape:cx="512"
     inkscape:cy="512"
     inkscape:window-x="0"
     inkscape:window-y="25"
     inkscape:window-maximized="0"
     inkscape:current-layer="U5904" />
  <path
     style="fill:#800000;fill-opacity:1;fill-rule:nonzero;stroke:#f9f9f9;stroke-width:0.1;stroke-miterlimit:4;stroke-dasharray:none"
     d="M 600.53125 203.125 C 590.31997 203.12425 582.76246 205.223 581.59375 210.3125 C 572.05545 263.6079 567.382 317.65975 561.75 371.46875 C 553.4853 449.51205 544.46955 527.47225 535.78125 605.46875 C 531.72145 643.75785 533.65745 625.3912 530.03125 660.5 C 528.33635 678.5963 613.64885 686.5963 615.34375 668.5 C 618.24155 633.9561 616.66665 651.99265 620.09375 614.40625 C 622.5201 590.31342 625.02001 566.23355 627.59375 542.15625 C 645.68122 562.86713 667.69904 579.70841 690 595.75 C 694.4087 598.8344 698.81005 601.9157 703.21875 605 C 718.28855 615.5233 767.91355 544.49205 752.84375 533.96875 C 748.73205 531.10335 744.6117 528.2405 740.5 525.375 C 722.0755 512.1971 703.15885 498.7331 689.78125 480.125 C 683.14506 470.31932 651.30902 486.6897 631.75 503.84375 C 636.24915 462.77477 640.89911 421.73096 645.625 380.6875 C 651.4168 330.3053 656.0814 279.52195 666.875 229.90625 C 669.86169 216.89975 626.62674 203.1269 600.53125 203.125 z M 240.53125 271.09375 C 235.75787 271.08854 232.25068 272.34971 230.84375 275.21875 C 213.79505 316.33815 199.8082 358.63395 185.1875 400.65625 C 183.58815 405.24874 181.98567 409.84875 180.375 414.4375 C 167.07359 420.24205 154.30424 427.2908 142.3125 436.0625 C 135.07355 441.63093 144.31178 461.22471 157.3125 478.375 C 146.21541 508.14044 134.57335 537.70969 122.03125 566.90625 C 119.47998 572.98324 128.24622 581.20673 140.78125 588.4375 C 156.76808 627.86734 186.02554 658.67721 217.25 687.125 C 230.69213 698.32122 244.63621 708.81139 258.9375 718.78125 C 252.69235 726.44098 246.432 734.08909 240.15625 741.71875 C 219.59535 767.14695 197.4719 791.05005 171.875 811.40625 C 157.8162 823.03205 212.6287 889.3133 226.6875 877.6875 C 255.7669 852.9728 282.13945 825.64575 305.84375 795.65625 C 314.45058 785.15808 323.0612 774.66627 331.625 764.125 C 351.52316 775.42584 371.70732 786.24789 391.90625 796.90625 C 457.78265 830.85885 526.00135 859.8861 595.40625 885.75 C 647.68655 905.2068 702.0295 917.42035 757.375 923.53125 L 775.8125 924.78125 C 794.1389 925.85305 799.2014 839.4468 780.875 838.375 C 775.9521 838.1457 771.01675 837.9168 766.09375 837.6875 C 717.79785 833.2832 670.4461 822.8847 624.8125 806.25 C 558.7721 782.0212 493.9649 754.47685 431.4375 722.15625 C 415.85358 713.89518 400.26535 705.5458 384.84375 696.90625 C 397.28701 680.63744 409.48956 664.19654 421.3125 647.46875 C 450.5757 602.60575 477.94655 555.2541 477.15625 499.9375 C 475.75495 491.417 475.39665 482.6616 472.96875 474.375 C 461.20895 434.2389 427.26595 410.4827 389.03125 398.8125 C 352.89245 390.41586 316.17597 386.92495 279.4375 389.875 C 288.68001 364.19948 298.27198 338.62905 309.53125 313.78125 C 316.31012 299.95769 263.53024 271.11885 240.53125 271.09375 z M 310.75 474.8125 C 330.18071 475.06246 349.53619 477.67669 368.53125 482.6875 C 384.52445 488.7903 392.91825 492.6769 391.09375 510.0625 C 386.58095 543.7381 367.7801 572.85425 349.625 600.71875 C 337.45532 618.05611 324.86877 635.0838 312 651.90625 C 299.25751 643.03431 286.83178 633.69572 274.84375 623.75 C 252.71325 603.7171 230.3738 582.35985 220.9375 553.15625 C 220.79336 552.66778 220.57152 552.20671 220.3125 551.78125 C 229.14873 528.90508 237.70437 505.9212 246.09375 482.875 C 252.47763 481.21796 258.9499 479.79361 265.40625 478.46875 C 280.49287 475.86869 295.63723 474.61809 310.75 474.8125 z "
     id="path21143" />
</svg>
