<?xml version="1.0" encoding="UTF-8" standalone="no"?>
<svg
   xmlns:dc="http://purl.org/dc/elements/1.1/"
   xmlns:cc="http://creativecommons.org/ns#"
   xmlns:rdf="http://www.w3.org/1999/02/22-rdf-syntax-ns#"
   xmlns:svg="http://www.w3.org/2000/svg"
   xmlns="http://www.w3.org/2000/svg"
   xmlns:sodipodi="http://sodipodi.sourceforge.net/DTD/sodipodi-0.dtd"
   xmlns:inkscape="http://www.inkscape.org/namespaces/inkscape"
   width="1024"
   height="1024"
   id="U591F"
   version="1.1"
   inkscape:version="0.48.0 r9654"
   sodipodi:docname="U+591F.svg">
  <metadata
     id="metadata18">
    <rdf:RDF>
      <cc:Work
         rdf:about="">
        <dc:format>image/svg+xml</dc:format>
        <dc:type
           rdf:resource="http://purl.org/dc/dcmitype/StillImage" />
      </cc:Work>
    </rdf:RDF>
  </metadata>
  <defs
     id="defs16" />
  <sodipodi:namedview
     pagecolor="#ffffff"
     bordercolor="#666666"
     borderopacity="1"
     objecttolerance="10"
     gridtolerance="10"
     guidetolerance="10"
     inkscape:pageopacity="0"
     inkscape:pageshadow="2"
     inkscape:window-width="640"
     inkscape:window-height="480"
     id="namedview14"
     showgrid="false"
     inkscape:zoom="0.27441406"
     inkscape:cx="512"
     inkscape:cy="512"
     inkscape:window-x="0"
     inkscape:window-y="25"
     inkscape:window-maximized="0"
     inkscape:current-layer="U591F" />
  <path
     style="fill:#550000;fill-opacity:1;fill-rule:nonzero;stroke:#f9f9f9;stroke-width:0.1;stroke-miterlimit:4;stroke-dasharray:none"
     d="M 645.21875 222.5 C 642.25799 222.48838 639.9669 223.315 638.59375 225.1875 C 614.35645 261.0075 590.62255 297.17975 567.09375 333.46875 C 557.28037 348.62101 547.55227 363.84651 537.9375 379.125 C 538.67442 350.43512 531.43183 325.22063 500.0625 306.46875 C 469.253 295.13675 437.19755 294.302 404.59375 296.375 C 367.02545 298.388 329.43375 301.34025 292.40625 308.28125 C 284.6574 309.86875 276.91991 311.53711 269.21875 313.375 C 274.99445 303.40099 281.16046 293.66524 287.90625 284.3125 C 299.34295 269.6545 230.21795 215.716 218.78125 230.375 C 196.17295 262.97 179.0919 299 161.625 334.5 C 139.9944 378.806 119.26205 423.547 98.46875 468.25 C 89.32255 488.166 79.55795 507.77225 70.34375 527.65625 C 62.94885 544.74425 143.51125 579.61925 150.90625 562.53125 C 158.64915 542.68225 168.60545 523.73275 176.84375 504.09375 C 192.16369 470.03659 207.6442 436.03805 223.8125 402.375 C 231.06294 411.24469 238.33696 416.5319 243.3125 413.875 C 264.0297 402.966 287.02125 397.7425 309.78125 393.0625 C 342.54395 386.9295 375.8181 384.38475 409.0625 382.71875 C 413.8397 382.71743 435.86994 381.73287 451.125 382.9375 C 450.82994 386.07573 450.53391 389.63939 450.28125 391.71875 C 449.61235 397.22375 448.78795 402.72475 448.03125 408.21875 C 442.22752 443.68358 436.54937 479.16127 431.15625 514.6875 C 428.77631 507.52842 425.18492 500.49795 420 493.625 C 415.2666 489.525 410.9994 484.8215 405.8125 481.3125 C 386.1849 468.0345 361.1361 467.71625 338.4375 467.65625 C 314.21791 468.52148 290.0535 470.39176 265.9375 472.75 C 240.51531 466.6702 195.18404 470.03894 195.0625 483.40625 C 195.5407 515.97825 195.49495 548.551 195.34375 581.125 C 195.26225 605.093 194.40315 629.036 194.09375 653 C 194.14564 663.63278 222.93174 668.03624 247.4375 666.34375 C 248.58303 692.51969 259.5816 728.38378 271.5 726.15625 C 294.8905 721.75325 318.6131 719.29225 342.3125 717.28125 C 352.0632 716.48325 361.81965 716.12925 371.59375 715.78125 C 379.68201 715.40848 383.47104 698.52737 383.625 679.71875 C 389.00964 680.13264 393.00152 679.11266 394.625 676.0625 L 400.46875 664.78125 C 405.78155 652.87397 410.5186 640.75984 414.78125 628.46875 C 410.32137 660.46045 405.85638 692.45328 401.125 724.40625 C 396.8102 735.82825 400.45175 753.4655 392.53125 763.6875 C 385.68305 780.9195 466.93305 813.20075 473.78125 795.96875 C 480.55755 776.64475 484.42845 756.8485 486.46875 736.4375 C 493.29145 685.4775 499.85735 634.4665 507.09375 583.5625 C 510.49981 559.74856 514.10002 535.97233 517.875 512.21875 C 535.25353 520.30486 552.60721 524.28254 556.4375 517 C 560.6331 508.13 558.08525 513.2755 564.34375 501.5625 C 587.14612 461.16652 611.46364 421.66106 636.8125 382.8125 C 665.84718 380.99613 694.93009 380.95661 724 381.8125 C 744.93845 382.72195 765.8368 384.57892 786.53125 387.75 C 777.41484 400.85196 767.30068 413.16213 757.21875 425.53125 C 747.53025 436.98514 737.69119 448.33171 727.78125 459.59375 C 725.12929 458.27675 723.06464 457.28488 713.53125 452.71875 C 690.94505 441.97075 668.0801 431.6525 646.4375 419.0625 C 630.322 409.8105 586.72825 485.77925 602.84375 495.03125 C 623.84069 506.25941 645.3547 516.41652 666.84375 526.65625 C 664.92501 528.7081 663.01694 530.76494 661.09375 532.8125 C 640.61705 552.7715 622.1372 575.879 597.875 591.5 C 594.5621 592.523 594.5648 593.36975 595.3125 591.34375 C 577.4292 596.25575 600.58545 680.56825 618.46875 675.65625 C 638.57907 668.91252 629.91217 672.78133 646.65625 663.59375 C 625.12008 687.03097 603.33387 710.33766 579.25 731.1875 C 571.8891 736.7675 575.24305 734.73475 569.59375 737.84375 C 554.11745 748.07575 602.3363 821.01325 617.8125 810.78125 C 630.6475 801.79125 624.2477 806.6485 637 796.1875 C 650.25273 784.1734 662.98616 771.63488 675.40625 758.78125 C 672.11563 770.38989 671.88355 779.92358 677.125 782.5 C 701.30273 793.17337 725.59844 803.50815 749.4375 814.90625 C 732.4346 831.33534 715.05484 847.39426 697.34375 863.0625 C 686.76505 871.8175 676.5448 881.1875 664.8125 888.4375 C 662.8218 889.6675 660.78135 890.8565 658.59375 891.6875 C 658.38132 891.76805 657.97029 891.76785 657.625 891.71875 C 644.84904 906.42857 649.34876 977.13191 666.03125 976.46875 C 672.87055 975.50075 679.8755 975.2935 686.5625 973.5625 C 713.4855 966.5935 733.8613 943.99825 754.8125 927.40625 C 788.2965 897.26525 820.8036 866.078 852.0625 833.625 C 881.9412 802.214 911.90725 770.47725 935.84375 734.15625 C 953.93685 704.33925 969.25765 673.829 955.78125 638.75 C 952.32935 633.615 949.48865 627.99275 945.40625 623.34375 C 931.33235 607.31575 909.54315 602.01975 889.65625 597.84375 C 867.94828 594.51994 846.08662 593.34338 824.1875 593.65625 C 842.43418 573.47209 860.82242 553.28002 881.8125 535.9375 C 894.54437 525.95489 855.28438 472.43683 835.21875 466.25 C 856.95331 440.02301 878.11246 412.54597 885.65625 378.78125 C 885.40225 371.05325 886.6854 363.11075 884.875 355.59375 C 877.4865 324.91575 850.5475 311.14375 822.3125 305.59375 C 790.6533 299.97775 758.6363 296.71575 726.5 295.46875 C 716.40192 295.18105 706.31502 295.02226 696.21875 294.9375 C 700.50469 288.92432 704.80084 282.94091 709.1875 277 C 718.79955 263.8925 665.94404 222.58135 645.21875 222.5 z M 657.625 891.71875 C 658.10076 891.17097 658.63235 890.72967 659.15625 890.34375 C 658.4352 890.63133 657.7405 890.94816 657.09375 891.375 C 656.85955 891.52914 657.19872 891.65813 657.625 891.71875 z M 659.15625 890.34375 C 660.27653 889.89694 661.45331 889.53037 662.5625 889.0625 C 661.32632 889.11171 660.19874 889.57582 659.15625 890.34375 z M 459.1875 383.90625 C 462.85796 384.59825 465.38638 385.5835 466 386.9375 C 464.28357 387.70748 461.69217 386.06666 459.1875 383.90625 z M 809.9375 392.0625 C 819.00719 394.55184 815.73217 396.75167 809.9375 392.0625 z M 341.1875 554.5625 C 342.68855 554.62771 344.21979 554.63533 345.75 554.65625 C 344.96628 558.06954 344.4453 559.92089 342.75 566.5 C 337.0554 587.724 330.5541 608.74725 321.1875 628.65625 C 320.52827 629.84288 319.87795 631.03229 319.21875 632.21875 C 306.53009 633.4766 293.8704 634.85369 281.21875 636.4375 C 281.16221 618.13692 281.64476 599.83286 281.59375 581.53125 C 281.63131 573.97092 281.65311 566.4046 281.6875 558.84375 C 301.44216 556.47465 321.29885 555.10105 341.1875 554.5625 z M 358.6875 555.4375 C 360.28539 555.69862 361.85936 556.03852 363.40625 556.53125 C 363.95935 556.70725 365.37255 557.261 364.84375 557.5 C 362.8278 558.41241 360.71079 556.91722 358.6875 555.4375 z M 830.75 680.3125 C 842.48134 680.29666 854.18567 680.82133 865.8125 682.34375 C 864.77839 684.04595 863.5916 685.96302 861.65625 689.15625 C 847.26322 710.96616 830.30414 730.83301 812.65625 750.0625 C 807.33306 747.02906 801.93474 744.11902 796.40625 741.4375 C 772.09474 729.56995 747.24416 718.90515 722.8125 707.3125 C 729.51325 699.83267 736.19658 692.34355 742.875 684.84375 C 763.15877 683.51934 783.44976 682.12008 803.75 681.0625 C 812.73909 680.63763 821.74715 680.32466 830.75 680.3125 z M 886.46875 687.15625 C 889.32982 688.45193 889.02006 688.95166 886.46875 687.15625 z "
     id="path23885" />
</svg>
