<?xml version="1.0" encoding="utf-8" ?>

<!DOCTYPE svg PUBLIC "-//W3C//DTD SVG 1.1//EN" 
  "http://www.w3.org/Graphics/SVG/1.1/DTD/svg11.dtd">
<svg 
    xmlns="http://www.w3.org/2000/svg"
    xmlns:xlink="http://www.w3.org/1999/xlink"
    xmlns:sodipodi="http://sodipodi.sourceforge.net/DTD/sodipodi-0.dtd"
    xmlns:inkscape="http://www.inkscape.org/namespaces/inkscape"
    width="1024" height="1024" id="U591C">
<path d="m 8710.3066,57530.52 c 18.4203,28.545 41.3853,53.762 64.029,78.955 17.1732,19.203 8.7695,9.645 25.2227,28.664 12.044,14.056 -54.2144,70.832 -66.2584,56.776 l 0,0 c -15.1407,-17.854 -7.2474,-8.73 -23.7141,-27.342 -25.7125,-28.703 -51.4579,-57.523 -73.5374,-89.184 -10.1545,-15.753 64.1037,-63.622 74.2582,-47.869 z" id="path13155" inkscape:connector-curvature="0" style="fill:#916f6f;fill-opacity:1;fill-rule:nonzero;stroke:#f9f9f9;stroke-width:0.1;stroke-miterlimit:4;stroke-dasharray:none" transform="translate(-8192, -57344)"/><path d="m 8368.0513,57748.015 c 43.4628,-10.267 87.969,-14.801 132.2867,-19.574 75.4765,-8.204 151.0688,-15.228 226.734,-21.429 65.4268,-5.19 130.8976,-9.884 196.482,-12.506 30.1161,-0.501 60.5478,-3.461 90.1315,3.296 18.0112,5.371 -7.3091,90.277 -25.3203,84.906 l 0,0 c 0.9483,-0 3.7128,0.377 2.8449,-0 -9.5572,-4.207 -34.4282,-1.908 -44.4,-1.876 -6.8148,0.02 -13.6292,0.118 -20.4439,0.177 -64.2218,1.585 -128.3374,5.706 -192.3795,10.688 -74.7852,6.084 -149.4762,13.244 -223.9792,22.185 -40.0212,4.758 -80.4149,8.917 -119.3847,19.636 -18.1368,4.788 -40.7083,-80.71 -22.5715,-85.498 z" id="path13157" inkscape:connector-curvature="0" style="fill:#916f6f;fill-opacity:1;fill-rule:nonzero;stroke:#f9f9f9;stroke-width:0.1;stroke-miterlimit:4;stroke-dasharray:none" transform="translate(-8192, -57344)"/><path d="m 8577.9092,57804.118 c -21.8582,28.621 -40.2353,59.668 -58.3008,90.757 -25.6273,45.146 -49.4946,91.257 -74.1338,136.942 -8.8375,16.707 -18.5192,32.922 -28.481,48.972 -10.0115,15.658 -83.8242,-31.536 -73.8127,-47.194 l 0,0 c 9.3167,-14.058 18.2028,-28.38 26.2103,-43.237 25.3698,-46.068 49.5693,-92.769 75.2308,-138.678 19.506,-34.143 39.5779,-67.992 62.2193,-100.179 11.1618,-15.076 82.2298,37.541 71.0679,52.617 z" id="path13159" inkscape:connector-curvature="0" style="fill:#916f6f;fill-opacity:1;fill-rule:nonzero;stroke:#f9f9f9;stroke-width:0.1;stroke-miterlimit:4;stroke-dasharray:none" transform="translate(-8192, -57344)"/><path d="m 8546.4036,57942.058 c 5.2316,36.454 9.6047,73.024 14.4521,109.53 5.8751,45.036 12.3977,89.978 19.5444,134.829 4.2618,25.225 8.3333,50.48 12.2563,75.76 2.6696,18.468 -84.3937,31.053 -87.0633,12.584 l 0,0 c -3.3442,-25.032 -7.0489,-50.013 -11.1043,-74.941 -6.9446,-45.469 -13.4201,-91.003 -19.5517,-136.589 -4.8471,-35.071 -9.1064,-70.265 -15.5302,-105.09 -3.4118,-18.454 83.5849,-34.538 86.9967,-16.083 z" id="path13161" inkscape:connector-curvature="0" style="fill:#916f6f;fill-opacity:1;fill-rule:nonzero;stroke:#f9f9f9;stroke-width:0.1;stroke-miterlimit:4;stroke-dasharray:none" transform="translate(-8192, -57344)"/><path d="m 8725.2475,57822.673 c -19.4493,30.483 -34.6499,63.407 -49.7185,96.197 -20.4578,45.386 -39.2885,91.478 -56.5504,138.167 -6.5243,17.753 -12.3871,35.731 -16.541,54.188 -4.5167,18.109 -89.8867,-3.183 -85.37,-21.292 l 0,0 c 5.7326,-21.495 12.6546,-42.625 20.6511,-63.393 18.4051,-48.358 38.1256,-96.201 59.1176,-143.497 16.4637,-36.483 33.3118,-72.869 53.4897,-107.486 9.9948,-15.893 84.9162,31.223 74.9215,47.116 z" id="path13199" inkscape:connector-curvature="0" style="fill:#916f6f;fill-opacity:1;fill-rule:nonzero;stroke:#f9f9f9;stroke-width:0.1;stroke-miterlimit:4;stroke-dasharray:none" transform="translate(-8192, -57344)"/><path d="m 8631.9017,57923.941 c 26.2009,-20.4 57.6562,-30.397 89.1956,-39.075 37.6735,-10.345 75.7045,-18.973 114.3013,-25.004 30.6581,-4.3 61.4503,-7.774 92.4271,-8.027 25.6888,0.744 51.4242,8.14 67.7396,29.519 3.8619,5.061 6.3416,11.04 9.5124,16.56 15.5319,43.28 -1.0302,85.242 -18.0337,125.274 -26.629,56.83 -62.4647,108.6 -98.0507,160.062 -27.9097,40.31 -57.408,79.477 -87.7009,118.017 -12.5999,14.518 -24.0093,32.032 -41.2924,41.633 -5.559,3.088 -11.7009,4.985 -17.5513,7.477 -17.9213,5.559 -44.1277,-78.923 -26.2064,-84.482 l 0,0 c -18.313,12.445 18.0589,-13.301 16.8622,-19.083 29.6688,-36.54 58.3756,-73.862 85.279,-112.499 32.2962,-46.49 64.9019,-93.269 88.7841,-144.797 6.0926,-14.597 8.4744,-19.123 12.8165,-33.452 1.184,-3.907 1.8884,-16.235 4.369,-20.271 0.1991,-0.324 0.7345,0.197 1.1018,0.296 7.5428,6.879 16.5379,6.007 2.2746,3.721 -26.4977,-0.379 -52.852,2.926 -79.0981,6.26 -35.2566,5.298 -69.9237,13.326 -104.2441,22.985 -19.6589,5.475 -40.0907,10.621 -56.4576,23.458 -14.5462,11.885 -70.5743,-56.687 -56.028,-68.572 z" id="path13201" inkscape:connector-curvature="0" style="fill:#916f6f;fill-opacity:1;fill-rule:nonzero;stroke:#f9f9f9;stroke-width:0.1;stroke-miterlimit:4;stroke-dasharray:none" transform="translate(-8192, -57344)"/><path d="m 8770.1054,57971.241 c 22.2545,19.044 41.9977,40.77 61.9277,62.17 12.0102,12.794 6.1253,6.553 17.6513,18.729 12.7404,13.592 -51.3342,73.651 -64.0745,60.058 l 0,0 c -11.5968,-12.492 -5.671,-6.104 -17.7769,-19.166 -16.7661,-18.106 -33.2824,-36.705 -52.4634,-52.319 -14.7373,-11.611 39.9985,-81.084 54.7358,-69.472 z" id="path13203" inkscape:connector-curvature="0" style="fill:#916f6f;fill-opacity:1;fill-rule:nonzero;stroke:#f9f9f9;stroke-width:0.1;stroke-miterlimit:4;stroke-dasharray:none" transform="translate(-8192, -57344)"/><path d="m 8647.2891,58058.076 c 22.5688,22.94 49.5511,40.636 76.8866,57.286 42.447,24.691 88.047,43.11 133.8849,60.39 42.8348,15.497 86.0665,29.912 129.7593,42.794 21.4445,4.841 42.8132,13.552 65.0404,14.047 18.6768,1.373 12.2035,89.417 -6.4734,88.044 l 0,0 c -28.5627,-2.677 -56.1565,-10.632 -83.6104,-18.691 -45.4805,-13.889 -90.5267,-29.183 -135.2189,-45.427 -50.7841,-19.212 -101.2835,-39.702 -148.3733,-66.986 -33.4195,-20.201 -66.0119,-41.927 -94.4091,-68.943 -13.2612,-13.261 49.2527,-75.775 62.5139,-62.514 z" id="path13205" inkscape:connector-curvature="0" style="fill:#916f6f;fill-opacity:1;fill-rule:nonzero;stroke:#f9f9f9;stroke-width:0.1;stroke-miterlimit:4;stroke-dasharray:none" transform="translate(-8192, -57344)"/></svg>