<?xml version="1.0" encoding="utf-8" ?>

<!DOCTYPE svg PUBLIC "-//W3C//DTD SVG 1.1//EN" 
  "http://www.w3.org/Graphics/SVG/1.1/DTD/svg11.dtd">
<svg 
    xmlns="http://www.w3.org/2000/svg"
    xmlns:xlink="http://www.w3.org/1999/xlink"
    xmlns:sodipodi="http://sodipodi.sourceforge.net/DTD/sodipodi-0.dtd"
    xmlns:inkscape="http://www.inkscape.org/namespaces/inkscape"
    width="1024" height="1024" id="U59D0">
<path d="m 10583.346,23814.677 c -10.72,36.791 -23.36,72.959 -36.616,108.9 -11.861,32.534 -25.796,64.284 -37.563,96.848 -2.935,11.084 0.488,4.209 -0,-1.751 -0.609,-7.386 -6.79,-14.788 1.652,-6.996 29.002,26.375 49.869,59.597 69.785,92.963 23.976,42.713 45.693,86.625 69.498,129.434 18.029,31.777 37.967,62.406 58.094,92.877 5.911,7.249 9.605,16.444 15.994,23.323 11.115,15.43 -61.623,67.827 -72.738,52.397 l 0,0 c -6.043,-9.057 -11.65,-18.394 -17.59,-27.52 -20.705,-32.519 -41.464,-65.032 -60.368,-98.646 -23.175,-42.001 -44.572,-84.944 -68.115,-126.741 -15.826,-26.231 -32.001,-52.748 -55.372,-73.068 -28.309,-26.638 -37.646,-49.796 -23.968,-87.581 12.481,-32.057 26.506,-63.507 38.364,-95.815 12.307,-33.573 24.213,-67.368 32.808,-102.117 4.984,-18.273 91.123,5.22 86.139,23.493 z" id="path9219" inkscape:connector-curvature="0" style="fill:#550000;fill-opacity:1;fill-rule:nonzero;stroke:#f9f9f9;stroke-width:0.1;stroke-miterlimit:4;stroke-dasharray:none" transform="translate(-10240, -23552)"/><path d="m 10741.579,23900.595 c -22.409,35.507 -37.902,74.948 -54.178,113.507 -24.995,60.199 -48.902,120.847 -71.553,181.965 -15.126,40.326 -26.874,81.755 -38.666,123.136 -3.394,14.099 -9.034,27.213 -15.269,40.219 -8.64,16.798 -87.829,-23.931 -79.189,-40.729 l 0,0 c 4.769,-7.439 7.032,-15.972 9.678,-24.347 13.04,-43.237 25.826,-86.585 42.019,-128.785 23.45,-61.946 47.953,-123.487 72.875,-184.855 18.409,-44.692 36.093,-90.141 61.266,-131.57 10.916,-15.49 83.933,35.97 73.017,51.459 z" id="path9221" inkscape:connector-curvature="0" style="fill:#550000;fill-opacity:1;fill-rule:nonzero;stroke:#f9f9f9;stroke-width:0.1;stroke-miterlimit:4;stroke-dasharray:none" transform="translate(-10240, -23552)"/><path d="m 10346.779,23980.208 c 40.631,-18.669 82.929,-33.256 125.386,-47.117 52.144,-16.565 105.314,-29.548 158.642,-41.641 24.227,-5.317 48.442,-11.618 73.373,-11.335 18.962,1.146 13.557,90.535 -5.405,89.388 l 0,0 c 0.567,-0.137 2.277,-0.316 1.702,-0.412 -1.937,-0.322 -10.257,0.81 -10.667,0.868 -5.511,0.78 -18.663,3.07 -23.55,4.001 -5.574,1.062 -11.127,2.234 -16.691,3.35 -50.574,10.618 -100.923,22.533 -150.116,38.497 -38.295,12.775 -76.636,26.022 -112.738,44.273 -16.943,8.471 -56.879,-71.4 -39.936,-79.872 z" id="path9223" inkscape:connector-curvature="0" style="fill:#550000;fill-opacity:1;fill-rule:nonzero;stroke:#f9f9f9;stroke-width:0.1;stroke-miterlimit:4;stroke-dasharray:none" transform="translate(-10240, -23552)"/><path d="m 10845.623,23825.246 c -4.702,46.589 -4.393,93.478 -3.821,140.238 1.494,64.417 5.115,128.759 8.694,193.087 2.047,25.43 2.003,51.062 4.796,76.433 1.393,18.879 -87.605,25.448 -88.999,6.568 l 0,0 c -1.256,-26.218 -1.504,-52.482 -2.923,-78.696 -2.821,-65.328 -6.239,-130.633 -8.213,-195.994 -0.984,-49.498 -1.429,-99.03 1.478,-148.481 1.452,-18.877 90.44,-12.032 88.988,6.845 z" id="path9225" inkscape:connector-curvature="0" style="fill:#550000;fill-opacity:1;fill-rule:nonzero;stroke:#f9f9f9;stroke-width:0.1;stroke-miterlimit:4;stroke-dasharray:none" transform="translate(-10240, -23552)"/><path d="m 10802.998,23778.298 c 27.675,-19.633 59.645,-30.519 92.12,-39.107 33.325,-7.881 67.345,-12.227 101.4,-15.404 26.396,-2.085 55.591,-2.273 76.37,17.339 5.969,5.635 9.857,13.129 14.786,19.694 17.411,46.199 9.593,97.028 6.062,145.139 -5.441,65.209 -11.52,130.361 -16.726,195.59 -3.789,44.957 -6.048,90.026 -9.524,135.004 -0.149,15.221 -4.931,26.45 -11.052,40.241 -10.367,15.95 -85.558,-32.921 -75.191,-48.872 l 0,0 c -8.949,25.318 -1.995,7.004 -1.946,0.709 4.63,-44.64 7.171,-89.474 11.235,-134.166 5.443,-64.808 11.541,-129.563 16.325,-194.424 1.503,-24.005 3.24,-48.026 3.242,-72.094 0,-7.405 -1.811,-14.858 -0.838,-22.199 0.06,-0.492 0.992,0.04 1.488,0.06 5.8,4.527 5.82,5.547 13.157,7.269 0.679,0.16 2.549,0.07 2.051,-0.418 -4.364,-4.277 -17.121,1.054 -21.684,-0.602 -29.137,2.377 -58.244,5.923 -86.752,12.562 -21.206,5.497 -42.554,11.846 -60.506,24.918 -15.112,11.458 -69.13,-59.781 -54.017,-71.24 z" id="path9227" inkscape:connector-curvature="0" style="fill:#550000;fill-opacity:1;fill-rule:nonzero;stroke:#f9f9f9;stroke-width:0.1;stroke-miterlimit:4;stroke-dasharray:none" transform="translate(-10240, -23552)"/><path d="m 10857.369,23969.295 c 28.266,-2.574 56.611,-3.821 84.982,-4.371 19.482,0 9.991,-0.09 28.473,0.264 18.815,0.483 16.538,89.175 -2.276,88.692 l 0,0 c -15.939,-0.526 -7.73,-0.347 -24.629,-0.502 -25.969,0.412 -51.964,1.455 -77.733,4.898 -18.875,1.871 -27.693,-87.111 -8.817,-88.981 z" id="path9229" inkscape:connector-curvature="0" style="fill:#550000;fill-opacity:1;fill-rule:nonzero;stroke:#f9f9f9;stroke-width:0.1;stroke-miterlimit:4;stroke-dasharray:none" transform="translate(-10240, -23552)"/><path d="m 10859.134,24097.121 c 27.562,-1.069 55.118,-2.216 82.696,-2.849 16.168,-0.356 32.335,-0.443 48.499,0.04 18.883,0.78 15.208,89.794 -3.675,89.014 l 0,0 c -14.295,-0.807 -28.613,-0.763 -42.926,-0.573 -26.684,0.53 -53.368,1.493 -79.977,3.638 -18.938,0.979 -23.555,-88.295 -4.617,-89.274 z" id="path9231" inkscape:connector-curvature="0" style="fill:#550000;fill-opacity:1;fill-rule:nonzero;stroke:#f9f9f9;stroke-width:0.1;stroke-miterlimit:4;stroke-dasharray:none" transform="translate(-10240, -23552)"/><path d="m 10701.105,24276.082 c 40.912,-5.62 81.618,-12.561 122.564,-18 53.781,-6.766 107.86,-10.668 161.949,-13.929 36.917,-2.197 73.876,-3.493 110.85,-4.163 10.4,-0.162 20.801,-0.264 31.202,-0.347 18.979,0.111 18.459,89.577 -0.52,89.467 l 0,0 c -9.982,-0.201 -19.966,-0.361 -29.95,-0.397 -35.53,-0.08 -71.049,0.87 -106.529,2.79 -51.88,2.87 -103.759,6.422 -155.314,13.061 -41.264,5.677 -82.253,12.872 -123.258,20.16 -18.803,2.332 -29.798,-86.31 -10.994,-88.642 z" id="path9233" inkscape:connector-curvature="0" style="fill:#550000;fill-opacity:1;fill-rule:nonzero;stroke:#f9f9f9;stroke-width:0.1;stroke-miterlimit:4;stroke-dasharray:none" transform="translate(-10240, -23552)"/></svg>