<?xml version="1.0" encoding="UTF-8" standalone="no"?>
<svg
   xmlns:dc="http://purl.org/dc/elements/1.1/"
   xmlns:cc="http://creativecommons.org/ns#"
   xmlns:rdf="http://www.w3.org/1999/02/22-rdf-syntax-ns#"
   xmlns:svg="http://www.w3.org/2000/svg"
   xmlns="http://www.w3.org/2000/svg"
   xmlns:sodipodi="http://sodipodi.sourceforge.net/DTD/sodipodi-0.dtd"
   xmlns:inkscape="http://www.inkscape.org/namespaces/inkscape"
   width="1024"
   height="1024"
   id="U5973"
   version="1.1"
   inkscape:version="0.48.0 r9654"
   sodipodi:docname="U+5973.svg">
  <metadata
     id="metadata10">
    <rdf:RDF>
      <cc:Work
         rdf:about="">
        <dc:format>image/svg+xml</dc:format>
        <dc:type
           rdf:resource="http://purl.org/dc/dcmitype/StillImage" />
      </cc:Work>
    </rdf:RDF>
  </metadata>
  <defs
     id="defs8" />
  <sodipodi:namedview
     pagecolor="#ffffff"
     bordercolor="#666666"
     borderopacity="1"
     objecttolerance="10"
     gridtolerance="10"
     guidetolerance="10"
     inkscape:pageopacity="0"
     inkscape:pageshadow="2"
     inkscape:window-width="640"
     inkscape:window-height="480"
     id="namedview6"
     showgrid="false"
     inkscape:zoom="0.27441406"
     inkscape:cx="512"
     inkscape:cy="512"
     inkscape:window-x="0"
     inkscape:window-y="25"
     inkscape:window-maximized="0"
     inkscape:current-layer="U5973" />
  <path
     style="fill:#c83737;fill-opacity:1;fill-rule:nonzero;stroke:#f9f9f9;stroke-width:0.1;stroke-miterlimit:4;stroke-dasharray:none"
     d="M 346.375 204.5625 C 332.52429 204.71492 321.61653 207.48984 320.75 213.875 C 316.4433 252.072 307.32165 289.49325 297.78125 326.65625 C 289.58605 357.56201 280.04858 388.07269 270.0625 418.4375 C 250.42742 418.72426 230.79239 419.02308 211.15625 419.25 C 164.09865 419.492 117.053 418.9445 70 419.3125 C 51.2729 420.5715 57.2103 508.85275 75.9375 507.59375 C 121.3319 505.60575 166.78615 505.532 212.21875 504.625 C 221.89381 504.37721 231.57482 504.14513 241.25 503.90625 C 236.50499 517.88877 231.98261 531.94888 228.40625 546.28125 C 223.21025 570.04225 228.76405 593.81075 250.28125 608.09375 C 255.05105 611.25975 260.9272 612.29825 266.25 614.40625 C 277.5155 617.30525 289.2013 614.10975 300.375 617.09375 C 319.6903 625.14275 336.2156 638.87725 353.0625 651.03125 C 378.74954 670.01771 406.06913 686.51352 433.71875 702.4375 C 426.00995 712.99644 418.23795 723.50613 410.40625 733.96875 C 387.11225 764.66675 363.64885 795.42825 335.53125 821.90625 C 336.1686 824.202 322.56468 831.91381 318 834.3125 C 325.11214 832.13821 332.00124 832.96514 338.96875 835.4375 C 320.30168 834.51264 272.04225 893.20365 285.3125 904.5 C 301.2749 918.103 319.7983 925.015 340.9375 920 C 362.3287 913.053 380.5425 900.70125 396.5625 884.90625 C 427.4013 854.38325 453.8112 819.9765 479.3125 784.9375 C 488.85237 771.88822 498.33045 758.79135 507.71875 745.625 C 528.80861 759.51112 548.73908 775.03227 567.3125 792.34375 C 588.1579 812.88775 608.5909 833.839 629.8125 854 C 641.739 866.252 655.85895 875.962 668.71875 887.125 C 670.41365 888.501 672.04575 889.961 673.59375 891.5 C 687.29305 904.464 748.41815 839.87125 734.71875 826.90625 C 731.73495 824.24725 728.69755 821.66175 725.53125 819.21875 C 713.68645 809.51575 701.00435 800.8095 690.03125 790.0625 C 668.37035 769.8395 647.66575 748.66625 626.28125 728.15625 C 604.47126 708.34535 581.3129 690.31825 556.84375 674.15625 C 575.59253 645.66548 593.55148 616.65604 610.25 586.875 C 624.81144 559.73809 638.74092 532.24995 651.375 504.21875 C 670.97712 505.41578 690.55533 506.83772 710.125 508.5625 C 752.1475 512.5995 793.85485 519.2055 835.90625 522.9375 C 855.78385 524.4545 875.75855 524.75825 895.65625 523.53125 C 901.31385 522.99825 899.19175 523.0625 902.03125 523.0625 C 920.81995 521.5415 913.63235 432.94875 894.84375 434.46875 C 890.44055 434.93075 892.39055 434.6695 889.09375 435.1875 C 873.78645 436.6215 858.3423 436.58675 843 435.71875 C 800.9271 432.64675 759.20975 426.24825 717.15625 422.90625 C 706.10786 422.06366 695.05649 421.31623 684 420.625 C 688.71561 406.10479 692.96796 391.40083 696.65625 376.5 C 707.80715 330.972 717.40175 285.0865 722.53125 238.4375 C 724.29575 219.7845 636.35825 211.472 634.59375 230.125 C 631.64615 272.827 622.9421 314.7645 613.0625 356.3125 C 608.10174 376.81622 601.94417 396.90286 594.875 416.625 C 558.10196 415.58326 521.29919 415.24583 484.5 415.5625 C 443.44979 415.88369 402.42061 416.47205 361.375 417.09375 C 368.55701 394.29907 375.4249 371.41027 381.59375 348.3125 C 392.11635 307.8345 401.8504 267.13725 408.3125 225.78125 C 409.96684 213.59141 372.81727 204.27151 346.375 204.5625 z M 499.15625 499.75 C 519.14545 499.73874 539.14573 499.96089 559.125 500.40625 C 551.52484 516.01498 543.561 531.45878 535.375 546.78125 C 519.29923 575.64242 501.89456 603.68626 483.625 631.15625 C 456.43948 615.54509 429.51729 599.42934 404.4375 580.5625 C 379.17634 561.95339 354.10725 541.58861 323.78125 532.1875 C 327.12053 522.04174 330.71628 511.9608 333.96875 501.8125 C 384.33469 500.81286 434.71585 500.07144 485.09375 499.78125 C 489.78872 499.75463 494.46151 499.75265 499.15625 499.75 z M 315.875 559.78125 C 316.39574 562.68782 316.10341 565.35362 314.625 567.4375 C 314.3603 567.8095 314.55925 566.5175 314.53125 566.0625 C 314.93714 563.95827 315.39838 561.86828 315.875 559.78125 z M 317.96875 834.3125 C 317.75019 834.37956 317.53147 834.45852 317.3125 834.53125 C 316.89159 834.7757 316.67669 834.93676 316.59375 835 C 316.7424 834.94685 317.23049 834.69988 317.96875 834.3125 z "
     id="path9818" />
</svg>
