<?xml version="1.0" encoding="UTF-8" standalone="no"?>
<svg
   xmlns:dc="http://purl.org/dc/elements/1.1/"
   xmlns:cc="http://creativecommons.org/ns#"
   xmlns:rdf="http://www.w3.org/1999/02/22-rdf-syntax-ns#"
   xmlns:svg="http://www.w3.org/2000/svg"
   xmlns="http://www.w3.org/2000/svg"
   xmlns:sodipodi="http://sodipodi.sourceforge.net/DTD/sodipodi-0.dtd"
   xmlns:inkscape="http://www.inkscape.org/namespaces/inkscape"
   width="1024"
   height="1024"
   id="U5927"
   version="1.1"
   inkscape:version="0.48.0 r9654"
   sodipodi:docname="U+5927.svg">
  <metadata
     id="metadata10">
    <rdf:RDF>
      <cc:Work
         rdf:about="">
        <dc:format>image/svg+xml</dc:format>
        <dc:type
           rdf:resource="http://purl.org/dc/dcmitype/StillImage" />
      </cc:Work>
    </rdf:RDF>
  </metadata>
  <defs
     id="defs8" />
  <sodipodi:namedview
     pagecolor="#ffffff"
     bordercolor="#666666"
     borderopacity="1"
     objecttolerance="10"
     gridtolerance="10"
     guidetolerance="10"
     inkscape:pageopacity="0"
     inkscape:pageshadow="2"
     inkscape:window-width="640"
     inkscape:window-height="480"
     id="namedview6"
     showgrid="false"
     inkscape:zoom="0.27441406"
     inkscape:cx="512"
     inkscape:cy="512"
     inkscape:window-x="0"
     inkscape:window-y="25"
     inkscape:window-maximized="0"
     inkscape:current-layer="U5927" />
  <path
     style="fill:#800000;fill-opacity:1;fill-rule:nonzero;stroke:#f9f9f9;stroke-width:0.1;stroke-miterlimit:4;stroke-dasharray:none"
     d="M 519.3125 196.875 C 510.79789 197.16293 504.6731 199.24755 503.5625 203.75 C 490.9158 256.1497 472.2789 306.8555 453.375 357.25 C 442.96769 384.81596 431.47262 411.8753 419.09375 438.53125 C 366.7081 441.75553 314.39462 446.06201 262.34375 452.9375 C 216.03165 459.5684 169.4354 466.31365 124.75 480.65625 C 107.315 487.11365 137.7525 569.30115 155.1875 562.84375 C 193.7668 549.13745 234.5814 543.15845 274.875 536.90625 C 308.18286 532.13792 341.61731 528.59139 375.125 525.78125 C 360.01989 553.82575 344.26658 581.53703 328.1875 609.03125 C 288.9153 674.17745 246.93285 738.04025 194.71875 793.59375 C 176.20205 810.07155 185.22865 803.32815 168.21875 814.59375 C 153.38145 825.32395 203.9751 895.26145 218.8125 884.53125 C 245.1225 864.54845 232.10325 875.5277 257.59375 851.25 C 312.55125 790.1003 358.00605 721.5178 399.96875 650.9375 C 416.35773 622.82964 432.44819 594.52363 447.9375 565.90625 C 480.59676 600.95453 514.44566 634.84767 549.09375 667.9375 C 603.93105 719.4122 662.85795 766.22575 722.53125 811.90625 C 763.12555 842.81575 804.8104 872.2215 847.1875 900.625 C 851.2988 903.3444 855.42005 906.06185 859.53125 908.78125 C 874.99025 918.76935 922.05275 845.89435 906.59375 835.90625 C 902.61385 833.39785 898.63625 830.8834 894.65625 828.375 C 853.41485 801.8305 813.0677 773.9349 773.875 744.4375 C 716.5346 701.0265 659.91415 656.48595 607.65625 606.96875 C 577.59464 577.90019 548.0428 548.25107 520.25 517 C 520.81303 516.97365 521.37448 516.93254 521.9375 516.90625 C 596.6488 513.95865 671.4172 511.47205 745.875 504.40625 C 753.8753 503.29525 761.8747 502.1735 769.875 501.0625 C 787.9057 498.3298 774.99945 413.36105 756.96875 416.09375 C 750.31515 417.20365 743.68485 418.29625 737.03125 419.40625 C 664.30535 427.69085 591.12965 430.33995 518.03125 433.34375 C 516.34258 433.42273 514.6575 433.51441 512.96875 433.59375 C 519.62349 418.26889 526.01269 402.82376 532.0625 387.21875 C 552.7474 333.72185 572.742 279.9009 588.4375 224.6875 C 591.76938 211.18007 544.85632 196.01121 519.3125 196.875 z "
     id="path21531" />
</svg>
