<?xml version="1.0" encoding="utf-8" ?>

<!DOCTYPE svg PUBLIC "-//W3C//DTD SVG 1.1//EN" 
  "http://www.w3.org/Graphics/SVG/1.1/DTD/svg11.dtd">
<svg 
    xmlns="http://www.w3.org/2000/svg"
    xmlns:xlink="http://www.w3.org/1999/xlink"
    xmlns:sodipodi="http://sodipodi.sourceforge.net/DTD/sodipodi-0.dtd"
    xmlns:inkscape="http://www.inkscape.org/namespaces/inkscape"
    width="1024" height="1024" id="U5979">
<path d="m 7510.305,47306.789 c -9.2241,44.116 -26.4077,85.914 -43.9442,127.239 -23.9283,54.13 -49.1718,107.658 -72.5316,162.04 -3.1548,11.095 -28.1217,60.328 -18.3109,70.944 10.4774,4.253 29.8172,26.16 38.2868,34.298 36.9556,36.139 61.9369,81.667 86.6419,126.492 26.2561,48.301 50.518,97.641 74.5726,147.062 13.8611,28.605 27.8207,57.168 42.3113,85.461 8.2077,16.818 -71.0692,55.509 -79.277,38.692 l 0,0 c -13.4519,-28.933 -27.3777,-57.643 -40.9635,-86.513 -23.0642,-48.127 -46.4631,-96.117 -72.0914,-142.945 -20.5658,-36.993 -40.9051,-75.036 -71.4505,-104.946 -25.3848,-23.91 -54.2987,-45.183 -64.3005,-80.386 -0.9726,-6.664 -2.586,-13.265 -2.9178,-19.992 -1.7785,-36.044 15.728,-69.953 28.3341,-102.54 23.6396,-53.887 48.7864,-107.092 72.2322,-161.065 14.631,-35.181 29.4947,-70.775 36.2209,-108.483 3.1061,-18.496 90.2937,-3.853 87.1876,14.642 z" id="path11586" inkscape:connector-curvature="0" style="fill:#782121;fill-opacity:1;fill-rule:nonzero;stroke:#f9f9f9;stroke-width:0.1;stroke-miterlimit:4;stroke-dasharray:none" transform="translate(-7168, -47104)"/><path d="m 7189.1263,47485.708 c 46.0941,-7.03 92.4827,-11.834 138.8562,-16.568 55.1851,-5.769 110.4594,-10.613 165.8261,-14.24 33.4532,-2.654 66.4945,-4.062 98.3771,7.331 5.8809,4.294 12.9589,7.306 17.6425,12.881 28.6119,34.058 9.8996,73.973 -3.7506,109.504 -25.9685,64.454 -51.3146,129.151 -75.8686,194.156 -24.9771,66.212 -46.9789,133.475 -66.2761,201.546 -10.2918,37.442 -18.705,75.361 -26.6882,113.35 -2.6262,12.748 -1.4223,6.796 -3.6278,17.852 -3.9919,18.3 -90.2571,-0.518 -86.2652,-18.818 l 0,0 c 2.6335,-11.123 1.2224,-5.112 4.2212,-18.037 9.2351,-39.589 18.4693,-79.199 29.7149,-118.277 20.6687,-69.975 43.8257,-139.177 69.4812,-207.49 24.3382,-65.003 49.2754,-129.778 73.9036,-194.671 22.3941,-62.065 -4.5801,13.278 10.6924,-30.771 0.4273,-1.232 0.5425,-4.51 1.4924,-3.616 1.8924,1.78 1.1461,5.167 2.5085,7.38 7.7713,12.619 7.1783,10.766 18.1149,16.26 3.6002,-0.698 -7.0555,-2.254 -10.7148,-2.496 -9.4035,-0.624 -18.9057,-0.51 -28.3119,-0.263 -6.4923,0.17 -12.9796,0.498 -19.4694,0.747 -54.1252,2.913 -108.1457,7.425 -162.0342,13.275 -44.0576,4.737 -88.2392,9.304 -131.7623,17.818 -18.4244,3.408 -34.4863,-83.446 -16.0619,-86.853 z" id="path11588" inkscape:connector-curvature="0" style="fill:#782121;fill-opacity:1;fill-rule:nonzero;stroke:#f9f9f9;stroke-width:0.1;stroke-miterlimit:4;stroke-dasharray:none" transform="translate(-7168, -47104)"/><path d="m 7572.7262,47626.657 c 34.9064,-17.426 71.7143,-30.39 108.674,-42.65 56.7699,-18.158 114.4211,-33.364 172.1025,-48.306 43.922,-10.802 87.5385,-23.556 132.5652,-28.775 40.452,-2.29 73.5678,18.709 83.3301,59.21 1.653,6.858 1.6414,14.013 2.462,21.02 -0.1192,41.634 -8.3366,82.725 -14.7683,123.725 -4.9344,31.258 -9.1298,62.624 -12.7851,94.056 -1.0194,17.089 -8.0096,27.675 -17.0002,42.118 -12.4985,14.053 -78.7447,-44.866 -66.2462,-58.919 l 0,0 c -8.4882,17.587 -5.9198,15.193 -4.007,5.734 4.4147,-32.207 9.0304,-64.387 14.1502,-96.491 5.3713,-34.093 11.7263,-68.225 13.2101,-102.764 0.088,-1.588 -0.5555,-3.4 0.2624,-4.765 1.5471,-2.58 4.9377,3.516 7.6973,4.715 2.4276,1.055 10.2983,1.577 7.9311,0.393 -1.656,-0.829 -3.6561,-0.591 -5.4842,-0.886 -40.782,3.104 -80.099,16.318 -119.8731,24.991 -55.7083,14.229 -111.3423,28.933 -165.979,46.917 -32.5607,11.115 -65.2134,22.599 -95.4638,39.213 -16.6599,8.65 -57.4379,-69.885 -40.778,-78.536 z" id="path11608" inkscape:connector-curvature="0" style="fill:#782121;fill-opacity:1;fill-rule:nonzero;stroke:#f9f9f9;stroke-width:0.1;stroke-miterlimit:4;stroke-dasharray:none" transform="translate(-7168, -47104)"/><path d="m 7871.7202,47434.197 c -13.1693,47.039 -16.234,96.217 -19.5248,144.731 -3.1765,54.397 -3.1781,108.899 -3.73,163.365 -0.1516,5.292 -0.3033,10.585 -0.4549,15.877 -0.8087,18.557 -88.2862,14.745 -87.4775,-3.812 l 0,0 c 0.2809,-4.631 0.5617,-9.261 0.8425,-13.892 1.7898,-55.726 2.1969,-111.503 5.3901,-167.179 3.5638,-55.407 7.2427,-111.255 20.668,-165.325 5.5653,-17.88 89.8519,8.355 84.2866,26.235 z" id="path11610" inkscape:connector-curvature="0" style="fill:#782121;fill-opacity:1;fill-rule:nonzero;stroke:#f9f9f9;stroke-width:0.1;stroke-miterlimit:4;stroke-dasharray:none" transform="translate(-7168, -47104)"/><path d="m 7743.5065,47435.787 c -21.0505,38.739 -33.1807,81.207 -43.8725,123.716 -17.2992,72.295 -18.042,141.207 -5.0895,214.045 14.7684,58.756 33.7539,100.502 82.8948,137.094 42.6242,24.993 90.6877,20.562 137.484,13.28 50.2322,-9.476 97.1465,-29.805 142.7496,-52.213 19.2468,-11.944 42.1884,-18.564 60.837,-31.508 16.2924,-9.36 60.4173,67.443 44.1249,76.803 l 0,0 c -21.9573,11.841 -45.0944,21.454 -67.2725,32.873 -53.6789,25.439 -108.8296,48.413 -167.6359,58.971 -73.0399,10.731 -139.4093,11.595 -203.6396,-30.564 -9.0971,-7.431 -18.802,-14.175 -27.2913,-22.293 -46.8382,-44.793 -71.8257,-106.092 -86.1192,-168.082 -2.3172,-13.973 -5.2572,-27.857 -6.9516,-41.919 -8.3341,-69.166 -1.5163,-139.139 12.7917,-207.019 12.0565,-49.601 26.1625,-98.807 48.9833,-144.704 8.8076,-16.548 86.8145,24.972 78.0068,41.52 z" id="path11612" inkscape:connector-curvature="0" style="fill:#782121;fill-opacity:1;fill-rule:nonzero;stroke:#f9f9f9;stroke-width:0.1;stroke-miterlimit:4;stroke-dasharray:none" transform="translate(-7168, -47104)"/></svg>