<?xml version="1.0" encoding="utf-8" ?>

<!DOCTYPE svg PUBLIC "-//W3C//DTD SVG 1.1//EN" 
  "http://www.w3.org/Graphics/SVG/1.1/DTD/svg11.dtd">
<svg 
    xmlns="http://www.w3.org/2000/svg"
    xmlns:xlink="http://www.w3.org/1999/xlink"
    xmlns:sodipodi="http://sodipodi.sourceforge.net/DTD/sodipodi-0.dtd"
    xmlns:inkscape="http://www.inkscape.org/namespaces/inkscape"
    width="1024" height="1024" id="U5BBF">
<path d="m 11724.047,46165.663 c 11.907,29.25 27.551,56.681 43.964,83.58 3.041,4.776 6.083,9.551 9.124,14.326 9.887,15.651 -63.891,62.259 -73.778,46.608 l 0,0 c -3.267,-5.21 -6.534,-10.421 -9.801,-15.632 -18.074,-29.78 -35.196,-60.11 -49.769,-91.787 -7.869,-17.025 72.391,-54.12 80.26,-37.095 z" id="path11386" inkscape:connector-curvature="0" style="fill:#782121;fill-opacity:1;fill-rule:nonzero;stroke:#f9f9f9;stroke-width:0.1;stroke-miterlimit:4;stroke-dasharray:none" transform="translate(-11264, -46080)"/><path d="m 11573.995,46359.752 c -13.475,31.952 -22.87,65.43 -32.076,98.802 -9.605,36.958 -18.626,74.189 -23.817,112.056 -0.109,2.669 -0.218,5.339 -0.327,8.008 -1.444,18.601 -89.129,11.795 -87.686,-6.806 l 0,0 c 0.467,-4.749 0.934,-9.499 1.401,-14.248 6.639,-41.093 16.269,-81.634 26.837,-121.881 10.042,-36.991 20.448,-73.944 33.926,-109.861 7.198,-17.34 88.939,16.59 81.742,33.93 z" id="path11388" inkscape:connector-curvature="0" style="fill:#782121;fill-opacity:1;fill-rule:nonzero;stroke:#f9f9f9;stroke-width:0.1;stroke-miterlimit:4;stroke-dasharray:none" transform="translate(-11264, -46080)"/><path d="m 11551.345,46349.879 c 39.321,-32.891 89.98,-42.759 139.096,-51.169 65.801,-9.257 132.328,-11.133 198.672,-12.453 54.121,-1.087 108.231,0.153 162.166,4.734 31.318,2.592 61.578,8.717 88.836,24.626 34.855,27.839 32.557,60.606 21.051,99.501 -11.867,34.91 -29.375,67.397 -47.821,99.178 -3.411,5.58 -6.822,11.159 -10.233,16.739 -9.632,15.785 -84.044,-29.621 -74.412,-45.406 l 0,0 c 3.061,-5.027 6.122,-10.055 9.183,-15.082 15.004,-25.911 29.499,-52.273 39.222,-80.708 7.066,-22.785 1.065,-6.266 15.421,0.194 -13.277,-9.9 -33.422,-9.124 -49.212,-12.423 -50.705,-5.056 -101.642,-6.467 -152.59,-5.61 -61.982,1.093 -124.151,2.767 -185.601,11.626 -31.646,5.536 -66.109,10.319 -92.581,30.026 -13.529,12.982 -74.725,-50.791 -61.197,-63.773 z" id="path11390" inkscape:connector-curvature="0" style="fill:#782121;fill-opacity:1;fill-rule:nonzero;stroke:#f9f9f9;stroke-width:0.1;stroke-miterlimit:4;stroke-dasharray:none" transform="translate(-11264, -46080)"/><path d="m 11683.099,46480.683 c -20.597,35.821 -38.832,72.95 -57.29,109.902 -20.839,41.639 -40.817,83.847 -67.075,122.412 -3.404,4.021 -6.807,8.042 -10.211,12.063 -12.541,13.833 -77.752,-45.286 -65.211,-59.119 l 0,0 c 1.287,-1.153 2.574,-2.306 3.861,-3.458 25.199,-33.848 41.975,-73.001 61.371,-110.248 18.944,-38.409 37.765,-76.886 57.48,-114.907 9.197,-16.35 86.272,27.005 77.075,43.355 z" id="path11392" inkscape:connector-curvature="0" style="fill:#782121;fill-opacity:1;fill-rule:nonzero;stroke:#f9f9f9;stroke-width:0.1;stroke-miterlimit:4;stroke-dasharray:none" transform="translate(-11264, -46080)"/><path d="m 11613.941,46599.142 c -2.376,37.731 -3.649,75.498 -3.994,113.299 -0.07,58.168 3.548,116.255 7.837,174.238 3.522,42.876 7.206,85.775 12.98,128.416 0.492,2.84 0.984,5.68 1.476,8.52 2.732,18.485 -84.406,31.366 -87.138,12.881 l 0,0 c -0.469,-3.657 -0.937,-7.313 -1.406,-10.97 -4.663,-44.132 -8.283,-88.371 -11.652,-132.618 -4.297,-60.218 -8.166,-120.517 -8.624,-180.908 0.05,-38.314 1.277,-76.585 2.126,-114.883 0.43,-18.751 88.825,-16.727 88.395,2.025 z" id="path11394" inkscape:connector-curvature="0" style="fill:#782121;fill-opacity:1;fill-rule:nonzero;stroke:#f9f9f9;stroke-width:0.1;stroke-miterlimit:4;stroke-dasharray:none" transform="translate(-11264, -46080)"/><path d="m 11703.941,46502.944 c 42.068,-6.564 84.608,-8.461 127.105,-9.643 46.933,-0.929 93.872,0.407 140.804,-0.298 4.129,-0.266 8.258,-0.532 12.387,-0.799 18.568,-0.878 22.708,86.654 4.14,87.532 l 0,0 c -5.352,0.182 -10.704,0.364 -16.056,0.547 -46.233,-0.167 -92.465,-1.657 -138.7,-0.641 -38.098,1.22 -76.372,2.846 -113.856,10.336 -18.463,3.356 -34.287,-83.677 -15.824,-87.034 z" id="path11396" inkscape:connector-curvature="0" style="fill:#782121;fill-opacity:1;fill-rule:nonzero;stroke:#f9f9f9;stroke-width:0.1;stroke-miterlimit:4;stroke-dasharray:none" transform="translate(-11264, -46080)"/><path d="m 11911.587,46541.939 c -22.583,33.324 -38.532,70.394 -53.616,107.532 -20.172,52.544 -36.582,106.417 -54.073,159.886 -6.066,19.152 -12.959,37.996 -20.291,56.69 -6.987,17.191 -88.027,-15.744 -81.041,-32.935 l 0,0 c 7.102,-16.747 13.589,-33.721 19.257,-51.017 18.552,-55 35.616,-110.529 56.234,-164.811 16.936,-42.372 35.097,-84.364 59.272,-123.214 10.154,-15.753 84.412,32.116 74.258,47.869 z" id="path11398" inkscape:connector-curvature="0" style="fill:#782121;fill-opacity:1;fill-rule:nonzero;stroke:#f9f9f9;stroke-width:0.1;stroke-miterlimit:4;stroke-dasharray:none" transform="translate(-11264, -46080)"/><path d="m 11740.385,46774.834 c 5.731,36.199 8.854,72.739 12.352,109.202 3.309,38.498 8.485,76.773 15.76,114.716 2.082,10.854 4.535,21.557 8.729,31.784 6.216,17.607 -76.785,46.911 -83.001,29.304 l 0,0 c -4.841,-14.78 -9.04,-29.677 -11.517,-45.074 -7.379,-40.512 -12.92,-81.308 -16.471,-122.344 -3.296,-33.641 -6.053,-67.456 -12.663,-100.65 -3.593,-18.415 83.218,-35.354 86.811,-16.938 z" id="path11400" inkscape:connector-curvature="0" style="fill:#782121;fill-opacity:1;fill-rule:nonzero;stroke:#f9f9f9;stroke-width:0.1;stroke-miterlimit:4;stroke-dasharray:none" transform="translate(-11264, -46080)"/><path d="m 11695.371,46732.597 c 30.842,-21.099 66.456,-32.701 102.041,-42.891 40.181,-11 81.421,-16.897 122.867,-20.265 24.578,-0.793 51.282,-3.893 74.599,6.249 5.68,2.471 10.791,6.086 16.186,9.129 33.199,27.895 31.303,67.218 27.759,106.578 -4.634,38.917 -9.305,77.822 -13.154,116.826 -2.996,33.523 -5.052,67.11 -10.046,100.413 -3.876,18.886 -1.582,9.635 -6.835,27.762 -5.551,17.836 -89.631,-8.33 -84.08,-26.166 l 0,0 c 3.201,-8.887 1.642,-3.849 4.303,-15.223 5.277,-31.61 6.721,-63.65 9.968,-95.502 3.95,-38.591 8.61,-77.1 12.787,-115.666 1.321,-15.999 1.112,-10.955 1.604,-25.004 0.363,-10.343 2.083,-3.421 8.623,-0.591 7.831,1.43 0.671,-1.098 -1.731,-1.411 -11.067,-1.442 -22.319,-0.559 -33.413,-0.251 -35.583,2.438 -70.99,7.278 -105.442,16.794 -25.184,7.236 -50.861,14.913 -72.754,29.801 -14.973,11.303 -68.255,-59.279 -53.282,-70.582 z" id="path11402" inkscape:connector-curvature="0" style="fill:#782121;fill-opacity:1;fill-rule:nonzero;stroke:#f9f9f9;stroke-width:0.1;stroke-miterlimit:4;stroke-dasharray:none" transform="translate(-11264, -46080)"/><path d="m 11765.149,46859.605 c 35.816,-11.1 73.007,-16.525 110.07,-21.479 22.519,-2.816 45.118,-4.732 67.784,-5.744 18.616,-0.621 21.544,87.138 2.927,87.759 l 0,0 c -19.811,0.376 -39.559,1.924 -59.237,4.267 -30.934,4.09 -62.159,8.34 -91.811,18.451 -17.66,6.307 -47.394,-76.946 -29.733,-83.254 z" id="path11404" inkscape:connector-curvature="0" style="fill:#782121;fill-opacity:1;fill-rule:nonzero;stroke:#f9f9f9;stroke-width:0.1;stroke-miterlimit:4;stroke-dasharray:none" transform="translate(-11264, -46080)"/><path d="m 11778.934,46963.655 c 34.824,-4.042 69.598,-8.385 104.516,-11.554 38.463,-3.578 77.034,-4.198 115.124,2.594 18.281,3.568 1.463,89.741 -16.817,86.174 l 0,0 c -29.648,-6.714 -60.312,-4.259 -90.379,-2.21 -33.651,3.113 -67.182,7.325 -100.555,12.675 -18.599,2.522 -30.488,-85.157 -11.889,-87.679 z" id="path11406" inkscape:connector-curvature="0" style="fill:#782121;fill-opacity:1;fill-rule:nonzero;stroke:#f9f9f9;stroke-width:0.1;stroke-miterlimit:4;stroke-dasharray:none" transform="translate(-11264, -46080)"/></svg>