<?xml version="1.0" encoding="utf-8" ?>

<!DOCTYPE svg PUBLIC "-//W3C//DTD SVG 1.1//EN" 
  "http://www.w3.org/Graphics/SVG/1.1/DTD/svg11.dtd">
<svg 
    xmlns="http://www.w3.org/2000/svg"
    xmlns:xlink="http://www.w3.org/1999/xlink"
    xmlns:sodipodi="http://sodipodi.sourceforge.net/DTD/sodipodi-0.dtd"
    xmlns:inkscape="http://www.inkscape.org/namespaces/inkscape"
    width="1024" height="1024" id="U5BB4">
<path d="m 10751.142,56396.756 c 5.561,21.475 10.801,43.024 16.988,64.33 2.357,7.822 4.837,15.603 7.208,23.42 5.258,17.998 -79.586,42.782 -84.843,24.784 l 0,0 c -2.245,-8.048 -4.684,-16.035 -6.999,-24.063 -5.886,-20.967 -10.938,-42.16 -17.124,-63.039 -5.395,-17.983 79.376,-43.414 84.77,-25.432 z" id="path12919" inkscape:connector-curvature="0" style="fill:#916f6f;fill-opacity:1;fill-rule:nonzero;stroke:#f9f9f9;stroke-width:0.1;stroke-miterlimit:4;stroke-dasharray:none" transform="translate(-10240, -56320)"/><path d="m 10444.335,56582.918 c 2.404,25.05 9.587,49.179 17.809,72.841 8.438,22.658 19.284,44.547 35.863,62.336 1.316,1.032 2.632,2.064 3.949,3.095 13.801,12.593 -45.561,77.654 -59.363,65.062 l 0,0 c -3.59,-3.445 -7.18,-6.89 -10.77,-10.335 -22.955,-27.156 -40.435,-57.899 -52.197,-91.547 -10.215,-29.517 -18.924,-59.542 -23.171,-90.572 -2.309,-18.642 85.572,-29.522 87.88,-10.88 z" id="path12931" inkscape:connector-curvature="0" style="fill:#916f6f;fill-opacity:1;fill-rule:nonzero;stroke:#f9f9f9;stroke-width:0.1;stroke-miterlimit:4;stroke-dasharray:none" transform="translate(-10240, -56320)"/><path d="m 10425.69,56565.964 c 31.977,-8.421 63.946,-16.872 95.987,-25.047 49.135,-12.717 99.385,-19.82 149.743,-25.444 44.462,-4.757 89.162,-6.166 133.822,-7.615 30.247,-0.472 60.452,-2.054 90.634,-3.995 21.734,-1.898 43.519,-1.723 65.287,-0.739 16.678,0.119 32.913,3.2 48.773,8.15 14.028,4.403 26.873,11.513 39.119,19.514 9.31,6.739 18.379,13.836 27.345,21.028 12.088,9.604 19.771,22.407 25.325,36.55 4.648,13.629 5.713,27.933 5.762,42.219 -0.04,23.431 -7.014,45.65 -15.281,67.299 -8.09,18.225 -3.84,9.148 -12.763,27.225 -8.221,16.691 -86.903,-22.063 -78.681,-38.754 l 0,0 c 6.695,-13.631 3.587,-6.973 9.372,-19.951 4.445,-11.506 8.693,-23.256 8.829,-35.751 0.02,-4.112 -0.08,-8.193 -0.747,-12.258 0.407,0.671 3.824,4.515 2.19,2.178 -6.564,-5.513 -13.454,-10.668 -20.208,-15.942 -5.452,-3.709 -11.184,-7.042 -17.476,-9.118 -8.407,-2.96 -17.067,-4.13 -25.995,-4.225 -18.491,-1.042 -36.992,-1.407 -55.478,0.15 -31.125,1.82 -62.274,3.228 -93.457,3.52 -42.327,1.104 -84.697,2.112 -126.843,6.522 -46.249,5.08 -92.407,11.558 -137.457,23.529 -30.852,8.14 -61.706,16.358 -92.218,25.703 -17.978,5.427 -43.562,-79.321 -25.584,-84.748 z" id="path12933" inkscape:connector-curvature="0" style="fill:#916f6f;fill-opacity:1;fill-rule:nonzero;stroke:#f9f9f9;stroke-width:0.1;stroke-miterlimit:4;stroke-dasharray:none" transform="translate(-10240, -56320)"/><path d="m 10607.469,56686.342 c 0.01,28.856 2.604,57.617 5.654,86.283 3.514,30.118 8.935,59.983 15.997,89.463 2.97,10.844 1.448,5.884 4.437,14.919 5.488,17.895 -78.871,43.765 -84.359,25.87 l 0,0 c -3.966,-13.604 -2.052,-6.555 -5.69,-21.16 -7.269,-32.955 -13.147,-66.22 -17.084,-99.746 -3.381,-30.997 -6.13,-62.054 -7.451,-93.216 -0.512,-18.772 87.984,-21.186 88.496,-2.413 z" id="path12937" inkscape:connector-curvature="0" style="fill:#916f6f;fill-opacity:1;fill-rule:nonzero;stroke:#f9f9f9;stroke-width:0.1;stroke-miterlimit:4;stroke-dasharray:none" transform="translate(-10240, -56320)"/><path d="m 10574.076,56649.779 c 27.9,-9.854 57.069,-15.153 86.16,-20.051 35.151,-5.493 70.661,-8.144 106.057,-11.52 27.197,-2.606 54.502,-3.941 81.821,-3.745 19.978,-0.153 38.828,3.56 56.873,11.978 21.995,12.805 32.192,33.478 37.492,57.446 3.423,25.808 -1.099,51.699 -5.316,77.132 -5.907,32.525 -13.294,64.759 -20.221,97.077 -3.903,18.24 -7.257,36.597 -12.239,54.582 -5.319,17.989 -90.12,-7.084 -84.801,-25.073 l 0,0 c 5.182,-15.666 7.656,-32.083 11.561,-48.084 6.772,-30.748 13.779,-61.471 19.134,-92.506 2.42,-15.41 4.915,-30.917 5.025,-46.554 1.764,0.186 5.416,3.469 8.229,4.497 7.423,1.81 -15.996,-4.589 -16.997,-2.428 -24.175,-0.568 -48.359,0.552 -72.441,2.703 -33.215,3.032 -66.542,5.434 -99.505,10.652 -23.425,4.04 -47.115,8.053 -69.379,16.664 -17.559,6.672 -49.011,-76.098 -31.453,-82.77 z" id="path12939" inkscape:connector-curvature="0" style="fill:#916f6f;fill-opacity:1;fill-rule:nonzero;stroke:#f9f9f9;stroke-width:0.1;stroke-miterlimit:4;stroke-dasharray:none" transform="translate(-10240, -56320)"/><path d="m 10614.631,56735.048 c 26.718,-3.934 53.505,-7.326 80.403,-9.742 23.116,-1.86 46.343,-1.586 69.185,2.504 18.394,3.716 0.874,90.425 -17.52,86.709 l 0,0 c -14.121,-4.141 -29.652,-1.846 -44.079,-1.811 -24.84,2.069 -49.62,5.069 -74.125,9.683 -18.528,2.941 -32.392,-84.402 -13.864,-87.343 z" id="path12941" inkscape:connector-curvature="0" style="fill:#916f6f;fill-opacity:1;fill-rule:nonzero;stroke:#f9f9f9;stroke-width:0.1;stroke-miterlimit:4;stroke-dasharray:none" transform="translate(-10240, -56320)"/><path d="m 10577.796,56827.61 c 30.018,1.009 60.041,-1.595 89.996,-3.281 35.17,-2.114 70.375,-1.094 105.472,1.59 15.827,1.343 31.591,3.299 47.309,5.563 18.584,2.93 4.773,90.535 -13.811,87.605 l 0,0 c -13.533,-2.346 -27.127,-4.337 -40.795,-5.719 -30.977,-2.833 -62.081,-3.99 -93.166,-2.078 -32.738,1.93 -65.468,4.723 -98.282,4.798 -18.769,-0.695 -15.492,-89.174 3.277,-88.478 z" id="path12943" inkscape:connector-curvature="0" style="fill:#916f6f;fill-opacity:1;fill-rule:nonzero;stroke:#f9f9f9;stroke-width:0.1;stroke-miterlimit:4;stroke-dasharray:none" transform="translate(-10240, -56320)"/><path d="m 10423.637,57001.858 c 34.886,3.431 70.005,2.793 105.006,2.367 63.134,-0.822 126.187,-3.954 189.169,-8.249 62.916,-4.847 125.762,-10.549 188.618,-16.103 39.796,-3.481 79.596,-7.184 119.54,-8.367 22.734,-1.051 45.146,2.491 67.427,6.433 5.388,0.841 10.717,1.997 16.044,3.153 18.343,4.186 -1.389,90.656 -19.732,86.47 l 0,0 c -4.13,-1.009 -8.266,-1.998 -12.46,-2.715 -16.274,-3.17 -32.593,-6.413 -49.289,-5.763 -38.176,0.564 -76.237,3.854 -114.29,6.771 -63.331,5.068 -126.639,10.429 -189.978,15.402 -64.444,4.491 -128.952,7.964 -193.545,9.43 -37.821,0.849 -75.682,1.613 -113.476,-0.598 -18.717,-1.477 -11.751,-89.709 6.966,-88.231 z" id="path12953" inkscape:connector-curvature="0" style="fill:#916f6f;fill-opacity:1;fill-rule:nonzero;stroke:#f9f9f9;stroke-width:0.1;stroke-miterlimit:4;stroke-dasharray:none" transform="translate(-10240, -56320)"/><path d="m 10725.65,56946.014 c -11.81,29.01 -26.188,56.87 -39.275,85.306 -2.595,10.634 -22.533,42.351 -17.72,53.061 3.255,-13.037 -12.754,-19.909 8.533,-8.623 27.655,12.719 54.809,26.341 81.164,41.57 29.445,17.028 56.636,37.446 82.711,59.192 20.175,17.148 39.575,35.177 59.634,52.458 2.777,3.165 6.318,4.891 9.551,6.461 16.554,8.874 -25.28,86.909 -41.834,78.035 l 0,0 c -9.101,-5.324 -17.952,-10.89 -25.631,-18.221 -19.351,-17.131 -38.242,-34.778 -57.879,-51.584 -22.168,-18.601 -45.252,-36.14 -70.312,-50.72 -25.308,-14.671 -51.658,-27.197 -78.296,-39.261 -31.632,-16.481 -54.037,-33.774 -55.841,-72.571 2.404,-30.641 13.414,-58.757 26.631,-86.363 12.069,-26.121 25.331,-51.782 35.322,-78.8 6.377,-17.658 89.619,12.401 83.242,30.06 z" id="path12955" inkscape:connector-curvature="0" style="fill:#916f6f;fill-opacity:1;fill-rule:nonzero;stroke:#f9f9f9;stroke-width:0.1;stroke-miterlimit:4;stroke-dasharray:none" transform="translate(-10240, -56320)"/><path d="m 10921.635,56928.942 c -1.829,49.899 -22.07,95.429 -44.385,139.155 -33.502,61.519 -81.158,112.755 -131.472,160.73 -39.73,36.333 -82.319,69.344 -125.21,101.819 -4.672,3.408 -9.344,6.816 -14.016,10.224 -15.075,10.79 -65.939,-60.274 -50.864,-71.064 l 0,0 c 4.29,-3.007 8.58,-6.014 12.87,-9.021 40.654,-29.733 80.818,-60.272 118.173,-94.119 43.43,-41.081 84.886,-84.793 113.796,-137.668 15.946,-31.349 31.87,-64.16 32.721,-100.056 0,-18.749 88.387,-18.749 88.387,0 z" id="path12963" inkscape:connector-curvature="0" style="fill:#916f6f;fill-opacity:1;fill-rule:nonzero;stroke:#f9f9f9;stroke-width:0.1;stroke-miterlimit:4;stroke-dasharray:none" transform="translate(-10240, -56320)"/></svg>