<?xml version="1.0" encoding="utf-8" ?>

<!DOCTYPE svg PUBLIC "-//W3C//DTD SVG 1.1//EN" 
  "http://www.w3.org/Graphics/SVG/1.1/DTD/svg11.dtd">
<svg 
    xmlns="http://www.w3.org/2000/svg"
    xmlns:xlink="http://www.w3.org/1999/xlink"
    xmlns:sodipodi="http://sodipodi.sourceforge.net/DTD/sodipodi-0.dtd"
    xmlns:inkscape="http://www.inkscape.org/namespaces/inkscape"
    width="1024" height="1024" id="U5BC4">
<path d="m 11761.708,20572.849 c 10.242,21.92 24.639,41.421 39.288,60.533 2.452,3.197 4.904,6.394 7.356,9.591 11.364,15.016 -59.425,68.587 -70.789,53.57 l 0,0 c -2.384,-3.193 -4.768,-6.386 -7.151,-9.579 -17.991,-23.9 -35.344,-48.352 -49.055,-75.025 -8.292,-17.045 72.059,-56.135 80.351,-39.09 z" id="path8481" inkscape:connector-curvature="0" style="fill:#550000;fill-opacity:1;fill-rule:nonzero;stroke:#f9f9f9;stroke-width:0.1;stroke-miterlimit:4;stroke-dasharray:none" transform="translate(-11264, -20480)"/><path d="m 11549.004,20755.237 c -17.413,22.482 -29.254,48.428 -39.792,74.649 -8.693,23.611 -15.566,47.998 -18.599,73.012 -2.673,18.693 -90.793,6.095 -88.121,-12.599 l 0,0 c 5.024,-31.956 13.437,-63.288 25.059,-93.497 13.601,-33.355 29.022,-66.049 50.141,-95.413 11.423,-15.127 82.735,38.721 71.312,53.848 z" id="path8483" inkscape:connector-curvature="0" style="fill:#550000;fill-opacity:1;fill-rule:nonzero;stroke:#f9f9f9;stroke-width:0.1;stroke-miterlimit:4;stroke-dasharray:none" transform="translate(-11264, -20480)"/><path d="m 11515.187,20733.318 c 34.278,-17.259 71.328,-27.317 108.477,-36.167 51.917,-11.963 104.89,-17.631 157.987,-20.665 47.422,-1.857 94.871,-0.01 142.309,-0.09 29.802,-0.177 59.583,-1.336 89.367,-2.285 13.361,-0.475 26.697,-1.044 40.033,0.105 35.367,4.888 48.861,30.263 48.216,63.549 -4.016,31.454 -13.614,61.888 -22.081,92.355 -8.526,30.079 -16.048,60.425 -22.443,91.025 -1.508,8.767 -3.687,17.36 -6.076,25.917 -5.408,18.169 -91.058,-7.327 -85.65,-25.496 l 0,0 c 2.179,-6.344 3.528,-12.903 4.935,-19.458 7.313,-31.957 15.594,-63.674 24.345,-95.267 6.605,-24.421 13.754,-48.823 17.715,-73.848 4.894,14.814 14.842,29.456 32.074,30.428 -9.593,-1.394 -19.389,-0.03 -29.035,-0.399 -30.51,0.413 -61.015,1.267 -91.53,1.237 -45.769,-0.206 -91.546,-2.042 -137.306,-0.513 -47.851,2.603 -95.601,7.646 -142.333,18.681 -29.943,7.295 -60.135,15.121 -87.4,29.938 -16.769,8.826 -58.372,-70.222 -41.604,-79.047 z" id="path8485" inkscape:connector-curvature="0" style="fill:#550000;fill-opacity:1;fill-rule:nonzero;stroke:#f9f9f9;stroke-width:0.1;stroke-miterlimit:4;stroke-dasharray:none" transform="translate(-11264, -20480)"/><path d="m 11510.002,20915.199 c 47.87,-5.232 95.399,-13.188 143.008,-20.344 60.606,-9.294 121.503,-16.48 182.654,-20.908 33.114,-2.356 66.311,-2.074 99.476,-1.597 1.092,-0.09 2.183,-0.175 3.275,-0.263 18.971,-0.316 20.465,89.115 1.494,89.432 l 0,0 c -2.541,-0.03 -5.082,-0.05 -7.622,-0.08 -30.219,-1.516 -60.504,-2.057 -90.732,-0.305 -58.749,3.663 -117.252,10.317 -175.403,19.479 -48.787,7.622 -97.472,15.873 -146.3,23.237 -18.805,2.089 -28.655,-86.561 -9.85,-88.65 z" id="path8487" inkscape:connector-curvature="0" style="fill:#550000;fill-opacity:1;fill-rule:nonzero;stroke:#f9f9f9;stroke-width:0.1;stroke-miterlimit:4;stroke-dasharray:none" transform="translate(-11264, -20480)"/><path d="m 11787.869,20806.245 c -25.742,38.016 -48.073,78.24 -70.753,118.123 -34.625,61.195 -68.258,122.944 -100.311,185.525 -18.274,35.282 -34.705,71.461 -51.854,107.289 -8.447,16.87 -87.977,-22.952 -79.529,-39.823 l 0,0 c 18.654,-35.484 35.499,-71.901 54.396,-107.265 32.986,-63.241 67.17,-125.842 101.762,-188.217 23.68,-42.552 47.149,-85.274 72.998,-126.563 10.804,-15.547 84.095,35.383 73.291,50.931 z" id="path8489" inkscape:connector-curvature="0" style="fill:#550000;fill-opacity:1;fill-rule:nonzero;stroke:#f9f9f9;stroke-width:0.1;stroke-miterlimit:4;stroke-dasharray:none" transform="translate(-11264, -20480)"/><path d="m 11737.2,20976.698 c 21.592,22.733 47.747,40.117 74.398,56.274 33.304,18.855 67.856,35.37 101.781,53.058 13.939,7.211 27.746,14.672 41.548,22.141 16.489,9.279 -27.255,87.009 -43.744,77.729 l 0,0 c -12.851,-7.543 -25.883,-14.773 -39.037,-21.775 -35.282,-18.876 -71.384,-36.205 -106.141,-56.054 -32.963,-20.036 -64.968,-41.753 -92.598,-68.896 -13.253,-13.532 50.539,-76.009 63.793,-62.477 z" id="path8491" inkscape:connector-curvature="0" style="fill:#550000;fill-opacity:1;fill-rule:nonzero;stroke:#f9f9f9;stroke-width:0.1;stroke-miterlimit:4;stroke-dasharray:none" transform="translate(-11264, -20480)"/><path d="m 11582.026,21151.208 c 36.619,-4.078 72.94,-10.419 109.466,-15.25 38.573,-4.684 77.358,-7.775 116.214,-8.407 15.878,0.282 8.206,-0.1 23.021,1.043 18.83,1.892 9.911,90.658 -8.919,88.766 l 0,0 c -7.568,-1.176 -3.063,-0.639 -13.562,-1.17 -35.166,-0.227 -70.293,2.562 -105.196,6.715 -37.641,5.031 -75.02,11.677 -112.59,17.185 -18.854,1.789 -27.288,-87.093 -8.434,-88.882 z" id="path8493" inkscape:connector-curvature="0" style="fill:#550000;fill-opacity:1;fill-rule:nonzero;stroke:#f9f9f9;stroke-width:0.1;stroke-miterlimit:4;stroke-dasharray:none" transform="translate(-11264, -20480)"/><path d="m 11593.48,21280.465 c 1.449,21.236 6.24,42.065 10.983,62.759 0.797,3.332 1.594,6.663 2.391,9.995 4.275,18.371 -82.33,38.527 -86.606,20.155 l 0,0 c -0.804,-3.547 -1.608,-7.094 -2.412,-10.641 -5.559,-25.094 -10.966,-50.288 -13.542,-75.898 -1.351,-18.919 87.835,-25.29 89.186,-6.37 z" id="path8495" inkscape:connector-curvature="0" style="fill:#550000;fill-opacity:1;fill-rule:nonzero;stroke:#f9f9f9;stroke-width:0.1;stroke-miterlimit:4;stroke-dasharray:none" transform="translate(-11264, -20480)"/><path d="m 11571.294,21269.201 c 31.628,-10.782 63.803,-19.73 96.29,-27.496 34.471,-8.386 68.86,-12.35 103.512,-3.948 6.098,3.29 12.97,5.435 18.294,9.869 34.365,28.616 24.91,63.926 7.027,97.564 -10.754,18.502 -24.763,34.58 -39.334,50.104 -12.943,13.64 -77.241,-47.375 -64.298,-61.015 l 0,0 c 9.514,-9.861 18.657,-20.102 25.777,-31.886 3.151,-5.251 4.166,-7.154 4.416,-6.63 0.879,1.838 0.254,4.126 0.962,6.037 3.925,10.594 9.783,19.263 21.552,21.301 -16.886,-5.723 -39.365,1.458 -57.502,4.345 -29.366,6.954 -58.521,14.99 -86.687,25.928 -17.855,6.366 -47.865,-77.807 -30.009,-84.173 z" id="path8497" inkscape:connector-curvature="0" style="fill:#550000;fill-opacity:1;fill-rule:nonzero;stroke:#f9f9f9;stroke-width:0.1;stroke-miterlimit:4;stroke-dasharray:none" transform="translate(-11264, -20480)"/><path d="m 11540.943,21381.805 c 31.105,-5.697 62.432,-9.922 93.834,-13.577 29.102,-3.231 58.315,-5.566 87.097,-11.092 18.496,-3.417 34.604,83.772 16.109,87.189 l 0,0 c -30.791,5.517 -61.907,8.365 -93.005,11.585 -28.953,3.367 -57.922,7.042 -86.389,13.447 -18.573,3.744 -36.219,-83.808 -17.646,-87.552 z" id="path8499" inkscape:connector-curvature="0" style="fill:#550000;fill-opacity:1;fill-rule:nonzero;stroke:#f9f9f9;stroke-width:0.1;stroke-miterlimit:4;stroke-dasharray:none" transform="translate(-11264, -20480)"/><path d="m 11946.494,21182.245 c 2.609,34.755 4.657,69.535 6.157,104.355 1.949,44.428 1.756,88.902 0.535,133.343 -0.727,21.78 -1.729,43.55 -2.858,65.312 -0.281,4.892 -0.479,9.79 -0.852,14.676 -1.876,18.976 -91.328,10.133 -89.453,-8.842 l 0,0 c 0.518,-3.878 0.704,-7.815 1.078,-11.714 1.671,-20.75 3.109,-41.52 4.043,-62.317 1.618,-42.132 1.879,-84.312 -0.144,-126.44 -1.651,-33.88 -3.697,-67.753 -7.63,-101.458 -1.467,-18.906 87.657,-25.821 89.124,-6.915 z" id="path8501" inkscape:connector-curvature="0" style="fill:#550000;fill-opacity:1;fill-rule:nonzero;stroke:#f9f9f9;stroke-width:0.1;stroke-miterlimit:4;stroke-dasharray:none" transform="translate(-11264, -20480)"/></svg>