<?xml version="1.0" encoding="UTF-8" standalone="no"?>
<svg
   xmlns:dc="http://purl.org/dc/elements/1.1/"
   xmlns:cc="http://creativecommons.org/ns#"
   xmlns:rdf="http://www.w3.org/1999/02/22-rdf-syntax-ns#"
   xmlns:svg="http://www.w3.org/2000/svg"
   xmlns="http://www.w3.org/2000/svg"
   xmlns:sodipodi="http://sodipodi.sourceforge.net/DTD/sodipodi-0.dtd"
   xmlns:inkscape="http://www.inkscape.org/namespaces/inkscape"
   width="1024"
   height="1024"
   id="U5BB9"
   version="1.1"
   inkscape:version="0.48.0 r9654"
   sodipodi:docname="U+5BB9.svg">
  <metadata
     id="metadata17">
    <rdf:RDF>
      <cc:Work
         rdf:about="">
        <dc:format>image/svg+xml</dc:format>
        <dc:type
           rdf:resource="http://purl.org/dc/dcmitype/StillImage" />
      </cc:Work>
    </rdf:RDF>
  </metadata>
  <defs
     id="defs15" />
  <sodipodi:namedview
     pagecolor="#ffffff"
     bordercolor="#666666"
     borderopacity="1"
     objecttolerance="10"
     gridtolerance="10"
     guidetolerance="10"
     inkscape:pageopacity="0"
     inkscape:pageshadow="2"
     inkscape:window-width="640"
     inkscape:window-height="480"
     id="namedview13"
     showgrid="false"
     inkscape:zoom="0.27441406"
     inkscape:cx="512"
     inkscape:cy="512"
     inkscape:window-x="0"
     inkscape:window-y="25"
     inkscape:window-maximized="0"
     inkscape:current-layer="U5BB9" />
  <path
     style="fill:#a02c2c;fill-opacity:1;fill-rule:nonzero;stroke:#f9f9f9;stroke-width:0.1;stroke-miterlimit:4;stroke-dasharray:none"
     d="M 474.71875 86.375 C 450.82009 86.495761 398.49782 112.6975 404.65625 126.65625 C 414.55583 147.61421 427.38928 166.86016 440.625 185.8125 C 411.4088 189.71346 382.39264 195.01694 353.78125 202.46875 C 321.98075 210.61775 290.4319 219.8835 260 232.3125 C 242.7933 239.8295 278.2309 320.92425 295.4375 313.40625 C 321.1899 301.82025 348.3728 293.902 375.625 286.75 C 420.0536 274.851 465.6107 268.82575 511.375 265.34375 C 564.8058 262.18775 618.35485 263.00025 671.84375 263.53125 C 702.28674 264.23407 732.79591 263.60972 763.1875 265.59375 C 762.79981 266.6657 762.61275 267.19981 762.09375 268.65625 C 749.83795 298.98225 733.9588 327.68125 718.1875 356.28125 C 714.6033 362.60725 711.0217 368.923 707.4375 375.25 C 698.3334 391.254 773.7709 434.16025 782.875 418.15625 C 786.6252 411.58925 790.3748 405.03475 794.125 398.46875 C 812.4041 365.80875 830.85135 333.062 844.78125 298.25 C 855.41225 268.621 864.47195 238.9945 848.40625 209.3125 C 844.48275 204.8215 841.1092 199.77575 836.625 195.84375 C 821.5521 182.62775 801.28325 180.31425 782.21875 178.90625 C 745.67985 176.54325 709.06105 177.52975 672.46875 177.09375 C 616.61015 176.84975 560.673 176.05 504.875 179.25 C 502.2563 179.44547 499.64864 179.66461 497.03125 179.875 C 512.85155 167.77198 525.13642 153.4118 520.21875 146.46875 C 507.56975 128.70275 494.41195 111.01625 485.65625 90.90625 C 484.23507 87.684813 480.23383 86.347132 474.71875 86.375 z M 206.59375 225.375 C 204.58587 225.36505 202.8843 225.927 201.625 227.15625 C 176.489 253.36325 157.01815 284.0035 139.40625 315.5625 C 123.72945 344.9585 110.23885 375.6355 101.90625 407.9375 L 100.09375 420.75 C 98.24055 439.406 186.17815 448.12375 188.03125 429.46875 C 187.89485 429.05875 187.7614 428.659 187.625 428.25 C 192.4561 403.377 204.5373 380.4 215.625 357.875 C 228.9504 333.7 243.5826 309.91875 263.4375 290.46875 C 275.61061 278.586 226.00324 225.47117 206.59375 225.375 z M 358.34375 320.09375 C 357.12986 320.11815 356.01059 320.41631 355.03125 321.0625 C 330.09365 339.4715 304.92105 357.52675 279.46875 375.21875 C 254.92265 392.35275 229.8768 408.89825 207.125 428.40625 C 194.6612 441.31425 200.61855 434.1065 189.53125 450.1875 C 179.93615 466.3145 255.9674 511.5645 265.5625 495.4375 C 262.3909 497.9725 262.6989 498.0105 265.375 494.4375 C 284.8398 476.3705 307.86085 462.51 329.21875 446.875 C 354.11145 429.614 378.72005 411.9465 403.78125 394.9375 C 418.47141 385.24469 376.55203 319.72781 358.34375 320.09375 z M 568.71875 339.75 C 549.31576 339.83475 499.68124 392.92703 511.84375 404.8125 C 530.93975 423.1905 550.881 440.6435 570.625 458.3125 C 581.7524 468.5105 576.70425 463.57775 585.84375 472.96875 C 599.02715 486.16875 661.2459 424.0115 648.0625 410.8125 C 635.4838 398.4385 641.85385 404.45075 628.96875 392.84375 C 610.16575 376.15075 591.06675 359.70925 573.65625 341.53125 C 572.39806 340.30162 570.72596 339.74123 568.71875 339.75 z M 416.78125 409.625 C 415.1941 409.57078 413.79804 409.96398 412.625 410.84375 C 383.9722 434.35175 356.86175 459.63975 329.59375 484.71875 C 290.19515 521.05275 249.9734 556.4765 210.125 592.3125 C 184.0043 616.1415 157.87275 639.9715 132.34375 664.4375 C 130.68055 666.1765 129.00695 667.91725 127.34375 669.65625 C 114.95715 683.80825 181.6759 742.2145 194.0625 728.0625 C 194.3057 727.6235 194.5693 727.189 194.8125 726.75 C 218.0667 702.162 243.35795 679.5665 268.03125 656.4375 C 307.83155 620.3505 348.1281 584.827 387.9375 548.75 C 396.18212 541.30745 404.3862 533.80642 412.65625 526.375 C 412.60844 531.37522 413.87221 535.05912 416.84375 536.5 C 456.27388 555.81678 495.58684 575.27339 535.65625 593.25 C 512.94008 595.90295 490.47464 600.32993 468.5625 607.34375 C 434.255 620.04016 401.18411 636.13648 378.1875 664.5625 C 352.69581 661.6237 320.31618 665.35562 320.0625 676.6875 C 320.4234 712.8325 324.5057 748.78825 328.625 784.65625 C 332.3366 816.05325 337.03145 847.31825 342.03125 878.53125 C 343.49383 887.05777 362.90405 888.4577 383 885.65625 C 386.26472 904.41229 392.79689 920.61832 400.9375 919.65625 C 436.5339 914.41825 472.451 911.73775 508.3125 909.09375 C 552.186 905.97975 596.1409 903.9995 640.125 903.8125 C 656.0861 903.9375 672.13755 904.4075 687.78125 907.8125 C 706.23105 911.1685 722.04355 824.19875 703.59375 820.84375 C 702.26225 820.626 700.92708 820.38748 699.59375 820.1875 C 706.0937 787.76362 711.60638 755.08438 712.96875 722 C 713.04066 698.76147 711.96407 675.55714 704.53125 654.53125 C 707.57729 655.48538 710.6085 656.459 713.65625 657.40625 C 756.28885 670.31225 799.3839 681.66825 842.3125 693.53125 C 846.2216 694.66125 850.12215 695.77725 854.03125 696.90625 C 871.98825 701.85225 895.30075 617.22625 877.34375 612.28125 C 873.16935 611.18425 868.9869 610.06475 864.8125 608.96875 C 822.7578 598.18675 780.65575 587.5545 739.03125 575.1875 C 682.42575 557.8515 626.11495 539.237 571.96875 515.125 C 535.746 498.63593 500.12866 480.93987 465.03125 462.1875 C 455.87262 440.62505 430.01369 410.07706 416.78125 409.625 z M 591.8125 677.28125 C 600.3542 678.50025 621.58495 677.563 625.21875 686 C 624.20545 685.889 623.2225 685.2835 623.3125 686.9375 C 623.9465 698.6095 625.61025 709.778 625.53125 721.625 C 624.08336 753.92809 617.86637 785.74017 611.0625 817.28125 C 574.74789 818.36119 538.47372 820.2852 502.21875 822.6875 C 475.71536 824.48095 449.21086 826.40444 422.75 828.71875 C 419.83324 810.7931 417.23337 792.82196 415.09375 774.78125 C 412.82356 754.9039 410.49084 734.92974 409.25 714.9375 C 426.37014 722.7168 443.15636 726.36527 446.9375 719.1875 C 459.5397 703.0745 479.65005 695.82825 498.28125 689.28125 C 528.61395 680.13025 560.2716 677.33125 591.8125 677.28125 z "
     id="path11585" />
</svg>
