<?xml version="1.0" encoding="UTF-8" standalone="no"?>
<svg
   xmlns:dc="http://purl.org/dc/elements/1.1/"
   xmlns:cc="http://creativecommons.org/ns#"
   xmlns:rdf="http://www.w3.org/1999/02/22-rdf-syntax-ns#"
   xmlns:svg="http://www.w3.org/2000/svg"
   xmlns="http://www.w3.org/2000/svg"
   xmlns:sodipodi="http://sodipodi.sourceforge.net/DTD/sodipodi-0.dtd"
   xmlns:inkscape="http://www.inkscape.org/namespaces/inkscape"
   width="1024"
   height="1024"
   id="U5B89"
   version="1.1"
   inkscape:version="0.48.0 r9654"
   sodipodi:docname="U+5B89.svg">
  <metadata
     id="metadata13">
    <rdf:RDF>
      <cc:Work
         rdf:about="">
        <dc:format>image/svg+xml</dc:format>
        <dc:type
           rdf:resource="http://purl.org/dc/dcmitype/StillImage" />
      </cc:Work>
    </rdf:RDF>
  </metadata>
  <defs
     id="defs11" />
  <sodipodi:namedview
     pagecolor="#ffffff"
     bordercolor="#666666"
     borderopacity="1"
     objecttolerance="10"
     gridtolerance="10"
     guidetolerance="10"
     inkscape:pageopacity="0"
     inkscape:pageshadow="2"
     inkscape:window-width="640"
     inkscape:window-height="480"
     id="namedview9"
     showgrid="false"
     inkscape:zoom="0.27441406"
     inkscape:cx="512"
     inkscape:cy="512"
     inkscape:window-x="0"
     inkscape:window-y="25"
     inkscape:window-maximized="0"
     inkscape:current-layer="U5B89" />
  <path
     style="fill:#c83737;fill-opacity:1;fill-rule:nonzero;stroke:#f9f9f9;stroke-width:0.1;stroke-miterlimit:4;stroke-dasharray:none"
     d="M 460.8125 148.5 C 439.86564 148.40544 386.0849 189.67098 395.6875 203 C 412.0162 224.68903 429.3332 245.61255 447.25 266 C 455.43192 275.90379 465.67487 285.4393 472.40625 296.3125 C 465.15454 297.3931 457.89398 298.50561 450.65625 299.6875 C 403.09765 307.66953 355.63695 316.28564 308.59375 326.9375 C 277.03575 334.62676 245.7758 343.32744 215.3125 354.6875 C 207.34861 357.57098 209.10503 376.09483 215.0625 394.96875 C 194.29271 382.25144 137.87592 375.62438 135.34375 390.4375 C 130.68465 420.5879 125.29395 450.61611 120.15625 480.6875 C 115.79555 506.61985 111.70555 532.70691 112.21875 559.0625 C 114.24485 575.23269 112.2452 565.99742 120.125 586.28125 C 129.28068 601.80013 199.59231 561.22472 197.40625 543.4375 C 198.73006 547.26235 199.64213 549.11748 200.21875 550.25 C 199.40971 531.8869 204.29454 513.41015 206.21875 495.3125 C 210.93741 467.33346 215.89438 439.37803 221.34375 411.53125 C 228.6509 427.79486 238.09827 440.52099 245.40625 437.875 C 272.58285 426.50528 300.95325 418.59448 329.46875 411.4375 C 374.30935 401.00015 419.6079 392.62561 465 385 C 508.5686 377.93373 552.40905 372.97694 596.40625 369.59375 C 624.65175 368.03574 652.98515 366.48563 681.28125 367.25 C 691.47431 367.79718 701.70721 368.90554 711.59375 371.5 C 720.23809 380.96284 731.52932 386.81543 743.75 390.59375 C 749.6731 392.16635 755.7585 392.78556 761.75 394 C 765.80795 394.91626 769.81836 396.03335 773.8125 397.1875 C 773.6806 397.59432 773.57839 397.99128 773.4375 398.40625 C 765.65 420.59656 758.276 442.90986 751.125 465.3125 C 748.0229 474.94438 745.0933 484.65722 741.6875 494.1875 C 735.666 511.97123 819.50975 540.34623 825.53125 522.5625 C 828.85165 512.34749 831.8659 502.05457 835 491.78125 C 841.7343 470.13946 848.86225 448.60799 856.71875 427.34375 C 864.43275 405.59288 872.6849 384.01943 864.625 360.90625 C 857.4216 346.05362 847.96525 333.76581 833.59375 325.1875 C 824.09365 319.66862 814.0912 315.19354 803.1875 313.3125 C 795.4524 311.02099 787.6903 308.81805 779.8125 307.0625 C 778.60542 306.80686 774.43796 305.93552 771.34375 305.375 C 762.03741 296.50653 750.98114 290.24744 738.15625 286.96875 C 720.04585 282.30411 701.50345 279.67027 682.78125 279.3125 C 651.62415 279.01372 620.48335 280.74263 589.40625 282.84375 C 577.68191 283.83313 565.9541 284.90352 554.25 286.09375 C 557.90103 283.16967 559.81545 280.0654 559.15625 276.96875 C 557.63215 272.06464 556.11785 267.18536 554.59375 262.28125 C 543.66535 241.99308 528.69935 224.69802 512.96875 207.9375 C 496.87985 189.82529 481.291 171.22767 467.5 151.28125 C 466.12819 149.3771 463.80491 148.51351 460.8125 148.5 z M 200.21875 550.25 C 200.2938 551.95341 200.38165 553.64267 200.5625 555.34375 C 201.22366 551.92901 201.21568 552.20804 200.21875 550.25 z M 776.125 310.3125 C 776.74561 310.90461 777.28641 311.5137 777.6875 312.125 C 777.17472 311.51435 776.65065 310.90452 776.125 310.3125 z M 713.90625 372.125 C 714.28078 372.23303 714.65785 372.32484 715.03125 372.4375 C 715.68865 372.6956 716.3426 372.96065 717 373.21875 C 717.022 373.3016 717.1455 373.48885 717.0625 373.46875 C 715.94832 373.2002 714.89842 372.71109 713.90625 372.125 z M 786.53125 400.5625 C 788.66184 401.16367 789.99974 401.57865 787.4375 401 C 787.79878 402.02373 787.32385 401.5977 786.53125 400.5625 z M 600.59375 406.09375 C 586.72418 406.33359 575.82754 409.19415 575 415.59375 C 572.2169 446.3002 563.3418 475.86553 553.8125 505.03125 C 550.15951 515.86408 546.20384 526.58382 542 537.1875 C 516.25446 539.07326 490.50054 541.05844 464.75 542.875 C 446.72032 544.24431 428.72953 545.75127 410.71875 547.34375 C 415.91602 535.11143 420.91978 522.79461 425.59375 510.34375 C 432.15045 492.7443 349.1817 461.83805 342.625 479.4375 C 334.0535 505.47974 322.95065 530.5815 311.59375 555.5 C 311.28063 556.17706 310.96952 556.85425 310.65625 557.53125 C 301.33373 558.61618 292.00087 559.70759 282.6875 560.875 C 242.8132 565.97561 202.9955 571.4862 163.4375 578.6875 C 145.1156 582.75902 164.3032 669.13402 182.625 665.0625 C 211.59208 658.61748 240.9089 653.97778 270.28125 649.78125 C 263.53006 668.62701 262.93528 680.95433 270.59375 704.46875 C 285.18785 729.68361 311.0849 737.27351 337.125 745.3125 C 359.81887 752.00099 381.10822 762.16283 402.0625 772.96875 C 401.08264 774.1253 400.10906 775.28441 399.125 776.4375 C 375.0835 803.84576 348.53265 828.861 322.03125 853.84375 C 306.56295 867.82627 291.4506 882.29748 274.8125 894.90625 C 267.85214 899.78878 260.98336 904.7813 254.25 909.96875 C 256.58903 908.5635 259.28948 907.70536 261.875 906.875 C 244.95393 913.57277 264.74739 997.45498 282.84375 993.25 C 291.61635 990.7067 299.95105 987.30289 307.03125 981.375 C 314.20725 975.45188 321.79345 970.07152 329.21875 964.46875 C 347.73335 949.67573 365.00015 933.44945 382.28125 917.25 C 410.82105 889.89172 439.39515 862.45984 465.21875 832.46875 C 469.92724 826.87982 474.6081 821.26028 479.21875 815.59375 C 489.0223 821.22575 498.79517 826.91477 508.5 832.71875 C 538.2352 850.58987 566.76165 870.33914 594.09375 891.6875 C 611.00235 904.90922 626.78435 919.47052 641.21875 935.34375 C 646.62405 941.3382 651.63005 947.67673 656.90625 953.78125 C 669.56305 967.75017 735.4068 908.09391 722.75 894.125 C 716.7046 888.25059 711.8636 881.19194 705.8125 875.3125 C 687.789 856.24148 668.46765 838.47018 647.59375 822.53125 C 617.31675 799.31995 585.91885 777.58026 553.15625 758 C 545.91809 753.67395 538.63131 749.42763 531.34375 745.1875 C 541.86446 729.25413 551.75336 712.90681 560.8125 696 C 574.28903 671.20332 587.31515 646.13986 599.4375 620.65625 C 601.59198 620.54962 603.75145 620.44469 605.90625 620.34375 C 628.14835 618.7821 650.20055 620.70904 672.03125 624.84375 C 687.45625 628.16613 702.95305 630.84054 718.53125 633.3125 C 726.35523 634.6682 727.66376 636.30878 719.375 632.375 C 736.50357 637.54621 782.99267 568.55007 767.9375 558.25 C 756.4986 551.82834 744.98375 547.11671 731.78125 545.8125 C 717.00795 543.6754 702.3092 541.22986 687.6875 538.1875 C 670.56732 535.19685 653.33 533.20838 636.03125 532.5625 C 636.06043 532.47855 636.09585 532.39646 636.125 532.3125 C 647.6725 497.8982 658.0403 463.04808 662.75 426.9375 C 664.32986 414.72007 627.07202 405.63588 600.59375 406.09375 z M 254.25 909.96875 C 253.26398 910.56113 252.35175 911.23165 251.53125 912.0625 C 252.43376 911.35523 253.34197 910.66831 254.25 909.96875 z M 500.3125 626.8125 C 495.40021 636.20933 490.39873 645.54383 485.3125 654.84375 C 476.39785 671.36896 466.56351 687.2983 456.0625 702.75 C 454.24041 701.74717 452.41659 700.75148 450.59375 699.75 C 422.50595 684.87592 393.94415 670.72643 363.46875 661.34375 C 361.82002 660.81587 361.67765 660.75084 360.59375 660.40625 C 363.68837 652.7006 366.9306 645.08028 370.25 637.46875 C 403.81569 634.0157 437.43442 631.15638 471.09375 628.75 C 480.83492 628.11602 490.57271 627.47234 500.3125 626.8125 z M 352.78125 683.1875 C 352.71687 684.00092 352.66249 683.98417 352.78125 683.1875 z "
     id="path9707" />
</svg>
