<?xml version="1.0" encoding="utf-8" ?>

<!DOCTYPE svg PUBLIC "-//W3C//DTD SVG 1.1//EN" 
  "http://www.w3.org/Graphics/SVG/1.1/DTD/svg11.dtd">
<svg 
    xmlns="http://www.w3.org/2000/svg"
    xmlns:xlink="http://www.w3.org/1999/xlink"
    xmlns:sodipodi="http://sodipodi.sourceforge.net/DTD/sodipodi-0.dtd"
    xmlns:inkscape="http://www.inkscape.org/namespaces/inkscape"
    width="1024" height="1024" id="U5B9E">
<path d="m 9683.3726,43177.37 c 19.1222,20.777 40.2355,39.549 61.692,57.852 14.0922,11.883 7.2265,6.02 20.6059,17.578 13.9983,12.296 -43.9612,78.284 -57.9595,65.989 l 0,0 c -12.2825,-10.988 -5.7476,-5.241 -19.6399,-17.201 -23.2837,-20.119 -46.1525,-40.704 -67.9915,-62.397 -13.1142,-13.426 50.1787,-75.247 63.293,-61.821 z" id="path12177" inkscape:connector-curvature="0" style="fill:#a02c2c;fill-opacity:1;fill-rule:nonzero;stroke:#f9f9f9;stroke-width:0.1;stroke-miterlimit:4;stroke-dasharray:none" transform="translate(-9216, -43008)"/><path d="m 9502.8012,43366.674 c -13.6281,29.622 -21.7503,61.273 -28.4005,93.067 -5.5071,27.9 -6.9046,56.305 -7.7219,84.653 -0.6353,18.532 -87.9932,15.536 -87.3578,-2.995 l 0,0 c 1.3079,-33.369 3.3225,-66.787 9.9503,-99.603 8.0308,-37.85 17.9911,-75.301 32.8383,-111.123 7.6369,-17.118 88.3286,18.883 80.6916,36.001 z" id="path12179" inkscape:connector-curvature="0" style="fill:#a02c2c;fill-opacity:1;fill-rule:nonzero;stroke:#f9f9f9;stroke-width:0.1;stroke-miterlimit:4;stroke-dasharray:none" transform="translate(-9216, -43008)"/><path d="m 9444.405,43433.085 c 18.6981,-40.529 54.2417,-64.825 92.603,-84.682 52.6957,-23.396 110.0033,-31.494 166.8415,-37.451 51.7354,-4.731 103.7036,-4.356 155.5364,-1.911 36.0346,1.66 71.8193,5.874 107.2475,12.562 21.112,4.088 41.6556,9.772 60.6586,19.895 31.688,21.287 31.78,55.487 26.787,89.45 -7.584,38.897 -19.602,76.752 -32.085,114.305 -8.927,24.954 -4.298,12.695 -13.859,36.787 -6.921,17.172 -87.8709,-15.454 -80.95,-32.626 l 0,0 c 8.3605,-20.37 4.2559,-9.812 12.2426,-31.701 10.9435,-32.688 21.4061,-65.675 27.7999,-99.604 3.825,-25.633 -0.4898,-8.237 15.3769,-0.149 -6.7678,-4.27 -22.6765,-7.825 -32.7865,-10.256 -31.2801,-6.35 -62.931,-10.253 -94.819,-11.949 -47.3849,-2.574 -94.9129,-3.219 -142.2401,1.004 -46.2734,4.753 -93.0913,10.805 -136.2979,29.048 -19.4615,9.678 -39.9247,20.506 -50.1763,40.742 -7.0988,17.369 -88.9783,-16.095 -81.8796,-33.464 z" id="path12181" inkscape:connector-curvature="0" style="fill:#a02c2c;fill-opacity:1;fill-rule:nonzero;stroke:#f9f9f9;stroke-width:0.1;stroke-miterlimit:4;stroke-dasharray:none" transform="translate(-9216, -43008)"/><path d="m 9597.9853,43425.583 c 26.7435,16.626 51.9123,35.555 76.7477,54.867 12.5308,9.701 24.7478,19.775 36.8124,30.044 14.0828,12.158 -43.228,78.545 -57.3108,66.387 l 0,0 c -10.7911,-9.473 -21.7792,-18.703 -33.1118,-27.529 -21.9086,-17.058 -44.0773,-33.966 -68.3269,-47.617 -16.1544,-9.586 29.035,-85.739 45.1894,-76.152 z" id="path12183" inkscape:connector-curvature="0" style="fill:#a02c2c;fill-opacity:1;fill-rule:nonzero;stroke:#f9f9f9;stroke-width:0.1;stroke-miterlimit:4;stroke-dasharray:none" transform="translate(-9216, -43008)"/><path d="m 9582.35,43566.336 c 21.5307,18.56 43.3672,36.75 64.6065,55.647 13.8409,12.42 -44.706,77.666 -58.5469,65.247 l 0,0 c -20.5998,-18.659 -41.8599,-36.563 -63.659,-53.808 -14.2312,-12.218 43.3682,-79.305 57.5994,-67.086 z" id="path12185" inkscape:connector-curvature="0" style="fill:#a02c2c;fill-opacity:1;fill-rule:nonzero;stroke:#f9f9f9;stroke-width:0.1;stroke-miterlimit:4;stroke-dasharray:none" transform="translate(-9216, -43008)"/><path d="m 9483.829,43698.779 c 39.0726,6.416 78.9862,5.047 118.4255,4.272 60.6762,-1.981 121.267,-5.904 181.8931,-8.993 46.7252,-2.258 93.4773,-4.019 140.1081,-7.84 10.354,-0.775 20.6276,-1.891 30.7182,-4.328 18.3312,-3.654 35.5551,82.76 17.2239,86.414 l 0,0 c -13.7636,2.463 -27.5581,4.387 -41.5572,4.966 -47.3733,3.095 -94.8218,4.585 -142.2461,6.672 -61.3936,2.943 -122.7339,6.935 -184.155,9.277 -45.8552,1.204 -92.054,2.634 -137.6202,-3.754 -18.3889,-3.651 -1.1792,-90.337 17.2097,-86.686 z" id="path12187" inkscape:connector-curvature="0" style="fill:#a02c2c;fill-opacity:1;fill-rule:nonzero;stroke:#f9f9f9;stroke-width:0.1;stroke-miterlimit:4;stroke-dasharray:none" transform="translate(-9216, -43008)"/><path d="m 9839.9739,43439.641 c -4.5728,44.619 -15.7234,88.175 -27.5075,131.333 -20.4943,70.767 -49.9459,138.421 -79.8606,205.594 -23.9129,53.162 -49.7352,105.426 -77.5026,156.673 -8.1457,15.053 -16.8516,29.779 -25.7553,44.391 -9.858,15.78 -84.2469,-30.691 -74.3889,-46.471 l 0,0 c 8.3868,-13.044 16.509,-26.249 24.0966,-39.78 27.3129,-48.801 52.4485,-98.769 75.5938,-149.685 28.2846,-62.938 56.0604,-126.407 74.7589,-192.986 9.8566,-37.537 19.5325,-75.499 22.2326,-114.354 1.1211,-18.738 89.4541,-13.454 88.333,5.285 z" id="path12189" inkscape:connector-curvature="0" style="fill:#a02c2c;fill-opacity:1;fill-rule:nonzero;stroke:#f9f9f9;stroke-width:0.1;stroke-miterlimit:4;stroke-dasharray:none" transform="translate(-9216, -43008)"/><path d="m 9722.0041,43849.372 c 28.5069,11.452 58.958,16.853 89.0083,22.541 44.0105,7.471 88.0334,14.717 131.3922,25.422 21.8586,5.319 42.7452,13.534 63.2784,22.571 16.983,7.7 -19.3148,87.757 -36.2974,80.057 l 0,0 c -15.5914,-7.346 -31.4821,-14.004 -48.2615,-18.209 -41.4771,-10.712 -83.775,-17.342 -125.9901,-24.432 -36.1016,-6.599 -72.3977,-13.347 -106.8972,-26.233 -17.3347,-7.163 16.4325,-88.88 33.7673,-81.717 z" id="path12191" inkscape:connector-curvature="0" style="fill:#a02c2c;fill-opacity:1;fill-rule:nonzero;stroke:#f9f9f9;stroke-width:0.1;stroke-miterlimit:4;stroke-dasharray:none" transform="translate(-9216, -43008)"/></svg>