<?xml version="1.0" encoding="UTF-8" standalone="no"?>
<svg
   xmlns:dc="http://purl.org/dc/elements/1.1/"
   xmlns:cc="http://creativecommons.org/ns#"
   xmlns:rdf="http://www.w3.org/1999/02/22-rdf-syntax-ns#"
   xmlns:svg="http://www.w3.org/2000/svg"
   xmlns="http://www.w3.org/2000/svg"
   xmlns:sodipodi="http://sodipodi.sourceforge.net/DTD/sodipodi-0.dtd"
   xmlns:inkscape="http://www.inkscape.org/namespaces/inkscape"
   width="1024"
   height="1024"
   id="U5BCC"
   version="1.1"
   inkscape:version="0.48.0 r9654"
   sodipodi:docname="U+5BCC.svg">
  <metadata
     id="metadata19">
    <rdf:RDF>
      <cc:Work
         rdf:about="">
        <dc:format>image/svg+xml</dc:format>
        <dc:type
           rdf:resource="http://purl.org/dc/dcmitype/StillImage" />
      </cc:Work>
    </rdf:RDF>
  </metadata>
  <defs
     id="defs17" />
  <sodipodi:namedview
     pagecolor="#ffffff"
     bordercolor="#666666"
     borderopacity="1"
     objecttolerance="10"
     gridtolerance="10"
     guidetolerance="10"
     inkscape:pageopacity="0"
     inkscape:pageshadow="2"
     inkscape:window-width="640"
     inkscape:window-height="480"
     id="namedview15"
     showgrid="false"
     inkscape:zoom="0.27441406"
     inkscape:cx="512"
     inkscape:cy="512"
     inkscape:window-x="0"
     inkscape:window-y="25"
     inkscape:window-maximized="0"
     inkscape:current-layer="U5BCC" />
  <path
     style="fill:#550000;fill-opacity:1;fill-rule:nonzero;stroke:#f9f9f9;stroke-width:0.1;stroke-miterlimit:4;stroke-dasharray:none"
     d="M 452.5625 12.71875 C 432.60337 13.224733 382.01706 60.945203 393.0625 73.28125 C 411.6432 92.78925 432.12845 110.3315 451.34375 129.1875 C 453.14016 130.89341 454.84156 132.67314 456.46875 134.5 C 441.11347 136.58385 425.78884 139.07198 410.53125 142.03125 C 374.44916 149.19061 338.2855 156.87563 303.3125 168.3125 C 288.18872 147.2935 249.70098 119.73465 240.9375 130.1875 C 216.6265 162.0025 200.7497 198.98125 185.6875 235.78125 C 171.9902 271.33725 158.17915 307.2155 155.09375 345.4375 C 154.30565 363.9305 241.4618 367.64925 242.25 349.15625 C 239.44 326.29125 259.37835 290.33825 265.28125 268.40625 C 269.29367 258.62635 273.33576 248.76664 277.6875 239.0625 C 286.31009 253.74001 296.44114 264.66195 303.1875 261.4375 C 342.453 243.0955 385.13405 234.028 427.34375 225.375 C 487.46845 213.377 548.5919 209.7945 609.75 211.1875 C 650.781 212.6115 691.38845 218.77075 731.78125 225.71875 C 735.6777 226.94777 739.75719 227.7666 743.9375 228.4375 C 731.84442 250.27317 719.06003 271.73563 706.625 293.375 C 695.031 313.525 684.16085 334.08025 673.59375 354.78125 C 665.32145 371.22125 742.82145 410.22125 751.09375 393.78125 C 760.70005 374.38325 770.5933 355.12175 781.375 336.34375 C 799.0193 305.64475 817.5895 275.46325 834.375 244.28125 C 852.0206 207.80725 855.696 174.7675 812.25 154.3125 C 790.6819 147.3385 768.20225 144.1125 745.90625 140.3125 C 701.31115 133.2235 656.49955 126.99025 611.28125 125.90625 C 583.33485 125.53043 555.38607 126.05149 527.53125 127.6875 C 538.22383 118.34514 545.00093 108.8259 541.40625 103.375 C 532.58255 90.455 523.47035 77.84675 511.96875 67.09375 C 494.07575 49.69675 475.07875 33.39075 458.34375 14.84375 C 456.98729 13.328687 455.01362 12.656612 452.5625 12.71875 z M 777.125 234.46875 C 779.173 235.17983 781.19236 235.993 783.125 236.96875 C 780.92221 236.31687 778.93934 235.46389 777.125 234.46875 z M 565.1875 273.375 C 555.7771 273.30813 546.1887 274.25125 538.1875 273.53125 C 495.9172 274.84125 453.7322 277.9945 411.6875 282.5625 C 371.0478 287.4075 330.128 292.8955 291.375 306.6875 C 274.155 313.6295 306.87375 394.78575 324.09375 387.84375 C 355.38185 375.91375 388.9093 371.8295 421.9375 367.8125 C 461.215 363.4475 500.6727 360.685 540.1875 360.125 C 545.85345 360.20073 552.3356 360.15837 558.28125 360.625 C 551.73293 357.8384 544.5604 351.04037 541.34375 347.78125 C 556.22577 357.49841 623.73428 315.00836 614.4375 299.875 C 606.6556 293.006 599.78445 284.95725 591.09375 279.28125 C 583.81465 274.52775 574.5979 273.44187 565.1875 273.375 z M 558.28125 360.625 C 560.58764 361.60647 562.80867 362.07778 564.71875 361.6875 C 565.98955 361.4275 562.19535 360.98775 560.90625 360.84375 C 560.05139 360.74831 559.16571 360.69441 558.28125 360.625 z M 522.78125 391.125 C 492.63444 391.35579 462.63434 394.46 433.34375 402.03125 C 398.73675 411.29625 364.5234 422.552 332.9375 439.75 C 328.71487 442.26933 328.76776 449.40775 331.40625 458.34375 C 314.69401 447.25839 246.04904 456.75479 247.875 473.1875 C 251.4973 499.7725 256.6898 526.0435 263.6875 551.9375 C 268.4211 570.3605 276.99195 586.8365 287.59375 602.4375 C 294.10306 611.37225 321.84302 596.68023 340.875 580.1875 C 338.51482 606.24355 347.77815 649.66831 360.875 648.03125 C 398.901 642.23725 436.9185 636.2765 474.9375 630.4375 C 492.505 630.16122 536.08121 617.96053 553.96875 622.59375 C 562.81796 619.85852 574.46149 602.52091 582.21875 584.65625 C 595.58683 587.05593 606.60405 586.37205 608.625 580.375 C 616.7969 555.45 622.17425 529.83625 624.34375 503.65625 C 626.16865 474.90625 624.90205 446.653 606.65625 422.75 C 583.97885 399.994 560.8632 391.604 528.8125 391.125 C 526.80161 391.11531 524.79104 391.10961 522.78125 391.125 z M 553.96875 622.59375 C 553.59385 622.70963 553.23945 622.81273 552.875 622.875 L 555.9375 623.21875 C 555.32409 622.98669 554.66256 622.77346 553.96875 622.59375 z M 552.875 622.875 L 549.15625 622.4375 C 550.30618 622.97715 551.5582 623.09999 552.875 622.875 z M 335.71875 469.75 C 346.29381 493.36292 367.74977 520.89128 377.78125 514.90625 C 401.86635 500.92425 428.6328 492.6365 455.4375 485.6875 C 479.171 479.8265 503.46405 477.626 527.84375 478.125 C 531.06131 477.17182 535.29503 478.16487 538.71875 479.40625 C 536.10172 480.70484 537.51099 495.52156 537.34375 497.90625 C 536.13983 510.93192 534.15617 523.84269 530.9375 536.46875 C 507.83973 538.00747 484.86611 542.13491 461.875 545.46875 C 427.27678 550.7846 392.68169 556.24449 357.90625 560.28125 C 359.65988 556.53428 359.99331 553.28749 358.28125 550.9375 C 352.20925 545.2955 350.32135 536.32725 347.46875 528.90625 C 342.00429 509.53186 338.06931 489.74523 335.71875 469.75 z M 540.4375 480.0625 C 544.97038 481.95883 547.03614 483.83451 540.78125 480.4375 C 540.65776 480.29541 540.55316 480.17624 540.4375 480.0625 z M 581.625 642 C 576.73951 642.0191 571.8462 642.16663 566.9375 642.40625 C 513.2916 645.58125 460.0994 653.46375 407.9375 666.59375 C 364.7749 677.53075 321.08995 688.64925 281.34375 709.28125 C 278.99009 710.68566 277.96165 713.53061 277.96875 717.3125 C 254.50018 716.69509 229.08256 721.48346 229.15625 731.5 C 230.15295 765.38 235.82545 798.79175 242.96875 831.84375 C 248.48555 857.97675 256.93405 883.20775 268.28125 907.34375 C 276.38725 923.95575 354.69965 885.737 346.59375 869.125 C 337.46645 851.6 331.86685 832.6585 327.46875 813.4375 C 325.40166 804.06479 323.47044 794.62332 321.8125 785.15625 C 323.4276 785.41186 324.9014 785.20482 326.1875 784.4375 C 358.3156 767.3145 394.12955 758.557 429.15625 749.5 C 437.51447 747.37211 445.8964 745.41417 454.3125 743.59375 C 452.61281 750.94318 451.2485 758.40776 450.09375 765.90625 C 414.61127 771.47681 380.25455 781.78601 353.3125 807.5625 C 341.0513 821.5155 406.83255 879.328 419.09375 865.375 C 427.22499 859.98531 436.20073 856.50273 445.53125 854.0625 C 445.82174 871.00202 446.43244 887.92545 446.96875 904.84375 C 447.0939 909.36327 447.09459 909.47771 447.15625 911.625 C 446.64483 911.71471 446.13628 911.81496 445.625 911.90625 C 401.8734 920.33425 357.9656 930.409 318.25 951.375 C 302.3031 960.868 347.053 1036.0545 363 1026.5625 C 393.6322 1009.9475 428.0525 1002.5948 461.9375 995.96875 C 511.7002 987.00675 562.213 986.94775 612.5 989.84375 C 633.8868 991.08875 654.99595 994.63975 676.03125 998.46875 C 689.45079 1000.8236 701.12937 954.20345 698.71875 929.09375 C 712.40809 930.49998 723.54142 929.00444 725.09375 922.8125 C 730.18325 901.5735 734.00685 880.095 737.28125 858.5 C 743.06975 820.302 748.98865 781.53 744.15625 742.875 C 735.72305 703.113 720.00275 676.22975 681.59375 659.21875 C 649.39366 647.24 615.82345 641.86628 581.625 642 z M 576.5625 728.1875 C 601.51608 728.13533 626.76072 730.15812 649.84375 740.1875 C 658.68545 744.6195 657.6827 750.2195 658.75 759.0625 C 660.9256 788.0295 656.26985 816.949 651.90625 845.5 C 648.88445 864.364 645.6686 883.18925 640.75 901.65625 C 640.35453 903.23369 640.66133 904.83847 641.53125 906.4375 C 633.44195 905.53525 625.3346 904.80046 617.1875 904.375 C 589.3148 902.92998 561.36317 902.28478 533.5 903.15625 C 533.47197 902.38792 533.46928 902.7194 533.4375 901.84375 C 532.74395 883.51066 531.94129 865.1422 531.71875 846.78125 C 552.04772 847.1413 572.37597 848.50677 592.625 850.3125 C 610.9869 851.7585 617.7995 765.196 599.4375 763.75 C 579.27062 762.35325 559.06177 761.23861 538.84375 760.84375 C 540.97463 753.03145 543.94476 745.50773 548.34375 738.59375 C 550.10691 736.42558 550.06547 733.32706 548.6875 729.6875 C 556.30065 729.08004 563.92477 728.58473 571.5625 728.21875 C 573.2226 728.19856 574.89893 728.19098 576.5625 728.1875 z "
     id="path23251" />
</svg>
