<?xml version="1.0" encoding="UTF-8" standalone="no"?>
<svg
   xmlns:dc="http://purl.org/dc/elements/1.1/"
   xmlns:cc="http://creativecommons.org/ns#"
   xmlns:rdf="http://www.w3.org/1999/02/22-rdf-syntax-ns#"
   xmlns:svg="http://www.w3.org/2000/svg"
   xmlns="http://www.w3.org/2000/svg"
   xmlns:sodipodi="http://sodipodi.sourceforge.net/DTD/sodipodi-0.dtd"
   xmlns:inkscape="http://www.inkscape.org/namespaces/inkscape"
   width="1024"
   height="1024"
   id="U5BA2"
   version="1.1"
   inkscape:version="0.48.0 r9654"
   sodipodi:docname="U+5BA2.svg">
  <metadata
     id="metadata16">
    <rdf:RDF>
      <cc:Work
         rdf:about="">
        <dc:format>image/svg+xml</dc:format>
        <dc:type
           rdf:resource="http://purl.org/dc/dcmitype/StillImage" />
      </cc:Work>
    </rdf:RDF>
  </metadata>
  <defs
     id="defs14" />
  <sodipodi:namedview
     pagecolor="#ffffff"
     bordercolor="#666666"
     borderopacity="1"
     objecttolerance="10"
     gridtolerance="10"
     guidetolerance="10"
     inkscape:pageopacity="0"
     inkscape:pageshadow="2"
     inkscape:window-width="640"
     inkscape:window-height="480"
     id="namedview12"
     showgrid="false"
     inkscape:zoom="0.27441406"
     inkscape:cx="512"
     inkscape:cy="512"
     inkscape:window-x="0"
     inkscape:window-y="25"
     inkscape:window-maximized="0"
     inkscape:current-layer="U5BA2" />
  <path
     style="fill:#2b0000;fill-opacity:1;fill-rule:nonzero;stroke:#f9f9f9;stroke-width:0.1;stroke-miterlimit:4;stroke-dasharray:none"
     d="M 512.3125 50.84375 C 488.44308 51.764925 437.06814 79.698938 443.6875 93.4375 C 455.348 115.6735 468.8018 136.87375 482.375 157.96875 C 476.15673 147.56178 491.27212 172.30728 496.5625 181.5 C 496.0765 180.12333 495.57975 178.75196 495.09375 177.375 C 503.571 193.12287 585.15191 177.7421 581.90625 159.8125 C 580.71075 155.6355 579.508 151.45825 578.3125 147.28125 C 571.8932 134.29525 563.8576 122.1755 556.125 109.9375 C 544.3974 92.1415 532.6729 74.25725 523.375 55.03125 C 521.84746 51.861 517.82083 50.631171 512.3125 50.84375 z M 496.5625 181.5 C 496.77202 182.0935 496.97797 182.68785 497.1875 183.28125 C 499.10446 186.10925 498.4185 184.72504 496.5625 181.5 z M 684.25 187.65625 C 648.6802 187.66725 613.1136 188.4185 577.5625 189.5625 C 539.7033 190.3605 501.8314 189.05175 464 190.96875 C 430.5599 194.10275 397.37755 199.61825 365.53125 210.65625 C 339.80905 220.27325 315.33845 232.4285 292.84375 248.3125 C 292.68505 248.42683 292.55053 248.56013 292.40625 248.6875 C 272.05091 238.08941 248.6414 231.59221 244.28125 240.3125 C 232.31115 267.5485 222.46525 295.6755 214.03125 324.1875 C 207.23745 348.4215 205.0589 373.5855 200.0625 398.1875 C 196.8386 413.8945 195.31935 429.5355 197.15625 445.4375 C 200.71497 463.48423 283.77758 447.55784 284.46875 429.59375 C 285.45288 445.09802 284.36794 417.596 286.5625 414.96875 C 290.6806 392.94775 292.9656 370.59325 298.125 348.78125 C 302.7472 332.72423 307.97017 316.78749 314.15625 301.25 C 325.65714 314.94773 338.27109 324.68011 344.59375 320.125 C 360.18095 308.308 377.51025 299.6405 395.84375 293.0625 C 420.54815 284.7385 446.1788 280.359 472.0625 278 C 507.8056 276.526 543.58065 277.42175 579.34375 276.71875 C 614.22555 275.61275 649.1008 274.95225 684 275.15625 C 707.0663 275.45625 730.1413 276.22375 753.1875 277.21875 C 768.08788 278.28248 782.99369 277.70908 797.90625 277.65625 C 793.63205 295.98041 789.95925 314.42916 786.09375 332.84375 C 782.59475 348.81575 779.6757 364.8775 777.375 381.0625 C 777.1462 382.1515 776.9163 383.25475 776.6875 384.34375 C 773.2743 402.81575 860.36805 418.87925 863.78125 400.40625 C 864.21085 397.93125 864.6329 395.475 865.0625 393 C 866.8798 378.77 869.39245 364.664 872.34375 350.625 C 876.59955 329.633 880.75855 308.63 886.09375 287.875 C 889.60705 271.145 893.17015 254.1255 891.65625 236.9375 C 888.19745 215.5635 875.82935 198.18425 853.90625 192.65625 C 847.69495 191.36125 841.4035 190.43875 835.0625 190.09375 C 824.1998 189.53675 813.3131 189.32375 802.4375 189.21875 C 787.1442 189.32675 771.8491 190.136 756.5625 189.125 C 732.4637 188.309 708.3625 187.79525 684.25 187.65625 z M 402.21875 312.71875 C 399.22605 312.78845 396.93007 313.69475 395.59375 315.625 C 377.53535 344.648 365.194 376.663 353.125 408.5 C 341.8373 440.239 330.9498 472.1955 322.9375 504.9375 C 320.3855 518.5555 317.3938 532.17025 316.6875 546.03125 C 316.66511 564.71348 403.88651 564.98235 405.5625 546.65625 C 406.20748 541.59984 408.19869 525.46894 408.59375 524.84375 C 410.24106 517.2073 412.17479 509.65141 414.25 502.125 C 435.88854 512.41789 456.91076 524.03533 477.9375 535.5 C 478.23909 535.66837 478.5421 535.83175 478.84375 536 C 475.62767 539.98931 472.45005 543.99696 469.25 548 C 445.7677 577.78 420.7236 606.24275 396.125 635.09375 C 382.2697 650.95075 368.77525 667.07825 356.28125 684.03125 C 355.13611 686.33212 344.19631 700.20682 349.875 693.21875 C 345.13394 700.05343 355.59253 716.22577 369.5625 730.46875 C 375.59373 754.39745 409.63365 798.19442 421.84375 789.75 C 442.08665 774.981 465.56875 766.32375 489.28125 758.96875 C 521.19715 749.62975 554.4089 746.6135 587.4375 744.3125 C 616.7697 742.7865 646.10595 741.64225 675.46875 740.90625 C 693.0956 740.40609 710.70667 741.49709 728.3125 742.15625 C 720.03315 764.61021 712.59135 787.36773 705.46875 810.21875 C 700.81454 824.83814 697.20393 839.72843 693.59375 854.625 C 671.0675 852.22304 648.46964 850.70199 625.78125 851.3125 C 577.85415 853.3475 530.24985 859.37525 483.21875 868.90625 C 467.70899 872.12684 452.26015 875.57924 436.84375 879.1875 C 445.50819 864.98822 450.1128 851.39357 444.21875 846.96875 C 443.41725 846.39575 442.6139 845.824 441.8125 845.25 C 432.8563 838.473 425.19825 830.38425 418.90625 821.03125 C 408.40755 805.89025 398.78975 790.024 392.78125 772.5 C 386.63745 754.751 302.9812 783.71975 309.125 801.46875 C 318.3907 826.11175 331.5762 848.84075 346.25 870.59375 C 353.26068 881.09804 361.28057 890.75956 370.125 899.625 C 362.87713 919.1628 383.78675 983.96794 399.59375 979.375 C 433.01485 969.402 466.8876 961.06375 501 953.84375 C 543.2107 945.22275 586.0028 939.614 629.0625 938.25 C 656.9195 937.75 684.54525 941.41875 712.03125 945.46875 C 719.09222 946.45122 725.20772 934.35618 729.0625 918.875 C 747.71148 924.06561 765.63139 925.13825 768.25 917.25 L 770.90625 908.65625 C 776.98445 884.55725 781.5437 860.05725 788.875 836.28125 C 797.1903 809.76925 806.11085 783.449 816.71875 757.75 C 821.31215 746.25 825.83245 734.733 830.46875 723.25 C 840.10655 695.647 830.59095 667.13925 801.40625 656.15625 C 790.12975 653.42825 778.88635 652.16375 767.28125 653.34375 C 756.77435 653.84075 746.23225 653.7785 735.71875 654.0625 C 714.85075 653.6125 694.0039 652.41975 673.125 653.21875 C 642.4522 654.09575 611.78715 655.38775 581.15625 657.21875 C 547.2607 659.73316 513.25855 663.07502 480.1875 671.0625 C 499.34383 648.29648 518.58212 625.59856 537.03125 602.25 C 543.61064 594.03997 550.22512 585.87154 556.90625 577.75 C 562.60204 580.66203 568.30822 583.57667 574.03125 586.4375 C 597.77105 598.1455 621.3849 610.0725 644.3125 623.3125 C 653.77752 628.82492 662.69364 635.21757 672.0625 640.875 C 688.54228 648.32783 737.73414 578.50352 722.65625 567.78125 C 720.91245 566.70925 719.1812 565.6345 717.4375 564.5625 C 707.187 559.4225 698.0263 551.963 687.75 546.75 C 664.49568 533.76866 640.73014 521.76933 616.78125 510.125 C 632.73552 492.5366 648.09525 474.46612 663.21875 456.15625 C 672.90605 444.63525 682.89475 433.208 690.46875 420.125 C 709.52855 380.958 689.16685 345.387 645.84375 342.625 C 628.62785 343.223 611.71965 346.52925 594.53125 347.65625 C 565.21315 349.96625 535.7912 351.10075 506.625 355.09375 C 494.1767 356.8994 481.73834 358.8682 469.375 361.25 C 467.20155 344.88675 421.08051 312.27946 402.21875 312.71875 z M 672.0625 640.875 C 671.98302 640.83906 671.89045 640.82081 671.8125 640.78125 C 672.8956 641.41492 673.9794 642.05358 675.0625 642.6875 C 674.05376 642.10438 673.05945 641.47701 672.0625 640.875 z M 641.09375 430.71875 C 642.96598 430.73063 644.82364 430.86987 646.65625 431.1875 C 644.45245 431.2449 642.32849 431.08739 640.28125 430.75 C 640.55248 430.74635 640.82322 430.71703 641.09375 430.71875 z M 563.90625 437.625 C 559.26214 443.04803 554.58195 448.42943 549.8125 453.75 C 545.29451 458.49873 540.84766 463.31498 536.4375 468.15625 C 530.86122 465.09966 525.30618 462.03262 519.75 458.9375 C 511.5541 454.45547 503.33932 449.95624 495.125 445.5 C 503.10187 444.11316 511.10511 442.9184 519.09375 441.78125 C 533.97189 439.77777 548.9384 438.60298 563.90625 437.625 z "
     id="path8946" />
</svg>
