<?xml version="1.0" encoding="utf-8" ?>

<!DOCTYPE svg PUBLIC "-//W3C//DTD SVG 1.1//EN" 
  "http://www.w3.org/Graphics/SVG/1.1/DTD/svg11.dtd">
<svg 
    xmlns="http://www.w3.org/2000/svg"
    xmlns:xlink="http://www.w3.org/1999/xlink"
    xmlns:sodipodi="http://sodipodi.sourceforge.net/DTD/sodipodi-0.dtd"
    xmlns:inkscape="http://www.inkscape.org/namespaces/inkscape"
    width="1024" height="1024" id="U5BF9">
<path d="m 9379.7146,10635.948 c 36.3179,-7.607 73.2754,-11.354 110.2296,-14.116 36.3024,-2.433 72.7289,-2.328 108.9369,1.238 17.415,3.218 39.5142,3.904 53.5325,16.586 5.6814,5.14 9.8363,11.749 14.7544,17.624 1.8839,7.987 5.1671,15.769 5.6515,23.961 1.6049,27.136 -20.6905,55.74 -33.9395,77.449 -25.6594,40.422 -50.5381,81.317 -74.7272,122.634 -24.2948,41.918 -48.0742,84.131 -72.2741,126.104 -13.4743,23.163 -27.3324,46.104 -41.8661,68.618 -10.1786,15.416 -82.848,-32.567 -72.6694,-47.982 l 0,0 c 14.1138,-20.832 27.2818,-42.282 40.1455,-63.905 24.5539,-41.838 48.4878,-84.034 72.7889,-126.019 24.298,-41.631 49.2522,-82.862 74.5176,-123.912 6.1536,-10.448 9.4785,-15.833 15.0074,-26.086 2.9026,-5.382 5.0753,-10.268 5.1845,-9.949 0.7315,2.137 0.088,4.516 0.1314,6.774 1.7576,5.014 3.5151,10.028 5.2726,15.042 21.8595,21.981 23.7938,12.446 -0.9302,9.533 -30.8732,-3.798 -62.057,-3.751 -93.0779,-1.816 -31.8574,2.396 -63.843,5.47 -94.9497,13.061 -17.997,4.607 -39.7156,-80.231 -21.7187,-84.839 z" id="path22543" inkscape:connector-curvature="0" style="fill:#550000;fill-opacity:1;fill-rule:nonzero;stroke:#f9f9f9;stroke-width:0.1;stroke-miterlimit:4;stroke-dasharray:none" transform="translate(-9216, -10240)"/><path d="m 9448.1521,10746.963 c 19.8461,29.094 44.3508,54.444 69.5636,78.856 38.1476,36.454 82.3526,65.024 128.5508,90.035 29.7675,15.236 60.4186,28.693 91.6571,40.602 17.0972,6.786 -14.8922,87.383 -31.9894,80.597 l 0,0 c -34.1385,-14.022 -67.836,-29.168 -100.5753,-46.231 -52.6923,-28.95 -103.2091,-61.779 -147.0508,-103.275 -29.3056,-28.055 -57.4924,-57.294 -81.642,-90.005 -10.7295,-15.164 60.7564,-65.744 71.486,-50.579 z" id="path22545" inkscape:connector-curvature="0" style="fill:#550000;fill-opacity:1;fill-rule:nonzero;stroke:#f9f9f9;stroke-width:0.1;stroke-miterlimit:4;stroke-dasharray:none" transform="translate(-9216, -10240)"/><path d="m 9701.7792,10639.04 c 44.6138,0.166 89.228,0.269 133.8417,0.01 64.8719,-0.06 129.6375,-3.77 194.2961,-8.694 35.046,-2.946 70.065,-6.275 104.975,-10.552 18.334,-1.918 27.377,84.508 9.043,86.427 l 0,0 c -35.918,3.144 -71.845,6.186 -107.795,8.933 -66.4794,4.699 -133.0374,8.502 -199.7016,9.031 -44.663,0.598 -89.3497,0.613 -133.9857,2.41 -18.5757,0.143 -19.2493,-87.424 -0.6735,-87.567 z" id="path22547" inkscape:connector-curvature="0" style="fill:#550000;fill-opacity:1;fill-rule:nonzero;stroke:#f9f9f9;stroke-width:0.1;stroke-miterlimit:4;stroke-dasharray:none" transform="translate(-9216, -10240)"/><path d="m 9984.3852,10452.618 c 17.1558,43.676 22.8728,90.4 27.5208,136.74 6.563,82.735 -1.527,165.523 -10.63,247.713 -8.9578,71.98 -17.9133,143.947 -24.016,216.234 -4.8681,31.865 0.1047,66.399 -10.5472,97.382 -2.0095,5.845 -5.0398,11.287 -7.5597,16.931 -8.7242,16.351 -85.8066,-24.775 -77.0824,-41.127 l 0,0 c 1.7226,7.253 3.511,-8.642 4.4354,-15.997 1.1583,-9.217 2.8883,-30.796 3.6031,-39.107 0.7391,-8.595 1.4853,-17.19 2.2279,-25.784 7.0399,-72.761 16.5131,-145.227 25.5817,-217.756 8.4238,-76.189 15.9968,-152.978 9.4142,-229.65 -4.1062,-37.57 -8.4833,-75.865 -23.4946,-110.944 -7.3472,-17.087 73.1996,-51.722 80.5468,-34.635 z" id="path22549" inkscape:connector-curvature="0" style="fill:#550000;fill-opacity:1;fill-rule:nonzero;stroke:#f9f9f9;stroke-width:0.1;stroke-miterlimit:4;stroke-dasharray:none" transform="translate(-9216, -10240)"/><path d="m 9771.0186,10817.674 c 30.4791,12.878 61.1364,25.225 91.0907,39.31 16.5534,7.791 -20.1742,85.825 -36.7277,78.034 l 0,0 c -29.0698,-13.698 -58.915,-25.493 -88.9764,-36.831 -17.0795,-7.342 17.5339,-87.856 34.6134,-80.513 z" id="path22551" inkscape:connector-curvature="0" style="fill:#550000;fill-opacity:1;fill-rule:nonzero;stroke:#f9f9f9;stroke-width:0.1;stroke-miterlimit:4;stroke-dasharray:none" transform="translate(-9216, -10240)"/></svg>