<?xml version="1.0" encoding="UTF-8" standalone="no"?>
<svg
   xmlns:dc="http://purl.org/dc/elements/1.1/"
   xmlns:cc="http://creativecommons.org/ns#"
   xmlns:rdf="http://www.w3.org/1999/02/22-rdf-syntax-ns#"
   xmlns:svg="http://www.w3.org/2000/svg"
   xmlns="http://www.w3.org/2000/svg"
   xmlns:sodipodi="http://sodipodi.sourceforge.net/DTD/sodipodi-0.dtd"
   xmlns:inkscape="http://www.inkscape.org/namespaces/inkscape"
   width="1024"
   height="1024"
   id="U5BB6"
   version="1.1"
   inkscape:version="0.48.0 r9654"
   sodipodi:docname="U+5BB6.svg">
  <metadata
     id="metadata16">
    <rdf:RDF>
      <cc:Work
         rdf:about="">
        <dc:format>image/svg+xml</dc:format>
        <dc:type
           rdf:resource="http://purl.org/dc/dcmitype/StillImage" />
      </cc:Work>
    </rdf:RDF>
  </metadata>
  <defs
     id="defs14" />
  <sodipodi:namedview
     pagecolor="#ffffff"
     bordercolor="#666666"
     borderopacity="1"
     objecttolerance="10"
     gridtolerance="10"
     guidetolerance="10"
     inkscape:pageopacity="0"
     inkscape:pageshadow="2"
     inkscape:window-width="640"
     inkscape:window-height="480"
     id="namedview12"
     showgrid="false"
     inkscape:zoom="0.27441406"
     inkscape:cx="512"
     inkscape:cy="512"
     inkscape:window-x="0"
     inkscape:window-y="25"
     inkscape:window-maximized="0"
     inkscape:current-layer="U5BB6" />
  <path
     style="fill:#550000;fill-opacity:1;fill-rule:nonzero;stroke:#f9f9f9;stroke-width:0.1;stroke-miterlimit:4;stroke-dasharray:none"
     d="M 459.53125 104.03125 C 435.40247 104.74126 383.2195 132.49337 389.78125 146.4375 C 402.86255 173.3825 419.1378 198.468 436.75 222.625 C 444.3374 232.6705 452.31564 242.40617 460.3125 252.125 C 427.37693 254.00418 394.50428 256.90007 361.75 261.0625 C 326.78776 265.51898 291.90101 270.44886 257.0625 275.78125 C 236.76399 262.35384 211.21668 252.44769 205.84375 261.375 C 189.74335 289.914 173.8692 318.5545 157.9375 347.1875 C 140.1443 379.3455 122.83315 411.77525 105.21875 444.03125 C 103.45165 447.28725 101.67335 450.5565 99.90625 453.8125 C 91.12985 470.5035 169.81735 511.8785 178.59375 495.1875 C 180.18985 492.0475 181.7788 488.891 183.375 485.75 C 200.0872 453.684 217.01825 421.72425 234.65625 390.15625 C 240.44612 379.87813 246.21774 369.58039 252.03125 359.3125 C 254.97848 363.58327 258.21698 365.95268 261.5625 365.375 C 298.5066 358.147 335.79355 352.8155 373.09375 347.8125 C 423.53785 341.0955 474.3381 338.0105 525.1875 337.0625 C 566.8751 336.8415 608.4621 339.74925 650.0625 342.03125 C 672.3718 343.39771 694.77603 343.82872 717.03125 345.9375 C 709.44839 362.655 701.06354 379.03031 692.96875 395.5 C 683.48215 415.167 673.5895 434.5865 661.9375 453.0625 C 652.0145 469.0515 727.3895 515.83175 737.3125 499.84375 C 750.232 478.77575 761.67285 456.94825 772.34375 434.65625 C 784.48895 410.11525 797.4799 385.8965 807.625 360.4375 C 816.4451 332.6225 817.2709 304.82125 795.25 282.65625 C 778.5429 268.48925 759.72845 260.467 737.71875 258.625 C 710.08905 255.85 682.31795 255.35925 654.59375 254.03125 C 610.87695 251.93025 567.1656 249.1945 523.375 249.6875 C 512.45308 249.93414 501.53893 250.25625 490.625 250.6875 C 513.29872 236.86178 539.95902 209.15678 532.0625 199.65625 C 523.9412 189.99925 515.7874 180.37475 508.125 170.34375 C 493.7738 150.87975 480.3887 130.622 470.6875 108.375 C 469.17325 105.15731 465.09943 103.8674 459.53125 104.03125 z M 734.6875 348.34375 C 738.38426 349.84639 740.0503 351.61451 734.6875 348.34375 z M 495.65625 409.5625 C 460.45779 409.71341 425.30302 412.2195 390.375 417.3125 C 345.0936 423.8785 299.93875 431.371 255.40625 442 C 237.10075 446.846 259.9445 533.12725 278.25 528.28125 C 285.85045 526.12165 293.48693 524.11089 301.15625 522.25 C 277.87815 551.9881 256.46431 583.18112 235.0625 614.28125 C 219.9454 634.76425 207.59285 657.50575 190.78125 676.71875 C 178.99235 691.50175 248.67985 747.06425 260.46875 732.28125 C 277.17275 710.21125 291.5981 686.56 307.25 663.75 C 333.4511 625.343 359.88495 586.906 390.40625 551.75 C 408.45841 532.21084 427.37866 513.19019 449.6875 498.53125 C 479.10904 496.50118 508.61973 496.582 538.09375 498.75 C 555.93435 500.555 547.58615 499.5165 563.15625 501.6875 C 581.83875 503.9835 592.6825 415.922 574 413.625 C 554.699 411.503 564.79985 412.45825 543.65625 410.78125 C 527.65344 409.91 511.65555 409.49391 495.65625 409.5625 z M 436.03125 563.3125 C 414.86819 563.50846 361.11329 605.94975 371 619.28125 C 383.8804 635.47788 398.49563 650.09613 413.34375 664.46875 C 404.29657 656.35488 395.77516 651.96136 391.09375 655.5625 C 364.98265 676.9235 341.3528 700.9715 318.875 726.0625 C 300.3816 747.5905 283.20285 770.261 267.28125 793.75 C 260.25065 805.626 263.72015 798.7225 257.59375 814.8125 C 252.96 832.54266 333.27873 854.21866 343.5 839.34375 C 343.00706 840.3895 342.74303 840.99847 342.40625 841.71875 C 355.03498 821.73689 369.50398 802.93699 384.6875 784.84375 C 403.397 763.79675 423.06895 743.45075 445.53125 726.34375 C 454.88622 719.14753 437.29872 688.94741 419.0625 670 C 424.08171 674.83063 429.11692 679.67016 434.09375 684.53125 C 459.23545 708.37825 477.6056 737.38675 493.5625 767.84375 C 493.65041 768.01915 493.72493 768.19946 493.8125 768.375 C 474.40167 749.83798 436.05095 729.96587 428.9375 741.03125 C 412.9811 768.39725 398.1866 796.39525 382.9375 824.15625 C 370.6522 845.91525 358.9943 868.2035 344.0625 888.3125 C 333.1514 903.7625 405.99525 955.2 416.90625 939.75 C 432.90195 916.332 446.5957 891.491 460.1875 866.625 C 474.32648 840.92614 488.04037 814.93842 503.65625 790.09375 C 513.91612 814.91824 521.47549 840.80181 528.1875 866.8125 C 534.4872 891.9195 539.7264 917.2745 543.9375 942.8125 C 544.28706 947.41035 545.51334 951.98972 546.09375 956.59375 C 546.03038 953.23454 545.79255 949.76821 547.4375 946.96875 C 553.1042 937.32375 561.6005 929.68625 568.6875 921.03125 C 570.46971 920.41905 572.18269 919.90093 573.84375 919.46875 C 563.94364 928.46775 553.0429 943.8437 546.21875 957.84375 C 546.31234 958.79935 546.39347 959.72751 546.40625 960.6875 C 546.41165 961.0945 546.0325 959.93725 546.0625 959.53125 C 546.09916 959.03744 546.11924 958.53703 546.125 958.03125 C 539.58163 971.51602 536.87173 983.66674 542.59375 987.40625 C 566.21985 1002.8312 578.0178 1008.852 608.875 1001.375 C 616.9457 992.229 626.7054 984.3485 633.0625 973.9375 C 640.8958 961.1095 632.85875 941.008 631.59375 927.5 C 626.49125 899.622 620.5618 871.8885 613.5 844.4375 C 610.48765 833.08562 607.33999 821.77761 603.9375 810.53125 C 625.5102 822.95778 648.26515 833.17541 670.3125 844.71875 C 690.5296 855.17075 709.35885 867.908 727.65625 881.375 C 731.92215 884.765 736.5848 887.71225 740.375 891.65625 C 754.5763 904.24625 813.92005 837.2785 799.71875 824.6875 C 793.31625 819.2645 786.77585 814.0585 779.84375 809.3125 C 757.89995 793.6405 735.42285 778.717 711.46875 766.25 C 695.16302 757.68598 678.50404 749.74836 662.25 741.09375 C 674.28052 725.44281 685.97035 709.54918 696.9375 693.125 C 713.3382 668.905 729.46 644.4805 745.9375 620.3125 C 756.0942 604.3075 680.6567 556.4335 670.5 572.4375 C 655.4984 596.4665 639.73165 620.0305 623.78125 643.4375 C 611.16155 662.1975 597.427 680.15925 583.125 697.65625 C 576.40495 704.31225 571.19297 711.39563 567.15625 719.09375 C 547.75326 683.55035 525.33028 649.85217 495.90625 621.59375 C 477.70315 603.60975 458.46155 586.39825 442.84375 566.03125 C 441.43136 564.12662 439.05454 563.28451 436.03125 563.3125 z M 546.125 958.03125 C 546.15555 957.96829 546.18803 957.90677 546.21875 957.84375 C 546.17805 957.42818 546.14606 957.00865 546.09375 956.59375 C 546.10284 957.07574 546.13042 957.55531 546.125 958.03125 z M 342.40625 841.71875 C 342.20191 842.04207 341.98462 842.36356 341.78125 842.6875 C 340.35751 846.07051 340.89912 844.9421 342.40625 841.71875 z M 643.875 764.6875 C 642.85464 767.15377 642.7881 766.71336 643.875 764.6875 z "
     id="path8625" />
</svg>
