<?xml version="1.0" encoding="UTF-8" standalone="no"?>
<svg
   xmlns:dc="http://purl.org/dc/elements/1.1/"
   xmlns:cc="http://creativecommons.org/ns#"
   xmlns:rdf="http://www.w3.org/1999/02/22-rdf-syntax-ns#"
   xmlns:svg="http://www.w3.org/2000/svg"
   xmlns="http://www.w3.org/2000/svg"
   xmlns:sodipodi="http://sodipodi.sourceforge.net/DTD/sodipodi-0.dtd"
   xmlns:inkscape="http://www.inkscape.org/namespaces/inkscape"
   width="1024"
   height="1024"
   id="U5BD2"
   version="1.1"
   inkscape:version="0.48.0 r9654"
   sodipodi:docname="U+5BD2.svg">
  <metadata
     id="metadata19">
    <rdf:RDF>
      <cc:Work
         rdf:about="">
        <dc:format>image/svg+xml</dc:format>
        <dc:type
           rdf:resource="http://purl.org/dc/dcmitype/StillImage" />
      </cc:Work>
    </rdf:RDF>
  </metadata>
  <defs
     id="defs17" />
  <sodipodi:namedview
     pagecolor="#ffffff"
     bordercolor="#666666"
     borderopacity="1"
     objecttolerance="10"
     gridtolerance="10"
     guidetolerance="10"
     inkscape:pageopacity="0"
     inkscape:pageshadow="2"
     inkscape:window-width="640"
     inkscape:window-height="480"
     id="namedview15"
     showgrid="false"
     inkscape:zoom="0.27441406"
     inkscape:cx="512"
     inkscape:cy="512"
     inkscape:window-x="0"
     inkscape:window-y="25"
     inkscape:window-maximized="0"
     inkscape:current-layer="U5BD2" />
  <path
     style="fill:#550000;fill-opacity:1;fill-rule:nonzero;stroke:#f9f9f9;stroke-width:0.1;stroke-miterlimit:4;stroke-dasharray:none"
     d="M 482.375 96.625 C 460.88325 97.21142 408.40124 135.05148 417.28125 148.3125 C 433.05645 170.7855 451.4668 191.2185 467.5625 213.4375 C 478.4863 228.2845 548.4862 176.7845 537.5625 161.9375 C 521.9517 140.9685 504.56105 121.36075 490.03125 99.59375 C 488.57814 97.423766 485.89183 96.52904 482.375 96.625 z M 557.4375 242.71875 C 535.1195 242.76325 512.80515 243.0715 490.5 243.875 C 438.9949 246.503 387.3531 251.42525 338 267.40625 C 311.99611 276.36627 286.21584 286.30151 262.21875 299.625 C 246.75383 278.90358 220.07096 256.87141 211.59375 264.84375 C 186.69685 289.11075 170.6106 319.6405 157 351.1875 C 146.1331 378.9785 135.71405 407.02 127.59375 435.75 C 123.63695 447.396 123.98655 458.56725 124.59375 470.65625 C 127.4006 488.31315 207.2944 476.34115 211.28125 459.09375 C 211.20541 460.73064 211.11444 462.40853 211.0625 463.25 C 211.19476 461.86683 211.43971 460.05103 211.8125 458.5 C 218.1399 433.479 227.3679 409.2665 236.5625 385.1875 C 239.84156 377.41119 243.28626 369.64562 247.1875 362.15625 C 261.09125 379.44549 278.8834 393.93921 286.1875 388 C 306.94508 371.2437 331.5461 360.85132 356.46875 351.96875 C 353.06519 353.99277 351.0779 356.45477 351.125 359.28125 C 352.48462 382.39393 354.13195 405.47029 355.8125 428.5625 C 341.27376 432.24977 326.76042 436.02189 312.25 439.84375 C 294.3435 444.67375 317.0935 529.08 335 524.25 C 343.93836 521.47671 352.91958 518.78236 361.90625 516.1875 C 362.44315 523.37746 363.03652 530.54624 363.71875 537.71875 C 328.19919 543.96009 292.85018 551.38628 258.71875 563.21875 C 241.41555 569.97075 273.22805 651.53325 290.53125 644.78125 C 325.69115 631.33325 362.94255 624.54375 399.90625 618.21875 C 436.11864 612.33451 472.64413 610.44945 509.21875 610.625 C 510.69737 625.23047 512.48207 639.78185 514.34375 654.34375 C 445.12609 666.53074 376.09304 679.73173 307.375 694.5 C 257.9077 705.522 208.1952 716.5795 160.5625 734.1875 C 143.4299 741.3155 177.02365 822.0655 194.15625 814.9375 C 222.41524 803.41936 251.81629 795.08679 281.4375 787.75 C 267.61072 811.17235 254.05877 834.79629 244.65625 860.375 C 237.97125 881.009 242.02385 893.5155 249.03125 913.1875 C 257.06931 928.76352 326.72004 893.95362 327.5625 876.0625 C 328.17855 879.00262 328.71624 881.7757 328.59375 884.1875 C 335.63295 862.87642 350.09688 844.24874 360.21875 824.46875 C 372.72225 804.07575 385.2431 783.303 401.9375 766 C 403.31128 764.69668 403.90457 762.84732 403.875 760.625 C 453.59858 750.60598 503.52624 741.53965 553.53125 733.03125 C 572.1108 729.98242 590.71713 727.11841 609.34375 724.375 C 620.0774 735.35402 631.02105 746.11437 642 756.84375 C 659.937 774.94975 680.0997 790.61275 698.9375 807.71875 C 712.7655 820.02875 770.79665 754.84125 756.96875 742.53125 C 744.52092 731.62151 731.60572 721.22318 719.1875 710.28125 C 726.00874 709.54976 732.82863 708.83062 739.65625 708.15625 C 763.69902 707.7762 789.6408 701.84419 813.5 707.8125 C 813.33038 707.84127 813.16764 707.85885 813 707.875 C 813.53965 707.9511 814.08534 708.0176 814.625 708.09375 C 814.26203 707.99695 813.8952 707.9037 813.53125 707.8125 C 831.31983 704.71619 859.69547 632.99063 843.5625 626.34375 C 839.0632 624.89475 834.5618 623.449 830.0625 622 C 797.1013 617.007 763.7085 619.50275 730.6875 622.96875 C 687.11105 627.81784 643.65924 633.66772 600.3125 640.25 C 599.06837 631.79026 597.87365 623.32387 596.78125 614.84375 C 606.84071 615.75142 616.87919 616.77331 626.90625 618 C 645.39295 619.847 654.1117 532.722 635.625 530.875 C 620.02055 529.63735 604.40483 528.46193 588.78125 527.5 C 587.47502 509.63716 586.23163 491.77065 584.9375 473.90625 C 597.05344 473.49577 609.18816 473.46814 621.34375 473.875 C 639.04553 476.16349 657.76256 476.29488 675.0625 481.34375 C 692.77667 481.78445 724.72491 407.63447 708.375 400.40625 C 705.107 399.24825 701.8306 398.0955 698.5625 396.9375 C 673.8527 391.4715 648.51765 389.04875 623.28125 387.71875 C 608.13507 387.5094 593.02401 387.83095 577.9375 388.59375 C 576.01711 368.58403 573.80747 348.6022 571.03125 328.6875 C 588.50242 328.78601 605.97048 329.05358 623.4375 329.28125 C 654.1597 329.47925 684.88535 330.80775 715.21875 335.84375 C 726.3002 337.88057 737.11401 340.8975 747.78125 344.4375 C 745.85462 348.76462 743.80378 353.28529 742.125 357 C 734.698 373.355 727.21085 389.66225 719.03125 405.65625 C 710.65065 422.13025 788.3069 461.63025 796.6875 445.15625 C 805.3724 428.00625 813.41765 410.57775 821.40625 393.09375 C 832.17315 369.60475 844.20575 346.171 841.59375 319.5 C 832.99765 290.414 822.36105 279.098 794.65625 268.25 C 773.15745 260.569 751.28985 253.79125 728.71875 250.03125 C 694.17485 244.82525 659.3039 243.0125 624.375 243.0625 C 602.06085 242.87 579.7555 242.67425 557.4375 242.71875 z M 675.0625 481.34375 C 674.92818 481.34041 674.7889 481.32448 674.65625 481.3125 C 675.6117 481.56054 676.5758 481.81498 677.53125 482.0625 C 676.71763 481.80008 675.88277 481.58314 675.0625 481.34375 z M 674.65625 481.3125 C 674.0445 481.15369 673.42425 481.00262 672.8125 480.84375 C 673.40282 481.10473 674.02461 481.25545 674.65625 481.3125 z M 813 707.875 C 812.04436 707.74023 811.08058 707.60296 810.125 707.46875 C 811.0371 707.84454 812.00674 707.97068 813 707.875 z M 328.59375 884.1875 C 328.11011 885.6517 327.6598 887.13427 327.25 888.625 C 328.1333 887.33518 328.50982 885.84001 328.59375 884.1875 z M 211.0625 463.25 C 210.8709 465.25377 210.8973 465.92617 211.0625 463.25 z M 493.3125 329.65625 C 487.25373 332.9989 483.66669 336.84294 484.34375 340.84375 C 487.80004 359.76853 490.33575 378.81892 492.40625 397.9375 C 480.37541 399.9514 468.35934 402.24109 456.40625 404.8125 C 451.19518 405.93224 446.01408 407.06236 440.8125 408.21875 C 439.84713 391.42746 439.06189 374.62467 438.71875 357.8125 C 438.50736 345.13085 397.68087 341.78665 371.84375 346.84375 C 411.2896 335.12631 452.37877 331.68727 493.3125 329.65625 z M 764.65625 350.46875 C 770.00244 352.73919 768.23378 353.61728 764.65625 350.46875 z M 499.84375 483 C 500.87025 497.03635 501.84017 511.08258 502.78125 525.125 C 484.78555 525.26664 466.79068 525.84836 448.84375 527.03125 C 447.8522 516.1376 447.15204 505.20445 446.46875 494.28125 C 455.77179 492.11366 465.10273 489.97495 474.4375 487.9375 C 482.89015 486.12253 491.34485 484.49635 499.84375 483 z M 488.5 764.5625 C 470.87867 763.88859 444.49873 841.69891 461.5 847.59375 C 488.3635 856.85375 515.07775 866.5025 541.96875 875.6875 C 555.47405 880.2255 569.00665 884.69475 582.09375 890.34375 C 599.24035 897.36975 632.36545 816.526 615.21875 809.5 C 600.29175 803.6 585.0887 798.4875 569.8125 793.5625 C 543.0649 784.5645 516.4893 775.113 490.1875 764.875 C 489.63907 764.68484 489.06843 764.58424 488.5 764.5625 z M 439.1875 880.65625 C 421.49159 881.41837 391.83987 955.3218 408.21875 962.09375 C 437.85985 973.08375 468.4479 981.2105 498.9375 989.4375 C 535.1342 999.1615 571.3254 1008.8705 607.25 1019.5625 C 624.3081 1025.0705 616.2081 1022.2798 631.5625 1027.8438 C 648.9588 1033.9457 677.73995 951.94575 660.34375 945.84375 C 641.69025 939.47375 651.27935 942.593 631.53125 936.5 C 595.00755 926.009 558.29965 916.21825 521.65625 906.15625 C 494.74795 898.73325 467.61845 891.63275 441.71875 881.09375 C 440.91323 880.7607 440.05779 880.61877 439.1875 880.65625 z "
     id="path24403" />
</svg>
