<?xml version="1.0" encoding="UTF-8" standalone="no"?>
<svg
   xmlns:dc="http://purl.org/dc/elements/1.1/"
   xmlns:cc="http://creativecommons.org/ns#"
   xmlns:rdf="http://www.w3.org/1999/02/22-rdf-syntax-ns#"
   xmlns:svg="http://www.w3.org/2000/svg"
   xmlns="http://www.w3.org/2000/svg"
   xmlns:sodipodi="http://sodipodi.sourceforge.net/DTD/sodipodi-0.dtd"
   xmlns:inkscape="http://www.inkscape.org/namespaces/inkscape"
   width="1024"
   height="1024"
   id="U5B57"
   version="1.1"
   inkscape:version="0.48.0 r9654"
   sodipodi:docname="U+5B57.svg">
  <metadata
     id="metadata13">
    <rdf:RDF>
      <cc:Work
         rdf:about="">
        <dc:format>image/svg+xml</dc:format>
        <dc:type
           rdf:resource="http://purl.org/dc/dcmitype/StillImage" />
      </cc:Work>
    </rdf:RDF>
  </metadata>
  <defs
     id="defs11" />
  <sodipodi:namedview
     pagecolor="#ffffff"
     bordercolor="#666666"
     borderopacity="1"
     objecttolerance="10"
     gridtolerance="10"
     guidetolerance="10"
     inkscape:pageopacity="0"
     inkscape:pageshadow="2"
     inkscape:window-width="640"
     inkscape:window-height="480"
     id="namedview9"
     showgrid="false"
     inkscape:zoom="0.27441406"
     inkscape:cx="512"
     inkscape:cy="512"
     inkscape:window-x="0"
     inkscape:window-y="25"
     inkscape:window-maximized="0"
     inkscape:current-layer="U5B57" />
  <path
     style="fill:#2b1100;fill-opacity:1;fill-rule:nonzero;stroke:none"
     d="M 465.75 108.9375 C 444.02013 109.17886 390.36728 146.54656 399.125 160.09375 C 411.9497 178.08875 422.5393 197.45475 431.8125 217.46875 C 433.009 220.52975 434.20965 223.59525 435.40625 226.65625 C 442.34775 243.94625 523.84785 211.19725 516.90625 193.90625 C 515.05245 189.36825 513.19765 184.8505 511.34375 180.3125 C 500.24865 156.7145 487.7027 133.9105 473.4375 112.0625 C 472.00442 109.84569 469.3058 108.898 465.75 108.9375 z M 589.8125 231.375 C 568.24096 231.40342 546.6717 232.06531 525.125 233.84375 C 466.2879 237.90375 407.619 243.98525 349.1875 252.03125 C 313.2229 256.83525 277.30465 262.375 241.09375 265 C 222.42165 266.949 231.60915 354.97925 250.28125 353.03125 C 287.32415 348.80225 324.1642 342.9865 361.0625 337.6875 C 417.4276 329.4025 474.06895 323.52625 530.90625 319.78125 C 577.09175 316.14425 623.34485 318.29725 669.53125 320.28125 C 700.39655 321.28325 731.2758 321.67 762 325 C 770.13639 326.11218 778.2527 327.39928 786.28125 329.09375 C 781.18303 344.91962 774.36128 360.1493 767.71875 375.375 C 761.74615 388.762 755.8975 402.20925 750.0625 415.65625 C 742.6531 432.68625 822.93425 467.5935 830.34375 450.5625 C 836.15905 437.2335 842.01715 423.9295 848.03125 410.6875 C 857.73865 388.7795 867.54395 366.80675 874.15625 343.71875 C 879.21515 325.02975 882.9771 306.52925 876.5625 287.53125 C 864.2143 265.01225 852.7184 255.7755 828.5625 248.6875 C 809.6489 243.3155 790.2998 239.73175 770.75 237.59375 C 738.2354 234.54675 705.6307 234.135 673 233.375 C 645.27573 232.3535 617.54734 231.33846 589.8125 231.375 z M 164.59375 295.15625 C 154.27086 295.39474 146.65595 297.70253 145.59375 302.875 C 141.05835 331.322 137.3918 359.90375 133.6875 388.46875 C 131.0144 406.89575 129.71695 425.43225 130.09375 444.03125 C 130.93365 462.72925 219.0899 458.7605 218.25 440.0625 C 216.7857 426.6175 219.1077 413.08275 220.4375 399.71875 C 223.8465 373.31175 227.17605 346.8275 232.28125 320.6875 C 234.99575 307.46897 190.97446 294.54678 164.59375 295.15625 z M 556.6875 356.3125 C 547.8365 356.38145 538.98021 356.88838 530.125 357.96875 C 497.1119 361.72875 464.40225 367.45525 431.59375 372.65625 C 401.15065 377.86225 370.5795 383.65825 341.8125 395.28125 C 324.7064 403.04125 361.30015 483.66625 378.40625 475.90625 C 400.06995 466.77125 423.37605 462.78525 446.40625 458.78125 C 477.41095 453.79925 508.3747 448.30775 539.625 445.09375 C 548.58373 444.05461 557.50372 443.94458 566.40625 444.4375 C 563.31452 447.58407 560.22888 450.7485 557.15625 453.90625 C 539.88455 471.78425 523.4313 490.42575 505.6875 507.84375 C 493.0414 519.83975 479.8958 531.255 466.6875 542.625 C 464.255 544.599 461.99475 546.79925 459.46875 548.65625 C 455.73897 551.72777 456.70192 558.54903 460.40625 566.75 C 414.24926 568.79576 368.10766 571.04495 321.96875 573.46875 C 275.01685 576.07175 228.0793 578.698 181.1875 582.25 C 162.5348 584.102 171.25365 672.0395 189.90625 670.1875 C 235.47595 664.8065 281.31655 662.061 327.09375 659.125 C 368.03207 656.65399 408.99893 654.51336 449.96875 652.65625 C 450.35038 656.67853 450.7406 660.70134 451.09375 664.71875 C 453.31415 700.17675 455.47365 735.6305 458.09375 771.0625 C 459.98365 795.0995 461.6494 819.16325 461.8125 843.28125 C 461.73444 847.41701 461.7644 851.56446 461.125 855.59375 C 460.86562 855.56337 460.66182 855.52618 460.28125 855.5 C 441.49205 855.096 439.5857 943.6585 458.375 944.0625 C 475.0349 944.2365 491.27825 941.92825 505.96875 933.53125 C 521.58605 924.39325 534.8343 912.60825 541.5 895.28125 C 547.7284 878.08125 550.6374 860.2865 549.9375 841.9375 C 549.3626 816.0205 547.4991 790.16575 545.25 764.34375 C 542.3855 728.70075 540.13455 693.0125 538.09375 657.3125 C 537.86877 654.58432 537.61349 651.85312 537.375 649.125 C 537.42696 649.12316 537.47929 649.12684 537.53125 649.125 C 591.98575 647.047 646.4658 647.38525 700.75 652.28125 C 720.3826 654.12325 739.7888 657.5485 759.125 661.3125 C 777.4545 664.6675 793.29825 578.26225 774.96875 574.90625 C 752.74115 571.06525 730.4413 567.58525 707.9375 565.78125 C 663.77522 562.40883 619.50751 561.50415 575.25 562.375 C 590.37934 546.9399 604.95962 530.96714 620 515.4375 C 633.93 501.3185 648.3093 487.5535 660.75 472.0625 C 673.1959 455.7395 683.01685 438.484 680.96875 417.125 C 675.94345 395.325 664.83765 378.60475 643.46875 369.84375 C 629.67645 364.78475 615.34315 361.67275 600.84375 359.34375 C 586.16556 357.3425 571.43917 356.19759 556.6875 356.3125 z M 608.4375 451.4375 C 609.21598 451.70735 610.00169 451.9707 610.75 452.28125 C 609.94202 452.03927 609.17668 451.76196 608.4375 451.4375 z M 459.96875 860.34375 C 459.64472 861.33215 459.27024 862.32246 458.8125 863.28125 C 458.59099 862.56723 459.1739 861.46224 459.96875 860.34375 z "
     id="path15681" />
</svg>
