<?xml version="1.0" encoding="UTF-8" standalone="no"?>
<svg
   xmlns:dc="http://purl.org/dc/elements/1.1/"
   xmlns:cc="http://creativecommons.org/ns#"
   xmlns:rdf="http://www.w3.org/1999/02/22-rdf-syntax-ns#"
   xmlns:svg="http://www.w3.org/2000/svg"
   xmlns="http://www.w3.org/2000/svg"
   xmlns:sodipodi="http://sodipodi.sourceforge.net/DTD/sodipodi-0.dtd"
   xmlns:inkscape="http://www.inkscape.org/namespaces/inkscape"
   width="1024"
   height="1024"
   id="U5B66"
   version="1.1"
   inkscape:version="0.48.0 r9654"
   sodipodi:docname="U+5B66.svg">
  <metadata
     id="metadata14">
    <rdf:RDF>
      <cc:Work
         rdf:about="">
        <dc:format>image/svg+xml</dc:format>
        <dc:type
           rdf:resource="http://purl.org/dc/dcmitype/StillImage" />
      </cc:Work>
    </rdf:RDF>
  </metadata>
  <defs
     id="defs12" />
  <sodipodi:namedview
     pagecolor="#ffffff"
     bordercolor="#666666"
     borderopacity="1"
     objecttolerance="10"
     gridtolerance="10"
     guidetolerance="10"
     inkscape:pageopacity="0"
     inkscape:pageshadow="2"
     inkscape:window-width="640"
     inkscape:window-height="480"
     id="namedview10"
     showgrid="false"
     inkscape:zoom="0.27441406"
     inkscape:cx="512"
     inkscape:cy="512"
     inkscape:window-x="0"
     inkscape:window-y="25"
     inkscape:window-maximized="0"
     inkscape:current-layer="U5B66" />
  <path
     style="fill:#916f6f;fill-opacity:1;fill-rule:nonzero;stroke:#f9f9f9;stroke-width:0.1;stroke-miterlimit:4;stroke-dasharray:none"
     d="M 674.53125 123.5625 C 672.52344 123.62892 670.86852 124.22312 669.65625 125.5 C 648.15235 149.384 629.1041 175.33975 609.9375 201.09375 C 605.9538 206.46375 601.95245 211.8175 597.96875 217.1875 C 586.94195 231.9955 656.75445 283.96425 667.78125 269.15625 C 671.74165 263.85825 675.69585 258.57925 679.65625 253.28125 C 696.89345 230.38625 713.86155 207.08775 733.84375 186.46875 C 745.56238 174.12472 693.9401 122.92044 674.53125 123.5625 z M 425.0625 164.75 C 399.62049 164.71545 368.88017 171.73053 369.78125 182.84375 C 373.94195 217.18875 390.6328 246.82375 410.5625 274.34375 L 422.4375 288.375 C 434.4959 302.494 501.02715 245.65025 488.96875 231.53125 C 486.33475 228.50225 483.72775 225.4665 481.09375 222.4375 C 470.53045 208.4545 460.5491 193.4225 458 175.6875 C 457.38347 168.08372 442.47019 164.77364 425.0625 164.75 z M 247.875 166.0625 C 227.72054 165.59103 174.37363 211.23344 184.90625 224.21875 C 205.93675 250.63875 230.4189 273.77475 256.5 295.09375 C 277.2357 310.27175 266.74945 303.08675 287.84375 316.71875 C 303.49745 326.67275 350.43495 252.8915 334.78125 242.9375 C 319.28415 233.3045 327.0762 238.46175 311.5 227.34375 C 289.9758 210.03275 269.8968 190.92275 253.625 168.46875 C 252.33153 166.87406 250.35011 166.1204 247.875 166.0625 z M 791.25 282.34375 C 763.33745 282.49044 735.49869 284.76937 707.65625 286.6875 C 664.44505 290.0485 621.3098 294.6105 578.6875 302.6875 C 527.8087 312.2595 477.3604 323.84375 427.4375 337.59375 C 388.1201 348.26275 348.9384 359.388 310 371.375 C 292.1261 377.083 319.03235 461.332 336.90625 455.625 C 374.12875 442.302 412.1605 431.4525 450.25 420.9375 C 497.8455 407.7345 546.0015 396.80475 594.5625 387.84375 C 634.1101 380.52675 674.1114 376.50775 714.1875 373.59375 C 738.71783 372.18452 763.26526 370.10846 787.84375 370.25 C 787.83887 370.27937 787.84874 370.31463 787.84375 370.34375 C 786.07575 380.66075 785.7248 380.98475 782.9375 391.46875 C 775.0027 419.30975 762.87875 445.64625 749.84375 471.40625 C 741.51385 487.99125 819.70145 527.2735 828.03125 510.6875 C 843.61905 479.4505 858.05175 447.49975 867.65625 413.84375 C 875.96915 382.25175 883.4281 349.78425 868.8125 318.78125 C 865.1859 313.92025 862.1384 308.5615 857.9375 304.1875 C 841.9677 287.5585 818.8203 283.05075 796.8125 282.34375 C 794.95087 282.33387 793.11084 282.33397 791.25 282.34375 z M 209.5 362.75 C 203.26509 362.83185 198.77154 364.37083 197.4375 367.9375 C 185.983 403.1975 175.02885 438.60575 165.15625 474.34375 C 156.36905 508.93975 146.69365 543.31 138.28125 578 C 135.03635 591.576 136.47205 584.924 133.84375 597.875 C 130.45405 616.296 217.2978 632.296 220.6875 613.875 C 222.1201 604.567 221.1884 609.8915 223.75 597.9375 C 231.2655 564.2565 240.40425 530.97125 248.90625 497.53125 C 258.12935 464.28325 268.30815 431.30125 280.21875 398.90625 C 285.45239 384.91392 233.96003 362.42889 209.5 362.75 z M 541.40625 479.03125 C 513.24492 479.07728 485.14237 482.23425 457.3125 486.9375 C 417.7255 494.2015 377.65565 501.83925 340.71875 518.40625 C 324.14695 527.18725 365.52195 605.31325 382.09375 596.53125 C 410.81515 583.67125 442.19695 578.018 472.96875 572.375 C 487.30085 570.31701 501.78566 568.24129 516.3125 567.09375 C 501.25646 582.16175 485.80911 596.80553 471.3125 612.4375 C 458.4758 628.3195 442.96235 645.26125 439.09375 666.15625 C 438.00815 672.02025 438.1904 678.054 437.75 684 C 438.03592 685.88498 438.41175 687.68444 438.8125 689.4375 C 409.54758 693.42717 380.43642 698.59144 351.625 705.46875 C 308.4056 715.65375 264.99725 726.25775 224.21875 744.21875 C 207.46795 752.66875 247.28035 831.6365 264.03125 823.1875 C 298.20545 807.1305 335.1579 798.1875 371.6875 789.3125 C 421.16522 777.13341 471.6549 770.98848 522.34375 767.1875 C 523.44149 769.22086 524.50839 771.32589 525.5 773.5 C 533.9051 795.713 536.49935 819.497 538.46875 843 C 539.78275 863.501 539.8665 884.1095 537.875 904.5625 C 539.26745 905.65115 536.34386 912.69729 534.375 916.65625 C 534.74412 916.26391 535.09963 915.86109 535.46875 915.46875 C 526.62242 931.18923 568.66287 997.97793 583.78125 988.71875 C 588.57605 985.12875 593.36155 981.5275 598.15625 977.9375 C 614.08555 958.7925 623.663 937.25025 625.6875 912.15625 C 627.7185 886.59325 627.70545 860.92275 625.78125 835.34375 C 623.52433 810.46793 620.40826 785.47766 613.59375 761.46875 C 636.41075 759.61904 659.19164 757.34611 681.9375 754.625 C 707.32155 751.72666 732.63482 746.7824 758.25 747.0625 C 756.53735 746.42823 754.83704 745.60639 753.59375 744.96875 C 770.66924 750.13253 819.52331 684.10758 805.0625 673.21875 C 791.1261 665.11575 778.85295 658.66825 762.21875 659.03125 C 731.66145 659.25725 701.47145 663.87425 671.28125 668.28125 C 634.22208 672.98422 597.0556 676.32003 559.78125 678.5625 C 553.99257 674.10581 547.74554 670.09301 540.96875 666.625 C 556.72208 649.87537 573.69634 634.37789 589.625 617.78125 C 609.2341 596.83325 629.5723 575.86 634.8125 546.5 C 634.1222 538.832 634.94465 530.87 632.71875 523.5 C 624.13145 495.069 596.1187 483.76275 569.5625 480.09375 C 560.16953 479.359 550.79336 479.01591 541.40625 479.03125 z M 758.25 747.0625 C 760.34402 747.83801 762.45461 748.34337 763.8125 747.84375 C 764.5326 747.57875 762.3537 747.366 761.625 747.125 C 760.49559 747.09176 759.37823 747.07484 758.25 747.0625 z M 534.375 916.65625 C 533.99089 917.06452 533.60285 917.46673 533.21875 917.875 C 532.20611 920.55236 533.08668 919.24679 534.375 916.65625 z M 559.15625 566.6875 C 561.1764 567.16965 568.14394 569.38785 566.84375 569.78125 C 564.75251 570.4133 562.39681 569.34749 560.09375 567.5 C 560.45903 567.54417 560.82233 567.57835 561.1875 567.625 C 560.35891 567.34193 559.96133 567.19262 559.53125 567.03125 C 559.40274 566.92074 559.28416 566.80236 559.15625 566.6875 z "
     id="path12687" />
</svg>
