<?xml version="1.0" encoding="UTF-8" standalone="no"?>
<svg
   xmlns:dc="http://purl.org/dc/elements/1.1/"
   xmlns:cc="http://creativecommons.org/ns#"
   xmlns:rdf="http://www.w3.org/1999/02/22-rdf-syntax-ns#"
   xmlns:svg="http://www.w3.org/2000/svg"
   xmlns="http://www.w3.org/2000/svg"
   xmlns:sodipodi="http://sodipodi.sourceforge.net/DTD/sodipodi-0.dtd"
   xmlns:inkscape="http://www.inkscape.org/namespaces/inkscape"
   width="1024"
   height="1024"
   id="U5B50"
   version="1.1"
   inkscape:version="0.48.0 r9654"
   sodipodi:docname="U+5B50.svg">
  <metadata
     id="metadata10">
    <rdf:RDF>
      <cc:Work
         rdf:about="">
        <dc:format>image/svg+xml</dc:format>
        <dc:type
           rdf:resource="http://purl.org/dc/dcmitype/StillImage" />
      </cc:Work>
    </rdf:RDF>
  </metadata>
  <defs
     id="defs8" />
  <sodipodi:namedview
     pagecolor="#ffffff"
     bordercolor="#666666"
     borderopacity="1"
     objecttolerance="10"
     gridtolerance="10"
     guidetolerance="10"
     inkscape:pageopacity="0"
     inkscape:pageshadow="2"
     inkscape:window-width="640"
     inkscape:window-height="480"
     id="namedview6"
     showgrid="false"
     inkscape:zoom="0.27441406"
     inkscape:cx="512"
     inkscape:cy="512"
     inkscape:window-x="0"
     inkscape:window-y="25"
     inkscape:window-maximized="0"
     inkscape:current-layer="U5B50" />
  <path
     style="fill:#2b1100;fill-opacity:1;fill-rule:nonzero;stroke:none"
     d="M 437.25 259.9375 C 401.9455 259.9095 366.6455 260.4655 331.375 262.0625 C 312.7224 264.2075 322.81605 352.146 341.46875 350 C 373.37825 347.602 405.41495 346.9595 437.40625 346.8125 C 478.67965 346.2675 519.62845 351.6565 560.40625 357.3125 C 572.12682 358.97389 583.85388 360.36061 595.625 361.5625 C 593.10547 363.85392 590.59583 366.15677 588.09375 368.46875 C 566.54645 388.95775 544.7226 409.14425 523.4375 429.90625 C 507.9264 445.17025 493.1333 461.14 478.375 477.125 C 473.5568 482.342 468.72305 487.7685 463.59375 492.5625 C 461.35736 494.58633 461.04638 497.97537 462.09375 502.1875 C 412.73811 507.87704 363.73089 516.09515 315.28125 527.6875 C 267.93965 538.6065 220.05545 548.82675 174.65625 566.46875 C 157.66105 574.39975 195.03605 654.4945 212.03125 646.5625 C 251.49755 630.2615 293.58125 621.135 334.96875 611.125 C 383.48211 598.98248 432.7078 590.81303 482.28125 585.5 C 483.35105 595.82468 484.35148 606.16321 485.3125 616.5 C 489.4995 665.295 490.3765 714.27075 490.4375 763.21875 C 490.2925 790.74647 489.703 818.27676 488.53125 845.78125 C 471.32529 850.58748 468.68305 933.53828 486.875 934.25 C 491.0741 934.388 495.26675 934.5625 499.46875 934.5625 C 519.71895 934.7985 538.9829 933.255 555.25 919.375 C 572.5091 898.936 576.2429 886.32275 576.0625 860.21875 C 576.7961 827.77375 577.1736 795.29675 577.0625 762.84375 C 576.6952 711.45175 575.73275 660.03525 571.65625 608.78125 C 570.81433 598.95182 569.93423 589.13146 569 579.3125 C 622.95626 578.0299 676.89547 580.98971 730.75 584.09375 C 765.7457 586.19275 800.78165 588.051 835.71875 591 C 854.31045 592.369 860.74805 504.71275 842.15625 503.34375 C 806.58275 501.08875 770.9744 499.56325 735.375 497.78125 C 684.89903 495.28781 634.35478 492.90198 583.8125 493.625 C 584.16691 493.26973 584.51977 492.91698 584.875 492.5625 C 605.3675 472.3385 626.40275 452.66225 647.34375 432.90625 C 665.82335 416.00925 685.02505 399.97675 703.84375 383.46875 C 718.45655 369.32375 737.1335 352.162 735.375 329.375 C 734.6127 319.496 729.15295 310.5905 726.03125 301.1875 C 719.99585 296.1345 714.53275 290.248 707.90625 286 C 694.11825 277.161 675.23395 279.8255 659.84375 278.4375 C 630.52375 277.1395 601.2189 275.0155 572.125 271.0625 C 527.3868 265.0915 482.4815 259.5645 437.25 259.9375 z M 672.1875 367.15625 C 673.84266 367.30445 675.46594 367.51103 677.09375 367.84375 C 678.8311 368.1996 674.79464 367.88637 672.1875 367.15625 z "
     id="path15667" />
</svg>
