<?xml version="1.0" encoding="utf-8" ?>

<!DOCTYPE svg PUBLIC "-//W3C//DTD SVG 1.1//EN" 
  "http://www.w3.org/Graphics/SVG/1.1/DTD/svg11.dtd">
<svg 
    xmlns="http://www.w3.org/2000/svg"
    xmlns:xlink="http://www.w3.org/1999/xlink"
    xmlns:sodipodi="http://sodipodi.sourceforge.net/DTD/sodipodi-0.dtd"
    xmlns:inkscape="http://www.inkscape.org/namespaces/inkscape"
    width="1024" height="1024" id="U5C55">
<path d="m 11508.522,62603.048 c 42.128,-4.664 84.256,-9.307 126.336,-14.39 61.057,-7.702 122.056,-15.832 183.217,-22.682 40.146,-4.516 80.35,-8.827 119.94,0.733 48.106,20.38 54.342,59.59 55.509,106.49 -0.419,38.696 -5.926,77.049 -13.904,114.84 -3.091,14.648 -7.678,28.868 -12.468,43.022 -6.115,17.609 -89.124,-11.216 -83.01,-28.825 l 0,0 c 3.863,-10.739 7.493,-21.555 9.996,-32.713 6.927,-31.02 11.633,-62.562 12.011,-94.409 -0.05,-2.846 -1.513,-24.959 -1.07,-25.724 0.617,-1.066 7.073,4.343 8.911,1.961 -19.506,-10.046 -65.311,0.908 -86.681,0.4 -60.719,6.264 -121.242,14.142 -181.735,22.28 -41.057,5.346 -82.205,10.14 -123.129,16.42 -18.541,2.954 -32.464,-84.45 -13.923,-87.403 z" id="path14087" inkscape:connector-curvature="0" style="fill:#2b1100;fill-opacity:1;fill-rule:nonzero;stroke:none" transform="translate(-11264, -62464)"/><path d="m 11560.863,62818.708 c 40.587,-7.606 81.538,-13.052 122.415,-18.822 54.089,-7.554 108.241,-14.681 162.516,-20.759 31.471,-3.56 63.11,-6.796 93.859,2.053 34.009,25.454 20.126,7.079 26.698,63.722 -7.191,17.41 -89.261,-16.486 -82.071,-33.896 l 0,0 c 9.116,49.04 -4.202,34.554 25.134,53.415 1.055,0.06 2.748,1.136 3.165,0.165 0.341,-0.792 -6.388,-1.367 -10.953,-1.508 -8.986,-0.278 -18.584,0.144 -27.492,0.734 -6.402,0.423 -12.79,1.037 -19.186,1.556 -53.248,5.327 -106.337,12.129 -159.284,19.897 -38.4,5.724 -76.979,10.943 -114.837,19.687 -18.295,4.235 -38.259,-82.009 -19.964,-86.244 z" id="path14089" inkscape:connector-curvature="0" style="fill:#2b1100;fill-opacity:1;fill-rule:nonzero;stroke:none" transform="translate(-11264, -62464)"/><path d="m 11644.443,62671.009 c -15.645,45.568 -27.964,92.179 -40.378,138.702 -23.514,89.296 -43.656,179.424 -63.287,269.638 -16.992,76.901 -31.71,154.284 -39.402,232.698 -1.998,24.349 -2.897,48.811 0.706,73.02 2.117,18.466 -84.929,28.447 -87.047,9.981 l 0,0 c -2.888,-30.672 -2.516,-61.385 0.923,-92.045 9.195,-81.353 24.924,-161.663 42.774,-241.536 19.93,-91.294 40.042,-182.562 62.695,-273.227 12.197,-48.224 24.573,-96.406 38.845,-144.068 5.693,-17.855 89.864,8.982 84.171,26.837 z" id="path14091" inkscape:connector-curvature="0" style="fill:#2b1100;fill-opacity:1;fill-rule:nonzero;stroke:none" transform="translate(-11264, -62464)"/><path d="m 11556.569,62971.23 c 36.564,-5.692 72.95,-12.37 109.601,-17.562 54.717,-6.484 109.443,-12.839 164.079,-19.978 41.934,-5.516 83.656,-12.489 125.648,-17.568 16.22,-1.803 8.523,-0.979 23.089,-2.49 18.605,-1.703 26.631,86.003 8.026,87.705 l 0,0 c -13.522,1.059 -6.387,0.469 -21.404,1.794 -41.576,4.215 -82.836,10.871 -124.287,16.118 -54.21,6.948 -108.488,13.315 -162.724,20.05 -36.767,5.473 -73.228,12.49 -109.72,19.535 -18.583,2.611 -30.891,-84.993 -12.308,-87.604 z" id="path14105" inkscape:connector-curvature="0" style="fill:#2b1100;fill-opacity:1;fill-rule:nonzero;stroke:none" transform="translate(-11264, -62464)"/><path d="m 11739.88,62908.93 c -1.85,41.071 -3.928,82.132 -5.655,123.209 -0.994,30.324 -1.781,60.912 5.076,90.631 3.64,18.213 -82.217,35.37 -85.856,17.157 l 0,0 c -6.683,-36.791 -7.645,-74.004 -5.647,-111.336 1.63,-40.713 3.705,-81.429 3.748,-122.185 0.535,-18.738 88.87,-16.215 88.334,2.524 z" id="path14107" inkscape:connector-curvature="0" style="fill:#2b1100;fill-opacity:1;fill-rule:nonzero;stroke:none" transform="translate(-11264, -62464)"/><path d="m 11909.447,62856.513 c -11.557,32.926 -17.607,67.522 -23.652,101.794 -7.718,45.269 -9.857,91.122 -9.13,136.956 0.699,20.534 0.298,10.665 1.172,29.609 0.668,18.579 -86.917,21.728 -87.585,3.148 l 0,0 c -0.54,-20.422 -0.307,-9.735 -0.669,-32.064 -0.05,-50.996 2.724,-101.981 11.056,-152.367 6.844,-40.365 13.866,-80.955 26.6,-119.959 6.976,-17.439 89.184,15.444 82.208,32.883 z" id="path14109" inkscape:connector-curvature="0" style="fill:#2b1100;fill-opacity:1;fill-rule:nonzero;stroke:none" transform="translate(-11264, -62464)"/><path d="m 11457.715,63135.131 c 45.406,-7.876 90.929,-14.784 136.687,-20.259 77.091,-7.653 154.348,-13.572 231.559,-19.875 65.986,-5.65 132.168,-8.431 198.382,-7.108 16.763,0.203 33.315,2.063 49.822,4.753 18.35,3.454 2.069,89.955 -16.281,86.501 l 0,0 c -11.863,-2.845 -23.966,-3.863 -36.143,-4.545 -63.005,-2.587 -126.047,-0.323 -188.878,4.929 -76.026,6.209 -152.072,12.441 -227.918,20.586 -44.32,5.673 -88.48,12.53 -132.136,22.15 -18.484,3.202 -33.577,-83.93 -15.094,-87.132 z" id="path14111" inkscape:connector-curvature="0" style="fill:#2b1100;fill-opacity:1;fill-rule:nonzero;stroke:none" transform="translate(-11264, -62464)"/><path d="m 11692.612,63199.201 c -0.07,30.52 1.73,61.017 2.929,91.507 3.841,20.808 -2.885,48.409 5.509,68.225 -1.77,-13.248 -12.798,-18.933 -23.99,-23.365 -1.846,-0.73 -4.619,0.617 -5.887,-0.911 -0.02,-0.02 2.893,-1.235 12.203,-5.137 28.069,-12.337 55.477,-26.101 82.842,-39.908 4.642,-2.386 9.284,-4.771 13.926,-7.156 16.52,-8.442 56.313,69.436 39.793,77.877 l 0,0 c -4.805,2.442 -9.61,4.884 -14.415,7.326 -29.196,14.675 -58.389,29.389 -88.16,42.874 -42.932,18.019 -80.676,22.555 -101.694,-29.2 -6.564,-28.634 -6.221,-57.951 -7.286,-87.193 -1.266,-32.121 -3.145,-64.214 -4.204,-96.343 0.298,-18.759 88.732,-17.356 88.434,1.404 z" id="path14119" inkscape:connector-curvature="0" style="fill:#2b1100;fill-opacity:1;fill-rule:nonzero;stroke:none" transform="translate(-11264, -62464)"/><path d="m 12051.155,63258.43 c -34.813,14.963 -69.62,29.94 -104.409,44.961 -25.587,11.247 -51.742,21.081 -78.085,30.384 -17.476,6.08 -46.135,-76.306 -28.659,-82.386 l 0,0 c 24.413,-8.348 48.639,-17.248 72.268,-27.645 33.609,-14.585 67.294,-29.07 100.367,-44.835 16.869,-8.171 55.387,71.35 38.518,79.521 z" id="path14121" inkscape:connector-curvature="0" style="fill:#2b1100;fill-opacity:1;fill-rule:nonzero;stroke:none" transform="translate(-11264, -62464)"/><path d="m 11677.531,63168.625 c 26.801,19.032 55.574,35.099 84.196,51.185 44.371,24.631 90.212,46.446 135.951,68.379 42.076,19.886 83.679,40.751 125.673,60.806 17.25,8.433 35.072,15.558 53.066,22.212 17.407,6.653 -13.952,88.71 -31.359,82.058 l 0,0 c -20.146,-7.914 -40.127,-16.256 -59.523,-25.892 -41.783,-20.358 -83.235,-41.394 -125.223,-61.334 -47.309,-22.728 -94.753,-45.256 -140.822,-70.443 -31.48,-17.405 -62.914,-34.98 -93.035,-54.679 -15.336,-10.834 35.74,-83.126 51.076,-72.292 z" id="path14123" inkscape:connector-curvature="0" style="fill:#2b1100;fill-opacity:1;fill-rule:nonzero;stroke:none" transform="translate(-11264, -62464)"/></svg>