<?xml version="1.0" encoding="UTF-8" standalone="no"?>
<svg
   xmlns:dc="http://purl.org/dc/elements/1.1/"
   xmlns:cc="http://creativecommons.org/ns#"
   xmlns:rdf="http://www.w3.org/1999/02/22-rdf-syntax-ns#"
   xmlns:svg="http://www.w3.org/2000/svg"
   xmlns="http://www.w3.org/2000/svg"
   xmlns:sodipodi="http://sodipodi.sourceforge.net/DTD/sodipodi-0.dtd"
   xmlns:inkscape="http://www.inkscape.org/namespaces/inkscape"
   width="1024"
   height="1024"
   id="U5C40"
   version="1.1"
   inkscape:version="0.48.0 r9654"
   sodipodi:docname="U+5C40.svg">
  <metadata
     id="metadata14">
    <rdf:RDF>
      <cc:Work
         rdf:about="">
        <dc:format>image/svg+xml</dc:format>
        <dc:type
           rdf:resource="http://purl.org/dc/dcmitype/StillImage" />
      </cc:Work>
    </rdf:RDF>
  </metadata>
  <defs
     id="defs12" />
  <sodipodi:namedview
     pagecolor="#ffffff"
     bordercolor="#666666"
     borderopacity="1"
     objecttolerance="10"
     gridtolerance="10"
     guidetolerance="10"
     inkscape:pageopacity="0"
     inkscape:pageshadow="2"
     inkscape:window-width="640"
     inkscape:window-height="480"
     id="namedview10"
     showgrid="false"
     inkscape:zoom="0.27441406"
     inkscape:cx="512"
     inkscape:cy="512"
     inkscape:window-x="0"
     inkscape:window-y="25"
     inkscape:window-maximized="0"
     inkscape:current-layer="U5C40" />
  <path
     style="fill:#2b0000;fill-opacity:1;fill-rule:nonzero;stroke:#f9f9f9;stroke-width:0.1;stroke-miterlimit:4;stroke-dasharray:none"
     d="M 573.84375 171.3125 C 567.39152 171.33352 560.99007 171.5555 554.78125 171.71875 C 513.64445 174.33675 472.6587 178.9295 431.8125 184.4375 C 398.1762 189.0965 364.59755 194.2245 330.96875 198.9375 C 320.85879 200.65091 320.5996 227.18846 325.4375 250.71875 C 311.12391 251.2836 299.85236 254.47428 299.1875 261.0625 C 295.8673 295.2535 288.37825 328.913 281.40625 362.5 C 267.16745 428.925 252.41175 495.22775 237.34375 561.46875 C 224.71715 618.25675 209.80245 674.48625 191.34375 729.65625 C 183.95525 750.35525 175.7663 770.80225 166.0625 790.53125 C 158.2039 807.81325 239.67265 844.8445 247.53125 827.5625 C 257.35805 804.2665 267.0079 780.87625 274.75 756.78125 C 293.1244 698.81425 308.3368 639.97475 321.4375 580.59375 C 321.52758 580.19711 321.62867 579.80289 321.71875 579.40625 C 323.75671 603.36211 331.55941 628.79514 341.75 627.5625 C 375.4143 623.0875 409.1029 618.8095 442.8125 614.6875 C 485.7455 609.3885 528.7126 604.47275 571.9375 602.46875 C 600.7343 601.40575 629.5531 602.51975 658.0625 606.71875 C 658.87268 605.33539 668.16895 608.2346 674.59375 610.5625 C 673.99099 612.27664 676.11547 617.8169 676.65625 622.375 C 678.94325 653.867 678.17915 685.48425 677.84375 717.03125 C 677.32915 752.55025 677.27405 788.0755 675.53125 823.5625 C 675.50425 830.6385 674.0577 841.1795 671.25 846.1875 C 663.5256 863.4695 744.99445 899.87575 752.71875 882.59375 C 759.69685 864.70275 764.01175 846.6925 763.96875 827.3125 C 765.27415 790.9335 765.21885 754.52 765.78125 718.125 C 766.28515 682.563 767.5275 646.91325 764.9375 611.40625 C 761.5531 584.79125 755.3979 559.29625 733.6875 541.40625 C 714.4709 528.24625 693.2948 521.382 670.125 518.75 C 636.1164 514.358 601.8321 513.11475 567.5625 514.71875 C 522.3385 517.12275 477.36365 522.08175 432.40625 527.46875 C 398.63425 531.41475 364.89065 535.733 331.03125 538.875 C 330.98873 538.88014 330.94847 538.90023 330.90625 538.90625 C 334.04156 525.10516 337.17629 511.30083 340.3125 497.5 C 340.44843 497.49957 340.5815 497.5099 340.71875 497.5 C 378.25795 492.934 415.7557 488.2415 453.3125 483.8125 C 491.178 478.9645 529.2148 475.75975 567.375 474.84375 C 580.0709 474.78975 574.23125 474.75425 584.90625 474.90625 C 593.47869 474.83286 597.99055 456.47142 598.625 436.4375 C 616.73815 439.5319 633.22051 438.78104 635.09375 431.03125 C 638.59425 415.68725 641.2074 400.18475 643.375 384.59375 C 648.0115 354.84575 653.2683 325.232 658 295.5 C 662.6374 261.112 667.1346 226.67225 644.8125 197.03125 C 639.6763 192.62525 635.05785 187.5345 629.40625 183.8125 C 613.01253 173.0155 593.20044 171.24945 573.84375 171.3125 z M 572.625 259.78125 C 571.8873 267.54194 570.87756 278.53638 570.1875 283.84375 C 565.6998 312.85575 560.58015 341.768 555.90625 370.75 C 555.04967 376.11911 554.21625 381.48366 553.3125 386.84375 C 516.51166 388.78619 479.82609 392.22205 443.25 396.8125 C 415.89137 399.92579 388.53344 403.22568 361.125 405.90625 C 363.02911 397.53145 364.93946 389.15601 366.84375 380.78125 C 374.20794 347.38012 381.70755 313.94443 386.71875 280.09375 C 405.81725 277.02085 424.9496 274.16513 444.09375 271.40625 C 482.49595 266.05925 521.0813 261.82425 559.8125 259.90625 C 564.00863 260.02201 568.30733 259.82455 572.625 259.78125 z M 577.03125 259.8125 C 577.54263 259.82842 578.05254 259.84845 578.5625 259.875 C 577.91149 260.36063 577.41318 260.25989 577.03125 259.8125 z M 583.03125 260.28125 C 584.73489 260.51024 586.4307 260.83056 588.09375 261.28125 C 588.61565 261.42325 589.8911 262.12025 589.375 262.28125 C 588.3315 262.60725 587.1362 262.29 586.125 261.875 C 585.05527 261.4361 584.02417 260.87888 583.03125 260.28125 z M 679.1875 612.3125 C 680.76833 612.96423 681.28501 613.28895 679.875 612.875 C 679.62081 612.65868 679.42014 612.50198 679.1875 612.3125 z M 534.625 645.15625 C 519.30796 645.09233 503.98244 645.75625 488.6875 646.9375 C 461.7865 648.8715 434.9165 651.11425 408.1875 654.78125 C 400.65366 656.02681 398.51483 671.0774 399.875 688.40625 C 373.2706 684.87827 332.46753 690.63666 332.96875 703.46875 C 335.04285 733.26575 337.7184 763.0065 341.0625 792.6875 C 343.2001 809.4665 342.01145 801.34425 344.59375 817.03125 C 346.20348 825.95796 367.24119 826.93732 388.3125 823.5 C 380.64337 843.4456 398.78356 908.54046 414.78125 904.625 C 447.68405 895.73 481.3115 889.9995 515 885.0625 C 538.4858 882.4445 562.26705 878.3655 585.96875 880.3125 L 589.375 880.96875 C 595.56193 881.76538 600.91672 872.67412 604.6875 860.0625 C 607.23617 859.56579 609.14312 858.4663 610.15625 856.59375 C 612.16315 852.66975 614.1806 848.7365 616.1875 844.8125 C 625.4838 820.6285 630.5555 795.38975 633 769.59375 C 635.8039 742.31275 638.33325 714.4845 627.65625 688.4375 C 612.05665 661.3015 593.4703 648.68175 562.1875 646.09375 C 553.00296 645.47987 543.81522 645.1946 534.625 645.15625 z M 525.21875 733.9375 C 532.10648 733.84557 538.99421 733.95837 545.875 734.3125 C 545.39409 743.55504 544.87696 758.40912 544.65625 760.59375 C 543.13148 771.40739 542.04615 782.54296 539.59375 793.28125 C 527.05264 794.5115 514.53968 796.1625 502.0625 797.96875 C 476.50439 801.81847 451.00302 806.12562 425.65625 811.15625 C 430.24539 808.08238 432.81417 804.69422 432.1875 801.21875 C 429.8851 789.93475 431.0208 796.21175 429 782.34375 C 427.37998 769.11227 425.94031 755.87534 424.78125 742.59375 C 447.99272 738.6969 471.50926 736.95545 494.96875 735.3125 C 505.0403 734.6115 515.1322 734.07213 525.21875 733.9375 z "
     id="path9653" />
</svg>
