<?xml version="1.0" encoding="UTF-8" standalone="no"?>
<svg
   xmlns:dc="http://purl.org/dc/elements/1.1/"
   xmlns:cc="http://creativecommons.org/ns#"
   xmlns:rdf="http://www.w3.org/1999/02/22-rdf-syntax-ns#"
   xmlns:svg="http://www.w3.org/2000/svg"
   xmlns="http://www.w3.org/2000/svg"
   xmlns:sodipodi="http://sodipodi.sourceforge.net/DTD/sodipodi-0.dtd"
   xmlns:inkscape="http://www.inkscape.org/namespaces/inkscape"
   width="1024"
   height="1024"
   id="U5C11"
   version="1.1"
   inkscape:version="0.48.0 r9654"
   sodipodi:docname="U+5C11.svg">
  <metadata
     id="metadata11">
    <rdf:RDF>
      <cc:Work
         rdf:about="">
        <dc:format>image/svg+xml</dc:format>
        <dc:type
           rdf:resource="http://purl.org/dc/dcmitype/StillImage" />
      </cc:Work>
    </rdf:RDF>
  </metadata>
  <defs
     id="defs9" />
  <sodipodi:namedview
     pagecolor="#ffffff"
     bordercolor="#666666"
     borderopacity="1"
     objecttolerance="10"
     gridtolerance="10"
     guidetolerance="10"
     inkscape:pageopacity="0"
     inkscape:pageshadow="2"
     inkscape:window-width="640"
     inkscape:window-height="480"
     id="namedview7"
     showgrid="false"
     inkscape:zoom="0.27441406"
     inkscape:cx="512"
     inkscape:cy="512"
     inkscape:window-x="0"
     inkscape:window-y="25"
     inkscape:window-maximized="0"
     inkscape:current-layer="U5C11" />
  <path
     style="fill:#a02c2c;fill-opacity:1;fill-rule:nonzero;stroke:#f9f9f9;stroke-width:0.1;stroke-miterlimit:4;stroke-dasharray:none"
     d="M 495.21875 186.125 C 493.21063 186.17815 491.56438 186.79369 490.34375 188.0625 C 458.27435 230.3545 451.86965 284.90725 444.46875 335.90625 C 433.84375 421.96225 431.51665 508.73175 432.53125 595.34375 C 433.03215 642.79375 437.24155 689.9835 443.78125 736.9375 C 446.48695 755.0345 531.79945 742.2845 529.09375 724.1875 C 522.15365 681.1565 517.8835 637.8125 517.1875 594.1875 C 515.8877 512.2025 518.17275 430.0505 529.15625 348.6875 C 534.43305 315.0855 538.8274 280.2795 554.125 249.4375 C 565.92456 237.17231 514.63058 185.61124 495.21875 186.125 z M 367.75 335.84375 C 365.74443 335.79335 364.06403 336.29737 362.78125 337.5 C 331.75815 369.577 302.497 403.30425 274.1875 437.78125 C 240.5046 479.29525 211.19775 524.0155 190.40625 573.3125 C 182.43415 600.9475 185.1655 586.945 182.125 615.375 C 181.0369 633.965 268.6619 639.09 269.75 620.5 C 268.3244 612.907 268.6937 617.71 271.125 606.125 C 287.1616 564.354 313.0437 527.52125 340.75 492.65625 C 366.7992 461.18525 393.6612 430.226 423.25 402 C 435.65022 390.37462 387.13716 336.33091 367.75 335.84375 z M 671.5625 422.71875 C 652.83838 422.08984 604.80207 479.9267 617.90625 491.21875 C 642.06135 510.87675 664.91945 532.0385 687.40625 553.5625 C 703.28185 568.6665 718.2665 584.62575 732.5625 601.21875 C 744.7874 615.18675 810.63115 557.5315 798.40625 543.5625 C 782.19395 525.2775 765.42695 507.5445 747.71875 490.6875 C 724.14865 468.0345 700.12705 445.8655 675.65625 424.1875 C 674.54573 423.23063 673.14929 422.77205 671.5625 422.71875 z M 874.53125 452.09375 C 867.53658 452.17762 862.49199 453.89559 861.1875 457.78125 C 843.7945 504.09225 814.56385 544.6025 785.71875 584.3125 C 730.04335 658.4635 662.6398 722.30125 593.875 784.03125 C 533.9179 836.95625 471.30365 886.74225 407.96875 935.53125 C 379.79325 957.00025 351.57445 978.39525 322.78125 999.03125 C 307.75015 1010.1243 360.0315 1080.9993 375.0625 1069.9062 C 403.9178 1048.0082 432.394 1025.5998 460.875 1003.2188 C 525.0422 952.35175 588.6626 900.74275 650 846.46875 C 722.9831 780.78375 794.48185 712.91525 854.28125 634.65625 C 888.88085 587.96625 923.1501 540.167 944.9375 485.875 C 949.59648 471.99687 899.51221 451.79423 874.53125 452.09375 z "
     id="path11821" />
</svg>
