<?xml version="1.0" encoding="utf-8" ?>

<!DOCTYPE svg PUBLIC "-//W3C//DTD SVG 1.1//EN" 
  "http://www.w3.org/Graphics/SVG/1.1/DTD/svg11.dtd">
<svg 
	xmlns="http://www.w3.org/2000/svg"
	xmlns:xlink="http://www.w3.org/1999/xlink"
	width="1024" height="1024">
<path d="m 8735.6882,2165.4656 c -8.033,28.7314 -11.6111,58.4422 -14.7483,88.0321 -2.4613,22.6053 -3.0708,45.3383 -0.9557,67.9765 0.1711,2.1516 0.3422,4.3032 0.5133,6.4548 1.2759,21.0371 -97.894,27.0516 -99.1698,6.0146 l 0,0 c -0.065,-1.7477 -0.1308,-3.4954 -0.1962,-5.243 -1.6684,-28.5901 -0.9244,-57.2217 2.3333,-85.6952 3.7882,-34.7248 8.3479,-69.42 16.4605,-103.4429 5.4949,-20.3144 101.2578,5.5887 95.7629,25.9031 z" id="path3887" inkscape:connector-curvature="0" style="fill:#aa0000;fill-opacity:1;fill-rule:nonzero;stroke:#f9f9f9;stroke-width:0.1;stroke-miterlimit:4;stroke-dasharray:none" transform="translate(-8192, -2048)"/><path d="m 8477.7704,2217.834 c 16.2111,20.938 34.3908,40.2549 52.6529,59.3947 15.4573,15.7439 30.8574,31.8452 48.8105,44.7961 3.0343,1.1261 2.6127,1.2046 -0.4623,-1.2005 19.8646,6.983 -13.0536,100.6253 -32.9181,93.6423 l 0,0 c -19.2299,-8.1296 -10.507,-3.4692 -26.4044,-13.5313 -21.6475,-16.8397 -41.2829,-35.9962 -60.1419,-55.8853 -20.4932,-21.4988 -40.6828,-43.301 -59.7777,-66.0621 -12.9727,-16.5974 65.2683,-77.7513 78.241,-61.1539 z" id="path3889" inkscape:connector-curvature="0" style="fill:#aa0000;fill-opacity:1;fill-rule:nonzero;stroke:#f9f9f9;stroke-width:0.1;stroke-miterlimit:4;stroke-dasharray:none" transform="translate(-8192, -2048)"/><path d="m 8849.2199,2291.9551 c -17.5762,21.4083 -34.0234,43.7046 -51.2732,65.3742 -12.0905,15.422 -25.2715,29.8808 -39.0532,43.7873 -14.8685,14.7512 -84.4062,-55.3396 -69.5377,-70.0907 l 0,0 c 11.3396,-10.9787 21.961,-22.6338 31.7834,-35.0026 17.2736,-21.5763 33.6757,-43.8175 50.2895,-65.9023 13.117,-16.502 90.9082,45.3321 77.7912,61.8341 z" id="path3891" inkscape:connector-curvature="0" style="fill:#aa0000;fill-opacity:1;fill-rule:nonzero;stroke:#f9f9f9;stroke-width:0.1;stroke-miterlimit:4;stroke-dasharray:none" transform="translate(-8192, -2048)"/><path d="m 8437.5841,2420.4216 c -16.8927,23.4257 -30.3203,49.0794 -43.1189,74.8955 -4.3759,15.2855 -24.8311,44.4614 -23.4426,60.2744 0.4225,-3.0209 0.845,-6.0417 1.2675,-9.0626 1.8025,21.0273 -97.3209,29.5244 -99.1234,8.4972 l 0,0 c 0.1583,-6.1025 0.3166,-12.205 0.475,-18.3075 6.9068,-29.7758 19.986,-57.5069 33.065,-85.0188 15.0776,-30.2692 30.9611,-60.1748 49.654,-88.4024 12.1178,-17.2301 93.3413,39.8941 81.2234,57.1242 z" id="path3893" inkscape:connector-curvature="0" style="fill:#aa0000;fill-opacity:1;fill-rule:nonzero;stroke:#f9f9f9;stroke-width:0.1;stroke-miterlimit:4;stroke-dasharray:none" transform="translate(-8192, -2048)"/><path d="m 8416.6584,2373.6996 c 36.5502,-6.1498 73.414,-10.2668 110.2363,-14.3983 55.4449,-6.5034 111.2361,-5.9687 166.9022,-3.7725 48.5997,2.6174 97.1189,6.485 145.7555,8.3873 25.1626,0.9172 50.3422,0.3618 75.4882,-0.7117 20.7739,-1.1876 42.5883,1.8617 57.5966,18.3771 5.5593,6.1174 8.4178,14.2286 12.6267,21.3429 7.099,27.3213 -2.5828,52.4564 -11.4796,77.9688 -10.8456,29.8903 -23.7591,58.9708 -37.1697,87.7823 -7.1514,16.1224 -15.6536,31.4597 -25.385,46.1385 -11.9509,17.2789 -93.4047,-39.0582 -81.4538,-56.3372 l 0,0 c 7.428,-9.6037 12.3856,-20.794 17.808,-31.5905 12.0632,-25.463 23.4921,-51.2644 32.8003,-77.8806 2.2356,-6.7192 3.9158,-11.5384 5.8702,-18.1774 1.9956,-6.7793 2.1592,-8.6934 2.3201,-8.4931 3.0341,3.7741 -7.6191,12.9087 2.8995,14.2352 3.4809,5.085 6.0161,10.968 10.4427,15.2551 10.7572,10.4182 35.7969,11.2211 15.9684,10.4592 -27.555,0.4329 -55.1263,0.5503 -82.6632,-0.7522 -48.47,-2.3896 -96.8342,-6.3839 -145.2856,-9.099 -50.6286,-2.038 -101.3876,-2.6567 -151.7923,3.5908 -33.4814,4.0368 -67.0836,7.9148 -100.1379,14.7102 -20.5842,4.5285 -41.9319,-92.5064 -21.3476,-97.0349 z" id="path3895" inkscape:connector-curvature="0" style="fill:#aa0000;fill-opacity:1;fill-rule:nonzero;stroke:#f9f9f9;stroke-width:0.1;stroke-miterlimit:4;stroke-dasharray:none" transform="translate(-8192, -2048)"/><path d="m 8437.6527,2519.2543 c 44.2231,-6.9519 88.8609,-10.9286 133.3996,-15.2623 42.8147,-3.835 85.6518,-7.8391 128.6283,-9.2497 17.0611,0.073 8.6018,-0.327 25.3791,1.1725 20.8744,2.6228 8.5105,101.0255 -12.3639,98.4027 l 0,0 c -5.0556,-1.6417 -1.4801,-0.7019 -11.0309,-1.1529 -40.4571,0.1973 -80.8001,3.9372 -121.076,7.4464 -40.791,4.0845 -81.7858,7.7216 -122.0568,15.5831 -20.5641,4.4291 -41.4434,-92.5106 -20.8794,-96.9398 z" id="path3897" inkscape:connector-curvature="0" style="fill:#aa0000;fill-opacity:1;fill-rule:nonzero;stroke:#f9f9f9;stroke-width:0.1;stroke-miterlimit:4;stroke-dasharray:none" transform="translate(-8192, -2048)"/><path d="m 8334.0913,2672.4019 c 39.1265,3.3461 78.4007,-2.5334 117.1289,-7.5637 64.6605,-9.5897 129.2162,-19.8139 193.9864,-28.6535 40.9471,-5.8076 82.1688,-9.29 123.2262,-14.1423 2.6931,-0.3988 5.3862,-0.7975 8.0793,-1.1963 20.8353,-2.5975 33.0803,95.6211 12.2449,98.2187 l 0,0 c -3.4151,0.3627 -6.8303,0.7255 -10.2454,1.0883 -40.2203,3.5665 -80.5105,6.4918 -120.5541,11.8299 -64.7732,8.3974 -129.2861,18.4838 -193.8055,28.6266 -46.5739,6.5119 -93.5757,13.3696 -140.7333,10.5143 -20.9421,-2.264 -10.2695,-100.986 10.6726,-98.722 z" id="path3899" inkscape:connector-curvature="0" style="fill:#aa0000;fill-opacity:1;fill-rule:nonzero;stroke:#f9f9f9;stroke-width:0.1;stroke-miterlimit:4;stroke-dasharray:none" transform="translate(-8192, -2048)"/><path d="m 8589.1273,2720.8924 c -20.3165,19.7581 -36.4788,43.2297 -52.4953,66.4657 -21.6294,32.2359 -41.7275,65.4732 -60.2013,99.6098 -2.3076,4.5198 -4.6676,9.0132 -6.9228,13.5594 -0.2427,0.4892 -15.6769,37.3259 -11.7604,30.0126 1.8927,-13.9359 -4.394,-24.1175 -14.2429,-33.3528 -1.4508,-1.3604 -3.9815,-1.5328 -5.0155,-3.2317 -0.1562,-0.2566 1.3799,-0.1806 11.9874,0.01 38.7439,-0.3455 77.2713,-5.1596 115.6773,-9.8442 52.0026,-6.6856 103.736,-15.2502 155.6255,-22.7391 36.6353,-5.7105 73.5592,-8.7761 110.6082,-9.532 8.2165,-0.1101 16.4331,-0.031 24.6499,-0.044 21.0714,0.3363 19.4861,99.6682 -1.5854,99.3319 l 0,0 c -7.3801,-0.2477 -14.7601,-0.5201 -22.1449,-0.5831 -32.7898,-0.1237 -65.4791,2.3122 -97.9298,7.1275 -52.4429,7.2371 -104.6734,15.8907 -157.1455,22.9174 -43.0943,5.5273 -86.3118,11.1882 -129.8141,11.8977 -47.9874,-1.0768 -86.6785,-13.8505 -89.6254,-69.5786 4.0256,-30.0719 16.745,-56.7724 31.6793,-83.0305 20.3652,-36.7916 42.2183,-72.7411 65.5089,-107.7598 19.703,-28.9392 39.9042,-57.7317 64.3609,-82.928 15.2082,-14.5917 83.9942,57.1006 68.7859,71.6923 z" id="path3901" inkscape:connector-curvature="0" style="fill:#aa0000;fill-opacity:1;fill-rule:nonzero;stroke:#f9f9f9;stroke-width:0.1;stroke-miterlimit:4;stroke-dasharray:none" transform="translate(-8192, -2048)"/><path d="m 8909.9638,2784.2098 c 12.1813,25.4105 27.451,49.19 42.5789,72.9118 17.0353,27.0786 35.61,53.1123 55.0188,78.5261 5.3685,6.9023 10.7828,13.7624 16.0491,20.7429 12.3738,17.0471 -67.9873,75.3777 -80.3611,58.3305 l 0,0 c -4.6663,-6.8193 -9.741,-13.3315 -14.6202,-19.9997 -20.3332,-27.6886 -40.148,-55.7547 -58.5649,-84.7668 -17.5782,-27.3273 -35.0513,-54.7869 -50.0779,-83.6277 -8.9343,-19.0871 81.0429,-61.2041 89.9773,-42.1171 z" id="path3903" inkscape:connector-curvature="0" style="fill:#aa0000;fill-opacity:1;fill-rule:nonzero;stroke:#f9f9f9;stroke-width:0.1;stroke-miterlimit:4;stroke-dasharray:none" transform="translate(-8192, -2048)"/></svg>