<?xml version="1.0" encoding="UTF-8" standalone="no"?>
<svg
   xmlns:dc="http://purl.org/dc/elements/1.1/"
   xmlns:cc="http://creativecommons.org/ns#"
   xmlns:rdf="http://www.w3.org/1999/02/22-rdf-syntax-ns#"
   xmlns:svg="http://www.w3.org/2000/svg"
   xmlns="http://www.w3.org/2000/svg"
   xmlns:sodipodi="http://sodipodi.sourceforge.net/DTD/sodipodi-0.dtd"
   xmlns:inkscape="http://www.inkscape.org/namespaces/inkscape"
   width="1024"
   height="1024"
   id="U5C0F"
   version="1.1"
   inkscape:version="0.48.0 r9654"
   sodipodi:docname="U+5C0F.svg">
  <metadata
     id="metadata10">
    <rdf:RDF>
      <cc:Work
         rdf:about="">
        <dc:format>image/svg+xml</dc:format>
        <dc:type
           rdf:resource="http://purl.org/dc/dcmitype/StillImage" />
      </cc:Work>
    </rdf:RDF>
  </metadata>
  <defs
     id="defs8" />
  <sodipodi:namedview
     pagecolor="#ffffff"
     bordercolor="#666666"
     borderopacity="1"
     objecttolerance="10"
     gridtolerance="10"
     guidetolerance="10"
     inkscape:pageopacity="0"
     inkscape:pageshadow="2"
     inkscape:window-width="640"
     inkscape:window-height="480"
     id="namedview6"
     showgrid="false"
     inkscape:zoom="0.27441406"
     inkscape:cx="512"
     inkscape:cy="512"
     inkscape:window-x="0"
     inkscape:window-y="25"
     inkscape:window-maximized="0"
     inkscape:current-layer="U5C0F" />
  <path
     style="fill:#916f6f;fill-opacity:1;fill-rule:nonzero;stroke:#f9f9f9;stroke-width:0.1;stroke-miterlimit:4;stroke-dasharray:none"
     d="M 490.40625 299.375 C 473.00691 299.34767 458.10725 302.62025 457.46875 310.21875 C 455.63405 346.56275 453.6968 382.919 451.625 419.25 C 448.419 480.137 442.8115 540.83825 437.125 601.53125 C 431.9431 659.85125 426.45955 718.1315 419.90625 776.3125 C 414.73565 803.8335 416.5285 833.78575 405.8125 860.09375 C 399.2538 869.87075 388.9394 876.66625 379.5 883.40625 C 364.3675 894.27225 415.58625 965.616 430.71875 954.75 C 455.14985 937.143 478.122 917.78775 489.0625 888.71875 C 499.7427 855.28975 502.309 820.3255 505.9375 785.5625 C 511.9431 726.9385 517.22025 668.2575 522.46875 609.5625 C 528.28145 547.9735 534.0665 486.369 538 424.625 C 540.414 388.954 542.4149 353.235 545.625 317.625 C 546.5582 306.5195 515.83606 299.41494 490.40625 299.375 z M 272.6875 561.53125 C 269.70059 561.61162 267.42061 562.506 266.09375 564.4375 C 244.35705 598.8655 225.00495 634.73025 205.65625 670.53125 C 188.30465 702.27025 171.4165 734.266 155.5 766.75 C 147.4978 783.47 226.3103 821.18875 234.3125 804.46875 C 248.9689 773.01675 264.99735 742.2145 281.71875 711.8125 C 299.73505 678.7835 317.6583 645.54775 338.9375 614.46875 C 348.22554 600.94825 293.5959 560.96865 272.6875 561.53125 z M 650.40625 562.1875 C 632.54081 561.39921 596.21507 633.12475 612.09375 641.375 C 640.08395 654.906 668.6235 667.27425 697.1875 679.53125 C 724.4404 691.10125 751.57955 702.988 777.34375 717.625 C 785.67785 723.135 782.17395 720.3885 788.09375 725.5625 C 802.83845 737.0585 857.0572 667.52725 842.3125 656.03125 C 827.8258 645.21725 835.27165 650.31175 819.96875 640.84375 C 791.38085 625.27375 761.64945 611.999 731.65625 599.375 C 705.08765 587.914 678.45145 576.47775 652.90625 562.84375 C 652.12533 562.438 651.28488 562.22627 650.40625 562.1875 z "
     id="path11757" />
</svg>
