<?xml version="1.0" encoding="UTF-8" standalone="no"?>
<svg
   xmlns:dc="http://purl.org/dc/elements/1.1/"
   xmlns:cc="http://creativecommons.org/ns#"
   xmlns:rdf="http://www.w3.org/1999/02/22-rdf-syntax-ns#"
   xmlns:svg="http://www.w3.org/2000/svg"
   xmlns="http://www.w3.org/2000/svg"
   xmlns:sodipodi="http://sodipodi.sourceforge.net/DTD/sodipodi-0.dtd"
   xmlns:inkscape="http://www.inkscape.org/namespaces/inkscape"
   width="1024"
   height="1024"
   id="U5C24"
   version="1.1"
   inkscape:version="0.48.0 r9654"
   sodipodi:docname="U+5C24.svg">
  <metadata
     id="metadata11">
    <rdf:RDF>
      <cc:Work
         rdf:about="">
        <dc:format>image/svg+xml</dc:format>
        <dc:type
           rdf:resource="http://purl.org/dc/dcmitype/StillImage" />
      </cc:Work>
    </rdf:RDF>
  </metadata>
  <defs
     id="defs9" />
  <sodipodi:namedview
     pagecolor="#ffffff"
     bordercolor="#666666"
     borderopacity="1"
     objecttolerance="10"
     gridtolerance="10"
     guidetolerance="10"
     inkscape:pageopacity="0"
     inkscape:pageshadow="2"
     inkscape:window-width="640"
     inkscape:window-height="480"
     id="namedview7"
     showgrid="false"
     inkscape:zoom="0.27441406"
     inkscape:cx="512"
     inkscape:cy="512"
     inkscape:window-x="0"
     inkscape:window-y="25"
     inkscape:window-maximized="0"
     inkscape:current-layer="U5C24" />
  <path
     style="fill:#2b1100;fill-opacity:1;fill-rule:nonzero;stroke:none"
     d="M 544.84375 127.78125 C 520.35921 127.92111 492.74804 134.19944 493.375 144.71875 C 496.61233 199.50275 487.80332 254.01 479.71875 308 C 474.57008 343.63668 467.68397 378.89829 459.4375 413.8125 C 435.88799 418.08005 412.38642 422.65767 388.9375 427.53125 C 336.76454 437.78325 284.54499 448.96275 231.46875 453.34375 C 212.79733 454.75275 219.42233 542.784 238.09375 541.375 C 294.54775 534.58 350.19194 522.4885 405.8125 510.9375 C 415.49047 508.82613 425.17444 506.76298 434.875 504.78125 C 428.7098 525.25691 422.16844 545.61876 415.34375 565.90625 C 391.2566 633.80025 362.23046 699.778 335.46875 766.625 C 323.32489 797.85 312.06029 829.45225 297.21875 859.53125 C 292.22918 869.36025 294.62536 864.386 290.03125 874.375 C 282.56326 891.591 363.71951 926.80975 371.1875 909.59375 C 373.78932 902.81175 372.10176 906.95875 376.65625 897.34375 C 391.60277 865.04475 403.54462 831.542 415.71875 798.125 C 442.08174 729.575 471.10191 662.04175 495.4375 592.71875 C 506.98609 558.05373 517.70708 523.14974 527.375 487.96875 C 568.50956 481.44229 609.83239 476.18649 651.34375 472.28125 C 699.33026 468.28525 747.55716 467.70525 795.625 470.28125 C 800.9516 470.28725 813.14927 471.63525 816.84375 472.40625 C 835.44086 475.47425 849.90961 387.818 831.3125 384.75 C 820.59851 383.451 809.81367 383.1485 799.03125 382.8125 C 746.98946 381.4495 694.88569 382.72275 643.03125 387.59375 C 611.6419 390.80031 580.35779 394.7165 549.15625 399.21875 C 554.69486 373.31614 559.52802 347.23053 563.53125 320.96875 C 573.09095 260.91175 582.84443 200.4685 581.53125 139.4375 C 581.04361 131.25625 563.88728 127.67247 544.84375 127.78125 z M 814.625 195.90625 C 791.41956 195.78847 737.96509 224.57216 744.71875 238.5625 C 759.13967 265.0115 777.79497 288.737 796.3125 312.375 C 807.6821 326.936 876.3071 273.34325 864.9375 258.78125 C 850.34161 240.01925 835.34428 221.311 824.34375 200.125 C 822.94205 197.22152 819.44122 195.9307 814.625 195.90625 z M 563.0625 542.9375 C 550.99631 543.08333 541.80918 545.57125 540.8125 551.34375 C 534.64521 593.73275 534.85533 636.656 535.53125 679.375 C 535.07462 735.558 542.04619 788.54375 562.03125 841.09375 C 583.9609 890.19775 618.1631 917.0905 666.71875 937.0625 C 710.28281 952.0825 756.01258 951.3475 801.21875 946.9375 C 835.80334 942.4245 869.91281 934.92225 903.375 925.15625 C 913.23828 922.49725 922.68755 918.745 932.0625 914.75 C 949.17034 907.063 912.9516 826.40675 895.84375 834.09375 C 890.11818 837.02975 884.06072 839.12 877.90625 841 C 850.04698 849.833 821.43978 856.2165 792.5 860.3125 C 761.19447 863.5785 729.36452 865.1195 698.8125 855.9375 C 674.13995 846.9095 654.39384 833.83475 642.84375 809.21875 C 625.53316 767.56075 621.82971 723.108 621.9375 678.25 C 621.56278 640.932 621.1837 603.26225 627.90625 566.40625 C 630.09894 553.70675 589.60812 542.61668 563.0625 542.9375 z "
     id="path13139" />
</svg>
