<?xml version="1.0" encoding="UTF-8" standalone="no"?>
<svg
   xmlns:dc="http://purl.org/dc/elements/1.1/"
   xmlns:cc="http://creativecommons.org/ns#"
   xmlns:rdf="http://www.w3.org/1999/02/22-rdf-syntax-ns#"
   xmlns:svg="http://www.w3.org/2000/svg"
   xmlns="http://www.w3.org/2000/svg"
   xmlns:sodipodi="http://sodipodi.sourceforge.net/DTD/sodipodi-0.dtd"
   xmlns:inkscape="http://www.inkscape.org/namespaces/inkscape"
   width="1024"
   height="1024"
   id="U5C42"
   version="1.1"
   inkscape:version="0.48.0 r9654"
   sodipodi:docname="U+5C42.svg">
  <metadata
     id="metadata14">
    <rdf:RDF>
      <cc:Work
         rdf:about="">
        <dc:format>image/svg+xml</dc:format>
        <dc:type
           rdf:resource="http://purl.org/dc/dcmitype/StillImage" />
      </cc:Work>
    </rdf:RDF>
  </metadata>
  <defs
     id="defs12" />
  <sodipodi:namedview
     pagecolor="#ffffff"
     bordercolor="#666666"
     borderopacity="1"
     objecttolerance="10"
     gridtolerance="10"
     guidetolerance="10"
     inkscape:pageopacity="0"
     inkscape:pageshadow="2"
     inkscape:window-width="640"
     inkscape:window-height="480"
     id="namedview10"
     showgrid="false"
     inkscape:zoom="0.27441406"
     inkscape:cx="512"
     inkscape:cy="512"
     inkscape:window-x="0"
     inkscape:window-y="25"
     inkscape:window-maximized="0"
     inkscape:current-layer="U5C42" />
  <path
     style="fill:#800000;fill-opacity:1;fill-rule:nonzero;stroke:#f9f9f9;stroke-width:0.1;stroke-miterlimit:4;stroke-dasharray:none"
     d="M 595.21875 102.625 C 580.60708 102.78327 565.95382 104.25754 551.71875 105.71875 C 498.40995 113.29715 445.58375 123.974 393.53125 137.8125 C 352.10995 149.1339 310.301 160.6551 271.875 180.25 C 264.05708 184.80481 270.53455 205.06187 281.0625 223.59375 C 274.0551 266.6498 268.07798 309.86719 261.78125 353.03125 C 250.53465 427.73895 240.98585 502.6824 231.46875 577.625 C 223.58115 640.1205 214.41365 702.4457 203.59375 764.5 C 198.69465 793.8766 190.97745 822.76905 189.46875 852.59375 C 189.63665 856.23075 189.80085 859.863 189.96875 863.5 C 191.37985 882.0285 278.7236 875.4034 277.3125 856.875 C 277.1635 856.35 276.99275 855.80635 276.84375 855.28125 C 276.37405 829.43725 285.89845 804.222 288.09375 778.625 C 298.22265 715.3127 307.2847 651.84915 315.1875 588.21875 C 320.59516 545.12871 326.06809 502.02509 331.96875 459 C 369.95329 449.87482 408.41381 442.78816 446.90625 436.15625 C 504.89015 426.41345 563.33355 419.83865 621.96875 415.71875 C 637.22126 418.11407 655.90891 410.11018 671.09375 414.78125 C 683.6894 410.42146 695.63111 367.92789 694.125 344.5 C 707.45904 343.64027 717.76725 340.38772 718.3125 334.15625 C 719.7314 316.52575 719.1759 325.4341 719.9375 307.4375 C 720.4301 276.4506 719.9631 245.3619 716.1875 214.5625 C 710.3115 177.5441 700.2543 142.53865 667.5 120.28125 C 661.7565 117.34635 656.2316 113.9125 650.25 111.5 C 632.69454 104.41947 614.00518 102.42151 595.21875 102.625 z M 671.09375 414.78125 C 670.68048 414.9243 670.25795 415.0036 669.84375 415.0625 C 671.11883 415.11664 672.27258 415.14764 671.53125 414.90625 C 671.38685 414.8593 671.23879 414.82587 671.09375 414.78125 z M 669.84375 415.0625 C 669.05346 415.02894 668.23301 414.98852 667.75 415 C 668.45001 415.15682 669.14291 415.16216 669.84375 415.0625 z M 599.5 188.5 C 609.88462 188.60653 619.43255 190.32064 624.34375 196 C 626.03045 206.5921 628.78105 217.1916 630.40625 227.9375 C 633.41585 253.7678 633.6495 279.81455 633.0625 305.78125 C 632.3228 320.21455 632.8518 313.2886 631.5625 326.5625 C 631.49293 327.35765 631.59737 328.12145 631.84375 328.875 C 626.32118 329.27616 620.77392 329.69828 615.25 330.09375 C 554.1373 335.34665 493.2161 342.6141 432.6875 352.625 C 403.45704 357.54023 374.29157 362.79187 345.21875 368.53125 C 345.3692 367.57398 345.50505 366.61341 345.65625 365.65625 C 352.41451 321.96431 358.64865 278.1201 367.28125 234.75 C 383.49278 229.43099 399.98755 224.85942 416.34375 220.28125 C 464.66085 207.18525 513.7593 197.37455 563.375 190.84375 C 571.41847 190.86001 586.14835 188.36303 599.5 188.5 z M 688.1875 472.03125 C 666.6877 473.59765 677.7907 472.5361 654.875 475.3125 C 607.5607 482.5499 560.56225 491.89385 514.15625 503.65625 C 474.65545 514.59765 434.97 526.5138 399.25 547.125 C 383.697 557.2942 431.6345 630.6068 447.1875 620.4375 C 474.9719 603.9835 506.35175 595.01985 537.21875 586.34375 C 580.07765 575.33915 623.52205 566.7677 667.34375 560.6875 C 685.89235 558.826 677.24615 559.3788 693.28125 558.75 C 711.67865 557.6668 706.5849 470.94795 688.1875 472.03125 z M 668.3125 597.46875 C 668.03133 597.47616 667.7515 597.48127 667.46875 597.53125 C 642.97115 602.24625 655.6775 599.53585 629.3125 605.84375 C 571.7258 621.00505 514.31895 636.8445 456.96875 652.875 C 412.24295 665.2198 367.47415 677.39965 322.65625 689.40625 C 304.86935 694.74235 330.0256 778.5861 347.8125 773.25 C 373.15779 765.27933 398.66641 757.85246 424.21875 750.5625 C 400.83848 783.98575 380.21249 819.16798 362.65625 856 C 352.93415 880.6667 337.77865 911.80305 348.28125 938.96875 C 351.35025 946.90695 356.90345 953.63315 361.21875 960.96875 C 369.54845 965.83755 377.15205 972.2633 386.21875 975.5625 C 408.53295 983.6824 446.51605 971.1616 469.09375 966.1875 C 512.94945 956.4733 557.46075 950.0627 601.84375 943.3125 C 647.79205 936.0792 693.86795 929.80525 740.21875 925.84375 C 759.43565 924.47475 750.2886 925.0455 767.6875 924.0625 C 775.90894 923.50377 779.27351 905.87547 778.84375 886.65625 C 779.56797 887.59034 780.27434 888.53641 781 889.46875 C 805.868 920.65285 834.2353 948.72925 862.3125 976.96875 L 874.03125 988.71875 C 887.05275 1001.6645 948.0839 940.2582 935.0625 927.3125 C 931.1906 923.4931 927.34065 919.6944 923.46875 915.875 C 897.79385 890.3224 871.8178 864.89445 849.1875 836.53125 C 832.7972 815.34765 816.2309 793.79875 805.6875 768.96875 C 798.4762 751.84185 717.7262 785.84185 724.9375 802.96875 C 730.58783 815.40795 737.23608 827.26727 744.5 838.75 C 742.21961 838.95571 740.40719 839.12574 732.1875 839.875 C 684.3218 844.7216 636.671 851.3622 589.125 858.6875 C 542.9828 865.5427 496.70915 871.9882 451.03125 881.5625 C 449.81877 881.81275 447.34493 882.3253 445.59375 882.6875 C 461.40026 849.96896 480.48633 819.00955 501.9375 789.625 C 521.43768 762.63423 541.10303 735.57926 564.09375 711.40625 C 592.86066 703.66 621.68069 696.15316 650.59375 688.96875 C 673.52495 683.99625 662.85265 685.91805 682.53125 682.84375 C 700.3448 679.69493 686.02598 597.00161 668.3125 597.46875 z M 432.8125 915.8125 C 433.33027 917.96353 433.39337 920.27405 432.6875 923.3125 C 432.11569 925.77425 432.27737 918.77063 432.8125 915.8125 z "
     id="path20591" />
</svg>
