<?xml version="1.0" encoding="UTF-8" standalone="no"?>
<svg
   xmlns:dc="http://purl.org/dc/elements/1.1/"
   xmlns:cc="http://creativecommons.org/ns#"
   xmlns:rdf="http://www.w3.org/1999/02/22-rdf-syntax-ns#"
   xmlns:svg="http://www.w3.org/2000/svg"
   xmlns="http://www.w3.org/2000/svg"
   xmlns:sodipodi="http://sodipodi.sourceforge.net/DTD/sodipodi-0.dtd"
   xmlns:inkscape="http://www.inkscape.org/namespaces/inkscape"
   width="1024"
   height="1024"
   id="U5DE5"
   version="1.1"
   inkscape:version="0.48.0 r9654"
   sodipodi:docname="U+5DE5.svg">
  <metadata
     id="metadata10">
    <rdf:RDF>
      <cc:Work
         rdf:about="">
        <dc:format>image/svg+xml</dc:format>
        <dc:type
           rdf:resource="http://purl.org/dc/dcmitype/StillImage" />
      </cc:Work>
    </rdf:RDF>
  </metadata>
  <defs
     id="defs8" />
  <sodipodi:namedview
     pagecolor="#ffffff"
     bordercolor="#666666"
     borderopacity="1"
     objecttolerance="10"
     gridtolerance="10"
     guidetolerance="10"
     inkscape:pageopacity="0"
     inkscape:pageshadow="2"
     inkscape:window-width="640"
     inkscape:window-height="480"
     id="namedview6"
     showgrid="false"
     inkscape:zoom="0.27441406"
     inkscape:cx="512"
     inkscape:cy="512"
     inkscape:window-x="0"
     inkscape:window-y="25"
     inkscape:window-maximized="0"
     inkscape:current-layer="U5DE5" />
  <path
     style="fill:#550000;fill-opacity:1;fill-rule:nonzero;stroke:#f9f9f9;stroke-width:0.1;stroke-miterlimit:4;stroke-dasharray:none"
     d="M 634.78125 278.875 C 610.17319 278.83891 585.45763 281.42125 560.9375 283.40625 C 495.4339 290.00825 430.0182 297.3815 364.5625 304.4375 C 320.169 309.4385 275.79245 314.6915 231.34375 319.1875 C 212.92815 321.5055 223.86565 408.318 242.28125 406 C 286.26245 399.745 330.37065 394.365 374.46875 389 C 396.09033 386.48374 417.71016 384.01194 439.34375 381.59375 C 435.47406 417.79629 432.22452 454.08011 428.65625 490.3125 C 421.77525 556.2335 414.58945 622.09925 410.78125 688.28125 C 409.44294 713.57183 409.58485 738.87548 410.5 764.15625 C 371.55354 767.27792 332.62157 770.69498 293.6875 774.0625 C 245.5849 777.4705 197.27155 781.05125 149.03125 778.65625 C 130.47765 777.60025 125.5088 865.03775 144.0625 866.09375 C 196.1837 866.59875 248.2173 862.5275 300.125 858.3125 C 382.5699 850.4385 465.0196 843.0935 547.75 839.0625 C 613.1282 835.6815 678.53675 838.70575 743.71875 843.84375 C 772.81255 847.39175 802.84735 847.3895 831.34375 854.9375 C 849.43895 858.9775 868.4701 773.69525 850.375 769.65625 C 817.2955 762.98325 783.48095 761.25175 749.90625 758.59375 C 681.21185 753.98075 612.35415 751.333 543.53125 755.125 C 527.784 755.94287 512.04419 756.86046 496.3125 757.875 C 495.26879 736.21999 494.93998 714.53328 495.90625 692.84375 C 499.11185 628.00375 506.03225 563.48075 513.15625 498.96875 C 517.66561 456.66762 521.56743 414.23186 527.90625 372.15625 C 541.64993 370.78122 555.40244 369.45906 569.15625 368.1875 C 589.73359 368.92661 628.22539 361.25529 652.0625 365.5625 C 627.4443 356.7977 633.39324 336.21725 636.28125 314.90625 C 641.35857 334.30133 699.12758 372.90622 708.6875 359.375 C 711.4663 345.093 719.93935 330.78625 717.03125 316.53125 C 712.12635 292.48725 695.76765 289.0115 678.90625 282.4375 C 664.26516 279.84775 649.54609 278.89666 634.78125 278.875 z M 652.0625 365.5625 C 654.56362 366.45297 657.36353 367.24056 660.53125 367.875 C 658.00377 366.86801 655.15495 366.12129 652.0625 365.5625 z "
     id="path23867" />
</svg>
