<?xml version="1.0" encoding="UTF-8" standalone="no"?>
<svg
   xmlns:dc="http://purl.org/dc/elements/1.1/"
   xmlns:cc="http://creativecommons.org/ns#"
   xmlns:rdf="http://www.w3.org/1999/02/22-rdf-syntax-ns#"
   xmlns:svg="http://www.w3.org/2000/svg"
   xmlns="http://www.w3.org/2000/svg"
   xmlns:sodipodi="http://sodipodi.sourceforge.net/DTD/sodipodi-0.dtd"
   xmlns:inkscape="http://www.inkscape.org/namespaces/inkscape"
   width="1024"
   height="1024"
   id="U5DEE"
   version="1.1"
   inkscape:version="0.48.0 r9654"
   sodipodi:docname="U+5DEE.svg">
  <metadata
     id="metadata16">
    <rdf:RDF>
      <cc:Work
         rdf:about="">
        <dc:format>image/svg+xml</dc:format>
        <dc:type
           rdf:resource="http://purl.org/dc/dcmitype/StillImage" />
      </cc:Work>
    </rdf:RDF>
  </metadata>
  <defs
     id="defs14" />
  <sodipodi:namedview
     pagecolor="#ffffff"
     bordercolor="#666666"
     borderopacity="1"
     objecttolerance="10"
     gridtolerance="10"
     guidetolerance="10"
     inkscape:pageopacity="0"
     inkscape:pageshadow="2"
     inkscape:window-width="640"
     inkscape:window-height="480"
     id="namedview12"
     showgrid="false"
     inkscape:zoom="0.27441406"
     inkscape:cx="512"
     inkscape:cy="512"
     inkscape:window-x="0"
     inkscape:window-y="25"
     inkscape:window-maximized="0"
     inkscape:current-layer="U5DEE" />
  <path
     style="fill:#800000;fill-opacity:1;fill-rule:nonzero;stroke:#f9f9f9;stroke-width:0.1;stroke-miterlimit:4;stroke-dasharray:none"
     d="M 342.78125 36 C 322.87755 36.943381 273.42705 85.683456 284.71875 97.75 C 315.31025 128.7463 349.72275 155.4853 384.71875 181.25 C 392.09265 186.3873 399.46985 191.51895 406.84375 196.65625 C 421.74245 207.03935 470.67995 136.8206 455.78125 126.4375 C 449.05295 121.7467 442.32205 117.03445 435.59375 112.34375 C 404.93135 89.61765 374.46605 66.20985 348.59375 37.96875 C 347.20705 36.486894 345.22556 35.884146 342.78125 36 z M 659.90625 50.78125 C 658.70545 50.818771 657.61812 51.162344 656.65625 51.8125 C 624.77765 75.4369 594.18305 100.74245 563.78125 126.21875 C 535.73045 149.74225 508.3992 174.094 481.0625 198.4375 C 467.5323 210.5085 524.43865 274.28975 537.96875 262.21875 C 564.52605 238.48045 591.14265 214.7709 618.59375 192.0625 C 646.94485 168.6503 675.3598 145.18255 705.6875 124.34375 C 720.11553 114.59141 677.91831 50.218431 659.90625 50.78125 z M 658.46875 258.96875 C 625.43943 259.00917 592.40244 260.78594 559.46875 263.4375 C 482.10405 270.3542 404.8168 278.6937 328.3125 292.375 C 279.4302 301.3058 230.67265 310.87845 182.09375 321.34375 C 164.01565 325.56635 183.9219 410.7851 202 406.5625 C 248.8601 394.339 296.36385 384.78365 343.90625 375.65625 C 349.23836 374.65776 354.59632 373.72029 359.9375 372.78125 C 352.63831 400.96074 345.79453 429.27 338.84375 457.53125 C 338.51747 458.86368 338.20101 460.19876 337.875 461.53125 C 331.68911 462.70614 325.49308 463.85782 319.3125 465.0625 C 274.8788 473.4827 230.46765 482.10115 185.84375 489.46875 C 167.54035 492.69875 182.7591 578.98 201.0625 575.75 C 239.26577 567.65884 277.5684 559.99791 315.875 552.40625 C 311.13321 572.19667 306.45873 592.0068 301.78125 611.8125 C 294.15563 613.40053 286.53113 614.97003 278.90625 616.5625 C 228.72895 626.1956 178.1363 636.9906 126.875 638 C 108.3161 637.3075 105.03485 724.8075 123.59375 725.5 C 176.58773 723.35073 228.78406 712.67338 280.65625 702.0625 C 268.37766 755.08191 257.61876 808.43483 248.71875 862.125 L 246.03125 879.875 C 243.44455 898.0346 329.0383 910.2221 331.625 892.0625 L 333.8125 875.53125 C 342.0864 819.98595 352.69905 764.82795 365.28125 710.09375 C 367.35312 700.96417 369.46617 691.84278 371.5625 682.71875 C 435.01297 669.36483 498.59122 656.67641 562.375 644.96875 C 619.2547 634.71515 676.3375 625.5065 733.6875 618.3125 L 745.3125 617.03125 C 763.6085 614.59835 752.13975 528.34825 733.84375 530.78125 C 729.76445 531.40725 725.67315 532.03025 721.59375 532.65625 C 663.26105 541.75195 605.0961 551.7802 547.0625 562.625 C 495.48602 572.34249 444.01527 582.58553 392.59375 593.0625 C 397.23588 573.71285 401.94292 554.37962 406.71875 535.0625 C 448.29163 527.72739 489.99376 521.31106 531.875 515.9375 C 560.8674 512.4632 589.9824 510.73485 619.125 512.59375 C 637.4413 513.37915 641.16015 427.0354 622.84375 426.25 C 588.71735 425.3041 554.6828 427.12355 520.8125 431.65625 C 490.27565 435.76462 459.80718 440.33842 429.40625 445.3125 C 436.84071 416.37009 444.50406 387.48268 453.5 359 C 491.17909 354.40987 528.99174 350.78121 566.8125 347.59375 C 614.6541 344.31945 662.8322 342.37675 710.625 347.28125 L 718.75 348.875 C 736.9991 351.7349 750.46775 265.735 732.21875 262.875 C 727.44545 262.236 722.67955 261.5766 717.90625 260.9375 C 698.11664 259.54723 678.28634 258.9445 658.46875 258.96875 z M 709.125 699.59375 C 708.84755 699.58115 708.56328 699.59579 708.28125 699.625 C 647.78815 706.2501 587.2694 712.55435 526.5625 716.90625 C 484.5898 719.75795 442.5337 722.80125 400.4375 722.34375 C 381.8624 722.34375 381.8624 809.90625 400.4375 809.90625 C 444.5992 808.60125 488.6468 805.28335 532.6875 801.90625 C 544.61239 800.95404 556.55197 799.91727 568.46875 798.875 C 566.19413 809.41935 564.21055 820.02645 562.375 830.65625 C 558.76205 853.26806 557.07851 876.09592 555.90625 898.9375 C 550.3143 900.36628 544.73066 901.82978 539.15625 903.34375 C 495.84625 914.55215 452.56245 925.91325 409.53125 938.15625 C 391.84295 943.85255 418.71805 1027.2588 436.40625 1021.5625 C 477.42035 1008.0147 519.1794 996.82085 560.875 985.59375 C 623.6535 967.96895 687.78375 956.74025 752.59375 950.28125 C 788.80025 947.76905 771.1772 948.6771 805.4375 947.5 C 823.5695 946.7547 820.0695 861.28585 801.9375 862.03125 C 764.059 863.81835 783.42095 862.60085 743.84375 865.71875 C 710.16572 869.32465 676.63009 874.02303 643.34375 880 C 644.22246 868.3817 645.40559 856.77801 647.21875 845.25 C 650.38327 826.76047 654.01012 808.23824 659.625 790.34375 C 678.78608 788.46906 697.93275 786.59034 717.09375 784.71875 C 734.86182 782.87826 726.60461 700.38736 709.125 699.59375 z "
     id="path20645" />
</svg>
