<?xml version="1.0" encoding="UTF-8" standalone="no"?>
<svg
   xmlns:dc="http://purl.org/dc/elements/1.1/"
   xmlns:cc="http://creativecommons.org/ns#"
   xmlns:rdf="http://www.w3.org/1999/02/22-rdf-syntax-ns#"
   xmlns:svg="http://www.w3.org/2000/svg"
   xmlns="http://www.w3.org/2000/svg"
   xmlns:sodipodi="http://sodipodi.sourceforge.net/DTD/sodipodi-0.dtd"
   xmlns:inkscape="http://www.inkscape.org/namespaces/inkscape"
   width="1024"
   height="1024"
   id="U5DF2"
   version="1.1"
   inkscape:version="0.48.0 r9654"
   sodipodi:docname="U+5DF2.svg">
  <metadata
     id="metadata10">
    <rdf:RDF>
      <cc:Work
         rdf:about="">
        <dc:format>image/svg+xml</dc:format>
        <dc:type
           rdf:resource="http://purl.org/dc/dcmitype/StillImage" />
      </cc:Work>
    </rdf:RDF>
  </metadata>
  <defs
     id="defs8" />
  <sodipodi:namedview
     pagecolor="#ffffff"
     bordercolor="#666666"
     borderopacity="1"
     objecttolerance="10"
     gridtolerance="10"
     guidetolerance="10"
     inkscape:pageopacity="0"
     inkscape:pageshadow="2"
     inkscape:window-width="640"
     inkscape:window-height="480"
     id="namedview6"
     showgrid="false"
     inkscape:zoom="0.27441406"
     inkscape:cx="512"
     inkscape:cy="512"
     inkscape:window-x="0"
     inkscape:window-y="25"
     inkscape:window-maximized="0"
     inkscape:current-layer="U5DF2" />
  <path
     style="fill:#2b1100;fill-opacity:1;fill-rule:nonzero;stroke:none"
     d="M 477.375 110.3125 C 441.63839 110.2234 405.94274 113.1935 370.65625 119.90625 C 330.41985 127.95725 290.50015 137.911 252.90625 154.75 C 235.90515 162.648 273.1239 242.80425 290.125 234.90625 C 320.8756 219.71325 354.3231 211.623 387.75 204.875 C 431.0749 196.689 475.0957 194.81625 518.9375 198.78125 C 545.922 201.92625 571.8794 209.18975 592.5 227.34375 C 608.3832 244.12275 612.21925 266.699 615.15625 288.75 C 618.15655 325.281 614.6778 361.9125 610.375 398.1875 C 610.33841 398.45837 610.28681 398.72916 610.25 399 C 584.35823 397.97472 558.41481 398.15415 532.53125 399 C 470.25585 402.144 408.06505 407.48775 346.40625 416.96875 C 329.34676 419.87137 312.20852 422.75457 295.1875 426.1875 C 294.43204 412.2205 293.78922 398.25903 293.25 384.28125 C 291.8225 365.56525 203.60375 372.283 205.03125 391 C 207.46225 422.69967 209.38803 454.43568 211.96875 486.125 C 208.65016 514.37079 207.51095 525.04794 216.375 530.40625 C 220.60301 567.83359 225.85897 605.16935 230.84375 642.5 C 235.87745 683.431 242.35535 724.14875 249.71875 764.71875 C 254.01385 795.45175 265.6372 821.5765 287.125 843.8125 C 313.6236 865.0855 346.62435 865.5705 378.96875 866.3125 C 424.45675 866.9375 469.85535 863.68225 515.09375 859.28125 C 566.81125 854.26325 617.6787 843.625 668.0625 831.25 C 704.7293 822.148 740.9991 811.6415 776.75 799.4375 C 800.5368 791.4155 823.1412 780.677 844 766.75 C 856.2742 756.866 850.36725 762.19925 861.65625 750.78125 C 874.44985 737.07025 809.82485 676.75875 797.03125 690.46875 C 795.75145 692.69575 796.6147 691.44475 794.0625 693.96875 C 780.109 704.08775 764.1459 710.73975 748.0625 716.71875 C 714.9135 728.43175 681.2012 738.4025 647.125 747.0625 C 600.9625 758.7015 554.32725 768.785 506.84375 773.25 C 465.14945 777.18 423.31395 779.89325 381.40625 778.78125 C 375.16355 778.57225 351.93985 775.6015 346.46875 776.6875 C 345.58375 776.8625 348.24195 780.243 347.34375 779.25 C 347.13945 782.132 342.42915 773.96425 341.09375 770.03125 C 338.62585 762.76225 337.40115 756.08825 335.71875 748.53125 C 328.10225 709.53425 321.4705 670.3675 316.5 630.9375 C 312.42377 601.09384 308.22694 571.23059 304.6875 541.3125 C 308.95705 534.52822 312.37461 523.20505 314.40625 511.125 C 329.97043 507.73026 345.6657 504.85951 361.3125 502.03125 C 419.2972 492.55025 477.8968 487.5595 536.5625 485.0625 C 564.96732 484.57057 593.50692 484.63396 621.84375 487.125 C 635.7661 507.06995 656.04519 525.82677 664.3125 519.46875 C 675.7778 506.39975 684.2072 498.17025 686.625 480.90625 C 690.2886 456.67525 693.95365 432.447 696.96875 408.125 C 701.80135 364.477 705.69035 320.376 701.46875 276.5 C 694.90835 232.048 682.14605 190.01725 647.34375 159.15625 C 610.82695 130.96225 572.24015 116.52725 526.09375 112.28125 C 509.85309 111.03531 493.61891 110.353 477.375 110.3125 z "
     id="path11997" />
</svg>
