<?xml version="1.0" encoding="UTF-8" standalone="no"?>
<svg
   xmlns:dc="http://purl.org/dc/elements/1.1/"
   xmlns:cc="http://creativecommons.org/ns#"
   xmlns:rdf="http://www.w3.org/1999/02/22-rdf-syntax-ns#"
   xmlns:svg="http://www.w3.org/2000/svg"
   xmlns="http://www.w3.org/2000/svg"
   xmlns:sodipodi="http://sodipodi.sourceforge.net/DTD/sodipodi-0.dtd"
   xmlns:inkscape="http://www.inkscape.org/namespaces/inkscape"
   width="1024"
   height="1024"
   id="U5DE6"
   version="1.1"
   inkscape:version="0.48.0 r9654"
   sodipodi:docname="U+5DE6.svg">
  <metadata
     id="metadata12">
    <rdf:RDF>
      <cc:Work
         rdf:about="">
        <dc:format>image/svg+xml</dc:format>
        <dc:type
           rdf:resource="http://purl.org/dc/dcmitype/StillImage" />
      </cc:Work>
    </rdf:RDF>
  </metadata>
  <defs
     id="defs10" />
  <sodipodi:namedview
     pagecolor="#ffffff"
     bordercolor="#666666"
     borderopacity="1"
     objecttolerance="10"
     gridtolerance="10"
     guidetolerance="10"
     inkscape:pageopacity="0"
     inkscape:pageshadow="2"
     inkscape:window-width="640"
     inkscape:window-height="480"
     id="namedview8"
     showgrid="false"
     inkscape:zoom="0.27441406"
     inkscape:cx="512"
     inkscape:cy="512"
     inkscape:window-x="0"
     inkscape:window-y="25"
     inkscape:window-maximized="0"
     inkscape:current-layer="U5DE6" />
  <path
     style="fill:#2b1100;fill-opacity:1;fill-rule:nonzero;stroke:none"
     d="M 432.875 177.875 C 429.88973 177.9854 427.58834 178.89938 426.28125 180.84375 C 406.08218 213.4434 389.10271 247.84803 372.8125 282.53125 C 367.14364 282.89079 361.47779 283.27824 355.8125 283.71875 C 310.564 287.81175 265.07395 292.50775 221.21875 304.96875 C 203.45895 311.04875 232.1152 394.7675 249.875 388.6875 C 276.53259 380.28116 304.16376 375.92323 331.90625 372.75 C 311.66608 418.93627 292.22383 465.45747 273.34375 512.21875 C 253.09675 563.36475 234.256 615.07225 216.9375 667.28125 C 209.103 689.54325 203.26125 711.90125 203.28125 735.53125 C 204.46345 754.27825 292.8072 748.6835 291.625 729.9375 C 288.5898 740.9145 298.5895 691.066 299.8125 694 C 315.6475 643.416 333.31795 593.43225 352.53125 544.03125 C 354.41524 539.31637 356.31983 534.61509 358.21875 529.90625 C 365.30665 549.27601 375.92449 566.20196 384.25 563.40625 C 415.70925 554.33817 448.49296 551.26553 481 548.1875 C 476.46824 574.8758 473.06222 601.77071 469.75 628.625 C 464.3857 676.184 460.3733 723.87025 456.0625 771.53125 C 455.30129 779.95599 454.557 788.38928 453.78125 796.8125 C 440.08596 797.83772 426.3939 799.00466 412.71875 800.3125 C 371.14975 804.5495 329.6619 810.13975 287.9375 812.46875 C 269.1728 813.13375 272.2979 901.6015 291.0625 900.9375 C 334.7578 896.8655 378.22835 890.64025 421.84375 885.78125 C 488.27205 878.90525 555.0308 876.4455 621.75 874.4375 C 677.1105 872.7825 732.499 873.02725 787.8125 875.78125 C 815.9682 877.73825 844.1717 880.11775 871.9375 885.34375 C 890.391 888.43475 904.98475 801.43375 886.53125 798.34375 C 855.10465 793.56575 823.39135 790.8685 791.65625 789.1875 C 734.14865 786.9225 676.5871 786.95475 619.0625 788.84375 C 593.31499 789.68176 567.58421 790.58202 541.84375 791.71875 C 542.17168 787.43733 542.47536 783.15568 542.8125 778.875 C 546.482 732.35 550.0976 685.7935 555.5625 639.4375 C 559.84309 606.34248 564.14742 573.1 571.84375 540.59375 C 589.47569 539.45978 607.1148 538.71915 624.8125 538.78125 C 634.04617 540.46411 665.35373 539.21377 675.9375 546.0625 C 694.88701 546.20274 742.71636 488.93203 729.6875 477.625 C 725.1816 474.476 720.66205 471.3355 716.15625 468.1875 C 687.15475 455.7915 655.89095 451.9685 624.46875 451.8125 C 576.02325 452.3015 527.90705 457.33575 479.65625 461.34375 C 446.79516 464.31936 413.72102 467.19919 381.34375 473.71875 C 396.52989 437.54011 412.25188 401.58458 428.65625 365.9375 C 469.05225 364.81128 509.487 365.44862 549.875 366.59375 C 599.5239 368.12175 649.0454 372.17825 698.5625 375.90625 C 727.6195 377.70325 756.299 382.56025 784.9375 387.53125 C 792.1808 388.80325 799.4213 390.2105 806.625 391.6875 C 825.0662 395.1795 841.5037 308.241 823.0625 304.75 C 815.1337 303.358 807.1989 301.99175 799.25 300.71875 C 767.8816 295.81475 736.4948 290.96875 704.75 289.21875 C 653.9214 285.80475 603.09675 282.01875 552.15625 280.71875 C 524.93004 280.05352 497.68127 279.61785 470.4375 279.65625 C 479.38565 262.70782 488.93019 246.10553 499.59375 230.15625 C 508.74336 216.5465 453.77186 177.1022 432.875 177.875 z M 675.9375 546.0625 C 675.22661 546.05724 674.56237 545.98485 673.9375 545.8125 C 675.37154 546.56408 676.81598 547.31092 678.25 548.0625 C 677.66886 547.32633 676.86918 546.66539 675.9375 546.0625 z M 671.59375 544.5625 C 672.25941 545.14014 673.02841 545.53815 673.875 545.78125 C 673.1125 545.38162 672.35624 544.96213 671.59375 544.5625 z "
     id="path16127" />
</svg>
