<?xml version="1.0" encoding="UTF-8" standalone="no"?>
<svg
   xmlns:dc="http://purl.org/dc/elements/1.1/"
   xmlns:cc="http://creativecommons.org/ns#"
   xmlns:rdf="http://www.w3.org/1999/02/22-rdf-syntax-ns#"
   xmlns:svg="http://www.w3.org/2000/svg"
   xmlns="http://www.w3.org/2000/svg"
   xmlns:sodipodi="http://sodipodi.sourceforge.net/DTD/sodipodi-0.dtd"
   xmlns:inkscape="http://www.inkscape.org/namespaces/inkscape"
   width="1024"
   height="1024"
   id="U5E9C"
   version="1.1"
   inkscape:version="0.48.0 r9654"
   sodipodi:docname="U+5E9C.svg">
  <metadata
     id="metadata15">
    <rdf:RDF>
      <cc:Work
         rdf:about="">
        <dc:format>image/svg+xml</dc:format>
        <dc:type
           rdf:resource="http://purl.org/dc/dcmitype/StillImage" />
      </cc:Work>
    </rdf:RDF>
  </metadata>
  <defs
     id="defs13" />
  <sodipodi:namedview
     pagecolor="#ffffff"
     bordercolor="#666666"
     borderopacity="1"
     objecttolerance="10"
     gridtolerance="10"
     guidetolerance="10"
     inkscape:pageopacity="0"
     inkscape:pageshadow="2"
     inkscape:window-width="640"
     inkscape:window-height="480"
     id="namedview11"
     showgrid="false"
     inkscape:zoom="0.27441406"
     inkscape:cx="512"
     inkscape:cy="512"
     inkscape:window-x="0"
     inkscape:window-y="25"
     inkscape:window-maximized="0"
     inkscape:current-layer="U5E9C" />
  <path
     style="fill:#550000;fill-opacity:1;fill-rule:nonzero;stroke:#f9f9f9;stroke-width:0.1;stroke-miterlimit:4;stroke-dasharray:none"
     d="M 467 136.03125 C 447.06634 135.84716 394.9357 181.71573 405.53125 194.40625 C 425.44955 218.46825 444.14337 243.48775 464.46875 267.21875 C 479.92169 284.07075 472.33969 275.91725 487.25 291.65625 C 499.9451 304.96325 562.66385 245.1185 549.96875 231.8125 C 536.63326 217.9425 543.2494 224.95625 530.0625 210.78125 C 509.89928 187.45925 491.52551 162.73375 472.6875 138.34375 C 471.38629 136.78516 469.44799 136.05386 467 136.03125 z M 656 320.21875 C 620.97613 320.50528 585.98721 323.93663 551.21875 328.59375 C 483.11254 338.12275 415.4145 350.205 347.96875 363.625 C 306.51685 371.732 264.9617 379.493 224.09375 390.25 C 214.49753 393.1707 217.52306 418.91195 225.125 441.15625 C 216.63465 471.06969 209.22948 501.29808 201.75 531.46875 C 185.68978 597.38075 168.23922 662.9325 151.5625 728.6875 C 140.55173 772.3475 130.47244 816.2185 118.25 859.5625 C 116.1882 866.3215 113.9139 873.00125 111.21875 879.53125 C 104.78641 896.97925 187.03641 927.29175 193.46875 909.84375 C 196.61269 900.67175 199.56402 891.45775 202.09375 882.09375 C 213.381 838.01375 222.97823 793.556 233.84375 749.375 C 234.21231 747.89361 234.59903 746.4186 234.96875 744.9375 C 256.42007 758.29571 286.91177 768.6198 291.90625 758.625 C 293.5629 755.176 295.21835 751.73025 296.875 748.28125 C 304.27176 733.92625 311.72852 719.60432 319.1875 705.28125 C 318.84015 713.7125 318.53675 722.15173 318.3125 730.59375 C 317.22383 778.84175 319.42828 827.0005 324.8125 874.9375 C 327.30611 896.6825 330.84055 918.2565 335.25 939.6875 C 339.19579 957.7275 424.25829 939.13475 420.3125 921.09375 C 415.94473 902.58475 412.73551 883.84175 410.375 864.96875 C 405.06244 821.16375 403.03697 777.10175 404.0625 732.96875 C 405.19245 694.27675 407.45304 655.676 413.375 617.375 C 414.41182 608.34876 394.08876 601.34837 372.84375 598.71875 C 382.75032 577.63816 392.29043 556.38937 401.46875 534.96875 C 408.63763 517.84275 327.91888 484.0625 320.75 501.1875 C 308.05336 534.4165 293.08565 566.674 277.5 598.625 C 274.15259 605.34618 270.75667 612.06251 267.34375 618.75 C 273.07619 596.61066 278.77455 574.4858 284.375 552.3125 C 292.40307 520.99332 300.24728 489.49603 310.03125 458.65625 C 328.23091 454.66292 346.5186 451.02647 364.75 447.28125 C 430.39087 433.54925 496.36329 421.57925 562.8125 412.53125 C 606.66062 407.33025 651.09561 402.89825 695.125 408.28125 C 702.12351 410.09925 703.76754 409.31225 700.09375 410.40625 C 717.26252 417.46425 750.51252 336.52675 733.34375 329.46875 C 713.83069 322.88575 723.69215 325.3645 703.75 321.9375 C 687.83301 320.595 671.91994 320.08851 656 320.21875 z M 607.84375 434.3125 C 590.63793 434.29736 575.87618 437.5485 575.25 445.0625 C 574.79418 470.00946 575.50984 494.95092 576.625 519.875 C 569.32671 521.82883 562.07327 523.91829 554.84375 526.15625 C 515.00433 538.61825 476.0185 553.243 437.46875 569.25 C 420.25983 576.212 453.07233 657.338 470.28125 650.375 C 506.02475 633.717 542.82088 619.756 580.4375 608 C 580.63651 607.9399 580.83218 607.87238 581.03125 607.8125 C 582.89 646.75526 585.67481 685.63766 588.75 724.5 C 585.85535 723.85631 583.31327 723.31677 572.21875 720.84375 C 539.21465 713.03775 506.20885 704.91125 474.21875 693.53125 C 456.58219 687.70025 429.08219 770.8555 446.71875 776.6875 C 481.57702 787.3995 516.95669 796.3165 552.4375 804.6875 C 578.78787 810.6205 565.8503 807.6945 591.21875 813.4375 C 592.78503 813.78752 594.35064 813.45511 595.90625 812.5625 C 597.60054 855.71931 602.95722 899.48891 597.71875 942.59375 C 596.03462 960.94575 682.53462 968.9145 684.21875 950.5625 C 687.75676 902.0005 683.45369 853.2855 680.28125 804.8125 C 674.15432 733.49377 667.56084 662.16476 665.1875 590.59375 C 671.03009 590.03391 676.90281 589.63319 682.78125 589.375 C 685.52857 589.409 688.25269 589.42875 691 589.46875 C 709.49164 589.25775 708.52289 502.1025 690.03125 502.3125 C 685.85382 502.4265 681.67743 502.54325 677.5 502.65625 C 672.3112 503.03673 667.13667 503.49596 661.96875 504.03125 C 661.64174 486.79586 661.65569 469.56539 662.4375 452.34375 C 663.35268 441.36175 632.99071 434.33463 607.84375 434.3125 z "
     id="path23129" />
</svg>
