<?xml version="1.0" encoding="UTF-8" standalone="no"?>
<svg
   xmlns:dc="http://purl.org/dc/elements/1.1/"
   xmlns:cc="http://creativecommons.org/ns#"
   xmlns:rdf="http://www.w3.org/1999/02/22-rdf-syntax-ns#"
   xmlns:svg="http://www.w3.org/2000/svg"
   xmlns="http://www.w3.org/2000/svg"
   xmlns:sodipodi="http://sodipodi.sourceforge.net/DTD/sodipodi-0.dtd"
   xmlns:inkscape="http://www.inkscape.org/namespaces/inkscape"
   width="1024"
   height="1024"
   id="U5EAD"
   version="1.1"
   inkscape:version="0.48.0 r9654"
   sodipodi:docname="U+5EAD.svg">
  <metadata
     id="metadata16">
    <rdf:RDF>
      <cc:Work
         rdf:about="">
        <dc:format>image/svg+xml</dc:format>
        <dc:type
           rdf:resource="http://purl.org/dc/dcmitype/StillImage" />
      </cc:Work>
    </rdf:RDF>
  </metadata>
  <defs
     id="defs14" />
  <sodipodi:namedview
     pagecolor="#ffffff"
     bordercolor="#666666"
     borderopacity="1"
     objecttolerance="10"
     gridtolerance="10"
     guidetolerance="10"
     inkscape:pageopacity="0"
     inkscape:pageshadow="2"
     inkscape:window-width="640"
     inkscape:window-height="480"
     id="namedview12"
     showgrid="false"
     inkscape:zoom="0.27441406"
     inkscape:cx="512"
     inkscape:cy="512"
     inkscape:window-x="0"
     inkscape:window-y="25"
     inkscape:window-maximized="0"
     inkscape:current-layer="U5EAD" />
  <path
     style="fill:#782121;fill-opacity:1;fill-rule:nonzero;stroke:#f9f9f9;stroke-width:0.1;stroke-miterlimit:4;stroke-dasharray:none"
     d="M 500.21875 119.21875 C 476.34813 119.34899 424.12429 145.55912 430.28125 159.5 C 447.25375 195.443 474.7512 223.188 505.3125 247.75 C 525.74988 262.00523 519.25866 257.7564 534.71875 267.4375 C 481.96759 269.05064 429.24725 271.75505 376.625 276.09375 C 317.4814 280.30975 258.29345 285.26525 198.96875 285.65625 C 180.25895 285.98725 181.82145 374.17375 200.53125 373.84375 C 210.01303 373.3645 219.49317 372.82457 228.96875 372.25 C 222.09955 389.55826 215.62264 407.04242 209.03125 424.40625 C 175.86145 511.22425 148.7784 600.09675 125.3125 689.96875 C 106.5318 763.55375 94.225 838.52625 89.3125 914.28125 L 88.71875 937.53125 C 88.46315 955.95925 175.33825 957.178 175.59375 938.75 L 175.59375 919.0625 C 178.70265 848.8425 189.7132 779.327 206.75 711.125 C 229.1597 624.369 255.4561 538.6585 288.875 455.4375 C 300.95438 425.11109 312.54604 394.31402 327.34375 365.15625 C 345.90045 363.67563 364.44459 362.16659 383 360.6875 C 469.5918 352.9215 556.50675 350.41025 643.40625 350.28125 C 703.34415 350.30325 763.19975 353.79825 822.78125 360.15625 C 828.36025 360.85325 833.9211 361.52275 839.5 362.21875 C 857.9006 364.28475 867.6506 277.566 849.25 275.5 C 843.2115 274.892 837.1635 274.26425 831.125 273.65625 C 768.5818 268.19625 705.8616 265.163 643.0625 265.5 C 612.26697 265.70402 581.46954 266.18546 550.6875 267 C 570.06481 252.94304 597.32471 203.5486 584.6875 195.6875 C 567.6588 185.2385 576.0692 190.63475 559.5625 179.46875 C 539.8804 164.10175 521.44995 147.08225 511.15625 123.78125 C 509.73541 120.56413 505.72735 119.18869 500.21875 119.21875 z M 811.5625 362.0625 C 810.98826 362.04838 810.40851 362.09313 809.84375 362.25 C 778.25765 372.021 748.93875 387.37175 720.28125 403.59375 C 692.61105 419.59675 666.7991 438.48525 641.5625 458.03125 C 626.8837 469.47125 680.78995 538.65875 695.46875 527.21875 C 707.26642 517.95976 719.23157 508.88189 731.5 500.25 C 730.77533 530.72423 727.5551 561.12902 724.53125 591.4375 C 724.01327 596.15245 723.50118 600.8805 722.96875 605.59375 C 693.26823 607.8856 663.65106 611.08888 634.25 616.03125 C 600.5795 622.38325 566.9047 629.902 536 645.25 C 533.77686 646.43872 532.63595 648.88152 532.3125 652.1875 C 523.18626 635.02079 505.41965 626.60779 487.15625 622.03125 C 468.08732 618.0002 448.71309 616.43289 429.25 617.875 C 442.04719 596.23282 455.27026 574.78873 471.09375 555.1875 C 481.14385 542.7465 491.89805 530.9445 502.59375 519.0625 C 525.11695 489.2725 521.7847 456.5585 489.1875 436.3125 C 469.4496 426.2545 448.1837 420.092 426.4375 416 C 400.1939 411.382 373.7429 407.94325 347.0625 407.40625 C 328.2804 407.40625 328.2804 495.9375 347.0625 495.9375 C 365.48246 495.62288 383.77323 497.73776 401.90625 500.78125 C 383.84681 523.72526 368.53119 548.58163 353.65625 573.65625 C 341.12725 595.33225 328.60465 617.128 320.46875 640.875 C 311.10195 686.058 336.22295 710.9835 380.15625 711.8125 C 396.95992 710.07916 413.62725 707.51142 430.46875 706.15625 C 429.17962 708.24429 428.11949 710.00158 426.46875 712.6875 C 410.24084 738.89959 393.1508 764.53134 375.53125 789.8125 C 370.7505 787.71481 365.97954 785.58439 361.21875 783.4375 C 325.81525 768.1415 290.32725 752.2035 252.71875 743.0625 C 234.29065 739.4745 217.3844 826.31825 235.8125 829.90625 C 266.19062 836.65911 294.88541 849.39174 323.46875 861.46875 C 307.20464 883.34998 290.88605 905.16846 274.1875 926.71875 C 268.9571 934.45075 260.24465 943.86525 253.53125 948.03125 C 237.72265 958.07225 285.0664 1032.5722 300.875 1022.5312 C 317.6119 1010.6202 331.91135 996.831 343.59375 979.75 C 364.62428 951.83679 385.25538 923.62698 406 895.5 C 437.00885 907.53667 468.27659 918.89286 499.71875 929.78125 C 560.43645 951.20925 622.76595 966.98175 686.21875 977.59375 C 736.43275 984.92675 787.22915 986.0525 837.65625 991.3125 C 852.57325 993.3255 867.48395 995.43325 882.40625 997.40625 C 900.88885 999.65925 911.51385 912.53425 893.03125 910.28125 C 877.38055 908.54525 861.7612 906.58175 846.125 904.71875 C 797.5134 900.26575 748.6009 899.16425 700.1875 892.65625 C 641.4793 883.17125 583.8923 868.44675 527.75 848.71875 C 504.26156 840.59505 480.90398 832.15583 457.6875 823.3125 C 472.3513 802.11385 486.71459 780.6988 500.59375 758.96875 C 516.17965 734.34575 533.6739 709.513 538.1875 680.125 C 538.02126 678.99577 537.89173 677.83116 537.78125 676.6875 C 547.49994 700.82005 567.44514 728.80582 577.71875 723.3125 C 600.45165 711.5295 625.7134 706.363 650.625 701.5 C 671.31145 697.88595 692.12059 695.23377 713 693.21875 C 711.50873 707.16267 710.1157 721.12239 708.875 735.09375 C 707.6485 747.00564 707.14117 758.93019 707.09375 770.875 C 689.73831 773.58161 672.58059 777.37624 655.75 782.84375 C 638.0624 789.04775 667.28115 872.454 684.96875 866.25 C 714.76875 855.445 746.49985 852.929 777.90625 851.625 C 814.24195 851.051 850.4543 854.81075 886.625 857.71875 C 905.1279 859.10075 911.628 771.882 893.125 770.5 C 860.32801 768.23886 827.53696 765.19526 794.65625 764.71875 C 794.72142 757.21507 795.05172 749.71484 795.71875 742.21875 C 797.08925 723.95977 798.80539 705.7388 800.6875 687.53125 C 846.75459 685.79806 892.77565 688.69646 938.59375 693.34375 C 957.95745 695.43275 977.2092 698.45175 996.3125 702.21875 C 1014.6656 705.53975 1030.3219 619.0085 1011.9688 615.6875 C 990.37985 612.0675 968.70045 608.985 946.90625 606.875 C 901.4864 602.73599 855.924 600.00945 810.3125 600.96875 C 810.33963 600.72852 810.37915 600.49024 810.40625 600.25 C 814.94055 557.035 819.5205 513.71975 819.75 470.21875 C 819.59396 464.87417 812.27596 461.27772 801.9375 459.28125 C 812.14865 454.58547 822.62592 450.5014 833.5 447.46875 C 851.00754 442.60563 829.36388 362.5003 811.5625 362.0625 z M 440.875 510.3125 C 443.03982 511.32409 445.03303 512.557 446.8125 514.09375 C 444.58106 513.00699 442.62822 511.73524 440.875 510.3125 z M 406.59375 660.46875 C 406.30934 662.65759 405.7734 664.88329 404.90625 667.15625 C 405.29658 664.88306 405.87579 662.65891 406.59375 660.46875 z M 465.75 707.84375 C 466.22322 707.95336 466.68422 708.06885 467.15625 708.1875 C 468.70303 708.64882 471.56287 709.51938 470.90625 709.6875 C 469.42525 710.06645 467.62634 709.27677 465.75 707.84375 z "
     id="path12198" />
</svg>
