<?xml version="1.0" encoding="utf-8" ?>

<!DOCTYPE svg PUBLIC "-//W3C//DTD SVG 1.1//EN" 
  "http://www.w3.org/Graphics/SVG/1.1/DTD/svg11.dtd">
<svg 
    xmlns="http://www.w3.org/2000/svg"
    xmlns:xlink="http://www.w3.org/1999/xlink"
    xmlns:sodipodi="http://sodipodi.sourceforge.net/DTD/sodipodi-0.dtd"
    xmlns:inkscape="http://www.inkscape.org/namespaces/inkscape"
    width="1024" height="1024" id="U5E78">
<path d="m 8425.1525,55449.181 c 38.7981,0.772 77.5561,-3.173 116.1664,-6.534 66.1907,-6.533 132.3254,-13.431 198.7294,-17.394 42.7534,-2.373 85.6415,-2.101 128.0837,3.795 10.6348,1.385 20.651,4.785 30.572,8.652 17.2467,7.483 -18.0287,88.785 -35.2754,81.302 l 0,0 c -2.3718,-1.346 -5.1521,-2.874 -8.5832,-3.064 -36.3133,-6.229 -73.2457,-6.539 -109.9929,-4.993 -65.4066,3.416 -130.4922,10.402 -195.5869,17.514 -42.1334,4.13 -84.3424,8.579 -126.7117,9.075 -18.7426,-0.551 -16.144,-88.905 2.5986,-88.353 z" id="path12512" inkscape:connector-curvature="0" style="fill:#916f6f;fill-opacity:1;fill-rule:nonzero;stroke:#f9f9f9;stroke-width:0.1;stroke-miterlimit:4;stroke-dasharray:none" transform="translate(-8192, -55296)"/><path d="m 8740.3971,55365.499 c -10.0923,39.739 -14.3614,80.708 -18.7557,121.388 -4.4087,43.516 -7.0855,87.178 -11.154,130.724 -0.5568,4.868 -1.1137,9.735 -1.6705,14.603 -2.2998,18.458 -89.3114,7.617 -87.0117,-10.841 l 0,0 c 0.5729,-4.2 1.1458,-8.4 1.7187,-12.6 4.8153,-43.624 7.8168,-87.418 12.268,-131.079 4.8166,-45.36 9.6771,-90.867 19.3833,-135.493 4.9422,-18.079 90.1642,5.219 85.2219,23.298 z" id="path12523" inkscape:connector-curvature="0" style="fill:#916f6f;fill-opacity:1;fill-rule:nonzero;stroke:#f9f9f9;stroke-width:0.1;stroke-miterlimit:4;stroke-dasharray:none" transform="translate(-8192, -55296)"/><path d="m 8278.541,55648.595 c 50.3119,-4.396 100.8465,-5.458 151.3082,-6.884 82.32,-2.404 164.6505,-4.366 246.9966,-5.574 74.2372,-0.703 148.4731,-1.739 222.7134,-2.035 44.2249,-0.04 88.4407,1.024 132.665,0.501 17.041,-0.398 8.8848,-0.166 24.469,-0.676 18.6456,-0.405 20.5584,87.491 1.9129,87.896 l 0,0 c -16.5407,0.19 -7.8611,0.112 -26.0388,0.222 -44.3559,-0.158 -88.6864,-1.673 -133.0395,-2.08 -73.8202,-0.354 -147.6433,0.222 -221.4607,0.834 -81.8115,1.159 -163.6049,3.244 -245.3651,6.401 -47.456,1.83 -95.0829,3.072 -142.2535,8.915 -18.5658,2.526 -30.4734,-84.994 -11.9075,-87.52 z" id="path12525" inkscape:connector-curvature="0" style="fill:#916f6f;fill-opacity:1;fill-rule:nonzero;stroke:#f9f9f9;stroke-width:0.1;stroke-miterlimit:4;stroke-dasharray:none" transform="translate(-8192, -55296)"/><path d="m 8524.7646,55725.493 c 14.18,27.713 34.6966,50.892 57.5522,71.682 4.8505,3.672 9.7011,7.345 14.5517,11.018 14.5964,11.231 -38.3461,80.039 -52.9425,68.808 l 0,0 c -6.7939,-5.287 -13.5879,-10.574 -20.3819,-15.861 -29.931,-27.702 -56.8096,-58.228 -76.7724,-94.051 -8.8239,-16.545 69.169,-58.141 77.9929,-41.596 z" id="path12527" inkscape:connector-curvature="0" style="fill:#916f6f;fill-opacity:1;fill-rule:nonzero;stroke:#f9f9f9;stroke-width:0.1;stroke-miterlimit:4;stroke-dasharray:none" transform="translate(-8192, -55296)"/><path d="m 8874.2583,55787.687 c -29.6926,15.388 -56.7781,35.269 -84.0348,54.513 -25.7571,18.64 -51.8429,36.804 -78.1854,54.604 -15.2407,10.281 -63.7066,-61.564 -48.4659,-71.846 l 0,0 c 25.7974,-17.372 51.3075,-35.153 76.4171,-53.51 31.2303,-22.294 62.342,-45.015 96.0578,-63.477 16.9104,-8.106 55.1216,71.611 38.2112,79.716 z" id="path12529" inkscape:connector-curvature="0" style="fill:#916f6f;fill-opacity:1;fill-rule:nonzero;stroke:#f9f9f9;stroke-width:0.1;stroke-miterlimit:4;stroke-dasharray:none" transform="translate(-8192, -55296)"/><path d="m 8290.0867,55912.482 c 41.4313,-19.837 88.3238,-23.849 133.2844,-29.87 81.1269,-10.207 162.6968,-16.148 244.2608,-21.505 69.2974,-4.573 138.6866,-7.445 208.0827,-9.988 35.3787,-1.164 70.7552,-3.194 106.1525,-1.814 3.183,0.207 6.366,0.414 9.549,0.62 18.6609,1.455 11.8048,89.423 -6.8561,87.969 l 0,0 c -2.4052,-0.229 -4.8104,-0.458 -7.2155,-0.687 -32.9518,-2.246 -65.9914,-0.286 -98.973,0.115 -68.4604,1.709 -136.9116,4.031 -205.2633,8.371 -79.4235,5.066 -158.8635,10.909 -237.7234,21.922 -33.4951,4.997 -68.4333,8.397 -100.1087,21.02 -16.1544,9.586 -61.3438,-66.567 -45.1894,-76.153 z" id="path12531" inkscape:connector-curvature="0" style="fill:#916f6f;fill-opacity:1;fill-rule:nonzero;stroke:#f9f9f9;stroke-width:0.1;stroke-miterlimit:4;stroke-dasharray:none" transform="translate(-8192, -55296)"/><path d="m 8447.1043,56048.363 c 43.9706,0.134 87.7875,-4.756 131.5079,-8.906 65.6904,-6.854 131.6457,-9.52 197.6568,-8.434 40.6712,1.262 81.353,4.003 121.5323,10.58 18.3537,3.242 3.0689,89.762 -15.2848,86.52 l 0,0 c -35.5884,-6.885 -71.8502,-9.395 -108.0151,-11.006 -62.5892,-1.562 -125.1521,0.814 -187.4096,7.747 -46.3487,4.803 -92.7054,10.158 -139.2966,11.93 -18.7592,0.146 -19.45,-88.285 -0.6909,-88.431 z" id="path12533" inkscape:connector-curvature="0" style="fill:#916f6f;fill-opacity:1;fill-rule:nonzero;stroke:#f9f9f9;stroke-width:0.1;stroke-miterlimit:4;stroke-dasharray:none" transform="translate(-8192, -55296)"/><path d="m 8762.4576,55950.941 c -7.0016,46.412 -8.9804,93.477 -11.688,140.296 -3.3839,58.505 -5.1927,117.081 -7.3503,175.639 -0.2288,6.044 -0.4577,12.087 -0.6865,18.131 -0.9118,18.484 -88.0455,14.186 -87.1338,-4.298 l 0,0 c 0.3619,-5.932 0.7238,-11.865 1.0858,-17.797 3.2158,-58.759 5.4585,-117.566 8.5633,-176.331 2.5849,-50.598 4.4494,-101.339 10.2668,-151.691 3.4049,-18.443 90.3476,-2.392 86.9427,16.051 z" id="path12535" inkscape:connector-curvature="0" style="fill:#916f6f;fill-opacity:1;fill-rule:nonzero;stroke:#f9f9f9;stroke-width:0.1;stroke-miterlimit:4;stroke-dasharray:none" transform="translate(-8192, -55296)"/></svg>