<?xml version="1.0" encoding="utf-8" ?>

<!DOCTYPE svg PUBLIC "-//W3C//DTD SVG 1.1//EN" 
  "http://www.w3.org/Graphics/SVG/1.1/DTD/svg11.dtd">
<svg 
    xmlns="http://www.w3.org/2000/svg"
    xmlns:xlink="http://www.w3.org/1999/xlink"
    xmlns:sodipodi="http://sodipodi.sourceforge.net/DTD/sodipodi-0.dtd"
    xmlns:inkscape="http://www.inkscape.org/namespaces/inkscape"
    width="1024" height="1024" id="U5E72">
<path d="m 11572.614,13558.705 c 41.029,-8.073 82.035,-16.101 123.332,-22.706 54.538,-8.203 109.522,-12.785 164.399,-18.014 29.1,-2.613 58.096,-6.193 87.13,-9.399 18.532,-1.487 25.546,85.874 7.014,87.362 l 0,0 c -28.84,1.053 -57.518,5.689 -86.318,7.386 -52.937,4.665 -105.962,8.998 -158.514,17.09 -40.436,6.673 -80.606,14.674 -120.473,24.203 -18.227,3.515 -34.797,-82.407 -16.57,-85.922 z" id="path23445" inkscape:connector-curvature="0" style="fill:#550000;fill-opacity:1;fill-rule:nonzero;stroke:#f9f9f9;stroke-width:0.1;stroke-miterlimit:4;stroke-dasharray:none" transform="translate(-11264, -13312)"/><path d="m 11418.947,13892.844 c 50.544,-5.201 100.403,-16.006 150.317,-25.323 77.791,-15.161 156.056,-27.402 234.899,-35.43 56.451,-5.501 113.167,-5.739 169.785,-3.655 17.684,-2.433 48.187,6.384 65.13,1.376 18.511,-1.772 26.865,85.49 8.354,87.262 l 0,0 c -25.75,1.629 -51.475,-1.606 -77.2,-2.602 -52.576,-2.629 -105.276,-2.996 -157.767,1.754 -76.365,7.28 -152.143,19.033 -227.334,34.28 -53.684,10.512 -107.201,22.543 -161.462,29.687 -18.53,1.002 -23.251,-86.347 -4.722,-87.349 z" id="path23447" inkscape:connector-curvature="0" style="fill:#550000;fill-opacity:1;fill-rule:nonzero;stroke:#f9f9f9;stroke-width:0.1;stroke-miterlimit:4;stroke-dasharray:none" transform="translate(-11264, -13312)"/><path d="m 11792.226,13622.276 c -0.813,40.042 -1.352,80.089 -1.881,120.135 -1.154,74.589 -1.089,149.179 0.128,223.765 1.514,69.825 5.067,139.584 9.335,209.288 1.249,20.151 2.616,40.294 4.001,60.436 1.055,18.329 -85.349,23.301 -86.404,4.972 l 0,0 c -0.938,-20.252 -1.89,-40.503 -2.889,-60.752 -3.401,-70.812 -6.458,-141.648 -8.056,-212.527 -1.311,-75.269 -1.749,-150.544 -1.452,-225.824 0.07,-39.573 0.434,-79.158 -0.43,-118.724 -0.163,-18.593 87.485,-19.361 87.648,-0.769 z" id="path23455" inkscape:connector-curvature="0" style="fill:#550000;fill-opacity:1;fill-rule:nonzero;stroke:#f9f9f9;stroke-width:0.1;stroke-miterlimit:4;stroke-dasharray:none" transform="translate(-11264, -13312)"/></svg>