<?xml version="1.0" encoding="UTF-8" standalone="no"?>
<svg
   xmlns:dc="http://purl.org/dc/elements/1.1/"
   xmlns:cc="http://creativecommons.org/ns#"
   xmlns:rdf="http://www.w3.org/1999/02/22-rdf-syntax-ns#"
   xmlns:svg="http://www.w3.org/2000/svg"
   xmlns="http://www.w3.org/2000/svg"
   xmlns:sodipodi="http://sodipodi.sourceforge.net/DTD/sodipodi-0.dtd"
   xmlns:inkscape="http://www.inkscape.org/namespaces/inkscape"
   width="1024"
   height="1024"
   id="U5EB7"
   version="1.1"
   inkscape:version="0.48.0 r9654"
   sodipodi:docname="U+5EB7.svg">
  <metadata
     id="metadata18">
    <rdf:RDF>
      <cc:Work
         rdf:about="">
        <dc:format>image/svg+xml</dc:format>
        <dc:type
           rdf:resource="http://purl.org/dc/dcmitype/StillImage" />
      </cc:Work>
    </rdf:RDF>
  </metadata>
  <defs
     id="defs16" />
  <sodipodi:namedview
     pagecolor="#ffffff"
     bordercolor="#666666"
     borderopacity="1"
     objecttolerance="10"
     gridtolerance="10"
     guidetolerance="10"
     inkscape:pageopacity="0"
     inkscape:pageshadow="2"
     inkscape:window-width="640"
     inkscape:window-height="480"
     id="namedview14"
     showgrid="false"
     inkscape:zoom="0.27441406"
     inkscape:cx="512"
     inkscape:cy="512"
     inkscape:window-x="0"
     inkscape:window-y="25"
     inkscape:window-maximized="0"
     inkscape:current-layer="U5EB7" />
  <path
     style="fill:#2b0000;fill-opacity:1;fill-rule:nonzero;stroke:#f9f9f9;stroke-width:0.1;stroke-miterlimit:4;stroke-dasharray:none"
     d="M 433.6875 55.84375 C 414.3039 56.539274 366.38006 111.13194 378.90625 122.625 C 405.59195 147.118 434.6527 168.40675 465.3125 187.59375 C 470.02828 190.42407 474.78395 193.15874 479.59375 195.8125 C 452.87294 197.80708 426.17872 200.291 399.53125 203.25 C 352.43625 208.225 305.3971 213.65275 258.3125 218.71875 C 243.42734 220.81662 248.42665 277.50371 260.5625 298.5 C 250.98603 322.53575 243.20217 347.29901 235.59375 372 C 218.05215 433.098 205.7814 495.548 192.3125 557.625 C 179.5319 617.392 164.6488 676.67575 149.375 735.84375 C 140.0558 771.61475 130.6295 807.32525 121.0625 843.03125 C 119.0723 850.07925 117.14175 857.16625 115.40625 864.28125 C 111.31735 882.63025 197.81735 901.88025 201.90625 883.53125 C 203.07375 877.22225 204.7463 871.0485 206.25 864.8125 C 214.9824 828.8735 223.90885 792.968 233.03125 757.125 C 248.16685 696.881 263.03755 636.58075 276.09375 575.84375 C 289.07915 516.26575 300.9903 456.34825 318.125 397.78125 C 328.5443 364.88825 338.9493 331.465 356.1875 301.375 C 357.29931 299.51009 357.25655 297.25573 356.3125 294.75 C 373.80899 292.65232 391.33292 290.67778 408.84375 288.71875 C 434.86669 285.69807 460.92102 283.23161 487.03125 281.375 C 485.26608 302.4797 484.03592 323.63189 482.875 344.78125 C 467.72797 347.36899 452.62769 350.22601 437.59375 353.4375 C 404.35745 360.8385 371.1221 368.86925 339.5625 381.90625 C 322.5482 389.84625 359.95455 470.065 376.96875 462.125 C 402.45645 450.956 429.68645 444.56625 456.71875 438.40625 C 463.76223 436.86301 470.83079 435.40385 477.90625 434.03125 C 477.49432 441.84583 477.08063 449.65326 476.6875 457.46875 C 451.56176 459.39633 426.39638 460.80224 401.1875 460.4375 C 382.4246 460.5855 383.1121 549.023 401.875 548.875 C 425.53025 548.28437 449.13497 546.91916 472.71875 545.125 C 472.67608 546.17705 472.63603 547.22918 472.59375 548.28125 C 469.68094 548.71702 466.75397 549.13787 463.84375 549.59375 C 424.59825 555.54675 385.45745 562.044 346.15625 567.625 C 327.69275 570.853 342.88025 657.88425 361.34375 654.65625 C 397.39112 648.02566 433.56682 642.02165 469.78125 636.375 C 469.06079 666.03248 468.4673 695.68482 467.8125 725.34375 C 448.64609 732.2366 429.75026 739.85461 411.21875 748.40625 C 409.56572 749.1725 407.93088 749.97726 406.28125 750.75 C 391.35095 735.28804 375.58287 720.67824 357.90625 708.34375 C 342.30955 697.89175 293.0283 771.39175 308.625 781.84375 C 313.88749 785.21209 318.85965 788.95756 323.59375 792.96875 C 318.83171 795.61133 314.07614 798.29875 309.34375 801 C 293.19885 810.546 338.19885 886.63975 354.34375 877.09375 C 384.24715 858.24375 415.66295 842.09725 447.71875 827.28125 C 453.28678 824.72052 458.88926 822.27623 464.53125 819.90625 C 463.89438 832.23398 463.1934 844.55522 462.40625 856.875 C 461.50515 870.174 460.5883 883.47725 459.75 896.78125 C 458.7883 915.50225 547.0384 920.0345 548 901.3125 C 548.5147 888.1615 549.1603 875.017 549.875 861.875 C 550.21292 855.19 550.50206 848.49878 550.8125 841.8125 C 552.07202 842.74945 553.45428 843.23549 554.90625 843.1875 C 579.80695 842.0895 604.3069 847.24275 628.4375 852.71875 C 659.4177 859.94775 689.53595 870.1985 718.65625 882.9375 C 728.82085 887.3865 738.49495 892.8015 748.03125 898.4375 C 764.22615 907.7115 807.9449 831.36875 791.75 822.09375 C 779.1836 815.05775 766.5235 808.2065 753.25 802.5625 C 720.28265 788.57249 686.39979 776.85585 651.5625 768.4375 C 662.68994 758.64605 673.73198 748.74978 684.53125 738.59375 C 707.38055 717.12475 729.6961 695.01475 753.9375 675.09375 C 768.3273 663.05375 711.5772 595.21 697.1875 607.25 C 672.3765 629.171 648.82745 652.4455 624.78125 675.1875 C 611.30335 687.9185 597.3327 700.126 583.3125 712.25 C 575.62456 718.93363 589.53674 741.86518 605.90625 759.125 C 588.67735 756.34583 571.31431 754.62921 553.78125 754.75 C 553.83754 751.74043 553.92386 748.72863 553.96875 745.71875 C 554.62812 705.64104 555.03527 665.57446 555.875 625.5 C 571.32526 624.04329 586.79864 622.79925 602.28125 621.71875 C 618.60555 620.50775 634.94645 620.675 651.28125 621.375 C 662.01721 621.70338 667.44952 592.75207 666.59375 567.96875 C 687.93004 573.68045 710.56057 574.86878 712.96875 565.8125 C 720.12455 537.8745 725.10915 509.45675 729.53125 480.96875 C 733.55735 450.61475 736.40845 419.7175 728.46875 389.6875 C 717.03715 355.7375 699.1 334.6885 662.375 328.1875 C 631.64519 325.3149 601.00449 328.70745 570.4375 332.25 C 571.70287 313.95935 573.19879 295.68377 575.4375 277.5 C 576.73948 277.47988 578.04162 277.45427 579.34375 277.4375 C 595.77865 278.4505 613.12585 276.3795 629.15625 281.0625 C 647.52155 284.6155 664.27155 198.053 645.90625 194.5 C 634.82948 192.71875 623.71959 191.6293 612.5625 191.0625 C 616.95841 179.81581 618.13192 170.36038 613.15625 167.28125 C 609.18595 164.89225 605.2202 162.48275 601.25 160.09375 C 571.5425 144.18375 540.6188 130.62175 511.4375 113.71875 C 485.3022 97.45875 460.5382 79.27675 438.6875 57.46875 C 437.3917 56.279812 435.6927 55.771799 433.6875 55.84375 z M 633.90625 414.25 C 637.30499 414.23962 640.68816 414.39293 644.0625 414.6875 C 644.06796 414.99817 644.11505 415.3423 644.1875 415.78125 C 646.14783 426.49949 646.05623 437.33367 645.15625 448.125 C 644.06359 447.18627 642.85016 446.62915 641.5 446.53125 C 624.0689 445.60625 633.03685 445.81 614.59375 446 C 597.34752 446.85226 580.13278 448.12849 562.9375 449.59375 C 563.47915 439.93657 564.03548 430.27962 564.625 420.625 C 569.28219 420.04424 573.93374 419.4574 578.59375 418.90625 C 596.74847 418.20575 615.47307 414.3063 633.90625 414.25 z M 648.125 415.125 C 649.48827 415.3043 650.86141 415.50453 652.21875 415.75 C 652.28142 418.22615 650.19574 416.65327 648.125 415.125 z M 603.03125 534.15625 C 600.60871 534.31365 598.20232 534.4845 595.78125 534.6875 C 583.40151 535.67082 571.01867 536.76316 558.65625 537.9375 C 558.66585 537.70808 558.67788 537.47942 558.6875 537.25 C 573.44668 535.97037 588.2325 534.89572 603.03125 534.15625 z "
     id="path9927" />
</svg>
