<?xml version="1.0" encoding="utf-8" ?>

<!DOCTYPE svg PUBLIC "-//W3C//DTD SVG 1.1//EN" 
  "http://www.w3.org/Graphics/SVG/1.1/DTD/svg11.dtd">
<svg 
    xmlns="http://www.w3.org/2000/svg"
    xmlns:xlink="http://www.w3.org/1999/xlink"
    xmlns:sodipodi="http://sodipodi.sourceforge.net/DTD/sodipodi-0.dtd"
    xmlns:inkscape="http://www.inkscape.org/namespaces/inkscape"
    width="1024" height="1024" id="U5E0C">
<path d="m 10859.599,52454.461 c -26.395,31.466 -57.109,58.828 -87.866,85.892 -56.568,49.354 -117.532,93.174 -180.048,134.589 -50.06,32.616 -102.579,61.141 -156.137,87.522 -15.248,7.481 -30.644,14.659 -46.436,20.912 -17.587,6.502 -48.234,-76.404 -30.647,-82.905 l 0,0 c 13.543,-4.388 26.391,-10.653 39.378,-16.424 50.562,-23.679 99.975,-49.809 146.9,-80.153 59.206,-39.007 116.783,-80.547 169.695,-127.884 26.748,-24.127 53.796,-48.353 76.053,-76.835 11.728,-14.66 80.836,40.626 69.108,55.286 z" id="path13162" inkscape:connector-curvature="0" style="fill:#501616;fill-opacity:1;fill-rule:nonzero;stroke:#f9f9f9;stroke-width:0.1;stroke-miterlimit:4;stroke-dasharray:none" transform="translate(-10240, -52224)"/><path d="m 10530.702,52429.454 c 29.306,30.55 64.457,54.571 99.285,78.283 54.519,36.743 112.549,67.693 171.473,96.661 45.253,22.011 91.628,41.548 138.031,60.967 11.55,4.699 22.893,9.873 34.186,15.152 16.804,8.236 -22.02,87.454 -38.825,79.218 l 0,0 c -9.766,-5.068 -19.645,-9.91 -29.77,-14.233 -47.43,-20.889 -95.021,-41.45 -141.556,-64.3 -62.274,-30.892 -123.65,-63.733 -181.606,-102.262 -39.798,-26.656 -79.459,-53.944 -114.042,-87.31 -13.189,-13.327 49.635,-75.503 62.824,-62.176 z" id="path13164" inkscape:connector-curvature="0" style="fill:#501616;fill-opacity:1;fill-rule:nonzero;stroke:#f9f9f9;stroke-width:0.1;stroke-miterlimit:4;stroke-dasharray:none" transform="translate(-10240, -52224)"/><path d="m 10292.893,52850.321 c 39.911,-0.484 79.671,-5.022 119.349,-9.005 69.849,-7.705 139.751,-14.594 209.922,-18.484 63.375,-3.29 126.759,-0.417 189.859,5.605 33.415,3.862 66.866,7.595 100.539,6.461 18.63,-0.367 20.358,87.456 1.728,87.822 l 0,0 c -37.166,0.335 -74.078,-3.35 -110.899,-8.253 -58.644,-6.193 -117.592,-9.311 -176.566,-6.368 -68.738,3.702 -137.189,10.643 -205.539,18.775 -42.166,4.677 -84.344,9.676 -126.723,11.981 -18.781,0.355 -20.451,-88.18 -1.67,-88.534 z" id="path13166" inkscape:connector-curvature="0" style="fill:#501616;fill-opacity:1;fill-rule:nonzero;stroke:#f9f9f9;stroke-width:0.1;stroke-miterlimit:4;stroke-dasharray:none" transform="translate(-10240, -52224)"/><path d="m 10720.112,52704.201 c -29.79,38.539 -57.853,78.34 -85.303,118.564 -39.676,58.398 -76.663,118.547 -111.784,179.775 -18.123,32.324 -35.873,64.98 -48.781,99.78 -6.783,17.269 -88.188,-14.707 -81.404,-31.975 l 0,0 c 15.698,-38.339 35.292,-74.828 56.058,-110.652 36.529,-62.735 74.596,-124.573 114.986,-184.908 27.455,-40.93 55.676,-81.313 84.075,-121.589 10.82,-15.306 82.973,35.699 72.153,51.005 z" id="path13168" inkscape:connector-curvature="0" style="fill:#501616;fill-opacity:1;fill-rule:nonzero;stroke:#f9f9f9;stroke-width:0.1;stroke-miterlimit:4;stroke-dasharray:none" transform="translate(-10240, -52224)"/><path d="m 10581.973,53006.285 c -2.24,30.463 2.846,60.742 9.193,90.415 7.121,23.807 12.369,51.748 30.803,69.9 11.994,14.263 -55.242,70.804 -67.236,56.541 l 0,0 c -25.157,-31.814 -40.05,-68.853 -48.695,-108.428 -7.89,-37.624 -13.821,-75.811 -12.27,-114.397 1.266,-18.711 89.471,-12.742 88.205,5.969 z" id="path13170" inkscape:connector-curvature="0" style="fill:#501616;fill-opacity:1;fill-rule:nonzero;stroke:#f9f9f9;stroke-width:0.1;stroke-miterlimit:4;stroke-dasharray:none" transform="translate(-10240, -52224)"/><path d="m 10582.577,53030.856 c 31.814,-17.458 66.805,-27.013 102.012,-34.746 36.724,-7.433 73.883,-12.472 111.335,-13.678 31.989,-0.871 60.718,7.53 86.881,25.552 27.433,22.635 37.915,54.227 42.903,88.222 3.448,41.479 -7.679,81.36 -22.448,119.631 -10.865,22.756 -4.861,11.781 -17.966,32.95 -10.15,15.597 -83.675,-32.25 -73.525,-47.847 l 0,0 c 7.102,-9.774 3.541,-4.178 10.212,-17.078 9.781,-24.213 17.799,-49.551 16.808,-75.998 -1.085,-10.191 -2.611,-20.339 -8.494,-29.021 -7.109,-8.983 -22.182,-7.677 -32.203,-8.86 -31.919,0.469 -63.566,5.107 -94.855,11.281 -26.007,5.674 -52.225,12.153 -75.466,25.634 -16.131,9.588 -61.325,-66.455 -45.194,-76.042 z" id="path13172" inkscape:connector-curvature="0" style="fill:#501616;fill-opacity:1;fill-rule:nonzero;stroke:#f9f9f9;stroke-width:0.1;stroke-miterlimit:4;stroke-dasharray:none" transform="translate(-10240, -52224)"/><path d="m 10736.06,52943.331 c -5.695,41.343 -4.502,83.249 -3.343,124.842 2.882,64.454 8.53,128.744 13.634,193.049 2.671,34.972 1.405,17.923 3.808,51.147 1.22,18.33 -85.192,24.081 -86.412,5.751 l 0,0 c -1.984,-32.7 -0.916,-15.899 -3.22,-50.401 -4.721,-65.57 -10.205,-131.096 -13.545,-196.757 -1.711,-46.38 -3.168,-92.941 1.295,-139.225 2.46,-18.621 90.243,-7.027 87.783,11.594 z" id="path13176" inkscape:connector-curvature="0" style="fill:#501616;fill-opacity:1;fill-rule:nonzero;stroke:#f9f9f9;stroke-width:0.1;stroke-miterlimit:4;stroke-dasharray:none" transform="translate(-10240, -52224)"/></svg>