<?xml version="1.0" encoding="UTF-8" standalone="no"?>
<svg
   xmlns:dc="http://purl.org/dc/elements/1.1/"
   xmlns:cc="http://creativecommons.org/ns#"
   xmlns:rdf="http://www.w3.org/1999/02/22-rdf-syntax-ns#"
   xmlns:svg="http://www.w3.org/2000/svg"
   xmlns="http://www.w3.org/2000/svg"
   xmlns:sodipodi="http://sodipodi.sourceforge.net/DTD/sodipodi-0.dtd"
   xmlns:inkscape="http://www.inkscape.org/namespaces/inkscape"
   width="1024"
   height="1024"
   id="U5E97"
   version="1.1"
   inkscape:version="0.48.0 r9654"
   sodipodi:docname="U+5E97.svg">
  <metadata
     id="metadata15">
    <rdf:RDF>
      <cc:Work
         rdf:about="">
        <dc:format>image/svg+xml</dc:format>
        <dc:type
           rdf:resource="http://purl.org/dc/dcmitype/StillImage" />
      </cc:Work>
    </rdf:RDF>
  </metadata>
  <defs
     id="defs13" />
  <sodipodi:namedview
     pagecolor="#ffffff"
     bordercolor="#666666"
     borderopacity="1"
     objecttolerance="10"
     gridtolerance="10"
     guidetolerance="10"
     inkscape:pageopacity="0"
     inkscape:pageshadow="2"
     inkscape:window-width="640"
     inkscape:window-height="480"
     id="namedview11"
     showgrid="false"
     inkscape:zoom="0.27441406"
     inkscape:cx="512"
     inkscape:cy="512"
     inkscape:window-x="0"
     inkscape:window-y="25"
     inkscape:window-maximized="0"
     inkscape:current-layer="U5E97" />
  <path
     style="fill:#550000;fill-opacity:1;fill-rule:nonzero;stroke:#f9f9f9;stroke-width:0.1;stroke-miterlimit:4;stroke-dasharray:none"
     d="M 458.21875 59.1875 C 436.69364 59.157332 383.08766 95.536453 391.59375 109.0625 C 407.85655 133.7863 426.36965 156.79575 445.84375 179.03125 C 454.40465 188.46145 463.0477 197.8096 471.3125 207.5 C 483.4257 221.4429 549.14445 164.34915 537.03125 150.40625 C 528.49235 140.72105 519.73995 131.2257 510.96875 121.75 C 494.47695 103.0878 478.64885 83.7754 465.78125 62.375 C 464.38934 60.161647 461.74104 59.192437 458.21875 59.1875 z M 663.6875 242.375 C 647.66255 242.40981 631.6185 243.5867 615.53125 245.625 C 538.11905 254.502 461.1764 267.03695 384.75 282.21875 C 341.70327 290.69252 298.75386 299.81016 255.5 307.1875 C 240.65141 305.09855 228.19782 306.24065 226.4375 312.8125 C 226.30917 313.41712 226.18864 314.02001 226.0625 314.625 C 223.25811 318.91381 222.02408 326.79499 222.03125 336.03125 C 216.33127 369.74695 213.34505 403.9145 210.15625 437.9375 C 204.54785 503.7438 198.8373 569.5348 191.0625 635.125 C 185.3505 680.121 178.28715 724.92535 169.09375 769.34375 C 165.63705 784.48765 167.36195 777.2343 164.03125 791.125 C 159.92535 809.149 244.8941 828.524 249 810.5 C 252.3439 795.083 250.5916 803.2035 254.125 786.0625 C 262.8719 739.2896 269.5533 692.1582 275.375 644.9375 C 282.9606 578.8352 288.76095 512.57385 295.09375 446.34375 C 297.1953 426.23744 299.13809 406.04043 301.875 385.96875 C 335.07484 379.05869 368.22605 371.88458 401.4375 365.03125 C 475.2439 349.72675 549.7012 337.6574 624.6875 330 C 648.0988 328.8734 672.48295 324.89015 695.46875 331.28125 C 713.57495 334.72515 729.82505 249.3813 711.71875 245.9375 C 695.7188 243.44775 679.71245 242.34019 663.6875 242.375 z M 423.46875 389.84375 C 413.26113 389.869 405.68657 391.97185 404.53125 397.0625 C 397.23665 437.9529 394.4184 479.47515 391.3125 520.84375 C 388.1419 566.16745 385.2325 611.52255 383.0625 656.90625 L 382.6875 671.84375 C 382.66888 673.65393 383.5339 675.28003 385.03125 676.75 C 369.822 682.6338 354.93828 689.28936 340.5625 697.125 C 317.56327 687.01139 287.06715 681.19839 283.46875 691.59375 C 271.60285 729.18635 270.8985 768.316 273.625 807.25 C 277.6614 843.303 285.3462 879.02625 299.0625 912.65625 C 306.4132 929.62125 386.38205 894.966 379.03125 878 C 367.34385 854.106 363.69845 826.89725 359.65625 800.90625 C 358.67592 788.51932 358.08783 776.0356 358.59375 763.65625 C 366.68349 772.96878 374.72749 778.55113 379.8125 775.5 C 405.5948 759.3842 434.50915 749.88405 463.46875 741.34375 C 498.08765 731.10915 533.8383 728.0228 569.75 728.625 C 584.8172 731.5324 608.58605 727.80115 620.84375 739.65625 C 619.68425 742.00105 617.4714 737.5905 616.25 738.1875 C 614.7299 738.9306 615.5352 750.8427 615.3125 756.25 C 613.8231 784.9502 607.6899 812.9315 598.875 840.1875 L 598.0625 842.21875 C 566.56088 843.75832 535.13055 846.76751 503.71875 849.75 C 465.07815 853.646 426.4624 857.7605 387.9375 862.6875 C 369.605 865.7435 384.01135 952.14975 402.34375 949.09375 C 438.87205 942.87575 475.7332 938.929 512.5625 935 C 555.4546 930.931 598.4303 926.478 641.5625 927.625 C 650.31017 927.75282 655.17013 908.16236 655.875 887.59375 C 665.61599 888.95409 673.12318 887.94914 674.96875 883.21875 C 677.11655 877.59275 679.25845 871.96975 681.40625 866.34375 C 692.27505 831.53875 700.0964 795.92385 702.125 759.40625 C 703.3673 722.08275 698.50365 686.38365 664.71875 664.15625 C 635.47125 648.56895 603.739 642.56215 570.625 642.21875 C 536.72438 642.06863 502.91694 644.4329 469.78125 651.15625 C 470.4302 632.21177 471.30833 613.26958 472.375 594.34375 C 493.02094 588.3671 514.178 584.49244 535.625 583.0625 C 545.1003 583.4409 540.95255 582.80825 548.15625 584.40625 C 566.49585 586.83955 577.9646 500.3708 559.625 497.9375 C 539.2194 495.7818 549.4671 496.28185 528.875 496.40625 C 511.99934 497.84994 495.28093 500.21216 478.6875 503.40625 C 481.06288 474.24411 483.8926 445.07909 489.875 416.4375 C 492.82748 403.42805 449.55488 389.77922 423.46875 389.84375 z "
     id="path22113" />
</svg>
