<?xml version="1.0" encoding="utf-8" ?>

<!DOCTYPE svg PUBLIC "-//W3C//DTD SVG 1.1//EN" 
  "http://www.w3.org/Graphics/SVG/1.1/DTD/svg11.dtd">
<svg 
    xmlns="http://www.w3.org/2000/svg"
    xmlns:xlink="http://www.w3.org/1999/xlink"
    xmlns:sodipodi="http://sodipodi.sourceforge.net/DTD/sodipodi-0.dtd"
    xmlns:inkscape="http://www.inkscape.org/namespaces/inkscape"
    width="1024" height="1024" id="U5E74">
<path d="m 10559.572,35104.724 c -13.869,34.4 -25.229,69.742 -36.094,105.183 -11.63,39.351 -21.293,79.252 -29.78,119.388 -2.692,12.068 -4.621,24.249 -5.931,36.534 -2.353,18.508 -89.605,7.416 -87.252,-11.093 l 0,0 c 2.085,-14.748 4.513,-29.431 7.93,-43.942 9.418,-42.391 19.831,-84.574 32.083,-126.243 11.412,-37.435 23.486,-74.66 36.56,-111.551 6.73,-17.498 89.214,14.227 82.484,31.724 z" id="path10443" inkscape:connector-curvature="0" style="fill:#c83737;fill-opacity:1;fill-rule:nonzero;stroke:#f9f9f9;stroke-width:0.1;stroke-miterlimit:4;stroke-dasharray:none" transform="translate(-10240, -34816)"/><path d="m 10511.162,35163.103 c 38.935,-8.868 77.962,-17.291 117.121,-25.111 55.629,-10.889 111.783,-18.555 168.201,-23.832 34.53,-3.17 69.174,-4.444 103.833,-4.717 10.637,-0.692 20.532,1.18 30.866,3.376 18.02,5.431 -7.583,90.377 -25.603,84.945 l 0,0 c 1.813,0.174 3.619,0.503 5.44,0.52 3.67,0.03 -21.995,-2.209 -10.977,-0.839 -31.973,-0.48 -63.951,0.243 -95.834,2.879 -53.267,4.554 -106.269,11.658 -158.693,22.275 -38.006,7.899 -75.951,16.224 -113.409,26.451 -18.232,4.444 -39.177,-81.504 -20.945,-85.947 z" id="path10445" inkscape:connector-curvature="0" style="fill:#c83737;fill-opacity:1;fill-rule:nonzero;stroke:#f9f9f9;stroke-width:0.1;stroke-miterlimit:4;stroke-dasharray:none" transform="translate(-10240, -34816)"/><path d="m 10597.257,35311.457 c 6.439,28.954 10.578,58.347 16.086,87.482 4.442,23.444 11.003,46.496 23.772,66.806 9.445,16.088 -66.395,60.61 -75.839,44.522 l 0,0 c -16.761,-29.605 -27.931,-61.473 -33.771,-95.055 -5.108,-26.883 -8.987,-54.054 -15.69,-80.598 -4.912,-18.125 80.53,-41.282 85.442,-23.157 z" id="path10447" inkscape:connector-curvature="0" style="fill:#c83737;fill-opacity:1;fill-rule:nonzero;stroke:#f9f9f9;stroke-width:0.1;stroke-miterlimit:4;stroke-dasharray:none" transform="translate(-10240, -34816)"/><path d="m 10591.148,35326.89 c 30.721,-15.883 64.001,-25.926 96.93,-36.093 38.401,-11.956 77.92,-19.159 117.966,-22.239 26.845,-1.928 53.404,1.568 79.278,8.518 11.392,3.622 4.921,1.164 19.083,8.189 16.085,9.776 -30,85.6 -46.085,75.824 l 0,0 c 6.61,2.47 7.569,2.871 2.94,1.037 -15.956,-4.91 -32.396,-7.371 -49.149,-6.341 -33.367,1.988 -66.223,8.302 -98.17,18.191 -26.231,8.219 -52.907,16.126 -77.379,28.853 -16.109,9.634 -61.523,-66.305 -45.414,-75.939 z" id="path10449" inkscape:connector-curvature="0" style="fill:#c83737;fill-opacity:1;fill-rule:nonzero;stroke:#f9f9f9;stroke-width:0.1;stroke-miterlimit:4;stroke-dasharray:none" transform="translate(-10240, -34816)"/><path d="m 10421.6,35528.878 c 44.199,-10.092 88.365,-20.28 132.741,-29.577 64.364,-13.015 129.37,-22.475 194.292,-32.195 51.008,-8.593 102.476,-13.344 154.049,-16.758 29.264,-2.295 58.59,-2.279 87.912,-1.781 10.085,0.18 5.569,0.225 13.55,0 18.752,-0.142 19.418,88.261 0.665,88.402 l 0,0 c -11.06,-0.05 -5.573,0.07 -16.46,-0.358 -26.792,-0.918 -53.595,-1.268 -80.369,0.57 -49.137,2.735 -98.187,6.81 -146.788,14.847 -63.164,9.224 -126.401,18.346 -188.924,31.347 -43.472,9.437 -86.793,19.571 -129.692,31.37 -18.216,4.45 -39.193,-81.423 -20.976,-85.873 z" id="path10451" inkscape:connector-curvature="0" style="fill:#c83737;fill-opacity:1;fill-rule:nonzero;stroke:#f9f9f9;stroke-width:0.1;stroke-miterlimit:4;stroke-dasharray:none" transform="translate(-10240, -34816)"/><path d="m 10756.556,35172.815 c -7.066,36.514 -5.424,74.263 -4.991,111.266 1.026,66.837 5.721,133.522 11.543,200.088 4.135,46.72 10.405,93.199 16.582,139.68 2.809,18.185 4.138,36.455 4.039,54.834 -0.396,18.694 -88.518,16.828 -88.122,-1.865 l 0,0 c 0.736,-14.08 -0.843,-28.094 -2.496,-42.069 -5.673,-47.731 -11.597,-95.441 -15.491,-143.361 -5.582,-68.503 -10.257,-137.092 -11.954,-205.818 -1.024,-45.203 -3.275,-91.136 5.393,-135.773 4.883,-18.136 90.379,4.882 85.497,23.018 z" id="path10453" inkscape:connector-curvature="0" style="fill:#c83737;fill-opacity:1;fill-rule:nonzero;stroke:#f9f9f9;stroke-width:0.1;stroke-miterlimit:4;stroke-dasharray:none" transform="translate(-10240, -34816)"/></svg>