<?xml version="1.0" encoding="UTF-8" standalone="no"?>
<svg
   xmlns:dc="http://purl.org/dc/elements/1.1/"
   xmlns:cc="http://creativecommons.org/ns#"
   xmlns:rdf="http://www.w3.org/1999/02/22-rdf-syntax-ns#"
   xmlns:svg="http://www.w3.org/2000/svg"
   xmlns="http://www.w3.org/2000/svg"
   xmlns:sodipodi="http://sodipodi.sourceforge.net/DTD/sodipodi-0.dtd"
   xmlns:inkscape="http://www.inkscape.org/namespaces/inkscape"
   width="1024"
   height="1024"
   id="U5EA6"
   version="1.1"
   inkscape:version="0.48.0 r9654"
   sodipodi:docname="U+5EA6.svg">
  <metadata
     id="metadata16">
    <rdf:RDF>
      <cc:Work
         rdf:about="">
        <dc:format>image/svg+xml</dc:format>
        <dc:type
           rdf:resource="http://purl.org/dc/dcmitype/StillImage" />
      </cc:Work>
    </rdf:RDF>
  </metadata>
  <defs
     id="defs14" />
  <sodipodi:namedview
     pagecolor="#ffffff"
     bordercolor="#666666"
     borderopacity="1"
     objecttolerance="10"
     gridtolerance="10"
     guidetolerance="10"
     inkscape:pageopacity="0"
     inkscape:pageshadow="2"
     inkscape:window-width="640"
     inkscape:window-height="480"
     id="namedview12"
     showgrid="false"
     inkscape:zoom="0.27441406"
     inkscape:cx="512"
     inkscape:cy="512"
     inkscape:window-x="0"
     inkscape:window-y="25"
     inkscape:window-maximized="0"
     inkscape:current-layer="U5EA6" />
  <path
     style="fill:#550000;fill-opacity:1;fill-rule:nonzero;stroke:#f9f9f9;stroke-width:0.1;stroke-miterlimit:4;stroke-dasharray:none"
     d="M 457.84375 83.09375 C 437.92011 83.630185 387.4859 131.32725 398.53125 143.625 C 422.83565 168.79 449.8391 191.083 475.4375 214.875 L 486.53125 226.21875 C 499.42695 239.25175 560.86445 178.43925 547.96875 165.40625 C 543.35665 160.78225 538.7371 156.15525 534.125 151.53125 C 510.4258 129.62725 485.393 109.05025 463.625 85.15625 C 462.26855 83.646 460.29051 83.027872 457.84375 83.09375 z M 692.40625 275.78125 C 634.90665 275.75225 577.574 280.022 520.4375 286.375 C 450.0498 294.068 379.729 302.79075 309.9375 314.84375 C 264.231 323.28075 218.3249 331.92675 174.3125 347.21875 C 157.0532 354.12275 189.58455 435.49775 206.84375 428.59375 C 210.1194 427.32966 213.41109 426.13233 216.71875 424.96875 C 213.53198 460.12478 212.4477 495.49213 210.3125 530.71875 C 206.3662 594.72375 196.985 658.18 186.4375 721.375 C 178.2052 770.77 168.1067 819.838 161.5625 869.5 C 159.915 891.349 160.19825 880.54425 160.65625 901.90625 C 161.52125 920.36325 248.52125 916.29975 247.65625 897.84375 C 246.53665 887.61075 246.8811 893.5555 247.4375 879.9375 C 252.7726 831.3685 262.4366 783.43275 270.1875 735.21875 C 281.0171 669.21475 290.7946 602.9685 295.375 536.1875 C 298.2358 494.4075 299.3912 452.3355 306 410.9375 C 306.52567 408.25289 305.0915 405.57851 302.28125 403.0625 C 310.09298 401.5143 317.91976 400.0055 325.71875 398.5 C 350.72036 394.00728 375.80184 390.03092 400.9375 386.40625 C 399.76485 387.49636 399.04459 388.72807 398.84375 390.1875 C 395.87745 421.5025 397.55625 453.03925 398.65625 484.40625 C 398.92262 491.09461 399.1266 497.77805 399.3125 504.46875 C 392.08169 506.07781 384.85057 507.67204 377.625 509.3125 C 359.5476 513.5135 379.3601 598.73225 397.4375 594.53125 C 399.70353 593.91494 401.98071 593.35247 404.25 592.75 C 404.51393 594.46936 404.71479 595.70359 404.90625 596.6875 C 392.56316 614.23078 391.91337 679.22982 407.90625 679.9375 C 440.82615 679.8605 473.74545 678.93375 506.65625 678.21875 C 538.16885 677.43875 569.69705 677.0375 601.21875 676.9375 C 606.89746 676.89017 610.74249 668.58141 612.8125 657.125 C 619.2209 654.90459 623.31342 651.81135 623.34375 647.8125 C 623.27165 629.3265 623.30765 610.82375 623.84375 592.34375 C 624.24141 579.32188 624.67007 566.30306 625.09375 553.28125 C 632.62607 552.4753 640.15534 551.6662 647.6875 550.875 L 663.59375 549.125 C 681.84355 546.952 671.59355 460.92075 653.34375 463.09375 C 648.26965 463.74875 643.1991 464.4075 638.125 465.0625 C 634.46034 465.49544 630.79047 465.91432 627.125 466.34375 C 627.12795 465.8752 627.12241 465.40606 627.125 464.9375 C 627.479 433.9455 627.3921 402.87875 629.9375 371.96875 C 630.21872 368.56572 627.47724 365.55026 622.84375 363 C 645.7221 361.92455 668.63594 361.50257 691.5625 361.96875 C 709.4972 363.05975 701.39815 362.18525 715.90625 364.15625 C 734.25265 366.11425 743.4714 279.6455 725.125 277.6875 C 704.3033 275.8585 715.21395 276.54925 692.40625 275.78125 z M 542.4375 369.15625 C 541.1019 400.82459 541.11626 432.52811 540.9375 464.21875 C 540.93839 468.54215 540.90888 472.86475 540.875 477.1875 C 527.04513 479.17991 513.26029 481.34482 499.5 483.8125 C 494.73038 484.69485 489.94989 485.58569 485.1875 486.5 C 485.12278 484.85199 485.07449 483.20986 485 481.5625 C 484.1853 455.1405 482.6505 428.48325 485.6875 402.15625 C 487.10454 391.85903 460.60134 383.58058 436.5 381.5 C 467.47522 377.43826 498.50547 373.84501 529.5625 370.5 C 533.85307 370.03484 538.14429 369.5942 542.4375 369.15625 z M 538.625 564.125 C 538.31116 572.55465 537.97438 580.9773 537.65625 589.40625 C 537.63163 590.08291 537.61761 590.76082 537.59375 591.4375 C 526.71845 591.63901 515.84357 591.83737 504.96875 592.0625 C 500.07079 592.14625 495.18062 592.2214 490.28125 592.3125 C 492.20389 589.82584 493.01436 587.36613 492.28125 585.0625 C 489.76605 579.9625 491.0729 583.25025 489.3125 574.90625 C 489.24761 574.31247 489.18709 573.71896 489.125 573.125 C 497.80084 571.37571 506.48777 569.66664 515.1875 568.03125 C 522.98545 566.62753 530.79969 565.34066 538.625 564.125 z M 654.75 691.46875 C 640.59886 691.37575 626.31625 692.605 612.6875 692.8125 C 563.7639 696.7005 515.1131 702.95625 466.625 710.53125 C 427.3538 716.75425 387.9474 722.907 349.5625 733.5 C 339.92033 736.57123 343.44985 762.73549 351.5 785 C 339.32108 807.10711 330.75425 837.36611 340.875 841.875 C 368.82311 853.73566 396.7254 865.64001 424.6875 877.46875 C 417.67886 880.61092 410.65364 883.7477 403.625 886.84375 C 370.3052 899.97975 337.0201 916.32575 301.0625 920.59375 C 282.8566 923.39275 296.0441 1009.2062 314.25 1006.4062 C 357.4706 998.93325 398.2117 982.60525 438.25 965.03125 C 469.74479 951.01539 501.09767 936.64847 532.15625 921.6875 C 553.80726 930.13388 575.5308 938.35985 597.375 946.3125 C 647.746 964.3175 698.8829 980.051 749.8125 996.375 C 755.8036 998.286 761.79015 1000.214 767.78125 1002.125 C 785.27145 1007.551 810.8651 925.08225 793.375 919.65625 C 787.4451 917.86825 781.52355 916.1005 775.59375 914.3125 C 727.78496 899.62125 679.89184 885.08615 632.71875 868.4375 C 657.05046 853.53915 680.30265 836.99978 700.78125 816.875 C 725.22125 791.074 749.10325 759.44625 728.21875 722.65625 C 724.34415 715.83125 717.26185 711.40025 711.78125 705.78125 C 706.54325 703.18725 701.5191 700.096 696.0625 698 C 682.9304 692.9545 668.90114 691.56175 654.75 691.46875 z M 611.46875 779.1875 C 591.76825 793.69632 570.34213 805.86356 548.90625 817.65625 C 542.0876 821.23114 535.23823 824.733 528.375 828.21875 C 509.69821 820.54796 491.11338 812.6669 472.625 804.53125 C 468.1517 802.60107 463.69178 800.65042 459.21875 798.71875 C 466.24315 797.55306 473.2666 796.40012 480.28125 795.25 C 523.80187 788.22701 567.51427 782.4967 611.46875 779.1875 z M 664.8125 779.46875 C 668.51372 780.12439 673.14779 781.18894 670.8125 781.625 C 669.3745 781.893 667.96365 781.046 666.53125 780.75 C 665.89632 780.25761 665.38784 779.90237 664.8125 779.46875 z "
     id="path22441" />
</svg>
