<?xml version="1.0" encoding="utf-8" ?>

<!DOCTYPE svg PUBLIC "-//W3C//DTD SVG 1.1//EN" 
  "http://www.w3.org/Graphics/SVG/1.1/DTD/svg11.dtd">
<svg 
    xmlns="http://www.w3.org/2000/svg"
    xmlns:xlink="http://www.w3.org/1999/xlink"
    xmlns:sodipodi="http://sodipodi.sourceforge.net/DTD/sodipodi-0.dtd"
    xmlns:inkscape="http://www.inkscape.org/namespaces/inkscape"
    width="1024" height="1024" id="U5E26">
<path d="m 8344.5565,7405.2542 c 42.5907,-7.4259 84.8932,-16.4508 127.296,-24.8752 75.7233,-15.2504 152.0317,-27.2065 228.7089,-36.4227 53.7457,-6.7697 107.8574,-8.1466 161.893,-5.2946 11.6111,0.5993 23.1625,1.827 34.6842,3.3313 18.3492,2.8266 5.0246,89.3254 -13.3246,86.4988 l 0,0 c -8.8712,-1.7108 -17.831,-2.8031 -26.8424,-3.5029 -48.8552,-3.6977 -97.8557,-2.925 -146.5601,2.862 -74.3506,8.5127 -148.2994,20.1314 -221.5112,35.7508 -43.4777,9.178 -86.8536,18.8149 -130.2976,28.1476 -18.3484,2.9796 -32.3946,-83.5154 -14.0462,-86.4951 z" id="path21559" inkscape:connector-curvature="0" style="fill:#800000;fill-opacity:1;fill-rule:nonzero;stroke:#f9f9f9;stroke-width:0.1;stroke-miterlimit:4;stroke-dasharray:none" transform="translate(-8192, -7168)"/><path d="m 8559.1981,7316.4643 c -11.1556,37.378 -16.5836,76.1891 -21.3739,114.8072 -0.077,24.1649 -9.4438,52.6554 -0.1082,76.1232 4.2744,17.9533 -80.3585,38.1032 -84.6329,20.1498 l 0,0 c -6.9777,-35.4448 -5.0553,-71.1229 -0.3272,-106.8624 5.4501,-43.6423 11.7397,-87.3206 22.8412,-129.9412 5.4568,-17.7344 89.0578,7.989 83.601,25.7234 z" id="path21561" inkscape:connector-curvature="0" style="fill:#800000;fill-opacity:1;fill-rule:nonzero;stroke:#f9f9f9;stroke-width:0.1;stroke-miterlimit:4;stroke-dasharray:none" transform="translate(-8192, -7168)"/><path d="m 8697.1617,7283.7218 c -4.1409,34.1132 -8.1341,68.2451 -11.5139,102.4427 -2.0495,20.7779 -2.7275,41.5702 0.5811,62.2072 2.3532,18.2469 -83.6638,29.3397 -86.0169,11.0928 l 0,0 c -3.0321,-27.2122 -3.3613,-54.4146 -0.2201,-81.6886 3.3204,-34.2063 7.2892,-68.3535 9.9307,-102.6223 1.8176,-18.5062 89.0567,-9.9381 87.2391,8.5682 z" id="path21567" inkscape:connector-curvature="0" style="fill:#800000;fill-opacity:1;fill-rule:nonzero;stroke:#f9f9f9;stroke-width:0.1;stroke-miterlimit:4;stroke-dasharray:none" transform="translate(-8192, -7168)"/><path d="m 8867.9937,7284.7566 c -15.4543,29.2459 -27.7543,60.0639 -40.6509,90.4943 -13.297,31.735 -28.1105,62.7817 -43.3465,93.6192 -8.0387,16.2779 -84.7735,-21.6169 -76.7348,-37.8948 l 0,0 c 14.4454,-29.2658 28.4171,-58.7649 40.8257,-88.9653 13.8563,-33.3836 27.2484,-67.0241 43.1666,-99.4956 8.9609,-16.279 85.7008,25.9632 76.7399,42.2422 z" id="path21569" inkscape:connector-curvature="0" style="fill:#800000;fill-opacity:1;fill-rule:nonzero;stroke:#f9f9f9;stroke-width:0.1;stroke-miterlimit:4;stroke-dasharray:none" transform="translate(-8192, -7168)"/><path d="m 8390.7956,7592.4154 c -10.9521,33.5303 -21.7368,67.115 -32.1844,100.806 -8.3683,30.3867 -18.8957,60.5192 -23.7201,91.7616 -3.3499,18.1966 -89.1295,2.4049 -85.7796,-15.7917 l 0,0 c 6.9697,-34.3084 17.4963,-67.7782 27.3499,-101.337 10.2825,-33.4387 20.9534,-66.7709 30.3082,-100.4851 5.3131,-17.8246 89.3391,7.2216 84.026,25.0462 z" id="path21571" inkscape:connector-curvature="0" style="fill:#800000;fill-opacity:1;fill-rule:nonzero;stroke:#f9f9f9;stroke-width:0.1;stroke-miterlimit:4;stroke-dasharray:none" transform="translate(-8192, -7168)"/><path d="m 8345.4301,7618.7103 c 41.4369,-15.2736 84.0547,-26.9097 126.7317,-38.1068 72.0594,-18.5865 145.2398,-32.1487 218.685,-43.864 59.4598,-9.2742 119.2689,-16.1268 179.4069,-18.5488 36.2596,-1.8391 71.9057,2.9744 106.6456,13.041 19.8572,7.3535 43.1974,14.3197 57.3236,31.3826 4.3756,5.2853 7.4172,11.5457 11.1258,17.3185 1.6019,7.9934 4.5286,15.8326 4.8058,23.9803 1.167,34.3022 -25.1048,67.7616 -42.9271,94.6825 -16.9338,24.8509 -34.8217,49.0311 -52.6555,73.2378 -10.8538,14.6757 -80.0356,-36.4895 -69.1818,-51.1652 l 0,0 c 16.9823,-22.8717 33.98,-45.7505 49.8683,-69.4045 1.4439,-2.2128 26.3673,-44.7973 26.549,-44.9073 3.7562,-2.2755 -4.7345,29.8051 4.9385,12.2145 2.3853,2.5505 7.8224,10.358 7.9117,6.867 0.042,-1.6557 -20.2453,-10.4632 -22.6692,-10.8475 -25.5913,-7.9918 -51.9648,-11.5244 -78.841,-10.5191 -56.6774,1.4908 -113.0661,7.6238 -169.1086,16.1261 -70.545,11.0451 -140.8247,24.0463 -209.8278,42.6284 -39.187,10.7485 -78.5077,21.6164 -116.1156,37.1847 -17.2464,6.9294 -49.9117,-74.3709 -32.6653,-81.3002 z" id="path21573" inkscape:connector-curvature="0" style="fill:#800000;fill-opacity:1;fill-rule:nonzero;stroke:#f9f9f9;stroke-width:0.1;stroke-miterlimit:4;stroke-dasharray:none" transform="translate(-8192, -7168)"/><path d="m 8476.3449,7785.0068 c 9.1691,30.9652 18.9146,61.7572 29.088,92.4061 1.8188,5.1998 3.5868,10.4177 5.4563,15.5995 4.1154,11.4071 8.3104,22.9982 13.6639,33.9039 3.0602,6.2342 2.8785,6.7439 2.7931,3.7521 11.1059,14.901 -59.1385,67.2545 -70.2443,52.3535 l 0,0 c -15.9092,-23.9574 -24.5334,-51.395 -33.6779,-78.4977 -10.2358,-31.0843 -20.0073,-62.3233 -30.641,-93.2748 -5.5669,-17.7261 77.995,-43.9687 83.5619,-26.2426 z" id="path21575" inkscape:connector-curvature="0" style="fill:#800000;fill-opacity:1;fill-rule:nonzero;stroke:#f9f9f9;stroke-width:0.1;stroke-miterlimit:4;stroke-dasharray:none" transform="translate(-8192, -7168)"/><path d="m 8475.5364,7760.1433 c 39.9333,-11.9128 81.2226,-18.0399 122.4606,-23.2991 49.5934,-5.7845 99.459,-8.6067 149.3039,-11.1264 33.5208,-1.5142 67.0555,-3.1368 100.618,-2.8928 28.6184,0.5515 56.377,9.7713 71.0992,36.4572 3.3821,6.1304 4.6915,13.1936 7.0372,19.7904 5.5376,38.634 -6.9946,76.3647 -17.7331,113.0247 -10.8477,36.0803 -22.8928,71.7805 -35.0085,107.4494 -6.198,14.5877 -8.6652,33.2479 -19.9465,45.3091 -5.2279,5.5894 -11.6635,9.9123 -17.4953,14.8684 -16.2121,9.1887 -59.528,-67.236 -43.3158,-76.4247 l 0,0 c -3.6202,3.7027 -7.4752,7.1894 -10.8605,11.108 -0.4269,0.4941 -0.8046,2.4268 -0.3938,1.9192 5.6424,-6.9711 5.8067,-17.631 10.1149,-25.1746 12.0785,-34.1266 23.8003,-68.3886 34.0813,-103.1072 6.2903,-21.8705 12.641,-44.3047 16.0818,-66.6635 9.3624,11.7788 25.9637,11.4368 4.9746,8.4729 -31.7298,-0.8145 -63.4622,0.5764 -95.1676,1.7382 -47.5446,2.1175 -95.1156,4.6066 -142.3954,10.2648 -35.4387,4.6534 -71.1326,9.7316 -105.1372,21.1676 -17.5818,6.0072 -45.8997,-76.8744 -28.3178,-82.8816 z" id="path21577" inkscape:connector-curvature="0" style="fill:#800000;fill-opacity:1;fill-rule:nonzero;stroke:#f9f9f9;stroke-width:0.1;stroke-miterlimit:4;stroke-dasharray:none" transform="translate(-8192, -7168)"/><path d="m 8726.729,7482.32 c -9.3208,58.5406 -10.9753,118.0347 -13.2727,177.1742 -2.8258,83.6286 -3.5702,167.307 -3.7492,250.977 -0.1935,55.8047 0.7917,111.6019 3.0429,167.3597 1.1924,28.2553 3.4968,56.4397 5.9906,84.6037 0.1965,2.2036 0.3929,4.4073 0.5893,6.6109 1.3219,18.5307 -86.0326,24.7621 -87.3545,6.2314 l 0,0 c -0.1101,-2.0932 -0.2202,-4.1864 -0.3303,-6.2796 -1.8219,-29.3665 -3.895,-58.7218 -4.8242,-88.136 -1.7276,-56.9378 -2.1445,-113.9006 -1.488,-170.8619 0.7619,-84.4919 1.8614,-168.9845 4.1962,-253.4496 1.9918,-63.4357 3.5938,-127.0603 11.3225,-190.1146 3.3697,-18.2174 89.2471,-2.3325 85.8774,15.8848 z" id="path21579" inkscape:connector-curvature="0" style="fill:#800000;fill-opacity:1;fill-rule:nonzero;stroke:#f9f9f9;stroke-width:0.1;stroke-miterlimit:4;stroke-dasharray:none" transform="translate(-8192, -7168)"/></svg>