<?xml version="1.0" encoding="utf-8" ?>

<!DOCTYPE svg PUBLIC "-//W3C//DTD SVG 1.1//EN" 
  "http://www.w3.org/Graphics/SVG/1.1/DTD/svg11.dtd">
<svg 
    xmlns="http://www.w3.org/2000/svg"
    xmlns:xlink="http://www.w3.org/1999/xlink"
    xmlns:sodipodi="http://sodipodi.sourceforge.net/DTD/sodipodi-0.dtd"
    xmlns:inkscape="http://www.inkscape.org/namespaces/inkscape"
    width="1024" height="1024" id="U5E38">
<path d="m 9751.9725,4130.7257 c -2.0262,32.5667 0.056,65.1909 2.0622,97.701 2.2883,37.2508 6.3294,74.3814 7.8922,111.6736 0.6013,18.4037 -86.1548,21.2383 -86.7561,2.8345 l 0,0 c -0.7796,-36.4217 -4.8932,-72.6774 -7.0583,-109.0281 -2.345,-35.6594 -4.4725,-71.3697 -3.6044,-107.1268 0.837,-18.554 88.3014,-14.6082 87.4644,3.9458 z" id="path20735" inkscape:connector-curvature="0" style="fill:#800000;fill-opacity:1;fill-rule:nonzero;stroke:#f9f9f9;stroke-width:0.1;stroke-miterlimit:4;stroke-dasharray:none" transform="translate(-9216, -4096)"/><path d="m 9575.7717,4228.6128 c 14.2751,22.9545 36.6731,38.1469 59.2765,51.9587 15.5499,9.5957 -29.6846,82.8985 -45.2345,73.3028 l 0,0 c -34.721,-21.5796 -67.5928,-46.2039 -89.7828,-81.3048 -9.3246,-16.0671 66.4162,-60.0238 75.7408,-43.9567 z" id="path20737" inkscape:connector-curvature="0" style="fill:#800000;fill-opacity:1;fill-rule:nonzero;stroke:#f9f9f9;stroke-width:0.1;stroke-miterlimit:4;stroke-dasharray:none" transform="translate(-9216, -4096)"/><path d="m 9942.0182,4232.1109 c -23.5193,11.3903 -43.2179,28.8669 -62.4218,46.2617 -24.8482,23.1968 -47.1764,48.8612 -69.33,74.5849 -11.9383,13.8129 -77.0531,-42.4649 -65.1147,-56.2778 l 0,0 c 24.4998,-28.2508 49.1382,-56.4721 76.3934,-82.1383 25.5238,-23.2912 52.034,-45.8548 83.0294,-61.6381 16.8025,-7.943 54.2461,71.2646 37.4437,79.2076 z" id="path20739" inkscape:connector-curvature="0" style="fill:#800000;fill-opacity:1;fill-rule:nonzero;stroke:#f9f9f9;stroke-width:0.1;stroke-miterlimit:4;stroke-dasharray:none" transform="translate(-9216, -4096)"/><path d="m 9481.7795,4379.9772 c -17.132,26.979 -27.6382,57.3612 -37.2625,87.6307 -8.8437,30.9052 -16.1387,62.3861 -19.3251,94.4123 -0,2.191 -0.01,4.382 -0.01,6.5731 -0.7269,18.4905 -87.8922,15.0636 -87.1653,-3.4269 l 0,0 c 0.2549,-4.3593 0.5098,-8.7187 0.7646,-13.078 4.7322,-37.457 13.1132,-74.3612 23.7597,-110.5735 11.887,-37.3089 25.1562,-74.3924 45.1712,-108.2456 9.9082,-15.7116 83.9735,30.9962 74.0653,46.7079 z" id="path20745" inkscape:connector-curvature="0" style="fill:#800000;fill-opacity:1;fill-rule:nonzero;stroke:#f9f9f9;stroke-width:0.1;stroke-miterlimit:4;stroke-dasharray:none" transform="translate(-9216, -4096)"/><path d="m 9441.4378,4367.9342 c 42.1629,-15.9123 87.2272,-21.4826 131.5721,-27.843 69.7364,-9.9855 139.8554,-16.5336 210.154,-20.7884 57.8336,-2.883 115.734,-4.2278 173.6341,-4.6494 31.598,-0.1548 63.217,0.1931 94.645,3.6668 29.319,3.4721 45.326,9.8012 66.182,31.3484 21.978,34.1838 9.348,68.5504 -6.13,102.1834 -11.603,23.6436 -24.915,46.383 -38.219,69.0927 -9.216,15.7869 -83.6362,-27.6595 -74.4199,-43.4464 l 0,0 c 11.7989,-20.2866 23.6089,-40.6021 33.7819,-61.771 4.677,-10.2768 4.451,-9.3751 8.038,-18.4765 3.685,-9.3505 3.269,3.8936 8.924,7.7022 14.256,10.3871 2.537,-0.8631 -8.493,-0.083 -27.897,-3.6692 -56.0738,-3.8793 -84.1713,-4.2693 -56.2655,-0.239 -112.5445,0.5413 -168.7549,3.1762 -67.8188,3.9472 -135.4496,10.3592 -202.6166,20.7248 -36.3878,5.6145 -73.624,10.1137 -108.2408,23.2468 -16.9312,7.6125 -52.8168,-72.202 -35.8856,-79.8145 z" id="path20747" inkscape:connector-curvature="0" style="fill:#800000;fill-opacity:1;fill-rule:nonzero;stroke:#f9f9f9;stroke-width:0.1;stroke-miterlimit:4;stroke-dasharray:none" transform="translate(-9216, -4096)"/><path d="m 9588.7153,4508.8151 c 3.7928,25.1516 12.048,49.2012 22.2551,72.3932 5.511,11.8501 12.0307,23.1747 20.4647,33.1679 11.3628,14.5998 -57.4614,68.1645 -68.8242,53.5647 l 0,0 c -12.2106,-16.2983 -23.0251,-33.4847 -31.1386,-52.2467 -12.594,-29.3527 -22.8514,-59.5925 -28.8953,-91.0296 -3.3621,-18.2727 82.7761,-34.1222 86.1383,-15.8495 z" id="path20749" inkscape:connector-curvature="0" style="fill:#800000;fill-opacity:1;fill-rule:nonzero;stroke:#f9f9f9;stroke-width:0.1;stroke-miterlimit:4;stroke-dasharray:none" transform="translate(-9216, -4096)"/><path d="m 9581.2913,4482.9682 c 28.6974,-18.3093 61.4642,-27.5865 94.3107,-35.1177 37.9668,-7.7436 76.569,-11.5174 115.1952,-13.9094 31.4448,-2.7706 60.1923,1.5287 87.3993,17.6264 25.5829,19.4919 34.1148,47.5366 36.6373,78.2462 0.6656,29.6501 -6.3517,58.5608 -14.7431,86.7658 -5.5842,18.9079 -14.4548,36.3423 -24.3629,53.2706 -9.4876,15.8502 -84.206,-28.8751 -74.7183,-44.7253 l 0,0 c 6.5871,-10.5767 12.1993,-21.6326 15.8488,-33.6091 5.562,-18.1748 10.4161,-36.7758 10.9224,-55.8888 -0.063,-2.8706 -3.1443,-12.7919 2.0211,-11.2094 3.6399,-1.0986 -6.9814,-3.4508 -10.7715,-3.7527 -7.8192,-0.623 -15.4869,-0.341 -23.3254,-0.2582 -33.8114,1.721 -67.5976,4.8883 -100.811,11.6781 -21.9389,5.0172 -44.2837,10.5807 -63.4845,22.8272 -15.2616,10.6317 -65.3797,-61.3121 -50.1181,-71.9437 z" id="path20751" inkscape:connector-curvature="0" style="fill:#800000;fill-opacity:1;fill-rule:nonzero;stroke:#f9f9f9;stroke-width:0.1;stroke-miterlimit:4;stroke-dasharray:none" transform="translate(-9216, -4096)"/><path d="m 9596.7759,4618.0823 c 37.6073,-5.5412 75.2065,-11.0925 112.7298,-17.1866 41.8627,-6.7554 83.6002,-14.3645 125.6647,-19.7826 18.0931,-1.6872 9.3609,-1.1691 26.189,-1.6796 18.5231,-0.1186 19.0821,87.2001 0.559,87.3187 l 0,0 c -9.3901,-0.4076 -3.8836,-0.37 -16.5149,0.3935 -40.8955,4.4008 -81.3811,11.8494 -121.9614,18.4471 -36.7559,6.1251 -73.6348,11.6038 -110.254,18.4897 -18.2434,3.4815 -34.6556,-82.5186 -16.4122,-86.0002 z" id="path20753" inkscape:connector-curvature="0" style="fill:#800000;fill-opacity:1;fill-rule:nonzero;stroke:#f9f9f9;stroke-width:0.1;stroke-miterlimit:4;stroke-dasharray:none" transform="translate(-9216, -4096)"/><path d="m 9562.3029,4816.4779 c -2.9103,21.2243 0.1208,42.4252 4.8203,63.1289 1.7785,7.7778 4.5759,15.1906 7.7927,22.4598 7.0029,17.15 -73.8428,50.162 -80.8457,33.012 l 0,0 c -4.7341,-12.1046 -9.1734,-24.3039 -11.8842,-37.0608 -6.3224,-30.1536 -10.0062,-60.8226 -6.8671,-91.6543 2.1456,-18.4521 89.1296,-8.3377 86.984,10.1144 z" id="path20755" inkscape:connector-curvature="0" style="fill:#800000;fill-opacity:1;fill-rule:nonzero;stroke:#f9f9f9;stroke-width:0.1;stroke-miterlimit:4;stroke-dasharray:none" transform="translate(-9216, -4096)"/><path d="m 9513.5716,4789.9805 c 40.4919,-17.0079 83.05,-28.2506 125.458,-39.2974 51.069,-13.2135 103.0719,-22.0975 155.3922,-28.4783 37.3838,-4.7472 74.7508,-4.685 111.3428,4.5295 34.8772,10.6614 54.06,36.6462 66.1125,69.4577 10.1187,32.4742 10.6673,66.1587 7.4993,99.6963 -6.1268,41.8813 -16.8622,71.9524 -44.9104,103.9606 -12.7812,13.3251 -75.5966,-46.926 -62.8154,-60.2511 l 0,0 c 16.0007,-9.4755 17.1816,-36.5341 21.4878,-52.3557 2.2886,-20.9149 2.1788,-41.9523 -3.569,-62.3794 -1.6921,-5.7521 -1.1943,-11.3723 -6.7103,-14.1184 -25.2691,-8.1183 -52.3626,-5.2785 -78.3715,-3.2249 -48.4181,5.5004 -96.522,13.6078 -143.7065,25.9511 -37.2232,9.8691 -74.8205,19.6193 -109.967,35.6504 -16.7882,7.9003 -54.0307,-71.24 -37.2425,-79.1404 z" id="path20757" inkscape:connector-curvature="0" style="fill:#800000;fill-opacity:1;fill-rule:nonzero;stroke:#f9f9f9;stroke-width:0.1;stroke-miterlimit:4;stroke-dasharray:none" transform="translate(-9216, -4096)"/><path d="m 9758.1515,4696.6963 c -7.1445,36.0484 -8.2666,73.0429 -10.2961,109.6512 -2.5164,52.2307 -6.1107,104.4124 -7.6123,156.6861 -1.1609,28.4743 1.5588,56.702 8.0364,84.3944 4.0074,18.0246 -80.9616,36.9158 -84.969,18.8912 l 0,0 c -7.4651,-34.9238 -10.7023,-70.4254 -8.9013,-106.1697 2.0155,-52.7703 5.7612,-105.4546 8.0045,-158.2164 2.0196,-42.0793 3.1968,-84.464 10.6938,-126.0109 4.4068,-18.0406 89.4509,2.7335 85.044,20.7741 z" id="path20759" inkscape:connector-curvature="0" style="fill:#800000;fill-opacity:1;fill-rule:nonzero;stroke:#f9f9f9;stroke-width:0.1;stroke-miterlimit:4;stroke-dasharray:none" transform="translate(-9216, -4096)"/></svg>