<?xml version="1.0" encoding="UTF-8" standalone="no"?>
<svg
   xmlns:dc="http://purl.org/dc/elements/1.1/"
   xmlns:cc="http://creativecommons.org/ns#"
   xmlns:rdf="http://www.w3.org/1999/02/22-rdf-syntax-ns#"
   xmlns:svg="http://www.w3.org/2000/svg"
   xmlns="http://www.w3.org/2000/svg"
   xmlns:sodipodi="http://sodipodi.sourceforge.net/DTD/sodipodi-0.dtd"
   xmlns:inkscape="http://www.inkscape.org/namespaces/inkscape"
   width="1024"
   height="1024"
   id="U5E94"
   version="1.1"
   inkscape:version="0.48.0 r9654"
   sodipodi:docname="U+5E94.svg">
  <metadata
     id="metadata14">
    <rdf:RDF>
      <cc:Work
         rdf:about="">
        <dc:format>image/svg+xml</dc:format>
        <dc:type
           rdf:resource="http://purl.org/dc/dcmitype/StillImage" />
      </cc:Work>
    </rdf:RDF>
  </metadata>
  <defs
     id="defs12" />
  <sodipodi:namedview
     pagecolor="#ffffff"
     bordercolor="#666666"
     borderopacity="1"
     objecttolerance="10"
     gridtolerance="10"
     guidetolerance="10"
     inkscape:pageopacity="0"
     inkscape:pageshadow="2"
     inkscape:window-width="640"
     inkscape:window-height="480"
     id="namedview10"
     showgrid="false"
     inkscape:zoom="0.27441406"
     inkscape:cx="512"
     inkscape:cy="512"
     inkscape:window-x="0"
     inkscape:window-y="25"
     inkscape:window-maximized="0"
     inkscape:current-layer="U5E94" />
  <path
     style="fill:#2b1100;fill-opacity:1;fill-rule:nonzero;stroke:none"
     d="M 442.75 139.625 C 421.00827 139.78705 367.19356 177.00789 375.90625 190.59375 C 391.61405 214.21575 412.0535 233.953 432.75 253.125 C 443.5905 263.293 455.11985 272.7025 465.65625 283.1875 C 479.13055 296.1485 540.2243 232.61625 526.75 219.65625 C 515.4862 209.05825 503.67675 199.10675 492.21875 188.71875 C 476.98905 174.70975 461.44615 160.47625 450.40625 142.78125 C 448.98054 140.55811 446.30774 139.59848 442.75 139.625 z M 689.75 291.5 C 634.5162 291.684 579.2907 293.27625 524.125 296.03125 C 453.6681 300.14425 383.36685 306.1275 313.21875 313.9375 C 273.23795 318.3285 233.2971 323.89175 193.125 326.09375 C 175.26673 326.41523 175.83977 406.46514 192.09375 414 C 181.72352 437.56212 171.88168 461.35631 162.15625 485.1875 C 135.93155 550.4115 114.7786 617.48 94.125 684.625 C 76.217 742.693 61.27975 801.617 50.28125 861.375 C 44.27545 896.396 40.8149 931.89025 42.875 967.40625 C 45.2573 984.00925 43.3921 975.406 48.875 993.125 C 53.44441 1004.9999 92.825679 994.22369 115.65625 980.59375 C 123.66236 998.41649 134.46169 1013.1429 142.25 1010.0625 C 181.2464 994.8465 222.3314 985.90125 263.125 977.03125 C 328.259 963.77425 394.01865 954.026 459.78125 944.5 C 520.30195 935.024 581.3753 931.9225 642.5 934.8125 C 684.5496 937.9165 726.24475 944.37325 767.96875 950.28125 C 790.10455 954.32625 813.22415 955.5745 834.40625 963.6875 C 852.09425 969.7425 880.6255 886.3665 862.9375 880.3125 C 835.9348 871.5595 807.94735 867.4265 779.84375 863.8125 C 748.87285 859.69979 717.8943 855.31815 686.8125 852.09375 C 704.09365 830.30416 720.37822 807.75788 735.25 784.21875 C 762.6167 739.35275 787.14715 692.61525 801.15625 641.65625 C 809.72295 607.88825 816.526 573.64725 816.8125 538.65625 C 816.8125 519.87425 728.28125 519.87425 728.28125 538.65625 C 729.11505 566.40825 723.5821 593.617 716.875 620.375 C 705.2077 662.857 684.49315 701.65625 661.46875 738.90625 C 642.04535 769.30325 619.7658 797.7085 595.875 824.6875 C 593.333 827.3705 590.7921 830.03475 588.25 832.71875 C 585.34275 835.85673 586.52582 841.4543 590.1875 848 C 542.46843 848.66964 494.86192 852.5658 447.5625 859.96875 C 411.93348 865.10412 376.30103 870.28318 340.75 875.96875 C 364.52117 864.69147 393.71581 840.11857 386.90625 829.9375 C 378.13715 817.0915 382.6429 823.73325 373.4375 810.03125 C 353.5829 778.95425 334.59105 747.31475 317.09375 714.84375 C 301.53195 685.50375 286.23725 655.979 273.28125 625.375 C 265.58555 608.256 184.8669 644.53725 192.5625 661.65625 C 207.6761 693.41525 223.77775 724.6665 240.34375 755.6875 C 258.88765 789.9945 278.83155 823.53625 299.40625 856.65625 C 309.47985 872.19925 304.65575 864.8045 313.84375 878.8125 C 314.18917 879.32892 314.61452 879.77914 315.09375 880.15625 C 291.71589 884.07905 268.38373 888.27986 245.125 892.875 C 206.57103 900.97148 168.0074 909.4061 130.375 921.125 C 131.43271 906.20277 133.49137 891.32617 135.53125 876.59375 C 145.25825 820.12675 159.10845 764.5065 175.78125 709.6875 C 195.52755 645.0945 215.96665 580.59775 241.71875 518.09375 C 257.15215 481.30075 272.6462 444.423 291.5625 409.25 C 292.49715 407.5258 292.46962 405.501 291.6875 403.3125 C 302.14105 401.96297 312.6007 400.63584 323.0625 399.375 C 391.5093 391.103 460.1706 385.17875 529 381.34375 C 582.3743 378.86375 635.8238 377.75775 689.25 378.59375 C 694.23648 378.76493 702.47508 378.95618 709.21875 379.4375 C 708.65853 379.15894 708.13395 378.78513 707.6875 378.3125 C 700.19008 370.37606 694.83449 360.73423 688.9375 351.5 C 705.8193 363.25815 774.81318 357.16157 773.8125 340.5625 C 766.1799 327.3535 761.05555 312.3275 750.90625 300.9375 C 740.44925 289.2015 703.9738 292.322 689.75 291.5 z M 709.21875 379.4375 C 711.79848 380.72021 715.39612 380.26134 718.3125 380.9375 C 719.5537 381.2255 715.8887 380.0995 714.625 379.9375 C 713.04106 379.73392 711.18163 379.5776 709.21875 379.4375 z M 509.84375 576.09375 C 487.3724 576.51049 434.11738 610.11169 442.03125 623.8125 C 458.63745 653.4485 475.4893 682.8975 494.125 711.3125 C 513.058 739.7955 536.06155 764.96 562.21875 786.875 C 576.63995 798.71 632.4213 730.71 618 718.875 C 598.1825 703.117 581.1709 684.38125 566.9375 663.40625 C 549.1555 636.44025 533.2329 608.37375 518.5625 579.59375 C 517.09697 577.05641 514.00511 576.01658 509.84375 576.09375 z "
     id="path12698" />
</svg>
