<?xml version="1.0" encoding="UTF-8" standalone="no"?>
<svg
   xmlns:dc="http://purl.org/dc/elements/1.1/"
   xmlns:cc="http://creativecommons.org/ns#"
   xmlns:rdf="http://www.w3.org/1999/02/22-rdf-syntax-ns#"
   xmlns:svg="http://www.w3.org/2000/svg"
   xmlns="http://www.w3.org/2000/svg"
   xmlns:sodipodi="http://sodipodi.sourceforge.net/DTD/sodipodi-0.dtd"
   xmlns:inkscape="http://www.inkscape.org/namespaces/inkscape"
   width="1024"
   height="1024"
   id="U5E03"
   version="1.1"
   inkscape:version="0.48.0 r9654"
   sodipodi:docname="U+5E03.svg">
  <metadata
     id="metadata12">
    <rdf:RDF>
      <cc:Work
         rdf:about="">
        <dc:format>image/svg+xml</dc:format>
        <dc:type
           rdf:resource="http://purl.org/dc/dcmitype/StillImage" />
      </cc:Work>
    </rdf:RDF>
  </metadata>
  <defs
     id="defs10" />
  <sodipodi:namedview
     pagecolor="#ffffff"
     bordercolor="#666666"
     borderopacity="1"
     objecttolerance="10"
     gridtolerance="10"
     guidetolerance="10"
     inkscape:pageopacity="0"
     inkscape:pageshadow="2"
     inkscape:window-width="640"
     inkscape:window-height="480"
     id="namedview8"
     showgrid="false"
     inkscape:zoom="0.27441406"
     inkscape:cx="512"
     inkscape:cy="512"
     inkscape:window-x="0"
     inkscape:window-y="25"
     inkscape:window-maximized="0"
     inkscape:current-layer="U5E03" />
  <path
     style="fill:#aa0000;fill-opacity:1;fill-rule:nonzero;stroke:#f9f9f9;stroke-width:0.1;stroke-miterlimit:4;stroke-dasharray:none"
     d="M 453.71875 99.375 C 452.14574 99.414559 450.76484 99.873453 449.65625 100.8125 C 415.98865 133.8822 395.40685 177.23225 374.46875 218.84375 C 366.46362 235.58812 358.53556 252.36704 350.625 269.15625 C 350.04194 269.2442 349.45797 269.31747 348.875 269.40625 C 299.3006 277.33805 249.5171 285.8481 201.8125 301.9375 C 184.5093 308.6899 216.3219 390.2524 233.625 383.5 C 257.33345 374.63099 281.84739 368.37709 306.625 363.28125 C 293.11222 392.35828 279.60935 421.43963 266.0625 450.5 C 236.3963 514.0272 207.19465 577.77835 175.40625 640.28125 C 164.00835 661.20825 169.5881 651.7503 158.9375 668.8125 C 149.533 684.5967 223.93915 728.94045 233.34375 713.15625 C 245.93275 691.25575 239.61065 702.83715 252.15625 678.40625 C 256.65549 669.1242 261.10508 659.81632 265.53125 650.5 C 270.386 695.22324 279.9424 739.12186 294.59375 781.625 C 304.46015 804.3576 298.9641 793.47295 310.875 814.34375 C 320.4246 830.12595 394.83085 785.0948 385.28125 769.3125 C 378.88565 760.0828 382.163 765.51365 376.0625 752.78125 C 362.7155 716.39605 355.04225 678.3834 350.84375 639.875 C 346.64515 602.54 343.7601 565.0446 338.6875 527.8125 C 337.92226 523.73116 333.00822 521.37938 325.90625 520.375 C 331.21948 508.84697 336.55033 497.32061 341.90625 485.8125 C 363.46346 439.48424 384.93146 393.1336 406.84375 346.96875 C 462.89546 340.22875 519.3626 337.4374 575.8125 336.71875 C 617.0438 337.14165 658.62305 338.43 699.15625 346.625 C 717.34335 349.8153 732.3745 264.0654 714.1875 260.875 C 667.9728 253.6791 621.173 251.6377 574.4375 252 C 532.90086 252.82603 491.34644 254.57795 449.9375 257.875 C 449.99543 257.75806 450.06706 257.64819 450.125 257.53125 C 466.3407 226.39045 481.8226 193.38745 506.3125 167.71875 C 519.39391 156.638 472.28026 98.908204 453.71875 99.375 z M 495.9375 372.21875 C 490.47996 372.33186 486.54273 373.77643 485.21875 377 C 474.25035 413.15297 471.34049 450.97778 469.9375 488.71875 C 430.97897 493.85359 392.35661 501.32952 355.125 514.28125 C 337.7575 520.80945 368.5075 602.68445 385.875 596.15625 C 412.21972 585.88282 439.80137 579.85336 467.65625 575.65625 C 466.29042 638.62836 465.04946 701.61109 464.34375 764.59375 C 463.92655 813.40615 464.38885 862.42525 472.53125 910.65625 C 473.77535 915.45495 475.0058 920.23245 476.25 925.03125 C 481.3357 942.80385 565.11695 918.8351 560.03125 901.0625 C 559.31175 898.9993 558.5945 896.9383 557.875 894.875 C 549.0209 852.3145 549.60715 808.48095 548.96875 765.21875 C 549.20576 700.32034 550.29831 635.43539 552.15625 570.5625 C 573.03823 571.28626 593.8929 573.18332 614.65625 575.5625 C 638.30325 579.1343 662.70885 581.26695 685.09375 590.21875 C 692.10645 595.15695 685.96405 590.5098 686.09375 598.125 C 685.77425 627.0238 679.4329 655.495 673.9375 683.75 C 666.7236 718.7828 659.55725 753.86245 649.53125 788.21875 C 648.51775 790.90815 647.48225 793.6231 646.46875 796.3125 C 640.41355 813.7656 722.6948 842.29685 728.75 824.84375 C 730.2003 820.43165 731.64335 816.00585 733.09375 811.59375 C 742.99695 774.86515 750.76465 737.6165 758.46875 700.375 C 766.04675 662.3034 774.99705 623.6889 772.15625 584.625 C 765.28315 547.6649 750.90045 523.11405 714.96875 508.28125 C 685.59625 498.08145 654.95365 493.1323 624.09375 489.75 C 601.27309 487.33905 578.33537 485.49796 555.40625 484.78125 C 556.90577 459.61356 559.614 434.51885 566.25 410.28125 C 571.98723 396.31243 519.58683 371.72862 495.9375 372.21875 z "
     id="path20331" />
</svg>
