<?xml version="1.0" encoding="utf-8" ?>

<!DOCTYPE svg PUBLIC "-//W3C//DTD SVG 1.1//EN" 
  "http://www.w3.org/Graphics/SVG/1.1/DTD/svg11.dtd">
<svg 
    xmlns="http://www.w3.org/2000/svg"
    xmlns:xlink="http://www.w3.org/1999/xlink"
    xmlns:sodipodi="http://sodipodi.sourceforge.net/DTD/sodipodi-0.dtd"
    xmlns:inkscape="http://www.inkscape.org/namespaces/inkscape"
    width="1024" height="1024" id="U5EA7">
<path d="m 8669.1178,67691.556 c 19.6446,21.347 38.5055,43.397 57.8093,65.05 11.3344,12.665 22.8605,25.136 33.6817,38.244 11.7274,14.548 -56.8522,69.831 -68.5796,55.283 l 0,0 c -9.5595,-12.3 -20.3067,-23.591 -30.5123,-35.351 -17.9984,-20.283 -35.5563,-41.009 -54.5864,-60.34 -13.3401,-13.192 48.8472,-76.078 62.1873,-62.886 z" id="path16229" inkscape:connector-curvature="0" style="fill:#2b1100;fill-opacity:1;fill-rule:nonzero;stroke:none" transform="translate(-8192, -67584)"/><path d="m 8418.2476,67881.533 c 39.8919,-8.359 80.9607,-7.608 121.5103,-8.252 67.5977,-0.903 135.1675,-3.136 202.7077,-5.995 56.4525,-2.472 112.8031,-6.753 169.2462,-9.39 27.7867,-1.21 55.6028,-0.943 83.3996,-0.351 8.4696,0.211 4.3407,0.06 12.3872,0.448 18.7592,1.249 12.8718,89.681 -5.8873,88.432 l 0,0 c -5.3956,-0.528 -2.242,-0.27 -9.4701,-0.649 -25.6284,-1.201 -51.2919,-1.869 -76.9468,-1.111 -56.4367,1.877 -112.7812,5.703 -169.2002,8.014 -68.0866,2.745 -136.1892,5.105 -204.3085,6.884 -33.3121,0.964 -67.191,0.463 -99.9502,7.309 -18.1032,4.983 -41.5912,-80.357 -23.4879,-85.339 z" id="path16233" inkscape:connector-curvature="0" style="fill:#2b1100;fill-opacity:1;fill-rule:nonzero;stroke:none" transform="translate(-8192, -67584)"/><path d="m 8518.0494,67952.32 c -15.3376,44.138 -27.2774,89.354 -38.8186,134.601 -16.0265,63.92 -27.2732,128.879 -37.0466,194.005 -6.7909,46.007 -10.9597,92.329 -13.7566,138.733 -1.5302,27.69 -2.0325,55.423 -1.7178,83.15 0.37,9.158 0.062,5.024 0.7782,12.411 1.2961,18.709 -86.897,24.819 -88.1932,6.11 l 0,0 c -0.6358,-11.865 -0.4156,-5.752 -0.621,-18.342 0.1929,-29.66 0.9755,-59.319 2.8407,-88.925 3.3378,-48.901 8.2762,-97.682 15.8036,-146.132 10.5674,-67.711 22.48,-135.255 38.696,-201.875 11.6225,-47.141 23.931,-94.104 37.9114,-140.609 5.7006,-17.845 89.8245,9.028 84.1239,26.873 z" id="path16235" inkscape:connector-curvature="0" style="fill:#2b1100;fill-opacity:1;fill-rule:nonzero;stroke:none" transform="translate(-8192, -67584)"/><path d="m 8655.0835,68025.671 c -16.6912,27.091 -31.9763,55.005 -46.9033,83.095 -18.003,34.1 -34.5708,68.923 -50.1315,104.197 -6.0384,13.726 -11.4055,27.726 -18.2226,41.092 -8.8672,16.573 -86.9926,-25.228 -78.1254,-41.801 l 0,0 c 6.7548,-11.115 10.4791,-23.871 16.5658,-35.335 16.9021,-36.588 34.4863,-72.86 53.0404,-108.642 15.2389,-29.179 30.9722,-58.083 47.0488,-86.808 9.3767,-16.277 86.1044,27.925 76.7278,44.202 z" id="path16237" inkscape:connector-curvature="0" style="fill:#2b1100;fill-opacity:1;fill-rule:nonzero;stroke:none" transform="translate(-8192, -67584)"/><path d="m 8628.6852,68115.311 c 13.594,17.242 31.8689,29.6 50.0547,41.473 18.1025,11.13 36.4961,21.775 54.8113,32.549 2.2,1.419 4.3999,2.838 6.5998,4.257 15.6095,10.433 -33.5714,84.016 -49.1809,73.584 l 0,0 c -1.0151,-0.73 -2.0303,-1.46 -3.0454,-2.19 -19.0311,-11.772 -38.3101,-23.132 -57.3014,-34.968 -25.4709,-16.821 -50.3044,-34.88 -70.1526,-58.354 -11.9539,-14.471 56.2606,-70.822 68.2145,-56.351 z" id="path16239" inkscape:connector-curvature="0" style="fill:#2b1100;fill-opacity:1;fill-rule:nonzero;stroke:none" transform="translate(-8192, -67584)"/><path d="m 8892.1883,68029.47 c -14.6937,29.543 -27.3942,60.032 -40.9085,90.124 -16.0179,35.367 -34.0331,69.768 -51.7197,104.313 -8.6625,16.462 -86.263,-24.373 -77.6005,-40.835 l 0,0 c 17.5622,-32.475 34.8425,-65.136 49.9477,-98.845 13.7442,-31.098 26.7355,-62.523 40.7898,-93.483 8.2152,-16.863 87.7063,21.863 79.4912,38.726 z" id="path16241" inkscape:connector-curvature="0" style="fill:#2b1100;fill-opacity:1;fill-rule:nonzero;stroke:none" transform="translate(-8192, -67584)"/><path d="m 8869.2183,68108.318 c 16.9497,16.847 37.2126,29.841 57.0309,42.999 22.3447,14.754 45.1549,28.792 67.249,43.924 10.1937,7.434 5.2563,3.607 14.8246,11.466 14.2485,12.21 -43.3101,79.378 -57.5586,67.168 l 0,0 c -4.0268,-3.87 -1.539,-1.643 -7.6922,-6.416 -21.2071,-15.164 -43.4458,-28.798 -65.153,-43.222 -24.9061,-16.481 -49.9348,-33.095 -71.6733,-53.724 -13.1936,-13.358 49.779,-75.554 62.9726,-62.195 z" id="path16243" inkscape:connector-curvature="0" style="fill:#2b1100;fill-opacity:1;fill-rule:nonzero;stroke:none" transform="translate(-8192, -67584)"/><path d="m 8527.0378,68254.673 c 38.5918,1.468 77.2175,-1.125 115.7593,-2.912 57.3101,-2.837 114.6941,-3.101 172.0592,-2.786 37.0219,-0.118 73.9894,2.576 111.0047,2.469 9.9195,-0.636 21.164,-0.905 29.2916,-7.454 16.1682,-9.501 60.9574,66.716 44.7892,76.217 l 0,0 c -23.1252,12.786 -47.9892,19.472 -74.6027,18.978 -37.0987,-0.496 -74.1081,-3.573 -111.2172,-3.885 -55.6758,-0.647 -111.3782,-0.408 -166.9872,2.752 -40.8496,2.213 -81.7108,4.978 -122.639,4.96 -18.7396,-0.539 -16.1974,-88.878 2.5421,-88.339 z" id="path16249" inkscape:connector-curvature="0" style="fill:#2b1100;fill-opacity:1;fill-rule:nonzero;stroke:none" transform="translate(-8192, -67584)"/><path d="m 8770.5022,67996.021 c -1.2466,37.901 -3.7771,75.705 -7.2427,113.466 -6.6012,64.081 -13.9722,128.069 -19.1976,192.283 -4.1468,46.596 -3.7046,93.345 2.0483,139.743 2.1095,10.002 2.3952,20.819 6.485,30.339 5.4728,17.97 -79.2382,43.769 -84.711,25.799 l 0,0 c -4.1325,-15.211 -6.8263,-30.721 -8.5103,-46.401 -5.3327,-52.068 -5.6184,-104.408 -0.7356,-156.565 5.429,-64.292 12.6659,-128.4 18.6119,-192.644 2.9637,-36.592 5.0832,-73.238 4.8222,-109.968 0.8375,-18.759 89.2672,-14.811 88.4298,3.948 z" id="path16265" inkscape:connector-curvature="0" style="fill:#2b1100;fill-opacity:1;fill-rule:nonzero;stroke:none" transform="translate(-8192, -67584)"/><path d="m 8455.3203,68448.093 c 40.8524,0.828 81.6731,2.854 122.4963,4.563 65.4902,3.224 131.0204,4.727 196.5846,4.686 69.6183,-0.415 139.162,-3.892 208.6974,-6.99 39.1904,-1.425 78.3882,-3.749 117.6181,-3.37 3.7678,0.239 7.5356,0.479 11.3033,0.718 18.6476,1.529 11.4392,89.435 -7.2083,87.906 l 0,0 c -2.0397,-0.237 -4.0794,-0.474 -6.119,-0.711 -37.3743,-1.487 -74.7973,0.501 -112.1624,1.341 -70.6358,2.497 -141.259,5.736 -211.9459,6.374 -66.6978,0.242 -133.3707,-0.919 -200.0178,-3.634 -39.1049,-1.306 -78.2497,-3.188 -117.38,-2.543 -18.7398,0.396 -20.6061,-87.944 -1.8663,-88.34 z" id="path16267" inkscape:connector-curvature="0" style="fill:#2b1100;fill-opacity:1;fill-rule:nonzero;stroke:none" transform="translate(-8192, -67584)"/></svg>