<?xml version="1.0" encoding="UTF-8" standalone="no"?>
<svg
   xmlns:dc="http://purl.org/dc/elements/1.1/"
   xmlns:cc="http://creativecommons.org/ns#"
   xmlns:rdf="http://www.w3.org/1999/02/22-rdf-syntax-ns#"
   xmlns:svg="http://www.w3.org/2000/svg"
   xmlns="http://www.w3.org/2000/svg"
   xmlns:sodipodi="http://sodipodi.sourceforge.net/DTD/sodipodi-0.dtd"
   xmlns:inkscape="http://www.inkscape.org/namespaces/inkscape"
   width="1024"
   height="1024"
   id="U5FD8"
   version="1.1"
   inkscape:version="0.48.0 r9654"
   sodipodi:docname="U+5FD8.svg">
  <metadata
     id="metadata14">
    <rdf:RDF>
      <cc:Work
         rdf:about="">
        <dc:format>image/svg+xml</dc:format>
        <dc:type
           rdf:resource="http://purl.org/dc/dcmitype/StillImage" />
      </cc:Work>
    </rdf:RDF>
  </metadata>
  <defs
     id="defs12" />
  <sodipodi:namedview
     pagecolor="#ffffff"
     bordercolor="#666666"
     borderopacity="1"
     objecttolerance="10"
     gridtolerance="10"
     guidetolerance="10"
     inkscape:pageopacity="0"
     inkscape:pageshadow="2"
     inkscape:window-width="640"
     inkscape:window-height="480"
     id="namedview10"
     showgrid="false"
     inkscape:zoom="0.27441406"
     inkscape:cx="512"
     inkscape:cy="512"
     inkscape:window-x="0"
     inkscape:window-y="25"
     inkscape:window-maximized="0"
     inkscape:current-layer="U5FD8" />
  <path
     style="fill:#501616;fill-opacity:1;fill-rule:nonzero;stroke:#f9f9f9;stroke-width:0.1;stroke-miterlimit:4;stroke-dasharray:none"
     d="M 458.78125 98.21875 C 438.65571 98.891809 388.00969 147.42917 399.25 159.78125 C 420.7098 182.59525 439.03105 208.11225 458.09375 232.90625 C 464.70026 241.60526 471.43327 250.19458 478.0625 258.875 C 440.4342 262.27175 402.81293 265.52347 365.09375 267.75 C 317.72155 270.035 270.27695 271.8605 222.84375 270.5625 C 204.10595 270.3065 202.8873 358.64925 221.625 358.90625 C 246.9592 358.47025 272.27976 357.74073 297.59375 356.78125 C 300.80684 382.24117 301.27081 408.01162 302.5 433.625 C 304.522 461.03 304.9603 491.163 320.75 515 C 324.6715 520.921 329.89675 525.8785 334.46875 531.3125 C 370.48065 560.2465 416.41935 561.03275 460.53125 561.21875 C 507.09115 559.98175 553.3917 554.49175 599.75 550.34375 C 627.1964 548.10975 654.6654 545.95425 682.1875 544.90625 C 700.8844 543.86425 695.97815 455.73925 677.28125 456.78125 C 648.74725 458.81625 620.241 461.2515 591.75 463.8125 C 548.2168 467.9665 504.71635 473.18175 460.96875 474.34375 C 441.26145 474.22975 422.14215 473.58575 402.78125 469.71875 C 397.87505 468.73875 399.07405 467.44375 397.71875 469.96875 C 397.56895 482.25475 385.70625 426.37275 389.71875 429.21875 C 388.36726 403.61039 387.61636 377.91785 385.28125 352.375 C 449.41702 347.85828 513.34581 341.06802 577.4375 335.96875 C 629.8353 331.79475 682.4052 330.97225 734.9375 330.28125 C 747.2297 330.22125 759.5218 329.87475 771.8125 330.09375 C 790.527 329.89775 789.5896 241.679 770.875 241.875 C 758.2628 242.303 745.6809 242.95975 733.0625 243.21875 C 678.854 244.85875 624.60185 246.16925 570.53125 250.65625 C 552.19033 252.17285 533.86061 253.83563 515.53125 255.5 C 536.74408 241.76371 558.51058 219.27028 551.75 210.5 C 543.5844 200.112 535.27 189.86025 527.1875 179.40625 C 506.5068 152.90325 486.6317 125.71925 464.625 100.28125 C 463.24462 98.764328 461.25281 98.136094 458.78125 98.21875 z M 209 600.375 C 204.83967 600.56312 201.80172 601.84172 200.5 604.46875 C 183.8347 640.06375 168.22445 676.10625 153.78125 712.65625 C 137.69485 752.73425 125.6392 794.137 116.875 836.375 C 114.3534 848.065 112.57295 859.84775 111.21875 871.71875 C 109.56685 890.39075 197.5981 898.172 199.25 879.5 C 199.545 870.724 201.09745 862.10175 202.65625 853.46875 C 209.73385 816.20175 220.2053 779.7975 234.375 744.5625 C 236.21422 739.92225 238.08709 735.2803 239.96875 730.65625 C 244.74998 756.4057 250.25051 781.92874 257.84375 807.0625 C 271.68855 849.9975 295.53945 880.286 331.65625 906.5 C 376.24265 933.497 427.5584 935.0295 478.125 934.0625 C 532.5181 932.2845 586.16415 923.17675 639.15625 911.34375 C 679.59205 901.69375 719.3006 889.37475 758.875 876.71875 C 775.9025 872.47475 790.93945 865.42625 805.53125 855.90625 C 819.31138 845.27864 773.91849 784.30559 755.34375 784.53125 C 753.20238 786.47349 733.18691 792.8333 731.59375 793.53125 C 694.81345 805.89525 657.8376 817.73775 620.125 826.96875 C 572.8726 837.73675 525.02775 845.96275 476.46875 847.46875 C 444.56005 848.08675 411.0205 849.128 381.625 834.75 C 361.6588 822.092 348.83915 803.96275 341.34375 781.46875 C 332.50565 753.21075 327.557 724.145 323.3125 694.875 C 320.74997 682.25226 279.07417 686.58531 254.4375 696.5 C 262.32487 678.65058 270.67376 661.03762 279.75 643.75 C 286.77928 629.56319 231.46576 599.35913 209 600.375 z M 755.34375 784.53125 C 755.50039 784.38918 755.58018 784.27809 755.53125 784.1875 C 755.01075 783.22375 753.73525 784.29128 752.5625 785.125 C 753.39701 784.73653 754.33835 784.54346 755.34375 784.53125 z M 806.1875 616.21875 C 780.11112 616.39543 746.32156 624.88875 747.71875 636.53125 C 754.15855 674.72825 775.5268 706.38275 799.875 735.46875 C 811.8951 749.56275 825.9524 761.48575 840.1875 773.21875 C 854.6287 784.90875 909.72245 716.84725 895.28125 705.15625 C 885.06695 697.10425 875.02795 688.84275 866.46875 678.96875 C 853.02225 663.42075 839.68935 646.63375 835.53125 625.96875 C 834.69297 618.98325 821.83333 616.11274 806.1875 616.21875 z M 514.59375 649.5 C 495.88839 650.11246 451.8154 710.92481 465.625 721.3125 C 492.3555 740.5075 517.71 761.5255 544.1875 781.0625 C 559.118 792.0175 610.7429 721.6425 595.8125 710.6875 C 569.4958 691.5055 544.4218 670.7135 518.75 650.6875 C 517.5797 649.80719 516.17895 649.4481 514.59375 649.5 z M 752.46875 785.1875 C 752.11818 785.35895 751.78493 785.53741 751.46875 785.78125 C 751.78038 785.65697 752.11128 785.43809 752.46875 785.1875 z "
     id="path12774" />
</svg>
