<?xml version="1.0" encoding="UTF-8" standalone="no"?>
<svg
   xmlns:dc="http://purl.org/dc/elements/1.1/"
   xmlns:cc="http://creativecommons.org/ns#"
   xmlns:rdf="http://www.w3.org/1999/02/22-rdf-syntax-ns#"
   xmlns:svg="http://www.w3.org/2000/svg"
   xmlns="http://www.w3.org/2000/svg"
   xmlns:sodipodi="http://sodipodi.sourceforge.net/DTD/sodipodi-0.dtd"
   xmlns:inkscape="http://www.inkscape.org/namespaces/inkscape"
   width="1024"
   height="1024"
   id="U5FD9"
   version="1.1"
   inkscape:version="0.48.0 r9654"
   sodipodi:docname="U+5FD9.svg">
  <metadata
     id="metadata13">
    <rdf:RDF>
      <cc:Work
         rdf:about="">
        <dc:format>image/svg+xml</dc:format>
        <dc:type
           rdf:resource="http://purl.org/dc/dcmitype/StillImage" />
      </cc:Work>
    </rdf:RDF>
  </metadata>
  <defs
     id="defs11" />
  <sodipodi:namedview
     pagecolor="#ffffff"
     bordercolor="#666666"
     borderopacity="1"
     objecttolerance="10"
     gridtolerance="10"
     guidetolerance="10"
     inkscape:pageopacity="0"
     inkscape:pageshadow="2"
     inkscape:window-width="640"
     inkscape:window-height="480"
     id="namedview9"
     showgrid="false"
     inkscape:zoom="0.27441406"
     inkscape:cx="512"
     inkscape:cy="512"
     inkscape:window-x="0"
     inkscape:window-y="25"
     inkscape:window-maximized="0"
     inkscape:current-layer="U5FD9" />
  <path
     style="fill:#c83737;fill-opacity:1;fill-rule:nonzero;stroke:#f9f9f9;stroke-width:0.1;stroke-miterlimit:4;stroke-dasharray:none"
     d="M 262.5625 197.65625 C 241.92249 197.76649 222.40569 202.02625 222.21875 210.8125 C 221.47105 261.5535 218.16915 312.217 215.34375 362.875 C 210.84015 437.432 207.374 512.05 207.125 586.75 C 207.0477 639.813 210.79335 692.76775 218.71875 745.21875 C 222.86725 767.62175 226.86465 790.16 233.46875 812 C 238.13665 824.104 234.67645 816.63975 246.09375 833.21875 C 258.87554 846.07873 317.58661 788.72343 310.40625 772.3125 C 313.47043 776.90398 315.02513 778.72651 315.9375 779.75 C 310.61028 764.19126 308.88727 747.35159 304.8125 731.53125 C 296.7514 683.69325 293.1652 635.26 292.8125 586.75 C 292.74945 569.79353 292.86725 552.82281 293.15625 535.875 C 306.47746 548.17117 319.41108 560.9224 332 573.96875 C 347.9077 590.51275 364.27585 606.56 380.03125 623.25 C 389.03945 632.756 397.24345 642.9695 405.09375 653.4375 C 416.45945 668.3845 486.9281 614.823 475.5625 599.875 C 465.598 586.919 455.2148 574.289 443.875 562.5 C 427.8122 545.762 411.1262 529.6155 395 512.9375 C 376.419 493.8065 357.1851 475.35525 337.8125 457.03125 C 330.34141 450.28276 309.80659 466.05451 294.53125 484.0625 C 295.90721 445.3522 298.02862 406.66122 300.625 368 C 303.9595 316.228 307.62865 264.4825 310.59375 212.6875 C 310.80567 202.72975 285.95451 197.53131 262.5625 197.65625 z M 315.9375 779.75 C 316.47919 781.33205 317.06524 782.88459 317.6875 784.4375 C 317.19025 781.08972 317.17366 781.13673 315.9375 779.75 z M 587.84375 205.28125 C 566.88893 205.01224 512.75432 245.86663 522.25 259.28125 C 537.0237 279.20925 551.7387 299.1575 566.875 318.8125 C 577.86967 333.304 590.06162 346.81272 602.15625 360.375 C 574.93282 363.30276 547.72002 366.49059 520.5 369.53125 C 481.4322 373.37025 442.35915 377.0485 403.21875 380.0625 C 384.53835 381.6865 392.1947 469.749 410.875 468.125 C 437.86472 464.93264 464.89826 462.20331 491.9375 459.46875 C 490.21711 460.71736 489.13251 462.24381 488.875 464.0625 C 485.1793 496.4745 482.461 528.989 479.8125 561.5 C 476.8696 593.787 476.798 626.19025 478.625 658.53125 C 479.0873 669.47125 481.0399 680.27975 481.375 691.21875 C 481.7893 712.21575 492.2802 728.2245 511.625 738.0625 C 516.9116 740.7515 523.2509 740.441 529.0625 741.625 C 548.4589 741.14 567.79615 738.92575 587.15625 737.59375 C 623.16015 735.36775 659.22155 735.02125 695.28125 735.03125 C 727.88405 734.94725 760.4394 736.03075 792.8125 739.96875 C 802.30354 743.07751 814.70108 741.09394 824.6875 744.1875 C 823.88835 743.34227 823.11583 742.4476 822.34375 741.75 C 837.21664 752.08419 897.24992 690.96387 884.09375 677.9375 C 876.77715 672.0375 870.12495 666.46075 861.03125 663.59375 C 842.13905 657.18575 822.4927 654.7235 802.6875 652.8125 C 767.0106 649.0165 731.1871 647.81975 695.3125 647.96875 C 657.4534 647.94975 619.60585 648.24025 581.78125 650.03125 C 576.62032 650.313 571.44276 650.63086 566.28125 650.9375 C 564.32302 623.52129 564.15425 596.02769 566.65625 568.625 C 569.20195 537.841 571.77965 507.00475 576.53125 476.46875 C 577.95613 466.40555 552.92547 458.16141 529.25 455.65625 C 579.408 449.84932 629.50682 443.73375 679.875 440.0625 C 714.2132 437.9615 748.64895 436.95475 783.03125 438.34375 C 798.23536 439.23254 813.39909 440.49359 828.5625 441.90625 C 824.84636 440.70975 821.21458 439.25829 817.5625 437.875 C 835.10577 441.45288 877.3364 370.48464 861.78125 361.0625 C 852.50565 357.3425 845.46825 353.50125 835.65625 353.53125 C 819.06135 352.43225 802.46055 351.37025 785.84375 350.65625 C 748.32375 349.71625 710.78425 351.071 673.34375 353.625 C 660.22763 354.64834 647.1509 355.82066 634.0625 357.09375 C 656.35729 343.14502 681.36863 317.272 673.84375 308 C 672.37955 306.275 670.9018 304.56975 669.4375 302.84375 C 658.0086 290.63375 646.54195 278.44225 636.34375 265.15625 C 621.89735 246.52425 607.767 227.619 594.5 208.125 C 593.14347 206.20863 590.8373 205.31968 587.84375 205.28125 z M 824.6875 744.1875 C 826.6074 746.21811 828.56438 748.04082 830.40625 746.75 C 828.62814 745.62114 826.70883 744.81366 824.6875 744.1875 z M 828.625 441.90625 C 828.73143 441.94043 828.83092 441.99752 828.9375 442.03125 C 829.8301 442.31325 832.59915 442.53775 831.71875 442.21875 C 830.74105 441.86575 829.6593 442.01425 828.625 441.90625 z M 116.03125 475.0625 C 110.51726 475.1561 106.53726 476.62338 105.1875 479.875 C 93.789 510.348 85.1102 541.697 76.8125 573.125 C 69.6124 601.308 62.9025 629.612 56.5625 658 C 54.4584 667.277 52.12985 676.494 50.53125 685.875 C 47.67335 704.499 135.4546 717.96875 138.3125 699.34375 C 139.1371 691.60975 141.4318 684.1015 142.6875 676.4375 C 148.2389 649.2965 154.30485 622.2835 161.15625 595.4375 C 168.45755 567.8525 175.991 540.2205 186.9375 513.8125 C 192.78636 499.72213 139.92523 474.65692 116.03125 475.0625 z "
     id="path10866" />
</svg>
