<?xml version="1.0" encoding="utf-8" ?>

<!DOCTYPE svg PUBLIC "-//W3C//DTD SVG 1.1//EN" 
  "http://www.w3.org/Graphics/SVG/1.1/DTD/svg11.dtd">
<svg 
    xmlns="http://www.w3.org/2000/svg"
    xmlns:xlink="http://www.w3.org/1999/xlink"
    xmlns:sodipodi="http://sodipodi.sourceforge.net/DTD/sodipodi-0.dtd"
    xmlns:inkscape="http://www.inkscape.org/namespaces/inkscape"
    width="1024" height="1024" id="U5FEB">
<path d="m 8496.1166,27918.941 c -1.2147,38.87 -1.7866,77.755 -3.0123,116.627 -1.965,60.939 -5.8199,121.793 -9.9222,182.619 -3.6233,54.081 -7.4949,108.146 -10.398,162.272 0.7703,21.79 -4.3434,44.599 -0.2101,66.25 0.1248,0.01 0.2497,0.02 0.3745,0.03 -0.6897,-2.365 -1.3794,-4.73 -2.0691,-7.095 8.415,16.852 -71.0276,56.521 -79.4426,39.668 l 0,0 c -5.9709,-15.62 -3.9597,-8.176 -6.6586,-22.152 -2.6115,-27.273 -0.1531,-54.673 1.1894,-81.964 3.6593,-54.26 8.0411,-108.47 11.5577,-162.741 3.9631,-59.701 7.6231,-119.44 9.1389,-179.263 0.9032,-38.723 1.3261,-77.452 1.0735,-116.187 0.4106,-18.748 88.7894,-16.812 88.3789,1.936 z" id="path9114" inkscape:connector-curvature="0" style="fill:#2b0000;fill-opacity:1;fill-rule:nonzero;stroke:#f9f9f9;stroke-width:0.1;stroke-miterlimit:4;stroke-dasharray:none" transform="translate(-8192, -27648)"/><path d="m 8402.3169,28128.98 c -9.826,31.141 -22.508,61.254 -34.9927,91.393 -11.7648,28.375 -23.7004,56.702 -34.2937,85.542 -3.4385,5.459 -4.5585,26.181 -2.7437,1.705 2.6643,18.645 -85.23,31.205 -87.8943,12.56 l 0,0 c -0.062,-16.33 1.3678,-30.465 8.3696,-45.426 11.4388,-29.418 23.9457,-58.409 35.9605,-87.594 11.0621,-26.992 22.5398,-53.949 30.3909,-82.097 5.0736,-18.074 90.2769,5.842 85.2034,23.917 z" id="path9116" inkscape:connector-curvature="0" style="fill:#2b0000;fill-opacity:1;fill-rule:nonzero;stroke:#f9f9f9;stroke-width:0.1;stroke-miterlimit:4;stroke-dasharray:none" transform="translate(-8192, -27648)"/><path d="m 8584.5222,28133.01 c 4.4545,25.643 10.5366,50.972 17.988,75.901 5.2628,17.403 12.5936,34.073 21.1358,50.092 0.5948,0.973 1.1895,1.946 1.7843,2.919 -0.011,-0.172 -0.021,-0.344 -0.032,-0.516 10.7437,15.457 -62.1213,66.103 -72.865,50.646 l 0,0 c -5.4518,-8.455 -2.9575,-4.234 -7.5304,-12.633 -10.5697,-21.148 -19.792,-42.986 -26.5178,-65.684 -8.0849,-27.636 -14.7772,-55.625 -20.7861,-83.784 -3.5938,-18.418 83.2295,-35.359 86.8233,-16.941 z" id="path9118" inkscape:connector-curvature="0" style="fill:#2b0000;fill-opacity:1;fill-rule:nonzero;stroke:#f9f9f9;stroke-width:0.1;stroke-miterlimit:4;stroke-dasharray:none" transform="translate(-8192, -27648)"/><path d="m 8655.405,28033.822 c 26.8703,-2.764 53.7346,-5.577 80.6494,-7.887 32.9583,-3.105 66.0339,-4.219 99.1232,-4.228 26.1575,-0.211 52.2488,0.979 78.1245,4.843 20.2535,2.866 37.2207,11.919 51.8637,25.849 13.0071,13.977 18.9198,30.871 22.105,49.335 1.9015,29.678 -7.7315,58.259 -16.2563,86.269 -7.1072,23.621 -15.2267,46.979 -21.0148,70.976 -0.9092,5.319 -0.6229,2.951 -1.0026,7.085 -2.7945,18.585 -90.4089,5.412 -87.6144,-13.174 l 0,0 c 1.7518,-10.208 0.711,-4.858 3.202,-16.035 6.7865,-24.936 15.0919,-49.419 22.5879,-74.146 4.8253,-16.154 9.7509,-32.35 12.4046,-49.027 2.3656,2.315 -0.9977,-2.282 1.6684,0.229 5.7906,4.076 3.9955,0.462 -1.9375,-0.21 -21.2208,-3.746 -42.7262,-4.493 -64.2534,-4.453 -30.513,-0.1 -61.015,0.916 -91.4005,3.864 -26.1311,2.315 -52.2396,4.996 -78.2204,8.656 -18.656,2.127 -28.6849,-85.818 -10.0288,-87.946 z" id="path9124" inkscape:connector-curvature="0" style="fill:#2b0000;fill-opacity:1;fill-rule:nonzero;stroke:#f9f9f9;stroke-width:0.1;stroke-miterlimit:4;stroke-dasharray:none" transform="translate(-8192, -27648)"/><path d="m 8570.7366,28249.882 c 36.7697,-2.036 73.1654,-7.987 109.5168,-13.587 61.8039,-10.214 124.0228,-17.356 186.4199,-22.671 47.6538,-3.733 95.4198,-5.967 143.2204,-5.412 26.7461,0.192 53.1951,3.959 79.5308,8.222 2.1072,0.289 4.2145,0.578 6.3217,0.867 18.5402,2.764 5.51,90.163 -13.0302,87.399 l 0,0 c -2.7035,-0.428 -5.4071,-0.856 -8.1107,-1.284 -21.9209,-3.935 -43.9338,-7.527 -66.2658,-7.95 -44.8902,-1.111 -89.7765,0.721 -134.556,3.962 -60.2521,4.847 -120.3347,11.608 -179.8914,22.118 -38.2539,6.343 -76.5201,12.779 -115.1397,16.51 -18.7045,1.7 -26.7203,-86.474 -8.0158,-88.174 z" id="path9126" inkscape:connector-curvature="0" style="fill:#2b0000;fill-opacity:1;fill-rule:nonzero;stroke:#f9f9f9;stroke-width:0.1;stroke-miterlimit:4;stroke-dasharray:none" transform="translate(-8192, -27648)"/><path d="m 8870.2149,27897.649 c -2.0192,41.565 -10.3151,82.411 -18.9637,123.001 -14.7225,66.362 -33.9466,131.576 -54.8269,196.224 -22.7025,68.253 -48.6586,135.353 -73.5229,202.832 -17.8316,48.839 -34.4436,98.114 -50.4895,147.565 -3.8398,17.769 -13.4804,34.691 -15.719,52.845 -3.8857,18.394 -90.5953,0.08 -86.7097,-18.317 l 0,0 c 4.9942,-21.167 13.1098,-41.438 19.7518,-62.114 17.1588,-50.07 34.5339,-100.073 52.8566,-149.731 24.6698,-66.241 50.25,-132.174 72.4936,-199.288 19.8545,-61.776 38.094,-124.114 51.6396,-187.618 7.1908,-35.42 14.4465,-71.138 15.087,-107.409 0.4262,-18.753 88.8293,-16.743 88.4031,2.01 z" id="path9136" inkscape:connector-curvature="0" style="fill:#2b0000;fill-opacity:1;fill-rule:nonzero;stroke:#f9f9f9;stroke-width:0.1;stroke-miterlimit:4;stroke-dasharray:none" transform="translate(-8192, -27648)"/><path d="m 8869.3426,28395.608 c 18.0333,23.632 37.0062,46.521 56.1061,69.291 21.922,25.633 44.4224,50.754 65.2443,77.302 9.9865,13.173 5.226,6.733 14.3097,19.298 10.808,15.238 -61.0258,66.188 -71.8338,50.949 l 0,0 c -7.342,-10.598 -3.421,-5.073 -11.8034,-16.545 -19.7504,-25.884 -41.5788,-50.04 -62.6791,-74.813 -19.4368,-23.017 -38.6198,-46.242 -57.8551,-69.427 -11.891,-14.533 56.6203,-70.588 68.5113,-56.055 z" id="path9140" inkscape:connector-curvature="0" style="fill:#2b0000;fill-opacity:1;fill-rule:nonzero;stroke:#f9f9f9;stroke-width:0.1;stroke-miterlimit:4;stroke-dasharray:none" transform="translate(-8192, -27648)"/></svg>