<?xml version="1.0" encoding="UTF-8" standalone="no"?>
<svg
   xmlns:dc="http://purl.org/dc/elements/1.1/"
   xmlns:cc="http://creativecommons.org/ns#"
   xmlns:rdf="http://www.w3.org/1999/02/22-rdf-syntax-ns#"
   xmlns:svg="http://www.w3.org/2000/svg"
   xmlns="http://www.w3.org/2000/svg"
   xmlns:sodipodi="http://sodipodi.sourceforge.net/DTD/sodipodi-0.dtd"
   xmlns:inkscape="http://www.inkscape.org/namespaces/inkscape"
   width="1024"
   height="1024"
   id="U5FC3"
   version="1.1"
   inkscape:version="0.48.0 r9654"
   sodipodi:docname="U+5FC3.svg">
  <metadata
     id="metadata11">
    <rdf:RDF>
      <cc:Work
         rdf:about="">
        <dc:format>image/svg+xml</dc:format>
        <dc:type
           rdf:resource="http://purl.org/dc/dcmitype/StillImage" />
      </cc:Work>
    </rdf:RDF>
  </metadata>
  <defs
     id="defs9" />
  <sodipodi:namedview
     pagecolor="#ffffff"
     bordercolor="#666666"
     borderopacity="1"
     objecttolerance="10"
     gridtolerance="10"
     guidetolerance="10"
     inkscape:pageopacity="0"
     inkscape:pageshadow="2"
     inkscape:window-width="640"
     inkscape:window-height="480"
     id="namedview7"
     showgrid="false"
     inkscape:zoom="0.27441406"
     inkscape:cx="512"
     inkscape:cy="512"
     inkscape:window-x="0"
     inkscape:window-y="25"
     inkscape:window-maximized="0"
     inkscape:current-layer="U5FC3" />
  <path
     style="fill:#916f6f;fill-opacity:1;fill-rule:nonzero;stroke:#f9f9f9;stroke-width:0.1;stroke-miterlimit:4;stroke-dasharray:none"
     d="M 879.5 345.40625 C 860.75583 345.9769 816.43672 406.80977 830.25 417.25 C 851.5509 433.11 871.5598 450.60125 891.125 468.53125 C 905.0395 482.19425 898.31075 475.328 911.34375 489.125 C 924.14475 502.563 987.4885 442.21825 974.6875 428.78125 C 958.7414 412.15725 966.8979 420.385 950.1875 404.125 C 928.5766 384.298 906.47335 365.059 883.65625 346.625 C 882.48563 345.74023 881.08849 345.35789 879.5 345.40625 z M 303.34375 436.09375 C 277.90957 436.1888 247.2302 443.36384 248.1875 454.46875 C 251.4028 484.24675 253.44525 514.14825 255.40625 544.03125 C 257.45625 592.24325 260.3853 640.284 268.5625 687.875 C 278.2271 732.622 297.5005 776.49475 338.6875 800.71875 C 347.3791 805.83075 357.12795 808.87675 366.34375 812.96875 C 429.89485 830.49775 495.1959 817.1225 558.3125 804.4375 C 619.0596 791.0275 679.6326 776.876 740.1875 762.625 C 785.436 752.23 830.3726 740.68475 874.125 725.09375 C 888.6351 719.78275 902.74995 713.5035 916.78125 707.0625 C 933.64715 699.1395 896.3034 619.6405 879.4375 627.5625 C 867.9136 633.1305 856.30825 638.51875 844.34375 643.09375 C 803.91715 658.12275 762.12865 668.7715 720.21875 678.8125 C 660.73625 693.1405 601.1912 707.1555 541.4375 720.3125 C 494.7945 729.6425 446.46155 740.4025 398.84375 732.3125 C 367.29195 723.0335 361.69365 703.344 353.90625 672.875 C 345.90255 628.535 344.0937 583.6475 342.3125 538.6875 C 340.5447 508.0735 338.45935 477.468 336.34375 446.875 C 335.68871 439.27691 320.74608 436.02872 303.34375 436.09375 z M 131.875 458.53125 C 119.80085 458.52065 110.57206 460.89375 109.5 466.65625 C 103.9583 506.81125 96.47105 546.65475 89.59375 586.59375 C 82.24185 630.94275 75.69715 675.47625 73.46875 720.40625 C 73.10125 738.83225 72.89505 729.7025 74.03125 747.8125 C 75.73365 766.4345 163.5149 758.40325 161.8125 739.78125 C 160.3544 731.26025 160.9962 736.565 160.875 723.75 C 161.8629 682.65 168.20195 641.9565 174.78125 601.4375 C 181.74735 561.8615 189.2009 522.36975 196.4375 482.84375 C 198.79604 470.16625 158.43813 458.55456 131.875 458.53125 z M 604.5 461.9375 C 580.60713 462.2726 528.53017 488.94269 534.8125 502.84375 C 550.2233 535.11275 570.17325 564.63275 592.46875 592.46875 C 597.55195 597.88975 602.63555 603.29875 607.71875 608.71875 C 620.45925 622.11875 683.64665 562.0865 670.90625 548.6875 C 667.37315 545.0465 663.81435 541.39 660.28125 537.75 C 642.46285 515.884 626.68295 492.377 615.46875 466.375 C 614.019 463.16706 610.01374 461.86017 604.5 461.9375 z "
     id="path12263" />
</svg>
