<?xml version="1.0" encoding="utf-8" ?>

<!DOCTYPE svg PUBLIC "-//W3C//DTD SVG 1.1//EN" 
  "http://www.w3.org/Graphics/SVG/1.1/DTD/svg11.dtd">
<svg 
    xmlns="http://www.w3.org/2000/svg"
    xmlns:xlink="http://www.w3.org/1999/xlink"
    xmlns:sodipodi="http://sodipodi.sourceforge.net/DTD/sodipodi-0.dtd"
    xmlns:inkscape="http://www.inkscape.org/namespaces/inkscape"
    width="1024" height="1024" id="U5F69">
<path d="m 11678.063,3245.0235 c -33.757,37.6969 -68.599,74.3938 -103.653,110.8807 -44.583,46.2315 -89.885,91.7603 -134.715,137.7516 -25.872,26.394 -50.857,53.6261 -74.505,82.0283 -5.972,7.7656 -3.514,4.2773 -7.57,10.3227 -11.037,14.9492 -81.508,-37.0777 -70.471,-52.0269 l 0,0 c 7.153,-9.1933 3.225,-4.2806 11.851,-14.6837 25.598,-29.4216 52.214,-57.9236 79.778,-85.5189 44.916,-45.3176 90.22,-90.2612 134.259,-136.4385 33.643,-35.5002 67.248,-71.1284 98.363,-108.8941 12.003,-14.1412 78.665,42.4376 66.663,56.5788 z" id="path20427" inkscape:connector-curvature="0" style="fill:#aa0000;fill-opacity:1;fill-rule:nonzero;stroke:#f9f9f9;stroke-width:0.1;stroke-miterlimit:4;stroke-dasharray:none" transform="translate(-11264, -3072)"/><path d="m 11537.967,3444.2881 c 1.217,16.8649 8.224,31.8719 18.046,45.3406 1.676,1.7204 3.353,3.4409 5.029,5.1613 12.196,13.8387 -53.04,71.3306 -65.236,57.4919 l 0,0 c -3.86,-4.5618 -7.72,-9.1235 -11.58,-13.6853 -17.823,-26.9849 -30.92,-56.1614 -33.75,-88.791 -1.171,-18.5598 86.321,-24.0773 87.491,-5.5175 z" id="path20429" inkscape:connector-curvature="0" style="fill:#aa0000;fill-opacity:1;fill-rule:nonzero;stroke:#f9f9f9;stroke-width:0.1;stroke-miterlimit:4;stroke-dasharray:none" transform="translate(-11264, -3072)"/><path d="m 11647.547,3398.0708 c 6.927,13.199 15.104,25.6157 23.96,37.5777 10.881,14.8782 -59.256,66.1706 -70.137,51.2924 l 0,0 c -10.599,-14.6205 -20.629,-29.5953 -29.729,-45.2075 -9.262,-16.102 66.643,-59.7646 75.906,-43.6626 z" id="path20431" inkscape:connector-curvature="0" style="fill:#aa0000;fill-opacity:1;fill-rule:nonzero;stroke:#f9f9f9;stroke-width:0.1;stroke-miterlimit:4;stroke-dasharray:none" transform="translate(-11264, -3072)"/><path d="m 11787.024,3449.506 c -20.722,19.4753 -41.364,39.024 -62.486,58.0677 -17.513,15.4477 -8.657,7.6893 -26.569,23.2722 -13.807,12.0643 -70.678,-53.0227 -56.871,-65.0869 l 0,0 c 17.195,-15.0918 8.741,-7.626 25.365,-22.3933 20.346,-18.4651 40.382,-37.2748 59.681,-56.8389 13.36,-12.9146 74.239,50.0646 60.88,62.9792 z" id="path20433" inkscape:connector-curvature="0" style="fill:#aa0000;fill-opacity:1;fill-rule:nonzero;stroke:#f9f9f9;stroke-width:0.1;stroke-miterlimit:4;stroke-dasharray:none" transform="translate(-11264, -3072)"/><path d="m 11335.84,3675.9073 c 50.376,-9.1175 101.34,-13.8599 152.349,-17.6021 70.219,-4.4136 140.601,-4.3121 210.922,-5.2134 26.149,-0.561 52.418,-0.4659 78.22,-5.1371 18.203,-2.7073 30.965,83.1015 12.762,85.8088 l 0,0 c -29.959,3.8468 -60.077,4.626 -90.279,4.4171 -68.389,0.2551 -136.852,-0.034 -205.12,4.6872 -47.542,3.8375 -95.181,8.3751 -141.813,18.8099 -18.195,3.6148 -35.236,-82.1556 -17.041,-85.7704 z" id="path20435" inkscape:connector-curvature="0" style="fill:#aa0000;fill-opacity:1;fill-rule:nonzero;stroke:#f9f9f9;stroke-width:0.1;stroke-miterlimit:4;stroke-dasharray:none" transform="translate(-11264, -3072)"/><path d="m 11674.114,3564.763 c -2.762,44.7652 -5.797,89.5101 -9.009,134.2453 -5.235,67.8015 -9.427,135.6681 -12.071,203.6195 -1.202,36.0237 -1.956,72.0635 -1.716,108.1076 -0.192,18.4211 -87.03,17.5164 -86.838,-0.9047 l 0,0 c 0.994,-36.9341 2.128,-73.8645 3.643,-110.7815 3.109,-68.6264 7.458,-137.178 12.145,-205.7136 2.734,-44.1794 5.497,-88.377 6.366,-132.6414 0.864,-18.5571 88.343,-14.4883 87.48,4.0688 z" id="path20437" inkscape:connector-curvature="0" style="fill:#aa0000;fill-opacity:1;fill-rule:nonzero;stroke:#f9f9f9;stroke-width:0.1;stroke-miterlimit:4;stroke-dasharray:none" transform="translate(-11264, -3072)"/><path d="m 11641.401,3780.654 c -31.24,25.5083 -61.21,52.5379 -91.371,79.3026 -32.944,29.3532 -65.154,59.5364 -96.031,91.0611 -13.016,12.9645 -74.132,-48.3971 -61.115,-61.3615 l 0,0 c 32.753,-31.8771 66.127,-63.1137 100.17,-93.6114 30.802,-27.5852 61.51,-55.2763 92.456,-82.7006 14.279,-11.8563 70.17,55.4535 55.891,67.3098 z" id="path20439" inkscape:connector-curvature="0" style="fill:#aa0000;fill-opacity:1;fill-rule:nonzero;stroke:#f9f9f9;stroke-width:0.1;stroke-miterlimit:4;stroke-dasharray:none" transform="translate(-11264, -3072)"/><path d="m 11650.828,3808.2811 c 16.203,20.268 33.531,39.4979 52.232,57.4763 24.426,22.6616 53.063,39.6475 82.746,54.39 4.332,1.8896 8.665,3.7792 12.998,5.6688 16.767,7.4969 -18.573,86.5394 -35.341,79.0426 l 0,0 c -5.527,-2.5188 -11.054,-5.0376 -16.581,-7.5564 -37.132,-18.9677 -73.013,-40.5701 -103.702,-69.1145 -20.401,-19.5319 -39.512,-40.2071 -57.885,-61.6553 -12.357,-13.9016 53.176,-72.1531 65.533,-58.2515 z" id="path20441" inkscape:connector-curvature="0" style="fill:#aa0000;fill-opacity:1;fill-rule:nonzero;stroke:#f9f9f9;stroke-width:0.1;stroke-miterlimit:4;stroke-dasharray:none" transform="translate(-11264, -3072)"/><path d="m 12045.55,3260.8518 c -20.462,30.9573 -41.831,61.2962 -62.374,92.1994 -22.208,33.4432 -41.676,68.5866 -58.039,105.2305 -7.668,16.6896 -86.344,-19.4588 -78.675,-36.1484 l 0,0 c 18.956,-40.2892 40.561,-79.261 65.143,-116.4149 19.739,-29.9954 40.332,-59.4629 58.915,-90.1973 9.616,-15.9164 84.647,29.4144 75.03,45.3307 z" id="path20443" inkscape:connector-curvature="0" style="fill:#aa0000;fill-opacity:1;fill-rule:nonzero;stroke:#f9f9f9;stroke-width:0.1;stroke-miterlimit:4;stroke-dasharray:none" transform="translate(-11264, -3072)"/><path d="m 12122.536,3455.9124 c -17.623,36.8177 -39.822,71.1348 -62.456,105.0075 -29.172,42.8227 -60.712,83.9559 -93.348,124.1771 -11.569,14.1087 -78.079,-40.4282 -66.51,-54.5369 l 0,0 c 31.23,-37.6618 61.168,-76.4158 88.477,-117.0379 19.704,-29.8771 39.387,-60.0822 53.738,-92.9867 7.504,-16.9915 87.603,18.3854 80.099,35.3769 z" id="path20445" inkscape:connector-curvature="0" style="fill:#aa0000;fill-opacity:1;fill-rule:nonzero;stroke:#f9f9f9;stroke-width:0.1;stroke-miterlimit:4;stroke-dasharray:none" transform="translate(-11264, -3072)"/><path d="m 12176.085,3705.9585 c -10.58,36.3877 -30.062,69.0843 -49.813,101.0943 -31.385,49.4225 -67.775,95.3519 -104.564,140.7985 -30.134,36.4655 -60.259,72.9568 -91.313,108.6463 -12.742,13.9026 -6.349,7.289 -19.13,19.8888 -13.352,12.7834 -73.613,-50.1558 -60.262,-62.9392 l 0,0 c 9.194,-8.4114 4.272,-3.6676 14.606,-14.3966 30.881,-34.1318 60.574,-69.3246 89.95,-104.7531 34.443,-42.5381 68.389,-85.6365 97.389,-132.1491 14.853,-24.4633 30.255,-49.313 38.056,-77.0997 4.436,-18.0484 89.517,2.8614 85.081,20.9098 z" id="path20447" inkscape:connector-curvature="0" style="fill:#aa0000;fill-opacity:1;fill-rule:nonzero;stroke:#f9f9f9;stroke-width:0.10000000000000001;stroke-miterlimit:4;stroke-dasharray:none" transform="translate(-11264, -3072)"/></svg>