<?xml version="1.0" encoding="UTF-8" standalone="no"?>
<svg
   xmlns:dc="http://purl.org/dc/elements/1.1/"
   xmlns:cc="http://creativecommons.org/ns#"
   xmlns:rdf="http://www.w3.org/1999/02/22-rdf-syntax-ns#"
   xmlns:svg="http://www.w3.org/2000/svg"
   xmlns="http://www.w3.org/2000/svg"
   xmlns:sodipodi="http://sodipodi.sourceforge.net/DTD/sodipodi-0.dtd"
   xmlns:inkscape="http://www.inkscape.org/namespaces/inkscape"
   width="1024"
   height="1024"
   id="U5F20"
   version="1.1"
   inkscape:version="0.48.0 r9654"
   sodipodi:docname="U+5F20.svg">
  <metadata
     id="metadata15">
    <rdf:RDF>
      <cc:Work
         rdf:about="">
        <dc:format>image/svg+xml</dc:format>
        <dc:type
           rdf:resource="http://purl.org/dc/dcmitype/StillImage" />
      </cc:Work>
    </rdf:RDF>
  </metadata>
  <defs
     id="defs13" />
  <sodipodi:namedview
     pagecolor="#ffffff"
     bordercolor="#666666"
     borderopacity="1"
     objecttolerance="10"
     gridtolerance="10"
     guidetolerance="10"
     inkscape:pageopacity="0"
     inkscape:pageshadow="2"
     inkscape:window-width="640"
     inkscape:window-height="480"
     id="namedview11"
     showgrid="false"
     inkscape:zoom="0.27441406"
     inkscape:cx="512"
     inkscape:cy="512"
     inkscape:window-x="0"
     inkscape:window-y="25"
     inkscape:window-maximized="0"
     inkscape:current-layer="U5F20" />
  <path
     style="fill:#2b1100;fill-opacity:1;fill-rule:nonzero;stroke:none"
     d="M 297.0625 213.03125 C 275.3522 213.00804 253.63586 215.32019 231.96875 219.34375 C 198.56925 225.23575 165.49785 232.5885 132.65625 241.0625 C 114.61195 246.1765 138.73695 331.24 156.78125 326.125 C 186.42445 317.179 216.68775 310.54925 247.15625 305.15625 C 274.55665 301.07025 302.8417 296.70275 330.125 303.46875 C 339.8837 306.87175 337.5875 311.497 339.0625 320.125 C 341.9992 342.388 338.8392 364.69975 334.8125 386.59375 C 332.50772 397.57032 330.12181 408.51368 327.71875 419.46875 C 288.93468 418.12281 250.1956 420.83342 211.71875 426.46875 C 178.05625 431.26675 144.5778 437.673 110.75 441.125 C 102.43994 441.64469 98.919353 459.29262 99.1875 478.6875 C 87.712136 481.63748 79.539545 486.13052 79.90625 491.90625 C 83.14845 521.95925 83.63375 552.20925 83.59375 582.40625 C 82.46885 615.72325 82.82505 648.56975 92.21875 680.71875 C 108.91665 718.12375 128.1794 732.03425 169.4375 732.28125 C 197.6013 727.10125 223.8853 714.9225 251 705.9375 C 277.1351 697.1095 304.1591 692.073 331.5 689 C 331.89545 688.96523 332.29203 688.94077 332.6875 688.90625 C 332.59816 693.2935 332.49968 697.67761 332.40625 702.0625 C 331.88165 734.0985 329.081 766.042 325.625 797.875 C 324.0447 817.567 320.13385 836.88925 316.59375 856.28125 C 315.40636 857.46995 313.96581 873.53422 313.28125 880.75 C 314.68808 874.14349 318.56334 869.28633 323.125 864.40625 C 312.50817 878.88703 366.36934 943.71724 380.5625 932.0625 C 390.4606 922.4655 398.1345 912.619 400.375 898.5 C 401.5752 889.484 401.5618 880.413 403.625 871.5 C 407.171 850.064 410.9993 828.67075 412.625 806.96875 C 416.0756 772.78775 419.1122 738.5525 419.875 704.1875 C 420.43737 683.11416 420.97324 662.01647 420.75 640.9375 C 436.62233 638.94943 452.47675 636.78677 468.3125 634.5 C 474.02275 633.56013 479.72383 632.66025 485.4375 631.75 C 485.40269 655.87543 485.30021 679.99876 485.125 704.125 C 484.208 770.724 485.34665 837.32225 486.65625 903.90625 C 486.86235 919.21325 487.4301 934.5095 487.8125 949.8125 C 488.5201 968.4365 576.30135 965.124 575.59375 946.5 C 574.83225 931.456 573.89605 916.40075 573.40625 901.34375 C 570.81175 835.79375 568.8208 770.20575 569.4375 704.59375 C 569.44504 702.60381 569.4617 700.61494 569.46875 698.625 C 589.92374 717.65395 611.02602 735.95719 632.46875 753.875 C 673.82055 788.319 718.7405 818.06575 763.5625 847.71875 C 802.1893 873.31875 841.13255 898.45025 882.03125 920.28125 C 904.03045 931.70025 927.2511 940.3885 950.6875 948.3125 C 968.4556 954.1145 995.79935 870.3645 978.03125 864.5625 C 959.12275 858.6485 940.3769 852.0745 922.625 843.1875 C 883.9984 823.1705 847.5005 799.46225 811.125 775.65625 C 769.0366 747.93225 726.89275 720.04225 688.28125 687.53125 C 662.24525 665.46425 636.57855 642.8745 613.09375 618.0625 C 606.13774 611.10649 585.6441 625.02453 569.625 641.71875 C 569.63457 634.32433 569.62151 626.92565 569.625 619.53125 C 602.82101 615.21162 636.09551 611.49392 669.46875 608.53125 C 726.66855 603.88725 784.06115 603.67675 841.40625 603.84375 C 868.62645 603.91475 895.83305 604.85375 922.96875 606.96875 C 941.57145 608.18775 947.32145 520.50025 928.71875 519.28125 C 899.59545 517.69425 870.4185 517.06125 841.25 517.28125 C 781.3868 517.65625 721.5015 518.32425 661.8125 523.40625 C 630.97951 526.21942 600.2066 529.58492 569.5 533.375 C 569.4168 499.34903 569.30615 465.33917 569.125 431.3125 C 569.2762 385.1295 568.71965 338.734 573.59375 292.75 C 575.90255 274.135 488.15255 263.22975 485.84375 281.84375 C 482.21355 331.67475 483.2693 381.71 483.8125 431.625 C 484.51249 469.34154 484.97193 507.06319 485.21875 544.78125 C 475.6329 546.18066 466.04855 547.60494 456.46875 549.0625 C 419.54835 553.9505 382.52205 558.4375 345.28125 559.9375 C 336.56405 560.54955 333.26132 580.00921 334.09375 600.5 C 329.74869 600.95568 325.40938 601.43663 321.0625 601.875 C 288.0416 606.042 255.3405 612.32275 223.6875 622.84375 C 206.53838 628.43636 188.91892 633.87954 172.1875 640.6875 C 168.60639 621.81563 172.14436 601.37708 170.84375 582.53125 C 170.88314 562.07099 170.6601 541.62751 169.9375 521.1875 C 188.01022 518.12744 206.05314 514.97637 224.1875 512.28125 C 262.2305 506.62925 300.64005 504.01375 338.96875 507.59375 C 343.46697 508.28063 348.4239 508.90026 353.09375 509.90625 C 347.21555 504.15968 342.24877 497.55578 337.03125 491.1875 C 353.22915 501.16824 423.96219 477.2856 418.75 460.8125 C 416.1059 457.34542 413.64578 453.72856 411.15625 450.125 C 414.38534 434.06936 417.79133 418.05454 421.03125 402 C 426.96525 368.009 430.978 333.38 424.375 299.125 C 412.7378 256.105 392.0936 229.67975 347.6875 217.59375 C 330.82957 214.4805 313.94829 213.04931 297.0625 213.03125 z M 353.09375 509.90625 C 353.17788 509.9885 353.25925 510.07436 353.34375 510.15625 C 354.78785 511.55525 357.11995 511.52125 359.09375 511.90625 C 359.95075 512.07225 357.55975 511.0475 356.71875 510.8125 C 355.53762 510.48284 354.33193 510.17298 353.09375 509.90625 z M 313.28125 880.75 C 313.11641 881.52409 312.96926 882.33124 312.875 883.15625 C 312.7682 885.88086 312.97586 883.96907 313.28125 880.75 z M 785.59375 233.84375 C 784.71826 233.91512 783.88934 234.15973 783.125 234.59375 C 748.3495 256.57175 719.6672 286.22475 692.1875 316.46875 C 657.9081 355.16875 627.9787 397.354 599.4375 440.375 C 585.2161 462.387 591.9844 451.71175 579.0625 472.34375 C 569.365 488.13475 643.8024 533.8535 653.5 518.0625 C 665.1191 498.7305 658.9945 508.785 672 488 C 697.6072 448.511 724.82735 409.984 756.28125 374.875 C 777.61655 351.553 799.59005 328.08775 826.78125 311.46875 C 842.32291 302.64377 803.39547 232.39263 785.59375 233.84375 z M 174.34375 649.125 C 176.68689 650.8376 177.94704 652.57341 176.0625 653.71875 C 175.41981 652.19935 174.85148 650.67551 174.34375 649.125 z "
     id="path14193" />
</svg>
