<?xml version="1.0" encoding="utf-8" ?>

<!DOCTYPE svg PUBLIC "-//W3C//DTD SVG 1.1//EN" 
  "http://www.w3.org/Graphics/SVG/1.1/DTD/svg11.dtd">
<svg 
    xmlns="http://www.w3.org/2000/svg"
    xmlns:xlink="http://www.w3.org/1999/xlink"
    xmlns:sodipodi="http://sodipodi.sourceforge.net/DTD/sodipodi-0.dtd"
    xmlns:inkscape="http://www.inkscape.org/namespaces/inkscape"
    width="1024" height="1024" id="U6001">
<path d="m 11440.739,47378.777 c 39.521,-4.473 78.502,-12.87 117.597,-20.048 65.898,-12.945 132.724,-18.619 199.733,-21.048 52.275,-1.422 104.571,-0.821 156.855,-1.434 31.038,-0.334 62.152,-1.62 92.526,-8.359 2.31,-0.682 4.619,-1.363 6.928,-2.045 18.062,-4.795 40.666,80.349 22.605,85.144 l 0,0 c -3.986,0.99 -7.971,1.979 -11.957,2.969 -36.059,6.922 -72.667,9.197 -109.369,9.097 -51.555,0.271 -103.115,-0.703 -154.665,0.404 -62.671,1.989 -125.172,7.2 -186.703,19.859 -41.433,8.024 -82.678,17.176 -124.41,23.535 -18.683,1.939 -27.823,-86.135 -9.14,-88.074 z" id="path11648" inkscape:connector-curvature="0" style="fill:#782121;fill-opacity:1;fill-rule:nonzero;stroke:#f9f9f9;stroke-width:0.1;stroke-miterlimit:4;stroke-dasharray:none" transform="translate(-11264, -47104)"/><path d="m 11761.657,47241.96 c -12.257,44.251 -26.139,88.004 -40.803,131.508 -22.537,66.732 -50.902,131.207 -80.927,194.844 -20.078,40.776 -40.355,81.599 -64.293,120.28 -10.085,13.894 -4.661,7.379 -16.218,19.589 -13.821,12.734 -73.849,-52.418 -60.028,-65.152 l 0,0 c -2.08,3.878 -1.805,2.941 2.352,-1.747 23.284,-34.777 41.701,-72.601 60.759,-109.77 28.878,-60.299 55.975,-121.512 76.887,-185.101 13.597,-41.588 26.665,-83.403 36.512,-126.065 4.585,-18.192 90.344,3.422 85.759,21.614 z" id="path11650" inkscape:connector-curvature="0" style="fill:#782121;fill-opacity:1;fill-rule:nonzero;stroke:#f9f9f9;stroke-width:0.1;stroke-miterlimit:4;stroke-dasharray:none" transform="translate(-11264, -47104)"/><path d="m 11709.81,47458.949 c 37.558,10.419 73.67,25.106 109.289,40.77 43.281,19.165 84.197,42.964 124.687,67.338 19.77,11.485 38.662,24.657 59.317,34.557 16.624,8.571 -23.783,86.939 -40.407,78.368 l 0,0 c -21.939,-11.82 -42.76,-25.529 -63.987,-38.562 -37.072,-22.635 -74.555,-44.747 -114.386,-62.27 -31.415,-13.685 -63.29,-26.773 -96.749,-34.626 -18.153,-4.717 4.083,-90.292 22.236,-85.575 z" id="path11652" inkscape:connector-curvature="0" style="fill:#782121;fill-opacity:1;fill-rule:nonzero;stroke:#f9f9f9;stroke-width:0.1;stroke-miterlimit:4;stroke-dasharray:none" transform="translate(-11264, -47104)"/><path d="m 11737.61,47632.157 c 19.385,20.615 39.633,40.404 59.88,60.167 12.932,12.633 26.132,24.987 39.274,37.401 13.428,12.97 -47.714,76.271 -61.142,63.301 l 0,0 c -12.963,-12.813 -26.103,-25.443 -39.15,-38.169 -20.648,-20.141 -41.237,-40.344 -61.866,-60.504 -13.193,-13.365 49.81,-75.561 63.004,-62.196 z" id="path11654" inkscape:connector-curvature="0" style="fill:#782121;fill-opacity:1;fill-rule:nonzero;stroke:#f9f9f9;stroke-width:0.1;stroke-miterlimit:4;stroke-dasharray:none" transform="translate(-11264, -47104)"/><path d="m 11590.841,47891.087 c -21.79,30.037 -44.433,59.435 -66.119,89.548 -15.782,21.959 -30.032,44.937 -43.674,68.266 -9.634,15.962 -84.882,-29.453 -75.247,-45.416 l 0,0 c 15.499,-24.945 31.267,-49.733 48.472,-73.552 21.165,-29.426 43.305,-58.187 63.293,-88.437 10.519,-15.544 83.795,34.047 73.275,49.591 z" id="path11656" inkscape:connector-curvature="0" style="fill:#782121;fill-opacity:1;fill-rule:nonzero;stroke:#f9f9f9;stroke-width:0.1;stroke-miterlimit:4;stroke-dasharray:none" transform="translate(-11264, -47104)"/><path d="m 11686.431,47909.717 c -16.181,19.034 -26.964,41.262 -33.763,65.131 -2.777,14.284 -4.258,29.276 9.913,36.72 28.201,12.841 59.953,12.571 90.299,12.664 53.326,-1.767 106.516,-6.452 159.678,-10.84 32.236,-2.717 64.501,-5.486 96.236,-11.93 18.246,-3.44 34.462,82.57 16.217,86.01 l 0,0 c -34.902,6.192 -70.174,9.383 -105.51,12.011 -55.561,4.377 -111.129,9.26 -166.84,11.207 -52.226,-0.109 -105.796,-2.341 -149.425,-34.682 -5.776,-5.844 -12.283,-11.047 -17.329,-17.532 -24.5,-31.487 -25.578,-71.638 -16.829,-108.873 10.887,-34.839 26.293,-67.618 49.249,-96.295 11.966,-14.447 80.07,41.962 68.104,56.409 z" id="path11664" inkscape:connector-curvature="0" style="fill:#782121;fill-opacity:1;fill-rule:nonzero;stroke:#f9f9f9;stroke-width:0.1;stroke-miterlimit:4;stroke-dasharray:none" transform="translate(-11264, -47104)"/><path d="m 11774.252,47871.937 c 13.771,18.561 28.872,35.954 45.411,52.076 13.225,12.956 -47.853,75.296 -61.077,62.34 l 0,0 c -18.79,-18.481 -36.337,-38.01 -52.916,-58.508 -11.86,-14.548 56.722,-70.457 68.582,-55.908 z" id="path11666" inkscape:connector-curvature="0" style="fill:#782121;fill-opacity:1;fill-rule:nonzero;stroke:#f9f9f9;stroke-width:0.1;stroke-miterlimit:4;stroke-dasharray:none" transform="translate(-11264, -47104)"/><path d="m 12186.398,47767.38 c 13.308,22.364 27.426,44.229 41.493,66.118 10.024,15.544 -63.249,62.801 -73.274,47.257 l 0,0 c -14.326,-22.135 -28.6,-44.304 -43.075,-66.342 -9.977,-15.879 64.879,-62.912 74.856,-47.033 z" id="path11668" inkscape:connector-curvature="0" style="fill:#782121;fill-opacity:1;fill-rule:nonzero;stroke:#f9f9f9;stroke-width:0.1;stroke-miterlimit:4;stroke-dasharray:none" transform="translate(-11264, -47104)"/></svg>