<?xml version="1.0" encoding="utf-8" ?>

<!DOCTYPE svg PUBLIC "-//W3C//DTD SVG 1.1//EN" 
  "http://www.w3.org/Graphics/SVG/1.1/DTD/svg11.dtd">
<svg 
    xmlns="http://www.w3.org/2000/svg"
    xmlns:xlink="http://www.w3.org/1999/xlink"
    xmlns:sodipodi="http://sodipodi.sourceforge.net/DTD/sodipodi-0.dtd"
    xmlns:inkscape="http://www.inkscape.org/namespaces/inkscape"
    width="1024" height="1024" id="U606F">
<path d="m 11786.519,52328.043 c -19.806,20.605 -36.289,44.114 -52.562,67.523 -20.967,30.638 -38.799,63.24 -57.75,95.125 -9.474,15.889 -84.375,-28.773 -74.901,-44.662 l 0,0 c 20.061,-33.531 38.894,-67.845 61.05,-100.078 18.874,-27.319 38.137,-54.491 60.32,-79.264 13.015,-13.543 76.858,47.813 63.843,61.356 z" id="path13178" inkscape:connector-curvature="0" style="fill:#501616;fill-opacity:1;fill-rule:nonzero;stroke:#f9f9f9;stroke-width:0.1;stroke-miterlimit:4;stroke-dasharray:none" transform="translate(-11264, -52224)"/><path d="m 11614.155,52471.891 c -5.976,32.813 -9.594,65.916 -11.803,99.174 -3.146,51.354 2.492,102.487 11.24,153.005 6.374,33.815 16.498,66.695 31.283,97.748 7.659,16.871 -71.869,52.977 -79.528,36.107 l 0,0 c -16.766,-38.268 -29.305,-78.117 -36.682,-119.316 -9.681,-57.127 -16.038,-114.905 -12.902,-172.95 2.06,-35.014 5.612,-69.84 10.592,-104.563 2.29,-18.625 90.09,-7.83 87.8,10.795 z" id="path13180" inkscape:connector-curvature="0" style="fill:#501616;fill-opacity:1;fill-rule:nonzero;stroke:#f9f9f9;stroke-width:0.1;stroke-miterlimit:4;stroke-dasharray:none" transform="translate(-11264, -52224)"/><path d="m 11546.498,52467.493 c 36.803,-19.625 77.182,-30.7 117.448,-40.621 46.546,-11.176 94.282,-14.755 142.007,-14.526 28.843,1.743 61.699,2.334 85.844,20.843 6.11,4.684 10.957,10.818 16.435,16.227 25.98,40.661 19.464,88.605 14.908,134.214 -5.748,48.151 -12.279,96.207 -18.815,144.256 -5.15,37.323 -10.405,74.64 -17.654,111.62 -3.715,18.216 -89.585,0.706 -85.87,-17.509 l 0,0 c 7.465,-35.037 12.503,-70.515 17.598,-105.96 6.552,-46.871 13.064,-93.758 18.397,-140.786 1.547,-16.497 2.451,-23.509 3.071,-39.672 0.1,-2.613 -1.677,-25.794 -0.379,-28.984 0.227,-0.559 1.206,0.03 1.809,0.05 5.833,1.62 3.909,-0.852 -0.957,-2.406 -11.378,-3.634 -23.576,-3.828 -35.352,-4.728 -40.381,-0.751 -80.813,2.005 -120.205,11.49 -31.769,7.916 -63.965,16.323 -92.803,32.299 -16.08,9.648 -61.563,-66.156 -45.482,-75.804 z" id="path13190" inkscape:connector-curvature="0" style="fill:#501616;fill-opacity:1;fill-rule:nonzero;stroke:#f9f9f9;stroke-width:0.1;stroke-miterlimit:4;stroke-dasharray:none" transform="translate(-11264, -52224)"/><path d="m 11595.737,52577.842 c 29.523,1.002 59.057,-0.619 88.539,-2.05 14.634,-0.959 29.285,-1.323 43.944,-1.514 18.63,-0.09 19.068,87.73 0.438,87.823 l 0,0 c -13.428,-0.06 -26.848,0.136 -40.255,0.98 -31.538,1.452 -63.083,2.954 -94.66,3.146 -18.749,-0.423 -16.755,-88.808 1.994,-88.385 z" id="path13192" inkscape:connector-curvature="0" style="fill:#501616;fill-opacity:1;fill-rule:nonzero;stroke:#f9f9f9;stroke-width:0.1;stroke-miterlimit:4;stroke-dasharray:none" transform="translate(-11264, -52224)"/><path d="m 11607.753,52714.069 c 28.866,-7.63 58.313,-12.131 87.992,-14.976 13.891,-1.227 27.833,-1.38 41.765,-1.525 18.66,-0.04 18.832,87.928 0.172,87.964 l 0,0 c -11.287,-0.09 -22.585,-0.18 -33.848,0.741 -24.738,2.201 -49.351,5.847 -73.126,13.287 -18.135,4.87 -41.091,-80.621 -22.955,-85.491 z" id="path13194" inkscape:connector-curvature="0" style="fill:#501616;fill-opacity:1;fill-rule:nonzero;stroke:#f9f9f9;stroke-width:0.1;stroke-miterlimit:4;stroke-dasharray:none" transform="translate(-11264, -52224)"/><path d="m 11538.254,52831.449 c 34.378,-1.893 68.626,-5.676 102.904,-8.841 40.824,-3.826 81.737,-6.561 122.745,-6.899 16.894,0.114 8.808,-0.01 24.259,0.343 18.665,0.63 15.695,88.617 -2.969,87.987 l 0,0 c -13.48,-0.622 -6.377,-0.351 -21.312,-0.776 -38.261,-0.383 -76.453,2.027 -114.532,5.685 -35.399,3.451 -70.737,7.475 -106.137,10.906 -18.754,1.052 -23.711,-87.353 -4.958,-88.405 z" id="path13196" inkscape:connector-curvature="0" style="fill:#501616;fill-opacity:1;fill-rule:nonzero;stroke:#f9f9f9;stroke-width:0.1;stroke-miterlimit:4;stroke-dasharray:none" transform="translate(-11264, -52224)"/><path d="m 11568.317,52992.797 c -18.817,27.173 -35.837,55.521 -52.099,84.277 -13.924,25.1 -27.529,50.379 -40.488,75.991 -8.619,16.578 -86.765,-24.049 -78.147,-40.626 l 0,0 c 13.999,-26.254 28.36,-52.312 42.843,-78.301 17.294,-30.478 35.436,-60.445 54.156,-90.07 10.337,-15.641 84.072,33.088 73.735,48.729 z" id="path13198" inkscape:connector-curvature="0" style="fill:#501616;fill-opacity:1;fill-rule:nonzero;stroke:#f9f9f9;stroke-width:0.1;stroke-miterlimit:4;stroke-dasharray:none" transform="translate(-11264, -52224)"/><path d="m 11609.648,53076.464 c -1.188,11.096 0.413,21.157 9.904,27.66 21.71,11.447 46.756,13.435 70.754,15.686 41.22,2.859 82.484,-0.708 123.455,-5.095 33.686,-3.719 67.067,-9.619 100.349,-15.923 9.12,-3.895 39.701,-4.356 46.454,-11.008 17.256,-7.367 51.982,73.979 34.726,81.345 l 0,0 c -21.018,8.16 -43.132,11.968 -65.295,15.813 -35.566,6.388 -71.22,12.41 -107.174,16.205 -46.691,4.798 -93.693,8.536 -140.637,5.22 -45.269,-4.247 -91.11,-10.777 -126.502,-42.043 -4.763,-5.478 -10.089,-10.512 -14.288,-16.433 -16.8,-23.689 -21.52,-52.733 -19.697,-81.116 2.056,-18.657 90.007,-8.968 87.951,9.689 z" id="path13200" inkscape:connector-curvature="0" style="fill:#501616;fill-opacity:1;fill-rule:nonzero;stroke:#f9f9f9;stroke-width:0.1;stroke-miterlimit:4;stroke-dasharray:none" transform="translate(-11264, -52224)"/><path d="m 11784.082,52966.802 c 24.172,20.223 50.239,38.025 76.124,55.951 14.508,10.027 29.157,19.838 43.912,29.496 15.462,10.216 -32.697,83.102 -48.159,72.886 l 0,0 c -15.194,-10.129 -30.305,-20.376 -45.329,-30.757 -27.924,-19.317 -55.892,-38.6 -82.826,-59.292 -14.486,-11.939 41.793,-80.223 56.278,-68.284 z" id="path13202" inkscape:connector-curvature="0" style="fill:#501616;fill-opacity:1;fill-rule:nonzero;stroke:#f9f9f9;stroke-width:0.1;stroke-miterlimit:4;stroke-dasharray:none" transform="translate(-11264, -52224)"/><path d="m 12083.679,52947.987 c 10.419,28.157 22.598,55.629 34.691,83.097 2.103,4.89 4.205,9.78 6.307,14.67 7.271,17.077 -73.231,51.354 -80.503,34.277 l 0,0 c -1.949,-4.626 -3.899,-9.253 -5.849,-13.88 -12.57,-28.832 -25.158,-57.658 -37.253,-86.694 -6.675,-17.524 75.931,-48.993 82.607,-31.47 z" id="path13204" inkscape:connector-curvature="0" style="fill:#501616;fill-opacity:1;fill-rule:nonzero;stroke:#f9f9f9;stroke-width:0.1;stroke-miterlimit:4;stroke-dasharray:none" transform="translate(-11264, -52224)"/></svg>