<?xml version="1.0" encoding="UTF-8" standalone="no"?>
<svg
   xmlns:dc="http://purl.org/dc/elements/1.1/"
   xmlns:cc="http://creativecommons.org/ns#"
   xmlns:rdf="http://www.w3.org/1999/02/22-rdf-syntax-ns#"
   xmlns:svg="http://www.w3.org/2000/svg"
   xmlns="http://www.w3.org/2000/svg"
   xmlns:sodipodi="http://sodipodi.sourceforge.net/DTD/sodipodi-0.dtd"
   xmlns:inkscape="http://www.inkscape.org/namespaces/inkscape"
   width="1024"
   height="1024"
   id="U60EF"
   version="1.1"
   inkscape:version="0.48.0 r9654"
   sodipodi:docname="U+60EF.svg">
  <metadata
     id="metadata20">
    <rdf:RDF>
      <cc:Work
         rdf:about="">
        <dc:format>image/svg+xml</dc:format>
        <dc:type
           rdf:resource="http://purl.org/dc/dcmitype/StillImage" />
      </cc:Work>
    </rdf:RDF>
  </metadata>
  <defs
     id="defs18" />
  <sodipodi:namedview
     pagecolor="#ffffff"
     bordercolor="#666666"
     borderopacity="1"
     objecttolerance="10"
     gridtolerance="10"
     guidetolerance="10"
     inkscape:pageopacity="0"
     inkscape:pageshadow="2"
     inkscape:window-width="640"
     inkscape:window-height="480"
     id="namedview16"
     showgrid="false"
     inkscape:zoom="0.27441406"
     inkscape:cx="512"
     inkscape:cy="512"
     inkscape:window-x="0"
     inkscape:window-y="25"
     inkscape:window-maximized="0"
     inkscape:current-layer="U60EF" />
  <path
     style="fill:#550000;fill-opacity:1;fill-rule:nonzero;stroke:#f9f9f9;stroke-width:0.1;stroke-miterlimit:4;stroke-dasharray:none"
     d="M 656.5625 91.96875 C 648.97268 91.961859 641.34872 92.24025 633.71875 92.75 C 591.54985 95.736 549.65325 101.691 508.46875 111.375 C 470.15205 120.944 431.51475 131.53575 397.59375 152.46875 C 392.61726 155.93865 394.62386 165.97735 400.09375 177.5 C 373.86984 177.55223 331.56134 190.6977 334.375 203.59375 C 342.07434 236.91043 348.69579 270.47013 355.40625 304 C 342.09097 304.85929 328.75677 305.41834 315.40625 305.5 C 296.82015 305.5 296.82015 393.125 315.40625 393.125 C 335.25733 392.21432 355.07188 390.63516 374.84375 388.71875 C 379.17731 404.26853 383.93096 419.69571 389.15625 435 C 393.05215 447.04 397.99995 458.6455 403.40625 470.0625 C 406.08812 475.39246 416.0159 474.92889 427.9375 471.3125 C 430.96385 493.07917 438.64196 514.29736 447.875 513 C 486.6282 506.257 525.27325 498.895 563.90625 491.5 C 607.51505 483.351 650.5437 472.35225 694.1875 464.40625 C 707.3466 462.94125 701.83985 462.773 710.71875 463.625 C 710.77196 463.62463 710.8221 463.62681 710.875 463.625 C 716.23789 465.74806 720.64375 465.9677 723.15625 463.375 C 741.42255 440.676 747.19635 422.82825 753.84375 394.65625 C 758.40641 376.5504 762.86098 358.39703 767 340.1875 C 787.09829 325.27793 814.5805 280.64853 802.84375 272.375 C 786.89988 263.65519 787.99835 263.3422 781.875 261.78125 C 786.6976 229.25545 790.88818 196.11531 783.90625 163.625 C 773.08565 131.411 756.67995 111.95375 723.96875 100.71875 C 701.8697 94.52675 679.33195 91.989422 656.5625 91.96875 z M 654.375 178.84375 C 669.42472 178.69998 684.61028 179.18125 698.8125 184.28125 C 699.8037 184.84225 700.83565 185.33275 701.78125 185.96875 C 706.37405 189.05375 700.6359 186.22775 700.125 188.21875 C 702.2455 211.79975 698.42775 235.43275 695.09375 258.71875 C 695.05066 259.00973 695.01224 259.30285 694.96875 259.59375 C 676.81367 261.43886 658.71695 264.07619 640.65625 266.65625 C 611.51674 270.97174 582.40653 275.51426 553.28125 279.9375 C 576.39134 268.82846 610.46915 234.90435 601.53125 224.5 C 590.80665 212.12465 579.69643 199.99024 570 186.78125 C 592.97493 182.98154 616.14156 180.42132 639.40625 179.03125 C 644.35188 178.989 649.35843 178.89167 654.375 178.84375 z M 504.125 201.4375 C 493.51016 210.84678 486.84228 220.40402 490.46875 225.84375 C 504.13545 245.37975 519.97785 263.1885 535.40625 281.3125 C 535.7982 281.76876 536.24818 282.12722 536.75 282.4375 C 506.16681 287.01836 475.54377 291.37547 444.84375 295.125 C 443.64674 295.26307 442.44724 295.39301 441.25 295.53125 C 441.06597 294.55177 440.86824 293.57404 440.6875 292.59375 C 435.53402 266.28727 430.40048 239.99401 425.40625 213.65625 C 434.20883 222.56347 442.74225 227.73882 447.65625 224.3125 C 465.12338 213.65844 484.46537 206.92534 504.125 201.4375 z M 237.875 243.40625 C 222.36828 243.49812 209.64913 246.535 208.90625 253.46875 C 205.90385 301.37675 203.45135 349.31375 200.34375 397.21875 C 196.57809 441.48333 194.01966 485.78154 192.65625 530.125 C 177.32549 512.51551 122.71495 490.77105 116.4375 504.625 C 101.3045 541.186 89.18195 578.89125 77.46875 616.65625 C 66.64645 652.36025 56.03275 688.3655 54.53125 725.8125 C 54.32495 744.2995 141.4812 745.26825 141.6875 726.78125 C 139.5597 698.02225 153.7901 669.668 159.5625 642.125 C 169.22233 610.94516 179.14368 579.68929 192.15625 549.71875 C 191.36649 584.25349 191.27385 618.80106 191.90625 653.375 C 193.42935 716.216 198.501 778.851 205.875 841.25 C 207.9652 857.788 210.2263 874.31075 211.0625 890.96875 C 212.4843 909.45575 299.64045 902.76925 298.21875 884.28125 C 296.48265 866.25025 293.92395 848.31725 291.21875 830.40625 C 283.12265 771.11025 277.6999 711.50425 275.9375 651.65625 C 275.82971 646.95066 275.73447 642.23618 275.65625 637.53125 C 287.61788 649.79533 300.13168 661.52586 312.875 673 C 336.0024 692.976 359.4757 712.57075 382.125 733.09375 C 386.66734 737.15608 396.01689 732.75302 406.03125 724.65625 C 407.09184 735.08288 408.30311 745.48425 409.9375 755.84375 C 413.1717 774.08675 499.1718 758.83675 495.9375 740.59375 C 490.0591 712.61675 489.9794 683.6975 486.0625 655.4375 C 485.79401 653.02163 485.52457 650.6025 485.25 648.1875 C 486.26157 648.06721 487.17901 647.7666 488 647.1875 C 506.68663 634.81567 527.56833 626.89938 548.96875 620.75 C 545.82613 646.03608 539.64565 670.89334 532.375 695.34375 C 517.7775 741.05275 493.08505 782.238 466.78125 822 C 453.97059 836.83894 438.18412 866.48903 420.9375 879.875 C 421.31991 879.62042 421.71134 879.37961 422.09375 879.125 C 409.84043 892.04121 437.57494 966.23066 454.21875 960.21875 C 459.54685 957.39775 464.8594 954.571 470.1875 951.75 C 497.4234 928.233 518.25 898.54525 538.5 869.03125 C 548.23764 854.08285 557.7519 838.97038 566.75 823.5625 C 563.49183 831.96042 562.89515 838.81934 566.78125 841.65625 C 597.03475 864.27525 630.932 880.51475 665.6875 894.84375 C 710.1888 911.56575 756.12165 923.93775 800.46875 941.09375 C 819.66705 948.85875 837.91675 958.57525 855.53125 969.40625 C 871.37315 978.81225 915.7169 904.12475 899.875 894.71875 C 877.7306 881.91675 855.02005 870.1375 831.15625 860.8125 C 787.40025 844.2555 742.40425 831.577 698.53125 815.375 C 670.18445 803.648 642.3603 790.46525 618.4375 770.90625 C 610.61752 765.19756 592.85288 781.67345 579.75 800.3125 C 593.55261 774.51129 605.57574 747.80798 614.46875 719.71875 C 625.33086 683.06559 634.09233 645.80522 637.5 607.71875 C 650.9153 607.72333 664.35 608.56613 677.75 610.15625 C 696.8341 613.11525 715.142 619.08275 729.75 631.96875 C 734.4978 637.13875 733.05365 641.7075 732.09375 647.9375 C 730.35555 657.6925 726.3457 666.3985 720 673.9375 C 709.1555 688.9055 779.7179 740.0305 790.5625 725.0625 C 805.7193 703.1185 816.80475 679.71375 819.15625 652.71875 C 820.25395 616.36175 811.87505 588.69575 784.03125 563.84375 C 755.42545 541.96475 723.071 528.464 687.0625 524.25 C 642.0409 519.694 596.8236 520.87325 552.5 530.90625 C 525.26486 537.61556 498.19216 545.50452 472.625 556.90625 C 463.13668 541.97265 384.15383 554.58533 386.78125 572.15625 C 390.60104 591.44643 393.56328 610.89039 396.125 630.375 C 387.68435 623.18032 379.26112 615.9782 370.875 608.71875 C 352.2577 591.88475 333.9879 574.53775 318.625 554.59375 C 312.75017 547.33191 292.61952 557.64982 275.53125 571.53125 C 276.29132 515.34653 279.28606 459.23651 284.6875 403.21875 C 288.3192 356.40375 291.18955 309.48025 296.09375 262.78125 C 297.33187 251.22562 263.71954 243.25313 237.875 243.40625 z M 676.53125 348.34375 C 674.45568 356.59982 672.32794 364.83278 670.15625 373.0625 C 670.95914 373.87137 670.20793 377.14923 668.78125 381.34375 C 640.39844 387.2137 612.20994 393.93871 583.875 400.03125 C 599.47582 386.97941 611.62848 371.50672 606.25 364.71875 C 604.57767 362.61616 602.87885 360.52457 601.1875 358.4375 C 618.38446 355.8791 635.5954 353.35706 652.8125 350.9375 C 660.64542 350.37687 668.56657 349.41399 676.53125 348.34375 z M 512.25 371.65625 C 508.89231 377.05239 507.7629 381.75723 510.09375 384.8125 C 517.14469 393.35381 524.26777 401.81253 531.25 410.40625 C 512.95144 413.8143 494.64662 417.16041 476.28125 420.1875 C 474.30949 415.66318 472.56936 411.02882 470.875 406.375 C 467.56417 397.20406 464.47036 387.98294 461.59375 378.6875 C 478.50044 376.45493 495.37337 374.09803 512.25 371.65625 z M 420.90625 879.90625 C 419.11688 881.09748 417.32062 882.27774 415.53125 883.46875 C 417.33258 882.47326 419.13352 881.27975 420.90625 879.90625 z "
     id="path24181" />
</svg>
