<?xml version="1.0" encoding="UTF-8" standalone="no"?>
<svg
   xmlns:dc="http://purl.org/dc/elements/1.1/"
   xmlns:cc="http://creativecommons.org/ns#"
   xmlns:rdf="http://www.w3.org/1999/02/22-rdf-syntax-ns#"
   xmlns:svg="http://www.w3.org/2000/svg"
   xmlns="http://www.w3.org/2000/svg"
   xmlns:sodipodi="http://sodipodi.sourceforge.net/DTD/sodipodi-0.dtd"
   xmlns:inkscape="http://www.inkscape.org/namespaces/inkscape"
   width="1024"
   height="1024"
   id="U60C5"
   version="1.1"
   inkscape:version="0.48.0 r9654"
   sodipodi:docname="U+60C5.svg">
  <metadata
     id="metadata18">
    <rdf:RDF>
      <cc:Work
         rdf:about="">
        <dc:format>image/svg+xml</dc:format>
        <dc:type
           rdf:resource="http://purl.org/dc/dcmitype/StillImage" />
      </cc:Work>
    </rdf:RDF>
  </metadata>
  <defs
     id="defs16" />
  <sodipodi:namedview
     pagecolor="#ffffff"
     bordercolor="#666666"
     borderopacity="1"
     objecttolerance="10"
     gridtolerance="10"
     guidetolerance="10"
     inkscape:pageopacity="0"
     inkscape:pageshadow="2"
     inkscape:window-width="640"
     inkscape:window-height="480"
     id="namedview14"
     showgrid="false"
     inkscape:zoom="0.27441406"
     inkscape:cx="512"
     inkscape:cy="512"
     inkscape:window-x="0"
     inkscape:window-y="25"
     inkscape:window-maximized="0"
     inkscape:current-layer="U60C5" />
  <path
     style="fill:#a02c2c;fill-opacity:1;fill-rule:nonzero;stroke:#f9f9f9;stroke-width:0.1;stroke-miterlimit:4;stroke-dasharray:none"
     d="M 606.8125 79.78125 C 580.31857 79.572441 543.1482 89.010531 544.84375 101.21875 C 548.9648 130.91163 551.9847 160.75323 554.84375 190.59375 C 524.96839 195.69615 495.04528 200.63575 465.5 207.40625 C 447.4371 212.44725 471.21835 297.6035 489.28125 292.5625 C 513.34552 286.26289 537.81168 281.71078 562.3125 277.34375 C 563.57488 294.34796 564.74786 311.3543 565.75 328.375 C 554.76534 329.83601 543.78778 331.39357 532.84375 333.15625 C 514.40925 336.74025 531.3154 423.6475 549.75 420.0625 C 556.35209 418.71104 562.98109 417.50561 569.625 416.40625 C 570.06632 432.66978 570.4314 448.92225 570.8125 465.1875 C 553.48756 468.88431 536.16852 472.60962 518.84375 476.3125 C 471.32397 486.05288 423.77128 495.86219 375.84375 503.40625 C 369.83193 497.20873 363.80278 491.03502 357.6875 484.9375 C 353.82452 481.4482 346.47023 484.00218 338.15625 489.75 C 337.47209 442.4435 337.11713 395.12627 337.34375 347.8125 C 337.69755 299.0895 336.21125 249.75275 343.59375 201.46875 C 348.10915 183.26175 262.2654 161.9805 257.75 180.1875 C 249.5167 235.5335 252.06345 291.93175 252.34375 347.71875 C 252.53261 379.03853 252.84043 410.37003 253.21875 441.6875 C 235.04218 427.82812 213.2415 417.50691 207.46875 425.3125 C 187.06365 455.3935 169.8613 487.50425 153 519.65625 C 138.0954 548.32625 125.27055 577.97625 113.15625 607.90625 C 106.29825 625.14925 187.5794 657.46175 194.4375 640.21875 C 205.0614 612.99175 216.50995 586.097 229.96875 560.125 C 237.84157 545.19911 245.75347 530.23747 254.25 515.625 C 254.75648 549.00384 255.27569 582.40344 255.84375 615.78125 C 256.90795 676.27425 259.0758 736.76 257 797.25 C 255.9625 812.434 255.64835 827.9575 250.96875 842.5625 C 246.40885 860.6975 331.8777 882.1975 336.4375 864.0625 C 341.2026 842.8085 343.622 821.2535 343.8125 799.4375 C 344.8441 737.6335 342.12475 675.86975 340.53125 614.09375 C 340.36726 606.77129 340.22068 599.44767 340.0625 592.125 C 347.43309 599.7358 354.79443 607.35141 362.25 614.875 C 386.4821 639.348 412.03695 662.4765 436.03125 687.1875 C 438.59535 689.9925 441.15475 692.78875 443.71875 695.59375 C 445.56826 697.57709 448.51924 697.98216 452.15625 697.21875 C 456.44604 721.42001 461.16755 745.55358 465.8125 769.6875 C 472.6912 803.6925 478.20345 837.91525 481.90625 872.40625 C 482.23325 875.71025 482.548 879.0095 482.875 882.3125 C 484.58932 897.36921 542.48653 893.65993 563.15625 881.8125 C 569.27554 898.12745 577.62809 910.99585 584.96875 908.90625 C 607.89045 901.82725 631.609 898.9525 655.5 898.3125 C 667.0651 898.2305 678.58065 898.9735 689.90625 901.3125 C 708.31765 904.5705 723.69265 817.78925 705.28125 814.53125 C 687.79925 811.68825 670.21805 810.0405 652.46875 810.6875 C 622.44074 811.90782 592.66615 815.62358 563.53125 823.15625 C 561.12467 807.58669 558.48157 792.05347 555.59375 776.5625 C 576.7229 776.78683 597.73211 779.25169 618.65625 782.0625 L 628.1875 783.5 C 646.6797 786.117 659.02355 698.9285 640.53125 696.3125 C 636.92765 695.8315 633.32245 695.356 629.71875 694.875 C 602.36125 691.595 574.9459 688.732 547.375 688.125 C 544.51389 688.17045 542.12055 690.29434 540.1875 693.8125 C 539.87689 691.94989 539.58181 690.08285 539.28125 688.21875 C 562.95218 677.32754 587.52027 668.47237 612.375 660.6875 C 636.7878 653.5245 661.9208 649.08 687.1875 653.375 C 698.7905 655.901 704.9102 663.72825 711.5 672.78125 C 724.9011 694.04725 728.7201 719.3605 732.875 743.6875 C 739.1813 788.4775 741.09455 833.724 742.78125 878.875 C 743.14205 912.404 744.906 945.9065 744.875 979.4375 C 744.7279 981.3605 744.5847 983.29575 744.4375 985.21875 C 744.2704 985.17575 744.1046 985.1125 743.9375 985.0625 C 740.6581 1003.5485 827.81445 1019.0163 831.09375 1000.5312 C 833.09455 985.38325 832.5358 992.832 832.875 978.25 C 831.9917 944.004 829.87995 909.79225 829.34375 875.53125 C 827.39895 826.68225 825.34105 777.728 818.65625 729.25 C 812.24965 690.683 804.4646 651.719 781.25 619.25 C 759.8521 592.011 734.09985 572.07425 698.96875 566.40625 C 660.72315 561.86825 622.96945 565.808 586.15625 577.5 C 553.44125 587.853 521.2863 599.78925 489.9375 613.78125 C 489.17732 614.1581 488.53796 614.69146 488 615.34375 C 475.18515 602.79563 462.14281 590.49641 449.21875 578.0625 C 478.26257 572.12596 507.28088 566.0511 536.28125 559.90625 C 604.16225 545.03825 672.1342 530.62225 740.5 518.15625 C 780.8927 510.56525 821.612 505.143 862.5 501.125 C 866.2634 500.684 870.01785 500.22325 873.78125 499.78125 C 892.29295 497.33425 880.7617 410.08325 862.25 412.53125 C 859.1191 413.00125 856.006 413.4685 852.875 413.9375 C 809.9763 419.1845 767.1784 425.42075 724.75 433.71875 C 702.06888 438.03059 679.4596 442.56404 656.84375 447.1875 C 656.35884 433.62276 655.88016 420.06468 655.375 406.5 C 657.53079 406.38253 660.5165 406.21383 666.0625 405.90625 C 684.592 404.76425 679.18575 317.4205 660.65625 318.5625 C 655.94705 318.8782 653.31464 319.03415 650.96875 319.1875 C 649.78093 299.65854 648.50298 280.14037 647.09375 260.625 C 680.25923 253.26873 713.32576 245.40953 746.65625 238.8125 C 768.71745 235.2535 758.39075 236.596 777.53125 234.625 C 795.95765 232.369 785.33265 145.494 766.90625 147.75 C 742.77435 151.062 755.3146 149.0985 729.25 153.8125 C 699.47993 160.08188 669.87805 167.05852 640.1875 173.6875 C 637.79129 145.45417 635.30131 117.23112 632.53125 89.03125 C 631.6431 82.636813 620.69027 79.890626 606.8125 79.78125 z "
     id="path11221" />
</svg>
