<?xml version="1.0" encoding="UTF-8" standalone="no"?>
<svg
   xmlns:dc="http://purl.org/dc/elements/1.1/"
   xmlns:cc="http://creativecommons.org/ns#"
   xmlns:rdf="http://www.w3.org/1999/02/22-rdf-syntax-ns#"
   xmlns:svg="http://www.w3.org/2000/svg"
   xmlns="http://www.w3.org/2000/svg"
   xmlns:sodipodi="http://sodipodi.sourceforge.net/DTD/sodipodi-0.dtd"
   xmlns:inkscape="http://www.inkscape.org/namespaces/inkscape"
   width="1024"
   height="1024"
   id="U60F3"
   version="1.1"
   inkscape:version="0.48.0 r9654"
   sodipodi:docname="U+60F3.svg">
  <metadata
     id="metadata20">
    <rdf:RDF>
      <cc:Work
         rdf:about="">
        <dc:format>image/svg+xml</dc:format>
        <dc:type
           rdf:resource="http://purl.org/dc/dcmitype/StillImage" />
      </cc:Work>
    </rdf:RDF>
  </metadata>
  <defs
     id="defs18" />
  <sodipodi:namedview
     pagecolor="#ffffff"
     bordercolor="#666666"
     borderopacity="1"
     objecttolerance="10"
     gridtolerance="10"
     guidetolerance="10"
     inkscape:pageopacity="0"
     inkscape:pageshadow="2"
     inkscape:window-width="640"
     inkscape:window-height="480"
     id="namedview16"
     showgrid="false"
     inkscape:zoom="0.27441406"
     inkscape:cx="512"
     inkscape:cy="512"
     inkscape:window-x="0"
     inkscape:window-y="25"
     inkscape:window-maximized="0"
     inkscape:current-layer="U60F3" />
  <path
     style="fill:#916f6f;fill-opacity:1;fill-rule:nonzero;stroke:#f9f9f9;stroke-width:0.1;stroke-miterlimit:4;stroke-dasharray:none"
     d="M 677.28125 147.375 C 664.23071 147.403 651.15395 148.5605 638.09375 150.6875 C 606.95565 155.6415 576.13235 162.48825 545.84375 171.28125 C 517.59795 180.21625 489.95595 191.05625 465.28125 207.78125 C 459.59892 211.66937 462.72036 223.95928 469.71875 237.4375 C 448.74703 238.39298 428.84124 243.57652 429.0625 252.5 C 431.6536 292.804 435.4565 333.0075 439.5 373.1875 C 444.4319 423.8345 449.5095 474.44025 456.0625 524.90625 C 460.1006 556.91325 466.0739 588.62475 471.875 620.34375 C 473.19067 626.92426 485.19793 628.90281 499.84375 627.90625 C 505.62007 636.53116 511.7081 641.73984 516.65625 639.84375 C 537.73485 632.04675 559.72145 627.039 581.46875 621.5 C 607.08305 614.975 632.77845 608.844 658.40625 602.375 C 671.86375 599.771 685.1743 594.30425 699 593.78125 C 706.01096 593.008 709.04984 580.12312 709.09375 564.4375 C 732.67068 575.38136 765.95285 582.1213 769.71875 571.15625 C 774.28385 557.50325 778.24365 543.62475 779.53125 529.21875 C 782.30065 499.34675 783.3912 469.3085 783.5 439.3125 C 783.6535 398.9395 783.0909 358.567 780.8125 318.25 C 778.9091 285.947 777.2894 253.57725 773.75 221.40625 C 766.8325 185.98225 753.11305 161.4825 716.34375 150.9375 C 703.3586 148.4445 690.33179 147.347 677.28125 147.375 z M 250.96875 169.5625 C 226.46628 169.47666 198.75087 175.49956 199.28125 186.03125 C 201.2973 212.50528 202.08393 239.02389 202.34375 265.5625 C 197.588 266.41709 192.8336 267.31993 188.09375 268.28125 C 153.71465 275.42425 119.5049 283.368 85.5625 292.375 C 67.5799 297.726 92.79865 382.476 110.78125 377.125 C 131.01048 370.89498 151.51103 365.60754 172.125 360.8125 C 164.13667 378.86845 156.58564 397.13552 149.03125 415.375 C 133.41605 452.221 119.04305 489.5465 104.15625 526.6875 C 99.03085 540.0195 92.19255 552.59975 87.53125 566.09375 C 82.73994 583.60685 162.0247 605.99742 172.375 591.40625 C 174.36377 586.40338 183.13915 565.19862 185.59375 558.59375 C 191.62438 542.84057 197.64962 527.09056 203.78125 511.375 C 203.80431 512.64574 203.82059 513.91677 203.84375 515.1875 C 204.01995 564.5645 206.72285 613.7995 213.65625 662.6875 C 215.61885 675.7455 217.8491 688.7645 219.875 701.8125 C 223.0233 720.2255 309.80455 705.38175 306.65625 686.96875 C 304.35095 674.58975 301.9827 662.20625 299.9375 649.78125 C 292.7941 604.62925 290.25355 559.07 289.65625 513.375 C 289.23948 496.05177 288.84987 478.73071 288.53125 461.40625 C 295.1082 467.60737 301.47502 474.03801 307.84375 480.40625 C 328.83585 503.12125 351.507 524.0815 375.5 543.5625 C 383.5638 550.5235 392.40095 556.366 401.40625 562 C 417.51135 571.609 462.7926 495.70375 446.6875 486.09375 C 440.8367 483.04675 435.5362 479.196 430.4375 475 C 408.7016 457.849 388.4862 439.00625 369.6875 418.65625 C 347.8764 396.77825 325.71175 375.0175 299.53125 358.3125 C 296.50761 356.4306 292.38529 357.62955 287.78125 360.84375 C 287.81786 354.86013 287.86348 348.85876 287.9375 342.875 C 296.63251 342.40177 305.34635 342.1217 314.0625 342.03125 C 329.9059 342.12125 345.68585 343.5895 361.40625 345.4375 C 380.06165 347.3515 389.0929 259.414 370.4375 257.5 C 351.1669 255.768 331.83065 254.46925 312.46875 254.65625 C 304.56296 254.85136 296.67234 255.12953 288.78125 255.5625 C 288.74521 230.90255 288.42387 206.2463 287.5625 181.59375 C 287.14994 173.40244 270.02622 169.62926 250.96875 169.5625 z M 172.375 591.40625 C 171.87105 592.67397 171.97646 592.52368 172.5625 591.1875 C 172.51088 591.26807 172.43063 591.32783 172.375 591.40625 z M 680.4375 234.78125 C 682.59233 234.74896 684.72563 234.82024 686.84375 235 C 686.90107 235.62352 686.96805 236.35051 687.09375 237.21875 C 690.10285 265.94175 691.94005 294.77675 693.78125 323.59375 C 696.12565 361.95575 696.71635 400.3895 696.40625 438.8125 C 696.13984 461.43295 695.41439 484.09121 693.3125 506.625 C 692.0261 505.8486 690.67554 505.50247 689.28125 505.65625 C 671.40925 508.02925 653.99355 512.65125 636.59375 517.28125 C 611.07565 523.94325 585.40775 530.017 559.84375 536.5 C 555.24776 537.66851 550.63228 538.81054 546.03125 539.96875 C 544.78414 532.47816 543.65104 524.95949 542.59375 517.4375 C 560.33976 510.33401 579.34942 507.05002 598.125 503.8125 C 619.3431 500.6675 640.47965 496.453 661.96875 495.875 C 663.35645 496.005 664.7373 496.121 666.125 496.25 C 684.8394 497.005 688.4019 408.78525 669.6875 408.03125 C 665.8413 407.94925 661.9712 407.86125 658.125 407.78125 C 632.8994 409.13825 608.0321 413.32125 583.125 417.40625 C 565.90679 420.41054 548.67386 423.69911 531.84375 428.375 C 530.78735 418.43309 529.76911 408.48097 528.78125 398.53125 C 529.33073 398.59504 529.8807 398.59516 530.4375 398.5 C 556.157 393.545 582.04265 389.42575 607.96875 385.71875 C 625.43495 384.33275 643.46765 379.389 661.03125 382.375 C 679.67985 384.257 688.55485 296.34975 669.90625 294.46875 C 644.93325 292.48775 620.1468 295.22125 595.4375 299.03125 C 570.49723 302.67378 545.60206 306.65776 520.6875 310.46875 C 519.86176 299.79706 519.15617 289.12473 518.59375 278.4375 C 534.86216 267.38314 553.44326 260.64233 572.125 254.8125 C 598.2067 247.3295 624.70155 241.38175 651.53125 237.34375 C 660.73444 236.86625 670.7302 234.92672 680.4375 234.78125 z M 692.21875 235.75 C 693.96925 236.10369 695.71052 236.56015 697.40625 237.15625 C 695.52338 237.55723 693.74985 236.79664 692.21875 235.75 z M 173.28125 589.5625 C 172.88707 590.48004 172.80862 590.66594 172.59375 591.15625 C 172.90178 590.66773 173.12573 590.13094 173.28125 589.5625 z M 861.375 705.4375 C 839.63383 705.81793 786.21309 743.56344 795.0625 757.0625 C 807.7312 774.9665 819.319 793.5945 830.9375 812.1875 C 838.1286 824.0205 834.6594 818.196 841.4375 829.625 C 851.0417 845.645 926.5417 800.36375 916.9375 784.34375 C 909.4592 771.99275 913.29915 778.284 905.40625 765.5 C 893.41615 746.431 881.36435 727.42225 869.09375 708.53125 C 867.64566 706.32231 864.93265 705.37525 861.375 705.4375 z M 563.25 725.375 C 542.31519 725.82099 489.65366 768.45963 499.59375 781.53125 C 517.17935 804.02525 536.40205 825.092 556.84375 845 C 566.90075 855.032 578.25895 863.4355 589.84375 871.5625 C 605.28345 882.0715 654.8148 809.29125 639.375 798.78125 C 631.6656 793.83225 624.3167 788.445 617.75 782 C 600.3667 765.356 584.13965 747.50675 570.03125 727.96875 C 568.61124 726.10125 566.24069 725.31129 563.25 725.375 z M 218.40625 736.3125 C 215.93219 736.27983 213.9439 736.95464 212.59375 738.5 C 191.08625 763.321 174.08895 791.42725 157.96875 819.90625 C 142.64535 847.51825 128.79055 875.9045 116.96875 905.1875 C 115.88645 908.1255 114.80115 911.09325 113.71875 914.03125 C 107.52365 931.70625 190.83605 960.89375 197.03125 943.21875 C 197.68345 941.20775 198.3478 939.1985 199 937.1875 C 208.547 911.5235 220.646 886.8935 233.875 862.9375 C 247.1057 839.6555 260.7886 816.3535 279.1875 796.6875 C 290.18155 784.10386 238.5522 736.57856 218.40625 736.3125 z M 353.1875 770.46875 C 326.72909 770.91124 289.85085 781.25841 291.84375 793.40625 C 296.10295 819.55225 298.49945 845.84975 304.34375 871.71875 C 313.25085 906.23775 335.74365 931.13975 363.90625 951.46875 C 392.15965 969.92675 424.4455 977.86525 457.5 981.90625 C 491.3583 983.74525 525.3162 981.91875 559.1875 981.09375 C 589.168 980.23975 619.13695 980.39975 649.09375 978.84375 C 676.74665 977.58475 703.8437 972.12775 730.5625 965.21875 C 749.4087 959.36775 768.7773 955.61075 788.0625 951.59375 C 801.1006 948.51475 794.65665 950.13225 807.40625 946.65625 C 825.43765 941.62225 801.68775 856.62225 783.65625 861.65625 C 774.81585 864.20925 779.4084 862.99075 769.875 865.34375 C 749.2404 869.74475 728.5406 873.83325 708.375 880.15625 C 687.369 885.70525 666.092 890.219 644.3125 891.25 C 615.2453 892.942 586.12655 892.75975 557.03125 893.71875 C 527.19025 894.46275 497.31365 895.786 467.46875 894.875 C 448.88095 893.004 430.5725 888.89025 414.25 879.40625 C 403.4135 872.40625 393.78115 864.34375 389.78125 851.59375 C 383.82205 827.82275 382.73135 803.27375 379.09375 779.09375 C 378.04982 772.73094 367.04667 770.23697 353.1875 770.46875 z "
     id="path11521" />
</svg>
