<?xml version="1.0" encoding="UTF-8" standalone="no"?>
<svg
   xmlns:dc="http://purl.org/dc/elements/1.1/"
   xmlns:cc="http://creativecommons.org/ns#"
   xmlns:rdf="http://www.w3.org/1999/02/22-rdf-syntax-ns#"
   xmlns:svg="http://www.w3.org/2000/svg"
   xmlns="http://www.w3.org/2000/svg"
   xmlns:sodipodi="http://sodipodi.sourceforge.net/DTD/sodipodi-0.dtd"
   xmlns:inkscape="http://www.inkscape.org/namespaces/inkscape"
   width="1024"
   height="1024"
   id="U60A8"
   version="1.1"
   inkscape:version="0.48.0 r9654"
   sodipodi:docname="U+60A8.svg">
  <metadata
     id="metadata18">
    <rdf:RDF>
      <cc:Work
         rdf:about="">
        <dc:format>image/svg+xml</dc:format>
        <dc:type
           rdf:resource="http://purl.org/dc/dcmitype/StillImage" />
      </cc:Work>
    </rdf:RDF>
  </metadata>
  <defs
     id="defs16" />
  <sodipodi:namedview
     pagecolor="#ffffff"
     bordercolor="#666666"
     borderopacity="1"
     objecttolerance="10"
     gridtolerance="10"
     guidetolerance="10"
     inkscape:pageopacity="0"
     inkscape:pageshadow="2"
     inkscape:window-width="640"
     inkscape:window-height="480"
     id="namedview14"
     showgrid="false"
     inkscape:zoom="0.27441406"
     inkscape:cx="512"
     inkscape:cy="512"
     inkscape:window-x="0"
     inkscape:window-y="25"
     inkscape:window-maximized="0"
     inkscape:current-layer="U60A8" />
  <path
     style="fill:#c83737;fill-opacity:1;fill-rule:nonzero;stroke:#f9f9f9;stroke-width:0.1;stroke-miterlimit:4;stroke-dasharray:none"
     d="M 424.65625 122.0625 C 419.83408 122.14204 416.33906 123.45175 414.96875 126.375 C 401.95725 156.126 390.96995 186.71 380.34375 217.375 C 368.91945 250.533 357.03625 283.53525 344.15625 316.15625 C 338.92235 329.15325 341.4056 322.98425 336.6875 334.65625 C 329.9229 352.09825 412.14175 383.97425 418.90625 366.53125 C 423.28015 354.75125 420.9164 361.079 426 347.625 C 436.13554 320.55952 445.90097 293.35335 455.5 266.09375 C 458.91353 268.24635 462.03137 268.91843 464.5625 267.5625 C 477.87879 260.14425 491.92335 254.45558 506.3125 249.71875 C 500.46632 287.83989 499.01179 326.506 496.75 364.96875 C 494.159 417.33375 490.4446 469.62925 486.5 521.90625 C 481.9329 543.90225 486.9839 568.05325 481.875 589.90625 C 479.9146 608.60225 568.07085 617.85225 570.03125 599.15625 C 571.81535 575.47025 570.98885 551.59125 573.09375 527.90625 C 576.40765 475.36925 579.9776 422.8755 582.875 370.3125 C 585.4046 331.2115 586.6997 291.641 595.125 253.25 C 596.80446 246.33471 585.45235 239.0493 570.5 233.65625 C 591.81352 229.60289 613.27854 226.39677 634.78125 223.5 C 649.50805 221.66744 664.27417 219.77089 679.09375 219.5 C 677.87956 226.75562 676.08152 235.51243 674.875 241.625 C 666.2959 279.611 657.6293 317.52625 650.3125 355.78125 C 646.679 370.99625 645.1137 392.792 640 405.25 C 637.6334 411.4541 646.46176 419.39233 659.125 426.3125 C 636.56376 426.74389 583.31394 460.02592 591.15625 473.75 C 606.15005 499.079 627.25285 519.596 648.59375 539.5 C 660.37525 550.45 672.54445 560.97225 684.78125 571.40625 C 699.07145 583.44025 755.7903 516.06525 741.5 504.03125 C 730.2447 494.68125 719.1292 485.20925 708.375 475.28125 C 693.85314 461.80452 678.71305 448.36432 668.65625 431.0625 C 691.13915 441.07355 719.09861 446.7435 722.875 436.84375 C 729.9282 415.75375 732.28455 393.574 736.15625 371.75 C 742.98595 333.93 751.5212 296.52025 760.5 259.15625 C 766.9327 228.73925 775.1231 197.088 763.75 166.875 C 759.5834 161.082 756.322 154.518 751.25 149.5 C 736.9039 135.305 716.32985 132.79025 697.34375 131.65625 C 672.37085 130.81225 647.54715 133.11225 622.84375 136.78125 C 587.97855 141.67025 553.2129 147.32875 518.9375 155.46875 C 511.14728 157.44679 503.37489 159.52912 495.65625 161.75 C 496.41765 147.13078 446.7321 121.69835 424.65625 122.0625 z M 306.5625 151.34375 C 304.09096 151.4099 302.13011 152.18438 300.84375 153.78125 C 276.32475 185.69325 254.23685 219.33725 232.28125 253.03125 C 210.70285 286.25125 188.5195 319.06825 166 351.65625 C 156.5151 364.97225 148.2977 379.05425 140.75 393.53125 C 132.3167 410.32825 211.5042 450.07825 219.9375 433.28125 C 225.3028 422.12336 231.09719 411.23664 238.21875 401.0625 C 235.14558 442.37571 233.30261 483.78139 232.0625 525.1875 C 231.7187 553.3555 230.98295 581.76175 237.96875 609.21875 C 240.39055 614.10075 242.79695 618.993 245.21875 623.875 C 255.02769 638.96708 323.49877 595.40998 320.46875 577.78125 C 321.2262 579.78816 321.9613 581.80492 322.71875 583.8125 C 316.99805 566.8685 320.48535 545.506 319.09375 527.375 C 320.00835 482.35 321.9007 437.3125 325.8125 392.4375 C 328.7577 357.8125 330.88525 323.0055 336.46875 288.6875 C 337.3872 283.52662 331.2632 278.61483 321.875 274.59375 C 336.83795 252.10891 352.30192 229.9419 369.65625 209.21875 C 380.13089 196.21562 326.68792 150.80509 306.5625 151.34375 z M 699.46875 220.34375 C 706.23862 221.23546 704.26533 222.37289 699.46875 220.34375 z M 436.09375 388 C 434.50557 388.03422 433.12259 388.49352 432 389.4375 C 407.5442 410.9335 389.1231 437.75275 372.5 465.46875 C 356.781 491.72575 343.65035 518.65775 340.15625 549.21875 C 339.35895 567.95775 427.67135 571.70775 428.46875 552.96875 C 421.73115 567.51575 448.57015 498.51575 447.71875 510.21875 C 459.11985 490.86175 471.49475 471.6845 488.96875 457.1875 C 502.21526 446.04848 454.83425 387.59623 436.09375 388 z M 831.8125 582.3125 C 810.1051 582.95364 757.18778 621.2818 766.1875 634.65625 C 783.8313 659.65425 804.38555 682.285 825.46875 704.375 C 843.65475 722.893 862.16225 741.07075 880.46875 759.46875 C 893.78035 772.59775 955.6867 709.84775 942.375 696.71875 C 924.3635 679.28075 906.37685 661.82975 888.78125 643.96875 C 871.14715 625.48475 853.5796 606.75225 839.5625 585.28125 C 838.0898 583.0927 835.36462 582.20759 831.8125 582.3125 z M 236.78125 657.0625 C 234.30678 657.16511 232.35864 657.94419 231.09375 659.5625 C 214.94955 681.1145 201.0079 704.243 187.0625 727.25 C 172.8423 750.386 159.9584 774.31375 147.8125 798.59375 C 140.9846 811.33075 136.37565 824.95525 132.84375 838.90625 C 128.66605 857.21025 214.9473 876.89775 219.125 858.59375 C 220.1338 851.14575 223.3 844.2375 226.625 837.5625 C 237.4185 815.4155 249.1271 793.6975 262 772.6875 C 265.58989 766.76764 269.1762 760.81937 272.8125 754.90625 C 273.85149 766.12357 275.43674 777.29823 277.46875 788.46875 C 284.77355 825.69775 302.75805 857.137 328.59375 884.375 C 358.08855 912.031 395.38025 922.44175 434.34375 927.96875 C 477.73445 932.43175 521.27475 928.57375 564.34375 922.96875 C 610.61555 916.62575 655.1254 902.3225 699.125 887.1875 C 729.0723 876.9005 758.36525 864.92775 787.40625 852.34375 C 799.78665 848.27975 808.1286 840.64925 817.8125 832.15625 C 829.70368 818.7937 770.38994 764.84437 753.78125 771.65625 C 764.07967 764.47664 757.10181 769.77445 751.5 771.9375 C 725.0382 784.1245 698.2146 795.44225 670.6875 805.03125 C 632.3402 818.39825 593.5502 831.172 553.1875 836.875 C 517.7493 841.434 481.93805 844.722 446.21875 841.375 C 426.70265 838.834 407.00485 835.52325 391.15625 822.90625 C 376.54685 809.16425 367.8233 792.07025 363.5625 772.40625 C 359.2999 750.34125 357.96985 728.23775 360.78125 705.84375 C 361.37822 692.59096 317.4388 686.72544 291.28125 691.03125 C 276.29598 674.515 249.63204 656.52961 236.78125 657.0625 z M 533.65625 663.15625 C 513.51013 663.31792 461.6656 710.579 472.59375 723.21875 C 494.92995 747.42675 521.07625 767.56975 548.09375 786.21875 C 552.95155 789.21475 557.8297 792.22275 562.6875 795.21875 C 578.5603 804.87175 624.0603 730.027 608.1875 720.375 C 604.6349 718.256 601.08375 716.15025 597.53125 714.03125 C 576.61765 699.86825 556.11265 684.537 539.46875 665.375 C 538.1267 663.82275 536.13033 663.1364 533.65625 663.15625 z "
     id="path10509" />
</svg>
