<?xml version="1.0" encoding="UTF-8" standalone="no"?>
<svg
   xmlns:dc="http://purl.org/dc/elements/1.1/"
   xmlns:cc="http://creativecommons.org/ns#"
   xmlns:rdf="http://www.w3.org/1999/02/22-rdf-syntax-ns#"
   xmlns:svg="http://www.w3.org/2000/svg"
   xmlns="http://www.w3.org/2000/svg"
   xmlns:sodipodi="http://sodipodi.sourceforge.net/DTD/sodipodi-0.dtd"
   xmlns:inkscape="http://www.inkscape.org/namespaces/inkscape"
   width="1024"
   height="1024"
   id="U601D"
   version="1.1"
   inkscape:version="0.48.0 r9654"
   sodipodi:docname="U+601D.svg">
  <metadata
     id="metadata16">
    <rdf:RDF>
      <cc:Work
         rdf:about="">
        <dc:format>image/svg+xml</dc:format>
        <dc:type
           rdf:resource="http://purl.org/dc/dcmitype/StillImage" />
      </cc:Work>
    </rdf:RDF>
  </metadata>
  <defs
     id="defs14" />
  <sodipodi:namedview
     pagecolor="#ffffff"
     bordercolor="#666666"
     borderopacity="1"
     objecttolerance="10"
     gridtolerance="10"
     guidetolerance="10"
     inkscape:pageopacity="0"
     inkscape:pageshadow="2"
     inkscape:window-width="640"
     inkscape:window-height="480"
     id="namedview12"
     showgrid="false"
     inkscape:zoom="0.27441406"
     inkscape:cx="512"
     inkscape:cy="512"
     inkscape:window-x="0"
     inkscape:window-y="25"
     inkscape:window-maximized="0"
     inkscape:current-layer="U601D" />
  <path
     style="fill:#782121;fill-opacity:1;fill-rule:nonzero;stroke:#f9f9f9;stroke-width:0.1;stroke-miterlimit:4;stroke-dasharray:none"
     d="M 556.71875 167.0625 C 549.21669 167.01884 541.7851 167.14875 534.59375 167.15625 C 486.56065 169.73325 438.67395 174.6845 391.03125 181.3125 C 353.16865 186.9595 315.13125 192.5585 278.09375 202.4375 C 268.81089 205.50343 271.90158 229.7535 279.5 251.46875 C 254.30656 243.3696 209.1637 242.95197 207.90625 256.28125 C 206.59045 296.39025 211.475 336.38025 216.9375 376.03125 C 223.5486 420.35025 233.919 464.086 253.25 504.625 C 256.4434 509.468 259.65045 514.31225 262.84375 519.15625 C 266.71172 524.51432 278.13118 521.49162 290.8125 514.71875 C 293.42157 540.03955 303.65429 569.96938 314.625 567.90625 C 346.6333 562.20825 379.30515 563.16225 411.65625 564.03125 C 450.89435 565.80225 490.1085 568.12325 529.3125 570.53125 C 543.8825 571.40125 537.16845 570.97975 549.46875 571.71875 C 568.17965 572.43875 571.586 484.25225 552.875 483.53125 C 541.3618 483.35525 547.7072 483.4905 533.875 483.0625 C 521.64556 482.54342 509.41347 481.99002 497.1875 481.40625 C 495.70653 473.61329 494.606 465.74713 494.21875 457.78125 C 493.6751 446.80422 493.38132 435.82247 493.34375 424.84375 C 505.61914 425.64625 517.89934 426.62885 530.15625 427.65625 C 548.73245 428.98725 554.98245 341.3935 536.40625 340.0625 C 523.9063 339.31368 511.41396 338.57597 498.90625 337.9375 C 498.93019 337.76113 498.94465 337.58261 498.96875 337.40625 C 502.96513 309.69002 507.28337 281.77255 516.4375 255.21875 C 523.87365 254.76134 531.30472 254.37508 538.75 254.0625 C 549.91625 254.12217 561.35132 253.6953 572.4375 255.59375 C 571.575 260.30243 573.02406 265.22356 573 270.03125 C 572.9349 282.94425 572.4423 288.2535 571.6875 301.6875 C 568.4773 341.9675 564.3171 382.16225 560.6875 422.40625 C 556.95711 439.49325 559.64468 458.17202 556.75 475.5 C 556.53513 476.07902 556.40268 476.66567 556.375 477.28125 C 556.36119 477.35348 556.35777 477.42782 556.34375 477.5 C 556.16231 495.3927 631.01102 527.20456 638.21875 510.6875 C 639.66505 506.1425 641.1162 501.6075 642.5625 497.0625 C 645.5809 474.7905 645.30175 452.227 647.59375 429.875 C 650.91575 388.903 655.05095 348.0095 658.65625 307.0625 C 661.28305 267.3025 665.20135 226.355 637.96875 193.625 C 632.53605 189.344 627.55505 184.39425 621.65625 180.78125 C 602.36182 168.96575 579.22492 167.19347 556.71875 167.0625 z M 556.34375 477.5 C 555.94265 479.27906 555.52607 481.06469 555.125 482.84375 C 555.6172 481.0865 555.9957 479.29186 556.34375 477.5 z M 574.71875 256 C 575.5047 256.159 576.28077 256.34544 577.0625 256.53125 C 582.1591 257.74325 584.55595 260.3265 577.53125 257.9375 C 580.11724 261.4954 577.06622 257.99366 574.71875 256 z M 423.1875 264.375 C 418.90557 284.48615 415.80845 304.85829 412.96875 325.21875 C 412.46252 329.03304 412.0057 332.86819 411.5625 336.6875 C 380.76075 337.31146 349.9568 338.49138 319.15625 339.4375 C 309.21077 339.83806 305.56314 364.92493 307.125 388.25 C 305.61564 380.24758 304.20391 372.23761 302.78125 364.3125 C 299.09803 337.02194 295.60658 309.49138 295.59375 281.90625 C 299.11856 285.6854 302.66949 287.52729 305.875 286.46875 C 337.9208 277.01675 371.1099 272.129 404.0625 267 C 410.42635 266.08763 416.81334 265.2125 423.1875 264.375 z M 314.4375 421.09375 C 316.72296 425.32659 319.5011 427.81709 322.71875 427.6875 C 350.61431 425.59339 378.5453 424.18285 406.5 423.46875 C 406.43936 436.13578 406.63549 448.80041 407.09375 461.46875 C 407.2629 466.70992 407.66495 471.93379 408.21875 477.125 C 383.37751 476.39832 358.46144 475.92431 333.65625 477.375 C 335.57826 473.47085 335.95091 470.06776 334.1875 467.625 C 333.3139 466.834 332.46735 466.04 331.59375 465.25 C 323.89839 451.32577 318.5668 436.41888 314.4375 421.09375 z M 904.4375 576.90625 C 881.21908 577.02409 828.03847 606.32177 834.9375 620.25 C 848.3885 644.923 864.0473 668.28175 879.875 691.46875 C 882.0368 694.61975 884.2132 697.75525 886.375 700.90625 C 897.0431 716.21125 969.1681 665.93 958.5 650.625 C 956.384 647.64 954.27235 644.6725 952.15625 641.6875 C 938.53415 622.1025 924.92575 602.376 914.21875 581 C 912.78688 578.10923 909.25642 576.88179 904.4375 576.90625 z M 271.15625 627.3125 C 266.99581 627.31341 263.91714 628.43656 262.5 631 C 242.2796 665.667 218.7597 698.308 196.0625 731.375 C 175.5657 755.524 161.3728 790.1385 138.75 812.3125 C 126.7897 826.7585 194.88345 883.16475 206.84375 868.71875 C 222.9766 847.65832 236.98448 825.03303 251.6875 802.9375 C 257.13147 814.48058 263.51981 825.65349 270.90625 836.5 C 304.63995 877.915 353.44935 890.522 404.03125 897.5 C 464.20995 903.401 524.41485 895.74025 583.96875 887.53125 C 636.87675 879.78325 689.58435 870.7265 742.21875 861.3125 C 767.05925 854.4985 799.4954 854.33675 820 836.21875 C 826.0998 830.82875 830.73295 823.96975 836.09375 817.84375 C 845.28179 802.864 779.76575 761.38832 763.28125 769.25 C 764.236 768.39163 765.19341 767.50436 766.15625 766.65625 C 754.0215 772.10145 738.13182 771.3067 726.375 775.875 C 675.1805 785.708 623.8395 794.854 572.25 802.375 C 520.4309 809.482 468.0646 816.42475 415.6875 811.59375 C 389.7756 808.17475 361.907 804.8305 342.25 785.8125 C 328.2688 767.9445 323.1893 746.21475 318.5 724.34375 C 317.68251 721.34638 314.63899 719.50227 310.1875 718.5625 C 320.30847 703.79142 330.26777 688.90141 339.8125 673.75 C 347.46506 659.90744 293.62263 627.30758 271.15625 627.3125 z M 766.15625 766.65625 C 768.30175 765.6935 770.32007 764.54359 772.1875 763.125 C 772.5748 762.831 771.143 762.61925 770.75 762.90625 C 769.14898 764.07391 767.64436 765.34545 766.15625 766.65625 z M 542.59375 645.375 C 521.71485 646.56434 470.64561 690.99388 481.03125 703.6875 C 502.97435 729.8305 527.297 753.72725 552.75 776.40625 C 557.2615 780.08125 561.76975 783.7635 566.28125 787.4375 C 580.75095 799.0675 635.56345 730.84875 621.09375 719.21875 C 617.61775 716.47375 614.13225 713.745 610.65625 711 C 588.57805 691.594 567.4022 671.115 549.4375 647.75 C 547.95383 645.93662 545.57645 645.20509 542.59375 645.375 z "
     id="path11167" />
</svg>
