<?xml version="1.0" encoding="utf-8" ?>

<!DOCTYPE svg PUBLIC "-//W3C//DTD SVG 1.1//EN" 
  "http://www.w3.org/Graphics/SVG/1.1/DTD/svg11.dtd">
<svg 
    xmlns="http://www.w3.org/2000/svg"
    xmlns:xlink="http://www.w3.org/1999/xlink"
    xmlns:sodipodi="http://sodipodi.sourceforge.net/DTD/sodipodi-0.dtd"
    xmlns:inkscape="http://www.inkscape.org/namespaces/inkscape"
    width="1024" height="1024" id="U6015">
<path d="m 8515.4861,36134.059 c -8.9298,45.235 -11.3211,91.465 -14.0903,137.394 -3.2856,69.238 -6.9462,138.45 -11.2467,207.631 -3.1384,43.345 -4.4978,86.774 -6.0868,130.192 0.3618,12.57 -2.62,23.787 -6.2603,35.662 -7.3119,17.342 -89.0632,-17.126 -81.7514,-34.468 l 0,0 c -3.6307,18.939 1.5538,-5.18 0.4076,-5.5 2.7326,-43.817 4.6604,-87.686 8.1061,-131.459 4.693,-68.904 8.5013,-137.853 11.2606,-206.863 2.6131,-50.088 5.1826,-100.314 13.0209,-149.917 3.6758,-18.38 90.3162,-1.051 86.6403,17.328 z" id="path9889" inkscape:connector-curvature="0" style="fill:#c83737;fill-opacity:1;fill-rule:nonzero;stroke:#f9f9f9;stroke-width:0.1;stroke-miterlimit:4;stroke-dasharray:none" transform="translate(-8192, -35840)"/><path d="m 8420.3864,36343.486 c -11.7495,25.025 -22.4586,50.508 -32.1171,76.407 -7.6509,21.41 -13.3248,43.472 -16.9279,65.91 -1.2022,2.19 -1.031,21.887 -1.0038,7.401 3.7151,18.441 -83.2211,35.954 -86.9361,17.512 l 0,0 c -1.6025,-13.579 -1.9207,-26.505 1.0892,-39.962 5.0618,-27.71 12.252,-54.999 21.8782,-81.492 10.2807,-27.418 21.6589,-54.371 32.9964,-81.364 7.5495,-17.187 88.5706,18.401 81.0211,35.588 z" id="path9919" inkscape:connector-curvature="0" style="fill:#c83737;fill-opacity:1;fill-rule:nonzero;stroke:#f9f9f9;stroke-width:0.1;stroke-miterlimit:4;stroke-dasharray:none" transform="translate(-8192, -35840)"/><path d="m 8550.2975,36332.029 c 11.7923,21.462 24.4814,42.419 37.0724,63.419 8.5905,14.007 17.2481,27.983 26.3757,41.648 10.1808,15.795 -64.2777,63.788 -74.4586,47.993 l 0,0 c -9.2569,-14.808 -18.3309,-29.731 -27.3451,-44.688 -12.7848,-21.581 -25.5929,-43.149 -38.5252,-64.642 -9.2766,-16.309 67.6042,-60.039 76.8808,-43.73 z" id="path9921" inkscape:connector-curvature="0" style="fill:#c83737;fill-opacity:1;fill-rule:nonzero;stroke:#f9f9f9;stroke-width:0.1;stroke-miterlimit:4;stroke-dasharray:none" transform="translate(-8192, -35840)"/><path d="m 8850.6118,36076.438 c -18.7962,21.94 -34.838,46.096 -51.0114,69.988 -18.6618,27.444 -36.7952,55.239 -54.9154,83.042 -10.266,15.52 -83.4298,-32.874 -73.1638,-48.395 l 0,0 c 18.6462,-27.778 37.0742,-55.703 55.8395,-83.402 18.3181,-27.219 36.5792,-54.571 57.1764,-80.143 12.4967,-14.016 78.5714,44.894 66.0747,58.91 z" id="path9930" inkscape:connector-curvature="0" style="fill:#c83737;fill-opacity:1;fill-rule:nonzero;stroke:#f9f9f9;stroke-width:0.1;stroke-miterlimit:4;stroke-dasharray:none" transform="translate(-8192, -35840)"/><path d="m 8692.6171,36227.081 c -3.073,32.688 -2.8169,65.605 -2.8187,98.406 0.1967,52.011 1.5956,104.006 3.7628,155.969 1.8045,44.264 6.6083,88.301 13.4464,132.047 2.5757,13.478 4.0144,27.335 8.4023,40.396 4.9559,18.08 -80.2745,41.443 -85.2304,23.362 l 0,0 c -4.1365,-16.766 -7.0138,-33.784 -9.3869,-50.889 -6.6971,-46.895 -11.6738,-94.025 -13.4925,-141.387 -2.128,-53.026 -3.6238,-106.077 -4.2154,-159.145 -0.2897,-35.953 -0.6669,-71.958 1.5081,-107.865 1.9317,-18.672 89.956,-9.566 88.0243,9.106 z" id="path9932" inkscape:connector-curvature="0" style="fill:#c83737;fill-opacity:1;fill-rule:nonzero;stroke:#f9f9f9;stroke-width:0.1;stroke-miterlimit:4;stroke-dasharray:none" transform="translate(-8192, -35840)"/><path d="m 8662.5776,36173.461 c 31.4278,-6.15 63.5114,-7.528 95.3939,-9.575 41.5021,-2.723 83.0303,-5 124.5821,-6.803 34.6839,-2.299 66.5052,-2.447 99.2303,10.112 40.2082,23.264 45.188,64.703 45.3547,107.045 -2.3001,50.351 -11.1488,100.1 -19.3895,149.737 -8.0617,47.534 -15.7699,95.125 -22.7926,142.824 -3.805,23.526 -5.7241,47.321 -9.4738,70.85 -0.6521,2.71 -1.3042,5.42 -1.9563,8.131 -5.1047,18.109 -90.4728,-5.955 -85.3681,-24.064 l 0,0 c 0.069,0.153 0.1371,0.307 0.2057,0.46 4.7317,-22.61 6.2452,-45.834 10.6052,-68.517 7.5922,-47.964 15.5099,-95.874 23.5923,-143.758 7.3795,-44.891 15.2595,-89.902 17.2717,-135.427 -0.011,-13.699 0.2944,-11.226 -0.6531,-23.08 -0.1578,-1.975 -1.7388,-6.229 0.2212,-5.94 2.3333,0.344 3.9396,3.142 6.676,2.344 -1.3314,-5.503 -53.1246,-4.27 -59.981,-3.713 -40.7762,1.548 -81.5221,3.761 -122.2217,6.717 -27.0518,1.938 -54.4066,3.008 -80.9737,8.828 -18.2796,4.311 -38.6028,-81.86 -20.3233,-86.171 z" id="path9934" inkscape:connector-curvature="0" style="fill:#c83737;fill-opacity:1;fill-rule:nonzero;stroke:#f9f9f9;stroke-width:0.1;stroke-miterlimit:4;stroke-dasharray:none" transform="translate(-8192, -35840)"/><path d="m 8715.3151,36363.179 c 36.7927,0.469 73.5463,-1.618 110.2545,-3.834 36.5532,-1.653 73.0454,-8.037 109.5308,-3.302 18.4233,3.284 2.941,90.133 -15.4823,86.849 l 0,0 c -5.022,-3.272 -21.4252,-1.201 -25.8167,-0.99 -20.9783,1.01 -41.9195,2.757 -62.8862,3.96 -38.0486,2.404 -76.108,4.584 -114.2185,5.74 -18.7574,0.293 -20.139,-88.13 -1.3816,-88.423 z" id="path9936" inkscape:connector-curvature="0" style="fill:#c83737;fill-opacity:1;fill-rule:nonzero;stroke:#f9f9f9;stroke-width:0.1;stroke-miterlimit:4;stroke-dasharray:none" transform="translate(-8192, -35840)"/><path d="m 8715.6154,36552.218 c 30.3139,11.112 62.8397,14.06 94.7494,17.1 37.3804,3.183 74.8991,3.422 112.3843,3.697 14.1152,0.07 7.4291,0.04 20.0585,0.09 18.7034,0.311 17.2347,88.48 -1.4686,88.168 l 0,0 c -12.6731,-0.376 -5.9635,-0.179 -20.129,-0.587 -39.6717,-1.101 -79.3787,-1.743 -118.951,-5.031 -41.1224,-3.811 -82.7121,-8.143 -121.7998,-22.309 -17.2102,-7.457 17.946,-88.587 35.1562,-81.129 z" id="path9938" inkscape:connector-curvature="0" style="fill:#c83737;fill-opacity:1;fill-rule:nonzero;stroke:#f9f9f9;stroke-width:0.1;stroke-miterlimit:4;stroke-dasharray:none" transform="translate(-8192, -35840)"/></svg>