<?xml version="1.0" encoding="UTF-8" standalone="no"?>
<svg
   xmlns:dc="http://purl.org/dc/elements/1.1/"
   xmlns:cc="http://creativecommons.org/ns#"
   xmlns:rdf="http://www.w3.org/1999/02/22-rdf-syntax-ns#"
   xmlns:svg="http://www.w3.org/2000/svg"
   xmlns="http://www.w3.org/2000/svg"
   xmlns:sodipodi="http://sodipodi.sourceforge.net/DTD/sodipodi-0.dtd"
   xmlns:inkscape="http://www.inkscape.org/namespaces/inkscape"
   width="1024"
   height="1024"
   id="U603B"
   version="1.1"
   inkscape:version="0.48.0 r9654"
   sodipodi:docname="U+603B.svg">
  <metadata
     id="metadata16">
    <rdf:RDF>
      <cc:Work
         rdf:about="">
        <dc:format>image/svg+xml</dc:format>
        <dc:type
           rdf:resource="http://purl.org/dc/dcmitype/StillImage" />
      </cc:Work>
    </rdf:RDF>
  </metadata>
  <defs
     id="defs14" />
  <sodipodi:namedview
     pagecolor="#ffffff"
     bordercolor="#666666"
     borderopacity="1"
     objecttolerance="10"
     gridtolerance="10"
     guidetolerance="10"
     inkscape:pageopacity="0"
     inkscape:pageshadow="2"
     inkscape:window-width="640"
     inkscape:window-height="480"
     id="namedview12"
     showgrid="false"
     inkscape:zoom="0.27441406"
     inkscape:cx="512"
     inkscape:cy="512"
     inkscape:window-x="0"
     inkscape:window-y="25"
     inkscape:window-maximized="0"
     inkscape:current-layer="U603B" />
  <path
     style="fill:#2b1100;fill-opacity:1;fill-rule:nonzero;stroke:none"
     d="M 592.6875 85.96875 C 591.09845 85.975511 589.70163 86.387734 588.5625 87.3125 C 565.268 107.2685 545.15685 130.545 524.78125 153.375 C 508.95555 170.977 516.90955 162.1385 500.96875 179.9375 C 494.10473 187.59623 511.12674 208.96845 529.71875 224.09375 C 493.13321 230.66378 456.87173 238.75744 420.625 246.96875 C 440.09078 229.10334 461.33662 195.35779 451.46875 187.625 C 441.92355 180.225 432.31605 172.8955 422.53125 165.8125 C 405.18305 153.0575 387.42485 140.398 373.65625 123.625 C 361.36345 109.441 294.48845 167.40975 306.78125 181.59375 C 325.42575 202.73075 347.8919 219.7555 370.4375 236.4375 C 378.11961 242.03593 385.65689 247.81099 393.125 253.6875 C 367.55425 260.38242 342.42115 268.62208 319.25 281.75 C 312.80351 285.6063 316.24099 300.07736 323.6875 315.4375 C 304.49942 304.49054 240.37532 307.83449 240.625 323.8125 C 241.9283 356.8925 242.56205 390.00975 243.71875 423.09375 C 244.03296 446.84219 247.0521 470.25093 251.9375 493.4375 C 245.01019 513.71849 263.81716 577.09097 279.5 573 C 316.8146 562.754 354.7998 555.348 392.8125 548.25 C 438.1383 539.647 483.96045 534.52825 530.03125 532.65625 C 552.09495 533.55625 575.71065 530.81725 597.21875 537.28125 C 608.31948 539.75737 619.76715 509.00093 622.96875 483.5 C 639.00602 486.46212 652.97918 485.89918 655 478.9375 C 655.9647 475.5005 656.9102 472.062 657.875 468.625 C 665.0626 440.576 672.3198 412.53975 678.375 384.21875 C 684.5465 353.77675 690.96105 322.652 686.65625 291.5 C 677.72625 256.628 661.27715 235.283 625.90625 224.5 C 611.56728 221.36066 597.13166 219.79491 582.6875 219.53125 C 584.45728 217.57037 585.04338 216.90715 589.78125 211.65625 C 607.14195 192.38225 624.1204 172.4045 644.375 156.0625 C 657.81686 145.15119 611.43825 85.888973 592.6875 85.96875 z M 579.09375 306.78125 C 587.90488 306.67307 596.64138 307.50019 605.09375 310.15625 C 609.61555 313.75025 601.2385 309.865 600.375 309.875 C 600.0841 329.143 596.3152 348.13675 592.5625 366.96875 C 586.97578 393.53071 580.01523 419.78021 572.90625 445.96875 C 557.30905 445.19727 541.6605 445.33808 526.0625 445.8125 C 476.0882 448.3295 426.37235 454.0185 377.15625 463.1875 C 363.66217 465.6354 350.18169 468.14787 336.71875 470.75 C 332.84916 454.11342 331.17987 437.14483 330.78125 420.03125 C 329.67571 388.53397 329.04869 357.01795 329.0625 325.5 C 340.47964 345.04388 356.41084 362.55744 364.65625 357.625 C 386.70245 344.493 411.85085 338.74975 436.53125 332.84375 C 472.64535 324.48675 508.74555 316.21025 545.28125 309.90625 C 556.33077 308.58831 567.76516 306.92034 579.09375 306.78125 z M 789.375 614.09375 C 768.42003 614.20749 715.04285 656.0425 724.78125 669.28125 C 740.20545 688.81425 757.0991 707.096 773.125 726.125 C 782.464 737.276 790.74605 749.2095 798.78125 761.3125 C 809.22475 776.7865 882.1935 727.56875 871.75 712.09375 C 861.7924 697.53675 851.56275 683.152 840.21875 669.625 C 825.44415 652.083 809.80615 635.2165 796.09375 616.8125 C 794.70255 614.92137 792.36857 614.0775 789.375 614.09375 z M 539.1875 619.34375 C 519.0637 620.29439 469.08548 669.54755 480.5 681.75 C 499.7259 701.951 518.3729 722.68725 537.3125 743.15625 C 540.6468 746.71925 543.9782 750.28175 547.3125 753.84375 C 560.042 767.38775 623.88575 707.38675 611.15625 693.84375 L 601.53125 683.625 C 582.45395 663.106 563.56145 642.41575 545.09375 621.34375 C 543.69197 619.84531 541.65884 619.227 539.1875 619.34375 z M 343.34375 684.25 C 325.94959 684.2812 311.019 687.62066 310.40625 695.21875 C 308.41855 724.40775 307.28815 753.59575 308.15625 782.84375 C 309.60525 822.29175 322.4913 850.51075 350.6875 877.71875 C 379.7755 900.93375 415.36475 907.13075 451.40625 909.84375 C 489.58455 911.78875 527.42845 905.96975 565.03125 900.21875 C 597.77345 894.13575 630.9359 891.05225 664 887.40625 C 691.3199 884.85425 717.91225 878.81275 743.15625 868.09375 C 756.88635 860.57575 750.33765 864.73125 762.84375 855.65625 C 777.52425 843.93225 722.243 774.74375 707.5625 786.46875 C 709.3274 786.09075 709.0493 785.9485 707.375 787.4375 C 690.7718 795.5405 672.34445 798.19425 654.15625 800.40625 C 619.99885 804.37725 585.75385 807.77725 551.90625 814.03125 C 520.73585 818.76525 489.36665 823.842 457.71875 822.5 C 441.34955 821.386 424.4455 820.13125 409.625 812.40625 C 398.2705 805.14325 396.4852 792.755 395.6875 779.875 C 394.6702 753.983 395.8545 728.11375 398.5625 702.34375 C 399.45805 691.23884 368.76599 684.2044 343.34375 684.25 z M 214.75 691.71875 C 208.50572 691.77017 204.00967 693.341 202.65625 696.90625 C 193.33415 723.83525 182.46625 750.17325 171.96875 776.65625 C 160.40795 805.18625 150.5425 834.35375 142.625 864.09375 C 139.7049 874.23675 138.9096 884.5935 138.4375 895.0625 C 138.232 913.8445 226.76325 914.81325 226.96875 896.03125 C 226.87585 892.76325 226.6824 889.313 227.9375 885.875 C 234.2929 859.62 242.85925 833.97575 253.09375 808.96875 C 263.86305 782.07575 274.84685 755.2895 285.40625 728.3125 C 290.71591 714.32575 239.24681 691.51704 214.75 691.71875 z "
     id="path15723" />
</svg>
