<?xml version="1.0" encoding="utf-8" ?>

<!DOCTYPE svg PUBLIC "-//W3C//DTD SVG 1.1//EN" 
  "http://www.w3.org/Graphics/SVG/1.1/DTD/svg11.dtd">
<svg 
	xmlns="http://www.w3.org/2000/svg"
	xmlns:xlink="http://www.w3.org/1999/xlink"
	width="1024" height="1024">
<path d="m 11553.412,2251.2575 c -6.97,40.4241 -8.948,81.5316 -11.897,122.3909 -5.486,78.893 -14.073,157.5183 -22.672,236.1183 -7.956,68.5247 -14.884,137.1703 -17.783,206.1089 -1.07,35.309 -0.178,70.7381 4.192,105.8118 0.393,2.06 0.785,4.12 1.178,6.18 0.188,0.2166 0.664,0.9188 0.565,0.6497 -15.409,-41.7067 -6.455,-13.3285 -94.956,-0.8411 3.479,-20.771 101.395,-4.3688 97.915,16.4022 l 0,0 c -86.333,23.9798 -94.246,53.4139 -102.857,-12.0176 -3.658,-40.1664 -4.659,-80.5552 -2.784,-120.8557 3.83,-70.8505 11.379,-141.3888 19.702,-211.8407 8.492,-77.2067 16.692,-154.4793 21.114,-232.0482 2.626,-44.331 4.58,-88.7791 10.381,-132.8416 3.561,-20.768 101.462,-3.9849 97.902,16.7831 z" id="path3957" inkscape:connector-curvature="0" style="fill:#aa0000;fill-opacity:1;fill-rule:nonzero;stroke:#f9f9f9;stroke-width:0.1;stroke-miterlimit:4;stroke-dasharray:none" transform="translate(-11264, -2048)"/><path d="m 11439.161,2534.5849 c -13.219,30.2356 -29.268,59.1172 -45.121,88.0232 -2.77,5.1001 -5.571,10.1836 -8.31,15.3004 -6.202,11.5879 -12.821,23.3232 -17.404,35.6901 -2.457,6.6304 -3.18,6.7698 -0.608,5.1384 -3.156,20.7885 -101.154,5.9117 -97.998,-14.8768 l 0,0 c 6.662,-31.9832 22.208,-60.1537 38.374,-88.3428 13.775,-25.167 27.931,-50.3089 38.531,-77.0215 7.656,-19.6299 100.192,16.4591 92.536,36.089 z" id="path3959" inkscape:connector-curvature="0" style="fill:#aa0000;fill-opacity:1;fill-rule:nonzero;stroke:#f9f9f9;stroke-width:0.1;stroke-miterlimit:4;stroke-dasharray:none" transform="translate(-11264, -2048)"/><path d="m 11601.916,2523.0825 c 7.943,23.0326 20.547,44.1397 32.827,65.0666 12.073,20.1084 24.249,40.1854 37.21,59.7386 0.969,1.3266 1.938,2.6532 2.907,3.9799 12.001,17.303 -69.566,73.8785 -81.567,56.5755 l 0,0 c -1.549,-2.3034 -3.098,-4.6068 -4.647,-6.9101 -13.228,-21.0355 -25.958,-42.3894 -38.697,-63.7227 -15.919,-27.2263 -31.729,-54.7567 -42.646,-84.4517 -6.422,-20.0704 88.191,-50.3465 94.613,-30.2761 z" id="path3961" inkscape:connector-curvature="0" style="fill:#aa0000;fill-opacity:1;fill-rule:nonzero;stroke:#f9f9f9;stroke-width:0.1;stroke-miterlimit:4;stroke-dasharray:none" transform="translate(-11264, -2048)"/><path d="m 11746.341,2212.3097 c 31.487,2.1969 62.863,5.7548 94.29,8.6785 32.285,2.6148 64.535,5.585 96.582,10.3361 20.345,3.1371 40.282,8.2732 59.017,16.8297 45.603,28.4549 36.539,67.627 6.054,101.7067 -26.86,27.2708 -53.812,54.456 -80.762,81.6408 -47.319,47.42 -95.132,94.3435 -142.94,141.2691 -38.747,38.4898 -78.305,76.1456 -117.986,113.6666 -17.303,12.6717 -31.116,36.4262 -52.509,43.4074 -8.534,2.7851 -17.575,3.6754 -26.362,5.5131 -21.139,-0.2825 -19.807,-99.9314 1.332,-99.6489 l 0,0 c -6.725,1.8653 -13.572,3.3358 -20.175,5.596 -0.955,0.3271 -3.195,2.3123 -2.215,2.0681 11.48,-2.8602 23.079,-23.6142 33.381,-28.5767 39.719,-36.2331 78.963,-72.9862 117.203,-110.7846 47.418,-46.3245 94.697,-92.801 140.912,-140.331 25.586,-26.5305 51.078,-53.1527 76.398,-79.9363 1.158,-1.2839 2.114,-2.7849 3.475,-3.8517 0.398,-0.3117 -0.29,0.9681 -0.419,1.4564 -1.112,4.187 -3.434,8.2389 -3.305,12.5691 0.561,18.8553 6.225,34.9633 23.992,43.5203 -8.864,-4.9351 -20.179,-6.4457 -30.181,-8.6892 -29.975,-4.8823 -60.214,-7.6741 -90.472,-10.1582 -29.026,-2.6409 -58.05,-5.9428 -87.184,-6.9664 -21.068,-0.3975 -19.194,-99.7124 1.874,-99.3149 z" id="path3963" inkscape:connector-curvature="0" style="fill:#aa0000;fill-opacity:1;fill-rule:nonzero;stroke:#f9f9f9;stroke-width:0.1;stroke-miterlimit:4;stroke-dasharray:none" transform="translate(-11264, -2048)"/><path d="m 11726.803,2296.4349 c 17.24,31.7037 38.593,60.6943 61.822,88.2017 31.87,36.3775 70.173,65.9386 109.631,93.5206 32.834,22.0852 67.181,41.7646 101.018,62.2431 16.207,9.8805 32.221,20.0734 48.26,30.224 1.31,0.6467 14.106,9.2493 5.903,3.7069 18.332,10.6453 -31.85,97.0672 -50.183,86.4219 l 0,0 c -3.412,-2.2248 -6.686,-4.5854 -10.053,-6.8804 -15.011,-10.1085 -30.098,-20.1078 -45.412,-29.7513 -35.229,-22.0196 -71.103,-43.0344 -105.421,-66.4833 -46.072,-32.5655 -90.694,-67.5157 -128.041,-110.1249 -26.91,-31.741 -51.588,-65.1067 -73.019,-100.8311 -10.659,-18.1363 74.836,-68.3835 85.495,-50.2472 z" id="path3965" inkscape:connector-curvature="0" style="fill:#aa0000;fill-opacity:1;fill-rule:nonzero;stroke:#f9f9f9;stroke-width:0.1;stroke-miterlimit:4;stroke-dasharray:none" transform="translate(-11264, -2048)"/><path d="m 11658.342,2685.7056 c 36.74,-0.5484 73.477,0.037 110.212,0.6961 41.804,0.8024 83.579,2.5457 125.357,4.1668 10.872,0.421 21.732,0.9114 32.612,0.9445 21.005,0.5204 18.551,99.5376 -2.453,99.0172 l 0,0 c -11.589,-0.4797 -23.161,-1.1837 -34.739,-1.8803 -40.729,-2.2264 -81.476,-4.1578 -122.266,-4.7714 -35.117,-0.4406 -70.278,-0.9802 -105.36,1.0269 -21.044,0.7133 -24.407,-98.4864 -3.363,-99.1998 z" id="path3967" inkscape:connector-curvature="0" style="fill:#aa0000;fill-opacity:1;fill-rule:nonzero;stroke:#f9f9f9;stroke-width:0.1;stroke-miterlimit:4;stroke-dasharray:none" transform="translate(-11264, -2048)"/><path d="m 11865.182,2632.5143 c -7.493,24.575 -7.212,50.7827 -7.997,76.2294 -0.763,42.7653 -1.166,85.5365 -1.686,128.3054 -0.279,19.1809 -0.543,38.3618 -0.76,57.5435 -0.484,20.9522 -99.254,18.6721 -98.77,-2.2802 l 0,0 c 0.662,-18.9575 1.257,-37.9172 1.695,-56.8814 0.903,-43.1132 1.383,-86.2304 1.812,-129.3507 0.88,-36.642 1.365,-73.9197 12.912,-109.1041 7.539,-19.6846 100.333,15.8535 92.794,35.5381 z" id="path3969" inkscape:connector-curvature="0" style="fill:#aa0000;fill-opacity:1;fill-rule:nonzero;stroke:#f9f9f9;stroke-width:0.1;stroke-miterlimit:4;stroke-dasharray:none" transform="translate(-11264, -2048)"/><path d="m 11607.368,2872.3362 c 38.608,4.8425 77.575,6.0369 116.436,7.0567 60.671,1.2893 121.322,-1.4755 181.897,-4.5776 50.644,-2.7314 101.332,-4.7334 152.003,-1.9573 27.921,1.8643 55.48,7.0555 81.632,17.0387 19.51,7.9471 -17.953,99.9192 -37.463,91.9721 l 0,0 c -15.53,-7.5951 -33.432,-9.0923 -50.297,-11.3068 -46.989,-3.4032 -94.075,-1.4156 -141.088,0.7682 -62.874,3.0194 -125.804,5.8049 -188.769,4.9785 -42.257,-0.7197 -84.536,-1.8945 -126.666,-5.4498 -20.9,-2.6125 -8.584,-101.1352 12.315,-98.5227 z" id="path3971" inkscape:connector-curvature="0" style="fill:#aa0000;fill-opacity:1;fill-rule:nonzero;stroke:#f9f9f9;stroke-width:0.1;stroke-miterlimit:4;stroke-dasharray:none" transform="translate(-11264, -2048)"/></svg>