<?xml version="1.0" encoding="utf-8" ?>

<!DOCTYPE svg PUBLIC "-//W3C//DTD SVG 1.1//EN" 
  "http://www.w3.org/Graphics/SVG/1.1/DTD/svg11.dtd">
<svg 
    xmlns="http://www.w3.org/2000/svg"
    xmlns:xlink="http://www.w3.org/1999/xlink"
    xmlns:sodipodi="http://sodipodi.sourceforge.net/DTD/sodipodi-0.dtd"
    xmlns:inkscape="http://www.inkscape.org/namespaces/inkscape"
    width="1024" height="1024" id="U610F">
<path d="m 7658.3595,58384.354 c 19.573,18.535 38.7225,37.496 57.5632,56.773 11.7832,11.848 22.732,24.424 32.9428,37.636 11.244,14.945 -59.207,67.949 -70.451,53.004 l 0,0 c -7.5634,-10.552 -16.3323,-20.125 -25.3167,-29.485 -17.5107,-18.067 -35.2849,-35.909 -54.2577,-52.456 -13.8885,-12.626 45.6308,-78.097 59.5194,-65.472 z" id="path12136" inkscape:connector-curvature="0" style="fill:#2b1100;fill-opacity:1;fill-rule:nonzero;stroke:none" transform="translate(-7168, -58368)"/><path d="m 7452.0232,58538.476 c 39.2956,-8.821 79.1684,-14.542 119.0682,-19.786 60.9812,-7.638 122.2978,-11.974 183.6546,-15.092 44.8262,-1.895 89.7141,-2.437 134.5425,-0.477 12.4029,0.576 24.6798,2.092 36.9265,4.032 18.4327,3.276 2.9885,90.168 -15.4441,86.892 l 0,0 c -8.6001,-1.861 -17.3218,-2.794 -26.0889,-3.545 -41.8637,-2.637 -83.8405,-2.409 -125.7497,-0.914 -58.8871,2.736 -117.7453,6.772 -176.2012,14.623 -36.4799,5.147 -73.0502,10.515 -108.71,19.983 -18.1831,4.666 -40.1811,-81.05 -21.9979,-85.716 z" id="path12138" inkscape:connector-curvature="0" style="fill:#2b1100;fill-opacity:1;fill-rule:nonzero;stroke:none" transform="translate(-7168, -58368)"/><path d="m 7589.1729,58603.366 c 12.9577,20.745 27.7627,40.198 43.2884,59.063 10.0788,11.375 5.0555,5.935 15.0369,16.351 12.7881,13.554 -51.1092,73.838 -63.8973,60.283 l 0,0 c -12.7116,-13.636 -6.3797,-6.605 -18.9732,-21.113 -17.2456,-21.17 -33.6704,-42.952 -49.1076,-65.482 -10.416,-15.624 63.2367,-64.726 73.6528,-49.102 z" id="path12140" inkscape:connector-curvature="0" style="fill:#2b1100;fill-opacity:1;fill-rule:nonzero;stroke:none" transform="translate(-7168, -58368)"/><path d="m 7815.1196,58634.597 c -17.1078,15.127 -32.5656,32.014 -47.7646,49.022 -11.9456,13.764 -23.6395,27.744 -35.4364,41.635 -12.0716,14.16 -78.8203,-42.746 -66.7487,-56.905 l 0,0 c 12.2833,-14.351 24.4236,-28.824 36.7912,-43.102 17.6301,-19.77 35.6778,-39.199 54.986,-57.354 14.1501,-12.34 72.3227,54.364 58.1725,66.704 z" id="path12142" inkscape:connector-curvature="0" style="fill:#2b1100;fill-opacity:1;fill-rule:nonzero;stroke:none" transform="translate(-7168, -58368)"/><path d="m 7385.3552,58731.068 c 40.7962,-10.363 82.4629,-16.572 124.071,-22.591 64.8336,-8.789 129.8378,-16.276 194.8383,-23.712 50.6445,-5.766 101.3784,-10.831 152.2364,-14.28 17.2618,-1.194 34.5654,-1.267 51.85,-0.734 18.7014,0.845 14.716,89.005 -3.9855,88.159 l 0,0 c -14.1986,-0.925 -28.4397,-1.081 -42.6567,-0.377 -49.3904,2.531 -98.6624,6.977 -147.8157,12.398 -63.9982,7.149 -127.9811,14.582 -191.7141,23.838 -37.6913,5.828 -75.5863,11.539 -112.2738,22.228 -18.0163,5.208 -42.5662,-79.721 -24.5499,-84.929 z" id="path12144" inkscape:connector-curvature="0" style="fill:#2b1100;fill-opacity:1;fill-rule:nonzero;stroke:none" transform="translate(-7168, -58368)"/><path d="m 7542.5931,58862.914 c -0.2261,26.311 4.9383,52.133 11.3081,77.522 7.0502,26.468 19.3615,50.898 33.6679,74.093 3.4159,5.664 7.8809,11.482 12.6961,15.474 14.0289,12.487 -44.8336,78.619 -58.8625,66.133 l 0,0 c -11.2612,-10.815 -21.1157,-22.707 -28.986,-36.278 -18.3255,-30.912 -34.1068,-63.341 -43.1595,-98.296 -7.9785,-32.103 -14.1994,-64.645 -15.2102,-97.813 -0.1772,-18.783 88.3689,-19.618 88.5461,-0.835 z" id="path12267" inkscape:connector-curvature="0" style="fill:#2b1100;fill-opacity:1;fill-rule:nonzero;stroke:none" transform="translate(-7168, -58368)"/><path d="m 7516.7302,58807.599 c 30.2853,-10.413 61.977,-15.799 93.361,-21.732 37.6533,-7.674 75.8803,-11.262 114.1773,-13.593 38.2221,-2.112 66.4488,-1.805 101.8616,14.058 38.5704,24.497 44.4204,64.739 43.9911,106.867 -2.1265,35.455 -6.4099,70.726 -9.028,106.146 -1.4028,19.476 -1.1955,39.014 -0.1411,58.497 1.2822,8.805 -0.4129,17.077 -1.8537,25.761 -4.4992,18.275 -90.6457,-2.935 -86.1465,-21.209 l 0,0 c -0.7079,11.713 0.109,2.4 -0.3512,-0.893 -0.717,-22.967 -0.446,-45.972 1.3219,-68.891 2.6958,-33.536 6.6766,-66.963 8.6992,-100.55 0.013,-0.751 -0.2931,-26.726 0.1076,-26.988 1.0193,-0.666 2.6559,1.101 3.6479,-0.194 -7.5004,-10.299 -45.8461,-4.367 -56.983,-5.476 -34.5281,1.955 -68.9927,5.091 -102.9029,12.197 -25.7813,4.992 -51.9716,9.254 -76.777,18.094 -17.4147,6.997 -50.399,-75.097 -32.9842,-82.094 z" id="path12269" inkscape:connector-curvature="0" style="fill:#2b1100;fill-opacity:1;fill-rule:nonzero;stroke:none" transform="translate(-7168, -58368)"/><path d="m 7543.0569,58915.618 c 29.4584,-13.024 61.3274,-18.249 92.9424,-22.979 33.0822,-5.275 66.474,-7.675 99.9437,-8.106 13.5614,-0.313 27.1177,0.122 40.6754,0.332 18.7264,0.473 16.4974,88.749 -2.229,88.277 l 0,0 c -12.6089,-0.433 -25.2147,-1.054 -37.8367,-0.88 -29.3221,-0 -58.574,2.032 -87.5379,6.765 -23.1491,3.515 -46.8877,6.692 -68.3022,16.71 -16.9957,7.988 -54.6513,-72.131 -37.6557,-80.119 z" id="path12272" inkscape:connector-curvature="0" style="fill:#2b1100;fill-opacity:1;fill-rule:nonzero;stroke:none" transform="translate(-7168, -58368)"/><path d="m 7551.9522,59030.274 c 30.7199,-15.334 63.8867,-24.47 97.0057,-32.924 33.1935,-8.523 66.862,-14.921 100.8254,-19.402 15.3524,-1.749 8.025,-0.961 21.9796,-2.388 18.617,-1.712 26.6869,86.049 8.0699,87.761 l 0,0 c -12.2641,0.985 -5.8647,0.427 -19.1961,1.7 -30.3774,3.522 -60.4408,9.207 -90.0617,16.84 -26.1262,6.698 -52.5974,13.495 -76.5663,26.217 -16.5048,8.922 -58.5613,-68.883 -42.0565,-77.804 z" id="path12278" inkscape:connector-curvature="0" style="fill:#2b1100;fill-opacity:1;fill-rule:nonzero;stroke:none" transform="translate(-7168, -58368)"/><path d="m 7473.2327,59183.152 c -16.121,10.026 -29.3776,23.73 -41.7511,37.953 -13.027,16.061 -24.5274,33.275 -36.4108,50.179 -4.3786,6.302 -8.8371,12.539 -13.4219,18.691 -11.3832,14.927 -81.7483,-38.734 -70.3651,-53.661 l 0,0 c 4.1368,-5.239 8.0524,-10.638 11.9467,-16.06 13.823,-19.246 27.0328,-38.984 42.3198,-57.127 18.4763,-20.849 38.4275,-40.477 61.88,-55.757 16.0758,-9.717 61.8782,66.066 45.8024,75.782 z" id="path12308" inkscape:connector-curvature="0" style="fill:#2b1100;fill-opacity:1;fill-rule:nonzero;stroke:none" transform="translate(-7168, -58368)"/><path d="m 7506.8692,59172.645 c 3.6522,14.267 8.4122,28.719 20.2384,38.165 17.9218,10.466 39.4196,12.084 59.6443,13.87 41.0139,2.468 81.979,-1.902 122.6629,-6.631 44.0814,-5.708 88.0521,-12.222 132.0202,-18.734 31.8477,-4.698 63.8239,-8.519 95.3022,-15.363 12.527,-5.381 31.2347,-4.921 41.8887,-14.443 16.4162,-9.11 59.3588,68.277 42.9426,77.386 l 0,0 c -21.014,10.829 -43.6922,17.659 -66.7223,22.827 -33.3722,6.876 -67.1542,11.071 -100.8987,15.678 -44.808,6.391 -89.6065,12.86 -134.4876,18.721 -46.6165,5.461 -93.5529,10.346 -140.5476,7.379 -40.6366,-3.727 -81.3324,-10.337 -113.3126,-37.928 -21.5341,-22.311 -36.6054,-47.777 -44.2067,-78.085 -4.8457,-18.132 80.6305,-40.975 85.4762,-22.842 z" id="path12310" inkscape:connector-curvature="0" style="fill:#2b1100;fill-opacity:1;fill-rule:nonzero;stroke:none" transform="translate(-7168, -58368)"/><path d="m 7743.5908,59087.034 c 20.1213,15.996 42.388,28.902 64.9847,41.016 17.8852,8.675 8.8868,4.493 26.9941,12.548 16.9232,7.582 -18.82,87.359 -35.7432,79.776 l 0,0 c -21.6835,-9.774 -10.8393,-4.676 -32.525,-15.309 -26.6209,-14.263 -52.6814,-29.556 -77.0973,-47.397 -14.984,-11.325 38.4028,-81.959 53.3867,-70.634 z" id="path12327" inkscape:connector-curvature="0" style="fill:#2b1100;fill-opacity:1;fill-rule:nonzero;stroke:none" transform="translate(-7168, -58368)"/><path d="m 8102.7479,59038.536 c 11.1044,17.316 24.5053,32.973 37.8287,48.587 12.0481,14.15 -54.6519,70.945 -66.7,56.796 l 0,0 c -15.3581,-18.071 -30.6144,-36.26 -44.2854,-55.665 -10.5469,-15.519 62.6099,-65.237 73.1567,-49.718 z" id="path12329" inkscape:connector-curvature="0" style="fill:#2b1100;fill-opacity:1;fill-rule:nonzero;stroke:none" transform="translate(-7168, -58368)"/></svg>