<?xml version="1.0" encoding="UTF-8" standalone="no"?>
<svg
   xmlns:dc="http://purl.org/dc/elements/1.1/"
   xmlns:cc="http://creativecommons.org/ns#"
   xmlns:rdf="http://www.w3.org/1999/02/22-rdf-syntax-ns#"
   xmlns:svg="http://www.w3.org/2000/svg"
   xmlns="http://www.w3.org/2000/svg"
   xmlns:sodipodi="http://sodipodi.sourceforge.net/DTD/sodipodi-0.dtd"
   xmlns:inkscape="http://www.inkscape.org/namespaces/inkscape"
   width="1024"
   height="1024"
   id="U6162"
   version="1.1"
   inkscape:version="0.48.0 r9654"
   sodipodi:docname="U+6162.svg">
  <metadata
     id="metadata21">
    <rdf:RDF>
      <cc:Work
         rdf:about="">
        <dc:format>image/svg+xml</dc:format>
        <dc:type
           rdf:resource="http://purl.org/dc/dcmitype/StillImage" />
      </cc:Work>
    </rdf:RDF>
  </metadata>
  <defs
     id="defs19" />
  <sodipodi:namedview
     pagecolor="#ffffff"
     bordercolor="#666666"
     borderopacity="1"
     objecttolerance="10"
     gridtolerance="10"
     guidetolerance="10"
     inkscape:pageopacity="0"
     inkscape:pageshadow="2"
     inkscape:window-width="640"
     inkscape:window-height="480"
     id="namedview17"
     showgrid="false"
     inkscape:zoom="0.27441406"
     inkscape:cx="512"
     inkscape:cy="512"
     inkscape:window-x="0"
     inkscape:window-y="25"
     inkscape:window-maximized="0"
     inkscape:current-layer="U6162" />
  <path
     style="fill:#c83737;fill-opacity:1;fill-rule:nonzero;stroke:#f9f9f9;stroke-width:0.1;stroke-miterlimit:4;stroke-dasharray:none"
     d="M 659.5 84.125 C 625.80206 84.317632 592.15503 86.429438 558.84375 92.0625 C 524.18365 97.8505 489.3417 103.5915 455.6875 113.9375 C 452.43351 115.10345 450.80918 118.903 450.40625 124.25 C 442.43439 125.51861 436.92576 128.20017 436.3125 132.65625 C 433.0479 165.83425 436.79215 199.0915 441.40625 231.9375 C 446.37465 267.1905 456.18825 301.3345 469.71875 334.1875 C 472.63779 341.84575 476.26926 348.6894 480.5625 355 C 477.98143 379.6266 494.58067 432.24401 508.9375 428.59375 C 536.2517 421.38675 564.297 417.62325 592.3125 414.40625 C 622.6712 411.45625 653.21355 410.4875 683.65625 412.4375 C 696.83045 414.6215 710.88335 414.575 723.65625 418.875 C 728.24068 420.05117 733.07228 415.49406 737.4375 407.9375 C 750.02831 420.63652 763.34505 429.24527 769.28125 424.1875 C 772.14875 421.1985 775.0075 418.20875 777.875 415.21875 C 786.2101 402.03175 792.06645 388.05525 795.09375 372.65625 C 798.75805 355.25925 801.4067 337.69025 804.3125 320.15625 C 808.3579 298.50525 813.41995 277.0295 820.21875 256.0625 C 827.72315 233.0805 836.07945 210.30625 841.28125 186.65625 C 846.46945 157.89425 842.4445 129.33525 814.25 113.78125 C 800.1634 106.75025 785.2799 101.60775 770.25 96.96875 C 741.6862 89.34375 712.45875 84.79825 682.84375 84.28125 C 675.06507 84.139688 667.27645 84.080546 659.5 84.125 z M 653.90625 171.3125 C 662.89766 171.24214 671.91098 171.355 680.90625 171.59375 C 703.21475 172.24875 725.2889 175.592 746.6875 181.875 C 748.11584 182.51908 749.59569 183.0894 751.09375 183.625 C 748.98257 191.30287 746.60008 198.8923 744.125 206.46875 C 735.58574 205.01435 727.03854 203.52648 718.5 202.0625 C 686.195 197.4455 653.6138 194.1855 620.9375 196.4375 C 589.13323 198.99449 557.54713 203.6554 526.875 212.53125 C 525.71642 204.05094 524.64457 195.54499 523.90625 187 C 540.29774 183.48443 556.85575 180.72782 573.34375 177.90625 C 600.01488 173.32525 626.93202 171.52358 653.90625 171.3125 z M 768.75 189.875 C 770.26318 190.59755 771.72962 191.4133 773.125 192.34375 C 771.54182 191.66675 770.09665 190.83305 768.75 189.875 z M 238.375 221.9375 C 214.94432 221.93599 190.11023 227.27738 190.375 237.25 C 191.8451 272.872 192.4678 308.5445 193.1875 344.1875 C 194.15742 386.22674 194.79568 428.26657 195.28125 470.3125 C 176.16016 455.76117 151.72845 444.35191 145.84375 452.78125 C 125.46735 484.96125 109.1754 519.4635 93.6875 554.1875 C 77.4424 591.0645 63.7921 629.0165 52.9375 667.8125 C 50.6129 680.4135 45.1899 694.98625 48.375 708.03125 C 50.3733 716.21625 54.35415 723.77925 57.34375 731.65625 C 66.97 746.44437 132.90979 704.81993 132.65625 686.5625 C 133.73441 690.1355 134.89141 693.70087 135.8125 697.3125 C 135.86987 695.21132 136.30661 692.80055 137.59375 690.625 C 146.46625 656.045 158.5266 622.3505 172.9375 589.6875 C 180.26661 573.4145 187.78305 557.1541 196.0625 541.3125 C 196.48842 592.0811 195.54237 642.82845 193.59375 693.5625 C 191.77815 735.4985 188.9841 777.44475 192.5625 819.34375 C 195.9898 839.58375 199.9394 863.65475 215.9375 878.46875 C 220.3025 882.51075 225.5246 885.5315 230.3125 889.0625 C 246.18442 897.39667 284.29756 826.62651 273.625 812.15625 C 288.45986 825.25568 283.9626 829.40512 279.875 810.8125 C 275.458 772.9265 279.00005 734.71575 279.84375 696.71875 C 281.88365 637.92175 282.86435 579.11425 281.84375 520.28125 C 281.27695 461.13625 280.5824 401.98575 279.75 342.84375 C 279.367 306.86975 278.92575 270.88125 278.84375 234.90625 C 278.61013 226.10687 259.04913 221.93883 238.375 221.9375 z M 642.375 283.09375 C 663.57887 283.12242 684.69944 285.74963 705.65625 288.96875 C 710.53512 289.87119 715.40327 290.81178 720.28125 291.71875 C 719.44932 295.71382 718.64805 299.71187 717.875 303.71875 C 716.46041 311.62263 715.17285 319.52759 713.8125 327.4375 C 705.38773 326.37532 696.91943 325.55513 688.46875 324.84375 C 653.10695 323.14775 617.6752 324.1795 582.4375 327.6875 C 571.93978 328.87201 561.46712 330.16231 551 331.59375 C 555.67252 321.89817 557.83203 313.29386 555.375 308.75 C 555.7439 309.17669 556.24856 309.73251 556.53125 310.0625 C 554.24296 307.18054 550.48347 302.09828 550.59375 300.09375 C 550.25952 299.32671 549.92156 298.55057 549.59375 297.78125 C 574.79341 289.18496 601.22366 285.47969 627.6875 283.53125 C 632.59196 283.235 637.4818 283.08713 642.375 283.09375 z M 848.9375 431.875 C 839.44109 431.93978 829.9786 432.501 820.46875 432.75 C 798.89275 433.082 777.28095 433.044 755.71875 434 C 723.32925 435.577 690.99945 438.039 658.71875 441.125 C 622.70245 444.625 586.7404 448.4805 550.875 453.3125 C 522.8542 457.2435 494.7374 461.61875 467.875 470.84375 C 461.72913 473.09534 461.45015 484.66268 464.40625 498.5 C 440.55934 499.88835 414.92781 507.02703 415.90625 517.1875 C 417.27306 529.36035 418.82879 541.49673 420.5 553.625 C 419.49343 552.47484 418.47212 551.34051 417.46875 550.1875 C 402.59895 532.5125 388.22415 514.37525 375.03125 495.40625 C 364.57295 479.80525 291.01045 529.11675 301.46875 544.71875 C 317.14135 565.80975 333.4332 586.45675 350.3125 606.59375 C 364.7906 623.33475 379.56345 639.7755 393.84375 656.6875 C 394.96565 658.0715 396.09675 659.45975 397.21875 660.84375 C 402.89812 667.60367 420.87934 658.59326 437.09375 645.65625 C 440.37034 658.29815 444.21731 670.76594 448.84375 683 C 454.26145 699.088 463.8231 706.56925 477.125 716.90625 C 484.93745 720.69361 497.34804 705.80456 506.84375 687.8125 C 522.72293 685.93123 538.63097 684.45335 554.5625 683.125 C 596.291 680.166 638.1137 678.51775 679.875 676.09375 C 715.4347 673.63375 750.82855 669.398 786.46875 668.25 C 788.13915 664.815 819.92135 672.09075 810.28125 669.71875 C 808.07403 668.38232 805.86355 667.05518 803.65625 665.71875 C 806.00421 666.6363 809.10464 666.21184 812.65625 664.75 C 824.06094 678.36803 836.53312 687.97552 842.84375 683.46875 C 853.26445 675.09375 862.43035 666.10275 867.90625 653.59375 C 873.65155 639.38675 877.0782 624.55375 880.3125 609.59375 C 885.7464 586.46575 891.8316 563.47575 897.75 540.46875 C 903.5317 518.98875 912.52695 498.0415 912.65625 475.5625 C 908.98535 466.8595 907.5623 456.7835 901.625 449.4375 C 890.183 435.2805 874.628 432.52 858.4375 432 C 855.2661 431.8785 852.10297 431.85341 848.9375 431.875 z M 812.0625 521 C 807.12134 540.73563 801.8948 560.40167 796.90625 580.125 C 792.26079 580.11849 787.58527 580.29656 782.875 580.625 C 769.97747 581.25486 757.10937 582.20441 744.25 583.28125 C 745.2434 562.98383 746.70741 542.66452 750.1875 522.625 C 750.21769 522.43908 750.20657 522.24751 750.21875 522.0625 C 753.37189 521.91573 756.53346 521.7856 759.6875 521.65625 C 777.14202 521.04664 794.59983 521.05094 812.0625 521 z M 660.40625 528.59375 C 658.42987 547.19624 657.13917 565.87793 656.1875 584.5625 C 656.06529 586.50206 655.99529 588.44082 655.9375 590.375 C 652.21231 590.57515 648.50683 590.77635 644.78125 590.96875 C 644.33065 585.98999 643.87923 581.06988 642.53125 576.5625 C 640.66568 561.37833 639.16681 546.1058 638.65625 530.8125 C 645.90379 530.04629 653.15326 529.30943 660.40625 528.59375 z M 551.25 541.75 C 552.1436 556.82987 553.52739 571.86161 555.25 586.875 C 555.60847 589.81396 555.98755 592.75619 556.375 595.6875 C 553.43965 595.87355 550.49724 596.05248 547.5625 596.25 C 537.12395 597.06363 526.70297 597.95468 516.28125 598.9375 C 516.14156 598.23937 515.98063 597.54226 515.84375 596.84375 C 513.00774 581.49496 510.42566 566.08863 508.3125 550.625 C 522.30871 546.394 536.77502 543.91782 551.25 541.75 z M 628.53125 587.9375 C 630.67821 589.45613 632.31469 590.53818 633.8125 591.53125 C 632.66702 591.58895 631.5205 591.63007 630.375 591.6875 C 629.9272 590.18588 629.32313 588.91991 628.53125 587.9375 z M 707.65625 677.5 C 671.98461 677.69537 636.47975 681.35969 601.625 689.3125 C 568.1734 696.8705 534.9956 705.7285 502.8125 717.6875 C 497.90947 719.57642 496.90934 727.41069 498.34375 737.5625 C 496.30939 737.0801 494.26458 736.6289 492.21875 736.1875 C 473.69485 733.1275 459.25745 820.47125 477.78125 823.53125 C 505.40805 829.09525 531.72135 839.86375 558.03125 849.71875 C 563.58552 851.82322 569.13591 853.95106 574.6875 856.0625 C 572.83045 857.00469 570.98226 857.93486 569.125 858.875 C 540.5918 872.864 512.1772 887.1115 483.75 901.3125 C 484.2236 904.1465 448.62595 914.04825 464.84375 910.03125 C 488.30503 909.26905 495.34324 917.81712 505.9375 935.0625 C 493.35155 922.12447 417.13597 945.84744 422.25 962.96875 C 436.0546 988.41675 441.03935 997.34075 472.78125 998.46875 C 490.97795 995.58475 507.44925 988.50625 523.59375 979.65625 C 551.78285 965.07325 580.018 950.60075 608.5 936.59375 C 633.22085 924.04967 657.92945 911.35831 681.78125 897.21875 C 716.94263 910.8233 752.89549 922.25775 788.625 934.25 C 809.1393 940.855 829.3227 948.395 848.375 958.5 C 864.2392 966.943 882.84735 974.20725 901.03125 967.90625 C 907.86845 965.53725 913.6762 960.86075 920 957.34375 C 933.71909 945.74422 882.25635 883.57926 864.9375 888.3125 C 869.14663 886.07075 873.22172 883.48653 877.78125 882.15625 C 889.25205 878.80925 906.9271 888.31375 888.5 879.84375 C 865.219 868.29575 840.952 859.059 816.125 851.375 C 799.94856 846.06065 783.74472 840.83407 767.59375 835.4375 C 776.20137 828.28385 784.68755 820.98263 793.03125 813.5 C 812.98505 795.319 832.28805 778.379 835.71875 749.875 C 833.56055 741.189 832.8065 732.0255 829.25 723.8125 C 822.4395 708.0855 804.06955 700.80225 789.59375 694.53125 C 765.66885 684.78625 740.8801 677.757 714.8125 677.5 C 712.43318 677.48244 710.03436 677.48698 707.65625 677.5 z M 135.8125 697.34375 C 135.69408 701.98174 137.49097 705.05356 136.5625 700.59375 C 136.33496 699.50073 136.08789 698.42506 135.8125 697.34375 z M 701.8125 765 C 705.70319 764.97625 709.60511 765.02687 713.5 765.125 C 713.99636 765.13478 714.47492 765.16781 714.96875 765.1875 C 700.85037 777.33443 686.27344 788.91557 671.25 799.9375 C 651.09409 792.18485 630.93567 784.41272 610.78125 776.65625 C 614.13369 775.86469 617.48595 775.10341 620.84375 774.34375 C 647.47131 768.329 674.57764 765.16624 701.8125 765 z M 762.4375 779.1875 C 763.91657 779.91103 764.63109 780.34843 764.71875 780.4375 C 764.53237 780.38659 763.64448 779.94125 762.4375 779.1875 z "
     id="path10778" />
</svg>
