<?xml version="1.0" encoding="utf-8" ?>

<!DOCTYPE svg PUBLIC "-//W3C//DTD SVG 1.1//EN" 
  "http://www.w3.org/Graphics/SVG/1.1/DTD/svg11.dtd">
<svg 
    xmlns="http://www.w3.org/2000/svg"
    xmlns:xlink="http://www.w3.org/1999/xlink"
    xmlns:sodipodi="http://sodipodi.sourceforge.net/DTD/sodipodi-0.dtd"
    xmlns:inkscape="http://www.inkscape.org/namespaces/inkscape"
    width="1024" height="1024" id="U6109">
<path d="m 7411.9638,60643.817 c -5.2835,42.073 -8.1489,84.423 -11.8035,126.662 -5.8279,67.47 -13.4398,134.768 -20.3998,202.126 -6.0137,56.775 -10.4774,113.691 -14.5388,170.633 -2.186,34.183 -4.9936,68.317 -8.7204,102.366 -1.7207,23.451 -3.765,28.27 -16.3697,49.728 -13.2386,13.465 -76.7165,-48.942 -63.4779,-62.407 l 0,0 c -18.3773,32.78 -8.1265,17.534 -7.4791,2.196 4.2966,-32.693 7.3296,-65.524 9.737,-98.408 4.6093,-57.729 9.3967,-115.448 15.6789,-173.025 7.0719,-66.687 14.6388,-133.338 19.8486,-200.205 3.3273,-43.403 6.0326,-86.854 9.7549,-130.225 2.2398,-18.619 90.0096,-8.06 87.7698,10.559 z" id="path13311" inkscape:connector-curvature="0" style="fill:#2b1100;fill-opacity:1;fill-rule:nonzero;stroke:none" transform="translate(-7168, -60416)"/><path d="m 7317.0198,60918.383 c -16.8613,21.77 -31.3494,45.244 -45.189,69.009 -7.5016,17.475 -21.7106,34.73 -23.8158,54.219 -4.3452,18.233 -90.2975,-2.25 -85.9523,-20.484 l 0,0 c 7.4342,-27.526 20.2671,-53.061 34.2873,-77.802 15.7135,-26.854 32.2008,-53.262 50.3384,-78.561 11.3743,-14.92 81.7057,38.699 70.3314,53.619 z" id="path13313" inkscape:connector-curvature="0" style="fill:#2b1100;fill-opacity:1;fill-rule:nonzero;stroke:none" transform="translate(-7168, -60416)"/><path d="m 7428.5259,60922.382 c 16.4432,17.692 33.4766,34.813 49.8269,52.593 7.2887,8.049 14.2005,16.424 21.2244,24.702 12.0124,14.332 -55.5491,70.959 -67.5615,56.627 l 0,0 c -6.112,-7.381 -12.1203,-14.852 -18.4822,-22.022 -15.8439,-17.416 -32.3368,-34.22 -49.0232,-50.828 -12.9554,-13.579 51.0602,-74.652 64.0156,-61.072 z" id="path13315" inkscape:connector-curvature="0" style="fill:#2b1100;fill-opacity:1;fill-rule:nonzero;stroke:none" transform="translate(-7168, -60416)"/><path d="m 7785.5983,60587.683 c -30.421,28.569 -57.7264,60.238 -85.0846,91.688 -40.7293,47.359 -80.2475,95.743 -119.45,144.368 -24.2549,30.692 -48.7623,61.386 -68.9375,94.977 3.3773,2.771 -6.1746,6.901 -4.6385,10.359 0.4114,0.925 0.9898,-1.769 1.4847,-2.653 -4.2295,18.311 -90.547,-1.627 -86.3176,-19.937 l 0,0 c 3.6486,-12.105 7.7738,-23.602 14.9937,-34.163 23.0713,-36.024 49.6734,-69.558 76.6042,-102.751 40.0204,-49.087 80.1354,-98.103 121.0754,-146.429 28.7907,-33.651 57.6516,-67.299 88.7343,-98.879 13.4533,-13.053 74.9892,50.366 61.5359,63.42 z" id="path13317" inkscape:connector-curvature="0" style="fill:#2b1100;fill-opacity:1;fill-rule:nonzero;stroke:none" transform="translate(-7168, -60416)"/><path d="m 7775.438,60572.409 c 23.9819,19.621 48.2458,38.89 72.8806,57.684 30.9377,23.051 61.5434,46.519 91.5393,70.783 22.3445,18.077 44.2343,36.746 64.7029,56.934 13.1806,13.248 -49.2686,75.382 -62.4492,62.134 l 0,0 c -17.8713,-18.416 -37.4597,-35.062 -57.2549,-51.36 -29.1675,-23.8 -59.0199,-46.711 -89.2735,-69.114 -24.8525,-18.826 -49.2682,-38.215 -74.1567,-56.992 -14.8639,-11.457 39.1476,-81.526 54.0115,-70.069 z" id="path13319" inkscape:connector-curvature="0" style="fill:#2b1100;fill-opacity:1;fill-rule:nonzero;stroke:none" transform="translate(-7168, -60416)"/><path d="m 7517.3734,60814.991 c 35.4029,-4.345 70.8176,-8.597 106.2109,-13.03 56.2885,-7.518 112.9962,-10.135 169.725,-10.858 43.6367,-0.213 87.1823,2.573 130.5813,6.872 15.7355,1.73 31.4342,3.768 47.1275,5.838 18.5257,2.666 5.9619,89.996 -12.5638,87.331 l 0,0 c -14.5396,-2.274 -29.0954,-4.452 -43.7029,-6.251 -40.0326,-4.475 -80.2318,-7.397 -120.5382,-7.459 -53.302,0.43 -106.5977,2.79 -159.4274,10.365 -33.9024,4.602 -67.8612,8.932 -101.6458,14.323 -18.4833,3.345 -34.25,-83.787 -15.7666,-87.131 z" id="path13321" inkscape:connector-curvature="0" style="fill:#2b1100;fill-opacity:1;fill-rule:nonzero;stroke:none" transform="translate(-7168, -60416)"/><path d="m 7578.7817,61039.634 c -10.8705,25.564 -12.9999,53.875 -15.6415,81.225 -3.4144,40.633 -3.6371,81.429 -0.7173,122.083 0.5725,4.997 1.0337,10.008 1.7173,14.991 1.3238,9.649 3.0039,19.501 6.371,28.688 1.9317,5.271 1.7477,5.166 1.8219,2.693 9.3423,16.282 -67.4135,60.322 -76.7558,44.04 l 0,0 c -13.3743,-26.398 -18.1678,-55.32 -20.1274,-84.717 -2.7192,-45.281 -2.4183,-90.67 1.2281,-135.908 3.5381,-38.542 7.4503,-77.815 23.4138,-113.565 8.5848,-16.692 87.2747,23.777 78.6899,40.47 z" id="path13323" inkscape:connector-curvature="0" style="fill:#2b1100;fill-opacity:1;fill-rule:nonzero;stroke:none" transform="translate(-7168, -60416)"/><path d="m 7514.5841,60993.899 c 22.2816,-30.115 54.1403,-48.787 87.7558,-63.674 36.5274,-15.061 74.1527,-18.328 112.4688,-9.811 41.3762,13.591 58.6864,40.407 68.8544,80.991 6.802,43.663 0.5783,87.832 -5.3963,131.205 -7.692,50.953 -16.7532,101.689 -25.3627,152.494 -5.9734,34.601 -11.8269,69.232 -18.6186,103.684 -3.2466,13.51 -1.2863,6.766 -5.9275,20.218 -6.8868,17.475 -89.2621,-14.99 -82.3754,-32.465 l 0,0 c 0.1598,0.02 0.3196,0.04 0.4794,0.06 0.5743,-1.958 1.1487,-3.917 1.723,-5.875 7.4397,-33.217 13.4484,-66.738 19.3963,-100.247 8.6297,-49.756 17.5955,-99.47 24.8429,-149.449 4.3618,-33.077 9.151,-66.677 5.6495,-100.066 -0.9465,-5.84 0.499,-12.172 -4.7908,-15.321 -18.5145,-6.624 -38.2561,-1.495 -56.2031,4.75 -18.395,7.691 -36.8269,16.932 -49.2111,33.154 -10.5312,15.546 -83.8158,-34.098 -73.2846,-49.644 z" id="path13325" inkscape:connector-curvature="0" style="fill:#2b1100;fill-opacity:1;fill-rule:nonzero;stroke:none" transform="translate(-7168, -60416)"/><path d="m 7535.5866,61136.811 c 30.3321,-14.329 62.8269,-22.411 95.6459,-28.533 20.9406,-3.87 42.1069,-4.541 63.3105,-3.713 18.6369,0.993 13.9555,88.848 -4.6814,87.855 l 0,0 c -14.3354,-1.126 -28.6541,-0.604 -42.8618,1.846 -24.7012,4.43 -49.3769,10.086 -71.8524,21.667 -16.7842,8.392 -56.345,-70.73 -39.5608,-79.122 z" id="path13327" inkscape:connector-curvature="0" style="fill:#2b1100;fill-opacity:1;fill-rule:nonzero;stroke:none" transform="translate(-7168, -60416)"/><path d="m 7549.6261,61213.626 c 30.5554,0.321 61.011,-3.28 91.3954,-6.107 30.3634,-3.031 60.8071,-5.061 91.2503,-7.069 18.6055,-1.124 23.9054,86.583 5.2999,87.707 l 0,0 c -29.5289,1.623 -59.0593,3.291 -88.4971,6.199 -33.9864,3.141 -67.9732,6.999 -102.1265,7.642 -18.7465,-0.568 -16.0686,-88.94 2.678,-88.372 z" id="path13329" inkscape:connector-curvature="0" style="fill:#2b1100;fill-opacity:1;fill-rule:nonzero;stroke:none" transform="translate(-7168, -60416)"/><path d="m 7913.3414,61029.686 c -3.9545,33.201 -6.2331,66.575 -8.3557,99.934 -1.2667,25.776 -3.6995,51.648 -1.4924,77.43 1.0939,18.621 -86.6858,23.778 -87.7797,5.157 l 0,0 c -1.2237,-29.36 0.6238,-58.667 2.5006,-87.971 2.0916,-34.563 4.4577,-69.106 7.1531,-103.627 1.9255,-18.662 89.8995,-9.585 87.9741,9.077 z" id="path13331" inkscape:connector-curvature="0" style="fill:#2b1100;fill-opacity:1;fill-rule:nonzero;stroke:none" transform="translate(-7168, -60416)"/><path d="m 8014.5916,60998.24 c -1.5878,34.728 -3.5015,69.427 -5.9569,104.106 -3.8187,53.917 -9.7754,107.64 -16.3409,161.281 -5.4791,46.932 -12.0299,93.722 -20.813,140.153 -5.2216,29.319 -13.799,57.661 -27.2952,84.199 -2.232,3.596 -4.4639,7.192 -6.6959,10.788 -10.1113,15.739 -84.3072,-31.926 -74.1958,-47.665 l 0,0 c 0.9635,-1.378 1.927,-2.756 2.8905,-4.134 10.404,-18.48 15.3235,-39.271 19.768,-59.852 8.9169,-44.341 15.3646,-89.106 20.6947,-134.015 6.4226,-52.041 12.2031,-104.176 15.4939,-156.524 2.1402,-34.271 3.8407,-68.563 4.0723,-102.908 0.9697,-18.748 89.348,-14.177 88.3783,4.571 z" id="path13333" inkscape:connector-curvature="0" style="fill:#2b1100;fill-opacity:1;fill-rule:nonzero;stroke:none" transform="translate(-7168, -60416)"/></svg>