<?xml version="1.0" encoding="utf-8" ?>

<!DOCTYPE svg PUBLIC "-//W3C//DTD SVG 1.1//EN" 
  "http://www.w3.org/Graphics/SVG/1.1/DTD/svg11.dtd">
<svg 
    xmlns="http://www.w3.org/2000/svg"
    xmlns:xlink="http://www.w3.org/1999/xlink"
    xmlns:sodipodi="http://sodipodi.sourceforge.net/DTD/sodipodi-0.dtd"
    xmlns:inkscape="http://www.inkscape.org/namespaces/inkscape"
    width="1024" height="1024" id="U62AC">
<path d="m 9346.9028,47513.306 c 39.333,-6.289 78.3549,-14.304 117.2947,-22.645 44.1912,-10.134 88.3186,-20.853 131.5697,-34.513 3.3992,-1.316 6.7985,-2.631 10.1978,-3.946 17.4995,-6.334 47.3541,76.16 29.8546,82.493 l 0,0 c -4.9214,1.696 -9.8428,3.391 -14.7641,5.087 -45.7482,13.297 -92.1009,24.423 -138.4785,35.282 -39.7364,8.791 -79.5793,17.043 -119.4632,25.133 -18.4324,3.438 -34.6434,-83.452 -16.211,-86.891 z" id="path11624" inkscape:connector-curvature="0" style="fill:#782121;fill-opacity:1;fill-rule:nonzero;stroke:#f9f9f9;stroke-width:0.1;stroke-miterlimit:4;stroke-dasharray:none" transform="translate(-9216, -47104)"/><path d="m 9557.2893,47320.682 c -15.0757,50.772 -19.7902,104.076 -25.6354,156.515 -9.6887,93.263 -14.2247,186.943 -17.8113,280.605 -2.7421,72.155 -3.4931,144.36 -3.0297,216.559 0.6086,26.363 0.9321,52.632 -2.1667,78.832 -2.7086,18.451 -89.6855,5.683 -86.977,-12.768 l 0,0 c 4.5509,-21.658 2.0049,-44.125 3.0044,-66.074 0.4801,-73.34 1.7084,-146.679 4.8754,-219.959 4.0646,-95.462 8.8839,-190.925 17.8318,-286.075 5.8967,-59.262 10.8046,-119.231 26.5283,-176.88 6.2039,-17.688 89.584,11.558 83.3802,29.245 z" id="path11626" inkscape:connector-curvature="0" style="fill:#782121;fill-opacity:1;fill-rule:nonzero;stroke:#f9f9f9;stroke-width:0.1;stroke-miterlimit:4;stroke-dasharray:none" transform="translate(-9216, -47104)"/><path d="m 9287.7505,47857.495 c 42.0408,-30.639 88.6581,-54.2 134.8696,-77.768 59.9795,-29.84 121.2234,-57.02 180.6873,-87.894 6.5011,-3.652 13.0021,-7.304 19.5032,-10.957 16.1167,-8.839 57.7841,67.136 41.6674,75.975 l 0,0 c -7.3242,3.93 -14.6485,7.86 -21.9728,11.79 -59.781,30.012 -120.9929,57.021 -180.7196,87.147 -40.5829,21.108 -81.8902,41.99 -118.1065,70.219 -14.5337,11.864 -70.4623,-56.648 -55.9286,-68.512 z" id="path11628" inkscape:connector-curvature="0" style="fill:#782121;fill-opacity:1;fill-rule:nonzero;stroke:#f9f9f9;stroke-width:0.1;stroke-miterlimit:4;stroke-dasharray:none" transform="translate(-9216, -47104)"/><path d="m 9781.4137,47367.986 c -18.5372,31.918 -37.4788,63.597 -56.0978,95.467 -12.8673,27.991 -42.095,62.782 -42.331,94.637 10.7172,-6.418 -12.0908,-15.114 5.2477,-15.649 3.8103,-0.117 7.6194,-0.272 11.4292,-0.409 42.0368,-4.122 83.4574,-12.919 125.1097,-19.762 30.9565,-4.988 62.1273,-8.398 93.3347,-11.331 18.5444,-1.553 25.8659,85.867 7.3215,87.42 l 0,0 c -28.9966,2.111 -57.9499,4.903 -86.6771,9.471 -46.0236,7.475 -91.7109,17.708 -138.2428,21.49 -45.1205,-0.134 -89.4669,-7.769 -102.703,-59.016 -1.9918,-7.711 -1.128,-15.889 -1.692,-23.834 1.228,-7.12 1.9152,-14.356 3.6841,-21.362 9.5735,-37.915 32.7949,-70.918 50.5771,-105.143 17.9176,-31.086 36.302,-61.937 52.9898,-93.708 8.8522,-16.557 86.9021,25.172 78.0499,41.729 z" id="path11630" inkscape:connector-curvature="0" style="fill:#782121;fill-opacity:1;fill-rule:nonzero;stroke:#f9f9f9;stroke-width:0.1;stroke-miterlimit:4;stroke-dasharray:none" transform="translate(-9216, -47104)"/><path d="m 9975.2692,47421.577 c -1.4307,31.586 1.9031,63.102 5.8836,94.385 3.9281,29.993 10.9978,59.413 19.7432,88.329 5.176,17.921 -79.3028,42.318 -84.4782,24.397 l 0,0 c -9.2612,-33.44 -17.106,-67.291 -21.6158,-101.737 -4.5599,-35.829 -8.1354,-71.824 -7.8908,-107.992 0.5553,-18.743 88.9134,-16.125 88.358,2.618 z" id="path11632" inkscape:connector-curvature="0" style="fill:#782121;fill-opacity:1;fill-rule:nonzero;stroke:#f9f9f9;stroke-width:0.1;stroke-miterlimit:4;stroke-dasharray:none" transform="translate(-9216, -47104)"/><path d="m 9726.0097,47804.414 c -6.0475,33.266 -6.9799,67.113 -6.2413,100.825 0.6281,11.236 0.7439,18.635 2.3636,29.511 1.4175,9.518 7.4339,18.646 -3.2483,-2.836 13.208,13.352 -49.7339,75.616 -62.942,62.264 l 0,0 c -4.6724,-6.807 -10.2097,-13.094 -14.0171,-20.42 -10.3595,-19.932 -6.6174,-45.59 -9.2155,-66.939 -0.5837,-39.077 0.7829,-78.168 6.1634,-116.928 3.0807,-18.484 90.218,-3.962 87.1372,14.523 z" id="path11634" inkscape:connector-curvature="0" style="fill:#782121;fill-opacity:1;fill-rule:nonzero;stroke:#f9f9f9;stroke-width:0.1;stroke-miterlimit:4;stroke-dasharray:none" transform="translate(-9216, -47104)"/><path d="m 9703.6904,47711.784 c 36.3508,-15.748 75.9788,-21.214 114.9243,-26.501 45.3824,-5.617 91.085,-8.081 136.7134,-4.788 35.8646,4.038 68.9199,19.626 82.0689,55.661 2.458,6.736 2.942,14.036 4.413,21.054 1.713,38.667 -8.72,76.519 -17.443,113.868 -8.422,35.707 -16.637,71.487 -28.7461,106.153 -8.8772,20.006 -3.7092,10.149 -15.6566,29.49 -10.3524,15.535 -83.5847,-33.267 -73.2323,-48.801 l 0,0 c 4.5423,-4.982 2.0776,-1.75 6.4158,-10.369 11.6843,-31.181 18.5298,-63.848 26.3745,-96.143 6.1574,-26.772 12.6944,-53.617 15.3142,-81.02 2.7201,-1.653 4.6677,3.166 8.1338,3.108 2.0259,-0.03 -2.8396,-3.165 -4.7764,-3.76 -3.2811,-1.008 -6.7058,-1.469 -10.0587,-2.204 -39.2095,-3.806 -78.6189,-0.99 -117.6534,3.687 -28.8707,4.062 -58.3944,7.879 -85.5916,18.925 -16.6227,8.74 -57.8225,-69.62 -41.1998,-78.36 z" id="path11636" inkscape:connector-curvature="0" style="fill:#782121;fill-opacity:1;fill-rule:nonzero;stroke:#f9f9f9;stroke-width:0.1;stroke-miterlimit:4;stroke-dasharray:none" transform="translate(-9216, -47104)"/><path d="m 9671.7042,47968.35 c 46.782,-11.833 94.7238,-17.914 142.5557,-23.635 51.3887,-5.998 103.0842,-8.176 154.7676,-9.517 15.8804,-0.595 31.8065,-0.132 47.6455,-1.564 18.701,-1.085 23.816,87.076 5.115,88.161 l 0,0 c -17.029,0.635 -34.0617,0.299 -51.0999,0.444 -48.7764,0.583 -97.5787,2.208 -146.0634,7.964 -43.122,5.303 -86.5595,10.638 -128.3502,22.974 -17.9943,5.212 -42.5647,-79.614 -24.5703,-84.827 z" id="path11638" inkscape:connector-curvature="0" style="fill:#782121;fill-opacity:1;fill-rule:nonzero;stroke:#f9f9f9;stroke-width:0.1;stroke-miterlimit:4;stroke-dasharray:none" transform="translate(-9216, -47104)"/></svg>