<?xml version="1.0" encoding="utf-8" ?>

<!DOCTYPE svg PUBLIC "-//W3C//DTD SVG 1.1//EN" 
  "http://www.w3.org/Graphics/SVG/1.1/DTD/svg11.dtd">
<svg 
    xmlns="http://www.w3.org/2000/svg"
    xmlns:xlink="http://www.w3.org/1999/xlink"
    xmlns:sodipodi="http://sodipodi.sourceforge.net/DTD/sodipodi-0.dtd"
    xmlns:inkscape="http://www.inkscape.org/namespaces/inkscape"
    width="1024" height="1024" id="U624D">
<path d="m 10476.043,3452.3013 c 46.808,-7.9678 93.547,-16.3431 140.294,-24.6566 79.559,-15.1262 159.737,-26.2865 240.198,-35.2382 63.557,-7.1359 127.483,-10.4295 191.001,-17.8776 5.688,-0.9281 11.375,-1.8562 17.063,-2.7843 18.107,-2.6936 30.804,82.6619 12.698,85.3554 l 0,0 c -6.862,0.9388 -13.723,1.8776 -20.585,2.8163 -63.575,6.2609 -127.438,9.1918 -190.964,16.0586 -78.493,8.5708 -156.678,19.5757 -234.137,35.0745 -46.54,8.7701 -93.128,17.3551 -139.43,27.3203 -18.258,3.4233 -34.396,-82.6451 -16.138,-86.0684 z" id="path20421" inkscape:connector-curvature="0" style="fill:#aa0000;fill-opacity:1;fill-rule:nonzero;stroke:#f9f9f9;stroke-width:0.1;stroke-miterlimit:4;stroke-dasharray:none" transform="translate(-10240, -3072)"/><path d="m 10992.845,3256.8437 c -10.197,43.9365 -11.088,89.4165 -12.404,134.2983 -0.948,77.2211 0.736,154.4384 0.799,231.6606 -0.273,66.3703 -1.459,132.7614 -6.508,198.9545 -3.024,43.6365 -13.366,85.5997 -32.468,124.8675 -14.392,28.119 -37.803,47.1194 -63.862,63.7236 -15.58,9.7956 -61.757,-63.6518 -46.177,-73.4474 l 0,0 c 12.737,-7.8275 25.005,-15.7915 32.535,-29.2018 15.244,-28.788 21.682,-60.6255 24.717,-92.9101 5.596,-63.8357 7.079,-127.9242 7.507,-191.9857 0.06,-77.9252 -1.653,-155.8355 -1.273,-233.761 1.062,-51.7626 2.05,-103.9751 12.615,-154.8592 4.807,-17.929 89.326,4.7317 84.519,22.6607 z" id="path20423" inkscape:connector-curvature="0" style="fill:#aa0000;fill-opacity:1;fill-rule:nonzero;stroke:#f9f9f9;stroke-width:0.1;stroke-miterlimit:4;stroke-dasharray:none" transform="translate(-10240, -3072)"/><path d="m 10861.077,3629.8948 c -35.667,24.4715 -66.368,55.4678 -97.28,85.5095 -58.606,58.0264 -114.712,118.4979 -169.446,180.1685 -31.286,35.2999 -60.285,72.5009 -89.06,109.8435 -11.373,14.3457 -78.999,-39.2668 -67.626,-53.6124 l 0,0 c 30.827,-37.8025 61.368,-75.8611 93.957,-112.1814 56.254,-62.7631 113.561,-124.5941 172.775,-184.5853 34.785,-34.6362 69.434,-69.9607 109.289,-98.862 15.638,-10.0532 63.029,63.6665 47.391,73.7196 z" id="path20425" inkscape:connector-curvature="0" style="fill:#aa0000;fill-opacity:1;fill-rule:nonzero;stroke:#f9f9f9;stroke-width:0.1;stroke-miterlimit:4;stroke-dasharray:none" transform="translate(-10240, -3072)"/></svg>