<?xml version="1.0" encoding="UTF-8" standalone="no"?>
<svg
   xmlns:dc="http://purl.org/dc/elements/1.1/"
   xmlns:cc="http://creativecommons.org/ns#"
   xmlns:rdf="http://www.w3.org/1999/02/22-rdf-syntax-ns#"
   xmlns:svg="http://www.w3.org/2000/svg"
   xmlns="http://www.w3.org/2000/svg"
   xmlns:sodipodi="http://sodipodi.sourceforge.net/DTD/sodipodi-0.dtd"
   xmlns:inkscape="http://www.inkscape.org/namespaces/inkscape"
   width="1024"
   height="1024"
   id="U6280"
   version="1.1"
   inkscape:version="0.48.0 r9654"
   sodipodi:docname="U+6280.svg">
  <metadata
     id="metadata14">
    <rdf:RDF>
      <cc:Work
         rdf:about="">
        <dc:format>image/svg+xml</dc:format>
        <dc:type
           rdf:resource="http://purl.org/dc/dcmitype/StillImage" />
      </cc:Work>
    </rdf:RDF>
  </metadata>
  <defs
     id="defs12" />
  <sodipodi:namedview
     pagecolor="#ffffff"
     bordercolor="#666666"
     borderopacity="1"
     objecttolerance="10"
     gridtolerance="10"
     guidetolerance="10"
     inkscape:pageopacity="0"
     inkscape:pageshadow="2"
     inkscape:window-width="640"
     inkscape:window-height="480"
     id="namedview10"
     showgrid="false"
     inkscape:zoom="0.27441406"
     inkscape:cx="512"
     inkscape:cy="512"
     inkscape:window-x="0"
     inkscape:window-y="25"
     inkscape:window-maximized="0"
     inkscape:current-layer="U6280" />
  <path
     style="fill:#550000;fill-opacity:1;fill-rule:nonzero;stroke:#f9f9f9;stroke-width:0.1;stroke-miterlimit:4;stroke-dasharray:none"
     d="M 693.78125 191.625 C 677.97214 191.42373 664.95163 194.25875 664.0625 201.3125 C 661.84489 237.855 660.45883 274.45176 658.96875 311.03125 C 620.49653 320.89555 582.26903 331.75764 544.875 345.21875 C 527.19975 352.01675 559.26225 435.33025 576.9375 428.53125 C 602.48469 418.10865 628.77787 409.80143 655.34375 402.4375 C 654.50151 423.97923 653.65698 445.52195 652.78125 467.0625 C 651.67661 479.37735 652.79566 491.96144 650.46875 504.15625 C 646.83741 504.96171 643.21169 505.77284 639.59375 506.65625 C 599.70073 516.28625 560.06052 527.24925 522.1875 543.28125 C 505.00299 551.22225 542.44048 632.2545 559.625 624.3125 C 591.71739 609.4185 625.95946 600.17875 660.21875 591.84375 C 690.35075 584.42813 721.06546 580.39826 751.9375 578.25 C 740.26015 593.19563 728.47346 608.06563 716.625 622.875 C 695.49703 648.96216 673.4977 674.29981 651.1875 699.375 C 649.86553 698.28225 648.53893 697.18883 647.21875 696.09375 C 605.33081 663.22275 562.65791 628.43575 511.15625 612.09375 C 492.62621 608.16375 474.09496 695.5065 492.625 699.4375 C 530.09052 713.48554 561.74828 739.56331 593.03125 763.84375 C 572.59496 786.89894 552.78907 810.49934 533.71875 834.71875 C 519.34974 853.32575 504.61978 871.66175 490.1875 890.21875 C 493.15525 887.61948 495.92127 884.34096 499.71875 883.625 C 508.8206 881.90897 518.20265 882.74892 527.5 882.90625 C 509.12743 889.34339 480.7049 958.2082 496.59375 965.15625 C 532.91478 966.46025 540.13669 972.1 561.40625 944.125 C 575.07843 925.537 589.23621 907.28325 603.1875 888.90625 C 621.82622 864.79046 641.33495 841.42644 661.53125 818.625 C 690.70824 841.35172 720.29091 863.55981 750.40625 885.0625 C 785.96855 910.5765 822.66606 934.441 860.3125 956.75 C 863.52753 955.16461 889.63865 977.82609 877.125 966.40625 C 892.019 976.63846 957.46704 923.69625 945.96875 909.28125 C 934.00804 896.80825 920.31198 887.67025 904.6875 880.15625 C 868.91633 859.95325 834.27771 837.79775 800.71875 814.09375 C 773.18077 794.70757 746.15126 774.68349 719.53125 754.09375 C 741.74254 729.05944 763.66712 703.80181 784.875 677.90625 C 807.66585 649.83725 830.42261 621.70675 852.6875 593.21875 C 867.46664 572.61875 884.79053 546.132 871.3125 519.625 C 866.8601 510.868 858.42494 504.80925 851.96875 497.40625 C 846.73333 495.18325 841.66812 492.48 836.25 490.75 C 816.33491 484.389 793.96297 489.87775 773.65625 488.71875 C 762.63171 489.29764 751.59225 490.04447 740.59375 490.96875 C 740.81328 483.93681 740.89534 476.89378 740.96875 469.84375 C 741.61747 440.77602 742.42415 411.71351 743.4375 382.65625 C 760.7067 380.13056 778.09475 378.56282 795.59375 378.28125 C 798.29478 378.32325 801.01772 378.36625 803.71875 378.40625 C 822.60925 378.26225 821.92176 289.19875 803.03125 289.34375 C 799.54291 289.43175 796.05085 289.535 792.5625 289.625 C 777.39223 290.35316 762.28483 291.69534 747.25 293.59375 C 748.59472 266.53219 750.14985 239.46801 752.71875 212.5 C 754.20064 200.74375 720.12976 191.96045 693.78125 191.625 z M 490.1875 890.21875 C 489.83498 890.5275 489.48525 890.80921 489.125 891.09375 C 488.49262 891.59275 487.13119 893.60975 487.75 893.09375 C 488.72014 892.28475 489.36836 891.18075 490.1875 890.21875 z M 330.09375 248.03125 C 307.77329 248.19413 285.49338 253.093 285.5625 262.5625 C 287.23036 309.74507 287.83623 356.94859 288.5 404.15625 C 283.44891 405.49448 278.39771 406.82824 273.34375 408.15625 C 238.87551 416.51225 204.14412 424.47225 168.6875 427.15625 C 149.80783 428.84425 157.77658 517.84425 176.65625 516.15625 C 214.90301 511.77127 252.47689 503.38772 289.8125 494.21875 C 290.29986 531.0223 290.76764 567.82677 291.4375 604.625 C 281.76637 610.32826 272.20198 616.19922 262.78125 622.34375 C 227.34732 645.38675 191.6381 668.7035 160.375 697.3125 C 147.49282 711.2395 213.14907 771.9895 226.03125 758.0625 C 246.95146 738.65157 270.41259 722.17584 294.15625 706.34375 C 296.13593 752.15867 300.44343 797.8128 304.875 843.4375 C 305.50764 853.0598 303.51675 858.74458 306.75 841.90625 C 308.13538 860.22682 379.0887 895.12989 387.1875 879.21875 C 392.25339 862.79275 396.2742 850.611 393 833.625 C 387.39653 788.757 382.35901 743.811 380.0625 698.625 C 379.42064 684.53007 378.88531 670.4425 378.40625 656.34375 C 398.56488 646.1307 419.13781 636.74624 439.96875 627.9375 C 459.83716 619.6955 480.20928 612.7175 500.4375 605.4375 L 505.96875 603.09375 C 523.25781 595.15775 485.85155 513.65875 468.5625 521.59375 C 468.48329 521.69075 468.3917 521.775 468.3125 521.875 C 447.32786 530.523 425.96608 538.20025 405.15625 547.28125 C 395.42235 551.56533 385.73167 555.97383 376.09375 560.46875 C 375.61904 530.91584 375.28673 501.37056 375 471.8125 C 391.6941 467.52359 408.41261 463.3256 425.1875 459.34375 C 437.48875 456.69075 449.769 453.638 462.3125 452.375 C 481.0789 449.702 468.48515 361.23325 449.71875 363.90625 C 434.38357 366.43725 419.22689 369.8885 404.15625 373.6875 C 394.221 376.208 384.29117 378.78418 374.375 381.375 C 374.25044 341.55044 374.35018 301.72756 374.84375 261.90625 C 374.77463 252.43625 352.41421 247.86837 330.09375 248.03125 z M 812.125 576.6875 C 813.9961 576.90108 815.83283 577.19149 817.65625 577.65625 C 818.07222 577.76225 816.82257 578.07375 816.40625 577.96875 C 814.96122 577.60586 813.53948 577.15804 812.125 576.6875 z "
     id="path8519" />
</svg>
