<?xml version="1.0" encoding="utf-8" ?>

<!DOCTYPE svg PUBLIC "-//W3C//DTD SVG 1.1//EN" 
  "http://www.w3.org/Graphics/SVG/1.1/DTD/svg11.dtd">
<svg 
    xmlns="http://www.w3.org/2000/svg"
    xmlns:xlink="http://www.w3.org/1999/xlink"
    xmlns:sodipodi="http://sodipodi.sourceforge.net/DTD/sodipodi-0.dtd"
    xmlns:inkscape="http://www.inkscape.org/namespaces/inkscape"
    width="1024" height="1024" id="U62C9">
<path d="m 11381.362,28063.156 c 35.948,-12.185 73.113,-19.938 110.393,-26.695 34.286,-6.103 68.826,-10.596 103.279,-15.619 23.027,-4.306 45.542,-3.104 67.607,4.6 12.853,6.325 6.599,2.612 18.693,11.255 14.531,11.979 -41.938,80.481 -56.47,68.502 l 0,0 c 4.911,2.866 2.654,1.988 6.543,3.159 -6.984,-4.259 -16.501,-0.966 -24.337,-0.573 -33.32,4.376 -66.703,8.409 -99.801,14.3 -32.334,5.856 -64.754,12.323 -95.558,24.067 -17.606,6.438 -47.955,-76.558 -30.349,-82.996 z" id="path9174" inkscape:connector-curvature="0" style="fill:#2b0000;fill-opacity:1;fill-rule:nonzero;stroke:#f9f9f9;stroke-width:0.1;stroke-miterlimit:4;stroke-dasharray:none" transform="translate(-11264, -27648)"/><path d="m 11567.212,27877.373 c -2.95,38.882 -6.579,77.705 -9.533,116.588 -4.598,64.9 -6.87,129.933 -8.892,194.954 -1.913,62.578 -2.921,125.177 -1.736,187.776 1.329,42.679 3.533,85.312 3.806,128.017 0,23.99 0.705,47.981 -5.079,71.389 -5.312,18.031 -90.31,-7.013 -84.998,-25.043 l 0,0 c 0.485,2.886 1.401,-5.715 1.596,-8.636 0.255,-3.814 0.77,-19.934 0.847,-23.014 0.12,-4.861 0.179,-9.722 0.269,-14.584 0.178,-42.304 -1.817,-84.545 -2.794,-126.831 -0.723,-63.912 0.772,-127.806 2.666,-191.69 1.996,-66.181 3.989,-132.379 8.087,-198.471 2.505,-37.726 5.845,-75.416 7.362,-113.196 0.582,-18.753 88.981,-16.012 88.399,2.741 z" id="path9176" inkscape:connector-curvature="0" style="fill:#2b0000;fill-opacity:1;fill-rule:nonzero;stroke:#f9f9f9;stroke-width:0.1;stroke-miterlimit:4;stroke-dasharray:none" transform="translate(-11264, -27648)"/><path d="m 11358.492,28344.97 c 30.236,-17.261 58.941,-37.085 88.127,-56.042 46.807,-30.363 94.431,-59.429 142.17,-88.293 23.853,-14.415 47.492,-29.176 71.516,-43.307 16.282,-9.192 59.616,67.56 43.334,76.752 l 0,0 c -23.865,12.864 -47.05,26.907 -70.376,40.713 -46.943,27.92 -93.581,56.368 -139.132,86.523 -30.796,20.428 -61.122,41.594 -92.575,61.01 -16.409,9.135 -59.473,-68.22 -43.064,-77.356 z" id="path9178" inkscape:connector-curvature="0" style="fill:#2b0000;fill-opacity:1;fill-rule:nonzero;stroke:#f9f9f9;stroke-width:0.1;stroke-miterlimit:4;stroke-dasharray:none" transform="translate(-11264, -27648)"/><path d="m 11842.823,27832.395 c 11.315,22.814 25.661,43.974 39.69,65.175 15.176,22.08 30.749,43.864 43.188,67.636 8.445,16.68 -70.188,56.493 -78.634,39.812 l 0,0 c -10.045,-21.143 -24.966,-39.486 -37.545,-59.114 -15.893,-23.985 -31.847,-47.997 -45.554,-73.323 -8.525,-16.728 70.331,-56.914 78.855,-40.186 z" id="path9180" inkscape:connector-curvature="0" style="fill:#2b0000;fill-opacity:1;fill-rule:nonzero;stroke:#f9f9f9;stroke-width:0.1;stroke-miterlimit:4;stroke-dasharray:none" transform="translate(-11264, -27648)"/><path d="m 11637.458,28076.71 c 34.919,-6.734 69.877,-13.259 104.861,-19.646 49.94,-8.856 100.052,-16.711 150.17,-24.494 40.505,-6.889 81.41,-9.504 122.439,-8.796 22.638,0.32 44.946,3.529 66.564,10.18 8.093,2.8 3.824,1.159 12.757,5.051 16.964,8.182 -21.602,88.15 -38.566,79.969 l 0,0 c 2.293,0.536 1.754,0.477 -1.432,-0.774 -13.323,-4.753 -27.332,-6.339 -41.436,-6.863 -35.907,-1.162 -71.703,0.941 -107.187,6.855 -49.23,7.463 -98.441,15.121 -147.41,24.164 -33.705,6.415 -67.442,12.795 -100.862,20.575 -18.291,4.221 -38.188,-82 -19.898,-86.221 z" id="path9182" inkscape:connector-curvature="0" style="fill:#2b0000;fill-opacity:1;fill-rule:nonzero;stroke:#f9f9f9;stroke-width:0.1;stroke-miterlimit:4;stroke-dasharray:none" transform="translate(-11264, -27648)"/><path d="m 11753.913,28232.202 c 18.623,24.297 32.108,51.924 46.225,78.943 5.036,7.227 18.746,39.091 28.849,39.933 -0.48,-0.602 -0.959,-1.204 -1.438,-1.806 17.387,6.978 -15.508,88.941 -32.895,81.963 l 0,0 c -5.277,-2.527 -10.554,-5.054 -15.831,-7.582 -25.056,-18.974 -42.562,-43.766 -56.291,-71.986 -11.034,-21.146 -21.392,-42.959 -35.922,-61.992 -12.192,-14.278 55.111,-71.75 67.303,-57.473 z" id="path9184" inkscape:connector-curvature="0" style="fill:#2b0000;fill-opacity:1;fill-rule:nonzero;stroke:#f9f9f9;stroke-width:0.1;stroke-miterlimit:4;stroke-dasharray:none" transform="translate(-11264, -27648)"/><path d="m 12048.631,28214.807 c -13.01,27 -24.323,54.733 -34.69,82.838 -9.306,26.062 -16.971,52.66 -25.12,79.095 -4.695,17.905 -13.789,33.297 -25.413,47.468 -12.267,14.198 -79.199,-43.628 -66.932,-57.827 l 0,0 c 5.025,-3.787 6.265,-10.662 8.397,-16.2 8.969,-27.602 17.355,-55.401 27.174,-82.72 10.989,-29.834 22.997,-59.233 35.693,-88.381 7.579,-17.16 88.47,18.567 80.891,35.727 z" id="path9186" inkscape:connector-curvature="0" style="fill:#2b0000;fill-opacity:1;fill-rule:nonzero;stroke:#f9f9f9;stroke-width:0.1;stroke-miterlimit:4;stroke-dasharray:none" transform="translate(-11264, -27648)"/><path d="m 11586.799,28453.189 c 35.737,-7.374 71.546,-14.37 107.44,-20.931 54.006,-9.859 108.552,-16.26 163.095,-22.27 48.208,-5.182 96.539,-9.094 144.858,-13.072 36.864,-3.33 73.736,-6.531 110.697,-8.558 23.013,-1.203 46.063,-1.425 69.1,-1.041 13.824,1.307 6.404,0.09 22.158,4.22 17.754,6.254 -11.726,89.945 -29.48,83.692 l 0,0 c 1.903,0.289 3.805,0.577 5.708,0.866 -0.278,-0.135 -0.557,-0.27 -0.835,-0.404 -20.707,-0.834 -41.444,-0.936 -62.15,0 -36.16,1.735 -72.223,4.839 -108.292,7.895 -47.486,3.655 -94.992,7.183 -142.36,12.185 -52.39,5.712 -104.779,11.91 -156.595,21.678 -34.587,6.594 -69.16,13.418 -103.328,21.952 -18.291,4.246 -38.306,-81.975 -20.016,-86.221 z" id="path9188" inkscape:connector-curvature="0" style="fill:#2b0000;fill-opacity:1;fill-rule:nonzero;stroke:#f9f9f9;stroke-width:0.1;stroke-miterlimit:4;stroke-dasharray:none" transform="translate(-11264, -27648)"/></svg>