<?xml version="1.0" encoding="UTF-8" standalone="no"?>
<svg
   xmlns:dc="http://purl.org/dc/elements/1.1/"
   xmlns:cc="http://creativecommons.org/ns#"
   xmlns:rdf="http://www.w3.org/1999/02/22-rdf-syntax-ns#"
   xmlns:svg="http://www.w3.org/2000/svg"
   xmlns="http://www.w3.org/2000/svg"
   xmlns:sodipodi="http://sodipodi.sourceforge.net/DTD/sodipodi-0.dtd"
   xmlns:inkscape="http://www.inkscape.org/namespaces/inkscape"
   width="1024"
   height="1024"
   id="U6279"
   version="1.1"
   inkscape:version="0.48.0 r9654"
   sodipodi:docname="U+6279.svg">
  <metadata
     id="metadata14">
    <rdf:RDF>
      <cc:Work
         rdf:about="">
        <dc:format>image/svg+xml</dc:format>
        <dc:type
           rdf:resource="http://purl.org/dc/dcmitype/StillImage" />
      </cc:Work>
    </rdf:RDF>
  </metadata>
  <defs
     id="defs12" />
  <sodipodi:namedview
     pagecolor="#ffffff"
     bordercolor="#666666"
     borderopacity="1"
     objecttolerance="10"
     gridtolerance="10"
     guidetolerance="10"
     inkscape:pageopacity="0"
     inkscape:pageshadow="2"
     inkscape:window-width="640"
     inkscape:window-height="480"
     id="namedview10"
     showgrid="false"
     inkscape:zoom="0.27441406"
     inkscape:cx="512"
     inkscape:cy="512"
     inkscape:window-x="0"
     inkscape:window-y="25"
     inkscape:window-maximized="0"
     inkscape:current-layer="U6279" />
  <path
     style="fill:#c83737;fill-opacity:1;fill-rule:nonzero;stroke:#f9f9f9;stroke-width:0.1;stroke-miterlimit:4;stroke-dasharray:none"
     d="M 249.625 178.25 C 239.29733 178.32206 231.64576 180.53162 230.5 185.6875 C 224.7429 228.5145 225.7354 271.96375 225 315.09375 C 224.54559 339.735 223.99777 364.39428 223.375 389.03125 C 222.782 389.08935 222.1867 389.1287 221.59375 389.1875 C 183.89615 392.3345 146.1956 395.16775 108.375 396.34375 C 89.6847 397.96275 97.3097 486.0565 116 484.4375 C 150.97124 481.83195 185.93132 479.21368 220.875 476.25 C 219.96097 504.95247 218.96039 533.64594 217.90625 562.34375 C 217.05694 581.66669 216.23306 600.98839 215.4375 620.3125 C 193.51055 631.14885 171.72742 642.25959 150.28125 654.03125 C 105.95935 679.91225 61.3535 707.4235 28.75 747.9375 C 17.9677 763.2665 90.2176 814.079 101 798.75 C 125.6723 768.147 160.3272 747.9195 193.75 728.3125 C 199.83282 724.96215 205.95845 721.68656 212.09375 718.4375 C 211.4121 746.59665 211.01763 774.7599 211.09375 802.9375 C 211.15235 825.7815 212.31565 848.588 213.78125 871.375 C 215.22125 889.841 302.28375 883.05975 300.84375 864.59375 C 298.89805 843.80675 297.35015 822.98075 296.96875 802.09375 C 296.23482 760.01384 296.75218 717.95624 297.9375 675.90625 C 314.61845 668.02472 331.35778 660.21869 348.0625 652.40625 C 375.87171 640.05387 402.7447 625.36639 431.25 614.625 C 427.39249 650.26294 424.31777 685.97807 423.625 721.84375 C 425.0141 744.44775 422.43225 770.386 433.15625 791.375 C 435.95165 796.846 439.8418 801.69075 443.1875 806.84375 C 450.8054 811.72875 457.43785 818.663 466.03125 821.5 C 494.71895 830.971 520.0611 811.806 542 796.75 C 564.6032 780.846 587.8531 765.91775 611.25 751.21875 C 625.0167 742.23675 639.8058 734.99375 654.25 727.21875 C 656.3376 725.93075 658.4125 724.663 660.5 723.375 C 676.2774 713.133 627.99615 638.758 612.21875 649 C 611.94955 649.242 611.67555 649.47675 611.40625 649.71875 C 595.65645 658.74275 579.46895 666.99975 564.34375 677.09375 C 546.50209 688.47793 528.68819 699.91037 511.0625 711.625 C 511.8581 670.82551 516.24761 630.21968 520.625 589.65625 C 520.71494 588.78102 520.81625 587.90649 520.90625 587.03125 C 525.17675 589.94748 529.01071 590.98733 531.90625 589.25 C 553.83955 575 578.18375 565.4925 602.96875 557.5625 C 622.84005 551.7525 643.3156 547.90875 664.0625 548.71875 C 666.97848 548.75492 669.47958 546.6555 671.53125 543.0625 C 670.57211 558.13401 669.55835 573.18439 668.5 588.25 C 663.6325 643.275 661.2185 698.37375 668.625 753.21875 C 675.2097 788.89875 690.8873 822.2925 724.25 840.0625 C 730.6223 843.4575 737.668 845.42075 744.375 848.09375 C 784.5109 858.62075 825.9782 853.234 866.5 848.25 C 900.2471 843.935 933.8272 838.633 967.375 833 C 984.0475 830.024 1000.8965 828.0595 1017.5625 825.0625 C 1019.7922 824.5145 1022.0204 823.95425 1024.25 823.40625 C 1042.4072 818.44225 1019.0009 732.8485 1000.8438 737.8125 C 1000.7632 737.8965 1000.6748 737.9825 1000.5938 738.0625 C 984.67885 741.6265 968.38475 743.34375 952.40625 746.59375 C 920.34215 752.33075 888.1958 757.7085 855.875 761.8125 C 828.6386 765.1405 800.93345 769.02325 773.53125 765.28125 C 757.37455 763.50225 759.7609 756.59375 754.75 740.59375 C 746.8227 692.07075 750.4949 642.932 754 594.125 C 754.39668 588.22056 754.8022 582.31134 755.1875 576.40625 C 757.46675 578.7114 759.88181 579.83015 762.3125 579.375 C 769.2071 577.778 776.23635 576.77575 782.96875 574.59375 C 817.30305 563.46675 844.9668 538.02125 872.0625 515.40625 C 898.1797 491.50525 923.11805 466.40475 948.84375 442.09375 C 962.61155 429.35175 902.54895 364.4455 888.78125 377.1875 C 864.07915 402.3565 839.3703 427.50475 813.375 451.34375 C 798.75141 461.89282 779.88467 482.77504 760.34375 490.3125 C 762.09051 458.40565 763.63102 426.49335 764.9375 394.5625 C 766.7713 355.6015 768.5085 316.61675 771.4375 277.71875 C 772.2601 258.96175 683.8227 255.08675 683 273.84375 C 681.6724 312.90375 680.21395 351.97125 678.84375 391.03125 C 678.02762 418.82074 676.86909 446.58292 675.46875 474.34375 C 673.23258 466.11946 669.8082 460.6202 665.15625 460.5625 C 634.87235 460.6125 604.97425 465.3915 576.03125 474.4375 C 560.52833 479.50326 545.21957 485.06742 530.25 491.4375 C 532.85499 461.58056 535.02284 431.67235 536.25 401.71875 C 537.3517 362.17275 537.5609 322.59025 533.8125 283.15625 C 531.9934 264.46925 443.89965 273.03075 445.71875 291.71875 C 450.65625 327.49975 450.6022 363.68675 449.9375 399.71875 C 448.50804 444.83412 444.55489 489.79625 439.96875 534.6875 C 436.47324 527.95229 432.41649 523.84578 428.15625 524.5625 C 412.54485 527.7015 420.2284 525.73175 405.0625 530.46875 C 372.8731 543.12475 342.3812 559.5775 311.125 574.3125 C 307.96077 575.82423 304.7915 577.33584 301.625 578.84375 C 301.82324 574.40691 302.0161 569.96793 302.21875 565.53125 C 303.44841 533.70632 304.58327 501.85926 305.71875 470.03125 C 321.11342 469.3574 336.52111 468.94776 351.9375 468.75 C 367.0303 468.64 382.13315 468.8725 397.21875 469.3125 C 415.94835 469.5275 416.94835 381.24625 398.21875 381.03125 C 382.24825 381.11425 366.2809 381.18175 350.3125 381.46875 C 336.45268 381.80279 322.5939 382.30025 308.75 382.9375 C 309.48341 361.0221 310.20252 339.10407 310.90625 317.1875 C 312.07765 279.7685 311.906 242.015 316.9375 204.875 C 319.86547 191.69959 276.01795 178.06585 249.625 178.25 z M 512.78125 753.21875 C 513.63084 754.86153 514.47675 756.50081 515.15625 758.21875 C 515.30225 758.58775 515.01075 759.735 514.84375 759.375 C 513.92903 757.40237 513.25833 755.34808 512.78125 753.21875 z "
     id="path10281" />
</svg>
