<?xml version="1.0" encoding="utf-8" ?>

<!DOCTYPE svg PUBLIC "-//W3C//DTD SVG 1.1//EN" 
  "http://www.w3.org/Graphics/SVG/1.1/DTD/svg11.dtd">
<svg 
    xmlns="http://www.w3.org/2000/svg"
    xmlns:xlink="http://www.w3.org/1999/xlink"
    xmlns:sodipodi="http://sodipodi.sourceforge.net/DTD/sodipodi-0.dtd"
    xmlns:inkscape="http://www.inkscape.org/namespaces/inkscape"
    width="1024" height="1024" id="U6237">
<path d="m 9701.4084,18576.818 c 19.7129,22.273 41.4023,42.697 62.4596,63.678 14.7707,15.258 7.6312,7.635 21.4426,22.847 12.2816,13.732 -52.4518,71.628 -64.7334,57.896 l 0,0 c -11.1462,-12.701 -5.1946,-6.165 -17.9248,-19.545 -22.3728,-22.47 -45.3796,-44.312 -67.2061,-67.321 -12.2093,-13.993 53.7528,-71.548 65.9621,-57.555 z" id="path24831" inkscape:connector-curvature="0" style="fill:#550000;fill-opacity:1;fill-rule:nonzero;stroke:#f9f9f9;stroke-width:0.1;stroke-miterlimit:4;stroke-dasharray:none" transform="translate(-9216, -18432)"/><path d="m 9438.4137,18787.096 c 46.023,-11.019 92.9448,-17.537 139.8035,-23.776 65.4409,-8.712 131.301,-13.374 197.2474,-15.744 40.5052,-0.938 81.2103,-0.86 121.2472,5.903 42.2593,10.421 58.2215,32.348 60.7817,75.143 -2.1476,32.663 -10.9904,64.425 -18.6229,96.131 -6.4325,27.612 -11.6817,55.403 -21.7449,81.972 -6.7923,17.2 -87.8727,-14.819 -81.0803,-32.019 l 0,0 c 9.581,-22.352 12.0897,-46.961 18.6474,-70.246 5.9193,-24.52 12.2942,-49.045 15.5072,-74.103 0.79,-1.086 7.2304,7.451 8.3829,8.314 1.6913,1.267 7.7025,3.291 6.0042,2.034 -1.088,-0.806 -2.487,-1.071 -3.7304,-1.606 -33.6543,-7.144 -68.4511,-6.153 -102.6555,-6.294 -63.0107,1.768 -125.9549,5.991 -188.4148,14.775 -43.0046,6.092 -86.2213,12.217 -128.1425,23.878 -17.896,4.928 -41.1261,-79.434 -23.2302,-84.362 z" id="path24833" inkscape:connector-curvature="0" style="fill:#550000;fill-opacity:1;fill-rule:nonzero;stroke:#f9f9f9;stroke-width:0.1;stroke-miterlimit:4;stroke-dasharray:none" transform="translate(-9216, -18432)"/><path d="m 9504.58,18979.464 c 40.6869,-3.129 81.4319,-5.217 122.1921,-7.104 58.7259,-2.498 117.4071,-5.921 176.0796,-9.432 16.3239,1.509 72.3913,-8.307 86.4127,-1.468 10.4985,5.121 19.6593,12.62 29.4889,18.931 11.0198,15.072 -60.0335,67.02 -71.0532,51.947 l 0,0 c 8.9904,5.163 17.9024,10.464 26.9714,15.488 2.6866,1.488 -6.0546,-1.212 -9.1251,-1.274 -19.334,-0.386 -38.6602,1.142 -57.9689,1.742 -58.8437,2.995 -117.6625,6.445 -176.508,9.406 -39.4854,2.151 -79.0094,4.249 -118.2866,9.013 -18.5082,1.74 -26.7111,-85.508 -8.2029,-87.249 z" id="path24835" inkscape:connector-curvature="0" style="fill:#550000;fill-opacity:1;fill-rule:nonzero;stroke:#f9f9f9;stroke-width:0.1;stroke-miterlimit:4;stroke-dasharray:none" transform="translate(-9216, -18432)"/><path d="m 9611.9867,18858.763 c -18.7698,43.316 -34.2709,87.955 -49.7101,132.536 -22.4514,66.444 -44.1829,133.133 -65.0116,200.103 -12.6278,40.823 -24.1037,81.988 -35.1415,123.265 -3.2564,12.317 -1.6881,6.49 -4.6895,17.484 -5.1838,17.815 -89.1646,-6.622 -83.9807,-24.437 l 0,0 c 3.1224,-10.022 1.4428,-4.502 4.9901,-16.575 12.3287,-41.819 24.718,-83.623 37.8683,-125.192 21.4529,-67.503 43.4588,-134.83 65.6034,-202.108 15.7065,-46.574 31.7203,-93.052 49.4406,-138.907 7.1766,-17.105 87.8077,16.727 80.631,33.831 z" id="path24837" inkscape:connector-curvature="0" style="fill:#550000;fill-opacity:1;fill-rule:nonzero;stroke:#f9f9f9;stroke-width:0.1;stroke-miterlimit:4;stroke-dasharray:none" transform="translate(-9216, -18432)"/></svg>