<?xml version="1.0" encoding="utf-8" ?>

<!DOCTYPE svg PUBLIC "-//W3C//DTD SVG 1.1//EN" 
  "http://www.w3.org/Graphics/SVG/1.1/DTD/svg11.dtd">
<svg 
    xmlns="http://www.w3.org/2000/svg"
    xmlns:xlink="http://www.w3.org/1999/xlink"
    xmlns:sodipodi="http://sodipodi.sourceforge.net/DTD/sodipodi-0.dtd"
    xmlns:inkscape="http://www.inkscape.org/namespaces/inkscape"
    width="1024" height="1024" id="U62A5">
<path d="m 10338.317,1454.1077 c 40.086,0.9729 80.197,0.2151 120.276,-0.7627 28.996,-3.6095 60.644,2.0814 88.954,-6.7141 18.07,-4.0602 37.21,81.1199 19.14,85.1801 l 0,0 c -34.886,6.8292 -70.617,5.8647 -106.008,7.3226 -40.977,0.9933 -81.959,1.6811 -122.941,2.434 -18.553,-0.1229 -17.974,-87.5828 0.579,-87.4599 z" id="path19831" inkscape:connector-curvature="0" style="fill:#aa0000;fill-opacity:1;fill-rule:nonzero;stroke:#f9f9f9;stroke-width:0.1;stroke-miterlimit:4;stroke-dasharray:none" transform="translate(-10240, -1024)"/><path d="m 10556.05,1290.8489 c -12.689,39.4888 -20.295,80.49 -28.793,121.0378 -16.817,78.3126 -29.432,157.3836 -39.094,236.8698 -8.017,68.642 -9.943,137.7407 -9.768,206.7819 0.352,27.608 0.226,14.4188 0.397,39.5675 -0.105,18.3367 -86.546,17.839 -86.44,-0.4978 l 0,0 c 0.465,-24.6802 0.28,-11.4913 0.496,-39.5675 1.002,-72.2697 3.658,-144.5725 12.11,-216.4125 9.958,-81.6955 22.623,-163.0088 39.067,-243.671 8.94,-45.3053 16.94,-91.0023 30.108,-135.3147 6.62,-17.3772 88.537,13.8293 81.917,31.2065 z" id="path19833" inkscape:connector-curvature="0" style="fill:#aa0000;fill-opacity:1;fill-rule:nonzero;stroke:#f9f9f9;stroke-width:0.1;stroke-miterlimit:4;stroke-dasharray:none" transform="translate(-10240, -1024)"/><path d="m 10288.007,1745.7435 c 42.894,-21.2335 87.896,-37.7653 132.719,-54.3805 40.739,-14.4646 81.167,-29.7107 120.158,-48.4196 16.501,-7.753 53.049,70.0319 36.548,77.7849 l 0,0 c -41.394,19.097 -83.973,35.2443 -126.916,50.5196 -40.78,15.3015 -81.944,30.3541 -120.328,51.1353 -16.258,8.9481 -58.439,-67.6917 -42.181,-76.6397 z" id="path19835" inkscape:connector-curvature="0" style="fill:#aa0000;fill-opacity:1;fill-rule:nonzero;stroke:#f9f9f9;stroke-width:0.1;stroke-miterlimit:4;stroke-dasharray:none" transform="translate(-10240, -1024)"/><path d="m 10649.929,1249.7749 c 33.199,-10.1541 67.894,-13.0134 102.365,-15.0407 36.424,-1.9462 72.855,-0.6623 108.972,4.3113 29.811,4.1567 56.747,15.21 81.036,32.6874 30.474,25.6615 37.622,60.8334 35.99,98.807 -5.075,42.6021 -24.487,80.94 -45.328,117.7558 -13.384,23.8612 -30.054,45.173 -48.873,64.8865 -12.929,13.0894 -74.633,-47.8577 -61.704,-60.9471 l 0,0 c 14.279,-13.5854 25.707,-29.4852 35.637,-46.5119 14.416,-25.2678 28.495,-51.4433 33.557,-80.4301 0.82,-7.764 2.503,-17.0717 -1.977,-24.0383 -11.051,-10.1337 -26.543,-13.2444 -40.759,-16.3153 -30.258,-4.6557 -60.874,-5.5418 -91.444,-3.9997 -26.457,1.5804 -53.32,3.3062 -78.689,11.584 -17.554,6.1056 -46.336,-76.6433 -28.783,-82.7489 z" id="path19837" inkscape:connector-curvature="0" style="fill:#aa0000;fill-opacity:1;fill-rule:nonzero;stroke:#f9f9f9;stroke-width:0.1;stroke-miterlimit:4;stroke-dasharray:none" transform="translate(-10240, -1024)"/><path d="m 10735.996,1320.3732 c -13.237,38.2252 -20.949,78.2266 -30.192,117.5629 -17.899,75.8134 -37.897,151.1041 -56.652,226.7055 -15.653,62.7717 -28.258,126.2383 -35.612,190.5202 -1.091,15.7773 -3.31,31.6938 -2.118,47.5517 0.131,1.7458 -0.768,5.5146 0.948,5.1657 1.733,-0.3524 0.88,-3.9794 -0.299,-5.2977 -8.882,-9.9303 -19.348,-18.3218 -29.021,-27.4827 18.208,4.0806 -1.028,89.9145 -19.237,85.8338 l 0,0 c -11.411,-9.5503 -24.507,-17.3888 -34.232,-28.6508 -11.121,-12.8772 -1.899,-71.7813 -1.047,-87.5667 8.825,-67.5484 22.36,-134.3096 38.995,-200.37 18.709,-75.0646 38.44,-149.8864 55.362,-225.3843 9.874,-44.3366 17.994,-89.3186 32.316,-132.4897 7.192,-17.1377 87.98,16.7644 80.789,33.9021 z" id="path19839" inkscape:connector-curvature="0" style="fill:#aa0000;fill-opacity:1;fill-rule:nonzero;stroke:#f9f9f9;stroke-width:0.1;stroke-miterlimit:4;stroke-dasharray:none" transform="translate(-10240, -1024)"/><path d="m 10600.464,1627.6518 c 32.245,-22.6055 70.584,-28.3321 108.922,-30.7713 45.085,-0.9464 89.839,5.4901 134.177,12.921 31.116,5.2335 61.659,13.1823 91.834,22.3028 22.587,6.4057 44.866,16.3963 52.225,41.667 2.502,8.5901 0.514,17.8865 0.771,26.8298 -14.109,41.7958 -50.541,69.2344 -83.082,96.7518 -44.035,35.6908 -89.087,70.1138 -134.542,103.9699 -27.792,21.494 -56.444,40.8183 -89.63,52.5681 -17.596,5.5283 -43.656,-77.4184 -26.061,-82.9466 l 0,0 c 24.756,-4.4805 43.824,-26.3645 64.816,-38.4601 44.091,-32.3224 87.6,-65.4686 129.736,-100.3143 14.715,-12.7127 29.485,-25.291 42.872,-39.4328 6.509,-6.876 9.605,-11.4052 9.831,-11.2788 1.42,0.7946 -0.288,3.2414 -0.431,4.8622 0.867,5.2445 0.438,10.8782 2.602,15.7337 7.6,17.0509 31.499,22.73 4.886,13.2918 -26.298,-8.5148 -52.973,-15.9087 -80.249,-20.6092 -37.84,-6.5163 -76.042,-12.2009 -114.548,-11.7227 -20.852,1.1654 -42.914,2.4724 -60.908,14.2946 -14.777,11.2898 -67.998,-58.3671 -53.221,-69.6569 z" id="path19841" inkscape:connector-curvature="0" style="fill:#aa0000;fill-opacity:1;fill-rule:nonzero;stroke:#f9f9f9;stroke-width:0.1;stroke-miterlimit:4;stroke-dasharray:none" transform="translate(-10240, -1024)"/><path d="m 10647.49,1688.9241 c 33.961,15.0817 66.055,33.9808 97.9,53.0274 47.184,28.49 92.378,60.0759 137.25,92.0322 34.908,25.2388 69.937,50.3104 105.502,74.6163 11.451,7.2963 6.185,4.3179 15.611,9.2575 16.092,9.1422 -27.005,85.0004 -43.097,75.8581 l 0,0 c -14.705,-8.7204 -7.32,-4.0571 -22.119,-14.046 -35.325,-25.1652 -70.419,-50.6517 -105.513,-76.1368 -42.857,-30.629 -86.091,-60.8224 -131.427,-87.7149 -27.526,-16.1649 -55.226,-32.4036 -84.714,-44.7783 -17.419,-6.4927 13.188,-88.6081 30.607,-82.1155 z" id="path19843" inkscape:connector-curvature="0" style="fill:#aa0000;fill-opacity:1;fill-rule:nonzero;stroke:#f9f9f9;stroke-width:0.1;stroke-miterlimit:4;stroke-dasharray:none" transform="translate(-10240, -1024)"/></svg>