<?xml version="1.0" encoding="utf-8" ?>

<!DOCTYPE svg PUBLIC "-//W3C//DTD SVG 1.1//EN" 
  "http://www.w3.org/Graphics/SVG/1.1/DTD/svg11.dtd">
<svg 
    xmlns="http://www.w3.org/2000/svg"
    xmlns:xlink="http://www.w3.org/1999/xlink"
    xmlns:sodipodi="http://sodipodi.sourceforge.net/DTD/sodipodi-0.dtd"
    xmlns:inkscape="http://www.inkscape.org/namespaces/inkscape"
    width="1024" height="1024" id="U62BD">
<path d="m 9329.0232,5498.0544 c 39.6882,-6.036 78.9422,-14.6357 118.249,-22.7288 36.6277,-8.1581 73.7518,-14.2924 110.1356,-23.5239 1.7498,-0.6792 3.4996,-1.3584 5.2494,-2.0376 17.5939,-5.7716 44.8015,77.1668 27.2076,82.9384 l 0,0 c -4.1409,1.2532 -8.2818,2.5065 -12.4227,3.7597 -37.4415,8.3557 -75.3436,14.5619 -112.8262,22.7467 -40.7775,8.4665 -81.4678,17.3556 -122.326,25.4278 -18.3669,2.8142 -31.6335,-83.768 -13.2667,-86.5823 z" id="path20997" inkscape:connector-curvature="0" style="fill:#800000;fill-opacity:1;fill-rule:nonzero;stroke:#f9f9f9;stroke-width:0.1;stroke-miterlimit:4;stroke-dasharray:none" transform="translate(-9216, -5120)"/><path d="m 9549.3401,5331.0582 c -20.0469,37.6387 -25.2909,81.6225 -32.3297,123.0974 -13.7918,88.2883 -21.6332,177.3352 -27.5462,266.4502 -4.5967,70.1286 -4.9338,140.4054 -2.5573,210.6141 1.3311,28.8113 0.5926,15.1245 2.1557,41.0636 0.8825,18.2877 -85.3264,22.4477 -86.2088,4.16 l 0,0 c -1.003,-27.2203 -0.5284,-12.8984 -1.3889,-42.9667 -1.4057,-72.8757 -0.4441,-145.7842 4.5847,-218.5273 6.3501,-91.7237 14.5031,-183.3616 27.6686,-274.3906 8.6567,-55.0437 15.8536,-112.7503 45.0575,-161.3863 11.0066,-14.969 81.571,36.9166 70.5644,51.8856 z" id="path20999" inkscape:connector-curvature="0" style="fill:#800000;fill-opacity:1;fill-rule:nonzero;stroke:#f9f9f9;stroke-width:0.1;stroke-miterlimit:4;stroke-dasharray:none" transform="translate(-9216, -5120)"/><path d="m 9272.8111,5848.745 c 34.2522,-36.741 78.709,-61.3334 122.2563,-85.2712 47.1409,-25.1585 96.2438,-46.2951 144.3077,-69.5647 16.4973,-7.8447 53.4773,69.9243 36.98,77.7689 l 0,0 c -46.8146,21.88 -94.4887,42.0042 -140.0662,66.4501 -33.4038,18.5363 -68.0353,37.1443 -94.8352,64.907 -11.5166,14.5613 -80.1592,-39.7288 -68.6426,-54.2901 z" id="path21001" inkscape:connector-curvature="0" style="fill:#800000;fill-opacity:1;fill-rule:nonzero;stroke:#f9f9f9;stroke-width:0.1;stroke-miterlimit:4;stroke-dasharray:none" transform="translate(-9216, -5120)"/><path d="m 9670.2286,5506.5494 c -4.7818,41.8494 -2.1582,84.2206 -0.5112,126.1923 2.3163,63.7516 9.0361,127.1698 18.3521,190.2417 3.96,26.0866 8.4754,52.093 16.0085,77.3994 4.8737,17.7221 -78.669,40.6972 -83.5427,22.9751 l 0,0 c -7.5177,-29.0457 -12.861,-58.5329 -16.8837,-88.2721 -9.1781,-65.9125 -15.9129,-132.1251 -18.8248,-198.6368 -2.3048,-48.0519 -5.5298,-96.418 -1.0333,-144.433 3.083,-18.3356 89.518,-3.8023 86.4351,14.5334 z" id="path21003" inkscape:connector-curvature="0" style="fill:#800000;fill-opacity:1;fill-rule:nonzero;stroke:#f9f9f9;stroke-width:0.1;stroke-miterlimit:4;stroke-dasharray:none" transform="translate(-9216, -5120)"/><path d="m 9643.7462,5561.4308 c 27.919,-31.7781 67.9861,-44.0521 107.6806,-53.8037 44.9033,-9.1074 90.516,-14.2568 136.0968,-18.5604 30.9551,-3.2374 61.9465,-2.7452 92.4609,3.3704 39.3855,10.7564 54.8495,28.3662 69.0115,66.0908 10.732,51.507 -0.718,104.1643 -9.547,155.124 -9.646,49.874 -17.497,100.0644 -26.324,150.0816 -4.674,21.6196 -1.886,11.0475 -8.306,31.7319 -5.8843,17.5 -88.3801,-10.237 -82.4962,-27.737 l 0,0 c 4.3552,-11.0848 2.1477,-4.5573 5.8994,-19.8123 9.7229,-49.4074 17.8439,-99.123 27.195,-148.6018 6.2673,-37.3483 13.9437,-75.4262 10.9479,-113.4598 -0.2303,-5.5707 3.4913,-5.4427 -4.7466,-8.0996 -21.7143,-5.3311 -44.2207,-4.4329 -66.3657,-2.8187 -41.3243,3.5225 -82.6616,8.1044 -123.3354,16.3811 -20.1297,4.9062 -41.4018,9.5684 -58.0337,22.7166 -11.1588,14.8785 -81.2963,-37.7247 -70.1375,-52.6031 z" id="path21005" inkscape:connector-curvature="0" style="fill:#800000;fill-opacity:1;fill-rule:nonzero;stroke:#f9f9f9;stroke-width:0.1;stroke-miterlimit:4;stroke-dasharray:none" transform="translate(-9216, -5120)"/><path d="m 9697.4363,5682.849 c 40.2043,-19.9829 85.1423,-25.1558 129.3108,-28.4794 38.0028,-2.3847 75.8689,-0.036 113.0656,7.884 17.9126,4.1406 -1.6063,88.5814 -19.5189,84.4408 l 0,0 c -28.4268,-7.4584 -57.9583,-8.02 -87.2029,-6.731 -30.822,2.2415 -62.6009,5.0398 -90.9999,18.2405 -15.9852,9.4727 -60.6399,-65.8822 -44.6547,-75.3549 z" id="path21007" inkscape:connector-curvature="0" style="fill:#800000;fill-opacity:1;fill-rule:nonzero;stroke:#f9f9f9;stroke-width:0.1;stroke-miterlimit:4;stroke-dasharray:none" transform="translate(-9216, -5120)"/><path d="m 9699.2932,5832.9768 c 41.2861,6.2435 83.5459,1.1207 124.9138,-2.1203 47.4998,-4.0948 95.0274,-7.8276 142.7018,-8.8963 4.2107,-0.063 8.4214,-0.1257 12.632,-0.1885 18.4551,0.01 18.417,87.0063 -0.038,86.9982 l 0,0 c -3.8775,-0.066 -7.755,-0.1327 -11.6325,-0.199 -45.7317,-0.07 -91.3336,3.355 -136.8776,7.2673 -51.0756,4.1524 -103.0633,10.3372 -153.9833,1.7032 -17.9389,-4.7271 4.345,-89.2917 22.2839,-84.5646 z" id="path21009" inkscape:connector-curvature="0" style="fill:#800000;fill-opacity:1;fill-rule:nonzero;stroke:#f9f9f9;stroke-width:0.1;stroke-miterlimit:4;stroke-dasharray:none" transform="translate(-9216, -5120)"/><path d="m 9812.9252,5284.4459 c -7.5546,52.0672 -8.7301,104.8672 -10.5886,157.3742 -3.7471,93.7025 0.015,187.3546 9.0775,280.6251 6.5173,52.4232 3.0062,26.9516 10.4285,76.4293 2.5455,17.7251 -81.0115,29.7246 -83.557,11.9994 l 0,0 c -7.186,-52.2441 -3.781,-25.3741 -10.1186,-80.6222 -8.7572,-96.7126 -12.5842,-193.7477 -9.8182,-290.8662 1.2719,-55.9661 2.0946,-112.0789 7.953,-167.7977 2.7277,-18.3756 89.351,-5.5174 86.6234,12.8581 z" id="path21011" inkscape:connector-curvature="0" style="fill:#800000;fill-opacity:1;fill-rule:nonzero;stroke:#f9f9f9;stroke-width:0.1;stroke-miterlimit:4;stroke-dasharray:none" transform="translate(-9216, -5120)"/></svg>