<?xml version="1.0" encoding="UTF-8" standalone="no"?>
<svg
   xmlns:dc="http://purl.org/dc/elements/1.1/"
   xmlns:cc="http://creativecommons.org/ns#"
   xmlns:rdf="http://www.w3.org/1999/02/22-rdf-syntax-ns#"
   xmlns:svg="http://www.w3.org/2000/svg"
   xmlns="http://www.w3.org/2000/svg"
   xmlns:sodipodi="http://sodipodi.sourceforge.net/DTD/sodipodi-0.dtd"
   xmlns:inkscape="http://www.inkscape.org/namespaces/inkscape"
   width="1024"
   height="1024"
   id="U6253"
   version="1.1"
   inkscape:version="0.48.0 r9654"
   sodipodi:docname="U+6253.svg">
  <metadata
     id="metadata12">
    <rdf:RDF>
      <cc:Work
         rdf:about="">
        <dc:format>image/svg+xml</dc:format>
        <dc:type
           rdf:resource="http://purl.org/dc/dcmitype/StillImage" />
      </cc:Work>
    </rdf:RDF>
  </metadata>
  <defs
     id="defs10" />
  <sodipodi:namedview
     pagecolor="#ffffff"
     bordercolor="#666666"
     borderopacity="1"
     objecttolerance="10"
     gridtolerance="10"
     guidetolerance="10"
     inkscape:pageopacity="0"
     inkscape:pageshadow="2"
     inkscape:window-width="640"
     inkscape:window-height="480"
     id="namedview8"
     showgrid="false"
     inkscape:zoom="0.27441406"
     inkscape:cx="512"
     inkscape:cy="512"
     inkscape:window-x="0"
     inkscape:window-y="25"
     inkscape:window-maximized="0"
     inkscape:current-layer="U6253" />
  <path
     style="fill:#800000;fill-opacity:1;fill-rule:nonzero;stroke:#f9f9f9;stroke-width:0.1;stroke-miterlimit:4;stroke-dasharray:none"
     d="M 760.25 252.71875 C 759.9695 252.72424 759.68862 252.76457 759.40625 252.8125 C 709.17355 261.9706 658.58205 269.1063 607.90625 275.3125 C 560.45355 280.8572 512.97205 285.9555 465.40625 290.4375 C 446.99615 292.6942 457.62125 379.47545 476.03125 377.21875 C 523.26625 370.73795 570.6732 365.5759 618 359.8125 C 670.0531 353.2601 722.0526 346.1926 773.875 338 C 791.66443 334.98013 777.92142 252.37294 760.25 252.71875 z M 285.625 254.34375 C 282.10658 254.51275 279.47488 255.63035 278.1875 257.90625 C 257.6866 301.87975 254.3227 351.20905 249.9375 398.84375 C 249.47276 404.84577 249.04256 410.83892 248.625 416.84375 C 245.63762 417.21366 242.67276 417.57871 239.6875 417.96875 C 200.9944 423.15345 162.2319 428.67345 124.3125 438.15625 C 106.4801 443.35145 130.9801 527.41405 148.8125 522.21875 C 179.92821 513.35279 212.00323 508.50763 244 504 C 242.44038 543.79726 241.5144 583.62187 240.78125 623.4375 C 240.73839 625.93805 240.69323 628.43692 240.65625 630.9375 C 235.84349 633.06216 231.04285 635.20281 226.25 637.375 C 174.8722 661.8368 121.171 686.53875 81.4375 728.46875 C 70.132 743.20885 139.632 796.4901 150.9375 781.75 C 176.54118 757.02106 208.4571 740.0621 240.4375 724.46875 C 240.58336 741.71508 240.80936 758.97395 241.09375 776.21875 C 241.50735 794.39915 327.2261 792.4305 326.8125 774.25 C 325.96215 745.08493 325.36284 715.92528 325.125 686.75 C 368.03915 669.06051 411.42315 652.48661 454.34375 634.8125 C 487.45065 620.4392 471.4552 627.7382 502.4375 613.0625 C 518.8317 605.1408 481.48795 527.85945 465.09375 535.78125 C 437.50645 549.41155 452.0054 542.53405 421.5625 556.21875 C 389.81429 569.65596 357.7453 582.39636 325.78125 595.3125 C 326.43169 561.76733 327.33074 528.2021 328.875 494.6875 C 347.74693 493.05757 366.6229 491.60365 385.5 490.0625 C 403.7402 488.4541 396.1777 402.4541 377.9375 404.0625 C 363.46581 405.43575 348.97942 406.75596 334.5 408.0625 C 334.52895 407.72847 334.56461 407.39652 334.59375 407.0625 C 338.24455 371.5297 340.5082 334.3646 354.5 301.0625 C 362.36723 287.1542 307.12644 253.311 285.625 254.34375 z M 686.9375 379.375 C 673.19994 379.67084 662.41783 382.56362 661.625 388.90625 C 658.4543 430.02055 652.7902 470.8286 646.5 511.5625 C 635.4408 577.1441 622.32995 642.37315 609.65625 707.65625 C 601.75084 739.26946 599.23803 772.52583 590.0625 803.875 C 589.86681 803.88363 589.83457 803.89779 589.625 803.90625 C 577.4193 804.57735 565.3133 803.4632 553.25 801.75 C 534.9768 799.2452 523.1643 885.3702 541.4375 887.875 C 559.2254 890.2575 577.0793 892.047 595.0625 891.0625 C 631.238 888.4967 656.57615 876.8077 669.78125 840.6875 C 680.99215 802.4109 685.14125 762.5482 693.21875 723.5625 C 705.57355 657.3622 718.74435 591.32475 730.59375 525.03125 C 737.46975 483.40075 743.55675 441.67505 748.59375 399.78125 C 750.10732 387.67258 713.16375 378.81022 686.9375 379.375 z M 588.09375 810.3125 C 587.62396 811.74974 587.12823 813.19737 586.625 814.625 C 586.1814 815.0797 585.3365 816.60345 585.3125 815.96875 C 585.24817 814.25721 586.63469 812.11836 588.09375 810.3125 z "
     id="path21519" />
</svg>
