<?xml version="1.0" encoding="UTF-8" standalone="no"?>
<svg
   xmlns:dc="http://purl.org/dc/elements/1.1/"
   xmlns:cc="http://creativecommons.org/ns#"
   xmlns:rdf="http://www.w3.org/1999/02/22-rdf-syntax-ns#"
   xmlns:svg="http://www.w3.org/2000/svg"
   xmlns="http://www.w3.org/2000/svg"
   xmlns:sodipodi="http://sodipodi.sourceforge.net/DTD/sodipodi-0.dtd"
   xmlns:inkscape="http://www.inkscape.org/namespaces/inkscape"
   width="1024"
   height="1024"
   id="U627E"
   version="1.1"
   inkscape:version="0.48.0 r9654"
   sodipodi:docname="U+627E.svg">
  <metadata
     id="metadata14">
    <rdf:RDF>
      <cc:Work
         rdf:about="">
        <dc:format>image/svg+xml</dc:format>
        <dc:type
           rdf:resource="http://purl.org/dc/dcmitype/StillImage" />
      </cc:Work>
    </rdf:RDF>
  </metadata>
  <defs
     id="defs12" />
  <sodipodi:namedview
     pagecolor="#ffffff"
     bordercolor="#666666"
     borderopacity="1"
     objecttolerance="10"
     gridtolerance="10"
     guidetolerance="10"
     inkscape:pageopacity="0"
     inkscape:pageshadow="2"
     inkscape:window-width="640"
     inkscape:window-height="480"
     id="namedview10"
     showgrid="false"
     inkscape:zoom="0.27441406"
     inkscape:cx="512"
     inkscape:cy="512"
     inkscape:window-x="0"
     inkscape:window-y="25"
     inkscape:window-maximized="0"
     inkscape:current-layer="U627E" />
  <path
     style="fill:#2b1100;fill-opacity:1;fill-rule:nonzero;stroke:none"
     d="M 755.09375 132.6875 C 731.87748 133.06647 679.00679 162.99336 686.0625 176.84375 C 706.1648 211.12475 734.91395 238.9325 762.90625 266.6875 C 783.31605 286.9275 773.23855 276.88775 793.09375 296.84375 C 806.11925 309.89275 867.6505 248.4875 854.625 235.4375 C 834.4314 215.2705 844.59095 225.38175 824.15625 205.09375 C 802.83505 183.83375 780.33565 162.80225 764.90625 136.65625 C 763.44186 133.78164 759.91222 132.60885 755.09375 132.6875 z M 254.84375 171.65625 C 246.22933 171.69666 239.97375 173.607 238.71875 178.125 C 229.21235 222.813 230.50885 268.86325 230.78125 314.28125 C 230.78947 314.8022 230.80446 315.32279 230.8125 315.84375 C 195.16851 319.39475 159.52972 322.89602 123.75 324.65625 C 105.0235 325.62725 109.586 413.9085 128.3125 412.9375 C 162.72355 409.75612 197.09515 406.1527 231.46875 402.59375 C 231.54061 451.4161 231.22512 500.24064 231.125 549.0625 C 231.08934 554.21233 231.06209 559.35096 231.0625 564.5 C 227.5132 566.30815 223.94497 568.1392 220.40625 569.96875 C 177.97415 592.32475 135.801 615.17975 94.875 640.21875 C 79.1379 650.44775 127.35665 724.605 143.09375 714.375 C 172.00575 694.80302 202.28784 677.44058 232.90625 660.6875 C 234.33819 701.31614 236.48778 741.94456 238.875 782.53125 C 240.857 813.55525 242.712 844.56325 242.8125 875.65625 C 243.1377 894.16425 330.3877 892.633 330.0625 874.125 C 329.0926 841.734 326.80815 809.439 324.40625 777.125 C 320.81455 724.03224 317.73424 670.88143 316.40625 617.6875 C 352.67395 600.24539 389.43849 583.85943 426.3125 567.75 C 443.0805 560.255 407.73665 481.1925 390.96875 488.6875 C 365.8999 500.14167 340.8421 511.59696 315.875 523.28125 C 316.10882 480.29618 316.50961 437.32873 316.71875 394.34375 C 338.84358 392.5927 361.01165 391.35877 383.21875 391.21875 C 401.79665 390.86175 400.10915 303.268 381.53125 303.625 C 359.91653 304.27701 338.35071 305.70179 316.8125 307.5 C 316.91091 272.20161 316.38142 236.3979 323.90625 201.78125 C 327.67133 188.22725 280.687 171.53503 254.84375 171.65625 z M 611.1875 205.09375 C 592.14289 205.23065 575.03832 209.03138 574.65625 217.21875 C 576.07115 274.59475 589.70425 330.80825 602.28125 386.53125 C 603.1234 390.26645 603.97991 393.98962 604.84375 397.71875 C 590.42707 402.12283 575.95545 406.39321 561.4375 410.46875 C 523.1918 421.09175 484.8924 432.1645 445.6875 438.6875 C 427.1189 441.4565 440.1814 528.98775 458.75 526.21875 C 501.3137 517.50375 543.0666 505.33925 584.8125 493.40625 C 598.62181 489.42774 612.38774 485.33598 626.125 481.125 C 642.26205 539.05528 661.0343 596.18128 682.4375 652.4375 C 663.69818 678.2326 645.00034 704.06407 626.15625 729.78125 C 589.00635 780.59725 550.91975 830.71875 511.40625 879.71875 C 502.18905 888.89975 495.39465 901.53625 484.40625 909.03125 C 481.70596 910.87258 487.27696 907.19072 491.78125 904.46875 C 479.14754 918.17653 493.18749 992.61373 510.3125 989.6875 C 517.6089 987.1725 525.29025 985.525 532.21875 982.125 C 552.56485 972.141 564.6353 949.43025 579.375 933.53125 C 618.7039 882.98825 657.0394 831.6995 694.75 779.9375 C 704.22573 766.95077 713.68236 753.95008 723.125 740.9375 C 746.45959 782.48613 774.64363 821.04943 807.1875 856.46875 C 822.1245 872.75175 839.32775 886.16675 857.28125 898.84375 C 872.66445 909.24375 921.66435 836.74375 906.28125 826.34375 C 893.10845 818.12175 881.1221 808.51475 870.25 797.34375 C 832.53468 758.08196 802.05729 713.49852 778.84375 664.53125 C 796.85457 640.09705 815.02565 615.79735 833.59375 591.78125 C 860.30375 557.92025 886.51785 522.986 918.78125 494.125 C 933.31375 482.293 877.5325 413.794 863 425.625 C 826.3755 459.514 796.39105 499.71375 766.03125 539.09375 C 758.00713 549.70058 750.05757 560.35667 742.125 571.03125 C 728.80687 532.9312 716.87214 494.36812 706.34375 455.40625 C 722.18636 450.15181 738.00803 444.83551 753.8125 439.46875 C 783.3354 429.25875 812.87635 419.14325 840.96875 405.40625 C 857.58605 396.93225 817.64855 318.5885 801.03125 327.0625 C 777.14245 340.0615 751.0595 348.22625 725.6875 357.78125 C 712.47762 362.39076 699.2507 366.94529 686 371.4375 C 685.77607 370.39473 685.53442 369.35582 685.3125 368.3125 C 675.0345 319.9365 663.3746 271.03775 662.875 221.34375 C 663.36623 210.81713 635.67343 204.91774 611.1875 205.09375 z "
     id="path14341" />
</svg>
