<?xml version="1.0" encoding="utf-8" ?>

<!DOCTYPE svg PUBLIC "-//W3C//DTD SVG 1.1//EN" 
  "http://www.w3.org/Graphics/SVG/1.1/DTD/svg11.dtd">
<svg 
    xmlns="http://www.w3.org/2000/svg"
    xmlns:xlink="http://www.w3.org/1999/xlink"
    xmlns:sodipodi="http://sodipodi.sourceforge.net/DTD/sodipodi-0.dtd"
    xmlns:inkscape="http://www.inkscape.org/namespaces/inkscape"
    width="1024" height="1024" id="U6216">
<path d="m 11506.019,19849.918 c 42.975,0.398 85.519,-9.903 127.524,-17.957 66.181,-13.488 133.015,-23.077 200.129,-30.408 44.221,-4.548 88.593,-7.555 133.034,-8.611 16.7,-0.323 33.388,-0.111 49.965,2.012 18.777,2.803 5.564,91.319 -13.213,88.516 l 0,0 c -11.591,-2.52 -23.69,-1.424 -35.44,-2.069 -41.813,0.206 -83.581,2.645 -125.204,6.615 -64.645,6.598 -129.011,15.61 -192.639,28.99 -51.653,10.297 -103.963,23.457 -156.975,21.296 -18.749,-2.719 -5.93,-91.103 12.819,-88.384 z" id="path8275" inkscape:connector-curvature="0" style="fill:#550000;fill-opacity:1;fill-rule:nonzero;stroke:#f9f9f9;stroke-width:0.1;stroke-miterlimit:4;stroke-dasharray:none" transform="translate(-11264, -19456)"/><path d="m 11868.01,19669.903 c -4.54,39.307 -0.205,79.061 3.714,118.226 9.178,80.958 28.552,160.213 48.475,239.059 19.159,74.977 40.85,149.262 64.331,222.99 11.568,35.748 24.388,71.066 38.744,105.785 0.338,2.22 8.967,15.738 0.291,1.424 12.576,14.278 -54.736,73.561 -67.311,59.282 l 0,0 c -6.4,-8.843 -12.234,-17.354 -15.571,-27.888 -14.208,-37.14 -27.125,-74.751 -38.935,-112.725 -23.165,-75.481 -44.775,-151.428 -64.349,-227.926 -20.961,-82.792 -41.413,-165.959 -51.904,-250.858 -5.197,-46.601 -10.329,-93.698 -5.936,-140.595 2.806,-18.763 91.257,-5.537 88.451,13.226 z" id="path8277" inkscape:connector-curvature="0" style="fill:#550000;fill-opacity:1;fill-rule:nonzero;stroke:#f9f9f9;stroke-width:0.1;stroke-miterlimit:4;stroke-dasharray:none" transform="translate(-11264, -19456)"/><path d="m 12012.748,20006.18 c -18.834,45.393 -36.144,91.39 -53.056,137.526 -21.928,60.452 -41.307,121.774 -59.728,183.371 -8.645,26.377 -13.556,54.203 -25.863,79.231 -9.67,16.39 -86.931,-29.192 -77.261,-45.582 l 0,0 c -0.494,1.335 -2.748,4.65 -1.48,4.004 0.718,-0.365 5.062,-12.9 5.084,-12.964 5.701,-16.676 10.509,-33.641 15.972,-50.394 19.804,-62.635 40.02,-125.147 61.968,-187.071 16.723,-46.864 33.988,-93.526 51.06,-140.262 6.819,-17.671 90.122,14.47 83.304,32.141 z" id="path8279" inkscape:connector-curvature="0" style="fill:#550000;fill-opacity:1;fill-rule:nonzero;stroke:#f9f9f9;stroke-width:0.1;stroke-miterlimit:4;stroke-dasharray:none" transform="translate(-11264, -19456)"/><path d="m 11995.238,19638.104 c 15.699,31.484 28.434,64.254 39.993,97.441 5.633,16.446 10.336,33.169 14.856,49.945 4.748,18.17 -80.906,40.554 -85.654,22.384 l 0,0 c -3.681,-14.624 -7.594,-29.184 -12.422,-43.481 -9.98,-28.946 -20.931,-57.646 -35.789,-84.502 -8.864,-16.762 70.152,-58.549 79.016,-41.787 z" id="path8281" inkscape:connector-curvature="0" style="fill:#550000;fill-opacity:1;fill-rule:nonzero;stroke:#f9f9f9;stroke-width:0.1;stroke-miterlimit:4;stroke-dasharray:none" transform="translate(-11264, -19456)"/><path d="m 11586.676,20040.293 c 0.584,28.169 4.695,56.142 9.36,83.881 4.084,16.482 5.372,34.722 13.584,49.907 7.531,17.348 -74.253,52.847 -81.783,35.498 l 0,0 c -9.181,-22.806 -14.828,-46.692 -18.849,-70.937 -5.358,-32.579 -10.001,-65.347 -11.717,-98.349 0,-18.965 89.405,-18.965 89.405,0 z" id="path8283" inkscape:connector-curvature="0" style="fill:#550000;fill-opacity:1;fill-rule:nonzero;stroke:#f9f9f9;stroke-width:0.1;stroke-miterlimit:4;stroke-dasharray:none" transform="translate(-11264, -19456)"/><path d="m 11564.101,19977.172 c 34.902,-13.814 71.747,-20.931 108.798,-25.876 30.025,-3.528 60.142,-5.134 89.647,2.108 39.818,16.242 43.818,46.54 41.097,84.329 -2.378,27.168 -4.057,54.389 -6.177,81.576 -2.044,25.477 -5.085,50.911 -11.177,75.757 -4.814,18.305 -91.105,-4.389 -86.291,-22.694 l 0,0 c 5.82,-19.417 7.119,-39.91 9.229,-59.962 2.107,-26.882 3.671,-53.803 5.644,-80.696 1.727,-27.858 -0.713,2.543 22.74,7.413 -16.415,-5.302 -36.1,-0.94 -53.359,-0.395 -28.705,3.601 -57.445,8.663 -84.191,20.166 -17.337,7.628 -53.296,-74.098 -35.96,-81.726 z" id="path8285" inkscape:connector-curvature="0" style="fill:#550000;fill-opacity:1;fill-rule:nonzero;stroke:#f9f9f9;stroke-width:0.1;stroke-miterlimit:4;stroke-dasharray:none" transform="translate(-11264, -19456)"/><path d="m 11599.021,20151.904 c 29.289,-4.428 58.389,-9.989 87.629,-14.733 23.814,-4.368 47.152,-5.975 70.521,0.728 17.78,6.757 -14.073,90.573 -31.853,83.816 l 0,0 c 1.975,0.375 3.928,0.895 5.924,1.126 0.269,0.03 0.991,-0.296 0.728,-0.357 -10.185,-2.361 -21.434,1.969 -31.537,2.116 -28.921,4.418 -57.682,9.749 -86.397,15.349 -18.677,3.186 -33.693,-84.86 -15.015,-88.045 z" id="path8287" inkscape:connector-curvature="0" style="fill:#550000;fill-opacity:1;fill-rule:nonzero;stroke:#f9f9f9;stroke-width:0.1;stroke-miterlimit:4;stroke-dasharray:none" transform="translate(-11264, -19456)"/><path d="m 11439.268,20356.846 c 48.935,-16.961 96.735,-37.015 145.066,-55.604 41.928,-16.06 84.604,-29.968 128.249,-40.49 18.219,-4.17 37.877,81.716 19.658,85.886 l 0,0 c -39.846,8.536 -78.642,21.014 -116.735,35.463 -49.268,19.038 -97.913,39.584 -147.031,58.997 -17.872,6.196 -47.079,-78.056 -29.207,-84.252 z" id="path8289" inkscape:connector-curvature="0" style="fill:#550000;fill-opacity:1;fill-rule:nonzero;stroke:#f9f9f9;stroke-width:0.1;stroke-miterlimit:4;stroke-dasharray:none" transform="translate(-11264, -19456)"/></svg>