<?xml version="1.0" encoding="utf-8" ?>

<!DOCTYPE svg PUBLIC "-//W3C//DTD SVG 1.1//EN" 
  "http://www.w3.org/Graphics/SVG/1.1/DTD/svg11.dtd">
<svg 
    xmlns="http://www.w3.org/2000/svg"
    xmlns:xlink="http://www.w3.org/1999/xlink"
    xmlns:sodipodi="http://sodipodi.sourceforge.net/DTD/sodipodi-0.dtd"
    xmlns:inkscape="http://www.inkscape.org/namespaces/inkscape"
    width="1024" height="1024" id="U6234">
<path d="m 9368.0407,7284.319 c 26.5954,-2.7656 52.9409,-7.6318 79.3786,-11.607 30.7254,-4.5854 61.5527,-8.4326 92.4107,-11.9991 22.6501,-2.6587 45.3499,-4.7201 68.1666,-4.4931 9.6908,0.2881 19.2994,1.6506 28.9538,2.3488 18.7897,1.7269 10.6488,90.3023 -8.1409,88.5753 l 0,0 c -7.5106,-0.9433 -15.0148,-1.9597 -22.5536,-2.6491 -18.9369,-0.6721 -37.7913,1.4832 -56.6105,3.3593 -29.7745,3.2637 -59.5205,6.8195 -89.1445,11.2675 -28.4151,4.333 -56.6852,9.6115 -85.175,13.4294 -18.7169,1.5455 -26.0021,-86.6865 -7.2852,-88.232 z" id="path10015" inkscape:connector-curvature="0" style="fill:#c83737;fill-opacity:1;fill-rule:nonzero;stroke:#f9f9f9;stroke-width:0.1;stroke-miterlimit:4;stroke-dasharray:none" transform="translate(-9216, -7168)"/><path d="m 9560.7434,7216.7381 c -7.1302,26.5911 -10.9243,53.9269 -14.6746,81.1549 -3.6587,28.5861 -6.6206,57.27 -8.1459,86.0522 -0.6075,10.5075 -0.037,20.9593 2.4703,31.1751 0.436,-1.3355 -4.4865,-10.2263 -4.5014,-10.2556 10.7326,15.5263 -62.4589,66.1204 -73.1915,50.5941 l 0,0 c -3.9332,-7.1901 -7.7835,-13.8275 -9.0792,-22.0202 -3.5358,-18.0457 -4.7058,-36.3756 -3.3936,-54.7475 2.0415,-30.9725 5.3823,-61.8398 9.3372,-92.6242 4.1763,-30.7642 8.6035,-61.5358 15.6164,-91.8071 4.7684,-18.1505 90.3306,4.3278 85.5623,22.4783 z" id="path10017" inkscape:connector-curvature="0" style="fill:#c83737;fill-opacity:1;fill-rule:nonzero;stroke:#f9f9f9;stroke-width:0.1;stroke-miterlimit:4;stroke-dasharray:none" transform="translate(-9216, -7168)"/><path d="m 9297.2345,7452.3228 c 37.6051,3.689 75.3477,-1.19 112.6719,-5.5486 64.2776,-8.7877 128.6087,-17.0862 193.0895,-24.2391 64.001,-7.2259 128.2576,-11.5738 192.5694,-14.7598 51.1229,-2.4564 102.2994,-3.4907 153.4235,-5.8899 32.1074,-1.5281 63.9762,-6.1208 96.1392,-6.3092 14.464,0.7927 7.344,0.085 21.362,2.0818 18.492,3.2014 3.401,90.3727 -15.091,87.1714 l 0,0 c -3.409,-1.2079 -1.141,-0.5537 -6.979,-1.2096 -30.626,-0.9186 -61.0692,4.4059 -91.6691,4.9761 -51.0148,2.04 -102.0698,2.8636 -153.0775,5.1215 -62.5278,2.877 -125.0118,6.8684 -187.2301,13.8883 -64.1996,7.1377 -128.2332,15.5379 -192.1656,24.7698 -43.4411,5.4412 -87.1801,10.8367 -131.0475,7.9943 -18.6776,-1.6979 -10.6733,-89.745 8.0043,-88.047 z" id="path10019" inkscape:connector-curvature="0" style="fill:#c83737;fill-opacity:1;fill-rule:nonzero;stroke:#f9f9f9;stroke-width:0.1;stroke-miterlimit:4;stroke-dasharray:none" transform="translate(-9216, -7168)"/><path d="m 9806.5514,7241.0163 c 3.512,35.5923 9.5032,70.8893 15.0171,106.2114 9.0696,58.6774 18.0887,117.355 28.9666,175.7282 11.9722,64.0294 30.0607,126.5849 51.2992,188.0865 18.3913,52.0411 40.8378,102.4797 65.8144,151.6579 15.0526,29.2759 31.8678,57.661 53.4613,82.5871 10.559,11.5125 23.471,20.3267 36.767,28.3424 5.066,2.8952 2.87,1.882 6.428,3.3683 16.78,8.4564 -23.083,87.561 -39.864,79.1047 l 0,0 c -9.197,-4.8566 -4.798,-2.3609 -13.22,-7.445 -20.8619,-13.2366 -40.8148,-27.9921 -57.0347,-46.8339 -25.4534,-30.6651 -46.3243,-64.5305 -63.9399,-100.2848 -26.2223,-52.8494 -49.9025,-106.9416 -69.447,-162.6467 -22.4068,-65.4894 -41.6157,-132.0438 -54.5129,-200.1235 -11.1651,-59.0789 -20.5103,-118.4602 -30.1849,-177.7975 -6.1287,-37.0281 -12.5142,-74.0239 -17.5329,-111.224 -1.8521,-18.6639 86.1306,-27.395 87.9827,-8.7311 z" id="path10021" inkscape:connector-curvature="0" style="fill:#c83737;fill-opacity:1;fill-rule:nonzero;stroke:#f9f9f9;stroke-width:0.1;stroke-miterlimit:4;stroke-dasharray:none" transform="translate(-9216, -7168)"/><path d="m 9998.6018,7622.4802 c -21.6515,26.0619 -40.763,54.0977 -59.4766,82.3017 -26.2972,39.65 -48.4926,81.7141 -68.3611,124.8821 -13.5904,30.4007 -24.8097,61.771 -34.9714,93.4589 -2.535,9.0003 -5.6108,17.7981 -8.961,26.5188 -7.1284,17.3624 -88.9755,-16.2413 -81.8471,-33.6037 l 0,0 c 3.1639,-6.5767 5.0896,-13.6239 7.4621,-20.5103 11.8088,-34.6626 24.4806,-69.0618 39.7004,-102.3955 21.9681,-46.8716 46.2289,-92.644 74.5699,-136.0225 20.0674,-30.7006 40.7038,-61.0407 63.0116,-90.1724 11.7824,-14.6102 80.6554,40.9327 68.8732,55.5429 z" id="path10023" inkscape:connector-curvature="0" style="fill:#c83737;fill-opacity:1;fill-rule:nonzero;stroke:#f9f9f9;stroke-width:0.1;stroke-miterlimit:4;stroke-dasharray:none" transform="translate(-9216, -7168)"/><path d="m 9973.1151,7213.4218 c 0.3415,18.5879 7.7908,35.7533 15.6219,52.2647 6.6498,12.7385 3.2884,6.5764 10.0539,18.5028 9.0571,16.3029 -67.7955,58.9984 -76.8526,42.6955 l 0,0 c -8.5079,-15.5674 -4.249,-7.4952 -12.7342,-24.2393 -12.73,-27.786 -23.4456,-56.6424 -24.6232,-87.5533 -0.3544,-18.7809 88.1798,-20.4514 88.5342,-1.6704 z" id="path10025" inkscape:connector-curvature="0" style="fill:#c83737;fill-opacity:1;fill-rule:nonzero;stroke:#f9f9f9;stroke-width:0.1;stroke-miterlimit:4;stroke-dasharray:none" transform="translate(-9216, -7168)"/><path d="m 9411.0618,7607.1159 c -2.3619,24.5821 -2.2768,49.2794 -1.1362,73.9187 1.5334,23.2396 3.9471,46.4052 5.5435,69.6403 -0.068,0.686 2.286,37.6543 1.2303,24.7056 -2.0372,-5.0023 -4.0744,-10.0046 -6.1116,-15.0069 10.6854,15.5604 -62.6668,65.9319 -73.3522,50.3715 l 0,0 c -2.4972,-5.6721 -4.9944,-11.3443 -7.4916,-17.0164 -1.9109,-12.4599 -1.6732,-24.95 -2.238,-37.5281 -1.337,-23.7791 -3.7092,-47.4803 -5.1027,-71.256 -1.2111,-27.9743 -1.156,-55.9499 0.3723,-83.9174 1.2916,-18.7284 89.5778,-12.6397 88.2862,6.0887 z" id="path10027" inkscape:connector-curvature="0" style="fill:#c83737;fill-opacity:1;fill-rule:nonzero;stroke:#f9f9f9;stroke-width:0.1;stroke-miterlimit:4;stroke-dasharray:none" transform="translate(-9216, -7168)"/><path d="m 9381.9512,7550.0701 c 27.1574,-4.174 54.0828,-9.7578 81.0988,-14.757 33.247,-6.5426 66.752,-11.4378 100.44,-14.9876 23.0904,-2.3282 46.2844,-3.2485 69.4628,-2.095 21.2542,0.2191 39.2985,7.7394 55.9661,20.4896 20.6852,18.8655 26.3604,43.9588 26.7791,70.8333 -0.967,24.8899 -6.453,49.2871 -10.6767,73.7573 -3.2369,19.3867 -5.754,38.8829 -8.1058,58.3936 -1.6202,14.5206 -3.5302,28.9719 -7.5256,43.0398 -7.5538,16.9132 -1.9915,7.3392 -19.8496,26.6342 -15.5228,10.7159 -66.0378,-62.4593 -50.515,-73.1751 l 0,0 c -13.5056,15.8839 -10.2073,8.5374 -14.1538,19.5783 2.2014,-6.0379 3.1818,-18.808 4.4843,-26.9785 2.6757,-20.8658 5.6224,-41.6991 9.1102,-62.4463 3.3766,-19.5273 7.5964,-39.0087 8.9823,-58.8073 0.3631,-6.4298 -0.2353,-6.166 4.5469,-2.9695 9.829,4.291 2.2239,-1.2853 -4.2781,-0.1828 -18.4538,-1.3753 -36.971,-0.4706 -55.3893,1.0865 -31.2807,3.0351 -62.3781,7.4875 -93.2014,13.6852 -27.9196,5.291 -55.7487,11.0281 -83.655,16.3848 -18.5581,2.8681 -32.0782,-84.6154 -13.5202,-87.4835 z" id="path10029" inkscape:connector-curvature="0" style="fill:#c83737;fill-opacity:1;fill-rule:nonzero;stroke:#f9f9f9;stroke-width:0.1;stroke-miterlimit:4;stroke-dasharray:none" transform="translate(-9216, -7168)"/><path d="m 9417.5052,7663.5729 c 30.0942,-4.6128 60.3013,-8.3894 90.5047,-12.1979 29.8425,-4.122 59.6032,-8.7719 89.7511,-9.6794 16.611,-0.4178 32.6031,2.8041 47.8717,9.1247 17.0991,7.9044 -20.1628,88.5104 -37.2619,80.6059 l 0,0 c 4.3586,1.0588 -7.53,-2.6759 -9.0397,-1.7333 -26.9921,-0.048 -53.6122,5.1083 -80.3349,8.2984 -29.2133,3.7272 -58.4859,7.2554 -87.4074,12.8998 -18.523,2.9876 -32.6066,-84.3306 -14.0836,-87.3182 z" id="path10031" inkscape:connector-curvature="0" style="fill:#c83737;fill-opacity:1;fill-rule:nonzero;stroke:#f9f9f9;stroke-width:0.1;stroke-miterlimit:4;stroke-dasharray:none" transform="translate(-9216, -7168)"/><path d="m 9582.8531,7595.7676 c -6.698,24.5506 -10.9898,49.6935 -15.2659,74.7563 -5.1151,28.6799 -7.6744,57.6632 -7.0449,86.7775 0.6129,11.3329 1.1929,22.7471 3.4358,33.8994 2.952,18.5722 -84.5981,32.4884 -87.5502,13.9162 l 0,0 c -2.1418,-15.5057 -3.2735,-31.1323 -3.605,-46.7828 -0.1437,-34.3074 2.6669,-68.4729 8.5639,-102.2968 4.6539,-28.0913 9.54,-56.1738 16.1768,-83.8767 5.0078,-18.0926 90.2973,5.5143 85.2895,23.6069 z" id="path10033" inkscape:connector-curvature="0" style="fill:#c83737;fill-opacity:1;fill-rule:nonzero;stroke:#f9f9f9;stroke-width:0.1;stroke-miterlimit:4;stroke-dasharray:none" transform="translate(-9216, -7168)"/><path d="m 9351.4272,7783.0431 c 29.7736,-3.2419 59.2975,-8.4104 88.9162,-12.801 37.7354,-5.0842 75.5346,-9.7805 113.4763,-13.0249 28.0084,-2.2927 56.1028,-1.7915 83.8964,2.3039 10.047,1.6881 4.8833,0.653 15.4771,3.1746 18.1559,4.8676 -4.7903,90.4553 -22.9461,85.5877 l 0,0 c -2.751,-1.3736 -0.6771,-0.4549 -6.6047,-1.6388 -20.6579,-3.8537 -41.7519,-3.6925 -62.6657,-2.3948 -36.0152,2.8306 -71.877,7.3046 -107.6639,12.2055 -30.1095,4.5977 -60.1191,9.7977 -90.2389,14.3261 -18.6121,2.4706 -30.2588,-85.2677 -11.6467,-87.7383 z" id="path10035" inkscape:connector-curvature="0" style="fill:#c83737;fill-opacity:1;fill-rule:nonzero;stroke:#f9f9f9;stroke-width:0.1;stroke-miterlimit:4;stroke-dasharray:none" transform="translate(-9216, -7168)"/><path d="m 9338.7772,7890.0948 c 30.6863,-3.8582 61.1608,-9.2254 91.672,-14.2489 36.1743,-5.8099 72.5456,-10.2677 108.8033,-15.5095 28.0145,-4.13 55.891,-9.1112 84.1383,-11.3522 15.8029,-0.8651 31.6278,-0.2235 47.377,1.1612 18.7202,1.8448 10.0237,90.0926 -8.6965,88.2478 l 0,0 c -10.7664,-1.2204 -21.5966,-1.9032 -32.4378,-1.6301 -26.2133,1.5581 -52.0337,6.5934 -78.0406,9.9977 -35.6251,5.0259 -71.3471,9.3946 -106.8684,15.1326 -31.3389,5.2386 -62.6584,10.5904 -94.0024,15.7972 -18.5819,2.5339 -30.5267,-85.0619 -11.9449,-87.5958 z" id="path10039" inkscape:connector-curvature="0" style="fill:#c83737;fill-opacity:1;fill-rule:nonzero;stroke:#f9f9f9;stroke-width:0.1;stroke-miterlimit:4;stroke-dasharray:none" transform="translate(-9216, -7168)"/><path d="m 9512.3247,7829.3731 c -2.0248,26.4027 -2.8391,52.8812 -3.8242,79.3381 1.44,15.8232 -4.3608,34.2314 1.3012,49.63 -0.011,-0.5839 -0.022,-1.1679 -0.033,-1.7518 6.5639,17.6086 -76.4439,48.5511 -83.0078,30.9425 l 0,0 c -1.1794,-3.7182 -2.3589,-7.4364 -3.5383,-11.1546 -4.2268,-23.4962 -3.6245,-47.2555 -2.2895,-71.0313 1.0753,-27.1335 2.1114,-54.2686 3.1367,-81.404 1.1521,-18.7217 89.4074,-13.2906 88.2552,5.4311 z" id="path10041" inkscape:connector-curvature="0" style="fill:#c83737;fill-opacity:1;fill-rule:nonzero;stroke:#f9f9f9;stroke-width:0.1;stroke-miterlimit:4;stroke-dasharray:none" transform="translate(-9216, -7168)"/><path d="m 9650.7393,7809.3609 c -3.5196,26.0327 -6.4675,52.1375 -9.2858,78.2539 -2.4657,23.5284 -4.8174,47.098 -4.9105,70.7727 -1.5608,12.4903 5.7816,27.2182 -2.3371,6.2608 9.3399,16.3954 -67.949,60.424 -77.2889,44.0286 l 0,0 c -7.1831,-16.6887 -9.3819,-33.3842 -8.4708,-51.581 0.5997,-26.372 3.082,-52.6255 5.9823,-78.8363 2.805,-26.1914 5.8296,-52.3624 8.3117,-78.5866 2.0552,-18.6674 90.0542,-8.9795 87.9991,9.6879 z" id="path10043" inkscape:connector-curvature="0" style="fill:#c83737;fill-opacity:1;fill-rule:nonzero;stroke:#f9f9f9;stroke-width:0.1;stroke-miterlimit:4;stroke-dasharray:none" transform="translate(-9216, -7168)"/><path d="m 9311.3876,8005.5242 c 35.6261,-6.0981 71.2575,-12.1653 106.8776,-18.2988 51.6347,-8.6354 103.2764,-17.2221 154.876,-26.0655 41.8977,-7.2295 83.8384,-14.2162 126.0068,-19.6767 22.9702,-2.8514 46.0544,-4.8148 68.9543,-8.2198 6.4679,-1.0686 3.6595,-0.4995 8.4517,-1.5712 18.4831,-3.4446 34.7211,83.6855 16.2381,87.1301 l 0,0 c -8.3187,1.3973 -4.0328,0.7368 -12.8608,1.9614 -23.2828,2.8989 -46.6778,4.7701 -69.9947,7.3647 -40.9468,4.8756 -81.6656,11.3967 -122.327,18.2285 -51.4428,8.6517 -102.9032,17.2013 -154.2882,26.1911 -34.6842,6.2662 -69.4313,12.2844 -103.9246,19.5388 -18.367,3.8203 -36.3762,-82.7623 -18.0092,-86.5826 z" id="path10049" inkscape:connector-curvature="0" style="fill:#c83737;fill-opacity:1;fill-rule:nonzero;stroke:#f9f9f9;stroke-width:0.1;stroke-miterlimit:4;stroke-dasharray:none" transform="translate(-9216, -7168)"/><path d="m 9498.2881,8103.4294 c -12.6903,14.4743 -22.9018,30.8351 -32.4057,47.5072 -4.7235,8.768 -9.6214,17.4424 -14.2235,26.2752 -1.2117,2.5382 -2.7229,4.9098 -4.226,7.2801 -10.4907,15.699 -84.4966,-33.7546 -74.0059,-49.4536 l 0,0 c -0.4289,0.7369 -2.2077,4.1004 0.1551,-0.2113 5.2841,-9.4166 10.8519,-18.6686 16.1256,-28.0917 12.2399,-20.795 25.3519,-41.0859 40.5312,-59.8861 12.0025,-14.4354 80.0517,42.1448 68.0492,56.5802 z" id="path10053" inkscape:connector-curvature="0" style="fill:#c83737;fill-opacity:1;fill-rule:nonzero;stroke:#f9f9f9;stroke-width:0.1;stroke-miterlimit:4;stroke-dasharray:none" transform="translate(-9216, -7168)"/><path d="m 9636.7872,8004.734 c 21.3388,16.1469 39.3055,35.8628 55.8815,56.7257 11.5365,15.1696 22.1116,31.0294 33.7033,46.1582 1.0737,1.7387 4.9763,6.0939 6.3235,7.6222 12.7406,13.8544 -52.5694,73.9139 -65.31,60.0596 l 0,0 c -4.1038,-4.7171 -8.0848,-9.4905 -11.6884,-14.6101 -10.9121,-14.7712 -21.1363,-30.0242 -32.0203,-44.814 -11.6395,-14.9066 -24.1306,-29.2495 -39.7422,-40.168 -15.0558,-11.2118 37.7969,-82.1853 52.8526,-70.9736 z" id="path10055" inkscape:connector-curvature="0" style="fill:#c83737;fill-opacity:1;fill-rule:nonzero;stroke:#f9f9f9;stroke-width:0.1;stroke-miterlimit:4;stroke-dasharray:none" transform="translate(-9216, -7168)"/></svg>