<?xml version="1.0" encoding="utf-8" ?>

<!DOCTYPE svg PUBLIC "-//W3C//DTD SVG 1.1//EN" 
  "http://www.w3.org/Graphics/SVG/1.1/DTD/svg11.dtd">
<svg 
    xmlns="http://www.w3.org/2000/svg"
    xmlns:xlink="http://www.w3.org/1999/xlink"
    xmlns:sodipodi="http://sodipodi.sourceforge.net/DTD/sodipodi-0.dtd"
    xmlns:inkscape="http://www.inkscape.org/namespaces/inkscape"
    width="1024" height="1024" id="U63D0">
<path d="m 9296.1036,48460.066 c 48.7605,-4.127 96.8611,-13.84 144.8143,-23.266 48.6612,-9.542 97.0314,-20.652 145.9724,-28.712 18.3943,-2.709 31.1616,84.003 12.7672,86.712 l 0,0 c -47.7853,6.058 -94.8028,16.934 -142.0616,26.03 -51.4122,10.3 -102.8752,20.731 -154.9136,27.391 -18.7006,1.396 -25.2793,-86.76 -6.5787,-88.155 z" id="path11984" inkscape:connector-curvature="0" style="fill:#782121;fill-opacity:1;fill-rule:nonzero;stroke:#f9f9f9;stroke-width:0.1;stroke-miterlimit:4;stroke-dasharray:none" transform="translate(-9216, -48128)"/><path d="m 9518.3132,48292.222 c -18.1059,30.857 -20.5446,68.1 -24.1596,102.859 -5.6136,88.515 -4.0421,177.31 -3.4573,265.948 0.4745,79.541 1.8503,159.078 1.6198,238.622 -0.2124,8.688 -0.4247,17.377 -0.6371,26.066 -0.6263,18.339 -87.0792,15.387 -86.4529,-2.953 l 0,0 c 0.358,-8.015 0.7161,-16.031 1.0742,-24.046 1.5043,-79.039 0.7553,-158.097 0.3587,-237.144 -0.5837,-91.61 -2.5327,-183.341 2.2079,-274.871 4.6404,-49.732 9.8365,-101.049 36.523,-144.615 10.6352,-15.47 83.5585,34.665 72.9233,50.134 z" id="path11986" inkscape:connector-curvature="0" style="fill:#782121;fill-opacity:1;fill-rule:nonzero;stroke:#f9f9f9;stroke-width:0.1;stroke-miterlimit:4;stroke-dasharray:none" transform="translate(-9216, -48128)"/><path d="m 9240.033,48756.772 c 40.8964,-32.624 87.1852,-57.159 134.0114,-79.995 53.1578,-24.555 108.553,-43.669 162.3849,-66.624 16.9343,-7.103 50.4189,72.726 33.4847,79.829 l 0,0 c -52.5683,21.711 -106.414,40.269 -158.1481,63.979 -40.019,19.606 -80.0199,40.403 -113.9905,69.671 -14.1831,12.249 -71.9255,-54.611 -57.7424,-66.86 z" id="path11988" inkscape:connector-curvature="0" style="fill:#782121;fill-opacity:1;fill-rule:nonzero;stroke:#f9f9f9;stroke-width:0.1;stroke-miterlimit:4;stroke-dasharray:none" transform="translate(-9216, -48128)"/><path d="m 9735.9443,48290.901 c -5.838,41.718 -4.4925,84.086 -3.7375,126.086 0.8833,41.042 2.5588,82.07 6.5906,122.929 1.6182,18.396 -85.1008,26.025 -86.719,7.629 l 0,0 c -3.3615,-42.874 -4.949,-85.849 -5.9914,-128.838 -1.04,-47.524 -2.4807,-95.29 2.7553,-142.632 3.145,-18.477 90.2471,-3.651 87.102,14.826 z" id="path11990" inkscape:connector-curvature="0" style="fill:#782121;fill-opacity:1;fill-rule:nonzero;stroke:#f9f9f9;stroke-width:0.1;stroke-miterlimit:4;stroke-dasharray:none" transform="translate(-9216, -48128)"/><path d="m 9706.1971,48274.749 c 39.6445,-13.79 80.9495,-21.802 122.1618,-29.232 43.1077,-7.307 86.4098,-13.754 130.1511,-15.116 33.8419,0.345 67.526,10.174 86.498,40.558 3.908,6.259 6.062,13.455 9.092,20.182 11.203,43.413 3.797,88.493 -1.532,132.247 -5.109,37.676 -8.868,75.523 -13.906,113.206 -2.665,18.424 -89.5167,5.863 -86.8521,-12.561 l 0,0 c 5.789,-36.857 9.709,-73.989 14.6785,-110.96 3.5358,-30.04 7.7163,-60.357 5.4105,-90.659 1.1768,-0.688 5.6658,0.961 6.056,-0.09 1.3109,-3.544 -17.9393,-4.051 -17.5569,-4.55 -39.1935,0.345 -77.9767,6.762 -116.584,13.034 -35.2837,6.43 -70.857,13.061 -104.4987,25.837 -17.3719,7.025 -50.4901,-74.867 -33.1182,-81.893 z" id="path11992" inkscape:connector-curvature="0" style="fill:#782121;fill-opacity:1;fill-rule:nonzero;stroke:#f9f9f9;stroke-width:0.1;stroke-miterlimit:4;stroke-dasharray:none" transform="translate(-9216, -48128)"/><path d="m 9767.4071,48408.174 c 36.7214,-15.397 76.354,-21.204 115.5847,-26.104 30.3699,-3.319 60.921,-4.748 91.46,-4.973 18.6167,0.07 18.2956,87.828 -0.3212,87.76 l 0,0 c -26.8374,-0.462 -53.712,0.698 -80.4109,3.499 -29.7364,3.678 -60.1383,7.509 -87.8822,19.473 -16.8976,8.153 -55.3279,-71.503 -38.4304,-79.655 z" id="path11994" inkscape:connector-curvature="0" style="fill:#782121;fill-opacity:1;fill-rule:nonzero;stroke:#f9f9f9;stroke-width:0.1;stroke-miterlimit:4;stroke-dasharray:none" transform="translate(-9216, -48128)"/><path d="m 9746.4311,48520.877 c 37.8539,1.732 75.7975,0.258 113.6631,-0.596 36.6342,-0.973 73.3117,-1.283 109.8728,-3.973 18.5841,-1.13 23.9125,86.476 5.3284,87.606 l 0,0 c -37.7048,1.873 -75.4615,2.114 -113.1966,3.037 -40.7894,0.966 -81.593,2.53 -122.3969,2.016 -18.6869,-1.427 -11.9577,-89.518 6.7292,-88.09 z" id="path11996" inkscape:connector-curvature="0" style="fill:#782121;fill-opacity:1;fill-rule:nonzero;stroke:#f9f9f9;stroke-width:0.1;stroke-miterlimit:4;stroke-dasharray:none" transform="translate(-9216, -48128)"/><path d="m 9585.0151,48705.919 c 42.0467,-4.443 83.5569,-13.027 125.2138,-20.131 67.7756,-11.319 136.1993,-18.03 204.6014,-24.183 43.6029,-4.445 87.5377,-5.203 131.0787,-10.252 1.599,-0.36 3.197,-0.719 4.796,-1.079 18.505,-2.922 32.283,84.311 13.778,87.233 l 0,0 c -3.436,0.436 -6.871,0.872 -10.307,1.307 -43.909,3.366 -87.9816,4.208 -131.8566,8.143 -65.9913,5.641 -131.9936,12.119 -197.277,23.543 -43.9739,7.886 -87.7211,17.159 -131.9511,23.523 -18.6897,1.713 -26.7659,-86.391 -8.0762,-88.104 z" id="path12004" inkscape:connector-curvature="0" style="fill:#782121;fill-opacity:1;fill-rule:nonzero;stroke:#f9f9f9;stroke-width:0.1;stroke-miterlimit:4;stroke-dasharray:none" transform="translate(-9216, -48128)"/><path d="m 9858.6328,48732.82 c -5.4873,33.906 -6.5574,68.339 -7.3773,102.614 -0.2306,39.556 0.2955,79.187 3.8799,118.6 1.4592,18.507 -85.7837,25.385 -87.2428,6.878 l 0,0 c -2.9052,-42.383 -3.5449,-84.894 -3.351,-127.368 0.7568,-38.189 2.0236,-76.431 6.7254,-114.375 2.8958,-18.533 90.2616,-4.882 87.3658,13.651 z" id="path12006" inkscape:connector-curvature="0" style="fill:#782121;fill-opacity:1;fill-rule:nonzero;stroke:#f9f9f9;stroke-width:0.1;stroke-miterlimit:4;stroke-dasharray:none" transform="translate(-9216, -48128)"/><path d="m 9857.4047,48837.209 c 30.7726,6.255 62.5185,4.708 93.7091,3.615 22.9664,-0.875 45.8678,-2.871 68.8222,-3.953 18.735,-0.429 20.758,87.889 2.023,88.319 l 0,0 c -22.6667,-0.214 -45.2799,2.115 -67.9325,2.606 -39.7709,1.275 -80.0244,2.645 -119.2755,-5.151 -18.1238,-4.805 4.5298,-90.242 22.6537,-85.436 z" id="path12008" inkscape:connector-curvature="0" style="fill:#782121;fill-opacity:1;fill-rule:nonzero;stroke:#f9f9f9;stroke-width:0.1;stroke-miterlimit:4;stroke-dasharray:none" transform="translate(-9216, -48128)"/><path d="m 9712.4118,48770.99 c -11.1621,35.726 -23.9501,70.912 -36.9522,106.001 -16.0834,43.008 -33.0837,85.675 -52.2818,127.391 -6.9773,15.763 -15.8773,30.438 -25.1648,44.9 -10.2706,15.53 -83.4813,-32.885 -73.2108,-48.416 l 0,0 c 7.34,-10.602 14.062,-21.555 19.4121,-33.333 18.6215,-39.294 34.8295,-79.666 49.9279,-120.437 12.0131,-32.949 23.9469,-66.011 33.0301,-99.912 5.05,-18.082 90.2894,5.724 85.2395,23.806 z" id="path12010" inkscape:connector-curvature="0" style="fill:#782121;fill-opacity:1;fill-rule:nonzero;stroke:#f9f9f9;stroke-width:0.1;stroke-miterlimit:4;stroke-dasharray:none" transform="translate(-9216, -48128)"/><path d="m 9668.99,48923.325 c 21.6832,18.104 46.7696,30.721 72.4626,42.007 51.8345,21.231 107.1911,30.976 162.1164,40.355 61.55,10.056 123.362,18.37 185.163,26.705 41.265,5.253 82.304,12.016 123.241,19.356 15.716,2.784 8.332,1.587 22.139,3.669 18.423,3.005 4.256,89.853 -14.167,86.847 l 0,0 c -15.732,-2.728 -7.705,-1.251 -24.078,-4.454 -39.471,-7.703 -79.081,-14.671 -118.949,-20.019 -62.608,-8.879 -125.2452,-17.589 -187.6729,-27.681 -61.8405,-10.429 -124.0622,-21.506 -182.4826,-45.173 -31.9001,-13.813 -62.9389,-29.33 -90.6301,-50.609 -15.062,-11.213 37.7957,-82.216 52.8576,-71.003 z" id="path12012" inkscape:connector-curvature="0" style="fill:#782121;fill-opacity:1;fill-rule:nonzero;stroke:#f9f9f9;stroke-width:0.1;stroke-miterlimit:4;stroke-dasharray:none" transform="translate(-9216, -48128)"/></svg>