<?xml version="1.0" encoding="UTF-8" standalone="no"?>
<svg
   xmlns:dc="http://purl.org/dc/elements/1.1/"
   xmlns:cc="http://creativecommons.org/ns#"
   xmlns:rdf="http://www.w3.org/1999/02/22-rdf-syntax-ns#"
   xmlns:svg="http://www.w3.org/2000/svg"
   xmlns="http://www.w3.org/2000/svg"
   xmlns:sodipodi="http://sodipodi.sourceforge.net/DTD/sodipodi-0.dtd"
   xmlns:inkscape="http://www.inkscape.org/namespaces/inkscape"
   width="1024"
   height="1024"
   id="U63A8"
   version="1.1"
   inkscape:version="0.48.0 r9654"
   sodipodi:docname="U+63A8.svg">
  <metadata
     id="metadata18">
    <rdf:RDF>
      <cc:Work
         rdf:about="">
        <dc:format>image/svg+xml</dc:format>
        <dc:type
           rdf:resource="http://purl.org/dc/dcmitype/StillImage" />
      </cc:Work>
    </rdf:RDF>
  </metadata>
  <defs
     id="defs16" />
  <sodipodi:namedview
     pagecolor="#ffffff"
     bordercolor="#666666"
     borderopacity="1"
     objecttolerance="10"
     gridtolerance="10"
     guidetolerance="10"
     inkscape:pageopacity="0"
     inkscape:pageshadow="2"
     inkscape:window-width="640"
     inkscape:window-height="480"
     id="namedview14"
     showgrid="false"
     inkscape:zoom="0.27441406"
     inkscape:cx="512"
     inkscape:cy="512"
     inkscape:window-x="0"
     inkscape:window-y="25"
     inkscape:window-maximized="0"
     inkscape:current-layer="U63A8" />
  <path
     style="fill:#501616;fill-opacity:1;fill-rule:nonzero;stroke:#f9f9f9;stroke-width:0.1;stroke-miterlimit:4;stroke-dasharray:none"
     d="M 244.3125 106.34375 C 238.07132 106.3499 233.56595 107.88423 232.1875 111.4375 C 216.8019 170.6005 223.1736 233.15225 225.75 293.53125 C 226.60816 311.1433 227.4973 328.76402 228.375 346.375 C 187.58943 359.7944 146.84924 373.54712 105.34375 384.5625 C 87.16065 389.2295 109.16065 474.94825 127.34375 470.28125 C 162.6873 459.23579 197.75063 447.25737 232.8125 435.34375 C 234.86072 476.29582 236.89729 517.26036 238.8125 558.21875 C 216.11356 568.17661 193.9406 579.34434 172.5625 592.1875 C 129.7451 619.5265 88.32715 649.56275 57.03125 690.21875 C 46.21155 705.52475 118.3678 756.52475 129.1875 741.21875 C 152.8333 708.98175 185.619 685.88775 218.875 664.59375 C 226.70659 659.88624 234.65747 655.4607 242.71875 651.25 C 245.57472 724.59609 250.0769 797.88412 251.09375 871.28125 C 251.54295 889.54125 337.60545 887.4485 337.15625 869.1875 C 334.24725 785.4175 327.9637 701.772 324.9375 618 C 324.91298 617.46885 324.89956 616.9374 324.875 616.40625 C 341.65334 610.58778 358.62234 605.28993 375.6875 600.34375 C 396.22168 613.42307 426.91564 624.05262 434.0625 616 C 436.12999 693.1632 438.18132 770.32248 441.625 847.4375 C 444.1303 888.2665 442.65805 868.687 445.96875 906.25 C 446.93042 915.96088 471.73748 918.07099 494.46875 915.1875 C 483.29151 929.34619 514.60121 1001.8337 530.96875 995 C 567.59615 981.394 607.0322 977.748 645.625 973.875 C 711.6876 968.83 778.00405 968.89475 844.21875 968.34375 C 878.69325 967.98775 913.1716 968.25675 947.625 969.46875 C 966.0492 969.95075 968.33045 883.108 949.90625 882.625 C 914.38065 881.994 878.8405 882.101 843.3125 882.625 C 774.6546 883.513 705.8984 883.47075 637.375 888.34375 C 601.1294 891.70792 564.5281 895.28999 529.09375 903.875 C 531.12333 901.98952 532.18635 899.91623 531.96875 897.71875 C 528.14825 863.32675 529.8888 881.4935 526.9375 843.1875 C 522.537 763.3205 520.3464 683.37825 518.9375 603.40625 C 518.08147 553.77946 517.18233 504.13435 517.78125 454.5 C 557.09936 446.34745 596.9235 441.02706 636.75 436.09375 C 643.96805 435.22005 651.18103 434.39125 658.40625 433.59375 C 655.18257 462.7191 653.80082 492.11686 652.28125 521.28125 C 651.76365 533.63413 651.32223 545.9878 650.9375 558.34375 C 620.62752 563.59344 590.36187 569.00925 560.09375 574.5 C 541.65045 577.948 557.90045 664.8865 576.34375 661.4375 C 600.53462 655.92363 624.88496 651.1208 649.28125 646.625 C 649.16928 664.7537 649.21648 682.8713 649.375 701 C 621.88607 705.63565 594.09868 709.39239 566.25 707.875 C 547.5488 706.127 539.2988 794.28325 558 796.03125 C 589.31719 797.19435 620.44284 793.39182 651.3125 788.28125 C 653.09025 822.35468 652.21166 808.5796 655.34375 850.59375 C 656.80935 868.71875 742.24685 861.8125 740.78125 843.6875 C 736.99165 800.4125 738.7079 822.70075 735.8125 776.84375 C 735.74971 775.13427 735.68501 773.4283 735.625 771.71875 C 763.02261 765.3501 790.20846 758.0936 817.1875 750.125 C 834.8268 744.758 809.5144 661.60175 791.875 666.96875 C 772.66503 673.00816 753.29252 678.53937 733.78125 683.5 C 733.67907 666.41129 733.73424 649.33775 733.9375 632.25 C 744.99763 630.53568 756.05802 628.85713 767.125 627.1875 C 785.282 624.3815 772.06335 538.78875 753.90625 541.59375 C 748.07055 542.51672 742.24196 543.42077 736.40625 544.34375 C 736.67489 538.26834 736.93905 532.19918 737.25 526.125 C 739.30683 492.93672 740.84677 459.17033 746.5 426.25 C 754.878 425.80558 763.2668 425.43007 771.65625 425.15625 C 784.43718 424.66155 786.67219 382.54625 780.65625 357.28125 C 802.65093 349.32309 824.69258 335.48191 820.9375 326.21875 C 807.9857 294.59975 814.65065 310.50375 800.96875 278.46875 C 783.59875 237.80675 766.5468 196.929 746.75 157.375 C 737.453 141.064 660.54675 184.90875 669.84375 201.21875 C 689.68205 236.99375 705.5095 274.8795 721.625 312.4375 C 730.44194 333.22466 730.83324 334.06328 733.46875 340.625 C 697.71358 342.97195 662.04832 346.3865 626.4375 350.5 C 594.13329 354.27275 561.8784 358.39345 529.71875 363.21875 C 534.29196 348.86834 538.78273 334.50301 543.1875 320.09375 C 558.9402 270.61475 574.02765 220.7625 593.09375 172.4375 C 600.26595 155.1165 518.6098 121.303 511.4375 138.625 C 493.3975 190.133 477.96385 242.54875 461.96875 294.71875 C 460.82184 298.59204 459.66218 302.44441 458.5 306.3125 C 455.23577 296.11668 450.7303 289.12904 445.375 289.65625 C 438.1979 290.48725 431.02085 291.32425 423.84375 292.15625 C 385.77193 299.17427 348.38537 308.87394 311.34375 319.90625 C 310.97026 310.12062 310.62566 300.3181 310.28125 290.53125 C 308.91915 241.80625 304.70235 191.47025 314.65625 143.40625 C 320.06408 129.46572 268.79712 106.31961 244.3125 106.34375 z M 435.9375 378 C 421.52115 421.61273 405.90679 464.80947 388.8125 507.46875 C 380.13785 509.81453 371.45591 512.15421 362.78125 514.5 C 348.68363 518.63472 334.6361 522.9543 320.65625 527.5 C 318.74586 487.71872 316.84312 447.94323 315.0625 408.15625 C 354.7437 395.71695 394.85031 384.73025 435.9375 378 z "
     id="path12474" />
</svg>
