<?xml version="1.0" encoding="utf-8" ?>

<!DOCTYPE svg PUBLIC "-//W3C//DTD SVG 1.1//EN" 
  "http://www.w3.org/Graphics/SVG/1.1/DTD/svg11.dtd">
<svg 
    xmlns="http://www.w3.org/2000/svg"
    xmlns:xlink="http://www.w3.org/1999/xlink"
    xmlns:sodipodi="http://sodipodi.sourceforge.net/DTD/sodipodi-0.dtd"
    xmlns:inkscape="http://www.inkscape.org/namespaces/inkscape"
    width="1024" height="1024" id="U6392">
<path d="m 10301.438,36214.888 c 33.296,-1.706 66.37,-6.182 99.407,-10.477 40.573,-5.434 81.242,-10.157 122.217,-9.94 19.303,0.358 38.159,3.567 56.087,10.677 17.217,7.603 -18.621,88.767 -35.839,81.165 l 0,0 c -2.824,-3.245 -16.345,-3.546 -21.613,-4.287 -36.691,-1.083 -73.132,3.748 -109.455,8.47 -35.36,4.764 -70.729,9.546 -106.272,12.767 -18.747,0.961 -23.279,-87.414 -4.532,-88.375 z" id="path9963" inkscape:connector-curvature="0" style="fill:#c83737;fill-opacity:1;fill-rule:nonzero;stroke:#f9f9f9;stroke-width:0.1;stroke-miterlimit:4;stroke-dasharray:none" transform="translate(-10240, -35840)"/><path d="m 10511.692,36027.015 c -5.303,42.368 -5.86,85.18 -7.082,127.812 -1.711,72.552 -5.058,145.047 -8.169,217.547 -3.362,62.168 -2.841,124.378 0.821,186.5 2.421,39.87 7.805,79.442 13.108,119 0.368,3.607 0.736,7.215 1.104,10.822 1.502,18.641 -86.37,25.724 -87.873,7.084 l 0,0 c -0.122,-2.476 -0.245,-4.951 -0.367,-7.427 -4.392,-41.518 -9.79,-82.952 -11.971,-124.677 -3.44,-64.994 -3.856,-130.06 -0.108,-195.069 3.267,-71.893 6.652,-143.793 7.617,-215.764 0.808,-45.728 1.209,-91.534 5.237,-137.121 2.395,-18.6 90.078,-7.307 87.683,11.293 z" id="path9965" inkscape:connector-curvature="0" style="fill:#c83737;fill-opacity:1;fill-rule:nonzero;stroke:#f9f9f9;stroke-width:0.1;stroke-miterlimit:4;stroke-dasharray:none" transform="translate(-10240, -35840)"/><path d="m 10290.075,36496.397 c 35.554,-25.667 77.33,-39.987 118.441,-53.97 42.801,-13.668 85.658,-27.205 128.841,-39.62 8.224,-2.265 16.409,-4.662 24.564,-7.161 18.104,-4.994 41.644,80.354 23.539,85.347 l 0,0 c -8.307,2.055 -16.604,4.147 -24.903,6.23 -41.736,10.902 -82.979,23.627 -123.994,36.967 -31.594,10.939 -64.355,21.505 -91.582,41.526 -14.705,11.647 -69.611,-57.672 -54.906,-69.319 z" id="path9986" inkscape:connector-curvature="0" style="fill:#c83737;fill-opacity:1;fill-rule:nonzero;stroke:#f9f9f9;stroke-width:0.1;stroke-miterlimit:4;stroke-dasharray:none" transform="translate(-10240, -35840)"/><path d="m 10799.631,36004.731 c 4.013,46.735 4.755,93.616 4.618,140.494 -0.983,74.755 -6.925,149.318 -12.385,223.845 -5.625,68.473 -7.796,137.127 -8.209,205.806 -0.223,32.279 1.371,64.581 -0.997,96.803 -1.821,18.59 -89.456,10.004 -87.634,-8.586 l 0,0 c 4.123,-29.486 1.243,-59.521 2.636,-89.166 1.123,-70.429 3.529,-140.837 9.268,-211.063 5.276,-72.403 11.1,-144.857 11.573,-217.492 -0.292,-43.901 -1.199,-87.891 -6.842,-131.492 -1.941,-18.662 86.031,-27.811 87.972,-9.149 z" id="path9997" inkscape:connector-curvature="0" style="fill:#c83737;fill-opacity:1;fill-rule:nonzero;stroke:#f9f9f9;stroke-width:0.1;stroke-miterlimit:4;stroke-dasharray:none" transform="translate(-10240, -35840)"/><path d="m 10596.794,36134.782 c 27.693,5.121 55.461,9.825 83.221,14.568 21.076,3.883 42.295,6.768 63.626,8.749 18.644,1.982 9.3,89.87 -9.344,87.888 l 0,0 c -23.124,-2.761 -46.158,-6.153 -69.063,-10.394 -27.505,-4.73 -55.009,-9.543 -82.636,-13.505 -18.521,-3.012 -4.325,-90.317 14.196,-87.306 z" id="path9999" inkscape:connector-curvature="0" style="fill:#c83737;fill-opacity:1;fill-rule:nonzero;stroke:#f9f9f9;stroke-width:0.1;stroke-miterlimit:4;stroke-dasharray:none" transform="translate(-10240, -35840)"/><path d="m 10607.315,36308.506 c 27.486,-1.084 54.9,1.436 82.172,4.56 10.89,1.233 21.708,2.985 32.521,4.743 18.441,3.166 3.512,90.095 -14.928,86.928 l 0,0 c -9.258,-1.689 -18.522,-3.364 -27.873,-4.471 -21.923,-2.669 -44.043,-5.083 -66.151,-3.488 -18.725,1.218 -24.467,-87.055 -5.741,-88.272 z" id="path10001" inkscape:connector-curvature="0" style="fill:#c83737;fill-opacity:1;fill-rule:nonzero;stroke:#f9f9f9;stroke-width:0.1;stroke-miterlimit:4;stroke-dasharray:none" transform="translate(-10240, -35840)"/><path d="m 10551.436,36494.246 c 33.425,-0.392 66.764,-3.277 100.05,-6.129 38.063,-3.452 76.1,-7.168 114.16,-10.643 4.212,-0.325 8.424,-0.651 12.636,-0.976 18.597,-1.247 24.474,86.42 5.877,87.666 l 0,0 c -3.761,0.209 -7.522,0.418 -11.282,0.627 -37.963,2.814 -75.877,6.232 -113.773,9.827 -35.101,3.173 -70.218,6.234 -105.419,8.086 -18.765,0.477 -21.014,-87.981 -2.249,-88.458 z" id="path10003" inkscape:connector-curvature="0" style="fill:#c83737;fill-opacity:1;fill-rule:nonzero;stroke:#f9f9f9;stroke-width:0.1;stroke-miterlimit:4;stroke-dasharray:none" transform="translate(-10240, -35840)"/><path d="m 10936.99,35973.737 c 9.772,41.737 14.944,84.255 18.881,126.875 6.5,75.726 -0.326,151.439 -9.456,226.602 -10.568,73.16 -21.295,146.247 -26.912,219.979 -3.254,45.988 -1.223,92.018 4.32,137.717 2.315,16.069 1.145,8.552 3.449,22.56 2.707,18.472 -84.371,31.235 -87.079,12.763 l 0,0 c -2.101,-16.043 -1.025,-7.458 -3.184,-25.76 -5.142,-51.216 -6.923,-102.716 -2.863,-154.108 6.254,-74.836 17.099,-149.07 27.887,-223.367 8.326,-69.021 14.661,-138.569 8.104,-208.076 -3.902,-38.26 -8.656,-76.575 -18.963,-113.731 -4.551,-18.205 81.265,-39.659 85.816,-21.454 z" id="path10005" inkscape:connector-curvature="0" style="fill:#c83737;fill-opacity:1;fill-rule:nonzero;stroke:#f9f9f9;stroke-width:0.1;stroke-miterlimit:4;stroke-dasharray:none" transform="translate(-10240, -35840)"/><path d="m 10908.095,36173.224 c 24.857,-1.494 49.654,-3.82 74.466,-5.896 18.854,-1.315 37.685,-3.499 56.601,-3.335 18.778,0.648 15.722,89.168 -3.056,88.52 l 0,0 c -15.008,-2.75 -31.36,3.359 -46.451,2.327 -24.817,1.946 -49.624,4.052 -74.392,6.551 -18.703,1.521 -25.871,-86.647 -7.168,-88.167 z" id="path10007" inkscape:connector-curvature="0" style="fill:#c83737;fill-opacity:1;fill-rule:nonzero;stroke:#f9f9f9;stroke-width:0.1;stroke-miterlimit:4;stroke-dasharray:none" transform="translate(-10240, -35840)"/><path d="m 10909.382,36317.701 c 25.575,0.424 51.086,1.799 76.543,4.275 18.323,1.715 36.548,4.161 54.66,7.394 18.411,3.483 1.991,90.273 -16.42,86.79 l 0,0 c -15.483,-3.14 -31.11,-5.366 -46.842,-6.857 -23.064,-2.305 -46.212,-3.644 -69.404,-3.143 -18.764,-0.31 -17.302,-88.769 1.463,-88.459 z" id="path10009" inkscape:connector-curvature="0" style="fill:#c83737;fill-opacity:1;fill-rule:nonzero;stroke:#f9f9f9;stroke-width:0.1;stroke-miterlimit:4;stroke-dasharray:none" transform="translate(-10240, -35840)"/><path d="m 10905.015,36476.366 c 21.67,9.781 45.071,14.536 68.452,18.021 28.848,3.31 57.896,0.768 86.77,-0.781 24.8,-1.412 49.618,-1.823 74.23,1.807 3.127,0.726 6.255,1.453 9.382,2.18 18.168,4.749 -4.221,90.394 -22.389,85.645 l 0,0 c -0.509,-0.224 -1.018,-0.448 -1.528,-0.672 -18.083,-3.922 -36.907,-1.603 -55.219,-1.521 -34.743,1.692 -69.677,4.377 -104.332,-0.203 -30.904,-4.732 -61.573,-11.345 -90.597,-23.291 -17.222,-7.474 18.009,-88.659 35.231,-81.185 z" id="path10011" inkscape:connector-curvature="0" style="fill:#c83737;fill-opacity:1;fill-rule:nonzero;stroke:#f9f9f9;stroke-width:0.1;stroke-miterlimit:4;stroke-dasharray:none" transform="translate(-10240, -35840)"/></svg>