<?xml version="1.0" encoding="UTF-8" standalone="no"?>
<svg
   xmlns:dc="http://purl.org/dc/elements/1.1/"
   xmlns:cc="http://creativecommons.org/ns#"
   xmlns:rdf="http://www.w3.org/1999/02/22-rdf-syntax-ns#"
   xmlns:svg="http://www.w3.org/2000/svg"
   xmlns="http://www.w3.org/2000/svg"
   xmlns:sodipodi="http://sodipodi.sourceforge.net/DTD/sodipodi-0.dtd"
   xmlns:inkscape="http://www.inkscape.org/namespaces/inkscape"
   width="1024"
   height="1024"
   id="U638C"
   version="1.1"
   inkscape:version="0.48.0 r9654"
   sodipodi:docname="U+638C.svg">
  <metadata
     id="metadata19">
    <rdf:RDF>
      <cc:Work
         rdf:about="">
        <dc:format>image/svg+xml</dc:format>
        <dc:type
           rdf:resource="http://purl.org/dc/dcmitype/StillImage" />
      </cc:Work>
    </rdf:RDF>
  </metadata>
  <defs
     id="defs17" />
  <sodipodi:namedview
     pagecolor="#ffffff"
     bordercolor="#666666"
     borderopacity="1"
     objecttolerance="10"
     gridtolerance="10"
     guidetolerance="10"
     inkscape:pageopacity="0"
     inkscape:pageshadow="2"
     inkscape:window-width="640"
     inkscape:window-height="480"
     id="namedview15"
     showgrid="false"
     inkscape:zoom="0.27441406"
     inkscape:cx="512"
     inkscape:cy="512"
     inkscape:window-x="0"
     inkscape:window-y="25"
     inkscape:window-maximized="0"
     inkscape:current-layer="U638C" />
  <path
     style="fill:#2b1100;fill-opacity:1;fill-rule:nonzero;stroke:none"
     d="M 453.25 71.28125 C 439.3904 71.566217 428.49356 74.477125 427.6875 80.875 C 424.2901 112.415 423.512 144.1245 424.25 175.8125 C 424.8437 193.4555 426.6 211.00575 428 228.59375 C 429.7044 247.20675 517.4544 239.1755 515.75 220.5625 C 514.1349 204.9185 512.32275 189.2855 511.65625 173.5625 C 510.88025 146.3085 511.4115 118.92425 515.4375 91.90625 C 516.97634 79.692125 479.70923 70.737221 453.25 71.28125 z M 681.3125 122.90625 C 680.43502 122.94901 679.5907 123.18486 678.8125 123.59375 C 649.2833 139.51075 619.7635 155.35875 590.6875 172.09375 C 566.7966 186.27475 578.72315 179.03425 554.84375 193.78125 C 539.14085 203.47525 584.8597 277.5065 600.5625 267.8125 C 622.7398 254.1265 611.58335 260.878 634.03125 247.625 C 662.20465 231.505 690.7633 216.08575 719.9375 201.84375 C 735.7609 193.52964 699.15462 122.03684 681.3125 122.90625 z M 307.09375 138.40625 C 288.37513 139.13533 244.64477 200.28166 258.53125 210.59375 C 283.82605 227.38075 307.77495 245.997 331.71875 264.625 C 349.88885 278.74 340.8655 271.78725 358.875 285.53125 C 373.6459 296.73725 426.4584 227.11225 411.6875 215.90625 C 394.3532 202.83625 403.1325 209.54725 385.3125 195.78125 C 360.8561 176.73925 336.3672 157.7315 311.25 139.5625 C 310.07318 138.68867 308.68007 138.34446 307.09375 138.40625 z M 546.625 313.3125 C 526.81352 313.36987 506.99946 313.64663 487.1875 314.15625 C 430.6982 315.58825 374.13205 318.01125 318.15625 326.28125 C 287.17306 331.10811 256.33328 336.64087 225.78125 343.6875 C 206.04782 328.7149 152.34372 315.6544 148.03125 329.84375 C 140.05805 359.70975 137.77285 390.50125 137.59375 421.28125 C 138.06325 447.00425 140.5041 472.63375 143.0625 498.21875 C 143.3449 500.72975 143.62395 503.239 143.90625 505.75 C 146.23195 524.356 233.9506 513.38725 231.625 494.78125 C 231.3353 492.71625 231.0396 490.65775 230.75 488.59375 C 228.46192 469.57137 226.44166 450.48688 225.53125 431.34375 C 227.74292 433.02198 229.97455 433.70466 232.125 433.125 C 264.7703 423.548 298.24485 417.30875 331.78125 411.84375 C 383.93065 403.83275 436.67835 401.6145 489.34375 400.3125 C 540.28185 399.0695 591.2227 399.39075 642.125 401.59375 C 679.9909 403.64975 717.8422 406.15025 755.625 409.40625 C 770.71548 411.08978 785.98877 412.49734 800.90625 415.5625 C 800.22588 417.06438 800.09297 417.36114 798.34375 421.25 C 785.85395 447.883 773.6271 474.631 761.9375 501.625 C 754.615 518.621 834.7401 553.15325 842.0625 536.15625 C 853.3701 509.76125 865.4216 483.69125 878.0625 457.90625 C 891.3821 429.46625 905.08095 400.9695 888.90625 370.3125 C 875.89805 352.3215 859.50995 339.3605 837.59375 333.6875 C 813.06645 327.5225 787.9352 324.331 762.75 322.25 C 723.7652 319.23 684.71065 316.93125 645.65625 315.03125 C 612.652 313.75813 579.64414 313.21688 546.625 313.3125 z M 491.46875 408.90625 C 489.38457 408.90864 487.30447 408.93319 485.21875 408.96875 C 458.09545 409.56475 431.0413 411.439 403.9375 412.5 C 391.96233 413.04449 389.28362 449.2414 393.78125 475.15625 C 367.81098 469.77433 329.00734 471.89396 328.34375 484.28125 C 327.96408 507.3394 329.48705 530.2209 334.40625 552.6875 C 333.9588 552.72146 333.50994 552.74705 333.0625 552.78125 C 314.4095 554.60725 323.0345 642.54475 341.6875 640.71875 C 378.9083 636.29375 416.35925 634.44025 453.78125 632.65625 C 480.17978 631.40114 506.61168 630.76248 533.03125 630.71875 C 528.31724 632.67838 523.58104 634.62402 518.875 636.59375 C 474.8976 655.03675 431.7439 675.29025 388.875 696.15625 C 356.1687 712.04925 323.58775 728.19975 291.71875 745.71875 C 280.07635 752.24975 285.6766 748.98475 274.875 755.46875 C 258.9553 765.34075 305.48655 840.40325 321.40625 830.53125 C 324.04582 828.81692 325.20922 828.0378 326.09375 827.46875 C 327.46087 853.61809 337.71531 887.46708 349.375 885.46875 C 380.327 879.38175 411.3242 873.6215 442.375 868.0625 C 461.44162 864.46672 480.58508 861.39792 499.78125 858.6875 C 499.59523 866.91876 499.40294 875.14455 499.1875 883.375 C 457.21867 888.84694 415.15195 893.5726 372.875 895.9375 C 335.5065 898.0195 297.92435 899.03825 260.96875 905.40625 C 242.61075 909.33925 261.142 995.8715 279.5 991.9375 C 311.9103 985.4285 345.18495 984.53725 378.09375 982.40625 C 417.84968 979.88428 457.42947 975.55424 496.9375 970.5625 C 496.79587 977.44174 496.66647 984.30724 496.5625 991.1875 C 496.144 1011.7315 497.02625 1032.256 498.28125 1052.75 C 499.62655 1071.25 586.81405 1064.9053 585.46875 1046.4062 C 583.90295 1028.3702 582.86385 1010.3075 583.09375 992.1875 C 583.17722 981.08213 583.34755 969.97684 583.5625 958.875 C 614.90044 954.69311 646.29872 951.0273 677.84375 948.6875 C 704.41335 946.9095 731.06365 947.516 757.65625 946.5 C 771.54455 945.544 764.5651 946.2235 778.5625 944.4375 C 797.107 941.8065 784.70075 854.40125 766.15625 857.03125 C 758.73585 858.31025 762.8719 857.72025 753.6875 858.53125 C 726.115 860.00025 698.4751 859.52375 670.9375 861.84375 C 642.49712 864.25144 614.15184 867.57316 585.875 871.34375 C 586.08804 863.86257 586.27668 856.38819 586.46875 848.90625 C 608.89888 846.98397 631.35388 845.41393 653.875 845.28125 C 672.5635 844.93525 670.9385 756.8425 652.25 757.1875 C 630.73492 757.81611 609.2726 759.35507 587.84375 761.28125 C 588.03706 747.08298 588.24154 732.88324 588.59375 718.6875 C 588.59375 713.80944 582.59978 710.21609 573.75 707.875 C 597.45363 698.18571 621.40832 689.03351 646.3125 683 C 655.93393 680.74494 654.87959 655.80357 649.0625 633.3125 C 652.82844 629.3783 656.63468 623.40254 660.09375 616.4375 C 662.0753 615.71646 663.532 614.5712 664.28125 612.90625 C 671.38545 596.66725 678.14115 580.25525 685.28125 564.03125 C 695.08155 540.31925 706.0631 516.2705 706.5625 490.1875 C 705.4126 484.0945 705.34165 477.68525 703.09375 471.90625 C 694.54785 449.93525 675.5778 438.65425 654.0625 432.78125 C 631.2356 426.30925 608.1991 420.5945 584.6875 417.1875 C 553.82022 412.47469 522.73139 408.87033 491.46875 408.90625 z M 816.03125 419.59375 C 819.56005 421.42617 818.27641 421.2969 816.03125 419.59375 z M 492.46875 496.375 C 518.87787 496.35366 545.11494 499.61219 571.15625 503.78125 C 584.72475 505.80182 598.08632 508.80338 611.3125 512.34375 C 608.9897 518.42646 606.51977 524.44282 604.03125 530.46875 C 601.9254 535.21979 599.86495 539.98864 597.78125 544.75 C 595.65962 544.69355 593.53123 544.62707 591.40625 544.59375 C 544.21655 543.51075 497.00505 544.0115 449.84375 546.0625 C 439.02006 546.53259 428.19523 547.02292 417.375 547.5625 C 421.55998 541.62164 423.26436 536.36024 420.78125 532.96875 C 421.07785 533.90075 421.35965 534.819 421.65625 535.75 C 421.46305 535.877 421.28695 536.02925 421.09375 536.15625 C 417.17199 524.66996 416.6779 512.40847 416.6875 500.28125 C 440.16606 498.50354 463.64299 496.98919 487.1875 496.4375 C 488.94962 496.40619 490.70814 496.37642 492.46875 496.375 z M 634 519.3125 C 635.64285 519.29431 637.052 519.44125 637.0625 520.46875 C 637.08261 522.40406 634.93782 521.19158 632.6875 519.375 C 633.12301 519.36027 633.57391 519.31722 634 519.3125 z M 500.4375 739.28125 C 500.54889 749.86502 500.60863 760.44682 500.625 771.03125 C 476.13407 774.30269 451.70388 778.03565 427.375 782.4375 C 418.42259 783.97281 409.47989 785.53165 400.53125 787.09375 C 409.28858 782.69065 418.06846 778.33634 426.875 774.03125 C 451.24135 762.1105 475.72717 750.46276 500.4375 739.28125 z "
     id="path14251" />
</svg>
