<?xml version="1.0" encoding="UTF-8" standalone="no"?>
<svg
   xmlns:dc="http://purl.org/dc/elements/1.1/"
   xmlns:cc="http://creativecommons.org/ns#"
   xmlns:rdf="http://www.w3.org/1999/02/22-rdf-syntax-ns#"
   xmlns:svg="http://www.w3.org/2000/svg"
   xmlns="http://www.w3.org/2000/svg"
   xmlns:sodipodi="http://sodipodi.sourceforge.net/DTD/sodipodi-0.dtd"
   xmlns:inkscape="http://www.inkscape.org/namespaces/inkscape"
   width="1024"
   height="1024"
   id="U63A5"
   version="1.1"
   inkscape:version="0.48.0 r9654"
   sodipodi:docname="U+63A5.svg">
  <metadata
     id="metadata18">
    <rdf:RDF>
      <cc:Work
         rdf:about="">
        <dc:format>image/svg+xml</dc:format>
        <dc:type
           rdf:resource="http://purl.org/dc/dcmitype/StillImage" />
      </cc:Work>
    </rdf:RDF>
  </metadata>
  <defs
     id="defs16" />
  <sodipodi:namedview
     pagecolor="#ffffff"
     bordercolor="#666666"
     borderopacity="1"
     objecttolerance="10"
     gridtolerance="10"
     guidetolerance="10"
     inkscape:pageopacity="0"
     inkscape:pageshadow="2"
     inkscape:window-width="640"
     inkscape:window-height="480"
     id="namedview14"
     showgrid="false"
     inkscape:zoom="0.27441406"
     inkscape:cx="512"
     inkscape:cy="512"
     inkscape:window-x="0"
     inkscape:window-y="25"
     inkscape:window-maximized="0"
     inkscape:current-layer="U63A5" />
  <path
     style="fill:#550000;fill-opacity:1;fill-rule:nonzero;stroke:#f9f9f9;stroke-width:0.1;stroke-miterlimit:4;stroke-dasharray:none"
     d="M 225.53125 104.46875 C 218.46678 104.55382 213.37983 106.26291 212.0625 110.1875 C 197.5835 163.7045 196.9177 219.6385 195.4375 274.6875 C 195.17564 291.23515 195.02872 307.76385 194.90625 324.3125 C 186.64238 325.53496 178.3768 326.75659 170.125 328.0625 C 134.5103 333.8325 98.8777 339.54425 63.625 347.28125 C 45.251 352.00625 67.501 438.63125 85.875 433.90625 C 118.3104 425.48825 151.45935 420.107 184.46875 414.5 C 187.87444 413.93572 191.27868 413.41803 194.6875 412.875 C 194.73336 450.89008 194.86827 488.89229 194.875 526.90625 C 174.30645 539.23245 153.91158 551.8369 133.78125 564.875 C 93.29135 592.08 52.6757 619.85425 18.4375 654.90625 C 5.7554 668.99725 72.16175 728.7785 84.84375 714.6875 C 113.13195 683.8705 148.05775 660.16675 182.40625 636.71875 C 186.14362 634.26065 189.89509 631.8261 193.65625 629.40625 C 192.50183 667.10989 190.49781 704.78604 187.5625 742.40625 C 185.1399 773.68925 180.77715 804.76925 175.34375 835.65625 C 172.32295 854.29925 260.2292 868.518 263.25 849.875 C 268.2686 816.261 272.4095 782.52675 274.5625 748.59375 C 278.25024 691.59621 280.05255 634.51344 280.40625 577.40625 C 297.60528 567.71408 314.92647 558.21894 332.3125 548.875 C 337.6668 546.058 343.0207 543.2545 348.375 540.4375 C 355.0383 536.83821 352.13246 521.97943 345.21875 506.15625 C 346.7782 507.5352 348.47334 508.24468 350.28125 508.125 C 396.71725 502.712 443.0861 497.07075 489.625 492.59375 C 533.61321 488.15166 577.75374 486.04907 621.90625 486.28125 C 634.90044 497.00213 647.93333 503.65559 653.15625 498.375 C 656.83014 494.65314 660.50562 490.93308 664.1875 487.21875 C 664.36504 487.22567 664.54121 487.24301 664.71875 487.25 C 705.47905 489.406 746.0369 494.32725 786.5 499.53125 C 799.1986 501.27325 811.85005 503.22175 824.46875 505.46875 C 843.18155 508.44075 857.2128 420.222 838.5 417.25 C 824.726 415.299 810.9386 413.402 797.125 411.75 C 781.9501 410.02459 766.7577 408.32421 751.5625 406.75 C 759.16881 400.76142 766.97323 395.02654 775.0625 389.6875 C 782.85821 384.51478 774.74895 363.74927 762.65625 345.3125 C 775.66988 345.97347 788.68461 346.72244 801.6875 347.59375 C 823.5704 349.09375 845.4151 350.9875 867.25 353.0625 C 886.0739 354.6385 893.5113 265.8875 874.6875 264.3125 C 852.2081 262.6805 829.71565 261.0625 807.21875 259.6875 C 762.37625 257.0335 717.4965 255.23275 672.5625 255.84375 C 652.80954 256.05957 633.05729 256.42837 613.3125 257 C 631.34727 240.04546 647.68408 216.02149 639.90625 208.6875 C 628.37155 197.9145 616.826 187.15425 605.625 176.03125 C 586.0758 156.25925 566.91385 135.958 551.09375 113 C 539.93545 97.657 467.5916 150.25075 478.75 165.59375 C 498.1908 191.40875 520.23285 215.06525 542.90625 238.03125 C 549.98804 245.06671 557.16172 251.97572 564.375 258.875 C 543.91871 259.86842 523.45505 261.16267 503.03125 262.78125 C 462.27405 266.06625 421.5908 269.92325 381.0625 275.40625 C 362.3465 278.49625 376.909 366.715 395.625 363.625 C 426.21259 358.11597 457.09991 354.6541 488.03125 351.75 C 481.23538 360.20222 477.84549 367.92722 481.28125 372.1875 C 490.11595 383.39582 499.76001 393.78456 509.96875 403.5625 C 500.48787 404.28679 491.03362 405.11678 481.5625 406.03125 C 435.8137 410.18125 390.1738 415.57975 344.375 419.09375 C 330.93703 419.98403 330.05869 465.31594 337.46875 490.9375 C 327.24849 473.30999 314.14105 458.77931 306.5 462.90625 C 301.0285 465.93725 295.5341 468.969 290.0625 472 C 286.8011 473.82844 283.53995 475.66619 280.28125 477.5 C 280.21892 452.00606 280.19118 426.52496 280.25 401.03125 C 293.34666 399.43548 306.45485 397.89991 319.5625 396.40625 C 336.0849 394.57825 352.60925 393.224 368.96875 390.25 C 387.49975 386.323 368.99975 298.97925 350.46875 302.90625 C 337.14855 307.05725 322.53985 306.02975 308.96875 308.96875 C 299.6452 310.16254 290.32317 311.36208 281 312.5625 C 281.19605 300.84643 281.4244 289.12104 281.71875 277.40625 C 283.42465 231.01525 283.8177 183.5285 296.625 138.5625 C 301.32977 124.54609 250.76151 104.16494 225.53125 104.46875 z M 681.375 343.15625 C 684.104 343.1487 686.83393 343.14579 689.5625 343.15625 C 675.8136 354.63924 662.47736 366.64282 649.28125 378.75 C 642.01842 385.5574 634.86137 392.44339 627.75 399.40625 C 625.15642 399.39264 622.56213 399.37483 619.96875 399.375 C 623.77847 389.22293 624.58607 380.81814 620 377.875 C 615.8457 375.239 611.68545 372.60475 607.53125 369.96875 C 596.88332 362.3691 586.63096 354.31038 577.09375 345.46875 C 609.15422 344.04265 641.24966 343.4082 673.34375 343.1875 C 676.02109 343.16206 678.69808 343.16366 681.375 343.15625 z M 729.8125 516.4375 C 724.94466 516.48647 721.40216 517.80819 720 520.75 C 707.77899 548.23882 693.08886 574.50071 678.0625 600.53125 C 675.01156 600.41693 671.95998 600.29346 668.90625 600.21875 C 649.51268 600.00432 630.11435 600.19233 610.75 600.78125 C 617.49222 587.39616 624.02871 573.92957 630.3125 560.3125 C 637.7733 542.9035 555.7108 507.717 548.25 525.125 C 536.45548 553.65054 522.33249 581.10481 507.40625 608.09375 C 497.05762 609.25925 486.73241 610.52747 476.40625 611.96875 C 430.23305 618.17675 384.2371 625.4925 338.25 632.9375 C 319.5825 636.0925 334.4574 724.0925 353.125 720.9375 C 386.01609 714.14522 419.09152 708.41459 452.28125 703.34375 C 443.3586 730.46496 452.23244 753.63611 476.9375 774.5625 C 496.9411 787.0705 516.24485 800.523 534.96875 814.875 C 539.22784 818.14361 543.44572 821.44796 547.625 824.8125 C 536.63813 844.4558 525.67524 864.11531 514.5625 883.6875 C 515.64882 888.7439 492.41664 912.03533 504.1875 900.375 C 495.1393 916.44443 532.43476 985.29062 548.15625 977.0625 C 554.01545 972.9265 560.371 969.39925 565.75 964.65625 C 577.294 954.47625 583.5849 939.2765 591.5625 926.5625 C 599.33371 912.33326 607.04791 898.07721 614.8125 883.84375 C 614.99112 884.00915 615.16515 884.17833 615.34375 884.34375 C 636.66145 903.96575 656.54925 925.01775 674.84375 947.46875 C 679.69095 953.65475 684.72745 959.649 689.96875 965.5 C 703.01305 979.306 768.1067 917.805 755.0625 904 C 750.6205 899.974 747.1211 895.069 743.125 890.625 C 721.9355 865.615 699.31455 841.89575 675.15625 819.71875 C 669.73894 814.70851 664.29132 809.72939 658.84375 804.75 C 660.23707 802.32254 661.62938 799.89143 663.03125 797.46875 C 683.51079 761.99501 704.42736 726.80163 725.5625 691.71875 C 747.23295 694.28524 768.8058 697.75706 790.25 701.84375 C 802.4852 704.28075 814.61685 707.1675 826.71875 710.1875 C 845.16115 714.5105 865.53625 627.573 847.09375 623.25 C 833.42565 620.232 819.74485 617.33275 805.96875 614.84375 C 795.30226 613.01194 784.61484 611.2879 773.90625 609.71875 C 783.21074 593.08674 792.21259 576.2886 800.65625 559.1875 C 807.41209 545.01331 753.26662 516.20157 729.8125 516.4375 z M 626.71875 687.21875 C 614.99312 707.098 603.30521 727.0197 591.75 747 C 590.84763 746.28915 589.93691 745.58192 589.03125 744.875 C 575.22918 734.13778 561.26085 723.60899 546.78125 713.8125 C 551.5026 705.88809 556.36815 698.0384 561.21875 690.1875 C 583.0187 688.56757 604.85309 687.57716 626.71875 687.21875 z "
     id="path9127" />
</svg>
