<?xml version="1.0" encoding="UTF-8" standalone="no"?>
<svg
   xmlns:dc="http://purl.org/dc/elements/1.1/"
   xmlns:cc="http://creativecommons.org/ns#"
   xmlns:rdf="http://www.w3.org/1999/02/22-rdf-syntax-ns#"
   xmlns:svg="http://www.w3.org/2000/svg"
   xmlns="http://www.w3.org/2000/svg"
   xmlns:sodipodi="http://sodipodi.sourceforge.net/DTD/sodipodi-0.dtd"
   xmlns:inkscape="http://www.inkscape.org/namespaces/inkscape"
   width="1024"
   height="1024"
   id="U64CD"
   version="1.1"
   inkscape:version="0.48.0 r9654"
   sodipodi:docname="U+64CD.svg">
  <metadata
     id="metadata23">
    <rdf:RDF>
      <cc:Work
         rdf:about="">
        <dc:format>image/svg+xml</dc:format>
        <dc:type
           rdf:resource="http://purl.org/dc/dcmitype/StillImage" />
      </cc:Work>
    </rdf:RDF>
  </metadata>
  <defs
     id="defs21" />
  <sodipodi:namedview
     pagecolor="#ffffff"
     bordercolor="#666666"
     borderopacity="1"
     objecttolerance="10"
     gridtolerance="10"
     guidetolerance="10"
     inkscape:pageopacity="0"
     inkscape:pageshadow="2"
     inkscape:window-width="640"
     inkscape:window-height="480"
     id="namedview19"
     showgrid="false"
     inkscape:zoom="0.27441406"
     inkscape:cx="512"
     inkscape:cy="512"
     inkscape:window-x="0"
     inkscape:window-y="25"
     inkscape:window-maximized="0"
     inkscape:current-layer="U64CD" />
  <path
     style="fill:#800000;fill-opacity:1;fill-rule:nonzero;stroke:#f9f9f9;stroke-width:0.1;stroke-miterlimit:4;stroke-dasharray:none"
     d="M 702.65625 82.6875 C 683.91875 82.592664 665.2845 85.517062 646.71875 90.9375 C 616.32715 99.5917 586.0674 110.09945 560.875 129.84375 C 558.59 131.78731 558.16211 135.14367 559.09375 139.375 C 533.57722 137.64077 500.98602 143.0484 501.34375 154.40625 C 503.43725 187.93575 506.92885 221.35055 511.28125 254.65625 C 513.48155 275.05545 518.3934 294.7296 525.75 313.8125 C 528.47838 320.26134 541.66552 319.40904 556.625 314.9375 C 560.52688 340.60549 581.75505 382.2953 594.28125 377.09375 C 621.46245 366.25345 649.80585 358.6891 678.09375 351.375 C 697.83215 348.5886 717.8942 339.1737 738.125 339.9375 C 753.77175 338.80595 751.7261 276.38906 739.5625 257.71875 C 762.81382 266.21571 792.51461 270.01796 795.46875 259.65625 C 800.75005 240.43995 798.5855 249.9752 802.125 231.0625 C 805.1334 204.7183 805.00665 178.3004 797.15625 152.6875 C 786.49855 121.8207 769.25475 96.4504 736.53125 86.25 C 725.18915 83.885513 713.89875 82.744402 702.65625 82.6875 z M 703.40625 168.25 C 707.76866 168.20464 711.88993 168.92975 715.46875 171 C 710.40555 172.3537 712.69095 174.56955 714.21875 179.96875 C 717.76485 193.31595 717.4734 206.97475 715.625 220.53125 C 713.484 230.94065 714.7854 225.84655 711.75 235.78125 C 710.15229 241.38523 717.39801 247.61657 728.21875 252.9375 C 703.90057 255.7602 680.09634 261.90383 656.34375 267.6875 C 639.72134 272.02964 623.11389 276.50811 606.625 281.34375 C 606.56223 280.80054 606.40507 280.26425 606.1875 279.75 C 599.8048 268.841 599.55935 255.26815 596.96875 243.21875 C 594.31069 223.76738 592.01484 204.24209 590.53125 184.65625 C 601.5751 194.82906 612.49986 201.00623 617.6875 196.59375 C 633.0249 184.96225 651.8961 179.55965 670.1875 174.53125 C 679.54253 173.56079 692.25786 168.36591 703.40625 168.25 z M 274.4375 171.0625 C 250.1785 171.10315 222.79585 177.20064 223.375 187.625 C 229.2738 240.4697 231.78135 293.55075 233.84375 346.65625 C 233.90481 348.71883 233.97073 350.78116 234.03125 352.84375 C 221.06924 355.1775 208.15608 357.66909 195.28125 360.46875 C 158.39605 369.04195 121.8677 378.9659 86.8125 393.5 C 69.656 400.6137 103.18715 481.4887 120.34375 474.375 C 150.50915 460.3606 182.58865 451.80015 214.84375 444.21875 C 222.03224 442.64861 229.24462 441.19096 236.46875 439.8125 C 238.02782 497.47588 239.52848 555.15307 241.25 612.8125 C 241.29468 614.72918 241.35881 616.64594 241.40625 618.5625 C 229.81736 627.26954 218.3374 636.09221 206.96875 645.09375 C 168.95565 676.00115 129.863 707.23425 101.75 747.90625 C 92.2554 763.88125 167.5679 808.63125 177.0625 792.65625 C 195.65933 765.93002 220.45498 744.32601 245.46875 723.5625 C 247.27953 756.89595 249.62985 790.20454 252.5625 823.46875 C 254.1311 849.90275 260.36965 876.1288 259.46875 902.6875 C 259.51355 921.1776 346.67 920.95885 346.625 902.46875 C 345.9918 873.21395 340.9765 844.44265 337.6875 815.40625 C 332.47141 764.00044 328.93341 712.45448 326.71875 660.84375 C 357.8261 638.48856 389.64265 617.09004 421.71875 596.15625 C 427.5585 592.43014 427.58476 592.40588 430.46875 590.5625 C 432.39478 594.74923 434.43565 598.89664 436.5625 603 C 441.17359 611.52452 464.38515 604.18014 484.21875 592.9375 C 484.78487 618.71105 501.74947 664.06271 515 660.1875 C 537.0582 653.8006 559.7848 650.03795 582.375 646.09375 C 595.4757 644.30355 608.6228 640.81805 621.9375 641.46875 C 633.40398 641.39743 637.57227 607.98614 634.71875 582.46875 C 651.11171 583.72492 665.16549 581.7019 666.40625 574.53125 C 668.73915 560.58225 670.58205 546.56475 672.78125 532.59375 C 676.71835 507.97735 681.13295 483.2446 681.40625 458.25 C 679.17935 421.7075 665.6412 396.64255 628.25 386.53125 C 599.3144 381.65025 570.1626 383.13695 541.25 387.96875 C 509.8059 393.19345 478.3241 398.9087 447.9375 408.75 C 444.46857 410.01912 442.9018 414.30649 442.71875 420.28125 C 423.40071 418.75199 405.46777 421.13306 404.4375 429.375 C 401.62226 454.44501 402.94109 479.4321 406.375 504.21875 C 396.34825 510.74495 396.41841 510.70534 374.6875 525.03125 C 357.53695 536.51942 340.4099 548.09939 323.40625 559.8125 C 322.08648 515.47027 320.90136 471.13106 319.875 426.78125 C 321.38586 426.57954 322.89533 426.38774 324.40625 426.1875 L 335.6875 424.71875 C 353.9724 422.09335 341.5975 335.90585 323.3125 338.53125 C 321.53067 338.81112 319.75059 339.09515 317.96875 339.375 C 316.46042 287.12167 314.33045 234.90722 310.75 182.75 C 310.29959 174.64212 293.30561 171.03088 274.4375 171.0625 z M 864.34375 358.71875 C 850.26745 358.65852 836.20081 359.41782 822.21875 361.25 C 792.11485 366.3366 762.56995 374.37895 736.78125 391.40625 C 731.40203 395.19366 734.28114 406.60911 740.875 419.3125 C 720.24109 419.28692 700.5926 423.44275 700.375 432.21875 C 700.4583 461.02375 705.3521 489.399 712.0625 517.3125 C 714.6894 528.174 718.61775 538.56145 722.90625 548.84375 C 726.45172 556.82226 746.01836 553.1924 764.96875 545.34375 C 760.92134 570.55493 770.46438 619.53596 784.375 617.8125 C 811.0451 614.1117 837.93955 612.4478 864.78125 610.5 C 885.73205 609.5528 906.8823 606.6986 927.875 608.3125 C 931.65558 608.4735 934.82706 604.97119 937.3125 599.28125 C 949.03681 598.88366 957.86063 596.26322 958.75 590.59375 C 959.2208 587.25215 958.98375 589.0512 959.53125 585.25 C 961.53595 571.6862 963.71205 558.1336 966.40625 544.6875 C 971.72705 519.1691 978.01665 493.7608 980.90625 467.8125 C 982.82995 439.0585 980.12195 411.3115 959.53125 389.1875 C 941.85145 372.8265 921.53215 362.3165 897.15625 360.25 C 886.2471 359.31979 875.29198 358.7656 864.34375 358.71875 z M 862.625 445.75 C 871.43827 445.7815 880.2467 446.2686 889 447.21875 C 892.5734 447.69705 897.78925 448.61415 897.65625 451.21875 C 892.54945 447.61315 894.1823 458.60685 893.9375 461.46875 C 891.36741 482.00453 886.60123 502.17106 882.1875 522.375 C 874.27983 522.90565 866.36795 523.50513 858.46875 524.09375 C 836.94699 525.67687 815.40816 527.13281 793.90625 528.96875 C 800.9138 523.31723 804.89029 517.67566 802.9375 513.28125 C 800.1072 507.93515 798.23675 502.2355 796.53125 496.4375 C 793.58904 484.97414 791.01734 473.35694 789.46875 461.625 C 803.62943 452.96954 819.98331 449.53729 836.21875 447.03125 C 844.98025 446.1619 853.81173 445.7185 862.625 445.75 z M 593.53125 469.90625 C 592.2197 486.30468 589.48176 502.5809 586.875 518.8125 C 584.71854 531.88362 582.99349 545.01798 580.6875 558.0625 C 576.1959 558.80967 571.69668 559.64995 567.21875 560.53125 C 548.59003 563.86758 529.93834 567.16213 511.4375 571.15625 C 513.91803 567.49436 514.78837 564.13943 513.34375 561.46875 C 504.91745 547.20455 499.8579 531.2827 495.9375 515.25 C 494.02552 505.79007 492.37857 496.28662 491.25 486.71875 C 512.1906 480.58 533.8345 476.92603 555.34375 473.40625 C 567.6606 472.40715 580.75982 469.82309 593.53125 469.90625 z M 605.1875 470.875 C 607.30123 471.23838 609.39842 471.69773 611.46875 472.3125 C 609.60452 472.97422 607.33395 472.17456 605.1875 470.875 z M 693.09375 587.40625 C 668.83788 587.10384 641.34959 592.819 641.78125 603.25 C 644.63761 639.86123 646.27362 676.56134 647.75 713.25 C 609.31778 719.99447 571.02687 727.36916 532.9375 735.875 C 488.8626 746.1645 444.78585 756.89945 402.03125 771.90625 C 384.80655 778.85165 417.5253 860.0704 434.75 853.125 C 472.42976 838.46368 511.81465 828.70996 551.03125 819.15625 C 537.72116 833.74806 525.22937 849.04625 514.53125 865.6875 C 512.68515 869.6616 510.8461 873.6509 509 877.625 C 502.2031 894.9364 583.79685 926.96765 590.59375 909.65625 C 590.09525 910.19805 589.59225 910.73935 589.09375 911.28125 C 600.19985 890.65525 618.42925 874.54955 633.96875 857.40625 C 639.87933 851.71865 645.816 846.00116 651.9375 840.46875 C 652.22871 852.73193 652.50276 865.01597 652.71875 877.28125 C 652.93465 897.08985 653.9794 916.85685 655.625 936.59375 C 657.8118 955.08785 744.9994 944.77535 742.8125 926.28125 C 739.93796 909.46411 739.62571 892.31158 738.8125 875.3125 C 759.67965 875.58435 779.68274 882.5182 799.21875 889.3125 C 827.75915 900.1362 855.867 912.0255 884.375 922.9375 C 903.7566 930.2214 923.211 937.3126 942.3125 945.3125 C 959.4936 952.3205 992.52485 871.3206 975.34375 864.3125 C 955.44575 856.3779 935.25645 849.2126 915.15625 841.8125 C 885.79075 830.7644 856.9402 818.48175 827.5625 807.46875 C 797.91179 797.23406 767.58155 788.25802 736 787.84375 C 735.96015 786.67671 735.91499 785.51079 735.875 784.34375 C 743.29228 783.19339 750.70343 782.05416 758.125 780.9375 C 810.6819 773.154 863.57735 767.86515 916.53125 763.71875 C 929.23605 762.89425 941.92695 761.75705 954.65625 761.34375 C 964.8283 761.01339 968.56437 763.32007 945.75 757.625 C 963.63656 757.99182 1000.8481 688.16778 985.3125 679.65625 C 978.5174 677.71755 971.8551 675.28515 964.9375 673.84375 C 947.9262 670.29895 926.1896 679.2515 909.0625 677.8125 C 854.3758 683.0306 799.72685 689.01145 745.40625 697.28125 C 741.23559 697.922 737.07598 698.57035 732.90625 699.21875 C 731.71449 666.02456 730.41614 632.81762 729.1875 599.625 C 728.85181 591.512 711.95943 587.64145 693.09375 587.40625 z "
     id="path20541" />
</svg>
