<?xml version="1.0" encoding="utf-8" ?>

<!DOCTYPE svg PUBLIC "-//W3C//DTD SVG 1.1//EN" 
  "http://www.w3.org/Graphics/SVG/1.1/DTD/svg11.dtd">
<svg 
    xmlns="http://www.w3.org/2000/svg"
    xmlns:xlink="http://www.w3.org/1999/xlink"
    xmlns:sodipodi="http://sodipodi.sourceforge.net/DTD/sodipodi-0.dtd"
    xmlns:inkscape="http://www.inkscape.org/namespaces/inkscape"
    width="1024" height="1024" id="U64E6">
<path d="m 9347.5562,3428.5554 c 38.6038,-4.5943 77.2803,-8.5324 115.9564,-12.4592 39.4392,-4.2239 78.9613,-7.6674 118.3922,-11.9646 18.3666,-1.7283 26.514,84.8528 8.1474,86.5811 l 0,0 c -39.26,3.1351 -78.5164,6.3383 -117.6748,10.5979 -37.5152,3.9977 -75.075,7.92 -112.3263,13.974 -18.3981,2.6506 -30.893,-84.0786 -12.4949,-86.7292 z" id="path20383" inkscape:connector-curvature="0" style="fill:#aa0000;fill-opacity:1;fill-rule:nonzero;stroke:#f9f9f9;stroke-width:0.1;stroke-miterlimit:4;stroke-dasharray:none" transform="translate(-9216, -3072)"/><path d="m 9559.8965,3278.3918 c -15.0018,37.7248 -19.7261,78.535 -24.7881,118.5161 -7.9648,74.8134 -12.067,149.9702 -16.6876,225.0451 -4.1275,69.1799 -9.3777,138.2824 -15.6003,207.3035 -2.6246,29.3861 -6.0821,58.6784 -10.3305,87.8703 -2.8189,18.1361 -88.3135,4.8477 -85.4946,-13.2884 l 0,0 c 4.5666,-27.4201 8.1731,-54.978 10.9077,-82.6448 6.7932,-68.0339 12.3429,-136.1838 16.4901,-204.4328 4.7612,-76.749 8.8232,-153.5767 16.307,-230.1221 5.6323,-48.0817 11.5464,-96.7097 28.6004,-142.3451 7.2333,-17.097 87.8293,17.0013 80.5959,34.0982 z" id="path20385" inkscape:connector-curvature="0" style="fill:#aa0000;fill-opacity:1;fill-rule:nonzero;stroke:#f9f9f9;stroke-width:0.1;stroke-miterlimit:4;stroke-dasharray:none" transform="translate(-9216, -3072)"/><path d="m 9259.6416,3812.4139 c 27.3243,-38.1505 67.6129,-63.5217 106.7387,-88.0299 45.8625,-27.8493 94.0201,-51.5821 142.4029,-74.6624 5.4944,-2.5943 10.9888,-5.1886 16.4831,-7.7829 16.6392,-7.6858 52.8703,70.752 36.2311,78.4378 l 0,0 c -5.3915,2.4339 -10.783,4.8679 -16.1745,7.3018 -45.501,20.9372 -90.6697,42.8049 -133.4155,69.0248 -27.6347,17.4969 -56.9745,35.0797 -77.3892,61.224 -9.6548,15.8837 -84.5314,-29.6295 -74.8766,-45.5132 z" id="path20387" inkscape:connector-curvature="0" style="fill:#aa0000;fill-opacity:1;fill-rule:nonzero;stroke:#f9f9f9;stroke-width:0.1;stroke-miterlimit:4;stroke-dasharray:none" transform="translate(-9216, -3072)"/><path d="m 9815.8325,3143.6372 c 18.8551,18.1728 39.7857,34.0357 60.3061,50.2532 15.8584,12.8307 8.0629,6.3194 23.3913,19.5281 13.8885,12.104 -43.1706,77.5748 -57.0591,65.4707 l 0,0 c -12.6506,-11.1815 -5.9644,-5.4808 -20.1107,-17.0407 -22.8837,-18.1326 -46.0899,-35.9253 -67.7509,-55.5304 -13.2966,-12.9874 47.9266,-75.6683 61.2233,-62.6809 z" id="path20389" inkscape:connector-curvature="0" style="fill:#aa0000;fill-opacity:1;fill-rule:nonzero;stroke:#f9f9f9;stroke-width:0.1;stroke-miterlimit:4;stroke-dasharray:none" transform="translate(-9216, -3072)"/><path d="m 9710.3852,3331.0656 c -17.3172,21.5988 -27.166,47.7656 -36.3434,73.5575 -9.041,26.9878 -15.1261,54.8175 -20.8729,82.6521 -3.8791,17.9878 -88.6746,-0.2983 -84.7955,-18.2861 l 0,0 c 7.033,-31.3573 14.2202,-62.7417 24.473,-93.2391 12.3968,-34.8796 26.3935,-69.5255 49.0034,-99.233 11.5715,-14.5386 80.107,40.0101 68.5354,54.5486 z" id="path20391" inkscape:connector-curvature="0" style="fill:#aa0000;fill-opacity:1;fill-rule:nonzero;stroke:#f9f9f9;stroke-width:0.1;stroke-miterlimit:4;stroke-dasharray:none" transform="translate(-9216, -3072)"/><path d="m 9679.03,3299.3664 c 36.7068,-10.8378 74.688,-16.2234 112.5693,-20.9812 47.1541,-5.7039 94.6789,-5.8138 142.0921,-5.3341 36.6294,0.3639 73.2356,1.5549 109.7786,4.0928 19.343,1.6601 38.686,3.4795 57.919,6.1528 19.622,2.0983 34.988,11.1644 48.042,25.5994 10.85,14.7075 13.025,32.3255 14.476,49.9581 0.759,11.048 1.114,22.1179 1.498,33.1836 0.492,6.3686 -0.58,12.5268 -1.538,18.7977 -3.754,18.2767 -89.911,0.5792 -86.157,-17.6975 l 0,0 c -0.384,5.1878 -0.154,4.1979 -0.134,1.1061 -0.14,-9.4124 -0.361,-18.8282 -1.014,-28.2211 -0.822,-10.0561 -3.238,-13.652 3.661,-2.876 3.252,3.0867 19.369,11.0751 8.357,6.8255 -17.117,-2.7265 -34.366,-4.5652 -51.607,-6.2935 -34.695,-2.8178 -69.4736,-4.1573 -104.2795,-4.6331 -43.445,-0.5713 -87.0106,-0.6964 -130.2153,4.6421 -31.9652,4.1448 -64.2018,8.4912 -94.9663,18.4747 -17.5637,6.0419 -46.0456,-76.7543 -28.4819,-82.7963 z" id="path20393" inkscape:connector-curvature="0" style="fill:#aa0000;fill-opacity:1;fill-rule:nonzero;stroke:#f9f9f9;stroke-width:0.1;stroke-miterlimit:4;stroke-dasharray:none" transform="translate(-9216, -3072)"/><path d="m 9749.0741,3454.2691 c -15.6054,26.0527 -30.8283,52.3361 -46.0482,78.6162 -9.7741,16.7239 -19.289,33.5958 -28.7376,50.5049 -9.165,16.0268 -84.7161,-27.1771 -75.5511,-43.2039 l 0,0 c 9.8626,-16.8562 19.6087,-33.7801 29.4591,-50.6435 15.1519,-26.156 30.4024,-52.2618 44.8744,-78.8029 9.234,-16.1228 85.2373,27.4064 76.0034,43.5292 z" id="path20395" inkscape:connector-curvature="0" style="fill:#aa0000;fill-opacity:1;fill-rule:nonzero;stroke:#f9f9f9;stroke-width:0.1;stroke-miterlimit:4;stroke-dasharray:none" transform="translate(-9216, -3072)"/><path d="m 9713.123,3430.952 c 28.5593,-1.9 57.1247,-1.1025 85.6279,1.1296 26.3972,2.328 52.6973,5.638 77.4862,15.2735 4.56,2.9675 10.0209,4.8764 13.68,8.9026 33.6259,36.9984 13.1906,66.3121 -15.7749,94.007 -30.8683,28.0347 -60.6379,57.2262 -90.2676,86.5555 -36.2184,36.0436 -72.0661,72.4568 -108.4695,108.3141 -26.0204,25.427 -52.9989,49.8489 -80.3801,73.7958 -41.6157,34.9626 -27.7826,18.8965 -86.365,-34.3399 2.7619,-18.39 89.4531,-5.3704 86.6912,13.0196 l 0,0 c -20.0118,-13.9836 -38.8497,-29.8189 -60.0353,-41.9507 -2.1466,-1.2292 -4.2048,2.6087 -6.258,3.9883 -3.2043,2.153 22.7434,-13.9975 9.3653,-6.8134 26.4003,-22.107 52.1686,-44.9782 76.9136,-68.932 36.4148,-35.5733 72.1795,-71.7996 108.138,-107.8324 29.7837,-29.7405 59.6811,-59.3641 90.2009,-88.3522 0.4917,-0.4833 9.0394,-9.0973 9.0037,-8.5456 -0.1765,2.7294 -2.4691,5.083 -2.4907,7.818 -0.1382,17.473 3.064,33.569 21.0424,40.6336 -14.9734,-6.5332 -33.0795,-6.7543 -49.3994,-9.0878 -23.7675,-1.9521 -47.6579,-2.7574 -71.4272,-0.2063 -18.5355,1.5446 -25.817,-85.8327 -7.2815,-87.3773 z" id="path20397" inkscape:connector-curvature="0" style="fill:#aa0000;fill-opacity:1;fill-rule:nonzero;stroke:#f9f9f9;stroke-width:0.1;stroke-miterlimit:4;stroke-dasharray:none" transform="translate(-9216, -3072)"/><path d="m 9685.2893,3538.6583 c 5.2329,16.9772 15.66,31.2145 27.7299,43.9455 2.1379,1.8946 4.2758,3.7892 6.4136,5.6839 13.5561,12.5204 -45.4658,76.4244 -59.0219,63.904 l 0,0 c -3.8417,-3.6282 -7.6834,-7.2564 -11.5252,-10.8846 -20.2217,-22.5346 -37.4899,-47.3448 -47.2063,-76.3272 -5.5837,-17.7363 78.0263,-44.058 83.6099,-26.3216 z" id="path20399" inkscape:connector-curvature="0" style="fill:#aa0000;fill-opacity:1;fill-rule:nonzero;stroke:#f9f9f9;stroke-width:0.1;stroke-miterlimit:4;stroke-dasharray:none" transform="translate(-9216, -3072)"/><path d="m 9919.5554,3404.2356 c 27.107,-4.0734 54.5469,-5.1182 81.9186,-4.7061 21.999,1.0499 47.988,2.8506 63.901,20.6495 5.237,5.8573 8.338,13.3187 12.508,19.978 9.091,36.9176 -10.975,62.188 -35.24,86.8816 -21.788,20.8295 -45.1053,39.9797 -68.8038,58.5762 -14.48,11.339 -67.9326,-56.9204 -53.4526,-68.2594 l 0,0 c 20.7975,-16.2478 41.1411,-33.1256 60.1911,-51.4125 19.8703,-20.1304 8.8679,-17.2971 15.9001,7.0089 3.0141,3.792 5.4782,8.095 9.0422,11.3759 8.821,8.121 18.649,3.2695 -5.894,2.2319 -21.138,-0.6196 -42.4231,-0.011 -63.2956,3.6481 -18.2374,3.5585 -35.0125,-82.4136 -16.775,-85.9721 z" id="path20401" inkscape:connector-curvature="0" style="fill:#aa0000;fill-opacity:1;fill-rule:nonzero;stroke:#f9f9f9;stroke-width:0.1;stroke-miterlimit:4;stroke-dasharray:none" transform="translate(-9216, -3072)"/><path d="m 9917.3335,3490.9478 c 3.2291,25.9383 15.5708,48.9538 28.8069,71.0129 20.1765,31.8296 46.2289,58.919 74.6046,83.443 24.022,20.3832 51.69,35.195 80.485,47.5339 10.493,4.4129 21.257,8.1219 31.937,12.0444 17.35,6.6507 -14.002,88.438 -31.352,81.7873 l 0,0 c -11.866,-4.7697 -23.89,-9.1523 -35.569,-14.3811 -36.482,-16.4103 -71.5293,-35.9022 -102.0441,-62.0766 -35.0334,-30.7135 -67.2727,-64.4908 -92.1498,-104.1534 -19.3576,-32.59 -36.0887,-66.7281 -41.6367,-104.6749 -2.2349,-18.4381 84.6832,-28.9736 86.9181,-10.5355 z" id="path20403" inkscape:connector-curvature="0" style="fill:#aa0000;fill-opacity:1;fill-rule:nonzero;stroke:#f9f9f9;stroke-width:0.1;stroke-miterlimit:4;stroke-dasharray:none" transform="translate(-9216, -3072)"/><path d="m 9729.6626,3678.4437 c 33.7761,-6.1439 67.8178,-10.58 101.8957,-14.6448 18.1674,-2.1589 36.3732,-3.935 54.5923,-5.5847 18.3087,-1.5333 25.5369,84.7746 7.2282,86.308 l 0,0 c -17.2155,1.3142 -34.4139,2.8094 -51.5594,4.8719 -31.7284,3.8237 -63.4938,7.8995 -94.7102,14.8869 -18.2088,3.701 -35.6554,-82.1363 -17.4466,-85.8373 z" id="path20405" inkscape:connector-curvature="0" style="fill:#aa0000;fill-opacity:1;fill-rule:nonzero;stroke:#f9f9f9;stroke-width:0.1;stroke-miterlimit:4;stroke-dasharray:none" transform="translate(-9216, -3072)"/><path d="m 9662.1739,3792.3224 c 41.1404,-1.0207 82.2405,-3.3296 123.3631,-4.9432 46.8629,-1.9945 93.753,-2.8524 140.6527,-2.2226 18.464,0.2975 36.9149,1.0582 55.3674,1.7354 18.4889,0.955 13.987,88.1115 -4.5017,87.1565 l 0,0 c -17.4653,-1.1712 -34.9417,-2.2065 -52.443,-2.6669 -45.2059,-1.0616 -90.4156,-0.3997 -135.5916,1.5993 -41.544,1.7525 -83.0544,4.0407 -124.5462,6.7677 -18.5459,0.4881 -20.8466,-86.9381 -2.3007,-87.4262 z" id="path20407" inkscape:connector-curvature="0" style="fill:#aa0000;fill-opacity:1;fill-rule:nonzero;stroke:#f9f9f9;stroke-width:0.1;stroke-miterlimit:4;stroke-dasharray:none" transform="translate(-9216, -3072)"/><path d="m 9903.2589,3812.4243 c -11.9502,21.9579 -15.9989,47.0648 -20.0262,71.4272 -5.104,35.6578 -7.1075,71.6577 -8.9325,107.6027 -0.6874,13.4844 -1.0983,26.9801 -1.3953,40.4779 -0.8553,18.5664 -88.3783,14.5346 -87.523,-4.0318 l 0,0 c 0.9797,-13.7592 1.5891,-27.5411 2.5002,-41.3049 2.4,-39.014 4.6294,-78.1007 10.1872,-116.8231 5.8006,-35.0854 12.7124,-70.4884 29.8118,-102.1036 9.4941,-15.99 84.8719,28.7656 75.3778,44.7556 z" id="path20409" inkscape:connector-curvature="0" style="fill:#aa0000;fill-opacity:1;fill-rule:nonzero;stroke:#f9f9f9;stroke-width:0.1;stroke-miterlimit:4;stroke-dasharray:none" transform="translate(-9216, -3072)"/><path d="m 9773.9696,3939.3433 c -24.4775,6.3885 -46.648,19.0738 -68.4769,31.4802 -25.2963,14.8671 -49.8229,31.0898 -72.9359,49.1763 -14.7493,11.1465 -67.2941,-58.3825 -52.5448,-69.529 l 0,0 c 26.6545,-19.572 54.1724,-37.9786 82.6902,-54.7362 28.7665,-16.4306 58.1033,-32.4236 90.188,-41.4357 18.0407,-4.4717 39.12,80.5728 21.0794,85.0444 z" id="path20411" inkscape:connector-curvature="0" style="fill:#aa0000;fill-opacity:1;fill-rule:nonzero;stroke:#f9f9f9;stroke-width:0.1;stroke-miterlimit:4;stroke-dasharray:none" transform="translate(-9216, -3072)"/><path d="m 9952.6547,3894.7973 c 23.3811,12.9129 47.3473,24.6469 70.3603,38.2282 15.652,10.293 8.112,4.9908 22.65,15.8636 14.673,11.2479 -38.35,80.4154 -53.0231,69.1675 l 0,0 c -8.6565,-6.9196 -3.9705,-3.4142 -14.1388,-10.4071 -22.3908,-13.5353 -45.9797,-24.8048 -69.22,-36.7851 -16.1363,-9.2005 27.2353,-85.2676 43.3716,-76.0671 z" id="path20413" inkscape:connector-curvature="0" style="fill:#aa0000;fill-opacity:1;fill-rule:nonzero;stroke:#f9f9f9;stroke-width:0.1;stroke-miterlimit:4;stroke-dasharray:none" transform="translate(-9216, -3072)"/></svg>