<?xml version="1.0" encoding="utf-8" ?>

<!DOCTYPE svg PUBLIC "-//W3C//DTD SVG 1.1//EN" 
  "http://www.w3.org/Graphics/SVG/1.1/DTD/svg11.dtd">
<svg 
    xmlns="http://www.w3.org/2000/svg"
    xmlns:xlink="http://www.w3.org/1999/xlink"
    xmlns:sodipodi="http://sodipodi.sourceforge.net/DTD/sodipodi-0.dtd"
    xmlns:inkscape="http://www.inkscape.org/namespaces/inkscape"
    width="1024" height="1024" id="U6559">
<path d="m 11400.831,22783.677 c 36.785,-6.665 73.688,-12.541 110.679,-17.94 40.754,-5.665 81.334,-12.478 122.094,-18.096 17.397,-2.804 35.249,-3.397 52.454,-7.099 18.631,-3.822 36.645,84.005 18.014,87.826 l 0,0 c -19.491,3.331 -39.307,4.113 -58.892,6.757 -40.394,5.109 -80.569,11.736 -120.886,17.405 -36.177,5.378 -72.323,11.046 -108.02,19.107 -18.659,3.276 -34.102,-84.684 -15.443,-87.96 z" id="path8945" inkscape:connector-curvature="0" style="fill:#550000;fill-opacity:1;fill-rule:nonzero;stroke:#f9f9f9;stroke-width:0.1;stroke-miterlimit:4;stroke-dasharray:none" transform="translate(-11264, -22528)"/><path d="m 11572.739,22656.735 c -4.297,41.438 -5.342,83.142 -6.709,124.756 -1.748,57.428 -3.449,114.859 -4.246,172.309 -0.404,24.644 0.25,49.265 2.449,73.809 1.407,18.718 -86.829,25.348 -88.236,6.631 l 0,0 c -1.733,-27.293 -2.225,-54.622 -1.522,-81.969 1.218,-57.791 3.044,-115.567 4.447,-173.354 1.148,-43.595 2.194,-87.209 4.937,-130.741 1.816,-18.854 90.696,-10.295 88.88,8.559 z" id="path8947" inkscape:connector-curvature="0" style="fill:#550000;fill-opacity:1;fill-rule:nonzero;stroke:#f9f9f9;stroke-width:0.1;stroke-miterlimit:4;stroke-dasharray:none" transform="translate(-11264, -22528)"/><path d="m 11355.875,22996.077 c 43.086,-8.324 86.751,-13.28 130.281,-18.646 53.514,-6.284 107.112,-11.821 160.668,-17.723 35.891,-3.964 71.769,-8.042 107.661,-11.991 9.863,-1.466 22.232,-1.894 30.999,-4.134 18.44,-4.592 40.083,82.333 21.644,86.924 l 0,0 c -14.385,3.056 -28.999,4.062 -43.629,5.413 -35.808,3.378 -71.582,7.088 -107.357,10.797 -53.053,5.518 -106.132,10.842 -159.083,17.286 -39.923,5.137 -80.09,9.722 -119.381,18.644 -18.364,4.625 -40.167,-81.944 -21.803,-86.57 z" id="path8949" inkscape:connector-curvature="0" style="fill:#550000;fill-opacity:1;fill-rule:nonzero;stroke:#f9f9f9;stroke-width:0.1;stroke-miterlimit:4;stroke-dasharray:none" transform="translate(-11264, -22528)"/><path d="m 11751.436,22780.673 c -30.127,30.454 -54.07,66.212 -77.42,101.918 -39.118,60.953 -71.153,125.94 -100.789,191.901 -25.024,56.99 -46.509,115.417 -65.138,174.781 -9.667,31.135 -17.246,62.852 -25.963,94.251 -0.731,2.391 -1.462,4.782 -2.193,7.173 -5.996,17.99 -90.802,-10.277 -84.806,-28.267 l 0,0 c 0.524,-1.372 1.047,-2.745 1.571,-4.118 10.02,-31.693 17.846,-64.055 28.21,-95.65 20.281,-62.276 43.289,-123.632 69.783,-183.555 31.567,-69.874 65.567,-138.739 106.528,-203.676 26.419,-41.136 53.778,-81.91 87.069,-117.907 13.396,-13.395 76.544,49.753 63.148,63.149 z" id="path8951" inkscape:connector-curvature="0" style="fill:#550000;fill-opacity:1;fill-rule:nonzero;stroke:#f9f9f9;stroke-width:0.1;stroke-miterlimit:4;stroke-dasharray:none" transform="translate(-11264, -22528)"/><path d="m 11563.956,23099.498 c 32.483,-4.664 65.334,-5.255 98.089,-5.286 27.46,0.199 54.938,0.549 82.248,3.612 27.687,3.895 52.921,16.188 56.901,48.62 1.142,9.31 -4.132,18.299 -6.198,27.449 -11.472,17.247 -27.482,30.724 -41.736,45.61 -13.482,13.803 -24.458,29.61 -34.203,46.185 -3.591,4.903 -7.636,15.914 -8.256,19.303 1.398,-6.794 2.728,-2.249 6.106,2.22 13.891,16.304 25.149,34.189 34.377,53.467 10.174,23.367 14.814,48.414 17.887,73.554 1.687,14.57 1.944,29.236 1.893,43.885 0.743,15.308 -3.507,28.576 -10.731,41.96 -16.784,21.382 -39.962,25.186 -64.806,17.955 -18.107,-5.771 9.1,-91.125 27.206,-85.354 l 0,0 c -15.315,-0.563 -27.935,4.308 -36.936,17.379 -1.812,3.843 -6.495,22.841 -4.272,7.09 0.213,-10.877 0.294,-21.775 -0.799,-32.614 -1.702,-15.707 -4.157,-31.424 -10.053,-46.185 -6.301,-14.216 -15.758,-26.288 -25.62,-38.231 -14.563,-20.021 -25.469,-41.527 -22.894,-67.114 3.297,-19.123 10.208,-36.686 20.597,-53.156 13.392,-21.938 28.224,-42.979 46.078,-61.57 7.179,-7.607 14.423,-15.127 21.776,-22.565 5.84,-5.907 6.937,-7.123 6.925,-7.04 -0.236,1.703 -1.632,3.026 -2.449,4.539 -1.086,7.224 -4.712,14.514 -3.257,21.673 1.074,5.284 12.619,34.687 26.718,32.964 1.814,-0.221 -12.598,-3.227 -5.253,-1.581 -23.577,-3.364 -47.454,-3.346 -71.221,-3.814 -27.577,-0.01 -55.351,0.217 -82.586,5.053 -18.669,3.295 -34.2,-84.714 -15.531,-88.008 z" id="path8957" inkscape:connector-curvature="0" style="fill:#550000;fill-opacity:1;fill-rule:nonzero;stroke:#f9f9f9;stroke-width:0.1;stroke-miterlimit:4;stroke-dasharray:none" transform="translate(-11264, -22528)"/><path d="m 11521.941,23262.734 c 37.266,-2.944 74.349,-7.814 111.573,-11.283 43.537,-3.881 87.248,-3.204 130.849,-1.154 24.654,1.413 49.308,3.297 73.677,7.381 7.698,1.198 14.951,3.752 22.186,6.516 17.484,7.504 -17.891,89.922 -35.374,82.417 l 0,0 c 0.555,0.124 1.167,0.645 1.666,0.372 1.32,-0.722 -8.627,-1.012 -4.283,-1.426 -20.57,-4.059 -41.516,-5.673 -62.402,-7.191 -39.331,-2.212 -78.784,-3.135 -118.084,0.365 -37.827,3.616 -75.478,8.61 -113.212,13.052 -18.89,1.399 -25.486,-87.65 -6.596,-89.049 z" id="path8959" inkscape:connector-curvature="0" style="fill:#550000;fill-opacity:1;fill-rule:nonzero;stroke:#f9f9f9;stroke-width:0.1;stroke-miterlimit:4;stroke-dasharray:none" transform="translate(-11264, -22528)"/><path d="m 11931.926,22731.846 c -16.069,45.13 -30.76,90.739 -45.63,136.274 -20.059,60.793 -39.443,121.804 -57.545,183.209 -5.621,22.184 -13.571,43.874 -18.046,66.349 -4.609,18.393 -91.314,-3.336 -86.705,-21.729 l 0,0 c 6.653,-23.415 14.266,-46.55 21.145,-69.899 19.094,-61.636 38.96,-123.026 58.706,-184.456 14.605,-46.084 29.201,-92.173 43.53,-138.344 6.066,-17.935 90.611,10.661 84.545,28.596 z" id="path8961" inkscape:connector-curvature="0" style="fill:#550000;fill-opacity:1;fill-rule:nonzero;stroke:#f9f9f9;stroke-width:0.1;stroke-miterlimit:4;stroke-dasharray:none" transform="translate(-11264, -22528)"/><path d="m 11825.915,22870.314 c 37.756,-17.392 77.637,-28.879 117.934,-38.589 51.338,-11.435 103.854,-15.305 156.207,-18.684 25.787,-2.319 51.813,-1.909 77.552,-4.777 18.907,-1.47 25.838,87.657 6.931,89.128 l 0,0 c -26.379,1.439 -52.821,1.51 -79.19,3.225 -47.214,2.652 -94.605,5.777 -140.891,16.088 -34.295,8.379 -68.426,18.109 -100.02,34.223 -17.101,8.172 -55.624,-72.442 -38.523,-80.614 z" id="path8963" inkscape:connector-curvature="0" style="fill:#550000;fill-opacity:1;fill-rule:nonzero;stroke:#f9f9f9;stroke-width:0.1;stroke-miterlimit:4;stroke-dasharray:none" transform="translate(-11264, -22528)"/><path d="m 12130.48,22873.259 c -0.382,44.921 -7.667,88.962 -17.895,132.565 -18.85,70.055 -49.279,136.162 -79.451,201.888 -26.791,57.334 -52.834,115.018 -80.745,171.82 -16.41,28.718 -29.165,62.517 -54.522,85.09 -4.662,4.149 -10.041,7.412 -15.062,11.119 -15.973,10.118 -63.673,-65.18 -47.699,-75.299 l 0,0 c -2.885,8.02 8.724,-7.809 10.314,-10.059 6.208,-8.782 13.025,-20.574 18.127,-29.781 3.65,-6.589 7.1,-13.286 10.65,-19.929 28.039,-55.759 54.038,-112.5 80.528,-169.004 27.793,-60.378 55.855,-121.13 73.006,-185.57 8.624,-37.506 14.707,-75.482 13.484,-114.125 0.272,-18.936 89.537,-17.651 89.265,1.285 z" id="path8965" inkscape:connector-curvature="0" style="fill:#550000;fill-opacity:1;fill-rule:nonzero;stroke:#f9f9f9;stroke-width:0.1;stroke-miterlimit:4;stroke-dasharray:none" transform="translate(-11264, -22528)"/><path d="m 11884.547,23031.979 c 29.632,24.903 54.989,54.337 80.714,83.119 36.325,41.581 74.592,81.382 112.884,121.136 33.891,35.086 66.629,71.253 99.661,107.141 17.658,19.373 35.827,38.337 51.996,58.995 11.454,15.067 -59.571,69.058 -71.024,53.991 l 0,0 c -13.822,-19.139 -30.696,-35.88 -46.047,-53.75 -32.095,-35.653 -64.056,-71.44 -97.35,-105.987 -38.906,-40.48 -77.853,-80.936 -115.149,-122.919 -22.164,-24.383 -43.855,-49.642 -69.585,-70.388 -15.133,-11.434 38.767,-82.772 53.9,-71.338 z" id="path8967" inkscape:connector-curvature="0" style="fill:#550000;fill-opacity:1;fill-rule:nonzero;stroke:#f9f9f9;stroke-width:0.1;stroke-miterlimit:4;stroke-dasharray:none" transform="translate(-11264, -22528)"/></svg>