<?xml version="1.0" encoding="utf-8" ?>

<!DOCTYPE svg PUBLIC "-//W3C//DTD SVG 1.1//EN" 
  "http://www.w3.org/Graphics/SVG/1.1/DTD/svg11.dtd">
<svg 
    xmlns="http://www.w3.org/2000/svg"
    xmlns:xlink="http://www.w3.org/1999/xlink"
    xmlns:sodipodi="http://sodipodi.sourceforge.net/DTD/sodipodi-0.dtd"
    xmlns:inkscape="http://www.inkscape.org/namespaces/inkscape"
    width="1024" height="1024" id="U6539">
<path d="m 9367.5952,13477.652 c 29.9195,-2.576 59.7156,-6.393 89.5875,-9.462 32.5003,-3.07 65.0576,-5.678 97.6847,-6.872 28.6322,-0.955 57.1776,5.461 73.6441,31.521 3.7632,5.956 5.2693,13.068 7.904,19.602 5.9242,34.86 -1.7432,70.1 -7.5876,104.489 -5.688,32.186 -11.0967,64.415 -15.5403,96.797 -1.4974,11.343 -2.7302,22.712 -4.6089,33.999 -3.3965,18.29 -89.6181,2.278 -86.2216,-16.012 l 0,0 c 2.2658,-10.028 3.0445,-20.332 4.8323,-30.447 5.0137,-32.943 10.6555,-65.78 16.3399,-98.613 3.5545,-21.544 7.1555,-43.965 8.9334,-65.401 12.1862,16.542 30.6829,12.17 4.8809,10.973 -30.5139,0.659 -60.9627,3.038 -91.3385,5.938 -29.864,3.132 -59.6547,6.881 -89.4493,10.61 -18.4813,1.922 -27.5419,-85.2 -9.0606,-87.122 z" id="path23367" inkscape:connector-curvature="0" style="fill:#550000;fill-opacity:1;fill-rule:nonzero;stroke:#f9f9f9;stroke-width:0.1;stroke-miterlimit:4;stroke-dasharray:none" transform="translate(-9216, -13312)"/><path d="m 9345.5142,13715.874 c 37.4193,-6.781 74.5666,-14.953 111.9657,-21.875 36.2448,-6.447 72.6964,-11.625 109.028,-17.541 9.4941,-1.519 5.07,-0.901 13.2622,-1.923 18.5944,-1.418 25.2761,86.237 6.6817,87.655 l 0,0 c -0.2479,-0.07 -0.4958,-0.145 -0.7438,-0.217 -2.202,0.226 -4.4041,0.453 -6.6061,0.68 -35.4018,4.582 -70.7638,9.554 -105.9245,15.745 -37.7193,7.052 -75.1582,15.363 -112.5993,23.751 -18.3017,3.195 -33.3656,-83.079 -15.0639,-86.275 z" id="path23369" inkscape:connector-curvature="0" style="fill:#550000;fill-opacity:1;fill-rule:nonzero;stroke:#f9f9f9;stroke-width:0.1;stroke-miterlimit:4;stroke-dasharray:none" transform="translate(-9216, -13312)"/><path d="m 9433.9759,13742.373 c -5.1514,34.467 -7.4102,69.278 -9.9276,104.011 -3.7616,51.779 -8.4426,103.484 -12.2579,155.259 -0.9559,32.467 -6.7753,66.541 2.5198,98.325 -8.2947,-0.02 3.4811,5.345 3.3626,3.686 -0.3668,-5.135 -6.4503,-5.769 -7.9946,-9.305 -0.2615,-0.598 0.9726,-0.872 1.4589,-1.309 29.1535,-11.816 54.5119,-31.068 79.691,-49.541 18.1245,-13.421 35.3224,-27.98 52.3691,-42.721 13.822,-11.875 69.804,53.283 55.982,65.158 l 0,0 c -18.7629,16.028 -37.6553,31.9 -57.4383,46.674 -36.0204,26.634 -72.7079,54.677 -116.7039,66.368 -7.1366,0.796 -14.2311,2.571 -21.4097,2.39 -37.7852,-0.954 -63.435,-26.479 -73.8414,-61.131 -8.9334,-41.252 -7.0209,-83.177 -3.3957,-125.043 3.9869,-51.569 8.6268,-103.088 12.0055,-154.703 2.3839,-36.575 4.7696,-73.156 8.7261,-109.603 2.4363,-18.424 89.2904,-6.939 86.8541,11.485 z" id="path23371" inkscape:connector-curvature="0" style="fill:#550000;fill-opacity:1;fill-rule:nonzero;stroke:#f9f9f9;stroke-width:0.1;stroke-miterlimit:4;stroke-dasharray:none" transform="translate(-9216, -13312)"/><path d="m 9785.1027,13484.467 c -13.6358,44.999 -27.3997,89.954 -41.7491,134.732 -19.6198,59.343 -39.3552,118.638 -56.6627,178.704 -5.1671,17.416 -87.265,-6.942 -82.098,-24.357 l 0,0 c 18.3769,-60.262 38.357,-120.002 57.7105,-179.953 13.7136,-44.053 27.0776,-88.236 38.5965,-132.922 5.048,-17.863 89.2508,5.934 84.2028,23.796 z" id="path23373" inkscape:connector-curvature="0" style="fill:#550000;fill-opacity:1;fill-rule:nonzero;stroke:#f9f9f9;stroke-width:0.1;stroke-miterlimit:4;stroke-dasharray:none" transform="translate(-9216, -13312)"/><path d="m 9690.7727,13630.97 c 44.3934,-16.143 90.2958,-27.504 136.2866,-38.004 61.4497,-13.597 123.6158,-23.536 185.9317,-32.157 36.677,-3.39 73.321,-11.748 110.291,-10.335 18.51,1.668 10.649,88.924 -7.86,87.256 l 0,0 c -29.631,-1.824 -61.002,5.426 -91.013,7.624 -59.7529,7.865 -119.3311,17.315 -178.1357,30.656 -41.3296,9.699 -82.7704,19.933 -122.2312,35.839 -17.157,7.058 -50.4264,-73.821 -33.2694,-80.879 z" id="path23375" inkscape:connector-curvature="0" style="fill:#550000;fill-opacity:1;fill-rule:nonzero;stroke:#f9f9f9;stroke-width:0.1;stroke-miterlimit:4;stroke-dasharray:none" transform="translate(-9216, -13312)"/><path d="m 9986.1715,13626.907 c -7.5072,46.385 -21.5733,91.21 -37.0041,135.464 -25.8042,71.745 -62.0523,138.798 -102.4496,203.216 -35.1084,54.683 -77.1687,104.146 -126.4769,146.389 -17.8703,15.715 -38.2911,24.977 -60.266,33.076 -17.5038,5.688 -44.3163,-76.826 -26.8124,-82.514 l 0,0 c 12.1818,-2.276 21.9996,-8.827 31.8605,-16.267 43.4243,-35.599 79.4752,-78.769 110.2156,-125.702 37.1888,-58.769 70.3447,-120.11 93.4795,-185.915 13.3131,-39.167 25.748,-78.904 30.7862,-120.128 2.6264,-18.385 89.2936,-6.003 86.6672,12.381 z" id="path23377" inkscape:connector-curvature="0" style="fill:#550000;fill-opacity:1;fill-rule:nonzero;stroke:#f9f9f9;stroke-width:0.1;stroke-miterlimit:4;stroke-dasharray:none" transform="translate(-9216, -13312)"/><path d="m 9736.6511,13772.098 c 14.274,30.136 40.5455,51.531 65.7794,72.2 51.152,38.837 106.1016,72.294 160.1747,106.836 49.3908,31.19 97.2398,64.677 142.9498,101.04 14.294,11.364 27.773,23.649 41.009,36.206 13.208,12.833 -47.286,75.098 -60.495,62.265 l 0,0 c -11.01,-11.027 -22.358,-21.69 -34.431,-31.566 -42.823,-35.005 -88.0088,-66.897 -134.7009,-96.547 -56.7817,-36.366 -114.5834,-71.4 -168.511,-111.978 -35.8616,-29.113 -70.9221,-60.166 -91.5549,-102.427 -7.6431,-16.924 72.1368,-52.953 79.7799,-36.029 z" id="path23379" inkscape:connector-curvature="0" style="fill:#550000;fill-opacity:1;fill-rule:nonzero;stroke:#f9f9f9;stroke-width:0.1;stroke-miterlimit:4;stroke-dasharray:none" transform="translate(-9216, -13312)"/></svg>