<?xml version="1.0" encoding="utf-8" ?>

<!DOCTYPE svg PUBLIC "-//W3C//DTD SVG 1.1//EN" 
  "http://www.w3.org/Graphics/SVG/1.1/DTD/svg11.dtd">
<svg 
    xmlns="http://www.w3.org/2000/svg"
    xmlns:xlink="http://www.w3.org/1999/xlink"
    xmlns:sodipodi="http://sodipodi.sourceforge.net/DTD/sodipodi-0.dtd"
    xmlns:inkscape="http://www.inkscape.org/namespaces/inkscape"
    width="1024" height="1024" id="U6563">
<path d="m 11343.542,41240.336 c 40.307,-2.041 80.556,-5.106 120.761,-8.586 54.256,-4.905 108.389,-10.993 162.692,-15.388 30.198,-2.192 60.454,-3.53 90.72,-4.264 18.647,-0.192 19.553,87.71 0.906,87.902 l 0,0 c -28.321,-0.144 -56.642,0.777 -84.905,2.605 -53.99,4.037 -107.791,10.009 -161.684,15.126 -40.793,3.799 -81.638,7.006 -122.43,10.814 -18.712,1.285 -24.772,-86.923 -6.06,-88.209 z" id="path11665" inkscape:connector-curvature="0" style="fill:#a02c2c;fill-opacity:1;fill-rule:nonzero;stroke:#f9f9f9;stroke-width:0.1;stroke-miterlimit:4;stroke-dasharray:none" transform="translate(-11264, -40960)"/><path d="m 11513.235,41097.345 c -9.492,37.372 -7.728,76.547 -6.663,114.743 3.009,65.417 10.683,130.493 19.403,195.356 5.905,39.83 11.122,79.831 19.602,119.219 0.656,2.186 1.312,4.371 1.968,6.556 4.744,18.082 -80.494,40.448 -85.239,22.367 l 0,0 c -0.947,-3.927 -1.895,-7.853 -2.843,-11.779 -7.692,-41.503 -12.918,-83.408 -18.641,-125.215 -8.631,-67.7 -16.46,-135.561 -20.121,-203.74 -1.753,-48.609 -3.616,-98.156 8.711,-145.677 5.976,-17.781 89.799,10.389 83.823,28.17 z" id="path11667" inkscape:connector-curvature="0" style="fill:#a02c2c;fill-opacity:1;fill-rule:nonzero;stroke:#f9f9f9;stroke-width:0.1;stroke-miterlimit:4;stroke-dasharray:none" transform="translate(-11264, -40960)"/><path d="m 11708.646,41092.025 c -9.152,39.661 -13.519,80.193 -17.522,120.63 -6.249,61.824 -5.135,123.909 -0.648,185.775 3.269,38.632 8.308,77.096 14.738,115.323 2.819,18.422 -84.027,31.712 -86.847,13.289 l 0,0 c -5.66,-40.779 -10.618,-81.67 -13.713,-122.733 -4.308,-66.527 -5.291,-133.25 0.847,-199.728 3.945,-43.887 8.546,-87.744 16.605,-131.1 3.934,-18.358 90.474,0.186 86.54,18.544 z" id="path11669" inkscape:connector-curvature="0" style="fill:#a02c2c;fill-opacity:1;fill-rule:nonzero;stroke:#f9f9f9;stroke-width:0.1;stroke-miterlimit:4;stroke-dasharray:none" transform="translate(-11264, -40960)"/><path d="m 11531.802,41358.734 c 27.661,4.667 55.428,8.651 83.072,13.431 18.315,3.26 2.947,89.599 -15.368,86.339 l 0,0 c -27.023,-4.96 -54.199,-8.999 -81.46,-12.416 -18.531,-2.918 -4.775,-90.272 13.756,-87.354 z" id="path11671" inkscape:connector-curvature="0" style="fill:#a02c2c;fill-opacity:1;fill-rule:nonzero;stroke:#f9f9f9;stroke-width:0.1;stroke-miterlimit:4;stroke-dasharray:none" transform="translate(-11264, -40960)"/><path d="m 11481.954,41662.967 c 0.374,40.074 4.725,79.992 9.525,119.736 4.908,43.076 13.235,85.612 23.766,127.635 2.816,10.896 5.656,21.763 9.296,32.412 5.567,17.851 -78.582,44.096 -84.149,26.245 l 0,0 c -3.689,-12.616 -6.993,-25.321 -9.958,-38.129 -10.645,-45.445 -19.4,-91.314 -24.782,-137.707 -5.264,-42.868 -9.889,-85.844 -12.018,-128.998 -0.253,-18.736 88.067,-19.929 88.32,-1.194 z" id="path11693" inkscape:connector-curvature="0" style="fill:#a02c2c;fill-opacity:1;fill-rule:nonzero;stroke:#f9f9f9;stroke-width:0.1;stroke-miterlimit:4;stroke-dasharray:none" transform="translate(-11264, -40960)"/><path d="m 11429.326,41628.709 c 27.304,-17.787 57.415,-30.196 88.145,-40.619 32.772,-11.274 66.482,-14.808 100.754,-10.792 28.71,4.686 51.955,19.943 72.768,39.377 22.33,20.893 34.733,47.699 43.989,76.297 12.15,46.153 9.833,94.121 7.62,141.299 -2.761,44.09 -6.034,88.142 -7.333,132.306 -0.336,11.648 -0.241,23.3 -0.08,34.949 -0.03,18.695 -88.162,18.536 -88.129,-0.158 l 0,0 c 0.208,-12.681 0.437,-25.362 0.973,-38.034 1.974,-44.381 5.431,-88.666 8.109,-133.007 1.634,-36.941 3.891,-74.601 -4.673,-110.915 -4.424,-14.568 -10.01,-28.185 -21.307,-38.871 -6.955,-6.911 -14.113,-13.539 -23.837,-16.149 -20.619,-3.797 -41.206,0.43 -60.996,6.619 -23.138,7.679 -46.059,16.697 -66.173,30.744 -15.495,10.571 -65.33,-62.474 -49.835,-73.046 z" id="path11695" inkscape:connector-curvature="0" style="fill:#a02c2c;fill-opacity:1;fill-rule:nonzero;stroke:#f9f9f9;stroke-width:0.1;stroke-miterlimit:4;stroke-dasharray:none" transform="translate(-11264, -40960)"/><path d="m 11475.194,41722.642 c 34.887,-6.305 70.021,-11.032 105.129,-15.889 35.106,-4.944 70.12,-10.662 105.649,-10.375 18.641,0.457 16.487,88.329 -2.154,87.872 l 0,0 c -30.721,-1.654 -61.116,5.298 -91.51,8.655 -33.29,4.656 -66.684,9.029 -99.513,16.388 -18.381,3.734 -35.982,-82.917 -17.601,-86.651 z" id="path11701" inkscape:connector-curvature="0" style="fill:#a02c2c;fill-opacity:1;fill-rule:nonzero;stroke:#f9f9f9;stroke-width:0.1;stroke-miterlimit:4;stroke-dasharray:none" transform="translate(-11264, -40960)"/><path d="m 11508.645,41836.705 c 33.273,-5.323 66.689,-9.514 100.235,-12.657 21.839,-1.909 43.76,-2.354 65.668,-2.546 18.619,-0.02 18.708,87.751 0.09,87.769 l 0,0 c -19.241,-0.147 -38.5,-0.01 -57.689,1.609 -31.367,2.888 -62.671,6.708 -93.566,12.97 -18.486,3.126 -33.223,-84.018 -14.737,-87.145 z" id="path11703" inkscape:connector-curvature="0" style="fill:#a02c2c;fill-opacity:1;fill-rule:nonzero;stroke:#f9f9f9;stroke-width:0.1;stroke-miterlimit:4;stroke-dasharray:none" transform="translate(-11264, -40960)"/><path d="m 11904.916,41168.398 c -13.88,48.956 -24.856,98.701 -35.975,148.342 -12.427,56.394 -23.452,113.12 -31.933,170.247 -2.902,18.205 -88.72,4.523 -85.817,-13.682 l 0,0 c 9.948,-58.616 21.597,-116.936 34.218,-175.034 11.189,-51.263 22.335,-102.543 34.449,-153.597 5.033,-18.043 90.09,5.68 85.058,23.724 z" id="path11705" inkscape:connector-curvature="0" style="fill:#a02c2c;fill-opacity:1;fill-rule:nonzero;stroke:#f9f9f9;stroke-width:0.1;stroke-miterlimit:4;stroke-dasharray:none" transform="translate(-11264, -40960)"/><path d="m 11851.399,41294.907 c 38.065,-17.158 79.464,-23.659 120.512,-29.099 47.083,-5.731 94.522,-5.996 141.844,-4.317 14.699,-0.01 29.151,1.829 43.581,4.358 18.325,3.743 0.681,90.128 -17.644,86.385 l 0,0 c -9.646,-2.749 -19.65,-3.1 -29.632,-3.612 -42.233,-2.115 -84.603,-2.171 -126.649,3.039 -31.292,4.244 -63.27,8.621 -92.116,22.257 -16.761,8.463 -56.657,-70.548 -39.896,-79.011 z" id="path11707" inkscape:connector-curvature="0" style="fill:#a02c2c;fill-opacity:1;fill-rule:nonzero;stroke:#f9f9f9;stroke-width:0.1;stroke-miterlimit:4;stroke-dasharray:none" transform="translate(-11264, -40960)"/><path d="m 12119.682,41367.59 c -8.68,44.562 -23.718,87.398 -39.861,129.704 -31.222,77.336 -70.848,150.865 -109.916,224.425 -35.74,66.809 -71.669,133.517 -106.793,200.653 -17.386,33.007 -33.158,66.851 -52.007,99.063 -9.622,15.9 -84.574,-29.459 -74.952,-45.359 l 0,0 c 19.048,-30.126 33.949,-62.619 51.144,-93.801 35.745,-66.869 72.046,-133.437 107.884,-200.257 37.363,-70.297 75.228,-140.634 104.273,-214.892 13.651,-37.045 26.696,-74.578 32.888,-113.72 3.009,-18.527 90.349,-4.344 87.34,14.184 z" id="path11709" inkscape:connector-curvature="0" style="fill:#a02c2c;fill-opacity:1;fill-rule:nonzero;stroke:#f9f9f9;stroke-width:0.1;stroke-miterlimit:4;stroke-dasharray:none" transform="translate(-11264, -40960)"/><path d="m 11845.416,41511.498 c 30.549,30.36 60.341,61.471 90.497,92.22 40.755,41.88 85.446,79.566 130.268,116.953 38.472,31.162 74.836,64.665 108.8,100.663 14.889,16.045 28.615,33.102 42.1,50.326 11.361,14.761 -58.226,68.313 -69.586,53.552 l 0,0 c -11.504,-15.247 -23.284,-30.306 -36.138,-44.451 -31.18,-33.764 -64.844,-64.983 -100.438,-94.077 -46.775,-39.293 -93.463,-78.816 -136.358,-122.4 -29.329,-29.515 -58.205,-59.552 -88.92,-87.639 -13.819,-12.68 45.955,-77.827 59.775,-65.147 z" id="path11711" inkscape:connector-curvature="0" style="fill:#a02c2c;fill-opacity:1;fill-rule:nonzero;stroke:#f9f9f9;stroke-width:0.1;stroke-miterlimit:4;stroke-dasharray:none" transform="translate(-11264, -40960)"/></svg>