<?xml version="1.0" encoding="utf-8" ?>

<!DOCTYPE svg PUBLIC "-//W3C//DTD SVG 1.1//EN" 
  "http://www.w3.org/Graphics/SVG/1.1/DTD/svg11.dtd">
<svg 
    xmlns="http://www.w3.org/2000/svg"
    xmlns:xlink="http://www.w3.org/1999/xlink"
    xmlns:sodipodi="http://sodipodi.sourceforge.net/DTD/sodipodi-0.dtd"
    xmlns:inkscape="http://www.inkscape.org/namespaces/inkscape"
    width="1024" height="1024" id="U65CF">
<path d="m 9479.4353,66731.953 c 11.2449,19.17 26.0532,35.863 40.7267,52.43 14.3182,15.351 28.632,30.677 41.6039,47.192 11.3771,14.826 -58.5106,68.458 -69.8877,53.633 l 0,0 c -11.238,-15.241 -24.7257,-28.616 -37.3286,-42.706 -17.9632,-20.278 -35.672,-40.887 -50.2983,-63.768 -9.9238,-15.949 65.2602,-62.73 75.184,-46.781 z" id="path15819" inkscape:connector-curvature="0" style="fill:#2b1100;fill-opacity:1;fill-rule:nonzero;stroke:none" transform="translate(-9216, -66560)"/><path d="m 9310.8402,66961.247 c 41.6347,-6.148 83.1664,-12.93 124.6924,-19.764 49.2834,-8.431 98.8458,-15.061 148.6427,-19.521 25.7902,-2.087 51.7049,-2.804 77.5586,-1.674 2.9929,0.425 5.9859,0.849 8.9788,1.274 18.4704,3.666 1.1897,90.736 -17.2807,87.07 l 0,0 c 0.8517,0 1.7035,-0 2.5552,-0 -21.4212,-2.176 -43.0825,-1.139 -64.5254,-0.01 -47.5036,3.709 -94.7634,9.899 -141.7104,18.058 -40.7157,6.89 -81.4744,13.615 -122.0507,21.279 -18.3942,3.577 -35.2548,-83.135 -16.8605,-86.711 z" id="path15821" inkscape:connector-curvature="0" style="fill:#2b1100;fill-opacity:1;fill-rule:nonzero;stroke:none" transform="translate(-9216, -66560)"/><path d="m 9403.962,67098.444 c 31.4362,-2.097 62.6892,-6.328 94.0118,-9.655 36.8534,-4.703 73.6459,-5.507 110.0433,2.243 36.7342,10.583 56.1695,31.346 67.9339,66.994 6.7252,29.037 2.6087,58.444 -3.0154,87.242 -6.036,28.901 -16.0564,56.638 -30.5663,82.318 -11.4753,15.589 -5.0119,8.154 -19.5494,22.167 -14.2091,12.23 -71.8652,-54.752 -57.656,-66.983 l 0,0 c -0.7075,2.282 -0.908,1.913 1.2514,0.14 10.5947,-16.475 15.9902,-35.659 20.4289,-54.571 2.9971,-15.096 5.6613,-30.403 4.3465,-45.859 0.4014,-2.061 5.3361,-1.087 1.2372,-3.741 -1.3582,-0.879 -2.8987,-1.438 -4.3481,-2.157 -26.3407,-7.312 -54.0006,-3.591 -80.8133,-1.181 -32.314,3.502 -64.5235,7.871 -96.8492,11.266 -18.7149,1.369 -25.1702,-86.854 -6.4553,-88.223 z" id="path15823" inkscape:connector-curvature="0" style="fill:#2b1100;fill-opacity:1;fill-rule:nonzero;stroke:none" transform="translate(-9216, -66560)"/><path d="m 9496.7547,67020.899 c -14.27,37.023 -26.3869,74.837 -38.6383,112.563 -15.7779,49.261 -30.7299,98.786 -44.3331,148.691 -4.205,24.037 -15.8477,49.044 -13.0898,73.954 0.2053,-0.333 0.4105,-0.666 0.6158,-0.999 3.7476,18.37 -82.8486,36.036 -86.5962,17.666 l 0,0 c -0.7296,-4.915 -1.4591,-9.83 -2.1886,-14.745 0.1738,-33.841 8.5835,-66.603 17.7027,-99.039 14.3372,-50.902 29.8217,-101.471 45.6408,-151.93 12.381,-39.015 24.8166,-78.014 37.9793,-116.773 6.4938,-17.588 89.4011,13.024 82.9074,30.612 z" id="path15825" inkscape:connector-curvature="0" style="fill:#2b1100;fill-opacity:1;fill-rule:nonzero;stroke:none" transform="translate(-9216, -66560)"/><path d="m 9850.0748,66756.729 c -15.4927,30.593 -26.4328,63.26 -37.7512,95.557 -15.1794,44.382 -29.4369,89.075 -42.6226,134.089 -3.1909,10.827 -6.0163,21.739 -8.1524,32.819 -4.1034,18.254 -90.1525,-1.09 -86.0491,-19.344 l 0,0 c 3.2016,-12.983 6.751,-25.867 10.8022,-38.616 14.2258,-45.927 28.9634,-91.695 44.2011,-137.295 12.5123,-36.521 24.8042,-73.255 41.1902,-108.268 8.7095,-16.627 87.0914,24.43 78.3818,41.058 z" id="path15827" inkscape:connector-curvature="0" style="fill:#2b1100;fill-opacity:1;fill-rule:nonzero;stroke:none" transform="translate(-9216, -66560)"/><path d="m 9811.4747,66793.46 c 34.653,-1.65 69.1753,-5.266 103.6784,-8.77 45.8963,-5.185 91.8289,-10.029 137.8379,-14.1 27.672,-2.049 55.442,-5.162 83.216,-3.732 18.703,1.512 11.578,89.681 -7.126,88.17 l 0,0 c -22.361,-4.272 -46.315,2.905 -68.75,2.218 -45.463,3.672 -90.8345,8.326 -136.1261,13.711 -35.5728,3.851 -71.1575,7.579 -106.7954,10.783 -18.7272,1.259 -24.662,-87.021 -5.9348,-88.28 z" id="path15829" inkscape:connector-curvature="0" style="fill:#2b1100;fill-opacity:1;fill-rule:nonzero;stroke:none" transform="translate(-9216, -66560)"/><path d="m 9868.8271,66979.318 c -9.9055,31.743 -18.8416,63.785 -27.4672,95.897 -6.2019,24.277 -12.7266,48.519 -17.4648,73.135 -3.8344,18.26 -89.9137,0.185 -86.0793,-18.076 l 0,0 c 5.8304,-26.04 12.7036,-51.837 19.4222,-77.659 8.78,-32.674 17.9584,-65.238 26.6987,-97.922 5.2237,-18.008 90.1141,6.617 84.8904,24.625 z" id="path15831" inkscape:connector-curvature="0" style="fill:#2b1100;fill-opacity:1;fill-rule:nonzero;stroke:none" transform="translate(-9216, -66560)"/><path d="m 9857.1516,66985.196 c 32.7185,-6.692 65.4263,-13.442 98.1725,-19.998 36.4211,-7.055 73.1359,-12.674 110.1859,-14.854 17.961,0.05 9.147,-0.389 26.446,1.245 18.581,2.289 7.789,89.878 -10.792,87.588 l 0,0 c -6.162,-1.381 -2.395,-0.756 -11.394,-1.181 -32.712,1.143 -65.103,6.351 -97.2187,12.456 -31.2109,6.367 -62.4236,12.852 -93.3502,20.492 -18.1899,4.677 -40.2393,-81.07 -22.0495,-85.748 z" id="path15833" inkscape:connector-curvature="0" style="fill:#2b1100;fill-opacity:1;fill-rule:nonzero;stroke:none" transform="translate(-9216, -66560)"/><path d="m 9734.398,67201.712 c 32.919,-7.237 65.8065,-14.562 98.8934,-21.006 46.2847,-8.358 92.8427,-15.129 139.3652,-22.013 37.7964,-5.628 75.7374,-10.196 113.6704,-14.778 7.114,-0.703 18.461,-2.453 23.996,-3.901 18.247,-4.638 40.108,81.375 21.861,86.012 l 0,0 c -11.914,2.481 -23.986,3.785 -36.093,4.993 -37.015,3.825 -73.996,8.023 -110.8145,13.46 -45.1304,6.601 -90.2868,13.182 -135.1487,21.44 -31.9441,6.407 -63.722,13.585 -95.2222,21.926 -18.2714,4.35 -38.779,-81.782 -20.5076,-86.133 z" id="path15835" inkscape:connector-curvature="0" style="fill:#2b1100;fill-opacity:1;fill-rule:nonzero;stroke:none" transform="translate(-9216, -66560)"/><path d="m 9992.9609,67043.157 c -12.809,31.556 -23.2431,64.041 -34.7007,96.109 -17.9554,50.474 -38.3304,100.02 -59.2984,149.302 -14.1482,32.974 -28.2938,65.952 -43.1226,98.628 -7.9054,16.897 -87.5613,-20.369 -79.656,-37.266 l 0,0 c 15.1843,-31.45 29.374,-63.362 43.2703,-95.399 20.4402,-47.447 40.1977,-95.206 57.1179,-144.043 11.8864,-34.245 22.6791,-68.872 35.3232,-102.846 7.5338,-17.197 88.6004,18.318 81.0663,35.515 z" id="path15837" inkscape:connector-curvature="0" style="fill:#2b1100;fill-opacity:1;fill-rule:nonzero;stroke:none" transform="translate(-9216, -66560)"/><path d="m 9972.6317,67249.013 c 24.5621,16.914 48.4903,34.719 72.8833,51.874 22.399,15.821 45.006,31.346 68.043,46.222 15.6,10.267 -32.8,83.804 -48.4,73.537 l 0,0 c -23.528,-15.764 -46.747,-31.979 -69.8775,-48.319 -23.6099,-16.599 -46.7577,-33.927 -71.1999,-49.294 -15.7021,-10.299 32.849,-84.319 48.5511,-74.02 z" id="path15841" inkscape:connector-curvature="0" style="fill:#2b1100;fill-opacity:1;fill-rule:nonzero;stroke:none" transform="translate(-9216, -66560)"/></svg>