<?xml version="1.0" encoding="utf-8" ?>

<!DOCTYPE svg PUBLIC "-//W3C//DTD SVG 1.1//EN" 
  "http://www.w3.org/Graphics/SVG/1.1/DTD/svg11.dtd">
<svg 
    xmlns="http://www.w3.org/2000/svg"
    xmlns:xlink="http://www.w3.org/1999/xlink"
    xmlns:sodipodi="http://sodipodi.sourceforge.net/DTD/sodipodi-0.dtd"
    xmlns:inkscape="http://www.inkscape.org/namespaces/inkscape"
    width="1024" height="1024" id="U65F6">
<path d="m 11434.883,43415.511 c 2.357,43.368 5.603,86.68 8.098,130.042 2.563,51.865 4.697,103.774 12.366,155.181 1.975,10.661 3.761,21.395 8.897,31.027 7.021,17.303 -74.547,50.401 -81.568,33.098 l 0,0 c -6.212,-16.938 -11.308,-34.036 -13.356,-52.076 -7.11,-53.767 -9.598,-107.9 -12.364,-162.034 -2.707,-42.721 -5.97,-85.404 -10.177,-128.006 -1.534,-18.689 86.57,-25.922 88.104,-7.232 z" id="path12223" inkscape:connector-curvature="0" style="fill:#a02c2c;fill-opacity:1;fill-rule:nonzero;stroke:#f9f9f9;stroke-width:0.1;stroke-miterlimit:4;stroke-dasharray:none" transform="translate(-11264, -43008)"/><path d="m 11389.21,43408.377 c 27.122,-21.754 59.998,-32.031 93.348,-39.611 35.157,-7.097 70.887,-7.935 106.314,-2.95 40.125,7.599 61.418,28.563 77.496,64.966 13.106,39.282 15.309,80.934 16.372,122 0.316,50.125 -6.025,99.926 -12.327,149.552 -4.259,29.368 -6.995,58.943 -11.286,88.304 -3.037,18.48 -90.153,4.163 -87.116,-14.317 l 0,0 c 5.334,-28.191 7.801,-56.875 12.372,-85.189 6.023,-45.099 11.92,-90.396 11.581,-135.991 -0.874,-30.481 -2.457,-61.306 -10.877,-90.8 -2.351,-7.666 0.864,-9.384 -9.659,-11.764 -24.447,-4.433 -49.385,-2.88 -73.761,1.507 -19.181,4.204 -38.898,8.949 -54.67,21.326 -14.22,12.259 -72.007,-54.774 -57.787,-67.033 z" id="path12225" inkscape:connector-curvature="0" style="fill:#a02c2c;fill-opacity:1;fill-rule:nonzero;stroke:#f9f9f9;stroke-width:0.1;stroke-miterlimit:4;stroke-dasharray:none" transform="translate(-11264, -43008)"/><path d="m 11436.598,43578.753 c 30.765,-6.903 62.232,-8.307 93.639,-7.892 15.821,0.285 31.417,2.626 46.975,5.249 18.345,3.289 2.84,89.768 -15.505,86.479 l 0,0 c -10.86,-2.126 -21.767,-3.909 -32.864,-4.231 -23.677,-0.46 -47.538,0.222 -70.598,6.212 -18.204,4.592 -39.852,-81.225 -21.647,-85.817 z" id="path12227" inkscape:connector-curvature="0" style="fill:#a02c2c;fill-opacity:1;fill-rule:nonzero;stroke:#f9f9f9;stroke-width:0.1;stroke-miterlimit:4;stroke-dasharray:none" transform="translate(-11264, -43008)"/><path d="m 11424.636,43744.925 c 26.615,5.513 54.103,5.301 81.165,5.389 35.457,0.09 70.76,-3.364 105.562,-9.994 18.236,-3.34 33.982,82.626 15.746,85.966 l 0,0 c -40.108,7.109 -80.684,11.095 -121.457,11.041 -37.046,-0.01 -74.788,0.324 -110.886,-9.079 -17.676,-6.336 12.195,-89.659 29.87,-83.323 z" id="path12229" inkscape:connector-curvature="0" style="fill:#a02c2c;fill-opacity:1;fill-rule:nonzero;stroke:#f9f9f9;stroke-width:0.1;stroke-miterlimit:4;stroke-dasharray:none" transform="translate(-11264, -43008)"/><path d="m 11700.104,43521.597 c 38.438,-6.162 77.178,-10.207 115.866,-14.422 46.579,-4.87 93.013,-10.995 139.407,-17.371 31.785,-4.302 63.448,-9.647 94.359,-18.295 18.008,-4.792 40.6,80.096 22.593,84.889 l 0,0 c -34.635,8.848 -69.858,14.915 -105.315,19.42 -47.097,6.273 -94.221,12.365 -141.455,17.531 -35.81,4.071 -71.76,7.772 -107.154,14.703 -18.34,3.882 -36.641,-82.573 -18.301,-86.455 z" id="path12231" inkscape:connector-curvature="0" style="fill:#a02c2c;fill-opacity:1;fill-rule:nonzero;stroke:#f9f9f9;stroke-width:0.1;stroke-miterlimit:4;stroke-dasharray:none" transform="translate(-11264, -43008)"/><path d="m 12009.157,43349.797 c 6.758,44.861 9.028,90.172 10.221,135.466 0.605,77.918 -5.818,155.656 -11.262,233.321 -4.711,63.212 -7.028,126.592 -13.2,189.688 -1.844,23.794 -7.135,46.571 -15.919,68.659 -7.492,17.118 -88.189,-18.202 -80.697,-35.32 l 0,0 c 7.643,-12.587 7.533,-28.537 10.36,-42.542 7.214,-61.95 9.896,-124.301 14.758,-186.459 5.307,-74.773 11.27,-149.66 10.071,-224.684 -1.474,-40.853 -3.585,-81.868 -11.366,-122.096 -3.401,-18.463 83.633,-34.495 87.034,-16.033 z" id="path12237" inkscape:connector-curvature="0" style="fill:#a02c2c;fill-opacity:1;fill-rule:nonzero;stroke:#f9f9f9;stroke-width:0.1;stroke-miterlimit:4;stroke-dasharray:none" transform="translate(-11264, -43008)"/><path d="m 11751.717,43660.987 c 29.973,17.196 58.667,36.433 86.948,56.251 17.361,12.078 33.729,25.436 49.981,38.938 14.18,11.838 -41.626,78.685 -55.806,66.847 l 0,0 c -14.288,-11.997 -28.711,-23.825 -44.057,-34.469 -25.812,-18.016 -51.961,-35.711 -79.981,-50.168 -16.418,-9.104 26.496,-86.503 42.915,-77.399 z" id="path12239" inkscape:connector-curvature="0" style="fill:#a02c2c;fill-opacity:1;fill-rule:nonzero;stroke:#f9f9f9;stroke-width:0.1;stroke-miterlimit:4;stroke-dasharray:none" transform="translate(-11264, -43008)"/></svg>