<?xml version="1.0" encoding="utf-8" ?>

<!DOCTYPE svg PUBLIC "-//W3C//DTD SVG 1.1//EN" 
  "http://www.w3.org/Graphics/SVG/1.1/DTD/svg11.dtd">
<svg 
    xmlns="http://www.w3.org/2000/svg"
    xmlns:xlink="http://www.w3.org/1999/xlink"
    xmlns:sodipodi="http://sodipodi.sourceforge.net/DTD/sodipodi-0.dtd"
    xmlns:inkscape="http://www.inkscape.org/namespaces/inkscape"
    width="1024" height="1024" id="U6570">
<path d="m 9383.7586,45205.366 c 18.7599,21.32 36.6108,43.411 55.1243,64.941 3.2878,3.715 6.5325,7.47 9.8634,11.147 6.0704,6.701 19.8262,24.577 28.4003,27.872 0.7812,0.3 -1.0367,-1.314 -1.555,-1.971 16.6411,8.652 -24.1429,87.099 -40.784,78.447 l 0,0 c -24.7666,-15.025 -43.5532,-36.56 -62.2496,-58.494 -17.6606,-20.56 -34.6883,-41.702 -53.3556,-61.37 -12.8491,-13.695 51.7071,-74.266 64.5562,-60.572 z" id="path10895" inkscape:connector-curvature="0" style="fill:#782121;fill-opacity:1;fill-rule:nonzero;stroke:#f9f9f9;stroke-width:0.1;stroke-miterlimit:4;stroke-dasharray:none" transform="translate(-9216, -45056)"/><path d="m 9741.4805,45224.727 c -22.0649,17.322 -40.346,38.713 -57.6187,60.653 -15.7443,20.606 -28.3358,43.308 -42.2881,65.1 -10.2327,15.65 -84.0073,-32.588 -73.7746,-48.238 l 0,0 c 15.8677,-23.659 30.0092,-48.496 47.6139,-70.974 21.6713,-27.318 44.6994,-53.647 71.4966,-76.119 14.7597,-11.576 69.3306,58.002 54.5709,69.578 z" id="path10897" inkscape:connector-curvature="0" style="fill:#782121;fill-opacity:1;fill-rule:nonzero;stroke:#f9f9f9;stroke-width:0.1;stroke-miterlimit:4;stroke-dasharray:none" transform="translate(-9216, -45056)"/><path d="m 9304.6177,45378.386 c 41.1424,-2.961 82.3622,-4.483 123.5691,-6.204 64.2292,-2.744 128.3523,-7.422 192.5285,-11.138 48.7539,-2.755 97.5664,-3.975 146.3846,-4.777 13.1689,-0.174 26.3382,-0.06 39.4874,0.686 18.7345,1.581 11.283,89.896 -7.4515,88.315 l 0,0 c -10.4307,-1.449 -21.0088,-1.285 -31.5112,-1.6 -47.3762,-0.222 -94.7512,0.502 -142.0705,3.005 -64.4741,3.552 -128.8736,8.292 -193.361,11.605 -40.1735,2.061 -80.4215,3.676 -120.4074,8.275 -18.7031,1.521 -25.8712,-86.647 -7.168,-88.167 z" id="path10899" inkscape:connector-curvature="0" style="fill:#782121;fill-opacity:1;fill-rule:nonzero;stroke:#f9f9f9;stroke-width:0.1;stroke-miterlimit:4;stroke-dasharray:none" transform="translate(-9216, -45056)"/><path d="m 9571.6769,45144.773 c 0.6977,56.426 0.5248,112.84 -0.4079,169.261 -1.7567,74.681 -4.5955,149.332 -4.1445,224.042 2.6464,21.675 -2.1066,75.776 11.2832,94.166 7.3668,17.179 -73.6155,51.906 -80.9823,34.728 l 0,0 c -15.6066,-41.134 -15.9702,-85.332 -16.1201,-128.88 0.4108,-75.077 3.5326,-150.088 4.8593,-225.15 0.5024,-55.323 0.4027,-110.675 -2.7351,-165.933 -0.4739,-18.72 87.7735,-20.954 88.2474,-2.234 z" id="path10901" inkscape:connector-curvature="0" style="fill:#782121;fill-opacity:1;fill-rule:nonzero;stroke:#f9f9f9;stroke-width:0.1;stroke-miterlimit:4;stroke-dasharray:none" transform="translate(-9216, -45056)"/><path d="m 9510.9453,45487.393 c -23.9213,20.438 -44.6262,44.268 -64.9059,68.224 -18.0523,24.886 -41.4677,47.745 -53.2722,76.618 0.5084,-0.488 1.0169,-0.975 1.5253,-1.462 -4.4473,18.207 -90.2761,-2.758 -85.8288,-20.965 l 0,0 c 1.6602,-5.203 3.3204,-10.405 4.9805,-15.608 17.6199,-34.44 42.0129,-64.6 66.1573,-94.657 23.4832,-27.9 47.5799,-55.393 74.593,-79.975 14.3876,-12.038 71.1385,55.786 56.7508,67.825 z" id="path10903" inkscape:connector-curvature="0" style="fill:#782121;fill-opacity:1;fill-rule:nonzero;stroke:#f9f9f9;stroke-width:0.1;stroke-miterlimit:4;stroke-dasharray:none" transform="translate(-9216, -45056)"/><path d="m 9596.6831,45426.767 c 26.4156,19.263 53.292,37.835 79.2063,57.78 29.4242,23.066 56.728,48.672 81.4313,76.714 12.1632,14.093 -54.269,71.431 -66.4322,57.338 l 0,0 c -20.217,-24.075 -43.2995,-45.543 -68.0157,-64.956 -24.8749,-19.019 -50.6596,-36.755 -76.6216,-54.254 -15.4055,-10.699 35.0265,-83.321 50.4319,-72.622 z" id="path10905" inkscape:connector-curvature="0" style="fill:#782121;fill-opacity:1;fill-rule:nonzero;stroke:#f9f9f9;stroke-width:0.1;stroke-miterlimit:4;stroke-dasharray:none" transform="translate(-9216, -45056)"/><path d="m 9559.441,45751.839 c -19.7094,16.591 -37.2478,35.519 -54.4797,54.609 -16.7805,18.962 -33.1769,38.276 -47.9019,58.89 5.6449,-13.397 -5.6203,9.235 -3.771,7.239 7.3468,-7.929 2.7818,-21.715 -1.3345,-29.823 23.8254,13.645 47.955,26.813 71.935,40.206 39.9185,22.446 79.7854,44.982 118.8823,68.837 24.4086,15.399 48.7151,30.987 72.5984,47.193 7.7105,5.647 4.116,2.846 10.8274,8.345 14.0946,12.495 -44.8056,78.937 -58.9002,66.443 l 0,0 c 0.067,-0.05 0.1343,-0.1 0.2014,-0.143 -0.9296,-0.786 -1.8593,-1.572 -2.7889,-2.357 -21.9055,-15.953 -44.6575,-30.739 -67.4217,-45.423 -37.8262,-23.395 -76.5177,-45.326 -115.452,-66.819 -30.6294,-16.753 -62.6532,-31.657 -90.8418,-52.37 -4.385,-4.929 -9.7588,-9.13 -13.1549,-14.785 -16.0841,-26.784 -9.353,-54.929 8.1468,-78.476 16.9222,-22.748 35.1867,-44.429 54.0405,-65.599 19.7015,-21.807 39.8911,-43.189 61.6274,-63 14.22,-12.258 72.0073,54.775 57.7874,67.033 z" id="path10915" inkscape:connector-curvature="0" style="fill:#782121;fill-opacity:1;fill-rule:nonzero;stroke:#f9f9f9;stroke-width:0.1;stroke-miterlimit:4;stroke-dasharray:none" transform="translate(-9216, -45056)"/><path d="m 9720.1655,45744.826 c -25.108,36.354 -47.0206,74.814 -69.2652,112.954 -29.2491,50.678 -58.6734,101.253 -88.9774,151.308 -14.633,24.63 -29.5121,48.811 -50.2652,68.686 -14.1555,12.252 -71.913,-54.478 -57.7575,-66.73 l 0,0 c 4.5945,0.538 30.8227,-42.229 34.2105,-47.255 30.52,-49.041 59.8083,-98.827 88.3909,-149.021 23.0272,-40.181 45.825,-80.531 70.6278,-119.655 10.5459,-15.494 83.5819,34.22 73.0361,49.713 z" id="path10917" inkscape:connector-curvature="0" style="fill:#782121;fill-opacity:1;fill-rule:nonzero;stroke:#f9f9f9;stroke-width:0.1;stroke-miterlimit:4;stroke-dasharray:none" transform="translate(-9216, -45056)"/><path d="m 9309.5465,45764.643 c 44.7792,-6.538 89.6165,-12.344 134.6701,-16.629 66.0964,-6.268 132.4732,-4.332 198.6296,-0.538 34.8032,2.226 69.6321,4.477 104.271,8.608 2.6138,0.395 5.2276,0.79 7.8414,1.185 18.49,3.189 3.4604,90.351 -15.0296,87.163 l 0,0 c -1.5589,-0.324 -3.1178,-0.649 -4.6767,-0.973 -32.376,-5.055 -65.1045,-7.402 -97.746,-9.998 -61.5369,-4.13 -123.3252,-6.237 -184.8237,0.05 -43.4976,4.49 -86.8143,10.387 -129.793,18.531 -18.5398,2.83 -31.8829,-84.567 -13.3431,-87.398 z" id="path10919" inkscape:connector-curvature="0" style="fill:#782121;fill-opacity:1;fill-rule:nonzero;stroke:#f9f9f9;stroke-width:0.1;stroke-miterlimit:4;stroke-dasharray:none" transform="translate(-9216, -45056)"/><path d="m 9912.7167,45240.485 c -8.4538,37.743 -17.7307,75.292 -26.8185,112.884 -11.4755,46.172 -21.1851,92.773 -26.6645,140.051 -1.2131,10.526 -1.5101,21.011 -0.3697,31.524 1.1221,18.64 -86.7488,23.929 -87.8709,5.289 l 0,0 c -0.606,-15.948 -0.5643,-31.837 1.7997,-47.687 6.7521,-50.242 17.1253,-99.854 29.0677,-149.11 8.5034,-36.552 17.3273,-73.069 24.0087,-110.01 3.6188,-18.423 90.4663,-1.364 86.8475,17.059 z" id="path10921" inkscape:connector-curvature="0" style="fill:#782121;fill-opacity:1;fill-rule:nonzero;stroke:#f9f9f9;stroke-width:0.1;stroke-miterlimit:4;stroke-dasharray:none" transform="translate(-9216, -45056)"/><path d="m 9861.1805,45318.275 c 41.1914,-11.707 82.4869,-22.915 124.1462,-32.842 53.7813,-12.679 108.5303,-20.039 163.5133,-24.822 30.353,-3.122 61.01,-2.194 91.347,-5.32 18.661,-1.454 25.515,86.515 6.854,87.969 l 0,0 c -30.32,1.823 -60.75,1.28 -91.047,3.739 -50.611,3.96 -101.018,10.433 -150.452,22.306 -40.0731,9.776 -79.8379,20.712 -119.0296,33.616 -17.956,5.374 -43.288,-79.272 -25.3319,-84.646 z" id="path10923" inkscape:connector-curvature="0" style="fill:#782121;fill-opacity:1;fill-rule:nonzero;stroke:#f9f9f9;stroke-width:0.1;stroke-miterlimit:4;stroke-dasharray:none" transform="translate(-9216, -45056)"/><path d="m 10128.902,45355.504 c -2.221,47.21 -16.509,92.719 -29.763,137.74 -26.39,87.662 -58.688,173.357 -92.232,258.483 -29.1947,72.854 -59.6951,145.224 -94.7038,215.493 -9.9276,20.911 -22.7859,39.772 -36.8001,58.05 -11.6121,14.469 -79.818,-40.271 -68.2059,-54.739 l 0,0 c 11.2333,-12.894 20.3438,-27.123 28.2248,-42.347 34.9621,-67.296 64.901,-137.02 93.296,-207.309 32.6219,-82.559 63.6938,-165.819 88.046,-251.255 10.397,-37.302 22.336,-75.136 23.683,-114.116 0,-18.765 88.455,-18.765 88.455,0 z" id="path10925" inkscape:connector-curvature="0" style="fill:#782121;fill-opacity:1;fill-rule:nonzero;stroke:#f9f9f9;stroke-width:0.1;stroke-miterlimit:4;stroke-dasharray:none" transform="translate(-9216, -45056)"/><path d="m 9852.4737,45470.327 c 38.8988,32.322 62.0157,79.119 86.8435,122.256 35.1006,62.383 73.3808,122.87 112.1198,183.032 35.785,55.209 72.478,109.821 110.665,163.398 11.68,16.221 23.818,32.103 35.997,47.95 11.133,14.808 -58.67,67.289 -69.803,52.482 l 0,0 c -12.385,-16.826 -24.773,-33.652 -36.768,-50.76 -38.223,-54.975 -75.235,-110.771 -111.6361,-166.968 -39.4861,-61.235 -78.6628,-122.697 -114.8939,-185.935 -18.3416,-31.236 -35.5694,-64.326 -60.3785,-91.015 -15.7911,-10.152 32.0631,-84.592 47.8542,-74.44 z" id="path10927" inkscape:connector-curvature="0" style="fill:#782121;fill-opacity:1;fill-rule:nonzero;stroke:#f9f9f9;stroke-width:0.1;stroke-miterlimit:4;stroke-dasharray:none" transform="translate(-9216, -45056)"/></svg>