<?xml version="1.0" encoding="UTF-8" standalone="no"?>
<svg
   xmlns:dc="http://purl.org/dc/elements/1.1/"
   xmlns:cc="http://creativecommons.org/ns#"
   xmlns:rdf="http://www.w3.org/1999/02/22-rdf-syntax-ns#"
   xmlns:svg="http://www.w3.org/2000/svg"
   xmlns="http://www.w3.org/2000/svg"
   xmlns:sodipodi="http://sodipodi.sourceforge.net/DTD/sodipodi-0.dtd"
   xmlns:inkscape="http://www.inkscape.org/namespaces/inkscape"
   width="1024"
   height="1024"
   id="U652F"
   version="1.1"
   inkscape:version="0.48.0 r9654"
   sodipodi:docname="U+652F.svg">
  <metadata
     id="metadata12">
    <rdf:RDF>
      <cc:Work
         rdf:about="">
        <dc:format>image/svg+xml</dc:format>
        <dc:type
           rdf:resource="http://purl.org/dc/dcmitype/StillImage" />
      </cc:Work>
    </rdf:RDF>
  </metadata>
  <defs
     id="defs10" />
  <sodipodi:namedview
     pagecolor="#ffffff"
     bordercolor="#666666"
     borderopacity="1"
     objecttolerance="10"
     gridtolerance="10"
     guidetolerance="10"
     inkscape:pageopacity="0"
     inkscape:pageshadow="2"
     inkscape:window-width="640"
     inkscape:window-height="480"
     id="namedview8"
     showgrid="false"
     inkscape:zoom="0.27441406"
     inkscape:cx="512"
     inkscape:cy="512"
     inkscape:window-x="0"
     inkscape:window-y="25"
     inkscape:window-maximized="0"
     inkscape:current-layer="U652F" />
  <path
     style="fill:#2b1100;fill-opacity:1;fill-rule:nonzero;stroke:none"
     d="M 499.03125 175.96875 C 488.7237 175.78717 481.05112 177.78947 479.78125 182.90625 C 472.09988 215.74511 464.61257 248.61024 457.75 281.625 C 434.26408 282.76452 410.76618 283.86272 387.28125 285.03125 C 348.30685 287.06825 309.3618 289.6825 270.375 291.4375 C 251.6297 292.1695 255.09845 380.5445 273.84375 379.8125 C 313.23285 376.4375 352.6633 373.6705 392.125 371.3125 C 409.08311 370.36715 426.03787 369.49085 443 368.625 C 440.91747 384.97102 439.16853 401.37106 437.65625 417.78125 C 435.25405 434.49825 436.62245 451.2105 437.34375 467.9375 C 437.27685 467.9575 437.22325 467.98 437.15625 468 C 437.14767 468.348 437.16742 468.69466 437.21875 469.03125 C 422.10276 470.27367 407.02318 471.88517 391.96875 473.9375 C 352.04835 479.4415 312.068 485.28725 273.0625 495.65625 C 255.1326 501.23825 281.4452 585.7695 299.375 580.1875 C 333.4911 569.8195 368.8644 564.59375 404.0625 559.46875 C 453.4459 552.46175 503.31425 551.09675 553.09375 552.59375 C 574.65043 553.23486 595.99605 556.08898 617.3125 559.09375 C 604.98288 572.89005 592.0751 586.19243 579.09375 599.375 C 541.56685 636.33597 502.26616 671.38351 461.78125 705.03125 C 445.20552 692.83744 428.97688 680.14393 413.25 666.8125 C 383.567 641.8815 354.61205 616.1325 325.15625 590.9375 C 310.35595 579.4265 256.10595 649.1765 270.90625 660.6875 C 300.45685 684.1805 328.76505 709.20425 357.84375 733.28125 C 368.79167 742.4387 379.92962 751.31038 391.25 759.96875 C 357.86889 783.09359 322.45803 803.07657 285.53125 820.1875 C 256.67835 832.8775 227.2653 844.15175 198.6875 857.46875 C 187.0527 862.66075 176.56365 869.97425 165.40625 876.03125 C 149.11765 885.43725 193.4615 962.2185 209.75 952.8125 C 218.6438 947.4955 227.158 941.56025 236.4375 936.90625 C 264.7222 923.13625 294.04165 911.7525 322.59375 898.5625 C 372.7555 874.40472 420.57929 845.88695 464.84375 812.125 C 475.51727 819.20228 486.25848 826.15214 497.0625 833.03125 C 543.0034 861.95925 591.12795 887.097 640.59375 909.375 C 677.10435 925.573 714.8392 938.7055 753.6875 947.9375 C 774.8788 952.4865 796.50545 954.60625 818.15625 953.78125 C 836.92465 952.76425 832.11215 864.2955 813.34375 865.3125 C 799.94185 866.5165 786.48165 864.93475 773.28125 862.59375 C 739.78165 855.25175 707.4245 843.794 675.9375 830.25 C 630.1798 810.017 585.7119 786.97375 543.3125 760.34375 C 540.52512 758.57159 537.74821 756.78471 534.96875 755 C 571.00591 724.52293 606.21223 693.0432 640.21875 660.28125 C 668.29815 632.43725 695.8137 604.03375 720.0625 572.71875 C 726.91325 563.68419 703.89338 540.6034 682.09375 527.03125 C 695.23159 515.66034 704.33201 503.44497 699.84375 497.28125 C 695.01215 492.70425 690.79315 487.35225 685.34375 483.53125 C 674.12295 475.66325 660.0275 475.64675 647.0625 474.21875 C 616.5154 470.86875 586.0411 466.387 555.25 465.875 C 545.43815 465.67608 535.62458 465.59118 525.8125 465.59375 L 525.8125 461.96875 C 524.8379 449.61875 523.42575 437.3535 525.09375 424.9375 C 526.53166 404.60439 528.48906 384.29228 531.1875 364.09375 C 541.47386 363.54464 551.74697 362.99595 562.03125 362.40625 C 603.01575 360.31425 643.92335 356.52075 684.96875 355.84375 C 685.8907 353.67802 731.95932 359.23797 719.25 357.3125 C 737.20828 358.4368 760.63722 276.96186 742.96875 271.78125 C 723.19365 267.57725 702.8898 268.16875 682.75 268.34375 C 640.7395 269.74075 598.8916 273.8565 556.9375 276.3125 C 553.76991 276.50669 550.6054 276.68701 547.4375 276.875 C 552.86122 252.49679 558.79664 228.24546 565.53125 204.1875 C 568.77648 191.11128 525.37277 176.43279 499.03125 175.96875 z "
     id="path14765" />
</svg>
