<?xml version="1.0" encoding="UTF-8" standalone="no"?>
<svg
   xmlns:dc="http://purl.org/dc/elements/1.1/"
   xmlns:cc="http://creativecommons.org/ns#"
   xmlns:rdf="http://www.w3.org/1999/02/22-rdf-syntax-ns#"
   xmlns:svg="http://www.w3.org/2000/svg"
   xmlns="http://www.w3.org/2000/svg"
   xmlns:sodipodi="http://sodipodi.sourceforge.net/DTD/sodipodi-0.dtd"
   xmlns:inkscape="http://www.inkscape.org/namespaces/inkscape"
   width="1024"
   height="1024"
   id="U65C1"
   version="1.1"
   inkscape:version="0.48.0 r9654"
   sodipodi:docname="U+65C1.svg">
  <metadata
     id="metadata17">
    <rdf:RDF>
      <cc:Work
         rdf:about="">
        <dc:format>image/svg+xml</dc:format>
        <dc:type
           rdf:resource="http://purl.org/dc/dcmitype/StillImage" />
      </cc:Work>
    </rdf:RDF>
  </metadata>
  <defs
     id="defs15" />
  <sodipodi:namedview
     pagecolor="#ffffff"
     bordercolor="#666666"
     borderopacity="1"
     objecttolerance="10"
     gridtolerance="10"
     guidetolerance="10"
     inkscape:pageopacity="0"
     inkscape:pageshadow="2"
     inkscape:window-width="640"
     inkscape:window-height="480"
     id="namedview13"
     showgrid="false"
     inkscape:zoom="0.27441406"
     inkscape:cx="512"
     inkscape:cy="512"
     inkscape:window-x="0"
     inkscape:window-y="25"
     inkscape:window-maximized="0"
     inkscape:current-layer="U65C1" />
  <path
     style="fill:#c83737;fill-opacity:1;fill-rule:nonzero;stroke:#f9f9f9;stroke-width:0.1;stroke-miterlimit:4;stroke-dasharray:none"
     d="M 487.5 75.84375 C 462.45846 75.929134 412.55391 96.944531 417.4375 110.78125 C 425.9689 134.65225 437.6538 156.88275 452 177.71875 C 459.53162 188.34095 468.33283 198.06766 475.90625 208.65625 C 488.96575 220.83939 561.70209 181.85098 553.25 165.78125 L 547.9375 156.9375 C 540.21301 146.8485 531.95629 137.1685 524.09375 127.1875 C 513.95785 113.1675 506.13604 97.8695 500.9375 81.3125 C 499.5701 77.438219 494.51163 75.819843 487.5 75.84375 z M 475.90625 208.65625 C 475.86808 208.62064 475.8184 208.59899 475.78125 208.5625 C 476.13452 209.03025 476.49048 209.50137 476.84375 209.96875 C 476.53526 209.52821 476.2191 209.09366 475.90625 208.65625 z M 474.6875 207.09375 C 474.9614 207.6145 475.31334 208.08997 475.71875 208.5 C 475.36924 208.03722 475.03701 207.55665 474.6875 207.09375 z M 520.53125 233.9375 C 459.2837 234.7305 398.02453 236.5625 337.03125 242.5625 C 293.59856 247.0995 250.14685 252.31925 207.5625 262.28125 C 189.42922 267.00625 211.71048 352.475 229.84375 347.75 C 265.48421 337.92643 302.23698 333.33165 338.90625 329.25 C 319.40714 341.76956 301.74869 359.26152 307.25 367.4375 C 314.75328 377.40411 322.36079 387.28356 330.03125 397.125 C 314.38957 402.68736 299.22381 409.60622 284.875 418.53125 C 276.55634 424.31735 268.57573 430.42193 261.0625 436.96875 C 241.25811 433.39202 222.1445 433.97807 220.3125 442.375 C 214.99859 467.665 213.11195 493.4085 212.53125 519.1875 C 211.22565 533.7435 213.81101 548.56475 212.25 563.09375 C 212.13099 563.8608 211.74328 566.19558 211.84375 565.59375 C 213.10775 558.02375 215.2347 554.21 219.6875 547.5 L 220.71875 546.375 C 209.89513 561.01705 271.10917 621.7733 284.25 608.625 L 287.0625 605.625 C 295.4396 593.706 300.93235 581.5895 300.84375 566.6875 C 301.1395 553.30175 300.35067 539.94586 300.34375 526.5625 C 307.75918 510.87984 320.14003 500.21953 334.3125 490.84375 C 353.78153 479.69211 375.11554 473.29807 396.84375 468.46875 C 398.64188 468.82211 400.62782 468.34608 402.71875 467.1875 C 411.38778 465.36855 420.11678 463.76903 428.78125 462.15625 C 478.53832 453.58625 528.69373 447.628 579.03125 443.875 C 618.51485 440.961 658.0398 441.9075 697.25 447.1875 C 714.71561 449.94092 731.96706 453.84488 748.9375 458.78125 C 745.71911 466.67295 742.67534 475.46708 742.59375 475.65625 C 733.22006 498.10325 724.01415 520.54925 712.09375 541.78125 C 707.91383 548.76425 703.21925 555.44525 698.625 562.15625 C 691.88287 572.15542 719.8543 596.16261 743.40625 607.84375 C 726.08922 604.35316 708.53264 602.03694 690.875 600.8125 C 634.37261 597.4625 577.71453 598.273 521.375 604.125 C 520.15605 604.26179 518.93741 604.39239 517.71875 604.53125 C 539.24265 590.26686 561.98019 566.04341 554.75 557.15625 C 549.18386 550.72325 543.56822 544.42275 537 538.96875 C 521.91929 525.11075 506.32952 511.795 491.65625 497.5 C 478.30816 484.307 416.12066 547.2445 429.46875 560.4375 C 445.28451 574.7665 461.35638 588.78175 476.84375 603.46875 C 478.77615 604.91392 480.68809 606.88399 482.46875 608.875 C 431.56745 615.57827 380.97507 624.31505 330.90625 635.9375 C 290.39476 644.7785 249.8549 653.43925 209.34375 662.28125 C 191.13173 666.79725 212.41299 752.64 230.625 748.125 C 270.02525 737.742 309.85416 729.06075 349.59375 720.09375 C 363.51998 716.76432 377.48815 713.70026 391.5 710.84375 C 385.53015 723.76781 379.91053 736.85569 374.28125 749.90625 C 357.98128 787.25325 343.68556 825.444 327.59375 862.875 C 318.18856 882.794 310.79351 903.4845 303.375 924.1875 C 299.16024 934.0085 297.84241 944.458 297.09375 955 C 296.2791 973.788 384.87285 977.63175 385.6875 958.84375 C 386.12622 956.90775 385.85641 954.65425 387 953.03125 C 393.33142 934.06525 399.48396 915.05925 408 896.90625 C 413.52135 883.67451 418.84248 870.3481 424.15625 857.03125 C 449.85381 847.25177 477.0139 841.65666 503.90625 836.21875 C 547.17607 827.96875 590.99046 823.21075 634.90625 820.21875 C 666.20154 818.05675 697.42209 819.645 727.40625 829.125 C 732.80877 826.958 753.18736 846.13025 741.125 837.03125 C 738.39266 852.89625 733.52229 871.73375 728.59375 888.21875 C 721.68691 910.40475 713.04599 932.0675 700.09375 951.4375 C 697.53207 955.5855 693.96723 958.36475 690.09375 961.09375 C 675.39308 972.77575 730.45559 1042.058 745.15625 1030.375 C 756.35145 1021.15 766.70952 1011.0802 774.4375 998.65625 C 790.8915 971.99625 803.30589 943.3425 812.3125 913.3125 C 822.46603 879.4705 833.00143 844.75825 824.90625 809.28125 C 822.61231 803.57125 820.96701 797.54725 818 792.15625 C 804.12831 766.94925 778.29413 753.8575 752.125 745.0625 C 711.88097 733.7445 670.58464 730.2915 628.84375 733.6875 C 581.2242 737.0925 533.70023 742.19525 486.75 751.03125 C 480.15157 752.35427 473.56206 753.73209 466.96875 755.125 C 475.17944 737.07989 484.15636 719.40295 495.84375 703.34375 C 497.60732 700.91294 497.25733 697.51308 495.375 693.625 C 507.18166 692.08282 519.001 690.67576 530.84375 689.375 C 582.14319 684.228 633.74019 683.668 685.125 687.5 C 704.32079 689.443 723.59373 692.155 742.03125 698 C 759.37476 702.94972 782.50017 624.31072 768.03125 614.03125 C 769.65597 613.57685 770.95289 612.74371 771.8125 611.46875 C 777.76795 602.51675 783.76655 593.58675 789.0625 584.21875 C 801.97418 560.47375 812.63963 535.75275 823.09375 510.84375 C 833.80233 486.66075 846.212 462.686 843.875 435.375 C 834.91912 400.952 822.12371 390.17775 789.78125 379.09375 C 763.10341 370.93975 735.89571 364.4565 708.25 360.5625 C 677.20781 356.81131 646.01636 355.17811 614.8125 355.6875 C 617.20236 351.9253 619.61959 348.16599 622.0625 344.4375 C 625.48723 339.05574 619.09837 330.03028 608.8125 321.0625 C 630.12403 321.59967 651.44522 322.27205 672.75 322.96875 C 695.35113 325.26849 719.03192 322.23815 741.28125 327.6875 C 738.68458 326.01506 737.32476 323.92245 733.9375 320.25 C 748.91853 330.1646 817.6443 288.84354 808.59375 273.40625 C 793.57674 255.18925 784.8946 247.287 761.71875 241.875 C 733.15592 236.32 704.12268 236.8205 675.125 236.0625 C 623.60727 234.9145 572.06477 233.7065 520.53125 233.9375 z M 741.28125 327.6875 C 742.45174 328.44138 743.88568 329.10444 745.875 329.8125 C 746.86219 330.1635 739.07959 321.53325 743.1875 328.15625 C 742.54889 327.9848 741.92232 327.84451 741.28125 327.6875 z M 521.59375 319.875 C 525.5608 319.87138 529.53307 319.89145 533.5 319.90625 C 525.97615 332.30739 518.41194 344.6844 510.75 357 C 509.35923 359.30611 508.00003 361.62273 506.625 363.9375 C 479.33053 366.99593 452.09738 370.63769 424.96875 374.96875 C 422.86989 372.53031 421.11913 370.49566 421.21875 370.6875 C 409.02921 355.67245 396.83514 340.64249 385.5 324.96875 C 430.77759 321.6177 476.19633 320.39384 521.59375 319.875 z M 765.46875 463.78125 C 770.74057 465.63668 771.4055 469.5338 765.46875 463.78125 z "
     id="path10099" />
</svg>
