<?xml version="1.0" encoding="UTF-8" standalone="no"?>
<svg
   xmlns:dc="http://purl.org/dc/elements/1.1/"
   xmlns:cc="http://creativecommons.org/ns#"
   xmlns:rdf="http://www.w3.org/1999/02/22-rdf-syntax-ns#"
   xmlns:svg="http://www.w3.org/2000/svg"
   xmlns="http://www.w3.org/2000/svg"
   xmlns:sodipodi="http://sodipodi.sourceforge.net/DTD/sodipodi-0.dtd"
   xmlns:inkscape="http://www.inkscape.org/namespaces/inkscape"
   width="1024"
   height="1024"
   id="U65E5"
   version="1.1"
   inkscape:version="0.48.0 r9654"
   sodipodi:docname="U+65E5.svg">
  <metadata
     id="metadata11">
    <rdf:RDF>
      <cc:Work
         rdf:about="">
        <dc:format>image/svg+xml</dc:format>
        <dc:type
           rdf:resource="http://purl.org/dc/dcmitype/StillImage" />
      </cc:Work>
    </rdf:RDF>
  </metadata>
  <defs
     id="defs9" />
  <sodipodi:namedview
     pagecolor="#ffffff"
     bordercolor="#666666"
     borderopacity="1"
     objecttolerance="10"
     gridtolerance="10"
     guidetolerance="10"
     inkscape:pageopacity="0"
     inkscape:pageshadow="2"
     inkscape:window-width="640"
     inkscape:window-height="480"
     id="namedview7"
     showgrid="false"
     inkscape:zoom="0.27441406"
     inkscape:cx="512"
     inkscape:cy="512"
     inkscape:window-x="0"
     inkscape:window-y="25"
     inkscape:window-maximized="0"
     inkscape:current-layer="U65E5" />
  <path
     style="fill:#a02c2c;fill-opacity:1;fill-rule:nonzero;stroke:#f9f9f9;stroke-width:0.1;stroke-miterlimit:4;stroke-dasharray:none"
     d="M 577.53125 163.96875 C 561.98971 164.12821 546.38715 165.40006 531.25 166.34375 C 480.0155 171.71175 428.8778 178.67775 378.5 189.59375 C 339.6833 199.51575 300.559 210.9885 267.75 234.9375 C 253.169 246.7735 308.95025 315.49225 323.53125 303.65625 C 346.12845 287.50225 373.60125 280.43875 400.09375 273.59375 C 446.22665 263.52175 493.06995 257.1915 540.03125 252.5625 C 561.97075 252.8105 597.25355 244.754 616.34375 259.25 C 619.68685 282.16 620.6697 305.17725 620.8125 328.40625 C 618.6127 403.47825 609.11245 478.08125 600.78125 552.65625 C 593.19165 613.90125 588.4591 675.39475 587.4375 737.09375 C 587.23934 748.02855 587.39594 758.9716 587.4375 769.90625 C 581.64064 770.16792 575.82321 770.65315 570.03125 771.4375 C 518.97105 777.4175 468.39355 786.445 417.59375 794.25 C 375.22225 799.964 332.35235 805.34975 289.53125 802.09375 C 270.87795 800.32975 262.56545 888.26625 281.21875 890.03125 C 330.80345 892.21725 380.20225 886.28425 429.21875 879.53125 C 479.25175 871.81225 529.1108 863.05775 579.5 857.96875 C 590.9294 856.67875 602.32675 856.68975 613.71875 857.96875 C 624.68072 858.75939 631.36975 828.65726 631.21875 803.5 C 653.36703 803.52313 675.56752 798.8343 675.5625 789.4375 C 675.1726 772.2295 674.3586 755.0275 674.25 737.8125 C 674.1943 679.0155 678.2708 620.387 685.25 562 C 693.7427 484.245 703.75225 406.5195 706.90625 328.3125 C 707.08555 271.0255 707.59535 216.567 655.59375 180.75 C 649.14995 177.846 642.95005 174.37225 636.28125 172.03125 C 617.43598 165.41512 597.51323 163.76373 577.53125 163.96875 z M 250.0625 264.5625 C 224.03077 264.49188 190.24681 272.64563 191.53125 284.28125 C 198.74605 337.22625 203.52705 390.47225 208.59375 443.65625 C 214.53365 505.97425 219.96825 568.32825 227.03125 630.53125 C 229.46925 653.72025 233.3185 676.68425 239.5 699.15625 C 244.9129 717.04125 329.2253 691.509 323.8125 673.625 C 317.6052 656.465 315.74725 638.1215 312.96875 620.1875 C 305.12775 558.8635 299.4092 497.302 293.6875 435.75 C 288.8203 382.039 284.06435 328.31175 279.28125 274.59375 C 278.51063 267.61238 265.68154 264.60487 250.0625 264.5625 z M 496.4375 463.5 C 476.62767 463.71741 456.90917 465.5345 437.21875 468.5 C 394.30455 474.524 351.1476 480.95575 309.9375 494.84375 C 292.4978 501.71375 324.8727 583.90125 342.3125 577.03125 C 376.6324 564.40725 413.1373 559.32475 449.1875 554.34375 C 469.4866 552.07775 489.94075 549.04225 510.34375 551.40625 C 528.92155 552.66625 534.85905 465.10375 516.28125 463.84375 C 509.65675 463.54925 503.04078 463.42753 496.4375 463.5 z "
     id="path11577" />
</svg>
