<?xml version="1.0" encoding="UTF-8" standalone="no"?>
<svg
   xmlns:dc="http://purl.org/dc/elements/1.1/"
   xmlns:cc="http://creativecommons.org/ns#"
   xmlns:rdf="http://www.w3.org/1999/02/22-rdf-syntax-ns#"
   xmlns:svg="http://www.w3.org/2000/svg"
   xmlns="http://www.w3.org/2000/svg"
   xmlns:sodipodi="http://sodipodi.sourceforge.net/DTD/sodipodi-0.dtd"
   xmlns:inkscape="http://www.inkscape.org/namespaces/inkscape"
   width="1024"
   height="1024"
   id="U65B0"
   version="1.1"
   inkscape:version="0.48.0 r9654"
   sodipodi:docname="U+65B0.svg">
  <metadata
     id="metadata20">
    <rdf:RDF>
      <cc:Work
         rdf:about="">
        <dc:format>image/svg+xml</dc:format>
        <dc:type
           rdf:resource="http://purl.org/dc/dcmitype/StillImage" />
      </cc:Work>
    </rdf:RDF>
  </metadata>
  <defs
     id="defs18" />
  <sodipodi:namedview
     pagecolor="#ffffff"
     bordercolor="#666666"
     borderopacity="1"
     objecttolerance="10"
     gridtolerance="10"
     guidetolerance="10"
     inkscape:pageopacity="0"
     inkscape:pageshadow="2"
     inkscape:window-width="640"
     inkscape:window-height="480"
     id="namedview16"
     showgrid="false"
     inkscape:zoom="0.27441406"
     inkscape:cx="512"
     inkscape:cy="512"
     inkscape:window-x="0"
     inkscape:window-y="25"
     inkscape:window-maximized="0"
     inkscape:current-layer="U65B0" />
  <path
     style="fill:#916f6f;fill-opacity:1;fill-rule:nonzero;stroke:#f9f9f9;stroke-width:0.1;stroke-miterlimit:4;stroke-dasharray:none"
     d="M 263.90625 140.0625 C 238.92321 140.84444 189.74234 163.20469 195 176.875 C 209.4189 210.256 229.327 240.7055 250.5625 270.0625 C 253.43515 273.80547 256.31483 277.53828 259.1875 281.28125 C 228.74991 290.15238 198.43786 299.44138 168.1875 308.96875 C 134.9823 318.76875 101.596 327.97075 68 336.34375 C 49.9756 341.61475 74.81935 426.5845 92.84375 421.3125 C 111.95386 415.73993 131.11076 410.25781 150.21875 404.6875 C 145.66915 410.85952 143.73108 416.34987 146.28125 419.875 C 165.51475 447.419 189.5779 470.6405 215.5625 491.6875 C 221.49393 496.37738 227.66407 500.67456 234 504.6875 C 205.82291 513.06757 178.01802 522.65806 150.75 533.84375 C 112.6994 549.46875 74.3925 565.22525 39.4375 587.15625 C 23.9949 597.83425 74.33865 670.64675 89.78125 659.96875 C 118.95475 640.50975 151.679 627.153 183.875 613.625 C 222.03221 597.66577 261.46353 585.41848 301.5 575.4375 C 299.51578 600.77274 299.36163 626.27622 299.3125 651.6875 C 281.16313 656.31878 263.08667 661.25813 245.03125 666.28125 C 206.70745 676.84925 168.61075 688.42525 129.90625 697.53125 C 114.17523 701.205 126.92874 765.61627 142.4375 780.625 C 133.97995 805.23928 125.67994 829.90282 116.71875 854.34375 C 108.93885 876.26075 100.0235 897.73025 91 919.15625 C 83.9405 936.43725 165.40925 969.7195 172.46875 952.4375 C 181.40485 929.8765 190.5216 907.38725 198.6875 884.53125 C 208.2553 858.66725 217.1207 832.54725 226.9375 806.78125 C 230.94531 797.00613 206.775 782.1081 183.59375 774.03125 C 211.78967 765.88407 239.92347 757.51037 268.1875 749.59375 C 278.9939 746.60443 289.79198 743.64923 300.625 740.75 C 301.17157 767.27706 301.72901 793.81218 302.03125 820.34375 C 302.52905 844.93875 301.37875 869.4265 297.34375 893.6875 C 294.58445 912.1385 381.5532 925.16975 384.3125 906.71875 C 388.3022 877.62875 389.63115 848.33375 388.71875 818.96875 C 388.06804 786.3027 387.12564 753.66652 386.46875 721 C 391.4295 720.12146 396.3893 719.2908 401.375 718.53125 C 415.8283 716.45025 430.3867 716.4205 444.9375 716.6875 C 463.5121 716.7775 463.9496 629.215 445.375 629.125 C 426.1013 629.222 406.81205 629.61625 387.71875 632.65625 C 387.15501 632.74908 386.59471 632.84342 386.03125 632.9375 C 386.46197 607.81432 387.64111 582.66057 392.125 557.9375 C 413.36718 555.46811 434.7207 554.22509 456.15625 554.28125 C 470.65025 554.69925 463.8935 554.3435 476.5 555.3125 C 495.1348 556.4295 500.3848 468.58575 481.75 467.46875 C 464.6423 466.64575 473.4314 466.899 455.375 466.75 C 450.55248 466.8388 445.75366 466.97005 440.9375 467.15625 C 445.00339 460.20016 449.01103 453.21433 452.96875 446.1875 C 467.82205 420.8235 482.9242 395.537 499.6875 371.375 C 506.70001 361.37071 478.41769 336.39161 454.875 324.40625 C 459.00012 323.8354 463.11513 323.28966 467.25 322.78125 C 480.2312 321.67325 474.07425 322.10425 485.78125 321.40625 C 504.42345 319.99625 497.7672 232.12125 479.125 233.53125 C 464.2984 234.84225 472.13245 234.0695 455.59375 235.9375 C 413.09285 242.0615 371.0213 250.7075 329.5 261.6875 C 321.29197 263.85363 313.09062 266.09775 304.90625 268.34375 C 322.04015 255.01426 336.2615 238.15946 330.625 230.875 C 327.4655 226.831 324.31575 222.794 321.15625 218.75 C 304.29465 195.69 288.1433 171.83725 277.5 145.15625 C 276.02786 141.32856 270.9015 139.84356 263.90625 140.0625 z M 698.90625 178.5625 C 692.66106 178.57491 688.15708 180.06787 686.78125 183.625 C 674.17095 214.638 654.6884 242.32825 636.1875 270.03125 C 614.9847 301.05725 593.54405 331.9055 572.90625 363.3125 C 562.83715 378.8005 635.8684 426.26825 645.9375 410.78125 C 666.028 379.53025 687.03255 348.9145 708.09375 318.3125 C 730.39125 285.2815 753.33845 252.2365 769.34375 215.5625 C 774.74122 201.60842 723.4066 178.51383 698.90625 178.5625 z M 421.5 329.6875 C 406.42767 353.52387 391.92459 377.70614 377.65625 402.03125 C 369.73215 415.97525 361.69805 429.8255 353.21875 443.4375 C 349.07722 450.14567 360.13668 462.29454 374.96875 472.84375 C 357.22955 475.23932 339.59835 478.32695 322.0625 482.15625 C 319.55283 482.70979 317.03811 483.278 314.53125 483.84375 C 320.38515 467.19461 322.32788 451.62029 315.28125 448.53125 C 299.39845 441.81225 283.95565 434.1485 270.21875 423.5625 C 254.30669 410.96407 239.43064 397.12129 227.09375 381.0625 C 268.237 368.12739 309.62304 355.98685 351.375 345.125 C 374.56234 339.10099 397.94036 333.90427 421.5 329.6875 z M 566.46875 437.8125 C 547.40308 438.10581 530.31539 442.08119 530 450.28125 C 530.5352 496.85125 534.5907 543.29575 538 589.71875 C 542.43495 649.41277 545.20322 709.20304 547.8125 769 C 535.88918 760.15898 523.83439 750.61189 516.875 737.25 C 509.8994 719.811 427.68065 752.686 434.65625 770.125 C 448.22935 800.308 472.69545 822.0705 498.59375 841.5625 C 515.28461 853.56451 533.10704 863.69181 551.65625 872.40625 C 552.56711 907.03169 553.2969 941.67033 554.65625 976.28125 C 555.13955 990.93425 556.1387 1005.5675 557.1875 1020.1875 C 558.8247 1038.7835 646.48085 1031.0638 644.84375 1012.4688 C 643.41835 999.06475 642.1541 985.62525 641.5 972.15625 C 638.3798 916.25525 637.4987 860.26875 634.875 804.34375 C 632.22912 747.94132 629.72046 691.53451 626.59375 635.15625 C 638.76276 647.49889 651.5339 655.74255 657.375 650.875 C 677.50764 634.48098 700.84518 622.9243 724.5625 612.65625 C 719.98311 662.55642 720.26389 712.75005 721.46875 762.8125 C 724.09275 833.5845 731.408 904.04925 739.1875 974.40625 C 743.0964 1007.6473 741.21815 991.72775 744.90625 1022.2188 C 747.29275 1040.4867 833.3865 1029.2367 831 1010.9688 C 826.8271 981.27975 828.9625 996.76875 824.6875 964.46875 C 816.4288 896.87875 809.03855 829.07175 806.84375 760.96875 C 805.91025 709.68975 805.7093 658.1145 813.8125 607.3125 C 814.73185 600.39521 803.13698 594.44429 788.125 590.65625 C 808.4415 585.48201 829.12908 581.74965 849.96875 579.0625 C 861.89955 577.3865 873.94775 577.0555 885.96875 576.8125 C 904.61815 576.1305 901.3994 488.22425 882.75 488.90625 C 867.8288 489.64625 852.89045 490.45425 838.09375 492.65625 C 791.78565 499.35125 746.06585 509.87275 702.65625 527.71875 C 675.09082 539.20885 647.71857 551.62701 622.5 567.625 C 620.03403 529.68578 617.46914 491.67209 618.34375 453.65625 C 618.74926 443.11331 590.98175 437.43539 566.46875 437.8125 z "
     id="path12277" />
</svg>
