<?xml version="1.0" encoding="UTF-8" standalone="no"?>
<svg
   xmlns:dc="http://purl.org/dc/elements/1.1/"
   xmlns:cc="http://creativecommons.org/ns#"
   xmlns:rdf="http://www.w3.org/1999/02/22-rdf-syntax-ns#"
   xmlns:svg="http://www.w3.org/2000/svg"
   xmlns="http://www.w3.org/2000/svg"
   xmlns:sodipodi="http://sodipodi.sourceforge.net/DTD/sodipodi-0.dtd"
   xmlns:inkscape="http://www.inkscape.org/namespaces/inkscape"
   width="1024"
   height="1024"
   id="U65C5"
   version="1.1"
   inkscape:version="0.48.0 r9654"
   sodipodi:docname="U+65C5.svg">
  <metadata
     id="metadata17">
    <rdf:RDF>
      <cc:Work
         rdf:about="">
        <dc:format>image/svg+xml</dc:format>
        <dc:type
           rdf:resource="http://purl.org/dc/dcmitype/StillImage" />
      </cc:Work>
    </rdf:RDF>
  </metadata>
  <defs
     id="defs15" />
  <sodipodi:namedview
     pagecolor="#ffffff"
     bordercolor="#666666"
     borderopacity="1"
     objecttolerance="10"
     gridtolerance="10"
     guidetolerance="10"
     inkscape:pageopacity="0"
     inkscape:pageshadow="2"
     inkscape:window-width="640"
     inkscape:window-height="480"
     id="namedview13"
     showgrid="false"
     inkscape:zoom="0.27441406"
     inkscape:cx="512"
     inkscape:cy="512"
     inkscape:window-x="0"
     inkscape:window-y="25"
     inkscape:window-maximized="0"
     inkscape:current-layer="U65C5" />
  <path
     style="fill:#2b0000;fill-opacity:1;fill-rule:nonzero;stroke:#f9f9f9;stroke-width:0.1;stroke-miterlimit:4;stroke-dasharray:none"
     d="M 553.34375 126.8125 C 541.27094 126.67459 532.00769 128.96813 530.875 134.71875 C 521.8002 177.05775 507.1745 218.024 493.375 259 C 486.82121 278.03626 480.2848 297.07234 473.78125 316.125 C 467.70478 308.50437 461.6103 303.79736 456.90625 304.9375 C 459.62169 303.94325 462.30829 302.79179 465.125 302.15625 C 466.13184 301.92904 467.01718 301.75749 467.84375 301.59375 C 467.03706 301.55048 466.18486 301.4676 465.28125 301.34375 C 458.42185 301.96475 451.55215 302.26425 444.71875 303.15625 C 429.09355 305.55325 413.9014 309.8045 398.5625 313.5625 C 364.0272 321.1995 329.372 328.3315 294.75 335.5625 C 257.8529 342.7585 220.79895 349.315 183.40625 353.375 C 159.73615 355.748 135.9883 357.2485 112.1875 356.3125 C 93.4043 356.3125 93.4043 444.84375 112.1875 444.84375 C 139.0022 444.90675 165.7202 443.2345 192.375 440.4375 C 216.63825 437.6422 240.77014 433.87928 264.8125 429.625 C 262.38961 448.36546 258.71483 466.98352 255.0625 485.4375 C 237.2327 564.9815 208.3785 641.441 180.875 718 C 165.7136 758.921 152.84185 800.60125 140.40625 842.40625 C 135.31145 859.67725 216.7177 883.67725 221.8125 866.40625 C 233.5913 826.11725 245.87265 785.97775 260.46875 746.59375 C 281.84573 687.11906 303.96952 627.74438 321.9375 567.125 C 334.69196 562.77227 347.69174 559.16128 360.90625 556.4375 C 374.82695 553.9365 389.0045 554.409 403.0625 555 C 407.64209 555.70836 412.54896 555.46722 417.34375 555.71875 C 420.26923 560.74381 423.40127 565.71167 425.375 571.1875 C 427.3156 578.6035 427.2936 586.41525 427.5 594.03125 C 428.0357 612.27725 425.0691 630.3555 422.25 648.3125 C 417.0027 679.4765 410.8168 710.4875 404.4375 741.4375 C 400.02794 762.61125 395.0032 783.63137 390.34375 804.75 C 373.78094 824.90591 356.89508 869.05069 369.25 874.90625 C 373.1666 876.75725 377.0834 878.61675 381 880.46875 C 399.8094 887.81375 422.49615 896.3925 442.34375 886.4375 C 449.58365 882.8065 455.0732 876.41525 461.4375 871.40625 C 469.0715 857.64225 473.55205 844.384 475.40625 828.75 C 480.09725 805.435 485.39025 782.2495 490.09375 758.9375 C 496.62275 726.7895 503.1272 694.64175 508.875 662.34375 C 512.7658 638.97775 516.48315 615.43225 515.78125 591.65625 C 515.29005 573.21225 514.19165 554.585 507.21875 537.25 C 502.42825 526.064 496.80485 515.322 490.34375 505 C 480.19185 489.353 467.5286 476.122 448.6875 471.5 C 434.762 468.325 420.61735 467.04775 406.34375 466.71875 C 386.08794 466.03916 365.73992 466.02508 345.75 469.75 C 349.33344 450.6507 352.31932 431.43969 354 412.125 C 374.94719 407.87262 395.90534 403.66975 416.84375 399.375 C 427.31817 397.31301 437.61591 394.37583 448.09375 392.375 C 447.24029 394.95669 446.38117 397.5421 445.53125 400.125 C 439.90035 417.594 522.244 444.12525 527.875 426.65625 C 542.6748 379.74625 558.4311 333.154 574.75 286.75 C 575.29988 285.15668 575.8549 283.56193 576.40625 281.96875 C 620.14015 267.2659 665.3692 257.64151 710.53125 248.53125 C 772.44395 236.65425 834.98575 228.50725 897.84375 223.90625 C 913.97235 222.56525 930.0534 222.86925 946.125 224.40625 C 964.6773 225.66525 970.6149 138.22875 952.0625 136.96875 C 931.6449 135.94875 911.2655 135.684 890.875 137.75 C 824.8533 143.589 759.09565 152.36925 693.90625 164.40625 C 665.62128 169.87711 637.38388 175.618 609.34375 182.21875 C 612.29024 172.13015 615.07922 162.01461 617.625 151.8125 C 620.11691 139.16113 579.90393 127.11591 553.34375 126.8125 z M 467.84375 301.59375 C 474.99261 301.97718 477.85608 299.61033 467.84375 301.59375 z M 265.65625 161.3125 C 245.49064 161.01523 192.5074 207.13233 203.15625 220.03125 C 217.99095 237.28225 232.54205 254.75725 247.78125 271.65625 C 256.68985 281.42225 265.8898 290.9195 275.1875 300.3125 C 288.5622 313.5175 350.8122 250.48625 337.4375 237.28125 C 329.0605 229.22125 320.82055 221.018 312.90625 212.5 C 298.46855 196.754 284.758 180.3875 271.4375 163.6875 C 270.12975 162.10342 268.13273 161.34901 265.65625 161.3125 z M 791.625 287.375 C 791.05063 287.40472 790.48936 287.51903 789.9375 287.71875 C 758.7407 300.87775 729.4361 317.89425 700.6875 335.65625 C 665.3143 358.19125 632.20885 383.98975 599.84375 410.59375 C 583.19835 424.31275 567.3424 438.94225 552.1875 454.28125 C 546.1597 460.39425 540.14495 466.49725 535.03125 473.40625 C 534.33735 474.48325 532.17755 477.66425 532.96875 476.65625 C 550.81705 453.91625 534.8226 471.6945 526.375 494.1875 C 524.8701 498.1945 526.3697 509.58075 526.9375 514.84375 C 530.4651 544.86075 529.80025 575.115 528.78125 605.25 C 526.39625 657.783 522.4811 710.22625 518.5 762.65625 C 515.4882 797.19525 514.1153 831.80575 518.8125 866.21875 C 521.2327 881.83175 525.5403 896.981 532.3125 911.25 C 533.919 914.282 534.21045 915.38125 535.59375 918.53125 C 543.43071 935.05349 619.07288 899.809 616.53125 882.0625 C 630.42586 873.947 644.86353 866.79951 659.5 860.09375 C 666.2838 856.95975 673.35145 854.625 680.53125 852.625 C 698.44645 847.182 672.7903 762.71225 654.875 768.15625 C 643.8825 771.64625 632.96545 775.36475 622.53125 780.34375 C 616.24806 783.28686 609.98711 786.28328 603.78125 789.375 C 604.14707 782.51678 604.56343 775.67545 604.9375 768.84375 C 608.5121 715.47275 612.32975 662.0915 615.40625 608.6875 C 615.6595 603.0976 615.9145 597.53106 616.125 591.9375 C 621.31781 599.49539 626.51898 607.03071 631.75 614.5625 C 632.39951 615.51182 633.06672 616.45881 633.71875 617.40625 C 622.22594 632.31448 614.83659 647.86495 620.96875 653.1875 C 626.70315 657.1005 631.9122 661.93725 638.1875 664.90625 C 649.41115 670.2166 660.96583 671.6945 672.40625 670.65625 C 692.23882 696.61192 712.97039 721.87736 734.46875 746.5 C 771.57905 789.228 815.3515 824.96075 861.0625 857.96875 C 891.0799 878.96975 922.2392 898.3235 954 916.5625 C 957.2122 918.3535 960.4127 920.1475 963.625 921.9375 C 980.0354 930.8575 1022.0667 853.4825 1005.6562 844.5625 C 1002.7753 843.0415 999.91215 841.522 997.03125 840 C 967.70795 823.914 939.1825 806.39525 911.5625 787.53125 C 871.0181 758.72025 832.1041 727.51225 799.375 689.78125 C 783.42166 671.53049 767.96116 652.88568 753.03125 633.8125 C 773.27407 620.03507 792.58965 604.90224 810.65625 588.28125 C 831.99095 568.03325 852.17125 546.714 871.03125 524.125 C 883.03535 509.688 815.004 453.1255 803 467.5625 C 787.0754 488.1185 769.2498 507.0275 750.4375 524.9375 C 735.15633 538.92493 718.86613 551.73016 701.65625 563.1875 C 683.70034 536.96106 665.88789 510.62543 648.71875 483.875 C 651.04927 481.81593 653.40681 479.79193 655.78125 477.78125 C 684.61155 453.43725 714.25175 429.98875 746.21875 409.84375 C 769.96645 395.35775 794.1564 381.29075 820.0625 370.96875 C 837.17014 364.77747 809.43054 286.45357 791.625 287.375 z M 422.96875 556.34375 C 424.46304 556.62753 425.92291 557.0045 427.34375 557.5625 C 426.11552 557.78121 424.56029 557.22202 422.96875 556.34375 z "
     id="path10436" />
</svg>
