<?xml version="1.0" encoding="UTF-8" standalone="no"?>
<svg
   xmlns:dc="http://purl.org/dc/elements/1.1/"
   xmlns:cc="http://creativecommons.org/ns#"
   xmlns:rdf="http://www.w3.org/1999/02/22-rdf-syntax-ns#"
   xmlns:svg="http://www.w3.org/2000/svg"
   xmlns="http://www.w3.org/2000/svg"
   xmlns:sodipodi="http://sodipodi.sourceforge.net/DTD/sodipodi-0.dtd"
   xmlns:inkscape="http://www.inkscape.org/namespaces/inkscape"
   width="1024"
   height="1024"
   id="U6696"
   version="1.1"
   inkscape:version="0.48.0 r9654"
   sodipodi:docname="U+6696.svg">
  <metadata
     id="metadata20">
    <rdf:RDF>
      <cc:Work
         rdf:about="">
        <dc:format>image/svg+xml</dc:format>
        <dc:type
           rdf:resource="http://purl.org/dc/dcmitype/StillImage" />
      </cc:Work>
    </rdf:RDF>
  </metadata>
  <defs
     id="defs18" />
  <sodipodi:namedview
     pagecolor="#ffffff"
     bordercolor="#666666"
     borderopacity="1"
     objecttolerance="10"
     gridtolerance="10"
     guidetolerance="10"
     inkscape:pageopacity="0"
     inkscape:pageshadow="2"
     inkscape:window-width="640"
     inkscape:window-height="480"
     id="namedview16"
     showgrid="false"
     inkscape:zoom="0.27441406"
     inkscape:cx="512"
     inkscape:cy="512"
     inkscape:window-x="0"
     inkscape:window-y="25"
     inkscape:window-maximized="0"
     inkscape:current-layer="U6696" />
  <path
     style="fill:#c83737;fill-opacity:1;fill-rule:nonzero;stroke:#f9f9f9;stroke-width:0.1;stroke-miterlimit:4;stroke-dasharray:none"
     d="M 731.84375 34.3125 C 731.26963 34.287944 730.69274 34.353344 730.125 34.5 C 690.7393 46.226 653.9134 64.52275 617.8125 83.84375 C 564.1235 113.76475 515.61165 151.6975 468.53125 190.9375 C 439.04695 216.0085 410.39015 242.136 384.03125 270.5 C 374.59705 281.868 379.0994 275.774 370.5625 288.875 C 361.0279 305.046 437.2779 349.9845 446.8125 333.8125 C 446.6177 333.7925 446.41345 333.77 446.21875 333.75 C 447.26555 332.317 448.3281 330.8705 449.375 329.4375 C 472.1112 303.2235 497.8061 279.73075 523.9375 256.96875 C 566.1606 221.31975 609.7525 186.9265 658.3125 160.1875 C 688.4548 144.3465 719.1886 128.938 752.25 120.125 C 769.85006 115.57866 749.64152 35.073733 731.84375 34.3125 z M 821.78125 158.8125 C 817.62114 158.90449 814.54839 160.09328 813.1875 162.6875 C 797.1669 194.9145 779.19265 226.07875 760.96875 257.09375 C 758.93193 260.49668 756.85624 263.88248 754.8125 267.28125 C 750.68635 264.36244 746.60284 261.41334 742.5625 258.375 C 727.3439 247.086 711.74895 236.0285 698.34375 222.5625 C 685.31315 209.0495 621.62575 270.487 634.65625 284 C 651.72985 300.522 670.90715 314.607 689.84375 328.875 C 696.0434 333.68553 702.41459 338.2584 708.78125 342.84375 C 708.474 343.3243 708.15099 343.80055 707.84375 344.28125 C 707.83275 344.11225 707.8235 343.95025 707.8125 343.78125 C 700.94689 353.08823 725.23545 376.5455 747.59375 389.75 C 723.3674 390.05459 699.17942 391.14107 675 392.8125 C 655.78547 394.11113 636.57182 395.63504 617.375 397.15625 C 632.36644 375.19732 645.66121 333.18728 633.4375 328.09375 C 633.7141 328.32375 633.9734 328.55225 634.25 328.78125 C 623.3547 324.92625 615.60655 313.81925 607.03125 306.78125 C 591.81755 290.38725 577.9013 272.8855 564.5625 254.9375 C 552.8713 240.2345 483.59015 295.3605 495.28125 310.0625 C 510.60295 329.1295 525.90965 348.14875 542.40625 366.21875 C 554.18848 378.82203 567.03661 390.31478 581.28125 399.9375 C 569.34049 400.83668 557.38963 401.71763 545.4375 402.46875 C 513.7236 404.15975 481.98175 405.06 450.28125 407 C 431.57905 408.701 439.6103 496.85725 458.3125 495.15625 C 488.9332 492.13425 519.69975 491.1815 550.40625 489.3125 C 554.98872 488.9955 559.57541 488.68024 564.15625 488.34375 C 555.85924 507.04422 547.47628 525.69762 538.84375 544.25 C 537.6117 546.92108 536.38152 549.59167 535.125 552.25 C 528.05646 552.56967 520.97725 552.8879 513.90625 553.15625 C 476.61345 554.27025 439.2759 554.8535 402 552.8125 C 383.2604 552.2725 380.72925 640.586 399.46875 641.125 C 429.01416 641.54421 458.53281 641.28149 488.0625 640.53125 C 481.30305 651.995 474.36828 663.35258 467.28125 674.625 C 448.79155 703.386 428.621 731.02625 408 758.28125 C 401.55984 765.47556 396.73571 774.41428 389.65625 781.03125 C 379.16037 795.63715 434.2298 859.72904 448.25 847.8125 C 449.381 846.7525 450.52525 845.686 451.65625 844.625 C 461.55075 834.054 469.8742 822.225 478.5 810.625 C 500.0081 781.111 521.2171 751.34175 540.75 720.46875 C 544.34388 714.6655 547.91218 708.84354 551.4375 703 C 549.37752 729.46373 556.70217 768.38968 569.1875 767.375 C 569.2288 767.37062 569.2712 767.37938 569.3125 767.375 C 555.67718 784.70416 545.7161 804.89518 553.0625 810.6875 C 571.13454 824.93768 589.04562 839.39212 607.125 853.625 C 588.83178 866.59026 570.49541 879.5066 552.15625 892.40625 C 532.89115 905.75925 513.82745 919.376 495.40625 933.875 C 495.29769 934.62218 489.52456 938.50955 486.9375 940.21875 C 486.47768 940.44521 486.06885 940.73015 485.6875 941.0625 C 485.70283 941.05263 485.60731 941.10518 485.625 941.09375 C 472.28481 952.9842 506.81151 1028.576 523.4375 1021.125 C 533.3703 1016.114 542.59705 1010.2637 550.84375 1002.7188 C 567.53305 988.90875 585.0236 976.12375 602.6875 963.59375 C 629.06542 944.70858 655.51132 925.90483 681.875 907 C 707.92911 922.87286 735.08859 936.94297 762.4375 950.5 C 796.233 966.14 829.6338 982.54575 861.5 1001.8438 C 870.1404 1007.1937 878.52745 1012.9103 886.90625 1018.6562 C 902.47105 1029.0353 951.40855 955.66025 935.84375 945.28125 C 926.06075 938.91925 916.23725 932.58175 906.21875 926.59375 C 872.12655 906.63975 836.75675 889.21725 800.84375 872.78125 C 786.40703 865.6759 771.99922 858.41105 757.84375 850.75 C 773.49207 838.70781 788.95552 826.41733 804.03125 813.65625 C 824.98125 795.37025 846.51465 777.03225 862.78125 754.28125 C 865.06345 749.40425 868.4639 744.883 869.625 739.625 C 877.6198 703.423 856.9035 678.268 822.125 673.375 C 801.4859 671.445 780.7047 671.6065 760 670.9375 C 725.0854 670.5425 690.1784 671.05475 655.3125 673.09375 C 625.41529 674.84339 595.53893 677.00043 565.65625 678.96875 C 573.89322 664.76252 581.9206 650.42062 589.65625 635.9375 C 616.90953 634.40429 644.17775 632.78875 671.4375 631.375 C 709.9269 629.37 748.43915 627.911 786.96875 629.375 C 807.77335 630.383 828.49825 632.79175 849.09375 635.84375 C 849.61958 635.83633 866.33035 638.83603 867.25 639.09375 C 867.27729 639.1014 867.37684 639.09108 867.375 639.09375 C 885.25777 638.95626 909.11759 559.2602 891.6875 553.90625 C 881.6783 551.34625 871.53195 549.73625 861.28125 548.40625 C 837.54475 545.27425 813.6887 542.834 789.75 542 C 748.7201 540.917 707.714 542.5355 666.75 544.9375 C 655.54721 545.56735 644.35775 546.2139 633.15625 546.875 C 642.96604 525.62602 652.72961 504.37035 662.9375 483.3125 C 663.32524 482.52317 663.51235 481.6599 663.53125 480.78125 C 669.21799 480.39231 674.90375 480.00432 680.59375 479.65625 C 710.09135 477.85425 739.60885 476.9585 769.15625 477.5625 C 785.64605 478.1135 802.15975 478.583 818.65625 478.875 C 825.24215 478.983 821.67125 479.015 829.28125 478.75 C 848.07875 477.598 842.6725 388.974 823.875 390.125 C 823.7885 390.184 823.68075 390.2525 823.59375 390.3125 L 819.3125 390.34375 C 807.39062 390.38544 795.44983 390.2 783.53125 389.96875 C 784.13076 388.9972 784.73823 387.9177 786.9375 384.09375 C 802.7828 356.20175 819.3176 328.70425 835.75 301.15625 C 854.7816 268.94025 873.44085 236.50975 891.46875 203.71875 C 898.81764 189.70997 844.24586 158.31577 821.78125 158.8125 z M 867.25 639.09375 C 866.99858 639.06397 866.56969 638.99816 865.59375 638.84375 C 866.13592 639.01032 866.69462 639.08644 867.25 639.09375 z M 389.65625 781.03125 C 389.74226 780.91156 389.84263 780.80047 389.9375 780.6875 C 389.47486 781.14723 388.99386 781.60277 388.53125 782.0625 C 388.90853 781.73453 389.29147 781.3722 389.65625 781.03125 z M 299.96875 255.625 C 294.85858 255.58156 289.69012 255.93594 284.46875 256.625 C 254.18975 260.782 224.21255 266.83375 194.28125 272.96875 C 162.79625 279.82875 131.0455 286.64525 101.125 298.90625 C 95.907668 301.3444 95.814976 310.59657 98.6875 322 C 72.326527 319.05158 29.349154 326.85852 30.53125 339.96875 C 34.93515 380.02275 36.8527 420.30925 39 460.53125 C 41.0925 513.71525 45.47125 566.73725 51.03125 619.65625 C 54.29965 652.66425 59.7412 685.36675 65 718.09375 C 65.595 725.53575 67.5611 732.11725 69.6875 739.28125 C 75.864509 753.96166 135.218 731.6768 149.21875 713.90625 C 150.80301 713.72277 152.38462 713.52839 153.96875 713.34375 C 178.51301 710.48295 203.02603 707.48929 227.5625 704.5625 C 256.83162 701.2912 285.96364 696.76091 315.34375 694.71875 C 334.04452 702.55855 353.03407 706.14225 356.65625 698.28125 C 357.96848 693.99661 359.07805 689.80535 359.96875 685.625 C 367.10482 669.42555 368.77273 635.57821 363.53125 617.75 C 364.30386 596.64378 365.31065 575.53066 366.40625 554.4375 C 368.95125 507.8175 372.1572 461.2395 373.5 414.5625 C 374.2575 376.5495 376.08425 337.544 365.46875 300.625 C 362.57765 294.768 360.631 288.33025 356.8125 283.03125 C 342.67687 263.41425 322.11283 255.81323 299.96875 255.625 z M 300.65625 343.71875 C 307.806 343.67866 304.56252 345.05863 298.96875 343.75 C 299.57062 343.73202 300.15797 343.72154 300.65625 343.71875 z M 285.03125 345.25 C 287.26868 367.77106 286.92269 390.48183 286.625 413.09375 C 286.34647 425.17645 285.89948 437.27124 285.375 449.34375 C 269.80474 449.43385 254.25715 449.54123 238.6875 449.71875 C 210.4268 449.96675 182.16725 450.39625 153.90625 450.53125 C 135.14245 451.00425 137.3612 539.44175 156.125 538.96875 C 183.8484 537.65975 211.59485 537.40475 239.34375 537.21875 C 253.05712 537.10512 266.78831 537.17456 280.5 537.34375 C 280.25653 541.41672 280.01875 545.48944 279.78125 549.5625 C 278.62035 569.96928 277.47217 590.3678 276.4375 610.78125 C 256.74331 613.17989 237.09422 615.94375 217.375 618.21875 C 191.31484 621.27 165.25782 624.45747 139.125 626.84375 C 138.41011 621.34974 137.72085 615.85588 137.125 610.34375 C 131.4235 559.08575 127.0805 507.684 125.25 456.125 C 123.83513 426.77648 122.4523 397.43008 120.8125 368.09375 C 127.24746 376.43083 133.74727 381.32704 138.59375 379.0625 C 162.34455 368.9625 187.8324 363.80725 212.9375 358.28125 C 236.85887 353.39743 260.83604 348.55533 285.03125 345.25 z M 721.84375 758.21875 C 726.01796 758.1982 730.20053 758.2013 734.375 758.21875 C 716.80713 772.83662 698.69885 786.79659 680.40625 800.5 C 664.19847 787.92878 648.22404 775.06204 632.4375 761.96875 C 641.79308 761.3192 651.14023 760.69548 660.5 760.125 C 680.92806 758.89375 701.38907 758.31943 721.84375 758.21875 z "
     id="path9729" />
</svg>
