<?xml version="1.0" encoding="utf-8" ?>

<!DOCTYPE svg PUBLIC "-//W3C//DTD SVG 1.1//EN" 
  "http://www.w3.org/Graphics/SVG/1.1/DTD/svg11.dtd">
<svg 
    xmlns="http://www.w3.org/2000/svg"
    xmlns:xlink="http://www.w3.org/1999/xlink"
    xmlns:sodipodi="http://sodipodi.sourceforge.net/DTD/sodipodi-0.dtd"
    xmlns:inkscape="http://www.inkscape.org/namespaces/inkscape"
    width="1024" height="1024" id="U665A">
<path d="m 10408.018,50567.931 c -7.61,44.732 -9.841,90.169 -11.909,135.427 -2.517,56.347 -0.528,112.73 7.292,168.579 2.605,9.924 2.579,21.693 8.542,30.494 7.293,17.199 -73.784,51.579 -81.077,34.38 l 0,0 c -6.524,-17.452 -11.619,-35.021 -13.478,-53.698 -7.372,-60.839 -9.442,-122.1 -6.976,-183.352 1.881,-48.943 4.131,-97.948 10.491,-146.554 3.124,-18.48 90.238,-3.756 87.115,14.724 z" id="path12656" inkscape:connector-curvature="0" style="fill:#501616;fill-opacity:1;fill-rule:nonzero;stroke:#f9f9f9;stroke-width:0.1;stroke-miterlimit:4;stroke-dasharray:none" transform="translate(-10240, -50176)"/><path d="m 10379.057,50554.025 c 29.026,-7.946 58.885,-12.076 88.806,-14.707 27.803,-2.768 54.45,-1.002 80.227,9.925 28.34,15.896 37.136,43.466 41.743,73.591 4.687,37.656 2.036,75.64 -0.578,113.336 -3.676,47.914 -8.307,95.749 -12.766,143.596 -2.549,26.833 -5.157,53.665 -8.388,80.426 -2.464,18.499 -89.671,6.884 -87.207,-11.615 l 0,0 c 3.776,-25.627 6.543,-51.387 9.187,-77.152 4.687,-46.927 9.304,-93.871 12.568,-140.923 1.924,-31.422 4.112,-63.109 0.166,-94.473 -2.518,-16.866 -4.409,-11.65 6.527,-7.307 5.348,-0.376 -21.224,-2.584 -22.512,-2.564 -3.886,0.06 -7.767,0.311 -11.65,0.466 -23.311,1.832 -46.679,4.859 -69.109,11.718 -17.886,5.73 -44.9,-78.586 -27.014,-84.317 z" id="path12658" inkscape:connector-curvature="0" style="fill:#501616;fill-opacity:1;fill-rule:nonzero;stroke:#f9f9f9;stroke-width:0.1;stroke-miterlimit:4;stroke-dasharray:none" transform="translate(-10240, -50176)"/><path d="m 10385.275,50726.514 c 30.193,-3.079 60.521,-3.529 90.84,-3.298 15.66,0.155 31.32,0.298 46.979,0.471 18.583,0.292 17.204,87.895 -1.379,87.602 l 0,0 c -15.411,-0.317 -30.822,-0.588 -46.236,-0.704 -26.798,-0.185 -53.68,0.05 -80.263,3.868 -18.655,2.109 -28.595,-85.83 -9.941,-87.939 z" id="path12660" inkscape:connector-curvature="0" style="fill:#501616;fill-opacity:1;fill-rule:nonzero;stroke:#f9f9f9;stroke-width:0.1;stroke-miterlimit:4;stroke-dasharray:none" transform="translate(-10240, -50176)"/><path d="m 10381.852,50877.346 c 34.645,2.474 69.477,0.03 104.082,-2.128 22.442,-1.636 44.844,-3.759 67.245,-5.868 18.535,-1.566 25.917,85.809 7.382,87.375 l 0,0 c -23.1,1.73 -46.188,3.611 -69.297,5.224 -39.814,2.411 -79.775,5.084 -119.664,3.182 -18.622,-2.175 -8.37,-89.96 10.252,-87.785 z" id="path12662" inkscape:connector-curvature="0" style="fill:#501616;fill-opacity:1;fill-rule:nonzero;stroke:#f9f9f9;stroke-width:0.1;stroke-miterlimit:4;stroke-dasharray:none" transform="translate(-10240, -50176)"/><path d="m 10807.728,50446.233 c -11.348,37.025 -20.184,74.742 -28.085,112.631 -3.042,18.215 -8.079,36.639 -6.181,55.226 0.539,18.636 -87.31,21.175 -87.848,2.54 l 0,0 c -0,-25.566 3.305,-50.675 9.087,-75.619 8.41,-39.717 17.791,-79.201 27.969,-118.502 5.033,-18.043 90.091,5.68 85.058,23.724 z" id="path12664" inkscape:connector-curvature="0" style="fill:#501616;fill-opacity:1;fill-rule:nonzero;stroke:#f9f9f9;stroke-width:0.1;stroke-miterlimit:4;stroke-dasharray:none" transform="translate(-10240, -50176)"/><path d="m 10773.665,50461.377 c 31.336,-11.166 63.895,-18.225 96.484,-24.578 34.935,-7.239 70.183,-9.592 105.466,-4.276 47.051,12.701 63.067,35.495 66.087,83.387 -1.666,36.793 -14.416,71.529 -28.011,105.34 -9.028,21.208 -18.848,42.066 -30.767,61.804 -9.909,15.865 -84.701,-30.842 -74.793,-46.708 l 0,0 c 9.948,-14.969 17.058,-31.602 24.524,-47.891 9.24,-22.657 18.175,-45.768 21.108,-70.238 0.213,-0.893 -0.203,-2.311 0.638,-2.68 0.231,-0.101 3.705,3.684 6.009,5.105 1,0.617 4.397,0.97 3.519,0.19 -0.877,-0.778 -2.068,-1.105 -3.102,-1.658 -24.502,-5.298 -49.622,-0.924 -73.979,3.271 -27.165,5.298 -54.47,10.969 -80.332,21.061 -17.422,6.969 -50.274,-75.16 -32.851,-82.129 z" id="path12666" inkscape:connector-curvature="0" style="fill:#501616;fill-opacity:1;fill-rule:nonzero;stroke:#f9f9f9;stroke-width:0.1;stroke-miterlimit:4;stroke-dasharray:none" transform="translate(-10240, -50176)"/><path d="m 10724.086,50702.224 c 2.319,29.892 7.41,59.426 13.917,88.66 5.948,23.683 13.73,47.183 26.229,68.271 0.46,0.336 0.92,0.671 1.38,1.007 11.158,15.056 -59.816,67.659 -70.975,52.603 l 0,0 c -2.466,-3.612 -4.932,-7.225 -7.399,-10.838 -15.55,-29.053 -26.972,-60.042 -34.339,-92.189 -7.178,-32.531 -12.852,-65.324 -16.837,-98.408 -1.932,-18.673 86.093,-27.779 88.024,-9.106 z" id="path12668" inkscape:connector-curvature="0" style="fill:#501616;fill-opacity:1;fill-rule:nonzero;stroke:#f9f9f9;stroke-width:0.1;stroke-miterlimit:4;stroke-dasharray:none" transform="translate(-10240, -50176)"/><path d="m 10686.084,50696.974 c 34.886,-27.431 77.166,-41.169 119.408,-52.542 47.038,-11.562 95.293,-16.185 143.59,-17.677 34.646,-0.876 68.974,2.864 101.73,14.263 36.43,16.323 49.735,37.999 53.619,77.102 -0.284,31.435 -12.096,60.453 -24.82,88.628 -9.704,21.008 -21.013,41.202 -32.772,61.112 -9.648,16.052 -85.317,-29.431 -75.669,-45.483 l 0,0 c 10.308,-16.815 20.217,-33.896 28.509,-51.815 7.002,-15.419 14.088,-31.025 16.709,-47.903 1.419,0.87 10.428,6.365 3.706,0.908 -21.438,-9.383 -45.757,-9.224 -68.703,-9.876 -41.51,0.89 -82.994,4.743 -123.442,14.533 -29.247,7.795 -59.402,16.342 -83.666,35.263 -14.11,12.346 -72.308,-54.167 -58.199,-66.513 z" id="path12670" inkscape:connector-curvature="0" style="fill:#501616;fill-opacity:1;fill-rule:nonzero;stroke:#f9f9f9;stroke-width:0.1;stroke-miterlimit:4;stroke-dasharray:none" transform="translate(-10240, -50176)"/><path d="m 10724.645,50864.908 c 40.43,-1.261 80.577,-6.83 120.675,-11.805 50.12,-6.221 100.211,-12.689 150.383,-18.49 24.818,-2.788 49.748,-4.836 74.732,-4.321 18.699,0.705 15.377,88.853 -3.322,88.148 l 0,0 c -20.63,-1.399 -41.34,0.832 -61.884,2.527 -49.767,5.218 -99.419,11.455 -149.05,17.826 -42.754,5.53 -85.505,11.387 -128.531,14.398 -18.728,0.637 -21.731,-87.646 -3.003,-88.283 z" id="path12680" inkscape:connector-curvature="0" style="fill:#501616;fill-opacity:1;fill-rule:nonzero;stroke:#f9f9f9;stroke-width:0.1;stroke-miterlimit:4;stroke-dasharray:none" transform="translate(-10240, -50176)"/><path d="m 10935.632,50725.938 c -15.023,34.415 -26.381,70.3 -38.455,105.819 -17.902,54.86 -39.964,108.132 -64.681,160.231 -19.172,39.797 -41.717,77.813 -65.941,114.708 -6.287,10.33 -13.77,19.713 -21.645,28.84 -12.62,13.856 -77.94,-45.632 -65.321,-59.488 l 0,0 c 5.672,-5.239 9.822,-11.776 14.232,-18.069 22.574,-32.963 43.286,-67.193 60.791,-103.145 23.44,-48.845 44.19,-98.887 60.612,-150.567 12.612,-38.109 24.697,-76.438 39.424,-113.802 7.525,-17.179 88.509,18.293 80.984,35.473 z" id="path12682" inkscape:connector-curvature="0" style="fill:#501616;fill-opacity:1;fill-rule:nonzero;stroke:#f9f9f9;stroke-width:0.1;stroke-miterlimit:4;stroke-dasharray:none" transform="translate(-10240, -50176)"/><path d="m 10903.136,50935.413 c 1.095,28.219 1.878,56.447 3.616,84.635 2.806,15.611 0.396,41.088 15.901,51.044 16.223,3.391 32.761,2.733 49.202,1.883 32.304,-2.248 64.306,-7.445 96.042,-13.735 20.369,-4.124 40.229,-10.309 59.744,-17.386 1.368,-0.58 2.736,-1.16 4.104,-1.741 17.459,-6.882 49.902,75.419 32.443,82.302 l 0,0 c -2.475,0.934 -4.949,1.868 -7.424,2.803 -23.65,8.007 -47.644,15.078 -72.174,19.87 -35.869,6.855 -72.006,12.583 -108.467,15.122 -42.545,1.997 -84.83,0.491 -118.198,-29.726 -4.485,-5.332 -9.491,-10.266 -13.455,-15.996 -18.019,-26.042 -22.284,-58.32 -24.933,-89.031 -1.753,-28.115 -2.528,-56.286 -4.752,-84.37 -1.204,-18.742 87.147,-24.416 88.351,-5.674 z" id="path12684" inkscape:connector-curvature="0" style="fill:#501616;fill-opacity:1;fill-rule:nonzero;stroke:#f9f9f9;stroke-width:0.1;stroke-miterlimit:4;stroke-dasharray:none" transform="translate(-10240, -50176)"/></svg>