<?xml version="1.0" encoding="UTF-8" standalone="no"?>
<svg
   xmlns:dc="http://purl.org/dc/elements/1.1/"
   xmlns:cc="http://creativecommons.org/ns#"
   xmlns:rdf="http://www.w3.org/1999/02/22-rdf-syntax-ns#"
   xmlns:svg="http://www.w3.org/2000/svg"
   xmlns="http://www.w3.org/2000/svg"
   xmlns:sodipodi="http://sodipodi.sourceforge.net/DTD/sodipodi-0.dtd"
   xmlns:inkscape="http://www.inkscape.org/namespaces/inkscape"
   width="1024"
   height="1024"
   id="U6668"
   version="1.1"
   inkscape:version="0.48.0 r9654"
   sodipodi:docname="U+6668.svg">
  <metadata
     id="metadata18">
    <rdf:RDF>
      <cc:Work
         rdf:about="">
        <dc:format>image/svg+xml</dc:format>
        <dc:type
           rdf:resource="http://purl.org/dc/dcmitype/StillImage" />
      </cc:Work>
    </rdf:RDF>
  </metadata>
  <defs
     id="defs16" />
  <sodipodi:namedview
     pagecolor="#ffffff"
     bordercolor="#666666"
     borderopacity="1"
     objecttolerance="10"
     gridtolerance="10"
     guidetolerance="10"
     inkscape:pageopacity="0"
     inkscape:pageshadow="2"
     inkscape:window-width="640"
     inkscape:window-height="480"
     id="namedview14"
     showgrid="false"
     inkscape:zoom="0.27441406"
     inkscape:cx="512"
     inkscape:cy="512"
     inkscape:window-x="0"
     inkscape:window-y="25"
     inkscape:window-maximized="0"
     inkscape:current-layer="U6668" />
  <path
     style="fill:#800000;fill-opacity:1;fill-rule:nonzero;stroke:#f9f9f9;stroke-width:0.1;stroke-miterlimit:4;stroke-dasharray:none"
     d="M 579.78125 63.5 C 570.93329 63.653503 562.07308 64.547741 553.4375 65.75 C 509.7621 73.1506 466.75525 84.0183 424.40625 97 C 389.05951 108.49538 352.9006 120.39657 322.96875 142.96875 C 322.89475 142.25089 322.8218 141.53062 322.75 140.8125 C 320.7646 122.3335 233.67095 131.67725 235.65625 150.15625 C 240.98005 187.67375 247.66585 224.99285 254.03125 262.34375 C 260.52855 302.84305 267.4576 343.27275 275.3125 383.53125 C 276.1725 387.59655 277.015 391.65335 277.875 395.71875 C 279.04815 400.9104 286.96152 403.00768 297.5 402.9375 C 300.32862 428.29626 311.3686 459.14736 322.4375 456.8125 C 360.235 447.6226 398.6188 441.4181 437.125 436.125 C 467.3802 431.9248 497.84135 430.0082 528.34375 429 C 546.57735 428.2984 543.26485 342.3609 525.03125 343.0625 C 491.79365 344.5026 458.6128 346.7628 425.625 351.25 C 403.44198 354.2179 381.31512 357.51742 359.25 361.1875 C 351.29999 323.70135 344.6102 285.98693 338.6875 248.125 C 334.87396 225.14255 330.86674 202.15955 327.53125 179.09375 C 343.41834 199.02699 369.00784 219.18098 377.125 211.34375 C 398.9259 195.12145 425.66285 187.1368 451.15625 178.75 C 489.22655 167.0268 527.89085 157.112 567.28125 151.0625 C 574.74475 151.3204 585.94435 147.40385 593.28125 151.65625 C 595.31595 152.83545 587.10375 151.5 587.09375 151.5 C 590.78455 174.2317 591.54755 198.3767 592.03125 221.625 C 592.13155 262.8469 590.51765 304.05455 588.46875 345.21875 C 587.46655 363.22675 588.12585 354.9406 586.65625 370.0625 C 585.18235 388.4661 671.93235 395.43485 673.40625 377.03125 C 674.62045 358.85265 674.13065 368.20465 674.84375 348.90625 C 676.38255 305.98535 677.94635 263.04605 678.09375 220.09375 C 677.47855 179.06685 678.0132 136.16225 657.125 99.46875 C 652.3326 93.97715 648.2518 87.7806 642.75 83 C 624.84917 67.445747 602.39271 63.107715 579.78125 63.5 z M 532.28125 226.90625 C 512.42365 227.56005 492.5644 228.45025 472.75 229.96875 C 434.5999 232.76485 396.4538 235.7067 358.5 240.5625 C 340.1961 243.6345 354.66475 329.91575 372.96875 326.84375 C 408.06285 320.99035 443.6095 318.39765 479.0625 315.78125 C 497.5409 314.37615 516.07145 313.6742 534.59375 313.3125 C 552.92835 312.8241 550.61585 226.41795 532.28125 226.90625 z M 671.0625 442.71875 C 622.8751 445.60745 574.80465 450.10505 527.03125 457.15625 C 455.04175 467.95115 383.1596 480.0845 312.5625 498.0625 C 270.7913 509.279 228.775 520.7048 189.125 538.25 C 177.76624 544.08859 193.1335 582.69346 209.21875 603.53125 C 205.84586 623.73308 202.42331 643.94116 198.9375 664.125 C 188.6198 721.2283 180.0046 778.6052 171.9375 836.0625 C 167.9339 869.1052 162.47185 902.0163 159.59375 935.1875 C 159.60275 938.9176 159.615 942.6449 159.625 946.375 C 160.3036 964.9398 247.83485 961.7523 247.15625 943.1875 C 247.00765 942.5951 246.836 941.99865 246.6875 941.40625 C 248.2143 910.01785 253.4757 878.854 256.6875 847.625 C 264.1652 791.2388 272.50865 734.98115 283.15625 679.09375 C 288.55116 649.573 293.7978 620.00093 299.46875 590.53125 C 311.32478 587.00611 323.22123 583.63707 335.09375 580.3125 C 402.23885 562.5054 470.7759 550.8511 539.4375 540.75 C 584.493 534.2728 629.87635 530.45965 675.34375 528.71875 C 693.59225 527.81435 689.3111 441.81425 671.0625 442.71875 z M 548.90625 570.5625 C 548.62584 570.55061 548.34741 570.56338 548.0625 570.59375 C 501.039 576.11795 455.1378 587.88935 410.8125 604.59375 C 375.5489 618.80285 340.3443 634.40205 311.0625 659.21875 C 299.81467 669.50635 337.53422 714.80772 359.0625 723.90625 C 343.85966 726.89083 328.60514 729.5021 313.21875 731.25 C 294.65035 732.2359 299.3065 819.76715 317.875 818.78125 C 325.04057 817.83084 332.16051 816.74578 339.28125 815.53125 C 337.54773 821.36687 335.92665 827.23284 334.375 833.125 C 325.3766 873.8601 325.9287 902.7324 345.125 940.1875 C 373.528 978.0643 407.81265 980.49325 450.71875 970.53125 C 477.63695 962.74625 503.38515 951.52695 529.15625 940.65625 C 540.68867 935.80521 528.76986 897.21503 514.65625 875.375 C 534.72381 886.68329 555.62321 896.6279 576.4375 906.375 C 628.313 929.4855 681.18355 950.25685 733.46875 972.40625 C 750.23915 979.43245 783.36415 900.36995 766.59375 893.34375 C 720.33013 874.17037 673.66388 855.95102 627.78125 835.875 C 653.0401 820.40176 678.04493 804.51629 703.375 789.15625 C 719.1228 779.29545 672.6229 705.04545 656.875 714.90625 C 628.1089 734.00905 599.03445 752.6199 569.53125 770.5625 C 559.07926 776.88546 548.40704 782.81219 537.65625 788.59375 C 534.02533 786.0469 530.44142 783.42079 526.96875 780.65625 C 530.16925 780.32481 533.35609 780.00416 536.5625 779.71875 C 554.8324 777.89345 546.23865 691.76845 527.96875 693.59375 C 491.89355 697.52655 456.12655 703.5595 420.59375 710.9375 C 405.01263 714.15236 389.44401 717.63698 373.84375 720.90625 C 394.26945 704.39878 418.88215 694.10687 443.03125 684.3125 C 479.89525 670.5592 517.98735 660.1615 557.21875 656.5625 C 575.16814 654.64897 566.5722 571.31166 548.90625 570.5625 z M 472.21875 788.375 C 456.35454 803.68829 443.63486 822.51105 450.15625 829.21875 C 463.30004 841.63307 477.59589 852.41408 492.625 862.125 C 472.04657 870.77708 451.48306 879.58422 430.09375 886.0625 C 413.45655 890.5893 419.7494 886.04445 420.6875 896.71875 C 409.1559 889.81975 417.69685 864.45205 418.21875 854.78125 C 423.44578 834.03994 430.10096 813.6231 439.75 794.53125 C 450.54824 792.31262 461.36394 790.26433 472.21875 788.375 z "
     id="path20885" />
</svg>
