<?xml version="1.0" encoding="utf-8" ?>

<!DOCTYPE svg PUBLIC "-//W3C//DTD SVG 1.1//EN" 
  "http://www.w3.org/Graphics/SVG/1.1/DTD/svg11.dtd">
<svg 
    xmlns="http://www.w3.org/2000/svg"
    xmlns:xlink="http://www.w3.org/1999/xlink"
    xmlns:sodipodi="http://sodipodi.sourceforge.net/DTD/sodipodi-0.dtd"
    xmlns:inkscape="http://www.inkscape.org/namespaces/inkscape"
    width="1024" height="1024" id="U662F">
<path d="m 9551.0486,44236.555 c 1.9641,31.392 5.3707,62.637 11.8013,93.435 4.0702,18.238 11.4173,35.19 22.1055,50.451 10.2265,15.593 -63.2827,63.801 -73.5092,48.208 l 0,0 c -15.8954,-25.088 -28.1207,-51.928 -34.0866,-81.221 -6.7339,-33.645 -10.7513,-67.634 -14.2328,-101.755 -1.9342,-18.652 85.9876,-27.769 87.9218,-9.118 z" id="path12475" inkscape:connector-curvature="0" style="fill:#a02c2c;fill-opacity:1;fill-rule:nonzero;stroke:#f9f9f9;stroke-width:0.1;stroke-miterlimit:4;stroke-dasharray:none" transform="translate(-9216, -44032)"/><path d="m 9534.8491,44213.787 c 36.223,-17.855 75.4962,-27.017 114.9999,-34.061 45.7498,-7.709 91.7517,-8.112 137.1328,1.37 43.6576,12.23 67.4965,37.355 85.2123,77.817 11.8348,33.398 12.1435,68.943 11.4912,103.927 -0.6461,30.42 -6.1868,60.243 -15.6454,89.081 -6.111,15.09 -2.6875,7.659 -10.2966,22.281 -9.06,16.394 -86.3446,-26.315 -77.2845,-42.71 l 0,0 c 2.9007,-4.2 1.3473,-1.629 4.2356,-7.956 7.2731,-20.071 10.8173,-41.142 11.4751,-62.483 0.5172,-22.894 0.9446,-46.269 -5.0881,-68.559 -4.4907,-12.788 -9.3065,-21.842 -23.257,-26.139 -33.7337,-8.507 -68.6022,-6.29 -102.772,-1.171 -30.6847,5.443 -61.5248,12.133 -89.2417,26.995 -16.6295,8.69 -57.591,-69.702 -40.9616,-78.392 z" id="path12477" inkscape:connector-curvature="0" style="fill:#a02c2c;fill-opacity:1;fill-rule:nonzero;stroke:#f9f9f9;stroke-width:0.1;stroke-miterlimit:4;stroke-dasharray:none" transform="translate(-9216, -44032)"/><path d="m 9561.2169,44320.823 c 36.723,-6.944 74.0024,-9.727 111.2584,-11.83 30.5904,-1.473 61.2046,-2.313 91.7845,-0.428 18.5727,1.401 11.969,88.954 -6.6037,87.553 l 0,0 c -26.6811,-2.538 -53.5029,-1.397 -80.2424,-0.342 -32.6379,1.875 -65.4304,4.103 -97.3806,11.462 -18.3314,3.991 -37.1476,-82.424 -18.8162,-86.415 z" id="path12479" inkscape:connector-curvature="0" style="fill:#a02c2c;fill-opacity:1;fill-rule:nonzero;stroke:#f9f9f9;stroke-width:0.1;stroke-miterlimit:4;stroke-dasharray:none" transform="translate(-9216, -44032)"/><path d="m 9518.3744,44449.581 c 35.037,-3.189 70.1204,-5.797 105.219,-8.197 47.8071,-3.334 95.6592,-5.929 143.5404,-7.906 23.4166,-0.818 12.1967,-0.446 33.6594,-1.125 18.5649,-0.409 20.4933,87.107 1.9284,87.516 l 0,0 c -20.7434,0.252 -9.9215,0.08 -32.4654,0.533 -46.85,1.423 -93.6638,3.814 -140.3986,7.434 -34.0429,2.609 -68.1134,5.249 -101.9689,9.752 -18.6692,2.019 -28.1835,-85.989 -9.5143,-88.007 z" id="path12483" inkscape:connector-curvature="0" style="fill:#a02c2c;fill-opacity:1;fill-rule:nonzero;stroke:#f9f9f9;stroke-width:0.1;stroke-miterlimit:4;stroke-dasharray:none" transform="translate(-9216, -44032)"/><path d="m 9373.0072,44590.37 c 38.895,7.844 78.8618,4.732 118.1213,2.115 75.8638,-6.533 151.2618,-17.47 226.7072,-27.588 69.7091,-9.758 139.7555,-16.58 209.9423,-21.696 39.4774,-3.043 79.058,-3.445 118.616,-2.389 12.52,0.433 6.612,0.185 17.725,0.715 18.709,1.225 12.938,89.416 -5.771,88.192 l 0,0 c -9.222,-0.81 -4.121,-0.418 -15.307,-1.098 -36.449,-1.848 -72.9584,-2.006 -109.3955,0.459 -68.3911,4.349 -136.6465,10.567 -204.5422,20.005 -77.1798,10.308 -154.2726,21.577 -231.7972,29.027 -47.2975,3.649 -95.1085,7.008 -142.17,-1.136 -18.3719,-3.791 -0.5008,-90.397 17.8711,-86.606 z" id="path12485" inkscape:connector-curvature="0" style="fill:#a02c2c;fill-opacity:1;fill-rule:nonzero;stroke:#f9f9f9;stroke-width:0.1;stroke-miterlimit:4;stroke-dasharray:none" transform="translate(-9216, -44032)"/><path d="m 9718.7076,44617.042 c -0.521,29.671 2.321,59.26 5.3314,88.74 3.2581,29.224 6.3245,58.488 10.6384,87.58 1.2739,-9.637 0.7352,13.482 2.1425,10.278 0.5164,-1.176 -0.483,-2.522 -0.7245,-3.784 6.7181,17.596 -76.2279,49.265 -82.946,31.67 l 0,0 c -2.6541,-8.654 -4.9673,-17.215 -5.6984,-26.293 -3.7808,-30.133 -6.7634,-60.363 -10.1362,-90.543 -3.3256,-32.203 -6.2702,-64.464 -7.1324,-96.844 -0.1708,-18.779 88.3545,-19.583 88.5252,-0.804 z" id="path12487" inkscape:connector-curvature="0" style="fill:#a02c2c;fill-opacity:1;fill-rule:nonzero;stroke:#f9f9f9;stroke-width:0.1;stroke-miterlimit:4;stroke-dasharray:none" transform="translate(-9216, -44032)"/><path d="m 9727.4366,44685.59 c 31.9559,1.053 63.8535,-3.036 95.6057,-6.142 35.1993,-3.353 70.417,-6.583 105.7197,-8.63 11.6431,-0.527 6.3512,-0.302 15.8751,-0.69 18.7736,-0.289 20.1364,88.211 1.3629,88.5 l 0,0 c -7.8536,-0.123 -3.4512,-0.1 -13.2073,-0 -33.7915,1.089 -67.4834,4.063 -101.1277,7.301 -35.8642,3.645 -71.7757,8.165 -107.8811,8.064 -18.7514,-0.775 -15.0987,-89.17 3.6527,-88.395 z" id="path12489" inkscape:connector-curvature="0" style="fill:#a02c2c;fill-opacity:1;fill-rule:nonzero;stroke:#f9f9f9;stroke-width:0.1;stroke-miterlimit:4;stroke-dasharray:none" transform="translate(-9216, -44032)"/><path d="m 9578.3928,44695.418 c -5.4682,40.381 -19.676,78.609 -35.3968,115.944 -16.7399,37.891 -37.221,73.957 -60.6995,108.044 -10.2477,15.453 -23.2278,27.756 -38.1802,38.45 -15.7405,10.198 -63.8143,-64.004 -48.0738,-74.202 l 0,0 c 4.4626,-2.321 11.0647,-9.299 14.5491,-14.579 20.5446,-28.588 38.1204,-59.195 52.427,-91.384 12.3318,-29.296 24.0235,-59.342 27.3962,-91.209 1.8954,-18.663 89.8734,-9.727 87.978,8.936 z" id="path12491" inkscape:connector-curvature="0" style="fill:#a02c2c;fill-opacity:1;fill-rule:nonzero;stroke:#f9f9f9;stroke-width:0.1;stroke-miterlimit:4;stroke-dasharray:none" transform="translate(-9216, -44032)"/><path d="m 9504.5026,44800.403 c 25.4052,13.854 54.3671,18.325 82.5445,22.935 66.1006,8.708 132.8696,10.324 199.4414,11.91 67.7697,1.495 135.5581,1.351 203.3201,-0.329 37.8914,-1.552 76.0144,-2.575 113.4944,-8.814 18.415,-2.753 31.392,84.059 12.977,86.812 l 0,0 c -41.312,5.657 -83.049,6.968 -124.6938,8.016 -69.0232,1.15 -138.0584,0.974 -207.0768,-0.537 -70.3958,-1.596 -140.9765,-3.094 -210.95,-11.59 -38.6799,-5.915 -77.6529,-12.851 -112.6341,-31.365 -16.3423,-9.244 27.235,-86.282 43.5773,-77.038 z" id="path12495" inkscape:connector-curvature="0" style="fill:#a02c2c;fill-opacity:1;fill-rule:nonzero;stroke:#f9f9f9;stroke-width:0.1;stroke-miterlimit:4;stroke-dasharray:none" transform="translate(-9216, -44032)"/></svg>