<?xml version="1.0" encoding="UTF-8" standalone="no"?>
<svg
   xmlns:dc="http://purl.org/dc/elements/1.1/"
   xmlns:cc="http://creativecommons.org/ns#"
   xmlns:rdf="http://www.w3.org/1999/02/22-rdf-syntax-ns#"
   xmlns:svg="http://www.w3.org/2000/svg"
   xmlns="http://www.w3.org/2000/svg"
   xmlns:sodipodi="http://sodipodi.sourceforge.net/DTD/sodipodi-0.dtd"
   xmlns:inkscape="http://www.inkscape.org/namespaces/inkscape"
   width="1024"
   height="1024"
   id="U660E"
   version="1.1"
   inkscape:version="0.48.0 r9654"
   sodipodi:docname="U+660E.svg">
  <metadata
     id="metadata15">
    <rdf:RDF>
      <cc:Work
         rdf:about="">
        <dc:format>image/svg+xml</dc:format>
        <dc:type
           rdf:resource="http://purl.org/dc/dcmitype/StillImage" />
      </cc:Work>
    </rdf:RDF>
  </metadata>
  <defs
     id="defs13" />
  <sodipodi:namedview
     pagecolor="#ffffff"
     bordercolor="#666666"
     borderopacity="1"
     objecttolerance="10"
     gridtolerance="10"
     guidetolerance="10"
     inkscape:pageopacity="0"
     inkscape:pageshadow="2"
     inkscape:window-width="640"
     inkscape:window-height="480"
     id="namedview11"
     showgrid="false"
     inkscape:zoom="0.27441406"
     inkscape:cx="512"
     inkscape:cy="512"
     inkscape:window-x="0"
     inkscape:window-y="25"
     inkscape:window-maximized="0"
     inkscape:current-layer="U660E" />
  <path
     style="fill:#c83737;fill-opacity:1;fill-rule:nonzero;stroke:#f9f9f9;stroke-width:0.1;stroke-miterlimit:4;stroke-dasharray:none"
     d="M 793.03125 178.125 C 791.2232 178.14268 789.36575 178.17175 787.4375 178.21875 C 756.3947 179.04275 725.32195 179.14475 694.28125 180.09375 C 659.94985 180.78775 625.61635 181.281 591.28125 181.75 C 588.79022 181.84158 586.69806 183.476 584.96875 186.25 C 563.19063 181.81159 540.36424 182.00641 538.5 191.25 C 532.1803 231.438 526.78695 271.76825 520.96875 312.03125 C 510.18475 386.69125 498.3995 461.18975 486.75 535.71875 C 474.4636 612.20675 463.8971 688.96275 456.625 766.09375 C 452.8634 809.56475 451.3854 853.38925 456.625 896.78125 C 459.2387 915.26925 546.39495 902.95675 543.78125 884.46875 C 537.42365 847.96275 539.92 810.515 542.0625 773.75 C 548.4364 698.44 558.46695 623.51125 570.53125 548.90625 C 571.80878 540.85182 573.09159 532.80349 574.375 524.75 C 605.67963 520.03014 637.00236 515.44755 668.40625 511.4375 C 701.15255 506.9495 734.1024 505.17 767.125 505.75 C 775.2508 506.28446 783.43691 506.59383 791.59375 507.0625 C 790.32471 537.43948 788.71719 567.80081 787.09375 598.15625 C 786.16215 613.99446 785.21253 629.8517 784.25 645.6875 C 782.91677 645.63726 781.58519 645.59627 780.25 645.5625 C 744.925 644.2565 709.5786 643.78975 674.25 642.59375 C 643.0005 641.29075 611.542 640.19525 580.75 634.28125 C 562.3442 630.68225 545.37545 717.4645 563.78125 721.0625 C 599.15045 726.7135 634.98515 728.18375 670.71875 729.59375 C 705.98735 730.73575 741.28375 731.414 776.53125 733.125 C 777.30034 733.16742 778.16639 733.23195 779 733.28125 C 777.7877 754.3396 776.64215 775.40003 775.59375 796.46875 C 773.38635 841.61175 771.9747 886.81375 774.375 931.96875 C 775.1926 945.46475 776.82945 958.8625 779.71875 972.0625 C 784.30245 990.2985 870.2712 968.6725 865.6875 950.4375 C 862.2528 943.1415 863.73895 934.014 861.84375 926.375 C 858.61205 884.49 859.7436 842.47025 861.4375 800.53125 C 864.3774 734.57225 868.7072 668.7135 872.6875 602.8125 C 876.1746 538.9815 879.5899 475.1175 880.5 411.1875 C 880.7107 367.8425 880.25995 324.4875 878.09375 281.1875 C 876.50475 252.7855 875.92135 223.7575 857.15625 200.5625 C 834.4635 181.28094 820.15193 177.85974 793.03125 178.125 z M 788.875 266.15625 C 789.55597 272.97815 790.07785 279.82253 790.5625 286.6875 C 793.2015 328.1125 793.9918 369.59575 794.125 411.09375 C 794.10613 413.78467 794.06036 416.46555 794.03125 419.15625 C 785.38813 418.75418 776.73443 418.45044 768.09375 418.15625 C 731.09145 417.96125 694.16525 420.06 657.46875 425 C 634.60166 427.86738 611.76912 431.07197 588.90625 433.96875 C 594.72228 397.60833 600.51057 361.22637 606.1875 324.84375 C 609.09153 306.28435 611.88909 287.71863 614.8125 269.15625 C 641.87995 268.09665 668.98185 267.73643 696.0625 267.1875 C 726.99524 266.26306 757.93455 266.46998 788.875 266.15625 z M 802.125 266.84375 C 805.30292 267.49851 805.2049 268.11901 802.125 266.84375 z M 205.40625 290.3125 C 196.62539 290.15119 191.57284 309.40096 190.625 330 C 164.94807 324.14384 127.96969 325.08351 126.875 337.125 C 124.5608 378.699 122.5204 420.28525 121.3125 461.90625 C 119.9879 504.50225 121.24155 547.10925 126.46875 589.40625 C 129.62535 609.06825 133.37925 628.76025 139.78125 647.65625 C 141.58855 651.11825 143.41145 654.5995 145.21875 658.0625 C 149.50952 664.48327 164.42905 659.98999 179.84375 651.375 C 181.8268 665.34001 186.06641 676.0625 192.59375 676.0625 C 226.80385 675.0985 260.9592 672.778 295.125 670.875 C 326.4669 669.092 357.83995 668.51825 389.21875 669.40625 C 397.32375 669.67425 405.43665 670.11575 413.53125 670.59375 C 432.26905 671.44775 436.3002 583.13525 417.5625 582.28125 C 415.02184 582.19677 412.47835 582.10991 409.9375 582.03125 C 411.47641 563.67173 413.58127 545.35231 416.53125 527.15625 C 422.21845 493.08725 429.4236 459.33425 437.625 425.78125 C 444.148 397.28125 452.4867 368.242 443.875 339.25 C 440.9171 333.75 438.7483 327.745 435 322.75 C 420.6541 303.632 397.44055 296.9535 374.90625 294.1875 C 345.68665 291.1085 316.33175 290.62875 286.96875 291.46875 C 259.77555 291.62775 232.57185 291.7915 205.40625 290.3125 z M 306.9375 378.59375 C 323.79442 378.52184 340.63938 379.01557 357.40625 380.75 C 357.37649 381.11914 357.33238 381.95639 357.3125 382.0625 C 356.0584 388.7575 353.4707 400.508 352.125 406.75 C 349.53474 417.91731 347.02113 429.11277 344.59375 440.3125 C 329.87208 441.20854 315.15268 442.52852 300.46875 443.8125 C 271.54815 446.6235 242.64635 449.80725 213.59375 450.90625 C 211.48517 451.05169 209.71563 452.30754 208.21875 454.40625 C 209.05856 429.22421 210.21981 404.03835 212.03125 378.90625 C 237.21293 379.17163 262.37987 379.10728 287.5625 378.90625 C 294.01768 378.75425 300.47985 378.6213 306.9375 378.59375 z M 208.40625 526.6875 C 211.29429 534.47291 215.11774 539.50271 219.6875 539.1875 C 249.4893 536.8345 279.21925 533.66 308.96875 530.75 C 315.22755 530.34377 321.50155 529.83025 327.78125 529.3125 C 325.18893 546.96626 323.16586 564.67143 321.5 582.4375 C 311.1066 582.81368 300.72942 583.27977 290.34375 583.875 C 265.30572 585.23414 240.23074 586.93656 215.15625 587.5 C 214.52457 584.31064 213.87973 581.12974 213.25 577.96875 C 210.8323 560.94295 209.27989 543.8285 208.40625 526.6875 z "
     id="path11178" />
</svg>
