<?xml version="1.0" encoding="UTF-8" standalone="no"?>
<svg
   xmlns:dc="http://purl.org/dc/elements/1.1/"
   xmlns:cc="http://creativecommons.org/ns#"
   xmlns:rdf="http://www.w3.org/1999/02/22-rdf-syntax-ns#"
   xmlns:svg="http://www.w3.org/2000/svg"
   xmlns="http://www.w3.org/2000/svg"
   xmlns:sodipodi="http://sodipodi.sourceforge.net/DTD/sodipodi-0.dtd"
   xmlns:inkscape="http://www.inkscape.org/namespaces/inkscape"
   width="1024"
   height="1024"
   id="U66F4"
   version="1.1"
   inkscape:version="0.48.0 r9654"
   sodipodi:docname="U+66F4.svg">
  <metadata
     id="metadata14">
    <rdf:RDF>
      <cc:Work
         rdf:about="">
        <dc:format>image/svg+xml</dc:format>
        <dc:type
           rdf:resource="http://purl.org/dc/dcmitype/StillImage" />
      </cc:Work>
    </rdf:RDF>
  </metadata>
  <defs
     id="defs12" />
  <sodipodi:namedview
     pagecolor="#ffffff"
     bordercolor="#666666"
     borderopacity="1"
     objecttolerance="10"
     gridtolerance="10"
     guidetolerance="10"
     inkscape:pageopacity="0"
     inkscape:pageshadow="2"
     inkscape:window-width="640"
     inkscape:window-height="480"
     id="namedview10"
     showgrid="false"
     inkscape:zoom="0.27441406"
     inkscape:cx="512"
     inkscape:cy="512"
     inkscape:window-x="0"
     inkscape:window-y="25"
     inkscape:window-maximized="0"
     inkscape:current-layer="U66F4" />
  <path
     style="fill:#550000;fill-opacity:1;fill-rule:nonzero;stroke:#f9f9f9;stroke-width:0.1;stroke-miterlimit:4;stroke-dasharray:none"
     d="M 535 141.25 C 525.13664 141.15878 515.17919 141.62062 505.15625 142.34375 C 452.85905 145.49275 400.69035 150.7055 348.84375 158.3125 C 306.24245 164.6345 263.7635 171.6775 221.3125 178.9375 C 203.1093 182.6045 220.4218 268.418 238.625 264.75 C 279.3412 255.963 320.43115 249.1215 361.59375 242.8125 C 396.46382 237.5934 431.51548 233.66746 466.65625 230.96875 C 460.56547 236.71133 457.40244 242.20078 459.5 246.28125 C 465.72997 262.05435 467.50635 278.93065 467.5625 295.90625 C 427.57565 299.35558 387.65019 303.91594 348.34375 312.15625 C 314.72264 320.73392 281.58592 331.87008 257.21875 356.53125 C 234.11231 357.4547 209.92598 363.6792 210.5625 373.5 C 214.5703 409.099 221.4889 444.296 228.625 479.375 C 236.5347 517.432 246.7637 554.95925 263.125 590.28125 C 265.6898 594.53225 268.27895 598.78025 270.84375 603.03125 C 273.64261 607.33983 281.29772 606.77973 290.6875 603.40625 C 289.43231 623.83589 292.35044 643.42352 301.03125 644.1875 C 330.17808 645.00275 359.26988 643.2811 388.28125 640.625 C 376.53682 666.9581 363.54924 692.74018 349.71875 718.09375 C 343.87258 715.84232 338.04531 713.55568 332.21875 711.25 C 287.60535 693.591 243.30735 675.18825 199.15625 656.40625 C 181.70855 650.07425 151.83355 732.32325 169.28125 738.65625 C 213.45535 755.43525 257.2225 773.3015 301.3125 790.3125 C 302.53075 790.7835 303.74977 791.2498 304.96875 791.71875 C 294.53452 807.20476 283.51119 822.29945 271.625 836.71875 C 267.42225 840.9593 264.72151 843.32832 263.25 844.5 C 265.38746 843.23558 269.92934 841.11352 276.0625 840.5625 C 257.94571 846.38648 228.29138 912.6779 243.59375 919.90625 L 256.875 925.3125 C 262.8704 926.2365 268.8094 928.01375 274.875 928.09375 C 302.2386 928.44375 323.09155 910.77425 339.46875 890.90625 C 356.72062 868.78539 372.56693 845.62605 387.46875 821.875 C 430.57267 836.88584 473.98901 850.9844 517.53125 864.6875 C 577.98985 883.4265 639.04465 900.1375 699.40625 919.1875 C 725.01645 927.4225 750.18985 937.3035 773.21875 951.3125 C 773.51942 951.5975 773.63262 951.70819 773.84375 951.90625 C 790.92397 957.11674 845.89435 900.74871 833.40625 888.28125 C 822.46405 878.75725 828.021 882.93675 816.8125 875.59375 C 787.6364 859.40575 756.6375 846.96075 724.6875 837.34375 C 664.2218 819.04575 603.18495 802.73375 542.78125 784.21875 C 505.08186 772.42141 467.48834 760.27344 430.15625 747.375 C 450.26249 708.94301 468.62563 669.63619 484.09375 629.15625 C 521.57131 623.79117 558.97329 617.87279 596.46875 612.625 C 623.91875 608.296 651.6887 606.54025 679.1875 602.65625 C 697.5183 599.52325 682.7683 513.117 664.4375 516.25 C 661.44531 516.9507 658.43011 517.54136 655.40625 518.09375 C 657.0004 512.31567 658.35433 506.45275 659.4375 500.5 C 665.6666 468.074 671.2513 435.23575 670.4375 402.09375 C 666.3946 358.84475 653.59655 327.11625 612.71875 306.53125 C 593.17602 299.2886 573.26208 295.14394 553.0625 293.3125 C 553.07225 271.3593 551.27404 249.51111 545.375 228.4375 C 547.67681 228.59649 549.90029 228.7837 552 229.03125 C 553.17417 229.16969 554.24518 229.33757 555.21875 229.5 C 544.3617 223.26662 542.04363 212.93843 540.1875 201.125 C 547.94234 217.62586 623.19159 229.22023 626.09375 212.125 C 625.04415 181.759 625.55925 171.18825 598.40625 153.15625 C 577.93126 144.34525 556.69939 141.45068 535 141.25 z M 555.21875 229.5 C 556.3121 230.12773 557.47534 230.70757 558.75 231.25 C 559.56 231.3 561.0972 232.21325 561.1875 231.40625 C 561.24327 230.90592 559.03414 230.13656 555.21875 229.5 z M 773.84375 951.90625 C 773.55529 951.81825 773.26633 951.7174 773 951.59375 C 774.33968 952.5283 774.89213 952.88976 773.84375 951.90625 z M 773 951.59375 C 772.45113 951.21087 772.29769 951.09792 771.3125 950.4375 C 771.80329 950.92748 772.38023 951.30601 773 951.59375 z M 547.0625 378.9375 C 558.60157 379.85659 569.90658 382.14882 580.46875 387.21875 C 584.91265 392.35775 583.46875 402.26175 583.78125 408.96875 C 583.76407 410.78844 583.71504 412.58923 583.65625 414.40625 C 570.04494 411.28757 556.33075 409.79482 542.5625 409.34375 C 544.23509 399.24048 545.74651 389.10251 547.0625 378.9375 z M 460.84375 382.65625 C 459.30739 393.69495 457.51882 404.69594 455.53125 415.65625 C 422.22332 420.06897 389.06168 425.631 356.71875 434.96875 C 338.97635 440.43875 364.7576 524.094 382.5 518.625 C 399.64443 512.9032 417.22804 508.86996 434.96875 505.71875 C 431.62589 518.20776 428.13167 530.6817 424.53125 543.09375 C 423.73346 545.81452 422.92446 548.5109 422.09375 551.21875 C 396.40953 553.92823 370.62056 556.6046 344.78125 557.34375 C 344.62868 556.68628 344.40452 556.04333 344.03125 555.46875 L 341.46875 552.4375 C 326.91775 524.2695 319.969 493.0365 313 462.3125 C 310.04155 447.55283 307.11266 432.762 304.5625 417.90625 C 312.11997 420.0234 318.08233 419.91764 320.46875 416.21875 C 333.81725 403.92275 352.4584 400.0645 369.5 395.8125 C 399.64276 389.48808 430.19699 385.55128 460.84375 382.65625 z M 572.5625 491.34375 C 570.23113 500.81579 567.35848 510.17105 562.59375 518.71875 C 561.01467 521.9739 562.75825 526.0509 566.625 530.375 C 548.82826 533.0968 531.04787 535.87514 513.25 538.59375 C 517.22791 524.21564 521.01032 509.78972 524.59375 495.3125 C 539.02447 494.31111 553.11173 494.40999 560.90625 498.6875 C 564.70094 499.72595 568.74221 496.73153 572.5625 491.34375 z M 263.21875 844.53125 C 262.42451 845.00386 262.00461 845.35587 261.9375 845.4375 C 262.05958 845.37866 262.4864 845.11309 263.21875 844.53125 z "
     id="path23845" />
</svg>
