<?xml version="1.0" encoding="utf-8" ?>

<!DOCTYPE svg PUBLIC "-//W3C//DTD SVG 1.1//EN" 
  "http://www.w3.org/Graphics/SVG/1.1/DTD/svg11.dtd">
<svg 
    xmlns="http://www.w3.org/2000/svg"
    xmlns:xlink="http://www.w3.org/1999/xlink"
    xmlns:sodipodi="http://sodipodi.sourceforge.net/DTD/sodipodi-0.dtd"
    xmlns:inkscape="http://www.inkscape.org/namespaces/inkscape"
    width="1024" height="1024" id="U670D">
<path d="m 10501.459,12560.736 c -7.315,38.034 -7.926,77.02 -9.292,115.613 -0.989,70.839 -5.727,141.475 -12.557,211.965 -5.819,56.327 -12.277,112.586 -18.244,168.897 -2.301,21.139 -4.344,42.304 -6.372,63.471 -2.011,18.357 -88.548,8.874 -86.536,-9.483 l 0,0 c 2.617,-21.158 4.972,-42.346 7.499,-63.515 6.543,-55.873 13.393,-111.712 19.387,-167.647 6.83,-68.562 11.42,-137.288 11.69,-206.224 1.063,-43.587 1.638,-87.425 8.518,-130.577 3.712,-18.223 89.619,-0.724 85.907,17.5 z" id="path23087" inkscape:connector-curvature="0" style="fill:#550000;fill-opacity:1;fill-rule:nonzero;stroke:#f9f9f9;stroke-width:0.1;stroke-miterlimit:4;stroke-dasharray:none" transform="translate(-10240, -12288)"/><path d="m 10438.333,12580.356 c 25.719,-25.486 59.381,-37.472 93.589,-46.604 34.229,-8.29 69.334,-11.14 104.418,-8.978 29.699,3.048 56.847,16.275 70.618,44.149 2.915,5.901 4.311,12.438 6.467,18.656 7.015,44.54 -2.596,89.707 -8.101,133.964 -8.616,68.444 -11.768,137.366 -12.441,206.295 -0.144,65.607 4.184,131.101 10.564,196.362 3.814,36.815 9.391,73.413 15.876,109.843 0.38,2.002 0.76,4.005 1.141,6.007 2.827,18.373 -83.783,31.702 -86.61,13.329 l 0,0 c -0.222,-1.914 -0.445,-3.827 -0.667,-5.741 -5.309,-38.433 -11.09,-76.815 -14.623,-115.469 -6.152,-68.224 -10.329,-136.658 -10.099,-205.192 0.762,-71.966 3.876,-143.92 12.033,-215.47 3.725,-33.168 8.778,-66.373 9.103,-99.797 0.373,-0.12 8.851,3.111 8.548,2.514 -0.389,-0.767 -1.386,-1.072 -2.203,-1.338 -1.964,-0.64 -4.031,-0.901 -6.047,-1.352 -25.45,-2.427 -51.034,0.254 -75.925,5.922 -17.987,4.648 -36.902,9.569 -51.137,22.215 -12.582,13.683 -77.086,-45.631 -64.504,-59.315 z" id="path23089" inkscape:connector-curvature="0" style="fill:#550000;fill-opacity:1;fill-rule:nonzero;stroke:#f9f9f9;stroke-width:0.1;stroke-miterlimit:4;stroke-dasharray:none" transform="translate(-10240, -12288)"/><path d="m 10444.113,12765.585 c 31.405,-8.445 63.748,-12.351 96.018,-15.697 21.032,-2.284 42.087,-2.979 63.195,-1.903 18.441,1.275 12.428,88.208 -6.013,86.932 l 0,0 c -16.085,-1.673 -32.218,-0.394 -48.295,0.977 -26.663,2.744 -53.547,5.705 -79.291,13.522 -17.783,5.433 -43.398,-78.397 -25.614,-83.831 z" id="path23091" inkscape:connector-curvature="0" style="fill:#550000;fill-opacity:1;fill-rule:nonzero;stroke:#f9f9f9;stroke-width:0.1;stroke-miterlimit:4;stroke-dasharray:none" transform="translate(-10240, -12288)"/><path d="m 10467.904,12917.025 c 27.797,3.503 55.988,2.209 83.926,1.533 20.798,-0.512 41.589,-1.215 62.359,-2.403 18.396,-0.932 22.79,85.788 4.394,86.72 l 0,0 c -21.539,0.964 -43.091,1.518 -64.645,2.045 -33.458,0.823 -67.101,2.206 -100.443,-1.444 -18.339,-3.056 -3.93,-89.507 14.409,-86.451 z" id="path23093" inkscape:connector-curvature="0" style="fill:#550000;fill-opacity:1;fill-rule:nonzero;stroke:#f9f9f9;stroke-width:0.1;stroke-miterlimit:4;stroke-dasharray:none" transform="translate(-10240, -12288)"/><path d="m 10747.016,12538.154 c 31.526,-12.238 65.017,-17.225 98.399,-21.193 37.181,-3.88 74.576,-4.516 111.827,-1.602 30.832,2.497 58.109,12.133 82.034,31.589 29.548,32.22 21.469,70.209 7.747,107.367 -15.161,35.848 -33.158,70.432 -51.959,104.484 -7.454,14.219 -16.738,27.164 -26.509,39.828 -11.55,14.417 -79.51,-40.029 -67.96,-54.446 l 0,0 c 7.307,-8.477 13.588,-17.633 18.947,-27.494 16.932,-30.032 32.9,-60.686 46.191,-92.523 1.352,-3.62 2.768,-7.217 4.056,-10.861 0.565,-1.596 2.759,-9.165 3.269,-9.254 1.652,-0.286 4.35,8.414 7.345,7.564 9.037,0.136 -36.326,-13.66 -30.528,-9.805 -31.345,-2.961 -62.876,-2.306 -94.196,0.872 -25.381,3.065 -51.116,6.426 -74.891,16.371 -17.161,7.164 -50.933,-73.733 -33.772,-80.897 z" id="path23095" inkscape:connector-curvature="0" style="fill:#550000;fill-opacity:1;fill-rule:nonzero;stroke:#f9f9f9;stroke-width:0.1;stroke-miterlimit:4;stroke-dasharray:none" transform="translate(-10240, -12288)"/><path d="m 10832.397,12627.425 c -11.058,39.044 -16.928,79.341 -23.062,119.383 -10.549,71.263 -18.1,142.911 -24.234,214.673 -5.367,61.842 -5.904,123.887 -2.929,185.847 2.223,23.722 2.609,47.999 8.776,71.15 4.03,18.071 -81.154,37.069 -85.184,18.999 l 0,0 c -5.718,-28.535 -7.701,-57.585 -9.161,-86.617 -2.295,-65.573 -1.339,-131.195 4.455,-196.594 6.335,-73.48 13.926,-146.855 24.013,-219.924 6.339,-44.348 12.683,-88.814 23.514,-132.336 5.392,-17.779 89.204,7.639 83.812,25.419 z" id="path23097" inkscape:connector-curvature="0" style="fill:#550000;fill-opacity:1;fill-rule:nonzero;stroke:#f9f9f9;stroke-width:0.1;stroke-miterlimit:4;stroke-dasharray:none" transform="translate(-10240, -12288)"/><path d="m 10823.881,12872.558 c 37.872,-9.643 76.497,-15.775 115.189,-20.984 39.089,-5.034 78.476,-7.023 117.799,-4.294 37.678,3.531 69.335,24.904 68.741,66.756 -0.112,7.859 -3.567,15.31 -5.35,22.965 -20.386,45.186 -55.75,81.086 -90.121,115.924 -39.168,38.777 -82.607,72.777 -126.955,105.351 -17.006,12.66 -35.058,23.701 -53.299,34.445 -15.865,9.189 -59.185,-65.598 -43.32,-74.788 l 0,0 c 15.806,-8.965 31.382,-18.301 46.071,-29.047 40.819,-29.473 80.783,-60.324 116.531,-95.914 24.848,-25.366 49.788,-51.233 67.938,-82.011 2.17,4.746 2.862,10.242 5.843,14.526 7.889,11.337 25.725,13.104 6.957,8.372 -33.106,-3.181 -66.38,-1.037 -99.343,2.93 -34.262,4.63 -68.606,9.908 -101.827,19.735 -17.812,5.273 -42.666,-78.694 -24.854,-83.966 z" id="path23099" inkscape:connector-curvature="0" style="fill:#550000;fill-opacity:1;fill-rule:nonzero;stroke:#f9f9f9;stroke-width:0.1;stroke-miterlimit:4;stroke-dasharray:none" transform="translate(-10240, -12288)"/><path d="m 10840.237,12956.211 c 28.661,23.582 58.873,45.15 89.12,66.625 47.535,33.021 93.706,67.913 139.453,103.349 37.544,29.864 76.227,58.201 115.615,85.568 12.511,8.616 25.031,17.213 37.45,25.962 14.966,10.788 -35.891,81.338 -50.856,70.55 l 0,0 c -11.94,-8.827 -24.041,-17.423 -36.175,-25.98 -40.189,-28.571 -79.781,-57.948 -118.318,-88.725 -44.636,-34.702 -89.778,-68.758 -136.48,-100.656 -30.983,-21.617 -61.793,-43.471 -91.916,-66.278 -14.937,-11.054 37.17,-81.469 52.107,-70.415 z" id="path23101" inkscape:connector-curvature="0" style="fill:#550000;fill-opacity:1;fill-rule:nonzero;stroke:#f9f9f9;stroke-width:0.1;stroke-miterlimit:4;stroke-dasharray:none" transform="translate(-10240, -12288)"/></svg>