<?xml version="1.0" encoding="UTF-8" standalone="no"?>
<svg
   xmlns:dc="http://purl.org/dc/elements/1.1/"
   xmlns:cc="http://creativecommons.org/ns#"
   xmlns:rdf="http://www.w3.org/1999/02/22-rdf-syntax-ns#"
   xmlns:svg="http://www.w3.org/2000/svg"
   xmlns="http://www.w3.org/2000/svg"
   xmlns:sodipodi="http://sodipodi.sourceforge.net/DTD/sodipodi-0.dtd"
   xmlns:inkscape="http://www.inkscape.org/namespaces/inkscape"
   width="1024"
   height="1024"
   id="U677F"
   version="1.1"
   inkscape:version="0.48.0 r9654"
   sodipodi:docname="U+677F.svg">
  <metadata
     id="metadata15">
    <rdf:RDF>
      <cc:Work
         rdf:about="">
        <dc:format>image/svg+xml</dc:format>
        <dc:type
           rdf:resource="http://purl.org/dc/dcmitype/StillImage" />
      </cc:Work>
    </rdf:RDF>
  </metadata>
  <defs
     id="defs13" />
  <sodipodi:namedview
     pagecolor="#ffffff"
     bordercolor="#666666"
     borderopacity="1"
     objecttolerance="10"
     gridtolerance="10"
     guidetolerance="10"
     inkscape:pageopacity="0"
     inkscape:pageshadow="2"
     inkscape:window-width="640"
     inkscape:window-height="480"
     id="namedview11"
     showgrid="false"
     inkscape:zoom="0.27441406"
     inkscape:cx="512"
     inkscape:cy="512"
     inkscape:window-x="0"
     inkscape:window-y="25"
     inkscape:window-maximized="0"
     inkscape:current-layer="U677F" />
  <path
     style="fill:#aa0000;fill-opacity:1;fill-rule:nonzero;stroke:#f9f9f9;stroke-width:0.1;stroke-miterlimit:4;stroke-dasharray:none"
     d="M 249.5 146.65625 C 242.63283 146.70435 237.70591 148.34794 236.40625 152.15625 C 215.85653 227.93275 208.94144 306.24035 204.8125 384.4375 C 188.08704 387.58776 171.28839 390.39307 154.40625 392.65625 C 136.23385 395.34365 148.89 481.03115 167.0625 478.34375 C 178.55123 476.30192 190.02078 474.12022 201.46875 471.875 C 201.01134 491.79368 200.68455 511.70308 200.46875 531.625 C 188.6163 523.44902 177.50527 519.10895 173.09375 524 C 131.38035 573.9274 95.7964 628.4211 64.875 685.5625 C 51.406 712.7861 57.331 699.80705 46.8125 724.40625 C 39.977 741.46195 120.38335 773.6807 127.21875 756.625 C 134.02145 737.8902 129.82935 748.32915 140.34375 725.59375 C 157.91072 691.65384 177.63176 658.78756 200.1875 627.96875 C 200.35149 668.76453 200.81363 709.555 201.40625 750.34375 C 203.23875 804.36305 203.34525 858.71115 209.65625 912.46875 C 212.69555 930.76995 298.9768 916.45735 295.9375 898.15625 C 292.3564 884.81435 291.5905 869.76415 290.4375 856.15625 C 287.4125 820.45235 286.0046 784.65055 284.9375 748.84375 C 284.64907 735.7204 284.37522 722.59402 284.125 709.46875 C 299.23625 716.92718 313.8005 725.66704 328.125 734.71875 C 326.93045 746.49339 325.83963 758.29458 324.90625 770.09375 C 322.98845 796.51245 323.8515 826.08775 363.5625 833.46875 C 374.00553 835.40978 382.56668 834.15753 389.6875 830.8125 C 383.01385 855.36834 386.80733 903.93364 400.59375 903.84375 C 444.56895 902.03485 478.13295 887.79075 511.96875 859.09375 C 544.46907 830.07383 573.86692 798.20017 601.71875 764.9375 C 662.31466 793.09647 725.46222 815.16965 785.96875 843.5625 C 808.88235 855.1803 831.65215 867.7018 851.28125 884.4375 C 865.90145 895.8412 919.6826 826.93495 905.0625 815.53125 C 879.0273 796.29655 850.9236 780.10695 821.625 766.34375 C 767.08953 741.57229 710.7756 721.02916 656.09375 696.65625 C 659.5211 692.18518 662.93106 687.67039 666.34375 683.1875 C 702.11905 637.2466 737.50445 590.79725 777.65625 548.53125 C 782.33795 543.63575 798.1648 527.7661 800.9375 521.9375 C 818.2802 485.481 808.8055 462.13685 776.4375 442.46875 C 732.6645 420.72455 686.0215 416.6536 638.125 427.1875 C 581.42265 440.48487 526.20419 458.89983 470.0625 474.25 C 473.68378 464.74575 477.49733 455.2983 481.5625 445.9375 C 487.0653 431.82162 433.29205 407.97547 410.34375 409.53125 C 406.15195 385.401 376.20415 339.81615 363.53125 347.15625 C 378.70395 346.31965 318.3626 359.19265 324.625 358.03125 C 312.63935 360.814 300.65115 363.62122 288.65625 366.40625 C 292.76974 303.45491 299.94141 240.57476 318.46875 180.15625 C 323.11039 166.55516 274.0256 146.48447 249.5 146.65625 z M 551.875 169.8125 C 548.93585 169.93254 546.68592 170.86174 545.40625 172.78125 C 513.48675 223.78115 479.1643 273.2056 444.875 322.625 C 425.2349 350.0883 434.72535 337.3879 416.59375 360.875 C 405.64915 375.4682 474.4305 427.06195 485.375 412.46875 C 504.5871 386.17975 494.69715 400.03325 514.90625 370.84375 C 549.06095 320.81605 583.32145 270.84805 617.78125 221.03125 C 626.73897 207.59475 572.44904 168.97223 551.875 169.8125 z M 395.59375 428 C 374.53608 484.94628 358.47361 543.29681 346.5625 602.84375 C 344.22124 616.1394 342.0044 629.43943 339.9375 642.78125 C 321.47073 632.66767 302.53856 623.54008 282.84375 616.28125 C 282.45015 562.35333 282.75825 508.41029 284.34375 454.5 C 303.99848 450.20975 323.64485 445.87391 343.3125 441.65625 C 361.47683 438.72696 378.80586 434.64535 395.59375 428 z M 687.5 507.0625 C 691.10657 507.04201 694.68867 507.16003 698.25 507.46875 C 663.6421 547.45475 631.75489 589.70909 599.625 631.6875 C 593.20619 640.13123 586.77529 648.58048 580.3125 657 C 544.62167 636.10877 509.56369 614.14208 473.09375 594.53125 C 456.43805 586.65765 419.31305 665.1888 435.96875 673.0625 C 466.86991 688.69646 496.60025 706.38475 526.46875 723.84375 C 504.62349 749.11502 481.47059 773.19328 455.90625 794.96875 C 440.95004 806.29959 424.80816 817.11039 405.96875 817.25 C 412.94078 808.28771 417.7878 797.11211 421.84375 786.90625 C 439.10606 791.949 469.67415 712.42062 452.65625 705.84375 C 440.87677 701.72322 429.75658 696.28428 418.9375 690.21875 C 421.99381 666.52008 425.66422 642.88789 429.6875 619.34375 C 436.18045 586.39557 444.01345 553.77332 453.8125 521.75 C 459.49438 543.30043 470.03596 564.17733 479.15625 561.65625 C 538.24945 543.63125 596.73165 523.55855 657.09375 510.15625 C 667.17802 508.35719 677.41338 507.11979 687.5 507.0625 z M 733.6875 518.28125 C 734.33352 518.65868 734.98472 519.03764 735.625 519.4375 C 737.55809 523.12607 736.16985 521.79838 733.6875 518.28125 z M 411 782.375 C 411.32473 782.5185 411.64355 782.66985 411.96875 782.8125 C 412.12384 784.32101 411.21585 786.97931 411.125 785.90625 C 411.02598 784.73673 410.9887 783.54874 411 782.375 z "
     id="path19685" />
</svg>
