<?xml version="1.0" encoding="UTF-8" standalone="no"?>
<svg
   xmlns:dc="http://purl.org/dc/elements/1.1/"
   xmlns:cc="http://creativecommons.org/ns#"
   xmlns:rdf="http://www.w3.org/1999/02/22-rdf-syntax-ns#"
   xmlns:svg="http://www.w3.org/2000/svg"
   xmlns="http://www.w3.org/2000/svg"
   xmlns:sodipodi="http://sodipodi.sourceforge.net/DTD/sodipodi-0.dtd"
   xmlns:inkscape="http://www.inkscape.org/namespaces/inkscape"
   width="1024"
   height="1024"
   id="U671F"
   version="1.1"
   inkscape:version="0.48.0 r9654"
   sodipodi:docname="U+671F.svg">
  <metadata
     id="metadata18">
    <rdf:RDF>
      <cc:Work
         rdf:about="">
        <dc:format>image/svg+xml</dc:format>
        <dc:type
           rdf:resource="http://purl.org/dc/dcmitype/StillImage" />
      </cc:Work>
    </rdf:RDF>
  </metadata>
  <defs
     id="defs16" />
  <sodipodi:namedview
     pagecolor="#ffffff"
     bordercolor="#666666"
     borderopacity="1"
     objecttolerance="10"
     gridtolerance="10"
     guidetolerance="10"
     inkscape:pageopacity="0"
     inkscape:pageshadow="2"
     inkscape:window-width="640"
     inkscape:window-height="480"
     id="namedview14"
     showgrid="false"
     inkscape:zoom="0.27441406"
     inkscape:cx="512"
     inkscape:cy="512"
     inkscape:window-x="0"
     inkscape:window-y="25"
     inkscape:window-maximized="0"
     inkscape:current-layer="U671F" />
  <path
     style="fill:#c83737;fill-opacity:1;fill-rule:nonzero;stroke:#f9f9f9;stroke-width:0.1;stroke-miterlimit:4;stroke-dasharray:none"
     d="M 355.4375 61.71875 C 336.38906 61.708359 319.25796 65.408125 318.8125 73.59375 C 318.0847 126.61575 318.60955 179.63025 318.40625 232.65625 C 318.35574 240.00676 318.27984 247.36834 318.21875 254.71875 C 293.95039 257.09729 269.75581 260.05146 245.625 263.5625 C 245.77886 260.77759 245.93018 258.00331 246.09375 255.21875 C 249.07485 210.90275 250.974 165.6195 263.8125 122.8125 C 270.1006 105.1525 186.8506 75.5275 180.5625 93.1875 C 166.0197 144.0975 163.7453 197.41475 160.8125 249.96875 C 160.36422 259.38493 159.95864 268.80007 159.59375 278.21875 C 128.33743 284.04288 97.153459 290.29445 66.28125 297.90625 C 48.29055 303.28625 73.66565 388.0685 91.65625 382.6875 C 113.27563 376.43818 135.20907 371.39634 157.25 366.84375 C 156.5554 412.27423 156.57405 457.7229 156.9375 503.15625 C 158.7029 558.13325 157.17615 613.83825 167.90625 668.03125 C 172.02105 686.18625 257.58345 666.78 253.46875 648.625 C 245.4024 619.91705 244.31189 589.82338 243.78125 559.78125 C 261.0677 554.10609 278.7122 549.91224 296.84375 547.78125 C 302.27568 547.17887 307.48744 547.49637 312.65625 548.4375 C 311.46344 584.66351 310.1202 620.90059 308.875 657.125 C 308.7004 661.774 308.5496 666.4135 308.375 671.0625 C 308.0055 689.6565 395.6305 691.4065 396 672.8125 C 396.009 668.2165 396.02125 663.62825 396.03125 659.03125 C 396.55235 601.20725 398.3419 543.3765 399.5 485.5625 C 400.45053 436.03342 401.20364 386.5015 401.96875 336.96875 C 412.0026 336.79836 422.04384 336.55634 432.0625 335.90625 C 450.7266 334.33625 443.32035 246.33625 424.65625 247.90625 C 417.5904 248.72516 410.48091 249.17909 403.375 249.46875 C 403.46289 244.125 403.53476 238.7812 403.625 233.4375 C 404.3802 181.7515 404.20805 129.999 407.03125 78.375 C 407.60399 67.850625 379.92835 61.732109 355.4375 61.71875 z M 740.625 176.625 C 738.53368 176.63463 736.44668 176.68538 734.34375 176.78125 C 694.75785 179.71725 655.5208 186.591 617.625 198.625 C 609.31583 201.51457 601.04714 204.54741 592.875 207.8125 C 590.10721 190.02919 504.99076 188.54134 504.59375 206.9375 C 505.90245 254.8605 509.6781 302.66525 512.25 350.53125 C 517.2691 436.88525 513.536 523.28525 506.75 609.40625 C 501.248 675.78025 490.14265 741.49 480.78125 807.375 C 480.10515 812.614 479.4262 817.85475 478.75 823.09375 C 476.7297 841.55475 563.76105 851.05375 565.78125 832.59375 L 567.03125 818.375 C 574.63575 750.861 585.5276 683.7145 590.8125 615.9375 C 593.04346 586.79151 594.94181 557.62938 596.40625 528.4375 C 610.82944 544.46004 628.25804 557.14344 635.125 551.09375 C 654.594 536.15975 679.15355 531.013 702.71875 526.5 C 716.57085 524.089 730.55555 524.2715 744.53125 524.6875 C 763.09175 524.9775 764.4355 437.50775 745.875 437.21875 C 725.7844 437.10375 705.68695 437.29825 685.84375 441.03125 C 655.64011 447.11512 625.4427 454.90723 598.65625 469.90625 C 599.70429 428.78504 599.57353 387.64789 597.71875 346.5 C 597.12801 332.07957 596.42615 317.64352 595.71875 303.21875 C 611.01164 293.10797 628.7988 286.86457 646.09375 280.9375 C 676.63975 271.5295 708.20245 265.89725 740.09375 264.15625 C 741.09195 265.25225 756.105 262.61875 756.625 267.46875 C 756.9582 270.57575 753.74465 266.35375 755.28125 272.96875 C 766.69685 316.24975 766.3201 361.72125 767.125 406.15625 C 767.0339 479.87145 765.14875 553.54475 764.1875 627.25 C 746.08726 630.57281 728.05429 634.25372 710.15625 638.5625 C 674.00395 647.2265 638.1715 656.99225 602.3125 666.78125 C 584.2167 671.66825 607.24795 756.98075 625.34375 752.09375 C 659.98145 741.06675 695.027 731.5095 730.375 723.0625 C 741.44711 720.41577 752.56732 718.09278 763.75 716 C 764.28387 770.44359 766.62999 824.86691 769.8125 879.21875 C 770.6385 893.26875 771.6344 907.30975 772.6875 921.34375 C 774.55 939.95275 862.26885 931.1715 860.40625 912.5625 C 858.71855 899.4875 857.3998 886.36375 856.375 873.21875 C 851.1022 807.50075 847.81195 741.60725 848.09375 675.65625 C 848.34525 585.45225 851.2583 495.317 852.4375 405.125 C 852.0825 347.244 853.80495 287.09525 832.96875 232.15625 C 829.16955 225.60525 826.1207 218.548 821.5625 212.5 C 801.78031 186.25281 771.99481 176.48056 740.625 176.625 z M 317.25 341.53125 C 317.09676 352.44196 316.92714 363.33967 316.75 374.25 C 316.30622 374.09769 315.8532 373.9786 315.375 373.9375 C 310.206 373.5345 305.01275 373.154 299.84375 372.75 C 280.50593 372.00826 261.17077 371.82916 241.84375 372.46875 C 241.96177 365.3413 242.08501 358.22017 242.25 351.09375 C 267.15435 347.16186 292.16016 343.94876 317.25 341.53125 z M 315.1875 456.90625 C 315.15996 458.16709 315.12161 459.42667 315.09375 460.6875 C 313.94727 460.56928 312.80418 460.4695 311.65625 460.375 C 312.90385 459.62046 314.07806 458.42566 315.1875 456.90625 z M 264.6875 459.375 C 274.29573 459.36116 283.90158 459.66286 293.5 460.09375 C 290.97241 460.24727 288.42405 460.46638 285.875 460.8125 C 270.86635 462.78798 256.09517 465.60119 241.46875 469.15625 C 241.4469 466.11914 241.42258 463.06842 241.40625 460.03125 C 249.15335 459.61101 256.92576 459.38618 264.6875 459.375 z M 227.09375 683.28125 C 222.92734 683.22772 219.82766 684.32656 218.375 686.875 C 202.6149 715.811 187.65685 745.11025 174.40625 775.28125 C 164.27895 798.08025 158.24445 821.99925 154.40625 846.53125 C 151.84385 864.96625 238.7501 877.02875 241.3125 858.59375 C 243.0818 841.82275 247.76045 825.76575 254.34375 810.21875 C 266.23995 782.84075 279.8472 756.2725 295.25 730.6875 C 303.09434 716.92509 249.59238 683.5703 227.09375 683.28125 z M 353.78125 765.625 C 332.84031 766.07772 280.14693 808.73913 290.09375 821.8125 C 307.63345 845.2235 327.70605 866.33575 349.09375 886.21875 C 366.75825 901.91175 384.6771 917.301 402 933.375 C 415.6859 945.993 475.1859 881.46075 461.5 868.84375 C 444.1421 852.93175 426.25695 837.59925 408.59375 822.03125 C 390.86655 805.64425 374.19505 788.22775 360.53125 768.21875 C 359.11028 766.35125 356.77281 765.56033 353.78125 765.625 z "
     id="path10599" />
</svg>
