<?xml version="1.0" encoding="UTF-8" standalone="no"?>
<svg
   xmlns:dc="http://purl.org/dc/elements/1.1/"
   xmlns:cc="http://creativecommons.org/ns#"
   xmlns:rdf="http://www.w3.org/1999/02/22-rdf-syntax-ns#"
   xmlns:svg="http://www.w3.org/2000/svg"
   xmlns="http://www.w3.org/2000/svg"
   xmlns:sodipodi="http://sodipodi.sourceforge.net/DTD/sodipodi-0.dtd"
   xmlns:inkscape="http://www.inkscape.org/namespaces/inkscape"
   width="1024"
   height="1024"
   id="U6761"
   version="1.1"
   inkscape:version="0.48.0 r9654"
   sodipodi:docname="U+6761.svg">
  <metadata
     id="metadata14">
    <rdf:RDF>
      <cc:Work
         rdf:about="">
        <dc:format>image/svg+xml</dc:format>
        <dc:type
           rdf:resource="http://purl.org/dc/dcmitype/StillImage" />
      </cc:Work>
    </rdf:RDF>
  </metadata>
  <defs
     id="defs12" />
  <sodipodi:namedview
     pagecolor="#ffffff"
     bordercolor="#666666"
     borderopacity="1"
     objecttolerance="10"
     gridtolerance="10"
     guidetolerance="10"
     inkscape:pageopacity="0"
     inkscape:pageshadow="2"
     inkscape:window-width="640"
     inkscape:window-height="480"
     id="namedview10"
     showgrid="false"
     inkscape:zoom="0.27441406"
     inkscape:cx="512"
     inkscape:cy="1003.0125"
     inkscape:window-x="0"
     inkscape:window-y="25"
     inkscape:window-maximized="0"
     inkscape:current-layer="U6761" />
  <path
     style="fill:#782121;fill-opacity:1;fill-rule:nonzero;stroke:#f9f9f9;stroke-width:0.1;stroke-miterlimit:4;stroke-dasharray:none"
     d="M 374.9375 85.59375 C 374.36359 85.632609 373.79869 85.729 373.25 85.9375 C 336.7768 100.4515 311.05335 128.6245 287.90625 159.1875 C 254.93425 207.8135 234.09125 262.97175 215.59375 318.34375 C 204.72245 351.98575 196.1631 386.202 193.625 421.5 C 192.6841 440.104 280.40285 444.5415 281.34375 425.9375 C 281.55043 404.67215 286.70321 383.99332 292.4375 363.5625 C 320.86125 387.4103 349.27732 411.22814 378.5625 434.03125 C 384.16532 438.36321 389.85725 442.55827 395.59375 446.6875 C 379.87277 460.17202 364.07909 473.58383 348.21875 486.90625 C 301.46535 525.45425 253.9764 563.084 206.8125 601.125 C 193.6461 611.828 180.4607 622.47475 166.75 632.46875 C 151.8898 643.62575 204.48355 713.658 219.34375 702.5 C 233.73965 691.439 247.7518 679.93375 261.625 668.21875 C 308.6371 629.34275 356.1053 591.0555 403.125 552.1875 C 425.82206 533.07462 448.39572 513.80379 470.875 494.4375 C 489.41201 504.96306 508.24364 515.00715 527.1875 524.78125 C 503.49621 518.58348 448.03114 528.05011 449.75 542.90625 C 455.2644 579.46225 457.4431 616.29075 457.875 653.21875 C 457.76875 658.20384 457.63517 663.20453 457.46875 668.1875 C 440.21574 670.55426 423.01046 673.26098 405.84375 676.34375 C 368.11525 682.67175 330.46705 689.80875 292.46875 694.34375 C 273.84525 696.77975 285.3141 784.562 303.9375 782.125 C 303.98982 782.11653 304.04143 782.10222 304.09375 782.09375 C 286.99352 803.46866 269.92312 824.87016 252.90625 846.3125 C 239.14605 863.7455 225.3157 881.09975 212.125 898.96875 C 201.2062 914.03275 272.2062 965.5005 283.125 950.4375 C 295.2238 933.3665 308.2395 916.981 321.125 900.5 C 340.8673 875.685 360.635 850.8775 381.4375 826.9375 C 389.37148 817.56965 363.20588 789.86806 340.78125 775.84375 C 367.37972 771.11464 393.93392 766.08081 420.53125 761.34375 C 431.01889 759.37632 441.50261 757.55307 452.03125 755.90625 C 450.25492 776.84363 448.23604 797.76359 446.125 818.65625 C 442.5524 852.26025 438.38105 886.1095 427.34375 918.1875 C 422.40415 932.3705 412.90515 943.801 403.40625 955.125 C 391.49365 969.46 459.0875 1025.6173 471 1011.2812 C 487.4762 991.32125 502.6436 970.36525 510.6875 945.40625 C 522.8004 906.97525 528.69395 867.13725 532.09375 827.03125 C 534.62121 800.08027 537.07737 773.09687 539.15625 746.09375 C 554.34728 745.03878 569.56542 744.2912 584.8125 743.9375 C 616.0066 743.8855 647.28935 745.2335 678.21875 749.4375 C 696.79705 751.5675 706.8283 664.005 688.25 661.875 C 653.079 658.439 617.712 656.98425 582.375 657.53125 C 569.58422 657.94804 556.81846 658.57694 544.0625 659.40625 C 544.13403 657.11675 544.18954 654.82117 544.25 652.53125 C 544.0659 612.47425 541.951 572.584 537.625 532.75 C 537.47655 531.46684 536.93459 530.32932 536.03125 529.3125 C 536.25115 529.42499 536.46758 529.54382 536.6875 529.65625 C 588.3141 556.83025 642.75055 577.3255 698.59375 593.8125 C 733.56975 603.8185 769.27575 610.89025 805.03125 617.40625 C 807.86635 617.86425 810.69615 618.32225 813.53125 618.78125 C 832.08285 621.41125 844.4891 533.97375 825.9375 531.34375 C 823.8103 531.09875 821.65835 530.83875 819.53125 530.59375 C 786.96115 525.64675 754.56155 519.543 722.78125 510.75 C 672.00505 496.198 622.62855 477.6945 575.78125 453.0625 C 563.82149 446.97199 551.87191 440.77971 540.03125 434.4375 C 548.85132 426.75126 557.68441 419.06642 566.5 411.375 C 602.7452 379.543 640.14415 348.751 673.78125 314.125 C 702.17095 276.693 706.2711 244.743 666.3125 213.875 C 640.6097 198.999 612.27515 190.43675 582.84375 186.46875 C 538.16115 181.30075 493.19715 181.438 448.59375 187.875 C 420.72243 191.82454 392.97719 196.53603 365.21875 201.15625 C 375.99407 187.58075 388.06971 175.10372 404.71875 168.71875 C 421.72835 162.25525 392.72877 84.389134 374.9375 85.59375 z M 333.125 253.84375 C 336.98214 274.73217 344.97579 294.15117 353.875 292.65625 C 389.3819 285.37525 425.03615 278.947 460.90625 273.75 C 497.87595 268.419 535.12475 268.18125 572.09375 273.15625 C 576.99351 274.3766 582.26131 275.34932 587.5625 276.4375 C 562.2315 300.70394 535.64512 323.69029 509.5 347.0625 C 493.93383 360.8942 478.33466 374.66719 462.6875 388.40625 C 452.1821 381.28944 441.87658 373.86676 431.84375 366.03125 C 400.67935 341.44525 370.57845 315.6385 341.09375 289.0625 C 335.33581 284.4666 323.3185 292.34641 311.75 304.3125 C 318.11044 287.15612 325.10116 270.24583 333.125 253.84375 z M 612.53125 284.25 C 615.13051 285.60307 617.63018 287.14491 619.90625 289 C 616.62349 288.49884 614.25007 286.72969 612.53125 284.25 z M 623.21875 817.6875 C 605.02631 817.3126 563.10881 882.77687 577.78125 892.46875 C 603.59185 909.30575 630.9238 923.54525 657.8125 938.53125 C 673.9216 947.24225 689.2055 957.25075 703.9375 968.09375 C 719.0178 978.99475 770.3928 907.901 755.3125 897 C 737.6204 884.385 719.4468 872.5355 700.3125 862.1875 C 675.3612 848.3135 649.8506 835.2145 626.5 818.6875 C 625.52184 818.04137 624.43158 817.71249 623.21875 817.6875 z "
     id="path12090" />
</svg>
