<?xml version="1.0" encoding="UTF-8" standalone="no"?>
<svg
   xmlns:dc="http://purl.org/dc/elements/1.1/"
   xmlns:cc="http://creativecommons.org/ns#"
   xmlns:rdf="http://www.w3.org/1999/02/22-rdf-syntax-ns#"
   xmlns:svg="http://www.w3.org/2000/svg"
   xmlns="http://www.w3.org/2000/svg"
   xmlns:sodipodi="http://sodipodi.sourceforge.net/DTD/sodipodi-0.dtd"
   xmlns:inkscape="http://www.inkscape.org/namespaces/inkscape"
   width="1024"
   height="1024"
   id="U676F"
   version="1.1"
   inkscape:version="0.48.0 r9654"
   sodipodi:docname="U+676F.svg">
  <metadata
     id="metadata15">
    <rdf:RDF>
      <cc:Work
         rdf:about="">
        <dc:format>image/svg+xml</dc:format>
        <dc:type
           rdf:resource="http://purl.org/dc/dcmitype/StillImage" />
      </cc:Work>
    </rdf:RDF>
  </metadata>
  <defs
     id="defs13" />
  <sodipodi:namedview
     pagecolor="#ffffff"
     bordercolor="#666666"
     borderopacity="1"
     objecttolerance="10"
     gridtolerance="10"
     guidetolerance="10"
     inkscape:pageopacity="0"
     inkscape:pageshadow="2"
     inkscape:window-width="640"
     inkscape:window-height="480"
     id="namedview11"
     showgrid="false"
     inkscape:zoom="0.27441406"
     inkscape:cx="512"
     inkscape:cy="512"
     inkscape:window-x="0"
     inkscape:window-y="25"
     inkscape:window-maximized="0"
     inkscape:current-layer="U676F" />
  <path
     style="fill:#aa0000;fill-opacity:1;fill-rule:nonzero;stroke:#f9f9f9;stroke-width:0.1;stroke-miterlimit:4;stroke-dasharray:none"
     d="M 271.6875 175.90625 C 249.83151 176.18467 228.00688 181.10225 228.125 190.375 C 230.03736 247.7422 232.61555 305.08145 235.5625 362.40625 C 235.64732 363.98054 235.72633 365.55081 235.8125 367.125 C 197.56907 372.2923 159.35491 377.64924 121.03125 382.1875 C 102.65381 384.7099 114.56007 471.3349 132.9375 468.8125 C 168.92728 462.99541 205.00919 457.88075 241.125 452.90625 C 245.185 512.75354 249.87769 572.54814 254.65625 632.34375 C 257.20158 665.28415 260.02383 698.20555 262.4375 731.15625 C 263.54645 746.29525 265.50712 761.723 263.15625 776.8125 C 261.73552 795.2102 348.45427 801.92895 349.875 783.53125 C 351.47736 747.49639 346.73022 711.60201 342.75 675.71875 C 366.84077 696.24149 392.07012 715.36659 419 732 C 420.06728 732.64868 421.25366 732.88695 422.5625 732.8125 C 434.36237 748.49142 504.21006 759.55837 507.21875 743.125 C 507.56838 736.7442 507.16632 741.2256 509.625 729.8125 C 521.29888 678.7388 532.68583 627.6126 546.28125 577 C 547.40833 572.55491 548.51441 568.10489 549.625 563.65625 C 549.80421 567.45766 549.97886 571.26103 550.15625 575.0625 C 553.40053 648.7883 557.19856 722.45305 565.0625 795.84375 C 570.19165 836.39795 575.52535 877.19795 589.4375 915.78125 C 596.25653 932.91415 677.00653 900.7579 670.1875 883.625 C 655.52861 853.9185 655.99429 818.3179 649.34375 786.5 C 641.1387 715.0695 637.51196 643.30255 634.84375 571.46875 C 632.97154 522.40235 630.67981 473.2966 630.84375 424.1875 C 630.84375 414.60869 607.52251 410.00172 584.96875 410.3125 C 587.84258 396.8961 590.67779 383.46851 593.46875 370.03125 C 599.11415 346.46518 605.04298 322.86752 612.875 299.9375 C 646.49 292.19057 679.79722 283.13802 713.15625 274.375 C 726.40017 270.9749 739.61243 267.4286 752.78125 263.75 C 770.51629 258.4815 745.67254 174.88765 727.9375 180.15625 C 715.59118 184.07815 703.19092 187.7311 690.6875 191.125 C 646.82548 203.3086 602.86105 215.48565 558.0625 223.78125 C 528.99417 228.77295 499.45276 234.25595 469.84375 233.15625 C 451.41941 230.62085 439.48191 317.49585 457.90625 320.03125 C 478.13142 321.20206 498.30393 319.80298 518.375 317.25 C 515.57585 328.32622 512.95731 339.45743 510.40625 350.59375 C 496.84976 419.52035 481.79354 488.072 464.375 556.125 C 456.44921 585.09531 449.22597 614.24768 442.03125 643.40625 C 426.75426 632.76011 412.16888 621.08214 397.90625 609.09375 C 375.68354 589.83826 354.32458 569.62128 332.09375 550.375 C 329.1808 514.50693 326.43634 478.62903 324.125 442.71875 C 340.8028 441.07065 357.5008 439.49134 374.15625 437.65625 C 392.45514 435.39955 381.79889 349.14955 363.5 351.40625 C 348.83694 353.44062 334.1555 355.12636 319.4375 356.75 C 317.16647 300.94625 315.06012 245.11333 315.5625 189.25 C 315.44438 179.97725 293.54349 175.62783 271.6875 175.90625 z M 714.1875 431.75 C 694.26379 432.36898 644.02747 480.30892 655.125 492.5625 C 683.97828 522.0169 717.67427 545.83345 752.1875 568.09375 C 777.99881 584.19355 804.75679 598.7528 829.28125 616.8125 C 844.26485 627.5024 894.63985 556.8774 879.65625 546.1875 C 853.54988 527.999 825.93828 512.3068 798.75 495.8125 C 770.61868 477.7077 742.83201 458.5246 720 433.8125 C 718.63714 432.30768 716.63427 431.67399 714.1875 431.75 z M 178.34375 489.03125 C 175.38299 489.01963 173.0919 489.84626 171.71875 491.71875 C 146.56168 527.98485 125.27754 566.65325 105.46875 606.03125 C 84.682338 649.86175 65.810144 694.7526 52.46875 741.4375 C 47.665383 759.159 131.19664 781.81525 136 764.09375 C 146.42095 722.60615 163.93289 683.24545 181.84375 644.53125 C 199.54721 609.47315 218.52132 574.90465 242.3125 543.53125 C 251.92456 530.42392 199.06905 489.11262 178.34375 489.03125 z "
     id="path19905" />
</svg>
