<?xml version="1.0" encoding="utf-8" ?>

<!DOCTYPE svg PUBLIC "-//W3C//DTD SVG 1.1//EN" 
  "http://www.w3.org/Graphics/SVG/1.1/DTD/svg11.dtd">
<svg 
    xmlns="http://www.w3.org/2000/svg"
    xmlns:xlink="http://www.w3.org/1999/xlink"
    xmlns:sodipodi="http://sodipodi.sourceforge.net/DTD/sodipodi-0.dtd"
    xmlns:inkscape="http://www.inkscape.org/namespaces/inkscape"
    width="1024" height="1024" id="U672F">
<path d="m 10458.013,45436.586 c 43.691,-2.757 86.969,-10.266 130.281,-16.41 63.103,-9.36 126.694,-14.408 190.274,-19.115 40.949,-2.839 81.769,-7.165 122.643,-10.871 15.568,-1.554 31.163,-2.021 46.78,-1.354 18.703,1.145 13.302,89.311 -5.401,88.165 l 0,0 c -11.343,-1.201 -22.783,-0.139 -34.136,0.44 -41.274,3.103 -82.484,7.023 -123.801,9.563 -61.492,4.154 -123.008,8.701 -183.963,18.16 -46.819,7.019 -93.506,15.44 -140.668,19.812 -18.751,0.427 -20.76,-87.963 -2.009,-88.39 z" id="path10929" inkscape:connector-curvature="0" style="fill:#782121;fill-opacity:1;fill-rule:nonzero;stroke:#f9f9f9;stroke-width:0.1;stroke-miterlimit:4;stroke-dasharray:none" transform="translate(-10240, -45056)"/><path d="m 10720.629,45153.945 c 3.649,58.305 4.785,116.726 5.965,175.121 1.561,92.591 3.471,185.176 4.223,277.779 0.309,73.128 -0.709,146.251 0.518,219.373 0.811,27.945 1.414,55.921 3.577,83.802 0.986,18.674 -87.043,23.325 -88.03,4.651 l 0,0 c -0.902,-29.181 -1.354,-58.374 -1.666,-87.567 -0.291,-73.24 1.239,-146.466 1.198,-219.705 -0.459,-92.077 -2.253,-184.137 -4.616,-276.184 -1.721,-56.322 -3.083,-112.774 -9.101,-168.838 -1.789,-18.653 86.144,-27.085 87.932,-8.432 z" id="path10931" inkscape:connector-curvature="0" style="fill:#782121;fill-opacity:1;fill-rule:nonzero;stroke:#f9f9f9;stroke-width:0.1;stroke-miterlimit:4;stroke-dasharray:none" transform="translate(-10240, -45056)"/><path d="m 10666.501,45523.738 c -28.638,35.439 -50.467,75.774 -72.259,115.608 -32.365,59.811 -60.657,121.66 -84.867,185.185 -2.706,12.242 -25.315,63.645 -19.841,75.069 -0.2,18.696 -88.335,17.753 -88.135,-0.943 l 0,0 c 2.356,-36.617 15.042,-71.002 27.916,-105.147 26.205,-66.618 55.98,-131.747 89.569,-194.989 24.127,-44.951 48.591,-90.036 79.403,-130.857 11.895,-14.47 80.109,41.604 68.214,56.074 z" id="path10933" inkscape:connector-curvature="0" style="fill:#782121;fill-opacity:1;fill-rule:nonzero;stroke:#f9f9f9;stroke-width:0.1;stroke-miterlimit:4;stroke-dasharray:none" transform="translate(-10240, -45056)"/><path d="m 10845.529,45585.95 c 23.349,23.539 52.009,41.096 79.638,59.106 38.648,24.574 77.554,48.729 115.735,74.029 11.015,7.268 21.865,14.779 32.745,22.247 15.222,10.848 -35.915,82.607 -51.137,71.759 l 0,0 c -9.961,-7.382 -19.957,-14.72 -30.228,-21.67 -37.433,-25.54 -75.871,-49.519 -114.208,-73.67 -34.787,-22.404 -70.447,-44.532 -99.632,-74.202 -12.218,-14.231 54.868,-71.831 67.087,-57.599 z" id="path10935" inkscape:connector-curvature="0" style="fill:#782121;fill-opacity:1;fill-rule:nonzero;stroke:#f9f9f9;stroke-width:0.1;stroke-miterlimit:4;stroke-dasharray:none" transform="translate(-10240, -45056)"/><path d="m 10873.718,45126.125 c 33.37,23.945 64.154,51.263 94.536,78.831 5.938,5.708 11.876,11.415 17.815,17.123 13.24,12.759 -46.909,75.174 -60.149,62.415 l 0,0 c -5.282,-5.106 -10.564,-10.211 -15.846,-15.316 -26.851,-24.284 -54.044,-48.545 -84.185,-68.724 -15.767,-10.146 32.062,-84.475 47.829,-74.329 z" id="path10937" inkscape:connector-curvature="0" style="fill:#782121;fill-opacity:1;fill-rule:nonzero;stroke:#f9f9f9;stroke-width:0.1;stroke-miterlimit:4;stroke-dasharray:none" transform="translate(-10240, -45056)"/></svg>