<?xml version="1.0" encoding="UTF-8" standalone="no"?>
<svg
   xmlns:dc="http://purl.org/dc/elements/1.1/"
   xmlns:cc="http://creativecommons.org/ns#"
   xmlns:rdf="http://www.w3.org/1999/02/22-rdf-syntax-ns#"
   xmlns:svg="http://www.w3.org/2000/svg"
   xmlns="http://www.w3.org/2000/svg"
   xmlns:sodipodi="http://sodipodi.sourceforge.net/DTD/sodipodi-0.dtd"
   xmlns:inkscape="http://www.inkscape.org/namespaces/inkscape"
   width="1024"
   height="1024"
   id="U67E5"
   version="1.1"
   inkscape:version="0.48.0 r9654"
   sodipodi:docname="U+67E5.svg">
  <metadata
     id="metadata16">
    <rdf:RDF>
      <cc:Work
         rdf:about="">
        <dc:format>image/svg+xml</dc:format>
        <dc:type
           rdf:resource="http://purl.org/dc/dcmitype/StillImage" />
      </cc:Work>
    </rdf:RDF>
  </metadata>
  <defs
     id="defs14" />
  <sodipodi:namedview
     pagecolor="#ffffff"
     bordercolor="#666666"
     borderopacity="1"
     objecttolerance="10"
     gridtolerance="10"
     guidetolerance="10"
     inkscape:pageopacity="0"
     inkscape:pageshadow="2"
     inkscape:window-width="640"
     inkscape:window-height="480"
     id="namedview12"
     showgrid="false"
     inkscape:zoom="0.27441406"
     inkscape:cx="512"
     inkscape:cy="512"
     inkscape:window-x="0"
     inkscape:window-y="25"
     inkscape:window-maximized="0"
     inkscape:current-layer="U67E5" />
  <path
     style="fill:#800000;fill-opacity:1;fill-rule:nonzero;stroke:#f9f9f9;stroke-width:0.1;stroke-miterlimit:4;stroke-dasharray:none"
     d="M 469.15625 54.75 C 453.66409 54.688071 440.93586 57.580763 440.125 64.5 C 438.12733 100.45817 437.28037 136.45338 435.90625 172.4375 C 423.67079 174.26138 411.47032 176.3274 399.3125 178.71875 C 352.4587 188.11475 305.4882 198.3147 261 216.1875 C 244.0552 223.7613 279.7426 303.66755 296.6875 296.09375 C 300.98112 294.19812 305.32447 292.41829 309.6875 290.71875 C 284.51324 318.24708 261.57824 347.7468 241.53125 379.21875 C 232.29395 396.40885 236.31075 387.50825 229.53125 405.96875 C 224.18625 423.74745 307.99875 448.93495 313.34375 431.15625 C 310.01485 432.35065 312.1545 431.8647 315.3125 424.875 C 334.1097 393.2707 357.56295 364.73155 382.90625 338.15625 C 397.02364 324.35001 411.51098 310.34339 427.8125 299.09375 C 425.32363 332.0446 422.79799 364.99427 420.625 397.96875 C 419.23296 417.79469 418.23312 437.64538 418.1875 457.5 C 395.13763 465.60615 373.20749 476.06861 354.875 491.78125 C 329.83559 483.67969 290.17027 481.83872 288.3125 494.1875 C 284.2345 526.0159 282.83 558.0647 282.75 590.125 C 282.4183 618.1679 286.2459 645.04505 297 670.90625 C 304.9793 687.63485 383.82305 650.00985 375.84375 633.28125 C 371.10155 632.32545 369.24 595.39055 369.25 590.15625 C 369.22872 577.48817 369.46914 564.80567 370.15625 552.15625 C 386.93178 561.85947 404.14324 567.43179 408.625 560.4375 C 422.8227 545.0627 443.70085 539.1967 463.15625 533.6875 C 494.19195 526.4562 526.03485 525.7654 557.53125 529.6875 C 566.48895 532.4027 590.65725 534.1098 592.71875 547 C 591.97795 557.102 590.65125 567.03785 588.40625 576.96875 C 585.07085 590.61475 579.65925 603.50965 573.53125 616.09375 C 568.44775 626.82435 599.18037 646.06161 623.84375 653.96875 C 594.17951 657.9665 564.50264 661.80805 534.78125 665.34375 C 551.66757 660.47508 564.11922 582.86717 546.84375 579.90625 C 528.94275 577.07465 511.0135 574.6751 492.8125 575.4375 C 456.3689 576.9302 419.6157 580.86985 386.75 598.03125 C 370.6453 607.32885 414.48905 683.235 430.59375 673.9375 C 450.77705 663.6424 473.83375 662.56135 496.03125 661.84375 C 508.25615 661.42595 520.21835 663.19 532.15625 665.5 C 532.37655 665.53776 532.59328 665.55055 532.8125 665.5625 C 507.33383 668.58063 481.83125 671.38713 456.28125 673.78125 C 409.24775 678.74525 361.9144 683.47625 316.0625 695.59375 C 298.309 700.98095 323.71525 784.6998 341.46875 779.3125 C 381.75795 767.2833 423.8756 763.1825 465.5 758.5 C 525.6461 752.4328 585.62295 744.8789 645.59375 737.3125 C 675.82945 733.5488 661.28125 735.35855 689.34375 731.96875 C 707.46875 729.63015 696.4375 644.1614 678.3125 646.5 C 662.49 648.67115 658.05272 649.27662 653.6875 649.875 C 661.80723 632.15079 669.06151 614.0507 673.4375 594.96875 C 680.4934 560.35515 682.48405 525.9339 662.59375 494.8125 C 635.51505 461.8637 609.1763 450.1753 567.25 443.75 C 546.34788 441.56231 525.35386 440.65729 504.46875 441.53125 C 504.6233 428.73713 505.27738 415.94047 505.875 403.15625 C 506.7546 387.27787 507.72082 371.3965 508.78125 355.53125 C 517.02798 359.21575 525.21419 363.02495 533.375 366.875 C 563.7977 381.2965 592.27255 399.22055 618.96875 419.65625 C 626.69115 425.50805 633.5297 432.13475 639.5 439.71875 C 651.5795 453.70055 717.48585 396.7318 705.40625 382.75 C 694.84805 371.003 683.99495 359.7105 671.09375 350.4375 C 639.42965 326.9021 606.01365 305.8741 570.34375 288.875 C 552.21159 280.24923 533.94993 271.85469 515.375 264.25 C 515.74469 259.27189 516.10207 254.29089 516.46875 249.3125 C 534.94217 247.93806 553.43147 246.96981 571.9375 246.21875 C 597.8544 245.29085 623.829 245.5578 649.625 242.6875 C 667.9857 240.3045 656.7357 153.742 638.375 156.125 C 615.1485 159.9285 591.4059 158.60795 568 160.40625 C 552.56341 161.20182 537.10778 162.1228 521.6875 163.25 C 523.05763 133.69871 524.40002 104.13808 527.09375 74.6875 C 528.44513 63.155437 494.97651 54.853215 469.15625 54.75 z M 683.53125 824.09375 C 655.05031 824.12702 626.56389 824.78755 598.09375 826.3125 C 514.86915 830.0476 431.69295 834.6913 348.59375 840.625 C 292.62155 844.5831 236.6235 848.359 180.75 853.5625 C 162.3523 855.8913 173.32105 942.61005 191.71875 940.28125 C 245.85865 932.87795 300.45255 929.0629 354.90625 924.75 C 437.07525 918.254 519.36965 913.772 601.71875 910.375 C 664.26415 907.2688 726.8257 908.8425 789.3125 912.125 C 820.1327 914.0205 850.95475 916.12245 881.84375 915.78125 C 900.27745 915.37815 898.3712 828.4719 879.9375 828.875 C 851.0577 829.9147 822.2201 827.87425 793.375 826.59375 C 756.77549 825.04946 720.1496 824.05098 683.53125 824.09375 z "
     id="path20605" />
</svg>
