<?xml version="1.0" encoding="UTF-8" standalone="no"?>
<svg
   xmlns:dc="http://purl.org/dc/elements/1.1/"
   xmlns:cc="http://creativecommons.org/ns#"
   xmlns:rdf="http://www.w3.org/1999/02/22-rdf-syntax-ns#"
   xmlns:svg="http://www.w3.org/2000/svg"
   xmlns="http://www.w3.org/2000/svg"
   xmlns:sodipodi="http://sodipodi.sourceforge.net/DTD/sodipodi-0.dtd"
   xmlns:inkscape="http://www.inkscape.org/namespaces/inkscape"
   width="1024"
   height="1024"
   id="U6709"
   version="1.1"
   inkscape:version="0.48.0 r9654"
   sodipodi:docname="U+6709.svg">
  <metadata
     id="metadata13">
    <rdf:RDF>
      <cc:Work
         rdf:about="">
        <dc:format>image/svg+xml</dc:format>
        <dc:type
           rdf:resource="http://purl.org/dc/dcmitype/StillImage" />
      </cc:Work>
    </rdf:RDF>
  </metadata>
  <defs
     id="defs11" />
  <sodipodi:namedview
     pagecolor="#ffffff"
     bordercolor="#666666"
     borderopacity="1"
     objecttolerance="10"
     gridtolerance="10"
     guidetolerance="10"
     inkscape:pageopacity="0"
     inkscape:pageshadow="2"
     inkscape:window-width="640"
     inkscape:window-height="480"
     id="namedview9"
     showgrid="false"
     inkscape:zoom="0.27441406"
     inkscape:cx="512"
     inkscape:cy="512"
     inkscape:window-x="0"
     inkscape:window-y="25"
     inkscape:window-maximized="0"
     inkscape:current-layer="U6709" />
  <path
     style="fill:#2b1100;fill-opacity:1;fill-rule:nonzero;stroke:none"
     d="M 476.84375 95.0625 C 475.25782 95.115498 473.89134 95.606328 472.78125 96.5625 C 439.44375 127.2765 413.7877 164.75 389 202.375 C 378.91813 218.11202 369.24738 234.08873 359.90625 250.25 C 345.8596 251.36563 331.83435 252.62399 317.8125 254.0625 C 271.1883 259.2465 224.24905 264.63525 179.15625 278.15625 C 161.42955 284.23725 190.0858 367.832 207.8125 361.75 C 241.17414 350.69069 276.14009 345.73974 310.96875 341.5 C 300.17109 362.98715 289.69059 384.64621 279.34375 406.34375 C 249.71485 468.90975 224.2495 533.29975 201 598.46875 C 188.9596 633.51775 177.1144 668.9145 173.375 705.9375 C 173.5101 710.4775 173.64615 715.0215 173.78125 719.5625 C 175.21325 738.2575 263.33835 731.5085 261.90625 712.8125 C 261.68815 712.7435 261.468 712.66375 261.25 712.59375 C 261.6084 683.11675 275.09065 655.012 282.46875 627 C 296.09083 587.31605 310.64487 547.94767 326.6875 509.1875 C 324.4023 546.70727 324.33407 584.33022 324.34375 621.90625 C 324.04735 679.80325 327.9036 737.568 332.4375 795.25 C 335.3036 837.044 339.25545 878.74225 346.40625 920.03125 C 348.10865 930.66525 350.5097 941.115 353.3125 951.5 C 358.6695 969.481 443.4194 944.231 438.0625 926.25 C 435.4058 919.155 434.1941 911.65925 432.5625 904.28125 C 427.93536 880.40529 424.77708 856.32103 422.3125 832.15625 C 446.96552 829.64562 471.66623 827.7203 496.4375 826.6875 C 526.9721 825.3905 557.54465 825.715 587.84375 829.875 C 598.77845 832.041 593.79005 830.78425 602.84375 833.40625 C 620.95375 838.03325 642.76625 752.6895 624.65625 748.0625 C 607.83955 744.0525 616.457 745.7835 598.8125 742.8125 C 563.603 738.6775 528.1657 737.987 492.75 739.625 C 466.81365 740.72902 440.95708 742.73214 415.09375 744.78125 C 412.73426 711.71783 410.99357 678.61729 410.71875 645.46875 C 420.15089 666.62077 434.74806 686.63469 443.65625 682.4375 C 466.80745 672.1915 492.03635 668.31525 516.90625 664.78125 C 547.11065 660.81225 577.5839 661.20675 607.9375 662.59375 C 611.2721 662.84475 614.6029 663.09275 617.9375 663.34375 C 636.5592 664.50575 642.02805 576.7245 623.40625 575.5625 L 611.25 574.90625 C 575.6897 573.81725 540.00955 573.743 504.65625 578.375 C 472.83865 582.87641 440.96657 588.48437 410.96875 600.34375 C 411.29098 572.51764 411.97875 544.65457 414.75 516.96875 C 426.85977 529.12384 439.49713 537.18628 445.28125 532.34375 C 462.65795 517.86875 484.32175 511.11075 505.84375 505.59375 C 536.63445 498.35575 567.7718 500.448 598.5625 506 C 624.6402 511.14 649.67855 520.032 673.53125 531.625 C 682.00525 537.36 697.9183 541.89225 700.1875 553.53125 C 703.3617 571.60425 700.6548 590.08475 698.4375 608.09375 C 691.9231 649.78575 681.7797 690.79475 671.625 731.71875 C 661.6237 770.32775 651.66565 808.9615 641.15625 847.4375 C 635.3855 863.4918 633.51303 881.72701 625.90625 897.21875 C 626.72356 896.48344 628.09536 895.19251 630.125 892.9375 C 621.03837 908.35273 670.12037 973.21651 684.59375 962.46875 C 699.98035 947.15775 694.3105 954.85 703 940.5 C 713.3139 918.004 719.3396 893.99675 725.5 870.09375 C 735.8279 830.99575 745.70895 791.75875 755.78125 752.59375 C 766.76085 708.35275 777.79065 664.038 785.03125 619 C 789.67485 582.838 793.42045 545.86225 777.71875 511.65625 C 761.74415 484.60325 740.0338 465.294 711.1875 452.375 C 679.9596 437.776 647.40195 426.27 613.40625 420 C 570.28665 412.806 526.7103 410.81475 483.8125 421.21875 C 449.7208 430.23775 416.35035 442.11575 388.46875 464.46875 C 381.97841 469.90257 389.9553 486.69038 402 502.375 C 381.36378 494.34797 342.28703 492.10941 330.40625 500.3125 C 338.53294 481.00315 347.01287 461.83244 355.96875 442.875 C 373.7097 405.64601 391.95955 368.59317 411.6875 332.375 C 452.74976 329.75587 493.88978 328.18411 535 326.6875 C 595.0464 324.0435 655.1324 324.54075 715.1875 326.34375 C 745.4097 327.23275 775.6042 328.7545 805.6875 331.8125 C 810.9711 332.5725 816.3545 332.68825 821.5625 333.90625 C 840.1054 336.97125 854.5429 249.565 836 246.5 C 828.5383 245.421 821.06075 244.57275 813.53125 244.09375 C 781.49765 241.57875 749.40995 240.27925 717.28125 239.78125 C 655.46735 238.64525 593.62255 238.61725 531.84375 241.40625 C 509.45775 242.24316 487.07412 243.11151 464.6875 244.09375 C 484.10839 215.31341 504.22255 186.53073 530.5 163.53125 C 543.59901 152.24842 495.55769 94.437128 476.84375 95.0625 z M 625.90625 897.21875 C 624.2067 898.74779 624.4055 898.36813 623.5 901.71875 C 624.36725 900.25535 625.15918 898.74021 625.90625 897.21875 z "
     id="path13279" />
</svg>
