<?xml version="1.0" encoding="UTF-8" standalone="no"?>
<svg
   xmlns:dc="http://purl.org/dc/elements/1.1/"
   xmlns:cc="http://creativecommons.org/ns#"
   xmlns:rdf="http://www.w3.org/1999/02/22-rdf-syntax-ns#"
   xmlns:svg="http://www.w3.org/2000/svg"
   xmlns="http://www.w3.org/2000/svg"
   xmlns:sodipodi="http://sodipodi.sourceforge.net/DTD/sodipodi-0.dtd"
   xmlns:inkscape="http://www.inkscape.org/namespaces/inkscape"
   width="1024"
   height="1024"
   id="U6765"
   version="1.1"
   inkscape:version="0.48.0 r9654"
   sodipodi:docname="U+6765.svg">
  <metadata
     id="metadata14">
    <rdf:RDF>
      <cc:Work
         rdf:about="">
        <dc:format>image/svg+xml</dc:format>
        <dc:type
           rdf:resource="http://purl.org/dc/dcmitype/StillImage" />
      </cc:Work>
    </rdf:RDF>
  </metadata>
  <defs
     id="defs12" />
  <sodipodi:namedview
     pagecolor="#ffffff"
     bordercolor="#666666"
     borderopacity="1"
     objecttolerance="10"
     gridtolerance="10"
     guidetolerance="10"
     inkscape:pageopacity="0"
     inkscape:pageshadow="2"
     inkscape:window-width="640"
     inkscape:window-height="480"
     id="namedview10"
     showgrid="false"
     inkscape:zoom="0.27441406"
     inkscape:cx="512"
     inkscape:cy="512"
     inkscape:window-x="0"
     inkscape:window-y="25"
     inkscape:window-maximized="0"
     inkscape:current-layer="U6765" />
  <path
     style="fill:#2b0000;fill-opacity:1;fill-rule:nonzero;stroke:#f9f9f9;stroke-width:0.1;stroke-miterlimit:4;stroke-dasharray:none"
     d="M 483.84375 146.90625 C 471.75341 146.92544 462.528 149.32094 461.46875 155.09375 C 454.28245 191.19475 450.98525 227.7135 449.46875 264.4375 C 449.42712 273.62229 449.43582 282.78389 449.4375 291.96875 C 427.04762 293.05615 404.68623 294.88791 382.4375 297.90625 C 351.2115 302.18625 320.1685 307.5085 289.0625 312.5625 C 270.5583 315.7255 285.46455 402.94425 303.96875 399.78125 C 333.99525 393.70425 364.1755 388.5205 394.5 384.1875 C 412.87812 381.60064 431.34618 379.94077 449.84375 378.90625 C 450.10414 410.89562 450.44248 442.88576 450.59375 474.875 C 450.83022 512.70194 450.1864 550.50508 449.15625 588.3125 C 435.55935 589.99449 421.9558 591.58226 408.34375 593.125 C 427.59472 574.85735 449.75323 534.85619 438.53125 527.34375 C 436.97955 526.29375 435.4301 525.2725 434 524.0625 C 420.7103 512.0175 407.58565 499.791 393.21875 489 C 372.08665 471.859 350.77075 454.84825 327.65625 440.40625 C 311.45585 430.93025 266.7996 507.30625 283 516.78125 C 302.6254 528.20125 320.1973 542.65825 337.6875 557.03125 C 350.4865 566.77425 362.07595 577.85825 373.71875 588.90625 C 376.39968 591.41607 379.21252 593.76874 382.09375 596.03125 C 358.19025 598.57105 334.27036 600.89587 310.3125 602.9375 C 276.9944 606.0235 243.65095 609.048 210.34375 612.25 C 191.69805 614.39 201.7918 702.29625 220.4375 700.15625 C 253.1078 695.79625 285.93365 692.727 318.71875 689.375 C 327.48068 688.54769 336.24403 687.65919 345 686.78125 C 338.08976 693.4422 331.29084 700.24872 324.5625 707.09375 C 292.222 741.43675 264.1264 779.406 235.75 817 C 218.3402 840.321 200.6872 863.46325 187.8125 889.65625 C 177.7053 910.43725 175.1029 920.81225 177.25 944.53125 C 182.9051 952.87725 188.56375 961.2165 194.21875 969.5625 C 208.01272 980.26377 255.71141 920.91767 250.96875 902.8125 C 255.10718 909.38051 259.26788 915.93221 263.40625 922.5 C 264.31215 943.36 259.8726 946.25825 267.6875 927.28125 C 276.8585 905.92725 292.5836 888.28725 305.4375 869.15625 C 331.137 834.51925 356.6733 799.5645 386.375 768.1875 C 404.60429 749.87188 423.4036 731.9481 444.46875 716.90625 C 443.1966 754.08907 443.22793 791.26715 444.5625 828.46875 C 444.708 858.34075 448.5104 887.9365 451.75 917.5625 C 453.2597 933.5015 453.28625 949.467 455.15625 965.375 C 456.23925 974.897 459.87075 983.125 463.96875 991.625 C 473.33968 1007.5108 546.77088 964.66018 541.0625 947.5625 C 541.62843 948.76911 542.0959 949.59415 542.4375 950.3125 C 540.66205 936.11174 541.30751 921.64562 539.125 907.46875 C 535.8216 880.04275 531.92645 852.693 531.59375 825 C 530.83759 808.01693 530.39041 791.01417 530.21875 774.03125 C 555.78181 781.60028 579.9315 793.33519 604.1875 804.25 C 638.2555 819.547 672.1598 835.1685 704.75 853.4375 C 725.8374 866.3035 746.9877 879.22125 766.875 893.90625 C 770.3728 897.17125 769.09805 895.62175 771.03125 898.21875 C 784.27745 911.52875 847.02755 849.09125 833.78125 835.78125 C 824.13575 826.60125 829.2536 831.1285 818.3125 822.3125 C 795.3184 806.1315 771.3266 791.418 747.125 777.125 C 712.3491 757.988 676.37235 741.20375 640.21875 724.84375 C 610.93295 711.42275 581.7589 697.33525 550.875 687.90625 C 543.83096 686.16115 536.34427 697.96257 530.84375 713.3125 C 531.12473 704.14337 531.4882 694.95078 531.9375 685.78125 C 532.16196 678.53483 532.37531 671.30931 532.59375 664.0625 C 570.46999 659.22966 608.43659 655.11866 646.46875 651.65625 C 682.86845 648.63525 719.36255 646.032 755.90625 646.75 C 773.01305 647.292 789.9262 649.8855 806.5 654.0625 C 814.6421 656.3095 822.66915 658.96175 830.84375 661.09375 C 849.12585 665.61375 870.43845 579.42625 852.15625 574.90625 C 843.70585 573.03225 835.5056 570.1095 827.0625 568.1875 C 803.972 562.8495 780.504 559.32575 756.75 559.09375 C 723.04406 559.03837 689.42137 561.11778 655.84375 563.96875 C 657.86951 559.73578 660.00344 555.54944 662.28125 551.4375 C 673.96675 531.1485 687.29285 511.72 703.65625 494.875 C 716.92385 481.608 654.3926 419.07675 641.125 432.34375 C 620.0442 455.06675 602.41655 480.55125 586.65625 507.15625 C 575.50065 526.77825 566.44695 547.5075 558.71875 568.6875 C 558.30336 569.87364 557.59689 571.32337 557.15625 572.21875 C 557.44812 571.63432 558.20523 570.14617 558.90625 568.78125 C 558.39333 570.30256 558.51226 572.0775 559.09375 574.03125 C 551.01399 574.98656 542.94833 575.99071 534.875 577 C 535.55869 542.85191 535.91635 508.6903 535.71875 474.53125 C 535.61892 442.23521 535.44245 409.92429 535.375 377.625 C 571.16504 378.51619 606.95616 380.21257 642.71875 381.84375 C 667.42615 382.57875 691.7461 386.855 716 391.25 C 716.8549 391.173 737.56115 396.783 729.53125 395 C 745.47735 404.902 792.1336 329.74575 776.1875 319.84375 C 761.9044 312.17375 747.57165 306.35825 731.28125 304.53125 C 703.16305 299.69925 674.93425 295.35675 646.34375 294.71875 C 609.44982 293.31835 572.56853 291.62653 535.65625 290.8125 C 535.73705 283.33735 535.81802 275.84964 535.9375 268.375 C 537.6034 235.625 540.8742 203.0235 548.5625 171.0625 C 550.89285 158.36231 510.44251 146.86404 483.84375 146.90625 z M 542.4375 950.3125 C 542.59043 951.53569 542.74496 952.74952 542.9375 953.96875 C 543.20497 952.3173 542.96793 951.42793 542.4375 950.3125 z M 446.21875 675.5 C 446.14199 677.55096 446.07718 679.60534 446 681.65625 C 444.98654 679.75203 443.89836 677.83039 442.75 675.90625 C 443.90493 675.76507 445.06392 675.64208 446.21875 675.5 z "
     id="path9242" />
</svg>
