<?xml version="1.0" encoding="UTF-8" standalone="no"?>
<svg
   xmlns:dc="http://purl.org/dc/elements/1.1/"
   xmlns:cc="http://creativecommons.org/ns#"
   xmlns:rdf="http://www.w3.org/1999/02/22-rdf-syntax-ns#"
   xmlns:svg="http://www.w3.org/2000/svg"
   xmlns="http://www.w3.org/2000/svg"
   xmlns:sodipodi="http://sodipodi.sourceforge.net/DTD/sodipodi-0.dtd"
   xmlns:inkscape="http://www.inkscape.org/namespaces/inkscape"
   width="1024"
   height="1024"
   id="U671B"
   version="1.1"
   inkscape:version="0.48.0 r9654"
   sodipodi:docname="U+671B.svg">
  <metadata
     id="metadata18">
    <rdf:RDF>
      <cc:Work
         rdf:about="">
        <dc:format>image/svg+xml</dc:format>
        <dc:type
           rdf:resource="http://purl.org/dc/dcmitype/StillImage" />
      </cc:Work>
    </rdf:RDF>
  </metadata>
  <defs
     id="defs16" />
  <sodipodi:namedview
     pagecolor="#ffffff"
     bordercolor="#666666"
     borderopacity="1"
     objecttolerance="10"
     gridtolerance="10"
     guidetolerance="10"
     inkscape:pageopacity="0"
     inkscape:pageshadow="2"
     inkscape:window-width="640"
     inkscape:window-height="480"
     id="namedview14"
     showgrid="false"
     inkscape:zoom="0.27441406"
     inkscape:cx="512"
     inkscape:cy="512"
     inkscape:window-x="0"
     inkscape:window-y="25"
     inkscape:window-maximized="0"
     inkscape:current-layer="U671B" />
  <path
     style="fill:#501616;fill-opacity:1;fill-rule:nonzero;stroke:#f9f9f9;stroke-width:0.1;stroke-miterlimit:4;stroke-dasharray:none"
     d="M 733.53125 12.21875 C 724.05843 12.221156 714.52852 12.7035 704.96875 13.59375 C 668.55915 17.38175 631.84805 23.052 598.90625 40 C 591.0344 44.498268 597.23452 64.754125 607.5625 83.4375 C 581.4693 78.529793 538.67595 82.847466 538.78125 95.90625 C 541.58175 138.69725 540.83365 181.54175 538.90625 224.34375 C 535.44595 289.84375 526.2692 354.8335 517.75 419.8125 C 517.66985 421.95777 517.48589 424.38887 517.25 426.9375 C 507.22516 427.84826 497.17363 428.5979 487.125 429.28125 C 449.2035 432.05125 411.3402 435.99225 373.3125 436.90625 C 367.353 436.79925 361.1061 434.62675 355.4375 436.46875 C 354.4454 436.79175 359.5505 453.08 353.125 438.5 C 346.3675 402.359 351.0215 365.32 352.375 328.875 C 353.65744 306.72036 354.63769 284.51981 356.125 262.375 C 362.74867 262.18606 369.37607 261.98756 376 261.8125 C 394.3671 261.2335 391.617 174.671 373.25 175.25 C 347.0034 176.209 320.75935 177.13525 294.53125 178.53125 C 247.56655 181.09225 200.65435 184.11225 153.78125 188.03125 C 135.11735 189.61725 142.5862 277.61725 161.25 276.03125 C 196.79056 271.41308 232.49365 268.59443 268.25 266.375 C 267.3755 285.63238 266.5387 304.90372 265.5625 324.15625 C 263.0018 366.89025 260.6882 409.65425 266.6875 452.15625 C 281.2192 509.86225 315.85045 521.96475 370.40625 524.21875 C 411.42385 523.27575 452.2655 518.956 493.1875 516.25 C 499.57254 515.87865 505.96664 515.44922 512.34375 515 C 512.99743 517.7912 513.86513 520.33639 514.9375 522.59375 C 519.2766 531.72775 526.07715 539.47225 531.65625 547.90625 C 544.704 559.38663 595.68818 503.43251 592.21875 485.0625 C 594.42486 489.14325 596.67701 493.19741 598.75 497.34375 C 596.33729 481.73363 599.50793 465.39875 601.5625 449.46875 C 601.94265 449.50598 602.32993 449.53919 602.71875 449.5 C 636.68965 444.316 670.65325 439.28425 704.84375 435.78125 C 731.97532 433.10118 759.21826 432.70389 786.4375 433.65625 C 787.11561 458.0057 788.47847 482.33911 790.53125 506.625 C 791.84485 520.273 793.5758 533.86975 795.3125 547.46875 C 798.0887 565.96575 885.2762 552.872 882.5 534.375 C 880.4088 522.481 878.5458 510.53525 877.1875 498.53125 C 871.8645 446.70825 870.4254 394.58325 873.0625 342.53125 C 876.2037 278.28825 882.01205 214.0535 880.46875 149.6875 C 876.16935 97.2515 868.24735 52.129 816.96875 26.25 C 789.8999 16.43625 761.94972 12.211531 733.53125 12.21875 z M 598.75 497.34375 C 598.96343 498.72463 599.22549 500.09981 599.53125 501.46875 C 599.61125 501.82475 600.6531 501.2685 600.5 500.9375 C 599.94157 499.72867 599.34526 498.53438 598.75 497.34375 z M 302.8125 18.09375 C 282.67089 17.849655 229.86174 64.051859 240.53125 76.90625 C 260.82135 99.48525 283.341 119.897 305 141.125 C 318.3418 154.073 379.37305 91.16675 366.03125 78.21875 C 346.45675 59.39975 326.0721 41.2555 308.5625 20.4375 C 307.25221 18.858781 305.28603 18.123727 302.8125 18.09375 z M 736.375 99.71875 C 753.09521 99.58158 769.94111 100.872 785.03125 108 C 793.58275 120.733 792.90675 141.8985 794.09375 156.6875 C 795.73495 217.2915 790.51475 277.85075 787.53125 338.34375 C 787.39405 340.95317 787.27546 343.54646 787.15625 346.15625 C 756.7658 345.64432 726.37108 346.34474 696.09375 349.28125 C 667.94721 352.09073 639.93495 355.8884 611.875 359.34375 C 614.6472 336.59673 617.31325 313.82799 619.59375 291.03125 C 646.05879 288.31863 672.4893 285.2148 698.9375 282.34375 C 721.8911 279.78775 744.90635 277.6675 767.96875 276.4375 C 786.51085 275.2595 780.94825 187.85325 762.40625 189.03125 C 738.11125 190.78925 713.86735 193.198 689.65625 195.875 C 668.43418 198.12783 647.22901 200.63186 625.96875 202.5625 C 627.25871 171.96408 627.82988 141.34959 627.46875 110.71875 C 633.3434 116.28068 638.87186 119.01522 642.78125 116.78125 C 664.72795 105.67625 689.6556 102.768 713.8125 100.375 C 721.19284 100.11969 728.7749 99.7811 736.375 99.71875 z M 600.84375 567.34375 C 562.07342 567.42248 523.34386 569.38525 484.59375 571.84375 C 440.38215 573.89975 396.145 575.655 351.875 575.25 C 333.1294 575.813 335.78575 664.189 354.53125 663.625 C 399.31165 661.981 444.0605 660.16775 488.8125 657.84375 C 491.27823 657.68392 493.75297 657.53079 496.21875 657.375 C 490.40126 680.96605 486.49121 705.04008 483.15625 729.125 C 482.51312 734.1889 481.95522 739.23998 481.4375 744.3125 C 459.89741 743.24364 438.40826 741.50372 417.0625 738.375 C 398.5007 735.614 385.46955 823.14525 404.03125 825.90625 C 428.42863 828.45793 452.90681 830.03339 477.40625 831.0625 C 477.37197 844.31877 477.52206 857.59409 477.78125 870.84375 C 477.93625 876.97775 478.095 883.08475 478.25 889.21875 C 478.8274 907.71375 566.0148 904.995 565.4375 886.5 C 565.2161 880.576 565.00265 874.674 564.78125 868.75 C 564.43072 856.6227 564.16735 844.47939 564.125 832.34375 C 592.93899 831.88433 621.75013 830.66836 650.53125 829.25 C 669.05715 828.183 664.0259 740.8705 645.5 741.9375 C 619.90795 743.63292 594.26717 744.9634 568.625 745.5625 C 568.80325 744.10427 568.96518 742.64485 569.15625 741.1875 C 573.37847 711.51743 578.27463 681.64244 589.21875 653.59375 C 609.11952 653.44613 629.02689 653.84693 648.9375 655.09375 C 668.8524 656.54875 688.6223 659.21175 708.125 663.46875 C 726.4161 667.06575 743.38495 580.848 725.09375 577.25 C 701.49305 572.976 677.7117 569.91725 653.75 568.53125 C 636.11306 567.65875 618.46663 567.30796 600.84375 567.34375 z M 216.125 899.84375 C 198.0614 900.29648 187.78762 985.29056 206.09375 987.5625 C 260.22215 991.6185 314.5688 991.315 368.8125 991.375 C 441.3838 990.611 513.86555 994.0665 586.21875 999.3125 C 650.93045 1004.4025 715.4971 1010.8988 780.25 1015.4688 C 812.4663 1017.6637 844.75415 1018.43 877.03125 1019 C 895.49755 1019.193 896.4039 932.16175 877.9375 931.96875 C 847.2938 931.87775 816.6584 931.49575 786.0625 929.59375 C 721.3961 925.43575 656.88945 919.059 592.28125 914.125 C 518.01405 908.891 443.662 905.5625 369.1875 905.9375 C 318.4437 905.5575 267.4751 905.742 217 899.875 C 216.70943 899.83892 216.41172 899.83656 216.125 899.84375 z "
     id="path12788" />
</svg>
