<?xml version="1.0" encoding="UTF-8" standalone="no"?>
<svg
   xmlns:dc="http://purl.org/dc/elements/1.1/"
   xmlns:cc="http://creativecommons.org/ns#"
   xmlns:rdf="http://www.w3.org/1999/02/22-rdf-syntax-ns#"
   xmlns:svg="http://www.w3.org/2000/svg"
   xmlns="http://www.w3.org/2000/svg"
   xmlns:sodipodi="http://sodipodi.sourceforge.net/DTD/sodipodi-0.dtd"
   xmlns:inkscape="http://www.inkscape.org/namespaces/inkscape"
   width="1024"
   height="1024"
   id="U672C"
   version="1.1"
   inkscape:version="0.48.0 r9654"
   sodipodi:docname="U+672C.svg">
  <metadata
     id="metadata12">
    <rdf:RDF>
      <cc:Work
         rdf:about="">
        <dc:format>image/svg+xml</dc:format>
        <dc:type
           rdf:resource="http://purl.org/dc/dcmitype/StillImage" />
      </cc:Work>
    </rdf:RDF>
  </metadata>
  <defs
     id="defs10" />
  <sodipodi:namedview
     pagecolor="#ffffff"
     bordercolor="#666666"
     borderopacity="1"
     objecttolerance="10"
     gridtolerance="10"
     guidetolerance="10"
     inkscape:pageopacity="0"
     inkscape:pageshadow="2"
     inkscape:window-width="640"
     inkscape:window-height="480"
     id="namedview8"
     showgrid="false"
     inkscape:zoom="0.27441406"
     inkscape:cx="512"
     inkscape:cy="512"
     inkscape:window-x="0"
     inkscape:window-y="25"
     inkscape:window-maximized="0"
     inkscape:current-layer="U672C" />
  <path
     style="fill:#aa0000;fill-opacity:1;fill-rule:nonzero;stroke:#f9f9f9;stroke-width:0.1;stroke-miterlimit:4;stroke-dasharray:none"
     d="M 463.34375 140.375 C 456.40896 140.372 451.40348 142.00793 450.0625 145.84375 C 436.2045 199.19535 433.91015 254.78265 429.96875 309.53125 C 429.10994 323.19416 428.19679 336.87006 427.3125 350.53125 C 408.17529 351.34622 389.0393 352.23692 369.90625 353.15625 C 315.21845 355.79885 260.5513 358.6979 205.875 361.5625 C 187.3608 362.8134 193.26715 450.0634 211.78125 448.8125 C 259.61979 444.18853 307.58483 441.21805 355.5625 438.4375 C 341.93951 450.53148 328.83371 463.26693 315.84375 475.90625 C 270.00495 521.65785 228.7452 571.6286 189.75 623.25 C 173.617 644.3924 159.2634 666.5405 148.5625 690.875 C 141.7856 708.0931 222.94185 740.0306 229.71875 722.8125 C 234.08345 704.5896 249.14515 690.12085 258.21875 674.34375 C 293.88265 625.94455 332.17045 579.42085 375.09375 537.21875 C 388.84623 524.04848 402.68172 510.62526 417.4375 498.375 C 415.19592 531.20112 412.94675 564.01661 410.71875 596.84375 C 408.25104 632.55354 406.32406 668.3076 404.75 704.0625 C 360.91647 704.39543 317.00251 704.38693 273.34375 700.15625 C 254.85845 698.45195 246.8272 785.57695 265.3125 787.28125 C 310.71123 789.77081 356.17981 789.5691 401.625 788.90625 C 401.26088 800.49822 400.88801 812.09456 400.5625 823.6875 C 400.0737 840.2052 400.07255 856.70395 400.53125 873.21875 C 401.53765 891.69225 488.6314 886.9735 487.625 868.5 C 486.3061 854.1219 486.02975 839.6892 486.09375 825.25 C 486.19974 812.48888 486.39092 799.72851 486.59375 786.96875 C 536.08814 785.7817 585.57681 784.96289 635.09375 785.84375 C 643.22545 786.27395 651.3682 786.6948 659.5 787.125 C 677.6432 787.9043 681.29945 702.37305 663.15625 701.59375 C 654.11825 701.28645 645.1005 700.9949 636.0625 700.6875 C 586.93833 700.44564 537.82189 701.44897 488.71875 702.53125 C 489.92176 669.13371 491.58029 635.76053 493.78125 602.40625 C 494.90531 585.2617 496.06081 568.11115 497.21875 550.96875 C 514.73248 565.81347 533.02148 579.81511 551.09375 593.84375 C 597.24915 628.92815 642.40025 665.31135 686.84375 702.53125 C 701.43205 719.71665 729.96995 731.31195 738.46875 753.46875 C 748.28815 769.12695 822.10065 722.81435 812.28125 707.15625 C 793.16015 679.30785 767.8004 657.73765 741.5 636.71875 C 696.0979 599.30325 650.20345 562.48065 603.53125 526.65625 C 571.24945 501.31255 537.3385 476.5333 512.25 443.625 C 510.801 441.55258 508.22905 440.7119 504.875 440.8125 C 505.09493 437.72948 505.31043 434.64545 505.53125 431.5625 C 542.19223 430.3629 578.85142 429.50041 615.53125 429 C 664.90045 428.5113 714.2749 429.3864 763.625 430.6875 C 767.6666 430.7784 771.7084 430.8465 775.75 430.9375 C 794.2108 431.0793 794.8983 344.0794 776.4375 343.9375 C 772.5828 343.9685 768.69845 343.97 764.84375 344 C 714.59395 343.8922 664.3702 343.7303 614.125 344.5625 C 579.96958 345.25249 545.79783 346.20515 511.65625 347.34375 C 512.42673 336.93967 513.18993 326.52839 513.96875 316.125 C 517.98815 268.873 520.40505 220.70485 532.71875 174.71875 C 537.50797 161.0193 488.11087 140.38573 463.34375 140.375 z "
     id="path20015" />
</svg>
