<?xml version="1.0" encoding="utf-8" ?>

<!DOCTYPE svg PUBLIC "-//W3C//DTD SVG 1.1//EN" 
  "http://www.w3.org/Graphics/SVG/1.1/DTD/svg11.dtd">
<svg 
	xmlns="http://www.w3.org/2000/svg"
	xmlns:xlink="http://www.w3.org/1999/xlink"
	width="1024" height="1024">
<path d="m 10349.193,3410.8305 c 40.939,-3.3737 81.876,-6.7719 122.829,-9.9894 49.637,-3.7933 99.379,-6.2497 148.91,-11.3257 14.985,-2.0492 8.533,-0.7727 19.454,-3.3008 20.637,-3.7665 38.392,93.5145 17.756,97.281 l 0,0 c -18.125,2.8476 -8.652,1.6011 -28.438,3.6147 -49.878,3.9052 -99.86,6.3113 -149.731,10.3396 -40.322,3.4713 -80.661,6.9459 -120.793,12.2511 -20.973,2.1185 -30.96,-96.752 -9.987,-98.8705 z" id="path4241" inkscape:connector-curvature="0" style="fill:#aa0000;fill-opacity:1;fill-rule:nonzero;stroke:#f9f9f9;stroke-width:0.1;stroke-miterlimit:4;stroke-dasharray:none" transform="translate(-10240, -3072)"/><path d="m 10567.843,3259.2294 c -13.609,50.2272 -15.396,102.999 -18.711,154.6817 -5.262,94.3769 -9.135,188.8256 -12.657,283.2813 -2.533,67.8242 -4.138,135.6775 -6.207,203.5159 -0.233,13.2498 -1.052,26.4179 -2.67,39.5593 -3.512,20.7768 -101.455,4.2225 -97.943,-16.5544 l 0,0 c 3.566,-8.3104 0.812,-18.8057 3.107,-27.2851 3.901,-67.6015 6.118,-135.2862 8.986,-202.9361 3.881,-95.0523 7.772,-190.1051 12.065,-285.1397 3.224,-61.1322 4.962,-123.3049 20.805,-182.7678 7.138,-19.7759 100.362,13.869 93.225,33.6449 z" id="path4243" inkscape:connector-curvature="0" style="fill:#aa0000;fill-opacity:1;fill-rule:nonzero;stroke:#f9f9f9;stroke-width:0.1;stroke-miterlimit:4;stroke-dasharray:none" transform="translate(-10240, -3072)"/><path d="m 10479.686,3639.0917 c -26.981,11.7141 -48.341,32.3443 -68.61,53.0669 -24.471,26.4927 -45.1,56.3331 -59.653,89.3478 -0.713,2.465 -1.426,4.93 -2.139,7.395 0.351,0.025 0.702,0.051 1.052,0.076 -3.118,20.7675 -101.017,6.0697 -97.899,-14.6978 l 0,0 c 4.943,-23.579 1.604,-12.1787 9.9,-34.2349 20.464,-42.4598 46.802,-81.6924 79.155,-116.1073 29.524,-30.0591 60.991,-58.6738 99.735,-76.4144 19.424,-8.1584 57.883,83.4103 38.459,91.5686 z" id="path4245" inkscape:connector-curvature="0" style="fill:#aa0000;fill-opacity:1;fill-rule:nonzero;stroke:#f9f9f9;stroke-width:0.1;stroke-miterlimit:4;stroke-dasharray:none" transform="translate(-10240, -3072)"/><path d="m 10652.376,3627.0502 c 6.863,22.7468 19.905,42.2584 34.794,60.4531 18.029,20.3539 39.291,37.4638 61.355,53.2151 7.8,4.8986 4.257,3.0217 10.434,5.9831 18.368,10.2346 -29.878,96.821 -48.246,86.5864 l 0,0 c -13.655,-8.0142 -6.844,-3.7158 -20.404,-12.9434 -28.591,-21.2959 -56.21,-44.1674 -79.504,-71.3085 -21.732,-27.2456 -40.751,-56.303 -52.281,-89.463 -6.899,-19.9089 86.953,-52.4318 93.852,-32.5228 z" id="path4247" inkscape:connector-curvature="0" style="fill:#aa0000;fill-opacity:1;fill-rule:nonzero;stroke:#f9f9f9;stroke-width:0.1;stroke-miterlimit:4;stroke-dasharray:none" transform="translate(-10240, -3072)"/><path d="m 10734.048,3276.8953 c 36.357,3.8963 72.856,6.415 109.322,9.0683 34.718,2.5622 69.521,3.4645 104.323,3.6907 20.908,0.3571 19.225,98.9202 -1.683,98.5631 l 0,0 c -36.573,-0.9968 -73.144,-2.2522 -109.64,-4.9207 -37.391,-2.6577 -74.782,-5.314 -112.19,-7.716 -20.935,-2.0935 -11.066,-100.7788 9.868,-98.6854 z" id="path4249" inkscape:connector-curvature="0" style="fill:#aa0000;fill-opacity:1;fill-rule:nonzero;stroke:#f9f9f9;stroke-width:0.1;stroke-miterlimit:4;stroke-dasharray:none" transform="translate(-10240, -3072)"/><path d="m 10627.382,3504.317 c 40.392,-0.5589 80.781,-1.346 121.175,-1.8424 58.521,-0.8359 117.046,0.01 175.564,0.6264 43.827,0.1366 87.564,2.671 131.214,6.4028 16.699,0.3118 31.324,3.9578 46.871,9.6549 18.576,10.1446 -29.246,97.7132 -47.822,87.5687 l 0,0 c 30.443,9.6387 -2.161,-0.4782 -8.46,0.6964 -40.871,-4.3937 -81.886,-7.1633 -123.01,-7.4752 -57.588,-0.8282 -115.192,-1.6537 -172.781,-0.3986 -39.871,0.8076 -79.757,1.6721 -119.577,3.9289 -21.036,0.6731 -24.209,-98.4888 -3.174,-99.1619 z" id="path4251" inkscape:connector-curvature="0" style="fill:#aa0000;fill-opacity:1;fill-rule:nonzero;stroke:#f9f9f9;stroke-width:0.1;stroke-miterlimit:4;stroke-dasharray:none" transform="translate(-10240, -3072)"/><path d="m 10912.331,3569.4874 c 4.573,42.3507 5.624,84.8662 5.517,127.4263 -1.282,65.4397 -5.265,130.7879 -8.741,196.1375 -2.124,38.187 -3.583,76.4057 -5.373,114.6082 -2.385,45.4417 -6.982,16.0547 -96.131,27.2553 -10.105,-18.5421 77.304,-66.1777 87.409,-47.6356 l 0,0 c -106.067,22.3257 -93.61,45.8457 -89.93,13.9388 3.234,-37.832 4.953,-75.7809 7.508,-113.6608 3.849,-63.4198 7.826,-126.8761 8.45,-190.4281 -0.292,-39.2474 -1.482,-78.5288 -7.507,-117.3889 -2.175,-20.9584 96.624,-31.211 98.798,-10.2527 z" id="path4253" inkscape:connector-curvature="0" style="fill:#aa0000;fill-opacity:1;fill-rule:nonzero;stroke:#f9f9f9;stroke-width:0.1;stroke-miterlimit:4;stroke-dasharray:none" transform="translate(-10240, -3072)"/><path d="m 10819.882,3784.8298 c -21.691,16.9137 -41.422,36.1037 -60.129,56.2154 -18.497,20.7992 -34.118,43.9204 -47.954,68.0173 -0.932,1.9613 -1.864,3.9227 -2.796,5.8841 0.214,0.01 0.427,0.019 0.641,0.029 -7.046,19.8464 -100.603,-13.3666 -93.557,-33.213 l 0,0 c 6.542,-16.0372 2.909,-8.3958 10.789,-22.9762 18.044,-29.768 37.773,-58.5979 61.126,-84.5046 22.203,-23.8544 45.556,-46.567 70.513,-67.5549 16.568,-13.0179 77.935,65.0851 61.367,78.103 z" id="path4255" inkscape:connector-curvature="0" style="fill:#aa0000;fill-opacity:1;fill-rule:nonzero;stroke:#f9f9f9;stroke-width:0.1;stroke-miterlimit:4;stroke-dasharray:none" transform="translate(-10240, -3072)"/><path d="m 11011.98,3731.0135 c 19.953,15.4969 39.622,31.3442 58.845,47.7386 10.582,9.0168 20.669,18.5754 30.566,28.3306 14.826,14.9297 -55.553,84.822 -70.379,69.8923 l 0,0 c -7.836,-8.1073 -15.884,-15.9993 -24.413,-23.3844 -17.27,-14.9274 -34.981,-29.378 -53.602,-42.6004 -16.966,-12.5122 42.017,-92.4888 58.983,-79.9767 z" id="path4257" inkscape:connector-curvature="0" style="fill:#aa0000;fill-opacity:1;fill-rule:nonzero;stroke:#f9f9f9;stroke-width:0.1;stroke-miterlimit:4;stroke-dasharray:none" transform="translate(-10240, -3072)"/></svg>