<?xml version="1.0" encoding="UTF-8" standalone="no"?>
<svg
   xmlns:dc="http://purl.org/dc/elements/1.1/"
   xmlns:cc="http://creativecommons.org/ns#"
   xmlns:rdf="http://www.w3.org/1999/02/22-rdf-syntax-ns#"
   xmlns:svg="http://www.w3.org/2000/svg"
   xmlns="http://www.w3.org/2000/svg"
   xmlns:sodipodi="http://sodipodi.sourceforge.net/DTD/sodipodi-0.dtd"
   xmlns:inkscape="http://www.inkscape.org/namespaces/inkscape"
   width="1024"
   height="1024"
   id="U6811"
   version="1.1"
   inkscape:version="0.48.0 r9654"
   sodipodi:docname="U+6811.svg">
  <metadata
     id="metadata16">
    <rdf:RDF>
      <cc:Work
         rdf:about="">
        <dc:format>image/svg+xml</dc:format>
        <dc:type
           rdf:resource="http://purl.org/dc/dcmitype/StillImage" />
      </cc:Work>
    </rdf:RDF>
  </metadata>
  <defs
     id="defs14" />
  <sodipodi:namedview
     pagecolor="#ffffff"
     bordercolor="#666666"
     borderopacity="1"
     objecttolerance="10"
     gridtolerance="10"
     guidetolerance="10"
     inkscape:pageopacity="0"
     inkscape:pageshadow="2"
     inkscape:window-width="640"
     inkscape:window-height="480"
     id="namedview12"
     showgrid="false"
     inkscape:zoom="0.27441406"
     inkscape:cx="512"
     inkscape:cy="74.704626"
     inkscape:window-x="0"
     inkscape:window-y="25"
     inkscape:window-maximized="0"
     inkscape:current-layer="U6811" />
  <path
     style="fill:#782121;fill-opacity:1;fill-rule:nonzero;stroke:#f9f9f9;stroke-width:0.1;stroke-miterlimit:4;stroke-dasharray:none"
     d="M 248.15625 115.90625 C 229.10838 115.76671 211.93848 119.34869 211.4375 127.53125 C 211.59507 188.52325 211.33614 249.51 210.8125 310.5 C 210.62995 328.1987 210.30919 345.89977 209.9375 363.59375 C 202.58647 365.93953 195.24043 368.32262 187.90625 370.71875 C 148.40551 383.74075 108.99992 396.96525 69.8125 410.90625 C 52.365104 417.85125 85.083857 500.10125 102.53125 493.15625 C 128.20623 482.7259 154.27222 473.32252 180.46875 464.28125 C 163.3868 486.98504 147.70105 510.80748 131.1875 533.875 C 94.26522 582.864 66.938523 637.56275 43.5 693.96875 C 33.047226 722.86175 37.454324 708.674 30.0625 736.375 C 25.695155 754.393 110.63266 774.98675 115 756.96875 C 118.68085 738.69375 116.13872 748.8775 123.5625 726.6875 C 143.78042 676.3155 167.8039 627.64925 201.0625 584.40625 C 202.02184 583.09247 202.95222 581.75697 203.90625 580.4375 C 203.70756 588.81083 203.54072 597.18826 203.375 605.5625 C 202.09852 670.9235 203.49522 736.273 204.28125 801.625 C 204.34043 806.47 204.40955 811.31225 204.46875 816.15625 C 205.07475 834.73525 292.63725 831.86025 292.03125 813.28125 C 291.78071 808.63025 291.53178 803.99475 291.28125 799.34375 C 289.42063 752.99666 287.95982 706.63007 287.5625 660.25 C 301.96469 668.39299 316.71702 675.96811 331.5 683.40625 C 359.58526 695.62525 385.40718 710.98325 408.1875 731.40625 C 419.36472 743.21125 413.6851 737.113 425.125 749.75 C 431.75196 757.00085 452.9693 743.88938 469.625 727.90625 C 473.47675 726.09793 477.33576 724.27678 481.1875 722.46875 C 509.57099 700.93875 531.51512 672.5415 552.9375 644.3125 C 559.42268 635.13551 565.70137 625.83027 571.84375 616.4375 C 583.60201 624.07499 595.42682 631.65185 607.21875 639.21875 C 626.45439 652.59075 647.26741 663.83525 665.46875 678.65625 C 677.28835 687.66068 713.44214 645.24955 720.34375 621.75 C 732.12157 627.37712 743.78311 633.22476 755.4375 639.0625 C 771.88205 647.3515 810.9758 569.8515 794.53125 561.5625 C 761.73675 544.9325 728.77958 528.496 694.59375 514.875 C 683.07394 510.72089 666.29327 544.70889 660.9375 570.59375 C 658.56324 569.07732 656.20404 567.53795 653.84375 566 C 641.25707 558.03819 628.6401 550.09794 616.125 542 C 621.93826 531.26471 627.60598 520.41983 633.09375 509.5 C 652.40046 472.132 673.68763 434.9255 684.25 393.9375 C 690.47614 349.5415 680.52254 320.44 636.46875 303.25 C 606.73891 296.069 576.84718 296.7785 546.96875 303.5625 C 519.97032 309.4575 493.18861 316.552 467.5 326.875 C 450.17136 334.125 484.35886 415.8125 501.6875 408.5625 C 522.07797 399.4415 543.7656 393.90175 565.53125 389.21875 C 574.87939 388.14018 585.37148 385.52868 595.5 385.28125 C 585.09975 414.65761 570.11442 442.30118 556.03125 470.03125 C 552.4146 477.28258 548.70352 484.4864 544.9375 491.65625 C 543.22613 490.28984 541.50867 488.94964 539.8125 487.5625 C 511.90239 464.9565 484.40873 441.81425 455.9375 419.90625 C 440.7624 408.88225 388.79365 480.4135 403.96875 491.4375 C 432.08966 511.3955 458.49435 533.6635 485.40625 555.1875 C 490.4751 559.2739 495.6038 563.25045 500.78125 567.1875 C 494.84245 576.24269 488.71869 585.17193 482.375 593.96875 C 473.24537 603.71439 453.99456 631.84031 439.21875 644.53125 C 417.94604 629.15785 395.1774 616.14839 370.8125 605.53125 C 347.09501 593.50125 323.29354 581.344 302 565.25 C 298.83676 562.83319 293.94112 564.09738 288.3125 567.6875 C 289.29613 521.41137 290.78881 475.13793 292.21875 428.875 C 310.08541 423.969 328.08232 419.50482 346.21875 415.65625 C 357.91039 412.90325 369.90528 412.6625 381.78125 411.4375 C 400.43229 408.7805 387.90104 320.843 369.25 323.5 C 355.31972 325.361 340.83192 327.065 326.96875 330.375 C 316.18698 332.93487 305.45308 335.6792 294.75 338.53125 C 294.96573 329.57782 295.16395 320.64215 295.34375 311.6875 C 296.49355 252.0985 297.20183 192.46125 299.625 132.90625 C 300.26911 122.38581 272.64637 116.08566 248.15625 115.90625 z M 882.03125 205.6875 C 857.52887 205.7774 829.86283 211.97225 830.46875 222.5 C 834.46247 271.10227 834.85424 319.88575 834.75 368.625 C 832.54295 369.02779 830.33655 369.39998 828.125 369.78125 C 791.63596 375.75125 754.94983 380.62575 718 382.59375 C 699.29773 384.05475 706.20398 472.211 724.90625 470.75 C 761.07434 467.23086 797.0696 462.54488 832.9375 456.78125 C 831.07035 516.04762 828.41218 575.29023 826.65625 634.5625 C 824.05488 690.8095 825.70249 747.14625 824.28125 803.40625 C 824.04199 821.89325 911.16699 823.01925 911.40625 804.53125 C 911.51738 748.63825 909.50837 692.73275 911.71875 636.84375 C 913.28071 571.14743 916.06873 505.48912 918.15625 439.8125 C 930.86899 437.11621 943.62486 434.52801 956.4375 432.34375 L 964.96875 431.34375 C 983.45813 428.74575 971.23939 341.5895 952.75 344.1875 C 948.66149 344.8235 944.55727 345.45775 940.46875 346.09375 C 933.65213 347.43702 926.85299 348.87611 920.0625 350.34375 C 920.43855 306.0362 920.33154 261.7281 918.71875 217.4375 C 918.24748 209.24925 901.08865 205.61758 882.03125 205.6875 z M 606.59375 386.1875 C 608.83248 386.66617 611.03722 387.34126 613.15625 388.28125 C 611.45844 389.43091 608.7844 387.92256 606.59375 386.1875 z "
     id="path10953" />
</svg>
