<?xml version="1.0" encoding="UTF-8" standalone="no"?>
<svg
   xmlns:dc="http://purl.org/dc/elements/1.1/"
   xmlns:cc="http://creativecommons.org/ns#"
   xmlns:rdf="http://www.w3.org/1999/02/22-rdf-syntax-ns#"
   xmlns:svg="http://www.w3.org/2000/svg"
   xmlns="http://www.w3.org/2000/svg"
   xmlns:sodipodi="http://sodipodi.sourceforge.net/DTD/sodipodi-0.dtd"
   xmlns:inkscape="http://www.inkscape.org/namespaces/inkscape"
   width="1024"
   height="1024"
   id="U684C"
   version="1.1"
   inkscape:version="0.48.0 r9654"
   sodipodi:docname="U+684C.svg">
  <metadata
     id="metadata17">
    <rdf:RDF>
      <cc:Work
         rdf:about="">
        <dc:format>image/svg+xml</dc:format>
        <dc:type
           rdf:resource="http://purl.org/dc/dcmitype/StillImage" />
      </cc:Work>
    </rdf:RDF>
  </metadata>
  <defs
     id="defs15" />
  <sodipodi:namedview
     pagecolor="#ffffff"
     bordercolor="#666666"
     borderopacity="1"
     objecttolerance="10"
     gridtolerance="10"
     guidetolerance="10"
     inkscape:pageopacity="0"
     inkscape:pageshadow="2"
     inkscape:window-width="640"
     inkscape:window-height="480"
     id="namedview13"
     showgrid="false"
     inkscape:zoom="0.27441406"
     inkscape:cx="512"
     inkscape:cy="512"
     inkscape:window-x="0"
     inkscape:window-y="25"
     inkscape:window-maximized="0"
     inkscape:current-layer="U684C" />
  <path
     style="fill:#2b1100;fill-opacity:1;fill-rule:nonzero;stroke:none"
     d="M 455.96875 84.53125 C 440.32806 84.377887 427.45295 87.23775 426.59375 94.21875 C 423.88805 132.07075 421.13685 169.89275 418.09375 207.71875 C 415.79448 235.31957 413.90181 262.97173 413.34375 290.65625 C 376.86128 296.05722 340.36831 302.66895 306.15625 316.96875 C 301.7059 319.03108 300.96003 326.06825 302.59375 335.15625 C 277.72164 325.81784 235.67802 322.48832 233.4375 335.21875 C 228.8385 372.65375 230.6024 410.4905 232.1875 448.0625 C 234.093 483.9075 237.20465 519.796 245.03125 554.875 C 246.53605 559.21 248.0577 563.57025 249.5625 567.90625 C 252.07491 574.25011 264.56121 573.94971 279.09375 570.1875 C 280.05766 589.4405 284.6882 606.6875 292.96875 606.6875 C 335.14925 606.2205 377.1491 602.48325 419.125 598.65625 C 428.48536 597.58375 437.85341 596.66463 447.21875 595.9375 C 439.8108 621.35324 434.74257 647.33117 430.8125 673.5 C 386.38957 679.10111 341.88081 683.96721 297.125 685.90625 C 253.6033 687.62125 210.0414 687.9085 166.5625 690.5625 C 147.9128 692.5405 157.2252 780.44675 175.875 778.46875 C 217.4442 774.47775 259.27065 773.8915 300.96875 771.8125 C 301.13556 771.80376 301.30195 771.79006 301.46875 771.78125 C 276.80114 793.31585 254.16569 817.11599 232.5 841.65625 C 221.9539 853.91025 211.4768 866.19675 202.0625 879.34375 C 191.5209 894.85075 264.61465 944.53725 275.15625 929.03125 C 281.61905 918.14925 290.7527 909.1025 298.375 899.0625 C 321.3045 872.3375 345.8531 846.87125 373.5625 825.03125 C 387.7735 814.58134 402.46367 804.74875 417.96875 796.40625 C 416.07233 826.38449 415.03587 856.39267 414.96875 886.4375 C 414.71995 899.7965 415.97895 913.25675 414.90625 926.59375 C 414.19305 945.33175 502.5368 948.6765 503.25 929.9375 C 503.5104 915.2185 502.788 900.5225 502.25 885.8125 C 501.8147 861.4229 502.2342 837.04112 503.40625 812.6875 C 525.41168 832.29264 551.49024 846.68065 578.0625 859.875 C 619.7327 878.462 662.0535 895.40875 702.3125 916.96875 C 722.9637 928.39675 742.3073 941.90525 757.8125 959.78125 C 770.4483 973.45225 834.8858 913.88875 822.25 900.21875 C 799.1098 876.01775 772.6791 855.863 742.9375 840.25 C 701.8526 818.687 659.151 800.8335 616.75 782.0625 C 595.95294 771.70031 574.71416 761.06171 558.75 744 C 593.82397 740.71477 629.00277 738.89264 664.25 738.375 C 689.8671 738.309 715.5032 739.546 740.9375 742.625 C 741.404 742.805 741.846 743.0065 742.3125 743.1875 C 760.7959 746.5765 776.7959 659.4515 758.3125 656.0625 C 755.4722 655.6365 752.62155 655.20725 749.78125 654.78125 C 720.75075 652.33825 691.6415 650.9895 662.5 651.5625 C 615.14841 652.7721 567.88344 655.9451 520.875 661.71875 C 523.58868 648.79627 526.85686 635.99892 530.90625 623.40625 C 534.31945 614.519 514.71566 601.99324 493.71875 594.09375 C 511.5753 594.13986 529.41321 595.11765 547.25 597.34375 C 554.621 599.78575 583.15085 601.889 587.46875 609.25 C 599.45195 616.24438 626.98699 576.21612 633.875 551.15625 C 655.63247 558.81548 680.08929 561.97084 683.15625 552.65625 C 687.32815 539.46225 685.41135 546.02425 688.90625 533.03125 C 696.77435 504.25525 705.1083 475.59675 713.0625 446.84375 C 721.1716 417.41875 731.00175 387.192 726.21875 356.375 C 723.58255 349.914 721.88795 342.973 718.28125 337 C 707.26355 318.752 687.1173 311.45375 668.25 304.71875 C 635.7668 293.36175 602.56525 284.00175 567.96875 282.21875 C 545.59691 281.19149 523.25397 281.22107 500.9375 282.1875 C 501.13184 270.98368 501.57614 259.78284 502.21875 248.59375 C 523.66545 242.98316 545.98765 241.4337 568.0625 240.25 C 580.8099 240.032 593.6319 239.8115 606.3125 241.4375 C 613.0855 242.3055 617.1535 243.658 617.0625 244.25 C 617.03655 244.41953 616.94935 244.52914 616.84375 244.59375 C 634.8926 244.39661 672.33991 175.34146 656.90625 166.71875 C 625.98755 152.32475 596.95535 151.47 563.21875 153 C 545.17212 154.0269 527.08515 155.37264 509.1875 157.9375 C 510.70113 140.27652 512.36439 122.61111 514.34375 105 C 515.77575 93.365 482.03657 84.786855 455.96875 84.53125 z M 616.84375 244.59375 C 616.48198 244.5977 616.12685 244.5837 615.78125 244.53125 C 616.23531 244.68121 616.61143 244.73589 616.84375 244.59375 z M 613.78125 243.875 C 614.39747 244.21932 615.06257 244.42334 615.75 244.53125 C 615.09515 244.31214 614.31921 243.94015 613.78125 243.875 z M 530.9375 368.09375 C 541.78823 368.08972 552.63998 368.364 563.5 369 C 589.20183 370.66037 613.61728 378.35249 637.59375 387.1875 C 635.10355 399.55684 631.92152 411.71907 628.65625 423.90625 C 620.96585 452.47225 612.5215 480.83 604.3125 509.25 C 601.83634 517.79998 602.03204 517.41018 601.09375 520.09375 C 586.91207 515.54893 572.24204 512.54243 557.1875 510.75 C 508.605 505.562 460.01175 506.9785 411.46875 512.5625 C 383.30863 515.00236 355.10625 517.5133 326.84375 518.3125 C 322.05464 494.0422 320.83541 469.06009 319.03125 444.46875 C 318.08951 421.38095 316.9368 398.0899 318.1875 374.96875 C 324.14042 385.24318 330.80348 393.60433 336.59375 396.5625 C 325.27441 411.50859 344.83065 484.16697 361.625 479.96875 C 388.0259 473.04375 415.2842 473.08425 442.3125 474.65625 C 476.5724 477.98325 510.54295 483.779 544.53125 489.125 C 558.86135 491.486 552.52825 490.17925 563.65625 492.78125 C 581.95905 496.56725 599.8027 410.286 581.5 406.5 C 565.7664 403.508 573.7507 404.86225 557.5625 402.53125 C 520.8219 397.27525 484.1652 391.0615 447.1875 387.6875 C 418.69284 386.14301 390.11346 386.1307 361.90625 390.15625 C 385.11743 382.64287 409.51178 378.96958 433.59375 375.375 C 465.90517 370.8345 498.38532 368.10584 530.9375 368.09375 z M 514.90625 748.90625 C 512.45205 750.65819 510.02571 752.49432 507.65625 754.40625 C 507.80508 752.87697 507.93923 751.3413 508.09375 749.8125 C 508.23993 749.79407 508.38507 749.76842 508.53125 749.75 C 510.65545 749.46098 512.78096 749.18358 514.90625 748.90625 z "
     id="path15623" />
</svg>
