<?xml version="1.0" encoding="UTF-8" standalone="no"?>
<svg
   xmlns:dc="http://purl.org/dc/elements/1.1/"
   xmlns:cc="http://creativecommons.org/ns#"
   xmlns:rdf="http://www.w3.org/1999/02/22-rdf-syntax-ns#"
   xmlns:svg="http://www.w3.org/2000/svg"
   xmlns="http://www.w3.org/2000/svg"
   xmlns:sodipodi="http://sodipodi.sourceforge.net/DTD/sodipodi-0.dtd"
   xmlns:inkscape="http://www.inkscape.org/namespaces/inkscape"
   width="1024"
   height="1024"
   id="U6865"
   version="1.1"
   inkscape:version="0.48.0 r9654"
   sodipodi:docname="U+6865.svg">
  <metadata
     id="metadata17">
    <rdf:RDF>
      <cc:Work
         rdf:about="">
        <dc:format>image/svg+xml</dc:format>
        <dc:type
           rdf:resource="http://purl.org/dc/dcmitype/StillImage" />
      </cc:Work>
    </rdf:RDF>
  </metadata>
  <defs
     id="defs15" />
  <sodipodi:namedview
     pagecolor="#ffffff"
     bordercolor="#666666"
     borderopacity="1"
     objecttolerance="10"
     gridtolerance="10"
     guidetolerance="10"
     inkscape:pageopacity="0"
     inkscape:pageshadow="2"
     inkscape:window-width="640"
     inkscape:window-height="480"
     id="namedview13"
     showgrid="false"
     inkscape:zoom="0.27441406"
     inkscape:cx="512"
     inkscape:cy="512"
     inkscape:window-x="0"
     inkscape:window-y="25"
     inkscape:window-maximized="0"
     inkscape:current-layer="U6865" />
  <path
     style="fill:#c83737;fill-opacity:1;fill-rule:nonzero;stroke:#f9f9f9;stroke-width:0.1;stroke-miterlimit:4;stroke-dasharray:none"
     d="M 762.125 61.9375 C 759.1364 61.871023 756.79581 62.666375 755.375 64.53125 C 731.7778 96.45125 701.7916 122.68 671.5 148 C 629.1248 182.013 583.3313 211.4245 537.3125 240.1875 C 517.667 252.3345 497.6587 263.87425 477.4375 275.03125 C 461.2518 284.20425 504.5017 360.4865 520.6875 351.3125 C 541.8539 339.0205 562.83455 326.41375 583.53125 313.34375 C 588.38295 310.24846 593.24786 307.1392 598.09375 304.03125 C 593.81294 312.80406 589.54656 321.58333 585.3125 330.375 C 566.96572 368.98957 549.46638 407.99291 532.40625 447.1875 C 489.67828 449.38193 446.80771 452.13981 404.03125 449.8125 C 385.32225 448.5835 379.50985 536.77 398.21875 538 C 430.40803 538.66234 462.58015 537.31288 494.71875 535.46875 C 482.3785 564.99241 470.37548 594.66577 458.8125 624.5 C 443.7262 620.43914 428.91269 615.38287 414.375 609.625 C 386.56545 597.95868 359.67509 584.01197 331.71875 572.75 C 331.68844 570.36381 331.6557 567.97993 331.625 565.59375 C 331.24264 524.41248 330.69413 483.21661 330.3125 442.03125 C 360.16563 438.67525 390.03114 435.3681 419.9375 432.5 C 435.3563 430.929 450.81285 430.1185 466.21875 428.4375 C 484.81415 425.9245 472.9704 338.237 454.375 340.75 C 439.9937 343.343 425.3358 343.86925 410.875 345.90625 C 383.8667 348.96525 356.86675 352.26766 329.875 355.46875 C 329.89972 333.73136 330.05704 311.98595 330.375 290.25 C 332.0589 243.299 332.93725 195.2635 346.09375 149.8125 C 352.51215 132.1965 269.44975 101.9465 263.03125 119.5625 C 247.73905 174.1425 246.66235 231.38225 245.21875 287.65625 C 245.10255 313.36956 245.17016 339.06891 245.34375 364.78125 C 204.83822 368.45765 164.03295 371.57025 123.4375 367.875 C 104.8217 365.793 95.0093 453.57425 113.625 455.65625 C 157.86128 458.27923 202.12614 455.1484 246.1875 451.09375 C 246.19316 451.55222 246.21308 452.01028 246.21875 452.46875 C 213.57974 475.56833 188.79587 507.67738 165.03125 539.46875 C 142.41035 571.40875 119.91855 603.82225 104.96875 640.15625 C 98.34415 657.61625 180.65665 688.86625 187.28125 671.40625 C 192.00417 655.8997 200.30549 641.81224 209.4375 628.21875 C 219.74379 643.05433 231.56156 654.04351 238.3125 650.03125 C 241.57612 647.99353 244.86382 646.55233 248.15625 645.5625 C 248.41102 695.28781 248.40971 745.02354 248.15625 794.75 C 248.21295 811.95 247.9083 829.1355 247.0625 846.3125 C 246.6077 864.9375 334.4202 867.09375 334.875 848.46875 C 334.928 830.45075 334.7435 812.42125 334.375 794.40625 C 333.83192 752.39518 333.35983 710.38689 332.875 668.375 C 348.74286 675.59992 364.53744 683.05691 380.59375 689.84375 C 397.87755 696.90573 415.51737 702.95368 433.4375 708.09375 C 446.78984 724.50496 511.4253 741.09883 515.96875 725.46875 C 518.58575 715.65775 521.55575 705.944 524.96875 696.375 C 529.28094 683.95672 533.73816 671.584 538.28125 659.25 C 545.37592 691.5413 544.4463 724.66034 542.53125 757.4375 C 538.66345 802.0025 529.7556 845.93875 520.875 889.71875 C 518.0039 903.82975 515.0028 917.89875 511.9375 931.96875 C 508.2237 950.24375 594.37995 967.74375 598.09375 949.46875 C 600.79805 935.13975 603.5476 920.817 606.3125 906.5 C 615.4099 858.814 624.80845 811.07925 629.03125 762.65625 C 631.50485 722.43525 632.30185 681.99725 625.03125 642.15625 C 621.95096 626.13907 555.86744 636.67782 541.03125 651.8125 C 552.45545 621.12697 564.52414 590.70132 577.03125 560.4375 C 581.31606 550.11802 585.6317 539.79845 589.96875 529.5 C 621.86008 527.48614 653.75559 525.54469 685.65625 523.6875 C 674.52623 536.15078 667.4736 548.76995 672.5 554.1875 C 698.7363 582.7815 728.38105 607.6465 759.21875 631.0625 C 797.13565 658.5515 837.05805 683.08925 874.46875 711.28125 C 885.90635 720.70425 897.9239 730.0085 906.25 742.4375 C 917.7215 757.1835 987.2215 703.08975 975.75 688.34375 C 961.2493 670.68775 944.897 654.96575 926.375 641.46875 C 888.9021 613.93375 849.45235 589.3185 811.78125 562.0625 C 794.23604 548.64957 777.07264 534.72463 761.1875 519.4375 C 761.73984 519.40783 762.2914 519.37336 762.84375 519.34375 C 822.39905 515.72975 882.0513 514.9935 941.6875 516.1875 C 967.3623 516.5705 992.9668 518.432 1018.5 521 C 1037.2265 522.384 1043.7577 434.10175 1025.0312 432.71875 C 997.66175 431.54675 970.2998 429.29425 942.875 429.53125 C 881.2715 429.05925 819.6808 430.3805 758.1875 434.3125 C 714.78476 436.74364 671.39884 439.28279 628 441.78125 C 639.12436 417.02809 650.5741 392.43142 662.46875 368.03125 C 681.54895 329.44725 700.58245 290.65625 723.90625 254.40625 C 727.62781 248.57267 719.80179 238.41661 707.96875 228.71875 C 714.23589 223.96342 720.47472 219.13335 726.625 214.21875 C 762.0995 184.80775 796.79055 154.209 825.71875 118.125 C 835.66444 105.07087 783.04518 62.402836 762.125 61.9375 z M 787.4375 692.0625 C 777.12153 691.979 769.4407 694.05525 768.21875 699.1875 C 760.06205 739.8785 760.09115 781.58425 759.59375 822.90625 C 759.26375 869.54325 759.2785 916.1755 759.1875 962.8125 C 759.1835 981.7245 759.13875 972.75925 759.21875 989.65625 C 759.56835 1008.3012 847.4746 1006.6762 847.125 988.03125 C 846.585 971.98325 846.8349 980.56625 846.4375 962.28125 C 845.7743 916.27225 845.4451 870.23175 846.0625 824.21875 C 846.7236 789.32175 846.4911 753.87125 854.25 719.65625 C 857.37275 706.5405 813.80052 692.2759 787.4375 692.0625 z "
     id="path11027" />
</svg>
