<?xml version="1.0" encoding="UTF-8" standalone="no"?>
<svg
   xmlns:dc="http://purl.org/dc/elements/1.1/"
   xmlns:cc="http://creativecommons.org/ns#"
   xmlns:rdf="http://www.w3.org/1999/02/22-rdf-syntax-ns#"
   xmlns:svg="http://www.w3.org/2000/svg"
   xmlns="http://www.w3.org/2000/svg"
   xmlns:sodipodi="http://sodipodi.sourceforge.net/DTD/sodipodi-0.dtd"
   xmlns:inkscape="http://www.inkscape.org/namespaces/inkscape"
   width="1024"
   height="1024"
   id="U68F5"
   version="1.1"
   inkscape:version="0.48.0 r9654"
   sodipodi:docname="U+68F5.svg">
  <metadata
     id="metadata20">
    <rdf:RDF>
      <cc:Work
         rdf:about="">
        <dc:format>image/svg+xml</dc:format>
        <dc:type
           rdf:resource="http://purl.org/dc/dcmitype/StillImage" />
      </cc:Work>
    </rdf:RDF>
  </metadata>
  <defs
     id="defs18" />
  <sodipodi:namedview
     pagecolor="#ffffff"
     bordercolor="#666666"
     borderopacity="1"
     objecttolerance="10"
     gridtolerance="10"
     guidetolerance="10"
     inkscape:pageopacity="0"
     inkscape:pageshadow="2"
     inkscape:window-width="640"
     inkscape:window-height="480"
     id="namedview16"
     showgrid="false"
     inkscape:zoom="0.27441406"
     inkscape:cx="512"
     inkscape:cy="512"
     inkscape:window-x="0"
     inkscape:window-y="25"
     inkscape:window-maximized="0"
     inkscape:current-layer="U68F5" />
  <path
     style="fill:#2b0000;fill-opacity:1;fill-rule:nonzero;stroke:#f9f9f9;stroke-width:0.1;stroke-miterlimit:4;stroke-dasharray:none"
     d="M 310.28125 155.03125 C 291.23342 155.16823 274.13216 158.99881 273.75 167.1875 C 271.4918 222.6535 269.05785 278.09675 267.65625 333.59375 C 267.33735 349.06993 267.16163 364.55565 267.09375 380.03125 C 265.61518 380.23169 264.13465 380.42311 262.65625 380.625 C 219.39065 386.314 175.90785 393.0535 132.15625 392.3125 C 113.42375 391.6665 110.36125 479.979 129.09375 480.625 C 175.61678 479.9798 221.73874 473.11295 267.75 466.71875 C 267.83771 471.69615 267.9301 476.67899 268.03125 481.65625 C 256.22246 477.24209 246.23449 476.13276 243.1875 481.34375 C 222.2599 518.72175 202.217 556.5735 182.1875 594.4375 C 165.0976 626.6695 147.7054 658.75725 129.125 690.15625 C 119.8473 706.20125 195.4723 749.921 204.75 733.875 C 223.2326 701.211 240.8829 668.10675 258.5 634.96875 C 262.84348 626.81507 267.19974 618.64704 271.5625 610.5 C 271.6785 614.32337 271.79127 618.14553 271.90625 621.96875 C 273.96295 691.37875 276.4894 760.807 277.0625 830.25 C 276.0593 841.174 278.32435 853.161 274.53125 863.75 C 271.15165 882.145 357.8704 898.05125 361.25 879.65625 C 363.6559 862.68625 364.77575 845.804 363.71875 828.625 C 361.70615 758.833 358.51235 689.05925 356.09375 619.28125 C 356.06288 618.3639 356.03087 617.44862 356 616.53125 C 360.80263 620.32563 365.61946 624.10824 370.5 627.8125 C 405.32767 653.39632 443.52821 673.7429 480.8125 695.40625 C 486.38747 719.07152 498.40671 744.13621 508.4375 741.25 C 517.34389 738.35399 526.2957 735.68463 535.3125 733.1875 C 539.00003 735.72297 545.05451 733.59443 551.90625 728.78125 C 571.84995 723.72002 591.97456 719.36656 612.125 715.1875 C 600.9626 725.29178 590.09699 735.75409 579.34375 746.28125 C 559.99125 765.48025 541.3623 785.37925 522.875 805.40625 C 510.3554 819.21625 575.44915 878.21625 587.96875 864.40625 C 604.93295 845.33125 622.1972 826.52625 640.3125 808.53125 C 650.77638 798.27843 661.33729 788.04574 672.34375 778.34375 C 671.46923 793.20026 670.5796 808.05238 669.65625 822.90625 C 666.85165 854.40625 666.92335 886.355 660.96875 917.5 C 658.05585 935.924 744.93095 949.64175 747.84375 931.21875 C 752.52725 896.96875 753.42055 862.4115 755.53125 827.9375 C 755.99044 819.55294 756.4519 811.16615 756.90625 802.78125 C 777.71291 801.30144 797.98836 805.27742 817.84375 811.28125 C 844.64655 820.64125 869.9789 833.65475 895.25 846.46875 C 918.8856 858.42775 941.8809 871.55525 963.5625 886.78125 C 970.537 891.71725 976.65185 897.57425 982.46875 903.78125 C 995.57075 917.09825 1058.352 855.34925 1045.25 842.03125 C 1035.3197 832.19025 1025.1779 822.56 1013.5938 814.625 C 988.43575 797.338 962.0581 782.033 934.75 768.375 C 904.7064 753.204 874.57165 737.83 842.53125 727.25 C 816.07555 719.62423 789.18798 714.49917 761.71875 714.40625 C 762.1768 706.27238 762.65292 698.13302 763.125 690 C 767.64854 689.39288 772.19307 688.77765 776.71875 688.1875 C 809.16255 684.2725 841.8127 680.8905 874.5 683.0625 L 882.53125 684.21875 C 901.06415 686.42075 911.4704 599.04675 892.9375 596.84375 C 888.2892 596.35675 883.61705 595.861 878.96875 595.375 C 842.12105 593.88235 805.40352 596.93676 768.875 601.78125 C 770.68354 578.27283 773.02772 554.70973 778.4375 531.84375 C 789.19384 528.81233 791.20691 494.9102 786.75 470.0625 C 803.61087 484.53558 865.01635 494.75662 868.1875 479.4375 C 871.9351 460.7975 875.51605 442.10875 878.59375 423.34375 C 885.58315 380.70775 892.6988 337.97825 895.0625 294.78125 C 895.5741 257.42725 893.0412 220.18925 861.75 194.90625 C 835.1489 179.18625 809.5177 174.963 778.75 175.875 C 743.8453 176.434 708.9832 178.70275 674.3125 182.84375 C 641.79336 187.24017 608.81407 192.27362 578.6875 205.75 C 552.28742 203.14616 512.65535 209.91544 513.5 222.5 C 518.2921 267.627 521.9273 312.86175 525.5625 358.09375 C 528.5825 395.95375 531.45035 433.8255 535.78125 471.5625 C 536.31112 475.74275 541.22923 478.40833 548.4375 479.8125 C 541.9119 481.55109 535.42929 483.4092 528.96875 485.40625 C 511.14285 491.29525 538.89285 575.3265 556.71875 569.4375 C 585.22455 559.3445 615.0618 553.791 644.75 548.5 C 659.09531 545.99361 673.47505 543.89245 687.90625 542 C 684.66392 566.06632 683.15039 590.43301 681.59375 614.625 C 658.04202 618.44347 634.54493 622.56595 611.125 627.15625 C 592.44072 630.90309 573.76653 634.74526 555.15625 638.84375 C 545.6579 632.53244 535.94726 626.53381 526 620.90625 C 491.2414 600.95725 455.6533 582.2035 423.1875 558.5625 C 398.70245 539.88882 375.4811 519.7242 352.53125 499.21875 C 352.21148 484.79704 351.9588 470.36047 351.78125 455.9375 C 380.57627 452.66445 409.42628 449.80808 438.3125 447.40625 C 455.3425 446.10025 472.3581 444.69125 489.4375 444.28125 C 508.1466 443.31725 503.61535 355.12975 484.90625 356.09375 C 466.73905 357.44475 448.60125 359.15425 430.46875 360.90625 C 404.23698 363.47674 378.02171 366.2984 351.84375 369.34375 C 352.02652 358.2971 352.28471 347.26479 352.625 336.21875 C 354.6254 281.19075 357.41425 226.1955 361.96875 171.3125 C 362.46009 160.78363 334.77131 154.85513 310.28125 155.03125 z M 782.875 262.53125 C 788.24317 262.35253 799.20262 264.38197 806.4375 266.0625 C 806.11383 267.29953 807.23852 270.16475 807.34375 271.71875 C 808.06405 282.35875 807.77745 281.595 807.59375 293.5 C 805.61225 332.366 799.2017 370.82325 792.8125 409.15625 C 790.11281 425.23453 786.90065 441.24036 783.53125 457.1875 C 780.70976 448.92679 776.8471 443.51097 772.125 443.78125 C 759.61343 444.73116 747.21435 446.47601 734.78125 448.125 C 735.80565 439.86413 736.76542 431.61163 737.71875 423.34375 C 748.53096 423.7657 759.34592 424.21387 770.15625 424.6875 C 788.85295 425.3225 791.85295 337.1975 773.15625 336.5625 C 764.03725 336.34243 754.93117 336.11148 745.8125 335.875 C 747.82561 311.91171 749.99391 287.94153 753.03125 264.09375 C 761.93188 263.7493 770.84036 263.55089 779.75 263.5 C 779.97688 262.87969 781.12095 262.58965 782.875 262.53125 z M 809.34375 266.75 C 812.99701 267.68784 814.76905 268.37748 812.3125 268.15625 C 811.03067 268.46354 810.18712 267.58405 809.34375 266.75 z M 663.875 272.4375 C 662.15437 292.70632 660.58687 312.99825 659.03125 333.28125 C 646.02067 332.86412 633.00559 332.42337 620 331.875 C 616.24163 331.79261 613.15712 335.2762 610.78125 340.90625 C 609.31578 322.36676 607.843 303.82656 606.4375 285.28125 C 609.70168 287.093 612.66309 287.57199 615.03125 286.21875 C 630.37043 278.79175 647.04933 275.08827 663.875 272.4375 z M 617.6875 420.21875 C 617.81532 420.22997 617.9327 420.24715 618.0625 420.25 C 629.02243 420.27742 639.97995 420.43543 650.9375 420.65625 C 650.2558 426.23827 649.56276 431.82805 648.84375 437.40625 C 647.86747 445.1322 662.76544 451.51498 680.40625 454.9375 C 663.38175 457.2169 646.39332 459.74454 629.46875 462.71875 C 626.94737 463.16677 624.427 463.63893 621.90625 464.09375 C 622.46596 462.96076 622.68365 461.76485 622.53125 460.5625 C 620.64883 447.14252 619.08362 433.69132 617.6875 420.21875 z "
     id="path9969" />
</svg>
