<?xml version="1.0" encoding="utf-8" ?>

<!DOCTYPE svg PUBLIC "-//W3C//DTD SVG 1.1//EN" 
  "http://www.w3.org/Graphics/SVG/1.1/DTD/svg11.dtd">
<svg 
    xmlns="http://www.w3.org/2000/svg"
    xmlns:xlink="http://www.w3.org/1999/xlink"
    xmlns:sodipodi="http://sodipodi.sourceforge.net/DTD/sodipodi-0.dtd"
    xmlns:inkscape="http://www.inkscape.org/namespaces/inkscape"
    width="1024" height="1024" id="U6821">
<path d="m 7210.559,54718.995 c 42.8089,-19.003 87.6691,-32.756 132.5087,-46.019 50.4866,-14.432 101.7781,-25.763 153.347,-35.539 22.2476,-4.12 44.5254,-8.503 67.2114,-8.822 18.8042,0.218 17.779,88.862 -1.0252,88.644 l 0,0 c -16.8453,-2.051 -34.0262,4.872 -50.6549,5.859 -48.5878,8.375 -96.8605,18.668 -144.2435,32.395 -40.0679,12.074 -80.3914,24.358 -118.1187,42.714 -16.8077,8.279 -55.8325,-70.954 -39.0248,-79.232 z" id="path11767" inkscape:connector-curvature="0" style="fill:#916f6f;fill-opacity:1;fill-rule:nonzero;stroke:#f9f9f9;stroke-width:0.1;stroke-miterlimit:4;stroke-dasharray:none" transform="translate(-7168, -54272)"/><path d="m 7432.3578,54479.18 c -2.8316,49.379 -0.016,98.921 1.8828,148.29 3.5897,78.253 6.9689,156.515 10.19,234.784 2.077,63.889 6.4847,127.643 13.4779,191.174 2.8181,25.807 7.2132,51.402 10.6078,77.131 1.9401,18.691 -86.1709,27.837 -88.111,9.146 l 0,0 c -1.5957,-25.916 -6.7194,-51.545 -8.5597,-77.445 -6.2422,-65.378 -10.3095,-130.921 -12.3433,-196.571 -3.108,-78.213 -6.5406,-156.41 -10.6547,-234.577 -2.4785,-52.959 -5.6816,-105.986 -4.5256,-159.022 1.5041,-18.675 89.5398,-11.585 88.0358,7.09 z" id="path11776" inkscape:connector-curvature="0" style="fill:#916f6f;fill-opacity:1;fill-rule:nonzero;stroke:#f9f9f9;stroke-width:0.1;stroke-miterlimit:4;stroke-dasharray:none" transform="translate(-7168, -54272)"/><path d="m 7405.676,54796.149 c -11.2308,36.645 -26.3066,71.894 -41.5544,107 -16.7402,37.203 -32.2924,74.919 -43.5073,114.174 -0.7702,-2.203 -6.0033,31.353 -3.2903,24.124 2.0229,18.657 -85.9276,28.193 -87.9505,9.536 l 0,0 c -0.9335,-19.963 1.354,-39.267 7.5052,-58.427 12.8858,-42.369 29.522,-83.356 47.6244,-123.757 13.5917,-31.728 27.3771,-63.566 36.1623,-97.038 5.1735,-18.034 90.1841,6.354 85.0106,24.388 z" id="path11778" inkscape:connector-curvature="0" style="fill:#916f6f;fill-opacity:1;fill-rule:nonzero;stroke:#f9f9f9;stroke-width:0.1;stroke-miterlimit:4;stroke-dasharray:none" transform="translate(-7168, -54272)"/><path d="m 7461.5561,54773.6 c 20.2332,23.971 42.5498,46.08 65.1378,67.808 21.0249,19.725 43.1286,38.24 64.4998,57.581 8.5424,8.009 4.4769,4.055 12.2226,11.833 13.0182,13.515 -50.691,74.883 -63.7092,61.368 l 0,0 c -4.7029,-5.174 -1.9876,-2.304 -8.2487,-8.511 -21.401,-20.199 -43.8606,-39.229 -65.2263,-59.47 -24.6285,-23.73 -48.8149,-47.928 -71.8823,-73.19 -12.1804,-14.256 55.0259,-71.675 67.2063,-57.419 z" id="path11780" inkscape:connector-curvature="0" style="fill:#916f6f;fill-opacity:1;fill-rule:nonzero;stroke:#f9f9f9;stroke-width:0.1;stroke-miterlimit:4;stroke-dasharray:none" transform="translate(-7168, -54272)"/><path d="m 7782.2328,54438.834 c 14.2949,23.836 31.3021,45.821 49.0901,67.115 12.5605,13.814 24.8553,28.499 40.4404,39.059 0.5273,0.295 1.0545,0.589 1.5817,0.884 15.5486,10.604 -34.4379,83.901 -49.9865,73.297 l 0,0 c -1.5385,-1.114 -3.077,-2.228 -4.6155,-3.342 -20.2379,-15.821 -38.0232,-34.413 -54.6248,-53.977 -20.1391,-24.285 -39.2588,-49.361 -56.602,-75.738 -10.0334,-15.85 64.6833,-63.148 74.7166,-47.298 z" id="path11783" inkscape:connector-curvature="0" style="fill:#916f6f;fill-opacity:1;fill-rule:nonzero;stroke:#f9f9f9;stroke-width:0.1;stroke-miterlimit:4;stroke-dasharray:none" transform="translate(-7168, -54272)"/><path d="m 7597.3149,54594.331 c 41.7111,-6.211 83.5967,-11.188 125.4034,-16.709 58.7173,-8.004 117.4051,-16.217 176.1755,-23.824 41.8215,-5.377 83.7468,-9.908 125.7887,-13.142 16.9237,0.905 37.0253,-4.782 53.5438,1.474 6.4539,2.445 12.4494,5.961 18.6741,8.942 15.0491,11.371 -38.5545,82.313 -53.6037,70.942 l 0,0 c 5.24,2.236 10.4025,4.663 15.7199,6.709 0.4323,0.166 1.8199,0.02 1.3834,-0.13 -9.191,-3.259 -20.4027,0.566 -29.7244,-0.585 -40.4245,2.412 -80.7301,6.41 -120.9252,11.327 -58.5493,7.282 -117.0014,15.3 -175.4006,23.7 -40.5568,5.688 -81.2806,10.648 -121.5152,18.341 -18.4651,3.292 -33.9848,-83.753 -15.5197,-87.045 z" id="path11786" inkscape:connector-curvature="0" style="fill:#916f6f;fill-opacity:1;fill-rule:nonzero;stroke:#f9f9f9;stroke-width:0.1;stroke-miterlimit:4;stroke-dasharray:none" transform="translate(-7168, -54272)"/><path d="m 7788.5173,54657.556 c -16.3156,31.992 -29.5225,65.486 -43.1572,98.68 -16.4761,41.473 -34.2415,82.434 -50.1397,124.135 5.136,-7.861 -10.0714,21.884 -4.553,16.552 -2.6441,18.594 -90.2955,6.13 -87.6514,-12.464 l 0,0 c 2.4659,-12.424 5.6388,-24.475 10.8613,-36.099 16.87,-41.66 35.0117,-82.8 51.3541,-124.678 14.3597,-35.733 28.3502,-71.664 44.596,-106.595 8.5848,-16.692 87.2747,23.777 78.6899,40.469 z" id="path11868" inkscape:connector-curvature="0" style="fill:#916f6f;fill-opacity:1;fill-rule:nonzero;stroke:#f9f9f9;stroke-width:0.1;stroke-miterlimit:4;stroke-dasharray:none" transform="translate(-7168, -54272)"/><path d="m 7986.2435,54603.338 c 10.9758,31.853 23.8916,62.991 37.0813,93.976 17.7313,41.269 37.0608,81.83 57.3946,121.874 8.5696,16.379 17.2388,32.733 27.7756,47.946 10.2462,15.707 -63.7951,64.008 -74.0413,48.301 l 0,0 c -11.5694,-18.505 -21.8619,-37.734 -31.5908,-57.267 -20.6352,-41.778 -40.5333,-83.925 -59.2112,-126.617 -14.1004,-32.521 -27.7531,-65.229 -40.7224,-98.22 -6.3625,-17.674 76.9517,-47.667 83.3142,-29.993 z" id="path11870" inkscape:connector-curvature="0" style="fill:#916f6f;fill-opacity:1;fill-rule:nonzero;stroke:#f9f9f9;stroke-width:0.1;stroke-miterlimit:4;stroke-dasharray:none" transform="translate(-7168, -54272)"/><path d="m 7999.3928,54851.446 c -31.7464,27.373 -58.7094,59.8 -86.0147,91.46 -43.9983,52.161 -87.997,104.315 -132.9782,155.633 -27.0769,30.763 -54.6365,61.096 -82.3375,91.297 -6.6841,7.367 -13.5056,14.608 -20.5008,21.68 -13.4667,13.175 -75.5733,-50.308 -62.1066,-63.483 l 0,0 c 6.3771,-5.98 12.5896,-12.136 18.6276,-18.459 27.8453,-28.774 55.3289,-57.902 81.9803,-87.79 45.0095,-50.688 88.7487,-102.464 132.0187,-154.643 30.3682,-35.898 60.462,-72.356 95.3018,-104.079 14.5063,-11.881 70.5158,56.502 56.0094,68.384 z" id="path11880" inkscape:connector-curvature="0" style="fill:#916f6f;fill-opacity:1;fill-rule:nonzero;stroke:#f9f9f9;stroke-width:0.1;stroke-miterlimit:4;stroke-dasharray:none" transform="translate(-7168, -54272)"/><path d="m 7775.0602,54781.912 c 27.9433,34.709 53.3263,71.377 80.4134,106.759 41.1337,52.945 88.4574,100.525 136.1282,147.498 32.5013,31.69 64.5346,63.861 97.545,95.025 13.3624,12.908 -47.491,75.9 -60.8534,62.991 l 0,0 c -32.5654,-32.154 -64.4166,-65.023 -97.0308,-97.129 -50.0654,-49.89 -99.8355,-100.296 -143.7002,-155.85 -25.7197,-32.919 -50.0253,-67.017 -77.1512,-98.789 -12.835,-13.714 51.814,-74.219 64.649,-60.505 z" id="path11884" inkscape:connector-curvature="0" style="fill:#916f6f;fill-opacity:1;fill-rule:nonzero;stroke:#f9f9f9;stroke-width:0.1;stroke-miterlimit:4;stroke-dasharray:none" transform="translate(-7168, -54272)"/></svg>