<?xml version="1.0" encoding="UTF-8" standalone="no"?>
<svg
   xmlns:dc="http://purl.org/dc/elements/1.1/"
   xmlns:cc="http://creativecommons.org/ns#"
   xmlns:rdf="http://www.w3.org/1999/02/22-rdf-syntax-ns#"
   xmlns:svg="http://www.w3.org/2000/svg"
   xmlns="http://www.w3.org/2000/svg"
   xmlns:sodipodi="http://sodipodi.sourceforge.net/DTD/sodipodi-0.dtd"
   xmlns:inkscape="http://www.inkscape.org/namespaces/inkscape"
   width="1024"
   height="1024"
   id="U6837"
   version="1.1"
   inkscape:version="0.48.0 r9654"
   sodipodi:docname="U+6837.svg">
  <metadata
     id="metadata17">
    <rdf:RDF>
      <cc:Work
         rdf:about="">
        <dc:format>image/svg+xml</dc:format>
        <dc:type
           rdf:resource="http://purl.org/dc/dcmitype/StillImage" />
      </cc:Work>
    </rdf:RDF>
  </metadata>
  <defs
     id="defs15" />
  <sodipodi:namedview
     pagecolor="#ffffff"
     bordercolor="#666666"
     borderopacity="1"
     objecttolerance="10"
     gridtolerance="10"
     guidetolerance="10"
     inkscape:pageopacity="0"
     inkscape:pageshadow="2"
     inkscape:window-width="640"
     inkscape:window-height="480"
     id="namedview13"
     showgrid="false"
     inkscape:zoom="0.27441406"
     inkscape:cx="512"
     inkscape:cy="512"
     inkscape:window-x="0"
     inkscape:window-y="25"
     inkscape:window-maximized="0"
     inkscape:current-layer="U6837" />
  <path
     style="fill:#916f6f;fill-opacity:1;fill-rule:nonzero;stroke:#f9f9f9;stroke-width:0.1;stroke-miterlimit:4;stroke-dasharray:none"
     d="M 745.1875 188.1875 C 743.17931 188.2018 741.4946 188.75538 740.25 190 C 716.2283 215.928 693.75315 243.213 671.15625 270.375 C 655.80305 289.08686 640.24672 307.6433 624.375 325.90625 C 615.0776 316.04827 605.98914 305.9907 597.28125 295.59375 C 575.96635 270.46575 555.12975 244.93275 534.21875 219.46875 C 521.84705 205.35275 455.3158 263.6965 467.6875 277.8125 C 489.3368 302.0475 509.8814 327.22275 530.9375 351.96875 C 543.4487 366.88075 556.6428 381.19575 570 395.34375 C 575.07204 400.66875 588.09292 394.35457 601.15625 384 C 604.34844 388.09808 608.16802 392.31108 612.3125 396.375 C 579.04643 400.22805 545.90343 405.09353 513 411.5 C 484.9827 416.8791 457.04926 422.86327 428.96875 427.90625 C 427.80961 427.21552 426.59156 426.87666 425.3125 426.96875 C 405.8812 428.75075 386.5064 430.994 367.125 433.25 C 354.51605 434.64226 341.90774 435.95364 329.28125 437.15625 C 329.46209 392.673 328.57098 347.85989 334.75 303.71875 C 337.7615 285.19875 250.4489 270.98 247.4375 289.5 C 241.987 339.693 243.51805 390.32575 243.84375 440.71875 C 243.84576 441.61392 243.84142 442.51109 243.84375 443.40625 C 238.70813 443.65319 233.57673 443.86876 228.4375 444.0625 C 195.7044 445.0655 163.01475 444.87625 130.28125 443.90625 C 111.50885 444.23625 113.0401 532.73625 131.8125 532.40625 C 151.48808 532.2552 171.14873 532.17068 190.8125 531.875 C 182.42136 555.69095 175.86998 580.20518 168.96875 604.4375 C 156.61345 650.5845 140.31045 695.432 121.09375 739.125 C 113.37935 756.1 104.9551 772.741 96.0625 789.125 C 87.5226 805.758 165.92885 846.009 174.46875 829.375 C 183.46285 810.908 192.4756 792.431 200.75 773.625 C 218.27179 732.62518 233.81601 690.86252 246.5 648.125 C 246.77902 662.33393 247.04991 676.54127 247.34375 690.75 C 247.80215 745.852 251.4326 800.98475 250.0625 856.09375 C 241.82591 851.88079 252.50308 869.31304 248.8125 871.40625 C 255.26722 889.10081 326.56474 912.72785 332.3125 896.40625 C 335.7322 883.28925 338.12765 870.571 337.40625 856.875 C 337.13735 800.821 333.19835 744.8555 332.21875 688.8125 C 332.11878 684.90939 332.03483 680.99694 331.9375 677.09375 C 341.61379 684.57885 351.30044 692.03384 360.84375 699.6875 C 376.64611 712.89046 392.24603 726.38575 407.3125 740.4375 C 402.9828 766.5434 409.01054 810.83052 422.3125 810.1875 C 462.002 806.3055 501.31075 799.58675 540.65625 793.21875 C 556.9315 790.44242 573.26686 788.07343 589.625 786 C 589.68473 789.45681 589.71706 792.91825 589.78125 796.375 C 590.76705 838.665 592.1907 881.1295 599.875 922.8125 C 600.8118 926.3685 601.7506 929.944 602.6875 933.5 C 608.013 951.47 692.73175 926.346 687.40625 908.375 C 686.97085 907.301 686.52915 906.23125 686.09375 905.15625 C 677.49335 868.97825 677.44765 831.33525 675.53125 794.40625 C 675.37868 788.82419 675.25984 783.2387 675.125 777.65625 C 687.5755 776.74377 700.03572 775.91963 712.5 775.1875 C 763.8278 772.8405 815.22125 772.5125 866.59375 772.5625 C 881.24895 773.0515 895.8311 772.56175 910.4375 771.46875 C 929.0386 769.62675 920.3511 681.93925 901.75 683.78125 C 889.8941 685.50425 877.94005 685.53375 865.96875 685.59375 C 813.09925 686.36875 760.23045 686.884 707.40625 689.375 C 696.19475 690.04642 684.98317 690.76507 673.78125 691.5625 C 673.63327 667.28993 673.72234 643.02263 674 618.75 C 682.43117 618.09675 690.89087 617.69948 699.375 617.625 C 707.9394 617.72 716.4609 618.325 724.9375 619.5 C 743.5327 621.584 753.3452 533.92875 734.75 531.84375 C 722.4145 530.64275 710.06735 529.77075 697.65625 529.96875 C 690.29913 530.17163 682.9523 530.55686 675.625 531.0625 C 676.07116 512.92534 676.62793 494.77893 677.4375 476.65625 C 680.47618 476.41141 683.52277 476.1688 686.5625 475.9375 C 721.9117 473.2695 757.396 473.196 792.6875 476.5 C 800.0374 477.159 807.3404 478.19875 814.5 479.96875 C 832.876 483.69375 850.40735 397.06775 832.03125 393.34375 C 821.38095 391.40075 810.6968 389.7425 799.875 389.0625 C 761.19935 386.23813 722.41909 386.46695 683.75 389.46875 C 702.03032 368.61818 719.94325 347.4694 737.65625 326.125 C 758.77615 301.104 779.70775 275.79975 802.84375 252.59375 C 814.87485 240.56238 764.59996 188.04927 745.1875 188.1875 z M 248.8125 871.40625 C 248.39063 870.24977 248.26926 869.12417 248.4375 868.03125 C 247.9551 869.66643 247.04751 871.78178 248.28125 871.59375 C 248.48655 871.56248 248.65917 871.49322 248.8125 871.40625 z M 248.4375 868.03125 C 248.55287 867.64018 248.66046 867.26597 248.6875 866.96875 C 248.56543 867.3154 248.49217 867.6761 248.4375 868.03125 z M 589.96875 486.09375 C 589.67694 505.34067 589.4228 524.59564 589.21875 543.84375 C 559.24855 550.01075 529.29785 557.2135 498.71875 559.5625 C 480.02865 561.2335 487.90365 649.32725 506.59375 647.65625 C 534.18373 644.52741 561.35864 638.79314 588.5 633.03125 C 588.42832 655.14993 588.46107 677.25688 588.59375 699.375 C 568.09014 701.74746 547.61587 704.49909 527.21875 707.8125 C 517.77879 709.25587 508.3556 710.74189 498.90625 712.1875 C 499.1871 709.81393 498.74788 707.82565 497.40625 706.34375 C 494.52815 703.25275 491.65945 700.1525 488.78125 697.0625 C 465.30735 674.2395 440.6636 652.6235 415.5 631.6875 C 393.4149 613.9005 370.51425 597.04775 349.40625 578.09375 C 345.57744 574.60019 338.26602 577.0712 329.96875 582.71875 C 329.65571 563.1783 329.39429 543.6361 329.25 524.09375 C 344.93452 522.70249 360.61421 521.21388 376.28125 519.625 C 388.47725 518.36134 400.65489 517.09767 412.875 516.125 C 415.12954 518.4556 417.52487 519.60961 419.96875 519.1875 C 456.60425 511.9205 493.03765 503.69575 529.65625 496.34375 C 549.66704 492.30254 569.78017 488.93891 589.96875 486.09375 z "
     id="path13055" />
</svg>
