<?xml version="1.0" encoding="UTF-8" standalone="no"?>
<svg
   xmlns:dc="http://purl.org/dc/elements/1.1/"
   xmlns:cc="http://creativecommons.org/ns#"
   xmlns:rdf="http://www.w3.org/1999/02/22-rdf-syntax-ns#"
   xmlns:svg="http://www.w3.org/2000/svg"
   xmlns="http://www.w3.org/2000/svg"
   xmlns:sodipodi="http://sodipodi.sourceforge.net/DTD/sodipodi-0.dtd"
   xmlns:inkscape="http://www.inkscape.org/namespaces/inkscape"
   width="1024"
   height="1024"
   id="U6905"
   version="1.1"
   inkscape:version="0.48.0 r9654"
   sodipodi:docname="U+6905.svg">
  <metadata
     id="metadata19">
    <rdf:RDF>
      <cc:Work
         rdf:about="">
        <dc:format>image/svg+xml</dc:format>
        <dc:type
           rdf:resource="http://purl.org/dc/dcmitype/StillImage" />
      </cc:Work>
    </rdf:RDF>
  </metadata>
  <defs
     id="defs17" />
  <sodipodi:namedview
     pagecolor="#ffffff"
     bordercolor="#666666"
     borderopacity="1"
     objecttolerance="10"
     gridtolerance="10"
     guidetolerance="10"
     inkscape:pageopacity="0"
     inkscape:pageshadow="2"
     inkscape:window-width="640"
     inkscape:window-height="480"
     id="namedview15"
     showgrid="false"
     inkscape:zoom="0.27441406"
     inkscape:cx="512"
     inkscape:cy="512"
     inkscape:window-x="0"
     inkscape:window-y="25"
     inkscape:window-maximized="0"
     inkscape:current-layer="U6905" />
  <path
     style="fill:#2b1100;fill-opacity:1;fill-rule:nonzero;stroke:none"
     d="M 231.46875 116.71875 C 209.3402 117.12112 187.29805 122.2365 187.46875 131.625 C 191.24515 176.907 195.91965 222.08425 199.28125 267.40625 C 200.3372 283.53507 201.19802 299.67129 201.9375 315.8125 C 196.61233 316.81156 191.30428 317.80332 185.96875 318.75 C 154.44435 323.998 122.64695 329.3 90.59375 329.25 C 71.81355 329.078 71.00105 417.60825 89.78125 417.78125 C 127.01265 416.61825 163.83785 410.55975 200.46875 404.21875 C 201.87547 403.9642 203.28153 403.6959 204.6875 403.4375 C 204.87472 413.81647 205.01525 424.21319 205.125 434.59375 C 181.39676 423.2595 145.61878 416.0858 141.875 427.5 C 131.6206 462.751 119.56355 497.40675 107.21875 531.96875 C 92.52575 572.10075 77.94555 612.26975 63.09375 652.34375 C 55.33825 671.34475 48.6198 690.36125 46.4375 710.78125 C 46.107175 728.8426 127.79632 731.04727 134.6875 714.5625 C 132.0505 726.83195 142.67817 681.33066 145.15625 682.15625 C 159.49545 641.80725 173.91915 601.4725 188.78125 561.3125 C 194.39375 545.81004 199.89569 530.27714 205.34375 514.71875 C 205.32412 521.53448 205.31524 528.3411 205.28125 535.15625 C 204.38685 615.24325 202.16105 695.31425 201.65625 775.40625 C 202.29065 814.67625 200.77545 854.4735 208.46875 893.1875 C 210.31995 897.8545 212.1488 902.5205 214 907.1875 C 222.32903 922.86138 292.47832 886.73094 293.03125 868.625 C 284.86634 840.23514 290.7825 803.89654 287.40625 775.4375 C 287.02162 707.15761 288.22604 638.89711 289.0625 570.625 C 312.83606 593.8518 337.30856 616.33157 362.5625 637.9375 C 369.9934 644.2455 377.53405 650.4595 385.03125 656.6875 C 395.69262 665.30597 428.23425 630.85392 439.25 607.125 C 452.4722 610.48566 467.60109 612.25617 479.0625 611.46875 C 487.46233 630.33265 499.22204 646.48971 507.34375 643.125 C 543.72635 626.363 581.95625 614.3805 620.40625 603.4375 C 664.78805 591.1695 709.8899 581.7375 755.25 573.9375 C 779.7765 569.4685 804.68935 568.33475 829.40625 565.46875 L 836.40625 564.53125 C 854.97115 561.79325 842.0648 474.262 823.5 477 C 821.7329 477.29 819.9546 477.584 818.1875 477.875 C 809.94309 479.0612 801.68854 480.01819 793.40625 480.9375 C 805.23989 463.626 813.06903 444.64763 805.8125 439.46875 C 796.4077 432.91475 801.34265 436.34575 791.03125 429.09375 C 768.77615 413.23675 746.7591 397.0155 727.4375 377.5625 C 713.01628 363.19099 698.50022 348.65107 686.21875 332.375 C 694.05209 331.21145 701.88411 330.02957 709.71875 328.875 C 743.27215 323.973 777.01175 319.81025 810.96875 320.28125 C 819.61425 320.74825 815.92925 320.30475 822.03125 321.21875 C 840.71855 322.91675 848.71845 234.823 830.03125 233.125 C 817.68855 232.299 824.13525 232.588 810.71875 232.375 C 772.51885 232.965 734.5848 237.4245 696.875 243.4375 C 674.10194 246.9278 651.31599 250.43091 628.53125 253.84375 C 637.6808 223.51079 646.65 193.12017 656.375 162.96875 C 662.1717 145.12175 578.0466 117.80825 572.25 135.65625 C 560.2964 178.57725 548.40425 221.52475 535.65625 264.21875 C 535.3654 265.17975 535.07423 266.13347 534.78125 267.09375 C 533.93713 267.20347 533.09421 267.32842 532.25 267.4375 C 492.8846 273.0825 453.61425 279.3055 414.90625 288.5625 C 412.21845 289.20139 410.35867 291.61738 409.21875 295.25 C 407.6966 294.56655 406.1784 293.8711 404.65625 293.1875 C 376.28915 286.4135 347.51535 288.116 318.90625 293.25 C 308.01408 295.11663 297.16246 297.13607 286.3125 299.21875 C 285.81469 286.71156 285.24222 274.22114 284.59375 261.71875 C 281.97805 217.79775 278.07935 173.94 275.96875 130 C 275.79805 120.612 253.5973 116.31638 231.46875 116.71875 z M 293.03125 868.625 C 293.46015 870.11632 293.92749 871.58605 294.4375 873.03125 C 293.97593 871.37581 293.52407 869.71824 293.0625 868.0625 C 293.07258 868.2513 293.03714 868.43202 293.03125 868.625 z M 412.40625 338.5625 C 417.7061 358.63689 426.77872 376.66836 435.375 374.625 C 457.72262 368.24242 480.44809 363.55955 503.3125 359.59375 C 491.0033 392.78042 477.87983 425.66684 464.4375 458.40625 C 450.0634 494.45125 432.6423 529.134 416.75 564.5 C 416.14761 566.11139 415.93645 566.66701 415.5 567.8125 C 392.76484 548.68396 370.77997 528.68088 349.59375 507.84375 C 329.40285 487.88375 309.029 467.90675 291.25 445.71875 C 290.73084 445.06818 290.10815 444.57283 289.375 444.1875 C 289.25396 425.14138 289.0746 406.10534 288.75 387.0625 C 303.47928 384.25081 318.2417 381.57562 333.0625 379.25 C 346.45237 378.14517 362.35404 374.33313 375.6875 376.96875 C 376.35152 377.27718 377.07343 377.47924 377.8125 377.53125 L 376.4375 377.125 C 376.97666 377.24236 377.50128 377.39131 378.03125 377.53125 C 387.54517 377.88384 402.63158 358.33083 412.40625 338.5625 z M 378.03125 377.53125 C 377.97848 377.52929 377.92743 377.53444 377.875 377.53125 L 380.53125 378.28125 C 379.71556 377.99823 378.87234 377.75335 378.03125 377.53125 z M 617.09375 342.625 C 606.03098 351.6604 598.91779 360.96537 602.34375 366.59375 C 620.44215 393.39375 642.9761 416.7035 665.8125 439.4375 C 684.59431 458.3236 705.3752 474.8483 726.65625 490.75 C 683.0318 498.96855 639.66381 508.48038 596.84375 520.25 C 571.64413 527.36776 546.59021 534.96397 521.84375 543.46875 C 529.56003 526.00868 537.14273 508.49228 543.96875 490.65625 C 563.23559 442.53193 582.03129 394.17086 599.09375 345.21875 C 605.0926 344.34607 611.09626 343.50701 617.09375 342.625 z M 845.25 601.09375 C 819.18622 601.2779 785.44387 609.77 786.84375 621.40625 C 792.33675 658.05925 798.4025 694.6185 803.625 731.3125 C 810.2184 777.8725 813.603 824.79325 814.6875 871.78125 C 814.9103 902.65225 814.3304 933.68125 808.25 964.03125 C 805.3414 975.35525 806.8632 969.82925 803.625 980.65625 C 798.481 998.61225 883.13725 1022.8622 888.28125 1004.9062 C 892.72385 988.91525 890.61095 997.19375 894.59375 979.96875 C 900.95315 943.48975 902.23015 906.52325 901.34375 869.53125 C 899.90795 819.30325 896.3181 769.15075 889.5 719.34375 C 884.5555 683.17975 878.6202 647.12775 874.625 610.84375 C 873.78507 603.86162 860.88827 600.98326 845.25 601.09375 z M 673.59375 645.25 C 652.94526 645.46394 632.70456 649.90416 612.65625 658.125 C 593.53919 665.97622 574.69396 674.6947 557.3125 685.78125 C 533.23828 677.25593 481.61292 678.53361 481.03125 692.84375 C 480.76915 726.67175 486.28505 760.0985 493.34375 793.0625 C 499.1075 819.80094 507.66563 845.67459 522.40625 868.65625 C 526.12726 894.94474 542.51915 932.41394 554.625 928.5 C 585.4739 917.443 617.0138 908.55175 648.6875 900.21875 C 675.6351 893.09475 702.76935 886.49 730.59375 884.125 L 738.375 883.6875 C 740.11082 883.56794 741.61977 882.69706 742.9375 881.21875 C 744.01827 880.81364 744.92938 880.19344 745.625 879.3125 C 760.7838 858.8965 771.7048 836.76925 775.375 811.28125 C 779.1832 781.22625 778.6832 751.0765 769.875 721.8125 C 758.7336 688.6095 741.57055 660.07275 706.40625 648.46875 C 695.32987 646.20241 684.40962 645.13794 673.59375 645.25 z M 676.96875 731.71875 C 680.38555 731.68948 683.231 732.29775 684.96875 733.96875 C 678.64145 735.61075 684.77265 744.202 686.15625 748.875 C 690.79115 765.467 690.91635 782.487 688.28125 799.375 C 688.10934 800.13394 687.93369 800.89384 687.75 801.65625 C 667.14132 805.43755 646.75289 810.39246 626.5 815.9375 C 616.83477 818.48521 607.19204 821.11031 597.5625 823.78125 C 597.48275 822.534 597.09269 821.40245 596.375 820.4375 C 585.6006 812.9095 583.2781 785.65025 578.75 774.53125 C 578.00073 771.14182 577.2662 767.71828 576.5625 764.3125 C 584.33053 769.08575 591.06502 770.94595 594.59375 767.59375 C 609.44755 754.61775 627.61275 746.5915 645.71875 739.3125 C 651.39108 737.79075 666.71834 731.80655 676.96875 731.71875 z M 292.375 865.5625 C 292.60444 866.38572 292.83306 867.20822 293.0625 868.03125 C 293.01199 867.16214 292.78416 866.33252 292.375 865.5625 z "
     id="path12023" />
</svg>
