<?xml version="1.0" encoding="UTF-8" standalone="no"?>
<svg
   xmlns:dc="http://purl.org/dc/elements/1.1/"
   xmlns:cc="http://creativecommons.org/ns#"
   xmlns:rdf="http://www.w3.org/1999/02/22-rdf-syntax-ns#"
   xmlns:svg="http://www.w3.org/2000/svg"
   xmlns="http://www.w3.org/2000/svg"
   xmlns:sodipodi="http://sodipodi.sourceforge.net/DTD/sodipodi-0.dtd"
   xmlns:inkscape="http://www.inkscape.org/namespaces/inkscape"
   width="1024"
   height="1024"
   id="U697C"
   version="1.1"
   inkscape:version="0.48.0 r9654"
   sodipodi:docname="U+697C.svg">
  <metadata
     id="metadata20">
    <rdf:RDF>
      <cc:Work
         rdf:about="">
        <dc:format>image/svg+xml</dc:format>
        <dc:type
           rdf:resource="http://purl.org/dc/dcmitype/StillImage" />
      </cc:Work>
    </rdf:RDF>
  </metadata>
  <defs
     id="defs18" />
  <sodipodi:namedview
     pagecolor="#ffffff"
     bordercolor="#666666"
     borderopacity="1"
     objecttolerance="10"
     gridtolerance="10"
     guidetolerance="10"
     inkscape:pageopacity="0"
     inkscape:pageshadow="2"
     inkscape:window-width="640"
     inkscape:window-height="480"
     id="namedview16"
     showgrid="false"
     inkscape:zoom="0.27441406"
     inkscape:cx="512"
     inkscape:cy="512"
     inkscape:window-x="0"
     inkscape:window-y="25"
     inkscape:window-maximized="0"
     inkscape:current-layer="U697C" />
  <path
     style="fill:#2b0000;fill-opacity:1;fill-rule:nonzero;stroke:#f9f9f9;stroke-width:0.1;stroke-miterlimit:4;stroke-dasharray:none"
     d="M 662.28125 163.5 C 648.4276 163.72419 637.52114 166.57741 636.6875 172.96875 C 634.33845 202.29166 630.76455 231.48588 627.0625 260.65625 C 616.96371 254.09263 607.08279 247.177 597.625 239.6875 C 578.37834 224.2765 559.92247 207.903 542.9375 190 C 529.41028 176.974 468.00403 240.75525 481.53125 253.78125 C 501.09262 272.88025 521.54586 290.94025 542.875 308.03125 C 562.93965 323.98378 584.51348 337.82941 606.3125 351.25 C 581.85431 356.10159 557.48021 361.34272 533.21875 367.125 C 518.41348 370.69212 503.63461 374.41591 488.90625 378.28125 C 500.33216 356.50363 507.7979 329.1661 498.1875 324.75 C 486.59987 321.034 475.84895 318.13 463.5625 318.625 C 433.29088 317.99 402.94976 318.22075 372.75 320.59375 C 350.30706 322.7561 327.98538 325.7494 305.78125 329.4375 C 305.7747 324.1068 305.79209 318.76858 305.8125 313.4375 C 305.98325 269.3535 306.36523 225.2575 305.03125 181.1875 C 303.88041 162.4455 215.50541 167.883 216.65625 186.625 C 219.60675 228.911 219.61147 271.3215 220.03125 313.6875 C 220.13069 324.70517 220.26586 335.73393 220.4375 346.75 C 182.12561 355.62663 143.93067 365.03836 105.40625 372.9375 C 87.061255 376.8685 105.59251 463.3685 123.9375 459.4375 C 150.32662 452.88033 176.70962 446.31767 203.125 439.875 C 182.6118 462.0368 166.73418 487.73989 152.21875 514.125 C 134.95829 547.967 117.84908 581.88825 100.6875 615.78125 C 89.447546 638.31825 76.381412 659.99925 67.90625 683.78125 C 62.921258 697.62125 63.571924 710.65025 65.90625 724.78125 C 71.062495 742.46385 152.48423 719.16333 151.53125 701.1875 C 151.7899 702.90037 152.25517 705.94832 152.5625 708.6875 C 157.553 689.64986 172.2103 673.3679 178.6875 654.96875 C 193.99914 624.24802 209.50623 593.6431 225.21875 563.125 C 225.98824 632.47581 223.82632 701.80784 222 771.125 C 220.53737 811.574 220.27706 852.02425 223.15625 892.40625 C 223.50656 905.54025 225.94187 917.97825 229.96875 930.40625 C 236.98897 947.18783 313.59343 915.79979 312.34375 897.96875 C 314.24466 905.98721 309.58979 886.42507 310.71875 885.15625 C 307.12509 847.87625 307.11167 810.45425 308.0625 773.03125 C 309.34192 701.12025 311.05778 629.20725 310 557.28125 C 309.96819 555.60545 309.93924 553.92578 309.90625 552.25 C 325.54422 567.47042 341.99153 581.86322 358.65625 595.96875 C 385.93644 618.26275 414.21152 639.2985 441.8125 661.1875 C 447.20154 666.3415 454.36976 669.9795 458.71875 676.1875 C 471.65423 689.7575 535.62297 628.78875 522.6875 615.21875 C 519.66829 612.24809 516.62108 609.33346 513.5 606.5 C 529.96455 584.4611 549.85541 565.15522 568.09375 544.625 C 581.4292 530.47061 594.95819 516.44716 608.96875 502.9375 C 609.30434 522.08517 610.40148 541.20176 612.25 560.28125 C 613.23378 579.39625 618.11234 596.03825 628.625 611.90625 C 640.38286 625.87488 704.47619 572.70325 697.625 556.15625 C 700.51163 560.93506 701.90404 563.64581 702.53125 564.96875 C 701.64816 562.76923 699.92172 557.50863 699.71875 550.84375 C 697.53094 532.88498 696.30138 514.84599 695.90625 496.78125 C 715.04727 508.81306 733.67266 521.61281 752.03125 534.8125 C 768.79654 546.8281 784.2659 560.39896 799.1875 574.5625 C 773.36828 572.67536 725.44848 586.03844 728.25 599.8125 C 732.50154 618.41528 735.19878 637.23362 734.90625 656.3125 C 725.46955 656.66213 716.0281 657.0216 706.59375 657.4375 C 680.216 658.92768 653.84865 660.77667 627.5625 663.375 C 629.393 657.1381 631.22651 650.89285 633.0625 644.65625 C 638.82183 626.80225 554.66559 599.67725 548.90625 617.53125 C 543.83705 637.3749 538.39202 657.10137 532.5625 676.71875 C 502.9732 681.97596 473.46153 687.67969 444.03125 693.78125 C 425.71679 697.85125 444.90429 784.195 463.21875 780.125 C 476.02703 776.99058 488.88402 774.08256 501.78125 771.34375 C 501.44811 772.46745 501.10421 773.592 500.78125 774.71875 C 492.9157 803.48375 496.59776 819.19275 515.3125 843.09375 C 531.55712 858.64075 552.55337 866.9325 572.75 875.9375 C 577.08793 877.97428 581.37302 880.11173 585.625 882.3125 C 584.7627 883.35334 583.8947 884.39763 583.03125 885.4375 C 570.18 900.5765 555.35381 913.80175 541 927.46875 C 539.36266 928.878 538.51698 929.64467 538.1875 929.9375 C 538.65882 929.57819 540.40373 928.19671 541.96875 927.0625 C 528.6582 939.12863 568.74792 1013.388 584.96875 1004.75 C 591.65658 1000.796 597.94526 996.36325 603.15625 990.53125 C 619.14716 974.20925 636.00867 958.69775 650.5 940.96875 C 654.61212 935.93581 658.7161 930.88968 662.8125 925.84375 C 686.60383 938.30525 710.88567 949.87402 735.28125 961.09375 C 753.97039 969.30175 772.75924 977.25075 791.21875 985.96875 C 793.21147 986.35459 803.6847 994.46311 801.0625 992.3125 C 816.49179 1001.3478 877.34511 944.40653 864.96875 931 C 854.20632 920.438 841.9692 912.225 828.3125 905.75 C 809.58467 897.253 790.51635 889.53775 771.65625 881.34375 C 753.84646 873.28807 736.13761 864.97625 718.65625 856.21875 C 720.10852 854.38867 721.54893 852.54973 723 850.71875 C 746.70958 820.00875 770.86757 789.495 791.1875 756.375 C 793.9369 751.41329 796.58272 746.42071 799.125 741.375 C 808.92051 741.14937 818.70527 740.93504 828.5 740.6875 C 844.64827 740.7955 860.97134 739.51175 877.09375 740.96875 C 895.91057 741.68775 899.28558 652.97 880.46875 652.25 C 862.21739 652.088 843.95805 652.53925 825.71875 653.15625 C 824.73975 653.19378 823.76027 653.21307 822.78125 653.25 C 822.53126 632.38916 820.3512 611.74934 816.6875 591.21875 C 822.67655 597.05978 829.73462 605.41948 832.125 608.84375 C 841.47117 625.17075 918.43992 581.10825 909.09375 564.78125 C 899.53863 549.38025 887.10539 536.39525 873.65625 524.28125 C 851.32347 502.79825 828.34659 482.00225 803.125 463.90625 C 780.49637 447.58288 757.42578 431.90421 734.125 416.5625 C 762.10895 412.45635 790.2038 409.23207 818.40625 406.9375 C 838.63036 405.5205 858.88959 404.326 879.15625 403.75 C 897.4083 404.039 874.48684 405.114 865.15625 394.75 C 860.71417 389.81643 858.03083 383.61259 854.84375 377.75 C 867.83945 390.62653 943.72636 371.97656 939.75 354.75 C 935.42563 346.732 932.62113 337.6795 926.78125 330.6875 C 914.47162 315.9495 893.38167 314.7515 875.96875 315.4375 C 854.21529 316.3605 832.50829 317.9995 810.8125 319.8125 C 796.8904 321.10057 782.99974 322.61108 769.125 324.28125 C 776.59575 317.13753 784.08947 310.01022 791.6875 303 C 813.07172 283.179 834.23434 263.06825 856.65625 244.40625 C 870.75659 232.03325 812.41283 165.5635 798.3125 177.9375 C 776.05675 197.9975 754.25204 218.53725 732.28125 238.90625 C 726.59943 244.13456 720.96363 249.39371 715.34375 254.6875 C 718.47152 231.27338 721.52486 207.8653 724.3125 184.40625 C 725.90399 172.20525 688.72913 163.07201 662.28125 163.5 z M 152.5625 708.6875 C 152.33877 709.54097 152.15205 710.38495 151.96875 711.25 C 152.98839 714.0129 152.91756 711.85207 152.5625 708.6875 z M 420.71875 405.84375 C 422.01156 405.84221 423.30092 405.86976 424.59375 405.875 C 422.58268 430.14851 442.01364 483.45402 456.375 479.0625 C 481.01306 470.82313 506.01531 463.76338 531.15625 457.21875 C 522.24756 466.35818 513.40662 475.55888 504.65625 484.84375 C 484.23108 507.16394 462.98865 528.81529 444.09375 552.46875 C 434.33684 544.89803 424.64216 537.26467 415.0625 529.46875 C 392.77684 510.52475 370.63334 491.20675 351.9375 468.59375 C 345.81713 461.33457 325.46846 472.36109 308.4375 486.875 C 307.87065 463.5847 307.31111 440.29158 306.84375 417 C 331.30898 412.67412 355.92387 409.27956 380.71875 407.125 C 394.03879 406.258 407.37376 405.85963 420.71875 405.84375 z M 714.03125 419.6875 C 708.43405 424.56667 702.45017 431.68289 697.03125 439.53125 C 697.27568 433.80843 697.54829 428.09502 697.84375 422.375 C 698.76065 422.21888 699.67676 422.06174 700.59375 421.90625 C 705.06861 421.13568 709.55028 420.41359 714.03125 419.6875 z M 222.3125 435.21875 C 222.32052 435.54186 222.33571 435.86439 222.34375 436.1875 C 221.89979 435.95583 221.46479 435.73842 221.03125 435.53125 C 221.45859 435.42817 221.88514 435.32174 222.3125 435.21875 z M 702.53125 565 C 702.74562 565.53156 702.92403 565.83286 703 565.96875 C 702.95107 565.83831 702.70657 565.37095 702.53125 565 z M 513.09375 589.34375 C 513.42391 594.72948 514.02588 600.13223 513.59375 605.5 C 513.56536 605.85262 513.50233 606.14627 513.46875 606.46875 C 510.72292 603.97684 507.93376 601.53582 505.0625 599.1875 C 509.49836 595.89899 512.45221 592.52401 513.09375 589.34375 z M 693.84375 744.84375 C 681.00177 762.73163 667.39293 780.08918 653.96875 797.53125 C 649.89815 802.70529 645.80987 807.8416 641.71875 813 C 631.01508 806.91631 620.1808 801.0652 609.03125 795.8125 C 602.63605 792.87239 595.77447 789.6821 589.125 786.5625 C 592.37252 775.47357 596.33958 764.55756 600.0625 753.59375 C 631.18626 749.37813 662.48585 746.75181 693.84375 744.84375 z M 585.8125 798.9375 C 586.30745 804.35643 584.40797 804.23753 585.8125 798.9375 z "
     id="path10262" />
</svg>
