<?xml version="1.0" encoding="UTF-8" standalone="no"?>
<svg
   xmlns:dc="http://purl.org/dc/elements/1.1/"
   xmlns:cc="http://creativecommons.org/ns#"
   xmlns:rdf="http://www.w3.org/1999/02/22-rdf-syntax-ns#"
   xmlns:svg="http://www.w3.org/2000/svg"
   xmlns="http://www.w3.org/2000/svg"
   xmlns:sodipodi="http://sodipodi.sourceforge.net/DTD/sodipodi-0.dtd"
   xmlns:inkscape="http://www.inkscape.org/namespaces/inkscape"
   width="1024"
   height="1024"
   id="U6B21"
   version="1.1"
   inkscape:version="0.48.0 r9654"
   sodipodi:docname="U+6B21.svg">
  <metadata
     id="metadata13">
    <rdf:RDF>
      <cc:Work
         rdf:about="">
        <dc:format>image/svg+xml</dc:format>
        <dc:type
           rdf:resource="http://purl.org/dc/dcmitype/StillImage" />
      </cc:Work>
    </rdf:RDF>
  </metadata>
  <defs
     id="defs11" />
  <sodipodi:namedview
     pagecolor="#ffffff"
     bordercolor="#666666"
     borderopacity="1"
     objecttolerance="10"
     gridtolerance="10"
     guidetolerance="10"
     inkscape:pageopacity="0"
     inkscape:pageshadow="2"
     inkscape:window-width="640"
     inkscape:window-height="480"
     id="namedview9"
     showgrid="false"
     inkscape:zoom="0.27441406"
     inkscape:cx="512"
     inkscape:cy="512"
     inkscape:window-x="0"
     inkscape:window-y="25"
     inkscape:window-maximized="0"
     inkscape:current-layer="U6B21" />
  <path
     style="fill:#800000;fill-opacity:1;fill-rule:nonzero;stroke:#f9f9f9;stroke-width:0.1;stroke-miterlimit:4;stroke-dasharray:none"
     d="M 458.78125 153.09375 C 455.26633 153.24396 452.67278 154.32749 451.375 156.59375 C 434.62051 188.88735 422.78522 223.43195 411.25 257.84375 C 399.93638 292.84995 388.48111 327.85305 379.21875 363.46875 C 374.76174 381.34345 459.01173 402.34345 463.46875 384.46875 C 471.39679 350.89045 482.43366 318.1388 492.96875 285.3125 C 494.01187 282.21801 495.04466 279.09886 496.09375 276 C 501.38956 282.50498 506.67826 286.08129 510.90625 284.28125 C 524.79395 278.11267 539.26179 273.64353 553.96875 270 C 538.5837 313.28674 525.92016 357.50907 511.75 401.21875 C 488.14613 474.75465 458.8819 546.2534 428.34375 617.125 C 405.26901 668.8765 380.15163 719.69065 353.4375 769.65625 C 349.62167 773.67965 346.61908 785.8529 340.5625 788.6875 C 328.28033 802.5863 393.78033 860.49255 406.0625 846.59375 C 415.40244 835.02055 423.87418 823.13305 430.03125 809.46875 C 450.01273 769.9367 469.37633 730.06354 487.875 689.8125 C 483.82897 701.66767 483.02161 711.63111 488.28125 714.5 C 522.3714 731.1478 557.63461 745.21345 592.84375 759.28125 C 636.53487 776.27245 680.20806 793.2471 723.125 812.125 C 746.65188 822.6052 769.53848 834.43695 792.0625 846.90625 C 808.28154 855.69995 849.71905 779.2312 833.5 770.4375 C 808.58968 757.1837 783.38915 744.4994 757.5 733.25 C 713.72858 714.344 669.27531 697.11515 624.9375 679.59375 C 592.95047 666.59155 560.75162 653.79875 530.1875 637.65625 C 522.26429 633.3345 508.30556 649.2722 497.90625 667.8125 C 500.52508 661.9921 503.10713 656.14999 505.6875 650.3125 C 537.00545 577.123 567.26879 503.45265 592.34375 427.84375 C 606.28182 386.36775 619.02273 344.3935 634.5625 303.5 C 639.94149 292.13304 605.44016 271.32718 580.09375 264.25 C 583.70071 263.52758 587.30233 262.82318 590.90625 262.125 C 621.69176 256.4218 652.89353 253.4292 684.1875 254.625 C 700.23999 255.9003 716.92967 257.4582 731.3125 265.25 C 733.81012 268.0049 732.3686 275.30675 732.78125 280.15625 C 733.02819 314.04095 722.67136 346.74245 712.78125 378.78125 C 703.38982 407.77935 692.25882 436.3095 674.34375 461.125 C 664.00385 476.2824 735.47261 525.0324 745.8125 509.875 C 767.37821 477.1641 783.34599 441.68935 794.78125 404.15625 C 808.26358 360.66285 821.57592 316.16685 819.125 270.09375 C 814.29688 232.78205 803.31446 204.93065 768.53125 186.28125 C 742.56623 174.65815 715.08224 168.62345 686.5625 167.90625 C 648.96689 167.16875 611.50446 170.39745 574.53125 177.40625 C 557.68495 180.65325 540.8439 184.09021 524.21875 188.34375 C 512.22405 172.71963 475.43686 152.38198 458.78125 153.09375 z M 219.65625 236.1875 C 201.10331 236.42945 156.23325 295.87152 169.71875 306.4375 C 193.4073 325.0481 217.34649 343.32105 241.53125 361.28125 C 245.93894 364.62945 250.3423 367.99565 254.75 371.34375 C 269.38073 382.41975 321.59949 313.41975 306.96875 302.34375 L 293.125 291.90625 C 269.54992 274.34585 246.14259 256.52935 223.75 237.46875 C 222.60716 236.57333 221.22853 236.167 219.65625 236.1875 z M 266.8125 532.28125 C 265.27339 532.33577 263.91929 532.78857 262.84375 533.71875 C 237.75048 555.45835 250.27192 544.42815 225.34375 566.90625 C 196.27445 594.60545 168.61917 623.655 142.59375 654.25 C 130.73744 668.5286 198.04994 724.43485 209.90625 710.15625 C 232.63377 681.14825 258.03395 654.42395 284.625 628.96875 C 307.29141 608.50665 295.81201 618.6145 318.96875 598.625 C 331.66016 587.64888 284.97394 531.63793 266.8125 532.28125 z "
     id="path21435" />
</svg>
