<?xml version="1.0" encoding="utf-8" ?>

<!DOCTYPE svg PUBLIC "-//W3C//DTD SVG 1.1//EN" 
  "http://www.w3.org/Graphics/SVG/1.1/DTD/svg11.dtd">
<svg 
    xmlns="http://www.w3.org/2000/svg"
    xmlns:xlink="http://www.w3.org/1999/xlink"
    xmlns:sodipodi="http://sodipodi.sourceforge.net/DTD/sodipodi-0.dtd"
    xmlns:inkscape="http://www.inkscape.org/namespaces/inkscape"
    width="1024" height="1024" id="U6BCF">
<path d="m 10569.568,32964.034 c -19.524,30.272 -32.201,64.237 -44.458,97.913 -15.2,43.251 -26.3,87.778 -35.664,132.609 -4.658,22.419 -7.971,45.082 -10.645,67.813 -1.186,7.268 0.363,19.915 -1.744,-8.904 5.214,18.149 -80.341,42.729 -85.555,24.58 l 0,0 c -1.005,-10.641 -2.42,-17.457 -0.329,-27.166 3.59,-25.029 7.66,-50 13.119,-74.699 10.776,-48.496 23.168,-96.684 39.46,-143.655 14.456,-40.206 29.736,-80.395 51.963,-117.079 10.307,-15.666 84.16,32.921 73.853,48.588 z" id="path10998" inkscape:connector-curvature="0" style="fill:#c83737;fill-opacity:1;fill-rule:nonzero;stroke:#f9f9f9;stroke-width:0.1;stroke-miterlimit:4;stroke-dasharray:none" transform="translate(-10240, -32768)"/><path d="m 10518.071,33017.529 c 33.355,-2.511 66.355,-8.329 99.359,-13.575 48.986,-7.619 98.274,-13.094 147.648,-17.438 47.068,-4.324 94.288,-3.664 141.34,0.12 29.943,3.31 59.837,7.08 89.708,10.984 11.946,1.655 23.937,2.957 35.943,4.094 1.555,0.182 4.811,0.42 5.78,0.468 18.826,1.476 11.868,90.223 -6.958,88.747 l 0,0 c -2.827,-0.292 -5.647,-0.635 -8.467,-0.981 -12.79,-1.571 -25.573,-3.216 -38.313,-5.154 -28.295,-4.112 -56.637,-7.946 -85.024,-11.369 -42.076,-3.751 -84.327,-4.472 -126.455,-0.66 -47.264,4.121 -94.443,9.419 -141.298,16.948 -34.861,5.763 -69.69,11.857 -104.81,15.87 -18.679,1.794 -27.132,-86.261 -8.453,-88.054 z" id="path11000" inkscape:connector-curvature="0" style="fill:#c83737;fill-opacity:1;fill-rule:nonzero;stroke:#f9f9f9;stroke-width:0.1;stroke-miterlimit:4;stroke-dasharray:none" transform="translate(-10240, -32768)"/><path d="m 10648.835,33205.177 c -6.612,28.29 -12.574,56.721 -17.975,85.266 -6.216,33.503 -10.566,67.299 -12.657,101.304 -0.72,20.245 -0.567,41.297 9.736,59.297 9.407,11.961 23.118,19.325 36.216,26.539 21.392,11.489 44.132,19.983 67.427,26.659 29.733,7.961 60.387,7.607 90.846,6.055 40.018,-3.065 79.778,-8.686 119.548,-13.965 33.579,-4.226 66.694,-11.228 100.133,-16.338 18.297,-2.26 36.677,-3.698 54.504,-8.579 3.736,-1.311 2.123,-0.644 4.884,-1.891 17.63,-6.552 48.52,76.559 30.89,83.112 l 0,0 c -8.877,3.104 -4.223,1.598 -13.981,4.465 -20.87,5.056 -42.086,7.658 -63.455,9.613 -33.953,4.851 -67.561,11.812 -101.627,15.934 -42.076,5.479 -84.13,11.387 -126.456,14.617 -40.147,2.053 -80.517,1.888 -119.614,-8.859 -29.642,-8.623 -58.656,-19.302 -85.826,-34.13 -28.935,-16.245 -56.316,-34.83 -72.542,-64.833 -14.995,-32.815 -20.831,-67.249 -17.884,-103.377 2.558,-37.466 7.249,-74.73 14.045,-111.673 5.368,-29.017 11.444,-57.888 17.077,-86.852 3.742,-18.394 90.452,-0.758 86.711,17.636 z" id="path11006" inkscape:connector-curvature="0" style="fill:#c83737;fill-opacity:1;fill-rule:nonzero;stroke:#f9f9f9;stroke-width:0.1;stroke-miterlimit:4;stroke-dasharray:none" transform="translate(-10240, -32768)"/><path d="m 10634.18,33115.844 c 32.524,-4.549 65.294,-6.785 98.058,-8.718 43.116,-2.755 86.316,-2.278 129.415,0.307 36.21,1.893 71.442,8.905 104.75,23.189 25.593,12.055 45.037,31.435 60.981,54.333 13.47,20.346 20.204,43.472 24.385,67.238 4.542,29.798 1.198,59.835 -2.571,89.498 -6.692,45.278 -16.384,90.041 -25.46,134.884 -8.181,39.769 -15.35,79.737 -20.756,119.98 -2.593,19.988 -4.286,40.113 -3.262,60.265 0.314,7.506 2.043,14.806 3.416,22.153 4.522,20.921 -2.358,30.724 -13.646,48.707 -13.473,13.214 -75.764,-50.302 -62.29,-63.516 l 0,0 c -8.633,14.8 -10.586,13.228 -11.696,26.158 -0.165,1.925 0.472,7.713 0.418,5.781 -0.02,-0.571 -0.156,-1.131 -0.234,-1.697 -1.768,-11.433 -4.105,-22.808 -4.239,-34.439 -0.653,-25.274 1.365,-50.475 5.018,-75.49 6.055,-41.933 13.759,-83.594 22.365,-125.077 8.621,-42.638 17.649,-85.251 23.624,-128.361 2.499,-21.218 5.138,-42.731 2.413,-64.067 -1.814,-11.393 -4.467,-22.67 -10.565,-32.63 -6.047,-9.682 -13.674,-17.96 -23.802,-23.503 -23.133,-11.255 -48.88,-14.405 -74.279,-16.5 -39.499,-2.58 -79.111,-2.983 -118.628,-0.262 -30.024,1.933 -60.144,3.883 -89.801,9.184 -18.544,2.888 -32.158,-84.529 -13.614,-87.417 z" id="path11010" inkscape:connector-curvature="0" style="fill:#c83737;fill-opacity:1;fill-rule:nonzero;stroke:#f9f9f9;stroke-width:0.1;stroke-miterlimit:4;stroke-dasharray:none" transform="translate(-10240, -32768)"/><path d="m 10783.351,33189.641 c 14.575,18.948 29.376,37.718 44.372,56.334 11.43,14.251 23.743,27.789 33.975,42.947 10.134,15.824 -64.463,63.596 -74.597,47.771 l 0,0 c -6.423,-13.512 -20.268,-23.035 -27.936,-35.765 -14.721,-18.454 -29.206,-37.102 -44.325,-55.232 -11.891,-14.533 56.62,-70.588 68.511,-56.055 z" id="path11012" inkscape:connector-curvature="0" style="fill:#c83737;fill-opacity:1;fill-rule:nonzero;stroke:#f9f9f9;stroke-width:0.1;stroke-miterlimit:4;stroke-dasharray:none" transform="translate(-10240, -32768)"/><path d="m 10415.067,33314.923 c 37,-3.465 74.149,-4.821 111.268,-6.323 64.017,-2.928 127.989,-6.555 192.05,-8.393 63.645,-1.943 127.197,1.723 190.576,7.127 45.361,4.474 90.795,8.085 136.285,10.933 24.549,1.66 49.155,2.05 73.722,3.301 11.921,-0 20.649,4.03 31.753,8.532 16.221,9.599 -29.03,86.068 -45.252,76.469 l 0,0 c 16.5,5.574 14.726,4.156 8.013,3.164 -24.672,-1.844 -49.412,-2.582 -74.081,-4.501 -46.053,-3.302 -92.06,-7.196 -137.987,-11.967 -60.033,-5.434 -120.241,-9.248 -180.563,-7.447 -63.573,1.838 -127.042,5.609 -190.536,9.204 -34.86,1.804 -69.819,3.237 -104.459,7.756 -18.637,2.288 -29.426,-85.566 -10.789,-87.855 z" id="path11014" inkscape:connector-curvature="0" style="fill:#c83737;fill-opacity:1;fill-rule:nonzero;stroke:#f9f9f9;stroke-width:0.1;stroke-miterlimit:4;stroke-dasharray:none" transform="translate(-10240, -32768)"/><path d="m 10777.844,33376.255 c 12.987,22.424 23.797,45.941 33.587,69.901 5.82,14.592 11.018,29.409 16.06,44.282 5.914,17.73 -77.666,45.605 -83.579,27.875 l 0,0 c -4.303,-13.141 -8.774,-26.224 -13.843,-39.094 -8.085,-20.027 -16.939,-39.789 -28.503,-58.095 -9.518,-16.181 66.76,-61.05 76.278,-44.869 z" id="path11016" inkscape:connector-curvature="0" style="fill:#c83737;fill-opacity:1;fill-rule:nonzero;stroke:#f9f9f9;stroke-width:0.1;stroke-miterlimit:4;stroke-dasharray:none" transform="translate(-10240, -32768)"/></svg>