<?xml version="1.0" encoding="utf-8" ?>

<!DOCTYPE svg PUBLIC "-//W3C//DTD SVG 1.1//EN" 
  "http://www.w3.org/Graphics/SVG/1.1/DTD/svg11.dtd">
<svg 
    xmlns="http://www.w3.org/2000/svg"
    xmlns:xlink="http://www.w3.org/1999/xlink"
    xmlns:sodipodi="http://sodipodi.sourceforge.net/DTD/sodipodi-0.dtd"
    xmlns:inkscape="http://www.inkscape.org/namespaces/inkscape"
    width="1024" height="1024" id="U6B4C">
<path d="m 8331.2488,14500.765 c 39.6775,-7.037 79.6608,-11.007 119.887,-12.874 54.2338,-1.117 108.4779,1.031 162.6649,3.116 36.3053,1.377 72.4871,4.426 108.5143,9.043 11.9225,2.965 26.4133,1.918 37.4478,8.213 6.1221,3.493 11.5001,8.153 17.2501,12.23 12.8738,13.513 -50.8256,74.2 -63.6994,60.688 l 0,0 c 4.6019,2.871 9.0486,6.008 13.8057,8.614 0.7936,0.435 3.4933,0.82 2.6823,0.419 -5.8003,-2.872 -13.3433,-1.87 -19.3172,-3.961 -33.2332,-4.891 -66.6569,-8.104 -100.2259,-9.597 -51.6129,-2.287 -103.301,-4.455 -154.9711,-3.205 -36.2256,1.846 -72.2872,5.593 -107.777,13.364 -18.254,3.45 -34.5155,-82.601 -16.2615,-86.05 z" id="path23643" inkscape:connector-curvature="0" style="fill:#550000;fill-opacity:1;fill-rule:nonzero;stroke:#f9f9f9;stroke-width:0.1;stroke-miterlimit:4;stroke-dasharray:none" transform="translate(-8192, -14336)"/><path d="m 8395.8358,14680.399 c -0.9999,26.163 0.2989,52.331 2.7967,78.371 1.5332,12.623 2.8828,25.349 6.6888,37.523 4.7954,17.899 -79.5836,40.505 -84.3791,22.606 l 0,0 c -4.251,-17.141 -7.1121,-34.514 -8.6456,-52.126 -2.6282,-29.216 -4.0079,-58.506 -4.0741,-87.846 0.3124,-18.586 87.9257,-17.113 87.6133,1.472 z" id="path23645" inkscape:connector-curvature="0" style="fill:#550000;fill-opacity:1;fill-rule:nonzero;stroke:#f9f9f9;stroke-width:0.1;stroke-miterlimit:4;stroke-dasharray:none" transform="translate(-8192, -14336)"/><path d="m 8391.1142,14646.91 c 30.9216,-14.458 64.6279,-19.027 98.311,-21.336 31.0643,-1.524 62.1678,0.351 92.5292,7.109 42.249,13.258 56.1873,38.742 50.6976,81.863 -6.31,24.144 -16.362,47.125 -25.9308,70.117 -4.458,10.965 -9.6238,21.597 -14.9184,32.173 -8.3469,16.503 -86.1396,-22.845 -77.7927,-39.348 l 0,0 c 4.4272,-8.63 8.6617,-17.348 12.3463,-26.33 7.1238,-17.054 14.1703,-34.158 20.183,-51.642 0.6982,1.68 14.0266,25.342 17.2067,19.308 0.3922,-0.744 -1.4353,-0.876 -2.153,-1.315 -21.5519,-5.954 -44.2776,-5.979 -66.4721,-5.525 -21.884,1.366 -44.1855,3.425 -64.2628,12.995 -16.5608,8.431 -56.3048,-69.638 -39.744,-78.069 z" id="path23647" inkscape:connector-curvature="0" style="fill:#550000;fill-opacity:1;fill-rule:nonzero;stroke:#f9f9f9;stroke-width:0.1;stroke-miterlimit:4;stroke-dasharray:none" transform="translate(-8192, -14336)"/><path d="m 8390.0024,14792.862 c 38.3221,-3.205 76.5925,-6.927 114.8308,-11.005 36.0802,-4.014 72.1712,-7.939 108.2263,-12.174 18.3621,-1.926 27.441,84.634 9.0789,86.56 l 0,0 c -36.0574,3.333 -72.0922,6.908 -108.0755,10.971 -37.8882,4.152 -75.836,7.834 -113.6591,12.53 -18.4305,2.206 -28.8319,-84.676 -10.4014,-86.882 z" id="path23649" inkscape:connector-curvature="0" style="fill:#550000;fill-opacity:1;fill-rule:nonzero;stroke:#f9f9f9;stroke-width:0.1;stroke-miterlimit:4;stroke-dasharray:none" transform="translate(-8192, -14336)"/><path d="m 8720.8115,14580.07 c 0.8808,43.489 0.5505,86.986 -0.1008,130.475 -2.081,78.342 -4.177,156.674 -5.0231,235.042 -0.7229,78.103 0.1232,156.207 1.6451,234.296 0.5234,34.719 2.0014,69.421 2.3863,104.142 -0.028,18.426 -86.8878,18.291 -86.8593,-0.135 l 0,0 c 0.5402,-34.274 -0.4364,-68.556 -0.4827,-102.832 -0.6483,-78.751 -0.9797,-157.506 -0.4392,-236.26 0.6309,-78.371 2.2715,-156.719 3.6399,-235.079 0.1785,-41.747 0.3126,-83.551 -2.28,-125.237 -0.9361,-18.564 86.5778,-22.977 87.5138,-4.412 z" id="path23651" inkscape:connector-curvature="0" style="fill:#550000;fill-opacity:1;fill-rule:nonzero;stroke:#f9f9f9;stroke-width:0.1;stroke-miterlimit:4;stroke-dasharray:none" transform="translate(-8192, -14336)"/><path d="m 8230.2934,14958.76 c 40.7406,-5.212 81.1607,-12.788 121.6761,-19.51 73.2212,-12.715 147.0543,-21.134 221.016,-28.05 60.1259,-5.445 120.394,-9.072 180.7562,-10.105 32.9184,-0.904 65.4093,0.422 96.1232,12.943 4.3148,2.748 8.6297,5.495 12.9446,8.242 14.9853,10.986 -36.8033,81.627 -51.7886,70.641 l 0,0 c 0.9197,0.258 1.8395,0.517 2.7592,0.775 -9.4255,-9.107 -47.1815,-4.921 -59.152,-6.677 -58.0547,0.179 -116.0413,3.199 -173.875,8.281 -71.7865,6.545 -143.4452,14.722 -214.3736,27.822 -41.9827,7.465 -83.8311,15.684 -125.889,22.705 -18.4699,2.164 -28.667,-84.904 -10.1971,-87.067 z" id="path23653" inkscape:connector-curvature="0" style="fill:#550000;fill-opacity:1;fill-rule:nonzero;stroke:#f9f9f9;stroke-width:0.1;stroke-miterlimit:4;stroke-dasharray:none" transform="translate(-8192, -14336)"/><path d="m 8399.2778,15094.538 c -4.1688,25.802 -4.6647,51.949 -3.7065,78.005 1.733,13.892 1.366,28.91 6.8743,42.044 5.6075,17.702 -77.8369,44.135 -83.4443,26.434 l 0,0 c -6.162,-21.374 -9.0606,-43.401 -10.0287,-65.625 -0.929,-31.173 -0.1759,-62.357 3.5759,-93.353 2.6506,-18.398 89.3798,-5.903 86.7293,12.495 z" id="path23655" inkscape:connector-curvature="0" style="fill:#550000;fill-opacity:1;fill-rule:nonzero;stroke:#f9f9f9;stroke-width:0.1;stroke-miterlimit:4;stroke-dasharray:none" transform="translate(-8192, -14336)"/><path d="m 8356.9572,15071.377 c 28.0216,-19.599 60.2004,-30.898 92.8359,-40.033 33.9501,-8.738 68.3671,-11.999 102.862,-5.548 39.2271,11.88 55.2599,44.007 60.2101,81.944 2.1855,26.612 -2.2256,52.388 -12.3096,76.946 -7.5334,16.948 -87.4262,-18.565 -79.8928,-35.512 l 0,0 c 5.9492,-9.143 5.0639,-21.45 5.4838,-31.867 -0.7539,-16.936 1.7556,-0.727 7.5891,-6.418 -18.955,-7.277 -41.7836,1.319 -60.8063,3.864 -22.1511,6.07 -44.418,13.078 -63.3087,26.611 -14.8465,11.172 -67.51,-58.815 -52.6635,-69.987 z" id="path23657" inkscape:connector-curvature="0" style="fill:#550000;fill-opacity:1;fill-rule:nonzero;stroke:#f9f9f9;stroke-width:0.1;stroke-miterlimit:4;stroke-dasharray:none" transform="translate(-8192, -14336)"/><path d="m 8395.7002,15172.049 c 32.2271,-5.263 64.2105,-11.89 96.3819,-17.487 34.2129,-5.964 68.759,-9.804 103.488,-10.298 18.4614,-0.08 18.8556,86.944 0.3943,87.028 l 0,0 c -29.8751,-0.255 -59.6122,3.167 -89.0364,8.202 -32.4381,5.698 -64.6703,12.422 -96.9412,18.989 -18.3354,3.031 -32.6221,-83.404 -14.2866,-86.434 z" id="path23659" inkscape:connector-curvature="0" style="fill:#550000;fill-opacity:1;fill-rule:nonzero;stroke:#f9f9f9;stroke-width:0.1;stroke-miterlimit:4;stroke-dasharray:none" transform="translate(-8192, -14336)"/><path d="m 8895.8077,14557.982 c -6.3281,40.303 -14.1436,80.356 -21.1654,120.542 -7.377,42.942 -14.0142,86.004 -20.6197,129.07 -3.0121,18.146 -88.5563,3.947 -85.5442,-14.199 l 0,0 c 7.7058,-43.054 14.5207,-86.262 21.8239,-129.385 6.5005,-38.354 13.7576,-76.635 18.4383,-115.262 1.9589,-18.47 89.026,-9.235 87.0671,9.234 z" id="path23661" inkscape:connector-curvature="0" style="fill:#550000;fill-opacity:1;fill-rule:nonzero;stroke:#f9f9f9;stroke-width:0.1;stroke-miterlimit:4;stroke-dasharray:none" transform="translate(-8192, -14336)"/><path d="m 8840.0969,14643.379 c 31.4626,-12.999 65.202,-17.094 98.8541,-19.553 40.5508,-2.468 80.9894,1.382 120.9538,8.008 32.6807,5.411 63.4981,16.148 91.2241,34.23 31.1028,23.688 37.4907,51.699 34.5623,89.023 -5.4969,33.284 -15.6682,65.593 -24.5226,98.097 -1.6672,5.834 -3.3344,11.669 -5.0015,17.503 -5.0375,17.631 -88.1499,-6.116 -83.1125,-23.747 l 0,0 c 1.5605,-5.462 3.1209,-10.924 4.6814,-16.386 7.4947,-27.751 15.7704,-55.385 21.2525,-83.617 2.1265,-15.355 6.0403,-1.205 2.7619,-8.985 -15.8905,-12.736 -37.0647,-16.389 -56.3624,-20.901 -33.052,-5.817 -66.5561,-9.041 -100.1473,-7.013 -23.5752,1.716 -47.5452,3.883 -69.491,13.378 -16.9784,7.563 -52.6311,-72.474 -35.6528,-80.037 z" id="path23663" inkscape:connector-curvature="0" style="fill:#550000;fill-opacity:1;fill-rule:nonzero;stroke:#f9f9f9;stroke-width:0.1;stroke-miterlimit:4;stroke-dasharray:none" transform="translate(-8192, -14336)"/><path d="m 9010.6562,14741.419 c -7.6552,48.13 -18.3527,95.675 -29.478,143.098 -17.5221,74.732 -37.7976,148.738 -61.3998,221.77 -19.9185,61.068 -45.6358,119.906 -77.0491,175.885 -11.2954,19.896 -24.3588,38.512 -39.6454,55.493 -12.7762,13.405 -75.9653,-46.823 -63.1891,-60.227 l 0,0 c 11.7821,-10.626 19.5699,-24.867 28.3118,-37.904 29.4809,-50.394 52.9613,-103.865 71.3076,-159.314 23.0483,-70.603 42.5974,-142.239 58.9489,-214.699 10.1212,-45.075 20.1563,-90.283 25.5408,-136.221 2.5709,-18.382 89.2232,-6.263 86.6523,12.119 z" id="path23665" inkscape:connector-curvature="0" style="fill:#550000;fill-opacity:1;fill-rule:nonzero;stroke:#f9f9f9;stroke-width:0.1;stroke-miterlimit:4;stroke-dasharray:none" transform="translate(-8192, -14336)"/><path d="m 8959.6383,15111.541 c 15.9033,26.859 41.4944,45.779 65.8377,64.454 42.2032,29.661 83.2562,60.733 121.9339,94.874 14.9339,13.381 28.8009,27.861 42.6339,42.353 12.5624,13.404 -50.6228,72.624 -63.1852,59.22 l 0,0 c -11.7953,-12.847 -23.6332,-25.674 -36.5342,-37.439 -36.7917,-33.059 -76.3642,-62.544 -116.9202,-90.83 -34.1825,-26.009 -68.2952,-53.257 -90.6075,-90.719 -8.8912,-16.3 67.9504,-58.214 76.8416,-41.913 z" id="path23667" inkscape:connector-curvature="0" style="fill:#550000;fill-opacity:1;fill-rule:nonzero;stroke:#f9f9f9;stroke-width:0.1;stroke-miterlimit:4;stroke-dasharray:none" transform="translate(-8192, -14336)"/></svg>