<?xml version="1.0" encoding="utf-8" ?>

<!DOCTYPE svg PUBLIC "-//W3C//DTD SVG 1.1//EN" 
  "http://www.w3.org/Graphics/SVG/1.1/DTD/svg11.dtd">
<svg 
    xmlns="http://www.w3.org/2000/svg"
    xmlns:xlink="http://www.w3.org/1999/xlink"
    xmlns:sodipodi="http://sodipodi.sourceforge.net/DTD/sodipodi-0.dtd"
    xmlns:inkscape="http://www.inkscape.org/namespaces/inkscape"
    width="1024" height="1024" id="U6B7B">
<path d="m 7322.2127,46354.39 c 43.1219,-8.174 86.1138,-17.029 129.205,-25.375 75.6062,-15.595 152.2609,-23.273 229.3391,-25.181 60.5876,-0.952 120.6195,7.256 179.9363,18.763 27.6142,6.226 55.9824,10.397 82.209,21.385 17.0202,7.914 -20.2877,88.148 -37.3078,80.234 l 0,0 c -19.0624,-8.882 -41.7342,-10.642 -61.9916,-16.519 -52.9878,-11.041 -106.6758,-19.045 -160.9649,-18.567 -72.119,1.376 -143.8187,8.666 -214.4169,23.96 -42.8901,8.842 -85.7136,17.989 -128.3376,28.046 -18.4017,3.749 -36.0723,-82.998 -17.6706,-86.746 z" id="path11202" inkscape:connector-curvature="0" style="fill:#782121;fill-opacity:1;fill-rule:nonzero;stroke:#f9f9f9;stroke-width:0.1;stroke-miterlimit:4;stroke-dasharray:none" transform="translate(-7168, -46080)"/><path d="m 7544.8545,46402.283 c -20.0823,34.886 -38.7545,70.568 -57.9184,105.963 -26.9448,49.361 -53.966,98.681 -79.97,148.547 -11.0211,22.177 -23.3007,43.927 -31.4744,67.379 -6.7322,17.445 -88.9686,-14.291 -82.2364,-31.736 l 0,0 c 10.708,-26.134 23.9012,-51.108 37.2093,-75.997 26.561,-49.797 53.7426,-99.26 80.4359,-148.986 19.327,-36.361 38.2808,-72.916 57.4029,-109.384 9.3794,-16.239 85.9305,27.975 76.5511,44.214 z" id="path11204" inkscape:connector-curvature="0" style="fill:#782121;fill-opacity:1;fill-rule:nonzero;stroke:#f9f9f9;stroke-width:0.1;stroke-miterlimit:4;stroke-dasharray:none" transform="translate(-7168, -46080)"/><path d="m 7417.8919,46538.948 c 32.9673,-12.264 67.9815,-15.889 102.8259,-17.964 38.2136,-1.889 75.6625,1.724 110.7544,17.264 49.6777,34.091 39.3011,78.687 21.1887,127.367 -20.7042,48.414 -46.1243,94.63 -71.4719,140.724 -22.1302,40.361 -45.989,79.724 -71.0223,118.34 -18.1682,28.219 -37.2622,55.743 -63.1319,77.362 -20.7255,11.87 -9.1051,6.99 -35.348,13.42 -18.6307,2.201 -29.0051,-85.625 -10.3744,-87.826 l 0,0 c -8.4527,3.8 -6.7992,0.917 -8.6086,5.028 20.3202,-11.988 29.823,-38.303 44.5628,-55.526 24.0775,-36.685 46.9903,-74.12 68.249,-112.517 23.3892,-42.315 46.7964,-84.792 65.5439,-129.418 1.8144,-4.856 3.7296,-9.676 5.4433,-14.568 2.2163,-6.328 3.4213,-12.211 4.3016,-12.077 3.4714,0.531 5.9907,10.908 11.6488,8.545 -14.6704,-12.621 -48.8387,-7.543 -66.6451,-9.05 -25.2803,1.444 -51.0251,3.443 -74.7696,12.973 -17.4112,7.031 -50.5578,-75.046 -33.1466,-82.077 z" id="path11206" inkscape:connector-curvature="0" style="fill:#782121;fill-opacity:1;fill-rule:nonzero;stroke:#f9f9f9;stroke-width:0.1;stroke-miterlimit:4;stroke-dasharray:none" transform="translate(-7168, -46080)"/><path d="m 7430.9174,46723.769 c 28.5179,14.338 54.8834,32.43 82.4928,48.369 16.9928,9.813 34.9555,17.753 53.8327,23.089 17.8539,5.462 -7.8912,89.626 -25.7451,84.164 l 0,0 c -25.0146,-8.008 -49.1776,-18.314 -71.8585,-31.663 -24.5636,-14.261 -48.2141,-30.2 -73.7302,-42.74 -17.2292,-7.426 17.7791,-88.645 35.0083,-81.219 z" id="path11208" inkscape:connector-curvature="0" style="fill:#782121;fill-opacity:1;fill-rule:nonzero;stroke:#f9f9f9;stroke-width:0.1;stroke-miterlimit:4;stroke-dasharray:none" transform="translate(-7168, -46080)"/><path d="m 7959.9385,46603.781 c -24.9292,26.965 -52.3968,51.387 -79.6542,75.937 -27.6182,23.424 -52.6431,49.876 -81.3789,71.954 -4.5999,2.516 -9.1999,5.031 -13.7998,7.547 -17.0076,7.888 -54.1903,-72.287 -37.1828,-80.174 l 0,0 c -0.3405,0.54 -0.681,1.08 -1.0215,1.621 27.6312,-18.321 49.1296,-44.964 75.1666,-65.327 24.5594,-22.3 49.5361,-44.391 71.1107,-69.679 12.3292,-14.162 79.089,43.959 66.7599,58.121 z" id="path11210" inkscape:connector-curvature="0" style="fill:#782121;fill-opacity:1;fill-rule:nonzero;stroke:#f9f9f9;stroke-width:0.1;stroke-miterlimit:4;stroke-dasharray:none" transform="translate(-7168, -46080)"/><path d="m 7787.3667,46417.031 c -13.1857,23.111 -16.7016,49.721 -20.0853,75.665 -4.8099,55.331 -6.0099,110.914 -8.5111,166.386 -3.1897,54.009 -4.4956,108.064 1.4095,161.9 4.0451,25.202 8.5409,53.348 33.5096,65.418 37.8805,11.332 78.4478,7.689 117.3578,5.391 47.7155,-3.356 95.1595,-9.669 141.9671,-19.488 23.3751,-4.86 45.8288,-13.003 68.4635,-20.409 2.6748,-0.783 5.3496,-1.567 8.0245,-2.35 18.0484,-5.082 42.0025,79.999 23.9541,85.081 l 0,0 c -1.7725,0.468 -3.545,0.937 -5.3175,1.406 -25.7671,7.869 -51.3618,16.489 -77.8881,21.559 -50.8892,9.942 -102.3412,16.594 -154.0767,20.213 -57.5187,3.457 -117.4228,7.997 -170.5716,-18.556 -7.3627,-5.282 -15.3331,-9.806 -22.0881,-15.846 -32.4521,-29.016 -43.6106,-72.142 -49.42,-113.536 -5.6806,-58.113 -4.8103,-116.366 -1.1389,-174.616 2.5592,-57.85 3.476,-115.81 8.183,-173.536 4.6658,-37.279 10.9597,-74.649 29.1263,-108.098 9.21,-16.356 86.312,27.06 77.1019,43.416 z" id="path11212" inkscape:connector-curvature="0" style="fill:#782121;fill-opacity:1;fill-rule:nonzero;stroke:#f9f9f9;stroke-width:0.1;stroke-miterlimit:4;stroke-dasharray:none" transform="translate(-7168, -46080)"/></svg>