<?xml version="1.0" encoding="UTF-8" standalone="no"?>
<svg
   xmlns:dc="http://purl.org/dc/elements/1.1/"
   xmlns:cc="http://creativecommons.org/ns#"
   xmlns:rdf="http://www.w3.org/1999/02/22-rdf-syntax-ns#"
   xmlns:svg="http://www.w3.org/2000/svg"
   xmlns="http://www.w3.org/2000/svg"
   xmlns:sodipodi="http://sodipodi.sourceforge.net/DTD/sodipodi-0.dtd"
   xmlns:inkscape="http://www.inkscape.org/namespaces/inkscape"
   width="1024"
   height="1024"
   id="U6CD5"
   version="1.1"
   inkscape:version="0.48.0 r9654"
   sodipodi:docname="U+6CD5.svg">
  <metadata
     id="metadata15">
    <rdf:RDF>
      <cc:Work
         rdf:about="">
        <dc:format>image/svg+xml</dc:format>
        <dc:type
           rdf:resource="http://purl.org/dc/dcmitype/StillImage" />
      </cc:Work>
    </rdf:RDF>
  </metadata>
  <defs
     id="defs13" />
  <sodipodi:namedview
     pagecolor="#ffffff"
     bordercolor="#666666"
     borderopacity="1"
     objecttolerance="10"
     gridtolerance="10"
     guidetolerance="10"
     inkscape:pageopacity="0"
     inkscape:pageshadow="2"
     inkscape:window-width="640"
     inkscape:window-height="480"
     id="namedview11"
     showgrid="false"
     inkscape:zoom="0.27441406"
     inkscape:cx="512"
     inkscape:cy="512"
     inkscape:window-x="0"
     inkscape:window-y="25"
     inkscape:window-maximized="0"
     inkscape:current-layer="U6CD5" />
  <path
     style="fill:#550000;fill-opacity:1;fill-rule:nonzero;stroke:#f9f9f9;stroke-width:0.1;stroke-miterlimit:4;stroke-dasharray:none"
     d="M 547.03125 167.125 C 543.51199 167.22842 540.89135 168.28083 539.5625 170.53125 C 519.8462 211.02125 518.5546 256.84775 516.125 300.96875 C 515.559 313.58303 515.12139 326.22365 514.78125 338.84375 C 487.69696 344.5446 460.94209 351.60848 435.28125 362.1875 C 418.39325 369.8995 454.7369 449.5245 471.625 441.8125 C 485.2755 435.75872 499.41877 431.13287 513.8125 427.34375 C 513.85164 444.54229 513.9955 461.742 514.1875 478.9375 C 514.7022 510.3265 514.3688 495.10975 515.0625 524.59375 C 515.07657 525.05364 515.16141 525.50404 515.28125 525.9375 C 475.51573 534.42604 435.732 544.42267 399.625 563.53125 C 383.872 573.36025 430.21585 647.61025 445.96875 637.78125 C 459.80627 630.51954 474.38729 625.04398 489.3125 620.53125 C 473.27272 653.58626 458.03234 687.01335 443.625 720.8125 C 433.2961 746.1395 423.0517 771.62775 416.9375 798.34375 C 410.4106 833.20575 430.55325 862.74825 466.21875 868.28125 C 472.04025 869.17625 478.01515 868.28125 483.90625 868.28125 C 523.37615 862.37725 562.0377 852.00675 601.125 843.96875 C 646.972 834.70875 693.39165 829.197 739.96875 825.375 C 763.76013 823.48121 787.59988 822.40312 811.4375 821.3125 C 817.0492 827.85045 822.78122 834.28893 828.59375 840.65625 C 841.09335 854.17625 904.8121 795.27 892.3125 781.75 C 878.8615 767.426 866.0254 752.56575 854.375 736.71875 C 836.5397 712.56075 819.38415 687.80275 805.09375 661.34375 C 796.02845 645.13675 719.6222 687.88675 728.6875 704.09375 C 735.5481 715.70053 742.71868 727.09328 750.125 738.34375 C 744.30557 738.76895 738.50133 739.21532 732.6875 739.71875 C 682.8641 744.11175 633.19115 750.18425 584.09375 759.90625 C 561.22432 764.47117 538.43926 769.53658 515.59375 774.21875 C 518.18839 767.57664 520.79753 760.96424 523.125 754.3125 C 538.8409 716.5395 555.95405 679.36275 574.40625 642.84375 C 582.32352 627.63903 590.1872 612.28691 599.21875 597.6875 C 629.80546 593.52334 660.60356 590.98976 691.4375 589.28125 C 711.1867 588.44125 701.94965 588.74125 719.21875 588.40625 C 737.64865 587.77025 734.64865 500.863 716.21875 501.5 C 697.11155 502.417 707.1744 501.8775 686 503.1875 C 657.51077 505.1996 629.04639 507.70413 600.71875 511.28125 C 600.35986 501.9493 600.32073 500.57913 599.6875 477.65625 C 599.26235 455.40604 598.98667 433.16357 598.96875 410.90625 C 632.52421 405.96415 666.27736 402.34892 700.03125 399.03125 C 704.44775 398.59525 708.86475 398.15475 713.28125 397.71875 C 731.60165 395.68775 722.008 309.31275 703.6875 311.34375 L 690.78125 312.9375 C 660.70635 316.44372 630.6135 319.94526 600.625 324.125 C 600.88194 318.10439 601.17169 312.08093 601.5 306.0625 C 603.457 275.6965 603.8585 243.81075 615 215.09375 C 623.12075 201.34117 568.53785 166.493 547.03125 167.125 z M 237.75 279.625 C 219.20038 279.93348 174.54127 339.5145 188.0625 350.03125 C 214.7412 368.65225 241.6361 386.96 267.5625 406.625 L 280.15625 417.125 C 294.27615 428.802 349.33865 362.2395 335.21875 350.5625 C 330.04355 346.3125 324.8628 342.0635 319.6875 337.8125 C 294.0505 318.3945 267.55125 300.192 241.84375 280.875 C 240.69788 279.98383 239.322 279.59886 237.75 279.625 z M 233.59375 495.90625 C 211.32461 495.77545 157.77382 527.79841 165.28125 541.5625 C 180.76475 567.4205 201.8521 589.084 221.3125 611.875 C 223.6858 614.975 226.0642 618.0875 228.4375 621.1875 C 239.7323 635.7365 308.32605 582.4865 297.03125 567.9375 C 293.75755 563.7625 290.4612 559.58025 287.1875 555.40625 C 271.6239 537.30825 254.54065 520.165 242.15625 499.625 C 240.76597 497.07625 237.71766 495.93047 233.59375 495.90625 z M 359.59375 658.59375 C 358.04242 658.63947 356.6832 659.10031 355.59375 660.03125 C 331.40225 680.88625 307.1844 701.71025 282.75 722.28125 C 260.1275 741.44225 237.5641 760.7055 214.6875 779.5625 C 200.5929 791.6905 257.7804 858.128 271.875 846 C 293.9259 826.373 316.3563 807.20275 338.75 787.96875 C 363.0545 767.20575 387.3562 746.43925 411.75 725.78125 C 424.60555 714.79619 377.89945 658.05429 359.59375 658.59375 z M 503.125 813.3125 C 503.02514 814.30447 502.8373 815.28627 502.5625 816.28125 C 502.72641 815.2833 502.93467 814.30446 503.125 813.3125 z "
     id="path22673" />
</svg>
