<?xml version="1.0" encoding="UTF-8" standalone="no"?>
<svg
   xmlns:dc="http://purl.org/dc/elements/1.1/"
   xmlns:cc="http://creativecommons.org/ns#"
   xmlns:rdf="http://www.w3.org/1999/02/22-rdf-syntax-ns#"
   xmlns:svg="http://www.w3.org/2000/svg"
   xmlns="http://www.w3.org/2000/svg"
   xmlns:sodipodi="http://sodipodi.sourceforge.net/DTD/sodipodi-0.dtd"
   xmlns:inkscape="http://www.inkscape.org/namespaces/inkscape"
   width="1024"
   height="1024"
   id="U6CBB"
   version="1.1"
   inkscape:version="0.48.0 r9654"
   sodipodi:docname="U+6CBB.svg">
  <metadata
     id="metadata15">
    <rdf:RDF>
      <cc:Work
         rdf:about="">
        <dc:format>image/svg+xml</dc:format>
        <dc:type
           rdf:resource="http://purl.org/dc/dcmitype/StillImage" />
      </cc:Work>
    </rdf:RDF>
  </metadata>
  <defs
     id="defs13" />
  <sodipodi:namedview
     pagecolor="#ffffff"
     bordercolor="#666666"
     borderopacity="1"
     objecttolerance="10"
     gridtolerance="10"
     guidetolerance="10"
     inkscape:pageopacity="0"
     inkscape:pageshadow="2"
     inkscape:window-width="640"
     inkscape:window-height="480"
     id="namedview11"
     showgrid="false"
     inkscape:zoom="0.27441406"
     inkscape:cx="512"
     inkscape:cy="512"
     inkscape:window-x="0"
     inkscape:window-y="25"
     inkscape:window-maximized="0"
     inkscape:current-layer="U6CBB" />
  <path
     style="fill:#2b1100;fill-opacity:1;fill-rule:nonzero;stroke:none"
     d="M 277.34375 219 C 255.62148 219.11289 201.76367 256.15641 210.4375 269.75 C 225.98994 292.481 240.86327 315.64725 253.21875 340.28125 C 259.78663 355.09025 256.79564 347.75475 262.25 362.21875 C 268.97296 379.56175 350.72296 347.87425 344 330.53125 C 336.0611 310.43825 340.32723 320.4275 331.21875 300.5625 C 317.30402 273.5405 301.1891 247.86125 285 222.15625 C 283.58065 219.93198 280.8983 218.98153 277.34375 219 z M 495.78125 238.125 C 472.37376 238.43045 447.63604 244.07191 448.03125 254.03125 C 448.78397 285.08425 437.30655 314.94525 427.4375 343.90625 C 416.87954 376.79725 402.82259 408.39325 391.25 440.90625 C 385.95623 459.00325 381.54282 479.96975 390.3125 497.96875 C 393.21297 503.92275 397.91942 508.826 401.71875 514.25 C 425.61734 534.359 453.78882 532.06 482.71875 528.375 C 515.46594 523.373 547.25691 513.79575 579.21875 505.34375 C 608.89729 497.47975 639.3506 493.49475 670 492.71875 C 670.95217 490.62448 692.80753 493.97875 699.71875 495.15625 C 691.53205 491.14933 695.20653 493.43381 687.03125 484.625 C 690.36425 486.91081 696.49403 486.62614 703.84375 484.6875 C 709.98432 495.51357 716.03203 506.3923 721.46875 517.59375 C 729.87277 534.29575 808.59153 494.67075 800.1875 477.96875 C 790.16609 458.54675 778.92257 439.82075 768.09375 420.84375 C 752.71302 393.85375 738.54548 366.21075 724.09375 338.71875 C 714.26734 322.75175 638.98608 369.0945 648.8125 385.0625 C 652.62592 391.85325 656.3984 398.66221 660.125 405.5 C 625.34051 407.42323 590.71556 411.96847 556.96875 420.90625 C 533.15582 427.15053 509.47032 434.10128 485.28125 438.75 C 493.52284 416.55318 502.30277 394.54687 509.46875 371.96875 C 522.9613 332.69775 536.91468 292.61225 536.40625 250.53125 C 536.05753 241.74359 516.43491 237.85549 495.78125 238.125 z M 699.71875 495.15625 C 699.83789 495.21456 699.84439 495.22013 699.96875 495.28125 C 702.79745 495.73887 702.1434 495.56935 699.71875 495.15625 z M 474.125 471.65625 C 474.35968 475.61216 473.29805 476.76368 474.125 471.65625 z M 205.40625 480.21875 C 181.54871 480.8547 129.89439 508.13312 136.34375 521.9375 C 150.86595 547.7275 160.3746 575.6825 169.53125 603.6875 C 176.16393 625.5575 172.97073 614.596 179.125 636.5 C 184.15175 654.313 268.1205 630.6255 263.09375 612.8125 C 256.27025 588.7265 259.81111 600.79325 252.5 576.65625 C 242.29463 545.23925 231.33608 514.09725 216.4375 484.53125 C 214.94918 481.34581 210.91184 480.07199 205.40625 480.21875 z M 674.125 547.28125 C 661.83939 547.2886 649.53373 547.70812 637.25 548.4375 C 600.06518 551.4235 563.14059 556.52425 526.46875 563.40625 C 494.30515 569.49125 462.24289 576.62 432.09375 589.75 C 426.44351 592.27151 426.60391 602.77192 429.9375 615.40625 C 408.10399 616.44918 386.729 622.04593 387.125 631.3125 C 389.98218 671.1365 402.16308 709.1725 415.375 746.5625 C 427.88105 781.11765 440.03333 815.79051 455.1875 849.28125 C 451.64377 850.19056 448.09566 851.04242 444.53125 851.875 C 426.19932 855.948 445.38682 942.3865 463.71875 938.3125 C 499.62635 928.5815 534.68433 916.071 570.0625 904.625 C 612.43079 890.881 656.21321 882.47975 700.15625 875.71875 C 704.47604 875.21785 708.8028 874.63508 713.125 874.0625 C 725.84115 897.36537 753.33558 926.06439 763.25 918.375 C 780.80614 902.754 793.3073 884.87475 798.8125 861.59375 C 807.03477 832.49275 815.31452 803.37675 821.3125 773.71875 C 826.91696 745.38675 832.0072 716.95625 836.375 688.40625 C 839.53047 668.68725 844.32537 648.971 843.34375 628.875 C 837.94246 600.126 825.24202 581.948 798.1875 569.875 C 778.06709 561.172 757.09409 554.366 735.375 551 C 715.03132 548.36875 694.60102 547.26899 674.125 547.28125 z M 673.90625 634.6875 C 690.47694 634.71737 707.02409 635.58688 723.4375 638.03125 C 733.53688 639.94431 743.43876 642.87314 753 646.65625 C 751.33249 655.98634 750.19774 669.45933 749.375 675 C 745.51736 702.408 740.83778 729.67975 735.53125 756.84375 C 733.71646 765.86978 731.62251 774.82592 729.375 783.75 C 715.05446 785.60731 700.76066 787.82576 686.46875 789.78125 C 638.27788 797.69725 590.30972 807.32375 543.6875 822.09375 C 542.62729 822.429 541.55973 822.75633 540.5 823.09375 C 539.48988 821.48135 539.51203 821.40337 536.25 815.53125 C 520.68846 783.98625 509.28158 750.6685 497.1875 717.6875 C 491.09646 700.37021 485.1061 682.88297 480.9375 665 C 500.83395 657.38705 521.88113 653.17907 542.78125 649.1875 C 576.33361 642.9375 610.06381 637.987 644.09375 635.375 C 654.02471 634.93925 663.96384 634.66958 673.90625 634.6875 z M 320.0625 663.1875 C 318.50634 663.28117 317.1589 663.7818 316.09375 664.75 C 291.29272 687.56 267.16875 711.0845 243 734.5625 C 212.94383 764.0185 183.19065 793.775 153.65625 823.75 C 140.38722 837.019 202.94972 899.55025 216.21875 886.28125 C 244.25 855.15825 273.77215 825.458 303.53125 796 C 326.81265 773.263 350.31007 750.76625 374.53125 729.03125 C 387.09996 717.60645 338.42518 662.08222 320.0625 663.1875 z "
     id="path15003" />
</svg>
