<?xml version="1.0" encoding="utf-8" ?>

<!DOCTYPE svg PUBLIC "-//W3C//DTD SVG 1.1//EN" 
  "http://www.w3.org/Graphics/SVG/1.1/DTD/svg11.dtd">
<svg 
    xmlns="http://www.w3.org/2000/svg"
    xmlns:xlink="http://www.w3.org/1999/xlink"
    xmlns:sodipodi="http://sodipodi.sourceforge.net/DTD/sodipodi-0.dtd"
    xmlns:inkscape="http://www.inkscape.org/namespaces/inkscape"
    width="1024" height="1024" id="U6C7D">
<path d="m 11447.285,38129.065 c 20.592,20.424 44.834,36.677 68.249,53.623 4.878,3.786 9.756,7.573 14.634,11.359 14.585,11.431 -39.302,80.182 -53.886,68.751 l 0,0 c -3.989,-3.163 -7.978,-6.327 -11.967,-9.49 -27.296,-19.841 -55.308,-38.95 -80.023,-62.048 -13.194,-13.363 49.799,-75.558 62.993,-62.195 z" id="path10733" inkscape:connector-curvature="0" style="fill:#c83737;fill-opacity:1;fill-rule:nonzero;stroke:#f9f9f9;stroke-width:0.1;stroke-miterlimit:4;stroke-dasharray:none" transform="translate(-11264, -37888)"/><path d="m 11420.786,38341.153 c 16.141,19.244 30.756,39.556 44.235,60.727 9.934,15.652 -63.853,62.478 -73.786,46.826 l 0,0 c -11.299,-17.883 -23.84,-34.88 -38.12,-50.527 -12.097,-14.355 55.574,-71.381 67.671,-57.026 z" id="path10735" inkscape:connector-curvature="0" style="fill:#c83737;fill-opacity:1;fill-rule:nonzero;stroke:#f9f9f9;stroke-width:0.1;stroke-miterlimit:4;stroke-dasharray:none" transform="translate(-11264, -37888)"/><path d="m 11371.838,38721.031 c 32.403,-19.534 61.275,-44.129 89.656,-68.971 20.279,-17.965 39.309,-37.243 58.329,-56.511 12.869,-12.998 74.143,47.665 61.275,60.663 l 0,0 c -20.448,20.597 -40.9,41.209 -62.522,60.593 -31.803,28.226 -64.263,55.821 -99.88,79.2 -15.904,9.94 -62.763,-65.034 -46.858,-74.974 z" id="path10737" inkscape:connector-curvature="0" style="fill:#c83737;fill-opacity:1;fill-rule:nonzero;stroke:#f9f9f9;stroke-width:0.1;stroke-miterlimit:4;stroke-dasharray:none" transform="translate(-11264, -37888)"/><path d="m 11788.056,38110.228 c -4.574,45.894 -19.708,89.603 -35.607,132.582 -18.892,48.321 -40.193,95.65 -61.497,142.943 -2.327,5.001 -4.654,10.002 -6.982,15.004 -8.032,16.724 -86.871,-21.14 -78.839,-37.864 l 0,0 c 2.252,-4.532 4.504,-9.065 6.755,-13.598 21.159,-44.821 41.715,-89.971 59.54,-136.241 12.715,-34.909 25.58,-70.445 28.411,-107.796 1.054,-18.714 89.274,-13.744 88.219,4.97 z" id="path10739" inkscape:connector-curvature="0" style="fill:#c83737;fill-opacity:1;fill-rule:nonzero;stroke:#f9f9f9;stroke-width:0.1;stroke-miterlimit:4;stroke-dasharray:none" transform="translate(-11264, -37888)"/><path d="m 11706.234,38180.937 c 36.275,-17.173 76.108,-23.231 115.53,-28.275 43.612,-4.813 87.477,-6.627 131.311,-7.917 12.575,-0.49 25.151,-0.597 37.732,-0.449 18.706,0.598 15.886,88.78 -2.82,88.182 l 0,0 c -10.956,-0.662 -21.921,-0.744 -32.896,-0.469 -40.796,0.673 -81.628,2.151 -122.199,6.728 -28.975,3.792 -58.718,7.567 -85.329,20.431 -16.595,8.767 -57.925,-69.464 -41.329,-78.231 z" id="path10741" inkscape:connector-curvature="0" style="fill:#c83737;fill-opacity:1;fill-rule:nonzero;stroke:#f9f9f9;stroke-width:0.1;stroke-miterlimit:4;stroke-dasharray:none" transform="translate(-11264, -37888)"/><path d="m 11720.591,38306.442 c 34.561,-4.491 69.008,-9.651 103.675,-13.292 30.877,-3.116 61.874,-3.739 92.67,0.136 18.448,2.727 5.593,89.695 -12.856,86.968 l 0,0 c -23.268,-4.507 -47.269,-2.189 -70.727,-0.629 -33.869,3.562 -67.512,8.717 -101.069,14.512 -18.603,2.48 -30.295,-85.214 -11.693,-87.695 z" id="path10743" inkscape:connector-curvature="0" style="fill:#c83737;fill-opacity:1;fill-rule:nonzero;stroke:#f9f9f9;stroke-width:0.1;stroke-miterlimit:4;stroke-dasharray:none" transform="translate(-11264, -37888)"/><path d="m 11619.259,38479.083 c 43.494,-7.586 87.413,-12.274 131.34,-16.484 48.672,-4.435 97.576,-8.691 145.941,-0.09 63.586,21.862 65.222,65.134 46.925,121.085 -14.479,35.04 -30.443,69.311 -39.845,106.146 -3.642,19.179 -5.821,40.306 6.829,56.573 14.223,11.451 33.929,11.131 51.246,11.485 45.399,-1.767 89.951,-11.741 133.883,-22.662 26.426,-6.485 52.119,-15.316 77.18,-25.827 17.161,-6.936 49.859,73.96 32.698,80.896 l 0,0 c -29.103,11.414 -58.719,21.405 -89.14,28.765 -51.63,12.713 -103.982,24.488 -157.356,25.881 -50.476,-1.928 -92.414,-11.033 -124.031,-54.018 -3.488,-6.415 -7.552,-12.549 -10.465,-19.246 -14.359,-33.019 -12.557,-69.71 -5.11,-104.106 10.429,-38.519 25.576,-75.136 41.28,-111.77 1.268,-3.571 2.508,-7.152 3.803,-10.713 0.606,-1.665 0.347,-4.11 1.9,-4.963 0.222,-0.123 8.323,12.051 14.928,10.538 1.033,-0.237 -1.434,-1.561 -2.151,-2.341 -39.049,-10.041 -80.591,-1.238 -120.143,0.32 -40.587,4.02 -81.284,8.298 -121.199,16.928 -18.327,3.927 -36.839,-82.466 -18.513,-86.393 z" id="path10745" inkscape:connector-curvature="0" style="fill:#c83737;fill-opacity:1;fill-rule:nonzero;stroke:#f9f9f9;stroke-width:0.1;stroke-miterlimit:4;stroke-dasharray:none" transform="translate(-11264, -37888)"/></svg>