<?xml version="1.0" encoding="UTF-8" standalone="no"?>
<svg
   xmlns:dc="http://purl.org/dc/elements/1.1/"
   xmlns:cc="http://creativecommons.org/ns#"
   xmlns:rdf="http://www.w3.org/1999/02/22-rdf-syntax-ns#"
   xmlns:svg="http://www.w3.org/2000/svg"
   xmlns="http://www.w3.org/2000/svg"
   xmlns:sodipodi="http://sodipodi.sourceforge.net/DTD/sodipodi-0.dtd"
   xmlns:inkscape="http://www.inkscape.org/namespaces/inkscape"
   width="1024"
   height="1024"
   id="U6C64"
   version="1.1"
   inkscape:version="0.48.0 r9654"
   sodipodi:docname="U+6C64.svg">
  <metadata
     id="metadata13">
    <rdf:RDF>
      <cc:Work
         rdf:about="">
        <dc:format>image/svg+xml</dc:format>
        <dc:type
           rdf:resource="http://purl.org/dc/dcmitype/StillImage" />
      </cc:Work>
    </rdf:RDF>
  </metadata>
  <defs
     id="defs11" />
  <sodipodi:namedview
     pagecolor="#ffffff"
     bordercolor="#666666"
     borderopacity="1"
     objecttolerance="10"
     gridtolerance="10"
     guidetolerance="10"
     inkscape:pageopacity="0"
     inkscape:pageshadow="2"
     inkscape:window-width="640"
     inkscape:window-height="480"
     id="namedview9"
     showgrid="false"
     inkscape:zoom="0.27441406"
     inkscape:cx="512"
     inkscape:cy="512"
     inkscape:window-x="0"
     inkscape:window-y="25"
     inkscape:window-maximized="0"
     inkscape:current-layer="U6C64" />
  <path
     style="fill:#782121;fill-opacity:1;fill-rule:nonzero;stroke:#f9f9f9;stroke-width:0.1;stroke-miterlimit:4;stroke-dasharray:none"
     d="M 211.46875 216.0625 C 186.42911 216.44472 136.79617 238.03438 141.84375 251.8125 C 154.89345 282.8315 173.7903 310.711 194.0625 337.375 C 205.7527 351.872 218.45265 365.477 230.96875 379.25 C 243.45575 392.942 308.01825 334.09725 295.53125 320.40625 C 284.68765 308.55925 273.6487 296.8435 263.4375 284.4375 C 248.4307 264.8535 234.2257 244.419 225 221.375 C 223.5867 217.51691 218.47985 215.95548 211.46875 216.0625 z M 700.53125 223.0625 C 681.58547 223.23521 654.04431 232.79887 639.34375 232.625 C 594.01055 239.303 548.54915 245.858 502.71875 247.875 C 465.73925 249.296 428.67145 249.95975 391.71875 247.46875 C 372.99815 246.33375 367.6544 334.58475 386.375 335.71875 C 426.3246 336.76775 466.2675 336.0985 506.1875 334.4375 C 546.11145 332.6194 585.76691 327.66083 625.34375 322.28125 C 600.73759 357.59318 578.30176 394.28526 556.96875 431.65625 C 546.29375 453.32725 528.6078 476.139 528.875 501.625 C 528.9495 508.738 530.8337 515.704 531.8125 522.75 C 536.6902 530.266 540.0324 539.0465 546.4375 545.3125 C 547.21368 546.07177 548.00438 546.77129 548.8125 547.46875 C 542.1785 563.67648 535.49376 579.85685 528.9375 596.09375 C 505.9212 652.40175 486.20675 709.9405 468.34375 768.0625 C 461.05395 792.5355 454.1191 817.0905 449.375 842.1875 C 446.3117 860.5795 532.9992 875.017 536.0625 856.625 C 538.8697 834.972 545.464 814.066 551 793 C 567.4579 737.333 586.2134 682.382 608.8125 628.875 C 618.35671 605.98267 628.12912 583.18071 637.875 560.375 C 658.45052 558.50716 678.96187 556.13535 699.53125 554.53125 C 683.04922 590.37883 673.5013 628.85219 663.875 666.96875 C 648.1693 727.95475 637.0566 789.94825 629.3125 852.40625 C 626.4161 884.65725 627.43155 869.076 626.15625 899.125 C 625.60055 917.59 712.6317 920.215 713.1875 901.75 C 713.5474 877.135 713.0336 890.20125 715 862.53125 C 721.5757 803.81825 731.98865 745.6445 747.40625 688.5625 C 756.23585 655.1565 764.49355 620.966 780.53125 590.125 C 785.51599 580.25479 760.16475 562.37551 736.75 552.75 C 739.1347 552.72607 741.51851 552.73076 743.90625 552.75 C 767.50075 552.968 784.08965 561.61025 798.78125 579.28125 C 816.67855 603.40825 823.6307 632.433 827.8125 661.625 C 832.0556 700.283 826.20755 738.8005 818.28125 776.5625 C 809.52755 810.1735 801.13155 845.2085 782.03125 874.6875 C 780.81535 875.5055 779.5909 876.307 778.375 877.125 C 765.7727 890.824 830.3353 950.23025 842.9375 936.53125 C 847.6413 930.91525 852.3587 925.3035 857.0625 919.6875 C 879.4513 880.7515 893.2407 837.96 903.1875 794.25 C 913.0967 746.371 919.88715 697.57625 913.84375 648.65625 C 906.60905 602.27625 893.6759 557.2575 863.25 520.3125 C 827.0969 482.3755 796.9733 467.64225 744.125 465.53125 C 707.13472 465.61141 670.4526 469.5054 633.65625 472.9375 C 654.70497 434.98437 677.36253 397.96191 703.0625 362.9375 C 712.6372 349.5485 753.1375 298.6265 752.5625 283.6875 C 751.9953 268.9505 745.45505 255.065 741.90625 240.75 C 731.94105 235.395 722.5945 228.6545 712 224.6875 C 708.80791 223.492 704.90335 223.02264 700.53125 223.0625 z M 700.21875 311.78125 C 701.86719 311.76314 703.51084 311.80987 705.15625 311.9375 C 706.08555 312.0095 703.34425 312.97625 702.46875 312.65625 C 701.71697 312.38151 700.96473 312.07052 700.21875 311.78125 z M 150.28125 477.28125 C 125.79336 477.94401 75.169253 502.52258 80.96875 516.3125 C 92.23685 546.0105 106.10175 574.391 121.96875 601.875 C 140.69055 633.897 164.74275 662.32725 183.53125 694.28125 C 193.07015 710.17725 268.00765 665.23975 258.46875 649.34375 C 239.43955 618.10075 216.53855 589.5305 197.46875 558.3125 C 183.43995 533.9735 171.5362 508.67 162.5625 482 C 161.0842 478.48492 156.52326 477.11231 150.28125 477.28125 z M 306.875 671.34375 C 304.48689 671.31878 302.54906 671.97359 301.25 673.46875 C 268.3358 711.55575 235.40955 749.63025 203.15625 788.28125 C 169.13275 829.26525 135.3925 870.521 104.0625 913.625 C 93.1404 928.863 164.98415 980.33075 175.90625 965.09375 C 204.12115 922.16775 236.56365 882.2915 269.03125 842.5625 C 300.52595 804.2475 333.09325 766.81875 365.71875 729.46875 C 376.29679 717.29302 326.32103 671.54711 306.875 671.34375 z "
     id="path11728" />
</svg>
