<?xml version="1.0" encoding="utf-8" ?>

<!DOCTYPE svg PUBLIC "-//W3C//DTD SVG 1.1//EN" 
  "http://www.w3.org/Graphics/SVG/1.1/DTD/svg11.dtd">
<svg 
    xmlns="http://www.w3.org/2000/svg"
    xmlns:xlink="http://www.w3.org/1999/xlink"
    xmlns:sodipodi="http://sodipodi.sourceforge.net/DTD/sodipodi-0.dtd"
    xmlns:inkscape="http://www.inkscape.org/namespaces/inkscape"
    width="1024" height="1024" id="U6C38">
<path d="m 9685.1528,59586.541 c 13.2297,18.518 26.8339,36.747 39.1674,55.885 1.8213,3.163 3.6426,6.326 5.4639,9.489 9.1373,16.333 -67.8559,59.406 -76.9932,43.074 l 0,0 c -0.9532,-1.797 -1.9064,-3.593 -2.8596,-5.389 -11.1207,-17.93 -23.8302,-34.776 -36.6684,-51.502 -10.937,-15.25 60.953,-66.807 71.8899,-51.557 z" id="path12965" inkscape:connector-curvature="0" style="fill:#2b1100;fill-opacity:1;fill-rule:nonzero;stroke:none" transform="translate(-9216, -59392)"/><path d="m 9417.4671,59789.356 c 32.5778,-9.865 65.864,-16.858 99.3687,-22.674 45.2123,-7.456 90.9144,-10.877 136.6864,-11.849 32.4465,-0.555 64.6206,3.051 96.2445,10.076 30.9301,6.963 46.6151,17.939 60.0601,47.511 7.0427,24.599 5.1271,50.297 3.1252,75.46 -3.399,37.283 -9.4306,74.244 -15.5199,111.16 -7.338,42.146 -13.9147,84.407 -19.1357,126.867 -4.2039,36.941 -6.7118,74.056 -7.9428,111.208 -0.4527,24.787 -0.094,49.585 0.4725,74.367 0.2673,9.242 0.1293,4.852 0.4078,13.171 0.3907,18.766 -88.0718,20.608 -88.4625,1.842 l 0,0 c -0.076,-8.724 -0.04,-4.116 -0.1075,-13.825 -0.1215,-26.254 -0.2409,-52.517 0.4234,-78.764 1.5904,-39.652 4.3657,-79.264 8.9807,-118.686 5.4367,-43.541 12.1494,-86.893 19.5695,-130.14 5.5307,-34.473 10.9799,-68.996 13.8249,-103.818 0.841,-11.889 1.2423,-28.507 1.2358,-38.376 7.3351,10.827 23.4181,14.692 3.0784,7.802 -24.4779,-6.074 -49.4844,-9.032 -74.7411,-8.877 -41.2466,0.538 -82.4224,3.634 -123.1294,10.541 -29.4458,5.258 -58.8131,11.39 -87.1383,21.182 -17.8566,5.791 -45.1574,-78.386 -27.3007,-84.178 z" id="path12967" inkscape:connector-curvature="0" style="fill:#2b1100;fill-opacity:1;fill-rule:nonzero;stroke:none" transform="translate(-9216, -59392)"/><path d="m 9422.2978,59994.043 c 31.6716,-9.033 63.9229,-15.795 96.3921,-21.2 31.6265,-5.383 63.2168,-4.439 94.0949,4.007 28.2489,10.013 44.0552,24.881 54.4015,52.901 5.3001,26.852 -6.4508,48.604 -22.14,69.155 -14.7368,17.431 -30.975,33.523 -46.481,50.265 -23.9018,26.405 -48.2198,52.417 -72.7755,78.213 -28.2093,29.31 -56.6027,58.442 -84.6781,87.881 -12.872,13.465 -25.5585,27.096 -37.9918,40.966 -12.5323,13.797 -77.5693,-45.281 -65.037,-59.077 l 0,0 c 13.1687,-14.322 26.604,-28.386 40.1647,-42.337 28.171,-29.059 56.4612,-58.004 84.3954,-87.292 24.124,-25.558 47.9733,-51.363 71.3018,-77.653 13.7288,-15.089 27.9787,-29.719 41.3374,-45.133 9.7881,-12.067 2.2418,-2.75 6.2466,7.923 1.8189,3.62 12.5947,16.2 6.0056,8.651 -17.3759,-6.638 -36.6818,-4.302 -54.6996,-2.243 -28.02,4.516 -55.9355,10.23 -82.9769,18.966 -17.8175,5.846 -45.3776,-78.147 -27.5601,-83.993 z" id="path12969" inkscape:connector-curvature="0" style="fill:#2b1100;fill-opacity:1;fill-rule:nonzero;stroke:none" transform="translate(-9216, -59392)"/><path d="m 10024.813,59977.464 c -20.568,12.689 -39.1257,28.34 -57.3488,44.13 -18.1382,15.685 -34.2373,33.443 -49.704,51.708 -12.2006,14.15 -78.9082,-43.364 -66.7076,-57.515 l 0,0 c 18.5574,-21.187 37.7656,-41.839 59.0845,-60.31 21.6773,-18.806 43.8239,-37.179 67.7646,-53.071 15.9222,-9.951 62.8333,65.107 46.9113,75.058 z" id="path13018" inkscape:connector-curvature="0" style="fill:#2b1100;fill-opacity:1;fill-rule:nonzero;stroke:none" transform="translate(-9216, -59392)"/><path d="m 9790.0331,60019.414 c 27.6967,25.838 57.6468,49.026 88.0635,71.532 44.5233,32.231 90.9137,61.76 137.4974,90.893 39.694,24.529 79.84,48.344 121.358,69.663 16.967,8.472 34.396,15.96 51.903,23.23 17.144,7.297 -17.256,88.119 -34.401,80.821 l 0,0 c -19.457,-8.465 -38.841,-17.131 -57.715,-26.846 -43.31,-22.848 -85.346,-47.966 -126.9149,-73.835 -48.3281,-30.349 -96.5018,-61.019 -142.9324,-94.231 -32.2534,-23.54 -63.8366,-47.932 -94.1749,-73.914 -14.2793,-12.159 43.037,-79.472 57.3163,-67.313 z" id="path13022" inkscape:connector-curvature="0" style="fill:#2b1100;fill-opacity:1;fill-rule:nonzero;stroke:none" transform="translate(-9216, -59392)"/></svg>