<?xml version="1.0" encoding="UTF-8" standalone="no"?>
<svg
   xmlns:dc="http://purl.org/dc/elements/1.1/"
   xmlns:cc="http://creativecommons.org/ns#"
   xmlns:rdf="http://www.w3.org/1999/02/22-rdf-syntax-ns#"
   xmlns:svg="http://www.w3.org/2000/svg"
   xmlns="http://www.w3.org/2000/svg"
   xmlns:sodipodi="http://sodipodi.sourceforge.net/DTD/sodipodi-0.dtd"
   xmlns:inkscape="http://www.inkscape.org/namespaces/inkscape"
   width="1024"
   height="1024"
   id="U6CB3"
   version="1.1"
   inkscape:version="0.48.0 r9654"
   sodipodi:docname="U+6CB3.svg">
  <metadata
     id="metadata15">
    <rdf:RDF>
      <cc:Work
         rdf:about="">
        <dc:format>image/svg+xml</dc:format>
        <dc:type
           rdf:resource="http://purl.org/dc/dcmitype/StillImage" />
      </cc:Work>
    </rdf:RDF>
  </metadata>
  <defs
     id="defs13" />
  <sodipodi:namedview
     pagecolor="#ffffff"
     bordercolor="#666666"
     borderopacity="1"
     objecttolerance="10"
     gridtolerance="10"
     guidetolerance="10"
     inkscape:pageopacity="0"
     inkscape:pageshadow="2"
     inkscape:window-width="640"
     inkscape:window-height="480"
     id="namedview11"
     showgrid="false"
     inkscape:zoom="0.27441406"
     inkscape:cx="512"
     inkscape:cy="512"
     inkscape:window-x="0"
     inkscape:window-y="25"
     inkscape:window-maximized="0"
     inkscape:current-layer="U6CB3" />
  <path
     style="fill:#550000;fill-opacity:1;fill-rule:nonzero;stroke:#f9f9f9;stroke-width:0.1;stroke-miterlimit:4;stroke-dasharray:none"
     d="M 799.625 221.34375 C 762.44687 221.41704 725.35116 224.77531 688.34375 228.125 C 633.96506 233.67 579.77773 240.90975 525.5 247.34375 C 490.99048 251.19375 456.43789 255.19325 421.71875 256.53125 C 403.15776 257.73425 408.84525 345.23425 427.40625 344.03125 C 463.51412 341.11925 499.48296 336.867 535.4375 332.5 C 589.18273 325.648 642.88089 318.51525 696.8125 313.28125 C 732.78758 310.58225 768.91358 306.8265 805.03125 308.3125 L 810.40625 309.34375 C 828.76387 311.66075 839.70137 225.1305 821.34375 222.8125 L 807.0625 221.375 C 804.58321 221.34962 802.10354 221.33886 799.625 221.34375 z M 298.46875 264.1875 C 276.20406 264.11167 222.71005 296.25784 230.25 310 C 246.8517 337.271 269.24053 360.15575 290.375 383.84375 C 293.13484 387.14275 295.89641 390.451 298.65625 393.75 C 310.53641 407.815 376.84891 351.815 364.96875 337.75 C 361.63233 333.832 358.27392 329.88775 354.9375 325.96875 C 338.16096 307.32475 320.10459 289.445 307.03125 267.875 C 305.63496 265.33016 302.59184 264.20154 298.46875 264.1875 z M 809.90625 340.75 C 784.08653 341.07697 750.67361 349.66687 752.125 361.1875 C 756.66954 397.9005 759.19642 434.8235 762.1875 471.6875 C 767.23426 527.6205 772.53992 583.53125 776.78125 639.53125 C 779.88407 682.17725 782.848 724.852 782.9375 767.625 C 782.552 788.564 781.15852 809.962 771.5 828.875 C 767.88339 833.448 769.83154 831.49725 765.8125 834.90625 C 753.5707 848.76625 818.91445 906.484 831.15625 892.625 C 845.70335 875.081 839.16876 884.30175 850.78125 864.96875 C 864.27195 833.81375 870.10517 800.9625 869.375 766.9375 C 868.79647 722.1755 865.4705 677.5515 861.9375 632.9375 C 857.50446 576.9645 852.2351 521.04775 847.59375 465.09375 C 844.79398 426.79875 842.33486 388.506 839.03125 350.25 C 838.16041 343.33762 825.39808 340.55382 809.90625 340.75 z M 618.84375 422.84375 C 597.25301 422.63075 575.71989 425.42125 554.3125 430.75 C 522.09603 438.405 490.18619 447.3425 459.5 459.9375 C 455.90939 461.44789 454.59867 466.19902 454.875 472.6875 C 429.45143 466.51749 392.43966 467.01276 391.21875 479 C 391.37381 514.027 399.02219 548.61875 404.65625 583.09375 C 408.91065 612.31075 415.23902 641.03825 426.6875 668.28125 C 429.46621 674.37691 441.64721 673.49433 455.6875 669.125 C 461.61333 692.39987 473.86558 716.82128 483.71875 713.8125 C 515.01829 703.4075 547.12333 695.81025 579.34375 688.90625 C 615.4642 681.33825 652.07571 676.64175 688.78125 673.09375 C 700.76238 672.00075 712.78323 671.22175 724.78125 670.34375 C 743.20829 668.84175 736.11454 581.96675 717.6875 583.46875 C 705.10067 584.59975 692.50756 585.6265 679.9375 586.9375 C 640.237 591.2365 600.63084 596.6125 561.5 604.6875 C 540.96425 608.99187 520.5257 613.63421 500.1875 618.75 C 494.76283 602.8973 493.33649 585.43693 489.8125 569.3125 C 488.16094 559.0111 486.38177 548.70531 484.71875 538.375 C 487.86402 540.7821 490.83235 541.72086 493.4375 540.625 C 519.25878 528.813 546.70463 521.374 574.25 514.875 C 596.00665 510.271 618.5361 506.303 640.4375 511.875 C 646.92807 513.598 647.14973 517.958 641.1875 514.375 C 638.13934 518.692 635.91893 523.70725 633.125 528.28125 C 624.29552 544.47025 700.60801 586.09525 709.4375 569.90625 C 721.20634 547.35625 730.38467 524.96175 727.125 498.84375 C 725.60312 492.61175 724.80164 486.16825 722.5625 480.15625 C 711.84166 451.37125 686.47176 434.0955 657.78125 426.5625 C 644.78144 424.19287 631.79819 422.97155 618.84375 422.84375 z M 247.15625 464.8125 C 227.20252 464.4646 174.65333 509.95795 185.15625 522.75 C 203.59297 543.783 220.86569 565.8305 236.4375 589.0625 C 246.71712 604.2845 318.46713 555.848 308.1875 540.625 C 290.94732 515.247 272.16883 491.0355 252.875 467.1875 C 251.58517 465.61655 249.60671 464.85522 247.15625 464.8125 z M 351.65625 613.40625 C 350.48402 613.48258 349.44976 613.83288 348.53125 614.5 C 326.54849 630.57 304.61403 646.71725 283.09375 663.40625 C 249.8932 688.74325 216.62812 714.06725 182.0625 737.53125 C 166.78609 748.10725 216.62984 820.10725 231.90625 809.53125 C 266.5317 783.74625 300.85123 757.5175 335.0625 731.1875 C 355.94624 714.8715 377.3548 699.28325 398.84375 683.78125 C 412.6214 673.77438 369.23966 612.26134 351.65625 613.40625 z "
     id="path24655" />
</svg>
