<?xml version="1.0" encoding="utf-8" ?>

<!DOCTYPE svg PUBLIC "-//W3C//DTD SVG 1.1//EN" 
  "http://www.w3.org/Graphics/SVG/1.1/DTD/svg11.dtd">
<svg 
    xmlns="http://www.w3.org/2000/svg"
    xmlns:xlink="http://www.w3.org/1999/xlink"
    xmlns:sodipodi="http://sodipodi.sourceforge.net/DTD/sodipodi-0.dtd"
    xmlns:inkscape="http://www.inkscape.org/namespaces/inkscape"
    width="1024" height="1024" id="U6C14">
<path d="m 10631.873,38098.738 c -18.192,28.931 -29.563,61.562 -41.245,93.493 -17.315,48.711 -32.432,98.172 -45.493,148.185 -4.772,18.21 -8.274,36.691 -10.201,55.408 -2.304,18.515 -89.585,7.651 -87.28,-10.864 l 0,0 c 3.157,-22.591 7.568,-44.965 13.711,-66.955 14.285,-52.231 30.176,-104.018 48.008,-155.153 14.003,-39.16 27.989,-78.816 49.716,-114.504 10.689,-15.44 83.474,34.95 72.784,50.39 z" id="path10725" inkscape:connector-curvature="0" style="fill:#c83737;fill-opacity:1;fill-rule:nonzero;stroke:#f9f9f9;stroke-width:0.1;stroke-miterlimit:4;stroke-dasharray:none" transform="translate(-10240, -37888)"/><path d="m 10534.661,38197.744 c 33.702,-20.96 72.898,-29.19 111.3,-36.816 48.882,-8.986 98.446,-13.063 147.966,-16.53 39.149,-2.749 78.356,-4.34 117.591,-5.04 20.191,-0.407 40.247,-0.712 60.115,3.099 18.21,4.676 -3.834,90.519 -22.044,85.843 l 0,0 c 0.859,-0.03 3.397,0.167 2.577,-0.09 -12.41,-3.872 -26.917,0.627 -39.514,-1.401 -37.634,0.295 -75.247,1.6 -112.805,4.082 -45.788,3.059 -91.635,6.652 -136.799,15.135 -26.229,5.334 -53.516,10.304 -77,23.825 -15.296,10.901 -66.684,-61.207 -51.387,-72.108 z" id="path10727" inkscape:connector-curvature="0" style="fill:#c83737;fill-opacity:1;fill-rule:nonzero;stroke:#f9f9f9;stroke-width:0.1;stroke-miterlimit:4;stroke-dasharray:none" transform="translate(-10240, -37888)"/><path d="m 10601.042,38305.84 c 37.927,-2.839 75.685,-7.525 113.453,-11.936 31.024,-3.404 62.015,-7.229 93.168,-9.24 18.594,-0.955 23.092,86.699 4.497,87.653 l 0,0 c -29.293,1.014 -58.41,4.676 -87.542,7.733 -38.328,4.532 -76.638,9.212 -114.968,13.721 -18.653,1.826 -27.261,-86.105 -8.608,-87.931 z" id="path10729" inkscape:connector-curvature="0" style="fill:#c83737;fill-opacity:1;fill-rule:nonzero;stroke:#f9f9f9;stroke-width:0.1;stroke-miterlimit:4;stroke-dasharray:none" transform="translate(-10240, -37888)"/><path d="m 10491.135,38475.08 c 43.058,0.525 85.838,-6.035 128.366,-11.996 61.854,-9.418 123.89,-17.463 186.102,-24.092 34.993,-1.372 73.29,-10.476 107.66,0.979 6.804,2.267 13.047,5.959 19.571,8.939 6.186,5.969 13.752,10.78 18.559,17.908 22.616,33.535 7.916,74.152 -3.063,108.611 -14.791,41.747 -30.764,83.021 -41.542,126.033 -4.204,19.953 -6.994,40.819 7.25,57.026 15.215,13.981 35.724,17.507 55.387,20.757 37.935,4.385 76.227,3.129 114.301,1.752 20.471,-0.827 40.88,-2.622 61.252,-4.73 18.513,-1.797 26.983,85.474 8.47,87.271 l 0,0 c -22.236,2.028 -44.504,3.722 -66.825,4.466 -43.985,1.345 -88.22,2.645 -131.995,-2.83 -43.637,-7.713 -84.74,-21.186 -113.154,-57.475 -3.855,-6.122 -8.289,-11.917 -11.566,-18.368 -17.438,-34.334 -15.532,-72.965 -7.251,-109.478 11.627,-44.373 27.408,-87.323 42.558,-130.586 2.307,-7.443 6.318,-28.737 9.887,-35.445 0.59,-1.109 12.318,16.245 14.933,12.08 2.986,-0.757 5.716,-0.955 -2.658,-2.579 -15.781,-3.059 -33.067,-1.424 -48.901,-0.41 -8.039,0.515 -16.063,1.25 -24.094,1.875 -61.103,5.983 -122.004,13.694 -182.64,23.357 -47.283,6.977 -94.718,14.199 -142.585,15.315 -18.748,-0.42 -16.77,-88.8 1.978,-88.38 z" id="path10731" inkscape:connector-curvature="0" style="fill:#c83737;fill-opacity:1;fill-rule:nonzero;stroke:#f9f9f9;stroke-width:0.1;stroke-miterlimit:4;stroke-dasharray:none" transform="translate(-10240, -37888)"/></svg>