<?xml version="1.0" encoding="utf-8" ?>

<!DOCTYPE svg PUBLIC "-//W3C//DTD SVG 1.1//EN" 
  "http://www.w3.org/Graphics/SVG/1.1/DTD/svg11.dtd">
<svg 
    xmlns="http://www.w3.org/2000/svg"
    xmlns:xlink="http://www.w3.org/1999/xlink"
    xmlns:sodipodi="http://sodipodi.sourceforge.net/DTD/sodipodi-0.dtd"
    xmlns:inkscape="http://www.inkscape.org/namespaces/inkscape"
    width="1024" height="1024" id="U6CE8">
<path d="m 10467.65,65747.104 c 15.584,22.552 37.621,39.415 58.797,56.372 14.662,11.045 28.629,22.913 42.412,35.018 13.861,12.316 -44.193,77.653 -58.053,65.338 l 0,0 c -12.509,-11.276 -25.323,-22.17 -38.799,-32.294 -28.384,-22.679 -56.9,-45.851 -78.157,-75.699 -10.338,-15.655 63.461,-64.391 73.8,-48.735 z" id="path15373" inkscape:connector-curvature="0" style="fill:#2b1100;fill-opacity:1;fill-rule:nonzero;stroke:none" transform="translate(-10240, -65536)"/><path d="m 10463.942,65994.618 c 2.579,18.05 12.433,34.093 20.867,49.926 2.296,4.396 4.591,8.792 6.887,13.188 8.606,16.47 -69.034,57.04 -77.64,40.57 l 0,0 c -2.184,-4.177 -4.368,-8.355 -6.553,-12.532 -15.045,-28.185 -29.987,-57.04 -32.065,-89.572 -0.336,-18.775 88.169,-20.355 88.504,-1.58 z" id="path15375" inkscape:connector-curvature="0" style="fill:#2b1100;fill-opacity:1;fill-rule:nonzero;stroke:none" transform="translate(-10240, -65536)"/><path d="m 10358.559,66373.405 c 30.065,-36.62 64.907,-68.984 98.835,-101.944 36.761,-35.139 73.216,-70.576 108.483,-107.218 12.762,-13.12 74.611,47.043 61.849,60.163 l 0,0 c -36.128,36.766 -73.221,72.542 -110.234,108.412 -30.026,29.655 -61.097,58.75 -87.043,92.145 -10.937,15.25 -82.827,-36.307 -71.89,-51.558 z" id="path15377" inkscape:connector-curvature="0" style="fill:#2b1100;fill-opacity:1;fill-rule:nonzero;stroke:none" transform="translate(-10240, -65536)"/><path d="m 10803.357,65693.721 c 7.323,23.704 22.363,43.767 37.321,63.148 10.448,12.959 21.573,25.346 32.599,37.808 12.236,13.922 -53.391,71.599 -65.626,57.678 l 0,0 c -12.181,-13.951 -24.478,-27.809 -36.064,-42.265 -21.744,-28.271 -42.299,-57.847 -53.327,-92.16 -5.135,-18.052 79.961,-42.26 85.097,-24.209 z" id="path15379" inkscape:connector-curvature="0" style="fill:#2b1100;fill-opacity:1;fill-rule:nonzero;stroke:none" transform="translate(-10240, -65536)"/><path d="m 10590.682,65913.757 c 36.896,-1.185 73.495,-7.031 109.954,-12.455 57.01,-8.9 113.884,-18.634 170.893,-27.543 42.679,-6.598 85.602,-11.694 128.751,-13.706 17.403,-1.246 34.177,0.669 50.951,5.051 17.869,5.775 -9.354,90.011 -27.223,84.236 l 0,0 c 7.265,-0.574 -20.888,-3.039 -20.461,-1.79 -39.842,1.043 -79.478,5.665 -118.889,11.45 -57.077,8.661 -113.993,18.303 -170.962,27.643 -40.302,6.334 -80.677,12.883 -121.419,15.623 -18.775,0.339 -20.37,-88.171 -1.595,-88.509 z" id="path15381" inkscape:connector-curvature="0" style="fill:#2b1100;fill-opacity:1;fill-rule:nonzero;stroke:none" transform="translate(-10240, -65536)"/><path d="m 10680.594,66094.869 c 39.624,-6.393 78.919,-14.659 118.336,-22.191 45.145,-8.394 90.483,-15.701 135.914,-22.358 15.797,-3.712 33.161,-2.485 48.507,-8.234 18.135,-4.858 41.035,80.634 22.9,85.491 l 0,0 c -19.504,4.643 -39.43,6.598 -59.296,9.104 -44.043,5.89 -87.966,12.693 -131.64,20.904 -39.993,7.794 -79.857,16.206 -119.768,24.402 -18.48,3.172 -33.433,-83.946 -14.953,-87.118 z" id="path15383" inkscape:connector-curvature="0" style="fill:#2b1100;fill-opacity:1;fill-rule:nonzero;stroke:none" transform="translate(-10240, -65536)"/><path d="m 10901.959,65954.768 c -5.219,33.765 -4.783,68.182 -5.332,102.266 -0.672,56.659 -2.938,113.274 -5.341,169.88 -1.035,24.26 -2.072,48.521 -2.527,72.8 -0.605,18.598 -88.276,15.742 -87.67,-2.855 l 0,0 c 1.119,-24.662 2.583,-49.307 3.895,-73.959 2.815,-55.581 5.025,-111.196 5.165,-166.857 0.276,-39.645 -0.392,-79.556 5.111,-118.909 3.741,-18.391 90.44,-0.758 86.699,17.634 z" id="path15385" inkscape:connector-curvature="0" style="fill:#2b1100;fill-opacity:1;fill-rule:nonzero;stroke:none" transform="translate(-10240, -65536)"/><path d="m 10599.012,66309.624 c 39.232,-2.63 77.965,-10.795 116.708,-17.282 58.026,-9.994 116.518,-16.495 175.227,-20.637 47.965,-2.588 95.965,-4.516 143.982,-5.786 32.045,-0.892 64.096,-1.134 96.138,-0.111 3.112,0.161 6.224,0.321 9.336,0.482 18.679,1.22 12.927,89.274 -5.752,88.054 l 0,0 c -2.434,-0.201 -4.869,-0.403 -7.304,-0.605 -30.095,-1.619 -60.226,-1.606 -90.354,-0.927 -46.734,0.98 -93.453,2.661 -140.14,4.975 -55.834,3.716 -111.475,9.727 -166.604,19.507 -43.604,7.617 -87.069,17.21 -131.237,20.801 -18.767,0 -18.767,-88.471 0,-88.471 z" id="path15387" inkscape:connector-curvature="0" style="fill:#2b1100;fill-opacity:1;fill-rule:nonzero;stroke:none" transform="translate(-10240, -65536)"/></svg>