<?xml version="1.0" encoding="UTF-8" standalone="no"?>
<svg
   xmlns:dc="http://purl.org/dc/elements/1.1/"
   xmlns:cc="http://creativecommons.org/ns#"
   xmlns:rdf="http://www.w3.org/1999/02/22-rdf-syntax-ns#"
   xmlns:svg="http://www.w3.org/2000/svg"
   xmlns="http://www.w3.org/2000/svg"
   xmlns:sodipodi="http://sodipodi.sourceforge.net/DTD/sodipodi-0.dtd"
   xmlns:inkscape="http://www.inkscape.org/namespaces/inkscape"
   width="1024"
   height="1024"
   id="U6D77"
   version="1.1"
   inkscape:version="0.48.0 r9654"
   sodipodi:docname="U+6D77.svg">
  <metadata
     id="metadata17">
    <rdf:RDF>
      <cc:Work
         rdf:about="">
        <dc:format>image/svg+xml</dc:format>
        <dc:type
           rdf:resource="http://purl.org/dc/dcmitype/StillImage" />
      </cc:Work>
    </rdf:RDF>
  </metadata>
  <defs
     id="defs15" />
  <sodipodi:namedview
     pagecolor="#ffffff"
     bordercolor="#666666"
     borderopacity="1"
     objecttolerance="10"
     gridtolerance="10"
     guidetolerance="10"
     inkscape:pageopacity="0"
     inkscape:pageshadow="2"
     inkscape:window-width="640"
     inkscape:window-height="480"
     id="namedview13"
     showgrid="false"
     inkscape:zoom="0.27441406"
     inkscape:cx="512"
     inkscape:cy="512"
     inkscape:window-x="0"
     inkscape:window-y="25"
     inkscape:window-maximized="0"
     inkscape:current-layer="U6D77" />
  <path
     style="fill:#550000;fill-opacity:1;fill-rule:nonzero;stroke:#f9f9f9;stroke-width:0.1;stroke-miterlimit:4;stroke-dasharray:none"
     d="M 407.375 180.34375 C 403.25567 180.42381 400.22933 181.59125 398.875 184.15625 C 379.6075 223.14325 362.16585 262.97525 344.96875 302.90625 C 321.36815 357.18025 299.8069 412.3015 279.3125 467.8125 C 273.0467 484.4225 267.18865 501.1765 261.71875 518.0625 C 256.38355 535.7265 339.6648 560.8515 345 543.1875 C 349.2882 527.5805 354.31995 512.219 359.84375 497 C 361.83725 491.39862 363.87815 485.80714 365.90625 480.21875 C 365.42306 492.12982 364.93069 504.03435 364.28125 515.9375 C 363.2156 534.14421 361.54197 552.28099 359.59375 570.40625 C 356.82822 570.91686 354.0816 571.44451 351.3125 571.9375 C 322.0592 576.9475 292.66385 581.141 263.40625 586.125 C 258.80906 587.09492 256.54737 593.30509 256 601.96875 C 247.55718 597.12491 240.30787 595.24487 236.875 598.90625 C 210.3789 627.39525 184.05245 656.085 157.34375 684.375 C 128.60115 714.436 100.0432 744.99825 67.9375 771.53125 C 52.7303 782.20525 103.0429 853.89275 118.25 843.21875 C 154.3757 812.51475 186.57795 777.45425 219.09375 743.03125 C 241.55362 718.99376 263.93757 694.90786 286.46875 670.9375 C 307.48682 666.81926 328.6427 663.39824 349.75 659.75 C 348.06325 678.67438 347.45204 697.99864 354.59375 715.625 C 357.00965 721.587 360.7404 726.94175 363.8125 732.59375 C 395.6108 767.09475 430.02465 759.3635 470.78125 750.6875 C 508.00795 741.9135 545.89215 736.755 583.78125 731.875 C 591.97006 730.91849 600.16203 729.91342 608.34375 728.90625 C 609.87577 774.58109 612.96005 820.17675 615.34375 865.8125 C 615.58234 871.03182 616.11879 879.39418 616.03125 885.9375 C 618.63676 879.12296 625.48443 872.09556 629.0625 868.40625 C 620.45052 884.17373 661.62573 950.39559 676.65625 941.3125 C 683.87015 933.0025 692.4294 925.676 698.3125 916.375 C 707.092 902.497 701.692 875.916 701.625 860.5 C 698.2579 812.79644 694.50203 765.11953 692.96875 717.3125 C 701.76166 715.96339 710.53443 714.54807 719.3125 713.09375 C 750.1027 707.46275 780.9946 702.269 811.5625 695.5 L 819.90625 693.21875 C 837.72175 687.93275 812.8155 603.965 795 609.25 C 793.8088 609.678 792.6287 610.10425 791.4375 610.53125 C 762.9953 617.87625 733.91185 622.70225 705.09375 628.28125 C 701.19571 628.94202 697.30791 629.5519 693.40625 630.1875 C 694.48489 596.87347 696.64684 563.60749 700.15625 530.40625 C 703.48555 494.72425 707.15255 459.07925 710.53125 423.40625 C 708.19525 381.44325 687.3716 360.9065 645.375 362.8125 C 618.6991 364.6275 592.07905 367.56725 565.34375 368.53125 C 531.51815 370.00725 497.6529 370.75925 463.875 373.15625 C 445.4351 375.35725 455.8101 462.29575 474.25 460.09375 C 474.62506 460.05446 474.99988 460.0073 475.375 459.96875 C 459.90927 474.26639 447.87545 491.27178 453.84375 497.9375 C 468.36723 512.73765 484.00288 526.35558 498.8125 540.84375 C 481.84336 544.49104 464.8844 548.24079 447.9375 552 C 448.89174 541.66673 449.70958 531.32922 450.375 520.96875 C 452.1546 492.27175 452.91935 463.478 455.84375 434.875 C 457.46822 422.22711 417.11719 413.01165 390.8125 414.40625 C 394.29555 405.59321 397.83927 396.79843 401.4375 388.03125 C 405.97275 391.41289 410.08262 392.74389 413.15625 390.9375 C 443.12685 373.0565 476.25295 361.69275 509.28125 350.96875 C 551.23575 338.18575 594.06175 328.46275 637.34375 321.46875 C 646.37345 321.10475 656.72165 317.5335 665.65625 320.6875 C 684.03985 322.7705 693.85225 236.11425 675.46875 234.03125 C 657.80785 232.79925 640.50875 232.7455 623.03125 236.4375 C 575.74315 244.6945 528.85835 255.3575 482.90625 269.3125 C 471.35795 273.0261 459.81851 276.83326 448.375 280.875 C 457.16032 261.99912 466.3428 243.33376 476.28125 225.03125 C 483.59471 211.18025 429.61938 179.91144 407.375 180.34375 z M 616.03125 885.9375 C 615.13727 888.27565 614.74859 890.57456 615.1875 892.6875 C 615.422 893.8165 615.866 890.4635 615.9375 889.3125 C 616.00196 888.27399 616.01532 887.12809 616.03125 885.9375 z M 161.9375 245.9375 C 141.19054 245.75918 87.729887 286.41575 97.1875 299.65625 C 114.6221 323.65125 136.64655 343.397 159.53125 362 C 173.40825 372.613 187.16525 383.3 200.03125 395.125 C 213.73695 407.48 271.98695 342.88625 258.28125 330.53125 C 244.10125 317.92725 229.3402 306.07725 214.1875 294.65625 C 197.356 281.02425 180.72225 266.86075 168.53125 248.71875 C 167.18016 246.82713 164.90135 245.96297 161.9375 245.9375 z M 650.3125 450 C 651.8334 450.055 653.3754 449.9285 654.875 450.1875 C 655.34 450.2685 653.99565 450.6425 653.53125 450.5625 C 652.3648 450.3518 651.16164 450.21242 649.96875 450.03125 C 650.08372 450.02619 650.19753 450.005 650.3125 450 z M 620.5625 451.8125 C 618.57235 475.33087 616.74439 498.8804 614.84375 522.40625 C 593.22898 524.36249 571.72646 527.29693 550.3125 530.90625 C 565.86057 515.80351 578.14804 497.44924 571.75 490.84375 C 560.05049 478.92975 547.72341 467.68102 535.71875 456.09375 C 546.81894 455.65248 557.9399 455.27264 569.03125 454.8125 C 586.23763 454.31113 603.39557 453.01812 620.5625 451.8125 z M 141.375 453.75 C 122.14555 454.11925 73.739722 507.42944 85.96875 519.03125 C 100.90595 532.72325 114.34955 547.6655 124.96875 564.9375 C 130.28035 575.8075 127.9129 570.29575 132.125 581.46875 C 139.0024 598.57675 219.65865 566.1705 212.78125 549.0625 C 204.12445 528.2205 208.9288 538.41825 198.375 518.40625 C 183.4945 495.35325 166.034 474.5415 146.3125 455.4375 C 145.04743 454.23731 143.36425 453.7118 141.375 453.75 z M 609.15625 609.09375 C 608.71309 620.18733 608.36282 631.27455 608.125 642.375 C 596.41396 643.83661 584.6654 645.22408 572.9375 646.5625 C 567.37546 647.2587 561.84116 647.96883 556.28125 648.6875 C 568.00934 635.02467 576.24901 620.33999 572.25 613.9375 C 584.5169 611.99829 596.81374 610.3487 609.15625 609.09375 z M 471.21875 634.3125 C 470.82352 637.39918 471.37654 639.91666 473.15625 641.53125 C 479.66198 646.94894 486.0527 652.46974 492.375 658.09375 C 479.23713 660.37161 466.15121 662.92545 453.125 665.84375 C 450.72429 666.3301 442.87037 667.27123 435.875 668.4375 C 436.28556 660.93473 437.16692 653.4457 437.75 646 C 437.90132 644.57319 438.06498 643.14534 438.21875 641.71875 C 449.22545 639.26316 460.21651 636.79025 471.21875 634.3125 z M 435.78125 681 C 436.82497 682.27455 437.25924 683.38421 436.59375 684.03125 C 438.59475 692.22125 436.43895 689.56875 435.96875 683.96875 C 435.88566 682.97898 435.83041 681.99048 435.78125 681 z "
     id="path24383" />
</svg>
