<?xml version="1.0" encoding="utf-8" ?>

<!DOCTYPE svg PUBLIC "-//W3C//DTD SVG 1.1//EN" 
  "http://www.w3.org/Graphics/SVG/1.1/DTD/svg11.dtd">
<svg 
    xmlns="http://www.w3.org/2000/svg"
    xmlns:xlink="http://www.w3.org/1999/xlink"
    xmlns:sodipodi="http://sodipodi.sourceforge.net/DTD/sodipodi-0.dtd"
    xmlns:inkscape="http://www.inkscape.org/namespaces/inkscape"
    width="1024" height="1024" id="U6D3E">
<path d="m 11433.051,36068.565 c 24.564,14.237 46.685,31.823 67.342,51.192 14.133,13.952 27.005,29.098 39.707,44.343 1.144,1.436 2.288,2.873 3.432,4.31 11.494,14.885 -58.673,69.07 -70.167,54.185 l 0,0 c -0.643,-0.876 -1.285,-1.752 -1.927,-2.627 -9.963,-12.578 -20.157,-25.008 -31.413,-36.463 -15.474,-14.856 -32.148,-28.345 -51.233,-38.365 -16.244,-9.388 28.015,-85.963 44.259,-76.575 z" id="path10028" inkscape:connector-curvature="0" style="fill:#c83737;fill-opacity:1;fill-rule:nonzero;stroke:#f9f9f9;stroke-width:0.1;stroke-miterlimit:4;stroke-dasharray:none" transform="translate(-11264, -35840)"/><path d="m 11433.719,36275.665 c 19.267,18.086 37.708,37.024 56.283,55.812 7.614,7.503 15.003,15.221 22.302,23.028 12.661,13.773 -52.267,73.455 -64.927,59.682 l 0,0 c -6.495,-7.219 -13.131,-14.302 -19.996,-21.173 -17.03,-17.436 -33.885,-35.127 -52.285,-51.14 -14.045,-12.436 44.578,-78.645 58.623,-66.209 z" id="path10030" inkscape:connector-curvature="0" style="fill:#c83737;fill-opacity:1;fill-rule:nonzero;stroke:#f9f9f9;stroke-width:0.1;stroke-miterlimit:4;stroke-dasharray:none" transform="translate(-11264, -35840)"/><path d="m 11350.528,36619.945 c 20.989,-32.337 44.275,-63.046 68.399,-93.084 4.71,-5.575 9.42,-11.15 14.13,-16.724 11.943,-14.057 78.208,42.247 66.264,56.304 l 0,0 c -4.235,4.953 -8.471,9.907 -12.707,14.861 -21.975,27.276 -43.246,55.228 -61.102,85.427 -9.925,15.907 -84.909,-30.878 -74.984,-46.784 z" id="path10032" inkscape:connector-curvature="0" style="fill:#c83737;fill-opacity:1;fill-rule:nonzero;stroke:#f9f9f9;stroke-width:0.1;stroke-miterlimit:4;stroke-dasharray:none" transform="translate(-11264, -35840)"/><path d="m 12010.88,36041.678 c -30.104,6.902 -57.285,22.799 -84.135,37.465 -52.117,29.77 -102.239,62.869 -152.023,96.347 -30.275,21.1 -61.125,41.884 -87.953,67.368 -14.627,15.28 0.297,7.414 -1.992,-7.498 -1.302,-8.486 -5.532,-16.254 -8.299,-24.381 11.873,14.639 -57.135,70.607 -69.008,55.969 l 0,0 c -3.805,-9.408 -9.505,-18.256 -11.414,-28.223 -4.552,-23.764 16.68,-45.563 31.387,-60.593 30.906,-27.615 65.116,-51.142 99.475,-74.223 51.984,-34.481 104.132,-68.806 157.967,-100.353 35.389,-19.841 71.321,-40.268 111.307,-49.188 18.522,-3.116 33.209,84.194 14.688,87.31 z" id="path10044" inkscape:connector-curvature="0" style="fill:#c83737;fill-opacity:1;fill-rule:nonzero;stroke:#f9f9f9;stroke-width:0.1;stroke-miterlimit:4;stroke-dasharray:none" transform="translate(-11264, -35840)"/><path d="m 11719.682,36235.697 c -13.999,33.473 -21.739,69.055 -29.339,104.393 -11.308,58.743 -22.585,117.496 -33.512,176.311 -9.429,49.407 -15.906,99.29 -20.484,149.36 -0.846,15.14 -2.886,30.517 -0.215,45.572 2.086,18.574 -85.469,28.406 -87.555,9.833 l 0,0 c -1.862,-21.338 -1.328,-42.614 1.212,-63.915 5.499,-52.474 12.61,-104.775 22.558,-156.609 11.135,-59.457 22.487,-118.873 33.491,-178.354 8.384,-40.58 17.322,-81.18 31.965,-120.055 7.098,-17.369 88.978,16.095 81.879,33.464 z" id="path10052" inkscape:connector-curvature="0" style="fill:#c83737;fill-opacity:1;fill-rule:nonzero;stroke:#f9f9f9;stroke-width:0.1;stroke-miterlimit:4;stroke-dasharray:none" transform="translate(-11264, -35840)"/><path d="m 11965.054,36201.947 c -26.48,14.675 -50.909,32.653 -75.092,50.771 -29.043,22.27 -57.281,45.56 -85.567,68.775 -8.995,7.356 -17.832,14.895 -27.067,21.948 -15.108,11.156 -67.697,-60.063 -52.589,-71.219 l 0,0 c 8.549,-5.906 16.372,-12.803 24.678,-19.037 29.455,-23.244 58.563,-46.927 88.221,-69.915 27.417,-20.763 55.189,-41.115 84.696,-58.852 16.446,-9.062 59.166,68.466 42.72,77.529 z" id="path10054" inkscape:connector-curvature="0" style="fill:#c83737;fill-opacity:1;fill-rule:nonzero;stroke:#f9f9f9;stroke-width:0.1;stroke-miterlimit:4;stroke-dasharray:none" transform="translate(-11264, -35840)"/><path d="m 11826.514,36312.146 c -6.695,37.862 -11.22,76.092 -16.376,114.189 -8.01,56.895 -14.781,113.943 -20.171,171.143 -2.927,32.456 -4.737,65.09 -1.598,97.583 -1.279,2.91 6.185,20.358 0.945,7.432 9.411,16.333 -67.583,60.694 -76.994,44.361 l 0,0 c -6.885,-14.194 -10.693,-28.985 -11.621,-44.825 -2.527,-37.705 -0.618,-75.437 3.315,-113.001 5.938,-58.067 12.931,-116.012 20.568,-173.881 5.025,-39.826 9.498,-79.725 14.995,-119.489 3.498,-18.442 90.434,-1.954 86.937,16.488 z" id="path10058" inkscape:connector-curvature="0" style="fill:#c83737;fill-opacity:1;fill-rule:nonzero;stroke:#f9f9f9;stroke-width:0.1;stroke-miterlimit:4;stroke-dasharray:none" transform="translate(-11264, -35840)"/><path d="m 11712.305,36638.417 c 23.281,-19.33 47.358,-37.643 71.955,-55.257 4.413,-3.095 8.825,-6.191 13.238,-9.287 15.203,-10.639 65.357,61.029 50.153,71.668 l 0,0 c -4.181,2.918 -8.362,5.837 -12.543,8.755 -22.564,16.097 -44.762,32.787 -65.36,51.371 -14.266,12.185 -71.709,-55.064 -57.443,-67.25 z" id="path10060" inkscape:connector-curvature="0" style="fill:#c83737;fill-opacity:1;fill-rule:nonzero;stroke:#f9f9f9;stroke-width:0.1;stroke-miterlimit:4;stroke-dasharray:none" transform="translate(-11264, -35840)"/><path d="m 12079.476,36382.88 c -23.799,14.315 -48.212,27.553 -73.081,39.903 -12.436,6.283 -25.444,11.181 -38.535,15.868 -17.626,6.133 -46.536,-76.956 -28.91,-83.089 l 0,0 c 9.766,-3.25 19.423,-6.78 28.664,-11.362 22.114,-10.833 43.859,-22.514 64.437,-36.074 15.858,-10.06 63.283,64.694 47.425,74.754 z" id="path10062" inkscape:connector-curvature="0" style="fill:#c83737;fill-opacity:1;fill-rule:nonzero;stroke:#f9f9f9;stroke-width:0.1;stroke-miterlimit:4;stroke-dasharray:none" transform="translate(-11264, -35840)"/><path d="m 11831.447,36273.625 c 15.471,27.444 29.902,55.454 44.807,83.206 21.836,40.496 46.561,79.315 71.451,117.974 26.918,42.417 55.434,83.727 87.687,122.262 26.369,30.706 57.985,55.91 91.053,78.94 12.932,8.538 25.966,17.005 39.848,23.924 16.519,8.737 -24.666,86.611 -41.186,77.875 l 0,0 c -16.899,-9.252 -33.172,-19.558 -48.972,-30.592 -38.915,-27.836 -76.118,-58.174 -107.207,-94.803 -34.292,-41.367 -65.015,-85.357 -93.822,-130.711 -26.219,-40.458 -52.257,-81.085 -75.394,-123.415 -14.471,-26.506 -28.337,-53.387 -44.174,-79.115 -9.662,-16.103 66.248,-61.648 75.909,-45.545 z" id="path10064" inkscape:connector-curvature="0" style="fill:#c83737;fill-opacity:1;fill-rule:nonzero;stroke:#f9f9f9;stroke-width:0.1;stroke-miterlimit:4;stroke-dasharray:none" transform="translate(-11264, -35840)"/></svg>