<?xml version="1.0" encoding="UTF-8" standalone="no"?>
<svg
   xmlns:dc="http://purl.org/dc/elements/1.1/"
   xmlns:cc="http://creativecommons.org/ns#"
   xmlns:rdf="http://www.w3.org/1999/02/22-rdf-syntax-ns#"
   xmlns:svg="http://www.w3.org/2000/svg"
   xmlns="http://www.w3.org/2000/svg"
   xmlns:sodipodi="http://sodipodi.sourceforge.net/DTD/sodipodi-0.dtd"
   xmlns:inkscape="http://www.inkscape.org/namespaces/inkscape"
   width="1024"
   height="1024"
   id="U6D4E"
   version="1.1"
   inkscape:version="0.48.0 r9654"
   sodipodi:docname="U+6D4E.svg">
  <metadata
     id="metadata16">
    <rdf:RDF>
      <cc:Work
         rdf:about="">
        <dc:format>image/svg+xml</dc:format>
        <dc:type
           rdf:resource="http://purl.org/dc/dcmitype/StillImage" />
      </cc:Work>
    </rdf:RDF>
  </metadata>
  <defs
     id="defs14" />
  <sodipodi:namedview
     pagecolor="#ffffff"
     bordercolor="#666666"
     borderopacity="1"
     objecttolerance="10"
     gridtolerance="10"
     guidetolerance="10"
     inkscape:pageopacity="0"
     inkscape:pageshadow="2"
     inkscape:window-width="640"
     inkscape:window-height="480"
     id="namedview12"
     showgrid="false"
     inkscape:zoom="0.27441406"
     inkscape:cx="512"
     inkscape:cy="512"
     inkscape:window-x="0"
     inkscape:window-y="25"
     inkscape:window-maximized="0"
     inkscape:current-layer="U6D4E" />
  <path
     style="fill:#550000;fill-opacity:1;fill-rule:nonzero;stroke:#f9f9f9;stroke-width:0.1;stroke-miterlimit:4;stroke-dasharray:none"
     d="M 575.03125 185.15625 C 553.11576 185.84216 499.76494 224.66836 508.875 238.15625 C 530.2199 267.53125 556.599 292.5995 583.125 317.1875 C 587.3284 321.0265 591.5466 324.8475 595.75 328.6875 C 609.6282 341.2675 668.90945 275.86125 655.03125 263.28125 L 642.9375 252.40625 C 621.3633 232.56325 599.50325 212.5045 582.84375 188.1875 C 581.353 185.98053 578.61742 185.04401 575.03125 185.15625 z M 259.0625 222.0625 C 234.92103 221.98567 181.86419 248.03619 187.96875 262.1875 C 204.64865 296.8715 224.85745 329.6515 245.90625 361.8125 C 265.68665 393.8255 292.4513 420.79675 313.3125 451.96875 C 324.0759 467.38575 396.73215 416.63475 385.96875 401.21875 C 364.59245 371.43975 339.3425 344.6145 319.3125 313.8125 C 301.0826 285.8905 283.3972 257.402 270.0625 226.75 C 268.65374 223.48413 264.63361 222.08023 259.0625 222.0625 z M 760.75 337.875 C 739.3038 338.03475 717.88206 339.3425 696.5 341.125 C 645.0533 345.689 593.74315 351.95025 542.21875 355.65625 C 499.61195 358.55825 456.83 361.37475 414.125 358.96875 C 395.2377 357.87875 390.1127 446.91 409 448 C 428.15004 448.35215 447.27681 448.06542 466.40625 447.375 C 442.57188 459.57839 410.67183 490.20918 419 500.59375 C 439.01 524.59317 462.28494 545.28433 486.625 564.6875 C 482.88822 568.09474 479.14007 571.49575 475.40625 574.90625 C 435.99371 611.17419 396.39013 647.24458 356.625 683.125 C 342.34374 669.13155 326.37324 659.00839 320.15625 664.875 C 320.1296 664.90069 320.08915 664.91181 320.0625 664.9375 C 321.04464 663.06989 321.34614 661.23822 320.78125 659.5 C 311.86205 633.11 300.03605 608.03375 286.90625 583.46875 C 275.49875 560.76375 263.2186 537.849 257.625 512.875 C 254.7017 494.132 166.35795 507.91325 169.28125 526.65625 C 176.55635 560.79525 192.5687 592.1075 208.125 623.0625 C 218.7311 643.8365 229.6456 664.5545 236.4375 686.9375 C 240.79283 700.33857 289.19297 688.29979 310.78125 673.90625 C 280.93809 702.85894 251.32881 732.09362 224.03125 763.5 C 200.75735 789.924 177.71415 816.547 154.90625 843.375 C 142.97835 858.119 212.47825 914.33775 224.40625 899.59375 C 245.39515 872.77375 267.6354 846.95625 290 821.28125 C 305.41266 803.36825 321.75269 786.35502 338.5625 769.78125 C 352.03528 783.80163 366.93201 793.84811 373.25 788.375 C 387.0458 775.561 400.06035 761.933 414.21875 749.5 C 421.28942 742.92154 428.3867 736.34748 435.46875 729.78125 C 432.02155 745.8668 429.34966 762.14652 426.71875 778.3125 C 420.59125 821.9585 413.6184 865.66325 412.375 909.78125 C 412.9378 915.29525 413.4997 920.7975 414.0625 926.3125 C 416.8716 944.9875 504.90285 931.7385 502.09375 913.0625 L 500.9375 910.75 C 500.3383 871.09 508.06445 831.72425 513.09375 792.53125 C 518.24625 761.65525 522.5618 729.4575 537.6875 701.5625 C 542.8789 693.33036 525.43691 676.7832 505.90625 664.78125 C 515.24582 656.18192 524.56324 647.56413 533.90625 638.96875 C 541.89633 631.66953 549.92937 624.40442 557.9375 617.125 C 587.6523 636.79851 618.58287 654.52919 650.0625 671.28125 C 641.70465 672.44097 635.86671 675.09263 635.1875 679.6875 C 631.0064 715.5845 633.4553 751.81925 635.3125 787.78125 C 638.3238 836.07525 642.2831 884.306 644.875 932.625 C 645.658 946.614 645.89995 960.58775 645.78125 974.59375 C 645.97095 993.43975 734.8147 992.56575 734.625 973.71875 C 734.2308 958.26475 733.62755 942.802 732.59375 927.375 C 729.46275 879.459 725.4542 831.60825 722.875 783.65625 C 721.80733 758.28188 720.14112 732.65593 722.09375 707.28125 C 736.7625 714.28122 751.32223 721.47634 765.3125 729.71875 C 763.84981 728.27442 761.81877 726.27897 759.125 723.6875 C 774.83467 732.93052 842.89688 690.33664 833.53125 674.96875 C 816.76355 656.02875 825.26495 662.76725 809.78125 652.65625 C 777.79325 635.54025 744.28235 621.478 711.90625 605.125 C 682.22759 590.05105 652.89715 574.25455 624.6875 556.65625 C 639.72328 543.07635 654.75762 529.49926 669.78125 515.90625 C 697.88615 491.01025 725.85035 465.62225 757.09375 444.65625 C 761.21392 441.93413 760.91205 434.85203 757.9375 426.0625 C 769.32377 426.01751 780.72659 426.44365 792.0625 427.625 C 793.4986 427.954 794.90765 428.26475 796.34375 428.59375 C 815.00645 431.68875 829.6002 343.719 810.9375 340.625 C 807.0726 340.075 803.20855 339.51875 799.34375 338.96875 C 786.48845 338.08975 773.61772 337.77915 760.75 337.875 z M 765.3125 729.71875 C 768.71662 733.08015 769.20548 733.609 766.375 730.34375 C 766.02085 730.13331 765.66739 729.92784 765.3125 729.71875 z M 628.6875 435.46875 C 622.98281 440.57809 617.3111 445.69114 611.625 450.8125 C 591.85494 468.94669 572.00402 487.0138 552.15625 505.0625 C 529.59922 487.45624 507.71642 468.8613 489.9375 446.34375 C 509.39784 445.34622 528.85013 444.03253 548.28125 442.65625 C 575.13016 440.70843 601.90245 438.11165 628.6875 435.46875 z "
     id="path8541" />
</svg>
