<?xml version="1.0" encoding="utf-8" ?>

<!DOCTYPE svg PUBLIC "-//W3C//DTD SVG 1.1//EN" 
  "http://www.w3.org/Graphics/SVG/1.1/DTD/svg11.dtd">
<svg 
    xmlns="http://www.w3.org/2000/svg"
    xmlns:xlink="http://www.w3.org/1999/xlink"
    xmlns:sodipodi="http://sodipodi.sourceforge.net/DTD/sodipodi-0.dtd"
    xmlns:inkscape="http://www.inkscape.org/namespaces/inkscape"
    width="1024" height="1024" id="U6DF1">
<path d="m 10460.421,42210.35 c 13.731,22.246 32.693,40.398 51.426,58.354 3.7,3.655 7.4,7.311 11.101,10.967 13.161,13.108 -48.631,75.15 -61.793,62.042 l 0,0 c -3.319,-3.335 -6.638,-6.67 -9.957,-10.006 -23.748,-22.949 -47.158,-46.477 -65.542,-74.1 -10.025,-15.86 64.74,-63.117 74.765,-47.257 z" id="path11887" inkscape:connector-curvature="0" style="fill:#a02c2c;fill-opacity:1;fill-rule:nonzero;stroke:#f9f9f9;stroke-width:0.1;stroke-miterlimit:4;stroke-dasharray:none" transform="translate(-10240, -41984)"/><path d="m 10463.44,42435.088 c 10.349,27.135 25.093,52.323 38.783,77.858 11.378,22.196 5.845,10.915 16.579,33.851 7.811,16.79 -71.335,53.611 -79.146,36.821 l 0,0 c -8.999,-19.482 -4.238,-9.677 -14.323,-29.397 -15.696,-29.202 -32.273,-58.05 -44.928,-88.754 -6.445,-17.615 76.591,-47.994 83.035,-30.379 z" id="path11889" inkscape:connector-curvature="0" style="fill:#a02c2c;fill-opacity:1;fill-rule:nonzero;stroke:#f9f9f9;stroke-width:0.1;stroke-miterlimit:4;stroke-dasharray:none" transform="translate(-10240, -41984)"/><path d="m 10378.568,42809.642 c 27.656,-38.619 61.553,-72.226 94.713,-106.047 30.372,-30.237 60.022,-61.166 89.17,-92.579 12.393,-13.322 75.194,45.096 62.801,58.418 l 0,0 c -29.66,31.811 -59.761,63.193 -90.354,94.111 -28.506,29.535 -57.954,58.805 -81.236,92.777 -9.903,15.93 -84.996,-30.75 -75.094,-46.68 z" id="path11891" inkscape:connector-curvature="0" style="fill:#a02c2c;fill-opacity:1;fill-rule:nonzero;stroke:#f9f9f9;stroke-width:0.1;stroke-miterlimit:4;stroke-dasharray:none" transform="translate(-10240, -41984)"/><path d="m 10706.155,42243.473 c -9.394,38.763 -20.891,76.969 -31.953,115.276 -6.493,25.312 -15.527,50.217 -19.082,76.191 -3.162,18.395 -89.873,3.491 -86.711,-14.903 l 0,0 c 5.569,-28.939 14.361,-57.08 22.437,-85.395 10.438,-36.036 21.365,-72.03 28.751,-108.847 3.75,-18.362 90.308,-0.684 86.558,17.678 z" id="path11897" inkscape:connector-curvature="0" style="fill:#a02c2c;fill-opacity:1;fill-rule:nonzero;stroke:#f9f9f9;stroke-width:0.1;stroke-miterlimit:4;stroke-dasharray:none" transform="translate(-10240, -41984)"/><path d="m 10693.518,42198.111 c 42.736,-9.085 86.48,-11.526 129.998,-13.757 51.913,-2.145 103.88,-2.419 155.83,-2.593 33.362,-0.165 66.678,1.461 99.934,3.966 14.848,1.3 29.718,2.544 44.498,4.498 35.554,6.54 48.803,27.027 55.05,60.886 1.281,38.112 -12.459,74.464 -24.953,109.863 -14.237,38.404 -29.828,76.306 -46.675,113.637 -7.708,16.854 -87.161,-19.485 -79.452,-36.339 l 0,0 c 16.111,-34.713 30.909,-70.047 44.042,-105.998 7.889,-22.807 15.906,-45.759 19.463,-69.724 5.16,6.969 12.538,15.434 20.137,15.395 -13.066,-2.063 -26.303,-3.041 -39.435,-4.583 -30.805,-2.849 -61.686,-4.787 -92.638,-4.877 -50.4,-0.204 -100.825,-0.116 -151.185,2.16 -37.739,2.109 -75.886,4.006 -112.723,13.097 -18.166,4.644 -40.056,-80.988 -21.891,-85.631 z" id="path11899" inkscape:connector-curvature="0" style="fill:#a02c2c;fill-opacity:1;fill-rule:nonzero;stroke:#f9f9f9;stroke-width:0.1;stroke-miterlimit:4;stroke-dasharray:none" transform="translate(-10240, -41984)"/><path d="m 10760.794,42325.286 c -19.107,27.938 -34.97,57.901 -50.08,88.132 -9.527,19.233 -18.254,38.818 -25.002,59.195 -6.153,17.544 -88.853,-11.459 -82.7,-29.003 l 0,0 c 8.613,-23.614 18.606,-46.642 29.935,-69.096 16.653,-33.26 34.192,-66.084 53.896,-97.656 10.273,-15.687 84.224,32.741 73.951,48.428 z" id="path11901" inkscape:connector-curvature="0" style="fill:#a02c2c;fill-opacity:1;fill-rule:nonzero;stroke:#f9f9f9;stroke-width:0.1;stroke-miterlimit:4;stroke-dasharray:none" transform="translate(-10240, -41984)"/><path d="m 10925.986,42315.002 c 17.021,19.444 36.238,36.74 55.9,53.44 20.087,16.23 40.254,32.286 59.062,50 13.445,12.886 -47.299,76.268 -60.745,63.383 l 0,0 c -17.174,-16.868 -36.32,-31.44 -54.868,-46.743 -22.38,-18.976 -44.12,-38.672 -64.342,-59.962 -12.753,-13.787 52.24,-73.905 64.993,-60.118 z" id="path11903" inkscape:connector-curvature="0" style="fill:#a02c2c;fill-opacity:1;fill-rule:nonzero;stroke:#f9f9f9;stroke-width:0.1;stroke-miterlimit:4;stroke-dasharray:none" transform="translate(-10240, -41984)"/><path d="m 10638.185,42540.884 c 42.013,0.471 84.021,-0.952 126.003,-2.375 57.094,-2.109 114.056,-6.539 170.953,-11.585 22.506,-2.076 45.028,-3.997 67.484,-6.564 18.55,-1.818 27.118,85.626 8.568,87.443 l 0,0 c -22.94,1.907 -45.906,3.475 -68.85,5.329 -58.249,4.572 -116.526,8.876 -174.907,11.404 -43.077,1.789 -86.16,3.387 -129.251,4.829 -18.769,0 -18.769,-88.481 0,-88.481 z" id="path11905" inkscape:connector-curvature="0" style="fill:#a02c2c;fill-opacity:1;fill-rule:nonzero;stroke:#f9f9f9;stroke-width:0.1;stroke-miterlimit:4;stroke-dasharray:none" transform="translate(-10240, -41984)"/><path d="m 10892.774,42402.582 c -9.533,42.791 -12.82,86.826 -17.658,130.343 -8.816,78.693 -17.5,157.397 -24.284,236.295 -4.79,54.228 -6.012,108.646 -7.436,163.034 -0.899,18.949 -0.235,9.975 -1.852,26.93 -2.233,18.559 -89.719,8.035 -87.487,-10.524 l 0,0 c 1.823,-11.164 0.947,-4.611 2.162,-19.713 2.793,-55.769 4.582,-111.608 9.829,-167.227 7.21,-79.328 16.009,-158.493 24,-237.744 4.87,-49.083 7.857,-98.673 18.062,-147.007 5.433,-17.96 90.097,7.653 84.664,25.613 z" id="path11907" inkscape:connector-curvature="0" style="fill:#a02c2c;fill-opacity:1;fill-rule:nonzero;stroke:#f9f9f9;stroke-width:0.1;stroke-miterlimit:4;stroke-dasharray:none" transform="translate(-10240, -41984)"/><path d="m 10800.014,42707.156 c -24.369,9.692 -43.522,28.158 -62.22,45.925 -23.52,23.452 -46.113,47.821 -67.878,72.904 -12.201,13.891 -77.686,-43.624 -65.485,-57.515 l 0,0 c 23.766,-26.763 48.087,-53.052 73.348,-78.415 27.184,-25.931 55.654,-51.128 90.864,-65.604 17.544,-6.655 48.915,76.05 31.371,82.705 z" id="path11909" inkscape:connector-curvature="0" style="fill:#a02c2c;fill-opacity:1;fill-rule:nonzero;stroke:#f9f9f9;stroke-width:0.1;stroke-miterlimit:4;stroke-dasharray:none" transform="translate(-10240, -41984)"/><path d="m 10874.783,42656.065 c 32.353,7.474 61.06,24.744 89.531,41.137 32.154,18.854 64.747,36.942 97.125,55.405 18.342,10.287 36.055,21.604 53.472,33.37 15.362,10.518 -34.218,82.934 -49.58,72.416 l 0,0 c -15.349,-10.677 -31.038,-20.848 -47.313,-30.073 -32.26,-18.61 -64.801,-36.728 -97.041,-55.375 -19.716,-11.204 -39.49,-23.656 -61.533,-29.688 -18.496,-3.254 -3.157,-90.446 15.339,-87.192 z" id="path11911" inkscape:connector-curvature="0" style="fill:#a02c2c;fill-opacity:1;fill-rule:nonzero;stroke:#f9f9f9;stroke-width:0.1;stroke-miterlimit:4;stroke-dasharray:none" transform="translate(-10240, -41984)"/></svg>