<?xml version="1.0" encoding="UTF-8" standalone="no"?>
<svg
   xmlns:dc="http://purl.org/dc/elements/1.1/"
   xmlns:cc="http://creativecommons.org/ns#"
   xmlns:rdf="http://www.w3.org/1999/02/22-rdf-syntax-ns#"
   xmlns:svg="http://www.w3.org/2000/svg"
   xmlns="http://www.w3.org/2000/svg"
   xmlns:sodipodi="http://sodipodi.sourceforge.net/DTD/sodipodi-0.dtd"
   xmlns:inkscape="http://www.inkscape.org/namespaces/inkscape"
   width="1024"
   height="1024"
   id="U6EE1"
   version="1.1"
   inkscape:version="0.48.0 r9654"
   sodipodi:docname="U+6EE1.svg">
  <metadata
     id="metadata20">
    <rdf:RDF>
      <cc:Work
         rdf:about="">
        <dc:format>image/svg+xml</dc:format>
        <dc:type
           rdf:resource="http://purl.org/dc/dcmitype/StillImage" />
      </cc:Work>
    </rdf:RDF>
  </metadata>
  <defs
     id="defs18" />
  <sodipodi:namedview
     pagecolor="#ffffff"
     bordercolor="#666666"
     borderopacity="1"
     objecttolerance="10"
     gridtolerance="10"
     guidetolerance="10"
     inkscape:pageopacity="0"
     inkscape:pageshadow="2"
     inkscape:window-width="640"
     inkscape:window-height="480"
     id="namedview16"
     showgrid="false"
     inkscape:zoom="0.27441406"
     inkscape:cx="512"
     inkscape:cy="512"
     inkscape:window-x="0"
     inkscape:window-y="25"
     inkscape:window-maximized="0"
     inkscape:current-layer="U6EE1" />
  <path
     style="fill:#c83737;fill-opacity:1;fill-rule:nonzero;stroke:#f9f9f9;stroke-width:0.1;stroke-miterlimit:4;stroke-dasharray:none"
     d="M 498.15625 156.25 C 484.29685 156.56182 473.41875 159.47506 472.625 165.875 C 469.55052 191.72575 466.59676 217.59337 464.09375 243.5 C 449.33789 245.33292 434.58271 247.22906 419.84375 249.21875 C 388.80155 253.01975 357.77505 257.05725 326.59375 259.53125 C 307.87485 260.98325 314.7185 349.23325 333.4375 347.78125 C 365.9301 344.00425 398.34805 339.754 430.78125 335.5 C 440.49048 334.11294 450.2186 332.80137 459.9375 331.5 C 460.27211 343.20484 461.02737 354.91809 462.28125 366.59375 C 464.23169 383.38996 469.30098 398.81815 477.78125 412.9375 C 470.28168 413.8704 462.79738 414.86069 455.3125 415.9375 C 419.9203 421.0745 384.61135 426.86125 349.71875 434.78125 C 331.47325 439.21925 352.41075 525.21925 370.65625 520.78125 C 402.64495 512.14225 435.347 506.77125 468.0625 501.78125 C 484.22931 499.34181 500.44366 497.30819 516.6875 495.625 C 509.52309 517.17713 500.94738 538.24514 492.21875 559.21875 C 474.64095 562.30974 457.0426 565.37861 439.4375 568.3125 C 408.8898 573.8925 377.9369 579.0985 349.3125 591.6875 C 345.39359 593.55853 344.46773 599.29867 345.5 606.875 C 333.29016 610.13607 324.48848 615.03761 325.03125 621.0625 C 329.21845 653.9145 335.08825 686.514 341.46875 719 C 348.75015 756.751 359.93015 793.4955 373.09375 829.5625 C 379.93265 847.8285 387.39105 865.84975 394.90625 883.84375 C 397.06135 889.63175 400.32605 894.7845 403.65625 899.9375 C 414.56617 914.85527 483.65941 864.7832 476.03125 848.40625 C 468.74084 832.11944 461.61272 815.7452 455.1875 799.09375 C 453.36278 794.27048 451.60587 789.4177 449.875 784.5625 C 470.20853 789.66595 490.67279 790.41072 493.03125 781.8125 C 493.32305 775.3707 495.94992 769.16509 499.03125 763.03125 C 513.32411 772.04231 527.94368 780.57978 542.59375 789 C 566.45235 803.118 590.47525 816.89025 615.34375 829.15625 C 624.62275 834.27725 634.60135 837.47625 644.71875 840.40625 C 658.27877 843.81658 673.70043 797.11381 673.1875 771.125 C 678.91769 762.78188 684.21356 754.17895 689.0625 745.3125 C 701.3402 752.09783 713.97155 758.26005 726.75 764.15625 C 749.2492 773.39525 770.35025 785.332 790.96875 798.125 C 794.84653 800.64665 798.80819 803.05055 802.78125 805.40625 C 799.45777 817.92234 796.15575 830.44921 792.96875 843 C 793.82465 844.24491 784.48903 874.39617 787.78125 864.71875 C 784.98993 882.34879 856.24363 922.68684 865.28125 907.03125 C 871.86825 893.16325 876.1041 879.213 878.4375 864 C 885.1485 835.676 892.5088 807.51625 900.0625 779.40625 C 908.7681 748.18825 917.03105 716.83575 926.09375 685.71875 C 930.99675 669.12275 936.59695 652.668 940.28125 635.75 C 942.81395 614.149 937.85925 592.61525 918.46875 579.90625 C 912.01825 575.22725 905.80505 570.21575 898.96875 566.09375 C 888.88975 561.06375 878.35065 557.51575 867.34375 555.09375 C 855.77635 552.38075 844.08275 550.3655 832.40625 548.1875 C 812.61318 544.39585 792.68084 541.50923 772.625 539.53125 C 775.46329 532.25352 778.39096 525.0181 781.5625 517.875 C 784.05672 512.2064 776.89976 504.53385 765.9375 497.40625 C 793.32503 500.41912 820.62741 504.0357 847.875 508.125 C 867.77715 509.0199 882.79966 519.5705 855.25 503.5625 C 873.02158 508.09564 929.56373 454.77595 917.65625 441.78125 C 910.64315 437.03125 904.0755 431.56025 896.625 427.53125 C 885.931 421.74925 871.57565 424.28 860.21875 421.125 C 827.54805 416.746 794.84485 412.75975 762.03125 409.59375 C 712.93875 405.05675 663.68945 401.50425 614.34375 402.78125 C 582.8718 403.76428 551.43605 405.52266 520.09375 408.375 C 538.48852 394.22726 555.76232 374.11637 551.84375 365.15625 C 556.5035 372.55497 548.65499 360.18906 549.65625 356.1875 C 548.07274 344.53602 547.31667 332.84162 547.125 321.125 C 556.7938 320.13163 566.47401 319.16185 576.15625 318.28125 C 595.01625 316.64738 613.89016 315.2648 632.78125 314.09375 C 629.36299 327.7488 625.87119 341.39612 622.375 355.03125 C 619.84 365.79925 621.0139 360.66275 618.875 370.34375 C 615.04 388.71375 701.63375 406.8075 705.46875 388.4375 C 706.99715 380.5555 706.13955 384.696 707.96875 376 C 713.08893 354.0885 718.37877 332.22409 723.5 310.3125 C 749.32665 310.03456 775.10021 312.06707 800.8125 314.375 C 817.35919 315.90119 833.83032 318.03103 850.25 320.5625 C 850.03939 320.43744 849.84956 320.30071 849.625 320.15625 C 844.79206 317.04838 840.37282 313.356 835.84375 309.8125 C 852.29202 317.29542 914.77309 267.59283 903.8125 253.46875 C 890.2716 242.53075 881.2231 234.602 864.0625 233.125 C 845.5379 230.629 826.96625 228.53325 808.34375 226.90625 C 786.22744 225.08683 764.05577 223.53532 741.875 223.15625 C 743.94392 211.36124 745.7513 199.5325 747.125 187.625 C 748.5407 168.906 660.32195 162.2195 658.90625 180.9375 C 657.69273 196.13016 655.37006 211.18828 652.5625 226.15625 C 624.46768 227.74687 596.38193 229.75039 568.34375 232.1875 C 563.13968 232.65642 557.95054 233.15712 552.75 233.65625 C 554.84592 214.64101 557.31163 195.67696 560.375 176.78125 C 561.89035 164.56319 524.6151 155.6547 498.15625 156.25 z M 850.25 320.5625 C 855.05613 323.41635 856.19547 321.35104 851.375 320.71875 C 851.00055 320.66059 850.62451 320.62024 850.25 320.5625 z M 184.3125 214.0625 C 162.58844 214.71283 109.64416 253.08742 118.65625 266.46875 C 132.46945 286.26475 147.2773 305.3385 162.1875 324.3125 C 167.1777 330.3485 172.19545 336.68825 175.65625 343.53125 C 184.10305 360.29225 263.10305 320.48075 254.65625 303.71875 C 247.99225 291.53075 240.35015 280.1545 231.15625 269.6875 C 217.51805 252.6085 203.8551 235.4925 192.0625 217.0625 C 190.58779 214.87283 187.86735 213.95608 184.3125 214.0625 z M 124.375 454.71875 C 104.24034 455.54483 53.939586 504.50577 65.28125 516.78125 C 84.74085 536.53325 102.96565 557.4455 121.90625 577.6875 C 134.41175 592.0945 150.4208 604.53075 158.75 622.09375 C 159.3691 624.61975 159.26925 623.491 159.28125 625.5 C 164.38535 643.555 249.51035 619.4925 244.40625 601.4375 C 239.69255 586.4505 242.48845 593.80925 235.96875 579.28125 C 222.50445 556.15625 204.77915 536.511 185.78125 517.75 C 166.94045 497.713 148.7772 477.075 130.25 456.75 C 128.85718 455.24248 126.84768 454.6173 124.375 454.71875 z M 634.15625 488.96875 C 655.11099 488.97865 676.03717 489.87189 696.9375 491.28125 C 691.25188 505.9145 686.0251 520.71144 680.84375 535.53125 C 678.03107 535.63895 675.21909 535.77224 672.40625 535.9375 C 645.82518 537.45219 619.2699 539.62587 592.84375 542.84375 C 597.48249 530.92828 601.90321 518.93311 606 506.8125 C 607.63242 501.50712 601.37066 495.49881 591.625 490.125 C 600.07768 489.73771 608.54062 489.44294 617 489.1875 C 622.71598 489.05125 628.44409 488.96605 634.15625 488.96875 z M 741.03125 624.71875 C 747.36303 625.25926 753.6805 625.87849 760 626.53125 C 778.5893 628.31825 797.0219 631.0805 815.3125 634.8125 C 825.7537 636.9855 836.30325 638.70325 846.65625 641.28125 C 846.74894 641.30107 847.10913 641.4033 847.25 641.4375 C 845.36005 648.1105 843.42536 654.78933 841.5625 661.46875 C 836.46463 679.90665 831.56866 698.39606 826.625 716.875 C 806.25041 704.91137 785.37418 693.81882 763.5625 684.625 C 750.36914 678.49304 737.23185 672.22029 724.875 664.625 C 730.37715 651.3716 735.78784 638.07531 741.03125 624.71875 z M 647.09375 625 C 640.14166 641.80566 632.95385 658.51909 625.6875 675.1875 C 618.88099 691.5358 610.99774 707.25582 600.75 721.53125 C 595.89291 718.71062 591.03124 715.87782 586.1875 713.03125 C 568.44851 702.86504 550.69609 692.57235 534 680.75 C 540.36081 666.12336 546.77712 651.51198 553.1875 636.90625 C 557.56163 636.13233 561.93671 635.35823 566.3125 634.59375 C 593.07123 630.03121 620.04294 627.03926 647.09375 625 z M 235.78125 638.21875 C 234.22925 638.17117 232.86269 638.54203 231.71875 639.40625 C 202.58515 661.56725 173.5224 683.85 145.0625 706.875 C 114.2649 732.035 83.47855 757.35475 55.53125 785.71875 C 42.50725 799.25075 106.2884 860.62475 119.3125 847.09375 C 143.7869 820.07975 172.0143 796.82275 200 773.59375 C 227.3768 751.13975 255.5559 729.6805 283.875 708.4375 C 297.37346 698.23972 254.09489 638.78018 235.78125 638.21875 z M 450.75 655.15625 C 443.4864 671.69704 436.2545 688.24447 429.125 704.84375 C 428.75497 705.74064 428.37535 706.6366 428 707.53125 C 427.65287 705.8107 427.29559 704.10089 426.96875 702.375 C 424.33874 688.70253 421.79464 674.99285 419.53125 661.25 C 429.86602 658.87636 440.34969 657.0545 450.75 655.15625 z M 476.1875 848.71875 C 476.6243 849.58975 477.0633 850.4415 477.5 851.3125 C 477.486 851.1615 477.48275 851.026 477.46875 850.875 C 477.04724 850.15511 476.60906 849.43918 476.1875 848.71875 z "
     id="path10742" />
</svg>
