<?xml version="1.0" encoding="UTF-8" standalone="no"?>
<svg
   xmlns:dc="http://purl.org/dc/elements/1.1/"
   xmlns:cc="http://creativecommons.org/ns#"
   xmlns:rdf="http://www.w3.org/1999/02/22-rdf-syntax-ns#"
   xmlns:svg="http://www.w3.org/2000/svg"
   xmlns="http://www.w3.org/2000/svg"
   xmlns:sodipodi="http://sodipodi.sourceforge.net/DTD/sodipodi-0.dtd"
   xmlns:inkscape="http://www.inkscape.org/namespaces/inkscape"
   width="1024"
   height="1024"
   id="U6E38"
   version="1.1"
   inkscape:version="0.48.0 r9654"
   sodipodi:docname="U+6E38.svg">
  <metadata
     id="metadata18">
    <rdf:RDF>
      <cc:Work
         rdf:about="">
        <dc:format>image/svg+xml</dc:format>
        <dc:type
           rdf:resource="http://purl.org/dc/dcmitype/StillImage" />
      </cc:Work>
    </rdf:RDF>
  </metadata>
  <defs
     id="defs16" />
  <sodipodi:namedview
     pagecolor="#ffffff"
     bordercolor="#666666"
     borderopacity="1"
     objecttolerance="10"
     gridtolerance="10"
     guidetolerance="10"
     inkscape:pageopacity="0"
     inkscape:pageshadow="2"
     inkscape:window-width="640"
     inkscape:window-height="480"
     id="namedview14"
     showgrid="false"
     inkscape:zoom="0.27441406"
     inkscape:cx="512"
     inkscape:cy="512"
     inkscape:window-x="0"
     inkscape:window-y="25"
     inkscape:window-maximized="0"
     inkscape:current-layer="U6E38" />
  <path
     style="fill:#2b1100;fill-opacity:1;fill-rule:nonzero;stroke:none"
     d="M 365.3125 172.375 C 346.56399 172.37737 300.45019 231.83611 313.9375 242.6875 C 337.0091 260.5725 362.2748 275.26625 387.3125 290.15625 C 391.0869 292.46725 394.8507 294.78275 398.625 297.09375 C 414.5281 306.74075 459.99695 231.772 444.09375 222.125 C 440.03875 219.687 435.9926 217.2505 431.9375 214.8125 C 410.4693 202.1485 388.5993 189.80275 369.4375 173.71875 C 368.29452 172.79914 366.90136 172.3748 365.3125 172.375 z M 617.1875 223.90625 C 608.56109 223.99437 602.29433 225.93725 601.0625 230.46875 C 593.3416 264.95975 584.63075 299.22425 575.65625 333.40625 C 561.58315 386.52825 543.3059 438.38275 529.125 491.46875 C 527.16227 500.07572 526.22611 504.17548 525.53125 507.1875 C 490.14949 495.02586 453.95281 492.04357 416.78125 499.25 C 407.73179 500.93083 398.70104 502.7253 389.71875 504.71875 C 395.07183 479.55093 400.34509 454.37272 405.3125 429.125 C 405.46595 428.20431 405.36655 427.30368 405.09375 426.40625 C 426.30014 422.63966 447.6975 419.93548 469.21875 418.3125 C 487.14695 418.2125 478.8314 417.74225 494.1875 419.28125 C 512.722 420.59225 518.9095 333.21725 500.375 331.90625 C 475.2115 330.55025 488.00245 330.71425 461.96875 331.53125 C 413.19795 335.93825 364.957 344.5135 317.75 357.6875 C 286.38627 366.47717 255.30598 376.21112 223.90625 384.84375 C 235.37854 375.08676 242.85876 364.93606 239.09375 359.25 C 225.06255 338.335 232.3041 348.5455 217.4375 328.6875 C 198.4394 304.2965 178.03965 280.487 163.78125 252.875 C 155.28665 236.16 76.5054 276.2225 85 292.9375 C 102.6845 325.0365 126.2337 353.247 148.5625 382.125 C 161.3123 399.371 155.4478 390.897 166.25 407.5 C 171.14592 414.89392 190.3621 407.69895 207.96875 396.5 C 203.03875 419.45943 219.19564 477.19231 234.25 473.71875 C 260.346 465.7525 286.32701 457.46059 312.4375 449.5625 C 305.3025 489.90248 296.66 529.97462 288.40625 570.09375 C 275.59085 636.26275 261.952 702.24575 245.9375 767.71875 C 238.182 797.64475 230.904 827.67875 229 858.59375 C 228.2977 877.25975 316.26645 880.57225 316.96875 861.90625 C 316.53525 836.68325 325.22575 812.17625 329.84375 787.65625 C 344.1379 725.68521 356.85405 663.36157 369.3125 601 C 389.85093 593.79919 411.16183 589.01206 432.5625 585.125 C 454.9137 581.228 477.1429 581.27175 498.0625 590.46875 C 511.1218 597.43675 518.7293 609.0385 524.8125 622.0625 C 533.7721 645.0505 533.6627 669.6795 532.75 693.9375 C 531.1087 727.7795 525.05665 761.16175 513.03125 792.84375 C 510.02485 799.81675 506.7788 806.22025 500.875 811.03125 C 488.597 825.09125 554.87825 882.9985 567.15625 868.9375 C 578.69975 854.6875 589.13385 840.244 595.15625 822.625 C 609.40145 782.114 617.8653 740.0495 619.8125 697.0625 C 620.02661 690.93425 620.1905 684.81112 620.21875 678.6875 C 651.11532 676.92193 681.98742 675.16829 712.84375 672.78125 C 725.7882 690.79146 734.74685 710.92216 741.875 731.84375 C 749.8922 757.59875 755.0966 784.4015 754.4375 811.4375 C 752.8545 823.4715 750.82315 819.69925 741.21875 823.03125 C 723.12385 828.84125 703.97365 829.395 685.15625 828.5 L 676.21875 827.375 C 657.69575 825.338 648.102 912.6505 666.625 914.6875 L 681.875 916.21875 C 714.622 917.23375 747.62925 915.16225 778.34375 902.65625 C 817.96265 882.84425 840.0221 857.54025 842.125 811.65625 C 841.7366 774.85125 835.97585 738.40375 824.53125 703.34375 C 819.65336 689.33066 814.21053 675.54192 807.90625 662.1875 C 820.36368 660.57933 832.81031 658.98754 845.28125 657.5 C 867.93255 654.989 890.94525 653.91925 913.21875 659.40625 C 918.73535 661.63425 916.1998 660.3965 920.875 662.9375 C 937.9633 670.5825 973.99455 590.02 956.90625 582.375 C 940.80435 575.603 949.1758 578.67075 931.6875 573.34375 C 902.7443 567.57055 873.49311 566.65199 844.21875 569.84375 C 857.65887 556.87402 870.80434 543.58626 883.65625 530.03125 C 910.76525 499.01925 915.5837 460.52575 868.8125 441.96875 C 854.9731 438.95475 840.8218 438.22175 826.75 436.84375 C 795.0588 433.92675 763.26385 431.43875 731.40625 432.46875 C 699.39695 433.58275 667.435 435.64225 635.75 440.53125 C 634.9551 440.67374 634.23377 440.9989 633.5625 441.4375 C 641.45743 415.84415 649.56478 390.29345 656.8125 364.5 C 666.22445 378.44117 676.80048 388.44783 683.3125 384.875 C 706.1377 372.855 731.89755 368.81325 757.15625 365.40625 C 794.61555 361.61825 832.3323 361.983 869.9375 361.375 C 898.0114 361.152 926.10045 359.716 954.15625 361.25 C 960.46695 362.117 958.22345 361.1495 961.40625 362.8125 C 979.67055 367.0485 999.6393 280.95475 981.375 276.71875 C 965.518 273.59675 973.3509 274.7105 957.875 273.3125 C 928.0406 272.3435 898.2071 273.74125 868.375 274.28125 C 827.3831 275.08125 786.28625 274.64225 745.46875 279.03125 C 722.02016 282.21705 698.5459 286.24589 676 293.25 C 679.49444 280.07214 682.99723 266.89387 686.5 253.71875 C 690.19555 240.12425 643.06672 223.64188 617.1875 223.90625 z M 627.46875 461.34375 C 626.84214 487.88664 638.41135 530.01059 651.375 527.6875 C 678.7433 522.3115 706.6201 520.61125 734.4375 519.65625 C 746.0391 519.30803 757.6161 519.52567 769.1875 520.125 C 754.00809 534.27695 738.3965 547.95377 721.90625 560.5625 C 715.47665 565.4085 708.18095 568.85275 701.15625 572.71875 C 694.45956 577.02085 689.24697 582.03634 685.4375 587.5 C 661.63009 588.96471 637.79435 590.00524 613.9375 590.4375 C 611.62518 590.57596 609.6943 592.03746 608.09375 594.5 C 606.63031 590.46936 605.02689 586.46277 603.21875 582.5 C 597.8317 572.18042 591.86079 562.42335 585.125 553.4375 C 597.09601 553.2826 606.23952 550.78633 607.21875 545.0625 C 610.25395 525.1405 608.3842 535.77675 613 513.21875 C 617.36939 495.78859 622.3047 478.5397 627.46875 461.34375 z M 148.65625 499.5625 C 126.9331 499.37847 72.605789 535.69492 81.09375 549.40625 C 97.07945 573.18425 112.43385 597.34025 125.15625 623.03125 C 133.45165 639.60925 211.6079 600.5155 203.3125 583.9375 C 189.2119 555.9825 172.76835 529.44175 156.28125 502.84375 C 154.89231 500.60008 152.21095 499.59261 148.65625 499.5625 z M 846.15625 527.8125 C 847.10706 527.99182 847.72463 528.12677 846.96875 528.09375 C 846.67928 527.98469 846.43852 527.91757 846.15625 527.8125 z M 185.1875 660.71875 C 183.63413 660.74424 182.29012 661.17617 181.1875 662.09375 C 155.4935 683.55075 168.36845 672.71475 142.59375 694.59375 C 110.15645 722.14675 77.71855 749.73275 46.65625 778.84375 C 33.33475 792.03275 95.491 854.84425 108.8125 841.65625 C 137.071 812.78125 167.97355 786.63625 198.65625 760.40625 C 224.09075 738.85225 211.4683 749.43 236.5625 728.625 C 249.57357 717.7985 203.51727 660.418 185.1875 660.71875 z "
     id="path13185" />
</svg>
