<?xml version="1.0" encoding="utf-8" ?>

<!DOCTYPE svg PUBLIC "-//W3C//DTD SVG 1.1//EN" 
  "http://www.w3.org/Graphics/SVG/1.1/DTD/svg11.dtd">
<svg 
    xmlns="http://www.w3.org/2000/svg"
    xmlns:xlink="http://www.w3.org/1999/xlink"
    xmlns:sodipodi="http://sodipodi.sourceforge.net/DTD/sodipodi-0.dtd"
    xmlns:inkscape="http://www.inkscape.org/namespaces/inkscape"
    width="1024" height="1024" id="U6FA1">
<path d="m 7377.7885,62694.575 c 30.5267,20.445 60.6396,41.501 90.2462,63.255 21.3025,16.505 10.9383,8.041 31.1097,25.37 13.9529,12.176 -43.4454,77.951 -57.3984,65.775 l 0,0 c -15.6909,-13.977 -7.2927,-6.905 -25.3066,-21.083 -27.6524,-20.413 -55.8152,-40.215 -85.1468,-58.159 -15.9434,-9.863 30.5525,-85.021 46.4959,-75.158 z" id="path13883" inkscape:connector-curvature="0" style="fill:#2b1100;fill-opacity:1;fill-rule:nonzero;stroke:none" transform="translate(-7168, -62464)"/><path d="m 7340.8935,62888.418 c 21.1327,23.393 42.7717,46.135 61.8952,71.241 12.3259,16.292 20.3583,34.774 28.0889,53.488 6.9027,17.217 -74.2587,49.756 -81.1615,32.539 l 0,0 c -4.4554,-11.707 -9.1749,-23.213 -16.6636,-33.409 -17.4889,-23.485 -38.1824,-44.088 -58.3686,-65.236 -12.4358,-14.045 53.7738,-72.668 66.2096,-58.623 z" id="path13885" inkscape:connector-curvature="0" style="fill:#2b1100;fill-opacity:1;fill-rule:nonzero;stroke:none" transform="translate(-7168, -62464)"/><path d="m 7264.3792,63315.821 c 41.2949,-33.409 81.8466,-67.71 123.2992,-100.931 34.5933,-26.777 17.4582,-13.747 51.3846,-39.119 14.64,-10.865 65.8608,58.148 51.2208,69.014 l 0,0 c -32.3735,23.834 -16.0405,11.551 -48.9734,36.885 -40.9467,32.958 -81.0244,66.948 -120.3127,101.871 -14.3656,12.01 -70.9841,-55.71 -56.6185,-67.72 z" id="path13887" inkscape:connector-curvature="0" style="fill:#2b1100;fill-opacity:1;fill-rule:nonzero;stroke:none" transform="translate(-7168, -62464)"/><path d="m 7670.586,62658.685 c 7.0357,29.951 16.3636,59.28 26.5445,88.289 8.1386,22.46 17.0129,44.654 26.5144,66.571 0.7086,1.497 1.4172,2.994 2.1258,4.49 7.6407,17.146 -73.1826,53.164 -80.8233,36.019 l 0,0 c -0.9183,-2.154 -1.8366,-4.308 -2.7549,-6.462 -9.6104,-23.773 -18.886,-47.687 -27.4786,-71.849 -10.9114,-31.411 -20.8147,-63.137 -29.7592,-95.167 -4.6437,-18.165 80.9876,-40.056 85.6313,-21.891 z" id="path13901" inkscape:connector-curvature="0" style="fill:#2b1100;fill-opacity:1;fill-rule:nonzero;stroke:none" transform="translate(-7168, -62464)"/><path d="m 7663.4951,62610.689 c 33.6069,-5.748 67.5876,-7.717 101.6292,-7.879 38.5149,0.727 76.6315,6.73 113.8213,16.513 36.4722,10.764 58.1076,30.066 73.7981,64.299 10.6949,30.098 7.5322,60.925 0.5911,91.359 -6.7359,26.571 -17.933,51.557 -31.2,75.433 -5.5976,10.262 -12.5997,19.514 -19.8343,28.638 -11.8684,14.479 -80.1256,-41.469 -68.2572,-55.949 l 0,0 c 4.3551,-4.889 8.1352,-10.175 11.4013,-15.868 9.4886,-16.533 17.4571,-33.906 22.3753,-52.388 3.064,-12.329 5.57,-24.896 3.4456,-37.62 -0.2831,-8.505 -7.8651,-10.586 -15.3748,-13.353 -29.4119,-8.417 -59.7962,-13.059 -90.3943,-13.934 -28.6709,0.106 -57.3848,1.735 -85.5133,7.685 -18.4421,3.498 -34.9301,-83.439 -16.488,-86.936 z" id="path13903" inkscape:connector-curvature="0" style="fill:#2b1100;fill-opacity:1;fill-rule:nonzero;stroke:none" transform="translate(-7168, -62464)"/><path d="m 7648.7542,62812.672 c 33.0564,-3.042 66.0302,-6.795 99.1305,-9.371 40.1788,-3.129 80.4694,-1.518 120.5798,1.62 15.1059,1.205 30.1298,2.996 45.0418,5.675 18.3953,3.663 1.125,90.379 -17.2702,86.716 l 0,0 c -11.5631,-2.701 -23.3567,-3.972 -35.1543,-5.214 -35.339,-3.251 -70.8799,-4.936 -106.3238,-2.108 -33.096,2.677 -66.0598,6.564 -98.9765,10.914 -18.7168,1.491 -25.7441,-86.741 -7.0273,-88.232 z" id="path13907" inkscape:connector-curvature="0" style="fill:#2b1100;fill-opacity:1;fill-rule:nonzero;stroke:none" transform="translate(-7168, -62464)"/><path d="m 7577.4073,62947.661 c 0.4681,26.844 3.7489,53.518 7.2882,80.097 4.1922,28.406 8.9248,56.806 16.5086,84.526 0.8403,2.487 1.6806,4.973 2.521,7.46 5.6051,17.821 -78.4022,44.244 -84.0073,26.423 l 0,0 c -1.1693,-3.903 -2.3387,-7.805 -3.508,-11.708 -7.8715,-31.313 -13.5006,-63.122 -18.0735,-95.077 -3.9755,-29.373 -7.4994,-58.807 -9.2116,-88.413 -0.7017,-18.77 87.7809,-22.078 88.4826,-3.308 z" id="path13909" inkscape:connector-curvature="0" style="fill:#2b1100;fill-opacity:1;fill-rule:nonzero;stroke:none" transform="translate(-7168, -62464)"/><path d="m 7560.2041,62935.334 c 30.0769,0.96 60.16,1.686 90.2429,2.424 35.6623,0.384 71.2751,1.159 106.2475,8.571 41.1806,12.22 59.1902,36.734 64.4845,78.408 0.6879,29.949 -8.7995,58.496 -18.2769,86.495 -6.3678,19.617 -13.3731,38.643 -24.7824,55.876 -11.2244,15.072 -82.2751,-37.841 -71.0507,-52.913 l 0,0 c -0.2956,0.781 -1.6715,2.628 -0.887,2.342 3.9424,-1.434 10.8645,-29.62 13.5752,-33.742 5.7047,-16.478 11.5615,-33.136 13.6011,-50.546 0.2038,-0.417 0.1477,-1.239 0.6113,-1.25 1.4963,-0.04 12.8894,8.207 3.0195,0.897 -28.7624,-7.675 -59.0372,-5.628 -88.506,-6.963 -29.4202,-0.603 -58.8521,-1.319 -88.279,-1.07 -18.7799,0 -18.7799,-88.529 0,-88.529 z" id="path13911" inkscape:connector-curvature="0" style="fill:#2b1100;fill-opacity:1;fill-rule:nonzero;stroke:none" transform="translate(-7168, -62464)"/><path d="m 7548.1792,63084.352 c 39.42,-1.838 78.8547,-1.807 118.2783,-0.291 36.3679,1.899 72.6228,5.521 108.6886,10.52 2.8177,0.343 5.6354,0.686 8.4531,1.029 18.528,2.562 6.449,89.904 -12.079,87.342 l 0,0 c -3.1284,-0.48 -6.2568,-0.959 -9.3853,-1.439 -32.7969,-5.312 -65.8484,-8.992 -99.0328,-10.781 -36.5396,-1.425 -73.1613,-1.438 -109.6148,1.867 -18.72,1.126 -24.0281,-87.121 -5.3081,-88.247 z" id="path13913" inkscape:connector-curvature="0" style="fill:#2b1100;fill-opacity:1;fill-rule:nonzero;stroke:none" transform="translate(-7168, -62464)"/><path d="m 7907.694,62975.317 c -1.8005,20.397 0.9382,40.853 3.9973,60.992 3.1854,18.31 7.11,36.523 12.0044,54.456 4.6038,18.188 -81.1357,39.89 -85.7394,21.702 l 0,0 c -4.9808,-20.935 -9.5781,-41.984 -13.032,-63.23 -4.0743,-27.777 -7.2533,-55.863 -5.2093,-83.975 2.1329,-18.663 90.1119,-8.609 87.979,10.055 z" id="path13919" inkscape:connector-curvature="0" style="fill:#2b1100;fill-opacity:1;fill-rule:nonzero;stroke:none" transform="translate(-7168, -62464)"/><path d="m 7889.2652,62907.604 c 27.3645,-0.329 54.6489,1.914 81.8133,4.982 25.5688,3.11 50.7806,8.652 75.3785,16.237 14.6246,4.589 28.5663,10.647 41.449,18.933 21.7864,15.798 27.3085,39.564 27.2061,65.033 -2.4163,28.469 -10.6198,56.041 -17.9021,83.554 -5.8497,22.268 -11.0819,44.709 -14.8012,67.436 -1.2189,8.391 -0.5943,4.255 -1.8701,12.409 -3.1672,18.511 -90.4291,3.58 -87.2619,-14.931 l 0,0 c 1.4254,-7.544 0.6543,-3.295 2.2602,-12.759 4.6492,-25.052 10.5304,-49.85 17.01,-74.49 5.4709,-20.81 11.3651,-41.648 14.2343,-63.012 0.6296,-6.377 5.0144,8.193 10.922,9.894 -2.5363,-2.46 -12.8553,-5.966 -18.016,-7.996 -19.0048,-6.34 -38.6409,-10.706 -58.5151,-13.247 -22.4689,-2.579 -45.0957,-4.58 -67.7347,-3.592 -18.7634,0.885 -22.9356,-87.566 -4.1723,-88.451 z" id="path13921" inkscape:connector-curvature="0" style="fill:#2b1100;fill-opacity:1;fill-rule:nonzero;stroke:none" transform="translate(-7168, -62464)"/><path d="m 7853.604,63099.482 c 32.9649,-7.429 66.374,-11.94 100.0055,-14.861 27.6644,-2.475 55.3798,-2.664 83.0098,0 18.5386,2.028 8.9801,89.42 -9.5585,87.392 l 0,0 c -21.8964,-2.834 -43.9744,-2.252 -65.9571,-0.499 -29.6255,2.533 -59.1328,6.408 -87.9095,14.156 -18.2851,4.156 -37.8754,-82.041 -19.5902,-86.197 z" id="path13923" inkscape:connector-curvature="0" style="fill:#2b1100;fill-opacity:1;fill-rule:nonzero;stroke:none" transform="translate(-7168, -62464)"/><path d="m 7556.0798,63271.715 c 40.4779,-7.312 81.0245,-14.155 121.6958,-20.304 64.5857,-10.008 129.7415,-15.135 194.9484,-18.789 48.66,-1.769 97.2483,-4.439 145.7053,-9.236 18.3725,-4.491 39.2506,-0.754 57.3207,-6.698 18.4856,-3.463 34.8106,83.679 16.3249,87.142 l 0,0 c -21.729,3.421 -43.8189,3.881 -65.6661,6.297 -49.6048,4.233 -99.2997,6.744 -149.062,8.269 -62.3359,3.22 -124.6305,8.006 -186.2868,18.103 -39.3335,6.343 -78.5957,13.189 -117.4664,21.989 -18.4073,3.715 -35.9211,-83.058 -17.5138,-86.773 z" id="path13925" inkscape:connector-curvature="0" style="fill:#2b1100;fill-opacity:1;fill-rule:nonzero;stroke:none" transform="translate(-7168, -62464)"/><path d="m 7876.0319,63162.956 c 0.6494,41.173 -2.5147,82.28 -5.4721,123.314 -3.9299,49.153 -7.5458,98.33 -9.5365,147.604 0.6233,12.823 -2.3012,26.349 0.5123,39.06 1.8758,18.674 -86.1542,27.516 -88.0299,8.842 l 0,0 c -1.1647,-17.363 -0.5234,-34.725 0.5859,-52.087 2.7674,-49.824 6.5843,-99.575 10.272,-149.337 2.4402,-37.464 5.2941,-75.088 3.3737,-112.642 -1.0085,-18.73 87.2861,-23.484 88.2946,-4.754 z" id="path13931" inkscape:connector-curvature="0" style="fill:#2b1100;fill-opacity:1;fill-rule:nonzero;stroke:none" transform="translate(-7168, -62464)"/><path d="m 7797.496,63340.844 c -26.0753,11.796 -49.6566,28.257 -72.8092,44.896 -28.2243,20.495 -53.4388,44.629 -78.0718,69.212 -0.1375,0.127 -32.245,36.282 -18.7143,19.178 -9.0613,16.521 -86.942,-26.195 -77.8807,-42.716 l 0,0 c 9.8516,-14.686 22.3345,-26.767 35.2122,-38.867 28.1484,-27.315 56.7916,-54.251 88.5256,-77.431 27.8378,-20.134 56.264,-39.666 87.1796,-54.85 17.0932,-7.755 53.6518,72.823 36.5586,80.578 z" id="path13933" inkscape:connector-curvature="0" style="fill:#2b1100;fill-opacity:1;fill-rule:nonzero;stroke:none" transform="translate(-7168, -62464)"/><path d="m 7861.2437,63280.471 c 22.2741,20.178 48.9348,33.87 75.962,46.431 39.8788,16.551 80.2137,31.809 119.2131,50.393 29.1269,14.302 56.4221,31.921 82.9257,50.553 15.1697,10.912 -36.269,82.423 -51.4387,71.511 l 0,0 c -21.9449,-16.206 -44.6745,-31.448 -69.1264,-43.661 -38.5419,-18.663 -78.7285,-33.307 -118.1593,-49.936 -33.8827,-15.697 -66.9223,-33.176 -95.7854,-57.187 -14.4469,-11.967 41.9621,-80.07 56.409,-68.104 z" id="path13937" inkscape:connector-curvature="0" style="fill:#2b1100;fill-opacity:1;fill-rule:nonzero;stroke:none" transform="translate(-7168, -62464)"/></svg>