<?xml version="1.0" encoding="UTF-8" standalone="no"?>
<svg
   xmlns:dc="http://purl.org/dc/elements/1.1/"
   xmlns:cc="http://creativecommons.org/ns#"
   xmlns:rdf="http://www.w3.org/1999/02/22-rdf-syntax-ns#"
   xmlns:svg="http://www.w3.org/2000/svg"
   xmlns="http://www.w3.org/2000/svg"
   xmlns:sodipodi="http://sodipodi.sourceforge.net/DTD/sodipodi-0.dtd"
   xmlns:inkscape="http://www.inkscape.org/namespaces/inkscape"
   width="1024"
   height="1024"
   id="U70E6"
   version="1.1"
   inkscape:version="0.48.0 r9654"
   sodipodi:docname="U+70E6.svg">
  <metadata
     id="metadata17">
    <rdf:RDF>
      <cc:Work
         rdf:about="">
        <dc:format>image/svg+xml</dc:format>
        <dc:type
           rdf:resource="http://purl.org/dc/dcmitype/StillImage" />
      </cc:Work>
    </rdf:RDF>
  </metadata>
  <defs
     id="defs15" />
  <sodipodi:namedview
     pagecolor="#ffffff"
     bordercolor="#666666"
     borderopacity="1"
     objecttolerance="10"
     gridtolerance="10"
     guidetolerance="10"
     inkscape:pageopacity="0"
     inkscape:pageshadow="2"
     inkscape:window-width="640"
     inkscape:window-height="480"
     id="namedview13"
     showgrid="false"
     inkscape:zoom="0.27441406"
     inkscape:cx="512"
     inkscape:cy="512"
     inkscape:window-x="0"
     inkscape:window-y="25"
     inkscape:window-maximized="0"
     inkscape:current-layer="U70E6" />
  <path
     style="fill:#550000;fill-opacity:1;fill-rule:nonzero;stroke:#f9f9f9;stroke-width:0.1;stroke-miterlimit:4;stroke-dasharray:none"
     d="M 779.625 138.78125 C 735.27 141.05925 692.00195 151.73025 649.09375 162.65625 C 604.90925 174.82125 559.7169 187.237 521.125 212.875 C 509.75794 221.55478 538.65599 264.79274 559.28125 279.0625 C 553.44303 293.09142 547.7495 307.16625 542.125 321.28125 C 526.8138 360.10325 513.0681 399.51375 499.5 438.96875 C 494.6499 453.21556 549.30141 474.57441 571.75 471.84375 C 596.73056 476.86789 629.27082 475.84326 630.4375 464.625 C 631.5395 447.896 640.24915 436.1275 652.46875 425.5625 C 672.95005 409.7355 698.0367 405.429 723.0625 402.625 C 749.1214 400.403 775.24115 401.85525 799.59375 411.78125 C 815.02565 419.61525 818.7832 434.6255 823.125 450.1875 C 832.6686 493.2335 833.2567 537.58075 833.4375 581.46875 C 832.1361 625.99275 833.44345 671.259 823.84375 715 C 820.31545 733 905.19045 749.626 908.71875 731.625 C 917.67145 682.007 918.1948 631.4915 918.875 581.1875 C 918.7668 529.0805 918.0408 476.4165 906 425.4375 C 892.4002 381.4305 873.7765 349.47925 829.8125 330.40625 C 792.024 317.05025 752.85085 312.523 712.84375 316.875 C 682.88119 320.58557 653.63109 326.81245 627.1875 339.90625 C 638.89777 311.20659 651.05569 282.6301 665.4375 255.15625 C 666.5805 252.87033 666.07224 250.15425 664.34375 247.21875 C 666.86562 246.51977 669.39606 245.82326 671.90625 245.125 C 708.10835 236.972 744.7153 225.381 782.1875 225.75 C 782.4282 226.054 782.66545 226.35125 782.90625 226.65625 C 801.28025 229.16625 813.124 142.54125 794.75 140.03125 L 779.625 138.78125 z M 267.28125 175.5 C 245.42259 175.92863 223.63065 181.00725 223.8125 190.28125 C 226.6737 239.00225 224.348 287.71025 220.375 336.28125 C 217.19531 368.56705 212.30644 400.60815 206.4375 432.46875 C 201.27587 426.66633 196.26441 420.71922 191.5 414.5625 C 179.8006 400.1425 111.83185 455.2665 123.53125 469.6875 C 142.5993 492.38857 163.63372 513.25697 185.15625 533.59375 C 182.67243 544.48495 180.17335 555.37452 177.65625 566.25 C 162.72865 628.682 148.32625 691.28 128.90625 752.5 C 126.81865 757.848 124.7127 763.2155 122.625 768.5625 C 116.2471 785.7055 197.0596 815.768 203.4375 798.625 C 205.9376 791.641 208.4374 784.63925 210.9375 777.65625 C 218.20766 753.18156 224.82146 728.55094 231.09375 703.8125 C 238.6358 712.71278 246.54163 721.36383 254.6875 729.8125 C 296.0679 769.4165 344.36265 800.59225 391.96875 832.03125 C 428.80995 855.53025 464.3385 880.89225 496.375 910.65625 C 509.9363 922.99425 568.09255 859.088 554.53125 846.75 C 518.63755 814.649 479.7029 786.44475 439 760.71875 C 396.5836 732.77475 353.44425 705.164 316.40625 670.125 C 294.78645 647.841 275.2218 623.875 263.5 594.75 C 262.60419 592.80917 260.74047 591.60294 258.1875 590.96875 C 258.64679 589.02159 259.10206 587.07182 259.5625 585.125 C 262.61519 571.85755 265.68203 558.60033 268.6875 545.3125 C 281.64674 530.55083 290.78648 514.29156 284.6875 508.53125 C 280.31349 504.43356 280.03799 504.16833 278.125 502.375 C 289.38091 449.84301 299.20536 397.01344 304.78125 343.53125 C 309.39365 291.97925 312.0847 240.3445 311.25 188.5625 C 311.0682 179.289 289.13991 175.07137 267.28125 175.5 z M 392.28125 362.3125 C 376.78603 362.65342 364.13101 365.87162 363.5 372.8125 C 361.5231 401.3225 353.7107 428.8735 345 455.9375 C 332.866 490.4535 316.7279 523.591 293.6875 552.125 C 282.4479 566.606 350.72925 619.57575 361.96875 605.09375 C 390.09785 567.89475 411.8961 526.67375 427 482.46875 C 437.7916 449.28275 447.1132 415.579 450.75 380.75 C 451.80163 369.18187 418.10661 361.7443 392.28125 362.3125 z M 692.75 456.1875 C 684.21639 456.26764 678.00353 458.1745 676.78125 462.65625 C 665.33115 507.40425 652.76525 551.8635 639.78125 596.1875 C 621.35185 658.9755 599.57765 720.6755 574.40625 781.0625 C 571.20195 788.0865 567.98565 795.13225 564.78125 802.15625 C 557.40305 818.78225 635.77805 853.5635 643.15625 836.9375 C 646.55255 829.0865 649.9786 821.226 653.375 813.375 C 661.02217 794.34935 668.41765 775.24506 675.5625 756.03125 C 676.18829 760.94233 677.88949 764.35816 681 765.375 C 703.7241 779.706 723.509 798.32025 743.9375 815.65625 C 784.8584 850.76725 829.67295 880.65075 875.59375 908.71875 C 894.72595 920.06275 913.9876 931.17825 933.1875 942.40625 C 949.0441 951.53525 992.1066 876.78525 976.25 867.65625 C 957.5001 857.02925 938.67945 846.50775 920.09375 835.59375 C 878.00195 810.11775 837.0121 782.77975 799.875 750.34375 C 771.1271 725.47475 743.4416 697.63125 708.25 682.03125 C 705.9447 681.27763 703.47858 682.06111 700.96875 683.96875 C 708.01464 662.89166 714.77306 641.69398 721.1875 620.40625 C 734.7514 575.55725 747.6759 530.54475 761.3125 485.71875 C 764.97925 472.27425 718.35084 455.94708 692.75 456.1875 z M 546.84375 529.4375 C 523.86279 530.05798 471.8371 560.23744 478.96875 573.875 C 490.71955 597.285 496.29365 623.1085 501.65625 648.5625 C 506.49925 673.8285 510.4347 699.24 515.9375 724.375 C 520.0556 742.361 604.8681 722.95575 600.75 704.96875 C 594.813 680.43675 591.1868 655.4295 586.25 630.6875 C 579.2136 597.4365 571.27585 564.12925 556.59375 533.28125 C 555.11361 530.45081 551.61338 529.30872 546.84375 529.4375 z "
     id="path22749" />
</svg>
