<?xml version="1.0" encoding="UTF-8" standalone="no"?>
<svg
   xmlns:dc="http://purl.org/dc/elements/1.1/"
   xmlns:cc="http://creativecommons.org/ns#"
   xmlns:rdf="http://www.w3.org/1999/02/22-rdf-syntax-ns#"
   xmlns:svg="http://www.w3.org/2000/svg"
   xmlns="http://www.w3.org/2000/svg"
   xmlns:sodipodi="http://sodipodi.sourceforge.net/DTD/sodipodi-0.dtd"
   xmlns:inkscape="http://www.inkscape.org/namespaces/inkscape"
   width="1024"
   height="1024"
   id="U70ED"
   version="1.1"
   inkscape:version="0.48.0 r9654"
   sodipodi:docname="U+70ED.svg">
  <metadata
     id="metadata17">
    <rdf:RDF>
      <cc:Work
         rdf:about="">
        <dc:format>image/svg+xml</dc:format>
        <dc:type
           rdf:resource="http://purl.org/dc/dcmitype/StillImage" />
      </cc:Work>
    </rdf:RDF>
  </metadata>
  <defs
     id="defs15" />
  <sodipodi:namedview
     pagecolor="#ffffff"
     bordercolor="#666666"
     borderopacity="1"
     objecttolerance="10"
     gridtolerance="10"
     guidetolerance="10"
     inkscape:pageopacity="0"
     inkscape:pageshadow="2"
     inkscape:window-width="640"
     inkscape:window-height="480"
     id="namedview13"
     showgrid="false"
     inkscape:zoom="0.27441406"
     inkscape:cx="512"
     inkscape:cy="512"
     inkscape:window-x="0"
     inkscape:window-y="25"
     inkscape:window-maximized="0"
     inkscape:current-layer="U70ED" />
  <path
     style="fill:#a02c2c;fill-opacity:1;fill-rule:nonzero;stroke:#f9f9f9;stroke-width:0.1;stroke-miterlimit:4;stroke-dasharray:none"
     d="M 615.71875 138.03125 C 612.73027 138.16023 610.4218 139.1075 609.125 141.0625 C 586.3609 181.0345 574.35905 225.88975 561.90625 269.84375 C 559.80114 277.67295 557.67784 285.49556 555.53125 293.3125 C 554.53021 293.51695 553.53296 293.73602 552.53125 293.9375 C 521.12755 299.9125 489.5885 305.3275 457.8125 308.9375 C 439.2738 311.8485 453.0238 399.2235 471.5625 396.3125 C 490.68507 393.34795 509.76306 390.20507 528.8125 386.84375 C 521.02824 413.09048 513.04472 439.28265 504.84375 465.40625 C 496.1202 460.65334 487.57682 455.61248 479.34375 450.03125 C 464.20105 438.92625 411.8573 510.30125 427 521.40625 C 443.08838 531.92442 460.02412 540.95678 477.21875 549.5 C 466.20823 582.09342 454.8348 614.53378 442.28125 646.5625 C 437.06195 658.4705 439.64875 653.695 435.15625 661.25 C 426.74675 677.975 505.5906 717.63025 514 700.90625 C 520.8748 686.12725 517.48735 693.984 524.03125 677.25 C 534.59775 647.90476 544.49744 618.32505 554.21875 588.6875 C 566.45553 596.11707 578.23836 604.28525 589.40625 613.34375 C 603.97415 624.81975 658.068 556.13125 643.5 544.65625 C 623.91429 529.5365 603.31049 515.95614 581.6875 504.0625 C 595.98413 458.73182 609.82403 413.25667 623.21875 367.65625 C 640.27726 363.8272 657.3294 360.06301 674.53125 356.90625 C 684.00932 355.61874 693.67568 354.38662 703.25 355.46875 C 703.18826 355.48887 703.1245 355.49903 703.0625 355.53125 C 702.7845 355.67625 703.55145 390.05725 703.28125 402.03125 C 700.77125 448.80825 697.343 495.4525 698.9375 542.3125 C 700.5078 581.1005 712.199 616.46425 734.625 647.90625 C 745.7195 662.55425 760.0513 672.033 776.4375 679.625 C 793.8837 686.581 826.66505 604.331 809.21875 597.375 C 814.14955 601.606 804.79495 596.00075 805.03125 595.09375 C 791.43795 579.43075 787.5675 559.03975 785.8125 538.84375 C 783.6929 493.93475 787.70555 449.23025 790.21875 404.40625 C 791.61925 359.69425 793.78325 312.88325 754.71875 282.65625 C 749.13115 279.78525 743.7739 276.3875 737.9375 274.0625 C 712.6942 264.0085 684.4 267.1585 658.3125 270.9375 C 655.8007 271.42332 653.28851 271.93131 650.78125 272.4375 C 659.17682 244.07545 668.28117 215.70927 682.875 189.96875 C 691.95269 176.28463 636.63811 137.1284 615.71875 138.03125 z M 249.375 173.75 C 239.06554 173.60463 231.37701 175.62816 230.125 180.75 C 223.21308 216.79008 221.89668 253.51494 221.71875 290.1875 C 197.9064 293.59536 174.08693 296.80375 150.1875 299.53125 C 131.5775 301.91325 142.79615 389.66325 161.40625 387.28125 C 181.69481 384.04586 201.99723 380.9662 222.3125 377.90625 C 222.90602 409.24107 223.95378 440.56554 225.34375 471.875 C 215.76291 476.81389 206.19986 481.76998 196.65625 486.78125 C 164.32745 504.45125 132.18005 522.64175 102.59375 544.71875 C 87.85365 556.34675 142.66615 625.84675 157.40625 614.21875 C 180.1375 595.99989 205.34253 581.26706 230.6875 567.03125 C 233.27951 601.20013 236.92052 635.27556 241.15625 669.28125 C 243.59145 687.59325 329.90395 676.1245 327.46875 657.8125 C 321.73125 617.3835 317.17335 576.79225 314.53125 536.03125 C 314.26687 531.88835 314.03523 527.73741 313.78125 523.59375 C 334.40958 513.16792 355.0829 502.84388 375.75 492.5 L 394.28125 483.28125 C 410.74045 474.95225 371.4592 397.3595 355 405.6875 C 348.8509 408.8465 342.7116 411.99725 336.5625 415.15625 C 327.41677 419.85162 318.25662 424.52553 309.09375 429.1875 C 308.33521 407.73478 307.82596 386.27892 307.59375 364.8125 C 330.23177 361.30602 352.90851 357.91447 375.59375 354.71875 C 393.95135 351.95075 380.88885 265.4195 362.53125 268.1875 C 344.35867 271.10494 326.20252 274.04289 308.03125 276.96875 C 308.75281 251.67434 310.64199 226.44478 315.96875 201.75 C 319.16834 188.66084 275.7214 174.12149 249.375 173.75 z M 704.15625 355.5625 C 706.69726 355.81868 710.36305 355.65582 711.09375 358 C 711.24525 358.486 710.13875 358.30675 709.65625 358.46875 C 707.59956 360.3329 705.89085 356.3703 704.15625 355.5625 z M 279.09375 696.15625 C 275.53802 696.17422 272.86569 697.19805 271.46875 699.4375 C 253.90255 731.0585 237.33945 763.2055 219.96875 794.9375 C 202.43905 826.9735 183.4245 858.23925 167.5625 891.15625 C 159.704 908.05125 239.329 945.0835 247.1875 928.1875 C 261.1652 896.5565 279.83475 867.21575 296.03125 836.71875 C 312.70335 806.47675 328.67485 775.808 346.53125 746.25 C 355.06802 732.56359 300.8232 696.04644 279.09375 696.15625 z M 823.46875 741.75 C 798.96228 741.60668 747.53012 764.52122 752.875 778.5 C 764.9227 810.013 782.6171 838.61075 801.5625 866.34375 C 817.3261 888.54675 834.58575 909.616 852.03125 930.5 C 863.92415 944.663 930.67415 888.5995 918.78125 874.4375 C 903.08965 855.8585 887.60265 837.106 873.53125 817.25 C 858.47375 795.158 844.0902 772.44625 835.5625 746.90625 C 834.20008 743.34303 829.7155 741.78653 823.46875 741.75 z M 682.34375 764.03125 C 659.11851 764.23606 606.04657 793.74955 613 807.65625 C 627.6018 834.92925 647.6566 858.4855 668.6875 880.9375 C 672.5672 884.7065 676.46405 888.44875 680.34375 892.21875 C 693.75475 905.09775 754.44225 841.879 741.03125 829 C 738.16675 826.293 735.302 823.582 732.4375 820.875 C 717.1774 804.774 702.20185 788.07475 692.15625 768.09375 C 690.7131 765.20745 687.16408 763.98874 682.34375 764.03125 z M 470.59375 788.8125 C 451.85795 788.84312 405.84907 848.33252 419.34375 859.15625 C 443.72935 877.04025 471.26755 889.81975 497.53125 904.59375 C 512.18465 913.69575 505.2292 909.034 518.5 918.5 C 533.727 929.154 583.94575 857.37275 568.71875 846.71875 C 550.08075 833.85375 559.56385 839.983 540.34375 828.25 C 518.28405 815.92 495.1157 805.14325 474.6875 790.15625 C 473.54388 789.23898 472.18153 788.8099 470.59375 788.8125 z "
     id="path11497" />
</svg>
