<?xml version="1.0" encoding="utf-8" ?>

<!DOCTYPE svg PUBLIC "-//W3C//DTD SVG 1.1//EN" 
  "http://www.w3.org/Graphics/SVG/1.1/DTD/svg11.dtd">
<svg 
    xmlns="http://www.w3.org/2000/svg"
    xmlns:xlink="http://www.w3.org/1999/xlink"
    xmlns:sodipodi="http://sodipodi.sourceforge.net/DTD/sodipodi-0.dtd"
    xmlns:inkscape="http://www.inkscape.org/namespaces/inkscape"
    width="1024" height="1024" id="U7269">
<path d="m 8451.4854,52537.076 c -15.7503,36.541 -24.2936,75.806 -33.5254,114.37 -13.6503,58.004 -24.2341,116.649 -32.9755,175.574 -3.3189,26.225 -2.05,13.848 -4.0012,37.113 -1.8044,18.419 -88.6304,9.912 -86.826,-8.506 l 0,0 c 2.9591,-26.954 1.2055,-13.005 5.3621,-41.835 9.8151,-60.984 21.1187,-121.72 34.8378,-181.958 10.4465,-45.418 20.1906,-91.487 38.1029,-134.678 8.4683,-16.764 87.4936,23.156 79.0253,39.92 z" id="path13124" inkscape:connector-curvature="0" style="fill:#501616;fill-opacity:1;fill-rule:nonzero;stroke:#f9f9f9;stroke-width:0.1;stroke-miterlimit:4;stroke-dasharray:none" transform="translate(-8192, -52224)"/><path d="m 8339.0131,52748.906 c 38.8151,-17.42 79.9481,-28.67 121.0582,-39.152 57.5414,-13.957 116.0893,-23.136 174.9288,-29.368 21.4684,-2.647 42.9171,-2.099 64.4094,-0.653 18.5011,1.597 10.9712,88.813 -7.53,87.215 l 0,0 c -16.0483,-1.895 -32.0768,-2.277 -48.2084,-0.531 -54.547,5.19 -108.7896,13.637 -162.0096,26.848 -34.9417,9.172 -70.1287,18.75 -102.7163,34.673 -16.7653,8.471 -56.6974,-70.561 -39.9321,-79.032 z" id="path13126" inkscape:connector-curvature="0" style="fill:#501616;fill-opacity:1;fill-rule:nonzero;stroke:#f9f9f9;stroke-width:0.1;stroke-miterlimit:4;stroke-dasharray:none" transform="translate(-8192, -52224)"/><path d="m 8561.986,52559.711 c -15.8516,36.888 -22.4454,76.783 -28.9193,116.14 -10.9208,74.653 -14.34,150.098 -16.8949,225.414 -2.1643,67.161 -1.6593,134.362 -2.3526,201.544 -0.8309,32.156 -0.199,16.494 -1.8284,46.989 -1.1269,18.405 -87.8862,13.092 -86.7593,-5.312 l 0,0 c 1.9264,-27.508 1.1244,-13.155 2.2975,-43.066 1.4891,-67.686 1.4976,-135.399 3.7598,-203.07 2.7383,-78.827 6.2846,-157.765 17.0211,-235.984 7.1335,-46.254 14.9974,-92.715 31.9347,-136.585 7.1978,-17.34 88.9391,16.59 81.7414,33.93 z" id="path13128" inkscape:connector-curvature="0" style="fill:#501616;fill-opacity:1;fill-rule:nonzero;stroke:#f9f9f9;stroke-width:0.1;stroke-miterlimit:4;stroke-dasharray:none" transform="translate(-8192, -52224)"/><path d="m 8292.5844,53067.21 c 38.2467,-37.114 83.6761,-65.318 129.2883,-92.322 60.8846,-34.761 124.6768,-63.948 188.5355,-92.721 8.2976,-3.732 16.5951,-7.464 24.8926,-11.196 16.7351,-7.412 51.6766,71.478 34.9416,78.89 l 0,0 c -8.2839,3.613 -16.5677,7.225 -24.8515,10.837 -61.0132,26.862 -121.9082,54.313 -179.6934,87.716 -38.6006,23.18 -77.5834,47.096 -109.0992,79.703 -12.9202,13.579 -76.9341,-47.327 -64.0139,-60.907 z" id="path13130" inkscape:connector-curvature="0" style="fill:#501616;fill-opacity:1;fill-rule:nonzero;stroke:#f9f9f9;stroke-width:0.1;stroke-miterlimit:4;stroke-dasharray:none" transform="translate(-8192, -52224)"/><path d="m 8783.2952,52506.528 c -14.1252,43.474 -23.0487,88.549 -33.2197,133.079 -14.3232,62.554 -28.0778,125.261 -37.9773,188.683 -1.9021,12.936 -3.6271,25.848 -2.3281,38.887 0.5326,18.647 -87.3691,21.158 -87.9018,2.511 l 0,0 c 0.026,-18.672 1.164,-37.174 4.8723,-55.553 11.3327,-64.787 25.6815,-128.974 39.875,-193.183 10.6758,-48.824 19.8915,-98.129 34.0343,-146.092 6.7177,-17.532 89.363,14.136 82.6453,31.668 z" id="path13132" inkscape:connector-curvature="0" style="fill:#501616;fill-opacity:1;fill-rule:nonzero;stroke:#f9f9f9;stroke-width:0.1;stroke-miterlimit:4;stroke-dasharray:none" transform="translate(-8192, -52224)"/><path d="m 8698.5527,52678.633 c 30.7947,-31.764 71.0324,-48.994 112.1114,-63.088 50.6603,-15.896 103.5849,-20.626 156.3493,-22.617 43.2879,-1.46 85.9869,3.407 127.1955,16.62 46.1384,18.806 66.1441,39.843 84.5582,85.813 14.9437,55.368 1.8779,111.896 -10.347,166.428 -15.0568,59.408 -29.5145,118.921 -41.8909,178.948 -6.9697,37.2 -14.3132,74.225 -26.2918,110.161 -6.0652,17.51 -88.6069,-11.082 -82.5417,-28.591 l 0,0 c 11.7383,-32.126 17.4401,-65.866 24.4605,-99.252 12.8275,-60.263 27.5237,-120.059 42.342,-179.858 8.3636,-38.259 18.4389,-78.103 12.2159,-117.436 -4.6937,-16.437 -13.8934,-26.918 -30.2536,-33.249 -30.9112,-11.074 -63.7543,-13.32 -96.4159,-12.977 -44.2793,1.412 -88.7626,4.946 -131.3348,18.098 -27.024,9.181 -54.737,19.331 -74.8473,40.547 -12.6319,13.855 -77.9416,-45.692 -65.3098,-59.547 z" id="path13134" inkscape:connector-curvature="0" style="fill:#501616;fill-opacity:1;fill-rule:nonzero;stroke:#f9f9f9;stroke-width:0.1;stroke-miterlimit:4;stroke-dasharray:none" transform="translate(-8192, -52224)"/><path d="m 8928.2743,52716.057 c -13.6589,38.077 -24.1589,77.21 -35.2451,116.09 -14.4542,49.604 -28.7192,99.261 -42.0629,149.176 -1.2249,4.902 -2.4498,9.804 -3.6747,14.707 -4.7558,17.938 -89.3159,-4.482 -84.5601,-22.419 l 0,0 c 1.4503,-5.189 2.9006,-10.377 4.3509,-15.565 14.3063,-49.748 28.756,-99.455 42.954,-149.235 11.318,-40.825 22.1932,-81.791 34.834,-122.233 6.2534,-17.692 89.6573,11.787 83.4039,29.479 z" id="path13136" inkscape:connector-curvature="0" style="fill:#501616;fill-opacity:1;fill-rule:nonzero;stroke:#f9f9f9;stroke-width:0.1;stroke-miterlimit:4;stroke-dasharray:none" transform="translate(-8192, -52224)"/><path d="m 9093.2811,52701.292 c -17.0659,45.246 -34.597,90.314 -51.6647,135.559 -20.819,53.958 -38.9122,108.868 -54.5622,164.53 -1.7358,6.595 -3.4716,13.19 -5.2073,19.785 -4.8391,17.791 -88.7072,-5.021 -83.8681,-22.812 l 0,0 c 1.9577,-6.984 3.9155,-13.969 5.8732,-20.953 16.9775,-57.569 36.0245,-114.474 57.3605,-170.585 16.3902,-44.305 33.4058,-88.413 48.2217,-133.276 5.8871,-17.787 89.734,9.965 83.8469,27.752 z" id="path13138" inkscape:connector-curvature="0" style="fill:#501616;fill-opacity:1;fill-rule:nonzero;stroke:#f9f9f9;stroke-width:0.1;stroke-miterlimit:4;stroke-dasharray:none" transform="translate(-8192, -52224)"/></svg>