<?xml version="1.0" encoding="UTF-8" standalone="no"?>
<svg
   xmlns:dc="http://purl.org/dc/elements/1.1/"
   xmlns:cc="http://creativecommons.org/ns#"
   xmlns:rdf="http://www.w3.org/1999/02/22-rdf-syntax-ns#"
   xmlns:svg="http://www.w3.org/2000/svg"
   xmlns="http://www.w3.org/2000/svg"
   xmlns:sodipodi="http://sodipodi.sourceforge.net/DTD/sodipodi-0.dtd"
   xmlns:inkscape="http://www.inkscape.org/namespaces/inkscape"
   width="1024"
   height="1024"
   id="U7236"
   version="1.1"
   inkscape:version="0.48.0 r9654"
   sodipodi:docname="U+7236.svg">
  <metadata
     id="metadata11">
    <rdf:RDF>
      <cc:Work
         rdf:about="">
        <dc:format>image/svg+xml</dc:format>
        <dc:type
           rdf:resource="http://purl.org/dc/dcmitype/StillImage" />
      </cc:Work>
    </rdf:RDF>
  </metadata>
  <defs
     id="defs9" />
  <sodipodi:namedview
     pagecolor="#ffffff"
     bordercolor="#666666"
     borderopacity="1"
     objecttolerance="10"
     gridtolerance="10"
     guidetolerance="10"
     inkscape:pageopacity="0"
     inkscape:pageshadow="2"
     inkscape:window-width="640"
     inkscape:window-height="480"
     id="namedview7"
     showgrid="false"
     inkscape:zoom="0.27441406"
     inkscape:cx="512"
     inkscape:cy="512"
     inkscape:window-x="0"
     inkscape:window-y="25"
     inkscape:window-maximized="0"
     inkscape:current-layer="U7236" />
  <path
     style="fill:#550000;fill-opacity:1;fill-rule:nonzero;stroke:#f9f9f9;stroke-width:0.1;stroke-miterlimit:4;stroke-dasharray:none"
     d="M 388.4375 137.625 C 386.87015 137.73661 385.53153 138.26242 384.46875 139.25 C 355.04915 167.747 330.7625 200.74125 307.5 234.28125 C 276.2796 280.52625 249.75775 329.6635 226.21875 380.1875 C 217.51355 403.3165 204.06385 427.94475 205.40625 453.59375 C 205.78855 460.89875 207.8806 468.01075 209.125 475.21875 C 213.8432 491.1207 281.33725 472.93472 291.84375 456.1875 C 291.78932 455.82556 291.76269 455.47798 291.78125 455.25 C 292.89765 441.488 299.75675 428.70375 304.28125 415.96875 C 304.44541 415.60386 304.61668 415.2397 304.78125 414.875 C 335.56089 441.269 366.6631 467.26459 397.96875 493.03125 C 413.6487 505.97591 429.54731 518.6542 445.59375 531.125 C 411.35677 573.71899 377.81853 616.85716 342.71875 658.75 C 322.11795 682.146 301.26675 706.823 272.59375 720.375 C 270.25585 721.1 267.93165 721.8365 265.59375 722.5625 C 248.30325 728.9755 278.5219 810.4755 295.8125 804.0625 C 301.4509 801.8295 307.08035 799.607 312.71875 797.375 C 350.75735 776.634 381.5265 747.10275 408.5625 713.34375 C 444.09549 670.06697 478.16743 625.62497 513.1875 581.9375 C 534.70108 597.61442 556.41745 613.03821 578.21875 628.3125 C 638.51165 669.8655 699.09765 710.947 759.21875 752.75 C 785.52215 771.096 811.8482 789.39725 838.125 807.78125 C 853.2329 818.12925 902.0454 746.9105 886.9375 736.5625 C 860.374 718.7535 833.84085 700.87225 807.46875 682.78125 C 747.20755 641.57225 686.60975 600.851 626.53125 559.375 C 606.4025 545.24807 586.38589 530.97946 566.53125 516.46875 C 596.83788 479.64186 627.65164 443.25019 660.53125 408.6875 C 685.23965 383.3135 709.92835 357.48725 738.21875 336.03125 C 757.57931 351.20314 776.27074 367.24827 792.6875 385.59375 C 805.2158 399.09475 868.87205 340.03325 856.34375 326.53125 C 828.71115 297.47925 797.53705 272.2345 765.21875 248.5625 C 735.80645 227.0095 705.91505 206.026 677.71875 182.875 C 663.11225 171.408 609.04985 240.25175 623.65625 251.71875 C 637.60597 262.24213 651.72198 272.53614 665.875 282.78125 C 642.39705 303.74656 620.65263 326.65032 598.96875 349.4375 C 564.15737 386.78185 531.37092 425.91306 499.03125 465.40625 C 483.30422 453.03835 467.74988 440.42843 452.4375 427.53125 C 420.488 400.67225 388.59995 373.72175 358.09375 345.21875 C 353.77805 341.3621 345.14384 345.04004 335.71875 352.3125 C 348.56458 328.64933 362.51787 305.57792 377.75 283.3125 C 397.6853 254.9785 418.2629 226.749 444.0625 203.375 C 456.60332 191.72158 406.93223 136.30796 388.4375 137.625 z M 291.84375 456.1875 C 291.99464 457.19089 292.34817 458.36512 292.5 457.75 C 292.80581 456.51053 292.88109 455.22039 292.90625 453.9375 C 292.67526 454.68286 292.31708 455.43302 291.84375 456.1875 z M 292.90625 453.9375 C 293.28402 452.71849 293.34763 451.51546 293 450.34375 C 292.92136 451.53518 292.92979 452.73735 292.90625 453.9375 z "
     id="path23291" />
</svg>
