<?xml version="1.0" encoding="UTF-8" standalone="no"?>
<svg
   xmlns:dc="http://purl.org/dc/elements/1.1/"
   xmlns:cc="http://creativecommons.org/ns#"
   xmlns:rdf="http://www.w3.org/1999/02/22-rdf-syntax-ns#"
   xmlns:svg="http://www.w3.org/2000/svg"
   xmlns="http://www.w3.org/2000/svg"
   xmlns:sodipodi="http://sodipodi.sourceforge.net/DTD/sodipodi-0.dtd"
   xmlns:inkscape="http://www.inkscape.org/namespaces/inkscape"
   width="1024"
   height="1024"
   id="U725B"
   version="1.1"
   inkscape:version="0.48.0 r9654"
   sodipodi:docname="U+725B.svg">
  <metadata
     id="metadata11">
    <rdf:RDF>
      <cc:Work
         rdf:about="">
        <dc:format>image/svg+xml</dc:format>
        <dc:type
           rdf:resource="http://purl.org/dc/dcmitype/StillImage" />
      </cc:Work>
    </rdf:RDF>
  </metadata>
  <defs
     id="defs9" />
  <sodipodi:namedview
     pagecolor="#ffffff"
     bordercolor="#666666"
     borderopacity="1"
     objecttolerance="10"
     gridtolerance="10"
     guidetolerance="10"
     inkscape:pageopacity="0"
     inkscape:pageshadow="2"
     inkscape:window-width="640"
     inkscape:window-height="480"
     id="namedview7"
     showgrid="false"
     inkscape:zoom="0.27441406"
     inkscape:cx="512"
     inkscape:cy="512"
     inkscape:window-x="0"
     inkscape:window-y="25"
     inkscape:window-maximized="0"
     inkscape:current-layer="U725B" />
  <path
     style="fill:#c83737;fill-opacity:1;fill-rule:nonzero;stroke:#f9f9f9;stroke-width:0.1;stroke-miterlimit:4;stroke-dasharray:none"
     d="M 524.8125 79.1875 C 522.3385 79.243287 520.3567 79.969672 519.0625 81.5625 C 491.8277 119.7545 487.07245 166.679 482.71875 212 C 480.39661 246.12939 479.29111 280.30539 478.84375 314.5 C 475.69547 314.81975 472.5208 315.14256 469.375 315.5 C 429.9981 319.928 390.7715 325.5805 351.375 329.8125 C 332.7233 331.7185 341.7233 419.62475 360.375 417.71875 C 399.81311 411.87613 439.24258 406.09543 478.84375 401.46875 C 478.96955 414.57532 479.11492 427.68012 479.28125 440.78125 C 480.08665 486.16524 480.44881 531.54997 480.90625 576.9375 C 424.74362 581.54294 368.68436 587.07042 312.6875 593.40625 C 262.1386 599.34225 211.67995 605.9845 161.28125 613.0625 C 142.72495 615.7135 155.22495 703.18225 173.78125 700.53125 C 223.27645 691.39525 273.11515 684.50425 323.03125 678.15625 C 375.93143 671.71463 428.94943 666.37483 482.0625 662.09375 C 482.16701 667.84978 482.25411 673.61918 482.375 679.375 C 483.45 732.092 486.93825 784.68575 491.28125 837.21875 C 492.71335 853.65175 494.13075 870.088 495.78125 886.5 C 497.91455 905.095 585.60205 895.0335 583.46875 876.4375 C 581.42375 860.7755 579.71545 845.087 578.09375 829.375 C 573.10575 778.798 569.1342 728.10225 567.75 677.28125 C 567.5551 670.273 567.41683 663.25872 567.25 656.25 C 620.20034 653.46346 673.19661 651.72468 726.21875 651.3125 C 753.92965 651.0875 781.59295 652.3905 809.28125 653.1875 C 819.13145 653.2415 814.0521 653.41325 824.5625 652.65625 C 843.2648 650.56325 833.3898 562.406 814.6875 564.5 C 814.8841 564.586 815.08465 564.66 815.28125 564.75 C 813.73575 564.813 812.20175 564.8775 810.65625 564.9375 C 782.11655 564.9455 753.57385 563.972 725.03125 564.625 C 671.88739 565.66239 618.75264 567.76432 565.6875 570.84375 C 565.10126 527.16905 564.72525 483.4864 564.03125 439.8125 C 563.88314 425.28529 563.76538 410.75336 563.6875 396.21875 C 581.72874 395.92098 599.7708 396.04501 617.8125 396.375 C 640.8335 399.36 666.3017 394.23125 688.8125 401.28125 C 707.1832 405.01725 724.8082 318.4235 706.4375 314.6875 C 677.5875 309.6625 648.1927 310.13175 619 309.46875 C 600.75566 309.30798 582.49216 309.30436 564.25 309.65625 C 564.93158 279.95528 566.24249 250.28743 568.5625 220.65625 C 571.5274 192.67825 572.96225 162.14275 587.71875 137.34375 C 598.25725 124.37358 544.95796 78.733238 524.8125 79.1875 z M 286.03125 263.3125 C 282.47606 263.31182 279.78343 264.29953 278.375 266.53125 C 261.5933 296.79125 247.775 328.5715 234.375 360.4375 C 220.0203 395.5455 209.63205 432.14075 204.53125 469.71875 C 202.28745 488.21575 289.47495 498.8095 291.71875 480.3125 C 294.61375 450.6615 303.62725 421.95675 314.53125 394.34375 C 326.18305 366.93775 338.1078 339.477 353.1875 313.75 C 361.79457 300.11086 307.7574 263.31663 286.03125 263.3125 z "
     id="path10531" />
</svg>
