<?xml version="1.0" encoding="utf-8" ?>

<!DOCTYPE svg PUBLIC "-//W3C//DTD SVG 1.1//EN" 
  "http://www.w3.org/Graphics/SVG/1.1/DTD/svg11.dtd">
<svg 
    xmlns="http://www.w3.org/2000/svg"
    xmlns:xlink="http://www.w3.org/1999/xlink"
    xmlns:sodipodi="http://sodipodi.sourceforge.net/DTD/sodipodi-0.dtd"
    xmlns:inkscape="http://www.inkscape.org/namespaces/inkscape"
    width="1024" height="1024" id="U73A9">
<path d="m 9328.608,50565.834 c 33.1304,2.584 66.4084,1.645 99.5613,0.1 44.0319,-3.005 87.9449,-7.223 132.0941,-7.947 5.9857,0.226 11.9714,0.453 17.957,0.679 18.5402,0.917 14.2182,88.316 -4.3219,87.399 l 0,0 c -4.2845,-0.282 -8.5689,-0.563 -12.8534,-0.845 -42.9924,0 -85.7308,4.431 -128.5865,7.399 -36.514,1.899 -73.0829,2.896 -109.6392,1.494 -18.7259,-1.228 -12.9373,-89.502 5.7886,-88.275 z" id="path12640" inkscape:connector-curvature="0" style="fill:#501616;fill-opacity:1;fill-rule:nonzero;stroke:#f9f9f9;stroke-width:0.1;stroke-miterlimit:4;stroke-dasharray:none" transform="translate(-9216, -50176)"/><path d="m 9358.805,50786.233 c 32.0655,0.28 64.0703,-3.12 95.9617,-6.108 45.9145,-4.753 91.6943,-10.7 137.5005,-16.382 19.849,-2.239 10.416,-1.279 28.2929,-2.94 18.5897,-1.443 25.3941,86.189 6.8044,87.632 l 0,0 c -15.4514,0.919 -7.0825,0.315 -25.098,1.927 -46.3839,4.952 -92.6583,10.816 -139.0127,16.03 -35.827,3.687 -71.7176,7.659 -107.7566,8.323 -18.77,-0.701 -15.4622,-89.184 3.3078,-88.482 z" id="path12642" inkscape:connector-curvature="0" style="fill:#501616;fill-opacity:1;fill-rule:nonzero;stroke:#f9f9f9;stroke-width:0.1;stroke-miterlimit:4;stroke-dasharray:none" transform="translate(-9216, -50176)"/><path d="m 9535.1353,50658.365 c -11.0225,38.715 -15.1251,79.089 -20.248,118.909 -6.978,56.022 -13.2619,112.13 -18.8433,168.307 -2.6449,30.075 -1.4793,15.409 -3.5336,43.997 -1.4217,18.372 -88.0309,11.671 -86.6092,-6.702 l 0,0 c 2.4897,-30.145 1.1178,-14.758 4.1421,-46.158 6.0572,-56.761 12.6097,-113.467 19.3512,-170.15 5.5889,-45.844 10.2005,-92.15 22.1763,-136.871 6.0814,-17.727 89.6459,10.941 83.5645,28.668 z" id="path12644" inkscape:connector-curvature="0" style="fill:#501616;fill-opacity:1;fill-rule:nonzero;stroke:#f9f9f9;stroke-width:0.1;stroke-miterlimit:4;stroke-dasharray:none" transform="translate(-9216, -50176)"/><path d="m 9318.477,51076.671 c 40.3556,-18.363 80.9014,-36.302 121.2762,-54.623 55.213,-25.526 110.3539,-51.209 165.5093,-76.86 22.464,-10.465 12.0546,-5.45 31.2775,-14.942 16.7622,-7.965 54.3109,71.052 37.5487,79.018 l 0,0 c -20.8994,9.584 -9.9144,4.639 -32.9756,14.789 -55.4871,24.642 -110.623,50.05 -165.4958,76.032 -39.3155,18.296 -78.9126,36.064 -117.5637,55.739 -16.7909,8.395 -56.3675,-70.758 -39.5766,-79.153 z" id="path12646" inkscape:connector-curvature="0" style="fill:#501616;fill-opacity:1;fill-rule:nonzero;stroke:#f9f9f9;stroke-width:0.1;stroke-miterlimit:4;stroke-dasharray:none" transform="translate(-9216, -50176)"/><path d="m 9728.3116,50553.863 c 31.9199,8.442 65.0599,9.688 97.8828,10.422 46.2933,0.09 92.5545,-2.002 138.825,-3.209 22.9876,-0.41 11.9206,-0.301 33.2005,-0.366 18.5811,0.133 17.9561,87.726 -0.6252,87.594 l 0,0 c -19.4556,-0.36 -9.1948,-0.266 -30.7829,-0.214 -47.4576,0.709 -94.8893,2.71 -142.3551,2.802 -39.362,-0.71 -78.8555,-2.504 -117.4262,-11.086 -18.2313,-4.514 3.0499,-90.457 21.2811,-85.943 z" id="path12648" inkscape:connector-curvature="0" style="fill:#501616;fill-opacity:1;fill-rule:nonzero;stroke:#f9f9f9;stroke-width:0.1;stroke-miterlimit:4;stroke-dasharray:none" transform="translate(-9216, -50176)"/><path d="m 9684.1905,50753.068 c 39.6733,9.956 81.3016,8.171 121.848,7.157 61.1473,-2.428 121.9896,-9.321 182.9424,-14.466 36.0961,-2.818 72.2641,-4.646 108.4731,-4.633 3.034,0.12 6.068,0.24 9.102,0.36 18.712,1.154 13.272,89.361 -5.439,88.207 l 0,0 c -1.67,-0.17 -3.34,-0.34 -5.011,-0.51 -33.429,-1.096 -66.867,0.394 -100.2284,2.582 -62.4797,4.742 -124.8117,11.546 -187.4317,14.256 -51.6299,1.591 -104.4417,3.618 -154.7873,-9.985 -17.5999,-6.477 12.932,-89.444 30.5319,-82.968 z" id="path12650" inkscape:connector-curvature="0" style="fill:#501616;fill-opacity:1;fill-rule:nonzero;stroke:#f9f9f9;stroke-width:0.1;stroke-miterlimit:4;stroke-dasharray:none" transform="translate(-9216, -50176)"/><path d="m 9915.6101,50798.478 c -16.1877,34.808 -31.1839,70.15 -45.8619,105.615 -18.9199,45.691 -36.5574,91.895 -53.3027,138.422 -8.1002,22.272 -15.2251,44.868 -21.9222,67.594 -5.4031,17.765 -89.1511,-7.705 -83.7479,-25.471 l 0,0 c 7.5375,-24.091 15.3825,-48.088 24.1704,-71.759 17.4515,-47.52 35.5901,-94.787 54.7614,-141.643 14.5985,-35.849 29.6653,-71.5 44.4779,-107.26 7.319,-17.273 88.744,17.229 81.425,34.502 z" id="path12652" inkscape:connector-curvature="0" style="fill:#501616;fill-opacity:1;fill-rule:nonzero;stroke:#f9f9f9;stroke-width:0.1;stroke-miterlimit:4;stroke-dasharray:none" transform="translate(-9216, -50176)"/><path d="m 10045.39,50852.359 c -11.197,26.688 -19.535,54.411 -26.86,82.37 -5.839,24.007 -10.122,49.007 -2.813,73.085 4.802,10.592 15.342,11.743 25.732,13.939 27.581,3.98 55.583,3.588 83.382,3.267 23.359,-0.03 46.554,-2.24 69.404,-7.025 8.444,-1.861 16.891,-3.886 24.749,-7.553 17.356,-7.096 50.805,74.722 33.448,81.818 l 0,0 c -13.284,5.162 -26.851,9.384 -40.904,11.959 -28.325,5.501 -56.987,8.443 -85.877,8.312 -35.525,0.262 -71.392,0.654 -106.43,-6.037 -44.1542,-12.487 -73.9717,-32.277 -88.668,-77.781 -8.6254,-38.867 -7.1242,-77.602 3.5566,-116.1 8.0935,-30.894 17.3623,-61.438 28.4912,-91.388 6.6046,-17.563 89.3932,13.572 82.7892,31.134 z" id="path12654" inkscape:connector-curvature="0" style="fill:#501616;fill-opacity:1;fill-rule:nonzero;stroke:#f9f9f9;stroke-width:0.1;stroke-miterlimit:4;stroke-dasharray:none" transform="translate(-9216, -50176)"/></svg>