<?xml version="1.0" encoding="utf-8" ?>

<!DOCTYPE svg PUBLIC "-//W3C//DTD SVG 1.1//EN" 
  "http://www.w3.org/Graphics/SVG/1.1/DTD/svg11.dtd">
<svg 
    xmlns="http://www.w3.org/2000/svg"
    xmlns:xlink="http://www.w3.org/1999/xlink"
    xmlns:sodipodi="http://sodipodi.sourceforge.net/DTD/sodipodi-0.dtd"
    xmlns:inkscape="http://www.inkscape.org/namespaces/inkscape"
    width="1024" height="1024" id="U73B0">
<path d="m 10317.492,53591.824 c 40.024,-11.171 81.263,-16.988 122.385,-22.363 41.254,-4.862 82.676,-8.133 124.136,-10.586 18.423,-0.967 22.982,85.878 4.559,86.845 l 0,0 c -39.187,1.777 -78.331,4.69 -117.278,9.453 -35.664,4.848 -71.587,9.872 -106.044,20.619 -17.812,5.888 -45.57,-78.08 -27.758,-83.968 z" id="path13426" inkscape:connector-curvature="0" style="fill:#501616;fill-opacity:1;fill-rule:nonzero;stroke:#f9f9f9;stroke-width:0.1;stroke-miterlimit:4;stroke-dasharray:none" transform="translate(-10240, -53248)"/><path d="m 10379.868,53772.941 c 36.993,0.541 73.962,-2.68 110.88,-4.774 39.385,-2.335 78.859,-4.03 118.032,-8.915 18.47,-2.067 28.217,85.002 9.747,87.069 l 0,0 c -40.813,4.125 -81.805,5.919 -122.745,8.315 -40.207,2.401 -80.382,6.06 -120.669,6.599 -18.73,-1.008 -13.975,-89.303 4.755,-88.294 z" id="path13428" inkscape:connector-curvature="0" style="fill:#501616;fill-opacity:1;fill-rule:nonzero;stroke:#f9f9f9;stroke-width:0.1;stroke-miterlimit:4;stroke-dasharray:none" transform="translate(-10240, -53248)"/><path d="m 10562.942,53631.687 c -13.333,40.816 -20.675,83.129 -26.909,125.5 -8.775,66.417 -11.968,133.382 -14.485,200.273 -0.284,10.15 -0.568,20.301 -0.851,30.451 -0.58,18.214 -86.442,15.48 -85.862,-2.734 l 0,0 c 0.37,-10.387 0.74,-20.774 1.11,-31.161 2.986,-69.782 6.346,-139.636 15.017,-208.988 6.456,-46.414 14.37,-92.599 27.079,-137.773 5.183,-18.01 90.084,6.422 84.901,24.432 z" id="path13430" inkscape:connector-curvature="0" style="fill:#501616;fill-opacity:1;fill-rule:nonzero;stroke:#f9f9f9;stroke-width:0.1;stroke-miterlimit:4;stroke-dasharray:none" transform="translate(-10240, -53248)"/><path d="m 10343.794,54092.916 c 39.711,-27.185 81.87,-50.551 123.885,-73.926 54.476,-29.54 109.389,-58.238 162.199,-90.705 6.527,-4.362 13.053,-8.724 19.58,-13.085 15.325,-10.092 62.898,62.151 47.573,72.243 l 0,0 c -7.447,4.84 -14.895,9.68 -22.342,14.52 -53.965,32.496 -109.773,61.637 -164.998,91.904 -38.316,21.687 -76.985,43.234 -112.444,69.45 -14.935,11.34 -68.387,-59.062 -53.453,-70.401 z" id="path13432" inkscape:connector-curvature="0" style="fill:#501616;fill-opacity:1;fill-rule:nonzero;stroke:#f9f9f9;stroke-width:0.1;stroke-miterlimit:4;stroke-dasharray:none" transform="translate(-10240, -53248)"/><path d="m 10779.22,53517.218 c -5.643,42.784 -6.328,86.054 -7.105,129.143 0.138,51.505 -0.922,103.63 9.747,154.273 3.42,18.169 -82.23,34.289 -85.65,16.12 l 0,0 c -9.754,-56.673 -10.214,-114.238 -9.947,-171.624 0.503,-46.695 1.061,-93.466 5.293,-140.004 2.565,-18.595 90.227,-6.504 87.662,12.092 z" id="path13434" inkscape:connector-curvature="0" style="fill:#501616;fill-opacity:1;fill-rule:nonzero;stroke:#f9f9f9;stroke-width:0.1;stroke-miterlimit:4;stroke-dasharray:none" transform="translate(-10240, -53248)"/><path d="m 10742.696,53539.375 c 33.176,-26.087 73.42,-37.92 114.09,-46.179 42.637,-7.316 85.811,-5.432 128.5,-0.06 38.992,5.149 66.507,16.082 95.559,42.781 29.817,34.246 37.002,78.598 43.121,122.046 6.652,52.304 7.834,104.997 5.345,157.601 -0.747,21.51 -4.755,42.459 -9.597,63.332 -4.5,18.004 -89.373,-3.212 -84.872,-21.216 l 0,0 c 4.274,-15.255 7.155,-30.701 7.916,-46.593 2.671,-46.999 1.549,-94.102 -4.72,-140.817 -3.551,-24.301 -6.471,-49.8 -18.674,-71.588 -10.763,-13.802 -29.33,-15.737 -45.473,-18.927 -33.208,-4.61 -66.842,-6.542 -100.133,-1.241 -25.492,4.926 -51.477,11.191 -72.562,27.212 -14.075,12.41 -72.575,-53.938 -58.5,-66.348 z" id="path13436" inkscape:connector-curvature="0" style="fill:#501616;fill-opacity:1;fill-rule:nonzero;stroke:#f9f9f9;stroke-width:0.1;stroke-miterlimit:4;stroke-dasharray:none" transform="translate(-10240, -53248)"/><path d="m 10930.714,53656.912 c -9.567,35.03 -12.405,71.626 -17.356,107.524 -9.332,71.919 -29.467,141.482 -53.186,209.789 -20.6,56.486 -44.89,111.577 -72.411,165.017 -8.679,16.319 -85.606,-24.593 -76.928,-40.911 l 0,0 c 26.897,-48.796 49.544,-99.851 68.837,-152.112 21.898,-62.815 40.263,-126.859 48.206,-193.122 5.392,-42.381 8.191,-85.505 19.824,-126.769 6.488,-17.61 89.502,12.974 83.014,30.584 z" id="path13438" inkscape:connector-curvature="0" style="fill:#501616;fill-opacity:1;fill-rule:nonzero;stroke:#f9f9f9;stroke-width:0.1;stroke-miterlimit:4;stroke-dasharray:none" transform="translate(-10240, -53248)"/><path d="m 10978.43,53857.638 c -12.846,32.271 -18.253,66.796 -23.024,101.005 -5.656,43.68 -5.403,87.608 0.415,131.197 4.421,23.141 9.735,48.799 32.873,59.458 29.358,8.685 60.299,2.699 89.571,-3.223 37.688,-8.832 74.24,-21.801 110.287,-35.766 8.393,-3.287 16.732,-6.629 24.38,-11.417 16.392,-9.024 58.932,68.25 42.54,77.274 l 0,0 c -11.677,6.089 -23.526,11.69 -36.025,15.947 -40.739,15.023 -81.892,29.272 -124.26,39.015 -51.717,10.156 -104.773,16.415 -153.651,-8.286 -7.175,-5.005 -14.918,-9.282 -21.525,-15.017 -31.282,-27.156 -43.637,-67.675 -50.307,-107.057 -6.229,-51.2 -6.798,-102.731 -0.119,-153.982 5.657,-41.289 12.571,-82.624 26.768,-121.979 6.965,-17.411 89.041,15.42 82.077,32.831 z" id="path13440" inkscape:connector-curvature="0" style="fill:#501616;fill-opacity:1;fill-rule:nonzero;stroke:#f9f9f9;stroke-width:0.1;stroke-miterlimit:4;stroke-dasharray:none" transform="translate(-10240, -53248)"/></svg>