<?xml version="1.0" encoding="UTF-8" standalone="no"?>
<svg
   xmlns:dc="http://purl.org/dc/elements/1.1/"
   xmlns:cc="http://creativecommons.org/ns#"
   xmlns:rdf="http://www.w3.org/1999/02/22-rdf-syntax-ns#"
   xmlns:svg="http://www.w3.org/2000/svg"
   xmlns="http://www.w3.org/2000/svg"
   xmlns:sodipodi="http://sodipodi.sourceforge.net/DTD/sodipodi-0.dtd"
   xmlns:inkscape="http://www.inkscape.org/namespaces/inkscape"
   width="1024"
   height="1024"
   id="U7403"
   version="1.1"
   inkscape:version="0.48.0 r9654"
   sodipodi:docname="U+7403.svg">
  <metadata
     id="metadata18">
    <rdf:RDF>
      <cc:Work
         rdf:about="">
        <dc:format>image/svg+xml</dc:format>
        <dc:type
           rdf:resource="http://purl.org/dc/dcmitype/StillImage" />
      </cc:Work>
    </rdf:RDF>
  </metadata>
  <defs
     id="defs16" />
  <sodipodi:namedview
     pagecolor="#ffffff"
     bordercolor="#666666"
     borderopacity="1"
     objecttolerance="10"
     gridtolerance="10"
     guidetolerance="10"
     inkscape:pageopacity="0"
     inkscape:pageshadow="2"
     inkscape:window-width="640"
     inkscape:window-height="480"
     id="namedview14"
     showgrid="false"
     inkscape:zoom="0.27441406"
     inkscape:cx="512"
     inkscape:cy="512"
     inkscape:window-x="0"
     inkscape:window-y="25"
     inkscape:window-maximized="0"
     inkscape:current-layer="U7403" />
  <path
     style="fill:#a02c2c;fill-opacity:1;fill-rule:nonzero;stroke:#f9f9f9;stroke-width:0.1;stroke-miterlimit:4;stroke-dasharray:none"
     d="M 820.5 126.96875 C 800.37626 127.56347 749.59153 175.91945 760.78125 188.3125 C 779.39375 207.8755 797.129 228.2205 814.4375 248.9375 C 826.2692 263.1325 893.17555 207.35125 881.34375 193.15625 C 863.34125 171.51225 844.8297 150.3205 826.375 129.0625 C 825.00082 127.54055 822.97134 126.89571 820.5 126.96875 z M 636.5625 179.09375 C 611.12049 179.05931 580.38017 186.10612 581.28125 197.21875 C 585.85655 243.72475 587.0908 290.47325 588.5625 337.15625 C 588.85558 346.84988 589.09226 356.55528 589.3125 366.25 C 572.26647 366.67989 555.22945 367.22445 538.1875 367.9375 C 503.4112 369.2095 468.545 371.09225 433.75 369.53125 C 415.0086 368.63225 410.78995 456.975 429.53125 457.875 C 466.92495 458.196 504.2791 456.1605 541.625 454.5625 C 557.89655 453.79265 574.16063 453.18739 590.4375 452.75 C 590.62432 501.7742 590.12187 550.8263 589.3125 599.84375 C 589.18447 608.16079 589.04028 616.46651 588.84375 624.78125 C 567.60341 632.13915 546.39611 639.64097 525.625 648.25 C 492.2399 662.881 459.33045 679.07875 430.96875 702.34375 C 416.79485 714.66075 474.85735 781.5055 489.03125 769.1875 C 509.94185 750.8945 535.2591 739.0555 560.5 728.0625 C 568.67369 724.69611 576.94196 721.54296 585.25 718.53125 C 583.77272 747.51614 581.99731 776.48609 579.9375 805.4375 C 578.2244 826.6025 577.1442 847.845 574.125 868.875 C 571.8784 887.392 659.1909 897.9555 661.4375 879.4375 C 663.8316 856.6455 664.892 833.78325 666.1875 810.90625 C 670.0847 741.03125 672.9444 671.08075 673.75 601.09375 C 674.43043 551.46667 674.88109 501.85079 674.875 452.21875 C 677.9486 452.26514 681.02 452.28171 684.09375 452.34375 C 714.27285 453.05475 744.35735 455.706 774.46875 457.625 C 793.15545 458.514 797.34285 370.41925 778.65625 369.53125 C 747.61775 368.62225 716.65555 365.97075 685.59375 365.59375 C 681.85525 365.54112 678.11326 365.50226 674.375 365.46875 C 674.24561 355.31989 674.08872 345.17969 673.90625 335.03125 C 672.99765 286.69625 672.0697 238.3445 669.5 190.0625 C 668.88347 182.45912 653.97019 179.11731 636.5625 179.09375 z M 319.46875 304.625 C 319.18306 304.62346 318.91368 304.64588 318.625 304.6875 C 284.0278 310.3305 250.34025 320.44075 215.90625 326.96875 C 183.35295 333.47375 150.6826 339.364 117.75 343.625 C 99.2459 346.821 114.3085 434.071 132.8125 430.875 C 148.02574 428.24228 163.22559 425.51673 178.40625 422.71875 C 178.95226 440.2951 179.2844 457.88538 179.5625 475.46875 C 162.89681 476.89154 146.1939 477.82266 129.46875 477.6875 C 110.70685 477.0405 107.64435 565.478 126.40625 566.125 C 144.43424 565.7306 162.4269 564.46265 180.375 562.78125 C 180.55784 597.27617 180.67367 631.75501 180.90625 666.25 C 181.19485 697.79 181.05565 682.377 181.34375 712.5 C 181.4204 717.82695 188.76764 721.49706 199.125 723.59375 C 198.72816 723.84294 198.33378 724.09356 197.9375 724.34375 C 162.3752 748.61375 126.8793 775.14675 109.1875 815.84375 C 103.015 833.56975 186.5775 862.6645 192.75 844.9375 C 205.2647 823.6335 226.90515 809.6505 246.84375 796.0625 C 283.12785 773.3125 322.0769 755.2545 361 737.5625 C 377.9642 730.0485 395.00575 722.7315 411.84375 714.9375 C 428.70975 706.9215 390.9284 627.39025 374.0625 635.40625 C 357.7038 643.41325 341.1187 650.94425 324.5625 658.53125 C 305.54164 667.4225 286.49968 676.31622 267.6875 685.6875 C 267.62477 682.1375 267.54985 679.22418 267.3125 665.40625 C 266.81086 627.91353 266.5407 590.40184 266.3125 552.90625 C 301.28159 548.83774 336.3523 546.00506 371.53125 544.46875 C 378.60205 544.62275 385.8745 543.6215 392.875 545.0625 C 411.5924 546.5805 418.74875 458.3305 400.03125 456.8125 C 388.96155 456.2895 377.90845 456.28025 366.84375 457.15625 C 333.06482 459.29392 299.3522 462.20441 265.71875 465.9375 C 265.53013 445.77012 265.28792 425.60305 264.96875 405.4375 C 286.91974 400.18773 308.75962 394.30975 331.15625 391.78125 C 349.34297 389.15986 337.46722 304.72187 319.46875 304.625 z M 489.59375 477.90625 C 470.18752 477.9959 420.55107 531.08419 432.71875 542.96875 C 452.14665 560.59975 474.052 575.07375 495.5625 589.96875 C 510.8057 600.53275 560.6182 528.689 545.375 518.125 C 527.9278 506.024 509.90305 494.4555 494.53125 479.6875 C 493.27252 478.45797 491.60129 477.89698 489.59375 477.90625 z M 814.0625 511.375 C 812.853 511.45393 811.76014 511.8115 810.8125 512.5 C 781.3915 534.601 752.23615 557.08375 723.03125 579.46875 C 708.39285 590.70875 761.39285 659.70875 776.03125 648.46875 C 804.58195 626.50975 833.0095 604.347 862.75 584 C 876.96456 573.67344 832.20506 510.19102 814.0625 511.375 z M 695.96875 641.53125 C 677.89039 640.61731 661.22928 724.75127 679.34375 728.40625 C 705.91105 733.42625 730.922 743.9885 755.8125 754.1875 C 794.1138 770.0655 833.08665 784.2045 871.59375 799.5625 C 890.93485 807.1285 909.6994 815.92875 928 825.71875 C 944.5048 834.29975 984.97365 756.48725 968.46875 747.90625 C 947.33785 737.17125 925.8107 727.26475 903.6875 718.71875 C 865.5146 703.62275 826.94035 689.57225 789.09375 673.65625 C 759.02515 661.12425 728.75855 648.74025 696.84375 641.65625 C 696.55622 641.59823 696.25571 641.54576 695.96875 641.53125 z "
     id="path11349" />
</svg>
