<?xml version="1.0" encoding="UTF-8" standalone="no"?>
<svg
   xmlns:dc="http://purl.org/dc/elements/1.1/"
   xmlns:cc="http://creativecommons.org/ns#"
   xmlns:rdf="http://www.w3.org/1999/02/22-rdf-syntax-ns#"
   xmlns:svg="http://www.w3.org/2000/svg"
   xmlns="http://www.w3.org/2000/svg"
   xmlns:sodipodi="http://sodipodi.sourceforge.net/DTD/sodipodi-0.dtd"
   xmlns:inkscape="http://www.inkscape.org/namespaces/inkscape"
   width="1024"
   height="1024"
   id="U751F"
   version="1.1"
   inkscape:version="0.48.0 r9654"
   sodipodi:docname="U+751F.svg">
  <metadata
     id="metadata12">
    <rdf:RDF>
      <cc:Work
         rdf:about="">
        <dc:format>image/svg+xml</dc:format>
        <dc:type
           rdf:resource="http://purl.org/dc/dcmitype/StillImage" />
      </cc:Work>
    </rdf:RDF>
  </metadata>
  <defs
     id="defs10" />
  <sodipodi:namedview
     pagecolor="#ffffff"
     bordercolor="#666666"
     borderopacity="1"
     objecttolerance="10"
     gridtolerance="10"
     guidetolerance="10"
     inkscape:pageopacity="0"
     inkscape:pageshadow="2"
     inkscape:window-width="640"
     inkscape:window-height="480"
     id="namedview8"
     showgrid="false"
     inkscape:zoom="0.27441406"
     inkscape:cx="512"
     inkscape:cy="512"
     inkscape:window-x="0"
     inkscape:window-y="25"
     inkscape:window-maximized="0"
     inkscape:current-layer="U751F" />
  <path
     style="fill:#a02c2c;fill-opacity:1;fill-rule:nonzero;stroke:#f9f9f9;stroke-width:0.1;stroke-miterlimit:4;stroke-dasharray:none"
     d="M 480.96875 99.53125 C 467.12413 99.507989 456.16568 102.16088 455.21875 108.53125 C 450.65155 166.33725 454.0845 224.47275 455.75 282.34375 C 455.83959 285.43752 455.91573 288.53114 456 291.625 C 442.19553 293.40049 428.39781 295.28321 414.625 297.3125 C 381.6181 302.17834 348.664 307.27905 315.71875 312.53125 C 316.55524 309.61366 317.42713 306.72567 318.28125 303.8125 C 328.88445 267.1295 339.06345 230.0345 354.59375 195.0625 C 362.39905 177.9885 281.89905 141.175 274.09375 158.25 C 258.18415 197.836 246.87125 239.09375 235.28125 280.09375 C 220.86645 330.15575 208.49635 380.71725 198.84375 431.90625 C 194.68375 455.02925 196.6479 443.94575 192.9375 465.09375 C 189.9096 483.41575 276.2847 497.697 279.3125 479.375 C 282.467 458.985 280.77635 469.6285 284.40625 447.4375 C 286.83212 433.5019 289.51693 419.63903 292.4375 405.8125 C 337.19148 396.51856 382.34419 389.23754 427.5 382.21875 C 437.57806 380.66455 447.64981 379.19386 457.75 377.8125 C 458.55379 433.05786 458.84908 488.31193 459.21875 543.5625 C 452.3163 544.76033 445.42318 545.91657 438.5 547 C 403.4487 551.868 368.20825 556.04475 332.78125 556.59375 C 314.01035 557.30175 317.3542 645.7715 336.125 645.0625 C 374.5034 642.7645 412.6592 638.19625 450.6875 632.65625 C 453.86621 632.16767 457.04546 631.64658 460.21875 631.125 C 461.54212 685.04312 464.2065 738.92399 466.4375 792.8125 C 466.56312 798.43777 466.68688 804.06168 466.8125 809.6875 C 429.60475 813.63494 392.41794 817.89487 355.25 822.28125 C 303.4517 828.06325 251.59125 833.30425 199.84375 839.53125 C 181.35735 842.53225 195.5136 929.6885 214 926.6875 C 264.16 918.6055 314.72985 913.22875 365.15625 907.09375 C 447.21915 896.63875 529.38045 887.343 611.90625 881.5 C 680.61265 876.831 749.4425 879.112 817.8125 886.75 C 846.9823 889.992 875.65585 896.439 904.59375 901.125 C 923.07175 903.796 935.6655 816.671 917.1875 814 C 886.9885 810.28 857.1532 803.88225 826.8125 801.15625 C 753.3751 793.90125 679.53155 791.71075 605.84375 796.96875 C 588.32095 798.24698 570.8092 799.68214 553.3125 801.21875 C 553.10425 796.95288 552.89575 792.70309 552.6875 788.4375 C 549.20995 731.00438 545.70924 673.5508 544.21875 616.03125 C 559.04436 613.53559 573.93652 611.32525 588.90625 609.75 C 607.27805 607.592 597.09055 520.99925 578.71875 523.15625 C 566.81499 524.67336 554.95083 526.46629 543.125 528.4375 C 542.70544 475.00583 542.42011 421.55542 541.875 368.125 C 566.02063 365.83488 590.20287 363.94399 614.40625 362.34375 C 646.41035 360.94775 678.57535 358.96225 710.59375 361.15625 C 729.30605 361.88425 732.74355 273.6645 714.03125 272.9375 C 678.76085 272.3495 643.499 274.076 608.3125 276.375 C 585.76956 278.07927 563.22135 279.99368 540.71875 282.15625 C 540.70791 281.5624 540.69847 280.96885 540.6875 280.375 C 539.76 227.499 536.96845 174.21625 542.59375 121.53125 C 544.40152 109.36963 507.39939 99.575657 480.96875 99.53125 z "
     id="path11977" />
</svg>
