<?xml version="1.0" encoding="utf-8" ?>

<!DOCTYPE svg PUBLIC "-//W3C//DTD SVG 1.1//EN" 
  "http://www.w3.org/Graphics/SVG/1.1/DTD/svg11.dtd">
<svg 
    xmlns="http://www.w3.org/2000/svg"
    xmlns:xlink="http://www.w3.org/1999/xlink"
    xmlns:sodipodi="http://sodipodi.sourceforge.net/DTD/sodipodi-0.dtd"
    xmlns:inkscape="http://www.inkscape.org/namespaces/inkscape"
    width="1024" height="1024" id="U7559">
<path d="m 10623.175,30910.855 c -26.621,24.859 -51.754,51.242 -76.795,77.672 -24.122,25.577 -48.542,50.875 -72.315,76.779 -9.084,5.54 -18.494,30.524 -9.878,8.892 1.795,-16.038 1.71,24.412 1.71,24.437 0.01,20.696 0.222,41.379 1.605,62.032 1.384,16.753 3.368,33.447 4.938,50.183 0.554,6.928 0.997,13.871 2.748,20.617 4.047,6.886 -7.438,-9.117 -7.839,-9.54 -13.053,-11.405 -32.701,-3.561 -15.236,-11.393 23.653,-11.522 46.802,-24.04 70.119,-36.218 15.024,-8.008 30.576,-14.924 46.233,-21.576 17.283,-7.146 50.967,74.327 33.684,81.473 l 0,0 c -13.392,5.355 -26.677,10.993 -39.431,17.762 -24.874,12.943 -49.444,26.462 -74.493,39.067 -24.962,11.199 -49.8,17.791 -74.626,1.618 -12.443,-11.551 -21.625,-24.093 -24.852,-41.106 -2.421,-10.856 -3.909,-21.847 -4.397,-32.968 -1.417,-17.446 -3.37,-34.843 -4.679,-52.299 -1.35,-21.944 -1.744,-43.91 -2,-65.892 -0.408,-14.864 -2.209,-29.788 -0.322,-44.595 6.073,-20.254 17.391,-35.849 32.581,-50.524 24.371,-25.557 49.149,-50.724 73.366,-76.429 25.67,-27.173 51.498,-54.192 77.685,-80.869 13.338,-13.193 75.532,49.684 62.194,62.877 z" id="path10218" inkscape:connector-curvature="0" style="fill:#2b0000;fill-opacity:1;fill-rule:nonzero;stroke:#f9f9f9;stroke-width:0.1;stroke-miterlimit:4;stroke-dasharray:none" transform="translate(-10240, -30720)"/><path d="m 10634.401,31062.668 c 11.684,22.53 24.604,44.381 37.404,66.285 10.215,16.824 19.023,34.446 28.795,51.516 0.501,0.75 1.002,1.499 1.503,2.248 9.76,16.072 -66.005,62.085 -75.766,46.012 l 0,0 c -1.082,-1.856 -2.163,-3.713 -3.245,-5.569 -8.944,-16.735 -17.384,-33.748 -27.095,-50.066 -13.124,-22.621 -26.26,-45.236 -39.219,-67.952 -9.01,-16.467 68.613,-58.94 77.623,-42.474 z" id="path10220" inkscape:connector-curvature="0" style="fill:#2b0000;fill-opacity:1;fill-rule:nonzero;stroke:#f9f9f9;stroke-width:0.1;stroke-miterlimit:4;stroke-dasharray:none" transform="translate(-10240, -30720)"/><path d="m 10723.672,30902.943 c 27.356,-1.088 54.722,-1.857 82.09,-2.555 26.351,-0.876 52.708,-0.337 79.06,0.111 16.403,0.499 32.798,0.34 49.193,-0.251 17.284,-0.833 33.711,2.367 49.702,8.632 25.281,13.404 34.277,37.235 38.319,63.96 2.911,32.529 -3.525,64.788 -10.251,96.446 -8.499,35.671 -17.573,71.193 -25.666,106.962 -4.856,21.024 -8.66,42.264 -11.905,63.59 -0.883,15.744 -7.734,25.179 -16.497,38.513 -13.396,13.274 -75.971,-49.876 -62.575,-63.15 l 0,0 c -3.064,5.172 -6.397,10.194 -9.191,15.516 -3.387,6.45 3.116,-2.187 1.057,-5.239 4.065,-23.064 8.485,-46.069 13.92,-68.855 8.241,-35.165 17.175,-70.157 25.421,-105.318 4.539,-21.819 9.155,-44.003 8.236,-66.415 -1.015,-11.333 3.828,2.972 12.324,4.691 8.408,2.06 -8.059,-2.247 -10.215,-0.961 -17.889,0.448 -35.778,0.5 -53.665,-0.153 -25.02,-0.597 -50.044,-1.325 -75.07,-0.504 -26.931,0.664 -53.887,1.231 -80.751,3.371 -18.751,0.75 -22.286,-87.641 -3.536,-88.391 z" id="path10222" inkscape:connector-curvature="0" style="fill:#2b0000;fill-opacity:1;fill-rule:nonzero;stroke:#f9f9f9;stroke-width:0.1;stroke-miterlimit:4;stroke-dasharray:none" transform="translate(-10240, -30720)"/><path d="m 10897.896,30983.451 c -18.064,30.635 -34.395,62.261 -50.613,93.901 -19.282,37.488 -36.387,76.018 -52.161,115.095 -7.335,18.137 -13.8,36.605 -19.805,55.22 -0.567,1.669 -1.133,3.339 -1.7,5.008 -6.301,17.717 -89.819,-11.987 -83.518,-29.704 l 0,0 c 0.456,-1.203 0.911,-2.407 1.366,-3.611 7.116,-20.253 14.563,-40.395 22.899,-60.184 17.208,-40.99 35.518,-81.512 55.64,-121.164 16.685,-32.994 33.601,-65.872 51.067,-98.462 9.313,-16.297 86.138,27.603 76.825,43.901 z" id="path10224" inkscape:connector-curvature="0" style="fill:#2b0000;fill-opacity:1;fill-rule:nonzero;stroke:#f9f9f9;stroke-width:0.1;stroke-miterlimit:4;stroke-dasharray:none" transform="translate(-10240, -30720)"/><path d="m 10557.227,31349.281 c 7.663,33.223 11.217,67.191 15.359,100.979 4.292,36.349 9.828,72.534 16.288,108.556 -2.21,-0.701 8.868,38.158 6.712,28.31 8.931,16.545 -69.063,58.646 -77.994,42.101 l 0,0 c -8.306,-17.639 -12.518,-36.234 -15.013,-55.569 -6.178,-37.427 -11.803,-74.947 -16.365,-112.609 -3.776,-29.666 -6.819,-59.618 -14.44,-88.608 -4.913,-18.127 80.54,-41.287 85.453,-23.16 z" id="path10226" inkscape:connector-curvature="0" style="fill:#2b0000;fill-opacity:1;fill-rule:nonzero;stroke:#f9f9f9;stroke-width:0.1;stroke-miterlimit:4;stroke-dasharray:none" transform="translate(-10240, -30720)"/><path d="m 10520.042,31305.268 c 35.752,-12.077 72.729,-19.943 109.557,-27.918 47.37,-10.074 94.843,-19.661 142.356,-29.035 35.895,-7.415 72.097,-12.927 108.735,-14.386 25.794,-1.469 48.512,3.94 69.699,18.579 19.787,18.001 23.673,41.559 22.353,66.935 -2.441,22.565 -5.799,45.027 -9.043,67.488 -5.405,35.645 -12.986,70.907 -19.682,106.32 -5.63,29.843 -9.989,59.895 -13.195,90.089 -1.934,15.468 -1.911,31.072 -3.036,46.594 -2.69,16.103 -0.08,5.788 -12.486,29.375 -12.544,14.099 -79.008,-45.032 -66.465,-59.131 l 0,0 c -9.586,19.788 -8.742,11.948 -9.357,21.728 2.153,-16.017 1.423,-32.396 4.076,-48.381 3.822,-32.325 8.695,-64.507 14.791,-96.486 6.439,-34.005 13.592,-67.899 18.536,-102.166 2.692,-20.208 5.373,-40.422 7.59,-60.687 0.883,-10.911 2.092,2.77 10.232,7.289 15.189,7.655 -2.518,-2.627 -11.376,0.263 -31.937,0.536 -63.463,5.624 -94.769,11.734 -46.883,9.029 -93.692,18.466 -140.337,28.662 -32.585,7.263 -65.483,14.147 -96.84,25.817 -17.539,6.648 -48.879,-76.035 -31.339,-82.683 z" id="path10228" inkscape:connector-curvature="0" style="fill:#2b0000;fill-opacity:1;fill-rule:nonzero;stroke:#f9f9f9;stroke-width:0.1;stroke-miterlimit:4;stroke-dasharray:none" transform="translate(-10240, -30720)"/><path d="m 10588.76,31426.654 c 35.618,-3.449 71.213,-7.078 106.87,-10.119 38.842,-3.407 77.806,-4.926 116.747,-6.651 16.255,-1.392 32.731,-0.265 48.939,-2.215 18.72,-1.46 25.602,86.787 6.882,88.247 l 0,0 c -17.448,1.004 -34.937,0.586 -52.397,1.36 -37.595,1.282 -75.208,2.567 -112.691,5.899 -34.936,3.054 -69.845,6.521 -104.587,11.344 -18.639,2.071 -28.402,-85.794 -9.763,-87.865 z" id="path10230" inkscape:connector-curvature="0" style="fill:#2b0000;fill-opacity:1;fill-rule:nonzero;stroke:#f9f9f9;stroke-width:0.1;stroke-miterlimit:4;stroke-dasharray:none" transform="translate(-10240, -30720)"/><path d="m 10787.218,31364.622 c -12.957,24.257 -19.659,51.114 -25.645,77.762 -6.671,32.099 -9.824,64.758 -10.807,97.487 0.185,12.467 -0.781,25.062 0.637,37.487 1.225,18.769 -87.251,24.543 -88.475,5.775 l 0,0 c -0.674,-15.533 -0.177,-31.082 0.259,-46.616 1.719,-38.004 5.589,-75.918 13.37,-113.203 7.882,-35.179 17.244,-70.264 33.801,-102.509 9.295,-16.305 86.155,27.512 76.86,43.817 z" id="path10232" inkscape:connector-curvature="0" style="fill:#2b0000;fill-opacity:1;fill-rule:nonzero;stroke:#f9f9f9;stroke-width:0.1;stroke-miterlimit:4;stroke-dasharray:none" transform="translate(-10240, -30720)"/><path d="m 10557.157,31573.879 c 32.255,2.404 64.617,0.388 96.851,-1.307 44.509,-3.123 89.075,-4.359 133.644,-2.181 29.06,1.651 57.981,5.269 85.883,13.689 7.655,2.419 14.884,5.892 22.08,9.395 16.784,8.487 -23.225,87.607 -40.009,79.12 l 0,0 c -2.914,-1.578 -5.77,-3.277 -8.899,-4.414 -20.421,-7.261 -42.338,-8.775 -63.754,-10.772 -41.401,-2.488 -82.82,-1.048 -124.172,1.923 -35.69,2.048 -71.433,4.158 -107.196,2.906 -18.743,-1.182 -13.171,-89.541 5.572,-88.359 z" id="path10234" inkscape:connector-curvature="0" style="fill:#2b0000;fill-opacity:1;fill-rule:nonzero;stroke:#f9f9f9;stroke-width:0.1;stroke-miterlimit:4;stroke-dasharray:none" transform="translate(-10240, -30720)"/></svg>