<?xml version="1.0" encoding="UTF-8" standalone="no"?>
<svg
   xmlns:dc="http://purl.org/dc/elements/1.1/"
   xmlns:cc="http://creativecommons.org/ns#"
   xmlns:rdf="http://www.w3.org/1999/02/22-rdf-syntax-ns#"
   xmlns:svg="http://www.w3.org/2000/svg"
   xmlns="http://www.w3.org/2000/svg"
   xmlns:sodipodi="http://sodipodi.sourceforge.net/DTD/sodipodi-0.dtd"
   xmlns:inkscape="http://www.inkscape.org/namespaces/inkscape"
   width="1024"
   height="1024"
   id="U75C5"
   version="1.1"
   inkscape:version="0.48.0 r9654"
   sodipodi:docname="U+75C5.svg">
  <metadata
     id="metadata17">
    <rdf:RDF>
      <cc:Work
         rdf:about="">
        <dc:format>image/svg+xml</dc:format>
        <dc:type
           rdf:resource="http://purl.org/dc/dcmitype/StillImage" />
      </cc:Work>
    </rdf:RDF>
  </metadata>
  <defs
     id="defs15" />
  <sodipodi:namedview
     pagecolor="#ffffff"
     bordercolor="#666666"
     borderopacity="1"
     objecttolerance="10"
     gridtolerance="10"
     guidetolerance="10"
     inkscape:pageopacity="0"
     inkscape:pageshadow="2"
     inkscape:window-width="640"
     inkscape:window-height="480"
     id="namedview13"
     showgrid="false"
     inkscape:zoom="0.27441406"
     inkscape:cx="512"
     inkscape:cy="512"
     inkscape:window-x="0"
     inkscape:window-y="25"
     inkscape:window-maximized="0"
     inkscape:current-layer="U75C5" />
  <path
     style="fill:#aa0000;fill-opacity:1;fill-rule:nonzero;stroke:#f9f9f9;stroke-width:0.1;stroke-miterlimit:4;stroke-dasharray:none"
     d="M 473.84375 97.75 C 453.9273 99.115955 405.43452 148.99621 417 160.84375 C 440.0759 183.59645 465.91255 203.1946 491.90625 222.4375 C 503.04675 230.2111 513.64335 238.62905 523.71875 247.71875 C 537.59415 259.85245 594.78165 194.4462 580.90625 182.3125 C 568.79935 171.9445 556.4587 161.9245 543.3125 152.875 C 521.0583 136.467 498.67815 119.8887 479.71875 99.625 C 478.29843 98.170039 476.28963 97.582251 473.84375 97.75 z M 750.46875 297.53125 C 747.1558 297.52761 743.82505 297.6039 740.5 297.75 C 686.3921 298.7537 632.3303 301.31415 578.4375 306.40625 C 503.7813 313.38775 429.33895 322.32395 355.40625 334.96875 C 310.45165 342.18985 265.4902 350.24115 220.0625 353.78125 C 202.98446 354.76115 205.86911 428.93929 220.90625 439.90625 C 209.31779 467.20896 199.38651 495.23621 189.53125 523.1875 C 169.53331 583.01491 151.05659 643.33012 132.625 703.65625 C 126.1336 693.07669 119.04271 686.173 113.53125 688.375 C 108.35555 690.4741 103.20685 692.55715 98.03125 694.65625 C 65.75335 708.88335 34.38425 724.99095 4.53125 743.84375 C -10.98345 754.02135 36.9853 827.14645 52.5 816.96875 C 70.174967 804.75505 88.914617 794.35315 108.21875 785.0625 C 101.21755 809.29647 94.338142 833.56392 87.28125 857.78125 C 81.46015 873.90025 78.2521 892.6866 66.75 906.0625 C 56.1705 921.2406 127.70175 971.08435 138.28125 955.90625 C 153.30045 932.98815 163.5558 908.03095 170.25 881.40625 C 183.5537 833.64355 196.2876 785.7087 210.875 738.3125 C 229.6565 675.8874 248.66045 613.52415 269.78125 551.84375 C 283.80405 513.04765 297.69785 473.7525 318.34375 437.875 C 319.92357 435.1637 319.04599 431.63709 316.5 427.75 C 334.09866 424.76801 351.66288 421.65198 369.25 418.65625 C 441.0583 405.74805 513.4839 397.10215 586.125 390.65625 C 637.7361 386.10805 689.48285 384.05775 741.28125 384.09375 C 749.86955 384.96635 759.0965 383.3026 767.5 385.875 C 785.8692 388.5671 798.5567 301.97335 780.1875 299.28125 C 770.2845 298.20102 760.40761 297.54218 750.46875 297.53125 z M 638.0625 434.71875 C 625.7935 434.70438 613.53598 435.7282 601.21875 437.6875 C 548.55565 445.2486 496.3515 455.62745 444.5 467.53125 C 400.7876 477.41145 357.1086 487.44635 313.875 499.28125 C 296.0875 504.55615 320.9624 588.43115 338.75 583.15625 C 378.33135 570.54778 418.8362 561.12083 459.28125 551.75 C 453.02072 570.43489 446.88264 589.1596 440.53125 607.8125 C 436.47747 619.64336 432.29814 631.43451 428.03125 643.1875 C 396.9736 654.3941 366.26757 667.55388 340.5 687.96875 C 327.09998 673.28784 257.62538 666.90241 255.6875 683.375 C 253.1452 719.5834 255.6045 755.89095 258.0625 792.03125 C 260.9742 830.21605 262.45205 868.567 270.65625 906.0625 C 274.91995 923.9992 359.4512 903.90545 355.1875 885.96875 C 351.06298 870.81159 349.13713 855.256 347.875 839.59375 C 357.10267 857.89765 418.65693 885.9231 425.84375 871.28125 C 437.06005 846.64855 448.77765 822.2225 459.09375 797.1875 C 470.77594 769.20666 482.07549 741.07632 492.96875 712.78125 C 530.96554 702.76954 569.94486 696.77934 608.9375 692.0625 C 647.3323 687.8193 685.95765 686.47275 724.53125 688.34375 C 727.72635 684.16275 761.838 697.05485 751.0625 696.84375 C 751.8065 720.06395 748.38855 743.26295 744.84375 766.21875 C 737.67415 805.07075 730.95215 844.0105 724.96875 883.0625 C 723.65605 892.5965 722.19085 902.09075 720.03125 911.46875 C 716.45115 929.67745 802.295 946.55245 805.875 928.34375 C 807.7841 917.45835 809.43505 906.5424 810.71875 895.5625 C 816.08425 856.7278 822.6083 818.0875 829.875 779.5625 C 836.708 736.5291 844.5384 691.76275 825.0625 650.78125 C 820.7801 644.85895 817.19925 638.3485 812.21875 633 C 790.49635 609.6728 758.34875 603.89385 728.09375 601.90625 C 684.80465 600.38305 641.4835 601.9777 598.4375 607 C 574.79454 609.96348 551.16858 613.32556 527.71875 617.59375 C 537.65519 588.73563 547.41479 559.79073 558.9375 531.53125 C 558.98919 531.40653 559.02004 531.28267 559.0625 531.15625 C 576.93723 528.06878 594.87217 525.32269 612.875 523 C 618.8533 523.5122 645.4433 517.7761 650.5 522.625 C 668.7257 526.0692 684.94445 440.16305 666.71875 436.71875 C 657.14148 435.38359 647.60505 434.72992 638.0625 434.71875 z M 106.5 529.125 C 82.243053 529.16375 31.51308 552.20338 36.90625 566 C 46.46975 587.7992 59.0762 608.2266 66.4375 630.9375 C 72.4257 648.3825 154.64445 620.1325 148.65625 602.6875 C 140.27885 579.0411 128.90395 556.88955 118.53125 534.09375 C 117.1565 530.57697 112.68314 529.11512 106.5 529.125 z M 509.59375 714.5 C 491.88981 714.79865 460.30927 787.89794 476.5 795.09375 C 502.2258 806.81615 526.7275 821.0612 551.4375 834.75 C 582.738 852.4349 615.32015 867.6546 647.59375 883.4375 C 658.93505 888.9102 669.79625 895.2189 680.46875 901.875 C 696.24645 911.4436 741.37135 837.0686 725.59375 827.5 C 712.48455 819.7125 699.2265 812.1704 685.4375 805.625 C 654.5165 790.6645 623.3296 776.1644 593.4375 759.1875 C 566.4947 744.1551 539.74155 728.7175 512.09375 715 C 511.29748 714.6461 510.46444 714.48531 509.59375 714.5 z M 341.5 740.65625 C 354.65888 751.63907 370.59444 761.13282 380.8125 762.5625 C 380.62218 763.00884 380.44057 763.46001 380.25 763.90625 C 370.19641 787.23528 359.24276 810.1666 347.375 832.625 C 346.29568 817.15151 345.64159 801.62084 344 786.3125 C 343.01389 771.13423 341.95676 755.89804 341.5 740.65625 z "
     id="path20259" />
</svg>
