<?xml version="1.0" encoding="UTF-8" standalone="no"?>
<svg
   xmlns:dc="http://purl.org/dc/elements/1.1/"
   xmlns:cc="http://creativecommons.org/ns#"
   xmlns:rdf="http://www.w3.org/1999/02/22-rdf-syntax-ns#"
   xmlns:svg="http://www.w3.org/2000/svg"
   xmlns="http://www.w3.org/2000/svg"
   xmlns:sodipodi="http://sodipodi.sourceforge.net/DTD/sodipodi-0.dtd"
   xmlns:inkscape="http://www.inkscape.org/namespaces/inkscape"
   width="1024"
   height="1024"
   id="U7535"
   version="1.1"
   inkscape:version="0.48.0 r9654"
   sodipodi:docname="U+7535.svg">
  <metadata
     id="metadata12">
    <rdf:RDF>
      <cc:Work
         rdf:about="">
        <dc:format>image/svg+xml</dc:format>
        <dc:type
           rdf:resource="http://purl.org/dc/dcmitype/StillImage" />
      </cc:Work>
    </rdf:RDF>
  </metadata>
  <defs
     id="defs10" />
  <sodipodi:namedview
     pagecolor="#ffffff"
     bordercolor="#666666"
     borderopacity="1"
     objecttolerance="10"
     gridtolerance="10"
     guidetolerance="10"
     inkscape:pageopacity="0"
     inkscape:pageshadow="2"
     inkscape:window-width="640"
     inkscape:window-height="480"
     id="namedview8"
     showgrid="false"
     inkscape:zoom="0.27441406"
     inkscape:cx="512"
     inkscape:cy="512"
     inkscape:window-x="0"
     inkscape:window-y="25"
     inkscape:window-maximized="0"
     inkscape:current-layer="U7535" />
  <path
     style="fill:#550000;fill-opacity:1;fill-rule:nonzero;stroke:#f9f9f9;stroke-width:0.1;stroke-miterlimit:4;stroke-dasharray:none"
     d="M 464.4375 160 C 460.31249 160.01882 457.269 161.13984 455.875 163.6875 C 437.048 203.3021 433.16795 247.3215 429.90625 290.4375 C 428.75012 316.45396 428.0623 342.49227 427.65625 368.53125 C 387.02787 375.36655 346.19206 383.23831 308.4375 400.375 C 291.9061 408.8815 331.99975 486.78775 348.53125 478.28125 C 373.31907 466.49131 400.18919 460.53726 427.09375 455.65625 C 427.08742 468.21115 427.088 480.76018 427.09375 493.3125 C 426.99397 504.39238 427.02818 515.4592 427.15625 526.53125 C 411.11334 527.73951 395.08963 529.16734 379.09375 530.9375 C 360.73585 533.6122 373.3296 620.14345 391.6875 617.46875 C 404.52394 615.53307 417.42755 614.0407 430.34375 612.8125 C 431.74501 635.54105 433.56276 658.23201 435.78125 680.90625 C 405.92485 679.81179 376.03681 678.34896 346.3125 675.34375 C 351.74013 670.48626 354.57701 665.74071 352.90625 661.90625 C 346.24555 647.44535 349.6992 655.4221 342.8125 637.875 C 327.9321 596.3999 314.34805 554.4454 302.28125 512.0625 C 294.05475 481.5213 285.5405 450.6167 283.875 418.875 C 283.0947 400.3033 195.5322 403.9908 196.3125 422.5625 C 199.3673 460.732 209.2514 497.87325 219.375 534.65625 C 232.2445 578.95325 246.37085 622.8931 261.40625 666.5 C 269.19655 687.5294 265.22055 677.4873 273.21875 696.625 C 277.47405 706.3911 305.85539 698.89959 327.65625 687.59375 C 318.01115 711.42136 315.77596 759.95512 329.5 761.59375 C 368.7152 764.34361 407.99112 765.97021 447.28125 767.15625 C 451.76008 793.87438 457.06484 820.44066 463.3125 846.8125 C 471.9059 879.2875 483.62065 912.656 509.40625 935.75 C 515.11285 940.861 521.73765 944.833 527.90625 949.375 C 570.33245 972.559 618.9751 972.2 666 972.25 C 716.1596 971.576 766.1311 966.757 815.9375 961.125 C 842.3347 958.005 868.7181 954.64025 894.6875 948.90625 C 912.692 944.67025 892.72335 859.79425 874.71875 864.03125 C 852.17065 869.84825 828.92865 872.50475 805.90625 875.71875 C 759.54695 881.35075 713.02495 885.98025 666.28125 886.40625 C 636.38935 886.23925 605.4389 886.96075 576.6875 877.59375 C 557.3419 868.46875 552.8446 845.2755 547.125 826.5625 C 542.28905 807.00509 538.05948 787.29215 534.34375 767.5 C 551.95609 766.91788 569.53066 765.84369 587.09375 764.09375 C 605.32995 762.10845 595.9862 676.1396 577.75 678.125 C 559.02554 680.38095 540.22507 681.55225 521.40625 682.03125 C 518.6808 657.24523 516.46841 632.42817 514.84375 607.5625 C 531.41143 607.01106 547.9933 607.1965 564.5625 607.71875 C 582.8851 608.12655 584.79135 521.75155 566.46875 521.34375 C 548.16764 521.08069 529.88402 521.07952 511.59375 521.75 C 511.50292 512.28476 511.49996 502.81551 511.59375 493.34375 C 511.61713 476.97327 511.63817 460.59347 511.71875 444.21875 C 539.8394 441.44948 568.0498 439.44299 596.25 437.71875 C 602.8492 437.44355 609.4611 437.12215 616.0625 436.90625 C 622.20306 436.70523 630.82438 436.47413 638.5 436.5 C 637.42827 443.35606 636.3575 450.48901 636.34375 450.5625 C 628.15635 488.7455 617.87785 526.46765 607.46875 564.09375 C 600.91415 587.88865 593.70565 611.4411 584.90625 634.5 C 578.53515 651.718 659.6914 681.74935 666.0625 664.53125 C 675.2588 639.04285 683.1929 613.18065 690.3125 587.03125 C 701.3771 547.13115 712.53205 507.20845 721.53125 466.78125 C 727.49935 435.73515 734.5795 399.8632 711.75 373.1875 C 706.5568 367.1194 699.1343 363.4436 692.8125 358.5625 C 687.1971 356.6208 681.697 354.17865 675.9375 352.71875 C 648.2575 345.70255 618.56275 352.18465 590.59375 352.03125 C 564.68316 353.8627 538.77152 355.8398 512.90625 358.28125 C 513.42801 337.89938 514.167 317.51846 515.21875 297.15625 C 517.77165 266.33355 519.7923 234.317 532.75 205.75 C 540.2776 191.99266 486.71257 159.89836 464.4375 160 z M 651.625 436.96875 C 655.27106 437.26083 659.76709 437.78328 661.03125 438.6875 C 661.76465 439.2122 659.24185 438.8565 658.34375 438.9375 C 656.5664 440.34637 654.12844 439.15433 651.625 436.96875 z "
     id="path22129" />
</svg>
