<?xml version="1.0" encoding="UTF-8" standalone="no"?>
<svg
   xmlns:dc="http://purl.org/dc/elements/1.1/"
   xmlns:cc="http://creativecommons.org/ns#"
   xmlns:rdf="http://www.w3.org/1999/02/22-rdf-syntax-ns#"
   xmlns:svg="http://www.w3.org/2000/svg"
   xmlns="http://www.w3.org/2000/svg"
   xmlns:sodipodi="http://sodipodi.sourceforge.net/DTD/sodipodi-0.dtd"
   xmlns:inkscape="http://www.inkscape.org/namespaces/inkscape"
   width="1024"
   height="1024"
   id="U7537"
   version="1.1"
   inkscape:version="0.48.0 r9654"
   sodipodi:docname="U+7537.svg">
  <metadata
     id="metadata14">
    <rdf:RDF>
      <cc:Work
         rdf:about="">
        <dc:format>image/svg+xml</dc:format>
        <dc:type
           rdf:resource="http://purl.org/dc/dcmitype/StillImage" />
      </cc:Work>
    </rdf:RDF>
  </metadata>
  <defs
     id="defs12" />
  <sodipodi:namedview
     pagecolor="#ffffff"
     bordercolor="#666666"
     borderopacity="1"
     objecttolerance="10"
     gridtolerance="10"
     guidetolerance="10"
     inkscape:pageopacity="0"
     inkscape:pageshadow="2"
     inkscape:window-width="640"
     inkscape:window-height="480"
     id="namedview10"
     showgrid="false"
     inkscape:zoom="0.27441406"
     inkscape:cx="512"
     inkscape:cy="512"
     inkscape:window-x="0"
     inkscape:window-y="25"
     inkscape:window-maximized="0"
     inkscape:current-layer="U7537" />
  <path
     style="fill:#c83737;fill-opacity:1;fill-rule:nonzero;stroke:#f9f9f9;stroke-width:0.1;stroke-miterlimit:4;stroke-dasharray:none"
     d="M 598.71875 155.3125 C 595.43572 155.31458 592.16078 155.37162 588.875 155.4375 C 551.636 155.6375 514.36465 156.09325 477.15625 157.65625 C 433.89775 160.44925 390.7803 165.282 348.4375 174.875 C 315.3218 182.467 282.4937 191.322 251 204.25 C 244.71419 206.92125 245.31386 219.42731 249.4375 233.875 C 222.87451 235.00396 184.59905 247.23949 187.1875 259.59375 C 193.092 289.18075 198.3912 318.86225 205.125 348.28125 C 212.9385 381.31925 224.00665 413.42 235.34375 445.375 C 240.80265 459.006 244.77855 473.1845 250.21875 486.8125 C 253.34365 491.4415 256.46885 496.08975 259.59375 500.71875 C 265.1025 506.61355 280.13083 498.8595 294.53125 487 C 299.32036 513.17257 317.55485 550.36254 329.5625 545.875 C 355.0266 535.758 381.9267 529.99975 408.75 524.84375 C 426.16183 521.80951 443.66499 519.40966 461.21875 517.375 C 451.30689 535.02951 441.78207 552.90028 432.28125 570.78125 C 428.63685 577.55954 424.97003 584.32328 421.3125 591.09375 C 393.50817 595.03429 365.77656 599.47929 338.15625 604.59375 C 305.04785 610.52075 272.00395 616.7015 238.90625 622.6875 C 220.52965 626.4845 238.40465 713.1095 256.78125 709.3125 C 288.95785 702.1725 321.38295 696.1035 353.78125 690.0625 C 359.22828 689.01648 364.66794 688.01804 370.125 687.03125 C 364.28267 698.30189 358.50391 709.60041 352.84375 720.96875 C 333.10975 759.32575 317.309 799.3155 305.6875 840.8125 C 300.6203 859.6805 296.20045 878.714 292.40625 897.875 C 289.11315 909.659 295.54985 891.50025 296.15625 890.78125 C 299.42636 886.90469 303.32076 883.62291 307.03125 880.15625 C 296.63443 894.78158 339.80862 963.86313 355.21875 954.4375 C 369.11015 941.4875 377.56765 933.0335 379.53125 913.8125 C 382.29865 896.9915 386.00065 880.3435 390.15625 863.8125 C 399.69785 827.5515 413.22695 792.68675 430.21875 759.21875 C 444.79106 729.53743 460.20666 700.31636 475.9375 671.25 C 480.75847 670.66922 485.58143 670.11142 490.40625 669.5625 C 529.24885 665.3495 568.2844 663.53325 607.3125 662.15625 C 630.4612 661.09725 653.45105 662.89825 675.96875 668.28125 C 687.48635 670.96725 697.97915 676.188 708.03125 682.25 C 709.25098 682.69934 710.41228 683.51819 711.40625 684.375 C 707.82741 689.48041 705.07842 706.60298 702.75 714.40625 C 693.1285 743.88925 682.5471 773.0385 672.3125 802.3125 C 663.8914 826.0725 655.3888 849.807 647.5 873.75 C 648.6838 874.338 635.49135 905.94275 642.21875 891.09375 C 648.17308 883.23503 646.08495 885.30269 651.3125 881.03125 C 639.34528 894.32466 682.83564 965.42013 698.46875 956 C 712.21795 946.068 705.845 951.8715 717.375 938.4375 C 723.8984 926.4505 728.0144 913.8915 731.4375 900.6875 C 738.7164 877.3025 746.836 854.20475 754.9375 831.09375 C 765.4846 800.65775 776.42705 770.3565 786.65625 739.8125 C 795.22315 711.8115 803.38005 683.10825 794.59375 654.03125 C 785.66435 633.33025 772.9081 617.17975 752.9375 606.09375 C 734.8792 595.58975 715.85045 586.9715 695.34375 582.4375 C 665.26935 575.9065 634.69905 573.21625 603.90625 574.90625 C 578.03431 576.00801 552.16786 577.29046 526.34375 579.21875 C 536.95059 560.23689 547.96371 541.48814 560.25 523.53125 C 562.47001 520.25407 560.95004 515.47136 557.09375 510.09375 C 572.97644 509.75405 588.86577 509.80341 604.75 510.03125 C 618.2688 510.21625 631.72865 511.20675 645.15625 512.71875 C 653.62587 513.53446 660.00729 495.89222 662.71875 476.1875 C 671.57863 482.48336 679.49885 485.40775 683.53125 481.71875 C 696.78145 468.45075 706.47725 453.4165 711.53125 435.1875 C 717.91705 414.1675 722.27955 392.6485 726.90625 371.1875 C 733.77945 341.7015 741.542 312.46775 748.875 283.09375 C 754.4679 259.47975 761.8908 235.61775 756.9375 211.21875 C 745.5533 185.88075 736.80175 176.51 710.28125 169.625 C 696.14875 165.722 681.9016 162.20175 667.375 160.09375 C 644.60785 156.87812 621.69993 155.29795 598.71875 155.3125 z M 597.28125 242.84375 C 616.43097 242.96149 635.50792 244.2905 654.4375 247.28125 C 658.16735 247.89941 661.87649 248.64005 665.5625 249.46875 C 664.30626 256.5324 663.33337 263.06121 663.25 263.4375 C 656.3137 292.7215 648.6749 321.82175 641.6875 351.09375 C 637.1498 370.34275 633.5028 389.832 627.25 408.625 C 628.005 411.192 619.72745 422.65675 623.71875 416.34375 C 622.151 417.7781 621.51379 419.90799 621.65625 422.5 C 616.27876 422.30498 610.88714 422.15625 605.5 422.15625 C 574.8986 422.05625 544.2696 422.32875 513.75 424.84375 C 507.44604 425.36247 501.14539 425.90208 494.84375 426.46875 C 497.14864 411.44923 499.52302 396.43428 501.96875 381.4375 C 513.36517 380.18367 524.78026 379.08875 536.21875 378.21875 C 556.05275 376.85775 575.88435 378.05725 595.65625 379.65625 C 595.91662 379.70202 596.19866 379.78571 596.46875 379.84375 C 594.70729 379.24347 592.4316 378.44788 589.53125 377.40625 C 607.1398 380.52219 648.54124 309.61054 632.96875 300.34375 C 622.47725 295.79475 613.29885 291.55875 601.71875 291.46875 C 577.53125 290.06975 553.28655 289.1775 529.09375 291.1875 C 525.18519 291.52761 521.27948 291.90499 517.375 292.28125 C 520.25347 275.94104 523.14869 259.62282 526.1875 243.3125 C 547.14439 242.94646 568.10617 242.85137 589.0625 242.875 C 591.80046 242.84425 594.54558 242.82693 597.28125 242.84375 z M 596.46875 379.84375 C 605.81571 383.02905 600.87956 380.79161 596.46875 379.84375 z M 436.5625 248.375 C 433.50464 267.00344 430.36098 285.60934 427.1875 304.21875 C 420.28913 305.37934 413.38138 306.57256 406.5 307.84375 C 371.1852 314.23475 335.9347 320.97325 301.25 330.28125 C 296.58849 331.63458 294.80174 338.35486 295 347.4375 C 293.26808 341.27894 291.63526 335.10855 290.15625 328.875 C 286.90342 314.59682 284.04444 300.23442 281.40625 285.84375 C 282.8759 286.23012 284.2603 286.17839 285.5625 285.625 C 311.8934 273.623 339.94685 266.31025 368.03125 259.78125 C 390.65278 254.54567 413.53867 250.93495 436.5625 248.375 z M 411.625 395.28125 C 409.57761 407.51913 407.5458 419.75642 405.53125 432 C 405.24386 433.7489 404.96974 435.50003 404.6875 437.25 C 400.61451 437.89635 396.53358 438.58085 392.46875 439.28125 C 369.04979 443.68982 345.6786 448.5833 322.78125 455.1875 C 325.70735 449.83066 327.00017 445.14374 325.75 441.90625 C 327.72068 445.08628 329.68557 448.25828 331.65625 451.4375 C 326.63115 439.8515 322.8543 427.19725 317.875 415.40625 C 317.27826 413.80241 316.6872 412.19905 316.09375 410.59375 C 319.38321 414.27715 322.7592 416.1324 325.90625 415.21875 C 353.95623 406.48656 382.77635 400.68222 411.625 395.28125 z M 711.625 684.5625 C 714.5991 687.21635 715.79393 690.09528 711.625 684.5625 z "
     id="path10253" />
</svg>
