<?xml version="1.0" encoding="utf-8" ?>

<!DOCTYPE svg PUBLIC "-//W3C//DTD SVG 1.1//EN" 
  "http://www.w3.org/Graphics/SVG/1.1/DTD/svg11.dtd">
<svg 
    xmlns="http://www.w3.org/2000/svg"
    xmlns:xlink="http://www.w3.org/1999/xlink"
    xmlns:sodipodi="http://sodipodi.sourceforge.net/DTD/sodipodi-0.dtd"
    xmlns:inkscape="http://www.inkscape.org/namespaces/inkscape"
    width="1024" height="1024" id="U75DB">
<path d="m 9706.1446,49227.011 c 18.9394,23.329 35.7677,48.258 52.6618,73.077 2.5647,3.703 5.1294,7.405 7.6941,11.107 10.5258,15.334 -61.7589,64.954 -72.2848,49.62 l 0,0 c -2.6354,-3.873 -5.2708,-7.746 -7.9062,-11.619 -14.619,-21.693 -29.12,-43.614 -46.2913,-63.406 -12.4689,-14.027 53.6575,-72.806 66.1264,-58.779 z" id="path12350" inkscape:connector-curvature="0" style="fill:#782121;fill-opacity:1;fill-rule:nonzero;stroke:#f9f9f9;stroke-width:0.1;stroke-miterlimit:4;stroke-dasharray:none" transform="translate(-9216, -49152)"/><path d="m 9504.0974,49405.423 c 49.4338,-10.063 99.2034,-17.999 149.2296,-24.424 62.9686,-7.636 126.3358,-10.943 189.7109,-12.523 42.9706,-1.153 86.0426,-0.06 128.3968,7.619 18.2678,3.565 1.4606,89.68 -16.8072,86.115 l 0,0 c -35.9962,-7.762 -73.0294,-7.94 -109.7086,-7.592 -60.2957,1.12 -120.5954,4.088 -180.4805,11.524 -47.8069,6.344 -95.4723,13.938 -142.2968,25.675 -18.3268,3.827 -36.3711,-82.566 -18.0442,-86.394 z" id="path12356" inkscape:connector-curvature="0" style="fill:#782121;fill-opacity:1;fill-rule:nonzero;stroke:#f9f9f9;stroke-width:0.1;stroke-miterlimit:4;stroke-dasharray:none" transform="translate(-9216, -49152)"/><path d="m 9560.7276,49478.859 c -23.4626,33.933 -38.4878,72.953 -53.9926,110.936 -26.1047,65.201 -47.2171,132.207 -65.4386,199.987 -13.361,50.913 -22.44,102.79 -30.629,154.741 -0.9297,6.404 -1.8593,12.808 -2.7889,19.211 -2.7725,18.256 -88.8284,5.186 -86.0559,-13.069 l 0,0 c 1.0606,-6.701 2.1211,-13.401 3.1816,-20.101 9.2138,-54.814 19.1523,-109.579 33.6666,-163.284 19.5334,-70.86 41.8904,-140.932 68.5641,-209.458 18.0586,-45.538 35.903,-91.869 63.2499,-132.816 11.4239,-14.901 81.6668,38.952 70.2428,53.853 z" id="path12358" inkscape:connector-curvature="0" style="fill:#782121;fill-opacity:1;fill-rule:nonzero;stroke:#f9f9f9;stroke-width:0.1;stroke-miterlimit:4;stroke-dasharray:none" transform="translate(-9216, -49152)"/><path d="m 9299.7346,49553.18 c 14.3959,26.729 31.7829,51.69 48.9055,76.709 3.7454,5.548 7.4908,11.095 11.2362,16.642 10.3333,15.307 -61.822,64.018 -72.1552,48.712 l 0,0 c -3.6139,-5.354 -7.2278,-10.708 -10.8417,-16.061 -18.9897,-27.548 -38.0631,-55.081 -55.025,-83.946 -8.9213,-16.521 68.9589,-58.576 77.8802,-42.056 z" id="path12360" inkscape:connector-curvature="0" style="fill:#782121;fill-opacity:1;fill-rule:nonzero;stroke:#f9f9f9;stroke-width:0.1;stroke-miterlimit:4;stroke-dasharray:none" transform="translate(-9216, -49152)"/><path d="m 9217.8107,49811.59 c 34.6008,-21.231 69.8937,-41.212 105.8095,-60.122 31.747,-15.997 15.7977,-8.099 47.8485,-23.692 16.4761,-8.025 54.3068,69.644 37.8307,77.669 l 0,0 c -30.4163,14.833 -15.3416,7.337 -45.2278,22.481 -34.0283,18.096 -67.5957,37.082 -99.5096,58.749 -15.928,9.918 -62.6793,-65.168 -46.7513,-75.085 z" id="path12362" inkscape:connector-curvature="0" style="fill:#782121;fill-opacity:1;fill-rule:nonzero;stroke:#f9f9f9;stroke-width:0.1;stroke-miterlimit:4;stroke-dasharray:none" transform="translate(-9216, -49152)"/><path d="m 9651.471,49472.366 c 26.8948,4.361 54.22,4.277 81.3815,4.895 29.39,0.419 58.6622,3.115 87.7515,7.186 20.5349,3.58 46.239,7.959 57.1607,28.871 4.6594,8.921 4.936,19.515 7.404,29.272 -5.2691,31.983 -28.0926,53.845 -49.2377,76.599 -15.7735,16.612 -31.5866,33.184 -47.8514,49.317 -13.3081,13.062 -74.8863,-49.673 -61.5782,-62.735 l 0,0 c 15.407,-14.946 30.301,-30.399 45.0119,-46.029 5.234,-5.715 11.3474,-12.287 16.4387,-18.219 5.0969,-5.938 13.8265,-23.108 8.5108,-0.652 2.516,7.279 3.4868,15.294 7.5481,21.839 8.869,14.292 29.4839,13.72 3.672,8.821 -25.4095,-4.024 -51.0338,-6.575 -76.7781,-6.921 -30.8275,-0.674 -61.7261,-0.89 -92.3752,-4.699 -18.571,-2.745 -5.6296,-90.29 12.9414,-87.545 z" id="path12364" inkscape:connector-curvature="0" style="fill:#782121;fill-opacity:1;fill-rule:nonzero;stroke:#f9f9f9;stroke-width:0.1;stroke-miterlimit:4;stroke-dasharray:none" transform="translate(-9216, -49152)"/><path d="m 9664.9989,49598.236 c 32.5718,9.683 63.9321,22.528 94.6445,36.966 25.8457,11.829 49.6053,26.564 70.2749,46.031 13.1749,13.237 -49.2245,75.344 -62.3993,62.107 l 0,0 c -10.9909,-14.265 -30.2317,-20.295 -45.1464,-29.23 -26.4848,-12.578 -53.5911,-23.814 -82.1032,-30.991 -18.0063,-5.246 6.7232,-90.129 24.7295,-84.883 z" id="path12366" inkscape:connector-curvature="0" style="fill:#782121;fill-opacity:1;fill-rule:nonzero;stroke:#f9f9f9;stroke-width:0.1;stroke-miterlimit:4;stroke-dasharray:none" transform="translate(-9216, -49152)"/><path d="m 9589.0315,49760.448 c 4.0981,39.558 8.7256,79.058 13.7856,118.503 5.6997,42.024 12.9584,83.86 22.8196,125.114 3.9983,13.162 1.5778,7.961 6.0118,16.125 7.2653,17.197 -73.801,51.446 -81.0664,34.249 l 0,0 c -7.7214,-20.061 -4.3545,-9.782 -10.0522,-30.851 -9.7524,-44.132 -17.4358,-88.699 -23.5324,-133.482 -5.1945,-39.458 -9.7962,-78.998 -15.649,-118.365 -2.3955,-18.601 85.2875,-29.893 87.683,-11.293 z" id="path12368" inkscape:connector-curvature="0" style="fill:#782121;fill-opacity:1;fill-rule:nonzero;stroke:#f9f9f9;stroke-width:0.1;stroke-miterlimit:4;stroke-dasharray:none" transform="translate(-9216, -49152)"/><path d="m 9583.8866,49755.121 c 25.3957,-30.721 62.4432,-44.219 99.4404,-55.244 43.4616,-11.686 88.3425,-16.002 133.0974,-19.031 36.7956,-2.423 73.6824,-1.938 110.0555,4.291 42.8309,10.259 61.0943,31.405 75.2551,71.898 10.404,44.71 3.21,90.558 -3.2683,135.276 -7.0141,43.051 -14.2669,86.063 -21.3225,129.107 -2.574,16.386 -5.1069,32.753 -8.8035,48.926 -4.5391,18.174 -90.2138,-3.223 -85.6747,-21.397 l 0,0 c 3.9954,-13.79 5.6789,-28.098 8.4381,-42.161 7.4393,-42.211 14.8512,-84.43 21.5764,-126.761 4.4973,-31.803 9.9583,-64.337 5.3269,-96.437 -1.6309,-8.895 3.1093,-8.429 -7.482,-12.088 -29.0277,-6.028 -58.8789,-5.304 -88.3522,-3.937 -38.3412,2.482 -76.8129,6.022 -114.0735,15.898 -18.2881,5.379 -38.4048,10.51 -52.7218,23.873 -11.076,15.165 -82.5673,-37.048 -71.4913,-52.213 z" id="path12370" inkscape:connector-curvature="0" style="fill:#782121;fill-opacity:1;fill-rule:nonzero;stroke:#f9f9f9;stroke-width:0.1;stroke-miterlimit:4;stroke-dasharray:none" transform="translate(-9216, -49152)"/><path d="m 9658.9957,49844.266 c 35.7129,-12.622 73.4186,-16.087 110.9884,-17.528 31.4503,-0.41 62.8461,1.826 94.0944,5.166 18.4697,2.125 8.4528,89.192 -10.0169,87.067 l 0,0 c -26.8213,-3.342 -53.8069,-5.502 -80.8594,-5.273 -27.873,0.985 -56.1657,2.96 -82.4292,13.189 -17.5266,6.741 -49.3039,-75.88 -31.7773,-82.621 z" id="path12372" inkscape:connector-curvature="0" style="fill:#782121;fill-opacity:1;fill-rule:nonzero;stroke:#f9f9f9;stroke-width:0.1;stroke-miterlimit:4;stroke-dasharray:none" transform="translate(-9216, -49152)"/><path d="m 9690.8098,49917.816 c 31.1064,13.644 64.8133,20.452 97.8731,27.626 33.6841,6.725 67.8008,12.949 102.2565,10.892 2.0506,-0.934 12.4754,-0.689 13.5457,-4.535 16.7874,-8.262 55.7337,70.875 38.9463,79.137 l 0,0 c -15.8658,6.837 -31.4073,12.429 -48.9882,12.868 -41.876,1.155 -83.2624,-4.669 -124.161,-13.546 -41.6825,-9.042 -84.045,-17.81 -123.04,-35.593 -16.302,-9.242 27.2656,-86.091 43.5676,-76.849 z" id="path12374" inkscape:connector-curvature="0" style="fill:#782121;fill-opacity:1;fill-rule:nonzero;stroke:#f9f9f9;stroke-width:0.1;stroke-miterlimit:4;stroke-dasharray:none" transform="translate(-9216, -49152)"/><path d="m 9848.3462,49755.113 c -11.9716,37.98 -14.5812,78.304 -17.9174,117.758 -5.2568,66.985 -3.601,134.13 2.9407,200.926 4.3147,33.436 1.9905,17.373 6.8668,48.202 2.6977,18.184 -83.0192,30.901 -85.7169,12.718 l 0,0 c -4.7412,-33.993 -2.4806,-16.318 -6.6853,-53.037 -6.2303,-71.707 -7.8779,-143.708 -2.851,-215.578 3.5551,-47.879 6.607,-96.539 20.694,-142.721 6.7313,-17.536 89.4004,14.195 82.6691,31.732 z" id="path12376" inkscape:connector-curvature="0" style="fill:#782121;fill-opacity:1;fill-rule:nonzero;stroke:#f9f9f9;stroke-width:0.1;stroke-miterlimit:4;stroke-dasharray:none" transform="translate(-9216, -49152)"/></svg>