<?xml version="1.0" encoding="UTF-8" standalone="no"?>
<svg
   xmlns:dc="http://purl.org/dc/elements/1.1/"
   xmlns:cc="http://creativecommons.org/ns#"
   xmlns:rdf="http://www.w3.org/1999/02/22-rdf-syntax-ns#"
   xmlns:svg="http://www.w3.org/2000/svg"
   xmlns="http://www.w3.org/2000/svg"
   xmlns:sodipodi="http://sodipodi.sourceforge.net/DTD/sodipodi-0.dtd"
   xmlns:inkscape="http://www.inkscape.org/namespaces/inkscape"
   width="1024"
   height="1024"
   id="U753B"
   version="1.1"
   inkscape:version="0.48.0 r9654"
   sodipodi:docname="U+753B.svg">
  <metadata
     id="metadata15">
    <rdf:RDF>
      <cc:Work
         rdf:about="">
        <dc:format>image/svg+xml</dc:format>
        <dc:type
           rdf:resource="http://purl.org/dc/dcmitype/StillImage" />
      </cc:Work>
    </rdf:RDF>
  </metadata>
  <defs
     id="defs13" />
  <sodipodi:namedview
     pagecolor="#ffffff"
     bordercolor="#666666"
     borderopacity="1"
     objecttolerance="10"
     gridtolerance="10"
     guidetolerance="10"
     inkscape:pageopacity="0"
     inkscape:pageshadow="2"
     inkscape:window-width="640"
     inkscape:window-height="480"
     id="namedview11"
     showgrid="false"
     inkscape:zoom="0.27441406"
     inkscape:cx="512"
     inkscape:cy="512"
     inkscape:window-x="0"
     inkscape:window-y="25"
     inkscape:window-maximized="0"
     inkscape:current-layer="U753B" />
  <path
     style="fill:#550000;fill-opacity:1;fill-rule:nonzero;stroke:#f9f9f9;stroke-width:0.1;stroke-miterlimit:4;stroke-dasharray:none"
     d="M 336.40625 245.5 C 299.65724 245.6931 262.93067 246.82112 226.1875 247.15625 C 207.2306 246.66625 204.9181 336.04125 223.875 336.53125 C 266.6445 334.56425 309.3627 332.70225 352.1875 332.53125 C 412.7064 332.47825 472.8802 338.915 532.75 347.125 C 575.5119 353.509 618.3052 359.80275 661.0625 366.21875 C 666.7213 368.28975 674.35075 367.04925 679.78125 370.15625 C 698.06195 375.25425 722.0932 289.06675 703.8125 283.96875 C 693.7264 281.54875 683.5885 279.6165 673.25 278.5625 C 630.2302 273.0325 587.27335 267.1295 544.34375 260.9375 C 480.58535 252.5285 416.54495 245.856 352.15625 245.5 C 346.90495 245.48488 341.65611 245.47241 336.40625 245.5 z M 542.71875 394 C 535.98982 394.00169 529.28983 394.1615 522.75 394.25 C 475.8054 397.079 429.2087 403.764 383.3125 414.125 C 344.3486 423.005 305.04315 431.585 267.46875 445.375 C 259.14636 449.28294 263.82537 470.31639 272.78125 490.03125 C 248.64757 487.26327 221.54196 489.97894 220.78125 500.34375 C 220.68475 538.26975 226.6127 575.9405 231.6875 613.4375 C 238.2153 658.5025 242.9532 703.7775 247.625 749.0625 C 249.6665 767.5535 248.5923 758.90825 250.75 775.03125 C 252.66283 787.29179 291.31535 785.57639 316.75 777.65625 C 319.81777 786.65995 323.9945 792.6384 329 792.25 C 362.1834 788.6 395.4559 785.9575 428.75 783.5625 C 455.8414 781.9175 482.9721 779.98475 510.125 779.84375 C 511.3782 779.90775 512.6219 779.97125 513.875 780.03125 C 515.30863 780.04409 516.64949 779.55804 517.875 778.625 C 517.29699 783.28598 517.39155 783.96088 517.21875 780.0625 C 512.27875 798.3965 598.685 821.67775 603.625 803.34375 C 606.6925 788.28875 605.70155 795.552 606.84375 781.5 C 608.33595 746.813 609.41525 712.05275 616.09375 677.84375 C 624.50295 628.20475 634.99125 578.89775 641.59375 528.96875 C 645.04455 488.51675 647.07385 446.9705 616.46875 415.8125 C 611.42055 412.2945 606.74515 408.22925 601.34375 405.28125 C 583.4507 395.51625 562.90555 393.99494 542.71875 394 z M 548.75 482.03125 C 550.70297 482.00071 552.63576 482.06728 554.5 482.25 C 553.06315 485.44674 555.31269 489.59318 555.34375 493.21875 C 555.45345 506.14175 554.98345 507.75875 553.84375 521.59375 C 547.76335 569.06875 538.047 615.973 529.9375 663.125 C 527.42296 675.72163 525.57359 688.40971 524.125 701.125 C 521.8618 694.70741 518.73275 690.59874 514.6875 690.5625 C 512.4395 690.6025 510.1854 690.6575 507.9375 690.6875 C 493.4284 691.27261 478.92915 692.10558 464.4375 693.03125 C 462.63127 668.73313 461.63951 644.3872 461.78125 620.03125 C 477.50897 617.56058 493.28602 615.52109 509.1875 614.96875 C 528.0803 613.69175 522.0803 524.62925 503.1875 525.90625 C 490.83938 527.00784 478.51644 528.50737 466.25 530.28125 C 467.62279 515.77949 469.55143 501.34315 472.4375 487.0625 C 490.68341 484.70648 509.03062 483.06832 527.4375 482.25 C 533.42728 483.39356 541.25932 482.14839 548.75 482.03125 z M 556.375 482.5 C 559.35493 482.96617 562.1436 483.84323 564.53125 485.4375 C 565.73685 486.2425 561.5807 485.4635 560.1875 485.0625 C 560.02055 488.522 557.97085 484.51549 556.375 482.5 z M 380.40625 504.78125 C 378.93874 518.68125 377.92195 532.63192 377.09375 546.59375 C 355.72923 551.29634 334.49411 556.57322 313.625 563.09375 C 312.13552 550.26383 310.88161 537.41127 310.3125 524.53125 C 333.19437 516.45645 356.77463 510.39478 380.40625 504.78125 z M 97.71875 581.40625 C 83.699553 581.49888 72.655369 584.29128 71.75 590.75 C 67.9991 623.063 67.5749 655.55125 68.25 688.03125 C 69.561 729.80925 74.2321 771.32775 82.8125 812.21875 C 93.0229 857.35875 111.1342 886.932 146.4375 916.5 C 190.8917 947.136 244.28625 951.60325 296.59375 954.28125 C 357.81285 956.55925 418.7466 949.639 479.3125 941.625 C 527.1732 934.956 574.83925 926.99725 622.65625 920.03125 C 648.49235 916.61525 674.39965 912.395 700.53125 912.75 C 707.91041 913.56334 715.22635 914.48835 722.5625 915.28125 C 723.70414 928.4969 725.07765 941.68632 727.25 954.78125 C 730.8939 973.39825 818.67515 956.21175 815.03125 937.59375 C 810.23605 919.28775 810.36585 900.032 807.90625 881.375 C 803.68825 829.41 800.71375 777.364 799.09375 725.25 C 797.38675 683.268 795.23035 641.30975 793.21875 599.34375 C 792.20775 580.42475 703.02025 585.17475 704.03125 604.09375 C 707.76905 645.67875 710.0279 687.3635 712 729.0625 C 713.16678 760.95657 714.65206 792.82588 716.4375 824.6875 C 711.06047 823.9883 705.67912 823.52799 700.25 823.8125 C 669.7961 824.2225 639.6253 828.3765 609.5625 833.0625 C 562.2768 840.3865 515.14425 848.52375 467.78125 855.34375 C 412.56115 862.80875 356.9673 869.31975 301.125 867.09375 C 267.4761 865.30075 232.03755 864.0945 201.78125 847.5625 C 183.30485 834.2425 173.9413 815.9055 169 793.6875 C 161.1685 758.4125 157.4796 722.45075 156.3125 686.34375 C 155.8253 658.56775 156.0748 630.68125 160.3125 603.15625 C 162.041 590.82662 124.48267 581.2294 97.71875 581.40625 z M 374.25 637.375 C 374.45446 657.9959 375.29778 678.62595 376.5625 699.21875 C 361.3334 700.35974 346.1105 701.45135 330.875 702.5 C 328.96006 686.02178 327.07889 669.53212 325.09375 653.0625 C 341.09605 646.65833 357.5745 641.63787 374.25 637.375 z "
     id="path8029" />
</svg>
