<?xml version="1.0" encoding="UTF-8" standalone="no"?>
<svg
   xmlns:dc="http://purl.org/dc/elements/1.1/"
   xmlns:cc="http://creativecommons.org/ns#"
   xmlns:rdf="http://www.w3.org/1999/02/22-rdf-syntax-ns#"
   xmlns:svg="http://www.w3.org/2000/svg"
   xmlns="http://www.w3.org/2000/svg"
   xmlns:sodipodi="http://sodipodi.sourceforge.net/DTD/sodipodi-0.dtd"
   xmlns:inkscape="http://www.inkscape.org/namespaces/inkscape"
   width="1024"
   height="1024"
   id="U767E"
   version="1.1"
   inkscape:version="0.48.0 r9654"
   sodipodi:docname="U+767E.svg">
  <metadata
     id="metadata13">
    <rdf:RDF>
      <cc:Work
         rdf:about="">
        <dc:format>image/svg+xml</dc:format>
        <dc:type
           rdf:resource="http://purl.org/dc/dcmitype/StillImage" />
      </cc:Work>
    </rdf:RDF>
  </metadata>
  <defs
     id="defs11" />
  <sodipodi:namedview
     pagecolor="#ffffff"
     bordercolor="#666666"
     borderopacity="1"
     objecttolerance="10"
     gridtolerance="10"
     guidetolerance="10"
     inkscape:pageopacity="0"
     inkscape:pageshadow="2"
     inkscape:window-width="640"
     inkscape:window-height="480"
     id="namedview9"
     showgrid="false"
     inkscape:zoom="0.27441406"
     inkscape:cx="512"
     inkscape:cy="512"
     inkscape:window-x="0"
     inkscape:window-y="25"
     inkscape:window-maximized="0"
     inkscape:current-layer="U767E" />
  <path
     style="fill:#aa0000;fill-opacity:1;fill-rule:nonzero;stroke:#f9f9f9;stroke-width:0.1;stroke-miterlimit:4;stroke-dasharray:none"
     d="M 683.5625 125.625 C 622.01782 125.82318 560.71717 134.72301 500.125 145.65625 C 423.14237 160.42835 346.19327 176.38695 271.59375 200.84375 C 254.24753 207.12145 283.84128 288.87145 301.1875 282.59375 C 340.63016 267.86076 381.1671 256.64961 422.125 247.09375 C 404.91183 278.81212 391.48625 312.56721 380.21875 346.90625 C 368.42381 384.76736 363.7813 424.25939 355.46875 462.90625 C 350.91131 467.00952 346.59029 471.37671 342.5625 476.03125 C 324.36878 470.16434 306.66016 468.35416 303.78125 476.03125 C 281.47074 541.45855 280.48598 610.14075 284.0625 678.34375 C 288.39186 732.22225 295.19633 786.15505 312.25 837.59375 C 325.38 863.96745 317.41684 851.5379 336.25 874.8125 C 348.85574 888.3086 412.48074 828.8711 399.875 815.375 C 395.8007 817.2337 398.63193 816.55865 393.75 809.09375 C 377.38954 765.97305 373.91546 719.0909 368.875 673.625 C 366.6961 636.65844 365.57035 599.31968 370.8125 562.84375 C 384.39894 562.47687 395.05616 559.56467 395.8125 553.28125 C 405.58948 520.17665 438.8847 507.1164 468.5 496.25 C 521.53219 483.0769 576.12656 477.4062 629.96875 468.25 C 642.86844 466.29752 655.69877 463.72477 668.5625 461.4375 C 664.8308 473.81426 661.0405 486.15416 657.5625 498.625 C 654.01155 512.51379 650.85118 526.49923 648 540.53125 C 632.17766 532.5313 639.1929 535.43443 611.28125 529.59375 C 601.96492 529.33005 592.65404 528.35455 583.34375 528.78125 C 527.91106 531.32135 474.60166 552.2822 427.03125 579.625 C 411.94263 590.1332 461.50514 661.2581 476.59375 650.75 C 515.43284 626.7272 560.60518 610.8087 606.625 615.5 C 615.37315 618.903 613.95696 615.8219 615.15625 621 C 620.32087 623.97906 628.37394 618.07473 636.34375 608.46875 C 632.32073 636.20804 629.00869 664.05909 625.8125 691.875 C 624.3815 710.73921 622.77266 729.72092 622.5625 748.6875 C 615.96708 749.63384 609.38453 750.61986 602.8125 751.59375 C 542.36236 760.23635 481.5029 769.6139 420.25 767.5625 C 401.8644 766.3367 396.08315 853.0243 414.46875 854.25 C 481.62225 854.3206 548.22124 844.7048 614.59375 835.5625 C 632.8941 834.58912 687.78996 823.13876 712.53125 829.09375 C 711.80256 828.41482 710.79969 827.50981 709.375 826.3125 C 725.97484 833.38186 788.76113 788.65316 778.84375 774.3125 C 758.91736 753.2828 769.98664 761.42095 746.28125 749.03125 C 733.64325 745.75507 720.91748 743.90678 708.15625 743.09375 C 708.30621 729.16929 709.33542 715.24598 710.1875 701.40625 C 716.85162 641.17075 724.53874 580.7756 740 522.0625 C 747.04167 497.7585 772.17862 437.14995 764.8125 413.53125 C 761.18631 401.90425 752.2526 392.6831 745.96875 382.25 C 737.29482 378.4907 729.03731 373.53055 719.9375 370.96875 C 692.73983 363.31185 643.48092 382.45815 615.625 384.21875 C 561.25831 393.54878 505.97435 398.82856 452.5 412.5 C 455.1747 399.33953 458.15119 386.23535 461.78125 373.28125 C 474.85815 332.14215 491.55328 291.652 517.71875 256.9375 C 522.1616 251.69246 515.74064 240.59721 505.3125 229.46875 C 508.88384 228.76009 512.46096 228.04774 516.03125 227.34375 C 582.46238 216.04203 650.30017 205.0833 717.75 212.78125 C 708.96955 201.1237 698.58763 189.16658 696.21875 174.8125 C 694.49573 164.37198 697.57913 158.15326 701.125 154.4375 C 698.03303 166.68004 707.78825 194.90747 719.21875 213 C 722.0766 213.49877 727.73486 212.95899 726.34375 215.03125 C 725.31556 216.5629 722.78342 216.27617 720.71875 215.28125 C 727.25948 225.00292 734.15733 231.12891 739.40625 228.875 C 758.04316 219.9147 782.78013 212.28685 783.59375 183.96875 C 784.83645 140.71625 756.88417 131.36305 726.1875 126.96875 C 711.96296 126.0062 697.76512 125.57927 683.5625 125.625 z M 720.71875 215.28125 C 720.22104 214.54149 719.71124 213.77953 719.21875 213 C 719.01624 212.96466 718.79544 212.92222 718.625 212.875 C 718.33448 212.84115 718.04053 212.81441 717.75 212.78125 C 717.91315 212.99786 718.08801 213.22109 718.25 213.4375 C 718.79243 214.16216 719.70565 214.79306 720.71875 215.28125 z M 712.53125 829.09375 C 715.27803 831.65295 714.49064 831.20722 720.375 832.25 C 718.34376 830.8762 715.67082 829.84941 712.53125 829.09375 z M 706.25 456.65625 C 707.25141 456.64827 708.28162 456.66726 709.28125 456.71875 C 709.9998 456.75575 711.82943 457.92775 711.125 457.78125 C 709.48419 457.43998 707.8755 457.064 706.25 456.65625 z M 691.9375 457.84375 C 681.74079 468.72442 678.59167 466.54111 678.125 459.8125 C 682.71456 459.07263 687.32316 458.40473 691.9375 457.84375 z "
     id="path19607" />
</svg>
