<?xml version="1.0" encoding="utf-8" ?>

<!DOCTYPE svg PUBLIC "-//W3C//DTD SVG 1.1//EN" 
  "http://www.w3.org/Graphics/SVG/1.1/DTD/svg11.dtd">
<svg 
    xmlns="http://www.w3.org/2000/svg"
    xmlns:xlink="http://www.w3.org/1999/xlink"
    xmlns:sodipodi="http://sodipodi.sourceforge.net/DTD/sodipodi-0.dtd"
    xmlns:inkscape="http://www.inkscape.org/namespaces/inkscape"
    width="1024" height="1024" id="U76F8">
<path d="m 11328.084,53749.291 c 42.286,-3.465 84.619,-5.908 127.011,-7.614 53.8,-1.708 107.604,-3.27 161.287,-7.316 13.781,-1.068 27.389,-2.865 40.699,-6.557 18.151,-4.211 38.001,81.354 19.85,85.565 l 0,0 c -18.028,3.753 -36.135,6.62 -54.577,7.501 -54.46,3.435 -108.998,4.961 -163.524,6.968 -41.207,1.919 -82.397,4.398 -123.348,9.558 -18.69,1.57 -26.088,-86.536 -7.398,-88.105 z" id="path13442" inkscape:connector-curvature="0" style="fill:#501616;fill-opacity:1;fill-rule:nonzero;stroke:#f9f9f9;stroke-width:0.1;stroke-miterlimit:4;stroke-dasharray:none" transform="translate(-11264, -53248)"/><path d="m 11573.717,53588.126 c -0.389,55.763 -2.792,111.452 -6.07,167.111 -5.88,87.154 -14.768,174.066 -22.621,261.056 -4.471,47.13 -6.997,94.429 -12.252,141.482 -2.313,18.345 -88.792,7.443 -86.479,-10.902 l 0,0 c 6.558,-45.956 9.258,-92.35 14.149,-138.496 8.314,-85.82 17.384,-171.607 22.401,-257.702 2.615,-53.905 4.608,-107.893 2.441,-161.858 -0.147,-18.759 88.284,-19.45 88.431,-0.691 z" id="path13444" inkscape:connector-curvature="0" style="fill:#501616;fill-opacity:1;fill-rule:nonzero;stroke:#f9f9f9;stroke-width:0.1;stroke-miterlimit:4;stroke-dasharray:none" transform="translate(-11264, -53248)"/><path d="m 11477.233,53961.996 c -25.719,22.561 -49.759,46.922 -73.287,71.731 -4.185,4.633 -8.371,9.265 -12.556,13.897 -12.443,13.651 -76.792,-45.006 -64.349,-58.656 l 0,0 c 4.623,-5.03 9.245,-10.061 13.868,-15.091 25.152,-26.463 50.816,-52.419 77.177,-77.683 13.958,-12.547 73.106,53.255 59.147,65.802 z" id="path13446" inkscape:connector-curvature="0" style="fill:#501616;fill-opacity:1;fill-rule:nonzero;stroke:#f9f9f9;stroke-width:0.1;stroke-miterlimit:4;stroke-dasharray:none" transform="translate(-11264, -53248)"/><path d="m 11464.577,53942.935 c 40.538,4.978 75.183,25.925 107.699,49.229 27.098,20.703 51.032,45.237 79.806,63.689 6.869,4.33 14.175,6.968 22.037,8.602 17.958,5.065 -5.917,89.723 -23.876,84.658 l 0,0 c -16.278,-5.022 -32.142,-10.568 -46.415,-20.217 -29.359,-19.781 -55.274,-43.619 -82.584,-66.05 -19.102,-13.93 -39.32,-28.272 -63.295,-31.754 -18.701,-1.406 -12.072,-89.563 6.628,-88.157 z" id="path13448" inkscape:connector-curvature="0" style="fill:#501616;fill-opacity:1;fill-rule:nonzero;stroke:#f9f9f9;stroke-width:0.1;stroke-miterlimit:4;stroke-dasharray:none" transform="translate(-11264, -53248)"/><path d="m 11791.894,53611.012 c -3.424,51.666 -2.367,103.554 -1.965,155.302 0.795,75.243 3.06,150.462 6.461,225.63 2.31,36.61 3.17,73.381 7.159,109.869 1.585,18.629 -86.235,26.1 -87.82,7.471 l 0,0 c -2.463,-37.935 -3.446,-75.952 -5.041,-113.929 -2.617,-75.976 -4.502,-151.975 -5.865,-227.984 -0.93,-54.609 -2.465,-109.262 -1.035,-163.872 1.594,-18.69 89.7,-11.177 88.106,7.513 z" id="path13450" inkscape:connector-curvature="0" style="fill:#501616;fill-opacity:1;fill-rule:nonzero;stroke:#f9f9f9;stroke-width:0.1;stroke-miterlimit:4;stroke-dasharray:none" transform="translate(-11264, -53248)"/><path d="m 11727.243,54130.336 c 45.371,-11.887 91.804,-17.795 138.459,-21.505 51.545,-3.041 103.203,-1.258 154.738,1.012 21.386,1.266 11.206,0.58 30.544,2.011 18.547,1.597 11.021,89.027 -7.526,87.431 l 0,0 c -17.331,-1.727 -8.149,-0.893 -27.553,-2.44 -47.691,-2.892 -95.542,-4.923 -143.292,-2.081 -41.634,3.392 -83.218,8.658 -123.268,21.07 -18.137,4.688 -40.239,-80.809 -22.102,-85.498 z" id="path13458" inkscape:connector-curvature="0" style="fill:#501616;fill-opacity:1;fill-rule:nonzero;stroke:#f9f9f9;stroke-width:0.1;stroke-miterlimit:4;stroke-dasharray:none" transform="translate(-11264, -53248)"/><path d="m 11762.859,53568.708 c 26.533,-19.893 58.225,-29.387 89.982,-37.1 31.692,-7.065 63.931,-11.18 96.382,-11.767 53.436,3.437 73.561,23.181 94.522,70.903 17.555,55.731 16.463,114.817 15.568,172.591 -2.047,75.446 -9.746,150.571 -17.569,225.59 -5.952,51.445 -10.787,103.038 -17.568,154.385 -0.831,4.456 -1.661,8.913 -2.492,13.37 -3.855,18.26 -89.936,0.09 -86.081,-18.172 l 0,0 c 0.667,-2.64 1.334,-5.281 2.002,-7.921 8.186,-49.969 13.131,-100.427 19.307,-150.666 7.814,-72.345 15.227,-144.838 16.727,-217.645 0.414,-46.156 1.329,-93.316 -10.776,-138.259 -3.957,-11.854 0.921,-14.76 -12.801,-16.38 -25.828,-0.09 -51.485,3.666 -76.716,9.025 -18.993,4.533 -38.718,9.174 -54.779,20.862 -14.598,11.818 -70.306,-56.999 -55.708,-68.816 z" id="path13452" inkscape:connector-curvature="0" style="fill:#501616;fill-opacity:1;fill-rule:nonzero;stroke:#f9f9f9;stroke-width:0.1;stroke-miterlimit:4;stroke-dasharray:none" transform="translate(-11264, -53248)"/><path d="m 11732.605,53834.309 c 28.931,-26.35 66.007,-37.225 103.496,-44.644 31.104,-5.212 62.616,-5.113 93.933,-2.503 18.526,1.752 10.268,89.082 -8.258,87.331 l 0,0 c -23.001,-2.551 -46.216,-2.684 -69.153,0.817 -20.123,3.735 -41.346,7.986 -57.403,21.614 -13.283,13.282 -75.897,-49.332 -62.615,-62.615 z" id="path13454" inkscape:connector-curvature="0" style="fill:#501616;fill-opacity:1;fill-rule:nonzero;stroke:#f9f9f9;stroke-width:0.1;stroke-miterlimit:4;stroke-dasharray:none" transform="translate(-11264, -53248)"/><path d="m 11770.474,53943.157 c 35.748,-2.348 71.204,-7.872 106.672,-12.746 23.7,-3.488 47.417,-6.674 71.304,-8.496 18.578,-1.161 24.05,86.416 5.472,87.577 l 0,0 c -21.785,0.954 -43.367,3.987 -64.955,6.976 -37.775,5.186 -75.479,11.003 -113.415,14.918 -18.716,1.077 -23.794,-87.152 -5.078,-88.229 z" id="path13456" inkscape:connector-curvature="0" style="fill:#501616;fill-opacity:1;fill-rule:nonzero;stroke:#f9f9f9;stroke-width:0.1;stroke-miterlimit:4;stroke-dasharray:none" transform="translate(-11264, -53248)"/></svg>