<?xml version="1.0" encoding="UTF-8" standalone="no"?>
<svg
   xmlns:dc="http://purl.org/dc/elements/1.1/"
   xmlns:cc="http://creativecommons.org/ns#"
   xmlns:rdf="http://www.w3.org/1999/02/22-rdf-syntax-ns#"
   xmlns:svg="http://www.w3.org/2000/svg"
   xmlns="http://www.w3.org/2000/svg"
   xmlns:sodipodi="http://sodipodi.sourceforge.net/DTD/sodipodi-0.dtd"
   xmlns:inkscape="http://www.inkscape.org/namespaces/inkscape"
   width="1024"
   height="1024"
   id="U77E5"
   version="1.1"
   inkscape:version="0.48.0 r9654"
   sodipodi:docname="U+77E5.svg">
  <metadata
     id="metadata15">
    <rdf:RDF>
      <cc:Work
         rdf:about="">
        <dc:format>image/svg+xml</dc:format>
        <dc:type
           rdf:resource="http://purl.org/dc/dcmitype/StillImage" />
      </cc:Work>
    </rdf:RDF>
  </metadata>
  <defs
     id="defs13" />
  <sodipodi:namedview
     pagecolor="#ffffff"
     bordercolor="#666666"
     borderopacity="1"
     objecttolerance="10"
     gridtolerance="10"
     guidetolerance="10"
     inkscape:pageopacity="0"
     inkscape:pageshadow="2"
     inkscape:window-width="640"
     inkscape:window-height="480"
     id="namedview11"
     showgrid="false"
     inkscape:zoom="0.27441406"
     inkscape:cx="512"
     inkscape:cy="512"
     inkscape:window-x="0"
     inkscape:window-y="25"
     inkscape:window-maximized="0"
     inkscape:current-layer="U77E5" />
  <path
     style="fill:#2b1100;fill-opacity:1;fill-rule:nonzero;stroke:none"
     d="M 185.15625 225.78125 C 181.60086 225.89331 178.96278 226.94217 177.625 229.21875 C 158.3788 267.51375 145.2673 308.50975 132.625 349.34375 C 118.2189 395.95875 107.5799 443.52925 103.4375 492.15625 C 103.052 515.94425 102.7333 504.37475 104.25 526.84375 C 105.8491 545.40075 193.31785 537.8705 191.71875 519.3125 C 190.18705 506.7115 190.722 513.5545 190.4375 498.6875 C 193.0539 456.5195 202.8545 415.38425 215.125 375.03125 C 225.9116 340.65225 236.9597 305.9845 253.9375 274.0625 C 262.11273 260.15094 206.88365 225.09645 185.15625 225.78125 z M 428.40625 318.3125 C 404.18023 318.26408 379.9186 320.234 355.75 322.8125 C 318.5077 326.9355 281.421 332.13525 244.3125 337.28125 C 225.7203 339.78925 237.56405 427.4455 256.15625 424.9375 C 271.84414 422.10853 287.5592 419.52613 303.3125 417.15625 C 299.16841 437.30133 294.04254 457.26367 288.96875 477.15625 C 281.42506 505.81366 273.09189 534.25084 264.28125 562.53125 C 228.62635 563.52129 192.88174 563.86512 157.4375 568.03125 C 138.9543 571.33225 154.5168 658.4885 173 655.1875 C 193.70931 652.28833 214.58875 651.02503 235.5 650.15625 C 231.36571 662.24824 227.20294 674.34058 223 686.40625 C 204.7185 737.09725 185.74395 787.60725 163.65625 836.78125 C 162.03215 840.09025 160.40535 843.40975 158.78125 846.71875 C 150.97015 863.63775 230.72015 900.45025 238.53125 883.53125 C 240.31075 879.46925 242.0955 875.40575 243.875 871.34375 C 261.31117 829.27363 277.40851 786.64519 292.875 743.8125 C 293.15681 744.16161 293.48095 744.49997 293.84375 744.78125 C 321.64795 766.29525 351.85535 784.1445 382.59375 801.0625 C 423.56255 821.8195 464.27755 842.85125 500.40625 871.40625 C 515.50535 883.91525 527.4438 899.03825 537.1875 915.90625 C 546.9513 931.70225 621.42005 885.671 611.65625 869.875 C 595.54085 844.764 577.21165 821.54525 553.59375 802.90625 C 513.51955 772.23325 469.7314 747.772 424.6875 725.125 C 397.9828 710.192 371.5417 694.5945 348.0625 674.8125 C 339.98391 668.5492 320.24122 686.42758 306.3125 705.875 C 313.23247 685.80276 320.10641 665.69922 326.84375 645.5625 C 370.90873 642.11205 414.81438 636.91933 458.8125 632.71875 C 476.4403 631.69175 494.2073 629.83125 511.875 631.40625 C 513.1086 631.51625 514.33732 631.64663 515.5625 631.84375 C 513.32438 630.88203 511.09798 629.8739 508.875 628.875 C 519.5216 630.82508 541.4342 609.29711 554.34375 589.3125 C 556.12917 613.69242 558.35567 638.02659 561.75 662.25 C 562.4903 666.343 563.22845 670.43825 563.96875 674.53125 C 565.98931 684.69398 593.46305 683.91559 616.90625 678.09375 C 618.26657 697.45589 623.2978 714.80978 631.625 714.625 C 667.6462 712.903 703.6936 712.29725 739.75 711.90625 C 758.30271 711.63508 776.85609 711.55922 795.40625 711.90625 C 814.22013 727.03616 838.59329 739.20331 844.71875 730.875 C 852.02106 719.60214 851.28895 721.34259 853.78125 715.78125 C 853.84504 715.78041 853.90483 715.78417 853.96875 715.78125 C 854.45109 715.75946 854.3618 715.66588 853.90625 715.53125 C 853.97828 715.37045 854.10966 715.08002 854.1875 714.90625 C 872.24371 708.24574 899.34421 639.92135 883.5625 633.28125 C 882.03511 632.77863 880.51554 632.28859 879 631.8125 C 887.34514 597.96406 895.79472 563.96876 898.59375 529.125 C 899.83785 497.106 897.94525 465.362 877.90625 438.75 C 861.10295 419.303 840.6979 405.202 816.625 395.875 C 782.1102 383.068 746.1409 376.62525 709.1875 379.53125 C 677.3919 382.36125 645.9856 387.718 615.25 396.5 C 608.89683 398.39371 607.94677 410.20081 610.15625 424.4375 C 583.77156 421.06657 542.29111 427.404 543 440.28125 C 546.3299 474.77725 548.96635 509.33325 551.34375 543.90625 C 551.53315 546.89533 551.7167 549.88581 551.90625 552.875 C 548.95531 551.16809 545.96178 549.54103 542.8125 548.25 C 515.6673 537.124 478.2061 546.8825 450.1875 546.8125 C 418.59665 550.14949 387.00727 553.85306 355.375 556.84375 C 361.24084 537.64085 366.90211 518.38209 372.28125 499.03125 C 380.5238 468.42153 388.68127 437.69463 394.40625 406.5 C 419.19542 404.45822 444.26838 403.2258 468.4375 408.96875 C 486.7309 412.43975 503.07465 326.18975 484.78125 322.71875 C 466.06859 319.59938 447.24871 318.35016 428.40625 318.3125 z M 515.5625 631.84375 C 516.89577 632.41666 518.23755 632.98339 519.59375 633.5 C 519.88525 633.611 519.52025 632.706 519.21875 632.625 C 518.02295 632.3025 516.78768 632.04087 515.5625 631.84375 z M 725.4375 466.21875 C 745.94393 466.02414 765.99134 469.95062 785.03125 477.8125 C 793.01845 482.5025 804.88705 485.71775 809.46875 494.59375 C 812.42325 504.53575 811.4848 515.2285 811 525.4375 C 808.2436 555.7025 800.61265 585.218 793.28125 614.625 C 792.36937 618.00811 791.46033 621.42011 790.5625 624.8125 C 773.34691 624.70457 756.12168 624.82274 738.90625 625.0625 C 707.6398 625.32775 676.39087 625.8559 645.125 626.125 C 641.49284 596.93776 639.82752 567.51125 637.9375 538.15625 C 636.69878 518.71821 635.35726 499.2808 634.09375 479.84375 C 636.28743 481.36678 638.45407 481.9629 640.53125 481.34375 C 665.22195 473.23775 690.7753 468.62425 716.625 466.53125 C 719.57256 466.33438 722.50801 466.24655 725.4375 466.21875 z "
     id="path14819" />
</svg>
