<?xml version="1.0" encoding="UTF-8" standalone="no"?>
<svg
   xmlns:dc="http://purl.org/dc/elements/1.1/"
   xmlns:cc="http://creativecommons.org/ns#"
   xmlns:rdf="http://www.w3.org/1999/02/22-rdf-syntax-ns#"
   xmlns:svg="http://www.w3.org/2000/svg"
   xmlns="http://www.w3.org/2000/svg"
   xmlns:sodipodi="http://sodipodi.sourceforge.net/DTD/sodipodi-0.dtd"
   xmlns:inkscape="http://www.inkscape.org/namespaces/inkscape"
   width="1024"
   height="1024"
   id="U77EE"
   version="1.1"
   inkscape:version="0.48.0 r9654"
   sodipodi:docname="U+77EE.svg">
  <metadata
     id="metadata20">
    <rdf:RDF>
      <cc:Work
         rdf:about="">
        <dc:format>image/svg+xml</dc:format>
        <dc:type
           rdf:resource="http://purl.org/dc/dcmitype/StillImage" />
      </cc:Work>
    </rdf:RDF>
  </metadata>
  <defs
     id="defs18" />
  <sodipodi:namedview
     pagecolor="#ffffff"
     bordercolor="#666666"
     borderopacity="1"
     objecttolerance="10"
     gridtolerance="10"
     guidetolerance="10"
     inkscape:pageopacity="0"
     inkscape:pageshadow="2"
     inkscape:window-width="640"
     inkscape:window-height="480"
     id="namedview16"
     showgrid="false"
     inkscape:zoom="0.27441406"
     inkscape:cx="512"
     inkscape:cy="512"
     inkscape:window-x="0"
     inkscape:window-y="25"
     inkscape:window-maximized="0"
     inkscape:current-layer="U77EE" />
  <path
     style="fill:#c83737;fill-opacity:1;fill-rule:nonzero;stroke:#f9f9f9;stroke-width:0.1;stroke-miterlimit:4;stroke-dasharray:none"
     d="M 732.375 90.5 C 731.8001 90.481287 731.22302 90.566159 730.65625 90.71875 C 697.36215 101.49423 667.92535 120.89664 639.28125 140.5 C 607.70085 163.30462 578.08125 188.65205 548.59375 214.0625 C 533.55285 227.23661 518.9726 240.92388 504.5625 254.78125 C 500.2276 259.07415 502.2708 257.04349 498.4375 260.90625 C 485.3398 274.43151 549.0898 336.18151 562.1875 322.65625 C 565.0781 319.57589 563.5493 321.18558 566.8125 317.78125 C 579.5303 304.83882 592.4856 292.1457 606 280.03125 C 610.13527 276.39249 614.28314 272.77685 618.4375 269.15625 C 617.9025 286.71367 617.25998 304.29084 616.59375 321.84375 C 616.25587 329.90068 615.92772 337.94289 615.59375 346 C 573.84543 349.33633 532.15362 353.47126 490.6875 359.4375 C 459.0841 364.01619 427.6132 369.65774 395.875 373.1875 C 377.1325 374.40229 382.85125 462.74604 401.59375 461.53125 C 435.67115 456.92205 469.47575 450.4787 503.46875 445.28125 C 518.0325 443.09327 532.62819 441.16992 547.25 439.46875 C 534.10097 451.05946 521.39938 463.15941 508.78125 475.3125 C 484.54978 498.75703 462.88305 524.59534 442.03125 551.03125 C 445.02037 525.07055 440.67196 490.32033 428.90625 490.3125 C 423.60275 490.57535 418.30805 490.20577 413.03125 489.59375 C 384.22955 487.13917 355.31755 485.7044 326.40625 486.78125 C 324.96586 486.84874 323.53375 486.92756 322.09375 487 C 330.59074 459.45746 339.11972 431.91027 347.4375 404.3125 C 354.92903 378.59805 362.38812 352.88391 369.5 327.0625 C 378.79716 328.00945 388.04585 329.29295 397.28125 330.71875 C 397.73525 330.76908 399.07586 330.98214 400.46875 331.21875 C 418.43066 333.03841 443.03414 251.4122 425.375 246 C 420.0912 244.74072 414.9797 243.43113 409.5625 243 C 391.1266 240.65053 372.62035 238.61527 354.03125 238.03125 C 319.06515 237.159 284.0914 238.73957 249.3125 242.53125 C 227.34934 244.89614 205.45614 247.63075 183.5625 250.53125 C 186.50335 242.55597 189.64951 234.63955 193.0625 226.84375 C 200.4889 209.61454 119.27005 174.61454 111.84375 191.84375 C 97.87285 227.27845 87.4212 263.93431 77.125 300.5625 C 66.0431 340.68066 56.852 381.29578 50.9375 422.5 C 47.3544 446.44823 46.98005 469.86726 54.53125 492.9375 C 57.23835 497.3282 59.94915 501.70305 62.65625 506.09375 C 73.918452 520.29826 138.77715 469.76499 133.21875 452.78125 C 134.37035 454.99764 135.5047 457.22111 136.65625 459.4375 C 137.21936 462.36066 137.50354 463.57212 137.59375 463.59375 C 137.86575 462.67696 134.24063 435.75224 137.6875 434.1875 C 142.13527 398.25081 150.03388 362.88634 159.5625 327.96875 C 163.12725 336.52491 167.53381 342.05805 172.40625 341.375 C 201.04355 336.23387 229.9039 332.4652 258.8125 329.25 C 265.43649 328.52156 272.07921 327.91221 278.71875 327.375 C 273.96 345.06612 268.87203 362.69081 263.875 380.3125 C 252.74755 418.34142 241.06643 456.19851 229.59375 494.125 C 218.72522 495.14439 207.86819 496.18559 197 497.21875 C 166.0661 500.13133 135.0451 503.67451 103.9375 503.5 C 85.1662 503.33956 84.4161 591.80831 103.1875 591.96875 C 136.38256 591.05739 169.41791 587.3951 202.4375 584.0625 C 191.3113 620.99224 180.39192 657.98156 170.09375 695.15625 C 157.67995 739.55375 147.71445 784.57555 142.59375 830.40625 C 140.84575 850.43023 140.14545 870.67126 143.15625 890.59375 L 145.15625 898.65625 C 150.33143 916.05076 229.53676 893.18392 230.5 875.34375 C 230.49466 875.32418 230.50531 875.30083 230.5 875.28125 C 227.36739 863.73116 229.91508 851.00201 229.65625 839.28125 C 233.32385 798.17011 242.25615 757.81697 253.09375 718.03125 C 258.07267 699.88899 263.25561 681.80381 268.53125 663.75 C 279.69103 685.97605 289.74073 708.72144 299.4375 731.625 C 313.9628 766.3306 326.7919 801.70675 339.625 837.0625 C 348.6144 863.16288 358.5745 888.88006 370.5625 913.75 C 372.35485 914.67373 376.44277 929.5208 373.875 920.625 C 381.49917 936.783 463.58077 926.96969 461.5625 908.90625 C 459.21 896.77792 455.90905 885.43452 449.59375 874.6875 C 438.47985 852.90222 429.79195 830.0557 421.59375 807.03125 C 408.07455 770.4647 394.6791 733.84105 379.6875 697.84375 C 367.157 667.91673 353.9693 638.29094 339.8125 609.09375 C 334.85476 598.70148 302.88802 609.02611 280.78125 622.46875 C 285.4716 606.88456 290.20968 591.31488 294.96875 575.75 C 306.68383 574.94898 318.38508 574.26379 330.125 573.8125 C 355.0665 573.14689 379.98825 574.76524 404.78125 577.34375 C 410.43394 578.12525 416.1227 578.51466 421.8125 578.71875 C 416.40232 587.89509 412.38647 597.53871 409.40625 609.75 C 407.9285 627.88068 490.21403 635.26506 497.5625 618.9375 C 490.44647 644.88353 498.24384 617.73896 507.46875 609.6875 C 526.47095 584.5748 546.42835 560.12893 569.15625 538.25 C 582.68576 525.32043 596.2888 512.34284 610.78125 500.46875 C 610.45029 531.76603 611.67033 563.05502 610.6875 594.34375 C 608.8743 602.67265 611.31495 612.95517 607.90625 620.90625 C 603.63525 639.26081 690.1664 659.41705 694.4375 641.0625 C 697.4978 626.3191 697.99555 611.22769 698.59375 596.21875 C 699.01555 562.93808 697.31675 529.68742 697.34375 496.40625 C 697.34574 496.04153 697.34161 495.67721 697.34375 495.3125 C 709.52435 500.0114 721.43576 505.43121 733.1875 511.15625 C 757.3941 523.36428 780.54945 537.48271 803.21875 552.3125 C 811.15905 557.74401 819.38845 562.75315 827.15625 568.4375 C 832.06655 572.03081 833.00215 573.21405 832.84375 573.28125 C 832.80261 573.2987 832.75883 573.30441 832.71875 573.3125 C 848.58402 581.52364 910.39195 528.67091 898.8125 514.875 C 884.945 500.00653 868.17185 489.17606 850.90625 478.5625 C 825.08945 462.03781 798.8036 446.2045 771.375 432.46875 C 767.21261 430.45475 763.00687 428.50363 758.8125 426.5625 C 759.75111 426.55608 760.68638 426.53672 761.625 426.53125 C 788.3543 426.37794 815.07795 427.14646 841.71875 429.34375 C 855.21985 430.58369 868.5911 432.89963 882 434.84375 C 887.1773 435.58249 884.71185 435.22222 889.34375 435.875 C 908.02375 438.27044 919.33615 350.20794 900.65625 347.8125 C 896.37645 347.32242 898.61725 347.59792 893.84375 347.03125 C 878.65075 345.14467 863.5361 342.66867 848.25 341.59375 C 819.1638 339.63014 790.0281 338.85894 760.875 339.28125 C 741.20877 339.50881 721.52612 339.95717 701.875 340.6875 C 702.11258 335.59986 702.37685 330.52464 702.625 325.4375 C 704.54365 283.42588 706.07246 241.38451 708 199.375 C 722.41402 190.0627 737.38897 181.55806 753.6875 176.21875 C 771.25733 171.48842 750.19685 91.080101 732.375 90.5 z M 832.71875 573.3125 C 832.29058 573.0909 831.89017 572.84379 831.53125 572.53125 C 831.90676 572.97536 832.28271 573.40052 832.71875 573.3125 z M 230.5 875.28125 C 230.52849 874.62782 230.47093 873.98128 230.28125 873.34375 C 230.36171 873.99539 230.41972 874.62962 230.5 875.28125 z M 612.3125 433.15625 C 612.2853 434.03067 612.27675 434.90682 612.25 435.78125 C 611.61948 434.94631 610.98447 434.12441 610.34375 433.3125 C 610.99968 433.25854 611.65653 433.2097 612.3125 433.15625 z M 765.46875 576.0625 C 740.04297 576.27603 709.36616 583.62163 710.375 594.71875 C 712.90416 620.14304 709.04607 645.46638 704.40625 670.40625 C 690.58006 670.46257 676.75507 670.75172 662.9375 671.5 C 643.04278 672.67993 623.15819 674.03385 603.28125 675.46875 C 603.82396 665.98921 604.31274 656.49143 604.6875 647 C 605.26 628.25247 516.885 625.56496 516.3125 644.3125 C 516.33039 657.02734 515.90054 669.72027 515.21875 682.40625 C 488.75083 684.81893 462.35094 687.89324 436.25 693.03125 C 418.0013 697.46551 438.90755 783.49676 457.15625 779.0625 C 473.72492 775.26806 490.50492 772.76795 507.375 770.84375 C 506.27605 781.64888 505.3638 792.4479 505.03125 803.3125 C 505.15355 824.01813 510.89175 843.24942 529.53125 855.375 C 534.92275 858.88231 541.6396 859.74852 547.6875 861.9375 C 558.7438 862.18928 569.47145 862.15926 580.46875 863.46875 C 585.59241 864.11718 590.68747 864.87213 595.78125 865.6875 C 580.47609 880.89712 563.42963 894.22459 546.3125 907.34375 C 532.1049 918.45492 516.82315 928.06236 502.03125 938.34375 C 495.05058 943.73845 490.94396 946.19982 490.8125 946.40625 C 491.21879 946.31845 495.76834 944.02857 505.4375 940.3125 C 490.0278 949.46488 504.5785 1030.3726 522.46875 1027.3125 C 534.58905 1022.9602 544.0327 1019.072 553.3125 1010.4375 C 568.7515 999.09689 584.9741 988.84472 599.9375 976.84375 C 624.6163 957.67757 649.02715 937.98351 669.90625 914.59375 C 676.63913 907.0025 683.22284 899.27106 689.625 891.40625 C 699.56967 896.46567 709.08045 902.40589 718.25 909.0625 C 736.6495 923.20358 751.86695 940.78789 766.90625 958.3125 C 774.88885 967.60292 782.64565 977.06766 790.34375 986.59375 C 802.26935 1001.0468 870.39435 944.82807 858.46875 930.375 C 850.14405 920.48555 841.8272 910.59346 833.375 900.8125 C 813.5789 878.07901 793.2757 855.58695 768.875 837.625 C 759.3698 830.9958 749.63126 824.81273 739.625 819.1875 C 739.90816 818.68922 740.18746 818.187 740.46875 817.6875 C 750.82791 798.44235 760.31013 778.78608 768.40625 758.59375 C 770.1469 758.63064 771.88445 758.68503 773.625 758.71875 C 803.1377 759.31348 832.66045 758.32133 862.15625 757.46875 C 877.03965 757.34594 891.8341 755.75816 906.6875 755.09375 C 906.2876 755.15957 905.8999 755.2467 905.5 755.3125 C 924.3444 755.644 925.9069 666.80025 907.0625 666.46875 C 904.9839 666.50502 902.8911 666.55745 900.8125 666.59375 C 886.9326 667.75946 873.09675 669.35619 859.15625 669.6875 C 837.02113 670.55982 814.871 671.37517 792.71875 671.4375 C 797.45038 643.43996 800.50863 615.15921 798.5 586.6875 C 797.80974 579.09473 782.86533 575.9164 765.46875 576.0625 z M 673.53125 758.0625 C 670.4876 764.17289 667.31659 770.21637 664.03125 776.21875 C 661.65866 780.34486 659.20553 784.43965 656.6875 788.46875 C 636.24899 783.67125 615.69145 779.44439 594.90625 776.40625 C 595.35124 771.96697 595.84898 767.53005 596.34375 763.09375 C 620.18945 761.2839 644.05899 759.65178 667.9375 758.3125 C 669.8052 758.22198 671.66341 758.13597 673.53125 758.0625 z M 593.40625 802.125 C 593.64493 803.1502 593.82505 804.15685 593.90625 805.0625 C 593.94485 805.49371 594.0566 806.64938 593.75 806.34375 C 593.3259 805.92065 593.51925 805.18234 593.40625 804.59375 C 593.39321 803.77247 593.40692 802.94587 593.40625 802.125 z "
     id="path9531" />
</svg>
