<?xml version="1.0" encoding="utf-8" ?>

<!DOCTYPE svg PUBLIC "-//W3C//DTD SVG 1.1//EN" 
  "http://www.w3.org/Graphics/SVG/1.1/DTD/svg11.dtd">
<svg 
    xmlns="http://www.w3.org/2000/svg"
    xmlns:xlink="http://www.w3.org/1999/xlink"
    xmlns:sodipodi="http://sodipodi.sourceforge.net/DTD/sodipodi-0.dtd"
    xmlns:inkscape="http://www.inkscape.org/namespaces/inkscape"
    width="1024" height="1024" id="U775B">
<path d="m 8396.2021,24879.329 c 7.3404,42.072 12.1803,84.524 17.2678,126.911 6.9756,61.923 16.6092,123.485 26.4738,184.998 7.6659,47.803 15.9048,95.508 24.485,143.154 2.2845,11.168 3.5846,22.52 5.8233,33.693 2.4866,18.872 -86.4762,30.594 -88.9628,11.722 l 0,0 c -0.5858,-10.277 -2.4252,-20.439 -3.8407,-30.619 -7.706,-48.109 -15.6841,-96.175 -23.2943,-144.301 -9.8677,-62.513 -19.5512,-125.06 -27.0393,-187.914 -5.1606,-40.117 -9.9159,-80.402 -18.5644,-119.953 -3.7528,-18.593 83.8987,-36.285 87.6516,-17.691 z" id="path9407" inkscape:connector-curvature="0" style="fill:#2b0000;fill-opacity:1;fill-rule:nonzero;stroke:#f9f9f9;stroke-width:0.1;stroke-miterlimit:4;stroke-dasharray:none" transform="translate(-8192, -24576)"/><path d="m 8387.0149,24846.528 c 31.824,-10.198 64.6113,-16.65 97.6971,-20.966 34.0303,-4.53 67.003,-1.128 98.545,12.212 32.656,16.598 45.3586,46.714 52.2645,80.725 6.3949,41.886 4.8971,84.395 3.0587,126.562 -3.2612,53.498 -9.0272,106.799 -14.0274,160.153 -3.4369,31.211 -3.7569,62.654 -6.4434,93.913 -0.4736,3.113 -0.9472,6.225 -1.4208,9.337 -3.3721,18.659 -91.3322,2.763 -87.9601,-15.896 l 0,0 c 0.2415,-0.845 0.4831,-1.69 0.7247,-2.536 3.928,-30.939 4.0378,-62.306 8.0249,-93.255 5.1723,-51.692 10.8202,-103.368 13.6617,-155.255 1.3079,-35.301 2.4535,-70.878 -2.697,-105.952 -1.0308,-5.668 -2.423,-12.664 -2.3961,-16.924 -14.4752,-9.374 -34.0648,-6.055 -50.2254,-5.468 -26.7981,3.272 -53.4453,8.439 -78.9394,17.521 -17.8553,6.335 -47.7223,-77.835 -29.867,-84.171 z" id="path9409" inkscape:connector-curvature="0" style="fill:#2b0000;fill-opacity:1;fill-rule:nonzero;stroke:#f9f9f9;stroke-width:0.1;stroke-miterlimit:4;stroke-dasharray:none" transform="translate(-8192, -24576)"/><path d="m 8417.3768,25022.519 c 28.755,-12.219 59.4658,-16.909 90.4528,-18.22 11.2582,-0.585 22.4278,0.396 33.5867,1.696 18.7634,2.604 6.4857,91.056 -12.2778,88.451 l 0,0 c -6.0653,-1.242 -12.2088,-1.552 -18.4052,-1.418 -19.3713,0.337 -38.7418,2.739 -56.5472,10.896 -17.2687,7.809 -54.078,-73.596 -36.8093,-81.405 z" id="path9411" inkscape:connector-curvature="0" style="fill:#2b0000;fill-opacity:1;fill-rule:nonzero;stroke:#f9f9f9;stroke-width:0.1;stroke-miterlimit:4;stroke-dasharray:none" transform="translate(-8192, -24576)"/><path d="m 8437.3738,25152.383 c 24.1301,-0.236 48.2556,-0.08 72.3682,0.884 13.1749,0.08 25.7859,2.95 38.4462,6.206 18.1713,5.244 -6.5484,90.904 -24.7197,85.661 l 0,0 c -5.5364,-2.49 -11.5918,-2.68 -17.5835,-3.146 -22.543,-1.076 -45.1354,-1.342 -67.6831,-0.173 -18.9714,0.175 -19.7994,-89.256 -0.8281,-89.432 z" id="path9413" inkscape:connector-curvature="0" style="fill:#2b0000;fill-opacity:1;fill-rule:nonzero;stroke:#f9f9f9;stroke-width:0.1;stroke-miterlimit:4;stroke-dasharray:none" transform="translate(-8192, -24576)"/><path d="m 8449.1786,25298.127 c 25.1558,4.311 50.847,2.587 76.2083,1.619 24.0474,-0.919 48.0798,-2.167 72.1047,-3.543 18.8248,-0.909 23.1107,87.831 4.2859,88.741 l 0,0 c -24.3068,0.956 -48.6088,2.026 -72.9143,3.011 -32.1581,1.306 -64.553,2.903 -96.5061,-2.064 -18.6176,-3.568 -1.7961,-91.332 16.8215,-87.764 z" id="path9415" inkscape:connector-curvature="0" style="fill:#2b0000;fill-opacity:1;fill-rule:nonzero;stroke:#f9f9f9;stroke-width:0.1;stroke-miterlimit:4;stroke-dasharray:none" transform="translate(-8192, -24576)"/><path d="m 8675.6488,24846.536 c 40.0186,-9 80.2779,-16.615 120.7864,-23.035 56.869,-8.572 114.1632,-13.778 171.6258,-15.733 33.5474,-0.986 67.0232,1.375 100.2196,6.055 10.1777,1.658 5.1664,0.698 15.037,2.864 18.4319,4.584 -3.1775,91.473 -21.6093,86.889 l 0,0 c -3.2662,-1.276 -0.9821,-0.483 -7.0476,-1.714 -27.76,-4.771 -55.8575,-7.127 -84.0476,-6.643 -53.6707,1.277 -107.1843,6.09 -160.2424,14.376 -38.9487,6.446 -77.7022,13.973 -115.8274,24.328 -18.5376,4.008 -37.4322,-83.379 -18.8945,-87.387 z" id="path9429" inkscape:connector-curvature="0" style="fill:#2b0000;fill-opacity:1;fill-rule:nonzero;stroke:#f9f9f9;stroke-width:0.1;stroke-miterlimit:4;stroke-dasharray:none" transform="translate(-8192, -24576)"/><path d="m 8761.3199,24964.595 c 31.8347,-4.51 63.6054,-9.352 95.533,-13.183 31.8931,-3.306 63.9213,-4.973 95.9345,-6.593 12.1654,-0.596 6.2553,-0.384 17.7293,-0.663 18.9393,-0.158 19.6871,89.122 0.7479,89.281 l 0,0 c -8.7438,-0.131 -3.8067,-0.136 -14.8104,0.157 -29.7295,0.941 -59.4652,2.278 -89.0677,5.292 -30.7123,3.713 -61.2894,8.354 -91.7266,13.899 -18.7081,3.042 -33.048,-85.148 -14.34,-88.19 z" id="path9431" inkscape:connector-curvature="0" style="fill:#2b0000;fill-opacity:1;fill-rule:nonzero;stroke:#f9f9f9;stroke-width:0.1;stroke-miterlimit:4;stroke-dasharray:none" transform="translate(-8192, -24576)"/><path d="m 8635.2749,25062.316 c 31.6911,8.816 65.1821,8.158 97.7883,7.961 59.8211,-1.364 119.4567,-6.704 179.0816,-11.413 49.6704,-3.748 99.39,-6.876 149.1224,-9.681 23.1636,-1.027 46.355,-2.567 69.5525,-2.344 18.9571,0.477 16.7093,89.841 -2.2479,89.365 l 0,0 c -20.9329,-1.114 -41.972,0.559 -62.8993,0.898 -48.9631,2.135 -97.9091,4.845 -146.7902,8.399 -61.5989,4.716 -123.183,10.219 -184.9544,12.079 -43.031,0.573 -86.8713,0.897 -128.6267,-11.014 -17.8722,-6.358 12.1015,-90.608 29.9737,-84.25 z" id="path9433" inkscape:connector-curvature="0" style="fill:#2b0000;fill-opacity:1;fill-rule:nonzero;stroke:#f9f9f9;stroke-width:0.1;stroke-miterlimit:4;stroke-dasharray:none" transform="translate(-8192, -24576)"/><path d="m 8929.6296,24744.044 c -6.2401,38.003 -8.0509,76.622 -10.8111,114.998 -3.9502,55.298 -8.6233,110.54 -12.9859,165.807 -2.0509,27.472 -1.0959,14.179 -2.8788,39.875 -1.4287,18.63 -89.2519,11.895 -87.8232,-6.735 l 0,0 c 2.1892,-26.104 1.041,-12.62 3.4517,-40.453 4.8563,-54.765 9.713,-109.534 13.2487,-164.404 2.6929,-42.097 4.4288,-84.354 10.0775,-126.186 3.6271,-18.609 91.3482,-1.511 87.7211,17.098 z" id="path9435" inkscape:connector-curvature="0" style="fill:#2b0000;fill-opacity:1;fill-rule:nonzero;stroke:#f9f9f9;stroke-width:0.1;stroke-miterlimit:4;stroke-dasharray:none" transform="translate(-8192, -24576)"/><path d="m 8771.8237,25196.44 c 4.6526,40.578 6.6392,81.385 8.469,122.167 1.884,49.468 3.7384,98.932 7.6234,148.289 3.07,18.045 1.6112,37.477 7.3281,55.057 4.28,18.458 -82.7303,38.634 -87.0103,20.176 l 0,0 c -4.5941,-22.693 -6.1057,-45.825 -7.966,-68.873 -3.3457,-50.112 -5.055,-100.297 -7.2061,-150.471 -1.9409,-38.019 -3.8365,-76.152 -9.7214,-113.81 -2.6591,-18.77 85.8242,-31.305 88.4833,-12.535 z" id="path9437" inkscape:connector-curvature="0" style="fill:#2b0000;fill-opacity:1;fill-rule:nonzero;stroke:#f9f9f9;stroke-width:0.1;stroke-miterlimit:4;stroke-dasharray:none" transform="translate(-8192, -24576)"/><path d="m 8759.9602,25214.586 c 33.0407,-14.72 68.4091,-22.762 103.6206,-30.305 39.9066,-8.494 80.4613,-13.057 121.0849,-16.293 32.7751,-2.64 54.7715,-2.795 85.0508,11.051 35.2609,24.68 34.8338,63.776 33.1202,102.537 -3.272,45.511 -8.6242,90.845 -13.6921,136.183 -4.808,41.898 -9.1864,83.84 -13.2988,125.811 -0.6392,18.921 -4.9996,35.835 -12.5257,53.026 -9.3766,16.511 -87.2114,-27.69 -77.8349,-44.202 l 0,0 c -6.1607,22.034 5.1266,-17.24 2.4909,-18.128 4.7858,-42.047 9.4711,-84.106 14.2502,-126.154 4.771,-43.298 9.6376,-86.621 12.3287,-130.109 0.522,-14.655 0.5856,-11.37 0.4722,-24.169 -0.1,-11.279 4.0574,1.583 11.489,3.361 1.3237,0.223 2.6364,0.814 3.9711,0.67 0.2245,-0.02 -0.3923,-1.138 -6.8199,-1.857 -10.7975,-1.207 -21.695,-0.309 -32.5043,0.07 -36.5912,2.461 -73.1145,6.39 -109.007,14.161 -28.1134,6.134 -56.6441,12.216 -82.8175,24.562 -17.0162,8.354 -56.3947,-71.862 -39.3784,-80.215 z" id="path9439" inkscape:connector-curvature="0" style="fill:#2b0000;fill-opacity:1;fill-rule:nonzero;stroke:#f9f9f9;stroke-width:0.1;stroke-miterlimit:4;stroke-dasharray:none" transform="translate(-8192, -24576)"/><path d="m 8847.5384,25296.76 c 35.2005,2.748 70.4861,4.277 105.77,5.449 13.8449,0.407 27.6951,0.553 41.5441,0.732 18.8464,0.514 16.4267,89.356 -2.4197,88.843 l 0,0 c -14.1066,-0.59 -28.217,-1.055 -42.3277,-1.537 -36.0087,-1.422 -72.0037,-3.189 -108.0195,-4.423 -18.8933,-1.157 -13.4404,-90.221 5.4528,-89.064 z" id="path9441" inkscape:connector-curvature="0" style="fill:#2b0000;fill-opacity:1;fill-rule:nonzero;stroke:#f9f9f9;stroke-width:0.1;stroke-miterlimit:4;stroke-dasharray:none" transform="translate(-8192, -24576)"/><path d="m 8838.0836,25402.548 c 29.2116,5.587 59.0808,6.553 88.7139,8.089 24.1749,1.402 48.3812,2.122 72.5664,3.289 18.8368,1.133 13.4949,89.931 -5.342,88.798 l 0,0 c -23.9014,-1.762 -47.8596,-2.67 -71.7825,-4.093 -34.3794,-1.78 -68.9047,-3.12 -102.9273,-8.723 -18.5317,-3.982 0.2398,-91.342 18.7715,-87.36 z" id="path9443" inkscape:connector-curvature="0" style="fill:#2b0000;fill-opacity:1;fill-rule:nonzero;stroke:#f9f9f9;stroke-width:0.1;stroke-miterlimit:4;stroke-dasharray:none" transform="translate(-8192, -24576)"/></svg>