<?xml version="1.0" encoding="UTF-8" standalone="no"?>
<svg
   xmlns:dc="http://purl.org/dc/elements/1.1/"
   xmlns:cc="http://creativecommons.org/ns#"
   xmlns:rdf="http://www.w3.org/1999/02/22-rdf-syntax-ns#"
   xmlns:svg="http://www.w3.org/2000/svg"
   xmlns="http://www.w3.org/2000/svg"
   xmlns:sodipodi="http://sodipodi.sourceforge.net/DTD/sodipodi-0.dtd"
   xmlns:inkscape="http://www.inkscape.org/namespaces/inkscape"
   width="1024"
   height="1024"
   id="U7840"
   version="1.1"
   inkscape:version="0.48.0 r9654"
   sodipodi:docname="U+7840.svg">
  <metadata
     id="metadata17">
    <rdf:RDF>
      <cc:Work
         rdf:about="">
        <dc:format>image/svg+xml</dc:format>
        <dc:type
           rdf:resource="http://purl.org/dc/dcmitype/StillImage" />
      </cc:Work>
    </rdf:RDF>
  </metadata>
  <defs
     id="defs15" />
  <sodipodi:namedview
     pagecolor="#ffffff"
     bordercolor="#666666"
     borderopacity="1"
     objecttolerance="10"
     gridtolerance="10"
     guidetolerance="10"
     inkscape:pageopacity="0"
     inkscape:pageshadow="2"
     inkscape:window-width="640"
     inkscape:window-height="480"
     id="namedview13"
     showgrid="false"
     inkscape:zoom="0.27441406"
     inkscape:cx="512"
     inkscape:cy="512"
     inkscape:window-x="0"
     inkscape:window-y="25"
     inkscape:window-maximized="0"
     inkscape:current-layer="U7840" />
  <path
     style="fill:#800000;fill-opacity:1;fill-rule:nonzero;stroke:#f9f9f9;stroke-width:0.1;stroke-miterlimit:4;stroke-dasharray:none"
     d="M 706.875 195.28125 C 700.69258 195.3089 696.22824 196.85031 694.875 200.375 C 680.4455 250.3472 678.81905 302.91585 676.03125 354.53125 C 675.04031 377.56231 674.03865 400.59339 673.0625 423.625 C 667.15508 424.78557 661.26071 425.91575 655.34375 427.03125 C 629.78315 430.97075 604.18925 434.6617 578.34375 431.25 C 576.59005 448.381 569.6104 405.2068 574.5625 402.875 C 578.3005 375.2994 583.8659 347.804 593.6875 321.6875 C 600.7926 304.5032 519.7925 271.0032 512.6875 288.1875 C 501.0892 321.4279 494.0653 356.01415 489 390.78125 C 485.23 424.39765 485.4835 461.4774 510.1875 487.9375 C 515.813 493.9629 523.08135 498.1792 529.53125 503.3125 C 573.42585 525.7347 621.7741 519.28 668.5625 511.9375 C 668.84354 511.88414 669.12523 511.83473 669.40625 511.78125 C 668.05994 544.92036 666.73905 578.04396 665.5 611.1875 C 663.1956 670.4814 662.713 729.8487 660 789.125 C 659.3081 807.2092 744.558 810.4592 745.25 792.375 C 747.0981 733.0043 747.16485 673.58505 749.28125 614.21875 C 750.6715 574.4909 752.22485 534.77724 753.9375 495.0625 C 768.63269 492.25699 783.36596 489.60296 798.15625 487.28125 C 799.90851 487.04198 801.65399 486.80179 803.40625 486.5625 C 802.27589 501.8023 800.98255 517.00731 799.5 532.21875 C 797.8515 550.42935 883.69515 558.2105 885.34375 540 C 889.36015 492.1532 892.50215 444.23805 893.40625 396.21875 C 894.56135 361.35475 895.2059 326.23395 901.625 291.84375 C 904.8368 273.55055 818.61805 258.3943 815.40625 276.6875 C 809.61475 315.3919 808.6906 354.5748 807.625 393.625 C 807.58666 396.63428 807.5275 399.64775 807.46875 402.65625 C 805.33334 400.3402 803.04605 399.15268 800.65625 399.5 L 784.1875 402.03125 C 775.44997 403.51763 766.73821 405.11281 758.03125 406.75 C 758.82034 391.02634 759.64608 375.31432 760.5 359.59375 C 763.3015 316.86515 764.9034 273.19595 776.6875 231.78125 C 781.99636 217.95364 731.12912 195.17276 706.875 195.28125 z M 355.0625 230.90625 C 314.7147 233.23925 275.2946 241.73365 235.9375 250.65625 C 194.1511 259.57625 152.31015 268.3071 110.21875 275.6875 C 92.02085 279.3532 109.3021 365.1658 127.5 361.5 C 150.69354 356.40036 173.93655 351.41879 197.15625 346.4375 C 190.597 373.61455 184.93272 401.00781 179.25 428.375 C 164.5695 498.7836 147.46915 568.6696 131.59375 638.8125 C 117.65155 702.3619 103.90435 766.0092 94.65625 830.4375 C 94.19775 836.0852 93.73985 841.7273 93.28125 847.375 C 92.28165 865.7663 178.96915 870.48495 179.96875 852.09375 C 180.01005 848.53675 180.05175 844.9945 180.09375 841.4375 C 185.73691 790.86073 195.73489 740.93304 206.375 691.1875 C 206.57382 692.97601 206.76474 694.77462 206.96875 696.5625 C 212.85915 741.9559 219.7264 787.1863 225.75 832.5625 C 226.4279 837.5443 227.10335 842.54945 227.78125 847.53125 C 229.12412 856.60014 251.12012 857.97818 272.5 854.84375 C 266.33225 880.03531 266.40546 915.27739 278.0625 916.6875 C 311.3588 919.6702 344.82075 919.59725 378.21875 919.65625 C 395.42785 919.70725 412.63475 919.845 429.84375 919.75 C 441.18692 919.63955 445.1902 886.6117 442.28125 861.375 C 463.49731 864.49537 485.27862 863.12318 486.625 854.125 C 493.3804 806.3674 496.06625 758.18625 498.34375 710.03125 C 500.25025 662.07555 504.4653 612.24715 485.375 566.96875 C 480.8798 560.20875 477.2499 552.7714 471.875 546.6875 C 448.2277 519.9207 412.87835 514.40115 379.15625 517.15625 C 345.67555 521.65105 312.8298 529.65825 282.0625 543.96875 C 277.04376 546.43409 277.07674 555.28278 279.96875 566.21875 C 270.00702 561.41953 252.73457 558.66793 236.875 558.53125 C 245.76049 521.11972 254.58681 483.69636 262.78125 446.125 C 271.20655 407.3474 279.2491 368.31135 291.75 330.59375 C 292.21757 329.1568 292.08979 327.65761 291.46875 326.125 C 313.55829 321.50058 335.76898 317.61765 358.375 317.46875 C 376.7366 316.76685 373.424 230.20435 355.0625 230.90625 z M 287.5 586.53125 C 297.17461 607.29296 311.94668 626.85625 320.6875 622.5625 C 342.3772 611.6482 365.96825 605.87055 389.96875 603.15625 C 390.97575 602.99885 413.72835 601.9038 412.34375 607.875 C 412.08295 608.9996 410.55255 609.4783 410.15625 610.5625 C 415.72735 642.3404 413.77585 674.78605 412.65625 706.84375 C 410.69129 749.10762 408.62992 791.43207 402.5 833.3125 C 394.46548 833.32137 386.44266 833.3287 378.40625 833.3125 C 356.66247 833.25443 334.84054 833.33838 313.125 831.96875 C 312.51278 828.1579 311.89345 824.3421 311.28125 820.53125 C 304.66715 776.03425 297.84705 731.5637 292.15625 686.9375 C 288.44433 653.59995 285.41682 620.06446 287.5 586.53125 z M 543.46875 595.6875 C 533.24884 595.81296 525.66927 598.01674 524.5625 603.125 C 518.1152 641.3925 514.33455 680.03415 510.78125 718.65625 C 506.59195 768.48065 502.4384 818.3216 501 868.3125 C 499.9513 908.0245 509.57865 948.75815 550.96875 964.65625 C 559.43795 967.90925 568.84525 967.8077 577.78125 969.375 C 633.58235 966.5114 686.1527 944.1674 738.6875 926.8125 C 786.0547 910.9582 834.62395 899.3682 884.59375 897.125 C 887.74954 897.17968 890.90665 897.22655 894.0625 897.28125 C 893.59674 912.1503 893.17993 927.00459 892.78125 941.875 C 892.32165 971.9629 892.3617 957.4863 892.5625 985.375 C 892.8833 1003.6787 979.1958 1002.1475 978.875 983.84375 C 978.1381 958.53345 978.34375 971.90285 978.34375 943.71875 C 979.28365 885.99195 981.2115 828.27235 985 770.65625 C 987.5771 737.42405 989.52725 703.6162 998.84375 671.4375 C 1004.5237 653.7296 921.02365 626.9795 915.34375 644.6875 C 904.80485 683.74 902.35775 724.3224 899.65625 764.5 C 898.79874 779.98824 898.04318 795.47287 897.34375 810.96875 C 891.42723 811.02578 885.51025 811.0991 879.59375 811.15625 C 822.35215 815.06455 766.52675 827.5954 712.15625 845.9375 C 670.89581 859.36975 629.88876 874.69449 587.15625 882.78125 C 585.74941 872.60301 585.1541 862.20622 587.125 870.1875 C 587.7963 822.272 591.8436 774.49075 596.125 726.78125 C 599.6103 691.60665 603.1208 656.32875 610.1875 621.65625 C 613.016 608.60181 569.5863 595.36689 543.46875 595.6875 z M 587.9375 887.75 C 589.87443 890.26214 592.68173 892.40578 591.5625 896.34375 C 590.53754 899.95016 589.11508 894.70932 587.9375 887.75 z "
     id="path21123" />
</svg>
