<?xml version="1.0" encoding="utf-8" ?>

<!DOCTYPE svg PUBLIC "-//W3C//DTD SVG 1.1//EN" 
  "http://www.w3.org/Graphics/SVG/1.1/DTD/svg11.dtd">
<svg 
    xmlns="http://www.w3.org/2000/svg"
    xmlns:xlink="http://www.w3.org/1999/xlink"
    xmlns:sodipodi="http://sodipodi.sourceforge.net/DTD/sodipodi-0.dtd"
    xmlns:inkscape="http://www.inkscape.org/namespaces/inkscape"
    width="1024" height="1024" id="U786E">
<path d="m 10298.311,40283.159 c 48.663,-10.039 98.153,-14.998 147.577,-19.458 59.307,-4.77 118.782,-8.221 178.294,-6.964 5.989,0.434 11.978,0.868 17.966,1.302 18.485,1.684 10.546,88.821 -7.939,87.137 l 0,0 c -4.303,-0.504 -8.606,-1.008 -12.909,-1.512 -55.85,-2.635 -111.76,0.774 -167.427,5.4 -45.289,4.394 -90.818,9.003 -135.056,20.088 -18.242,4.35 -38.748,-81.643 -20.506,-85.993 z" id="path11437" inkscape:connector-curvature="0" style="fill:#a02c2c;fill-opacity:1;fill-rule:nonzero;stroke:#f9f9f9;stroke-width:0.1;stroke-miterlimit:4;stroke-dasharray:none" transform="translate(-10240, -39936)"/><path d="m 10510.022,40329.734 c -18.223,24.709 -29.965,53.318 -41.528,81.537 -19.79,51.796 -38.601,103.963 -57.738,156.004 -15.649,42.338 -30.744,84.876 -45.316,127.595 -6.164,17.496 -88.638,-11.562 -82.474,-29.057 l 0,0 c 15.561,-42.803 31.119,-85.607 47.001,-128.292 19.505,-52.882 38.504,-105.949 58.153,-158.777 13.94,-34.83 28.645,-69.615 50.05,-100.653 10.956,-15.242 82.807,36.401 71.852,51.643 z" id="path11439" inkscape:connector-curvature="0" style="fill:#a02c2c;fill-opacity:1;fill-rule:nonzero;stroke:#f9f9f9;stroke-width:0.1;stroke-miterlimit:4;stroke-dasharray:none" transform="translate(-10240, -39936)"/><path d="m 10467.36,40543.466 c -3.338,41.453 -2.417,83.086 -1.289,124.608 1.659,51.561 5.349,103.033 11.605,154.237 3.448,21.753 1.532,11.661 5.515,30.317 3.542,18.227 -82.382,34.923 -85.924,16.695 l 0,0 c -4.236,-23.577 -2.254,-11.227 -5.818,-37.069 -5.851,-53.708 -9.635,-107.615 -11.623,-161.607 -1.43,-44.143 -2.346,-88.317 -0.624,-132.47 1.122,-18.701 89.28,-13.412 88.158,5.289 z" id="path11441" inkscape:connector-curvature="0" style="fill:#a02c2c;fill-opacity:1;fill-rule:nonzero;stroke:#f9f9f9;stroke-width:0.1;stroke-miterlimit:4;stroke-dasharray:none" transform="translate(-10240, -39936)"/><path d="m 10437.232,40508.3 c 28.981,-10.567 59.625,-14.013 90.237,-15.366 27.669,-1.148 54.783,3.172 81.14,11.256 26.869,8.213 44.252,25.911 56.22,50.697 11.08,32.745 5.808,67.4 1.634,100.894 -6.176,43.433 -12.536,86.838 -18.432,130.311 -2.739,21.713 -5.613,43.386 -9.865,64.857 -3.915,18.237 -89.887,-0.218 -85.972,-18.455 l 0,0 c 4.595,-19.201 6.943,-38.809 9.749,-58.334 6.073,-42.907 12.322,-85.793 17.942,-128.762 2.112,-18.437 4.305,-37.062 3.754,-55.61 6.718,3.65 3.522,0.484 -1.804,-1.545 -16.45,-5.579 -33.444,-8.334 -50.884,-7.729 -20.306,0.68 -40.829,2.435 -60.012,9.645 -17.365,7.15 -51.072,-74.709 -33.707,-81.859 z" id="path11443" inkscape:connector-curvature="0" style="fill:#a02c2c;fill-opacity:1;fill-rule:nonzero;stroke:#f9f9f9;stroke-width:0.1;stroke-miterlimit:4;stroke-dasharray:none" transform="translate(-10240, -39936)"/><path d="m 10419.346,40785.387 c 38.715,-8.894 77.914,-14.862 117.431,-18.659 24.868,-2.286 49.811,-1.82 74.711,-0.633 18.576,1.079 13.493,88.645 -5.083,87.567 l 0,0 c -20.478,-1.446 -41.005,-2.246 -61.505,-0.448 -35.543,3.249 -70.859,8.656 -105.314,18.196 -18.248,4.294 -38.489,-81.729 -20.24,-86.023 z" id="path11445" inkscape:connector-curvature="0" style="fill:#a02c2c;fill-opacity:1;fill-rule:nonzero;stroke:#f9f9f9;stroke-width:0.1;stroke-miterlimit:4;stroke-dasharray:none" transform="translate(-10240, -39936)"/><path d="m 10886.812,40150.933 c -9.035,37.146 -19.581,73.894 -30.482,110.528 -13.5,44.206 -27.944,88.117 -42.494,131.987 -6.125,18.387 -3.216,9.687 -8.722,26.103 -6.167,17.59 -89.084,-11.484 -82.916,-29.073 l 0,0 c 5.754,-15.691 2.724,-7.318 9.059,-25.13 14.84,-42.5 29.101,-85.214 42.03,-128.338 10.027,-34.436 19.899,-68.987 26.882,-104.194 3.844,-18.379 90.486,-0.263 86.643,18.117 z" id="path11447" inkscape:connector-curvature="0" style="fill:#a02c2c;fill-opacity:1;fill-rule:nonzero;stroke:#f9f9f9;stroke-width:0.1;stroke-miterlimit:4;stroke-dasharray:none" transform="translate(-10240, -39936)"/><path d="m 10785.213,40224.691 c 22.514,-24.206 52.371,-36.756 83.244,-46.464 33.85,-9.68 68.989,-11.933 103.978,-13.041 27.573,-0.744 54.776,1.195 80.874,10.342 34.669,16.34 42.93,48.608 42.983,83.892 -2.751,42.232 -15.918,82.735 -29.466,122.523 -13.285,38.422 -28.976,75.931 -49.98,110.775 -9.747,15.808 -84.266,-30.136 -74.52,-45.944 l 0,0 c 18.357,-28.795 30.777,-60.766 42.324,-92.785 10.546,-31.033 20.972,-62.585 23.718,-95.447 0.701,-17.632 1.241,-2.624 12.662,-0.758 -7.434,-7.608 -36.296,-3.312 -46.037,-5.082 -27.06,0.716 -54.291,1.964 -80.554,9.161 -15.414,4.701 -31.523,9.498 -42.948,21.555 -12.458,14.06 -78.735,-44.667 -66.278,-58.727 z" id="path11449" inkscape:connector-curvature="0" style="fill:#a02c2c;fill-opacity:1;fill-rule:nonzero;stroke:#f9f9f9;stroke-width:0.1;stroke-miterlimit:4;stroke-dasharray:none" transform="translate(-10240, -39936)"/><path d="m 10779.327,40461.506 c 8.12,46.707 8.212,94.247 7.944,141.495 -1.275,64.25 -5.041,128.416 -8,192.603 -1.607,44.227 -4.1,88.475 -3.673,132.747 0.192,3.257 0.383,6.514 0.574,9.772 0.677,18.636 -87.177,21.825 -87.853,3.189 l 0,0 c -0.09,-4.418 -0.175,-8.835 -0.262,-13.252 0.671,-45.567 3.411,-91.076 5.368,-136.598 3.167,-62.859 6.935,-125.717 7.833,-188.66 -0.05,-41.04 -0.02,-82.533 -8.346,-122.909 -3.9,-18.332 82.515,-36.718 86.415,-18.387 z" id="path11451" inkscape:connector-curvature="0" style="fill:#a02c2c;fill-opacity:1;fill-rule:nonzero;stroke:#f9f9f9;stroke-width:0.1;stroke-miterlimit:4;stroke-dasharray:none" transform="translate(-10240, -39936)"/><path d="m 10715.853,40458.571 c 30.454,-22.509 66.442,-34.092 102.515,-43.953 42.87,-10.757 86.845,-15.347 130.898,-17.244 32.892,-1.672 64.556,1.978 94.528,15.767 28.985,16.179 42.501,43.897 52.261,74.17 11.787,41.664 10.941,85.133 9.474,127.976 -3.08,53.762 -9.008,107.302 -13.755,160.931 -3.51,35.551 -4.601,71.241 -5.387,106.93 -0.622,18.627 -88.432,15.695 -87.81,-2.932 l 0,0 c 1.681,-37.312 3.234,-74.639 7.079,-111.812 4.824,-51.915 10.62,-103.769 13.349,-155.852 0.942,-32.951 1.926,-66.479 -6.709,-98.619 -2.299,-7.421 -4.617,-15.056 -8.08,-22.008 -13.487,-10.807 -36.032,-5.468 -51.631,-7.403 -37.442,1.206 -74.828,4.9 -111.258,14.031 -24.65,6.748 -49.963,13.822 -70.657,29.504 -14.74,11.628 -69.557,-57.858 -54.817,-69.486 z" id="path11453" inkscape:connector-curvature="0" style="fill:#a02c2c;fill-opacity:1;fill-rule:nonzero;stroke:#f9f9f9;stroke-width:0.1;stroke-miterlimit:4;stroke-dasharray:none" transform="translate(-10240, -39936)"/><path d="m 10752.712,40573.864 c 37.524,-19.886 79.626,-25.158 121.323,-28.387 42.631,-2.807 85.254,0.202 127.235,7.717 18.254,3.463 1.925,89.511 -16.328,86.047 l 0,0 c -34.295,-6.994 -69.296,-9.43 -104.265,-7.213 -28.294,2.147 -57.542,4.555 -83.086,18.059 -16.169,9.52 -61.049,-66.703 -44.879,-76.223 z" id="path11455" inkscape:connector-curvature="0" style="fill:#a02c2c;fill-opacity:1;fill-rule:nonzero;stroke:#f9f9f9;stroke-width:0.1;stroke-miterlimit:4;stroke-dasharray:none" transform="translate(-10240, -39936)"/><path d="m 10810.498,40735.85 c 33.189,6.443 67.524,3.586 101.047,1.776 39.945,-2.747 80.01,-6.106 119.209,-14.547 2.966,-0.91 5.932,-1.819 8.897,-2.729 17.956,-4.962 41.348,79.682 23.392,84.644 l 0,0 c -5.022,1.298 -10.045,2.596 -15.067,3.893 -43.437,8.225 -87.512,12.201 -131.594,15.134 -43.196,2.498 -87.183,5.749 -129.899,-3.025 -18.063,-5.095 5.953,-90.241 24.015,-85.146 z" id="path11457" inkscape:connector-curvature="0" style="fill:#a02c2c;fill-opacity:1;fill-rule:nonzero;stroke:#f9f9f9;stroke-width:0.1;stroke-miterlimit:4;stroke-dasharray:none" transform="translate(-10240, -39936)"/><path d="m 10989.309,40463.87 c -10.472,46.328 -16.996,93.478 -24.882,140.299 -13.126,72.929 -24.691,146.083 -31.578,219.876 -3.772,41.068 -3.101,82.297 -0.582,123.397 0.943,18.451 -86.036,22.896 -86.979,4.445 l 0,0 c -1.904,-45.372 -2.013,-90.841 2.484,-136.093 7.589,-75.576 19.432,-150.548 32.25,-225.401 7.813,-49.475 14.268,-99.191 23.673,-148.395 4.64,-18.162 90.254,3.71 85.614,21.872 z" id="path11459" inkscape:connector-curvature="0" style="fill:#a02c2c;fill-opacity:1;fill-rule:nonzero;stroke:#f9f9f9;stroke-width:0.1;stroke-miterlimit:4;stroke-dasharray:none" transform="translate(-10240, -39936)"/></svg>