<?xml version="1.0" encoding="UTF-8" standalone="no"?>
<svg
   xmlns:dc="http://purl.org/dc/elements/1.1/"
   xmlns:cc="http://creativecommons.org/ns#"
   xmlns:rdf="http://www.w3.org/1999/02/22-rdf-syntax-ns#"
   xmlns:svg="http://www.w3.org/2000/svg"
   xmlns="http://www.w3.org/2000/svg"
   xmlns:sodipodi="http://sodipodi.sourceforge.net/DTD/sodipodi-0.dtd"
   xmlns:inkscape="http://www.inkscape.org/namespaces/inkscape"
   width="1024"
   height="1024"
   id="U7814"
   version="1.1"
   inkscape:version="0.48.0 r9654"
   sodipodi:docname="U+7814.svg">
  <metadata
     id="metadata16">
    <rdf:RDF>
      <cc:Work
         rdf:about="">
        <dc:format>image/svg+xml</dc:format>
        <dc:type
           rdf:resource="http://purl.org/dc/dcmitype/StillImage" />
      </cc:Work>
    </rdf:RDF>
  </metadata>
  <defs
     id="defs14" />
  <sodipodi:namedview
     pagecolor="#ffffff"
     bordercolor="#666666"
     borderopacity="1"
     objecttolerance="10"
     gridtolerance="10"
     guidetolerance="10"
     inkscape:pageopacity="0"
     inkscape:pageshadow="2"
     inkscape:window-width="640"
     inkscape:window-height="480"
     id="namedview12"
     showgrid="false"
     inkscape:zoom="0.27441406"
     inkscape:cx="512"
     inkscape:cy="512"
     inkscape:window-x="0"
     inkscape:window-y="25"
     inkscape:window-maximized="0"
     inkscape:current-layer="U7814" />
  <path
     style="fill:#916f6f;fill-opacity:1;fill-rule:nonzero;stroke:#f9f9f9;stroke-width:0.1;stroke-miterlimit:4;stroke-dasharray:none"
     d="M 387.78125 260.21875 C 380.93314 260.24206 374.07298 260.42525 367.21875 260.71875 C 319.21175 262.98575 271.4494 268.03225 223.6875 273.28125 C 189.6547 276.52825 155.55115 279.757 121.34375 280.25 C 102.58275 280.892 105.614 369.3295 124.375 368.6875 C 156.38137 366.90217 188.29806 363.98659 220.1875 360.78125 C 204.50173 382.35535 190.82356 405.44562 177.3125 428.40625 C 147.3833 480.16425 121.43215 534.032 98.59375 589.25 C 85.35495 623.595 72.8548 658.7825 71.125 695.8125 C 70.9475 714.5425 159.22865 715.38625 159.40625 696.65625 C 156.24529 680.23763 168.48215 651.94733 175.34375 632.21875 C 175.60623 652.62307 177.07962 673.00598 178.875 693.34375 C 182.2088 725.86175 187.1173 758.216 192.9375 790.375 C 193.6745 793.966 194.41935 797.534 195.15625 801.125 C 197.18065 810.48394 220.75455 810.15785 242.75 805.15625 C 243.81884 831.16296 253.35984 864.38812 264.90625 862.625 C 297.36095 856.84 329.91005 851.628 362.53125 846.875 C 390.97125 842.862 419.59465 840.44275 448.21875 838.21875 C 457.43034 837.45035 460.26402 815.52925 458.53125 793.8125 C 460.28917 783.48779 461.83888 773.11313 463.1875 762.71875 C 468.05862 727.73544 472.56871 692.69025 474.9375 657.4375 C 508.64727 652.15178 541.95722 644.43069 575.3125 637.3125 C 576.902 636.96284 578.50321 636.62518 580.09375 636.28125 C 578.56435 642.35474 577.0287 648.42812 575.5 654.5 C 560.9757 707.635 551.0858 761.6985 548 816.6875 C 548.006 823.0425 548.02125 829.395 548.03125 835.75 C 548.27995 854.289 635.65495 853.13175 635.40625 834.59375 L 635 820.78125 C 636.7508 771.41025 645.9305 722.93975 658.5625 675.21875 C 663.17735 656.5595 667.81602 637.89974 672.375 619.21875 C 696.32849 615.43779 720.35292 612.06028 744.40625 608.9375 C 750.42121 608.116 756.44298 607.34929 762.46875 606.65625 C 758.25911 666.22936 754.89318 725.87323 753.8125 785.59375 C 752.9513 831.68475 756.35495 877.6565 765.59375 922.8125 C 766.77245 927.3865 767.9463 931.95825 769.125 936.53125 C 774.0478 954.51225 858.82895 931.2935 853.90625 913.3125 L 851.21875 904.25 C 842.25945 865.751 839.54905 826.25825 839.71875 786.78125 C 840.32679 724.64486 843.79357 662.61084 848.46875 600.65625 C 862.14907 600.25691 875.83803 600.09142 889.53125 600.125 C 920.82785 600.431 952.1452 601.30925 983.375 603.40625 C 995.6481 604.47925 989.7416 603.9155 1001 605.0625 C 1019.6362 606.7425 1027.5738 518.89975 1008.9375 517.21875 C 996.0346 516.18875 1002.8233 516.70075 988.59375 515.71875 C 955.55695 513.97875 922.4563 513.32 889.375 513.25 C 878.05261 513.31506 866.75103 513.51778 855.4375 513.84375 C 857.99469 485.03812 861.03469 456.27604 865.34375 427.6875 C 868.26505 409.1855 781.0463 395.40425 778.125 413.90625 C 774.30521 448.98222 771.46396 484.15612 768.84375 519.34375 C 756.96496 520.55575 745.09178 521.95461 733.25 523.59375 C 719.82049 525.3632 706.40694 527.23024 693 529.15625 C 697.24122 508.75564 701.12279 488.27074 704.46875 467.6875 C 709.44082 434.94802 713.61008 402.15964 716.75 369.21875 C 748.11461 366.24915 779.55619 364.01792 811.0625 362.96875 C 838.5642 363.61175 866.82485 361.55625 893.90625 367.53125 C 912.30965 370.85025 927.9659 284.068 909.5625 280.75 C 875.9237 275.354 841.76255 275.71225 807.78125 276.40625 C 753.56885 278.69025 699.55625 283.84225 645.65625 290.03125 C 606.23395 294.50025 566.8399 299.425 527.3125 302.875 C 508.6509 304.816 517.80705 392.78475 536.46875 390.84375 C 567.08292 386.83557 597.69972 382.9264 628.34375 379.15625 C 626.1461 404.57576 623.05938 429.90422 619.46875 455.1875 C 614.87662 484.96549 608.9761 514.49739 602.40625 543.875 C 587.45058 546.63312 572.51032 549.56242 557.625 552.71875 C 529.31526 558.51906 500.99599 564.896 472.375 569.0625 C 471.31848 563.23259 469.98849 557.42794 468.34375 551.6875 C 451.09675 513.1415 432.51215 502.3635 391.28125 498.8125 C 357.92985 498.6885 325.2788 504.61675 292.8125 511.96875 C 268.14224 517.46836 243.48554 523.41068 219.46875 531.3125 C 229.53394 511.38726 240.21693 491.76179 251.5625 472.5 C 269.2929 442.931 286.95595 412.4915 311.78125 388.1875 C 317.72891 382.55991 309.51424 367.16369 297.21875 352.65625 C 321.742 350.33933 346.30227 348.47428 370.9375 347.53125 C 390.7589 347.95725 411.50365 346.051 430.84375 351.5 C 449.14705 355.361 467.3658 269.07975 449.0625 265.21875 C 428.80958 261.47775 408.32558 260.14881 387.78125 260.21875 z M 200.09375 571.71875 C 200.80507 573.90191 201.5635 576.1005 202.40625 578.3125 C 200.51776 578.36854 198.69611 578.5018 196.9375 578.65625 C 197.97443 576.34003 199.04164 574.02793 200.09375 571.71875 z M 384.625 586.53125 C 385.19959 586.53922 385.76868 586.57841 386.34375 586.59375 C 389.16959 606.75407 388.85173 627.13609 388.15625 647.4375 C 386.27245 681.9335 381.6503 716.18875 376.625 750.34375 C 376.29452 752.64854 375.93812 754.94767 375.59375 757.25 C 367.02013 758.28249 358.45498 759.38595 349.90625 760.625 C 326.18831 764.11057 302.49704 767.87821 278.78125 771.375 C 273.22283 743.02161 268.69494 714.46439 265.71875 685.71875 C 263.49295 660.35406 261.52101 634.76223 263.625 609.34375 C 279.47723 604.54607 295.66856 600.79824 311.8125 597.1875 C 335.84175 592.52531 360.02556 586.1901 384.625 586.53125 z "
     id="path12741" />
</svg>
