<?xml version="1.0" encoding="UTF-8" standalone="no"?>
<svg
   xmlns:dc="http://purl.org/dc/elements/1.1/"
   xmlns:cc="http://creativecommons.org/ns#"
   xmlns:rdf="http://www.w3.org/1999/02/22-rdf-syntax-ns#"
   xmlns:svg="http://www.w3.org/2000/svg"
   xmlns="http://www.w3.org/2000/svg"
   xmlns:sodipodi="http://sodipodi.sourceforge.net/DTD/sodipodi-0.dtd"
   xmlns:inkscape="http://www.inkscape.org/namespaces/inkscape"
   width="1024"
   height="1024"
   id="U7834"
   version="1.1"
   inkscape:version="0.48.0 r9654"
   sodipodi:docname="U+7834.svg">
  <metadata
     id="metadata17">
    <rdf:RDF>
      <cc:Work
         rdf:about="">
        <dc:format>image/svg+xml</dc:format>
        <dc:type
           rdf:resource="http://purl.org/dc/dcmitype/StillImage" />
      </cc:Work>
    </rdf:RDF>
  </metadata>
  <defs
     id="defs15" />
  <sodipodi:namedview
     pagecolor="#ffffff"
     bordercolor="#666666"
     borderopacity="1"
     objecttolerance="10"
     gridtolerance="10"
     guidetolerance="10"
     inkscape:pageopacity="0"
     inkscape:pageshadow="2"
     inkscape:window-width="640"
     inkscape:window-height="480"
     id="namedview13"
     showgrid="false"
     inkscape:zoom="0.27441406"
     inkscape:cx="512"
     inkscape:cy="512"
     inkscape:window-x="0"
     inkscape:window-y="25"
     inkscape:window-maximized="0"
     inkscape:current-layer="U7834" />
  <path
     style="fill:#c83737;fill-opacity:1;fill-rule:nonzero;stroke:#f9f9f9;stroke-width:0.1;stroke-miterlimit:4;stroke-dasharray:none"
     d="M 655.90625 128.65625 C 642.05271 128.76812 631.10404 131.52281 630.21875 137.90625 C 628.11955 190.34525 635.3642 242.73225 639.875 294.90625 C 640.33469 300.87539 640.78521 306.84413 641.25 312.8125 C 625.37469 316.32477 609.60617 320.27814 593.96875 324.8125 C 553.14655 337.4505 511.9789 351.8555 479.25 380.4375 C 469.11154 390.25554 501.42156 428.6255 523.78125 441.46875 C 524.02678 477.64058 526.42766 513.79911 527.875 549.9375 C 530.9981 618.3505 527.43105 686.732 521.46875 754.875 C 517.35595 801.807 509.2333 848.27925 504.6875 895.15625 C 504.4789 899.06925 504.2711 902.962 504.0625 906.875 C 503.495 925.559 591.58865 928.2475 592.15625 909.5625 C 592.14125 907.1295 592.10975 904.683 592.09375 902.25 C 595.03555 855.371 603.0918 808.962 606.625 762.125 C 607.10546 756.34233 607.54953 750.56665 608 744.78125 C 625.77232 753.094 642.86918 762.90396 659.96875 772.4375 C 676.11874 781.7521 692.42197 790.78867 708.84375 799.59375 C 695.72183 816.91651 682.32094 834.05312 668.3125 850.6875 C 655.0741 862.5425 643.538 883.22575 625.375 888.34375 C 608.6953 896.68375 648.0078 975.30875 664.6875 966.96875 C 692.4033 951.71375 715.20605 930.97675 735.15625 906.34375 C 753.06425 884.62831 770.119 862.26922 786.9375 839.71875 C 788.11863 840.30649 789.28711 840.91326 790.46875 841.5 C 829.72035 860.922 869.10635 880.075 908.71875 898.75 C 926.17065 906.958 917.84405 903.046 933.71875 910.5 C 950.66595 918.237 987.1347 838.33075 970.1875 830.59375 C 954.454 823.61775 962.71075 827.2995 945.46875 819.5625 C 909.84921 803.30844 874.51807 786.44477 839.375 769.1875 C 860.81936 740.35662 881.62362 710.94706 896.59375 678.1875 C 910.22795 642.5705 917.82385 606.52725 889.28125 575.65625 C 860.50665 554.70325 838.53945 552.32275 803.59375 554.96875 C 788.01409 556.621 772.496 558.85562 757.125 561.75 C 752.72693 541.40141 748.65237 520.98103 745.78125 500.34375 C 745.30848 496.97976 744.86117 493.61583 744.40625 490.25 C 762.0591 509.5754 797.65168 531.36579 805.3125 521.15625 C 817.7431 504.46725 830.0645 487.6675 841 469.9375 C 860.7168 438.3255 882.87815 406.27 886.65625 368.25 C 885.88775 361.51 886.08275 354.58825 884.34375 348.03125 C 876.79265 319.55625 852.1067 302.75525 824.9375 296.15625 C 792.9365 290.90425 760.74685 292.5425 728.71875 297.3125 C 727.72944 297.45367 726.73911 297.60715 725.75 297.75 C 725.51972 294.47961 725.28817 291.20834 725.0625 287.9375 C 721.5435 242.1145 715.91885 196.02025 717.78125 150.03125 C 719.47136 137.84469 682.35392 128.44268 655.90625 128.65625 z M 395.25 239.3125 C 389.5519 239.6385 383.85445 239.95625 378.15625 240.28125 C 326.28315 246.86625 275.32165 258.932 224.40625 270.625 C 177.20055 282.073 129.8403 293.6655 84.3125 310.8125 L 84.3125 310.84375 C 67.1542 318.38375 102.68545 399.25875 119.84375 391.71875 C 155.67594 376.85068 193.33385 366.95392 230.9375 357.59375 C 228.15511 361.97904 225.40735 366.39112 222.65625 370.78125 C 188.78035 426.50625 161.2253 485.67525 135 545.28125 C 110.8015 600.95225 90.89775 658.375 77.15625 717.5 C 72.71385 744.594 74.1588 731.327 72.625 757.25 C 72.0224 775.837 159.6475 778.68075 160.25 760.09375 C 159.9118 746.20975 159.64385 754.13075 161.90625 736.34375 C 168.9795 702.7627 178.70424 669.89635 190.3125 637.65625 C 193.27734 661.3382 196.2754 685.018 199.34375 708.6875 C 205.07755 749.8065 209.3445 791.185 217.75 831.875 C 219.1364 836.436 220.51985 841.0015 221.90625 845.5625 C 225.00062 854.62044 248.36304 851.538 269.625 844.03125 C 276.2827 866.66248 288.63216 889.38832 298.1875 886.25 C 332.5828 873.31 367.6013 862.19375 403.0625 852.59375 C 430.3961 845.26275 458.35865 840.77425 486.65625 840.40625 C 503.86409 839.90989 503.03469 765.04095 488.15625 753.875 C 493.23807 725.41359 497.22231 696.77397 498.96875 667.875 C 501.13515 629.239 503.35755 589.78125 492.40625 552.15625 C 476.67415 512.85525 454.0102 490.62225 409.9375 488.78125 C 375.7216 489.99225 342.51655 497.869 310.71875 510.625 C 278.94295 524.017 247.6651 539.5505 222.9375 564.1875 C 219.34104 568.1482 222.12459 575.79351 228.1875 584.40625 C 221.95711 584.96611 215.79374 585.89422 210.15625 587.15625 C 211.20184 584.68657 212.24936 582.21229 213.3125 579.75 C 237.8325 524.075 263.6839 468.812 295.75 417 C 312.9632 390.075 330.22445 362.3705 353.78125 340.4375 C 355.96597 338.49277 356.3771 335.2359 355.46875 331.1875 C 366.28868 329.50373 377.15212 328.07734 388.0625 327 C 391.559 326.97 395.066 326.9575 398.5625 326.9375 C 417.1478 326.2345 413.8353 238.6095 395.25 239.3125 z M 783.40625 380.125 C 786.33652 380.0994 789.24273 380.17142 792.15625 380.34375 C 791.86448 381.03553 791.56131 381.71431 791.21875 382.375 C 783.80625 396.673 775.3727 410.3565 766.9375 424.0625 C 758.95746 437.20646 749.98134 449.64448 740.78125 461.9375 C 737.66785 436.23802 735.0304 410.4973 732.6875 384.71875 C 735.35208 384.34569 738.02129 383.95211 740.6875 383.59375 C 754.70087 382.40375 769.12432 380.24977 783.40625 380.125 z M 805.5 382 C 806.61713 382.22488 807.73239 382.4775 808.84375 382.75 C 809.65395 383.174 810.6682 383.32525 811.25 384.03125 C 811.34286 384.14355 808.25607 383.97378 805.5 382 z M 648.53125 400.09375 C 651.9565 437.4544 655.89476 474.75763 660.84375 511.96875 C 664.06697 536.45164 668.79466 560.67621 673.78125 584.84375 C 653.6228 592.48725 633.71268 600.80038 614.53125 610.5625 C 614.78906 589.37276 614.63936 568.17264 613.90625 546.96875 C 612.78315 507.75875 610.3204 468.461 612.0625 429.25 C 612.475 423.61248 604.74249 419.09096 593.71875 416.03125 C 602.32219 413.0401 611.01166 410.37102 619.59375 407.71875 C 629.17478 404.92924 638.83925 402.40616 648.53125 400.09375 z M 407 576.6875 C 408.43453 576.66957 409.87279 576.67263 411.3125 576.71875 C 422.21 579.24875 408.9375 577.8225 408.9375 578.5625 C 408.9444 579.9335 409.5617 581.25975 409.875 582.59375 C 415.2641 609.07275 413.45155 636.342 412.03125 663.125 C 410.11275 696.797 404.3063 729.98625 397.25 762.90625 C 396.99895 763.94727 397.07255 763.64423 396.875 764.46875 C 391.30547 765.78782 385.77859 767.22363 380.25 768.75 C 352.97233 776.21388 325.95159 784.47686 299.03125 793.09375 C 292.93202 761.60055 290.00078 729.49998 285.375 697.78125 C 282.3598 673.41264 279.3548 649.02294 276.84375 624.59375 C 281.97691 626.29836 286.13166 626.23001 288.46875 623.65625 C 304.23385 608.50925 324.5031 599.51925 344.4375 591.28125 C 364.53872 584.17125 385.48209 576.95642 407 576.6875 z M 830.65625 641.875 C 834.19768 642.1421 836.91473 642.8456 837.21875 644.40625 C 837.59535 646.33925 833.3634 643.51575 831.5625 642.71875 C 831.24925 642.4351 830.95037 642.15202 830.65625 641.875 z M 812.0625 642.0625 C 812.5328 642.22566 814.24093 642.17446 816.5625 642.0625 C 816.07343 643.39335 815.54218 644.84817 814.90625 646.4375 C 800.5502 676.19202 780.79247 702.83622 761.09375 729.28125 C 741.3849 718.78417 721.83762 707.95964 702.5625 696.65625 C 692.4302 690.91542 682.3023 685.15598 672.0625 679.5625 C 684.84 673.68615 697.98413 668.52743 711.15625 663.625 C 743.76305 652.13 777.6576 645.0075 812.0625 642.0625 z "
     id="path10575" />
</svg>
