<?xml version="1.0" encoding="utf-8" ?>

<!DOCTYPE svg PUBLIC "-//W3C//DTD SVG 1.1//EN" 
  "http://www.w3.org/Graphics/SVG/1.1/DTD/svg11.dtd">
<svg 
    xmlns="http://www.w3.org/2000/svg"
    xmlns:xlink="http://www.w3.org/1999/xlink"
    xmlns:sodipodi="http://sodipodi.sourceforge.net/DTD/sodipodi-0.dtd"
    xmlns:inkscape="http://www.inkscape.org/namespaces/inkscape"
    width="1024" height="1024" id="U7897">
<path d="m 11358.291,50503.688 c 38.294,-0.808 76.457,-4.598 114.607,-7.79 41.171,-3.881 82.49,-5.682 123.707,-1.898 16.664,1.438 32.304,6.124 47.442,12.947 16.732,8.551 -23.579,87.425 -40.31,78.873 l 0,0 c 5.416,0.159 -17.796,-5.889 -16.168,-4.618 -35.681,-4.296 -71.623,-2.088 -107.331,1.009 -39.591,3.422 -79.148,7.328 -118.816,9.787 -18.733,0.664 -21.865,-87.646 -3.131,-88.31 z" id="path12686" inkscape:connector-curvature="0" style="fill:#501616;fill-opacity:1;fill-rule:nonzero;stroke:#f9f9f9;stroke-width:0.1;stroke-miterlimit:4;stroke-dasharray:none" transform="translate(-11264, -50176)"/><path d="m 11558.968,50586.182 c -19.99,22.838 -33.667,50.325 -47.279,77.211 -25.649,53.577 -46.125,109.419 -65.68,165.444 -13.964,41.429 -26.755,83.298 -36.859,125.846 -2.097,11.404 -1.729,6.572 -1.958,14.403 -2.075,18.601 -89.759,8.819 -87.684,-9.782 l 0,0 c 2.392,-16.936 0.847,-8.312 4.737,-25.857 11.729,-44.895 25.619,-89.204 40.7,-133.082 20.969,-59.344 42.712,-118.536 69.32,-175.628 17.003,-34.475 34.623,-69.113 59.636,-98.616 12.741,-13.803 77.808,46.258 65.067,60.061 z" id="path12688" inkscape:connector-curvature="0" style="fill:#501616;fill-opacity:1;fill-rule:nonzero;stroke:#f9f9f9;stroke-width:0.1;stroke-miterlimit:4;stroke-dasharray:none" transform="translate(-11264, -50176)"/><path d="m 11495.653,50790.96 c -0.982,28.605 2.099,57.122 6.078,85.399 3.791,25.072 9.438,50.002 21.336,72.539 3.637,5.283 1.78,3.348 5.033,6.276 11.664,14.657 -57.429,69.641 -69.093,54.984 l 0,0 c -10.541,-14.147 -5.605,-6.726 -14.75,-22.301 -14.979,-31.445 -24.302,-64.847 -28.898,-99.408 -4.64,-33.303 -8.085,-66.794 -8.137,-100.461 0.63,-18.759 89.062,-15.787 88.431,2.972 z" id="path12702" inkscape:connector-curvature="0" style="fill:#501616;fill-opacity:1;fill-rule:nonzero;stroke:#f9f9f9;stroke-width:0.1;stroke-miterlimit:4;stroke-dasharray:none" transform="translate(-11264, -50176)"/><path d="m 11470.594,50761.246 c 28.772,-12.397 59.388,-19.352 90.134,-24.69 29.02,-5.219 57.417,-4.009 85.27,5.45 31.089,13.188 45.74,39.737 53.15,71.132 5.176,32.387 -2.906,63.967 -12.088,94.791 -8.8,26.873 -18.578,53.412 -27.971,80.081 -1.151,3.136 -2.301,6.272 -3.452,9.407 -6.589,17.495 -89.062,-13.566 -82.473,-31.061 l 0,0 c 1.066,-2.749 2.131,-5.499 3.197,-8.248 9.249,-24.943 18.473,-49.909 26.731,-75.201 4.993,-16.749 10.363,-33.897 9.833,-51.574 -0.683,-6.424 -0.822,-3.94 2.302,-5.9 0.295,-0.185 -0.366,-0.593 -0.55,-0.889 -9.929,-7.93 -28.266,-1.377 -39.303,-1.598 -22.723,3.733 -45.552,8.493 -66.623,18.082 -16.924,8.094 -55.081,-71.688 -38.157,-79.782 z" id="path12704" inkscape:connector-curvature="0" style="fill:#501616;fill-opacity:1;fill-rule:nonzero;stroke:#f9f9f9;stroke-width:0.1;stroke-miterlimit:4;stroke-dasharray:none" transform="translate(-11264, -50176)"/><path d="m 11472.375,50953.053 c 32.955,-6.745 66.097,-12.264 99.43,-16.756 28.516,-4.08 57.353,-5.794 85.791,-10.405 18.464,-2.76 31.477,84.282 13.012,87.043 l 0,0 c -28.97,4.06 -58.2,5.893 -87.2,9.756 -31.579,4.226 -63.02,9.377 -93.954,17.124 -18.405,3.623 -35.484,-83.139 -17.079,-86.762 z" id="path12706" inkscape:connector-curvature="0" style="fill:#501616;fill-opacity:1;fill-rule:nonzero;stroke:#f9f9f9;stroke-width:0.1;stroke-miterlimit:4;stroke-dasharray:none" transform="translate(-11264, -50176)"/><path d="m 11976.573,50327.923 c 18.019,19.166 34.556,39.632 49.92,60.966 2.454,3.861 4.907,7.722 7.361,11.583 9.825,15.867 -64.972,62.183 -74.797,46.316 l 0,0 c -1.372,-2.317 -2.744,-4.634 -4.116,-6.951 -12.506,-17.829 -26.221,-34.871 -41.795,-50.135 -13.105,-13.454 50.322,-75.234 63.427,-61.779 z" id="path12708" inkscape:connector-curvature="0" style="fill:#501616;fill-opacity:1;fill-rule:nonzero;stroke:#f9f9f9;stroke-width:0.1;stroke-miterlimit:4;stroke-dasharray:none" transform="translate(-11264, -50176)"/><path d="m 11752.781,50542.016 c -6.528,23.754 -12.957,47.533 -19.094,71.39 -4.507,2.53 -5.476,48.618 -6.148,24.37 -2.949,-6.081 -5.897,-12.161 -8.845,-18.242 12.842,13.788 -52.156,74.327 -64.998,60.539 l 0,0 c -4.195,-7.419 -8.39,-14.838 -12.585,-22.256 -2.939,-22.944 0.976,-44.441 7.601,-66.577 6.134,-23.202 12.561,-46.34 17.937,-69.731 4.35,-18.272 90.482,2.236 86.132,20.507 z" id="path12714" inkscape:connector-curvature="0" style="fill:#501616;fill-opacity:1;fill-rule:nonzero;stroke:#f9f9f9;stroke-width:0.1;stroke-miterlimit:4;stroke-dasharray:none" transform="translate(-11264, -50176)"/><path d="m 11755.861,50503.501 c 33.965,-13.814 69.956,-20.976 105.957,-27.029 46.222,-6.816 92.831,-10.486 139.391,-14.089 40.117,-3.106 80.334,-4.63 120.564,-3.895 26.911,0.42 53.527,4.143 79.331,11.714 17.641,5.402 32.822,15.3 46.474,27.45 13.62,12.188 22.036,27.418 27.855,44.504 6.488,25.71 -2.065,48.755 -13.599,71.403 -8.671,16.524 -86.567,-24.35 -77.897,-40.874 l 0,0 c 1.873,-3.307 4.36,-12.551 6.59,-5.34 2.5,3.397 -1.224,-3.76 -2.458,-4.051 -3.835,-3.646 -7.674,-7.058 -12.855,-8.728 -17.875,-5.955 -36.712,-7.947 -55.475,-8.685 -37.328,-1.084 -74.664,0.242 -111.902,3.008 -43.921,3.33 -87.89,6.752 -131.476,13.269 -28.92,4.961 -58.103,10.406 -85.062,22.456 -17.207,7.517 -52.644,-73.596 -35.438,-81.113 z" id="path12716" inkscape:connector-curvature="0" style="fill:#501616;fill-opacity:1;fill-rule:nonzero;stroke:#f9f9f9;stroke-width:0.1;stroke-miterlimit:4;stroke-dasharray:none" transform="translate(-11264, -50176)"/><path d="m 11732.295,50636.982 c 30.106,-3.313 60.205,-6.686 90.329,-9.833 33.291,-3.49 66.608,-6.704 99.94,-9.771 8.36,-0.765 16.716,-1.578 25.065,-2.456 18.684,-1.666 26.537,86.413 7.852,88.079 l 0,0 c -8.555,0.632 -17.11,1.257 -25.665,1.894 -32.694,2.403 -65.343,5.36 -97.931,8.925 -29.072,3.178 -58.149,6.44 -87.068,10.822 -18.595,2.657 -31.118,-85.003 -12.522,-87.66 z" id="path12718" inkscape:connector-curvature="0" style="fill:#501616;fill-opacity:1;fill-rule:nonzero;stroke:#f9f9f9;stroke-width:0.1;stroke-miterlimit:4;stroke-dasharray:none" transform="translate(-11264, -50176)"/><path d="m 11851.909,50703.297 c -10.582,34.833 -20.563,69.83 -31.695,104.501 -15.149,46.419 -31.834,92.313 -47.99,138.386 -6.837,19.38 -13.395,38.852 -18.832,58.674 -5.211,17.894 -89.565,-6.671 -84.354,-24.566 l 0,0 c 6.487,-21.26 13.709,-42.274 21.339,-63.152 16.175,-45.049 32.687,-89.992 47.287,-135.585 10.962,-34.854 20.731,-70.022 30.025,-105.355 5.748,-17.865 89.969,9.232 84.22,27.097 z" id="path12720" inkscape:connector-curvature="0" style="fill:#501616;fill-opacity:1;fill-rule:nonzero;stroke:#f9f9f9;stroke-width:0.1;stroke-miterlimit:4;stroke-dasharray:none" transform="translate(-11264, -50176)"/><path d="m 11751.502,50795.132 c 25.539,-9.959 52.499,-15.507 79.274,-20.986 24.466,-4.993 49.262,-8.19 74.238,-8.401 30.508,0.888 46.659,10.606 61.11,37.713 7.762,22.234 2.078,43.822 -5.407,65.157 -12.29,30.738 -28.358,59.773 -43.738,89.03 -17.853,33.435 -34.41,67.53 -50.452,101.862 -10.689,23.575 -20.274,47.54 -35.624,68.519 -11.611,14.727 -81.034,-40.006 -69.423,-54.733 l 0,0 c 10.128,-6.142 18.409,-41.4 26.085,-51.074 16.812,-35.24 33.977,-70.313 52.198,-104.85 13.258,-25.621 27.08,-51.073 37.738,-77.923 3.683,-10.523 2.414,-15.957 6.305,-2.735 3.979,6.27 4.773,8.954 11.066,13.234 4.469,3.039 7.656,4.339 12.575,4.912 0.149,0.02 -0.18,-0.238 -0.27,-0.357 -0.876,-0.145 -1.753,-0.29 -2.63,-0.435 -18.895,-0.578 -37.682,2.451 -56.19,5.971 -20.638,4.225 -41.586,8.257 -61.199,16.131 -17.191,7.564 -52.846,-73.472 -35.656,-81.035 z" id="path12722" inkscape:connector-curvature="0" style="fill:#501616;fill-opacity:1;fill-rule:nonzero;stroke:#f9f9f9;stroke-width:0.1;stroke-miterlimit:4;stroke-dasharray:none" transform="translate(-11264, -50176)"/><path d="m 11788.159,50900.147 c 24.72,10.628 49.764,20.457 74.427,31.226 16.496,7.461 8.565,3.882 23.791,10.741 16.946,7.762 -19.644,87.645 -36.59,79.883 l 0,0 c -14.688,-6.841 -7.22,-3.372 -22.407,-10.405 -24.247,-10.7 -48.894,-20.4 -73.625,-29.922 -17.293,-7.299 17.111,-88.822 34.404,-81.523 z" id="path12724" inkscape:connector-curvature="0" style="fill:#501616;fill-opacity:1;fill-rule:nonzero;stroke:#f9f9f9;stroke-width:0.1;stroke-miterlimit:4;stroke-dasharray:none" transform="translate(-11264, -50176)"/><path d="m 11997.164,50669.232 c 23.593,-3.538 47.089,-7.681 70.628,-11.552 20.24,-3.35 40.669,-5.349 61.11,-6.967 29.727,-1.882 44.104,3.965 64.766,25.935 17.087,27.286 14.374,58.077 9.437,88.432 -7.01,32.543 -18.081,64.036 -29.256,95.337 -6.243,17.032 -12.13,34.24 -21.021,50.091 -15.936,23.648 -41.124,28.359 -67.633,28.526 -15.227,-0.854 -7.669,-0.263 -22.677,-1.765 -18.601,-1.872 -9.775,-89.559 8.827,-87.686 l 0,0 c 9.582,0.972 5.026,0.604 13.664,1.158 15.662,0.114 -3.937,2.921 -7.765,13.375 -0.53,2.092 -0.665,2.271 1.27,-1.978 3.135,-6.883 6.033,-13.928 8.809,-20.96 1.406,-3.562 2.745,-7.149 4.117,-10.724 9.682,-26.105 19.021,-52.469 25.099,-79.681 0.5,-2.943 1.719,-23.802 2.543,-25.549 0.911,-1.931 5.516,17.626 3.989,5.01 5.792,4.866 5.839,5.865 12.772,8.268 7.187,2.492 5.91,-0.662 -0.632,0.367 -17.828,1.123 -35.658,2.611 -53.304,5.461 -23.089,3.724 -46.151,7.658 -69.121,12.054 -18.488,3.314 -34.11,-83.839 -15.622,-87.152 z" id="path12726" inkscape:connector-curvature="0" style="fill:#501616;fill-opacity:1;fill-rule:nonzero;stroke:#f9f9f9;stroke-width:0.1;stroke-miterlimit:4;stroke-dasharray:none" transform="translate(-11264, -50176)"/><path d="m 12055.468,50740.573 c -3.586,33.13 -9.342,65.964 -15.136,98.763 -6.957,35.96 -12.5,72.131 -15.387,108.646 -1.481,27.057 -1.309,54.511 5.915,80.779 3.742,11.361 11.998,14.031 22.606,16.925 24.831,5.261 50.43,2.668 75.474,0.548 22.725,-2.412 45.811,-4.954 66.875,-14.302 5.85,-2.851 10.674,-7.12 15.563,-11.313 14.48,-11.789 70.053,56.472 55.573,68.261 l 0,0 c -11.852,9.411 -23.819,18.58 -37.947,24.439 -29.79,11.642 -60.932,17.696 -92.839,20.047 -37.299,3.035 -75.269,5.696 -111.727,-4.871 -39.988,-15.07 -66.022,-36.303 -78.668,-78.565 -8.389,-35.783 -10.65,-72.377 -7.774,-109.056 3.292,-39.147 9.076,-77.958 16.576,-116.524 5.209,-30.157 10.555,-60.385 12.728,-90.945 1.521,-18.704 89.688,-11.535 88.168,7.168 z" id="path12728" inkscape:connector-curvature="0" style="fill:#501616;fill-opacity:1;fill-rule:nonzero;stroke:#f9f9f9;stroke-width:0.1;stroke-miterlimit:4;stroke-dasharray:none" transform="translate(-11264, -50176)"/></svg>