<?xml version="1.0" encoding="utf-8" ?>

<!DOCTYPE svg PUBLIC "-//W3C//DTD SVG 1.1//EN" 
  "http://www.w3.org/Graphics/SVG/1.1/DTD/svg11.dtd">
<svg 
    xmlns="http://www.w3.org/2000/svg"
    xmlns:xlink="http://www.w3.org/1999/xlink"
    xmlns:sodipodi="http://sodipodi.sourceforge.net/DTD/sodipodi-0.dtd"
    xmlns:inkscape="http://www.inkscape.org/namespaces/inkscape"
    width="1024" height="1024" id="U79BB">
<path d="m 11770.653,28760.966 c 11.55,18.6 25.016,35.906 38.427,53.179 7.902,10.176 16.241,20.004 23.755,30.473 10.649,15.506 -62.449,65.706 -73.098,50.2 l 0,0 c -5.772,-9.664 -14.032,-17.706 -20.348,-26.994 -14.632,-19.145 -29.192,-38.356 -42.738,-58.294 -10.302,-15.698 63.7,-64.262 74.002,-48.564 z" id="path9570" inkscape:connector-curvature="0" style="fill:#2b0000;fill-opacity:1;fill-rule:nonzero;stroke:#f9f9f9;stroke-width:0.1;stroke-miterlimit:4;stroke-dasharray:none" transform="translate(-11264, -28672)"/><path d="m 11464.985,28905.215 c 42.09,-9.792 85.36,-12.981 128.305,-16.724 66.058,-5.338 132.186,-9.758 198.337,-13.748 54.083,-3.095 108.204,-5.489 162.342,-7.345 12.037,2.026 48.055,-4.928 58.845,0.202 10.111,4.807 19.282,11.383 28.923,17.074 11.748,14.777 -57.908,70.159 -69.656,55.383 l 0,0 c 9.349,5.188 38.972,16.445 28.385,14.943 -14.575,-2.069 -29.618,0.195 -44.231,-0.539 -53.202,0.933 -106.383,2.863 -159.513,5.807 -65.241,3.838 -130.454,8.267 -195.548,14.125 -37.692,3.641 -75.887,6.421 -112.624,16.074 -18.085,4.999 -41.65,-80.253 -23.565,-85.252 z" id="path9572" inkscape:connector-curvature="0" style="fill:#2b0000;fill-opacity:1;fill-rule:nonzero;stroke:#f9f9f9;stroke-width:0.1;stroke-miterlimit:4;stroke-dasharray:none" transform="translate(-11264, -28672)"/><path d="m 11602.341,29024.077 c -7.955,29.651 -13.108,59.942 -17.866,90.239 -3.733,28.172 -8.542,56.508 -7.331,85.016 3.499,13.881 1.774,3.476 -3.976,-3.545 21.975,0.618 43.976,-0.732 65.933,-1.765 40.596,-1.99 81.25,-2.075 121.88,-2.804 36.434,-0.154 72.788,-2.356 109.044,-5.8 18.161,-1.815 36.298,-3.862 54.425,-5.986 4.926,-0.583 2.613,-0.308 6.941,-0.825 18.735,-1.95 27.928,86.37 9.193,88.32 l 0,0 c -4.391,0.391 -2.045,0.182 -7.039,0.627 -18.574,1.662 -37.143,3.372 -55.72,5.01 -38.351,3.236 -76.778,5.442 -115.279,5.619 -39.686,0.717 -79.401,0.86 -119.044,3.046 -33.493,1.803 -67.799,5.937 -100.697,-2.56 -5.632,-2.466 -11.647,-4.195 -16.895,-7.398 -25.104,-15.326 -35.279,-41.839 -36.683,-69.99 -0.331,-33.722 4.132,-67.149 9.168,-100.446 5.13,-32.836 10.767,-65.593 17.992,-98.042 4.515,-18.233 90.469,3.05 85.954,21.284 z" id="path9584" inkscape:connector-curvature="0" style="fill:#2b0000;fill-opacity:1;fill-rule:nonzero;stroke:#f9f9f9;stroke-width:0.1;stroke-miterlimit:4;stroke-dasharray:none" transform="translate(-11264, -28672)"/><path d="m 12032.177,29047.848 c -12.082,34.193 -17.711,70.246 -23.149,105.968 -5.804,38.137 -8.451,76.612 -8.141,115.163 0.167,3.543 0.334,7.086 0.501,10.629 0.592,18.631 -87.237,21.42 -87.829,2.789 l 0,0 c -0.09,-4.531 -0.179,-9.062 -0.268,-13.593 0.459,-42.824 3.728,-85.537 10.125,-127.905 6.192,-41.376 12.86,-82.899 25.496,-122.888 6.329,-17.663 89.595,12.174 83.265,29.837 z" id="path9586" inkscape:connector-curvature="0" style="fill:#2b0000;fill-opacity:1;fill-rule:nonzero;stroke:#f9f9f9;stroke-width:0.1;stroke-miterlimit:4;stroke-dasharray:none" transform="translate(-11264, -28672)"/><path d="m 11842.521,29048.634 c -26.939,23.458 -53.948,46.822 -81.293,69.806 -31.886,26.529 -64.742,51.87 -98.728,75.647 -12.204,9.345 -25.773,15.009 -40.077,20.121 -17.936,5.398 -43.384,-79.152 -25.448,-84.551 l 0,0 c 4.362,-1.321 11.898,-3.549 15.925,-7.668 32.004,-21.598 62.665,-45.101 92.261,-69.896 26.624,-22.622 53.064,-45.469 78.509,-69.424 13.993,-12.484 72.844,53.481 58.851,65.965 z" id="path9588" inkscape:connector-curvature="0" style="fill:#2b0000;fill-opacity:1;fill-rule:nonzero;stroke:#f9f9f9;stroke-width:0.1;stroke-miterlimit:4;stroke-dasharray:none" transform="translate(-11264, -28672)"/><path d="m 11652.824,28985.728 c 32.849,20.995 61.713,47.517 91.003,73.074 33.93,29.515 67.718,59.187 99.849,90.663 13.289,13.087 25.886,26.815 37.639,41.288 11.566,14.705 -57.755,69.225 -69.321,54.52 l 0,0 c -8.994,-12.049 -19.237,-23.067 -29.71,-33.842 -30.408,-30.507 -62.726,-58.977 -95.287,-87.155 -24.916,-21.51 -49.453,-44.085 -77.58,-61.379 -16.37,-9.208 27.037,-86.377 43.407,-77.169 z" id="path9590" inkscape:connector-curvature="0" style="fill:#2b0000;fill-opacity:1;fill-rule:nonzero;stroke:#f9f9f9;stroke-width:0.1;stroke-miterlimit:4;stroke-dasharray:none" transform="translate(-11264, -28672)"/><path d="m 11552.98,29390.942 c -0.113,36.729 1.832,73.397 5.092,109.968 3.385,34.462 9.485,68.701 21.002,101.406 -1.856,2.409 14.349,24.869 9.389,17.094 13.942,12.605 -45.479,78.332 -59.422,65.727 l 0,0 c -15.392,-15.685 -26.173,-33.92 -33.046,-54.924 -12.794,-39.454 -20.574,-80.232 -24.344,-121.549 -3.454,-38.27 -5.548,-76.608 -7.065,-115.002 -0.577,-18.751 87.817,-21.471 88.394,-2.72 z" id="path9592" inkscape:connector-curvature="0" style="fill:#2b0000;fill-opacity:1;fill-rule:nonzero;stroke:#f9f9f9;stroke-width:0.1;stroke-miterlimit:4;stroke-dasharray:none" transform="translate(-11264, -28672)"/><path d="m 11535.596,29377.87 c 30.85,-13.332 63.723,-20.547 96.576,-26.887 43.261,-7.278 86.996,-11.148 130.679,-14.845 37.407,-3.148 74.868,-5.56 112.417,-5.219 25.913,0.185 51.089,3.85 74.759,14.511 22.433,11.999 33.754,31.642 39.704,55.552 4.813,29.872 3.301,60.313 2.3,90.421 -1.696,36.837 -3.049,73.669 -2.104,110.542 0.355,20.443 4.036,40.628 4.101,61.058 -0.783,4.639 -1.567,9.277 -2.35,13.916 -4.613,18.234 -90.57,-3.512 -85.957,-21.746 l 0,0 c -0.07,1.824 -0.142,3.647 -0.213,5.471 3.414,-11.127 -6.165,-44.528 -2.977,-56.93 -0.592,-38.308 0.78,-76.569 2.273,-114.845 0.56,-22.806 1.445,-45.777 -1.375,-68.478 0.04,-1.496 4.681,4.5 7.525,4.415 -10.067,-6.965 -25.48,-4.391 -37.021,-6.298 -34.669,-0.786 -69.274,1.529 -103.824,4.27 -40.534,3.361 -81.117,6.926 -121.243,13.756 -25.594,5.058 -51.452,10.36 -75.297,21.322 -16.968,8.055 -54.941,-71.931 -37.973,-79.986 z" id="path9594" inkscape:connector-curvature="0" style="fill:#2b0000;fill-opacity:1;fill-rule:nonzero;stroke:#f9f9f9;stroke-width:0.1;stroke-miterlimit:4;stroke-dasharray:none" transform="translate(-11264, -28672)"/><path d="m 11777.271,29287.463 c -15.398,34.338 -29.269,69.333 -43.327,104.233 -16.193,40.491 -33.102,80.69 -49.633,121.044 -3.889,13.38 -13.168,26.482 -14.862,40.198 3.917,-13.639 -7.222,-25.759 -17.852,-32.19 -8.078,-2.185 4.175,-1.58 4.3,-1.587 11.155,-0.602 22.306,-1.319 33.458,-1.973 33.33,-2.304 66.681,-0.723 99.933,1.832 22.762,1.51 45.568,4.272 68.412,3.348 1.079,-0.193 2.157,-0.387 3.235,-0.58 -0.105,-0.131 -0.21,-0.261 -0.315,-0.391 18.259,-4.405 39.022,81.666 20.764,86.071 l 0,0 c -14.672,2.925 -7.38,1.909 -21.867,3.118 -25.755,0.217 -51.407,-2.176 -77.052,-4.336 -29.1,-2.321 -58.295,-3.841 -87.46,-1.468 -24.167,1.704 -48.839,5.693 -72.683,-0.359 -31.378,-14.258 -43.691,-31.942 -40.153,-66.728 4.269,-20.596 13.081,-39.55 21.525,-58.734 16.984,-39.65 33.983,-79.3 49.791,-119.438 14.125,-35.586 28.215,-71.186 42.443,-106.73 7.355,-17.256 88.697,17.415 81.343,34.67 z" id="path9600" inkscape:connector-curvature="0" style="fill:#2b0000;fill-opacity:1;fill-rule:nonzero;stroke:#f9f9f9;stroke-width:0.1;stroke-miterlimit:4;stroke-dasharray:none" transform="translate(-11264, -28672)"/><path d="m 11871.73,29486.97 c -0.228,22.439 5.432,44.192 11.708,65.538 5.163,17.768 -78.596,42.106 -83.759,24.338 l 0,0 c -8.572,-29.763 -15.83,-60.006 -16.339,-91.166 0.273,-18.751 88.664,-17.46 88.39,1.29 z" id="path9602" inkscape:connector-curvature="0" style="fill:#2b0000;fill-opacity:1;fill-rule:nonzero;stroke:#f9f9f9;stroke-width:0.1;stroke-miterlimit:4;stroke-dasharray:none" transform="translate(-11264, -28672)"/></svg>