<?xml version="1.0" encoding="utf-8" ?>

<!DOCTYPE svg PUBLIC "-//W3C//DTD SVG 1.1//EN" 
  "http://www.w3.org/Graphics/SVG/1.1/DTD/svg11.dtd">
<svg 
    xmlns="http://www.w3.org/2000/svg"
    xmlns:xlink="http://www.w3.org/1999/xlink"
    xmlns:sodipodi="http://sodipodi.sourceforge.net/DTD/sodipodi-0.dtd"
    xmlns:inkscape="http://www.inkscape.org/namespaces/inkscape"
    width="1024" height="1024" id="U79D1">
<path d="m 8537.4737,26860.065 c -18.1037,28.039 -33.8909,57.483 -49.763,86.817 -17.2857,33.174 -36.2163,65.428 -55.2218,97.631 -9.8349,16.488 -18.6317,33.553 -27.5665,50.535 -0.066,0.279 -0.1322,0.557 -0.1983,0.836 -7.9537,17.059 -88.3698,-20.436 -80.4161,-37.495 l 0,0 c 0.9877,-1.981 1.9754,-3.963 2.9631,-5.944 10.0363,-17.567 19.4867,-35.468 30.0608,-52.727 18.6522,-30.988 37.1017,-62.104 53.8096,-94.2 16.8219,-31.188 33.6724,-62.369 51.679,-92.896 10.0642,-15.837 84.7174,31.606 74.6532,47.443 z" id="path8762" inkscape:connector-curvature="0" style="fill:#2b0000;fill-opacity:1;fill-rule:nonzero;stroke:#f9f9f9;stroke-width:0.1;stroke-miterlimit:4;stroke-dasharray:none" transform="translate(-8192, -26624)"/><path d="m 8294.1868,27175.343 c 35.5914,-10.159 71.4129,-19.378 107.4442,-27.839 48.5059,-11.328 97.3945,-20.866 146.6603,-28.191 25.0946,-3.221 50.2912,-5.525 75.4458,-8.208 2.8042,-0.675 3.2103,-0.558 1.1151,-0.603 -3.0932,1.218 -6.1863,2.436 -9.2795,3.654 15.9733,-10.004 63.1303,65.295 47.157,75.299 l 0,0 c -10.2937,4.818 -19.2669,9.172 -30.7623,9.654 -23.8089,1.918 -47.6354,3.686 -71.379,6.32 -46.726,6.373 -93.0297,15.34 -138.8821,26.383 -35.1459,8.492 -70.1367,17.626 -104.4871,28.974 -18.1252,4.885 -41.1576,-80.557 -23.0324,-85.443 z" id="path8764" inkscape:connector-curvature="0" style="fill:#2b0000;fill-opacity:1;fill-rule:nonzero;stroke:#f9f9f9;stroke-width:0.1;stroke-miterlimit:4;stroke-dasharray:none" transform="translate(-8192, -26624)"/><path d="m 8523.0411,26908.716 c 2.1363,38.096 2.8136,76.25 3.2649,114.397 0.4414,53.219 -1.5745,106.408 -4.354,159.542 -2.7685,53.319 -8.7115,106.39 -14.0089,159.496 -4.2435,39.462 -5.9241,79.116 -5.6576,118.787 0.1176,18.323 1.2485,36.613 1.9808,54.914 0.013,7.796 0.171,3.505 -0.7007,12.864 -2.95,18.635 -90.7981,4.729 -87.8482,-13.907 l 0,0 c -0.2171,4.816 -0.366,5.838 -0.049,3.098 -0.015,-18.998 -1.0944,-37.991 -0.8777,-56.994 0.2837,-42.574 2.4674,-85.107 7.1169,-127.443 5.2762,-51.714 11.0113,-103.411 13.7421,-155.342 2.6927,-51.192 4.7048,-102.44 4.0133,-153.716 -0.6589,-36.104 -1.3316,-72.27 -4.7415,-108.24 -1.5817,-18.693 86.5375,-26.149 88.1192,-7.456 z" id="path8766" inkscape:connector-curvature="0" style="fill:#2b0000;fill-opacity:1;fill-rule:nonzero;stroke:#f9f9f9;stroke-width:0.1;stroke-miterlimit:4;stroke-dasharray:none" transform="translate(-8192, -26624)"/><path d="m 8455.8461,27262.124 c -15.714,21.743 -30.1002,44.416 -44.317,67.156 -13.3822,21.308 -26.3327,42.888 -37.9102,65.235 -5.0624,10.341 -9.9971,20.719 -16.0226,30.542 -10.4568,15.714 -84.5306,-33.58 -74.0738,-49.294 l 0,0 c 4.9413,-6.845 7.9918,-15.058 12.2509,-22.382 12.9179,-24.046 26.9813,-47.438 41.5225,-70.536 15.3091,-24.462 30.9423,-48.718 47.0035,-72.694 11.0251,-15.177 82.5718,36.795 71.5467,51.973 z" id="path8768" inkscape:connector-curvature="0" style="fill:#2b0000;fill-opacity:1;fill-rule:nonzero;stroke:#f9f9f9;stroke-width:0.1;stroke-miterlimit:4;stroke-dasharray:none" transform="translate(-8192, -26624)"/><path d="m 8518.1686,27202.248 c 24.9214,10.224 48.6988,22.708 71.5541,36.912 24.5188,15.217 43.3142,36.646 59.9692,59.82 9.247,12.637 15.7722,26.984 24.4527,39.967 1.313,1.25 0.5337,0.451 2.2268,2.501 11.5975,14.835 -58.3371,69.506 -69.9346,54.671 l 0,0 c -4.1795,-5.506 -1.8005,-2.294 -7.0529,-9.696 -7.4158,-11.989 -13.8249,-24.561 -21.4855,-36.4 -9.7397,-13.907 -20.1394,-27.288 -34.7541,-36.463 -18.2631,-11.545 -37.3798,-21.623 -57.7193,-29.054 -17.4495,-6.946 15.294,-89.204 32.7436,-82.258 z" id="path8770" inkscape:connector-curvature="0" style="fill:#2b0000;fill-opacity:1;fill-rule:nonzero;stroke:#f9f9f9;stroke-width:0.1;stroke-miterlimit:4;stroke-dasharray:none" transform="translate(-8192, -26624)"/><path d="m 8753.2369,26847.307 c 19.6591,20.869 38.0723,42.586 54.2368,66.276 2.8986,4.947 5.7971,9.894 8.6957,14.841 9.2897,16.111 -66.6586,59.903 -75.9483,43.792 l 0,0 c -1.8036,-3.208 -3.6071,-6.416 -5.4107,-9.624 -13.9027,-20.964 -30.7115,-39.476 -48.3825,-57.338 -12.2924,-14.172 54.5167,-72.119 66.809,-57.947 z" id="path8772" inkscape:connector-curvature="0" style="fill:#2b0000;fill-opacity:1;fill-rule:nonzero;stroke:#f9f9f9;stroke-width:0.1;stroke-miterlimit:4;stroke-dasharray:none" transform="translate(-8192, -26624)"/><path d="m 8715.4122,27029.46 c 11.599,17.511 25.2328,33.49 39.6982,48.667 11.2551,10.942 23.015,21.284 33.7184,32.777 12.5725,13.913 -53.0094,73.18 -65.5819,59.268 l 0,0 c -9.6895,-11.486 -21.921,-20.548 -32.0108,-31.675 -17.4157,-18.548 -33.7837,-38.008 -48.6304,-58.692 -10.6798,-15.445 62.1267,-65.79 72.8065,-50.345 z" id="path8774" inkscape:connector-curvature="0" style="fill:#2b0000;fill-opacity:1;fill-rule:nonzero;stroke:#f9f9f9;stroke-width:0.1;stroke-miterlimit:4;stroke-dasharray:none" transform="translate(-8192, -26624)"/><path d="m 8619.302,27248.784 c 35.2905,-3.239 70.077,-10.328 104.8298,-17.034 48.5709,-10.295 97.5255,-18.544 146.7277,-25.129 36.0361,-4.937 72.3834,-6.685 108.6401,-9.166 14.7438,-1.339 29.8042,-0.979 44.2104,-4.756 -0.017,-0.07 -0.035,-0.146 -0.052,-0.22 17.9244,-5.73 44.9369,78.767 27.0125,84.497 l 0,0 c -2.507,0.723 -5.014,1.445 -7.521,2.168 -19.1516,3.999 -38.6237,4.988 -58.1387,5.805 -34.327,1.979 -68.7345,3.328 -102.8621,7.76 -47.42,6.081 -94.5978,13.877 -141.325,24.049 -37.6849,7.525 -75.3712,15.241 -113.5107,20.143 -18.6925,1.699 -26.7031,-86.418 -8.0107,-88.117 z" id="path8776" inkscape:connector-curvature="0" style="fill:#2b0000;fill-opacity:1;fill-rule:nonzero;stroke:#f9f9f9;stroke-width:0.1;stroke-miterlimit:4;stroke-dasharray:none" transform="translate(-8192, -26624)"/><path d="m 8919.6792,26781.719 c -2.4463,37.947 -3.3346,75.951 -6.0878,113.894 -5.3832,62.598 -15.0729,124.717 -24.1276,186.86 -9.1856,62.483 -17.2343,125.122 -24.5953,187.844 -5.598,51.157 -10.45,102.394 -15.0051,153.654 -3.4984,38.443 -5.9807,76.965 -8.1408,115.502 -1.4298,26.832 -2.7441,53.68 -3.1331,80.55 0.6152,7.804 -0.6768,15.97 0.9799,23.69 2.1803,18.699 -85.97,28.977 -88.1502,10.278 l 0,0 c -1.1478,-11.978 -1.1505,-23.995 -0.8854,-36.02 0.8686,-27.874 2.4191,-55.723 4.0288,-83.562 2.3745,-39.502 5.0749,-78.989 8.8655,-118.384 4.937,-51.992 10.1587,-103.96 15.9806,-155.861 7.6256,-63.43 15.9938,-126.768 25.185,-189.991 8.6504,-60.009 17.9308,-120.005 22.7361,-180.476 2.5263,-39.299 2.9351,-78.626 4.4932,-117.962 2.1178,-18.637 89.9741,-8.653 87.8562,9.984 z" id="path8778" inkscape:connector-curvature="0" style="fill:#2b0000;fill-opacity:1;fill-rule:nonzero;stroke:#f9f9f9;stroke-width:0.1;stroke-miterlimit:4;stroke-dasharray:none" transform="translate(-8192, -26624)"/></svg>