<?xml version="1.0" encoding="utf-8" ?>

<!DOCTYPE svg PUBLIC "-//W3C//DTD SVG 1.1//EN" 
  "http://www.w3.org/Graphics/SVG/1.1/DTD/svg11.dtd">
<svg 
    xmlns="http://www.w3.org/2000/svg"
    xmlns:xlink="http://www.w3.org/1999/xlink"
    xmlns:sodipodi="http://sodipodi.sourceforge.net/DTD/sodipodi-0.dtd"
    xmlns:inkscape="http://www.inkscape.org/namespaces/inkscape"
    width="1024" height="1024" id="U7968">
<path d="m 9477.8851,36990.97 c 42.197,-8.138 84.1774,-17.375 126.263,-26.073 55.3616,-11.81 111.1216,-21.387 167.3619,-27.787 33.4387,-3.654 67.0739,-4.119 100.6549,-2.993 13.5244,1.21 6.6841,0.236 20.5087,3.008 18.2204,4.632 -3.6142,90.524 -21.8347,85.892 l 0,0 c 2.9284,-0.352 2.0157,-0.101 -2.7046,-0.867 -29.0572,-1.74 -58.2009,-1.861 -87.205,1.036 -53.4963,5.599 -106.5131,14.569 -159.0742,26.019 -42.2292,9.014 -84.3698,18.42 -126.3842,28.391 -18.3762,3.731 -35.962,-82.896 -17.5858,-86.626 z" id="path10461" inkscape:connector-curvature="0" style="fill:#c83737;fill-opacity:1;fill-rule:nonzero;stroke:#f9f9f9;stroke-width:0.1;stroke-miterlimit:4;stroke-dasharray:none" transform="translate(-9216, -36864)"/><path d="m 9547.3193,37151.61 c -1.1882,29.88 0.7797,59.778 4.6892,89.391 3.893,25.82 11.7298,50.791 21.3304,75.002 1.274,2.691 2.548,5.381 3.822,8.071 7.7271,16.975 -72.2921,53.401 -80.0192,36.426 l 0,0 c -1.8859,-4.251 -3.7719,-8.503 -5.6578,-12.754 -11.7906,-30.94 -21.5172,-62.73 -26.0599,-95.626 -4.2918,-34.202 -6.4745,-68.606 -6.4533,-103.089 0.5472,-18.742 88.8958,-16.162 88.3486,2.579 z" id="path10463" inkscape:connector-curvature="0" style="fill:#c83737;fill-opacity:1;fill-rule:nonzero;stroke:#f9f9f9;stroke-width:0.1;stroke-miterlimit:4;stroke-dasharray:none" transform="translate(-9216, -36864)"/><path d="m 9507.8042,37101.461 c 35.8935,-17.941 75.2307,-26.002 114.4461,-32.802 52.4053,-8.202 105.3494,-11.76 158.3171,-13.424 45.971,-1.397 91.9451,-0.08 137.7118,4.369 28.9304,3.385 57.9127,7.438 85.7738,16.128 40.543,15.865 49.098,42.609 41.753,83.361 -11.021,40.43 -25.897,79.682 -39.288,119.364 -11.9842,35.007 -20.2238,71.156 -32.7482,105.973 -6.5112,17.455 -88.7939,-13.239 -82.2827,-30.694 l 0,0 c 13.1558,-33.544 20.8129,-68.979 32.9723,-102.883 12.1161,-36.13 25.1851,-72.019 34.9561,-108.876 0.346,-1.271 -0.1863,-4.295 1.0379,-3.811 0.6604,0.261 6.2167,22.082 17.3849,22.437 0.6623,0.02 -1.0802,-0.768 -1.6204,-1.151 -21.2346,-8.109 -44.5893,-9.419 -66.8029,-13.16 -41.927,-4.531 -84.0957,-5.725 -126.2516,-4.6 -48.8212,1.393 -97.6339,4.571 -145.9057,12.343 -29.9475,5.348 -60.4319,10.971 -87.5995,25.361 -16.5325,8.878 -58.3866,-69.057 -41.854,-77.935 z" id="path10465" inkscape:connector-curvature="0" style="fill:#c83737;fill-opacity:1;fill-rule:nonzero;stroke:#f9f9f9;stroke-width:0.1;stroke-miterlimit:4;stroke-dasharray:none" transform="translate(-9216, -36864)"/><path d="m 9684.6118,37006.578 c 1.0218,43.854 6.1309,87.523 10.337,131.159 4.7334,46.351 8.4181,93.074 20.0088,138.331 1.0546,2.729 2.1092,5.458 3.1638,8.188 5.9371,17.65 -77.2647,45.637 -83.2017,27.987 l 0,0 c -1.6573,-5.332 -3.3146,-10.665 -4.9719,-15.997 -11.0196,-49.372 -15.7922,-99.744 -20.6602,-150.031 -4.6812,-46.096 -10.1543,-92.147 -13.0221,-138.401 -0.2621,-18.741 88.0842,-19.977 88.3463,-1.236 z" id="path10467" inkscape:connector-curvature="0" style="fill:#c83737;fill-opacity:1;fill-rule:nonzero;stroke:#f9f9f9;stroke-width:0.1;stroke-miterlimit:4;stroke-dasharray:none" transform="translate(-9216, -36864)"/><path d="m 9847.9636,36986.687 c -4.6746,36.901 -3.8465,74.305 -4.5083,111.439 -1.1804,55.048 -5.3384,109.964 -9.0565,164.881 -1.8286,27.01 -0.874,13.916 -2.8401,39.285 -1.5804,18.439 -88.5009,10.989 -86.9206,-7.449 l 0,0 c 2.2955,-24.32 1.1719,-11.613 3.3289,-38.124 4.1392,-53.185 8.4031,-106.405 9.1678,-159.772 0.393,-41.672 -0.7973,-83.528 3.6247,-125.029 3.1329,-18.498 90.337,-3.73 87.2041,14.769 z" id="path10469" inkscape:connector-curvature="0" style="fill:#c83737;fill-opacity:1;fill-rule:nonzero;stroke:#f9f9f9;stroke-width:0.1;stroke-miterlimit:4;stroke-dasharray:none" transform="translate(-9216, -36864)"/><path d="m 9470.7171,37313.437 c 43.2482,-7.583 86.3849,-15.705 129.7587,-22.564 55.0362,-8.877 110.6014,-13.187 166.2794,-14.826 35.9136,-0.421 71.9969,-1.958 107.6529,3.097 4.4421,1.167 8.8842,2.334 13.3262,3.5 17.9215,5.44 -7.7196,89.922 -25.6411,84.483 l 0,0 c -0.5969,-0.363 -1.1939,-0.725 -1.7908,-1.088 -29.8881,-6.133 -61.0601,-2.339 -91.3021,-3.43 -51.8592,1.146 -103.627,4.954 -154.8558,13.412 -42.4379,6.919 -84.6776,14.924 -126.6799,24.144 -18.3978,3.553 -35.1453,-83.175 -16.7475,-86.728 z" id="path10471" inkscape:connector-curvature="0" style="fill:#c83737;fill-opacity:1;fill-rule:nonzero;stroke:#f9f9f9;stroke-width:0.1;stroke-miterlimit:4;stroke-dasharray:none" transform="translate(-9216, -36864)"/><path d="m 9594.2653,37433.148 c 35.0787,-9.4 71.0566,-14.925 106.893,-20.532 37.5351,-5.452 75.1762,-11.82 113.2045,-10.309 18.623,1.215 12.893,89.005 -5.7301,87.79 l 0,0 c -31.2126,-3.926 -62.9785,5.511 -93.8819,8.309 -31.2715,5.02 -62.7768,9.865 -93.1848,18.919 -17.8567,5.791 -45.1574,-78.386 -27.3007,-84.177 z" id="path10473" inkscape:connector-curvature="0" style="fill:#c83737;fill-opacity:1;fill-rule:nonzero;stroke:#f9f9f9;stroke-width:0.1;stroke-miterlimit:4;stroke-dasharray:none" transform="translate(-9216, -36864)"/><path d="m 9482.6831,37588.871 c 44.5553,-11.561 89.5262,-21.274 134.6893,-30.118 64.7238,-12.474 130.1673,-20.405 195.7744,-26.35 43.4178,-3.455 87.0606,-5.985 130.5692,-2.932 16.6274,2.408 8.2889,0.614 24.9883,5.503 17.626,6.503 -13.0293,89.593 -30.6553,83.09 l 0,0 c 4.569,0.161 3.8511,0.331 -1.9351,-1.075 -38.3322,-4.275 -77.087,-1.301 -115.445,1.012 -62.5275,5.315 -124.8824,12.824 -186.4734,25.073 -42.9913,8.744 -85.9022,18.12 -127.8957,30.941 -18.0619,5.01 -41.6787,-80.134 -23.6167,-85.144 z" id="path10476" inkscape:connector-curvature="0" style="fill:#c83737;fill-opacity:1;fill-rule:nonzero;stroke:#f9f9f9;stroke-width:0.1;stroke-miterlimit:4;stroke-dasharray:none" transform="translate(-9216, -36864)"/><path d="m 9778.5567,37605.672 c -4.3003,30.794 -6.5076,61.816 -8.349,92.836 -1.936,33.86 -2.4952,67.787 -0.1754,101.632 1.1571,12.94 0.5556,6.832 1.7701,18.326 1.666,18.638 -86.1915,26.492 -87.8575,7.854 l 0,0 c -0.9883,-13.166 -0.486,-6.121 -1.4833,-21.135 -1.8037,-37.204 -1.1676,-74.444 0.8936,-111.632 1.7932,-32.691 4.1039,-65.341 7.2225,-97.935 2.1329,-18.664 90.1119,-8.609 87.979,10.054 z" id="path10481" inkscape:connector-curvature="0" style="fill:#c83737;fill-opacity:1;fill-rule:nonzero;stroke:#f9f9f9;stroke-width:0.1;stroke-miterlimit:4;stroke-dasharray:none" transform="translate(-9216, -36864)"/><path d="m 9643.9038,37725.675 c -16.2463,14.967 -29.6234,32.52 -41.4266,51.097 -5.1401,7.934 -8.4358,16.544 -11.0344,25.546 -5.8582,17.691 -89.2548,-9.925 -83.3966,-27.616 l 0,0 c 5.5292,-15.767 11.417,-31.292 20.7102,-45.34 15.6078,-24.059 33.0222,-46.814 53.3678,-67.114 13.4549,-13.105 75.2346,50.322 61.7796,63.427 z" id="path10483" inkscape:connector-curvature="0" style="fill:#c83737;fill-opacity:1;fill-rule:nonzero;stroke:#f9f9f9;stroke-width:0.1;stroke-miterlimit:4;stroke-dasharray:none" transform="translate(-9216, -36864)"/><path d="m 9827.0838,37707.703 c 21.1479,13.148 42.9086,25.246 64.8906,36.93 19.3937,10.012 38.7506,20.051 57.1978,31.73 15.6783,10.165 -32.2396,84.073 -47.9179,73.908 l 0,0 c -15.9978,-10.774 -33.3908,-19.205 -50.3729,-28.288 -23.1801,-12.309 -46.0777,-25.114 -68.8768,-38.111 -16.1578,-9.563 28.9214,-85.731 45.0792,-76.169 z" id="path10500" inkscape:connector-curvature="0" style="fill:#c83737;fill-opacity:1;fill-rule:nonzero;stroke:#f9f9f9;stroke-width:0.1;stroke-miterlimit:4;stroke-dasharray:none" transform="translate(-9216, -36864)"/></svg>