<?xml version="1.0" encoding="UTF-8" standalone="no"?>
<svg
   xmlns:dc="http://purl.org/dc/elements/1.1/"
   xmlns:cc="http://creativecommons.org/ns#"
   xmlns:rdf="http://www.w3.org/1999/02/22-rdf-syntax-ns#"
   xmlns:svg="http://www.w3.org/2000/svg"
   xmlns="http://www.w3.org/2000/svg"
   xmlns:sodipodi="http://sodipodi.sourceforge.net/DTD/sodipodi-0.dtd"
   xmlns:inkscape="http://www.inkscape.org/namespaces/inkscape"
   width="1024"
   height="1024"
   id="U795E"
   version="1.1"
   inkscape:version="0.48.0 r9654"
   sodipodi:docname="U+795E.svg">
  <metadata
     id="metadata16">
    <rdf:RDF>
      <cc:Work
         rdf:about="">
        <dc:format>image/svg+xml</dc:format>
        <dc:type
           rdf:resource="http://purl.org/dc/dcmitype/StillImage" />
      </cc:Work>
    </rdf:RDF>
  </metadata>
  <defs
     id="defs14" />
  <sodipodi:namedview
     pagecolor="#ffffff"
     bordercolor="#666666"
     borderopacity="1"
     objecttolerance="10"
     gridtolerance="10"
     guidetolerance="10"
     inkscape:pageopacity="0"
     inkscape:pageshadow="2"
     inkscape:window-width="640"
     inkscape:window-height="480"
     id="namedview12"
     showgrid="false"
     inkscape:zoom="0.27441406"
     inkscape:cx="512"
     inkscape:cy="512"
     inkscape:window-x="0"
     inkscape:window-y="25"
     inkscape:window-maximized="0"
     inkscape:current-layer="U795E" />
  <path
     style="fill:#a02c2c;fill-opacity:1;fill-rule:nonzero;stroke:#f9f9f9;stroke-width:0.1;stroke-miterlimit:4;stroke-dasharray:none"
     d="M 659.40625 2.03125 C 642.04786 1.9250974 627.14018 5.110125 626.46875 12.6875 C 621.90082 73.2265 622.51849 133.89925 624.1875 194.53125 C 625.5241 227.27279 627.08649 260.02752 628.8125 292.75 C 600.62138 297.33019 572.49951 302.37969 544.875 309.6875 C 526.95974 315.2105 552.99099 399.648 570.90625 394.125 C 591.51716 387.97224 612.59351 383.72234 633.78125 380.03125 C 635.27917 405.03373 636.81962 430.03439 638.40625 455.03125 C 621.19637 457.79966 604.02629 460.8206 586.875 464 C 568.38297 467.283 583.88297 554.44025 602.375 551.15625 C 616.19205 547.95784 630.06061 545.15652 644 542.625 C 645.82108 571.11553 647.72474 599.59729 649.84375 628.0625 C 617.05005 640.95143 584.73329 654.93173 552.03125 668.03125 C 545.31677 662.54476 539.2327 660.01387 535.375 662.71875 C 495.2253 691.67575 486.99572 695.844 542.125 759.75 C 547.13175 765.554 557.31483 757.6225 564.90625 756.5625 C 596.29 745.10962 626.72457 731.37578 657.46875 718.3125 C 659.48455 739.12075 661.71021 759.88903 664.1875 780.65625 C 670.09075 823.49425 676.63334 866.351 686.96875 908.375 C 691.6827 926.414 776.71395 904.19525 772 886.15625 C 761.29095 848.13425 755.13423 808.99825 749.03125 770.03125 C 745.39856 742.52412 742.28116 714.93816 739.53125 687.34375 C 773.00009 676.24511 806.87842 666.37021 840.84375 656.90625 C 840.95908 656.8771 841.07222 656.84177 841.1875 656.8125 C 865.58091 664.02803 897.85419 665.90139 900.03125 654.875 C 903.44548 636.34 906.34489 617.7425 907.875 598.9375 C 912.86761 544.8515 916.8892 490.67575 920.28125 436.46875 C 921.70392 390.12575 924.53254 341.30225 895.4375 302.15625 C 890.07836 297.30425 885.23536 291.78375 879.34375 287.59375 C 853.35595 269.11275 820.19638 268.93175 789.8125 270.84375 C 763.82201 273.21622 737.90289 276.36357 712.0625 279.96875 C 710.7393 250.89044 709.5993 221.78571 708.75 192.6875 C 707.84783 135.2385 707.63198 77.66 714.40625 20.5 C 715.38756 9.425375 684.7762 2.1863962 659.40625 2.03125 z M 220 125.15625 C 201.2738 124.54254 153.29135 182.40652 166.40625 193.6875 C 188.5265 211.1155 211.32024 227.659 234.25 244 C 237.48875 246.423 240.73001 248.85725 243.96875 251.28125 C 258.92129 262.36925 311.20254 191.86925 296.25 180.78125 C 292.50803 178.02825 288.74197 175.28525 285 172.53125 C 264.24926 157.84825 243.4614 143.117 224.09375 126.625 C 222.98232 125.66891 221.58697 125.20826 220 125.15625 z M 345 278.0625 C 310.32812 279.0745 276.65713 287.70225 243.0625 295.78125 C 206.62744 304.52025 170.19098 314.1585 132.9375 318.6875 C 114.28504 320.5525 123.06629 408.45875 141.71875 406.59375 C 182.69007 400.25075 222.88197 389.70625 263.1875 380.15625 C 264.96838 379.89433 266.74451 379.61014 268.53125 379.28125 C 254.23899 397.50879 239.82353 415.65715 225.875 434.15625 C 198.07617 473.15225 167.99537 510.3915 138.625 548.1875 C 124.99683 566.1785 110.56333 583.52875 96.875 601.46875 C 95.872639 602.82775 94.846111 604.2045 93.84375 605.5625 C 82.958763 620.9025 155.27126 672.214 166.15625 656.875 C 166.79206 655.924 167.42668 654.98125 168.0625 654.03125 C 180.67796 635.98425 194.89884 619.03625 207.75 601.15625 C 218.60647 586.77808 229.61396 572.51082 240.625 558.25 C 240.98717 569.57755 241.40451 580.91796 241.75 592.21875 C 243.16788 658.98175 249.68028 725.44025 255.625 791.90625 C 259.62146 839.29925 263.61263 886.711 270.75 933.75 C 272.4877 945.185 274.5711 956.556 276.9375 967.875 C 281.05513 986.139 367.14889 966.7015 363.03125 948.4375 C 360.6687 938.9605 358.78285 929.39725 357.0625 919.78125 C 349.29145 874.85925 345.18177 829.4415 341.0625 784.0625 C 334.99833 719.5245 328.50794 654.9425 327.78125 590.0625 C 327.69709 585.60069 327.60303 581.12696 327.5 576.65625 C 327.89963 577.54324 328.46455 578.30436 329.21875 578.90625 C 358.1078 599.41125 387.04807 619.78925 415.21875 641.28125 C 437.67815 659.16425 461.00866 675.8305 484.84375 691.8125 C 494.49124 698.17989 516.8103 672.32026 528.59375 649.375 C 554.65316 645.99737 592.03985 630.10445 588.28125 618.0625 C 573.94679 574.9605 567.62798 529.85475 557.3125 485.71875 C 547.82427 444.40275 537.75165 403.1935 530.34375 361.4375 C 527.28362 342.9435 440.09613 357.35075 443.15625 375.84375 C 452.60694 419.10375 463.19984 462.11075 473.3125 505.21875 C 479.55943 533.27902 484.79613 561.54851 490.96875 589.59375 C 483.1868 583.89058 475.50363 578.03637 467.9375 572.03125 C 440.27731 551.01125 411.87847 531.0235 384.375 509.8125 C 372.26323 500.14584 332.49014 545.64501 327.3125 568.34375 C 326.6268 538.46009 326.12523 508.45569 329.375 478.78125 C 330.27963 473.19368 322.94972 468.01574 312.21875 464 C 332.95316 437.70066 354.25368 411.85446 374.40625 385.09375 C 384.52312 370.61875 401.18643 350.1305 398.9375 330.9375 C 394.97685 297.1375 376.59476 281.0795 345 278.0625 z M 801.65625 356.03125 C 812.93352 355.83124 840.80763 361.31484 832.0625 363.25 C 829.77796 364.931 830.82354 363.6475 831.46875 368.4375 C 834.42643 390.3945 834.23765 412.02425 833.75 434.15625 C 831.32392 479.99984 827.93559 525.80485 823.5 571.5 C 821.33242 572.14776 819.17581 572.80542 817 573.4375 C 788.53125 581.75855 760.08726 590.2468 731.84375 599.3125 C 730.0906 576.49578 728.50475 553.64802 726.96875 530.8125 C 737.12871 529.87987 747.31363 529.14961 757.5 528.5 C 775.93893 527.224 769.90768 440.31775 751.46875 441.59375 C 741.38086 442.33888 731.31964 443.12955 721.25 444.0625 C 719.60521 418.35122 718.03591 392.62787 716.5625 366.90625 C 743.37033 363.09625 770.24829 359.86468 797.25 357.71875 C 796.6365 356.56397 798.49861 356.08725 801.65625 356.03125 z M 336.6875 365.9375 C 339.49158 365.89323 342.28792 365.98462 345.09375 366.21875 C 342.02911 366.60887 339.24868 366.4616 336.6875 365.9375 z M 573.59375 743.90625 C 572.73241 744.79781 571.7753 745.63366 570.75 746.40625 C 569.84761 747.08625 572.37982 744.806 573.28125 744.125 C 573.34298 744.07836 573.52034 743.96047 573.59375 743.90625 z "
     id="path11945" />
</svg>
