<?xml version="1.0" encoding="UTF-8" standalone="no"?>
<svg
   xmlns:dc="http://purl.org/dc/elements/1.1/"
   xmlns:cc="http://creativecommons.org/ns#"
   xmlns:rdf="http://www.w3.org/1999/02/22-rdf-syntax-ns#"
   xmlns:svg="http://www.w3.org/2000/svg"
   xmlns="http://www.w3.org/2000/svg"
   xmlns:sodipodi="http://sodipodi.sourceforge.net/DTD/sodipodi-0.dtd"
   xmlns:inkscape="http://www.inkscape.org/namespaces/inkscape"
   width="1024"
   height="1024"
   id="U79CB"
   version="1.1"
   inkscape:version="0.48.0 r9654"
   sodipodi:docname="U+79CB.svg">
  <metadata
     id="metadata16">
    <rdf:RDF>
      <cc:Work
         rdf:about="">
        <dc:format>image/svg+xml</dc:format>
        <dc:type
           rdf:resource="http://purl.org/dc/dcmitype/StillImage" />
      </cc:Work>
    </rdf:RDF>
  </metadata>
  <defs
     id="defs14" />
  <sodipodi:namedview
     pagecolor="#ffffff"
     bordercolor="#666666"
     borderopacity="1"
     objecttolerance="10"
     gridtolerance="10"
     guidetolerance="10"
     inkscape:pageopacity="0"
     inkscape:pageshadow="2"
     inkscape:window-width="640"
     inkscape:window-height="480"
     id="namedview12"
     showgrid="false"
     inkscape:zoom="0.27441406"
     inkscape:cx="512"
     inkscape:cy="512"
     inkscape:window-x="0"
     inkscape:window-y="25"
     inkscape:window-maximized="0"
     inkscape:current-layer="U79CB" />
  <path
     style="fill:#a02c2c;fill-opacity:1;fill-rule:nonzero;stroke:#f9f9f9;stroke-width:0.1;stroke-miterlimit:4;stroke-dasharray:none"
     d="M 304.28125 151.21875 C 301.80796 151.30591 299.83651 152.10952 298.5625 153.71875 C 272.3627 187.27775 247.88985 222.05475 224.28125 257.46875 C 190.20735 309.21375 159.8018 363.23775 133.5625 419.34375 C 130.6683 426.21275 127.80055 433.0695 124.90625 439.9375 C 117.92005 457.0125 198.3887 489.951 205.375 472.875 C 207.676 467.046 209.98025 461.205 212.28125 455.375 C 228.87829 418.2481 247.87459 382.29668 268.90625 347.53125 C 269.18903 378.65717 270.21365 409.77948 271.125 440.875 C 272.09583 467.21517 273.05716 493.56616 274.03125 519.90625 C 264.1271 521.76952 254.22524 523.76615 244.375 525.96875 C 205.0652 534.41475 165.87265 543.50575 126.21875 550.21875 C 107.71045 553.32975 122.3667 640.57975 140.875 637.46875 C 170.57182 631.19591 200.15888 624.40612 229.75 617.65625 C 229.05284 618.21779 228.51506 618.91372 228.125 619.71875 C 214.0186 651.63075 202.9077 684.7475 191.875 717.8125 C 180.5123 752.9785 168.2489 787.94325 161.1875 824.28125 C 159.6117 845.87625 159.2631 834.3435 163.3125 858.8125 C 168.03274 875.29006 239.37999 856.39426 247.78125 839.25 C 247.96069 838.05689 248.17561 836.87621 248.375 835.6875 C 248.36706 836.4515 248.34347 837.0884 248.34375 837.71875 C 248.59489 836.78138 248.6763 835.85135 248.5 834.9375 C 253.74438 804.31964 265.31878 775.10477 274.28125 745.46875 C 276.74919 738.16204 279.23395 730.83341 281.75 723.53125 C 283.55356 764.53662 286.44155 805.50744 288.46875 846.5 C 289.54525 851.707 288.42205 859.021 287.71875 863.875 C 284.75695 882.401 372.06945 896.36975 375.03125 877.84375 C 376.45135 865.54475 377.28665 853.379 375.84375 841 C 373.00015 803.14288 369.70118 765.33706 367.46875 727.4375 C 379.23239 748.08436 393.79067 767.1402 408.65625 785.6875 C 423.97285 804.2885 440.7842 821.5705 457.0625 839.3125 C 469.8114 852.9505 534.09265 792.85675 521.34375 779.21875 C 506.24305 763.34875 490.808 747.79175 476.75 730.96875 C 461.474 712.04475 445.9025 692.57575 436.9375 669.71875 C 432.96752 656.79075 387.91342 666.66212 365.15625 679.90625 C 363.83808 651.26044 362.57526 622.6212 361.40625 593.96875 C 382.32269 591.76077 403.31084 590.21258 424.34375 589.21875 C 456.57525 588.23475 488.86815 589.2515 520.96875 592.3125 L 526.53125 593.09375 C 545.16855 595.12675 554.7623 507.284 536.125 505.25 L 527.71875 504.5 C 491.80965 502.307 455.80465 501.282 419.84375 502.875 C 399.24073 504.04013 378.66308 505.64767 358.15625 507.78125 C 357.36392 484.79058 356.65756 461.77619 356 438.78125 C 354.8921 382.86525 353.0139 326.6925 358.4375 270.9375 C 359.21246 263.87146 347.0639 258.07906 331.5625 254.65625 C 343.18794 238.9368 355.22782 223.53866 367.90625 208.625 C 378.28034 195.52034 324.42091 150.509 304.28125 151.21875 z M 248.34375 837.71875 C 248.20872 838.22274 248.0302 838.74198 247.78125 839.25 C 247.76389 839.36541 247.73592 839.4783 247.71875 839.59375 C 248.57173 843.92682 248.34618 843.13941 248.34375 837.71875 z M 731.125 194.25 C 709.05647 194.11038 686.9655 198.66875 686.90625 208.03125 C 688.15005 262.49525 684.152 316.841 678.875 371 C 673.89771 418.06951 665.82427 464.63347 655.75 510.78125 C 648.77297 502.42455 641.85031 494.04344 635.0625 485.53125 C 616.8546 462.59725 598.8084 439.433 583.375 414.5 C 573.1133 398.776 498.9882 447.152 509.25 462.875 C 527.2866 489.311 546.80025 514.67 566.65625 539.75 C 576.66225 552.319 586.8508 564.75325 597.0625 577.15625 C 603.7229 585.16404 627.79927 571.0938 645.59375 554.65625 C 639.34875 580.09499 632.59064 605.38732 625.46875 630.59375 C 607.88955 691.23375 584.3223 749.87125 556.875 806.65625 C 546.6305 825.15025 538.68505 845.298 526.21875 862.5 C 515.99125 878.192 589.96 926.3795 600.1875 910.6875 C 613.4745 889.2245 624.20335 866.33925 635.21875 843.65625 C 647.95327 816.1311 659.91656 788.24685 670.90625 760 C 687.31071 781.89335 705.13622 802.55939 724.28125 822.21875 C 762.98055 860.02875 809.5865 887.47925 857.375 912.03125 C 890.0454 928.08025 923.5113 942.44025 957.0625 956.53125 C 974.397 963.48625 1007.1782 881.7675 989.84375 874.8125 C 958.29055 862.7845 927.13085 849.65475 896.71875 834.96875 C 857.22945 814.94775 818.5901 792.659 786.5625 761.625 C 764.8406 739.267 745.3928 715.15525 728.6875 688.78125 C 724.00785 682.40609 708.64077 688.02841 693.25 697.78125 C 698.0807 683.08323 702.62349 668.28031 706.84375 653.375 C 731.73605 563.509 752.77345 472.43925 763.40625 379.65625 C 769.52525 322.78425 774.02185 265.80875 775.15625 208.59375 C 775.2155 199.23075 753.19353 194.38962 731.125 194.25 z M 915.65625 349.59375 C 891.10978 349.62243 863.38808 355.7645 863.96875 366.3125 C 866.36515 392.1885 858.86855 416.9465 850.46875 441.0625 C 835.56425 480.4815 812.93295 516.06575 787.90625 549.71875 C 784.65355 553.62675 781.40895 557.5295 778.15625 561.4375 C 766.50415 575.8325 834.3479 630.77 846 616.375 C 850.0387 611.276 854.0863 606.1625 858.125 601.0625 C 887.667 560.0965 914.5713 517.03175 932.5625 469.59375 C 944.7071 434.63575 954.4243 398.88175 952.375 361.46875 C 951.92337 353.26475 934.74795 349.57144 915.65625 349.59375 z M 277.28125 607 C 277.54959 614.11529 277.82346 621.22853 278.09375 628.34375 C 264.45563 621.24513 249.17743 615.90769 239 615.5625 C 246.94832 613.75447 254.88918 611.93622 262.84375 610.15625 C 267.64812 609.04825 272.46091 608.00961 277.28125 607 z "
     id="path11311" />
</svg>
