<?xml version="1.0" encoding="utf-8" ?>

<!DOCTYPE svg PUBLIC "-//W3C//DTD SVG 1.1//EN" 
  "http://www.w3.org/Graphics/SVG/1.1/DTD/svg11.dtd">
<svg 
    xmlns="http://www.w3.org/2000/svg"
    xmlns:xlink="http://www.w3.org/1999/xlink"
    xmlns:sodipodi="http://sodipodi.sourceforge.net/DTD/sodipodi-0.dtd"
    xmlns:inkscape="http://www.inkscape.org/namespaces/inkscape"
    width="1024" height="1024" id="U798F">
<path d="m 11526.553,12486.45 c 6.201,19.297 20.869,33.698 35.061,47.44 12.549,11.462 6.292,5.74 18.772,17.167 13.527,12.54 -45.587,76.308 -59.114,63.768 l 0,0 c -12.855,-12.066 -6.06,-5.71 -20.393,-19.062 -24.768,-24.553 -47.687,-51.198 -58.507,-85.058 -5.146,-17.857 79.036,-42.113 84.181,-24.255 z" id="path23103" inkscape:connector-curvature="0" style="fill:#550000;fill-opacity:1;fill-rule:nonzero;stroke:#f9f9f9;stroke-width:0.1;stroke-miterlimit:4;stroke-dasharray:none" transform="translate(-11264, -12288)"/><path d="m 11358.118,12655.82 c 32.252,7.753 65.706,9.087 98.706,11.014 31.43,2.047 62.995,2.291 94.294,6.003 29.726,3.976 53.987,21.961 56.857,53.921 0.562,6.251 -1.422,12.472 -2.133,18.707 -10.31,30.702 -27.718,58.522 -43.436,86.687 -25.668,44.967 -49.066,91.14 -70.84,138.101 -18.319,39.866 -33.394,81.056 -46.956,122.743 -4.648,14.747 -9.041,29.574 -13.04,44.51 -5.152,17.815 -89.129,-6.469 -83.978,-24.284 l 0,0 c 4.898,-15.86 9.808,-31.718 15.028,-47.476 15.119,-44.607 31.698,-88.716 51.505,-131.484 22.671,-48.674 46.762,-96.659 72.789,-143.636 11.393,-21.022 22.916,-42.046 33.255,-63.588 0.645,13.12 4.815,22.379 15.566,30.614 2.213,1.694 10.451,3.87 7.887,2.777 -1.262,-0.538 -2.648,-0.723 -3.972,-1.084 -29.047,-4.466 -58.608,-4.255 -87.855,-6.592 -39.926,-2.342 -80.243,-4.164 -119.324,-13.274 -17.746,-5.441 7.901,-89.099 25.647,-83.659 z" id="path23105" inkscape:connector-curvature="0" style="fill:#550000;fill-opacity:1;fill-rule:nonzero;stroke:#f9f9f9;stroke-width:0.1;stroke-miterlimit:4;stroke-dasharray:none" transform="translate(-11264, -12288)"/><path d="m 11546.754,12865.939 c 7.519,37.844 17.266,75.196 25.492,112.894 11.816,55.065 17.602,111.124 22.511,167.147 4.568,28.595 1.229,59.448 10.406,87.272 0.01,-0.625 0.02,-1.25 0.03,-1.875 7.709,16.917 -72.039,53.256 -79.747,36.339 l 0,0 c -1.614,-4.189 -3.228,-8.378 -4.842,-12.567 -7.764,-33.443 -8.446,-67.886 -11.229,-101.991 -4.198,-52.241 -9.381,-104.525 -20.721,-155.785 -8.719,-38.651 -18.931,-76.922 -27.97,-115.496 -3.381,-18.258 82.688,-34.196 86.069,-15.938 z" id="path23107" inkscape:connector-curvature="0" style="fill:#550000;fill-opacity:1;fill-rule:nonzero;stroke:#f9f9f9;stroke-width:0.1;stroke-miterlimit:4;stroke-dasharray:none" transform="translate(-11264, -12288)"/><path d="m 11605.281,12894.848 c 20.346,17.315 44.7,28.942 68.795,40.026 15.776,7.153 32.106,12.883 48.871,17.17 17.798,4.896 -5.279,88.796 -23.077,83.901 l 0,0 c -21.189,-6.105 -42.012,-13.354 -62.056,-22.623 -31.866,-14.79 -63.559,-30.689 -90.86,-53.12 -13.863,-12.373 44.464,-77.727 58.327,-65.354 z" id="path23109" inkscape:connector-curvature="0" style="fill:#550000;fill-opacity:1;fill-rule:nonzero;stroke:#f9f9f9;stroke-width:0.1;stroke-miterlimit:4;stroke-dasharray:none" transform="translate(-11264, -12288)"/><path d="m 11690.279,12482.175 c 35.93,-8.685 71.714,-17.911 107.767,-26.086 45.752,-9.924 91.888,-17.931 138.248,-24.391 26.993,-3.004 54.022,-7.028 81.22,-7.425 18.579,0.199 17.642,87.781 -0.937,87.582 l 0,0 c -22.829,-1.85 -46.022,4.245 -68.738,5.222 -43.843,5.734 -87.438,13.23 -130.629,22.736 -35.514,8.211 -70.789,17.365 -105.851,27.341 -18.026,4.471 -39.106,-80.508 -21.08,-84.979 z" id="path23111" inkscape:connector-curvature="0" style="fill:#550000;fill-opacity:1;fill-rule:nonzero;stroke:#f9f9f9;stroke-width:0.1;stroke-miterlimit:4;stroke-dasharray:none" transform="translate(-11264, -12288)"/><path d="m 11779.389,12614.296 c -3.357,28.445 0.141,57.026 4.552,85.137 5.125,28.335 13.576,55.972 25.211,82.294 1.009,1.799 2.018,3.599 3.027,5.399 8.418,16.492 -69.327,56.177 -77.746,39.684 l 0,0 c -1.806,-3.716 -3.612,-7.432 -5.419,-11.148 -13.612,-33.186 -24.226,-67.564 -30.319,-102.969 -5.554,-35.963 -9.499,-72.334 -6.278,-108.75 2.197,-18.45 89.168,-8.096 86.972,10.353 z" id="path23113" inkscape:connector-curvature="0" style="fill:#550000;fill-opacity:1;fill-rule:nonzero;stroke:#f9f9f9;stroke-width:0.1;stroke-miterlimit:4;stroke-dasharray:none" transform="translate(-11264, -12288)"/><path d="m 11773.097,12603.995 c 30.083,-11.943 62.127,-17.348 93.964,-22.183 33.454,-4.74 67.136,-7.664 100.917,-8.21 32.628,-0.299 55.771,4.947 82.169,24.511 24.71,24.652 27.25,56.676 25.952,89.634 -1.71,32.911 -12.664,62.618 -30.519,89.958 -10.452,15.22 -82.201,-34.053 -71.749,-49.274 l 0,0 c 10.135,-12.728 13.834,-28.56 15.315,-44.536 0.07,-1.312 -0.832,-20.613 0.487,-21.263 1.443,-0.711 2.944,4.811 4.181,2.41 8.851,1.922 -22.704,-8.781 -24.947,-4.595 -29.715,0.08 -59.349,2.758 -88.773,6.852 -24.137,3.697 -48.691,7.402 -71.386,16.819 -16.997,7.554 -52.607,-72.569 -35.611,-80.123 z" id="path23115" inkscape:connector-curvature="0" style="fill:#550000;fill-opacity:1;fill-rule:nonzero;stroke:#f9f9f9;stroke-width:0.1;stroke-miterlimit:4;stroke-dasharray:none" transform="translate(-11264, -12288)"/><path d="m 11762.36,12785.177 c 33.51,-8.99 67.466,-16.098 101.612,-22.171 32.263,-5.255 64.821,-8.718 97.45,-10.64 3.253,0 6.507,0 9.761,-0 18.566,0.495 16.235,88.02 -2.332,87.526 l 0,0 c -1.183,-0.119 -2.366,-0.237 -3.548,-0.356 -28.879,0.765 -57.695,3.813 -86.218,8.326 -30.989,5.527 -61.886,11.954 -91.956,21.381 -17.832,5.254 -42.601,-78.81 -24.769,-84.065 z" id="path23117" inkscape:connector-curvature="0" style="fill:#550000;fill-opacity:1;fill-rule:nonzero;stroke:#f9f9f9;stroke-width:0.1;stroke-miterlimit:4;stroke-dasharray:none" transform="translate(-11264, -12288)"/><path d="m 11745.002,13020.816 c 3.847,34.341 7.452,68.697 12.328,102.911 4.807,33.841 13.776,66.801 24.745,99.104 4.179,10.559 2.068,6.034 5.986,13.733 7.648,16.886 -71.953,52.938 -79.601,36.052 l 0,0 c -6.126,-14.361 -3.139,-6.812 -8.858,-22.687 -11.889,-37.275 -21.918,-75.147 -27.504,-113.939 -4.931,-33.974 -8.573,-68.11 -13.659,-102.059 -2.782,-18.362 83.781,-31.478 86.563,-13.115 z" id="path23119" inkscape:connector-curvature="0" style="fill:#550000;fill-opacity:1;fill-rule:nonzero;stroke:#f9f9f9;stroke-width:0.1;stroke-miterlimit:4;stroke-dasharray:none" transform="translate(-11264, -12288)"/><path d="m 11705.946,12962.132 c 34.33,-11.23 69.546,-19.231 104.857,-26.644 42.159,-8.4 84.486,-15.956 126.865,-23.154 33.979,-6.432 68.29,-9.495 102.772,-6.714 27.958,2.408 51.366,13.129 71.714,32.085 21.009,23.91 24.964,54.022 26.216,84.587 0.333,38.262 -5.338,76.199 -11.123,113.914 -5.486,31.338 -9.362,63.052 -17.816,93.773 -5.243,17.75 -88.92,-6.964 -83.677,-24.715 l 0,0 c 8.877,-26.475 10.539,-54.939 16.25,-82.143 4.955,-32.249 9.819,-64.698 9.519,-97.416 -0.307,-8.387 -1.849,-19.204 -1.843,-26.72 2.534,-2.973 -15.213,-6.728 -17.366,-6.687 -26.904,-3.14 -53.812,0.582 -80.383,5.044 -41.201,6.825 -82.343,14.081 -123.277,22.371 -31.667,6.781 -63.406,13.809 -93.844,25.076 -17.534,6.123 -46.398,-76.533 -28.864,-82.657 z" id="path23121" inkscape:connector-curvature="0" style="fill:#550000;fill-opacity:1;fill-rule:nonzero;stroke:#f9f9f9;stroke-width:0.1;stroke-miterlimit:4;stroke-dasharray:none" transform="translate(-11264, -12288)"/><path d="m 11812.917,13097.516 c 35.247,-10.381 71.121,-18.343 107.128,-25.56 35.078,-6.872 70.56,-11.247 106.051,-15.303 10.471,-1.337 5.976,-0.551 13.534,-2.061 18.338,-2.936 32.178,83.51 13.84,86.446 l 0,0 c -11.92,1.657 -5.785,0.922 -18.41,2.168 -32.841,3.033 -65.646,6.777 -98.034,13.142 -32.95,6.658 -65.891,13.868 -97.78,24.652 -17.709,5.585 -44.039,-77.899 -26.329,-83.484 z" id="path23123" inkscape:connector-curvature="0" style="fill:#550000;fill-opacity:1;fill-rule:nonzero;stroke:#f9f9f9;stroke-width:0.1;stroke-miterlimit:4;stroke-dasharray:none" transform="translate(-11264, -12288)"/><path d="m 11960.488,13020.621 c -4.913,28.916 -3.159,58.466 -1.617,87.597 3.334,42.362 8.506,84.508 8.373,127.048 -0.207,18.338 -86.65,17.363 -86.443,-0.975 l 0,0 c 0.895,-40.606 -4.99,-80.839 -7.848,-121.279 -2.13,-36.477 -3.957,-73.293 1.603,-109.578 3.646,-18.229 89.578,-1.042 85.932,17.187 z" id="path23125" inkscape:connector-curvature="0" style="fill:#550000;fill-opacity:1;fill-rule:nonzero;stroke:#f9f9f9;stroke-width:0.1;stroke-miterlimit:4;stroke-dasharray:none" transform="translate(-11264, -12288)"/><path d="m 11759.808,13233.713 c 41.914,-13.594 85.42,-20.503 129.033,-25.774 48.719,-5.723 97.716,-4.247 146.45,0.04 18.706,1.812 37.351,4.168 55.99,6.548 18.321,2.541 6.343,88.905 -11.977,86.364 l 0,0 c -17.312,-2.601 -34.642,-5.111 -52.048,-7.005 -42.589,-4.257 -85.443,-5.964 -128.079,-0.895 -37.588,4.597 -75.31,10.319 -111.018,23.464 -17.552,6.014 -45.903,-76.724 -28.351,-82.738 z" id="path23127" inkscape:connector-curvature="0" style="fill:#550000;fill-opacity:1;fill-rule:nonzero;stroke:#f9f9f9;stroke-width:0.1;stroke-miterlimit:4;stroke-dasharray:none" transform="translate(-11264, -12288)"/></svg>