<?xml version="1.0" encoding="UTF-8" standalone="no"?>
<svg
   xmlns:dc="http://purl.org/dc/elements/1.1/"
   xmlns:cc="http://creativecommons.org/ns#"
   xmlns:rdf="http://www.w3.org/1999/02/22-rdf-syntax-ns#"
   xmlns:svg="http://www.w3.org/2000/svg"
   xmlns="http://www.w3.org/2000/svg"
   xmlns:sodipodi="http://sodipodi.sourceforge.net/DTD/sodipodi-0.dtd"
   xmlns:inkscape="http://www.inkscape.org/namespaces/inkscape"
   width="1024"
   height="1024"
   id="U7ACB"
   version="1.1"
   inkscape:version="0.48.0 r9654"
   sodipodi:docname="U+7ACB.svg">
  <metadata
     id="metadata12">
    <rdf:RDF>
      <cc:Work
         rdf:about="">
        <dc:format>image/svg+xml</dc:format>
        <dc:type
           rdf:resource="http://purl.org/dc/dcmitype/StillImage" />
      </cc:Work>
    </rdf:RDF>
  </metadata>
  <defs
     id="defs10" />
  <sodipodi:namedview
     pagecolor="#ffffff"
     bordercolor="#666666"
     borderopacity="1"
     objecttolerance="10"
     gridtolerance="10"
     guidetolerance="10"
     inkscape:pageopacity="0"
     inkscape:pageshadow="2"
     inkscape:window-width="640"
     inkscape:window-height="480"
     id="namedview8"
     showgrid="false"
     inkscape:zoom="0.27441406"
     inkscape:cx="512"
     inkscape:cy="512"
     inkscape:window-x="0"
     inkscape:window-y="25"
     inkscape:window-maximized="0"
     inkscape:current-layer="U7ACB" />
  <path
     style="fill:#2b0000;fill-opacity:1;fill-rule:nonzero;stroke:#f9f9f9;stroke-width:0.1;stroke-miterlimit:4;stroke-dasharray:none"
     d="M 457.625 191.65625 C 435.12804 192.21274 382.02263 226.20541 390.03125 239.875 C 404.38365 263.358 418.3684 287.0715 432.5 310.6875 C 442.11786 327.38612 452.75924 343.55779 461.5 360.75 C 461.6494 361.37781 461.90984 361.9547 462.25 362.5 C 462.03848 361.96762 461.95177 361.78828 461.65625 361.0625 C 462.0201 361.78058 462.39309 362.49696 462.75 363.21875 C 474.25185 377.13695 551.8569 361.2137 548.5 343.75 C 544.1983 327.982 546.81265 334.90725 541.34375 322.78125 C 530.88175 303.26525 518.96955 284.613 507.59375 265.625 C 493.55725 242.318 479.61535 218.94425 466.40625 195.15625 C 464.92319 192.62484 461.7911 191.5532 457.625 191.65625 z M 462.75 363.21875 C 462.56167 362.99085 462.40222 362.74402 462.25 362.5 C 463.35655 365.28508 463.66186 366.18984 462.90625 363.53125 C 462.85482 363.42687 462.80158 363.32305 462.75 363.21875 z M 222.96875 399.375 C 204.19285 399.707 205.75535 488.208 224.53125 487.875 C 262.95785 486.169 301.45575 486.56125 339.90625 486.90625 C 404.68425 487.65225 469.4291 488.5205 534.1875 490.3125 C 588.2548 491.8775 642.3199 493.84625 696.375 495.78125 C 721.9858 497.31425 747.7396 496.8895 773.3125 499.0625 C 773.5145 499.1945 773.7356 499.33675 773.9375 499.46875 C 792.5231 502.30875 805.8981 414.68475 787.3125 411.84375 C 784.4224 411.50375 781.54645 411.18475 778.65625 410.84375 C 752.13275 409.68375 725.56155 409.99975 699.03125 408.96875 C 644.84835 407.61475 590.65015 405.9705 536.46875 404.5625 C 471.35815 402.9035 406.2407 402.039 341.125 400.625 C 301.7419 399.854 262.36075 399.274 222.96875 399.375 z M 316.375 541.625 C 289.89474 542.02483 252.96271 552.30844 254.9375 564.46875 C 261.2077 598.81775 271.8418 632.08025 283.875 664.78125 C 294.51322 693.3802 308.33172 720.52362 324.59375 746.25 C 313.79714 746.69131 303.01381 747.17349 292.21875 747.65625 C 245.67015 750.02025 199.2051 753.37725 152.875 758.53125 C 134.2253 760.58725 143.9128 848.4935 162.5625 846.4375 C 207.0805 839.4615 251.9948 836.067 296.9375 833.375 C 371.8577 829.339 446.8497 826.80375 521.875 826.21875 C 585.6043 825.85575 649.2028 830.16275 712.6875 835.21875 C 754.0586 839.03375 795.5411 841.22225 837.0625 842.40625 C 851.2917 844.23125 866.26445 841.16675 880.40625 843.71875 C 899.14275 845.19875 906.1115 756.855 887.375 755.375 C 871.2493 754.52 855.11095 755.28925 838.96875 754.90625 C 798.98835 754.32225 759.0371 752.46275 719.1875 749.09375 C 690.34938 747.02831 661.50169 745.15451 632.625 743.71875 C 641.60394 721.92676 651.12167 700.36694 662.0625 679.46875 C 675.8325 653.82175 689.69365 627.75725 708.71875 605.53125 C 721.14295 591.45025 654.76805 532.88875 642.34375 546.96875 C 619.51955 574.91575 602.2554 606.74075 585.375 638.46875 C 568.4888 670.93475 554.21855 704.674 540.03125 738.375 C 539.60522 739.24917 539.22764 740.13703 538.84375 741.03125 C 532.94333 741.01162 527.02709 741.01492 521.125 741.0625 C 488.74031 741.37046 456.37204 742.00965 424 742.875 C 426.45838 736.73489 426.7812 731.71397 423.84375 729.0625 C 415.85795 722.5945 409.4498 714.3555 403.3125 706.1875 C 387.9203 683.8865 375.28395 659.89025 365.65625 634.53125 C 355.48795 607.18225 346.35395 579.28325 342.28125 550.28125 C 341.24687 543.91122 330.24561 541.41556 316.375 541.625 z "
     id="path9708" />
</svg>
