<?xml version="1.0" encoding="UTF-8" standalone="no"?>
<svg
   xmlns:dc="http://purl.org/dc/elements/1.1/"
   xmlns:cc="http://creativecommons.org/ns#"
   xmlns:rdf="http://www.w3.org/1999/02/22-rdf-syntax-ns#"
   xmlns:svg="http://www.w3.org/2000/svg"
   xmlns="http://www.w3.org/2000/svg"
   xmlns:sodipodi="http://sodipodi.sourceforge.net/DTD/sodipodi-0.dtd"
   xmlns:inkscape="http://www.inkscape.org/namespaces/inkscape"
   width="1024"
   height="1024"
   id="U7AD9"
   version="1.1"
   inkscape:version="0.48.0 r9654"
   sodipodi:docname="U+7AD9.svg">
  <metadata
     id="metadata17">
    <rdf:RDF>
      <cc:Work
         rdf:about="">
        <dc:format>image/svg+xml</dc:format>
        <dc:type
           rdf:resource="http://purl.org/dc/dcmitype/StillImage" />
      </cc:Work>
    </rdf:RDF>
  </metadata>
  <defs
     id="defs15" />
  <sodipodi:namedview
     pagecolor="#ffffff"
     bordercolor="#666666"
     borderopacity="1"
     objecttolerance="10"
     gridtolerance="10"
     guidetolerance="10"
     inkscape:pageopacity="0"
     inkscape:pageshadow="2"
     inkscape:window-width="640"
     inkscape:window-height="480"
     id="namedview13"
     showgrid="false"
     inkscape:zoom="0.27441406"
     inkscape:cx="512"
     inkscape:cy="512"
     inkscape:window-x="0"
     inkscape:window-y="25"
     inkscape:window-maximized="0"
     inkscape:current-layer="U7AD9" />
  <path
     style="fill:#2b1100;fill-opacity:1;fill-rule:nonzero;stroke:none"
     d="M 649.84375 191.71875 C 630.7916 191.54672 613.60882 195.09781 613.09375 203.28125 C 612.44185 245.10025 613.4774 286.89875 613.625 328.71875 C 613.3812 371.46175 613.7549 414.2015 617.3125 456.8125 C 617.7022 460.7055 618.07905 464.608 618.46875 468.5 C 620.59335 487.041 707.9996 477.00975 705.875 458.46875 C 705.4376 455.14175 704.9999 451.827 704.5625 448.5 C 701.83345 423.54653 700.65633 398.5082 700.21875 373.4375 C 723.1389 368.66272 746.60117 366.82569 769.90625 364.96875 C 795.83135 363.02275 821.8161 361.96975 847.8125 362.34375 C 849.7315 362.48175 851.6435 362.612 853.5625 362.75 C 872.2746 363.625 876.3996 275.40525 857.6875 274.53125 L 848 274.21875 C 819.62 274.45375 791.26645 275.663 762.96875 277.875 C 741.91453 279.55025 720.82175 281.29782 699.90625 284.28125 C 699.83611 259.11139 699.97256 233.94331 701.28125 208.8125 C 701.94348 198.29037 674.33937 191.93993 649.84375 191.71875 z M 274.71875 196.6875 C 248.31764 196.77395 204.62361 210.88172 207.6875 224.03125 C 217.004 256.62025 235.39225 285.44875 253.53125 313.71875 C 262.49315 327.22175 270.80925 341.0855 278.78125 355.1875 C 287.98705 371.2865 363.8933 327.88025 354.6875 311.78125 C 345.8563 296.48025 336.7545 281.364 327 266.625 C 314.3108 246.797 300.7453 226.65425 293.9375 203.90625 C 292.73859 198.76078 285.04962 196.65367 274.71875 196.6875 z M 454.28125 391.09375 C 433.81464 391.23588 413.54622 393.584 393.28125 397.25 C 336.56935 406.643 280.03365 417.2225 223.09375 425.1875 C 186.71725 429.9285 150.23195 434.143 113.53125 435.25 C 94.80225 436.564 101.021 524.84625 119.75 523.53125 C 158.2304 520.76625 196.4934 516.106 234.6875 510.75 C 292.2239 502.157 349.40805 491.457 406.90625 482.625 C 425.00115 480.987 443.57675 476.075 461.78125 479.125 C 480.39735 480.547 487.116 392.797 468.5 391.375 C 463.75638 391.16294 459.00431 391.06095 454.28125 391.09375 z M 828.625 469.09375 C 820.25442 469.11987 811.89835 469.386 803.53125 469.78125 C 752.36705 473.05125 701.41005 479.4935 651.28125 490.4375 C 610.24905 500.0595 569.3238 511.2685 532.25 531.9375 C 527.41157 534.74565 528.00543 543.50711 531.59375 554.1875 C 506.01645 547.25335 467.54252 546.96011 466.09375 559.21875 C 463.28885 595.50975 469.28955 631.70075 474.71875 667.46875 C 478.8993 694.13739 483.88189 720.68507 490.09375 746.9375 C 450.04608 750.87577 410.08229 755.50606 370.28125 761.4375 C 377.22118 748.23 384.17969 735.03217 391.15625 721.84375 C 410.00525 685.95975 429.4493 650.3205 446.5625 613.5625 C 453.619 596.1935 371.7439 562.9425 364.6875 580.3125 C 349.9381 615.0375 331.8603 648.2535 314.4375 681.6875 C 300.6408 707.9415 286.69105 734.12475 272.59375 760.21875 C 270.38273 764.36477 273.73331 770.10319 280.0625 776.09375 C 237.03277 783.45116 194.15564 791.5907 151.75 802.0625 C 115.6192 810.7475 79.58985 820.0015 43.34375 828.1875 C 25.06995 832.4775 45.31985 918.6035 63.59375 914.3125 C 99.79965 904.6305 136.0305 895.0885 172.375 885.9375 C 232.3003 870.4585 293.40765 860.464 354.46875 850.75 C 406.29605 842.308 458.46635 836.49425 510.78125 832.15625 C 512.44466 832.03054 514.11719 831.93168 515.78125 831.8125 C 520.14436 856.84614 532.32328 885.79258 543.09375 883 C 577.41275 871.384 612.5006 863.019 648.125 856.625 C 702.6447 848.257 757.76775 845.12025 812.71875 840.90625 C 824.28077 840.06232 835.8421 839.22792 847.40625 838.40625 C 866.29533 846.62116 885.89545 850.63628 889.59375 842.6875 C 891.20158 839.07948 892.07103 837.20107 892.9375 835.28125 C 898.10304 834.94009 903.27131 834.5791 908.4375 834.25 C 921.0417 833.18331 921.72308 792.73413 915.09375 767.0625 C 922.68974 739.33798 929.41407 711.38775 935.8125 683.34375 C 945.2374 642.62475 955.51865 601.6785 957.96875 559.8125 C 956.86405 519.0015 944.7275 490.18775 903.3125 476.71875 C 878.79748 470.9325 853.73674 469.01538 828.625 469.09375 z M 826.875 556.4375 C 841.35156 556.36127 855.97556 556.55535 870.09375 559.28125 C 870.06793 559.75134 870.06619 559.92151 870.03125 560.5 C 867.39625 595.511 859.116 629.842 851.375 664 C 844.66915 693.82364 837.5232 723.52934 828.9375 752.84375 C 821.22489 753.48779 813.52398 754.12095 805.8125 754.78125 C 748.2162 759.63225 690.4004 763.03425 633.1875 771.53125 C 618.74802 774.01082 604.38379 776.755 590.09375 779.8125 C 589.5901 778.59816 589.08037 777.42335 588.53125 776.40625 C 575.19605 736.90825 566.9181 695.92 560.625 654.75 C 557.73403 634.63722 554.32727 614.27308 553.53125 593.875 C 562.15779 604.72482 571.04807 611.64266 576.625 608.40625 C 605.5848 590.87225 638.583 582.4535 671.1875 574.6875 C 716.4174 564.6885 762.4076 558.973 808.625 556.5 C 814.64475 556.55025 820.75054 556.46975 826.875 556.4375 z M 877 560.8125 C 878.46391 561.19326 879.92553 561.61453 881.375 562.0625 C 882.16108 563.66435 879.41364 562.33493 877 560.8125 z M 189.0625 576.625 C 168.93576 577.02744 117.68024 624.84561 128.75 637.34375 C 150.0817 661.51775 167.8885 688.5255 186.8125 714.5625 C 201.3185 733.7735 193.90345 724.34825 209.03125 742.90625 C 220.81825 757.22425 288.31825 701.66075 276.53125 687.34375 C 263.74175 671.99575 270.18285 680.00925 257.28125 663.15625 C 236.61465 634.93325 217.16125 605.779 194.90625 578.75 C 193.5468 577.21514 191.5342 576.57558 189.0625 576.625 z "
     id="path14163" />
</svg>
