<?xml version="1.0" encoding="UTF-8" standalone="no"?>
<svg
   xmlns:dc="http://purl.org/dc/elements/1.1/"
   xmlns:cc="http://creativecommons.org/ns#"
   xmlns:rdf="http://www.w3.org/1999/02/22-rdf-syntax-ns#"
   xmlns:svg="http://www.w3.org/2000/svg"
   xmlns="http://www.w3.org/2000/svg"
   xmlns:sodipodi="http://sodipodi.sourceforge.net/DTD/sodipodi-0.dtd"
   xmlns:inkscape="http://www.inkscape.org/namespaces/inkscape"
   width="1024"
   height="1024"
   id="U7A76"
   version="1.1"
   inkscape:version="0.48.0 r9654"
   sodipodi:docname="U+7A76.svg">
  <metadata
     id="metadata14">
    <rdf:RDF>
      <cc:Work
         rdf:about="">
        <dc:format>image/svg+xml</dc:format>
        <dc:type
           rdf:resource="http://purl.org/dc/dcmitype/StillImage" />
      </cc:Work>
    </rdf:RDF>
  </metadata>
  <defs
     id="defs12" />
  <sodipodi:namedview
     pagecolor="#ffffff"
     bordercolor="#666666"
     borderopacity="1"
     objecttolerance="10"
     gridtolerance="10"
     guidetolerance="10"
     inkscape:pageopacity="0"
     inkscape:pageshadow="2"
     inkscape:window-width="640"
     inkscape:window-height="480"
     id="namedview10"
     showgrid="false"
     inkscape:zoom="0.27441406"
     inkscape:cx="512"
     inkscape:cy="512"
     inkscape:window-x="0"
     inkscape:window-y="25"
     inkscape:window-maximized="0"
     inkscape:current-layer="U7A76" />
  <path
     style="fill:#2b0000;fill-opacity:1;fill-rule:nonzero;stroke:#f9f9f9;stroke-width:0.1;stroke-miterlimit:4;stroke-dasharray:none"
     d="M 486.90625 109.375 C 465.78593 110.34522 413.673 154.70888 424.03125 167.65625 C 440.96725 187.60625 456.2514 208.86175 471.6875 229.96875 C 477.58707 238.55041 484.41387 246.75382 489.71875 255.78125 C 459.35999 259.18275 429.05444 262.90675 398.71875 266.53125 C 368.87935 269.92825 338.9052 273.825 308.8125 273.25 C 300.90187 273.17661 296.16891 288.69323 294.6875 306.8125 C 278.31933 285.51819 243.69008 260.10972 234.96875 269.90625 C 216.22335 291.01725 201.7209 315.05725 188.8125 340.03125 C 176.5106 364.82125 166.5493 390.691 158.4375 417.125 C 157.6147 420.008 156.79155 422.866 155.96875 425.75 C 150.95805 443.991 236.95805 467.617 241.96875 449.375 C 242.56885 447.078 243.18115 444.797 243.78125 442.5 C 249.85205 421.2 257.73775 400.4435 267.53125 380.5625 C 275.44137 365.11502 284.11045 350.06858 295.21875 336.75 C 297.03793 351.3024 301.2355 362.62503 307.96875 362.6875 C 341.81485 362.1615 375.4458 357.845 409 353.75 C 453.9509 348.101 498.92325 342.495 544.03125 338.25 C 582.58285 335.108 621.2814 334.41425 659.9375 333.65625 C 685.7206 333.17825 711.5011 332.52275 737.25 334.21875 C 742.14375 334.60304 746.981 335.37669 751.75 336.40625 C 739.9298 359.94086 728.11672 383.45777 717.34375 407.5 C 715.25615 412.296 713.18125 417.10925 711.09375 421.90625 C 703.63895 439.12425 784.82645 474.24925 792.28125 457.03125 C 794.21905 452.53025 796.15605 448.03225 798.09375 443.53125 C 809.51125 417.83525 822.50895 392.94425 835.53125 368.03125 C 841.66735 356.05125 848.90655 344.82825 855.34375 333.03125 C 856.63775 327.26325 859.8839 321.59675 859.25 315.71875 C 856.8436 293.40875 847.8406 278.372 828.375 269.75 C 818.3512 264.855 808.30735 259.921 797.65625 256.5 C 779.67465 250.832 761.2582 246.5785 742.375 245.4375 C 714.2371 243.9925 686.0894 244.71 657.9375 245.5 C 626.42121 246.30244 594.87821 247.02901 563.40625 248.9375 C 572.84435 242.1872 578.67083 235.18142 576.3125 229.96875 C 567.3367 211.16375 556.02175 193.861 543.09375 177.5 C 526.83565 155.489 510.63755 133.40475 493.78125 111.84375 C 492.30151 109.994 489.92344 109.2364 486.90625 109.375 z M 789.03125 350.34375 C 789.6054 350.63157 790.18841 350.90663 790.75 351.21875 C 791.2638 351.50375 789.59935 350.8235 789.15625 350.4375 C 789.11708 350.40338 789.07067 350.37769 789.03125 350.34375 z M 544.9375 385.78125 C 526.54633 385.4528 484.35966 451.74344 499.21875 461.5 C 521.18875 475.094 542.36745 489.91675 563.53125 504.71875 C 584.37015 519.94775 605.7958 534.245 627.9375 547.5 C 632.2167 550.375 637.13035 552.46575 640.96875 555.96875 C 656.29715 567.16275 709.04715 494.8815 693.71875 483.6875 C 687.02165 479.0375 680.24245 474.584 673.03125 470.75 C 652.66995 459.058 633.2332 445.97425 614.25 432.15625 C 592.3698 416.87525 570.40135 401.71225 548.28125 386.78125 C 547.29064 386.13081 546.16358 385.80315 544.9375 385.78125 z M 345.4375 414.53125 C 341.84685 414.48121 339.10975 415.45297 337.65625 417.6875 C 324.32565 439.2845 310.06205 460.28675 295.71875 481.21875 C 290.63075 488.65775 285.4952 496.0745 280.125 503.3125 C 269.1131 518.7115 341.70675 570.61775 352.71875 555.21875 C 358.27695 547.21975 363.7099 539.12825 369.125 531.03125 C 383.6035 509.48925 398.0264 487.90925 412.5625 466.40625 C 421.44509 452.75164 367.38035 414.83705 345.4375 414.53125 z M 449.21875 485.125 C 442.91774 485.33925 438.42954 487.02275 437.15625 490.65625 C 427.33011 523.54228 421.90084 557.49864 416.5625 591.375 C 408.99895 592.20372 401.45471 593.16632 393.90625 594.1875 C 359.02715 598.8345 324.13875 603.95425 289.96875 612.53125 C 271.73225 617.67925 296.0134 703.648 314.25 698.5 C 342.31206 690.37819 371.26276 686.08163 400.15625 682.125 C 394.11703 709.46106 387.1733 736.61382 379.625 763.59375 C 366.632 808.16775 352.3153 852.341 338.375 896.625 C 331.6649 918.693 323.96325 940.492 319.34375 963.125 C 319.04045 965.172 318.7407 967.23425 318.4375 969.28125 C 316.1439 988.15925 405.1439 998.97175 407.4375 980.09375 C 407.4145 979.83475 407.36675 979.5715 407.34375 979.3125 C 410.09645 959.8985 417.66835 941.4695 422.53125 922.5625 C 436.18045 877.3625 450.4585 832.37625 463.625 787.03125 C 473.95807 749.88754 483.31903 712.46496 490.90625 674.6875 C 498.15309 674.58574 505.3991 674.60558 512.65625 674.78125 C 533.43414 676.16362 554.39253 677.39181 574.90625 681.1875 C 571.98219 692.31224 567.10168 714.18952 566.5 716.53125 C 558.0031 749.08425 554.7829 782.1875 557 815.6875 C 559.4177 844.2545 567.5556 870.464 583.0625 894.5 C 602.739 920.357 630.70165 933.51475 661.28125 941.71875 C 689.03355 947.37375 717.4376 945.907 745.5625 945.5 C 753.5525 945.31 761.54195 945.4315 769.53125 945.5625 C 788.47105 945.6695 788.97115 856.38825 770.03125 856.28125 C 761.32425 856.31525 752.6404 856.35125 743.9375 856.65625 C 723.6621 857.11125 703.2306 858.31875 683.0625 855.59375 C 673.4704 853.53675 664.3717 850.46975 656.625 844.21875 C 648.1673 834.72175 647.83335 820.77175 645.40625 808.84375 C 643.10965 785.20375 646.38285 761.853 652.21875 738.875 C 659.62795 710.934 669.6311 682.79925 664.25 653.53125 C 652.0739 617.82125 635.7522 604.21475 599.375 595.34375 C 571.3009 590.05575 542.7801 587.66225 514.25 586.53125 C 511.54492 586.49619 508.82888 586.47429 506.125 586.46875 C 509.97919 564.07504 514.47629 541.80427 521.5 520.21875 C 526.49513 505.96425 473.93811 484.28448 449.21875 485.125 z "
     id="path9575" />
</svg>
