<?xml version="1.0" encoding="UTF-8" standalone="no"?>
<svg
   xmlns:dc="http://purl.org/dc/elements/1.1/"
   xmlns:cc="http://creativecommons.org/ns#"
   xmlns:rdf="http://www.w3.org/1999/02/22-rdf-syntax-ns#"
   xmlns:svg="http://www.w3.org/2000/svg"
   xmlns="http://www.w3.org/2000/svg"
   xmlns:sodipodi="http://sodipodi.sourceforge.net/DTD/sodipodi-0.dtd"
   xmlns:inkscape="http://www.inkscape.org/namespaces/inkscape"
   width="1024"
   height="1024"
   id="U7A7A"
   version="1.1"
   inkscape:version="0.48.0 r9654"
   sodipodi:docname="U+7A7A.svg">
  <metadata
     id="metadata15">
    <rdf:RDF>
      <cc:Work
         rdf:about="">
        <dc:format>image/svg+xml</dc:format>
        <dc:type
           rdf:resource="http://purl.org/dc/dcmitype/StillImage" />
      </cc:Work>
    </rdf:RDF>
  </metadata>
  <defs
     id="defs13" />
  <sodipodi:namedview
     pagecolor="#ffffff"
     bordercolor="#666666"
     borderopacity="1"
     objecttolerance="10"
     gridtolerance="10"
     guidetolerance="10"
     inkscape:pageopacity="0"
     inkscape:pageshadow="2"
     inkscape:window-width="640"
     inkscape:window-height="480"
     id="namedview11"
     showgrid="false"
     inkscape:zoom="0.27441406"
     inkscape:cx="512"
     inkscape:cy="512"
     inkscape:window-x="0"
     inkscape:window-y="25"
     inkscape:window-maximized="0"
     inkscape:current-layer="U7A7A" />
  <path
     style="fill:#2b0000;fill-opacity:1;fill-rule:nonzero;stroke:#f9f9f9;stroke-width:0.1;stroke-miterlimit:4;stroke-dasharray:none"
     d="M 477.78125 137.78125 C 456.07439 138.66603 403.56615 177.62891 412.71875 190.90625 C 426.70525 211.46525 441.42995 231.467 457.28125 250.625 C 462.49223 257.14023 468.1664 263.25115 473.71875 269.46875 C 459.23037 270.19413 444.72536 270.7585 430.21875 271.1875 C 395.88065 272.7105 361.4151 274.144 327.5 280.125 C 298.3045 285.616 269.01665 291.70525 241.65625 303.65625 C 238.96877 304.90501 237.61882 307.96593 237.34375 312.1875 C 214.15447 299.26877 171.92181 289.81212 167.90625 302.28125 C 159.58145 331.19025 151.03355 360.03375 143.71875 389.21875 C 137.12385 413.94475 135.8538 438.73275 142.875 463.34375 C 144.7016 467.07275 146.51715 470.80225 148.34375 474.53125 C 157.62693 490.16315 229.06331 448.47238 225.34375 431 C 225.79534 432.18063 226.26713 433.35062 226.71875 434.53125 C 226.29041 429.19737 225.33557 411.89137 228.78125 410.09375 C 233.838 388.91332 239.78425 367.92685 246.34375 347.15625 C 255.67263 368.2313 270.05486 388.09613 278.9375 383.96875 C 299.376 374.48975 321.72705 370.25675 343.71875 366.09375 C 373.58065 361.00875 403.917 359.89725 434.125 358.53125 C 468.0218 357.53425 501.8763 355.684 535.6875 353.125 C 567.6365 351.255 599.3646 346.797 631.25 344.25 C 650.3127 343.174 669.3777 344.47825 688.375 346.03125 C 701.0735 347.15125 713.6785 349.28975 726.1875 351.71875 C 727.56605 352.00747 728.96781 352.33444 730.34375 352.6875 C 724.57935 363.55569 719.80267 374.98178 715.125 386.34375 C 706.8922 407.06175 699.5891 428.10925 692.625 449.28125 C 686.9505 467.14625 771.16925 493.89525 776.84375 476.03125 C 782.62195 457.11025 788.86615 438.352 796.28125 420 C 801.19155 408.262 805.8854 396.061 813.6875 385.875 C 829.1723 368.483 838.45705 351.60025 830.84375 327.03125 C 825.76415 316.33825 819.27635 306.62925 810.78125 298.28125 C 802.51455 290.87225 793.5035 284.6185 783.8125 279.1875 C 770.8203 272.4325 757.14465 267.3285 742.65625 264.8125 C 726.91425 261.8855 711.06945 259.2895 695.09375 258.0625 C 671.39185 256.3605 647.58505 255.16025 623.84375 256.90625 C 595.04695 259.45665 566.36972 263.29825 537.53125 265.40625 C 552.49612 258.25359 563.7 249.41429 561.1875 242.5 C 559.5689 238.963 557.96235 235.412 556.34375 231.875 C 547.15375 218.158 535.6161 206.5705 524.75 194.1875 C 510.4316 177.3075 497.292 159.4715 485.5625 140.6875 C 484.0648 138.5147 481.33328 137.63647 477.78125 137.78125 z M 226.71875 434.53125 C 226.86491 436.35125 226.94893 436.78531 226.78125 434.71875 C 226.75772 434.65724 226.74228 434.59276 226.71875 434.53125 z M 749.46875 362.5 C 749.57924 362.581 749.68819 362.67045 749.75 362.71875 C 750.46028 364.23337 750.81074 365.02647 749.46875 362.5 z M 556.90625 384 C 538.21813 385.27637 496.31861 447.69281 510.5 457.59375 C 532.3562 472.20775 552.31835 489.381 572.21875 506.5 C 583.10935 516.13907 594.11325 525.76818 604.03125 536.40625 C 602.5867 536.56774 601.13189 536.71647 599.6875 536.875 C 573.1161 540.169 546.5258 543.48925 519.75 544.53125 C 482.6367 545.87925 445.47115 545.6045 408.40625 548.1875 C 376.36955 550.7915 344.45355 554.473 312.71875 559.625 C 294.23265 562.827 309.3264 649.98325 327.8125 646.78125 C 355.73784 641.09187 384.03567 637.83243 412.40625 635.4375 C 411.66882 654.79022 410.1129 674.10341 408.59375 693.40625 C 406.48765 717.90425 404.9946 742.45125 404.375 767.03125 C 404.23072 773.0141 404.10198 778.98346 404.03125 784.96875 C 376.57527 785.90021 349.1159 786.9057 321.6875 788.5 C 291.5983 790.268 261.19355 792.001 232.46875 802 C 214.82805 808.446 245.2343 891.6335 262.875 885.1875 C 283.423 877.7275 305.51405 877.17 327.09375 875.75 C 369.15815 872.912 411.3176 871.66 453.4375 870 C 500.4471 867.732 547.2312 862.6015 594.3125 862.0625 C 624.9517 861.5025 655.05555 865.92025 684.53125 873.90625 C 701.09795 878.66625 717.4167 884.354 733.5625 890.375 C 734.5843 890.813 735.6032 891.2495 736.625 891.6875 C 754.0856 898.6505 786.8982 816.338 769.4375 809.375 C 767.4501 808.613 765.45625 807.8245 763.46875 807.0625 C 744.73015 800.5585 725.898 794.2645 706.75 789.0625 C 669.5035 779.5715 631.51575 774.2815 592.96875 775.1875 C 559.41243 775.82596 525.97947 778.42291 492.53125 780.75 C 492.56281 776.71372 492.6022 772.68757 492.59375 768.65625 C 492.83945 745.83725 493.87995 723.0515 495.84375 700.3125 C 497.63588 677.68874 499.40334 655.03904 500.59375 632.375 C 507.98141 632.21307 515.36527 632.02234 522.75 631.78125 C 551.842 630.78125 580.7575 627.404 609.6875 624.375 C 615.1489 623.634 627.51775 622.92025 630.34375 623.03125 C 644.29814 623.02977 647.91274 574.39116 641.21875 549.0625 C 667.02913 543.76549 699.73373 528.07419 695.875 516.71875 C 691.8905 507.08075 687.75645 497.904 680.71875 490 C 665.12335 471.766 647.5096 455.50875 629.25 439.96875 C 607.0716 421.02175 584.751 402.2045 561.125 385.0625 C 559.92318 384.22352 558.48999 383.89183 556.90625 384 z M 346.71875 385.5 C 345.84094 385.53997 344.99843 385.74975 344.21875 386.15625 C 313.89765 402.95825 289.02745 426.7735 266.28125 452.5625 C 247.74655 474.6845 231.79165 498.73825 217.96875 524.03125 C 210.50635 538.71625 202.93485 553.406 197.21875 568.875 C 191.08245 586.656 274.89495 615.5935 281.03125 597.8125 C 283.50435 586.4645 291.4796 576.54625 295.5 565.78125 C 305.8845 546.08125 318.1208 527.412 332.1875 510.125 C 347.5006 492.363 364.06405 475.5485 385.09375 464.5625 C 400.94717 456.297 364.56763 384.68733 346.71875 385.5 z "
     id="path8990" />
</svg>
