<?xml version="1.0" encoding="UTF-8" standalone="no"?>
<svg
   xmlns:dc="http://purl.org/dc/elements/1.1/"
   xmlns:cc="http://creativecommons.org/ns#"
   xmlns:rdf="http://www.w3.org/1999/02/22-rdf-syntax-ns#"
   xmlns:svg="http://www.w3.org/2000/svg"
   xmlns="http://www.w3.org/2000/svg"
   xmlns:sodipodi="http://sodipodi.sourceforge.net/DTD/sodipodi-0.dtd"
   xmlns:inkscape="http://www.inkscape.org/namespaces/inkscape"
   width="1024"
   height="1024"
   id="U7BEE"
   version="1.1"
   inkscape:version="0.48.0 r9654"
   sodipodi:docname="U+7BEE.svg">
  <metadata
     id="metadata23">
    <rdf:RDF>
      <cc:Work
         rdf:about="">
        <dc:format>image/svg+xml</dc:format>
        <dc:type
           rdf:resource="http://purl.org/dc/dcmitype/StillImage" />
      </cc:Work>
    </rdf:RDF>
  </metadata>
  <defs
     id="defs21" />
  <sodipodi:namedview
     pagecolor="#ffffff"
     bordercolor="#666666"
     borderopacity="1"
     objecttolerance="10"
     gridtolerance="10"
     guidetolerance="10"
     inkscape:pageopacity="0"
     inkscape:pageshadow="2"
     inkscape:window-width="640"
     inkscape:window-height="480"
     id="namedview19"
     showgrid="false"
     inkscape:zoom="0.27441406"
     inkscape:cx="512"
     inkscape:cy="512"
     inkscape:window-x="0"
     inkscape:window-y="25"
     inkscape:window-maximized="0"
     inkscape:current-layer="U7BEE" />
  <path
     style="fill:#2b0000;fill-opacity:1;fill-rule:nonzero;stroke:#f9f9f9;stroke-width:0.1;stroke-miterlimit:4;stroke-dasharray:none"
     d="M 511.78125 55.53125 C 487.16845 55.28325 463.35575 61.20125 439.78125 67.90625 C 402.50785 78.21625 365.48125 89.2745 328.53125 100.6875 C 314.42174 104.89567 300.27897 109.03877 286.125 113.09375 C 275.63271 92.830698 223.41381 59.412467 214.40625 72.28125 C 197.67635 98.29825 183.38345 125.7525 169.90625 153.5625 C 158.84345 176.8225 149.6673 200.92775 140.8125 225.09375 C 137.1842 234.37075 134.4678 243.94 132.1875 253.625 C 128.1128 272.019 214.83155 291.23875 218.90625 272.84375 C 220.10425 266.71375 221.6479 260.6605 223.875 254.8125 C 231.3313 233.4375 239.0584 212.10675 248.6875 191.59375 C 248.77841 191.40451 248.87775 191.22047 248.96875 191.03125 C 254.72673 203.30374 261.59662 211.82578 267.6875 210.03125 C 285.06936 204.68127 302.50967 199.51124 319.9375 194.3125 C 307.40825 206.07181 298.94947 218.47469 303.625 224.40625 C 318.8916 243.74525 334.75325 262.5725 351.03125 281.0625 C 361.71595 293.1235 372.43435 305.145 384.46875 315.875 C 398.78115 328.046 456.15615 260.57725 441.84375 248.40625 C 432.08755 241.60925 425.4149 230.88575 416.8125 222.84375 C 403.44534 207.82576 390.33876 192.57304 378.25 176.5 C 406.26026 167.91086 434.4087 159.77519 462.71875 152.21875 C 477.23185 149.65975 493.06965 142.54325 507.71875 144.03125 C 495.93214 143.15403 502.72499 144.32664 487.09375 135.96875 C 493.72836 137.53247 505.42625 130.40914 516.78125 120.25 C 512.16935 135.37216 507.62406 150.50908 503.09375 165.65625 C 496.18525 188.61325 489.26105 211.59625 482.28125 234.53125 C 481.08235 238.53925 479.84905 242.51 478.59375 246.5 C 473.32985 264.59 558.6111 289.4025 563.875 271.3125 C 564.9584 267.2575 566.0661 263.2325 567.1875 259.1875 C 572.76443 239.02156 578.4341 218.86162 584.3125 198.78125 C 595.57595 211.39538 607.50755 219.975 613.5 215.53125 C 627.3977 205.61025 643.49075 199.84825 659.59375 194.65625 C 666.96227 192.44518 674.40845 190.47775 681.875 188.65625 C 666.04982 194.47013 653.73882 202.40342 655.65625 209.59375 C 664.03725 237.50275 678.3956 262.8685 693.9375 287.3125 C 701.3544 298.8595 709.47835 309.9055 717.28125 321.1875 C 728.21165 336.4765 800.27415 284.9755 789.34375 269.6875 C 782.06325 259.7875 774.65715 249.983 767.84375 239.75 C 757.00435 223.175 746.5282 206.01025 741.125 186.78125 C 739.75568 181.64634 731.92094 179.79357 721.5 180.1875 C 724.98405 179.52344 728.45166 178.8972 731.9375 178.25 C 755.1147 173.925 778.49215 170.8985 801.96875 168.8125 C 815.00745 167.7055 828.1013 166.9705 841.1875 167.1875 C 841.7889 167.2585 842.36735 167.33625 842.96875 167.40625 C 861.75525 168.44225 866.6615 79.88075 847.875 78.84375 C 845.7746 78.76575 843.6629 78.705 841.5625 78.625 C 825.5741 78.699 809.5996 79.56625 793.6875 81.15625 C 767.6368 83.74525 741.70635 87.2305 715.96875 92.0625 C 687.88095 97.2675 659.76275 102.7095 632.40625 111.0625 C 624.43234 113.67522 616.51848 116.43774 608.71875 119.5 C 611.18203 112.16557 613.72716 104.86527 616.375 97.59375 C 621.79799 81.694728 555.22552 57.126482 536.9375 64.9375 C 523.81251 56.628284 529.48987 58.672351 511.78125 55.53125 z M 473.75 315.90625 C 466.73986 315.98573 461.71619 317.66897 460.40625 321.5625 C 451.75695 345.8925 442.07465 369.85125 433.34375 394.15625 C 424.96645 418.25625 417.2275 442.5445 409.75 466.9375 C 406.5649 476.9075 404.51375 487.22225 401.21875 497.15625 C 395.95585 515.26325 481.2996 540.07575 486.5625 521.96875 C 489.181 512.09575 491.4314 502.13525 494.125 492.28125 C 497.86178 479.54074 501.71285 466.81622 505.71875 454.15625 C 514.08426 463.22471 522.29421 468.54218 527.3125 465.34375 C 544.6047 453.50475 564.2193 445.993 584 439.5 C 584.70904 439.28961 585.41449 439.11017 586.125 438.90625 C 566.18661 453.51654 547.09985 475.28254 553.90625 483.5 C 569.16415 500.464 582.60835 518.90875 595.65625 537.59375 C 601.44855 545.79875 607.3139 553.94675 613.1875 562.09375 C 624.3622 577.19975 695.58105 524.5425 684.40625 509.4375 C 678.69055 501.9165 673.00835 494.3395 667.46875 486.6875 C 653.76146 467.59737 639.71115 448.76812 624.84375 430.5625 C 636.47712 428.73416 648.20443 427.35789 659.90625 426.125 C 684.05135 424.139 708.23835 422.70725 732.40625 421.03125 C 744.79435 420.41825 757.12105 419.23 769.34375 417.125 C 787.81495 413.393 770.2212 326.29925 751.75 330.03125 C 743.423 332.45825 734.58075 332.303 726.03125 333.25 C 700.85455 335.158 675.6511 336.73775 650.5 338.96875 C 618.7912 342.45475 587.03875 346.82325 556.46875 356.28125 C 550.75185 358.18211 545.05871 360.17398 539.40625 362.25 C 541.04321 358.10247 542.68602 353.9649 544.3125 349.8125 C 548.99086 335.90703 498.7862 315.62238 473.75 315.90625 z M 355.78125 324.78125 C 329.72013 324.49902 295.80856 332.37188 297 344.03125 C 300.6362 375.53925 300.95575 407.323 301.53125 439 C 301.58165 472.967 303.6547 506.856 305.625 540.75 C 306.969 560.569 307.62765 580.46375 309.78125 600.21875 C 310.82585 614.18675 315.02745 625.80575 321.65625 638.09375 C 332.34347 652.90806 400.22275 604.66386 394.59375 587.65625 C 400.8222 600.37533 400.41789 603.96027 397.625 589.46875 C 395.0121 571.54875 394.76655 553.35675 393.09375 535.34375 C 390.95225 502.73675 388.76375 470.1335 388.71875 437.4375 C 388.10405 403.2955 387.5438 369.1235 384.9375 335.0625 C 384.22264 328.06688 371.41792 324.95059 355.78125 324.78125 z M 227.65625 365.125 C 217.33971 365.07777 209.67267 367.17603 208.46875 372.3125 C 202.50965 400.1655 199.69535 428.50775 197.28125 456.84375 C 194.44975 472.89675 197.9307 489.87875 194.75 505.84375 C 194.5877 507.30475 194.44345 508.75875 194.28125 510.21875 C 192.55665 528.96975 280.93165 537.09475 282.65625 518.34375 C 282.69895 517.58075 282.73925 516.8255 282.78125 516.0625 C 284.41935 498.7695 283.51115 481.3885 284.71875 464.0625 C 286.62875 440.0505 288.6446 415.928 294.5625 392.5 C 297.63918 379.37275 254.02074 365.24569 227.65625 365.125 z M 726.28125 590.59375 C 715.35395 590.55778 704.41838 591.03875 693.53125 592.3125 C 668.31105 594.9365 643.2189 598.54175 618.25 602.96875 C 584.5907 608.84975 551.07485 615.53325 517.65625 622.65625 C 475.59325 631.44725 433.6442 640.753 392.125 651.875 C 362.4754 659.495 332.82445 667.3895 302.53125 672.0625 C 300.21959 672.50852 298.45816 674.27564 297.1875 677 C 281.471 666.88535 210.5879 692.51709 216.1875 708.90625 C 225.2511 736.20125 233.26895 763.7935 243.15625 790.8125 C 244.89697 795.36168 246.72943 799.86757 248.65625 804.3125 C 221.43142 804.82043 194.22226 805.76238 167.03125 807.34375 C 148.30905 808.46075 153.5903 896.71175 172.3125 895.59375 C 204.9867 892.40675 237.79055 891.568 270.59375 891 C 321.50315 889.789 372.35025 887.6545 423.28125 888.3125 C 486.41925 891.8185 549.4378 895.07675 612.6875 893.84375 C 667.9594 891.67275 723.02555 886.2925 778.28125 883.8125 C 815.69165 882.6605 853.10745 882.83 890.53125 882.75 C 908.21235 883.826 926.1135 880.51 943.75 882.25 C 948.9798 883.015 954.35205 883.7615 959.46875 884.8125 C 978.03355 888.1905 993.97105 800.65825 975.40625 797.28125 C 966.60975 795.88925 957.7448 794.70225 948.875 793.90625 C 929.1636 793.06725 909.5312 795.1075 889.8125 795.1875 C 854.93309 795.69112 820.05519 795.79526 785.1875 796.875 C 792.81596 771.01042 800.16607 745.05526 807 718.96875 C 810.9115 704.05975 814.22765 688.93625 819.40625 674.40625 C 827.57275 655.59525 830.58925 635.32325 818.21875 617.28125 C 807.95205 604.55925 795.24315 596.385 778.96875 594 C 768.02275 592.244 756.9915 591.8475 745.9375 591.1875 C 739.38122 590.82788 732.83763 590.61533 726.28125 590.59375 z M 721.46875 678.90625 C 723.10133 678.88822 724.71086 678.8894 726.34375 678.90625 C 724.87552 685.04765 723.44648 691.19705 721.9375 697.3125 C 714.1751 728.9375 705.19545 760.25175 695.53125 791.34375 C 693.80602 794.74503 692.70712 798.72156 691.65625 802.8125 C 671.02155 804.36132 650.38092 805.88053 629.71875 807.03125 C 629.89444 792.6066 630.44686 778.17956 630.6875 763.75 C 630.94611 738.96963 630.45589 714.14068 632.1875 689.40625 C 632.51021 689.35101 632.83352 689.3051 633.15625 689.25 C 656.06805 685.289 679.1032 682.179 702.25 680 C 708.64415 679.326 715.06316 678.977 721.46875 678.90625 z M 762.34375 681.1875 C 762.6144 681.23818 762.88675 681.28709 763.15625 681.34375 C 763.72635 681.47875 764.3251 681.548 764.875 681.75 C 764.89397 681.75705 764.89841 681.77633 764.90625 681.78125 C 764.77685 681.78884 764.25915 681.7325 764.0625 681.6875 C 763.53669 681.56287 762.95232 681.37908 762.34375 681.1875 z M 543.34375 706.28125 C 543.10499 725.17797 543.29052 744.07153 543.15625 762.96875 C 542.80952 777.87734 542.31065 792.78742 542.09375 807.6875 C 519.14837 807.0785 496.21738 806.00548 473.28125 804.8125 C 471.45785 796.44983 468.72542 789.87491 465.09375 787.125 C 471.16855 789.25184 477.23773 791.37237 483.3125 793.5 C 485.05392 795.45164 487.26391 797.73996 489.03125 799.75 C 486.50419 792.22044 483.61334 778.53724 484.125 778 C 482.00226 758.57341 480.812 739.03535 481.1875 719.5 C 499.19171 715.44855 517.23226 711.61516 535.3125 707.90625 C 537.98658 707.35208 540.66853 706.82952 543.34375 706.28125 z M 489.03125 799.75 C 490.06025 802.81599 491.03912 804.88283 491.6875 804.59375 C 492.63336 804.17181 491.16146 802.17275 489.03125 799.75 z M 393.90625 741.375 C 394.46747 756.59151 395.54784 771.8007 397.03125 786.96875 C 397.88495 791.79747 398.69637 796.84999 399.5625 801.96875 C 370.31851 801.91533 341.07934 802.48742 311.84375 803.125 C 303.36623 798.88535 295.71169 796.61918 290.90625 797.8125 C 310.07053 785.61648 321.76777 777.23791 343.96875 794.71875 C 339.66784 788.31105 319.61034 755.83804 325.28125 760.53125 C 324.9627 759.6768 324.62644 758.82466 324.3125 757.96875 C 347.69891 753.25145 370.83098 747.41663 393.90625 741.375 z M 343.96875 794.71875 C 344.87581 796.07013 345.31749 796.66989 344.40625 795.0625 C 344.25783 794.94409 344.11623 794.83488 343.96875 794.71875 z "
     id="path9284" />
</svg>
