<?xml version="1.0" encoding="utf-8" ?>

<!DOCTYPE svg PUBLIC "-//W3C//DTD SVG 1.1//EN" 
  "http://www.w3.org/Graphics/SVG/1.1/DTD/svg11.dtd">
<svg 
    xmlns="http://www.w3.org/2000/svg"
    xmlns:xlink="http://www.w3.org/1999/xlink"
    xmlns:sodipodi="http://sodipodi.sourceforge.net/DTD/sodipodi-0.dtd"
    xmlns:inkscape="http://www.inkscape.org/namespaces/inkscape"
    width="1024" height="1024" id="U7B11">
<path d="m 8376.1002,54426.91 c -13.0086,30.508 -22.5996,62.322 -32.0665,94.062 -12.3763,41.888 -23.5168,84.184 -30.745,127.284 -1.9425,5.502 -1.0988,14.701 -0.6711,19.721 1.9476,18.642 -85.9288,27.822 -87.8764,9.181 l 0,0 c -0.7867,-14.935 -0.6272,-29.563 2.6253,-44.295 8.6928,-46.007 20.4994,-91.33 33.5586,-136.282 10.0988,-34.946 20.5035,-69.84 33.4872,-103.847 7.2497,-17.328 88.9377,16.847 81.6879,34.176 z" id="path11890" inkscape:connector-curvature="0" style="fill:#916f6f;fill-opacity:1;fill-rule:nonzero;stroke:#f9f9f9;stroke-width:0.1;stroke-miterlimit:4;stroke-dasharray:none" transform="translate(-8192, -54272)"/><path d="m 8313.0141,54481.638 c 33.6489,-10.506 67.6442,-19.7 101.9429,-27.817 44.9716,-10.576 90.6802,-17.165 136.6558,-21.25 23.6583,-1.757 47.3958,-2.838 71.0856,-1.215 18.7098,1.609 11.1259,89.807 -7.5839,88.199 l 0,0 c -18.6851,-2.244 -37.5982,-0.827 -56.3283,-0.103 -41.6283,3.141 -82.9882,8.972 -123.6139,18.774 -31.7862,7.713 -63.3496,16.352 -94.1693,27.379 -17.812,5.937 -45.8009,-78.029 -27.9889,-83.967 z" id="path11913" inkscape:connector-curvature="0" style="fill:#916f6f;fill-opacity:1;fill-rule:nonzero;stroke:#f9f9f9;stroke-width:0.1;stroke-miterlimit:4;stroke-dasharray:none" transform="translate(-8192, -54272)"/><path d="m 8515.5122,54537.949 c 19.6935,23.641 36.6788,49.349 54.3068,74.524 6.4303,9.314 13.4775,18.131 20.8914,26.667 12.033,14.256 -55.1722,70.981 -67.2053,56.724 l 0,0 c -8.9212,-10.78 -17.6302,-21.718 -25.498,-33.308 -15.2926,-22.014 -29.9286,-44.651 -47.6424,-64.833 -12.6801,-13.82 52.4674,-73.594 65.1475,-59.774 z" id="path11919" inkscape:connector-curvature="0" style="fill:#916f6f;fill-opacity:1;fill-rule:nonzero;stroke:#f9f9f9;stroke-width:0.1;stroke-miterlimit:4;stroke-dasharray:none" transform="translate(-8192, -54272)"/><path d="m 8716.4507,54400.205 c -8.8386,34.323 -15.4911,69.175 -21.9854,104.005 -5.4472,28.234 -9.3731,56.733 -9.2692,85.513 -0.247,18.686 -88.3339,17.522 -88.0869,-1.164 l 0,0 c 0.8712,-33.738 5.4576,-67.142 11.9875,-100.244 6.8038,-36.593 13.7946,-73.156 21.5594,-109.559 4.55,-18.2 90.3445,3.249 85.7946,21.449 z" id="path11921" inkscape:connector-curvature="0" style="fill:#916f6f;fill-opacity:1;fill-rule:nonzero;stroke:#f9f9f9;stroke-width:0.1;stroke-miterlimit:4;stroke-dasharray:none" transform="translate(-8192, -54272)"/><path d="m 8675.8843,54441.404 c 31.2494,-8.923 63.4191,-14.017 95.4976,-18.887 42.0795,-5.835 84.2865,-10.699 126.5378,-15.099 32.5952,-3.381 65.2776,-5.978 98.0613,-5.711 18.4837,0.37 36.864,2.56 54.5447,8.001 17.8057,6.087 -10.8923,90.024 -28.698,83.937 l 0,0 c -7.312,-3.049 -18.6481,-3.32 -27.3019,-4.06 -29.3262,-0.815 -58.5927,1.673 -87.7719,4.396 -40.7724,4.073 -81.4896,8.749 -122.0466,14.616 -26.9093,4.254 -54.0006,8.501 -80.0862,16.555 -17.7654,6.096 -46.5022,-77.652 -28.7368,-83.748 z" id="path11923" inkscape:connector-curvature="0" style="fill:#916f6f;fill-opacity:1;fill-rule:nonzero;stroke:#f9f9f9;stroke-width:0.1;stroke-miterlimit:4;stroke-dasharray:none" transform="translate(-8192, -54272)"/><path d="m 8857.4713,54499.244 c 11.8866,26.658 26.7023,51.835 41.638,76.86 13.67,22.57 27.8788,44.807 42.1269,67.014 9.947,15.721 -64.1588,62.611 -74.1058,46.891 l 0,0 c -14.3604,-23.012 -28.8451,-45.948 -42.9278,-69.132 -16.2706,-27.183 -32.1576,-54.597 -46.313,-82.957 -8.2042,-16.882 71.3774,-55.557 79.5817,-38.676 z" id="path11925" inkscape:connector-curvature="0" style="fill:#916f6f;fill-opacity:1;fill-rule:nonzero;stroke:#f9f9f9;stroke-width:0.1;stroke-miterlimit:4;stroke-dasharray:none" transform="translate(-8192, -54272)"/><path d="m 8498.6165,54743.269 c -11.4742,32.429 -19.9699,65.803 -27.5901,99.315 -2.3548,18.517 -9.9521,37.911 -7.1738,56.816 0.7401,18.696 -87.3967,22.185 -88.1368,3.489 l 0,0 c -0.2519,-26.996 4.3997,-53.475 10.4419,-79.751 8.3615,-36.243 17.7496,-72.235 28.6661,-107.8 5.925,-17.775 89.7177,10.156 83.7927,27.931 z" id="path11927" inkscape:connector-curvature="0" style="fill:#916f6f;fill-opacity:1;fill-rule:nonzero;stroke:#f9f9f9;stroke-width:0.1;stroke-miterlimit:4;stroke-dasharray:none" transform="translate(-8192, -54272)"/><path d="m 8484.5812,54750.627 c 40.8455,-8.097 82.1916,-13.295 123.4113,-19.059 53.7518,-7.761 107.5761,-14.996 161.4727,-21.675 35.1117,-4.5 70.4289,-6.746 105.7849,-8.012 12.872,-0.503 25.7149,-0.398 38.4868,1.326 18.5865,3.056 4.1808,90.673 -14.4058,87.617 l 0,0 c -6.9241,-1.711 -14.6969,-0.589 -21.8631,-1.025 -32.6314,0.452 -65.2338,2.112 -97.6552,6.014 -53.2999,6.229 -106.5017,13.256 -159.5632,21.278 -38.8254,5.7 -77.8998,10.608 -116.1153,19.692 -18.2764,4.148 -37.8295,-82.008 -19.5531,-86.156 z" id="path11930" inkscape:connector-curvature="0" style="fill:#916f6f;fill-opacity:1;fill-rule:nonzero;stroke:#f9f9f9;stroke-width:0.1;stroke-miterlimit:4;stroke-dasharray:none" transform="translate(-8192, -54272)"/><path d="m 8342.992,54978.559 c 42.3351,-2.392 83.9163,-11.872 125.3314,-20.409 72.0294,-15.472 144.6065,-28.153 217.1161,-41.116 59.02,-9.814 117.1559,-23.918 175.4064,-37.385 38.7106,-9.582 78.2063,-14.527 118.0184,-15.453 16.8522,-0.157 33.6873,0.695 50.4843,1.974 18.7339,1.671 10.8585,89.983 -7.8754,88.313 l 0,0 c -13.7362,-1.44 -27.5204,-2.429 -41.3371,-2.574 -33.7775,0.109 -67.2732,4.202 -100.166,12.032 -59.6899,13.28 -119.2313,27.367 -179.6287,37.19 -71.6079,12.576 -143.291,24.903 -214.2467,40.854 -45.7792,9.965 -91.6304,20.598 -138.3675,24.965 -18.7505,1.004 -23.4857,-87.387 -4.7352,-88.391 z" id="path11932" inkscape:connector-curvature="0" style="fill:#916f6f;fill-opacity:1;fill-rule:nonzero;stroke:#f9f9f9;stroke-width:0.1;stroke-miterlimit:4;stroke-dasharray:none" transform="translate(-8192, -54272)"/><path d="m 8732.5929,54806.516 c -11.5475,43.336 -24.3016,86.292 -38.1669,128.942 -21.5745,66.39 -50.4233,129.959 -81.9107,192.141 -18.1425,35.965 -39.2367,70.272 -59.9017,104.804 -1.124,1.96 -2.248,3.92 -3.3719,5.881 -9.7438,16.011 -85.2245,-29.921 -75.4808,-45.933 l 0,0 c 1.3801,-2.154 2.7602,-4.309 4.1403,-6.464 20.5519,-31.747 40.7192,-63.778 58.1591,-97.375 29.8529,-57.798 56.9297,-117.083 76.5811,-179.22 13.0071,-41.358 25.0522,-83.001 34.4534,-125.348 4.7882,-18.137 90.2862,4.435 85.4981,22.572 z" id="path11934" inkscape:connector-curvature="0" style="fill:#916f6f;fill-opacity:1;fill-rule:nonzero;stroke:#f9f9f9;stroke-width:0.1;stroke-miterlimit:4;stroke-dasharray:none" transform="translate(-8192, -54272)"/><path d="m 8695.6637,55029.785 c 31.8546,14.587 62.096,32.368 92.4847,49.726 34.1424,20.08 68.9645,38.892 105.2324,54.833 24.7094,10.191 50.2533,18.161 75.6858,26.314 9.7918,3.109 5.1467,1.64 13.9343,4.41 17.8176,5.866 -9.8368,89.859 -27.6543,83.993 l 0,0 c -8.8164,-3.027 -4.1536,-1.427 -13.9886,-4.799 -27.9757,-9.573 -56.1679,-18.649 -83.3776,-30.287 -38.7448,-17.392 -76.1504,-37.41 -112.8012,-58.863 -27.4805,-15.54 -54.7901,-31.75 -84.0122,-43.856 -17.2826,-7.318 17.2141,-88.789 34.4967,-81.471 z" id="path11938" inkscape:connector-curvature="0" style="fill:#916f6f;fill-opacity:1;fill-rule:nonzero;stroke:#f9f9f9;stroke-width:0.1;stroke-miterlimit:4;stroke-dasharray:none" transform="translate(-8192, -54272)"/></svg>