<?xml version="1.0" encoding="UTF-8" standalone="no"?>
<svg
   xmlns:dc="http://purl.org/dc/elements/1.1/"
   xmlns:cc="http://creativecommons.org/ns#"
   xmlns:rdf="http://www.w3.org/1999/02/22-rdf-syntax-ns#"
   xmlns:svg="http://www.w3.org/2000/svg"
   xmlns="http://www.w3.org/2000/svg"
   xmlns:sodipodi="http://sodipodi.sourceforge.net/DTD/sodipodi-0.dtd"
   xmlns:inkscape="http://www.inkscape.org/namespaces/inkscape"
   width="1024"
   height="1024"
   id="U7B80"
   version="1.1"
   inkscape:version="0.48.0 r9654"
   sodipodi:docname="U+7B80.svg">
  <metadata
     id="metadata20">
    <rdf:RDF>
      <cc:Work
         rdf:about="">
        <dc:format>image/svg+xml</dc:format>
        <dc:type
           rdf:resource="http://purl.org/dc/dcmitype/StillImage" />
      </cc:Work>
    </rdf:RDF>
  </metadata>
  <defs
     id="defs18" />
  <sodipodi:namedview
     pagecolor="#ffffff"
     bordercolor="#666666"
     borderopacity="1"
     objecttolerance="10"
     gridtolerance="10"
     guidetolerance="10"
     inkscape:pageopacity="0"
     inkscape:pageshadow="2"
     inkscape:window-width="640"
     inkscape:window-height="480"
     id="namedview16"
     showgrid="false"
     inkscape:zoom="0.27441406"
     inkscape:cx="512"
     inkscape:cy="512"
     inkscape:window-x="0"
     inkscape:window-y="25"
     inkscape:window-maximized="0"
     inkscape:current-layer="U7B80" />
  <path
     style="fill:#550000;fill-opacity:1;fill-rule:nonzero;stroke:#f9f9f9;stroke-width:0.1;stroke-miterlimit:4;stroke-dasharray:none"
     d="M 229.53125 162.375 C 223.96759 162.39489 219.93681 163.80056 218.53125 167.0625 C 204.48515 203.1695 191.5341 239.69725 178.4375 276.15625 C 162.3159 320.59725 147.3362 365.46025 132.3125 410.28125 C 127.5635 424.33925 122.743 438.3565 118.0625 452.4375 C 112.3434 470.3845 196.9684 497.35325 202.6875 479.40625 C 206.9199 465.47825 211.34145 451.62425 215.84375 437.78125 C 226.7397 404.07075 237.81442 370.41197 249.59375 337 C 253.92104 350.24982 259.87771 359.86853 266.28125 358.78125 C 279.13173 356.22047 291.95861 353.53422 304.78125 350.84375 C 295.48242 361.79789 290.17941 372.29743 294.59375 377.25 C 314.27905 399.176 337.10665 417.629 360.96875 434.75 C 371.74925 442.276 382.54795 449.745 393.34375 457.25 C 408.85275 467.933 459.1966 394.83925 443.6875 384.15625 C 433.2528 377.03525 422.8202 369.8845 412.4375 362.6875 C 401.01889 354.56343 389.83268 346.12206 379.5 336.71875 C 398.24117 333.88561 417.07784 331.54799 436 330.65625 C 454.8369 329.41625 448.99305 240.60475 430.15625 241.84375 C 399.00095 244.31375 368.0395 248.961 337.25 254.25 C 316.54593 258.17747 295.93323 262.56636 275.21875 266.4375 C 283.16926 244.90422 291.37939 223.45262 300.53125 202.40625 C 306.62199 188.27119 253.64044 162.28881 229.53125 162.375 z M 565.46875 165.875 C 556.77025 165.83452 550.40365 167.69975 549.09375 172.25 C 539.52925 205.142 525.05265 236.32425 511.40625 267.65625 C 497.15415 300.28125 483.0381 333.018 466.125 364.375 C 457.4201 381.046 536.01395 422.07725 544.71875 405.40625 C 557.34992 380.54249 568.90324 355.17967 580.125 329.65625 C 588.23122 325.64554 596.39949 321.81231 604.65625 318.125 C 592.25944 327.22024 583.89692 336.99019 587.3125 343.0625 C 602.20042 367.26154 622.49191 387.27733 642.8125 406.875 C 611.1751 408.45299 579.63789 411.519 548.40625 417 C 511.22305 424.362 474.0405 433.5075 440.5625 451.9375 C 424.3404 461.7295 470.49665 538.19825 486.71875 528.40625 C 510.91765 514.64825 538.4014 508.65575 565.4375 503.34375 C 602.2383 496.98475 639.54245 494.36825 676.84375 493.78125 C 701.16865 494.08725 725.9773 494.69775 749.3125 502.21875 C 757.4118 507.11775 749.50515 501.77025 750.40625 507.65625 C 754.29145 534.71125 753.30525 562.254 752.84375 589.5 C 751.07195 640.519 748.30505 691.51425 746.46875 742.53125 C 744.92605 779.48625 744.96825 816.556 741.15625 853.375 C 740.89905 858.641 739.28775 866.92825 736.71875 870.40625 C 728.19375 887.33225 807.9751 927.51875 816.5 910.59375 C 823.6063 894.86975 828.55945 878.8485 829.40625 861.4375 C 832.55075 822.8755 832.6166 784.152 833.875 745.5 C 835.5357 694.128 838.2974 642.81475 840.5625 591.46875 C 841.5735 554.68175 843.71045 517.142 835.40625 481 C 824.25225 448.461 807.62735 427.7415 773.96875 416.8125 C 758.31718 412.55589 742.42631 409.66483 726.40625 407.90625 C 737.49731 395.13108 744.44836 382.24169 739.28125 376.84375 C 728.32615 365.59675 716.90575 354.84525 705.40625 344.15625 C 690.93165 330.27725 675.8752 316.39675 665.25 299.21875 C 663.94606 296.90059 661.29166 295.74867 657.71875 295.5625 C 680.83499 286.04588 704.20445 277.06897 728.25 270.1875 C 746.3163 264.7535 720.6914 179.59725 702.625 185.03125 C 677.97432 192.72345 653.80981 201.77368 629.90625 211.53125 C 631.63529 206.70315 633.3159 201.84986 634.90625 196.96875 C 638.83595 183.31875 591.56426 165.99645 565.46875 165.875 z M 307.125 463.15625 C 286.77749 463.54609 234.91338 511.85491 246.09375 524.5 C 255.43775 534.709 263.54635 545.90475 270.90625 557.59375 C 281.07055 573.42375 355.69555 525.5175 345.53125 509.6875 C 335.52575 494.2995 324.93635 479.3145 313.03125 465.3125 C 311.65822 463.7597 309.62382 463.10837 307.125 463.15625 z M 576.28125 531.3125 C 574.00242 531.30278 571.66181 531.34613 569.25 531.4375 C 536.5098 534.5095 504.247 541.41575 472.75 550.84375 C 443.1189 560.81575 414.2465 572.95775 388.875 591.59375 C 380.54333 597.97518 393.52 622.55112 409.28125 641.28125 C 390.10841 631.29164 323.71725 640.77456 325.5 657.09375 C 329.9495 689.18375 335.09865 721.15775 340.53125 753.09375 C 344.04475 772.74075 347.92135 792.331 352.53125 811.75 C 357.11875 830.043 443.36875 808.418 438.78125 790.125 C 437.62148 785.80777 436.53437 781.47232 435.5 777.125 C 455.65448 768.04917 477.18882 762.80194 498.78125 758.4375 C 509.96535 756.2435 521.26585 754.895 532.59375 753.75 C 551.32505 751.658 541.4813 663.37675 522.75 665.46875 C 508.7811 667.14175 494.83075 668.951 481.03125 671.75 C 460.19406 676.06677 439.47715 681.1355 419.34375 687.96875 C 417.38829 674.47792 415.64353 660.9474 414.34375 647.375 C 414.32698 647.22151 414.27818 647.08721 414.25 646.9375 C 425.59295 659.04902 437.3986 667.0442 443.25 662.5625 C 460.3612 649.3145 480.51225 641.4485 500.84375 634.6875 C 523.06993 628.35824 545.70409 622.75642 568.75 620.59375 C 569.42363 635.44005 569.02466 650.76546 568.46875 665.6875 C 566.84185 700.6015 564.313 735.44125 560.25 770.15625 C 559.30514 775.81258 558.61169 781.54213 557.78125 787.25 C 538.28896 787.06385 518.9249 788.82444 499.78125 793.40625 C 465.83235 800.89225 432.3185 810.156 398.3125 817.375 C 379.7506 821.115 397.3756 908.614 415.9375 904.875 C 450.1529 896.351 484.12385 886.86825 518.59375 879.40625 C 533.73425 876.19625 549.0485 874.36025 564.4375 876.28125 C 574.16634 876.9992 580.62125 853.61541 581.96875 830.6875 C 605.94664 838.99831 636.49799 842.39546 639.34375 831.71875 C 643.47545 814.71075 646.04225 797.4625 647.96875 780.0625 C 651.98445 743.2405 654.7865 706.3015 656.75 669.3125 C 658.1719 637.5485 660.39655 604.8325 648.28125 574.6875 C 630.12262 543.25219 610.46372 531.45826 576.28125 531.3125 z M 225.6875 632.59375 C 204.81242 632.79246 185.08942 637.17547 184.9375 646.0625 C 184.519 675.7325 186.50515 705.3015 189.34375 734.8125 C 193.97505 773.1235 197.068 811.5355 199.125 850.0625 C 200.9311 879.7285 200.28225 909.7575 207.71875 938.6875 C 213.39345 956.7775 298.6746 930.0265 293 911.9375 C 287.6979 894.0445 289.14365 866.29925 286.96875 845.28125 C 284.74655 805.62525 281.6802 766.0335 277.1875 726.5625 C 274.7909 700.3135 272.9319 673.96675 274.3125 647.59375 C 274.48468 637.52178 249.34592 632.36854 225.6875 632.59375 z "
     id="path8769" />
</svg>
