<?xml version="1.0" encoding="UTF-8" standalone="no"?>
<svg
   xmlns:dc="http://purl.org/dc/elements/1.1/"
   xmlns:cc="http://creativecommons.org/ns#"
   xmlns:rdf="http://www.w3.org/1999/02/22-rdf-syntax-ns#"
   xmlns:svg="http://www.w3.org/2000/svg"
   xmlns="http://www.w3.org/2000/svg"
   xmlns:sodipodi="http://sodipodi.sourceforge.net/DTD/sodipodi-0.dtd"
   xmlns:inkscape="http://www.inkscape.org/namespaces/inkscape"
   width="1024"
   height="1024"
   id="U7BC7"
   version="1.1"
   inkscape:version="0.48.0 r9654"
   sodipodi:docname="U+7BC7.svg">
  <metadata
     id="metadata22">
    <rdf:RDF>
      <cc:Work
         rdf:about="">
        <dc:format>image/svg+xml</dc:format>
        <dc:type
           rdf:resource="http://purl.org/dc/dcmitype/StillImage" />
      </cc:Work>
    </rdf:RDF>
  </metadata>
  <defs
     id="defs20" />
  <sodipodi:namedview
     pagecolor="#ffffff"
     bordercolor="#666666"
     borderopacity="1"
     objecttolerance="10"
     gridtolerance="10"
     guidetolerance="10"
     inkscape:pageopacity="0"
     inkscape:pageshadow="2"
     inkscape:window-width="640"
     inkscape:window-height="480"
     id="namedview18"
     showgrid="false"
     inkscape:zoom="0.27441406"
     inkscape:cx="512"
     inkscape:cy="512"
     inkscape:window-x="0"
     inkscape:window-y="25"
     inkscape:window-maximized="0"
     inkscape:current-layer="U7BC7" />
  <path
     style="fill:#c83737;fill-opacity:1;fill-rule:nonzero;stroke:#f9f9f9;stroke-width:0.1;stroke-miterlimit:4;stroke-dasharray:none"
     d="M 805.59375 150 C 801.64645 150.065 797.6973 150.1175 793.75 150.1875 C 760.6615 154.0135 728.90405 164.156 697.34375 174.5 C 690.03364 177.03935 682.73263 179.63397 675.46875 182.3125 C 656.88981 165.40231 630.53963 150.41471 623.78125 159 C 603.97365 185.81 587.22885 214.6335 571.21875 243.8125 C 556.11205 271.2565 543.43 299.91525 529.9375 328.15625 C 522.1197 345.12625 602.1197 382.00125 609.9375 365.03125 C 620.24677 341.86589 630.37248 318.55629 642.09375 296.0625 C 653.81613 318.07114 668.3687 338.44492 683.15625 358.5 C 695.25035 374.584 708.21775 389.987 720.71875 405.75 C 732.48695 420.295 801.04955 364.82725 789.28125 350.28125 C 777.29825 335.73325 764.9736 321.4495 753.5625 306.4375 C 742.08188 290.96513 730.48155 275.30885 721.625 258.15625 C 723.01257 257.6738 724.39312 257.16562 725.78125 256.6875 C 750.81075 249.8675 775.73695 239.0795 801.96875 237.9375 C 802.70945 238.0755 803.4468 238.20575 804.1875 238.34375 C 822.933 238.63675 824.33925 150.293 805.59375 150 z M 243.0625 154.6875 C 238.25163 154.60055 234.71711 155.78869 233.25 158.65625 C 215.073 196.86625 198.22385 235.6795 181.84375 274.6875 C 168.68975 306.3345 156.61595 338.41925 144.65625 370.53125 C 142.41655 374.88825 141.83205 380.034 139.28125 384.25 C 131.99415 401.608 213.8379 435.983 221.125 418.625 C 223.4571 412.569 225.56235 406.436 227.53125 400.25 C 233.88115 381.80696 240.35767 363.3972 247.1875 345.125 C 249.20484 344.99025 250.86075 344.29532 252.03125 342.96875 C 269.76005 324.65975 293.1489 313.59975 316.1875 303.59375 C 323.06396 300.78246 330.02176 298.33525 337.0625 296.15625 C 330.64257 303.54 327.43552 310.33896 330.375 314.5 C 348.0538 338.228 365.6419 361.9995 383.375 385.6875 C 392.472 397.6385 401.23935 409.8685 410.34375 421.8125 C 421.85205 436.5735 491.41445 382.3235 479.90625 367.5625 C 470.81945 356.2255 462.2169 344.51225 453.3125 333.03125 C 440.42864 316.02853 427.56866 298.9985 415.1875 281.625 C 420.90815 281.05916 426.65008 280.54708 432.375 280.09375 C 459.69669 279.12245 487.30204 277.45542 514.59375 280.03125 C 508.78112 277.87396 505.24431 273.01785 499.25 267.625 C 516.00479 275.22547 581.31028 233.66998 572.09375 218.6875 C 552.97335 201.1805 549.7838 194.9515 525.4375 192.5625 C 492.086 190.3015 458.55915 191.72325 425.21875 193.53125 C 383.88687 197.0604 342.58007 202.76408 303.1875 215.8125 C 306.02558 210.14061 308.93736 204.51339 311.90625 198.90625 C 318.97513 185.08981 266.24216 155.10643 243.0625 154.6875 z M 514.59375 280.03125 C 516.27511 280.65527 518.16418 281.07068 520.34375 281.1875 C 521.13285 281.2275 518.83555 280.647 518.09375 280.375 C 516.92315 280.24828 515.76557 280.14185 514.59375 280.03125 z M 494.15625 372.5625 C 477.81074 373.40603 451.89793 436.24316 460.375 451.96875 C 434.92333 455.61906 409.52831 459.76664 384.21875 464.375 C 342.41415 471.993 300.239 479.06875 259.8125 492.46875 C 251.18148 495.92108 254.88299 517.81319 262.9375 538.1875 C 257.59588 564.55819 252.77738 591.02761 247.65625 617.4375 C 235.94905 678.5655 221.4558 739.09 205.5625 799.25 C 194.7647 839.186 183.50365 879.004 170.78125 918.375 C 168.30225 926.433 165.16785 934.291 162.40625 942.25 C 156.84035 960.251 241.6841 986.46975 247.25 968.46875 C 248.9743 960.19875 252.86485 952.4495 254.65625 944.1875 C 266.65015 903.3035 277.80415 862.16775 288.65625 820.96875 C 298.21259 784.04904 307.40861 747.04259 315.9375 709.875 C 348.2376 704.06162 380.56633 698.28808 412.9375 692.875 C 470.0204 683.042 527.56645 676.64875 585.40625 673.84375 C 605.95865 674.22275 633.20055 671.09525 650.96875 677.03125 C 627.35365 665.31725 623.6262 667.6355 624.8125 622.3125 C 624.98953 615.55033 631.90923 611.17797 636.96875 606.15625 C 633.97545 612.29386 637.59077 625.32017 644.09375 638.8125 C 645.94843 643.63805 649.10261 649.18869 653.0625 654.84375 C 659.68303 665.17277 667.20236 674.1281 673.6875 678.34375 C 685.57474 689.28467 697.53913 696.14357 702.9375 691.375 C 706.8985 687.427 710.8516 683.47925 714.8125 679.53125 C 730.0371 656.51225 736.90785 631.5565 739.90625 604.1875 C 744.24355 576.7835 749.33315 549.19475 748.59375 521.34375 C 743.44775 481.95175 726.83665 457.987 688.09375 445.25 C 655.44873 437.54385 622.1098 436.68532 588.78125 438.34375 C 583.40565 431.66961 577.56857 425.42117 570.75 419.96875 C 548.1042 401.26275 523.83145 384.64 496.71875 373 C 495.90303 372.67084 495.03414 372.5172 494.15625 372.5625 z M 617.8125 524.21875 C 632.40322 524.1129 646.90411 525.07706 660.875 528.8125 C 660.8561 529.09334 660.87954 529.40124 660.8125 529.625 C 659.96866 549.2844 656.69943 568.74835 653.59375 588.15625 C 629.49748 585.19816 604.96487 586.3742 580.65625 587.40625 C 519.78665 591.13525 459.18965 598.14575 399.03125 608.21875 C 377.78747 611.63815 356.57644 615.24208 335.34375 618.75 C 339.28294 598.97658 343.15702 579.18235 347.53125 559.5 C 364.98002 555.71075 382.58737 552.52377 400.0625 549.1875 C 455.9789 538.5965 512.3499 530.74475 569.0625 526.09375 C 584.99785 525.76475 601.46071 524.33738 617.8125 524.21875 z M 663.625 529.5625 C 664.38987 529.78862 665.14487 530.03728 665.90625 530.28125 C 671.19083 535.54794 666.76417 531.83545 663.625 529.5625 z M 619.46875 693.78125 C 613.12311 693.78294 606.78318 693.86681 600.4375 694.03125 C 556.4429 695.80925 512.6067 700.49325 469.375 709.03125 C 431.6298 717.00725 393.6799 726.20425 359.9375 745.65625 C 352.536 750.35346 358.96283 769.13367 369.5 786.8125 C 342.98478 785.11236 301.40589 794.3868 303.03125 807.28125 C 308.78155 841.17225 316.2715 874.7315 324.125 908.1875 C 331.6525 941.0895 340.85225 973.5335 359.03125 1002.1875 C 362.64145 1006.0815 366.2648 1009.98 369.875 1013.875 C 383.6177 1026.653 443.83645 961.87075 430.09375 949.09375 C 430.65415 950.15275 431.22095 951.22225 431.78125 952.28125 C 425.66614 946.29335 421.93611 937.34718 419.125 927.65625 C 422.06596 931.16983 425.14453 933.00876 428.1875 932.3125 C 438.08428 929.77686 448.05671 927.71077 458.09375 926 C 459.21506 941.42113 460.73752 956.81423 463.28125 972.09375 C 466.72425 990.44375 553.22425 974.19375 549.78125 955.84375 C 546.9411 943.28717 545.63013 930.49706 544.75 917.65625 C 551.76212 917.37638 558.79847 917.16933 565.8125 917.03125 C 564.95752 947.93733 564.25465 978.83895 563.625 1009.75 C 563.3082 1023.663 563.1011 1037.585 562.9375 1051.5 C 563.0293 1070.175 651.06075 1069.7385 650.96875 1051.0625 C 650.66165 1037.6835 650.53625 1024.2893 650.65625 1010.9062 C 650.84927 980.16188 651.31993 949.42168 652.15625 918.6875 C 654.49409 918.8203 656.85029 918.9475 659.1875 919.09375 C 674.2416 920.58075 689.489 920.9635 704.4375 923.4375 C 705.35945 923.53642 706.2502 923.38045 707.125 923.0625 C 705.35812 939.08289 703.90399 955.16201 700.71875 970.9375 C 700.97835 970.26211 701.24041 969.58171 701.5 968.90625 C 698.86328 986.6512 765.41391 1031.2703 775.53125 1016.5312 C 785.54755 997.91125 782.11315 1006.9002 786.90625 990.03125 C 791.38355 964.11025 793.0371 937.808 796.5625 911.75 C 800.6028 877.087 804.89475 842.31175 804.28125 807.34375 C 802.68495 775.47175 798.94225 743.9135 773.90625 721.1875 C 752.06645 706.3025 728.29885 699.24 701.84375 697.625 C 674.45462 695.22731 646.96654 693.77391 619.46875 693.78125 z M 700.71875 970.9375 C 700.34701 971.90463 699.96551 972.87686 699.59375 973.84375 C 699.77575 973.79375 699.97425 973.7405 700.15625 973.6875 C 700.35301 972.77561 700.53419 971.85155 700.71875 970.9375 z M 661.5625 782.40625 C 672.29521 783.06156 683.01975 783.93494 693.71875 785 C 695.00836 783.19814 706.06638 786.28472 713.8125 788.8125 C 714.036 790.28134 715.17837 792.56431 715.34375 793.96875 C 716.25685 801.71975 716.18275 803.3195 716.59375 811.6875 C 716.70897 819.77838 716.51583 827.86715 716.125 835.9375 C 715.42876 835.55288 714.70325 835.30427 713.90625 835.21875 C 697.27205 834.05175 680.61775 832.90375 663.96875 831.96875 C 661.29162 831.83936 658.61512 831.74138 655.9375 831.625 C 657.0792 815.12104 658.68632 798.6678 661.5625 782.40625 z M 573.125 782.6875 C 571.23762 798.51349 570.03774 814.41573 569.125 830.34375 C 559.06245 830.51098 548.9965 830.77745 538.9375 831.1875 C 537.81292 816.24697 536.6035 801.32907 535.25 786.40625 C 547.83862 784.83641 560.46883 783.59897 573.125 782.6875 z M 717.125 789.90625 C 720.87877 791.21543 722.84696 792.06208 719.875 791.1875 C 718.54452 791.83798 717.79843 790.96716 717.125 789.90625 z M 448.875 803.25 C 450.19031 815.01975 451.27609 826.82069 452.25 838.625 C 437.57969 840.59688 422.96068 843.01318 408.4375 846.0625 C 404.82544 846.88897 402.70103 850.91619 401.75 856.8125 C 398.8509 843.50548 396.16013 830.14378 393.90625 816.71875 C 399.19877 820.7819 403.9846 822.47556 407.34375 820.34375 C 420.37028 812.67229 434.42864 807.39897 448.875 803.25 z "
     id="path10319" />
</svg>
