<?xml version="1.0" encoding="UTF-8" standalone="no"?>
<svg
   xmlns:dc="http://purl.org/dc/elements/1.1/"
   xmlns:cc="http://creativecommons.org/ns#"
   xmlns:rdf="http://www.w3.org/1999/02/22-rdf-syntax-ns#"
   xmlns:svg="http://www.w3.org/2000/svg"
   xmlns="http://www.w3.org/2000/svg"
   xmlns:sodipodi="http://sodipodi.sourceforge.net/DTD/sodipodi-0.dtd"
   xmlns:inkscape="http://www.inkscape.org/namespaces/inkscape"
   width="1024"
   height="1024"
   id="U7B54"
   version="1.1"
   inkscape:version="0.48.0 r9654"
   sodipodi:docname="U+7B54.svg">
  <metadata
     id="metadata19">
    <rdf:RDF>
      <cc:Work
         rdf:about="">
        <dc:format>image/svg+xml</dc:format>
        <dc:type
           rdf:resource="http://purl.org/dc/dcmitype/StillImage" />
      </cc:Work>
    </rdf:RDF>
  </metadata>
  <defs
     id="defs17" />
  <sodipodi:namedview
     pagecolor="#ffffff"
     bordercolor="#666666"
     borderopacity="1"
     objecttolerance="10"
     gridtolerance="10"
     guidetolerance="10"
     inkscape:pageopacity="0"
     inkscape:pageshadow="2"
     inkscape:window-width="640"
     inkscape:window-height="480"
     id="namedview15"
     showgrid="false"
     inkscape:zoom="0.27441406"
     inkscape:cx="512"
     inkscape:cy="512"
     inkscape:window-x="0"
     inkscape:window-y="25"
     inkscape:window-maximized="0"
     inkscape:current-layer="U7B54" />
  <path
     style="fill:#c83737;fill-opacity:1;fill-rule:nonzero;stroke:#f9f9f9;stroke-width:0.1;stroke-miterlimit:4;stroke-dasharray:none"
     d="M 501.78125 79.28125 C 487.91179 79.205138 476.9417 81.809322 475.96875 88.1875 C 475.5149 91.478577 475.039 94.77464 474.5625 98.0625 C 471.40123 98.309093 468.30272 98.349974 465.3125 97.84375 C 437.5822 98.16055 409.78465 98.3038 382.21875 101.8125 C 344.44035 106.582 306.8983 112.9435 269.625 120.75 C 253.54951 124.09837 237.47593 127.46842 221.40625 130.84375 C 199.45651 116.95232 151.60727 105.93262 147.5 119.28125 C 139.259 147.00005 132.1622 174.9964 126.3125 203.3125 C 121.3789 227.2527 119.2314 251.59945 118 275.96875 C 117.6883 276.63195 117.43915 299.1077 117.28125 293.75 C 115.43605 312.5134 203.87345 321.2009 205.71875 302.4375 C 206.19955 294.8047 206.08905 287.2099 206.21875 279.5625 C 206.76608 260.63201 208.10973 241.69507 211.65625 223.0625 C 227.66084 219.14677 243.7654 215.57366 259.875 212.09375 C 259.88693 212.13525 259.89336 212.17734 259.90625 212.21875 C 267.76245 236.38955 279.6345 258.81135 292.4375 280.65625 C 301.1607 295.65425 311.63435 309.50895 322.53125 322.96875 C 323.44325 324.08205 324.338 325.1991 325.25 326.3125 C 337.3299 340.7371 405.33 283.76825 393.25 269.34375 L 390.875 266.5625 C 382.6509 256.8218 374.61305 246.88315 368.15625 235.84375 C 360.28304 222.70236 352.65618 209.30008 347.375 194.90625 C 362.49985 192.45872 377.65538 190.28555 392.875 188.46875 C 415.26274 185.78724 437.81152 185.84932 460.3125 185.9375 C 455.15178 215.83699 450.17968 245.7748 451.875 276.1875 C 452.6523 290.2562 458.22505 300.03595 465.21875 311.96875 C 476.66221 326.13499 541.56146 274.51104 535.3125 257.75 C 536.57494 259.78459 538.11389 261.839 539.1875 263.9375 C 537.90419 250.97474 540.08316 237.81672 542.5 224.75 C 561.18973 222.28004 579.95976 220.37023 598.71875 218.5 C 585.58973 227.53619 576.45402 237.50398 579.84375 243.78125 C 590.45755 262.92495 602.39115 281.21535 614.90625 299.15625 C 620.47505 307.28565 618.01325 303.467 622.40625 310.5625 C 632.48525 326.3603 706.954 278.8603 696.875 263.0625 C 690.3318 252.9943 693.64575 257.8621 686.96875 248.375 C 678.74964 236.85178 670.73702 225.1907 663.71875 212.90625 C 669.98889 212.55065 676.24561 212.26246 682.53125 212.125 C 701.96505 211.9977 721.3203 213.79345 740.5625 216.34375 C 752.1283 217.33315 763.19175 220.4124 774.09375 224.1875 C 774.78718 224.10651 783.16847 227.37623 786.5 228.6875 C 777.65726 223.06264 781.67297 226.19007 773.46875 216.8125 C 787.29334 228.16727 858.00612 186.0401 848.84375 170.375 C 835.75605 154.2171 842.70355 160.3141 829.21875 150.75 C 820.58485 146.4616 811.65705 143.0618 802.40625 140.3125 C 785.92685 134.8681 769.10645 130.6281 751.78125 128.9375 C 728.06315 125.9876 704.20795 123.99145 680.28125 124.34375 C 652.83825 125.14105 625.53955 127.7536 598.21875 130.375 C 584.68917 131.67985 571.14804 133.0376 557.625 134.40625 C 559.5559 123.4504 561.48104 112.48277 563.4375 101.53125 C 565.29495 89.354728 528.2593 79.426555 501.78125 79.28125 z M 539.1875 263.9375 C 539.35166 265.5957 539.52767 267.25535 539.8125 268.90625 C 540.0149 269.21355 540.3796 270.20705 540.4375 269.84375 C 540.76421 267.79131 540.15808 265.83461 539.1875 263.9375 z M 435.84375 303.90625 C 434.96476 303.88921 434.11729 304.05098 433.3125 304.40625 C 401.2903 318.96855 372.12155 338.5232 344.03125 359.5 C 303.68355 390.6709 269.5899 428.7218 236.5 467.25 C 214.0338 493.5924 193.41665 521.41055 173.34375 549.59375 C 167.12285 558.28845 160.2016 566.24645 154.6875 575.40625 C 146.20223 591.9095 222.53554 631.528 233.3125 616.90625 C 224.55418 630.50599 245.3551 599.97307 245.65625 599.8125 C 263.39595 573.559 281.8496 547.7871 302.3125 523.5625 C 305.26963 520.08904 308.26825 516.61493 311.25 513.15625 C 306.85757 533.62332 336.1802 594.68668 351.1875 588.03125 C 379.2526 575.83305 408.7533 567.40575 438.3125 559.71875 C 471.6912 551.31605 505.81415 547.2096 540.15625 546.1875 C 563.70405 546.3355 587.1746 548.51925 610.5625 551.09375 C 611.4137 550.50485 634.33745 555.08535 627.15625 553.84375 C 643.49266 559.56903 669.63486 489.27154 659.96875 473 C 674.03824 481.80423 687.78259 491.16823 701.4375 500.59375 C 719.5252 513.63335 738.4954 525.53815 755.6875 539.78125 C 758.429 542.50475 759.24115 542.73525 757.15625 541.78125 C 769.18935 556.21325 837.2206 499.4944 825.1875 485.0625 C 815.5761 474.5036 820.427 479.19955 810.75 470.71875 C 791.4558 455.71485 770.91005 442.46285 750.84375 428.53125 C 717.49005 405.81155 683.5945 383.6325 646.75 366.875 C 607.4173 349.5688 566.88815 335.2486 524.84375 326 C 499.93509 320.58568 474.85272 316.13797 449.46875 313.96875 C 444.69111 307.90876 439.91826 303.98522 435.84375 303.90625 z M 436.84375 401.59375 C 460.33919 402.36088 483.51463 406.40705 506.46875 411.3125 C 542.76135 419.1129 577.7112 431.33775 611.5625 446.40625 C 626.20281 453.15582 640.27734 460.94626 654 469.3125 C 642.69619 466.14664 631.13601 464.36031 619.40625 463.375 C 592.03065 460.8247 564.5793 458.66135 537.0625 458.90625 C 496.401 460.51925 455.98665 465.4065 416.46875 475.4375 C 382.79773 484.13094 349.35093 493.87804 316.9375 506.5625 C 341.21335 478.72872 366.66472 451.84934 396 429.25 C 409.20526 419.44375 422.69953 409.96941 436.84375 401.59375 z M 652.6875 566.25 C 641.20017 566.35915 629.69225 567.03656 618.1875 567.4375 C 587.063 568.4287 555.945 570.13545 525.1875 575.34375 C 487.608 581.44755 450.26825 588.9552 413.71875 599.75 C 382.65735 609.0097 351.9087 619.28175 322.6875 633.46875 C 318.91148 635.30751 317.94805 640.73622 318.875 647.9375 C 293.36404 652.85573 262.29414 666.98807 265.6875 678.09375 C 273.7704 702.42855 278.7132 727.60085 283.625 752.71875 C 286.87931 770.06068 290.61907 787.32702 295.125 804.375 C 291.75811 806.28466 288.43459 808.24822 285.15625 810.34375 C 269.74175 821.06695 320.273 893.75435 335.6875 883.03125 C 356.1014 869.61515 379.6057 862.2448 403 856 C 438.7192 847.3127 475.67565 846.99275 512.21875 846.46875 C 540.8176 846.50281 569.46572 845.3631 598.03125 847.03125 C 593.23224 860.96219 591.99603 873.08754 598.03125 876.09375 C 630.77395 884.27915 642.6735 887.74745 664.4375 855.09375 C 671.389 838.82885 675.08035 821.4959 679.84375 804.5 C 688.11945 772.9085 696.4068 741.33715 705.5 709.96875 C 713.4075 683.35295 722.93375 656.75505 725.53125 628.96875 C 724.54875 594.81315 709.0555 571.09905 673.375 566.84375 C 666.47699 566.32779 659.5799 566.18451 652.6875 566.25 z M 662.59375 654.65625 C 663.45122 654.75306 664.30154 654.8684 665.15625 655 C 664.27884 654.92353 663.43324 654.81737 662.59375 654.65625 z M 630.25 655.1875 C 627.4668 665.30696 624.48462 675.38724 621.59375 685.46875 C 614.70895 710.03882 608.03626 734.66703 601.3125 759.28125 C 571.15667 758.12566 540.98506 759.19249 510.8125 759.46875 C 467.1052 760.23655 423.0246 761.04515 380.375 771.78125 C 379.40651 772.04303 378.43662 772.29717 377.46875 772.5625 C 374.42694 760.45878 371.88531 748.21156 369.5 735.96875 C 367.89848 727.73781 366.25772 719.52446 364.5625 711.3125 C 388.13589 699.14645 413.38278 690.93431 438.71875 683.3125 C 471.56345 673.5472 505.1884 666.8857 539 661.5625 C 565.9984 657.0765 593.3181 655.84385 620.625 655.21875 C 623.82546 655.36431 627.02354 655.30664 630.25 655.1875 z "
     id="path10129" />
</svg>
