<?xml version="1.0" encoding="utf-8" ?>

<!DOCTYPE svg PUBLIC "-//W3C//DTD SVG 1.1//EN" 
  "http://www.w3.org/Graphics/SVG/1.1/DTD/svg11.dtd">
<svg 
    xmlns="http://www.w3.org/2000/svg"
    xmlns:xlink="http://www.w3.org/1999/xlink"
    xmlns:sodipodi="http://sodipodi.sourceforge.net/DTD/sodipodi-0.dtd"
    xmlns:inkscape="http://www.inkscape.org/namespaces/inkscape"
    width="1024" height="1024" id="U7CBE">
<path d="m 9349.2461,24820.399 c 18.806,20.007 39.4974,37.853 61.8237,53.777 15.0334,10.31 31.0134,19.091 47.1488,27.521 16.6044,8.802 -24.8862,87.076 -41.4905,78.274 l 0,0 c -19.5488,-10.487 -38.9355,-21.338 -57.1641,-34.032 -25.763,-18.581 -49.8226,-39.093 -72.4536,-61.4 -13.6062,-13.181 48.5295,-77.321 62.1357,-64.14 z" id="path9457" inkscape:connector-curvature="0" style="fill:#2b0000;fill-opacity:1;fill-rule:nonzero;stroke:#f9f9f9;stroke-width:0.1;stroke-miterlimit:4;stroke-dasharray:none" transform="translate(-9216, -24576)"/><path d="m 9650.1121,24846.346 c -25.4003,22.86 -47.2354,49.32 -69.0746,75.503 -19.2127,23.439 -37.829,47.352 -56.4688,71.245 -11.6826,14.711 -81.0313,-40.361 -69.3487,-55.072 l 0,0 c 19.4749,-24.086 38.7694,-48.317 58.361,-72.308 24.7742,-29.836 49.6652,-59.723 77.7412,-86.557 14.2528,-12.471 73.0428,54.717 58.7899,67.189 z" id="path9459" inkscape:connector-curvature="0" style="fill:#2b0000;fill-opacity:1;fill-rule:nonzero;stroke:#f9f9f9;stroke-width:0.1;stroke-miterlimit:4;stroke-dasharray:none" transform="translate(-9216, -24576)"/><path d="m 9278.6982,25033.213 c 33.1207,-4.806 65.8183,-12.178 98.5007,-19.299 51.5403,-11.395 102.5101,-25.151 153.8682,-37.309 37.0654,-8.584 74.5643,-15.06 111.8855,-22.39 7.7187,-1.405 15.3646,-3.136 22.9534,-5.113 18.4489,-4.346 38.9399,82.623 20.491,86.969 l 0,0 c -9.0177,1.969 -18.0598,3.819 -27.1712,5.31 -36.1422,6.41 -72.4008,12.274 -108.2306,20.313 -51.729,11.978 -102.9936,25.841 -154.7475,37.72 -34.9631,7.957 -69.9336,15.981 -105.2308,22.34 -18.7823,2.613 -31.101,-85.928 -12.3187,-88.541 z" id="path9463" inkscape:connector-curvature="0" style="fill:#2b0000;fill-opacity:1;fill-rule:nonzero;stroke:#f9f9f9;stroke-width:0.1;stroke-miterlimit:4;stroke-dasharray:none" transform="translate(-9216, -24576)"/><path d="m 9484.543,24766.338 c 0.05,54.51 -0.4956,109.015 -1.2456,163.519 -1.3282,84.014 -2.7392,168.024 -2.5351,252.051 0.094,60.907 3.0855,121.747 7.4297,182.482 2.2818,17.894 1.5163,36.551 6.0405,54.138 3.4563,18.654 -84.482,34.947 -87.9383,16.293 l 0,0 c -3.3785,-21.477 -4.3527,-43.229 -5.6206,-64.91 -3.4351,-62.599 -5.9947,-125.26 -5.8182,-187.968 0.1321,-84.291 1.7495,-168.564 2.4397,-252.852 0.2148,-53.806 0.4325,-107.646 -2.0471,-161.41 -0.2848,-18.942 89.0102,-20.285 89.295,-1.343 z" id="path9467" inkscape:connector-curvature="0" style="fill:#2b0000;fill-opacity:1;fill-rule:nonzero;stroke:#f9f9f9;stroke-width:0.1;stroke-miterlimit:4;stroke-dasharray:none" transform="translate(-9216, -24576)"/><path d="m 9445.7532,25100.476 c -19.397,29.931 -35.5207,61.812 -51.6732,93.561 -16.7305,34.103 -34.0608,68.12 -46.4389,104.105 -2.1377,8.956 -0.9933,12.598 -0.6769,-3.045 4.8813,18.337 -81.5606,41.348 -86.4419,23.011 l 0,0 c -2.1974,-18.113 -3.4474,-32.915 3.8355,-50.127 14.6351,-38.927 33.1225,-76.219 51.5548,-113.46 17.2911,-34.414 34.7391,-68.78 54.3943,-101.924 10.1567,-16.005 85.603,31.874 75.4463,47.879 z" id="path9469" inkscape:connector-curvature="0" style="fill:#2b0000;fill-opacity:1;fill-rule:nonzero;stroke:#f9f9f9;stroke-width:0.1;stroke-miterlimit:4;stroke-dasharray:none" transform="translate(-9216, -24576)"/><path d="m 9482.5417,25078.815 c 21.2573,23.428 45.3656,44.067 69.8016,64.072 26.2059,20.81 53.596,40.049 79.9768,60.631 11.1003,9.033 5.7575,4.433 16.05,13.776 13.7556,13.005 -47.5492,77.85 -61.3048,64.845 l 0,0 c -5.3346,-5.508 -2.0893,-2.365 -9.9964,-9.153 -26.281,-21.364 -53.966,-40.9 -80.4,-62.072 -28.4069,-23.243 -56.3077,-47.224 -81.7611,-73.72 -12.384,-14.348 55.2499,-72.726 67.6339,-58.379 z" id="path9471" inkscape:connector-curvature="0" style="fill:#2b0000;fill-opacity:1;fill-rule:nonzero;stroke:#f9f9f9;stroke-width:0.1;stroke-miterlimit:4;stroke-dasharray:none" transform="translate(-9216, -24576)"/><path d="m 9692.2804,24829.47 c 33.4795,-11.58 68.2541,-18.679 102.953,-25.46 40.8018,-7.686 81.8616,-13.858 123.0583,-18.975 22.7985,-2.474 45.6022,-5.466 68.5544,-5.906 11.9551,0.564 5.1904,-0.163 20.1929,2.975 18.163,5.701 -8.7081,91.322 -26.8711,85.622 l 0,0 c 2.5317,0.359 5.0635,0.718 7.5952,1.077 -0.2458,-0.09 -0.4917,-0.186 -0.7375,-0.278 -19.4764,-0.65 -38.9236,2.745 -58.296,4.11 -39.0176,4.437 -77.8781,10.162 -116.446,17.59 -29.2742,5.863 -58.7657,11.744 -86.7975,22.26 -17.61,7.044 -50.8157,-75.971 -33.2057,-83.015 z" id="path9473" inkscape:connector-curvature="0" style="fill:#2b0000;fill-opacity:1;fill-rule:nonzero;stroke:#f9f9f9;stroke-width:0.1;stroke-miterlimit:4;stroke-dasharray:none" transform="translate(-9216, -24576)"/><path d="m 9746.5117,24956.81 c 29.96,-8.671 60.5262,-14.811 91.2188,-20.194 26.0441,-4.391 52.2835,-7.421 78.56,-9.998 9.2359,-0.864 4.6264,-0.515 13.8285,-1.049 18.9672,-0.762 22.5609,88.65 3.5937,89.412 l 0,0 c -5.3811,0.01 -2.1533,-0.07 -9.6758,0.448 -23.7989,1.796 -47.5537,4.246 -71.1067,8.173 -27.328,4.756 -54.649,10.056 -81.0085,18.875 -18.1729,5.391 -43.5829,-80.277 -25.41,-85.667 z" id="path9475" inkscape:connector-curvature="0" style="fill:#2b0000;fill-opacity:1;fill-rule:nonzero;stroke:#f9f9f9;stroke-width:0.1;stroke-miterlimit:4;stroke-dasharray:none" transform="translate(-9216, -24576)"/><path d="m 9633.7054,25118.182 c 38.7205,-1.885 76.6206,-11.688 114.2393,-20.422 54.9186,-13.219 109.521,-27.712 164.2012,-41.877 42.2453,-10.974 84.6382,-21.331 127.3291,-30.421 19.447,-4.586 39.3,-6.881 58.972,-10.16 18.794,-2.685 31.451,85.912 12.657,88.597 l 0,0 c -17.994,2.262 -36.039,4.234 -53.799,8.047 -41.428,8.243 -82.5161,17.996 -123.4446,28.433 -55.31,14.101 -110.5127,28.626 -165.9284,42.307 -44.0302,10.497 -88.2858,21.762 -133.6068,24.741 -18.9319,0.132 -19.5516,-89.114 -0.6198,-89.245 z" id="path9477" inkscape:connector-curvature="0" style="fill:#2b0000;fill-opacity:1;fill-rule:nonzero;stroke:#f9f9f9;stroke-width:0.1;stroke-miterlimit:4;stroke-dasharray:none" transform="translate(-9216, -24576)"/><path d="m 9877.8309,24720.315 c -10.5815,33.864 -9.6404,70.346 -10.4734,105.46 -0.6586,65.445 -1.0577,130.894 -1.3902,196.342 -0.4918,44.886 1.3239,89.727 4.8842,134.46 0.3353,3.735 0.6706,7.469 1.006,11.204 1.3824,18.792 -87.2037,25.309 -88.5861,6.517 l 0,0 c -0.2281,-3.924 -0.4562,-7.848 -0.6842,-11.771 -2.6253,-46.967 -4.1173,-93.986 -3.3763,-141.035 0.613,-65.781 1.0727,-131.562 1.1265,-197.346 0.6487,-46.228 -0.065,-93.719 14.9302,-138.047 7.2581,-17.514 89.8215,16.701 82.5633,34.216 z" id="path9479" inkscape:connector-curvature="0" style="fill:#2b0000;fill-opacity:1;fill-rule:nonzero;stroke:#f9f9f9;stroke-width:0.1;stroke-miterlimit:4;stroke-dasharray:none" transform="translate(-9216, -24576)"/><path d="m 9768.8147,25279.792 c 5.0407,39 6.6735,78.302 8.343,117.555 1.2904,33.141 3.1714,66.344 8.6772,99.087 1.8971,6.5 1.5464,5.435 -0.7439,-3.282 8.6294,16.938 -71.2164,57.618 -79.8459,40.68 l 0,0 c -6.6236,-17.373 -4.4432,-9.188 -7.3423,-24.329 -4.79,-35.938 -7.1176,-72.132 -8.3438,-108.359 -1.5949,-36.09 -2.9835,-72.33 -9.0082,-108.017 -2.8287,-18.723 85.4352,-32.058 88.2639,-13.335 z" id="path9481" inkscape:connector-curvature="0" style="fill:#2b0000;fill-opacity:1;fill-rule:nonzero;stroke:#f9f9f9;stroke-width:0.1;stroke-miterlimit:4;stroke-dasharray:none" transform="translate(-9216, -24576)"/><path d="m 9737.5775,25212.085 c 31.3062,-14.54 64.0895,-25.413 97.0044,-35.625 33.829,-10.269 68.1271,-18.91 102.8967,-25.301 33.2748,-5.688 55.1932,-5.605 85.5954,10.171 31.206,23.225 36.137,59.166 38.79,95.364 1.154,49.07 -3.138,98.078 -6.209,147.014 -3.159,45.098 -4.382,90.271 -3.61,135.464 0.455,10.378 0.506,20.843 2.348,31.097 2.098,18.891 -86.9539,28.781 -89.052,9.891 l 0,0 c -1.0077,-13.413 -1.5432,-26.85 -1.5302,-40.304 0.051,-47.211 1.5459,-94.39 4.7628,-141.499 2.7045,-44.966 6.3565,-90.02 5.162,-135.095 -0.8052,-10.542 -0.7053,-12.481 -2.2134,-22.03 -0.3663,-2.319 -3.2833,-6.944 -0.9356,-6.982 2.2367,-0.04 3.1586,4.494 5.8718,3.25 1.4839,0.306 5.8216,1.025 4.5406,0.216 -7.4288,-4.694 -20.3855,1.215 -28.0099,0.629 -31.2173,5.327 -61.9435,13.107 -92.2559,22.254 -28.303,8.815 -56.7032,17.922 -83.2199,31.358 -16.9434,8.472 -56.8791,-71.4 -39.9358,-79.872 z" id="path9483" inkscape:connector-curvature="0" style="fill:#2b0000;fill-opacity:1;fill-rule:nonzero;stroke:#f9f9f9;stroke-width:0.1;stroke-miterlimit:4;stroke-dasharray:none" transform="translate(-9216, -24576)"/><path d="m 9767.8142,25314.285 c 26.2421,-7.853 53.0405,-13.563 79.8226,-19.207 13.1553,-2.916 26.4386,-5.073 39.766,-7 18.6922,-2.506 30.5063,85.61 11.8141,88.116 l 0,0 c -11.1976,1.338 -22.322,3.097 -33.3465,5.514 -23.6191,4.965 -47.355,9.822 -70.2586,17.558 -18.0272,5.897 -45.8248,-79.084 -27.7976,-84.981 z" id="path9485" inkscape:connector-curvature="0" style="fill:#2b0000;fill-opacity:1;fill-rule:nonzero;stroke:#f9f9f9;stroke-width:0.1;stroke-miterlimit:4;stroke-dasharray:none" transform="translate(-9216, -24576)"/><path d="m 9798.3097,25406.377 c 26.7629,-2.407 53.3998,-6.04 80.0988,-9.066 15.7882,-1.686 31.5826,-3.314 47.3742,-4.967 18.8097,-1.779 27.194,86.891 8.3844,88.669 l 0,0 c -15.3184,1.291 -30.6326,2.638 -45.9223,4.238 -27.739,3.06 -55.393,6.757 -83.0794,10.25 -18.906,1.454 -25.7617,-87.67 -6.8557,-89.124 z" id="path9487" inkscape:connector-curvature="0" style="fill:#2b0000;fill-opacity:1;fill-rule:nonzero;stroke:#f9f9f9;stroke-width:0.1;stroke-miterlimit:4;stroke-dasharray:none" transform="translate(-9216, -24576)"/></svg>