<?xml version="1.0" encoding="UTF-8" standalone="no"?>
<svg
   xmlns:dc="http://purl.org/dc/elements/1.1/"
   xmlns:cc="http://creativecommons.org/ns#"
   xmlns:rdf="http://www.w3.org/1999/02/22-rdf-syntax-ns#"
   xmlns:svg="http://www.w3.org/2000/svg"
   xmlns="http://www.w3.org/2000/svg"
   xmlns:sodipodi="http://sodipodi.sourceforge.net/DTD/sodipodi-0.dtd"
   xmlns:inkscape="http://www.inkscape.org/namespaces/inkscape"
   width="1024"
   height="1024"
   id="U7D27"
   version="1.1"
   inkscape:version="0.48.0 r9654"
   sodipodi:docname="U+7D27.svg">
  <metadata
     id="metadata17">
    <rdf:RDF>
      <cc:Work
         rdf:about="">
        <dc:format>image/svg+xml</dc:format>
        <dc:type
           rdf:resource="http://purl.org/dc/dcmitype/StillImage" />
      </cc:Work>
    </rdf:RDF>
  </metadata>
  <defs
     id="defs15" />
  <sodipodi:namedview
     pagecolor="#ffffff"
     bordercolor="#666666"
     borderopacity="1"
     objecttolerance="10"
     gridtolerance="10"
     guidetolerance="10"
     inkscape:pageopacity="0"
     inkscape:pageshadow="2"
     inkscape:window-width="640"
     inkscape:window-height="480"
     id="namedview13"
     showgrid="false"
     inkscape:zoom="0.27441406"
     inkscape:cx="512"
     inkscape:cy="512"
     inkscape:window-x="0"
     inkscape:window-y="25"
     inkscape:window-maximized="0"
     inkscape:current-layer="U7D27" />
  <path
     style="fill:#2b0000;fill-opacity:1;fill-rule:nonzero;stroke:#f9f9f9;stroke-width:0.1;stroke-miterlimit:4;stroke-dasharray:none"
     d="M 735.90625 47.96875 C 724.74672 48.120289 712.62655 50.074375 705.0625 50.125 C 671.9375 52.191 638.8054 54.2835 605.875 58.5625 C 570.827 63.4515 535.8351 69.57575 502.1875 80.84375 C 491.62161 84.763167 498.33963 115.98554 509.25 139.25 C 490.97594 157.69084 473.69189 185.87281 482.5625 193.15625 C 506.52981 211.59736 530.9449 229.46532 555.125 247.625 C 535.49167 268.31884 515.40291 288.53743 493.9375 307.34375 C 492.9195 310.08475 484.2461 314.02 482.6875 314.75 C 465.6648 323.073 504.9147 403.323 521.9375 395 C 533.1778 388.851 543.91985 382.40175 553.15625 373.34375 C 577.92767 350.66166 601.27359 326.53656 624.125 301.9375 C 639.54095 314.34666 654.97654 326.74835 670.59375 338.90625 C 689.44245 353.17025 708.62135 367.031 728.21875 380.25 C 744.06115 390.575 792.7175 315.8875 776.875 305.5625 C 758.8101 294.3015 741.4694 281.86925 724.3125 269.28125 C 710.45661 258.67985 696.80572 247.86853 683.1875 236.96875 C 701.63049 216.3632 719.89672 195.61347 737.90625 174.625 C 747.06115 163.847 780.29965 128.547 782.90625 115 C 785.02025 104.013 783.8384 92.64675 784.3125 81.46875 C 775.4145 71.84775 768.0178 60.608 757.625 52.625 C 752.69678 48.839312 744.58588 47.850886 735.90625 47.96875 z M 376.1875 49.6875 C 349.43095 49.377927 311.83299 58.789469 313.5 71.125 C 318.927 108.255 319.075 145.8705 319.125 183.3125 C 318.5712 236.7695 315.7669 290.176 314.875 343.625 C 314.2641 360.662 315.5615 377.58175 317.5625 394.46875 C 319.23673 406.36871 355.59455 405.63886 381.0625 398.71875 C 361.31407 418.33208 341.67326 438.03021 322.03125 457.75 C 303.34805 476.329 285.646 495.9355 269.25 516.5625 C 247.9243 544.3475 248.3193 575.925 278.9375 598.375 C 283.9216 602.03 290.41975 602.98125 296.15625 605.28125 C 310.58774 607.66014 325.17384 608.3888 339.8125 608.71875 C 337.64644 610.38718 335.48433 612.05749 333.3125 613.71875 C 307.0844 633.68575 280.27185 652.9685 255.65625 674.9375 C 233.73395 696.0215 223.69485 722.35475 246.21875 751.59375 C 259.34915 768.63775 275.43775 766.1125 292.21875 766.0625 C 323.38475 760.8085 353.9 752.101 384.5625 744.5 C 404.39659 739.66372 424.31964 735.19728 444.28125 730.9375 C 446.99996 756.12117 449.04159 781.36553 450.53125 806.65625 C 452.40725 838.99225 452.1828 871.394 451.125 903.75 C 450.6871 916.443 450.1931 929.12425 449.125 941.78125 C 447.7583 960.65025 536.6958 967.08675 538.0625 948.21875 C 538.9515 934.18275 539.4691 920.1235 539.75 906.0625 C 540.462 871.2345 540.34885 836.38775 538.40625 801.59375 C 536.75015 772.12429 534.37514 742.72788 532 713.3125 C 563.68388 707.23938 595.53285 702.28469 627.75 700.21875 C 640.4414 699.97175 653.36985 699.11675 665.90625 701.09375 C 656.38207 699.40017 661.73849 700.74546 648.90625 693.65625 C 652.28944 694.77987 657.07676 693.23134 662.46875 689.9375 C 672.08095 705.50772 750.69232 668.91917 742.875 652 C 735.9683 637.405 729.12725 622.79925 722.59375 608.03125 C 712.37265 584.48425 702.12065 560.88775 693.78125 536.59375 C 687.52185 518.68475 603.1157 548.18575 609.375 566.09375 C 615.26764 581.36559 621.49823 596.48894 627.875 611.5625 C 625.67001 611.6744 623.45314 611.81145 621.25 611.9375 C 581.8637 615.1475 542.8922 621.52875 504.1875 629.46875 C 481.82643 633.85138 459.49573 638.29309 437.1875 642.9375 C 452.24286 630.71127 467.1978 618.36622 482.0625 605.90625 C 483.23296 605.78392 484.39227 605.65771 485.5625 605.53125 C 509.2054 602.75025 532.8318 599.6385 556.4375 596.5625 C 561.6598 595.9895 559.5082 596.04 562.8125 596 C 575.06085 594.9869 576.30459 557.34345 570.53125 531.25 C 585.40114 518.73107 600.26561 506.2124 615.15625 493.71875 C 629.55925 481.42975 571.62175 413.5235 557.21875 425.8125 C 525.32165 454.8785 492.402 482.79325 459.5625 510.78125 C 455.81665 514.01833 452.0422 517.21885 448.28125 520.4375 C 426.67305 522.02615 405.00605 522.51589 383.3125 521.34375 C 383.75265 520.89653 384.18392 520.44612 384.625 520 C 405.4486 499.016 426.2431 477.92275 448.0625 457.96875 C 459.71598 447.521 421.09304 400.37896 399.3125 391.34375 C 403.61632 388.55341 406.03121 385.39413 405.5625 382.0625 C 403.2986 369.6425 402.51455 357.11075 402.65625 344.46875 C 402.78255 290.80475 405.4221 237.2155 406.3125 183.5625 C 406.5822 142.0585 406.5253 100.449 402.125 59.125 C 401.25181 52.663531 390.20283 49.849657 376.1875 49.6875 z M 237.46875 121.78125 C 213.81626 121.73332 188.68994 127.08853 188.9375 137.15625 C 190.1289 172.80825 189.10355 208.49425 188.90625 244.15625 C 188.14145 279.74625 189.6138 314.85925 203.5625 347.90625 C 211.8091 364.92225 292.02775 326.04725 283.78125 309.03125 C 274.31345 290.97625 278.36575 265.1155 276.78125 244.5625 C 276.91825 208.0225 277.88905 171.4745 278.28125 134.9375 C 278.06281 126.05422 258.3386 121.82354 237.46875 121.78125 z M 729.75 137.625 C 729.81234 137.62263 729.87516 137.62729 729.9375 137.625 C 730.53367 137.60304 731.5096 137.67485 732.5 137.75 C 731.58314 137.72479 730.6509 137.69313 729.75 137.625 z M 649.71875 142.46875 C 638.18085 155.95481 626.49941 169.31603 614.6875 182.5625 C 601.67352 172.60883 588.57613 162.77163 575.5625 152.8125 C 589.6029 149.92753 603.82113 147.77276 618 145.8125 C 628.55409 144.45073 639.1228 143.37762 649.71875 142.46875 z M 340.4375 570.28125 C 340.13574 570.93901 339.83215 571.59141 339.5625 572.25 C 339.2795 572.942 337.94185 574.6695 338.09375 573.9375 C 338.31475 572.8725 339.22095 572.08725 339.78125 571.15625 C 339.99854 570.86429 340.21928 570.57251 340.4375 570.28125 z M 316.5625 739.875 C 316.12952 740.56131 315.71119 741.24516 315.34375 741.9375 C 314.99485 742.5955 313.3477 744.03475 313.625 743.34375 C 314.0833 742.20275 315.1619 741.42375 315.9375 740.46875 C 316.14461 740.26934 316.35481 740.07375 316.5625 739.875 z M 645.0625 774.5625 C 625.4605 774.88964 575.97051 829.14263 588.40625 841 C 611.04645 862.609 636.6981 880.19775 663.6875 895.84375 C 681.7037 905.87175 700.65345 914.05725 719.53125 922.28125 C 736.82605 929.70725 771.82605 848.175 754.53125 840.75 C 738.73985 834.076 722.8729 827.494 707.8125 819.25 C 686.8651 807.293 666.92945 793.7685 650.09375 776.3125 C 648.80729 775.08588 647.09029 774.52866 645.0625 774.5625 z M 302.40625 797.40625 C 300.80485 797.51668 299.43177 798.05602 298.34375 799.0625 C 281.11465 815.7165 265.2674 833.712 249.8125 852 C 241.0755 861.602 233.63215 871.90425 227.21875 883.15625 C 218.67075 900.12025 298.6394 940.4015 307.1875 923.4375 C 303.1285 927.8405 313.2404 912.72775 318 909.09375 C 330.8648 893.57275 344.0081 878.18675 359.0625 864.71875 C 371.90118 852.84223 321.30282 796.10321 302.40625 797.40625 z "
     id="path9349" />
</svg>
