<?xml version="1.0" encoding="utf-8" ?>

<!DOCTYPE svg PUBLIC "-//W3C//DTD SVG 1.1//EN" 
  "http://www.w3.org/Graphics/SVG/1.1/DTD/svg11.dtd">
<svg 
    xmlns="http://www.w3.org/2000/svg"
    xmlns:xlink="http://www.w3.org/1999/xlink"
    xmlns:sodipodi="http://sodipodi.sourceforge.net/DTD/sodipodi-0.dtd"
    xmlns:inkscape="http://www.inkscape.org/namespaces/inkscape"
    width="1024" height="1024" id="U7ED9">
<path d="m 11603.834,14574.313 c -22.812,29.867 -45.638,59.723 -68.541,89.521 -19.111,25.335 -38.55,50.529 -55.188,77.592 -0.783,1.619 -1.566,3.237 -2.349,4.855 0.08,0.269 0.134,1.065 0.243,0.806 6.886,-16.367 -1.1,-31.023 -14.045,-41.133 -0.291,-0.344 -1.31,-0.91 -0.875,-1.032 4.314,-1.209 8.962,0.01 13.44,-0.141 12.436,-0.428 24.866,-1.424 37.281,-2.238 24.14,-2.025 48.288,-1.978 72.256,1.568 2.727,0.534 5.455,1.068 8.182,1.602 18.19,3.782 0.361,89.531 -17.829,85.749 l 0,0 c -1.448,-0.335 -2.896,-0.669 -4.344,-1.003 -17.333,-3.318 -35.022,-2.352 -52.542,-1.245 -29.312,1.948 -59.321,6.146 -88.07,-1.915 -6.132,-3.312 -13.179,-5.314 -18.395,-9.935 -26.21,-23.222 -23.681,-55.683 -6.493,-82.685 18.745,-28.749 39.757,-55.906 60.555,-83.183 22.401,-29.212 44.802,-58.448 65.869,-88.646 10.917,-15.029 81.762,36.434 70.845,51.463 z" id="path23761" inkscape:connector-curvature="0" style="fill:#550000;fill-opacity:1;fill-rule:nonzero;stroke:#f9f9f9;stroke-width:0.1;stroke-miterlimit:4;stroke-dasharray:none" transform="translate(-11264, -14336)"/><path d="m 11662.454,14704.459 c -26.315,30.527 -47.948,64.737 -69.561,98.648 -24.338,38.473 -47.456,77.714 -68.564,118.051 -5.027,10.378 -10.734,20.529 -14.597,31.436 -1.925,5.435 -0.973,6.837 0.393,-2.138 -2.448,-11.733 -1.235,-13.549 -9.75,-22.886 -2.179,-2.39 -5.106,-3.983 -7.817,-5.747 -1.236,-0.804 -5.187,-1.634 -3.831,-2.211 1.002,-0.427 2.135,-0.436 3.202,-0.654 22.428,-4.755 44.329,-11.73 66.327,-18.131 13.267,-4.204 26.793,-7.267 40.42,-9.993 18.169,-3.392 34.157,82.257 15.988,85.649 l 0,0 c -10.891,1.792 -21.583,4.359 -32.13,7.656 -26.357,7.692 -52.525,16.434 -79.554,21.491 -39.637,4.336 -69.703,-4.939 -80.304,-47.956 0.323,-30.931 10.728,-50.491 25.427,-77.184 22.754,-41.906 47.197,-82.861 72.625,-123.198 23.906,-37.794 47.922,-75.688 75.986,-110.586 12.251,-13.946 77.991,43.807 65.74,57.753 z" id="path23763" inkscape:connector-curvature="0" style="fill:#550000;fill-opacity:1;fill-rule:nonzero;stroke:#f9f9f9;stroke-width:0.1;stroke-miterlimit:4;stroke-dasharray:none" transform="translate(-11264, -14336)"/><path d="m 11440.735,15117.695 c 39.441,-20.002 78.043,-41.634 116.646,-63.2 37.259,-21.329 74.836,-42.176 111.228,-64.973 15.722,-9.574 60.85,64.54 45.128,74.113 l 0,0 c -37.816,22.445 -76.466,43.457 -114.596,65.358 -39.44,22.181 -78.919,44.293 -118.366,66.462 -16.495,8.494 -56.536,-69.266 -40.04,-77.76 z" id="path23765" inkscape:connector-curvature="0" style="fill:#550000;fill-opacity:1;fill-rule:nonzero;stroke:#f9f9f9;stroke-width:0.1;stroke-miterlimit:4;stroke-dasharray:none" transform="translate(-11264, -14336)"/><path d="m 11907.324,14556.268 c -23.652,40.177 -46.903,80.589 -70.249,120.944 -30.575,52.883 -61.522,105.554 -90.909,159.109 -9.432,17.694 -19.024,35.322 -27.904,53.304 -0.641,1.298 -9.135,16.889 -8.272,20.194 0.319,-7.335 0.639,-14.67 0.958,-22.005 5.209,17.917 -79.256,42.472 -84.465,24.554 l 0,0 c -0.18,-9.055 -0.361,-18.109 -0.542,-27.164 10.981,-32.008 29.879,-60.518 45.442,-90.391 30.093,-53.624 61.451,-106.52 91.923,-159.928 22.87,-40.188 45.809,-80.354 67.551,-121.167 9.026,-16.221 85.493,26.329 76.467,42.55 z" id="path23767" inkscape:connector-curvature="0" style="fill:#550000;fill-opacity:1;fill-rule:nonzero;stroke:#f9f9f9;stroke-width:0.1;stroke-miterlimit:4;stroke-dasharray:none" transform="translate(-11264, -14336)"/><path d="m 11933.361,14593.429 c 6.289,27.092 17.158,52.623 30.246,77.051 14.111,25.03 33.993,45.712 54.989,65.003 10.048,10.576 25.376,18.015 32.401,31.368 3.793,7.21 5.86,15.204 8.789,22.806 3.253,18.334 -83.175,33.668 -86.428,15.334 l 0,0 c 2.408,4.658 4.555,9.461 7.223,13.976 0.259,0.437 1.712,1.009 1.398,0.61 -6.313,-8.025 -16.022,-12.943 -22.64,-20.666 -27.64,-26.17 -53.543,-54.33 -72.044,-87.903 -16.046,-30.416 -29.525,-61.976 -38.606,-95.226 -4.742,-17.961 79.93,-40.315 84.672,-22.353 z" id="path23769" inkscape:connector-curvature="0" style="fill:#550000;fill-opacity:1;fill-rule:nonzero;stroke:#f9f9f9;stroke-width:0.1;stroke-miterlimit:4;stroke-dasharray:none" transform="translate(-11264, -14336)"/><path d="m 11743.292,14820.811 c 30.64,7.593 62.605,7.814 93.989,8.531 44.101,0.457 88.182,-1.426 132.228,-3.392 20.811,-0.389 41.618,-3.22 62.428,-1.937 18.525,2.202 8.145,89.531 -10.38,87.329 l 0,0 c 2.939,-0.198 5.275,-0.275 -1.984,-0.294 -10.394,-0.03 -20.807,0.45 -31.193,0.758 -5.202,0.154 -10.404,0.315 -15.606,0.472 -45.724,1.421 -91.459,3.091 -137.213,2.842 -40.63,-0.712 -81.917,-1.157 -121.451,-11.626 -17.54,-6.191 11.642,-88.873 29.182,-82.683 z" id="path23771" inkscape:connector-curvature="0" style="fill:#550000;fill-opacity:1;fill-rule:nonzero;stroke:#f9f9f9;stroke-width:0.1;stroke-miterlimit:4;stroke-dasharray:none" transform="translate(-11264, -14336)"/><path d="m 11783.815,15008.292 c -5.663,26.925 -5.213,54.609 -4.205,81.95 1.665,27.166 4.916,54.397 12.433,80.613 0.48,1.003 0.961,2.007 1.441,3.01 6.335,17.445 -75.904,47.31 -82.239,29.865 l 0,0 c -1.174,-3.553 -2.349,-7.106 -3.523,-10.659 -8.1,-32.653 -12.651,-66.071 -14.342,-99.672 -1.259,-34.619 -1.419,-69.47 4.749,-103.699 3.944,-18.177 89.63,0.416 85.686,18.592 z" id="path23773" inkscape:connector-curvature="0" style="fill:#550000;fill-opacity:1;fill-rule:nonzero;stroke:#f9f9f9;stroke-width:0.1;stroke-miterlimit:4;stroke-dasharray:none" transform="translate(-11264, -14336)"/><path d="m 11752.449,15005.95 c 32.761,-15.307 68.083,-22.628 103.701,-27.311 35.482,-3.819 71.159,-2.125 106.605,1.011 21.406,2.684 46.157,2.287 64.42,15.803 5.797,4.291 10.355,10.041 15.533,15.062 3.244,7.476 7.717,14.532 9.731,22.428 7.363,28.872 -7.359,61.369 -17.359,87.699 -11.451,29.513 -24.656,58.267 -41.595,85.032 -2.865,3.782 -5.73,7.564 -8.595,11.346 -11.42,14.547 -79.997,-39.286 -68.578,-53.834 l 0,0 c 1.384,-1.63 2.768,-3.26 4.151,-4.891 14.277,-21.119 24.088,-44.768 33.581,-68.33 3.797,-10.07 5.658,-14.543 8.806,-24.541 0.64,-2.033 3.577,-12.696 3.586,-12.699 4.577,-1.473 -3.522,26.44 7.632,12.239 0.871,0.604 8.026,7.1 11.721,6.297 0.666,-0.145 -0.819,-1.193 -8.935,-2.522 -6.551,-1.073 -15.735,-1.972 -22.156,-2.672 -29.081,-2.875 -58.368,-4.556 -87.535,-1.689 -25.95,3.231 -51.966,8.053 -75.567,19.867 -16.609,8.305 -55.756,-69.99 -39.147,-78.295 z" id="path23775" inkscape:connector-curvature="0" style="fill:#550000;fill-opacity:1;fill-rule:nonzero;stroke:#f9f9f9;stroke-width:0.1;stroke-miterlimit:4;stroke-dasharray:none" transform="translate(-11264, -14336)"/><path d="m 11752.83,15164.666 c 34.683,-8.238 70.171,-11.239 105.696,-12.561 31.759,-0.391 63.561,1.057 94.923,6.191 3.887,0.933 7.774,1.866 11.661,2.799 17.936,4.668 -4.069,89.22 -22.005,84.552 l 0,0 c -1.599,-0.494 -3.198,-0.989 -4.797,-1.484 -25.227,-4.96 -51.068,-5.626 -76.71,-5.75 -29.293,0.987 -58.707,3.154 -87.07,11.075 -17.993,4.603 -39.692,-80.219 -21.698,-84.822 z" id="path23777" inkscape:connector-curvature="0" style="fill:#550000;fill-opacity:1;fill-rule:nonzero;stroke:#f9f9f9;stroke-width:0.1;stroke-miterlimit:4;stroke-dasharray:none" transform="translate(-11264, -14336)"/></svg>