<?xml version="1.0" encoding="UTF-8" standalone="no"?>
<svg
   xmlns:dc="http://purl.org/dc/elements/1.1/"
   xmlns:cc="http://creativecommons.org/ns#"
   xmlns:rdf="http://www.w3.org/1999/02/22-rdf-syntax-ns#"
   xmlns:svg="http://www.w3.org/2000/svg"
   xmlns="http://www.w3.org/2000/svg"
   xmlns:sodipodi="http://sodipodi.sourceforge.net/DTD/sodipodi-0.dtd"
   xmlns:inkscape="http://www.inkscape.org/namespaces/inkscape"
   width="1024"
   height="1024"
   id="U7EC3"
   version="1.1"
   inkscape:version="0.48.0 r9654"
   sodipodi:docname="U+7EC3.svg">
  <metadata
     id="metadata15">
    <rdf:RDF>
      <cc:Work
         rdf:about="">
        <dc:format>image/svg+xml</dc:format>
        <dc:type
           rdf:resource="http://purl.org/dc/dcmitype/StillImage" />
      </cc:Work>
    </rdf:RDF>
  </metadata>
  <defs
     id="defs13" />
  <sodipodi:namedview
     pagecolor="#ffffff"
     bordercolor="#666666"
     borderopacity="1"
     objecttolerance="10"
     gridtolerance="10"
     guidetolerance="10"
     inkscape:pageopacity="0"
     inkscape:pageshadow="2"
     inkscape:window-width="640"
     inkscape:window-height="480"
     id="namedview11"
     showgrid="false"
     inkscape:zoom="0.27441406"
     inkscape:cx="512"
     inkscape:cy="512"
     inkscape:window-x="0"
     inkscape:window-y="25"
     inkscape:window-maximized="0"
     inkscape:current-layer="U7EC3" />
  <path
     style="fill:#2b0000;fill-opacity:1;fill-rule:nonzero;stroke:#f9f9f9;stroke-width:0.1;stroke-miterlimit:4;stroke-dasharray:none"
     d="M 517.59375 176.875 C 496.92041 177.05925 477.40577 181.38625 477.25 190.1875 C 475.82593 216.7225 474.48889 243.2475 473.4375 269.8125 C 472.59432 287.85369 471.21191 305.87272 469.4375 323.84375 C 446.02295 326.32909 422.55831 328.41254 399 327.875 C 380.24416 327.591 378.90041 416.0285 397.65625 416.3125 C 417.76257 416.05547 437.8082 414.61294 457.8125 412.71875 C 455.45022 426.01766 452.4832 439.18348 449.3125 452.3125 C 445.94546 452.4527 442.58578 452.58603 439.21875 452.75 C 407.90494 453.678 376.57263 454.58425 345.25 455.15625 C 326.51725 455.96525 330.32976 544.27775 349.0625 543.46875 C 376.31688 541.98929 403.59437 541.20249 430.875 540.3125 C 429.65395 556.46861 430.11693 572.72311 432.375 588.8125 C 438.99388 619.0925 460.51414 636.92675 486.96875 650.09375 C 509.41143 660.10875 533.26662 665.78275 557.375 669.96875 C 564.69721 671.05553 572.05627 672.01543 579.40625 672.875 C 579.11491 691.09614 578.88625 709.30889 578.59375 727.53125 C 578.26586 754.03325 575.30347 780.401 572.78125 806.75 C 570.62164 819.83 573.39748 837.45 574.4375 848 C 572.17958 853.0214 578.16306 867.62377 581.34375 874.9375 C 594.16281 885.50468 656.88881 861.56291 662.4375 844.6875 C 663.14002 848.92208 663.73263 852.08412 663.03125 842.78125 C 662.17011 833.27025 659.6523 823.93375 660.625 814.34375 C 662.79921 785.82875 665.54325 757.34775 665.65625 728.71875 C 665.82903 712.54156 665.99851 696.36162 666.25 680.1875 C 675.9392 680.86705 685.62507 681.54044 695.3125 682.25 C 706.85481 682.993 718.36927 684.052 729.84375 685.5 C 731.66415 685.639 733.49209 685.7985 735.3125 685.9375 C 754.12664 686.9345 758.81414 598.21575 740 597.21875 C 739.90226 597.25975 739.81645 597.30375 739.71875 597.34375 C 727.01881 596.07675 714.30152 594.9805 701.5625 594.1875 C 690.63112 593.43902 679.68535 592.73972 668.75 592.0625 C 669.39994 569.15207 669.8891 546.18857 668.125 523.34375 C 665.00463 496.66575 655.01875 473.04325 627.53125 463.28125 C 603.62278 455.83425 578.77071 453.2565 553.8125 452.0625 C 548.71361 451.8571 543.59859 451.7016 538.5 451.5625 C 541.70549 437.02336 544.49723 422.41447 546.3125 407.59375 C 546.51628 406.21087 546.70479 404.82083 546.90625 403.4375 C 566.83491 401.66344 586.79157 400.18872 606.75 398.78125 C 636.80367 396.84325 666.92245 396.211 697.03125 396.5 C 716.92488 396.854 736.77317 398.332 756.65625 399 C 766.49743 399.506 776.10135 398.3555 785.71875 396.4375 C 803.35147 392.11326 784.34112 311.86359 766.5625 310.0625 C 765.95089 310.21076 759.16611 310.96231 758.84375 310.65625 C 738.41803 310.35825 718.025 308.9025 697.59375 308.8125 C 665.21111 308.7015 632.81332 309.49875 600.5 311.71875 C 586.21001 312.762 571.93696 313.82921 557.65625 315 C 558.91781 301.23051 559.95624 287.46465 560.71875 273.65625 C 562.02221 246.32625 563.46893 219.018 565.75 191.75 C 565.92655 181.77525 541.02353 176.66619 517.59375 176.875 z M 766.5625 310.0625 C 765.89332 309.99471 765.22619 310.02474 764.5625 310.1875 C 766.17826 310.05141 766.67036 310.02342 766.5625 310.0625 z M 581.34375 874.9375 C 580.83611 874.51904 580.37562 874.06067 580.03125 873.53125 C 584.2136 881.28801 583.53392 879.97361 581.34375 874.9375 z M 580.03125 873.53125 C 579.78697 873.0782 579.74795 872.98587 579.46875 872.46875 C 579.61692 872.84979 579.81338 873.19631 580.03125 873.53125 z M 195.25 212.78125 C 188.24698 212.8802 183.23526 214.57544 181.9375 218.46875 C 170.45559 250.84775 160.33101 283.69575 149.28125 316.21875 C 137.96051 349.35475 124.83511 381.81975 111.28125 414.09375 C 101.73393 433.74875 95.928565 453.4785 97 475.3125 C 103.69171 506.9465 129.20275 518.83875 158.65625 518.59375 C 166.99358 518.30105 175.32666 517.76874 183.625 517.03125 C 174.94409 533.92775 166.21474 550.81308 157.3125 567.59375 C 142.16067 595.00875 126.8381 622.282 114 650.875 C 108.49692 662.344 104.91961 675.0195 99.8125 686.3125 C 84.732807 726.4665 114.67482 756.897 154.34375 752.25 C 172.07792 749.413 189.50596 745.104 206.78125 740.25 C 232.2666 732.46 257.6807 724.442 283.34375 717.25 C 292.96184 714.602 302.76091 712.7665 312.71875 712.1875 C 313.20551 712.3325 320.19415 711.5455 316.40625 712.0625 C 335.2702 711.0125 330.3327 622.10525 311.46875 623.15625 C 309.3847 623.36525 307.55306 623.71 305.40625 623.75 C 289.70482 625.254 274.23202 628.278 259.09375 632.75 C 243.95267 637.19435 228.85161 641.80029 213.75 646.375 C 220.44633 633.56656 227.4293 620.8828 234.25 608.125 C 252.9437 572.42125 270.96214 536.39375 289.53125 500.625 C 294.6048 499.91166 299.65151 498.99832 304.6875 498.0625 C 312.86406 496.31774 313.76576 478.22468 310.625 459 C 322.16281 435.86334 333.83503 412.81191 346.53125 390.28125 C 354.74757 373.41625 275.24757 334.66525 267.03125 351.53125 C 255.14803 374.6516 243.66597 397.97652 232.21875 421.3125 C 224.74865 422.67173 217.28989 424.02466 209.8125 425.34375 C 206.78546 425.79748 203.75181 426.22447 200.71875 426.625 C 211.51912 399.38695 222.03458 372.02499 231.5625 344.3125 C 242.77834 311.6185 253.00631 278.5655 265.8125 246.4375 C 270.44736 232.53281 220.26079 212.42786 195.25 212.78125 z M 185.375 466.8125 C 185.70956 469.03944 185.90849 471.2014 184.1875 471.875 C 184.05514 471.9268 184.57808 469.76155 185.375 466.8125 z M 519.46875 538.40625 C 529.59457 538.56461 539.71681 538.86078 549.84375 539.375 C 559.74428 540.97 570.48863 540.90177 580.8125 542.25 C 581.54362 556.35113 581.54682 570.49263 581.375 584.625 C 578.38719 584.22175 575.38764 583.79768 572.40625 583.34375 C 556.28639 580.54775 540.33035 576.89325 525.1875 570.53125 C 516.21377 566.69025 519.94487 567.11125 519.59375 574.28125 C 516.08452 563.15021 518.32115 550.20252 519.46875 538.40625 z M 592.59375 544.65625 C 594.8388 545.32159 597.04909 546.11955 599.1875 547.09375 C 596.78722 547.042 594.58529 546.08042 592.59375 544.65625 z M 423.65625 699.25 C 419.49432 699.28661 416.42684 700.42359 415.03125 703 C 401.77263 729.468 386.21837 754.702 372.625 781 C 365.27859 795.123 361.07636 810.291 357.25 825.625 C 353.00096 843.806 438.71971 863.83725 442.96875 845.65625 C 444.70022 837.12025 446.62713 828.70075 450.59375 820.84375 C 463.62479 795.02375 478.9171 770.512 492.75 745.125 C 500.28619 731.21241 446.13067 699.05232 423.65625 699.25 z M 795.4375 701.90625 C 773.71143 702.6664 720.94926 741.34828 730.03125 754.6875 C 747.49729 778.4845 769.69575 798.01725 791.84375 817.28125 C 801.50376 825.27725 810.9097 833.5225 819.96875 842.1875 C 833.55744 854.9495 893.71369 790.91825 880.125 778.15625 C 870.10689 768.87425 859.90857 759.789 849.34375 751.125 C 832.90904 736.845 815.98607 722.697 803.21875 704.875 C 801.73261 702.69222 798.99268 701.78186 795.4375 701.90625 z M 310.375 731.28125 C 310.08717 731.29844 309.788 731.34539 309.5 731.40625 C 300.09885 733.94825 291.08498 736.98125 282.8125 742.28125 C 261.98891 753.82425 241.42021 765.73375 221.21875 778.34375 C 196.41007 793.46775 171.48039 808.414 146.28125 822.875 C 129.82574 831.876 172.26325 909.46975 188.71875 900.46875 C 214.52858 884.41175 240.62515 868.83775 266.625 853.09375 C 285.56422 841.33975 304.92639 830.39075 324.6875 820.09375 C 324.92619 819.65694 326.37065 818.92741 327.875 818.28125 C 328.45101 818.15953 328.99473 817.96602 329.5 817.6875 C 329.05572 817.85494 328.9831 817.868 328.28125 818.125 C 328.70849 817.94613 329.10109 817.84363 329.5 817.6875 C 329.51264 817.68255 329.51867 817.66117 329.53125 817.65625 C 329.57199 817.63341 329.61597 817.61758 329.65625 817.59375 C 344.78923 808.64187 327.87153 730.23608 310.375 731.28125 z M 329.65625 817.59375 C 331.86112 816.75828 331.51325 816.87314 329.65625 817.59375 z "
     id="path9860" />
</svg>
