<?xml version="1.0" encoding="UTF-8" standalone="no"?>
<svg
   xmlns:dc="http://purl.org/dc/elements/1.1/"
   xmlns:cc="http://creativecommons.org/ns#"
   xmlns:rdf="http://www.w3.org/1999/02/22-rdf-syntax-ns#"
   xmlns:svg="http://www.w3.org/2000/svg"
   xmlns="http://www.w3.org/2000/svg"
   xmlns:sodipodi="http://sodipodi.sourceforge.net/DTD/sodipodi-0.dtd"
   xmlns:inkscape="http://www.inkscape.org/namespaces/inkscape"
   width="1024"
   height="1024"
   id="U7EAA"
   version="1.1"
   inkscape:version="0.48.0 r9654"
   sodipodi:docname="U+7EAA.svg">
  <metadata
     id="metadata13">
    <rdf:RDF>
      <cc:Work
         rdf:about="">
        <dc:format>image/svg+xml</dc:format>
        <dc:type
           rdf:resource="http://purl.org/dc/dcmitype/StillImage" />
      </cc:Work>
    </rdf:RDF>
  </metadata>
  <defs
     id="defs11" />
  <sodipodi:namedview
     pagecolor="#ffffff"
     bordercolor="#666666"
     borderopacity="1"
     objecttolerance="10"
     gridtolerance="10"
     guidetolerance="10"
     inkscape:pageopacity="0"
     inkscape:pageshadow="2"
     inkscape:window-width="640"
     inkscape:window-height="480"
     id="namedview9"
     showgrid="false"
     inkscape:zoom="0.27441406"
     inkscape:cx="512"
     inkscape:cy="512"
     inkscape:window-x="0"
     inkscape:window-y="25"
     inkscape:window-maximized="0"
     inkscape:current-layer="U7EAA" />
  <path
     style="fill:#550000;fill-opacity:1;fill-rule:nonzero;stroke:#f9f9f9;stroke-width:0.1;stroke-miterlimit:4;stroke-dasharray:none"
     d="M 339.65625 210.15625 C 337.63054 210.27598 335.94068 210.96003 334.75 212.28125 C 314.138 235.38125 295.214 259.76675 277.4375 285.09375 C 254.1206 319.65575 234.07155 356.26375 215.84375 393.71875 C 202.80935 420.68675 192.8499 443.04675 193.125 473.34375 C 195.6168 480.44275 196.6891 488.213 200.625 494.625 C 214.97237 517.9991 239.25038 523.55727 263.875 523.90625 C 253.26854 547.81911 243.56591 572.12473 232.875 596 C 225.6077 610.052 219.6222 624.0555 216.5 639.5625 C 218.4505 648.8365 216.70825 659.756 222.34375 667.375 C 249.20015 703.687 281.04295 691.005 311.59375 673.875 C 338.99425 657.672 366.16415 641.1485 394.40625 626.4375 C 411.24865 618.5215 403.0767 622.14175 418.9375 615.59375 C 436.2188 608.23175 401.49995 526.763 384.21875 534.125 C 363.99155 542.946 374.2534 538.2195 353.4375 548.3125 C 351.59622 549.28314 349.77257 550.26868 347.9375 551.25 C 348.96794 548.95793 350.00782 546.65674 351.0625 544.375 C 368.9019 505.989 387.59425 467.91275 410.46875 432.21875 C 426.84955 407.60275 444.1525 383.21025 467.1875 364.28125 C 481.7159 352.12725 424.4034 283.62825 409.875 295.78125 C 380.9725 320.99125 358.2967 351.86725 337.25 383.65625 C 321.68936 408.08883 307.77994 433.45836 294.71875 459.28125 C 293.32141 453.89465 291.6433 448.99882 289.75 444.9375 C 291.60056 440.57234 293.4901 436.24062 295.375 431.90625 C 311.0752 398.65625 328.72255 366.28775 349.40625 335.84375 C 365.25655 313.48275 382.1734 291.94425 401.1875 272.15625 C 412.69742 259.38447 359.23807 208.99881 339.65625 210.15625 z M 732.46875 236.6875 C 713.1092 236.70619 693.73985 238.90431 674.375 242.59375 C 644.6323 247.50475 615.02405 253.12725 585.28125 258.03125 C 566.61175 261.32625 582.143 349.32625 600.8125 346.03125 C 630.0317 340.00325 659.34965 334.507 688.78125 329.625 C 711.65275 326.723 735.87265 321.02725 758.59375 327.65625 C 765.48915 331.36725 758.95245 329.0625 758.46875 331.5625 C 757.78225 335.1115 759.0471 338.74475 759.375 342.34375 C 760.6385 368.62675 756.0487 394.5085 748.5 419.5625 C 742.5767 434.0085 745.88015 427.20075 738.71875 440.09375 C 736.11352 445.08793 741.36534 452.28176 750.21875 459.4375 C 750.17717 459.44223 750.1354 459.43187 750.09375 459.4375 C 721.91525 463.8405 693.53645 466.906 665.21875 470.25 C 628.54585 474.221 591.8487 477.919 555.1875 482 C 550.56707 482.61825 547.82592 488.44515 546.5625 496.84375 C 532.64099 494.3789 521.15017 495.0825 519.09375 501.3125 C 510.04985 532.0605 508.5041 564.199 506.875 596 C 505.4421 637.161 501.7923 678.18225 499.3125 719.28125 C 495.918 759.31325 501.4258 797.37875 518.625 833.59375 C 540.1305 870.81075 575.74505 887.3585 615.90625 896.8125 C 658.97555 904.4195 702.6188 900.0795 745.625 894.5625 C 786.5663 889.0555 827.0297 880.74725 866.9375 870.15625 C 901.1117 861.41025 932.5276 846.19625 961.375 826.15625 C 984.7885 809.70025 1000.3863 787.64925 1010.5938 761.28125 C 1015.2515 743.85025 1013.3884 752.79325 1016.125 734.53125 C 1018.5481 715.78725 930.1731 704.35075 927.75 723.09375 C 927.4693 728.25075 927.7877 725.645 926.8125 730.875 C 924.1742 740.653 918.0548 747.7285 909.9375 753.8125 C 890.1288 768.4565 867.9009 778.67125 844.0625 785.03125 C 808.03 794.84425 771.4607 802.38225 734.4375 807.40625 C 701.6119 811.64025 668.26935 815.42825 635.28125 810.53125 C 621.54455 807.73025 607.10445 804.80475 597.71875 793.46875 C 585.15545 772.79075 586.4989 747.731 587.125 724.375 C 589.4115 683.175 593.11135 642.07375 594.90625 600.84375 C 595.5842 589.37331 596.10111 577.78153 597.21875 566.28125 C 622.99067 563.00627 648.86084 560.38097 674.6875 557.59375 C 703.8147 554.36475 732.9508 551.21175 762.0625 547.84375 C 777.36174 545.77641 772.21866 486.55285 759.625 466.1875 C 781.18638 480.09447 811.85347 491.0454 817.09375 481 C 829.19605 456.994 823.81315 469.2275 833.28125 444.3125 C 843.91625 406.9935 850.41735 368.53975 847.03125 329.59375 C 839.66365 285.08875 823.34465 254.49325 777.65625 240.90625 C 762.59404 237.97631 747.52618 236.67296 732.46875 236.6875 z M 282.15625 464.75 C 282.16447 464.78599 282.17921 464.80757 282.1875 464.84375 C 280.5814 475.16522 280.8171 468.9324 282.15625 464.75 z M 444.03125 667.9375 C 442.80191 667.95657 441.68223 668.25644 440.6875 668.90625 C 433.9202 673.57225 426.83115 677.7885 419.96875 682.3125 C 390.59835 701.5645 361.26925 720.891 331.40625 739.375 C 303.89565 756.111 276.2214 773.34425 245.9375 784.65625 C 228.0296 790.90725 257.49835 875.3135 275.40625 869.0625 C 311.22895 854.6265 344.2881 834.32975 377.125 814.21875 C 407.4589 795.33175 437.52865 776.042 467.84375 757.125 C 475.11045 752.701 482.488 748.4715 489.6875 743.9375 C 504.60837 734.19125 462.47134 667.65142 444.03125 667.9375 z "
     id="path8559" />
</svg>
