<?xml version="1.0" encoding="utf-8" ?>

<!DOCTYPE svg PUBLIC "-//W3C//DTD SVG 1.1//EN" 
  "http://www.w3.org/Graphics/SVG/1.1/DTD/svg11.dtd">
<svg 
    xmlns="http://www.w3.org/2000/svg"
    xmlns:xlink="http://www.w3.org/1999/xlink"
    xmlns:sodipodi="http://sodipodi.sourceforge.net/DTD/sodipodi-0.dtd"
    xmlns:inkscape="http://www.inkscape.org/namespaces/inkscape"
    width="1024" height="1024" id="U7ED3">
<path d="m 8510.9262,23808.118 c -14.8982,35.311 -29.7712,70.627 -43.9007,106.254 -11.5301,30.374 -22.9717,60.917 -29.7987,92.744 -2.7104,16.452 2.0097,6.808 -2.189,-3.465 -3.9207,-9.593 -5.9737,-10.265 -12.7053,-16.077 -7.7359,-3.116 5.1554,-2.181 7.7403,-2.629 18.7902,-2.386 30.0352,86.193 11.2449,88.578 l 0,0 c -21.2379,2.416 -42.2316,1.934 -61.9623,-7.381 -4.6078,-3.17 -9.8557,-5.569 -13.8235,-9.512 -19.438,-19.314 -20.8045,-44.577 -14.8392,-69.631 8.8097,-35.846 21.4999,-70.515 34.808,-104.911 13.8432,-35.008 28.4501,-69.718 41.6836,-104.961 6.5742,-17.764 90.3161,13.227 83.7419,30.991 z" id="path9185" inkscape:connector-curvature="0" style="fill:#550000;fill-opacity:1;fill-rule:nonzero;stroke:#f9f9f9;stroke-width:0.1;stroke-miterlimit:4;stroke-dasharray:none" transform="translate(-8192, -23552)"/><path d="m 8577.8481,23943.831 c -15.0492,36.859 -30.1314,73.699 -45.7019,110.342 -14.7535,34.074 -29.3185,68.255 -41.4887,103.351 -3.9212,11.531 -7.025,23.32 -9.0798,35.323 -0.1735,-7.595 -0.4603,4.144 -0.3252,3.111 2.5897,-19.819 -9.3759,-29.288 -23.9061,-39.239 10.7749,-13.52 -11.4256,1.163 -11.2443,-2.686 0.042,-0.902 1.7018,-0.605 2.5545,-0.903 8.6605,-3.022 17.0356,-6.457 25.4569,-10.099 17.2584,-7.51 52.6611,73.846 35.4028,81.356 l 0,0 c -26.4175,11.55 -53.0862,24.005 -82.4875,16.74 -6.4214,-3.773 -13.7909,-6.268 -19.2642,-11.319 -15.24,-14.064 -18.1129,-34.496 -14.1938,-53.578 3.3159,-16.554 7.8403,-32.83 13.6695,-48.686 13.4706,-36.367 28.8421,-71.974 44.2782,-107.542 15.1609,-35.869 29.9565,-71.906 43.1456,-108.555 6.8698,-17.646 90.0538,14.738 83.184,32.384 z" id="path9187" inkscape:connector-curvature="0" style="fill:#550000;fill-opacity:1;fill-rule:nonzero;stroke:#f9f9f9;stroke-width:0.1;stroke-miterlimit:4;stroke-dasharray:none" transform="translate(-8192, -23552)"/><path d="m 8383.6759,24343.468 c 29.4659,-17.198 58.3929,-35.31 87.527,-53.064 16.9724,-10.345 34.1113,-20.409 51.3467,-30.308 16.4203,-9.239 59.9764,68.167 43.5561,77.406 l 0,0 c -16.5653,9.118 -33.013,18.446 -49.199,28.226 -29.6095,17.887 -58.9997,36.128 -88.1408,54.769 -16.3403,9.565 -61.4302,-67.464 -45.09,-77.029 z" id="path9189" inkscape:connector-curvature="0" style="fill:#550000;fill-opacity:1;fill-rule:nonzero;stroke:#f9f9f9;stroke-width:0.1;stroke-miterlimit:4;stroke-dasharray:none" transform="translate(-8192, -23552)"/><path d="m 8646.989,23871.181 c 33.4446,-7.424 67.0364,-14.05 100.7786,-19.969 36.9237,-6.311 73.9742,-11.831 111.1142,-16.697 13.7614,-1.794 27.5642,-3.24 41.2993,-5.23 18.7849,-2.386 30.0344,86.167 11.2495,88.553 l 0,0 c -13.8347,1.55 -27.6989,2.811 -41.5287,4.408 -35.7409,4.286 -71.3664,9.463 -106.8379,15.606 -32.1134,5.708 -64.1485,11.921 -95.6945,20.286 -18.4463,4.323 -38.8268,-82.634 -20.3805,-86.957 z" id="path9191" inkscape:connector-curvature="0" style="fill:#550000;fill-opacity:1;fill-rule:nonzero;stroke:#f9f9f9;stroke-width:0.1;stroke-miterlimit:4;stroke-dasharray:none" transform="translate(-8192, -23552)"/><path d="m 8867.5531,23769.726 c -5.9335,31.468 -7.603,63.597 -10.1066,95.475 -3.6783,49.37 -8.4192,98.65 -14.2149,147.815 -3.426,26.067 -1.5742,13.4 -5.4993,38.009 -3.1092,18.468 -90.1642,3.811 -87.055,-14.656 l 0,0 c 3.846,-21.516 1.9943,-10.183 5.4464,-34.015 6.0699,-47.736 10.7131,-95.639 13.9285,-143.655 2.5365,-36.093 4.2625,-72.364 10.1339,-108.11 4.0597,-18.534 91.4266,0.604 87.367,19.137 z" id="path9193" inkscape:connector-curvature="0" style="fill:#550000;fill-opacity:1;fill-rule:nonzero;stroke:#f9f9f9;stroke-width:0.1;stroke-miterlimit:4;stroke-dasharray:none" transform="translate(-8192, -23552)"/><path d="m 8605.6984,24068.61 c 41.0802,-17.518 84.8793,-26.755 128.6032,-34.806 48.7548,-8.1 98.0934,-11.674 147.2749,-16.099 27.4456,-2.579 54.863,-5.447 82.2666,-8.437 10.9743,-0.821 5.1268,-0.655 17.5476,-0.274 18.9403,1.72 10.8327,91.005 -8.1077,89.285 l 0,0 c 4.39,-0.447 4.1017,-0.327 -0.9008,-0.26 -27.7592,2.315 -55.5063,4.768 -83.2571,7.18 -46.3975,3.832 -92.9385,7.015 -138.9154,14.603 -35.912,6.678 -72.1901,13.871 -105.6127,29.156 -17.0444,8.252 -55.943,-72.096 -38.8986,-80.348 z" id="path9195" inkscape:connector-curvature="0" style="fill:#550000;fill-opacity:1;fill-rule:nonzero;stroke:#f9f9f9;stroke-width:0.1;stroke-miterlimit:4;stroke-dasharray:none" transform="translate(-8192, -23552)"/><path d="m 8752.3436,24242.258 c 7.5249,31.915 16.2933,63.527 24.6022,95.245 7.6265,27.141 12.5993,55.029 20.9767,81.958 5.1723,18.195 -80.6009,42.577 -85.7732,24.382 l 0,0 c -7.3906,-27.857 -12.8605,-56.19 -20.3416,-84.03 -8.5336,-32.555 -17.5134,-64.983 -26.5149,-97.411 -4.2732,-18.466 82.7777,-38.61 87.0508,-20.144 z" id="path9203" inkscape:connector-curvature="0" style="fill:#550000;fill-opacity:1;fill-rule:nonzero;stroke:#f9f9f9;stroke-width:0.1;stroke-miterlimit:4;stroke-dasharray:none" transform="translate(-8192, -23552)"/><path d="m 8716.8858,24194.718 c 30.1364,-5.836 60.3553,-11.234 90.6201,-16.359 29.1948,-4.933 58.6101,-8.378 88.1531,-10.271 22.173,-1.338 45.8081,0.269 63.0193,16.458 5.1324,4.828 8.6017,11.163 12.9025,16.745 14.8445,32.781 7.9369,67.796 1.6904,101.765 -6.7376,34.129 -14.6359,68.022 -24.7583,101.309 -4.0188,14.429 -11.0353,27.225 -18.6917,39.936 -10.2678,15.865 -85.0519,-32.538 -74.7842,-48.402 l 0,0 c 4.5445,-5.067 6.5468,-11.596 8.9266,-17.875 9.5258,-29.693 16.4537,-60.121 22.3674,-90.726 2.1432,-12.035 4.346,-23.98 5.2534,-36.185 0.1886,-2.537 -1.4329,-8.988 0.6989,-7.6 1.1537,0.752 1.6015,2.241 2.4022,3.361 14.8371,14.084 30.1241,9.993 5.9441,10.003 -26.2775,1.211 -52.4338,4.173 -78.3832,8.492 -28.6096,4.849 -57.2318,9.839 -85.484,16.5 -18.4876,4.217 -38.3642,-82.934 -19.8766,-87.151 z" id="path9205" inkscape:connector-curvature="0" style="fill:#550000;fill-opacity:1;fill-rule:nonzero;stroke:#f9f9f9;stroke-width:0.1;stroke-miterlimit:4;stroke-dasharray:none" transform="translate(-8192, -23552)"/><path d="m 8749.5363,24392.342 c 28.9513,-7.291 57.9601,-14.35 87.0203,-21.193 11.4658,-2.683 22.9849,-5.094 34.5481,-7.311 18.6033,-3.329 34.2954,84.367 15.6922,87.696 l 0,0 c -10.1557,1.65 -20.2499,3.607 -30.2978,5.829 -27.8257,6.316 -55.6239,12.891 -82.9792,21.037 -18.2558,5.088 -42.2394,-80.971 -23.9836,-86.058 z" id="path9207" inkscape:connector-curvature="0" style="fill:#550000;fill-opacity:1;fill-rule:nonzero;stroke:#f9f9f9;stroke-width:0.1;stroke-miterlimit:4;stroke-dasharray:none" transform="translate(-8192, -23552)"/></svg>