<?xml version="1.0" encoding="UTF-8" standalone="no"?>
<svg
   xmlns:dc="http://purl.org/dc/elements/1.1/"
   xmlns:cc="http://creativecommons.org/ns#"
   xmlns:rdf="http://www.w3.org/1999/02/22-rdf-syntax-ns#"
   xmlns:svg="http://www.w3.org/2000/svg"
   xmlns="http://www.w3.org/2000/svg"
   xmlns:sodipodi="http://sodipodi.sourceforge.net/DTD/sodipodi-0.dtd"
   xmlns:inkscape="http://www.inkscape.org/namespaces/inkscape"
   width="1024"
   height="1024"
   id="U7EC4"
   version="1.1"
   inkscape:version="0.48.0 r9654"
   sodipodi:docname="U+7EC4.svg">
  <metadata
     id="metadata15">
    <rdf:RDF>
      <cc:Work
         rdf:about="">
        <dc:format>image/svg+xml</dc:format>
        <dc:type
           rdf:resource="http://purl.org/dc/dcmitype/StillImage" />
      </cc:Work>
    </rdf:RDF>
  </metadata>
  <defs
     id="defs13" />
  <sodipodi:namedview
     pagecolor="#ffffff"
     bordercolor="#666666"
     borderopacity="1"
     objecttolerance="10"
     gridtolerance="10"
     guidetolerance="10"
     inkscape:pageopacity="0"
     inkscape:pageshadow="2"
     inkscape:window-width="640"
     inkscape:window-height="480"
     id="namedview11"
     showgrid="false"
     inkscape:zoom="0.27441406"
     inkscape:cx="512"
     inkscape:cy="512"
     inkscape:window-x="0"
     inkscape:window-y="25"
     inkscape:window-maximized="0"
     inkscape:current-layer="U7EC4" />
  <path
     style="fill:#2b1100;fill-opacity:1;fill-rule:nonzero;stroke:none"
     d="M 658.15625 211.15625 C 629.76422 211.35877 601.36892 213.06681 573.4375 218.5 C 542.79638 225.112 512.45581 233.4555 484.40625 247.8125 C 477.49579 251.20399 479.97554 266.56597 486.46875 282.9375 C 460.16607 279.16943 420.64662 284.03259 420.875 296.59375 C 423.743 339.23575 428.12253 381.758 432.65625 424.25 C 440.45517 492.936 448.1163 561.63275 456.75 630.21875 C 461.14545 665.95775 467.40388 701.41525 474.0625 736.78125 L 474.0625 736.84375 C 433.46788 741.65416 392.92384 746.82431 352.625 753.75 C 334.14653 757.039 349.64654 844.13275 368.125 840.84375 C 410.30031 831.67675 453.13256 826.1645 495.90625 820.6875 C 565.19492 811.8675 634.71135 805.211 704.375 800.25 C 755.75249 796.628 807.26051 795.2585 858.75 794.6875 C 880.31276 795.03412 901.99337 793.76081 923.5 795.8125 C 923.42715 795.79179 923.3541 795.77071 923.28125 795.75 C 940.97957 798.09819 977.01214 723.69497 960.71875 715.65625 C 951.00718 711.72625 941.6695 708.068 931.03125 707.75 C 906.40106 706.208 881.74758 707.20975 857.09375 707.59375 C 824.08279 708.48135 791.04449 709.555 758.0625 711.1875 C 757.78451 704.48369 757.58865 697.7772 757.5625 691.0625 C 757.43888 637.4935 759.85136 583.9685 764.03125 530.5625 C 768.28418 470.7225 772.39038 410.8865 774.84375 350.9375 C 775.87158 313.1275 778.92508 273.26625 757.46875 240.15625 C 752.62605 235.57525 748.33286 230.32225 742.9375 226.40625 C 724.23496 212.83225 699.83185 212.362 677.8125 211.25 C 671.26651 211.16394 664.70826 211.10951 658.15625 211.15625 z M 923.5 795.8125 C 924.46628 796.08726 925.43997 796.34976 926.40625 796.625 C 926.61191 796.555 926.82559 796.47325 927.03125 796.40625 C 926.13045 796.22125 925.21331 796.059 924.3125 795.875 C 924.04071 795.84799 923.77185 795.83843 923.5 795.8125 z M 193.03125 232.1875 C 188.21469 232.12802 184.67102 233.33967 183.21875 236.21875 C 171.12815 262.35575 158.64195 288.30425 146.21875 314.28125 C 136.97002 334.20025 129.08375 354.66975 120.71875 374.96875 C 111.12429 394.65975 110.27928 407.40025 112.96875 429.15625 C 124.63655 458.25625 148.94661 468.471 178.03125 471.125 C 183.62221 471.12563 189.19724 470.78367 194.71875 470.1875 C 186.32214 487.66484 178.18616 505.27544 170.84375 523.25 C 162.26587 546.499 154.17666 570.11775 151.5 594.84375 C 151.94302 611.88075 154.5066 632.22125 167.9375 644.65625 C 172.97174 649.31725 179.16849 652.555 184.78125 656.5 C 213.24875 666.401 237.46898 654.545 262.59375 642 C 276.1076 636.036 290.18001 625.9405 303.53125 622.0625 C 301.4512 622.50961 299.3613 622.95885 297.28125 623.40625 C 313.64053 616.14026 312.45709 535.11105 294.46875 535.1875 C 289.20151 535.8175 283.95474 536.4315 278.6875 537.0625 C 270.70941 539.74413 263.03442 543.07066 255.5 546.6875 C 269.64929 512.22596 286.99432 479.23458 303.25 445.71875 C 305.1301 445.54878 307.01229 445.4354 308.90625 445.4375 C 316.63856 444.78914 319.89864 429.32607 319.75 411.53125 C 329.89925 390.65421 340.32953 369.93234 352.09375 349.90625 C 361.54138 333.68725 285.10389 289.157 275.65625 305.375 C 264.3922 326.44451 253.87982 347.8675 243.5625 369.40625 C 240.4489 370.21826 237.33513 371.0089 234.21875 371.8125 C 227.77699 373.45263 221.31553 375.1702 214.84375 376.78125 C 218.181 368.40562 221.61433 360.05357 225.28125 351.8125 C 237.25839 326.4055 249.40668 301.0745 262.1875 276.0625 C 269.18479 262.19058 216.23833 232.47407 193.03125 232.1875 z M 654.90625 298.65625 C 661.96212 298.62766 669.04606 298.74425 676.09375 298.9375 C 679.57393 299.28911 683.12795 299.41253 686.6875 299.65625 C 686.86184 300.52933 687.00767 301.34783 687.0625 301.9375 C 688.52688 317.6835 688.16093 333.3935 687.96875 349.1875 C 686.6367 399.96624 683.58606 450.64608 680.125 501.3125 C 659.77437 500.65856 639.41408 500.34444 619.0625 499.75 C 588.54933 499.35523 557.81995 499.51029 527.6875 504.75 C 526.18932 491.62974 524.72551 478.50512 523.3125 465.375 C 550.90982 459.85416 578.80866 455.85979 606.6875 452.0625 C 627.45376 448.9715 648.30173 447.22075 669.28125 446.96875 C 687.86135 446.53575 685.8301 358.97325 667.25 359.40625 C 643.02528 360.17725 618.92117 362.16125 594.9375 365.78125 C 568.1285 369.43292 541.33208 373.2582 514.625 377.59375 C 513.00238 359.16867 511.57833 340.74388 510.5625 322.28125 C 515.33088 326.80888 519.83654 328.95534 523.375 327.21875 C 544.53965 315.16275 568.11446 308.98575 591.75 303.96875 C 612.6013 300.047 633.73863 298.74203 654.90625 298.65625 z M 694.53125 300.5625 C 696.08695 300.8486 697.64532 301.20697 699.15625 301.6875 C 699.68366 301.8555 701.08442 302.61375 700.53125 302.59375 C 698.12987 302.51868 696.30224 301.67459 694.53125 300.5625 z M 593.40625 586.9375 C 601.52551 586.88065 609.66646 587.01594 617.75 587.15625 C 636.55748 587.8487 655.38178 588.12911 674.1875 588.96875 C 672.29879 622.84201 671.05468 656.75478 670.6875 690.6875 C 670.59153 699.46303 670.71209 708.23436 670.96875 717 C 634.56958 719.96631 598.20168 723.35808 561.875 727.09375 C 561.97349 726.40464 561.96101 725.72162 561.8125 725.03125 C 561.33096 723.01725 560.85654 720.98275 560.375 718.96875 C 552.99006 685.88375 546.62855 652.62625 541.96875 619.03125 C 540.75362 610.18302 539.56982 601.32345 538.40625 592.46875 C 539.03425 592.5201 539.65825 592.49667 540.28125 592.34375 C 557.69799 588.16237 575.54389 587.06257 593.40625 586.9375 z M 239.75 595.5625 C 240.16995 597.52594 240.20467 599.63994 239.71875 601.90625 C 239.49452 599.79848 239.5493 597.68575 239.75 595.5625 z M 344.9375 645.59375 C 344.06574 645.62319 343.21614 645.85559 342.4375 646.25 C 324.65331 655.506 333.63532 650.578 315.5 661 C 275.20731 685.049 235.00011 709.4125 197.65625 737.9375 C 165.06743 763.5915 131.67247 789.25 105.9375 822.125 C 95.390682 837.644 168.54693 887.36275 179.09375 871.84375 C 199.38927 846.16275 225.89612 826.13225 251.375 805.90625 C 285.48567 779.70425 322.49667 757.709 359.6875 736.25 C 375.48203 727.6 367.95591 731.42825 382.09375 724.53125 C 397.92615 716.51261 362.6633 644.99507 344.9375 645.59375 z "
     id="path15927" />
</svg>
