<?xml version="1.0" encoding="UTF-8" standalone="no"?>
<svg
   xmlns:dc="http://purl.org/dc/elements/1.1/"
   xmlns:cc="http://creativecommons.org/ns#"
   xmlns:rdf="http://www.w3.org/1999/02/22-rdf-syntax-ns#"
   xmlns:svg="http://www.w3.org/2000/svg"
   xmlns="http://www.w3.org/2000/svg"
   xmlns:sodipodi="http://sodipodi.sourceforge.net/DTD/sodipodi-0.dtd"
   xmlns:inkscape="http://www.inkscape.org/namespaces/inkscape"
   width="1024"
   height="1024"
   id="U7EC7"
   version="1.1"
   inkscape:version="0.48.0 r9654"
   sodipodi:docname="U+7EC7.svg">
  <metadata
     id="metadata15">
    <rdf:RDF>
      <cc:Work
         rdf:about="">
        <dc:format>image/svg+xml</dc:format>
        <dc:type
           rdf:resource="http://purl.org/dc/dcmitype/StillImage" />
      </cc:Work>
    </rdf:RDF>
  </metadata>
  <defs
     id="defs13" />
  <sodipodi:namedview
     pagecolor="#ffffff"
     bordercolor="#666666"
     borderopacity="1"
     objecttolerance="10"
     gridtolerance="10"
     guidetolerance="10"
     inkscape:pageopacity="0"
     inkscape:pageshadow="2"
     inkscape:window-width="640"
     inkscape:window-height="480"
     id="namedview11"
     showgrid="false"
     inkscape:zoom="0.27441406"
     inkscape:cx="512"
     inkscape:cy="512"
     inkscape:window-x="0"
     inkscape:window-y="25"
     inkscape:window-maximized="0"
     inkscape:current-layer="U7EC7" />
  <path
     style="fill:#2b1100;fill-opacity:1;fill-rule:nonzero;stroke:none"
     d="M 242.46875 244.46875 C 241.2562 244.52399 240.14983 244.89181 239.1875 245.5625 C 208.1175 270.1255 185.78245 303.166 164.78125 336.25 C 144.11565 370.209 126.9096 406.13725 116.0625 444.40625 C 108.0515 479.94325 118.7473 514.10975 152.625 531.59375 C 158.2939 534.51975 164.6668 535.8285 170.6875 537.9375 C 179.16128 539.8661 187.67562 540.99695 196.25 541.625 C 188.39261 559.53987 180.9513 577.62982 174.09375 595.96875 C 164.52775 624.97775 156.74395 659.19725 176.53125 686.28125 C 181.14305 692.59325 187.81345 697.07175 193.46875 702.46875 C 223.92715 719.80175 257.0085 714.6045 289.75 708.5625 C 307.635 705.2025 325.3236 700.92725 342.8125 695.90625 C 360.762 690.48425 335.23075 605.85925 317.28125 611.28125 C 303.04925 615.91025 288.41085 619.40675 273.71875 622.21875 C 267.27141 623.42133 262.32191 624.42714 256.25 625.25 C 266.82905 595.2316 279.49822 566.05581 293.125 537.3125 C 293.90673 537.2459 294.68705 537.19187 295.46875 537.125 C 301.98961 536.4816 305.18313 525.3417 305.78125 511.1875 C 307.68935 507.32669 309.60427 503.47555 311.53125 499.625 C 328.75865 465.474 346.3799 431.53075 364.5 397.84375 C 373.0712 381.15275 294.3836 340.7455 285.8125 357.4375 C 270.16963 389.60881 253.89936 421.46857 237.96875 453.5 C 226.79267 454.29543 215.58414 454.83928 204.40625 454.21875 C 212.28308 429.06287 224.96441 405.57918 238.1875 382.84375 C 252.9255 359.59675 268.22435 335.71 289.78125 318.125 C 304.21613 308.06469 260.65703 243.64018 242.46875 244.46875 z M 653.34375 250.5625 C 635.44601 250.43462 617.53785 252.235 599.71875 256.1875 C 569.33407 263.29837 539.41664 272.51077 511.6875 287.03125 C 511.80754 284.96602 511.94557 282.90736 512.125 280.84375 C 513.9059 262.14375 425.74975 253.7375 423.96875 272.4375 C 421.90785 306.2375 425.60505 340.049 429.09375 373.625 C 433.11745 415.284 439.5839 456.6115 448.75 497.4375 C 453.6891 518.7545 460.47075 539.442 470.53125 558.875 C 471.44652 560.52626 473.04727 561.58718 475.1875 562.125 C 480.63446 580.96291 489.29928 597.12575 497.46875 595.15625 C 527.88445 587.67925 559.12355 584.35225 590.21875 581.15625 C 626.23565 577.86025 662.20005 573.94125 698.28125 571.40625 C 707.17385 570.78825 716.38325 570.652 725.15625 571 C 726.99096 571.108 728.68416 570.34476 730.25 568.90625 C 737.31704 573.10068 743.37482 574.61878 746.71875 571.53125 C 749.98985 568.03125 753.26015 564.53025 756.53125 561.03125 C 770.22165 539.97925 778.4588 516.37975 786.9375 492.84375 C 798.6346 458.46975 809.34515 423.25425 810.28125 386.65625 C 808.87785 353.50625 801.49745 322.46375 778.21875 297.46875 C 757.96485 277.88475 734.5298 263.316 706.875 256.5 C 689.11455 252.758 671.24149 250.69038 653.34375 250.5625 z M 511.90625 321.5 C 523.02887 344.80529 543.8768 370.73973 553.6875 364.8125 C 574.1043 353.2585 596.6279 346.49075 619.375 341.34375 C 642.0256 336.76875 665.0944 336.372 687.5 342.125 C 698.384 345.543 708.18555 351.26525 715.78125 359.78125 C 722.05575 368.51425 722.60425 378.756 722.53125 389.125 C 720.75595 415.068 712.71165 439.977 704.21875 464.375 C 701.51754 470.5632 699.23184 477.14065 696.84375 483.65625 C 695.02366 483.78335 693.19538 483.89901 691.375 484.03125 C 654.7036 487.23125 618.13015 491.308 581.46875 494.625 C 567.65924 496.00392 553.84447 497.4543 540.0625 499.125 C 537.87203 491.96361 536.33377 484.51663 533.90625 477.75 C 525.03895 440.635 519.03425 402.9615 515.65625 364.9375 C 514.26457 350.51858 512.7381 336.01493 511.90625 321.5 z M 201.28125 465.375 C 201.50046 465.82993 201.63078 466.17882 201.65625 466.28125 C 202.13755 468.21625 201.0253 474.12225 200.6875 472.15625 C 200.3976 470.46925 200.79175 468.74225 200.84375 467.03125 C 200.97672 466.47399 201.14315 465.93057 201.28125 465.375 z M 252.15625 641.59375 C 252.53559 642.97673 252.78642 644.66108 253 646.9375 C 253.0902 647.8985 252.9547 650.1795 252.125 649.6875 C 251.20107 649.13883 251.45231 645.6994 252.15625 641.59375 z M 493.4375 672.4375 C 490.44585 672.50883 488.1473 673.41338 486.8125 675.34375 C 469.7936 700.60775 454.01625 726.6585 438.84375 753.0625 C 424.93325 777.7345 410.5597 802.28275 401.1875 829.09375 C 400.3523 834.37175 399.5227 839.6595 398.6875 844.9375 C 397.38941 862.38798 473.94219 869.26739 485.5 854.96875 C 490.40671 833.91421 505.97417 816.03381 514.59375 796.59375 C 528.53965 772.31475 542.9941 748.2485 559.625 725.6875 C 568.9686 712.17575 514.37902 671.93822 493.4375 672.4375 z M 485.5 854.96875 C 485.42354 855.29685 485.35248 855.6391 485.28125 855.96875 C 485.45199 855.50989 485.64178 855.05261 485.8125 854.59375 C 485.72028 854.72398 485.60256 854.84187 485.5 854.96875 z M 485.8125 854.59375 C 486.47932 853.65213 486.88546 852.61967 486.96875 851.5 C 486.58619 852.52814 486.19503 853.56561 485.8125 854.59375 z M 713.78125 693.03125 C 694.3888 694.00435 647.2038 749.33175 659.90625 760.65625 C 681.97615 779.04325 705.28815 795.8265 727.96875 813.4375 C 750.72805 830.8135 770.69625 851.2755 788.71875 873.4375 C 795.76545 882.2815 802.2213 891.55125 808.5625 900.90625 C 819.2941 916.28225 891.7941 865.6885 881.0625 850.3125 C 873.086 839.1615 864.98935 828.096 856.28125 817.5 C 833.85335 790.785 809.4233 765.8525 781.6875 744.5625 C 760.6092 728.0685 738.8287 712.3575 718.8125 694.5625 C 717.49844 693.39091 715.78737 692.93058 713.78125 693.03125 z M 345.78125 730.65625 C 345.20692 730.6518 344.62447 730.73991 344.0625 730.90625 C 330.5197 735.31525 337.42345 732.81225 323.40625 738.53125 C 288.62115 754.80225 255.07575 773.53875 221.96875 792.96875 C 189.25985 812.48375 156.91165 832.67375 123.78125 851.46875 C 107.47235 860.74575 151.22235 937.61975 167.53125 928.34375 C 200.39725 907.81775 233.2167 887.23025 266.4375 867.28125 C 296.7257 849.63925 327.4308 832.5085 359.625 818.5625 C 367.0602 815.9365 363.83985 816.7595 369.15625 815.6875 C 386.57728 810.53084 363.58533 730.79423 345.78125 730.65625 z "
     id="path14837" />
</svg>
