<?xml version="1.0" encoding="UTF-8" standalone="no"?>
<svg
   xmlns:dc="http://purl.org/dc/elements/1.1/"
   xmlns:cc="http://creativecommons.org/ns#"
   xmlns:rdf="http://www.w3.org/1999/02/22-rdf-syntax-ns#"
   xmlns:svg="http://www.w3.org/2000/svg"
   xmlns="http://www.w3.org/2000/svg"
   xmlns:sodipodi="http://sodipodi.sourceforge.net/DTD/sodipodi-0.dtd"
   xmlns:inkscape="http://www.inkscape.org/namespaces/inkscape"
   width="1024"
   height="1024"
   id="U7EA2"
   version="1.1"
   inkscape:version="0.48.0 r9654"
   sodipodi:docname="U+7EA2.svg">
  <metadata
     id="metadata13">
    <rdf:RDF>
      <cc:Work
         rdf:about="">
        <dc:format>image/svg+xml</dc:format>
        <dc:type
           rdf:resource="http://purl.org/dc/dcmitype/StillImage" />
      </cc:Work>
    </rdf:RDF>
  </metadata>
  <defs
     id="defs11" />
  <sodipodi:namedview
     pagecolor="#ffffff"
     bordercolor="#666666"
     borderopacity="1"
     objecttolerance="10"
     gridtolerance="10"
     guidetolerance="10"
     inkscape:pageopacity="0"
     inkscape:pageshadow="2"
     inkscape:window-width="640"
     inkscape:window-height="480"
     id="namedview9"
     showgrid="false"
     inkscape:zoom="0.27441406"
     inkscape:cx="512"
     inkscape:cy="512"
     inkscape:window-x="0"
     inkscape:window-y="25"
     inkscape:window-maximized="0"
     inkscape:current-layer="U7EA2" />
  <path
     style="fill:#550000;fill-opacity:1;fill-rule:nonzero;stroke:#f9f9f9;stroke-width:0.1;stroke-miterlimit:4;stroke-dasharray:none"
     d="M 269.53125 278.8125 C 266.00934 278.85973 263.36522 279.86386 262 282.09375 C 246.3965 309.29475 230.3621 336.234 215.3125 363.75 C 199.5285 393.57 185.1742 424.26375 175.375 456.59375 C 166.4601 492.84975 182.72445 527.37225 221.65625 534.90625 C 227.63055 536.06225 233.82135 535.0025 239.90625 535.0625 C 245.50061 534.50863 250.98362 533.48523 256.40625 532.1875 C 252.93947 540.00952 249.57234 547.88002 246.28125 555.78125 C 234.32215 585.65925 224.0019 616.14225 223.8125 648.53125 C 225.1341 654.33325 225.10825 660.6205 227.78125 665.9375 C 249.09845 708.3395 284.0681 702.38775 319.3125 686.09375 C 335.7843 677.83475 351.9318 668.936 368.3125 660.5 C 384.6052 651.96937 344.77578 575.64168 328.15625 583 C 344.17605 544.15906 362.90027 506.50675 384.78125 470.59375 C 401.15235 444.45875 417.5473 417.9015 438.875 395.4375 C 451.8645 382.1495 389.2395 320.8995 376.25 334.1875 C 351.1878 361.8355 331.30965 393.57475 311.78125 425.21875 C 300.93575 443.16544 290.79598 461.49243 281.25 480.125 C 277.96084 469.56098 273.52356 459.28348 268.78125 452.03125 C 275.30836 436.05347 283.27877 420.6238 291 405.28125 C 305.4484 379.01325 320.8182 353.271 336.75 327.875 C 345.09298 314.24789 291.05403 278.52388 269.53125 278.8125 z M 784.15625 323.09375 C 762.48285 323.65875 740.81945 324.20375 719.15625 325.09375 C 670.84515 327.07875 622.54275 329.6045 574.28125 332.5625 C 535.12865 334.9465 495.9809 338.02775 456.75 338.59375 C 438.1937 338.71975 438.78745 426.1885 457.34375 426.0625 C 498.15345 423.9395 538.9096 420.775 579.6875 418.125 C 598.23702 416.92513 616.78194 415.82477 635.34375 414.84375 C 633.97166 441.26106 633.09474 467.72088 632.1875 494.15625 C 630.5847 551.65325 629.48335 609.138 627.53125 666.625 C 626.1892 699.7767 625.17516 732.94733 623.125 766.0625 C 601.50872 767.85879 579.91629 769.92849 558.34375 772.28125 C 520.10085 776.24225 481.7521 781.18025 443.25 781.03125 C 424.6648 780.55025 422.38355 868.145 440.96875 868.625 C 483.36165 867.504 525.50365 861.90375 567.59375 857.09375 C 633.46615 849.22875 699.6444 844.76675 765.9375 842.84375 C 817.4702 841.51575 868.9678 844.367 919.375 855.375 C 924.3672 856.835 929.3827 858.291 934.375 859.75 C 952.0336 864.626 975.00245 781.375 957.34375 776.5 C 950.50445 774.692 943.6518 772.8695 936.8125 771.0625 C 879.6644 759.7595 821.57635 756.18775 763.34375 758.09375 C 745.44801 758.66439 727.56475 759.4061 709.6875 760.3125 C 710.93691 730.01737 711.68852 699.70643 712.8125 669.40625 C 714.5948 612.08125 715.74075 554.7535 717.78125 497.4375 C 719.00188 468.65467 720.02378 439.81766 722.34375 411.09375 C 722.35416 411.0934 722.36459 411.0941 722.375 411.09375 C 743.4338 410.39275 764.4939 410.15225 785.5625 410.03125 C 804.0086 409.73625 802.60235 322.79775 784.15625 323.09375 z M 261.3125 472.96875 C 261.92207 476.16355 261.46717 479.41991 259.5 482.59375 C 259.1343 483.18375 259.2875 481.21725 259.1875 480.53125 C 259.8329 477.99177 260.56019 475.47377 261.3125 472.96875 z M 311.1875 642.8125 C 311.2255 643.49417 311.24957 644.16484 311.25 644.875 C 311.2102 644.18722 311.19573 643.50709 311.1875 642.8125 z M 442.6875 654.15625 C 441.50863 654.20032 440.44056 654.51206 439.5 655.15625 C 402.9166 680.58125 366.451 706.20025 329.375 730.90625 C 291.4784 755.74225 253.44345 780.7095 213.03125 801.3125 C 196.43535 809.6105 235.56035 887.8595 252.15625 879.5625 C 294.72985 855.7535 335.5186 828.91825 376.1875 802.03125 C 413.6167 776.91825 450.7017 751.30775 488.0625 726.09375 C 502.17094 716.43094 460.3705 653.49521 442.6875 654.15625 z "
     id="path24739" />
</svg>
