<?xml version="1.0" encoding="UTF-8" standalone="no"?>
<svg
   xmlns:dc="http://purl.org/dc/elements/1.1/"
   xmlns:cc="http://creativecommons.org/ns#"
   xmlns:rdf="http://www.w3.org/1999/02/22-rdf-syntax-ns#"
   xmlns:svg="http://www.w3.org/2000/svg"
   xmlns="http://www.w3.org/2000/svg"
   xmlns:sodipodi="http://sodipodi.sourceforge.net/DTD/sodipodi-0.dtd"
   xmlns:inkscape="http://www.inkscape.org/namespaces/inkscape"
   width="1024"
   height="1024"
   id="U7F8A"
   version="1.1"
   inkscape:version="0.48.0 r9654"
   sodipodi:docname="U+7F8A.svg">
  <metadata
     id="metadata13">
    <rdf:RDF>
      <cc:Work
         rdf:about="">
        <dc:format>image/svg+xml</dc:format>
        <dc:type
           rdf:resource="http://purl.org/dc/dcmitype/StillImage" />
      </cc:Work>
    </rdf:RDF>
  </metadata>
  <defs
     id="defs11" />
  <sodipodi:namedview
     pagecolor="#ffffff"
     bordercolor="#666666"
     borderopacity="1"
     objecttolerance="10"
     gridtolerance="10"
     guidetolerance="10"
     inkscape:pageopacity="0"
     inkscape:pageshadow="2"
     inkscape:window-width="640"
     inkscape:window-height="480"
     id="namedview9"
     showgrid="false"
     inkscape:zoom="0.27441406"
     inkscape:cx="512"
     inkscape:cy="512"
     inkscape:window-x="0"
     inkscape:window-y="25"
     inkscape:window-maximized="0"
     inkscape:current-layer="U7F8A" />
  <path
     style="fill:#916f6f;fill-opacity:1;fill-rule:nonzero;stroke:#f9f9f9;stroke-width:0.1;stroke-miterlimit:4;stroke-dasharray:none"
     d="M 607.6875 116.53125 C 606.10008 116.5423 604.7292 116.97937 603.59375 117.90625 C 578.77245 139.58025 558.2626 165.4685 538.6875 191.8125 C 526.0307 209.1975 514.17135 227.11825 502.28125 245.03125 C 497.70605 252.08676 510.12619 265.67625 526.125 277.0625 C 503.46416 278.07373 480.82063 279.35166 458.1875 280.90625 C 453.00156 281.31779 447.80833 281.75132 442.625 282.1875 C 448.94619 272.00139 451.74195 262.9872 447.4375 259.0625 C 427.9729 241.7375 409.60375 223.23875 393.46875 202.71875 C 376.02535 180.57275 359.2363 157.89875 344.875 133.59375 C 334.9179 117.69175 259.94925 164.62925 269.90625 180.53125 C 286.94975 206.86125 305.44005 232.123 324.84375 256.75 C 334.16323 268.60032 344.10125 279.91267 354.4375 290.84375 C 320.08617 294.71872 285.80313 299.19942 251.59375 304.3125 C 216.47045 308.9505 181.22385 314.5505 145.71875 314.6875 C 126.93785 314.3335 125.25025 402.895 144.03125 403.25 C 184.11215 402.017 223.79025 395.45275 263.40625 389.71875 C 311.55324 381.97278 359.90796 375.84119 408.40625 371.0625 C 406.86268 400.90464 407.67468 430.94197 408.15625 460.75 C 408.21834 463.15649 408.31044 465.56233 408.375 467.96875 C 400.59186 468.59137 392.80983 469.22139 385.03125 469.90625 C 344.37265 473.70925 303.56 477.58975 263.75 487.09375 C 245.5889 491.77575 267.6513 577.3705 285.8125 572.6875 C 320.8596 562.8885 357.294 559.60475 393.375 555.96875 C 399.32221 555.42539 405.26736 554.91526 411.21875 554.40625 C 412.11566 577.43335 413.10476 600.45131 414.21875 623.46875 C 344.7852 630.99293 275.91661 642.42121 208.03125 659.375 C 161.09645 670.567 114.26675 682.259 67.40625 693.75 C 49.29055 698.59 72.10305 783.99625 90.21875 779.15625 C 135.96325 765.86925 182.1098 754.03775 228.3125 742.46875 C 290.98753 726.17598 354.67979 715.24387 418.90625 708.15625 C 421.72884 752.11919 425.04677 796.06037 427.75 840.03125 C 428.1484 860.01625 430.0787 880.12575 428.1875 900.09375 C 428.0749 900.91375 427.9876 901.7425 427.875 902.5625 C 426.0851 921.2885 514.3351 929.726 516.125 911 C 516.2755 909.067 516.44335 907.1195 516.59375 905.1875 C 517.53415 881.4525 515.98735 857.7525 514.59375 834.0625 C 511.25375 789.97313 507.47699 745.91693 504.34375 701.8125 C 561.56315 699.94773 618.86273 702.20274 676 705.6875 C 726.6224 708.8445 777.11715 713.29 827.46875 719.375 C 846.84245 721.837 866.18985 724.683 885.34375 728.5 C 903.68165 731.876 919.5879 645.4385 901.25 642.0625 C 880.0888 638.4255 858.8326 635.48025 837.5 633.03125 C 785.4511 627.24925 733.25665 623.0215 680.96875 620.0625 C 620.47789 616.73033 559.82758 614.8138 499.28125 617.0625 C 498.12612 594.54413 497.09553 572.00059 496.25 549.46875 C 511.57069 549.15276 526.8837 549.20071 542.21875 549.8125 C 556.74185 550.3735 570.5737 553.689 584.25 558.25 C 602.0345 563.546 627.00325 479.70225 609.21875 474.40625 C 588.17045 468.54525 567.0851 463.529 545.0625 463.125 C 528.00522 462.67342 510.94186 462.72754 493.90625 463.15625 C 493.8879 462.04189 493.8611 460.92688 493.84375 459.8125 C 493.68268 428.07482 492.90374 395.91891 496.4375 364.28125 C 541.14596 361.97043 585.91946 360.9 630.6875 361.375 C 660.9798 361.613 691.0371 365.339 720.875 370.25 C 731.877 373.056 743.77455 373.19675 754.46875 377.21875 C 772.57595 382.28875 796.4822 296.945 778.375 291.875 C 763.9432 288.204 749.21575 285.94925 734.53125 283.53125 C 700.26575 278.33425 665.7815 274.4225 631.0625 274.5625 C 616.63046 274.58402 602.20822 274.74034 587.78125 275.03125 C 594.61647 264.48721 601.58399 254.03549 608.9375 243.84375 C 624.0783 223.31675 639.7348 202.7915 659.5 186.4375 C 672.89825 175.50037 626.41901 116.40087 607.6875 116.53125 z "
     id="path13031" />
</svg>
