<?xml version="1.0" encoding="UTF-8" standalone="no"?>
<svg
   xmlns:dc="http://purl.org/dc/elements/1.1/"
   xmlns:cc="http://creativecommons.org/ns#"
   xmlns:rdf="http://www.w3.org/1999/02/22-rdf-syntax-ns#"
   xmlns:svg="http://www.w3.org/2000/svg"
   xmlns="http://www.w3.org/2000/svg"
   xmlns:sodipodi="http://sodipodi.sourceforge.net/DTD/sodipodi-0.dtd"
   xmlns:inkscape="http://www.inkscape.org/namespaces/inkscape"
   width="1024"
   height="1024"
   id="U8089"
   version="1.1"
   inkscape:version="0.48.0 r9654"
   sodipodi:docname="U+8089.svg">
  <metadata
     id="metadata13">
    <rdf:RDF>
      <cc:Work
         rdf:about="">
        <dc:format>image/svg+xml</dc:format>
        <dc:type
           rdf:resource="http://purl.org/dc/dcmitype/StillImage" />
      </cc:Work>
    </rdf:RDF>
  </metadata>
  <defs
     id="defs11" />
  <sodipodi:namedview
     pagecolor="#ffffff"
     bordercolor="#666666"
     borderopacity="1"
     objecttolerance="10"
     gridtolerance="10"
     guidetolerance="10"
     inkscape:pageopacity="0"
     inkscape:pageshadow="2"
     inkscape:window-width="640"
     inkscape:window-height="480"
     id="namedview9"
     showgrid="false"
     inkscape:zoom="0.27441406"
     inkscape:cx="512"
     inkscape:cy="512"
     inkscape:window-x="0"
     inkscape:window-y="25"
     inkscape:window-maximized="0"
     inkscape:current-layer="U8089" />
  <path
     style="fill:#a02c2c;fill-opacity:1;fill-rule:nonzero;stroke:#f9f9f9;stroke-width:0.1;stroke-miterlimit:4;stroke-dasharray:none"
     d="M 476.375 68.4375 C 473.90311 68.539125 471.95162 69.321375 470.6875 70.9375 C 443.3057 108.9725 426.8711 153.17225 411.125 196.90625 C 407.35251 208.20263 403.69108 219.51485 400.125 230.875 C 370.01138 237.29534 340.52177 246.1743 312.4375 259.53125 C 280.86667 276.51151 250.59178 296.06731 227.59375 323.40625 C 201.56391 317.95058 159.2137 321.14424 158.96875 334.125 C 159.85255 381.027 162.83055 427.84825 165.78125 474.65625 C 169.71065 544.03125 176.797 613.15075 187.1875 681.84375 C 194.4308 723.14175 201.148 764.898 215.6875 804.375 C 222.5522 821.736 304.39595 789.39225 297.53125 772.03125 C 282.92025 739.62425 279.87895 702.924 272.09375 668.625 C 261.53805 602.728 254.6096 536.3595 251.3125 469.6875 C 249.65085 438.59792 247.85816 407.45739 247.34375 376.3125 C 266.1203 386.78189 286.62028 393.10793 291.15625 385.1875 C 306.20655 362.5445 329.7294 348.46075 353.25 336.09375 C 359.15383 333.40458 365.11795 330.9694 371.15625 328.71875 C 364.48547 352.07891 357.87578 375.4583 351.09375 398.78125 C 340.14985 435.75625 328.7486 472.626 314.5625 508.5 C 308.0137 525.854 389.8262 556.69775 396.375 539.34375 C 409.76547 502.3493 421.21705 464.74072 432.09375 426.9375 C 432.30773 427.11603 432.50771 427.28856 432.75 427.4375 C 462.6376 446.7955 494.65415 462.08725 527.28125 476.15625 C 558.69215 489.69525 591.8736 500.282 620.4375 519.5 C 621.928 520.975 623.41575 522.4615 624.90625 523.9375 C 639.14895 535.9555 695.8051 468.80025 681.5625 456.78125 L 667.5 445.59375 C 634.2422 425.08775 598.009 410.81975 561.8125 396.34375 C 533.0438 383.85175 504.7118 370.36075 479.0625 352.09375 C 471.37971 347.3712 456.72314 362.35079 445.3125 380.25 C 452.23037 355.70499 459.1843 331.16435 466.4375 306.71875 C 477.26144 305.23031 488.09279 303.90585 498.90625 302.65625 C 549.51885 297.38825 600.47725 297.33825 651.28125 298.78125 C 674.12915 300.47325 700.69765 298.9695 718.96875 315.0625 C 736.92825 337.3555 741.3917 367.04825 746.125 394.40625 C 754.3019 461.03725 752.8259 528.42425 751.6875 595.40625 C 749.6532 669.78325 746.5809 744.122 744.5625 818.5 C 743.316 849.917 744.03435 881.39625 742.03125 912.78125 C 741.25885 931.42325 829.13385 935.0795 829.90625 916.4375 C 830.65825 884.4085 829.79735 852.3455 830.46875 820.3125 C 831.62585 745.8505 834.26045 671.46325 836.59375 597.03125 C 838.12515 524.61725 840.07955 451.77575 831.28125 379.71875 C 822.55395 329.07575 810.6254 278.04225 769.5 243.40625 C 763.4405 239.41425 757.6843 234.9095 751.3125 231.4375 C 721.3909 215.1335 686.5047 213.20775 653.25 211.96875 C 600.64379 211.0345 547.93777 211.50609 495.53125 216.625 C 507.34014 184.82142 519.86561 152.73491 540.34375 125.4375 C 550.63733 112.27763 496.50322 67.609983 476.375 68.4375 z M 467.375 545.65625 C 464.38816 545.65328 462.06716 546.51325 460.6875 548.40625 C 438.0307 581.52025 415.20485 614.5145 392.09375 647.3125 C 372.97405 673.9975 353.9065 700.7215 334.3125 727.0625 C 333.2757 728.3175 332.2244 729.58975 331.1875 730.84375 C 319.8262 745.78275 390.2637 799.34525 401.625 784.40625 L 405.90625 778.4375 C 418.96647 759.57483 432.17208 740.83377 445.40625 722.09375 C 464.9574 736.5355 484.74718 750.58443 505.5625 763.28125 C 545.4632 786.37025 589.87535 799.01425 633.96875 811.28125 C 654.71645 817.71025 676.84025 821.41925 695.96875 832.15625 C 712.69305 840.46725 751.8493 761.6235 735.125 753.3125 C 710.1739 741.5815 683.8489 734.05925 657.125 727.40625 C 620.7543 717.46725 583.89655 707.575 550.84375 688.875 C 531.65094 677.2153 513.72155 663.91333 496 650.25 C 507.83421 633.50965 519.76539 616.84078 532.0625 600.4375 C 541.72023 587.1865 488.28285 545.67706 467.375 545.65625 z "
     id="path11605" />
</svg>
