<?xml version="1.0" encoding="UTF-8" standalone="no"?>
<svg
   xmlns:dc="http://purl.org/dc/elements/1.1/"
   xmlns:cc="http://creativecommons.org/ns#"
   xmlns:rdf="http://www.w3.org/1999/02/22-rdf-syntax-ns#"
   xmlns:svg="http://www.w3.org/2000/svg"
   xmlns="http://www.w3.org/2000/svg"
   xmlns:sodipodi="http://sodipodi.sourceforge.net/DTD/sodipodi-0.dtd"
   xmlns:inkscape="http://www.inkscape.org/namespaces/inkscape"
   width="1024"
   height="1024"
   id="U8001"
   version="1.1"
   inkscape:version="0.48.0 r9654"
   sodipodi:docname="U+8001.svg">
  <metadata
     id="metadata13">
    <rdf:RDF>
      <cc:Work
         rdf:about="">
        <dc:format>image/svg+xml</dc:format>
        <dc:type
           rdf:resource="http://purl.org/dc/dcmitype/StillImage" />
      </cc:Work>
    </rdf:RDF>
  </metadata>
  <defs
     id="defs11" />
  <sodipodi:namedview
     pagecolor="#ffffff"
     bordercolor="#666666"
     borderopacity="1"
     objecttolerance="10"
     gridtolerance="10"
     guidetolerance="10"
     inkscape:pageopacity="0"
     inkscape:pageshadow="2"
     inkscape:window-width="640"
     inkscape:window-height="480"
     id="namedview9"
     showgrid="false"
     inkscape:zoom="0.27441406"
     inkscape:cx="512"
     inkscape:cy="512"
     inkscape:window-x="0"
     inkscape:window-y="25"
     inkscape:window-maximized="0"
     inkscape:current-layer="U8001" />
  <path
     style="fill:#2b0000;fill-opacity:1;fill-rule:nonzero;stroke:#f9f9f9;stroke-width:0.1;stroke-miterlimit:4;stroke-dasharray:none"
     d="M 486.65625 147.4375 C 481.83553 147.57351 478.36718 148.93594 477.03125 151.875 C 464.67355 182.54 458.32905 215.12325 451.84375 247.40625 C 450.31338 255.14221 448.88439 262.89584 447.5 270.65625 C 427.68601 272.19633 407.85877 273.69175 388.03125 275.0625 C 357.67765 277.1885 327.15805 279.96575 296.71875 278.21875 L 296.71875 278.25 C 277.97435 277.047 272.3181 365.38975 291.0625 366.59375 C 325.5776 367.50675 360.02845 364.394 394.40625 361.75 C 407.81608 360.74908 421.21823 359.72618 434.625 358.6875 C 434.10918 363.08809 433.60796 367.50162 433.125 371.90625 C 430.90934 393.00915 429.51145 414.18665 428.46875 435.375 C 381.99073 438.228 335.55235 441.87857 289.1875 446.3125 C 253.4702 449.0115 217.4943 452.24625 181.6875 449.40625 L 181.6875 449.4375 C 162.9817 447.9165 155.82555 536.07275 174.53125 537.59375 C 215.10705 539.45775 255.6624 535.9265 296.0625 532.5625 C 334.91107 528.55276 373.79901 525.26331 412.75 522.625 C 400.51397 534.26661 388.39165 546.02953 376.375 557.90625 C 340.321 593.83725 305.92655 631.38425 272.53125 669.78125 C 258.73544 685.62895 245.42824 701.88579 231.4375 717.5625 C 231.08764 717.95452 230.75699 718.35875 230.40625 718.75 C 230.31184 718.84716 230.36832 718.78534 230.28125 718.875 C 220.73951 734.03687 275.83577 796.77753 289.65625 784.8125 C 295.80555 778.7645 293.22405 781.572 297.53125 776.5 C 311.31115 759.896 324.805 743.05125 338.6875 726.53125 C 370.0798 689.43925 402.58645 653.32675 436.84375 618.84375 C 430.98078 638.09957 425.87588 657.55699 421.75 677.28125 C 415.3264 709.25425 417.77045 741.36 424.34375 773 C 430.53295 800.63 442.06855 826.0815 457.46875 849.6875 C 476.42005 876.2585 503.45075 893.563 532.09375 908 C 567.49365 924.559 605.973 929.07625 644.5625 930.15625 C 683.3045 930.35925 721.7112 924.7175 759.8125 918.3125 C 785.1131 913.8905 810.33465 909.10825 835.40625 903.53125 C 850.17305 900.53225 864.46705 895.7995 878.78125 891.1875 C 890.87285 887.4465 902.5625 882.615 914.125 877.5 C 920.0136 874.64 925.99055 871.989 932.09375 869.625 C 932.63265 869.422 933.17975 869.23425 933.71875 869.03125 C 951.28345 862.16825 918.90845 779.35675 901.34375 786.21875 C 900.58875 786.52175 899.84875 786.823 899.09375 787.125 C 891.92975 790.05 884.84935 793.207 877.90625 796.625 C 869.28255 800.547 860.53375 804.208 851.46875 807 C 839.64835 810.854 827.90455 814.9665 815.71875 817.5625 C 792.31555 823.0805 768.7956 827.91525 745.125 832.15625 C 712.6054 837.78825 679.81615 842.895 646.71875 842.875 C 620.95565 842.353 595.0525 840.01075 571.1875 829.46875 C 556.1748 822.13575 541.3148 813.85675 530.5625 800.71875 C 527.83864 796.87495 525.39027 792.88539 523.1875 788.78125 C 543.73535 775.18511 563.86724 760.93917 584.4375 747.375 C 616.794 725.757 649.24855 704.223 680.03125 680.375 C 703.65285 662.13 726.7815 643.25975 750.75 625.46875 C 765.6159 614.00975 711.58465 543.916 696.71875 555.375 C 673.33615 574.081 650.14675 593.05675 626.53125 611.46875 C 597.49625 634.14075 566.7327 654.397 536.0625 674.75 C 526.60894 680.89328 517.26152 687.1988 507.90625 693.5 C 512.65651 670.42936 519.21101 647.74998 527.5 625.6875 C 531.99698 613.16007 491.42541 594.5316 465.1875 591.03125 C 491.62599 565.52959 518.65751 540.65984 546.21875 516.375 C 575.66244 515.74609 605.11157 515.52567 634.5625 515.3125 C 680.5772 514.9775 726.51365 512.08325 772.34375 508.15625 C 804.57455 504.73325 836.68265 500.15375 869.15625 500.59375 C 885.98315 500.97175 902.5962 503.92 919.375 504.875 C 923.9654 505.082 928.56765 505.00175 933.15625 504.84375 C 951.98325 503.82975 947.2021 415.0495 928.375 416.0625 C 926.6068 416.2055 924.844 416.425 923.0625 416.375 C 905.174 416.283 887.3907 412.19225 869.4375 412.90625 C 834.3214 413.06825 799.54225 417.1765 764.71875 421.4375 C 726.00464 424.93312 687.21017 427.64991 648.34375 428.5625 C 675.4505 405.32697 702.54934 382.05155 729.4375 358.5625 C 754.5775 336.7205 779.34325 314.0325 807.21875 295.6875 C 823.41735 286.2255 778.8236 209.8515 762.625 219.3125 C 743.07223 232.45338 724.80882 247.35945 707 262.78125 C 700.50321 259.65033 693.47429 257.73074 685.28125 257.75 C 667.93645 257.251 650.5876 256.621 633.25 257.75 C 601.33237 259.49229 569.37479 260.98625 537.5 263.40625 C 542.75571 238.12288 547.65724 212.43126 557.625 188.5 C 564.06177 174.33906 509.88336 146.78216 486.65625 147.4375 z M 230.28125 718.875 C 230.36196 718.74675 230.47248 718.62137 230.5625 718.5 C 228.55967 720.65673 228.21432 721.00353 230.28125 718.875 z M 230.5625 718.5 C 230.94322 718.09002 230.91246 718.1299 231.4375 717.5625 C 231.10858 717.84726 230.81578 718.15852 230.5625 718.5 z M 612.15625 346.375 C 584.75309 370.21279 557.21773 393.89701 529.71875 417.625 C 525.39805 421.28744 521.07892 424.93699 516.78125 428.625 C 517.34753 412.76531 518.27091 396.92614 519.8125 381.125 C 520.81895 371.31258 521.94241 361.50579 523.15625 351.71875 C 525.5837 351.52543 528.01003 351.31814 530.4375 351.125 C 557.6414 348.87492 584.88539 347.52255 612.15625 346.375 z "
     id="path9394" />
</svg>
