<?xml version="1.0" encoding="UTF-8" standalone="no"?>
<svg
   xmlns:dc="http://purl.org/dc/elements/1.1/"
   xmlns:cc="http://creativecommons.org/ns#"
   xmlns:rdf="http://www.w3.org/1999/02/22-rdf-syntax-ns#"
   xmlns:svg="http://www.w3.org/2000/svg"
   xmlns="http://www.w3.org/2000/svg"
   xmlns:sodipodi="http://sodipodi.sourceforge.net/DTD/sodipodi-0.dtd"
   xmlns:inkscape="http://www.inkscape.org/namespaces/inkscape"
   width="1024"
   height="1024"
   id="U80DC"
   version="1.1"
   inkscape:version="0.48.0 r9654"
   sodipodi:docname="U+80DC.svg">
  <metadata
     id="metadata16">
    <rdf:RDF>
      <cc:Work
         rdf:about="">
        <dc:format>image/svg+xml</dc:format>
        <dc:type
           rdf:resource="http://purl.org/dc/dcmitype/StillImage" />
      </cc:Work>
    </rdf:RDF>
  </metadata>
  <defs
     id="defs14" />
  <sodipodi:namedview
     pagecolor="#ffffff"
     bordercolor="#666666"
     borderopacity="1"
     objecttolerance="10"
     gridtolerance="10"
     guidetolerance="10"
     inkscape:pageopacity="0"
     inkscape:pageshadow="2"
     inkscape:window-width="640"
     inkscape:window-height="480"
     id="namedview12"
     showgrid="false"
     inkscape:zoom="0.27441406"
     inkscape:cx="512"
     inkscape:cy="512"
     inkscape:window-x="0"
     inkscape:window-y="25"
     inkscape:window-maximized="0"
     inkscape:current-layer="U80DC" />
  <path
     style="fill:#a02c2c;fill-opacity:1;fill-rule:nonzero;stroke:#f9f9f9;stroke-width:0.1;stroke-miterlimit:4;stroke-dasharray:none"
     d="M 795.34375 163.65625 C 779.68365 163.57823 766.8265 166.47538 766 173.46875 C 762.5333 215.99575 762.6366 258.71075 762.75 301.34375 C 762.95969 314.55441 763.11006 327.75836 763.25 340.96875 C 743.57059 344.24043 724.02905 348.34276 704.75 353.6875 C 701.07184 354.8208 697.40941 355.99649 693.75 357.1875 C 699.20189 340.02942 705.15229 323.02877 712.09375 306.40625 C 719.06935 288.96725 636.88185 256.09225 629.90625 273.53125 C 616.13565 310.82125 605.2883 349.07225 594.875 387.40625 C 583.2269 431.35425 573.3404 475.75875 563.875 520.21875 C 560.1402 538.21475 644.98395 555.8095 648.71875 537.8125 C 653.59974 513.6456 658.70893 489.51593 664.28125 465.5 C 684.0594 451.66131 707.20972 443.71503 730.25 436.65625 C 741.28224 433.60809 752.42541 431.06105 763.625 428.875 C 763.56976 461.56185 763.31475 494.25047 762.78125 526.9375 C 762.71793 531.38625 762.64461 535.83314 762.5625 540.28125 C 729.85053 546.82844 698.38714 557.78925 672.625 580.46875 C 659.3582 593.73575 721.88945 656.267 735.15625 643 C 742.54588 637.31543 750.7827 633.32498 759.4375 630.375 C 758.22369 653.92765 756.70342 677.4571 754.75 700.96875 C 753.377 719.18375 839.2521 725.6535 840.625 707.4375 C 842.57428 678.81423 844.03486 650.19213 845.15625 621.53125 C 851.65345 621.94063 858.14643 622.46123 864.625 623.0625 C 883.1087 624.6155 890.4212 537.4905 871.9375 535.9375 C 863.81061 535.31164 855.67543 534.7693 847.53125 534.375 C 847.56294 532.37505 847.59606 530.37503 847.625 528.375 C 848.25836 491.6322 848.63173 454.86908 848.8125 418.125 C 851.53028 417.91481 854.25106 417.69576 856.96875 417.5 C 876.57375 416.356 896.1942 416.03275 915.8125 415.21875 C 934.4428 414.21875 929.72405 326.375 911.09375 327.375 C 890.82855 328.743 870.5113 329.32425 850.25 330.78125 C 849.80041 330.81804 849.35584 330.86917 848.90625 330.90625 C 848.87756 321.13364 848.83208 311.36661 848.78125 301.59375 C 849.11875 262.33375 849.16285 222.907 853.90625 183.875 C 855.28375 172.21938 821.44392 163.78629 795.34375 163.65625 z M 417.625 165.1875 C 375.537 166.5185 344.49445 179.19275 309.09375 201.59375 C 299.03671 208.32645 289.14705 215.39169 279.8125 223 C 257.37485 209.63957 210.13665 199.72371 206.28125 213.03125 C 194.16285 259.54025 189.40075 307.4785 184.84375 355.1875 C 178.20735 438.7105 174.2787 522.4225 169.4375 606.0625 C 165.9199 666.5585 161.8043 727.01425 156.8125 787.40625 L 155.8125 799.65625 C 154.8189 818.27425 242.60015 822.96175 243.59375 804.34375 C 243.68065 800.61675 243.75675 796.88325 243.84375 793.15625 C 246.85085 732.36825 250.84695 671.654 254.03125 610.875 C 256.41477 567.95374 258.603 525.0068 261.21875 482.09375 C 262.65598 506.81308 287.57961 556.08106 301.15625 550.15625 C 325.84675 539.76525 352.3802 535.7255 378.9375 534.1875 C 397.4175 532.9575 391.605 445.8315 373.125 447.0625 C 336.5047 449.7275 300.147 455.6895 265.75 469.0625 C 263.66451 469.9726 262.35326 471.96583 261.6875 474.75 C 263.98567 437.74247 266.62708 400.74199 269.96875 363.8125 C 271.84753 346.36381 273.70587 328.84689 276.09375 311.40625 C 294.28661 317.90557 312.04212 320.2588 315.21875 312.59375 C 324.91785 295.79875 341.5984 284.79825 357.4375 274.40625 C 374.8298 265.72225 396.0483 248.84825 416.875 253.03125 C 417.0085 253.52625 417.63105 254.124 417.28125 254.5 C 416.26485 255.591 413.30965 254.73475 413.15625 256.21875 C 412.92845 258.41975 420.7525 287.62425 420.8125 287.90625 C 430.3078 351.61025 431.7586 416.231 434.25 480.5 C 437.3128 558.633 438.6993 636.816 439.4375 715 C 438.9949 765.2 441.7042 815.6185 437.0625 865.6875 L 435.3125 874.65625 C 432.57855 892.43952 513.46975 905.50695 521.53125 889.78125 C 532.48927 890.221 549.92236 888.92251 555.25 888.5 C 582.8972 886.308 610.3953 882.524 637.875 878.875 C 707.7161 868.785 777.4246 857.9195 847.4375 849.0625 C 897.8448 842.5415 948.5899 840.015 999.375 841.125 C 1011.2743 841.448 1023.1623 842.123 1035.0312 843 C 1053.6927 844.049 1058.6301 756.07925 1039.9688 755.03125 C 1026.7856 754.49125 1013.6019 754.05875 1000.4062 753.96875 C 945.61685 753.82175 890.9026 757.011 836.5625 764.25 C 766.6247 773.34 696.92445 784.217 627.03125 793.625 C 601.61015 796.695 576.22265 799.77 550.65625 801.375 C 550.05406 801.41287 549.44624 801.43673 548.84375 801.46875 C 541.23357 792.57405 532.80443 784.74136 525.625 780.53125 C 525.32201 758.34077 524.83399 736.14795 524.71875 713.96875 C 523.55915 635.08375 522.0672 556.19075 519.25 477.34375 C 516.8015 408.00375 515.6788 338.29325 505.6875 269.53125 C 494.1008 216.49125 478.0823 173.3165 417.625 165.1875 z M 344.4375 589.46875 C 324.55763 589.44719 304.685 590.01063 284.84375 591.53125 C 266.16675 593.29625 274.47925 681.3265 293.15625 679.5625 C 321.22485 676.2625 349.52215 676.548 377.71875 677.375 C 399.12255 678.129 388.48775 677.74975 409.59375 678.46875 C 428.14285 679.05375 430.9241 591.61525 412.375 591.03125 C 391.3116 590.42225 402.01705 590.73725 380.21875 590.03125 C 368.29311 589.69938 356.36542 589.48169 344.4375 589.46875 z M 553.25 859.5 C 551.83808 861.82715 549.10729 863.74062 547.5 866 C 547.76613 865.55402 548.65941 864.15838 549.125 863.65625 C 550.45434 862.22236 551.82669 860.84141 553.25 859.5 z "
     id="path12131" />
</svg>
