<?xml version="1.0" encoding="utf-8" ?>

<!DOCTYPE svg PUBLIC "-//W3C//DTD SVG 1.1//EN" 
  "http://www.w3.org/Graphics/SVG/1.1/DTD/svg11.dtd">
<svg 
    xmlns="http://www.w3.org/2000/svg"
    xmlns:xlink="http://www.w3.org/1999/xlink"
    xmlns:sodipodi="http://sodipodi.sourceforge.net/DTD/sodipodi-0.dtd"
    xmlns:inkscape="http://www.inkscape.org/namespaces/inkscape"
    width="1024" height="1024" id="U8138">
<path d="m 10462.007,29985.578 c -5.429,42.167 -7.574,84.696 -10.679,127.081 -5.487,69.367 -11.872,138.654 -16.229,208.105 -4.027,59.438 -2.496,118.968 3.173,178.216 2.491,25.103 6.5,50.008 10.795,74.852 2.976,18.328 -83.423,32.356 -86.399,14.028 l 0,0 c -4.112,-26.958 -8.053,-53.955 -10.511,-81.125 -5.408,-63.665 -6.798,-127.576 -2.389,-191.378 4.451,-69.586 10.819,-139.022 15.732,-208.576 2.821,-44.303 4.797,-88.676 8.878,-132.887 2.478,-18.589 90.107,-6.905 87.629,11.684 z" id="path9776" inkscape:connector-curvature="0" style="fill:#2b0000;fill-opacity:1;fill-rule:nonzero;stroke:#f9f9f9;stroke-width:0.1;stroke-miterlimit:4;stroke-dasharray:none" transform="translate(-10240, -29696)"/><path d="m 10441.539,29929.443 c 27.849,-3.383 55.838,-5.111 83.848,-6.42 29.118,-1.521 58.24,-1.995 87.309,0.436 20.892,1.72 40.253,7.263 58.122,18.154 23.222,16.948 30.009,42.689 33.845,69.702 3.689,41.437 3.47,83.124 3.623,124.692 0.413,58.191 -1.112,116.349 -4.311,174.447 -3.557,51.752 -8.321,103.409 -12.107,155.144 -2.56,35.794 -4.06,71.648 -5.34,107.506 -0.323,12.141 -0.754,24.272 -1.727,36.378 -1.843,18.696 -89.975,10.009 -88.133,-8.687 l 0,0 c 1.346,-10.435 1.69,-20.958 2.254,-31.457 1.85,-36.781 3.599,-73.571 6.432,-110.293 4.002,-51.144 8.964,-102.208 12.581,-153.382 3.17,-56.279 4.67,-112.624 3.879,-168.998 -0.441,-37.713 -0.638,-75.532 -4.303,-113.1 -1.558,-11.298 -5.455,-15.112 4.234,-8.153 6.18,1.623 -15.973,-5.967 -17.12,-4.304 -24.97,-2.595 -50.051,-1.861 -75.097,-0.681 -25.881,1.244 -51.804,2.721 -77.407,6.928 -18.649,2.245 -29.231,-85.667 -10.582,-87.912 z" id="path9778" inkscape:connector-curvature="0" style="fill:#2b0000;fill-opacity:1;fill-rule:nonzero;stroke:#f9f9f9;stroke-width:0.1;stroke-miterlimit:4;stroke-dasharray:none" transform="translate(-10240, -29696)"/><path d="m 10428.369,30150.725 c 33.965,-3.437 68.026,-5.598 102.121,-7.187 39.007,-1.919 78.035,-0.689 116.723,4.58 20.008,2.094 36.307,9.507 52.657,20.675 14.37,12.113 -42.733,79.851 -57.102,67.738 l 0,0 c 16.333,7.951 -4.797,-3.219 -8.261,-1.637 -33.005,-5.291 -66.457,-6.034 -99.821,-4.478 -32.087,1.607 -64.197,3.648 -96.019,8.238 -18.653,2.185 -28.951,-85.745 -10.298,-87.929 z" id="path9780" inkscape:connector-curvature="0" style="fill:#2b0000;fill-opacity:1;fill-rule:nonzero;stroke:#f9f9f9;stroke-width:0.1;stroke-miterlimit:4;stroke-dasharray:none" transform="translate(-10240, -29696)"/><path d="m 10438.051,30340.535 c 35.211,-0.834 70.401,-2.246 105.622,-2.688 33.032,-0.811 65.898,1.793 98.183,8.743 13.557,3.554 7.029,1.661 19.6,5.621 17.799,5.877 -9.905,89.782 -27.704,83.905 l 0,0 c -6.951,-2.496 -3.178,-1.245 -11.352,-3.66 -25.441,-6.19 -51.538,-7.964 -77.698,-7.497 -34.105,0.376 -68.2,1.632 -102.237,3.849 -18.726,0.936 -23.14,-87.337 -4.414,-88.273 z" id="path9782" inkscape:connector-curvature="0" style="fill:#2b0000;fill-opacity:1;fill-rule:nonzero;stroke:#f9f9f9;stroke-width:0.1;stroke-miterlimit:4;stroke-dasharray:none" transform="translate(-10240, -29696)"/><path d="m 11009.557,29921.957 c -22.937,25.001 -44.37,51.332 -66.137,77.345 -31.291,36.737 -59.974,75.542 -88.037,114.764 -19.983,27.687 -38.777,56.194 -56.382,85.444 -0.656,-0.301 -16.402,29.571 -12.075,22.197 -5.897,17.879 -90.177,-9.917 -84.281,-27.795 l 0,0 c 5.558,-14.323 13.266,-27.467 21.543,-40.402 19.245,-30.7 39.426,-60.797 60.776,-90.08 29.418,-40.716 59.408,-81.036 91.716,-119.53 22.08,-26.815 43.912,-53.838 66.341,-80.364 12.394,-14.115 78.929,44.307 66.536,58.421 z" id="path9784" inkscape:connector-curvature="0" style="fill:#2b0000;fill-opacity:1;fill-rule:nonzero;stroke:#f9f9f9;stroke-width:0.1;stroke-miterlimit:4;stroke-dasharray:none" transform="translate(-10240, -29696)"/><path d="m 11038.367,29916.366 c 10.757,24.858 24.697,48.172 38.892,71.181 18.726,29.464 39.238,57.737 59.332,86.271 15.041,21.002 29.908,42.119 44.348,63.538 3.521,5.377 7.23,10.625 10.947,15.866 10.592,15.527 -62.602,65.461 -73.195,49.934 l 0,0 c -3.731,-5.674 -7.499,-11.325 -11.153,-17.05 -13.74,-21.013 -28.085,-41.61 -42.529,-62.145 -20.893,-29.986 -42.332,-59.618 -61.992,-90.44 -16.605,-26.726 -32.628,-53.87 -45.985,-82.396 -7.373,-17.254 73.962,-52.013 81.335,-34.759 z" id="path9786" inkscape:connector-curvature="0" style="fill:#2b0000;fill-opacity:1;fill-rule:nonzero;stroke:#f9f9f9;stroke-width:0.1;stroke-miterlimit:4;stroke-dasharray:none" transform="translate(-10240, -29696)"/><path d="m 10761.537,30168.365 c 34.737,-6.371 70.015,-8.354 105.25,-9.352 44.925,-0.825 89.851,1.107 134.631,4.58 33.403,2.897 66.625,7.5 99.913,11.44 11.794,1.403 23.593,2.744 35.335,4.536 18.516,3.157 3.633,90.441 -14.883,87.284 l 0,0 c -10.362,-2.064 -20.874,-3.218 -31.33,-4.702 -31.955,-4.19 -63.867,-8.835 -95.964,-11.826 -41.595,-3.43 -83.347,-5.289 -125.091,-4.372 -30.269,0.968 -60.705,2.554 -90.357,9.172 -18.404,3.713 -35.908,-83.047 -17.504,-86.76 z" id="path9788" inkscape:connector-curvature="0" style="fill:#2b0000;fill-opacity:1;fill-rule:nonzero;stroke:#f9f9f9;stroke-width:0.1;stroke-miterlimit:4;stroke-dasharray:none" transform="translate(-10240, -29696)"/><path d="m 10805.33,30324.6 c 15.2,25.073 27.672,51.642 42.016,77.195 7.844,12.338 15.545,25.625 27.844,34.046 14.485,11.823 -41.252,80.102 -55.736,68.279 l 0,0 c -19.713,-16.952 -35.983,-36.747 -48.56,-59.621 -13.02,-23.409 -24.541,-47.681 -38.838,-70.352 -10.51,-15.544 62.763,-65.091 73.274,-49.547 z" id="path9790" inkscape:connector-curvature="0" style="fill:#2b0000;fill-opacity:1;fill-rule:nonzero;stroke:#f9f9f9;stroke-width:0.1;stroke-miterlimit:4;stroke-dasharray:none" transform="translate(-10240, -29696)"/><path d="m 10971.095,30342.506 c 10.789,15.547 24.35,28.872 37.583,42.303 8.049,8.079 15.675,16.561 23.244,25.087 12.315,14.168 -54.477,72.223 -66.793,58.054 l 0,0 c -6.254,-7.376 -12.581,-14.699 -19.371,-21.593 -16.81,-17.302 -33.749,-34.603 -47.96,-54.171 -10.539,-15.549 62.758,-65.228 73.297,-49.68 z" id="path9792" inkscape:connector-curvature="0" style="fill:#2b0000;fill-opacity:1;fill-rule:nonzero;stroke:#f9f9f9;stroke-width:0.1;stroke-miterlimit:4;stroke-dasharray:none" transform="translate(-10240, -29696)"/><path d="m 11164.726,30365.543 c -16.139,26.458 -32.488,52.782 -49.244,78.854 -13.06,19.9 -25.96,39.902 -38.668,60.028 -1.395,2.07 -2.79,4.14 -4.185,6.21 -10.728,15.407 -83.355,-35.163 -72.627,-50.569 l 0,0 c 0.886,-1.207 1.773,-2.414 2.659,-3.621 13.119,-19.795 26.243,-39.586 39.34,-59.396 16.062,-24.858 31.805,-49.94 46.198,-75.811 9.398,-16.234 85.926,28.071 76.527,44.305 z" id="path9794" inkscape:connector-curvature="0" style="fill:#2b0000;fill-opacity:1;fill-rule:nonzero;stroke:#f9f9f9;stroke-width:0.1;stroke-miterlimit:4;stroke-dasharray:none" transform="translate(-10240, -29696)"/><path d="m 10686.494,30473.911 c 39.25,8.385 79.322,12.394 119.184,16.689 57.75,6.131 115.701,9.89 173.747,11.406 48.56,0.158 97.081,-0.473 145.575,2.416 31.546,1.478 62.318,7.318 91.84,18.427 11.517,4.914 5.999,2.39 16.577,7.521 16.746,8.475 -23.206,87.419 -39.952,78.943 l 0,0 c -5.113,-2.831 -2.214,-1.328 -8.763,-4.378 -20.776,-8.711 -42.921,-12.076 -65.332,-13.594 -47.392,-3.346 -94.855,-2.747 -142.338,-3.216 -60.229,-1.768 -120.362,-5.633 -180.317,-11.705 -43.314,-4.385 -86.721,-8.656 -129.616,-16.237 -18.301,-4.114 1.094,-90.386 19.395,-86.272 z" id="path9796" inkscape:connector-curvature="0" style="fill:#2b0000;fill-opacity:1;fill-rule:nonzero;stroke:#f9f9f9;stroke-width:0.1;stroke-miterlimit:4;stroke-dasharray:none" transform="translate(-10240, -29696)"/></svg>