<?xml version="1.0" encoding="UTF-8" standalone="no"?>
<svg
   xmlns:dc="http://purl.org/dc/elements/1.1/"
   xmlns:cc="http://creativecommons.org/ns#"
   xmlns:rdf="http://www.w3.org/1999/02/22-rdf-syntax-ns#"
   xmlns:svg="http://www.w3.org/2000/svg"
   xmlns="http://www.w3.org/2000/svg"
   xmlns:sodipodi="http://sodipodi.sourceforge.net/DTD/sodipodi-0.dtd"
   xmlns:inkscape="http://www.inkscape.org/namespaces/inkscape"
   width="1024"
   height="1024"
   id="U817F"
   version="1.1"
   inkscape:version="0.48.0 r9654"
   sodipodi:docname="U+817F.svg">
  <metadata
     id="metadata19">
    <rdf:RDF>
      <cc:Work
         rdf:about="">
        <dc:format>image/svg+xml</dc:format>
        <dc:type
           rdf:resource="http://purl.org/dc/dcmitype/StillImage" />
      </cc:Work>
    </rdf:RDF>
  </metadata>
  <defs
     id="defs17" />
  <sodipodi:namedview
     pagecolor="#ffffff"
     bordercolor="#666666"
     borderopacity="1"
     objecttolerance="10"
     gridtolerance="10"
     guidetolerance="10"
     inkscape:pageopacity="0"
     inkscape:pageshadow="2"
     inkscape:window-width="640"
     inkscape:window-height="480"
     id="namedview15"
     showgrid="false"
     inkscape:zoom="0.27441406"
     inkscape:cx="512"
     inkscape:cy="512"
     inkscape:window-x="0"
     inkscape:window-y="25"
     inkscape:window-maximized="0"
     inkscape:current-layer="U817F" />
  <path
     style="fill:#501616;fill-opacity:1;fill-rule:nonzero;stroke:#f9f9f9;stroke-width:0.1;stroke-miterlimit:4;stroke-dasharray:none"
     d="M 821.875 190.375 C 777.3088 190.316 732.98745 194.94125 689.09375 202.65625 C 652.66965 208.60025 616.2149 214.6175 580.1875 222.6875 C 561.9453 227.0115 582.35155 313.0115 600.59375 308.6875 C 602.58801 308.1566 604.56302 307.6331 606.5625 307.125 C 604.28381 344.52354 601.62449 381.89309 598.75 419.25 C 593.281 485.102 586.27625 550.829 581.65625 616.75 C 581.48545 653.301 574.5136 694.161 589.3125 729.125 C 592.1508 735.831 596.393 741.85775 599.9375 748.21875 C 606.1077 753.85575 611.2544 760.853 618.4375 765.125 C 655.212 786.997 694.12715 768.978 727.96875 751.75 C 745.36435 742.398 761.8912 731.588 778.375 720.75 C 783.03446 717.67324 781.88847 708.8815 777.625 698.40625 C 797.56725 710.08605 818.08267 720.87205 838.375 731.875 C 853.1107 739.624 867.1823 748.46675 881 757.71875 C 896.5391 767.86475 944.3516 694.61475 928.8125 684.46875 C 912.80663 674.22641 896.64671 664.26227 879.78125 655.46875 C 880.03296 655.36258 880.29254 655.23779 880.53125 655.09375 C 887.15815 651.07175 893.77935 647.05225 900.40625 643.03125 C 929.54895 623.22525 957.9666 602.3915 985.4375 580.3125 C 999.8167 568.2525 942.97285 500.47125 928.59375 512.53125 C 904.26565 533.82225 878.14735 552.94425 851.46875 571.15625 C 846.18495 574.32225 840.87765 577.49025 835.59375 580.65625 C 824.38026 587.42319 843.78019 626.89437 861.625 645.8125 C 831.33716 629.71388 801.10244 613.29039 774.4375 591.53125 C 756.3494 575.49325 737.70765 558.5755 731.03125 534.4375 C 728.40066 523.82729 698.1728 526.65346 674.28125 534.4375 C 674.36423 533.49933 674.44783 532.56314 674.53125 531.625 C 696.81874 528.33935 719.1796 525.40586 741.5625 522.84375 C 772.7437 519.20775 804.0957 518.3485 835.4375 517.3125 C 854.0079 516.4995 850.1954 428.96825 831.625 429.78125 C 798.2828 431.60525 764.8751 432.91975 731.6875 436.84375 C 715.34211 438.71741 699.02595 440.77977 682.71875 442.9375 C 683.10332 438.72253 683.46615 434.49691 683.84375 430.28125 C 708.93283 423.19713 734.5104 418.17584 760.28125 414.25 C 784.78725 410.809 809.48075 410.53575 833.84375 414.84375 C 839.1667 415.65793 844.0562 408.95185 847.875 398.96875 C 868.3278 414.68701 914.63844 429.88768 919.90625 417.0625 C 928.00795 396.6335 934.4915 375.7575 937.0625 353.8125 C 941.3365 315.4925 942.672 276.58675 924.3125 241.34375 C 920.0456 235.49475 916.44865 229.09525 911.53125 223.78125 C 888.36445 198.74825 854.4859 191.741 821.875 190.375 z M 267.53125 206.03125 C 256.49227 206.0567 245.41504 206.97325 234.84375 207.8125 C 204.65045 211.8895 174.7229 217.87525 146 228.28125 C 139.91399 230.71579 139.93607 242.32214 143.3125 256.09375 C 129.72807 251.84364 118.09184 251.06066 115.28125 257 C 96.59275 311.103 88.40175 368.26725 78.90625 424.53125 C 65.78235 504.26725 55.32785 584.3965 46.28125 664.6875 C 40.92255 716.7005 34.806 768.85275 36.0625 821.21875 C 36.8471 839.78475 124.37835 836.067 123.59375 817.5 C 121.09043 780.57113 124.5392 743.6172 128.03125 706.78125 C 156.55306 703.77716 185.16458 701.71233 213.78125 699.84375 C 235.75603 698.42724 257.69855 696.78147 279.65625 695.125 C 280.54176 739.7293 283.18305 784.26502 286.6875 828.75 C 287.0258 834.029 287.38045 839.31475 287.71875 844.59375 C 289.19375 863.07875 376.31875 856.14125 374.84375 837.65625 L 373.28125 821.03125 C 367.28775 761.24125 363.5602 701.254 364.375 641.125 C 365.0402 559.326 367.2308 477.55325 369.375 395.78125 C 369.9053 352.00025 375.53155 291.45575 353.96875 251.46875 C 350.00595 244.11975 344.1221 238.01625 339.1875 231.28125 C 332.9291 226.68425 327.16715 221.28775 320.40625 217.46875 C 304.29488 208.36625 285.92954 205.98883 267.53125 206.03125 z M 466.375 233 C 441.886 233.50191 391.1044 257.73672 396.8125 271.5625 C 404.0928 288.4795 412.62625 304.79125 421.28125 321.03125 C 429.98425 337.44425 507.35925 296.413 498.65625 280 C 491.39125 266.218 484.0883 252.4385 478.625 237.8125 C 477.17002 234.28828 472.61729 232.87206 466.375 233 z M 813.6875 277.5625 C 816.15846 277.56672 818.65232 277.58069 821.125 277.625 C 826.6701 278.832 853.127 277.66225 850.5625 289.15625 C 852.99208 303.11629 852.72428 317.11914 851.46875 331.09375 C 850.27524 329.47999 848.82878 328.45279 847.09375 328.1875 C 813.87465 323.5845 780.4531 323.1405 747.1875 328.1875 C 728.55401 331.02219 710.01741 334.37417 691.59375 338.25 C 693.02328 321.9837 694.53432 305.71119 696.21875 289.46875 C 698.57257 289.0736 700.92824 288.67687 703.28125 288.28125 C 739.78525 281.83969 776.62305 277.49917 813.6875 277.5625 z M 254.125 292.5625 C 267.13397 292.62761 290.78 297.7675 281.5625 297.8125 C 280.8278 297.8325 279.60905 297.19 279.34375 297.875 C 278.31595 300.531 282.7761 332.1175 282.9375 335.3125 C 284.0755 357.8405 283.7915 372.21825 283.8125 395.28125 C 283.74095 400.35494 283.64183 405.42647 283.5625 410.5 C 273.37911 409.64709 263.13163 409.45492 252.78125 410 C 223.93029 411.3532 195.28317 414.53411 166.59375 417.4375 C 173.17128 379.9244 180.01919 342.24769 191.53125 305.96875 C 209.30205 300.27936 227.7479 296.90588 246.25 294.5625 C 246.60843 293.08575 249.78868 292.5408 254.125 292.5625 z M 441.34375 431.65625 C 423.52896 431.42128 398.83578 510.69397 416.15625 516.21875 C 419.93551 517.58606 423.87388 518.81541 427.65625 520.34375 C 427.3823 521.01382 427.10132 521.65327 426.8125 522.09375 C 422.9787 527.94075 422.11185 528.95875 417.84375 534.84375 C 404.95725 550.63875 393.8127 568.4235 395.125 589.8125 C 395.4925 595.8025 397.77955 601.52 399.09375 607.375 C 403.12245 622.452 417.374 631.531 423.3125 645.375 C 426.8593 656.358 427.50185 667.83425 427.71875 679.28125 C 427.68275 703.91225 420.2754 727.3935 412.375 750.4375 C 404.9928 771.6135 395.6971 791.96525 385.75 812.03125 C 372.1616 837.66925 374.9011 866.7365 396.5625 887.4375 C 401.145 891.8165 407.0195 894.6075 412.25 898.1875 C 450.0814 915.5225 492.55975 915.8495 533.40625 917.4375 C 585.87845 918.2515 638.23525 921.736 690.59375 925 C 746.30035 928.442 802.11475 928.67475 857.90625 928.84375 C 896.07275 929.17675 934.24535 928.29875 972.40625 927.84375 L 983.5 927.75 C 1002.1527 927.393 1000.4965 839.48675 981.84375 839.84375 C 978.08895 839.95575 974.3173 840.04425 970.5625 840.15625 C 933.0263 841.27225 895.4962 842.49625 857.9375 842.40625 C 803.947 842.54625 749.9045 842.3845 696 838.9375 C 643.063 835.5685 590.13845 831.98725 537.09375 830.78125 C 516.82861 829.83338 496.41147 829.07205 476.34375 825.96875 C 483.19666 810.42039 489.60231 794.67676 495.15625 778.59375 C 506.24255 745.81375 515.8011 712.318 515.625 677.375 C 515.0426 652.425 512.55525 627.495 501.71875 604.625 C 498.05046 597.8704 494.24932 591.55812 489.9375 585.40625 C 510.14678 556.66848 526.38458 526.94719 515.6875 490.65625 C 512.3841 484.38325 509.84235 477.65475 505.78125 471.84375 C 490.99955 450.69175 466.2735 440.5645 443.0625 431.9375 C 442.50378 431.75931 441.91842 431.66383 441.34375 431.65625 z M 260.09375 496.6875 C 267.45646 496.56996 274.73499 496.94185 281.96875 497.78125 C 281.2352 534.43846 280.48063 571.1201 279.9375 607.78125 C 256.0562 609.68281 232.16181 611.61121 208.25 613.09375 C 184.5774 614.56003 160.92966 616.24467 137.28125 618.03125 C 141.64919 581.08187 146.48721 544.17906 151.9375 507.375 C 186.77355 503.0768 221.48456 498.20857 256.59375 496.78125 C 257.75454 496.74 258.93576 496.70599 260.09375 496.6875 z M 432.0625 522.34375 C 433.8032 523.22825 435.47548 524.21835 437.0625 525.375 C 442.2211 529.135 436.4455 526.6635 434.3125 524.6875 C 432.9122 524.29408 432.32401 523.40436 432.0625 522.34375 z M 668.6875 604.5 C 682.02808 623.62268 698.80422 640.44294 716.46875 656.34375 C 716.62222 656.47246 716.78382 656.59036 716.9375 656.71875 C 707.57984 662.78075 698.10456 668.66692 688.28125 673.96875 C 687.17187 674.5363 675.34545 679.65738 667.875 683.34375 C 666.95299 672.68828 666.48685 659.17758 666.65625 647.6875 C 666.78065 639.2505 667.24525 630.808 667.53125 622.375 C 667.89641 616.4146 668.2782 610.4566 668.6875 604.5 z M 668.96875 692.75 C 672.00581 695.12052 674.59018 697.72881 673.375 699.65625 C 671.63916 704.53325 670.13263 700.70146 668.96875 692.75 z M 464.90625 851.0625 C 464.55923 852.31192 464.13609 853.54671 463.78125 854.78125 C 463.68945 855.10125 462.959 855.78475 463.0625 855.46875 C 463.5571 853.96116 464.25288 852.51003 464.90625 851.0625 z "
     id="path12506" />
</svg>
