<?xml version="1.0" encoding="UTF-8" standalone="no"?>
<svg
   xmlns:dc="http://purl.org/dc/elements/1.1/"
   xmlns:cc="http://creativecommons.org/ns#"
   xmlns:rdf="http://www.w3.org/1999/02/22-rdf-syntax-ns#"
   xmlns:svg="http://www.w3.org/2000/svg"
   xmlns="http://www.w3.org/2000/svg"
   xmlns:sodipodi="http://sodipodi.sourceforge.net/DTD/sodipodi-0.dtd"
   xmlns:inkscape="http://www.inkscape.org/namespaces/inkscape"
   width="1024"
   height="1024"
   id="U81EA"
   version="1.1"
   inkscape:version="0.48.0 r9654"
   sodipodi:docname="U+81EA.svg">
  <metadata
     id="metadata13">
    <rdf:RDF>
      <cc:Work
         rdf:about="">
        <dc:format>image/svg+xml</dc:format>
        <dc:type
           rdf:resource="http://purl.org/dc/dcmitype/StillImage" />
      </cc:Work>
    </rdf:RDF>
  </metadata>
  <defs
     id="defs11" />
  <sodipodi:namedview
     pagecolor="#ffffff"
     bordercolor="#666666"
     borderopacity="1"
     objecttolerance="10"
     gridtolerance="10"
     guidetolerance="10"
     inkscape:pageopacity="0"
     inkscape:pageshadow="2"
     inkscape:window-width="640"
     inkscape:window-height="480"
     id="namedview9"
     showgrid="false"
     inkscape:zoom="0.27441406"
     inkscape:cx="512"
     inkscape:cy="512"
     inkscape:window-x="0"
     inkscape:window-y="25"
     inkscape:window-maximized="0"
     inkscape:current-layer="U81EA" />
  <path
     style="fill:#2b1100;fill-opacity:1;fill-rule:nonzero;stroke:none"
     d="M 456.6875 135.71875 C 453.12979 135.77564 450.46707 136.80631 449.09375 139.0625 C 432.70605 167.5085 416.4194 196.002 400.125 224.5 C 388.5212 244.68 376.88295 264.85025 365.28125 285.03125 C 356.10755 300.95525 431.17005 344.20525 440.34375 328.28125 C 451.97455 308.13425 463.6213 287.98225 475.375 267.90625 C 491.5338 240.13325 507.51065 212.23575 524.71875 185.09375 C 533.11132 171.30594 478.42908 135.37112 456.6875 135.71875 z M 559 338.0625 C 519.9241 338.17158 481.05719 342.28044 443.875 355.6875 C 407.8576 370.1155 373.211 388.08875 347.1875 417.71875 C 343.68577 422.03179 347.26304 429.95344 354.3125 438.59375 C 327.85957 436.89893 285.24167 446.79405 287.0625 459.84375 C 293.6894 502.64875 298.37305 545.7195 302.65625 588.8125 C 307.96605 648.1075 311.6451 707.5485 317.3125 766.8125 C 320.1775 795.8935 324.11855 824.88725 331.09375 853.28125 C 331.95022 856.49888 335.38148 858.39267 340.375 859.28125 C 343.51356 876.64781 349.51873 891.05956 357.1875 890.28125 C 400.839 883.01125 443.87845 872.632 487.21875 863.75 C 527.61495 855.839 568.6785 849.1895 609.875 853.3125 C 615.7387 854.5875 622.0122 855.27775 626.375 859.71875 C 628.53057 860.89212 631.14845 860.57896 634 859.125 C 657.43127 870.2636 690.37219 877.28156 694.25 866.40625 C 695.3298 862.44325 696.4201 858.463 697.5 854.5 C 700.9482 827.545 701.9032 800.31225 705.875 773.40625 C 712.8113 718.11625 721.42655 663.066 729.09375 607.875 C 735.12955 561.764 741.6954 515.5085 742.375 468.9375 C 740.3553 430.0355 730.8563 394.70075 697.625 370.71875 C 663.6262 349.60575 626.1049 339.9215 586.0625 338.5625 C 577.04232 338.22575 568.01751 338.03733 559 338.0625 z M 555.4375 424.84375 C 564.42261 424.79845 573.4252 425.037 582.40625 425.46875 C 605.46955 427.56375 630.38545 429.477 649.34375 444.125 C 655.78185 451.724 654.5748 463.3155 654.8125 472.6875 C 654.047 514.3125 648.6096 555.70375 643.5 596.96875 C 636.2371 652.11175 627.5176 707.04825 620 762.15625 C 619.73201 763.56977 619.4904 764.98816 619.25 766.40625 C 618.41013 766.32847 617.56837 766.27423 616.71875 766.21875 C 567.35615 763.03475 518.4134 769.01625 470.0625 779.15625 C 449.33614 783.33001 428.64988 787.85281 407.90625 792.03125 C 406.16499 780.75119 404.79789 769.37546 403.34375 758.09375 C 397.45912 702.92013 393.67498 647.57836 389.1875 592.28125 C 397.615 605.07483 406.92675 613.91166 413.125 610.8125 C 437.2185 600.7635 463.2224 596.1235 488.6875 590.9375 C 518.8946 585.6645 549.19425 578.5495 580.03125 579.5625 C 585.52165 580.7215 586.4994 579.537 584.25 581.375 C 602.0017 587.335 630.09555 503.6465 612.34375 497.6875 C 591.15385 491.9355 601.7303 493.85925 580.625 491.78125 C 543.7822 492.09425 507.56255 498.456 471.46875 505.5 C 441.72385 511.41987 411.61116 517.07606 383.15625 527.78125 C 380.83948 504.86624 378.39443 481.95765 375.875 459.0625 C 392.24769 471.64728 410.27056 480.26344 415.8125 473.4375 C 431.7789 455.4035 453.88575 445.2285 475.90625 436.6875 C 501.67955 427.797 528.48216 424.97964 555.4375 424.84375 z M 566.40625 640.34375 C 545.53775 640.26175 524.9159 642.23775 504.4375 646.46875 C 471.9744 652.54875 439.69275 659.56825 407.28125 665.90625 C 388.90605 669.60825 406.34365 756.23225 424.71875 752.53125 C 456.39115 744.95425 488.24345 738.1485 520.28125 732.3125 C 534.81975 729.8865 549.4181 727.279 564.1875 728.375 C 582.8591 728.843 585.07775 640.81275 566.40625 640.34375 z "
     id="path15705" />
</svg>
