<?xml version="1.0" encoding="UTF-8" standalone="no"?>
<svg
   xmlns:dc="http://purl.org/dc/elements/1.1/"
   xmlns:cc="http://creativecommons.org/ns#"
   xmlns:rdf="http://www.w3.org/1999/02/22-rdf-syntax-ns#"
   xmlns:svg="http://www.w3.org/2000/svg"
   xmlns="http://www.w3.org/2000/svg"
   xmlns:sodipodi="http://sodipodi.sourceforge.net/DTD/sodipodi-0.dtd"
   xmlns:inkscape="http://www.inkscape.org/namespaces/inkscape"
   width="1024"
   height="1024"
   id="U82F9"
   version="1.1"
   inkscape:version="0.48.0 r9654"
   sodipodi:docname="U+82F9.svg">
  <metadata
     id="metadata15">
    <rdf:RDF>
      <cc:Work
         rdf:about="">
        <dc:format>image/svg+xml</dc:format>
        <dc:type
           rdf:resource="http://purl.org/dc/dcmitype/StillImage" />
      </cc:Work>
    </rdf:RDF>
  </metadata>
  <defs
     id="defs13" />
  <sodipodi:namedview
     pagecolor="#ffffff"
     bordercolor="#666666"
     borderopacity="1"
     objecttolerance="10"
     gridtolerance="10"
     guidetolerance="10"
     inkscape:pageopacity="0"
     inkscape:pageshadow="2"
     inkscape:window-width="640"
     inkscape:window-height="480"
     id="namedview11"
     showgrid="false"
     inkscape:zoom="0.27441406"
     inkscape:cx="512"
     inkscape:cy="512"
     inkscape:window-x="0"
     inkscape:window-y="25"
     inkscape:window-maximized="0"
     inkscape:current-layer="U82F9" />
  <path
     style="fill:#c83737;fill-opacity:1;fill-rule:nonzero;stroke:#f9f9f9;stroke-width:0.1;stroke-miterlimit:4;stroke-dasharray:none"
     d="M 387.5625 176.53125 C 375.49808 176.47281 366.28148 178.80906 365.1875 184.5625 C 360.04065 226.09093 361.94895 268.07553 364.25 309.75 C 356.67228 310.0733 349.11374 310.36021 341.53125 310.59375 C 303.53479 310.99975 265.55719 309.7625 227.5625 310.3125 C 208.82275 311.1985 212.979 399.54225 231.71875 398.65625 C 268.7497 396.84725 305.84179 397.789 342.90625 397 C 353.64751 396.57268 364.39337 396.04926 375.125 395.46875 C 377.04291 402.84465 379.27811 410.14945 381.90625 417.40625 C 388.186 433.18273 456.56902 407.59341 463.3125 389.84375 C 488.39685 388.16653 513.47602 386.55656 538.59375 385.375 C 539.17708 385.34979 539.76041 385.33668 540.34375 385.3125 C 539.8488 389.30256 539.3665 393.29388 538.84375 397.28125 C 536.80749 412.28725 533.55406 427.03375 529.9375 441.71875 C 529.32721 444.31392 530.55265 446.97372 533.125 449.53125 C 478.62407 458.22566 424.52932 469.19008 370.84375 482.15625 C 323.92449 493.41325 276.11158 504.06325 232.53125 525.40625 C 216.36504 534.87825 261.02128 611.06575 277.1875 601.59375 C 281.5738 599.44631 286.01186 597.43106 290.5 595.53125 C 289.58943 598.51499 289.70308 601.06331 291.1875 602.96875 C 314.14177 629.50175 342.92144 649.83375 372.125 668.84375 C 397.77724 683.46775 384.65391 676.5205 411.4375 689.6875 C 414.89233 691.37372 419.30075 689.29127 423.9375 684.90625 C 424.87181 700.9881 425.77845 717.07479 426.71875 733.15625 C 403.54196 735.82404 380.37913 738.56358 357.21875 741.375 C 312.71656 746.558 268.19481 752.248 223.46875 755.125 C 204.78429 756.496 211.25303 844.5575 229.9375 843.1875 C 275.88501 838.3735 321.69701 832.4555 367.53125 826.6875 C 388.89071 823.91233 410.26875 821.28542 431.65625 818.75 C 432.34751 830.97103 433.04969 843.18389 433.71875 855.40625 C 436.38496 898.75125 434.63258 942.59375 446.34375 984.71875 C 448.48957 989.57575 450.63543 994.42425 452.78125 999.28125 C 461.0596 1016.0543 540.15336 977.023 531.875 960.25 L 530.34375 958.71875 C 517.14335 925.82175 525.25162 884.7 519.3125 850.375 C 518.45213 836.66683 517.59841 822.95923 516.75 809.25 C 533.58925 807.50034 550.42708 805.82745 567.28125 804.21875 C 616.5903 799.66175 666.00527 796.078 715.46875 793.75 C 736.13042 794.747 757.7131 789.84125 778.28125 793.28125 C 797.01078 794.71325 803.76078 706.432 785.03125 705 C 760.29055 703.804 735.52665 705.76425 710.8125 706.78125 C 662.06916 709.68977 613.38174 713.57722 564.78125 718.3125 C 583.5481 701.87482 601.46973 684.48527 618.375 666.0625 C 640.27377 642.9325 661.69892 618.915 686.96875 599.375 C 702.16393 588.377 650.32018 516.752 635.125 527.75 C 605.94872 551.255 580.76847 579.18725 555.15625 606.40625 C 540.25201 622.68266 524.49496 638.0908 507.875 652.53125 C 507.66864 648.29337 507.44895 644.05074 507.25 639.8125 C 506.00236 606.92316 504.24074 573.93993 504.46875 541 C 533.3217 535.70091 562.30963 531.1663 591.4375 527.4375 C 636.89309 522.0475 682.70776 521.22475 728.21875 525.96875 C 730.10651 527.70075 746.68244 526.516 748.21875 530.875 C 765.52535 538.01 799.1816 456.41625 781.875 449.28125 C 766.94597 444.00225 752.19898 439.776 736.21875 439 C 697.56347 435.82698 658.78387 435.69429 620.15625 438.5625 C 622.15626 428.56246 623.92164 418.50662 625.21875 408.375 C 626.19559 400.63714 627.13924 392.90233 628.03125 385.15625 C 653.54259 385.99181 679.04671 387.47386 704.5 389.375 C 727.73197 392.115 751.70184 393.072 774.3125 399.625 C 792.54517 404.044 813.35767 318.07525 795.125 313.65625 C 767.26575 307.53825 738.78089 304.93075 710.375 302.84375 C 685.64847 301.31675 660.88995 300.0976 636.125 299.375 C 636.49307 294.36026 636.85657 289.33088 637.1875 284.3125 C 638.76786 254.0725 638.63204 223.85175 638.96875 193.59375 C 639.61572 174.83175 551.17821 171.8005 550.53125 190.5625 C 551.14781 220.3845 551.55636 250.1305 550.125 279.9375 C 549.72972 286.41949 549.31467 292.90049 548.84375 299.375 C 544.07208 299.53483 539.30227 299.68532 534.53125 299.90625 C 506.60066 301.25449 478.68558 303.09132 450.78125 304.875 C 448.82095 270.32754 447.0659 235.41199 451.96875 201.0625 C 454.37552 188.40494 414.10423 176.65982 387.5625 176.53125 z M 417.6875 559.28125 C 418.05381 571.32571 418.55301 583.36675 419.125 595.40625 C 406.11605 586.94615 393.08257 578.21312 381.15625 568.21875 C 384.52823 567.38842 387.92163 566.55689 391.28125 565.71875 C 400.07614 563.49882 408.86503 561.36991 417.6875 559.28125 z "
     id="path10545" />
</svg>
