<?xml version="1.0" encoding="UTF-8" standalone="no"?>
<svg
   xmlns:dc="http://purl.org/dc/elements/1.1/"
   xmlns:cc="http://creativecommons.org/ns#"
   xmlns:rdf="http://www.w3.org/1999/02/22-rdf-syntax-ns#"
   xmlns:svg="http://www.w3.org/2000/svg"
   xmlns="http://www.w3.org/2000/svg"
   xmlns:sodipodi="http://sodipodi.sourceforge.net/DTD/sodipodi-0.dtd"
   xmlns:inkscape="http://www.inkscape.org/namespaces/inkscape"
   width="1024"
   height="1024"
   id="U8212"
   version="1.1"
   inkscape:version="0.48.0 r9654"
   sodipodi:docname="U+8212.svg">
  <metadata
     id="metadata19">
    <rdf:RDF>
      <cc:Work
         rdf:about="">
        <dc:format>image/svg+xml</dc:format>
        <dc:type
           rdf:resource="http://purl.org/dc/dcmitype/StillImage" />
      </cc:Work>
    </rdf:RDF>
  </metadata>
  <defs
     id="defs17" />
  <sodipodi:namedview
     pagecolor="#ffffff"
     bordercolor="#666666"
     borderopacity="1"
     objecttolerance="10"
     gridtolerance="10"
     guidetolerance="10"
     inkscape:pageopacity="0"
     inkscape:pageshadow="2"
     inkscape:window-width="640"
     inkscape:window-height="480"
     id="namedview15"
     showgrid="false"
     inkscape:zoom="0.27441406"
     inkscape:cx="512"
     inkscape:cy="512"
     inkscape:window-x="0"
     inkscape:window-y="25"
     inkscape:window-maximized="0"
     inkscape:current-layer="U8212" />
  <path
     style="fill:#782121;fill-opacity:1;fill-rule:nonzero;stroke:#f9f9f9;stroke-width:0.1;stroke-miterlimit:4;stroke-dasharray:none"
     d="M 265.21875 149.03125 C 264.00516 148.99472 262.88554 149.2475 261.875 149.84375 C 230.8105 169.54575 204.48695 195.451 178.53125 221.25 C 145.78515 254.283 113.52775 287.786 82.84375 322.75 C 64.69255 343.894 47.6339 365.96725 30.625 388.03125 C 25.0963 394.76825 21.2787 402.35025 17.5625 410.15625 C 10.716635 426.68714 84.421205 458.19027 97.9375 446.34375 C 98.089887 445.78491 99.91126 442.9819 101.21875 441.03125 C 101.31086 440.90517 101.40788 440.78232 101.5 440.65625 C 108.65386 464.45327 122.98498 490.04171 133.0625 486.3125 C 162.0967 475.0555 192.99385 469.86225 223.53125 464.53125 C 223.69812 464.501 223.86436 464.4676 224.03125 464.4375 C 219.17648 475.6414 214.5784 486.95082 210.0625 498.28125 C 202.9021 516.51214 196.65963 535.05963 191.03125 553.78125 C 177.80325 555.96932 164.60409 558.22482 151.40625 560.59375 C 110.91065 568.34275 70.5363 576.729 30.625 587.125 C 12.5548 592.101 36.02355 677.2885 54.09375 672.3125 C 91.292724 660.95152 129.37983 653.05418 167.5 645.53125 C 166.96626 647.9388 166.43999 650.34227 165.90625 652.75 C 162.80775 667.06742 215.61749 681.61655 239.65625 678.0625 C 214.71101 685.30269 190.46671 694.61876 167.90625 707.84375 C 151.85125 717.57475 197.72635 793.26225 213.78125 783.53125 C 234.29795 770.55025 257.3551 762.9975 280.8125 757.4375 C 310.6583 751.2645 341.2621 750.65625 371.625 750.65625 C 374.30414 750.7618 377.30824 750.81765 380.34375 750.90625 C 373.10356 772.7956 366.3593 794.83111 359.90625 816.96875 C 357.53506 825.24665 355.2432 833.55454 353.03125 841.875 C 331.46759 843.97864 309.93214 846.51844 288.4375 849.21875 C 260.77341 852.9648 233.20397 857.19471 205.6875 861.84375 C 210.9659 853.31621 213.12179 845.88495 209.46875 842.21875 C 202.67585 836.70675 198.35385 828.812 193.78125 821.5 C 182.58935 801.038 172.90415 779.8415 163.65625 758.4375 C 156.04685 741.2755 75.1405 777.1515 82.75 794.3125 C 93.8134 817.4065 104.44365 840.666 116.53125 863.25 C 124.55675 878.6 135.0973 892.02125 146.9375 904.53125 C 149.73354 907.33733 154.72457 906.74632 160.75 903.96875 C 163.62509 928.84849 173.58371 957.28739 184.28125 955.28125 C 222.53515 946.55825 261.2713 940.3705 300.125 935.0625 C 328.44824 931.55016 356.8455 928.38754 385.34375 926.75 C 402.7537 932.22152 419.08398 933.72001 421.96875 926.34375 C 422.46743 924.92403 422.68478 924.37511 423.03125 923.40625 C 428.30973 917.46088 431.329 902.78597 432.03125 887.25 C 435.5813 871.89277 439.47827 856.6276 443.8125 841.46875 C 451.8754 813.87375 460.66135 786.51875 470.40625 759.46875 C 481.61565 722.56575 482.269 689.814 441.75 670.75 C 418.7836 664.121 394.99015 662.99375 371.15625 663.09375 C 334.03015 663.47075 296.6738 664.63325 260.25 672.53125 C 255.72512 673.646 251.20965 674.83371 246.71875 676.0625 C 249.08983 674.89127 250.64049 673.28185 251.09375 671.1875 C 252.33145 665.3175 253.5748 659.46475 254.8125 653.59375 C 256.59121 645.70742 258.45253 637.83193 260.34375 629.96875 C 283.23475 626.39044 306.12344 622.90477 329 619.25 C 366.5546 613.405 404.15465 607.574 442.03125 604.25 C 448.60435 603.7 455.2202 603.51 461.8125 603.5 C 480.5967 602.776 477.1592 514.24375 458.375 514.96875 C 449.9976 515.52175 441.63215 516.0505 433.28125 516.9375 C 393.76045 521.3385 354.46895 527.675 315.21875 534 C 306.01135 535.50466 296.80861 536.97812 287.59375 538.4375 C 288.58117 535.83367 289.59421 533.24591 290.625 530.65625 C 301.15159 504.69577 311.95553 478.54162 327.3125 455 C 334.2011 454.95135 341.10359 454.98406 348 455.15625 C 360.96 456.68025 374.76525 455.43375 387.21875 459.96875 C 399.31568 462.96495 412.77778 426.03607 415.0625 399.65625 C 418.71747 404.6534 422.07381 409.85549 424.84375 415.375 C 434.13875 431.657 510.88875 387.81325 501.59375 371.53125 C 488.91815 350.28325 472.92235 331.356 457.28125 312.25 C 432.18885 282.384 406.36445 253.16675 380.21875 224.21875 C 360.64675 202.16575 340.8501 180.19825 323.0625 156.65625 C 318.24171 150.20466 302.45901 156.28386 286.875 166.5 C 279.20122 156.48486 271.13306 149.20929 265.21875 149.03125 z M 97.9375 446.34375 C 97.905808 446.45997 97.941149 446.50762 98.09375 446.375 C 98.505149 446.01721 98.801472 445.55101 99.0625 445.0625 C 98.756498 445.53684 98.373544 445.96157 97.9375 446.34375 z M 764.84375 190.5 C 736.77686 190.70081 708.71769 192.1845 680.6875 193.65625 C 647.8622 195.39625 615.0329 196.96725 582.25 199.40625 C 563.5913 201.42725 573.12255 289.36475 591.78125 287.34375 C 622.86155 283.74875 654.147 282.36325 685.375 280.65625 C 703.78937 279.72283 722.22417 278.81745 740.65625 278.40625 C 726.82455 295.96757 713.48576 313.91103 700.59375 332.1875 C 688.91794 349.1034 677.93774 366.46539 667.125 383.9375 C 657.47752 377.6386 647.85029 371.29342 638.34375 364.78125 C 622.67435 354.47625 574.11195 428.32 589.78125 438.625 C 597.61204 443.53251 605.41499 448.48819 613.21875 453.4375 C 586.93242 457.82856 560.83124 463.25182 535.28125 471.03125 C 517.48935 476.96225 545.4581 560.83725 563.25 554.90625 C 595.2812 543.7645 628.8325 538.48922 662.28125 533.6875 C 664.89771 568.43737 663.84646 603.33529 662.6875 638.125 C 660.5242 680.82 660.0242 723.54225 660.375 766.28125 C 661.0902 793.84225 659.958 821.3715 657.4375 848.8125 C 655.6609 865.4805 653.9384 882.19675 650.375 898.59375 C 648.2053 907.80375 642.66465 915.322 637.09375 922.75 C 625.94395 937.767 696.75645 990.3295 707.90625 975.3125 C 721.06275 957.4915 732.3751 938.5915 736.8125 916.5625 C 740.8166 896.6785 743.28285 876.54875 745.03125 856.34375 C 747.46535 826.06175 748.5082 795.6925 747.5625 765.3125 C 747.02092 727.79725 747.14369 690.26775 748.78125 652.78125 C 758.20848 671.75729 817.37052 702.29406 825.28125 688.09375 C 830.61165 678.27375 835.69695 668.32625 840.59375 658.28125 C 855.49365 628.21225 870.4301 598.14175 886.8125 568.84375 C 899.0799 546.99375 913.42885 525.92025 921.96875 502.28125 C 922.09655 494.04925 924.73235 485.47375 922.34375 477.59375 C 913.92875 449.83575 891.85505 440.32025 866.40625 437.15625 C 839.76505 434.31125 812.9058 433.49225 786.125 433.78125 C 772.00489 434.45023 757.90769 435.47237 743.84375 436.75 C 742.54883 435.67023 741.25265 434.58642 739.9375 433.53125 C 750.06657 416.14705 760.48931 398.93416 771.84375 382.3125 C 790.63875 355.5205 810.76475 329.744 832.34375 305.125 C 849.62075 284.352 868.7239 260.5915 859 231.1875 C 856.3403 223.1445 849.9538 216.8545 845.4375 209.6875 C 840.4797 206.3135 835.8395 202.4115 830.5625 199.5625 C 814.4493 190.8625 794.4718 191.882 776.875 190.5 C 772.86415 190.47175 768.85331 190.47131 764.84375 190.5 z M 281.40625 244.21875 C 292.5628 256.98427 303.89754 269.60166 315.21875 282.21875 C 340.85625 310.29275 365.9863 338.83425 390.1875 368.15625 C 390.97245 369.25482 391.74765 370.32271 392.5625 371.40625 C 378.32821 369.26326 363.97982 368.2526 349.5 368.03125 C 302.3743 367.53125 255.37835 370.88125 208.90625 379.03125 C 185.06559 383.02651 161.15939 387.13999 137.6875 392.9375 C 141.21888 388.53891 144.80253 384.15892 148.4375 379.84375 C 177.4058 346.26975 208.12765 314.3 239.53125 283 C 253.06538 269.72365 266.67238 256.23439 281.40625 244.21875 z M 791.625 279.75 C 796.01504 280.06719 799.31364 280.48618 798.28125 281.3125 C 796.35032 282.85857 793.99444 281.53709 791.625 279.75 z M 789.75 520.90625 C 797.49348 521.01303 805.24492 521.16063 813 521.4375 C 812.39157 522.54836 810.36408 526.20644 810.1875 526.53125 C 793.7033 557.02425 778.1769 588.027 762.375 618.875 C 758.13561 627.16085 753.82739 635.38686 749.21875 643.46875 C 749.25781 642.69764 749.27207 641.92734 749.3125 641.15625 C 750.7437 601.97625 751.88025 562.7565 750.15625 523.5625 C 750.15258 523.49962 750.13063 523.43734 750.125 523.375 C 763.30494 522.23817 776.51428 521.36698 789.75 520.90625 z M 860.25 525.6875 C 861.28541 525.63492 862.22014 525.72463 862.6875 526.4375 C 863.0943 527.0575 861.14465 526.39975 860.46875 526.09375 C 860.1865 525.96613 859.88293 525.87026 859.59375 525.75 C 859.81159 525.73182 860.0367 525.69833 860.25 525.6875 z M 406.71875 752.9375 C 409.26262 753.40011 411.58636 753.96448 413.59375 754.6875 C 411.06293 754.6475 408.7858 753.99876 406.71875 752.9375 z "
     id="path10810" />
</svg>
