<?xml version="1.0" encoding="utf-8" ?>

<!DOCTYPE svg PUBLIC "-//W3C//DTD SVG 1.1//EN" 
  "http://www.w3.org/Graphics/SVG/1.1/DTD/svg11.dtd">
<svg 
    xmlns="http://www.w3.org/2000/svg"
    xmlns:xlink="http://www.w3.org/1999/xlink"
    xmlns:sodipodi="http://sodipodi.sourceforge.net/DTD/sodipodi-0.dtd"
    xmlns:inkscape="http://www.inkscape.org/namespaces/inkscape"
    width="1024" height="1024" id="U820D">
<path d="m 8720.0642,42193.777 c -25.32,14.365 -46.7383,34.394 -67.917,54.105 -39.0577,37.142 -73.0649,79.014 -105.5213,121.91 -26.0503,34.947 -50.1298,71.464 -67.3206,111.614 -4.7934,2.263 -7.5279,39.744 -6.0436,23.266 3.3777,18.475 -83.7167,34.398 -87.0944,15.923 l 0,0 c -2.5154,-26.232 2.4417,-50.546 13.375,-74.688 20.9434,-45.739 48.1142,-88.048 78.5232,-128.095 35.4575,-46.679 72.4611,-92.336 114.6761,-133.156 26.2222,-24.845 53.006,-49.454 84.1088,-68.165 16.3949,-9.167 59.6087,68.119 43.2138,77.286 z" id="path11859" inkscape:connector-curvature="0" style="fill:#a02c2c;fill-opacity:1;fill-rule:nonzero;stroke:#f9f9f9;stroke-width:0.1;stroke-miterlimit:4;stroke-dasharray:none" transform="translate(-8192, -41984)"/><path d="m 8771.3124,42160.172 c 23.9144,24.673 51.485,45.46 78.8016,66.165 39.6385,29.235 80.133,57.265 119.4138,86.986 15.3682,11.474 29.8833,23.972 44.1816,36.728 13.726,12.501 -45.2032,77.206 -58.9292,64.705 l 0,0 c -12.1533,-11.357 -24.6153,-22.356 -37.8806,-32.422 -38.9086,-29.923 -79.2668,-57.842 -118.8721,-86.823 -31.5639,-23.62 -63.1322,-47.493 -91.4439,-75.024 -12.7949,-13.731 51.9339,-74.046 64.7288,-60.315 z" id="path11861" inkscape:connector-curvature="0" style="fill:#a02c2c;fill-opacity:1;fill-rule:nonzero;stroke:#f9f9f9;stroke-width:0.1;stroke-miterlimit:4;stroke-dasharray:none" transform="translate(-8192, -41984)"/><path d="m 8524.3114,42398.436 c 41.6005,-1.547 83.1033,-5.1 124.6104,-8.195 52.8239,-4.174 105.6799,-7.896 158.6841,-8.088 17.2038,-0.147 34.2603,1.398 51.2875,3.601 18.4417,2.751 5.4724,89.686 -12.9693,86.934 l 0,0 c -12.7496,-2.337 -25.6109,-3.433 -38.5872,-3.645 -50.6875,-0.541 -101.2456,3.04 -151.7434,7.167 -42.6443,3.439 -85.2614,7.194 -127.9098,10.579 -18.7426,0.716 -22.1149,-87.638 -3.3723,-88.353 z" id="path11863" inkscape:connector-curvature="0" style="fill:#a02c2c;fill-opacity:1;fill-rule:nonzero;stroke:#f9f9f9;stroke-width:0.1;stroke-miterlimit:4;stroke-dasharray:none" transform="translate(-8192, -41984)"/><path d="m 8464.1697,42615.227 c 44.2878,-15.137 89.5218,-26.85 135.2243,-36.779 61.0586,-12.383 123.1276,-18.33 185.1605,-23.152 35.674,-3.239 71.5756,-3.196 107.2539,-6.239 0.2455,-0.178 0.4911,-0.356 0.7366,-0.534 18.5573,-2.948 32.4532,84.532 13.8959,87.48 l 0,0 c -3.1272,0.357 -6.2543,0.715 -9.3815,1.073 -35.3672,1.363 -70.7857,1.551 -106.1002,4.192 -58.0058,4.125 -116.0539,9.481 -173.0888,21.263 -42.2988,9.41 -84.2977,20.333 -124.7356,36.116 -17.6959,6.144 -46.6611,-77.275 -28.9651,-83.42 z" id="path11865" inkscape:connector-curvature="0" style="fill:#a02c2c;fill-opacity:1;fill-rule:nonzero;stroke:#f9f9f9;stroke-width:0.1;stroke-miterlimit:4;stroke-dasharray:none" transform="translate(-8192, -41984)"/><path d="m 8755.8167,42469.502 c -16.2706,25.27 -30.0029,52.092 -43.8782,78.723 -21.3667,41.787 -41.8513,84.017 -62.9187,125.955 -8.5667,17.339 -17.5646,34.455 -26.6562,51.522 -8.8232,16.296 -85.6457,-25.297 -76.8224,-41.593 l 0,0 c 8.9369,-16.224 17.7494,-32.514 26.0454,-49.078 21.3881,-42.027 41.979,-84.45 63.1021,-126.61 15.1036,-29.629 30.2242,-59.302 47.326,-87.844 10.3786,-15.656 84.1805,33.269 73.802,48.925 z" id="path11867" inkscape:connector-curvature="0" style="fill:#a02c2c;fill-opacity:1;fill-rule:nonzero;stroke:#f9f9f9;stroke-width:0.1;stroke-miterlimit:4;stroke-dasharray:none" transform="translate(-8192, -41984)"/><path d="m 8586.218,42780.382 c 8.9979,27.353 16.5275,55.149 25.2496,82.589 1.5029,4.499 2.9497,9.016 4.5085,13.496 2.1281,6.116 5.5971,15.528 8.2329,21.644 3.5764,8.297 4.9207,9.502 5.083,9.161 0.4842,-1.017 -0.942,-2.047 -1.4129,-3.07 -3.4796,-2.907 -6.9592,-5.814 -10.4388,-8.721 17.1016,7.838 -19.848,88.455 -36.9495,80.617 l 0,0 c -5.9709,-4.049 -11.9418,-8.098 -17.9127,-12.147 -17.454,-21.977 -26.5086,-47.822 -34.5113,-74.552 -8.175,-25.874 -15.2687,-52.114 -24.5871,-77.607 -6.6631,-17.551 76.0753,-48.961 82.7383,-31.41 z" id="path11869" inkscape:connector-curvature="0" style="fill:#a02c2c;fill-opacity:1;fill-rule:nonzero;stroke:#f9f9f9;stroke-width:0.1;stroke-miterlimit:4;stroke-dasharray:none" transform="translate(-8192, -41984)"/><path d="m 8580.4451,42757.85 c 32.9638,-19.487 70.2578,-28.821 107.2774,-37.061 36.8589,-7.8 74.2233,-12.744 111.7153,-16.189 22.9082,-1.188 48.1688,-3.378 69.3665,7.622 5.3849,2.795 10.1104,6.708 15.1657,10.062 26.613,26.567 24.1357,60.759 20.8507,95.216 -3.5068,29.286 -7.8842,58.459 -11.8908,87.68 -2.1019,18.87 -5.0702,37.36 -11.088,55.376 -6.4932,17.589 -89.4096,-13.02 -82.9164,-30.609 l 0,0 c 6.8687,-10.061 3.0561,-25.923 7.1308,-36.955 3.9937,-27.837 8.2365,-55.649 11.4267,-83.592 0.8855,-9.903 1.1726,-11.616 1.5557,-20.91 0.5204,-12.627 2.7059,-0.563 9.5157,2.745 2.246,0.925 8.1419,4.148 7.0064,2.001 -3.0841,-5.832 -24.5362,0.245 -28.6123,-1.386 -33.6781,2.677 -67.2409,6.905 -100.3176,13.908 -26.6124,5.92 -53.9326,11.927 -77.6169,26.032 -15.6852,10.303 -64.254,-63.637 -48.5689,-73.94 z" id="path11871" inkscape:connector-curvature="0" style="fill:#a02c2c;fill-opacity:1;fill-rule:nonzero;stroke:#f9f9f9;stroke-width:0.1;stroke-miterlimit:4;stroke-dasharray:none" transform="translate(-8192, -41984)"/><path d="m 8614.2961,42895.526 c 37.7686,-1.153 75.3193,-5.803 112.8843,-9.608 40.8265,-4.702 81.7936,-5.54 122.6193,-0.931 17.5057,2.08 34.1336,7.116 50.2586,14.012 17.0209,7.861 -20.0396,88.099 -37.0605,80.237 l 0,0 c -7.0367,-4.556 -15.8963,-5.397 -23.858,-7.301 -34.29,-4.662 -68.8115,-3.499 -103.1757,0.26 -39.7088,4.064 -79.3515,8.869 -119.18,11.656 -18.7365,0.528 -21.2245,-87.797 -2.488,-88.325 z" id="path11873" inkscape:connector-curvature="0" style="fill:#a02c2c;fill-opacity:1;fill-rule:nonzero;stroke:#f9f9f9;stroke-width:0.1;stroke-miterlimit:4;stroke-dasharray:none" transform="translate(-8192, -41984)"/></svg>