<?xml version="1.0" encoding="UTF-8" standalone="no"?>
<svg
   xmlns:dc="http://purl.org/dc/elements/1.1/"
   xmlns:cc="http://creativecommons.org/ns#"
   xmlns:rdf="http://www.w3.org/1999/02/22-rdf-syntax-ns#"
   xmlns:svg="http://www.w3.org/2000/svg"
   xmlns="http://www.w3.org/2000/svg"
   xmlns:sodipodi="http://sodipodi.sourceforge.net/DTD/sodipodi-0.dtd"
   xmlns:inkscape="http://www.inkscape.org/namespaces/inkscape"
   width="1024"
   height="1024"
   id="U822C"
   version="1.1"
   inkscape:version="0.48.0 r9654"
   sodipodi:docname="U+822C.svg">
  <metadata
     id="metadata17">
    <rdf:RDF>
      <cc:Work
         rdf:about="">
        <dc:format>image/svg+xml</dc:format>
        <dc:type
           rdf:resource="http://purl.org/dc/dcmitype/StillImage" />
      </cc:Work>
    </rdf:RDF>
  </metadata>
  <defs
     id="defs15" />
  <sodipodi:namedview
     pagecolor="#ffffff"
     bordercolor="#666666"
     borderopacity="1"
     objecttolerance="10"
     gridtolerance="10"
     guidetolerance="10"
     inkscape:pageopacity="0"
     inkscape:pageshadow="2"
     inkscape:window-width="640"
     inkscape:window-height="480"
     id="namedview13"
     showgrid="false"
     inkscape:zoom="0.27441406"
     inkscape:cx="512"
     inkscape:cy="512"
     inkscape:window-x="0"
     inkscape:window-y="25"
     inkscape:window-maximized="0"
     inkscape:current-layer="U822C" />
  <path
     style="fill:#aa0000;fill-opacity:1;fill-rule:nonzero;stroke:#f9f9f9;stroke-width:0.1;stroke-miterlimit:4;stroke-dasharray:none"
     d="M 296.78125 129.5625 C 293.29419 129.54246 290.64364 130.50615 289.25 132.6875 C 257.8339 187.497 235.0116 246.56305 208.9375 303.96875 C 204.2211 313.58725 199.49765 323.22515 194.78125 332.84375 C 193.27619 335.92139 194.83479 339.75081 198.375 343.84375 C 164.55313 369.26096 147.83579 407.15382 145.1875 449.125 C 124.2332 457.39821 104.3745 470.59327 108.03125 479.4375 C 127.03683 530.13663 132.59157 584.01719 135.25 637.75 C 101.50939 643.83735 67.739068 649.93915 33.875 655.34375 C 15.6863 658.03835 28.40515 743.7572 46.59375 741.0625 C 76.535533 735.00022 106.49031 729.06005 136.5 723.375 C 135.80294 778.96182 133.35829 834.52787 131.78125 890.09375 C 133.00815 916.34775 127.70665 943.31655 131.09375 969.53125 C 131.73605 974.50195 129.82045 981.7361 134.15625 984.25 C 154.20495 995.8745 177.4655 1000.7261 199.125 1008.9688 C 206.7574 999.45935 214.39885 989.947 222.03125 980.4375 C 229.235 965.41891 166.2837 933.37083 147.75 939.25 C 151.19071 936.56391 154.62182 933.87363 158.0625 931.1875 C 177.61621 940.12085 197.76972 947.90856 216.78125 957.9375 C 213.04404 937.25629 219.89023 912.11325 216.875 892 C 217.86617 830.77366 220.2744 769.57751 220.59375 708.34375 C 231.01724 706.61162 241.43079 704.92993 251.875 703.3125 C 266.72988 701.96953 281.82193 700.01642 297 698.25 C 275.1895 709.7245 241.35331 750.31226 251.8125 760.15625 C 275.4042 780.51555 302.23445 796.39225 329.21875 811.71875 C 345.19045 820.64805 387.2842 745.3668 371.3125 736.4375 C 350.3053 724.9154 329.1953 713.1234 311.375 696.875 C 311.30834 696.81226 311.22517 696.77776 311.15625 696.71875 C 338.86368 693.83994 366.70451 692.34338 393.875 696.9375 C 392.33775 721.97293 390.94459 747.02751 389.875 772.09375 C 386.7042 810.37835 389.9691 848.61785 391 886.84375 C 395.91679 885.10178 400.8332 883.36697 405.75 881.625 C 396.98184 889.09994 391.81742 896.52833 394.59375 901.46875 C 422.51705 894.11455 450.4517 886.76035 478.375 879.40625 C 473.9047 844.88065 473.14055 810.1115 474.53125 775.3125 C 477.05855 699.9311 483.2121 624.7943 488.375 549.5625 C 489.61675 524.7149 491.07913 499.70637 491.59375 474.71875 C 513.76804 477.15623 537.0462 474.80121 537.96875 465.375 C 539.16415 446.0074 542.14485 426.87505 545.21875 407.71875 C 553.47893 357.64625 562.1196 307.6307 571.125 257.6875 C 580.73886 267.22607 590.16274 272.90314 595.21875 269.125 C 626.93455 246.513 663.20945 231.09285 702.09375 227.65625 C 708.75565 225.14395 719.96175 233.99095 706.65625 230.78125 C 705.02505 230.38775 703.63915 228.36385 702.03125 228.84375 C 700.47925 229.30705 699.3574 240.96615 698.9375 243.90625 C 688.2836 289.48105 674.1083 333.9101 665.875 380.0625 C 658.6873 429.1715 659.91105 466.41195 679.09375 512.46875 C 687.8471 527.32218 697.76333 538.46771 708.875 546.53125 C 655.68438 553.74799 602.5118 561.30486 549.09375 566.65625 C 530.90865 568.91525 541.5649 654.634 559.75 652.375 C 626.87939 642.63221 694.03573 632.88832 761.4375 625.21875 C 744.55673 649.36143 728.4959 674.12589 711.75 698.34375 C 698.62431 716.98621 685.26863 735.4855 671.75 753.84375 C 641.57863 731.38304 611.66923 708.54609 580.625 687.28125 C 564.7249 677.98125 520.88105 752.9499 536.78125 762.25 C 565.5303 781.02751 593.0331 801.58949 620.625 822.03125 C 613.3042 831.6788 605.9961 841.30603 598.65625 850.9375 C 592.42465 858.889 586.29305 866.9344 579.96875 874.8125 C 565.98885 892.2274 551.64635 910.3154 535.03125 925.375 C 533.73505 926.54985 533.06047 927.18461 532.125 928.03125 C 556.0388 922.83866 547.10358 921.44676 567.6875 932.6875 C 548.31862 930.14515 491.71555 972.44191 501.375 986.03125 C 540.7218 1016.6713 518.92055 1010.3504 566.03125 1007.625 C 571.74905 1004.2881 577.8154 1001.4939 583.1875 997.625 C 616.7803 973.4322 639.1986 932.8123 666.25 902.375 C 674.1526 891.96231 682.07242 881.54382 689.96875 871.125 C 729.69437 896.4349 772.18346 917.03259 814.5 937.65625 C 829.344 945.63985 845.27615 951.8472 859.59375 960.8125 C 875.94895 969.7404 918.01145 892.6154 901.65625 883.6875 C 885.16545 875.3891 868.276 867.9663 851.625 860 C 814.0975 842.42185 776.4689 824.67768 741.25 802.8125 C 754.92011 784.36172 768.47997 765.82203 781.8125 747.125 C 806.5468 711.8267 829.91145 675.40895 856.90625 641.78125 C 866.10975 631.86485 884.8394 620.32365 887.9375 607.40625 C 895.9902 573.83095 889.03135 572.3244 872.65625 552.25 C 868.11945 549.5299 863.8658 546.30945 859.0625 544.09375 C 846.45884 538.27983 832.87313 536.21502 819.03125 535.90625 C 816.00393 509.8864 798.11173 469.32629 785.625 473.59375 C 781.5799 475.44865 783.9352 474.4932 778.4375 476.25 C 771.2461 477.9136 763.6844 482.4596 758.125 476.9375 C 744.5039 451.7665 747.55465 422.14975 750.53125 394.65625 C 758.52985 346.09205 775.6963 300.01435 784.875 251.71875 C 786.3063 231.09025 789.36265 215.9568 782.21875 195.5625 C 768.03855 155.0813 731.8836 140.1984 691.875 142.125 C 643.55787 148.7763 598.08262 164.97105 556.78125 190.625 C 532.02273 183.56942 496.48425 182.42954 494.71875 194.03125 C 487.90247 242.55899 479.61104 290.86416 471.09375 339.125 C 450.54538 308.57942 415.7403 298.06894 378.46875 299.875 C 352.37652 301.28542 326.07144 303.14349 300.21875 307.25 C 319.17049 263.75469 337.66595 219.9436 362.375 179.40625 C 370.89166 166.0758 318.09104 129.68496 296.78125 129.5625 z M 532.125 928.03125 C 530.94043 928.28846 529.79151 928.53763 528.4375 928.8125 C 526.61576 932.82775 526.31188 933.29234 532.125 928.03125 z M 216.78125 957.9375 C 217.10509 959.72956 217.50344 961.49968 218 963.21875 C 218.4274 964.69845 219.38975 959.31945 218.03125 958.59375 C 217.61661 958.37224 217.19698 958.15681 216.78125 957.9375 z M 382.0625 386 C 384.39708 386.07873 410.75336 386.42105 406.46875 390.8125 C 402.95255 394.4164 401.00665 387.0081 402.65625 399.8125 C 408.31245 448.1951 405.72525 497.1505 403.71875 545.6875 C 402.41522 567.43408 400.98757 589.17152 399.53125 610.90625 C 370.00614 608.33393 340.3501 609.17166 310.78125 611.625 C 321.11115 603.22114 327.63 594.61144 324.46875 589.25 C 307.49535 561.1254 291.22845 532.213 282.09375 500.4375 C 278.266 486.48472 225.81183 497.64455 205.78125 511.6875 C 202.8498 496.6804 199.2949 481.79896 195 467.0625 C 214.38913 465.90453 231.98959 461.03136 231.84375 452.71875 C 232.62055 422.82025 243.8856 413.2991 269.6875 402.5625 C 305.80462 390.42149 344.23566 387.66358 382.0625 386 z M 213.625 563.125 C 222.18045 582.36309 231.98493 601.03321 242.3125 619.40625 C 241.15919 619.55946 239.99626 619.68992 238.84375 619.84375 C 232.07556 620.90992 225.3212 622.03776 218.5625 623.15625 C 217.44177 603.09641 215.91365 583.05603 213.625 563.125 z M 819.8125 622.21875 C 823.09654 622.71173 825.88768 623.54067 827.875 624.875 C 828.2683 625.139 826.98575 625.47755 826.53125 625.34375 C 824.32755 624.69515 822.2969 623.5348 820.1875 622.625 C 820.05539 622.48152 819.94286 622.3596 819.8125 622.21875 z "
     id="path19665" />
</svg>
