<?xml version="1.0" encoding="utf-8" ?>

<!DOCTYPE svg PUBLIC "-//W3C//DTD SVG 1.1//EN" 
  "http://www.w3.org/Graphics/SVG/1.1/DTD/svg11.dtd">
<svg 
    xmlns="http://www.w3.org/2000/svg"
    xmlns:xlink="http://www.w3.org/1999/xlink"
    xmlns:sodipodi="http://sodipodi.sourceforge.net/DTD/sodipodi-0.dtd"
    xmlns:inkscape="http://www.inkscape.org/namespaces/inkscape"
    width="1024" height="1024" id="U8282">
<path d="m 9401.3648,23867.599 c 39.9364,-3.523 79.4462,-10.87 118.9605,-17.468 69.3023,-11.591 138.8538,-21.583 208.5375,-30.569 50.0355,-6.331 100.3544,-10.412 150.8024,-9.361 18.5827,-0.08 35.19,4.425 51.8394,12.117 16.4494,9.511 -28.3846,87.054 -44.834,77.543 l 0,0 c 16.1785,5.187 -7.7715,-3.339 -9.9522,-1.259 -45.7669,-2.231 -91.5061,1.395 -136.9585,6.766 -68.4411,8.555 -136.7211,18.387 -204.6411,30.447 -41.4767,7.396 -82.8967,15.342 -124.692,20.757 -18.8739,1.922 -27.9359,-87.051 -9.062,-88.973 z" id="path9209" inkscape:connector-curvature="0" style="fill:#550000;fill-opacity:1;fill-rule:nonzero;stroke:#f9f9f9;stroke-width:0.1;stroke-miterlimit:4;stroke-dasharray:none" transform="translate(-9216, -23552)"/><path d="m 9653.4991,23772.188 c -10.8633,28.088 -12.3134,58.588 -13.2912,88.344 0.1744,25.162 0.9409,50.894 10.2127,74.563 6.0257,17.789 -77.8342,46.194 -83.8598,28.405 l 0,0 c -10.8158,-34.397 -15.1524,-69.846 -14.0938,-105.961 1.4568,-41.451 4.5672,-83.433 19.7779,-122.476 7.8753,-17.236 89.1296,19.888 81.2542,37.125 z" id="path9211" inkscape:connector-curvature="0" style="fill:#550000;fill-opacity:1;fill-rule:nonzero;stroke:#f9f9f9;stroke-width:0.1;stroke-miterlimit:4;stroke-dasharray:none" transform="translate(-9216, -23552)"/><path d="m 9826.1761,23800.043 c -10.1233,31.867 -17.2117,64.608 -25.4772,96.99 -9.8192,39.104 -22.534,77.35 -38.8958,114.189 -7.7313,17.08 -88.2473,-19.366 -80.516,-36.446 l 0,0 c 14.7797,-31.864 25.5909,-65.317 34.2268,-99.345 8.6453,-34.33 16.1291,-68.956 25.7577,-103.032 5.8641,-18.011 90.7685,9.633 84.9045,27.644 z" id="path9213" inkscape:connector-curvature="0" style="fill:#550000;fill-opacity:1;fill-rule:nonzero;stroke:#f9f9f9;stroke-width:0.1;stroke-miterlimit:4;stroke-dasharray:none" transform="translate(-9216, -23552)"/><path d="m 9418.0011,24078.209 c 32.8356,-17.551 69.2225,-26.308 105.1786,-34.86 51.6956,-12.043 104.1923,-19.901 156.9308,-25.542 43.8233,-4.658 87.8397,-4.437 131.5201,1.131 36.1632,5.711 57.6168,13.673 82.0475,41.626 19.7564,30.84 18.1773,66.562 14.8566,101.531 -4.363,37.25 -15.4643,72.697 -33.4768,105.487 -3.7024,4.989 -7.4048,9.978 -11.1072,14.968 -11.6695,14.779 -81.3385,-40.232 -69.669,-55.011 l 0,0 c 1.2852,-1.327 2.5705,-2.654 3.8557,-3.982 13.1264,-21.103 18.8371,-45.546 22.3618,-69.942 1.0503,-10.689 1.9946,-21.131 1.4557,-31.877 -0.1193,-2.381 -1.916,-5.489 -0.2049,-7.148 0.2851,-0.277 0.7736,0.18 1.1605,0.27 9.8576,4.467 -19.5891,-12.518 -23.2361,-8.32 -36.5951,-5.439 -73.6066,-5.415 -110.4204,-1.833 -48.924,5.054 -97.6055,12.397 -145.4615,23.938 -27.3535,6.727 -55.4455,13.014 -80.3808,26.6 -16.3418,9.633 -61.7523,-67.403 -45.4106,-77.036 z" id="path9215" inkscape:connector-curvature="0" style="fill:#550000;fill-opacity:1;fill-rule:nonzero;stroke:#f9f9f9;stroke-width:0.1;stroke-miterlimit:4;stroke-dasharray:none" transform="translate(-9216, -23552)"/><path d="m 9688.3399,24087.948 c -5.7593,34.648 -4.5852,70.034 -3.7983,105.012 1.8606,46.571 3.5724,93.137 3.7277,139.749 0.4404,22.23 -1.1445,44.558 0.6673,66.751 0.5629,4.656 1.1389,9.305 1.5962,13.973 1.6283,18.965 -87.7742,26.641 -89.4025,7.675 l 0,0 c -0.3723,-5.525 -1.0643,-11.02 -1.3668,-16.552 -1.03,-24.019 0.2307,-48.041 0.4932,-72.065 0.3984,-45.816 -1.2415,-91.586 -3.2223,-137.354 -1.117,-41.222 -2.2415,-82.729 3.5494,-123.685 3.4992,-18.616 91.2553,-2.12 87.7561,16.496 z" id="path9217" inkscape:connector-curvature="0" style="fill:#550000;fill-opacity:1;fill-rule:nonzero;stroke:#f9f9f9;stroke-width:0.1;stroke-miterlimit:4;stroke-dasharray:none" transform="translate(-9216, -23552)"/></svg>