<?xml version="1.0" encoding="UTF-8" standalone="no"?>
<svg
   xmlns:dc="http://purl.org/dc/elements/1.1/"
   xmlns:cc="http://creativecommons.org/ns#"
   xmlns:rdf="http://www.w3.org/1999/02/22-rdf-syntax-ns#"
   xmlns:svg="http://www.w3.org/2000/svg"
   xmlns="http://www.w3.org/2000/svg"
   xmlns:sodipodi="http://sodipodi.sourceforge.net/DTD/sodipodi-0.dtd"
   xmlns:inkscape="http://www.inkscape.org/namespaces/inkscape"
   width="1024"
   height="1024"
   id="U821E"
   version="1.1"
   inkscape:version="0.48.0 r9654"
   sodipodi:docname="U+821E.svg">
  <metadata
     id="metadata21">
    <rdf:RDF>
      <cc:Work
         rdf:about="">
        <dc:format>image/svg+xml</dc:format>
        <dc:type
           rdf:resource="http://purl.org/dc/dcmitype/StillImage" />
      </cc:Work>
    </rdf:RDF>
  </metadata>
  <defs
     id="defs19" />
  <sodipodi:namedview
     pagecolor="#ffffff"
     bordercolor="#666666"
     borderopacity="1"
     objecttolerance="10"
     gridtolerance="10"
     guidetolerance="10"
     inkscape:pageopacity="0"
     inkscape:pageshadow="2"
     inkscape:window-width="640"
     inkscape:window-height="480"
     id="namedview17"
     showgrid="false"
     inkscape:zoom="0.27441406"
     inkscape:cx="512"
     inkscape:cy="512"
     inkscape:window-x="0"
     inkscape:window-y="25"
     inkscape:window-maximized="0"
     inkscape:current-layer="U821E" />
  <path
     style="fill:#501616;fill-opacity:1;fill-rule:nonzero;stroke:#f9f9f9;stroke-width:0.1;stroke-miterlimit:4;stroke-dasharray:none"
     d="M 264.46875 214.09375 C 261.4792 214.11407 259.14744 214.9695 257.78125 216.875 C 232.35185 257.054 216.54325 302.20075 201.34375 346.96875 C 187.10195 391.29775 175.06605 436.6325 175.46875 483.4375 C 176.55935 489.3895 177.62825 495.3605 178.71875 501.3125 C 180.02688 506.5902 188.22295 508.52177 199.03125 508.1875 C 204.18067 534.01381 226.70052 574.42768 239.03125 568.8125 C 267.75621 555.51294 298.56763 547.80447 329.375 540.90625 C 331.84886 561.37087 335.50966 581.62565 341.59375 601.40625 C 322.59495 603.44977 303.62512 605.6235 284.65625 607.9375 C 237.52285 614.2435 190.28725 621.04525 144.40625 633.90625 C 126.48325 639.44325 152.577 723.94325 170.5 718.40625 C 206.95058 706.59226 244.87336 700.40345 282.71875 694.90625 C 270.61432 716.93674 259.32369 739.40982 248.1875 761.9375 C 229.6999 799.7575 213.47125 838.655 199.90625 878.5 C 195.19985 890.484 193.592 902.45925 192.5625 915.15625 C 192.69101 932.42125 267.41149 933.30469 279.5625 918.78125 C 279.30998 919.87623 279.41053 920.34578 280.0625 919.75 C 281.04742 918.85055 280.98671 917.36544 281.0625 915.9375 C 280.8197 916.93111 280.29577 917.86915 279.5625 918.75 C 280.70456 913.88475 288.31828 897.1285 283.1875 905.8125 C 286.58263 894.97388 290.26943 884.23367 294.21875 873.59375 C 293.32233 881.8008 294.4786 887.98615 298.6875 889.75 C 324.8588 899.826 351.16985 909.5155 377.15625 920.0625 C 380.89273 921.57991 384.56974 923.21002 388.21875 924.90625 C 371.92247 946.25364 355.38827 967.43841 338.21875 988.09375 C 325.93125 1002.6787 312.08295 1015.9762 295.90625 1026.1562 C 294.77295 1026.7052 293.6333 1027.2625 292.5 1027.8125 C 276.1091 1036.8985 318.9216 1114.1485 335.3125 1105.0625 C 338.4692 1103.2345 341.62465 1101.4227 344.78125 1099.5938 C 367.67125 1083.9057 388.2741 1065.259 405.75 1043.625 C 430.7724 1012.912 454.51155 981.2015 478.34375 949.5625 C 503.54025 916.7705 529.3566 884.42575 553.5 850.84375 C 573.26 820.86275 590.1163 789.86675 570.625 754.71875 C 552.9695 733.18475 530.722 720.38425 503 715.65625 C 468.6567 710.91225 434.12385 712.39825 400.21875 720.03125 C 387.69413 723.10858 375.21943 726.51993 363.0625 730.71875 C 366.88588 724.30778 370.83363 717.95937 374.9375 711.71875 C 378.84117 705.92422 371.11006 695.45616 359.34375 685.375 C 412.40222 679.49599 465.58712 674.84596 518.84375 671.1875 C 590.32045 666.1465 661.95055 668.15875 733.40625 672.09375 C 779.09665 675.44075 824.9198 677.49575 870.4375 682.84375 C 888.894 684.78275 898.05015 597.7525 879.59375 595.8125 C 852.85893 593.29407 826.05852 591.63407 799.25 590.09375 C 800.68099 588.51439 801.42023 586.794 801.28125 584.96875 C 799.04373 557.37655 797.19362 529.74301 796.71875 502.0625 C 806.383 503.32065 815.95144 505.13612 825.25 508.0625 C 825.0125 508.1845 824.76885 508.3155 824.53125 508.4375 C 841.79495 515.8145 876.5761 434.4385 859.3125 427.0625 C 855.4787 425.6475 851.6462 424.2265 847.8125 422.8125 C 831.15001 418.79105 814.23661 416.24243 797.21875 414.625 C 797.61448 395.47578 798.25257 376.34676 799.21875 357.21875 C 799.97775 338.49675 711.6965 334.903 710.9375 353.625 C 710.80166 373.21808 710.63706 392.81352 710.5 412.40625 C 702.34179 412.58208 694.18557 412.81535 686.03125 413.09375 C 686.49164 395.92007 687.36896 378.77347 688.96875 361.65625 C 690.26425 342.94425 602.0454 336.8505 600.75 355.5625 C 599.71089 376.38273 599.13275 397.19597 598.84375 418.03125 C 580.25014 419.50081 561.67797 421.21795 543.125 423.21875 C 543.04148 423.2278 542.95852 423.24095 542.875 423.25 C 543.28979 403.20516 544.19344 383.156 545.75 363.15625 C 546.5826 344.42325 458.2701 340.48575 457.4375 359.21875 C 456.60857 383.90707 456.015 408.62086 455.84375 433.3125 C 440.43625 435.25311 425.05687 437.29221 409.6875 439.5 C 409.48307 422.23096 410.32495 404.98014 413.75 388.03125 C 416.2845 377.28524 387.55471 365.83786 362.5625 361.9375 C 385.02659 356.90036 407.75642 352.91345 430.4375 349.09375 C 494.2536 338.96175 558.8115 336.0395 623.3125 334.6875 C 670.82 333.8645 718.33475 334.79775 765.78125 337.21875 C 767.40992 342.91616 778.3913 335.61363 782.125 339.4375 C 800.1517 334.59637 828.38739 264.44784 812.40625 257.6875 C 798.18895 253.0465 784.4731 249.5335 769.3125 249.9375 C 720.0038 248.4395 670.67035 247.8805 621.34375 248.9375 C 552.85375 250.6505 484.3157 253.98975 416.5 264.34375 C 384.55255 269.47227 352.62621 275.00812 321.125 282.375 C 323.8171 277.64054 326.64376 272.96746 329.65625 268.40625 C 339.21956 255.06775 285.39561 213.95151 264.46875 214.09375 z M 782.125 339.4375 C 781.39429 339.63373 780.69355 339.68312 780 339.65625 C 781.47979 340.02975 782.92253 340.40099 782.3125 339.65625 C 782.25006 339.58003 782.19223 339.50636 782.125 339.4375 z M 780 339.65625 C 779.21461 339.45802 778.41468 339.26902 777.90625 339.21875 C 778.57202 339.50038 779.28722 339.62863 780 339.65625 z M 287.375 361.875 C 293.2009 372.62631 299.78867 379.71774 305.40625 377.875 C 312.54122 375.39704 319.73216 373.14062 326.96875 371.03125 C 322.21366 398.43955 322.10755 426.25752 323.1875 454 C 302.93591 458.25211 282.65137 462.66545 262.65625 468.03125 C 262.88169 436.31395 275.11883 404.91701 282.96875 374.75 C 284.42978 370.4675 285.89357 366.16712 287.375 361.875 z M 710.375 498.46875 C 710.73568 527.50236 712.3538 556.47633 714.375 585.4375 C 647.2804 582.59569 580.08982 581.6945 513.03125 586.40625 C 479.75676 588.69423 446.49868 591.33743 413.28125 594.34375 C 422.31922 588.60837 427.92059 582.43917 426.0625 577.375 C 418.75669 561.03793 416.16007 543.21334 414.71875 525.1875 C 429.45415 522.92706 444.21815 520.85755 459 518.90625 C 461.40583 536.50607 465.35382 553.81681 471.375 570.78125 C 478.107 588.16925 560.07575 556.4505 553.34375 539.0625 C 548.74523 529.51594 546.50807 519.21831 545.25 508.71875 C 547.59264 508.46477 549.93861 508.18939 552.28125 507.9375 C 567.91467 506.28484 583.55393 504.82979 599.21875 503.59375 C 599.48625 520.44159 599.84573 537.28461 600.46875 554.125 C 601.30855 572.7 688.87105 568.73125 688.03125 550.15625 C 687.10479 533.10404 686.61591 516.03986 686.25 498.96875 C 694.29057 498.746 702.33089 498.57439 710.375 498.46875 z M 724.71875 681.90625 C 714.39065 682.10365 706.73957 684.392 705.65625 689.5625 C 703.61467 703.10261 701.90694 716.67259 700.40625 730.28125 C 670.27733 732.60878 640.18736 735.40766 610.21875 739.34375 C 600.72101 740.92671 599.92245 764.67222 603.90625 787 C 586.04056 811.17121 570.45237 836.89586 555.28125 862.8125 C 545.97505 882.2955 529.3131 901.58225 527.5 924.03125 C 526.9261 931.13625 528.007 938.28225 528.25 945.40625 C 532.6584 953.63525 535.32295 963.06675 541.46875 970.09375 C 562.23775 993.83875 600.77065 991.56975 629.03125 992.21875 C 649.21114 992.44747 669.39046 992.21021 689.5625 991.75 C 690.19902 1001.1295 690.94642 1010.5007 691.875 1019.875 C 695.2961 1052.935 704.1644 1084.7657 715.1875 1115.9688 C 721.5692 1133.3537 803.5068 1103.2913 797.125 1085.9062 C 787.7696 1061.6703 780.4852 1036.791 777.4375 1010.875 C 776.63353 1003.7142 775.96079 996.54115 775.375 989.375 C 813.75103 988.68003 852.09992 990.06573 890.4375 991.71875 C 911.5433 992.71875 932.6788 993.82475 953.8125 993.46875 C 972.5319 992.87175 969.7194 904.62175 951 905.21875 C 931.9386 906.28075 912.8117 905.0105 893.75 904.5625 C 853.54499 903.23719 813.32121 902.08339 773.09375 902.84375 C 773.78486 875.89229 775.66265 848.94588 778.46875 822.03125 C 778.79551 818.59543 779.11355 815.15669 779.4375 811.71875 C 799.80776 810.1442 820.18159 808.57465 840.59375 807.9375 C 842.24605 808.1135 843.87895 808.29375 845.53125 808.46875 C 864.22925 809.16575 867.54175 721.0095 848.84375 720.3125 C 844.69835 720.2715 840.55175 720.2275 836.40625 720.1875 C 820.79284 721.14359 805.18495 722.42128 789.59375 723.71875 C 790.43748 718.37341 791.33461 713.04268 792.3125 707.71875 C 795.08105 694.50597 751.11278 681.40179 724.71875 681.90625 z M 463.84375 800.28125 C 469.61235 800.29989 475.37877 800.60786 481.125 801.28125 C 480.49564 802.2479 481.00071 801.46295 480.125 802.8125 C 467.92335 820.18168 455.21463 837.18163 442.34375 854.0625 C 431.77643 848.66292 421.08288 843.51823 410.0625 839.0625 C 396.79132 833.66542 383.42765 828.52281 370.09375 823.28125 C 385.51914 813.89627 403.28518 809.08637 420.78125 804.9375 C 434.97619 802.05812 449.42225 800.23465 463.84375 800.28125 z M 324.65625 802.84375 C 326.0316 804.57137 327.44294 806.25771 328.875 807.90625 C 325.57784 808.72455 321.93041 811.75771 318.28125 816.21875 C 320.36878 811.74192 322.49431 807.28559 324.65625 802.84375 z M 499.625 806.875 C 502.23914 808.77822 503.04797 809.78194 499.625 806.875 z M 692.46875 818.0625 C 689.79075 846.9915 688.08561 875.95568 687.53125 904.90625 C 669.02557 905.20224 650.50748 905.27861 632 904.84375 C 645.35822 881.80009 659.12219 858.86918 676 838.1875 C 679.06227 834.31145 676.48345 827.65404 670.84375 820.21875 C 678.04523 819.43862 685.25255 818.7081 692.46875 818.0625 z M 281.21875 914.5 C 281.12018 914.937 281.08855 915.42716 281.0625 915.90625 C 281.17139 915.45044 281.22232 914.97942 281.21875 914.5 z M 614.875 935.96875 C 614.73978 937.6459 614.59486 939.31106 614.3125 940.96875 C 614.2184 941.52075 613.14075 942.805 613.21875 942.25 C 613.52269 940.10043 614.10987 938.0136 614.875 935.96875 z "
     id="path13074" />
</svg>
