<?xml version="1.0" encoding="UTF-8" standalone="no"?>
<svg
   xmlns:dc="http://purl.org/dc/elements/1.1/"
   xmlns:cc="http://creativecommons.org/ns#"
   xmlns:rdf="http://www.w3.org/1999/02/22-rdf-syntax-ns#"
   xmlns:svg="http://www.w3.org/2000/svg"
   xmlns="http://www.w3.org/2000/svg"
   xmlns:sodipodi="http://sodipodi.sourceforge.net/DTD/sodipodi-0.dtd"
   xmlns:inkscape="http://www.inkscape.org/namespaces/inkscape"
   width="1024"
   height="1024"
   id="U8239"
   version="1.1"
   inkscape:version="0.48.0 r9654"
   sodipodi:docname="U+8239.svg">
  <metadata
     id="metadata17">
    <rdf:RDF>
      <cc:Work
         rdf:about="">
        <dc:format>image/svg+xml</dc:format>
        <dc:type
           rdf:resource="http://purl.org/dc/dcmitype/StillImage" />
      </cc:Work>
    </rdf:RDF>
  </metadata>
  <defs
     id="defs15" />
  <sodipodi:namedview
     pagecolor="#ffffff"
     bordercolor="#666666"
     borderopacity="1"
     objecttolerance="10"
     gridtolerance="10"
     guidetolerance="10"
     inkscape:pageopacity="0"
     inkscape:pageshadow="2"
     inkscape:window-width="640"
     inkscape:window-height="480"
     id="namedview13"
     showgrid="false"
     inkscape:zoom="0.27441406"
     inkscape:cx="512"
     inkscape:cy="512"
     inkscape:window-x="0"
     inkscape:window-y="25"
     inkscape:window-maximized="0"
     inkscape:current-layer="U8239" />
  <path
     style="fill:#800000;fill-opacity:1;fill-rule:nonzero;stroke:#f9f9f9;stroke-width:0.1;stroke-miterlimit:4;stroke-dasharray:none"
     d="M 266.40625 152.6875 C 260.95583 152.76697 257.02934 154.19541 255.6875 157.40625 C 242.2965 195.20125 230.2104 233.4325 216.875 271.25 C 202.29386 312.76582 184.4335 352.94347 164.9375 392.34375 C 162.36379 394.62931 159.83093 396.98276 157.375 399.4375 C 137.10479 422.73167 122.27595 448.36302 117.625 478.96875 C 98.729847 484.46976 82.381695 493.26697 84.40625 501.4375 C 91.53805 534.3284 93.2458 568.1229 95.3125 601.625 C 98.0601 655.5391 99.32545 709.4986 101.46875 763.4375 C 103.40145 804.6843 105.5467 845.9328 108.4375 887.125 C 109.9613 905.4897 196.55505 898.3021 195.03125 879.9375 C 191.15555 840.0267 188.9666 799.9736 186.875 759.9375 C 186.4575 750.12481 186.07887 740.31468 185.71875 730.5 C 202.50837 752.75742 219.47778 774.85974 237.40625 796.21875 C 240.86545 800.15955 244.32205 804.1217 247.78125 808.0625 C 259.96955 821.8461 324.9383 764.37725 312.75 750.59375 C 309.7153 747.19065 306.69095 743.778 303.65625 740.375 C 285.95465 719.4772 269.3494 697.7028 253.75 675.1875 C 244.93605 663.19078 197.88126 694.09401 185.15625 714.5625 C 183.79441 675.25876 182.67026 635.94684 180.9375 596.65625 C 179.25618 565.86745 177.63856 534.93896 173.40625 504.375 C 180.30812 504.43369 186.74833 503.93273 191.90625 502.78125 C 189.34808 505.73769 188.24009 508.63184 189.15625 511.28125 C 199.04705 536.31095 212.41315 559.7142 224.40625 583.75 C 232.70685 600.2187 310.3632 561.0936 302.0625 544.625 C 291.6577 524.1679 280.1044 504.1505 272 482.625 C 267.79624 470.46815 226.88899 480.44897 204.0625 493.5625 C 205.26282 479.03576 211.87575 467.80531 221.90625 457.59375 C 241.10515 440.61375 264.94135 430.4265 288.46875 421 C 303.83621 415.72014 319.57117 409.79427 335.78125 407.5 C 339.88555 451.88689 337.49943 496.62866 335.96875 541.09375 C 333.01655 611.87305 328.46485 682.5757 325.96875 753.375 C 324.44975 798.8198 325.5355 844.25055 328.6875 889.59375 C 329.9561 903.71785 329.35615 897.26635 330.46875 908.90625 C 332.62815 927.33955 419.5344 917.1832 417.375 898.75 C 415.9733 888.8891 416.6934 894.26415 415.25 882.59375 C 411.3208 840.53735 409.7308 798.3065 410.8125 756.0625 C 412.17216 708.4078 414.65828 660.81454 417.21875 613.21875 C 425.58219 640.23386 432.01328 667.81337 438.15625 695.40625 C 447.23555 737.09535 454.38945 779.15985 460.71875 821.34375 C 462.54635 836.00705 465.20855 850.4764 468.46875 864.875 C 472.91075 882.8277 557.53575 861.8902 553.09375 843.9375 C 549.74065 832.1834 547.8367 820.17515 546 808.09375 C 538.9415 764.23375 531.37245 720.43415 522.15625 676.96875 C 520.33977 668.58006 518.46691 660.21214 516.5625 651.84375 C 528.37197 673.45827 547.58385 695.37798 556.59375 689.6875 C 580.78325 676.2794 608.15475 670.0185 634.84375 663.6875 C 665.87565 656.3027 697.4559 652.4108 729.3125 651.9375 C 730.33817 649.83395 741.39861 652.11344 748.6875 654 C 748.77198 655.04276 749.38944 656.71456 749.5 657.65625 C 750.4615 665.84905 750.20235 664.7218 750.53125 674.0625 C 749.94245 708.7783 743.09695 743.0126 736.59375 777 C 731.2056 802.34531 726.43837 827.87453 720.1875 853.03125 C 692.11479 854.70316 664.10738 857.74978 636.1875 861.375 C 597.8528 866.2596 559.57605 871.6101 521.21875 876.3125 C 502.79415 878.7488 514.29425 965.6238 532.71875 963.1875 C 570.77725 956.8339 608.96995 951.40785 647.21875 946.34375 C 688.91785 941.01095 730.89045 936.48095 772.96875 938.21875 C 781.09167 938.44903 786.09817 921.61935 787.5625 902.75 C 793.5185 902.08162 797.6822 900.15536 798.65625 896.59375 C 807.54495 862.45725 813.91 827.74615 821.0625 793.21875 C 828.8559 752.72185 837.0906 711.93095 837.375 670.53125 C 835.9416 637.80855 831.02745 605.8992 803.96875 584 C 780.32265 569.3537 755.07305 563.9893 727.21875 565.125 C 689.39055 566.3133 651.8675 571.065 615 579.8125 C 578.9249 588.3206 542.42795 597.4133 509.78125 615.5625 C 509.17971 615.94242 508.70496 616.44047 508.28125 617 C 504.81833 603.15425 501.14454 589.34568 497.1875 575.625 C 492.71043 561.10833 436.0065 575.70439 418.375 591.21875 C 419.21378 575.61784 420.06023 560.01129 420.84375 544.40625 C 423.09535 493.03405 426.59435 441.2739 421.15625 390 C 412.07175 345.8759 394.7446 321.09985 346.75 319.34375 C 326.0386 320.56049 305.81552 324.48085 286.0625 330.34375 C 290.04033 320.29828 293.87592 310.21044 297.53125 300.03125 C 310.61295 263.77785 322.428 227.06085 336.4375 191.15625 C 342.25216 177.24259 290.02473 152.34313 266.40625 152.6875 z M 669.9375 163.84375 C 650.19819 164.06074 630.1172 168.75304 611.25 171.96875 C 584.74094 178.4373 558.44333 186.09074 533.5 197.15625 C 527.16544 180.48715 444.33614 196.29622 447.6875 214.21875 C 453.827 244.40625 452.8249 275.29745 450.875 305.84375 C 447.8657 341.78055 441.2267 377.2877 434.5625 412.6875 C 431.3672 430.8402 516.9298 445.9027 520.125 427.75 C 526.4635 389.0945 533.48415 350.48415 536.71875 311.40625 C 537.65669 297.02275 538.35633 282.59433 538.53125 268.1875 C 546.68159 278.15326 554.95689 284.3273 560.25 281.28125 C 582.4729 268.95765 606.9901 261.9158 631.5625 256.0625 C 634.22815 255.15025 648.97185 252.87493 661.75 251.78125 C 660.36871 259.87933 659.74009 269.9624 658.625 275.875 C 648.8542 315.9753 641.749 356.21955 641.3125 397.53125 C 642.8553 443.13555 658.7633 477.52575 689.875 510.09375 C 711.0653 529.53255 737.17305 540.88255 763.96875 550.15625 C 765.31475 550.68415 766.68515 551.2221 768.03125 551.75 C 785.52235 558.0741 815.33485 475.60545 797.84375 469.28125 C 795.76295 468.57025 793.67445 467.86725 791.59375 467.15625 C 777.41765 462.70425 763.2287 457.6974 751.25 448.625 C 736.0013 435.1999 728.7762 418.03915 727.6875 397.65625 C 727.2462 361.71945 735.3794 326.9579 743.5625 292.125 C 750.1333 258.1252 758.46495 218.99495 734.21875 189.34375 C 729.13785 183.13015 721.80445 179.17815 715.59375 174.09375 C 709.23195 171.69175 703.0724 168.6202 696.5 166.875 C 687.80962 164.56744 678.90991 163.74512 669.9375 163.84375 z M 673.875 251.1875 C 678.22878 251.2135 681.19778 251.64288 681.46875 252.75 C 681.72035 253.7781 679.3659 252.9585 678.3125 253.0625 C 677.36099 254.53712 675.15055 253.27963 672.75 251.21875 C 673.11734 251.21549 673.52508 251.18541 673.875 251.1875 z M 350.125 406.53125 C 350.7173 406.77235 352.33305 406.7738 351.90625 407.25 C 350.3348 409.00342 347.61059 407.95021 345.09375 406.625 C 346.77207 406.54693 348.4364 406.51165 350.125 406.53125 z M 751.59375 654.78125 C 754.65967 655.66097 756.25093 656.26821 753.84375 655.8125 C 752.90586 655.86021 752.21948 655.35545 751.59375 654.78125 z "
     id="path21237" />
</svg>
