<?xml version="1.0" encoding="UTF-8" standalone="no"?>
<svg
   xmlns:dc="http://purl.org/dc/elements/1.1/"
   xmlns:cc="http://creativecommons.org/ns#"
   xmlns:rdf="http://www.w3.org/1999/02/22-rdf-syntax-ns#"
   xmlns:svg="http://www.w3.org/2000/svg"
   xmlns="http://www.w3.org/2000/svg"
   xmlns:sodipodi="http://sodipodi.sourceforge.net/DTD/sodipodi-0.dtd"
   xmlns:inkscape="http://www.inkscape.org/namespaces/inkscape"
   width="1024"
   height="1024"
   id="U82F1"
   version="1.1"
   inkscape:version="0.48.0 r9654"
   sodipodi:docname="U+82F1.svg">
  <metadata
     id="metadata14">
    <rdf:RDF>
      <cc:Work
         rdf:about="">
        <dc:format>image/svg+xml</dc:format>
        <dc:type
           rdf:resource="http://purl.org/dc/dcmitype/StillImage" />
      </cc:Work>
    </rdf:RDF>
  </metadata>
  <defs
     id="defs12" />
  <sodipodi:namedview
     pagecolor="#ffffff"
     bordercolor="#666666"
     borderopacity="1"
     objecttolerance="10"
     gridtolerance="10"
     guidetolerance="10"
     inkscape:pageopacity="0"
     inkscape:pageshadow="2"
     inkscape:window-width="640"
     inkscape:window-height="480"
     id="namedview10"
     showgrid="false"
     inkscape:zoom="0.27441406"
     inkscape:cx="512"
     inkscape:cy="512"
     inkscape:window-x="0"
     inkscape:window-y="25"
     inkscape:window-maximized="0"
     inkscape:current-layer="U82F1" />
  <path
     style="fill:#2b1100;fill-opacity:1;fill-rule:nonzero;stroke:none"
     d="M 609.03125 100.53125 C 593.36998 100.57841 580.48945 103.59325 579.71875 110.59375 C 577.80445 142.60575 572.27665 174.2355 566.28125 205.6875 C 565.37813 210.15472 564.45413 214.607 563.5 219.0625 C 517.7561 223.33499 472.11243 228.50361 426.5625 234.46875 C 420.43437 203.65062 414.12525 172.86552 406.90625 142.28125 C 402.11985 124.12625 316.55735 146.68775 321.34375 164.84375 C 328.8881 191.74516 334.7402 219.06794 340.34375 246.4375 C 312.61199 250.57251 285.00609 255.36551 257.84375 262.40625 C 239.86115 267.75625 265.0799 352.5375 283.0625 347.1875 C 307.68631 339.88022 332.94235 335.23839 358.3125 331.28125 C 362.22123 347.39246 366.64063 363.39641 372 379.125 C 375.24014 388.24512 399.17254 384.65547 420.5 376.65625 C 419.88517 390.7071 418.6417 404.71104 417 418.6875 C 396.73663 420.31723 376.53947 422.55665 356.40625 425.65625 C 317.22375 431.59225 277.71215 437.68725 240.15625 450.78125 C 222.75835 457.83825 256.0396 539.83925 273.4375 532.78125 C 304.3094 521.24025 337.2139 516.34175 369.625 511.21875 C 380.70171 509.44845 391.80957 507.99768 402.9375 506.78125 C 393.31821 554.31912 380.69782 601.16344 366.78125 647.625 C 340.46345 650.56125 314.02992 652.39549 287.46875 652.3125 C 245.80825 651.1625 204.19015 647.9405 163.21875 639.9375 C 144.71995 636.8055 129.96995 723.992 148.46875 727.125 C 193.85745 734.005 239.54505 737.26675 285.40625 738.21875 C 302.88166 738.21461 320.31558 737.48151 337.6875 736.1875 C 325.36848 769.41304 311.4202 802.00916 295.15625 833.53125 C 289.52645 843.70725 283.53435 853.76775 276.21875 862.84375 C 274.52645 864.94275 273.1942 868.4525 270.5 868.5625 C 269.963 868.5845 271.10495 867.66375 271.40625 867.21875 C 256.38425 878.52775 309.69675 949.34125 324.71875 938.03125 C 345.91335 920.36425 360.50205 897.054 372.96875 872.625 C 396.41457 824.85823 415.68866 775.23922 432.15625 724.65625 C 456.91203 720.74171 481.60231 716.36369 506.25 712.03125 C 486.55474 722.45809 454.62448 777.46242 468.0625 785.96875 C 497.3154 804.71675 528.6375 819.561 560.4375 833.375 C 600.3973 849.773 641.14845 864.1295 681.09375 880.5625 C 704.50785 890.0925 727.0597 901.49625 748 915.65625 C 763.6661 925.87625 811.8536 852.0335 796.1875 841.8125 C 770.1566 825.2785 742.6078 811.37175 713.9375 799.96875 C 674.567 784.05475 634.5628 769.87125 595.3125 753.65625 C 567.6665 741.48925 540.17285 728.651 515.34375 711.25 C 514.91387 710.97786 514.47425 710.77544 514 710.625 C 549.05534 703.8973 584.26762 698.19287 619.65625 694.0625 C 630.7436 711.73664 694.5469 734.83051 700.59375 719.5625 C 704.40636 709.07772 707.78685 698.52658 709.96875 687.5625 C 737.83501 687.51328 765.72005 689.49879 792.84375 696.125 C 799.37465 697.835 805.7633 700.04025 812.125 702.28125 C 829.9221 708.20825 857.8595 624.302 840.0625 618.375 C 830.848 615.433 821.58965 612.58425 812.15625 610.40625 C 784.55502 604.52973 756.54722 601.65132 728.40625 601.09375 C 729.46648 595.64041 730.50513 590.18454 731.5 584.71875 C 737.0605 548.16175 743.03385 510.5115 727.21875 475.5625 C 723.56565 470.1125 720.51865 464.1975 716.28125 459.1875 C 697.55115 437.0465 668.87965 428.86525 641.59375 423.53125 C 628.00937 421.41958 614.38466 419.72107 600.71875 418.40625 C 605.11404 403.80143 609.22437 389.12347 613.25 374.40625 C 619.98938 349.58385 626.68082 324.73358 633.0625 299.8125 C 670.72168 297.88653 708.42782 297.30718 746.125 298.5 C 762.48186 301.70421 784.60776 297.68391 800.96875 303.25 C 819.07433 301.99051 853.07717 230.9919 837.1875 223.125 C 833.1202 221.54 829.0674 219.96 825 218.375 C 799.7814 212.943 773.85615 212.4545 748.15625 211.5625 C 716.51255 211.07619 684.86047 211.58039 653.25 212.9375 C 659.26823 182.24892 664.58814 151.42309 667.71875 120.28125 C 669.00325 108.61375 635.13336 100.45266 609.03125 100.53125 z M 800.96875 303.25 C 800.58385 303.27678 800.21365 303.25629 799.84375 303.21875 C 801.15824 303.58619 802.46679 303.97602 803.78125 304.34375 C 802.86418 303.94835 801.92763 303.57622 800.96875 303.25 z M 799.84375 303.21875 C 799.1672 303.02964 798.48904 302.84552 797.8125 302.65625 C 798.45654 302.97511 799.1385 303.14718 799.84375 303.21875 z M 541.875 307.09375 C 537.89439 321.85737 533.82578 336.59618 529.6875 351.3125 C 523.8858 371.4375 518.00995 391.542 510.90625 411.25 C 510.51915 412.38194 510.50895 413.5754 510.8125 414.78125 C 508.74993 414.80491 506.68754 414.81404 504.625 414.84375 C 507.10329 393.64035 508.8095 372.36135 509.21875 350.96875 C 509.30052 339.44378 475.96898 334.78578 450.21875 337.25 C 448.2243 331.11314 446.41028 324.92244 444.75 318.6875 C 477.068 314.31099 509.43355 310.41961 541.875 307.09375 z M 516.59375 501.25 C 553.74275 501.431 590.89715 503.53475 627.53125 509.84375 C 631.08385 505.80475 661.7743 523.19075 651 519.84375 C 650.6513 519.94575 650.06885 519.80725 649.96875 520.15625 C 648.19705 526.33825 649.54615 536.3465 648.96875 542.5625 C 647.78745 555.2805 647.07405 558.762 645.15625 571.75 C 643.1252 583.15561 640.8717 594.53454 638.5 605.875 C 590.83935 610.67325 543.49262 618.12218 496.40625 627.34375 C 484.09323 629.50344 471.74568 631.67249 459.40625 633.8125 C 471.6767 590.14685 482.67134 546.12957 491.21875 501.5625 C 499.67326 501.40079 508.13822 501.28699 516.59375 501.25 z "
     id="path12734" />
</svg>
