<?xml version="1.0" encoding="UTF-8" standalone="no"?>
<svg
   xmlns:dc="http://purl.org/dc/elements/1.1/"
   xmlns:cc="http://creativecommons.org/ns#"
   xmlns:rdf="http://www.w3.org/1999/02/22-rdf-syntax-ns#"
   xmlns:svg="http://www.w3.org/2000/svg"
   xmlns="http://www.w3.org/2000/svg"
   xmlns:sodipodi="http://sodipodi.sourceforge.net/DTD/sodipodi-0.dtd"
   xmlns:inkscape="http://www.inkscape.org/namespaces/inkscape"
   width="1024"
   height="1024"
   id="U836F"
   version="1.1"
   inkscape:version="0.48.0 r9654"
   sodipodi:docname="U+836F.svg">
  <metadata
     id="metadata16">
    <rdf:RDF>
      <cc:Work
         rdf:about="">
        <dc:format>image/svg+xml</dc:format>
        <dc:type
           rdf:resource="http://purl.org/dc/dcmitype/StillImage" />
      </cc:Work>
    </rdf:RDF>
  </metadata>
  <defs
     id="defs14" />
  <sodipodi:namedview
     pagecolor="#ffffff"
     bordercolor="#666666"
     borderopacity="1"
     objecttolerance="10"
     gridtolerance="10"
     guidetolerance="10"
     inkscape:pageopacity="0"
     inkscape:pageshadow="2"
     inkscape:window-width="640"
     inkscape:window-height="480"
     id="namedview12"
     showgrid="false"
     inkscape:zoom="0.27441406"
     inkscape:cx="512"
     inkscape:cy="512"
     inkscape:window-x="0"
     inkscape:window-y="25"
     inkscape:window-maximized="0"
     inkscape:current-layer="U836F" />
  <path
     style="fill:#916f6f;fill-opacity:1;fill-rule:nonzero;stroke:#f9f9f9;stroke-width:0.1;stroke-miterlimit:4;stroke-dasharray:none"
     d="M 542 124.28125 C 535.75217 124.25491 531.2422 125.76248 529.84375 129.3125 C 517.27885 165.3965 511.67645 203.343 506.15625 241 C 504.69021 251.02531 503.40072 261.06621 502.25 271.125 C 472.05641 273.70372 441.85638 276.15418 411.65625 278.65625 C 412.01736 257.05404 414.1722 235.48191 421.5 214.96875 C 427.9726 197.35675 344.94145 166.85675 338.46875 184.46875 C 327.52842 217.42907 324.78692 251.84009 324.6875 286.28125 C 287.14923 290.19428 249.56053 295.16986 211.78125 295.34375 C 193.03275 295.34375 193.03275 383.75 211.78125 383.75 C 252.4363 382.19641 292.81658 376.75861 333.21875 372.21875 C 336.57694 388.71722 340.86344 405.04611 346 421.15625 C 354.0863 441.59725 349.5624 431.66575 359.5 450.96875 C 368.412 467.35375 445.63075 425.3225 436.71875 408.9375 C 431.42145 400.3685 434.1084 405.35075 429.125 393.84375 C 425.78429 384.07776 422.94755 374.1829 420.5625 364.1875 C 445.17865 362.12396 469.81809 360.14505 494.4375 358.125 C 493.98443 363.87583 493.53078 369.62631 493.0625 375.375 C 492.5499 380.519 492.04375 385.6695 491.53125 390.8125 C 489.83035 409.2795 576.89295 417.31075 578.59375 398.84375 L 580.03125 381.96875 C 580.75276 371.65396 581.40173 361.31773 582.125 351 C 606.45895 348.92624 630.77915 346.73679 655.09375 344.4375 C 672.50075 342.6595 689.98855 341.66925 707.46875 341.03125 C 726.12075 340.12725 721.8395 252.22 703.1875 253.125 C 684.234 254.248 665.3086 255.616 646.4375 257.75 C 627.81649 259.71763 609.16991 261.59442 590.53125 263.375 C 590.96994 260.18527 591.42506 256.99775 591.90625 253.8125 C 596.63755 222.7875 601.04075 191.247 612.21875 161.75 C 617.705 147.82381 566.51072 124.38457 542 124.28125 z M 495.875 464 C 489.63665 463.99363 485.13497 465.5135 483.75 469.0625 C 471.0715 505.2035 462.19635 542.484 452.53125 579.5 C 441.88245 621.061 429.89835 662.28875 419.71875 703.96875 C 415.46025 724.13675 417.2582 714.22975 414.3125 733.59375 C 411.8041 752.07175 498.89785 763.9165 501.40625 745.4375 C 502.83015 732.4155 501.82865 739.5575 504.71875 724.0625 C 512.37051 690.4611 521.59202 657.25259 530.5 623.96875 C 552.58744 616.83224 575.30608 612.03691 598.1875 608.1875 C 622.3639 604.0425 646.45365 605.56825 670.46875 609.53125 C 683.54445 612.17925 696.6239 615.49525 705.0625 626.40625 C 716.4042 646.49025 718.8137 670.115 721.1875 692.625 C 724.2133 745.884 718.1071 799.144 713.3125 852.125 C 708.6233 900.783 706.0496 949.6605 700.0625 998.1875 C 699.4054 998.8615 696.58775 1024.6142 695.78125 1014.5312 C 687.42185 1031.3013 766.48435 1070.7075 774.84375 1053.9375 C 781.04685 1038.9115 785.99675 1024.3743 786.78125 1007.9062 C 791.79545 958.65225 794.29475 909.167 798.90625 859.875 C 804.20645 801.294 811.07945 742.4565 807.59375 683.5625 C 803.15325 641.2025 796.2311 598.317 767.75 564.75 C 744.053 542.004 716.9817 527.5555 684.125 522.8125 C 650.7231 517.7485 617.08635 516.18675 583.59375 521.96875 C 574.70388 523.48129 565.85856 525.14001 557.03125 526.9375 C 559.80535 518.27121 562.78169 509.67433 566.09375 501.1875 C 571.52708 487.2645 520.34853 464.02498 495.875 464 z M 224.4375 481.34375 C 215.82496 481.43591 209.5714 483.3815 208.34375 487.90625 C 200.62155 515.00125 190.40525 541.30675 181.34375 567.96875 C 172.49005 592.99975 165.6759 618.19475 167.0625 644.84375 C 175.6331 684.53175 203.15955 696.1765 240.21875 695.3125 C 241.89174 695.16714 243.55063 694.99182 245.21875 694.8125 C 242.86634 702.66411 240.57605 710.55424 238.34375 718.4375 C 233.00225 737.7855 228.47035 757.34125 224.59375 777.03125 C 221.40285 793.12725 220.8203 812.25225 232.8125 825.53125 C 238.784 832.14425 247.29755 835.95425 254.53125 841.15625 C 275.57405 847.14125 294.23685 839.97525 314.15625 834.15625 C 331.60495 829.34325 348.48225 822.84875 365.09375 815.71875 C 382.23405 808.22575 346.92155 727.4455 329.78125 734.9375 C 327.81889 735.81668 325.85197 736.65676 323.875 737.5 C 332.48209 706.09868 342.13268 674.94535 354.78125 644.90625 C 366.18175 619.17425 378.15105 593.468 394.21875 570.25 C 405.26525 555.061 333.6716 502.9985 322.625 518.1875 C 306.0827 543.47292 292.69359 570.58409 280.3125 598.09375 C 274.27648 599.79785 268.21411 601.35359 262.09375 602.71875 C 262.80013 600.4596 263.51996 598.23041 264.21875 595.96875 C 273.75025 567.56675 284.6211 539.6225 293.6875 511.0625 C 297.37045 497.48825 250.27511 481.06728 224.4375 481.34375 z M 255.0625 634.71875 C 255.0881 635.05355 255.10993 635.37798 255.125 635.71875 C 254.77599 636.83624 254.83918 636.13998 255.0625 634.71875 z M 544.9375 717.46875 C 527.0577 717.02872 492.11735 789.46672 508.15625 797.40625 C 536.41765 809.46325 564.326 822.277 591.9375 835.75 C 610.1378 844.79 628.39115 853.717 646.65625 862.625 C 663.47735 870.64 701.2587 791.3265 684.4375 783.3125 C 666.2685 774.8635 648.15885 766.301 630.21875 757.375 C 602.77025 743.953 575.0395 731.1565 547.4375 718.0625 C 546.6487 717.67198 545.81683 717.49039 544.9375 717.46875 z M 378.875 831.03125 C 378.00296 831.08593 377.1745 831.33258 376.40625 831.75 C 348.69985 847.28 319.7494 860.40175 290.9375 873.71875 C 260.4828 887.21275 229.9335 900.891 197.9375 910.375 C 179.875 915.4 203.5625 1000.5563 221.625 995.53125 C 257.3786 983.70925 291.85395 968.45625 326.21875 953.15625 C 357.19895 938.98225 388.2563 924.947 418.375 909 C 433.99615 900.51337 396.60656 829.91946 378.875 831.03125 z "
     id="path13075" />
</svg>
