<?xml version="1.0" encoding="UTF-8" standalone="no"?>
<svg
   xmlns:dc="http://purl.org/dc/elements/1.1/"
   xmlns:cc="http://creativecommons.org/ns#"
   xmlns:rdf="http://www.w3.org/1999/02/22-rdf-syntax-ns#"
   xmlns:svg="http://www.w3.org/2000/svg"
   xmlns="http://www.w3.org/2000/svg"
   xmlns:sodipodi="http://sodipodi.sourceforge.net/DTD/sodipodi-0.dtd"
   xmlns:inkscape="http://www.inkscape.org/namespaces/inkscape"
   width="1024"
   height="1024"
   id="U8349"
   version="1.1"
   inkscape:version="0.48.0 r9654"
   sodipodi:docname="U+8349.svg">
  <metadata
     id="metadata16">
    <rdf:RDF>
      <cc:Work
         rdf:about="">
        <dc:format>image/svg+xml</dc:format>
        <dc:type
           rdf:resource="http://purl.org/dc/dcmitype/StillImage" />
      </cc:Work>
    </rdf:RDF>
  </metadata>
  <defs
     id="defs14" />
  <sodipodi:namedview
     pagecolor="#ffffff"
     bordercolor="#666666"
     borderopacity="1"
     objecttolerance="10"
     gridtolerance="10"
     guidetolerance="10"
     inkscape:pageopacity="0"
     inkscape:pageshadow="2"
     inkscape:window-width="640"
     inkscape:window-height="480"
     id="namedview12"
     showgrid="false"
     inkscape:zoom="0.27441406"
     inkscape:cx="512"
     inkscape:cy="512"
     inkscape:window-x="0"
     inkscape:window-y="25"
     inkscape:window-maximized="0"
     inkscape:current-layer="U8349" />
  <path
     style="fill:#800000;fill-opacity:1;fill-rule:nonzero;stroke:#f9f9f9;stroke-width:0.1;stroke-miterlimit:4;stroke-dasharray:none"
     d="M 601.28125 54.75 C 595.10296 54.900184 590.68884 56.513033 589.40625 60.0625 C 577.78875 94.7642 569.7705 130.52345 561.625 166.15625 C 560.01321 173.64622 558.4016 181.14474 556.75 188.625 C 549.23344 189.65664 541.70186 190.67214 534.1875 191.71875 C 488.7336 198.11839 443.29746 204.6051 397.90625 211.4375 C 395.88266 184.55313 395.18066 157.56594 398.3125 130.75 C 400.5143 112.3101 313.5768 101.9351 311.375 120.375 C 308.52049 155.14087 310.00665 189.98724 312.9375 224.6875 C 312.38469 224.77732 311.83404 224.87878 311.28125 224.96875 C 264.96465 232.80855 218.19725 239.93495 173.34375 254.28125 C 156.05135 261.08005 188.11385 342.6112 205.40625 335.8125 C 244.12591 322.57005 284.80152 316.1137 324.96875 308.875 C 329.06177 327.58654 334.78017 345.82984 344.125 362.53125 C 347.7024 368.92495 352.3379 374.6779 356.4375 380.75 L 362.53125 386.25 C 359.41395 389.06995 356.38044 392.06176 353.5 395.25 C 342.1415 409.968 411.54775 463.49925 422.90625 448.78125 C 440.80175 434.85995 463.47975 428.90245 484.84375 422.59375 C 524.16945 412.14635 564.60665 407.56985 605.21875 408.34375 C 610.49835 409.15195 647.0633 411.01795 644.25 423.21875 C 644.7479 438.23235 642.9885 453.29615 640.375 468.15625 C 634.7385 496.12025 625.02075 522.993 612.90625 548.75 C 611.19455 551.7751 609.4617 554.7875 607.75 557.8125 C 598.935 573.9966 675.2474 615.559 684.0625 599.375 C 686.6044 594.5907 689.1456 589.81555 691.6875 585.03125 C 706.5516 552.21955 718.84885 518.22695 725.78125 482.78125 C 732.20125 444.53865 735.19315 406.00855 714.21875 371.34375 C 709.69655 365.91945 705.73855 359.9659 700.65625 355.0625 C 677.05889 332.29622 644.30402 325.12025 612.6875 322.59375 C 613.02078 321.37855 612.88642 321.87559 613.28125 320.4375 C 618.20823 301.87342 622.87025 283.23436 627.34375 264.5625 C 659.50879 260.30768 691.68072 255.9135 723.75 250.96875 C 738.9687 248.55225 754.1545 245.99805 769.375 243.59375 C 787.5667 240.38785 772.4417 154.63785 754.25 157.84375 C 739.5236 160.70785 724.81395 163.5616 710.03125 166.125 C 689.28349 169.64189 668.47346 172.85411 647.65625 175.90625 C 654.44231 146.87973 661.29005 117.77807 671.78125 89.84375 C 676.81288 75.918917 625.51915 54.160817 601.28125 54.75 z M 535.8125 276.75 C 533.97102 283.8946 532.11431 291.03217 530.1875 298.15625 C 524.55393 318.18219 524.64162 317.81912 521.71875 327.75 C 501.16606 330.63601 480.75598 334.65572 460.59375 340.03125 C 448.40959 343.59431 436.14509 347.28636 424.15625 351.625 C 429.79568 340.82246 432.02021 331.39871 427.375 327.8125 C 427.0356 328.298 426.68315 328.79565 426.34375 329.28125 C 417.66647 320.70685 412.69333 308.4137 409.4375 295.0625 C 451.50145 288.57088 493.65445 282.59939 535.8125 276.75 z M 279.21875 439.6875 C 261.98867 439.67234 247.18959 442.94403 246.5625 450.46875 C 245.1729 484.91975 248.51885 519.2987 252.78125 553.4375 C 257.85825 582.7473 261.8186 614.9946 279.6875 639.9375 C 283.5392 645.314 288.3882 649.87215 292.75 654.84375 C 300.59154 662.64139 325.71781 643.70637 341.875 624.40625 C 345.58451 645.13092 353.39129 664.43701 362.21875 663 C 396.02555 657.0539 429.863 651.25715 463.75 645.78125 C 474.25337 645.40025 486.6615 642.58695 499.125 640.59375 C 500.41507 656.81209 501.70248 673.02834 502.9375 689.25 C 495.52795 690.46447 488.10718 691.75431 480.71875 693.15625 C 412.50265 705.51815 344.7246 719.93465 276.625 732.90625 C 239.2351 739.69955 201.80545 746.37675 164.09375 751.15625 C 145.73815 754.13285 159.7695 840.6641 178.125 837.6875 C 216.3042 831.2491 254.3631 824.2366 292.375 816.875 C 360.1548 803.2068 427.73395 788.6109 495.78125 776.3125 C 500.10162 775.49783 504.42157 774.74263 508.75 774 C 511.43968 820.31984 515.49478 866.54357 521.46875 912.5625 C 524.06675 933.5984 528.67045 954.1671 535.34375 974.25 C 541.57135 991.6861 623.7901 962.3111 617.5625 944.875 C 611.761 930.8623 609.32795 915.8172 606.78125 900.9375 C 600.28412 855.52169 596.14723 809.83901 593.71875 764.03125 C 620.40364 762.33652 647.1639 761.97201 673.96875 762.90625 C 707.25585 764.77345 740.1559 770.35685 772.9375 776.15625 C 776.2631 776.71365 779.612 777.28635 782.9375 777.84375 C 801.2261 780.68965 814.63225 694.4709 796.34375 691.625 L 787.21875 690.3125 C 750.45965 684.5669 713.6106 678.7976 676.375 677.3125 C 647.07029 676.65491 617.81973 677.30858 588.65625 679.3125 C 587.7458 663.68826 586.91712 648.04362 586.3125 632.40625 C 586.073 625.1616 572.58327 621.21287 556.28125 620.15625 C 565.24236 595.71854 568.9405 559.01929 557.21875 556.46875 C 521.40025 550.00145 485.68065 554.51345 450.03125 560.71875 C 416.09205 566.17115 382.23435 572.0187 348.15625 576.5625 C 347.28265 576.70471 346.4795 577.02884 345.75 577.53125 C 343.9529 571.33348 342.24368 564.43189 341.09375 558.5 C 340.07295 553.2338 339.35095 547.9161 338.46875 542.625 C 334.88335 514.5123 331.9229 486.1157 333.875 457.75 C 334.79145 446.75227 304.40117 439.70965 279.21875 439.6875 z M 574.125 447.84375 C 547.48384 447.78471 520.98586 450.55768 494.59375 454.8125 C 458.40335 460.4591 422.00185 466.30725 387.09375 477.71875 C 369.77905 484.50885 401.77905 566.13385 419.09375 559.34375 C 447.80325 549.34655 478.04315 544.59475 507.96875 539.84375 C 533.90395 536.27395 560.1254 532.2359 586.3125 535 C 604.6972 536.3329 610.97845 449.67665 592.59375 448.34375 C 586.43167 448.00871 580.27296 447.85737 574.125 447.84375 z "
     id="path20573" />
</svg>
