<?xml version="1.0" encoding="UTF-8" standalone="no"?>
<svg
   xmlns:dc="http://purl.org/dc/elements/1.1/"
   xmlns:cc="http://creativecommons.org/ns#"
   xmlns:rdf="http://www.w3.org/1999/02/22-rdf-syntax-ns#"
   xmlns:svg="http://www.w3.org/2000/svg"
   xmlns="http://www.w3.org/2000/svg"
   xmlns:sodipodi="http://sodipodi.sourceforge.net/DTD/sodipodi-0.dtd"
   xmlns:inkscape="http://www.inkscape.org/namespaces/inkscape"
   width="1024"
   height="1024"
   id="U889C"
   version="1.1"
   inkscape:version="0.48.0 r9654"
   sodipodi:docname="U+889C.svg">
  <metadata
     id="metadata16">
    <rdf:RDF>
      <cc:Work
         rdf:about="">
        <dc:format>image/svg+xml</dc:format>
        <dc:type
           rdf:resource="http://purl.org/dc/dcmitype/StillImage" />
      </cc:Work>
    </rdf:RDF>
  </metadata>
  <defs
     id="defs14" />
  <sodipodi:namedview
     pagecolor="#ffffff"
     bordercolor="#666666"
     borderopacity="1"
     objecttolerance="10"
     gridtolerance="10"
     guidetolerance="10"
     inkscape:pageopacity="0"
     inkscape:pageshadow="2"
     inkscape:window-width="640"
     inkscape:window-height="480"
     id="namedview12"
     showgrid="false"
     inkscape:zoom="0.27441406"
     inkscape:cx="512"
     inkscape:cy="512"
     inkscape:window-x="0"
     inkscape:window-y="25"
     inkscape:window-maximized="0"
     inkscape:current-layer="U889C" />
  <path
     style="fill:#501616;fill-opacity:1;fill-rule:nonzero;stroke:#f9f9f9;stroke-width:0.1;stroke-miterlimit:4;stroke-dasharray:none"
     d="M 652.5 150.3125 C 645.49136 150.31552 640.41442 151.93472 639.0625 155.8125 C 625.8341 203.8345 624.41545 254.06725 622.46875 303.53125 C 621.95447 323.24515 621.63902 342.93964 621.46875 362.65625 C 582.97609 364.03515 544.24038 365.87746 505.84375 362.15625 C 487.29235 359.44825 474.54235 446.917 493.09375 449.625 C 535.83882 452.77403 578.74991 450.73987 621.53125 449.0625 C 621.74191 475.39481 622.09965 501.7322 622.46875 528.0625 C 588.00376 530.20014 553.53577 532.66941 519.09375 535.25 C 474.23475 538.404 429.3984 541.82625 384.5625 545.28125 C 365.8752 546.71925 372.65655 634.812 391.34375 633.375 C 435.95365 628.074 480.75685 624.4955 525.53125 620.9375 C 534.57049 620.18509 543.61458 619.46038 552.65625 618.75 C 535.31471 638.99719 519.32992 660.4603 503.375 681.78125 C 477.5094 716.42225 452.6005 751.80975 431.75 789.71875 C 422.9913 806.09375 500.1788 847.375 508.9375 831 C 526.724 796.479 549.5875 764.9795 572.625 733.8125 C 588.98917 712.11916 605.30472 690.06579 623.9375 670.21875 C 624.05877 715.31305 623.84632 760.40587 623.5 805.5 C 623.6646 846.363 622.0599 887.281 623.75 928.125 C 624.8178 946.743 712.59905 941.6805 711.53125 923.0625 C 708.46445 884.0395 710.271 844.7805 709.3125 805.6875 C 709.22902 779.26031 709.11586 752.83306 708.96875 726.40625 C 709.27785 728.67082 710.18454 730.46478 711.78125 731.5625 C 741.36995 750.1055 772.2315 766.4665 803 782.9375 C 840.0819 802.1845 875.77775 823.81925 910.40625 847.15625 C 927.69295 859.36025 919.3952 853.3655 935.375 865.0625 C 950.4535 875.9045 1001.5785 804.81175 986.5 793.96875 C 968.7678 781.42575 977.9921 787.88125 958.75 774.65625 C 921.645 750.15425 883.57725 727.19575 844.21875 706.46875 C 816.33775 691.32975 788.22835 676.395 761.90625 658.625 C 748.85975 649.65487 711.14833 700.12347 708.9375 722.53125 C 708.72053 684.77838 708.41922 647.03141 707.90625 609.28125 C 713.67576 609.05047 719.44732 608.82391 725.21875 608.625 C 774.39895 607.144 823.6169 607.1365 872.8125 607.5625 C 891.9119 607.7875 882.6437 607.836 900.625 607.5 C 919.2624 606.875 916.3249 519.03225 897.6875 519.65625 C 882.6909 520.44625 890.97395 520.16175 872.78125 520.34375 C 822.54845 520.80375 772.30275 521.24975 722.09375 522.96875 C 716.94094 523.1664 711.80764 523.4048 706.65625 523.625 C 706.31375 497.83039 706.03633 472.01556 705.9375 446.21875 C 724.5037 446.02678 743.06485 446.27568 761.625 447.25 C 771.1155 447.612 780.26645 449.42375 789.28125 452.21875 C 807.34145 456.95975 829.6852 371.83475 811.625 367.09375 C 796.3927 363.41175 781.10885 360.28825 765.34375 360.03125 C 745.71155 359.35903 726.09369 359.3262 706.46875 359.65625 C 706.79202 342.23687 707.27349 324.82014 707.9375 307.40625 C 710.0724 266.44925 711.29345 224.6165 722.65625 184.9375 C 727.48453 171.0875 677.53086 150.3017 652.5 150.3125 z M 257.125 178.625 C 234.63447 178.93846 181.17476 212.34484 189.03125 226.09375 C 205.81625 253.80775 224.92455 279.994 244.03125 306.125 C 247.11185 310.34 250.1694 314.535 253.25 318.75 C 264.2617 333.69 334.6992 281.78375 323.6875 266.84375 C 320.6079 262.70075 317.5171 258.54925 314.4375 254.40625 C 297.2226 231.04625 279.84235 207.6765 265.84375 182.1875 C 264.38884 179.64156 261.28991 178.56695 257.125 178.625 z M 217.9375 340.90625 C 215.55825 340.91769 213.19156 340.93887 210.8125 340.96875 C 173.5949 342.05375 136.31015 343.9945 99.46875 349.6875 C 81.05965 353.2825 98.0284 440.06475 116.4375 436.46875 C 148.3828 430.41475 180.97555 428.83375 213.40625 427.84375 C 240.64952 427.65206 267.96022 428.61581 295 432 C 293.06683 435.11374 290.16116 439.78665 289.9375 440.125 C 267.4031 473.971 242.2466 505.881 216.125 537 C 190.536 567.271 163.54045 596.44975 131.90625 620.46875 C 128.48475 622.66975 125.07765 624.8625 121.65625 627.0625 C 106.23275 637.3955 154.92025 710.11425 170.34375 699.78125 C 175.41925 696.29025 180.51825 692.77325 185.59375 689.28125 C 196.31828 680.7549 206.6541 671.82151 216.6875 662.5625 C 217.25732 681.59215 217.50448 700.62947 217.75 719.65625 C 217.9959 781.88925 217.98425 844.1375 220.90625 906.3125 C 222.09755 933.5615 225.3353 960.55125 231.25 987.15625 C 235.6825 1005.2473 320.96375 984.37225 316.53125 966.28125 C 310.54615 945.30925 308.71305 923.4985 307.09375 901.8125 C 303.57795 840.9315 303.55185 779.968 303.78125 719 C 303.77112 715.5945 303.73089 712.18689 303.71875 708.78125 C 324.64825 717.06494 345.10127 726.48623 365.125 736.78125 C 376.0605 742.26525 386.2047 749.0485 396.1875 756.0625 C 411.5645 766.5715 461.09575 694.0715 445.71875 683.5625 C 432.51765 674.7175 419.1927 666.06875 404.9375 658.96875 C 377.887 645.18775 350.2391 632.70275 322.1875 621.09375 C 316.5634 618.89526 309.4348 625.9636 302.90625 636.75 C 302.53198 621.63921 301.96349 606.53604 301.15625 591.4375 C 300.84393 587.5507 296.80583 584.75677 290.59375 582.96875 C 315.85664 552.58841 340.25869 521.51723 362.65625 488.9375 C 380.56725 462.6145 399.75905 436.99925 396.90625 403.40625 C 394.40005 396.61025 392.9879 389.30925 389.375 383.03125 C 376.0452 359.86825 349.0356 352.07625 324.6875 347.65625 C 289.33944 342.69406 253.6263 340.73458 217.9375 340.90625 z M 320 437.15625 C 323.06645 438.21816 325.84643 439.21064 325.53125 439.21875 C 323.49136 439.28231 321.64335 438.46908 320 437.15625 z M 623.59375 613.6875 C 623.60366 614.6979 623.61551 615.70834 623.625 616.71875 C 622.8195 615.74931 621.98971 614.79824 621.15625 613.84375 C 621.96833 613.79176 622.78164 613.73902 623.59375 613.6875 z "
     id="path12586" />
</svg>
