<?xml version="1.0" encoding="UTF-8" standalone="no"?>
<svg
   xmlns:dc="http://purl.org/dc/elements/1.1/"
   xmlns:cc="http://creativecommons.org/ns#"
   xmlns:rdf="http://www.w3.org/1999/02/22-rdf-syntax-ns#"
   xmlns:svg="http://www.w3.org/2000/svg"
   xmlns="http://www.w3.org/2000/svg"
   xmlns:sodipodi="http://sodipodi.sourceforge.net/DTD/sodipodi-0.dtd"
   xmlns:inkscape="http://www.inkscape.org/namespaces/inkscape"
   width="1024"
   height="1024"
   id="U88AB"
   version="1.1"
   inkscape:version="0.48.0 r9654"
   sodipodi:docname="U+88AB.svg">
  <metadata
     id="metadata16">
    <rdf:RDF>
      <cc:Work
         rdf:about="">
        <dc:format>image/svg+xml</dc:format>
        <dc:type
           rdf:resource="http://purl.org/dc/dcmitype/StillImage" />
      </cc:Work>
    </rdf:RDF>
  </metadata>
  <defs
     id="defs14" />
  <sodipodi:namedview
     pagecolor="#ffffff"
     bordercolor="#666666"
     borderopacity="1"
     objecttolerance="10"
     gridtolerance="10"
     guidetolerance="10"
     inkscape:pageopacity="0"
     inkscape:pageshadow="2"
     inkscape:window-width="640"
     inkscape:window-height="480"
     id="namedview12"
     showgrid="false"
     inkscape:zoom="0.27441406"
     inkscape:cx="512"
     inkscape:cy="512"
     inkscape:window-x="0"
     inkscape:window-y="25"
     inkscape:window-maximized="0"
     inkscape:current-layer="U88AB" />
  <path
     style="fill:#aa0000;fill-opacity:1;fill-rule:nonzero;stroke:#f9f9f9;stroke-width:0.1;stroke-miterlimit:4;stroke-dasharray:none"
     d="M 236.34375 99.15625 C 217.12337 99.758535 169.38313 153.67417 181.75 165.125 C 202.8583 183.6681 225.85385 199.8303 247.71875 217.4375 C 250.92475 220.3481 254.13785 223.24565 257.34375 226.15625 C 271.03145 238.43245 328.90635 173.9012 315.21875 161.625 C 310.82515 157.7197 306.42485 153.81155 302.03125 149.90625 C 281.73825 133.59585 260.3854 118.54725 241.3125 100.78125 C 240.03317 99.596681 238.33207 99.093945 236.34375 99.15625 z M 655.375 148.375 C 632.22875 148.51514 607.70937 153.96243 608.03125 163.8125 C 610.24622 203.8517 610.68829 243.9397 610.4375 284.03125 C 578.2128 291.17813 546.2272 299.29351 514.28125 307.625 C 502.63254 310.86076 508.51192 347.76598 518.96875 371.71875 C 500.32868 369.85276 483.28717 371.77484 482.03125 379.75 C 477.45495 422.7492 474.1685 465.8389 469.3125 508.8125 C 464.09292 553.5269 455.39945 597.66448 445.03125 641.40625 C 444.43285 637.49068 442.91516 634.75739 440.28125 633.75 C 424.89685 627.9913 432.7938 630.99845 416.6875 624.65625 C 390.6666 613.70325 365.13175 601.64795 339.96875 588.84375 C 329.92727 584.21591 312.88515 610.52656 304.28125 634.21875 C 305.95635 601.61862 307.27367 568.98658 307.5625 536.34375 C 331.68262 500.66848 355.65772 464.85599 377.3125 427.625 C 397.9053 388.8639 415.30665 347.8022 369.65625 316.75 C 364.30525 313.1102 357.61605 312.02545 351.59375 309.65625 C 315.04655 303.53285 278.07685 306.84055 241.34375 310.15625 C 207.70395 313.61395 174.1703 317.8598 141 324.5625 C 122.8167 328.471 141.2542 414.18975 159.4375 410.28125 C 189.2697 402.87855 219.76925 399.0983 250.28125 395.875 C 265.62942 395.96343 281.95127 393.10127 298.0625 392.0625 C 273.94803 434.01288 246.62538 474.00239 219.71875 514.1875 C 187.26155 562.2114 155.5653 610.76115 125.4375 660.28125 C 115.1534 676.92555 105.6175 693.996 95.625 710.8125 C 92.3588 716.3092 88.25105 724.6621 83.34375 729.25 C 72.09435 744.0545 141.8756 797.08575 153.125 782.28125 C 170.4656 757.64615 182.9476 729.99635 198.875 704.46875 C 204.63146 694.80147 210.47632 685.20301 216.375 675.625 C 213.6409 722.24226 211.73262 768.87823 212.15625 815.59375 C 212.58265 839.06615 214.06945 862.4606 216.96875 885.75 C 219.56795 904.0429 305.81785 891.7929 303.21875 873.5 C 299.95385 853.9532 298.67445 834.20335 297.96875 814.40625 C 297.02361 765.48816 299.2513 716.65153 302.375 667.84375 C 302.67038 668.05558 302.97483 668.25063 303.3125 668.40625 C 329.7709 680.57255 356.05155 693.04525 382.84375 704.46875 C 400.95355 711.79635 392.15895 708.2865 409.21875 714.9375 C 416.13378 717.58228 425.26998 706.08099 432.625 690.9375 C 430.51065 699.02485 428.38923 707.08727 426.21875 715.15625 C 411.18625 768.77625 393.9848 821.7668 375.9375 874.4375 C 369.9123 891.3599 364.2993 908.36895 360.6875 925.96875 C 357.5928 944.28085 443.93655 958.84335 447.03125 940.53125 C 447.20475 927.16075 455.33735 914.5393 457.71875 901.625 C 470.40651 862.32661 482.82485 822.95524 494.5 783.34375 C 514.88405 797.02197 536.04894 809.51986 557.5625 821.40625 C 573.83342 829.97219 590.36443 838.03349 607.03125 845.78125 C 594.45479 861.3785 581.45273 876.59982 567.5625 891.09375 C 559.2717 899.66855 550.35875 906.39075 539.34375 910.71875 C 522.90325 918.98125 561.84075 996.48125 578.28125 988.21875 C 597.50455 977.78645 615.5151 966.7277 630.25 950.125 C 650.71348 928.06874 669.68381 904.79339 688.0625 881.03125 C 691.55751 882.48037 695.06524 883.93354 698.5625 885.375 C 736.7741 900.8471 775.62935 914.60125 813.34375 931.28125 C 825.75805 936.81425 837.59315 943.48795 849.15625 950.59375 C 865.08165 960.06455 909.70665 884.9708 893.78125 875.5 C 878.86475 866.8517 863.6769 858.71325 847.8125 851.90625 C 812.7775 836.93989 776.92634 824.11645 741.46875 810.21875 C 766.1983 777.36781 790.90874 744.50577 814.875 711.09375 C 830.3321 688.28885 850.0374 660.964 842.375 631.4375 C 840.3847 623.7684 835.4951 617.1409 832.0625 610 C 826.9125 605.5017 822.3079 600.3029 816.625 596.5 C 796.4784 583.0181 769.30935 585.28655 746.46875 585.09375 C 703.75265 587.75065 661.5061 594.69165 620.0625 605.46875 C 590.9817 613.14751 562.00446 621.38533 533.8125 631.875 C 542.10544 594.49494 549.12514 556.85557 553.90625 518.8125 C 559.04235 477.0242 562.58685 435.0524 568.53125 393.375 C 569.02553 390.23632 566.90155 387.22578 563.03125 384.5 C 578.14412 380.2599 593.32755 376.33167 608.59375 372.6875 C 606.63105 427.04033 603.49633 481.35563 600.4375 535.65625 C 599.0063 567.85165 599.52315 552.39185 598.84375 581.96875 C 598.62905 600.24905 684.81655 601.2803 685.03125 583 C 685.01235 555.888 684.83025 570.25395 685.65625 539.90625 C 685.74647 537.82308 685.84609 535.73937 685.9375 533.65625 C 700.22248 553.54665 743.69946 581.13137 751.96875 569.71875 C 756.97025 562.74705 761.96725 555.7842 766.96875 548.8125 C 793.73625 507.5565 819.6087 465.1746 836.625 418.8125 C 848.2696 379.0118 851.42795 345.30585 820.65625 313.03125 C 798.67425 294.02855 773.6383 281.5685 744.6875 277 C 728.2386 274.42605 711.75909 273.12402 695.3125 273.0625 C 695.74824 235.68929 695.79908 198.31695 695.4375 160.9375 C 695.15348 152.24627 675.79816 148.25135 655.375 148.375 z M 693.4375 359.28125 C 705.74895 359.32916 718.07181 360.46797 730.375 362.71875 C 742.1488 365.16925 753.6987 368.7253 762 377.75 C 762.01 378.1243 762.36865 378.7125 762.03125 378.875 C 761.27005 379.2415 759.7311 377.46875 759.25 377.46875 C 757.5869 377.47385 755.6114 387.5868 753.625 393.875 C 739.1371 432.4051 717.57915 467.7319 695.15625 502.0625 C 692.3874 505.83865 689.6126 509.59883 686.84375 513.375 C 689.17021 462.0183 691.68396 410.66062 693.4375 359.28125 z M 324.46875 392.84375 C 327.8665 393.37844 331.22807 394.11273 334.53125 395.125 C 329.69669 395.25638 327.79713 395.61225 324.46875 392.84375 z M 736.0625 672.46875 C 711.54361 707.47835 685.98428 741.73788 660.4375 776 C 639.7623 766.68668 619.32063 756.88081 599.28125 746.25 C 583.38133 737.38064 567.63965 728.17249 552.46875 718.125 C 581.2136 705.19541 611.69821 696.65259 642.09375 688.5625 C 672.94841 680.57516 704.33234 674.90145 736.0625 672.46875 z M 772.875 672.53125 C 778.53105 673.3561 779.18712 674.36381 778.875 674.375 C 776.8177 674.4489 774.79003 673.64966 772.875 672.53125 z "
     id="path19987" />
</svg>
