<?xml version="1.0" encoding="UTF-8" standalone="no"?>
<svg
   xmlns:dc="http://purl.org/dc/elements/1.1/"
   xmlns:cc="http://creativecommons.org/ns#"
   xmlns:rdf="http://www.w3.org/1999/02/22-rdf-syntax-ns#"
   xmlns:svg="http://www.w3.org/2000/svg"
   xmlns="http://www.w3.org/2000/svg"
   xmlns:sodipodi="http://sodipodi.sourceforge.net/DTD/sodipodi-0.dtd"
   xmlns:inkscape="http://www.inkscape.org/namespaces/inkscape"
   width="1024"
   height="1024"
   id="U8863"
   version="1.1"
   inkscape:version="0.48.0 r9654"
   sodipodi:docname="U+8863.svg">
  <metadata
     id="metadata13">
    <rdf:RDF>
      <cc:Work
         rdf:about="">
        <dc:format>image/svg+xml</dc:format>
        <dc:type
           rdf:resource="http://purl.org/dc/dcmitype/StillImage" />
      </cc:Work>
    </rdf:RDF>
  </metadata>
  <defs
     id="defs11" />
  <sodipodi:namedview
     pagecolor="#ffffff"
     bordercolor="#666666"
     borderopacity="1"
     objecttolerance="10"
     gridtolerance="10"
     guidetolerance="10"
     inkscape:pageopacity="0"
     inkscape:pageshadow="2"
     inkscape:window-width="640"
     inkscape:window-height="480"
     id="namedview9"
     showgrid="false"
     inkscape:zoom="0.27441406"
     inkscape:cx="512"
     inkscape:cy="512"
     inkscape:window-x="0"
     inkscape:window-y="25"
     inkscape:window-maximized="0"
     inkscape:current-layer="U8863" />
  <path
     style="fill:#2b1100;fill-opacity:1;fill-rule:nonzero;stroke:none"
     d="M 488 66.8125 C 465.50792 66.872508 411.67386 99.664187 419.375 113.5 C 433.69885 139.192 450.62313 163.15625 468.40625 186.53125 C 480.07824 202.30325 493.23813 217.0425 503.6875 233.6875 C 514.00059 249.2755 587.50059 200.68275 577.1875 185.09375 C 565.02266 167.23075 551.31282 150.538 538.03125 133.5 C 522.76399 113.488 508.0314 93.03075 496.6875 70.46875 C 495.26136 67.906562 492.1652 66.801387 488 66.8125 z M 705.84375 245.5 C 640.25167 246.234 574.83818 251.678 509.65625 258.875 C 432.28473 267.74 355.09776 278.01525 278.34375 291.28125 C 237.11017 298.60925 195.88585 306.0935 154.84375 314.4375 C 136.53358 318.6225 156.28358 404.935 174.59375 400.75 C 213.21457 391.17306 252.29792 383.68592 291.375 376.25 C 275.92835 419.51469 259.52951 462.45159 244.09375 505.71875 C 224.56943 562.91375 202.84283 619.3385 186.9375 677.6875 C 181.71578 699.5385 178.22367 721.711 175.59375 744 C 173.70381 762.584 261.29756 771.48925 263.1875 752.90625 C 264.63236 735.05225 267.03365 717.299 270.6875 699.75 C 280.90507 659.36276 294.77748 620.12565 308.71875 580.90625 C 309.1802 602.29233 309.8859 623.68495 310.6875 645.0625 C 311.94788 694.1235 315.41284 742.93225 326 790.90625 C 332.82817 815.94425 340.14039 841.0945 352.15625 864.1875 C 356.70639 871.7585 354.44858 868.247 358.8125 874.75 C 369.75917 890.082 442.04042 838.457 431.09375 823.125 C 430.97875 823.056 430.86501 823.0075 430.75 822.9375 L 429.46875 821.1875 C 418.72355 807.4815 417.93935 786.75075 410.9375 771.34375 C 400.62096 728.98375 398.37667 685.5295 397.09375 642.0625 C 396.10613 611.16831 395.19084 580.22215 395.8125 549.3125 C 414.62901 566.53889 433.50132 583.72888 452.6875 600.5625 C 508.53764 650.1175 569.19186 693.414 632.21875 733.25 C 689.39223 768.412 749.85458 797.67075 809.28125 828.71875 C 833.95235 841.13875 857.42309 855.4675 879.28125 872.3125 C 894.08396 883.3865 946.3027 813.60525 931.5 802.53125 C 905.39187 783.42125 877.99695 766.38425 848.875 752.15625 C 791.36174 722.72025 732.91892 694.88075 677.6875 661.21875 C 618.49685 623.91775 561.66769 583.1475 509.65625 536.1875 C 476.56445 506.6185 444.30108 476.20725 412.71875 445.03125 C 398.81905 432.45525 339.53779 497.9865 353.4375 510.5625 C 353.79717 510.88994 354.14042 511.23496 354.5 511.5625 C 347.20371 511.26768 339.84031 511.46917 333.1875 512.21875 C 346.43252 476.59878 360.2841 441.22702 374.375 405.9375 C 378.97328 395.36929 350.11906 377.99386 325.46875 370.15625 C 389.76946 359.13063 454.45997 350.59563 519.28125 343.25 C 581.36751 336.656 643.66314 331.7475 706.125 332.0625 C 726.25673 333.5405 747.54128 331.92975 767.0625 338.09375 C 785.26053 342.46375 805.88553 256.65125 787.6875 252.28125 C 760.78221 246.54625 733.31853 245.351 705.84375 245.5 z M 693.40625 348.03125 C 691.81975 348.11365 690.43722 348.61609 689.34375 349.59375 C 666.7383 370.74175 646.36003 394.0855 626.09375 417.4375 C 604.67872 443.6335 582.12351 468.75325 558.0625 492.53125 C 544.90778 505.57725 606.40778 567.57725 619.5625 554.53125 C 645.05543 529.16625 669.18873 502.592 691.96875 474.75 C 709.87143 454.231 727.72393 433.4395 748.34375 415.5625 C 761.24674 404.02616 712.12691 347.05892 693.40625 348.03125 z "
     id="path11781" />
</svg>
