<?xml version="1.0" encoding="UTF-8" standalone="no"?>
<svg
   xmlns:dc="http://purl.org/dc/elements/1.1/"
   xmlns:cc="http://creativecommons.org/ns#"
   xmlns:rdf="http://www.w3.org/1999/02/22-rdf-syntax-ns#"
   xmlns:svg="http://www.w3.org/2000/svg"
   xmlns="http://www.w3.org/2000/svg"
   xmlns:sodipodi="http://sodipodi.sourceforge.net/DTD/sodipodi-0.dtd"
   xmlns:inkscape="http://www.inkscape.org/namespaces/inkscape"
   width="1024"
   height="1024"
   id="U8868"
   version="1.1"
   inkscape:version="0.48.0 r9654"
   sodipodi:docname="U+8868.svg">
  <metadata
     id="metadata15">
    <rdf:RDF>
      <cc:Work
         rdf:about="">
        <dc:format>image/svg+xml</dc:format>
        <dc:type
           rdf:resource="http://purl.org/dc/dcmitype/StillImage" />
      </cc:Work>
    </rdf:RDF>
  </metadata>
  <defs
     id="defs13" />
  <sodipodi:namedview
     pagecolor="#ffffff"
     bordercolor="#666666"
     borderopacity="1"
     objecttolerance="10"
     gridtolerance="10"
     guidetolerance="10"
     inkscape:pageopacity="0"
     inkscape:pageshadow="2"
     inkscape:window-width="640"
     inkscape:window-height="480"
     id="namedview11"
     showgrid="false"
     inkscape:zoom="0.27441406"
     inkscape:cx="512"
     inkscape:cy="512"
     inkscape:window-x="0"
     inkscape:window-y="25"
     inkscape:window-maximized="0"
     inkscape:current-layer="U8868" />
  <path
     style="fill:#aa0000;fill-opacity:1;fill-rule:nonzero;stroke:#f9f9f9;stroke-width:0.1;stroke-miterlimit:4;stroke-dasharray:none"
     d="M 463.78125 96.0625 C 448.28617 96.079902 435.55683 99.044188 434.78125 105.96875 C 433.4463 139.02505 435.2756 172.08724 437.3125 205.125 C 415.95437 206.61583 394.59757 208.68005 373.3125 211.40625 C 323.0989 217.60935 272.73475 224.21055 223.84375 237.65625 C 206.13525 243.27115 232.6041 326.7399 250.3125 321.125 C 293.7456 307.4573 339.10395 301.40025 384.09375 295.40625 C 403.21787 292.8029 422.39754 290.8801 441.59375 289.46875 C 442.30666 307.83962 442.8986 326.2167 443.375 344.59375 C 411.44262 348.43767 379.53194 353.29465 349.09375 363.9375 C 331.94475 371.1238 365.81975 451.96755 382.96875 444.78125 C 402.87723 437.65475 423.69982 433.89266 444.65625 431.09375 C 444.6563 431.11458 444.6562 431.13542 444.65625 431.15625 C 444.43085 462.48025 444.56675 447.32155 444.21875 476.53125 C 444.2078 479.48012 446.46106 481.95845 450.21875 483.96875 C 419.0649 489.93285 387.94833 496.19484 356.90625 502.75 C 313.83875 511.6451 270.6466 520.15 228.1875 531.6875 C 210.3839 537.0622 235.72765 620.9997 253.53125 615.625 C 271.40165 609.94188 289.51241 605.13737 307.75 600.78125 C 296.30794 623.34899 284.27879 645.63806 272.15625 667.84375 C 249.89145 708.48345 224.5235 747.2811 198.75 785.75 C 196.4945 789.0018 194.22415 792.2482 191.96875 795.5 C 181.73145 810.851 254.10645 859.101 264.34375 843.75 C 266.63815 840.1793 268.92445 836.60195 271.21875 833.03125 C 277.50897 823.13967 283.84106 813.27318 290.125 803.375 C 289.82789 838.49509 294.74677 872.46287 310.90625 904.09375 C 338.85315 942.43095 373.31475 943.83735 415.59375 932.78125 C 445.20165 923.26465 474.21975 911.96045 503.46875 901.40625 C 526.16895 893.58405 548.78605 885.5596 571.21875 877 C 580.84693 873.32199 575.29638 846.19624 565.5625 824.3125 C 576.27692 829.04733 586.99261 833.74074 597.71875 838.4375 C 656.29785 864.0791 715.8925 887.3421 775.1875 911.25 C 807.9179 924.72 840.956 937.59465 872.375 953.96875 C 888.89 962.25025 927.92125 884.37525 911.40625 876.09375 C 877.31955 859.54555 842.0088 845.8547 806.8125 831.875 C 753.07271 810.70991 699.16978 789.88925 646.09375 767.09375 C 669.44917 754.1156 692.0531 739.87861 713.4375 723.65625 C 744.5207 701.10725 774.979 677.654 807 656.4375 C 822.5198 646.2605 774.5199 573.10435 759 583.28125 C 726.5646 606.47115 695.03515 630.8291 662.90625 654.4375 C 637.25175 674.0727 609.6495 690.5312 580.75 704.8125 C 574.00485 708.20115 576.72652 723.3896 583.34375 739.40625 C 542.33003 720.95506 501.67739 701.71907 462.3125 679.9375 C 436.92144 665.34368 411.50221 650.27769 388.78125 631.71875 C 395.08558 619.70634 401.31696 607.64093 407.4375 595.53125 C 409.42804 591.42174 406.14377 586.03735 399.96875 580.46875 C 460.2934 567.60367 520.92181 556.29649 581.8125 546.4375 C 633.5732 538.1687 685.85085 534.0824 738.21875 532.9375 C 757.36755 532.9973 748.29725 532.8488 765.34375 533.3125 C 783.78055 533.5461 784.90555 446.63995 766.46875 446.40625 C 746.93535 446.40505 757.2412 446.31825 735.5 446.71875 C 679.4669 448.96925 623.5694 453.9135 568.1875 462.9375 C 555.53146 465.01853 542.88587 467.15319 530.25 469.34375 C 530.18684 454.71394 530.20806 457.4155 530.0625 430.53125 C 530.03182 427.9794 529.97251 425.42672 529.9375 422.875 C 550.80029 421.76158 571.71644 421.37039 592.625 421.75 C 610.9847 421.9327 611.82845 335.3703 593.46875 335.1875 C 571.64278 335.12872 549.8413 335.68987 528.0625 336.875 C 527.56674 320.09282 527.0109 303.31065 526.40625 286.53125 C 547.74556 286.57266 569.06964 287.13753 590.40625 288.125 C 633.64095 290.778 676.77715 295.06765 719.90625 299.03125 C 735.15785 300.26925 727.95215 299.75365 741.40625 300.65625 C 759.91375 301.58515 764.32 214.33505 745.8125 213.40625 C 734.2931 213.06195 740.5874 213.3093 726.9375 212.5625 C 682.6198 209.4301 638.34355 205.48565 593.96875 203.21875 C 570.21787 202.32287 546.4654 201.90805 522.71875 202.03125 C 521.25568 173.25656 520.10325 144.43487 521.8125 115.71875 C 523.10506 104.17787 489.60638 96.033497 463.78125 96.0625 z M 381.3125 731.6875 C 394.02556 739.52008 406.97159 746.97993 419.96875 754.3125 C 452.69941 772.1146 486.20433 788.35676 520.0625 803.875 C 504.86052 809.43113 489.57928 814.75227 474.25 819.96875 C 447.1021 829.65005 420.12435 839.8831 392.71875 848.8125 C 371.79545 855.0037 387.3611 850.3824 386.75 861.125 C 373.3798 847.8226 378.28865 812.1568 376.46875 795.3125 C 376.97374 774.04865 378.21389 752.72702 381.3125 731.6875 z "
     id="path20211" />
</svg>
