<?xml version="1.0" encoding="UTF-8" standalone="no"?>
<svg
   xmlns:dc="http://purl.org/dc/elements/1.1/"
   xmlns:cc="http://creativecommons.org/ns#"
   xmlns:rdf="http://www.w3.org/1999/02/22-rdf-syntax-ns#"
   xmlns:svg="http://www.w3.org/2000/svg"
   xmlns="http://www.w3.org/2000/svg"
   xmlns:sodipodi="http://sodipodi.sourceforge.net/DTD/sodipodi-0.dtd"
   xmlns:inkscape="http://www.inkscape.org/namespaces/inkscape"
   width="1024"
   height="1024"
   id="U89D2"
   version="1.1"
   inkscape:version="0.48.0 r9654"
   sodipodi:docname="U+89D2.svg">
  <metadata
     id="metadata14">
    <rdf:RDF>
      <cc:Work
         rdf:about="">
        <dc:format>image/svg+xml</dc:format>
        <dc:type
           rdf:resource="http://purl.org/dc/dcmitype/StillImage" />
      </cc:Work>
    </rdf:RDF>
  </metadata>
  <defs
     id="defs12" />
  <sodipodi:namedview
     pagecolor="#ffffff"
     bordercolor="#666666"
     borderopacity="1"
     objecttolerance="10"
     gridtolerance="10"
     guidetolerance="10"
     inkscape:pageopacity="0"
     inkscape:pageshadow="2"
     inkscape:window-width="640"
     inkscape:window-height="480"
     id="namedview10"
     showgrid="false"
     inkscape:zoom="0.27441406"
     inkscape:cx="512"
     inkscape:cy="512"
     inkscape:window-x="0"
     inkscape:window-y="25"
     inkscape:window-maximized="0"
     inkscape:current-layer="U89D2" />
  <path
     style="fill:#550000;fill-opacity:1;fill-rule:nonzero;stroke:#f9f9f9;stroke-width:0.1;stroke-miterlimit:4;stroke-dasharray:none"
     d="M 367 140.4375 C 363.98308 140.56076 361.65729 141.52963 360.34375 143.5 C 341.65005 173.889 329.0029 207.3505 316.375 240.5625 C 306.2981 267.2215 296.9779 294.2575 284.8125 320.0625 C 280.0556 330.57151 308.46033 348.33938 333.0625 356.65625 C 307.6211 367.5594 284.48966 382.10099 265.25 402.59375 C 246.39654 399.65772 228.94193 400.67729 227.21875 408.71875 C 220.65705 454.47675 215.5052 500.4235 208.9375 546.1875 C 199.2426 609.0755 188.866 671.858 179.1875 734.75 C 175.4285 759.48 171.7271 784.223 166.1875 808.625 C 162.3458 827.017 249.0332 845.11075 252.875 826.71875 C 257.9761 800.48675 261.77315 774.06575 265.40625 747.59375 C 274.47125 684.58075 284.64325 621.74325 294.84375 558.90625 C 297.03647 544.51555 299.09181 530.10427 301.125 515.6875 C 305.03259 539.59028 314.94663 564.79593 325.09375 562.71875 C 354.95124 557.66361 385.50046 558.36253 415.6875 558.625 C 415.69147 558.77066 415.68354 558.91684 415.6875 559.0625 C 416.17495 583.20563 416.85674 607.33817 417.6875 631.46875 C 416.85405 631.63909 416.02081 631.79743 415.1875 631.96875 C 379.7661 638.50475 344.1759 645.301 308.0625 646.25 C 289.1137 647.096 293.1138 736.43975 312.0625 735.59375 C 348.86601 733.16056 385.17137 726.64565 421.34375 719.71875 C 421.90159 731.42375 422.48917 743.10943 423.09375 754.8125 C 423.83525 784.2915 427.6012 813.77225 427.125 843.28125 C 426.9961 844.61725 426.8788 845.94525 426.75 847.28125 C 425.7797 866.20625 514.99845 870.76875 515.96875 851.84375 C 516.06405 848.80675 516.155 845.787 516.25 842.75 C 515.6159 811.693 511.94955 780.78925 510.28125 749.78125 C 509.2908 734.415 508.39041 719.0294 507.53125 703.65625 C 533.57916 699.65686 559.76562 696.68775 586.15625 695.34375 C 593.17227 695.91222 612.05833 695.35928 627.8125 696.8125 C 627.37407 703.48933 626.93184 710.16705 626.5 716.84375 C 623.6805 753.14175 623.02525 789.59075 619.65625 825.84375 C 619.19125 828.60775 618.715 831.361 618.25 834.125 C 615.5234 852.777 703.4608 865.62075 706.1875 846.96875 C 706.7999 842.36175 707.41885 837.76325 708.03125 833.15625 C 710.78345 796.21825 711.2276 759.1475 713.6875 722.1875 C 716.9206 666.7795 720.80755 611.3995 723.03125 555.9375 C 724.23985 515.2975 726.2621 473.8955 716.5 434.0625 C 707.5949 406.0495 694.2843 381.15325 668.4375 365.28125 C 655.2379 358.36523 641.61642 353.70327 627.5625 350.875 C 632.87587 338.07658 637.89006 325.15002 642.5625 312.09375 C 653.7498 278.86275 663.74665 245.81575 644.96875 213.09375 C 640.60235 208.34575 636.7907 203.02175 631.875 198.84375 C 613.2644 183.02775 587.38695 180.48975 564.15625 178.84375 C 524.99395 177.93675 485.909 180.83275 447.3125 187.71875 C 443.41525 188.4306 439.51329 189.15587 435.625 189.90625 C 436.49183 174.08137 386.70147 139.6326 367 140.4375 z M 542.8125 266.96875 C 548.97267 266.96598 555.14763 267.105 561.3125 267.375 C 562.19359 267.34162 563.03761 267.32498 563.875 267.34375 C 562.18262 273.41689 561.5758 274.94272 558.5625 284.0625 C 551.12043 305.31647 542.62811 326.15218 533.28125 346.625 C 516.1519 346.16444 499.02548 345.43704 481.9375 344 C 444.99653 341.16981 407.56296 337.66458 371.03125 344.53125 C 378.59 326.38077 385.48589 307.95354 392.28125 289.5 C 415.7766 283.8046 439.36408 278.54608 463.15625 274.15625 C 489.50067 269.52662 516.11843 266.98075 542.8125 266.96875 z M 579.34375 270.75 C 582.2595 272.093 582.53983 272.81977 579.34375 270.75 z M 412.375 428.625 C 412.5865 442.63358 412.87263 456.64982 413.21875 470.65625 C 377.83994 470.24606 342.25113 469.89347 307.1875 475.21875 C 307.09169 475.23836 307.00012 475.2572 306.90625 475.28125 C 307.43704 471.66614 307.98543 468.05008 308.53125 464.4375 C 317.48206 468.72466 324.98196 470.0569 328.25 466.0625 C 342.1661 448.5595 360.9795 438.55025 382 432.28125 C 392.03873 430.04808 402.19267 428.97618 412.375 428.625 z M 500.15625 433.40625 C 528.86489 434.90799 557.6383 435.26239 586.375 436 C 598.151 437.775 614.80205 434.336 624.65625 443 C 628.32115 448.07 629.845 454.198 631.5 460.125 C 637.6422 490.864 636.1915 522.588 635.5625 553.75 C 635.00288 572.23993 634.16264 590.71665 633.1875 609.1875 C 615.93972 607.43249 598.46793 607.32683 581.0625 607.9375 C 555.06867 609.60475 529.24491 612.48204 503.53125 616.21875 C 502.9441 599.20099 502.47839 582.18433 502.15625 565.15625 C 509.10695 566.17492 516.04945 567.31065 522.96875 568.5625 C 526.59715 569.4355 530.2467 570.3145 533.875 571.1875 C 552.2223 575.2985 571.5973 488.7995 553.25 484.6875 L 538 481.46875 C 525.46097 479.39497 512.88982 477.59864 500.28125 476.09375 C 500.09617 461.85937 500.02768 447.63757 500.15625 433.40625 z "
     id="path9021" />
</svg>
