<?xml version="1.0" encoding="UTF-8" standalone="no"?>
<svg
   xmlns:dc="http://purl.org/dc/elements/1.1/"
   xmlns:cc="http://creativecommons.org/ns#"
   xmlns:rdf="http://www.w3.org/1999/02/22-rdf-syntax-ns#"
   xmlns:svg="http://www.w3.org/2000/svg"
   xmlns="http://www.w3.org/2000/svg"
   xmlns:sodipodi="http://sodipodi.sourceforge.net/DTD/sodipodi-0.dtd"
   xmlns:inkscape="http://www.inkscape.org/namespaces/inkscape"
   width="1024"
   height="1024"
   id="U89C9"
   version="1.1"
   inkscape:version="0.48.0 r9654"
   sodipodi:docname="U+89C9.svg">
  <metadata
     id="metadata16">
    <rdf:RDF>
      <cc:Work
         rdf:about="">
        <dc:format>image/svg+xml</dc:format>
        <dc:type
           rdf:resource="http://purl.org/dc/dcmitype/StillImage" />
      </cc:Work>
    </rdf:RDF>
  </metadata>
  <defs
     id="defs14" />
  <sodipodi:namedview
     pagecolor="#ffffff"
     bordercolor="#666666"
     borderopacity="1"
     objecttolerance="10"
     gridtolerance="10"
     guidetolerance="10"
     inkscape:pageopacity="0"
     inkscape:pageshadow="2"
     inkscape:window-width="640"
     inkscape:window-height="480"
     id="namedview12"
     showgrid="false"
     inkscape:zoom="0.27441406"
     inkscape:cx="512"
     inkscape:cy="512"
     inkscape:window-x="0"
     inkscape:window-y="25"
     inkscape:window-maximized="0"
     inkscape:current-layer="U89C9" />
  <path
     style="fill:#2b0000;fill-opacity:1;fill-rule:nonzero;stroke:#f9f9f9;stroke-width:0.1;stroke-miterlimit:4;stroke-dasharray:none"
     d="M 486.96875 194.15625 C 467.55103 193.89471 416.91672 246.10672 428.875 258.21875 C 448.54131 278.29675 469.74781 296.6845 491.90625 313.9375 C 503.46601 322.9215 515.65159 331.01075 527.84375 339.09375 C 543.40033 349.33375 591.68158 275.99 576.125 265.75 C 565.76248 258.986 555.39676 252.22725 545.59375 244.65625 C 526.42439 229.88825 508.12459 214.022 491.90625 196 C 490.66919 194.74713 488.97748 194.18331 486.96875 194.15625 z M 672.09375 194.1875 C 667.92674 194.24687 664.85208 195.41266 663.46875 198 C 649.96022 222.612 631.54491 244.06275 613.71875 265.59375 C 598.26328 283.78175 605.98031 274.78575 590.53125 292.59375 C 582.00058 302.46106 612.2385 333.66759 635.09375 346.375 C 613.77288 346.10518 592.43792 346.60855 571.125 347.9375 C 516.33504 351.6045 461.33235 357.07225 408.5 372.90625 C 379.77119 382.20812 351.59099 392.90515 324.6875 406.5 C 303.46086 391.89602 272.66241 379.92102 267.125 389.90625 C 253.0395 419.72725 240.79586 450.41225 228.875 481.15625 C 218.70464 507.98625 209.64081 535.26525 201.9375 562.90625 C 199.18126 574.66225 200.32527 568.739 198.5 580.625 C 196.29334 599.294 284.32459 609.70125 286.53125 591.03125 C 286.45012 590.83025 286.36235 590.6385 286.28125 590.4375 L 287.15625 585.65625 C 293.41792 560.91625 301.2939 536.5695 310.28125 512.6875 C 314.73033 501.19837 319.2606 489.71937 323.96875 478.3125 C 333.15662 489.91641 342.77343 497.54623 348.5625 494.0625 C 375.48527 476.9155 405.14366 465.352 435.34375 455.5 C 481.31158 441.783 529.19167 437.28925 576.84375 434.15625 C 620.06648 431.55625 663.3582 432.8935 706.375 437.5625 C 720.81833 439.51479 735.30285 441.95023 749.4375 445.59375 C 746.11792 453.89648 742.62129 462.13558 739.15625 470.375 C 730.6963 490.247 721.67266 509.86775 712.34375 529.34375 C 704.34296 546.06075 783.15546 583.7795 791.15625 567.0625 C 801.02025 546.4385 810.61664 525.67975 819.75 504.71875 C 831.29124 477.97375 845.41013 451.0785 844.21875 421.1875 C 842.54765 415.0065 841.779 408.51125 839.1875 402.65625 C 830.67308 383.42125 812.37038 372.76425 793.34375 366.53125 C 767.89176 358.71025 741.65177 353.7165 715.1875 350.8125 C 696.4325 349.02185 677.6574 347.72327 658.84375 347 C 669.69128 334.42113 666.12035 338.61096 680.84375 321.25 C 702.48634 295.187 724.41639 269.08375 741.53125 239.71875 C 749.00125 225.74709 694.59562 193.8669 672.09375 194.1875 z M 294.375 199.375 C 273.43634 199.71699 220.56181 242.09638 230.4375 255.21875 C 247.97151 278.76675 266.74178 301.27725 286.71875 322.78125 C 304.85866 341.69525 324.1379 359.55325 344.71875 375.78125 C 346.89672 377.41225 349.07204 379.0565 351.25 380.6875 C 366.37985 391.7635 418.59859 320.41975 403.46875 309.34375 C 401.86557 308.20675 400.25943 307.0745 398.65625 305.9375 C 381.48624 293.0785 365.71784 278.4035 350.75 263.0625 C 332.78889 243.9025 315.96136 223.7 301.125 202 C 299.71419 200.12538 297.36624 199.32614 294.375 199.375 z M 767.3125 450.96875 C 773.32699 453.10024 771.05156 453.93704 767.3125 450.96875 z M 611.84375 484.15625 C 607.55324 484.18467 603.06269 484.33575 598.375 484.5625 C 560.74556 486.4205 523.06911 488.9695 485.90625 495.4375 C 452.10546 502.2615 418.67371 511.3955 388.84375 529.3125 C 385.96208 531.14056 385.17802 535.10919 385.90625 540.3125 C 360.27664 536.95573 326.89817 540.4404 326.5625 551.9375 C 325.83271 587.4765 326.07124 622.99925 327 658.53125 C 327.95035 690.58625 327.78939 722.8335 335.75 754.0625 C 340.47355 770.19238 409.17051 751.88965 419.4375 734.96875 C 407.21258 765.24449 394.98424 795.50261 383.15625 825.9375 C 376.89816 841.1445 371.09981 856.55075 364.75 871.71875 C 357.88157 889.20175 440.31907 921.57675 447.1875 904.09375 C 453.02924 888.39375 458.73727 872.64425 464.8125 857.03125 C 476.12172 826.70212 488.07763 796.65637 500.21875 766.65625 C 501.69932 773.75609 503.19916 780.87709 504.71875 787.96875 C 512.11171 824.72675 523.50553 860.3085 539.21875 894.3125 C 556.55379 930.1205 581.13958 951.59025 617 967.53125 C 650.53948 979.53525 686.10393 978.7235 721.09375 976.3125 C 751.0239 973.7495 780.24341 966.5895 809.03125 958.3125 C 822.43446 954.3995 835.56714 949.64075 848.625 944.71875 C 866.10434 937.99375 834.38559 855.5885 816.90625 862.3125 C 806.1757 866.5415 795.37591 870.6465 784.3125 873.9375 C 761.59771 880.7285 738.54804 886.6985 714.875 888.9375 C 693.5826 890.5125 671.76943 891.871 650.875 886.5 C 635.67243 881.289 625.55214 871.59675 618.40625 856.96875 C 604.99294 829.31275 596.26274 799.87825 590.125 769.78125 C 584.19231 741.64725 578.49814 713.47 573.65625 685.125 C 572.18791 676.80427 553.71938 675.34091 534.15625 677.9375 C 539.0272 664.44921 543.86046 650.9365 548.625 637.40625 C 554.51407 619.58425 470.48282 591.802 464.59375 609.625 C 454.4505 642.858 442.67609 675.57025 430.3125 708.03125 C 427.07591 716.07733 423.84067 724.11445 420.59375 732.15625 C 420.79483 731.17295 420.77887 730.20229 420.5 729.25 C 411.62044 711.478 417.26693 675.789 414.03125 656.25 C 413.47041 634.66769 413.15778 613.08802 413.53125 591.5 C 422.28086 601.37888 431.01832 607.40151 436.28125 604.0625 C 456.49987 591.2415 479.83612 585.61025 503.03125 581.03125 C 535.82837 575.41725 569.07382 573.27775 602.28125 571.96875 C 599.3529 568.08275 641.79562 575.6535 633.03125 576.6875 C 632.07704 576.6055 631.04528 576.05125 631.15625 577.65625 C 632.07025 590.87725 635.01739 604.202 636.09375 617.5 C 638.39958 655.613 637.96855 693.839 638.6875 732 C 638.46249 746.249 640.8775 763.97025 637.875 776.65625 C 633.47524 794.88225 719.38148 815.63225 723.78125 797.40625 C 728.05904 775.00825 727.43957 752.6605 725.96875 729.9375 C 724.83829 690.2345 725.2593 650.4855 723.1875 610.8125 C 720.48624 574.1035 717.35972 536.72375 689.90625 509.21875 C 663.18759 489.26613 641.87731 483.95734 611.84375 484.15625 z "
     id="path9837" />
</svg>
