<?xml version="1.0" encoding="UTF-8" standalone="no"?>
<svg
   xmlns:dc="http://purl.org/dc/elements/1.1/"
   xmlns:cc="http://creativecommons.org/ns#"
   xmlns:rdf="http://www.w3.org/1999/02/22-rdf-syntax-ns#"
   xmlns:svg="http://www.w3.org/2000/svg"
   xmlns="http://www.w3.org/2000/svg"
   xmlns:sodipodi="http://sodipodi.sourceforge.net/DTD/sodipodi-0.dtd"
   xmlns:inkscape="http://www.inkscape.org/namespaces/inkscape"
   width="1024"
   height="1024"
   id="U8981"
   version="1.1"
   inkscape:version="0.48.0 r9654"
   sodipodi:docname="U+8981.svg">
  <metadata
     id="metadata16">
    <rdf:RDF>
      <cc:Work
         rdf:about="">
        <dc:format>image/svg+xml</dc:format>
        <dc:type
           rdf:resource="http://purl.org/dc/dcmitype/StillImage" />
      </cc:Work>
    </rdf:RDF>
  </metadata>
  <defs
     id="defs14" />
  <sodipodi:namedview
     pagecolor="#ffffff"
     bordercolor="#666666"
     borderopacity="1"
     objecttolerance="10"
     gridtolerance="10"
     guidetolerance="10"
     inkscape:pageopacity="0"
     inkscape:pageshadow="2"
     inkscape:window-width="640"
     inkscape:window-height="480"
     id="namedview12"
     showgrid="false"
     inkscape:zoom="0.27441406"
     inkscape:cx="512"
     inkscape:cy="512"
     inkscape:window-x="0"
     inkscape:window-y="25"
     inkscape:window-maximized="0"
     inkscape:current-layer="U8981" />
  <path
     style="fill:#916f6f;fill-opacity:1;fill-rule:nonzero;stroke:#f9f9f9;stroke-width:0.1;stroke-miterlimit:4;stroke-dasharray:none"
     d="M 651.90625 134.6875 C 609.49665 134.56825 567.178 137.79875 525.28125 144.78125 C 466.14445 154.63825 407.56455 167.27675 349.40625 181.84375 C 313.56245 190.40775 277.74915 199.1105 242.03125 208.1875 C 223.97135 213.3235 248.15885 298.4485 266.21875 293.3125 C 290.80337 286.00554 315.6343 279.53784 340.5 273.25 C 341.93851 295.50182 343.10685 317.76053 344.21875 340.03125 C 344.30112 342.0405 344.41249 344.05358 344.5 346.0625 C 320.19617 353.41075 296.12945 361.55047 272.84375 371.75 C 269.92177 373.18747 268.68065 376.76427 268.71875 381.65625 C 268.65665 381.34307 268.59274 381.03208 268.53125 380.71875 C 264.22585 362.45775 178.1321 382.74 182.4375 401 C 191.0246 436.466 201.67115 471.341 213.40625 505.875 C 226.23635 542.55 240.65975 578.7025 261.34375 611.6875 C 264.31088 616.24084 272.70584 615.38478 282.8125 611.5 C 287.70873 632.91746 297.09501 653.20927 306.1875 651.15625 C 337.19151 643.92669 368.51996 638.12861 399.75 631.90625 C 384.01959 655.58644 366.18684 677.81131 348.25 699.84375 C 331.52052 720.37804 314.11563 740.36961 297.625 761.09375 C 263.42789 765.1861 229.15511 768.64812 194.78125 771.125 C 144.17785 774.052 92.7913 777.7525 42.5 769.3125 C 24.0855 765.7915 7.49175 852.605 25.90625 856.125 C 83.73585 864.186 142.2985 859.845 200.25 855.75 C 225.91579 853.60038 251.52039 850.98548 277.09375 848.03125 C 281.16077 854.44969 286.69362 860.79272 293.8125 867.1875 C 315.6905 881.6995 340.88745 890.228 365.28125 899.5 C 379.8148 904.92706 394.53554 909.71576 409.375 914.1875 C 387.26551 929.24189 364.18889 942.83926 340.65625 955.59375 C 324.51005 964.52975 366.63505 1040.6548 382.78125 1031.7188 C 422.75995 1009.1868 461.61935 984.6215 497.34375 955.6875 C 502.3701 951.48478 507.35656 947.22081 512.3125 942.9375 C 546.65461 952.79181 580.80349 963.30199 614.75 974.4375 C 637.2171 982.1015 659.73415 990.39475 679.53125 1003.7188 C 682.76465 1006.6027 681.8149 1005.1497 683.0625 1007.4688 C 696.3967 1020.6628 758.61545 957.819 745.28125 944.625 C 733.62165 933.828 739.74935 938.91775 726.84375 929.34375 C 700.22825 912.92875 671.4017 900.96225 641.5625 891.65625 C 622.36172 885.51818 603.10959 879.55034 583.8125 873.71875 C 605.19969 849.95004 624.73409 824.54269 641.5 796.875 C 641.73817 796.46935 641.98084 796.06217 642.21875 795.65625 C 681.51706 790.51171 720.87016 785.82474 760.28125 781.59375 C 800.69205 777.01875 841.3055 775.0785 881.875 772.5625 C 895.3303 771.6025 908.78555 770.40375 922.28125 770.34375 C 941.05725 769.93075 939.11975 681.3995 920.34375 681.8125 C 905.42665 682.3255 890.57525 683.68275 875.71875 685.09375 C 833.97375 688.42075 792.15865 691.1745 750.59375 696.4375 C 729.64982 698.95667 708.69737 701.58196 687.78125 704.3125 C 692.609 691.32672 696.66836 678.02623 699.6875 664.375 C 702.8407 645.885 615.68455 631.04225 612.53125 649.53125 C 607.61882 673.76998 598.04443 696.47022 586.75 718.34375 C 557.20847 722.70546 527.6937 727.28248 498.21875 732.09375 C 473.7093 735.93887 449.19409 739.80218 424.65625 743.53125 C 445.12262 718.2095 465.12628 692.48922 483.28125 665.4375 C 489.30944 656.03017 465.36071 635.33395 442.84375 623.4375 C 477.09276 617.06009 511.53661 611.67729 546.09375 607.28125 C 570.92645 603.97125 595.9989 603.64025 620.8125 607.03125 C 622.9158 607.42325 625.0276 607.79675 627.125 608.21875 C 627.1437 608.22275 643.797 611.8005 639.3125 611.3125 C 648.26092 614.47525 660.2097 594.77156 667.59375 573.65625 C 678.52238 594.4218 727.61206 628.37449 736.9375 616.125 C 748.1686 599.728 743.2952 608.20175 751.75 590.71875 C 763.964 556.83375 769.5886 521.3525 771.8125 485.4375 C 774.2081 446.9785 775.6993 407.85675 764.5625 370.46875 C 754.7538 343.40575 741.0222 319.16025 716.0625 303.28125 C 691.628 289.70525 665.5229 282.7295 637.375 283.1875 C 622.73507 283.48775 608.16422 284.54598 593.6875 286.28125 C 593.23168 265.34221 592.68882 244.40736 592.21875 223.46875 C 617.13848 221.58488 642.14969 221.15819 667.15625 222.25 C 656.47395 218.598 711.52395 229.3205 702.65625 229.1875 C 719.20305 238.0995 761.2343 160.0995 744.6875 151.1875 C 721.3226 139.8975 695.97425 135.66875 670.09375 134.96875 C 664.03337 134.81625 657.96476 134.70454 651.90625 134.6875 z M 505.25 235.625 C 506.24392 258.13062 506.98378 280.63791 507.625 303.15625 C 481.6077 309.33646 455.63579 315.79117 429.75 322.5 C 428.67973 298.99487 427.54959 275.49907 426.375 252 C 452.54911 245.97013 478.83336 240.48923 505.25 235.625 z M 638.34375 370.96875 C 649.45445 371.77675 661.9876 372.002 671.125 379.25 C 676.5519 384.819 679.21745 392.094 681.46875 399.375 C 688.25005 425.727 686.5518 453.16725 684.875 480.03125 C 682.99404 502.58889 680.79492 525.46663 674 547.09375 C 675.09174 537.02402 673.82722 529.3333 668.90625 527.59375 C 656.63505 523.77575 644.02435 521.29675 631.28125 519.59375 C 618.27363 518.18358 605.23101 517.41104 592.1875 517.28125 C 592.59728 505.47968 592.89093 493.68002 593.25 481.875 C 594.06625 445.94526 594.6038 410.0001 594.65625 374.0625 C 609.12222 372.10567 623.68175 370.93557 638.34375 370.96875 z M 508.5 391.96875 C 508.27409 421.15194 507.62431 450.32932 506.6875 479.5 C 505.93636 494.78947 505.51608 510.10172 504.5 525.375 C 468.01258 530.82356 431.64543 537.13854 395.46875 544.375 C 373.77716 548.68486 352.02513 552.69648 330.28125 556.71875 C 315.05184 532.39839 305.86325 504.65756 295.71875 477.96875 C 287.29154 453.04343 279.42453 427.92511 273.28125 402.34375 C 282.03091 426.93502 301.31633 456.22557 311.875 451.03125 C 324.37633 445.14453 337.21586 440.14506 350.25 435.625 C 351.86381 454.11974 353.76031 472.58904 355.96875 491.03125 C 357.29695 506.33125 361.0744 520.81825 365.9375 535.28125 C 372.7805 552.72225 454.99915 520.47225 448.15625 503.03125 C 443.37585 499.68725 444.66825 483.4205 442.40625 479.9375 C 439.23579 456.92079 436.72298 433.82269 434.78125 410.6875 C 459.27326 404.14657 483.8535 397.89664 508.5 391.96875 z M 523.625 812.71875 C 513.24572 824.5942 502.30717 835.99517 490.9375 846.96875 C 468.9763 840.94796 446.98979 834.91762 425.34375 827.875 C 453.94083 823.56823 482.52373 819.10732 511.09375 814.6875 C 515.26712 814.0178 519.44986 813.37628 523.625 812.71875 z "
     id="path13093" />
</svg>
