<?xml version="1.0" encoding="UTF-8" standalone="no"?>
<svg
   xmlns:dc="http://purl.org/dc/elements/1.1/"
   xmlns:cc="http://creativecommons.org/ns#"
   xmlns:rdf="http://www.w3.org/1999/02/22-rdf-syntax-ns#"
   xmlns:svg="http://www.w3.org/2000/svg"
   xmlns="http://www.w3.org/2000/svg"
   xmlns:sodipodi="http://sodipodi.sourceforge.net/DTD/sodipodi-0.dtd"
   xmlns:inkscape="http://www.inkscape.org/namespaces/inkscape"
   width="1024"
   height="1024"
   id="U89C8"
   version="1.1"
   inkscape:version="0.48.0 r9654"
   sodipodi:docname="U+89C8.svg">
  <metadata
     id="metadata16">
    <rdf:RDF>
      <cc:Work
         rdf:about="">
        <dc:format>image/svg+xml</dc:format>
        <dc:type
           rdf:resource="http://purl.org/dc/dcmitype/StillImage" />
      </cc:Work>
    </rdf:RDF>
  </metadata>
  <defs
     id="defs14" />
  <sodipodi:namedview
     pagecolor="#ffffff"
     bordercolor="#666666"
     borderopacity="1"
     objecttolerance="10"
     gridtolerance="10"
     guidetolerance="10"
     inkscape:pageopacity="0"
     inkscape:pageshadow="2"
     inkscape:window-width="640"
     inkscape:window-height="480"
     id="namedview12"
     showgrid="false"
     inkscape:zoom="0.27441406"
     inkscape:cx="512"
     inkscape:cy="512"
     inkscape:window-x="0"
     inkscape:window-y="25"
     inkscape:window-maximized="0"
     inkscape:current-layer="U89C8" />
  <path
     style="fill:#2b0000;fill-opacity:1;fill-rule:nonzero;stroke:#f9f9f9;stroke-width:0.1;stroke-miterlimit:4;stroke-dasharray:none"
     d="M 325.1875 133.21875 C 311.30949 133.45441 300.39255 136.31537 299.5625 142.71875 C 296.3984 177.60475 294.36 212.55825 292.4375 247.53125 C 289.702 296.57825 288.96595 345.7295 290.90625 394.8125 C 292.16095 420.7515 295.5247 446.5365 300.875 471.9375 C 301.5383 474.3395 302.2116 476.723 302.875 479.125 C 308.3958 497.11 393.17715 471.109 387.65625 453.125 C 387.50555 452.875 387.3382 452.624 387.1875 452.375 C 382.1635 432.211 379.089 411.58975 377.8125 390.84375 C 375.4114 344.80075 376.11885 298.7005 379.03125 252.6875 C 381.12365 219.7825 383.1699 186.80775 387.375 154.09375 C 388.95965 141.86912 351.68189 132.76885 325.1875 133.21875 z M 474.15625 154.46875 C 467.91549 154.52808 463.44183 156.09141 462.09375 159.65625 C 449.11275 194.21925 435.8232 228.6415 423.125 263.3125 C 408.8986 302.7585 394.4414 342.19975 384.9375 383.09375 C 384.1465 387.52475 383.3535 391.97425 382.5625 396.40625 C 379.5925 414.83125 466.4675 428.83225 469.4375 410.40625 C 469.82 407.55725 470.21115 404.69375 470.59375 401.84375 C 473.34845 388.09054 476.95423 374.57227 481.0625 361.1875 C 481.86034 361.25509 482.63993 361.18864 483.40625 360.9375 C 508.49225 351.9795 534.6468 346.62075 560.8125 341.96875 C 592.4666 336.25775 624.499 333.313 656.5 330.375 C 680.6285 328.431 704.71665 324.909 728.96875 325.375 C 735.94395 325.431 742.6813 326.58825 748.875 329.53125 C 766.1653 336.87025 800.75905 255.37025 783.46875 248.03125 C 766.11845 241.26425 748.1214 237.23175 729.375 237.34375 C 702.2389 237.46675 675.2881 240.49175 648.3125 243.21875 C 613.9575 246.51075 579.59985 249.8955 545.59375 255.9375 C 535.87724 257.64994 526.16352 259.4856 516.5 261.46875 C 525.57822 237.81212 534.95007 214.28696 544.8125 190.9375 C 550.10112 176.95234 498.63925 154.236 474.15625 154.46875 z M 208.09375 219.0625 C 189.02537 219.07858 171.87207 222.80519 171.4375 231 C 170.3581 259.374 169.57225 287.729 169.53125 316.125 C 169.39015 337.375 171.70825 358.476 176.03125 379.25 C 177.68825 386.464 176.69315 382.6175 179.09375 390.6875 C 184.98855 408.5755 269.30105 380.79525 263.40625 362.90625 C 263.38225 363.04125 263.36775 363.1775 263.34375 363.3125 C 263.06045 362.2425 262.7833 361.16375 262.5 360.09375 C 258.9939 345.61175 257.18075 330.8675 257.21875 315.9375 C 257.04915 289.1625 257.646 262.3885 259.75 235.6875 C 260.30873 225.15075 232.61023 219.04182 208.09375 219.0625 z M 613.5625 338.84375 C 591.83916 339.10269 538.23386 376.52648 547 390.0625 C 563.61 413.2015 581.9391 435.0355 600.125 456.9375 C 602.67414 459.97575 605.2477 463.00642 607.8125 466.03125 C 590.8399 466.13308 573.8874 467.9496 556.9375 469.28125 C 523.2533 472.73425 489.6003 476.643 456.125 481.75 C 423.4426 487.941 390.9653 495.6175 360.4375 509.1875 C 356.81611 510.84482 355.62733 515.77445 356.15625 522.4375 C 338.80552 511.33629 270.57682 519.43984 272.0625 535.90625 C 276.1191 570.90025 280.99475 605.809 285.46875 640.75 C 289.20055 671.301 293.4946 701.798 298.75 732.125 C 301.1198 743.56 299.6508 737.753 303.25 749.5 C 305.40618 755.44866 316.27617 755.96438 329.5 753.375 C 321.59225 765.3137 313.5088 777.1418 305.40625 788.9375 C 289.00895 812.2335 272.92215 835.729 258.40625 860.25 C 252.8345 869.08248 248.35766 878.68416 242.34375 887.21875 C 242.93692 886.73196 244.08524 885.83782 246.71875 883.375 C 235.00976 897.05148 285.30839 965.20554 300.1875 954.34375 C 309.6156 945.71875 305.94355 949.80375 311.78125 942.59375 C 320.29465 930.54175 327.1298 917.4845 334.4375 904.6875 C 347.6368 881.7545 362.377 859.788 377.375 838 C 393.00688 814.91477 408.62254 791.77918 423.1875 768 C 426.36811 789.72969 428.44381 811.59771 431 833.40625 C 433.6837 864.93025 442.14745 888.83925 463.09375 912.78125 C 484.94605 932.95825 512.5399 941.05625 541.1875 945.65625 C 572.4973 949.55825 603.9877 946.82625 635.1875 943.40625 C 665.5704 939.34325 695.97355 935.4375 726.46875 932.3125 C 750.34915 930.2165 774.21215 928.13025 797.84375 924.03125 C 817.14245 920.78925 835.12905 913.34575 852.78125 905.21875 C 864.49965 899.81275 875.8753 893.9835 886.4375 886.5625 C 902.9087 874.2895 909.74715 856.84075 912.78125 837.21875 C 914.60776 819.52415 835.81942 810.43312 825.6875 825.34375 C 827.052 822.05392 828.85544 818.9795 831.59375 816.71875 C 827.71963 819.15133 819.67896 822.73735 815.5 825.03125 C 804.7907 830.05725 794.11145 835.20225 782.34375 837.28125 C 760.84645 841.26925 739.07575 842.904 717.34375 845.125 C 686.75605 848.404 656.245 852.36425 625.75 856.40625 C 602.1384 858.94725 578.31865 861.2475 554.59375 858.6875 C 544.93345 857.3185 535.5676 855.2865 526.5625 851.4375 C 521.0455 853.7715 518.9313 826.21 518.25 823.125 C 515.4999 799.939 513.1627 776.702 510.5625 753.5 C 508.68798 738.77152 453.40454 742.67146 431.5 754.15625 C 437.18263 744.4838 442.65949 734.6976 447.875 724.75 C 464.9656 691.208 480.6004 656.93475 492.3125 621.09375 C 498.1203 603.26575 414.08905 575.88975 408.28125 593.71875 C 400.68328 620.51992 389.67912 646.11243 377.5 671.09375 C 375.39715 657.32335 373.54525 643.53714 371.8125 629.71875 C 368.18046 601.27984 364.22165 572.82888 361.53125 544.28125 C 370.219 568.0773 387.17858 594.20291 397.25 589.59375 C 420.9135 578.08175 446.6854 572.4135 472.375 567.5625 C 503.3018 562.9395 534.39885 559.44525 565.53125 556.53125 C 573.82159 557.42709 584.01339 555.28653 593.875 554.03125 C 594.50287 576.47345 593.06054 598.93109 591.53125 621.3125 C 588.85705 650.7295 586.6158 680.17025 584.875 709.65625 C 585.51115 709.77977 584.02592 719.22093 583.15625 724.46875 C 577.55702 742.29048 661.04603 770.97796 667.15625 753.21875 C 670.68245 740.34875 672.6331 727.3375 672.8125 713.9375 C 673.9015 685.0585 675.90115 656.23875 678.65625 627.46875 C 680.90165 596.67975 683.1952 565.738 681.125 534.875 C 677.81788 511.41422 670.68502 492.43511 655.40625 480.125 C 677.03328 465.34527 700.85153 438.6425 693 429.71875 C 684.3811 420.15475 675.80935 410.558 667.46875 400.75 C 651.45425 381.675 635.2286 362.61475 621.25 341.96875 C 619.81554 339.75377 617.11723 338.80138 613.5625 338.84375 z M 607.40625 553.25 C 610.0899 553.39569 612.65873 553.78913 615.03125 554.53125 C 612.33289 554.64702 609.78647 554.15003 607.40625 553.25 z M 833.34375 815.46875 C 832.76858 815.8235 832.22947 816.21196 831.71875 816.625 C 832.40238 816.18988 832.98909 815.81306 833.34375 815.46875 z M 242.3125 887.21875 C 241.66383 887.75358 241.58672 887.95939 240.53125 889.71875 C 241.15037 888.90787 241.7251 888.05199 242.3125 887.21875 z "
     id="path9352" />
</svg>
