<?xml version="1.0" encoding="utf-8" ?>

<!DOCTYPE svg PUBLIC "-//W3C//DTD SVG 1.1//EN" 
  "http://www.w3.org/Graphics/SVG/1.1/DTD/svg11.dtd">
<svg 
    xmlns="http://www.w3.org/2000/svg"
    xmlns:xlink="http://www.w3.org/1999/xlink"
    xmlns:sodipodi="http://sodipodi.sourceforge.net/DTD/sodipodi-0.dtd"
    xmlns:inkscape="http://www.inkscape.org/namespaces/inkscape"
    width="1024" height="1024" id="U89C6">
<path d="m 11531.974,44250.631 c 14.339,23.446 34.159,42.863 53.308,62.339 11.752,11.552 23.049,23.533 34.196,35.663 12.497,13.746 -52.303,72.66 -64.8,58.914 l 0,0 c -10.255,-11.423 -20.729,-22.632 -31.671,-33.407 -24.259,-24.72 -48.734,-49.638 -67.422,-79.005 -9.44,-16.204 66.948,-60.709 76.389,-44.504 z" id="path12507" inkscape:connector-curvature="0" style="fill:#a02c2c;fill-opacity:1;fill-rule:nonzero;stroke:#f9f9f9;stroke-width:0.1;stroke-miterlimit:4;stroke-dasharray:none" transform="translate(-11264, -44032)"/><path d="m 11396.117,44447.889 c 33.656,-1.788 67.329,-3.158 101.01,-4.357 35.983,-1.433 72.022,-2.036 107.971,0.348 30.517,2.545 53.855,14.636 59.875,49.42 2.842,16.417 -6.97,29.018 -14.541,41.476 -23.61,30.48 -47.121,60.978 -69.43,92.434 -30.873,43.955 -57.058,90.87 -81.911,138.407 -15.199,29.33 -29.364,59.17 -43.391,89.071 -0.262,0.573 -4.187,8.919 -4.781,10.906 -0.173,0.577 0.602,-1.045 0.903,-1.567 -5.919,17.891 -90.259,-10.01 -84.341,-27.901 l 0,0 c 2.632,-6.759 5.508,-13.373 8.947,-19.774 15.179,-30.468 30.373,-60.932 46.218,-91.063 26.909,-50.576 55.034,-100.572 87.596,-147.78 21.439,-30.801 43.761,-60.924 66.337,-90.895 6.005,-4.064 -4.295,2.467 0.103,15.093 3.332,9.567 8.889,18.505 15.641,26.057 5.169,5.781 21.581,6.368 5.895,3.705 -32.517,-3.08 -65.238,-2.232 -97.837,-1.036 -32.771,1.29 -65.569,2.607 -98.227,5.741 -18.728,1.28 -24.765,-87.004 -6.037,-88.285 z" id="path12509" inkscape:connector-curvature="0" style="fill:#a02c2c;fill-opacity:1;fill-rule:nonzero;stroke:#f9f9f9;stroke-width:0.1;stroke-miterlimit:4;stroke-dasharray:none" transform="translate(-11264, -44032)"/><path d="m 11608.065,44651.803 c -4.004,36.463 -5.611,73.142 -6.542,109.795 -1.226,40.74 1.675,81.347 9.039,121.405 4.368,20.644 10.074,41.01 17.232,60.859 6,17.706 -77.471,45.992 -83.471,28.286 l 0,0 c -7.832,-24.276 -14.647,-48.9 -19.502,-73.958 -7.867,-45.819 -11.406,-92.156 -10.034,-138.676 0.88,-38.607 2.674,-77.179 5.289,-115.71 1.696,-18.665 89.686,-10.666 87.989,7.999 z" id="path12511" inkscape:connector-curvature="0" style="fill:#a02c2c;fill-opacity:1;fill-rule:nonzero;stroke:#f9f9f9;stroke-width:0.1;stroke-miterlimit:4;stroke-dasharray:none" transform="translate(-11264, -44032)"/><path d="m 11611.439,44661.499 c 25.238,13.184 50.632,26.057 75.706,39.556 3.684,2.035 7.367,4.07 11.05,6.104 16.25,9.127 -26.771,85.73 -43.021,76.604 l 0,0 c -3.316,-1.896 -6.631,-3.792 -9.947,-5.687 -24.551,-13.517 -49.465,-26.353 -74.817,-38.308 -16.603,-8.704 24.425,-86.973 41.029,-78.269 z" id="path12513" inkscape:connector-curvature="0" style="fill:#a02c2c;fill-opacity:1;fill-rule:nonzero;stroke:#f9f9f9;stroke-width:0.1;stroke-miterlimit:4;stroke-dasharray:none" transform="translate(-11264, -44032)"/><path d="m 11797.339,44372.069 c -1.503,37.354 -1.585,74.751 -1.37,112.129 0.714,41.254 2.392,82.678 9.969,123.311 3.111,18.295 -83.134,32.962 -86.245,14.667 l 0,0 c -7.149,-45.39 -9.513,-91.32 -10.205,-137.234 -0.437,-38.451 -0.453,-76.902 -0.659,-115.355 0.527,-18.775 89.036,-16.294 88.51,2.482 z" id="path12515" inkscape:connector-curvature="0" style="fill:#a02c2c;fill-opacity:1;fill-rule:nonzero;stroke:#f9f9f9;stroke-width:0.1;stroke-miterlimit:4;stroke-dasharray:none" transform="translate(-11264, -44032)"/><path d="m 11760.95,44309.564 c 29.845,-18.709 63.923,-27.28 98.096,-33.927 34.181,-5.949 68.799,-8.69 103.416,-10.417 22.485,-0.53 46.883,-2.117 67.588,8.641 5.577,2.897 10.462,6.966 15.693,10.449 30.156,30.02 29.611,71.221 29.246,110.956 -1.598,53 -6.618,105.817 -11.607,158.582 -5.01,48.37 -9.399,96.795 -12.798,145.304 -1.125,14.54 -1.654,29.114 -2.369,43.677 -1.423,18.716 -89.65,12.009 -88.228,-6.706 l 0,0 c 1.59,-14.556 2.25,-29.195 3.711,-43.764 4.213,-48.899 8.904,-97.752 13.889,-146.577 4.695,-50.217 9.349,-100.506 10.31,-150.963 0,-3.353 -2.451,-42.056 -1.97,-43.865 0.489,-1.838 7.89,7.967 5.039,2.675 1.756,0.578 6.843,2.208 5.461,0.98 -6.758,-6.002 -22.538,0.321 -30.041,-1.821 -30.38,1.187 -60.767,3.411 -90.761,8.577 -22.414,4.302 -45.332,9.021 -64.927,21.359 -15.519,10.553 -65.267,-62.606 -49.748,-73.16 z" id="path12517" inkscape:connector-curvature="0" style="fill:#a02c2c;fill-opacity:1;fill-rule:nonzero;stroke:#f9f9f9;stroke-width:0.1;stroke-miterlimit:4;stroke-dasharray:none" transform="translate(-11264, -44032)"/><path d="m 11911.032,44454.924 c -2.876,43.332 -10.21,86.075 -18.738,128.595 -13.701,63.362 -30.85,125.908 -48.207,188.345 -12.379,44.494 -25.314,88.832 -40.057,132.603 -3.588,11.402 -8.047,22.477 -12.742,33.456 -7.713,17.071 -88.185,-19.291 -80.472,-36.361 l 0,0 c 4.108,-8.325 7.661,-16.886 10.594,-25.705 14.936,-41.876 27.788,-84.443 39.971,-127.195 17.032,-60.157 33.608,-120.507 46.348,-181.745 7.455,-38.885 14.107,-78.022 15.114,-117.703 1.211,-18.708 89.401,-12.998 88.189,5.71 z" id="path12519" inkscape:connector-curvature="0" style="fill:#a02c2c;fill-opacity:1;fill-rule:nonzero;stroke:#f9f9f9;stroke-width:0.1;stroke-miterlimit:4;stroke-dasharray:none" transform="translate(-11264, -44032)"/><path d="m 11955.137,44668.68 c -10.568,20.77 -14.667,43.904 -17.891,66.753 -3.998,31.276 -0.887,62.399 7.987,92.509 6.038,18.144 15.458,32.951 33.432,40.178 23.091,6.539 47.302,3.845 70.758,1.137 29.534,-3.93 58.662,-10.269 87.588,-17.314 18.858,-4.884 37.692,-9.85 56.639,-14.376 13.368,-2.415 6.97,-4.077 -0.997,1.912 -3.5,2.631 -6.264,6.119 -9.396,9.179 10.152,-15.862 84.927,31.995 74.775,47.857 l 0,0 c -14.369,16.285 -23.268,23.921 -44.567,27.228 -18.776,4.136 -37.427,8.784 -56.076,13.46 -32.455,7.622 -65.104,14.567 -98.195,18.831 -40.659,4.489 -81.959,6.606 -120.477,-9.917 -42.546,-23.358 -62.199,-48.589 -77.538,-94.703 -11.292,-41.943 -16.114,-84.923 -10.332,-128.263 4.661,-32.608 11.15,-65.148 25.595,-95.035 8.605,-16.694 87.299,23.87 78.695,40.564 z" id="path12521" inkscape:connector-curvature="0" style="fill:#782121;fill-opacity:1;fill-rule:nonzero;stroke:#f9f9f9;stroke-width:0.10000000000000001;stroke-miterlimit:4;stroke-dasharray:none" transform="translate(-11264, -44032)"/></svg>