<?xml version="1.0" encoding="UTF-8" standalone="no"?>
<svg
   xmlns:dc="http://purl.org/dc/elements/1.1/"
   xmlns:cc="http://creativecommons.org/ns#"
   xmlns:rdf="http://www.w3.org/1999/02/22-rdf-syntax-ns#"
   xmlns:svg="http://www.w3.org/2000/svg"
   xmlns="http://www.w3.org/2000/svg"
   xmlns:sodipodi="http://sodipodi.sourceforge.net/DTD/sodipodi-0.dtd"
   xmlns:inkscape="http://www.inkscape.org/namespaces/inkscape"
   width="1024"
   height="1024"
   id="U897F"
   version="1.1"
   inkscape:version="0.48.0 r9654"
   sodipodi:docname="U+897F.svg">
  <metadata
     id="metadata13">
    <rdf:RDF>
      <cc:Work
         rdf:about="">
        <dc:format>image/svg+xml</dc:format>
        <dc:type
           rdf:resource="http://purl.org/dc/dcmitype/StillImage" />
      </cc:Work>
    </rdf:RDF>
  </metadata>
  <defs
     id="defs11" />
  <sodipodi:namedview
     pagecolor="#ffffff"
     bordercolor="#666666"
     borderopacity="1"
     objecttolerance="10"
     gridtolerance="10"
     guidetolerance="10"
     inkscape:pageopacity="0"
     inkscape:pageshadow="2"
     inkscape:window-width="640"
     inkscape:window-height="480"
     id="namedview9"
     showgrid="false"
     inkscape:zoom="0.27441406"
     inkscape:cx="512"
     inkscape:cy="512"
     inkscape:window-x="0"
     inkscape:window-y="25"
     inkscape:window-maximized="0"
     inkscape:current-layer="U897F" />
  <path
     style="fill:#501616;fill-opacity:1;fill-rule:nonzero;stroke:#f9f9f9;stroke-width:0.1;stroke-miterlimit:4;stroke-dasharray:none"
     d="M 648.5 218.1875 C 623.61761 218.23787 598.75991 220.27375 573.96875 223.5625 C 508.79158 231.8025 443.95197 242.2865 379.03125 252.3125 C 335.06096 259.1135 290.99706 265.551 247.375 274.375 C 229.19535 279.037 251.16409 364.75475 269.34375 360.09375 C 296.58444 353.48191 324.18451 348.51169 351.84375 343.90625 C 358.37379 397.0259 355.92688 450.79569 353.34375 504.09375 C 352.34771 519.07162 351.25444 534.03815 350.0625 549 C 308.23978 566.92118 266.82197 586.78331 232.6875 617.53125 C 219.07117 630.43125 279.88368 694.61875 293.5 681.71875 C 307.72088 668.20365 323.98724 657.55649 341.125 648.34375 C 338.49778 675.32935 335.79179 702.30485 333.09375 729.28125 C 330.81939 749.91125 329.07466 770.59125 327.46875 791.28125 C 326.29066 809.79425 413.57191 815.35775 414.75 796.84375 C 415.71757 776.92275 416.91878 756.989 418.75 737.125 C 422.26369 695.03731 426.0947 652.97932 429.78125 610.90625 C 474.97234 596.34769 521.75582 587.65898 569.125 583.15625 C 568.83072 617.59824 568.94657 652.027 571.78125 686.40625 C 576.96284 728.39225 592.7714 768.71175 627.6875 794.71875 C 633.83766 799.29975 640.81269 802.657 647.375 806.625 C 680.29686 822.325 716.11735 822.8285 751.71875 820.9375 C 754.51461 820.8595 757.32914 820.7675 760.125 820.6875 C 778.8083 819.9155 775.15205 731.853 756.46875 732.625 C 753.1128 732.801 749.76219 732.98025 746.40625 733.15625 C 727.65473 734.47525 708.44251 735.715 690.1875 730.25 C 668.4231 720.991 660.93901 701.3145 657.96875 678.5625 C 654.86199 647.85845 654.58246 617.0702 654.875 586.25 C 674.67825 589.29923 694.26491 593.91249 713.5625 599.96875 C 740.48365 609.01975 763.61713 623.84925 782.59375 644.78125 C 800.89007 669.36125 804.11274 700.59875 807.84375 730.09375 C 812.03576 776.98575 810.44736 824.17225 809 871.15625 C 808.82526 875.90015 808.67494 880.62685 808.5 885.375 C 806.50025 885.4443 805.59034 885.47643 802.875 885.5625 C 741.29585 889.9395 680.10802 898.2575 618.5625 903.0625 C 552.33411 907.4565 485.82532 909.8165 419.625 903.3125 C 381.19578 899.0975 342.45026 894.69975 305.34375 883.34375 C 304.18577 882.97089 302.97099 882.97508 301.75 883.3125 C 298.65114 879.95943 299.84325 881.05291 294 870.96875 C 274.2772 827.84575 260.34333 782.582 246.21875 737.375 C 233.44632 696.905 220.17663 656.6095 208.0625 615.9375 C 202.68213 597.9465 117.86962 623.29125 123.25 641.28125 C 137.46105 681.81925 150.98608 722.593 164.09375 763.5 C 179.07773 811.801 194.23867 859.98925 214.40625 906.40625 C 226.17256 928.83225 219.63991 918.11825 233.84375 938.53125 C 239.44794 946.04331 260.04757 936.50396 277.71875 923.25 C 271.46722 943.6601 269.58947 964.75224 278.21875 967.53125 C 321.47186 979.33125 366.11182 984.4205 410.59375 988.9375 C 481.71045 995.5275 553.10189 992.9375 624.21875 988.1875 C 685.64419 983.4155 746.77669 975.437 808.3125 972.125 C 830.53169 971.911 820.2447 971.55325 839.25 972.78125 C 844.76585 973.01753 848.958 965.43086 851.65625 954.65625 C 870.57051 957.30355 888.16967 955.99688 889.71875 947.9375 C 893.97509 923.2975 895.69795 898.524 895.71875 873.5 C 896.9135 822.118 898.51702 770.54225 893.84375 719.28125 C 887.80659 671.08625 879.07811 622.859 846.28125 584.875 C 816.08687 553.447 780.72538 529.9975 738.75 516.9375 C 711.3796 508.86236 683.59937 502.89646 655.53125 499.4375 C 655.52501 456.88257 654.67823 414.28684 656.8125 371.78125 C 658.65212 353.13925 570.77711 344.484 568.9375 363.125 C 567.9801 407.7629 569.15694 452.38753 569.5 497.03125 C 567.68972 497.15927 565.90547 497.28601 564.09375 497.4375 C 521.26221 501.72614 478.81242 508.82419 437.3125 519.65625 C 437.59218 515.9472 437.88527 512.24102 438.15625 508.53125 C 441.4949 449.02909 444.37835 389.19893 439.03125 329.71875 C 487.40133 321.99399 535.82645 314.67799 584.46875 308.84375 C 617.13946 305.36375 650.19113 302.436 682.84375 307.25 C 701.27053 309.469 711.70803 222.62525 693.28125 220.40625 C 678.35319 218.8575 663.42944 218.15728 648.5 218.1875 z "
     id="path13206" />
</svg>
