<?xml version="1.0" encoding="UTF-8" standalone="no"?>
<svg
   xmlns:dc="http://purl.org/dc/elements/1.1/"
   xmlns:cc="http://creativecommons.org/ns#"
   xmlns:rdf="http://www.w3.org/1999/02/22-rdf-syntax-ns#"
   xmlns:svg="http://www.w3.org/2000/svg"
   xmlns="http://www.w3.org/2000/svg"
   xmlns:sodipodi="http://sodipodi.sourceforge.net/DTD/sodipodi-0.dtd"
   xmlns:inkscape="http://www.inkscape.org/namespaces/inkscape"
   width="1024"
   height="1024"
   id="U8A00"
   version="1.1"
   inkscape:version="0.48.0 r9654"
   sodipodi:docname="U+8A00.svg">
  <metadata
     id="metadata14">
    <rdf:RDF>
      <cc:Work
         rdf:about="">
        <dc:format>image/svg+xml</dc:format>
        <dc:type
           rdf:resource="http://purl.org/dc/dcmitype/StillImage" />
      </cc:Work>
    </rdf:RDF>
  </metadata>
  <defs
     id="defs12" />
  <sodipodi:namedview
     pagecolor="#ffffff"
     bordercolor="#666666"
     borderopacity="1"
     objecttolerance="10"
     gridtolerance="10"
     guidetolerance="10"
     inkscape:pageopacity="0"
     inkscape:pageshadow="2"
     inkscape:window-width="640"
     inkscape:window-height="480"
     id="namedview10"
     showgrid="false"
     inkscape:zoom="0.27441406"
     inkscape:cx="512"
     inkscape:cy="512"
     inkscape:window-x="0"
     inkscape:window-y="25"
     inkscape:window-maximized="0"
     inkscape:current-layer="U8A00" />
  <path
     style="fill:#916f6f;fill-opacity:1;fill-rule:nonzero;stroke:#f9f9f9;stroke-width:0.1;stroke-miterlimit:4;stroke-dasharray:none"
     d="M 480.8125 166.34375 C 459.09282 167.15338 406.45192 205.93484 415.5625 219.25 C 433.7518 244.435 454.87015 267.21975 476.46875 289.46875 C 490.59267 303.80489 484.58323 297.7249 497.09375 310.46875 C 429.63405 316.86128 362.31325 324.64425 295.375 335.3125 C 244.8747 343.1625 194.4022 351.29375 143.875 358.96875 C 125.4033 362.15775 140.43445 449.22125 158.90625 446.03125 C 208.69165 436.18425 258.77065 427.88625 308.84375 419.65625 C 381.32125 407.57125 454.3836 399.72375 527.5625 393.46875 C 579.3989 389.09775 631.3483 386.2065 683.375 386.4375 C 697.7573 386.8335 712.27235 387.04675 726.40625 389.96875 C 744.87515 392.97775 759.06265 305.91425 740.59375 302.90625 C 721.51805 300.19625 702.31185 299.096 683.03125 299.375 C 628.60815 300.02 574.29815 303.46775 520.09375 308.34375 C 518.17734 308.51682 516.25997 308.69992 514.34375 308.875 C 536.76876 296.66377 569.66858 259.20269 559.8125 249.25 C 546.2014 235.624 553.12015 242.56525 539.15625 228.53125 C 521.03315 209.93325 503.04115 190.96625 488.59375 169.28125 C 487.10293 167.10227 484.36663 166.21127 480.8125 166.34375 z M 518.375 438.40625 C 516.53206 438.40851 514.69266 438.428 512.84375 438.46875 C 468.86795 439.52675 425.11015 444.387 382.15625 454.125 C 347.59335 462.093 313.30525 471.1035 279.59375 482.1875 C 261.77025 488.0755 289.52025 572.10675 307.34375 566.21875 C 338.08885 554.63175 369.8642 546.20775 401.8125 538.71875 C 438.7885 530.33575 476.46595 526.082 514.34375 525.75 C 528.05435 526.64125 544.16549 525.69216 556.34375 532.5 C 574.14289 535.5923 623.15374 473.62418 609.375 462.4375 C 605.623 459.8185 601.8771 457.21275 598.125 454.59375 C 572.97872 442.77187 546.01909 438.37234 518.375 438.40625 z M 556.34375 532.5 C 556.21777 532.47811 556.09157 532.46594 555.96875 532.4375 C 556.42926 532.65784 556.88326 532.87358 557.34375 533.09375 C 557.01179 532.89253 556.68191 532.68903 556.34375 532.5 z M 555.96875 532.4375 C 555.14921 532.04538 554.35082 531.64183 553.53125 531.25 C 554.24829 531.8322 555.06574 532.22836 555.96875 532.4375 z M 631.9375 533.09375 C 629.0794 533.25075 626.2331 533.4055 623.375 533.5625 C 587.8941 535.8545 552.4994 539.327 517.3125 544.5 C 460.7198 552.292 403.9856 559.397 347.875 570.25 C 309.8958 578.018 271.8006 586.2275 235.5625 600.3125 C 218.3089 607.7325 253.27765 689.07525 270.53125 681.65625 C 300.90515 668.70225 333.43725 661.8265 365.59375 654.9375 C 419.54945 643.9615 474.2491 637.22075 528.8125 630.09375 C 561.7137 625.50875 594.78695 622.76975 627.96875 621.46875 C 630.45805 621.41375 632.9482 621.34125 635.4375 621.28125 C 654.1486 620.53825 650.6486 532.35075 631.9375 533.09375 z M 549.59375 682.3125 C 535.20294 682.22594 520.76944 683.11138 506.34375 684.71875 C 460.70505 689.63875 415.3508 696.74 369.9375 703.375 C 332.9629 708.701 295.79825 713.4635 259.40625 722.0625 C 253.64306 723.80749 252.38901 733.72443 253.90625 746.1875 C 229.0484 744.35994 199.70746 748.73119 199.625 759.53125 C 200.4817 792.63625 205.88755 825.33175 213.03125 857.59375 C 217.28225 876.71075 223.56085 895.2025 231.21875 913.1875 C 233.97991 919.34697 246.24103 918.57624 260.40625 914.28125 C 258.06551 939.49777 272.67894 989.79379 286.75 986.65625 C 327.2293 976.90325 368.06575 968.7505 409.09375 961.6875 C 447.55185 954.9575 486.46975 953.26125 525.28125 957.03125 C 538.35915 958.62425 551.2796 961.28425 564.125 964.15625 C 566.85862 964.72646 569.5558 963.27687 572.15625 960.40625 C 594.41045 973.80529 627.37778 984.12818 632.25 973.53125 C 639.0882 958.01025 644.65515 942.05325 649.46875 925.78125 C 659.35755 893.01525 669.10615 860.11125 675.28125 826.40625 C 679.86105 795.37425 682.57065 763.7265 667.71875 734.8125 C 652.57645 711.2425 632.61775 694.63425 604.78125 688.03125 C 586.51119 684.15506 568.09622 682.42379 549.59375 682.3125 z M 545.96875 769.65625 C 559.13221 769.49931 572.25564 770.419 585.03125 773.875 C 586.43015 774.347 594.2978 776.95475 591.4375 779.46875 C 591.4783 790.88575 590.2563 802.22025 588.5625 813.53125 C 584.68691 834.66232 579.16874 855.42902 573.09375 876.03125 C 559.71676 873.51572 546.27592 871.2934 532.71875 869.96875 C 486.48725 866.42775 440.20525 868.38875 394.46875 876.46875 C 363.4092 881.77949 332.47995 887.72693 301.5625 893.78125 C 309.24835 887.79427 313.7008 881.78678 311.625 877.15625 C 305.5313 864.87825 301.65705 851.67825 298.34375 838.40625 C 295.81223 827.39086 293.52803 816.2737 291.75 805.09375 C 321.6112 797.79284 352.22431 793.75666 382.59375 789.1875 C 426.75455 782.5445 470.8637 775.69825 515.3125 771.28125 C 525.46298 770.55019 535.73051 769.77832 545.96875 769.65625 z "
     id="path12759" />
</svg>
