<?xml version="1.0" encoding="UTF-8" standalone="no"?>
<svg
   xmlns:dc="http://purl.org/dc/elements/1.1/"
   xmlns:cc="http://creativecommons.org/ns#"
   xmlns:rdf="http://www.w3.org/1999/02/22-rdf-syntax-ns#"
   xmlns:svg="http://www.w3.org/2000/svg"
   xmlns="http://www.w3.org/2000/svg"
   xmlns:sodipodi="http://sodipodi.sourceforge.net/DTD/sodipodi-0.dtd"
   xmlns:inkscape="http://www.inkscape.org/namespaces/inkscape"
   width="1024"
   height="1024"
   id="U8BBF"
   version="1.1"
   inkscape:version="0.48.0 r9654"
   sodipodi:docname="U+8BBF.svg">
  <metadata
     id="metadata13">
    <rdf:RDF>
      <cc:Work
         rdf:about="">
        <dc:format>image/svg+xml</dc:format>
        <dc:type
           rdf:resource="http://purl.org/dc/dcmitype/StillImage" />
      </cc:Work>
    </rdf:RDF>
  </metadata>
  <defs
     id="defs11" />
  <sodipodi:namedview
     pagecolor="#ffffff"
     bordercolor="#666666"
     borderopacity="1"
     objecttolerance="10"
     gridtolerance="10"
     guidetolerance="10"
     inkscape:pageopacity="0"
     inkscape:pageshadow="2"
     inkscape:window-width="640"
     inkscape:window-height="480"
     id="namedview9"
     showgrid="false"
     inkscape:zoom="0.27441406"
     inkscape:cx="512"
     inkscape:cy="512"
     inkscape:window-x="0"
     inkscape:window-y="25"
     inkscape:window-maximized="0"
     inkscape:current-layer="U8BBF" />
  <path
     style="fill:#550000;fill-opacity:1;fill-rule:nonzero;stroke:#f9f9f9;stroke-width:0.1;stroke-miterlimit:4;stroke-dasharray:none"
     d="M 661.21875 186.4375 C 636.95575 186.66721 586.37188 210.11695 591.875 223.875 C 605.87385 256.029 629.91299 281.07675 655.5625 304.21875 C 659.96817 307.96275 664.37558 311.72375 668.78125 315.46875 C 682.80243 327.33575 738.73993 261.243 724.71875 249.375 C 720.93502 246.188 717.15872 243.0005 713.375 239.8125 C 697.61429 225.7735 681.73892 211.1355 673.28125 191.3125 C 671.87849 187.80575 667.40344 186.37895 661.21875 186.4375 z M 301.40625 244.71875 C 276.60991 244.94153 227.33775 266.04453 232.25 279.71875 C 243.49974 307.87875 261.59991 332.32525 279.96875 356.15625 C 291.55084 370.68925 285.94729 363.6005 296.84375 377.3125 C 308.36849 391.7095 376.24349 337.397 364.71875 323 C 354.02163 309.732 359.37606 316.39325 348.625 303.03125 C 335.78107 286.50925 322.42938 269.7425 314.75 250.0625 C 313.37457 246.2335 308.34922 244.65637 301.40625 244.71875 z M 921.25 340.5625 C 904.49902 341.0725 887.79767 342.724 871.125 344.375 C 813.29275 350.126 755.53741 356.79275 698.25 366.71875 C 629.17231 378.90075 560.33258 392.74575 492.625 411.21875 C 453.49535 422.28675 413.60154 433.1675 378.46875 454.3125 C 362.94106 464.5505 411.19106 537.738 426.71875 527.5 C 454.08391 510.657 485.79252 502.41525 516.34375 493.40625 C 531.05079 489.21162 545.83182 485.27747 560.65625 481.5625 C 551.33824 516.0362 543.23732 550.86932 533.75 585.3125 C 514.73233 649.7575 493.70701 713.5755 474.40625 777.9375 C 461.07997 816.2275 453.66876 855.939 446.15625 895.625 C 443.66727 907.338 444.90263 901.70625 442.4375 912.53125 C 438.51816 930.64225 523.89316 949.111 527.8125 931 C 530.46049 918.194 529.13373 924.91675 531.8125 910.84375 C 537.95909 874.14275 543.87828 837.4175 556.0625 802.0625 C 567.64874 762.1805 580.08962 722.54331 592.46875 682.90625 C 621.46229 668.56841 651.61673 656.62327 681.90625 645.3125 C 725.91193 629.8085 771.05876 616.27275 818 615.71875 C 834.92727 616.56275 849.30341 620.0655 855.1875 636.6875 C 862.83257 663.4065 859.23349 691.28575 854.9375 718.21875 C 848.23569 750.43175 839.6753 783.10525 820.6875 810.40625 C 818.7835 812.16025 816.87276 813.90225 814.96875 815.65625 C 802.56339 829.24025 866.59463 887.74025 879 874.15625 C 883.7788 868.59225 888.56494 863.03275 893.34375 857.46875 C 917.36031 818.91375 932.02361 776.236 939.96875 731.5 C 947.08716 685.141 950.61134 637.76075 930.625 593.84375 C 926.47488 587.17275 923.04087 580.02175 918.1875 573.84375 C 893.12677 541.94175 854.38152 530.549 815.34375 529.625 C 759.17462 532.069 704.97213 546.08325 652.21875 565.28125 C 642.90852 568.70705 633.6306 572.21084 624.375 575.78125 C 633.40126 541.91048 642.05917 507.92085 653.21875 474.71875 C 654.72039 471.06383 652.22309 466.65857 647.3125 462.1875 C 669.10885 457.83386 690.98145 453.79679 712.875 449.96875 C 767.86146 440.59075 823.33644 434.7105 878.90625 430.1875 C 893.03463 429.5565 907.23847 427.32625 921.40625 428.15625 C 939.98921 428.12125 939.83296 340.5325 921.25 340.5625 z M 282.0625 433.53125 C 264.50333 433.64156 247.72928 437.86938 229.46875 445.9375 C 203.30501 457.5595 178.14995 471.404 156.59375 490.5 C 142.93256 503.124 202.43255 567.52925 216.09375 554.90625 C 229.9717 541.85725 246.86932 533.015 264.25 525.625 C 262.6684 524.48448 273.73145 521.90263 281.71875 520.71875 C 281.94485 524.6249 284.9035 544.28498 284.90625 544.3125 C 287.33273 589.1395 286.22898 634.09375 285.90625 678.96875 C 285.41251 727.75475 282.87379 776.48925 283.59375 825.28125 C 284.12701 856.00125 287.54105 886.486 294.59375 916.375 C 296.22698 922.624 297.78255 928.8545 299.5625 935.0625 C 304.95202 952.8855 388.98328 927.47925 383.59375 909.65625 C 382.0025 904.91325 380.85655 900.04925 379.34375 895.28125 C 373.09363 871.86125 370.45098 847.81175 369.6875 823.59375 C 368.48361 775.60775 371.04915 727.6725 371.46875 679.6875 C 371.91676 631.4315 373.46534 583.09 370.96875 534.875 C 366.39468 494.198 356.5674 455.06175 315 437.84375 C 303.39669 434.86738 292.598 433.46506 282.0625 433.53125 z M 287.1875 520.125 C 289.3898 520.02955 290.27412 520.32225 288.6875 521.21875 C 287.98116 521.8141 285.7463 520.99237 283.96875 520.40625 C 285.18697 520.25822 286.30846 520.1631 287.1875 520.125 z "
     id="path22871" />
</svg>
