<?xml version="1.0" encoding="UTF-8" standalone="no"?>
<svg
   xmlns:dc="http://purl.org/dc/elements/1.1/"
   xmlns:cc="http://creativecommons.org/ns#"
   xmlns:rdf="http://www.w3.org/1999/02/22-rdf-syntax-ns#"
   xmlns:svg="http://www.w3.org/2000/svg"
   xmlns="http://www.w3.org/2000/svg"
   xmlns:sodipodi="http://sodipodi.sourceforge.net/DTD/sodipodi-0.dtd"
   xmlns:inkscape="http://www.inkscape.org/namespaces/inkscape"
   width="1024"
   height="1024"
   id="U8BA4"
   version="1.1"
   inkscape:version="0.48.0 r9654"
   sodipodi:docname="U+8BA4.svg">
  <metadata
     id="metadata11">
    <rdf:RDF>
      <cc:Work
         rdf:about="">
        <dc:format>image/svg+xml</dc:format>
        <dc:type
           rdf:resource="http://purl.org/dc/dcmitype/StillImage" />
      </cc:Work>
    </rdf:RDF>
  </metadata>
  <defs
     id="defs9" />
  <sodipodi:namedview
     pagecolor="#ffffff"
     bordercolor="#666666"
     borderopacity="1"
     objecttolerance="10"
     gridtolerance="10"
     guidetolerance="10"
     inkscape:pageopacity="0"
     inkscape:pageshadow="2"
     inkscape:window-width="640"
     inkscape:window-height="480"
     id="namedview7"
     showgrid="false"
     inkscape:zoom="0.27441406"
     inkscape:cx="512"
     inkscape:cy="512"
     inkscape:window-x="0"
     inkscape:window-y="25"
     inkscape:window-maximized="0"
     inkscape:current-layer="U8BA4" />
  <path
     style="fill:#a02c2c;fill-opacity:1;fill-rule:nonzero;stroke:#f9f9f9;stroke-width:0.1;stroke-miterlimit:4;stroke-dasharray:none"
     d="M 671.53125 125.9375 C 669.52442 125.95178 667.86876 126.53747 666.625 127.78125 C 630.6817 167.56625 603.22805 213.911 576.53125 260.125 C 527.43845 347.009 496.4908 441.92125 469.625 537.53125 C 448.5853 615.73125 434.1943 695.5045 423.3125 775.6875 C 419.9838 807.1155 421.24955 792.07375 419.34375 820.71875 C 418.37525 839.18575 505.43785 843.7785 506.40625 825.3125 C 507.26085 801.1425 506.53025 814.05875 508.78125 786.46875 C 517.66365 710.20875 530.67595 634.41925 550.40625 560.15625 C 575.12465 471.44625 603.70845 383.31925 650.03125 303.15625 C 673.45995 263.69925 697.29285 223.6895 729.15625 190.3125 C 741.17929 178.28928 690.93064 125.79943 671.53125 125.9375 z M 278.6875 153.53125 C 256.9569 154.02685 203.73886 192.02125 212.65625 205.46875 C 229.57015 229.96075 249.3086 252.25075 268.3125 275.09375 C 280.1861 289.34675 347.3737 233.378 335.5 219.125 C 318.5229 198.774 300.732 178.9705 286.4375 156.5625 C 284.97828 154.36214 282.24342 153.45015 278.6875 153.53125 z M 248.8125 397.6875 C 237.19905 397.69273 225.34806 399.56538 213.8125 402.34375 C 186.2596 409.38075 159.06005 417.79775 132.96875 429.21875 C 115.92205 437.08675 153.0158 517.46175 170.0625 509.59375 C 190.7908 499.53875 212.91685 492.90625 235.21875 487.40625 C 234.06679 487.77206 237.2916 487.27647 241.21875 486.6875 C 243.98934 516.21981 241.48076 545.91407 239.25 575.4375 C 233.8126 631.0445 230.23885 686.746 230.84375 742.625 C 231.62505 783.013 236.21045 823.189 251.84375 860.625 C 259.33815 877.441 271.0712 886.48725 285.8125 896.53125 C 301.82868 904.95742 340.6824 832.52342 328.625 819.40625 C 329.06909 819.72689 329.51931 820.07078 330 820.40625 C 318.60686 796.24772 319.81289 767.26401 317.3125 741.375 C 316.3004 688.187 319.93655 635.17925 325.40625 582.28125 C 329.38145 534.09225 335.81515 483.7565 316.53125 437.9375 C 311.74095 431.2485 308.03665 423.59875 302.15625 417.84375 C 286.85425 402.87 268.16825 397.67878 248.8125 397.6875 z M 330 820.40625 C 330.65483 821.79477 331.35267 823.17615 332.09375 824.53125 C 332.62195 824.94625 333.1514 826.18625 333.6875 825.78125 C 335.5796 824.3519 332.7081 822.29623 330 820.40625 z M 672.9375 478.90625 C 653.54316 479.71399 605.89814 534.60162 618.5 546.03125 C 649.2109 574.20225 675.68725 606.61525 702.65625 638.28125 C 742.69015 686.25825 784.30485 732.8535 827.03125 778.4375 C 843.93805 796.3235 860.53035 814.47275 876.90625 832.84375 C 889.22385 846.51475 953.66145 788.45125 941.34375 774.78125 C 924.34655 756.10725 907.1335 737.66425 889.6875 719.40625 C 847.7828 675.17125 807.1451 629.772 768.375 582.75 C 739.1437 547.891 710.263 512.582 677.9375 480.5 C 676.63386 479.31762 674.94381 478.82269 672.9375 478.90625 z M 254.0625 485.21875 C 255.17418 485.24128 255.67285 485.42763 255.15625 485.875 C 253.32298 487.46319 250.33715 486.87118 247.4375 485.78125 C 250.13525 485.43408 252.63028 485.18972 254.0625 485.21875 z "
     id="path11557" />
</svg>
