<?xml version="1.0" encoding="utf-8" ?>

<!DOCTYPE svg PUBLIC "-//W3C//DTD SVG 1.1//EN" 
  "http://www.w3.org/Graphics/SVG/1.1/DTD/svg11.dtd">
<svg 
    xmlns="http://www.w3.org/2000/svg"
    xmlns:xlink="http://www.w3.org/1999/xlink"
    xmlns:sodipodi="http://sodipodi.sourceforge.net/DTD/sodipodi-0.dtd"
    xmlns:inkscape="http://www.inkscape.org/namespaces/inkscape"
    width="1024" height="1024" id="U8BE5">
<path d="m 8464.4306,13464.657 c 12.8562,20.416 25.8748,40.706 38.0794,61.521 9.2892,15.843 -65.3966,59.633 -74.6859,43.79 l 0,0 c -11.5606,-19.717 -23.957,-38.909 -36.9508,-57.715 -10.0966,-15.604 63.4607,-63.2 73.5573,-47.596 z" id="path23345" inkscape:connector-curvature="0" style="fill:#550000;fill-opacity:1;fill-rule:nonzero;stroke:#f9f9f9;stroke-width:0.1;stroke-miterlimit:4;stroke-dasharray:none" transform="translate(-8192, -13312)"/><path d="m 8273.8915,13710.226 c 33.0048,-19.779 70.053,-29.839 107.4974,-37.054 31.4573,-5.321 63.2964,-6.087 94.6378,-0.08 35.0067,8.572 50.6964,31.09 48.3048,66.943 -5.4913,26.144 -8.5667,52.676 -11.6337,79.188 -6.1873,53.2 -11.3733,106.497 -15.5378,159.891 -3.506,47.005 -5.6037,94.164 -2.5614,141.239 1.8962,-1.785 1.6995,26.766 5.1377,24.34 0.5428,-0.383 -0.8844,-8.395 -8.9689,-13.828 -5.0891,-3.42 -11.3682,-4.598 -17.0523,-6.897 -2.9779,0.05 -5.995,0.625 -8.9337,0.141 -3.3702,-0.555 4.9236,-4.74 7.5027,-6.979 12.4113,-10.778 23.7651,-22.541 35.1916,-34.338 19.2217,-20.923 9.6472,-10.184 28.6985,-32.24 11.8755,-13.807 76.9623,42.175 65.0868,55.982 l 0,0 c -21.0731,24.593 -10.5198,12.631 -31.6295,35.913 -19.7751,20.773 -46.4368,52.869 -73.8131,63.4 -7.574,2.913 -15.7736,3.822 -23.6604,5.733 -9.6641,-2.369 -20.0922,-2.659 -28.9923,-7.109 -28.9626,-14.48 -32.1641,-51.726 -34.8226,-79.503 -2.2456,-50.851 -0.058,-101.709 3.8451,-152.44 4.1797,-54.265 9.2403,-108.447 14.8649,-162.582 2.7093,-26.753 5.1706,-53.598 10.158,-80.047 1.042,8.527 10.7447,31.615 22.1775,29.537 0.6389,-0.116 -1.1524,-0.599 -1.7286,-0.898 -19.5669,-5.485 -40.4574,-2.752 -60.2841,-0.473 -26.3053,4.803 -52.7266,11.164 -75.6784,25.506 -15.5591,10.142 -63.3651,-63.205 -47.806,-73.346 z" id="path23347" inkscape:connector-curvature="0" style="fill:#550000;fill-opacity:1;fill-rule:nonzero;stroke:#f9f9f9;stroke-width:0.1;stroke-miterlimit:4;stroke-dasharray:none" transform="translate(-8192, -13312)"/><path d="m 8806.7048,13415.993 c 15.4533,25.745 32.9983,50.153 50.2651,74.694 10.4917,14.676 20.4532,29.705 30.2675,44.837 9.9325,15.442 -62.8626,62.265 -72.7951,46.823 l 0,0 c -9.0318,-14.176 -18.251,-28.223 -28.0506,-41.885 -18.3181,-25.914 -36.7365,-51.766 -54.1661,-78.292 -9.7957,-15.799 64.6835,-61.976 74.4792,-46.177 z" id="path23349" inkscape:connector-curvature="0" style="fill:#550000;fill-opacity:1;fill-rule:nonzero;stroke:#f9f9f9;stroke-width:0.1;stroke-miterlimit:4;stroke-dasharray:none" transform="translate(-8192, -13312)"/><path d="m 8538.867,13628.126 c 42.7319,-5.53 85.7953,-7.999 128.7586,-11.013 54.245,-3.628 108.4819,-7.357 162.6749,-11.7 24.6438,-1.874 49.2451,-4.402 73.9309,-5.675 18.5263,-0.622 21.4587,86.712 2.9323,87.334 l 0,0 c -23.5209,0.224 -46.9702,2.62 -70.4406,3.947 -54.2738,3.797 -108.5654,7.34 -162.8301,11.264 -39.7623,3.064 -79.7215,5.458 -119.0981,11.998 -18.2763,3.379 -34.2042,-82.776 -15.9279,-86.155 z" id="path23351" inkscape:connector-curvature="0" style="fill:#550000;fill-opacity:1;fill-rule:nonzero;stroke:#f9f9f9;stroke-width:0.1;stroke-miterlimit:4;stroke-dasharray:none" transform="translate(-8192, -13312)"/><path d="m 8798.8708,13672.212 c -22.8058,22.736 -42.851,48.043 -62.8315,73.239 -20.0327,26.638 -40.9739,53.04 -56.1296,82.865 -0.531,1.796 -1.5071,3.517 -1.5929,5.388 -0.026,0.561 1.2831,-0.403 1.3896,-0.955 0.6752,-3.499 1.5971,-7.172 0.8508,-10.656 -7.1251,-33.27 -2.6528,-2.312 -11.7383,-20.104 -0.3574,-0.7 1.5027,-0.461 2.2541,-0.692 31.2033,0.619 62.1487,-4.934 92.9327,-9.36 21.0527,-2.832 10.8206,-1.52 30.6937,-3.958 18.2933,-2.114 28.259,84.122 9.9657,86.236 l 0,0 c -18.4482,1.989 -8.8962,0.891 -28.6523,3.325 -39.1442,5.352 -78.5538,12.58 -118.2051,9.738 -17.3563,-3.509 -30.7246,-3.929 -44.7871,-17.197 -24.9161,-23.51 -23.3335,-54.452 -9.7509,-82.682 18.6211,-33.802 41.6676,-64.804 65.2018,-95.324 21.8908,-27.812 43.9774,-55.528 68.1119,-81.45 13.0647,-13.213 75.3521,48.374 62.2874,61.587 z" id="path23353" inkscape:connector-curvature="0" style="fill:#550000;fill-opacity:1;fill-rule:nonzero;stroke:#f9f9f9;stroke-width:0.1;stroke-miterlimit:4;stroke-dasharray:none" transform="translate(-8192, -13312)"/><path d="m 8908.455,13749.584 c -18.2244,27.669 -35.2693,56.099 -52.4756,84.407 -28.1215,46.245 -55.824,92.74 -82.9919,139.551 -12.2717,21.188 -23.9936,42.684 -35.7063,64.183 -9.0385,16.058 -84.7389,-26.55 -75.7004,-42.608 l 0,0 c 12.5435,-21.576 24.8391,-43.295 37.5085,-64.798 27.646,-46.904 55.5126,-93.677 83.3046,-140.495 17.4117,-29.377 34.7961,-58.772 52.5263,-87.959 10.1228,-15.6 83.6576,32.12 73.5348,47.719 z" id="path23355" inkscape:connector-curvature="0" style="fill:#550000;fill-opacity:1;fill-rule:nonzero;stroke:#f9f9f9;stroke-width:0.1;stroke-miterlimit:4;stroke-dasharray:none" transform="translate(-8192, -13312)"/><path d="m 9011.8598,13835.508 c -23.7514,35.762 -45.2626,72.952 -67.0711,109.913 -31.4936,54.375 -65.2244,107.391 -99.6436,159.946 -20.9771,31.217 -41.397,62.896 -64.482,92.62 -2.3691,2.701 -4.7382,5.402 -7.1073,8.103 -12.5348,13.672 -76.9847,-45.417 -64.4499,-59.089 l 0,0 c 1.1555,-1.144 2.311,-2.287 3.4665,-3.431 22.3563,-26.95 41.4529,-56.438 61.3614,-85.188 33.9315,-51.039 66.9428,-102.701 97.2517,-155.995 22.2037,-38.325 44.2947,-76.719 67.3086,-114.567 10.1161,-15.563 83.4818,32.125 73.3657,47.688 z" id="path23357" inkscape:connector-curvature="0" style="fill:#550000;fill-opacity:1;fill-rule:nonzero;stroke:#f9f9f9;stroke-width:0.1;stroke-miterlimit:4;stroke-dasharray:none" transform="translate(-8192, -13312)"/><path d="m 8896.9198,14028.094 c 33.1291,8.683 62.2962,26.496 90.4954,45.306 30.6636,21.27 59.8552,44.547 88.8501,68.01 3.8344,3.12 7.6688,6.24 11.5032,9.36 14.2078,11.694 -40.9156,78.67 -55.1233,66.976 l 0,0 c -3.699,-3.08 -7.398,-6.16 -11.0969,-9.24 -26.6651,-21.921 -53.6203,-43.545 -82.0404,-63.173 -19.5444,-12.992 -39.5181,-26.253 -62.6175,-31.928 -18.0971,-4.249 1.9323,-89.56 20.0294,-85.311 z" id="path23359" inkscape:connector-curvature="0" style="fill:#550000;fill-opacity:1;fill-rule:nonzero;stroke:#f9f9f9;stroke-width:0.1;stroke-miterlimit:4;stroke-dasharray:none" transform="translate(-8192, -13312)"/></svg>