<?xml version="1.0" encoding="utf-8" ?>

<!DOCTYPE svg PUBLIC "-//W3C//DTD SVG 1.1//EN" 
  "http://www.w3.org/Graphics/SVG/1.1/DTD/svg11.dtd">
<svg 
    xmlns="http://www.w3.org/2000/svg"
    xmlns:xlink="http://www.w3.org/1999/xlink"
    xmlns:sodipodi="http://sodipodi.sourceforge.net/DTD/sodipodi-0.dtd"
    xmlns:inkscape="http://www.inkscape.org/namespaces/inkscape"
    width="1024" height="1024" id="U8BCD">
<path d="m 11495.602,6368.9121 c 17.064,13.3177 33.929,26.7292 49.668,41.6046 13.296,12.7889 -46.991,75.4679 -60.287,62.679 l 0,0 c -13.657,-13.5093 -29.132,-24.8081 -44.545,-36.2234 -14.438,-11.7022 40.727,-79.7624 55.164,-68.0602 z" id="path21415" inkscape:connector-curvature="0" style="fill:#800000;fill-opacity:1;fill-rule:nonzero;stroke:#f9f9f9;stroke-width:0.1;stroke-miterlimit:4;stroke-dasharray:none" transform="translate(-11264, -6144)"/><path d="m 11372.443,6525.9032 c 25.564,-2.7718 51.041,-5.6686 76.769,-6.1506 29.138,0.3459 57.593,8.7697 74.202,34.691 3.444,5.375 5.247,11.6394 7.87,17.4591 7.898,29.7008 3.902,60.5451 1.634,90.7306 -2.623,32.709 -4.452,65.4651 -4.528,98.2818 0.291,24.384 2.158,48.7115 3.799,73.0317 1.343,6.0764 -0.211,12.8834 1.724,18.8789 0.124,0.3865 0.249,-0.8224 0.132,-1.2112 -0.924,-3.0634 -1.194,-6.5692 -3.226,-9.0412 -5.194,-6.3207 -11.97,-11.1551 -17.955,-16.7326 -9.393,-0.7781 -18.769,-2.8813 -28.178,-2.3343 -3.655,0.2126 -6.649,3.0694 -9.997,4.5538 -0.273,0.1213 -1.006,0.5206 -0.859,0.2605 3.757,-6.6106 10.396,-12.8789 15.205,-18.6371 10.333,-12.2982 21.929,-23.4197 33.412,-34.6154 13.063,-12.8877 73.816,48.6905 60.753,61.5781 l 0,0 c -9.228,9.2312 -18.583,18.3738 -26.876,28.48 -11.278,13.9005 -25.202,38.2975 -44.256,41.929 -11.142,2.1236 -22.684,-0.2782 -34.026,-0.4174 -7.51,-6.2349 -16.102,-11.3596 -22.531,-18.7046 -11.075,-12.6526 -8.695,-33.2976 -10.388,-48.6485 -1.448,-26.2542 -3.232,-52.51 -3.302,-78.8158 0.267,-34.7173 2.114,-69.3739 4.634,-103.9985 1.219,-18.1236 2.399,-36.4552 2.737,-54.5238 10.565,10.7087 20.33,6.5722 1.008,4.793 -23.399,0.015 -46.538,3.2905 -69.691,6.4147 -18.509,1.7109 -26.574,-85.5403 -8.066,-87.2512 z" id="path21419" inkscape:connector-curvature="0" style="fill:#800000;fill-opacity:1;fill-rule:nonzero;stroke:#f9f9f9;stroke-width:0.1;stroke-miterlimit:4;stroke-dasharray:none" transform="translate(-11264, -6144)"/><path d="m 11661.595,6304.5058 c 36.009,-7.0835 71.899,-14.755 107.912,-21.8279 51.582,-10.6236 103.652,-18.2239 156.125,-22.5357 37.616,-3.0853 75.025,-3.0643 111.375,7.6654 40.556,16.3646 55.408,46.5288 66.126,86.5538 10.649,53.8974 8.8,109.1973 7.398,163.8159 -2.42,69.8152 -7.014,139.5319 -11.614,209.2303 -3.286,51.1305 -7.776,102.1679 -13.579,153.072 -2.897,21.9679 -3.991,44.1945 -10.615,65.4177 -6.558,17.4346 -88.745,-13.4775 -82.188,-30.912 l 0,0 c -1.447,11.1468 3.459,-19.3966 4.99,-30.0272 0.718,-4.984 1.404,-9.9725 2.106,-14.9588 6.456,-49.2883 11.156,-98.7772 14.609,-148.3669 4.816,-68.3838 9.454,-136.8074 11.37,-205.3457 0.873,-46.7092 2.258,-93.9877 -6.366,-140.1295 -1.956,-7.9927 -3.152,-19.2982 -9.034,-25.4797 -24.365,-9.9506 -52.404,-4.7577 -77.904,-4.898 -49.098,3.5938 -97.79,10.6685 -145.951,20.9498 -35.882,7.3428 -71.669,15.1396 -107.297,23.6371 -18.214,3.7045 -35.677,-82.1561 -17.463,-85.8606 z" id="path21421" inkscape:connector-curvature="0" style="fill:#800000;fill-opacity:1;fill-rule:nonzero;stroke:#f9f9f9;stroke-width:0.1;stroke-miterlimit:4;stroke-dasharray:none" transform="translate(-11264, -6144)"/><path d="m 11704.474,6460.8921 c 35.322,-13.4011 72.298,-21.5001 109.213,-29.0745 32.855,-6.3211 65.878,-12.0741 99.187,-15.3782 3.536,-0.1262 7.073,-0.2525 10.61,-0.3787 18.557,-0.1944 19.473,87.2831 0.916,87.4775 l 0,0 c -1.386,-0.075 -2.772,-0.1494 -4.158,-0.224 -30.002,1.9462 -59.685,7.4406 -89.205,12.9061 -31.36,6.4595 -63.01,13.0163 -92.688,25.3566 -17.115,7.186 -50.991,-73.4988 -33.875,-80.6848 z" id="path21423" inkscape:connector-curvature="0" style="fill:#800000;fill-opacity:1;fill-rule:nonzero;stroke:#f9f9f9;stroke-width:0.1;stroke-miterlimit:4;stroke-dasharray:none" transform="translate(-11264, -6144)"/><path d="m 11730.905,6640.7713 c -2.174,28.5025 0.835,57.048 3.862,85.3681 4.09,28.2527 6.726,57.0553 14.548,84.6075 4.54,17.9445 -80.051,39.3468 -84.591,21.4024 l 0,0 c -7.455,-31.8366 -11.573,-64.3475 -15.718,-96.7492 -3.659,-33.5669 -6.97,-67.2916 -5.542,-101.1059 1.374,-18.549 88.815,-12.0719 87.441,6.4771 z" id="path21425" inkscape:connector-curvature="0" style="fill:#800000;fill-opacity:1;fill-rule:nonzero;stroke:#f9f9f9;stroke-width:0.1;stroke-miterlimit:4;stroke-dasharray:none" transform="translate(-11264, -6144)"/><path d="m 11712.369,6610.2811 c 27.77,-16.7553 58.542,-25.9144 90.251,-31.4398 28.576,-3.9854 57.422,-3.6051 85.996,-0.1209 20.464,2.7254 39.576,9.4423 57.33,19.8081 21.423,13.7363 32.423,34.2985 38.845,58.2351 5.547,30.9335 -0.678,61.77 -7.892,91.8394 -8.174,33.5072 -21.114,65.1863 -40.117,93.933 -10.452,15.2081 -82.144,-34.0625 -71.692,-49.2707 l 0,0 c 14.246,-19.0675 21.292,-42.1877 27.501,-64.8974 4.059,-16.9013 8.123,-34.1212 7.057,-51.6395 0.337,-1.9873 1.52,-1.8053 0.255,-3.6059 -5.816,-5.5011 -15.395,-5.7081 -22.605,-7.9193 -20.01,-2.8936 -40.267,-3.1587 -60.366,-0.7517 -20.275,3.1651 -40.1,8.5798 -57.585,19.7509 -15.681,9.9655 -62.659,-63.9558 -46.978,-73.9213 z" id="path21427" inkscape:connector-curvature="0" style="fill:#800000;fill-opacity:1;fill-rule:nonzero;stroke:#f9f9f9;stroke-width:0.1;stroke-miterlimit:4;stroke-dasharray:none" transform="translate(-11264, -6144)"/><path d="m 11703.177,6819.7335 c 39.246,-6.2068 78.487,-12.3717 117.886,-17.5458 33.423,-4.5392 67.03,-6.2589 100.594,-2.8744 18.319,2.1908 7.991,88.5466 -10.327,86.3558 l 0,0 c -26.248,-4.0303 -52.857,-1.3759 -79.099,1.5703 -38.604,5.0685 -77.058,11.1978 -115.216,18.981 -18.346,2.9355 -32.184,-83.5514 -13.838,-86.4869 z" id="path21429" inkscape:connector-curvature="0" style="fill:#800000;fill-opacity:1;fill-rule:nonzero;stroke:#f9f9f9;stroke-width:0.1;stroke-miterlimit:4;stroke-dasharray:none" transform="translate(-11264, -6144)"/></svg>