<?xml version="1.0" encoding="utf-8" ?>

<!DOCTYPE svg PUBLIC "-//W3C//DTD SVG 1.1//EN" 
  "http://www.w3.org/Graphics/SVG/1.1/DTD/svg11.dtd">
<svg 
    xmlns="http://www.w3.org/2000/svg"
    xmlns:xlink="http://www.w3.org/1999/xlink"
    xmlns:sodipodi="http://sodipodi.sourceforge.net/DTD/sodipodi-0.dtd"
    xmlns:inkscape="http://www.inkscape.org/namespaces/inkscape"
    width="1024" height="1024" id="U8BB2">
<path d="m 9442.6487,22761.816 c 17.0849,17.163 33.8873,34.534 49.8018,52.793 12.2891,14.204 -54.6682,72.135 -66.9573,57.931 l 0,0 c -14.2795,-16.655 -29.5299,-32.372 -45.652,-47.262 -13.4622,-13.324 49.3452,-76.785 62.8075,-63.462 z" id="path8915" inkscape:connector-curvature="0" style="fill:#550000;fill-opacity:1;fill-rule:nonzero;stroke:#f9f9f9;stroke-width:0.1;stroke-miterlimit:4;stroke-dasharray:none" transform="translate(-9216, -22528)"/><path d="m 9334.7892,23005.843 c 23.2057,-23.744 53.1037,-38.488 82.85,-52.231 25.3405,-11.215 50.9672,-21.87 78.5129,-25.849 52.3478,0.777 62.6485,36.352 53.6049,79.526 -6.3481,25.017 -10.3355,50.466 -13.5385,76.046 -4.0438,36.056 -8.0327,72.119 -11.9199,108.192 -2.8987,26.696 -5.2026,53.451 -7.0744,80.237 -0.3675,9.865 -1.4649,19.793 -0.7019,29.664 0.3169,-1.274 -0.2739,-2.546 -0.3358,-3.824 -0.075,-1.539 1.6943,5.915 1.1529,4.473 -5.4187,-14.429 3.6291,1.725 -11.4361,-20.299 -18.5801,-10.115 -16.1425,-12.59 -35.1079,-11.326 -2.8573,0.19 -10.3802,4.163 -8.3078,2.187 2.5745,-2.455 5.5753,-4.421 8.3253,-6.677 10.3875,-8.848 20.7192,-17.753 31.1439,-26.558 14.245,-12.184 71.6832,54.967 57.4382,67.152 l 0,0 c -10.5756,9.171 -21.0251,18.476 -31.4962,27.766 -16.3619,13.812 -36.6946,30.676 -60.2133,24.608 -8.3177,-2.145 -15.3894,-7.636 -23.0842,-11.455 -10.2195,-13.969 -16.9719,-24.705 -17.6296,-41.924 -0.4495,-13.58 0.4787,-27.139 1.563,-40.674 2.3556,-27.684 4.9583,-55.348 8.0771,-82.958 4.0557,-36.415 8.1519,-72.825 11.9777,-109.265 3.3248,-27.96 7.4026,-55.809 13.8232,-83.252 0.4246,-2.148 0.791,-4.308 1.2738,-6.443 0.095,-0.421 0.3365,-1.628 0.4575,-1.213 0.8416,2.887 0.2878,6.229 1.7678,8.846 9.0086,15.934 19.9079,28.736 39.7998,25.997 -11.2253,-2.805 -39.8594,14.457 -51.0869,17.282 -18.6564,8.57 -38.1204,17.148 -53.14,31.522 -12.6323,14.148 -79.3279,-45.402 -66.6955,-59.55 z" id="path8917" inkscape:connector-curvature="0" style="fill:#550000;fill-opacity:1;fill-rule:nonzero;stroke:#f9f9f9;stroke-width:0.1;stroke-miterlimit:4;stroke-dasharray:none" transform="translate(-9216, -22528)"/><path d="m 9632.5001,22857.705 c 37.314,-2.194 74.6657,-2.05 112.0134,-1.117 45.7714,1.918 91.531,3.757 137.3477,3.168 26.3607,-0.545 52.6654,-2.451 78.9361,-4.592 18.7976,-1.317 25.0045,87.296 6.2068,88.613 l 0,0 c -28.0589,1.657 -56.1318,3.266 -84.2419,3.704 -46.7899,0.369 -93.5266,-1.338 -140.2759,-3.171 -34.411,-0.727 -68.8918,-0.974 -103.1882,2.45 -18.8913,1.442 -25.6894,-87.613 -6.798,-89.055 z" id="path8919" inkscape:connector-curvature="0" style="fill:#550000;fill-opacity:1;fill-rule:nonzero;stroke:#f9f9f9;stroke-width:0.1;stroke-miterlimit:4;stroke-dasharray:none" transform="translate(-9216, -22528)"/><path d="m 9594.1538,23032.919 c 40.4194,2.001 80.9428,0.468 121.3792,-0.386 57.271,-1.383 114.5519,-0.488 171.8027,1.218 37.7992,1.252 75.5692,3.414 113.2383,6.795 7.742,0.674 15.452,1.634 23.199,2.239 18.872,1.995 9.47,90.958 -9.402,88.964 l 0,0 c -7.535,-0.958 -15.0467,-2.075 -22.5983,-2.897 -35.6531,-3.939 -71.4537,-6.395 -107.2957,-7.796 -55.5826,-1.989 -111.2092,-3.023 -166.8195,-1.379 -42.9051,1.185 -85.8244,2.898 -128.7521,2.465 -18.927,-1.113 -13.6786,-90.336 5.2484,-89.223 z" id="path8921" inkscape:connector-curvature="0" style="fill:#550000;fill-opacity:1;fill-rule:nonzero;stroke:#f9f9f9;stroke-width:0.1;stroke-miterlimit:4;stroke-dasharray:none" transform="translate(-9216, -22528)"/><path d="m 9794.909,22702.757 c -5.3042,56.54 -9.3949,113.188 -14.0627,169.784 -7.7457,89.451 -16.0444,178.853 -23.7169,268.311 -5.1301,58.488 -9.3099,117.065 -11.1757,175.753 -0.098,4.973 -0.1967,9.946 -0.295,14.919 -0.654,18.75 -89.0423,15.667 -88.3882,-3.083 l 0,0 c 0.2567,-5.207 0.5135,-10.414 0.7703,-15.621 3.2189,-59.944 8.0432,-119.786 13.6916,-179.548 8.1719,-89.077 16.6905,-178.13 23.5285,-267.323 4.0383,-56.47 7.7736,-112.964 10.6837,-169.505 1.3393,-18.873 90.3037,-12.559 88.9644,6.313 z" id="path8923" inkscape:connector-curvature="0" style="fill:#550000;fill-opacity:1;fill-rule:nonzero;stroke:#f9f9f9;stroke-width:0.1;stroke-miterlimit:4;stroke-dasharray:none" transform="translate(-9216, -22528)"/><path d="m 9894.0771,22715.442 c 15.6683,66.269 17.1667,134.828 19.1238,202.577 0.8701,88.432 1.2521,176.847 5.5085,265.195 2.5227,52.751 8.6936,105.204 16.0362,157.47 2.2585,15.085 4.7138,30.119 6.0521,45.317 1.2606,18.906 -87.8622,24.848 -89.1228,5.942 l 0,0 c -0.3187,-13.379 -3.0382,-26.556 -4.3256,-39.854 -6.63,-54.854 -12.4009,-109.84 -14.5814,-165.081 -3.5701,-88.706 -3.5804,-177.457 -4.9457,-266.212 -2.1697,-59.694 -3.4937,-120.432 -18.7977,-178.525 -5.6913,-18.042 79.3614,-44.871 85.0526,-26.829 z" id="path8925" inkscape:connector-curvature="0" style="fill:#550000;fill-opacity:1;fill-rule:nonzero;stroke:#f9f9f9;stroke-width:0.1;stroke-miterlimit:4;stroke-dasharray:none" transform="translate(-9216, -22528)"/></svg>