<?xml version="1.0" encoding="utf-8" ?>

<!DOCTYPE svg PUBLIC "-//W3C//DTD SVG 1.1//EN" 
  "http://www.w3.org/Graphics/SVG/1.1/DTD/svg11.dtd">
<svg 
    xmlns="http://www.w3.org/2000/svg"
    xmlns:xlink="http://www.w3.org/1999/xlink"
    xmlns:sodipodi="http://sodipodi.sourceforge.net/DTD/sodipodi-0.dtd"
    xmlns:inkscape="http://www.inkscape.org/namespaces/inkscape"
    width="1024" height="1024" id="U8BBE">
<path d="m 9458.8174,42260.154 c 11.254,21.84 26.5459,41.238 39.8868,61.805 10.0921,15.612 -63.5024,63.186 -73.5945,47.575 l 0,0 c -15.1942,-23.604 -32.7373,-45.719 -45.8011,-70.663 -8.2131,-16.866 71.2956,-55.583 79.5088,-38.717 z" id="path11875" inkscape:connector-curvature="0" style="fill:#a02c2c;fill-opacity:1;fill-rule:nonzero;stroke:#f9f9f9;stroke-width:0.1;stroke-miterlimit:4;stroke-dasharray:none" transform="translate(-9216, -41984)"/><path d="m 9350.1465,42442.82 c 29.6176,-1.935 59.0968,-0.09 88.2859,5.015 41.1953,9.99 60.3249,25.38 76.8529,64.498 9.529,37.18 7.1881,76.116 7.3527,114.183 0.1612,45.379 1.2886,90.743 2.9843,136.088 1.1519,31.645 4.0401,63.182 9.3382,94.4 2.7809,10.492 3.2563,23.461 7.672,32.869 -1.4536,-4.027 -0.4366,-1.769 -3.4525,-6.58 12.5981,13.982 -53.3116,73.37 -65.9096,59.388 l 0,0 c -9.7378,-12.393 -5.6406,-6.034 -12.5422,-18.915 -6.4431,-17.038 -9.5741,-34.925 -12.4645,-52.874 -5.3084,-34.854 -8.3778,-69.979 -9.427,-105.227 -1.5312,-46.129 -2.573,-92.272 -3.0921,-138.425 -0.347,-28.071 0.084,-56.278 -2.9936,-84.219 0.1323,-0.786 2.0143,-2.52 1.9899,-2.619 -1.0089,-4.116 -9.795,-4.882 -12.2061,-6.238 -22.0104,-4.379 -44.4285,-5.405 -66.7841,-3.078 -18.724,1.188 -24.3281,-87.077 -5.6042,-88.266 z" id="path11877" inkscape:connector-curvature="0" style="fill:#a02c2c;fill-opacity:1;fill-rule:nonzero;stroke:#f9f9f9;stroke-width:0.1;stroke-miterlimit:4;stroke-dasharray:none" transform="translate(-9216, -41984)"/><path d="m 9720.4622,42251.354 c -14.1405,42.903 -27.3522,86.096 -39.8705,129.497 -9.2619,35.182 -20.4852,70.173 -25.0362,106.384 0.038,1.613 0.076,3.226 0.1139,4.839 -0.9723,18.68 -89.0305,14.096 -88.0582,-4.584 l 0,0 c 0.3485,-4.354 0.6971,-8.709 1.0457,-13.063 6.4698,-39.887 18.0881,-78.651 29.0028,-117.498 12.5325,-43.444 25.8046,-86.674 38.0124,-130.21 5.2258,-17.987 90.0159,6.648 84.7901,24.635 z" id="path11879" inkscape:connector-curvature="0" style="fill:#a02c2c;fill-opacity:1;fill-rule:nonzero;stroke:#f9f9f9;stroke-width:0.1;stroke-miterlimit:4;stroke-dasharray:none" transform="translate(-9216, -41984)"/><path d="m 9687.9623,42229.552 c 27.061,-17.365 57.3791,-27.382 88.6237,-33.89 27.9561,-5.019 55.8428,-2.752 82.9497,5.077 32.5841,10.975 47.2437,31.675 55.7632,64.082 5.2097,34.244 -0.4497,68.808 -4.6785,102.842 -4.3193,30.856 -6.0861,61.98 0.6294,92.553 2.7305,10.445 6.9109,19.824 17.0394,24.282 1.8084,1.048 6.2774,1.91 6.768,1.888 18.4034,3.898 0.026,90.653 -18.3772,86.755 l 0,0 c -12.792,-3.161 -25.0616,-7.543 -36.3282,-14.569 -28.8181,-19.908 -47.6725,-46.749 -54.9841,-81.456 -7.2966,-39.793 -7.2042,-79.873 -1.3143,-119.94 2.8489,-24.156 6.5778,-48.519 5.2431,-72.902 0.077,-0.523 -0.2975,-1.562 0.2309,-1.568 1.2241,-0.01 10.2165,7.712 3.9778,2.4 -12.7319,-4.666 -26.3467,-5.189 -39.7292,-3.442 -19.8084,3.695 -39.2137,9.618 -56.0654,21.047 -15.5194,10.553 -65.2677,-62.606 -49.7483,-73.159 z" id="path11881" inkscape:connector-curvature="0" style="fill:#a02c2c;fill-opacity:1;fill-rule:nonzero;stroke:#f9f9f9;stroke-width:0.1;stroke-miterlimit:4;stroke-dasharray:none" transform="translate(-9216, -41984)"/><path d="m 9611.9324,42565.272 c 31.5286,3.599 63.4524,-0.248 94.9202,-2.918 39.0411,-3.696 78.1707,-6.327 117.3939,-6.369 25.7456,-0.706 48.8427,4.486 70.3954,18.47 31.6828,31.578 21.6092,62.175 0.8546,95.558 -22.4981,32.233 -49.7429,60.76 -76.9786,88.966 -34.4196,35.264 -71.1115,68.17 -108.4029,100.34 -28.2254,24.197 -57.1062,47.62 -86.3414,70.582 -9.8428,8.025 -20.3931,14.962 -31.2004,21.579 -16.1318,9.473 -60.7853,-66.573 -44.6535,-76.046 l 0,0 c 7.8605,-4.199 15.0753,-9.353 22.1596,-14.762 28.375,-21.711 56.2769,-44.047 83.5265,-67.157 35.3291,-30.194 70.0567,-61.139 102.2979,-94.659 22.9271,-24.022 45.9241,-48.248 65.044,-75.493 2.2879,-3.609 5.4885,-8.708 5.5707,-8.67 0.9381,0.436 -0.1052,2.075 0.01,3.103 0.3592,3.209 0.3585,6.531 1.4101,9.584 3.6339,10.55 5.4839,10.702 12.9499,17.54 14.5833,6.765 -8.731,-4.149 -17.3466,-1.266 -36.4708,-0.686 -72.8809,1.629 -109.1763,5.138 -38.8287,3.453 -78.0325,7.945 -116.9822,3.776 -18.5181,-3.087 -3.9689,-90.382 14.5493,-87.296 z" id="path11883" inkscape:connector-curvature="0" style="fill:#a02c2c;fill-opacity:1;fill-rule:nonzero;stroke:#f9f9f9;stroke-width:0.1;stroke-miterlimit:4;stroke-dasharray:none" transform="translate(-9216, -41984)"/><path d="m 9643.1231,42673.59 c 24.1541,26.061 52.1568,47.933 80.9006,68.63 42.3224,29.557 90.3374,48.321 138.8031,65.027 50.8369,16.605 102.699,29.753 153.5712,46.234 21.945,7.222 42.995,16.706 63.78,26.704 16.697,8.326 -22.551,87.036 -39.248,78.71 l 0,0 c -16.767,-8.722 -33.809,-16.927 -51.7271,-23.066 -51.0435,-17.214 -103.342,-30.293 -154.4907,-47.193 -56.3125,-19.49 -111.9074,-41.746 -161.1074,-76.045 -33.0972,-23.611 -65.0972,-48.686 -93.9161,-77.47 -13.0528,-13.456 50.3816,-74.988 63.4344,-61.531 z" id="path11885" inkscape:connector-curvature="0" style="fill:#a02c2c;fill-opacity:1;fill-rule:nonzero;stroke:#f9f9f9;stroke-width:0.1;stroke-miterlimit:4;stroke-dasharray:none" transform="translate(-9216, -41984)"/></svg>