<?xml version="1.0" encoding="utf-8" ?>

<!DOCTYPE svg PUBLIC "-//W3C//DTD SVG 1.1//EN" 
  "http://www.w3.org/Graphics/SVG/1.1/DTD/svg11.dtd">
<svg 
    xmlns="http://www.w3.org/2000/svg"
    xmlns:xlink="http://www.w3.org/1999/xlink"
    xmlns:sodipodi="http://sodipodi.sourceforge.net/DTD/sodipodi-0.dtd"
    xmlns:inkscape="http://www.inkscape.org/namespaces/inkscape"
    width="1024" height="1024" id="U8BED">
<path d="m 9485.7681,60591.029 c 14.269,20.109 29.559,39.438 43.37,59.877 10.0994,17.209 5.398,8.219 14.0069,27.02 7.4334,17.118 -73.2627,52.16 -80.6962,35.042 l 0,0 c -3.1221,-8.345 -1.1419,-3.888 -6.287,-13.213 -13.3042,-20.126 -28.4818,-38.872 -42.9765,-58.138 -10.7314,-15.398 61.8514,-65.986 72.5828,-50.588 z" id="path13351" inkscape:connector-curvature="0" style="fill:#2b1100;fill-opacity:1;fill-rule:nonzero;stroke:none" transform="translate(-9216, -60416)"/><path d="m 9272.3167,60852.824 c 25.1734,-10.358 50.7829,-19.608 76.6026,-28.212 26.6938,-8.487 53.8755,-15.464 81.6248,-19.371 36.2041,-3.165 53.1899,2.833 75.2824,32.777 13.9386,27.637 15.1118,58.942 16.7663,89.256 2.1564,42.928 -0.075,85.875 -2.8931,128.709 -3.2719,42.858 -6.4814,85.72 -9.7633,128.577 -2.2569,32.385 -6.433,64.599 -8.4167,97.002 0.099,9.659 -2.1369,21.014 3.4664,29.618 0.545,0.524 4.2905,4.692 1.3055,0.604 14.3611,12.145 -42.8942,79.844 -57.2553,67.699 l 0,0 c -10.1259,-9.4 -19.1048,-19.499 -24.7976,-32.315 -9.5518,-22.983 -12.9021,-46.761 -10.2806,-71.622 2.4549,-32.656 6.7136,-65.135 9.2415,-97.787 3.4091,-42.476 6.6242,-84.968 9.875,-127.457 2.5639,-39.225 4.6121,-78.57 2.2452,-117.868 -0.9928,-15.397 -2.8917,-34.091 -4.7787,-47.945 4.0243,3.749 4.7827,5.039 10.3775,7.332 8.1348,3.335 12.3527,-0.06 0.8365,0.832 -22.2085,2.374 -43.8153,8.575 -65.131,15.027 -22.5503,7.529 -44.9712,15.581 -66.6869,25.292 -17.0019,7.98 -54.6224,-72.168 -37.6205,-80.148 z" id="path13353" inkscape:connector-curvature="0" style="fill:#2b1100;fill-opacity:1;fill-rule:nonzero;stroke:none" transform="translate(-9216, -60416)"/><path d="m 9646.3323,60589.066 c 36.2821,-8.055 73.3447,-11.243 110.3759,-13.265 43.3681,-1.612 86.7673,0.584 130.0188,3.679 28.5641,2.281 57.0862,5.486 84.777,13.034 3.5104,1.333 7.0208,2.666 10.5312,3.999 17.3126,7.238 -16.8052,88.85 -34.1179,81.613 l 0,0 c -0.3479,-0.28 -0.6958,-0.56 -1.0437,-0.84 -21.4944,-7.024 -44.3462,-8.354 -66.6675,-10.906 -39.4592,-3.11 -79.0793,-5.257 -118.6684,-3.785 -31.2615,1.778 -62.7004,4.287 -93.1334,12.084 -18.1612,4.682 -40.2332,-80.931 -22.072,-85.613 z" id="path13355" inkscape:connector-curvature="0" style="fill:#2b1100;fill-opacity:1;fill-rule:nonzero;stroke:none" transform="translate(-9216, -60416)"/><path d="m 9840.4858,60667.279 c -11.9838,31.955 -20.8331,64.994 -30.2545,97.768 -14.3703,51.47 -31.205,102.193 -47.0305,153.22 -10.2819,33.084 -18.7721,66.685 -28.5624,99.91 -5.5053,17.837 -89.5904,-8.115 -84.0851,-25.952 l 0,0 c 10.7429,-33.043 19.5313,-66.693 30.1163,-99.788 15.8426,-50.173 32.4925,-100.113 46.2152,-150.927 9.8425,-35.488 19.2732,-71.131 31.0259,-106.049 6.7496,-17.517 89.3247,14.301 82.5751,31.818 z" id="path13357" inkscape:connector-curvature="0" style="fill:#2b1100;fill-opacity:1;fill-rule:nonzero;stroke:none" transform="translate(-9216, -60416)"/><path d="m 9605.342,60802.197 c 33.8189,-10.256 68.4879,-17.411 103.0685,-24.555 40.7627,-8.666 81.9607,-14.555 123.5189,-17.42 33.2671,-1.859 66.4615,1.217 99.1279,7.375 32.2882,6.537 51.0853,17.553 69.6197,45.055 15.543,34.152 4.713,68.245 -7.1531,101.555 -14.3604,36.184 -30.4955,71.631 -45.9152,107.37 -10.4208,23.391 -18.381,47.868 -31.3538,70.01 -3.1508,3.756 -6.3016,7.512 -9.4524,11.268 -12.9657,13.578 -76.971,-47.543 -64.0052,-61.121 l 0,0 c -0.4591,0.937 -0.9183,1.875 -1.3774,2.812 10.6772,-11.406 17.1341,-44.266 26.2265,-57.783 14.8319,-33.761 30.0704,-67.379 43.4164,-101.763 0.771,-2.194 8.7782,-31.106 9.737,-32.212 1.1164,-1.288 3.1852,9.185 3.2425,3.954 10.6095,9.282 -0.1771,-3.469 -10.0164,-2.896 -25.0984,-5.278 -50.728,-7.731 -76.3894,-6.643 -37.5383,2.315 -74.7089,7.803 -111.4987,15.651 -30.5747,6.407 -61.3605,12.636 -91.014,22.596 -17.6608,6.318 -47.4426,-76.936 -29.7818,-83.253 z" id="path13359" inkscape:connector-curvature="0" style="fill:#2b1100;fill-opacity:1;fill-rule:nonzero;stroke:none" transform="translate(-9216, -60416)"/><path d="m 9540.6129,61005.628 c 39.6621,-7.937 79.0563,-17.158 118.565,-25.819 53.9769,-12.336 109.0428,-17.983 164.1727,-21.811 43.6596,-2.58 87.4107,-3.411 131.1396,-3.085 30.613,0.119 61.0628,3.527 91.2228,8.539 19.21,2.356 35.502,9.157 51.175,20.224 14.343,12.175 -43.05,79.79 -57.393,67.615 l 0,0 c 15.251,8.393 -3.475,-2.309 -8.891,-1.144 -25.434,-4.689 -51.1743,-7.764 -77.0673,-8.041 -41.467,-0.609 -82.9637,-0.04 -124.3801,2.187 -50.8016,3.301 -101.5641,8.265 -151.2489,19.873 -40.2311,9.047 -80.369,18.495 -120.4458,28.203 -18.4006,3.575 -35.2496,-83.166 -16.849,-86.741 z" id="path13361" inkscape:connector-curvature="0" style="fill:#2b1100;fill-opacity:1;fill-rule:nonzero;stroke:none" transform="translate(-9216, -60416)"/><path d="m 9689.0352,61182.003 c 2.5592,24.773 8.9707,48.935 15.5726,72.88 6.3468,21.659 13.3506,43.227 22.3642,63.942 1.9669,3.125 1.6615,2.838 -0.2216,-1.236 11.2907,15.047 -59.6437,68.272 -70.9344,53.225 l 0,0 c -8.1705,-12.505 -4.7679,-6.335 -10.4932,-18.349 -9.6356,-24.305 -17.7762,-49.198 -24.9934,-74.32 -7.9364,-28.727 -15.3762,-57.67 -19.3781,-87.253 -1.8857,-18.685 86.1982,-27.574 88.0839,-8.889 z" id="path13363" inkscape:connector-curvature="0" style="fill:#2b1100;fill-opacity:1;fill-rule:nonzero;stroke:none" transform="translate(-9216, -60416)"/><path d="m 9658.3712,61155.183 c 30.8225,-12.985 63.2925,-21.112 95.9238,-28 35.8773,-6.992 72.3067,-10.339 108.7985,-11.546 28.2206,-0.625 56.1479,2.046 83.1583,10.264 27.328,9.335 45.0598,27.742 56.6452,53.598 8.921,28.016 4.407,56.568 -1.991,84.521 -7.3574,27.427 -16.3647,54.376 -24.8411,81.471 -3.5459,13.583 -8.6599,26.404 -15.1271,38.817 -9.2996,16.312 -86.1947,-27.527 -76.895,-43.839 l 0,0 c 3.4939,-6.059 6.1974,-14.454 8.3263,-21.61 8.0059,-24.741 16.236,-49.44 22.9624,-74.567 2.4959,-10.708 4.48,-22.126 5.1721,-32.763 5.5022,4.88 2.4294,-0.571 -1.7684,-1.838 -16.6253,-6.803 -35.5411,-5.621 -53.1091,-6.576 -31.2965,0.751 -62.5412,3.559 -93.3201,9.444 -26.263,5.536 -52.6039,11.796 -77.0916,23.078 -17.0668,7.815 -53.91,-72.638 -36.8432,-80.454 z" id="path13365" inkscape:connector-curvature="0" style="fill:#2b1100;fill-opacity:1;fill-rule:nonzero;stroke:none" transform="translate(-9216, -60416)"/><path d="m 9661.7964,61311.228 c 35.6042,1.955 71.1933,-2.756 106.5904,-6.047 43.945,-4.45 88.0738,-5.9 132.211,-4.905 25.923,0.971 51.7884,3.209 77.576,5.981 2.8995,0.382 5.799,0.764 8.6985,1.146 18.5517,2.602 6.2871,90.056 -12.2647,87.454 l 0,0 c -2.1769,-0.33 -4.3538,-0.66 -6.5307,-0.99 -23.225,-2.882 -46.5448,-5.157 -69.9181,-6.385 -40.5926,-1.385 -81.193,-0.147 -121.6134,4.044 -40.1906,3.858 -80.4582,8.949 -120.9125,7.84 -18.6969,-1.308 -12.5334,-89.446 6.1635,-88.138 z" id="path13367" inkscape:connector-curvature="0" style="fill:#2b1100;fill-opacity:1;fill-rule:nonzero;stroke:none" transform="translate(-9216, -60416)"/></svg>