<?xml version="1.0" encoding="UTF-8" standalone="no"?>
<svg
   xmlns:dc="http://purl.org/dc/elements/1.1/"
   xmlns:cc="http://creativecommons.org/ns#"
   xmlns:rdf="http://www.w3.org/1999/02/22-rdf-syntax-ns#"
   xmlns:svg="http://www.w3.org/2000/svg"
   xmlns="http://www.w3.org/2000/svg"
   xmlns:sodipodi="http://sodipodi.sourceforge.net/DTD/sodipodi-0.dtd"
   xmlns:inkscape="http://www.inkscape.org/namespaces/inkscape"
   width="1024"
   height="1024"
   id="U8BB8"
   version="1.1"
   inkscape:version="0.48.0 r9654"
   sodipodi:docname="U+8BB8.svg">
  <metadata
     id="metadata13">
    <rdf:RDF>
      <cc:Work
         rdf:about="">
        <dc:format>image/svg+xml</dc:format>
        <dc:type
           rdf:resource="http://purl.org/dc/dcmitype/StillImage" />
      </cc:Work>
    </rdf:RDF>
  </metadata>
  <defs
     id="defs11" />
  <sodipodi:namedview
     pagecolor="#ffffff"
     bordercolor="#666666"
     borderopacity="1"
     objecttolerance="10"
     gridtolerance="10"
     guidetolerance="10"
     inkscape:pageopacity="0"
     inkscape:pageshadow="2"
     inkscape:window-width="640"
     inkscape:window-height="480"
     id="namedview9"
     showgrid="false"
     inkscape:zoom="0.27441406"
     inkscape:cx="512"
     inkscape:cy="512"
     inkscape:window-x="0"
     inkscape:window-y="25"
     inkscape:window-maximized="0"
     inkscape:current-layer="U8BB8" />
  <path
     style="fill:#916f6f;fill-opacity:1;fill-rule:nonzero;stroke:#f9f9f9;stroke-width:0.1;stroke-miterlimit:4;stroke-dasharray:none"
     d="M 231.15625 241.25 C 208.65868 241.73503 155.44116 275.58634 163.40625 289.28125 C 181.77694 318.15425 205.04093 343.41575 228.3125 368.34375 C 243.50623 384.33475 236.07388 376.5285 250.5625 391.6875 C 263.45551 405.0515 326.4555 344.27025 313.5625 330.90625 C 299.42281 316.39025 306.59336 323.8205 292.03125 308.6875 C 273.23408 288.6615 254.04106 268.461 239.90625 244.75 C 238.43123 242.21391 235.32247 241.16018 231.15625 241.25 z M 451.5625 255.25 C 444.55877 255.29652 439.51438 256.96028 438.1875 260.84375 C 427.98741 299.06975 417.32659 337.16525 406.28125 375.15625 C 392.56369 423.78325 376.92293 471.8655 363.03125 520.4375 C 358.08974 538.2065 441.871 561.48775 446.8125 543.71875 C 459.84438 495.36475 475.37354 447.71875 489.21875 399.59375 C 491.55277 391.77222 493.88363 383.95593 496.1875 376.125 C 502.54016 397.88291 513.76233 418.79899 522.96875 416 C 552.84835 405.9201 583.41437 398.10963 614.0625 390.71875 C 609.43833 443.18585 610.72478 495.92986 613.40625 548.5 C 615.23828 569.51098 617.04428 590.52028 618.875 611.53125 C 595.14291 618.45044 571.57028 625.94088 548.15625 633.96875 C 499.77401 650.45075 451.82338 668.23775 402.90625 683.09375 C 385.1633 689.08775 413.4133 772.744 431.15625 766.75 C 479.5323 749.689 527.59105 731.758 576.03125 714.875 C 592.73455 709.04454 609.54106 703.54654 626.4375 698.375 C 629.126 729.37978 631.80721 760.3985 634.46875 791.40625 C 639.29513 836.54125 642.61001 881.795 646.625 927 L 647.9375 937.46875 C 650.68332 955.97775 737.93331 943.04025 735.1875 924.53125 C 734.77945 922.30625 734.3768 920.06875 733.96875 917.84375 C 728.48326 873.22675 724.72743 828.395 719.46875 783.75 C 716.09341 747.83007 712.79558 711.90641 709.59375 675.96875 C 727.97986 671.69918 746.4943 667.86782 765.09375 664.5 C 802.11095 657.996 839.73595 658.15025 877.0625 654.90625 C 895.60506 653.05125 886.88632 565.646 868.34375 567.5 C 828.71688 572.143 788.51133 571.96325 749.25 579.90625 C 733.47412 582.94193 717.76902 586.2629 702.125 589.84375 C 700.85262 574.70311 699.60098 559.55018 698.375 544.40625 C 695.96477 490.46325 694.84722 436.136 703.5 382.625 C 704.1149 378.79367 700.85682 375.16427 695.28125 371.96875 C 726.8915 365.3482 758.67897 359.62951 790.59375 354.625 C 802.63359 352.739 814.67315 351.4065 826.84375 351.9375 C 845.49801 351.8845 845.24802 263.95 826.59375 264 C 809.76541 264.428 793.0456 265.5965 776.46875 268.8125 C 724.72607 277.7145 673.22453 287.893 622.15625 300.125 C 584.78694 308.80844 547.38543 317.44773 510.40625 327.6875 C 514.17828 314.92524 517.97882 302.19151 521.875 289.46875 C 526.61386 275.59844 476.57583 255.08385 451.5625 255.25 z M 179.15625 443.625 C 161.05925 443.11554 146.27432 527.59531 164.46875 530.84375 C 177.66093 533.07675 192.85146 534.46825 201.6875 545.65625 C 214.35896 571.80925 218.16195 601.36175 222.90625 629.71875 C 231.47432 690.43675 238.96196 751.31 245.78125 812.25 C 250.87707 854.33 255.62702 896.505 263.78125 938.125 C 265.55852 949.482 269.0578 960.14475 273.09375 970.84375 C 280.54838 988.07475 361.76713 952.95075 354.3125 935.71875 C 352.33467 930.73875 350.48618 925.6105 349.6875 920.3125 C 341.098 881.4505 336.4188 841.89475 331.25 802.46875 C 323.95859 740.24275 316.23515 678.0565 308.09375 615.9375 C 300.63002 568.3605 294.28197 517.9655 260.90625 480.6875 C 236.46901 459.8845 211.89665 448.41175 180.03125 443.71875 C 179.74245 443.66717 179.4435 443.63309 179.15625 443.625 z "
     id="path12653" />
</svg>
