<?xml version="1.0" encoding="UTF-8" standalone="no"?>
<svg
   xmlns:dc="http://purl.org/dc/elements/1.1/"
   xmlns:cc="http://creativecommons.org/ns#"
   xmlns:rdf="http://www.w3.org/1999/02/22-rdf-syntax-ns#"
   xmlns:svg="http://www.w3.org/2000/svg"
   xmlns="http://www.w3.org/2000/svg"
   xmlns:sodipodi="http://sodipodi.sourceforge.net/DTD/sodipodi-0.dtd"
   xmlns:inkscape="http://www.inkscape.org/namespaces/inkscape"
   width="1024"
   height="1024"
   id="U8BFB"
   version="1.1"
   inkscape:version="0.48.0 r9654"
   sodipodi:docname="U+8BFB.svg">
  <metadata
     id="metadata17">
    <rdf:RDF>
      <cc:Work
         rdf:about="">
        <dc:format>image/svg+xml</dc:format>
        <dc:type
           rdf:resource="http://purl.org/dc/dcmitype/StillImage" />
      </cc:Work>
    </rdf:RDF>
  </metadata>
  <defs
     id="defs15" />
  <sodipodi:namedview
     pagecolor="#ffffff"
     bordercolor="#666666"
     borderopacity="1"
     objecttolerance="10"
     gridtolerance="10"
     guidetolerance="10"
     inkscape:pageopacity="0"
     inkscape:pageshadow="2"
     inkscape:window-width="640"
     inkscape:window-height="480"
     id="namedview13"
     showgrid="false"
     inkscape:zoom="0.27441406"
     inkscape:cx="512"
     inkscape:cy="512"
     inkscape:window-x="0"
     inkscape:window-y="25"
     inkscape:window-maximized="0"
     inkscape:current-layer="U8BFB" />
  <path
     style="fill:#550000;fill-opacity:1;fill-rule:nonzero;stroke:#f9f9f9;stroke-width:0.1;stroke-miterlimit:4;stroke-dasharray:none"
     d="M 618.40625 109.65625 C 614.88485 109.6171 612.23172 110.58595 610.8125 112.78125 C 591.865 144.83469 584.88729 181.24158 580 217.625 C 575.46162 217.96069 570.91806 218.27846 566.375 218.5625 C 534.6588 220.6445 502.71105 223.1305 470.96875 220.1875 C 452.48025 218.1885 443.04275 305.34475 461.53125 307.34375 C 498.46085 309.71075 535.45105 306.907 572.28125 304.25 C 573.10502 304.19276 573.92636 304.12118 574.75 304.0625 C 574.28163 328.40012 574.33363 352.76728 574.34375 377.09375 L 574.40625 397.9375 C 555.65611 400.20955 536.93337 402.71783 518.25 405.5 C 473.7386 412.472 429.17815 420.06675 386.03125 433.34375 C 368.51665 439.47375 397.39165 522.03625 414.90625 515.90625 C 452.66515 502.80925 492.2873 496.303 531.625 490 C 569.62724 484.25771 607.81093 479.81346 646.09375 476.46875 C 644.70709 513.9832 636.90003 550.88907 628.8125 587.4375 C 621.58076 618.34023 612.77002 648.79284 602.96875 678.9375 C 578.93853 682.76042 554.94854 686.84666 531.03125 691.34375 C 546.62234 670.53462 561.455 629.17731 549.5625 623.71875 C 531.6142 615.54875 513.37895 607.72125 496.59375 597.28125 C 480.70485 587.66425 435.39225 662.5705 451.28125 672.1875 C 467.35566 681.36593 484.08082 689.2486 500.875 697 C 466.95968 703.30057 432.94294 709.37452 398.5625 712.28125 C 394.5421 712.60492 391.72194 716.99352 389.96875 723.625 C 390.25323 711.71174 390.63918 699.77901 391.1875 687.875 C 393.471 640.439 398.05095 592.5115 390.65625 545.3125 C 377.71765 495.4145 359.7453 471.8305 309.1875 457.0625 C 279.4874 450.3275 249.3222 446.7645 218.875 445.6875 C 200.3114 445.1335 197.6864 532.66475 216.25 533.21875 C 240.8792 533.28175 265.42395 535.6715 289.34375 541.5625 C 305.00105 545.5395 303.9084 551.52775 306.3125 565.21875 C 310.913 604.57875 307.38265 644.3735 305.53125 683.8125 C 303.62245 726.4215 302.9222 769.108 303.875 811.75 C 304.2301 835.263 305.9168 858.55675 313.6875 880.84375 C 324.3285 904.70775 340.2521 913.68425 365.25 917.65625 C 383.11718 918.84077 389.19689 837.98525 373.15625 830.53125 C 381.50564 832.91921 389.63601 836.99039 393.71875 844.71875 C 390.56479 834.35912 391.94853 819.87975 390.40625 809.21875 C 389.9051 795.64268 389.65217 782.05242 389.5625 768.46875 C 392.31304 785.70757 397.99274 800.0811 405.59375 799.46875 C 449.50675 794.11275 492.9388 785.60375 536.375 777.34375 C 547.57911 775.13067 558.82246 773.0336 570.0625 771.03125 C 557.22057 803.69258 543.05346 835.81946 523.84375 865.28125 C 518.84145 872.80825 512.58955 879.191 505.96875 885.25 C 492.73375 898.155 553.5775 960.53 566.8125 947.625 C 577.8892 936.478 588.6074 925.06325 597 911.65625 C 605.69736 897.64222 613.6005 883.24224 620.90625 868.53125 C 621.2833 869.08475 621.73095 869.569 622.28125 869.96875 C 650.62205 889.07975 681.4049 904.05275 712.25 918.59375 C 749.5461 935.84675 787.70525 951.1035 826.15625 965.5625 C 854.27365 976.5295 883.1619 985.6515 910.3125 998.9375 C 927.0152 1006.8165 964.17135 928.0665 947.46875 920.1875 C 917.83475 906.5795 886.91905 896.26975 856.40625 884.84375 C 820.17215 871.32675 784.256 856.8995 749.1875 840.5625 C 723.2841 828.2445 697.1514 815.886 673.75 799.125 C 667.50977 794.59201 654.99772 804.17066 643.5625 817.6875 C 647.46757 807.97849 651.20452 798.21428 654.8125 788.375 C 658.7993 777.54274 662.74119 766.6638 666.59375 755.78125 C 675.82981 754.46074 685.07074 753.15301 694.3125 751.875 C 732.1467 746.565 770.16465 742.9065 808.28125 740.4375 C 824.11985 739.5095 839.98725 739.07775 855.84375 738.59375 C 874.40645 737.78175 870.5626 650.28175 852 651.09375 C 835.3646 652.04575 818.71435 652.76675 802.09375 653.96875 C 766.70203 656.71773 731.39271 660.33581 696.21875 665.125 C 701.96352 645.6085 707.25969 625.98606 712.03125 606.1875 C 722.07602 562.29375 731.29857 518.05416 733.78125 472.96875 C 745.01904 473.48283 756.21947 474.5247 767.375 476.21875 C 768.57634 476.61112 769.85736 476.91779 771.1875 477.21875 C 764.24208 491.20027 756.73443 504.93436 749.53125 518.78125 C 741.12465 534.94625 745.31285 526.93325 737.03125 542.78125 C 728.51915 559.12725 805.5504 599.25125 814.0625 582.90625 C 822.3269 566.98125 818.20805 574.97125 826.53125 558.90625 C 838.90235 535.24625 852.51265 512.0875 862.28125 487.1875 C 871.51195 455.3585 868.7708 428.09525 838.5 408.90625 C 819.9914 399.06825 800.0526 392.867 779.25 390 C 744.0315 385.493 708.5215 385.278 673.125 388.125 C 668.83958 388.46421 664.565 388.82699 660.28125 389.1875 C 660.24265 385.0857 660.19492 380.97698 660.15625 376.875 C 660.03267 350.01268 659.89999 323.11731 660.65625 296.25 C 675.22875 294.78778 689.79051 293.35834 704.375 292.03125 L 717.8125 291.0625 C 736.1594 289.5155 728.87815 203.0155 710.53125 204.5625 L 695.8125 205.96875 C 686.61204 206.96123 677.4179 207.98614 668.21875 209 C 671.19732 192.01635 675.65962 175.33798 684.40625 160.34375 C 693.07923 146.92805 639.92592 109.89553 618.40625 109.65625 z M 260 230.8125 C 240.80517 231.50984 193.37161 285.5935 205.78125 296.96875 C 221.10505 310.07575 235.4187 324.195 247.625 340.25 C 258.9258 354.764 327.33195 301.48175 316.03125 286.96875 C 300.52005 267.34075 283.4428 249.26625 264.9375 232.40625 C 263.65374 231.22941 261.98567 230.74036 260 230.8125 z M 790.21875 481.96875 C 792.10562 482.83502 793.84891 483.90668 795.34375 485.28125 C 793.4344 484.46002 791.74025 483.31146 790.21875 481.96875 z M 534.5 494.75 C 516.47908 494.26124 474.52622 558.83562 489 568.53125 C 509.7132 581.60625 531.0397 593.70825 551.1875 607.65625 C 566.429 618.06525 615.4915 546.2215 600.25 535.8125 C 579.7367 521.9545 558.259 509.611 537.75 495.75 C 536.78508 495.10356 535.70139 494.78258 534.5 494.75 z M 393.8125 844.9375 C 394.24883 846.33214 394.75156 847.65361 395.375 848.875 C 394.96282 847.47287 394.43787 846.15368 393.8125 844.9375 z "
     id="path22421" />
</svg>
