<?xml version="1.0" encoding="UTF-8" standalone="no"?>
<svg
   xmlns:dc="http://purl.org/dc/elements/1.1/"
   xmlns:cc="http://creativecommons.org/ns#"
   xmlns:rdf="http://www.w3.org/1999/02/22-rdf-syntax-ns#"
   xmlns:svg="http://www.w3.org/2000/svg"
   xmlns="http://www.w3.org/2000/svg"
   xmlns:sodipodi="http://sodipodi.sourceforge.net/DTD/sodipodi-0.dtd"
   xmlns:inkscape="http://www.inkscape.org/namespaces/inkscape"
   width="1024"
   height="1024"
   id="U8BC6"
   version="1.1"
   inkscape:version="0.48.0 r9654"
   sodipodi:docname="U+8BC6.svg">
  <metadata
     id="metadata14">
    <rdf:RDF>
      <cc:Work
         rdf:about="">
        <dc:format>image/svg+xml</dc:format>
        <dc:type
           rdf:resource="http://purl.org/dc/dcmitype/StillImage" />
      </cc:Work>
    </rdf:RDF>
  </metadata>
  <defs
     id="defs12" />
  <sodipodi:namedview
     pagecolor="#ffffff"
     bordercolor="#666666"
     borderopacity="1"
     objecttolerance="10"
     gridtolerance="10"
     guidetolerance="10"
     inkscape:pageopacity="0"
     inkscape:pageshadow="2"
     inkscape:window-width="640"
     inkscape:window-height="480"
     id="namedview10"
     showgrid="false"
     inkscape:zoom="0.27441406"
     inkscape:cx="512"
     inkscape:cy="512"
     inkscape:window-x="0"
     inkscape:window-y="25"
     inkscape:window-maximized="0"
     inkscape:current-layer="U8BC6" />
  <path
     style="fill:#a02c2c;fill-opacity:1;fill-rule:nonzero;stroke:#f9f9f9;stroke-width:0.1;stroke-miterlimit:4;stroke-dasharray:none"
     d="M 271.03125 173.15625 C 246.02645 172.74242 195.77476 192.71172 200.375 206.625 C 213.50006 242.666 236.92708 273.03275 261.59375 301.84375 C 265.76154 306.42075 269.92596 310.9855 274.09375 315.5625 C 286.6074 329.2195 350.98239 270.25075 338.46875 256.59375 L 327.6875 244.90625 C 310.39149 224.97825 292.98135 204.235 284.34375 178.875 C 283.05568 174.9795 278.03259 173.27212 271.03125 173.15625 z M 692.3125 233.375 C 662.92191 233.44026 633.79332 237.23844 604.90625 242.75 C 577.60196 247.92528 550.32736 253.60402 523.65625 261.46875 C 523.64686 260.54842 523.62937 259.63925 523.625 258.71875 C 522.60218 239.96675 434.22718 244.77925 435.25 263.53125 C 436.95881 298.05625 440.54826 332.4525 444.21875 366.8125 C 448.04242 407.1945 451.77027 447.57125 458.84375 487.53125 L 461.4375 500.21875 C 465.48089 518.42475 551.32464 499.36225 547.28125 481.15625 C 546.49116 477.90225 545.69635 474.629 544.90625 471.375 C 537.40012 433.901 534.18836 395.8245 530.59375 357.8125 C 529.79257 349.91069 528.9863 342.00595 528.21875 334.09375 C 534.01529 343.33397 540.22992 349.12542 545.375 347.25 C 570.00232 338.7 595.62601 333.46075 621.1875 328.59375 C 645.82531 324.38975 670.73847 320.0985 695.8125 321.3125 C 708.14082 323.0345 701.7919 322.13575 703.28125 327.21875 C 710.13497 345.92075 711.54784 366.318 713.5 386 C 715.32443 411.5753 715.48867 437.24082 714.875 462.875 C 712.77826 463.11055 709.8094 463.43544 704.5 464 C 665.49844 470.279 627.01822 479.4825 589.28125 491.1875 C 550.60713 503.4215 512.11366 516.666 475.65625 534.625 C 459.16224 543.527 501.13099 621.276 517.625 612.375 C 548.61958 595.768 582.09293 584.52425 615.5 573.90625 C 648.95943 563.68425 683.07626 555.556 717.71875 550.625 C 728.3106 549.89 723.84569 549.64975 731.15625 550.46875 C 736.99505 550.57022 741.16431 542.06441 743.5625 530.28125 C 766.46729 536.98917 793.08491 538.89995 795.5625 529 C 798.88583 514.469 801.7222 499.9335 801.8125 484.9375 C 802.79893 449.1745 802.94096 413.29975 800.4375 377.59375 C 797.23942 343.69875 794.23556 308.7965 776.875 278.6875 C 756.50869 250.0335 734.07553 235.10225 698.1875 233.40625 C 696.22587 233.37662 694.27187 233.37065 692.3125 233.375 z M 245.9375 379.75 C 220.21434 381.598 194.78548 385.9665 169.78125 392.3125 C 151.71137 397.4265 175.83637 482.614 193.90625 477.5 C 212.25043 472.29203 231.09124 468.55513 250.15625 467.625 C 250.11429 467.89759 250.10889 468.21653 250.03125 468.4375 C 253.267 496.5295 251.16685 524.9905 250.5625 553.1875 C 249.95609 604.0425 247.72189 654.86775 247 705.71875 C 247.30849 752.39075 246.61726 799.05375 245.96875 845.71875 C 245.03474 875.14275 244.90343 904.4865 248.875 933.6875 C 251.14274 946.8825 249.92569 940.46675 252.5 952.96875 C 256.41734 971.28375 342.76109 952.815 338.84375 934.5 C 336.89936 925.879 337.8209 930.34675 336.0625 921.09375 C 332.19518 896.40475 332.68714 871.47125 333 846.53125 C 333.20969 799.99425 333.70989 753.44425 333.40625 706.90625 C 334.08125 656.38325 336.38908 605.893 337.34375 555.375 C 338.52911 514.755 343.4275 472.871 330.84375 433.5 C 311.09082 393.111 290.9728 379.903 245.9375 379.75 z M 252.4375 467.625 C 253.92207 467.70526 255.41892 467.74725 256.875 468.03125 C 257.35432 468.12525 260.9195 469.8015 256.96875 469.4375 C 255.36227 469.28947 253.93909 468.24633 252.4375 467.625 z M 549.3125 626.25 C 547.72408 626.22363 546.31409 626.59945 545.15625 627.5 C 516.84766 651.538 501.35815 685.08075 487.625 718.71875 C 476.80472 745.45775 469.44282 773.24125 464.8125 801.65625 C 462.01419 820.06725 548.79544 833.25575 551.59375 814.84375 C 554.53026 793.10375 560.4381 771.99775 568.53125 751.59375 C 576.30032 732.36775 583.87136 711.748 599.5 697.375 C 613.16251 686.74855 568.05584 626.56114 549.3125 626.25 z M 801.78125 697.28125 C 783.05712 698.22134 739.98733 759.93008 754 770.09375 C 775.04783 784.39475 794.60058 800.6975 814.15625 816.9375 C 835.82265 834.4555 856.56064 853.05325 874.78125 874.15625 C 887.04727 888.14525 952.98477 830.3005 940.71875 816.3125 C 919.20383 792.0525 895.44022 770.12825 870.1875 749.78125 C 849.17091 732.18625 828.03507 714.7145 805.96875 698.4375 C 804.78124 697.57625 803.36804 697.20158 801.78125 697.28125 z "
     id="path12245" />
</svg>
