<?xml version="1.0" encoding="UTF-8" standalone="no"?>
<svg
   xmlns:dc="http://purl.org/dc/elements/1.1/"
   xmlns:cc="http://creativecommons.org/ns#"
   xmlns:rdf="http://www.w3.org/1999/02/22-rdf-syntax-ns#"
   xmlns:svg="http://www.w3.org/2000/svg"
   xmlns="http://www.w3.org/2000/svg"
   xmlns:sodipodi="http://sodipodi.sourceforge.net/DTD/sodipodi-0.dtd"
   xmlns:inkscape="http://www.inkscape.org/namespaces/inkscape"
   width="1024"
   height="1024"
   id="U8BBA"
   version="1.1"
   inkscape:version="0.48.0 r9654"
   sodipodi:docname="U+8BBA.svg">
  <metadata
     id="metadata13">
    <rdf:RDF>
      <cc:Work
         rdf:about="">
        <dc:format>image/svg+xml</dc:format>
        <dc:type
           rdf:resource="http://purl.org/dc/dcmitype/StillImage" />
      </cc:Work>
    </rdf:RDF>
  </metadata>
  <defs
     id="defs11" />
  <sodipodi:namedview
     pagecolor="#ffffff"
     bordercolor="#666666"
     borderopacity="1"
     objecttolerance="10"
     gridtolerance="10"
     guidetolerance="10"
     inkscape:pageopacity="0"
     inkscape:pageshadow="2"
     inkscape:window-width="640"
     inkscape:window-height="480"
     id="namedview9"
     showgrid="false"
     inkscape:zoom="0.27441406"
     inkscape:cx="512"
     inkscape:cy="512"
     inkscape:window-x="0"
     inkscape:window-y="25"
     inkscape:window-maximized="0"
     inkscape:current-layer="U8BBA" />
  <path
     style="fill:#2b0000;fill-opacity:1;fill-rule:nonzero;stroke:#f9f9f9;stroke-width:0.1;stroke-miterlimit:4;stroke-dasharray:none"
     d="M 499.75 140.90625 C 496.19454 140.92114 493.52381 141.91806 492.125 144.15625 C 474.2616 175.58225 454.62025 205.925 434.40625 235.875 C 407.01915 275.82 378.70755 315.11025 349.71875 353.90625 C 333.14215 375.54225 316.93265 397.48375 300.65625 419.34375 C 297.97365 422.87575 295.3949 426.461 292.5625 429.875 C 281.0381 444.76 351.2256 499.10375 362.75 484.21875 C 365.9858 479.89075 369.13685 475.5025 372.21875 471.0625 C 387.70715 449.0205 403.4803 427.194 419.625 405.625 C 448.9114 365.638 477.68745 325.25375 506.03125 284.59375 C 509.13327 280.07099 512.17876 275.54219 515.25 271 C 536.61028 285.8249 558.60033 299.69288 580.90625 313.09375 C 620.58285 336.78575 662.42615 356.331 705.21875 373.625 C 731.45095 384.065 758.07105 393.54025 784.03125 404.65625 C 784.84225 405.16125 785.65775 405.65025 786.46875 406.15625 C 803.24695 414.56625 842.9032 335.4735 826.125 327.0625 C 823.2283 325.7095 820.3341 324.354 817.4375 323 C 790.9471 312.592 764.15115 303.01525 737.59375 292.78125 C 699.04825 277.52025 661.34095 260.15075 625.78125 238.71875 C 604.37819 225.73357 583.21072 212.36262 563.03125 197.5625 C 564.39665 195.38193 565.79738 193.21627 567.15625 191.03125 C 575.70462 177.3543 521.47781 140.81526 499.75 140.90625 z M 236.71875 223.875 C 214.24135 224.76126 161.6697 259.51694 169.875 273.0625 C 182.084 292.8955 195.48475 311.93225 208.96875 330.90625 C 210.40955 333.06025 211.84045 335.22 213.28125 337.375 C 223.82025 352.835 296.69535 303.1485 286.15625 287.6875 C 284.26325 284.9515 282.3931 282.20475 280.5 279.46875 C 268.1682 262.52175 255.76395 245.55275 245.53125 227.21875 C 244.01175 224.71031 240.88123 223.71088 236.71875 223.875 z M 227.875 367.9375 C 204.5223 368.2485 184.1149 375.775 163.8125 387.25 C 141.8803 398.299 119.68025 409.008 96.46875 417.125 C 78.86775 423.617 109.4615 506.58575 127.0625 500.09375 C 145.07374 492.9944 162.75612 485.0926 180.25 476.8125 C 179.72393 503.8766 180.08001 530.96784 180.5 558.03125 C 181.0327 593.79825 181.9123 629.5645 183.1875 665.3125 C 184.4211 691.7185 185.09365 718.1415 185.90625 744.5625 C 186.22745 755.5695 186.2779 766.58675 185.9375 777.59375 C 185.8127 781.08475 185.07035 784.50225 184.34375 787.90625 C 178.84735 827.70025 194.8869 816.525 262.5625 828.125 C 264.78 828.505 279.3751 805.334 281.0625 803 C 302.5218 773.521 327.5599 746.9615 353 720.9375 C 358.2475 715.7125 363.47125 710.475 368.71875 705.25 C 381.75155 692.245 320.4703 630.8065 307.4375 643.8125 C 301.9724 649.2765 296.49635 654.75375 291.03125 660.21875 C 284.43052 666.93942 277.86115 673.69257 271.34375 680.5 C 271.06922 674.35119 270.77456 668.20998 270.46875 662.0625 C 269.10445 627.0345 268.2459 591.9915 267.875 556.9375 C 267.6123 529.9185 267.5446 502.85275 268.4375 475.84375 C 269.0033 462.70275 269.6791 449.5545 271.875 436.5625 C 276.3917 402.1785 265.6137 376.1595 227.875 367.9375 z M 639.59375 421 C 637.12152 421.00947 635.135 421.71445 633.8125 423.28125 C 609.6905 453.66025 583.085 481.903 555.875 509.5 C 533.58858 531.69823 511.02105 553.59771 487.65625 574.65625 C 488.69086 561.0637 489.63531 547.45529 490.40625 533.84375 C 492.05185 504.92975 493.05845 475.9895 494.40625 447.0625 C 495.07655 428.2955 406.6078 425.13825 405.9375 443.90625 C 405.6871 472.33825 404.72705 500.76225 403.28125 529.15625 C 401.29145 567.57025 397.6299 605.85875 394.875 644.21875 C 392.0087 678.26275 392.56805 712.2975 398.53125 745.9375 C 403.98895 773.9445 417.7786 797.872 436.4375 819 C 452.7183 835.933 472.8907 848.03525 493.5625 858.78125 C 514.4814 869.39625 536.14425 878.28775 558.65625 884.84375 C 590.96275 893.72075 623.9836 891.127 656.625 886.125 C 689.0465 880.038 721.0606 872.0125 753 863.8125 C 776.2089 857.5095 799.73775 852.6575 823.28125 847.8125 C 841.47255 844.1385 859.77065 840.9385 877.78125 836.4375 C 893.76525 832.7345 907.6654 825.098 920.3125 814.875 C 934.5585 802.555 939.5243 786.68625 943.25 768.90625 C 945.66753 751.61395 869.98026 739.82742 857.375 753.25 C 858.21726 751.74451 859.19155 750.31205 860.46875 749.15625 C 858.50381 750.24001 856.11974 751.35286 855.625 750.8125 C 839.0903 755.3165 822.15905 758.1365 805.40625 761.6875 C 780.47815 766.9185 755.53045 772.206 730.96875 779 C 701.91515 786.624 672.7806 794.059 643.25 799.625 C 623.1538 802.757 602.7805 805.3385 582.75 800.1875 C 565.7741 795.5485 549.74245 788.20175 533.96875 780.46875 C 522.57255 774.65475 511.27905 768.2855 501.71875 759.6875 C 493.41495 751.1865 487.405 741.36575 484.8125 729.59375 C 482.1928 717.16698 481.04238 704.60014 480.71875 691.96875 C 493.12098 684.37312 504.77987 675.54268 515.875 665.75 C 551.036 635.383 584.4952 603.124 617.4375 570.375 C 646.3562 541.226 674.49865 511.36325 701.34375 480.28125 C 712.11256 467.52216 659.72474 420.92286 639.59375 421 z M 860.46875 749.15625 C 862.61288 747.97366 864.22269 746.834 862.1875 747.875 C 861.54687 748.25599 860.99526 748.67979 860.46875 749.15625 z M 227.125 455 C 227.67616 454.97425 228.19954 455.006 228.75 455.0625 C 229.1653 455.1055 228.0984 455.63875 227.6875 455.71875 C 225.68186 456.08098 223.65368 456.20208 221.625 456.40625 C 223.45423 455.64418 225.29237 455.08561 227.125 455 z M 272.53125 799.53125 C 272.5775 801.38517 272.22318 803.39585 271.40625 805.5625 C 271.79985 803.55733 272.18044 801.54448 272.53125 799.53125 z "
     id="path10422" />
</svg>
