<?xml version="1.0" encoding="UTF-8" standalone="no"?>
<svg
   xmlns:dc="http://purl.org/dc/elements/1.1/"
   xmlns:cc="http://creativecommons.org/ns#"
   xmlns:rdf="http://www.w3.org/1999/02/22-rdf-syntax-ns#"
   xmlns:svg="http://www.w3.org/2000/svg"
   xmlns="http://www.w3.org/2000/svg"
   xmlns:sodipodi="http://sodipodi.sourceforge.net/DTD/sodipodi-0.dtd"
   xmlns:inkscape="http://www.inkscape.org/namespaces/inkscape"
   width="1024"
   height="1024"
   id="U8C08"
   version="1.1"
   inkscape:version="0.48.0 r9654"
   sodipodi:docname="U+8C08.svg">
  <metadata
     id="metadata17">
    <rdf:RDF>
      <cc:Work
         rdf:about="">
        <dc:format>image/svg+xml</dc:format>
        <dc:type
           rdf:resource="http://purl.org/dc/dcmitype/StillImage" />
      </cc:Work>
    </rdf:RDF>
  </metadata>
  <defs
     id="defs15" />
  <sodipodi:namedview
     pagecolor="#ffffff"
     bordercolor="#666666"
     borderopacity="1"
     objecttolerance="10"
     gridtolerance="10"
     guidetolerance="10"
     inkscape:pageopacity="0"
     inkscape:pageshadow="2"
     inkscape:window-width="640"
     inkscape:window-height="480"
     id="namedview13"
     showgrid="false"
     inkscape:zoom="0.27441406"
     inkscape:cx="512"
     inkscape:cy="512"
     inkscape:window-x="0"
     inkscape:window-y="25"
     inkscape:window-maximized="0"
     inkscape:current-layer="U8C08" />
  <path
     style="fill:#782121;fill-opacity:1;fill-rule:nonzero;stroke:#f9f9f9;stroke-width:0.1;stroke-miterlimit:4;stroke-dasharray:none"
     d="M 601.15625 132.9375 C 595.64603 133.02021 591.69889 134.47219 590.34375 137.71875 C 574.21336 186.31675 554.53707 233.498 533.1875 280 C 527.03416 292.70066 520.69427 305.325 514.25 317.875 C 513.66523 317.28312 513.53061 317.12892 512.84375 316.4375 C 494.87363 294.3705 480.80221 269.92025 468 244.53125 C 458.73991 228.21625 381.83366 271.8715 391.09375 288.1875 C 406.92413 317.3135 424.18963 345.201 444.875 371.125 C 463.38124 390.48564 456.79702 384.43244 471.65625 396.96875 C 454.88404 426.88286 437.63566 456.54415 420.25 486.09375 C 396.53641 521.96975 378.22559 561.9615 350.96875 595.4375 C 349.90835 596.2625 348.84166 597.08025 347.78125 597.90625 C 334.65014 611.21125 397.3689 673.1175 410.5 659.8125 L 420.65625 648.78125 C 448.44752 611.05425 469.5724 568.96575 494.03125 529.09375 C 500.39344 518.07769 506.73862 507.04092 513.0625 496 C 532.29595 518.39646 555.81287 536.71804 580.1875 553.625 C 631.65537 586.927 691.2114 600.6895 750.4375 612.6875 C 788.76893 620.8595 828.45101 625.3735 865.09375 639.9375 C 869.49783 642.8285 870.28651 642.718 866.46875 641.875 C 881.10817 653.596 936.35817 584.596 921.71875 572.875 C 904.67068 561.033 913.5474 566.10925 895.21875 557.53125 C 853.77923 543.21925 810.449 536.174 767.4375 528.25 C 719.70416 518.702 671.28111 508.594 629.5 482.25 C 607.41982 467.089 585.66783 450.429 571.59375 427.125 C 569.11869 422.82878 561.94441 422.77574 552.90625 425.28125 C 572.81266 389.22169 592.14719 352.86555 610.40625 315.9375 C 632.68002 268.6275 653.34462 220.65225 671.96875 171.78125 C 677.84103 157.712 625.03386 132.57908 601.15625 132.9375 z M 198 155.96875 C 177.08391 155.8244 123.28685 196.91762 132.84375 210.25 C 156.59829 241.562 182.89421 270.8235 208.40625 300.6875 C 226.1357 321.9745 244.41191 342.796 262.53125 363.75 C 274.72776 377.67 340.35276 320.17 328.15625 306.25 C 310.02253 285.824 291.81963 265.42925 274.375 244.40625 C 250.52281 216.38925 225.79747 188.98025 204.6875 158.78125 C 203.32223 156.87662 200.98801 155.98937 198 155.96875 z M 755.09375 206.09375 C 746.47894 205.87131 740.14274 207.58325 738.75 212.0625 C 728.13096 247.6515 714.12818 282.06525 698.65625 315.78125 C 687.44837 339.66225 674.51767 362.54875 658.96875 383.84375 C 648.30115 398.94475 719.48865 449.25825 730.15625 434.15625 C 748.15046 408.07725 764.04259 380.7635 777.3125 351.9375 C 794.40139 314.8055 809.85606 276.98875 823.21875 238.34375 C 827.39696 224.906 780.93817 206.76106 755.09375 206.09375 z M 153.90625 432.0625 C 135.79697 431.90001 122.64705 516.6928 140.90625 519.59375 C 163.24622 522.42175 185.18988 527.32025 206.46875 534.65625 C 205.1696 535.90725 221.21141 538.8195 218.9375 542.5625 C 216.38167 546.7705 215.7617 535.92275 216.9375 548.46875 C 218.94282 587.18575 210.95595 625.6605 205.40625 663.8125 C 197.89144 719.2615 192.65553 775.04175 188.59375 830.84375 C 184.81941 866.47175 187.91499 902.03425 191 937.53125 C 191.58312 950.67025 192.15449 963.36075 195.09375 976.21875 C 200.24516 993.6704 279.92121 970.76086 280.4375 952.90625 C 281.43278 960.5532 278.76328 931.18356 278.53125 929 C 275.24407 898.35 271.88405 867.621 275 836.75 C 278.44092 783.187 283.21736 729.661 290.6875 676.5 C 298.01964 628.276 308.78018 579.459 302.875 530.5 C 292.68423 487.73 276.03616 466.62025 234.34375 451.40625 C 208.34217 442.87925 181.75564 436.76525 154.78125 432.15625 C 154.49142 432.1102 154.1937 432.06508 153.90625 432.0625 z M 588 624.875 C 565.8765 624.68425 543.70592 629.176 543.625 638.5625 C 544.09617 668.4675 535.43786 697.22025 526.46875 725.40625 C 523.58232 734.01496 520.54602 742.58264 517.40625 751.09375 C 514.91672 749.89721 512.42703 748.69668 509.9375 747.5 C 486.84777 734.631 465.21963 719.61075 445.6875 701.71875 C 431.10652 689.88275 375.29401 758.63175 389.875 770.46875 C 413.89945 790.82275 439.89944 808.229 467.3125 823.625 C 472.93563 826.35959 478.56437 829.0781 484.1875 831.8125 C 477.44482 846.90486 470.51171 861.91209 463.5 876.875 C 447.78577 906.731 435.92343 940.21975 413.09375 965.71875 L 412.53125 965.125 C 398.45502 977.493 456.76753 1043.868 470.84375 1031.5 C 474.40171 1028.017 477.94204 1024.5143 481.5 1021.0312 C 505.68518 989.62878 522.85193 953.89205 539.40625 918.03125 C 558.95449 938.26659 581.61945 955.34319 604.625 971.65625 C 648.25344 1002.4633 696.99572 1023.3818 747.625 1039.4688 C 779.85083 1048.9488 812.97199 1054.6073 846.0625 1060.0312 C 864.46413 1062.8152 877.62037 976.06525 859.21875 973.28125 C 830.41227 969.30825 801.58985 964.86425 773.5625 956.90625 C 731.44851 943.88125 691.04797 926.482 654.875 900.875 C 630.92616 883.843 606.76977 866.10525 590.125 841.40625 C 587.58697 837.85987 581.72939 837.97254 574.40625 840.34375 C 586.90744 811.2827 598.64186 781.89407 608.96875 751.96875 C 620.86493 715.36975 631.39233 678.13075 632.125 639.34375 C 632.20592 629.95725 610.1235 625.06575 588 624.875 z M 753.40625 660.6875 C 750.93172 660.73345 748.95698 661.47459 747.65625 663.0625 C 728.19862 686.8895 708.34247 710.379 688.9375 734.25 C 678.30658 747.855 667.33013 761.1795 656.125 774.3125 C 644.15135 788.4615 710.8701 844.899 722.84375 830.75 C 734.29593 817.118 745.55974 803.36875 756.53125 789.34375 C 775.94661 765.57275 795.76757 742.123 816.09375 719.125 C 826.68537 706.19491 773.55603 660.31331 753.40625 660.6875 z "
     id="path11674" />
</svg>
