<?xml version="1.0" encoding="utf-8" ?>

<!DOCTYPE svg PUBLIC "-//W3C//DTD SVG 1.1//EN" 
  "http://www.w3.org/Graphics/SVG/1.1/DTD/svg11.dtd">
<svg 
    xmlns="http://www.w3.org/2000/svg"
    xmlns:xlink="http://www.w3.org/1999/xlink"
    xmlns:sodipodi="http://sodipodi.sourceforge.net/DTD/sodipodi-0.dtd"
    xmlns:inkscape="http://www.inkscape.org/namespaces/inkscape"
    width="1024" height="1024" id="U8C03">
<path d="m 8430.1829,9446.1826 c 17.6578,21.7627 34.6586,43.9644 50.5327,67.06 10.363,15.0972 -60.8056,63.9489 -71.1686,48.8518 l 0,0 c -14.5365,-21.2111 -30.2988,-41.4878 -47.3413,-60.7605 -11.6994,-14.4201 56.2778,-69.5715 67.9772,-55.1513 z" id="path22165" inkscape:connector-curvature="0" style="fill:#550000;fill-opacity:1;fill-rule:nonzero;stroke:#f9f9f9;stroke-width:0.1;stroke-miterlimit:4;stroke-dasharray:none" transform="translate(-8192, -9216)"/><path d="m 8344.0196,9681.3491 c 30.9041,-8.4924 62.4675,-12.5674 94.4543,-12.7426 37.8422,1.7471 71.1753,18.3944 87.2604,54.3501 3.3554,7.5007 4.8338,15.7071 7.2508,23.5606 7.9349,50.7205 5.6727,102.4473 5.3889,153.6258 -0.5153,51.676 -0.6287,103.35 0.3838,155.02 1.6133,28.125 1.0812,56.826 6.5454,84.588 0.2336,0.06 0.4671,0.126 0.7007,0.189 -1.6351,-3.67 -3.2702,-7.341 -4.9054,-11.011 12.0091,14.216 -55.0056,70.828 -67.0147,56.612 l 0,0 c -13.6912,-22.482 -9.428,-11.628 -14.9223,-31.644 -4.7223,-32.212 -5.4394,-64.864 -6.2788,-97.364 -0.649,-52.249 -0.3401,-104.4966 0.047,-156.7471 0.1218,-43.5119 1.2883,-87.2946 -3.578,-130.5983 -0.2923,-2.1412 -0.9132,-4.2629 -0.8769,-6.4237 0.057,-3.3869 11.2982,-4.2187 -10.4059,-7.4048 -24.1761,-0.5138 -48.0329,3.2981 -71.1192,10.545 -17.9368,4.8642 -40.867,-79.6908 -22.9302,-84.555 z" id="path22167" inkscape:connector-curvature="0" style="fill:#550000;fill-opacity:1;fill-rule:nonzero;stroke:#f9f9f9;stroke-width:0.1;stroke-miterlimit:4;stroke-dasharray:none" transform="translate(-8192, -9216)"/><path d="m 8737.3057,9519.7049 c 0.5914,50.8584 -2.0653,101.6539 -5.2557,152.3895 -6.0673,88.7648 -18.3678,176.9151 -31.6158,264.8415 -8.2815,58.0697 -19.9499,115.6961 -25.7254,174.1021 -2.0996,18.205 -87.9159,8.307 -85.8163,-9.897 l 0,0 c 7.6904,-59.255 19.5586,-117.8594 28.6172,-176.9085 13.2766,-85.232 25.3037,-170.7629 30.2403,-256.9522 2.4582,-48.1231 4.6661,-96.3878 1.967,-144.5551 -0.6407,-18.5803 86.948,-21.6007 87.5887,-3.0203 z" id="path22169" inkscape:connector-curvature="0" style="fill:#550000;fill-opacity:1;fill-rule:nonzero;stroke:#f9f9f9;stroke-width:0.1;stroke-miterlimit:4;stroke-dasharray:none" transform="translate(-8192, -9216)"/><path d="m 8687.8201,9556.2691 c 9.114,-35.0633 34.5048,-57.5494 63.9616,-76.1516 34.8199,-19.5377 73.1962,-30.9692 111.7217,-40.5528 40.0725,-9.3302 70.1846,-12.7452 110.085,-1.1015 46.7255,20.7388 60.7707,65.7287 70.9627,111.9004 11.4239,68.2863 13.2713,137.7208 16.1109,206.766 3.1209,81.9325 6.6334,163.8487 10.8596,245.7314 3.3492,61.778 6.82,123.549 10.5286,185.306 1.4345,16.045 1.4422,32.042 0.5674,48.095 -1.5384,18.442 -88.4727,11.19 -86.9343,-7.252 l 0,0 c 1.8165,-12.083 0.9203,-24.266 0.5403,-36.442 -2.6284,-61.849 -5.6567,-123.679 -8.7736,-185.506 -3.968,-82.0808 -7.4978,-164.1819 -10.9203,-246.2876 -2.9184,-64.0632 -4.9978,-128.4999 -15.9197,-191.8158 -3.641,-16.3552 -7.2934,-32.8958 -14.7818,-47.9945 -17.5534,-10.6586 -43.3209,0.7611 -61.6659,2.4687 -29.8229,7.2597 -59.5962,15.8151 -86.7441,30.4846 -9.4348,5.5966 -20.6824,11.1287 -24.2249,22.2987 -4.2314,18.1104 -89.6046,-1.8366 -85.3732,-19.947 z" id="path22171" inkscape:connector-curvature="0" style="fill:#550000;fill-opacity:1;fill-rule:nonzero;stroke:#f9f9f9;stroke-width:0.1;stroke-miterlimit:4;stroke-dasharray:none" transform="translate(-8192, -9216)"/><path d="m 8715.758,9682.0668 c 30.7883,-20.0427 65.7465,-32.0303 100.4411,-43.3259 28.6451,-8.9263 57.7329,-16.288 87.2041,-21.879 18.1765,-3.2012 33.2669,82.4837 15.0905,85.6848 l 0,0 c -25.6223,4.0673 -50.7786,10.4725 -75.5613,18.1268 -25.8628,8.46 -52.2537,17.0549 -75.2169,32.023 -14.9828,11.0219 -66.9404,-59.6079 -51.9575,-70.6297 z" id="path22173" inkscape:connector-curvature="0" style="fill:#550000;fill-opacity:1;fill-rule:nonzero;stroke:#f9f9f9;stroke-width:0.1;stroke-miterlimit:4;stroke-dasharray:none" transform="translate(-8192, -9216)"/><path d="m 8868.5355,9546.5547 c -0.9363,41.156 1.1802,82.3187 2.9521,123.4265 1.8848,42.9254 4.1181,85.8331 6.6366,128.7256 1.0162,18.1703 -84.6394,22.9605 -85.6555,4.7902 l 0,0 c -2.2969,-43.205 -4.3825,-86.4202 -6.433,-129.6375 -2.0397,-42.8145 -4.2193,-85.6335 -4.9743,-128.4949 0.2524,-18.5561 87.7266,-17.3659 87.4741,1.1901 z" id="path22175" inkscape:connector-curvature="0" style="fill:#550000;fill-opacity:1;fill-rule:nonzero;stroke:#f9f9f9;stroke-width:0.1;stroke-miterlimit:4;stroke-dasharray:none" transform="translate(-8192, -9216)"/><path d="m 8709.5024,9839.6466 c 35.536,-13.8273 72.7186,-22.8096 109.6502,-32.0148 38.7804,-9.2721 77.7045,-18.216 117.2511,-23.5256 18.3193,-2.1887 28.637,84.1692 10.3178,86.3579 l 0,0 c -36.0511,3.6084 -71.3829,12.1551 -106.5878,20.4366 -31.7038,8.0788 -63.7753,15.8009 -94.0418,28.4297 -16.9035,7.7618 -53.493,-71.922 -36.5895,-79.6838 z" id="path22177" inkscape:connector-curvature="0" style="fill:#550000;fill-opacity:1;fill-rule:nonzero;stroke:#f9f9f9;stroke-width:0.1;stroke-miterlimit:4;stroke-dasharray:none" transform="translate(-8192, -9216)"/><path d="m 8816.0424,9957.4133 c 1.194,28.4807 7.0957,56.5017 13.06,84.2917 5.0104,19.157 8.1834,39.053 15.5623,57.511 6.1563,17.49 -76.2907,46.511 -82.447,29.021 l 0,0 c -7.3586,-22.415 -12.3937,-45.483 -17.6237,-68.47 -7.0972,-33.331 -13.8595,-66.8713 -16.1403,-100.9409 -0.2997,-18.5804 87.289,-19.9931 87.5887,-1.4128 z" id="path22179" inkscape:connector-curvature="0" style="fill:#550000;fill-opacity:1;fill-rule:nonzero;stroke:#f9f9f9;stroke-width:0.1;stroke-miterlimit:4;stroke-dasharray:none" transform="translate(-8192, -9216)"/><path d="m 8787.3128,9926.796 c 30.6722,-5.1874 61.6888,-7.6704 92.7691,-8.0592 25.1975,1.0114 53.2539,1.4603 75.4965,15.262 5.3314,3.3082 9.8962,7.7159 14.8443,11.5738 22.5912,25.0053 21.1757,55.7544 19.271,87.0174 -0.7528,19.192 -3.2131,38.107 -7.6795,56.767 -4.5798,17.952 -89.2072,-3.637 -84.6273,-21.59 l 0,0 c 3.8515,-13.114 4.342,-26.844 5.2985,-40.407 0.3962,-6.695 0.7105,-11.159 0.9238,-17.73 0.3757,-11.5762 1.0764,-3.997 7.4658,0.222 7.6287,3.043 3.4293,0.1 -0.5298,-1.03 -9.6558,-2.752 -19.7814,-3.154 -29.7461,-3.412 -26.0326,0.07 -52.1183,2.193 -77.6368,7.524 -18.2727,3.362 -34.1222,-82.7759 -15.8495,-86.138 z" id="path22181" inkscape:connector-curvature="0" style="fill:#550000;fill-opacity:1;fill-rule:nonzero;stroke:#f9f9f9;stroke-width:0.1;stroke-miterlimit:4;stroke-dasharray:none" transform="translate(-8192, -9216)"/><path d="m 8799.1894,10078.177 c 28.5725,-1.217 57.0257,-4.066 85.4138,-7.426 21.6105,-2.84 10.9033,-1.419 32.1219,-4.262 18.2181,-2.379 29.4348,83.502 11.2167,85.881 l 0,0 c -21.5987,2.749 -10.558,1.337 -33.1217,4.239 -29.4839,3.526 -59.0184,6.47 -88.6093,8.946 -18.5357,1.49 -25.5571,-85.888 -7.0214,-87.378 z" id="path22185" inkscape:connector-curvature="0" style="fill:#550000;fill-opacity:1;fill-rule:nonzero;stroke:#f9f9f9;stroke-width:0.1;stroke-miterlimit:4;stroke-dasharray:none" transform="translate(-8192, -9216)"/></svg>