<?xml version="1.0" encoding="UTF-8" standalone="no"?>
<svg
   xmlns:dc="http://purl.org/dc/elements/1.1/"
   xmlns:cc="http://creativecommons.org/ns#"
   xmlns:rdf="http://www.w3.org/1999/02/22-rdf-syntax-ns#"
   xmlns:svg="http://www.w3.org/2000/svg"
   xmlns="http://www.w3.org/2000/svg"
   xmlns:sodipodi="http://sodipodi.sourceforge.net/DTD/sodipodi-0.dtd"
   xmlns:inkscape="http://www.inkscape.org/namespaces/inkscape"
   width="1024"
   height="1024"
   id="U8C01"
   version="1.1"
   inkscape:version="0.48.0 r9654"
   sodipodi:docname="U+8C01.svg">
  <metadata
     id="metadata17">
    <rdf:RDF>
      <cc:Work
         rdf:about="">
        <dc:format>image/svg+xml</dc:format>
        <dc:type
           rdf:resource="http://purl.org/dc/dcmitype/StillImage" />
      </cc:Work>
    </rdf:RDF>
  </metadata>
  <defs
     id="defs15" />
  <sodipodi:namedview
     pagecolor="#ffffff"
     bordercolor="#666666"
     borderopacity="1"
     objecttolerance="10"
     gridtolerance="10"
     guidetolerance="10"
     inkscape:pageopacity="0"
     inkscape:pageshadow="2"
     inkscape:window-width="640"
     inkscape:window-height="480"
     id="namedview13"
     showgrid="false"
     inkscape:zoom="0.27441406"
     inkscape:cx="512"
     inkscape:cy="512"
     inkscape:window-x="0"
     inkscape:window-y="25"
     inkscape:window-maximized="0"
     inkscape:current-layer="U8C01" />
  <path
     style="fill:#782121;fill-opacity:1;fill-rule:nonzero;stroke:#f9f9f9;stroke-width:0.1;stroke-miterlimit:4;stroke-dasharray:none"
     d="M 544.90625 140.1875 C 542.43063 140.18277 540.42705 140.87617 539.09375 142.4375 C 512.41735 177.3355 489.3151 214.817 465.8125 251.875 C 426.748 314.662 387.7759 377.49675 349.625 440.84375 C 332.32984 473.13033 309.69346 503.27411 295.25 537.0625 C 294.97668 533.34062 294.66598 529.59377 294.3125 525.875 C 285.6765 479.41 271.61515 452.087 225.21875 435.25 C 197.69845 427.485 169.50965 423.4725 141.03125 421.0625 C 122.32895 419.6015 115.45405 507.789 134.15625 509.25 C 156.47345 510.62 178.9376 512.651 200.3125 519.5 C 201.9189 520.343 206.50525 522.1495 207.65625 524.4375 C 208.04345 525.2065 206.18425 525.66925 206.15625 526.53125 C 206.00245 531.29025 207.4692 535.9715 208.125 540.6875 C 212.5882 591.3485 209.2787 642.3415 207.4375 693.0625 C 204.8471 755.5265 204.81635 818.0295 208.46875 880.4375 C 210.81315 918.1955 217.3922 955.421 229.5 991.25 C 230.8714 994.637 232.22235 998.01925 233.59375 1001.4062 C 240.94215 1018.6262 322.12965 983.971 314.78125 966.75 C 314.01275 965.122 313.23735 963.503 312.46875 961.875 C 301.90605 934.022 297.07455 904.58975 294.65625 874.96875 C 290.56725 815.50375 290.46805 755.89375 293.09375 696.34375 C 294.87148 652.47987 297.82443 608.42035 296.59375 564.5 C 316.89745 578.58789 371.26846 589.25809 374.9375 574.875 C 371.8397 578.071 372.25285 578.0005 376.84375 568.1875 C 385.88095 548.8695 396.7723 530.1935 407.3125 511.6875 C 412.4644 502.6415 417.75295 493.66425 422.96875 484.65625 C 424.85753 481.46721 426.76043 478.27853 428.65625 475.09375 C 430.54739 492.52191 432.18622 509.97003 433.6875 527.4375 C 438.7003 600.2715 440.966 673.23925 446.625 746.03125 C 450.9536 795.61725 457.21565 845.1 467.84375 893.75 C 469.09225 898.119 470.34525 902.47475 471.59375 906.84375 C 477.14895 924.67075 561.1802 898.48325 555.625 880.65625 C 554.8029 878.38025 553.97845 876.12075 553.15625 873.84375 C 542.04225 829.70075 536.23475 784.40225 531.78125 739.15625 C 526.00638 670.23166 523.7705 601.13804 519.9375 532.09375 C 565.49825 525.496 610.38817 514.95612 655.375 505.3125 C 668.30544 502.4449 681.26543 499.74094 694.25 497.15625 C 694.34653 527.84672 695.72979 558.54419 697.0625 589.21875 C 666.64249 595.13137 636.25361 601.2833 605.75 606.75 C 587.3219 610.26 603.8844 697.135 622.3125 693.625 C 648.10951 687.80744 673.96293 682.24037 699.875 676.96875 C 700.26224 690.81019 700.68135 704.65955 701.09375 718.5 C 671.59773 726.40056 641.8735 734.04573 611.4375 736.8125 C 592.7112 738.0505 598.55495 826.33175 617.28125 825.09375 C 646.64812 821.62848 675.42693 814.88176 704 807.34375 C 704.5105 821.40797 705.05364 835.46863 705.625 849.53125 C 706.20443 863.12749 706.89227 876.72402 707.625 890.3125 C 672.64851 896.63225 638.04181 904.83973 604.03125 915.6875 C 565.60245 927.7385 527.6263 941.59025 488.625 951.65625 C 470.1038 954.77225 484.7912 1042.0848 503.3125 1038.9688 C 546.243 1027.3917 587.8337 1011.2838 630.125 997.59375 C 691.0746 977.66675 754.31745 967.6855 817.96875 961.8125 C 867.74475 958.0475 917.66995 958.64675 967.53125 959.71875 C 979.77255 959.99175 992.00615 960.28025 1004.2188 961.15625 C 1022.8751 962.13425 1027.5001 874.19675 1008.8438 873.21875 C 995.45575 872.70975 982.05545 872.57375 968.65625 872.59375 C 915.71085 872.35975 862.6899 872.22225 809.875 876.53125 C 804.30643 877.0705 798.74946 877.65266 793.1875 878.25 C 792.44248 867.38124 791.7396 856.50445 791.15625 845.625 C 790.11309 825.15482 789.17072 804.66454 788.34375 784.1875 C 817.92546 776.17799 847.56715 768.40881 877.125 760.3125 C 890.9453 756.8105 904.38325 752.23975 917.65625 747.09375 C 934.93465 739.95175 901.24715 658.51425 883.96875 665.65625 C 874.16055 670.23825 863.84475 673.3715 853.46875 676.4375 C 830.83167 683.01369 808.11508 689.25823 785.375 695.46875 C 785.06904 684.14876 784.81742 672.82189 784.5625 661.5 C 812.63068 657.05676 840.75717 653.08028 868.875 648.96875 C 885.2398 646.60675 877.4509 647.84475 892.3125 645.34375 C 910.6877 641.90875 894.5002 555.28375 876.125 558.71875 C 863.8742 561.30875 870.76405 559.9395 855.40625 562.5625 C 831.06804 566.60481 806.67457 570.38689 782.3125 574.28125 C 781.34224 543.47949 780.67767 512.65313 782.15625 481.90625 C 794.88782 480.03128 807.63146 478.27811 820.40625 476.6875 C 841.82475 474.7845 863.25505 471.71525 884.78125 471.15625 C 888.67506 471.05481 890.55859 471.05533 891.40625 471.09375 C 908.09522 462.73905 921.61793 388.3056 904.59375 384.90625 C 891.49904 383.33663 878.41036 383.54898 865.34375 384.53125 C 862.48576 381.08199 859.60799 377.63695 856.75 374.1875 C 830.4788 341.9965 804.90015 309.19775 782.03125 274.46875 C 762.84595 244.72875 744.23675 214.4395 730.03125 181.9375 C 722.19635 164.8855 641.82135 201.823 649.65625 218.875 C 667.08615 254.482 687.6946 288.3405 709.25 321.5625 C 726.45543 347.63146 745.02841 372.73687 764.125 397.4375 C 721.73176 404.14695 679.54926 412.14679 637.59375 421.28125 C 596.15654 429.93501 554.70955 439.60774 512.59375 444.3125 C 510.7657 426.4126 508.77354 408.51829 506.53125 390.65625 C 505.72676 385.02467 497.09445 382.27175 485.5625 381.65625 C 502.89312 353.76704 520.40472 325.97735 538.09375 298.3125 C 559.88145 264.8835 581.17465 230.89025 606.40625 199.90625 C 617.26315 187.19258 565.06486 140.226 544.90625 140.1875 z M 891.40625 471.09375 C 891.19683 471.19859 890.99162 471.29124 890.78125 471.375 C 891.7798 471.2543 892.35584 471.13679 891.40625 471.09375 z M 890.78125 471.375 C 889.67484 471.50874 888.1847 471.65473 887.25 471.75 C 888.43189 471.986 889.61741 471.83839 890.78125 471.375 z M 217.625 203.65625 C 196.67274 203.38741 142.53671 244.24338 152.03125 257.65625 C 167.54005 279.59225 183.21015 301.433 197.40625 324.25 C 207.24915 339.982 281.4054 293.57575 271.5625 277.84375 C 256.3747 253.67975 239.82745 230.434 224.28125 206.5 C 222.92489 204.58388 220.61818 203.69466 217.625 203.65625 z "
     id="path11035" />
</svg>
