<?xml version="1.0" encoding="UTF-8" standalone="no"?>
<svg
   xmlns:dc="http://purl.org/dc/elements/1.1/"
   xmlns:cc="http://creativecommons.org/ns#"
   xmlns:rdf="http://www.w3.org/1999/02/22-rdf-syntax-ns#"
   xmlns:svg="http://www.w3.org/2000/svg"
   xmlns="http://www.w3.org/2000/svg"
   xmlns:sodipodi="http://sodipodi.sourceforge.net/DTD/sodipodi-0.dtd"
   xmlns:inkscape="http://www.inkscape.org/namespaces/inkscape"
   width="1024"
   height="1024"
   id="U8DDF"
   version="1.1"
   inkscape:version="0.48.0 r9654"
   sodipodi:docname="U+8DDF.svg">
  <metadata
     id="metadata20">
    <rdf:RDF>
      <cc:Work
         rdf:about="">
        <dc:format>image/svg+xml</dc:format>
        <dc:type
           rdf:resource="http://purl.org/dc/dcmitype/StillImage" />
      </cc:Work>
    </rdf:RDF>
  </metadata>
  <defs
     id="defs18" />
  <sodipodi:namedview
     pagecolor="#ffffff"
     bordercolor="#666666"
     borderopacity="1"
     objecttolerance="10"
     gridtolerance="10"
     guidetolerance="10"
     inkscape:pageopacity="0"
     inkscape:pageshadow="2"
     inkscape:window-width="640"
     inkscape:window-height="480"
     id="namedview16"
     showgrid="false"
     inkscape:zoom="0.27441406"
     inkscape:cx="512"
     inkscape:cy="512"
     inkscape:window-x="0"
     inkscape:window-y="25"
     inkscape:window-maximized="0"
     inkscape:current-layer="U8DDF" />
  <path
     style="fill:#550000;fill-opacity:1;fill-rule:nonzero;stroke:#f9f9f9;stroke-width:0.1;stroke-miterlimit:4;stroke-dasharray:none"
     d="M 316.71875 201.03125 C 287.62554 201.03312 258.98422 205.675 230.9375 213.71875 C 204.14422 221.4926 177.42344 230.36229 153.40625 244.65625 C 150.03483 226.90626 64.712707 234.28628 66.25 252.59375 C 69.5948 288.89475 75.63085 324.81075 83.09375 360.46875 C 89.31455 388.91975 96.52325 417.16575 105.59375 444.84375 C 111.58235 462.30875 193.9261 434.05775 187.9375 416.59375 C 179.1854 392.56375 173.06515 367.69625 167.40625 342.78125 C 164.2344 327.72323 161.3469 312.58288 159 297.375 C 171.93977 313.91279 187.81817 327.22154 194.9375 321.84375 C 212.8398 309.22475 234.1199 302.945 254.9375 297 C 272.97346 292.38919 291.36874 288.14713 310 287.9375 C 308.82286 309.65771 304.43086 331.08427 300.5 352.4375 C 294.8724 381.3305 290.7923 410.53425 284.4375 439.28125 C 284.32555 439.66701 284.2057 440.05178 284.09375 440.4375 C 264.58958 441.44089 245.70849 446.14628 224.125 451.625 C 189.0754 460.934 154.4918 471.6995 119.9375 482.6875 C 102.3364 488.5995 130.2115 571.56825 147.8125 565.65625 C 157.13633 562.24482 166.4949 559.01386 175.90625 555.875 C 176.87666 570.16372 178.09344 584.43774 179.21875 598.6875 C 182.87535 647.1035 188.8769 695.286 194.5 743.5 C 197.7626 772.894 196.264 758.446 199 786.75 C 199.72833 794.01886 213.90435 797.00993 230.5 796.8125 C 218.23691 803.46415 206.04736 810.25049 193.9375 817.1875 C 184.93552 822.28648 175.92933 827.41057 166.90625 832.5 C 163.80702 814.81585 160.14983 797.25084 156.5625 779.65625 C 152.6023 756.05525 148.77735 731.908 152.46875 708 C 157.11675 690.008 72.30415 668.10175 67.65625 686.09375 C 60.89375 721.90975 65.4354 758.178 71.25 793.75 C 75.0149 813.131 79.0508 832.45375 82.0625 851.96875 C 83.264573 859.39481 98.242801 861.46439 115.375 860.09375 C 108.20306 863.63453 100.97474 867.04405 93.65625 870.28125 C 76.67305 877.79825 112.11045 957.86075 129.09375 950.34375 C 165.74255 932.48675 200.9498 911.863 236.3125 891.625 C 276.7296 868.23 318.30505 846.9755 360.46875 826.9375 C 376.87452 819.35791 393.39526 812.04027 410.15625 805.28125 C 413.99739 831.01454 419.29996 859.01338 438.53125 878.09375 C 443.19485 882.72075 448.91045 886.18275 454.09375 890.21875 C 492.15895 908.81475 527.3033 893.1995 561.25 874.0625 C 587.8249 857.3755 613.0339 838.6755 639.5 821.8125 C 644.93193 818.33625 642.71416 807.10515 636.875 794.40625 C 646.51438 806.77925 656.8661 815.2324 662.8125 811.53125 C 667.79302 808.37598 672.76953 805.2183 677.75 802.0625 C 696.02131 810.52898 714.30839 818.98938 732.5 827.625 C 765.0378 843.273 797.196 859.958 825.4375 882.625 C 835.3273 892.113 830.81165 887.34925 839.09375 896.78125 C 851.61855 910.32425 915.4622 851.293 902.9375 837.75 C 887.8191 821.867 895.8809 829.7145 878.6875 814.3125 C 844.8884 788.5035 807.7949 767.93925 769.25 750.03125 C 763.28707 747.21432 757.32137 744.41148 751.34375 741.625 C 762.0741 731.55705 772.51583 721.18524 782.6875 710.5 C 805.6294 686.747 827.7743 662.2595 850.375 638.1875 C 863.0752 624.6315 799.16895 564.7565 786.46875 578.3125 C 765.00315 602.9255 743.16625 627.18025 720.59375 650.78125 C 703.51198 668.78621 685.63252 685.95016 666.75 701.9375 C 659.19704 698.26958 651.65237 694.56724 644.15625 690.78125 C 617.22665 676.55225 590.3801 661.82575 566.25 643.09375 C 551.2724 632.08975 499.3973 702.71475 514.375 713.71875 C 536.09057 729.27477 559.05883 742.80725 582.5 755.53125 C 561.05776 769.7126 540.13195 784.62097 518.53125 798.5625 C 510.70445 803.0175 508.13105 804.67275 500.46875 808.34375 C 499.91724 808.60808 499.15904 808.82512 498.34375 809.03125 C 497.08357 802.05018 496.47213 794.68687 495.625 793.28125 C 490.41827 746.76094 493.22767 700.011 495.625 653.375 C 534.24314 644.50428 573.11265 636.9985 612.21875 630.625 C 633.11895 627.296 654.12215 624.59525 675.15625 622.28125 C 693.47215 620.00525 682.7534 533.6615 664.4375 535.9375 C 642.3335 538.9815 620.24365 542.1085 598.21875 545.6875 C 565.69893 551.12697 533.2792 557.18971 501 563.875 C 501.95354 548.54273 502.87346 533.21123 503.75 517.875 C 506.97734 521.57423 510.27373 523.43782 513.40625 522.5625 C 542.88665 514.2875 573.54635 511.539 603.90625 508.5 C 622.35085 506.756 640.8441 505.41425 659.375 505.65625 C 660.31543 505.65162 661.18872 505.40142 662.03125 504.96875 C 687.06236 510.75003 722.11921 510.18252 723.34375 498.59375 C 725.60945 476.46275 727.19265 454.29175 728.65625 432.09375 C 730.89475 397.49675 734.26025 362.43575 727.65625 328.09375 C 716.87815 291.00375 699.07745 267.24075 662.15625 253.09375 C 626.67955 242.45375 590.0943 241.0205 553.3125 245.1875 C 518.2215 249.0495 483.2416 253.84725 448.5 260.15625 C 437.8421 262.54254 440.07729 293.05014 447.40625 316.96875 C 435.51068 317.43235 426.49563 320.14766 425.65625 325.875 C 422.06665 366.393 422.47045 407.116 421.71875 447.75 C 420.55092 487.68805 418.28371 527.58916 415.84375 567.46875 C 404.87091 576.08272 394.73362 585.39262 386.125 596.875 C 387.3005 613.433 381.38085 632.1735 389.65625 646.5625 C 394.5294 655.03598 401.66759 660.07935 410.0625 662.8125 C 408.17839 695.28918 406.72916 727.77725 407.4375 760.25 C 399.10281 739.81269 386.27629 720.91211 377.625 724.5 C 359.2227 732.332 341.0326 740.6605 323 749.3125 C 309.83906 755.76053 296.7198 762.29749 283.65625 768.9375 C 282.96948 762.2541 282.0077 753.27709 281.5 748.84375 C 297.00156 745.63855 312.50337 742.46176 328.0625 739.5625 C 330.0546 739.2545 332.03915 738.96325 334.03125 738.65625 C 352.31315 735.41225 337.0319 649.22475 318.75 652.46875 C 316.187 652.96875 313.6256 653.46775 311.0625 653.96875 C 297.86237 656.73812 284.66461 659.58025 271.4375 662.21875 C 268.86469 638.9011 266.5443 615.56199 264.875 592.15625 C 263.39561 572.0204 261.57856 551.76898 261.03125 531.53125 C 261.7482 531.37292 262.46922 531.2148 263.1875 531.0625 C 271.868 529.2205 281.42535 527.4095 290.34375 526.6875 C 292.6913 526.49754 294.60995 526.42497 296.21875 526.4375 C 293.97497 525.3549 291.74375 524.27006 289.5 523.1875 C 302.18846 525.40279 331.8206 496.97999 343.21875 476.15625 C 355.27081 477.20279 364.71832 475.63762 366.25 470 C 367.3456 465.787 368.43565 461.55575 369.53125 457.34375 C 375.60655 427.76475 379.87165 397.86675 385.59375 368.21875 C 391.81515 334.85375 399.18255 301.0715 396.40625 266.9375 C 395.08495 260.8455 394.6125 254.49825 392.4375 248.65625 C 380.9674 217.84725 353.8942 203.35375 322.5625 201.09375 C 320.61889 201.05225 318.6583 201.03113 316.71875 201.03125 z M 296.21875 526.4375 C 297.03387 526.83079 297.84112 527.23165 298.65625 527.625 C 299.80495 527.545 302.0393 528.524 302.125 527.375 C 302.15298 527.00415 300.30109 526.46929 296.21875 526.4375 z M 320.1875 288.0625 C 324.08779 287.85984 327.02728 292.19531 321.5625 289.6875 C 320.6743 289.28002 319.77741 288.74045 318.875 288.15625 C 319.04182 288.16667 319.20814 288.17634 319.375 288.1875 C 319.64117 288.13044 319.92748 288.07601 320.1875 288.0625 z M 594.8125 329.4375 C 608.64507 329.46792 622.39781 330.929 635.34375 335.9375 C 643.01765 339.3275 642.36535 343.2015 643.40625 350.1875 C 646.07015 373.07214 644.34463 396.13183 642.8125 419.0625 C 626.94212 419.7391 611.09687 420.98158 595.28125 422.59375 C 565.91335 425.55461 536.45541 428.56164 507.5 434.375 C 508.24906 402.39974 508.7089 370.3456 512.375 338.5625 C 512.4343 338.15786 512.43164 337.77387 512.40625 337.375 C 529.11878 334.83244 545.89091 332.75849 562.6875 330.9375 C 573.2316 330.24756 584.05383 329.41384 594.8125 329.4375 z M 499.40625 813.96875 C 500.57709 814.3962 501.4936 815.13472 501.625 816.78125 C 504.5774 820.83325 506.126 822.58775 504.5625 822.46875 C 502.1895 822.28684 500.57957 818.63304 499.40625 813.96875 z "
     id="path23807" />
</svg>
