<?xml version="1.0" encoding="UTF-8" standalone="no"?>
<svg
   xmlns:dc="http://purl.org/dc/elements/1.1/"
   xmlns:cc="http://creativecommons.org/ns#"
   xmlns:rdf="http://www.w3.org/1999/02/22-rdf-syntax-ns#"
   xmlns:svg="http://www.w3.org/2000/svg"
   xmlns="http://www.w3.org/2000/svg"
   xmlns:sodipodi="http://sodipodi.sourceforge.net/DTD/sodipodi-0.dtd"
   xmlns:inkscape="http://www.inkscape.org/namespaces/inkscape"
   width="1024"
   height="1024"
   id="U8DF5"
   version="1.1"
   inkscape:version="0.48.0 r9654"
   sodipodi:docname="U+8DF5.svg">
  <metadata
     id="metadata19">
    <rdf:RDF>
      <cc:Work
         rdf:about="">
        <dc:format>image/svg+xml</dc:format>
        <dc:type
           rdf:resource="http://purl.org/dc/dcmitype/StillImage" />
      </cc:Work>
    </rdf:RDF>
  </metadata>
  <defs
     id="defs17" />
  <sodipodi:namedview
     pagecolor="#ffffff"
     bordercolor="#666666"
     borderopacity="1"
     objecttolerance="10"
     gridtolerance="10"
     guidetolerance="10"
     inkscape:pageopacity="0"
     inkscape:pageshadow="2"
     inkscape:window-width="640"
     inkscape:window-height="480"
     id="namedview15"
     showgrid="false"
     inkscape:zoom="0.27441406"
     inkscape:cx="512"
     inkscape:cy="512"
     inkscape:window-x="0"
     inkscape:window-y="25"
     inkscape:window-maximized="0"
     inkscape:current-layer="U8DF5" />
  <path
     style="fill:#550000;fill-opacity:1;fill-rule:nonzero;stroke:#f9f9f9;stroke-width:0.1;stroke-miterlimit:4;stroke-dasharray:none"
     d="M 677 151.90625 C 655.85156 152.04498 602.0316 194.30637 611.875 207.65625 C 631.7219 233.03325 654.16235 256.184 676.59375 279.25 C 680.00765 282.838 683.42985 286.44225 686.84375 290.03125 C 699.82805 303.57425 763.6717 242.3555 750.6875 228.8125 C 747.0652 225.0615 743.4348 221.3135 739.8125 217.5625 C 720.1662 197.5035 700.27395 177.438 683.78125 154.625 C 682.37504 152.718 680.02121 151.88643 677 151.90625 z M 318.375 173.125 C 316.49748 173.1412 314.58731 173.15775 312.625 173.1875 C 287.3475 173.3205 262.05725 173.77425 236.78125 173.40625 C 217.81105 173.23225 216.99845 262.6385 235.96875 262.8125 C 261.63415 262.1525 287.29565 261.84125 312.96875 261.78125 C 318.60297 261.98197 324.27842 261.97293 329.9375 262.15625 C 329.54087 266.41861 329.203 270.84472 328.90625 272.90625 C 324.24385 300.79025 318.59645 328.50625 312.71875 356.15625 C 310.78134 364.4351 310.314 366.43631 309.8125 368.4375 C 292.29116 371.43301 274.88536 375.2437 257.5625 379.21875 C 248.87117 381.29619 240.18127 383.41217 231.5 385.53125 C 232.41539 383.05612 232.43971 380.82523 231.34375 378.96875 C 231.61125 380.04775 231.88875 381.1085 232.15625 382.1875 C 222.62525 359.3605 220.5211 333.8905 214.625 310.0625 C 208.7771 278.8275 202.7877 247.5865 197.875 216.1875 C 194.8074 197.4895 106.6823 211.95725 109.75 230.65625 C 116.0464 262.49025 122.016 294.38625 128 326.28125 C 133.7066 355.10925 138.89835 384.18 148.15625 412.125 C 150.20855 416.227 152.2602 420.3355 154.3125 424.4375 C 155.18748 425.91966 156.63138 426.87322 158.5 427.40625 C 161.66374 454.06625 176.93608 491.71997 189.1875 488.15625 C 198.07745 485.52322 207.0199 483.02125 215.96875 480.59375 C 217.41803 494.82457 218.28835 509.11735 219.125 523.375 C 221.0692 567.384 220.33375 611.463 220.34375 655.5 C 220.17934 681.41718 221.26796 707.29614 223.28125 733.125 C 217.86828 736.19911 212.49774 739.33081 207.125 742.46875 C 205.81841 715.91544 205.61632 689.3048 206.4375 662.71875 C 207.6218 632.07775 208.98365 601.256 215.09375 571.125 C 219.02435 552.596 131.64935 534.06375 127.71875 552.59375 C 121.61355 587.87775 119.85095 623.68425 118.53125 659.40625 C 117.39525 696.72225 117.93865 734.0545 120.21875 771.3125 C 121.81795 789.5805 120.94445 780.7645 122.84375 797.8125 C 123.0029 799.1495 123.58987 800.32858 124.5625 801.375 C 126.9359 824.42686 163.05094 875.15144 176.3125 866.53125 C 205.7305 845.72925 236.23935 826.6275 267.46875 808.6875 C 308.85025 785.2255 353.6173 769.0535 398.75 754.5625 C 427.617 745.2345 457.22335 738.48925 486.46875 730.53125 C 489.38875 729.56425 492.29875 728.592 495.21875 727.625 C 513.07045 721.262 483.07045 637.136 465.21875 643.5 C 464.07575 643.981 462.92425 644.4565 461.78125 644.9375 C 431.88405 654.1665 401.32415 661.229 371.65625 671.25 C 350.69085 678.14281 329.80863 685.36863 309.21875 693.3125 C 308.51654 680.65072 308.16687 667.97605 308.1875 655.28125 C 308.17753 653.28103 308.16287 651.28154 308.15625 649.28125 C 325.83817 644.55476 343.81335 641.04179 361.90625 638.25 C 367.52785 637.695 373.20385 636.61675 378.84375 637.46875 C 386.43531 637.66506 391.35972 623.42889 393.3125 606.28125 C 396.61524 618.89224 401.63878 628.02986 407.8125 627.46875 C 443.8958 622.37975 479.3369 613.672 514.75 605.25 C 533.815 600.6653 552.82183 595.91367 571.84375 591.15625 C 578.59509 617.94989 587.49384 643.92392 598.3125 669.03125 C 583.65242 683.52377 569.02303 698.08777 554.5625 712.78125 C 543.8154 723.35025 533.93025 735.031 522.71875 745 C 508.51395 757.63 568.0452 824.59875 582.25 811.96875 C 594.7415 800.00275 605.7056 786.56775 617.8125 774.21875 C 625.66134 766.03269 633.56732 757.88418 641.53125 749.8125 C 642.32935 751.04779 643.12938 752.26978 643.9375 753.5 C 663.0276 781.25 686.7078 804.85675 713.9375 824.46875 C 729.4293 835.17275 779.89805 762.1415 764.40625 751.4375 C 745.44155 739.4095 730.20385 722.7405 716.84375 704.8125 C 712.79169 698.88063 708.88918 692.84537 705.15625 686.75 C 706.58265 685.35252 708.01101 683.9599 709.4375 682.5625 C 733.7325 658.7285 757.91115 634.7145 783.09375 611.8125 C 793.09432 602.70109 765.328 566.46695 743.5 551.09375 C 757.69846 548.44092 771.92644 545.99031 786.1875 543.6875 C 795.4066 542.2195 804.64765 540.8775 813.90625 539.6875 C 832.63865 536.9445 819.70115 448.631 800.96875 451.375 C 791.05135 452.983 781.1398 454.6665 771.25 456.4375 C 729.9345 463.8855 688.81005 472.27325 648.03125 482.28125 C 644.50682 483.14621 640.99192 484.03615 637.46875 484.90625 C 632.41297 456.8639 628.12569 428.67268 624.375 400.40625 C 631.02825 399.00115 637.70244 397.65117 644.375 396.34375 C 662.7952 392.59075 645.1078 305.77825 626.6875 309.53125 C 622.2614 310.46425 617.82713 311.41565 613.40625 312.375 C 608.10878 272.85373 602.20603 233.41865 594.03125 194.375 C 589.65275 175.959 502.84025 196.584 507.21875 215 C 517.05961 254.27229 523.2053 294.33564 528.84375 334.40625 C 506.57917 341.10652 484.51379 348.44833 463.03125 357.375 C 445.83905 365.331 483.33905 446.36325 500.53125 438.40625 C 513.55561 432.52287 526.95915 427.57977 540.53125 423.125 C 544.44863 450.7257 548.83067 478.24554 553.84375 505.65625 C 534.18381 510.50354 514.50344 515.28324 494.78125 519.875 C 463.32905 527.096 431.84015 534.8435 399.71875 538.4375 C 394.33789 538.92684 391.12615 546.48666 389.75 557.03125 C 387.64541 551.63714 384.80019 548.25048 381.15625 548.15625 C 369.95915 548.18325 358.8078 548.608 347.75 550.625 C 334.38426 552.86318 321.08213 555.36963 307.84375 558.21875 C 307.65695 544.97887 307.37451 531.76489 306.84375 518.53125 C 305.80771 498.88602 304.57101 479.21894 302.46875 459.65625 C 319.46831 456.05608 336.57609 452.84443 353.90625 452.25 C 352.31161 451.99231 350.71962 451.72644 349.125 451.46875 C 358.63043 450.92569 371.19707 429.67143 378.5625 408.65625 C 386.16183 408.22593 391.59171 406.19334 392.6875 402 C 397.3445 383.82 395.11485 393.02925 399.34375 374.40625 C 405.49155 344.93025 411.5434 315.42 416.6875 285.75 C 422.0485 249.463 423.7991 213.9575 392.1875 188.5625 C 365.70078 174.52719 346.53786 172.88199 318.375 173.125 z M 353.90625 452.25 C 354.84476 452.40166 355.78024 452.56709 356.71875 452.71875 C 356.55885 452.54175 356.4099 452.3645 356.25 452.1875 C 355.47114 452.20339 354.68426 452.22331 353.90625 452.25 z M 341.125 262.9375 C 341.98054 263.0383 342.83451 263.12399 343.6875 263.25 C 345.1853 263.471 355.0259 266.8255 344.0625 263.8125 C 343.31859 264.18545 342.27621 263.7827 341.125 262.9375 z M 711 557.53125 C 695.78342 572.52081 680.61562 587.56533 665.46875 602.625 C 661.79619 592.00488 658.49554 581.22907 655.625 570.28125 C 659.99246 569.20791 664.34855 568.12488 668.71875 567.0625 C 682.75789 563.65824 696.86523 560.4883 711 557.53125 z "
     id="path8861" />
</svg>
