<?xml version="1.0" encoding="UTF-8" standalone="no"?>
<svg
   xmlns:dc="http://purl.org/dc/elements/1.1/"
   xmlns:cc="http://creativecommons.org/ns#"
   xmlns:rdf="http://www.w3.org/1999/02/22-rdf-syntax-ns#"
   xmlns:svg="http://www.w3.org/2000/svg"
   xmlns="http://www.w3.org/2000/svg"
   xmlns:sodipodi="http://sodipodi.sourceforge.net/DTD/sodipodi-0.dtd"
   xmlns:inkscape="http://www.inkscape.org/namespaces/inkscape"
   width="1024"
   height="1024"
   id="U8DF3"
   version="1.1"
   inkscape:version="0.48.0 r9654"
   sodipodi:docname="U+8DF3.svg">
  <metadata
     id="metadata20">
    <rdf:RDF>
      <cc:Work
         rdf:about="">
        <dc:format>image/svg+xml</dc:format>
        <dc:type
           rdf:resource="http://purl.org/dc/dcmitype/StillImage" />
      </cc:Work>
    </rdf:RDF>
  </metadata>
  <defs
     id="defs18" />
  <sodipodi:namedview
     pagecolor="#ffffff"
     bordercolor="#666666"
     borderopacity="1"
     objecttolerance="10"
     gridtolerance="10"
     guidetolerance="10"
     inkscape:pageopacity="0"
     inkscape:pageshadow="2"
     inkscape:window-width="640"
     inkscape:window-height="480"
     id="namedview16"
     showgrid="false"
     inkscape:zoom="0.27441406"
     inkscape:cx="512"
     inkscape:cy="512"
     inkscape:window-x="0"
     inkscape:window-y="25"
     inkscape:window-maximized="0"
     inkscape:current-layer="U8DF3" />
  <path
     style="fill:#782121;fill-opacity:1;fill-rule:nonzero;stroke:#f9f9f9;stroke-width:0.1;stroke-miterlimit:4;stroke-dasharray:none"
     d="M 307.46875 206.65625 C 277.69585 206.91782 248.08144 210.03094 218.71875 215.0625 C 193.60285 220.18999 169.26902 227.57443 148.21875 241.28125 C 127.53808 229.69826 68.541724 227.26478 67.1875 242.53125 C 65.1395 281.57725 73.36595 319.97175 82.28125 357.71875 C 91.03825 392.58675 103.27325 426.32875 118.78125 458.71875 C 127.02395 475.36175 205.4928 436.48675 197.25 419.84375 C 183.768 393.85475 174.0662 366.237 166.8125 337.875 C 164.4405 327.68004 162.05307 317.40812 160.03125 307.0625 C 173.79305 317.41265 187.51681 323.63556 192.5625 318 C 204.3589 306.847 220.41015 303.89675 235.78125 300.96875 C 261.08795 296.84875 286.6463 293.80775 312.3125 294.46875 C 313.1891 294.53575 313.94521 294.60725 314.71875 294.6875 C 314.5621 314.01516 311.82584 334.62736 309.28125 353.96875 C 305.21164 381.6016 299.36949 408.9754 290.78125 435.53125 C 257.21675 442.34968 223.74637 449.76024 190.6875 458.71875 C 159.1288 468.29575 127.38625 478.909 101.21875 499.75 C 86.91965 511.93 144.35715 579.33725 158.65625 567.15625 C 169.06068 559.05648 181.07041 553.76763 193.46875 549.4375 C 192.52548 577.75953 191.89339 606.09444 191.59375 634.4375 C 191.29165 700.3355 193.24795 766.206 196.84375 832 C 197.21302 838.12317 207.1677 841.63438 220.15625 842.875 C 199.28357 855.68998 178.63527 868.88675 158.40625 882.6875 C 155.11698 842.42346 153.0946 802.09744 151.53125 761.71875 C 149.95255 727.25475 148.01575 692.759 147.96875 658.25 C 147.48755 639.484 59.0189 641.76525 59.5 660.53125 C 61.0118 695.70725 63.02295 730.87425 64.90625 766.03125 C 67.11035 814.20525 69.5818 862.34325 73.5625 910.40625 C 74.0928 916.68225 74.62605 922.94275 75.15625 929.21875 C 75.467722 932.62826 78.703769 935.13996 83.75 936.84375 C 69.980295 946.77378 55.986827 956.35882 41.375 965 C 25.0499 974.261 68.70625 1051.2297 85.03125 1041.9688 C 117.06365 1021.7177 146.858 998.19025 177.1875 975.53125 C 218.4863 944.62825 262.4561 917.58875 306.875 891.46875 C 336.1476 874.85275 321.5914 882.89125 350.4375 867.28125 C 366.5522 858.50525 325.1771 782.5375 309.0625 791.3125 C 289.00584 802.29995 288.16987 802.74526 281.65625 806.46875 C 280.42627 785.61809 279.424 764.74769 278.6875 743.875 C 305.25846 741.76028 332.06019 743.17717 358.59375 745.28125 C 365.09777 745.7676 370.09957 735.23115 373.0625 721.375 C 391.3909 737.81563 416.37129 751.87943 423 743.59375 C 437.73934 725.94724 455.31226 711.16857 473.6875 697.4375 C 466.7385 718.45946 459.52559 739.41225 452.21875 760.3125 C 446.33715 777.8265 528.89955 805.54525 534.78125 788.03125 C 552.00171 734.58505 569.30071 681.14838 583.875 626.90625 C 595.7059 620.20201 607.59018 613.61538 619.5 607.0625 C 629.21431 601.64799 617.68611 571.91695 603.46875 551.09375 C 618.39307 491.95186 632.50765 432.61324 645.15625 372.9375 C 654.31975 328.7725 663.122 284.52625 669.8125 239.90625 C 672.5295 221.34025 584.99825 208.559 582.28125 227.125 C 577.60465 270.472 569.44975 313.2945 561.15625 356.0625 C 552.5593 399.33528 542.87187 442.37779 532.5 485.25 C 531.57353 482.41873 530.64524 479.58127 529.71875 476.75 C 517.70275 443.722 504.0666 411.39075 488.8125 379.71875 C 480.5367 362.89575 401.2242 401.927 409.5 418.75 C 424.5432 447.011 436.95705 476.48025 447.90625 506.53125 C 449.79995 512.35025 451.70005 518.181 453.59375 524 C 457.85246 537.04901 504.66276 525.47948 526.0625 511.46875 C 521.2915 530.6645 516.39081 549.82745 511.40625 568.96875 C 490.79061 581.28555 470.41402 594.01098 450.53125 607.5 C 423.69212 626.22722 396.98471 645.55829 373.3125 668.1875 C 371.51553 662.3761 368.81292 658.62186 365.09375 658.34375 C 335.86422 656.27346 306.47576 654.90037 277.1875 656.125 C 277.19917 649.30128 277.23756 642.48035 277.3125 635.65625 C 277.96946 599.22856 279.04521 562.78386 281.59375 526.4375 C 294.60686 523.66878 307.64786 521.08451 320.71875 518.625 C 330.51535 516.573 341.25105 515.24525 350.71875 516.53125 C 360.26763 517.78378 367.91065 495.24315 370.59375 472.71875 C 382.01834 437.80225 390.27024 401.95339 395.6875 365.59375 C 400.6395 329.52775 406.558 292.2775 395.875 256.6875 C 392.6635 250.5895 390.28765 243.96925 386.21875 238.40625 C 368.96505 214.81925 341.0927 207.59725 313.4375 206.65625 C 311.45145 206.648 309.45361 206.63881 307.46875 206.65625 z M 707.6875 215.375 C 690.2888 215.62858 675.42207 219.14175 674.90625 226.75 C 672.14595 269.756 670.6268 312.83325 669.375 355.90625 C 668.1129 440.88025 664.77845 525.76275 659.78125 610.59375 C 655.88715 679.39075 647.9133 748.1585 653 817.0625 C 658.2941 858.8025 677.46035 896.47325 719.09375 911.65625 C 726.42885 914.33125 734.331 915.20775 741.9375 916.96875 C 786.2871 920.95875 829.8521 909.17625 872.9375 900.28125 C 911.0351 892.15525 949.59445 886.6855 988.21875 881.8125 C 993.07295 881.1895 997.92695 880.59075 1002.7812 879.96875 C 1021.1952 877.47075 1009.4452 790.65825 991.03125 793.15625 C 986.28835 793.83525 981.52415 794.5085 976.78125 795.1875 C 936.18135 800.7805 895.6257 806.78375 855.5 815.21875 C 823.3666 821.75775 791.0995 829.9225 758.1875 830.8125 C 757.0156 830.8305 750.2871 832.78725 749.75 832.65625 C 741.7104 830.69525 741.22235 814.112 739.40625 809.5 C 732.9701 748.31032 740.6544 686.85887 743.625 625.625 C 762.05126 639.59366 781.73649 651.83451 801.625 663.65625 C 833.3862 681.43725 865.13335 699.19375 896.46875 717.71875 C 911.57595 726.78675 904.3449 722.38375 918.25 730.84375 C 934.2652 740.38375 979.23395 664.88475 963.21875 655.34375 C 948.77295 646.91575 956.29455 651.3305 940.59375 642.1875 C 909.32305 624.1315 877.7851 606.59125 846.375 588.78125 C 824.6562 575.72125 803.0029 562.2365 784.4375 544.8125 C 777.71316 538.90803 760.92086 550.93221 746.71875 566.46875 C 750.27285 497.343 753.04786 428.19348 755.09375 359 C 756.91865 316.871 758.7612 274.703 763.1875 232.75 C 763.94138 221.63025 733.11637 215.00438 707.6875 215.375 z M 320.3125 295.53125 C 327.15611 296.9155 325.38758 298.41227 320.3125 295.53125 z M 883.3125 361.375 C 881.72628 361.33728 880.31906 361.73391 879.15625 362.625 C 851.03905 386.174 825.8005 412.76525 801.5 440.15625 C 796.9254 445.52625 792.3246 450.91225 787.75 456.28125 C 775.7771 470.32625 841.99585 526.76375 853.96875 512.71875 C 858.17305 507.79075 862.38945 502.8655 866.59375 497.9375 C 887.18205 474.7425 908.4885 451.99925 932.9375 432.78125 C 946.65869 422.26634 902.0299 361.8201 883.3125 361.375 z "
     id="path12110" />
</svg>
