<?xml version="1.0" encoding="UTF-8" standalone="no"?>
<svg
   xmlns:dc="http://purl.org/dc/elements/1.1/"
   xmlns:cc="http://creativecommons.org/ns#"
   xmlns:rdf="http://www.w3.org/1999/02/22-rdf-syntax-ns#"
   xmlns:svg="http://www.w3.org/2000/svg"
   xmlns="http://www.w3.org/2000/svg"
   xmlns:sodipodi="http://sodipodi.sourceforge.net/DTD/sodipodi-0.dtd"
   xmlns:inkscape="http://www.inkscape.org/namespaces/inkscape"
   width="1024"
   height="1024"
   id="U8D35"
   version="1.1"
   inkscape:version="0.48.0 r9654"
   sodipodi:docname="U+8D35.svg">
  <metadata
     id="metadata16">
    <rdf:RDF>
      <cc:Work
         rdf:about="">
        <dc:format>image/svg+xml</dc:format>
        <dc:type
           rdf:resource="http://purl.org/dc/dcmitype/StillImage" />
      </cc:Work>
    </rdf:RDF>
  </metadata>
  <defs
     id="defs14" />
  <sodipodi:namedview
     pagecolor="#ffffff"
     bordercolor="#666666"
     borderopacity="1"
     objecttolerance="10"
     gridtolerance="10"
     guidetolerance="10"
     inkscape:pageopacity="0"
     inkscape:pageshadow="2"
     inkscape:window-width="640"
     inkscape:window-height="480"
     id="namedview12"
     showgrid="false"
     inkscape:zoom="0.27441406"
     inkscape:cx="512"
     inkscape:cy="512"
     inkscape:window-x="0"
     inkscape:window-y="25"
     inkscape:window-maximized="0"
     inkscape:current-layer="U8D35" />
  <path
     style="fill:#550000;fill-opacity:1;fill-rule:nonzero;stroke:#f9f9f9;stroke-width:0.1;stroke-miterlimit:4;stroke-dasharray:none"
     d="M 496 96.125 C 490.54758 96.295865 486.63261 97.795937 485.34375 101.03125 C 472.58474 140.2894 464.91978 180.93842 457.8125 221.5625 C 429.23056 223.75276 400.69852 226.51678 372.34375 230.8125 C 365.1304 232.08554 363.15532 246.26768 364.5 262.78125 C 344.70503 250.07661 286.58952 244.09206 284.3125 259.09375 C 280.5979 291.94775 283.01315 324.94375 287.28125 357.59375 C 289.76135 377.80075 295.2936 397.104 303.25 415.75 C 303.40273 416.07411 303.5765 416.37196 303.78125 416.65625 C 294.2871 434.72775 307.97436 501.3303 324.09375 498.5 C 358.06462 491.82165 392.476 487.76219 426.90625 484.21875 C 426.53277 490.92228 426.18975 497.63703 425.875 504.34375 C 383.08603 506.78959 340.32951 509.91065 297.65625 514 C 249.99395 518.616 202.40965 523.90275 154.78125 528.84375 C 136.33615 531.11075 147.02365 618.04825 165.46875 615.78125 C 212.26095 608.84825 259.25555 603.316 306.28125 598.25 C 386.51315 589.801 467.10195 585.488 547.71875 583.125 C 611.01545 581.641 674.31915 583.367 737.46875 587.75 C 744.11925 588.318 750.7902 588.8325 757.4375 589.4375 C 770.6365 590.6395 783.9619 591.7255 797.0625 593.8125 C 805.1173 595.0945 803.89705 594.95625 800.40625 594.90625 C 818.11135 600.67025 845.29875 517.2015 827.59375 511.4375 C 799.94615 504.2335 771.0625 504.712 742.75 502.125 C 676.9522 498.581 611.0062 497.329 545.125 499.125 C 534.22574 499.47226 523.33475 499.83821 512.4375 500.25 C 512.66907 492.64336 512.93888 485.03957 513.28125 477.4375 C 543.78528 475.87442 574.32726 475.12857 604.875 475 C 635.5713 474.796 666.1761 477.02575 696.5625 481.21875 C 703.4416 482.47775 700.717 481.66375 704.875 483.09375 C 722.9764 487.36375 743.1014 402.02 725 397.75 C 713.452 395.347 719.3593 396.39625 707.3125 394.65625 C 703.13585 394.18753 698.93127 393.75674 694.75 393.34375 C 711.44608 365.40816 728.01821 337.2895 741.28125 307.53125 C 756.73615 268.81125 757.4069 233.12 712.125 214.75 C 683.9806 208.797 655.40565 211.06 626.84375 212.625 C 599.73372 214.04927 572.61719 215.2974 545.5 216.5625 C 550.93914 188.4423 557.22405 160.45955 566.6875 133.4375 C 572.27254 119.41781 519.62714 95.384584 496 96.125 z M 369.375 290.125 C 373.76625 305.87193 380.42211 318.26016 387.5625 317 C 406.28736 313.41623 425.19342 310.9774 444.15625 309.09375 C 440.19761 338.5398 436.85045 368.06067 433.875 397.625 C 408.02343 400.04899 382.181 402.63607 356.40625 405.78125 C 372.78619 396.88228 385.70752 385.77068 382.28125 378.5 C 375.57845 369.599 376.0204 356.3225 373.125 346.0625 C 370.54196 327.56716 368.63732 308.80185 369.375 290.125 z M 649.25 298.25 C 639.63328 317.08295 628.87427 335.34363 618.0625 353.5 C 610.64285 365.75713 602.93407 377.86029 594.5625 389.46875 C 569.6607 389.84981 544.75077 390.53129 519.875 391.6875 C 522.82921 362.07405 526.36629 332.51076 530.65625 303.0625 C 564.08715 301.43924 597.53038 300.17621 630.96875 298.71875 C 636.76865 298.87569 642.97265 298.60756 649.25 298.25 z M 687.8125 298.96875 C 688.55377 299.12975 689.30904 299.30885 690.03125 299.5 C 689.27562 299.34576 688.5269 299.16383 687.8125 298.96875 z M 602.59375 602.9375 C 598.02959 602.97502 593.38909 603.10012 588.65625 603.25 C 541.09055 604.894 493.60695 608.987 446.65625 617 C 414.52784 623.0548 381.8408 629.82418 353.03125 645.40625 C 339.35816 632.34526 266.63653 639.13742 267.875 656.0625 C 271.2827 689.3585 276.7239 722.38525 282.8125 755.28125 C 288.3006 786.69925 296.07715 816.976 314.90625 843 C 326.09969 856.17949 384.69442 807.98533 383.09375 789.8125 C 383.08459 789.81713 383.0721 789.80805 383.0625 789.8125 C 382.8241 789.9235 380.67065 787.15125 377.90625 779.28125 C 373.35905 766.33525 370.61555 752.8275 367.78125 739.4375 C 365.90312 729.45377 364.10241 719.43506 362.4375 709.40625 C 373.90926 721.01014 385.71872 728.56266 391.34375 724 C 412.59045 710.383 438.36595 706.20725 462.71875 701.53125 C 463.86461 701.33018 465.00965 701.1331 466.15625 700.9375 C 454.27259 722.46289 443.51753 744.62338 432.5 766.59375 C 414.9941 802.17075 395.82625 836.885 375.21875 870.75 C 365.34335 885.565 356.6638 901.63175 344 914.34375 C 331.6206 928.16775 396.77675 986.5105 409.15625 972.6875 C 424.34825 954.9165 437.14985 935.38575 449.15625 915.34375 C 470.62615 879.47675 490.77385 842.8655 509.40625 805.4375 C 523.07985 778.5445 536.1708 751.1605 552.8125 725.9375 C 557.60195 718.86371 544.83145 704.66281 528.65625 692.875 C 549.46712 690.99127 570.35001 689.84625 591.25 689.3125 C 597.9034 689.0365 648.10565 689.6625 649.28125 696.6875 C 637.21745 693.4565 642.3435 686.6615 639.6875 708.0625 C 635.1346 737.9555 627.799 767.332 619.9375 796.5 C 613.6189 814.537 610.8103 837.11975 599.5625 851.96875 C 596.60907 855.88475 599.3638 862.45696 605.15625 869.71875 C 584.07642 861.81966 563.82314 852.00047 548.15625 835.28125 C 535.24015 821.92425 472.2715 882.8315 485.1875 896.1875 C 511.212 922.3945 543.644 938.77375 577.75 951.71875 C 610.5344 962.38475 644.2667 969.588 676.5625 981.75 C 689.3004 987.387 683.4445 984.44975 694.3125 990.34375 C 710.729 998.79175 750.5415 921.41675 734.125 912.96875 C 716.1677 904.01375 725.3968 908.2195 706.4375 900.3125 C 696.92834 896.89727 687.32901 893.81393 677.6875 890.875 C 689.90837 868.46548 696.99356 843.93087 703.46875 818.96875 C 712.40525 785.66675 720.8057 752.14125 726.0625 718.03125 C 730.2502 680.14425 726.7237 644.3985 692.625 620.9375 C 662.7259 605.80262 634.54284 602.67489 602.59375 602.9375 z M 383.09375 789.8125 C 383.76659 789.47234 383.22935 788.63612 382.625 787.78125 C 382.88574 788.40321 383.0301 789.0899 383.09375 789.8125 z M 381.6875 786.28125 C 381.85559 786.71409 382.23104 787.20761 382.59375 787.71875 C 382.36766 787.19649 382.06342 786.72388 381.6875 786.28125 z "
     id="path24213" />
</svg>
