<?xml version="1.0" encoding="utf-8" ?>

<!DOCTYPE svg PUBLIC "-//W3C//DTD SVG 1.1//EN" 
  "http://www.w3.org/Graphics/SVG/1.1/DTD/svg11.dtd">
<svg 
    xmlns="http://www.w3.org/2000/svg"
    xmlns:xlink="http://www.w3.org/1999/xlink"
    xmlns:sodipodi="http://sodipodi.sourceforge.net/DTD/sodipodi-0.dtd"
    xmlns:inkscape="http://www.inkscape.org/namespaces/inkscape"
    width="1024" height="1024" id="U8DB3">
<path d="m 10606.406,66791.202 c -4.838,29.803 -3.939,60.166 -2.846,90.222 1.233,29.776 4.787,59.375 9.667,88.753 1.091,6.334 2.426,12.893 4.56,18.812 6.275,17.726 -77.287,47.31 -83.562,29.584 l 0,0 c -3.637,-11.418 -6.255,-23.039 -7.913,-34.923 -4.766,-32.843 -8.391,-65.859 -9.743,-99.037 -1.353,-36.653 -2.093,-73.526 2.966,-109.958 3.51,-18.428 90.381,-1.881 86.871,16.547 z" id="path15865" inkscape:connector-curvature="0" style="fill:#2b1100;fill-opacity:1;fill-rule:nonzero;stroke:none" transform="translate(-10240, -66560)"/><path d="m 10581.024,66741.467 c 30.866,-11.645 63.316,-18.34 95.6,-24.691 39.827,-7.627 80.064,-12.595 120.522,-15.083 30.653,-1.648 61.037,-1.383 90.472,7.767 35.228,15.488 46.159,47.408 50.105,82.891 2.424,35.536 -1.455,71.061 -5.709,106.297 -4.633,37.012 -11.42,73.705 -20.333,109.916 -5.149,17.032 -9.371,36.091 -21.514,49.895 -4.138,4.704 -9.267,8.435 -13.9,12.653 -15.273,10.944 -66.863,-61.054 -51.59,-71.998 l 0,0 c -14.847,17.873 1.572,0.519 2.086,-12.111 8.53,-32.404 14.652,-65.38 18.726,-98.643 3.364,-28.789 6.545,-57.812 4.799,-86.835 -1.637,-17.735 -3.579,-10.535 7.599,-8.983 -6.802,-7.824 -45.851,-2.276 -55.75,-3.724 -36.443,1.907 -72.66,6.454 -108.49,13.433 -25.719,5.193 -51.669,10.487 -76.232,19.909 -17.118,7.719 -53.509,-72.973 -36.391,-80.693 z" id="path15867" inkscape:connector-curvature="0" style="fill:#2b1100;fill-opacity:1;fill-rule:nonzero;stroke:none" transform="translate(-10240, -66560)"/><path d="m 10547.993,66975.758 c 34.141,-8.055 68.57,-14.621 103.224,-20.012 47.799,-7.135 96.101,-9.407 144.36,-10.351 30.83,-0.446 61.632,1.175 92.17,5.406 14.942,3.184 6.496,0.708 24.877,8.85 16.088,9.779 -30.01,85.621 -46.098,75.842 l 0,0 c 10.207,3.492 12.704,4.559 7.746,2.525 -25.494,-4.514 -51.405,-5.752 -77.265,-5.774 -44.216,0.581 -88.484,2.51 -132.252,9.254 -32.337,5.189 -64.527,11.419 -96.066,20.353 -18.263,4.39 -38.959,-81.702 -20.696,-86.093 z" id="path15869" inkscape:connector-curvature="0" style="fill:#2b1100;fill-opacity:1;fill-rule:nonzero;stroke:none" transform="translate(-10240, -66560)"/><path d="m 10755.883,67020.424 c -0.799,36.11 1.203,72.216 2.822,108.279 2.132,41.914 3.479,83.871 6.194,125.754 2.042,2.879 -0.776,16.563 3.353,19.541 5.536,17.906 -78.873,44 -84.409,26.094 l 0,0 c -3.492,-13.443 -6.231,-26.803 -6.244,-40.802 -1.958,-42.161 -3.187,-84.354 -5.482,-126.501 -1.864,-37.673 -3.949,-75.344 -4.671,-113.061 0.148,-18.76 88.584,-18.064 88.437,0.696 z" id="path15877" inkscape:connector-curvature="0" style="fill:#2b1100;fill-opacity:1;fill-rule:nonzero;stroke:none" transform="translate(-10240, -66560)"/><path d="m 10741.848,67123.662 c 31.518,-1.792 63.012,-3.434 94.588,-3.609 23.553,0.291 47.138,0.76 70.632,2.543 2.493,0.312 4.986,0.625 7.479,0.937 18.596,2.689 5.92,90.353 -12.676,87.664 l 0,0 c -0.892,-0.177 -1.784,-0.355 -2.676,-0.532 -20.73,-2.265 -41.637,-2.723 -62.467,-3.22 -29.975,0.03 -59.888,1.557 -89.728,4.452 -18.718,1.093 -23.87,-87.142 -5.152,-88.235 z" id="path15879" inkscape:connector-curvature="0" style="fill:#2b1100;fill-opacity:1;fill-rule:nonzero;stroke:none" transform="translate(-10240, -66560)"/><path d="m 10588.288,67159.102 c -15.56,19.128 -27.48,40.904 -39.814,62.166 -16.71,29.725 -34.565,58.773 -53.369,87.213 -11.28,16.141 -21.654,32.915 -33.077,48.954 -1.472,1.823 -2.944,3.646 -4.416,5.468 -12.29,14.256 -79.491,-43.679 -67.201,-57.935 l 0,0 c 0.127,-0.03 0.255,-0.06 0.382,-0.1 11.345,-14.345 20.53,-30.364 31.462,-45.019 18,-26.684 34.909,-54.077 50.538,-82.223 14.945,-26.067 29.663,-52.454 48.281,-76.139 12.222,-14.258 79.435,43.354 67.214,57.612 z" id="path15881" inkscape:connector-curvature="0" style="fill:#2b1100;fill-opacity:1;fill-rule:nonzero;stroke:none" transform="translate(-10240, -66560)"/><path d="m 10498.145,67221.289 c 40.026,6.326 79.885,13.667 119.89,20.151 64.406,10.344 129.006,19.387 193.794,26.965 54.187,6.38 108.666,9.414 163.156,11.597 30.549,1.124 61.093,2.378 91.642,3.503 9.43,0.208 5.029,0.166 13.201,0.167 18.759,0.319 17.255,88.747 -1.504,88.428 l 0,0 c -10.102,-0.306 -4.796,-0.11 -15.918,-0.612 -30.431,-1.801 -60.872,-3.413 -91.322,-4.85 -56.546,-2.821 -113.077,-6.38 -169.31,-13.16 -65.839,-7.862 -131.507,-17.015 -197.075,-26.886 -38.289,-5.791 -76.479,-12.455 -114.908,-17.204 -18.689,-1.772 -10.335,-89.872 8.354,-88.099 z" id="path15889" inkscape:connector-curvature="0" style="fill:#2b1100;fill-opacity:1;fill-rule:nonzero;stroke:none" transform="translate(-10240, -66560)"/></svg>