<?xml version="1.0" encoding="utf-8" ?>

<!DOCTYPE svg PUBLIC "-//W3C//DTD SVG 1.1//EN" 
  "http://www.w3.org/Graphics/SVG/1.1/DTD/svg11.dtd">
<svg 
    xmlns="http://www.w3.org/2000/svg"
    xmlns:xlink="http://www.w3.org/1999/xlink"
    xmlns:sodipodi="http://sodipodi.sourceforge.net/DTD/sodipodi-0.dtd"
    xmlns:inkscape="http://www.inkscape.org/namespaces/inkscape"
    width="1024" height="1024" id="U8E22">
<path d="m 8361.9787,48348.411 c 0.146,31.134 7.1487,61.724 14.4825,91.815 7.4713,18.932 10.2592,48.261 25.1486,63.452 10.777,15.305 -61.3732,66.108 -72.1502,50.803 l 0,0 c -18.6477,-28.521 -29.2001,-60.899 -37.5718,-93.775 -8.9914,-37.343 -17.1365,-75.164 -18.3425,-113.699 0.2978,-18.759 88.7312,-17.355 88.4334,1.404 z" id="path11948" inkscape:connector-curvature="0" style="fill:#782121;fill-opacity:1;fill-rule:nonzero;stroke:#f9f9f9;stroke-width:0.1;stroke-miterlimit:4;stroke-dasharray:none" transform="translate(-8192, -48128)"/><path d="m 8363.7256,48307.088 c 34.9359,-8.916 71.0174,-11.913 106.8605,-14.666 32.8281,-3.039 62.2879,-3.225 92.8364,9.974 31.1329,19.696 33.2713,51.176 31.7896,84.311 -0.9455,25.678 -3.145,51.219 -6.9742,76.623 -5.6966,32.589 -13.977,64.653 -23.6315,96.273 -7.1806,20.594 -3.2915,10.428 -11.6621,30.499 -7.311,17.108 -87.9598,-17.357 -80.6487,-34.465 l 0,0 c 6.0753,-13.712 3.1351,-6.458 8.6908,-21.814 8.5404,-27.388 15.619,-55.234 20.5148,-83.519 3.3364,-22.322 5.0089,-44.785 5.7182,-67.345 1.1199,-28.135 -2.4146,-10.987 15.6472,-2.019 0.9732,0.08 2.2347,0.929 2.9196,0.233 2.1494,-2.183 -5.8805,-1.885 -8.9307,-2.177 -13.2249,-1.265 -26.5347,-0.264 -39.7557,0.397 -29.1849,2.125 -58.7253,4.286 -87.0396,12.101 -17.9051,5.586 -44.2397,-78.819 -26.3346,-84.406 z" id="path11950" inkscape:connector-curvature="0" style="fill:#782121;fill-opacity:1;fill-rule:nonzero;stroke:#f9f9f9;stroke-width:0.1;stroke-miterlimit:4;stroke-dasharray:none" transform="translate(-8192, -48128)"/><path d="m 8303.8122,48547.361 c 36.7022,-2.114 73.4042,-3.629 110.1673,-3.94 38.601,0.121 77.1254,2.805 115.653,4.891 9.3352,0.486 18.6708,0.95 28.002,1.508 18.6982,1.446 11.8811,89.59 -6.8171,88.144 l 0,0 c -8.8852,-0.872 -17.7857,-1.542 -26.6922,-2.162 -36.3942,-2.612 -72.8162,-5.465 -109.3252,-5.597 -35.3437,0.372 -70.657,1.894 -105.8355,5.481 -18.7366,1.093 -23.8888,-87.232 -5.1523,-88.325 z" id="path11952" inkscape:connector-curvature="0" style="fill:#782121;fill-opacity:1;fill-rule:nonzero;stroke:#f9f9f9;stroke-width:0.1;stroke-miterlimit:4;stroke-dasharray:none" transform="translate(-8192, -48128)"/><path d="m 8473.2747,48589.649 c -0.097,39.529 -0.5245,79.041 -1.6228,118.557 -2.3678,53.523 -3.2919,107.058 -1.446,160.602 1.6892,29.531 0.6652,15.268 2.9927,42.796 1.4087,18.385 -85.2597,25.026 -86.6685,6.641 l 0,0 c -2.1017,-30.259 -1.1799,-14.682 -2.7083,-46.735 -1.5601,-55.156 -0.7598,-110.297 1.4276,-165.432 0.8343,-39.053 1.1713,-78.112 -0.4373,-117.154 0.1538,-18.766 88.6165,-18.041 88.4626,0.725 z" id="path11954" inkscape:connector-curvature="0" style="fill:#782121;fill-opacity:1;fill-rule:nonzero;stroke:#f9f9f9;stroke-width:0.1;stroke-miterlimit:4;stroke-dasharray:none" transform="translate(-8192, -48128)"/><path d="m 8391.4815,48730.105 c 34.3813,-8.931 69.0698,-16.464 104.0404,-22.667 23.3368,-4.414 46.7827,-5.36 70.3835,-3.598 18.5668,1.862 9.7879,89.387 -8.779,87.525 l 0,0 c -15.4732,-2.563 -31.1015,-0.324 -46.5082,1.888 -31.8995,5.56 -63.5976,12.348 -94.611,21.748 -18.0093,5.203 -42.5349,-79.694 -24.5257,-84.896 z" id="path11956" inkscape:connector-curvature="0" style="fill:#782121;fill-opacity:1;fill-rule:nonzero;stroke:#f9f9f9;stroke-width:0.1;stroke-miterlimit:4;stroke-dasharray:none" transform="translate(-8192, -48128)"/><path d="m 8342.6084,48783.714 c -1.1745,37.155 2.0352,74.262 5.149,111.248 2.496,28.345 5.3273,56.658 8.0411,84.982 1.6977,18.387 -84.9771,26.389 -86.6748,8.003 l 0,0 c -2.5365,-28.558 -5.2705,-57.097 -7.8054,-85.655 -3.4031,-39.858 -6.6386,-79.763 -7.0407,-119.788 0.2567,-18.738 88.5875,-17.528 88.3308,1.21 z" id="path11958" inkscape:connector-curvature="0" style="fill:#782121;fill-opacity:1;fill-rule:nonzero;stroke:#f9f9f9;stroke-width:0.1;stroke-miterlimit:4;stroke-dasharray:none" transform="translate(-8192, -48128)"/><path d="m 8275.6055,49031.547 c 34.0872,-39.9 77.4106,-70.109 120.3434,-99.618 62.7212,-41.667 128.3435,-78.698 194.5001,-114.566 10.2965,-5.378 20.5931,-10.755 30.8896,-16.133 16.115,-8.351 55.4824,67.616 39.3674,75.967 l 0,0 c -9.9069,5.092 -19.8138,10.185 -29.7207,15.277 -63.5101,34.113 -126.4145,69.554 -186.2164,109.912 -35.1757,24.589 -71.3812,49.349 -98.933,82.727 -11.363,14.898 -81.5933,-38.667 -70.2304,-53.566 z" id="path11960" inkscape:connector-curvature="0" style="fill:#782121;fill-opacity:1;fill-rule:nonzero;stroke:#f9f9f9;stroke-width:0.1;stroke-miterlimit:4;stroke-dasharray:none" transform="translate(-8192, -48128)"/><path d="m 8734.9124,48313.603 c 6.2423,36.903 14.4039,73.459 22.4663,109.999 4.61,21.03 9.3168,42.059 18.1601,61.75 7.0715,17.193 -73.9744,50.528 -81.0459,33.336 l 0,0 c -9.6732,-24.781 -16.7778,-50.249 -21.8641,-76.389 -8.351,-37.861 -16.695,-75.723 -24.8208,-113.633 -3.1954,-18.477 83.909,-33.54 87.1044,-15.063 z" id="path11962" inkscape:connector-curvature="0" style="fill:#782121;fill-opacity:1;fill-rule:nonzero;stroke:#f9f9f9;stroke-width:0.1;stroke-miterlimit:4;stroke-dasharray:none" transform="translate(-8192, -48128)"/><path d="m 8738.8327,48298.197 c 30.4762,-21.891 66.9305,-31.064 103.0298,-38.783 33.5541,-6.205 67.2378,-11.813 101.0787,-16.213 29.8002,-3.48 62.1105,-1.394 83.4073,23.003 5.1042,5.847 8.0921,13.247 12.1382,19.87 11.714,37.203 5.9108,76.746 3.918,115.018 -2.0415,36.733 -2.7873,73.511 -2.4425,110.295 -0.034,4.279 -0.068,8.559 -0.1016,12.839 -0.3625,18.636 -88.2111,16.927 -87.8486,-1.709 l 0,0 c 0.1213,-3.696 0.2426,-7.392 0.3638,-11.089 0.3066,-38.207 1.2081,-76.405 3.1025,-114.57 0.8169,-18.007 1.837,-36.021 2.2655,-54.043 0.1467,-6.169 -1.0098,-12.422 -0.019,-18.513 0.067,-0.411 0.8316,-0.06 1.2473,-0.08 12.4321,10.875 20.9747,5.026 5.4648,5.25 -3.5464,0.05 -7.0791,0.453 -10.6187,0.68 -31.4164,3.753 -62.6536,8.942 -93.7737,14.625 -22.563,4.784 -46.1323,9.388 -65.7038,22.282 -14.607,11.775 -70.115,-57.083 -55.508,-68.858 z" id="path11964" inkscape:connector-curvature="0" style="fill:#782121;fill-opacity:1;fill-rule:nonzero;stroke:#f9f9f9;stroke-width:0.1;stroke-miterlimit:4;stroke-dasharray:none" transform="translate(-8192, -48128)"/><path d="m 8756.0649,48382.214 c 33.9954,1.1 68.0213,-0.775 101.9684,-2.482 24.1585,-1.536 48.2986,-2.465 72.4987,-1.95 18.5797,0.587 15.8142,88.172 -2.7655,87.586 l 0,0 c -21.8112,-0.994 -43.5849,-0 -65.3764,1.231 -36.3327,1.817 -72.6824,3.702 -109.0658,4.001 -18.7495,-0.582 -16.0089,-88.968 2.7406,-88.386 z" id="path11966" inkscape:connector-curvature="0" style="fill:#782121;fill-opacity:1;fill-rule:nonzero;stroke:#f9f9f9;stroke-width:0.1;stroke-miterlimit:4;stroke-dasharray:none" transform="translate(-8192, -48128)"/><path d="m 8740.916,48539.943 c 42.2186,-18.536 86.4028,-31.644 131.0078,-42.959 43.6466,-10.602 88.1808,-16.535 132.9704,-19.114 4.319,-0.1 8.6379,-0.197 12.9569,-0.295 18.6543,-0.134 19.2859,87.803 0.6316,87.937 l 0,0 c -3.1815,-0.04 -6.363,-0.09 -9.5444,-0.133 -39.0198,1.274 -77.8029,6.22 -115.8026,15.348 -39.3927,9.961 -78.6245,21.39 -115.1942,39.438 -17.0177,7.854 -54.0431,-72.368 -37.0255,-80.222 z" id="path11968" inkscape:connector-curvature="0" style="fill:#782121;fill-opacity:1;fill-rule:nonzero;stroke:#f9f9f9;stroke-width:0.1;stroke-miterlimit:4;stroke-dasharray:none" transform="translate(-8192, -48128)"/><path d="m 8720.843,48655.349 c 10.1828,46.624 6.3376,94.8 3.257,141.992 -4.246,53.947 -10.4957,107.711 -16.8564,161.442 -0.6631,5.241 -1.3261,10.482 -1.9892,15.723 -2.6122,18.382 -89.2641,6.068 -86.6519,-12.314 l 0,0 c 0.7687,-4.834 1.5374,-9.668 2.3061,-14.502 7.1868,-51.73 13.4174,-103.616 17.2822,-155.71 2.1989,-37.094 5.6028,-75.267 -2.3298,-111.909 -5.2443,-18.027 79.7377,-42.749 84.982,-24.722 z" id="path11970" inkscape:connector-curvature="0" style="fill:#782121;fill-opacity:1;fill-rule:nonzero;stroke:#f9f9f9;stroke-width:0.1;stroke-miterlimit:4;stroke-dasharray:none" transform="translate(-8192, -48128)"/><path d="m 8672.9232,48740.576 c 34.3675,-22.462 73.6365,-34.073 113.0821,-43.856 53.639,-12.275 108.5654,-16.187 163.3943,-18.209 45.6631,-1.786 91.2489,0.171 136.0599,9.266 33.5077,8.327 63.9563,25.683 78.9238,58.299 3.2018,6.977 4.7962,14.585 7.1943,21.877 9.058,52.835 -2.64,106.165 -12.1229,158.127 -9.9475,51.472 -19.4255,103.031 -28.8553,154.601 -3.8844,21.282 -1.8389,11.008 -6.0763,30.835 -4.1403,18.145 -89.6756,-1.373 -85.5353,-19.518 l 0,0 c 4.1377,-16.795 2.0312,-7.584 6.1302,-27.676 10.2183,-51.091 20.0001,-102.27 29.6196,-153.477 6.9215,-39.103 15.2289,-78.869 12.5437,-118.777 -1.2544,-15.173 -3.5374,-12.988 -20.0954,-18.848 -37.6229,-8.645 -76.2778,-9.304 -114.7438,-8.298 -48.8105,1.63 -97.7468,4.822 -145.4822,15.856 -29.2059,7.326 -58.8135,15.347 -83.9019,32.721 -15.4694,10.635 -65.6042,-62.288 -50.1348,-72.923 z" id="path11972" inkscape:connector-curvature="0" style="fill:#782121;fill-opacity:1;fill-rule:nonzero;stroke:#f9f9f9;stroke-width:0.1;stroke-miterlimit:4;stroke-dasharray:none" transform="translate(-8192, -48128)"/><path d="m 8913.8905,48792.388 c -14.3488,30.486 -21.9489,63.754 -30.1191,96.297 -7.4341,31.905 -15.1867,63.909 -17.2506,96.689 -1.6155,18.506 -88.8546,10.89 -87.2391,-7.616 l 0,0 c 3.8739,-37.154 11.7501,-73.64 20.5323,-109.925 9.9302,-40.392 19.3163,-81.497 37.1474,-119.286 9.3002,-16.319 86.2292,27.522 76.9291,43.841 z" id="path11974" inkscape:connector-curvature="0" style="fill:#782121;fill-opacity:1;fill-rule:nonzero;stroke:#f9f9f9;stroke-width:0.1;stroke-miterlimit:4;stroke-dasharray:none" transform="translate(-8192, -48128)"/><path d="m 9032.9796,48799.107 c -1.9539,32.39 -8.7606,64.24 -14.86,96.038 -9.1032,45.177 -17.2066,90.541 -24.7417,136.003 -1.0636,6.558 -2.1273,13.116 -3.1909,19.674 -3.0635,18.207 -88.8915,3.765 -85.828,-14.442 l 0,0 c 1.1443,-6.564 2.2886,-13.128 3.4329,-19.693 7.9007,-45.902 16.0764,-91.756 24.7748,-137.516 4.8611,-26.78 10.6094,-53.642 11.872,-80.892 0.1755,-18.782 88.7164,-17.955 88.5409,0.828 z" id="path11976" inkscape:connector-curvature="0" style="fill:#782121;fill-opacity:1;fill-rule:nonzero;stroke:#f9f9f9;stroke-width:0.1;stroke-miterlimit:4;stroke-dasharray:none" transform="translate(-8192, -48128)"/></svg>