<?xml version="1.0" encoding="UTF-8" standalone="no"?>
<svg
   xmlns:dc="http://purl.org/dc/elements/1.1/"
   xmlns:cc="http://creativecommons.org/ns#"
   xmlns:rdf="http://www.w3.org/1999/02/22-rdf-syntax-ns#"
   xmlns:svg="http://www.w3.org/2000/svg"
   xmlns="http://www.w3.org/2000/svg"
   xmlns:sodipodi="http://sodipodi.sourceforge.net/DTD/sodipodi-0.dtd"
   xmlns:inkscape="http://www.inkscape.org/namespaces/inkscape"
   width="1024"
   height="1024"
   id="U8F9B"
   version="1.1"
   inkscape:version="0.48.0 r9654"
   sodipodi:docname="U+8F9B.svg">
  <metadata
     id="metadata14">
    <rdf:RDF>
      <cc:Work
         rdf:about="">
        <dc:format>image/svg+xml</dc:format>
        <dc:type
           rdf:resource="http://purl.org/dc/dcmitype/StillImage" />
      </cc:Work>
    </rdf:RDF>
  </metadata>
  <defs
     id="defs12" />
  <sodipodi:namedview
     pagecolor="#ffffff"
     bordercolor="#666666"
     borderopacity="1"
     objecttolerance="10"
     gridtolerance="10"
     guidetolerance="10"
     inkscape:pageopacity="0"
     inkscape:pageshadow="2"
     inkscape:window-width="640"
     inkscape:window-height="480"
     id="namedview10"
     showgrid="false"
     inkscape:zoom="0.27441406"
     inkscape:cx="512"
     inkscape:cy="512"
     inkscape:window-x="0"
     inkscape:window-y="25"
     inkscape:window-maximized="0"
     inkscape:current-layer="U8F9B" />
  <path
     style="fill:#2b1100;fill-opacity:1;fill-rule:nonzero;stroke:none"
     d="M 500.65625 61.65625 C 474.7961 62.214672 428.25135 80.16325 432.375 93.625 C 441.54588 120.65967 453.29884 146.67969 465.59375 172.40625 C 446.63672 174.5592 427.70124 177.17337 408.84375 180.28125 C 358.53585 188.32925 308.4008 197.36975 258.0625 205.21875 C 239.5934 208.31675 254.2185 295.4105 272.6875 292.3125 C 322.5344 282.3395 372.51555 273.08575 422.65625 264.71875 C 484.03115 254.27575 546.1272 250.15125 608.3125 250.53125 C 641.8041 251.14225 675.18705 254.12625 708.15625 260.03125 C 719.51205 262.24825 714.16695 261.1505 724.21875 263.3125 C 742.58475 266.9785 759.866 180.38375 741.5 176.71875 C 729.5558 174.48975 735.87645 175.64175 722.59375 173.34375 C 684.78425 167.44775 646.5915 164.446 608.3125 164.25 C 592.21605 164.33746 576.13502 164.68761 560.0625 165.3125 C 560.02446 165.22178 560.01171 165.12078 559.96875 165.03125 C 554.99155 154.83325 549.83785 144.72075 544.71875 134.59375 C 534.15055 112.88775 523.85585 90.91975 516.96875 67.71875 C 515.59422 63.23125 509.2763 61.470109 500.65625 61.65625 z M 658.375 260.375 C 657.49794 260.44208 656.67381 260.69422 655.90625 261.125 C 629.78435 276.942 606.857 297.158 584.9375 318.25 C 565.4347 337.741 547.5884 358.78325 529.3125 379.40625 C 523.5352 385.97067 535.04552 402.23151 550.125 416.1875 C 544.80323 416.67148 539.47522 417.16809 534.15625 417.6875 C 467.44315 424.3565 400.8592 432.16475 334.5625 442.21875 C 293.9613 448.54175 253.19105 454.72475 213.71875 466.46875 C 195.77055 471.94475 221.58315 556.5385 239.53125 551.0625 C 274.72325 539.0085 311.6796 533.46825 348.25 527.40625 C 385.95559 521.28651 423.80108 516.13664 461.71875 511.59375 C 461.07709 538.15644 462.58785 564.83047 463.5 591.3125 C 450.16518 593.18689 436.81902 594.92395 423.4375 596.46875 C 384.5885 601.09475 345.60505 604.8035 306.90625 610.5625 C 288.57255 614.5115 307.19755 700.949 325.53125 697 C 361.46485 690.669 397.8093 686.9235 434 682.3125 C 444.85563 680.97304 455.70304 679.49649 466.53125 677.96875 C 468.18269 716.62236 470.2713 755.24144 472.96875 793.84375 C 476.23775 833.94975 480.4531 874.0625 487.5625 913.6875 C 491.1231 932.0035 577.46685 915.22225 573.90625 896.90625 C 566.22115 860.87825 562.16205 824.16425 558.65625 787.53125 C 555.46986 746.74663 553.10635 705.89949 551.5625 665.03125 C 566.67421 662.67284 581.77121 660.35552 596.90625 658.15625 C 625.08325 655.43625 653.79895 648.7195 682.21875 652.1875 C 682.53537 652.25233 685.24603 653.02277 686.0625 653.34375 C 704.0744 652.11587 736.29433 579.64439 720.125 572.21875 C 710.053 568.27575 700.10485 564.8685 689.15625 564.3125 C 653.91445 562.2455 618.95395 567.427 584.15625 572.625 C 572.54776 574.40317 560.94274 576.2451 549.34375 578.09375 C 548.66275 552.78866 547.71076 527.26464 549.90625 502.0625 C 606.58835 496.77199 663.44602 493.89259 720.34375 492.34375 C 752.96575 491.97275 785.59485 491.88625 818.21875 491.90625 C 820.44645 491.98025 822.67845 492.055 824.90625 492.125 C 843.63635 492.36 844.76145 404.07875 826.03125 403.84375 C 823.08285 403.85375 820.1359 403.875 817.1875 403.875 C 783.9982 404.671 750.78515 405.18425 717.59375 405.90625 C 684.3862 407.11273 651.21886 408.77047 618.0625 410.9375 C 626.99183 400.81663 636.06374 390.81227 645.59375 381.25 C 662.10965 365.356 679.23055 349.7815 699.21875 338.3125 C 714.82579 329.55328 676.20851 259.01108 658.375 260.375 z M 686.0625 653.34375 C 685.91879 653.35355 685.76687 653.37434 685.625 653.375 C 686.34332 653.50692 686.41237 653.4813 686.0625 653.34375 z M 392.90625 280.96875 C 373.5136 280.72622 323.01441 332.94731 334.96875 345.03125 C 358.57765 368.69125 385.71285 387.762 414.71875 404.125 C 436.10715 414.735 425.6132 409.70025 446.125 419.28125 C 462.9606 427.09425 499.80435 347.7505 482.96875 339.9375 C 465.56295 331.9175 474.1114 335.94025 457.3125 327.78125 C 435.3617 315.72525 414.8949 301.33775 397.8125 282.84375 C 396.57584 281.59369 394.91239 280.99384 392.90625 280.96875 z M 683.09375 652.84375 C 683.86683 653.19873 684.68359 653.36673 685.53125 653.375 C 685.01973 653.27782 684.31544 653.12538 683.09375 652.84375 z "
     id="path16411" />
</svg>
