<?xml version="1.0" encoding="UTF-8" standalone="no"?>
<svg
   xmlns:dc="http://purl.org/dc/elements/1.1/"
   xmlns:cc="http://creativecommons.org/ns#"
   xmlns:rdf="http://www.w3.org/1999/02/22-rdf-syntax-ns#"
   xmlns:svg="http://www.w3.org/2000/svg"
   xmlns="http://www.w3.org/2000/svg"
   xmlns:sodipodi="http://sodipodi.sourceforge.net/DTD/sodipodi-0.dtd"
   xmlns:inkscape="http://www.inkscape.org/namespaces/inkscape"
   width="1024"
   height="1024"
   id="U8F86"
   version="1.1"
   inkscape:version="0.48.0 r9654"
   sodipodi:docname="U+8F86.svg">
  <metadata
     id="metadata18">
    <rdf:RDF>
      <cc:Work
         rdf:about="">
        <dc:format>image/svg+xml</dc:format>
        <dc:type
           rdf:resource="http://purl.org/dc/dcmitype/StillImage" />
      </cc:Work>
    </rdf:RDF>
  </metadata>
  <defs
     id="defs16" />
  <sodipodi:namedview
     pagecolor="#ffffff"
     bordercolor="#666666"
     borderopacity="1"
     objecttolerance="10"
     gridtolerance="10"
     guidetolerance="10"
     inkscape:pageopacity="0"
     inkscape:pageshadow="2"
     inkscape:window-width="640"
     inkscape:window-height="480"
     id="namedview14"
     showgrid="false"
     inkscape:zoom="0.27441406"
     inkscape:cx="512"
     inkscape:cy="512"
     inkscape:window-x="0"
     inkscape:window-y="25"
     inkscape:window-maximized="0"
     inkscape:current-layer="U8F86" />
  <path
     style="fill:#2b0000;fill-opacity:1;fill-rule:nonzero;stroke:#f9f9f9;stroke-width:0.1;stroke-miterlimit:4;stroke-dasharray:none"
     d="M 257.3125 190.3125 C 248.69649 190.09006 242.39293 191.80125 241 196.28125 C 232.5884 226.35125 223.627 256.28775 213.9375 285.96875 C 212.5413 290.07144 211.11315 294.1578 209.6875 298.25 C 179.70461 303.45153 149.8158 309.13402 119.84375 314.40625 C 101.46035 318.11025 118.9291 404.7665 137.3125 401.0625 C 149.73878 398.35684 162.18173 395.78121 174.65625 393.3125 C 172.66083 398.57353 170.68048 403.83222 168.6875 409.09375 C 155.1816 444.30075 143.66585 480.23475 129.90625 515.34375 C 122.43645 534.92175 112.3498 553.29875 103.1875 572.09375 C 91.925 594.89575 90.0132 620.79575 110.25 640.59375 C 116.1885 646.40275 124.9123 648.38525 132.25 652.28125 C 152.5133 656.11125 172.4101 650.30725 192.4375 647.65625 C 212.68627 645.23446 232.86432 642.35734 253.03125 639.34375 C 252.81235 645.9481 252.61192 652.55051 252.4375 659.15625 C 251.84592 688.87154 252.24336 718.57364 252.96875 748.28125 C 238.19498 753.10879 223.41067 757.92762 208.625 762.71875 C 171.0921 775.13575 133.7178 787.974 96.75 802 C 79.2031 808.656 110.5782 891.37375 128.125 884.71875 C 163.4489 869.62375 199.74065 856.99725 236.09375 844.65625 C 242.51785 842.52124 248.94794 840.40738 255.375 838.28125 C 255.6841 855.65593 255.81629 873.02694 255.75 890.40625 C 255.5953 898.01225 255.83905 905.62675 255.28125 913.21875 C 254.61935 932.03075 343.30675 935.15575 343.96875 916.34375 C 344.10055 907.52075 343.91635 898.697 343.78125 889.875 C 343.36992 863.28191 342.77711 836.70388 341.84375 810.125 C 357.05119 805.26588 372.28504 800.45592 387.53125 795.71875 C 414.88125 787.16275 442.5912 779.82725 471 775.90625 C 473.86245 775.4234 476.71947 775.07299 479.59375 774.84375 C 482.02554 791.20902 484.58256 807.54589 487.25 823.875 C 491.8837 850.96 496.58185 878.0875 504.03125 904.5625 C 508.64095 917.2775 505.8183 910.774 512.8125 924 C 522.18822 939.12473 590.08134 898.15173 589.0625 880.125 C 588.92302 879.8747 588.85511 879.72797 588.65625 879.375 C 581.25345 856.655 577.7779 832.8195 573.1875 809.4375 C 571.57905 800.11777 569.98985 790.80334 568.46875 781.46875 C 586.97113 783.21817 606.52487 781.71253 614 776 C 632.16783 782.65737 649.78793 790.74278 667.1875 799.1875 C 677.9599 804.4385 688.0674 810.89825 697.9375 817.65625 C 705.2032 822.48558 719.66066 809.13625 731.5 792.4375 C 755.57918 793.74361 782.30498 789.44232 782.4375 779.125 C 780.5984 786.885 784.09995 766.53125 785.53125 764.03125 C 785.68349 763.51014 785.84648 762.98945 786 762.46875 C 785.95745 767.91265 787.31601 771.88235 790.5 773.3125 C 814.8764 782.9265 838.16615 794.936 860.84375 808 C 869.66751 813.17203 878.43643 818.4395 887 824.03125 C 884.16218 833.49598 881.35055 842.97934 878.59375 852.46875 C 872.31615 874.08875 866.31735 895.794 860.34375 917.5 C 859.92225 918.783 859.484 920.06075 859.0625 921.34375 C 853.6676 939.33575 938.4801 964.77325 943.875 946.78125 L 945.8125 940 C 951.1279 918.801 956.71235 897.657 962.65625 876.625 C 972.18535 843.074 982.40305 809.7425 993.15625 776.5625 C 1003.0365 745.3135 1013.4015 714.20025 1023.9062 683.15625 C 1030.0026 663.93025 1036.1919 644.6495 1039.4062 624.6875 C 1041.7921 602.3805 1038.4259 580.934 1019.9375 565.875 C 1011.295 560.059 1002.3778 555.2215 992.3125 552.3125 C 985.2408 550.2375 978.34745 547.5105 971.09375 546.0625 C 961.79015 543.9285 952.6477 541.109 943.25 539.375 C 927.3465 536.545 911.2749 535.004 895.125 534.5 C 884.00824 534.03253 872.89832 533.83589 861.78125 533.875 C 863.01229 529.22277 864.22352 524.58167 865.375 519.90625 C 872.6698 489.46325 879.3634 458.87975 885.0625 428.09375 C 888.1481 409.57975 800.86695 395.01725 797.78125 413.53125 C 793.43785 442.60225 787.2041 471.33575 780.625 499.96875 C 777.78891 512.0169 774.60082 523.99353 771.1875 535.875 C 754.45906 535.76902 737.74819 535.22178 721.03125 534.03125 C 711.1541 533.72706 701.26175 533.46109 691.375 533.375 C 692.71044 529.43435 694.04428 525.48478 695.34375 521.53125 C 707.80255 482.59725 719.84845 443.414 727.15625 403.125 C 727.81918 398.65897 723.22537 394.52109 715.875 391.0625 C 732.50629 390.47527 749.15271 389.87745 765.78125 389.21875 C 801.42185 387.69975 836.9865 385.06 872.5625 382.5 C 889.0208 381.49 905.5201 379.7385 922 381.1875 C 924.8904 381.6545 928.00255 381.774 930.53125 383.25 C 947.63095 391.11 984.69345 310.485 967.59375 302.625 C 954.90085 297.281 941.80225 293.6875 927.96875 292.9375 C 907.20305 291.7585 886.5019 293.12575 865.8125 295.09375 C 831.2878 297.95075 796.7345 300.82175 762.125 302.46875 C 714.8318 304.56275 667.50855 305.97125 620.21875 308.15625 C 583.03225 309.36225 545.8008 310.1155 508.625 308.0625 C 489.8811 307.6645 488.0061 396.00725 506.75 396.40625 C 545.5939 396.97825 584.434 396.21425 623.25 394.78125 C 628.51978 394.51793 633.79176 394.27043 639.0625 394.03125 C 633.63275 428.58498 623.28118 462.11936 612.875 495.4375 C 608.07964 510.29501 602.97177 525.06609 597.6875 539.75 C 577.04273 543.51826 556.42824 547.88013 536.59375 554.59375 C 518.97718 546.60366 466.48651 554.12562 456.3125 567.0625 C 454.77045 548.32147 449.80598 531.9459 441.6875 532.125 C 437.3704 532.255 432.3041 532.2175 427.75 532.1875 C 405.4536 532.1735 383.09955 532.161 360.90625 534.625 C 355.79894 535.23719 350.72006 535.90035 345.625 536.59375 C 346.32258 528.74676 347.08681 520.89982 347.90625 513.0625 C 351.02635 481.6425 353.76395 450.148 358.15625 418.875 C 360.59325 400.25 272.78075 388.75 270.34375 407.375 C 267.04585 439.836 264.3089 472.34875 261.375 504.84375 C 259.91858 519.93931 258.67737 535.06526 257.59375 550.1875 C 240.92767 552.66245 224.24528 555.0689 207.53125 557.1875 C 208.93847 553.76336 210.29563 550.29882 211.5625 546.8125 C 225.0298 511.3735 236.50315 475.24625 249.90625 439.78125 C 257.84741 418.69928 265.86575 397.63609 273.75 376.53125 C 297.62256 373.86103 321.62458 372.61056 345.65625 372.03125 C 366.64865 371.49125 387.65655 371.9935 408.59375 373.5625 C 415.78785 374.2265 422.9685 374.86325 430.1875 375.15625 C 449.008 375.59825 451.10185 286.8795 432.28125 286.4375 C 426.27955 286.7065 420.28005 285.42625 414.28125 285.40625 C 390.57785 284.08825 366.82385 283.775 343.09375 284.625 C 330.50129 285.05736 317.91379 285.62521 305.34375 286.4375 C 312.11808 265.16981 318.6755 243.82751 325.46875 222.5625 C 329.6476 209.1225 283.16053 190.97981 257.3125 190.3125 z M 589.0625 880.125 C 589.77741 881.40793 589.56992 880.778 588.96875 879.25 C 589.02413 879.53591 589.04561 879.82611 589.0625 880.125 z M 588.96875 879.25 C 588.83193 878.54369 588.60278 877.8695 588.21875 877.25 C 588.65071 878.40705 588.71692 878.60991 588.96875 879.25 z M 456.625 587.28125 C 460.86043 620.42253 464.18404 653.68667 468.03125 686.875 C 468.0511 687.05216 468.07385 687.2291 468.09375 687.40625 C 464.71581 687.76634 461.35529 688.23386 458 688.875 C 425.1221 694.06 392.9824 702.579 361.375 713 C 353.92484 715.39558 346.47605 717.80665 339.03125 720.21875 C 338.63812 700.60824 338.49901 680.99165 338.84375 661.375 C 339.14173 649.49289 339.52417 637.62584 340 625.75 C 350.29689 624.24109 360.61895 622.82536 370.96875 621.6875 C 389.53535 619.8725 408.1897 620.1695 426.8125 620.5625 C 432.4214 620.6655 438.0159 620.96 443.625 621 C 451.4807 620.8267 455.71152 605.31087 456.625 587.28125 z M 182.34375 611.59375 C 182.05379 612.72654 181.68039 613.84604 181.25 614.96875 C 181.1551 615.21575 181.28125 614.4535 181.28125 614.1875 C 181.63382 613.32206 181.99123 612.45919 182.34375 611.59375 z M 679.28125 620.46875 C 692.2506 620.40345 705.22983 620.74725 718.1875 621.1875 C 726.32484 621.78229 734.483 622.23116 742.625 622.5625 C 741.17203 626.62638 739.74435 630.69104 738.28125 634.75 C 727.88623 663.46011 716.96203 691.97054 707.21875 720.90625 C 706.56181 720.58558 705.9101 720.25236 705.25 719.9375 C 682.7081 709.2125 659.8752 699.076 636.5625 690.125 C 635.91935 689.89113 635.26746 689.7851 634.59375 689.78125 C 636.51223 684.01423 638.48361 678.25811 640.5 672.53125 C 646.73821 655.27749 653.18598 638.08775 659.625 620.90625 C 666.17243 620.63665 672.72365 620.50177 679.28125 620.46875 z M 855.875 621.6875 C 867.56396 621.61163 879.254 621.83525 890.9375 622.46875 C 903.0021 623.15275 915.11145 624.0055 926.96875 626.4375 C 933.82519 627.97028 940.59703 629.87199 947.40625 631.59375 C 945.14265 640.15419 942.54002 648.62542 939.96875 657.09375 C 931.2403 683.87581 922.50953 710.64852 914 737.5 C 910.78534 735.61455 907.55707 733.74233 904.3125 731.90625 C 879.078 717.58225 853.26085 704.376 826.71875 692.625 C 819.66257 689.4556 809.35289 701.31084 800.875 716.875 C 807.06457 699.1946 813.53814 681.59546 819.78125 663.9375 C 824.7404 650.02051 829.66619 636.1029 834.46875 622.125 C 841.60676 621.89287 848.73654 621.73384 855.875 621.6875 z M 560.3125 639.4375 C 559.90827 640.52179 559.49675 641.60278 559.09375 642.6875 C 556.76079 648.90949 554.51205 655.16211 552.34375 661.4375 C 551.71953 655.61525 551.13315 649.79323 550.53125 643.96875 C 553.73659 642.3119 556.99736 640.80694 560.3125 639.4375 z "
     id="path10002" />
</svg>
