<?xml version="1.0" encoding="UTF-8" standalone="no"?>
<svg
   xmlns:dc="http://purl.org/dc/elements/1.1/"
   xmlns:cc="http://creativecommons.org/ns#"
   xmlns:rdf="http://www.w3.org/1999/02/22-rdf-syntax-ns#"
   xmlns:svg="http://www.w3.org/2000/svg"
   xmlns="http://www.w3.org/2000/svg"
   xmlns:sodipodi="http://sodipodi.sourceforge.net/DTD/sodipodi-0.dtd"
   xmlns:inkscape="http://www.inkscape.org/namespaces/inkscape"
   width="1024"
   height="1024"
   id="U8F83"
   version="1.1"
   inkscape:version="0.48.0 r9654"
   sodipodi:docname="U+8F83.svg">
  <metadata
     id="metadata17">
    <rdf:RDF>
      <cc:Work
         rdf:about="">
        <dc:format>image/svg+xml</dc:format>
        <dc:type
           rdf:resource="http://purl.org/dc/dcmitype/StillImage" />
      </cc:Work>
    </rdf:RDF>
  </metadata>
  <defs
     id="defs15" />
  <sodipodi:namedview
     pagecolor="#ffffff"
     bordercolor="#666666"
     borderopacity="1"
     objecttolerance="10"
     gridtolerance="10"
     guidetolerance="10"
     inkscape:pageopacity="0"
     inkscape:pageshadow="2"
     inkscape:window-width="640"
     inkscape:window-height="480"
     id="namedview13"
     showgrid="false"
     inkscape:zoom="0.27441406"
     inkscape:cx="512"
     inkscape:cy="512"
     inkscape:window-x="0"
     inkscape:window-y="25"
     inkscape:window-maximized="0"
     inkscape:current-layer="U8F83" />
  <path
     style="fill:#550000;fill-opacity:1;fill-rule:nonzero;stroke:#f9f9f9;stroke-width:0.1;stroke-miterlimit:4;stroke-dasharray:none"
     d="M 612.03125 166.4375 C 591.69709 167.00591 540.27641 215.7725 551.5625 228.3125 C 575.8933 254.1425 601.51355 278.695 627.46875 302.875 C 629.95629 305.19159 632.46264 307.48514 634.96875 309.78125 C 611.1626 309.732 587.34952 310.23396 563.5625 311.4375 C 520.3035 314.0395 477.19835 318.1105 434.09375 322.5625 C 415.27875 324.6675 425.21625 413.38625 444.03125 411.28125 C 454.71438 409.7168 465.41196 408.26957 476.125 406.96875 C 471.61892 414.80375 467.20537 422.71845 462.8125 430.59375 C 438.4538 474.58675 416.6113 519.84975 397.1875 566.21875 C 389.7041 583.20875 384.50505 600.87375 380.09375 618.84375 C 376.02165 637.22375 462.678 656.4435 466.75 638.0625 C 467.96108 631.18042 469.65191 624.44066 471.71875 617.8125 C 486.499 643.32046 502.72423 667.98567 519.625 692.1875 C 526.76757 702.27805 534.22343 712.0804 541.9375 721.6875 C 520.33347 752.60466 495.8453 781.3825 470.09375 808.9375 C 458.97255 821.1365 446.5895 831.821 433.375 841.625 C 418.5723 853.118 472.7598 922.89925 487.5625 911.40625 C 504.1174 898.17325 520.1841 884.46 534.375 868.625 C 558.14803 842.87868 581.0144 816.25716 601.875 788.125 C 614.90216 801.24193 628.23258 814.07629 641.71875 826.71875 C 674.45485 856.85275 708.8987 885.03375 742.25 914.46875 C 751.8908 922.87775 760.8354 932.0285 769.75 941.1875 C 783.0434 954.5375 845.9809 891.85 832.6875 878.5 C 822.1156 868.088 811.5234 857.69425 800.25 848.03125 C 767.3158 819.57925 733.4808 792.1995 701.25 762.9375 C 683.85653 746.79333 666.69965 730.31217 650.28125 713.1875 C 669.76345 679.47695 687.66334 644.87524 703.4375 609.21875 C 711.94026 590.16926 720.04451 570.9516 728.5 551.875 C 729.50019 552.46765 730.5014 553.06086 731.5 553.65625 C 746.0358 562.45225 759.99685 572.13975 773.28125 582.71875 C 788.18675 594.24375 842.5305 523.9625 827.625 512.4375 C 811.2401 500.0375 794.335 488.33525 776.6875 477.78125 C 751.7621 462.95025 726.2256 449.063 702.0625 433 C 686.48942 422.56902 637.73368 495.05641 651.90625 506.84375 C 642.33242 529.14014 633.01976 551.55328 623.28125 573.78125 C 613.27017 596.77765 602.23643 619.26528 590.375 641.3125 C 566.76116 607.21243 544.46217 572.06967 528.03125 533.84375 C 525.92946 529.30106 518.69558 528.59836 509.375 530.3125 C 518.77752 511.13279 528.73588 492.21695 539.25 473.59375 C 554.0214 447.60675 568.5717 420.96625 588.875 398.78125 C 589.17987 398.458 589.43542 398.09263 589.65625 397.71875 C 629.18208 396.41749 668.75181 397.22797 708.21875 399.71875 C 722.85315 401.14475 740.50785 401.7795 753.34375 406.5625 C 771.08335 413.2455 802.58335 329.6205 784.84375 322.9375 C 764.71034 316.42338 743.8828 313.81963 722.84375 312.4375 C 733.31082 298.97472 739.65366 285.55621 734.15625 280.4375 C 718.68835 266.2875 702.81505 252.62225 687.40625 238.40625 C 663.33735 216.06725 639.469 193.4065 617.9375 168.5625 C 616.55149 167.0225 614.52843 166.3677 612.03125 166.4375 z M 261.9375 204.46875 C 257.72994 204.44054 254.60736 205.57375 253.15625 208.15625 C 237.6546 240.3649 225.24314 273.92765 212.59375 307.34375 C 197.95147 309.25982 183.36403 311.55851 168.90625 314.625 C 154.50329 318.3458 165.15269 372.43676 179.28125 393.25 C 170.26948 416.15782 161.25189 439.04558 152.4375 462.03125 C 141.5572 491.32825 129.73815 520.3025 120.15625 550.0625 C 110.80425 578.8985 116.78755 607.64925 144.34375 624.53125 C 149.66475 627.79125 156.18265 628.53125 162.09375 630.53125 C 191.26675 634.01125 220.80575 630.96625 250.03125 629.28125 C 251.3738 629.1933 252.7198 629.1147 254.0625 629.03125 C 252.89036 657.23131 251.70307 685.42515 250.53125 713.625 C 250.13079 722.7594 249.7806 731.89479 249.4375 741.03125 C 247.75109 741.72177 246.05988 742.39919 244.375 743.09375 C 204.4916 759.31575 164.00165 774.986 127.34375 797.875 C 111.86655 808.792 163.30405 881.76075 178.78125 870.84375 C 200.45353 856.86872 223.99452 846.18964 247.78125 836.21875 C 247.87595 846.15043 248.0851 856.06806 248.40625 866 C 248.94255 878.944 249.8247 891.8835 250.625 904.8125 C 252.0463 923.6385 340.7964 916.91975 339.375 898.09375 C 338.3129 886.20475 337.1961 874.32525 336.5 862.40625 C 335.47082 841.97675 335.08383 821.53488 335.125 801.09375 C 361.1098 791.38335 387.36585 782.41097 413.96875 774.46875 C 427.02045 770.47675 440.36635 767.7085 453.78125 765.3125 C 472.25385 761.6735 455.0976 674.58075 436.625 678.21875 C 420.3397 681.64975 404.1245 685.3715 388.25 690.4375 C 371.24728 695.76093 354.35372 701.42424 337.5625 707.34375 C 338.62647 680.52949 339.73235 653.71615 340.90625 626.90625 C 347.46621 627.05146 353.99457 627.62481 360.53125 628.15625 C 379.46625 629.30325 384.8725 540.022 365.9375 538.875 C 358.98287 538.5811 352.02273 538.27478 345.0625 538.15625 C 345.26505 534.17456 345.48035 530.20021 345.6875 526.21875 C 347.7958 492.29375 348.80475 457.637 358.15625 424.75 C 364.10405 406.746 279.22905 378.71475 273.28125 396.71875 C 262.15965 437.24275 260.7199 479.55625 258.5625 521.28125 C 258.29619 527.65688 258.01598 534.0306 257.75 540.40625 C 253.59787 540.62291 249.43246 540.87914 245.28125 541.125 C 235.65767 541.60874 225.99959 542.04806 216.34375 542.4375 C 222.22403 525.94773 228.52911 509.5822 234.375 493.09375 C 247.43695 458.23812 261.11405 423.61334 274.71875 388.96875 C 277.70883 388.65837 280.70195 388.3516 283.6875 388.03125 C 316.6443 384.54425 349.5489 380.6015 382.5 377.0625 C 389.4558 376.3845 396.40955 375.64925 403.34375 374.78125 C 422.13155 371.91725 408.63145 283.35375 389.84375 286.21875 C 383.98745 287.41475 378.01335 288.04075 372.09375 288.84375 C 351.70144 291.45491 331.3222 294.07671 310.90625 296.5 C 317.09635 281.39675 323.65882 266.4772 331.0625 251.9375 C 338.89849 237.992 284.65834 204.62109 261.9375 204.46875 z M 205.1875 576.53125 C 204.90558 579.39723 203.98493 582.9575 204.1875 581.1875 C 204.36838 579.6066 204.84615 578.08541 205.1875 576.53125 z "
     id="path9069" />
</svg>
