<?xml version="1.0" encoding="UTF-8" standalone="no"?>
<svg
   xmlns:dc="http://purl.org/dc/elements/1.1/"
   xmlns:cc="http://creativecommons.org/ns#"
   xmlns:rdf="http://www.w3.org/1999/02/22-rdf-syntax-ns#"
   xmlns:svg="http://www.w3.org/2000/svg"
   xmlns="http://www.w3.org/2000/svg"
   xmlns:sodipodi="http://sodipodi.sourceforge.net/DTD/sodipodi-0.dtd"
   xmlns:inkscape="http://www.inkscape.org/namespaces/inkscape"
   width="1024"
   height="1024"
   id="U8F85"
   version="1.1"
   inkscape:version="0.48.0 r9654"
   sodipodi:docname="U+8F85.svg">
  <metadata
     id="metadata18">
    <rdf:RDF>
      <cc:Work
         rdf:about="">
        <dc:format>image/svg+xml</dc:format>
        <dc:type
           rdf:resource="http://purl.org/dc/dcmitype/StillImage" />
      </cc:Work>
    </rdf:RDF>
  </metadata>
  <defs
     id="defs16" />
  <sodipodi:namedview
     pagecolor="#ffffff"
     bordercolor="#666666"
     borderopacity="1"
     objecttolerance="10"
     gridtolerance="10"
     guidetolerance="10"
     inkscape:pageopacity="0"
     inkscape:pageshadow="2"
     inkscape:window-width="640"
     inkscape:window-height="480"
     id="namedview14"
     showgrid="false"
     inkscape:zoom="0.27441406"
     inkscape:cx="512"
     inkscape:cy="512"
     inkscape:window-x="0"
     inkscape:window-y="25"
     inkscape:window-maximized="0"
     inkscape:current-layer="U8F85" />
  <path
     style="fill:#550000;fill-opacity:1;fill-rule:nonzero;stroke:#f9f9f9;stroke-width:0.1;stroke-miterlimit:4;stroke-dasharray:none"
     d="M 724.6875 9.46875 C 707.01867 10.3127 677.73621 84.250375 694.125 90.9375 C 718.7305 101.7485 738.2077 120.65325 756 140.28125 C 768.3717 153.77125 831.96535 95.45875 819.59375 81.96875 C 792.86135 53.06375 763.47985 26.37025 727.21875 9.90625 C 726.41275 9.5774219 725.55646 9.4272443 724.6875 9.46875 z M 602.40625 152.84375 C 581.94289 153.21352 562.63698 157.69219 562.5625 166.40625 C 562.54414 186.00216 562.61673 205.59779 562.8125 225.1875 C 525.47574 231.42019 488.32491 238.52545 451.34375 246.625 C 433.19515 250.609 451.9764 336.14025 470.125 332.15625 C 501.2607 323.9181 532.80825 317.56992 564.5 311.9375 C 565.27771 335.97458 566.01772 360.02406 566.75 384.0625 C 555.47199 386.55705 544.2896 389.43989 533.1875 392.8125 C 510.17141 400.26789 487.10313 408.44071 465.90625 419.96875 C 441.29453 410.68573 401.09526 407.08 398.71875 419.4375 C 393.76197 450.88036 393.11762 482.66147 393.84375 514.40625 C 390.19894 508.62271 386.22488 505.29261 382.3125 506.1875 C 365.1918 510.28309 348.08854 514.46227 331.03125 518.8125 C 331.07106 508.68144 331.16068 498.56876 331.40625 488.4375 C 332.91125 454.3395 333.5895 418.931 345.375 386.5 C 349.33293 377.94808 330.83619 364.29418 310.625 355.09375 C 338.25115 350.51373 365.89948 346.1048 393.5625 341.75 C 397.6402 341.082 401.70355 340.38775 405.78125 339.71875 C 423.95035 336.45975 408.6066 250.83475 390.4375 254.09375 C 386.6744 254.83175 382.8881 255.54425 379.125 256.28125 C 349.02936 261.70876 318.9023 266.83225 288.75 271.9375 C 295.20356 253.81305 302.34144 235.9534 311.4375 219.03125 C 321.5603 203.43225 248.02905 155.7135 237.90625 171.3125 C 218.02532 207.81675 206.21503 247.99577 193.375 287.375 C 172.31799 290.47802 151.2164 293.31754 130.0625 295.6875 C 111.678 298.2225 123.64675 384.87875 142.03125 382.34375 C 148.41636 381.36173 154.80312 380.39151 161.1875 379.40625 C 150.63457 407.92228 139.70676 436.30871 128.71875 464.65625 C 114.39265 501.06525 98.51715 536.99275 95.59375 576.34375 C 101.87145 636.91075 141.5274 646.16375 194.125 641.34375 C 212.47803 638.18097 230.63167 634.11043 248.6875 629.59375 C 249.4751 648.92926 250.33529 668.26771 251.1875 687.59375 C 251.2212 688.60525 251.27705 689.61358 251.3125 690.625 C 238.24487 695.56321 225.18181 700.54322 212.15625 705.59375 C 172.77575 721.42175 133.5625 737.912 96.125 758 C 80.0852 767.368 124.24135 842.994 140.28125 833.625 C 173.24665 814.132 208.758 799.3885 244.1875 785.0625 C 248.07341 783.54676 251.95191 782.03137 255.84375 780.53125 C 257.15075 803.38116 258.43009 826.22339 259.25 849.09375 C 259.2495 869.67075 259.5488 859.9455 258.5625 878.3125 C 257.8378 896.6895 344.4627 900.09475 345.1875 881.71875 C 345.8661 858.09675 345.7763 870.23075 345.3125 845.34375 C 343.68189 813.26154 341.35067 781.2174 339.3125 749.15625 C 352.12278 744.38102 364.93339 739.5914 377.71875 734.75 C 389.12993 730.33423 400.57796 725.99261 412.03125 721.6875 C 412.38685 724.54157 412.73781 727.39625 413.09375 730.25 C 416.63025 757.327 420.37785 784.37475 423.78125 811.46875 C 426.32575 829.68675 512.20075 817.68775 509.65625 799.46875 C 508.17926 789.85194 506.73078 780.24609 505.28125 770.625 C 530.21064 775.22784 555.88819 773.78548 581.28125 771.09375 C 582.17394 788.10634 583.08206 805.11089 583.9375 822.125 C 585.3961 855.185 587.64585 888.19675 591.21875 921.09375 C 593.56135 939.42775 679.9676 928.3965 677.625 910.0625 C 673.0157 879.3305 670.67875 848.34975 668.78125 817.34375 C 667.52047 797.30589 666.25751 777.25754 665 757.21875 C 685.15171 752.75364 705.15546 747.58405 724.96875 741.75 L 735.4375 738.03125 C 734.74077 748.30559 734.05155 758.56829 733.375 768.84375 C 732.4686 784.79375 731.1888 800.696 728.875 816.5 C 726.5807 834.784 812.7682 845.5965 815.0625 827.3125 C 817.0167 809.6005 818.3427 791.8745 819.0625 774.0625 C 822.0063 720.7785 825.486 667.5085 831.1875 614.4375 C 835.9214 565.5105 842.60075 515.908 835.71875 466.875 C 825.39385 424.811 810.2049 400.40325 768.5625 384.28125 C 735.1659 373.61825 700.5182 369.4835 665.4375 371.1875 C 660.40705 371.47087 655.3973 371.81072 650.375 372.1875 C 649.84837 348.09247 649.35146 324.00309 648.90625 299.90625 C 648.90568 299.85426 648.90682 299.80199 648.90625 299.75 C 669.65504 297.47556 690.44993 295.76099 711.3125 294.8125 C 720.3078 294.9765 729.5983 293.86475 738.3125 296.59375 C 756.5665 299.73175 771.379 213.7005 753.125 210.5625 C 737.6659 208.4505 722.29015 207.2175 706.65625 208.5625 C 687.36571 209.74947 668.11533 211.44081 648.90625 213.5 C 649.14931 198.04323 649.54171 182.60831 650.1875 167.15625 C 650.27192 157.28031 625.59806 152.42468 602.40625 152.84375 z M 261.1875 363.46875 C 249.02124 402.61361 247.56972 444.2526 246.09375 485 C 245.78399 503.84983 245.82604 522.71674 246.09375 541.5625 C 226.21256 546.72636 206.22067 551.45053 186 555.0625 C 192.3334 534.30218 205.13215 510.2078 208.5 495.1875 C 224.96589 451.60532 241.47756 408.04055 257.125 364.15625 C 258.48041 363.93107 259.83226 363.69505 261.1875 363.46875 z M 674.46875 457.28125 C 696.99577 457.10265 719.61766 459.04281 740.875 466.84375 C 751.1623 470.93475 749.38625 476.09225 751.03125 485.90625 C 754.90635 526.04425 749.7628 566.4605 746.125 606.4375 C 743.35579 633.6423 741.03521 660.89291 738.96875 688.15625 C 731.50299 668.67596 720.291 651.36233 711.96875 654.40625 C 707.99175 655.92525 704.00825 657.4195 700.03125 658.9375 C 686.74795 663.04733 673.33769 666.76363 659.84375 670.0625 C 658.62653 647.32533 657.54208 624.56644 656.65625 601.8125 C 669.78651 599.43364 683.10433 598.28768 696.53125 598.75 C 714.97245 598.888 715.6287 511.9505 697.1875 511.8125 C 682.66862 511.92522 668.23383 512.90759 653.9375 514.84375 C 653.40785 496.04587 652.89001 477.23652 652.40625 458.4375 C 658.24642 457.99526 664.11404 457.62141 669.96875 457.34375 C 671.46913 457.31425 672.96695 457.29316 674.46875 457.28125 z M 569.40625 472.09375 C 570.05196 494.00253 570.69354 515.90375 571.34375 537.8125 C 549.21714 546.91258 528.2043 558.3456 510.25 574.75 C 497.0973 587.903 559.0973 649.903 572.25 636.75 C 573.02685 636.06177 573.82846 635.40651 574.625 634.75 C 575.32282 651.49303 576.0637 668.23081 576.875 684.96875 C 557.154 687.2934 536.9857 689.08829 517.625 684.46875 C 511.73966 681.66358 503.27956 689.5767 495.5 701.375 C 488.9573 650.63226 482.9623 599.78547 480.53125 548.65625 C 480.00093 534.14233 479.44343 519.54539 479.375 504.96875 C 485.44773 507.92929 490.51438 508.63546 493.375 505.84375 C 512.4905 490.10775 536.52185 482.33475 559.71875 474.84375 C 562.93974 473.86924 566.16613 472.9741 569.40625 472.09375 z M 182.78125 569.15625 C 184.02222 571.85538 184.36691 575.22355 182.75 579.46875 C 182.25818 576.36185 182.3101 572.87464 182.78125 569.15625 z M 397.84375 591.65625 C 399.17514 608.07452 400.722 624.46287 402.46875 640.84375 C 398.70632 637.07065 395.03449 635.26771 391.84375 636.5 C 376.85415 642.462 361.8652 648.414 346.875 654.375 C 342.83807 655.94502 338.79244 657.50718 334.75 659.0625 C 333.96783 641.75144 333.20924 624.41382 332.59375 607.09375 C 354.223 601.44533 376.01033 596.44091 397.84375 591.65625 z "
     id="path23145" />
</svg>
