<?xml version="1.0" encoding="UTF-8" standalone="no"?>
<svg
   xmlns:dc="http://purl.org/dc/elements/1.1/"
   xmlns:cc="http://creativecommons.org/ns#"
   xmlns:rdf="http://www.w3.org/1999/02/22-rdf-syntax-ns#"
   xmlns:svg="http://www.w3.org/2000/svg"
   xmlns="http://www.w3.org/2000/svg"
   xmlns:sodipodi="http://sodipodi.sourceforge.net/DTD/sodipodi-0.dtd"
   xmlns:inkscape="http://www.inkscape.org/namespaces/inkscape"
   width="1024"
   height="1024"
   id="U8FD1"
   version="1.1"
   inkscape:version="0.48.0 r9654"
   sodipodi:docname="U+8FD1.svg">
  <metadata
     id="metadata12">
    <rdf:RDF>
      <cc:Work
         rdf:about="">
        <dc:format>image/svg+xml</dc:format>
        <dc:type
           rdf:resource="http://purl.org/dc/dcmitype/StillImage" />
      </cc:Work>
    </rdf:RDF>
  </metadata>
  <defs
     id="defs10" />
  <sodipodi:namedview
     pagecolor="#ffffff"
     bordercolor="#666666"
     borderopacity="1"
     objecttolerance="10"
     gridtolerance="10"
     guidetolerance="10"
     inkscape:pageopacity="0"
     inkscape:pageshadow="2"
     inkscape:window-width="640"
     inkscape:window-height="480"
     id="namedview8"
     showgrid="false"
     inkscape:zoom="0.27441406"
     inkscape:cx="512"
     inkscape:cy="512"
     inkscape:window-x="0"
     inkscape:window-y="25"
     inkscape:window-maximized="0"
     inkscape:current-layer="U8FD1" />
  <path
     style="fill:#2b0000;fill-opacity:1;fill-rule:nonzero;stroke:#f9f9f9;stroke-width:0.1;stroke-miterlimit:4;stroke-dasharray:none"
     d="M 678.03125 199.875 C 677.14501 199.92489 676.3144 200.14344 675.53125 200.5625 C 643.40755 218.6705 612.6415 238.997 582.1875 259.75 C 549.2928 282.245 517.91675 306.81775 487.65625 332.71875 C 475.18155 343.31975 463.20535 354.469 451.96875 366.375 C 438.10345 382.466 435.5965 403.069 444.125 422.375 C 445.0017 427.091 446.47105 444.53625 446.96875 451.65625 C 449.67155 501.83225 448.6967 552.13275 447.6875 602.34375 C 446.3575 656.26275 443.80345 710.133 441.15625 764 C 439.70965 786.05 439.38815 808.19725 436.78125 830.15625 C 435.03555 849.00125 523.84805 857.219 525.59375 838.375 C 527.32165 814.887 527.71725 791.3355 528.78125 767.8125 C 530.87055 713.2735 533.1491 658.7495 534.5625 604.1875 C 534.67881 599.06441 534.79153 593.9364 534.90625 588.8125 C 563.96387 584.04063 592.86606 578.54485 621.96875 574.03125 C 617.86991 610.82058 615.72802 647.79417 613.75 684.75 C 611.0718 739.874 610.00565 795.066 610.40625 850.25 C 610.63937 866.98533 610.68818 869.55962 610.78125 874.71875 C 569.92843 872.78189 529.08741 870.30323 488.4375 865.625 C 429.7105 859.052 371.00865 851.94975 312.03125 847.96875 C 289.34791 846.65565 266.66955 845.72441 243.96875 845 C 247.43802 841.36738 251.00753 837.83752 254.6875 834.40625 C 270.3947 820.24525 287.8604 807.861 301.1875 791.25 C 317.7741 768.202 328.3296 742.9525 325.125 713.9375 C 320.9579 692.1545 312.6924 672.54875 299.6875 654.46875 C 293.43845 644.88317 287.15195 635.21487 281.15625 625.5 C 282.04704 624.14296 283.00982 622.70106 284.1875 621.03125 C 300.8985 588.94325 303.74575 555.0925 277.40625 526.6875 C 255.45445 509.5535 233.63635 501.33625 206.03125 497.90625 C 187.26015 495.17625 174.38515 583.67625 193.15625 586.40625 C 194.01352 585.70282 196.66108 585.98464 199.96875 586.75 C 190.00754 603.63337 188.80928 620.40381 191.96875 641.4375 C 198.43005 664.1505 212.3315 683.40375 225 702.96875 C 227.8592 710.30275 238.68355 719.15725 236.96875 727.90625 C 234.91255 731.44125 232.5058 734.67425 229.8125 737.78125 C 218.5764 748.44825 206.4634 758.1285 195 768.5625 C 176.2899 786.0205 160.0354 805.838 143.4375 825.25 C 134.9006 836.457 121.37305 846.65825 117.84375 861.03125 C 115.99235 868.57025 116.076 876.4745 115.1875 884.1875 C 118.9038 892.7315 121.00425 902.1775 126.34375 909.8125 C 140.47475 930.0195 169.6941 931.613 191.5625 932.625 C 230.1757 932.705 268.7455 933.311 307.3125 935.25 C 364.6665 938.781 421.75165 945.672 478.84375 952 C 539.41515 958.896 600.3311 961.31125 661.1875 964.15625 C 706.6376 966.32225 752.0575 969.04525 797.5625 969.65625 C 822.7438 970.06425 847.8519 967.7725 872.5 962.6875 C 874.2682 962.3065 876.0444 961.9425 877.8125 961.5625 C 896.3068 957.2705 876.0568 870.083 857.5625 874.375 C 856.1439 874.734 854.7311 875.10975 853.3125 875.46875 C 835.2764 879.83275 816.76485 881.4575 798.21875 881.4375 C 765.17894 881.42113 732.15778 880.08231 699.15625 878.625 C 698.66157 866.75273 698.77136 869.60321 698.125 849.09375 C 697.0782 795.94775 697.8607 742.7755 700.6875 689.6875 C 703.15454 648.47824 705.61287 607.08464 712.8125 566.375 C 725.2891 566.33461 737.80168 566.70868 750.28125 567.53125 C 754.52545 568.01225 758.7558 568.48775 763 568.96875 C 781.6797 570.84275 790.52345 482.78025 771.84375 480.90625 C 766.32425 480.40825 760.80075 479.9365 755.28125 479.4375 C 710.53155 477.2245 665.7607 479.072 621.375 485.5 C 592.8895 489.55403 564.58207 494.71153 536.125 498.875 C 536.10669 481.44025 535.89569 463.99107 535.34375 446.5625 C 534.7922 434.89221 534.41208 423.02947 532.75 411.40625 C 536.96455 407.33606 541.29205 403.40003 545.65625 399.5 C 572.92795 375.427 601.4924 352.879 631.5625 332.375 C 659.4658 313.45 687.6302 294.6955 717.6875 279.3125 C 733.61145 270.79156 696.05149 198.86056 678.03125 199.875 z M 239.1875 288.375 C 212.46195 288.12535 174.96385 297.58909 176.65625 309.90625 C 182.38015 345.04325 195.6028 378.02375 210.5625 410.09375 C 213.178 415.38075 215.79075 420.6495 218.40625 425.9375 C 226.75235 442.7065 305.7836 403.36275 297.4375 386.59375 L 290.4375 372.59375 C 279.1462 348.70075 268.63 324.183 265.125 297.75 C 264.23847 291.29816 253.1866 288.50577 239.1875 288.375 z M 520.5 424.28125 C 519.90981 425.01729 519.29164 425.73669 518.625 426.4375 C 519.23432 425.7074 519.87746 424.99928 520.5 424.28125 z M 215.6875 591.8125 C 219.30671 593.24025 221.11193 594.17139 218.03125 593.28125 C 217.16193 592.9448 216.39159 592.43661 215.6875 591.8125 z M 277.4375 631.625 C 275.98541 636.10151 274.73095 636.56869 277.4375 631.625 z "
     id="path9381" />
</svg>
