<?xml version="1.0" encoding="utf-8" ?>

<!DOCTYPE svg PUBLIC "-//W3C//DTD SVG 1.1//EN" 
  "http://www.w3.org/Graphics/SVG/1.1/DTD/svg11.dtd">
<svg 
    xmlns="http://www.w3.org/2000/svg"
    xmlns:xlink="http://www.w3.org/1999/xlink"
    xmlns:sodipodi="http://sodipodi.sourceforge.net/DTD/sodipodi-0.dtd"
    xmlns:inkscape="http://www.inkscape.org/namespaces/inkscape"
    width="1024" height="1024" id="U8FDC">
<path d="m 7557.9494,61698.409 c 39.7599,-1.804 79.3895,-5.739 119.0542,-8.934 52.8538,-4.449 105.8851,-4.851 158.8553,-2.958 30.8328,1.968 61.9932,2.76 92.3545,8.912 18.2612,4.243 -1.7408,90.327 -20.002,86.084 l 0,0 c -24.0165,-7.934 -51.1385,-4.555 -75.8057,-8.343 -49.4109,-2.191 -98.9002,-1.94 -148.2063,2.433 -40.431,3.503 -80.8098,7.566 -121.2445,11.028 -18.7148,1.062 -23.7203,-87.161 -5.0055,-88.222 z" id="path13529" inkscape:connector-curvature="0" style="fill:#2b1100;fill-opacity:1;fill-rule:nonzero;stroke:none" transform="translate(-7168, -61440)"/><path d="m 7479.9283,61917.794 c 38.6693,2.78 77.1892,-4.05 115.1577,-10.509 61.2064,-11.484 122.0061,-24.955 183.2145,-36.435 51.4226,-9.678 103.2899,-16.527 155.5771,-18.645 28.6106,-1.104 49.2354,-0.211 75.6253,11.137 16.4166,9.128 -26.6132,86.516 -43.0299,77.388 l 0,0 c 21.5563,5.329 -25.4959,-5.425 -29.792,-1.468 -47.9548,1.072 -95.4998,7.45 -142.6635,16.043 -61.5874,11.369 -122.7105,24.978 -184.1958,36.868 -45.312,8.009 -91.0851,15.735 -137.2916,13.727 -18.6901,-1.57 -11.2919,-89.675 7.3982,-88.106 z" id="path13531" inkscape:connector-curvature="0" style="fill:#2b1100;fill-opacity:1;fill-rule:nonzero;stroke:none" transform="translate(-7168, -61440)"/><path d="m 7715.5204,61947.123 c -15.0785,28.453 -27.7148,58.144 -41.1458,87.398 -17.8144,38.241 -36.5083,76.06 -55.2838,113.835 -10.4447,21.452 -22.1729,42.304 -31.5023,64.282 -7.6324,17.049 -88.0025,-18.93 -80.3702,-35.979 l 0,0 c 10.592,-22.787 22.6926,-44.813 34.0154,-67.24 18.5017,-36.766 36.7468,-73.667 53.9857,-111.046 14.1194,-31.086 27.5314,-62.506 42.4714,-93.21 8.9012,-16.51 86.7308,25.45 77.8296,41.96 z" id="path13533" inkscape:connector-curvature="0" style="fill:#2b1100;fill-opacity:1;fill-rule:nonzero;stroke:none" transform="translate(-7168, -61440)"/><path d="m 7827.4959,61974.886 c 9.3888,32.479 11.9321,66.112 12.9522,99.726 0.8729,33.211 -3.5513,66.768 2.7243,99.619 3.2464,11.456 9.4239,10.143 19.6118,12.331 27.7221,4.881 55.9229,6.401 84.0191,7.161 21.4557,0.712 42.6825,-1.971 63.5616,-6.657 18.2252,-3.848 36.3639,82.066 18.1387,85.914 l 0,0 c -27.7072,5.594 -55.7742,9.031 -84.1147,8.063 -35.2988,-0.996 -70.8315,-2.754 -105.4737,-10.053 -45.9655,-14.087 -70.476,-34.381 -82.144,-82.575 -5.5039,-36.905 -3.9897,-73.904 -3.4973,-111.117 -0.8126,-25.912 -2.3337,-52.023 -10.4767,-76.857 -5.4211,-17.967 79.2775,-43.523 84.6987,-25.555 z" id="path13535" inkscape:connector-curvature="0" style="fill:#2b1100;fill-opacity:1;fill-rule:nonzero;stroke:none" transform="translate(-7168, -61440)"/><path d="m 7361.3835,61655.712 c 9.824,14.253 18.4332,29.23 26.655,44.443 8.8278,16.386 -68.4155,58.001 -77.2433,41.615 l 0,0 c -6.4842,-12.086 -13.3303,-23.978 -21.6735,-34.906 -10.851,-15.33 61.4109,-66.481 72.2618,-51.152 z" id="path13537" inkscape:connector-curvature="0" style="fill:#2b1100;fill-opacity:1;fill-rule:nonzero;stroke:none" transform="translate(-7168, -61440)"/><path d="m 7295.6209,61842.888 c 26.4732,10.251 48.5548,26.288 66.6842,47.925 21.2404,31.562 16.0011,65.162 2.0372,98.16 -5.5351,15.537 -18.2813,28.75 -21.9138,45 3.3795,-6.112 6.0937,8.452 7.0753,10.939 8.968,21.339 13.4563,43.799 15.1014,66.778 0.746,28.198 -6.2028,55.626 -13.9599,82.492 -6.9517,22.837 -15.4794,45.145 -25.8881,66.623 -6.0637,12.244 -13.7168,23.544 -21.3681,34.819 10.3413,-16.966 4.6698,-34.733 -8.2017,-48.263 18.1792,5.632 36.5783,10.531 54.8934,15.698 39.9123,12.087 81.4062,16.1 122.7684,19.518 62.3469,4.097 124.8323,5.306 187.2646,7.47 62.7916,2.532 125.4638,7.198 188.2473,9.884 53.3268,2.092 106.6927,1.386 160.0025,-0.675 39.5918,-2.074 79.2121,-3.805 118.7284,-7.065 12.3706,-1.038 24.6654,-2.736 36.9487,-4.493 18.4783,-2.491 30.2195,84.617 11.7412,87.108 l 0,0 c -13.963,1.781 -27.9365,3.502 -41.9799,4.539 -40.7175,2.928 -81.5169,4.456 -122.2911,6.373 -55.6239,1.905 -111.2975,2.439 -166.9233,0.1 -62.5181,-2.817 -124.9305,-7.463 -187.4581,-10.094 -63.7032,-2.229 -127.4562,-3.366 -191.0936,-7.171 -46.873,-3.569 -93.8628,-8.005 -139.2332,-21.052 -23.3592,-6.287 -47.1046,-11.63 -69.7307,-20.273 -34.0581,-17.993 -48.5599,-46.606 -26.6786,-81.916 5.3863,-7.708 10.8702,-15.361 15.2812,-23.694 8.5072,-16.606 15.1089,-34.086 20.6344,-51.897 5.0082,-17.163 9.8869,-34.648 10.3449,-52.639 -0.5294,-13.699 -3.8538,-26.922 -9.1673,-39.569 -9.1869,-22.989 -16.5731,-46.21 -9.0576,-71.007 6.5387,-18.554 15.9909,-35.597 25.314,-52.879 0.6312,-1.325 3.3675,-9.589 5.2374,-10.781 1.1741,-0.749 2.145,3.074 3.6512,2.007 -4.0484,-10.677 -19.5277,-14.636 -28.6292,-19.268 -17.5421,-6.707 14.0764,-89.401 31.6185,-82.694 z" id="path13539" inkscape:connector-curvature="0" style="fill:#2b1100;fill-opacity:1;fill-rule:nonzero;stroke:none" transform="translate(-7168, -61440)"/></svg>