<?xml version="1.0" encoding="UTF-8" standalone="no"?>
<svg
   xmlns:dc="http://purl.org/dc/elements/1.1/"
   xmlns:cc="http://creativecommons.org/ns#"
   xmlns:rdf="http://www.w3.org/1999/02/22-rdf-syntax-ns#"
   xmlns:svg="http://www.w3.org/2000/svg"
   xmlns="http://www.w3.org/2000/svg"
   xmlns:sodipodi="http://sodipodi.sourceforge.net/DTD/sodipodi-0.dtd"
   xmlns:inkscape="http://www.inkscape.org/namespaces/inkscape"
   width="1024"
   height="1024"
   id="U8FD8"
   version="1.1"
   inkscape:version="0.48.0 r9654"
   sodipodi:docname="U+8FD8.svg">
  <metadata
     id="metadata13">
    <rdf:RDF>
      <cc:Work
         rdf:about="">
        <dc:format>image/svg+xml</dc:format>
        <dc:type
           rdf:resource="http://purl.org/dc/dcmitype/StillImage" />
      </cc:Work>
    </rdf:RDF>
  </metadata>
  <defs
     id="defs11" />
  <sodipodi:namedview
     pagecolor="#ffffff"
     bordercolor="#666666"
     borderopacity="1"
     objecttolerance="10"
     gridtolerance="10"
     guidetolerance="10"
     inkscape:pageopacity="0"
     inkscape:pageshadow="2"
     inkscape:window-width="640"
     inkscape:window-height="480"
     id="namedview9"
     showgrid="false"
     inkscape:zoom="0.27441406"
     inkscape:cx="512"
     inkscape:cy="512"
     inkscape:window-x="0"
     inkscape:window-y="25"
     inkscape:window-maximized="0"
     inkscape:current-layer="U8FD8" />
  <path
     style="fill:#550000;fill-opacity:1;fill-rule:nonzero;stroke:#f9f9f9;stroke-width:0.1;stroke-miterlimit:4;stroke-dasharray:none"
     d="M 763.96875 316.40625 C 737.97053 316.35369 711.95599 317.97787 686.03125 319.8125 C 634.26343 323.8745 582.61167 329.05775 531.09375 335.59375 C 492.36734 340.24875 453.61376 344.8075 415.03125 350.5625 C 396.74448 353.8235 412.11948 440.04125 430.40625 436.78125 C 463.66847 430.45416 497.28913 426.22801 530.875 422 C 525.00436 433.20113 519.05173 444.32697 513.15625 455.5 C 485.93558 505.895 460.07198 556.99975 435.46875 608.71875 C 421.99707 637.42475 409.28552 666.48275 396.15625 695.34375 C 388.9936 712.48975 469.83735 746.23975 477 729.09375 C 487.68776 700.61175 500.64851 673.0495 512.8125 645.1875 C 523.68382 621.91815 534.90977 598.83206 546.46875 575.90625 C 548.33494 592.07728 550.13827 608.24266 551.8125 624.4375 C 556.83207 671.1315 561.08426 717.9195 565.34375 764.6875 C 566.40191 780.04724 568.03633 795.28327 570.90625 810.34375 C 516.3565 819.64434 461.93713 829.83443 407.125 837.5 C 366.76354 842.51144 326.24013 847.14635 285.5625 848.03125 C 301.00356 832.92485 312.58717 814.83417 316.59375 791.40625 C 316.44407 784.27325 317.24723 777.05 316.15625 770 C 311.77103 741.66112 290.48154 721.73669 266.15625 709.40625 C 275.98395 698.82694 285.0811 687.62294 292.53125 675.09375 C 313.91032 633.34875 314.6216 598.94425 272.34375 570.28125 C 250.26966 559.44425 226.84874 553.01875 202.96875 547.34375 C 184.94034 542.79575 163.50285 627.79575 181.53125 632.34375 C 191.05536 635.37452 201.76483 636.68519 211.875 639.25 C 201.17949 653.42474 187.67794 665.22133 174.6875 677.25 C 148.81759 700.668 136.57957 723.9135 160.28125 758.5625 C 164.75345 765.1005 173.50396 767.24575 180.125 771.59375 C 195.27962 776.16987 210.42943 780.32359 225 786.46875 C 224.63234 786.96328 224.26109 787.43925 223.875 787.78125 C 217.3351 793.57325 210.16909 798.01625 202.71875 802.53125 C 185.96938 811.95825 167.73123 818.126 150.0625 825.5 C 113.10105 842.437 103.937 882.49625 135.8125 911.65625 C 139.37884 914.91925 144.08331 916.6855 148.21875 919.1875 C 179.75699 932.0255 214.46606 932.6475 248.03125 933.9375 C 304.90956 935.5325 361.51419 929.10475 417.8125 921.84375 C 482.74104 912.53375 547.16651 900.01975 611.9375 889.71875 C 660.22083 881.86775 708.93266 877.78875 757.8125 876.96875 C 791.18864 876.94275 824.53522 878.2855 857.84375 880.3125 C 873.00951 881.5105 865.82577 880.815 879.375 882.375 C 897.75516 884.284 906.75516 797.62775 888.375 795.71875 C 871.56658 794.12075 880.1648 794.8275 862.65625 793.6875 C 827.11604 791.9025 791.52984 790.55225 755.9375 790.90625 C 722.83371 791.77337 689.78701 793.96538 656.90625 797.625 C 652.28968 784.7003 653.84242 769.63723 651.09375 756.4375 C 646.35003 709.5915 641.95381 662.719 637.1875 615.875 C 633.5957 579.141 629.24926 542.4675 626.1875 505.6875 C 625.58815 497.53608 608.32133 494.20847 589.3125 494.625 C 604.41584 466.64606 619.79653 438.79472 633.8125 410.25 C 653.34379 408.41653 672.89858 406.80629 692.46875 405.40625 C 720.67046 404.04225 749.09175 401.695 777.3125 404 C 795.82695 404.985 800.4832 317.735 781.96875 316.75 C 775.96971 316.54206 769.96834 316.41838 763.96875 316.40625 z M 249.25 377.21875 C 229.28499 376.81143 176.55987 422.20002 187.03125 435.03125 C 198.93729 448.81225 211.23532 462.206 223.125 476 C 235.20448 489.977 301.11073 433.0395 289.03125 419.0625 C 277.64818 405.9245 265.82068 393.15775 254.9375 379.59375 C 253.65154 378.01798 251.70184 377.26877 249.25 377.21875 z M 714.1875 506.71875 C 693.46576 506.3568 639.73332 546.50288 649.0625 559.8125 C 669.10237 586.6565 695.0186 608.07075 721.3125 628.46875 C 737.7601 640.92575 755.07797 652.19725 771.96875 664.03125 C 787.09005 674.54725 836.65255 603.23575 821.53125 592.71875 C 805.75996 581.82275 789.65398 571.463 774.28125 560 C 754.87526 545.061 735.19464 529.6165 720.78125 509.5625 C 719.44851 507.66112 717.14775 506.77046 714.1875 506.71875 z M 226.3125 644.375 C 228.14295 645.29508 229.92582 646.33159 231.625 647.5 C 229.41974 646.69992 227.73195 645.67813 226.3125 644.375 z M 231.90625 790.125 C 238.56973 794.66171 235.23952 794.69904 231.90625 790.125 z "
     id="path24363" />
</svg>
