<?xml version="1.0" encoding="utf-8" ?>

<!DOCTYPE svg PUBLIC "-//W3C//DTD SVG 1.1//EN" 
  "http://www.w3.org/Graphics/SVG/1.1/DTD/svg11.dtd">
<svg 
    xmlns="http://www.w3.org/2000/svg"
    xmlns:xlink="http://www.w3.org/1999/xlink"
    xmlns:sodipodi="http://sodipodi.sourceforge.net/DTD/sodipodi-0.dtd"
    xmlns:inkscape="http://www.inkscape.org/namespaces/inkscape"
    width="1024" height="1024" id="U8FDF">
<path d="m 8626.4553,5340.3198 c 37.5374,-5.8081 75.1137,-11.3611 112.6735,-17.0222 37.4359,-5.4639 75.0085,-10.6019 112.8801,-11.2042 42.5137,1.4061 62.9546,17.6965 77.8336,57.1375 7.7834,30.8039 7.4642,62.8179 6.512,94.351 -0.2537,15.4349 -2.7736,30.5897 -5.5497,45.7182 -3.4958,18.116 -88.8951,1.6369 -85.3993,-16.479 l 0,0 c 2.2049,-10.5752 4.0112,-21.1923 4.2038,-32.0387 0.7433,-21.3716 1.027,-42.9358 -2.6066,-64.091 0.1056,-0.4446 -0.1151,-1.4827 0.3169,-1.3337 1.3185,0.4548 2.099,1.861 3.2945,2.5795 5.3143,3.1937 14.2962,3.0418 1.6669,1.1697 -33.6107,-0.5181 -67.0088,4.5422 -100.2228,9.0985 -36.6949,5.6449 -73.453,11.0646 -109.8912,18.2145 -18.2646,3.333 -33.9763,-82.7672 -15.7117,-86.1001 z" id="path20977" inkscape:connector-curvature="0" style="fill:#800000;fill-opacity:1;fill-rule:nonzero;stroke:#f9f9f9;stroke-width:0.1;stroke-miterlimit:4;stroke-dasharray:none" transform="translate(-8192, -5120)"/><path d="m 8651.5444,5515.3406 c 43.6259,-8.1164 87.9532,-11.2248 132.1793,-13.9181 42.3559,-2.1427 84.7618,-4.0787 127.1813,-3.5031 13.4693,0.4781 6.8763,-0.034 19.7835,1.4778 18.3585,3.0654 3.908,89.6084 -14.4505,86.543 l 0,0 c -0.02,-0.1612 -0.04,-0.3224 -0.06,-0.4837 -2.5733,-0.2231 -5.1466,-0.4463 -7.72,-0.6695 -39.7975,-1.8201 -79.6597,0.1463 -119.4167,2.0828 -39.7012,2.5271 -79.6715,5.1195 -118.5864,13.8553 -18.1128,4.0116 -37.0235,-81.373 -18.9107,-85.3845 z" id="path20979" inkscape:connector-curvature="0" style="fill:#800000;fill-opacity:1;fill-rule:nonzero;stroke:#f9f9f9;stroke-width:0.1;stroke-miterlimit:4;stroke-dasharray:none" transform="translate(-8192, -5120)"/><path d="m 8705.0376,5392.9811 c -9.38,46.3416 -15.468,93.3147 -23.0828,139.9788 -12.6268,78.5881 -31.3222,155.9518 -52.4436,232.6318 -15.4278,54.6827 -33.1823,108.662 -49.8387,162.9722 2.9009,5.7853 -6.3493,13.0642 -4.4421,19.4276 0.5266,1.7569 2.0209,-3.5982 1.3959,-5.3226 -3.7393,-10.3166 -9.404,-19.8299 -14.106,-29.7448 14.9135,11.1636 -37.7125,81.4664 -52.6259,70.3027 l 0,0 c -6.8871,-11.5506 -15.854,-22.0925 -20.6613,-34.6519 -5.2479,-13.7106 5.6365,-33.2712 8.1811,-46.2784 17.5444,-52.8865 35.5033,-105.6564 50.8364,-159.2436 20.5412,-73.528 38.558,-147.7866 50.0273,-223.3371 7.5035,-48.9644 13.4093,-98.1634 21.5693,-147.0181 4.3028,-18.0717 89.4932,2.2118 85.1904,20.2834 z" id="path20981" inkscape:connector-curvature="0" style="fill:#800000;fill-opacity:1;fill-rule:nonzero;stroke:#f9f9f9;stroke-width:0.1;stroke-miterlimit:4;stroke-dasharray:none" transform="translate(-8192, -5120)"/><path d="m 8844.952,5683.5685 c 18.8527,22.0322 43.4327,38.2722 66.661,55.2868 15.7706,11.1933 30.8894,23.2366 45.9158,35.3949 14.2074,11.5963 -40.4583,78.5708 -54.6657,66.9745 l 0,0 c -13.7283,-11.3174 -27.5828,-22.4784 -42.1298,-32.7439 -30.097,-21.9432 -61.2876,-43.2961 -85.5028,-71.9756 -11.2295,-14.7901 58.492,-67.7268 69.7215,-52.9367 z" id="path20983" inkscape:connector-curvature="0" style="fill:#800000;fill-opacity:1;fill-rule:nonzero;stroke:#f9f9f9;stroke-width:0.1;stroke-miterlimit:4;stroke-dasharray:none" transform="translate(-8192, -5120)"/><path d="m 8430.5579,5384.6885 c 5.4411,34.2023 20.2564,65.9193 35.0003,96.932 13.0927,26.1673 6.5614,13.1697 19.5926,38.9935 8.1737,16.3161 -68.7411,54.8476 -76.9148,38.5315 l 0,0 c -13.2085,-26.5578 -6.4639,-12.9832 -20.2323,-40.7246 -18.6403,-39.3493 -36.5924,-79.5578 -44.2931,-122.7145 -2.3373,-18.4231 84.5101,-29.441 86.8473,-11.0179 z" id="path20989" inkscape:connector-curvature="0" style="fill:#800000;fill-opacity:1;fill-rule:nonzero;stroke:#f9f9f9;stroke-width:0.1;stroke-miterlimit:4;stroke-dasharray:none" transform="translate(-8192, -5120)"/><path d="m 8359.3649,5604.0419 c 24.7321,10.2213 49.0131,25.5054 59.314,51.6431 2.667,6.7675 3.3295,14.162 4.9943,21.2429 1.3305,36.1436 -18.4413,63.8772 -40.1676,90.5283 -5.2975,7.0172 -12.0369,13.0043 -16.88,20.3864 -0.2997,0.4569 -0.9042,1.9392 -0.5137,1.5568 3.0503,-2.9875 3.223,-6.1524 4.4661,-10.2607 -1.0404,-12.5638 7.4231,3.4237 9.1884,5.6548 29.1208,36.8032 -17.8683,-22.873 14.1436,17.8224 25.9345,35.2907 29.846,57.2478 14.216,98.7122 -13.7956,26.333 -34.1903,48.2387 -53.7875,70.3002 7.5373,-15.3862 -7.7285,10.5885 -5.8742,7.8857 13.0237,-18.9826 5.9753,-40.697 -11.1516,-54.1142 36.0414,7.8674 72.3889,14.2134 108.7949,20.12 72.9539,11.3631 146.7639,15.0793 220.459,17.6067 87.0634,2.5109 174.1378,-0.5761 261.0897,-4.8414 59.5927,-2.7248 118.9546,-8.6954 178.4195,-13.1913 18.2466,-1.1893 23.8527,84.8258 5.6061,86.015 l 0,0 c -60.0636,3.2546 -120.0023,8.6562 -180.1169,11.0865 -89.1737,3.9375 -178.4467,6.9437 -267.7165,4.7593 -77.1547,-2.3621 -154.4034,-6.0162 -230.8789,-17.1251 -41.1323,-6.1584 -82.3435,-12.4194 -122.9767,-21.3429 -5.825,-2.383 -12.5847,-3.1875 -17.4751,-7.1492 -35.8762,-29.0633 -29.9438,-58.7291 -2.9073,-88.0662 13.5311,-14.7702 27.1782,-29.5906 38.4008,-46.241 3.665,-3.1446 0.8719,1.9557 4.0654,2.5594 3.3192,0.6275 -9.1927,-15.8761 -6.6326,-13.201 -18.5678,-23.6817 -39.6037,-46.0041 -42.4466,-77.5316 0.7065,-6.568 0.5889,-13.2778 2.1196,-19.7038 4.5054,-18.9139 18.9929,-32.7914 31.1106,-46.9997 6.5708,-7.9061 12.1396,-16.407 18.418,-24.4613 0.3213,-0.4122 0.8382,-1.1551 1.2896,-0.8917 0.7755,0.4525 0.841,1.5867 1.2615,2.3801 9.1828,13.9977 6.1064,0.4241 -7.7168,-2.7731 -17.4724,-6.3396 12.4125,-88.7051 29.8849,-82.3656 z" id="path20993" inkscape:connector-curvature="0" style="fill:#800000;fill-opacity:1;fill-rule:nonzero;stroke:#f9f9f9;stroke-width:0.1;stroke-miterlimit:4;stroke-dasharray:none" transform="translate(-8192, -5120)"/></svg>