<?xml version="1.0" encoding="UTF-8" standalone="no"?>
<svg
   xmlns:dc="http://purl.org/dc/elements/1.1/"
   xmlns:cc="http://creativecommons.org/ns#"
   xmlns:rdf="http://www.w3.org/1999/02/22-rdf-syntax-ns#"
   xmlns:svg="http://www.w3.org/2000/svg"
   xmlns="http://www.w3.org/2000/svg"
   xmlns:sodipodi="http://sodipodi.sourceforge.net/DTD/sodipodi-0.dtd"
   xmlns:inkscape="http://www.inkscape.org/namespaces/inkscape"
   width="1024"
   height="1024"
   id="U90AE"
   version="1.1"
   inkscape:version="0.48.0 r9654"
   sodipodi:docname="U+90AE.svg">
  <metadata
     id="metadata14">
    <rdf:RDF>
      <cc:Work
         rdf:about="">
        <dc:format>image/svg+xml</dc:format>
        <dc:type
           rdf:resource="http://purl.org/dc/dcmitype/StillImage" />
      </cc:Work>
    </rdf:RDF>
  </metadata>
  <defs
     id="defs12" />
  <sodipodi:namedview
     pagecolor="#ffffff"
     bordercolor="#666666"
     borderopacity="1"
     objecttolerance="10"
     gridtolerance="10"
     guidetolerance="10"
     inkscape:pageopacity="0"
     inkscape:pageshadow="2"
     inkscape:window-width="640"
     inkscape:window-height="480"
     id="namedview10"
     showgrid="false"
     inkscape:zoom="0.27441406"
     inkscape:cx="512"
     inkscape:cy="512"
     inkscape:window-x="0"
     inkscape:window-y="25"
     inkscape:window-maximized="0"
     inkscape:current-layer="U90AE" />
  <path
     style="fill:#2b1100;fill-opacity:1;fill-rule:nonzero;stroke:none"
     d="M 271.375 222.78125 C 248.00245 223.08736 223.29236 228.71178 223.6875 238.65625 C 227.7023 286.50625 229.70075 334.47075 230.65625 382.46875 C 230.774 393.48884 230.80883 404.51128 230.84375 415.53125 C 215.52393 417.39849 200.28797 420.11317 185.21875 423.96875 C 165.57577 429.50529 146.10199 435.7352 127.40625 443.75 C 101.39949 438.4878 61.383998 441.19018 60.9375 453.78125 C 61.2295 500.34125 63.7148 546.87375 66.4375 593.34375 C 69.2632 650.69275 75.8683 707.661 90.375 763.25 C 96.84 786.347 106.2425 808.296 117.3125 829.5 C 120.5998 835.53266 133.1532 833.64914 147.25 828.03125 C 151.31807 854.31289 168.69616 892.20112 180.84375 888 C 212.77085 878.982 245.5627 873.2465 278.0625 866.6875 C 321.9381 857.3535 365.9316 848.6985 410.375 842.5625 C 422.25549 841.00412 434.18639 839.84449 446.125 838.875 C 463.0182 847.94067 480.05428 852.83352 484.3125 845.78125 C 495.2209 826.38725 503.4884 806.0535 509.0625 784.4375 C 520.6511 742.3395 529.981 699.65575 534.9375 656.21875 C 539.4856 612.98875 542.37795 568.98175 529.15625 526.84375 C 514.78315 489.25375 493.3221 457.875 456.0625 439.75 C 416.2179 422.259 374.02945 413.742 330.46875 412.5 C 325.7434 412.35015 321.01162 412.25255 316.28125 412.15625 C 316.30452 401.8259 316.30894 391.4869 316.28125 381.15625 C 315.76245 332.45125 314.0341 283.81625 311.9375 235.15625 C 311.58884 226.38172 291.99784 222.51115 271.375 222.78125 z M 702.71875 275.0625 C 670.97195 275.4105 639.1072 276.86775 607.8125 282.59375 C 604.7269 283.33854 602.77397 286.41931 601.71875 291 C 577.219 286.69699 547.77357 288.04745 546.59375 298.75 C 543.21865 342.975 545.13125 387.35075 546.96875 431.59375 C 551.06395 507.91975 555.70545 584.2055 559.21875 660.5625 C 562.62745 728.9475 563.13635 797.429 562.09375 865.875 C 561.16965 902.79 560.15245 939.708 561.34375 976.625 C 562.22835 989.805 561.5622 983.3615 563.25 995.9375 C 566.2554 1014.4675 653.6304 1000.3112 650.625 981.78125 C 649.3968 977.16825 650.03995 980.13975 649.21875 972.71875 C 647.16295 937.41775 647.8295 902.06075 648.25 866.71875 C 648.41984 829.14295 648.18066 791.5646 647.40625 754 C 657.48174 755.88828 667.70099 757.06808 678.125 757.25 C 713.2539 757.307 748.15945 753.361 779.09375 735.25 C 814.21925 709.446 826.90995 684.18825 828.09375 640.53125 C 826.19155 603.51125 817.55715 568.0815 797.65625 536.3125 C 783.79391 514.18681 768.3283 493.22026 750.65625 473.96875 C 755.632 467.84032 760.66682 461.85211 761.21875 462.15625 C 777.59405 442.77525 794.1828 423.5655 811.6875 405.1875 C 824.732 391.4035 847.10185 374.09925 850.71875 354.40625 C 852.46795 344.88925 850.71875 335.051 850.71875 325.375 C 845.32515 317.483 840.97945 308.7445 834.53125 301.6875 C 823.48725 289.6025 802.48795 288.7335 787.96875 284.3125 C 759.86545 278.9175 731.38165 275.2395 702.71875 275.0625 z M 703.5 362.5 C 712.42391 362.64679 721.32634 363.25549 730.1875 364.1875 C 718.10987 377.67718 706.21574 391.33258 694.375 405.03125 C 680.394 419.16125 668.13575 433.5265 659.59375 451.5625 C 649.28095 481.8185 662.7052 506.608 681.75 529.25 C 697.3717 545.665 711.354 563.352 723.25 582.625 C 734.7264 601.268 740.40875 621.849 740.46875 643.625 C 739.82255 652.977 738.8835 659.6605 729.9375 662.3125 C 713.6448 668.9595 696.1803 669.96025 678.8125 669.65625 C 666.94521 669.30517 655.54264 666.91259 644.375 663.46875 C 644.26634 661.19898 644.17639 658.92586 644.0625 656.65625 C 640.5401 580.60425 636.06175 504.59725 632.84375 428.53125 C 632.24744 408.39886 631.54897 388.20545 631.5625 368.03125 C 655.2505 363.5683 679.44877 362.65262 703.5 362.5 z M 783.09375 373.96875 C 784.00888 374.33573 784.82834 374.6536 785.59375 374.96875 C 784.73979 374.66093 783.88527 374.36611 783.09375 373.96875 z M 315.6875 498.84375 C 319.64441 498.94357 323.61098 499.07714 327.5625 499.21875 C 359.3013 500.80575 390.97945 505.318 419.71875 519.375 C 434.90315 527.643 441.63885 541.288 446.90625 557 C 454.57275 586.522 451.68395 617.199 448.53125 647.125 C 444.44377 682.97451 436.90046 718.2 427.34375 752.9375 C 417.59095 753.96082 407.84125 755.09363 398.125 756.4375 C 371.35654 760.34673 344.74151 765.0572 318.1875 770.15625 C 316.78123 734.23305 315.67061 698.28906 315.09375 662.34375 C 336.19951 660.22634 357.44629 660.10486 378.625 662.375 C 397.1125 664.078 405.14385 576.92275 386.65625 575.21875 C 362.71328 573.25958 338.7502 573.20214 314.90625 575.09375 C 315.13979 549.67685 315.43545 524.26052 315.6875 498.84375 z M 230.5 503.3125 C 230.23908 532.36858 229.9416 561.41334 229.65625 590.46875 C 203.36979 597.63101 177.7726 606.95941 154.4375 621.46875 C 153.57707 610.51194 152.89928 599.51398 152.34375 588.53125 C 151.31253 569.08917 150.31138 549.63183 149.625 530.15625 C 168.0876 519.87775 188.48018 513.45599 208.8125 507.75 C 216.00712 505.96556 223.23025 504.50601 230.5 503.3125 z M 157.40625 652.46875 C 169.47743 675.68159 192.84948 702.24094 202.625 695.59375 C 211.26202 689.88596 220.44306 685.39491 229.96875 681.6875 C 230.50173 716.83128 231.4015 751.96189 232.4375 787.09375 C 219.67329 789.50634 206.90545 791.93148 194.1875 794.5625 C 195.45168 791.88549 195.6751 789.44791 194.5625 787.40625 C 185.9485 772.65125 179.22125 756.99425 174.15625 740.65625 C 166.02727 711.72259 160.83214 682.22017 157.40625 652.46875 z "
     id="path13234" />
</svg>
