<?xml version="1.0" encoding="utf-8" ?>

<!DOCTYPE svg PUBLIC "-//W3C//DTD SVG 1.1//EN" 
  "http://www.w3.org/Graphics/SVG/1.1/DTD/svg11.dtd">
<svg 
    xmlns="http://www.w3.org/2000/svg"
    xmlns:xlink="http://www.w3.org/1999/xlink"
    xmlns:sodipodi="http://sodipodi.sourceforge.net/DTD/sodipodi-0.dtd"
    xmlns:inkscape="http://www.inkscape.org/namespaces/inkscape"
    width="1024" height="1024" id="U901A">
<path d="m 7362.5562,49439.828 c 7.4014,25.434 16.7998,50.212 26.0939,74.996 6.5241,17.384 -75.4243,48.139 -81.9484,30.755 l 0,0 c -9.8569,-26.244 -19.5828,-52.531 -28.5172,-79.107 -5.652,-17.898 78.7197,-44.542 84.3717,-26.644 z" id="path12270" inkscape:connector-curvature="0" style="fill:#782121;fill-opacity:1;fill-rule:nonzero;stroke:#f9f9f9;stroke-width:0.1;stroke-miterlimit:4;stroke-dasharray:none" transform="translate(-7168, -49152)"/><path d="m 7250.2672,49651.042 c 30.0585,-1.538 60.1294,-2.191 90.2183,-1.48 23.5043,2.301 52.188,0.986 72.3455,15.884 6.0685,4.485 10.8701,10.47 16.3052,15.705 3.1351,8.526 7.9952,16.604 9.4055,25.578 4.3015,27.373 -15.882,55.281 -28.7007,77.597 -13.4813,23.471 -27.5716,46.595 -40.6625,70.288 -1.1354,4.883 -8.0033,11.215 -7.2632,16.932 0.051,0.39 0.731,-0.44 0.857,-0.813 1.2654,-3.747 0.7904,-4.935 0.5427,-8.86 -2.2176,-7.479 12.1789,3.694 14.4992,4.91 20.3111,9.185 37.2959,22.15 51.7449,38.983 20.6606,30.491 13.9391,62.455 -1.617,93.117 -13.2454,23.632 -31.1523,43.859 -50.7995,62.297 -20.0817,18.581 -44.1665,30.104 -70.3166,37.158 -13.7706,3.387 -27.987,3.365 -41.9645,5.248 -51.4501,10.067 52.7783,-60.701 1.8552,-84.511 23.5629,3.394 47.2008,6.268 70.8246,9.207 53.4192,6.59 106.5964,14.914 159.7335,23.442 63.3341,11.731 127.2132,17.033 191.5467,16.895 71.0142,-2.384 141.8831,-8.013 212.7378,-13.187 61.1578,-3.471 121.9455,-9.808 181.8568,-22.661 30.1735,-7.232 59.7632,-16.614 89.2684,-26.15 17.5774,-5.565 43.8104,77.296 26.233,82.861 l 0,0 c -32.3374,10.036 -64.7489,19.949 -97.7656,27.551 -63.8038,13.202 -128.4091,20.267 -193.4764,23.676 -72.8346,5.129 -145.6713,10.836 -218.6535,13.326 -68.8902,0.174 -137.3662,-5.012 -205.2242,-17.426 -51.9953,-8.165 -104.0464,-16.061 -156.378,-21.785 -26.6214,-2.917 -53.3061,-5.469 -79.8203,-9.236 -3.819,-1 -11.412,0.948 -11.457,-3 -1.0477,-91.814 -16.8099,-86.16 18.1257,-87.023 10.2935,-1.139 20.634,-1.566 30.9154,-2.774 12.0685,-2.529 22.8467,-7.751 32.1042,-16.045 12.527,-11.454 23.9355,-24.07 32.6175,-38.751 7.2376,-12.701 2.6623,-4.084 10.229,2.46 -4.1218,-6.98 -16.007,-11.352 -23.6856,-15.741 -23.3774,-12.504 -45.0432,-27.069 -56.1423,-52.281 -9.3563,-33.199 -4.5241,-51.537 12.1727,-80.774 13.448,-23.732 27.7282,-46.98 41.2033,-70.698 5.7133,-10.133 6.7856,-11.863 11.9974,-21.72 1.1549,-2.184 2.1321,-4.465 3.3829,-6.595 0.2296,-0.391 0.9039,-1.341 1.0182,-0.903 5.65,21.683 -8.1,-8.617 8.6747,23.131 3.9736,2.884 13.8073,12.238 12.7044,7.454 -0.5728,-2.485 -30.3004,-5.547 -33.3056,-5.302 -27.3534,-0.826 -54.7401,-0.244 -82.0019,2.294 -18.7268,1.249 -24.612,-87.03 -5.8853,-88.278 z" id="path12274" inkscape:connector-curvature="0" style="fill:#782121;fill-opacity:1;fill-rule:nonzero;stroke:#f9f9f9;stroke-width:0.1;stroke-miterlimit:4;stroke-dasharray:none" transform="translate(-7168, -49152)"/><path d="m 7601.7672,49350.68 c 29.9492,-18.045 64.0821,-24.459 98.2802,-28.538 32.8047,-3.075 65.7923,-3.828 98.7038,-2.532 29.1317,1.457 48.7015,4.576 73.3407,20.812 29.8345,32.92 19.5071,62.281 -4.3575,93.331 -18.5108,21.171 -38.89,40.612 -58.5771,60.675 -15.6973,15.644 -29.6344,32.864 -43.833,49.837 -12.0978,14.269 -79.3643,-42.761 -67.2665,-57.03 l 0,0 c 15.816,-18.396 31.3625,-37.045 48.5777,-54.179 17.3345,-17.653 35.0946,-34.936 51.5205,-53.448 3.4876,-4.353 4.6277,-5.816 4.6913,-5.704 0.4962,0.875 -0.4304,1.977 -0.4617,2.983 -0.1021,3.277 -0.6522,6.635 0.062,9.834 3.055,13.676 4.8992,13.246 13.8036,22.5 19.5198,9.379 -12.802,-4.884 -21.4699,-1.967 -28.1872,-1.488 -56.4659,-0.791 -84.5817,1.718 -20.7469,2.359 -42.1216,5.031 -60.3723,15.984 -15.7562,10.195 -63.8168,-64.081 -48.0606,-74.276 z" id="path12276" inkscape:connector-curvature="0" style="fill:#782121;fill-opacity:1;fill-rule:nonzero;stroke:#f9f9f9;stroke-width:0.1;stroke-miterlimit:4;stroke-dasharray:none" transform="translate(-7168, -49152)"/><path d="m 7643.5569,49480.999 c 28.4634,12.647 57.2681,24.497 86.0551,36.381 24.1891,9.689 48.0857,20.077 71.9066,30.63 16.895,7.537 -18.6343,87.181 -35.5293,79.644 l 0,0 c -22.9564,-10.315 -46.0089,-20.423 -69.4113,-29.694 -28.6091,-11.646 -57.1843,-23.385 -85.8939,-34.779 -17.4334,-6.973 15.4394,-89.155 32.8728,-82.182 z" id="path12280" inkscape:connector-curvature="0" style="fill:#782121;fill-opacity:1;fill-rule:nonzero;stroke:#f9f9f9;stroke-width:0.1;stroke-miterlimit:4;stroke-dasharray:none" transform="translate(-7168, -49152)"/><path d="m 7614.4123,49658.191 c -3.283,45.735 -0.9584,91.663 1.6257,137.371 2.8898,51.782 9.5174,103.214 19.4613,154.089 4.9087,11.92 8.136,52.988 16.5702,62.069 7.6496,17.152 -73.2056,53.213 -80.8552,36.061 l 0,0 c -10.586,-26.28 -15.1613,-54.447 -21.0558,-82.039 -9.9563,-54.614 -16.723,-109.727 -19.9328,-165.17 -2.9672,-49.322 -5.4274,-98.752 -3.9287,-148.178 1.2298,-18.692 89.3451,-12.895 88.1153,5.797 z" id="path12282" inkscape:connector-curvature="0" style="fill:#782121;fill-opacity:1;fill-rule:nonzero;stroke:#f9f9f9;stroke-width:0.1;stroke-miterlimit:4;stroke-dasharray:none" transform="translate(-7168, -49152)"/><path d="m 7556.7529,49678.72 c 25.1329,-30.494 60.1792,-48.071 96.0343,-62.711 44.9578,-16.777 92.5383,-22.702 140.126,-25.546 41.2865,-2.381 82.3385,1.129 122.542,10.525 35.1692,8.776 58.674,25.645 79.2664,55.08 20.602,36.842 19.9413,78.459 17.2466,119.289 -5.1934,47.212 -12.9504,94.078 -18.603,141.239 -3.3905,29.153 -5.9188,58.394 -8.0601,87.663 -1.5394,18.542 -88.9482,11.285 -87.4088,-7.258 l 0,0 c 2.8083,-30.327 5.7567,-60.643 9.3921,-90.885 5.6258,-45.53 12.9533,-90.831 17.8586,-136.444 1.4089,-21.746 3.097,-44.309 -4.0043,-65.325 -5.1196,-10.869 -15.1408,-15.052 -26.4393,-18.27 -31.6334,-8.18 -64.1621,-10.572 -96.7973,-8.925 -38.1162,2.097 -76.297,6.45 -112.407,19.594 -20.9346,8.39 -42.6894,17.582 -57.8946,34.934 -11.2345,15.03 -82.086,-37.93 -70.8516,-52.96 z" id="path12284" inkscape:connector-curvature="0" style="fill:#782121;fill-opacity:1;fill-rule:nonzero;stroke:#f9f9f9;stroke-width:0.1;stroke-miterlimit:4;stroke-dasharray:none" transform="translate(-7168, -49152)"/><path d="m 7651.0025,49750.042 c 39.5243,-14.617 81.2972,-21.41 122.833,-27.389 34.5715,-4.922 69.3707,-7.356 104.2699,-6.647 18.56,0.587 15.7924,88.08 -2.7676,87.493 l 0,0 c -29.818,-1.403 -59.5818,0.95 -89.1421,4.985 -33.8527,4.877 -68.1505,10.086 -100.1394,22.701 -17.213,7.436 -52.2668,-73.707 -35.0538,-81.143 z" id="path12286" inkscape:connector-curvature="0" style="fill:#782121;fill-opacity:1;fill-rule:nonzero;stroke:#f9f9f9;stroke-width:0.1;stroke-miterlimit:4;stroke-dasharray:none" transform="translate(-7168, -49152)"/><path d="m 7699.623,49843.579 c 31.6513,4.788 63.8536,3.861 95.7336,2.603 29.9815,-1.31 59.7221,-5.479 89.2921,-10.398 18.3167,-2.92 32.0815,83.426 13.7648,86.346 l 0,0 c -33.0146,5.057 -66.1793,9.405 -99.5758,10.901 -38.3262,1.557 -76.8843,2.382 -115.0285,-2.476 -18.4503,-3.355 -2.6366,-90.33 15.8138,-86.976 z" id="path12288" inkscape:connector-curvature="0" style="fill:#782121;fill-opacity:1;fill-rule:nonzero;stroke:#f9f9f9;stroke-width:0.1;stroke-miterlimit:4;stroke-dasharray:none" transform="translate(-7168, -49152)"/><path d="m 7828.8058,49643.831 c -8.7619,40.932 -10.3625,82.952 -12.2639,124.634 -2.9119,66.554 -2.2475,133.174 1.223,199.683 1.1698,24.712 4.5842,49.162 8.5915,73.536 2.8017,18.182 -82.9068,31.389 -85.7084,13.208 l 0,0 c -3.9841,-27.407 -7.4747,-54.872 -8.5749,-82.583 -3.1181,-69.072 -3.7899,-138.228 -1.3732,-207.343 1.6794,-46.461 3.459,-93.092 11.5221,-138.98 3.7856,-18.367 90.3694,-0.522 86.5838,17.845 z" id="path12290" inkscape:connector-curvature="0" style="fill:#782121;fill-opacity:1;fill-rule:nonzero;stroke:#f9f9f9;stroke-width:0.1;stroke-miterlimit:4;stroke-dasharray:none" transform="translate(-7168, -49152)"/></svg>