<?xml version="1.0" encoding="UTF-8" standalone="no"?>
<svg
   xmlns:dc="http://purl.org/dc/elements/1.1/"
   xmlns:cc="http://creativecommons.org/ns#"
   xmlns:rdf="http://www.w3.org/1999/02/22-rdf-syntax-ns#"
   xmlns:svg="http://www.w3.org/2000/svg"
   xmlns="http://www.w3.org/2000/svg"
   xmlns:sodipodi="http://sodipodi.sourceforge.net/DTD/sodipodi-0.dtd"
   xmlns:inkscape="http://www.inkscape.org/namespaces/inkscape"
   width="1024"
   height="1024"
   id="U90FD"
   version="1.1"
   inkscape:version="0.48.0 r9654"
   sodipodi:docname="U+90FD.svg">
  <metadata
     id="metadata17">
    <rdf:RDF>
      <cc:Work
         rdf:about="">
        <dc:format>image/svg+xml</dc:format>
        <dc:type
           rdf:resource="http://purl.org/dc/dcmitype/StillImage" />
      </cc:Work>
    </rdf:RDF>
  </metadata>
  <defs
     id="defs15" />
  <sodipodi:namedview
     pagecolor="#ffffff"
     bordercolor="#666666"
     borderopacity="1"
     objecttolerance="10"
     gridtolerance="10"
     guidetolerance="10"
     inkscape:pageopacity="0"
     inkscape:pageshadow="2"
     inkscape:window-width="640"
     inkscape:window-height="480"
     id="namedview13"
     showgrid="false"
     inkscape:zoom="0.27441406"
     inkscape:cx="512"
     inkscape:cy="512"
     inkscape:window-x="0"
     inkscape:window-y="25"
     inkscape:window-maximized="0"
     inkscape:current-layer="U90FD" />
  <path
     style="fill:#550000;fill-opacity:1;fill-rule:nonzero;stroke:#f9f9f9;stroke-width:0.1;stroke-miterlimit:4;stroke-dasharray:none"
     d="M 306.34375 126.8125 C 294.37546 126.70203 285.20406 128.98438 284.09375 134.6875 C 279.44865 176.7815 280.35765 219.2765 280.46875 261.5625 C 280.53707 267.97682 280.58823 274.39842 280.625 280.8125 C 275.16126 281.60768 269.71043 282.39985 264.25 283.21875 C 227.3387 288.55175 190.39365 294.0135 153.21875 297.1875 C 134.76845 299.3675 145.0497 386.33525 163.5 384.15625 C 201.3268 379.31425 239.0416 373.7395 276.75 368.0625 C 277.93598 367.87698 279.12627 367.71501 280.3125 367.53125 C 280.03906 389.60268 279.63667 411.68034 279.15625 433.75 C 278.87862 444.42606 278.83817 446.34469 278.75 449.75 C 265.19394 453.84926 251.65617 458.0503 238.15625 462.34375 C 196.29115 475.14475 154.3125 489.2555 110.75 494.9375 C 92.2437 496.3415 98.8687 583.56025 117.375 582.15625 C 167.2847 574.79725 215.3265 558.6105 263.3125 543.5625 C 270.18699 541.32905 277.07561 539.13873 283.96875 536.96875 C 260.63108 578.56908 236.36116 619.62545 211.5625 660.375 C 194.2532 687.512 178.2704 715.68025 158.5 741.15625 C 157.6555 742.01325 156.81325 742.86175 155.96875 743.71875 C 143.87065 757.80875 210.30815 814.84 222.40625 800.75 C 224.48905 798.197 226.57345 795.64675 228.65625 793.09375 C 241.52215 775.12819 253.26223 756.43108 264.75 737.5625 C 265.08736 745.69185 265.4301 753.81016 265.8125 761.9375 C 267.3523 801.2515 271.09275 840.487 279.84375 878.875 C 285.63955 897.774 282.10245 888.464 290.40625 906.75 C 297.27017 920.27361 350.68708 896.26306 365.28125 878.03125 C 394.7099 875.59009 424.08676 872.43979 453.46875 869.5 C 481.78815 866.692 510.04375 863.28275 538.09375 858.46875 C 546.11908 857.02256 547.53348 839.48757 545.09375 820.65625 C 560.31803 822.7536 573.23073 821.57137 574.9375 814.875 C 580.281 793.141 584.49615 771.19925 586.78125 748.90625 C 590.95635 711.63525 595.0156 673.95975 591.3125 636.46875 C 584.4925 595.48475 570.73685 565.40425 527.34375 554.03125 C 495.89455 549.53825 464.95205 553.49675 434.34375 561.84375 C 406.11906 569.40543 378.14435 578.00866 351.25 589.5 C 362.93663 568.6236 374.43488 547.61861 385.6875 526.5 C 389.66858 519.04026 393.63456 511.56499 397.59375 504.09375 C 415.99849 499.21324 434.43598 494.52072 452.9375 490 C 497.8924 479.355 543.25065 470.524 588.78125 462.75 L 599.375 460.96875 C 601.33734 530.00201 601.78345 599.07405 602.8125 668.125 C 603.4959 727.837 606.2808 787.48175 609.625 847.09375 C 611.5492 877.30375 613.06835 907.5735 616.21875 937.6875 C 616.53005 940.2385 616.84495 942.79275 617.15625 945.34375 C 619.64385 963.74375 706.3625 951.99375 703.875 933.59375 C 703.5671 931.56475 703.27665 929.56025 702.96875 927.53125 C 699.19205 899.09225 697.5006 870.3985 695.25 841.8125 C 691.36147 783.934 688.26503 726.01544 687.46875 668 C 688.81986 686.5718 693.63796 702.98371 701.65625 702.84375 C 730.54825 701.61075 716.2984 703.309 744.375 697.75 C 785.9725 683.369 821.90275 660.343 845.71875 622.25 C 868.58485 579.203 877.61955 539.0415 860.53125 491.6875 C 843.78735 456.67985 820.33886 427.69451 789.125 404.5625 C 822.09754 379.02132 838.56131 350.28345 824.46875 307.90625 C 814.03855 285.74925 800.06675 265.93425 784.84375 246.78125 C 773.08645 232.37425 705.1802 287.81175 716.9375 302.21875 C 724.4037 312.35515 733.59934 321.99006 739.9375 333.0625 C 739.19546 333.37751 738.27144 333.86761 737.03125 334.625 C 724.60055 342.683 709.41865 347.4395 698.90625 358.3125 C 694.57525 362.7925 691.16475 368.0645 687.28125 372.9375 C 685.56168 379.22466 682.66638 385.32411 681.25 391.65625 C 679.63704 364.26348 677.52324 336.92448 674.53125 309.625 C 672.22915 291.209 585.41665 302.05275 587.71875 320.46875 C 590.72217 340.17212 592.93649 359.94561 594.625 379.78125 C 591.95979 376.36375 589.06971 374.56625 586.125 375.09375 C 581.8513 375.91475 577.5862 376.71025 573.3125 377.53125 C 532.05396 385.45898 490.86092 393.82687 449.9375 403.34375 C 464.47032 374.71771 478.7433 345.9551 492.6875 317.03125 C 513.0048 275.63125 532.73095 233.705 557.34375 194.625 C 567.16785 178.881 492.9491 132.5685 483.125 148.3125 C 461.98529 184.83431 443.6525 222.878 425.46875 260.9375 C 419.41175 261.82204 413.35067 262.66984 407.28125 263.46875 C 393.50244 265.32992 379.71859 267.18618 365.9375 269.03125 C 365.93285 266.58567 365.94497 264.1331 365.9375 261.6875 C 366.1443 224.9405 365.6424 187.9665 370.125 151.4375 C 372.56769 138.89062 332.67398 127.05554 306.34375 126.8125 z M 741.84375 336.625 C 742.90697 338.75915 743.85887 340.95706 744.65625 343.21875 C 741.15134 342.23367 741.38381 339.19137 741.84375 336.625 z M 380.5625 353.625 C 375.52074 363.72497 370.46487 373.81509 365.34375 383.875 C 365.45002 374.42346 365.54121 364.98293 365.625 355.53125 C 370.60137 354.88937 375.5845 354.25451 380.5625 353.625 z M 682.5 414.28125 C 689.55985 438.79051 713.25427 455.63908 732.65625 470.71875 C 753.49205 485.98475 771.9028 503.32325 781.6875 527.53125 C 786.6659 546.60325 779.8124 564.086 770 580.25 C 757.0205 598.174 738.5782 609.438 717.5625 615.375 C 705.6281 616.891 711.4592 616.71225 700.125 616.15625 C 692.17892 616.29495 687.94536 632.56628 687.1875 650.96875 C 686.20547 585.42226 685.70569 519.84943 684.1875 454.3125 C 683.71317 440.95721 683.15293 427.62476 682.5 414.28125 z M 757.125 423.53125 C 753.90349 426.36653 754.67007 425.29364 757.125 423.53125 z M 341.25 607.21875 C 344.76279 632.11095 370.37956 677.34103 383.25 671.09375 C 406.5804 659.63775 431.53715 652.12525 456.59375 645.53125 C 473.99365 643.18525 494.60225 633.95775 512.21875 639.96875 C 502.28185 640.66875 503.3017 632.416 505.375 649.625 C 507.6517 679.52 504.31125 709.5085 500.90625 739.1875 C 499.48603 752.1348 497.38524 764.93894 494.59375 777.625 C 478.08321 780.04198 461.48285 781.94259 444.875 783.625 C 414.56197 786.64697 384.23336 789.99781 353.78125 791.1875 C 352.88777 780.12064 352.24098 769.0367 351.6875 757.96875 C 350.0071 721.34375 348.91635 684.69225 348.46875 648.03125 C 348.18001 641.72709 337.89349 638.03495 324.46875 636.625 C 330.10531 626.8407 335.68561 617.04401 341.25 607.21875 z M 487.34375 670.4375 L 471.5625 670.875 C 439.3595 673.483 407.06665 677.9645 376.90625 690.1875 C 359.94445 697.7755 395.7257 777.713 412.6875 770.125 C 433.397 761.358 455.9687 758.947 478.1875 757.375 C 481.7848 757.355 485.37145 757.3325 488.96875 757.3125 C 507.39545 756.9705 505.77045 670.0945 487.34375 670.4375 z "
     id="path22401" />
</svg>
