<?xml version="1.0" encoding="UTF-8" standalone="no"?>
<svg
   xmlns:dc="http://purl.org/dc/elements/1.1/"
   xmlns:cc="http://creativecommons.org/ns#"
   xmlns:rdf="http://www.w3.org/1999/02/22-rdf-syntax-ns#"
   xmlns:svg="http://www.w3.org/2000/svg"
   xmlns="http://www.w3.org/2000/svg"
   xmlns:sodipodi="http://sodipodi.sourceforge.net/DTD/sodipodi-0.dtd"
   xmlns:inkscape="http://www.inkscape.org/namespaces/inkscape"
   width="1024"
   height="1024"
   id="U91CD"
   version="1.1"
   inkscape:version="0.48.0 r9654"
   sodipodi:docname="U+91CD.svg">
  <metadata
     id="metadata16">
    <rdf:RDF>
      <cc:Work
         rdf:about="">
        <dc:format>image/svg+xml</dc:format>
        <dc:type
           rdf:resource="http://purl.org/dc/dcmitype/StillImage" />
      </cc:Work>
    </rdf:RDF>
  </metadata>
  <defs
     id="defs14" />
  <sodipodi:namedview
     pagecolor="#ffffff"
     bordercolor="#666666"
     borderopacity="1"
     objecttolerance="10"
     gridtolerance="10"
     guidetolerance="10"
     inkscape:pageopacity="0"
     inkscape:pageshadow="2"
     inkscape:window-width="640"
     inkscape:window-height="480"
     id="namedview12"
     showgrid="false"
     inkscape:zoom="0.27441406"
     inkscape:cx="512"
     inkscape:cy="512"
     inkscape:window-x="0"
     inkscape:window-y="25"
     inkscape:window-maximized="0"
     inkscape:current-layer="U91CD" />
  <path
     style="fill:#2b1100;fill-opacity:1;fill-rule:nonzero;stroke:none"
     d="M 634.65625 29.84375 C 634.08261 29.811402 633.50709 29.861094 632.9375 30 C 600.8833 38.023 569.10065 46.8535 537.59375 56.8125 C 487.74715 72.4965 440.24335 94.34025 393.65625 117.78125 C 353.44295 138.56425 314.4009 161.44375 274.9375 183.59375 C 262.4539 190.32675 250.08865 197.2305 238.34375 205.1875 C 223.06595 216.1085 274.56595 288.13975 289.84375 277.21875 C 298.52245 270.06875 308.943 265.4525 318.375 259.4375 C 356.1003 237.3815 393.66145 215 432.46875 194.875 C 436.86144 192.66246 441.27432 190.48564 445.6875 188.3125 C 445.18939 219.43838 444.01704 250.52731 442.5625 281.625 C 442.40588 284.98996 442.22632 288.3542 442.0625 291.71875 C 394.36759 294.40735 346.62457 296.34948 298.84375 296.3125 C 257.22415 295.8705 215.43895 295.26825 174.15625 289.40625 C 155.53485 287.05925 144.47235 374.8405 163.09375 377.1875 C 208.07525 381.7285 253.30415 382.185 298.46875 382.125 C 344.81035 381.6416 391.07988 379.61057 437.34375 377 C 436.7846 386.15275 436.20063 395.31694 435.625 404.46875 C 431.92582 404.94713 428.22647 405.42407 424.53125 405.9375 C 387.66815 411.3115 351.0647 418.03875 314.5625 425.46875 C 306.76016 426.99241 305.33641 443.46069 307.65625 461.65625 C 282.12332 457.67625 232.95315 467.28245 234.6875 481.28125 C 239.736 513.57725 244.8727 545.88225 250.0625 578.15625 C 255.3292 613.71825 261.8014 649.07325 272.5625 683.40625 C 278.0308 698.85325 275.0306 691.2585 281.5625 706.1875 C 286.18323 716.15642 315.67777 707.45396 337.65625 695.15625 C 341.70384 717.42556 350.69044 739.35058 360.125 737.53125 C 381.98756 733.34463 403.90732 729.50767 425.875 725.90625 C 425.96559 729.38379 426.05441 732.86648 426.15625 736.34375 C 426.34135 741.87954 426.55207 747.40629 426.8125 752.9375 C 411.05432 754.36377 395.31463 755.91471 379.5625 757.5 C 349.7688 759.554 319.42455 761.61625 289.84375 756.28125 C 271.43645 752.56525 253.93645 839.31625 272.34375 843.03125 C 309.90215 849.00825 348.0241 846.83725 385.75 844.03125 C 401.30654 842.36702 416.87085 840.78511 432.4375 839.34375 C 433.11262 849.05815 433.77458 858.77877 434.34375 868.5 C 434.84363 879.52383 435.60942 890.51421 436.65625 901.5 C 376.34446 901.67275 316.0311 901.67192 255.71875 901.65625 C 213.75275 902.00725 171.8097 902.6925 129.875 904.4375 C 111.1474 905.7065 117.11625 993.98775 135.84375 992.71875 C 176.11965 989.38075 216.5477 988.47025 256.9375 987.65625 C 333.6744 986.84525 410.41595 986.5025 487.15625 986.0625 C 562.11315 986.0625 637.0749 985.008 712 982.875 C 757.8624 981.559 803.63325 978.09725 849.53125 978.90625 C 864.01071 979.77208 878.87198 980.65116 892.78125 985.09375 C 892.15869 984.68198 891.62786 984.33741 891.15625 984 C 906.6179 993.25364 963.46942 929.97646 949.8125 917.59375 C 941.3465 910.93375 933.10915 904.74425 922.53125 901.78125 C 899.06865 894.86125 874.7726 891.85375 850.3125 891.59375 C 803.2139 891.53975 756.26085 895.25225 709.21875 897.15625 C 647.99826 899.36928 586.75735 900.73785 525.5 901.15625 C 524.62353 888.19293 522.35244 875.37511 521.75 862.375 C 520.95448 852.57836 520.11008 842.7609 519.25 832.96875 C 522.36322 832.80496 525.47885 832.61611 528.59375 832.46875 C 565.24145 831.04275 601.9101 832.225 638.5625 832.625 C 659.8254 832.999 681.062 832.1885 702.3125 831.6875 C 703.808 831.75504 705.24374 831.96934 706.28125 832.15625 C 704.20625 831.6792 699.31084 830.4254 690.34375 827.875 C 708.33466 828.88175 747.05935 758.47625 731.4375 749.65625 C 719.0166 745.69225 711.44835 742.19425 699.15625 743.28125 C 679.17805 744.23725 659.2015 745.4075 639.1875 745.1875 C 600.895 745.0725 562.5868 744.0415 524.3125 745.8125 C 520.38906 746.01559 516.45235 746.24253 512.53125 746.46875 C 512.29333 742.14359 512.0629 737.82872 511.875 733.5 C 511.62476 726.7958 511.42177 720.08063 511.21875 713.375 C 545.55328 709.20652 580.01784 706.07697 614.53125 703.78125 C 625.2779 703.27783 636.02705 702.93592 646.78125 702.75 C 667.667 718.17262 699.10491 731.48888 704.96875 721.46875 C 714.67365 703.07575 720.4763 683.54125 724.625 663.15625 C 732.6675 629.55225 740.8579 595.9965 748 562.1875 C 753.4365 535.0665 759.8752 507.778 760.1875 480 C 757.2066 451.16 745.97575 427.065 719.15625 413.25 C 699.11325 404.257 677.83105 399.50175 655.96875 397.34375 C 622.99505 394.06075 589.85015 392.599 556.71875 394.125 C 544.94789 394.6935 533.19491 395.39393 521.4375 396.1875 C 521.98378 388.02878 522.52084 379.87776 523.0625 371.71875 C 527.55189 371.43132 532.04214 371.16126 536.53125 370.875 C 596.81475 366.672 657.2578 364.02275 717.625 367.59375 C 740.4752 369.24875 763.0445 373.26025 785.5 377.65625 C 789.76934 378.54988 792.13137 379.193 792.4375 379.15625 C 792.26674 378.8914 787.76569 376.99032 778.90625 372.40625 C 796.34127 376.95506 848.27368 315.65249 834.71875 303.90625 C 822.81055 297.15125 814.4676 291.82125 801.1875 290.65625 C 774.9046 286.27725 748.5164 282.3005 721.875 280.9375 C 658.2053 278.3655 594.5788 281.40525 531.0625 286.15625 C 530.2088 286.21237 529.35372 286.25637 528.5 286.3125 C 528.50123 286.29173 528.49877 286.27077 528.5 286.25 C 530.933 245.822 532.70175 205.37425 534.28125 164.90625 C 534.48825 160.49027 529.70233 156.90496 522.3125 154.21875 C 535.87545 148.97554 549.62427 144.15113 563.5625 139.875 C 593.3468 130.669 623.37745 122.3345 653.90625 115.9375 C 671.56366 111.63044 652.43919 30.846525 634.65625 29.84375 z M 892.78125 985.09375 C 894.35678 986.13583 896.05133 987.10062 896.0625 986.21875 C 894.9797 985.82297 893.8763 985.44351 892.78125 985.09375 z M 582.28125 480.75 C 603.84604 480.83808 625.3727 482.266 646.8125 484.65625 C 647.07713 484.72445 647.35666 484.78002 647.625 484.84375 C 633.39625 486.94009 618.97108 491.55211 606.0625 492.6875 C 575.43903 498.76166 544.79003 504.83059 514 510 C 514.53823 501.21337 515.09578 492.44138 515.65625 483.65625 C 530.65561 482.59258 545.69482 481.76827 560.71875 481.125 C 567.9104 480.846 575.09299 480.72064 582.28125 480.75 z M 430.0625 492.875 C 429.71191 498.57931 429.34174 504.29519 429 510 C 428.75332 513.98133 428.53561 517.95535 428.3125 521.9375 C 409.3166 524.0614 390.2782 525.70634 371.15625 526.28125 C 352.43275 527.46125 357.9641 615.71025 376.6875 614.53125 C 392.88776 613.37179 409.06124 611.80357 425.1875 609.96875 C 425.03489 619.39091 424.92057 628.79531 424.875 638.21875 C 401.16321 641.84265 377.46351 645.53995 353.75 649.15625 C 345.09641 621.59179 340.45266 592.99044 336 564.46875 C 333.23929 546.94352 330.46956 529.40662 327.9375 511.84375 C 329.11776 512.33139 330.3291 512.48482 331.53125 512.25 C 364.06237 504.19383 396.95351 497.9502 430.0625 492.875 z M 658.09375 564.46875 C 657.55659 566.94803 657.01887 569.4298 656.46875 571.90625 C 653.3007 570.70613 650.18838 569.32078 647.0625 568 C 650.0482 568.3569 653.87036 567.0132 658.09375 564.46875 z M 656.40625 572.21875 C 653.18893 586.68776 649.77411 601.10125 646.25 615.5 C 633.63494 615.86004 621.03957 616.38107 608.4375 617.09375 C 575.5835 619.52832 542.77867 622.62904 510.0625 626.46875 C 510.11093 617.09513 510.20274 607.71596 510.375 598.34375 C 547.86694 592.38696 585.14378 585.1962 622.46875 578.28125 C 626.80831 578.72733 645.30663 573.36135 656.40625 572.21875 z M 706.53125 832.1875 C 708.1589 832.55314 707.89925 832.44368 706.53125 832.1875 z "
     id="path15161" />
</svg>
