<?xml version="1.0" encoding="UTF-8" standalone="no"?>
<svg
   xmlns:dc="http://purl.org/dc/elements/1.1/"
   xmlns:cc="http://creativecommons.org/ns#"
   xmlns:rdf="http://www.w3.org/1999/02/22-rdf-syntax-ns#"
   xmlns:svg="http://www.w3.org/2000/svg"
   xmlns="http://www.w3.org/2000/svg"
   xmlns:sodipodi="http://sodipodi.sourceforge.net/DTD/sodipodi-0.dtd"
   xmlns:inkscape="http://www.inkscape.org/namespaces/inkscape"
   width="1024"
   height="1024"
   id="U91CC"
   version="1.1"
   inkscape:version="0.48.0 r9654"
   sodipodi:docname="U+91CC.svg">
  <metadata
     id="metadata14">
    <rdf:RDF>
      <cc:Work
         rdf:about="">
        <dc:format>image/svg+xml</dc:format>
        <dc:type
           rdf:resource="http://purl.org/dc/dcmitype/StillImage" />
      </cc:Work>
    </rdf:RDF>
  </metadata>
  <defs
     id="defs12" />
  <sodipodi:namedview
     pagecolor="#ffffff"
     bordercolor="#666666"
     borderopacity="1"
     objecttolerance="10"
     gridtolerance="10"
     guidetolerance="10"
     inkscape:pageopacity="0"
     inkscape:pageshadow="2"
     inkscape:window-width="640"
     inkscape:window-height="480"
     id="namedview10"
     showgrid="false"
     inkscape:zoom="0.27441406"
     inkscape:cx="512"
     inkscape:cy="512"
     inkscape:window-x="0"
     inkscape:window-y="25"
     inkscape:window-maximized="0"
     inkscape:current-layer="U91CC" />
  <path
     style="fill:#2b0000;fill-opacity:1;fill-rule:nonzero;stroke:#f9f9f9;stroke-width:0.1;stroke-miterlimit:4;stroke-dasharray:none"
     d="M 561.15625 119.375 C 551.67754 119.37773 542.19768 119.42125 532.71875 119.5625 C 484.67285 120.7935 436.6574 124.0665 389.4375 133.5625 C 354.77989 140.52098 320.1319 148.12412 286.75 159.9375 C 260.55611 157.82474 224.90899 163.74266 225.4375 175.6875 C 229.0603 210.4495 235.23755 244.89575 241.03125 279.34375 C 247.65385 317.12375 254.5667 354.8425 260.8125 392.6875 C 264.092 409.8475 266.17635 427.297 270.96875 444.125 C 276.85735 462.02 361.23245 434.27 355.34375 416.375 C 355.55115 418.713 355.5996 418.6225 354.5 413.9375 C 352.6294 405.9675 351.05485 397.905 349.46875 389.875 C 348.67055 385.834 347.87595 381.794 347.09375 377.75 C 346.64347 375.25928 346.17103 372.77161 345.71875 370.28125 C 346.55143 370.3404 347.3671 370.22098 348.15625 369.9375 C 375.87815 359.6335 404.96185 353.88475 433.96875 348.59375 C 440.19223 347.50917 446.41274 346.52754 452.65625 345.59375 C 454.44779 373.34019 455.72145 401.11959 456.6875 428.90625 C 426.19503 434.3773 395.666 439.61599 364.9375 443.5625 C 346.3494 446.1525 358.5369 533.7775 377.125 531.1875 C 404.42977 526.56876 431.72835 521.76466 458.96875 516.78125 C 459.00406 518.65456 459.02809 520.53297 459.0625 522.40625 C 459.32965 538.14648 459.51587 553.88388 459.6875 569.625 C 447.87724 571.75924 436.0857 573.98259 424.3125 576.34375 C 387.8934 583.22375 351.47105 590.15275 314.84375 595.84375 L 314.84375 595.8125 C 296.37055 599.1565 312.12055 686.25025 330.59375 682.90625 C 367.22075 675.56225 403.91985 668.605 440.59375 661.5 C 447.25124 660.15493 453.92242 658.85566 460.59375 657.59375 C 460.69482 665.69869 460.80897 673.80154 460.9375 681.90625 C 460.70808 696.45919 461.01251 710.73995 463.1875 724.65625 C 419.32414 727.57548 375.52242 731.48376 331.75 735.78125 C 283.9958 740.18925 236.27645 745.05525 188.40625 748.03125 C 169.72995 749.47725 176.54245 837.5085 195.21875 836.0625 C 243.46305 831.0355 291.70385 826.076 339.96875 821.25 C 409.76045 813.936 479.6538 807.8685 549.8125 805.9375 C 607.2165 805.0295 664.4152 810.60225 721.5625 815.15625 C 761.1426 818.54125 800.85935 819.284 840.53125 820.875 C 856.50345 821.609 848.93005 821.20725 863.21875 822.03125 C 881.87555 822.88325 885.9069 734.94675 867.25 734.09375 C 852.0863 733.56975 860.0353 733.82175 843.4375 733.34375 C 805.0031 732.33375 766.50755 731.91125 728.15625 728.90625 C 669.42163 724.5838 610.64322 719.35134 551.6875 720.375 C 551.78647 720.09439 550.87864 716.24527 550.40625 714.8125 C 550.13903 714.47331 549.9992 714.28769 549.75 713.96875 C 550.1593 716.08012 550.71732 718.14308 551.53125 720.125 C 551.59992 720.2922 551.62361 720.33598 551.65625 720.375 C 550.19977 720.40034 548.73794 720.4044 547.28125 720.4375 C 542.04945 720.60164 536.82292 720.79707 531.59375 721 C 531.45909 709.52938 529.54405 700.03452 525.3125 696.5 C 544.85454 705.19237 538.56766 699.65698 549.75 713.96875 C 547.61045 702.93201 550.08843 690.43176 548.0625 679.78125 C 547.66604 667.76512 547.32843 655.76838 547.03125 643.75 C 554.79441 642.7375 562.56186 641.76028 570.34375 640.875 C 594.59145 637.724 619.0046 637.602 643.375 638.75 C 651.6105 639.07 648.00265 638.875 654.21875 639.25 C 673.02255 639.819 675.6788 551.16275 656.875 550.59375 C 650.4141 550.57375 653.91335 550.6125 646.40625 550.5625 C 617.60205 549.8785 588.7895 550.54925 560.1875 554.40625 C 555.21096 555.00781 550.25087 555.63483 545.28125 556.28125 C 545.06805 544.41631 544.86946 532.55184 544.625 520.6875 C 544.48096 514.08386 544.33993 507.47874 544.1875 500.875 C 569.61354 496.27242 595.11753 492.01902 620.75 488.65625 C 646.6899 485.82925 672.78905 483.593 698.90625 484.125 C 700.45835 484.179 702.0104 484.23125 703.5625 484.28125 C 716.55455 484.31857 720.67408 442.00362 715.78125 415.84375 C 717.619 409.17869 719.56219 402.53481 721.65625 395.9375 C 733.01255 356.4545 744.21545 316.89525 753.15625 276.78125 C 757.83935 255.61625 762.782 234.38525 764.9375 212.78125 C 766.164 199.21325 767.2256 185.4275 763.125 172.1875 C 754.1001 150.8845 739.3681 135.81525 716.875 128.53125 C 693.8577 122.30125 670.24625 121.16525 646.46875 120.78125 C 618.04555 119.91125 589.59237 119.3668 561.15625 119.375 z M 548.375 206.28125 C 580.06365 206.16683 611.7435 207.03525 643.40625 208.28125 C 653.77025 209.98669 665.25125 208.77853 676.15625 209.71875 C 674.34047 226.14545 670.83727 242.35522 667.53125 258.53125 C 659.63375 296.72825 648.9977 334.2715 638.0625 371.6875 C 634.98817 381.09662 632.2438 390.62139 629.59375 400.15625 C 622.75578 400.86496 615.91417 401.64476 609.09375 402.5 C 586.53608 405.63033 564.07012 409.37316 541.65625 413.34375 C 540.71756 387.6904 539.54711 362.0645 538.03125 336.4375 C 543.3174 336.04191 548.58673 335.66952 553.875 335.3125 C 570.1988 336.9055 604.95935 328.62625 619.78125 335.03125 C 638.22355 338.38625 654.03595 251.44875 635.59375 248.09375 C 606.42125 243.85975 577.02105 246.54675 547.71875 248.34375 C 542.79595 248.70861 537.85854 249.07582 532.9375 249.46875 C 532.21004 235.14924 531.57096 220.8271 531 206.5 C 532.25879 206.46952 533.52246 206.43354 534.78125 206.40625 C 539.3085 206.34812 543.84805 206.2976 548.375 206.28125 z M 687 211.59375 C 688.57797 212.05358 690.10872 212.61974 691.625 213.28125 C 689.88822 213.17213 688.37553 212.53205 687 211.59375 z M 443.65625 212.59375 C 444.6781 227.94709 445.69035 243.30099 446.6875 258.65625 C 437.29993 259.97175 427.94501 261.40947 418.59375 263 C 388.75587 268.28892 358.96926 274.19697 329.9375 282.9375 C 328.88868 276.99108 327.83575 271.04474 326.8125 265.09375 C 325.49349 257.02448 324.15695 248.95286 322.84375 240.875 C 349.96159 230.7174 378.41263 224.56741 406.71875 218.75 C 418.97133 216.22446 431.29159 214.21418 443.65625 212.59375 z "
     id="path9642" />
</svg>
