<?xml version="1.0" encoding="UTF-8" standalone="no"?>
<svg
   xmlns:dc="http://purl.org/dc/elements/1.1/"
   xmlns:cc="http://creativecommons.org/ns#"
   xmlns:rdf="http://www.w3.org/1999/02/22-rdf-syntax-ns#"
   xmlns:svg="http://www.w3.org/2000/svg"
   xmlns="http://www.w3.org/2000/svg"
   xmlns:sodipodi="http://sodipodi.sourceforge.net/DTD/sodipodi-0.dtd"
   xmlns:inkscape="http://www.inkscape.org/namespaces/inkscape"
   width="1024"
   height="1024"
   id="U9152"
   version="1.1"
   inkscape:version="0.48.0 r9654"
   sodipodi:docname="U+9152.svg">
  <metadata
     id="metadata17">
    <rdf:RDF>
      <cc:Work
         rdf:about="">
        <dc:format>image/svg+xml</dc:format>
        <dc:type
           rdf:resource="http://purl.org/dc/dcmitype/StillImage" />
      </cc:Work>
    </rdf:RDF>
  </metadata>
  <defs
     id="defs15" />
  <sodipodi:namedview
     pagecolor="#ffffff"
     bordercolor="#666666"
     borderopacity="1"
     objecttolerance="10"
     gridtolerance="10"
     guidetolerance="10"
     inkscape:pageopacity="0"
     inkscape:pageshadow="2"
     inkscape:window-width="640"
     inkscape:window-height="480"
     id="namedview13"
     showgrid="false"
     inkscape:zoom="0.27441406"
     inkscape:cx="512"
     inkscape:cy="512"
     inkscape:window-x="0"
     inkscape:window-y="25"
     inkscape:window-maximized="0"
     inkscape:current-layer="U9152" />
  <path
     style="fill:#2b0000;fill-opacity:1;fill-rule:nonzero;stroke:#f9f9f9;stroke-width:0.1;stroke-miterlimit:4;stroke-dasharray:none"
     d="M 660.71875 194.3125 C 613.16775 194.6795 565.77495 198.35025 518.84375 206.28125 C 482.61435 211.81725 446.42865 218.10825 409.90625 221.40625 C 391.04315 223.32425 400.10555 312.2315 418.96875 310.3125 C 436.54465 308.01039 454.05937 305.34981 471.5625 302.5625 C 470.18933 335.43533 463.31665 367.84307 456.625 399.96875 C 454.09351 411.55013 451.37361 423.10049 448.5 434.59375 C 423.62768 441.6473 399.48123 450.80127 377.34375 464.5625 C 354.57666 465.72585 331.64093 471.84177 332.21875 481.5 C 333.65165 520.144 334.1535 558.7965 335.9375 597.4375 C 338.6796 653.7205 345.9626 709.63075 354.9375 765.21875 C 358.677 788.42575 363.09345 811.46675 369.90625 833.96875 C 375.84785 851.88675 460.3167 823.8545 454.375 805.9375 C 447.4457 788.3075 445.1238 769.313 441.25 750.875 C 435.36276 716.53307 430.34747 682.01607 426.96875 647.34375 C 448.44571 654.74409 472.01761 657.6186 475.0625 648.46875 C 482.1457 626.26575 489.44135 604.14975 496.59375 581.96875 C 504.27947 557.55211 511.73431 533.05458 518.75 508.4375 C 543.93376 504.16467 569.39458 502.19286 594.90625 501.21875 C 595.43719 516.03239 596.35472 530.8337 597.84375 545.625 C 602.25505 584.239 614.31405 614.91825 641.03125 643.15625 C 668.60545 666.49225 701.9717 668.658 736.3125 665.875 C 749.83311 664.42338 763.20362 661.97109 776.65625 660.0625 C 773.8493 699.72145 772.90936 739.44323 773.90625 779.21875 C 774.1032 784.80602 774.35533 790.41457 774.59375 796 C 756.13809 796.16566 737.68363 796.67419 719.25 797.71875 C 667.007 800.57075 614.79395 804.236 562.78125 810 C 521.41775 814.706 480.08305 819.77 439.03125 826.75 L 439.03125 826.78125 C 420.49135 830.62125 438.5851 917.99625 457.125 914.15625 C 495.3419 906.19425 534.1388 901.4275 572.875 896.8125 C 622.9858 891.0195 673.34445 887.629 723.71875 885.25 C 752.60645 883.804 781.51585 884.07125 810.40625 885.15625 C 812.78715 885.23125 815.1816 885.295 817.5625 885.375 C 827.08691 885.52735 832.16206 863.01197 832.46875 840.5625 C 850.06484 838.34451 864.87568 833.07624 864.5 825.34375 C 863.5653 809.09475 862.46995 792.85175 861.71875 776.59375 C 860.01895 729.21775 861.7205 681.89675 866.5625 634.71875 C 869.9427 593.11575 874.26465 551.20075 870.71875 509.46875 C 865.10585 474.24475 851.93065 443.3485 816.78125 428.8125 C 790.50005 420.1215 763.31665 417.5645 735.71875 416.5625 C 717.8486 415.50607 699.98066 414.39024 682.09375 413.59375 C 682.09373 413.43751 682.09381 413.28124 682.09375 413.125 C 681.56445 375.825 679.92635 338.56875 675.84375 301.46875 C 673.81505 282.63075 585.00255 292.19325 587.03125 311.03125 C 592.17464 344.94189 593.72435 379.19419 594.375 413.4375 C 576.95564 414.12021 559.55057 415.17311 542.21875 416.90625 C 550.86759 377.00377 559.21889 336.83324 561.1875 295.9375 C 561.23623 293.28126 559.54329 290.96764 556.5625 289 C 591.11671 284.27852 625.90881 282.19239 660.8125 282.40625 C 672.6338 282.52625 684.3813 283.537 696.0625 285.25 C 714.7771 287.542 725.5896 199.32325 706.875 197.03125 C 691.5337 195.38625 676.17095 194.1715 660.71875 194.3125 z M 255.09375 217.34375 C 233.99281 218.40786 182.09144 262.9515 192.5 275.84375 C 213.3967 300.58075 234.83015 324.86125 256.09375 349.28125 C 266.06755 360.88125 275.91775 372.6165 283.90625 385.6875 C 294.15985 401.5215 368.8161 353.17775 358.5625 337.34375 C 347.6956 321.07475 335.6682 305.70525 322.5625 291.15625 C 301.968 267.70325 281.12575 244.44325 261.96875 219.78125 C 260.48182 217.9395 258.10817 217.19173 255.09375 217.34375 z M 214.65625 448.6875 C 188.5341 449.25183 141.49083 467.36975 145.65625 480.96875 C 155.62255 509.20775 170.2865 535.3835 185.0625 561.3125 C 191.7684 572.5195 198.4107 583.77325 204.8125 595.15625 C 214.1223 611.52125 291.2473 567.64625 281.9375 551.28125 C 275.4037 539.90825 268.7447 528.61825 261.9375 517.40625 C 250.3774 497.23525 238.5037 476.94225 231.125 454.78125 C 229.73655 450.2485 223.36363 448.49939 214.65625 448.6875 z M 682.78125 501.90625 C 698.61479 502.75341 714.43093 503.84867 730.25 504.875 C 748.2098 508.077 769.6572 503.96375 786.4375 512.59375 C 779.6865 513.67275 781.30535 508.36625 782.84375 522.28125 C 783.89019 537.89605 783.83258 553.52399 783.21875 569.15625 C 782.37205 569.24435 781.34112 569.3924 778.34375 569.75 C 761.72065 571.932 745.2468 575.16275 728.625 577.34375 C 720.0319 578.17075 711.3563 577.99875 702.875 579.21875 C 688.978 573.59775 688.9628 547.59625 685.5 536.15625 C 684.1645 524.75367 683.31873 513.33835 682.78125 501.90625 z M 623.65625 656.5625 C 620.19804 656.57717 616.74287 656.67725 613.28125 656.84375 C 581.97605 658.09075 550.7476 660.52325 519.625 664.15625 C 500.8835 666.87225 513.6959 755.216 532.4375 752.5 C 560.2465 748.15 588.35575 746.131 616.46875 745.25 C 626.91735 744.829 637.33115 745.45775 647.71875 746.46875 C 666.52535 747.96575 673.5566 659.3095 654.75 657.8125 C 644.39445 657.10825 634.03088 656.51848 623.65625 656.5625 z M 263.15625 667.3125 C 261.17088 667.32023 259.51564 667.89856 258.28125 669.125 C 240.25755 687.048 222.16835 704.93375 205.03125 723.71875 C 178.68265 753.20775 153.0112 783.3695 131.1875 816.4375 C 121.0811 832.4635 196.6436 880.0885 206.75 864.0625 C 224.7947 834.3265 247.47545 807.8875 270.46875 781.9375 C 286.34805 764.4285 303.1702 747.8325 319.9375 731.1875 C 331.86991 719.33103 282.34814 667.23782 263.15625 667.3125 z "
     id="path9599" />
</svg>
