<?xml version="1.0" encoding="UTF-8" standalone="no"?>
<svg
   xmlns:dc="http://purl.org/dc/elements/1.1/"
   xmlns:cc="http://creativecommons.org/ns#"
   xmlns:rdf="http://www.w3.org/1999/02/22-rdf-syntax-ns#"
   xmlns:svg="http://www.w3.org/2000/svg"
   xmlns="http://www.w3.org/2000/svg"
   xmlns:sodipodi="http://sodipodi.sourceforge.net/DTD/sodipodi-0.dtd"
   xmlns:inkscape="http://www.inkscape.org/namespaces/inkscape"
   width="1024"
   height="1024"
   id="U94B1"
   version="1.1"
   inkscape:version="0.48.0 r9654"
   sodipodi:docname="U+94B1.svg">
  <metadata
     id="metadata17">
    <rdf:RDF>
      <cc:Work
         rdf:about="">
        <dc:format>image/svg+xml</dc:format>
        <dc:type
           rdf:resource="http://purl.org/dc/dcmitype/StillImage" />
      </cc:Work>
    </rdf:RDF>
  </metadata>
  <defs
     id="defs15" />
  <sodipodi:namedview
     pagecolor="#ffffff"
     bordercolor="#666666"
     borderopacity="1"
     objecttolerance="10"
     gridtolerance="10"
     guidetolerance="10"
     inkscape:pageopacity="0"
     inkscape:pageshadow="2"
     inkscape:window-width="640"
     inkscape:window-height="480"
     id="namedview13"
     showgrid="false"
     inkscape:zoom="0.27441406"
     inkscape:cx="512"
     inkscape:cy="512"
     inkscape:window-x="0"
     inkscape:window-y="25"
     inkscape:window-maximized="0"
     inkscape:current-layer="U94B1" />
  <path
     style="fill:#c83737;fill-opacity:1;fill-rule:nonzero;stroke:#f9f9f9;stroke-width:0.1;stroke-miterlimit:4;stroke-dasharray:none"
     d="M 731.6875 119.25 C 706.67053 119.97181 657.36273 142.23672 662.59375 155.9375 C 679.89985 194.2695 707.07935 226.856 733.53125 259.125 C 754.74515 284.754 744.28945 271.978 764.90625 297.375 C 776.48455 311.623 843.6408 257.0595 832.0625 242.8125 C 811.0905 217.0335 821.56995 229.82 800.59375 204.375 C 780.20945 179.266 758.6646 154.091 745.25 124.375 C 743.78532 120.53878 738.69225 119.04789 731.6875 119.25 z M 538.875 193.1875 C 515.45429 193.15953 490.62154 198.46912 490.875 208.4375 C 493.5076 253.0505 500.82665 297.21175 508.28125 341.21875 C 511.01681 357.34711 513.99131 373.40894 517.1875 389.4375 C 488.2328 397.22157 459.37669 405.34796 430.625 413.875 C 412.7993 419.617 439.8619 503.64925 457.6875 497.90625 C 483.51044 489.00642 509.70531 481.27364 536.03125 474.03125 C 542.91047 502.12426 550.33563 530.08262 558.15625 557.9375 C 552.12442 559.72057 546.0948 561.49755 540.0625 563.28125 C 506.5793 572.34825 472.8019 581.71625 438.125 584.78125 C 427.91068 585.26302 424.52924 611.68828 426.5625 635.53125 C 415.47029 638.05438 403.96175 640.49422 393.9375 643.28125 C 368.38702 649.57264 342.90455 656.15901 317.53125 663.125 C 317.40423 644.29324 317.44967 625.4637 317.59375 606.625 C 317.48767 589.03355 317.36456 571.4359 317.0625 553.84375 C 324.70528 553.05718 331.4159 552.90787 335.3125 554.125 C 354.02517 548.86303 387.99758 484.8871 373.1875 476.59375 C 366.7153 473.89075 360.25345 471.202 353.78125 468.5 C 321.57805 463.952 289.69945 468.67 257.84375 474.375 C 230.53105 479.58641 203.30169 485.73855 177.6875 496.59375 C 179.58906 488.10643 181.52197 479.62407 183.5 471.15625 C 185.95648 461.00536 188.47431 450.86314 191.09375 440.75 C 199.52636 444.02607 206.41759 444.62357 209.28125 440.71875 C 221.19795 422.82975 239.21075 411.873 257.78125 402 C 287.32015 387.141 319.44265 380.38275 352.09375 377.21875 C 370.28095 376.41175 389.41435 375.0475 407.09375 378.6875 C 425.38205 382.8915 445.19455 296.704 426.90625 292.5 C 399.24785 287.283 370.93355 288.3505 342.96875 290.4375 C 304.39972 294.73105 266.41541 302.71176 230.875 318.3125 C 241.49276 291.59305 252.88223 265.16603 266.65625 239.90625 C 275.40035 223.30725 197.15035 182.0885 188.40625 198.6875 C 170.60045 234.7765 155.6043 272.10675 141.375 309.71875 C 124.2142 355.56275 111.0843 402.76825 99 450.15625 C 93.9554 470.29625 89.0636 490.4465 84.4375 510.6875 C 81.068411 526.63915 146.01529 542.54772 165.53125 534.34375 C 175.02457 558.55072 194.71373 586.67674 205.03125 581.28125 C 213.18949 576.79543 221.73756 573.32627 230.5 570.5 C 230.79863 582.88611 230.99817 595.27922 231.21875 607.65625 C 231.31679 634.5564 231.53268 661.42578 232 688.3125 C 199.24663 698.76199 166.75564 709.91743 134.25 721.125 C 116.434 727.014 144.184 810.98175 162 805.09375 C 186.08604 795.62677 210.41484 786.83953 234.90625 778.53125 C 235.15716 783.53864 235.4004 788.55596 235.6875 793.5625 C 238.2212 835.9635 243.9745 878.15075 256.3125 918.84375 C 264.1171 941.18175 275.4159 964.44925 298.1875 975.03125 C 304.3142 977.87825 311.1504 978.8835 317.625 980.8125 C 352.1764 983.5545 377.44065 963.20325 403.15625 943.40625 C 414.82785 934.15125 426.6812 925.105 438.75 916.375 C 453.8156 905.328 401.72185 834.29675 386.65625 845.34375 C 374.19165 854.59075 361.9366 864.10775 349.75 873.71875 C 347.18581 875.67521 341.98862 879.36753 337.03125 882.9375 C 327.84795 852.25417 324.13261 820.18886 321.625 788.3125 C 320.84871 776.27053 320.18798 764.23609 319.65625 752.1875 C 351.00025 743.32754 382.56782 735.25218 414.28125 727.8125 C 437.11655 721.7795 460.73855 718.8175 483.34375 711.9375 C 492.00075 708.8761 489.37568 687.40438 482.375 666.9375 C 509.56369 661.47714 536.36181 653.97803 563.03125 646.46875 C 569.69144 644.43318 576.36853 642.39856 583.03125 640.375 C 599.78062 689.7413 620.26647 737.57181 644.53125 783.59375 C 631.79282 798.64815 619.10235 813.7504 606.3125 828.75 C 579.2597 860.505 552.4887 892.495 525 923.875 C 513.3927 936.991 518.97545 930.7235 508.28125 942.6875 C 495.99745 956.7175 562.12245 1014.6228 574.40625 1000.5938 C 585.09195 988.13975 579.5066 994.66125 591.1875 981.03125 C 618.4112 949.07225 645.1208 916.67625 672.125 884.53125 C 678.58835 876.86355 685.02767 869.16075 691.46875 861.46875 C 715.86276 895.22618 744.21099 925.82919 774.5625 954.375 C 782.7442 961.964 791.2012 969.257 799.6875 976.5 C 814.0885 988.466 870.49475 920.55875 856.09375 908.59375 C 848.57305 902.53575 841.105 896.43725 833.875 890.03125 C 802.00809 861.36525 772.69267 829.94361 748.90625 794.125 C 760.31529 781.22818 771.90885 768.51428 783.84375 756.09375 C 808.36765 732.37075 833.9135 708.653 865.6875 695 C 882.98 687.762 848.855 606.261 831.5625 613.5 C 790.0445 632.399 756.0041 662.65325 723.6875 694.15625 C 717.20565 700.94944 710.82727 707.81719 704.5 714.75 C 688.93956 682.91472 675.41456 650.12836 663.8125 616.53125 C 689.69923 609.16248 715.65035 602.08986 741.78125 595.5625 C 779.53345 587.1575 817.37275 577.51775 856.09375 574.96875 L 860.125 575.3125 C 878.8561 575.2195 878.4186 486.91 859.6875 487 L 848.125 487.4375 C 805.0511 492.1275 762.823 502.11375 720.75 512.21875 C 693.37621 519.19565 666.15859 526.68747 639 534.40625 C 631.47221 507.27079 624.36944 480.01519 617.875 452.625 C 649.35448 444.45956 680.77856 436.06005 712.1875 427.625 C 720.7015 426.26 729.12885 422.086 737.90625 422.375 C 756.50895 420.065 745.63395 332.34525 727.03125 334.65625 C 714.08995 336.74925 701.36015 339.5665 688.84375 343.5625 C 659.30905 352.03903 629.68951 360.21045 599.96875 368 C 597.47248 354.49773 595.12254 340.95484 593 327.375 C 586.714 287.233 580.20985 246.8915 579.34375 206.1875 C 579.12011 197.39188 559.54034 193.21218 538.875 193.1875 z M 335.3125 554.125 C 334.76692 554.27841 334.23677 554.38675 333.71875 554.4375 C 334.97827 554.67817 336.24046 554.91533 337.5 555.15625 C 336.93002 554.73597 336.18739 554.39828 335.3125 554.125 z M 333.71875 554.4375 C 332.47932 554.20067 331.23946 553.95583 330 553.71875 C 331.11943 554.34567 332.37578 554.56907 333.71875 554.4375 z M 345.25 902.75 C 345.44013 902.98922 345.56017 903.1498 345.625 903.25 C 345.54576 903.14529 345.41294 902.99998 345.25 902.75 z "
     id="path10831" />
</svg>
