<?xml version="1.0" encoding="UTF-8" standalone="no"?>
<svg
   xmlns:dc="http://purl.org/dc/elements/1.1/"
   xmlns:cc="http://creativecommons.org/ns#"
   xmlns:rdf="http://www.w3.org/1999/02/22-rdf-syntax-ns#"
   xmlns:svg="http://www.w3.org/2000/svg"
   xmlns="http://www.w3.org/2000/svg"
   xmlns:sodipodi="http://sodipodi.sourceforge.net/DTD/sodipodi-0.dtd"
   xmlns:inkscape="http://www.inkscape.org/namespaces/inkscape"
   width="1024"
   height="1024"
   id="U94C5"
   version="1.1"
   inkscape:version="0.48.0 r9654"
   sodipodi:docname="U+94C5.svg">
  <metadata
     id="metadata17">
    <rdf:RDF>
      <cc:Work
         rdf:about="">
        <dc:format>image/svg+xml</dc:format>
        <dc:type
           rdf:resource="http://purl.org/dc/dcmitype/StillImage" />
      </cc:Work>
    </rdf:RDF>
  </metadata>
  <defs
     id="defs15" />
  <sodipodi:namedview
     pagecolor="#ffffff"
     bordercolor="#666666"
     borderopacity="1"
     objecttolerance="10"
     gridtolerance="10"
     guidetolerance="10"
     inkscape:pageopacity="0"
     inkscape:pageshadow="2"
     inkscape:window-width="640"
     inkscape:window-height="480"
     id="namedview13"
     showgrid="false"
     inkscape:zoom="0.27441406"
     inkscape:cx="512"
     inkscape:cy="512"
     inkscape:window-x="0"
     inkscape:window-y="25"
     inkscape:window-maximized="0"
     inkscape:current-layer="U94C5" />
  <path
     style="fill:#c83737;fill-opacity:1;fill-rule:nonzero;stroke:#f9f9f9;stroke-width:0.1;stroke-miterlimit:4;stroke-dasharray:none"
     d="M 219.59375 176.75 C 217.11999 176.87036 215.15953 177.68511 213.90625 179.3125 C 190.65775 213.3635 177.8373 253.03725 164.4375 291.65625 C 147.3933 342.84725 131.9747 394.5555 114.75 445.6875 C 106.5859 469.8795 98.00965 493.92625 90.34375 518.28125 C 85.00935 536.09625 168.978 561.22125 174.3125 543.40625 C 180.977 519.69225 189.167 496.4735 196.8125 473.0625 C 201.03103 460.29453 205.14257 447.46941 209.21875 434.65625 C 214.36151 438.85951 219.08516 440.67416 222.5 438.65625 C 247.4012 423.03925 274.50185 411.58975 302.09375 401.71875 C 327.27005 393.10875 353.3286 387.65 379.5625 383.5 C 385.86003 382.39841 390.21355 382.35971 392.375 382.46875 C 390.77605 382.20331 387.92175 381.56147 383.71875 380.3125 C 401.60498 381.75598 441.16069 311.76537 425.65625 302.78125 C 402.49995 293.02025 389.5473 292.18125 365.125 296.78125 C 333.7579 302.22725 302.63415 309.1655 272.53125 319.6875 C 262.4045 323.36241 252.33792 327.17543 242.375 331.25 C 243.59028 327.61645 244.79637 323.97101 246.03125 320.34375 C 256.62265 290.65775 266.2884 259.67475 284.0625 233.34375 C 294.2679 220.09214 239.73719 175.76996 219.59375 176.75 z M 392.375 382.46875 C 394.49859 382.82129 394.39512 382.57066 392.375 382.46875 z M 539.875 213.0625 C 527.78912 213.05425 518.57197 215.45063 517.5 221.21875 C 511.6669 259.56775 507.0457 298.08475 501.4375 336.46875 C 493.7353 386.36875 484.8338 436.07875 475.625 485.71875 C 474.5763 491.10275 473.51755 496.491 472.46875 501.875 C 469.13055 520.106 555.0993 535.82475 558.4375 517.59375 C 559.3956 512.01775 560.3544 506.451 561.3125 500.875 C 569.40194 452.84245 577.82831 404.85701 585.65625 356.78125 C 587.90812 356.62685 589.70683 355.87428 590.90625 354.375 C 600.78695 340.505 613.51425 329.75 627.96875 321 C 642.71215 312.62 658.682 307.2295 675.5625 305.8125 C 681.1246 303.2705 693.41755 311.7785 683.34375 307.3125 C 682.82175 307.0815 682.29855 306.383 681.78125 306.625 C 680.37665 307.28 681.45875 309.7 681.46875 311.25 C 681.53475 321.792 681.20125 332.0295 680.40625 342.5625 C 676.33355 377.4135 675.2379 412.01475 680.625 446.71875 C 688.3073 485.14575 711.0224 514.45075 740.625 538.71875 C 755.55354 552.51063 775.88041 556.86598 793.375 565.90625 C 792.71568 565.17337 791.68605 563.94381 789.59375 561.8125 C 804.908 571.22971 872.56001 528.95438 863.28125 513.71875 C 847.70305 494.61275 856.1562 502.10075 838.9375 490.09375 C 824.473 483.03275 808.9248 478.40025 795.1875 469.90625 C 781.9986 460.20025 771.1324 448.53875 767 432.21875 C 761.7456 404.66475 765.044 376.9075 767.6875 349.1875 C 770.3855 313.6465 771.6638 277.5455 748.625 247.8125 C 722.4091 222.7265 701.6686 216.28675 665.625 218.34375 C 644.38704 221.04379 623.82927 226.32307 604.375 234.75 C 601.26355 223.13573 564.60405 213.07938 539.875 213.0625 z M 793.375 565.90625 C 794.55844 567.22172 794.76918 567.17967 798.5625 568.75 C 796.87698 567.73665 795.12564 566.81089 793.375 565.90625 z M 400.09375 440.625 C 370.4241 440.6673 340.98237 444.31287 312.03125 451.375 C 271.34535 461.461 230.53425 472.80475 193.15625 492.21875 C 177.10475 501.94175 222.9485 577.62925 239 567.90625 C 240.48863 567.1049 241.99548 566.32796 243.5 565.5625 C 242.9418 576.00881 242.38061 586.46023 241.8125 596.90625 C 240.81771 611.16733 239.93315 625.42155 239.1875 639.6875 C 208.79896 644.24564 178.59909 649.87468 149.21875 659.09375 C 131.52805 665.32075 160.8718 748.727 178.5625 742.5 C 197.39927 735.89246 216.82062 731.48309 236.4375 728.03125 C 236.29846 744.82391 236.38833 761.63159 236.75 778.4375 C 238.0328 817.8855 241.41285 857.18475 247.15625 896.21875 C 249.07805 909.38975 252.2381 922.30225 255.625 935.15625 C 272.3408 979.16625 309.35145 979.263 343.15625 956 C 360.27645 942.25 376.01975 926.90425 392.71875 912.65625 C 403.09425 904.24825 413.75935 896.2005 424.96875 888.9375 C 440.58185 878.5785 391.7381 804.9545 376.125 815.3125 C 362.0783 824.7765 348.56365 834.9895 335.53125 845.8125 C 333.43338 847.61158 331.32851 849.42911 329.25 851.25 C 325.97605 826.39918 323.86995 801.43447 322.875 776.34375 C 322.32112 756.36019 322.21326 736.36907 322.5 716.40625 C 348.03088 713.55971 373.59608 711.02343 399.1875 708.78125 C 414.8928 707.50425 407.4148 708.1155 421.5625 706.9375 C 440.1602 705.1195 431.5978 617.46225 413 619.28125 C 399.2536 620.83525 406.67265 620.02325 390.78125 621.65625 C 369.19965 623.92559 347.62376 626.29471 326.0625 628.75 C 326.63865 619.81057 327.28038 610.87422 327.96875 601.9375 C 329.35361 579.88616 330.66099 557.82939 332.15625 535.78125 C 332.36472 535.73022 332.57281 535.67596 332.78125 535.625 C 357.64945 530.061 383.0243 526.4705 408.5 528.4375 C 427.084 529.3565 431.3964 441.7315 412.8125 440.8125 C 408.56491 440.67062 404.33227 440.61896 400.09375 440.625 z M 669.28125 600.8125 C 649.3442 600.84445 629.43242 602.17962 609.625 605 C 573.353 610.677 537.14435 618.21575 503.46875 633.34375 C 495.90555 637.19664 499.97426 655.43693 508.25 673.46875 C 487.70096 673.1363 468.23245 676.94188 467.84375 685.6875 C 467.49595 721.9855 473.54665 757.841 480.90625 793.25 C 486.72595 818.393 493.36685 843.4545 502.65625 867.5625 C 509.82275 884.9185 591.63525 851.13625 584.46875 833.78125 C 575.71165 815.32725 571.64095 794.82 566.28125 775.25 C 561.47144 752.74704 557.16405 729.92896 556.21875 706.90625 C 577.6218 698.78802 600.34937 694.5966 622.9375 691.15625 C 650.6274 687.54925 678.6541 686.95875 706.375 690.34375 C 708.67184 690.42589 710.73803 690.74755 712.59375 691.15625 C 711.41533 700.35166 712.37923 714.52445 711.9375 722.90625 C 710.0279 757.10025 704.6977 790.969 699.3125 824.75 C 698.90059 825.97343 698.49322 827.82091 698.125 830.09375 C 665.42504 832.07306 633.11422 837.79256 601.65625 847.4375 C 563.31175 859.5295 525.1236 873.37725 491.9375 896.65625 C 477.055 908.09225 530.96135 978.2485 545.84375 966.8125 C 570.22675 948.9795 599.12265 939.24175 627.65625 930.34375 C 654.1516 922.5378 681.41207 917.72735 708.96875 917.0625 C 727.64235 932.21249 751.79759 944.41872 757.9375 936.15625 C 760.8803 931.78325 763.83845 927.40425 766.78125 923.03125 C 778.76485 896.04925 781.80585 867.39725 785.46875 838.28125 C 791.13025 801.70625 796.93105 765.082 799.46875 728.125 C 801.35105 699.556 804.46795 670.3035 790.71875 643.9375 C 768.96295 614.4375 751.15215 607.9005 715.78125 603.0625 C 700.31707 601.54656 684.78785 600.78765 669.28125 600.8125 z M 718.46875 693.03125 C 723.5221 695.29933 724.06668 697.47087 718.46875 693.03125 z "
     id="path10767" />
</svg>
