<?xml version="1.0" encoding="utf-8" ?>

<!DOCTYPE svg PUBLIC "-//W3C//DTD SVG 1.1//EN" 
  "http://www.w3.org/Graphics/SVG/1.1/DTD/svg11.dtd">
<svg 
    xmlns="http://www.w3.org/2000/svg"
    xmlns:xlink="http://www.w3.org/1999/xlink"
    xmlns:sodipodi="http://sodipodi.sourceforge.net/DTD/sodipodi-0.dtd"
    xmlns:inkscape="http://www.inkscape.org/namespaces/inkscape"
    width="1024" height="1024" id="U95FB">
<path d="m 11471.885,51414.7 c 20.304,24.423 42.152,47.52 63.635,70.9 16.581,17.213 32.003,35.34 46.188,54.554 10.881,15.068 -60.152,66.36 -71.032,51.292 l 0,0 c -11.706,-16.763 -25.254,-31.992 -39.29,-46.848 -22.229,-24.137 -44.717,-48.036 -66.695,-72.402 -12.197,-14.254 54.998,-71.75 67.194,-57.496 z" id="path12952" inkscape:connector-curvature="0" style="fill:#501616;fill-opacity:1;fill-rule:nonzero;stroke:#f9f9f9;stroke-width:0.1;stroke-miterlimit:4;stroke-dasharray:none" transform="translate(-11264, -51200)"/><path d="m 11483.197,51676.824 c -1.538,34.747 2.808,69.427 6.435,103.919 5.478,50.004 11.052,99.993 20.182,149.48 5.45,29.511 14.601,57.952 28.976,84.28 8.578,16.416 -68.807,56.854 -77.385,40.438 l 0,0 c -17.541,-34.55 -30.182,-70.95 -36.726,-109.272 -9.213,-51.562 -15.221,-103.566 -21.209,-155.587 -4.342,-38.921 -9.031,-77.947 -8.583,-117.183 0.833,-18.733 89.142,-14.808 88.31,3.925 z" id="path12954" inkscape:connector-curvature="0" style="fill:#501616;fill-opacity:1;fill-rule:nonzero;stroke:#f9f9f9;stroke-width:0.1;stroke-miterlimit:4;stroke-dasharray:none" transform="translate(-11264, -51200)"/><path d="m 11659.916,51392.589 c 32.265,-24.306 72.211,-33.643 110.7,-43.195 52.413,-12.939 105.954,-18.002 159.804,-17.035 47.282,1.48 90.904,15.542 131.091,39.803 38.695,25.684 58.646,59.668 72.914,102.807 13.817,52.305 7.748,106.237 1.422,159.122 -8.445,62.953 -18.452,125.685 -28.994,188.317 -10.557,60.145 -20.484,120.386 -28.707,180.897 -3.778,28.225 -6.619,56.56 -9.403,84.896 -2.007,18.421 -88.845,8.96 -86.838,-9.461 l 0,0 c 3.482,-29.112 6.819,-58.244 10.877,-87.285 8.678,-61.272 18.83,-122.307 29.513,-183.26 10.277,-61.228 20.037,-122.556 27.951,-184.14 4.651,-40.577 10.119,-82.149 1.064,-122.53 -6.646,-22.173 -16.273,-41.645 -35.945,-55.154 -26.209,-17.152 -55.559,-25.773 -86.914,-27.398 -46.073,-1.32 -91.856,3.216 -136.639,14.547 -25.012,6.41 -51.543,11.977 -73.724,25.773 -14.15,12.34 -72.322,-54.364 -58.172,-66.704 z" id="path12956" inkscape:connector-curvature="0" style="fill:#501616;fill-opacity:1;fill-rule:nonzero;stroke:#f9f9f9;stroke-width:0.1;stroke-miterlimit:4;stroke-dasharray:none" transform="translate(-11264, -51200)"/><path d="m 11539.367,51592.012 c 42.517,-9.826 85.95,-14.163 129.334,-17.963 64.792,-4.728 129.753,-6.786 194.702,-7.545 37.777,0.186 76.177,-0.84 112.799,9.558 5.968,3.544 11.936,7.088 17.904,10.632 14.544,11.91 -41.598,80.475 -56.143,68.565 l 0,0 c 3.53,1.547 7.059,3.095 10.588,4.642 -13.072,-8.963 -68.546,-5.393 -84.553,-7.229 -62.511,0.122 -125.056,1.885 -187.375,7.023 -39.012,3.816 -78.232,7.826 -116.149,18.253 -18.23,4.477 -39.337,-81.458 -21.107,-85.936 z" id="path12958" inkscape:connector-curvature="0" style="fill:#501616;fill-opacity:1;fill-rule:nonzero;stroke:#f9f9f9;stroke-width:0.1;stroke-miterlimit:4;stroke-dasharray:none" transform="translate(-11264, -51200)"/><path d="m 11704.228,51661.762 c -10.26,33.984 -12.918,69.9 -16.846,105.039 -6.698,58.826 -11.483,117.841 -9.14,177.051 2.083,18.461 2.618,38.785 14.019,54.302 8.889,16.32 -68.047,58.225 -76.936,41.904 l 0,0 c -14.94,-30.215 -22.576,-59.38 -23.31,-93.412 -1.66,-63.183 2.98,-126.139 9.691,-188.957 4.375,-43.266 7.339,-87.368 20.445,-129.073 7.031,-17.412 89.109,15.735 82.077,33.146 z" id="path12960" inkscape:connector-curvature="0" style="fill:#501616;fill-opacity:1;fill-rule:nonzero;stroke:#f9f9f9;stroke-width:0.1;stroke-miterlimit:4;stroke-dasharray:none" transform="translate(-11264, -51200)"/><path d="m 11884.125,51646.425 c -10.195,42.768 -16.156,86.342 -21.197,129.964 -6.542,63.294 -9.004,126.911 -10.588,190.492 -1.255,49.961 0.626,99.908 4.742,149.694 1.804,22.029 5.443,43.861 6.982,65.909 0.843,18.732 -87.458,22.706 -88.301,3.975 l 0,0 c 0.08,-21.149 -4.649,-42.115 -5.366,-63.234 -3.757,-52.794 -5.419,-105.72 -3.894,-158.647 1.892,-65.999 4.588,-132.024 11.01,-197.762 5.031,-46.229 11.243,-92.296 19.961,-137.991 3.734,-18.382 90.384,-0.781 86.651,17.6 z" id="path12962" inkscape:connector-curvature="0" style="fill:#501616;fill-opacity:1;fill-rule:nonzero;stroke:#f9f9f9;stroke-width:0.1;stroke-miterlimit:4;stroke-dasharray:none" transform="translate(-11264, -51200)"/><path d="m 11648.911,51756.906 c 33.194,-5.344 66.421,-10.484 99.649,-15.613 16.002,-2.731 32.122,-4.232 48.302,-5.273 18.618,-0.908 22.9,86.856 4.282,87.764 l 0,0 c -13.22,0.335 -26.356,1.534 -39.426,3.657 -32.202,4.866 -64.421,9.784 -96.319,16.401 -18.442,3.498 -34.93,-83.439 -16.488,-86.936 z" id="path12964" inkscape:connector-curvature="0" style="fill:#501616;fill-opacity:1;fill-rule:nonzero;stroke:#f9f9f9;stroke-width:0.1;stroke-miterlimit:4;stroke-dasharray:none" transform="translate(-11264, -51200)"/><path d="m 11692.715,51869.328 c 27.858,-1.552 55.708,-3.218 83.607,-3.823 17.183,0.271 8.664,-0.17 25.556,1.3 18.597,1.99 9.213,89.655 -9.384,87.664 l 0,0 c -8.542,-1.308 -3.629,-0.764 -14.778,-1.209 -26.312,0.24 -52.612,1.687 -78.799,4.282 -18.713,1.316 -24.915,-86.899 -6.202,-88.214 z" id="path12970" inkscape:connector-curvature="0" style="fill:#501616;fill-opacity:1;fill-rule:nonzero;stroke:#f9f9f9;stroke-width:0.1;stroke-miterlimit:4;stroke-dasharray:none" transform="translate(-11264, -51200)"/><path d="m 11559.959,51997.463 c 48.316,-16.195 99.732,-18.771 150.222,-21.185 63.741,-2.079 127.476,1.417 191.059,5.584 28.775,1.716 57.457,4.362 85.993,8.406 18.333,2.801 5.129,89.222 -13.204,86.421 l 0,0 c -26.086,-4.345 -52.395,-6.913 -78.772,-8.791 -60.123,-4.431 -120.429,-8.056 -180.739,-5.85 -40.54,2.173 -82.199,3.895 -120.933,17.172 -17.343,7.133 -50.969,-74.624 -33.626,-81.757 z" id="path12972" inkscape:connector-curvature="0" style="fill:#501616;fill-opacity:1;fill-rule:nonzero;stroke:#f9f9f9;stroke-width:0.1;stroke-miterlimit:4;stroke-dasharray:none" transform="translate(-11264, -51200)"/></svg>