<?xml version="1.0" encoding="utf-8" ?>

<!DOCTYPE svg PUBLIC "-//W3C//DTD SVG 1.1//EN" 
  "http://www.w3.org/Graphics/SVG/1.1/DTD/svg11.dtd">
<svg 
    xmlns="http://www.w3.org/2000/svg"
    xmlns:xlink="http://www.w3.org/1999/xlink"
    xmlns:sodipodi="http://sodipodi.sourceforge.net/DTD/sodipodi-0.dtd"
    xmlns:inkscape="http://www.inkscape.org/namespaces/inkscape"
    width="1024" height="1024" id="U953B">
<path d="m 8461.6624,10415.323 c -5.3922,48.653 -18.7505,95.849 -32.6219,142.63 -16.9939,54.94 -36.655,109.004 -52.7524,164.221 -5.2012,17.426 -87.3486,-7.093 -82.1474,-24.519 l 0,0 c 16.7386,-54.894 36.2821,-108.867 53.0906,-163.74 11.8287,-40.655 23.7435,-81.723 27.1812,-124.115 1.1715,-18.508 88.4213,-12.986 87.2499,5.523 z" id="path22513" inkscape:connector-curvature="0" style="fill:#550000;fill-opacity:1;fill-rule:nonzero;stroke:#f9f9f9;stroke-width:0.1;stroke-miterlimit:4;stroke-dasharray:none" transform="translate(-8192, -10240)"/><path d="m 8361.1946,10619.529 c 29.4718,-27.983 66.5135,-44.256 104.6393,-56.632 26.5476,-8.468 52.7252,-8.912 79.8506,-4.395 18.0573,3.915 -0.397,89.038 -18.4543,85.123 l 0,0 c -10.1153,-6.065 -24.8411,0.214 -35.3133,1.586 -24.2369,7.407 -48.3665,16.965 -67.1769,34.554 -12.7779,13.48 -76.3233,-46.756 -63.5454,-60.236 z" id="path22515" inkscape:connector-curvature="0" style="fill:#550000;fill-opacity:1;fill-rule:nonzero;stroke:#f9f9f9;stroke-width:0.1;stroke-miterlimit:4;stroke-dasharray:none" transform="translate(-8192, -10240)"/><path d="m 8347.1951,10735.016 c 34.5038,-7.741 68.9189,-15.645 103.7583,-21.787 29.8572,-5.501 59.9879,-7.157 90.2593,-6.405 18.3313,0.698 15.0435,87.113 -3.2879,86.415 l 0,0 c -24.13,-1.395 -48.1391,0.323 -71.9609,4.605 -34.3865,6.144 -68.2639,14.335 -102.0349,23.232 -18.2561,3.55 -34.9899,-82.51 -16.7339,-86.06 z" id="path22517" inkscape:connector-curvature="0" style="fill:#550000;fill-opacity:1;fill-rule:nonzero;stroke:#f9f9f9;stroke-width:0.1;stroke-miterlimit:4;stroke-dasharray:none" transform="translate(-8192, -10240)"/><path d="m 8361.4684,10870.923 c 38.3911,-11.902 76.5905,-24.364 115.196,-35.569 26.8494,-7.968 54.2759,-13.331 82.0027,-16.991 18.2656,-2.169 28.4899,83.936 10.2244,86.105 l 0,0 c -23.1448,2.327 -45.9525,6.77 -68.3113,13.279 -37.8376,10.984 -75.2628,23.262 -112.3719,36.505 -17.6767,5.673 -44.4167,-77.657 -26.7399,-83.329 z" id="path22519" inkscape:connector-curvature="0" style="fill:#550000;fill-opacity:1;fill-rule:nonzero;stroke:#f9f9f9;stroke-width:0.1;stroke-miterlimit:4;stroke-dasharray:none" transform="translate(-8192, -10240)"/><path d="m 8511.7604,10772.246 c -9.31,33.861 -12.4873,69.082 -16.1014,103.904 -5.0567,56.039 -10.5214,112.037 -16.1178,168.025 -0.4895,34.433 -11.2701,71.601 -2.3618,105.732 4.5947,-9.008 -15.5504,-19.707 -19.1322,-21.388 -8.6577,-4.064 -14.1865,0.27 -1.1303,-6.673 32.4404,-18.403 62.7082,-40.311 92.5545,-62.593 15.9274,-12.04 31.1216,-24.983 46.2358,-38.013 13.9231,-11.875 69.9019,53.759 55.9788,65.634 l 0,0 c -16.6599,14.071 -33.386,28.068 -50.7983,41.21 -33.6316,25.138 -67.6385,49.995 -104.0485,71.012 -47.3445,24.129 -86.1837,25.063 -105.3397,-33.776 -6.463,-43.128 -1.0902,-86.599 3.1217,-129.745 5.7388,-55.942 11.0948,-111.917 15.7603,-167.96 3.9202,-40.582 7.7362,-81.428 17.6816,-121.071 5.4523,-17.755 89.1495,7.947 83.6973,25.702 z" id="path22521" inkscape:connector-curvature="0" style="fill:#550000;fill-opacity:1;fill-rule:nonzero;stroke:#f9f9f9;stroke-width:0.1;stroke-miterlimit:4;stroke-dasharray:none" transform="translate(-8192, -10240)"/><path d="m 8794.6569,10494.101 c -25.3023,41.567 -51.9916,82.241 -79.349,122.477 -30.9129,45.137 -63.4582,89.118 -95.5496,133.416 -10.8943,14.695 -80.1683,-36.661 -69.274,-51.356 l 0,0 c 32.3189,-42.6 64.2478,-85.524 94.3063,-129.761 26.1656,-38.888 51.9245,-78.12 74.5815,-119.189 9.4213,-15.97 84.7061,28.442 75.2848,44.413 z" id="path22523" inkscape:connector-curvature="0" style="fill:#550000;fill-opacity:1;fill-rule:nonzero;stroke:#f9f9f9;stroke-width:0.1;stroke-miterlimit:4;stroke-dasharray:none" transform="translate(-8192, -10240)"/><path d="m 8612.2194,10700.697 c 43.4975,26.623 53.7885,75.868 62.3768,122.538 7.3294,50.44 11.9765,101.234 16.7414,151.969 2.9674,32.595 5.4235,65.234 8.2275,97.843 1.4411,18.324 -84.9351,25.117 -86.3761,6.794 l 0,0 c -2.3035,-32.263 -4.4573,-64.539 -7.2882,-96.762 -4.355,-48.168 -8.6917,-96.393 -15.7484,-144.253 -2.8434,-15.337 -3.6723,-22.006 -7.7834,-36.518 -1.2636,-4.46 -7.7489,-16.124 -7.824,-21.536 -0,-0.342 0.5738,-0.372 0.8608,-0.558 -16.8682,-7.809 19.9454,-87.327 36.8136,-79.517 z" id="path22525" inkscape:connector-curvature="0" style="fill:#550000;fill-opacity:1;fill-rule:nonzero;stroke:#f9f9f9;stroke-width:0.1;stroke-miterlimit:4;stroke-dasharray:none" transform="translate(-8192, -10240)"/><path d="m 8685.7223,10681.069 c 29.7899,-1.27 59.5583,-2.91 89.3797,-3.02 18.3799,0 18.3508,86.65 -0.029,86.643 l 0,0 c -27.6854,-0.144 -55.3512,1.478 -82.9329,3.817 -18.5489,1.361 -24.9666,-86.079 -6.4177,-87.44 z" id="path22527" inkscape:connector-curvature="0" style="fill:#550000;fill-opacity:1;fill-rule:nonzero;stroke:#f9f9f9;stroke-width:0.1;stroke-miterlimit:4;stroke-dasharray:none" transform="translate(-8192, -10240)"/><path d="m 8687.8835,10786.766 c 30.4528,-10.086 61.8082,-16.779 93.6156,-20.645 5.5866,-0.193 11.1731,-0.387 16.7596,-0.58 18.4423,-0.312 19.9123,86.625 1.4701,86.937 l 0,0 c -2.816,-0.05 -5.6319,-0.102 -8.4479,-0.154 -25.1241,2.561 -49.9114,8.052 -73.6319,16.817 -17.4742,6.314 -47.2398,-76.06 -29.7655,-82.375 z" id="path22529" inkscape:connector-curvature="0" style="fill:#550000;fill-opacity:1;fill-rule:nonzero;stroke:#f9f9f9;stroke-width:0.1;stroke-miterlimit:4;stroke-dasharray:none" transform="translate(-8192, -10240)"/><path d="m 8668.7923,10896.438 c 34.0696,-9.22 68.2669,-17.8 102.8448,-24.891 22.6063,-4.581 45.4625,-7.694 68.3585,-10.374 18.3222,-1.987 27.6892,84.385 9.3669,86.372 l 0,0 c -20.2719,1.997 -40.5071,4.485 -60.5003,8.468 -32.6081,6.607 -64.8745,14.705 -96.58,24.842 -17.9075,4.982 -41.3973,-79.434 -23.4899,-84.417 z" id="path22531" inkscape:connector-curvature="0" style="fill:#550000;fill-opacity:1;fill-rule:nonzero;stroke:#f9f9f9;stroke-width:0.1;stroke-miterlimit:4;stroke-dasharray:none" transform="translate(-8192, -10240)"/><path d="m 8901.558,10490.706 c 2.4783,42.963 -3.2269,85.874 -8.3634,128.442 -3.574,37.015 -11.892,73.763 -12.2402,111.048 -0.673,18.452 -87.6574,15.279 -86.9844,-3.173 l 0,0 c 2.1503,-39.614 9.6096,-78.658 14.1591,-118.029 4.2004,-35.595 9.1536,-71.618 6.4419,-107.511 -2.2862,-18.453 84.7009,-29.23 86.987,-10.777 z" id="path22533" inkscape:connector-curvature="0" style="fill:#550000;fill-opacity:1;fill-rule:nonzero;stroke:#f9f9f9;stroke-width:0.1;stroke-miterlimit:4;stroke-dasharray:none" transform="translate(-8192, -10240)"/><path d="m 8870.6356,10496.717 c 32.3196,-15.428 67.5132,-20.483 102.9265,-21.613 25.4437,1.578 55.6501,0.795 77.7457,16.067 6.008,4.153 10.9078,9.715 16.3616,14.573 3.6535,7.304 8.6529,14.079 10.9604,21.914 8.4564,28.711 -6.2399,60.203 -14.7175,87.089 -6.5131,23.197 -14.3323,48.362 -6.4158,72.114 5.262,9.08 15.8304,11.006 25.2968,13.551 7.2933,1.717 14.7105,2.808 22.0927,4.055 18.2542,3.321 2.5991,89.372 -15.6551,86.051 l 0,0 c -10.8064,-2.101 -21.6713,-3.964 -32.2736,-6.992 -39.3224,-12.95 -70.9591,-34.978 -83.8633,-76.324 -8.6157,-40.924 -4.807,-78.335 8.1106,-118.092 2.8738,-9.428 5.8321,-18.83 8.6833,-28.265 1.6293,-5.392 3.0996,-11.332 3.5127,-10.984 4.1534,3.498 -0.1325,13.263 8.653,13.803 2.369,1.363 4.6011,2.997 7.107,4.088 0.3682,0.16 1.4205,-0.301 1.0856,-0.522 -9.567,-6.328 -24.0185,-3.724 -34.5771,-5.476 -22.0143,0.278 -44.2206,2.665 -64.2784,12.465 -16.4406,8.645 -57.1956,-68.856 -40.7551,-77.502 z" id="path22535" inkscape:connector-curvature="0" style="fill:#550000;fill-opacity:1;fill-rule:nonzero;stroke:#f9f9f9;stroke-width:0.1;stroke-miterlimit:4;stroke-dasharray:none" transform="translate(-8192, -10240)"/><path d="m 8893.7779,10760.52 c 30.002,8.895 61.28,12.543 92.2167,16.639 31.1008,3.832 62.1403,8.37 91.7687,18.817 41.12,19.075 49.8927,47.354 37.7187,89.386 -13.6831,32.87 -34.5763,62.038 -55.2055,90.821 -27.178,37.981 -58.9731,72.14 -92.5807,104.432 -25.007,23.893 -52.4993,44.799 -82.5053,61.947 -3.8695,1.885 -7.739,3.77 -11.6085,5.654 -16.7476,7.87 -53.8442,-71.079 -37.0966,-78.949 l 0,0 c 2.078,-0.909 4.156,-1.819 6.2339,-2.729 23.9919,-12.955 45.5955,-29.615 65.5281,-48.196 29.885,-28.318 58.0311,-58.435 81.8191,-92.156 15.483,-21.9 31.0408,-44.007 42.5286,-68.339 2.4807,-1.715 0.055,-0.437 1.8566,4.532 2.0598,5.68 6.4,15.665 13.7696,16.522 0.5333,0.06 -0.714,-0.803 -1.071,-1.204 -22.8172,-9.745 -48.4014,-10.777 -72.551,-15 -36.1941,-4.85 -72.6097,-9.399 -107.9309,-18.957 -17.6536,-5.751 9.4559,-88.971 27.1095,-83.22 z" id="path22537" inkscape:connector-curvature="0" style="fill:#550000;fill-opacity:1;fill-rule:nonzero;stroke:#f9f9f9;stroke-width:0.1;stroke-miterlimit:4;stroke-dasharray:none" transform="translate(-8192, -10240)"/><path d="m 8881.2592,10867.111 c 7.6973,26.364 26.9597,48.039 43.8599,68.976 38.8588,44.553 80.9067,86.2 122.1184,128.553 32.0763,33.383 64.8005,66.129 98.8699,97.479 3.4803,3.107 6.9606,6.213 10.4409,9.32 13.6033,12.393 -44.8189,76.519 -58.4222,64.126 l 0,0 c -3.704,-3.439 -7.4079,-6.877 -11.1119,-10.316 -34.5424,-32.855 -67.9878,-66.819 -100.8995,-101.306 -42.8186,-44.262 -86.6609,-87.612 -127.4035,-133.819 -27.595,-33.685 -56.2099,-68.858 -64.5198,-112.816 -2.1631,-18.47 84.9047,-28.667 87.0678,-10.197 z" id="path22541" inkscape:connector-curvature="0" style="fill:#550000;fill-opacity:1;fill-rule:nonzero;stroke:#f9f9f9;stroke-width:0.1;stroke-miterlimit:4;stroke-dasharray:none" transform="translate(-8192, -10240)"/></svg>