<?xml version="1.0" encoding="UTF-8" standalone="no"?>
<svg
   xmlns:dc="http://purl.org/dc/elements/1.1/"
   xmlns:cc="http://creativecommons.org/ns#"
   xmlns:rdf="http://www.w3.org/1999/02/22-rdf-syntax-ns#"
   xmlns:svg="http://www.w3.org/2000/svg"
   xmlns="http://www.w3.org/2000/svg"
   xmlns:sodipodi="http://sodipodi.sourceforge.net/DTD/sodipodi-0.dtd"
   xmlns:inkscape="http://www.inkscape.org/namespaces/inkscape"
   width="1024"
   height="1024"
   id="U95EE"
   version="1.1"
   inkscape:version="0.48.0 r9654"
   sodipodi:docname="U+95EE.svg">
  <metadata
     id="metadata13">
    <rdf:RDF>
      <cc:Work
         rdf:about="">
        <dc:format>image/svg+xml</dc:format>
        <dc:type
           rdf:resource="http://purl.org/dc/dcmitype/StillImage" />
      </cc:Work>
    </rdf:RDF>
  </metadata>
  <defs
     id="defs11" />
  <sodipodi:namedview
     pagecolor="#ffffff"
     bordercolor="#666666"
     borderopacity="1"
     objecttolerance="10"
     gridtolerance="10"
     guidetolerance="10"
     inkscape:pageopacity="0"
     inkscape:pageshadow="2"
     inkscape:window-width="640"
     inkscape:window-height="480"
     id="namedview9"
     showgrid="false"
     inkscape:zoom="0.27441406"
     inkscape:cx="512"
     inkscape:cy="512"
     inkscape:window-x="0"
     inkscape:window-y="25"
     inkscape:window-maximized="0"
     inkscape:current-layer="U95EE" />
  <path
     style="fill:#501616;fill-opacity:1;fill-rule:nonzero;stroke:#f9f9f9;stroke-width:0.1;stroke-miterlimit:4;stroke-dasharray:none"
     d="M 615 189.3125 C 590.16049 189.40988 565.38438 192.16275 540.9375 198.375 C 504.71789 209.093 470.15571 223.79225 442.9375 250.90625 C 430.16227 264.66425 495.03727 324.883 507.8125 311.125 C 523.62853 295.46 544.22157 287.96275 565.1875 282.09375 C 596.51241 274.60675 628.54062 274.7775 660.15625 279.8125 C 684.11979 283.7775 703.76898 295.078 721.25 311.375 C 742.27453 332.081 754.20921 358.1105 762.9375 385.8125 C 775.41122 433.0675 774.60744 482.25675 773.8125 530.71875 C 772.79829 586.98875 769.06859 643.1335 764.25 699.1875 C 759.42797 735.0885 760.0839 772.4835 749.15625 807.3125 C 744.15395 825.2305 828.59145 848.82425 833.59375 830.90625 C 844.19908 790.20625 846.3968 748.129 850.25 706.375 C 854.97071 648.397 858.79262 590.3635 859.90625 532.1875 C 860.9117 474.2475 861.22887 415.55875 845.65625 359.21875 C 831.83984 316.84875 812.61416 277.33225 779.6875 246.28125 C 748.82559 219.14425 714.18205 199.786 672.96875 193.5 C 653.67633 190.777 634.31962 189.23676 615 189.3125 z M 310.96875 244.53125 C 290.85512 245.51663 241.00642 294.85463 252.4375 307.03125 C 267.05449 321.86025 277.14813 339.5015 285.0625 358.5625 C 292.38985 375.5545 372.4836 341.02225 365.15625 324.03125 C 352.7416 295.88025 337.85448 269.33525 316.875 246.53125 C 315.47118 245.03588 313.43884 244.41024 310.96875 244.53125 z M 578.125 409.21875 C 555.18963 409.38236 532.46388 413.48069 509.9375 420.34375 C 481.99701 429.13129 454.416 439.7569 431.125 457.3125 C 406.12793 449.8904 357.78708 451.95861 357.34375 465.8125 C 357.71262 501.5485 367.90431 536.0275 377.3125 570.1875 C 385.16327 599.6555 393.5271 628.97075 401.71875 658.34375 C 404.94425 670.19275 403.40184 664.55975 406.375 675.21875 C 408.20771 681.36426 419.31788 682.44895 432.9375 680.5 C 439.93939 704.93265 455.2345 732.51014 465.65625 728.5625 C 492.87803 718.3685 521.75579 713.911 550.4375 710.125 C 569.92467 708.431 589.97917 705.044 609.21875 710 C 622.34545 712.52509 634.59817 668.84702 633.71875 642.65625 C 654.25834 654.88519 679.69907 663.40557 684.5625 654.40625 C 698.7812 627.79925 709.6882 599.9125 709.0625 569.1875 C 706.74279 539.7935 698.88396 511.71775 687.28125 484.59375 C 671.49841 451.61675 651.4338 422.898 614.34375 412.375 C 602.20761 410.13203 590.13877 409.13305 578.125 409.21875 z M 201.6875 489.21875 C 193.07145 489.10216 186.77505 490.9105 185.4375 495.40625 C 173.97474 537.92125 177.77754 581.55775 183.375 624.59375 C 191.12266 681.50675 208.98237 735.7525 233.28125 787.5625 C 248.34408 814.5815 240.59459 801.814 256.3125 826 C 266.59226 841.393 339.18602 792.92425 328.90625 777.53125 C 317.12407 760.54525 322.97396 769.6195 311.5 750.1875 C 290.36869 706.9815 275.49877 661.4045 269.15625 613.5625 C 265.24122 582.7095 261.35214 551.049 270.1875 520.625 C 274.20015 507.13775 227.53566 489.56853 201.6875 489.21875 z M 578.96875 495.75 C 584.64338 495.6834 590.2118 496.38906 595.5625 498.34375 C 600.48678 505.68475 604.19326 514.10625 607.9375 522.15625 C 613.95276 539.13525 621.00437 556.22275 621.21875 574.46875 C 619.95978 588.32075 613.8406 600.645 607.25 612.625 C 605.91946 615.08704 606.533 618.11437 608.5625 621.4375 C 585.37528 619.17854 562.18634 620.16555 538.875 623.65625 C 521.0734 626.05246 503.28971 628.76856 485.6875 632.34375 C 477.30353 603.98637 469.0512 575.59914 461.40625 547.03125 C 459.49068 540.05526 457.48628 533.06379 455.5625 526.03125 C 466.23621 532.78503 475.78931 535.92105 479.84375 531.4375 C 494.99433 516.4035 515.92147 509.85725 535.84375 503.78125 C 549.33093 501.17578 564.46692 495.92019 578.96875 495.75 z "
     id="path12974" />
</svg>
