<?xml version="1.0" encoding="utf-8" ?>

<!DOCTYPE svg PUBLIC "-//W3C//DTD SVG 1.1//EN" 
  "http://www.w3.org/Graphics/SVG/1.1/DTD/svg11.dtd">
<svg 
    xmlns="http://www.w3.org/2000/svg"
    xmlns:xlink="http://www.w3.org/1999/xlink"
    xmlns:sodipodi="http://sodipodi.sourceforge.net/DTD/sodipodi-0.dtd"
    xmlns:inkscape="http://www.inkscape.org/namespaces/inkscape"
    width="1024" height="1024" id="U95F4">
<path d="m 11483.322,21685.85 c 22.109,23.156 42.543,47.779 61.521,73.543 3.417,5.338 6.834,10.676 10.251,16.014 9.978,15.872 -64.845,62.912 -74.823,47.04 l 0,0 c -2.217,-3.623 -4.433,-7.246 -6.649,-10.869 -16.163,-22.203 -33.767,-43.382 -53.496,-62.533 -13.406,-13.405 49.79,-76.601 63.196,-63.195 z" id="path8733" inkscape:connector-curvature="0" style="fill:#550000;fill-opacity:1;fill-rule:nonzero;stroke:#f9f9f9;stroke-width:0.1;stroke-miterlimit:4;stroke-dasharray:none" transform="translate(-11264, -21504)"/><path d="m 11470.554,21936.106 c 3.446,32.099 8.928,63.893 15.227,95.538 10.77,48.71 22.651,97.152 32.825,145.994 6.715,31.543 11.529,63.458 18.641,94.915 3.919,18.366 -82.662,36.844 -86.582,18.477 l 0,0 c -6.447,-31.791 -11.178,-63.898 -17.708,-95.677 -10.054,-48.979 -22.077,-97.493 -33.177,-146.239 -6.827,-32.993 -12.715,-66.135 -17.609,-99.472 -2.871,-18.748 85.511,-32.285 88.383,-13.536 z" id="path8735" inkscape:connector-curvature="0" style="fill:#550000;fill-opacity:1;fill-rule:nonzero;stroke:#f9f9f9;stroke-width:0.1;stroke-miterlimit:4;stroke-dasharray:none" transform="translate(-11264, -21504)"/><path d="m 11691.526,21708.235 c 35.708,-13.565 73.578,-19.092 111.258,-23.869 45.362,-5.527 91.015,-5.812 136.552,-2.957 30.149,2.14 59.942,6.972 88.79,15.994 32.537,11.351 46.475,23.916 59.948,56.192 9.904,44.189 0.327,89.866 -6.364,133.879 -11.322,70.632 -26.141,140.632 -39.064,210.977 -9.769,53.518 -16.922,107.453 -22.291,161.576 -1.192,17.462 -2.951,34.727 -6.921,51.771 -4.976,18.28 -91.149,-5.174 -86.174,-23.455 l 0,0 c 6.124,-10.825 1.666,-26.443 5.601,-37.848 6.641,-56.152 14.623,-112.144 24.941,-167.749 12.906,-69.208 27.349,-138.162 37.698,-207.82 4.221,-30.444 9.022,-61.028 8.441,-91.854 10.177,7.962 4.915,1.354 -3.3,-0.982 -21.693,-7.468 -44.437,-10.725 -67.228,-12.829 -39.805,-2.903 -79.737,-2.76 -119.407,2.19 -29.976,3.933 -60.425,7.878 -88.611,19.424 -17.53,7.185 -51.399,-75.455 -33.869,-82.64 z" id="path8737" inkscape:connector-curvature="0" style="fill:#550000;fill-opacity:1;fill-rule:nonzero;stroke:#f9f9f9;stroke-width:0.1;stroke-miterlimit:4;stroke-dasharray:none" transform="translate(-11264, -21504)"/><path d="m 11624.303,21953.645 c 5.197,35.291 11.271,70.441 18.082,105.454 5.885,28.206 12.036,56.422 20.607,83.95 5.282,18.06 -79.852,42.956 -85.133,24.896 l 0,0 c -8.432,-30.355 -15.228,-61.134 -21.531,-91.996 -7.071,-35.893 -13.362,-71.927 -20.236,-107.856 -3.065,-18.712 85.146,-33.161 88.211,-14.448 z" id="path8739" inkscape:connector-curvature="0" style="fill:#550000;fill-opacity:1;fill-rule:nonzero;stroke:#f9f9f9;stroke-width:0.1;stroke-miterlimit:4;stroke-dasharray:none" transform="translate(-11264, -21504)"/><path d="m 11622.07,21899.957 c 31.846,-10.166 64.885,-15.263 98.06,-18.483 31.879,-2.853 63.486,-0.144 94.073,9.089 36.789,13.762 50.755,39.825 59.198,76.213 5.611,35.264 5.521,71.121 5.703,106.737 -0.211,26.74 0.895,53.537 -2.124,80.149 -0.959,4.134 -1.917,8.268 -2.876,12.401 -4.99,18.279 -91.155,-5.243 -86.165,-23.521 l 0,0 c 0.216,-0.171 0.433,-0.341 0.649,-0.512 3.904,-22.411 0.964,-45.598 2.266,-68.193 -0.06,-29.373 -0.04,-58.918 -4.202,-88.054 -0.57,-3.055 -2.483,-6.235 -1.537,-9.195 0.279,-0.875 7.871,2.672 1.683,-1.328 -18.525,-7.09 -38.846,-6.767 -58.371,-5.871 -25.963,2.36 -51.964,6.129 -76.664,14.812 -17.871,6.299 -47.564,-77.945 -29.693,-84.244 z" id="path8741" inkscape:connector-curvature="0" style="fill:#550000;fill-opacity:1;fill-rule:nonzero;stroke:#f9f9f9;stroke-width:0.1;stroke-miterlimit:4;stroke-dasharray:none" transform="translate(-11264, -21504)"/><path d="m 11648.099,22022.907 c 27.118,-4.318 54.584,-5.657 81.984,-6.763 12.984,-0.641 25.975,-0.668 38.968,-0.526 18.861,0.39 17.022,89.302 -1.84,88.912 l 0,0 c -11.202,-0.375 -22.404,-0.445 -33.607,0.109 -22.663,0.887 -45.461,1.819 -67.814,5.919 -18.593,3.753 -36.284,-83.899 -17.691,-87.651 z" id="path8743" inkscape:connector-curvature="0" style="fill:#550000;fill-opacity:1;fill-rule:nonzero;stroke:#f9f9f9;stroke-width:0.1;stroke-miterlimit:4;stroke-dasharray:none" transform="translate(-11264, -21504)"/><path d="m 11643.697,22135.908 c 24.148,5.887 49.141,6.804 73.861,7.983 32.269,1.26 64.559,1.741 96.763,4.258 13.489,0.898 26.44,4.153 39.339,7.925 18.009,5.797 -9.32,90.693 -27.329,84.896 l 0,0 c -6.174,-2.668 -12.754,-3.715 -19.416,-4.534 -31.07,-2.821 -62.272,-3.069 -93.43,-4.327 -30.634,-1.371 -61.414,-2.923 -91.47,-9.473 -18.398,-4.6 3.284,-91.327 21.682,-86.728 z" id="path8745" inkscape:connector-curvature="0" style="fill:#550000;fill-opacity:1;fill-rule:nonzero;stroke:#f9f9f9;stroke-width:0.1;stroke-miterlimit:4;stroke-dasharray:none" transform="translate(-11264, -21504)"/></svg>