<?xml version="1.0" encoding="UTF-8" standalone="no"?>
<svg
   xmlns:dc="http://purl.org/dc/elements/1.1/"
   xmlns:cc="http://creativecommons.org/ns#"
   xmlns:rdf="http://www.w3.org/1999/02/22-rdf-syntax-ns#"
   xmlns:svg="http://www.w3.org/2000/svg"
   xmlns="http://www.w3.org/2000/svg"
   xmlns:sodipodi="http://sodipodi.sourceforge.net/DTD/sodipodi-0.dtd"
   xmlns:inkscape="http://www.inkscape.org/namespaces/inkscape"
   width="1024"
   height="1024"
   id="U9519"
   version="1.1"
   inkscape:version="0.48.0 r9654"
   sodipodi:docname="U+9519.svg">
  <metadata
     id="metadata20">
    <rdf:RDF>
      <cc:Work
         rdf:about="">
        <dc:format>image/svg+xml</dc:format>
        <dc:type
           rdf:resource="http://purl.org/dc/dcmitype/StillImage" />
      </cc:Work>
    </rdf:RDF>
  </metadata>
  <defs
     id="defs18" />
  <sodipodi:namedview
     pagecolor="#ffffff"
     bordercolor="#666666"
     borderopacity="1"
     objecttolerance="10"
     gridtolerance="10"
     guidetolerance="10"
     inkscape:pageopacity="0"
     inkscape:pageshadow="2"
     inkscape:window-width="640"
     inkscape:window-height="480"
     id="namedview16"
     showgrid="false"
     inkscape:zoom="0.27441406"
     inkscape:cx="512"
     inkscape:cy="512"
     inkscape:window-x="0"
     inkscape:window-y="25"
     inkscape:window-maximized="0"
     inkscape:current-layer="U9519" />
  <path
     style="fill:#800000;fill-opacity:1;fill-rule:nonzero;stroke:#f9f9f9;stroke-width:0.1;stroke-miterlimit:4;stroke-dasharray:none"
     d="M 720.84375 153.125 C 698.98598 153.125 677.15625 157.7578 677.15625 167.03125 C 677.47347 202.43968 676.17367 237.84057 674.59375 273.21875 C 659.88649 276.12417 645.19839 279.07856 630.5 282.03125 C 630.69422 254.42537 631.68607 226.85116 634.84375 199.4375 C 637.58355 181.0926 551.08355 168.1551 548.34375 186.5 C 545.25508 223.6826 544.90817 261.03232 545.1875 298.34375 C 529.06898 301.12972 512.88979 303.62831 496.65625 305.65625 C 478.23495 308.13305 489.92235 394.94565 508.34375 392.46875 C 521.22319 390.27263 534.06777 387.94874 546.90625 385.53125 C 547.94141 418.89526 549.75964 452.23095 555.5625 485.125 C 559.1007 503.182 644.2257 486.4944 640.6875 468.4375 C 633.27229 435.82845 632.71957 402.14629 631.875 368.6875 C 634.93753 368.06507 637.99983 367.43368 641.0625 366.8125 C 650.90823 364.79256 660.74003 362.79207 670.59375 360.8125 C 668.80453 405.36261 667.82565 449.93955 667.90625 494.53125 C 668.13197 511.74865 668.16474 514.73862 668.28125 519.90625 C 644.10024 525.73236 619.96303 531.71836 595.84375 537.8125 C 556.17754 547.57776 516.2673 556.56334 477.03125 567.96875 C 471.93241 558.83573 466.25748 553.03909 461.1875 554.5625 C 457.3952 555.7628 453.6048 556.9872 449.8125 558.1875 C 420.58293 566.77049 391.25473 574.97095 361.9375 583.25 C 363.79599 561.91646 366.30319 540.54378 372.1875 520.03125 C 389.81946 516.20433 407.60236 513.06241 425.625 512.375 C 444.0806 511.1764 438.42445 424.1764 419.96875 425.375 C 385.55955 428.1632 351.8026 435.66615 318.375 444.09375 C 281.97564 453.78636 245.50949 464.13228 211.3125 480.1875 C 216.89455 456.11328 222.83349 432.11578 229.125 408.21875 C 246.01736 418.64403 263.74821 424.95182 268.46875 417.90625 C 285.94485 398.36775 311.37705 388.53245 335.03125 378.78125 C 364.03555 367.81485 394.07105 359.86255 425.03125 357.65625 C 443.30435 355.94305 435.24175 269.7867 416.96875 271.5 C 377.63555 275.7688 339.183 284.9759 302.25 299.375 C 285.69198 306.21372 269.07773 313.42682 253.375 322.03125 C 263.01449 289.56412 272.90556 257.12905 285.59375 225.71875 C 292.89485 208.63415 212.3636 174.19665 205.0625 191.28125 C 190.3524 231.49975 178.55775 272.71245 166.71875 313.84375 C 151.18145 368.43615 136.58895 423.31095 123.71875 478.59375 C 122.11625 486.11015 120.50875 493.6087 118.90625 501.125 C 115.20675 518.9835 199.39425 536.45225 203.09375 518.59375 C 204.49135 511.62815 205.9149 504.653 207.3125 497.6875 C 207.35942 497.4779 207.42177 497.27208 207.46875 497.0625 C 212.64548 522.01644 239.23082 564.55571 251.625 557.9375 C 260.66824 553.35168 269.97013 549.36637 279.4375 545.8125 C 277.28362 563.90142 276.03891 582.12951 274.6875 600.1875 C 274.54529 602.69774 274.4226 605.20841 274.28125 607.71875 C 255.39567 612.60042 236.35692 616.86277 217.03125 619.375 C 198.48725 620.5714 204.1435 707.97765 222.6875 706.78125 C 238.47672 704.54828 254.09331 701.35256 269.59375 697.65625 C 268.41083 723.86548 267.43008 750.08494 266.78125 776.3125 C 265.92595 817.3126 266.8065 858.45985 275.75 898.59375 C 282.0744 923.94275 295.16415 943.8615 316.34375 958.8125 C 342.71025 972.7797 367.65015 964.88855 391.03125 949.84375 C 409.79915 936.10025 426.2219 919.4608 443.3125 903.75 C 462.4311 886.1206 482.5963 869.71235 502.6875 853.21875 C 516.8161 841.73715 462.691 775.11205 448.5625 786.59375 C 427.09 803.87245 405.5343 821.06855 385 839.46875 C 375.71555 847.78738 366.60911 856.35065 357.25 864.59375 C 351.85848 836.23287 352.43842 806.92199 352.1875 778.15625 C 352.83174 743.39012 354.21983 708.63255 356.03125 673.90625 C 395.01952 662.65738 434.22137 652.18464 473.375 641.53125 C 477.32164 640.40139 481.27211 639.25494 485.21875 638.125 C 491.00689 647.57199 497.28022 653.55725 502.46875 651.6875 C 539.90685 639.28 578.40505 630.36155 616.59375 620.59375 C 675.38505 605.20185 734.4989 591.07815 794 578.71875 C 827.38309 573.74084 860.99638 563.4394 895.03125 564.09375 C 891.83594 562.96763 888.63281 561.84487 885.4375 560.71875 C 903.59076 561.84299 949.40212 500.68552 935.65625 490.0625 C 908.06015 476.5937 921.1215 479.8284 897.4375 477.0625 C 856.5174 478.2271 816.4038 487.29875 776.375 495.21875 C 768.9088 496.81587 761.45528 498.45047 754 500.09375 C 753.93318 497.65056 753.93065 498.00016 753.8125 493.8125 C 753.07986 444.02384 753.95706 394.23956 756.21875 344.5 C 771.96714 341.6989 787.72965 339.00454 803.53125 336.5 C 821.27735 333.6448 839.1526 331.9307 857.0625 330.5625 C 875.5025 328.7446 866.9401 241.8071 848.5 243.625 C 828.7929 245.9799 809.0635 248.3551 789.5 251.75 C 779.85128 253.40824 770.22709 255.13517 760.59375 256.875 C 762.08235 226.93451 763.49144 196.98982 764.5625 167.03125 C 764.5625 157.7578 742.70152 153.125 720.84375 153.125 z M 895.03125 564.09375 C 895.87596 564.39145 896.71778 564.7023 897.5625 565 C 897.6929 564.7283 897.83835 564.4592 897.96875 564.1875 C 896.98838 564.15012 896.01092 564.11258 895.03125 564.09375 z M 843.53125 622.125 C 837.39282 622.15121 831.27307 622.50052 825.375 622.9375 C 791.1785 626.4192 757.18335 631.68495 723.53125 638.71875 C 686.22815 646.65995 648.96695 655.1728 612.84375 667.5625 C 595.53585 674.2583 627.09835 755.85205 644.40625 749.15625 C 675.76925 737.18755 708.6733 729.9403 741.4375 723 C 766.58139 717.82996 791.95427 713.86395 817.46875 711.125 C 815.16319 719.70393 812.76671 728.2711 810.4375 736.84375 C 806.82844 750.04166 803.25532 763.24389 799.75 776.46875 C 798.23072 761.60121 794.17385 749.77995 787.40625 749.65625 C 769.52815 749.47515 751.62745 749.5245 733.84375 751.75 C 697.70275 756.2819 661.62325 762.8057 627.65625 776.4375 C 623.4632 778.36703 622.55746 784.71109 623.84375 793.0625 C 618.13668 767.95153 612.46571 742.82311 606.59375 717.75 C 601.91585 699.7691 517.16585 721.8316 521.84375 739.8125 C 529.91965 768.9818 536.43165 798.5599 543.15625 828.0625 C 549.54365 855.0141 554.7776 882.32295 564.4375 908.34375 C 566.5388 912.19515 568.61755 916.05495 570.71875 919.90625 C 577.44891 930.4306 612.93863 912.57565 632.53125 894.96875 C 629.39691 921.02467 636.91517 963.88314 649.9375 962.78125 C 685.7567 958.03055 721.5023 952.9924 757.5625 950.5 C 779.8656 949.4092 802.2926 950.19835 823.625 957.15625 C 833.52807 959.99029 845.35147 935.16628 850.78125 911.8125 C 855.19183 910.49853 858.10927 908.38043 858.65625 905.3125 C 860.40225 894.4512 862.23815 883.5994 864.71875 872.875 C 873.06765 834.9246 882.9632 797.3644 893.625 760 C 903.0774 726.8366 917.0867 693.2619 907.3125 658.625 C 902.9448 652.0614 899.75075 644.52375 894.21875 638.90625 C 880.589 625.06597 861.94654 622.04638 843.53125 622.125 z M 843.03125 709.15625 C 844.87031 709.15254 846.71037 709.22628 848.5625 709.4375 C 849.3043 709.5221 851.4234 709.96805 850.6875 710.09375 C 847.92839 710.56495 845.39179 710.15202 843.03125 709.15625 z M 626.21875 803.4375 C 633.5992 828.59178 653.20323 861.09788 664.28125 856 C 689.70615 845.2516 717.10435 840.7257 744.34375 837.5 C 757.68531 835.89752 771.07595 836.03067 784.46875 836.40625 C 783.07091 842.16721 781.69496 847.94602 780.34375 853.71875 C 779.52451 857.08596 778.74524 860.46049 778 863.84375 C 769.19078 863.70405 760.34927 863.94928 751.46875 864.625 C 716.03905 867.19225 680.84743 871.87049 645.5 875.25 C 645.40428 874.30363 645.134 873.42094 644.625 872.625 C 644.89511 873.49917 645.16741 874.37583 645.4375 875.25 C 645.40655 875.25296 645.3747 875.24704 645.34375 875.25 C 635.59392 854.53948 634.17317 830.50673 627.4375 808.84375 C 627.02683 807.04278 626.62883 805.2386 626.21875 803.4375 z M 363.53125 885.25 C 367.13814 888.78142 365.61642 887.95084 363.53125 885.25 z "
     id="path21469" />
</svg>
