<?xml version="1.0" encoding="UTF-8" standalone="no"?>
<svg
   xmlns:dc="http://purl.org/dc/elements/1.1/"
   xmlns:cc="http://creativecommons.org/ns#"
   xmlns:rdf="http://www.w3.org/1999/02/22-rdf-syntax-ns#"
   xmlns:svg="http://www.w3.org/2000/svg"
   xmlns="http://www.w3.org/2000/svg"
   xmlns:sodipodi="http://sodipodi.sourceforge.net/DTD/sodipodi-0.dtd"
   xmlns:inkscape="http://www.inkscape.org/namespaces/inkscape"
   width="1024"
   height="1024"
   id="U96F6"
   version="1.1"
   inkscape:version="0.48.0 r9654"
   sodipodi:docname="U+96F6.svg">
  <metadata
     id="metadata20">
    <rdf:RDF>
      <cc:Work
         rdf:about="">
        <dc:format>image/svg+xml</dc:format>
        <dc:type
           rdf:resource="http://purl.org/dc/dcmitype/StillImage" />
      </cc:Work>
    </rdf:RDF>
  </metadata>
  <defs
     id="defs18" />
  <sodipodi:namedview
     pagecolor="#ffffff"
     bordercolor="#666666"
     borderopacity="1"
     objecttolerance="10"
     gridtolerance="10"
     guidetolerance="10"
     inkscape:pageopacity="0"
     inkscape:pageshadow="2"
     inkscape:window-width="640"
     inkscape:window-height="480"
     id="namedview16"
     showgrid="false"
     inkscape:zoom="0.27441406"
     inkscape:cx="512"
     inkscape:cy="512"
     inkscape:window-x="0"
     inkscape:window-y="25"
     inkscape:window-maximized="0"
     inkscape:current-layer="U96F6" />
  <path
     style="fill:#2b0000;fill-opacity:1;fill-rule:nonzero;stroke:#f9f9f9;stroke-width:0.1;stroke-miterlimit:4;stroke-dasharray:none"
     d="M 544.21875 21.96875 C 530.45152 22.002672 516.70412 22.1635 502.9375 22.46875 C 446.2917 24.08375 389.67235 26.52625 333.15625 30.78125 C 295.26675 33.60825 257.2342 36.14625 219.8125 43.03125 C 201.5222 47.27725 221.5222 133.52725 239.8125 129.28125 C 272.7246 122.20125 306.4583 119.9575 339.9375 117.1875 C 392.57253 112.85639 445.31447 110.36928 498.09375 108.75 C 498.62597 123.84815 499.01212 138.95711 499.3125 154.0625 C 471.17204 155.20856 443.0623 157.11497 415.03125 160.0625 C 378.34165 164.0495 341.6465 168.27575 305.375 175.21875 C 297.15309 177.12661 296.68622 195.6244 300.3125 215 C 274.34922 210.83017 238.0653 214.0052 237.6875 226 C 237.0178 261.988 237.7859 297.944 239.8125 333.875 C 241.7424 367.021 247.23505 399.71175 256.84375 431.46875 C 260.63925 444.78075 266.93745 456.39125 274.78125 467.65625 C 286.00773 481.64527 349.40664 431.87519 345.125 414.46875 C 343.96862 412.36047 340.75004 406.15112 340.875 405.03125 C 332.6703 380.40225 328.4558 354.80325 326.75 328.90625 C 325.44427 306.4411 324.67408 283.93188 324.9375 261.4375 C 325.0744 261.41583 325.20702 261.40672 325.34375 261.375 C 341.47184 257.71698 357.76184 254.96326 374.125 252.625 C 356.81238 271.67832 337.86598 318.6151 350.625 324.8125 C 369.494 333.6745 387.54885 344.1515 405.59375 354.5625 C 412.96075 358.9565 420.68005 362.857 427.65625 367.875 C 443.35115 378.213 492.10115 304.24325 476.40625 293.90625 C 467.56465 288.29825 458.47975 283.09575 449.28125 278.09375 C 432.14035 268.40182 414.97462 258.72976 397.5625 249.53125 C 406.59618 248.42202 415.62275 247.38219 424.65625 246.34375 C 449.86207 243.57736 475.15657 241.78708 500.46875 240.71875 C 500.95228 296.318 501.81246 351.91276 504.125 407.46875 C 504.97414 427.53878 506.54873 447.55996 508.3125 467.5625 C 501.82184 470.25043 495.39741 473.10872 489.03125 476.09375 C 497.91794 455.85661 502.52508 433.70398 493.9375 429.9375 C 479.3236 423.6775 464.8152 417.18 450.625 410 C 428.5004 398.663 406.6175 386.81475 384.5625 375.34375 C 367.5483 367.40375 330.14205 447.6225 347.15625 455.5625 C 368.56535 465.7965 389.38565 477.1825 410.46875 488.0625 C 419.8341 492.84776 429.31137 497.40574 438.84375 501.84375 C 400.80731 522.80548 364.1503 546.09849 329 571.59375 C 305.3301 589.49075 282.37785 608.31525 260.09375 627.90625 C 250.88445 636.06525 241.9548 644.52675 233.125 653.09375 C 227.4142 658.98175 231.17505 654.8115 222.96875 666.5625 C 214.4074 682.70119 287.7677 722.28798 300.5 709.6875 C 298.94604 711.76837 297.39776 713.85652 295.84375 715.9375 C 303.2821 708.29936 310.87565 700.81514 318.75 693.625 C 338.6227 675.567 359.22725 658.27175 380.46875 641.84375 C 413.54025 617.36175 448.33145 595.4125 484.59375 575.9375 C 502.8486 566.36805 521.25879 556.66206 540.5 549.15625 C 542.46595 556.21067 545.50176 560.87983 549.71875 561.09375 C 580.22185 563.03475 609.6986 571.56725 638.625 580.90625 C 676.641 594.33125 712.86095 612.21 749.21875 629.5 C 779.14775 643.74 809.0146 658.1885 838.25 673.8125 C 846.3953 678.3115 854.4943 682.90525 862.1875 688.15625 C 866.6843 691.22625 867.1847 691.23575 864.875 690.59375 C 878.8512 703.17075 938.13245 637.29575 924.15625 624.71875 C 910.36265 613.36575 894.9866 604.41975 879.125 596.21875 C 848.6198 580.34575 817.6037 565.4725 786.5 550.8125 C 746.6926 532.0265 706.9882 512.69825 665.375 498.15625 C 643.21416 490.98074 620.83332 484.36442 598.0625 479.53125 C 596.83421 469.48243 595.65052 459.44207 594.59375 449.375 C 608.59737 455.99842 622.90389 462.01575 637.0625 468.28125 C 644.5999 471.51025 652.0516 474.83875 659.0625 479.09375 C 675.41 488.22575 718.4725 411.16425 702.125 402.03125 C 696.35084 398.92651 690.5148 395.93432 684.59375 393.15625 C 704.41893 389.17588 746.78686 334.22899 733.9375 323.75 C 731.0745 321.45 728.20665 319.175 725.34375 316.875 C 707.53185 303.058 689.41265 289.52725 672.78125 274.28125 C 659.12095 261.40625 598.43345 325.8125 612.09375 338.6875 C 631.20445 355.1945 651.35145 370.44175 671.15625 386.09375 C 672.12321 386.89681 673.09551 387.69714 674.0625 388.5 C 673.49321 388.26862 672.91583 388.03853 672.34375 387.8125 C 652.57975 379.2135 632.3389 371.31275 613.9375 359.96875 C 608.31281 356.39465 598.72191 363.52131 589.375 374.625 C 587.43065 329.76082 586.55493 284.87911 586.34375 239.96875 C 618.75174 241.26242 651.06535 244.41769 683.375 247.1875 C 714.1811 249.6685 745.0881 250.96925 775.9375 252.78125 C 790.3336 254.17625 805.31955 253.00325 819.21875 257.65625 C 822.60545 258.81725 824.48705 261.46625 826.78125 264.03125 C 828.74305 266.79325 829.9575 269.102 826.6875 265.625 C 821.5883 284.04 814.3466 301.7695 807.125 319.4375 C 795.1059 346.8825 784.29155 374.80525 773.59375 402.78125 C 769.54305 413.90425 764.63065 424.65575 758.84375 434.96875 C 749.95885 451.43875 827.6151 493.31375 836.5 476.84375 C 843.8298 462.92175 850.4934 448.6675 855.75 433.8125 C 865.9321 406.5395 876.2533 379.34275 888.0625 352.71875 C 899.7835 324.35975 912.8454 295.64825 915.0625 264.65625 C 913.8431 240.80625 907.3679 219.66025 890.25 202.28125 C 876.7083 188.70125 861.43385 177.545 842.65625 172.375 C 822.32905 167.162 801.6457 165.48075 780.6875 165.09375 C 750.6615 163.60075 720.6074 162.52925 690.625 160.28125 C 655.76988 157.47369 620.89272 154.28645 585.9375 153.125 C 585.88049 138.21907 585.86864 123.31218 585.84375 108.40625 C 612.40795 108.84309 638.9805 109.66572 665.53125 110.5625 C 699.63905 111.7495 733.73135 113.29175 767.84375 114.34375 C 781.91375 115.06075 795.9887 114.6225 810.0625 114.4375 C 828.8841 113.8265 826.0091 25.10675 807.1875 25.71875 C 794.7784 26.32875 782.3672 26.93825 769.9375 26.53125 C 735.9918 25.97825 702.0633 24.77325 668.125 23.90625 C 626.83863 22.83225 585.52045 21.866984 544.21875 21.96875 z M 345.125 414.46875 C 345.62277 415.37626 345.83606 415.74894 345 414.125 C 345.03504 414.23934 345.09614 414.35144 345.125 414.46875 z M 345 414.125 C 344.77935 413.40497 344.44521 412.74996 343.96875 412.15625 C 344.45838 413.08614 344.7241 413.5891 345 414.125 z M 485.59375 583.6875 C 466.84403 583.79366 421.07639 643.53486 434.625 654.3125 C 454.944 669.6375 474.62315 685.77725 494.40625 701.78125 C 498.04201 704.71334 501.70012 707.64848 505.375 710.53125 C 467.53082 714.79116 429.97321 720.69652 392.75 728.875 C 374.4428 732.9 393.41155 819.18125 411.71875 815.15625 C 447.91345 805.61825 484.8402 799.923 522 795.875 C 566.21534 791.37029 610.64907 790.741 655.03125 792.09375 C 636.78346 811.88829 620.16535 833.12294 603.8125 854.5 C 592.0533 869.008 582.63825 885.7885 568.71875 898.4375 C 567.76019 899.35344 566.60456 900.01815 565.375 900.5625 C 560.57763 898.05287 555.80137 895.50017 551.03125 892.9375 C 524.06815 878.2525 497.3641 863.086 470.625 848 C 453.9294 839.394 413.3669 918.11275 430.0625 926.71875 C 456.8311 940.49075 483.01805 955.33575 509.53125 969.59375 C 542.47055 987.09975 575.99535 1003.5187 609.15625 1020.5938 C 620.81065 1026.4548 632.17385 1032.8115 643.40625 1039.4375 C 659.72095 1048.6815 703.3147 971.77525 687 962.53125 C 674.3762 955.62725 661.6694 948.86925 648.75 942.53125 C 648.44595 942.37923 648.14783 942.21445 647.84375 942.0625 C 656.90829 930.94971 665.28619 919.27188 673.65625 907.5625 C 690.67215 885.0215 707.96985 862.61725 727.90625 842.53125 C 744.95475 825.11025 762.6893 808.4445 780.5 791.8125 C 783.5066 788.1335 788.03375 785.29025 789.53125 780.78125 C 793.38965 769.16425 799.32965 756.47925 796.15625 744.65625 C 788.23175 715.13425 765.3506 708.077 740.875 707.625 C 713.0745 707.254 685.31725 706.076 657.53125 705.125 C 632.14027 704.53694 606.71898 704.51881 581.34375 705.3125 C 592.24458 688.06488 599.05091 669.67938 591.84375 664.8125 C 577.15595 655.2375 563.23105 644.554 549.53125 633.625 C 529.55705 617.485 509.6145 601.30625 489.75 585.03125 C 488.60181 584.11789 487.18271 583.6785 485.59375 583.6875 z M 743 796.15625 C 743.21817 796.17305 743.43808 796.20192 743.65625 796.21875 C 743.8679 796.30257 744.37217 796.4944 744.53125 796.5625 C 744.01077 796.44152 743.51159 796.28985 743 796.15625 z "
     id="path10074" />
</svg>
