<?xml version="1.0" encoding="UTF-8" standalone="no"?>
<svg
   xmlns:dc="http://purl.org/dc/elements/1.1/"
   xmlns:cc="http://creativecommons.org/ns#"
   xmlns:rdf="http://www.w3.org/1999/02/22-rdf-syntax-ns#"
   xmlns:svg="http://www.w3.org/2000/svg"
   xmlns="http://www.w3.org/2000/svg"
   xmlns:sodipodi="http://sodipodi.sourceforge.net/DTD/sodipodi-0.dtd"
   xmlns:inkscape="http://www.inkscape.org/namespaces/inkscape"
   width="1024"
   height="1024"
   id="U9634"
   version="1.1"
   inkscape:version="0.48.0 r9654"
   sodipodi:docname="U+9634.svg">
  <metadata
     id="metadata13">
    <rdf:RDF>
      <cc:Work
         rdf:about="">
        <dc:format>image/svg+xml</dc:format>
        <dc:type
           rdf:resource="http://purl.org/dc/dcmitype/StillImage" />
      </cc:Work>
    </rdf:RDF>
  </metadata>
  <defs
     id="defs11" />
  <sodipodi:namedview
     pagecolor="#ffffff"
     bordercolor="#666666"
     borderopacity="1"
     objecttolerance="10"
     gridtolerance="10"
     guidetolerance="10"
     inkscape:pageopacity="0"
     inkscape:pageshadow="2"
     inkscape:window-width="640"
     inkscape:window-height="480"
     id="namedview9"
     showgrid="false"
     inkscape:zoom="0.27441406"
     inkscape:cx="512"
     inkscape:cy="512"
     inkscape:window-x="0"
     inkscape:window-y="25"
     inkscape:window-maximized="0"
     inkscape:current-layer="U9634" />
  <path
     style="fill:#2b1100;fill-opacity:1;fill-rule:nonzero;stroke:none"
     d="M 729.90625 159.5 C 694.2035 159.18444 658.96019 163.9645 625.09375 176.53125 C 593.46884 188.90395 562.76932 203.87884 540.15625 229.90625 C 516.71294 229.23458 491.59375 233.91489 491.59375 243.90625 C 491.92645 295.65825 489.02465 347.38125 486.09375 399.03125 C 481.37905 478.91725 473.3647 558.555 465 638.125 C 458.1556 702.988 452.91065 767.9935 450.84375 833.1875 C 450.22785 854.4785 450.69325 875.78925 452.15625 897.03125 C 453.88135 915.66125 541.69385 907.504 539.96875 888.875 C 537.69685 871.101 537.3765 853.152 537.4375 835.25 C 538.20479 785.56036 541.27161 735.9883 545.65625 686.5 C 548.94142 702.26205 554.6638 714.72515 561.8125 714 C 601.1394 707.958 639.805 698.2915 678.5625 689.4375 C 707.01 685.2985 737.35695 672.9755 766.46875 678.4375 C 785.02775 680.2835 793.71525 592.7835 775.15625 590.9375 C 735.88745 588.1875 697.3814 595.85175 659.25 604.84375 C 624.0233 612.87275 588.82885 621.77075 552.90625 626.09375 C 552.43522 626.14155 551.9674 626.25155 551.53125 626.40625 C 555.72886 585.4754 559.8288 544.54393 563.5 503.5625 C 567.0845 507.13369 570.62337 508.82648 573.75 507.6875 C 606.9883 495.1565 641.7749 487.53025 676.4375 480.15625 C 705.4885 474.10925 734.8182 469.98625 764.5 469.78125 C 783.0467 469.40325 781.2343 381.96575 762.6875 382.34375 C 727.572 383.40675 692.84795 387.87475 658.46875 395.21875 C 628.97161 401.43135 599.50158 408.01704 570.53125 416.34375 C 570.81187 412.30892 571.07711 408.2547 571.34375 404.21875 C 574.04576 362.80059 576.535 321.37069 578.40625 279.90625 C 591.68236 287.82556 604.06864 291.78556 608.3125 286.25 C 620.9156 271.751 639.17285 264.69625 656.65625 258.03125 C 683.67885 248.18525 711.8024 245.2185 740.3125 247.1875 C 759.2055 249.3825 777.2403 254.1455 787.6875 270.9375 C 803.9672 306.5085 802.6622 347.121 803.0625 385.375 C 801.8805 464.908 797.81325 544.35975 794.90625 623.84375 C 792.07185 704.07975 789.3944 784.336 789 864.625 C 786.4595 896.998 794.20775 932.9095 788.03125 963.9375 C 789.87885 959.67899 791.7149 955.4145 793.5625 951.15625 C 791.19072 969.37645 849.80102 1019.7084 861.4375 1006.5625 C 865.6253 999.0865 869.8123 991.601 874 984.125 C 881.0126 944.607 874.00135 904.4385 874.65625 864.5625 C 874.12375 785.3545 876.4528 706.17725 879.4375 627.03125 C 882.537 546.30425 886.9286 465.60975 888.8125 384.84375 C 888.675 326.75875 888.63975 266.33425 855.71875 215.90625 C 850.45865 209.84425 845.7425 203.26075 839.9375 197.71875 C 814.2982 173.24175 779.53475 163.5615 745.21875 159.9375 C 740.10154 159.69362 735.00664 159.54508 729.90625 159.5 z M 203.625 213.46875 C 177.04344 213.80562 136.80264 225.90425 139.3125 238.5625 C 148.5111 277.6895 153.50885 317.4815 157.28125 357.4375 C 162.34065 434.4235 166.3339 511.48825 170.4375 588.53125 C 174.5504 659.57625 175.4731 730.74475 178.1875 801.84375 C 179.432 839.67575 184.88495 877.17175 188.03125 914.84375 C 188.60605 921.40075 188.75185 927.96925 189.21875 934.53125 C 191.44565 953.27225 279.7893 942.77125 277.5625 924.03125 C 277.2883 922.10625 275.78365 910.0715 275.59375 906.0625 C 271.49915 870.1175 265.79315 834.34625 264.09375 798.15625 C 260.68835 726.78825 259.4259 655.333 255.1875 584 C 251.0002 505.971 247.1067 427.93125 242.875 349.90625 C 241.71919 335.87853 240.37643 321.87763 238.84375 307.90625 C 269.07698 307.29528 299.30028 307.6565 329.5 309.28125 C 337.93 310.50359 346.91052 311.19776 355.84375 312.28125 C 347.96554 317.71874 339.82443 322.77525 331.65625 327.71875 C 314.69295 337.99575 296.9411 346.9215 280.125 357.4375 C 255.6787 373.4245 246.50055 402.526 260.15625 429.375 C 262.70915 434.395 266.86605 438.4125 270.21875 442.9375 C 287.57045 459.3855 306.8159 473.46275 323.4375 490.71875 C 337.8597 506.49475 346.01945 525.2655 349.71875 546.0625 C 350.97895 559.9585 349.74115 574.06175 341.59375 585.71875 C 340.29805 587.41475 333.54105 595.32975 332.84375 590.09375 C 331.98885 588.90475 332.4524 589.53575 331.375 588.21875 C 313.4837 582.79675 287.95245 667.1395 305.84375 672.5625 C 328.57435 678.3995 317.11355 676.62125 340.15625 678.03125 C 375.49765 673.28625 399.2332 659.27225 418.4375 628.65625 C 434.8987 597.24425 441.4981 563.93225 435.5625 528.53125 C 427.4891 491.53525 412.66565 457.5945 386.34375 429.6875 C 379.60181 422.77189 372.68125 416.08023 365.59375 409.5625 C 369.53894 407.27367 373.44329 404.95794 377.28125 402.5 C 404.68185 385.656 432.2492 367.91425 453.25 343.15625 C 478.8342 304.61325 477.38565 273.1245 436.78125 246.3125 C 404.62355 230.7435 369.70925 224.485 334.15625 222.375 C 299.51575 220.531 264.8655 220.19825 230.1875 219.65625 C 228.70107 219.65625 227.31337 220.22757 226.0625 221.25 C 224.83389 215.57049 215.6367 213.31653 203.625 213.46875 z M 388.15625 320.1875 C 390.88912 321.43311 393.55546 322.8656 396.09375 324.53125 C 392.74679 324.17035 390.14274 322.55551 388.15625 320.1875 z "
     id="path12559" />
</svg>
