<?xml version="1.0" encoding="UTF-8" standalone="no"?>
<svg
   xmlns:dc="http://purl.org/dc/elements/1.1/"
   xmlns:cc="http://creativecommons.org/ns#"
   xmlns:rdf="http://www.w3.org/1999/02/22-rdf-syntax-ns#"
   xmlns:svg="http://www.w3.org/2000/svg"
   xmlns="http://www.w3.org/2000/svg"
   xmlns:sodipodi="http://sodipodi.sourceforge.net/DTD/sodipodi-0.dtd"
   xmlns:inkscape="http://www.inkscape.org/namespaces/inkscape"
   width="1024"
   height="1024"
   id="U9664"
   version="1.1"
   inkscape:version="0.48.0 r9654"
   sodipodi:docname="U+9664.svg">
  <metadata
     id="metadata16">
    <rdf:RDF>
      <cc:Work
         rdf:about="">
        <dc:format>image/svg+xml</dc:format>
        <dc:type
           rdf:resource="http://purl.org/dc/dcmitype/StillImage" />
      </cc:Work>
    </rdf:RDF>
  </metadata>
  <defs
     id="defs14" />
  <sodipodi:namedview
     pagecolor="#ffffff"
     bordercolor="#666666"
     borderopacity="1"
     objecttolerance="10"
     gridtolerance="10"
     guidetolerance="10"
     inkscape:pageopacity="0"
     inkscape:pageshadow="2"
     inkscape:window-width="640"
     inkscape:window-height="480"
     id="namedview12"
     showgrid="false"
     inkscape:zoom="0.27441406"
     inkscape:cx="512"
     inkscape:cy="512"
     inkscape:window-x="0"
     inkscape:window-y="25"
     inkscape:window-maximized="0"
     inkscape:current-layer="U9664" />
  <path
     style="fill:#800000;fill-opacity:1;fill-rule:nonzero;stroke:#f9f9f9;stroke-width:0.1;stroke-miterlimit:4;stroke-dasharray:none"
     d="M 558.25 128.96875 C 554.1303 128.93295 551.05084 130.03673 549.625 132.5625 C 525.43138 179.9703 501.58952 227.52255 477.84375 275.15625 C 447.12105 336.50422 419.08548 399.1472 391.46875 461.9375 C 376.42901 444.58673 359.07175 429.31826 339.625 415.875 C 338.73254 415.21922 326.70918 406.38376 320.21875 401.625 C 328.21374 391.07284 338.31555 380.61448 343.4375 369.125 C 365.67343 324.579 365.52631 287.71675 317.03125 261.96875 C 291.42801 251.99495 264.67263 246.12365 238.125 239.21875 C 220.12412 234.64935 198.59287 319.52435 216.59375 324.09375 C 231.55667 327.85932 246.94797 330.58738 261.84375 334.78125 C 249.09709 351.95946 236.63173 368.77209 228.1875 388.6875 C 227.32408 396.1924 224.89148 403.69705 225.59375 411.21875 C 229.03729 448.10135 261.93784 466.6057 288.84375 485.875 C 311.91021 502.318 333.62286 520.8953 345.71875 546.9375 C 350.273 559.8047 343.75953 563.57205 333.59375 569.46875 C 317.75108 578.38895 300.78572 577.8992 283.28125 576.5625 C 265.09025 575.804 261.52775 661.554 279.71875 662.3125 C 322.91142 663.3394 351.81355 661.09405 388.78125 636.15625 C 395.35147 630.25145 402.65138 625.0853 408.46875 618.4375 C 424.26794 600.38307 431.95789 579.28412 432.71875 557.5 C 440.78861 557.88382 446.74307 556.37615 448.21875 552.15625 C 449.54547 548.04632 450.92783 543.95218 452.34375 539.875 C 457.9843 559.26644 467.13364 576.36973 475.46875 574.21875 C 509.76449 564.37035 544.14908 554.78139 578.59375 545.46875 C 580.39225 570.2894 582.31418 595.09538 584.25 619.90625 C 540.15568 631.69566 496.0429 643.66735 451.09375 651.78125 C 432.84012 655.05755 448.27762 741.12005 466.53125 737.84375 C 478.67871 735.13683 490.78879 732.26973 502.875 729.3125 C 482.77452 747.86029 463.95542 767.76824 445.46875 787.9375 C 427.66018 807.4267 411.71096 828.3897 397.15625 850.375 C 387.19916 865.8615 460.19915 912.83025 470.15625 897.34375 C 481.41734 879.06205 494.49684 862.0264 508.875 846.0625 C 531.85244 821.0009 555.32862 796.13145 582.71875 775.78125 C 592.60278 768.23341 572.03271 734.57784 552.9375 716.53125 C 565.40837 713.23585 577.86171 709.86947 590.3125 706.5 C 593.66129 757.07579 596.86331 807.68549 599.875 858.28125 C 601.54612 879.06245 602.11549 899.8195 601.09375 920.625 C 600.63183 938.9688 687.10059 941.12505 687.5625 922.78125 C 687.74038 899.38545 686.99076 876.0621 684.75 852.75 C 684.38813 847.61573 684.04766 842.47808 683.6875 837.34375 C 706.13473 835.75396 727.71369 844.7268 747.96875 853.59375 C 780.46633 869.71545 811.40481 888.76795 842.34375 907.65625 C 852.63168 913.81045 862.72747 920.2029 872.375 927.3125 C 887.46217 937.9854 937.77467 866.8604 922.6875 856.1875 C 911.09405 848.2048 899.28238 840.59965 887.0625 833.59375 C 852.56126 812.97685 818.24089 791.8448 782 774.375 C 748.61503 760.2102 713.90672 748.76184 677.6875 750.4375 C 676.2157 728.58407 674.77876 706.73327 673.375 684.875 C 699.01773 678.67425 724.71789 672.73051 750.375 666.59375 C 767.28314 661.90245 759.19455 664.57305 774.75 658.78125 C 791.89057 651.68105 758.42182 570.86865 741.28125 577.96875 C 735.72072 581.24055 739.56659 579.2343 729.1875 582.625 C 708.75381 588.08317 688.21222 593.20395 667.6875 598.3125 C 665.97706 573.49531 664.37012 548.66082 663.28125 523.8125 C 683.68338 519.13121 704.242 515.16212 725.09375 513 C 743.28946 510.7794 732.82071 425.0294 714.625 427.25 C 672.79124 432.9241 631.86626 443.19745 591.0625 453.90625 C 552.21737 464.07704 513.48391 474.68466 474.53125 484.4375 C 499.13568 426.6123 524.75537 369.18997 553.3125 313.1875 C 558.70468 302.59487 564.08909 291.99304 569.5 281.40625 C 588.73636 304.19572 608.27126 326.70263 629.09375 348.15625 C 665.36116 384.45935 706.56787 415.1659 745.1875 448.8125 C 760.85306 464.4311 753.92704 456.61665 766.28125 471.90625 C 778.11724 485.90215 844.08599 430.1209 832.25 416.125 C 812.79903 393.7678 823.08809 404.55515 801.375 383.71875 C 764.38227 352.03615 725.21027 322.84405 690.53125 288.53125 C 662.84413 259.98885 637.83456 229.30777 613.34375 198.03125 C 617.46186 190.51776 621.62009 183.01742 625.84375 175.5625 C 633.54328 161.92328 580.4964 129.16206 558.25 128.96875 z M 128.71875 263.4375 C 108.01698 264.22385 56.607957 307.26395 66.65625 320.03125 C 93.163193 361.28865 109.82494 407.8491 125.90625 453.875 C 153.57869 537.3407 170.03691 623.80545 186.65625 709.96875 C 199.03236 774.04435 210.87149 838.2263 219.84375 902.875 C 222.56981 924.1282 221.24835 914.05165 223.71875 933.09375 C 226.35542 951.33135 312.35542 938.89385 309.71875 920.65625 C 306.69293 901.72095 308.29458 911.9175 304.9375 890.0625 C 294.33397 824.4502 281.53485 759.24755 268.75 694.03125 C 251.15676 604.05745 233.94405 513.7491 205.625 426.375 C 186.79584 371.1374 167.06172 315.35445 135.4375 265.90625 C 134.00203 264.08236 131.67615 263.32516 128.71875 263.4375 z M 278.71875 340.40625 C 280.50906 341.11474 282.2997 341.83623 284.0625 342.625 C 284.85074 345.1125 286.06538 347.9988 278.875 340.5625 C 278.82343 340.50917 278.76953 340.45979 278.71875 340.40625 z "
     id="path21079" />
</svg>
