<?xml version="1.0" encoding="UTF-8" standalone="no"?>
<svg
   xmlns:dc="http://purl.org/dc/elements/1.1/"
   xmlns:cc="http://creativecommons.org/ns#"
   xmlns:rdf="http://www.w3.org/1999/02/22-rdf-syntax-ns#"
   xmlns:svg="http://www.w3.org/2000/svg"
   xmlns="http://www.w3.org/2000/svg"
   xmlns:sodipodi="http://sodipodi.sourceforge.net/DTD/sodipodi-0.dtd"
   xmlns:inkscape="http://www.inkscape.org/namespaces/inkscape"
   width="1024"
   height="1024"
   id="U9633"
   version="1.1"
   inkscape:version="0.48.0 r9654"
   sodipodi:docname="U+9633.svg">
  <metadata
     id="metadata13">
    <rdf:RDF>
      <cc:Work
         rdf:about="">
        <dc:format>image/svg+xml</dc:format>
        <dc:type
           rdf:resource="http://purl.org/dc/dcmitype/StillImage" />
      </cc:Work>
    </rdf:RDF>
  </metadata>
  <defs
     id="defs11" />
  <sodipodi:namedview
     pagecolor="#ffffff"
     bordercolor="#666666"
     borderopacity="1"
     objecttolerance="10"
     gridtolerance="10"
     guidetolerance="10"
     inkscape:pageopacity="0"
     inkscape:pageshadow="2"
     inkscape:window-width="640"
     inkscape:window-height="480"
     id="namedview9"
     showgrid="false"
     inkscape:zoom="0.27441406"
     inkscape:cx="512"
     inkscape:cy="512"
     inkscape:window-x="0"
     inkscape:window-y="25"
     inkscape:window-maximized="0"
     inkscape:current-layer="U9633" />
  <path
     style="fill:#916f6f;fill-opacity:1;fill-rule:nonzero;stroke:#f9f9f9;stroke-width:0.1;stroke-miterlimit:4;stroke-dasharray:none"
     d="M 654.28125 228.90625 C 652.34275 228.92881 650.41827 228.98844 648.5 229.03125 C 607.1389 231.38625 566.10455 236.873 524.96875 241.625 C 491.90635 244.942 458.6896 246.695 425.75 251.125 C 412.05053 253.76466 417.77889 302.39671 429.1875 325.78125 C 407.98617 323.07077 380.64816 325.25507 371.25 332.59375 C 388.24112 299.88764 376.19293 269.43085 334.09375 255.4375 C 304.75495 250.0875 274.98855 251.603 245.28125 251.75 C 214.15625 251.743 182.89255 251.92825 151.96875 247.90625 C 142.45422 246.72606 134.97466 269.05888 132.40625 291.5 C 105.95868 289.89147 67.434736 297.77514 68.625 310.1875 C 74.088 357.9565 77.69435 405.92275 81.53125 453.84375 C 87.49865 528.15675 91.4824 602.60025 95.625 677.03125 C 99.0099 738.12625 102.011 799.2485 107.625 860.1875 C 110.3383 889.3095 114.19245 918.298 119.09375 947.125 C 119.22735 948.177 119.33515 949.22925 119.46875 950.28125 C 122.75845 968.81025 210.13345 953.28 206.84375 934.75 C 206.53505 933.312 206.21485 931.8765 205.90625 930.4375 C 200.30695 904.4645 196.73595 878.147 193.78125 851.75 C 187.55615 792.036 184.29495 732.08025 180.78125 672.15625 C 176.37685 597.22525 172.2992 522.27825 166.9375 447.40625 C 164.33656 410.61221 161.72588 373.82256 159.09375 337.03125 C 187.76423 338.83825 216.49789 338.90442 245.21875 338.9375 C 245.86923 339.01267 246.53282 339.06507 247.1875 339.125 C 245.85641 340.5519 244.54317 341.97283 243.21875 343.40625 C 230.91965 357.05625 218.75035 370.835 206.46875 384.5 C 180.01325 415.096 193.1935 449.40875 226.5 465.84375 C 236.612 469.52775 243.7654 475.71275 250.375 483.96875 C 264.1388 501.56975 269.0427 523.0965 273.125 544.5625 C 277.6072 571.5205 279.22385 598.8775 275.09375 625.9375 C 273.8255 631.97065 271.97237 637.82336 269.15625 643.28125 C 248.86898 654.47283 216.28362 705.07506 228.875 714 C 259.6169 734.102 285.1034 740.363 317.9375 719.625 C 342.5021 697.775 356.8575 670.335 361.9375 637.625 C 366.4714 601.027 365.50045 564.26325 358.90625 527.90625 C 351.74485 491.59625 341.2018 456.1565 317.375 426.9375 C 312.23412 421.04164 306.88957 415.40639 301.25 410.15625 C 303.40514 407.70484 305.55416 405.25456 307.71875 402.8125 C 324.26885 384.7685 341.798 367.723 359.1875 350.5 C 362.53237 346.47728 365.41913 342.44476 367.90625 338.4375 C 370.10158 382.33291 376.02257 425.97078 381.1875 469.59375 C 389.2094 536.56675 397.52495 603.4985 406.78125 670.3125 C 412.84055 711.9545 418.45555 753.65125 424.59375 795.28125 C 426.45985 808.43925 425.6609 802.401 427.0625 813.375 C 427.92322 819.09227 436.82556 821.79325 448.65625 822.25 C 450.58582 835.85979 454.74732 846.23544 461.15625 846.28125 C 500.98745 844.91525 540.4515 839.012 579.9375 834 C 617.1084 829.242 654.4099 824.56825 691.9375 824.78125 C 697.7049 824.43325 708.46625 825.8375 711.59375 828.4375 C 728.59165 836.3475 765.90405 756.2235 748.90625 748.3125 C 748.87585 748.30015 748.8429 748.29358 748.8125 748.28125 C 755.24732 702.87037 758.17534 657.05651 761.0625 611.28125 C 765.7867 545.20725 771.2031 479.14125 773.0625 412.90625 C 773.5827 364.19425 776.58025 312.687 752.40625 268.625 C 747.35885 262.805 743.06635 256.24425 737.28125 251.15625 C 714.38656 231.02156 683.35878 228.56781 654.28125 228.90625 z M 657.59375 314.59375 C 668.7828 314.52532 695.31401 322.75613 681.78125 321.09375 C 686.95415 351.11075 686.87075 381.95525 686.84375 412.40625 C 686.2045 445.7916 684.46383 479.12245 682.28125 512.4375 C 681.05122 511.42381 679.71836 510.88493 678.25 510.875 C 641.6973 511.054 605.21055 514.08575 568.90625 518.21875 C 537.43013 522.01679 505.73885 526.13161 475.28125 535.09375 C 472.19965 510.08087 469.28044 485.05481 466.53125 460 C 462.25125 419.833 457.11455 379.546 456.40625 339.125 C 456.41578 338.06778 456.14614 337.0992 455.625 336.15625 C 481.6231 332.69007 507.85621 330.90203 533.9375 328.125 C 573.5752 323.485 613.07475 317.9895 652.96875 316.1875 C 653.23626 315.061 655.01166 314.60954 657.59375 314.59375 z M 309 340 C 311.29007 340.46678 313.54973 341.05011 315.78125 341.78125 C 313.38825 341.61478 311.12723 340.96905 309 340 z M 665.34375 598.5625 C 668.90547 598.54492 672.46867 598.55938 676.03125 598.625 C 675.87102 600.78068 675.72163 602.93811 675.5625 605.09375 C 672.36989 649.61277 669.76029 694.29409 662.40625 738.34375 C 631.20277 740.14646 600.12695 743.84664 569.125 747.96875 C 548.41486 750.54534 527.67912 753.43802 506.875 755.4375 C 501.66143 723.06484 496.86367 690.62217 491.84375 658.21875 C 490.04703 645.88825 488.27661 633.56015 486.5625 621.21875 C 488.89857 622.4837 491.13529 622.83781 493.125 622 C 520.7304 611.565 550.2711 608.1265 579.375 604.5625 C 607.90639 601.43 636.62064 598.70428 665.34375 598.5625 z M 267.53125 646.25 C 267.43256 646.41372 267.35074 646.5872 267.25 646.75 C 266.2304 648.398 262.6824 652.4905 262.875 650.5625 C 263.44954 648.30677 265.25767 647.0216 267.53125 646.25 z "
     id="path13043" />
</svg>
