<?xml version="1.0" encoding="utf-8" ?>

<!DOCTYPE svg PUBLIC "-//W3C//DTD SVG 1.1//EN" 
  "http://www.w3.org/Graphics/SVG/1.1/DTD/svg11.dtd">
<svg 
    xmlns="http://www.w3.org/2000/svg"
    xmlns:xlink="http://www.w3.org/1999/xlink"
    xmlns:sodipodi="http://sodipodi.sourceforge.net/DTD/sodipodi-0.dtd"
    xmlns:inkscape="http://www.inkscape.org/namespaces/inkscape"
    width="1024" height="1024" id="U9662">
<path d="m 9327.4923,61679.733 c 29.4715,-5.705 58.9939,-11.023 88.7141,-15.256 32.2393,-4.264 64.6957,-5.737 97.139,-3.68 19.3029,1.128 38.1051,4.687 56.0662,11.832 17.6521,7.873 34.1274,20.701 37.9167,41.163 1.3663,7.378 -0.3359,15.003 -0.5039,22.505 -8.2453,25.852 -29.7817,40.695 -49.9481,56.918 -19.0551,15.493 -38.8734,30.086 -57.2407,46.404 9.1895,-13.151 -7.3982,7.659 -5.4039,5.892 11.3396,-10.05 9.4039,-27.252 4.9465,-39.885 -1.4894,-4.221 -5.2954,-7.218 -7.9431,-10.828 -0.615,-0.589 -2.6874,-1.895 -1.8449,-1.768 9.663,1.451 36.1606,19.421 44.4774,24.927 25.6314,17.25 46.0397,40.089 63.8095,65.08 19.0185,27.909 28.7018,59.735 33.9494,92.733 4.426,31.323 -1.2668,61.085 -14.3433,89.509 -14.1238,27.033 -37.1319,44.861 -63.6305,58.641 -27.5329,12.462 -57.3822,17.063 -87.2893,18.912 -33.096,1.655 -64.424,-7.548 -94.6657,-19.953 -4.8594,-2.348 -9.7188,-4.697 -14.5782,-7.045 -16.7096,-8.182 21.8609,-86.952 38.5705,-78.77 l 0,0 c 3.2221,1.609 6.4442,3.218 9.6662,4.827 17.9044,7.588 36.3581,13.941 56.1033,13.261 17.8772,-0.832 35.8029,-3.314 52.588,-9.817 9.4709,-4.423 18.3217,-9.688 24.0781,-18.742 6.8397,-11.49 7.939,-24.701 6.7023,-37.847 -2.6092,-19.606 -8.0512,-38.535 -18.958,-55.273 -11.2015,-16.263 -24.2149,-31.085 -40.6721,-42.272 -15.8045,-10.559 -33.237,-17.452 -49.4632,-27.267 -4.908,-5.424 -11.5123,-9.699 -14.724,-16.271 -14.4447,-29.558 -1.9468,-55.605 20.9057,-74.594 19.3751,-16.498 39.8104,-31.686 59.4202,-47.903 5.2843,-4.379 22.1548,-19.322 22.6737,-19.142 3.7444,1.3 -26.3355,16.792 -3.9265,11.224 0.6612,15.069 1.7473,30.253 16.6652,38.228 0.5447,0.292 -3.3636,-2.957 -1.4926,-1.098 -8.7056,-4.356 -18.7403,-4.62 -28.234,-5.894 -26.182,-2.21 -52.4168,-0.853 -78.4751,2.417 -27.7439,3.974 -55.3317,8.969 -82.6155,15.417 -18.3675,3.911 -36.8069,-82.674 -18.4394,-86.585 z" id="path13619" inkscape:connector-curvature="0" style="fill:#2b1100;fill-opacity:1;fill-rule:nonzero;stroke:none" transform="translate(-9216, -61440)"/><path d="m 9407.516,61736.517 c -0.9334,41.424 -0.4238,82.871 -0.3152,124.304 0.1499,70.759 0.6882,141.516 1.1056,212.273 0.4759,70.669 -0.4514,141.332 -1.3886,211.993 -0.535,48.859 -1.0721,97.766 1.2346,146.59 1.1507,13.73 0.3309,7.668 2.0887,18.233 2.3832,18.539 -85.009,29.774 -87.3923,11.235 l 0,0 c -1.8267,-16.978 -1.1062,-8.147 -2.0532,-26.499 -1.1099,-50.276 -0.283,-100.574 0.4448,-150.85 1.1814,-70.06 2.2689,-140.126 1.8177,-210.199 -0.4176,-70.698 -1.0452,-141.396 -1.9691,-212.09 -0.5612,-42.092 -1.2525,-84.182 -1.945,-126.271 0.2717,-18.747 88.6437,-17.466 88.372,1.281 z" id="path13621" inkscape:connector-curvature="0" style="fill:#2b1100;fill-opacity:1;fill-rule:nonzero;stroke:none" transform="translate(-9216, -61440)"/><path d="m 9916.4747,61598.867 c 5.4048,14.033 13.8552,26.597 21.9151,39.198 10.0099,15.728 -64.1326,62.915 -74.1425,47.187 l 0,0 c -11.8655,-18.727 -23.7972,-37.587 -31.771,-58.385 -5.9395,-17.819 78.0588,-45.818 83.9984,-28 z" id="path13623" inkscape:connector-curvature="0" style="fill:#2b1100;fill-opacity:1;fill-rule:nonzero;stroke:none" transform="translate(-9216, -61440)"/><path d="m 9701.6199,61807.345 c -14.5181,13.927 -21.3427,32.488 -27.203,51.236 -8.7265,32.785 -12.8206,66.574 -16.8964,100.187 -1.1884,14.074 -4.0404,28.237 -2.7849,42.397 0.5048,18.706 -87.6761,21.086 -88.1809,2.38 l 0,0 c -0.056,-18.649 1.6803,-37.14 4.3397,-55.606 5.0013,-38.9 9.7992,-78.032 20.2685,-115.922 10.4918,-32.449 24.1866,-63.476 48.6519,-88.022 13.4386,-13.111 75.2437,50.239 61.8051,63.35 z" id="path13625" inkscape:connector-curvature="0" style="fill:#2b1100;fill-opacity:1;fill-rule:nonzero;stroke:none" transform="translate(-9216, -61440)"/><path d="m 9720.8487,61776.239 c 31.7861,-15.162 66.2316,-23.361 100.3207,-31.489 42.4162,-10.108 85.6523,-15.788 128.9538,-20.379 31.2889,-3.224 62.6288,-5.879 93.9988,-8.17 26.197,-3.289 50.097,-0.361 73.77,11.293 24.682,15.768 34.233,40.956 40.051,68.286 5.603,30.346 3.387,61.032 -0.973,91.338 -5.091,31.226 -15.683,61.035 -28.53,89.817 -2.033,3.964 -4.066,7.929 -6.099,11.893 -8.683,16.522 -86.565,-24.411 -77.882,-40.932 l 0,0 c 1.327,-2.429 2.654,-4.857 3.981,-7.286 9.828,-21.153 17.886,-43.148 21.855,-66.22 3.041,-20.13 4.815,-40.544 1.352,-60.769 -1.315,-6.784 -6.252,-14.017 2.47,-9.27 11.39,1.903 -22.522,-4.431 -24.078,-0.533 -30.362,1.876 -60.687,4.239 -90.962,7.211 -39.4624,3.963 -78.8969,8.837 -117.4911,18.27 -26.648,6.523 -53.8244,12.751 -78.6271,24.804 -16.5174,8.933 -58.6275,-68.931 -42.1101,-77.864 z" id="path13627" inkscape:connector-curvature="0" style="fill:#2b1100;fill-opacity:1;fill-rule:nonzero;stroke:none" transform="translate(-9216, -61440)"/><path d="m 9688.0154,61935.426 c 34.9089,-18.068 73.4181,-26.828 111.5291,-35.196 43.2843,-9.193 87.1591,-15.06 131.0341,-20.558 27.955,-3.418 56.0343,-6.15 84.2174,-5.324 18.704,0.836 14.76,89.011 -3.945,88.174 l 0,0 c -23.2918,-1.678 -46.6196,1.472 -69.7718,3.659 -41.1166,4.824 -82.2394,10.057 -122.7402,18.814 -29.5973,6.634 -59.9872,12.901 -86.8969,27.479 -16.3442,9.212 -59.7709,-67.835 -43.4267,-77.048 z" id="path13629" inkscape:connector-curvature="0" style="fill:#2b1100;fill-opacity:1;fill-rule:nonzero;stroke:none" transform="translate(-9216, -61440)"/><path d="m 9688.8067,62058.843 c 34.188,-4.429 68.171,-10.31 102.0995,-16.381 40.1859,-7.628 80.1728,-16.252 120.2865,-24.243 26.3824,-5.321 52.9271,-9.949 79.8433,-11.152 13.871,0.431 6.8382,-0.189 21.089,1.954 18.433,3.688 1.05,90.582 -17.3829,86.894 l 0,0 c 2.4419,-0.346 2.1063,-0.144 -1.0004,-0.618 -22.1918,0.122 -44.0511,4.773 -65.8294,8.548 -40.5606,7.755 -80.9743,16.246 -121.5193,24.08 -35.3811,6.49 -70.829,12.588 -106.2938,18.601 -18.6004,2.396 -29.8929,-85.287 -11.2925,-87.683 z" id="path13631" inkscape:connector-curvature="0" style="fill:#2b1100;fill-opacity:1;fill-rule:nonzero;stroke:none" transform="translate(-9216, -61440)"/><path d="m 9848.2352,62092.749 c -17.9813,29.201 -35.2176,58.859 -52.8151,88.293 -21.2025,35.668 -42.9824,70.982 -65.4355,105.875 -7.8162,12.137 -15.929,24.08 -23.3002,36.495 -9.9978,15.867 -84.7921,-31.263 -74.7943,-47.13 l 0,0 c 8.2055,-12.423 16.6666,-24.671 24.9445,-37.046 22.2189,-33.632 43.471,-67.88 63.9134,-102.622 17.7428,-29.968 35.2126,-60.093 52.3311,-90.422 9.8762,-15.943 85.0323,30.614 75.1561,46.557 z" id="path13633" inkscape:connector-curvature="0" style="fill:#2b1100;fill-opacity:1;fill-rule:nonzero;stroke:none" transform="translate(-9216, -61440)"/><path d="m 9952.7018,62115.942 c -2.0488,23.335 -4.1861,46.689 -4.1313,70.13 -0.8136,1.879 1.9371,21.533 5.2976,18.459 -2.7702,-4.499 18.7387,-0.971 21.4305,-0.918 24.539,-0.414 48.5474,-5.605 72.2804,-11.391 27.2,-7.313 54.433,-14.44 82.078,-19.866 20.177,-3.71 40.708,-4.454 61.137,-5.692 1.585,-0.141 3.169,-0.282 4.753,-0.422 18.721,-1.418 25.405,86.833 6.684,88.251 l 0,0 c -2.287,0.152 -4.575,0.305 -6.863,0.457 -16.402,0.705 -32.885,1.082 -49.127,3.663 -26.31,4.932 -52.152,11.863 -78.025,18.684 -31.173,7.53 -62.762,14.011 -94.9818,14.213 -30.5348,-0.789 -60.3529,-4.631 -83.7023,-26.444 -19.6239,-22.942 -29.3309,-48.901 -28.8122,-79.398 0.2494,-25.447 2.409,-50.778 3.7593,-76.182 1.3694,-18.715 89.5922,-12.259 88.2228,6.456 z" id="path13635" inkscape:connector-curvature="0" style="fill:#2b1100;fill-opacity:1;fill-rule:nonzero;stroke:none" transform="translate(-9216, -61440)"/></svg>