<?xml version="1.0" encoding="UTF-8" standalone="no"?>
<svg
   xmlns:dc="http://purl.org/dc/elements/1.1/"
   xmlns:cc="http://creativecommons.org/ns#"
   xmlns:rdf="http://www.w3.org/1999/02/22-rdf-syntax-ns#"
   xmlns:svg="http://www.w3.org/2000/svg"
   xmlns="http://www.w3.org/2000/svg"
   xmlns:sodipodi="http://sodipodi.sourceforge.net/DTD/sodipodi-0.dtd"
   xmlns:inkscape="http://www.inkscape.org/namespaces/inkscape"
   width="1024"
   height="1024"
   id="U96EA"
   version="1.1"
   inkscape:version="0.48.0 r9654"
   sodipodi:docname="U+96EA.svg">
  <metadata
     id="metadata18">
    <rdf:RDF>
      <cc:Work
         rdf:about="">
        <dc:format>image/svg+xml</dc:format>
        <dc:type
           rdf:resource="http://purl.org/dc/dcmitype/StillImage" />
      </cc:Work>
    </rdf:RDF>
  </metadata>
  <defs
     id="defs16" />
  <sodipodi:namedview
     pagecolor="#ffffff"
     bordercolor="#666666"
     borderopacity="1"
     objecttolerance="10"
     gridtolerance="10"
     guidetolerance="10"
     inkscape:pageopacity="0"
     inkscape:pageshadow="2"
     inkscape:window-width="640"
     inkscape:window-height="480"
     id="namedview14"
     showgrid="false"
     inkscape:zoom="0.27441406"
     inkscape:cx="512"
     inkscape:cy="512"
     inkscape:window-x="0"
     inkscape:window-y="25"
     inkscape:window-maximized="0"
     inkscape:current-layer="U96EA" />
  <path
     style="fill:#916f6f;fill-opacity:1;fill-rule:nonzero;stroke:#f9f9f9;stroke-width:0.1;stroke-miterlimit:4;stroke-dasharray:none"
     d="M 644.53125 71.84375 C 639.77014 71.90275 634.9853 72.07225 630.21875 72.40625 C 591.38415 74.17025 552.5827 76.41025 513.9375 80.78125 C 458.7811 86.81925 403.5583 92.4495 348.625 100.3125 C 308.1324 106.7545 267.6743 113.57975 227.6875 122.71875 C 209.5717 127.55875 232.3842 212.965 250.5 208.125 C 287.2975 198.238 324.91535 191.82975 362.46875 185.59375 C 371.80886 184.20386 381.17205 182.93398 390.53125 181.6875 C 389.83678 199.22653 389.88888 216.80823 390.25 234.375 C 366.58662 240.40049 343.17141 247.35889 320.125 255.5625 C 281.7626 270.2825 243.70425 286.8675 212.78125 314.6875 C 212.22309 315.22446 211.81195 315.86176 211.5 316.5625 C 189.8696 305.67383 163.27068 298.83641 159.03125 308.3125 C 146.32845 338.3195 140.62835 370.35325 136.96875 402.53125 C 134.26155 427.11325 135.40385 451.79725 138.28125 476.28125 C 140.63895 494.80725 227.95135 483.68225 225.59375 465.15625 C 223.10065 447.58425 222.14345 429.833 223.96875 412.125 C 225.91203 393.70597 228.59965 375.17239 234.5625 357.625 C 249.66161 372.96715 267.57042 384.83562 274.15625 378.5 C 295.97455 358.202 323.8827 346.93975 351.25 336.34375 C 365.2853 331.27313 379.48562 326.78488 393.8125 322.71875 C 395.94293 359.4225 398.68623 396.10517 401.25 432.78125 C 403.6846 470.05625 405.6547 507.31075 409.5625 544.46875 C 411.3233 560.78675 410.57275 553.1135 411.84375 567.5625 C 413.67405 586.1355 501.23655 577.5095 499.40625 558.9375 C 497.71015 543.2075 498.6362 551.21575 496.625 534.84375 C 492.4205 498.79475 490.34865 462.58625 487.59375 426.40625 C 484.42488 385.40595 481.12358 344.41281 479 303.34375 C 486.30871 302.01759 493.6426 300.73767 500.96875 299.53125 C 540.33705 293.15325 580.14155 293.582 619.84375 295 C 647.53345 296.105 675.2172 297.978 702.8125 300.5 C 713.62145 301.22794 724.22699 302.97461 734.40625 306.4375 C 734.31906 307.25902 734.57584 308.96412 734.65625 311.625 C 733.62675 343.745 728.50265 375.61875 724.46875 407.46875 C 721.13445 434.07375 717.44915 460.62525 712.78125 487.03125 C 711.53305 494.71525 709.5077 502.203 706.5 509.375 C 699.834 526.897 782.42775 558.3355 789.09375 540.8125 C 793.73505 528.1045 797.6851 515.189 799.625 501.75 C 804.1289 474.048 807.56135 446.1755 810.90625 418.3125 C 815.65425 380.2025 822.4382 342.09275 822.1875 303.59375 C 818.2758 268.28175 807.9294 241.482 773.3125 226.625 C 753.0828 218.905 732.0466 214.22875 710.375 212.96875 C 681.1605 210.56275 651.89545 208.70325 622.59375 207.78125 C 577.16895 206.52525 531.62065 206.75175 486.65625 214.34375 C 483.28651 214.9182 479.92942 215.49882 476.5625 216.09375 C 476.62347 201.14805 477.14804 186.21617 478.625 171.375 C 493.45756 169.80488 508.29331 168.26632 523.125 166.71875 C 559.754 162.80575 596.53535 161.01775 633.34375 160.09375 C 639.85265 160.50775 646.57265 159.075 653.03125 160.375 C 671.77585 161.603 677.5571 73.228 658.8125 72 C 654.0425 71.835 649.29236 71.78475 644.53125 71.84375 z M 737.59375 307.5625 C 738.68313 307.97706 739.76578 308.41699 740.84375 308.875 C 741.33065 309.22 742.5061 309.34225 742.3125 309.90625 C 741.73945 311.57714 739.07266 308.70191 737.59375 307.5625 z M 589.28125 355.96875 C 570.55549 356.17958 525.15843 416.09211 538.75 426.78125 C 558.2248 441.12425 577.26855 456.0355 596.21875 471.0625 C 610.93305 482.5515 665.0893 413.1765 650.375 401.6875 C 631.2838 387.0085 612.18795 372.35625 593.40625 357.28125 C 592.25441 356.37547 590.86818 355.95088 589.28125 355.96875 z M 317.6875 362.75 C 298.333 363.9572 251.8647 419.78156 264.6875 430.9375 C 283.155 446.6755 301.1535 463.0405 317.6875 480.8125 C 330.4878 494.3455 394.26915 434.00275 381.46875 420.46875 C 362.70705 400.87875 342.73435 382.545 322.71875 364.25 C 321.39226 363.09594 319.68969 362.62512 317.6875 362.75 z M 553 463.9375 C 535.12584 463.42651 499.90242 535.68506 515.90625 543.6875 C 538.07655 554.4305 560.94305 563.65025 583.65625 573.15625 C 591.45785 576.37225 599.01725 580.066 606.40625 584.125 C 622.97125 592.835 664.03375 514.74125 647.46875 506.03125 C 637.59345 500.97825 627.6206 496.13 617.3125 492 C 596.4625 483.425 575.4022 475.19325 555.5 464.53125 C 554.71292 464.13769 553.87906 463.96263 553 463.9375 z M 268.65625 483.53125 C 250.86876 485.36013 225.40044 561.62609 242.3125 567.46875 C 267.3585 575.99475 292.068 585.46625 317.1875 593.78125 C 335.3706 599.39625 353.7509 604.2665 372.0625 609.4375 C 390.0209 614.4125 413.48955 529.75525 395.53125 524.78125 C 378.56745 520.17025 361.4977 515.8415 344.6875 510.6875 C 319.9226 502.4785 295.59845 493.12475 271.21875 483.84375 C 270.38701 483.55641 269.53104 483.44131 268.65625 483.53125 z M 646.875 587.5625 C 627.04898 587.69612 607.461 590.6505 587.65625 592.25 C 550.04265 595.153 512.3242 596.823 474.75 600.25 C 423.1108 605.741 371.6703 613.4495 321.9375 628.9375 C 281.186 641.3905 240.34315 654.48875 202.53125 674.46875 C 186.29765 683.83975 230.48515 760.371 246.71875 751 C 278.18265 733.129 312.981 722.3315 347.375 711.6875 C 391.687 697.7025 437.6159 691.15425 483.6875 686.53125 C 520.3896 683.48925 557.1961 681.99825 593.9375 679.53125 C 607.41925 680.50284 621.43192 676.33742 635.15625 675.34375 C 637.11958 700.8761 635.73562 726.58997 635.0625 752.15625 C 634.0692 787.69425 633.7909 823.24025 632.9375 858.78125 C 632.90503 859.06946 632.87293 859.36619 632.84375 859.65625 C 601.91185 862.77401 571.07722 866.61153 540.25 870.71875 C 469.3969 880.23475 398.7557 891.1125 328.3125 903.3125 C 286.1131 910.0635 243.88515 916.9155 201.40625 921.6875 C 182.77765 924.0585 193.96525 1011.871 212.59375 1009.5 C 255.88955 1002.667 299.1062 995.40525 342.3125 988.03125 C 411.7519 975.33625 481.48445 964.6125 551.46875 955.4375 C 603.58645 948.7095 655.8496 943.0045 708.375 940.9375 C 727.9181 940.6295 718.604 940.6675 736.375 940.6875 C 754.9823 940.4805 754.01345 852.76275 735.40625 852.96875 C 725.5083 853.18975 723.13785 853.23163 720.53125 853.3125 C 720.98422 820.42385 721.14239 787.53468 722.15625 754.65625 C 723.23485 719.90225 725.76005 684.789 720.59375 650.25 C 711.36825 614.338 694.14095 591.7565 655.40625 587.6875 C 652.56361 587.57963 649.70729 587.54341 646.875 587.5625 z M 644.40625 675.21875 C 646.22928 675.33618 648.04007 675.55374 649.84375 675.875 C 650.14215 676.055 651.0795 676.3245 650.75 676.4375 C 648.55979 677.19351 646.41083 676.48159 644.40625 675.21875 z M 582.1875 743.90625 C 577.11478 743.89155 572.04254 744.00912 566.96875 744.3125 C 529.18155 746.6295 491.7146 751.8 454.4375 758.375 C 419.4531 764.598 384.52805 771.299 350.03125 779.875 C 332.00135 785.094 356.5951 870.094 374.625 864.875 C 405.7969 855.75 437.7511 849.74425 469.6875 844.03125 C 503.4991 838.17225 537.48885 833.35075 571.78125 831.71875 C 581.91785 831.24575 592.05725 831.864 602.15625 832.625 C 620.79995 833.772 626.2062 745.897 607.5625 744.75 C 599.11619 744.315 590.64203 743.93075 582.1875 743.90625 z "
     id="path12701" />
</svg>
