<?xml version="1.0" encoding="utf-8" ?>

<!DOCTYPE svg PUBLIC "-//W3C//DTD SVG 1.1//EN" 
  "http://www.w3.org/Graphics/SVG/1.1/DTD/svg11.dtd">
<svg 
    xmlns="http://www.w3.org/2000/svg"
    xmlns:xlink="http://www.w3.org/1999/xlink"
    xmlns:sodipodi="http://sodipodi.sourceforge.net/DTD/sodipodi-0.dtd"
    xmlns:inkscape="http://www.inkscape.org/namespaces/inkscape"
    width="1024" height="1024" id="U9669">
<path d="m 9339.2912,53535.07 c 38.8033,-10.788 79.0841,-13.744 119.114,-15.948 46.5813,-2.276 92.7946,0.781 136.6766,17.068 49.7033,27.59 58.1396,59.369 40.0863,111.495 -15.5535,34.986 -42.5626,61.498 -71.596,85.466 -4.4673,7.89 -43.1467,26.647 -45.8842,32.916 -0.5243,1.201 2.1918,-1.436 3.2877,-2.155 11.3923,-19.77 13.344,-15.918 7.7694,-42 -0.7201,-3.369 -4.1579,-5.596 -5.4173,-8.803 -0.3381,-0.861 1.6593,0.822 2.463,1.28 6.093,3.474 12.1026,7.092 18.1591,10.629 37.6239,20.95 60.8253,49.167 78.4976,87.895 16.2785,46.152 11.5183,87.288 -7.4615,131.385 -29.8019,49.808 -60.7361,63.784 -117.0172,68.724 -47.4667,0.291 -89.1008,-18.914 -128.9349,-42.647 -15.7211,-9.515 29.1301,-83.624 44.8511,-74.11 l 0,0 c 24.1383,14.938 49.3476,28.264 78.3498,29.716 17.2319,-0.242 33.0598,-2.664 43.2196,-18.089 9.9682,-18.969 12.811,-39.484 6.732,-60.322 -7.9051,-21.003 -22.0043,-35.834 -41.9314,-46.429 -29.125,-16.439 -60.173,-31.783 -56.4456,-72.302 0.8091,-8.795 7.4532,-16.016 11.1798,-24.024 16.0536,-15.505 35.3863,-26.051 53.172,-39.446 17.3275,-13.978 34.3081,-28.895 44.9187,-48.856 3.7427,-7.075 2.3347,-3.527 6.4108,1.139 2.0866,2.389 8.7975,5.362 2.9716,-0.165 -30.5511,-14.528 -66.259,-11.734 -99.1572,-11.842 -32.6412,1.905 -65.7267,3.999 -97.1545,13.734 -17.8845,5.697 -44.7439,-78.611 -26.8593,-84.309 z" id="path13408" inkscape:connector-curvature="0" style="fill:#501616;fill-opacity:1;fill-rule:nonzero;stroke:#f9f9f9;stroke-width:0.1;stroke-miterlimit:4;stroke-dasharray:none" transform="translate(-9216, -53248)"/><path d="m 9414.5106,53554.932 c 3.551,55.591 5.2025,111.282 7.012,166.95 2.7111,91.156 4.9796,182.322 8.6034,273.447 3.0483,61.604 6.4295,123.427 17.3582,184.22 2.9954,18.2 -82.7994,32.321 -85.7949,14.121 l 0,0 c -9.8045,-64.609 -13.4035,-129.935 -16.0201,-195.182 -3.1959,-91.119 -5.4013,-182.271 -9.0582,-273.374 -2.3407,-53.584 -4.2598,-107.276 -9.9599,-160.632 -2.0259,-18.637 85.8337,-28.187 87.8595,-9.55 z" id="path13410" inkscape:connector-curvature="0" style="fill:#501616;fill-opacity:1;fill-rule:nonzero;stroke:#f9f9f9;stroke-width:0.1;stroke-miterlimit:4;stroke-dasharray:none" transform="translate(-9216, -53248)"/><path d="m 9856.0977,53497.781 c -25.2796,31.134 -42.5721,67.757 -60.1199,103.547 -27.5532,57.798 -52.8265,116.642 -76.4769,176.133 -7.9014,21.366 -17.1375,42.408 -22.1507,64.7 -4.8528,18.011 -89.7565,-4.866 -84.9036,-22.877 l 0,0 c 7.4893,-25.255 17.2113,-49.714 27.1865,-74.085 25.0226,-61.008 51.1833,-121.551 79.0003,-181.343 20.3097,-42.395 40.7644,-85.21 69.5467,-122.673 12.0062,-14.407 79.9238,42.191 67.9176,56.598 z" id="path13412" inkscape:connector-curvature="0" style="fill:#501616;fill-opacity:1;fill-rule:nonzero;stroke:#f9f9f9;stroke-width:0.1;stroke-miterlimit:4;stroke-dasharray:none" transform="translate(-9216, -53248)"/><path d="m 9882.4907,53477.468 c 17.2072,30.151 40.056,56.578 62.6471,82.752 32.3911,37.181 68.4602,70.851 104.6942,104.203 19.542,17.899 10.063,9.173 28.444,26.171 13.497,12.663 -46.195,76.288 -59.692,63.625 l 0,0 c -17.756,-16.908 -8.506,-8.164 -27.7667,-26.214 -38.2178,-35.762 -76.3537,-71.728 -110.9789,-111.052 -26.5873,-30.418 -53.0244,-61.248 -74.2714,-95.744 -9.2788,-16.318 67.6449,-60.059 76.9237,-43.741 z" id="path13414" inkscape:connector-curvature="0" style="fill:#501616;fill-opacity:1;fill-rule:nonzero;stroke:#f9f9f9;stroke-width:0.1;stroke-miterlimit:4;stroke-dasharray:none" transform="translate(-9216, -53248)"/><path d="m 9643.9764,53823.197 c 40.2651,-23.944 86.7259,-33.654 132.0426,-43.142 58.7581,-12.028 118.6097,-15.797 178.4386,-16.567 40.3521,-0.08 80.7134,2.177 120.7254,7.425 15.71,2.72 7.944,1.019 23.302,5.096 17.949,5.398 -7.499,90.01 -25.448,84.612 l 0,0 c -4.797,-2.263 -1.52,-0.94 -10.229,-2.786 -35.542,-5.567 -71.5354,-7.805 -107.4936,-8.028 -54.1196,0.363 -108.2875,3.533 -161.4081,14.62 -33.7082,7.247 -68.6845,14.067 -99.0584,31.136 -15.3513,10.791 -66.2228,-61.575 -50.8715,-72.366 z" id="path13416" inkscape:connector-curvature="0" style="fill:#501616;fill-opacity:1;fill-rule:nonzero;stroke:#f9f9f9;stroke-width:0.1;stroke-miterlimit:4;stroke-dasharray:none" transform="translate(-9216, -53248)"/><path d="m 9739.5907,53932.117 c 18.6868,20.552 37.6711,40.817 57.2266,60.543 13.0118,13.136 -48.9136,74.475 -61.9255,61.338 l 0,0 c -19.6373,-19.84 -38.6992,-40.231 -58.3823,-60.024 -13.1216,-13.382 49.9595,-75.238 63.0812,-61.857 z" id="path13418" inkscape:connector-curvature="0" style="fill:#501616;fill-opacity:1;fill-rule:nonzero;stroke:#f9f9f9;stroke-width:0.1;stroke-miterlimit:4;stroke-dasharray:none" transform="translate(-9216, -53248)"/><path d="m 9937.1941,53934.755 c 2.0996,13.038 9.841,21.91 20.5763,28.838 14.8218,11.251 -38.2155,81.122 -53.0374,69.871 l 0,0 c -27.8098,-22.228 -48.6124,-49.028 -54.9945,-84.942 -2.9203,-18.553 84.5354,-32.319 87.4556,-13.767 z" id="path13420" inkscape:connector-curvature="0" style="fill:#501616;fill-opacity:1;fill-rule:nonzero;stroke:#f9f9f9;stroke-width:0.1;stroke-miterlimit:4;stroke-dasharray:none" transform="translate(-9216, -53248)"/><path d="m 10134.118,53975.066 c -25.459,16.538 -49.439,35.233 -73.667,53.495 -41.936,31.826 -85.5757,61.239 -130.4682,88.702 -15.615,9.546 -60.6139,-64.064 -44.9989,-73.61 l 0,0 c 42.408,-25.905 83.4911,-53.864 122.8081,-84.289 25.577,-19.65 51.009,-39.516 77.41,-58.06 15.648,-10.377 64.564,63.385 48.916,73.762 z" id="path13422" inkscape:connector-curvature="0" style="fill:#501616;fill-opacity:1;fill-rule:nonzero;stroke:#f9f9f9;stroke-width:0.1;stroke-miterlimit:4;stroke-dasharray:none" transform="translate(-9216, -53248)"/><path d="m 9560.4059,54136.627 c 53.4645,-13.928 108.5108,-20.399 163.2097,-27.357 82.8604,-10.913 166.2308,-16.548 249.7225,-19.237 64.0619,-1.847 128.1599,-0.547 192.0339,4.611 25.691,2.248 51.194,6.187 76.461,11.298 18.279,4.017 -0.659,90.188 -18.938,86.171 l 0,0 c -21.422,-5.191 -43.202,-8.812 -65.119,-11.157 -60.437,-5.799 -121.164,-7.451 -181.8638,-5.996 -80.6491,2.285 -161.1949,7.623 -241.1503,18.805 -49.4938,6.771 -99.5463,12.788 -147.5593,27.08 -17.8653,5.685 -44.662,-78.533 -26.7967,-84.218 z" id="path13424" inkscape:connector-curvature="0" style="fill:#501616;fill-opacity:1;fill-rule:nonzero;stroke:#f9f9f9;stroke-width:0.1;stroke-miterlimit:4;stroke-dasharray:none" transform="translate(-9216, -53248)"/></svg>