<?xml version="1.0" encoding="utf-8" ?>

<!DOCTYPE svg PUBLIC "-//W3C//DTD SVG 1.1//EN" 
  "http://www.w3.org/Graphics/SVG/1.1/DTD/svg11.dtd">
<svg 
    xmlns="http://www.w3.org/2000/svg"
    xmlns:xlink="http://www.w3.org/1999/xlink"
    xmlns:sodipodi="http://sodipodi.sourceforge.net/DTD/sodipodi-0.dtd"
    xmlns:inkscape="http://www.inkscape.org/namespaces/inkscape"
    width="1024" height="1024" id="U989C">
<path d="m 7451.7609,56346.506 c 9.2809,22.574 22.2959,43.123 36.871,62.585 7.2117,9.253 14.4676,18.463 21.5674,27.801 11.1998,14.938 -59.2182,67.735 -70.418,52.797 l 0,0 c -7.0783,-9.598 -14.3972,-19.004 -21.6279,-28.487 -17.9654,-24.539 -34.0393,-50.29 -46.8307,-77.944 -7.7963,-17.064 72.6419,-53.816 80.4382,-36.752 z" id="path12791" inkscape:connector-curvature="0" style="fill:#916f6f;fill-opacity:1;fill-rule:nonzero;stroke:#f9f9f9;stroke-width:0.1;stroke-miterlimit:4;stroke-dasharray:none" transform="translate(-7168, -56320)"/><path d="m 7191.5513,56494.607 c 41.0591,-4.311 81.8929,-10.505 122.8425,-15.733 59.9304,-7.501 119.9866,-13.984 180.1081,-19.742 44.8933,-4.421 89.8578,-8.05 134.9556,-9.342 11.9014,-0.215 23.8009,-0.06 35.7025,-0.181 18.6985,0.06 18.407,88.208 -0.2915,88.146 l 0,0 c -11.1976,-0.174 -22.3894,-0.552 -33.5894,-0.562 -43.0175,0.524 -85.921,3.685 -128.7482,7.664 -59.0778,5.405 -118.0738,11.76 -176.8905,19.529 -41.2895,5.594 -82.4627,11.944 -123.6858,17.999 -18.6205,2.207 -29.0238,-85.571 -10.4033,-87.778 z" id="path12793" inkscape:connector-curvature="0" style="fill:#916f6f;fill-opacity:1;fill-rule:nonzero;stroke:#f9f9f9;stroke-width:0.1;stroke-miterlimit:4;stroke-dasharray:none" transform="translate(-7168, -56320)"/><path d="m 7365.2086,56548.461 c 14.256,19.279 33.6008,33.604 53.1104,47.122 15.2085,10.591 -34.7172,82.285 -49.9257,71.694 l 0,0 c -27.1886,-19.007 -53.4738,-39.538 -74.0861,-65.835 -11.239,-15.04 59.6623,-68.021 70.9014,-52.981 z" id="path12795" inkscape:connector-curvature="0" style="fill:#916f6f;fill-opacity:1;fill-rule:nonzero;stroke:#f9f9f9;stroke-width:0.1;stroke-miterlimit:4;stroke-dasharray:none" transform="translate(-7168, -56320)"/><path d="m 7602.1263,56615.493 c -24.3373,19.649 -47.278,40.978 -70.4319,61.993 -19.0118,17.349 -38.3322,34.355 -57.6617,51.348 -13.9383,12.178 -71.3455,-53.528 -57.4071,-65.706 l 0,0 c 18.9798,-16.478 37.9232,-33.002 56.4419,-50.001 24.5772,-22.47 48.9577,-45.173 74.1527,-66.953 14.7048,-11.647 69.6109,57.671 54.9061,69.319 z" id="path12797" inkscape:connector-curvature="0" style="fill:#916f6f;fill-opacity:1;fill-rule:nonzero;stroke:#f9f9f9;stroke-width:0.1;stroke-miterlimit:4;stroke-dasharray:none" transform="translate(-7168, -56320)"/><path d="m 7177.8998,56725.331 c 48.4046,-11.513 97.1113,-21.67 145.8961,-31.423 60.6298,-12.34 121.4834,-23.491 182.6173,-33.018 35.1407,-5.414 70.5115,-9.328 106.0628,-10.315 18.6748,-0.295 20.0631,87.739 1.3882,88.034 l 0,0 c -31.6649,0 -63.2015,3.255 -94.5353,7.661 -59.81,8.764 -119.3094,19.419 -178.4991,31.708 -47.2073,9.696 -94.4423,19.611 -140.804,32.867 -18.1403,4.694 -40.2663,-80.82 -22.126,-85.514 z" id="path12799" inkscape:connector-curvature="0" style="fill:#916f6f;fill-opacity:1;fill-rule:nonzero;stroke:#f9f9f9;stroke-width:0.1;stroke-miterlimit:4;stroke-dasharray:none" transform="translate(-7168, -56320)"/><path d="m 7335.4453,56780.018 c -8.7006,34.522 -15.4714,69.487 -22.6758,104.34 -11.6894,56.798 -25.5492,113.112 -38.9129,169.53 -12.095,50.578 -21.5352,101.709 -29.5337,153.076 -3.214,21.403 -6.2585,42.832 -8.8489,64.32 -2.5003,18.47 -89.5666,6.683 -87.0663,-11.786 l 0,0 c 3.2997,-22.106 6.7635,-44.186 10.273,-66.258 8.7885,-53.395 18.8596,-106.571 31.4679,-159.211 13.1774,-55.461 26.779,-110.845 37.7584,-166.796 6.9906,-35.512 13.7862,-71.061 21.1601,-106.495 4.0901,-18.324 90.4683,0.957 86.3782,19.28 z" id="path12801" inkscape:connector-curvature="0" style="fill:#916f6f;fill-opacity:1;fill-rule:nonzero;stroke:#f9f9f9;stroke-width:0.1;stroke-miterlimit:4;stroke-dasharray:none" transform="translate(-7168, -56320)"/><path d="m 7554.6824,56831.829 c -21.0528,27.438 -42.2466,54.759 -63.7489,81.849 -28.1389,35.862 -57.1666,70.983 -88.7905,103.832 -3.6179,3.478 -7.2358,6.956 -10.8537,10.434 -13.6158,12.691 -73.44,-51.495 -59.8242,-64.186 l 0,0 c 2.7947,-2.498 5.5893,-4.997 8.384,-7.496 30.1284,-29.888 56.9264,-62.769 82.9583,-96.245 21.1037,-27.005 42.0251,-54.156 61.734,-82.205 11.4587,-14.879 81.5997,39.138 70.141,54.017 z" id="path12803" inkscape:connector-curvature="0" style="fill:#916f6f;fill-opacity:1;fill-rule:nonzero;stroke:#f9f9f9;stroke-width:0.1;stroke-miterlimit:4;stroke-dasharray:none" transform="translate(-7168, -56320)"/><path d="m 7592.7103,56959.377 c -22.9461,25.828 -45.0981,52.355 -67.5575,78.607 -28.2003,32.337 -56.0209,65.001 -82.776,98.547 -7.5925,9.522 -14.9808,19.196 -22.1174,29.062 -11.2384,14.933 -81.634,-38.045 -70.3957,-52.978 l 0,0 c 8.098,-10.413 16.3362,-20.711 24.7028,-30.91 27.6415,-33.751 55.945,-66.945 84.431,-99.984 22.6282,-26.766 45.1001,-53.661 67.3448,-80.747 12.3893,-14.079 78.7573,44.325 66.368,58.403 z" id="path12805" inkscape:connector-curvature="0" style="fill:#916f6f;fill-opacity:1;fill-rule:nonzero;stroke:#f9f9f9;stroke-width:0.1;stroke-miterlimit:4;stroke-dasharray:none" transform="translate(-7168, -56320)"/><path d="m 7614.4371,57099.937 c -20.7565,29.082 -42.4284,57.44 -64.9389,85.183 -31.3222,37.971 -64.5113,74.346 -98.0744,110.333 -10.8805,11.811 -22.2556,23.137 -33.8062,34.286 -13.6252,12.73 -73.6384,-51.5 -60.0131,-64.231 l 0,0 c 10.572,-9.483 20.8361,-19.29 30.5745,-29.64 32.3941,-34.026 64.1485,-68.706 93.8074,-105.166 21.4106,-26.752 42.0994,-54.063 60.8532,-82.767 11.0313,-15.188 82.6289,36.814 71.5975,52.002 z" id="path12807" inkscape:connector-curvature="0" style="fill:#916f6f;fill-opacity:1;fill-rule:nonzero;stroke:#f9f9f9;stroke-width:0.1;stroke-miterlimit:4;stroke-dasharray:none" transform="translate(-7168, -56320)"/><path d="m 7682.4793,56482.952 c 38.847,-6.232 77.695,-12.263 116.7627,-16.967 49.8995,-5.706 100.1367,-7.231 150.3198,-6.696 18.1472,0.241 36.2476,1.494 54.3183,3.078 18.6207,1.996 9.2108,89.775 -9.4099,87.779 l 0,0 c -15.3981,-2.016 -30.8663,-3.422 -46.4002,-3.831 -46.1502,-1.122 -92.3836,0.08 -138.272,5.468 -38.0151,4.785 -75.8229,10.862 -113.3693,18.536 -18.5334,2.959 -32.4827,-84.408 -13.9494,-87.367 z" id="path12809" inkscape:connector-curvature="0" style="fill:#916f6f;fill-opacity:1;fill-rule:nonzero;stroke:#f9f9f9;stroke-width:0.1;stroke-miterlimit:4;stroke-dasharray:none" transform="translate(-7168, -56320)"/><path d="m 7873.0681,56571.611 c -9.7416,31.099 -22.4381,61.123 -35.4399,90.966 -17.2338,37.6 -33.7275,75.512 -49.1974,113.87 -7.0824,17.131 -87.8405,-16.255 -80.7581,-33.387 l 0,0 c 16.2884,-38.478 33.035,-76.752 50.1078,-114.889 11.3606,-26.683 22.686,-53.513 30.3374,-81.546 5.3002,-18.021 90.2504,6.965 84.9502,24.986 z" id="path12811" inkscape:connector-curvature="0" style="fill:#916f6f;fill-opacity:1;fill-rule:nonzero;stroke:#f9f9f9;stroke-width:0.1;stroke-miterlimit:4;stroke-dasharray:none" transform="translate(-7168, -56320)"/><path d="m 7739.4077,56777.548 c -0.2555,32.447 2.9977,64.794 6.1814,97.045 4.3207,40.557 9.4323,81.024 14.4361,121.5 1.444,11.832 2.9068,23.661 4.4767,35.477 2.1812,18.569 -85.356,28.851 -87.5372,10.282 l 0,0 c -1.2191,-11.875 -2.4178,-23.753 -3.7075,-35.621 -4.5088,-40.978 -9.5033,-81.899 -14.118,-122.864 -3.6403,-34.952 -7.0763,-69.952 -8.1942,-105.094 -0.1538,-18.766 88.3089,-19.491 88.4627,-0.725 z" id="path12813" inkscape:connector-curvature="0" style="fill:#916f6f;fill-opacity:1;fill-rule:nonzero;stroke:#f9f9f9;stroke-width:0.1;stroke-miterlimit:4;stroke-dasharray:none" transform="translate(-7168, -56320)"/><path d="m 7698.7565,56724.991 c 30.2952,-19.079 64.5706,-29.651 98.7922,-39.134 37.1235,-9.647 74.9164,-16.403 112.8889,-21.646 25.3232,-2.747 52.6802,-4.957 76.0257,7.662 5.5739,3.013 10.3912,7.253 15.5869,10.879 29.6022,30.14 31.107,71.384 33.0579,111.181 1.6214,53.852 -2.3803,107.619 -6.9589,161.229 -4.3325,42.435 -8.4115,84.983 -16.3849,126.92 -3.7903,18.239 -89.7686,0.371 -85.9783,-17.867 l 0,0 c 8.8647,-38.237 11.984,-77.546 16.4123,-116.463 4.3176,-49.597 8.0038,-99.367 5.9829,-149.189 -0.8222,-14.077 -1.6046,-28.041 -3.9445,-41.963 -0.3685,-2.192 -2.8126,-6.775 -0.5935,-6.643 1.0096,0.06 1.8255,0.871 2.7382,1.307 0.4543,0.112 8.7233,0.663 2.5886,-0.694 -8.8663,-1.963 -18.186,0.01 -27.0649,0.383 -34.0208,4.27 -67.852,10.224 -101.0563,18.857 -24.7988,6.896 -50.0695,14 -71.9135,28.097 -15.4678,10.645 -65.6467,-62.271 -50.1788,-72.916 z" id="path12815" inkscape:connector-curvature="0" style="fill:#916f6f;fill-opacity:1;fill-rule:nonzero;stroke:#f9f9f9;stroke-width:0.1;stroke-miterlimit:4;stroke-dasharray:none" transform="translate(-7168, -56320)"/><path d="m 7891.7501,56870.025 c -12.9548,36.307 -23.9014,73.299 -35.155,110.158 -17.5882,58.303 -35.1569,116.613 -52.9525,174.853 -13.8484,45.826 -28.5632,91.571 -51.7443,133.614 -12.311,17.778 -5.4245,9.377 -20.7256,25.147 -13.8581,12.599 -73.2508,-52.728 -59.3927,-65.328 l 0,0 c 0.2268,3.398 -0.1988,1.662 4.1338,-3.416 21.641,-35.452 32.6672,-76.082 45.5859,-115.224 17.8872,-58.038 35.3259,-116.212 52.3928,-174.496 11.2606,-38.085 22.4157,-76.203 34.2363,-114.119 6.1117,-17.739 89.7329,11.072 83.6213,28.811 z" id="path12817" inkscape:connector-curvature="0" style="fill:#916f6f;fill-opacity:1;fill-rule:nonzero;stroke:#f9f9f9;stroke-width:0.1;stroke-miterlimit:4;stroke-dasharray:none" transform="translate(-7168, -56320)"/><path d="m 7896.7746,57138.845 c 20.5173,16.411 44.8222,27.23 68.1111,39.056 30.4087,14.792 58.7937,33.06 85.5833,53.605 3.2715,2.692 6.543,5.385 9.8145,8.078 14.3055,11.976 -42.1521,79.413 -56.4576,67.437 l 0,0 c -2.4295,-2.081 -4.8589,-4.161 -7.2884,-6.241 -22.0627,-17.508 -45.732,-32.731 -71.1317,-45.008 -30.5781,-15.479 -62.0739,-30.065 -88.7,-52.025 -13.7677,-12.742 46.301,-77.644 60.0688,-64.902 z" id="path12819" inkscape:connector-curvature="0" style="fill:#916f6f;fill-opacity:1;fill-rule:nonzero;stroke:#f9f9f9;stroke-width:0.1;stroke-miterlimit:4;stroke-dasharray:none" transform="translate(-7168, -56320)"/></svg>