<?xml version="1.0" encoding="utf-8" ?>

<!DOCTYPE svg PUBLIC "-//W3C//DTD SVG 1.1//EN" 
  "http://www.w3.org/Graphics/SVG/1.1/DTD/svg11.dtd">
<svg 
    xmlns="http://www.w3.org/2000/svg"
    xmlns:xlink="http://www.w3.org/1999/xlink"
    xmlns:sodipodi="http://sodipodi.sourceforge.net/DTD/sodipodi-0.dtd"
    xmlns:inkscape="http://www.inkscape.org/namespaces/inkscape"
    width="1024" height="1024" id="U987E">
<path d="m 9389.6789,15581.541 c 33.9344,-9.957 68.1274,-18.975 102.4614,-27.437 44.3858,-10.947 89.3914,-18.933 134.9149,-23.04 26.9958,-0.785 68.2574,-4.453 84.5252,24.242 5.8398,10.301 5.8892,22.939 8.8338,34.408 -1.1464,18.578 -88.724,13.173 -87.5776,-5.405 l 0,0 c 3.1423,8.265 4.3736,17.538 9.427,24.793 9.9741,14.32 32.275,8.438 4.8467,7.901 -4.3152,-0.09 -8.6311,0.125 -12.9467,0.188 -40.9579,3.001 -81.3836,10.324 -121.2213,20.269 -32.4375,8.2 -64.814,16.816 -96.5108,27.581 -17.7131,5.675 -44.4657,-77.825 -26.7526,-83.5 z" id="path23941" inkscape:connector-curvature="0" style="fill:#550000;fill-opacity:1;fill-rule:nonzero;stroke:#f9f9f9;stroke-width:0.1;stroke-miterlimit:4;stroke-dasharray:none" transform="translate(-9216, -15360)"/><path d="m 9457.27,15625.854 c -15.1272,38.626 -24.1245,79.314 -33.5641,119.604 -14.842,64.405 -28.3226,129.105 -40.608,194.042 -8.021,45.097 -16.2959,90.323 -18.4457,136.152 0.3971,11.637 -0.4318,6.828 1.4014,14.572 2.3532,18.356 -84.1795,29.45 -86.5327,11.093 l 0,0 c -1.9325,-20.203 -1.4682,-9.9 -1.2807,-30.913 3.549,-49.419 12.2736,-98.219 21.4726,-146.861 12.7544,-65.909 26.3892,-131.639 40.9021,-197.184 10.1037,-44.787 20.1265,-89.752 35.4496,-133.11 6.9166,-17.227 88.1221,15.379 81.2055,32.605 z" id="path23943" inkscape:connector-curvature="0" style="fill:#550000;fill-opacity:1;fill-rule:nonzero;stroke:#f9f9f9;stroke-width:0.1;stroke-miterlimit:4;stroke-dasharray:none" transform="translate(-9216, -15360)"/><path d="m 9459.3876,15749.183 c 24.4091,-19.365 53.9044,-28.946 83.653,-36.498 27.9072,-6.922 55.7804,-10.512 84.2392,-5.96 41.1858,13.769 50.2572,43.773 51.0908,83.158 -0.071,25.002 -4.3386,49.583 -10.7238,73.668 -5.3008,16.204 -2.4202,8.214 -8.6326,23.974 -6.9095,17.162 -87.8104,-15.41 -80.901,-32.571 l 0,0 c 3.8506,-9.231 2.0466,-4.507 5.3918,-14.18 4.5129,-16.142 7.3479,-32.678 7.6304,-49.479 -0.1473,-21.459 0.7711,-0.04 18.4188,1.044 -14.0744,-3.47 -30.8294,2.309 -45.4033,4.587 -16.5726,4.078 -33.7371,8.375 -47.6497,18.759 -14.1072,12.116 -71.2209,-54.387 -57.1136,-66.502 z" id="path23945" inkscape:connector-curvature="0" style="fill:#550000;fill-opacity:1;fill-rule:nonzero;stroke:#f9f9f9;stroke-width:0.1;stroke-miterlimit:4;stroke-dasharray:none" transform="translate(-9216, -15360)"/><path d="m 9465.9921,15893.782 c 30.5827,-3.646 61.3646,-3.859 92.0998,-2.878 25.2039,1.22 50.4274,3.036 75.2976,7.424 18.2318,3.605 1.2366,89.551 -16.9952,85.946 l 0,0 c -20.0045,-4.723 -40.7493,-5.362 -61.1642,-6.857 -26.1902,-0.902 -52.5157,-0.863 -78.4608,3.352 -18.4528,2.286 -29.2299,-84.701 -10.7772,-86.987 z" id="path23947" inkscape:connector-curvature="0" style="fill:#550000;fill-opacity:1;fill-rule:nonzero;stroke:#f9f9f9;stroke-width:0.1;stroke-miterlimit:4;stroke-dasharray:none" transform="translate(-9216, -15360)"/><path d="m 9521.372,15818.084 c -7.3653,35.461 -9.2303,71.816 -11.7859,107.865 -3.2195,47.823 -6.151,95.665 -9.0085,143.511 1.4889,22.38 -7.1587,48.699 1.5413,70.378 2.0799,-5.732 -7.7725,-11.763 -10.6446,-14.276 15.4932,-4.225 29.9595,-11.225 44.1716,-18.56 19.0186,-10.301 37.7237,-21.165 56.6926,-31.557 8.1963,-4.418 16.4529,-8.723 24.6862,-13.072 16.4224,-8.591 56.9236,68.825 40.5012,77.417 l 0,0 c -7.8322,4.058 -15.6801,8.087 -23.459,12.247 -19.6517,10.642 -39.0038,21.827 -58.7103,32.369 -25.1014,12.82 -51.0194,25.061 -79.3324,28.442 -38.9752,0.419 -65.2368,-13.007 -78.5146,-51.407 -7.1555,-32.143 -5.4348,-64.768 -2.8147,-97.434 3.2262,-47.958 6.3278,-95.923 9.362,-143.893 2.6624,-40.574 4.8015,-81.339 11.9501,-121.431 4.1156,-18.109 89.4806,1.292 85.365,19.401 z" id="path23949" inkscape:connector-curvature="0" style="fill:#550000;fill-opacity:1;fill-rule:nonzero;stroke:#f9f9f9;stroke-width:0.1;stroke-miterlimit:4;stroke-dasharray:none" transform="translate(-9216, -15360)"/><path d="m 9742.6248,15606.279 c 33.6906,-4.493 67.6336,-6.513 101.5399,-8.557 43.2178,-2.703 86.3764,-6.237 129.5917,-8.973 27.0966,-1.398 54.1616,-4.931 80.9786,0.224 41.244,34.9 30.164,11.844 23.02,73.208 -10.918,15.104 -82.1189,-36.364 -71.201,-51.468 l 0,0 c -1.669,53.97 -12.7206,34.235 25.237,62.991 1.355,0.03 3.657,1.399 4.065,0.107 0.553,-1.754 -38.0389,0.155 -39.8167,0.229 -5.7298,0.239 -11.4573,0.532 -17.186,0.798 -43.1228,2.369 -86.1669,5.877 -129.254,8.803 -31.0964,2.063 -62.3126,3.887 -93.0657,9.181 -18.3587,2.951 -32.2675,-83.593 -13.9088,-86.543 z" id="path23951" inkscape:connector-curvature="0" style="fill:#550000;fill-opacity:1;fill-rule:nonzero;stroke:#f9f9f9;stroke-width:0.1;stroke-miterlimit:4;stroke-dasharray:none" transform="translate(-9216, -15360)"/><path d="m 9928.9691,15697.115 c -17.6159,28.939 -31.4367,59.995 -45.4793,90.768 -17.3246,38.627 -34.624,77.267 -52.7408,115.532 -7.981,16.525 -85.8846,-21.098 -77.9035,-37.623 l 0,0 c 18.4198,-37.353 35.4557,-75.357 52.3602,-113.415 15.4629,-34.296 30.8816,-68.7 49.395,-101.491 9.8066,-15.776 84.175,30.453 74.3684,46.229 z" id="path23953" inkscape:connector-curvature="0" style="fill:#550000;fill-opacity:1;fill-rule:nonzero;stroke:#f9f9f9;stroke-width:0.1;stroke-miterlimit:4;stroke-dasharray:none" transform="translate(-9216, -15360)"/><path d="m 9791.078,15869.631 c -2.8232,21.982 -1.6679,44.096 1.5135,65.946 3.3509,21.076 10.5562,41.21 17.5228,61.292 3.8994,11.261 2.0175,5.843 5.6435,16.256 5.9511,17.566 -76.8566,45.62 -82.8077,28.054 l 0,0 c -3.4059,-10.342 -1.6264,-4.971 -5.3431,-16.113 -8.556,-25.399 -17.1471,-50.921 -21.0047,-77.552 -3.8444,-28.682 -5.3441,-57.559 -2.7635,-86.451 1.8176,-18.506 89.0567,-9.938 87.2392,8.568 z" id="path23955" inkscape:connector-curvature="0" style="fill:#550000;fill-opacity:1;fill-rule:nonzero;stroke:#f9f9f9;stroke-width:0.1;stroke-miterlimit:4;stroke-dasharray:none" transform="translate(-9216, -15360)"/><path d="m 9748.7848,15819.751 c 34.9905,-17.05 72.9611,-26.081 110.8183,-34.124 40.4457,-8.204 81.3426,-13.868 122.4161,-17.718 25.0948,-2.229 50.2458,-4.061 75.1668,0.259 41.784,13.021 46.069,44.828 43.304,82.64 -4.004,36.977 -10.906,73.567 -17.198,110.204 -5.615,32.865 -10.716,65.814 -15.415,98.822 -1,11.484 -4.336,22.143 -8.145,32.925 -7.13,17.176 -88.0988,-16.438 -80.9681,-33.614 l 0,0 c 0.2726,6.248 4.822,-15.397 3.1155,-12.32 5.3549,-33.467 10.8188,-66.917 16.4947,-100.332 5.7509,-33.793 11.9639,-67.58 15.2339,-101.725 0.275,-4.304 0.742,-12.043 0.829,-12.035 1.282,0.117 0.877,2.446 1.578,3.527 2.168,3.34 4.096,6.954 6.996,9.683 7.052,6.636 8.774,6.326 16.171,7.981 -15.902,-3.497 -33.239,-0.137 -49.5093,0.15 -37.6305,3.136 -75.09,8.181 -112.1029,15.742 -29.7733,6.386 -59.9875,13.009 -87.2753,27.024 -16.3531,8.806 -57.8628,-68.284 -41.5097,-77.089 z" id="path23957" inkscape:connector-curvature="0" style="fill:#550000;fill-opacity:1;fill-rule:nonzero;stroke:#f9f9f9;stroke-width:0.1;stroke-miterlimit:4;stroke-dasharray:none" transform="translate(-9216, -15360)"/><path d="m 9927.4973,15898.338 c 0.1784,42.631 -5.4318,84.743 -13.9765,126.408 -11.9271,52.726 -34.4582,101.924 -58.7635,149.898 -12.6431,23.814 -25.1487,47.751 -39.7309,70.45 -10.3373,15.375 -82.814,-33.355 -72.4767,-48.73 l 0,0 c 13.7939,-19.084 24.1663,-40.413 35.7476,-60.846 21.166,-40.911 40.8717,-82.897 51.225,-128.037 7.3221,-35.527 12.0943,-71.569 10.4958,-107.944 -0.2542,-18.557 87.225,-19.756 87.4792,-1.199 z" id="path23959" inkscape:connector-curvature="0" style="fill:#550000;fill-opacity:1;fill-rule:nonzero;stroke:#f9f9f9;stroke-width:0.1;stroke-miterlimit:4;stroke-dasharray:none" transform="translate(-9216, -15360)"/><path d="m 9920.6122,16082.478 c 19.4557,14.168 40.5205,25.74 62.1523,36.18 29.8155,13.616 60.4965,25.201 90.9135,37.379 19.022,7.414 37.436,16.189 55.303,26.037 16.143,9.148 -26.978,85.247 -43.121,76.099 l 0,0 c -14.295,-8.403 -29.175,-15.706 -44.601,-21.823 -32.094,-13.064 -64.546,-25.294 -96.0925,-39.662 -25.2843,-12.168 -49.8611,-25.614 -73.1911,-41.255 -15.4762,-10.317 33.1606,-83.272 48.6368,-72.955 z" id="path23961" inkscape:connector-curvature="0" style="fill:#550000;fill-opacity:1;fill-rule:nonzero;stroke:#f9f9f9;stroke-width:0.1;stroke-miterlimit:4;stroke-dasharray:none" transform="translate(-9216, -15360)"/></svg>