<?xml version="1.0" encoding="utf-8" ?>

<!DOCTYPE svg PUBLIC "-//W3C//DTD SVG 1.1//EN" 
  "http://www.w3.org/Graphics/SVG/1.1/DTD/svg11.dtd">
<svg 
    xmlns="http://www.w3.org/2000/svg"
    xmlns:xlink="http://www.w3.org/1999/xlink"
    xmlns:sodipodi="http://sodipodi.sourceforge.net/DTD/sodipodi-0.dtd"
    xmlns:inkscape="http://www.inkscape.org/namespaces/inkscape"
    width="1024" height="1024" id="U9886">
<path d="m 8500.1467,30941.522 c -28.6398,19.26 -53.9177,42.885 -78.7526,66.704 -30.7308,29.975 -59.0339,62.263 -86.4862,95.225 -12.6141,15.233 -24.7921,30.82 -36.7479,46.573 -0.5647,0.654 -6.8696,9.929 -3.0215,4.42 -9.2155,16.461 -86.8165,-26.981 -77.6009,-43.443 l 0,0 c 3.3213,-5.394 6.8585,-10.614 10.8706,-15.53 13.0784,-16.255 26.2775,-32.416 39.8053,-48.3 29.7944,-34.873 60.3035,-69.165 93.0423,-101.327 28.0116,-27.131 56.5935,-53.779 88.1524,-76.805 15.3761,-10.764 66.1146,61.72 50.7385,72.483 z" id="path10140" inkscape:connector-curvature="0" style="fill:#2b0000;fill-opacity:1;fill-rule:nonzero;stroke:#f9f9f9;stroke-width:0.1;stroke-miterlimit:4;stroke-dasharray:none" transform="translate(-8192, -30720)"/><path d="m 8507.4538,30887.373 c 25.4814,18.747 48.9988,39.908 72.0481,61.52 28.0959,26.733 53.9204,55.69 79.3767,84.907 15.8067,18.694 31.9639,37.243 45.8265,57.456 10.2657,15.705 -63.7669,64.098 -74.0326,48.393 l 0,0 c -10.1164,-17.824 -25.6671,-32.365 -37.8543,-48.678 -23.2455,-27.054 -46.9321,-53.789 -72.8734,-78.319 -20.0437,-18.645 -40.3764,-37.151 -63.0469,-52.605 -15.4164,-10.725 35.1394,-83.399 50.5559,-72.674 z" id="path10142" inkscape:connector-curvature="0" style="fill:#2b0000;fill-opacity:1;fill-rule:nonzero;stroke:#f9f9f9;stroke-width:0.1;stroke-miterlimit:4;stroke-dasharray:none" transform="translate(-8192, -30720)"/><path d="m 8438.0091,31094.047 c 17.9808,19.268 36.0424,38.462 54.5404,57.236 10.7174,11.018 22.5379,20.853 33.7523,31.337 13.5415,12.986 -47.6749,76.821 -61.2163,63.835 l 0,0 c -11.4972,-11.487 -24.0853,-21.872 -35.2065,-33.757 -17.9541,-18.415 -35.4926,-37.234 -53.7093,-55.39 -13.4197,-13.119 48.4197,-76.38 61.8394,-63.261 z" id="path10144" inkscape:connector-curvature="0" style="fill:#2b0000;fill-opacity:1;fill-rule:nonzero;stroke:#f9f9f9;stroke-width:0.1;stroke-miterlimit:4;stroke-dasharray:none" transform="translate(-8192, -30720)"/><path d="m 8295.6896,31230.106 c 32.7957,-7.722 66.0264,-13.053 99.4775,-16.894 38.4426,-4.071 77.1291,-3.69 115.7179,-2.977 26.5134,1.008 53.0041,-0.16 79.4919,-1.118 27.4762,-0.892 53.8941,4.523 64.4864,35.919 3.2258,9.562 -1.0806,20.153 -1.6209,30.23 -11.342,23.799 -32.9683,39.466 -52.2702,56.517 -24.4528,21.632 -47.8884,44.373 -70.3007,68.105 -17.7107,18.739 -32.7638,39.663 -46.385,61.491 -7.4356,12.731 -15.1873,25.3 -22.222,38.262 -2.755,5.539 -5.5253,11.011 -8.9347,16.183 -10.9028,15.415 -83.5715,-35.981 -72.6687,-51.397 l 0,0 c -5.4008,8.729 3.4344,-5.867 4.3728,-8.236 8.1292,-14.109 16.8008,-27.906 25.201,-41.854 16.9434,-26.424 35.5244,-51.798 57.2383,-74.554 24.143,-25.379 49.2338,-49.832 75.2068,-73.34 0.1158,-0.105 41.2039,-42.077 26.8528,-20.219 0.1347,8.127 -2.7673,16.896 0.4042,24.379 4.0317,9.513 12.1553,16.948 19.9734,23.702 6.3829,5.515 22.1082,3.269 3.0042,2.909 -27.8521,0.442 -55.7067,1.453 -83.5634,0.337 -34.6868,-0.739 -69.4725,-1.315 -104.0396,2.286 -29.9732,3.44 -59.8289,8.196 -88.9378,16.303 -18.2505,4.345 -38.7348,-81.689 -20.4842,-86.034 z" id="path10146" inkscape:connector-curvature="0" style="fill:#2b0000;fill-opacity:1;fill-rule:nonzero;stroke:#f9f9f9;stroke-width:0.1;stroke-miterlimit:4;stroke-dasharray:none" transform="translate(-8192, -30720)"/><path d="m 8330.9548,31406.167 c 29.5118,10.385 58.9853,20.875 88.5411,31.135 34.9359,11.481 69.1039,25.026 102.7028,39.935 16.0497,7.248 31.926,14.868 47.9705,22.128 16.9692,7.993 -20.7106,87.986 -37.6798,79.993 l 0,0 c -15.342,-7.507 -30.6709,-15.048 -46.1556,-22.257 -31.0788,-14.142 -62.773,-26.831 -95.2625,-37.394 -28.7476,-9.853 -57.3821,-20.073 -86.4333,-29.007 -17.9321,-5.583 8.3847,-90.116 26.3168,-84.533 z" id="path10148" inkscape:connector-curvature="0" style="fill:#2b0000;fill-opacity:1;fill-rule:nonzero;stroke:#f9f9f9;stroke-width:0.1;stroke-miterlimit:4;stroke-dasharray:none" transform="translate(-8192, -30720)"/><path d="m 8745.2913,30898.372 c 36.8285,0.1 73.6572,0.03 110.485,-0.205 43.254,-0.628 86.4929,-2.08 129.7527,-1.434 25.7049,0.508 51.2984,3.33 76.6231,7.655 9.3941,1.817 3.7659,0.455 16.6576,4.931 17.0772,8.009 -20.6809,88.512 -37.7582,80.502 l 0,0 c 8.667,2.545 10.3105,2.959 4.8576,1.502 -20.433,-4.283 -41.2566,-6.618 -62.1135,-7.393 -42.4292,-1.076 -84.8512,0.372 -127.278,1.059 -36.4403,0.385 -72.899,0.386 -109.3191,1.752 -18.7459,0.405 -20.6531,-87.964 -1.9072,-88.369 z" id="path10150" inkscape:connector-curvature="0" style="fill:#2b0000;fill-opacity:1;fill-rule:nonzero;stroke:#f9f9f9;stroke-width:0.1;stroke-miterlimit:4;stroke-dasharray:none" transform="translate(-8192, -30720)"/><path d="m 8902.1145,31012.993 c -17.5284,27.975 -31.089,58.149 -43.8303,88.526 -13.2304,32.018 -22.7289,65.35 -31.2526,98.872 -1.7507,8.018 -3.6904,15.97 -5.9131,23.868 -5.5108,17.963 -90.1871,-8.016 -84.6763,-25.978 l 0,0 c 2.4782,-6.655 3.7221,-13.667 5.736,-20.468 10.2872,-37.124 21.2994,-74.108 35.958,-109.786 14.2799,-34.287 29.5638,-68.185 48.0586,-100.444 9.6329,-16.105 85.5526,29.305 75.9197,45.41 z" id="path10152" inkscape:connector-curvature="0" style="fill:#2b0000;fill-opacity:1;fill-rule:nonzero;stroke:#f9f9f9;stroke-width:0.1;stroke-miterlimit:4;stroke-dasharray:none" transform="translate(-8192, -30720)"/><path d="m 8769.2797,31205.95 c -0.8623,31.359 -2e-4,62.739 0.6503,94.094 1.7261,26.771 -0.1141,54.904 8.47,80.721 0.2389,-0.02 0.4779,-0.05 0.7168,-0.07 7.7316,17.081 -72.7902,53.528 -80.5218,36.447 l 0,0 c -1.709,-4.327 -3.418,-8.654 -5.1269,-12.982 -8.404,-33.428 -10.0366,-67.828 -10.6466,-102.195 -0.7581,-32.494 -1.6363,-64.987 -2.0176,-97.489 0.3128,-18.768 88.7886,-17.294 88.4758,1.475 z" id="path10154" inkscape:connector-curvature="0" style="fill:#2b0000;fill-opacity:1;fill-rule:nonzero;stroke:#f9f9f9;stroke-width:0.1;stroke-miterlimit:4;stroke-dasharray:none" transform="translate(-8192, -30720)"/><path d="m 8737.7437,31131.143 c 28.4387,-4.768 56.7069,-10.533 85.0132,-16.029 36.0582,-6.976 71.9637,-14.71 107.9712,-21.94 21.9211,-3.262 45.3926,-10.641 67.6453,-5.022 5.8489,1.477 11.3323,4.14 16.9984,6.21 5.9466,4.945 12.8944,8.889 17.8397,14.835 20.6932,24.881 15.419,60.67 12.8535,90.156 -4.9344,42.161 -10.2858,84.251 -13.5418,126.583 -2.2258,27.287 -1.7104,54.629 0.5197,81.878 1.1331,8.644 0.886,17.212 0.4161,25.878 -1.8583,18.718 -90.0933,9.958 -88.235,-8.76 l 0,0 c 1.6455,6.545 -0.2893,-16.062 -0.069,-10.905 -1.9306,-31.654 -2.0441,-63.378 0.677,-95.006 3.4903,-42.354 8.6872,-84.512 13.1185,-126.772 0.6649,-8.889 -0.732,-22.613 1.6914,-31.407 0.4969,-1.803 13.2093,18.188 16.5648,13.371 7.5451,1.303 8.983,-0.02 3.1496,0.17 -11.0516,0.363 -21.9199,2.988 -32.8044,4.617 -36.0481,6.888 -71.9402,14.543 -107.9324,21.712 -29.0392,5.804 -58.0574,11.707 -87.051,17.734 -18.5198,3.145 -33.3448,-84.158 -14.8251,-87.303 z" id="path10156" inkscape:connector-curvature="0" style="fill:#2b0000;fill-opacity:1;fill-rule:nonzero;stroke:#f9f9f9;stroke-width:0.1;stroke-miterlimit:4;stroke-dasharray:none" transform="translate(-8192, -30720)"/><path d="m 8908.5767,31251.935 c -11.8183,39.338 -25.926,77.909 -40.6475,116.236 -20.032,51.357 -43.0025,101.492 -65.5641,151.768 -14.9082,32.873 -29.4543,65.923 -44.9758,98.514 -2.9955,6.547 -6.5338,12.757 -10.3745,18.829 -11.0211,15.309 -83.1898,-36.645 -72.1687,-51.954 l 0,0 c -0.4212,0.801 -2.0934,2.765 -1.2636,2.403 2.927,-1.274 1.0997,-8.231 4.8581,-8.253 16.0366,-31.197 30.4521,-63.207 45.1286,-95.056 22.0212,-48.638 44.3561,-97.189 63.5145,-147.049 13.5969,-36.007 26.8804,-72.229 36.4577,-109.553 5.1155,-18.039 90.1508,6.076 85.0353,24.115 z" id="path10158" inkscape:connector-curvature="0" style="fill:#2b0000;fill-opacity:1;fill-rule:nonzero;stroke:#f9f9f9;stroke-width:0.1;stroke-miterlimit:4;stroke-dasharray:none" transform="translate(-8192, -30720)"/><path d="m 8884.4234,31473.718 c 19.599,21.784 44.5284,37.805 69.3187,52.998 31.0791,18.288 65.0498,30.501 99.2519,41.436 15.9029,4.59 8.3372,2.549 22.6752,6.202 18.0078,4.855 -4.8801,89.745 -22.8879,84.89 l 0,0 c -17.2785,-4.868 -8.2857,-2.223 -26.9614,-7.993 -40.4839,-13.507 -80.6431,-28.528 -117.497,-50.376 -32.9066,-20.144 -65.3645,-41.765 -91.6729,-70.337 -12.0533,-14.377 55.72,-71.197 67.7734,-56.82 z" id="path10160" inkscape:connector-curvature="0" style="fill:#2b0000;fill-opacity:1;fill-rule:nonzero;stroke:#f9f9f9;stroke-width:0.1;stroke-miterlimit:4;stroke-dasharray:none" transform="translate(-8192, -30720)"/></svg>