<?xml version="1.0" encoding="utf-8" ?>

<!DOCTYPE svg PUBLIC "-//W3C//DTD SVG 1.1//EN" 
  "http://www.w3.org/Graphics/SVG/1.1/DTD/svg11.dtd">
<svg 
    xmlns="http://www.w3.org/2000/svg"
    xmlns:xlink="http://www.w3.org/1999/xlink"
    xmlns:sodipodi="http://sodipodi.sourceforge.net/DTD/sodipodi-0.dtd"
    xmlns:inkscape="http://www.inkscape.org/namespaces/inkscape"
    width="1024" height="1024" id="U9898">
<path d="m 10397.573,48369.387 c -1.009,31.716 0.119,63.443 2.397,95.077 1.993,27.241 8.052,53.765 19.623,78.502 1.175,2.073 2.35,4.145 3.525,6.217 8.737,16.509 -69.087,57.693 -77.823,41.184 l 0,0 c -2.006,-3.938 -4.011,-7.876 -6.016,-11.814 -14.704,-34.34 -23.694,-70.454 -26.146,-107.836 -2.445,-33.979 -3.668,-68.008 -4.039,-102.074 0.158,-18.769 88.636,-18.026 88.479,0.744 z" id="path12014" inkscape:connector-curvature="0" style="fill:#782121;fill-opacity:1;fill-rule:nonzero;stroke:#f9f9f9;stroke-width:0.1;stroke-miterlimit:4;stroke-dasharray:none" transform="translate(-10240, -48128)"/><path d="m 10376.253,48332.598 c 37.571,-9.057 75.731,-15.34 113.942,-20.971 38.902,-5.831 78.119,-8.966 117.443,-7.87 23.607,1.356 48.698,5.124 65.681,23.552 4.513,4.897 7.464,11.031 11.196,16.546 13.472,35.463 7.192,73.797 2.99,110.489 -5.151,40.533 -11.736,80.867 -18.104,121.222 -1.648,12.915 -4.231,25.642 -7.166,38.311 -4.518,18.143 -90.045,-3.158 -85.527,-21.301 l 0,0 c 2.852,-10.24 4.914,-20.641 6.476,-31.163 6.612,-38.763 13.166,-77.56 17.818,-116.617 1.704,-16.117 3.405,-32.179 3.797,-48.395 0.07,-2.993 -0,-5.987 -0.02,-8.981 -0,-1.314 -0.984,-3.048 -0.02,-3.943 0.71,-0.659 1.237,1.492 1.856,2.237 0.454,0.458 12.869,12.315 14.009,8.849 0.511,-1.553 -16.498,-2.885 -16.35,-3.119 -33.911,-1.764 -67.776,1.023 -101.338,6.024 -34.543,5.171 -69.158,10.782 -102.831,20.236 -18.054,5.061 -41.91,-80.045 -23.856,-85.106 z" id="path12016" inkscape:connector-curvature="0" style="fill:#782121;fill-opacity:1;fill-rule:nonzero;stroke:#f9f9f9;stroke-width:0.1;stroke-miterlimit:4;stroke-dasharray:none" transform="translate(-10240, -48128)"/><path d="m 10408.76,48438.543 c 30.839,-5.584 61.748,-10.762 92.748,-15.367 17.328,-2.827 34.794,-4.288 52.292,-5.47 18.544,-1.109 23.775,86.31 5.23,87.419 l 0,0 c -14.96,0.745 -29.88,1.902 -44.683,4.329 -29.288,4.367 -58.543,9.188 -87.43,15.751 -18.383,3.851 -36.541,-82.81 -18.157,-86.662 z" id="path12018" inkscape:connector-curvature="0" style="fill:#782121;fill-opacity:1;fill-rule:nonzero;stroke:#f9f9f9;stroke-width:0.1;stroke-miterlimit:4;stroke-dasharray:none" transform="translate(-10240, -48128)"/><path d="m 10382.082,48557.687 c 35.279,-12.705 72.035,-20.085 108.916,-26.263 28.385,-4.654 57.055,-6.561 85.779,-7.002 18.645,-0.09 19.086,87.799 0.441,87.892 l 0,0 c -24.076,-0.18 -48.118,1.097 -71.925,4.944 -31.046,5.136 -62.179,11.058 -91.46,22.981 -17.512,6.735 -49.263,-75.817 -31.751,-82.552 z" id="path12020" inkscape:connector-curvature="0" style="fill:#782121;fill-opacity:1;fill-rule:nonzero;stroke:#f9f9f9;stroke-width:0.1;stroke-miterlimit:4;stroke-dasharray:none" transform="translate(-10240, -48128)"/><path d="m 10268.854,48693.225 c 41.585,3.888 83.33,-1.45 124.582,-6.399 71.145,-9.995 142.038,-21.535 213.359,-30.261 49.562,-5.974 99.381,-9.18 149.229,-11.468 3.619,-0.169 7.237,-0.337 10.856,-0.506 18.663,-0.475 20.901,87.504 2.238,87.979 l 0,0 c -3.444,0.01 -6.888,0.02 -10.332,0.03 -47.378,0.776 -94.712,3.552 -141.808,8.884 -71.221,8.36 -141.965,19.853 -212.872,30.469 -47.743,6.223 -95.861,12.296 -144.108,9.198 -18.652,-1.879 -9.796,-89.806 8.856,-87.928 z" id="path12022" inkscape:connector-curvature="0" style="fill:#782121;fill-opacity:1;fill-rule:nonzero;stroke:#f9f9f9;stroke-width:0.1;stroke-miterlimit:4;stroke-dasharray:none" transform="translate(-10240, -48128)"/><path d="m 10558.843,48737.231 c -10.541,27.76 -13.74,57.595 -16.418,86.956 -1.724,24.434 -1.857,49.138 5.059,72.791 4.517,18.054 -80.589,39.352 -85.107,21.298 l 0,0 c -7.688,-33.547 -9.725,-67.648 -6.505,-101.992 3.487,-38.15 8.145,-76.559 21.18,-112.82 7.163,-17.35 88.954,16.417 81.791,33.767 z" id="path12024" inkscape:connector-curvature="0" style="fill:#782121;fill-opacity:1;fill-rule:nonzero;stroke:#f9f9f9;stroke-width:0.1;stroke-miterlimit:4;stroke-dasharray:none" transform="translate(-10240, -48128)"/><path d="m 10507.629,48800.114 c 33.164,-3.009 66.419,-4.424 99.705,-4.937 22.114,-0.221 44.184,1.07 66.2,2.978 18.541,1.789 10.107,89.191 -8.434,87.402 l 0,0 c -18.751,-2.038 -37.577,-3.32 -56.454,-3.179 -30.629,0.449 -61.293,1.638 -91.693,5.652 -18.65,1.978 -27.974,-85.938 -9.324,-87.916 z" id="path12026" inkscape:connector-curvature="0" style="fill:#782121;fill-opacity:1;fill-rule:nonzero;stroke:#f9f9f9;stroke-width:0.1;stroke-miterlimit:4;stroke-dasharray:none" transform="translate(-10240, -48128)"/><path d="m 10410.767,48730.724 c -7.735,38.037 -12.899,76.556 -19.508,114.805 -7.876,47.269 -19.137,93.818 -35.316,138.922 -6.353,18.198 -16.16,34.525 -26.523,50.615 -10.328,15.47 -83.254,-33.214 -72.926,-48.684 l 0,0 c 7.101,-9.968 13.438,-20.273 17.64,-31.876 14.995,-39.959 24.788,-81.51 31.831,-123.582 6.759,-39.85 11.926,-79.932 18.605,-119.79 4.156,-18.285 90.353,1.305 86.197,19.59 z" id="path12028" inkscape:connector-curvature="0" style="fill:#782121;fill-opacity:1;fill-rule:nonzero;stroke:#f9f9f9;stroke-width:0.1;stroke-miterlimit:4;stroke-dasharray:none" transform="translate(-10240, -48128)"/><path d="m 10363.039,48903.951 c 27.33,18.904 58.444,29.88 89.932,39.546 58.901,16.075 119.219,25.971 179.432,35.608 63.561,9.463 126.789,20.938 190.09,31.961 48.153,8.696 96.671,14.887 145.4,19.159 35.144,2.74 70.387,4.124 105.624,4.92 21.509,0.642 43.105,0.547 64.292,-3.489 7.51,-1.552 14.834,-3.856 22.194,-5.979 17.973,-5.169 42.34,79.559 24.367,84.728 l 0,0 c -10.349,2.968 -20.679,6.082 -31.292,7.998 -27.058,4.524 -54.419,5.449 -81.824,4.193 -37.117,-1.074 -74.238,-2.746 -111.241,-5.907 -51.102,-4.824 -101.992,-11.513 -152.48,-20.866 -62.783,-11.229 -125.496,-22.889 -188.603,-32.206 -64.094,-10.179 -128.293,-20.614 -191.073,-37.343 -38.574,-11.588 -76.438,-25.166 -110.739,-46.73 -16.036,-9.741 29.886,-85.335 45.921,-75.593 z" id="path12030" inkscape:connector-curvature="0" style="fill:#782121;fill-opacity:1;fill-rule:nonzero;stroke:#f9f9f9;stroke-width:0.1;stroke-miterlimit:4;stroke-dasharray:none" transform="translate(-10240, -48128)"/><path d="m 10834.104,48302.892 c 40.911,-1.323 81.79,-3.357 122.712,-4.469 50.109,-1.426 100.241,-1.116 150.354,-0.152 20.483,-0.696 39.006,2.489 57.995,9.682 16.699,8.646 -24.06,87.367 -40.759,78.72 l 0,0 c 25.021,6.022 -18.271,-4.593 -19.671,-1.31 -48.418,-1.791 -96.884,-2.292 -145.317,-0.619 -41.397,1.375 -82.744,3.561 -124.061,6.504 -18.743,0.266 -19.996,-88.09 -1.253,-88.356 z" id="path12032" inkscape:connector-curvature="0" style="fill:#782121;fill-opacity:1;fill-rule:nonzero;stroke:#f9f9f9;stroke-width:0.1;stroke-miterlimit:4;stroke-dasharray:none" transform="translate(-10240, -48128)"/><path d="m 11035.306,48382.17 c -8.877,39.967 -24.246,78.074 -38.945,116.16 -8.193,20.937 -16.452,41.848 -24.729,62.752 -6.866,17.12 -87.572,-15.248 -80.706,-32.368 l 0,0 c 8.302,-20.434 16.575,-40.88 24.551,-61.444 12.416,-32.501 25.709,-65.052 32.523,-99.296 3.012,-18.52 90.317,-4.324 87.306,14.196 z" id="path12034" inkscape:connector-curvature="0" style="fill:#782121;fill-opacity:1;fill-rule:nonzero;stroke:#f9f9f9;stroke-width:0.1;stroke-miterlimit:4;stroke-dasharray:none" transform="translate(-10240, -48128)"/><path d="m 10868.145,48569.463 c -4.296,34.16 -5.625,68.498 -4.495,102.88 2.015,34.025 7.125,67.97 18.963,100.02 4.342,8.424 1.831,5.573 6.095,9.629 10.365,15.551 -62.943,64.411 -73.307,48.86 l 0,0 c -11.521,-18.928 -6.358,-9.039 -15.419,-29.707 -13.632,-40.74 -21.183,-83.063 -23.164,-126.018 -1.185,-37.74 0.104,-75.373 3.222,-113.007 1.558,-18.69 89.663,-11.347 88.105,7.343 z" id="path12036" inkscape:connector-curvature="0" style="fill:#782121;fill-opacity:1;fill-rule:nonzero;stroke:#f9f9f9;stroke-width:0.1;stroke-miterlimit:4;stroke-dasharray:none" transform="translate(-10240, -48128)"/><path d="m 10827.672,48536.878 c 30.301,-26.71 69.069,-38.009 107.43,-47.491 44.121,-9.603 89.129,-14.118 134.161,-16.395 27.409,-0.06 57.616,-1.778 82.802,11.39 5.634,2.946 10.616,6.999 15.924,10.499 32.154,32.025 26.409,74.545 22.79,115.827 -4.49,44.683 -8.854,89.376 -12.773,134.113 -1.65,20.52 -3.174,41.021 -6.098,61.402 -2.931,18.436 -89.838,4.62 -86.907,-13.816 l 0,0 c 3.35,-18.352 4.514,-36.981 6.429,-55.522 4.252,-44.426 8.615,-88.844 12.538,-133.3 1.054,-13.905 1.625,-27.692 2.223,-41.603 0.04,-0.997 -0.589,-2.805 0.396,-2.967 3.118,-0.512 3.185,8.871 7.523,5.77 0.986,0.168 2.078,0.981 2.958,0.505 2.183,-1.177 -4.338,-2.584 -6.765,-3.096 -12.16,-2.565 -24.75,-2.138 -37.081,-2.137 -39.362,1.561 -78.709,5.368 -117.259,13.748 -22.876,5.651 -47.137,11.207 -66.098,26.016 -13.352,13.193 -75.545,-49.75 -62.193,-62.943 z" id="path12038" inkscape:connector-curvature="0" style="fill:#782121;fill-opacity:1;fill-rule:nonzero;stroke:#f9f9f9;stroke-width:0.1;stroke-miterlimit:4;stroke-dasharray:none" transform="translate(-10240, -48128)"/><path d="m 11050.147,48618.339 c -8.47,35.58 -16.575,71.233 -25.634,106.673 -13.98,56.328 -33.686,110.818 -57.682,163.588 -15.131,31.951 -33.193,62.334 -55.405,89.834 -12.005,14.255 -79.202,-42.337 -67.197,-56.591 l 0,0 c 18.481,-20.426 31.714,-44.838 44.128,-69.272 22.177,-47.78 39.905,-97.355 52.271,-148.622 8.714,-35.377 16.54,-70.942 23.535,-106.7 4.474,-18.24 90.458,2.85 85.984,21.09 z" id="path12040" inkscape:connector-curvature="0" style="fill:#782121;fill-opacity:1;fill-rule:nonzero;stroke:#f9f9f9;stroke-width:0.1;stroke-miterlimit:4;stroke-dasharray:none" transform="translate(-10240, -48128)"/><path d="m 11040.834,48799.215 c 4.889,23.359 19.306,42.703 34.076,60.804 21.64,25.279 49.22,43.819 77.34,61.049 14.592,8.784 29.667,16.708 45.52,22.935 17.208,7.165 -16.566,88.286 -33.774,81.121 l 0,0 c -19.896,-8.581 -39.206,-18.366 -57.622,-29.834 -36.369,-22.646 -71.571,-47.497 -99.336,-80.589 -24.09,-30.167 -45.567,-62.594 -53.482,-101.06 -3.061,-18.514 84.218,-32.94 87.278,-14.426 z" id="path12042" inkscape:connector-curvature="0" style="fill:#782121;fill-opacity:1;fill-rule:nonzero;stroke:#f9f9f9;stroke-width:0.1;stroke-miterlimit:4;stroke-dasharray:none" transform="translate(-10240, -48128)"/></svg>