<?xml version="1.0" encoding="UTF-8" standalone="no"?>
<svg
   xmlns:dc="http://purl.org/dc/elements/1.1/"
   xmlns:cc="http://creativecommons.org/ns#"
   xmlns:rdf="http://www.w3.org/1999/02/22-rdf-syntax-ns#"
   xmlns:svg="http://www.w3.org/2000/svg"
   xmlns="http://www.w3.org/2000/svg"
   xmlns:sodipodi="http://sodipodi.sourceforge.net/DTD/sodipodi-0.dtd"
   xmlns:inkscape="http://www.inkscape.org/namespaces/inkscape"
   width="1024"
   height="1024"
   id="U9884"
   version="1.1"
   inkscape:version="0.48.0 r9654"
   sodipodi:docname="U+9884.svg">
  <metadata
     id="metadata17">
    <rdf:RDF>
      <cc:Work
         rdf:about="">
        <dc:format>image/svg+xml</dc:format>
        <dc:type
           rdf:resource="http://purl.org/dc/dcmitype/StillImage" />
      </cc:Work>
    </rdf:RDF>
  </metadata>
  <defs
     id="defs15" />
  <sodipodi:namedview
     pagecolor="#ffffff"
     bordercolor="#666666"
     borderopacity="1"
     objecttolerance="10"
     gridtolerance="10"
     guidetolerance="10"
     inkscape:pageopacity="0"
     inkscape:pageshadow="2"
     inkscape:window-width="640"
     inkscape:window-height="480"
     id="namedview13"
     showgrid="false"
     inkscape:zoom="0.27441406"
     inkscape:cx="512"
     inkscape:cy="512"
     inkscape:window-x="0"
     inkscape:window-y="25"
     inkscape:window-maximized="0"
     inkscape:current-layer="U9884" />
  <path
     style="fill:#2b1100;fill-opacity:1;fill-rule:nonzero;stroke:none"
     d="M 817.4375 139.15625 C 795.56729 139.07933 773.68041 140.60525 751.90625 142.84375 C 707.96855 147.84575 664.2871 154.78875 621.25 165.09375 C 588.8075 172.88875 556.60365 181.61875 525.28125 193.21875 C 507.70725 199.80875 538.76975 282.6535 556.34375 276.0625 C 580.27494 266.07527 605.19207 258.89713 630.28125 252.53125 C 624.4538 276.43874 617.11966 299.98184 610.46875 323.65625 C 605.74604 341.32318 600.85443 358.93779 595.625 376.4375 C 579.85057 383.99397 564.76335 392.88718 550.9375 404.03125 C 544.91915 409.14282 551.55668 424.1205 562.3125 438.8125 C 542.11332 437.81853 517.58875 441.32099 508.125 448.40625 C 502.5966 438.53015 494.70682 429.93188 483.75 423.09375 C 463.3152 411.53475 441.23065 405.223 417.78125 403.25 C 380.71615 399.902 343.6422 401.18725 306.75 406.28125 C 305.8758 406.38831 304.99923 406.48635 304.125 406.59375 C 310.20896 398.18643 314.57517 389.97663 315.4375 383.9375 C 321.92193 371.18579 328.25768 358.3237 334.71875 345.5625 C 345.99785 322.8875 357.80075 300.50525 371.46875 279.15625 C 382.65345 261.22025 394.96285 243.52175 402.03125 223.46875 C 402.76815 217.14475 405.10735 210.804 404.21875 204.5 C 399.54395 171.337 373.8328 155.36375 342.8125 155.09375 C 316.4901 155.91575 290.9003 161.58375 265.5 168.34375 C 237.6512 175.41175 209.8309 182.56725 182.1875 190.40625 C 164.3083 196.10925 191.1833 280.3905 209.0625 274.6875 C 233.74326 266.62486 258.95042 260.26218 284.125 253.9375 C 274.2676 271.09989 265.13738 288.65156 256.25 306.34375 C 253.04654 312.60085 249.84825 318.85973 246.65625 325.125 C 238.23539 318.88694 229.86123 312.5968 221.59375 306.15625 C 206.69205 294.75225 152.94205 365.00225 167.84375 376.40625 C 186.84631 390.07973 205.84786 403.7251 224.59375 417.75 C 204.66756 421.09539 184.83153 424.97308 165.1875 429.8125 C 132.3991 438.2065 99.72715 447.3745 68.78125 461.3125 C 51.77925 469.2925 89.373 549.44875 106.375 541.46875 C 131.9202 528.77375 159.5329 521.25425 187 514.03125 C 194.27456 512.20047 201.57875 510.49778 208.90625 508.9375 C 209.19188 530.30977 210.25764 551.6906 211.21875 573.03125 C 213.47585 631.08725 218.20365 688.97075 221.46875 746.96875 C 223.57775 799.91975 226.3461 852.83575 229.75 905.71875 C 231.9193 933.73875 231.07375 961.8295 228.96875 989.8125 C 228.9605 993.15331 228.6132 995.69956 228.21875 997.5 C 228.68113 996.57933 229.27577 995.47879 230.09375 994.15625 C 230.72616 993.23661 231.475 992.42495 232.28125 991.6875 C 221.67695 1006.5406 252.17222 1078.2906 268.5 1071.625 C 278.2559 1067.243 287.5557 1062.5385 295 1054.5625 C 309.089 1037.2015 316.8746 1018.0923 316.875 995.40625 C 318.5902 963.55825 318.98995 931.6295 316.28125 899.8125 C 312.47555 847.2865 309.5413 794.71475 307.375 742.09375 C 304.0655 684.56575 299.3898 627.11 297.625 569.5 C 296.72751 544.68801 295.55039 519.77542 296.34375 494.9375 C 303.26146 494.07442 310.17416 493.22423 317.09375 492.40625 C 347.70185 488.41025 378.47445 487.20475 409.15625 490.59375 C 416.01636 491.79948 423.43822 492.44805 430.125 494.78125 C 426.38645 506.85967 419.37201 517.82949 412.96875 528.625 C 403.04375 545.44 391.4348 561.1735 378.6875 575.9375 C 366.6285 590.1375 433.566 646.98225 445.625 632.78125 C 461.3262 614.07225 475.9976 594.46725 488.4375 573.40625 C 496.9024 559.1585 505.24613 544.62025 511.09375 529.25 C 511.88305 538.12782 512.6778 547.02568 513.4375 555.90625 C 516.5234 589.80425 519.54085 623.73425 524.59375 657.40625 C 526.28135 669.02125 529.05715 680.42175 531.71875 691.84375 C 536.26445 710.06975 622.1707 688.6635 617.625 670.4375 C 615.232 661.5805 612.86245 652.68 611.34375 643.625 C 606.00885 612.152 603.0845 580.3295 600.125 548.5625 C 598.0467 523.73571 595.84629 498.91449 594.0625 474.0625 C 611.15418 482.95205 632.91047 489.62533 644.15625 487.75 C 643.91387 526.48482 642.06932 565.11764 638.53125 603.6875 C 631.95055 662.5225 618.14125 720.21575 602.09375 777.09375 C 591.03925 814.71075 576.6276 851.369 556.375 885 C 552.6365 885.721 552.2579 893.57975 548.1875 894.84375 C 547.3005 895.11975 549.12605 893.2395 549.59375 892.4375 C 534.69335 903.8395 588.44345 974.05825 603.34375 962.65625 C 614.71425 952.63925 624.8955 942.49825 632.125 928.90625 C 647.58906 901.46246 660.57703 872.78591 671.25 843.21875 C 694.08753 852.07507 717.05759 860.52703 740.0625 868.9375 C 778.6122 882.3175 816.21965 898.05975 853.21875 915.21875 C 884.91865 930.31275 915.86225 946.93375 947.34375 962.46875 C 957.88925 967.63075 968.58945 972.3805 979.40625 976.9375 C 996.72815 984.0005 1030.0407 902.34525 1012.7188 895.28125 C 1003.5608 891.71525 994.55165 887.8735 985.65625 883.6875 C 953.48405 868.3045 922.00405 851.4665 889.71875 836.3125 C 850.58455 818.2545 810.87155 801.621 770.21875 787.25 C 745.37436 778.00361 720.44368 768.86152 696.0625 758.4375 C 708.29484 710.19236 718.49407 661.4191 724.3125 611.9375 C 728.4264 570.9065 730.66615 529.81 732.59375 488.625 C 732.9732 473.57548 676.16285 469.16426 653.40625 477.6875 C 654.5657 474.81177 655.74677 471.93823 656.90625 469.0625 C 660.14158 459.94756 663.24745 450.80939 666.25 441.625 C 668.32714 440.87957 670.39126 440.13954 672.46875 439.40625 C 705.40625 428.37725 739.3809 421.78175 773.9375 418.96875 C 794.95648 417.69836 815.74533 419.97561 836.03125 425.375 C 835.93517 441.94481 835.22091 464.53135 834.15625 482.46875 C 830.78515 529.80175 827.43975 577.11825 825.40625 624.53125 C 823.60335 659.64625 823.96285 694.8015 823.15625 729.9375 C 826.8714 715.64196 823.48742 734.19252 822.21875 738.8125 C 826.6587 756.8991 896.54377 786.15654 903.53125 770.25 C 907.98945 757.194 911.83905 744.9525 911.03125 730.9375 C 911.06145 696.6565 910.44315 662.35875 912.03125 628.09375 C 913.88055 581.36575 917.1497 534.76025 921 488.15625 C 923.4459 453.66825 927.77555 417.7745 915.71875 384.5625 C 901.74525 359.4655 885.3459 346.3315 857.3125 339.8125 C 827.4697 332.7405 796.9919 329.7405 766.3125 332.0625 C 742.37565 334.27866 718.64581 337.78454 695.25 342.90625 C 705.14706 308.73662 715.9918 274.78306 723.3125 239.9375 C 723.64009 238.02896 723.00029 236.14413 721.59375 234.34375 C 734.86829 232.40798 748.18616 230.72388 761.53125 229.28125 C 786.14179 227.31103 811.04558 225.19438 835.6875 227.78125 C 831.53895 225.95201 827.41481 222.45393 824.78125 220.28125 C 840.91044 228.10299 902.83704 176.49317 891.5 162.59375 C 876.41 150.31575 866.8395 141.72275 847.25 140.34375 C 837.32025 139.5675 827.37851 139.19122 817.4375 139.15625 z M 835.6875 227.78125 C 837.54827 228.60173 839.3983 229.08153 841.09375 228.9375 C 841.86035 228.8775 839.6572 228.397 838.9375 228.125 C 837.85329 227.9922 836.77284 227.89519 835.6875 227.78125 z M 822.21875 738.8125 C 822.09749 738.31852 822.02099 737.81987 822 737.34375 C 821.85799 738.1337 821.7597 738.91945 821.78125 739.71875 C 821.79588 740.25961 821.96925 739.7211 822.21875 738.8125 z M 822 737.34375 C 822.16109 736.44765 822.37181 735.55445 822.5 734.65625 C 822.12572 735.50827 821.95883 736.40997 822 737.34375 z M 228.21875 997.5 C 226.10331 1001.7122 227.29496 1001.7166 228.21875 997.5 z M 340.09375 243.3125 C 341.34135 243.30216 342.59175 243.32481 343.84375 243.375 C 344.54225 243.535 346.1287 243.15375 345.9375 243.84375 C 345.91937 243.90961 343.28674 244.28054 340.09375 243.3125 z M 841.90625 427.53125 C 845.11033 428.86943 844.35552 428.96006 841.90625 427.53125 z M 434.75 496.78125 C 436.07334 497.4717 437.37484 498.24549 438.59375 499.15625 C 437.21005 499.12449 435.90763 498.0406 434.75 496.78125 z "
     id="path13433" />
</svg>
