<?xml version="1.0" encoding="UTF-8" standalone="no"?>
<svg
   xmlns:dc="http://purl.org/dc/elements/1.1/"
   xmlns:cc="http://creativecommons.org/ns#"
   xmlns:rdf="http://www.w3.org/1999/02/22-rdf-syntax-ns#"
   xmlns:svg="http://www.w3.org/2000/svg"
   xmlns="http://www.w3.org/2000/svg"
   xmlns:sodipodi="http://sodipodi.sourceforge.net/DTD/sodipodi-0.dtd"
   xmlns:inkscape="http://www.inkscape.org/namespaces/inkscape"
   width="1024"
   height="1024"
   id="U98DF"
   version="1.1"
   inkscape:version="0.48.0 r9654"
   sodipodi:docname="U+98DF.svg">
  <metadata
     id="metadata16">
    <rdf:RDF>
      <cc:Work
         rdf:about="">
        <dc:format>image/svg+xml</dc:format>
        <dc:type
           rdf:resource="http://purl.org/dc/dcmitype/StillImage" />
      </cc:Work>
    </rdf:RDF>
  </metadata>
  <defs
     id="defs14" />
  <sodipodi:namedview
     pagecolor="#ffffff"
     bordercolor="#666666"
     borderopacity="1"
     objecttolerance="10"
     gridtolerance="10"
     guidetolerance="10"
     inkscape:pageopacity="0"
     inkscape:pageshadow="2"
     inkscape:window-width="640"
     inkscape:window-height="480"
     id="namedview12"
     showgrid="false"
     inkscape:zoom="0.27441406"
     inkscape:cx="512"
     inkscape:cy="512"
     inkscape:window-x="0"
     inkscape:window-y="25"
     inkscape:window-maximized="0"
     inkscape:current-layer="U98DF" />
  <path
     style="fill:#a02c2c;fill-opacity:1;fill-rule:nonzero;stroke:#f9f9f9;stroke-width:0.1;stroke-miterlimit:4;stroke-dasharray:none"
     d="M 487.875 51.15625 C 486.99539 51.163769 486.17 51.372188 485.375 51.75 C 447.3232 72.95 417.6783 105.53975 388.375 137.09375 C 346.6836 184.04875 306.72675 232.5405 267.65625 281.6875 C 245.91445 310.6595 222.42515 338.57575 203.78125 369.71875 C 195.64975 389.28075 198.81165 378.287 195.84375 403.125 C 196.4157 420.99951 276.55755 419.30298 283.9375 402.9375 C 283.45265 405.42751 283.2778 407.00005 283.1875 408.125 C 297.55381 381.962 318.80073 359.66174 335.3125 335 C 372.4453 287.457 410.8584 240.86075 451.3125 196.09375 C 470.13069 176.23837 488.8778 155.31455 511.34375 139.4375 C 524.82697 155.99813 539.35521 171.71344 554.03125 187.21875 C 585.24735 218.78775 618.03385 248.718 649.65625 279.875 C 669.21645 300.438 690.82095 319.07575 710.15625 339.84375 C 710.69485 340.72475 711.2114 341.58775 711.75 342.46875 C 723.2581 357.24975 792.9457 302.99975 781.4375 288.21875 C 778.8107 285.03475 776.1893 281.8715 773.5625 278.6875 C 753.0148 257.8935 731.0006 238.57275 710.5 217.71875 C 679.5236 187.60675 647.61745 158.452 617.34375 127.625 C 597.88025 106.82 578.40975 85.6665 563.21875 61.4375 C 557.89267 52.497439 532.18663 62.438282 511.9375 75.8125 C 504.079 62.004356 494.79063 51.097135 487.875 51.15625 z M 283.1875 408.125 C 282.25354 409.82586 281.34108 411.54595 280.46875 413.28125 C 283.35597 410.62354 282.94508 411.14506 283.1875 408.125 z M 480.5625 264.90625 C 458.85575 264.55931 404.24592 300.45328 412.625 314.21875 C 429.3107 341.29475 448.91715 366.28475 469.34375 390.59375 C 472.97776 394.7741 476.63017 398.929 480.28125 403.09375 C 464.44463 406.52309 448.61929 410.12173 432.84375 413.84375 C 398.40105 421.72875 364.00255 429.81825 329.28125 436.40625 C 322.74578 437.83425 320.97536 449.73648 322.1875 464.28125 C 313.80662 464.91423 307.85724 467.2327 306.90625 471.75 C 300.31915 509.154 297.34115 547.055 294.34375 584.875 C 290.52505 639.701 286.3882 694.47725 284.4375 749.40625 C 283.6338 788.93725 284.13335 828.52475 286.96875 867.96875 C 288.69345 891.39275 292.8506 914.305 301.5625 936.125 C 320.4226 972.918 350.8744 978.99075 388.75 973.34375 C 423.5978 964.74575 456.6204 950.11025 489.125 935.15625 C 522.1871 919.55325 554.00855 901.48775 585.71875 883.34375 C 588.46202 881.7618 589.4416 878.24531 589.125 873.53125 C 611.75452 881.47423 634.43217 889.30994 656.96875 897.5 C 700.58225 913.548 742.9701 932.58975 785.0625 952.21875 C 805.2533 961.99475 826.01615 971.11625 844.03125 984.65625 C 859.26885 995.41725 909.9877 923.60475 894.75 912.84375 C 871.7344 897.13675 846.98655 884.53075 821.53125 873.21875 C 777.07875 852.91975 732.2986 833.24675 686.375 816.46875 C 637.0121 798.56775 587.04255 782.27625 538.46875 762.28125 C 514.26411 751.44482 489.85574 740.10693 468.84375 723.75 C 473.15583 722.73191 477.47264 721.68746 481.78125 720.65625 C 522.32625 710.48725 563.0987 701.39375 604.1875 693.71875 C 620.0482 690.87275 612.6655 692.135 626.375 689.875 C 634.58495 688.37634 635.96013 670.25952 633.34375 650.96875 C 657.30509 659.46582 689.14764 663.06525 691.9375 652.21875 C 699.8527 619.07675 701.1305 585.221 702.125 551.25 C 703.4373 519.748 704.49765 488.18575 701.78125 456.71875 C 697.90585 423.65375 685.6421 394.9115 651.125 384.4375 C 622.4488 378.9425 593.71215 382.2685 565.03125 386.8125 C 559.75253 387.67313 554.48581 388.54817 549.21875 389.46875 C 559.37627 378.15879 565.53496 367.01544 561 361.84375 C 552.7476 352.57375 544.4203 343.38175 536.1875 334.09375 C 518.5532 313.37575 501.44805 292.101 488.15625 268.25 C 486.78513 265.99747 484.11451 264.96302 480.5625 264.90625 z M 614.375 468.875 C 616.70232 495.13111 615.92894 521.51198 614.9375 547.8125 C 613.64708 566.1449 613.96967 584.8407 612 603.1875 C 611.52194 603.15475 611.04466 603.16201 610.5625 603.25 C 596.68943 606.0098 602.16441 604.88997 588.4375 607.6875 C 600.2455 590.99958 595.43801 523.06533 579.0625 523.75 C 550.7673 525.126 522.4633 526.5675 494.25 529.1875 C 461.5379 532.5725 428.9708 537.10275 396.9375 544.71875 C 378.7422 549.26775 400.21095 635.049 418.40625 630.5 C 446.15855 622.734 474.7245 618.97775 503.3125 615.96875 C 524.87429 613.91952 546.51886 612.79158 568.15625 611.9375 C 532.56031 619.48608 497.10841 627.66311 461.78125 636.40625 C 433.33971 643.09395 404.8128 649.69166 375.9375 654.21875 C 377.37763 633.49723 378.99627 612.77534 380.59375 592.0625 C 382.91228 565.73843 385.0713 539.30476 389.21875 513.1875 C 410.28806 508.24197 431.36598 503.31091 452.4375 498.375 C 494.1797 488.348 536.14255 479.312 578.59375 472.875 C 589.60557 472.39262 602.49814 469.39665 614.375 468.875 z M 625.6875 469.34375 C 627.39477 469.6022 629.05766 469.95756 630.65625 470.4375 C 628.82782 470.35394 627.18359 469.94931 625.6875 469.34375 z M 763.65625 648.15625 C 762.44435 648.21555 761.36597 648.57631 760.40625 649.25 C 733.01085 670.495 707.7312 694.296 681.5625 717 C 663.2397 731.835 672.433 724.76375 654 738.21875 C 639.1152 749.18175 690.8027 819.338 705.6875 808.375 C 728.0719 791.77 717.11445 800.3145 738.59375 782.8125 C 762.52015 762.1125 785.6019 740.292 811.1875 721.625 C 825.58338 711.52063 781.8347 647.26677 763.65625 648.15625 z M 433 731.90625 C 414.33135 749.90206 396.10141 778.39187 404.9375 785.84375 C 431.19329 807.08494 461.16216 822.55909 491.75 836.4375 C 478.98814 843.29593 466.058 849.89602 452.90625 856 C 428.30797 867.16881 403.39307 877.89624 377.4375 885.53125 C 376.22849 877.22586 376.2896 868.37773 374.375 861.03125 C 371.1716 824.87925 370.3791 788.531 370.8125 752.25 C 370.89635 749.45902 370.96565 746.66524 371.0625 743.875 C 391.82733 740.51494 412.46005 736.40241 433 731.90625 z M 380 895.875 C 381.30922 897.32213 382.34407 899.04206 382.71875 901.09375 C 381.61496 899.46612 380.72534 897.71077 380 895.875 z "
     id="path12287" />
</svg>
