<?xml version="1.0" encoding="utf-8" ?>

<!DOCTYPE svg PUBLIC "-//W3C//DTD SVG 1.1//EN" 
  "http://www.w3.org/Graphics/SVG/1.1/DTD/svg11.dtd">
<svg 
    xmlns="http://www.w3.org/2000/svg"
    xmlns:xlink="http://www.w3.org/1999/xlink"
    xmlns:sodipodi="http://sodipodi.sourceforge.net/DTD/sodipodi-0.dtd"
    xmlns:inkscape="http://www.inkscape.org/namespaces/inkscape"
    width="1024" height="1024" id="U987F">
<path d="m 10401.136,10631.595 c -70.102,19.548 102.002,-21.122 -23.601,-77.558 36.424,-3.805 72.815,-7.719 109.343,-10.432 35.734,-2.927 71.438,-3.023 105.451,9.123 17.168,7 -15.826,87.93 -32.994,80.931 l 0,0 c -8.42,-8.974 -54.715,-4.006 -66.171,-4.238 -37.937,2.737 -75.624,7.375 -113.367,11.974 -6.307,-0.2 -16.59,5.265 -18.92,-0.599 -33.531,-84.381 -29.408,-79.853 17.868,-93.967 17.982,-4.75 40.373,80.016 22.391,84.766 z" id="path22553" inkscape:connector-curvature="0" style="fill:#550000;fill-opacity:1;fill-rule:nonzero;stroke:#f9f9f9;stroke-width:0.1;stroke-miterlimit:4;stroke-dasharray:none" transform="translate(-10240, -10240)"/><path d="m 10402.58,10752.045 c -10.014,25.824 -14.829,53.228 -18.863,80.509 -1.16,12.297 -3.238,24.852 -1.619,37.233 0.705,5.387 3.566,8.68 1.306,0.01 3.9,4.372 -5.715,-5.795 -3.384,-6.714 5.921,-2.335 12.656,-1.435 18.927,-2.525 14.599,-2.538 21.974,-4.603 36.773,-8.182 44.822,-12.301 90.244,-21.716 136.432,-26.869 16.327,-1.864 32.67,-1.585 49.028,-0.754 18.435,1.277 12.415,88.178 -6.02,86.901 l 0,0 c -11.33,-1.161 -22.664,-1.379 -34.037,-0.314 -42.4,4.067 -83.945,13.08 -124.952,24.534 -36.194,8.959 -80.421,22.812 -116.659,6.203 -7.817,-3.583 -14.277,-9.589 -21.415,-14.383 -4.602,-6.38 -10.086,-12.209 -13.807,-19.14 -14.485,-26.976 -8.919,-59.979 -6.082,-88.814 5.067,-33.438 11.307,-66.808 22.515,-98.816 6.602,-17.364 88.458,13.755 81.857,31.119 z" id="path22555" inkscape:connector-curvature="0" style="fill:#550000;fill-opacity:1;fill-rule:nonzero;stroke:#f9f9f9;stroke-width:0.1;stroke-miterlimit:4;stroke-dasharray:none" transform="translate(-10240, -10240)"/><path d="m 10667.885,10742.243 c -2.995,36.87 -6.007,73.736 -9.324,110.579 -1.467,17.775 -3.527,35.484 -5.789,53.172 -2.501,18.227 -88.424,6.436 -85.923,-11.791 l 0,0 c 2.418,-16.341 4.534,-32.718 5.937,-49.184 3.342,-36.362 6.438,-72.763 7.865,-109.259 1.375,-18.506 88.61,-12.022 87.234,6.483 z" id="path22557" inkscape:connector-curvature="0" style="fill:#550000;fill-opacity:1;fill-rule:nonzero;stroke:#f9f9f9;stroke-width:0.1;stroke-miterlimit:4;stroke-dasharray:none" transform="translate(-10240, -10240)"/><path d="m 10499.726,10383.118 c -1.641,52.633 -1.698,105.308 -2.032,157.962 -0.602,91.983 -0.724,183.967 1.002,275.937 1.008,68.587 6.256,137 17.344,204.689 3.36,19.576 8.04,38.889 14.923,57.52 5.977,17.463 -76.346,45.638 -82.323,28.175 l 0,0 c -7.703,-23.709 -13.606,-47.911 -17.203,-72.614 -10.481,-71.655 -15.521,-143.916 -16.283,-216.339 -1.435,-92.461 -1.318,-184.931 -1.715,-277.401 -0.297,-53.259 -0.639,-106.519 -1.201,-159.777 0.392,-18.559 87.88,-16.711 87.488,1.848 z" id="path22559" inkscape:connector-curvature="0" style="fill:#550000;fill-opacity:1;fill-rule:nonzero;stroke:#f9f9f9;stroke-width:0.1;stroke-miterlimit:4;stroke-dasharray:none" transform="translate(-10240, -10240)"/><path d="m 10450.463,11085.628 c 27.196,-19.512 54.076,-39.462 81.012,-59.331 18.997,-13.934 38.17,-27.623 57.377,-41.265 14.857,-10.539 64.538,59.495 49.682,70.034 l 0,0 c -18.702,13.25 -37.358,26.565 -55.757,40.234 -26.606,19.936 -53.262,39.812 -79.471,60.268 -14.836,11.209 -67.679,-58.73 -52.843,-69.94 z" id="path22561" inkscape:connector-curvature="0" style="fill:#550000;fill-opacity:1;fill-rule:nonzero;stroke:#f9f9f9;stroke-width:0.1;stroke-miterlimit:4;stroke-dasharray:none" transform="translate(-10240, -10240)"/><path d="m 10659.022,10454.005 c 46.78,-0.76 93.458,-4.435 140.1,-7.87 53.119,-4.307 106.202,-9.05 159.375,-12.643 13.089,-1.142 26.176,-1.085 39.275,-0.443 18.503,1.466 11.59,88.689 -6.913,87.223 l 0,0 c -9.066,-1.427 -18.247,-0.889 -27.389,-0.62 -52.702,2.504 -105.289,6.793 -157.852,11.31 -47.901,3.807 -95.801,7.673 -143.777,10.439 -18.539,0.598 -21.358,-86.798 -2.819,-87.396 z" id="path22571" inkscape:connector-curvature="0" style="fill:#550000;fill-opacity:1;fill-rule:nonzero;stroke:#f9f9f9;stroke-width:0.1;stroke-miterlimit:4;stroke-dasharray:none" transform="translate(-10240, -10240)"/><path d="m 10892.649,10515.579 c -12.619,26.462 -20.832,54.76 -29.813,82.594 -6.286,20.358 -14.091,40.16 -22.049,59.903 -6.858,16.945 -86.738,-15.386 -79.88,-32.332 l 0,0 c 7.209,-17.724 14.227,-35.523 19.795,-53.851 10.031,-31.616 19.452,-63.543 32.796,-93.969 7.988,-16.79 87.139,20.864 79.151,37.655 z" id="path22573" inkscape:connector-curvature="0" style="fill:#550000;fill-opacity:1;fill-rule:nonzero;stroke:#f9f9f9;stroke-width:0.1;stroke-miterlimit:4;stroke-dasharray:none" transform="translate(-10240, -10240)"/><path d="m 10792.346,10670.826 c -6.197,30.958 -10.256,62.271 -13.47,93.661 -3.236,31.28 -3.428,62.721 0.374,93.93 0.595,3.494 1.19,6.988 1.784,10.482 2.861,18.222 -83.039,31.709 -85.9,13.487 l 0,0 c -0.706,-4.79 -1.412,-9.58 -2.118,-14.37 -3.864,-37.352 -3.963,-74.897 0.03,-112.277 3.348,-32.99 7.646,-65.852 12.768,-98.615 2.906,-18.357 89.441,-4.655 86.535,13.702 z" id="path22575" inkscape:connector-curvature="0" style="fill:#550000;fill-opacity:1;fill-rule:nonzero;stroke:#f9f9f9;stroke-width:0.1;stroke-miterlimit:4;stroke-dasharray:none" transform="translate(-10240, -10240)"/><path d="m 10699.635,10626.947 c 30.419,-28.977 71.116,-37.385 111.216,-43.528 42.463,-4.926 85.246,-6.629 127.97,-6.958 30.25,-0.611 59.484,1.708 87.141,14.355 38.344,27.225 33.709,62.403 25.76,103.068 -9.754,42.428 -21.799,84.282 -32.894,126.37 -7.14,26.731 -12.777,53.838 -20.04,80.532 -5.083,17.76 -88.806,-6.201 -83.723,-23.962 l 0,0 c 7.903,-25.913 13.403,-52.5 20.683,-78.59 10.692,-40.124 22.023,-80.114 30.855,-120.701 0.782,-4.175 1.637,-8.338 2.347,-12.526 1.18,-6.963 1.205,-10.699 1.869,-10.333 3.573,1.972 7.277,14.118 14.223,13.498 7.419,-0.684 -31.116,-4.833 -31.125,-4.834 -4.947,-0.227 -9.899,-0.305 -14.848,-0.458 -38.472,-0.1 -77.009,1.298 -115.245,5.745 -20.265,3.06 -42.357,5.517 -59.613,17.58 -12.571,13.698 -77.147,-45.56 -64.576,-59.258 z" id="path22577" inkscape:connector-curvature="0" style="fill:#550000;fill-opacity:1;fill-rule:nonzero;stroke:#f9f9f9;stroke-width:0.1;stroke-miterlimit:4;stroke-dasharray:none" transform="translate(-10240, -10240)"/><path d="m 10887.658,10678.155 c -2.788,41.856 -6.419,83.567 -12.421,125.091 -8.762,58.931 -28.018,115.167 -52.1,169.404 -19.942,43.316 -46.508,82.568 -81.895,114.544 -18.739,13.24 -8.896,7.451 -29.52,17.379 -17.096,7.134 -50.725,-73.457 -33.629,-80.591 l 0,0 c 2.698,1.539 0.664,0.755 6.153,-2.217 27.293,-22.244 45.467,-52.798 60.88,-84.061 21.193,-46.821 37.915,-95.504 45.361,-146.568 5.562,-39.438 8.825,-79.093 9.892,-118.919 1.26,-18.514 88.539,-12.577 87.279,5.938 z" id="path22579" inkscape:connector-curvature="0" style="fill:#550000;fill-opacity:1;fill-rule:nonzero;stroke:#f9f9f9;stroke-width:0.1;stroke-miterlimit:4;stroke-dasharray:none" transform="translate(-10240, -10240)"/><path d="m 10867.885,10930.399 c 16.271,20.947 36.138,38.416 57.202,54.343 29.902,21.723 63.893,36.361 97.905,50.259 16.275,6.3 32.315,13.136 48.246,20.251 16.737,7.626 -19.214,86.528 -35.952,78.902 l 0,0 c -14.84,-6.924 -29.844,-13.449 -45.091,-19.439 -40.807,-16.893 -81.432,-34.922 -117.275,-61.15 -26.163,-19.868 -50.834,-41.487 -72.052,-66.691 -11.98,-14.216 55.036,-70.691 67.017,-56.475 z" id="path22581" inkscape:connector-curvature="0" style="fill:#550000;fill-opacity:1;fill-rule:nonzero;stroke:#f9f9f9;stroke-width:0.1;stroke-miterlimit:4;stroke-dasharray:none" transform="translate(-10240, -10240)"/></svg>