<?xml version="1.0" encoding="UTF-8" standalone="no"?>
<svg
   xmlns:dc="http://purl.org/dc/elements/1.1/"
   xmlns:cc="http://creativecommons.org/ns#"
   xmlns:rdf="http://www.w3.org/1999/02/22-rdf-syntax-ns#"
   xmlns:svg="http://www.w3.org/2000/svg"
   xmlns="http://www.w3.org/2000/svg"
   xmlns:sodipodi="http://sodipodi.sourceforge.net/DTD/sodipodi-0.dtd"
   xmlns:inkscape="http://www.inkscape.org/namespaces/inkscape"
   width="1024"
   height="1024"
   id="U997F"
   version="1.1"
   inkscape:version="0.48.0 r9654"
   sodipodi:docname="U+997F.svg">
  <metadata
     id="metadata17">
    <rdf:RDF>
      <cc:Work
         rdf:about="">
        <dc:format>image/svg+xml</dc:format>
        <dc:type
           rdf:resource="http://purl.org/dc/dcmitype/StillImage" />
      </cc:Work>
    </rdf:RDF>
  </metadata>
  <defs
     id="defs15" />
  <sodipodi:namedview
     pagecolor="#ffffff"
     bordercolor="#666666"
     borderopacity="1"
     objecttolerance="10"
     gridtolerance="10"
     guidetolerance="10"
     inkscape:pageopacity="0"
     inkscape:pageshadow="2"
     inkscape:window-width="640"
     inkscape:window-height="480"
     id="namedview13"
     showgrid="false"
     inkscape:zoom="0.27441406"
     inkscape:cx="512"
     inkscape:cy="512"
     inkscape:window-x="0"
     inkscape:window-y="25"
     inkscape:window-maximized="0"
     inkscape:current-layer="U997F" />
  <path
     style="fill:#550000;fill-opacity:1;fill-rule:nonzero;stroke:#f9f9f9;stroke-width:0.1;stroke-miterlimit:4;stroke-dasharray:none"
     d="M 802.875 185.5 C 784.85674 185.09091 743.2062 249.83875 757.71875 259.46875 C 787.23217 279.68775 812.20188 305.7015 837.21875 331.0625 C 849.94002 344.0385 911.12752 284.06975 898.40625 271.09375 C 869.28578 241.21975 839.98416 211.105 806.125 186.5 C 805.1575 185.858 804.07622 185.52727 802.875 185.5 z M 174.0625 185.8125 C 169.29052 185.91673 165.84074 187.22461 164.5 190.125 C 146.17985 229.94 132.54566 271.527 120.1875 313.5 C 104.55732 367.583 90.51585 422.1215 78.8125 477.1875 C 77.701898 483.2965 76.579353 489.391 75.46875 495.5 C 72.424116 513.592 157.73661 527.93575 160.78125 509.84375 C 161.56896 504.67175 162.33728 499.51575 163.125 494.34375 C 167.95341 469.4613 173.46597 444.72379 179.53125 420.125 C 183.74969 448.16957 186.31559 476.50272 188.84375 504.71875 C 195.17414 570.54175 196.79081 636.664 196.40625 702.75 C 196.13915 743.493 195.07869 784.291 200.5625 824.75 C 205.52839 853.77 221.77746 879.57425 253.21875 884.40625 C 259.16679 885.32025 265.23525 884.03675 271.25 883.84375 C 290.14313 877.90675 281.33575 881.7425 297.78125 872.5625 C 312.26717 863.5565 274.51617 800.16985 256 797.375 C 256.62736 797.28561 256.75782 797.2623 258.28125 797.03125 C 269.17732 797.94032 280.90015 801.28255 286.53125 810.96875 C 280.59726 775.27854 282.10068 738.9535 281.5 702.90625 C 281.37466 634.35225 279.61042 565.78275 273.5 497.46875 C 269.63421 450.23704 265.37814 402.92562 256.21875 356.375 C 262.25912 354.74903 268.36087 353.35963 274.46875 352.09375 C 288.06569 350.85307 304.48995 347.7166 318.53125 351.3125 C 317.98717 352.04915 317.35364 353.18626 316.5 354.875 C 310.11469 372.171 391.64594 402.26475 398.03125 384.96875 C 414.62143 335.62975 409.78881 302.6385 362.125 275.0625 C 327.82288 262.2585 292.30528 260.317 256.28125 267.5 C 244.83064 270.02191 233.46519 272.89922 222.3125 276.375 C 228.66227 259.52501 235.74396 242.96557 244.03125 226.90625 C 250.49117 212.93164 197.05475 185.31032 174.0625 185.8125 z M 286.53125 810.96875 C 286.58158 811.27147 286.63609 811.57237 286.6875 811.875 C 287.19103 813.428 287.68397 814.97925 288.1875 816.53125 C 288.41153 816.50125 288.90508 816.6595 288.84375 816.4375 C 288.27409 814.41439 287.48475 812.60889 286.53125 810.96875 z M 509.78125 222.46875 C 503.60225 222.60221 499.1985 224.20384 497.90625 227.75 C 485.67458 264.817 473.63175 301.94075 461.28125 338.96875 C 452.70236 365.14375 443.67127 391.17325 434.53125 417.15625 C 428.52299 434.24425 509.08549 462.55675 515.09375 445.46875 C 524.34249 419.15275 533.49074 392.817 542.375 366.375 C 542.7308 365.33486 543.08242 364.29043 543.4375 363.25 C 544.10524 390.7678 545.64641 418.28865 547.0625 445.71875 C 548.44163 470.56946 550.07086 495.39859 551.875 520.21875 C 513.42375 534.39018 475.32183 549.5343 437.65625 565.75 C 397.94103 582.844 358.44662 600.4785 318.625 617.3125 C 301.49866 624.5405 335.59241 705.25925 352.71875 698.03125 C 392.06914 679.32725 431.73927 661.404 471.625 643.875 C 500.44479 631.25699 529.5679 619.3958 558.9375 608.1875 C 561.09713 632.97669 563.38224 657.75846 565.71875 682.53125 C 556.66159 687.94518 547.65454 693.44367 538.71875 699.0625 C 496.09272 726.6115 453.01057 754.85825 419.34375 793.40625 C 407.78041 807.92525 476.21792 862.4565 487.78125 847.9375 C 511.88391 819.15677 543.20026 797.8151 574.4375 777.375 C 576.62823 802.77327 578.46902 828.20536 579.15625 853.6875 C 579.85243 872.0165 666.25868 868.704 665.5625 850.375 C 663.63886 809.82532 659.399 769.46366 655.15625 729.09375 C 672.79149 719.20022 690.50155 709.44288 708.15625 699.59375 C 723.98386 690.65775 681.85886 616.065 666.03125 625 C 659.27645 628.85944 652.52087 632.69821 645.75 636.53125 C 643.88621 617.34176 642.0997 598.14475 640.4375 578.9375 C 643.98262 577.74479 647.54246 576.58172 651.09375 575.40625 C 671.45903 568.86085 691.9917 562.89585 712.65625 557.40625 C 727.69012 592.97387 743.91036 628.03311 761.21875 662.59375 C 765.29778 670.51312 769.50188 678.37021 773.8125 686.15625 C 753.32057 721.79673 733.2988 757.69028 712.71875 793.28125 C 703.72618 809.15825 694.02619 824.42475 682.25 838.34375 C 670.87638 852.77275 738.90763 906.39775 750.28125 891.96875 C 763.80567 874.05875 776.26212 855.5435 786.84375 835.6875 C 799.63091 813.11189 812.24841 790.44513 825 767.84375 C 837.00504 784.86839 849.62166 801.46577 862.8125 817.625 C 874.52375 831.659 940.68001 776.4715 928.96875 762.4375 C 908.3484 738.36081 889.51643 712.86932 872.34375 686.28125 C 874.35736 682.95187 876.4031 679.62958 878.4375 676.3125 C 897.59837 646.8005 916.3479 615.33425 943.90625 592.78125 C 959.27286 582.35425 910.11661 509.91575 894.75 520.34375 C 866.22843 542.56946 844.76013 571.58768 825.03125 601.625 C 814.81964 580.59045 805.08194 559.33815 795.84375 537.875 C 812.1066 534.65803 828.48718 532.13156 844.875 529.65625 C 863.14098 526.61425 848.79722 440.5215 830.53125 443.5625 C 812.54247 446.8325 794.53534 449.93725 776.65625 453.78125 C 772.33938 454.73664 768.02933 455.73495 763.71875 456.71875 C 758.96895 443.57342 754.39137 430.35802 750.03125 417.0625 C 737.88705 379.4775 725.14636 341.51 720.4375 302.125 C 718.45651 283.636 631.30025 292.9485 633.28125 311.4375 C 640.05685 356.7515 654.79741 400.37425 669.34375 443.65625 C 673.19404 455.0052 677.1852 466.31006 681.28125 477.5625 C 665.37895 482.02458 649.55688 486.74456 633.8125 491.75 C 632.76022 475.12259 631.86116 458.45931 631.09375 441.8125 C 628.99854 390.4545 626.23296 338.60825 632.09375 287.40625 C 633.83582 276.29029 602.7694 266.9425 577.375 265.375 C 578.31524 262.82563 579.23261 260.26266 580.1875 257.71875 C 585.25708 243.80691 534.02196 221.94519 509.78125 222.46875 z M 322.3125 352.46875 C 324.57081 353.28559 326.76784 354.31879 328.84375 355.59375 C 328.93774 357.28475 329.36801 358.11675 326.15625 356.09375 C 324.3263 354.94139 323.19998 353.60176 322.3125 352.46875 z "
     id="path22595" />
</svg>
