<?xml version="1.0" encoding="utf-8" ?>

<!DOCTYPE svg PUBLIC "-//W3C//DTD SVG 1.1//EN" 
  "http://www.w3.org/Graphics/SVG/1.1/DTD/svg11.dtd">
<svg 
    xmlns="http://www.w3.org/2000/svg"
    xmlns:xlink="http://www.w3.org/1999/xlink"
    xmlns:sodipodi="http://sodipodi.sourceforge.net/DTD/sodipodi-0.dtd"
    xmlns:inkscape="http://www.inkscape.org/namespaces/inkscape"
    width="1024" height="1024" id="U996D">
<path d="m 9476.3167,11513.162 c -12.7431,35.233 -22.707,71.378 -32.0732,107.628 -9.9333,39.405 -17.6045,79.346 -23.6007,119.528 -2.867,18.136 -88.3606,4.62 -85.4935,-13.515 l 0,0 c 7.1056,-42.756 15.4032,-85.333 25.9796,-127.378 9.8336,-38.444 20.4383,-76.676 32.3268,-114.541 5.9987,-17.578 88.8597,10.7 82.861,28.278 z" id="path22781" inkscape:connector-curvature="0" style="fill:#550000;fill-opacity:1;fill-rule:nonzero;stroke:#f9f9f9;stroke-width:0.1;stroke-miterlimit:4;stroke-dasharray:none" transform="translate(-9216, -11264)"/><path d="m 9440.0096,11556.265 c 31.1827,-4.736 62.6352,-6.1 94.126,-5.512 24.1418,2.428 51.5364,1.984 73.2452,14.737 5.4864,3.223 10.2486,7.545 15.3728,11.317 4.439,6.906 10.5067,13.004 13.3168,20.717 11.8439,32.51 -8.1706,61.921 -25.3151,87.492 -3.1325,4.378 -6.2651,8.755 -9.3976,13.133 -10.6722,14.984 -81.3095,-35.325 -70.6373,-50.309 l 0,0 c 2.6087,-3.683 5.2174,-7.367 7.8261,-11.05 9.7913,-14.738 3.1413,-4.454 10.9319,-17.063 0.6568,-1.063 0.8432,-3.595 2.0154,-3.161 1.2794,0.472 0.091,2.749 0.439,4.068 3.7777,14.332 2.2842,10.029 12.2222,21.243 11.9494,5.393 3.0738,0.556 0.037,-0.225 -10.429,-2.683 -21.2684,-3.409 -31.9522,-4.271 -25.8717,-0.67 -51.7872,0.34 -77.2824,5.174 -18.3049,3.171 -33.2527,-83.119 -14.9479,-86.29 z" id="path22783" inkscape:connector-curvature="0" style="fill:#550000;fill-opacity:1;fill-rule:nonzero;stroke:#f9f9f9;stroke-width:0.1;stroke-miterlimit:4;stroke-dasharray:none" transform="translate(-9216, -11264)"/><path d="m 9534.9914,11653.901 c -9.6545,41.188 -14.6823,83.305 -19.7996,125.245 -6.8741,57.968 -10.8591,116.216 -13.8205,174.498 -1.7635,35.144 -2.1916,70.333 -0.4907,105.481 1.5515,13.74 0.9304,28.337 5.4801,41.586 -0.7311,-5.83 -7.2541,-10.947 -11.7064,-15.236 15.5373,10.369 -33.3401,83.612 -48.8774,73.244 l 0,0 c -11.4396,-10.135 -20.3396,-19.754 -24.023,-35.059 -4.9987,-19.971 -6.9365,-40.462 -7.6664,-61.017 -1.2752,-37.92 -0.4814,-75.849 1.818,-113.723 3.5791,-60.027 7.9734,-120.017 14.706,-179.784 5.2091,-45.366 10.5171,-90.791 19.1943,-135.651 4.331,-18.071 89.5165,2.345 85.1856,20.416 z" id="path22785" inkscape:connector-curvature="0" style="fill:#550000;fill-opacity:1;fill-rule:nonzero;stroke:#f9f9f9;stroke-width:0.1;stroke-miterlimit:4;stroke-dasharray:none" transform="translate(-9216, -11264)"/><path d="m 9905.0808,11533.739 c -32.0484,29.897 -62.7216,61.231 -93.7659,92.16 -32.2055,31.821 -64.1957,63.866 -96.8319,95.246 -4.3167,4.409 -39.6998,36.797 -46.4713,30.44 -19.0404,-17.875 -31.0343,-42.014 -46.5514,-63.02 14.4522,-30.167 4.7217,-14.665 84.8054,7.364 1.6484,0.453 3.0877,37.544 3.171,40.449 0.6069,49.349 -7.9321,98.111 -16.7084,146.478 -11.47,57.441 -23.0331,114.861 -34.0278,172.395 -6.9084,35.964 -13.5634,71.976 -20.6537,107.904 -0.764,3.669 -1.5281,7.338 -2.2921,11.008 -3.9745,18.055 -89.086,-0.682 -85.1115,-18.736 l 0,0 c 0.7624,-3.265 1.5248,-6.53 2.2872,-9.795 7.627,-35.514 14.5378,-71.175 21.7011,-106.785 11.3502,-56.995 23.2189,-113.886 34.2488,-170.943 7.4065,-42.326 14.8016,-85.034 13.5655,-128.179 -0.381,-7.506 -1.3524,-15.054 -1.6529,-22.549 -1.0971,-27.364 74.5764,31.088 82.0187,4.734 -16.2989,-19.1 -29.8062,-40.989 -48.8968,-57.298 -3.4327,-2.933 -8.5855,2.84 -12.7171,4.661 -1.0293,0.453 -2.7103,0.982 -2.6379,2.104 0,0.05 1.9131,-0.834 8.2747,-6.168 2.8012,-2.348 5.5196,-4.794 8.2794,-7.192 32.704,-30.037 64.2647,-61.29 95.8004,-92.544 31.4094,-31.501 62.5226,-63.292 93.7632,-94.96 13.4122,-12.813 73.8156,50.413 60.4033,63.226 z" id="path22787" inkscape:connector-curvature="0" style="fill:#550000;fill-opacity:1;fill-rule:nonzero;stroke:#f9f9f9;stroke-width:0.1;stroke-miterlimit:4;stroke-dasharray:none" transform="translate(-9216, -11264)"/><path d="m 9684.6099,11836.911 c 30.8781,-20.021 65.8148,-31.876 100.8406,-42.266 39.0856,-10.805 79.3129,-16.285 119.6163,-19.903 27.0315,-2.368 54.1103,-2.551 80.5993,3.634 32.2089,10.416 50.0919,38.972 43.4579,72.796 -1.197,6.105 -4.077,11.756 -6.115,17.634 -21.265,41.307 -53.2885,75.835 -84.0914,110.166 -43.9426,47.865 -89.3858,94.34 -135.963,139.639 -29.5534,29.195 -61.6124,55.266 -97.7146,75.805 -16.0977,8.812 -57.6357,-67.073 -41.5381,-75.885 l 0,0 c 30.1368,-15.453 55.4702,-38.149 80.0892,-61.146 45.3309,-43.511 89.2958,-88.456 131.3406,-135.163 23.8657,-27.072 48.2979,-54.229 66.7256,-85.432 3.2776,-1.703 -0.1391,-0.351 2.0616,6.204 2.7302,8.133 9.2653,19.688 19.2135,19.948 -14.7411,-7.382 -35.2185,-0.524 -50.6917,-1.976 -34.5257,2.784 -69.0084,7.212 -102.5012,16.341 -25.9333,7.671 -52.2346,15.955 -74.8278,31.284 -15.2056,10.713 -65.7074,-60.967 -50.5018,-71.68 z" id="path22789" inkscape:connector-curvature="0" style="fill:#550000;fill-opacity:1;fill-rule:nonzero;stroke:#f9f9f9;stroke-width:0.1;stroke-miterlimit:4;stroke-dasharray:none" transform="translate(-9216, -11264)"/><path d="m 9629.121,11951.693 c 30.7474,-25.694 60.4753,-27.317 97.8669,-16.937 39.3108,15.429 76.3581,36.1 113.3758,56.289 45.7115,25.487 89.9425,53.48 135.3655,79.466 30.6608,17.266 62.0108,33.255 93.9198,48.076 2.837,1.293 5.673,2.585 8.51,3.878 16.739,7.903 -20.515,86.809 -37.254,78.907 l 0,0 c -2.934,-1.432 -5.868,-2.865 -8.802,-4.297 -33.5242,-16.476 -66.6307,-33.795 -99.0981,-52.277 -44.6676,-25.819 -88.2943,-53.401 -133.4683,-78.343 -32.0235,-17.205 -64.1353,-34.524 -97.7481,-48.462 -7.7364,-3.021 -6.7404,-7.281 -14.6732,-0.573 -13.9428,12.302 -71.937,-53.424 -57.9943,-65.727 z" id="path22791" inkscape:connector-curvature="0" style="fill:#550000;fill-opacity:1;fill-rule:nonzero;stroke:#f9f9f9;stroke-width:0.1;stroke-miterlimit:4;stroke-dasharray:none" transform="translate(-9216, -11264)"/></svg>