<?xml version="1.0" encoding="UTF-8" standalone="no"?>
<svg
   xmlns:dc="http://purl.org/dc/elements/1.1/"
   xmlns:cc="http://creativecommons.org/ns#"
   xmlns:rdf="http://www.w3.org/1999/02/22-rdf-syntax-ns#"
   xmlns:svg="http://www.w3.org/2000/svg"
   xmlns="http://www.w3.org/2000/svg"
   xmlns:sodipodi="http://sodipodi.sourceforge.net/DTD/sodipodi-0.dtd"
   xmlns:inkscape="http://www.inkscape.org/namespaces/inkscape"
   width="1024"
   height="1024"
   id="U9AD8"
   version="1.1"
   inkscape:version="0.48.0 r9654"
   sodipodi:docname="U+9AD8.svg">
  <metadata
     id="metadata17">
    <rdf:RDF>
      <cc:Work
         rdf:about="">
        <dc:format>image/svg+xml</dc:format>
        <dc:type
           rdf:resource="http://purl.org/dc/dcmitype/StillImage" />
      </cc:Work>
    </rdf:RDF>
  </metadata>
  <defs
     id="defs15" />
  <sodipodi:namedview
     pagecolor="#ffffff"
     bordercolor="#666666"
     borderopacity="1"
     objecttolerance="10"
     gridtolerance="10"
     guidetolerance="10"
     inkscape:pageopacity="0"
     inkscape:pageshadow="2"
     inkscape:window-width="640"
     inkscape:window-height="480"
     id="namedview13"
     showgrid="false"
     inkscape:zoom="0.27441406"
     inkscape:cx="512"
     inkscape:cy="512"
     inkscape:window-x="0"
     inkscape:window-y="25"
     inkscape:window-maximized="0"
     inkscape:current-layer="U9AD8" />
  <path
     style="fill:#550000;fill-opacity:1;fill-rule:nonzero;stroke:#f9f9f9;stroke-width:0.1;stroke-miterlimit:4;stroke-dasharray:none"
     d="M 427.40625 73.0625 C 408.17895 72.803489 358.06519 124.53794 369.90625 136.53125 C 391.73505 156.41525 414.9072 174.705 437.25 194 C 451.4749 207.304 444.7896 200.606 457.4375 214 C 470.1566 227.26 532.6566 167.3225 519.9375 154.0625 C 502.9467 136.5515 511.64825 145.0505 493.84375 128.5625 C 473.26855 110.7575 451.93155 93.7725 432.28125 74.9375 C 431.05632 73.696906 429.39528 73.089294 427.40625 73.0625 z M 523.21875 221.90625 C 509.1002 221.88723 494.99745 222.18925 480.875 222.84375 C 401.2265 227.39875 322.063 237.26725 243.8125 253.03125 C 192.091 263.21825 139.55145 272.31675 90.21875 291.46875 C 73.42555 299.36375 110.6442 378.52 127.4375 370.625 C 170.0375 353.417 215.78775 345.319 260.59375 336 C 334.69325 320.336 409.81755 311.05525 485.40625 307.28125 C 536.78075 305.36525 588.14275 308.48675 639.03125 315.46875 C 648.95335 317.20275 659.1191 318.27975 668.3125 322.59375 C 685.787 328.69675 714.537 246.32275 697.0625 240.21875 C 681.6395 235.38275 666.14305 231.4495 649.96875 229.9375 C 607.89833 224.91175 565.5744 221.9633 523.21875 221.90625 z M 429.96875 342.59375 C 393.62949 342.50008 357.39547 345.91 322.4375 356.59375 C 304.8797 362.62075 333.3172 445.402 350.875 439.375 C 378.1907 430.289 406.9224 428.1405 435.5 428.9375 C 457.5143 430.5665 480.18655 434.4425 498.21875 447.9375 C 503.14065 454.9465 497.54745 447.7535 494.96875 453.4375 C 491.27625 461.0055 493.4302 456.87025 488.3125 465.65625 C 479.5061 481.84325 555.8185 523.3745 564.625 507.1875 C 576.2031 485.2345 571.138 496.531 579.8125 473.25 C 588.0335 431.789 580.71745 401.516 545.90625 375.125 C 512.85375 354.555 476.3277 343.85425 437.25 342.65625 C 434.8268 342.62006 432.39137 342.59999 429.96875 342.59375 z M 296.78125 407.84375 C 270.45337 408.00087 230.50481 419.72819 232.90625 432.28125 C 238.15455 459.96825 242.22155 487.84775 247.15625 515.59375 C 249.35485 529.73075 253.42365 543.362 257.96875 556.875 C 259.61802 561.46512 266.57123 562.7842 275.75 561.9375 C 282.5693 582.25012 295.4988 604.64246 305.46875 608.25 C 279.34838 616.80569 254.14658 627.71349 231.21875 643.3125 C 216.65745 654.8295 270.9387 723.48575 285.5 711.96875 C 316.4422 691.50775 353.2408 682.52775 388.875 674.09375 C 439.8098 662.27475 491.8218 661.543 543.6875 665 C 580.103 668.028 616.3721 673.5025 651.0625 685.1875 C 664.5778 689.7985 673.312 696.093 677 709.625 C 682.3387 736.651 678.5108 764.4425 674.9375 791.4375 C 671.85 814.2965 665.7896 836.371 657.625 857.875 C 651.3394 875.092 732.49565 904.717 738.78125 887.5 C 748.57075 859.919 756.5303 831.82975 760.375 802.71875 C 765.8971 760.99075 770.6433 718.12575 757.6875 677.21875 C 740.3004 637.38975 718.8489 617.39525 677.6875 602.78125 C 635.9005 589.70325 592.72175 582.5325 549.03125 579.5625 C 529.26984 578.40273 509.49047 577.77049 489.75 577.9375 C 504.76188 557.0938 518.52324 511.63479 505.8125 506.71875 C 466.9081 493.15175 426.35835 492.16325 385.71875 498.40625 C 368.43477 501.32654 351.2484 504.79572 334.28125 509.0625 C 333.58777 506.13657 332.9866 503.20129 332.46875 500.21875 C 327.33415 472.18675 323.1964 443.9985 319 415.8125 C 317.90841 410.10656 308.74847 407.77233 296.78125 407.84375 z M 433.65625 580.75 C 412.09072 582.82697 390.61757 586.14391 369.3125 591.03125 C 354.55641 594.49464 339.72155 598.11502 325.0625 602.28125 C 349.19403 593.19144 374.46393 587.55215 399.90625 583.375 C 410.56656 582.68724 422.1284 581.1727 433.65625 580.75 z M 178.03125 681.21875 C 156.12992 681.21875 134.25 685.86425 134.25 695.15625 C 136.0564 732.61725 142.25245 769.65675 148.40625 806.59375 C 153.62305 837.63375 159.00155 868.65675 166.03125 899.34375 C 170.30725 917.24575 254.68225 897.0895 250.40625 879.1875 C 243.24155 850.6075 238.27865 821.56825 233.34375 792.53125 C 228.02975 760.30125 222.40175 727.89725 221.84375 695.15625 C 221.84375 685.86425 199.93258 681.21875 178.03125 681.21875 z M 468.96875 698.09375 C 443.9501 698.26932 419.00377 700.17937 394.1875 703.84375 C 375.856 706.85075 390.0435 793.258 408.375 790.25 C 433.3099 785.652 458.5714 784.08625 483.875 784.90625 C 503.2666 786.07725 522.72625 789.359 539.90625 798.75 C 546.61925 804.475 542.295 803.11925 538.875 798.53125 C 535.2395 802.62225 531.3779 809.17075 527.75 813.96875 C 520.17354 824.49767 552.83627 852.70142 576.625 863.3125 C 576.39351 863.24668 576.14874 863.19305 575.90625 863.15625 C 539.16495 857.96325 502.056 857.18125 465.0625 860.40625 C 441.23862 862.53392 417.50931 865.33909 393.84375 868.6875 C 393.81021 868.53432 393.79662 868.37079 393.75 868.21875 C 389.0736 853.72275 384.8961 839.101 382 824.125 C 375.6382 791.139 369.8369 757.88425 368.125 724.28125 C 367.3882 705.71525 279.8882 709.184 280.625 727.75 C 283.9923 765.558 290.3082 803.0445 297.375 840.3125 C 300.7549 858.3745 305.59425 876.05025 310.78125 893.65625 C 313.16641 901.43484 330.69792 900.80034 349.0625 896.15625 C 348.64389 922.45784 359.54192 962.74516 372.15625 960.59375 C 405.34015 953.63375 438.96915 949.21375 472.71875 946.21875 C 502.82195 943.76875 533.0702 944.169 562.875 949.125 C 580.30856 951.77098 593.0016 873.3388 578.15625 864 C 587.50327 867.9309 595.25255 868.92766 598.28125 864.71875 C 611.95135 845.27175 624.01425 825.55675 626.21875 801.21875 C 625.08765 761.20375 613.1666 741.01425 578.625 720.65625 C 549.5522 706.86925 518.55795 699.258 486.28125 698.25 C 480.49851 698.10806 474.74228 698.05323 468.96875 698.09375 z "
     id="path23535" />
</svg>
