<?xml version="1.0" encoding="UTF-8" standalone="no"?>
<svg
   xmlns:dc="http://purl.org/dc/elements/1.1/"
   xmlns:cc="http://creativecommons.org/ns#"
   xmlns:rdf="http://www.w3.org/1999/02/22-rdf-syntax-ns#"
   xmlns:svg="http://www.w3.org/2000/svg"
   xmlns="http://www.w3.org/2000/svg"
   xmlns:sodipodi="http://sodipodi.sourceforge.net/DTD/sodipodi-0.dtd"
   xmlns:inkscape="http://www.inkscape.org/namespaces/inkscape"
   width="1024"
   height="1024"
   id="U9A91"
   version="1.1"
   inkscape:version="0.48.0 r9654"
   sodipodi:docname="U+9A91.svg">
  <metadata
     id="metadata18">
    <rdf:RDF>
      <cc:Work
         rdf:about="">
        <dc:format>image/svg+xml</dc:format>
        <dc:type
           rdf:resource="http://purl.org/dc/dcmitype/StillImage" />
      </cc:Work>
    </rdf:RDF>
  </metadata>
  <defs
     id="defs16" />
  <sodipodi:namedview
     pagecolor="#ffffff"
     bordercolor="#666666"
     borderopacity="1"
     objecttolerance="10"
     gridtolerance="10"
     guidetolerance="10"
     inkscape:pageopacity="0"
     inkscape:pageshadow="2"
     inkscape:window-width="640"
     inkscape:window-height="480"
     id="namedview14"
     showgrid="false"
     inkscape:zoom="0.27441406"
     inkscape:cx="512"
     inkscape:cy="512"
     inkscape:window-x="0"
     inkscape:window-y="25"
     inkscape:window-maximized="0"
     inkscape:current-layer="U9A91" />
  <path
     style="fill:#c83737;fill-opacity:1;fill-rule:nonzero;stroke:#f9f9f9;stroke-width:0.1;stroke-miterlimit:4;stroke-dasharray:none"
     d="M 708.15625 105.4375 C 697.83875 105.66358 690.19285 107.95647 689.125 113.125 C 681.8382 152.661 668.61985 190.77975 655.28125 228.59375 C 649.59139 244.34465 643.53156 259.94348 637.21875 275.4375 C 590.57852 281.14303 543.9404 286.82067 497.4375 293.5625 C 479.0334 297.0275 495.37715 383.7785 513.78125 380.3125 C 541.24258 375.16067 568.87508 371.01043 596.5625 367.21875 C 587.95731 385.44719 579.16805 403.57101 570.28125 421.65625 C 550.57877 461.78751 529.61577 501.2965 509.5625 541.25 C 495.63727 528.80636 478.99533 520.11052 457.90625 514.5 C 421.14675 506.456 383.6805 504.85275 346.125 507.09375 C 305.0717 509.59675 264.23835 514.56725 224.28125 524.65625 C 211.04505 527.93339 208.82226 528.48257 206.3125 529.125 C 219.8347 476.88624 234.85921 425.07009 248.78125 372.9375 C 258.69888 335.71858 267.88588 298.30569 277.8125 261.09375 C 302.90303 261.04482 328.06491 260.55724 352.84375 264.875 C 355.55875 261.958 367.8189 272.82975 360.1875 269.34375 C 357.8817 267.68375 350.6046 299.502 350.0625 301.25 C 336.3808 340.782 320.9516 379.6945 305.5 418.5625 C 298.8856 432.1335 295.6664 447.6355 287.25 460.3125 C 278.3287 476.7855 355.9537 518.848 364.875 502.375 C 373.3395 485.54 379.8768 467.91325 386.5 450.28125 C 402.2722 409.41025 418.54205 368.712 433.40625 327.5 C 443.86595 294.691 453.21995 261.2065 438.34375 228.0625 C 421.12915 199.0165 399.72875 184.182 366.21875 178.125 C 331.60365 173.217 296.74455 173.66725 261.84375 173.90625 C 227.77315 173.85325 193.6731 173.4775 159.625 174.9375 C 140.9347 176.5695 148.6222 264.6945 167.3125 263.0625 C 173.92868 262.54199 180.55937 262.139 187.1875 261.84375 C 180.21878 291.66487 173.02924 321.45873 165.40625 351.125 C 151.75285 403.901 136.34735 456.188 121.90625 508.75 C 115.47055 536.709 103.0763 572.73575 122.125 599.09375 C 127.5581 606.61175 135.794 611.6625 142.625 617.9375 C 150.5555 620.2265 158.23755 623.6265 166.40625 624.8125 C 190.22325 628.2715 222.5077 615.37825 245.6875 609.40625 C 280.274 600.36125 315.67025 596.01175 351.28125 593.96875 C 380.38925 592.79275 409.8028 592.7965 438.1875 599.9375 C 449.0459 603.1145 456.3874 608.5575 460.4375 618.9375 C 465.94225 637.33365 464.07272 656.62719 461.625 675.4375 C 441.27357 674.27822 420.82611 674.42169 400.46875 674.0625 C 341.95345 674.5835 283.50645 677.51825 225.21875 682.78125 C 184.77205 686.37225 143.99225 691.96875 103.34375 689.59375 C 84.77485 686.99975 72.5561 774.53 91.125 777.125 C 138.5661 779.773 185.94835 773.02325 233.09375 768.53125 C 288.84295 763.18325 344.78545 760.49175 400.78125 760.59375 C 414.73973 761.74451 429.07683 761.33381 443.3125 761.71875 C 440.22199 773.60687 437.04293 785.45568 433.875 797.3125 C 440.6055 779.4985 418.3086 851.0745 421 836.3125 C 410.6022 851.9375 484.25845 900.9385 494.65625 885.3125 C 506.53635 864.8025 512.9788 842.5285 518.1875 819.4375 C 528.778 778.3095 540.02395 737.23625 546.90625 695.28125 C 549.96578 672.23081 552.26096 648.96224 550.3125 626.15625 C 560.77578 626.74519 568.69676 625.06328 570.15625 619.9375 C 570.13045 614.2945 569.88715 618.485 573.96875 607.875 C 577.45928 600.08529 581.04597 592.34298 584.6875 584.625 C 593.95288 605.50095 608.09675 624.99672 616.90625 620.9375 C 649.24725 606.2615 683.622 596.76925 717.75 587.28125 C 765.867 574.34425 814.6184 563.91775 863.5 554.34375 C 881.6541 551.15175 899.74195 547.42025 918.15625 546.15625 C 926.15855 545.36848 929.11434 528.66878 928.40625 510.0625 C 948.90854 493.60015 973.56855 457.67962 963.46875 449.34375 C 960.06035 446.58675 956.6584 443.8205 953.25 441.0625 C 922.1553 415.7105 891.27435 390.09375 859.59375 365.46875 C 849.26425 357.29902 838.89922 349.1221 828.6875 340.78125 C 839.85742 339.75979 851.04717 338.74659 862.21875 337.75 C 900.57565 333.78 939.5742 333.01525 977 323.03125 C 994.9164 317.63425 969.4789 233.19675 951.5625 238.59375 C 922.8102 250.40575 884.2664 245.84975 854.1875 252.09375 C 814.02022 256.03566 773.85103 259.99269 733.71875 264.28125 C 734.56131 262.05156 735.41955 259.82847 736.25 257.59375 C 751.3585 216.04175 765.9471 174.21425 775.75 131.03125 C 778.47895 117.82278 734.5232 104.85975 708.15625 105.4375 z M 726.71875 350.90625 C 723.08411 358.06046 721.99039 364.08007 725.21875 367.1875 C 750.90235 390.8075 778.43295 412.282 805.90625 433.75 C 820.68685 445.11758 835.24239 456.77242 849.65625 468.59375 C 848.56242 468.81353 847.46865 469.02868 846.375 469.25 C 795.6393 479.726 744.9937 490.74825 694.875 503.90625 C 667.16914 511.41956 639.43952 519.04683 612.28125 528.375 C 623.85479 505.35194 635.56995 482.36625 646.8125 459.1875 C 663.80285 424.47432 680.54404 389.61925 696.34375 354.34375 C 706.46322 353.14141 716.58937 352.01944 726.71875 350.90625 z M 970.96875 553.78125 C 944.59152 553.76288 900.89749 567.66297 903.90625 580.8125 C 911.32835 614.4285 911.66505 648.998 911.28125 683.25 C 909.69595 734.351 902.04365 784.98475 893.71875 835.34375 C 887.86655 868.73275 881.3134 902.041 873.375 935 C 872.544 940.22036 871.25772 944.04982 870.21875 946.4375 C 871.00019 945.30164 872.15375 943.7762 873.625 941.96875 C 864.78596 957.48386 917.23096 1020.3986 931.21875 1008.9375 C 947.09225 993.6685 955.76315 976.332 959.15625 954.5 C 966.68525 919.582 973.13405 884.43575 979.09375 849.21875 C 987.80225 794.62975 995.8802 739.79675 997.75 684.46875 C 998.4158 643.21975 997.8083 601.77775 990.125 561.09375 C 988.94766 555.94856 981.29027 553.78844 970.96875 553.78125 z M 200.34375 558.625 C 202.73984 566.10594 199.25986 570.03969 200.34375 558.625 z M 802.90625 600.15625 C 772.46201 600.0152 742.3983 604.59775 713.5625 615.25 C 683.28319 627.25737 654.58184 642.4587 631.25 665.5625 C 609.0297 662.11456 585.71093 663.40438 584.3125 672.84375 C 580.1617 705.65575 584.83035 738.3055 591.96875 770.3125 C 596.47585 790.7415 604.6607 809.61225 615 827.65625 C 617.94338 832.479 626.90434 831.66146 637.65625 827.71875 C 640.05948 847.39745 646.13927 865.05667 654.59375 864.375 C 689.96595 859.304 725.24275 853.7635 760.71875 849.4375 C 767.10178 848.70391 773.49712 848.02497 779.90625 847.5 C 785.7141 855.29953 791.61419 859.84577 796.28125 857.875 C 803.65016 854.57573 810.92076 851.22302 817.84375 847.28125 C 823.62324 847.83667 829.39907 848.7095 835.125 850.03125 C 843.60609 851.63057 851.63246 833.95501 856 814.1875 C 871.32265 796.99713 884.18146 777.86306 892.90625 756.09375 C 904.90285 722.23075 910.8257 687.60175 896.625 653.21875 C 876.5858 617.58175 856.32085 605.327 815.96875 600.5 C 811.60598 600.29062 807.25543 600.1764 802.90625 600.15625 z M 798.09375 687.625 C 802.2349 687.63282 806.37516 687.8185 810.53125 688.1875 C 812.95625 686.7615 827.48295 693.69825 817.65625 692.40625 C 818.29305 704.21925 814.78605 715.027 810.53125 725.875 C 804.81624 738.71051 796.66133 749.98839 786.96875 759.90625 C 774.76415 760.38984 762.53528 761.51009 750.3125 763.21875 C 728.31044 765.84161 706.37839 768.90654 684.40625 771.75 C 681.3267 765.06464 679.28353 757.86481 677.28125 750.78125 C 675.2364 742.16768 673.41942 733.46071 672.1875 724.6875 C 681.39981 730.31116 689.46665 732.65372 693.21875 728.71875 C 707.39085 713.25075 726.0042 704.07325 745.3125 696.78125 C 762.40433 690.87925 780.14879 687.59112 798.09375 687.625 z M 870.1875 946.5 C 867.54029 950.36323 868.52794 950.29201 870.1875 946.5 z "
     id="path10639" />
</svg>
