<?xml version="1.0" encoding="utf-8" ?>

<!DOCTYPE svg PUBLIC "-//W3C//DTD SVG 1.1//EN" 
  "http://www.w3.org/Graphics/SVG/1.1/DTD/svg11.dtd">
<svg 
    xmlns="http://www.w3.org/2000/svg"
    xmlns:xlink="http://www.w3.org/1999/xlink"
    xmlns:sodipodi="http://sodipodi.sourceforge.net/DTD/sodipodi-0.dtd"
    xmlns:inkscape="http://www.inkscape.org/namespaces/inkscape"
    width="1024" height="1024" id="U9C7C">
<path d="m 8613.5838,60617.325 c -14.3375,26.887 -25.9308,55.115 -37.7907,83.149 -11.601,28.369 -24.4917,56.261 -34.5994,85.219 -6.4725,17.52 -89.0644,-12.991 -82.592,-30.512 l 0,0 c 11.5058,-29.827 24.713,-58.957 36.9054,-88.505 12.6665,-30.238 25.202,-60.549 39.5389,-90.048 8.6331,-16.661 87.1709,24.036 78.5378,40.697 z" id="path13335" inkscape:connector-curvature="0" style="fill:#2b1100;fill-opacity:1;fill-rule:nonzero;stroke:none" transform="translate(-8192, -60416)"/><path d="m 8562.5186,60655.197 c 28.3279,-5.224 56.6715,-10.353 85.0702,-15.178 29.9785,-5.617 60.1848,-8.047 90.6245,-6.473 31.6499,2.661 48.0347,8.819 68.0402,34.42 12.0847,22.156 8.4653,44.859 2.8483,68.086 -6.3795,24.24 -14.9986,47.803 -24.224,71.081 -6.4133,15.91 -13.732,31.419 -21.2191,46.844 -8.2929,16.739 -87.2037,-22.354 -78.9108,-39.093 l 0,0 c 6.6581,-13.135 13.0972,-26.382 18.5887,-40.058 7.6951,-19.429 14.719,-39.152 19.9166,-59.414 3.9343,-16.517 0.3801,-13.96 7.9841,-0.203 10.9354,11.099 20.4373,9.253 1.5089,6.172 -23.6899,-1.87 -47.1484,0.651 -70.506,4.847 -27.0723,4.602 -54.1333,9.379 -80.924,15.438 -18.3428,3.987 -37.1404,-82.482 -18.7976,-86.469 z" id="path13337" inkscape:connector-curvature="0" style="fill:#2b1100;fill-opacity:1;fill-rule:nonzero;stroke:none" transform="translate(-8192, -60416)"/><path d="m 8448.3203,60877.648 c 1.3891,37.129 6.1029,74.057 11.0822,110.848 4.8196,34.103 10.9206,68.217 24.6248,99.973 2.7569,4.755 4.7953,10.854 9.6555,13.979 12.3617,14.053 -53.8833,72.326 -66.245,58.274 l 0,0 c -9.8155,-12.076 -18.798,-24.355 -24.4674,-39.054 -15.4273,-39.01 -24.1612,-79.913 -29.5072,-121.489 -5.4217,-39.712 -10.3775,-79.513 -13.4344,-119.487 -0.6459,-18.729 87.6456,-21.774 88.2915,-3.044 z" id="path13339" inkscape:connector-curvature="0" style="fill:#2b1100;fill-opacity:1;fill-rule:nonzero;stroke:none" transform="translate(-8192, -60416)"/><path d="m 8434.6177,60849.073 c 31.5684,-8.968 64.0307,-14.243 96.3574,-19.624 43.549,-7.21 87.3917,-12.099 131.4528,-14.57 39.8542,-1.841 79.7024,0.604 119.2664,5.319 31.9409,3.26 61.2023,13.341 87.5983,31.422 28.3089,22.202 38.4965,53.632 42.3786,88.033 1.7436,39.654 -7.3725,78.507 -16.9912,116.672 -8.4239,32.687 -19.2759,64.652 -31.0452,96.263 -3.4929,10.21 -8.115,19.893 -13.0159,29.476 -8.8558,16.518 -86.7239,-25.229 -77.8681,-41.747 l 0,0 c 3.6244,-5.998 6.2945,-12.444 8.7776,-18.996 11.0219,-28.259 21.16,-56.877 28.6777,-86.297 7.1623,-28.387 14.2754,-57.229 14.1237,-86.701 -0.5874,-8.737 -0.874,-18.518 -6.8704,-25.479 -12.2738,-11.428 -30.8404,-12.813 -46.4886,-15.861 -34.4109,-4.427 -69.1001,-6.797 -103.812,-5.357 -40.7918,2.153 -81.3561,6.861 -121.6338,13.714 -27.7509,4.787 -55.7483,9.247 -82.6934,17.612 -17.7935,5.985 -46.0074,-77.894 -28.2139,-83.879 z" id="path13341" inkscape:connector-curvature="0" style="fill:#2b1100;fill-opacity:1;fill-rule:nonzero;stroke:none" transform="translate(-8192, -60416)"/><path d="m 8475.4108,61014.271 c 37.1366,-13.122 75.1945,-23.115 113.6064,-31.667 46.4031,-10.186 93.7382,-14.086 141.1284,-15.223 21.2566,-0.58 42.5147,0.887 63.7628,0.08 18.7216,-0.318 20.2215,87.936 1.4999,88.255 l 0,0 c -21.2183,0.04 -42.4011,-1.324 -63.6222,-1.239 -41.5773,0.539 -83.124,3.692 -123.8255,12.684 -34.5701,7.799 -68.9354,16.813 -101.8787,30.062 -17.5967,6.506 -48.2677,-76.445 -30.6711,-82.952 z" id="path13343" inkscape:connector-curvature="0" style="fill:#2b1100;fill-opacity:1;fill-rule:nonzero;stroke:none" transform="translate(-8192, -60416)"/><path d="m 8712.3399,60889.999 c -9.1613,31.326 -11.3541,64.23 -13.9676,96.611 -3.3229,43.435 -4.1094,86.99 -3.2332,130.526 0.3368,13.677 0.9281,27.346 1.5457,41.012 0.6304,18.639 -87.2334,21.611 -87.8638,2.972 l 0,0 c -0.3257,-14.262 -0.65,-28.524 -0.8159,-42.788 -0.3581,-46.191 0.6322,-92.389 3.9245,-138.477 3.012,-39.742 5.9592,-79.881 16.7306,-118.429 6.0613,-17.752 89.741,10.822 83.6797,28.573 z" id="path13345" inkscape:connector-curvature="0" style="fill:#2b1100;fill-opacity:1;fill-rule:nonzero;stroke:none" transform="translate(-8192, -60416)"/><path d="m 8425.829,61156.838 c 32.7086,-10.752 66.4553,-17.801 100.1182,-24.793 48.7719,-10.258 97.9429,-18.248 147.4761,-23.68 38.5678,-3.813 77.2923,-5.335 116.0234,-6.049 9.2947,-0.219 18.5882,-0.261 27.8838,-0.145 18.7534,0.571 16.0629,88.975 -2.6905,88.404 l 0,0 c -8.1157,-0.452 -16.2385,-0.57 -24.3677,-0.543 -35.9055,-10e-4 -71.8109,1.046 -107.5762,4.442 -46.6491,4.922 -92.9131,12.593 -138.7575,22.563 -29.4139,6.351 -59.0612,12.481 -87.3831,22.846 -17.6164,6.518 -48.343,-76.527 -30.7265,-83.045 z" id="path13347" inkscape:connector-curvature="0" style="fill:#2b1100;fill-opacity:1;fill-rule:nonzero;stroke:none" transform="translate(-8192, -60416)"/><path d="m 8221.3687,61317.135 c 42.8657,-8.088 85.99,-14.591 129.1823,-20.641 67.6149,-9.641 135.5936,-16.151 203.6958,-21.079 65.6171,-3.768 131.243,-7.201 196.8132,-11.739 52.2978,-4.467 104.7191,-6.489 157.1921,-6.69 38.6009,0.353 77.2239,1.085 115.6525,4.927 23.7053,2.903 47.0544,8.208 69.7043,15.734 2.7321,1.072 5.4641,2.143 8.1962,3.215 17.369,7.1 -16.0994,88.978 -33.4684,81.878 l 0,0 c -1.1551,-0.517 -2.3101,-1.035 -3.4652,-1.552 -16.2246,-5.907 -33.1861,-9.633 -50.2381,-12.21 -35.2662,-4.042 -70.7949,-4.623 -106.2574,-5.286 -50.5909,-0.06 -101.1361,1.724 -151.5768,5.792 -65.4322,4.225 -130.9153,7.402 -196.375,11.146 -66.0786,4.799 -132.031,11.241 -197.5675,21.112 -41.3247,6.147 -82.6888,12.437 -123.4095,21.911 -18.3533,3.835 -36.4318,-82.683 -18.0785,-86.518 z" id="path13349" inkscape:connector-curvature="0" style="fill:#2b1100;fill-opacity:1;fill-rule:nonzero;stroke:none" transform="translate(-8192, -60416)"/></svg>