<?xml version="1.0" encoding="UTF-8" standalone="no"?>
<svg
   xmlns:dc="http://purl.org/dc/elements/1.1/"
   xmlns:cc="http://creativecommons.org/ns#"
   xmlns:rdf="http://www.w3.org/1999/02/22-rdf-syntax-ns#"
   xmlns:svg="http://www.w3.org/2000/svg"
   xmlns="http://www.w3.org/2000/svg"
   xmlns:sodipodi="http://sodipodi.sourceforge.net/DTD/sodipodi-0.dtd"
   xmlns:inkscape="http://www.inkscape.org/namespaces/inkscape"
   width="1024"
   height="1024"
   id="U9ED1"
   version="1.1"
   inkscape:version="0.48.0 r9654"
   sodipodi:docname="U+9ED1.svg">
  <metadata
     id="metadata19">
    <rdf:RDF>
      <cc:Work
         rdf:about="">
        <dc:format>image/svg+xml</dc:format>
        <dc:type
           rdf:resource="http://purl.org/dc/dcmitype/StillImage" />
      </cc:Work>
    </rdf:RDF>
  </metadata>
  <defs
     id="defs17" />
  <sodipodi:namedview
     pagecolor="#ffffff"
     bordercolor="#666666"
     borderopacity="1"
     objecttolerance="10"
     gridtolerance="10"
     guidetolerance="10"
     inkscape:pageopacity="0"
     inkscape:pageshadow="2"
     inkscape:window-width="640"
     inkscape:window-height="480"
     id="namedview15"
     showgrid="false"
     inkscape:zoom="0.27441406"
     inkscape:cx="512"
     inkscape:cy="512"
     inkscape:window-x="0"
     inkscape:window-y="25"
     inkscape:window-maximized="0"
     inkscape:current-layer="U9ED1" />
  <path
     style="fill:#550000;fill-opacity:1;fill-rule:nonzero;stroke:#f9f9f9;stroke-width:0.1;stroke-miterlimit:4;stroke-dasharray:none"
     d="M 607.09375 68.78125 C 594.85926 68.764516 582.6227 69.0445 570.375 69.53125 C 506.8055 72.29525 443.32825 77.46425 380.65625 88.90625 C 339.20185 96.48725 297.66035 104.5255 257.65625 118.0625 C 243.46535 123.37032 261.26778 178.93079 277.75 195.65625 C 257.03679 189.06258 195.27589 206.42015 199.03125 221.875 C 206.67965 253.504 216.06145 284.5845 227.09375 315.1875 C 238.26268 345.29678 253.2334 373.59681 271.59375 399.78125 C 274.76763 424.37856 284.97121 452.33092 295.53125 450.21875 C 331.50121 441.98139 367.11368 432.34851 402.78125 422.90625 C 402.83076 425.0624 402.88239 427.21882 402.9375 429.375 C 403.27111 438.79482 403.71499 448.218 404.25 457.625 C 398.4493 458.30823 392.63935 458.99159 386.84375 459.71875 C 350.47335 464.76275 313.96925 470.37225 279.09375 482.28125 C 261.69835 488.80525 292.44835 570.8355 309.84375 564.3125 C 338.41565 553.6385 368.80245 549.27875 398.84375 544.96875 C 402.89421 544.44086 406.94607 543.93603 411 543.4375 C 412.24819 556.90715 413.51567 570.3476 414.78125 583.8125 C 414.92622 585.31663 415.05178 586.83903 415.1875 588.34375 C 398.69256 590.3158 382.18171 592.30052 365.6875 594.28125 C 316.9327 600.08425 268.17325 605.88625 219.34375 611.03125 C 200.98035 613.63725 213.29285 700.20075 231.65625 697.59375 C 279.66455 690.46875 327.845 684.663 376 678.625 C 441.0067 670.5 506.0673 662.702 571.25 656.125 C 615.8553 651.733 660.5921 647.9685 705.4375 649.4375 C 717.2365 651.6165 734.6105 649.15375 744.5625 655.21875 C 761.6542 662.56175 796.2791 581.99925 779.1875 574.65625 C 756.1928 565.79225 731.89065 563.4595 707.34375 562.9375 C 658.89775 562.2905 610.61515 566.348 562.46875 571.5 C 541.96465 573.67674 521.48583 575.94803 501 578.28125 C 500.88389 577.21842 500.776 576.15626 500.65625 575.09375 C 499.18286 561.63123 497.72416 548.16018 496.3125 534.6875 C 504.77324 533.96365 513.25432 533.29463 521.71875 532.625 C 539.69795 532.012 559.00125 528.98675 576.40625 532.96875 C 575.0726 532.61542 573.73992 532.25932 572.40625 531.90625 C 590.05143 533.24408 625.95125 461.20173 610.0625 453.09375 C 605.5136 451.28375 600.9864 449.46525 596.4375 447.65625 C 569.3592 442.43925 541.8504 444.1765 514.5 446.5625 C 505.97089 447.31548 497.4329 448.08878 488.90625 448.875 C 488.47744 441.61233 488.13317 434.3663 487.84375 427.09375 C 487.60964 418.90189 487.42371 410.69166 487.28125 402.5 C 515.93084 396.66564 544.78414 391.95475 573.84375 388.40625 C 609.85623 384.5854 646.0803 384.2595 682.25 383.375 C 679.34311 388.73851 676.32595 394.04266 673.25 399.3125 C 664.0766 415.3485 739.67035 458.5975 748.84375 442.5625 C 755.75965 430.2785 762.5439 417.91125 768.3125 405.03125 C 783.7977 369.56525 796.7308 333.09325 807.875 296.03125 C 817.6155 262.31725 827.03565 228.0575 828.59375 192.8125 C 827.20705 163.9855 819.5587 137.8475 798.6875 116.8125 C 775.3065 95.5525 748.0292 82.682 716.6875 77.5 C 680.4235 71.344 643.79723 68.831453 607.09375 68.78125 z M 597.9375 154.15625 C 632.64308 154.02057 667.28114 156.15581 701.4375 162.6875 C 714.8035 165.8605 729.0806 169.0725 738.3125 179.9375 C 741.7804 184.5345 741.64875 189.7245 741.34375 195.1875 C 738.89565 221.4215 732.16885 246.99 724.96875 272.25 C 722.73783 279.72186 720.41175 287.15185 718 294.5625 C 717.61545 294.51553 717.20756 294.53019 716.8125 294.5625 C 707.3219 295.5515 697.81285 296.01975 688.28125 296.46875 C 657.51195 297.83461 626.69536 298.45413 595.96875 300.59375 C 609.8798 287.09015 623.62891 273.41764 637.09375 259.46875 C 649.56895 245.68075 584.56905 186.8995 572.09375 200.6875 C 555.00675 219.7795 536.5356 237.54425 518.0625 255.28125 C 508.54721 264.7211 498.55951 273.65853 488.46875 282.46875 C 489.04035 266.99103 489.76172 251.53334 490.65625 236.0625 C 492.02022 210.55182 492.98489 184.82603 496.03125 159.40625 C 521.93353 157.11366 547.91093 155.60975 573.90625 154.59375 C 581.91833 154.34662 589.92852 154.18756 597.9375 154.15625 z M 408.34375 170.75 C 406.94723 191.13292 406.24702 211.5712 405.375 231.9375 C 405.3609 232.22876 405.35776 232.52124 405.34375 232.8125 C 394.40441 226.41326 383.57271 219.79582 372.75 213.15625 C 356.3925 204.30925 314.705 281.404 331.0625 290.25 C 354.63368 303.77875 377.9718 317.60301 402.3125 329.71875 C 402.29085 331.36391 402.29985 333.01106 402.28125 334.65625 C 398.30503 335.67753 394.3123 336.72521 390.34375 337.78125 C 374.40302 341.83387 358.50003 345.95823 342.53125 349.9375 C 328.17137 330.32765 316.94656 308.69456 308.28125 285.90625 C 298.28695 258.25225 289.92545 230.0635 284.21875 201.1875 C 284.11011 200.74041 283.95497 200.30651 283.75 199.90625 C 285.34163 200.49222 286.86876 200.57126 288.3125 200.03125 C 323.1803 186.99125 359.924 179.94675 396.375 172.96875 C 400.36886 172.20234 404.34211 171.45786 408.34375 170.75 z M 487.78125 302.96875 C 489.5904 306.56281 491.93348 310.38918 494.65625 314.28125 C 492.26355 314.72159 489.85894 315.14019 487.46875 315.59375 C 487.56129 311.38483 487.66473 307.1773 487.78125 302.96875 z M 231.375 723.09375 C 229.38622 723.08335 227.71643 723.65775 226.46875 724.875 C 207.52085 744.855 190.1737 766.24925 173.6875 788.28125 C 162.5775 804.28825 150.6795 819.77325 139.9375 836.03125 C 133.3409 847.98725 136.67505 840.76825 131.15625 858.15625 C 127.89174 875.79452 207.69454 891.26176 216.875 876.125 L 214.65625 881.8125 C 223.32047 867.35823 234.27696 854.24429 243.40625 840.09375 C 257.00025 821.66275 271.3508 803.69675 287.6875 787.59375 C 299.74842 775.827 250.59987 723.19424 231.375 723.09375 z M 214.65625 881.8125 C 214.39146 882.25425 214.10409 882.68061 213.84375 883.125 C 213.88975 883.233 213.9542 883.3295 214 883.4375 L 214.65625 881.8125 z M 734.125 725.96875 C 715.56759 725.82926 669.48191 784.34533 682.75 795.1875 C 704.5412 811.8655 727.2482 827.2675 749.5 843.3125 C 763.3889 853.3875 776.7721 864.157 790.0625 875 C 804.4039 886.608 859.12265 818.983 844.78125 807.375 C 830.15105 795.62 815.43245 783.96775 800.21875 772.96875 C 779.39975 757.96375 758.0451 743.5975 738.1875 727.3125 C 737.06309 726.39359 735.69766 725.98057 734.125 725.96875 z M 572.59375 733.09375 C 554.03536 732.77657 507.36558 790.84034 520.53125 801.8125 C 538.18775 816.0575 556.3346 829.6695 575 842.5625 C 585.4613 849.5465 580.20005 846.16375 590.78125 852.71875 C 606.63455 862.35175 652.0407 787.633 636.1875 778 C 628.5876 773.517 632.6344 775.99225 624.1875 770.53125 C 607.6759 759.43825 591.65375 747.587 576.65625 734.5 C 575.54052 733.57023 574.16649 733.12063 572.59375 733.09375 z M 387.71875 743.375 C 367.77159 743.95622 317.41359 791.86741 328.5 804.15625 C 347.0759 823.87225 366.266 842.9605 386.1875 861.3125 C 401.4973 875.0405 417.34565 888.13825 433.65625 900.65625 C 448.39945 911.84325 501.14945 842.34325 486.40625 831.15625 C 472.11565 820.46325 458.26785 809.17875 444.90625 797.34375 C 426.93895 780.91475 409.55515 763.81875 393.53125 745.46875 C 392.16976 743.95959 390.1684 743.30362 387.71875 743.375 z "
     id="path24671" />
</svg>
