<?xml version="1.0" encoding="utf-8" ?>

<!DOCTYPE svg PUBLIC "-//W3C//DTD SVG 1.1//EN" 
  "http://www.w3.org/Graphics/SVG/1.1/DTD/svg11.dtd">
<svg 
    xmlns="http://www.w3.org/2000/svg"
    xmlns:xlink="http://www.w3.org/1999/xlink"
    xmlns:sodipodi="http://sodipodi.sourceforge.net/DTD/sodipodi-0.dtd"
    xmlns:inkscape="http://www.inkscape.org/namespaces/inkscape"
    width="1024" height="1024" id="U9EBB">
<path d="m 9681.794,31839.503 c 16.2484,15.916 32.7807,31.528 48.7584,47.718 12.43,12.888 24.377,26.231 36.3963,39.501 12.4478,14.068 -53.8719,72.748 -66.3197,58.679 l 0,0 c -10.6846,-12.373 -21.4324,-24.706 -32.7372,-36.521 -15.2403,-15.539 -31.0044,-30.554 -47.0942,-45.212 -13.6114,-12.939 47.3849,-77.104 60.9964,-64.165 z" id="path10586" inkscape:connector-curvature="0" style="fill:#2b0000;fill-opacity:1;fill-rule:nonzero;stroke:#f9f9f9;stroke-width:0.1;stroke-miterlimit:4;stroke-dasharray:none" transform="translate(-9216, -31744)"/><path d="m 9437.9679,32017.26 c 49.4555,2.703 99.1012,-1.359 148.5105,-3.815 69.6143,-3.638 139.246,-6.832 208.9092,-9.364 44.2148,-1.445 88.4075,-3.468 132.6115,-5.197 17.8851,-0.582 35.7873,-0.659 53.5628,-2.886 5.1831,-0.716 10.3933,-1.053 15.6151,-1.284 18.849,-0.268 20.113,88.587 1.264,88.855 l 0,0 c -2.3763,-0.04 -4.777,-0.03 -7.1209,0.361 -20.144,2.038 -40.3555,2.306 -60.5911,2.448 -44.1735,1.025 -88.3374,2.4 -132.5077,3.552 -69.1131,2.049 -138.1881,5.01 -207.2188,8.991 -54.165,3.042 -108.4477,7.784 -162.7239,6.113 -18.6198,-2.056 -8.9304,-89.83 9.6893,-87.774 z" id="path10592" inkscape:connector-curvature="0" style="fill:#2b0000;fill-opacity:1;fill-rule:nonzero;stroke:#f9f9f9;stroke-width:0.1;stroke-miterlimit:4;stroke-dasharray:none" transform="translate(-9216, -31744)"/><path d="m 9501.5602,32091.975 c -13.3691,42.114 -22.1828,85.546 -31.6217,128.666 -14.8049,66.861 -27.5097,134.145 -37.6698,201.863 -6.415,43.449 -9.9563,87.231 -13.8464,130.954 -1.2942,19.27 -4.2782,38.367 -6.2846,57.557 0.017,0.544 -0.066,2.163 0.052,1.632 2.919,-13.117 -8.5762,-25.191 -18.3022,-31.71 -4.63,-1.445 -9.26,-2.89 -13.8901,-4.335 18.78,1.77 10.4342,90.3 -8.3458,88.529 l 0,0 c -5.8463,-1.559 -11.6926,-3.119 -17.5389,-4.679 -21.9956,-13.284 -33.4112,-34.22 -29.8765,-60.095 2.4391,-18.4 5.5802,-36.715 7.1439,-55.229 4.6434,-45.31 8.9374,-90.677 15.9737,-135.699 10.928,-69.261 24.1543,-138.107 38.7422,-206.689 9.6809,-46.496 18.8157,-93.192 31.6007,-138.96 5.9811,-17.79 89.8441,10.405 83.863,28.195 z" id="path10594" inkscape:connector-curvature="0" style="fill:#2b0000;fill-opacity:1;fill-rule:nonzero;stroke:#f9f9f9;stroke-width:0.1;stroke-miterlimit:4;stroke-dasharray:none" transform="translate(-9216, -31744)"/><path d="m 9500.3809,32243.883 c 31.5653,6.997 64.1717,7.745 96.356,9.14 54.701,1.551 109.436,0.849 164.1511,0.696 48.5956,-0.217 97.2005,-1.098 145.688,-4.458 29.7204,-2.247 59.031,-7.828 88.6112,-11.255 15.1138,-1.634 30.2478,-2.92 45.4358,-1.927 6.898,0.677 13.678,2.131 20.524,3.163 0.557,0.08 1.115,0.157 1.672,0.235 18.647,2.82 5.352,90.721 -13.295,87.9 l 0,0 c -0.79,-0.125 -1.581,-0.251 -2.372,-0.376 -4.726,-0.779 -9.445,-1.625 -14.148,-2.529 -9.416,-0.981 -19.001,0.61 -28.437,1.035 -30.8454,2.974 -61.3873,8.731 -92.3622,10.512 -50.3141,3.06 -100.7197,3.807 -151.1207,3.925 -55.9181,0.1 -111.8479,0.881 -167.758,-0.333 -38.9456,-1.389 -78.2458,-2.357 -116.518,-10.378 -18.1055,-5 5.4674,-90.35 23.5728,-85.35 z" id="path10600" inkscape:connector-curvature="0" style="fill:#2b0000;fill-opacity:1;fill-rule:nonzero;stroke:#f9f9f9;stroke-width:0.1;stroke-miterlimit:4;stroke-dasharray:none" transform="translate(-9216, -31744)"/><path d="m 9660.5257,32140.521 c -1.331,38.024 -4.1972,75.978 -6.3,113.966 -3.3093,55.202 -2.8135,110.482 -0.6714,165.707 2.3227,43.532 4.5854,87.06 5.1248,130.656 0.1705,22.188 -0,44.383 -1.0391,66.55 -0.2601,4.391 -0.5931,8.771 -0.7707,13.165 -1.6557,18.809 -90.322,11.004 -88.6662,-7.805 l 0,0 c 0.4348,-3.549 0.8537,-7.126 1.1353,-10.699 1.575,-20.18 1.7369,-40.437 1.9538,-60.668 0.018,-42.718 -1.9627,-85.375 -4.0397,-128.036 -1.9988,-57.738 -2.3318,-115.513 0.6418,-173.234 1.6474,-35.972 4.0471,-71.963 4.1013,-107.977 -0.3446,-18.78 88.1855,-20.405 88.5301,-1.625 z" id="path10602" inkscape:connector-curvature="0" style="fill:#2b0000;fill-opacity:1;fill-rule:nonzero;stroke:#f9f9f9;stroke-width:0.1;stroke-miterlimit:4;stroke-dasharray:none" transform="translate(-9216, -31744)"/><path d="m 9624.5088,32405.449 c -17.267,25.783 -35.0941,51.184 -53.0027,76.523 -10.7946,17.96 -26.7504,33.63 -34.5647,53.322 3.6759,-4.894 1.1557,-0.99 3.1361,-13.582 1.5629,18.759 -86.867,26.126 -88.4299,7.367 l 0,0 c 1.5577,-23.626 -0.8033,-13.116 5.5781,-31.831 11.8721,-23.484 27.7234,-44.467 42.9465,-65.856 17.1824,-24.151 34.3853,-48.339 49.8843,-73.619 10.1135,-15.793 84.5658,31.882 74.4523,47.676 z" id="path10604" inkscape:connector-curvature="0" style="fill:#2b0000;fill-opacity:1;fill-rule:nonzero;stroke:#f9f9f9;stroke-width:0.1;stroke-miterlimit:4;stroke-dasharray:none" transform="translate(-9216, -31744)"/><path d="m 9658.425,32372.45 c 21.8949,16.858 42.7611,34.987 63.9671,52.689 16.0078,13.534 32.7602,26.133 49.9064,38.176 7.1176,5.087 3.8343,2.782 9.8323,6.941 15.2718,10.944 -36.3195,82.937 -51.5914,71.992 l 0,0 c -6.2693,-4.622 -3.0371,-2.227 -9.6942,-7.188 -18.6885,-13.656 -37.1046,-27.689 -54.7428,-42.692 -19.5211,-16.392 -38.6851,-33.304 -59.4111,-48.181 -15.2178,-10.974 36.5159,-82.712 51.7337,-71.737 z" id="path10606" inkscape:connector-curvature="0" style="fill:#2b0000;fill-opacity:1;fill-rule:nonzero;stroke:#f9f9f9;stroke-width:0.1;stroke-miterlimit:4;stroke-dasharray:none" transform="translate(-9216, -31744)"/><path d="m 9916.8638,32186.584 c -5.0273,36.058 -6.5577,72.516 -8.6104,108.836 -2.9331,54.978 -5.3402,109.982 -7.5719,164.993 -1.5725,39.137 -2.5483,78.294 -3.4677,117.451 -0.4447,13.663 -0.1366,27.359 -1.7438,40.949 -3.184,18.585 -90.7958,3.576 -87.6118,-15.01 l 0,0 c -0.1293,9.03 1.9535,-29.856 1.7282,-28.776 1.6328,-39.442 2.927,-78.897 4.7218,-118.331 2.5137,-55.263 5.0676,-110.523 7.572,-165.785 1.8533,-38.652 3.3699,-77.357 7.2259,-115.874 2.4495,-18.616 90.2072,-7.069 87.7577,11.547 z" id="path10608" inkscape:connector-curvature="0" style="fill:#2b0000;fill-opacity:1;fill-rule:nonzero;stroke:#f9f9f9;stroke-width:0.1;stroke-miterlimit:4;stroke-dasharray:none" transform="translate(-9216, -31744)"/><path d="m 9893.1909,32387.997 c -22.6096,16.312 -41.6301,36.72 -59.8453,57.654 -18.5717,21.815 -34.0448,45.915 -48.4131,70.625 -5.5632,6.356 -2.4,12.433 -2.3759,5.503 0.031,-8.821 -1.0146,-17.613 -1.5219,-26.419 7.4917,17.31 -74.1064,52.626 -81.5982,35.316 l 0,0 c -3.3221,-32.629 -5.2571,-33.734 9.9486,-59.47 17.584,-28.822 36.2228,-57.051 58.1349,-82.819 22.5449,-25.921 46.295,-50.809 73.583,-71.844 15.1577,-11.049 67.2455,60.404 52.0879,71.454 z" id="path10610" inkscape:connector-curvature="0" style="fill:#2b0000;fill-opacity:1;fill-rule:nonzero;stroke:#f9f9f9;stroke-width:0.1;stroke-miterlimit:4;stroke-dasharray:none" transform="translate(-9216, -31744)"/><path d="m 9968.5647,32357.886 c 13.9455,20.464 32.6833,36.811 52.0643,51.923 21.902,16.389 46.465,28.515 71.224,39.881 6.447,2.877 12.887,5.764 19.42,8.441 17.197,7.573 -18.504,88.637 -35.7,81.063 l 0,0 c -7.077,-3.293 -14.123,-6.652 -21.193,-9.961 -30.441,-14.668 -60.6346,-30.194 -87.6494,-50.703 -26.7992,-21.112 -52.2631,-44.08 -72.1167,-72.069 -10.3044,-15.687 63.6463,-64.263 73.9508,-48.575 z" id="path10612" inkscape:connector-curvature="0" style="fill:#2b0000;fill-opacity:1;fill-rule:nonzero;stroke:#f9f9f9;stroke-width:0.1;stroke-miterlimit:4;stroke-dasharray:none" transform="translate(-9216, -31744)"/></svg>