<?xml version="1.0" encoding="UTF-8" standalone="no"?>
<svg
   xmlns:dc="http://purl.org/dc/elements/1.1/"
   xmlns:cc="http://creativecommons.org/ns#"
   xmlns:rdf="http://www.w3.org/1999/02/22-rdf-syntax-ns#"
   xmlns:svg="http://www.w3.org/2000/svg"
   xmlns="http://www.w3.org/2000/svg"
   xmlns:sodipodi="http://sodipodi.sourceforge.net/DTD/sodipodi-0.dtd"
   xmlns:inkscape="http://www.inkscape.org/namespaces/inkscape"
   width="1024"
   height="1024"
   id="U9F50"
   version="1.1"
   inkscape:version="0.48.0 r9654"
   sodipodi:docname="U+9F50.svg">
  <metadata
     id="metadata13">
    <rdf:RDF>
      <cc:Work
         rdf:about="">
        <dc:format>image/svg+xml</dc:format>
        <dc:type
           rdf:resource="http://purl.org/dc/dcmitype/StillImage" />
      </cc:Work>
    </rdf:RDF>
  </metadata>
  <defs
     id="defs11" />
  <sodipodi:namedview
     pagecolor="#ffffff"
     bordercolor="#666666"
     borderopacity="1"
     objecttolerance="10"
     gridtolerance="10"
     guidetolerance="10"
     inkscape:pageopacity="0"
     inkscape:pageshadow="2"
     inkscape:window-width="640"
     inkscape:window-height="480"
     id="namedview9"
     showgrid="false"
     inkscape:zoom="0.27441406"
     inkscape:cx="512"
     inkscape:cy="512"
     inkscape:window-x="0"
     inkscape:window-y="25"
     inkscape:window-maximized="0"
     inkscape:current-layer="U9F50" />
  <path
     style="fill:#c83737;fill-opacity:1;fill-rule:nonzero;stroke:#f9f9f9;stroke-width:0.1;stroke-miterlimit:4;stroke-dasharray:none"
     d="M 494.25 84.40625 C 472.52717 84.012752 417.83145 119.79992 426.1875 133.59375 C 441.7953 156.96275 459.12255 179.12275 475.46875 201.96875 C 483.20086 213.45433 480.95037 209.97987 486.40625 218.71875 C 408.58054 227.65582 330.85318 237.45223 252.96875 245.875 C 206.52975 250.629 160.0239 255.742 113.3125 256.625 C 94.5801 257.002 96.36135 345.3145 115.09375 344.9375 C 151.35649 342.7696 187.51019 339.28261 223.625 335.40625 C 210.2148 352.8232 200.52964 372.98078 207.90625 378.6875 C 244.33035 405.2465 283.0161 428.5165 321.5625 451.8125 C 334.98715 459.99498 348.46619 468.07071 362 476.0625 C 353.54489 483.52314 345.07039 490.94681 336.5625 498.34375 C 290.5018 536.97375 244.80415 577.04275 191.65625 605.71875 C 177.00045 611.25475 183.53805 610.16875 172.46875 610.96875 C 154.31015 614.91675 172.93515 700.5115 191.09375 696.5625 C 220.37945 688.9075 206.01805 693.912 234.15625 681.375 C 291.49475 648.212 342.1895 605.53075 392.3125 562.46875 C 408.21799 548.62456 424.07026 534.69403 439.78125 520.625 C 467.54319 536.06188 495.51529 551.14677 523.6875 565.84375 C 589.4171 600.13475 657.6757 629.10525 726.4375 656.65625 C 750.5125 666.34325 775.12635 674.86425 797.90625 687.40625 C 814.46125 695.87525 854.3676 617.844 837.8125 609.375 C 811.9086 596.765 784.99465 586.6425 757.96875 576.6875 C 691.69485 550.9455 626.0318 523.50775 562.9375 490.59375 C 543.66461 480.53598 524.52506 470.26135 505.46875 459.8125 C 524.6122 441.37665 543.37877 422.54548 561.625 403.1875 C 592.2233 370.7845 622.52845 338.057 650.40625 303.25 C 652.94561 299.83891 651.24464 294.46634 647 288.40625 C 673.79558 286.4581 700.62628 284.83205 727.46875 283.5625 C 750.99265 286.4945 781.63075 276.458 804.59375 283.875 C 823.12485 286.573 835.8436 199.198 817.3125 196.5 C 785.8658 193.205 754.3108 196.534 722.8125 197.75 C 654.92053 201.88529 587.15461 207.73748 519.53125 215.03125 C 542.33507 203.36202 567.33707 182.09283 561.21875 172.53125 C 551.91315 158.24025 556.78925 165.48475 546.59375 150.71875 C 531.48985 129.87375 515.48675 109.603 501.84375 87.75 C 500.47638 85.492828 497.80464 84.470641 494.25 84.40625 z M 541.1875 297.78125 C 527.40303 313.66283 513.13019 329.15619 498.875 344.59375 C 476.11489 369.21433 452.41627 392.87923 428.09375 415.90625 C 407.36872 403.71403 386.7824 391.23944 366.375 378.5 C 339.97984 362.14884 313.38225 345.97198 287.96875 328.09375 C 359.25724 319.55387 430.45745 310.31693 501.78125 302.0625 C 514.90852 300.55948 528.04663 299.14362 541.1875 297.78125 z M 348.03125 645.875 C 339.415 645.73877 333.09785 647.507 331.75 652 C 321.9366 693.112 319.1953 735.497 315.75 777.5 C 312.2092 826.899 307.34015 876.181 301.65625 925.375 C 299.79625 940.173 298.02405 954.9735 296.53125 969.8125 C 294.96175 988.4035 382.6181 995.80975 384.1875 977.21875 C 385.1068 963.05275 386.53695 948.9235 388.09375 934.8125 C 393.24815 884.8655 397.97675 834.8785 401.84375 784.8125 C 405.01465 748.8745 407.35575 712.4735 416.46875 677.4375 C 420.51237 663.95925 373.88001 646.2837 348.03125 645.875 z M 647.1875 668.09375 C 622.67807 668.23614 595.02766 674.50181 595.65625 685.03125 C 598.20115 721.97725 601.196 758.89025 604.4375 795.78125 C 609.234 846.97225 613.7943 898.18525 618.25 949.40625 C 618.8246 955.93325 619.39415 962.473 619.96875 969 C 621.73405 987.388 708.42145 979.04425 706.65625 960.65625 C 705.98765 954.23325 705.32485 947.82925 704.65625 941.40625 C 699.64005 890.49925 695.0518 839.5355 690.75 788.5625 C 687.8768 752.3415 684.99515 716.11025 683.90625 679.78125 C 683.4173 671.59125 666.25039 667.983 647.1875 668.09375 z "
     id="path10661" />
</svg>
