<?xml version="1.0" encoding="utf-8" ?>

<!DOCTYPE svg PUBLIC "-//W3C//DTD SVG 1.1//EN" 
  "http://www.w3.org/Graphics/SVG/1.1/DTD/svg11.dtd">
<svg 
	xmlns="http://www.w3.org/2000/svg"
	xmlns:xlink="http://www.w3.org/1999/xlink"
	width="1024" height="1024">
<path d="m 319.08954,5306.9917 c -24.39052,13.9547 -47.03976,30.6155 -68.97632,48.1064 -12.20546,11.1515 -26.07971,20.843 -37.28561,33.07 2.70389,-2.2946 1.15825,0.2106 1.81047,-1.0341 4.58154,-17.9145 1.6543,-18.0551 6.38189,0.743 7.88438,26.1066 10.61856,53.2633 12.99744,80.3081 2.2659,19.686 2.40371,40.165 9.59252,58.8809 0.43659,0.7341 1.29001,3.0559 1.30977,2.2021 0.35538,-15.3562 -29.66469,-20.8287 -36.07342,-23.0549 21.11825,-0.4275 23.13357,99.1249 2.01532,99.5525 l 0,0 c -39.02728,-10.1942 -46.36166,-9.9215 -61.25786,-47.6018 -8.20925,-26.4224 -11.74339,-53.6718 -13.62729,-81.2414 -1.9513,-21.5709 -3.95025,-43.2621 -10.80697,-63.9486 -5.3975,-19.9352 -11.05303,-39.8706 -4.07944,-60.3226 5.12039,-12.9398 11.75587,-25.0949 21.74379,-35.0191 14.71709,-14.1116 30.67282,-26.8814 46.40795,-39.8263 25.45527,-19.8328 51.64568,-38.6737 78.9327,-55.9259 18.05493,-10.8008 68.96999,74.311 50.91506,85.1117 z" id="path4711" inkscape:connector-curvature="0" style="fill:#aa0000;fill-opacity:1;fill-rule:nonzero;stroke:#f9f9f9;stroke-width:0.1;stroke-miterlimit:4;stroke-dasharray:none" transform="translate(0, -5120)"/><path d="m 209.75214,5399.7851 c 30.11003,-7.924 60.83049,-13.1821 91.50256,-18.3771 20.02832,-2.9528 10.18632,-1.6816 29.52076,-3.8541 20.81364,-2.13 30.85452,95.9865 10.04087,98.1165 l 0,0 c -14.81953,1.3148 -6.99245,0.4618 -23.46813,2.6767 -26.59644,4.3193 -53.30913,8.7633 -79.14488,16.5716 -20.18089,6.0354 -48.63207,-89.0982 -28.45118,-95.1336 z" id="path4713" inkscape:connector-curvature="0" style="fill:#aa0000;fill-opacity:1;fill-rule:nonzero;stroke:#f9f9f9;stroke-width:0.1;stroke-miterlimit:4;stroke-dasharray:none" transform="translate(0, -5120)"/><path d="m 168.65132,5576.6066 c 31.68885,-14.719 64.58129,-26.455 97.76643,-37.2667 40.31609,-12.4935 81.70253,-20.7896 123.28428,-27.6965 14.0998,-2.3203 28.24938,-4.3166 42.38873,-6.3758 20.75434,-2.7861 33.88833,95.0508 13.13399,97.8369 l 0,0 c -13.30773,1.629 -26.61499,3.2744 -39.86694,5.3201 -36.62444,5.7489 -73.08099,12.7929 -108.52078,23.8756 -28.42074,9.3457 -56.72546,19.3508 -83.45824,32.9174 -18.79724,9.4881 -63.52471,-79.1229 -44.72747,-88.611 z" id="path4715" inkscape:connector-curvature="0" style="fill:#aa0000;fill-opacity:1;fill-rule:nonzero;stroke:#f9f9f9;stroke-width:0.1;stroke-miterlimit:4;stroke-dasharray:none" transform="translate(0, -5120)"/><path d="m 471.91943,5254.2305 c 28.93425,-5.8112 58.14758,-10.0829 87.41585,-13.7942 25.08169,-3.0934 50.24392,-5.4493 75.52441,-5.6138 38.10941,0.5195 59.73083,18.1081 75.88784,51.5549 9.41825,30.7583 8.29029,63.4331 8.58384,95.2818 0.0485,26.1443 1.88698,52.2072 3.83136,78.2617 1.22425,16.4144 1.64535,32.8888 1.36526,49.3445 -0.29578,3.1008 -0.59156,6.2016 -0.88734,9.3023 -2.63618,20.9448 -101.37086,8.5178 -98.73469,-12.427 l 0,0 c 0.0704,0.1917 0.14073,0.3834 0.2111,0.5751 0.49572,-13.3145 0.38505,-26.6622 -0.47785,-39.96 -1.80465,-27.987 -3.4667,-55.9792 -3.57799,-84.0365 -0.24222,-19.3873 -0.96971,-39.0549 -1.86608,-58.2721 4.00583,4.1323 7.75993,7.2526 13.27154,9.3812 1.84082,0.7109 7.74714,1.2198 5.89553,0.5374 -1.1653,-0.4294 -2.46281,-0.3222 -3.69422,-0.4834 -21.09025,-0.3038 -42.10235,1.6761 -63.03662,4.1018 -25.63937,3.2105 -51.3209,6.7474 -76.47024,12.7888 -20.47974,4.9303 -43.72145,-91.6122 -23.2417,-96.5425 z" id="path4717" inkscape:connector-curvature="0" style="fill:#aa0000;fill-opacity:1;fill-rule:nonzero;stroke:#f9f9f9;stroke-width:0.1;stroke-miterlimit:4;stroke-dasharray:none" transform="translate(0, -5120)"/><path d="m 500.87154,5381.8219 c 26.56565,0.3706 53.09021,-1.9505 79.57955,-3.6821 20.7701,-1.3053 41.53639,-2.7017 62.34666,-3.1074 21.01469,-0.1165 21.56403,98.9477 0.54933,99.0643 l 0,0 c -18.88516,-0.2665 -37.741,1.1609 -56.59178,2.117 -28.93385,1.8276 -57.8465,4.2622 -86.83896,4.9489 -21.07333,-0.2026 -20.11813,-99.5433 0.9552,-99.3407 z" id="path4719" inkscape:connector-curvature="0" style="fill:#aa0000;fill-opacity:1;fill-rule:nonzero;stroke:#f9f9f9;stroke-width:0.1;stroke-miterlimit:4;stroke-dasharray:none" transform="translate(0, -5120)"/><path d="m 375.8559,5521.5017 c 37.62908,-8.8929 76.41593,-11.1471 114.83638,-14.3065 45.82647,-3.217 91.39611,-8.9765 136.84015,-15.5683 21.04169,-3.812 42.15155,-5.1141 63.46267,-4.1758 20.93025,1.4697 14.00203,100.1358 -6.92822,98.6661 l 0,0 c -14.34609,-2.1941 -28.87548,0.9917 -43.14055,2.4414 -47.16469,6.2011 -94.39813,11.8776 -141.83008,15.6511 -31.59223,2.8792 -63.62051,4.7785 -94.50522,12.4152 -20.17868,6.0957 -48.91381,-89.0275 -28.73513,-95.1232 z" id="path4725" inkscape:connector-curvature="0" style="fill:#aa0000;fill-opacity:1;fill-rule:nonzero;stroke:#f9f9f9;stroke-width:0.1;stroke-miterlimit:4;stroke-dasharray:none" transform="translate(0, -5120)"/><path d="m 224.42591,5708.3536 c -2.77798,30.4926 -2.73473,61.1203 -2.35584,91.7047 0.80035,40.2965 2.47741,80.5734 5.86144,120.7376 2.59768,24.2329 5.7952,48.4464 10.52429,72.3646 4.92453,14.397 -2.20961,-4.5755 -9.96831,-9.9012 -4.18281,-2.8712 -9.20632,-4.2663 -13.80948,-6.3995 -2.90343,-11.9428 -10.8495,1.7622 -15.32316,-0.714 -0.25735,-0.1425 0.91283,-0.583 6.73003,-4.3392 7.63802,-4.932 9.60373,-6.3615 17.55621,-11.7976 21.84177,-14.814 43.60392,-29.7146 64.6599,-45.6306 16.64466,-12.5125 75.62914,65.9511 58.98448,78.4636 l 0,0 c -22.1344,16.5599 -44.81982,32.3305 -67.4629,48.184 -25.70431,18.046 -50.46163,36.3601 -83.67982,33.6356 -7.31221,-2.6466 -15.18815,-4.0757 -21.93663,-7.9398 -20.33644,-11.6442 -29.03061,-34.0596 -33.16637,-55.7024 -4.70694,-27.3119 -8.12188,-54.8499 -10.72162,-82.4379 -3.19735,-42.2602 -4.92447,-84.6075 -5.99492,-126.9733 -0.62871,-32.9474 -0.66705,-65.8907 0.93316,-98.8155 1.17964,-21.037 100.34919,-15.4761 99.16954,5.5609 z" id="path4727" inkscape:connector-curvature="0" style="fill:#aa0000;fill-opacity:1;fill-rule:nonzero;stroke:#f9f9f9;stroke-width:0.1;stroke-miterlimit:4;stroke-dasharray:none" transform="translate(0, -5120)"/><path d="m 349.77189,5681.9846 c 14.34416,17.9121 30.59597,34.1078 47.54391,49.5259 12.22276,10.9675 6.16757,5.4942 18.16698,16.4183 15.41564,14.1711 -51.38789,86.8411 -66.80353,72.67 l 0,0 c -11.40599,-10.5955 -5.46093,-5.128 -17.84802,-16.3883 -20.13336,-18.4912 -39.32018,-37.9242 -57.30445,-58.5275 -13.51248,-16.174 62.73262,-79.8725 76.24511,-63.6984 z" id="path4729" inkscape:connector-curvature="0" style="fill:#aa0000;fill-opacity:1;fill-rule:nonzero;stroke:#f9f9f9;stroke-width:0.1;stroke-miterlimit:4;stroke-dasharray:none" transform="translate(0, -5120)"/><path d="m 303.77161,5795.5633 c 24.34093,10.0174 47.88984,21.7596 71.39155,33.5716 18.66727,9.4467 -25.865,97.4451 -44.53228,87.9984 l 0,0 c -20.69619,-10.5474 -41.39893,-21.2572 -63.27708,-29.1931 -19.59609,-7.7254 16.82171,-100.1023 36.41781,-92.3769 z" id="path4731" inkscape:connector-curvature="0" style="fill:#aa0000;fill-opacity:1;fill-rule:nonzero;stroke:#f9f9f9;stroke-width:0.1;stroke-miterlimit:4;stroke-dasharray:none" transform="translate(0, -5120)"/><path d="m 506.77334,5631.5495 c -1.30581,32.414 0.79465,64.887 1.68097,97.2982 1.79555,52.2268 5.15092,104.3835 8.17745,156.5491 3.23385,30.2388 3.53789,61.7836 13.04822,90.9697 0.35202,0.1395 1.14696,0.7859 1.05605,0.4183 -2.94146,-11.8934 -14.72321,-17.1833 -25.70216,-18.8398 6.32403,-5.6102 13.22104,-12.0664 19.00121,-18.7699 6.01176,-7.7543 3.38307,-3.9068 8.01474,-11.4538 11.49815,-17.5293 94.13219,36.6735 82.63404,54.2029 l 0,0 c -10.87724,16.1348 -5.25674,8.5181 -16.76166,22.9236 -19.03413,21.0891 -40.0906,40.2232 -67.74935,49.0341 -45.93341,9.4203 -79.28265,-5.3649 -95.69497,-51.1111 -9.36182,-36.6178 -12.63921,-74.381 -14.96002,-112.0279 -2.75667,-52.932 -6.06628,-105.8357 -8.30625,-158.7934 -1.44057,-39.368 -5.21774,-78.9008 -2.15537,-118.2522 3.78702,-20.7289 101.50412,-2.8768 97.7171,17.8522 z" id="path4733" inkscape:connector-curvature="0" style="fill:#aa0000;fill-opacity:1;fill-rule:nonzero;stroke:#f9f9f9;stroke-width:0.1;stroke-miterlimit:4;stroke-dasharray:none" transform="translate(0, -5120)"/><path d="m 603.10034,5631.581 c 13.09271,21.7326 30.04194,40.7473 45.0071,61.1657 12.26641,16.9058 -67.42853,74.7302 -79.69494,57.8244 l 0,0 c -16.64021,-23.2463 -35.99,-44.508 -51.02319,-68.9213 -10.6212,-18.1821 75.08983,-68.2509 85.71103,-50.0688 z" id="path4735" inkscape:connector-curvature="0" style="fill:#aa0000;fill-opacity:1;fill-rule:nonzero;stroke:#f9f9f9;stroke-width:0.1;stroke-miterlimit:4;stroke-dasharray:none" transform="translate(0, -5120)"/><path d="m 603.31123,5798.3457 c 15.19449,14.3593 32.10085,26.8186 48.86201,39.2736 11.12456,8.2738 5.69311,4.2055 16.29773,12.2002 16.67544,12.7553 -43.4538,91.3641 -60.12924,78.6087 l 0,0 c -9.77797,-7.5987 -4.66819,-3.669 -15.33956,-11.7756 -19.89479,-14.9961 -39.80529,-30.0581 -58.46227,-46.5882 -15.21383,-14.5886 53.5575,-86.3073 68.77133,-71.7187 z" id="path4737" inkscape:connector-curvature="0" style="fill:#aa0000;fill-opacity:1;fill-rule:nonzero;stroke:#f9f9f9;stroke-width:0.1;stroke-miterlimit:4;stroke-dasharray:none" transform="translate(0, -5120)"/><path d="m 678.50854,5590.6957 c 8.02959,39.846 19.37394,78.8808 31.68677,117.5806 15.42486,49.8171 33.84783,98.5061 57.23269,145.1203 18.65512,35.4203 42.21542,67.8028 68.69787,97.7106 14.69801,13.9575 27.98543,32.4319 47.04734,40.8803 0.59651,0.061 1.19302,0.1214 1.78952,0.1821 19.54765,7.7311 -16.89731,99.8796 -36.44496,92.1485 l 0,0 c -4.4839,-1.9486 -8.9678,-3.8972 -13.45169,-5.8459 -27.94494,-16.459 -51.41978,-38.6126 -72.72717,-62.9911 -31.52233,-36.5595 -59.78327,-75.8286 -81.89257,-118.876 -25.19175,-51.1423 -45.67473,-104.2293 -62.65382,-158.667 -13.39072,-41.3776 -25.53727,-83.1101 -36.00641,-125.3287 -4.64859,-20.518 92.07384,-42.4316 96.72243,-21.9137 z" id="path4739" inkscape:connector-curvature="0" style="fill:#aa0000;fill-opacity:1;fill-rule:nonzero;stroke:#f9f9f9;stroke-width:0.1;stroke-miterlimit:4;stroke-dasharray:none" transform="translate(0, -5120)"/></svg>